<?xml version="1.0" encoding="UTF-8" standalone="no"?>
<!DOCTYPE svg PUBLIC "-//W3C//DTD SVG 1.1//EN"
 "http://www.w3.org/Graphics/SVG/1.1/DTD/svg11.dtd">
<!-- Generated by graphviz version 9.0.0 (20230911.1827)
 -->
<!-- Title: ev_t Pages: 1 -->
<svg width="208pt" height="876pt"
 viewBox="0.00 0.00 207.50 875.50" xmlns="http://www.w3.org/2000/svg" xmlns:xlink="http://www.w3.org/1999/xlink">
<g id="graph0" class="graph" transform="scale(1 1) rotate(0) translate(4 871.5)">
<title>ev_t</title>
<!-- Node1 -->
<g id="Node000001" class="node">
<title>Node1</title>
<g id="a_Node000001"><a xlink:title=" ">
<polygon fill="#999999" stroke="none" points="141,-730 0,-730 0,0 141,0 141,-730"/>
<text text-anchor="start" x="61.12" y="-716.5" font-family="Helvetica,sans-Serif" font-size="10.00">ev_t</text>
<text text-anchor="start" x="4" y="-701.5" font-family="Helvetica,sans-Serif" font-size="10.00">+</text>
<text text-anchor="start" x="14" y="-701.5" font-family="Helvetica,sans-Serif" font-size="10.00">uint8_t type</text>
<text text-anchor="start" x="4" y="-686.5" font-family="Helvetica,sans-Serif" font-size="10.00">+</text>
<text text-anchor="start" x="14" y="-686.5" font-family="Helvetica,sans-Serif" font-size="10.00">uint8_t generation</text>
<text text-anchor="start" x="4" y="-671.5" font-family="Helvetica,sans-Serif" font-size="10.00">+</text>
<text text-anchor="start" x="14" y="-671.5" font-family="Helvetica,sans-Serif" font-size="10.00">uint16_t flags</text>
<text text-anchor="start" x="4" y="-656.5" font-family="Helvetica,sans-Serif" font-size="10.00">+</text>
<text text-anchor="start" x="14" y="-656.5" font-family="Helvetica,sans-Serif" font-size="10.00">uint16_t priority</text>
<text text-anchor="start" x="4" y="-641.5" font-family="Helvetica,sans-Serif" font-size="10.00">+</text>
<text text-anchor="start" x="14" y="-641.5" font-family="Helvetica,sans-Serif" font-size="10.00">uint16_t events_avail</text>
<text text-anchor="start" x="4" y="-626.5" font-family="Helvetica,sans-Serif" font-size="10.00">+</text>
<text text-anchor="start" x="14" y="-626.5" font-family="Helvetica,sans-Serif" font-size="10.00">uint16_t events_act</text>
<text text-anchor="start" x="4" y="-611.5" font-family="Helvetica,sans-Serif" font-size="10.00">+</text>
<text text-anchor="start" x="14" y="-611.5" font-family="Helvetica,sans-Serif" font-size="10.00">union ev_t::@69 @70</text>
<text text-anchor="start" x="4" y="-596.5" font-family="Helvetica,sans-Serif" font-size="10.00">+</text>
<text text-anchor="start" x="14" y="-596.5" font-family="Helvetica,sans-Serif" font-size="10.00">uint16_t events_wanted</text>
<text text-anchor="start" x="4" y="-581.5" font-family="Helvetica,sans-Serif" font-size="10.00">+</text>
<text text-anchor="start" x="14" y="-581.5" font-family="Helvetica,sans-Serif" font-size="10.00">el_cb_f * cb</text>
<text text-anchor="start" x="4" y="-566.5" font-family="Helvetica,sans-Serif" font-size="10.00">+</text>
<text text-anchor="start" x="14" y="-566.5" font-family="Helvetica,sans-Serif" font-size="10.00">el_signal_f * signal</text>
<text text-anchor="start" x="4" y="-551.5" font-family="Helvetica,sans-Serif" font-size="10.00">+</text>
<text text-anchor="start" x="14" y="-551.5" font-family="Helvetica,sans-Serif" font-size="10.00">el_child_f * child</text>
<text text-anchor="start" x="4" y="-536.5" font-family="Helvetica,sans-Serif" font-size="10.00">+</text>
<text text-anchor="start" x="14" y="-536.5" font-family="Helvetica,sans-Serif" font-size="10.00">el_fd_f * fd</text>
<text text-anchor="start" x="4" y="-521.5" font-family="Helvetica,sans-Serif" font-size="10.00">+</text>
<text text-anchor="start" x="14" y="-521.5" font-family="Helvetica,sans-Serif" font-size="10.00">el_proxy_f * prox</text>
<text text-anchor="start" x="4" y="-506.5" font-family="Helvetica,sans-Serif" font-size="10.00">+</text>
<text text-anchor="start" x="14" y="-506.5" font-family="Helvetica,sans-Serif" font-size="10.00">el_fs_watch_f * fs</text>
<text text-anchor="start" x="14" y="-495.25" font-family="Helvetica,sans-Serif" font-size="10.00">_watch</text>
<text text-anchor="start" x="4" y="-480.5" font-family="Helvetica,sans-Serif" font-size="10.00">+</text>
<text text-anchor="start" x="14" y="-480.5" font-family="Helvetica,sans-Serif" font-size="10.00">el_cb_b cb_blk</text>
<text text-anchor="start" x="4" y="-465.5" font-family="Helvetica,sans-Serif" font-size="10.00">+</text>
<text text-anchor="start" x="14" y="-465.5" font-family="Helvetica,sans-Serif" font-size="10.00">el_signal_b signal_blk</text>
<text text-anchor="start" x="4" y="-450.5" font-family="Helvetica,sans-Serif" font-size="10.00">+</text>
<text text-anchor="start" x="14" y="-450.5" font-family="Helvetica,sans-Serif" font-size="10.00">el_child_b child_blk</text>
<text text-anchor="start" x="4" y="-435.5" font-family="Helvetica,sans-Serif" font-size="10.00">+</text>
<text text-anchor="start" x="14" y="-435.5" font-family="Helvetica,sans-Serif" font-size="10.00">el_fd_b fd_blk</text>
<text text-anchor="start" x="4" y="-420.5" font-family="Helvetica,sans-Serif" font-size="10.00">+</text>
<text text-anchor="start" x="14" y="-420.5" font-family="Helvetica,sans-Serif" font-size="10.00">el_proxy_b proxy_blk</text>
<text text-anchor="start" x="4" y="-405.5" font-family="Helvetica,sans-Serif" font-size="10.00">+</text>
<text text-anchor="start" x="14" y="-405.5" font-family="Helvetica,sans-Serif" font-size="10.00">el_fs_watch_b fs_watch_blk</text>
<text text-anchor="start" x="4" y="-390.5" font-family="Helvetica,sans-Serif" font-size="10.00">+</text>
<text text-anchor="start" x="14" y="-390.5" font-family="Helvetica,sans-Serif" font-size="10.00">union ev_t::@71 cb</text>
<text text-anchor="start" x="4" y="-375.5" font-family="Helvetica,sans-Serif" font-size="10.00">+</text>
<text text-anchor="start" x="14" y="-375.5" font-family="Helvetica,sans-Serif" font-size="10.00">block_t wipe</text>
<text text-anchor="start" x="4" y="-360.5" font-family="Helvetica,sans-Serif" font-size="10.00">+</text>
<text text-anchor="start" x="14" y="-360.5" font-family="Helvetica,sans-Serif" font-size="10.00">union ev_t::@72 @73</text>
<text text-anchor="start" x="4" y="-345.5" font-family="Helvetica,sans-Serif" font-size="10.00">+</text>
<text text-anchor="start" x="14" y="-345.5" font-family="Helvetica,sans-Serif" font-size="10.00">int fd</text>
<text text-anchor="start" x="4" y="-330.5" font-family="Helvetica,sans-Serif" font-size="10.00">+</text>
<text text-anchor="start" x="14" y="-330.5" font-family="Helvetica,sans-Serif" font-size="10.00">bool owned</text>
<text text-anchor="start" x="4" y="-315.5" font-family="Helvetica,sans-Serif" font-size="10.00">+</text>
<text text-anchor="start" x="14" y="-315.5" font-family="Helvetica,sans-Serif" font-size="10.00">struct ev_t::@74::</text>
<text text-anchor="start" x="14" y="-304.25" font-family="Helvetica,sans-Serif" font-size="10.00">@76 fd</text>
<text text-anchor="start" x="4" y="-289.5" font-family="Helvetica,sans-Serif" font-size="10.00">+</text>
<text text-anchor="start" x="14" y="-289.5" font-family="Helvetica,sans-Serif" font-size="10.00">pid_t pid</text>
<text text-anchor="start" x="4" y="-274.5" font-family="Helvetica,sans-Serif" font-size="10.00">+</text>
<text text-anchor="start" x="14" y="-274.5" font-family="Helvetica,sans-Serif" font-size="10.00">int status</text>
<text text-anchor="start" x="4" y="-259.5" font-family="Helvetica,sans-Serif" font-size="10.00">+</text>
<text text-anchor="start" x="14" y="-259.5" font-family="Helvetica,sans-Serif" font-size="10.00">bool has_exited</text>
<text text-anchor="start" x="4" y="-244.5" font-family="Helvetica,sans-Serif" font-size="10.00">+</text>
<text text-anchor="start" x="14" y="-244.5" font-family="Helvetica,sans-Serif" font-size="10.00">struct ev_t::@74::</text>
<text text-anchor="start" x="14" y="-233.25" font-family="Helvetica,sans-Serif" font-size="10.00">@77 child</text>
<text text-anchor="start" x="4" y="-218.5" font-family="Helvetica,sans-Serif" font-size="10.00">+</text>
<text text-anchor="start" x="14" y="-218.5" font-family="Helvetica,sans-Serif" font-size="10.00">uint64_t expiry</text>
<text text-anchor="start" x="4" y="-203.5" font-family="Helvetica,sans-Serif" font-size="10.00">+</text>
<text text-anchor="start" x="14" y="-203.5" font-family="Helvetica,sans-Serif" font-size="10.00">int64_t repeat</text>
<text text-anchor="start" x="4" y="-188.5" font-family="Helvetica,sans-Serif" font-size="10.00">+</text>
<text text-anchor="start" x="14" y="-188.5" font-family="Helvetica,sans-Serif" font-size="10.00">int tolerance</text>
<text text-anchor="start" x="4" y="-173.5" font-family="Helvetica,sans-Serif" font-size="10.00">+</text>
<text text-anchor="start" x="14" y="-173.5" font-family="Helvetica,sans-Serif" font-size="10.00">int heappos</text>
<text text-anchor="start" x="4" y="-158.5" font-family="Helvetica,sans-Serif" font-size="10.00">+</text>
<text text-anchor="start" x="14" y="-158.5" font-family="Helvetica,sans-Serif" font-size="10.00">struct ev_t::@74::</text>
<text text-anchor="start" x="14" y="-147.25" font-family="Helvetica,sans-Serif" font-size="10.00">@78 timer</text>
<text text-anchor="start" x="4" y="-132.5" font-family="Helvetica,sans-Serif" font-size="10.00">+</text>
<text text-anchor="start" x="14" y="-132.5" font-family="Helvetica,sans-Serif" font-size="10.00">char * path</text>
<text text-anchor="start" x="4" y="-117.5" font-family="Helvetica,sans-Serif" font-size="10.00">+</text>
<text text-anchor="start" x="14" y="-117.5" font-family="Helvetica,sans-Serif" font-size="10.00">struct ev_t::@74::</text>
<text text-anchor="start" x="14" y="-106.25" font-family="Helvetica,sans-Serif" font-size="10.00">@79 fs_watch</text>
<text text-anchor="start" x="4" y="-91.5" font-family="Helvetica,sans-Serif" font-size="10.00">+</text>
<text text-anchor="start" x="14" y="-91.5" font-family="Helvetica,sans-Serif" font-size="10.00">int write_fd</text>
<text text-anchor="start" x="4" y="-76.5" font-family="Helvetica,sans-Serif" font-size="10.00">+</text>
<text text-anchor="start" x="14" y="-76.5" font-family="Helvetica,sans-Serif" font-size="10.00">bool use_eventfd</text>
<text text-anchor="start" x="4" y="-61.5" font-family="Helvetica,sans-Serif" font-size="10.00">+</text>
<text text-anchor="start" x="14" y="-61.5" font-family="Helvetica,sans-Serif" font-size="10.00">struct ev_t::@74::</text>
<text text-anchor="start" x="14" y="-50.25" font-family="Helvetica,sans-Serif" font-size="10.00">@80 wake</text>
<text text-anchor="start" x="4" y="-35.5" font-family="Helvetica,sans-Serif" font-size="10.00">+</text>
<text text-anchor="start" x="14" y="-35.5" font-family="Helvetica,sans-Serif" font-size="10.00">uint8_t signo</text>
<text text-anchor="start" x="4" y="-20.5" font-family="Helvetica,sans-Serif" font-size="10.00">+</text>
<text text-anchor="start" x="14" y="-20.5" font-family="Helvetica,sans-Serif" font-size="10.00">union ev_t::@74 @75</text>
<text text-anchor="start" x="69" y="-5.5" font-family="Helvetica,sans-Serif" font-size="10.00"> </text>
<polygon fill="#666666" stroke="#666666" points="0,-713 0,-713 141,-713 141,-713 0,-713"/>
<polygon fill="#666666" stroke="#666666" points="0,-17 0,-17 12,-17 12,-17 0,-17"/>
<polygon fill="#666666" stroke="#666666" points="12,-17 12,-17 141,-17 141,-17 12,-17"/>
<polygon fill="none" stroke="#666666" points="0,0 0,-730 141,-730 141,0 0,0"/>
</a>
</g>
</g>
<!-- Node1&#45;&gt;Node1 -->
<g id="edge4_Node000001_Node000001" class="edge">
<title>Node1&#45;&gt;Node1</title>
<g id="a_edge4_Node000001_Node000001"><a xlink:title=" ">
<path fill="none" stroke="#63b8ff" d="M140.97,-432.41C151.71,-422.12 159,-399.65 159,-365 159,-339.28 154.98,-320.28 148.52,-307.98"/>
<polygon fill="none" stroke="#63b8ff" points="148.56,-308.03 141.79,-305.53 141.5,-298.32 148.26,-300.82 148.56,-308.03"/>
</a>
</g>
<text text-anchor="middle" x="179.25" y="-361.12" font-family="Helvetica,sans-Serif" font-size="10.00" fill="grey"> +read_fd</text>
</g>
<!-- Node2 -->
<g id="Node000002" class="node">
<title>Node2</title>
<g id="a_Node000002"><a xlink:href="../../d3/ddf/uniondata__t.html" target="_top" xlink:title="Type to pass as a generic context.">
<polygon fill="white" stroke="none" points="83.5,-867.5 13.5,-867.5 13.5,-788.5 83.5,-788.5 83.5,-867.5"/>
<text text-anchor="start" x="35" y="-854" font-family="Helvetica,sans-Serif" font-size="10.00">data_t</text>
<text text-anchor="start" x="17.5" y="-839" font-family="Helvetica,sans-Serif" font-size="10.00">+</text>
<text text-anchor="start" x="27.5" y="-839" font-family="Helvetica,sans-Serif" font-size="10.00">void * ptr</text>
<text text-anchor="start" x="17.5" y="-824" font-family="Helvetica,sans-Serif" font-size="10.00">+</text>
<text text-anchor="start" x="27.5" y="-824" font-family="Helvetica,sans-Serif" font-size="10.00">uint32_t u32</text>
<text text-anchor="start" x="17.5" y="-809" font-family="Helvetica,sans-Serif" font-size="10.00">+</text>
<text text-anchor="start" x="27.5" y="-809" font-family="Helvetica,sans-Serif" font-size="10.00">uint64_t u64</text>
<text text-anchor="start" x="47" y="-794" font-family="Helvetica,sans-Serif" font-size="10.00"> </text>
<polygon fill="#666666" stroke="#666666" points="13.5,-850.5 13.5,-850.5 83.5,-850.5 83.5,-850.5 13.5,-850.5"/>
<polygon fill="#666666" stroke="#666666" points="13.5,-805.5 13.5,-805.5 25.5,-805.5 25.5,-805.5 13.5,-805.5"/>
<polygon fill="#666666" stroke="#666666" points="25.5,-805.5 25.5,-805.5 83.5,-805.5 83.5,-805.5 25.5,-805.5"/>
<polygon fill="none" stroke="#666666" points="13.5,-788.5 13.5,-867.5 83.5,-867.5 83.5,-788.5 13.5,-788.5"/>
</a>
</g>
</g>
<!-- Node2&#45;&gt;Node1 -->
<g id="edge1_Node000001_Node000002" class="edge">
<title>Node2&#45;&gt;Node1</title>
<g id="a_edge1_Node000001_Node000002"><a xlink:title=" ">
<path fill="none" stroke="#63b8ff" d="M50.32,-788.88C50.94,-775.97 51.68,-760.31 52.52,-742.7"/>
<polygon fill="none" stroke="#63b8ff" points="52.52,-742.77 48.81,-736.59 53.09,-730.79 56.8,-736.97 52.52,-742.77"/>
</a>
</g>
<text text-anchor="middle" x="63.38" y="-761" font-family="Helvetica,sans-Serif" font-size="10.00" fill="grey"> +ctx</text>
<text text-anchor="middle" x="63.38" y="-749.75" font-family="Helvetica,sans-Serif" font-size="10.00" fill="grey">+priv</text>
</g>
<!-- Node3 -->
<g id="Node000003" class="node">
<title>Node3</title>
<g id="a_Node000003"><a xlink:href="../../db/ddb/structdlist__t.html" target="_top" xlink:title=" ">
<polygon fill="white" stroke="none" points="137.5,-852.5 101.5,-852.5 101.5,-803.5 137.5,-803.5 137.5,-852.5"/>
<text text-anchor="start" x="106.38" y="-839" font-family="Helvetica,sans-Serif" font-size="10.00">dlist_t</text>
<text text-anchor="start" x="118" y="-824" font-family="Helvetica,sans-Serif" font-size="10.00"> </text>
<text text-anchor="start" x="118" y="-809" font-family="Helvetica,sans-Serif" font-size="10.00"> </text>
<polygon fill="#666666" stroke="#666666" points="101.5,-835.5 101.5,-835.5 137.5,-835.5 137.5,-835.5 101.5,-835.5"/>
<polygon fill="#666666" stroke="#666666" points="101.5,-820.5 101.5,-820.5 137.5,-820.5 137.5,-820.5 101.5,-820.5"/>
<polygon fill="none" stroke="#666666" points="101.5,-803.5 101.5,-852.5 137.5,-852.5 137.5,-803.5 101.5,-803.5"/>
</a>
</g>
</g>
<!-- Node3&#45;&gt;Node1 -->
<g id="edge2_Node000001_Node000003" class="edge">
<title>Node3&#45;&gt;Node1</title>
<g id="a_edge2_Node000001_Node000003"><a xlink:title=" ">
<path fill="none" stroke="#63b8ff" d="M117,-803.51C115.43,-788.67 113.19,-767.62 110.54,-742.67"/>
<polygon fill="none" stroke="#63b8ff" points="110.52,-742.54 105.91,-736.99 109.25,-730.6 113.87,-736.15 110.52,-742.54"/>
</a>
</g>
<text text-anchor="middle" x="130.88" y="-755.38" font-family="Helvetica,sans-Serif" font-size="10.00" fill="grey"> +ev_list</text>
</g>
<!-- Node3&#45;&gt;Node3 -->
<g id="edge3_Node000003_Node000003" class="edge">
<title>Node3&#45;&gt;Node3</title>
<g id="a_edge3_Node000003_Node000003"><a xlink:title=" ">
<path fill="none" stroke="#63b8ff" d="M137.28,-840.36C146.81,-842.46 155.5,-838.34 155.5,-828 155.5,-822.83 153.33,-819.22 149.97,-817.16"/>
<polygon fill="none" stroke="#63b8ff" points="150.09,-817.17 143.66,-820.43 138.18,-815.75 144.61,-812.49 150.09,-817.17"/>
</a>
</g>
<text text-anchor="middle" x="168.62" y="-829.75" font-family="Helvetica,sans-Serif" font-size="10.00" fill="grey"> +next</text>
<text text-anchor="middle" x="168.62" y="-818.5" font-family="Helvetica,sans-Serif" font-size="10.00" fill="grey">+prev</text>
</g>
</g>
</svg>
