<?xml version="1.0" encoding="UTF-8" standalone="no"?>
<!DOCTYPE svg PUBLIC "-//W3C//DTD SVG 1.1//EN"
 "http://www.w3.org/Graphics/SVG/1.1/DTD/svg11.dtd">
<!-- Generated by graphviz version 9.0.0 (20230911.1827)
 -->
<!-- Title: cmp_u8 Pages: 1 -->
<svg width="981pt" height="176pt"
 viewBox="0.00 0.00 980.50 176.25" xmlns="http://www.w3.org/2000/svg" xmlns:xlink="http://www.w3.org/1999/xlink">
<g id="graph0" class="graph" transform="scale(1 1) rotate(0) translate(4 172.25)">
<title>cmp_u8</title>
<!-- Node1 -->
<g id="Node000001" class="node">
<title>Node1</title>
<g id="a_Node000001"><a xlink:title=" ">
<polygon fill="#999999" stroke="#666666" points="972.5,-93.25 922,-93.25 922,-74 972.5,-74 972.5,-93.25"/>
<text text-anchor="middle" x="947.25" y="-79.75" font-family="Helvetica,sans-Serif" font-size="10.00">cmp_u8</text>
</a>
</g>
</g>
<!-- Node2 -->
<g id="Node000002" class="node">
<title>Node2</title>
<g id="a_Node000002"><a xlink:href="../../d0/d2d/iop_8blk.html#a9be19fae9862de2984b13c17480709fb" target="_top" xlink:title=" ">
<polygon fill="white" stroke="#666666" points="886,-93.25 795.75,-93.25 795.75,-74 886,-74 886,-93.25"/>
<text text-anchor="middle" x="840.88" y="-79.75" font-family="Helvetica,sans-Serif" font-size="10.00">iop_get_cmp_fun</text>
</a>
</g>
</g>
<!-- Node1&#45;&gt;Node2 -->
<g id="edge1_Node000001_Node000002" class="edge">
<title>Node1&#45;&gt;Node2</title>
<g id="a_edge1_Node000001_Node000002"><a xlink:title=" ">
<path fill="none" stroke="#63b8ff" d="M910.07,-83.62C902.46,-83.62 894.34,-83.62 886.46,-83.62"/>
<polygon fill="#63b8ff" stroke="#63b8ff" points="910,-87.13 920,-83.63 910,-80.13 910,-87.13"/>
</a>
</g>
</g>
<!-- Node3 -->
<g id="Node000003" class="node">
<title>Node3</title>
<g id="a_Node000003"><a xlink:href="../../d0/d2d/iop_8blk.html#a0f28a8d736ba51afe0e043c16793bfd1" target="_top" xlink:title=" ">
<polygon fill="white" stroke="#666666" points="588.12,-131.25 517.38,-131.25 517.38,-112 588.12,-112 588.12,-131.25"/>
<text text-anchor="middle" x="552.75" y="-117.75" font-family="Helvetica,sans-Serif" font-size="10.00">__t_iop_filter</text>
</a>
</g>
</g>
<!-- Node2&#45;&gt;Node3 -->
<g id="edge2_Node000002_Node000003" class="edge">
<title>Node2&#45;&gt;Node3</title>
<g id="a_edge2_Node000002_Node000003"><a xlink:title=" ">
<path fill="none" stroke="#63b8ff" d="M791.24,-96.31C780.9,-98.69 770.01,-100.94 759.75,-102.62 700.03,-112.41 629.68,-117.55 588.57,-119.91"/>
<polygon fill="#63b8ff" stroke="#63b8ff" points="791.8,-99.78 800.72,-94.07 790.18,-92.97 791.8,-99.78"/>
</a>
</g>
</g>
<!-- Node8 -->
<g id="Node000008" class="node">
<title>Node8</title>
<g id="a_Node000008"><a xlink:href="../../d0/d2d/iop_8blk.html#a4df79be46b4f506b6bfe5032741e2f11" target="_top" xlink:title=" ">
<polygon fill="white" stroke="#666666" points="733.88,-56.25 652.62,-56.25 652.62,-37 733.88,-37 733.88,-56.25"/>
<text text-anchor="middle" x="693.25" y="-42.75" font-family="Helvetica,sans-Serif" font-size="10.00">iop_cmp_value</text>
</a>
</g>
</g>
<!-- Node2&#45;&gt;Node8 -->
<g id="edge7_Node000002_Node000008" class="edge">
<title>Node2&#45;&gt;Node8</title>
<g id="a_edge7_Node000002_Node000008"><a xlink:title=" ">
<path fill="none" stroke="#63b8ff" d="M789.14,-70.73C771.07,-66.14 751.01,-61.05 733.99,-56.72"/>
<polygon fill="#63b8ff" stroke="#63b8ff" points="788.06,-74.07 798.62,-73.14 789.79,-67.29 788.06,-74.07"/>
</a>
</g>
</g>
<!-- Node18 -->
<g id="Node000018" class="node">
<title>Node18</title>
<g id="a_Node000018"><a xlink:href="../../d0/d2d/iop_8blk.html#ab4e22b7c768920fb06007a30dfb6f355" target="_top" xlink:title=" ">
<polygon fill="white" stroke="#666666" points="759.75,-93.25 626.75,-93.25 626.75,-74 759.75,-74 759.75,-93.25"/>
<text text-anchor="middle" x="693.25" y="-79.75" font-family="Helvetica,sans-Serif" font-size="10.00">iop_get_equal_fun_sql_like</text>
</a>
</g>
</g>
<!-- Node2&#45;&gt;Node18 -->
<g id="edge18_Node000002_Node000018" class="edge">
<title>Node2&#45;&gt;Node18</title>
<g id="a_edge18_Node000002_Node000018"><a xlink:title=" ">
<path fill="none" stroke="#63b8ff" d="M784.15,-83.62C776.31,-83.62 768.19,-83.62 760.18,-83.62"/>
<polygon fill="#63b8ff" stroke="#63b8ff" points="783.88,-87.13 793.88,-83.63 783.88,-80.13 783.88,-87.13"/>
</a>
</g>
</g>
<!-- Node4 -->
<g id="Node000004" class="node">
<title>Node4</title>
<g id="a_Node000004"><a xlink:href="../../d0/d2d/iop_8blk.html#aa6b76e4b5bc7384d01a8ce42e8a29d52" target="_top" xlink:title=" ">
<polygon fill="white" stroke="#666666" points="469.38,-168.25 374.62,-168.25 374.62,-149 469.38,-149 469.38,-168.25"/>
<text text-anchor="middle" x="422" y="-154.75" font-family="Helvetica,sans-Serif" font-size="10.00">t_iop_filter_bitmap</text>
</a>
</g>
</g>
<!-- Node3&#45;&gt;Node4 -->
<g id="edge3_Node000003_Node000004" class="edge">
<title>Node3&#45;&gt;Node4</title>
<g id="a_edge3_Node000003_Node000004"><a xlink:title=" ">
<path fill="none" stroke="#63b8ff" d="M506.23,-134.71C490.33,-139.27 472.76,-144.33 457.87,-148.6"/>
<polygon fill="#63b8ff" stroke="#63b8ff" points="506.81,-138.18 515.45,-132.06 504.88,-131.45 506.81,-138.18"/>
</a>
</g>
</g>
<!-- Node6 -->
<g id="Node000006" class="node">
<title>Node6</title>
<g id="a_Node000006"><a xlink:href="../../d0/d2d/iop_8blk.html#a770b375ad4f549e6fc68894ef28a27d8" target="_top" xlink:title=" ">
<polygon fill="white" stroke="#666666" points="478.75,-131.25 365.25,-131.25 365.25,-112 478.75,-112 478.75,-131.25"/>
<text text-anchor="middle" x="422" y="-117.75" font-family="Helvetica,sans-Serif" font-size="10.00">t_iop_filter_opt_bitmap</text>
</a>
</g>
</g>
<!-- Node3&#45;&gt;Node6 -->
<g id="edge5_Node000003_Node000006" class="edge">
<title>Node3&#45;&gt;Node6</title>
<g id="a_edge5_Node000003_Node000006"><a xlink:title=" ">
<path fill="none" stroke="#63b8ff" d="M505.6,-121.62C497.05,-121.62 488.03,-121.62 479.22,-121.62"/>
<polygon fill="#63b8ff" stroke="#63b8ff" points="505.39,-125.13 515.39,-121.63 505.39,-118.13 505.39,-125.13"/>
</a>
</g>
</g>
<!-- Node5 -->
<g id="Node000005" class="node">
<title>Node5</title>
<g id="a_Node000005"><a xlink:href="../../d0/d2d/iop_8blk.html#a6ff8c1041c8e7afd9eb502c2054a0bf3" target="_top" xlink:title=" ">
<polygon fill="white" stroke="#666666" points="315.75,-168.25 263.75,-168.25 263.75,-149 315.75,-149 315.75,-168.25"/>
<text text-anchor="middle" x="289.75" y="-154.75" font-family="Helvetica,sans-Serif" font-size="10.00">iop_filter</text>
</a>
</g>
</g>
<!-- Node4&#45;&gt;Node5 -->
<g id="edge4_Node000004_Node000005" class="edge">
<title>Node4&#45;&gt;Node5</title>
<g id="a_edge4_Node000004_Node000005"><a xlink:title=" ">
<path fill="none" stroke="#63b8ff" d="M363.05,-158.62C346.52,-158.62 329.36,-158.62 315.91,-158.62"/>
<polygon fill="#63b8ff" stroke="#63b8ff" points="362.83,-162.13 372.83,-158.63 362.83,-155.13 362.83,-162.13"/>
</a>
</g>
</g>
<!-- Node7 -->
<g id="Node000007" class="node">
<title>Node7</title>
<g id="a_Node000007"><a xlink:href="../../d0/d2d/iop_8blk.html#a2884c8e2327706902c3e723580d4e29e" target="_top" xlink:title=" ">
<polygon fill="white" stroke="#666666" points="325.12,-131.25 254.38,-131.25 254.38,-112 325.12,-112 325.12,-131.25"/>
<text text-anchor="middle" x="289.75" y="-117.75" font-family="Helvetica,sans-Serif" font-size="10.00">iop_filter_opt</text>
</a>
</g>
</g>
<!-- Node6&#45;&gt;Node7 -->
<g id="edge6_Node000006_Node000007" class="edge">
<title>Node6&#45;&gt;Node7</title>
<g id="a_edge6_Node000006_Node000007"><a xlink:title=" ">
<path fill="none" stroke="#63b8ff" d="M353.65,-121.62C343.95,-121.62 334.32,-121.62 325.62,-121.62"/>
<polygon fill="#63b8ff" stroke="#63b8ff" points="353.49,-125.13 363.49,-121.63 353.49,-118.13 353.49,-125.13"/>
</a>
</g>
</g>
<!-- Node9 -->
<g id="Node000009" class="node">
<title>Node9</title>
<g id="a_Node000009"><a xlink:href="../../d0/d2d/iop_8blk.html#a72d1069b5861ce1f8cd3e445d5a715af" target="_top" xlink:title=" ">
<polygon fill="white" stroke="#666666" points="590.75,-93.25 514.75,-93.25 514.75,-74 590.75,-74 590.75,-93.25"/>
<text text-anchor="middle" x="552.75" y="-79.75" font-family="Helvetica,sans-Serif" font-size="10.00">compare_field</text>
</a>
</g>
</g>
<!-- Node8&#45;&gt;Node9 -->
<g id="edge8_Node000008_Node000009" class="edge">
<title>Node8&#45;&gt;Node9</title>
<g id="a_edge8_Node000008_Node000009"><a xlink:title=" ">
<path fill="none" stroke="#63b8ff" d="M643.42,-59.67C626.22,-64.27 607.17,-69.35 591.07,-73.65"/>
<polygon fill="#63b8ff" stroke="#63b8ff" points="644.18,-63.09 652.94,-57.13 642.38,-56.33 644.18,-63.09"/>
</a>
</g>
</g>
<!-- Node12 -->
<g id="Node000012" class="node">
<title>Node12</title>
<g id="a_Node000012"><a xlink:href="../../d0/d2d/iop_8blk.html#a8b980505a5736bdcb7fe5d746f80a685" target="_top" xlink:title="Single&#45;field comparison between two IOP structs, unions or classes.">
<polygon fill="white" stroke="#666666" points="590.38,-56.25 515.12,-56.25 515.12,-37 590.38,-37 590.38,-56.25"/>
<text text-anchor="middle" x="552.75" y="-42.75" font-family="Helvetica,sans-Serif" font-size="10.00">iop_cmp_field</text>
</a>
</g>
</g>
<!-- Node8&#45;&gt;Node12 -->
<g id="edge11_Node000008_Node000012" class="edge">
<title>Node8&#45;&gt;Node12</title>
<g id="a_edge11_Node000008_Node000012"><a xlink:title=" ">
<path fill="none" stroke="#63b8ff" d="M640.97,-46.62C624.36,-46.62 606.26,-46.62 590.87,-46.62"/>
<polygon fill="#63b8ff" stroke="#63b8ff" points="640.68,-50.13 650.68,-46.63 640.68,-43.13 640.68,-50.13"/>
</a>
</g>
</g>
<!-- Node10 -->
<g id="Node000010" class="node">
<title>Node10</title>
<g id="a_Node000010"><a xlink:href="../../d0/d2d/iop_8blk.html#a4458976366c9e0f77cc34390986c3c0d" target="_top" xlink:title=" ">
<polygon fill="white" stroke="#666666" points="464.5,-93.25 379.5,-93.25 379.5,-74 464.5,-74 464.5,-93.25"/>
<text text-anchor="middle" x="422" y="-79.75" font-family="Helvetica,sans-Serif" font-size="10.00">iop_msort_desc</text>
</a>
</g>
</g>
<!-- Node9&#45;&gt;Node10 -->
<g id="edge9_Node000009_Node000010" class="edge">
<title>Node9&#45;&gt;Node10</title>
<g id="a_edge9_Node000009_Node000010"><a xlink:title=" ">
<path fill="none" stroke="#63b8ff" d="M503.18,-83.62C490.5,-83.62 476.96,-83.62 464.68,-83.62"/>
<polygon fill="#63b8ff" stroke="#63b8ff" points="503,-87.13 513,-83.63 503,-80.13 503,-87.13"/>
</a>
</g>
</g>
<!-- Node11 -->
<g id="Node000011" class="node">
<title>Node11</title>
<g id="a_Node000011"><a xlink:href="../../d0/d2d/iop_8blk.html#a0d03ebbf035d0f126c3f451bfaf7aa4e" target="_top" xlink:title=" ">
<polygon fill="white" stroke="#666666" points="328.12,-93.25 251.38,-93.25 251.38,-74 328.12,-74 328.12,-93.25"/>
<text text-anchor="middle" x="289.75" y="-79.75" font-family="Helvetica,sans-Serif" font-size="10.00">iop_sort_desc</text>
</a>
</g>
</g>
<!-- Node10&#45;&gt;Node11 -->
<g id="edge10_Node000010_Node000011" class="edge">
<title>Node10&#45;&gt;Node11</title>
<g id="a_edge10_Node000010_Node000011"><a xlink:title=" ">
<path fill="none" stroke="#63b8ff" d="M367.66,-83.62C354.42,-83.62 340.5,-83.62 328.2,-83.62"/>
<polygon fill="#63b8ff" stroke="#63b8ff" points="367.56,-87.13 377.56,-83.63 367.56,-80.13 367.56,-87.13"/>
</a>
</g>
</g>
<!-- Node13 -->
<g id="Node000013" class="node">
<title>Node13</title>
<g id="a_Node000013"><a xlink:href="../../d0/d2d/iop_8blk.html#a1cc948908fbd5277cda44853bd7f5d30" target="_top" xlink:title=" ">
<polygon fill="white" stroke="#666666" points="453.62,-56.25 390.38,-56.25 390.38,-37 453.62,-37 453.62,-56.25"/>
<text text-anchor="middle" x="422" y="-42.75" font-family="Helvetica,sans-Serif" font-size="10.00">__iop_cmp</text>
</a>
</g>
</g>
<!-- Node12&#45;&gt;Node13 -->
<g id="edge12_Node000012_Node000013" class="edge">
<title>Node12&#45;&gt;Node13</title>
<g id="a_edge12_Node000012_Node000013"><a xlink:title=" ">
<path fill="none" stroke="#63b8ff" d="M503.62,-46.62C486.94,-46.62 468.71,-46.62 453.81,-46.62"/>
<polygon fill="#63b8ff" stroke="#63b8ff" points="503.34,-50.13 513.34,-46.63 503.34,-43.13 503.34,-50.13"/>
</a>
</g>
</g>
<!-- Node14 -->
<g id="Node000014" class="node">
<title>Node14</title>
<g id="a_Node000014"><a xlink:href="../../d0/d2d/iop_8blk.html#ae31a683a8360f57ba6c1a261df652053" target="_top" xlink:title=" ">
<polygon fill="white" stroke="#666666" points="329.25,-37.25 250.25,-37.25 250.25,-18 329.25,-18 329.25,-37.25"/>
<text text-anchor="middle" x="289.75" y="-23.75" font-family="Helvetica,sans-Serif" font-size="10.00">iop_cmp_desc</text>
</a>
</g>
</g>
<!-- Node13&#45;&gt;Node14 -->
<g id="edge13_Node000013_Node000014" class="edge">
<title>Node13&#45;&gt;Node14</title>
<g id="a_edge13_Node000013_Node000014"><a xlink:title=" ">
<path fill="none" stroke="#63b8ff" d="M378.96,-40.49C363.01,-38.17 344.94,-35.53 329.33,-33.25"/>
<polygon fill="#63b8ff" stroke="#63b8ff" points="378.23,-43.92 388.63,-41.9 379.24,-37 378.23,-43.92"/>
</a>
</g>
</g>
<!-- Node14&#45;&gt;Node8 -->
<g id="edge17_Node000014_Node000008" class="edge">
<title>Node14&#45;&gt;Node8</title>
<g id="a_edge17_Node000014_Node000008"><a xlink:title=" ">
<path fill="none" stroke="#63b8ff" d="M341.04,-24.8C400.74,-22.09 503.24,-19.5 590.75,-27.62 611.28,-29.53 633.85,-33.56 652.48,-37.42"/>
<polygon fill="#63b8ff" stroke="#63b8ff" points="341.02,-21.29 331.2,-25.26 341.36,-28.28 341.02,-21.29"/>
</a>
</g>
</g>
<!-- Node15 -->
<g id="Node000015" class="node">
<title>Node15</title>
<g id="a_Node000015"><a xlink:href="../../d0/d2d/iop_8blk.html#a448225324910d0de252b6e040bdcf37a" target="_top" xlink:title=" ">
<polygon fill="white" stroke="#666666" points="214.25,-37.25 122.5,-37.25 122.5,-18 214.25,-18 214.25,-37.25"/>
<text text-anchor="middle" x="168.38" y="-23.75" font-family="Helvetica,sans-Serif" font-size="10.00">__iop_xsort_desc</text>
</a>
</g>
</g>
<!-- Node14&#45;&gt;Node15 -->
<g id="edge14_Node000014_Node000015" class="edge">
<title>Node14&#45;&gt;Node15</title>
<g id="a_edge14_Node000014_Node000015"><a xlink:title=" ">
<path fill="none" stroke="#63b8ff" d="M238.57,-27.62C230.61,-27.62 222.42,-27.62 214.58,-27.62"/>
<polygon fill="#63b8ff" stroke="#63b8ff" points="238.48,-31.13 248.48,-27.63 238.48,-24.13 238.48,-31.13"/>
</a>
</g>
</g>
<!-- Node16 -->
<g id="Node000016" class="node">
<title>Node16</title>
<g id="a_Node000016"><a xlink:href="../../d0/d2d/iop_8blk.html#ab89279ec3093f0eda25141b326291575" target="_top" xlink:title=" ">
<polygon fill="white" stroke="#666666" points="86.5,-56.25 0,-56.25 0,-37 86.5,-37 86.5,-56.25"/>
<text text-anchor="middle" x="43.25" y="-42.75" font-family="Helvetica,sans-Serif" font-size="10.00">iop_xpsort_desc</text>
</a>
</g>
</g>
<!-- Node15&#45;&gt;Node16 -->
<g id="edge15_Node000015_Node000016" class="edge">
<title>Node15&#45;&gt;Node16</title>
<g id="a_edge15_Node000015_Node000016"><a xlink:title=" ">
<path fill="none" stroke="#63b8ff" d="M110.95,-36.33C102.88,-37.58 94.69,-38.84 86.94,-40.04"/>
<polygon fill="#63b8ff" stroke="#63b8ff" points="111.38,-39.81 120.73,-34.82 110.31,-32.89 111.38,-39.81"/>
</a>
</g>
</g>
<!-- Node17 -->
<g id="Node000017" class="node">
<title>Node17</title>
<g id="a_Node000017"><a xlink:href="../../d0/d2d/iop_8blk.html#a007321f8a5ab2cb79c2c5b97dc72fa98" target="_top" xlink:title=" ">
<polygon fill="white" stroke="#666666" points="83.88,-19.25 2.62,-19.25 2.62,0 83.88,0 83.88,-19.25"/>
<text text-anchor="middle" x="43.25" y="-5.75" font-family="Helvetica,sans-Serif" font-size="10.00">iop_xsort_desc</text>
</a>
</g>
</g>
<!-- Node15&#45;&gt;Node17 -->
<g id="edge16_Node000015_Node000017" class="edge">
<title>Node15&#45;&gt;Node17</title>
<g id="a_edge16_Node000015_Node000017"><a xlink:title=" ">
<path fill="none" stroke="#63b8ff" d="M110.9,-19.37C101.86,-18.05 92.66,-16.7 84.11,-15.45"/>
<polygon fill="#63b8ff" stroke="#63b8ff" points="110.33,-22.82 120.73,-20.81 111.34,-15.9 110.33,-22.82"/>
</a>
</g>
</g>
<!-- Node18&#45;&gt;Node3 -->
<g id="edge19_Node000018_Node000003" class="edge">
<title>Node18&#45;&gt;Node3</title>
<g id="a_edge19_Node000018_Node000003"><a xlink:title=" ">
<path fill="none" stroke="#63b8ff" d="M644.62,-96.69C626.11,-101.77 605.31,-107.48 588.29,-112.15"/>
<polygon fill="#63b8ff" stroke="#63b8ff" points="645.32,-100.13 654.04,-94.11 643.47,-93.38 645.32,-100.13"/>
</a>
</g>
</g>
</g>
</svg>
