<?xml version="1.0" encoding="UTF-8" standalone="no"?>
<!DOCTYPE svg PUBLIC "-//W3C//DTD SVG 1.1//EN"
 "http://www.w3.org/Graphics/SVG/1.1/DTD/svg11.dtd">
<!-- Generated by graphviz version 9.0.0 (20230911.1827)
 -->
<!-- Title: rsa_sign_t Pages: 1 -->
<svg width="125pt" height="183pt"
 viewBox="0.00 0.00 125.00 183.25" xmlns="http://www.w3.org/2000/svg" xmlns:xlink="http://www.w3.org/1999/xlink">

<svg id="main" version="1.1" xmlns="http://www.w3.org/2000/svg" xmlns:xlink="http://www.w3.org/1999/xlink" xml:space="preserve" onload="init(evt)">
<style type="text/css"><![CDATA[
.node, .edge {opacity: 0.7;}
.node.selected, .edge.selected {opacity: 1;}
.edge:hover path { stroke: red; }
.edge:hover polygon { stroke: red; fill: red; }
]]></style>
<script type="application/ecmascript" xlink:href="../../svg.min.js"/>
<svg id="graph" class="graph">
<g id="graph0" class="graph" transform="scale(1 1) rotate(0) translate(4 179.25)">
<title>rsa_sign_t</title>
<!-- Node1 -->
<g id="Node000001" class="node">
<title>Node1</title>
<g id="a_Node000001"><a xlink:title=" ">
<polygon fill="#999999" stroke="none" points="86,-49 31,-49 31,0 86,0 86,-49"/>
<text text-anchor="start" x="36" y="-35.5" font-family="Helvetica,sans-Serif" font-size="10.00">rsa_sign_t</text>
<text text-anchor="start" x="57" y="-20.5" font-family="Helvetica,sans-Serif" font-size="10.00"> </text>
<text text-anchor="start" x="57" y="-5.5" font-family="Helvetica,sans-Serif" font-size="10.00"> </text>
<polygon fill="#666666" stroke="#666666" points="31,-32 31,-32 86,-32 86,-32 31,-32"/>
<polygon fill="#666666" stroke="#666666" points="31,-17 31,-17 86,-17 86,-17 31,-17"/>
<polygon fill="none" stroke="#666666" points="31,0 31,-49 86,-49 86,0 31,0"/>
</a>
</g>
</g>
<!-- Node2 -->
<g id="Node000002" class="node">
<title>Node2</title>
<g id="a_Node000002"><a xlink:href="../../d1/d2e/structrsa__ctx__t.html" target="_top" xlink:title=" ">
<polygon fill="white" stroke="none" points="117,-175.25 0,-175.25 0,-96.25 117,-96.25 117,-175.25"/>
<text text-anchor="start" x="38.62" y="-161.75" font-family="Helvetica,sans-Serif" font-size="10.00">rsa_ctx_t</text>
<text text-anchor="start" x="4" y="-146.75" font-family="Helvetica,sans-Serif" font-size="10.00">+</text>
<text text-anchor="start" x="14" y="-146.75" font-family="Helvetica,sans-Serif" font-size="10.00">BIO * keybio</text>
<text text-anchor="start" x="4" y="-131.75" font-family="Helvetica,sans-Serif" font-size="10.00">+</text>
<text text-anchor="start" x="14" y="-131.75" font-family="Helvetica,sans-Serif" font-size="10.00">EVP_PKEY * key</text>
<text text-anchor="start" x="4" y="-116.75" font-family="Helvetica,sans-Serif" font-size="10.00">+</text>
<text text-anchor="start" x="14" y="-116.75" font-family="Helvetica,sans-Serif" font-size="10.00">EVP_MD_CTX * digest</text>
<text text-anchor="start" x="57" y="-101.75" font-family="Helvetica,sans-Serif" font-size="10.00"> </text>
<polygon fill="#666666" stroke="#666666" points="0,-158.25 0,-158.25 117,-158.25 117,-158.25 0,-158.25"/>
<polygon fill="#666666" stroke="#666666" points="0,-113.25 0,-113.25 12,-113.25 12,-113.25 0,-113.25"/>
<polygon fill="#666666" stroke="#666666" points="12,-113.25 12,-113.25 117,-113.25 117,-113.25 12,-113.25"/>
<polygon fill="none" stroke="#666666" points="0,-96.25 0,-175.25 117,-175.25 117,-96.25 0,-96.25"/>
</a>
</g>
</g>
<!-- Node2&#45;&gt;Node1 -->
<g id="edge1_Node000001_Node000002" class="edge">
<title>Node2&#45;&gt;Node1</title>
<g id="a_edge1_Node000001_Node000002"><a xlink:title=" ">
<path fill="none" stroke="#63b8ff" d="M58.5,-96.54C58.5,-85.25 58.5,-72.94 58.5,-61.78"/>
<polygon fill="none" stroke="#63b8ff" points="58.5,-61.78 54.5,-55.78 58.5,-49.78 62.5,-55.78 58.5,-61.78"/>
</a>
</g>
<text text-anchor="middle" x="69" y="-68.75" font-family="Helvetica,sans-Serif" font-size="10.00" fill="grey"> +ctx</text>
</g>
</g>
</svg>
</svg>

<style type='text/css'>
<![CDATA[
[data-mouse-over-selected='false'] { opacity: 0.7; }
[data-mouse-over-selected='true']  { opacity: 1.0; }
]]>
</style>
<script type="application/ecmascript"><![CDATA[
document.addEventListener('DOMContentLoaded', (event) => {
  highlightEdges();
  highlightAdjacentNodes();
});
]]></script>
</svg>
