<?xml version="1.0" encoding="UTF-8" standalone="no"?>
<!DOCTYPE svg PUBLIC "-//W3C//DTD SVG 1.1//EN"
 "http://www.w3.org/Graphics/SVG/1.1/DTD/svg11.dtd">
<!-- Generated by graphviz version 9.0.0 (20230911.1827)
 -->
<!-- Title: iopc_dump_field_type Pages: 1 -->
<svg width="1235pt" height="103pt"
 viewBox="0.00 0.00 1234.50 103.25" xmlns="http://www.w3.org/2000/svg" xmlns:xlink="http://www.w3.org/1999/xlink">
<g id="graph0" class="graph" transform="scale(1 1) rotate(0) translate(4 99.25)">
<title>iopc_dump_field_type</title>
<!-- Node1 -->
<g id="Node000001" class="node">
<title>Node1</title>
<g id="a_Node000001"><a xlink:title=" ">
<polygon fill="#999999" stroke="#666666" points="1226.5,-57.25 1117.5,-57.25 1117.5,-38 1226.5,-38 1226.5,-57.25"/>
<text text-anchor="middle" x="1172" y="-43.75" font-family="Helvetica,sans-Serif" font-size="10.00">iopc_dump_field_type</text>
</a>
</g>
</g>
<!-- Node2 -->
<g id="Node000002" class="node">
<title>Node2</title>
<g id="a_Node000002"><a xlink:href="../../d1/dd4/iopc-lang-typescript_8c.html#a087b2bebaf13624179a1a793085d8686" target="_top" xlink:title=" ">
<polygon fill="white" stroke="#666666" points="1081.5,-57.25 995.75,-57.25 995.75,-38 1081.5,-38 1081.5,-57.25"/>
<text text-anchor="middle" x="1038.62" y="-43.75" font-family="Helvetica,sans-Serif" font-size="10.00">iopc_dump_field</text>
</a>
</g>
</g>
<!-- Node1&#45;&gt;Node2 -->
<g id="edge1_Node000001_Node000002" class="edge">
<title>Node1&#45;&gt;Node2</title>
<g id="a_edge1_Node000001_Node000002"><a xlink:title=" ">
<path fill="none" stroke="#63b8ff" d="M1105.77,-47.62C1097.66,-47.62 1089.54,-47.62 1081.9,-47.62"/>
<polygon fill="#63b8ff" stroke="#63b8ff" points="1105.67,-51.13 1115.67,-47.63 1105.67,-44.13 1105.67,-51.13"/>
</a>
</g>
</g>
<!-- Node9 -->
<g id="Node000009" class="node">
<title>Node9</title>
<g id="a_Node000009"><a xlink:href="../../d1/dd4/iopc-lang-typescript_8c.html#a70803611e415662790bad8fe21fb74da" target="_top" xlink:title=" ">
<polygon fill="white" stroke="#666666" points="959.75,-95.25 866.5,-95.25 866.5,-76 959.75,-76 959.75,-95.25"/>
<text text-anchor="middle" x="913.12" y="-81.75" font-family="Helvetica,sans-Serif" font-size="10.00">iopc_dump_struct</text>
</a>
</g>
</g>
<!-- Node1&#45;&gt;Node9 -->
<g id="edge15_Node000001_Node000009" class="edge">
<title>Node1&#45;&gt;Node9</title>
<g id="a_edge15_Node000001_Node000009"><a xlink:title=" ">
<path fill="none" stroke="#63b8ff" d="M1116.25,-60.12C1104.81,-62.48 1092.79,-64.79 1081.5,-66.62 1040.65,-73.26 993.83,-78.37 960.11,-81.61"/>
<polygon fill="#63b8ff" stroke="#63b8ff" points="1116.92,-63.55 1125.98,-58.06 1115.47,-56.71 1116.92,-63.55"/>
</a>
</g>
</g>
<!-- Node12 -->
<g id="Node000012" class="node">
<title>Node12</title>
<g id="a_Node000012"><a xlink:href="../../d1/dd4/iopc-lang-typescript_8c.html#a56fa8bfb451c2189b4d9da6d491c3925" target="_top" xlink:title=" ">
<polygon fill="white" stroke="#666666" points="959,-19.25 867.25,-19.25 867.25,0 959,0 959,-19.25"/>
<text text-anchor="middle" x="913.12" y="-5.75" font-family="Helvetica,sans-Serif" font-size="10.00">iopc_dump_union</text>
</a>
</g>
</g>
<!-- Node1&#45;&gt;Node12 -->
<g id="edge16_Node000001_Node000012" class="edge">
<title>Node1&#45;&gt;Node12</title>
<g id="a_edge16_Node000001_Node000012"><a xlink:title=" ">
<path fill="none" stroke="#63b8ff" d="M1116.25,-35.13C1104.81,-32.77 1092.79,-30.46 1081.5,-28.62 1040.37,-21.94 993.16,-16.81 959.4,-13.58"/>
<polygon fill="#63b8ff" stroke="#63b8ff" points="1115.47,-38.54 1125.98,-37.19 1116.92,-31.7 1115.47,-38.54"/>
</a>
</g>
</g>
<!-- Node3 -->
<g id="Node000003" class="node">
<title>Node3</title>
<g id="a_Node000003"><a xlink:href="../../d1/dd4/iopc-lang-typescript_8c.html#ab5858ae19053b4f3b746264197c3a8cf" target="_top" xlink:title=" ">
<polygon fill="white" stroke="#666666" points="663.75,-57.25 581.75,-57.25 581.75,-38 663.75,-38 663.75,-57.25"/>
<text text-anchor="middle" x="622.75" y="-43.75" font-family="Helvetica,sans-Serif" font-size="10.00">iopc_dump_rpc</text>
</a>
</g>
</g>
<!-- Node2&#45;&gt;Node3 -->
<g id="edge2_Node000002_Node000003" class="edge">
<title>Node2&#45;&gt;Node3</title>
<g id="a_edge2_Node000002_Node000003"><a xlink:title=" ">
<path fill="none" stroke="#63b8ff" d="M983.95,-47.62C899.93,-47.62 739.23,-47.62 664.2,-47.62"/>
<polygon fill="#63b8ff" stroke="#63b8ff" points="983.76,-51.13 993.76,-47.63 983.76,-44.13 983.76,-51.13"/>
</a>
</g>
</g>
<!-- Node2&#45;&gt;Node9 -->
<g id="edge8_Node000002_Node000009" class="edge">
<title>Node2&#45;&gt;Node9</title>
<g id="a_edge8_Node000002_Node000009"><a xlink:title=" ">
<path fill="none" stroke="#63b8ff" d="M993.88,-61.09C978.31,-65.87 961.08,-71.18 946.62,-75.63"/>
<polygon fill="#63b8ff" stroke="#63b8ff" points="994.88,-64.44 1003.41,-58.15 992.82,-57.75 994.88,-64.44"/>
</a>
</g>
</g>
<!-- Node2&#45;&gt;Node12 -->
<g id="edge13_Node000002_Node000012" class="edge">
<title>Node2&#45;&gt;Node12</title>
<g id="a_edge13_Node000002_Node000012"><a xlink:title=" ">
<path fill="none" stroke="#63b8ff" d="M993.88,-34.16C978.31,-29.38 961.08,-24.07 946.62,-19.62"/>
<polygon fill="#63b8ff" stroke="#63b8ff" points="992.82,-37.5 1003.41,-37.1 994.88,-30.81 992.82,-37.5"/>
</a>
</g>
</g>
<!-- Node4 -->
<g id="Node000004" class="node">
<title>Node4</title>
<g id="a_Node000004"><a xlink:href="../../d1/dd4/iopc-lang-typescript_8c.html#a4b32fbe3aa343a8de04a02750c10f234" target="_top" xlink:title=" ">
<polygon fill="white" stroke="#666666" points="545.75,-57.25 456.25,-57.25 456.25,-38 545.75,-38 545.75,-57.25"/>
<text text-anchor="middle" x="501" y="-43.75" font-family="Helvetica,sans-Serif" font-size="10.00">iopc_dump_iface</text>
</a>
</g>
</g>
<!-- Node3&#45;&gt;Node4 -->
<g id="edge3_Node000003_Node000004" class="edge">
<title>Node3&#45;&gt;Node4</title>
<g id="a_edge3_Node000003_Node000004"><a xlink:title=" ">
<path fill="none" stroke="#63b8ff" d="M570.31,-47.62C562.22,-47.62 553.91,-47.62 546.01,-47.62"/>
<polygon fill="#63b8ff" stroke="#63b8ff" points="570.03,-51.13 580.03,-47.63 570.03,-44.13 570.03,-51.13"/>
</a>
</g>
</g>
<!-- Node5 -->
<g id="Node000005" class="node">
<title>Node5</title>
<g id="a_Node000005"><a xlink:href="../../d1/dd4/iopc-lang-typescript_8c.html#a4bbe9514b7e11bdbea28ac38a641b01f" target="_top" xlink:title=" ">
<polygon fill="white" stroke="#666666" points="420.25,-57.25 325.5,-57.25 325.5,-38 420.25,-38 420.25,-57.25"/>
<text text-anchor="middle" x="372.88" y="-43.75" font-family="Helvetica,sans-Serif" font-size="10.00">iopc_dump_ifaces</text>
</a>
</g>
</g>
<!-- Node4&#45;&gt;Node5 -->
<g id="edge4_Node000004_Node000005" class="edge">
<title>Node4&#45;&gt;Node5</title>
<g id="a_edge4_Node000004_Node000005"><a xlink:title=" ">
<path fill="none" stroke="#63b8ff" d="M444.47,-47.62C436.55,-47.62 428.48,-47.62 420.75,-47.62"/>
<polygon fill="#63b8ff" stroke="#63b8ff" points="444.37,-51.13 454.37,-47.63 444.37,-44.13 444.37,-51.13"/>
</a>
</g>
</g>
<!-- Node6 -->
<g id="Node000006" class="node">
<title>Node6</title>
<g id="a_Node000006"><a xlink:href="../../d1/dd4/iopc-lang-typescript_8c.html#a07411678a061106110276eed638ca85d" target="_top" xlink:title=" ">
<polygon fill="white" stroke="#666666" points="289.5,-38.25 192.5,-38.25 192.5,-19 289.5,-19 289.5,-38.25"/>
<text text-anchor="middle" x="241" y="-24.75" font-family="Helvetica,sans-Serif" font-size="10.00">iopc_do_typescript</text>
</a>
</g>
</g>
<!-- Node5&#45;&gt;Node6 -->
<g id="edge5_Node000005_Node000006" class="edge">
<title>Node5&#45;&gt;Node6</title>
<g id="a_edge5_Node000005_Node000006"><a xlink:title=" ">
<path fill="none" stroke="#63b8ff" d="M314.1,-39.17C306.03,-37.99 297.81,-36.79 289.95,-35.64"/>
<polygon fill="#63b8ff" stroke="#63b8ff" points="313.46,-42.62 323.86,-40.6 314.47,-35.69 313.46,-42.62"/>
</a>
</g>
</g>
<!-- Node7 -->
<g id="Node000007" class="node">
<title>Node7</title>
<g id="a_Node000007"><a xlink:href="../../df/d1f/iopc_8c.html#a693d2e305d9102c8dd03b6bd0bf61111" target="_top" xlink:title=" ">
<polygon fill="white" stroke="#666666" points="156.5,-38.25 73,-38.25 73,-19 156.5,-19 156.5,-38.25"/>
<text text-anchor="middle" x="114.75" y="-24.75" font-family="Helvetica,sans-Serif" font-size="10.00">build_doit_table</text>
</a>
</g>
</g>
<!-- Node6&#45;&gt;Node7 -->
<g id="edge6_Node000006_Node000007" class="edge">
<title>Node6&#45;&gt;Node7</title>
<g id="a_edge6_Node000006_Node000007"><a xlink:title=" ">
<path fill="none" stroke="#63b8ff" d="M180.84,-28.62C172.65,-28.62 164.39,-28.62 156.63,-28.62"/>
<polygon fill="#63b8ff" stroke="#63b8ff" points="180.8,-32.13 190.8,-28.63 180.8,-25.13 180.8,-32.13"/>
</a>
</g>
</g>
<!-- Node8 -->
<g id="Node000008" class="node">
<title>Node8</title>
<g id="a_Node000008"><a xlink:href="../../df/d1f/iopc_8c.html#a3c04138a5bfe5d72780bb7e82a18e627" target="_top" xlink:title=" ">
<polygon fill="white" stroke="#666666" points="37,-38.25 0,-38.25 0,-19 37,-19 37,-38.25"/>
<text text-anchor="middle" x="18.5" y="-24.75" font-family="Helvetica,sans-Serif" font-size="10.00">main</text>
</a>
</g>
</g>
<!-- Node7&#45;&gt;Node8 -->
<g id="edge7_Node000007_Node000008" class="edge">
<title>Node7&#45;&gt;Node8</title>
<g id="a_edge7_Node000007_Node000008"><a xlink:title=" ">
<path fill="none" stroke="#63b8ff" d="M61.2,-28.62C52.49,-28.62 44.04,-28.62 37.04,-28.62"/>
<polygon fill="#63b8ff" stroke="#63b8ff" points="61.17,-32.13 71.17,-28.63 61.17,-25.13 61.17,-32.13"/>
</a>
</g>
</g>
<!-- Node10 -->
<g id="Node000010" class="node">
<title>Node10</title>
<g id="a_Node000010"><a xlink:href="../../d1/dd4/iopc-lang-typescript_8c.html#a00aebd11a7c635ba6ac1f93e0eed1c52" target="_top" xlink:title=" ">
<polygon fill="white" stroke="#666666" points="830.5,-95.25 699.75,-95.25 699.75,-76 830.5,-76 830.5,-95.25"/>
<text text-anchor="middle" x="765.12" y="-81.75" font-family="Helvetica,sans-Serif" font-size="10.00">iopc_dump_rpc_fun_struct</text>
</a>
</g>
</g>
<!-- Node9&#45;&gt;Node10 -->
<g id="edge9_Node000009_Node000010" class="edge">
<title>Node9&#45;&gt;Node10</title>
<g id="a_edge9_Node000009_Node000010"><a xlink:title=" ">
<path fill="none" stroke="#63b8ff" d="M854.94,-85.62C847,-85.62 838.8,-85.62 830.74,-85.62"/>
<polygon fill="#63b8ff" stroke="#63b8ff" points="854.82,-89.13 864.82,-85.63 854.82,-82.13 854.82,-89.13"/>
</a>
</g>
</g>
<!-- Node11 -->
<g id="Node000011" class="node">
<title>Node11</title>
<g id="a_Node000011"><a xlink:href="../../d1/dd4/iopc-lang-typescript_8c.html#ac631f999b3f06c13db3b4d03b2a64be2" target="_top" xlink:title=" ">
<polygon fill="white" stroke="#666666" points="814.38,-19.25 715.88,-19.25 715.88,0 814.38,0 814.38,-19.25"/>
<text text-anchor="middle" x="765.12" y="-5.75" font-family="Helvetica,sans-Serif" font-size="10.00">iopc_dump_structs</text>
</a>
</g>
</g>
<!-- Node9&#45;&gt;Node11 -->
<g id="edge11_Node000009_Node000011" class="edge">
<title>Node9&#45;&gt;Node11</title>
<g id="a_edge11_Node000009_Node000011"><a xlink:title=" ">
<path fill="none" stroke="#63b8ff" d="M882.74,-70.33C853.64,-55.18 809.94,-32.44 785.13,-19.52"/>
<polygon fill="#63b8ff" stroke="#63b8ff" points="880.91,-73.32 891.39,-74.83 884.14,-67.11 880.91,-73.32"/>
</a>
</g>
</g>
<!-- Node10&#45;&gt;Node3 -->
<g id="edge10_Node000010_Node000003" class="edge">
<title>Node10&#45;&gt;Node3</title>
<g id="a_edge10_Node000010_Node000003"><a xlink:title=" ">
<path fill="none" stroke="#63b8ff" d="M715.94,-72.58C697.85,-67.69 677.6,-62.2 660.69,-57.62"/>
<polygon fill="#63b8ff" stroke="#63b8ff" points="714.85,-75.91 725.41,-75.15 716.68,-69.15 714.85,-75.91"/>
</a>
</g>
</g>
<!-- Node11&#45;&gt;Node6 -->
<g id="edge12_Node000011_Node000006" class="edge">
<title>Node11&#45;&gt;Node6</title>
<g id="a_edge12_Node000011_Node000006"><a xlink:title=" ">
<path fill="none" stroke="#63b8ff" d="M704.18,-11.81C599.52,-15.61 385.53,-23.4 289.96,-26.88"/>
<polygon fill="#63b8ff" stroke="#63b8ff" points="704.09,-15.31 713.96,-11.45 703.84,-8.32 704.09,-15.31"/>
</a>
</g>
</g>
<!-- Node12&#45;&gt;Node11 -->
<g id="edge14_Node000012_Node000011" class="edge">
<title>Node12&#45;&gt;Node11</title>
<g id="a_edge14_Node000012_Node000011"><a xlink:title=" ">
<path fill="none" stroke="#63b8ff" d="M855.96,-9.62C842.38,-9.62 827.98,-9.62 814.78,-9.62"/>
<polygon fill="#63b8ff" stroke="#63b8ff" points="855.62,-13.13 865.62,-9.63 855.62,-6.13 855.62,-13.13"/>
</a>
</g>
</g>
</g>
</svg>
