<?xml version="1.0" encoding="UTF-8" standalone="no"?>
<!DOCTYPE svg PUBLIC "-//W3C//DTD SVG 1.1//EN"
 "http://www.w3.org/Graphics/SVG/1.1/DTD/svg11.dtd">
<!-- Generated by graphviz version 9.0.0 (20230911.1827)
 -->
<!-- Title: iopc_dump_rpc_fun_struct Pages: 1 -->
<svg width="839pt" height="27pt"
 viewBox="0.00 0.00 838.50 27.25" xmlns="http://www.w3.org/2000/svg" xmlns:xlink="http://www.w3.org/1999/xlink">
<g id="graph0" class="graph" transform="scale(1 1) rotate(0) translate(4 23.25)">
<title>iopc_dump_rpc_fun_struct</title>
<!-- Node1 -->
<g id="Node000001" class="node">
<title>Node1</title>
<g id="a_Node000001"><a xlink:title=" ">
<polygon fill="#999999" stroke="#666666" points="830.5,-19.25 699.75,-19.25 699.75,0 830.5,0 830.5,-19.25"/>
<text text-anchor="middle" x="765.12" y="-5.75" font-family="Helvetica,sans-Serif" font-size="10.00">iopc_dump_rpc_fun_struct</text>
</a>
</g>
</g>
<!-- Node2 -->
<g id="Node000002" class="node">
<title>Node2</title>
<g id="a_Node000002"><a xlink:href="../../d1/dd4/iopc-lang-typescript_8c.html#ab5858ae19053b4f3b746264197c3a8cf" target="_top" xlink:title=" ">
<polygon fill="white" stroke="#666666" points="663.75,-19.25 581.75,-19.25 581.75,0 663.75,0 663.75,-19.25"/>
<text text-anchor="middle" x="622.75" y="-5.75" font-family="Helvetica,sans-Serif" font-size="10.00">iopc_dump_rpc</text>
</a>
</g>
</g>
<!-- Node1&#45;&gt;Node2 -->
<g id="edge1_Node000001_Node000002" class="edge">
<title>Node1&#45;&gt;Node2</title>
<g id="a_edge1_Node000001_Node000002"><a xlink:title=" ">
<path fill="none" stroke="#63b8ff" d="M687.95,-9.62C679.65,-9.62 671.48,-9.62 663.88,-9.62"/>
<polygon fill="#63b8ff" stroke="#63b8ff" points="687.77,-13.13 697.77,-9.63 687.77,-6.13 687.77,-13.13"/>
</a>
</g>
</g>
<!-- Node3 -->
<g id="Node000003" class="node">
<title>Node3</title>
<g id="a_Node000003"><a xlink:href="../../d1/dd4/iopc-lang-typescript_8c.html#a4b32fbe3aa343a8de04a02750c10f234" target="_top" xlink:title=" ">
<polygon fill="white" stroke="#666666" points="545.75,-19.25 456.25,-19.25 456.25,0 545.75,0 545.75,-19.25"/>
<text text-anchor="middle" x="501" y="-5.75" font-family="Helvetica,sans-Serif" font-size="10.00">iopc_dump_iface</text>
</a>
</g>
</g>
<!-- Node2&#45;&gt;Node3 -->
<g id="edge2_Node000002_Node000003" class="edge">
<title>Node2&#45;&gt;Node3</title>
<g id="a_edge2_Node000002_Node000003"><a xlink:title=" ">
<path fill="none" stroke="#63b8ff" d="M570.31,-9.62C562.22,-9.62 553.91,-9.62 546.01,-9.62"/>
<polygon fill="#63b8ff" stroke="#63b8ff" points="570.03,-13.13 580.03,-9.63 570.03,-6.13 570.03,-13.13"/>
</a>
</g>
</g>
<!-- Node4 -->
<g id="Node000004" class="node">
<title>Node4</title>
<g id="a_Node000004"><a xlink:href="../../d1/dd4/iopc-lang-typescript_8c.html#a4bbe9514b7e11bdbea28ac38a641b01f" target="_top" xlink:title=" ">
<polygon fill="white" stroke="#666666" points="420.25,-19.25 325.5,-19.25 325.5,0 420.25,0 420.25,-19.25"/>
<text text-anchor="middle" x="372.88" y="-5.75" font-family="Helvetica,sans-Serif" font-size="10.00">iopc_dump_ifaces</text>
</a>
</g>
</g>
<!-- Node3&#45;&gt;Node4 -->
<g id="edge3_Node000003_Node000004" class="edge">
<title>Node3&#45;&gt;Node4</title>
<g id="a_edge3_Node000003_Node000004"><a xlink:title=" ">
<path fill="none" stroke="#63b8ff" d="M444.47,-9.62C436.55,-9.62 428.48,-9.62 420.75,-9.62"/>
<polygon fill="#63b8ff" stroke="#63b8ff" points="444.37,-13.13 454.37,-9.63 444.37,-6.13 444.37,-13.13"/>
</a>
</g>
</g>
<!-- Node5 -->
<g id="Node000005" class="node">
<title>Node5</title>
<g id="a_Node000005"><a xlink:href="../../d1/dd4/iopc-lang-typescript_8c.html#a07411678a061106110276eed638ca85d" target="_top" xlink:title=" ">
<polygon fill="white" stroke="#666666" points="289.5,-19.25 192.5,-19.25 192.5,0 289.5,0 289.5,-19.25"/>
<text text-anchor="middle" x="241" y="-5.75" font-family="Helvetica,sans-Serif" font-size="10.00">iopc_do_typescript</text>
</a>
</g>
</g>
<!-- Node4&#45;&gt;Node5 -->
<g id="edge4_Node000004_Node000005" class="edge">
<title>Node4&#45;&gt;Node5</title>
<g id="a_edge4_Node000004_Node000005"><a xlink:title=" ">
<path fill="none" stroke="#63b8ff" d="M314.1,-9.62C306.03,-9.62 297.81,-9.62 289.95,-9.62"/>
<polygon fill="#63b8ff" stroke="#63b8ff" points="313.84,-13.13 323.84,-9.63 313.84,-6.13 313.84,-13.13"/>
</a>
</g>
</g>
<!-- Node6 -->
<g id="Node000006" class="node">
<title>Node6</title>
<g id="a_Node000006"><a xlink:href="../../df/d1f/iopc_8c.html#a693d2e305d9102c8dd03b6bd0bf61111" target="_top" xlink:title=" ">
<polygon fill="white" stroke="#666666" points="156.5,-19.25 73,-19.25 73,0 156.5,0 156.5,-19.25"/>
<text text-anchor="middle" x="114.75" y="-5.75" font-family="Helvetica,sans-Serif" font-size="10.00">build_doit_table</text>
</a>
</g>
</g>
<!-- Node5&#45;&gt;Node6 -->
<g id="edge5_Node000005_Node000006" class="edge">
<title>Node5&#45;&gt;Node6</title>
<g id="a_edge5_Node000005_Node000006"><a xlink:title=" ">
<path fill="none" stroke="#63b8ff" d="M180.84,-9.62C172.65,-9.62 164.39,-9.62 156.63,-9.62"/>
<polygon fill="#63b8ff" stroke="#63b8ff" points="180.8,-13.13 190.8,-9.63 180.8,-6.13 180.8,-13.13"/>
</a>
</g>
</g>
<!-- Node7 -->
<g id="Node000007" class="node">
<title>Node7</title>
<g id="a_Node000007"><a xlink:href="../../df/d1f/iopc_8c.html#a3c04138a5bfe5d72780bb7e82a18e627" target="_top" xlink:title=" ">
<polygon fill="white" stroke="#666666" points="37,-19.25 0,-19.25 0,0 37,0 37,-19.25"/>
<text text-anchor="middle" x="18.5" y="-5.75" font-family="Helvetica,sans-Serif" font-size="10.00">main</text>
</a>
</g>
</g>
<!-- Node6&#45;&gt;Node7 -->
<g id="edge6_Node000006_Node000007" class="edge">
<title>Node6&#45;&gt;Node7</title>
<g id="a_edge6_Node000006_Node000007"><a xlink:title=" ">
<path fill="none" stroke="#63b8ff" d="M61.2,-9.62C52.49,-9.62 44.04,-9.62 37.04,-9.62"/>
<polygon fill="#63b8ff" stroke="#63b8ff" points="61.17,-13.13 71.17,-9.63 61.17,-6.13 61.17,-13.13"/>
</a>
</g>
</g>
</g>
</svg>
