<?xml version="1.0" encoding="UTF-8" standalone="no"?>
<!DOCTYPE svg PUBLIC "-//W3C//DTD SVG 1.1//EN"
 "http://www.w3.org/Graphics/SVG/1.1/DTD/svg11.dtd">
<!-- Generated by graphviz version 9.0.0 (20230911.1827)
 -->
<!-- Title: iopc_dump_enum Pages: 1 -->
<svg width="560pt" height="27pt"
 viewBox="0.00 0.00 559.75 27.25" xmlns="http://www.w3.org/2000/svg" xmlns:xlink="http://www.w3.org/1999/xlink">
<g id="graph0" class="graph" transform="scale(1 1) rotate(0) translate(4 23.25)">
<title>iopc_dump_enum</title>
<!-- Node1 -->
<g id="Node000001" class="node">
<title>Node1</title>
<g id="a_Node000001"><a xlink:title=" ">
<polygon fill="#999999" stroke="#666666" points="551.75,-19.25 459.25,-19.25 459.25,0 551.75,0 551.75,-19.25"/>
<text text-anchor="middle" x="505.5" y="-5.75" font-family="Helvetica,sans-Serif" font-size="10.00">iopc_dump_enum</text>
</a>
</g>
</g>
<!-- Node2 -->
<g id="Node000002" class="node">
<title>Node2</title>
<g id="a_Node000002"><a xlink:href="../../d1/dd4/iopc-lang-typescript_8c.html#a9d26400cae565eef502b5695056ff227" target="_top" xlink:title=" ">
<polygon fill="white" stroke="#666666" points="423.25,-19.25 325.5,-19.25 325.5,0 423.25,0 423.25,-19.25"/>
<text text-anchor="middle" x="374.38" y="-5.75" font-family="Helvetica,sans-Serif" font-size="10.00">iopc_dump_enums</text>
</a>
</g>
</g>
<!-- Node1&#45;&gt;Node2 -->
<g id="edge1_Node000001_Node000002" class="edge">
<title>Node1&#45;&gt;Node2</title>
<g id="a_edge1_Node000001_Node000002"><a xlink:title=" ">
<path fill="none" stroke="#63b8ff" d="M447.73,-9.62C439.67,-9.62 431.44,-9.62 423.55,-9.62"/>
<polygon fill="#63b8ff" stroke="#63b8ff" points="447.46,-13.13 457.46,-9.63 447.46,-6.13 447.46,-13.13"/>
</a>
</g>
</g>
<!-- Node3 -->
<g id="Node000003" class="node">
<title>Node3</title>
<g id="a_Node000003"><a xlink:href="../../d1/dd4/iopc-lang-typescript_8c.html#a07411678a061106110276eed638ca85d" target="_top" xlink:title=" ">
<polygon fill="white" stroke="#666666" points="289.5,-19.25 192.5,-19.25 192.5,0 289.5,0 289.5,-19.25"/>
<text text-anchor="middle" x="241" y="-5.75" font-family="Helvetica,sans-Serif" font-size="10.00">iopc_do_typescript</text>
</a>
</g>
</g>
<!-- Node2&#45;&gt;Node3 -->
<g id="edge2_Node000002_Node000003" class="edge">
<title>Node2&#45;&gt;Node3</title>
<g id="a_edge2_Node000002_Node000003"><a xlink:title=" ">
<path fill="none" stroke="#63b8ff" d="M313.89,-9.62C305.8,-9.62 297.58,-9.62 289.73,-9.62"/>
<polygon fill="#63b8ff" stroke="#63b8ff" points="313.69,-13.13 323.69,-9.63 313.69,-6.13 313.69,-13.13"/>
</a>
</g>
</g>
<!-- Node4 -->
<g id="Node000004" class="node">
<title>Node4</title>
<g id="a_Node000004"><a xlink:href="../../df/d1f/iopc_8c.html#a693d2e305d9102c8dd03b6bd0bf61111" target="_top" xlink:title=" ">
<polygon fill="white" stroke="#666666" points="156.5,-19.25 73,-19.25 73,0 156.5,0 156.5,-19.25"/>
<text text-anchor="middle" x="114.75" y="-5.75" font-family="Helvetica,sans-Serif" font-size="10.00">build_doit_table</text>
</a>
</g>
</g>
<!-- Node3&#45;&gt;Node4 -->
<g id="edge3_Node000003_Node000004" class="edge">
<title>Node3&#45;&gt;Node4</title>
<g id="a_edge3_Node000003_Node000004"><a xlink:title=" ">
<path fill="none" stroke="#63b8ff" d="M180.84,-9.62C172.65,-9.62 164.39,-9.62 156.63,-9.62"/>
<polygon fill="#63b8ff" stroke="#63b8ff" points="180.8,-13.13 190.8,-9.63 180.8,-6.13 180.8,-13.13"/>
</a>
</g>
</g>
<!-- Node5 -->
<g id="Node000005" class="node">
<title>Node5</title>
<g id="a_Node000005"><a xlink:href="../../df/d1f/iopc_8c.html#a3c04138a5bfe5d72780bb7e82a18e627" target="_top" xlink:title=" ">
<polygon fill="white" stroke="#666666" points="37,-19.25 0,-19.25 0,0 37,0 37,-19.25"/>
<text text-anchor="middle" x="18.5" y="-5.75" font-family="Helvetica,sans-Serif" font-size="10.00">main</text>
</a>
</g>
</g>
<!-- Node4&#45;&gt;Node5 -->
<g id="edge4_Node000004_Node000005" class="edge">
<title>Node4&#45;&gt;Node5</title>
<g id="a_edge4_Node000004_Node000005"><a xlink:title=" ">
<path fill="none" stroke="#63b8ff" d="M61.2,-9.62C52.49,-9.62 44.04,-9.62 37.04,-9.62"/>
<polygon fill="#63b8ff" stroke="#63b8ff" points="61.17,-13.13 71.17,-9.63 61.17,-6.13 61.17,-13.13"/>
</a>
</g>
</g>
</g>
</svg>
