<?xml version="1.0" encoding="UTF-8" standalone="no"?>
<!DOCTYPE svg PUBLIC "-//W3C//DTD SVG 1.1//EN"
 "http://www.w3.org/Graphics/SVG/1.1/DTD/svg11.dtd">
<!-- Generated by graphviz version 9.0.0 (20230911.1827)
 -->
<!-- Title: ic_el_client_async_connect_t Pages: 1 -->
<svg width="676pt" height="1039pt"
 viewBox="0.00 0.00 676.25 1039.00" xmlns="http://www.w3.org/2000/svg" xmlns:xlink="http://www.w3.org/1999/xlink">
<g id="graph0" class="graph" transform="scale(1 1) rotate(0) translate(4 1035)">
<title>ic_el_client_async_connect_t</title>
<!-- Node1 -->
<g id="Node000001" class="node">
<title>Node1</title>
<g id="a_Node000001"><a xlink:title="Context to be used on client asynchronous connection.">
<polygon fill="#999999" stroke="none" points="312.5,-75 206.5,-75 206.5,0 312.5,0 312.5,-75"/>
<text text-anchor="start" x="219.75" y="-61.5" font-family="Helvetica,sans-Serif" font-size="10.00">ic_el_client_async</text>
<text text-anchor="start" x="235.5" y="-50.25" font-family="Helvetica,sans-Serif" font-size="10.00">_connect_t</text>
<text text-anchor="start" x="210.5" y="-35.5" font-family="Helvetica,sans-Serif" font-size="10.00">+</text>
<text text-anchor="start" x="220.5" y="-35.5" font-family="Helvetica,sans-Serif" font-size="10.00">void *nullable cb_arg</text>
<text text-anchor="start" x="210.5" y="-20.5" font-family="Helvetica,sans-Serif" font-size="10.00">+</text>
<text text-anchor="start" x="220.5" y="-20.5" font-family="Helvetica,sans-Serif" font-size="10.00">bool is_locked_cb</text>
<text text-anchor="start" x="258" y="-5.5" font-family="Helvetica,sans-Serif" font-size="10.00"> </text>
<polygon fill="#666666" stroke="#666666" points="206.5,-47 206.5,-47 312.5,-47 312.5,-47 206.5,-47"/>
<polygon fill="#666666" stroke="#666666" points="206.5,-17 206.5,-17 218.5,-17 218.5,-17 206.5,-17"/>
<polygon fill="#666666" stroke="#666666" points="218.5,-17 218.5,-17 312.5,-17 312.5,-17 218.5,-17"/>
<polygon fill="none" stroke="#666666" points="206.5,0 206.5,-75 312.5,-75 312.5,0 206.5,0"/>
</a>
</g>
</g>
<!-- Node2 -->
<g id="Node000002" class="node">
<title>Node2</title>
<g id="a_Node000002"><a xlink:href="../../d4/d55/structic__el__client__t.html" target="_top" xlink:title=" ">
<polygon fill="white" stroke="none" points="168.5,-549.25 54.5,-549.25 54.5,-425.25 168.5,-425.25 168.5,-549.25"/>
<text text-anchor="start" x="83" y="-535.75" font-family="Helvetica,sans-Serif" font-size="10.00">ic_el_client_t</text>
<text text-anchor="start" x="58.5" y="-520.75" font-family="Helvetica,sans-Serif" font-size="10.00">+</text>
<text text-anchor="start" x="68.5" y="-520.75" font-family="Helvetica,sans-Serif" font-size="10.00">ichannel_t ic</text>
<text text-anchor="start" x="58.5" y="-505.75" font-family="Helvetica,sans-Serif" font-size="10.00">+</text>
<text text-anchor="start" x="68.5" y="-505.75" font-family="Helvetica,sans-Serif" font-size="10.00">void * ext_obj</text>
<text text-anchor="start" x="58.5" y="-490.75" font-family="Helvetica,sans-Serif" font-size="10.00">+</text>
<text text-anchor="start" x="68.5" y="-490.75" font-family="Helvetica,sans-Serif" font-size="10.00">int wait_connect_sync</text>
<text text-anchor="start" x="58.5" y="-475.75" font-family="Helvetica,sans-Serif" font-size="10.00">+</text>
<text text-anchor="start" x="68.5" y="-475.75" font-family="Helvetica,sans-Serif" font-size="10.00">bool in_connect</text>
<text text-anchor="start" x="58.5" y="-460.75" font-family="Helvetica,sans-Serif" font-size="10.00">+</text>
<text text-anchor="start" x="68.5" y="-460.75" font-family="Helvetica,sans-Serif" font-size="10.00">bool force_disconnect</text>
<text text-anchor="start" x="58.5" y="-445.75" font-family="Helvetica,sans-Serif" font-size="10.00">+</text>
<text text-anchor="start" x="68.5" y="-445.75" font-family="Helvetica,sans-Serif" font-size="10.00">bool connected</text>
<text text-anchor="start" x="110" y="-430.75" font-family="Helvetica,sans-Serif" font-size="10.00"> </text>
<polygon fill="#666666" stroke="#666666" points="54.5,-532.25 54.5,-532.25 168.5,-532.25 168.5,-532.25 54.5,-532.25"/>
<polygon fill="#666666" stroke="#666666" points="54.5,-442.25 54.5,-442.25 66.5,-442.25 66.5,-442.25 54.5,-442.25"/>
<polygon fill="#666666" stroke="#666666" points="66.5,-442.25 66.5,-442.25 168.5,-442.25 168.5,-442.25 66.5,-442.25"/>
<polygon fill="none" stroke="#666666" points="54.5,-425.25 54.5,-549.25 168.5,-549.25 168.5,-425.25 54.5,-425.25"/>
</a>
</g>
</g>
<!-- Node2&#45;&gt;Node1 -->
<g id="edge1_Node000001_Node000002" class="edge">
<title>Node2&#45;&gt;Node1</title>
<g id="a_edge1_Node000001_Node000002"><a xlink:title=" ">
<path fill="none" stroke="#63b8ff" d="M107.53,-425.36C105.16,-343.23 111.69,-195.45 178,-93 182.96,-85.34 189.42,-78.49 196.53,-72.46"/>
<polygon fill="none" stroke="#63b8ff" points="196.33,-72.61 198.64,-65.78 205.84,-65.29 203.53,-72.12 196.33,-72.61"/>
</a>
</g>
<text text-anchor="middle" x="194.25" y="-94.75" font-family="Helvetica,sans-Serif" font-size="10.00" fill="grey"> +client</text>
</g>
<!-- Node3 -->
<g id="Node000003" class="node">
<title>Node3</title>
<g id="a_Node000003"><a xlink:href="../../d3/d30/structic__el__client__cb__cfg__t.html" target="_top" xlink:title="Configuration of the callbacks of an IC EL client.">
<polygon fill="white" stroke="none" points="101,-1001 0,-1001 0,-952 101,-952 101,-1001"/>
<text text-anchor="start" x="4.75" y="-987.5" font-family="Helvetica,sans-Serif" font-size="10.00">ic_el_client_cb_cfg_t</text>
<text text-anchor="start" x="9.5" y="-972.5" font-family="Helvetica,sans-Serif" font-size="10.00">+</text>
<text text-anchor="start" x="25" y="-972.5" font-family="Helvetica,sans-Serif" font-size="10.00">void(* nullable</text>
<text text-anchor="start" x="49" y="-957.5" font-family="Helvetica,sans-Serif" font-size="10.00"> </text>
<polygon fill="#666666" stroke="#666666" points="0,-984 0,-984 101,-984 101,-984 0,-984"/>
<polygon fill="#666666" stroke="#666666" points="0,-969 0,-969 23,-969 23,-969 0,-969"/>
<polygon fill="#666666" stroke="#666666" points="23,-969 23,-969 101,-969 101,-969 23,-969"/>
<polygon fill="none" stroke="#666666" points="0,-952 0,-1001 101,-1001 101,-952 0,-952"/>
</a>
</g>
</g>
<!-- Node3&#45;&gt;Node2 -->
<g id="edge2_Node000002_Node000003" class="edge">
<title>Node3&#45;&gt;Node2</title>
<g id="a_edge2_Node000002_Node000003"><a xlink:title=" ">
<path fill="none" stroke="#63b8ff" d="M49.89,-952.04C49.57,-930.68 49.63,-898.29 52,-870.25 61.13,-762.3 82.4,-638.61 96.87,-561.95"/>
<polygon fill="none" stroke="#63b8ff" points="96.9,-561.8 94.09,-555.16 99.14,-550.02 101.95,-556.66 96.9,-561.8"/>
</a>
</g>
<text text-anchor="middle" x="71.25" y="-883.25" font-family="Helvetica,sans-Serif" font-size="10.00" fill="grey"> +cb_cfg</text>
</g>
<!-- Node4 -->
<g id="Node000004" class="node">
<title>Node4</title>
<g id="a_Node000004"><a xlink:href="../../db/ddb/structdlist__t.html" target="_top" xlink:title=" ">
<polygon fill="white" stroke="none" points="239.5,-1001 203.5,-1001 203.5,-952 239.5,-952 239.5,-1001"/>
<text text-anchor="start" x="208.38" y="-987.5" font-family="Helvetica,sans-Serif" font-size="10.00">dlist_t</text>
<text text-anchor="start" x="220" y="-972.5" font-family="Helvetica,sans-Serif" font-size="10.00"> </text>
<text text-anchor="start" x="220" y="-957.5" font-family="Helvetica,sans-Serif" font-size="10.00"> </text>
<polygon fill="#666666" stroke="#666666" points="203.5,-984 203.5,-984 239.5,-984 239.5,-984 203.5,-984"/>
<polygon fill="#666666" stroke="#666666" points="203.5,-969 203.5,-969 239.5,-969 239.5,-969 203.5,-969"/>
<polygon fill="none" stroke="#666666" points="203.5,-952 203.5,-1001 239.5,-1001 239.5,-952 203.5,-952"/>
</a>
</g>
</g>
<!-- Node4&#45;&gt;Node1 -->
<g id="edge12_Node000001_Node000004" class="edge">
<title>Node4&#45;&gt;Node1</title>
<g id="a_edge12_Node000001_Node000004"><a xlink:title=" ">
<path fill="none" stroke="#63b8ff" d="M219.25,-952.2C210.08,-851.92 178.57,-447.47 232.25,-122.25 234.19,-110.51 237.47,-98.16 241.09,-86.67"/>
<polygon fill="none" stroke="#63b8ff" points="241.04,-86.83 239.14,-79.88 244.83,-75.45 246.73,-82.41 241.04,-86.83"/>
</a>
</g>
<text text-anchor="middle" x="244.12" y="-483.38" font-family="Helvetica,sans-Serif" font-size="10.00" fill="grey"> +link</text>
</g>
<!-- Node4&#45;&gt;Node2 -->
<g id="edge3_Node000002_Node000004" class="edge">
<title>Node4&#45;&gt;Node2</title>
<g id="a_edge3_Node000002_Node000004"><a xlink:title=" ">
<path fill="none" stroke="#63b8ff" d="M203.56,-969.79C178.01,-960.59 132.11,-939.77 112.75,-904 54.52,-796.42 72.84,-649.06 91.88,-561.75"/>
<polygon fill="none" stroke="#63b8ff" points="91.9,-561.63 89.32,-554.9 94.55,-549.93 97.13,-556.66 91.9,-561.63"/>
</a>
</g>
<text text-anchor="middle" x="161.88" y="-894.5" font-family="Helvetica,sans-Serif" font-size="10.00" fill="grey"> +async_connect_ctxs</text>
<text text-anchor="middle" x="161.88" y="-883.25" font-family="Helvetica,sans-Serif" font-size="10.00" fill="grey">+destroyed</text>
<text text-anchor="middle" x="161.88" y="-872" font-family="Helvetica,sans-Serif" font-size="10.00" fill="grey">+disconnecting</text>
</g>
<!-- Node4&#45;&gt;Node4 -->
<g id="edge4_Node000004_Node000004" class="edge">
<title>Node4&#45;&gt;Node4</title>
<g id="a_edge4_Node000004_Node000004"><a xlink:title=" ">
<path fill="none" stroke="#63b8ff" d="M239.28,-992.57C248.81,-995.3 257.5,-989.94 257.5,-976.5 257.5,-969.78 255.33,-965.08 251.97,-962.4"/>
<polygon fill="none" stroke="#63b8ff" points="252.03,-962.41 245.49,-965.44 240.17,-960.57 246.72,-957.54 252.03,-962.41"/>
</a>
</g>
<text text-anchor="middle" x="270.62" y="-978.25" font-family="Helvetica,sans-Serif" font-size="10.00" fill="grey"> +next</text>
<text text-anchor="middle" x="270.62" y="-967" font-family="Helvetica,sans-Serif" font-size="10.00" fill="grey">+prev</text>
</g>
<!-- Node7 -->
<g id="Node000007" class="node">
<title>Node7</title>
<g id="a_Node000007"><a xlink:href="../../d2/d74/structev__t.html" target="_top" xlink:title=" ">
<polygon fill="white" stroke="none" points="406,-852.25 265,-852.25 265,-122.25 406,-122.25 406,-852.25"/>
<text text-anchor="start" x="326.12" y="-838.75" font-family="Helvetica,sans-Serif" font-size="10.00">ev_t</text>
<text text-anchor="start" x="269" y="-823.75" font-family="Helvetica,sans-Serif" font-size="10.00">+</text>
<text text-anchor="start" x="279" y="-823.75" font-family="Helvetica,sans-Serif" font-size="10.00">uint8_t type</text>
<text text-anchor="start" x="269" y="-808.75" font-family="Helvetica,sans-Serif" font-size="10.00">+</text>
<text text-anchor="start" x="279" y="-808.75" font-family="Helvetica,sans-Serif" font-size="10.00">uint8_t generation</text>
<text text-anchor="start" x="269" y="-793.75" font-family="Helvetica,sans-Serif" font-size="10.00">+</text>
<text text-anchor="start" x="279" y="-793.75" font-family="Helvetica,sans-Serif" font-size="10.00">uint16_t flags</text>
<text text-anchor="start" x="269" y="-778.75" font-family="Helvetica,sans-Serif" font-size="10.00">+</text>
<text text-anchor="start" x="279" y="-778.75" font-family="Helvetica,sans-Serif" font-size="10.00">uint16_t priority</text>
<text text-anchor="start" x="269" y="-763.75" font-family="Helvetica,sans-Serif" font-size="10.00">+</text>
<text text-anchor="start" x="279" y="-763.75" font-family="Helvetica,sans-Serif" font-size="10.00">uint16_t events_avail</text>
<text text-anchor="start" x="269" y="-748.75" font-family="Helvetica,sans-Serif" font-size="10.00">+</text>
<text text-anchor="start" x="279" y="-748.75" font-family="Helvetica,sans-Serif" font-size="10.00">uint16_t events_act</text>
<text text-anchor="start" x="269" y="-733.75" font-family="Helvetica,sans-Serif" font-size="10.00">+</text>
<text text-anchor="start" x="279" y="-733.75" font-family="Helvetica,sans-Serif" font-size="10.00">union ev_t::@69 @70</text>
<text text-anchor="start" x="269" y="-718.75" font-family="Helvetica,sans-Serif" font-size="10.00">+</text>
<text text-anchor="start" x="279" y="-718.75" font-family="Helvetica,sans-Serif" font-size="10.00">uint16_t events_wanted</text>
<text text-anchor="start" x="269" y="-703.75" font-family="Helvetica,sans-Serif" font-size="10.00">+</text>
<text text-anchor="start" x="279" y="-703.75" font-family="Helvetica,sans-Serif" font-size="10.00">el_cb_f * cb</text>
<text text-anchor="start" x="269" y="-688.75" font-family="Helvetica,sans-Serif" font-size="10.00">+</text>
<text text-anchor="start" x="279" y="-688.75" font-family="Helvetica,sans-Serif" font-size="10.00">el_signal_f * signal</text>
<text text-anchor="start" x="269" y="-673.75" font-family="Helvetica,sans-Serif" font-size="10.00">+</text>
<text text-anchor="start" x="279" y="-673.75" font-family="Helvetica,sans-Serif" font-size="10.00">el_child_f * child</text>
<text text-anchor="start" x="269" y="-658.75" font-family="Helvetica,sans-Serif" font-size="10.00">+</text>
<text text-anchor="start" x="279" y="-658.75" font-family="Helvetica,sans-Serif" font-size="10.00">el_fd_f * fd</text>
<text text-anchor="start" x="269" y="-643.75" font-family="Helvetica,sans-Serif" font-size="10.00">+</text>
<text text-anchor="start" x="279" y="-643.75" font-family="Helvetica,sans-Serif" font-size="10.00">el_proxy_f * prox</text>
<text text-anchor="start" x="269" y="-628.75" font-family="Helvetica,sans-Serif" font-size="10.00">+</text>
<text text-anchor="start" x="279" y="-628.75" font-family="Helvetica,sans-Serif" font-size="10.00">el_fs_watch_f * fs</text>
<text text-anchor="start" x="279" y="-617.5" font-family="Helvetica,sans-Serif" font-size="10.00">_watch</text>
<text text-anchor="start" x="269" y="-602.75" font-family="Helvetica,sans-Serif" font-size="10.00">+</text>
<text text-anchor="start" x="279" y="-602.75" font-family="Helvetica,sans-Serif" font-size="10.00">el_cb_b cb_blk</text>
<text text-anchor="start" x="269" y="-587.75" font-family="Helvetica,sans-Serif" font-size="10.00">+</text>
<text text-anchor="start" x="279" y="-587.75" font-family="Helvetica,sans-Serif" font-size="10.00">el_signal_b signal_blk</text>
<text text-anchor="start" x="269" y="-572.75" font-family="Helvetica,sans-Serif" font-size="10.00">+</text>
<text text-anchor="start" x="279" y="-572.75" font-family="Helvetica,sans-Serif" font-size="10.00">el_child_b child_blk</text>
<text text-anchor="start" x="269" y="-557.75" font-family="Helvetica,sans-Serif" font-size="10.00">+</text>
<text text-anchor="start" x="279" y="-557.75" font-family="Helvetica,sans-Serif" font-size="10.00">el_fd_b fd_blk</text>
<text text-anchor="start" x="269" y="-542.75" font-family="Helvetica,sans-Serif" font-size="10.00">+</text>
<text text-anchor="start" x="279" y="-542.75" font-family="Helvetica,sans-Serif" font-size="10.00">el_proxy_b proxy_blk</text>
<text text-anchor="start" x="269" y="-527.75" font-family="Helvetica,sans-Serif" font-size="10.00">+</text>
<text text-anchor="start" x="279" y="-527.75" font-family="Helvetica,sans-Serif" font-size="10.00">el_fs_watch_b fs_watch_blk</text>
<text text-anchor="start" x="269" y="-512.75" font-family="Helvetica,sans-Serif" font-size="10.00">+</text>
<text text-anchor="start" x="279" y="-512.75" font-family="Helvetica,sans-Serif" font-size="10.00">union ev_t::@71 cb</text>
<text text-anchor="start" x="269" y="-497.75" font-family="Helvetica,sans-Serif" font-size="10.00">+</text>
<text text-anchor="start" x="279" y="-497.75" font-family="Helvetica,sans-Serif" font-size="10.00">block_t wipe</text>
<text text-anchor="start" x="269" y="-482.75" font-family="Helvetica,sans-Serif" font-size="10.00">+</text>
<text text-anchor="start" x="279" y="-482.75" font-family="Helvetica,sans-Serif" font-size="10.00">union ev_t::@72 @73</text>
<text text-anchor="start" x="269" y="-467.75" font-family="Helvetica,sans-Serif" font-size="10.00">+</text>
<text text-anchor="start" x="279" y="-467.75" font-family="Helvetica,sans-Serif" font-size="10.00">int fd</text>
<text text-anchor="start" x="269" y="-452.75" font-family="Helvetica,sans-Serif" font-size="10.00">+</text>
<text text-anchor="start" x="279" y="-452.75" font-family="Helvetica,sans-Serif" font-size="10.00">bool owned</text>
<text text-anchor="start" x="269" y="-437.75" font-family="Helvetica,sans-Serif" font-size="10.00">+</text>
<text text-anchor="start" x="279" y="-437.75" font-family="Helvetica,sans-Serif" font-size="10.00">struct ev_t::@74::</text>
<text text-anchor="start" x="279" y="-426.5" font-family="Helvetica,sans-Serif" font-size="10.00">@76 fd</text>
<text text-anchor="start" x="269" y="-411.75" font-family="Helvetica,sans-Serif" font-size="10.00">+</text>
<text text-anchor="start" x="279" y="-411.75" font-family="Helvetica,sans-Serif" font-size="10.00">pid_t pid</text>
<text text-anchor="start" x="269" y="-396.75" font-family="Helvetica,sans-Serif" font-size="10.00">+</text>
<text text-anchor="start" x="279" y="-396.75" font-family="Helvetica,sans-Serif" font-size="10.00">int status</text>
<text text-anchor="start" x="269" y="-381.75" font-family="Helvetica,sans-Serif" font-size="10.00">+</text>
<text text-anchor="start" x="279" y="-381.75" font-family="Helvetica,sans-Serif" font-size="10.00">bool has_exited</text>
<text text-anchor="start" x="269" y="-366.75" font-family="Helvetica,sans-Serif" font-size="10.00">+</text>
<text text-anchor="start" x="279" y="-366.75" font-family="Helvetica,sans-Serif" font-size="10.00">struct ev_t::@74::</text>
<text text-anchor="start" x="279" y="-355.5" font-family="Helvetica,sans-Serif" font-size="10.00">@77 child</text>
<text text-anchor="start" x="269" y="-340.75" font-family="Helvetica,sans-Serif" font-size="10.00">+</text>
<text text-anchor="start" x="279" y="-340.75" font-family="Helvetica,sans-Serif" font-size="10.00">uint64_t expiry</text>
<text text-anchor="start" x="269" y="-325.75" font-family="Helvetica,sans-Serif" font-size="10.00">+</text>
<text text-anchor="start" x="279" y="-325.75" font-family="Helvetica,sans-Serif" font-size="10.00">int64_t repeat</text>
<text text-anchor="start" x="269" y="-310.75" font-family="Helvetica,sans-Serif" font-size="10.00">+</text>
<text text-anchor="start" x="279" y="-310.75" font-family="Helvetica,sans-Serif" font-size="10.00">int tolerance</text>
<text text-anchor="start" x="269" y="-295.75" font-family="Helvetica,sans-Serif" font-size="10.00">+</text>
<text text-anchor="start" x="279" y="-295.75" font-family="Helvetica,sans-Serif" font-size="10.00">int heappos</text>
<text text-anchor="start" x="269" y="-280.75" font-family="Helvetica,sans-Serif" font-size="10.00">+</text>
<text text-anchor="start" x="279" y="-280.75" font-family="Helvetica,sans-Serif" font-size="10.00">struct ev_t::@74::</text>
<text text-anchor="start" x="279" y="-269.5" font-family="Helvetica,sans-Serif" font-size="10.00">@78 timer</text>
<text text-anchor="start" x="269" y="-254.75" font-family="Helvetica,sans-Serif" font-size="10.00">+</text>
<text text-anchor="start" x="279" y="-254.75" font-family="Helvetica,sans-Serif" font-size="10.00">char * path</text>
<text text-anchor="start" x="269" y="-239.75" font-family="Helvetica,sans-Serif" font-size="10.00">+</text>
<text text-anchor="start" x="279" y="-239.75" font-family="Helvetica,sans-Serif" font-size="10.00">struct ev_t::@74::</text>
<text text-anchor="start" x="279" y="-228.5" font-family="Helvetica,sans-Serif" font-size="10.00">@79 fs_watch</text>
<text text-anchor="start" x="269" y="-213.75" font-family="Helvetica,sans-Serif" font-size="10.00">+</text>
<text text-anchor="start" x="279" y="-213.75" font-family="Helvetica,sans-Serif" font-size="10.00">int write_fd</text>
<text text-anchor="start" x="269" y="-198.75" font-family="Helvetica,sans-Serif" font-size="10.00">+</text>
<text text-anchor="start" x="279" y="-198.75" font-family="Helvetica,sans-Serif" font-size="10.00">bool use_eventfd</text>
<text text-anchor="start" x="269" y="-183.75" font-family="Helvetica,sans-Serif" font-size="10.00">+</text>
<text text-anchor="start" x="279" y="-183.75" font-family="Helvetica,sans-Serif" font-size="10.00">struct ev_t::@74::</text>
<text text-anchor="start" x="279" y="-172.5" font-family="Helvetica,sans-Serif" font-size="10.00">@80 wake</text>
<text text-anchor="start" x="269" y="-157.75" font-family="Helvetica,sans-Serif" font-size="10.00">+</text>
<text text-anchor="start" x="279" y="-157.75" font-family="Helvetica,sans-Serif" font-size="10.00">uint8_t signo</text>
<text text-anchor="start" x="269" y="-142.75" font-family="Helvetica,sans-Serif" font-size="10.00">+</text>
<text text-anchor="start" x="279" y="-142.75" font-family="Helvetica,sans-Serif" font-size="10.00">union ev_t::@74 @75</text>
<text text-anchor="start" x="334" y="-127.75" font-family="Helvetica,sans-Serif" font-size="10.00"> </text>
<polygon fill="#666666" stroke="#666666" points="265,-835.25 265,-835.25 406,-835.25 406,-835.25 265,-835.25"/>
<polygon fill="#666666" stroke="#666666" points="265,-139.25 265,-139.25 277,-139.25 277,-139.25 265,-139.25"/>
<polygon fill="#666666" stroke="#666666" points="277,-139.25 277,-139.25 406,-139.25 406,-139.25 277,-139.25"/>
<polygon fill="none" stroke="#666666" points="265,-122.25 265,-852.25 406,-852.25 406,-122.25 265,-122.25"/>
</a>
</g>
</g>
<!-- Node4&#45;&gt;Node7 -->
<g id="edge10_Node000007_Node000004" class="edge">
<title>Node4&#45;&gt;Node7</title>
<g id="a_edge10_Node000007_Node000004"><a xlink:title=" ">
<path fill="none" stroke="#63b8ff" d="M226.96,-952.33C232.8,-927.56 242.32,-887.13 250.5,-852.25 254.31,-835.98 258.22,-819.3 262.16,-802.46"/>
<polygon fill="none" stroke="#63b8ff" points="262.1,-802.73 259.57,-795.98 264.83,-791.05 267.36,-797.8 262.1,-802.73"/>
</a>
</g>
<text text-anchor="middle" x="264.88" y="-883.25" font-family="Helvetica,sans-Serif" font-size="10.00" fill="grey"> +ev_list</text>
</g>
<!-- Node5 -->
<g id="Node000005" class="node">
<title>Node5</title>
<g id="a_Node000005"><a xlink:href="../../d8/d4d/structsb__t.html" target="_top" xlink:title=" ">
<polygon fill="white" stroke="none" points="546,-534.25 483,-534.25 483,-440.25 546,-440.25 546,-534.25"/>
<text text-anchor="start" x="505.12" y="-520.75" font-family="Helvetica,sans-Serif" font-size="10.00">sb_t</text>
<text text-anchor="start" x="487" y="-505.75" font-family="Helvetica,sans-Serif" font-size="10.00">+</text>
<text text-anchor="start" x="497" y="-505.75" font-family="Helvetica,sans-Serif" font-size="10.00">char * data</text>
<text text-anchor="start" x="487" y="-490.75" font-family="Helvetica,sans-Serif" font-size="10.00">+</text>
<text text-anchor="start" x="497" y="-490.75" font-family="Helvetica,sans-Serif" font-size="10.00">int len</text>
<text text-anchor="start" x="487" y="-475.75" font-family="Helvetica,sans-Serif" font-size="10.00">+</text>
<text text-anchor="start" x="497" y="-475.75" font-family="Helvetica,sans-Serif" font-size="10.00">int size</text>
<text text-anchor="start" x="487" y="-460.75" font-family="Helvetica,sans-Serif" font-size="10.00">+</text>
<text text-anchor="start" x="497" y="-460.75" font-family="Helvetica,sans-Serif" font-size="10.00">int skip</text>
<text text-anchor="start" x="513" y="-445.75" font-family="Helvetica,sans-Serif" font-size="10.00"> </text>
<polygon fill="#666666" stroke="#666666" points="483,-517.25 483,-517.25 546,-517.25 546,-517.25 483,-517.25"/>
<polygon fill="#666666" stroke="#666666" points="483,-457.25 483,-457.25 495,-457.25 495,-457.25 483,-457.25"/>
<polygon fill="#666666" stroke="#666666" points="495,-457.25 495,-457.25 546,-457.25 546,-457.25 495,-457.25"/>
<polygon fill="none" stroke="#666666" points="483,-440.25 483,-534.25 546,-534.25 546,-440.25 483,-440.25"/>
</a>
</g>
</g>
<!-- Node5&#45;&gt;Node1 -->
<g id="edge5_Node000001_Node000005" class="edge">
<title>Node5&#45;&gt;Node1</title>
<g id="a_edge5_Node000001_Node000005"><a xlink:title=" ">
<path fill="none" stroke="#63b8ff" d="M523.14,-440.53C534.55,-365.7 545.55,-216.06 473.5,-122.25 438.14,-76.21 373.85,-55.45 324.93,-46.11"/>
<polygon fill="none" stroke="#63b8ff" points="324.92,-46.11 318.32,-49.01 313.11,-44.02 319.71,-41.13 324.92,-46.11"/>
</a>
</g>
<text text-anchor="middle" x="461.88" y="-94.75" font-family="Helvetica,sans-Serif" font-size="10.00" fill="grey"> +cb</text>
</g>
<!-- Node6 -->
<g id="Node000006" class="node">
<title>Node6</title>
<g id="a_Node000006"><a xlink:href="../../d4/de3/structmem__pool__t.html" target="_top" xlink:title=" ">
<polygon fill="white" stroke="none" points="574.5,-1031 454.5,-1031 454.5,-922 574.5,-922 574.5,-1031"/>
<text text-anchor="start" x="487.88" y="-1017.5" font-family="Helvetica,sans-Serif" font-size="10.00">mem_pool_t</text>
<text text-anchor="start" x="458.5" y="-1002.5" font-family="Helvetica,sans-Serif" font-size="10.00">+</text>
<text text-anchor="start" x="468.5" y="-1002.5" font-family="Helvetica,sans-Serif" font-size="10.00">mem_flags_t mem_pool</text>
<text text-anchor="start" x="458.5" y="-987.5" font-family="Helvetica,sans-Serif" font-size="10.00">+</text>
<text text-anchor="start" x="468.5" y="-987.5" font-family="Helvetica,sans-Serif" font-size="10.00">uint32_t min_alignment</text>
<text text-anchor="start" x="458.5" y="-972.5" font-family="Helvetica,sans-Serif" font-size="10.00">+</text>
<text text-anchor="start" x="468.5" y="-972.5" font-family="Helvetica,sans-Serif" font-size="10.00">void *(* malloc</text>
<text text-anchor="start" x="458.5" y="-957.5" font-family="Helvetica,sans-Serif" font-size="10.00">+</text>
<text text-anchor="start" x="468.5" y="-957.5" font-family="Helvetica,sans-Serif" font-size="10.00">void *(* realloc</text>
<text text-anchor="start" x="458.5" y="-942.5" font-family="Helvetica,sans-Serif" font-size="10.00">+</text>
<text text-anchor="start" x="468.5" y="-942.5" font-family="Helvetica,sans-Serif" font-size="10.00">void(* free</text>
<text text-anchor="start" x="513" y="-927.5" font-family="Helvetica,sans-Serif" font-size="10.00"> </text>
<polygon fill="#666666" stroke="#666666" points="454.5,-1014 454.5,-1014 574.5,-1014 574.5,-1014 454.5,-1014"/>
<polygon fill="#666666" stroke="#666666" points="454.5,-939 454.5,-939 466.5,-939 466.5,-939 454.5,-939"/>
<polygon fill="#666666" stroke="#666666" points="466.5,-939 466.5,-939 574.5,-939 574.5,-939 466.5,-939"/>
<polygon fill="none" stroke="#666666" points="454.5,-922 454.5,-1031 574.5,-1031 574.5,-922 454.5,-922"/>
</a>
</g>
</g>
<!-- Node6&#45;&gt;Node5 -->
<g id="edge6_Node000005_Node000006" class="edge">
<title>Node6&#45;&gt;Node5</title>
<g id="a_edge6_Node000005_Node000006"><a xlink:title=" ">
<path fill="none" stroke="#63b8ff" d="M514.5,-922.43C514.5,-830.56 514.5,-642.57 514.5,-546.93"/>
<polygon fill="none" stroke="#63b8ff" points="514.5,-546.97 510.5,-540.97 514.5,-534.97 518.5,-540.97 514.5,-546.97"/>
</a>
</g>
<text text-anchor="middle" x="525.38" y="-883.25" font-family="Helvetica,sans-Serif" font-size="10.00" fill="grey"> +mp</text>
</g>
<!-- Node6&#45;&gt;Node6 -->
<g id="edge7_Node000006_Node000006" class="edge">
<title>Node6&#45;&gt;Node6</title>
<g id="a_edge7_Node000006_Node000006"><a xlink:title=" ">
<path fill="none" stroke="#63b8ff" d="M574.35,-992.27C585.03,-990.22 592.5,-984.97 592.5,-976.5 592.5,-971.87 590.27,-968.2 586.5,-965.49"/>
<polygon fill="none" stroke="#63b8ff" points="586.36,-965.43 579.31,-966.97 575.19,-961.05 582.23,-959.52 586.36,-965.43"/>
</a>
</g>
<text text-anchor="middle" x="630.38" y="-972.62" font-family="Helvetica,sans-Serif" font-size="10.00" fill="grey"> +realloc_fallback</text>
</g>
<!-- Node7&#45;&gt;Node1 -->
<g id="edge8_Node000001_Node000007" class="edge">
<title>Node7&#45;&gt;Node1</title>
<g id="a_edge8_Node000001_Node000007"><a xlink:title=" ">
<path fill="none" stroke="#63b8ff" d="M273.75,-122.46C271.6,-109.78 269.62,-98.11 267.86,-87.75"/>
<polygon fill="none" stroke="#63b8ff" points="267.84,-87.63 262.89,-82.39 265.83,-75.8 270.78,-81.05 267.84,-87.63"/>
</a>
</g>
<text text-anchor="middle" x="298.12" y="-94.75" font-family="Helvetica,sans-Serif" font-size="10.00" fill="grey"> +timeout_el</text>
</g>
<!-- Node7&#45;&gt;Node7 -->
<g id="edge11_Node000007_Node000007" class="edge">
<title>Node7&#45;&gt;Node7</title>
<g id="a_edge11_Node000007_Node000007"><a xlink:title=" ">
<path fill="none" stroke="#63b8ff" d="M405.97,-553.7C416.71,-543.55 424,-521.41 424,-487.25 424,-461.9 419.98,-443.16 413.52,-431.04"/>
<polygon fill="none" stroke="#63b8ff" points="413.63,-431.19 406.85,-428.73 406.5,-421.53 413.29,-423.98 413.63,-431.19"/>
</a>
</g>
<text text-anchor="middle" x="444.25" y="-483.38" font-family="Helvetica,sans-Serif" font-size="10.00" fill="grey"> +read_fd</text>
</g>
<!-- Node8 -->
<g id="Node000008" class="node">
<title>Node8</title>
<g id="a_Node000008"><a xlink:href="../../d3/ddf/uniondata__t.html" target="_top" xlink:title="Type to pass as a generic context.">
<polygon fill="white" stroke="none" points="371.5,-1016 301.5,-1016 301.5,-937 371.5,-937 371.5,-1016"/>
<text text-anchor="start" x="323" y="-1002.5" font-family="Helvetica,sans-Serif" font-size="10.00">data_t</text>
<text text-anchor="start" x="305.5" y="-987.5" font-family="Helvetica,sans-Serif" font-size="10.00">+</text>
<text text-anchor="start" x="315.5" y="-987.5" font-family="Helvetica,sans-Serif" font-size="10.00">void * ptr</text>
<text text-anchor="start" x="305.5" y="-972.5" font-family="Helvetica,sans-Serif" font-size="10.00">+</text>
<text text-anchor="start" x="315.5" y="-972.5" font-family="Helvetica,sans-Serif" font-size="10.00">uint32_t u32</text>
<text text-anchor="start" x="305.5" y="-957.5" font-family="Helvetica,sans-Serif" font-size="10.00">+</text>
<text text-anchor="start" x="315.5" y="-957.5" font-family="Helvetica,sans-Serif" font-size="10.00">uint64_t u64</text>
<text text-anchor="start" x="335" y="-942.5" font-family="Helvetica,sans-Serif" font-size="10.00"> </text>
<polygon fill="#666666" stroke="#666666" points="301.5,-999 301.5,-999 371.5,-999 371.5,-999 301.5,-999"/>
<polygon fill="#666666" stroke="#666666" points="301.5,-954 301.5,-954 313.5,-954 313.5,-954 301.5,-954"/>
<polygon fill="#666666" stroke="#666666" points="313.5,-954 313.5,-954 371.5,-954 371.5,-954 313.5,-954"/>
<polygon fill="none" stroke="#666666" points="301.5,-937 301.5,-1016 371.5,-1016 371.5,-937 301.5,-937"/>
</a>
</g>
</g>
<!-- Node8&#45;&gt;Node7 -->
<g id="edge9_Node000007_Node000008" class="edge">
<title>Node8&#45;&gt;Node7</title>
<g id="a_edge9_Node000007_Node000008"><a xlink:title=" ">
<path fill="none" stroke="#63b8ff" d="M336.42,-937.27C336.38,-918.31 336.33,-893.38 336.27,-864.97"/>
<polygon fill="none" stroke="#63b8ff" points="336.27,-865.03 332.26,-859.04 336.25,-853.03 340.26,-859.03 336.27,-865.03"/>
</a>
</g>
<text text-anchor="middle" x="347.38" y="-888.88" font-family="Helvetica,sans-Serif" font-size="10.00" fill="grey"> +ctx</text>
<text text-anchor="middle" x="347.38" y="-877.62" font-family="Helvetica,sans-Serif" font-size="10.00" fill="grey">+priv</text>
</g>
</g>
</svg>
