<?xml version="1.0" encoding="UTF-8" standalone="no"?>
<!DOCTYPE svg PUBLIC "-//W3C//DTD SVG 1.1//EN"
 "http://www.w3.org/Graphics/SVG/1.1/DTD/svg11.dtd">
<!-- Generated by graphviz version 9.0.0 (20230911.1827)
 -->
<!-- Title: ob_consume Pages: 1 -->
<svg width="752pt" height="121pt"
 viewBox="0.00 0.00 752.25 121.25" xmlns="http://www.w3.org/2000/svg" xmlns:xlink="http://www.w3.org/1999/xlink">
<g id="graph0" class="graph" transform="scale(1 1) rotate(0) translate(4 117.25)">
<title>ob_consume</title>
<!-- Node1 -->
<g id="Node000001" class="node">
<title>Node1</title>
<g id="a_Node000001"><a xlink:title=" ">
<polygon fill="#999999" stroke="#666666" points="71.5,-94.25 0,-94.25 0,-75 71.5,-75 71.5,-94.25"/>
<text text-anchor="middle" x="35.75" y="-80.75" font-family="Helvetica,sans-Serif" font-size="10.00">ob_consume</text>
</a>
</g>
</g>
<!-- Node2 -->
<g id="Node000002" class="node">
<title>Node2</title>
<g id="a_Node000002"><a xlink:href="../../d7/dcb/container-htlist_8h.html#ad447ba65032263c290856d3718ce59ea" target="_top" xlink:title=" ">
<polygon fill="white" stroke="#666666" points="282.75,-113.25 201.5,-113.25 201.5,-94 282.75,-94 282.75,-113.25"/>
<text text-anchor="middle" x="242.12" y="-99.75" font-family="Helvetica,sans-Serif" font-size="10.00">htlist_is_empty</text>
</a>
</g>
</g>
<!-- Node1&#45;&gt;Node2 -->
<g id="edge1_Node000001_Node000002" class="edge">
<title>Node1&#45;&gt;Node2</title>
<g id="a_edge1_Node000001_Node000002"><a xlink:title=" ">
<path fill="none" stroke="#63b8ff" d="M67.39,-94.73C79.71,-98.3 94.13,-101.86 107.5,-103.62 134.5,-107.19 164.84,-107.48 189.78,-106.76"/>
<polygon fill="#63b8ff" stroke="#63b8ff" points="189.81,-110.26 199.67,-106.4 189.55,-103.26 189.81,-110.26"/>
</a>
</g>
</g>
<!-- Node3 -->
<g id="Node000003" class="node">
<title>Node3</title>
<g id="a_Node000003"><a xlink:href="../../d7/dcb/container-htlist_8h.html#aad5936297176d1d2025cc6258ad79a1b" target="_top" xlink:title=" ">
<polygon fill="white" stroke="#666666" points="165.5,-94.25 107.5,-94.25 107.5,-75 165.5,-75 165.5,-94.25"/>
<text text-anchor="middle" x="136.5" y="-80.75" font-family="Helvetica,sans-Serif" font-size="10.00">htlist_pop</text>
</a>
</g>
</g>
<!-- Node1&#45;&gt;Node3 -->
<g id="edge2_Node000001_Node000003" class="edge">
<title>Node1&#45;&gt;Node3</title>
<g id="a_edge2_Node000001_Node000003"><a xlink:title=" ">
<path fill="none" stroke="#63b8ff" d="M71.84,-84.62C79.59,-84.62 87.85,-84.62 95.77,-84.62"/>
<polygon fill="#63b8ff" stroke="#63b8ff" points="95.51,-88.13 105.51,-84.63 95.51,-81.13 95.51,-88.13"/>
</a>
</g>
</g>
<!-- Node4 -->
<g id="Node000004" class="node">
<title>Node4</title>
<g id="a_Node000004"><a xlink:href="../../dc/d31/str-buf_8h.html#ab83eeb942ed3944470a82c220a999845" target="_top" xlink:title=" ">
<polygon fill="white" stroke="#666666" points="161.38,-57.25 111.62,-57.25 111.62,-38 161.38,-38 161.38,-57.25"/>
<text text-anchor="middle" x="136.5" y="-43.75" font-family="Helvetica,sans-Serif" font-size="10.00">sb_skip</text>
</a>
</g>
</g>
<!-- Node1&#45;&gt;Node4 -->
<g id="edge4_Node000001_Node000004" class="edge">
<title>Node1&#45;&gt;Node4</title>
<g id="a_edge4_Node000001_Node000004"><a xlink:title=" ">
<path fill="none" stroke="#63b8ff" d="M63.73,-74.51C75.1,-70.26 88.48,-65.24 100.58,-60.71"/>
<polygon fill="#63b8ff" stroke="#63b8ff" points="101.69,-64.03 109.83,-57.24 99.24,-57.47 101.69,-64.03"/>
</a>
</g>
</g>
<!-- Node3&#45;&gt;Node2 -->
<g id="edge3_Node000003_Node000002" class="edge">
<title>Node3&#45;&gt;Node2</title>
<g id="a_edge3_Node000003_Node000002"><a xlink:title=" ">
<path fill="none" stroke="#63b8ff" d="M165.82,-89.82C173.31,-91.19 181.65,-92.72 189.95,-94.24"/>
<polygon fill="#63b8ff" stroke="#63b8ff" points="189.23,-97.67 199.7,-96.03 190.5,-90.78 189.23,-97.67"/>
</a>
</g>
</g>
<!-- Node5 -->
<g id="Node000005" class="node">
<title>Node5</title>
<g id="a_Node000005"><a xlink:href="../../d4/d02/str-buf_8c.html#a565dca690544eca5eb3516d506ea086f" target="_top" xlink:title=" ">
<polygon fill="white" stroke="#666666" points="268.88,-57.25 215.38,-57.25 215.38,-38 268.88,-38 268.88,-57.25"/>
<text text-anchor="middle" x="242.12" y="-43.75" font-family="Helvetica,sans-Serif" font-size="10.00">sb_reset</text>
</a>
</g>
</g>
<!-- Node4&#45;&gt;Node5 -->
<g id="edge5_Node000004_Node000005" class="edge">
<title>Node4&#45;&gt;Node5</title>
<g id="a_edge5_Node000004_Node000005"><a xlink:title=" ">
<path fill="none" stroke="#63b8ff" d="M161.8,-47.62C174.32,-47.62 189.87,-47.62 203.87,-47.62"/>
<polygon fill="#63b8ff" stroke="#63b8ff" points="203.66,-51.13 213.66,-47.63 203.66,-44.13 203.66,-51.13"/>
</a>
</g>
</g>
<!-- Node6 -->
<g id="Node000006" class="node">
<title>Node6</title>
<g id="a_Node000006"><a xlink:href="../../d4/d02/str-buf_8c.html#a4a2eff2f7383d95c9ede6af667197566" target="_top" xlink:title=" ">
<polygon fill="white" stroke="#666666" points="382.75,-57.25 318.75,-57.25 318.75,-38 382.75,-38 382.75,-57.25"/>
<text text-anchor="middle" x="350.75" y="-43.75" font-family="Helvetica,sans-Serif" font-size="10.00">__sb_reset</text>
</a>
</g>
</g>
<!-- Node5&#45;&gt;Node6 -->
<g id="edge6_Node000005_Node000006" class="edge">
<title>Node5&#45;&gt;Node6</title>
<g id="a_edge6_Node000005_Node000006"><a xlink:title=" ">
<path fill="none" stroke="#63b8ff" d="M269.21,-47.62C280.63,-47.62 294.33,-47.62 307.17,-47.62"/>
<polygon fill="#63b8ff" stroke="#63b8ff" points="307.11,-51.13 317.11,-47.63 307.11,-44.13 307.11,-51.13"/>
</a>
</g>
</g>
<!-- Node7 -->
<g id="Node000007" class="node">
<title>Node7</title>
<g id="a_Node000007"><a xlink:href="../../d9/d9a/mem_8h.html#a3fd6d5b3dcb24f194848ce86f988fb13" target="_top" xlink:title=" ">
<polygon fill="white" stroke="#666666" points="499.62,-95.25 444.62,-95.25 444.62,-76 499.62,-76 499.62,-95.25"/>
<text text-anchor="middle" x="472.12" y="-81.75" font-family="Helvetica,sans-Serif" font-size="10.00">mp_ipool</text>
</a>
</g>
</g>
<!-- Node6&#45;&gt;Node7 -->
<g id="edge7_Node000006_Node000007" class="edge">
<title>Node6&#45;&gt;Node7</title>
<g id="a_edge7_Node000006_Node000007"><a xlink:title=" ">
<path fill="none" stroke="#63b8ff" d="M383.11,-57.61C398.61,-62.54 417.41,-68.53 433.65,-73.7"/>
<polygon fill="#63b8ff" stroke="#63b8ff" points="432.39,-76.97 442.98,-76.66 434.51,-70.3 432.39,-76.97"/>
</a>
</g>
</g>
<!-- Node8 -->
<g id="Node000008" class="node">
<title>Node8</title>
<g id="a_Node000008"><a xlink:href="../../dc/d31/str-buf_8h.html#a6dc2ca5bc1506b37f95463e6abe4e201" target="_top" xlink:title=" ">
<polygon fill="white" stroke="#666666" points="624,-38.25 561.5,-38.25 561.5,-19 624,-19 624,-38.25"/>
<text text-anchor="middle" x="592.75" y="-24.75" font-family="Helvetica,sans-Serif" font-size="10.00">sb_init_full</text>
</a>
</g>
</g>
<!-- Node6&#45;&gt;Node8 -->
<g id="edge8_Node000006_Node000008" class="edge">
<title>Node6&#45;&gt;Node8</title>
<g id="a_edge8_Node000006_Node000008"><a xlink:title=" ">
<path fill="none" stroke="#63b8ff" d="M383.13,-45.14C425.76,-41.77 502.12,-35.72 549.69,-31.95"/>
<polygon fill="#63b8ff" stroke="#63b8ff" points="549.92,-35.45 559.62,-31.17 549.37,-28.47 549.92,-35.45"/>
</a>
</g>
</g>
<!-- Node10 -->
<g id="Node000010" class="node">
<title>Node10</title>
<g id="a_Node000010"><a xlink:href="../../d4/d02/str-buf_8c.html#a7ab29759b9a4ccea4138a4f64031ce08" target="_top" xlink:title="Resets the buffer but keeps the allocated memory, however big it is.">
<polygon fill="white" stroke="#666666" points="525.5,-19.25 418.75,-19.25 418.75,0 525.5,0 525.5,-19.25"/>
<text text-anchor="middle" x="472.12" y="-5.75" font-family="Helvetica,sans-Serif" font-size="10.00">sb_reset_keep_mem</text>
</a>
</g>
</g>
<!-- Node6&#45;&gt;Node10 -->
<g id="edge10_Node000006_Node000010" class="edge">
<title>Node6&#45;&gt;Node10</title>
<g id="a_edge10_Node000006_Node000010"><a xlink:title=" ">
<path fill="none" stroke="#63b8ff" d="M383.11,-37.64C397.12,-33.18 413.84,-27.86 428.92,-23.06"/>
<polygon fill="#63b8ff" stroke="#63b8ff" points="429.65,-26.5 438.11,-20.13 427.52,-19.83 429.65,-26.5"/>
</a>
</g>
</g>
<!-- Node9 -->
<g id="Node000009" class="node">
<title>Node9</title>
<g id="a_Node000009"><a xlink:href="../../dc/d31/str-buf_8h.html#a01c1a4f8ed76b6a919595b803c7d7376" target="_top" xlink:title=" ">
<polygon fill="white" stroke="#666666" points="744.25,-38.25 660,-38.25 660,-19 744.25,-19 744.25,-38.25"/>
<text text-anchor="middle" x="702.12" y="-24.75" font-family="Helvetica,sans-Serif" font-size="10.00">sb_set_trailing0</text>
</a>
</g>
</g>
<!-- Node8&#45;&gt;Node9 -->
<g id="edge9_Node000008_Node000009" class="edge">
<title>Node8&#45;&gt;Node9</title>
<g id="a_edge9_Node000008_Node000009"><a xlink:title=" ">
<path fill="none" stroke="#63b8ff" d="M624.23,-28.62C631.82,-28.62 640.17,-28.62 648.49,-28.62"/>
<polygon fill="#63b8ff" stroke="#63b8ff" points="648.23,-32.13 658.23,-28.63 648.23,-25.13 648.23,-32.13"/>
</a>
</g>
</g>
<!-- Node10&#45;&gt;Node8 -->
<g id="edge11_Node000010_Node000008" class="edge">
<title>Node10&#45;&gt;Node8</title>
<g id="a_edge11_Node000010_Node000008"><a xlink:title=" ">
<path fill="none" stroke="#63b8ff" d="M525.85,-18.07C534,-19.37 542.31,-20.71 550.17,-21.97"/>
<polygon fill="#63b8ff" stroke="#63b8ff" points="549.36,-25.38 559.79,-23.51 550.47,-18.47 549.36,-25.38"/>
</a>
</g>
</g>
</g>
</svg>
