<?xml version="1.0" encoding="UTF-8" standalone="no"?>
<!DOCTYPE svg PUBLIC "-//W3C//DTD SVG 1.1//EN"
 "http://www.w3.org/Graphics/SVG/1.1/DTD/svg11.dtd">
<!-- Generated by graphviz version 9.0.0 (20230911.1827)
 -->
<!-- Title: el_fd_register_blk Pages: 1 -->
<svg width="337pt" height="64pt"
 viewBox="0.00 0.00 336.50 64.25" xmlns="http://www.w3.org/2000/svg" xmlns:xlink="http://www.w3.org/1999/xlink">
<g id="graph0" class="graph" transform="scale(1 1) rotate(0) translate(4 60.25)">
<title>el_fd_register_blk</title>
<!-- Node1 -->
<g id="Node000001" class="node">
<title>Node1</title>
<g id="a_Node000001"><a xlink:title=" ">
<polygon fill="#999999" stroke="#666666" points="92.5,-37.25 0,-37.25 0,-18 92.5,-18 92.5,-37.25"/>
<text text-anchor="middle" x="46.25" y="-23.75" font-family="Helvetica,sans-Serif" font-size="10.00">el_fd_register_blk</text>
</a>
</g>
</g>
<!-- Node2 -->
<g id="Node000002" class="node">
<title>Node2</title>
<g id="a_Node000002"><a xlink:href="../../da/d9c/group__lc__el.html#gaa6deada860be6b128d80559fb1a8b4fe" target="_top" xlink:title=" ">
<polygon fill="white" stroke="#666666" points="207.5,-56.25 128.5,-56.25 128.5,-37 207.5,-37 207.5,-56.25"/>
<text text-anchor="middle" x="168" y="-42.75" font-family="Helvetica,sans-Serif" font-size="10.00">el_blk_register</text>
</a>
</g>
</g>
<!-- Node1&#45;&gt;Node2 -->
<g id="edge1_Node000001_Node000002" class="edge">
<title>Node1&#45;&gt;Node2</title>
<g id="a_edge1_Node000001_Node000002"><a xlink:title=" ">
<path fill="none" stroke="#63b8ff" d="M92.86,-34.86C100.77,-36.12 109.03,-37.43 117.04,-38.7"/>
<polygon fill="#63b8ff" stroke="#63b8ff" points="116.23,-42.11 126.66,-40.22 117.33,-35.2 116.23,-42.11"/>
</a>
</g>
</g>
<!-- Node3 -->
<g id="Node000003" class="node">
<title>Node3</title>
<g id="a_Node000003"><a xlink:href="../../da/d9c/group__lc__el.html#ga4cf906039ea801bceabc776703adfa45" target="_top" xlink:title=" ">
<polygon fill="white" stroke="#666666" points="205.25,-19.25 130.75,-19.25 130.75,0 205.25,0 205.25,-19.25"/>
<text text-anchor="middle" x="168" y="-5.75" font-family="Helvetica,sans-Serif" font-size="10.00">el_fd_register</text>
</a>
</g>
</g>
<!-- Node1&#45;&gt;Node3 -->
<g id="edge2_Node000001_Node000003" class="edge">
<title>Node1&#45;&gt;Node3</title>
<g id="a_edge2_Node000001_Node000003"><a xlink:title=" ">
<path fill="none" stroke="#63b8ff" d="M92.86,-20.77C101.5,-19.47 110.56,-18.11 119.27,-16.8"/>
<polygon fill="#63b8ff" stroke="#63b8ff" points="119.57,-20.29 128.94,-15.35 118.53,-13.37 119.57,-20.29"/>
</a>
</g>
</g>
<!-- Node4 -->
<g id="Node000004" class="node">
<title>Node4</title>
<g id="a_Node000004"><a xlink:href="../../da/d9c/group__lc__el.html#gafef4bb4442efd7cf5324659b2323eafa" target="_top" xlink:title=" ">
<polygon fill="white" stroke="#666666" points="328.5,-19.25 243.5,-19.25 243.5,0 328.5,0 328.5,-19.25"/>
<text text-anchor="middle" x="286" y="-5.75" font-family="Helvetica,sans-Serif" font-size="10.00">el_fd_register_d</text>
</a>
</g>
</g>
<!-- Node3&#45;&gt;Node4 -->
<g id="edge3_Node000003_Node000004" class="edge">
<title>Node3&#45;&gt;Node4</title>
<g id="a_edge3_Node000003_Node000004"><a xlink:title=" ">
<path fill="none" stroke="#63b8ff" d="M205.7,-9.62C214.01,-9.62 222.99,-9.62 231.83,-9.62"/>
<polygon fill="#63b8ff" stroke="#63b8ff" points="231.77,-13.13 241.77,-9.63 231.77,-6.13 231.77,-13.13"/>
</a>
</g>
</g>
</g>
</svg>
