<?xml version="1.0" encoding="UTF-8" standalone="no"?>
<!DOCTYPE svg PUBLIC "-//W3C//DTD SVG 1.1//EN"
 "http://www.w3.org/Graphics/SVG/1.1/DTD/svg11.dtd">
<!-- Generated by graphviz version 9.0.0 (20230911.1827)
 -->
<!-- Title: el_fd_process_fired Pages: 1 -->
<svg width="458pt" height="138pt"
 viewBox="0.00 0.00 457.50 138.25" xmlns="http://www.w3.org/2000/svg" xmlns:xlink="http://www.w3.org/1999/xlink">

<svg id="main" version="1.1" xmlns="http://www.w3.org/2000/svg" xmlns:xlink="http://www.w3.org/1999/xlink" xml:space="preserve" onload="init(evt)">
<style type="text/css"><![CDATA[
.node, .edge {opacity: 0.7;}
.node.selected, .edge.selected {opacity: 1;}
.edge:hover path { stroke: red; }
.edge:hover polygon { stroke: red; fill: red; }
]]></style>
<script type="application/ecmascript" xlink:href="../../svg.min.js"/>
<svg id="graph" class="graph">
<g id="graph0" class="graph" transform="scale(1 1) rotate(0) translate(4 134.25)">
<title>el_fd_process_fired</title>
<!-- Node1 -->
<g id="Node000001" class="node">
<title>Node1</title>
<g id="a_Node000001"><a xlink:title=" ">
<polygon fill="#999999" stroke="#666666" points="100,-74.25 0,-74.25 0,-55 100,-55 100,-74.25"/>
<text text-anchor="middle" x="50" y="-60.75" font-family="Helvetica,sans-Serif" font-size="10.00">el_fd_process_fired</text>
</a>
</g>
</g>
<!-- Node2 -->
<g id="Node000002" class="node">
<title>Node2</title>
<g id="a_Node000002"><a xlink:href="../../de/d1a/container-dlist_8h.html#a0a69e401f6ec15966c891e96ad864c77" target="_top" xlink:title="Put a dlist_t element in a safe and detached state.">
<polygon fill="white" stroke="#666666" points="201.12,-130.25 149.12,-130.25 149.12,-111 201.12,-111 201.12,-130.25"/>
<text text-anchor="middle" x="175.12" y="-116.75" font-family="Helvetica,sans-Serif" font-size="10.00">dlist_init</text>
</a>
</g>
</g>
<!-- Node1&#45;&gt;Node2 -->
<g id="edge1_Node000001_Node000002" class="edge">
<title>Node1&#45;&gt;Node2</title>
<g id="a_edge1_Node000001_Node000002"><a xlink:title=" ">
<path fill="none" stroke="#63b8ff" d="M73.01,-74.64C92.07,-83.3 119.89,-95.96 141.52,-105.8"/>
<polygon fill="#63b8ff" stroke="#63b8ff" points="139.96,-108.93 150.51,-109.88 142.86,-102.56 139.96,-108.93"/>
</a>
</g>
</g>
<!-- Node3 -->
<g id="Node000003" class="node">
<title>Node3</title>
<g id="a_Node000003"><a xlink:href="../../de/d1a/container-dlist_8h.html#a09103296d7ba39784005e7402529a9c0" target="_top" xlink:title="Return true if the list has no element.">
<polygon fill="white" stroke="#666666" points="214.25,-93.25 136,-93.25 136,-74 214.25,-74 214.25,-93.25"/>
<text text-anchor="middle" x="175.12" y="-79.75" font-family="Helvetica,sans-Serif" font-size="10.00">dlist_is_empty</text>
</a>
</g>
</g>
<!-- Node1&#45;&gt;Node3 -->
<g id="edge2_Node000001_Node000003" class="edge">
<title>Node1&#45;&gt;Node3</title>
<g id="a_edge2_Node000001_Node000003"><a xlink:title=" ">
<path fill="none" stroke="#63b8ff" d="M100.37,-72.24C108.28,-73.46 116.47,-74.73 124.39,-75.95"/>
<polygon fill="#63b8ff" stroke="#63b8ff" points="123.82,-79.4 134.24,-77.47 124.89,-72.49 123.82,-79.4"/>
</a>
</g>
</g>
<!-- Node4 -->
<g id="Node000004" class="node">
<title>Node4</title>
<g id="a_Node000004"><a xlink:href="../../da/d9c/group__lc__el.html#ga42714f8b2283a03bb27c0edbb6f3b9c3" target="_top" xlink:title=" ">
<polygon fill="white" stroke="#666666" points="202.62,-56.25 147.62,-56.25 147.62,-37 202.62,-37 202.62,-56.25"/>
<text text-anchor="middle" x="175.12" y="-42.75" font-family="Helvetica,sans-Serif" font-size="10.00">el_fd_fire</text>
</a>
</g>
</g>
<!-- Node1&#45;&gt;Node4 -->
<g id="edge3_Node000001_Node000004" class="edge">
<title>Node1&#45;&gt;Node4</title>
<g id="a_edge3_Node000001_Node000004"><a xlink:title=" ">
<path fill="none" stroke="#63b8ff" d="M100.37,-57.41C112.29,-55.67 124.84,-53.83 136.14,-52.18"/>
<polygon fill="#63b8ff" stroke="#63b8ff" points="136.5,-55.66 145.89,-50.75 135.49,-48.74 136.5,-55.66"/>
</a>
</g>
</g>
<!-- Node7 -->
<g id="Node000007" class="node">
<title>Node7</title>
<g id="a_Node000007"><a xlink:href="../../da/d9c/group__lc__el.html#gab4ef766dad3f89aeccc33a05c6676ff5" target="_top" xlink:title=" ">
<polygon fill="white" stroke="#666666" points="213.12,-19.25 137.12,-19.25 137.12,0 213.12,0 213.12,-19.25"/>
<text text-anchor="middle" x="175.12" y="-5.75" font-family="Helvetica,sans-Serif" font-size="10.00">ev_cache_list</text>
</a>
</g>
</g>
<!-- Node1&#45;&gt;Node7 -->
<g id="edge6_Node000001_Node000007" class="edge">
<title>Node1&#45;&gt;Node7</title>
<g id="a_edge6_Node000001_Node000007"><a xlink:title=" ">
<path fill="none" stroke="#63b8ff" d="M73.58,-54.54C92.59,-46.05 120.01,-33.8 141.42,-24.23"/>
<polygon fill="#63b8ff" stroke="#63b8ff" points="142.6,-27.54 150.3,-20.27 139.75,-21.15 142.6,-27.54"/>
</a>
</g>
</g>
<!-- Node5 -->
<g id="Node000005" class="node">
<title>Node5</title>
<g id="a_Node000005"><a xlink:href="../../da/d9c/group__lc__el.html#gaac0181abafb5f31280a2107eacb04167" target="_top" xlink:title=" ">
<polygon fill="white" stroke="#666666" points="355.5,-56.25 250.25,-56.25 250.25,-37 355.5,-37 355.5,-56.25"/>
<text text-anchor="middle" x="302.88" y="-42.75" font-family="Helvetica,sans-Serif" font-size="10.00">el_timer_restart_fast</text>
</a>
</g>
</g>
<!-- Node4&#45;&gt;Node5 -->
<g id="edge4_Node000004_Node000005" class="edge">
<title>Node4&#45;&gt;Node5</title>
<g id="a_edge4_Node000004_Node000005"><a xlink:title=" ">
<path fill="none" stroke="#63b8ff" d="M203.1,-46.62C213.54,-46.62 225.97,-46.62 238.43,-46.62"/>
<polygon fill="#63b8ff" stroke="#63b8ff" points="238.31,-50.13 248.31,-46.63 238.31,-43.13 238.31,-50.13"/>
</a>
</g>
</g>
<!-- Node6 -->
<g id="Node000006" class="node">
<title>Node6</title>
<g id="a_Node000006"><a xlink:href="../../da/d9c/group__lc__el.html#ga8065751e67724b8a633efe591a50d643" target="_top" xlink:title=" ">
<polygon fill="white" stroke="#666666" points="449.5,-56.25 391.5,-56.25 391.5,-37 449.5,-37 449.5,-56.25"/>
<text text-anchor="middle" x="420.5" y="-42.75" font-family="Helvetica,sans-Serif" font-size="10.00">get_clock</text>
</a>
</g>
</g>
<!-- Node5&#45;&gt;Node6 -->
<g id="edge5_Node000005_Node000006" class="edge">
<title>Node5&#45;&gt;Node6</title>
<g id="a_edge5_Node000005_Node000006"><a xlink:title=" ">
<path fill="none" stroke="#63b8ff" d="M355.94,-46.62C363.98,-46.62 372.17,-46.62 379.88,-46.62"/>
<polygon fill="#63b8ff" stroke="#63b8ff" points="379.61,-50.13 389.61,-46.63 379.61,-43.13 379.61,-50.13"/>
</a>
</g>
</g>
</g>
</svg>
</svg>

<style type='text/css'>
<![CDATA[
[data-mouse-over-selected='false'] { opacity: 0.7; }
[data-mouse-over-selected='true']  { opacity: 1.0; }
]]>
</style>
<script type="application/ecmascript"><![CDATA[
document.addEventListener('DOMContentLoaded', (event) => {
  highlightEdges();
  highlightAdjacentNodes();
});
]]></script>
</svg>
