<?xml version="1.0" encoding="UTF-8" standalone="no"?>
<!DOCTYPE svg PUBLIC "-//W3C//DTD SVG 1.1//EN"
 "http://www.w3.org/Graphics/SVG/1.1/DTD/svg11.dtd">
<!-- Generated by graphviz version 9.0.0 (20230911.1827)
 -->
<!-- Title: el_fds_loop Pages: 1 -->
<svg width="624pt" height="138pt"
 viewBox="0.00 0.00 623.50 138.25" xmlns="http://www.w3.org/2000/svg" xmlns:xlink="http://www.w3.org/1999/xlink">
<g id="graph0" class="graph" transform="scale(1 1) rotate(0) translate(4 134.25)">
<title>el_fds_loop</title>
<!-- Node1 -->
<g id="Node000001" class="node">
<title>Node1</title>
<g id="a_Node000001"><a xlink:title=" ">
<polygon fill="#999999" stroke="#666666" points="615.5,-55.25 550,-55.25 550,-36 615.5,-36 615.5,-55.25"/>
<text text-anchor="middle" x="582.75" y="-41.75" font-family="Helvetica,sans-Serif" font-size="10.00">el_fds_loop</text>
</a>
</g>
</g>
<!-- Node2 -->
<g id="Node000002" class="node">
<title>Node2</title>
<g id="a_Node000002"><a xlink:href="../../da/d9c/group__lc__el.html#gaba09a1c8767f4d17dabe15df6fdccd35" target="_top" xlink:title=" ">
<polygon fill="white" stroke="#666666" points="514,-55.25 453.75,-55.25 453.75,-36 514,-36 514,-55.25"/>
<text text-anchor="middle" x="483.88" y="-41.75" font-family="Helvetica,sans-Serif" font-size="10.00">el_fd_loop</text>
</a>
</g>
</g>
<!-- Node1&#45;&gt;Node2 -->
<g id="edge1_Node000001_Node000002" class="edge">
<title>Node1&#45;&gt;Node2</title>
<g id="a_edge1_Node000001_Node000002"><a xlink:title=" ">
<path fill="none" stroke="#63b8ff" d="M538.42,-45.62C530.23,-45.62 521.84,-45.62 514.21,-45.62"/>
<polygon fill="#63b8ff" stroke="#63b8ff" points="538.25,-49.13 548.25,-45.63 538.25,-42.13 538.25,-49.13"/>
</a>
</g>
</g>
<!-- Node3 -->
<g id="Node000003" class="node">
<title>Node3</title>
<g id="a_Node000003"><a xlink:href="../../dd/d4a/net_2http_8c.html#a6871c3ee30f4927c471d80137929ee63" target="_top" xlink:title=" ">
<polygon fill="white" stroke="#666666" points="398.62,-85.25 325.62,-85.25 325.62,-66 398.62,-66 398.62,-85.25"/>
<text text-anchor="middle" x="362.12" y="-71.75" font-family="Helvetica,sans-Serif" font-size="10.00">z_http2_reply</text>
</a>
</g>
</g>
<!-- Node2&#45;&gt;Node3 -->
<g id="edge2_Node000002_Node000003" class="edge">
<title>Node2&#45;&gt;Node3</title>
<g id="a_edge2_Node000002_Node000003"><a xlink:title=" ">
<path fill="none" stroke="#63b8ff" d="M442.36,-55.78C428.23,-59.32 412.49,-63.26 398.78,-66.69"/>
<polygon fill="#63b8ff" stroke="#63b8ff" points="442.96,-59.23 451.81,-53.41 441.25,-52.44 442.96,-59.23"/>
</a>
</g>
</g>
<!-- Node8 -->
<g id="Node000008" class="node">
<title>Node8</title>
<g id="a_Node000008"><a xlink:href="../../dd/d4a/net_2http_8c.html#aaecfd9085165c1791e052aafa3ae2dd6" target="_top" xlink:title=" ">
<polygon fill="white" stroke="#666666" points="417.75,-39.88 306.5,-39.88 306.5,-9.37 417.75,-9.37 417.75,-39.88"/>
<text text-anchor="start" x="314.5" y="-26.38" font-family="Helvetica,sans-Serif" font-size="10.00">z_reply_close_without</text>
<text text-anchor="middle" x="362.12" y="-15.12" font-family="Helvetica,sans-Serif" font-size="10.00">_content_length</text>
</a>
</g>
</g>
<!-- Node2&#45;&gt;Node8 -->
<g id="edge9_Node000002_Node000008" class="edge">
<title>Node2&#45;&gt;Node8</title>
<g id="a_edge9_Node000002_Node000008"><a xlink:title=" ">
<path fill="none" stroke="#63b8ff" d="M442.01,-38.46C434.3,-37.11 426.13,-35.67 418.07,-34.26"/>
<polygon fill="#63b8ff" stroke="#63b8ff" points="441.33,-41.89 451.78,-40.17 442.54,-35 441.33,-41.89"/>
</a>
</g>
</g>
<!-- Node4 -->
<g id="Node000004" class="node">
<title>Node4</title>
<g id="a_Node000004"><a xlink:href="../../dd/d4a/net_2http_8c.html#a3b13f075467c6b4af9e79380e7123bac" target="_top" xlink:title=" ">
<polygon fill="white" stroke="#666666" points="270.5,-130.25 144.25,-130.25 144.25,-111 270.5,-111 270.5,-130.25"/>
<text text-anchor="middle" x="207.38" y="-116.75" font-family="Helvetica,sans-Serif" font-size="10.00">z_http2_reply_no_content</text>
</a>
</g>
</g>
<!-- Node3&#45;&gt;Node4 -->
<g id="edge3_Node000003_Node000004" class="edge">
<title>Node3&#45;&gt;Node4</title>
<g id="a_edge3_Node000003_Node000004"><a xlink:title=" ">
<path fill="none" stroke="#63b8ff" d="M316.72,-88.93C302.02,-93.31 285.56,-98.2 270.5,-102.62 261.67,-105.22 252.12,-108 243.22,-110.58"/>
<polygon fill="#63b8ff" stroke="#63b8ff" points="317.54,-92.33 326.12,-86.12 315.54,-85.63 317.54,-92.33"/>
</a>
</g>
</g>
<!-- Node6 -->
<g id="Node000006" class="node">
<title>Node6</title>
<g id="a_Node000006"><a xlink:href="../../dd/d4a/net_2http_8c.html#acf3d1429768b5d516d9ed0f10bdac072" target="_top" xlink:title=" ">
<polygon fill="white" stroke="#666666" points="251.75,-93.25 163,-93.25 163,-74 251.75,-74 251.75,-93.25"/>
<text text-anchor="middle" x="207.38" y="-79.75" font-family="Helvetica,sans-Serif" font-size="10.00">z_http2_reply_ok</text>
</a>
</g>
</g>
<!-- Node3&#45;&gt;Node6 -->
<g id="edge5_Node000003_Node000006" class="edge">
<title>Node3&#45;&gt;Node6</title>
<g id="a_edge5_Node000003_Node000006"><a xlink:title=" ">
<path fill="none" stroke="#63b8ff" d="M313.82,-78.1C294.14,-79.13 271.43,-80.32 252.14,-81.33"/>
<polygon fill="#63b8ff" stroke="#63b8ff" points="314,-81.6 323.8,-77.58 313.63,-74.61 314,-81.6"/>
</a>
</g>
</g>
<!-- Node7 -->
<g id="Node000007" class="node">
<title>Node7</title>
<g id="a_Node000007"><a xlink:href="../../dd/d4a/net_2http_8c.html#ab79164279547a8a8ff15ced069acc64d" target="_top" xlink:title=" ">
<polygon fill="white" stroke="#666666" points="260.75,-56.25 154,-56.25 154,-37 260.75,-37 260.75,-56.25"/>
<text text-anchor="middle" x="207.38" y="-42.75" font-family="Helvetica,sans-Serif" font-size="10.00">z_http2_reply_ok_big</text>
</a>
</g>
</g>
<!-- Node3&#45;&gt;Node7 -->
<g id="edge7_Node000003_Node000007" class="edge">
<title>Node3&#45;&gt;Node7</title>
<g id="a_edge7_Node000003_Node000007"><a xlink:title=" ">
<path fill="none" stroke="#63b8ff" d="M314.09,-66.7C297.3,-63.51 278.28,-59.9 261.04,-56.62"/>
<polygon fill="#63b8ff" stroke="#63b8ff" points="313.35,-70.12 323.82,-68.54 314.65,-63.24 313.35,-70.12"/>
</a>
</g>
</g>
<!-- Node5 -->
<g id="Node000005" class="node">
<title>Node5</title>
<g id="a_Node000005"><a xlink:href="../../dd/d4a/net_2http_8c.html#ad196e07d97f054b7629a5f94093340dd" target="_top" xlink:title=" ">
<polygon fill="white" stroke="#666666" points="108.25,-93.25 0,-93.25 0,-74 108.25,-74 108.25,-93.25"/>
<text text-anchor="middle" x="54.12" y="-79.75" font-family="Helvetica,sans-Serif" font-size="10.00">Z_GROUP_EXPORT</text>
</a>
</g>
</g>
<!-- Node4&#45;&gt;Node5 -->
<g id="edge4_Node000004_Node000005" class="edge">
<title>Node4&#45;&gt;Node5</title>
<g id="a_edge4_Node000004_Node000005"><a xlink:title=" ">
<path fill="none" stroke="#63b8ff" d="M153.94,-107.8C135.11,-103.19 114.16,-98.07 96.4,-93.72"/>
<polygon fill="#63b8ff" stroke="#63b8ff" points="153.03,-111.18 163.58,-110.15 154.69,-104.38 153.03,-111.18"/>
</a>
</g>
</g>
<!-- Node6&#45;&gt;Node5 -->
<g id="edge6_Node000006_Node000005" class="edge">
<title>Node6&#45;&gt;Node5</title>
<g id="a_edge6_Node000006_Node000005"><a xlink:title=" ">
<path fill="none" stroke="#63b8ff" d="M151.25,-83.62C137.38,-83.62 122.51,-83.62 108.71,-83.62"/>
<polygon fill="#63b8ff" stroke="#63b8ff" points="151.11,-87.13 161.11,-83.63 151.11,-80.13 151.11,-87.13"/>
</a>
</g>
</g>
<!-- Node7&#45;&gt;Node5 -->
<g id="edge8_Node000007_Node000005" class="edge">
<title>Node7&#45;&gt;Node5</title>
<g id="a_edge8_Node000007_Node000005"><a xlink:title=" ">
<path fill="none" stroke="#63b8ff" d="M153.94,-59.45C135.11,-64.06 114.16,-69.18 96.4,-73.53"/>
<polygon fill="#63b8ff" stroke="#63b8ff" points="154.69,-62.87 163.58,-57.1 153.03,-56.07 154.69,-62.87"/>
</a>
</g>
</g>
<!-- Node9 -->
<g id="Node000009" class="node">
<title>Node9</title>
<g id="a_Node000009"><a xlink:href="../../dd/d4a/net_2http_8c.html#ad6f99386fb518c8ba64244857b0240e1" target="_top" xlink:title=" ">
<polygon fill="white" stroke="#666666" points="261.5,-19.25 153.25,-19.25 153.25,0 261.5,0 261.5,-19.25"/>
<text text-anchor="middle" x="207.38" y="-5.75" font-family="Helvetica,sans-Serif" font-size="10.00">Z_GROUP_EXPORT</text>
</a>
</g>
</g>
<!-- Node8&#45;&gt;Node9 -->
<g id="edge10_Node000008_Node000009" class="edge">
<title>Node8&#45;&gt;Node9</title>
<g id="a_edge10_Node000008_Node000009"><a xlink:title=" ">
<path fill="none" stroke="#63b8ff" d="M295.04,-18.13C283.98,-17.05 272.63,-15.93 261.94,-14.89"/>
<polygon fill="#63b8ff" stroke="#63b8ff" points="294.61,-21.61 304.9,-19.1 295.29,-14.64 294.61,-21.61"/>
</a>
</g>
</g>
</g>
</svg>
