<?xml version="1.0" encoding="UTF-8" standalone="no"?>
<!DOCTYPE svg PUBLIC "-//W3C//DTD SVG 1.1//EN"
 "http://www.w3.org/Graphics/SVG/1.1/DTD/svg11.dtd">
<!-- Generated by graphviz version 9.0.0 (20230911.1827)
 -->
<!-- Title: sockunion_hash Pages: 1 -->
<!--zoomable 329 -->

<svg id="main" version="1.1" xmlns="http://www.w3.org/2000/svg" xmlns:xlink="http://www.w3.org/1999/xlink" xml:space="preserve" onload="init(evt)">
<style type="text/css"><![CDATA[
.node, .edge {opacity: 0.7;}
.node.selected, .edge.selected {opacity: 1;}
.edge:hover path { stroke: red; }
.edge:hover polygon { stroke: red; fill: red; }
]]></style>

<defs>
  <circle id="rim" cx="0" cy="0" r="7"/>
  <circle id="rim2" cx="0" cy="0" r="3.5"/>
  <g id="zoomPlus">
    <use xlink:href="#rim" fill="#404040"><set attributeName="fill" to="#808080" begin="zoomplus.mouseover" end="zoomplus.mouseout"/></use>
    <path d="M-4,0h8M0,-4v8" fill="none" stroke="white" stroke-width="1.5" pointer-events="none"/>
  </g>
  <g id="zoomMin">
    <use xlink:href="#rim" fill="#404040"><set attributeName="fill" to="#808080" begin="zoomminus.mouseover" end="zoomminus.mouseout"/></use>
    <path d="M-4,0h8" fill="none" stroke="white" stroke-width="1.5" pointer-events="none"/>
  </g>
  <g id="arrowUp" transform="translate(30 24)">
    <use xlink:href="#rim"/>
    <path pointer-events="none" fill="none" stroke="white" stroke-width="1.5" d="M0,-3.0v7 M-2.5,-0.5L0,-3.0L2.5,-0.5"/>
  </g>
  <g id="arrowRight" transform="rotate(90) translate(36 -43)">
    <use xlink:href="#rim"/>
    <path pointer-events="none" fill="none" stroke="white" stroke-width="1.5" d="M0,-3.0v7 M-2.5,-0.5L0,-3.0L2.5,-0.5"/>
  </g>
  <g id="arrowDown" transform="rotate(180) translate(-30 -48)">
    <use xlink:href="#rim"/>
    <path pointer-events="none" fill="none" stroke="white" stroke-width="1.5" d="M0,-3.0v7 M-2.5,-0.5L0,-3.0L2.5,-0.5"/>
  </g>
  <g id="arrowLeft" transform="rotate(270) translate(-36 17)">
    <use xlink:href="#rim"/>
    <path pointer-events="none" fill="none" stroke="white" stroke-width="1.5" d="M0,-3.0v7 M-2.5,-0.5L0,-3.0L2.5,-0.5"/>
  </g>
  <g id="resetDef">
    <use xlink:href="#rim2" fill="#404040"><set attributeName="fill" to="#808080" begin="reset.mouseover" end="reset.mouseout"/></use>
  </g>
</defs>
<script type="application/ecmascript">
var viewWidth = 1266;
var viewHeight = 329;
var sectionId = 'dynsection-15';
</script>
<script type="application/ecmascript" xlink:href="../../svg.min.js"/>
<svg id="graph" class="graph">
<g id="viewport">
<title>sockunion_hash</title>
<!-- Node1 -->
<g id="Node000001" class="node">
<title>Node1</title>
<g id="a_Node000001"><a xlink:title=" ">
<polygon fill="#999999" stroke="#666666" points="86.5,-77.25 0,-77.25 0,-58 86.5,-58 86.5,-77.25"/>
<text text-anchor="middle" x="43.25" y="-63.75" font-family="Helvetica,sans-Serif" font-size="10.00">sockunion_hash</text>
</a>
</g>
</g>
<!-- Node2 -->
<g id="Node000002" class="node">
<title>Node2</title>
<g id="a_Node000002"><a xlink:href="../../d7/df8/log_8c.html#abca342edf91a9b45f7a17ef564fa8a53" target="_top" xlink:title=" ">
<polygon fill="white" stroke="#666666" points="184.62,-208.25 134.88,-208.25 134.88,-189 184.62,-189 184.62,-208.25"/>
<text text-anchor="middle" x="159.75" y="-194.75" font-family="Helvetica,sans-Serif" font-size="10.00">e_panic</text>
</a>
</g>
</g>
<!-- Node1&#45;&gt;Node2 -->
<g id="edge1_Node000001_Node000002" class="edge">
<title>Node1&#45;&gt;Node2</title>
<g id="a_edge1_Node000001_Node000002"><a xlink:title=" ">
<path fill="none" stroke="#63b8ff" d="M52.86,-77.47C71.92,-99.28 117.97,-151.96 142.59,-180.13"/>
<polygon fill="#63b8ff" stroke="#63b8ff" points="139.83,-182.3 149.05,-187.52 145.1,-177.69 139.83,-182.3"/>
</a>
</g>
</g>
<!-- Node26 -->
<g id="Node000026" class="node">
<title>Node26</title>
<g id="a_Node000026"><a xlink:href="../../db/dfb/hash_8h.html#a309afeb1af54a9bee0eaf07b76181620" target="_top" xlink:title=" ">
<polygon fill="white" stroke="#666666" points="197,-77.25 122.5,-77.25 122.5,-58 197,-58 197,-77.25"/>
<text text-anchor="middle" x="159.75" y="-63.75" font-family="Helvetica,sans-Serif" font-size="10.00">mem_hash32</text>
</a>
</g>
</g>
<!-- Node1&#45;&gt;Node26 -->
<g id="edge30_Node000001_Node000026" class="edge">
<title>Node1&#45;&gt;Node26</title>
<g id="a_edge30_Node000001_Node000026"><a xlink:title=" ">
<path fill="none" stroke="#63b8ff" d="M86.89,-67.62C94.66,-67.62 102.82,-67.62 110.74,-67.62"/>
<polygon fill="#63b8ff" stroke="#63b8ff" points="110.58,-71.13 120.58,-67.63 110.58,-64.13 110.58,-71.13"/>
</a>
</g>
</g>
<!-- Node29 -->
<g id="Node000029" class="node">
<title>Node29</title>
<g id="a_Node000029"><a xlink:href="../../db/dfb/hash_8h.html#a7bb64eb64adc55de3deac2b42c207f5f" target="_top" xlink:title=" ">
<polygon fill="white" stroke="#666666" points="194,-40.25 125.5,-40.25 125.5,-21 194,-21 194,-40.25"/>
<text text-anchor="middle" x="159.75" y="-26.75" font-family="Helvetica,sans-Serif" font-size="10.00">u64_hash32</text>
</a>
</g>
</g>
<!-- Node1&#45;&gt;Node29 -->
<g id="edge33_Node000001_Node000029" class="edge">
<title>Node1&#45;&gt;Node29</title>
<g id="a_edge33_Node000001_Node000029"><a xlink:title=" ">
<path fill="none" stroke="#63b8ff" d="M75.54,-57.51C88.29,-53.4 103.21,-48.57 116.88,-44.16"/>
<polygon fill="#63b8ff" stroke="#63b8ff" points="117.62,-47.59 126.06,-41.19 115.47,-40.93 117.62,-47.59"/>
</a>
</g>
</g>
<!-- Node3 -->
<g id="Node000003" class="node">
<title>Node3</title>
<g id="a_Node000003"><a xlink:href="../../d7/df8/log_8c.html#a4bc04f7baa1e064cb0b93c7b9f3a61a1" target="_top" xlink:title=" ">
<polygon fill="white" stroke="#666666" points="335.25,-208.25 247.25,-208.25 247.25,-189 335.25,-189 335.25,-208.25"/>
<text text-anchor="middle" x="291.25" y="-194.75" font-family="Helvetica,sans-Serif" font-size="10.00">__logger_refresh</text>
</a>
</g>
</g>
<!-- Node2&#45;&gt;Node3 -->
<g id="edge2_Node000002_Node000003" class="edge">
<title>Node2&#45;&gt;Node3</title>
<g id="a_edge2_Node000002_Node000003"><a xlink:title=" ">
<path fill="none" stroke="#63b8ff" d="M185.11,-198.62C199.35,-198.62 217.94,-198.62 235.52,-198.62"/>
<polygon fill="#63b8ff" stroke="#63b8ff" points="235.35,-202.13 245.35,-198.63 235.35,-195.13 235.35,-202.13"/>
</a>
</g>
</g>
<!-- Node21 -->
<g id="Node000021" class="node">
<title>Node21</title>
<g id="a_Node000021"><a xlink:href="../../d7/df8/log_8c.html#a900490b26df7698aac12f7f7e6517e81" target="_top" xlink:title=" ">
<polygon fill="white" stroke="#666666" points="324,-114.25 258.5,-114.25 258.5,-95 324,-95 324,-114.25"/>
<text text-anchor="middle" x="291.25" y="-100.75" font-family="Helvetica,sans-Serif" font-size="10.00">logger_vlog</text>
</a>
</g>
</g>
<!-- Node2&#45;&gt;Node21 -->
<g id="edge24_Node000002_Node000021" class="edge">
<title>Node2&#45;&gt;Node21</title>
<g id="a_edge24_Node000002_Node000021"><a xlink:title=" ">
<path fill="none" stroke="#63b8ff" d="M174.61,-188.57C196.81,-172.45 240.57,-140.69 267.43,-121.19"/>
<polygon fill="#63b8ff" stroke="#63b8ff" points="269.23,-124.21 275.27,-115.5 265.12,-118.54 269.23,-124.21"/>
</a>
</g>
</g>
<!-- Node25 -->
<g id="Node000025" class="node">
<title>Node25</title>
<g id="a_Node000025"><a xlink:href="../../d2/d4d/file_8h.html#a25419a391fdd4ad7954699c58cfeb3b9" target="_top" xlink:title=" ">
<polygon fill="white" stroke="#666666" points="316.88,-321.25 265.62,-321.25 265.62,-302 316.88,-302 316.88,-321.25"/>
<text text-anchor="middle" x="291.25" y="-307.75" font-family="Helvetica,sans-Serif" font-size="10.00">va_start</text>
</a>
</g>
</g>
<!-- Node2&#45;&gt;Node25 -->
<g id="edge29_Node000002_Node000025" class="edge">
<title>Node2&#45;&gt;Node25</title>
<g id="a_edge29_Node000002_Node000025"><a xlink:title=" ">
<path fill="none" stroke="#63b8ff" d="M166.47,-208.52C177.33,-226.51 202.58,-264.83 233,-287.62 239.51,-292.5 247.15,-296.59 254.7,-299.92"/>
<polygon fill="#63b8ff" stroke="#63b8ff" points="253.18,-303.09 263.77,-303.58 255.8,-296.6 253.18,-303.09"/>
</a>
</g>
</g>
<!-- Node4 -->
<g id="Node000004" class="node">
<title>Node4</title>
<g id="a_Node000004"><a xlink:href="../../d7/df8/log_8c.html#a3dbd75fb614210f0b114cfd03c9c0a7b" target="_top" xlink:title=" ">
<polygon fill="white" stroke="#666666" points="489.25,-153.25 385.5,-153.25 385.5,-134 489.25,-134 489.25,-153.25"/>
<text text-anchor="middle" x="437.38" y="-139.75" font-family="Helvetica,sans-Serif" font-size="10.00">__logger_do_refresh</text>
</a>
</g>
</g>
<!-- Node3&#45;&gt;Node4 -->
<g id="edge3_Node000003_Node000004" class="edge">
<title>Node3&#45;&gt;Node4</title>
<g id="a_edge3_Node000003_Node000004"><a xlink:title=" ">
<path fill="none" stroke="#63b8ff" d="M318.68,-188.54C341.34,-179.89 374.21,-167.35 399.46,-157.71"/>
<polygon fill="#63b8ff" stroke="#63b8ff" points="400.6,-161.02 408.69,-154.19 398.1,-154.48 400.6,-161.02"/>
</a>
</g>
</g>
<!-- Node19 -->
<g id="Node000019" class="node">
<title>Node19</title>
<g id="a_Node000019"><a xlink:href="../../d7/df8/log_8c.html#a7b1b02d1986e1247c2f571af4a2c2854" target="_top" xlink:title=" ">
<polygon fill="white" stroke="#666666" points="475,-245.25 399.75,-245.25 399.75,-226 475,-226 475,-245.25"/>
<text text-anchor="middle" x="437.38" y="-231.75" font-family="Helvetica,sans-Serif" font-size="10.00">log_spin_lock</text>
</a>
</g>
</g>
<!-- Node3&#45;&gt;Node19 -->
<g id="edge22_Node000003_Node000019" class="edge">
<title>Node3&#45;&gt;Node19</title>
<g id="a_edge22_Node000003_Node000019"><a xlink:title=" ">
<path fill="none" stroke="#63b8ff" d="M331.63,-208.74C349.16,-213.24 369.97,-218.58 388.4,-223.31"/>
<polygon fill="#63b8ff" stroke="#63b8ff" points="387.49,-226.69 398.05,-225.79 389.23,-219.91 387.49,-226.69"/>
</a>
</g>
</g>
<!-- Node20 -->
<g id="Node000020" class="node">
<title>Node20</title>
<g id="a_Node000020"><a xlink:href="../../d1/dc0/group__log.html#ga045020bb4af234632f7761f220131c69" target="_top" xlink:title=" ">
<polygon fill="white" stroke="#666666" points="480.25,-208.25 394.5,-208.25 394.5,-189 480.25,-189 480.25,-208.25"/>
<text text-anchor="middle" x="437.38" y="-194.75" font-family="Helvetica,sans-Serif" font-size="10.00">log_spin_unlock</text>
</a>
</g>
</g>
<!-- Node3&#45;&gt;Node20 -->
<g id="edge23_Node000003_Node000020" class="edge">
<title>Node3&#45;&gt;Node20</title>
<g id="a_edge23_Node000003_Node000020"><a xlink:title=" ">
<path fill="none" stroke="#63b8ff" d="M335.49,-198.62C350.44,-198.62 367.36,-198.62 383.02,-198.62"/>
<polygon fill="#63b8ff" stroke="#63b8ff" points="382.64,-202.13 392.64,-198.63 382.64,-195.13 382.64,-202.13"/>
</a>
</g>
</g>
<!-- Node4&#45;&gt;Node4 -->
<g id="edge4_Node000004_Node000004" class="edge">
<title>Node4&#45;&gt;Node4</title>
<g id="a_edge4_Node000004_Node000004"><a xlink:title=" ">
<path fill="none" stroke="#63b8ff" d="M414.5,-153.54C404.06,-162.15 411.69,-171.25 437.38,-171.25 451.82,-171.25 460.56,-168.37 463.58,-164.32"/>
<polygon fill="#63b8ff" stroke="#63b8ff" points="466.99,-163.51 460.7,-154.98 460.3,-165.57 466.99,-163.51"/>
</a>
</g>
</g>
<!-- Node5 -->
<g id="Node000005" class="node">
<title>Node5</title>
<g id="a_Node000005"><a xlink:href="../../de/d1a/container-dlist_8h.html#a3b6f65860b212e28f2e28e71eb54d54d" target="_top" xlink:title="Add element e at the head of list l (suited for LIFO).">
<polygon fill="white" stroke="#666666" points="616.25,-245.25 561.25,-245.25 561.25,-226 616.25,-226 616.25,-245.25"/>
<text text-anchor="middle" x="588.75" y="-231.75" font-family="Helvetica,sans-Serif" font-size="10.00">dlist_add</text>
</a>
</g>
</g>
<!-- Node4&#45;&gt;Node5 -->
<g id="edge5_Node000004_Node000005" class="edge">
<title>Node4&#45;&gt;Node5</title>
<g id="a_edge5_Node000004_Node000005"><a xlink:title=" ">
<path fill="none" stroke="#63b8ff" d="M454.1,-153.59C464.47,-160.43 478.13,-169.99 489.25,-179.62 506.83,-194.86 505.37,-205.54 525.25,-217.62 532.76,-222.19 541.49,-225.65 549.99,-228.25"/>
<polygon fill="#63b8ff" stroke="#63b8ff" points="548.9,-231.58 559.47,-230.79 550.72,-224.82 548.9,-231.58"/>
</a>
</g>
</g>
<!-- Node7 -->
<g id="Node000007" class="node">
<title>Node7</title>
<g id="a_Node000007"><a xlink:href="../../de/d1a/container-dlist_8h.html#a0a69e401f6ec15966c891e96ad864c77" target="_top" xlink:title="Put a dlist_t element in a safe and detached state.">
<polygon fill="white" stroke="#666666" points="614.75,-132.25 562.75,-132.25 562.75,-113 614.75,-113 614.75,-132.25"/>
<text text-anchor="middle" x="588.75" y="-118.75" font-family="Helvetica,sans-Serif" font-size="10.00">dlist_init</text>
</a>
</g>
</g>
<!-- Node4&#45;&gt;Node7 -->
<g id="edge7_Node000004_Node000007" class="edge">
<title>Node4&#45;&gt;Node7</title>
<g id="a_edge7_Node000004_Node000007"><a xlink:title=" ">
<path fill="none" stroke="#63b8ff" d="M489.36,-136.46C509.7,-133.6 532.66,-130.37 551.28,-127.75"/>
<polygon fill="#63b8ff" stroke="#63b8ff" points="551.62,-131.24 561.04,-126.38 550.65,-124.31 551.62,-131.24"/>
</a>
</g>
</g>
<!-- Node8 -->
<g id="Node000008" class="node">
<title>Node8</title>
<g id="a_Node000008"><a xlink:href="../../d7/df8/log_8c.html#a4c8fbe8648573312126ce341cf34cba1" target="_top" xlink:title=" ">
<polygon fill="white" stroke="#666666" points="652.25,-95.25 525.25,-95.25 525.25,-76 652.25,-76 652.25,-95.25"/>
<text text-anchor="middle" x="588.75" y="-81.75" font-family="Helvetica,sans-Serif" font-size="10.00">logger_compute_fullname</text>
</a>
</g>
</g>
<!-- Node4&#45;&gt;Node8 -->
<g id="edge8_Node000004_Node000008" class="edge">
<title>Node4&#45;&gt;Node8</title>
<g id="a_edge8_Node000004_Node000008"><a xlink:title=" ">
<path fill="none" stroke="#63b8ff" d="M458.03,-133.54C475.4,-124.87 501.59,-112.42 525.25,-103.62 529.6,-102.01 534.16,-100.45 538.75,-98.97"/>
<polygon fill="#63b8ff" stroke="#63b8ff" points="539.47,-102.41 548,-96.11 537.41,-95.72 539.47,-102.41"/>
</a>
</g>
</g>
<!-- Node11 -->
<g id="Node000011" class="node">
<title>Node11</title>
<g id="a_Node000011"><a xlink:href="../../df/d0a/str-l_8h.html#ad74dae07179370f3c22e3f026157926e" target="_top" xlink:title="wipe a lstr_t (frees memory if needed).">
<polygon fill="white" stroke="#666666" points="759.75,-152.25 704.75,-152.25 704.75,-133 759.75,-133 759.75,-152.25"/>
<text text-anchor="middle" x="732.25" y="-138.75" font-family="Helvetica,sans-Serif" font-size="10.00">lstr_wipe</text>
</a>
</g>
</g>
<!-- Node4&#45;&gt;Node11 -->
<g id="edge21_Node000004_Node000011" class="edge">
<title>Node4&#45;&gt;Node11</title>
<g id="a_edge21_Node000004_Node000011"><a xlink:title=" ">
<path fill="none" stroke="#63b8ff" d="M489.73,-143.45C547.86,-143.25 641.24,-142.93 693.21,-142.75"/>
<polygon fill="#63b8ff" stroke="#63b8ff" points="693.06,-146.26 703.05,-142.72 693.04,-139.26 693.06,-146.26"/>
</a>
</g>
</g>
<!-- Node18 -->
<g id="Node000018" class="node">
<title>Node18</title>
<g id="a_Node000018"><a xlink:href="../../df/d0a/str-l_8h.html#a963c22b229774d4b7c106bae4011cb8e" target="_top" xlink:title="Returns whether \v s1 and \v s2 contents are equal.">
<polygon fill="white" stroke="#666666" points="617.75,-208.25 559.75,-208.25 559.75,-189 617.75,-189 617.75,-208.25"/>
<text text-anchor="middle" x="588.75" y="-194.75" font-family="Helvetica,sans-Serif" font-size="10.00">lstr_equal</text>
</a>
</g>
</g>
<!-- Node4&#45;&gt;Node18 -->
<g id="edge20_Node000004_Node000018" class="edge">
<title>Node4&#45;&gt;Node18</title>
<g id="a_edge20_Node000004_Node000018"><a xlink:title=" ">
<path fill="none" stroke="#63b8ff" d="M465.77,-153.71C489.28,-162.37 523.41,-174.94 549.59,-184.58"/>
<polygon fill="#63b8ff" stroke="#63b8ff" points="548.26,-187.81 558.85,-187.99 550.68,-181.25 548.26,-187.81"/>
</a>
</g>
</g>
<!-- Node6 -->
<g id="Node000006" class="node">
<title>Node6</title>
<g id="a_Node000006"><a xlink:href="../../de/d1a/container-dlist_8h.html#a71e7667ca0e4b896923788c5851afd24" target="_top" xlink:title="Put element e between prev and next.">
<polygon fill="white" stroke="#666666" points="765,-245.25 699.5,-245.25 699.5,-226 765,-226 765,-245.25"/>
<text text-anchor="middle" x="732.25" y="-231.75" font-family="Helvetica,sans-Serif" font-size="10.00">__dlist_add</text>
</a>
</g>
</g>
<!-- Node5&#45;&gt;Node6 -->
<g id="edge6_Node000005_Node000006" class="edge">
<title>Node5&#45;&gt;Node6</title>
<g id="a_edge6_Node000005_Node000006"><a xlink:title=" ">
<path fill="none" stroke="#63b8ff" d="M616.7,-235.62C636.8,-235.62 664.67,-235.62 687.89,-235.62"/>
<polygon fill="#63b8ff" stroke="#63b8ff" points="687.69,-239.13 697.69,-235.63 687.69,-232.13 687.69,-239.13"/>
</a>
</g>
</g>
<!-- Node9 -->
<g id="Node000009" class="node">
<title>Node9</title>
<g id="a_Node000009"><a xlink:href="../../df/d0a/str-l_8h.html#a6a200ca09358f19b13a8e297cda34869" target="_top" xlink:title="returns a constant copy of \v s.">
<polygon fill="white" stroke="#666666" points="760.12,-95.25 704.38,-95.25 704.38,-76 760.12,-76 760.12,-95.25"/>
<text text-anchor="middle" x="732.25" y="-81.75" font-family="Helvetica,sans-Serif" font-size="10.00">lstr_dupc</text>
</a>
</g>
</g>
<!-- Node8&#45;&gt;Node9 -->
<g id="edge9_Node000008_Node000009" class="edge">
<title>Node8&#45;&gt;Node9</title>
<g id="a_edge9_Node000008_Node000009"><a xlink:title=" ">
<path fill="none" stroke="#63b8ff" d="M652.64,-85.62C666.29,-85.62 680.33,-85.62 692.7,-85.62"/>
<polygon fill="#63b8ff" stroke="#63b8ff" points="692.47,-89.13 702.47,-85.63 692.47,-82.13 692.47,-89.13"/>
</a>
</g>
</g>
<!-- Node8&#45;&gt;Node11 -->
<g id="edge11_Node000008_Node000011" class="edge">
<title>Node8&#45;&gt;Node11</title>
<g id="a_edge11_Node000008_Node000011"><a xlink:title=" ">
<path fill="none" stroke="#63b8ff" d="M628.78,-95.7C636.64,-98.06 644.77,-100.73 652.25,-103.62 669.58,-110.34 688.26,-119.46 703.1,-127.2"/>
<polygon fill="#63b8ff" stroke="#63b8ff" points="701.34,-130.23 711.81,-131.82 704.62,-124.05 701.34,-130.23"/>
</a>
</g>
</g>
<!-- Node10 -->
<g id="Node000010" class="node">
<title>Node10</title>
<g id="a_Node000010"><a xlink:href="../../df/d0a/str-l_8h.html#a3b4dbe9c4cc70340cba0787574dc1c5e" target="_top" xlink:title=" ">
<polygon fill="white" stroke="#666666" points="1089.75,-131.25 1037,-131.25 1037,-112 1089.75,-112 1089.75,-131.25"/>
<text text-anchor="middle" x="1063.38" y="-117.75" font-family="Helvetica,sans-Serif" font-size="10.00">lstr_init_</text>
</a>
</g>
</g>
<!-- Node9&#45;&gt;Node10 -->
<g id="edge10_Node000009_Node000010" class="edge">
<title>Node9&#45;&gt;Node10</title>
<g id="a_edge10_Node000009_Node000010"><a xlink:title=" ">
<path fill="none" stroke="#63b8ff" d="M760.46,-88.6C819.31,-95.04 958.44,-110.26 1025.28,-117.57"/>
<polygon fill="#63b8ff" stroke="#63b8ff" points="1024.68,-121.02 1035,-118.63 1025.44,-114.06 1024.68,-121.02"/>
</a>
</g>
</g>
<!-- Node12 -->
<g id="Node000012" class="node">
<title>Node12</title>
<g id="a_Node000012"><a xlink:href="../../df/d0a/str-l_8h.html#a381cd831ac9616c5bea8213bb679d1ac" target="_top" xlink:title="Wipe a lstr_t (frees memory if needed).">
<polygon fill="white" stroke="#666666" points="886,-152.25 812.25,-152.25 812.25,-133 886,-133 886,-152.25"/>
<text text-anchor="middle" x="849.12" y="-138.75" font-family="Helvetica,sans-Serif" font-size="10.00">mp_lstr_wipe</text>
</a>
</g>
</g>
<!-- Node11&#45;&gt;Node12 -->
<g id="edge12_Node000011_Node000012" class="edge">
<title>Node11&#45;&gt;Node12</title>
<g id="a_edge12_Node000011_Node000012"><a xlink:title=" ">
<path fill="none" stroke="#63b8ff" d="M760.18,-142.62C772.2,-142.62 786.73,-142.62 800.49,-142.62"/>
<polygon fill="#63b8ff" stroke="#63b8ff" points="800.28,-146.13 810.28,-142.63 800.28,-139.13 800.28,-146.13"/>
</a>
</g>
</g>
<!-- Node13 -->
<g id="Node000013" class="node">
<title>Node13</title>
<g id="a_Node000013"><a xlink:href="../../de/d04/str-l_8c.html#abe2a3a71f0b4dbc7d37c59d16762b6fb" target="_top" xlink:title="lstr_copy_* helper.">
<polygon fill="white" stroke="#666666" points="1001,-152.25 922,-152.25 922,-133 1001,-133 1001,-152.25"/>
<text text-anchor="middle" x="961.5" y="-138.75" font-family="Helvetica,sans-Serif" font-size="10.00">mp_lstr_copy_</text>
</a>
</g>
</g>
<!-- Node12&#45;&gt;Node13 -->
<g id="edge13_Node000012_Node000013" class="edge">
<title>Node12&#45;&gt;Node13</title>
<g id="a_edge13_Node000012_Node000013"><a xlink:title=" ">
<path fill="none" stroke="#63b8ff" d="M886.27,-142.62C893.96,-142.62 902.21,-142.62 910.32,-142.62"/>
<polygon fill="#63b8ff" stroke="#63b8ff" points="910.1,-146.13 920.1,-142.63 910.1,-139.13 910.1,-146.13"/>
</a>
</g>
</g>
<!-- Node13&#45;&gt;Node10 -->
<g id="edge19_Node000013_Node000010" class="edge">
<title>Node13&#45;&gt;Node10</title>
<g id="a_edge19_Node000013_Node000010"><a xlink:title=" ">
<path fill="none" stroke="#63b8ff" d="M1001.4,-134.45C1009.35,-132.77 1017.69,-131.02 1025.56,-129.37"/>
<polygon fill="#63b8ff" stroke="#63b8ff" points="1026.12,-132.83 1035.18,-127.34 1024.68,-125.98 1026.12,-132.83"/>
</a>
</g>
</g>
<!-- Node14 -->
<g id="Node000014" class="node">
<title>Node14</title>
<g id="a_Node000014"><a xlink:href="../../d9/d9a/mem_8h.html#aebbbd277e2952bdb802104671ba23ba9" target="_top" xlink:title=" ">
<polygon fill="white" stroke="#666666" points="1080.75,-173.25 1046,-173.25 1046,-154 1080.75,-154 1080.75,-173.25"/>
<text text-anchor="middle" x="1063.38" y="-159.75" font-family="Helvetica,sans-Serif" font-size="10.00">ifree</text>
</a>
</g>
</g>
<!-- Node13&#45;&gt;Node14 -->
<g id="edge14_Node000013_Node000014" class="edge">
<title>Node13&#45;&gt;Node14</title>
<g id="a_edge14_Node000013_Node000014"><a xlink:title=" ">
<path fill="none" stroke="#63b8ff" d="M1001.4,-150.8C1012.42,-153.12 1024.2,-155.6 1034.44,-157.75"/>
<polygon fill="#63b8ff" stroke="#63b8ff" points="1033.62,-161.16 1044.13,-159.79 1035.06,-154.31 1033.62,-161.16"/>
</a>
</g>
</g>
<!-- Node15 -->
<g id="Node000015" class="node">
<title>Node15</title>
<g id="a_Node000015"><a xlink:href="../../d8/d37/mem_8blk.html#a36b65ab346f1d0deed7b63c544c78f2b" target="_top" xlink:title=" ">
<polygon fill="white" stroke="#666666" points="1170.62,-248.25 1134.38,-248.25 1134.38,-229 1170.62,-229 1170.62,-248.25"/>
<text text-anchor="middle" x="1152.5" y="-234.75" font-family="Helvetica,sans-Serif" font-size="10.00">ipool</text>
</a>
</g>
</g>
<!-- Node14&#45;&gt;Node15 -->
<g id="edge15_Node000014_Node000015" class="edge">
<title>Node14&#45;&gt;Node15</title>
<g id="a_edge15_Node000014_Node000015"><a xlink:title=" ">
<path fill="none" stroke="#63b8ff" d="M1076.13,-173.74C1090.23,-185.88 1114.13,-206.46 1131.24,-221.18"/>
<polygon fill="#63b8ff" stroke="#63b8ff" points="1128.93,-223.81 1138.79,-227.68 1133.49,-218.51 1128.93,-223.81"/>
</a>
</g>
</g>
<!-- Node17 -->
<g id="Node000017" class="node">
<title>Node17</title>
<g id="a_Node000017"><a xlink:href="../../d8/d37/mem_8blk.html#a83c7cf203e5eef9d1a8c6c43cde3e2e5" target="_top" xlink:title=" ">
<polygon fill="white" stroke="#666666" points="1179.25,-173.25 1125.75,-173.25 1125.75,-154 1179.25,-154 1179.25,-173.25"/>
<text text-anchor="middle" x="1152.5" y="-159.75" font-family="Helvetica,sans-Serif" font-size="10.00">mp_ifree</text>
</a>
</g>
</g>
<!-- Node14&#45;&gt;Node17 -->
<g id="edge18_Node000014_Node000017" class="edge">
<title>Node14&#45;&gt;Node17</title>
<g id="a_edge18_Node000014_Node000017"><a xlink:title=" ">
<path fill="none" stroke="#63b8ff" d="M1081.17,-163.62C1090.59,-163.62 1102.74,-163.62 1114.28,-163.62"/>
<polygon fill="#63b8ff" stroke="#63b8ff" points="1113.98,-167.13 1123.98,-163.63 1113.98,-160.13 1113.98,-167.13"/>
</a>
</g>
</g>
<!-- Node15&#45;&gt;Node2 -->
<g id="edge16_Node000015_Node000002" class="edge">
<title>Node15&#45;&gt;Node2</title>
<g id="a_edge16_Node000015_Node000002"><a xlink:title=" ">
<path fill="none" stroke="#63b8ff" d="M1133.98,-244.09C1100.85,-253.94 1026.57,-273.62 962.5,-273.62 436.38,-273.62 436.38,-273.62 436.38,-273.62 345.36,-273.62 243.18,-235.08 192.62,-213.25"/>
<polygon fill="#63b8ff" stroke="#63b8ff" points="194.3,-210.17 183.74,-209.35 191.49,-216.58 194.3,-210.17"/>
</a>
</g>
</g>
<!-- Node16 -->
<g id="Node000016" class="node">
<title>Node16</title>
<g id="a_Node000016"><a xlink:href="../../d1/d10/mem-stack_8h.html#a1d0e2a29f86dc033a02e50484b527fd0" target="_top" xlink:title=" ">
<polygon fill="white" stroke="#666666" points="1257.5,-248.25 1215.25,-248.25 1215.25,-229 1257.5,-229 1257.5,-248.25"/>
<text text-anchor="middle" x="1236.38" y="-234.75" font-family="Helvetica,sans-Serif" font-size="10.00">t_pool</text>
</a>
</g>
</g>
<!-- Node15&#45;&gt;Node16 -->
<g id="edge17_Node000015_Node000016" class="edge">
<title>Node15&#45;&gt;Node16</title>
<g id="a_edge17_Node000015_Node000016"><a xlink:title=" ">
<path fill="none" stroke="#63b8ff" d="M1170.86,-238.62C1180.31,-238.62 1192.29,-238.62 1203.36,-238.62"/>
<polygon fill="#63b8ff" stroke="#63b8ff" points="1203.34,-242.13 1213.34,-238.63 1203.34,-235.13 1203.34,-242.13"/>
</a>
</g>
</g>
<!-- Node21&#45;&gt;Node9 -->
<g id="edge28_Node000021_Node000009" class="edge">
<title>Node21&#45;&gt;Node9</title>
<g id="a_edge28_Node000021_Node000009"><a xlink:title=" ">
<path fill="none" stroke="#63b8ff" d="M324.06,-96.49C386.86,-81.49 531.17,-52.27 652.25,-66.62 665.79,-68.23 680.37,-71.33 693.28,-74.57"/>
<polygon fill="#63b8ff" stroke="#63b8ff" points="692.09,-77.88 702.65,-77.04 693.87,-71.11 692.09,-77.88"/>
</a>
</g>
</g>
<!-- Node22 -->
<g id="Node000022" class="node">
<title>Node22</title>
<g id="a_Node000022"><a xlink:href="../../d1/dc0/group__log.html#ga168a6f17b248f61f7d25a17d58d04e36" target="_top" xlink:title=" ">
<polygon fill="white" stroke="#666666" points="481.75,-19.25 393,-19.25 393,0 481.75,0 481.75,-19.25"/>
<text text-anchor="middle" x="437.38" y="-5.75" font-family="Helvetica,sans-Serif" font-size="10.00">logger_has_level</text>
</a>
</g>
</g>
<!-- Node21&#45;&gt;Node22 -->
<g id="edge25_Node000021_Node000022" class="edge">
<title>Node21&#45;&gt;Node22</title>
<g id="a_edge25_Node000021_Node000022"><a xlink:title=" ">
<path fill="none" stroke="#63b8ff" d="M324.35,-98.61C333.08,-95.93 342.14,-92.1 349.5,-86.62 372.35,-69.63 363.86,-52.13 385.5,-33.62 389.32,-30.36 393.66,-27.44 398.15,-24.85"/>
<polygon fill="#63b8ff" stroke="#63b8ff" points="399.47,-28.11 406.76,-20.42 396.27,-21.89 399.47,-28.11"/>
</a>
</g>
</g>
<!-- Node23 -->
<g id="Node000023" class="node">
<title>Node23</title>
<g id="a_Node000023"><a xlink:href="../../d1/dc0/group__log.html#gaf388752b988541da0abeceecdf96e6b3" target="_top" xlink:title=" ">
<polygon fill="white" stroke="#666666" points="632,-19.25 545.5,-19.25 545.5,0 632,0 632,-19.25"/>
<text text-anchor="middle" x="588.75" y="-5.75" font-family="Helvetica,sans-Serif" font-size="10.00">logger_get_level</text>
</a>
</g>
</g>
<!-- Node22&#45;&gt;Node23 -->
<g id="edge26_Node000022_Node000023" class="edge">
<title>Node22&#45;&gt;Node23</title>
<g id="a_edge26_Node000022_Node000023"><a xlink:title=" ">
<path fill="none" stroke="#63b8ff" d="M481.98,-9.62C498.14,-9.62 516.67,-9.62 533.65,-9.62"/>
<polygon fill="#63b8ff" stroke="#63b8ff" points="533.61,-13.13 543.61,-9.63 533.61,-6.13 533.61,-13.13"/>
</a>
</g>
</g>
<!-- Node24 -->
<g id="Node000024" class="node">
<title>Node24</title>
<g id="a_Node000024"><a xlink:href="../../d1/dc0/group__log.html#ga93cbd623096e1704532d15b3eb30e42f" target="_top" xlink:title=" ">
<polygon fill="white" stroke="#666666" points="776.25,-19.25 688.25,-19.25 688.25,0 776.25,0 776.25,-19.25"/>
<text text-anchor="middle" x="732.25" y="-5.75" font-family="Helvetica,sans-Serif" font-size="10.00">__logger_refresh</text>
</a>
</g>
</g>
<!-- Node23&#45;&gt;Node24 -->
<g id="edge27_Node000023_Node000024" class="edge">
<title>Node23&#45;&gt;Node24</title>
<g id="a_edge27_Node000023_Node000024"><a xlink:title=" ">
<path fill="none" stroke="#63b8ff" d="M632.2,-9.62C646.08,-9.62 661.69,-9.62 676.35,-9.62"/>
<polygon fill="#63b8ff" stroke="#63b8ff" points="676.33,-13.13 686.33,-9.63 676.33,-6.13 676.33,-13.13"/>
</a>
</g>
</g>
<!-- Node27 -->
<g id="Node000027" class="node">
<title>Node27</title>
<g id="a_Node000027"><a xlink:href="../../db/dfb/hash_8h.html#ae313ac121123e502b7e8bd66a29c97f3" target="_top" xlink:title=" ">
<polygon fill="white" stroke="#666666" points="327.75,-77.25 254.75,-77.25 254.75,-58 327.75,-58 327.75,-77.25"/>
<text text-anchor="middle" x="291.25" y="-63.75" font-family="Helvetica,sans-Serif" font-size="10.00">jenkins_hash</text>
</a>
</g>
</g>
<!-- Node26&#45;&gt;Node27 -->
<g id="edge31_Node000026_Node000027" class="edge">
<title>Node26&#45;&gt;Node27</title>
<g id="a_edge31_Node000026_Node000027"><a xlink:title=" ">
<path fill="none" stroke="#63b8ff" d="M197.17,-67.62C211.48,-67.62 228.08,-67.62 243.27,-67.62"/>
<polygon fill="#63b8ff" stroke="#63b8ff" points="243.04,-71.13 253.04,-67.63 243.04,-64.13 243.04,-71.13"/>
</a>
</g>
</g>
<!-- Node28 -->
<g id="Node000028" class="node">
<title>Node28</title>
<g id="a_Node000028"><a xlink:href="../../db/dfb/hash_8h.html#ad4523c08bce7033ac91a443a1c26c5b8" target="_top" xlink:title=" ">
<polygon fill="white" stroke="#666666" points="349.5,-40.25 233,-40.25 233,-21 349.5,-21 349.5,-40.25"/>
<text text-anchor="middle" x="291.25" y="-26.75" font-family="Helvetica,sans-Serif" font-size="10.00">murmur_hash3_x86_32</text>
</a>
</g>
</g>
<!-- Node26&#45;&gt;Node28 -->
<g id="edge32_Node000026_Node000028" class="edge">
<title>Node26&#45;&gt;Node28</title>
<g id="a_edge32_Node000026_Node000028"><a xlink:title=" ">
<path fill="none" stroke="#63b8ff" d="M196.14,-57.51C210.98,-53.27 228.44,-48.28 244.27,-43.76"/>
<polygon fill="#63b8ff" stroke="#63b8ff" points="244.8,-47.25 253.45,-41.14 242.87,-40.52 244.8,-47.25"/>
</a>
</g>
</g>
</g>
</svg>

<g id="navigator" transform="translate(0 0)" fill="#404254">
  <rect fill="#f2f5e9" fill-opacity="0.5" stroke="#606060" stroke-width=".5" x="0" y="0" width="60" height="60"/>
  <use id="zoomplus" xlink:href="#zoomPlus" x="17" y="9" onmousedown="handleZoom(evt,'in')"/>
  <use id="zoomminus" xlink:href="#zoomMin" x="42" y="9" onmousedown="handleZoom(evt,'out')"/>
  <use id="reset" xlink:href="#resetDef" x="30" y="36" onmousedown="handleReset()"/>
   <use id="arrowup" xlink:href="#arrowUp" x="0" y="0" onmousedown="handlePan(0,-1)"/>
  <use id="arrowright" xlink:href="#arrowRight" x="0" y="0" onmousedown="handlePan(1,0)"/>
  <use id="arrowdown" xlink:href="#arrowDown" x="0" y="0" onmousedown="handlePan(0,1)"/>
  <use id="arrowleft" xlink:href="#arrowLeft" x="0" y="0" onmousedown="handlePan(-1,0)"/>
</g>
<svg viewBox="0 0 15 15" width="100%" height="30px" preserveAspectRatio="xMaxYMin meet">
 <g id="arrow_out" transform="scale(0.3 0.3)">
  <a xlink:href="addr_8c_acca8f2769f98fd0367c752334939f80f_cgraph_org.svg" target="_base">
   <rect id="button" ry="5" rx="5" y="6" x="6" height="38" width="38"
        fill="#f2f5e9" fill-opacity="0.5" stroke="#606060" stroke-width="1.0"/>
   <path id="arrow"
     d="M 11.500037,31.436501 C 11.940474,20.09759 22.043105,11.32322 32.158766,21.979434 L 37.068811,17.246167 C 37.068811,17.246167 37.088388,32 37.088388,32 L 22.160133,31.978069 C 22.160133,31.978069 26.997745,27.140456 26.997745,27.140456 C 18.528582,18.264221 13.291696,25.230495 11.500037,31.436501 z"
     style="fill:#404040;"/>
  </a>
 </g>
</svg>

<style type='text/css'>
<![CDATA[
[data-mouse-over-selected='false'] { opacity: 0.7; }
[data-mouse-over-selected='true']  { opacity: 1.0; }
]]>
</style>
<script type="application/ecmascript"><![CDATA[
document.addEventListener('DOMContentLoaded', (event) => {
  highlightEdges();
  highlightAdjacentNodes();
});
]]></script>
</svg>
