<?xml version="1.0" encoding="UTF-8" standalone="no"?>
<!DOCTYPE svg PUBLIC "-//W3C//DTD SVG 1.1//EN"
 "http://www.w3.org/Graphics/SVG/1.1/DTD/svg11.dtd">
<!-- Generated by graphviz version 9.0.0 (20230911.1827)
 -->
<!-- Title: write_string Pages: 1 -->
<svg width="1318pt" height="178pt"
 viewBox="0.00 0.00 1317.75 178.25" xmlns="http://www.w3.org/2000/svg" xmlns:xlink="http://www.w3.org/1999/xlink">
<g id="graph0" class="graph" transform="scale(1 1) rotate(0) translate(4 174.25)">
<title>write_string</title>
<!-- Node1 -->
<g id="Node000001" class="node">
<title>Node1</title>
<g id="a_Node000001"><a xlink:title=" ">
<polygon fill="#999999" stroke="#666666" points="1309.75,-102.25 1243.5,-102.25 1243.5,-83 1309.75,-83 1309.75,-102.25"/>
<text text-anchor="middle" x="1276.62" y="-88.75" font-family="Helvetica,sans-Serif" font-size="10.00">write_string</text>
</a>
</g>
</g>
<!-- Node2 -->
<g id="Node000002" class="node">
<title>Node2</title>
<g id="a_Node000002"><a xlink:href="../../d1/dd5/iopc-lang-json_8blk.html#ab1a008cbdf04df40e1b5d14ffd9c5615" target="_top" xlink:title=" ">
<polygon fill="white" stroke="#666666" points="1207.5,-166.88 1093.25,-166.88 1093.25,-136.38 1207.5,-136.38 1207.5,-166.88"/>
<text text-anchor="start" x="1101.25" y="-153.38" font-family="Helvetica,sans-Serif" font-size="10.00">dump_constraint_multi</text>
<text text-anchor="middle" x="1150.38" y="-142.12" font-family="Helvetica,sans-Serif" font-size="10.00">_token</text>
</a>
</g>
</g>
<!-- Node1&#45;&gt;Node2 -->
<g id="edge1_Node000001_Node000002" class="edge">
<title>Node1&#45;&gt;Node2</title>
<g id="a_edge1_Node000001_Node000002"><a xlink:title=" ">
<path fill="none" stroke="#63b8ff" d="M1244.38,-107.46C1226.04,-116.17 1202.88,-127.17 1184.27,-136.01"/>
<polygon fill="#63b8ff" stroke="#63b8ff" points="1245.65,-110.73 1253.18,-103.28 1242.65,-104.41 1245.65,-110.73"/>
</a>
</g>
</g>
<!-- Node14 -->
<g id="Node000014" class="node">
<title>Node14</title>
<g id="a_Node000014"><a xlink:href="../../d1/dd5/iopc-lang-json_8blk.html#a48dbd3e24f3b7686170bb3b7c3130d14" target="_top" xlink:title=" ">
<polygon fill="white" stroke="#666666" points="1204.12,-102.25 1096.62,-102.25 1096.62,-83 1204.12,-83 1204.12,-102.25"/>
<text text-anchor="middle" x="1150.38" y="-88.75" font-family="Helvetica,sans-Serif" font-size="10.00">dump_key_val_string</text>
</a>
</g>
</g>
<!-- Node1&#45;&gt;Node14 -->
<g id="edge14_Node000001_Node000014" class="edge">
<title>Node1&#45;&gt;Node14</title>
<g id="a_edge14_Node000001_Node000014"><a xlink:title=" ">
<path fill="none" stroke="#63b8ff" d="M1231.93,-92.62C1222.98,-92.62 1213.46,-92.62 1204.23,-92.62"/>
<polygon fill="#63b8ff" stroke="#63b8ff" points="1231.79,-96.13 1241.79,-92.63 1231.79,-89.13 1231.79,-96.13"/>
</a>
</g>
</g>
<!-- Node18 -->
<g id="Node000018" class="node">
<title>Node18</title>
<g id="a_Node000018"><a xlink:href="../../d1/dd5/iopc-lang-json_8blk.html#a539c4a126f8c496ce13b873d273951ef" target="_top" xlink:title=" ">
<polygon fill="white" stroke="#666666" points="759,-19.25 643.25,-19.25 643.25,0 759,0 759,-19.25"/>
<text text-anchor="middle" x="701.12" y="-5.75" font-family="Helvetica,sans-Serif" font-size="10.00">iopc_enum_dump_json</text>
</a>
</g>
</g>
<!-- Node1&#45;&gt;Node18 -->
<g id="edge26_Node000001_Node000018" class="edge">
<title>Node1&#45;&gt;Node18</title>
<g id="a_edge26_Node000001_Node000018"><a xlink:title=" ">
<path fill="none" stroke="#63b8ff" d="M1238.08,-78.72C1195.06,-63.48 1122.13,-39.71 1057.25,-28.62 953.33,-10.86 830.05,-8.34 759.47,-8.63"/>
<polygon fill="#63b8ff" stroke="#63b8ff" points="1236.85,-82 1247.44,-82.08 1239.21,-75.41 1236.85,-82"/>
</a>
</g>
</g>
<!-- Node3 -->
<g id="Node000003" class="node">
<title>Node3</title>
<g id="a_Node000003"><a xlink:href="../../d1/dd5/iopc-lang-json_8blk.html#aa875f532a2f74182e73b978f02303860" target="_top" xlink:title=" ">
<polygon fill="white" stroke="#666666" points="1047.88,-170.25 959.88,-170.25 959.88,-151 1047.88,-151 1047.88,-170.25"/>
<text text-anchor="middle" x="1003.88" y="-156.75" font-family="Helvetica,sans-Serif" font-size="10.00">dump_constraint</text>
</a>
</g>
</g>
<!-- Node2&#45;&gt;Node3 -->
<g id="edge2_Node000002_Node000003" class="edge">
<title>Node2&#45;&gt;Node3</title>
<g id="a_edge2_Node000002_Node000003"><a xlink:title=" ">
<path fill="none" stroke="#63b8ff" d="M1081.78,-155.83C1070.38,-156.55 1058.82,-157.27 1048.25,-157.92"/>
<polygon fill="#63b8ff" stroke="#63b8ff" points="1081.82,-159.34 1091.58,-155.22 1081.38,-152.35 1081.82,-159.34"/>
</a>
</g>
</g>
<!-- Node4 -->
<g id="Node000004" class="node">
<title>Node4</title>
<g id="a_Node000004"><a xlink:href="../../d1/dd5/iopc-lang-json_8blk.html#ab7df1310d29f28723a7ca15d7d8a280f" target="_top" xlink:title=" ">
<polygon fill="white" stroke="#666666" points="914.5,-169.25 798.75,-169.25 798.75,-150 914.5,-150 914.5,-169.25"/>
<text text-anchor="middle" x="856.62" y="-155.75" font-family="Helvetica,sans-Serif" font-size="10.00">dump_field_constraints</text>
</a>
</g>
</g>
<!-- Node3&#45;&gt;Node4 -->
<g id="edge3_Node000003_Node000004" class="edge">
<title>Node3&#45;&gt;Node4</title>
<g id="a_edge3_Node000003_Node000004"><a xlink:title=" ">
<path fill="none" stroke="#63b8ff" d="M948.52,-160.25C937.54,-160.18 925.98,-160.1 914.91,-160.02"/>
<polygon fill="#63b8ff" stroke="#63b8ff" points="948.15,-163.75 958.17,-160.32 948.2,-156.75 948.15,-163.75"/>
</a>
</g>
</g>
<!-- Node5 -->
<g id="Node000005" class="node">
<title>Node5</title>
<g id="a_Node000005"><a xlink:href="../../d1/dd5/iopc-lang-json_8blk.html#a2c5f8857105485fc95b65e9c94ceb13c" target="_top" xlink:title=" ">
<polygon fill="white" stroke="#666666" points="735,-132.25 667.25,-132.25 667.25,-113 735,-113 735,-132.25"/>
<text text-anchor="middle" x="701.12" y="-118.75" font-family="Helvetica,sans-Serif" font-size="10.00">dump_fields</text>
</a>
</g>
</g>
<!-- Node4&#45;&gt;Node5 -->
<g id="edge4_Node000004_Node000005" class="edge">
<title>Node4&#45;&gt;Node5</title>
<g id="a_edge4_Node000004_Node000005"><a xlink:title=" ">
<path fill="none" stroke="#63b8ff" d="M802.64,-146.85C780.27,-141.46 754.92,-135.35 735.27,-130.61"/>
<polygon fill="#63b8ff" stroke="#63b8ff" points="801.67,-150.22 812.21,-149.16 803.31,-143.41 801.67,-150.22"/>
</a>
</g>
</g>
<!-- Node13 -->
<g id="Node000013" class="node">
<title>Node13</title>
<g id="a_Node000013"><a xlink:href="../../d1/dd5/iopc-lang-json_8blk.html#a094926b09500faaa85a1560069f7156f" target="_top" xlink:title=" ">
<polygon fill="white" stroke="#666666" points="762.75,-169.25 639.5,-169.25 639.5,-150 762.75,-150 762.75,-169.25"/>
<text text-anchor="middle" x="701.12" y="-155.75" font-family="Helvetica,sans-Serif" font-size="10.00">iopc_typedef_dump_json</text>
</a>
</g>
</g>
<!-- Node4&#45;&gt;Node13 -->
<g id="edge12_Node000004_Node000013" class="edge">
<title>Node4&#45;&gt;Node13</title>
<g id="a_edge12_Node000004_Node000013"><a xlink:title=" ">
<path fill="none" stroke="#63b8ff" d="M786.98,-159.62C779.05,-159.62 771.01,-159.62 763.19,-159.62"/>
<polygon fill="#63b8ff" stroke="#63b8ff" points="786.95,-163.13 796.95,-159.63 786.95,-156.13 786.95,-163.13"/>
</a>
</g>
</g>
<!-- Node6 -->
<g id="Node000006" class="node">
<title>Node6</title>
<g id="a_Node000006"><a xlink:href="../../d1/dd5/iopc-lang-json_8blk.html#a38555745eff583974171cef9fbef04be" target="_top" xlink:title=" ">
<polygon fill="white" stroke="#666666" points="603.5,-126.25 487,-126.25 487,-107 603.5,-107 603.5,-126.25"/>
<text text-anchor="middle" x="545.25" y="-112.75" font-family="Helvetica,sans-Serif" font-size="10.00">iopc_struct_dump_json</text>
</a>
</g>
</g>
<!-- Node5&#45;&gt;Node6 -->
<g id="edge5_Node000005_Node000006" class="edge">
<title>Node5&#45;&gt;Node6</title>
<g id="a_edge5_Node000005_Node000006"><a xlink:title=" ">
<path fill="none" stroke="#63b8ff" d="M655.77,-120.9C639.55,-120.26 620.95,-119.54 603.75,-118.87"/>
<polygon fill="#63b8ff" stroke="#63b8ff" points="655.47,-124.39 665.6,-121.28 655.75,-117.39 655.47,-124.39"/>
</a>
</g>
</g>
<!-- Node7 -->
<g id="Node000007" class="node">
<title>Node7</title>
<g id="a_Node000007"><a xlink:href="../../d1/dd5/iopc-lang-json_8blk.html#ac7d24ac041986ce73d342490de96d8c2" target="_top" xlink:title=" ">
<polygon fill="white" stroke="#666666" points="451,-131.88 345,-131.88 345,-101.38 451,-101.38 451,-131.88"/>
<text text-anchor="start" x="353" y="-118.38" font-family="Helvetica,sans-Serif" font-size="10.00">iopc_fun_struct_type</text>
<text text-anchor="middle" x="398" y="-107.12" font-family="Helvetica,sans-Serif" font-size="10.00">_dump_json</text>
</a>
</g>
</g>
<!-- Node6&#45;&gt;Node7 -->
<g id="edge6_Node000006_Node000007" class="edge">
<title>Node6&#45;&gt;Node7</title>
<g id="a_edge6_Node000006_Node000007"><a xlink:title=" ">
<path fill="none" stroke="#63b8ff" d="M475.44,-116.62C467.31,-116.62 459.12,-116.62 451.27,-116.62"/>
<polygon fill="#63b8ff" stroke="#63b8ff" points="475.33,-120.13 485.33,-116.63 475.33,-113.13 475.33,-120.13"/>
</a>
</g>
</g>
<!-- Node8 -->
<g id="Node000008" class="node">
<title>Node8</title>
<g id="a_Node000008"><a xlink:href="../../d1/dd5/iopc-lang-json_8blk.html#a8a4b1df162c58694d95d4378d5d85d42" target="_top" xlink:title=" ">
<polygon fill="white" stroke="#666666" points="309,-147.25 236,-147.25 236,-128 309,-128 309,-147.25"/>
<text text-anchor="middle" x="272.5" y="-133.75" font-family="Helvetica,sans-Serif" font-size="10.00">iopc_do_json</text>
</a>
</g>
</g>
<!-- Node7&#45;&gt;Node8 -->
<g id="edge7_Node000007_Node000008" class="edge">
<title>Node7&#45;&gt;Node8</title>
<g id="a_edge7_Node000007_Node000008"><a xlink:title=" ">
<path fill="none" stroke="#63b8ff" d="M333.32,-127.45C325.02,-128.87 316.75,-130.27 309.14,-131.56"/>
<polygon fill="#63b8ff" stroke="#63b8ff" points="333.86,-130.91 343.13,-125.78 332.69,-124.01 333.86,-130.91"/>
</a>
</g>
</g>
<!-- Node9 -->
<g id="Node000009" class="node">
<title>Node9</title>
<g id="a_Node000009"><a xlink:href="../../df/d1f/iopc_8c.html#a693d2e305d9102c8dd03b6bd0bf61111" target="_top" xlink:title=" ">
<polygon fill="white" stroke="#666666" points="200,-166.25 116.5,-166.25 116.5,-147 200,-147 200,-166.25"/>
<text text-anchor="middle" x="158.25" y="-152.75" font-family="Helvetica,sans-Serif" font-size="10.00">build_doit_table</text>
</a>
</g>
</g>
<!-- Node8&#45;&gt;Node9 -->
<g id="edge8_Node000008_Node000009" class="edge">
<title>Node8&#45;&gt;Node9</title>
<g id="a_edge8_Node000008_Node000009"><a xlink:title=" ">
<path fill="none" stroke="#63b8ff" d="M224.51,-145.58C216.43,-146.95 208.1,-148.36 200.2,-149.69"/>
<polygon fill="#63b8ff" stroke="#63b8ff" points="224.91,-149.06 234.18,-143.94 223.74,-142.16 224.91,-149.06"/>
</a>
</g>
</g>
<!-- Node11 -->
<g id="Node000011" class="node">
<title>Node11</title>
<g id="a_Node000011"><a xlink:href="../../db/d07/iopc-dso_8c.html#a95a19b847fb352eb92b539cf3495f093" target="_top" xlink:title=" ">
<polygon fill="white" stroke="#666666" points="188,-129.25 128.5,-129.25 128.5,-110 188,-110 188,-129.25"/>
<text text-anchor="middle" x="158.25" y="-115.75" font-family="Helvetica,sans-Serif" font-size="10.00">iopc_build</text>
</a>
</g>
</g>
<!-- Node8&#45;&gt;Node11 -->
<g id="edge10_Node000008_Node000011" class="edge">
<title>Node8&#45;&gt;Node11</title>
<g id="a_edge10_Node000008_Node000011"><a xlink:title=" ">
<path fill="none" stroke="#63b8ff" d="M224.63,-130.11C212.33,-128.14 199.43,-126.07 188.37,-124.29"/>
<polygon fill="#63b8ff" stroke="#63b8ff" points="223.75,-133.51 234.18,-131.64 224.86,-126.6 223.75,-133.51"/>
</a>
</g>
</g>
<!-- Node10 -->
<g id="Node000010" class="node">
<title>Node10</title>
<g id="a_Node000010"><a xlink:href="../../df/d1f/iopc_8c.html#a3c04138a5bfe5d72780bb7e82a18e627" target="_top" xlink:title=" ">
<polygon fill="white" stroke="#666666" points="58.75,-166.25 21.75,-166.25 21.75,-147 58.75,-147 58.75,-166.25"/>
<text text-anchor="middle" x="40.25" y="-152.75" font-family="Helvetica,sans-Serif" font-size="10.00">main</text>
</a>
</g>
</g>
<!-- Node9&#45;&gt;Node10 -->
<g id="edge9_Node000009_Node000010" class="edge">
<title>Node9&#45;&gt;Node10</title>
<g id="a_edge9_Node000009_Node000010"><a xlink:title=" ">
<path fill="none" stroke="#63b8ff" d="M104.81,-156.62C88.37,-156.62 71.34,-156.62 59.05,-156.62"/>
<polygon fill="#63b8ff" stroke="#63b8ff" points="104.51,-160.13 114.51,-156.63 104.51,-153.13 104.51,-160.13"/>
</a>
</g>
</g>
<!-- Node12 -->
<g id="Node000012" class="node">
<title>Node12</title>
<g id="a_Node000012"><a xlink:href="../../db/d07/iopc-dso_8c.html#ab2da67841232fab2872190ddabd94a81" target="_top" xlink:title="Build an IOP DSO.">
<polygon fill="white" stroke="#666666" points="80.5,-129.25 0,-129.25 0,-110 80.5,-110 80.5,-129.25"/>
<text text-anchor="middle" x="40.25" y="-115.75" font-family="Helvetica,sans-Serif" font-size="10.00">iopc_dso_build</text>
</a>
</g>
</g>
<!-- Node11&#45;&gt;Node12 -->
<g id="edge11_Node000011_Node000012" class="edge">
<title>Node11&#45;&gt;Node12</title>
<g id="a_edge11_Node000011_Node000012"><a xlink:title=" ">
<path fill="none" stroke="#63b8ff" d="M116.99,-119.62C105.26,-119.62 92.46,-119.62 80.78,-119.62"/>
<polygon fill="#63b8ff" stroke="#63b8ff" points="116.76,-123.13 126.76,-119.63 116.76,-116.13 116.76,-123.13"/>
</a>
</g>
</g>
<!-- Node13&#45;&gt;Node8 -->
<g id="edge13_Node000013_Node000008" class="edge">
<title>Node13&#45;&gt;Node8</title>
<g id="a_edge13_Node000013_Node000008"><a xlink:title=" ">
<path fill="none" stroke="#63b8ff" d="M627.52,-155.88C535.2,-151.12 379.42,-143.09 309.44,-139.48"/>
<polygon fill="#63b8ff" stroke="#63b8ff" points="627.32,-159.38 637.49,-156.39 627.68,-152.38 627.32,-159.38"/>
</a>
</g>
</g>
<!-- Node14&#45;&gt;Node3 -->
<g id="edge15_Node000014_Node000003" class="edge">
<title>Node14&#45;&gt;Node3</title>
<g id="a_edge15_Node000014_Node000003"><a xlink:title=" ">
<path fill="none" stroke="#63b8ff" d="M1118.43,-107.56C1100.58,-116.13 1077.69,-127.06 1057.25,-136.62 1047.38,-141.25 1036.41,-146.28 1027.08,-150.54"/>
<polygon fill="#63b8ff" stroke="#63b8ff" points="1119.71,-110.83 1127.2,-103.34 1116.67,-104.52 1119.71,-110.83"/>
</a>
</g>
</g>
<!-- Node15 -->
<g id="Node000015" class="node">
<title>Node15</title>
<g id="a_Node000015"><a xlink:href="../../d1/dd5/iopc-lang-json_8blk.html#a64855c0e61f9ea28647a813a1a81a426" target="_top" xlink:title=" ">
<polygon fill="white" stroke="#666666" points="892.38,-132.25 820.88,-132.25 820.88,-113 892.38,-113 892.38,-132.25"/>
<text text-anchor="middle" x="856.62" y="-118.75" font-family="Helvetica,sans-Serif" font-size="10.00">dump_defval</text>
</a>
</g>
</g>
<!-- Node14&#45;&gt;Node15 -->
<g id="edge16_Node000014_Node000015" class="edge">
<title>Node14&#45;&gt;Node15</title>
<g id="a_edge16_Node000014_Node000015"><a xlink:title=" ">
<path fill="none" stroke="#63b8ff" d="M1085.05,-100.5C1075.73,-101.59 1066.25,-102.66 1057.25,-103.62 999.62,-109.81 932.51,-115.99 892.63,-119.55"/>
<polygon fill="#63b8ff" stroke="#63b8ff" points="1085.27,-104 1094.8,-99.36 1084.46,-97.05 1085.27,-104"/>
</a>
</g>
</g>
<!-- Node16 -->
<g id="Node000016" class="node">
<title>Node16</title>
<g id="a_Node000016"><a xlink:href="../../d1/dd5/iopc-lang-json_8blk.html#aa8c4e47d84200a49bd1a45a936687370" target="_top" xlink:title=" ">
<polygon fill="white" stroke="#666666" points="1044.12,-57.25 963.62,-57.25 963.62,-38 1044.12,-38 1044.12,-57.25"/>
<text text-anchor="middle" x="1003.88" y="-43.75" font-family="Helvetica,sans-Serif" font-size="10.00">dump_gen_attr</text>
</a>
</g>
</g>
<!-- Node14&#45;&gt;Node16 -->
<g id="edge18_Node000014_Node000016" class="edge">
<title>Node14&#45;&gt;Node16</title>
<g id="a_edge18_Node000014_Node000016"><a xlink:title=" ">
<path fill="none" stroke="#63b8ff" d="M1106.15,-79.16C1084.02,-72.27 1057.53,-64.02 1037.2,-57.69"/>
<polygon fill="#63b8ff" stroke="#63b8ff" points="1104.91,-82.44 1115.5,-82.08 1106.99,-75.76 1104.91,-82.44"/>
</a>
</g>
</g>
<!-- Node20 -->
<g id="Node000020" class="node">
<title>Node20</title>
<g id="a_Node000020"><a xlink:href="../../d1/dd5/iopc-lang-json_8blk.html#a0d10153c2344b864fa3bebd2bd581730" target="_top" xlink:title=" ">
<polygon fill="white" stroke="#666666" points="1057.25,-94.25 950.5,-94.25 950.5,-75 1057.25,-75 1057.25,-94.25"/>
<text text-anchor="middle" x="1003.88" y="-80.75" font-family="Helvetica,sans-Serif" font-size="10.00">iopc_dox_dump_json</text>
</a>
</g>
</g>
<!-- Node14&#45;&gt;Node20 -->
<g id="edge25_Node000014_Node000020" class="edge">
<title>Node14&#45;&gt;Node20</title>
<g id="a_edge25_Node000014_Node000020"><a xlink:title=" ">
<path fill="none" stroke="#63b8ff" d="M1085.18,-89.07C1075.88,-88.56 1066.4,-88.03 1057.37,-87.53"/>
<polygon fill="#63b8ff" stroke="#63b8ff" points="1084.7,-92.55 1094.88,-89.61 1085.09,-85.56 1084.7,-92.55"/>
</a>
</g>
</g>
<!-- Node15&#45;&gt;Node5 -->
<g id="edge17_Node000015_Node000005" class="edge">
<title>Node15&#45;&gt;Node5</title>
<g id="a_edge17_Node000015_Node000005"><a xlink:title=" ">
<path fill="none" stroke="#63b8ff" d="M809.15,-122.62C785.34,-122.62 756.91,-122.62 735.34,-122.62"/>
<polygon fill="#63b8ff" stroke="#63b8ff" points="808.9,-126.13 818.9,-122.63 808.9,-119.13 808.9,-126.13"/>
</a>
</g>
</g>
<!-- Node17 -->
<g id="Node000017" class="node">
<title>Node17</title>
<g id="a_Node000017"><a xlink:href="../../d1/dd5/iopc-lang-json_8blk.html#a922d72d880579977bc86d0d7efbe297e" target="_top" xlink:title=" ">
<polygon fill="white" stroke="#666666" points="899.5,-57.25 813.75,-57.25 813.75,-38 899.5,-38 899.5,-57.25"/>
<text text-anchor="middle" x="856.62" y="-43.75" font-family="Helvetica,sans-Serif" font-size="10.00">dump_gen_attrs</text>
</a>
</g>
</g>
<!-- Node16&#45;&gt;Node17 -->
<g id="edge19_Node000016_Node000017" class="edge">
<title>Node16&#45;&gt;Node17</title>
<g id="a_edge19_Node000016_Node000017"><a xlink:title=" ">
<path fill="none" stroke="#63b8ff" d="M951.75,-47.62C934.76,-47.62 916.04,-47.62 899.81,-47.62"/>
<polygon fill="#63b8ff" stroke="#63b8ff" points="951.67,-51.13 961.67,-47.63 951.67,-44.13 951.67,-51.13"/>
</a>
</g>
</g>
<!-- Node17&#45;&gt;Node5 -->
<g id="edge20_Node000017_Node000005" class="edge">
<title>Node17&#45;&gt;Node5</title>
<g id="a_edge20_Node000017_Node000005"><a xlink:title=" ">
<path fill="none" stroke="#63b8ff" d="M832.56,-64.15C814.32,-76.62 787.82,-93.44 762.75,-104.62 754.13,-108.47 744.46,-111.76 735.41,-114.44"/>
<polygon fill="#63b8ff" stroke="#63b8ff" points="834.34,-67.18 840.55,-58.59 830.34,-61.43 834.34,-67.18"/>
</a>
</g>
</g>
<!-- Node17&#45;&gt;Node6 -->
<g id="edge23_Node000017_Node000006" class="edge">
<title>Node17&#45;&gt;Node6</title>
<g id="a_edge23_Node000017_Node000006"><a xlink:title=" ">
<path fill="none" stroke="#63b8ff" d="M801.84,-46.4C757.42,-46.79 693.18,-50.61 639.5,-66.62 609.58,-75.55 578.27,-94.67 560.62,-106.51"/>
<polygon fill="#63b8ff" stroke="#63b8ff" points="801.75,-49.9 811.74,-46.38 801.73,-42.9 801.75,-49.9"/>
</a>
</g>
</g>
<!-- Node17&#45;&gt;Node13 -->
<g id="edge24_Node000017_Node000013" class="edge">
<title>Node17&#45;&gt;Node13</title>
<g id="a_edge24_Node000017_Node000013"><a xlink:title=" ">
<path fill="none" stroke="#63b8ff" d="M837.28,-65.38C826.05,-76.31 811.46,-90.67 798.75,-103.62 782.46,-120.23 782.58,-129.45 762.75,-141.62 757.6,-144.78 751.87,-147.42 746.04,-149.6"/>
<polygon fill="#63b8ff" stroke="#63b8ff" points="839.63,-67.97 844.37,-58.49 834.75,-62.95 839.63,-67.97"/>
</a>
</g>
</g>
<!-- Node17&#45;&gt;Node18 -->
<g id="edge21_Node000017_Node000018" class="edge">
<title>Node17&#45;&gt;Node18</title>
<g id="a_edge21_Node000017_Node000018"><a xlink:title=" ">
<path fill="none" stroke="#63b8ff" d="M803.82,-34.8C783.91,-29.87 761.49,-24.32 742.78,-19.69"/>
<polygon fill="#63b8ff" stroke="#63b8ff" points="802.88,-38.17 813.42,-37.18 804.56,-31.38 802.88,-38.17"/>
</a>
</g>
</g>
<!-- Node19 -->
<g id="Node000019" class="node">
<title>Node19</title>
<g id="a_Node000019"><a xlink:href="../../d1/dd5/iopc-lang-json_8blk.html#ae7f168dfbb317f0e26765718338fae9b" target="_top" xlink:title=" ">
<polygon fill="white" stroke="#666666" points="757.5,-95.25 644.75,-95.25 644.75,-76 757.5,-76 757.5,-95.25"/>
<text text-anchor="middle" x="701.12" y="-81.75" font-family="Helvetica,sans-Serif" font-size="10.00">iopc_iface_dump_json</text>
</a>
</g>
</g>
<!-- Node17&#45;&gt;Node19 -->
<g id="edge22_Node000017_Node000019" class="edge">
<title>Node17&#45;&gt;Node19</title>
<g id="a_edge22_Node000017_Node000019"><a xlink:title=" ">
<path fill="none" stroke="#63b8ff" d="M803.82,-60.45C783.91,-65.38 761.49,-70.93 742.78,-75.56"/>
<polygon fill="#63b8ff" stroke="#63b8ff" points="804.56,-63.87 813.42,-58.07 802.88,-57.08 804.56,-63.87"/>
</a>
</g>
</g>
</g>
</svg>
