<?xml version="1.0" encoding="UTF-8" standalone="no"?>
<!DOCTYPE svg PUBLIC "-//W3C//DTD SVG 1.1//EN"
 "http://www.w3.org/Graphics/SVG/1.1/DTD/svg11.dtd">
<!-- Generated by graphviz version 9.0.0 (20230911.1827)
 -->
<!-- Title: write_field_scalar_attr Pages: 1 -->
<svg width="1930pt" height="591pt"
 viewBox="0.00 0.00 1929.75 590.53" xmlns="http://www.w3.org/2000/svg" xmlns:xlink="http://www.w3.org/1999/xlink">
<g id="graph0" class="graph" transform="scale(1 1) rotate(0) translate(4 586.53)">
<title>write_field_scalar_attr</title>
<!-- Node1 -->
<g id="Node000001" class="node">
<title>Node1</title>
<g id="a_Node000001"><a xlink:title=" ">
<polygon fill="#999999" stroke="#666666" points="110.5,-285.62 0,-285.62 0,-266.38 110.5,-266.38 110.5,-285.62"/>
<text text-anchor="middle" x="55.25" y="-272.12" font-family="Helvetica,sans-Serif" font-size="10.00">write_field_scalar_attr</text>
</a>
</g>
</g>
<!-- Node2 -->
<g id="Node000002" class="node">
<title>Node2</title>
<g id="a_Node000002"><a xlink:href="../../d3/d7b/iopc-lang-c_8blk.html#a7199dac76414b513c03d4e8657ee7c25" target="_top" xlink:title=" ">
<polygon fill="white" stroke="#666666" points="255.5,-304.62 146.5,-304.62 146.5,-285.38 255.5,-285.38 255.5,-304.62"/>
<text text-anchor="middle" x="201" y="-291.12" font-family="Helvetica,sans-Serif" font-size="10.00">iopc_field_get_signed</text>
</a>
</g>
</g>
<!-- Node1&#45;&gt;Node2 -->
<g id="edge1_Node000001_Node000002" class="edge">
<title>Node1&#45;&gt;Node2</title>
<g id="a_edge1_Node000001_Node000002"><a xlink:title=" ">
<path fill="none" stroke="#63b8ff" d="M110.6,-283.18C118.49,-284.23 126.68,-285.31 134.75,-286.38"/>
<polygon fill="#63b8ff" stroke="#63b8ff" points="134.18,-289.83 144.55,-287.67 135.1,-282.89 134.18,-289.83"/>
</a>
</g>
</g>
<!-- Node3 -->
<g id="Node000003" class="node">
<title>Node3</title>
<g id="a_Node000003"><a xlink:href="../../d4/d02/str-buf_8c.html#afb6af3b66bb89dd7790246497d4e4d04" target="_top" xlink:title=" ">
<polygon fill="white" stroke="#666666" points="226.25,-267.62 175.75,-267.62 175.75,-248.38 226.25,-248.38 226.25,-267.62"/>
<text text-anchor="middle" x="201" y="-254.12" font-family="Helvetica,sans-Serif" font-size="10.00">sb_addf</text>
</a>
</g>
</g>
<!-- Node1&#45;&gt;Node3 -->
<g id="edge2_Node000001_Node000003" class="edge">
<title>Node1&#45;&gt;Node3</title>
<g id="a_edge2_Node000001_Node000003"><a xlink:title=" ">
<path fill="none" stroke="#63b8ff" d="M110.6,-269.19C128.51,-266.95 147.97,-264.51 164.15,-262.49"/>
<polygon fill="#63b8ff" stroke="#63b8ff" points="164.29,-266 173.78,-261.28 163.42,-259.05 164.29,-266"/>
</a>
</g>
</g>
<!-- Node4 -->
<g id="Node000004" class="node">
<title>Node4</title>
<g id="a_Node000004"><a xlink:href="../../d4/d02/str-buf_8c.html#a69ef1f90a740762a1a93dbfdb5af7fbe" target="_top" xlink:title=" ">
<polygon fill="white" stroke="#666666" points="347.25,-341.62 291.5,-341.62 291.5,-322.38 347.25,-322.38 347.25,-341.62"/>
<text text-anchor="middle" x="319.38" y="-328.12" font-family="Helvetica,sans-Serif" font-size="10.00">sb_addvf</text>
</a>
</g>
</g>
<!-- Node3&#45;&gt;Node4 -->
<g id="edge3_Node000003_Node000004" class="edge">
<title>Node3&#45;&gt;Node4</title>
<g id="a_edge3_Node000003_Node000004"><a xlink:title=" ">
<path fill="none" stroke="#63b8ff" d="M226.59,-264.01C236,-266.88 246.6,-270.83 255.5,-276 273,-286.16 289.95,-301.7 301.84,-313.84"/>
<polygon fill="#63b8ff" stroke="#63b8ff" points="299.07,-316 308.49,-320.85 304.15,-311.19 299.07,-316"/>
</a>
</g>
</g>
<!-- Node46 -->
<g id="Node000046" class="node">
<title>Node46</title>
<g id="a_Node000046"><a xlink:href="../../d2/d4d/file_8h.html#a25419a391fdd4ad7954699c58cfeb3b9" target="_top" xlink:title=" ">
<polygon fill="white" stroke="#666666" points="1420.12,-231.62 1368.88,-231.62 1368.88,-212.38 1420.12,-212.38 1420.12,-231.62"/>
<text text-anchor="middle" x="1394.5" y="-218.12" font-family="Helvetica,sans-Serif" font-size="10.00">va_start</text>
</a>
</g>
</g>
<!-- Node3&#45;&gt;Node46 -->
<g id="edge60_Node000003_Node000046" class="edge">
<title>Node3&#45;&gt;Node46</title>
<g id="a_edge60_Node000003_Node000046"><a xlink:title=" ">
<path fill="none" stroke="#63b8ff" d="M204.77,-247.89C218.52,-200.19 284.02,0 415,0 415,0 415,0 1178.62,0 1290.06,0 1362.14,-146.21 1385.36,-201.32"/>
<polygon fill="#63b8ff" stroke="#63b8ff" points="1382.08,-202.55 1389.1,-210.48 1388.56,-199.9 1382.08,-202.55"/>
</a>
</g>
</g>
<!-- Node61 -->
<g id="Node000061" class="node">
<title>Node61</title>
<g id="a_Node000061"><a xlink:href="../../d2/d4d/file_8h.html#aa694120a0e2e1e38b7bebb913a0fe88e" target="_top" xlink:title=" ">
<polygon fill="white" stroke="#666666" points="439.75,-267.62 392.25,-267.62 392.25,-248.38 439.75,-248.38 439.75,-267.62"/>
<text text-anchor="middle" x="416" y="-254.12" font-family="Helvetica,sans-Serif" font-size="10.00">va_end</text>
</a>
</g>
</g>
<!-- Node3&#45;&gt;Node61 -->
<g id="edge59_Node000003_Node000061" class="edge">
<title>Node3&#45;&gt;Node61</title>
<g id="a_edge59_Node000003_Node000061"><a xlink:title=" ">
<path fill="none" stroke="#63b8ff" d="M226.43,-258C264.29,-258 337.25,-258 380.47,-258"/>
<polygon fill="#63b8ff" stroke="#63b8ff" points="380.31,-261.5 390.31,-258 380.31,-254.5 380.31,-261.5"/>
</a>
</g>
</g>
<!-- Node5 -->
<g id="Node000005" class="node">
<title>Node5</title>
<g id="a_Node000005"><a xlink:href="../../dc/d31/str-buf_8h.html#a5019d1298a6a5b4f8ae0b645bb8bc627" target="_top" xlink:title=" ">
<polygon fill="white" stroke="#666666" points="548.75,-380.62 484.75,-380.62 484.75,-361.38 548.75,-361.38 548.75,-380.62"/>
<text text-anchor="middle" x="516.75" y="-367.12" font-family="Helvetica,sans-Serif" font-size="10.00">__sb_fixlen</text>
</a>
</g>
</g>
<!-- Node4&#45;&gt;Node5 -->
<g id="edge4_Node000004_Node000005" class="edge">
<title>Node4&#45;&gt;Node5</title>
<g id="a_edge4_Node000004_Node000005"><a xlink:title=" ">
<path fill="none" stroke="#63b8ff" d="M347.69,-341.19C358.65,-344.63 371.46,-348.34 383.25,-351 412.97,-357.7 446.95,-362.78 473.06,-366.14"/>
<polygon fill="#63b8ff" stroke="#63b8ff" points="472.6,-369.61 482.96,-367.38 473.47,-362.66 472.6,-369.61"/>
</a>
</g>
</g>
<!-- Node7 -->
<g id="Node000007" class="node">
<title>Node7</title>
<g id="a_Node000007"><a xlink:href="../../dd/d5b/str-iprintf_8c.html#ae025de8d462e446841348cd71254064e" target="_top" xlink:title=" ">
<polygon fill="white" stroke="#666666" points="443.88,-341.62 388.12,-341.62 388.12,-322.38 443.88,-322.38 443.88,-341.62"/>
<text text-anchor="middle" x="416" y="-328.12" font-family="Helvetica,sans-Serif" font-size="10.00">ivsnprintf</text>
</a>
</g>
</g>
<!-- Node4&#45;&gt;Node7 -->
<g id="edge6_Node000004_Node000007" class="edge">
<title>Node4&#45;&gt;Node7</title>
<g id="a_edge6_Node000004_Node000007"><a xlink:title=" ">
<path fill="none" stroke="#63b8ff" d="M347.74,-332C356.67,-332 366.75,-332 376.35,-332"/>
<polygon fill="#63b8ff" stroke="#63b8ff" points="376.18,-335.5 386.18,-332 376.18,-328.5 376.18,-335.5"/>
</a>
</g>
</g>
<!-- Node19 -->
<g id="Node000019" class="node">
<title>Node19</title>
<g id="a_Node000019"><a xlink:href="../../dc/d31/str-buf_8h.html#a102279333d8b7438c3fdb0896fd08bd8" target="_top" xlink:title=" ">
<polygon fill="white" stroke="#666666" points="442,-304.62 390,-304.62 390,-285.38 442,-285.38 442,-304.62"/>
<text text-anchor="middle" x="416" y="-291.12" font-family="Helvetica,sans-Serif" font-size="10.00">sb_avail</text>
</a>
</g>
</g>
<!-- Node4&#45;&gt;Node19 -->
<g id="edge18_Node000004_Node000019" class="edge">
<title>Node4&#45;&gt;Node19</title>
<g id="a_edge18_Node000004_Node000019"><a xlink:title=" ">
<path fill="none" stroke="#63b8ff" d="M346.23,-321.89C356.33,-317.94 368.08,-313.35 378.98,-309.09"/>
<polygon fill="#63b8ff" stroke="#63b8ff" points="380.05,-312.42 388.09,-305.52 377.5,-305.9 380.05,-312.42"/>
</a>
</g>
</g>
<!-- Node20 -->
<g id="Node000020" class="node">
<title>Node20</title>
<g id="a_Node000020"><a xlink:href="../../dc/d31/str-buf_8h.html#acd3f1b7a3fde32b199cf24fdb133b4ce" target="_top" xlink:title=" ">
<polygon fill="white" stroke="#666666" points="540.5,-455.62 493,-455.62 493,-436.38 540.5,-436.38 540.5,-455.62"/>
<text text-anchor="middle" x="516.75" y="-442.12" font-family="Helvetica,sans-Serif" font-size="10.00">sb_end</text>
</a>
</g>
</g>
<!-- Node4&#45;&gt;Node20 -->
<g id="edge19_Node000004_Node000020" class="edge">
<title>Node4&#45;&gt;Node20</title>
<g id="a_edge19_Node000004_Node000020"><a xlink:title=" ">
<path fill="none" stroke="#63b8ff" d="M323.83,-342.1C331.24,-362.05 350.66,-406.37 383.25,-427 412.63,-445.6 452.93,-448.94 481.35,-448.52"/>
<polygon fill="#63b8ff" stroke="#63b8ff" points="481.34,-452.02 491.22,-448.19 481.11,-445.02 481.34,-452.02"/>
</a>
</g>
</g>
<!-- Node21 -->
<g id="Node000021" class="node">
<title>Node21</title>
<g id="a_Node000021"><a xlink:href="../../dc/d31/str-buf_8h.html#a69537528c954fce98e3d2cb92232ffe8" target="_top" xlink:title=" ">
<polygon fill="white" stroke="#666666" points="448.75,-417.62 383.25,-417.62 383.25,-398.38 448.75,-398.38 448.75,-417.62"/>
<text text-anchor="middle" x="416" y="-404.12" font-family="Helvetica,sans-Serif" font-size="10.00">sb_growlen</text>
</a>
</g>
</g>
<!-- Node4&#45;&gt;Node21 -->
<g id="edge20_Node000004_Node000021" class="edge">
<title>Node4&#45;&gt;Node21</title>
<g id="a_edge20_Node000004_Node000021"><a xlink:title=" ">
<path fill="none" stroke="#63b8ff" d="M331.84,-341.74C344.35,-352.3 365.03,-369.59 383.25,-384 386.23,-386.36 389.4,-388.81 392.53,-391.21"/>
<polygon fill="#63b8ff" stroke="#63b8ff" points="390.32,-393.93 400.41,-397.17 394.55,-388.35 390.32,-393.93"/>
</a>
</g>
</g>
<!-- Node4&#45;&gt;Node61 -->
<g id="edge58_Node000004_Node000061" class="edge">
<title>Node4&#45;&gt;Node61</title>
<g id="a_edge58_Node000004_Node000061"><a xlink:title=" ">
<path fill="none" stroke="#63b8ff" d="M330.06,-322.19C341.95,-310.42 363.05,-290.47 383.25,-276 384.23,-275.3 385.24,-274.6 386.27,-273.91"/>
<polygon fill="#63b8ff" stroke="#63b8ff" points="387.84,-277.06 394.5,-268.82 384.16,-271.1 387.84,-277.06"/>
</a>
</g>
</g>
<!-- Node6 -->
<g id="Node000006" class="node">
<title>Node6</title>
<g id="a_Node000006"><a xlink:href="../../dc/d31/str-buf_8h.html#a01c1a4f8ed76b6a919595b803c7d7376" target="_top" xlink:title=" ">
<polygon fill="white" stroke="#666666" points="679.12,-380.62 594.88,-380.62 594.88,-361.38 679.12,-361.38 679.12,-380.62"/>
<text text-anchor="middle" x="637" y="-367.12" font-family="Helvetica,sans-Serif" font-size="10.00">sb_set_trailing0</text>
</a>
</g>
</g>
<!-- Node5&#45;&gt;Node6 -->
<g id="edge5_Node000005_Node000006" class="edge">
<title>Node5&#45;&gt;Node6</title>
<g id="a_edge5_Node000005_Node000006"><a xlink:title=" ">
<path fill="none" stroke="#63b8ff" d="M549.13,-371C559.6,-371 571.57,-371 583.2,-371"/>
<polygon fill="#63b8ff" stroke="#63b8ff" points="583.15,-374.5 593.15,-371 583.15,-367.5 583.15,-374.5"/>
</a>
</g>
</g>
<!-- Node8 -->
<g id="Node000008" class="node">
<title>Node8</title>
<g id="a_Node000008"><a xlink:href="../../dd/d5b/str-iprintf_8c.html#a86edb100b724e785592b84eaf4b565c5" target="_top" xlink:title=" ">
<polygon fill="white" stroke="#666666" points="548,-214.62 485.5,-214.62 485.5,-195.38 548,-195.38 548,-214.62"/>
<text text-anchor="middle" x="516.75" y="-201.12" font-family="Helvetica,sans-Serif" font-size="10.00">fmt_output</text>
</a>
</g>
</g>
<!-- Node7&#45;&gt;Node8 -->
<g id="edge7_Node000007_Node000008" class="edge">
<title>Node7&#45;&gt;Node8</title>
<g id="a_edge7_Node000007_Node000008"><a xlink:title=" ">
<path fill="none" stroke="#63b8ff" d="M438.2,-321.98C441.96,-319.67 445.65,-316.99 448.75,-314 475.68,-288 496.19,-249 507.06,-225.38"/>
<polygon fill="#63b8ff" stroke="#63b8ff" points="510.26,-226.8 511.12,-216.24 503.86,-223.96 510.26,-226.8"/>
</a>
</g>
</g>
<!-- Node9 -->
<g id="Node000009" class="node">
<title>Node9</title>
<g id="a_Node000009"><a xlink:href="../../dd/d5b/str-iprintf_8c.html#a4a403b71d8f1e07cdb47dae4915d49b9" target="_top" xlink:title=" ">
<polygon fill="white" stroke="#666666" points="674.25,-269.62 599.75,-269.62 599.75,-250.38 674.25,-250.38 674.25,-269.62"/>
<text text-anchor="middle" x="637" y="-256.12" font-family="Helvetica,sans-Serif" font-size="10.00">convert_int10</text>
</a>
</g>
</g>
<!-- Node8&#45;&gt;Node9 -->
<g id="edge8_Node000008_Node000009" class="edge">
<title>Node8&#45;&gt;Node9</title>
<g id="a_edge8_Node000008_Node000009"><a xlink:title=" ">
<path fill="none" stroke="#63b8ff" d="M534.15,-215.07C547.48,-223 566.92,-234.01 584.75,-242 587.74,-243.34 590.85,-244.64 594.01,-245.9"/>
<polygon fill="#63b8ff" stroke="#63b8ff" points="592.77,-249.17 603.36,-249.43 595.24,-242.62 592.77,-249.17"/>
</a>
</g>
</g>
<!-- Node10 -->
<g id="Node000010" class="node">
<title>Node10</title>
<g id="a_Node000010"><a xlink:href="../../dd/d5b/str-iprintf_8c.html#a447933b7890ca600f312634ccef28540" target="_top" xlink:title=" ">
<polygon fill="white" stroke="#666666" points="688.88,-232.62 585.12,-232.62 585.12,-213.38 688.88,-213.38 688.88,-232.62"/>
<text text-anchor="middle" x="637" y="-219.12" font-family="Helvetica,sans-Serif" font-size="10.00">convert_quoted_uint</text>
</a>
</g>
</g>
<!-- Node8&#45;&gt;Node10 -->
<g id="edge9_Node000008_Node000010" class="edge">
<title>Node8&#45;&gt;Node10</title>
<g id="a_edge9_Node000008_Node000010"><a xlink:title=" ">
<path fill="none" stroke="#63b8ff" d="M548.2,-209.64C556.09,-210.84 564.88,-212.17 573.77,-213.53"/>
<polygon fill="#63b8ff" stroke="#63b8ff" points="573.1,-216.97 583.51,-215.01 574.15,-210.05 573.1,-216.97"/>
</a>
</g>
</g>
<!-- Node11 -->
<g id="Node000011" class="node">
<title>Node11</title>
<g id="a_Node000011"><a xlink:href="../../dd/d5b/str-iprintf_8c.html#abf630e253d9cde6fc2160e5a79269bf7" target="_top" xlink:title=" ">
<polygon fill="white" stroke="#666666" points="671.62,-195.62 602.38,-195.62 602.38,-176.38 671.62,-176.38 671.62,-195.62"/>
<text text-anchor="middle" x="637" y="-182.12" font-family="Helvetica,sans-Serif" font-size="10.00">convert_uint</text>
</a>
</g>
</g>
<!-- Node8&#45;&gt;Node11 -->
<g id="edge10_Node000008_Node000011" class="edge">
<title>Node8&#45;&gt;Node11</title>
<g id="a_edge10_Node000008_Node000011"><a xlink:title=" ">
<path fill="none" stroke="#63b8ff" d="M548.2,-200.11C561.16,-198.02 576.55,-195.55 590.79,-193.26"/>
<polygon fill="#63b8ff" stroke="#63b8ff" points="591.08,-196.76 600.4,-191.72 589.97,-189.85 591.08,-196.76"/>
</a>
</g>
</g>
<!-- Node12 -->
<g id="Node000012" class="node">
<title>Node12</title>
<g id="a_Node000012"><a xlink:href="../../dd/d5b/str-iprintf_8c.html#a149dbd88166dd707291eb48f86809116" target="_top" xlink:title=" ">
<polygon fill="white" stroke="#666666" points="676.88,-158.62 597.12,-158.62 597.12,-139.38 676.88,-139.38 676.88,-158.62"/>
<text text-anchor="middle" x="637" y="-145.12" font-family="Helvetica,sans-Serif" font-size="10.00">convert_uint32</text>
</a>
</g>
</g>
<!-- Node8&#45;&gt;Node12 -->
<g id="edge11_Node000008_Node000012" class="edge">
<title>Node8&#45;&gt;Node12</title>
<g id="a_edge11_Node000008_Node000012"><a xlink:title=" ">
<path fill="none" stroke="#63b8ff" d="M533.57,-194.96C546.89,-186.77 566.61,-175.25 584.75,-167 587.69,-165.66 590.76,-164.36 593.87,-163.11"/>
<polygon fill="#63b8ff" stroke="#63b8ff" points="594.97,-166.44 603.07,-159.61 592.48,-159.9 594.97,-166.44"/>
</a>
</g>
</g>
<!-- Node13 -->
<g id="Node000013" class="node">
<title>Node13</title>
<g id="a_Node000013"><a xlink:href="../../dd/d5b/str-iprintf_8c.html#a22d81a1ea399cd1123d75552ca6436f9" target="_top" xlink:title=" ">
<polygon fill="white" stroke="#666666" points="676.88,-121.62 597.12,-121.62 597.12,-102.38 676.88,-102.38 676.88,-121.62"/>
<text text-anchor="middle" x="637" y="-108.12" font-family="Helvetica,sans-Serif" font-size="10.00">convert_uint64</text>
</a>
</g>
</g>
<!-- Node8&#45;&gt;Node13 -->
<g id="edge12_Node000008_Node000013" class="edge">
<title>Node8&#45;&gt;Node13</title>
<g id="a_edge12_Node000008_Node000013"><a xlink:title=" ">
<path fill="none" stroke="#63b8ff" d="M524.16,-195.04C534.87,-179.13 557.91,-147.96 584.75,-130 586.34,-128.94 588,-127.93 589.71,-126.97"/>
<polygon fill="#63b8ff" stroke="#63b8ff" points="591.02,-130.22 598.51,-122.73 587.98,-123.92 591.02,-130.22"/>
</a>
</g>
</g>
<!-- Node14 -->
<g id="Node000014" class="node">
<title>Node14</title>
<g id="a_Node000014"><a xlink:href="../../dd/d5b/str-iprintf_8c.html#a63813b3275ab6c84540a718634617315" target="_top" xlink:title=" ">
<polygon fill="white" stroke="#666666" points="651.75,-84.62 622.25,-84.62 622.25,-65.38 651.75,-65.38 651.75,-84.62"/>
<text text-anchor="middle" x="637" y="-71.12" font-family="Helvetica,sans-Serif" font-size="10.00">cvt</text>
</a>
</g>
</g>
<!-- Node8&#45;&gt;Node14 -->
<g id="edge13_Node000008_Node000014" class="edge">
<title>Node8&#45;&gt;Node14</title>
<g id="a_edge13_Node000008_Node000014"><a xlink:title=" ">
<path fill="none" stroke="#63b8ff" d="M521.04,-195.06C528.71,-173.38 549.82,-121.52 584.75,-93 592.27,-86.86 602.02,-82.75 611,-80.03"/>
<polygon fill="#63b8ff" stroke="#63b8ff" points="611.81,-83.43 620.64,-77.57 610.08,-76.65 611.81,-83.43"/>
</a>
</g>
</g>
<!-- Node15 -->
<g id="Node000015" class="node">
<title>Node15</title>
<g id="a_Node000015"><a xlink:href="../../dd/d5b/str-iprintf_8c.html#a4d97bad725d98d86ca70da65686742b6" target="_top" xlink:title=" ">
<polygon fill="white" stroke="#666666" points="664.5,-47.62 609.5,-47.62 609.5,-28.38 664.5,-28.38 664.5,-47.62"/>
<text text-anchor="middle" x="637" y="-34.12" font-family="Helvetica,sans-Serif" font-size="10.00">exponent</text>
</a>
</g>
</g>
<!-- Node8&#45;&gt;Node15 -->
<g id="edge14_Node000008_Node000015" class="edge">
<title>Node8&#45;&gt;Node15</title>
<g id="a_edge14_Node000008_Node000015"><a xlink:title=" ">
<path fill="none" stroke="#63b8ff" d="M519.42,-195.08C524.39,-168.62 541.51,-95.72 584.75,-56 588.75,-52.33 593.54,-49.39 598.57,-47.06"/>
<polygon fill="#63b8ff" stroke="#63b8ff" points="599.54,-50.43 607.63,-43.59 597.04,-43.89 599.54,-50.43"/>
</a>
</g>
</g>
<!-- Node16 -->
<g id="Node000016" class="node">
<title>Node16</title>
<g id="a_Node000016"><a xlink:href="../../dd/d5b/str-iprintf_8c.html#a316de177eb751d84a9656e42a114e60b" target="_top" xlink:title=" ">
<polygon fill="white" stroke="#666666" points="682.88,-343.62 591.12,-343.62 591.12,-324.38 682.88,-324.38 682.88,-343.62"/>
<text text-anchor="middle" x="637" y="-330.12" font-family="Helvetica,sans-Serif" font-size="10.00">fmt_output_chars</text>
</a>
</g>
</g>
<!-- Node8&#45;&gt;Node16 -->
<g id="edge15_Node000008_Node000016" class="edge">
<title>Node8&#45;&gt;Node16</title>
<g id="a_edge15_Node000008_Node000016"><a xlink:title=" ">
<path fill="none" stroke="#63b8ff" d="M521.07,-214.85C528.79,-236.34 550,-287.74 584.75,-316 585.72,-316.79 586.73,-317.54 587.76,-318.27"/>
<polygon fill="#63b8ff" stroke="#63b8ff" points="586.01,-321.29 596.43,-323.2 589.47,-315.21 586.01,-321.29"/>
</a>
</g>
</g>
<!-- Node17 -->
<g id="Node000017" class="node">
<title>Node17</title>
<g id="a_Node000017"><a xlink:href="../../dd/d5b/str-iprintf_8c.html#a2515d73b29e14ab7ffcbe54864ec7afd" target="_top" xlink:title=" ">
<polygon fill="white" stroke="#666666" points="684,-306.62 590,-306.62 590,-287.38 684,-287.38 684,-306.62"/>
<text text-anchor="middle" x="637" y="-293.12" font-family="Helvetica,sans-Serif" font-size="10.00">fmt_output_chunk</text>
</a>
</g>
</g>
<!-- Node8&#45;&gt;Node17 -->
<g id="edge16_Node000008_Node000017" class="edge">
<title>Node8&#45;&gt;Node17</title>
<g id="a_edge16_Node000008_Node000017"><a xlink:title=" ">
<path fill="none" stroke="#63b8ff" d="M524.37,-215.08C535.2,-230.85 558.19,-261.35 584.75,-279 586.34,-280.06 588.01,-281.06 589.72,-282.01"/>
<polygon fill="#63b8ff" stroke="#63b8ff" points="588,-285.07 598.53,-286.24 591.03,-278.76 588,-285.07"/>
</a>
</g>
</g>
<!-- Node18 -->
<g id="Node000018" class="node">
<title>Node18</title>
<g id="a_Node000018"><a xlink:href="../../dd/d5b/str-iprintf_8c.html#a4eab8c1e99457dd0479a7fd2aeae3a5d" target="_top" xlink:title=" ">
<polygon fill="white" stroke="#666666" points="824.5,-306.62 741,-306.62 741,-287.38 824.5,-287.38 824.5,-306.62"/>
<text text-anchor="middle" x="782.75" y="-293.12" font-family="Helvetica,sans-Serif" font-size="10.00">fmt_output_raw</text>
</a>
</g>
</g>
<!-- Node17&#45;&gt;Node18 -->
<g id="edge17_Node000017_Node000018" class="edge">
<title>Node17&#45;&gt;Node18</title>
<g id="a_edge17_Node000017_Node000018"><a xlink:title=" ">
<path fill="none" stroke="#63b8ff" d="M684.27,-297C698.79,-297 714.92,-297 729.8,-297"/>
<polygon fill="#63b8ff" stroke="#63b8ff" points="729.38,-300.5 739.38,-297 729.38,-293.5 729.38,-300.5"/>
</a>
</g>
</g>
<!-- Node21&#45;&gt;Node5 -->
<g id="edge21_Node000021_Node000005" class="edge">
<title>Node21&#45;&gt;Node5</title>
<g id="a_edge21_Node000021_Node000005"><a xlink:title=" ">
<path fill="none" stroke="#63b8ff" d="M443.98,-397.89C454.54,-393.93 466.84,-389.33 478.23,-385.06"/>
<polygon fill="#63b8ff" stroke="#63b8ff" points="479.25,-388.42 487.38,-381.63 476.79,-381.86 479.25,-388.42"/>
</a>
</g>
</g>
<!-- Node21&#45;&gt;Node20 -->
<g id="edge57_Node000021_Node000020" class="edge">
<title>Node21&#45;&gt;Node20</title>
<g id="a_edge57_Node000021_Node000020"><a xlink:title=" ">
<path fill="none" stroke="#63b8ff" d="M443.2,-418.08C455.14,-422.68 469.4,-428.17 482.12,-433.06"/>
<polygon fill="#63b8ff" stroke="#63b8ff" points="480.79,-436.3 491.38,-436.62 483.3,-429.76 480.79,-436.3"/>
</a>
</g>
</g>
<!-- Node22 -->
<g id="Node000022" class="node">
<title>Node22</title>
<g id="a_Node000022"><a xlink:href="../../d4/d02/str-buf_8c.html#a96e2e5252e81ed31e7071e4db76085b5" target="_top" xlink:title=" ">
<polygon fill="white" stroke="#666666" points="548.38,-418.62 485.12,-418.62 485.12,-399.38 548.38,-399.38 548.38,-418.62"/>
<text text-anchor="middle" x="516.75" y="-405.12" font-family="Helvetica,sans-Serif" font-size="10.00">__sb_grow</text>
</a>
</g>
</g>
<!-- Node21&#45;&gt;Node22 -->
<g id="edge22_Node000021_Node000022" class="edge">
<title>Node21&#45;&gt;Node22</title>
<g id="a_edge22_Node000021_Node000022"><a xlink:title=" ">
<path fill="none" stroke="#63b8ff" d="M449.06,-408.32C456.87,-408.4 465.34,-408.49 473.54,-408.57"/>
<polygon fill="#63b8ff" stroke="#63b8ff" points="473.31,-412.07 483.34,-408.67 473.38,-405.07 473.31,-412.07"/>
</a>
</g>
</g>
<!-- Node23 -->
<g id="Node000023" class="node">
<title>Node23</title>
<g id="a_Node000023"><a xlink:href="../../d7/df8/log_8c.html#abca342edf91a9b45f7a17ef564fa8a53" target="_top" xlink:title=" ">
<polygon fill="white" stroke="#666666" points="1314.5,-418.62 1264.75,-418.62 1264.75,-399.38 1314.5,-399.38 1314.5,-418.62"/>
<text text-anchor="middle" x="1289.62" y="-405.12" font-family="Helvetica,sans-Serif" font-size="10.00">e_panic</text>
</a>
</g>
</g>
<!-- Node22&#45;&gt;Node23 -->
<g id="edge23_Node000022_Node000023" class="edge">
<title>Node22&#45;&gt;Node23</title>
<g id="a_edge23_Node000022_Node000023"><a xlink:title=" ">
<path fill="none" stroke="#63b8ff" d="M548.64,-409C597.93,-409 697.42,-409 781.75,-409 781.75,-409 781.75,-409 1035.12,-409 1112.99,-409 1204.3,-409 1253.28,-409"/>
<polygon fill="#63b8ff" stroke="#63b8ff" points="1252.99,-412.5 1262.99,-409 1252.99,-405.5 1252.99,-412.5"/>
</a>
</g>
</g>
<!-- Node47 -->
<g id="Node000047" class="node">
<title>Node47</title>
<g id="a_Node000047"><a xlink:href="../../d9/d9a/mem_8h.html#a3fd6d5b3dcb24f194848ce86f988fb13" target="_top" xlink:title=" ">
<polygon fill="white" stroke="#666666" points="664.5,-530.62 609.5,-530.62 609.5,-511.38 664.5,-511.38 664.5,-530.62"/>
<text text-anchor="middle" x="637" y="-517.12" font-family="Helvetica,sans-Serif" font-size="10.00">mp_ipool</text>
</a>
</g>
</g>
<!-- Node22&#45;&gt;Node47 -->
<g id="edge42_Node000022_Node000047" class="edge">
<title>Node22&#45;&gt;Node47</title>
<g id="a_edge42_Node000022_Node000047"><a xlink:title=" ">
<path fill="none" stroke="#63b8ff" d="M539.04,-419.03C542.56,-421.32 545.97,-423.98 548.75,-427 574.05,-454.51 556.98,-477.99 584.75,-503 588.79,-506.63 593.6,-509.54 598.64,-511.87"/>
<polygon fill="#63b8ff" stroke="#63b8ff" points="597.11,-515.04 607.7,-515.34 599.61,-508.5 597.11,-515.04"/>
</a>
</g>
</g>
<!-- Node48 -->
<g id="Node000048" class="node">
<title>Node48</title>
<g id="a_Node000048"><a xlink:href="../../d9/d9a/mem_8h.html#a15958df365e5c2cc90a6c0c3e7e0e74f" target="_top" xlink:title=" ">
<polygon fill="white" stroke="#666666" points="689.25,-493.62 584.75,-493.62 584.75,-474.38 689.25,-474.38 689.25,-493.62"/>
<text text-anchor="middle" x="637" y="-480.12" font-family="Helvetica,sans-Serif" font-size="10.00">mp_irealloc_fallback</text>
</a>
</g>
</g>
<!-- Node22&#45;&gt;Node48 -->
<g id="edge43_Node000022_Node000048" class="edge">
<title>Node22&#45;&gt;Node48</title>
<g id="a_edge43_Node000022_Node000048"><a xlink:title=" ">
<path fill="none" stroke="#63b8ff" d="M537.03,-418.99C541.05,-421.4 545.16,-424.12 548.75,-427 567.16,-441.75 565.04,-453.04 584.75,-466 586.38,-467.07 588.07,-468.08 589.82,-469.04"/>
<polygon fill="#63b8ff" stroke="#63b8ff" points="588.29,-472.19 598.82,-473.32 591.29,-465.87 588.29,-472.19"/>
</a>
</g>
</g>
<!-- Node60 -->
<g id="Node000060" class="node">
<title>Node60</title>
<g id="a_Node000060"><a xlink:href="../../d4/d02/str-buf_8c.html#a63ddc4121cc8fbd2d5fd2a6d65a24feb" target="_top" xlink:title=" ">
<polygon fill="white" stroke="#666666" points="680.25,-456.62 593.75,-456.62 593.75,-437.38 680.25,-437.38 680.25,-456.62"/>
<text text-anchor="middle" x="637" y="-443.12" font-family="Helvetica,sans-Serif" font-size="10.00">sb_destroy_skip</text>
</a>
</g>
</g>
<!-- Node22&#45;&gt;Node60 -->
<g id="edge56_Node000022_Node000060" class="edge">
<title>Node22&#45;&gt;Node60</title>
<g id="a_edge56_Node000022_Node000060"><a xlink:title=" ">
<path fill="none" stroke="#63b8ff" d="M548.82,-418.98C562.69,-423.44 579.25,-428.76 594.2,-433.57"/>
<polygon fill="#63b8ff" stroke="#63b8ff" points="592.7,-436.76 603.29,-436.49 594.84,-430.1 592.7,-436.76"/>
</a>
</g>
</g>
<!-- Node24 -->
<g id="Node000024" class="node">
<title>Node24</title>
<g id="a_Node000024"><a xlink:href="../../d7/df8/log_8c.html#a4bc04f7baa1e064cb0b93c7b9f3a61a1" target="_top" xlink:title=" ">
<polygon fill="white" stroke="#666666" points="1438.5,-379.62 1350.5,-379.62 1350.5,-360.38 1438.5,-360.38 1438.5,-379.62"/>
<text text-anchor="middle" x="1394.5" y="-366.12" font-family="Helvetica,sans-Serif" font-size="10.00">__logger_refresh</text>
</a>
</g>
</g>
<!-- Node23&#45;&gt;Node24 -->
<g id="edge24_Node000023_Node000024" class="edge">
<title>Node23&#45;&gt;Node24</title>
<g id="a_edge24_Node000023_Node000024"><a xlink:title=" ">
<path fill="none" stroke="#63b8ff" d="M1314.74,-399.86C1327.12,-395.17 1342.46,-389.35 1356.3,-384.1"/>
<polygon fill="#63b8ff" stroke="#63b8ff" points="1357.48,-387.4 1365.59,-380.58 1355,-380.85 1357.48,-387.4"/>
</a>
</g>
</g>
<!-- Node42 -->
<g id="Node000042" class="node">
<title>Node42</title>
<g id="a_Node000042"><a xlink:href="../../d7/df8/log_8c.html#a900490b26df7698aac12f7f7e6517e81" target="_top" xlink:title=" ">
<polygon fill="white" stroke="#666666" points="1427.25,-492.62 1361.75,-492.62 1361.75,-473.38 1427.25,-473.38 1427.25,-492.62"/>
<text text-anchor="middle" x="1394.5" y="-479.12" font-family="Helvetica,sans-Serif" font-size="10.00">logger_vlog</text>
</a>
</g>
</g>
<!-- Node23&#45;&gt;Node42 -->
<g id="edge37_Node000023_Node000042" class="edge">
<title>Node23&#45;&gt;Node42</title>
<g id="a_edge37_Node000023_Node000042"><a xlink:title=" ">
<path fill="none" stroke="#63b8ff" d="M1304.5,-418.98C1321.37,-431.12 1350.1,-451.78 1370.35,-466.35"/>
<polygon fill="#63b8ff" stroke="#63b8ff" points="1368.13,-469.06 1378.29,-472.06 1372.21,-463.38 1368.13,-469.06"/>
</a>
</g>
</g>
<!-- Node23&#45;&gt;Node46 -->
<g id="edge41_Node000023_Node000046" class="edge">
<title>Node23&#45;&gt;Node46</title>
<g id="a_edge41_Node000023_Node000046"><a xlink:title=" ">
<path fill="none" stroke="#63b8ff" d="M1296.16,-398.95C1312.48,-369.27 1360.69,-281.63 1382.53,-241.94"/>
<polygon fill="#63b8ff" stroke="#63b8ff" points="1385.46,-243.88 1387.21,-233.43 1379.33,-240.5 1385.46,-243.88"/>
</a>
</g>
</g>
<!-- Node25 -->
<g id="Node000025" class="node">
<title>Node25</title>
<g id="a_Node000025"><a xlink:href="../../d7/df8/log_8c.html#a3dbd75fb614210f0b114cfd03c9c0a7b" target="_top" xlink:title=" ">
<polygon fill="white" stroke="#666666" points="1578.25,-398.62 1474.5,-398.62 1474.5,-379.38 1578.25,-379.38 1578.25,-398.62"/>
<text text-anchor="middle" x="1526.38" y="-385.12" font-family="Helvetica,sans-Serif" font-size="10.00">__logger_do_refresh</text>
</a>
</g>
</g>
<!-- Node24&#45;&gt;Node25 -->
<g id="edge25_Node000024_Node000025" class="edge">
<title>Node24&#45;&gt;Node25</title>
<g id="a_edge25_Node000024_Node000025"><a xlink:title=" ">
<path fill="none" stroke="#63b8ff" d="M1438.75,-376.33C1446.56,-377.47 1454.84,-378.68 1463.07,-379.89"/>
<polygon fill="#63b8ff" stroke="#63b8ff" points="1462.31,-383.31 1472.71,-381.3 1463.33,-376.39 1462.31,-383.31"/>
</a>
</g>
</g>
<!-- Node40 -->
<g id="Node000040" class="node">
<title>Node40</title>
<g id="a_Node000040"><a xlink:href="../../d7/df8/log_8c.html#a7b1b02d1986e1247c2f571af4a2c2854" target="_top" xlink:title=" ">
<polygon fill="white" stroke="#666666" points="1564,-361.62 1488.75,-361.62 1488.75,-342.38 1564,-342.38 1564,-361.62"/>
<text text-anchor="middle" x="1526.38" y="-348.12" font-family="Helvetica,sans-Serif" font-size="10.00">log_spin_lock</text>
</a>
</g>
</g>
<!-- Node24&#45;&gt;Node40 -->
<g id="edge35_Node000024_Node000040" class="edge">
<title>Node24&#45;&gt;Node40</title>
<g id="a_edge35_Node000024_Node000040"><a xlink:title=" ">
<path fill="none" stroke="#63b8ff" d="M1438.75,-364.01C1451.06,-362.3 1464.55,-360.43 1477.15,-358.68"/>
<polygon fill="#63b8ff" stroke="#63b8ff" points="1477.48,-362.17 1486.9,-357.33 1476.51,-355.24 1477.48,-362.17"/>
</a>
</g>
</g>
<!-- Node41 -->
<g id="Node000041" class="node">
<title>Node41</title>
<g id="a_Node000041"><a xlink:href="../../d1/dc0/group__log.html#ga045020bb4af234632f7761f220131c69" target="_top" xlink:title=" ">
<polygon fill="white" stroke="#666666" points="1569.25,-324.62 1483.5,-324.62 1483.5,-305.38 1569.25,-305.38 1569.25,-324.62"/>
<text text-anchor="middle" x="1526.38" y="-311.12" font-family="Helvetica,sans-Serif" font-size="10.00">log_spin_unlock</text>
</a>
</g>
</g>
<!-- Node24&#45;&gt;Node41 -->
<g id="edge36_Node000024_Node000041" class="edge">
<title>Node24&#45;&gt;Node41</title>
<g id="a_edge36_Node000024_Node000041"><a xlink:title=" ">
<path fill="none" stroke="#63b8ff" d="M1415.39,-360.02C1431.22,-352.24 1454.04,-341.39 1474.5,-333 1477.84,-331.63 1481.32,-330.27 1484.83,-328.94"/>
<polygon fill="#63b8ff" stroke="#63b8ff" points="1485.73,-332.34 1493.91,-325.6 1483.32,-325.77 1485.73,-332.34"/>
</a>
</g>
</g>
<!-- Node25&#45;&gt;Node25 -->
<g id="edge26_Node000025_Node000025" class="edge">
<title>Node25&#45;&gt;Node25</title>
<g id="a_edge26_Node000025_Node000025"><a xlink:title=" ">
<path fill="none" stroke="#63b8ff" d="M1505.73,-398.91C1496.31,-407.52 1503.19,-416.62 1526.38,-416.62 1539.05,-416.62 1546.85,-413.9 1549.78,-410.03"/>
<polygon fill="#63b8ff" stroke="#63b8ff" points="1553.19,-409.24 1547.39,-400.38 1546.4,-410.93 1553.19,-409.24"/>
</a>
</g>
</g>
<!-- Node26 -->
<g id="Node000026" class="node">
<title>Node26</title>
<g id="a_Node000026"><a xlink:href="../../de/d1a/container-dlist_8h.html#a3b6f65860b212e28f2e28e71eb54d54d" target="_top" xlink:title="Add element e at the head of list l (suited for LIFO).">
<polygon fill="#fff0f0" stroke="red" points="1705.25,-454.62 1650.25,-454.62 1650.25,-435.38 1705.25,-435.38 1705.25,-454.62"/>
<text text-anchor="middle" x="1677.75" y="-441.12" font-family="Helvetica,sans-Serif" font-size="10.00">dlist_add</text>
</a>
</g>
</g>
<!-- Node25&#45;&gt;Node26 -->
<g id="edge27_Node000025_Node000026" class="edge">
<title>Node25&#45;&gt;Node26</title>
<g id="a_edge27_Node000025_Node000026"><a xlink:title=" ">
<path fill="none" stroke="#63b8ff" d="M1548.13,-399C1565.53,-407.17 1591.18,-418.67 1614.25,-427 1622.21,-429.87 1630.86,-432.61 1639.13,-435.04"/>
<polygon fill="#63b8ff" stroke="#63b8ff" points="1638.01,-438.36 1648.59,-437.73 1639.93,-431.63 1638.01,-438.36"/>
</a>
</g>
</g>
<!-- Node28 -->
<g id="Node000028" class="node">
<title>Node28</title>
<g id="a_Node000028"><a xlink:href="../../de/d1a/container-dlist_8h.html#a0a69e401f6ec15966c891e96ad864c77" target="_top" xlink:title="Put a dlist_t element in a safe and detached state.">
<polygon fill="white" stroke="#666666" points="1703.75,-417.62 1651.75,-417.62 1651.75,-398.38 1703.75,-398.38 1703.75,-417.62"/>
<text text-anchor="middle" x="1677.75" y="-404.12" font-family="Helvetica,sans-Serif" font-size="10.00">dlist_init</text>
</a>
</g>
</g>
<!-- Node25&#45;&gt;Node28 -->
<g id="edge28_Node000025_Node000028" class="edge">
<title>Node25&#45;&gt;Node28</title>
<g id="a_edge28_Node000025_Node000028"><a xlink:title=" ">
<path fill="none" stroke="#63b8ff" d="M1578.36,-395.49C1598.7,-398.07 1621.66,-400.99 1640.28,-403.36"/>
<polygon fill="#63b8ff" stroke="#63b8ff" points="1639.67,-406.81 1650.03,-404.6 1640.55,-399.87 1639.67,-406.81"/>
</a>
</g>
</g>
<!-- Node29 -->
<g id="Node000029" class="node">
<title>Node29</title>
<g id="a_Node000029"><a xlink:href="../../d7/df8/log_8c.html#a4c8fbe8648573312126ce341cf34cba1" target="_top" xlink:title=" ">
<polygon fill="white" stroke="#666666" points="1741.25,-380.62 1614.25,-380.62 1614.25,-361.38 1741.25,-361.38 1741.25,-380.62"/>
<text text-anchor="middle" x="1677.75" y="-367.12" font-family="Helvetica,sans-Serif" font-size="10.00">logger_compute_fullname</text>
</a>
</g>
</g>
<!-- Node25&#45;&gt;Node29 -->
<g id="edge29_Node000025_Node000029" class="edge">
<title>Node25&#45;&gt;Node29</title>
<g id="a_edge29_Node000025_Node000029"><a xlink:title=" ">
<path fill="none" stroke="#63b8ff" d="M1578.36,-382.86C1586.21,-381.91 1594.44,-380.92 1602.66,-379.93"/>
<polygon fill="#63b8ff" stroke="#63b8ff" points="1602.82,-383.43 1612.33,-378.76 1601.99,-376.48 1602.82,-383.43"/>
</a>
</g>
</g>
<!-- Node32 -->
<g id="Node000032" class="node">
<title>Node32</title>
<g id="a_Node000032"><a xlink:href="../../df/d0a/str-l_8h.html#ad74dae07179370f3c22e3f026157926e" target="_top" xlink:title="wipe a lstr_t (frees memory if needed).">
<polygon fill="#fff0f0" stroke="red" points="1832.62,-361.62 1777.62,-361.62 1777.62,-342.38 1832.62,-342.38 1832.62,-361.62"/>
<text text-anchor="middle" x="1805.12" y="-348.12" font-family="Helvetica,sans-Serif" font-size="10.00">lstr_wipe</text>
</a>
</g>
</g>
<!-- Node25&#45;&gt;Node32 -->
<g id="edge34_Node000025_Node000032" class="edge">
<title>Node25&#45;&gt;Node32</title>
<g id="a_edge34_Node000025_Node000032"><a xlink:title=" ">
<path fill="none" stroke="#63b8ff" d="M1558.06,-378.96C1564.78,-376.53 1571.81,-373.82 1578.25,-371 1594.82,-363.74 1596.69,-356.35 1614.25,-352 1665.58,-339.29 1727.13,-342.51 1765.94,-346.68"/>
<polygon fill="#63b8ff" stroke="#63b8ff" points="1765.38,-350.14 1775.72,-347.82 1766.19,-343.19 1765.38,-350.14"/>
</a>
</g>
</g>
<!-- Node39 -->
<g id="Node000039" class="node">
<title>Node39</title>
<g id="a_Node000039"><a xlink:href="../../df/d0a/str-l_8h.html#a963c22b229774d4b7c106bae4011cb8e" target="_top" xlink:title="Returns whether \v s1 and \v s2 contents are equal.">
<polygon fill="white" stroke="#666666" points="1706.75,-304.62 1648.75,-304.62 1648.75,-285.38 1706.75,-285.38 1706.75,-304.62"/>
<text text-anchor="middle" x="1677.75" y="-291.12" font-family="Helvetica,sans-Serif" font-size="10.00">lstr_equal</text>
</a>
</g>
</g>
<!-- Node25&#45;&gt;Node39 -->
<g id="edge33_Node000025_Node000039" class="edge">
<title>Node25&#45;&gt;Node39</title>
<g id="a_edge33_Node000025_Node000039"><a xlink:title=" ">
<path fill="none" stroke="#63b8ff" d="M1564.64,-378.92C1569.47,-376.74 1574.16,-374.13 1578.25,-371 1600.58,-353.93 1592.15,-336.37 1614.25,-319 1621.18,-313.56 1629.48,-309.23 1637.74,-305.84"/>
<polygon fill="#63b8ff" stroke="#63b8ff" points="1638.85,-309.17 1647.03,-302.43 1636.43,-302.59 1638.85,-309.17"/>
</a>
</g>
</g>
<!-- Node30 -->
<g id="Node000030" class="node">
<title>Node30</title>
<g id="a_Node000030"><a xlink:href="../../df/d0a/str-l_8h.html#a6a200ca09358f19b13a8e297cda34869" target="_top" xlink:title="returns a constant copy of \v s.">
<polygon fill="white" stroke="#666666" points="1833,-398.62 1777.25,-398.62 1777.25,-379.38 1833,-379.38 1833,-398.62"/>
<text text-anchor="middle" x="1805.12" y="-385.12" font-family="Helvetica,sans-Serif" font-size="10.00">lstr_dupc</text>
</a>
</g>
</g>
<!-- Node29&#45;&gt;Node30 -->
<g id="edge30_Node000029_Node000030" class="edge">
<title>Node29&#45;&gt;Node30</title>
<g id="a_edge30_Node000029_Node000030"><a xlink:title=" ">
<path fill="none" stroke="#63b8ff" d="M1741.44,-380C1749.73,-381.19 1758.02,-382.38 1765.74,-383.49"/>
<polygon fill="#63b8ff" stroke="#63b8ff" points="1765.03,-386.92 1775.42,-384.88 1766.02,-379.99 1765.03,-386.92"/>
</a>
</g>
</g>
<!-- Node29&#45;&gt;Node32 -->
<g id="edge32_Node000029_Node000032" class="edge">
<title>Node29&#45;&gt;Node32</title>
<g id="a_edge32_Node000029_Node000032"><a xlink:title=" ">
<path fill="none" stroke="#63b8ff" d="M1741.44,-361.5C1749.81,-360.23 1758.19,-358.96 1765.96,-357.78"/>
<polygon fill="#63b8ff" stroke="#63b8ff" points="1766.37,-361.26 1775.73,-356.3 1765.32,-354.34 1766.37,-361.26"/>
</a>
</g>
</g>
<!-- Node31 -->
<g id="Node000031" class="node">
<title>Node31</title>
<g id="a_Node000031"><a xlink:href="../../df/d0a/str-l_8h.html#a3b4dbe9c4cc70340cba0787574dc1c5e" target="_top" xlink:title=" ">
<polygon fill="white" stroke="#666666" points="1921.75,-398.62 1869,-398.62 1869,-379.38 1921.75,-379.38 1921.75,-398.62"/>
<text text-anchor="middle" x="1895.38" y="-385.12" font-family="Helvetica,sans-Serif" font-size="10.00">lstr_init_</text>
</a>
</g>
</g>
<!-- Node30&#45;&gt;Node31 -->
<g id="edge31_Node000030_Node000031" class="edge">
<title>Node30&#45;&gt;Node31</title>
<g id="a_edge31_Node000030_Node000031"><a xlink:title=" ">
<path fill="none" stroke="#63b8ff" d="M1833.08,-389C1840.8,-389 1849.35,-389 1857.55,-389"/>
<polygon fill="#63b8ff" stroke="#63b8ff" points="1857.28,-392.5 1867.28,-389 1857.28,-385.5 1857.28,-392.5"/>
</a>
</g>
</g>
<!-- Node42&#45;&gt;Node30 -->
<g id="edge40_Node000042_Node000030" class="edge">
<title>Node42&#45;&gt;Node30</title>
<g id="a_edge40_Node000042_Node000030"><a xlink:title=" ">
<path fill="none" stroke="#63b8ff" d="M1427.67,-489.3C1491.43,-500.11 1636.69,-516.33 1741.25,-464 1764.91,-452.16 1783.04,-426.98 1793.63,-409.07"/>
<polygon fill="#63b8ff" stroke="#63b8ff" points="1796.67,-410.8 1798.48,-400.36 1790.55,-407.39 1796.67,-410.8"/>
</a>
</g>
</g>
<!-- Node43 -->
<g id="Node000043" class="node">
<title>Node43</title>
<g id="a_Node000043"><a xlink:href="../../d1/dc0/group__log.html#ga168a6f17b248f61f7d25a17d58d04e36" target="_top" xlink:title=" ">
<polygon fill="white" stroke="#666666" points="1570.75,-530.62 1482,-530.62 1482,-511.38 1570.75,-511.38 1570.75,-530.62"/>
<text text-anchor="middle" x="1526.38" y="-517.12" font-family="Helvetica,sans-Serif" font-size="10.00">logger_has_level</text>
</a>
</g>
</g>
<!-- Node42&#45;&gt;Node43 -->
<g id="edge38_Node000042_Node000043" class="edge">
<title>Node42&#45;&gt;Node43</title>
<g id="a_edge38_Node000042_Node000043"><a xlink:title=" ">
<path fill="none" stroke="#63b8ff" d="M1427.6,-492.39C1443.38,-497.01 1462.66,-502.65 1479.92,-507.7"/>
<polygon fill="#63b8ff" stroke="#63b8ff" points="1478.88,-511.04 1489.46,-510.49 1480.84,-504.32 1478.88,-511.04"/>
</a>
</g>
</g>
<!-- Node44 -->
<g id="Node000044" class="node">
<title>Node44</title>
<g id="a_Node000044"><a xlink:href="../../d1/dc0/group__log.html#gaf388752b988541da0abeceecdf96e6b3" target="_top" xlink:title=" ">
<polygon fill="#fff0f0" stroke="red" points="1721,-530.62 1634.5,-530.62 1634.5,-511.38 1721,-511.38 1721,-530.62"/>
<text text-anchor="middle" x="1677.75" y="-517.12" font-family="Helvetica,sans-Serif" font-size="10.00">logger_get_level</text>
</a>
</g>
</g>
<!-- Node43&#45;&gt;Node44 -->
<g id="edge39_Node000043_Node000044" class="edge">
<title>Node43&#45;&gt;Node44</title>
<g id="a_edge39_Node000043_Node000044"><a xlink:title=" ">
<path fill="none" stroke="#63b8ff" d="M1570.98,-521C1587.14,-521 1605.67,-521 1622.65,-521"/>
<polygon fill="#63b8ff" stroke="#63b8ff" points="1622.61,-524.5 1632.61,-521 1622.61,-517.5 1622.61,-524.5"/>
</a>
</g>
</g>
<!-- Node49 -->
<g id="Node000049" class="node">
<title>Node49</title>
<g id="a_Node000049"><a xlink:href="../../d8/d37/mem_8blk.html#a2fa974dc4e9f038e5bc400eb689b74b4" target="_top" xlink:title=" ">
<polygon fill="white" stroke="#666666" points="840.25,-494.62 725.25,-494.62 725.25,-475.38 840.25,-475.38 840.25,-494.62"/>
<text text-anchor="middle" x="782.75" y="-481.12" font-family="Helvetica,sans-Serif" font-size="10.00">__mp_irealloc_fallback</text>
</a>
</g>
</g>
<!-- Node48&#45;&gt;Node49 -->
<g id="edge44_Node000048_Node000049" class="edge">
<title>Node48&#45;&gt;Node49</title>
<g id="a_edge44_Node000048_Node000049"><a xlink:title=" ">
<path fill="none" stroke="#63b8ff" d="M689.49,-484.36C697.27,-484.41 705.39,-484.47 713.45,-484.52"/>
<polygon fill="#63b8ff" stroke="#63b8ff" points="713.23,-488.02 723.25,-484.59 713.28,-481.02 713.23,-488.02"/>
</a>
</g>
</g>
<!-- Node55 -->
<g id="Node000055" class="node">
<title>Node55</title>
<g id="a_Node000055"><a xlink:href="../../d9/d9a/mem_8h.html#ae99e17ad0b27e94e8a00c8af9734a0e7" target="_top" xlink:title=" ">
<polygon fill="white" stroke="#666666" points="1090.5,-569.62 977.75,-569.62 977.75,-550.38 1090.5,-550.38 1090.5,-569.62"/>
<text text-anchor="middle" x="1034.12" y="-556.12" font-family="Helvetica,sans-Serif" font-size="10.00">icheck_alloc_constant</text>
</a>
</g>
</g>
<!-- Node48&#45;&gt;Node55 -->
<g id="edge55_Node000048_Node000055" class="edge">
<title>Node48&#45;&gt;Node55</title>
<g id="a_edge55_Node000048_Node000055"><a xlink:title=" ">
<path fill="none" stroke="#63b8ff" d="M667.64,-494.11C674.74,-496.62 682.29,-499.35 689.25,-502 773.24,-534.01 788.08,-561.56 876.25,-579 913.88,-586.44 957.21,-580.09 988.78,-572.79"/>
<polygon fill="#63b8ff" stroke="#63b8ff" points="989.49,-576.21 998.37,-570.44 987.83,-569.41 989.49,-576.21"/>
</a>
</g>
</g>
<!-- Node50 -->
<g id="Node000050" class="node">
<title>Node50</title>
<g id="a_Node000050"><a xlink:href="../../d8/d37/mem_8blk.html#a8e4fbf6500e65079c31e3fd933ae7dc1" target="_top" xlink:title=" ">
<polygon fill="white" stroke="#666666" points="1212.62,-494.62 1142.62,-494.62 1142.62,-475.38 1212.62,-475.38 1212.62,-494.62"/>
<text text-anchor="middle" x="1177.62" y="-481.12" font-family="Helvetica,sans-Serif" font-size="10.00">icheck_alloc</text>
</a>
</g>
</g>
<!-- Node49&#45;&gt;Node50 -->
<g id="edge45_Node000049_Node000050" class="edge">
<title>Node49&#45;&gt;Node50</title>
<g id="a_edge45_Node000049_Node000050"><a xlink:title=" ">
<path fill="none" stroke="#63b8ff" d="M840.46,-485C918.86,-485 1058.84,-485 1130.93,-485"/>
<polygon fill="#63b8ff" stroke="#63b8ff" points="1130.8,-488.5 1140.8,-485 1130.8,-481.5 1130.8,-488.5"/>
</a>
</g>
</g>
<!-- Node38 -->
<g id="Node000038" class="node">
<title>Node38</title>
<g id="a_Node000038"><a xlink:href="../../d8/d37/mem_8blk.html#a83c7cf203e5eef9d1a8c6c43cde3e2e5" target="_top" xlink:title=" ">
<polygon fill="white" stroke="#666666" points="935.75,-456.62 882.25,-456.62 882.25,-437.38 935.75,-437.38 935.75,-456.62"/>
<text text-anchor="middle" x="909" y="-443.12" font-family="Helvetica,sans-Serif" font-size="10.00">mp_ifree</text>
</a>
</g>
</g>
<!-- Node49&#45;&gt;Node38 -->
<g id="edge47_Node000049_Node000038" class="edge">
<title>Node49&#45;&gt;Node38</title>
<g id="a_edge47_Node000049_Node000038"><a xlink:title=" ">
<path fill="none" stroke="#63b8ff" d="M816.72,-474.92C833.47,-469.79 853.87,-463.55 871.14,-458.27"/>
<polygon fill="#63b8ff" stroke="#63b8ff" points="871.98,-461.68 880.52,-455.41 869.93,-454.98 871.98,-461.68"/>
</a>
</g>
</g>
<!-- Node51 -->
<g id="Node000051" class="node">
<title>Node51</title>
<g id="a_Node000051"><a xlink:href="../../d9/d9a/mem_8h.html#ada6bb9661f0c10ccaa14d231c24aeafd" target="_top" xlink:title=" ">
<polygon fill="white" stroke="#666666" points="941.75,-532.62 876.25,-532.62 876.25,-513.38 941.75,-513.38 941.75,-532.62"/>
<text text-anchor="middle" x="909" y="-519.12" font-family="Helvetica,sans-Serif" font-size="10.00">mp_imalloc</text>
</a>
</g>
</g>
<!-- Node49&#45;&gt;Node51 -->
<g id="edge48_Node000049_Node000051" class="edge">
<title>Node49&#45;&gt;Node51</title>
<g id="a_edge48_Node000049_Node000051"><a xlink:title=" ">
<path fill="none" stroke="#63b8ff" d="M816.72,-495.08C831.67,-499.66 849.54,-505.12 865.49,-510"/>
<polygon fill="#63b8ff" stroke="#63b8ff" points="864.13,-513.24 874.72,-512.82 866.18,-506.55 864.13,-513.24"/>
</a>
</g>
</g>
<!-- Node57 -->
<g id="Node000057" class="node">
<title>Node57</title>
<g id="a_Node000057"><a xlink:href="../../d9/d9a/mem_8h.html#aabfb5bf96a257374cbc245548b81c4ff" target="_top" xlink:title=" ">
<polygon fill="#fff0f0" stroke="red" points="941.75,-569.62 876.25,-569.62 876.25,-550.38 941.75,-550.38 941.75,-569.62"/>
<text text-anchor="middle" x="909" y="-556.12" font-family="Helvetica,sans-Serif" font-size="10.00">mp_irealloc</text>
</a>
</g>
</g>
<!-- Node49&#45;&gt;Node57 -->
<g id="edge53_Node000049_Node000057" class="edge">
<title>Node49&#45;&gt;Node57</title>
<g id="a_edge53_Node000049_Node000057"><a xlink:title=" ">
<path fill="none" stroke="#63b8ff" d="M799.68,-495.06C818.03,-506.6 849.13,-525.97 876.25,-542 877.65,-542.83 879.08,-543.67 880.54,-544.51"/>
<polygon fill="#63b8ff" stroke="#63b8ff" points="878.41,-547.33 888.82,-549.27 881.89,-541.25 878.41,-547.33"/>
</a>
</g>
</g>
<!-- Node50&#45;&gt;Node23 -->
<g id="edge46_Node000050_Node000023" class="edge">
<title>Node50&#45;&gt;Node23</title>
<g id="a_edge46_Node000050_Node000023"><a xlink:title=" ">
<path fill="none" stroke="#63b8ff" d="M1193.01,-475.06C1211.29,-462.43 1243.1,-440.46 1264.97,-425.34"/>
<polygon fill="#63b8ff" stroke="#63b8ff" points="1266.76,-428.36 1273,-419.8 1262.78,-422.6 1266.76,-428.36"/>
</a>
</g>
</g>
<!-- Node52 -->
<g id="Node000052" class="node">
<title>Node52</title>
<g id="a_Node000052"><a xlink:href="../../d8/d37/mem_8blk.html#a5666a1403bcf2bd8e114c23f8021d1ac" target="_top" xlink:title=" ">
<polygon fill="#fff0f0" stroke="red" points="1072.12,-532.62 996.12,-532.62 996.12,-513.38 1072.12,-513.38 1072.12,-532.62"/>
<text text-anchor="middle" x="1034.12" y="-519.12" font-family="Helvetica,sans-Serif" font-size="10.00">__mp_imalloc</text>
</a>
</g>
</g>
<!-- Node51&#45;&gt;Node52 -->
<g id="edge49_Node000051_Node000052" class="edge">
<title>Node51&#45;&gt;Node52</title>
<g id="a_edge49_Node000051_Node000052"><a xlink:title=" ">
<path fill="none" stroke="#63b8ff" d="M942.03,-523C955.07,-523 970.43,-523 984.79,-523"/>
<polygon fill="#63b8ff" stroke="#63b8ff" points="984.51,-526.5 994.51,-523 984.51,-519.5 984.51,-526.5"/>
</a>
</g>
</g>
<!-- Node51&#45;&gt;Node55 -->
<g id="edge51_Node000051_Node000055" class="edge">
<title>Node51&#45;&gt;Node55</title>
<g id="a_edge51_Node000051_Node000055"><a xlink:title=" ">
<path fill="none" stroke="#63b8ff" d="M942.03,-532.62C956.25,-536.9 973.22,-542 988.64,-546.63"/>
<polygon fill="#63b8ff" stroke="#63b8ff" points="987.5,-549.94 998.09,-549.47 989.52,-543.24 987.5,-549.94"/>
</a>
</g>
</g>
<!-- Node52&#45;&gt;Node50 -->
<g id="edge50_Node000052_Node000050" class="edge">
<title>Node52&#45;&gt;Node50</title>
<g id="a_edge50_Node000052_Node000050"><a xlink:title=" ">
<path fill="none" stroke="#63b8ff" d="M1072.3,-513.02C1090.51,-508.13 1112.58,-502.2 1131.72,-497.06"/>
<polygon fill="#63b8ff" stroke="#63b8ff" points="1132.39,-500.5 1141.14,-494.53 1130.58,-493.74 1132.39,-500.5"/>
</a>
</g>
</g>
<!-- Node56 -->
<g id="Node000056" class="node">
<title>Node56</title>
<g id="a_Node000056"><a xlink:href="../../d8/d37/mem_8blk.html#a377e36d6fbaf3ee7f1b217559cb0c850" target="_top" xlink:title=" ">
<polygon fill="white" stroke="#666666" points="1228.75,-569.62 1126.5,-569.62 1126.5,-550.38 1228.75,-550.38 1228.75,-569.62"/>
<text text-anchor="middle" x="1177.62" y="-556.12" font-family="Helvetica,sans-Serif" font-size="10.00">__imalloc_too_large</text>
</a>
</g>
</g>
<!-- Node55&#45;&gt;Node56 -->
<g id="edge52_Node000055_Node000056" class="edge">
<title>Node55&#45;&gt;Node56</title>
<g id="a_edge52_Node000055_Node000056"><a xlink:title=" ">
<path fill="none" stroke="#63b8ff" d="M1090.64,-560C1098.64,-560 1106.91,-560 1115.02,-560"/>
<polygon fill="#63b8ff" stroke="#63b8ff" points="1114.82,-563.5 1124.82,-560 1114.82,-556.5 1114.82,-563.5"/>
</a>
</g>
</g>
<!-- Node57&#45;&gt;Node55 -->
<g id="edge54_Node000057_Node000055" class="edge">
<title>Node57&#45;&gt;Node55</title>
<g id="a_edge54_Node000057_Node000055"><a xlink:title=" ">
<path fill="none" stroke="#63b8ff" d="M942.03,-560C949.47,-560 957.68,-560 966.01,-560"/>
<polygon fill="#63b8ff" stroke="#63b8ff" points="965.9,-563.5 975.9,-560 965.9,-556.5 965.9,-563.5"/>
</a>
</g>
</g>
</g>
</svg>
