<?xml version="1.0" encoding="UTF-8" standalone="no"?>
<!DOCTYPE svg PUBLIC "-//W3C//DTD SVG 1.1//EN"
 "http://www.w3.org/Graphics/SVG/1.1/DTD/svg11.dtd">
<!-- Generated by graphviz version 9.0.0 (20230911.1827)
 -->
<!-- Title: qps_pg_zero Pages: 1 -->
<!--zoomable 275 -->

<svg id="main" version="1.1" xmlns="http://www.w3.org/2000/svg" xmlns:xlink="http://www.w3.org/1999/xlink" xml:space="preserve" onload="init(evt)">
<style type="text/css"><![CDATA[
.node, .edge {opacity: 0.7;}
.node.selected, .edge.selected {opacity: 1;}
.edge:hover path { stroke: red; }
.edge:hover polygon { stroke: red; fill: red; }
]]></style>

<defs>
  <circle id="rim" cx="0" cy="0" r="7"/>
  <circle id="rim2" cx="0" cy="0" r="3.5"/>
  <g id="zoomPlus">
    <use xlink:href="#rim" fill="#404040"><set attributeName="fill" to="#808080" begin="zoomplus.mouseover" end="zoomplus.mouseout"/></use>
    <path d="M-4,0h8M0,-4v8" fill="none" stroke="white" stroke-width="1.5" pointer-events="none"/>
  </g>
  <g id="zoomMin">
    <use xlink:href="#rim" fill="#404040"><set attributeName="fill" to="#808080" begin="zoomminus.mouseover" end="zoomminus.mouseout"/></use>
    <path d="M-4,0h8" fill="none" stroke="white" stroke-width="1.5" pointer-events="none"/>
  </g>
  <g id="arrowUp" transform="translate(30 24)">
    <use xlink:href="#rim"/>
    <path pointer-events="none" fill="none" stroke="white" stroke-width="1.5" d="M0,-3.0v7 M-2.5,-0.5L0,-3.0L2.5,-0.5"/>
  </g>
  <g id="arrowRight" transform="rotate(90) translate(36 -43)">
    <use xlink:href="#rim"/>
    <path pointer-events="none" fill="none" stroke="white" stroke-width="1.5" d="M0,-3.0v7 M-2.5,-0.5L0,-3.0L2.5,-0.5"/>
  </g>
  <g id="arrowDown" transform="rotate(180) translate(-30 -48)">
    <use xlink:href="#rim"/>
    <path pointer-events="none" fill="none" stroke="white" stroke-width="1.5" d="M0,-3.0v7 M-2.5,-0.5L0,-3.0L2.5,-0.5"/>
  </g>
  <g id="arrowLeft" transform="rotate(270) translate(-36 17)">
    <use xlink:href="#rim"/>
    <path pointer-events="none" fill="none" stroke="white" stroke-width="1.5" d="M0,-3.0v7 M-2.5,-0.5L0,-3.0L2.5,-0.5"/>
  </g>
  <g id="resetDef">
    <use xlink:href="#rim2" fill="#404040"><set attributeName="fill" to="#808080" begin="reset.mouseover" end="reset.mouseout"/></use>
  </g>
</defs>
<script type="application/ecmascript">
var viewWidth = 709;
var viewHeight = 275;
var sectionId = 'dynsection-50';
</script>
<script type="application/ecmascript" xlink:href="../../svg.min.js"/>
<svg id="graph" class="graph">
<g id="viewport">
<title>qps_pg_zero</title>
<!-- Node1 -->
<g id="Node000001" class="node">
<title>Node1</title>
<g id="a_Node000001"><a xlink:title=" ">
<polygon fill="#999999" stroke="#666666" points="700.5,-149.96 629.75,-149.96 629.75,-130.71 700.5,-130.71 700.5,-149.96"/>
<text text-anchor="middle" x="665.12" y="-136.46" font-family="Helvetica,sans-Serif" font-size="10.00">qps_pg_zero</text>
</a>
</g>
</g>
<!-- Node2 -->
<g id="Node000002" class="node">
<title>Node2</title>
<g id="a_Node000002"><a xlink:href="../../d3/d0d/group__qkv____ll____hat.html#ga5b2219f82dad8c582f2691df04432966" target="_top" xlink:title=" ">
<polygon fill="white" stroke="#666666" points="588.12,-229.96 506.88,-229.96 506.88,-210.71 588.12,-210.71 588.12,-229.96"/>
<text text-anchor="middle" x="547.5" y="-216.46" font-family="Helvetica,sans-Serif" font-size="10.00">qhat_alloc_leaf</text>
</a>
</g>
</g>
<!-- Node1&#45;&gt;Node2 -->
<g id="edge1_Node000001_Node000002" class="edge">
<title>Node1&#45;&gt;Node2</title>
<g id="a_edge1_Node000001_Node000002"><a xlink:title=" ">
<path fill="none" stroke="#63b8ff" d="M640.74,-156.52C617.4,-172.67 582.27,-196.97 562.79,-210.45"/>
<polygon fill="#63b8ff" stroke="#63b8ff" points="642.47,-159.58 648.7,-151.01 638.49,-153.82 642.47,-159.58"/>
</a>
</g>
</g>
<!-- Node5 -->
<g id="Node000005" class="node">
<title>Node5</title>
<g id="a_Node000005"><a xlink:href="../../d0/df7/qps_8blk.html#a787c92127398eae75f636fd36bb49c33" target="_top" xlink:title=" ">
<polygon fill="white" stroke="#666666" points="591.88,-164.96 503.12,-164.96 503.12,-145.71 591.88,-145.71 591.88,-164.96"/>
<text text-anchor="middle" x="547.5" y="-151.46" font-family="Helvetica,sans-Serif" font-size="10.00">qps_handle_new</text>
</a>
</g>
</g>
<!-- Node1&#45;&gt;Node5 -->
<g id="edge4_Node000001_Node000005" class="edge">
<title>Node1&#45;&gt;Node5</title>
<g id="a_edge4_Node000001_Node000005"><a xlink:title=" ">
<path fill="none" stroke="#63b8ff" d="M618.09,-146.31C609.55,-147.42 600.66,-148.57 592.19,-149.67"/>
<polygon fill="#63b8ff" stroke="#63b8ff" points="618.47,-149.79 627.93,-145.03 617.57,-142.85 618.47,-149.79"/>
</a>
</g>
</g>
<!-- Node10 -->
<g id="Node000010" class="node">
<title>Node10</title>
<g id="a_Node000010"><a xlink:href="../../da/d7d/qps-bitmap_8c.html#a7f2722fee09e24b9aecaef1d7562b1bb" target="_top" xlink:title=" ">
<polygon fill="white" stroke="#666666" points="593.75,-92.96 501.25,-92.96 501.25,-73.71 593.75,-73.71 593.75,-92.96"/>
<text text-anchor="middle" x="547.5" y="-79.46" font-family="Helvetica,sans-Serif" font-size="10.00">w_deref_dispatch</text>
</a>
</g>
</g>
<!-- Node1&#45;&gt;Node10 -->
<g id="edge10_Node000001_Node000010" class="edge">
<title>Node1&#45;&gt;Node10</title>
<g id="a_edge10_Node000001_Node000010"><a xlink:title=" ">
<path fill="none" stroke="#63b8ff" d="M633.61,-125.3C613.1,-115.18 586.63,-102.14 568.7,-93.3"/>
<polygon fill="#63b8ff" stroke="#63b8ff" points="631.85,-128.33 642.36,-129.61 634.94,-122.05 631.85,-128.33"/>
</a>
</g>
</g>
<!-- Node15 -->
<g id="Node000015" class="node">
<title>Node15</title>
<g id="a_Node000015"><a xlink:href="../../da/d7d/qps-bitmap_8c.html#a5a2e2dafb100d6e3f3ac043732635516" target="_top" xlink:title=" ">
<polygon fill="white" stroke="#666666" points="457,-40.96 385.5,-40.96 385.5,-21.71 457,-21.71 457,-40.96"/>
<text text-anchor="middle" x="421.25" y="-27.46" font-family="Helvetica,sans-Serif" font-size="10.00">w_deref_leaf</text>
</a>
</g>
</g>
<!-- Node1&#45;&gt;Node15 -->
<g id="edge21_Node000001_Node000015" class="edge">
<title>Node1&#45;&gt;Node15</title>
<g id="a_edge21_Node000001_Node000015"><a xlink:title=" ">
<path fill="none" stroke="#63b8ff" d="M651.6,-120.95C639.13,-103.3 618.32,-77.99 593.75,-64.34 550.81,-40.49 493.54,-33.61 457.27,-31.77"/>
<polygon fill="#63b8ff" stroke="#63b8ff" points="648.59,-122.75 657.1,-129.06 654.38,-118.82 648.59,-122.75"/>
</a>
</g>
</g>
<!-- Node3 -->
<g id="Node000003" class="node">
<title>Node3</title>
<g id="a_Node000003"><a xlink:href="../../d3/d0d/group__qkv____ll____hat.html#gaa65d41e02f937dab67e7585f7e4963ff" target="_top" xlink:title=" ">
<polygon fill="white" stroke="#666666" points="465.25,-266.96 377.25,-266.96 377.25,-247.71 465.25,-247.71 465.25,-266.96"/>
<text text-anchor="middle" x="421.25" y="-253.46" font-family="Helvetica,sans-Serif" font-size="10.00">qhat_create_leaf</text>
</a>
</g>
</g>
<!-- Node2&#45;&gt;Node3 -->
<g id="edge2_Node000002_Node000003" class="edge">
<title>Node2&#45;&gt;Node3</title>
<g id="a_edge2_Node000002_Node000003"><a xlink:title=" ">
<path fill="none" stroke="#63b8ff" d="M501.9,-233.62C486.83,-238.11 470.26,-243.04 456.16,-247.24"/>
<polygon fill="#63b8ff" stroke="#63b8ff" points="502.51,-237.09 511.1,-230.88 500.51,-230.38 502.51,-237.09"/>
</a>
</g>
</g>
<!-- Node4 -->
<g id="Node000004" class="node">
<title>Node4</title>
<g id="a_Node000004"><a xlink:href="../../d3/d0d/group__qkv____ll____hat.html#gaaa078525cdffeb7c3dad680f49b36799" target="_top" xlink:title=" ">
<polygon fill="white" stroke="#666666" points="460.75,-229.96 381.75,-229.96 381.75,-210.71 460.75,-210.71 460.75,-229.96"/>
<text text-anchor="middle" x="421.25" y="-216.46" font-family="Helvetica,sans-Serif" font-size="10.00">qhat_split_leaf</text>
</a>
</g>
</g>
<!-- Node2&#45;&gt;Node4 -->
<g id="edge3_Node000002_Node000004" class="edge">
<title>Node2&#45;&gt;Node4</title>
<g id="a_edge3_Node000002_Node000004"><a xlink:title=" ">
<path fill="none" stroke="#63b8ff" d="M495.25,-220.34C483.77,-220.34 471.77,-220.34 460.9,-220.34"/>
<polygon fill="#63b8ff" stroke="#63b8ff" points="494.99,-223.84 504.99,-220.34 494.99,-216.84 494.99,-223.84"/>
</a>
</g>
</g>
<!-- Node6 -->
<g id="Node000006" class="node">
<title>Node6</title>
<g id="a_Node000006"><a xlink:href="../../d4/d36/group__qkv____ll____qps.html#ga45a711663f36a77a78d1166a562d5fe5" target="_top" xlink:title=" ">
<polygon fill="white" stroke="#666666" points="449.88,-192.96 392.62,-192.96 392.62,-173.71 449.88,-173.71 449.88,-192.96"/>
<text text-anchor="middle" x="421.25" y="-179.46" font-family="Helvetica,sans-Serif" font-size="10.00">qps_alloc</text>
</a>
</g>
</g>
<!-- Node5&#45;&gt;Node6 -->
<g id="edge5_Node000005_Node000006" class="edge">
<title>Node5&#45;&gt;Node6</title>
<g id="a_edge5_Node000005_Node000006"><a xlink:title=" ">
<path fill="none" stroke="#63b8ff" d="M491.84,-167.66C477.44,-170.9 462.5,-174.27 450.16,-177.05"/>
<polygon fill="#63b8ff" stroke="#63b8ff" points="492.23,-171.16 501.22,-165.54 490.69,-164.33 492.23,-171.16"/>
</a>
</g>
</g>
<!-- Node7 -->
<g id="Node000007" class="node">
<title>Node7</title>
<g id="a_Node000007"><a xlink:href="../../d4/d36/group__qkv____ll____qps.html#ga0c25d1d2115d1333cf8f182261eb7f10" target="_top" xlink:title=" ">
<polygon fill="white" stroke="#666666" points="328.88,-192.96 249.88,-192.96 249.88,-173.71 328.88,-173.71 328.88,-192.96"/>
<text text-anchor="middle" x="289.38" y="-179.46" font-family="Helvetica,sans-Serif" font-size="10.00">qps_hptr_alloc</text>
</a>
</g>
</g>
<!-- Node6&#45;&gt;Node7 -->
<g id="edge6_Node000006_Node000007" class="edge">
<title>Node6&#45;&gt;Node7</title>
<g id="a_edge6_Node000006_Node000007"><a xlink:title=" ">
<path fill="none" stroke="#63b8ff" d="M380.94,-183.34C364.49,-183.34 345.41,-183.34 329.03,-183.34"/>
<polygon fill="#63b8ff" stroke="#63b8ff" points="380.88,-186.84 390.88,-183.34 380.87,-179.84 380.88,-186.84"/>
</a>
</g>
</g>
<!-- Node8 -->
<g id="Node000008" class="node">
<title>Node8</title>
<g id="a_Node000008"><a xlink:href="../../d3/d0d/group__qkv____ll____hat.html#gaa4a1c0129347de83787fd27c50b21b6b" target="_top" xlink:title=" ">
<polygon fill="white" stroke="#666666" points="67,-192.96 0,-192.96 0,-173.71 67,-173.71 67,-192.96"/>
<text text-anchor="middle" x="33.5" y="-179.46" font-family="Helvetica,sans-Serif" font-size="10.00">qhat_create</text>
</a>
</g>
</g>
<!-- Node7&#45;&gt;Node8 -->
<g id="edge7_Node000007_Node000008" class="edge">
<title>Node7&#45;&gt;Node8</title>
<g id="a_edge7_Node000007_Node000008"><a xlink:title=" ">
<path fill="none" stroke="#63b8ff" d="M238.2,-183.34C187.5,-183.34 110.64,-183.34 67.27,-183.34"/>
<polygon fill="#63b8ff" stroke="#63b8ff" points="238.03,-186.84 248.03,-183.34 238.03,-179.84 238.03,-186.84"/>
</a>
</g>
</g>
<!-- Node9 -->
<g id="Node000009" class="node">
<title>Node9</title>
<g id="a_Node000009"><a xlink:href="../../d7/d31/group__qkv____ll____bitmap.html#gac6a47bf04928dc2bf81b711a2d6a9117" target="_top" xlink:title=" ">
<polygon fill="white" stroke="#666666" points="201.5,-173.96 103,-173.96 103,-154.71 201.5,-154.71 201.5,-173.96"/>
<text text-anchor="middle" x="152.25" y="-160.46" font-family="Helvetica,sans-Serif" font-size="10.00">qps_bitmap_create</text>
</a>
</g>
</g>
<!-- Node7&#45;&gt;Node9 -->
<g id="edge8_Node000007_Node000009" class="edge">
<title>Node7&#45;&gt;Node9</title>
<g id="a_edge8_Node000007_Node000009"><a xlink:title=" ">
<path fill="none" stroke="#63b8ff" d="M238.42,-176.31C226.39,-174.62 213.56,-172.82 201.6,-171.14"/>
<polygon fill="#63b8ff" stroke="#63b8ff" points="237.76,-179.76 248.15,-177.68 238.74,-172.82 237.76,-179.76"/>
</a>
</g>
</g>
<!-- Node9&#45;&gt;Node8 -->
<g id="edge9_Node000009_Node000008" class="edge">
<title>Node9&#45;&gt;Node8</title>
<g id="a_edge9_Node000009_Node000008"><a xlink:title=" ">
<path fill="none" stroke="#63b8ff" d="M91.49,-174.06C83.2,-175.41 74.95,-176.76 67.41,-177.98"/>
<polygon fill="#63b8ff" stroke="#63b8ff" points="91.95,-177.53 101.26,-172.47 90.83,-170.63 91.95,-177.53"/>
</a>
</g>
</g>
<!-- Node11 -->
<g id="Node000011" class="node">
<title>Node11</title>
<g id="a_Node000011"><a xlink:href="../../da/d7d/qps-bitmap_8c.html#a7d2e81905c804729c4466b45abc1bf0f" target="_top" xlink:title=" ">
<polygon fill="white" stroke="#666666" points="452.88,-116.96 389.62,-116.96 389.62,-97.71 452.88,-97.71 452.88,-116.96"/>
<text text-anchor="middle" x="421.25" y="-103.46" font-family="Helvetica,sans-Serif" font-size="10.00">delete_leaf</text>
</a>
</g>
</g>
<!-- Node10&#45;&gt;Node11 -->
<g id="edge11_Node000010_Node000011" class="edge">
<title>Node10&#45;&gt;Node11</title>
<g id="a_edge11_Node000010_Node000011"><a xlink:title=" ">
<path fill="none" stroke="#63b8ff" d="M489.92,-94.27C477.24,-96.72 464.24,-99.23 453.07,-101.38"/>
<polygon fill="#63b8ff" stroke="#63b8ff" points="490.3,-97.76 499.45,-92.43 488.97,-90.89 490.3,-97.76"/>
</a>
</g>
</g>
<!-- Node12 -->
<g id="Node000012" class="node">
<title>Node12</title>
<g id="a_Node000012"><a xlink:href="../../d7/d31/group__qkv____ll____bitmap.html#ga982c61c58073ec5e10506ebf4895e110" target="_top" xlink:title=" ">
<polygon fill="white" stroke="#666666" points="341.25,-116.96 237.5,-116.96 237.5,-97.71 341.25,-97.71 341.25,-116.96"/>
<text text-anchor="middle" x="289.38" y="-103.46" font-family="Helvetica,sans-Serif" font-size="10.00">qps_bitmap_remove</text>
</a>
</g>
</g>
<!-- Node10&#45;&gt;Node12 -->
<g id="edge14_Node000010_Node000012" class="edge">
<title>Node10&#45;&gt;Node12</title>
<g id="a_edge14_Node000010_Node000012"><a xlink:title=" ">
<path fill="none" stroke="#63b8ff" d="M523.34,-99.52C507.72,-109.41 486.21,-121.13 465.25,-126.34 416.35,-138.48 357.84,-127.08 322.42,-117.44"/>
<polygon fill="#63b8ff" stroke="#63b8ff" points="524.99,-102.62 531.42,-94.2 521.14,-96.77 524.99,-102.62"/>
</a>
</g>
</g>
<!-- Node13 -->
<g id="Node000013" class="node">
<title>Node13</title>
<g id="a_Node000013"><a xlink:href="../../d7/d31/group__qkv____ll____bitmap.html#gac5b993d6b8d7106b97325f2b72873e4f" target="_top" xlink:title=" ">
<polygon fill="white" stroke="#666666" points="336,-78.96 242.75,-78.96 242.75,-59.71 336,-59.71 336,-78.96"/>
<text text-anchor="middle" x="289.38" y="-65.46" font-family="Helvetica,sans-Serif" font-size="10.00">qps_bitmap_reset</text>
</a>
</g>
</g>
<!-- Node10&#45;&gt;Node13 -->
<g id="edge15_Node000010_Node000013" class="edge">
<title>Node10&#45;&gt;Node13</title>
<g id="a_edge15_Node000010_Node000013"><a xlink:title=" ">
<path fill="none" stroke="#63b8ff" d="M489.68,-80.23C443.53,-77.71 379.26,-74.2 336.31,-71.85"/>
<polygon fill="#63b8ff" stroke="#63b8ff" points="489.32,-83.72 499.49,-80.77 489.7,-76.73 489.32,-83.72"/>
</a>
</g>
</g>
<!-- Node14 -->
<g id="Node000014" class="node">
<title>Node14</title>
<g id="a_Node000014"><a xlink:href="../../d7/d31/group__qkv____ll____bitmap.html#ga782981973b3605894bd65a988b24285b" target="_top" xlink:title=" ">
<polygon fill="white" stroke="#666666" points="331.88,-21.96 246.88,-21.96 246.88,-2.71 331.88,-2.71 331.88,-21.96"/>
<text text-anchor="middle" x="289.38" y="-8.46" font-family="Helvetica,sans-Serif" font-size="10.00">qps_bitmap_set</text>
</a>
</g>
</g>
<!-- Node10&#45;&gt;Node14 -->
<g id="edge16_Node000010_Node000014" class="edge">
<title>Node10&#45;&gt;Node14</title>
<g id="a_edge16_Node000010_Node000014"><a xlink:title=" ">
<path fill="none" stroke="#63b8ff" d="M532.02,-64.59C517.35,-47.28 492.92,-22.72 465.25,-12.34 422.05,3.88 368.5,0.84 332.12,-4.31"/>
<polygon fill="#63b8ff" stroke="#63b8ff" points="529.14,-66.6 538.17,-72.15 534.57,-62.19 529.14,-66.6"/>
</a>
</g>
</g>
<!-- Node10&#45;&gt;Node15 -->
<g id="edge17_Node000010_Node000015" class="edge">
<title>Node10&#45;&gt;Node15</title>
<g id="a_edge17_Node000010_Node000015"><a xlink:title=" ">
<path fill="none" stroke="#63b8ff" d="M512.12,-68.95C491.14,-60.17 464.85,-49.17 446.13,-41.33"/>
<polygon fill="#63b8ff" stroke="#63b8ff" points="510.57,-72.1 521.15,-72.73 513.27,-65.64 510.57,-72.1"/>
</a>
</g>
</g>
<!-- Node11&#45;&gt;Node12 -->
<g id="edge12_Node000011_Node000012" class="edge">
<title>Node11&#45;&gt;Node12</title>
<g id="a_edge12_Node000011_Node000012"><a xlink:title=" ">
<path fill="none" stroke="#63b8ff" d="M377.95,-107.34C366.32,-107.34 353.58,-107.34 341.51,-107.34"/>
<polygon fill="#63b8ff" stroke="#63b8ff" points="377.63,-110.84 387.63,-107.34 377.63,-103.84 377.63,-110.84"/>
</a>
</g>
</g>
<!-- Node11&#45;&gt;Node13 -->
<g id="edge13_Node000011_Node000013" class="edge">
<title>Node11&#45;&gt;Node13</title>
<g id="a_edge13_Node000011_Node000013"><a xlink:title=" ">
<path fill="none" stroke="#63b8ff" d="M378.23,-95.04C360.98,-90 341.26,-84.23 324.88,-79.44"/>
<polygon fill="#63b8ff" stroke="#63b8ff" points="377.11,-98.36 387.69,-97.81 379.07,-91.64 377.11,-98.36"/>
</a>
</g>
</g>
<!-- Node15&#45;&gt;Node12 -->
<g id="edge18_Node000015_Node000012" class="edge">
<title>Node15&#45;&gt;Node12</title>
<g id="a_edge18_Node000015_Node000012"><a xlink:title=" ">
<path fill="none" stroke="#63b8ff" d="M399.94,-48.33C384.55,-60.61 362.49,-76.97 341.25,-88.34 335.01,-91.67 328.07,-94.69 321.36,-97.28"/>
<polygon fill="#63b8ff" stroke="#63b8ff" points="401.88,-51.27 407.43,-42.24 397.46,-45.84 401.88,-51.27"/>
</a>
</g>
</g>
<!-- Node15&#45;&gt;Node13 -->
<g id="edge19_Node000015_Node000013" class="edge">
<title>Node15&#45;&gt;Node13</title>
<g id="a_edge19_Node000015_Node000013"><a xlink:title=" ">
<path fill="none" stroke="#63b8ff" d="M375.2,-44.52C358.58,-49.38 340.05,-54.81 324.55,-59.34"/>
<polygon fill="#63b8ff" stroke="#63b8ff" points="375.72,-48.01 384.33,-41.85 373.75,-41.3 375.72,-48.01"/>
</a>
</g>
</g>
<!-- Node15&#45;&gt;Node14 -->
<g id="edge20_Node000015_Node000014" class="edge">
<title>Node15&#45;&gt;Node14</title>
<g id="a_edge20_Node000015_Node000014"><a xlink:title=" ">
<path fill="none" stroke="#63b8ff" d="M373.95,-24.57C360.27,-22.56 345.38,-20.38 332.01,-18.43"/>
<polygon fill="#63b8ff" stroke="#63b8ff" points="373.21,-27.99 383.61,-25.98 374.22,-21.07 373.21,-27.99"/>
</a>
</g>
</g>
</g>
</svg>

<g id="navigator" transform="translate(0 0)" fill="#404254">
  <rect fill="#f2f5e9" fill-opacity="0.5" stroke="#606060" stroke-width=".5" x="0" y="0" width="60" height="60"/>
  <use id="zoomplus" xlink:href="#zoomPlus" x="17" y="9" onmousedown="handleZoom(evt,'in')"/>
  <use id="zoomminus" xlink:href="#zoomMin" x="42" y="9" onmousedown="handleZoom(evt,'out')"/>
  <use id="reset" xlink:href="#resetDef" x="30" y="36" onmousedown="handleReset()"/>
   <use id="arrowup" xlink:href="#arrowUp" x="0" y="0" onmousedown="handlePan(0,-1)"/>
  <use id="arrowright" xlink:href="#arrowRight" x="0" y="0" onmousedown="handlePan(1,0)"/>
  <use id="arrowdown" xlink:href="#arrowDown" x="0" y="0" onmousedown="handlePan(0,1)"/>
  <use id="arrowleft" xlink:href="#arrowLeft" x="0" y="0" onmousedown="handlePan(-1,0)"/>
</g>
<svg viewBox="0 0 15 15" width="100%" height="30px" preserveAspectRatio="xMaxYMin meet">
 <g id="arrow_out" transform="scale(0.3 0.3)">
  <a xlink:href="group__qkv____ll____qps_ga0fec48de1015725e0da9ccac5eebedc0_icgraph_org.svg" target="_base">
   <rect id="button" ry="5" rx="5" y="6" x="6" height="38" width="38"
        fill="#f2f5e9" fill-opacity="0.5" stroke="#606060" stroke-width="1.0"/>
   <path id="arrow"
     d="M 11.500037,31.436501 C 11.940474,20.09759 22.043105,11.32322 32.158766,21.979434 L 37.068811,17.246167 C 37.068811,17.246167 37.088388,32 37.088388,32 L 22.160133,31.978069 C 22.160133,31.978069 26.997745,27.140456 26.997745,27.140456 C 18.528582,18.264221 13.291696,25.230495 11.500037,31.436501 z"
     style="fill:#404040;"/>
  </a>
 </g>
</svg>

<style type='text/css'>
<![CDATA[
[data-mouse-over-selected='false'] { opacity: 0.7; }
[data-mouse-over-selected='true']  { opacity: 1.0; }
]]>
</style>
<script type="application/ecmascript"><![CDATA[
document.addEventListener('DOMContentLoaded', (event) => {
  highlightEdges();
  highlightAdjacentNodes();
});
]]></script>
</svg>
