<?xml version="1.0" encoding="UTF-8" standalone="no"?>
<!DOCTYPE svg PUBLIC "-//W3C//DTD SVG 1.1//EN"
 "http://www.w3.org/Graphics/SVG/1.1/DTD/svg11.dtd">
<!-- Generated by graphviz version 9.0.0 (20230911.1827)
 -->
<!-- Title: qps_w_deref Pages: 1 -->
<svg width="1324pt" height="719pt"
 viewBox="0.00 0.00 1323.75 718.62" xmlns="http://www.w3.org/2000/svg" xmlns:xlink="http://www.w3.org/1999/xlink">
<g id="graph0" class="graph" transform="scale(1 1) rotate(0) translate(4 714.62)">
<title>qps_w_deref</title>
<!-- Node1 -->
<g id="Node000001" class="node">
<title>Node1</title>
<g id="a_Node000001"><a xlink:title=" ">
<polygon fill="#999999" stroke="#666666" points="71.5,-663.25 0,-663.25 0,-644 71.5,-644 71.5,-663.25"/>
<text text-anchor="middle" x="35.75" y="-649.75" font-family="Helvetica,sans-Serif" font-size="10.00">qps_w_deref</text>
</a>
</g>
</g>
<!-- Node2 -->
<g id="Node000002" class="node">
<title>Node2</title>
<g id="a_Node000002"><a xlink:href="../../d4/d36/group__qkv____ll____qps.html#ga764bdc449f42c744648a47799fc40354" target="_top" xlink:title=" ">
<polygon fill="white" stroke="#666666" points="997.25,-625.25 928,-625.25 928,-606 997.25,-606 997.25,-625.25"/>
<text text-anchor="middle" x="962.62" y="-611.75" font-family="Helvetica,sans-Serif" font-size="10.00">qps_map_of</text>
</a>
</g>
</g>
<!-- Node1&#45;&gt;Node2 -->
<g id="edge1_Node000001_Node000002" class="edge">
<title>Node1&#45;&gt;Node2</title>
<g id="a_edge1_Node000001_Node000002"><a xlink:title=" ">
<path fill="none" stroke="#63b8ff" d="M59.58,-663.68C98.85,-680.05 182.09,-710.62 255.75,-710.62 255.75,-710.62 255.75,-710.62 651.12,-710.62 758.98,-710.62 879.04,-657.57 932.83,-630.75"/>
<polygon fill="#63b8ff" stroke="#63b8ff" points="934.29,-633.94 941.63,-626.3 931.13,-627.69 934.29,-633.94"/>
</a>
</g>
</g>
<!-- Node3 -->
<g id="Node000003" class="node">
<title>Node3</title>
<g id="a_Node000003"><a xlink:href="../../d4/d36/group__qkv____ll____qps.html#ga2e774f5f921bb85417d699fcfb85d5c0" target="_top" xlink:title=" ">
<polygon fill="white" stroke="#666666" points="184.25,-625.25 107.5,-625.25 107.5,-606 184.25,-606 184.25,-625.25"/>
<text text-anchor="middle" x="145.88" y="-611.75" font-family="Helvetica,sans-Serif" font-size="10.00">qps_w_deref_</text>
</a>
</g>
</g>
<!-- Node1&#45;&gt;Node3 -->
<g id="edge2_Node000001_Node000003" class="edge">
<title>Node1&#45;&gt;Node3</title>
<g id="a_edge2_Node000001_Node000003"><a xlink:title=" ">
<path fill="none" stroke="#63b8ff" d="M65.44,-643.54C77.76,-639.21 92.35,-634.09 105.64,-629.41"/>
<polygon fill="#63b8ff" stroke="#63b8ff" points="106.72,-632.74 115,-626.13 104.4,-626.14 106.72,-632.74"/>
</a>
</g>
</g>
<!-- Node3&#45;&gt;Node2 -->
<g id="edge67_Node000003_Node000002" class="edge">
<title>Node3&#45;&gt;Node2</title>
<g id="a_edge67_Node000003_Node000002"><a xlink:title=" ">
<path fill="none" stroke="#63b8ff" d="M184.58,-615.62C251.34,-615.62 394.71,-615.62 515.75,-615.62 515.75,-615.62 515.75,-615.62 651.12,-615.62 745.38,-615.62 855.72,-615.62 916.21,-615.62"/>
<polygon fill="#63b8ff" stroke="#63b8ff" points="916.11,-619.13 926.11,-615.63 916.11,-612.13 916.11,-619.13"/>
</a>
</g>
</g>
<!-- Node4 -->
<g id="Node000004" class="node">
<title>Node4</title>
<g id="a_Node000004"><a xlink:href="../../d0/df7/qps_8blk.html#a6fff60e44f64f6384e53563f8d2aaf4f" target="_top" xlink:title=" ">
<polygon fill="white" stroke="#666666" points="293.25,-378.25 220.25,-378.25 220.25,-359 293.25,-359 293.25,-378.25"/>
<text text-anchor="middle" x="256.75" y="-364.75" font-family="Helvetica,sans-Serif" font-size="10.00">qps_alloc_int</text>
</a>
</g>
</g>
<!-- Node3&#45;&gt;Node4 -->
<g id="edge3_Node000003_Node000004" class="edge">
<title>Node3&#45;&gt;Node4</title>
<g id="a_edge3_Node000003_Node000004"><a xlink:title=" ">
<path fill="none" stroke="#63b8ff" d="M151.28,-605.64C167.55,-568.71 224.53,-439.46 246.76,-389.01"/>
<polygon fill="#63b8ff" stroke="#63b8ff" points="249.85,-390.69 250.68,-380.12 243.45,-387.86 249.85,-390.69"/>
</a>
</g>
</g>
<!-- Node7 -->
<g id="Node000007" class="node">
<title>Node7</title>
<g id="a_Node000007"><a xlink:href="../../d0/df7/qps_8blk.html#a1edfd18dd6234ddc5adac45724a920ed" target="_top" xlink:title=" ">
<polygon fill="white" stroke="#666666" points="417.25,-663.25 348.75,-663.25 348.75,-644 417.25,-644 417.25,-663.25"/>
<text text-anchor="middle" x="383" y="-649.75" font-family="Helvetica,sans-Serif" font-size="10.00">qps_encode</text>
</a>
</g>
</g>
<!-- Node3&#45;&gt;Node7 -->
<g id="edge64_Node000003_Node000007" class="edge">
<title>Node3&#45;&gt;Node7</title>
<g id="a_edge64_Node000003_Node000007"><a xlink:title=" ">
<path fill="none" stroke="#63b8ff" d="M161.22,-625.71C175.44,-635.04 198.23,-648.26 220.25,-653.62 258.93,-663.05 304.38,-662.03 337.24,-659.25"/>
<polygon fill="#63b8ff" stroke="#63b8ff" points="337.17,-662.77 346.8,-658.35 336.51,-655.81 337.17,-662.77"/>
</a>
</g>
</g>
<!-- Node20 -->
<g id="Node000020" class="node">
<title>Node20</title>
<g id="a_Node000020"><a xlink:href="../../d0/df7/qps_8blk.html#acf8867d97f0e4f7e4d757b36afeff7b0" target="_top" xlink:title=" ">
<polygon fill="white" stroke="#666666" points="425.88,-19.25 340.12,-19.25 340.12,0 425.88,0 425.88,-19.25"/>
<text text-anchor="middle" x="383" y="-5.75" font-family="Helvetica,sans-Serif" font-size="10.00">qps_m_blk_size</text>
</a>
</g>
</g>
<!-- Node3&#45;&gt;Node20 -->
<g id="edge66_Node000003_Node000020" class="edge">
<title>Node3&#45;&gt;Node20</title>
<g id="a_edge66_Node000003_Node000020"><a xlink:title=" ">
<path fill="none" stroke="#63b8ff" d="M147.03,-605.64C148.55,-544.27 164.33,-214.98 329.25,-33.62 332.09,-30.5 335.42,-27.76 339,-25.35"/>
<polygon fill="#63b8ff" stroke="#63b8ff" points="340.6,-28.47 347.57,-20.49 337.15,-22.38 340.6,-28.47"/>
</a>
</g>
</g>
<!-- Node42 -->
<g id="Node000042" class="node">
<title>Node42</title>
<g id="a_Node000042"><a xlink:href="../../d0/df7/qps_8blk.html#a50c65a6479f3808113a5049dab7a2cb1" target="_top" xlink:title=" ">
<polygon fill="white" stroke="#666666" points="290.25,-644.25 223.25,-644.25 223.25,-625 290.25,-625 290.25,-644.25"/>
<text text-anchor="middle" x="256.75" y="-630.75" font-family="Helvetica,sans-Serif" font-size="10.00">qps_free_ro</text>
</a>
</g>
</g>
<!-- Node3&#45;&gt;Node42 -->
<g id="edge65_Node000003_Node000042" class="edge">
<title>Node3&#45;&gt;Node42</title>
<g id="a_edge65_Node000003_Node000042"><a xlink:title=" ">
<path fill="none" stroke="#63b8ff" d="M184.65,-622.22C193.37,-623.74 202.73,-625.37 211.69,-626.94"/>
<polygon fill="#63b8ff" stroke="#63b8ff" points="210.82,-630.34 221.27,-628.61 212.02,-623.44 210.82,-630.34"/>
</a>
</g>
</g>
<!-- Node4&#45;&gt;Node2 -->
<g id="edge51_Node000004_Node000002" class="edge">
<title>Node4&#45;&gt;Node2</title>
<g id="a_edge51_Node000004_Node000002"><a xlink:title=" ">
<path fill="none" stroke="#63b8ff" d="M258.24,-378.7C260.36,-410.35 271.53,-508.37 329.25,-553.62 395.02,-605.19 432.18,-577.62 515.75,-577.62 515.75,-577.62 515.75,-577.62 651.12,-577.62 746.28,-577.62 856.63,-595.42 916.8,-606.66"/>
<polygon fill="#63b8ff" stroke="#63b8ff" points="915.83,-610.04 926.3,-608.46 917.13,-603.16 915.83,-610.04"/>
</a>
</g>
</g>
<!-- Node5 -->
<g id="Node000005" class="node">
<title>Node5</title>
<g id="a_Node000005"><a xlink:href="../../d8/d37/mem_8blk.html#ab1e585a4f25d3d3c3dd6512cf31f923e" target="_top" xlink:title=" ">
<polygon fill="white" stroke="#666666" points="1188.75,-472.25 1062.5,-472.25 1062.5,-453 1188.75,-453 1188.75,-472.25"/>
<text text-anchor="middle" x="1125.62" y="-458.75" font-family="Helvetica,sans-Serif" font-size="10.00">mem_tool_allow_memory</text>
</a>
</g>
</g>
<!-- Node4&#45;&gt;Node5 -->
<g id="edge4_Node000004_Node000005" class="edge">
<title>Node4&#45;&gt;Node5</title>
<g id="a_edge4_Node000004_Node000005"><a xlink:title=" ">
<path fill="none" stroke="#63b8ff" d="M258.84,-378.41C262.56,-406.55 277.54,-487.81 329.25,-520.62 343.3,-529.54 754.16,-516.86 1026.5,-481.62 1039.94,-479.89 1054.32,-477.44 1067.81,-474.88"/>
<polygon fill="#63b8ff" stroke="#63b8ff" points="1068.26,-478.36 1077.41,-473 1066.92,-471.49 1068.26,-478.36"/>
</a>
</g>
</g>
<!-- Node6 -->
<g id="Node000006" class="node">
<title>Node6</title>
<g id="a_Node000006"><a xlink:href="../../d8/d37/mem_8blk.html#af8615771d110bc75805fb8b43ab6b884" target="_top" xlink:title=" ">
<polygon fill="white" stroke="#666666" points="436.75,-359.25 329.25,-359.25 329.25,-340 436.75,-340 436.75,-359.25"/>
<text text-anchor="middle" x="383" y="-345.75" font-family="Helvetica,sans-Serif" font-size="10.00">mem_tool_malloclike</text>
</a>
</g>
</g>
<!-- Node4&#45;&gt;Node6 -->
<g id="edge5_Node000004_Node000006" class="edge">
<title>Node4&#45;&gt;Node6</title>
<g id="a_edge5_Node000004_Node000006"><a xlink:title=" ">
<path fill="none" stroke="#63b8ff" d="M293.69,-363.13C301.28,-361.97 309.5,-360.71 317.78,-359.45"/>
<polygon fill="#63b8ff" stroke="#63b8ff" points="318.19,-362.92 327.54,-357.95 317.13,-356 318.19,-362.92"/>
</a>
</g>
</g>
<!-- Node4&#45;&gt;Node7 -->
<g id="edge6_Node000004_Node000007" class="edge">
<title>Node4&#45;&gt;Node7</title>
<g id="a_edge6_Node000004_Node000007"><a xlink:title=" ">
<path fill="none" stroke="#63b8ff" d="M259.48,-378.52C265.41,-410.85 286.96,-515.59 329.25,-591.62 338.34,-607.96 352.12,-623.97 363.32,-635.63"/>
<polygon fill="#63b8ff" stroke="#63b8ff" points="360.66,-637.92 370.19,-642.55 365.63,-632.99 360.66,-637.92"/>
</a>
</g>
</g>
<!-- Node9 -->
<g id="Node000009" class="node">
<title>Node9</title>
<g id="a_Node000009"><a xlink:href="../../d4/d36/group__qkv____ll____qps.html#ga308fba36a1e8e39cefd304a3502fbf27" target="_top" xlink:title=" ">
<polygon fill="white" stroke="#666666" points="560,-132.25 473.5,-132.25 473.5,-113 560,-113 560,-132.25"/>
<text text-anchor="middle" x="516.75" y="-118.75" font-family="Helvetica,sans-Serif" font-size="10.00">qps_handle_slot</text>
</a>
</g>
</g>
<!-- Node4&#45;&gt;Node9 -->
<g id="edge9_Node000004_Node000009" class="edge">
<title>Node4&#45;&gt;Node9</title>
<g id="a_edge9_Node000004_Node000009"><a xlink:title=" ">
<path fill="none" stroke="#63b8ff" d="M259.22,-358.71C263.96,-330.01 281.44,-245.9 329.25,-198.62 365.5,-162.78 420.95,-143.12 461.97,-132.82"/>
<polygon fill="#63b8ff" stroke="#63b8ff" points="462.74,-136.24 471.66,-130.52 461.12,-129.43 462.74,-136.24"/>
</a>
</g>
</g>
<!-- Node10 -->
<g id="Node000010" class="node">
<title>Node10</title>
<g id="a_Node000010"><a xlink:href="../../d0/df7/qps_8blk.html#a24e9db3ff8fe371b8eab5f3ef72c8d1e" target="_top" xlink:title=" ">
<polygon fill="white" stroke="#666666" points="1015.25,-95.25 910,-95.25 910,-76 1015.25,-76 1015.25,-95.25"/>
<text text-anchor="middle" x="962.62" y="-81.75" font-family="Helvetica,sans-Serif" font-size="10.00">qps_m_alloc_search</text>
</a>
</g>
</g>
<!-- Node4&#45;&gt;Node10 -->
<g id="edge10_Node000004_Node000010" class="edge">
<title>Node4&#45;&gt;Node10</title>
<g id="a_edge10_Node000004_Node000010"><a xlink:title=" ">
<path fill="none" stroke="#63b8ff" d="M258.87,-358.65C264.19,-313.15 288.32,-125.86 329.25,-86.62 390.38,-28.02 431.07,-47.62 515.75,-47.62 515.75,-47.62 515.75,-47.62 651.12,-47.62 737.78,-47.63 837.05,-62.39 899.53,-73.51"/>
<polygon fill="#63b8ff" stroke="#63b8ff" points="898.81,-76.94 909.27,-75.27 900.05,-70.05 898.81,-76.94"/>
</a>
</g>
</g>
<!-- Node14 -->
<g id="Node000014" class="node">
<title>Node14</title>
<g id="a_Node000014"><a xlink:href="../../d0/df7/qps_8blk.html#aac47713162a865e06093d13528d18805" target="_top" xlink:title=" ">
<polygon fill="white" stroke="#666666" points="436,-227.25 330,-227.25 330,-208 436,-208 436,-227.25"/>
<text text-anchor="middle" x="383" y="-213.75" font-family="Helvetica,sans-Serif" font-size="10.00">qps_m_blk_get_prev</text>
</a>
</g>
</g>
<!-- Node4&#45;&gt;Node14 -->
<g id="edge14_Node000004_Node000014" class="edge">
<title>Node4&#45;&gt;Node14</title>
<g id="a_edge14_Node000004_Node000014"><a xlink:title=" ">
<path fill="none" stroke="#63b8ff" d="M260.35,-358.67C267.27,-334.13 288.46,-270.21 329.25,-235.62 330.19,-234.83 331.17,-234.06 332.18,-233.33"/>
<polygon fill="#63b8ff" stroke="#63b8ff" points="333.77,-236.46 340.63,-228.39 330.23,-230.42 333.77,-236.46"/>
</a>
</g>
</g>
<!-- Node15 -->
<g id="Node000015" class="node">
<title>Node15</title>
<g id="a_Node000015"><a xlink:href="../../d0/df7/qps_8blk.html#abd5469bfd777e0a666e073ef1b8836f0" target="_top" xlink:title=" ">
<polygon fill="white" stroke="#666666" points="847.38,-434.25 754.88,-434.25 754.88,-415 847.38,-415 847.38,-434.25"/>
<text text-anchor="middle" x="801.12" y="-420.75" font-family="Helvetica,sans-Serif" font-size="10.00">qps_m_blk_insert</text>
</a>
</g>
</g>
<!-- Node4&#45;&gt;Node15 -->
<g id="edge15_Node000004_Node000015" class="edge">
<title>Node4&#45;&gt;Node15</title>
<g id="a_edge15_Node000004_Node000015"><a xlink:title=" ">
<path fill="none" stroke="#63b8ff" d="M293.61,-377.03C304.95,-379.45 317.58,-381.9 329.25,-383.62 477.63,-405.57 654.19,-417.08 743.03,-421.87"/>
<polygon fill="#63b8ff" stroke="#63b8ff" points="742.77,-425.36 752.95,-422.39 743.14,-418.37 742.77,-425.36"/>
</a>
</g>
</g>
<!-- Node16 -->
<g id="Node000016" class="node">
<title>Node16</title>
<g id="a_Node000016"><a xlink:href="../../d0/df7/qps_8blk.html#a45e10286111165ca07a194ce56dbbd67" target="_top" xlink:title=" ">
<polygon fill="white" stroke="#666666" points="1005.88,-321.25 919.38,-321.25 919.38,-302 1005.88,-302 1005.88,-321.25"/>
<text text-anchor="middle" x="962.62" y="-307.75" font-family="Helvetica,sans-Serif" font-size="10.00">qps_m_blk_next</text>
</a>
</g>
</g>
<!-- Node4&#45;&gt;Node16 -->
<g id="edge25_Node000004_Node000016" class="edge">
<title>Node4&#45;&gt;Node16</title>
<g id="a_edge25_Node000004_Node000016"><a xlink:title=" ">
<path fill="none" stroke="#63b8ff" d="M272.67,-358.66C286.67,-349.82 308.51,-337.3 329.25,-330.62 488.33,-279.47 536.49,-289.13 703.5,-294.62 774.23,-296.95 855.69,-302.86 907.87,-307.05"/>
<polygon fill="#63b8ff" stroke="#63b8ff" points="907.43,-310.53 917.68,-307.85 908,-303.55 907.43,-310.53"/>
</a>
</g>
</g>
<!-- Node17 -->
<g id="Node000017" class="node">
<title>Node17</title>
<g id="a_Node000017"><a xlink:href="../../d0/df7/qps_8blk.html#ad13a7d6ba59c02e9275e8e1a30730003" target="_top" xlink:title=" ">
<polygon fill="white" stroke="#666666" points="1026.5,-472.25 898.75,-472.25 898.75,-453 1026.5,-453 1026.5,-472.25"/>
<text text-anchor="middle" x="962.62" y="-458.75" font-family="Helvetica,sans-Serif" font-size="10.00">qps_m_blk_set_prev_free</text>
</a>
</g>
</g>
<!-- Node4&#45;&gt;Node17 -->
<g id="edge26_Node000004_Node000017" class="edge">
<title>Node4&#45;&gt;Node17</title>
<g id="a_edge26_Node000004_Node000017"><a xlink:title=" ">
<path fill="none" stroke="#63b8ff" d="M273.02,-378.61C311.84,-403 418.14,-463.62 515.75,-463.62 515.75,-463.62 515.75,-463.62 651.12,-463.62 731.69,-463.62 824.01,-463.28 886.9,-463"/>
<polygon fill="#63b8ff" stroke="#63b8ff" points="886.79,-466.5 896.78,-462.96 886.76,-459.5 886.79,-466.5"/>
</a>
</g>
</g>
<!-- Node4&#45;&gt;Node20 -->
<g id="edge27_Node000004_Node000020" class="edge">
<title>Node4&#45;&gt;Node20</title>
<g id="a_edge27_Node000004_Node000020"><a xlink:title=" ">
<path fill="none" stroke="#63b8ff" d="M259.61,-358.67C269.79,-304.49 318.59,-46.89 329.25,-33.62 331.72,-30.55 334.67,-27.86 337.9,-25.5"/>
<polygon fill="#63b8ff" stroke="#63b8ff" points="339.48,-28.63 346.24,-20.48 335.87,-22.63 339.48,-28.63"/>
</a>
</g>
</g>
<!-- Node21 -->
<g id="Node000021" class="node">
<title>Node21</title>
<g id="a_Node000021"><a xlink:href="../../d0/df7/qps_8blk.html#a2cd77035f2cbbef0d3fba07898c2c526" target="_top" xlink:title=" ">
<polygon fill="white" stroke="#666666" points="558.5,-95.25 475,-95.25 475,-76 558.5,-76 558.5,-95.25"/>
<text text-anchor="middle" x="516.75" y="-81.75" font-family="Helvetica,sans-Serif" font-size="10.00">qps_m_find_blk</text>
</a>
</g>
</g>
<!-- Node4&#45;&gt;Node21 -->
<g id="edge28_Node000004_Node000021" class="edge">
<title>Node4&#45;&gt;Node21</title>
<g id="a_edge28_Node000004_Node000021"><a xlink:title=" ">
<path fill="none" stroke="#63b8ff" d="M257.67,-358.6C257.97,-322.95 263.93,-201.13 329.25,-137.62 364.94,-102.93 421.74,-90.97 463.29,-87.06"/>
<polygon fill="#63b8ff" stroke="#63b8ff" points="463.38,-90.56 473.06,-86.28 462.82,-83.59 463.38,-90.56"/>
</a>
</g>
</g>
<!-- Node23 -->
<g id="Node000023" class="node">
<title>Node23</title>
<g id="a_Node000023"><a xlink:href="../../d0/df7/qps_8blk.html#aaa8d22af4a80b0ece5ad582e8dfe3233" target="_top" xlink:title="QPS map creation helper.">
<polygon fill="white" stroke="#666666" points="560.75,-360.25 472.75,-360.25 472.75,-341 560.75,-341 560.75,-360.25"/>
<text text-anchor="middle" x="516.75" y="-346.75" font-family="Helvetica,sans-Serif" font-size="10.00">qps_map_create</text>
</a>
</g>
</g>
<!-- Node4&#45;&gt;Node23 -->
<g id="edge31_Node000004_Node000023" class="edge">
<title>Node4&#45;&gt;Node23</title>
<g id="a_edge31_Node000004_Node000023"><a xlink:title=" ">
<path fill="none" stroke="#63b8ff" d="M293.54,-370.97C329.77,-372.79 387.34,-374.18 436.75,-368.62 447.12,-367.46 458.11,-365.46 468.49,-363.2"/>
<polygon fill="#63b8ff" stroke="#63b8ff" points="469.03,-366.67 477.99,-361.02 467.46,-359.85 469.03,-366.67"/>
</a>
</g>
</g>
<!-- Node38 -->
<g id="Node000038" class="node">
<title>Node38</title>
<g id="a_Node000038"><a xlink:href="../../d4/d36/group__qkv____ll____qps.html#ga84180dfcbb44d7244b1ec0b81022e09c" target="_top" xlink:title=" ">
<polygon fill="white" stroke="#666666" points="420.25,-511.25 345.75,-511.25 345.75,-492 420.25,-492 420.25,-511.25"/>
<text text-anchor="middle" x="383" y="-497.75" font-family="Helvetica,sans-Serif" font-size="10.00">qps_pg_deref</text>
</a>
</g>
</g>
<!-- Node4&#45;&gt;Node38 -->
<g id="edge52_Node000004_Node000038" class="edge">
<title>Node4&#45;&gt;Node38</title>
<g id="a_edge52_Node000004_Node000038"><a xlink:title=" ">
<path fill="none" stroke="#63b8ff" d="M262,-378.7C271.31,-399.7 295.4,-448.61 329.25,-477.62 333.09,-480.92 337.46,-483.84 342,-486.42"/>
<polygon fill="#63b8ff" stroke="#63b8ff" points="340.22,-489.44 350.72,-490.82 343.37,-483.19 340.22,-489.44"/>
</a>
</g>
</g>
<!-- Node39 -->
<g id="Node000039" class="node">
<title>Node39</title>
<g id="a_Node000039"><a xlink:href="../../d0/df7/qps_8blk.html#a94aced53f8281d60ba32997bc804f766" target="_top" xlink:title=" ">
<polygon fill="white" stroke="#666666" points="426.62,-264.25 339.38,-264.25 339.38,-245 426.62,-245 426.62,-264.25"/>
<text text-anchor="middle" x="383" y="-250.75" font-family="Helvetica,sans-Serif" font-size="10.00">qps_pg_map_int</text>
</a>
</g>
</g>
<!-- Node4&#45;&gt;Node39 -->
<g id="edge53_Node000004_Node000039" class="edge">
<title>Node4&#45;&gt;Node39</title>
<g id="a_edge53_Node000004_Node000039"><a xlink:title=" ">
<path fill="none" stroke="#63b8ff" d="M267.17,-358.67C280.58,-344.65 306.11,-318.46 329.25,-297.62 339.13,-288.73 350.51,-279.35 360.17,-271.63"/>
<polygon fill="#63b8ff" stroke="#63b8ff" points="362.27,-274.43 367.95,-265.48 357.93,-268.94 362.27,-274.43"/>
</a>
</g>
</g>
<!-- Node8 -->
<g id="Node000008" class="node">
<title>Node8</title>
<g id="a_Node000008"><a xlink:href="../../d4/d36/group__qkv____ll____qps.html#ga0cacf28e3b58a4dafde8dd8842d032bd" target="_top" xlink:title=" ">
<polygon fill="white" stroke="#666666" points="547.25,-663.25 486.25,-663.25 486.25,-644 547.25,-644 547.25,-663.25"/>
<text text-anchor="middle" x="516.75" y="-649.75" font-family="Helvetica,sans-Serif" font-size="10.00">qps_pg_of</text>
</a>
</g>
</g>
<!-- Node7&#45;&gt;Node8 -->
<g id="edge7_Node000007_Node000008" class="edge">
<title>Node7&#45;&gt;Node8</title>
<g id="a_edge7_Node000007_Node000008"><a xlink:title=" ">
<path fill="none" stroke="#63b8ff" d="M417.59,-653.62C434.85,-653.62 456.04,-653.62 474.31,-653.62"/>
<polygon fill="#63b8ff" stroke="#63b8ff" points="474.31,-657.13 484.31,-653.63 474.31,-650.13 474.31,-657.13"/>
</a>
</g>
</g>
<!-- Node8&#45;&gt;Node2 -->
<g id="edge8_Node000008_Node000002" class="edge">
<title>Node8&#45;&gt;Node2</title>
<g id="a_edge8_Node000008_Node000002"><a xlink:title=" ">
<path fill="none" stroke="#63b8ff" d="M547.35,-652.28C607.09,-649.4 746.32,-641.9 862.75,-629.62 880.4,-627.76 899.75,-625.15 916.61,-622.69"/>
<polygon fill="#63b8ff" stroke="#63b8ff" points="916.96,-626.17 926.34,-621.24 915.93,-619.25 916.96,-626.17"/>
</a>
</g>
</g>
<!-- Node11 -->
<g id="Node000011" class="node">
<title>Node11</title>
<g id="a_Node000011"><a xlink:href="../../d8/d96/bithacks_8h.html#aa893adf22bc8fa53d8db678eca4151bd" target="_top" xlink:title=" ">
<polygon fill="white" stroke="#666666" points="1145.62,-190.25 1105.62,-190.25 1105.62,-171 1145.62,-171 1145.62,-190.25"/>
<text text-anchor="middle" x="1125.62" y="-176.75" font-family="Helvetica,sans-Serif" font-size="10.00">bsr32</text>
</a>
</g>
</g>
<!-- Node10&#45;&gt;Node11 -->
<g id="edge11_Node000010_Node000011" class="edge">
<title>Node10&#45;&gt;Node11</title>
<g id="a_edge11_Node000010_Node000011"><a xlink:title=" ">
<path fill="none" stroke="#63b8ff" d="M994.72,-95.66C1005.09,-99.49 1016.53,-104.24 1026.5,-109.62 1055.14,-125.11 1085.03,-147.83 1104.19,-163.38"/>
<polygon fill="#63b8ff" stroke="#63b8ff" points="1101.8,-165.95 1111.75,-169.61 1106.26,-160.55 1101.8,-165.95"/>
</a>
</g>
</g>
<!-- Node12 -->
<g id="Node000012" class="node">
<title>Node12</title>
<g id="a_Node000012"><a xlink:href="../../d0/df7/qps_8blk.html#ab588e567193a97732f47325d2d563b0d" target="_top" xlink:title=" ">
<polygon fill="white" stroke="#666666" points="1176.38,-115.25 1074.88,-115.25 1074.88,-96 1176.38,-96 1176.38,-115.25"/>
<text text-anchor="middle" x="1125.62" y="-101.75" font-family="Helvetica,sans-Serif" font-size="10.00">qps_m_l12_minsize</text>
</a>
</g>
</g>
<!-- Node10&#45;&gt;Node12 -->
<g id="edge12_Node000010_Node000012" class="edge">
<title>Node10&#45;&gt;Node12</title>
<g id="a_edge12_Node000010_Node000012"><a xlink:title=" ">
<path fill="none" stroke="#63b8ff" d="M1015.45,-92.06C1030.69,-93.96 1047.51,-96.04 1063.28,-98"/>
<polygon fill="#63b8ff" stroke="#63b8ff" points="1062.68,-101.46 1073.04,-99.22 1063.55,-94.51 1062.68,-101.46"/>
</a>
</g>
</g>
<!-- Node13 -->
<g id="Node000013" class="node">
<title>Node13</title>
<g id="a_Node000013"><a xlink:href="../../d0/df7/qps_8blk.html#af621c0d782e18b33d42b32fd1a1c3412" target="_top" xlink:title=" ">
<polygon fill="white" stroke="#666666" points="1315.75,-208.25 1224.75,-208.25 1224.75,-189 1315.75,-189 1315.75,-208.25"/>
<text text-anchor="middle" x="1270.25" y="-194.75" font-family="Helvetica,sans-Serif" font-size="10.00">qps_m_l12_size_</text>
</a>
</g>
</g>
<!-- Node12&#45;&gt;Node13 -->
<g id="edge13_Node000012_Node000013" class="edge">
<title>Node12&#45;&gt;Node13</title>
<g id="a_edge13_Node000012_Node000013"><a xlink:title=" ">
<path fill="none" stroke="#63b8ff" d="M1141.89,-115.58C1166.44,-131.59 1214.95,-163.22 1244.5,-182.49"/>
<polygon fill="#63b8ff" stroke="#63b8ff" points="1242.54,-185.39 1252.83,-187.92 1246.36,-179.52 1242.54,-185.39"/>
</a>
</g>
</g>
<!-- Node15&#45;&gt;Node5 -->
<g id="edge16_Node000015_Node000005" class="edge">
<title>Node15&#45;&gt;Node5</title>
<g id="a_edge16_Node000015_Node000005"><a xlink:title=" ">
<path fill="none" stroke="#63b8ff" d="M847.84,-427.06C893.29,-429.82 964.93,-435.08 1026.5,-443.62 1039.53,-445.43 1053.44,-447.84 1066.58,-450.32"/>
<polygon fill="#63b8ff" stroke="#63b8ff" points="1065.91,-453.76 1076.39,-452.23 1067.24,-446.89 1065.91,-453.76"/>
</a>
</g>
</g>
<!-- Node15&#45;&gt;Node16 -->
<g id="edge17_Node000015_Node000016" class="edge">
<title>Node15&#45;&gt;Node16</title>
<g id="a_edge17_Node000015_Node000016"><a xlink:title=" ">
<path fill="none" stroke="#63b8ff" d="M847.71,-415.78C853.16,-413.42 858.34,-410.42 862.75,-406.62 891.37,-381.97 870.01,-354.14 898.75,-329.62 901.73,-327.08 905.06,-324.89 908.58,-323.02"/>
<polygon fill="#63b8ff" stroke="#63b8ff" points="909.74,-326.33 917.49,-319.11 906.93,-319.92 909.74,-326.33"/>
</a>
</g>
</g>
<!-- Node15&#45;&gt;Node17 -->
<g id="edge18_Node000015_Node000017" class="edge">
<title>Node15&#45;&gt;Node17</title>
<g id="a_edge18_Node000015_Node000017"><a xlink:title=" ">
<path fill="none" stroke="#63b8ff" d="M844.45,-434.71C864.09,-439.39 887.64,-445 908.46,-449.96"/>
<polygon fill="#63b8ff" stroke="#63b8ff" points="907.37,-453.3 917.91,-452.21 908.99,-446.49 907.37,-453.3"/>
</a>
</g>
</g>
<!-- Node18 -->
<g id="Node000018" class="node">
<title>Node18</title>
<g id="a_Node000018"><a xlink:href="../../d0/df7/qps_8blk.html#aa4d7c6bc420bd73c79720a3111762b89" target="_top" xlink:title=" ">
<polygon fill="white" stroke="#666666" points="1017.12,-358.25 908.12,-358.25 908.12,-339 1017.12,-339 1017.12,-358.25"/>
<text text-anchor="middle" x="962.62" y="-344.75" font-family="Helvetica,sans-Serif" font-size="10.00">qps_m_insert_search</text>
</a>
</g>
</g>
<!-- Node15&#45;&gt;Node18 -->
<g id="edge20_Node000015_Node000018" class="edge">
<title>Node15&#45;&gt;Node18</title>
<g id="a_edge20_Node000015_Node000018"><a xlink:title=" ">
<path fill="none" stroke="#63b8ff" d="M841.11,-414.57C848.41,-412.26 855.9,-409.6 862.75,-406.62 889.52,-395 918.07,-377.66 937.57,-364.97"/>
<polygon fill="#63b8ff" stroke="#63b8ff" points="939.47,-367.91 945.88,-359.47 935.61,-362.07 939.47,-367.91"/>
</a>
</g>
</g>
<!-- Node17&#45;&gt;Node5 -->
<g id="edge19_Node000017_Node000005" class="edge">
<title>Node17&#45;&gt;Node5</title>
<g id="a_edge19_Node000017_Node000005"><a xlink:title=" ">
<path fill="none" stroke="#63b8ff" d="M1026.79,-462.62C1034.7,-462.62 1042.84,-462.62 1050.88,-462.62"/>
<polygon fill="#63b8ff" stroke="#63b8ff" points="1050.65,-466.13 1060.65,-462.63 1050.65,-459.13 1050.65,-466.13"/>
</a>
</g>
</g>
<!-- Node18&#45;&gt;Node11 -->
<g id="edge21_Node000018_Node000011" class="edge">
<title>Node18&#45;&gt;Node11</title>
<g id="a_edge21_Node000018_Node000011"><a xlink:title=" ">
<path fill="none" stroke="#63b8ff" d="M1015.41,-338.55C1019.46,-336.4 1023.24,-333.78 1026.5,-330.62 1064.06,-294.25 1030.18,-259.72 1062.5,-218.62 1071,-207.82 1083.48,-199.34 1095.03,-193.16"/>
<polygon fill="#63b8ff" stroke="#63b8ff" points="1096.46,-196.36 1103.88,-188.79 1093.37,-190.08 1096.46,-196.36"/>
</a>
</g>
</g>
<!-- Node18&#45;&gt;Node12 -->
<g id="edge24_Node000018_Node000012" class="edge">
<title>Node18&#45;&gt;Node12</title>
<g id="a_edge24_Node000018_Node000012"><a xlink:title=" ">
<path fill="none" stroke="#63b8ff" d="M1016.35,-338.56C1020.1,-336.39 1023.56,-333.78 1026.5,-330.62 1078.9,-274.48 1024.11,-228.13 1062.5,-161.62 1071.61,-145.84 1086.73,-132.07 1099.76,-122.13"/>
<polygon fill="#63b8ff" stroke="#63b8ff" points="1101.51,-125.19 1107.55,-116.49 1097.4,-119.53 1101.51,-125.19"/>
</a>
</g>
</g>
<!-- Node19 -->
<g id="Node000019" class="node">
<title>Node19</title>
<g id="a_Node000019"><a xlink:href="../../d0/df7/qps_8blk.html#a3fdf375724fd82f3c3b27a25639e11ff" target="_top" xlink:title=" ">
<polygon fill="white" stroke="#666666" points="1177.5,-321.25 1073.75,-321.25 1073.75,-302 1177.5,-302 1177.5,-321.25"/>
<text text-anchor="middle" x="1125.62" y="-307.75" font-family="Helvetica,sans-Serif" font-size="10.00">qps_m_l12_maxsize</text>
</a>
</g>
</g>
<!-- Node18&#45;&gt;Node19 -->
<g id="edge22_Node000018_Node000019" class="edge">
<title>Node18&#45;&gt;Node19</title>
<g id="a_edge22_Node000018_Node000019"><a xlink:title=" ">
<path fill="none" stroke="#63b8ff" d="M1007.62,-338.51C1026.79,-334.11 1049.46,-328.9 1069.72,-324.24"/>
<polygon fill="#63b8ff" stroke="#63b8ff" points="1070.25,-327.71 1079.21,-322.06 1068.68,-320.89 1070.25,-327.71"/>
</a>
</g>
</g>
<!-- Node19&#45;&gt;Node13 -->
<g id="edge23_Node000019_Node000013" class="edge">
<title>Node19&#45;&gt;Node13</title>
<g id="a_edge23_Node000019_Node000013"><a xlink:title=" ">
<path fill="none" stroke="#63b8ff" d="M1139.28,-301.6C1163.77,-282.2 1217.85,-239.35 1247.96,-215.49"/>
<polygon fill="#63b8ff" stroke="#63b8ff" points="1249.97,-218.36 1255.64,-209.41 1245.63,-212.88 1249.97,-218.36"/>
</a>
</g>
</g>
<!-- Node21&#45;&gt;Node12 -->
<g id="edge30_Node000021_Node000012" class="edge">
<title>Node21&#45;&gt;Node12</title>
<g id="a_edge30_Node000021_Node000012"><a xlink:title=" ">
<path fill="none" stroke="#63b8ff" d="M552.04,-75.51C565.8,-71.95 581.9,-68.39 596.75,-66.62 786.42,-44.14 838.91,-30.71 1026.5,-66.62 1050.69,-71.26 1076.52,-81.77 1095.61,-90.72"/>
<polygon fill="#63b8ff" stroke="#63b8ff" points="1093.84,-93.75 1104.37,-94.95 1096.89,-87.45 1093.84,-93.75"/>
</a>
</g>
</g>
<!-- Node22 -->
<g id="Node000022" class="node">
<title>Node22</title>
<g id="a_Node000022"><a xlink:href="../../d8/d96/bithacks_8h.html#ad499101939162d9ff6a78d271292f890" target="_top" xlink:title=" ">
<polygon fill="white" stroke="#666666" points="670.12,-95.25 630.12,-95.25 630.12,-76 670.12,-76 670.12,-95.25"/>
<text text-anchor="middle" x="650.12" y="-81.75" font-family="Helvetica,sans-Serif" font-size="10.00">bsf32</text>
</a>
</g>
</g>
<!-- Node21&#45;&gt;Node22 -->
<g id="edge29_Node000021_Node000022" class="edge">
<title>Node21&#45;&gt;Node22</title>
<g id="a_edge29_Node000021_Node000022"><a xlink:title=" ">
<path fill="none" stroke="#63b8ff" d="M558.96,-85.62C578.16,-85.62 600.61,-85.62 618.31,-85.62"/>
<polygon fill="#63b8ff" stroke="#63b8ff" points="618.19,-89.13 628.19,-85.63 618.19,-82.13 618.19,-89.13"/>
</a>
</g>
</g>
<!-- Node24 -->
<g id="Node000024" class="node">
<title>Node24</title>
<g id="a_Node000024"><a xlink:href="../../d0/df7/qps_8blk.html#ad3b3f26e8b9d1e80587643a15972ccf8" target="_top" xlink:title=" ">
<polygon fill="white" stroke="#666666" points="703.5,-323.25 596.75,-323.25 596.75,-304 703.5,-304 703.5,-323.25"/>
<text text-anchor="middle" x="650.12" y="-309.75" font-family="Helvetica,sans-Serif" font-size="10.00">qps_m_register_map</text>
</a>
</g>
</g>
<!-- Node23&#45;&gt;Node24 -->
<g id="edge32_Node000023_Node000024" class="edge">
<title>Node23&#45;&gt;Node24</title>
<g id="a_edge32_Node000023_Node000024"><a xlink:title=" ">
<path fill="none" stroke="#63b8ff" d="M553.65,-340.51C568.71,-336.27 586.42,-331.28 602.47,-326.76"/>
<polygon fill="#63b8ff" stroke="#63b8ff" points="603.14,-330.21 611.81,-324.13 601.24,-323.48 603.14,-330.21"/>
</a>
</g>
</g>
<!-- Node25 -->
<g id="Node000025" class="node">
<title>Node25</title>
<g id="a_Node000025"><a xlink:href="../../d0/df7/qps_8blk.html#a03bf6040229c6f7de4f95c5541e2de92" target="_top" xlink:title=" ">
<polygon fill="white" stroke="#666666" points="692.25,-549.25 608,-549.25 608,-530 692.25,-530 692.25,-549.25"/>
<text text-anchor="middle" x="650.12" y="-535.75" font-family="Helvetica,sans-Serif" font-size="10.00">qps_map_bless</text>
</a>
</g>
</g>
<!-- Node23&#45;&gt;Node25 -->
<g id="edge35_Node000023_Node000025" class="edge">
<title>Node23&#45;&gt;Node25</title>
<g id="a_edge35_Node000023_Node000025"><a xlink:title=" ">
<path fill="none" stroke="#63b8ff" d="M524.63,-360.52C545.47,-390.5 608.17,-480.71 635.8,-520.46"/>
<polygon fill="#63b8ff" stroke="#63b8ff" points="632.87,-522.37 641.45,-528.58 638.62,-518.38 632.87,-522.37"/>
</a>
</g>
</g>
<!-- Node27 -->
<g id="Node000027" class="node">
<title>Node27</title>
<g id="a_Node000027"><a xlink:href="../../d0/df7/qps_8blk.html#adb2dd417da85eb496889598fe0a067ec" target="_top" xlink:title=" ">
<polygon fill="white" stroke="#666666" points="696,-397.25 604.25,-397.25 604.25,-378 696,-378 696,-397.25"/>
<text text-anchor="middle" x="650.12" y="-383.75" font-family="Helvetica,sans-Serif" font-size="10.00">qps_map_find_no</text>
</a>
</g>
</g>
<!-- Node23&#45;&gt;Node27 -->
<g id="edge38_Node000023_Node000027" class="edge">
<title>Node23&#45;&gt;Node27</title>
<g id="a_edge38_Node000023_Node000027"><a xlink:title=" ">
<path fill="none" stroke="#63b8ff" d="M553.65,-360.74C568.71,-364.98 586.42,-369.97 602.47,-374.49"/>
<polygon fill="#63b8ff" stroke="#63b8ff" points="601.24,-377.77 611.81,-377.12 603.14,-371.04 601.24,-377.77"/>
</a>
</g>
</g>
<!-- Node29 -->
<g id="Node000029" class="node">
<title>Node29</title>
<g id="a_Node000029"><a xlink:href="../../d0/df7/qps_8blk.html#a2b42fc52cd12961809314b43a518c585" target="_top" xlink:title="Call mprotect() on a given map.">
<polygon fill="white" stroke="#666666" points="695.62,-360.25 604.62,-360.25 604.62,-341 695.62,-341 695.62,-360.25"/>
<text text-anchor="middle" x="650.12" y="-346.75" font-family="Helvetica,sans-Serif" font-size="10.00">qps_map_protect</text>
</a>
</g>
</g>
<!-- Node23&#45;&gt;Node29 -->
<g id="edge40_Node000023_Node000029" class="edge">
<title>Node23&#45;&gt;Node29</title>
<g id="a_edge40_Node000023_Node000029"><a xlink:title=" ">
<path fill="none" stroke="#63b8ff" d="M561.13,-350.62C571.34,-350.62 582.36,-350.62 593.04,-350.62"/>
<polygon fill="#63b8ff" stroke="#63b8ff" points="592.93,-354.13 602.93,-350.63 592.93,-347.13 592.93,-354.13"/>
</a>
</g>
</g>
<!-- Node30 -->
<g id="Node000030" class="node">
<title>Node30</title>
<g id="a_Node000030"><a xlink:href="../../d0/df7/qps_8blk.html#a575067bd9dcc30f47466781b3564fca7" target="_top" xlink:title=" ">
<polygon fill="white" stroke="#666666" points="697.5,-210.25 602.75,-210.25 602.75,-191 697.5,-191 697.5,-210.25"/>
<text text-anchor="middle" x="650.12" y="-196.75" font-family="Helvetica,sans-Serif" font-size="10.00">qps_pg_blk_insert</text>
</a>
</g>
</g>
<!-- Node23&#45;&gt;Node30 -->
<g id="edge41_Node000023_Node000030" class="edge">
<title>Node23&#45;&gt;Node30</title>
<g id="a_edge41_Node000023_Node000030"><a xlink:title=" ">
<path fill="none" stroke="#63b8ff" d="M520.97,-340.75C529.39,-316.39 554.43,-252.94 596.75,-218.62 597.72,-217.84 598.73,-217.08 599.77,-216.36"/>
<polygon fill="#63b8ff" stroke="#63b8ff" points="601.46,-219.42 608.44,-211.45 598.01,-213.33 601.46,-219.42"/>
</a>
</g>
</g>
<!-- Node35 -->
<g id="Node000035" class="node">
<title>Node35</title>
<g id="a_Node000035"><a xlink:href="../../d0/df7/qps_8blk.html#a972305852e9041b9a25d7556a96d99db" target="_top" xlink:title=" ">
<polygon fill="white" stroke="#666666" points="701.62,-247.25 598.62,-247.25 598.62,-228 701.62,-228 701.62,-247.25"/>
<text text-anchor="middle" x="650.12" y="-233.75" font-family="Helvetica,sans-Serif" font-size="10.00">qps_pg_check_hdrs</text>
</a>
</g>
</g>
<!-- Node23&#45;&gt;Node35 -->
<g id="edge48_Node000023_Node000035" class="edge">
<title>Node23&#45;&gt;Node35</title>
<g id="a_edge48_Node000023_Node000035"><a xlink:title=" ">
<path fill="none" stroke="#63b8ff" d="M529.41,-340.6C551.86,-321.28 601.35,-278.72 629.15,-254.8"/>
<polygon fill="#63b8ff" stroke="#63b8ff" points="631.23,-257.63 636.53,-248.46 626.67,-252.32 631.23,-257.63"/>
</a>
</g>
</g>
<!-- Node24&#45;&gt;Node15 -->
<g id="edge33_Node000024_Node000015" class="edge">
<title>Node24&#45;&gt;Node15</title>
<g id="a_edge33_Node000024_Node000015"><a xlink:title=" ">
<path fill="none" stroke="#63b8ff" d="M691.31,-323.63C695.72,-325.8 699.91,-328.43 703.5,-331.62 731.12,-356.2 711.36,-382.64 739.5,-406.62 741.16,-408.04 742.93,-409.35 744.78,-410.55"/>
<polygon fill="#63b8ff" stroke="#63b8ff" points="742.76,-413.44 753.24,-415.03 746.04,-407.26 742.76,-413.44"/>
</a>
</g>
</g>
<!-- Node24&#45;&gt;Node16 -->
<g id="edge34_Node000024_Node000016" class="edge">
<title>Node24&#45;&gt;Node16</title>
<g id="a_edge34_Node000024_Node000016"><a xlink:title=" ">
<path fill="none" stroke="#63b8ff" d="M703.81,-321.96C715.53,-323.49 727.91,-324.84 739.5,-325.62 794.15,-329.32 808.11,-329.47 862.75,-325.62 877.35,-324.6 893.08,-322.72 907.6,-320.68"/>
<polygon fill="#63b8ff" stroke="#63b8ff" points="908.05,-324.15 917.44,-319.23 907.04,-317.22 908.05,-324.15"/>
</a>
</g>
</g>
<!-- Node26 -->
<g id="Node000026" class="node">
<title>Node26</title>
<g id="a_Node000026"><a xlink:href="../../d0/df7/qps_8blk.html#ad761e5267c483809e3ef4d78353e46c8" target="_top" xlink:title=" ">
<polygon fill="white" stroke="#666666" points="844.38,-549.25 757.88,-549.25 757.88,-530 844.38,-530 844.38,-549.25"/>
<text text-anchor="middle" x="801.12" y="-535.75" font-family="Helvetica,sans-Serif" font-size="10.00">qps_smaps_find</text>
</a>
</g>
</g>
<!-- Node25&#45;&gt;Node26 -->
<g id="edge36_Node000025_Node000026" class="edge">
<title>Node25&#45;&gt;Node26</title>
<g id="a_edge36_Node000025_Node000026"><a xlink:title=" ">
<path fill="none" stroke="#63b8ff" d="M692.63,-539.62C709.23,-539.62 728.57,-539.62 746.23,-539.62"/>
<polygon fill="#63b8ff" stroke="#63b8ff" points="746.03,-543.13 756.03,-539.63 746.03,-536.13 746.03,-543.13"/>
</a>
</g>
</g>
<!-- Node26&#45;&gt;Node2 -->
<g id="edge37_Node000026_Node000002" class="edge">
<title>Node26&#45;&gt;Node2</title>
<g id="a_edge37_Node000026_Node000002"><a xlink:title=" ">
<path fill="none" stroke="#63b8ff" d="M829.25,-549.65C839.81,-553.74 851.95,-558.66 862.75,-563.62 887.29,-574.89 914.38,-589.29 933.99,-600.07"/>
<polygon fill="#63b8ff" stroke="#63b8ff" points="932.28,-603.13 942.73,-604.91 935.68,-597 932.28,-603.13"/>
</a>
</g>
</g>
<!-- Node28 -->
<g id="Node000028" class="node">
<title>Node28</title>
<g id="a_Node000028"><a xlink:href="../../d0/df7/qps_8blk.html#ae2d059c91ae591f6022faea01aceb4e4" target="_top" xlink:title="Grow qps&#45;&gt;hdrs.">
<polygon fill="white" stroke="#666666" points="841.75,-397.25 760.5,-397.25 760.5,-378 841.75,-378 841.75,-397.25"/>
<text text-anchor="middle" x="801.12" y="-383.75" font-family="Helvetica,sans-Serif" font-size="10.00">qps_alloc_hdrs</text>
</a>
</g>
</g>
<!-- Node27&#45;&gt;Node28 -->
<g id="edge39_Node000027_Node000028" class="edge">
<title>Node27&#45;&gt;Node28</title>
<g id="a_edge39_Node000027_Node000028"><a xlink:title=" ">
<path fill="none" stroke="#63b8ff" d="M696.23,-387.62C712.8,-387.62 731.67,-387.62 748.74,-387.62"/>
<polygon fill="#63b8ff" stroke="#63b8ff" points="748.71,-391.13 758.71,-387.63 748.71,-384.13 748.71,-391.13"/>
</a>
</g>
</g>
<!-- Node31 -->
<g id="Node000031" class="node">
<title>Node31</title>
<g id="a_Node000031"><a xlink:href="../../d0/df7/qps_8blk.html#a2c4abec8eb5c487882582d0e98e05ade" target="_top" xlink:title=" ">
<polygon fill="white" stroke="#666666" points="856.75,-209.25 745.5,-209.25 745.5,-190 856.75,-190 856.75,-209.25"/>
<text text-anchor="middle" x="801.12" y="-195.75" font-family="Helvetica,sans-Serif" font-size="10.00">qps_pg_insert_search</text>
</a>
</g>
</g>
<!-- Node30&#45;&gt;Node31 -->
<g id="edge42_Node000030_Node000031" class="edge">
<title>Node30&#45;&gt;Node31</title>
<g id="a_edge42_Node000030_Node000031"><a xlink:title=" ">
<path fill="none" stroke="#63b8ff" d="M697.86,-200.31C709.24,-200.23 721.64,-200.15 733.74,-200.07"/>
<polygon fill="#63b8ff" stroke="#63b8ff" points="733.72,-203.57 743.7,-200 733.67,-196.57 733.72,-203.57"/>
</a>
</g>
</g>
<!-- Node31&#45;&gt;Node11 -->
<g id="edge43_Node000031_Node000011" class="edge">
<title>Node31&#45;&gt;Node11</title>
<g id="a_edge43_Node000031_Node000011"><a xlink:title=" ">
<path fill="none" stroke="#63b8ff" d="M857.2,-196.38C925.6,-192.35 1039.9,-185.62 1094.2,-182.42"/>
<polygon fill="#63b8ff" stroke="#63b8ff" points="1094.16,-185.93 1103.93,-181.84 1093.74,-178.94 1094.16,-185.93"/>
</a>
</g>
</g>
<!-- Node32 -->
<g id="Node000032" class="node">
<title>Node32</title>
<g id="a_Node000032"><a xlink:href="../../d0/df7/qps_8blk.html#ab92cf1888f731729d7f0a09ae4ae54b2" target="_top" xlink:title=" ">
<polygon fill="white" stroke="#666666" points="1015.62,-247.25 909.62,-247.25 909.62,-228 1015.62,-228 1015.62,-247.25"/>
<text text-anchor="middle" x="962.62" y="-233.75" font-family="Helvetica,sans-Serif" font-size="10.00">qps_pg_l12_maxsize</text>
</a>
</g>
</g>
<!-- Node31&#45;&gt;Node32 -->
<g id="edge44_Node000031_Node000032" class="edge">
<title>Node31&#45;&gt;Node32</title>
<g id="a_edge44_Node000031_Node000032"><a xlink:title=" ">
<path fill="none" stroke="#63b8ff" d="M844.45,-209.71C864.09,-214.39 887.64,-220 908.46,-224.96"/>
<polygon fill="#63b8ff" stroke="#63b8ff" points="907.37,-228.3 917.91,-227.21 908.99,-221.49 907.37,-228.3"/>
</a>
</g>
</g>
<!-- Node34 -->
<g id="Node000034" class="node">
<title>Node34</title>
<g id="a_Node000034"><a xlink:href="../../d0/df7/qps_8blk.html#a9a5da8030436e76f943293ef3560d448" target="_top" xlink:title=" ">
<polygon fill="white" stroke="#666666" points="1014.5,-171.25 910.75,-171.25 910.75,-152 1014.5,-152 1014.5,-171.25"/>
<text text-anchor="middle" x="962.62" y="-157.75" font-family="Helvetica,sans-Serif" font-size="10.00">qps_pg_l12_minsize</text>
</a>
</g>
</g>
<!-- Node31&#45;&gt;Node34 -->
<g id="edge46_Node000031_Node000034" class="edge">
<title>Node31&#45;&gt;Node34</title>
<g id="a_edge46_Node000031_Node000034"><a xlink:title=" ">
<path fill="none" stroke="#63b8ff" d="M844.45,-189.54C864.09,-184.86 887.64,-179.25 908.46,-174.29"/>
<polygon fill="#63b8ff" stroke="#63b8ff" points="908.99,-177.76 917.91,-172.04 907.37,-170.95 908.99,-177.76"/>
</a>
</g>
</g>
<!-- Node33 -->
<g id="Node000033" class="node">
<title>Node33</title>
<g id="a_Node000033"><a xlink:href="../../d0/df7/qps_8blk.html#ad90632123992c6bfc6c0b0e8a025ad0f" target="_top" xlink:title=" ">
<polygon fill="white" stroke="#666666" points="1172.25,-247.25 1079,-247.25 1079,-228 1172.25,-228 1172.25,-247.25"/>
<text text-anchor="middle" x="1125.62" y="-233.75" font-family="Helvetica,sans-Serif" font-size="10.00">qps_pg_l12_size_</text>
</a>
</g>
</g>
<!-- Node32&#45;&gt;Node33 -->
<g id="edge45_Node000032_Node000033" class="edge">
<title>Node32&#45;&gt;Node33</title>
<g id="a_edge45_Node000032_Node000033"><a xlink:title=" ">
<path fill="none" stroke="#63b8ff" d="M1015.9,-237.62C1032.31,-237.62 1050.51,-237.62 1067.26,-237.62"/>
<polygon fill="#63b8ff" stroke="#63b8ff" points="1067.07,-241.13 1077.07,-237.63 1067.07,-234.13 1067.07,-241.13"/>
</a>
</g>
</g>
<!-- Node34&#45;&gt;Node33 -->
<g id="edge47_Node000034_Node000033" class="edge">
<title>Node34&#45;&gt;Node33</title>
<g id="a_edge47_Node000034_Node000033"><a xlink:title=" ">
<path fill="none" stroke="#63b8ff" d="M985,-171.72C1012.75,-184.81 1061.37,-207.77 1093.28,-222.83"/>
<polygon fill="#63b8ff" stroke="#63b8ff" points="1091.51,-225.86 1102.04,-226.97 1094.5,-219.53 1091.51,-225.86"/>
</a>
</g>
</g>
<!-- Node36 -->
<g id="Node000036" class="node">
<title>Node36</title>
<g id="a_Node000036"><a xlink:href="../../d4/d36/group__qkv____ll____qps.html#gaa507338ada19859a3ba017b22d76e811" target="_top" xlink:title=" ">
<polygon fill="white" stroke="#666666" points="843.25,-283.25 759,-283.25 759,-264 843.25,-264 843.25,-283.25"/>
<text text-anchor="middle" x="801.12" y="-269.75" font-family="Helvetica,sans-Serif" font-size="10.00">qps_map_is_pg</text>
</a>
</g>
</g>
<!-- Node35&#45;&gt;Node36 -->
<g id="edge49_Node000035_Node000036" class="edge">
<title>Node35&#45;&gt;Node36</title>
<g id="a_edge49_Node000035_Node000036"><a xlink:title=" ">
<path fill="none" stroke="#63b8ff" d="M693.03,-247.75C709.91,-251.83 729.58,-256.58 747.42,-260.89"/>
<polygon fill="#63b8ff" stroke="#63b8ff" points="746.52,-264.28 757.07,-263.22 748.17,-257.47 746.52,-264.28"/>
</a>
</g>
</g>
<!-- Node37 -->
<g id="Node000037" class="node">
<title>Node37</title>
<g id="a_Node000037"><a xlink:href="../../d0/df7/qps_8blk.html#ab930dc4663abef79893c55e6081d1f87" target="_top" xlink:title=" ">
<polygon fill="white" stroke="#666666" points="862.75,-246.25 739.5,-246.25 739.5,-227 862.75,-227 862.75,-246.25"/>
<text text-anchor="middle" x="801.12" y="-232.75" font-family="Helvetica,sans-Serif" font-size="10.00">qps_pg_check_hdrs_aux</text>
</a>
</g>
</g>
<!-- Node35&#45;&gt;Node37 -->
<g id="edge50_Node000035_Node000037" class="edge">
<title>Node35&#45;&gt;Node37</title>
<g id="a_edge50_Node000035_Node000037"><a xlink:title=" ">
<path fill="none" stroke="#63b8ff" d="M701.99,-237.28C710.31,-237.23 719.07,-237.17 727.8,-237.11"/>
<polygon fill="#63b8ff" stroke="#63b8ff" points="727.71,-240.61 737.69,-237.04 727.66,-233.61 727.71,-240.61"/>
</a>
</g>
</g>
<!-- Node39&#45;&gt;Node9 -->
<g id="edge54_Node000039_Node000009" class="edge">
<title>Node39&#45;&gt;Node9</title>
<g id="a_edge54_Node000039_Node000009"><a xlink:title=" ">
<path fill="none" stroke="#63b8ff" d="M425.54,-244.56C429.64,-242.4 433.49,-239.79 436.75,-236.62 469.45,-204.89 441.14,-173.45 472.75,-140.62 473.22,-140.13 473.71,-139.65 474.22,-139.19"/>
<polygon fill="#63b8ff" stroke="#63b8ff" points="476,-142.21 482.11,-133.56 471.94,-136.51 476,-142.21"/>
</a>
</g>
</g>
<!-- Node39&#45;&gt;Node23 -->
<g id="edge55_Node000039_Node000023" class="edge">
<title>Node39&#45;&gt;Node23</title>
<g id="a_edge55_Node000039_Node000023"><a xlink:title=" ">
<path fill="none" stroke="#63b8ff" d="M397.6,-264.54C420.09,-280.92 465.25,-313.83 492.76,-333.87"/>
<polygon fill="#63b8ff" stroke="#63b8ff" points="490.66,-336.67 500.8,-339.73 494.78,-331.01 490.66,-336.67"/>
</a>
</g>
</g>
<!-- Node39&#45;&gt;Node30 -->
<g id="edge59_Node000039_Node000030" class="edge">
<title>Node39&#45;&gt;Node30</title>
<g id="a_edge59_Node000039_Node000030"><a xlink:title=" ">
<path fill="none" stroke="#63b8ff" d="M426.89,-245.89C471.49,-236.81 541.57,-222.53 591.1,-212.44"/>
<polygon fill="#63b8ff" stroke="#63b8ff" points="591.69,-215.89 600.79,-210.47 590.29,-209.04 591.69,-215.89"/>
</a>
</g>
</g>
<!-- Node39&#45;&gt;Node35 -->
<g id="edge60_Node000039_Node000035" class="edge">
<title>Node39&#45;&gt;Node35</title>
<g id="a_edge60_Node000039_Node000035"><a xlink:title=" ">
<path fill="none" stroke="#63b8ff" d="M426.93,-254.69C462.77,-254.44 515.16,-253.35 560.75,-249.62 569.23,-248.93 578.13,-247.98 586.9,-246.92"/>
<polygon fill="#63b8ff" stroke="#63b8ff" points="587.31,-250.4 596.79,-245.66 586.42,-243.45 587.31,-250.4"/>
</a>
</g>
</g>
<!-- Node40 -->
<g id="Node000040" class="node">
<title>Node40</title>
<g id="a_Node000040"><a xlink:href="../../d0/df7/qps_8blk.html#a2e81157a28f3051912633951d24c355f" target="_top" xlink:title=" ">
<polygon fill="white" stroke="#666666" points="854.88,-133.25 747.38,-133.25 747.38,-114 854.88,-114 854.88,-133.25"/>
<text text-anchor="middle" x="801.12" y="-119.75" font-family="Helvetica,sans-Serif" font-size="10.00">qps_pg_alloc_search</text>
</a>
</g>
</g>
<!-- Node39&#45;&gt;Node40 -->
<g id="edge56_Node000039_Node000040" class="edge">
<title>Node39&#45;&gt;Node40</title>
<g id="a_edge56_Node000039_Node000040"><a xlink:title=" ">
<path fill="none" stroke="#63b8ff" d="M416.76,-244.58C423.47,-242.21 430.41,-239.52 436.75,-236.62 453.6,-228.93 455.7,-222.86 472.75,-215.62 561.77,-177.88 670.88,-150.78 737.93,-136.15"/>
<polygon fill="#63b8ff" stroke="#63b8ff" points="738.62,-139.58 747.66,-134.05 737.15,-132.74 738.62,-139.58"/>
</a>
</g>
</g>
<!-- Node41 -->
<g id="Node000041" class="node">
<title>Node41</title>
<g id="a_Node000041"><a xlink:href="../../d0/df7/qps_8blk.html#a1458bd73ecefb95eeb987ea8d85f7eba" target="_top" xlink:title=" ">
<polygon fill="white" stroke="#666666" points="559.62,-169.25 473.88,-169.25 473.88,-150 559.62,-150 559.62,-169.25"/>
<text text-anchor="middle" x="516.75" y="-155.75" font-family="Helvetica,sans-Serif" font-size="10.00">qps_pg_find_blk</text>
</a>
</g>
</g>
<!-- Node39&#45;&gt;Node41 -->
<g id="edge61_Node000039_Node000041" class="edge">
<title>Node39&#45;&gt;Node41</title>
<g id="a_edge61_Node000039_Node000041"><a xlink:title=" ">
<path fill="none" stroke="#63b8ff" d="M422.94,-244.61C427.85,-242.43 432.59,-239.79 436.75,-236.62 459.39,-219.36 451.75,-202.86 472.75,-183.62 476.06,-180.59 479.82,-177.8 483.71,-175.26"/>
<polygon fill="#63b8ff" stroke="#63b8ff" points="485.3,-178.39 492.14,-170.3 481.75,-172.36 485.3,-178.39"/>
</a>
</g>
</g>
<!-- Node40&#45;&gt;Node11 -->
<g id="edge57_Node000040_Node000011" class="edge">
<title>Node40&#45;&gt;Node11</title>
<g id="a_edge57_Node000040_Node000011"><a xlink:title=" ">
<path fill="none" stroke="#63b8ff" d="M855.37,-123.89C901.25,-125.12 968.98,-129.34 1026.5,-142.62 1050.16,-148.09 1075.7,-158.12 1094.79,-166.51"/>
<polygon fill="#63b8ff" stroke="#63b8ff" points="1093.29,-169.67 1103.85,-170.59 1096.17,-163.29 1093.29,-169.67"/>
</a>
</g>
</g>
<!-- Node40&#45;&gt;Node34 -->
<g id="edge58_Node000040_Node000034" class="edge">
<title>Node40&#45;&gt;Node34</title>
<g id="a_edge58_Node000040_Node000034"><a xlink:title=" ">
<path fill="none" stroke="#63b8ff" d="M844.45,-133.71C864.09,-138.39 887.64,-144 908.46,-148.96"/>
<polygon fill="#63b8ff" stroke="#63b8ff" points="907.37,-152.3 917.91,-151.21 908.99,-145.49 907.37,-152.3"/>
</a>
</g>
</g>
<!-- Node41&#45;&gt;Node22 -->
<g id="edge62_Node000041_Node000022" class="edge">
<title>Node41&#45;&gt;Node22</title>
<g id="a_edge62_Node000041_Node000022"><a xlink:title=" ">
<path fill="none" stroke="#63b8ff" d="M545.72,-149.5C550.87,-147.2 556.09,-144.56 560.75,-141.62 578.87,-130.23 578.82,-121.32 596.75,-109.62 603.81,-105.02 611.9,-100.84 619.57,-97.32"/>
<polygon fill="#63b8ff" stroke="#63b8ff" points="620.83,-100.58 628.61,-93.39 618.04,-94.16 620.83,-100.58"/>
</a>
</g>
</g>
<!-- Node41&#45;&gt;Node34 -->
<g id="edge63_Node000041_Node000034" class="edge">
<title>Node41&#45;&gt;Node34</title>
<g id="a_edge63_Node000041_Node000034"><a xlink:title=" ">
<path fill="none" stroke="#63b8ff" d="M559.91,-159.81C638.35,-160.17 807.09,-160.93 898.94,-161.34"/>
<polygon fill="#63b8ff" stroke="#63b8ff" points="898.76,-164.84 908.78,-161.39 898.79,-157.84 898.76,-164.84"/>
</a>
</g>
</g>
</g>
</svg>
