<?xml version="1.0" encoding="UTF-8" standalone="no"?>
<!DOCTYPE svg PUBLIC "-//W3C//DTD SVG 1.1//EN"
 "http://www.w3.org/Graphics/SVG/1.1/DTD/svg11.dtd">
<!-- Generated by graphviz version 9.0.0 (20230911.1827)
 -->
<!-- Title: __qps_check_maps Pages: 1 -->
<svg width="595pt" height="175pt"
 viewBox="0.00 0.00 595.00 175.25" xmlns="http://www.w3.org/2000/svg" xmlns:xlink="http://www.w3.org/1999/xlink">
<g id="graph0" class="graph" transform="scale(1 1) rotate(0) translate(4 171.25)">
<title>__qps_check_maps</title>
<!-- Node1 -->
<g id="Node000001" class="node">
<title>Node1</title>
<g id="a_Node000001"><a xlink:title=" ">
<polygon fill="#999999" stroke="#666666" points="103,-56.25 0,-56.25 0,-37 103,-37 103,-56.25"/>
<text text-anchor="middle" x="51.5" y="-42.75" font-family="Helvetica,sans-Serif" font-size="10.00">__qps_check_maps</text>
</a>
</g>
</g>
<!-- Node2 -->
<g id="Node000002" class="node">
<title>Node2</title>
<g id="a_Node000002"><a xlink:href="../../d0/df7/qps_8blk.html#a6789c0daf66c4d470defaadb7c9de169" target="_top" xlink:title=" ">
<polygon fill="white" stroke="#666666" points="251,-93.25 150.25,-93.25 150.25,-74 251,-74 251,-93.25"/>
<text text-anchor="middle" x="200.62" y="-79.75" font-family="Helvetica,sans-Serif" font-size="10.00">qps_m_check_map</text>
</a>
</g>
</g>
<!-- Node1&#45;&gt;Node2 -->
<g id="edge1_Node000001_Node000002" class="edge">
<title>Node1&#45;&gt;Node2</title>
<g id="a_edge1_Node000001_Node000002"><a xlink:title=" ">
<path fill="none" stroke="#63b8ff" d="M92.7,-56.74C109.89,-61.06 130.17,-66.16 148.42,-70.75"/>
<polygon fill="#63b8ff" stroke="#63b8ff" points="147.45,-74.11 158,-73.16 149.16,-67.32 147.45,-74.11"/>
</a>
</g>
</g>
<!-- Node10 -->
<g id="Node000010" class="node">
<title>Node10</title>
<g id="a_Node000010"><a xlink:href="../../d4/d36/group__qkv____ll____qps.html#gaa507338ada19859a3ba017b22d76e811" target="_top" xlink:title=" ">
<polygon fill="white" stroke="#666666" points="242.75,-56.25 158.5,-56.25 158.5,-37 242.75,-37 242.75,-56.25"/>
<text text-anchor="middle" x="200.62" y="-42.75" font-family="Helvetica,sans-Serif" font-size="10.00">qps_map_is_pg</text>
</a>
</g>
</g>
<!-- Node1&#45;&gt;Node10 -->
<g id="edge9_Node000001_Node000010" class="edge">
<title>Node1&#45;&gt;Node10</title>
<g id="a_edge9_Node000001_Node000010"><a xlink:title=" ">
<path fill="none" stroke="#63b8ff" d="M103.13,-46.62C117.3,-46.62 132.73,-46.62 147.01,-46.62"/>
<polygon fill="#63b8ff" stroke="#63b8ff" points="146.65,-50.13 156.65,-46.63 146.65,-43.13 146.65,-50.13"/>
</a>
</g>
</g>
<!-- Node11 -->
<g id="Node000011" class="node">
<title>Node11</title>
<g id="a_Node000011"><a xlink:href="../../d0/df7/qps_8blk.html#ab930dc4663abef79893c55e6081d1f87" target="_top" xlink:title=" ">
<polygon fill="white" stroke="#666666" points="262.25,-19.25 139,-19.25 139,0 262.25,0 262.25,-19.25"/>
<text text-anchor="middle" x="200.62" y="-5.75" font-family="Helvetica,sans-Serif" font-size="10.00">qps_pg_check_hdrs_aux</text>
</a>
</g>
</g>
<!-- Node1&#45;&gt;Node11 -->
<g id="edge10_Node000001_Node000011" class="edge">
<title>Node1&#45;&gt;Node11</title>
<g id="a_edge10_Node000001_Node000011"><a xlink:title=" ">
<path fill="none" stroke="#63b8ff" d="M92.7,-36.51C109.89,-32.19 130.17,-27.09 148.42,-22.5"/>
<polygon fill="#63b8ff" stroke="#63b8ff" points="149.16,-25.93 158,-20.09 147.45,-19.14 149.16,-25.93"/>
</a>
</g>
</g>
<!-- Node3 -->
<g id="Node000003" class="node">
<title>Node3</title>
<g id="a_Node000003"><a xlink:href="../../de/ddd/mem-ring_8c.html#a4adb2327c305325713c2510082fcd536" target="_top" xlink:title=" ">
<polygon fill="white" stroke="#666666" points="366.38,-167.25 316.62,-167.25 316.62,-148 366.38,-148 366.38,-167.25"/>
<text text-anchor="middle" x="341.5" y="-153.75" font-family="Helvetica,sans-Serif" font-size="10.00">blk_end</text>
</a>
</g>
</g>
<!-- Node2&#45;&gt;Node3 -->
<g id="edge2_Node000002_Node000003" class="edge">
<title>Node2&#45;&gt;Node3</title>
<g id="a_edge2_Node000002_Node000003"><a xlink:title=" ">
<path fill="none" stroke="#63b8ff" d="M217.37,-93.55C236.22,-105.25 268.95,-124.96 298.25,-139.62 300.66,-140.83 303.16,-142.03 305.7,-143.2"/>
<polygon fill="#63b8ff" stroke="#63b8ff" points="304.2,-146.37 314.75,-147.23 307.04,-139.97 304.2,-146.37"/>
</a>
</g>
</g>
<!-- Node4 -->
<g id="Node000004" class="node">
<title>Node4</title>
<g id="a_Node000004"><a xlink:href="../../d0/df7/qps_8blk.html#a1edfd18dd6234ddc5adac45724a920ed" target="_top" xlink:title=" ">
<polygon fill="white" stroke="#666666" points="375.75,-130.25 307.25,-130.25 307.25,-111 375.75,-111 375.75,-130.25"/>
<text text-anchor="middle" x="341.5" y="-116.75" font-family="Helvetica,sans-Serif" font-size="10.00">qps_encode</text>
</a>
</g>
</g>
<!-- Node2&#45;&gt;Node4 -->
<g id="edge3_Node000002_Node000004" class="edge">
<title>Node2&#45;&gt;Node4</title>
<g id="a_edge3_Node000002_Node000004"><a xlink:title=" ">
<path fill="none" stroke="#63b8ff" d="M239.57,-93.74C257,-98.38 277.78,-103.91 295.94,-108.75"/>
<polygon fill="#63b8ff" stroke="#63b8ff" points="294.83,-112.08 305.4,-111.27 296.64,-105.32 294.83,-112.08"/>
</a>
</g>
</g>
<!-- Node7 -->
<g id="Node000007" class="node">
<title>Node7</title>
<g id="a_Node000007"><a xlink:href="../../d4/d36/group__qkv____ll____qps.html#ga308fba36a1e8e39cefd304a3502fbf27" target="_top" xlink:title=" ">
<polygon fill="white" stroke="#666666" points="384.75,-93.25 298.25,-93.25 298.25,-74 384.75,-74 384.75,-93.25"/>
<text text-anchor="middle" x="341.5" y="-79.75" font-family="Helvetica,sans-Serif" font-size="10.00">qps_handle_slot</text>
</a>
</g>
</g>
<!-- Node2&#45;&gt;Node7 -->
<g id="edge6_Node000002_Node000007" class="edge">
<title>Node2&#45;&gt;Node7</title>
<g id="a_edge6_Node000002_Node000007"><a xlink:title=" ">
<path fill="none" stroke="#63b8ff" d="M251.37,-83.62C262.81,-83.62 275.03,-83.62 286.64,-83.62"/>
<polygon fill="#63b8ff" stroke="#63b8ff" points="286.47,-87.13 296.47,-83.63 286.47,-80.13 286.47,-87.13"/>
</a>
</g>
</g>
<!-- Node8 -->
<g id="Node000008" class="node">
<title>Node8</title>
<g id="a_Node000008"><a xlink:href="../../d0/df7/qps_8blk.html#a45e10286111165ca07a194ce56dbbd67" target="_top" xlink:title=" ">
<polygon fill="white" stroke="#666666" points="384.75,-56.25 298.25,-56.25 298.25,-37 384.75,-37 384.75,-56.25"/>
<text text-anchor="middle" x="341.5" y="-42.75" font-family="Helvetica,sans-Serif" font-size="10.00">qps_m_blk_next</text>
</a>
</g>
</g>
<!-- Node2&#45;&gt;Node8 -->
<g id="edge7_Node000002_Node000008" class="edge">
<title>Node2&#45;&gt;Node8</title>
<g id="a_edge7_Node000002_Node000008"><a xlink:title=" ">
<path fill="none" stroke="#63b8ff" d="M239.57,-73.51C255.65,-69.23 274.58,-64.19 291.68,-59.63"/>
<polygon fill="#63b8ff" stroke="#63b8ff" points="292.37,-63.07 301.14,-57.11 290.57,-56.31 292.37,-63.07"/>
</a>
</g>
</g>
<!-- Node9 -->
<g id="Node000009" class="node">
<title>Node9</title>
<g id="a_Node000009"><a xlink:href="../../d0/df7/qps_8blk.html#acf8867d97f0e4f7e4d757b36afeff7b0" target="_top" xlink:title=" ">
<polygon fill="white" stroke="#666666" points="384.38,-19.25 298.62,-19.25 298.62,0 384.38,0 384.38,-19.25"/>
<text text-anchor="middle" x="341.5" y="-5.75" font-family="Helvetica,sans-Serif" font-size="10.00">qps_m_blk_size</text>
</a>
</g>
</g>
<!-- Node2&#45;&gt;Node9 -->
<g id="edge8_Node000002_Node000009" class="edge">
<title>Node2&#45;&gt;Node9</title>
<g id="a_edge8_Node000002_Node000009"><a xlink:title=" ">
<path fill="none" stroke="#63b8ff" d="M245.54,-73.6C251.37,-71.42 257.1,-68.78 262.25,-65.62 282.08,-53.45 279.15,-40.91 298.25,-27.62 299.6,-26.69 301.01,-25.78 302.45,-24.91"/>
<polygon fill="#63b8ff" stroke="#63b8ff" points="303.81,-28.15 311.03,-20.39 300.55,-21.96 303.81,-28.15"/>
</a>
</g>
</g>
<!-- Node5 -->
<g id="Node000005" class="node">
<title>Node5</title>
<g id="a_Node000005"><a xlink:href="../../d4/d36/group__qkv____ll____qps.html#ga0cacf28e3b58a4dafde8dd8842d032bd" target="_top" xlink:title=" ">
<polygon fill="white" stroke="#666666" points="481.75,-130.25 420.75,-130.25 420.75,-111 481.75,-111 481.75,-130.25"/>
<text text-anchor="middle" x="451.25" y="-116.75" font-family="Helvetica,sans-Serif" font-size="10.00">qps_pg_of</text>
</a>
</g>
</g>
<!-- Node4&#45;&gt;Node5 -->
<g id="edge4_Node000004_Node000005" class="edge">
<title>Node4&#45;&gt;Node5</title>
<g id="a_edge4_Node000004_Node000005"><a xlink:title=" ">
<path fill="none" stroke="#63b8ff" d="M376,-120.62C386.44,-120.62 398.07,-120.62 408.97,-120.62"/>
<polygon fill="#63b8ff" stroke="#63b8ff" points="408.91,-124.13 418.91,-120.63 408.91,-117.13 408.91,-124.13"/>
</a>
</g>
</g>
<!-- Node6 -->
<g id="Node000006" class="node">
<title>Node6</title>
<g id="a_Node000006"><a xlink:href="../../d4/d36/group__qkv____ll____qps.html#ga764bdc449f42c744648a47799fc40354" target="_top" xlink:title=" ">
<polygon fill="white" stroke="#666666" points="587,-130.25 517.75,-130.25 517.75,-111 587,-111 587,-130.25"/>
<text text-anchor="middle" x="552.38" y="-116.75" font-family="Helvetica,sans-Serif" font-size="10.00">qps_map_of</text>
</a>
</g>
</g>
<!-- Node5&#45;&gt;Node6 -->
<g id="edge5_Node000005_Node000006" class="edge">
<title>Node5&#45;&gt;Node6</title>
<g id="a_edge5_Node000005_Node000006"><a xlink:title=" ">
<path fill="none" stroke="#63b8ff" d="M481.99,-120.62C489.59,-120.62 497.93,-120.62 506.11,-120.62"/>
<polygon fill="#63b8ff" stroke="#63b8ff" points="505.97,-124.13 515.97,-120.63 505.97,-117.13 505.97,-124.13"/>
</a>
</g>
</g>
</g>
</svg>
