<?xml version="1.0" encoding="UTF-8" standalone="no"?>
<!DOCTYPE svg PUBLIC "-//W3C//DTD SVG 1.1//EN"
 "http://www.w3.org/Graphics/SVG/1.1/DTD/svg11.dtd">
<!-- Generated by graphviz version 9.0.0 (20230911.1827)
 -->
<!-- Title: print_type_field Pages: 1 -->
<svg width="1618pt" height="448pt"
 viewBox="0.00 0.00 1618.25 448.01" xmlns="http://www.w3.org/2000/svg" xmlns:xlink="http://www.w3.org/1999/xlink">
<g id="graph0" class="graph" transform="scale(1 1) rotate(0) translate(4 444.01)">
<title>print_type_field</title>
<!-- Node1 -->
<g id="Node000001" class="node">
<title>Node1</title>
<g id="a_Node000001"><a xlink:title=" ">
<polygon fill="#999999" stroke="#666666" points="80.5,-307.01 0,-307.01 0,-287.76 80.5,-287.76 80.5,-307.01"/>
<text text-anchor="middle" x="40.25" y="-293.51" font-family="Helvetica,sans-Serif" font-size="10.00">print_type_field</text>
</a>
</g>
</g>
<!-- Node2 -->
<g id="Node000002" class="node">
<title>Node2</title>
<g id="a_Node000002"><a xlink:href="../../d5/d5d/pxcc_8c.html#adcd8a723a877cfee5ab6a5c3ed581be7" target="_top" xlink:title=" ">
<polygon fill="white" stroke="#666666" points="206,-307.01 116.5,-307.01 116.5,-287.76 206,-287.76 206,-307.01"/>
<text text-anchor="middle" x="161.25" y="-293.51" font-family="Helvetica,sans-Serif" font-size="10.00">print_field_cursor</text>
</a>
</g>
</g>
<!-- Node1&#45;&gt;Node2 -->
<g id="edge1_Node000001_Node000002" class="edge">
<title>Node1&#45;&gt;Node2</title>
<g id="a_edge1_Node000001_Node000002"><a xlink:title=" ">
<path fill="none" stroke="#63b8ff" d="M80.88,-297.39C88.6,-297.39 96.82,-297.39 104.94,-297.39"/>
<polygon fill="#63b8ff" stroke="#63b8ff" points="104.77,-300.89 114.77,-297.39 104.77,-293.89 104.77,-300.89"/>
</a>
</g>
</g>
<!-- Node3 -->
<g id="Node000003" class="node">
<title>Node3</title>
<g id="a_Node000003"><a xlink:href="../../d5/d5d/pxcc_8c.html#a136c786d4c472298618e0a21582c0447" target="_top" xlink:title=" ">
<polygon fill="white" stroke="#666666" points="342.75,-307.01 242,-307.01 242,-287.76 342.75,-287.76 342.75,-307.01"/>
<text text-anchor="middle" x="292.38" y="-293.51" font-family="Helvetica,sans-Serif" font-size="10.00">print_field_definition</text>
</a>
</g>
</g>
<!-- Node2&#45;&gt;Node3 -->
<g id="edge2_Node000002_Node000003" class="edge">
<title>Node2&#45;&gt;Node3</title>
<g id="a_edge2_Node000002_Node000003"><a xlink:title=" ">
<path fill="none" stroke="#63b8ff" d="M206.33,-297.39C214.07,-297.39 222.26,-297.39 230.37,-297.39"/>
<polygon fill="#63b8ff" stroke="#63b8ff" points="230.22,-300.89 240.22,-297.39 230.22,-293.89 230.22,-300.89"/>
</a>
</g>
</g>
<!-- Node4 -->
<g id="Node000004" class="node">
<title>Node4</title>
<g id="a_Node000004"><a xlink:href="../../d5/d5d/pxcc_8c.html#aa2080e968f7c3fee977708369ac6657b" target="_top" xlink:title=" ">
<polygon fill="white" stroke="#666666" points="784.5,-384.01 684.5,-384.01 684.5,-364.76 784.5,-364.76 784.5,-384.01"/>
<text text-anchor="middle" x="734.5" y="-370.51" font-family="Helvetica,sans-Serif" font-size="10.00">t_concat_print_field</text>
</a>
</g>
</g>
<!-- Node3&#45;&gt;Node4 -->
<g id="edge3_Node000003_Node000004" class="edge">
<title>Node3&#45;&gt;Node4</title>
<g id="a_edge3_Node000003_Node000004"><a xlink:title=" ">
<path fill="none" stroke="#63b8ff" d="M309.03,-307.42C325.64,-317.54 352.98,-332.72 378.75,-340.39 478.74,-370.14 600.91,-375.45 672.67,-375.61"/>
<polygon fill="#63b8ff" stroke="#63b8ff" points="672.66,-379.11 682.65,-375.59 672.65,-372.11 672.66,-379.11"/>
</a>
</g>
</g>
<!-- Node51 -->
<g id="Node000051" class="node">
<title>Node51</title>
<g id="a_Node000051"><a xlink:href="../../d5/d5d/pxcc_8c.html#a402917fae2335aa226b39cf0d0d021b4" target="_top" xlink:title=" ">
<polygon fill="white" stroke="#666666" points="799.88,-43.01 669.12,-43.01 669.12,-23.76 799.88,-23.76 799.88,-43.01"/>
<text text-anchor="middle" x="734.5" y="-29.51" font-family="Helvetica,sans-Serif" font-size="10.00">t_escape_cython_keyword</text>
</a>
</g>
</g>
<!-- Node3&#45;&gt;Node51 -->
<g id="edge21_Node000003_Node000051" class="edge">
<title>Node3&#45;&gt;Node51</title>
<g id="a_edge21_Node000003_Node000051"><a xlink:title=" ">
<path fill="none" stroke="#63b8ff" d="M297.01,-287.37C313.11,-244.73 382.54,-77.85 503.5,-17.39 565.65,13.67 649.26,-4.74 696.66,-19.82"/>
<polygon fill="#63b8ff" stroke="#63b8ff" points="695.3,-23.06 705.89,-22.88 697.5,-16.42 695.3,-23.06"/>
</a>
</g>
</g>
<!-- Node54 -->
<g id="Node000054" class="node">
<title>Node54</title>
<g id="a_Node000054"><a xlink:href="../../d5/d5d/pxcc_8c.html#a472abe8312054297199f0b2d13b2e679" target="_top" xlink:title=" ">
<polygon fill="white" stroke="#666666" points="467.5,-224.01 378.75,-224.01 378.75,-204.76 467.5,-204.76 467.5,-224.01"/>
<text text-anchor="middle" x="423.12" y="-210.51" font-family="Helvetica,sans-Serif" font-size="10.00">t_print_field_type</text>
</a>
</g>
</g>
<!-- Node3&#45;&gt;Node54 -->
<g id="edge24_Node000003_Node000054" class="edge">
<title>Node3&#45;&gt;Node54</title>
<g id="a_edge24_Node000003_Node000054"><a xlink:title=" ">
<path fill="none" stroke="#63b8ff" d="M308.91,-287.38C330.75,-273.29 370.8,-247.47 396.94,-230.62"/>
<polygon fill="#63b8ff" stroke="#63b8ff" points="398.76,-233.62 405.27,-225.26 394.97,-227.73 398.76,-233.62"/>
</a>
</g>
</g>
<!-- Node74 -->
<g id="Node000074" class="node">
<title>Node74</title>
<g id="a_Node000074"><a xlink:href="../../d5/d5d/pxcc_8c.html#aaa9081891a63d915bd8590cdcc1a0a08" target="_top" xlink:title=" ">
<polygon fill="white" stroke="#666666" points="789,-329.01 680,-329.01 680,-309.76 789,-309.76 789,-329.01"/>
<text text-anchor="middle" x="734.5" y="-315.51" font-family="Helvetica,sans-Serif" font-size="10.00">t_pxcc_print_field_init</text>
</a>
</g>
</g>
<!-- Node3&#45;&gt;Node74 -->
<g id="edge57_Node000003_Node000074" class="edge">
<title>Node3&#45;&gt;Node74</title>
<g id="a_edge57_Node000003_Node000074"><a xlink:title=" ">
<path fill="none" stroke="#63b8ff" d="M332.93,-307.48C374.92,-317.63 443.38,-332.58 503.5,-338.39 555.7,-343.44 569.24,-342.79 621.5,-338.39 638.43,-336.96 656.64,-334.35 673.36,-331.5"/>
<polygon fill="#63b8ff" stroke="#63b8ff" points="673.93,-334.96 683.17,-329.77 672.71,-328.06 673.93,-334.96"/>
</a>
</g>
</g>
<!-- Node5 -->
<g id="Node000005" class="node">
<title>Node5</title>
<g id="a_Node000005"><a xlink:href="../../de/d04/str-l_8c.html#a49b35b84a1a9fa526ae7e85113606097" target="_top" xlink:title="In&#45;place version of t_lstr_ascii_reverse.">
<polygon fill="white" stroke="#666666" points="957.25,-403.01 864.75,-403.01 864.75,-383.76 957.25,-383.76 957.25,-403.01"/>
<text text-anchor="middle" x="911" y="-389.51" font-family="Helvetica,sans-Serif" font-size="10.00">lstr_ascii_reverse</text>
</a>
</g>
</g>
<!-- Node4&#45;&gt;Node5 -->
<g id="edge4_Node000004_Node000005" class="edge">
<title>Node4&#45;&gt;Node5</title>
<g id="a_edge4_Node000004_Node000005"><a xlink:title=" ">
<path fill="none" stroke="#63b8ff" d="M784.57,-379.73C805.86,-382.05 830.93,-384.78 853.03,-387.19"/>
<polygon fill="#63b8ff" stroke="#63b8ff" points="852.46,-390.65 862.78,-388.25 853.22,-383.69 852.46,-390.65"/>
</a>
</g>
</g>
<!-- Node6 -->
<g id="Node000006" class="node">
<title>Node6</title>
<g id="a_Node000006"><a xlink:href="../../dc/d31/str-buf_8h.html#a7316e7a5a9583e6f0df48e14574ccff6" target="_top" xlink:title=" ">
<polygon fill="white" stroke="#666666" points="940,-366.01 882,-366.01 882,-346.76 940,-346.76 940,-366.01"/>
<text text-anchor="middle" x="911" y="-352.51" font-family="Helvetica,sans-Serif" font-size="10.00">sb_addsb</text>
</a>
</g>
</g>
<!-- Node4&#45;&gt;Node6 -->
<g id="edge5_Node000004_Node000006" class="edge">
<title>Node4&#45;&gt;Node6</title>
<g id="a_edge5_Node000004_Node000006"><a xlink:title=" ">
<path fill="none" stroke="#63b8ff" d="M784.57,-369.33C811.64,-366.54 844.81,-363.11 870.24,-360.49"/>
<polygon fill="#63b8ff" stroke="#63b8ff" points="870.59,-363.97 880.18,-359.47 869.87,-357.01 870.59,-363.97"/>
</a>
</g>
</g>
<!-- Node7 -->
<g id="Node000007" class="node">
<title>Node7</title>
<g id="a_Node000007"><a xlink:href="../../dc/d31/str-buf_8h.html#a6e739817e8e91ceaace33c4817e67ac6" target="_top" xlink:title=" ">
<polygon fill="white" stroke="#666666" points="1078.25,-366.01 1030.75,-366.01 1030.75,-346.76 1078.25,-346.76 1078.25,-366.01"/>
<text text-anchor="middle" x="1054.5" y="-352.51" font-family="Helvetica,sans-Serif" font-size="10.00">sb_add</text>
</a>
</g>
</g>
<!-- Node6&#45;&gt;Node7 -->
<g id="edge6_Node000006_Node000007" class="edge">
<title>Node6&#45;&gt;Node7</title>
<g id="a_edge6_Node000006_Node000007"><a xlink:title=" ">
<path fill="none" stroke="#63b8ff" d="M940.29,-356.39C962.92,-356.39 994.75,-356.39 1018.9,-356.39"/>
<polygon fill="#63b8ff" stroke="#63b8ff" points="1018.88,-359.89 1028.88,-356.39 1018.88,-352.89 1018.88,-359.89"/>
</a>
</g>
</g>
<!-- Node8 -->
<g id="Node000008" class="node">
<title>Node8</title>
<g id="a_Node000008"><a xlink:href="../../dc/d31/str-buf_8h.html#a69537528c954fce98e3d2cb92232ffe8" target="_top" xlink:title=" ">
<polygon fill="white" stroke="#666666" points="1209.38,-366.01 1143.88,-366.01 1143.88,-346.76 1209.38,-346.76 1209.38,-366.01"/>
<text text-anchor="middle" x="1176.62" y="-352.51" font-family="Helvetica,sans-Serif" font-size="10.00">sb_growlen</text>
</a>
</g>
</g>
<!-- Node7&#45;&gt;Node8 -->
<g id="edge7_Node000007_Node000008" class="edge">
<title>Node7&#45;&gt;Node8</title>
<g id="a_edge7_Node000007_Node000008"><a xlink:title=" ">
<path fill="none" stroke="#63b8ff" d="M1078.66,-356.39C1093.76,-356.39 1113.94,-356.39 1131.98,-356.39"/>
<polygon fill="#63b8ff" stroke="#63b8ff" points="1131.94,-359.89 1141.94,-356.39 1131.94,-352.89 1131.94,-359.89"/>
</a>
</g>
</g>
<!-- Node9 -->
<g id="Node000009" class="node">
<title>Node9</title>
<g id="a_Node000009"><a xlink:href="../../dc/d31/str-buf_8h.html#a5019d1298a6a5b4f8ae0b645bb8bc627" target="_top" xlink:title=" ">
<polygon fill="white" stroke="#666666" points="1318.75,-329.01 1254.75,-329.01 1254.75,-309.76 1318.75,-309.76 1318.75,-329.01"/>
<text text-anchor="middle" x="1286.75" y="-315.51" font-family="Helvetica,sans-Serif" font-size="10.00">__sb_fixlen</text>
</a>
</g>
</g>
<!-- Node8&#45;&gt;Node9 -->
<g id="edge8_Node000008_Node000009" class="edge">
<title>Node8&#45;&gt;Node9</title>
<g id="a_edge8_Node000008_Node000009"><a xlink:title=" ">
<path fill="none" stroke="#63b8ff" d="M1207.17,-346.28C1218.97,-342.24 1232.75,-337.53 1245.44,-333.18"/>
<polygon fill="#63b8ff" stroke="#63b8ff" points="1246.48,-336.53 1254.81,-329.98 1244.21,-329.9 1246.48,-336.53"/>
</a>
</g>
</g>
<!-- Node11 -->
<g id="Node000011" class="node">
<title>Node11</title>
<g id="a_Node000011"><a xlink:href="../../d4/d02/str-buf_8c.html#a96e2e5252e81ed31e7071e4db76085b5" target="_top" xlink:title=" ">
<polygon fill="white" stroke="#666666" points="1318.38,-366.01 1255.12,-366.01 1255.12,-346.76 1318.38,-346.76 1318.38,-366.01"/>
<text text-anchor="middle" x="1286.75" y="-352.51" font-family="Helvetica,sans-Serif" font-size="10.00">__sb_grow</text>
</a>
</g>
</g>
<!-- Node8&#45;&gt;Node11 -->
<g id="edge10_Node000008_Node000011" class="edge">
<title>Node8&#45;&gt;Node11</title>
<g id="a_edge10_Node000008_Node000011"><a xlink:title=" ">
<path fill="none" stroke="#63b8ff" d="M1209.77,-356.39C1220.31,-356.39 1232.18,-356.39 1243.35,-356.39"/>
<polygon fill="#63b8ff" stroke="#63b8ff" points="1243.14,-359.89 1253.14,-356.39 1243.14,-352.89 1243.14,-359.89"/>
</a>
</g>
</g>
<!-- Node50 -->
<g id="Node000050" class="node">
<title>Node50</title>
<g id="a_Node000050"><a xlink:href="../../dc/d31/str-buf_8h.html#acd3f1b7a3fde32b199cf24fdb133b4ce" target="_top" xlink:title=" ">
<polygon fill="white" stroke="#666666" points="1310.5,-403.01 1263,-403.01 1263,-383.76 1310.5,-383.76 1310.5,-403.01"/>
<text text-anchor="middle" x="1286.75" y="-389.51" font-family="Helvetica,sans-Serif" font-size="10.00">sb_end</text>
</a>
</g>
</g>
<!-- Node8&#45;&gt;Node50 -->
<g id="edge20_Node000008_Node000050" class="edge">
<title>Node8&#45;&gt;Node50</title>
<g id="a_edge20_Node000008_Node000050"><a xlink:title=" ">
<path fill="none" stroke="#63b8ff" d="M1207.17,-366.5C1221.12,-371.27 1237.84,-376.99 1252.26,-381.93"/>
<polygon fill="#63b8ff" stroke="#63b8ff" points="1250.73,-385.1 1261.32,-385.03 1252.99,-378.48 1250.73,-385.1"/>
</a>
</g>
</g>
<!-- Node10 -->
<g id="Node000010" class="node">
<title>Node10</title>
<g id="a_Node000010"><a xlink:href="../../dc/d31/str-buf_8h.html#a01c1a4f8ed76b6a919595b803c7d7376" target="_top" xlink:title=" ">
<polygon fill="white" stroke="#666666" points="1449.12,-292.01 1364.88,-292.01 1364.88,-272.76 1449.12,-272.76 1449.12,-292.01"/>
<text text-anchor="middle" x="1407" y="-278.51" font-family="Helvetica,sans-Serif" font-size="10.00">sb_set_trailing0</text>
</a>
</g>
</g>
<!-- Node9&#45;&gt;Node10 -->
<g id="edge9_Node000009_Node000010" class="edge">
<title>Node9&#45;&gt;Node10</title>
<g id="a_edge9_Node000009_Node000010"><a xlink:title=" ">
<path fill="none" stroke="#63b8ff" d="M1319.13,-309.57C1332.54,-305.37 1348.42,-300.41 1362.91,-295.87"/>
<polygon fill="#63b8ff" stroke="#63b8ff" points="1363.71,-299.29 1372.21,-292.96 1361.62,-292.61 1363.71,-299.29"/>
</a>
</g>
</g>
<!-- Node12 -->
<g id="Node000012" class="node">
<title>Node12</title>
<g id="a_Node000012"><a xlink:href="../../d7/df8/log_8c.html#abca342edf91a9b45f7a17ef564fa8a53" target="_top" xlink:title=" ">
<polygon fill="white" stroke="#666666" points="1431.88,-329.01 1382.12,-329.01 1382.12,-309.76 1431.88,-309.76 1431.88,-329.01"/>
<text text-anchor="middle" x="1407" y="-315.51" font-family="Helvetica,sans-Serif" font-size="10.00">e_panic</text>
</a>
</g>
</g>
<!-- Node11&#45;&gt;Node12 -->
<g id="edge11_Node000011_Node000012" class="edge">
<title>Node11&#45;&gt;Node12</title>
<g id="a_edge11_Node000011_Node000012"><a xlink:title=" ">
<path fill="none" stroke="#63b8ff" d="M1318.82,-346.67C1334.83,-341.66 1354.42,-335.53 1370.97,-330.35"/>
<polygon fill="#63b8ff" stroke="#63b8ff" points="1371.91,-333.72 1380.41,-327.4 1369.82,-327.04 1371.91,-333.72"/>
</a>
</g>
</g>
<!-- Node36 -->
<g id="Node000036" class="node">
<title>Node36</title>
<g id="a_Node000036"><a xlink:href="../../d9/d9a/mem_8h.html#a3fd6d5b3dcb24f194848ce86f988fb13" target="_top" xlink:title=" ">
<polygon fill="white" stroke="#666666" points="1434.5,-440.01 1379.5,-440.01 1379.5,-420.76 1434.5,-420.76 1434.5,-440.01"/>
<text text-anchor="middle" x="1407" y="-426.51" font-family="Helvetica,sans-Serif" font-size="10.00">mp_ipool</text>
</a>
</g>
</g>
<!-- Node11&#45;&gt;Node36 -->
<g id="edge15_Node000011_Node000036" class="edge">
<title>Node11&#45;&gt;Node36</title>
<g id="a_edge15_Node000011_Node000036"><a xlink:title=" ">
<path fill="none" stroke="#63b8ff" d="M1307,-366.42C1311.02,-368.82 1315.14,-371.53 1318.75,-374.39 1337,-388.82 1335.23,-399.74 1354.75,-412.39 1359,-415.15 1363.73,-417.54 1368.55,-419.6"/>
<polygon fill="#63b8ff" stroke="#63b8ff" points="1367.07,-422.78 1377.66,-423.06 1369.55,-416.24 1367.07,-422.78"/>
</a>
</g>
</g>
<!-- Node37 -->
<g id="Node000037" class="node">
<title>Node37</title>
<g id="a_Node000037"><a xlink:href="../../d9/d9a/mem_8h.html#a15958df365e5c2cc90a6c0c3e7e0e74f" target="_top" xlink:title=" ">
<polygon fill="white" stroke="#666666" points="1459.25,-403.01 1354.75,-403.01 1354.75,-383.76 1459.25,-383.76 1459.25,-403.01"/>
<text text-anchor="middle" x="1407" y="-389.51" font-family="Helvetica,sans-Serif" font-size="10.00">mp_irealloc_fallback</text>
</a>
</g>
</g>
<!-- Node11&#45;&gt;Node37 -->
<g id="edge16_Node000011_Node000037" class="edge">
<title>Node11&#45;&gt;Node37</title>
<g id="a_edge16_Node000011_Node000037"><a xlink:title=" ">
<path fill="none" stroke="#63b8ff" d="M1318.82,-366.11C1332.34,-370.34 1348.41,-375.37 1363.05,-379.95"/>
<polygon fill="#63b8ff" stroke="#63b8ff" points="1361.87,-383.25 1372.46,-382.89 1363.96,-376.57 1361.87,-383.25"/>
</a>
</g>
</g>
<!-- Node49 -->
<g id="Node000049" class="node">
<title>Node49</title>
<g id="a_Node000049"><a xlink:href="../../d4/d02/str-buf_8c.html#a63ddc4121cc8fbd2d5fd2a6d65a24feb" target="_top" xlink:title=" ">
<polygon fill="white" stroke="#666666" points="1450.25,-366.01 1363.75,-366.01 1363.75,-346.76 1450.25,-346.76 1450.25,-366.01"/>
<text text-anchor="middle" x="1407" y="-352.51" font-family="Helvetica,sans-Serif" font-size="10.00">sb_destroy_skip</text>
</a>
</g>
</g>
<!-- Node11&#45;&gt;Node49 -->
<g id="edge19_Node000011_Node000049" class="edge">
<title>Node11&#45;&gt;Node49</title>
<g id="a_edge19_Node000011_Node000049"><a xlink:title=" ">
<path fill="none" stroke="#63b8ff" d="M1318.82,-356.39C1329.08,-356.39 1340.82,-356.39 1352.28,-356.39"/>
<polygon fill="#63b8ff" stroke="#63b8ff" points="1352.07,-359.89 1362.07,-356.39 1352.07,-352.89 1352.07,-359.89"/>
</a>
</g>
</g>
<!-- Node13 -->
<g id="Node000013" class="node">
<title>Node13</title>
<g id="a_Node000013"><a xlink:href="../../d7/df8/log_8c.html#a4bc04f7baa1e064cb0b93c7b9f3a61a1" target="_top" xlink:title=" ">
<polygon fill="#fff0f0" stroke="red" points="1596.75,-366.01 1508.75,-366.01 1508.75,-346.76 1596.75,-346.76 1596.75,-366.01"/>
<text text-anchor="middle" x="1552.75" y="-352.51" font-family="Helvetica,sans-Serif" font-size="10.00">__logger_refresh</text>
</a>
</g>
</g>
<!-- Node12&#45;&gt;Node13 -->
<g id="edge12_Node000012_Node000013" class="edge">
<title>Node12&#45;&gt;Node13</title>
<g id="a_edge12_Node000012_Node000013"><a xlink:title=" ">
<path fill="none" stroke="#63b8ff" d="M1432.06,-325.58C1451.04,-330.47 1478.15,-337.44 1501.77,-343.53"/>
<polygon fill="#63b8ff" stroke="#63b8ff" points="1500.66,-346.85 1511.22,-345.96 1502.41,-340.08 1500.66,-346.85"/>
</a>
</g>
</g>
<!-- Node31 -->
<g id="Node000031" class="node">
<title>Node31</title>
<g id="a_Node000031"><a xlink:href="../../d7/df8/log_8c.html#a900490b26df7698aac12f7f7e6517e81" target="_top" xlink:title=" ">
<polygon fill="#fff0f0" stroke="red" points="1585.5,-329.01 1520,-329.01 1520,-309.76 1585.5,-309.76 1585.5,-329.01"/>
<text text-anchor="middle" x="1552.75" y="-315.51" font-family="Helvetica,sans-Serif" font-size="10.00">logger_vlog</text>
</a>
</g>
</g>
<!-- Node12&#45;&gt;Node31 -->
<g id="edge13_Node000012_Node000031" class="edge">
<title>Node12&#45;&gt;Node31</title>
<g id="a_edge13_Node000012_Node000031"><a xlink:title=" ">
<path fill="none" stroke="#63b8ff" d="M1432.06,-319.39C1452.76,-319.39 1483.14,-319.39 1508.12,-319.39"/>
<polygon fill="#63b8ff" stroke="#63b8ff" points="1508,-322.89 1518,-319.39 1508,-315.89 1508,-322.89"/>
</a>
</g>
</g>
<!-- Node35 -->
<g id="Node000035" class="node">
<title>Node35</title>
<g id="a_Node000035"><a xlink:href="../../d2/d4d/file_8h.html#a25419a391fdd4ad7954699c58cfeb3b9" target="_top" xlink:title=" ">
<polygon fill="white" stroke="#666666" points="1578.38,-292.01 1527.12,-292.01 1527.12,-272.76 1578.38,-272.76 1578.38,-292.01"/>
<text text-anchor="middle" x="1552.75" y="-278.51" font-family="Helvetica,sans-Serif" font-size="10.00">va_start</text>
</a>
</g>
</g>
<!-- Node12&#45;&gt;Node35 -->
<g id="edge14_Node000012_Node000035" class="edge">
<title>Node12&#45;&gt;Node35</title>
<g id="a_edge14_Node000012_Node000035"><a xlink:title=" ">
<path fill="none" stroke="#63b8ff" d="M1432.06,-313.2C1454.9,-307.32 1489.52,-298.41 1515.66,-291.68"/>
<polygon fill="#63b8ff" stroke="#63b8ff" points="1516.37,-295.11 1525.18,-289.23 1514.62,-288.33 1516.37,-295.11"/>
</a>
</g>
</g>
<!-- Node38 -->
<g id="Node000038" class="node">
<title>Node38</title>
<g id="a_Node000038"><a xlink:href="../../d8/d37/mem_8blk.html#a2fa974dc4e9f038e5bc400eb689b74b4" target="_top" xlink:title=" ">
<polygon fill="#fff0f0" stroke="red" points="1610.25,-440.01 1495.25,-440.01 1495.25,-420.76 1610.25,-420.76 1610.25,-440.01"/>
<text text-anchor="middle" x="1552.75" y="-426.51" font-family="Helvetica,sans-Serif" font-size="10.00">__mp_irealloc_fallback</text>
</a>
</g>
</g>
<!-- Node37&#45;&gt;Node38 -->
<g id="edge17_Node000037_Node000038" class="edge">
<title>Node37&#45;&gt;Node38</title>
<g id="a_edge17_Node000037_Node000038"><a xlink:title=" ">
<path fill="none" stroke="#63b8ff" d="M1447.28,-403.5C1464,-407.8 1483.7,-412.87 1501.46,-417.45"/>
<polygon fill="#63b8ff" stroke="#63b8ff" points="1500.49,-420.81 1511.05,-419.91 1502.24,-414.03 1500.49,-420.81"/>
</a>
</g>
</g>
<!-- Node44 -->
<g id="Node000044" class="node">
<title>Node44</title>
<g id="a_Node000044"><a xlink:href="../../d9/d9a/mem_8h.html#ae99e17ad0b27e94e8a00c8af9734a0e7" target="_top" xlink:title=" ">
<polygon fill="#fff0f0" stroke="red" points="1609.12,-403.01 1496.38,-403.01 1496.38,-383.76 1609.12,-383.76 1609.12,-403.01"/>
<text text-anchor="middle" x="1552.75" y="-389.51" font-family="Helvetica,sans-Serif" font-size="10.00">icheck_alloc_constant</text>
</a>
</g>
</g>
<!-- Node37&#45;&gt;Node44 -->
<g id="edge18_Node000037_Node000044" class="edge">
<title>Node37&#45;&gt;Node44</title>
<g id="a_edge18_Node000037_Node000044"><a xlink:title=" ">
<path fill="none" stroke="#63b8ff" d="M1459.49,-393.39C1467.69,-393.39 1476.27,-393.39 1484.76,-393.39"/>
<polygon fill="#63b8ff" stroke="#63b8ff" points="1484.73,-396.89 1494.73,-393.39 1484.73,-389.89 1484.73,-396.89"/>
</a>
</g>
</g>
<!-- Node52 -->
<g id="Node000052" class="node">
<title>Node52</title>
<g id="a_Node000052"><a xlink:href="../../d5/d5d/pxcc_8c.html#aaf9b232ee24252e11ed47821f50935e3" target="_top" xlink:title=" ">
<polygon fill="white" stroke="#666666" points="967,-48.64 855,-48.64 855,-18.14 967,-18.14 967,-48.64"/>
<text text-anchor="start" x="863" y="-35.14" font-family="Helvetica,sans-Serif" font-size="10.00">is_cython_keyword_to</text>
<text text-anchor="middle" x="911" y="-23.89" font-family="Helvetica,sans-Serif" font-size="10.00">_escape</text>
</a>
</g>
</g>
<!-- Node51&#45;&gt;Node52 -->
<g id="edge22_Node000051_Node000052" class="edge">
<title>Node51&#45;&gt;Node52</title>
<g id="a_edge22_Node000051_Node000052"><a xlink:title=" ">
<path fill="none" stroke="#63b8ff" d="M799.98,-33.39C814.15,-33.39 829.19,-33.39 843.44,-33.39"/>
<polygon fill="#63b8ff" stroke="#63b8ff" points="843.16,-36.89 853.16,-33.39 843.16,-29.89 843.16,-36.89"/>
</a>
</g>
</g>
<!-- Node53 -->
<g id="Node000053" class="node">
<title>Node53</title>
<g id="a_Node000053"><a xlink:href="../../d5/d5d/pxcc_8c.html#a7408547107f601ccce93c052e287c207" target="_top" xlink:title=" ">
<polygon fill="white" stroke="#666666" points="974.5,-86.01 847.5,-86.01 847.5,-66.76 974.5,-66.76 974.5,-86.01"/>
<text text-anchor="middle" x="911" y="-72.51" font-family="Helvetica,sans-Serif" font-size="10.00">t_format_cython_keyword</text>
</a>
</g>
</g>
<!-- Node51&#45;&gt;Node53 -->
<g id="edge23_Node000051_Node000053" class="edge">
<title>Node51&#45;&gt;Node53</title>
<g id="a_edge23_Node000051_Node000053"><a xlink:title=" ">
<path fill="none" stroke="#63b8ff" d="M776.41,-43.47C800.83,-49.49 832.06,-57.19 858.19,-63.62"/>
<polygon fill="#63b8ff" stroke="#63b8ff" points="857.03,-66.94 867.57,-65.93 858.7,-60.14 857.03,-66.94"/>
</a>
</g>
</g>
<!-- Node55 -->
<g id="Node000055" class="node">
<title>Node55</title>
<g id="a_Node000055"><a xlink:href="../../d5/d5d/pxcc_8c.html#a5b65a2b2ccb7f7fc0c5d83fa34f6db73" target="_top" xlink:title=" ">
<polygon fill="white" stroke="#666666" points="608.75,-46.01 516.25,-46.01 516.25,-26.76 608.75,-26.76 608.75,-46.01"/>
<text text-anchor="middle" x="562.5" y="-32.51" font-family="Helvetica,sans-Serif" font-size="10.00">t_print_array_type</text>
</a>
</g>
</g>
<!-- Node54&#45;&gt;Node55 -->
<g id="edge25_Node000054_Node000055" class="edge">
<title>Node54&#45;&gt;Node55</title>
<g id="a_edge25_Node000054_Node000055"><a xlink:title=" ">
<path fill="none" stroke="#63b8ff" d="M426.18,-204.44C432.48,-176.46 454.17,-96.42 503.5,-54.39 504.42,-53.6 505.38,-52.85 506.37,-52.13"/>
<polygon fill="#63b8ff" stroke="#63b8ff" points="507.76,-55.37 514.59,-47.28 504.2,-49.34 507.76,-55.37"/>
</a>
</g>
</g>
<!-- Node56 -->
<g id="Node000056" class="node">
<title>Node56</title>
<g id="a_Node000056"><a xlink:href="../../d5/d5d/pxcc_8c.html#ac24379ff55b6e7839d3062ff1e4ff495" target="_top" xlink:title=" ">
<polygon fill="white" stroke="#666666" points="607.25,-292.01 517.75,-292.01 517.75,-272.76 607.25,-272.76 607.25,-292.01"/>
<text text-anchor="middle" x="562.5" y="-278.51" font-family="Helvetica,sans-Serif" font-size="10.00">t_print_bool_type</text>
</a>
</g>
</g>
<!-- Node54&#45;&gt;Node56 -->
<g id="edge26_Node000054_Node000056" class="edge">
<title>Node54&#45;&gt;Node56</title>
<g id="a_edge26_Node000054_Node000056"><a xlink:title=" ">
<path fill="none" stroke="#63b8ff" d="M438.18,-224.49C453.61,-235.24 479.41,-252.2 503.5,-263.39 507.44,-265.22 511.61,-266.95 515.83,-268.57"/>
<polygon fill="#63b8ff" stroke="#63b8ff" points="514.31,-271.74 524.9,-271.83 516.68,-265.16 514.31,-271.74"/>
</a>
</g>
</g>
<!-- Node57 -->
<g id="Node000057" class="node">
<title>Node57</title>
<g id="a_Node000057"><a xlink:href="../../d5/d5d/pxcc_8c.html#a26476f8be153eb80c96deaa09f895a10" target="_top" xlink:title=" ">
<polygon fill="white" stroke="#666666" points="618.88,-120.01 506.12,-120.01 506.12,-100.76 618.88,-100.76 618.88,-120.01"/>
<text text-anchor="middle" x="562.5" y="-106.51" font-family="Helvetica,sans-Serif" font-size="10.00">t_print_canonical_type</text>
</a>
</g>
</g>
<!-- Node54&#45;&gt;Node57 -->
<g id="edge27_Node000054_Node000057" class="edge">
<title>Node54&#45;&gt;Node57</title>
<g id="a_edge27_Node000054_Node000057"><a xlink:title=" ">
<path fill="none" stroke="#63b8ff" d="M430.72,-204.3C442.95,-186.39 470.86,-149 503.5,-128.39 505.37,-127.21 507.33,-126.1 509.34,-125.06"/>
<polygon fill="#63b8ff" stroke="#63b8ff" points="510.67,-128.3 518.37,-121.03 507.81,-121.91 510.67,-128.3"/>
</a>
</g>
</g>
<!-- Node73 -->
<g id="Node000073" class="node">
<title>Node73</title>
<g id="a_Node000073"><a xlink:href="../../d5/d5d/pxcc_8c.html#a1c19ef23dc79b7c7f3a0bc08a88bb46f" target="_top" xlink:title=" ">
<polygon fill="white" stroke="#666666" points="615.5,-329.01 509.5,-329.01 509.5,-309.76 615.5,-309.76 615.5,-329.01"/>
<text text-anchor="middle" x="562.5" y="-315.51" font-family="Helvetica,sans-Serif" font-size="10.00">t_print_function_type</text>
</a>
</g>
</g>
<!-- Node54&#45;&gt;Node73 -->
<g id="edge42_Node000054_Node000073" class="edge">
<title>Node54&#45;&gt;Node73</title>
<g id="a_edge42_Node000054_Node000073"><a xlink:title=" ">
<path fill="none" stroke="#63b8ff" d="M434.81,-224.28C448.49,-241.12 473.99,-273.64 503.5,-292.39 512.81,-298.31 524.2,-302.39 534.41,-305.77"/>
<polygon fill="#63b8ff" stroke="#63b8ff" points="533.24,-309.07 543.83,-308.87 535.43,-302.42 533.24,-309.07"/>
</a>
</g>
</g>
<!-- Node78 -->
<g id="Node000078" class="node">
<title>Node78</title>
<g id="a_Node000078"><a xlink:href="../../d5/d5d/pxcc_8c.html#a53470ed7b61ecd93cad7ddfef79cc26f" target="_top" xlink:title=" ">
<polygon fill="white" stroke="#666666" points="613.25,-254.64 511.75,-254.64 511.75,-224.14 613.25,-224.14 613.25,-254.64"/>
<text text-anchor="start" x="519.75" y="-241.14" font-family="Helvetica,sans-Serif" font-size="10.00">t_print_parentheses</text>
<text text-anchor="middle" x="562.5" y="-229.89" font-family="Helvetica,sans-Serif" font-size="10.00">_prev_is_ptr</text>
</a>
</g>
</g>
<!-- Node54&#45;&gt;Node78 -->
<g id="edge51_Node000054_Node000078" class="edge">
<title>Node54&#45;&gt;Node78</title>
<g id="a_edge51_Node000054_Node000078"><a xlink:title=" ">
<path fill="none" stroke="#63b8ff" d="M467.97,-222.37C478.23,-224.24 489.34,-226.26 500.2,-228.23"/>
<polygon fill="#63b8ff" stroke="#63b8ff" points="499.43,-231.65 509.89,-230 500.68,-224.76 499.43,-231.65"/>
</a>
</g>
</g>
<!-- Node79 -->
<g id="Node000079" class="node">
<title>Node79</title>
<g id="a_Node000079"><a xlink:href="../../d5/d5d/pxcc_8c.html#a48853c911dda9fd0bdf725f1dc39557e" target="_top" xlink:title=" ">
<polygon fill="white" stroke="#666666" points="612.88,-157.01 512.12,-157.01 512.12,-137.76 612.88,-137.76 612.88,-157.01"/>
<text text-anchor="middle" x="562.5" y="-143.51" font-family="Helvetica,sans-Serif" font-size="10.00">t_print_pointer_type</text>
</a>
</g>
</g>
<!-- Node54&#45;&gt;Node79 -->
<g id="edge52_Node000054_Node000079" class="edge">
<title>Node54&#45;&gt;Node79</title>
<g id="a_edge52_Node000054_Node000079"><a xlink:title=" ">
<path fill="none" stroke="#63b8ff" d="M438.49,-204.32C453.99,-193.8 479.64,-177.34 503.5,-166.39 507.45,-164.58 511.62,-162.86 515.85,-161.25"/>
<polygon fill="#63b8ff" stroke="#63b8ff" points="516.69,-164.66 524.92,-157.99 514.33,-158.07 516.69,-164.66"/>
</a>
</g>
</g>
<!-- Node80 -->
<g id="Node000080" class="node">
<title>Node80</title>
<g id="a_Node000080"><a xlink:href="../../d5/d5d/pxcc_8c.html#a64f8e840cee81b3294edfb6112126708" target="_top" xlink:title=" ">
<polygon fill="white" stroke="#666666" points="614.75,-205.64 510.25,-205.64 510.25,-175.14 614.75,-175.14 614.75,-205.64"/>
<text text-anchor="start" x="518.25" y="-192.14" font-family="Helvetica,sans-Serif" font-size="10.00">t_print_record_enum</text>
<text text-anchor="middle" x="562.5" y="-180.89" font-family="Helvetica,sans-Serif" font-size="10.00">_field</text>
</a>
</g>
</g>
<!-- Node54&#45;&gt;Node80 -->
<g id="edge53_Node000054_Node000080" class="edge">
<title>Node54&#45;&gt;Node80</title>
<g id="a_edge53_Node000054_Node000080"><a xlink:title=" ">
<path fill="none" stroke="#63b8ff" d="M467.97,-206.73C477.77,-205.02 488.36,-203.17 498.76,-201.35"/>
<polygon fill="#63b8ff" stroke="#63b8ff" points="499.18,-204.83 508.43,-199.66 497.98,-197.93 499.18,-204.83"/>
</a>
</g>
</g>
<!-- Node81 -->
<g id="Node000081" class="node">
<title>Node81</title>
<g id="a_Node000081"><a xlink:href="../../d5/d5d/pxcc_8c.html#afbf9e27772ff510a2f5fef88a880e2c9" target="_top" xlink:title=" ">
<polygon fill="white" stroke="#666666" points="621.5,-83.01 503.5,-83.01 503.5,-63.76 621.5,-63.76 621.5,-83.01"/>
<text text-anchor="middle" x="562.5" y="-69.51" font-family="Helvetica,sans-Serif" font-size="10.00">t_print_unexposed_type</text>
</a>
</g>
</g>
<!-- Node54&#45;&gt;Node81 -->
<g id="edge55_Node000054_Node000081" class="edge">
<title>Node54&#45;&gt;Node81</title>
<g id="a_edge55_Node000054_Node000081"><a xlink:title=" ">
<path fill="none" stroke="#63b8ff" d="M427.77,-204.42C436.83,-181.07 462.61,-122.43 503.5,-91.39 504.81,-90.39 506.18,-89.45 507.59,-88.56"/>
<polygon fill="#63b8ff" stroke="#63b8ff" points="508.86,-91.85 516.09,-84.11 505.61,-85.65 508.86,-91.85"/>
</a>
</g>
</g>
<!-- Node58 -->
<g id="Node000058" class="node">
<title>Node58</title>
<g id="a_Node000058"><a xlink:href="../../d5/d5d/pxcc_8c.html#a86d0d66880d15253c5b3682d39662c44" target="_top" xlink:title=" ">
<polygon fill="white" stroke="#666666" points="811.5,-123.01 657.5,-123.01 657.5,-103.76 811.5,-103.76 811.5,-123.01"/>
<text text-anchor="middle" x="734.5" y="-109.51" font-family="Helvetica,sans-Serif" font-size="10.00">t_escape_cython_keyword_type</text>
</a>
</g>
</g>
<!-- Node57&#45;&gt;Node58 -->
<g id="edge28_Node000057_Node000058" class="edge">
<title>Node57&#45;&gt;Node58</title>
<g id="a_edge28_Node000057_Node000058"><a xlink:title=" ">
<path fill="none" stroke="#63b8ff" d="M619.16,-111.37C627.68,-111.52 636.63,-111.68 645.63,-111.84"/>
<polygon fill="#63b8ff" stroke="#63b8ff" points="645.45,-115.34 655.51,-112.01 645.58,-108.34 645.45,-115.34"/>
</a>
</g>
</g>
<!-- Node58&#45;&gt;Node52 -->
<g id="edge35_Node000058_Node000052" class="edge">
<title>Node58&#45;&gt;Node52</title>
<g id="a_edge35_Node000058_Node000052"><a xlink:title=" ">
<path fill="none" stroke="#63b8ff" d="M786,-103.28C794.81,-100.45 803.66,-96.88 811.5,-92.39 830.86,-81.29 828.7,-69.41 847.5,-57.39 849.3,-56.24 851.16,-55.13 853.07,-54.06"/>
<polygon fill="#63b8ff" stroke="#63b8ff" points="854.22,-57.4 861.55,-49.76 851.05,-51.16 854.22,-57.4"/>
</a>
</g>
</g>
<!-- Node58&#45;&gt;Node53 -->
<g id="edge36_Node000058_Node000053" class="edge">
<title>Node58&#45;&gt;Node53</title>
<g id="a_edge36_Node000058_Node000053"><a xlink:title=" ">
<path fill="none" stroke="#63b8ff" d="M783.18,-103.28C804.25,-98.81 829.21,-93.52 851.4,-88.82"/>
<polygon fill="#63b8ff" stroke="#63b8ff" points="851.84,-92.3 860.89,-86.8 850.39,-85.45 851.84,-92.3"/>
</a>
</g>
</g>
<!-- Node59 -->
<g id="Node000059" class="node">
<title>Node59</title>
<g id="a_Node000059"><a xlink:href="../../d5/d5d/pxcc_8c.html#aea3f7dbc67f217e27baf6db063dc2325" target="_top" xlink:title=" ">
<polygon fill="white" stroke="#666666" points="965.12,-134.64 856.88,-134.64 856.88,-104.14 965.12,-104.14 965.12,-134.64"/>
<text text-anchor="start" x="864.88" y="-121.14" font-family="Helvetica,sans-Serif" font-size="10.00">get_canonical_record</text>
<text text-anchor="middle" x="911" y="-109.89" font-family="Helvetica,sans-Serif" font-size="10.00">_enum_type_name</text>
</a>
</g>
</g>
<!-- Node58&#45;&gt;Node59 -->
<g id="edge29_Node000058_Node000059" class="edge">
<title>Node58&#45;&gt;Node59</title>
<g id="a_edge29_Node000058_Node000059"><a xlink:title=" ">
<path fill="none" stroke="#63b8ff" d="M811.78,-116.01C822.83,-116.39 834.11,-116.78 844.91,-117.15"/>
<polygon fill="#63b8ff" stroke="#63b8ff" points="844.78,-120.65 854.89,-117.49 845.02,-113.65 844.78,-120.65"/>
</a>
</g>
</g>
<!-- Node67 -->
<g id="Node000067" class="node">
<title>Node67</title>
<g id="a_Node000067"><a xlink:href="../../df/d0a/str-l_8h.html#a93860e0a444ab8a423d79b7818a28345" target="_top" xlink:title="returns a duplicated lstr from the mem stack.">
<polygon fill="white" stroke="#666666" points="940.38,-204.01 881.62,-204.01 881.62,-184.76 940.38,-184.76 940.38,-204.01"/>
<text text-anchor="middle" x="911" y="-190.51" font-family="Helvetica,sans-Serif" font-size="10.00">t_lstr_dup</text>
</a>
</g>
</g>
<!-- Node58&#45;&gt;Node67 -->
<g id="edge37_Node000058_Node000067" class="edge">
<title>Node58&#45;&gt;Node67</title>
<g id="a_edge37_Node000058_Node000067"><a xlink:title=" ">
<path fill="none" stroke="#63b8ff" d="M757.25,-123.48C787.63,-137.59 843,-163.29 878.07,-179.57"/>
<polygon fill="#63b8ff" stroke="#63b8ff" points="876.34,-182.62 886.88,-183.66 879.28,-176.27 876.34,-182.62"/>
</a>
</g>
</g>
<!-- Node60 -->
<g id="Node000060" class="node">
<title>Node60</title>
<g id="a_Node000060"><a xlink:href="../../d4/d86/str-stream_8h.html#a01f510bc60b3e1efa55cf7c371dadfee" target="_top" xlink:title=" ">
<polygon fill="white" stroke="#666666" points="1083.5,-142.01 1025.5,-142.01 1025.5,-122.76 1083.5,-122.76 1083.5,-142.01"/>
<text text-anchor="middle" x="1054.5" y="-128.51" font-family="Helvetica,sans-Serif" font-size="10.00">ps_initlstr</text>
</a>
</g>
</g>
<!-- Node59&#45;&gt;Node60 -->
<g id="edge30_Node000059_Node000060" class="edge">
<title>Node59&#45;&gt;Node60</title>
<g id="a_edge30_Node000059_Node000060"><a xlink:title=" ">
<path fill="none" stroke="#63b8ff" d="M965.5,-124.3C981.55,-125.78 998.87,-127.37 1013.86,-128.75"/>
<polygon fill="#63b8ff" stroke="#63b8ff" points="1013.53,-132.23 1023.81,-129.66 1014.17,-125.26 1013.53,-132.23"/>
</a>
</g>
</g>
<!-- Node63 -->
<g id="Node000063" class="node">
<title>Node63</title>
<g id="a_Node000063"><a xlink:href="../../d4/d86/str-stream_8h.html#a1ae5bcfa458f315e672098bc81b91f44" target="_top" xlink:title=" ">
<polygon fill="white" stroke="#666666" points="1098.5,-105.01 1010.5,-105.01 1010.5,-85.76 1098.5,-85.76 1098.5,-105.01"/>
<text text-anchor="middle" x="1054.5" y="-91.51" font-family="Helvetica,sans-Serif" font-size="10.00">ps_skip_afterchr</text>
</a>
</g>
</g>
<!-- Node59&#45;&gt;Node63 -->
<g id="edge32_Node000059_Node000063" class="edge">
<title>Node59&#45;&gt;Node63</title>
<g id="a_edge32_Node000059_Node000063"><a xlink:title=" ">
<path fill="none" stroke="#63b8ff" d="M965.5,-110.32C976.42,-108.46 987.92,-106.51 998.88,-104.65"/>
<polygon fill="#63b8ff" stroke="#63b8ff" points="999.29,-108.13 1008.56,-103.01 998.12,-101.23 999.29,-108.13"/>
</a>
</g>
</g>
<!-- Node61 -->
<g id="Node000061" class="node">
<title>Node61</title>
<g id="a_Node000061"><a xlink:href="../../d4/d86/str-stream_8h.html#a8c72cf3833ab9273d676151a583336a2" target="_top" xlink:title=" ">
<polygon fill="#fff0f0" stroke="red" points="1198.88,-142.01 1154.38,-142.01 1154.38,-122.76 1198.88,-122.76 1198.88,-142.01"/>
<text text-anchor="middle" x="1176.62" y="-128.51" font-family="Helvetica,sans-Serif" font-size="10.00">ps_init</text>
</a>
</g>
</g>
<!-- Node60&#45;&gt;Node61 -->
<g id="edge31_Node000060_Node000061" class="edge">
<title>Node60&#45;&gt;Node61</title>
<g id="a_edge31_Node000060_Node000061"><a xlink:title=" ">
<path fill="none" stroke="#63b8ff" d="M1083.97,-132.39C1101.61,-132.39 1124.34,-132.39 1142.75,-132.39"/>
<polygon fill="#63b8ff" stroke="#63b8ff" points="1142.61,-135.89 1152.61,-132.39 1142.61,-128.89 1142.61,-135.89"/>
</a>
</g>
</g>
<!-- Node64 -->
<g id="Node000064" class="node">
<title>Node64</title>
<g id="a_Node000064"><a xlink:href="../../d4/d86/str-stream_8h.html#a480df44ba10bffdce2e5f376a138d534" target="_top" xlink:title=" ">
<polygon fill="#fff0f0" stroke="red" points="1218.75,-105.01 1134.5,-105.01 1134.5,-85.76 1218.75,-85.76 1218.75,-105.01"/>
<text text-anchor="middle" x="1176.62" y="-91.51" font-family="Helvetica,sans-Serif" font-size="10.00">__ps_skip_upto</text>
</a>
</g>
</g>
<!-- Node63&#45;&gt;Node64 -->
<g id="edge33_Node000063_Node000064" class="edge">
<title>Node63&#45;&gt;Node64</title>
<g id="a_edge33_Node000063_Node000064"><a xlink:title=" ">
<path fill="none" stroke="#63b8ff" d="M1098.87,-95.39C1106.72,-95.39 1114.99,-95.39 1123.08,-95.39"/>
<polygon fill="#63b8ff" stroke="#63b8ff" points="1122.81,-98.89 1132.81,-95.39 1122.81,-91.89 1122.81,-98.89"/>
</a>
</g>
</g>
<!-- Node66 -->
<g id="Node000066" class="node">
<title>Node66</title>
<g id="a_Node000066"><a xlink:href="../../d4/d86/str-stream_8h.html#a792bf8e215595e8fd225339902c447bf" target="_top" xlink:title=" ">
<polygon fill="white" stroke="#666666" points="1198.88,-68.01 1154.38,-68.01 1154.38,-48.76 1198.88,-48.76 1198.88,-68.01"/>
<text text-anchor="middle" x="1176.62" y="-54.51" font-family="Helvetica,sans-Serif" font-size="10.00">ps_len</text>
</a>
</g>
</g>
<!-- Node63&#45;&gt;Node66 -->
<g id="edge34_Node000063_Node000066" class="edge">
<title>Node63&#45;&gt;Node66</title>
<g id="a_edge34_Node000063_Node000066"><a xlink:title=" ">
<path fill="none" stroke="#63b8ff" d="M1088.32,-85.28C1105.53,-79.98 1126.53,-73.51 1143.62,-68.25"/>
<polygon fill="#63b8ff" stroke="#63b8ff" points="1144.23,-71.72 1152.75,-65.43 1142.17,-65.03 1144.23,-71.72"/>
</a>
</g>
</g>
<!-- Node68 -->
<g id="Node000068" class="node">
<title>Node68</title>
<g id="a_Node000068"><a xlink:href="../../de/d04/str-l_8c.html#a721e56afb064f7233eda0184065df9bb" target="_top" xlink:title="Returns new mp allocated lstr from its arguments.">
<polygon fill="white" stroke="#666666" points="1089.12,-204.01 1019.88,-204.01 1019.88,-184.76 1089.12,-184.76 1089.12,-204.01"/>
<text text-anchor="middle" x="1054.5" y="-190.51" font-family="Helvetica,sans-Serif" font-size="10.00">mp_lstr_dup</text>
</a>
</g>
</g>
<!-- Node67&#45;&gt;Node68 -->
<g id="edge38_Node000067_Node000068" class="edge">
<title>Node67&#45;&gt;Node68</title>
<g id="a_edge38_Node000067_Node000068"><a xlink:title=" ">
<path fill="none" stroke="#63b8ff" d="M940.63,-194.39C959.94,-194.39 985.82,-194.39 1007.93,-194.39"/>
<polygon fill="#63b8ff" stroke="#63b8ff" points="1007.91,-197.89 1017.91,-194.39 1007.91,-190.89 1007.91,-197.89"/>
</a>
</g>
</g>
<!-- Node26 -->
<g id="Node000026" class="node">
<title>Node26</title>
<g id="a_Node000026"><a xlink:href="../../d1/d10/mem-stack_8h.html#a1d0e2a29f86dc033a02e50484b527fd0" target="_top" xlink:title=" ">
<polygon fill="white" stroke="#666666" points="1075.62,-255.01 1033.38,-255.01 1033.38,-235.76 1075.62,-235.76 1075.62,-255.01"/>
<text text-anchor="middle" x="1054.5" y="-241.51" font-family="Helvetica,sans-Serif" font-size="10.00">t_pool</text>
</a>
</g>
</g>
<!-- Node67&#45;&gt;Node26 -->
<g id="edge41_Node000067_Node000026" class="edge">
<title>Node67&#45;&gt;Node26</title>
<g id="a_edge41_Node000067_Node000026"><a xlink:title=" ">
<path fill="none" stroke="#63b8ff" d="M939.96,-204.47C963.7,-213.02 997.75,-225.3 1022.37,-234.17"/>
<polygon fill="#63b8ff" stroke="#63b8ff" points="1020.92,-237.37 1031.51,-237.47 1023.29,-230.78 1020.92,-237.37"/>
</a>
</g>
</g>
<!-- Node69 -->
<g id="Node000069" class="node">
<title>Node69</title>
<g id="a_Node000069"><a xlink:href="../../d9/d9a/mem_8h.html#afb82bc4c2f614b07ba2987edb2fb12a2" target="_top" xlink:title=" ">
<polygon fill="#fff0f0" stroke="red" points="1204.12,-227.01 1149.12,-227.01 1149.12,-207.76 1204.12,-207.76 1204.12,-227.01"/>
<text text-anchor="middle" x="1176.62" y="-213.51" font-family="Helvetica,sans-Serif" font-size="10.00">mp_dupz</text>
</a>
</g>
</g>
<!-- Node68&#45;&gt;Node69 -->
<g id="edge39_Node000068_Node000069" class="edge">
<title>Node68&#45;&gt;Node69</title>
<g id="a_edge39_Node000068_Node000069"><a xlink:title=" ">
<path fill="none" stroke="#63b8ff" d="M1089.6,-200.92C1104.53,-203.78 1122.1,-207.14 1137.46,-210.08"/>
<polygon fill="#63b8ff" stroke="#63b8ff" points="1136.72,-213.5 1147.2,-211.95 1138.04,-206.63 1136.72,-213.5"/>
</a>
</g>
</g>
<!-- Node72 -->
<g id="Node000072" class="node">
<title>Node72</title>
<g id="a_Node000072"><a xlink:href="../../df/d0a/str-l_8h.html#afaa32126aa321a4b319e39433d0e7f26" target="_top" xlink:title=" ">
<polygon fill="#fff0f0" stroke="red" points="1209.75,-190.01 1143.5,-190.01 1143.5,-170.76 1209.75,-170.76 1209.75,-190.01"/>
<text text-anchor="middle" x="1176.62" y="-176.51" font-family="Helvetica,sans-Serif" font-size="10.00">mp_lstr_init</text>
</a>
</g>
</g>
<!-- Node68&#45;&gt;Node72 -->
<g id="edge40_Node000068_Node000072" class="edge">
<title>Node68&#45;&gt;Node72</title>
<g id="a_edge40_Node000068_Node000072"><a xlink:title=" ">
<path fill="none" stroke="#63b8ff" d="M1089.6,-190.42C1102.72,-188.89 1117.87,-187.12 1131.78,-185.5"/>
<polygon fill="#63b8ff" stroke="#63b8ff" points="1132.06,-188.99 1141.59,-184.36 1131.25,-182.04 1132.06,-188.99"/>
</a>
</g>
</g>
<!-- Node73&#45;&gt;Node4 -->
<g id="edge43_Node000073_Node000004" class="edge">
<title>Node73&#45;&gt;Node4</title>
<g id="a_edge43_Node000073_Node000004"><a xlink:title=" ">
<path fill="none" stroke="#63b8ff" d="M594.68,-329.48C621.91,-338.29 661.67,-351.15 691.66,-360.85"/>
<polygon fill="#63b8ff" stroke="#63b8ff" points="690.2,-364.06 700.79,-363.81 692.35,-357.4 690.2,-364.06"/>
</a>
</g>
</g>
<!-- Node73&#45;&gt;Node54 -->
<g id="edge44_Node000073_Node000054" class="edge">
<title>Node73&#45;&gt;Node54</title>
<g id="a_edge44_Node000073_Node000054"><a xlink:title=" ">
<path fill="none" stroke="#63b8ff" d="M509.04,-313.58C507.14,-312.58 505.28,-311.52 503.5,-310.39 472.8,-290.88 446.44,-256.48 433.21,-234.28"/>
<polygon fill="#63b8ff" stroke="#63b8ff" points="436.43,-232.87 428.54,-225.8 430.3,-236.25 436.43,-232.87"/>
</a>
</g>
</g>
<!-- Node73&#45;&gt;Node74 -->
<g id="edge45_Node000073_Node000074" class="edge">
<title>Node73&#45;&gt;Node74</title>
<g id="a_edge45_Node000073_Node000074"><a xlink:title=" ">
<path fill="none" stroke="#63b8ff" d="M615.89,-319.39C632.46,-319.39 650.97,-319.39 668.32,-319.39"/>
<polygon fill="#63b8ff" stroke="#63b8ff" points="668,-322.89 678,-319.39 668,-315.89 668,-322.89"/>
</a>
</g>
</g>
<!-- Node75 -->
<g id="Node000075" class="node">
<title>Node75</title>
<g id="a_Node000075"><a xlink:href="../../dc/d31/str-buf_8h.html#a1034a640c54d1b57826a1147be58952b" target="_top" xlink:title=" ">
<polygon fill="white" stroke="#666666" points="937.38,-292.01 884.62,-292.01 884.62,-272.76 937.38,-272.76 937.38,-292.01"/>
<text text-anchor="middle" x="911" y="-278.51" font-family="Helvetica,sans-Serif" font-size="10.00">t_sb_init</text>
</a>
</g>
</g>
<!-- Node74&#45;&gt;Node75 -->
<g id="edge46_Node000074_Node000075" class="edge">
<title>Node74&#45;&gt;Node75</title>
<g id="a_edge46_Node000074_Node000075"><a xlink:title=" ">
<path fill="none" stroke="#63b8ff" d="M783.18,-309.28C811.66,-303.24 847.28,-295.69 873.51,-290.13"/>
<polygon fill="#63b8ff" stroke="#63b8ff" points="873.95,-293.61 883.01,-288.11 872.5,-286.76 873.95,-293.61"/>
</a>
</g>
</g>
<!-- Node75&#45;&gt;Node26 -->
<g id="edge50_Node000075_Node000026" class="edge">
<title>Node75&#45;&gt;Node26</title>
<g id="a_edge50_Node000075_Node000026"><a xlink:title=" ">
<path fill="none" stroke="#63b8ff" d="M937.62,-275.69C961.38,-269.48 996.79,-260.22 1022.21,-253.57"/>
<polygon fill="#63b8ff" stroke="#63b8ff" points="1022.86,-257.02 1031.64,-251.1 1021.08,-250.25 1022.86,-257.02"/>
</a>
</g>
</g>
<!-- Node76 -->
<g id="Node000076" class="node">
<title>Node76</title>
<g id="a_Node000076"><a xlink:href="../../dc/d31/str-buf_8h.html#a84172fc05de1ba74b4a1b709240679a5" target="_top" xlink:title=" ">
<polygon fill="white" stroke="#666666" points="1086.12,-292.01 1022.88,-292.01 1022.88,-272.76 1086.12,-272.76 1086.12,-292.01"/>
<text text-anchor="middle" x="1054.5" y="-278.51" font-family="Helvetica,sans-Serif" font-size="10.00">mp_sb_init</text>
</a>
</g>
</g>
<!-- Node75&#45;&gt;Node76 -->
<g id="edge47_Node000075_Node000076" class="edge">
<title>Node75&#45;&gt;Node76</title>
<g id="a_edge47_Node000075_Node000076"><a xlink:title=" ">
<path fill="none" stroke="#63b8ff" d="M937.62,-282.39C958.09,-282.39 987.2,-282.39 1011.12,-282.39"/>
<polygon fill="#63b8ff" stroke="#63b8ff" points="1010.87,-285.89 1020.87,-282.39 1010.87,-278.89 1010.87,-285.89"/>
</a>
</g>
</g>
<!-- Node77 -->
<g id="Node000077" class="node">
<title>Node77</title>
<g id="a_Node000077"><a xlink:href="../../dc/d31/str-buf_8h.html#a6dc2ca5bc1506b37f95463e6abe4e201" target="_top" xlink:title=" ">
<polygon fill="white" stroke="#666666" points="1318,-292.01 1255.5,-292.01 1255.5,-272.76 1318,-272.76 1318,-292.01"/>
<text text-anchor="middle" x="1286.75" y="-278.51" font-family="Helvetica,sans-Serif" font-size="10.00">sb_init_full</text>
</a>
</g>
</g>
<!-- Node76&#45;&gt;Node77 -->
<g id="edge48_Node000076_Node000077" class="edge">
<title>Node76&#45;&gt;Node77</title>
<g id="a_edge48_Node000076_Node000077"><a xlink:title=" ">
<path fill="none" stroke="#63b8ff" d="M1086.55,-282.39C1127.12,-282.39 1198.3,-282.39 1243.68,-282.39"/>
<polygon fill="#63b8ff" stroke="#63b8ff" points="1243.68,-285.89 1253.68,-282.39 1243.68,-278.89 1243.68,-285.89"/>
</a>
</g>
</g>
<!-- Node77&#45;&gt;Node10 -->
<g id="edge49_Node000077_Node000010" class="edge">
<title>Node77&#45;&gt;Node10</title>
<g id="a_edge49_Node000077_Node000010"><a xlink:title=" ">
<path fill="none" stroke="#63b8ff" d="M1318.2,-282.39C1328.89,-282.39 1341.22,-282.39 1353.2,-282.39"/>
<polygon fill="#63b8ff" stroke="#63b8ff" points="1353,-285.89 1363,-282.39 1353,-278.89 1353,-285.89"/>
</a>
</g>
</g>
<!-- Node80&#45;&gt;Node58 -->
<g id="edge54_Node000080_Node000058" class="edge">
<title>Node80&#45;&gt;Node58</title>
<g id="a_edge54_Node000080_Node000058"><a xlink:title=" ">
<path fill="none" stroke="#63b8ff" d="M602.3,-174.65C608.74,-171.95 615.32,-169.13 621.5,-166.39 649.22,-154.11 680.36,-139.28 702.76,-128.44"/>
<polygon fill="#63b8ff" stroke="#63b8ff" points="704.17,-131.65 711.64,-124.13 701.11,-125.35 704.17,-131.65"/>
</a>
</g>
</g>
<!-- Node82 -->
<g id="Node000082" class="node">
<title>Node82</title>
<g id="a_Node000082"><a xlink:href="../../d5/d5d/pxcc_8c.html#a3f33a9cdd0fecadec8876f5b5d16dfe4" target="_top" xlink:title=" ">
<polygon fill="white" stroke="#666666" points="795.75,-83.01 673.25,-83.01 673.25,-63.76 795.75,-63.76 795.75,-83.01"/>
<text text-anchor="middle" x="734.5" y="-69.51" font-family="Helvetica,sans-Serif" font-size="10.00">resolve_unexposed_type</text>
</a>
</g>
</g>
<!-- Node81&#45;&gt;Node82 -->
<g id="edge56_Node000081_Node000082" class="edge">
<title>Node81&#45;&gt;Node82</title>
<g id="a_edge56_Node000081_Node000082"><a xlink:title=" ">
<path fill="none" stroke="#63b8ff" d="M621.53,-73.39C634.45,-73.39 648.31,-73.39 661.71,-73.39"/>
<polygon fill="#63b8ff" stroke="#63b8ff" points="661.32,-76.89 671.32,-73.39 661.32,-69.89 661.32,-76.89"/>
</a>
</g>
</g>
</g>
</svg>
