<?xml version="1.0" encoding="UTF-8" standalone="no"?>
<!DOCTYPE svg PUBLIC "-//W3C//DTD SVG 1.1//EN"
 "http://www.w3.org/Graphics/SVG/1.1/DTD/svg11.dtd">
<!-- Generated by graphviz version 9.0.0 (20230911.1827)
 -->
<!-- Title: get_or_add_new_record_name_type Pages: 1 -->
<svg width="2142pt" height="460pt"
 viewBox="0.00 0.00 2141.75 460.25" xmlns="http://www.w3.org/2000/svg" xmlns:xlink="http://www.w3.org/1999/xlink">
<g id="graph0" class="graph" transform="scale(1 1) rotate(0) translate(4 456.25)">
<title>get_or_add_new_record_name_type</title>
<!-- Node1 -->
<g id="Node000001" class="node">
<title>Node1</title>
<g id="a_Node000001"><a xlink:title=" ">
<polygon fill="#999999" stroke="#666666" points="119.5,-107.88 0,-107.88 0,-77.38 119.5,-77.38 119.5,-107.88"/>
<text text-anchor="start" x="8" y="-94.38" font-family="Helvetica,sans-Serif" font-size="10.00">get_or_add_new_record</text>
<text text-anchor="middle" x="59.75" y="-83.12" font-family="Helvetica,sans-Serif" font-size="10.00">_name_type</text>
</a>
</g>
</g>
<!-- Node2 -->
<g id="Node000002" class="node">
<title>Node2</title>
<g id="a_Node000002"><a xlink:href="../../d5/d5d/pxcc_8c.html#aa21e4d9959f914519162e1c1cc268076" target="_top" xlink:title=" ">
<polygon fill="white" stroke="#666666" points="304.25,-121.25 155.5,-121.25 155.5,-102 304.25,-102 304.25,-121.25"/>
<text text-anchor="middle" x="229.88" y="-107.75" font-family="Helvetica,sans-Serif" font-size="10.00">get_or_add_new_record_name</text>
</a>
</g>
</g>
<!-- Node1&#45;&gt;Node2 -->
<g id="edge1_Node000001_Node000002" class="edge">
<title>Node1&#45;&gt;Node2</title>
<g id="a_edge1_Node000001_Node000002"><a xlink:title=" ">
<path fill="none" stroke="#63b8ff" d="M119.55,-99.27C127.43,-100.16 135.63,-101.09 143.85,-102.02"/>
<polygon fill="#63b8ff" stroke="#63b8ff" points="143.2,-105.46 153.53,-103.11 143.98,-98.51 143.2,-105.46"/>
</a>
</g>
</g>
<!-- Node40 -->
<g id="Node000040" class="node">
<title>Node40</title>
<g id="a_Node000040"><a xlink:href="../../d5/d5d/pxcc_8c.html#ab7326ddd3f1d6e24c01e12ee6de1ca8c" target="_top" xlink:title=" ">
<polygon fill="white" stroke="#666666" points="295.25,-84.25 164.5,-84.25 164.5,-65 295.25,-65 295.25,-84.25"/>
<text text-anchor="middle" x="229.88" y="-70.75" font-family="Helvetica,sans-Serif" font-size="10.00">get_unconst_type_spelling</text>
</a>
</g>
</g>
<!-- Node1&#45;&gt;Node40 -->
<g id="edge45_Node000001_Node000040" class="edge">
<title>Node1&#45;&gt;Node40</title>
<g id="a_edge45_Node000001_Node000040"><a xlink:title=" ">
<path fill="none" stroke="#63b8ff" d="M119.55,-86.33C130.35,-85.17 141.75,-83.95 152.97,-82.75"/>
<polygon fill="#63b8ff" stroke="#63b8ff" points="153.01,-86.27 162.58,-81.72 152.26,-79.31 153.01,-86.27"/>
</a>
</g>
</g>
<!-- Node3 -->
<g id="Node000003" class="node">
<title>Node3</title>
<g id="a_Node000003"><a xlink:href="../../df/d0a/str-l_8h.html#a3d960ba9eadec31df885e309483d732a" target="_top" xlink:title="returns new libc allocated lstr from its arguments.">
<polygon fill="white" stroke="#666666" points="396,-121.25 345.5,-121.25 345.5,-102 396,-102 396,-121.25"/>
<text text-anchor="middle" x="370.75" y="-107.75" font-family="Helvetica,sans-Serif" font-size="10.00">lstr_dup</text>
</a>
</g>
</g>
<!-- Node2&#45;&gt;Node3 -->
<g id="edge2_Node000002_Node000003" class="edge">
<title>Node2&#45;&gt;Node3</title>
<g id="a_edge2_Node000002_Node000003"><a xlink:title=" ">
<path fill="none" stroke="#63b8ff" d="M304.38,-111.62C314.6,-111.62 324.71,-111.62 333.81,-111.62"/>
<polygon fill="#63b8ff" stroke="#63b8ff" points="333.6,-115.13 343.6,-111.63 333.6,-108.13 333.6,-115.13"/>
</a>
</g>
</g>
<!-- Node4 -->
<g id="Node000004" class="node">
<title>Node4</title>
<g id="a_Node000004"><a xlink:href="../../de/d04/str-l_8c.html#a721e56afb064f7233eda0184065df9bb" target="_top" xlink:title="Returns new mp allocated lstr from its arguments.">
<polygon fill="white" stroke="#666666" points="506.5,-121.25 437.25,-121.25 437.25,-102 506.5,-102 506.5,-121.25"/>
<text text-anchor="middle" x="471.88" y="-107.75" font-family="Helvetica,sans-Serif" font-size="10.00">mp_lstr_dup</text>
</a>
</g>
</g>
<!-- Node3&#45;&gt;Node4 -->
<g id="edge3_Node000003_Node000004" class="edge">
<title>Node3&#45;&gt;Node4</title>
<g id="a_edge3_Node000003_Node000004"><a xlink:title=" ">
<path fill="none" stroke="#63b8ff" d="M396.25,-111.62C405.17,-111.62 415.55,-111.62 425.68,-111.62"/>
<polygon fill="#63b8ff" stroke="#63b8ff" points="425.42,-115.13 435.42,-111.63 425.42,-108.13 425.42,-115.13"/>
</a>
</g>
</g>
<!-- Node5 -->
<g id="Node000005" class="node">
<title>Node5</title>
<g id="a_Node000005"><a xlink:href="../../d9/d9a/mem_8h.html#afb82bc4c2f614b07ba2987edb2fb12a2" target="_top" xlink:title=" ">
<polygon fill="white" stroke="#666666" points="607.25,-338.25 552.25,-338.25 552.25,-319 607.25,-319 607.25,-338.25"/>
<text text-anchor="middle" x="579.75" y="-324.75" font-family="Helvetica,sans-Serif" font-size="10.00">mp_dupz</text>
</a>
</g>
</g>
<!-- Node4&#45;&gt;Node5 -->
<g id="edge4_Node000004_Node000005" class="edge">
<title>Node4&#45;&gt;Node5</title>
<g id="a_edge4_Node000004_Node000005"><a xlink:title=" ">
<path fill="none" stroke="#63b8ff" d="M477.7,-121.51C493.92,-154.77 546.74,-263.02 568.86,-308.36"/>
<polygon fill="#63b8ff" stroke="#63b8ff" points="565.7,-309.87 573.23,-317.32 571.99,-306.8 565.7,-309.87"/>
</a>
</g>
</g>
<!-- Node39 -->
<g id="Node000039" class="node">
<title>Node39</title>
<g id="a_Node000039"><a xlink:href="../../df/d0a/str-l_8h.html#afaa32126aa321a4b319e39433d0e7f26" target="_top" xlink:title=" ">
<polygon fill="white" stroke="#666666" points="1758.5,-122.25 1692.25,-122.25 1692.25,-103 1758.5,-103 1758.5,-122.25"/>
<text text-anchor="middle" x="1725.38" y="-108.75" font-family="Helvetica,sans-Serif" font-size="10.00">mp_lstr_init</text>
</a>
</g>
</g>
<!-- Node4&#45;&gt;Node39 -->
<g id="edge43_Node000004_Node000039" class="edge">
<title>Node4&#45;&gt;Node39</title>
<g id="a_edge43_Node000004_Node000039"><a xlink:title=" ">
<path fill="none" stroke="#63b8ff" d="M506.98,-109.28C548.84,-106.62 621.98,-102.62 684.75,-102.62 684.75,-102.62 684.75,-102.62 1466,-102.62 1541.38,-102.62 1629.04,-106.93 1680.43,-109.89"/>
<polygon fill="#63b8ff" stroke="#63b8ff" points="1680.06,-113.37 1690.25,-110.46 1680.47,-106.38 1680.06,-113.37"/>
</a>
</g>
</g>
<!-- Node6 -->
<g id="Node000006" class="node">
<title>Node6</title>
<g id="a_Node000006"><a xlink:href="../../d9/d9a/mem_8h.html#af52b7a33884b452f86de916d8109b8f1" target="_top" xlink:title=" ">
<polygon fill="white" stroke="#666666" points="714.38,-385.25 657.12,-385.25 657.12,-366 714.38,-366 714.38,-385.25"/>
<text text-anchor="middle" x="685.75" y="-371.75" font-family="Helvetica,sans-Serif" font-size="10.00">memcpyz</text>
</a>
</g>
</g>
<!-- Node5&#45;&gt;Node6 -->
<g id="edge5_Node000005_Node000006" class="edge">
<title>Node5&#45;&gt;Node6</title>
<g id="a_edge5_Node000005_Node000006"><a xlink:title=" ">
<path fill="none" stroke="#63b8ff" d="M603.06,-338.71C617.45,-345.21 636.41,-353.78 652.44,-361.02"/>
<polygon fill="#63b8ff" stroke="#63b8ff" points="650.54,-364.01 661.1,-364.94 653.43,-357.63 650.54,-364.01"/>
</a>
</g>
</g>
<!-- Node8 -->
<g id="Node000008" class="node">
<title>Node8</title>
<g id="a_Node000008"><a xlink:href="../../d9/d9a/mem_8h.html#ada6bb9661f0c10ccaa14d231c24aeafd" target="_top" xlink:title=" ">
<polygon fill="white" stroke="#666666" points="718.5,-338.25 653,-338.25 653,-319 718.5,-319 718.5,-338.25"/>
<text text-anchor="middle" x="685.75" y="-324.75" font-family="Helvetica,sans-Serif" font-size="10.00">mp_imalloc</text>
</a>
</g>
</g>
<!-- Node5&#45;&gt;Node8 -->
<g id="edge7_Node000005_Node000008" class="edge">
<title>Node5&#45;&gt;Node8</title>
<g id="a_edge7_Node000005_Node000008"><a xlink:title=" ">
<path fill="none" stroke="#63b8ff" d="M607.53,-328.62C617.91,-328.62 630.07,-328.62 641.62,-328.62"/>
<polygon fill="#63b8ff" stroke="#63b8ff" points="641.36,-332.13 651.36,-328.63 641.36,-325.13 641.36,-332.13"/>
</a>
</g>
</g>
<!-- Node7 -->
<g id="Node000007" class="node">
<title>Node7</title>
<g id="a_Node000007"><a xlink:href="../../d9/d9a/mem_8h.html#af3794c657c3ffd55b9771dcaeec60c02" target="_top" xlink:title=" ">
<polygon fill="white" stroke="#666666" points="839.88,-394.25 781.88,-394.25 781.88,-375 839.88,-375 839.88,-394.25"/>
<text text-anchor="middle" x="810.88" y="-380.75" font-family="Helvetica,sans-Serif" font-size="10.00">mempcpy</text>
</a>
</g>
</g>
<!-- Node6&#45;&gt;Node7 -->
<g id="edge6_Node000006_Node000007" class="edge">
<title>Node6&#45;&gt;Node7</title>
<g id="a_edge6_Node000006_Node000007"><a xlink:title=" ">
<path fill="none" stroke="#63b8ff" d="M714.69,-377.67C731.1,-378.87 752.11,-380.4 770.22,-381.73"/>
<polygon fill="#63b8ff" stroke="#63b8ff" points="769.88,-385.21 780.11,-382.45 770.39,-378.23 769.88,-385.21"/>
</a>
</g>
</g>
<!-- Node9 -->
<g id="Node000009" class="node">
<title>Node9</title>
<g id="a_Node000009"><a xlink:href="../../d8/d37/mem_8blk.html#a5666a1403bcf2bd8e114c23f8021d1ac" target="_top" xlink:title=" ">
<polygon fill="white" stroke="#666666" points="848.88,-320.25 772.88,-320.25 772.88,-301 848.88,-301 848.88,-320.25"/>
<text text-anchor="middle" x="810.88" y="-306.75" font-family="Helvetica,sans-Serif" font-size="10.00">__mp_imalloc</text>
</a>
</g>
</g>
<!-- Node8&#45;&gt;Node9 -->
<g id="edge8_Node000008_Node000009" class="edge">
<title>Node8&#45;&gt;Node9</title>
<g id="a_edge8_Node000008_Node000009"><a xlink:title=" ">
<path fill="none" stroke="#63b8ff" d="M718.78,-323.94C731.82,-322.04 747.18,-319.79 761.54,-317.69"/>
<polygon fill="#63b8ff" stroke="#63b8ff" points="761.89,-321.18 771.27,-316.27 760.87,-314.25 761.89,-321.18"/>
</a>
</g>
</g>
<!-- Node37 -->
<g id="Node000037" class="node">
<title>Node37</title>
<g id="a_Node000037"><a xlink:href="../../d9/d9a/mem_8h.html#ae99e17ad0b27e94e8a00c8af9734a0e7" target="_top" xlink:title=" ">
<polygon fill="white" stroke="#666666" points="867.25,-357.25 754.5,-357.25 754.5,-338 867.25,-338 867.25,-357.25"/>
<text text-anchor="middle" x="810.88" y="-343.75" font-family="Helvetica,sans-Serif" font-size="10.00">icheck_alloc_constant</text>
</a>
</g>
</g>
<!-- Node8&#45;&gt;Node37 -->
<g id="edge41_Node000008_Node000037" class="edge">
<title>Node8&#45;&gt;Node37</title>
<g id="a_edge41_Node000008_Node000037"><a xlink:title=" ">
<path fill="none" stroke="#63b8ff" d="M718.78,-333.57C726.31,-334.73 734.61,-336.01 743.05,-337.31"/>
<polygon fill="#63b8ff" stroke="#63b8ff" points="742.25,-340.73 752.66,-338.8 743.32,-333.81 742.25,-340.73"/>
</a>
</g>
</g>
<!-- Node10 -->
<g id="Node000010" class="node">
<title>Node10</title>
<g id="a_Node000010"><a xlink:href="../../d8/d37/mem_8blk.html#a8e4fbf6500e65079c31e3fd933ae7dc1" target="_top" xlink:title=" ">
<polygon fill="white" stroke="#666666" points="989.38,-302.25 919.38,-302.25 919.38,-283 989.38,-283 989.38,-302.25"/>
<text text-anchor="middle" x="954.38" y="-288.75" font-family="Helvetica,sans-Serif" font-size="10.00">icheck_alloc</text>
</a>
</g>
</g>
<!-- Node9&#45;&gt;Node10 -->
<g id="edge9_Node000009_Node000010" class="edge">
<title>Node9&#45;&gt;Node10</title>
<g id="a_edge9_Node000009_Node000010"><a xlink:title=" ">
<path fill="none" stroke="#63b8ff" d="M849.05,-305.9C867.09,-303.6 888.92,-300.82 907.93,-298.41"/>
<polygon fill="#63b8ff" stroke="#63b8ff" points="908.37,-301.88 917.85,-297.14 907.49,-294.93 908.37,-301.88"/>
</a>
</g>
</g>
<!-- Node35 -->
<g id="Node000035" class="node">
<title>Node35</title>
<g id="a_Node000035"><a xlink:href="../../d9/d9a/mem_8h.html#af42ab5c21de0c723b2a55403e5441fda" target="_top" xlink:title=" ">
<polygon fill="white" stroke="#666666" points="993.88,-339.25 914.88,-339.25 914.88,-320 993.88,-320 993.88,-339.25"/>
<text text-anchor="middle" x="954.38" y="-325.75" font-family="Helvetica,sans-Serif" font-size="10.00">mem_bit_align</text>
</a>
</g>
</g>
<!-- Node9&#45;&gt;Node35 -->
<g id="edge39_Node000009_Node000035" class="edge">
<title>Node9&#45;&gt;Node35</title>
<g id="a_edge39_Node000009_Node000035"><a xlink:title=" ">
<path fill="none" stroke="#63b8ff" d="M849.05,-315.62C865.58,-317.84 885.28,-320.48 903.09,-322.87"/>
<polygon fill="#63b8ff" stroke="#63b8ff" points="902.59,-326.34 912.97,-324.2 903.52,-319.4 902.59,-326.34"/>
</a>
</g>
</g>
<!-- Node11 -->
<g id="Node000011" class="node">
<title>Node11</title>
<g id="a_Node000011"><a xlink:href="../../d7/df8/log_8c.html#abca342edf91a9b45f7a17ef564fa8a53" target="_top" xlink:title=" ">
<polygon fill="white" stroke="#666666" points="1096.5,-302.25 1046.75,-302.25 1046.75,-283 1096.5,-283 1096.5,-302.25"/>
<text text-anchor="middle" x="1071.62" y="-288.75" font-family="Helvetica,sans-Serif" font-size="10.00">e_panic</text>
</a>
</g>
</g>
<!-- Node10&#45;&gt;Node11 -->
<g id="edge10_Node000010_Node000011" class="edge">
<title>Node10&#45;&gt;Node11</title>
<g id="a_edge10_Node000010_Node000011"><a xlink:title=" ">
<path fill="none" stroke="#63b8ff" d="M989.64,-292.62C1004.09,-292.62 1020.9,-292.62 1035.45,-292.62"/>
<polygon fill="#63b8ff" stroke="#63b8ff" points="1035.03,-296.13 1045.03,-292.63 1035.03,-289.13 1035.03,-296.13"/>
</a>
</g>
</g>
<!-- Node12 -->
<g id="Node000012" class="node">
<title>Node12</title>
<g id="a_Node000012"><a xlink:href="../../d7/df8/log_8c.html#a4bc04f7baa1e064cb0b93c7b9f3a61a1" target="_top" xlink:title=" ">
<polygon fill="white" stroke="#666666" points="1225.75,-302.25 1137.75,-302.25 1137.75,-283 1225.75,-283 1225.75,-302.25"/>
<text text-anchor="middle" x="1181.75" y="-288.75" font-family="Helvetica,sans-Serif" font-size="10.00">__logger_refresh</text>
</a>
</g>
</g>
<!-- Node11&#45;&gt;Node12 -->
<g id="edge11_Node000011_Node000012" class="edge">
<title>Node11&#45;&gt;Node12</title>
<g id="a_edge11_Node000011_Node000012"><a xlink:title=" ">
<path fill="none" stroke="#63b8ff" d="M1096.89,-292.62C1105.58,-292.62 1115.75,-292.62 1125.97,-292.62"/>
<polygon fill="#63b8ff" stroke="#63b8ff" points="1125.92,-296.13 1135.92,-292.63 1125.92,-289.13 1125.92,-296.13"/>
</a>
</g>
</g>
<!-- Node30 -->
<g id="Node000030" class="node">
<title>Node30</title>
<g id="a_Node000030"><a xlink:href="../../d7/df8/log_8c.html#a900490b26df7698aac12f7f7e6517e81" target="_top" xlink:title=" ">
<polygon fill="white" stroke="#666666" points="1214.5,-188.25 1149,-188.25 1149,-169 1214.5,-169 1214.5,-188.25"/>
<text text-anchor="middle" x="1181.75" y="-174.75" font-family="Helvetica,sans-Serif" font-size="10.00">logger_vlog</text>
</a>
</g>
</g>
<!-- Node11&#45;&gt;Node30 -->
<g id="edge33_Node000011_Node000030" class="edge">
<title>Node11&#45;&gt;Node30</title>
<g id="a_edge33_Node000011_Node000030"><a xlink:title=" ">
<path fill="none" stroke="#63b8ff" d="M1082.22,-282.51C1100.54,-263.19 1140.72,-220.83 1163.71,-196.59"/>
<polygon fill="#63b8ff" stroke="#63b8ff" points="1165.95,-199.32 1170.29,-189.65 1160.87,-194.5 1165.95,-199.32"/>
</a>
</g>
</g>
<!-- Node34 -->
<g id="Node000034" class="node">
<title>Node34</title>
<g id="a_Node000034"><a xlink:href="../../d2/d4d/file_8h.html#a25419a391fdd4ad7954699c58cfeb3b9" target="_top" xlink:title=" ">
<polygon fill="white" stroke="#666666" points="1207.38,-452.25 1156.12,-452.25 1156.12,-433 1207.38,-433 1207.38,-452.25"/>
<text text-anchor="middle" x="1181.75" y="-438.75" font-family="Helvetica,sans-Serif" font-size="10.00">va_start</text>
</a>
</g>
</g>
<!-- Node11&#45;&gt;Node34 -->
<g id="edge38_Node000011_Node000034" class="edge">
<title>Node11&#45;&gt;Node34</title>
<g id="a_edge38_Node000011_Node000034"><a xlink:title=" ">
<path fill="none" stroke="#63b8ff" d="M1092.92,-302.57C1096.2,-304.86 1099.32,-307.55 1101.75,-310.62 1133.15,-350.3 1105.48,-379.66 1137.75,-418.62 1140.15,-421.52 1142.99,-424.13 1146.06,-426.47"/>
<polygon fill="#63b8ff" stroke="#63b8ff" points="1144.12,-429.38 1154.43,-431.85 1147.91,-423.5 1144.12,-429.38"/>
</a>
</g>
</g>
<!-- Node13 -->
<g id="Node000013" class="node">
<title>Node13</title>
<g id="a_Node000013"><a xlink:href="../../d7/df8/log_8c.html#a3dbd75fb614210f0b114cfd03c9c0a7b" target="_top" xlink:title=" ">
<polygon fill="white" stroke="#666666" points="1365.5,-302.25 1261.75,-302.25 1261.75,-283 1365.5,-283 1365.5,-302.25"/>
<text text-anchor="middle" x="1313.62" y="-288.75" font-family="Helvetica,sans-Serif" font-size="10.00">__logger_do_refresh</text>
</a>
</g>
</g>
<!-- Node12&#45;&gt;Node13 -->
<g id="edge12_Node000012_Node000013" class="edge">
<title>Node12&#45;&gt;Node13</title>
<g id="a_edge12_Node000012_Node000013"><a xlink:title=" ">
<path fill="none" stroke="#63b8ff" d="M1226,-292.62C1233.72,-292.62 1241.91,-292.62 1250.04,-292.62"/>
<polygon fill="#63b8ff" stroke="#63b8ff" points="1249.95,-296.13 1259.95,-292.63 1249.95,-289.13 1249.95,-296.13"/>
</a>
</g>
</g>
<!-- Node28 -->
<g id="Node000028" class="node">
<title>Node28</title>
<g id="a_Node000028"><a xlink:href="../../d7/df8/log_8c.html#a7b1b02d1986e1247c2f571af4a2c2854" target="_top" xlink:title=" ">
<polygon fill="white" stroke="#666666" points="1351.25,-265.25 1276,-265.25 1276,-246 1351.25,-246 1351.25,-265.25"/>
<text text-anchor="middle" x="1313.62" y="-251.75" font-family="Helvetica,sans-Serif" font-size="10.00">log_spin_lock</text>
</a>
</g>
</g>
<!-- Node12&#45;&gt;Node28 -->
<g id="edge31_Node000012_Node000028" class="edge">
<title>Node12&#45;&gt;Node28</title>
<g id="a_edge31_Node000012_Node000028"><a xlink:title=" ">
<path fill="none" stroke="#63b8ff" d="M1218.24,-282.51C1233.13,-278.27 1250.64,-273.28 1266.51,-268.76"/>
<polygon fill="#63b8ff" stroke="#63b8ff" points="1267.07,-272.24 1275.72,-266.14 1265.15,-265.51 1267.07,-272.24"/>
</a>
</g>
</g>
<!-- Node29 -->
<g id="Node000029" class="node">
<title>Node29</title>
<g id="a_Node000029"><a xlink:href="../../d1/dc0/group__log.html#ga045020bb4af234632f7761f220131c69" target="_top" xlink:title=" ">
<polygon fill="white" stroke="#666666" points="1356.5,-357.25 1270.75,-357.25 1270.75,-338 1356.5,-338 1356.5,-357.25"/>
<text text-anchor="middle" x="1313.62" y="-343.75" font-family="Helvetica,sans-Serif" font-size="10.00">log_spin_unlock</text>
</a>
</g>
</g>
<!-- Node12&#45;&gt;Node29 -->
<g id="edge32_Node000012_Node000029" class="edge">
<title>Node12&#45;&gt;Node29</title>
<g id="a_edge32_Node000012_Node000029"><a xlink:title=" ">
<path fill="none" stroke="#63b8ff" d="M1202.64,-302.6C1218.47,-310.38 1241.29,-321.24 1261.75,-329.62 1265.09,-330.99 1268.57,-332.36 1272.08,-333.69"/>
<polygon fill="#63b8ff" stroke="#63b8ff" points="1270.57,-336.86 1281.16,-337.02 1272.98,-330.29 1270.57,-336.86"/>
</a>
</g>
</g>
<!-- Node13&#45;&gt;Node13 -->
<g id="edge13_Node000013_Node000013" class="edge">
<title>Node13&#45;&gt;Node13</title>
<g id="a_edge13_Node000013_Node000013"><a xlink:title=" ">
<path fill="none" stroke="#63b8ff" d="M1292.98,-302.54C1283.56,-311.15 1290.44,-320.25 1313.62,-320.25 1326.3,-320.25 1334.1,-317.53 1337.03,-313.65"/>
<polygon fill="#63b8ff" stroke="#63b8ff" points="1340.44,-312.87 1334.64,-304.01 1333.65,-314.56 1340.44,-312.87"/>
</a>
</g>
</g>
<!-- Node14 -->
<g id="Node000014" class="node">
<title>Node14</title>
<g id="a_Node000014"><a xlink:href="../../de/d1a/container-dlist_8h.html#a3b6f65860b212e28f2e28e71eb54d54d" target="_top" xlink:title="Add element e at the head of list l (suited for LIFO).">
<polygon fill="white" stroke="#666666" points="1492.5,-376.25 1437.5,-376.25 1437.5,-357 1492.5,-357 1492.5,-376.25"/>
<text text-anchor="middle" x="1465" y="-362.75" font-family="Helvetica,sans-Serif" font-size="10.00">dlist_add</text>
</a>
</g>
</g>
<!-- Node13&#45;&gt;Node14 -->
<g id="edge14_Node000013_Node000014" class="edge">
<title>Node13&#45;&gt;Node14</title>
<g id="a_edge14_Node000013_Node000014"><a xlink:title=" ">
<path fill="none" stroke="#63b8ff" d="M1329.16,-302.73C1349.82,-316.97 1386.8,-341.94 1401.5,-348.62 1409.27,-352.16 1417.91,-355.17 1426.22,-357.67"/>
<polygon fill="#63b8ff" stroke="#63b8ff" points="1425.21,-361.02 1435.78,-360.35 1427.09,-354.28 1425.21,-361.02"/>
</a>
</g>
</g>
<!-- Node16 -->
<g id="Node000016" class="node">
<title>Node16</title>
<g id="a_Node000016"><a xlink:href="../../de/d1a/container-dlist_8h.html#a0a69e401f6ec15966c891e96ad864c77" target="_top" xlink:title="Put a dlist_t element in a safe and detached state.">
<polygon fill="white" stroke="#666666" points="1491,-302.25 1439,-302.25 1439,-283 1491,-283 1491,-302.25"/>
<text text-anchor="middle" x="1465" y="-288.75" font-family="Helvetica,sans-Serif" font-size="10.00">dlist_init</text>
</a>
</g>
</g>
<!-- Node13&#45;&gt;Node16 -->
<g id="edge16_Node000013_Node000016" class="edge">
<title>Node13&#45;&gt;Node16</title>
<g id="a_edge16_Node000013_Node000016"><a xlink:title=" ">
<path fill="none" stroke="#63b8ff" d="M1365.61,-292.62C1385.95,-292.62 1408.91,-292.62 1427.53,-292.62"/>
<polygon fill="#63b8ff" stroke="#63b8ff" points="1427.27,-296.13 1437.27,-292.63 1427.27,-289.13 1427.27,-296.13"/>
</a>
</g>
</g>
<!-- Node17 -->
<g id="Node000017" class="node">
<title>Node17</title>
<g id="a_Node000017"><a xlink:href="../../d7/df8/log_8c.html#a4c8fbe8648573312126ce341cf34cba1" target="_top" xlink:title=" ">
<polygon fill="white" stroke="#666666" points="1528.5,-226.25 1401.5,-226.25 1401.5,-207 1528.5,-207 1528.5,-226.25"/>
<text text-anchor="middle" x="1465" y="-212.75" font-family="Helvetica,sans-Serif" font-size="10.00">logger_compute_fullname</text>
</a>
</g>
</g>
<!-- Node13&#45;&gt;Node17 -->
<g id="edge17_Node000013_Node000017" class="edge">
<title>Node13&#45;&gt;Node17</title>
<g id="a_edge17_Node000013_Node000017"><a xlink:title=" ">
<path fill="none" stroke="#63b8ff" d="M1349.18,-282.61C1354.82,-280.36 1360.46,-277.7 1365.5,-274.62 1384.28,-263.15 1382.87,-252.35 1401.5,-240.62 1407.37,-236.93 1413.91,-233.65 1420.48,-230.8"/>
<polygon fill="#63b8ff" stroke="#63b8ff" points="1421.36,-234.21 1429.33,-227.23 1418.75,-227.72 1421.36,-234.21"/>
</a>
</g>
</g>
<!-- Node20 -->
<g id="Node000020" class="node">
<title>Node20</title>
<g id="a_Node000020"><a xlink:href="../../df/d0a/str-l_8h.html#ad74dae07179370f3c22e3f026157926e" target="_top" xlink:title="wipe a lstr_t (frees memory if needed).">
<polygon fill="white" stroke="#666666" points="1636,-264.25 1581,-264.25 1581,-245 1636,-245 1636,-264.25"/>
<text text-anchor="middle" x="1608.5" y="-250.75" font-family="Helvetica,sans-Serif" font-size="10.00">lstr_wipe</text>
</a>
</g>
</g>
<!-- Node13&#45;&gt;Node20 -->
<g id="edge30_Node000013_Node000020" class="edge">
<title>Node13&#45;&gt;Node20</title>
<g id="a_edge30_Node000013_Node000020"><a xlink:title=" ">
<path fill="none" stroke="#63b8ff" d="M1355.53,-282.59C1369.98,-279.34 1386.4,-275.96 1401.5,-273.62 1459.65,-264.62 1527.74,-259.36 1569.23,-256.74"/>
<polygon fill="#63b8ff" stroke="#63b8ff" points="1569.43,-260.23 1579.19,-256.13 1569,-253.25 1569.43,-260.23"/>
</a>
</g>
</g>
<!-- Node27 -->
<g id="Node000027" class="node">
<title>Node27</title>
<g id="a_Node000027"><a xlink:href="../../df/d0a/str-l_8h.html#a963c22b229774d4b7c106bae4011cb8e" target="_top" xlink:title="Returns whether \v s1 and \v s2 contents are equal.">
<polygon fill="white" stroke="#666666" points="1494,-339.25 1436,-339.25 1436,-320 1494,-320 1494,-339.25"/>
<text text-anchor="middle" x="1465" y="-325.75" font-family="Helvetica,sans-Serif" font-size="10.00">lstr_equal</text>
</a>
</g>
</g>
<!-- Node13&#45;&gt;Node27 -->
<g id="edge29_Node000013_Node000027" class="edge">
<title>Node13&#45;&gt;Node27</title>
<g id="a_edge29_Node000013_Node000027"><a xlink:title=" ">
<path fill="none" stroke="#63b8ff" d="M1355.44,-302.74C1376.97,-308.07 1403.26,-314.58 1424.58,-319.86"/>
<polygon fill="#63b8ff" stroke="#63b8ff" points="1423.51,-323.2 1434.06,-322.21 1425.2,-316.41 1423.51,-323.2"/>
</a>
</g>
</g>
<!-- Node15 -->
<g id="Node000015" class="node">
<title>Node15</title>
<g id="a_Node000015"><a xlink:href="../../de/d1a/container-dlist_8h.html#a71e7667ca0e4b896923788c5851afd24" target="_top" xlink:title="Put element e between prev and next.">
<polygon fill="white" stroke="#666666" points="1641.25,-376.25 1575.75,-376.25 1575.75,-357 1641.25,-357 1641.25,-376.25"/>
<text text-anchor="middle" x="1608.5" y="-362.75" font-family="Helvetica,sans-Serif" font-size="10.00">__dlist_add</text>
</a>
</g>
</g>
<!-- Node14&#45;&gt;Node15 -->
<g id="edge15_Node000014_Node000015" class="edge">
<title>Node14&#45;&gt;Node15</title>
<g id="a_edge15_Node000014_Node000015"><a xlink:title=" ">
<path fill="none" stroke="#63b8ff" d="M1492.95,-366.62C1513.05,-366.62 1540.92,-366.62 1564.14,-366.62"/>
<polygon fill="#63b8ff" stroke="#63b8ff" points="1563.94,-370.13 1573.94,-366.63 1563.94,-363.13 1563.94,-370.13"/>
</a>
</g>
</g>
<!-- Node18 -->
<g id="Node000018" class="node">
<title>Node18</title>
<g id="a_Node000018"><a xlink:href="../../df/d0a/str-l_8h.html#a6a200ca09358f19b13a8e297cda34869" target="_top" xlink:title="returns a constant copy of \v s.">
<polygon fill="white" stroke="#666666" points="1636.38,-217.25 1580.62,-217.25 1580.62,-198 1636.38,-198 1636.38,-217.25"/>
<text text-anchor="middle" x="1608.5" y="-203.75" font-family="Helvetica,sans-Serif" font-size="10.00">lstr_dupc</text>
</a>
</g>
</g>
<!-- Node17&#45;&gt;Node18 -->
<g id="edge18_Node000017_Node000018" class="edge">
<title>Node17&#45;&gt;Node18</title>
<g id="a_edge18_Node000017_Node000018"><a xlink:title=" ">
<path fill="none" stroke="#63b8ff" d="M1528.89,-212.63C1542.54,-211.76 1556.58,-210.86 1568.95,-210.08"/>
<polygon fill="#63b8ff" stroke="#63b8ff" points="1568.97,-213.58 1578.73,-209.46 1568.52,-206.6 1568.97,-213.58"/>
</a>
</g>
</g>
<!-- Node17&#45;&gt;Node20 -->
<g id="edge20_Node000017_Node000020" class="edge">
<title>Node17&#45;&gt;Node20</title>
<g id="a_edge20_Node000017_Node000020"><a xlink:title=" ">
<path fill="none" stroke="#63b8ff" d="M1503.55,-226.71C1523.9,-232.17 1549,-238.91 1569.43,-244.4"/>
<polygon fill="#63b8ff" stroke="#63b8ff" points="1568.52,-247.78 1579.08,-246.99 1570.33,-241.02 1568.52,-247.78"/>
</a>
</g>
</g>
<!-- Node19 -->
<g id="Node000019" class="node">
<title>Node19</title>
<g id="a_Node000019"><a xlink:href="../../df/d0a/str-l_8h.html#a3b4dbe9c4cc70340cba0787574dc1c5e" target="_top" xlink:title=" ">
<polygon fill="white" stroke="#666666" points="1966,-217.25 1913.25,-217.25 1913.25,-198 1966,-198 1966,-217.25"/>
<text text-anchor="middle" x="1939.62" y="-203.75" font-family="Helvetica,sans-Serif" font-size="10.00">lstr_init_</text>
</a>
</g>
</g>
<!-- Node18&#45;&gt;Node19 -->
<g id="edge19_Node000018_Node000019" class="edge">
<title>Node18&#45;&gt;Node19</title>
<g id="a_edge19_Node000018_Node000019"><a xlink:title=" ">
<path fill="none" stroke="#63b8ff" d="M1636.71,-207.62C1695.56,-207.62 1834.69,-207.62 1901.53,-207.62"/>
<polygon fill="#63b8ff" stroke="#63b8ff" points="1901.24,-211.13 1911.24,-207.63 1901.24,-204.13 1901.24,-211.13"/>
</a>
</g>
</g>
<!-- Node21 -->
<g id="Node000021" class="node">
<title>Node21</title>
<g id="a_Node000021"><a xlink:href="../../df/d0a/str-l_8h.html#a381cd831ac9616c5bea8213bb679d1ac" target="_top" xlink:title="Wipe a lstr_t (frees memory if needed).">
<polygon fill="white" stroke="#666666" points="1762.25,-264.25 1688.5,-264.25 1688.5,-245 1762.25,-245 1762.25,-264.25"/>
<text text-anchor="middle" x="1725.38" y="-250.75" font-family="Helvetica,sans-Serif" font-size="10.00">mp_lstr_wipe</text>
</a>
</g>
</g>
<!-- Node20&#45;&gt;Node21 -->
<g id="edge21_Node000020_Node000021" class="edge">
<title>Node20&#45;&gt;Node21</title>
<g id="a_edge21_Node000020_Node000021"><a xlink:title=" ">
<path fill="none" stroke="#63b8ff" d="M1636.43,-254.62C1648.45,-254.62 1662.98,-254.62 1676.74,-254.62"/>
<polygon fill="#63b8ff" stroke="#63b8ff" points="1676.53,-258.13 1686.53,-254.63 1676.53,-251.13 1676.53,-258.13"/>
</a>
</g>
</g>
<!-- Node22 -->
<g id="Node000022" class="node">
<title>Node22</title>
<g id="a_Node000022"><a xlink:href="../../de/d04/str-l_8c.html#abe2a3a71f0b4dbc7d37c59d16762b6fb" target="_top" xlink:title="lstr_copy_* helper.">
<polygon fill="white" stroke="#666666" points="1877.25,-264.25 1798.25,-264.25 1798.25,-245 1877.25,-245 1877.25,-264.25"/>
<text text-anchor="middle" x="1837.75" y="-250.75" font-family="Helvetica,sans-Serif" font-size="10.00">mp_lstr_copy_</text>
</a>
</g>
</g>
<!-- Node21&#45;&gt;Node22 -->
<g id="edge22_Node000021_Node000022" class="edge">
<title>Node21&#45;&gt;Node22</title>
<g id="a_edge22_Node000021_Node000022"><a xlink:title=" ">
<path fill="none" stroke="#63b8ff" d="M1762.52,-254.62C1770.21,-254.62 1778.46,-254.62 1786.57,-254.62"/>
<polygon fill="#63b8ff" stroke="#63b8ff" points="1786.35,-258.13 1796.35,-254.63 1786.35,-251.13 1786.35,-258.13"/>
</a>
</g>
</g>
<!-- Node22&#45;&gt;Node19 -->
<g id="edge28_Node000022_Node000019" class="edge">
<title>Node22&#45;&gt;Node19</title>
<g id="a_edge28_Node000022_Node000019"><a xlink:title=" ">
<path fill="none" stroke="#63b8ff" d="M1859.93,-244.66C1873.61,-238.22 1891.65,-229.73 1907.01,-222.5"/>
<polygon fill="#63b8ff" stroke="#63b8ff" points="1908.2,-225.81 1915.76,-218.38 1905.22,-219.48 1908.2,-225.81"/>
</a>
</g>
</g>
<!-- Node23 -->
<g id="Node000023" class="node">
<title>Node23</title>
<g id="a_Node000023"><a xlink:href="../../d9/d9a/mem_8h.html#aebbbd277e2952bdb802104671ba23ba9" target="_top" xlink:title=" ">
<polygon fill="white" stroke="#666666" points="1957,-292.25 1922.25,-292.25 1922.25,-273 1957,-273 1957,-292.25"/>
<text text-anchor="middle" x="1939.62" y="-278.75" font-family="Helvetica,sans-Serif" font-size="10.00">ifree</text>
</a>
</g>
</g>
<!-- Node22&#45;&gt;Node23 -->
<g id="edge23_Node000022_Node000023" class="edge">
<title>Node22&#45;&gt;Node23</title>
<g id="a_edge23_Node000022_Node000023"><a xlink:title=" ">
<path fill="none" stroke="#63b8ff" d="M1874.81,-264.73C1886.75,-268.08 1899.84,-271.75 1911.05,-274.89"/>
<polygon fill="#63b8ff" stroke="#63b8ff" points="1909.88,-278.2 1920.45,-277.53 1911.77,-271.46 1909.88,-278.2"/>
</a>
</g>
</g>
<!-- Node24 -->
<g id="Node000024" class="node">
<title>Node24</title>
<g id="a_Node000024"><a xlink:href="../../d8/d37/mem_8blk.html#a36b65ab346f1d0deed7b63c544c78f2b" target="_top" xlink:title=" ">
<polygon fill="white" stroke="#666666" points="2046.88,-385.25 2010.62,-385.25 2010.62,-366 2046.88,-366 2046.88,-385.25"/>
<text text-anchor="middle" x="2028.75" y="-371.75" font-family="Helvetica,sans-Serif" font-size="10.00">ipool</text>
</a>
</g>
</g>
<!-- Node23&#45;&gt;Node24 -->
<g id="edge24_Node000023_Node000024" class="edge">
<title>Node23&#45;&gt;Node24</title>
<g id="a_edge24_Node000023_Node000024"><a xlink:title=" ">
<path fill="none" stroke="#63b8ff" d="M1949.95,-292.58C1964.43,-308.03 1992.53,-338.03 2010.7,-357.43"/>
<polygon fill="#63b8ff" stroke="#63b8ff" points="2008.07,-359.73 2017.46,-364.64 2013.18,-354.95 2008.07,-359.73"/>
</a>
</g>
</g>
<!-- Node26 -->
<g id="Node000026" class="node">
<title>Node26</title>
<g id="a_Node000026"><a xlink:href="../../d8/d37/mem_8blk.html#a83c7cf203e5eef9d1a8c6c43cde3e2e5" target="_top" xlink:title=" ">
<polygon fill="white" stroke="#666666" points="2055.5,-292.25 2002,-292.25 2002,-273 2055.5,-273 2055.5,-292.25"/>
<text text-anchor="middle" x="2028.75" y="-278.75" font-family="Helvetica,sans-Serif" font-size="10.00">mp_ifree</text>
</a>
</g>
</g>
<!-- Node23&#45;&gt;Node26 -->
<g id="edge27_Node000023_Node000026" class="edge">
<title>Node23&#45;&gt;Node26</title>
<g id="a_edge27_Node000023_Node000026"><a xlink:title=" ">
<path fill="none" stroke="#63b8ff" d="M1957.42,-282.62C1966.84,-282.62 1978.99,-282.62 1990.53,-282.62"/>
<polygon fill="#63b8ff" stroke="#63b8ff" points="1990.23,-286.13 2000.23,-282.63 1990.23,-279.13 1990.23,-286.13"/>
</a>
</g>
</g>
<!-- Node24&#45;&gt;Node11 -->
<g id="edge25_Node000024_Node000011" class="edge">
<title>Node24&#45;&gt;Node11</title>
<g id="a_edge25_Node000024_Node000011"><a xlink:title=" ">
<path fill="none" stroke="#63b8ff" d="M2010.17,-380.16C1976.93,-388.31 1902.49,-404.62 1838.75,-404.62 1312.62,-404.62 1312.62,-404.62 1312.62,-404.62 1267.67,-404.62 1151.38,-339.29 1098.95,-308.42"/>
<polygon fill="#63b8ff" stroke="#63b8ff" points="1100.75,-305.42 1090.37,-303.34 1097.19,-311.44 1100.75,-305.42"/>
</a>
</g>
</g>
<!-- Node25 -->
<g id="Node000025" class="node">
<title>Node25</title>
<g id="a_Node000025"><a xlink:href="../../d1/d10/mem-stack_8h.html#a1d0e2a29f86dc033a02e50484b527fd0" target="_top" xlink:title=" ">
<polygon fill="white" stroke="#666666" points="2133.75,-385.25 2091.5,-385.25 2091.5,-366 2133.75,-366 2133.75,-385.25"/>
<text text-anchor="middle" x="2112.62" y="-371.75" font-family="Helvetica,sans-Serif" font-size="10.00">t_pool</text>
</a>
</g>
</g>
<!-- Node24&#45;&gt;Node25 -->
<g id="edge26_Node000024_Node000025" class="edge">
<title>Node24&#45;&gt;Node25</title>
<g id="a_edge26_Node000024_Node000025"><a xlink:title=" ">
<path fill="none" stroke="#63b8ff" d="M2047.11,-375.62C2056.56,-375.62 2068.54,-375.62 2079.61,-375.62"/>
<polygon fill="#63b8ff" stroke="#63b8ff" points="2079.59,-379.13 2089.59,-375.63 2079.59,-372.13 2079.59,-379.13"/>
</a>
</g>
</g>
<!-- Node30&#45;&gt;Node18 -->
<g id="edge37_Node000030_Node000018" class="edge">
<title>Node30&#45;&gt;Node18</title>
<g id="a_edge37_Node000030_Node000018"><a xlink:title=" ">
<path fill="none" stroke="#63b8ff" d="M1214.74,-179.62C1275.83,-181.7 1413.25,-187.18 1528.5,-197.62 1541.68,-198.82 1556.04,-200.52 1568.87,-202.18"/>
<polygon fill="#63b8ff" stroke="#63b8ff" points="1568.26,-205.63 1578.63,-203.48 1569.18,-198.69 1568.26,-205.63"/>
</a>
</g>
</g>
<!-- Node31 -->
<g id="Node000031" class="node">
<title>Node31</title>
<g id="a_Node000031"><a xlink:href="../../d1/dc0/group__log.html#ga168a6f17b248f61f7d25a17d58d04e36" target="_top" xlink:title=" ">
<polygon fill="white" stroke="#666666" points="1358,-150.25 1269.25,-150.25 1269.25,-131 1358,-131 1358,-150.25"/>
<text text-anchor="middle" x="1313.62" y="-136.75" font-family="Helvetica,sans-Serif" font-size="10.00">logger_has_level</text>
</a>
</g>
</g>
<!-- Node30&#45;&gt;Node31 -->
<g id="edge34_Node000030_Node000031" class="edge">
<title>Node30&#45;&gt;Node31</title>
<g id="a_edge34_Node000030_Node000031"><a xlink:title=" ">
<path fill="none" stroke="#63b8ff" d="M1214.85,-169.23C1230.63,-164.62 1249.91,-158.97 1267.17,-153.92"/>
<polygon fill="#63b8ff" stroke="#63b8ff" points="1268.09,-157.3 1276.71,-151.13 1266.13,-150.58 1268.09,-157.3"/>
</a>
</g>
</g>
<!-- Node32 -->
<g id="Node000032" class="node">
<title>Node32</title>
<g id="a_Node000032"><a xlink:href="../../d1/dc0/group__log.html#gaf388752b988541da0abeceecdf96e6b3" target="_top" xlink:title=" ">
<polygon fill="white" stroke="#666666" points="1508.25,-150.25 1421.75,-150.25 1421.75,-131 1508.25,-131 1508.25,-150.25"/>
<text text-anchor="middle" x="1465" y="-136.75" font-family="Helvetica,sans-Serif" font-size="10.00">logger_get_level</text>
</a>
</g>
</g>
<!-- Node31&#45;&gt;Node32 -->
<g id="edge35_Node000031_Node000032" class="edge">
<title>Node31&#45;&gt;Node32</title>
<g id="a_edge35_Node000031_Node000032"><a xlink:title=" ">
<path fill="none" stroke="#63b8ff" d="M1358.23,-140.62C1374.39,-140.62 1392.92,-140.62 1409.9,-140.62"/>
<polygon fill="#63b8ff" stroke="#63b8ff" points="1409.86,-144.13 1419.86,-140.63 1409.86,-137.13 1409.86,-144.13"/>
</a>
</g>
</g>
<!-- Node33 -->
<g id="Node000033" class="node">
<title>Node33</title>
<g id="a_Node000033"><a xlink:href="../../d1/dc0/group__log.html#ga93cbd623096e1704532d15b3eb30e42f" target="_top" xlink:title=" ">
<polygon fill="white" stroke="#666666" points="1652.5,-150.25 1564.5,-150.25 1564.5,-131 1652.5,-131 1652.5,-150.25"/>
<text text-anchor="middle" x="1608.5" y="-136.75" font-family="Helvetica,sans-Serif" font-size="10.00">__logger_refresh</text>
</a>
</g>
</g>
<!-- Node32&#45;&gt;Node33 -->
<g id="edge36_Node000032_Node000033" class="edge">
<title>Node32&#45;&gt;Node33</title>
<g id="a_edge36_Node000032_Node000033"><a xlink:title=" ">
<path fill="none" stroke="#63b8ff" d="M1508.45,-140.62C1522.33,-140.62 1537.94,-140.62 1552.6,-140.62"/>
<polygon fill="#63b8ff" stroke="#63b8ff" points="1552.58,-144.13 1562.58,-140.63 1552.58,-137.13 1552.58,-144.13"/>
</a>
</g>
</g>
<!-- Node36 -->
<g id="Node000036" class="node">
<title>Node36</title>
<g id="a_Node000036"><a xlink:href="../../d8/d96/bithacks_8h.html#ab80588fa9f8b9e766249edaf70558bdc" target="_top" xlink:title=" ">
<polygon fill="white" stroke="#666666" points="1101.75,-339.25 1041.5,-339.25 1041.5,-320 1101.75,-320 1101.75,-339.25"/>
<text text-anchor="middle" x="1071.62" y="-325.75" font-family="Helvetica,sans-Serif" font-size="10.00">bitcountsz</text>
</a>
</g>
</g>
<!-- Node35&#45;&gt;Node36 -->
<g id="edge40_Node000035_Node000036" class="edge">
<title>Node35&#45;&gt;Node36</title>
<g id="a_edge40_Node000035_Node000036"><a xlink:title=" ">
<path fill="none" stroke="#63b8ff" d="M994.07,-329.62C1005.65,-329.62 1018.37,-329.62 1030.06,-329.62"/>
<polygon fill="#63b8ff" stroke="#63b8ff" points="1029.81,-333.13 1039.81,-329.63 1029.81,-326.13 1029.81,-333.13"/>
</a>
</g>
</g>
<!-- Node38 -->
<g id="Node000038" class="node">
<title>Node38</title>
<g id="a_Node000038"><a xlink:href="../../d8/d37/mem_8blk.html#a377e36d6fbaf3ee7f1b217559cb0c850" target="_top" xlink:title=" ">
<polygon fill="white" stroke="#666666" points="1005.5,-376.25 903.25,-376.25 903.25,-357 1005.5,-357 1005.5,-376.25"/>
<text text-anchor="middle" x="954.38" y="-362.75" font-family="Helvetica,sans-Serif" font-size="10.00">__imalloc_too_large</text>
</a>
</g>
</g>
<!-- Node37&#45;&gt;Node38 -->
<g id="edge42_Node000037_Node000038" class="edge">
<title>Node37&#45;&gt;Node38</title>
<g id="a_edge42_Node000037_Node000038"><a xlink:title=" ">
<path fill="none" stroke="#63b8ff" d="M867.39,-355.08C875.39,-356.15 883.66,-357.26 891.77,-358.35"/>
<polygon fill="#63b8ff" stroke="#63b8ff" points="891.21,-361.81 901.58,-359.67 892.14,-354.87 891.21,-361.81"/>
</a>
</g>
</g>
<!-- Node39&#45;&gt;Node19 -->
<g id="edge44_Node000039_Node000019" class="edge">
<title>Node39&#45;&gt;Node19</title>
<g id="a_edge44_Node000039_Node000019"><a xlink:title=" ">
<path fill="none" stroke="#63b8ff" d="M1748.69,-122.61C1786.27,-139.43 1862.34,-173.48 1905.95,-193"/>
<polygon fill="#63b8ff" stroke="#63b8ff" points="1904.35,-196.12 1914.91,-197.01 1907.21,-189.73 1904.35,-196.12"/>
</a>
</g>
</g>
<!-- Node41 -->
<g id="Node000041" class="node">
<title>Node41</title>
<g id="a_Node000041"><a xlink:href="../../d4/d86/str-stream_8h.html#a7cba79bf41ebfdcae3086bd7402496a2" target="_top" xlink:title=" ">
<polygon fill="white" stroke="#666666" points="398.62,-84.25 342.88,-84.25 342.88,-65 398.62,-65 398.62,-84.25"/>
<text text-anchor="middle" x="370.75" y="-70.75" font-family="Helvetica,sans-Serif" font-size="10.00">ps_initstr</text>
</a>
</g>
</g>
<!-- Node40&#45;&gt;Node41 -->
<g id="edge46_Node000040_Node000041" class="edge">
<title>Node40&#45;&gt;Node41</title>
<g id="a_edge46_Node000040_Node000041"><a xlink:title=" ">
<path fill="none" stroke="#63b8ff" d="M295.43,-74.62C307.61,-74.62 319.98,-74.62 331.05,-74.62"/>
<polygon fill="#63b8ff" stroke="#63b8ff" points="330.96,-78.13 340.96,-74.63 330.96,-71.13 330.96,-78.13"/>
</a>
</g>
</g>
<!-- Node43 -->
<g id="Node000043" class="node">
<title>Node43</title>
<g id="a_Node000043"><a xlink:href="../../d4/d86/str-stream_8h.html#a5c921d6e3579ed53a9724b116a698cf6" target="_top" xlink:title=" ">
<polygon fill="white" stroke="#666666" points="401.25,-47.25 340.25,-47.25 340.25,-28 401.25,-28 401.25,-47.25"/>
<text text-anchor="middle" x="370.75" y="-33.75" font-family="Helvetica,sans-Serif" font-size="10.00">ps_skipstr</text>
</a>
</g>
</g>
<!-- Node40&#45;&gt;Node43 -->
<g id="edge48_Node000040_Node000043" class="edge">
<title>Node40&#45;&gt;Node43</title>
<g id="a_edge48_Node000040_Node000043"><a xlink:title=" ">
<path fill="none" stroke="#63b8ff" d="M268.82,-64.51C287.4,-59.57 309.79,-53.6 328.76,-48.55"/>
<polygon fill="#63b8ff" stroke="#63b8ff" points="329.54,-51.96 338.3,-46 327.74,-45.2 329.54,-51.96"/>
</a>
</g>
</g>
<!-- Node42 -->
<g id="Node000042" class="node">
<title>Node42</title>
<g id="a_Node000042"><a xlink:href="../../d4/d86/str-stream_8h.html#a3b4fe44eb26c6eb77b5c58ab8f6a0b46" target="_top" xlink:title=" ">
<polygon fill="white" stroke="#666666" points="499.75,-84.25 444,-84.25 444,-65 499.75,-65 499.75,-84.25"/>
<text text-anchor="middle" x="471.88" y="-70.75" font-family="Helvetica,sans-Serif" font-size="10.00">ps_initptr</text>
</a>
</g>
</g>
<!-- Node41&#45;&gt;Node42 -->
<g id="edge47_Node000041_Node000042" class="edge">
<title>Node41&#45;&gt;Node42</title>
<g id="a_edge47_Node000041_Node000042"><a xlink:title=" ">
<path fill="none" stroke="#63b8ff" d="M399.1,-74.62C409.39,-74.62 421.3,-74.62 432.41,-74.62"/>
<polygon fill="#63b8ff" stroke="#63b8ff" points="432.1,-78.13 442.1,-74.63 432.1,-71.13 432.1,-78.13"/>
</a>
</g>
</g>
<!-- Node44 -->
<g id="Node000044" class="node">
<title>Node44</title>
<g id="a_Node000044"><a xlink:href="../../d4/d86/str-stream_8h.html#a5a0b1c31950e4f8029441f7545e4f696" target="_top" xlink:title=" ">
<polygon fill="white" stroke="#666666" points="506.12,-47.25 437.62,-47.25 437.62,-28 506.12,-28 506.12,-47.25"/>
<text text-anchor="middle" x="471.88" y="-33.75" font-family="Helvetica,sans-Serif" font-size="10.00">ps_skipdata</text>
</a>
</g>
</g>
<!-- Node43&#45;&gt;Node44 -->
<g id="edge49_Node000043_Node000044" class="edge">
<title>Node43&#45;&gt;Node44</title>
<g id="a_edge49_Node000043_Node000044"><a xlink:title=" ">
<path fill="none" stroke="#63b8ff" d="M401.49,-37.62C409.17,-37.62 417.6,-37.62 425.86,-37.62"/>
<polygon fill="#63b8ff" stroke="#63b8ff" points="425.82,-41.13 435.82,-37.63 425.82,-34.13 425.82,-41.13"/>
</a>
</g>
</g>
<!-- Node45 -->
<g id="Node000045" class="node">
<title>Node45</title>
<g id="a_Node000045"><a xlink:href="../../d4/d86/str-stream_8h.html#ae098817247881bad5d9318d4c6b712cf" target="_top" xlink:title=" ">
<polygon fill="white" stroke="#666666" points="609.88,-56.25 549.62,-56.25 549.62,-37 609.88,-37 609.88,-56.25"/>
<text text-anchor="middle" x="579.75" y="-42.75" font-family="Helvetica,sans-Serif" font-size="10.00">__ps_skip</text>
</a>
</g>
</g>
<!-- Node44&#45;&gt;Node45 -->
<g id="edge50_Node000044_Node000045" class="edge">
<title>Node44&#45;&gt;Node45</title>
<g id="a_edge50_Node000044_Node000045"><a xlink:title=" ">
<path fill="none" stroke="#63b8ff" d="M506.37,-40.47C516.41,-41.33 527.53,-42.27 537.98,-43.16"/>
<polygon fill="#63b8ff" stroke="#63b8ff" points="537.63,-46.64 547.89,-44 538.22,-39.67 537.63,-46.64"/>
</a>
</g>
</g>
<!-- Node48 -->
<g id="Node000048" class="node">
<title>Node48</title>
<g id="a_Node000048"><a xlink:href="../../d4/d86/str-stream_8h.html#a6f3c2738091b3aa785beac8897738d66" target="_top" xlink:title=" ">
<polygon fill="white" stroke="#666666" points="617,-19.25 542.5,-19.25 542.5,0 617,0 617,-19.25"/>
<text text-anchor="middle" x="579.75" y="-5.75" font-family="Helvetica,sans-Serif" font-size="10.00">ps_startswith</text>
</a>
</g>
</g>
<!-- Node44&#45;&gt;Node48 -->
<g id="edge53_Node000044_Node000048" class="edge">
<title>Node44&#45;&gt;Node48</title>
<g id="a_edge53_Node000044_Node000048"><a xlink:title=" ">
<path fill="none" stroke="#63b8ff" d="M506.37,-28.77C514.29,-26.67 522.89,-24.4 531.29,-22.18"/>
<polygon fill="#63b8ff" stroke="#63b8ff" points="531.93,-25.63 540.7,-19.69 530.14,-18.86 531.93,-25.63"/>
</a>
</g>
</g>
<!-- Node46 -->
<g id="Node000046" class="node">
<title>Node46</title>
<g id="a_Node000046"><a xlink:href="../../d4/d86/str-stream_8h.html#ab34e4ed4459c611a797df76cab2e8846" target="_top" xlink:title=" ">
<polygon fill="white" stroke="#666666" points="709.5,-56.25 662,-56.25 662,-37 709.5,-37 709.5,-56.25"/>
<text text-anchor="middle" x="685.75" y="-42.75" font-family="Helvetica,sans-Serif" font-size="10.00">ps_has</text>
</a>
</g>
</g>
<!-- Node45&#45;&gt;Node46 -->
<g id="edge51_Node000045_Node000046" class="edge">
<title>Node45&#45;&gt;Node46</title>
<g id="a_edge51_Node000045_Node000046"><a xlink:title=" ">
<path fill="none" stroke="#63b8ff" d="M610.27,-46.62C622.78,-46.62 637.43,-46.62 650.42,-46.62"/>
<polygon fill="#63b8ff" stroke="#63b8ff" points="650.25,-50.13 660.25,-46.63 650.25,-43.13 650.25,-50.13"/>
</a>
</g>
</g>
<!-- Node47 -->
<g id="Node000047" class="node">
<title>Node47</title>
<g id="a_Node000047"><a xlink:href="../../d4/d86/str-stream_8h.html#a171f7ecffb1d3846b226cd8d7016aed7" target="_top" xlink:title=" ">
<polygon fill="white" stroke="#666666" points="837.25,-56.25 784.5,-56.25 784.5,-37 837.25,-37 837.25,-56.25"/>
<text text-anchor="middle" x="810.88" y="-42.75" font-family="Helvetica,sans-Serif" font-size="10.00">ps_done</text>
</a>
</g>
</g>
<!-- Node46&#45;&gt;Node47 -->
<g id="edge52_Node000046_Node000047" class="edge">
<title>Node46&#45;&gt;Node47</title>
<g id="a_edge52_Node000046_Node000047"><a xlink:title=" ">
<path fill="none" stroke="#63b8ff" d="M709.91,-46.62C727.61,-46.62 752.37,-46.62 772.81,-46.62"/>
<polygon fill="#63b8ff" stroke="#63b8ff" points="772.76,-50.13 782.76,-46.63 772.76,-43.13 772.76,-50.13"/>
</a>
</g>
</g>
<!-- Node49 -->
<g id="Node000049" class="node">
<title>Node49</title>
<g id="a_Node000049"><a xlink:href="../../d4/d86/str-stream_8h.html#a792bf8e215595e8fd225339902c447bf" target="_top" xlink:title=" ">
<polygon fill="white" stroke="#666666" points="708,-19.25 663.5,-19.25 663.5,0 708,0 708,-19.25"/>
<text text-anchor="middle" x="685.75" y="-5.75" font-family="Helvetica,sans-Serif" font-size="10.00">ps_len</text>
</a>
</g>
</g>
<!-- Node48&#45;&gt;Node49 -->
<g id="edge54_Node000048_Node000049" class="edge">
<title>Node48&#45;&gt;Node49</title>
<g id="a_edge54_Node000048_Node000049"><a xlink:title=" ">
<path fill="none" stroke="#63b8ff" d="M617.42,-9.62C628.67,-9.62 640.97,-9.62 651.95,-9.62"/>
<polygon fill="#63b8ff" stroke="#63b8ff" points="651.71,-13.13 661.71,-9.63 651.71,-6.13 651.71,-13.13"/>
</a>
</g>
</g>
</g>
</svg>
