<?xml version="1.0" encoding="UTF-8" standalone="no"?>
<!DOCTYPE svg PUBLIC "-//W3C//DTD SVG 1.1//EN"
 "http://www.w3.org/Graphics/SVG/1.1/DTD/svg11.dtd">
<!-- Generated by graphviz version 9.0.0 (20230911.1827)
 -->
<!-- Title: asn1_set_seq_of_max Pages: 1 -->
<svg width="1445pt" height="282pt"
 viewBox="0.00 0.00 1445.00 281.62" xmlns="http://www.w3.org/2000/svg" xmlns:xlink="http://www.w3.org/1999/xlink">
<g id="graph0" class="graph" transform="scale(1 1) rotate(0) translate(4 277.62)">
<title>asn1_set_seq_of_max</title>
<!-- Node1 -->
<g id="Node000001" class="node">
<title>Node1</title>
<g id="a_Node000001"><a xlink:title=" ">
<polygon fill="#999999" stroke="#666666" points="113.5,-190.25 0,-190.25 0,-171 113.5,-171 113.5,-190.25"/>
<text text-anchor="middle" x="56.75" y="-176.75" font-family="Helvetica,sans-Serif" font-size="10.00">asn1_set_seq_of_max</text>
</a>
</g>
</g>
<!-- Node2 -->
<g id="Node000002" class="node">
<title>Node2</title>
<g id="a_Node000002"><a xlink:href="../../d9/dc2/per-macros_8h.html#a079ff9ab161ae7decff1f01ebf67c891" target="_top" xlink:title=" ">
<polygon fill="white" stroke="#666666" points="266,-195.88 149.5,-195.88 149.5,-165.38 266,-165.38 266,-195.88"/>
<text text-anchor="start" x="157.5" y="-182.38" font-family="Helvetica,sans-Serif" font-size="10.00">asn1_desc_get_seq_of</text>
<text text-anchor="middle" x="207.75" y="-171.12" font-family="Helvetica,sans-Serif" font-size="10.00">_field</text>
</a>
</g>
</g>
<!-- Node1&#45;&gt;Node2 -->
<g id="edge1_Node000001_Node000002" class="edge">
<title>Node1&#45;&gt;Node2</title>
<g id="a_edge1_Node000001_Node000002"><a xlink:title=" ">
<path fill="none" stroke="#63b8ff" d="M113.66,-180.62C121.51,-180.62 129.67,-180.62 137.73,-180.62"/>
<polygon fill="#63b8ff" stroke="#63b8ff" points="137.53,-184.13 147.53,-180.63 137.53,-177.13 137.53,-184.13"/>
</a>
</g>
</g>
<!-- Node3 -->
<g id="Node000003" class="node">
<title>Node3</title>
<g id="a_Node000003"><a xlink:href="../../d9/dc2/per-macros_8h.html#ab547722a799fa247b8088232afade30a" target="_top" xlink:title=" ">
<polygon fill="white" stroke="#666666" points="405,-217.88 302,-217.88 302,-187.38 405,-187.38 405,-217.88"/>
<text text-anchor="start" x="310" y="-204.38" font-family="Helvetica,sans-Serif" font-size="10.00">asn1_desc_get_last</text>
<text text-anchor="middle" x="353.5" y="-193.12" font-family="Helvetica,sans-Serif" font-size="10.00">_field</text>
</a>
</g>
</g>
<!-- Node2&#45;&gt;Node3 -->
<g id="edge2_Node000002_Node000003" class="edge">
<title>Node2&#45;&gt;Node3</title>
<g id="a_edge2_Node000002_Node000003"><a xlink:title=" ">
<path fill="none" stroke="#63b8ff" d="M266.39,-189.45C274.35,-190.67 282.56,-191.92 290.6,-193.15"/>
<polygon fill="#63b8ff" stroke="#63b8ff" points="289.89,-196.58 300.31,-194.64 290.95,-189.66 289.89,-196.58"/>
</a>
</g>
</g>
<!-- Node4 -->
<g id="Node000004" class="node">
<title>Node4</title>
<g id="a_Node000004"><a xlink:href="../../d7/df8/log_8c.html#abca342edf91a9b45f7a17ef564fa8a53" target="_top" xlink:title=" ">
<polygon fill="white" stroke="#666666" points="378.38,-169.25 328.62,-169.25 328.62,-150 378.38,-150 378.38,-169.25"/>
<text text-anchor="middle" x="353.5" y="-155.75" font-family="Helvetica,sans-Serif" font-size="10.00">e_panic</text>
</a>
</g>
</g>
<!-- Node2&#45;&gt;Node4 -->
<g id="edge3_Node000002_Node000004" class="edge">
<title>Node2&#45;&gt;Node4</title>
<g id="a_edge3_Node000002_Node000004"><a xlink:title=" ">
<path fill="none" stroke="#63b8ff" d="M266.39,-172.2C283.57,-169.69 301.88,-167.02 317.18,-164.79"/>
<polygon fill="#63b8ff" stroke="#63b8ff" points="317.33,-168.3 326.72,-163.39 316.32,-161.37 317.33,-168.3"/>
</a>
</g>
</g>
<!-- Node5 -->
<g id="Node000005" class="node">
<title>Node5</title>
<g id="a_Node000005"><a xlink:href="../../d7/df8/log_8c.html#a4bc04f7baa1e064cb0b93c7b9f3a61a1" target="_top" xlink:title=" ">
<polygon fill="white" stroke="#666666" points="529,-132.25 441,-132.25 441,-113 529,-113 529,-132.25"/>
<text text-anchor="middle" x="485" y="-118.75" font-family="Helvetica,sans-Serif" font-size="10.00">__logger_refresh</text>
</a>
</g>
</g>
<!-- Node4&#45;&gt;Node5 -->
<g id="edge4_Node000004_Node000005" class="edge">
<title>Node4&#45;&gt;Node5</title>
<g id="a_edge4_Node000004_Node000005"><a xlink:title=" ">
<path fill="none" stroke="#63b8ff" d="M378.86,-152.67C395.47,-147.92 417.99,-141.48 437.93,-135.79"/>
<polygon fill="#63b8ff" stroke="#63b8ff" points="438.89,-139.15 447.54,-133.04 436.96,-132.42 438.89,-139.15"/>
</a>
</g>
</g>
<!-- Node23 -->
<g id="Node000023" class="node">
<title>Node23</title>
<g id="a_Node000023"><a xlink:href="../../d7/df8/log_8c.html#a900490b26df7698aac12f7f7e6517e81" target="_top" xlink:title=" ">
<polygon fill="white" stroke="#666666" points="517.75,-207.25 452.25,-207.25 452.25,-188 517.75,-188 517.75,-207.25"/>
<text text-anchor="middle" x="485" y="-193.75" font-family="Helvetica,sans-Serif" font-size="10.00">logger_vlog</text>
</a>
</g>
</g>
<!-- Node4&#45;&gt;Node23 -->
<g id="edge26_Node000004_Node000023" class="edge">
<title>Node4&#45;&gt;Node23</title>
<g id="a_edge26_Node000004_Node000023"><a xlink:title=" ">
<path fill="none" stroke="#63b8ff" d="M378.86,-166.77C396.37,-171.91 420.45,-178.98 441.15,-185.05"/>
<polygon fill="#63b8ff" stroke="#63b8ff" points="439.89,-188.33 450.47,-187.78 441.86,-181.61 439.89,-188.33"/>
</a>
</g>
</g>
<!-- Node27 -->
<g id="Node000027" class="node">
<title>Node27</title>
<g id="a_Node000027"><a xlink:href="../../d2/d4d/file_8h.html#a25419a391fdd4ad7954699c58cfeb3b9" target="_top" xlink:title=" ">
<polygon fill="white" stroke="#666666" points="510.62,-95.25 459.38,-95.25 459.38,-76 510.62,-76 510.62,-95.25"/>
<text text-anchor="middle" x="485" y="-81.75" font-family="Helvetica,sans-Serif" font-size="10.00">va_start</text>
</a>
</g>
</g>
<!-- Node4&#45;&gt;Node27 -->
<g id="edge31_Node000004_Node000027" class="edge">
<title>Node4&#45;&gt;Node27</title>
<g id="a_edge31_Node000004_Node000027"><a xlink:title=" ">
<path fill="none" stroke="#63b8ff" d="M368.42,-149.51C385.13,-137.62 414.26,-117.73 441,-103.62 443.51,-102.3 446.13,-101.01 448.79,-99.75"/>
<polygon fill="#63b8ff" stroke="#63b8ff" points="450,-103.05 457.71,-95.78 447.15,-96.65 450,-103.05"/>
</a>
</g>
</g>
<!-- Node6 -->
<g id="Node000006" class="node">
<title>Node6</title>
<g id="a_Node000006"><a xlink:href="../../d7/df8/log_8c.html#a3dbd75fb614210f0b114cfd03c9c0a7b" target="_top" xlink:title=" ">
<polygon fill="white" stroke="#666666" points="668.75,-132.25 565,-132.25 565,-113 668.75,-113 668.75,-132.25"/>
<text text-anchor="middle" x="616.88" y="-118.75" font-family="Helvetica,sans-Serif" font-size="10.00">__logger_do_refresh</text>
</a>
</g>
</g>
<!-- Node5&#45;&gt;Node6 -->
<g id="edge5_Node000005_Node000006" class="edge">
<title>Node5&#45;&gt;Node6</title>
<g id="a_edge5_Node000005_Node000006"><a xlink:title=" ">
<path fill="none" stroke="#63b8ff" d="M529.25,-122.62C536.97,-122.62 545.16,-122.62 553.29,-122.62"/>
<polygon fill="#63b8ff" stroke="#63b8ff" points="553.2,-126.13 563.2,-122.63 553.2,-119.13 553.2,-126.13"/>
</a>
</g>
</g>
<!-- Node21 -->
<g id="Node000021" class="node">
<title>Node21</title>
<g id="a_Node000021"><a xlink:href="../../d7/df8/log_8c.html#a7b1b02d1986e1247c2f571af4a2c2854" target="_top" xlink:title=" ">
<polygon fill="white" stroke="#666666" points="654.5,-58.25 579.25,-58.25 579.25,-39 654.5,-39 654.5,-58.25"/>
<text text-anchor="middle" x="616.88" y="-44.75" font-family="Helvetica,sans-Serif" font-size="10.00">log_spin_lock</text>
</a>
</g>
</g>
<!-- Node5&#45;&gt;Node21 -->
<g id="edge24_Node000005_Node000021" class="edge">
<title>Node5&#45;&gt;Node21</title>
<g id="a_edge24_Node000005_Node000021"><a xlink:title=" ">
<path fill="none" stroke="#63b8ff" d="M514.64,-112.61C519.62,-110.33 524.6,-107.66 529,-104.62 548.14,-91.4 545.49,-79.3 565,-66.62 566.62,-65.57 568.31,-64.57 570.05,-63.62"/>
<polygon fill="#63b8ff" stroke="#63b8ff" points="571.46,-66.83 579,-59.38 568.46,-60.5 571.46,-66.83"/>
</a>
</g>
</g>
<!-- Node22 -->
<g id="Node000022" class="node">
<title>Node22</title>
<g id="a_Node000022"><a xlink:href="../../d1/dc0/group__log.html#ga045020bb4af234632f7761f220131c69" target="_top" xlink:title=" ">
<polygon fill="white" stroke="#666666" points="659.75,-95.25 574,-95.25 574,-76 659.75,-76 659.75,-95.25"/>
<text text-anchor="middle" x="616.88" y="-81.75" font-family="Helvetica,sans-Serif" font-size="10.00">log_spin_unlock</text>
</a>
</g>
</g>
<!-- Node5&#45;&gt;Node22 -->
<g id="edge25_Node000005_Node000022" class="edge">
<title>Node5&#45;&gt;Node22</title>
<g id="a_edge25_Node000005_Node000022"><a xlink:title=" ">
<path fill="none" stroke="#63b8ff" d="M521.49,-112.51C536.38,-108.27 553.89,-103.28 569.76,-98.76"/>
<polygon fill="#63b8ff" stroke="#63b8ff" points="570.32,-102.24 578.97,-96.14 568.4,-95.51 570.32,-102.24"/>
</a>
</g>
</g>
<!-- Node6&#45;&gt;Node6 -->
<g id="edge6_Node000006_Node000006" class="edge">
<title>Node6&#45;&gt;Node6</title>
<g id="a_edge6_Node000006_Node000006"><a xlink:title=" ">
<path fill="none" stroke="#63b8ff" d="M596.23,-132.54C586.81,-141.15 593.69,-150.25 616.88,-150.25 629.55,-150.25 637.35,-147.53 640.28,-143.65"/>
<polygon fill="#63b8ff" stroke="#63b8ff" points="643.69,-142.87 637.89,-134.01 636.9,-144.56 643.69,-142.87"/>
</a>
</g>
</g>
<!-- Node7 -->
<g id="Node000007" class="node">
<title>Node7</title>
<g id="a_Node000007"><a xlink:href="../../de/d1a/container-dlist_8h.html#a3b6f65860b212e28f2e28e71eb54d54d" target="_top" xlink:title="Add element e at the head of list l (suited for LIFO).">
<polygon fill="white" stroke="#666666" points="795.75,-56.25 740.75,-56.25 740.75,-37 795.75,-37 795.75,-56.25"/>
<text text-anchor="middle" x="768.25" y="-42.75" font-family="Helvetica,sans-Serif" font-size="10.00">dlist_add</text>
</a>
</g>
</g>
<!-- Node6&#45;&gt;Node7 -->
<g id="edge7_Node000006_Node000007" class="edge">
<title>Node6&#45;&gt;Node7</title>
<g id="a_edge7_Node000006_Node000007"><a xlink:title=" ">
<path fill="none" stroke="#63b8ff" d="M652.43,-112.61C658.07,-110.36 663.71,-107.7 668.75,-104.62 687.53,-93.15 686.12,-82.35 704.75,-70.62 712.43,-65.79 721.23,-61.68 729.76,-58.29"/>
<polygon fill="#63b8ff" stroke="#63b8ff" points="730.73,-61.66 738.9,-54.91 728.31,-55.1 730.73,-61.66"/>
</a>
</g>
</g>
<!-- Node9 -->
<g id="Node000009" class="node">
<title>Node9</title>
<g id="a_Node000009"><a xlink:href="../../de/d1a/container-dlist_8h.html#a0a69e401f6ec15966c891e96ad864c77" target="_top" xlink:title="Put a dlist_t element in a safe and detached state.">
<polygon fill="white" stroke="#666666" points="794.25,-19.25 742.25,-19.25 742.25,0 794.25,0 794.25,-19.25"/>
<text text-anchor="middle" x="768.25" y="-5.75" font-family="Helvetica,sans-Serif" font-size="10.00">dlist_init</text>
</a>
</g>
</g>
<!-- Node6&#45;&gt;Node9 -->
<g id="edge9_Node000006_Node000009" class="edge">
<title>Node6&#45;&gt;Node9</title>
<g id="a_edge9_Node000006_Node000009"><a xlink:title=" ">
<path fill="none" stroke="#63b8ff" d="M656.95,-112.53C661.23,-110.38 665.28,-107.77 668.75,-104.62 696.73,-79.24 676.03,-52.16 704.75,-27.62 712.07,-21.37 721.46,-17.28 730.72,-14.62"/>
<polygon fill="#63b8ff" stroke="#63b8ff" points="731.39,-18.05 740.32,-12.36 729.79,-11.24 731.39,-18.05"/>
</a>
</g>
</g>
<!-- Node10 -->
<g id="Node000010" class="node">
<title>Node10</title>
<g id="a_Node000010"><a xlink:href="../../d7/df8/log_8c.html#a4c8fbe8648573312126ce341cf34cba1" target="_top" xlink:title=" ">
<polygon fill="white" stroke="#666666" points="831.75,-169.25 704.75,-169.25 704.75,-150 831.75,-150 831.75,-169.25"/>
<text text-anchor="middle" x="768.25" y="-155.75" font-family="Helvetica,sans-Serif" font-size="10.00">logger_compute_fullname</text>
</a>
</g>
</g>
<!-- Node6&#45;&gt;Node10 -->
<g id="edge10_Node000006_Node000010" class="edge">
<title>Node6&#45;&gt;Node10</title>
<g id="a_edge10_Node000006_Node000010"><a xlink:title=" ">
<path fill="none" stroke="#63b8ff" d="M658.69,-132.74C676.23,-137.08 696.93,-142.21 715.52,-146.81"/>
<polygon fill="#63b8ff" stroke="#63b8ff" points="714.46,-150.16 725.01,-149.16 716.15,-143.36 714.46,-150.16"/>
</a>
</g>
</g>
<!-- Node13 -->
<g id="Node000013" class="node">
<title>Node13</title>
<g id="a_Node000013"><a xlink:href="../../df/d0a/str-l_8h.html#ad74dae07179370f3c22e3f026157926e" target="_top" xlink:title="wipe a lstr_t (frees memory if needed).">
<polygon fill="white" stroke="#666666" points="939.25,-169.25 884.25,-169.25 884.25,-150 939.25,-150 939.25,-169.25"/>
<text text-anchor="middle" x="911.75" y="-155.75" font-family="Helvetica,sans-Serif" font-size="10.00">lstr_wipe</text>
</a>
</g>
</g>
<!-- Node6&#45;&gt;Node13 -->
<g id="edge23_Node000006_Node000013" class="edge">
<title>Node6&#45;&gt;Node13</title>
<g id="a_edge23_Node000006_Node000013"><a xlink:title=" ">
<path fill="none" stroke="#63b8ff" d="M648.45,-112.59C690.71,-100.35 768.88,-83.6 831.75,-103.62 855.36,-111.15 877.98,-128.57 892.91,-142"/>
<polygon fill="#63b8ff" stroke="#63b8ff" points="890.36,-144.41 900.05,-148.69 895.15,-139.3 890.36,-144.41"/>
</a>
</g>
</g>
<!-- Node20 -->
<g id="Node000020" class="node">
<title>Node20</title>
<g id="a_Node000020"><a xlink:href="../../df/d0a/str-l_8h.html#a963c22b229774d4b7c106bae4011cb8e" target="_top" xlink:title="Returns whether \v s1 and \v s2 contents are equal.">
<polygon fill="white" stroke="#666666" points="797.25,-132.25 739.25,-132.25 739.25,-113 797.25,-113 797.25,-132.25"/>
<text text-anchor="middle" x="768.25" y="-118.75" font-family="Helvetica,sans-Serif" font-size="10.00">lstr_equal</text>
</a>
</g>
</g>
<!-- Node6&#45;&gt;Node20 -->
<g id="edge22_Node000006_Node000020" class="edge">
<title>Node6&#45;&gt;Node20</title>
<g id="a_edge22_Node000006_Node000020"><a xlink:title=" ">
<path fill="none" stroke="#63b8ff" d="M668.86,-122.62C688.14,-122.62 709.76,-122.62 727.82,-122.62"/>
<polygon fill="#63b8ff" stroke="#63b8ff" points="727.59,-126.13 737.59,-122.63 727.59,-119.13 727.59,-126.13"/>
</a>
</g>
</g>
<!-- Node8 -->
<g id="Node000008" class="node">
<title>Node8</title>
<g id="a_Node000008"><a xlink:href="../../de/d1a/container-dlist_8h.html#a71e7667ca0e4b896923788c5851afd24" target="_top" xlink:title="Put element e between prev and next.">
<polygon fill="white" stroke="#666666" points="944.5,-56.25 879,-56.25 879,-37 944.5,-37 944.5,-56.25"/>
<text text-anchor="middle" x="911.75" y="-42.75" font-family="Helvetica,sans-Serif" font-size="10.00">__dlist_add</text>
</a>
</g>
</g>
<!-- Node7&#45;&gt;Node8 -->
<g id="edge8_Node000007_Node000008" class="edge">
<title>Node7&#45;&gt;Node8</title>
<g id="a_edge8_Node000007_Node000008"><a xlink:title=" ">
<path fill="none" stroke="#63b8ff" d="M796.2,-46.62C816.3,-46.62 844.17,-46.62 867.39,-46.62"/>
<polygon fill="#63b8ff" stroke="#63b8ff" points="867.19,-50.13 877.19,-46.63 867.19,-43.13 867.19,-50.13"/>
</a>
</g>
</g>
<!-- Node11 -->
<g id="Node000011" class="node">
<title>Node11</title>
<g id="a_Node000011"><a xlink:href="../../df/d0a/str-l_8h.html#a6a200ca09358f19b13a8e297cda34869" target="_top" xlink:title="returns a constant copy of \v s.">
<polygon fill="white" stroke="#666666" points="939.62,-207.25 883.88,-207.25 883.88,-188 939.62,-188 939.62,-207.25"/>
<text text-anchor="middle" x="911.75" y="-193.75" font-family="Helvetica,sans-Serif" font-size="10.00">lstr_dupc</text>
</a>
</g>
</g>
<!-- Node10&#45;&gt;Node11 -->
<g id="edge11_Node000010_Node000011" class="edge">
<title>Node10&#45;&gt;Node11</title>
<g id="a_edge11_Node000010_Node000011"><a xlink:title=" ">
<path fill="none" stroke="#63b8ff" d="M806.8,-169.71C827.15,-175.17 852.25,-181.91 872.68,-187.4"/>
<polygon fill="#63b8ff" stroke="#63b8ff" points="871.77,-190.78 882.33,-189.99 873.58,-184.02 871.77,-190.78"/>
</a>
</g>
</g>
<!-- Node10&#45;&gt;Node13 -->
<g id="edge13_Node000010_Node000013" class="edge">
<title>Node10&#45;&gt;Node13</title>
<g id="a_edge13_Node000010_Node000013"><a xlink:title=" ">
<path fill="none" stroke="#63b8ff" d="M832.14,-159.62C845.9,-159.62 860.06,-159.62 872.51,-159.62"/>
<polygon fill="#63b8ff" stroke="#63b8ff" points="872.33,-163.13 882.33,-159.63 872.33,-156.13 872.33,-163.13"/>
</a>
</g>
</g>
<!-- Node12 -->
<g id="Node000012" class="node">
<title>Node12</title>
<g id="a_Node000012"><a xlink:href="../../df/d0a/str-l_8h.html#a3b4dbe9c4cc70340cba0787574dc1c5e" target="_top" xlink:title=" ">
<polygon fill="white" stroke="#666666" points="1269.25,-207.25 1216.5,-207.25 1216.5,-188 1269.25,-188 1269.25,-207.25"/>
<text text-anchor="middle" x="1242.88" y="-193.75" font-family="Helvetica,sans-Serif" font-size="10.00">lstr_init_</text>
</a>
</g>
</g>
<!-- Node11&#45;&gt;Node12 -->
<g id="edge12_Node000011_Node000012" class="edge">
<title>Node11&#45;&gt;Node12</title>
<g id="a_edge12_Node000011_Node000012"><a xlink:title=" ">
<path fill="none" stroke="#63b8ff" d="M939.96,-197.62C998.81,-197.62 1137.94,-197.62 1204.78,-197.62"/>
<polygon fill="#63b8ff" stroke="#63b8ff" points="1204.49,-201.13 1214.49,-197.63 1204.49,-194.13 1204.49,-201.13"/>
</a>
</g>
</g>
<!-- Node14 -->
<g id="Node000014" class="node">
<title>Node14</title>
<g id="a_Node000014"><a xlink:href="../../df/d0a/str-l_8h.html#a381cd831ac9616c5bea8213bb679d1ac" target="_top" xlink:title="Wipe a lstr_t (frees memory if needed).">
<polygon fill="white" stroke="#666666" points="1065.5,-169.25 991.75,-169.25 991.75,-150 1065.5,-150 1065.5,-169.25"/>
<text text-anchor="middle" x="1028.62" y="-155.75" font-family="Helvetica,sans-Serif" font-size="10.00">mp_lstr_wipe</text>
</a>
</g>
</g>
<!-- Node13&#45;&gt;Node14 -->
<g id="edge14_Node000013_Node000014" class="edge">
<title>Node13&#45;&gt;Node14</title>
<g id="a_edge14_Node000013_Node000014"><a xlink:title=" ">
<path fill="none" stroke="#63b8ff" d="M939.68,-159.62C951.7,-159.62 966.23,-159.62 979.99,-159.62"/>
<polygon fill="#63b8ff" stroke="#63b8ff" points="979.78,-163.13 989.78,-159.63 979.78,-156.13 979.78,-163.13"/>
</a>
</g>
</g>
<!-- Node15 -->
<g id="Node000015" class="node">
<title>Node15</title>
<g id="a_Node000015"><a xlink:href="../../de/d04/str-l_8c.html#abe2a3a71f0b4dbc7d37c59d16762b6fb" target="_top" xlink:title="lstr_copy_* helper.">
<polygon fill="white" stroke="#666666" points="1180.5,-169.25 1101.5,-169.25 1101.5,-150 1180.5,-150 1180.5,-169.25"/>
<text text-anchor="middle" x="1141" y="-155.75" font-family="Helvetica,sans-Serif" font-size="10.00">mp_lstr_copy_</text>
</a>
</g>
</g>
<!-- Node14&#45;&gt;Node15 -->
<g id="edge15_Node000014_Node000015" class="edge">
<title>Node14&#45;&gt;Node15</title>
<g id="a_edge15_Node000014_Node000015"><a xlink:title=" ">
<path fill="none" stroke="#63b8ff" d="M1065.77,-159.62C1073.46,-159.62 1081.71,-159.62 1089.82,-159.62"/>
<polygon fill="#63b8ff" stroke="#63b8ff" points="1089.6,-163.13 1099.6,-159.63 1089.6,-156.13 1089.6,-163.13"/>
</a>
</g>
</g>
<!-- Node15&#45;&gt;Node12 -->
<g id="edge21_Node000015_Node000012" class="edge">
<title>Node15&#45;&gt;Node12</title>
<g id="a_edge21_Node000015_Node000012"><a xlink:title=" ">
<path fill="none" stroke="#63b8ff" d="M1168.5,-169.71C1179.94,-174.06 1193.51,-179.22 1205.85,-183.92"/>
<polygon fill="#63b8ff" stroke="#63b8ff" points="1204.28,-187.07 1214.87,-187.35 1206.77,-180.52 1204.28,-187.07"/>
</a>
</g>
</g>
<!-- Node16 -->
<g id="Node000016" class="node">
<title>Node16</title>
<g id="a_Node000016"><a xlink:href="../../d9/d9a/mem_8h.html#aebbbd277e2952bdb802104671ba23ba9" target="_top" xlink:title=" ">
<polygon fill="white" stroke="#666666" points="1260.25,-170.25 1225.5,-170.25 1225.5,-151 1260.25,-151 1260.25,-170.25"/>
<text text-anchor="middle" x="1242.88" y="-156.75" font-family="Helvetica,sans-Serif" font-size="10.00">ifree</text>
</a>
</g>
</g>
<!-- Node15&#45;&gt;Node16 -->
<g id="edge16_Node000015_Node000016" class="edge">
<title>Node15&#45;&gt;Node16</title>
<g id="a_edge16_Node000015_Node000016"><a xlink:title=" ">
<path fill="none" stroke="#63b8ff" d="M1180.9,-160.01C1191.8,-160.12 1203.45,-160.24 1213.6,-160.34"/>
<polygon fill="#63b8ff" stroke="#63b8ff" points="1213.56,-163.84 1223.6,-160.44 1213.63,-156.84 1213.56,-163.84"/>
</a>
</g>
</g>
<!-- Node17 -->
<g id="Node000017" class="node">
<title>Node17</title>
<g id="a_Node000017"><a xlink:href="../../d8/d37/mem_8blk.html#a36b65ab346f1d0deed7b63c544c78f2b" target="_top" xlink:title=" ">
<polygon fill="white" stroke="#666666" points="1350.12,-245.25 1313.88,-245.25 1313.88,-226 1350.12,-226 1350.12,-245.25"/>
<text text-anchor="middle" x="1332" y="-231.75" font-family="Helvetica,sans-Serif" font-size="10.00">ipool</text>
</a>
</g>
</g>
<!-- Node16&#45;&gt;Node17 -->
<g id="edge17_Node000016_Node000017" class="edge">
<title>Node16&#45;&gt;Node17</title>
<g id="a_edge17_Node000016_Node000017"><a xlink:title=" ">
<path fill="none" stroke="#63b8ff" d="M1258.61,-170.59C1262.16,-173.13 1265.89,-175.9 1269.25,-178.62 1284.57,-191.05 1300.93,-206.24 1312.96,-217.82"/>
<polygon fill="#63b8ff" stroke="#63b8ff" points="1310.18,-220 1319.79,-224.47 1315.06,-214.98 1310.18,-220"/>
</a>
</g>
</g>
<!-- Node19 -->
<g id="Node000019" class="node">
<title>Node19</title>
<g id="a_Node000019"><a xlink:href="../../d8/d37/mem_8blk.html#a83c7cf203e5eef9d1a8c6c43cde3e2e5" target="_top" xlink:title=" ">
<polygon fill="white" stroke="#666666" points="1358.75,-170.25 1305.25,-170.25 1305.25,-151 1358.75,-151 1358.75,-170.25"/>
<text text-anchor="middle" x="1332" y="-156.75" font-family="Helvetica,sans-Serif" font-size="10.00">mp_ifree</text>
</a>
</g>
</g>
<!-- Node16&#45;&gt;Node19 -->
<g id="edge20_Node000016_Node000019" class="edge">
<title>Node16&#45;&gt;Node19</title>
<g id="a_edge20_Node000016_Node000019"><a xlink:title=" ">
<path fill="none" stroke="#63b8ff" d="M1260.67,-160.62C1270.09,-160.62 1282.24,-160.62 1293.78,-160.62"/>
<polygon fill="#63b8ff" stroke="#63b8ff" points="1293.48,-164.13 1303.48,-160.63 1293.48,-157.13 1293.48,-164.13"/>
</a>
</g>
</g>
<!-- Node17&#45;&gt;Node4 -->
<g id="edge18_Node000017_Node000004" class="edge">
<title>Node17&#45;&gt;Node4</title>
<g id="a_edge18_Node000017_Node000004"><a xlink:title=" ">
<path fill="none" stroke="#63b8ff" d="M1313.52,-241.56C1280.44,-252.25 1206.26,-273.62 1142,-273.62 615.88,-273.62 615.88,-273.62 615.88,-273.62 534.13,-273.62 510.1,-260.31 441,-216.62 421.34,-204.19 424.38,-191.49 405,-178.62 400.15,-175.4 394.68,-172.63 389.17,-170.27"/>
<polygon fill="#63b8ff" stroke="#63b8ff" points="390.7,-167.11 380.11,-166.79 388.19,-173.64 390.7,-167.11"/>
</a>
</g>
</g>
<!-- Node18 -->
<g id="Node000018" class="node">
<title>Node18</title>
<g id="a_Node000018"><a xlink:href="../../d1/d10/mem-stack_8h.html#a1d0e2a29f86dc033a02e50484b527fd0" target="_top" xlink:title=" ">
<polygon fill="white" stroke="#666666" points="1437,-245.25 1394.75,-245.25 1394.75,-226 1437,-226 1437,-245.25"/>
<text text-anchor="middle" x="1415.88" y="-231.75" font-family="Helvetica,sans-Serif" font-size="10.00">t_pool</text>
</a>
</g>
</g>
<!-- Node17&#45;&gt;Node18 -->
<g id="edge19_Node000017_Node000018" class="edge">
<title>Node17&#45;&gt;Node18</title>
<g id="a_edge19_Node000017_Node000018"><a xlink:title=" ">
<path fill="none" stroke="#63b8ff" d="M1350.36,-235.62C1359.81,-235.62 1371.79,-235.62 1382.86,-235.62"/>
<polygon fill="#63b8ff" stroke="#63b8ff" points="1382.84,-239.13 1392.84,-235.63 1382.84,-232.13 1382.84,-239.13"/>
</a>
</g>
</g>
<!-- Node23&#45;&gt;Node11 -->
<g id="edge30_Node000023_Node000011" class="edge">
<title>Node23&#45;&gt;Node11</title>
<g id="a_edge30_Node000023_Node000011"><a xlink:title=" ">
<path fill="none" stroke="#63b8ff" d="M517.93,-197.62C594.61,-197.62 788.95,-197.62 872.08,-197.62"/>
<polygon fill="#63b8ff" stroke="#63b8ff" points="871.99,-201.13 881.99,-197.63 871.99,-194.13 871.99,-201.13"/>
</a>
</g>
</g>
<!-- Node24 -->
<g id="Node000024" class="node">
<title>Node24</title>
<g id="a_Node000024"><a xlink:href="../../d1/dc0/group__log.html#ga168a6f17b248f61f7d25a17d58d04e36" target="_top" xlink:title=" ">
<polygon fill="white" stroke="#666666" points="661.25,-245.25 572.5,-245.25 572.5,-226 661.25,-226 661.25,-245.25"/>
<text text-anchor="middle" x="616.88" y="-231.75" font-family="Helvetica,sans-Serif" font-size="10.00">logger_has_level</text>
</a>
</g>
</g>
<!-- Node23&#45;&gt;Node24 -->
<g id="edge27_Node000023_Node000024" class="edge">
<title>Node23&#45;&gt;Node24</title>
<g id="a_edge27_Node000023_Node000024"><a xlink:title=" ">
<path fill="none" stroke="#63b8ff" d="M518.1,-207.02C533.88,-211.63 553.16,-217.28 570.42,-222.33"/>
<polygon fill="#63b8ff" stroke="#63b8ff" points="569.38,-225.67 579.96,-225.12 571.34,-218.95 569.38,-225.67"/>
</a>
</g>
</g>
<!-- Node25 -->
<g id="Node000025" class="node">
<title>Node25</title>
<g id="a_Node000025"><a xlink:href="../../d1/dc0/group__log.html#gaf388752b988541da0abeceecdf96e6b3" target="_top" xlink:title=" ">
<polygon fill="white" stroke="#666666" points="811.5,-245.25 725,-245.25 725,-226 811.5,-226 811.5,-245.25"/>
<text text-anchor="middle" x="768.25" y="-231.75" font-family="Helvetica,sans-Serif" font-size="10.00">logger_get_level</text>
</a>
</g>
</g>
<!-- Node24&#45;&gt;Node25 -->
<g id="edge28_Node000024_Node000025" class="edge">
<title>Node24&#45;&gt;Node25</title>
<g id="a_edge28_Node000024_Node000025"><a xlink:title=" ">
<path fill="none" stroke="#63b8ff" d="M661.48,-235.62C677.64,-235.62 696.17,-235.62 713.15,-235.62"/>
<polygon fill="#63b8ff" stroke="#63b8ff" points="713.11,-239.13 723.11,-235.63 713.11,-232.13 713.11,-239.13"/>
</a>
</g>
</g>
<!-- Node26 -->
<g id="Node000026" class="node">
<title>Node26</title>
<g id="a_Node000026"><a xlink:href="../../d1/dc0/group__log.html#ga93cbd623096e1704532d15b3eb30e42f" target="_top" xlink:title=" ">
<polygon fill="white" stroke="#666666" points="955.75,-245.25 867.75,-245.25 867.75,-226 955.75,-226 955.75,-245.25"/>
<text text-anchor="middle" x="911.75" y="-231.75" font-family="Helvetica,sans-Serif" font-size="10.00">__logger_refresh</text>
</a>
</g>
</g>
<!-- Node25&#45;&gt;Node26 -->
<g id="edge29_Node000025_Node000026" class="edge">
<title>Node25&#45;&gt;Node26</title>
<g id="a_edge29_Node000025_Node000026"><a xlink:title=" ">
<path fill="none" stroke="#63b8ff" d="M811.7,-235.62C825.58,-235.62 841.19,-235.62 855.85,-235.62"/>
<polygon fill="#63b8ff" stroke="#63b8ff" points="855.83,-239.13 865.83,-235.63 855.83,-232.13 855.83,-239.13"/>
</a>
</g>
</g>
</g>
</svg>
