<?xml version="1.0" encoding="UTF-8" standalone="no"?>
<!DOCTYPE svg PUBLIC "-//W3C//DTD SVG 1.1//EN"
 "http://www.w3.org/Graphics/SVG/1.1/DTD/svg11.dtd">
<!-- Generated by graphviz version 9.0.0 (20230911.1827)
 -->
<!-- Title: asn1_set_int_min Pages: 1 -->
<svg width="1428pt" height="282pt"
 viewBox="0.00 0.00 1427.75 281.62" xmlns="http://www.w3.org/2000/svg" xmlns:xlink="http://www.w3.org/1999/xlink">
<g id="graph0" class="graph" transform="scale(1 1) rotate(0) translate(4 277.62)">
<title>asn1_set_int_min</title>
<!-- Node1 -->
<g id="Node000001" class="node">
<title>Node1</title>
<g id="a_Node000001"><a xlink:title=" ">
<polygon fill="#999999" stroke="#666666" points="92.5,-190.25 0,-190.25 0,-171 92.5,-171 92.5,-190.25"/>
<text text-anchor="middle" x="46.25" y="-176.75" font-family="Helvetica,sans-Serif" font-size="10.00">asn1_set_int_min</text>
</a>
</g>
</g>
<!-- Node2 -->
<g id="Node000002" class="node">
<title>Node2</title>
<g id="a_Node000002"><a xlink:href="../../d9/dc2/per-macros_8h.html#a1f752aa498df582127fb9ec0b483080c" target="_top" xlink:title=" ">
<polygon fill="white" stroke="#666666" points="248.75,-190.25 128.5,-190.25 128.5,-171 248.75,-171 248.75,-190.25"/>
<text text-anchor="middle" x="188.62" y="-176.75" font-family="Helvetica,sans-Serif" font-size="10.00">asn1_desc_get_int_field</text>
</a>
</g>
</g>
<!-- Node1&#45;&gt;Node2 -->
<g id="edge1_Node000001_Node000002" class="edge">
<title>Node1&#45;&gt;Node2</title>
<g id="a_edge1_Node000001_Node000002"><a xlink:title=" ">
<path fill="none" stroke="#63b8ff" d="M92.83,-180.62C100.5,-180.62 108.62,-180.62 116.75,-180.62"/>
<polygon fill="#63b8ff" stroke="#63b8ff" points="116.7,-184.13 126.7,-180.63 116.7,-177.13 116.7,-184.13"/>
</a>
</g>
</g>
<!-- Node3 -->
<g id="Node000003" class="node">
<title>Node3</title>
<g id="a_Node000003"><a xlink:href="../../d9/dc2/per-macros_8h.html#ab547722a799fa247b8088232afade30a" target="_top" xlink:title=" ">
<polygon fill="white" stroke="#666666" points="387.75,-217.88 284.75,-217.88 284.75,-187.38 387.75,-187.38 387.75,-217.88"/>
<text text-anchor="start" x="292.75" y="-204.38" font-family="Helvetica,sans-Serif" font-size="10.00">asn1_desc_get_last</text>
<text text-anchor="middle" x="336.25" y="-193.12" font-family="Helvetica,sans-Serif" font-size="10.00">_field</text>
</a>
</g>
</g>
<!-- Node2&#45;&gt;Node3 -->
<g id="edge2_Node000002_Node000003" class="edge">
<title>Node2&#45;&gt;Node3</title>
<g id="a_edge2_Node000002_Node000003"><a xlink:title=" ">
<path fill="none" stroke="#63b8ff" d="M248.86,-189.57C256.88,-190.79 265.14,-192.03 273.22,-193.25"/>
<polygon fill="#63b8ff" stroke="#63b8ff" points="272.56,-196.69 282.97,-194.73 273.61,-189.77 272.56,-196.69"/>
</a>
</g>
</g>
<!-- Node4 -->
<g id="Node000004" class="node">
<title>Node4</title>
<g id="a_Node000004"><a xlink:href="../../d7/df8/log_8c.html#abca342edf91a9b45f7a17ef564fa8a53" target="_top" xlink:title=" ">
<polygon fill="white" stroke="#666666" points="361.12,-169.25 311.38,-169.25 311.38,-150 361.12,-150 361.12,-169.25"/>
<text text-anchor="middle" x="336.25" y="-155.75" font-family="Helvetica,sans-Serif" font-size="10.00">e_panic</text>
</a>
</g>
</g>
<!-- Node2&#45;&gt;Node4 -->
<g id="edge3_Node000002_Node000004" class="edge">
<title>Node2&#45;&gt;Node4</title>
<g id="a_edge3_Node000002_Node000004"><a xlink:title=" ">
<path fill="none" stroke="#63b8ff" d="M248.86,-172.08C266.18,-169.59 284.56,-166.94 299.89,-164.72"/>
<polygon fill="#63b8ff" stroke="#63b8ff" points="300.06,-168.24 309.46,-163.34 299.06,-161.31 300.06,-168.24"/>
</a>
</g>
</g>
<!-- Node5 -->
<g id="Node000005" class="node">
<title>Node5</title>
<g id="a_Node000005"><a xlink:href="../../d7/df8/log_8c.html#a4bc04f7baa1e064cb0b93c7b9f3a61a1" target="_top" xlink:title=" ">
<polygon fill="white" stroke="#666666" points="511.75,-132.25 423.75,-132.25 423.75,-113 511.75,-113 511.75,-132.25"/>
<text text-anchor="middle" x="467.75" y="-118.75" font-family="Helvetica,sans-Serif" font-size="10.00">__logger_refresh</text>
</a>
</g>
</g>
<!-- Node4&#45;&gt;Node5 -->
<g id="edge4_Node000004_Node000005" class="edge">
<title>Node4&#45;&gt;Node5</title>
<g id="a_edge4_Node000004_Node000005"><a xlink:title=" ">
<path fill="none" stroke="#63b8ff" d="M361.61,-152.67C378.22,-147.92 400.74,-141.48 420.68,-135.79"/>
<polygon fill="#63b8ff" stroke="#63b8ff" points="421.64,-139.15 430.29,-133.04 419.71,-132.42 421.64,-139.15"/>
</a>
</g>
</g>
<!-- Node23 -->
<g id="Node000023" class="node">
<title>Node23</title>
<g id="a_Node000023"><a xlink:href="../../d7/df8/log_8c.html#a900490b26df7698aac12f7f7e6517e81" target="_top" xlink:title=" ">
<polygon fill="white" stroke="#666666" points="500.5,-207.25 435,-207.25 435,-188 500.5,-188 500.5,-207.25"/>
<text text-anchor="middle" x="467.75" y="-193.75" font-family="Helvetica,sans-Serif" font-size="10.00">logger_vlog</text>
</a>
</g>
</g>
<!-- Node4&#45;&gt;Node23 -->
<g id="edge26_Node000004_Node000023" class="edge">
<title>Node4&#45;&gt;Node23</title>
<g id="a_edge26_Node000004_Node000023"><a xlink:title=" ">
<path fill="none" stroke="#63b8ff" d="M361.61,-166.77C379.12,-171.91 403.2,-178.98 423.9,-185.05"/>
<polygon fill="#63b8ff" stroke="#63b8ff" points="422.64,-188.33 433.22,-187.78 424.61,-181.61 422.64,-188.33"/>
</a>
</g>
</g>
<!-- Node27 -->
<g id="Node000027" class="node">
<title>Node27</title>
<g id="a_Node000027"><a xlink:href="../../d2/d4d/file_8h.html#a25419a391fdd4ad7954699c58cfeb3b9" target="_top" xlink:title=" ">
<polygon fill="white" stroke="#666666" points="493.38,-95.25 442.12,-95.25 442.12,-76 493.38,-76 493.38,-95.25"/>
<text text-anchor="middle" x="467.75" y="-81.75" font-family="Helvetica,sans-Serif" font-size="10.00">va_start</text>
</a>
</g>
</g>
<!-- Node4&#45;&gt;Node27 -->
<g id="edge31_Node000004_Node000027" class="edge">
<title>Node4&#45;&gt;Node27</title>
<g id="a_edge31_Node000004_Node000027"><a xlink:title=" ">
<path fill="none" stroke="#63b8ff" d="M351.17,-149.51C367.88,-137.62 397.01,-117.73 423.75,-103.62 426.26,-102.3 428.88,-101.01 431.54,-99.75"/>
<polygon fill="#63b8ff" stroke="#63b8ff" points="432.75,-103.05 440.46,-95.78 429.9,-96.65 432.75,-103.05"/>
</a>
</g>
</g>
<!-- Node6 -->
<g id="Node000006" class="node">
<title>Node6</title>
<g id="a_Node000006"><a xlink:href="../../d7/df8/log_8c.html#a3dbd75fb614210f0b114cfd03c9c0a7b" target="_top" xlink:title=" ">
<polygon fill="white" stroke="#666666" points="651.5,-132.25 547.75,-132.25 547.75,-113 651.5,-113 651.5,-132.25"/>
<text text-anchor="middle" x="599.62" y="-118.75" font-family="Helvetica,sans-Serif" font-size="10.00">__logger_do_refresh</text>
</a>
</g>
</g>
<!-- Node5&#45;&gt;Node6 -->
<g id="edge5_Node000005_Node000006" class="edge">
<title>Node5&#45;&gt;Node6</title>
<g id="a_edge5_Node000005_Node000006"><a xlink:title=" ">
<path fill="none" stroke="#63b8ff" d="M512,-122.62C519.72,-122.62 527.91,-122.62 536.04,-122.62"/>
<polygon fill="#63b8ff" stroke="#63b8ff" points="535.95,-126.13 545.95,-122.63 535.95,-119.13 535.95,-126.13"/>
</a>
</g>
</g>
<!-- Node21 -->
<g id="Node000021" class="node">
<title>Node21</title>
<g id="a_Node000021"><a xlink:href="../../d7/df8/log_8c.html#a7b1b02d1986e1247c2f571af4a2c2854" target="_top" xlink:title=" ">
<polygon fill="white" stroke="#666666" points="637.25,-58.25 562,-58.25 562,-39 637.25,-39 637.25,-58.25"/>
<text text-anchor="middle" x="599.62" y="-44.75" font-family="Helvetica,sans-Serif" font-size="10.00">log_spin_lock</text>
</a>
</g>
</g>
<!-- Node5&#45;&gt;Node21 -->
<g id="edge24_Node000005_Node000021" class="edge">
<title>Node5&#45;&gt;Node21</title>
<g id="a_edge24_Node000005_Node000021"><a xlink:title=" ">
<path fill="none" stroke="#63b8ff" d="M497.39,-112.61C502.37,-110.33 507.35,-107.66 511.75,-104.62 530.89,-91.4 528.24,-79.3 547.75,-66.62 549.37,-65.57 551.06,-64.57 552.8,-63.62"/>
<polygon fill="#63b8ff" stroke="#63b8ff" points="554.21,-66.83 561.75,-59.38 551.21,-60.5 554.21,-66.83"/>
</a>
</g>
</g>
<!-- Node22 -->
<g id="Node000022" class="node">
<title>Node22</title>
<g id="a_Node000022"><a xlink:href="../../d1/dc0/group__log.html#ga045020bb4af234632f7761f220131c69" target="_top" xlink:title=" ">
<polygon fill="white" stroke="#666666" points="642.5,-95.25 556.75,-95.25 556.75,-76 642.5,-76 642.5,-95.25"/>
<text text-anchor="middle" x="599.62" y="-81.75" font-family="Helvetica,sans-Serif" font-size="10.00">log_spin_unlock</text>
</a>
</g>
</g>
<!-- Node5&#45;&gt;Node22 -->
<g id="edge25_Node000005_Node000022" class="edge">
<title>Node5&#45;&gt;Node22</title>
<g id="a_edge25_Node000005_Node000022"><a xlink:title=" ">
<path fill="none" stroke="#63b8ff" d="M504.24,-112.51C519.13,-108.27 536.64,-103.28 552.51,-98.76"/>
<polygon fill="#63b8ff" stroke="#63b8ff" points="553.07,-102.24 561.72,-96.14 551.15,-95.51 553.07,-102.24"/>
</a>
</g>
</g>
<!-- Node6&#45;&gt;Node6 -->
<g id="edge6_Node000006_Node000006" class="edge">
<title>Node6&#45;&gt;Node6</title>
<g id="a_edge6_Node000006_Node000006"><a xlink:title=" ">
<path fill="none" stroke="#63b8ff" d="M578.98,-132.54C569.56,-141.15 576.44,-150.25 599.62,-150.25 612.3,-150.25 620.1,-147.53 623.03,-143.65"/>
<polygon fill="#63b8ff" stroke="#63b8ff" points="626.44,-142.87 620.64,-134.01 619.65,-144.56 626.44,-142.87"/>
</a>
</g>
</g>
<!-- Node7 -->
<g id="Node000007" class="node">
<title>Node7</title>
<g id="a_Node000007"><a xlink:href="../../de/d1a/container-dlist_8h.html#a3b6f65860b212e28f2e28e71eb54d54d" target="_top" xlink:title="Add element e at the head of list l (suited for LIFO).">
<polygon fill="white" stroke="#666666" points="778.5,-56.25 723.5,-56.25 723.5,-37 778.5,-37 778.5,-56.25"/>
<text text-anchor="middle" x="751" y="-42.75" font-family="Helvetica,sans-Serif" font-size="10.00">dlist_add</text>
</a>
</g>
</g>
<!-- Node6&#45;&gt;Node7 -->
<g id="edge7_Node000006_Node000007" class="edge">
<title>Node6&#45;&gt;Node7</title>
<g id="a_edge7_Node000006_Node000007"><a xlink:title=" ">
<path fill="none" stroke="#63b8ff" d="M635.18,-112.61C640.82,-110.36 646.46,-107.7 651.5,-104.62 670.28,-93.15 668.87,-82.35 687.5,-70.62 695.18,-65.79 703.98,-61.68 712.51,-58.29"/>
<polygon fill="#63b8ff" stroke="#63b8ff" points="713.48,-61.66 721.65,-54.91 711.06,-55.1 713.48,-61.66"/>
</a>
</g>
</g>
<!-- Node9 -->
<g id="Node000009" class="node">
<title>Node9</title>
<g id="a_Node000009"><a xlink:href="../../de/d1a/container-dlist_8h.html#a0a69e401f6ec15966c891e96ad864c77" target="_top" xlink:title="Put a dlist_t element in a safe and detached state.">
<polygon fill="white" stroke="#666666" points="777,-19.25 725,-19.25 725,0 777,0 777,-19.25"/>
<text text-anchor="middle" x="751" y="-5.75" font-family="Helvetica,sans-Serif" font-size="10.00">dlist_init</text>
</a>
</g>
</g>
<!-- Node6&#45;&gt;Node9 -->
<g id="edge9_Node000006_Node000009" class="edge">
<title>Node6&#45;&gt;Node9</title>
<g id="a_edge9_Node000006_Node000009"><a xlink:title=" ">
<path fill="none" stroke="#63b8ff" d="M639.7,-112.53C643.98,-110.38 648.03,-107.77 651.5,-104.62 679.48,-79.24 658.78,-52.16 687.5,-27.62 694.82,-21.37 704.21,-17.28 713.47,-14.62"/>
<polygon fill="#63b8ff" stroke="#63b8ff" points="714.14,-18.05 723.07,-12.36 712.54,-11.24 714.14,-18.05"/>
</a>
</g>
</g>
<!-- Node10 -->
<g id="Node000010" class="node">
<title>Node10</title>
<g id="a_Node000010"><a xlink:href="../../d7/df8/log_8c.html#a4c8fbe8648573312126ce341cf34cba1" target="_top" xlink:title=" ">
<polygon fill="white" stroke="#666666" points="814.5,-169.25 687.5,-169.25 687.5,-150 814.5,-150 814.5,-169.25"/>
<text text-anchor="middle" x="751" y="-155.75" font-family="Helvetica,sans-Serif" font-size="10.00">logger_compute_fullname</text>
</a>
</g>
</g>
<!-- Node6&#45;&gt;Node10 -->
<g id="edge10_Node000006_Node000010" class="edge">
<title>Node6&#45;&gt;Node10</title>
<g id="a_edge10_Node000006_Node000010"><a xlink:title=" ">
<path fill="none" stroke="#63b8ff" d="M641.44,-132.74C658.98,-137.08 679.68,-142.21 698.27,-146.81"/>
<polygon fill="#63b8ff" stroke="#63b8ff" points="697.21,-150.16 707.76,-149.16 698.9,-143.36 697.21,-150.16"/>
</a>
</g>
</g>
<!-- Node13 -->
<g id="Node000013" class="node">
<title>Node13</title>
<g id="a_Node000013"><a xlink:href="../../df/d0a/str-l_8h.html#ad74dae07179370f3c22e3f026157926e" target="_top" xlink:title="wipe a lstr_t (frees memory if needed).">
<polygon fill="white" stroke="#666666" points="922,-169.25 867,-169.25 867,-150 922,-150 922,-169.25"/>
<text text-anchor="middle" x="894.5" y="-155.75" font-family="Helvetica,sans-Serif" font-size="10.00">lstr_wipe</text>
</a>
</g>
</g>
<!-- Node6&#45;&gt;Node13 -->
<g id="edge23_Node000006_Node000013" class="edge">
<title>Node6&#45;&gt;Node13</title>
<g id="a_edge23_Node000006_Node000013"><a xlink:title=" ">
<path fill="none" stroke="#63b8ff" d="M631.2,-112.59C673.46,-100.35 751.63,-83.6 814.5,-103.62 838.11,-111.15 860.73,-128.57 875.66,-142"/>
<polygon fill="#63b8ff" stroke="#63b8ff" points="873.11,-144.41 882.8,-148.69 877.9,-139.3 873.11,-144.41"/>
</a>
</g>
</g>
<!-- Node20 -->
<g id="Node000020" class="node">
<title>Node20</title>
<g id="a_Node000020"><a xlink:href="../../df/d0a/str-l_8h.html#a963c22b229774d4b7c106bae4011cb8e" target="_top" xlink:title="Returns whether \v s1 and \v s2 contents are equal.">
<polygon fill="white" stroke="#666666" points="780,-132.25 722,-132.25 722,-113 780,-113 780,-132.25"/>
<text text-anchor="middle" x="751" y="-118.75" font-family="Helvetica,sans-Serif" font-size="10.00">lstr_equal</text>
</a>
</g>
</g>
<!-- Node6&#45;&gt;Node20 -->
<g id="edge22_Node000006_Node000020" class="edge">
<title>Node6&#45;&gt;Node20</title>
<g id="a_edge22_Node000006_Node000020"><a xlink:title=" ">
<path fill="none" stroke="#63b8ff" d="M651.61,-122.62C670.89,-122.62 692.51,-122.62 710.57,-122.62"/>
<polygon fill="#63b8ff" stroke="#63b8ff" points="710.34,-126.13 720.34,-122.63 710.34,-119.13 710.34,-126.13"/>
</a>
</g>
</g>
<!-- Node8 -->
<g id="Node000008" class="node">
<title>Node8</title>
<g id="a_Node000008"><a xlink:href="../../de/d1a/container-dlist_8h.html#a71e7667ca0e4b896923788c5851afd24" target="_top" xlink:title="Put element e between prev and next.">
<polygon fill="white" stroke="#666666" points="927.25,-56.25 861.75,-56.25 861.75,-37 927.25,-37 927.25,-56.25"/>
<text text-anchor="middle" x="894.5" y="-42.75" font-family="Helvetica,sans-Serif" font-size="10.00">__dlist_add</text>
</a>
</g>
</g>
<!-- Node7&#45;&gt;Node8 -->
<g id="edge8_Node000007_Node000008" class="edge">
<title>Node7&#45;&gt;Node8</title>
<g id="a_edge8_Node000007_Node000008"><a xlink:title=" ">
<path fill="none" stroke="#63b8ff" d="M778.95,-46.62C799.05,-46.62 826.92,-46.62 850.14,-46.62"/>
<polygon fill="#63b8ff" stroke="#63b8ff" points="849.94,-50.13 859.94,-46.63 849.94,-43.13 849.94,-50.13"/>
</a>
</g>
</g>
<!-- Node11 -->
<g id="Node000011" class="node">
<title>Node11</title>
<g id="a_Node000011"><a xlink:href="../../df/d0a/str-l_8h.html#a6a200ca09358f19b13a8e297cda34869" target="_top" xlink:title="returns a constant copy of \v s.">
<polygon fill="white" stroke="#666666" points="922.38,-207.25 866.62,-207.25 866.62,-188 922.38,-188 922.38,-207.25"/>
<text text-anchor="middle" x="894.5" y="-193.75" font-family="Helvetica,sans-Serif" font-size="10.00">lstr_dupc</text>
</a>
</g>
</g>
<!-- Node10&#45;&gt;Node11 -->
<g id="edge11_Node000010_Node000011" class="edge">
<title>Node10&#45;&gt;Node11</title>
<g id="a_edge11_Node000010_Node000011"><a xlink:title=" ">
<path fill="none" stroke="#63b8ff" d="M789.55,-169.71C809.9,-175.17 835,-181.91 855.43,-187.4"/>
<polygon fill="#63b8ff" stroke="#63b8ff" points="854.52,-190.78 865.08,-189.99 856.33,-184.02 854.52,-190.78"/>
</a>
</g>
</g>
<!-- Node10&#45;&gt;Node13 -->
<g id="edge13_Node000010_Node000013" class="edge">
<title>Node10&#45;&gt;Node13</title>
<g id="a_edge13_Node000010_Node000013"><a xlink:title=" ">
<path fill="none" stroke="#63b8ff" d="M814.89,-159.62C828.65,-159.62 842.81,-159.62 855.26,-159.62"/>
<polygon fill="#63b8ff" stroke="#63b8ff" points="855.08,-163.13 865.08,-159.63 855.08,-156.13 855.08,-163.13"/>
</a>
</g>
</g>
<!-- Node12 -->
<g id="Node000012" class="node">
<title>Node12</title>
<g id="a_Node000012"><a xlink:href="../../df/d0a/str-l_8h.html#a3b4dbe9c4cc70340cba0787574dc1c5e" target="_top" xlink:title=" ">
<polygon fill="white" stroke="#666666" points="1252,-207.25 1199.25,-207.25 1199.25,-188 1252,-188 1252,-207.25"/>
<text text-anchor="middle" x="1225.62" y="-193.75" font-family="Helvetica,sans-Serif" font-size="10.00">lstr_init_</text>
</a>
</g>
</g>
<!-- Node11&#45;&gt;Node12 -->
<g id="edge12_Node000011_Node000012" class="edge">
<title>Node11&#45;&gt;Node12</title>
<g id="a_edge12_Node000011_Node000012"><a xlink:title=" ">
<path fill="none" stroke="#63b8ff" d="M922.71,-197.62C981.56,-197.62 1120.69,-197.62 1187.53,-197.62"/>
<polygon fill="#63b8ff" stroke="#63b8ff" points="1187.24,-201.13 1197.24,-197.63 1187.24,-194.13 1187.24,-201.13"/>
</a>
</g>
</g>
<!-- Node14 -->
<g id="Node000014" class="node">
<title>Node14</title>
<g id="a_Node000014"><a xlink:href="../../df/d0a/str-l_8h.html#a381cd831ac9616c5bea8213bb679d1ac" target="_top" xlink:title="Wipe a lstr_t (frees memory if needed).">
<polygon fill="white" stroke="#666666" points="1048.25,-169.25 974.5,-169.25 974.5,-150 1048.25,-150 1048.25,-169.25"/>
<text text-anchor="middle" x="1011.38" y="-155.75" font-family="Helvetica,sans-Serif" font-size="10.00">mp_lstr_wipe</text>
</a>
</g>
</g>
<!-- Node13&#45;&gt;Node14 -->
<g id="edge14_Node000013_Node000014" class="edge">
<title>Node13&#45;&gt;Node14</title>
<g id="a_edge14_Node000013_Node000014"><a xlink:title=" ">
<path fill="none" stroke="#63b8ff" d="M922.43,-159.62C934.45,-159.62 948.98,-159.62 962.74,-159.62"/>
<polygon fill="#63b8ff" stroke="#63b8ff" points="962.53,-163.13 972.53,-159.63 962.53,-156.13 962.53,-163.13"/>
</a>
</g>
</g>
<!-- Node15 -->
<g id="Node000015" class="node">
<title>Node15</title>
<g id="a_Node000015"><a xlink:href="../../de/d04/str-l_8c.html#abe2a3a71f0b4dbc7d37c59d16762b6fb" target="_top" xlink:title="lstr_copy_* helper.">
<polygon fill="white" stroke="#666666" points="1163.25,-169.25 1084.25,-169.25 1084.25,-150 1163.25,-150 1163.25,-169.25"/>
<text text-anchor="middle" x="1123.75" y="-155.75" font-family="Helvetica,sans-Serif" font-size="10.00">mp_lstr_copy_</text>
</a>
</g>
</g>
<!-- Node14&#45;&gt;Node15 -->
<g id="edge15_Node000014_Node000015" class="edge">
<title>Node14&#45;&gt;Node15</title>
<g id="a_edge15_Node000014_Node000015"><a xlink:title=" ">
<path fill="none" stroke="#63b8ff" d="M1048.52,-159.62C1056.21,-159.62 1064.46,-159.62 1072.57,-159.62"/>
<polygon fill="#63b8ff" stroke="#63b8ff" points="1072.35,-163.13 1082.35,-159.63 1072.35,-156.13 1072.35,-163.13"/>
</a>
</g>
</g>
<!-- Node15&#45;&gt;Node12 -->
<g id="edge21_Node000015_Node000012" class="edge">
<title>Node15&#45;&gt;Node12</title>
<g id="a_edge21_Node000015_Node000012"><a xlink:title=" ">
<path fill="none" stroke="#63b8ff" d="M1151.25,-169.71C1162.69,-174.06 1176.26,-179.22 1188.6,-183.92"/>
<polygon fill="#63b8ff" stroke="#63b8ff" points="1187.03,-187.07 1197.62,-187.35 1189.52,-180.52 1187.03,-187.07"/>
</a>
</g>
</g>
<!-- Node16 -->
<g id="Node000016" class="node">
<title>Node16</title>
<g id="a_Node000016"><a xlink:href="../../d9/d9a/mem_8h.html#aebbbd277e2952bdb802104671ba23ba9" target="_top" xlink:title=" ">
<polygon fill="white" stroke="#666666" points="1243,-170.25 1208.25,-170.25 1208.25,-151 1243,-151 1243,-170.25"/>
<text text-anchor="middle" x="1225.62" y="-156.75" font-family="Helvetica,sans-Serif" font-size="10.00">ifree</text>
</a>
</g>
</g>
<!-- Node15&#45;&gt;Node16 -->
<g id="edge16_Node000015_Node000016" class="edge">
<title>Node15&#45;&gt;Node16</title>
<g id="a_edge16_Node000015_Node000016"><a xlink:title=" ">
<path fill="none" stroke="#63b8ff" d="M1163.65,-160.01C1174.55,-160.12 1186.2,-160.24 1196.35,-160.34"/>
<polygon fill="#63b8ff" stroke="#63b8ff" points="1196.31,-163.84 1206.35,-160.44 1196.38,-156.84 1196.31,-163.84"/>
</a>
</g>
</g>
<!-- Node17 -->
<g id="Node000017" class="node">
<title>Node17</title>
<g id="a_Node000017"><a xlink:href="../../d8/d37/mem_8blk.html#a36b65ab346f1d0deed7b63c544c78f2b" target="_top" xlink:title=" ">
<polygon fill="white" stroke="#666666" points="1332.88,-245.25 1296.62,-245.25 1296.62,-226 1332.88,-226 1332.88,-245.25"/>
<text text-anchor="middle" x="1314.75" y="-231.75" font-family="Helvetica,sans-Serif" font-size="10.00">ipool</text>
</a>
</g>
</g>
<!-- Node16&#45;&gt;Node17 -->
<g id="edge17_Node000016_Node000017" class="edge">
<title>Node16&#45;&gt;Node17</title>
<g id="a_edge17_Node000016_Node000017"><a xlink:title=" ">
<path fill="none" stroke="#63b8ff" d="M1241.36,-170.59C1244.91,-173.13 1248.64,-175.9 1252,-178.62 1267.32,-191.05 1283.68,-206.24 1295.71,-217.82"/>
<polygon fill="#63b8ff" stroke="#63b8ff" points="1292.93,-220 1302.54,-224.47 1297.81,-214.98 1292.93,-220"/>
</a>
</g>
</g>
<!-- Node19 -->
<g id="Node000019" class="node">
<title>Node19</title>
<g id="a_Node000019"><a xlink:href="../../d8/d37/mem_8blk.html#a83c7cf203e5eef9d1a8c6c43cde3e2e5" target="_top" xlink:title=" ">
<polygon fill="white" stroke="#666666" points="1341.5,-170.25 1288,-170.25 1288,-151 1341.5,-151 1341.5,-170.25"/>
<text text-anchor="middle" x="1314.75" y="-156.75" font-family="Helvetica,sans-Serif" font-size="10.00">mp_ifree</text>
</a>
</g>
</g>
<!-- Node16&#45;&gt;Node19 -->
<g id="edge20_Node000016_Node000019" class="edge">
<title>Node16&#45;&gt;Node19</title>
<g id="a_edge20_Node000016_Node000019"><a xlink:title=" ">
<path fill="none" stroke="#63b8ff" d="M1243.42,-160.62C1252.84,-160.62 1264.99,-160.62 1276.53,-160.62"/>
<polygon fill="#63b8ff" stroke="#63b8ff" points="1276.23,-164.13 1286.23,-160.63 1276.23,-157.13 1276.23,-164.13"/>
</a>
</g>
</g>
<!-- Node17&#45;&gt;Node4 -->
<g id="edge18_Node000017_Node000004" class="edge">
<title>Node17&#45;&gt;Node4</title>
<g id="a_edge18_Node000017_Node000004"><a xlink:title=" ">
<path fill="none" stroke="#63b8ff" d="M1296.27,-241.56C1263.19,-252.25 1189.01,-273.62 1124.75,-273.62 598.62,-273.62 598.62,-273.62 598.62,-273.62 516.88,-273.62 492.85,-260.31 423.75,-216.62 404.09,-204.19 407.13,-191.49 387.75,-178.62 382.9,-175.4 377.43,-172.63 371.92,-170.27"/>
<polygon fill="#63b8ff" stroke="#63b8ff" points="373.45,-167.11 362.86,-166.79 370.94,-173.64 373.45,-167.11"/>
</a>
</g>
</g>
<!-- Node18 -->
<g id="Node000018" class="node">
<title>Node18</title>
<g id="a_Node000018"><a xlink:href="../../d1/d10/mem-stack_8h.html#a1d0e2a29f86dc033a02e50484b527fd0" target="_top" xlink:title=" ">
<polygon fill="white" stroke="#666666" points="1419.75,-245.25 1377.5,-245.25 1377.5,-226 1419.75,-226 1419.75,-245.25"/>
<text text-anchor="middle" x="1398.62" y="-231.75" font-family="Helvetica,sans-Serif" font-size="10.00">t_pool</text>
</a>
</g>
</g>
<!-- Node17&#45;&gt;Node18 -->
<g id="edge19_Node000017_Node000018" class="edge">
<title>Node17&#45;&gt;Node18</title>
<g id="a_edge19_Node000017_Node000018"><a xlink:title=" ">
<path fill="none" stroke="#63b8ff" d="M1333.11,-235.62C1342.56,-235.62 1354.54,-235.62 1365.61,-235.62"/>
<polygon fill="#63b8ff" stroke="#63b8ff" points="1365.59,-239.13 1375.59,-235.63 1365.59,-232.13 1365.59,-239.13"/>
</a>
</g>
</g>
<!-- Node23&#45;&gt;Node11 -->
<g id="edge30_Node000023_Node000011" class="edge">
<title>Node23&#45;&gt;Node11</title>
<g id="a_edge30_Node000023_Node000011"><a xlink:title=" ">
<path fill="none" stroke="#63b8ff" d="M500.68,-197.62C577.36,-197.62 771.7,-197.62 854.83,-197.62"/>
<polygon fill="#63b8ff" stroke="#63b8ff" points="854.74,-201.13 864.74,-197.63 854.74,-194.13 854.74,-201.13"/>
</a>
</g>
</g>
<!-- Node24 -->
<g id="Node000024" class="node">
<title>Node24</title>
<g id="a_Node000024"><a xlink:href="../../d1/dc0/group__log.html#ga168a6f17b248f61f7d25a17d58d04e36" target="_top" xlink:title=" ">
<polygon fill="white" stroke="#666666" points="644,-245.25 555.25,-245.25 555.25,-226 644,-226 644,-245.25"/>
<text text-anchor="middle" x="599.62" y="-231.75" font-family="Helvetica,sans-Serif" font-size="10.00">logger_has_level</text>
</a>
</g>
</g>
<!-- Node23&#45;&gt;Node24 -->
<g id="edge27_Node000023_Node000024" class="edge">
<title>Node23&#45;&gt;Node24</title>
<g id="a_edge27_Node000023_Node000024"><a xlink:title=" ">
<path fill="none" stroke="#63b8ff" d="M500.85,-207.02C516.63,-211.63 535.91,-217.28 553.17,-222.33"/>
<polygon fill="#63b8ff" stroke="#63b8ff" points="552.13,-225.67 562.71,-225.12 554.09,-218.95 552.13,-225.67"/>
</a>
</g>
</g>
<!-- Node25 -->
<g id="Node000025" class="node">
<title>Node25</title>
<g id="a_Node000025"><a xlink:href="../../d1/dc0/group__log.html#gaf388752b988541da0abeceecdf96e6b3" target="_top" xlink:title=" ">
<polygon fill="white" stroke="#666666" points="794.25,-245.25 707.75,-245.25 707.75,-226 794.25,-226 794.25,-245.25"/>
<text text-anchor="middle" x="751" y="-231.75" font-family="Helvetica,sans-Serif" font-size="10.00">logger_get_level</text>
</a>
</g>
</g>
<!-- Node24&#45;&gt;Node25 -->
<g id="edge28_Node000024_Node000025" class="edge">
<title>Node24&#45;&gt;Node25</title>
<g id="a_edge28_Node000024_Node000025"><a xlink:title=" ">
<path fill="none" stroke="#63b8ff" d="M644.23,-235.62C660.39,-235.62 678.92,-235.62 695.9,-235.62"/>
<polygon fill="#63b8ff" stroke="#63b8ff" points="695.86,-239.13 705.86,-235.63 695.86,-232.13 695.86,-239.13"/>
</a>
</g>
</g>
<!-- Node26 -->
<g id="Node000026" class="node">
<title>Node26</title>
<g id="a_Node000026"><a xlink:href="../../d1/dc0/group__log.html#ga93cbd623096e1704532d15b3eb30e42f" target="_top" xlink:title=" ">
<polygon fill="white" stroke="#666666" points="938.5,-245.25 850.5,-245.25 850.5,-226 938.5,-226 938.5,-245.25"/>
<text text-anchor="middle" x="894.5" y="-231.75" font-family="Helvetica,sans-Serif" font-size="10.00">__logger_refresh</text>
</a>
</g>
</g>
<!-- Node25&#45;&gt;Node26 -->
<g id="edge29_Node000025_Node000026" class="edge">
<title>Node25&#45;&gt;Node26</title>
<g id="a_edge29_Node000025_Node000026"><a xlink:title=" ">
<path fill="none" stroke="#63b8ff" d="M794.45,-235.62C808.33,-235.62 823.94,-235.62 838.6,-235.62"/>
<polygon fill="#63b8ff" stroke="#63b8ff" points="838.58,-239.13 848.58,-235.63 838.58,-232.13 838.58,-239.13"/>
</a>
</g>
</g>
</g>
</svg>
