<?xml version="1.0" encoding="UTF-8" standalone="no"?>
<!DOCTYPE svg PUBLIC "-//W3C//DTD SVG 1.1//EN"
 "http://www.w3.org/Graphics/SVG/1.1/DTD/svg11.dtd">
<!-- Generated by graphviz version 9.0.0 (20230911.1827)
 -->
<!-- Title: module_implement Pages: 1 -->
<svg width="354pt" height="160pt"
 viewBox="0.00 0.00 353.75 159.77" xmlns="http://www.w3.org/2000/svg" xmlns:xlink="http://www.w3.org/1999/xlink">

<svg id="main" version="1.1" xmlns="http://www.w3.org/2000/svg" xmlns:xlink="http://www.w3.org/1999/xlink" xml:space="preserve" onload="init(evt)">
<style type="text/css"><![CDATA[
.node, .edge {opacity: 0.7;}
.node.selected, .edge.selected {opacity: 1;}
.edge:hover path { stroke: red; }
.edge:hover polygon { stroke: red; fill: red; }
]]></style>
<script type="application/ecmascript" xlink:href="../../svg.min.js"/>
<svg id="graph" class="graph">
<g id="graph0" class="graph" transform="scale(1 1) rotate(0) translate(4 155.77)">
<title>module_implement</title>
<!-- Node1 -->
<g id="Node000001" class="node">
<title>Node1</title>
<g id="a_Node000001"><a xlink:title="Implement a module.">
<polygon fill="#999999" stroke="#666666" points="345.75,-93.25 248,-93.25 248,-74 345.75,-74 345.75,-93.25"/>
<text text-anchor="middle" x="296.88" y="-79.75" font-family="Helvetica,sans-Serif" font-size="10.00">module_implement</text>
</a>
</g>
</g>
<!-- Node2 -->
<g id="Node000002" class="node">
<title>Node2</title>
<g id="a_Node000002"><a xlink:href="../../d7/df8/log_8c.html#a083b2e840cc4afee2f08f66c46f4d64d" target="_top" xlink:title=" ">
<polygon fill="white" stroke="#666666" points="72.25,-74.25 0,-74.25 0,-55 72.25,-55 72.25,-74.25"/>
<text text-anchor="middle" x="36.12" y="-60.75" font-family="Helvetica,sans-Serif" font-size="10.00">__attribute__</text>
</a>
</g>
</g>
<!-- Node1&#45;&gt;Node2 -->
<g id="edge1_Node000001_Node000002" class="edge">
<title>Node1&#45;&gt;Node2</title>
<g id="a_edge1_Node000001_Node000002"><a xlink:title=" ">
<path fill="none" stroke="#63b8ff" d="M277.18,-100.88C261.22,-114.38 236.93,-132.07 212,-139.62 167.87,-153 150.61,-157.83 108.25,-139.62 77.09,-126.23 53.17,-91.74 42.79,-74.6"/>
<polygon fill="#63b8ff" stroke="#63b8ff" points="279.22,-103.76 284.43,-94.53 274.6,-98.49 279.22,-103.76"/>
</a>
</g>
</g>
<!-- Node3 -->
<g id="Node000003" class="node">
<title>Node3</title>
<g id="a_Node000003"><a xlink:href="../../d0/d5a/el_8blk.html#a2c5d1cbafee31d2410258ced91795436" target="_top" xlink:title=" ">
<polygon fill="white" stroke="#666666" points="196.25,-130.25 124,-130.25 124,-111 196.25,-111 196.25,-130.25"/>
<text text-anchor="middle" x="160.12" y="-116.75" font-family="Helvetica,sans-Serif" font-size="10.00">__attribute__</text>
</a>
</g>
</g>
<!-- Node1&#45;&gt;Node3 -->
<g id="edge2_Node000001_Node000003" class="edge">
<title>Node1&#45;&gt;Node3</title>
<g id="a_edge2_Node000001_Node000003"><a xlink:title=" ">
<path fill="none" stroke="#63b8ff" d="M248.19,-96.72C231.16,-101.39 212.31,-106.57 196.51,-110.91"/>
<polygon fill="#63b8ff" stroke="#63b8ff" points="248.88,-100.16 257.59,-94.14 247.02,-93.41 248.88,-100.16"/>
</a>
</g>
</g>
<!-- Node4 -->
<g id="Node000004" class="node">
<title>Node4</title>
<g id="a_Node000004"><a xlink:href="../../d0/d2d/iop_8blk.html#a95bd9efc9a7e7d477e6db0a82e383fde" target="_top" xlink:title=" ">
<polygon fill="white" stroke="#666666" points="211.62,-93.25 108.62,-93.25 108.62,-74 211.62,-74 211.62,-93.25"/>
<text text-anchor="middle" x="160.12" y="-79.75" font-family="Helvetica,sans-Serif" font-size="10.00">iop_module_register</text>
</a>
</g>
</g>
<!-- Node1&#45;&gt;Node4 -->
<g id="edge3_Node000001_Node000004" class="edge">
<title>Node1&#45;&gt;Node4</title>
<g id="a_edge3_Node000001_Node000004"><a xlink:title=" ">
<path fill="none" stroke="#63b8ff" d="M236.23,-83.62C228.07,-83.62 219.76,-83.62 211.78,-83.62"/>
<polygon fill="#63b8ff" stroke="#63b8ff" points="236.09,-87.13 246.09,-83.63 236.09,-80.13 236.09,-87.13"/>
</a>
</g>
</g>
<!-- Node5 -->
<g id="Node000005" class="node">
<title>Node5</title>
<g id="a_Node000005"><a xlink:href="../../d1/d4a/mem-bench_8c.html#a059f4b1884e844ba41e49ae3b53e3958" target="_top" xlink:title="Require mem_bench module manually.">
<polygon fill="white" stroke="#666666" points="212,-56.25 108.25,-56.25 108.25,-37 212,-37 212,-56.25"/>
<text text-anchor="middle" x="160.12" y="-42.75" font-family="Helvetica,sans-Serif" font-size="10.00">mem_bench_require</text>
</a>
</g>
</g>
<!-- Node1&#45;&gt;Node5 -->
<g id="edge5_Node000001_Node000005" class="edge">
<title>Node1&#45;&gt;Node5</title>
<g id="a_edge5_Node000001_Node000005"><a xlink:title=" ">
<path fill="none" stroke="#63b8ff" d="M247.98,-70.47C231.51,-65.95 213.34,-60.96 197.9,-56.72"/>
<polygon fill="#63b8ff" stroke="#63b8ff" points="247.02,-73.84 257.59,-73.11 248.88,-67.09 247.02,-73.84"/>
</a>
</g>
</g>
<!-- Node6 -->
<g id="Node000006" class="node">
<title>Node6</title>
<g id="a_Node000006"><a xlink:href="../../d6/dcc/thr_8c.html#ab02f87e54c6e8a85867c6a63e61583d5" target="_top" xlink:title=" ">
<polygon fill="white" stroke="#666666" points="208.25,-19.25 112,-19.25 112,0 208.25,0 208.25,-19.25"/>
<text text-anchor="middle" x="160.12" y="-5.75" font-family="Helvetica,sans-Serif" font-size="10.00">thr_hooks_register</text>
</a>
</g>
</g>
<!-- Node1&#45;&gt;Node6 -->
<g id="edge7_Node000001_Node000006" class="edge">
<title>Node1&#45;&gt;Node6</title>
<g id="a_edge7_Node000001_Node000006"><a xlink:title=" ">
<path fill="none" stroke="#63b8ff" d="M274.34,-67.07C257.92,-54.99 234.38,-38.83 212,-27.62 206.14,-24.69 199.68,-22.01 193.38,-19.67"/>
<polygon fill="#63b8ff" stroke="#63b8ff" points="271.81,-69.54 281.92,-72.73 276.01,-63.94 271.81,-69.54"/>
</a>
</g>
</g>
<!-- Node4&#45;&gt;Node2 -->
<g id="edge4_Node000004_Node000002" class="edge">
<title>Node4&#45;&gt;Node2</title>
<g id="a_edge4_Node000004_Node000002"><a xlink:title=" ">
<path fill="none" stroke="#63b8ff" d="M97.34,-74C88.85,-72.68 80.39,-71.36 72.6,-70.15"/>
<polygon fill="#63b8ff" stroke="#63b8ff" points="96.53,-77.42 106.95,-75.5 97.61,-70.5 96.53,-77.42"/>
</a>
</g>
</g>
<!-- Node5&#45;&gt;Node2 -->
<g id="edge6_Node000005_Node000002" class="edge">
<title>Node5&#45;&gt;Node2</title>
<g id="a_edge6_Node000005_Node000002"><a xlink:title=" ">
<path fill="none" stroke="#63b8ff" d="M96.73,-55.83C88.38,-57.06 80.05,-58.29 72.39,-59.42"/>
<polygon fill="#63b8ff" stroke="#63b8ff" points="97.21,-59.3 106.6,-54.38 96.19,-52.37 97.21,-59.3"/>
</a>
</g>
</g>
<!-- Node6&#45;&gt;Node2 -->
<g id="edge8_Node000006_Node000002" class="edge">
<title>Node6&#45;&gt;Node2</title>
<g id="a_edge8_Node000006_Node000002"><a xlink:title=" ">
<path fill="none" stroke="#63b8ff" d="M117.93,-23.64C114.63,-24.93 111.37,-26.27 108.25,-27.62 89.48,-35.78 68.82,-46.77 54.62,-54.65"/>
<polygon fill="#63b8ff" stroke="#63b8ff" points="118.91,-27.02 127.04,-20.23 116.45,-20.46 118.91,-27.02"/>
</a>
</g>
</g>
</g>
</svg>
</svg>

<style type='text/css'>
<![CDATA[
[data-mouse-over-selected='false'] { opacity: 0.7; }
[data-mouse-over-selected='true']  { opacity: 1.0; }
]]>
</style>
<script type="application/ecmascript"><![CDATA[
document.addEventListener('DOMContentLoaded', (event) => {
  highlightEdges();
  highlightAdjacentNodes();
});
]]></script>
</svg>
