<?xml version="1.0" encoding="UTF-8" standalone="no"?>
<!DOCTYPE svg PUBLIC "-//W3C//DTD SVG 1.1//EN"
 "http://www.w3.org/Graphics/SVG/1.1/DTD/svg11.dtd">
<!-- Generated by graphviz version 9.0.0 (20230911.1827)
 -->
<!-- Title: prometheus&#45;client.h Pages: 1 -->
<svg width="462pt" height="94pt"
 viewBox="0.00 0.00 462.12 93.75" xmlns="http://www.w3.org/2000/svg" xmlns:xlink="http://www.w3.org/1999/xlink">
<g id="graph0" class="graph" transform="scale(1 1) rotate(0) translate(4 89.75)">
<title>prometheus&#45;client.h</title>
<!-- Node1 -->
<g id="Node000001" class="node">
<title>Node1</title>
<g id="a_Node000001"><a xlink:title=" ">
<polygon fill="#999999" stroke="#666666" points="245,-85.75 144.25,-85.75 144.25,-66.5 245,-66.5 245,-85.75"/>
<text text-anchor="middle" x="194.62" y="-72.25" font-family="Helvetica,sans-Serif" font-size="10.00">prometheus&#45;client.h</text>
</a>
</g>
</g>
<!-- Node2 -->
<g id="Node000002" class="node">
<title>Node2</title>
<g id="a_Node000002"><a xlink:title=" ">
<polygon fill="#e0e0e0" stroke="#999999" points="63.25,-24.88 0,-24.88 0,-5.63 63.25,-5.63 63.25,-24.88"/>
<text text-anchor="middle" x="31.62" y="-11.38" font-family="Helvetica,sans-Serif" font-size="10.00">netinet/in.h</text>
</a>
</g>
</g>
<!-- Node1&#45;&gt;Node2 -->
<g id="edge1_Node000001_Node000002" class="edge">
<title>Node1&#45;&gt;Node2</title>
<g id="a_edge1_Node000001_Node000002"><a xlink:title=" ">
<path fill="none" stroke="#63b8ff" d="M169.51,-66.05C142.23,-56.2 98.42,-40.38 67.51,-29.21"/>
<polygon fill="#63b8ff" stroke="#63b8ff" points="68.78,-25.95 58.19,-25.84 66.4,-32.53 68.78,-25.95"/>
</a>
</g>
</g>
<!-- Node3 -->
<g id="Node000003" class="node">
<title>Node3</title>
<g id="a_Node000003"><a xlink:title=" ">
<polygon fill="#e0e0e0" stroke="#999999" points="176.38,-24.88 80.88,-24.88 80.88,-5.63 176.38,-5.63 176.38,-24.88"/>
<text text-anchor="middle" x="128.62" y="-11.38" font-family="Helvetica,sans-Serif" font-size="10.00">lib&#45;common/core.h</text>
</a>
</g>
</g>
<!-- Node1&#45;&gt;Node3 -->
<g id="edge2_Node000001_Node000003" class="edge">
<title>Node1&#45;&gt;Node3</title>
<g id="a_edge2_Node000001_Node000003"><a xlink:title=" ">
<path fill="none" stroke="#63b8ff" d="M184.6,-66.18C174.72,-57.37 159.37,-43.68 147.24,-32.86"/>
<polygon fill="#63b8ff" stroke="#63b8ff" points="149.67,-30.33 139.87,-26.28 145.01,-35.55 149.67,-30.33"/>
</a>
</g>
</g>
<!-- Node4 -->
<g id="Node000004" class="node">
<title>Node4</title>
<g id="a_Node000004"><a xlink:title=" ">
<polygon fill="#e0e0e0" stroke="#999999" points="326.75,-24.88 194.5,-24.88 194.5,-5.63 326.75,-5.63 326.75,-24.88"/>
<text text-anchor="middle" x="260.62" y="-11.38" font-family="Helvetica,sans-Serif" font-size="10.00">lib&#45;common/core/core.iop.h</text>
</a>
</g>
</g>
<!-- Node1&#45;&gt;Node4 -->
<g id="edge3_Node000001_Node000004" class="edge">
<title>Node1&#45;&gt;Node4</title>
<g id="a_edge3_Node000001_Node000004"><a xlink:title=" ">
<path fill="none" stroke="#63b8ff" d="M204.65,-66.18C214.53,-57.37 229.88,-43.68 242.01,-32.86"/>
<polygon fill="#63b8ff" stroke="#63b8ff" points="244.24,-35.55 249.38,-26.28 239.58,-30.33 244.24,-35.55"/>
</a>
</g>
</g>
<!-- Node5 -->
<g id="Node000005" class="node">
<title>Node5</title>
<g id="a_Node000005"><a xlink:title=" ">
<polygon fill="#e0e0e0" stroke="#999999" points="454.12,-30.5 345.12,-30.5 345.12,0 454.12,0 454.12,-30.5"/>
<text text-anchor="start" x="353.12" y="-17" font-family="Helvetica,sans-Serif" font-size="10.00">lib&#45;common/container</text>
<text text-anchor="middle" x="399.62" y="-5.75" font-family="Helvetica,sans-Serif" font-size="10.00">&#45;qvector.h</text>
</a>
</g>
</g>
<!-- Node1&#45;&gt;Node5 -->
<g id="edge4_Node000001_Node000005" class="edge">
<title>Node1&#45;&gt;Node5</title>
<g id="a_edge4_Node000001_Node000005"><a xlink:title=" ">
<path fill="none" stroke="#63b8ff" d="M226.21,-66.05C255.85,-57.54 301.02,-44.57 337.83,-34"/>
<polygon fill="#63b8ff" stroke="#63b8ff" points="338.36,-37.49 347,-31.36 336.43,-30.76 338.36,-37.49"/>
</a>
</g>
</g>
</g>
</svg>
