<?xml version="1.0" encoding="UTF-8" standalone="no"?>
<!DOCTYPE svg PUBLIC "-//W3C//DTD SVG 1.1//EN"
 "http://www.w3.org/Graphics/SVG/1.1/DTD/svg11.dtd">
<!-- Generated by graphviz version 9.0.0 (20230911.1827)
 -->
<!-- Title: mem_stack_pool_pop Pages: 1 -->
<svg width="964pt" height="144pt"
 viewBox="0.00 0.00 963.75 144.25" xmlns="http://www.w3.org/2000/svg" xmlns:xlink="http://www.w3.org/1999/xlink">
<g id="graph0" class="graph" transform="scale(1 1) rotate(0) translate(4 140.25)">
<title>mem_stack_pool_pop</title>
<!-- Node1 -->
<g id="Node000001" class="node">
<title>Node1</title>
<g id="a_Node000001"><a xlink:title=" ">
<polygon fill="#999999" stroke="#666666" points="955.75,-56.25 844.5,-56.25 844.5,-37 955.75,-37 955.75,-56.25"/>
<text text-anchor="middle" x="900.12" y="-42.75" font-family="Helvetica,sans-Serif" font-size="10.00">mem_stack_pool_pop</text>
</a>
</g>
</g>
<!-- Node2 -->
<g id="Node000002" class="node">
<title>Node2</title>
<g id="a_Node000002"><a xlink:href="../../d7/df8/log_8c.html#a5448246d4304fbf2e389e4091d216285" target="_top" xlink:title=" ">
<polygon fill="white" stroke="#666666" points="805.12,-93.25 722.38,-93.25 722.38,-74 805.12,-74 805.12,-93.25"/>
<text text-anchor="middle" x="763.75" y="-79.75" font-family="Helvetica,sans-Serif" font-size="10.00">free_last_buffer</text>
</a>
</g>
</g>
<!-- Node1&#45;&gt;Node2 -->
<g id="edge1_Node000001_Node000002" class="edge">
<title>Node1&#45;&gt;Node2</title>
<g id="a_edge1_Node000001_Node000002"><a xlink:title=" ">
<path fill="none" stroke="#63b8ff" d="M851.36,-59.78C834.94,-64.3 816.82,-69.29 801.42,-73.53"/>
<polygon fill="#63b8ff" stroke="#63b8ff" points="852.24,-63.17 860.95,-57.14 850.38,-56.42 852.24,-63.17"/>
</a>
</g>
</g>
<!-- Node14 -->
<g id="Node000014" class="node">
<title>Node14</title>
<g id="a_Node000014"><a xlink:href="../../d1/d10/mem-stack_8h.html#ad7925ab0d46de314cefca75e015cfb51" target="_top" xlink:title=" ">
<polygon fill="white" stroke="#666666" points="807.75,-56.25 719.75,-56.25 719.75,-37 807.75,-37 807.75,-56.25"/>
<text text-anchor="middle" x="763.75" y="-42.75" font-family="Helvetica,sans-Serif" font-size="10.00">mem_stack_pop</text>
</a>
</g>
</g>
<!-- Node1&#45;&gt;Node14 -->
<g id="edge13_Node000001_Node000014" class="edge">
<title>Node1&#45;&gt;Node14</title>
<g id="a_edge13_Node000001_Node000014"><a xlink:title=" ">
<path fill="none" stroke="#63b8ff" d="M832.69,-46.62C824.3,-46.62 815.89,-46.62 807.99,-46.62"/>
<polygon fill="#63b8ff" stroke="#63b8ff" points="832.57,-50.13 842.57,-46.63 832.57,-43.13 832.57,-50.13"/>
</a>
</g>
</g>
<!-- Node15 -->
<g id="Node000015" class="node">
<title>Node15</title>
<g id="a_Node000015"><a xlink:href="../../d1/d10/mem-stack_8h.html#a22de6fbd3e070c2e801d8d70f9428245" target="_top" xlink:title=" ">
<polygon fill="white" stroke="#666666" points="808.5,-19.25 719,-19.25 719,0 808.5,0 808.5,-19.25"/>
<text text-anchor="middle" x="763.75" y="-5.75" font-family="Helvetica,sans-Serif" font-size="10.00">t_scope_cleanup</text>
</a>
</g>
</g>
<!-- Node1&#45;&gt;Node15 -->
<g id="edge14_Node000001_Node000015" class="edge">
<title>Node1&#45;&gt;Node15</title>
<g id="a_edge14_Node000001_Node000015"><a xlink:title=" ">
<path fill="none" stroke="#63b8ff" d="M851.36,-33.47C834.94,-28.95 816.82,-23.96 801.42,-19.72"/>
<polygon fill="#63b8ff" stroke="#63b8ff" points="850.38,-36.83 860.95,-36.11 852.24,-30.08 850.38,-36.83"/>
</a>
</g>
</g>
<!-- Node3 -->
<g id="Node000003" class="node">
<title>Node3</title>
<g id="a_Node000003"><a xlink:href="../../d7/df8/log_8c.html#a56e9ba3675751ca6441dca0020ff1740" target="_top" xlink:title=" ">
<polygon fill="white" stroke="#666666" points="674.38,-136.25 596.12,-136.25 596.12,-117 674.38,-117 674.38,-136.25"/>
<text text-anchor="middle" x="635.25" y="-122.75" font-family="Helvetica,sans-Serif" font-size="10.00">__attr_printf__</text>
</a>
</g>
</g>
<!-- Node2&#45;&gt;Node3 -->
<g id="edge2_Node000002_Node000003" class="edge">
<title>Node2&#45;&gt;Node3</title>
<g id="a_edge2_Node000002_Node000003"><a xlink:title=" ">
<path fill="none" stroke="#63b8ff" d="M722.37,-97.35C703.97,-103.61 682.58,-110.88 665.72,-116.61"/>
<polygon fill="#63b8ff" stroke="#63b8ff" points="723.32,-100.73 731.66,-94.19 721.06,-94.1 723.32,-100.73"/>
</a>
</g>
</g>
<!-- Node4 -->
<g id="Node000004" class="node">
<title>Node4</title>
<g id="a_Node000004"><a xlink:href="../../d1/dc0/group__log.html#gaf3df45c3e36404b83a65fefb536b5144" target="_top" xlink:title="Start buffer for logger and filter on log level.">
<polygon fill="white" stroke="#666666" points="683,-98.88 587.5,-98.88 587.5,-68.38 683,-68.38 683,-98.88"/>
<text text-anchor="start" x="595.5" y="-85.38" font-family="Helvetica,sans-Serif" font-size="10.00">log_start_buffering</text>
<text text-anchor="middle" x="635.25" y="-74.12" font-family="Helvetica,sans-Serif" font-size="10.00">_filter</text>
</a>
</g>
</g>
<!-- Node2&#45;&gt;Node4 -->
<g id="edge3_Node000002_Node000004" class="edge">
<title>Node2&#45;&gt;Node4</title>
<g id="a_edge3_Node000002_Node000004"><a xlink:title=" ">
<path fill="none" stroke="#63b8ff" d="M710.67,-83.62C701.52,-83.62 692.05,-83.62 683.06,-83.62"/>
<polygon fill="#63b8ff" stroke="#63b8ff" points="710.51,-87.13 720.51,-83.63 710.51,-80.13 710.51,-87.13"/>
</a>
</g>
</g>
<!-- Node13 -->
<g id="Node000013" class="node">
<title>Node13</title>
<g id="a_Node000013"><a xlink:href="../../d1/dc0/group__log.html#ga5e7f668d7e8a83e4d8a0dc2cbcd3886a" target="_top" xlink:title="Stop buffer previously started for logger.">
<polygon fill="white" stroke="#666666" points="652.62,-50.25 617.88,-50.25 617.88,-31 652.62,-31 652.62,-50.25"/>
<text text-anchor="middle" x="635.25" y="-36.75" font-family="Helvetica,sans-Serif" font-size="10.00">qv_t</text>
</a>
</g>
</g>
<!-- Node2&#45;&gt;Node13 -->
<g id="edge12_Node000002_Node000013" class="edge">
<title>Node2&#45;&gt;Node13</title>
<g id="a_edge12_Node000002_Node000013"><a xlink:title=" ">
<path fill="none" stroke="#63b8ff" d="M722.36,-69.89C698.87,-61.91 670.51,-52.27 652.93,-46.29"/>
<polygon fill="#63b8ff" stroke="#63b8ff" points="721.06,-73.15 731.66,-73.06 723.32,-66.52 721.06,-73.15"/>
</a>
</g>
</g>
<!-- Node5 -->
<g id="Node000005" class="node">
<title>Node5</title>
<g id="a_Node000005"><a xlink:href="../../db/d07/iopc-dso_8c.html#ab2da67841232fab2872190ddabd94a81" target="_top" xlink:title="Build an IOP DSO.">
<polygon fill="white" stroke="#666666" points="539.5,-130.25 459,-130.25 459,-111 539.5,-111 539.5,-130.25"/>
<text text-anchor="middle" x="499.25" y="-116.75" font-family="Helvetica,sans-Serif" font-size="10.00">iopc_dso_build</text>
</a>
</g>
</g>
<!-- Node4&#45;&gt;Node5 -->
<g id="edge4_Node000004_Node000005" class="edge">
<title>Node4&#45;&gt;Node5</title>
<g id="a_edge4_Node000004_Node000005"><a xlink:title=" ">
<path fill="none" stroke="#63b8ff" d="M575.92,-99.73C562.54,-103.43 548.68,-107.25 536.54,-110.6"/>
<polygon fill="#63b8ff" stroke="#63b8ff" points="576.84,-103.11 585.55,-97.07 574.98,-96.36 576.84,-103.11"/>
</a>
</g>
</g>
<!-- Node6 -->
<g id="Node000006" class="node">
<title>Node6</title>
<g id="a_Node000006"><a xlink:href="../../d1/dc0/group__log.html#ga75111e0c1191b025457989e02cea2c09" target="_top" xlink:title="Start buffer for logger.">
<polygon fill="white" stroke="#666666" points="547,-93.25 451.5,-93.25 451.5,-74 547,-74 547,-93.25"/>
<text text-anchor="middle" x="499.25" y="-79.75" font-family="Helvetica,sans-Serif" font-size="10.00">log_start_buffering</text>
</a>
</g>
</g>
<!-- Node4&#45;&gt;Node6 -->
<g id="edge5_Node000004_Node000006" class="edge">
<title>Node4&#45;&gt;Node6</title>
<g id="a_edge5_Node000004_Node000006"><a xlink:title=" ">
<path fill="none" stroke="#63b8ff" d="M575.55,-83.62C566.02,-83.62 556.26,-83.62 547.07,-83.62"/>
<polygon fill="#63b8ff" stroke="#63b8ff" points="575.49,-87.13 585.49,-83.63 575.49,-80.13 575.49,-87.13"/>
</a>
</g>
</g>
<!-- Node9 -->
<g id="Node000009" class="node">
<title>Node9</title>
<g id="a_Node000009"><a xlink:href="../../db/d6e/iopc-iopsq_8c.html#ad9d8b003c04a8df3421b09d35a688cdb" target="_top" xlink:title="Generates an IOP package description from its IOP version.">
<polygon fill="white" stroke="#666666" points="551.5,-53.25 447,-53.25 447,-34 551.5,-34 551.5,-53.25"/>
<text text-anchor="middle" x="499.25" y="-39.75" font-family="Helvetica,sans-Serif" font-size="10.00">mp_iopsq_build_pkg</text>
</a>
</g>
</g>
<!-- Node4&#45;&gt;Node9 -->
<g id="edge8_Node000004_Node000009" class="edge">
<title>Node4&#45;&gt;Node9</title>
<g id="a_edge8_Node000004_Node000009"><a xlink:title=" ">
<path fill="none" stroke="#63b8ff" d="M576.16,-66.28C561.76,-61.99 546.81,-57.52 534.03,-53.71"/>
<polygon fill="#63b8ff" stroke="#63b8ff" points="574.97,-69.58 585.56,-69.09 576.98,-62.88 574.97,-69.58"/>
</a>
</g>
</g>
<!-- Node7 -->
<g id="Node000007" class="node">
<title>Node7</title>
<g id="a_Node000007"><a xlink:href="../../dd/dfc/iopc-parser_8c.html#abe3d6cfba80507c9ce5861308c77342d" target="_top" xlink:title=" ">
<polygon fill="white" stroke="#666666" points="385.5,-130.25 323.75,-130.25 323.75,-111 385.5,-111 385.5,-130.25"/>
<text text-anchor="middle" x="354.62" y="-116.75" font-family="Helvetica,sans-Serif" font-size="10.00">build_dox_</text>
</a>
</g>
</g>
<!-- Node6&#45;&gt;Node7 -->
<g id="edge6_Node000006_Node000007" class="edge">
<title>Node6&#45;&gt;Node7</title>
<g id="a_edge6_Node000006_Node000007"><a xlink:title=" ">
<path fill="none" stroke="#63b8ff" d="M448.37,-96.57C427.57,-101.96 404.09,-108.05 385.96,-112.76"/>
<polygon fill="#63b8ff" stroke="#63b8ff" points="449.01,-100.01 457.81,-94.12 447.25,-93.24 449.01,-100.01"/>
</a>
</g>
</g>
<!-- Node8 -->
<g id="Node000008" class="node">
<title>Node8</title>
<g id="a_Node000008"><a xlink:href="../../dc/df9/z_8blk.html#a7aecafd2b6d53feb0c5ba3a9b492099a" target="_top" xlink:title=" ">
<polygon fill="white" stroke="#666666" points="374.25,-93.25 335,-93.25 335,-74 374.25,-74 374.25,-93.25"/>
<text text-anchor="middle" x="354.62" y="-79.75" font-family="Helvetica,sans-Serif" font-size="10.00">z_run</text>
</a>
</g>
</g>
<!-- Node6&#45;&gt;Node8 -->
<g id="edge7_Node000006_Node000008" class="edge">
<title>Node6&#45;&gt;Node8</title>
<g id="a_edge7_Node000006_Node000008"><a xlink:title=" ">
<path fill="none" stroke="#63b8ff" d="M439.89,-83.62C416.52,-83.62 391.24,-83.62 374.53,-83.62"/>
<polygon fill="#63b8ff" stroke="#63b8ff" points="439.64,-87.13 449.64,-83.63 439.64,-80.13 439.64,-87.13"/>
</a>
</g>
</g>
<!-- Node10 -->
<g id="Node000010" class="node">
<title>Node10</title>
<g id="a_Node000010"><a xlink:href="../../db/d6e/iopc-iopsq_8c.html#ab249c992023713d970929acd2c1e9fed" target="_top" xlink:title="Generates an dumb IOP package from a single package elem description.">
<polygon fill="white" stroke="#666666" points="411,-55.88 298.25,-55.88 298.25,-25.38 411,-25.38 411,-55.88"/>
<text text-anchor="start" x="306.25" y="-42.38" font-family="Helvetica,sans-Serif" font-size="10.00">mp_iopsq_build_mono</text>
<text text-anchor="middle" x="354.62" y="-31.12" font-family="Helvetica,sans-Serif" font-size="10.00">_element_pkg</text>
</a>
</g>
</g>
<!-- Node9&#45;&gt;Node10 -->
<g id="edge9_Node000009_Node000010" class="edge">
<title>Node9&#45;&gt;Node10</title>
<g id="a_edge9_Node000009_Node000010"><a xlink:title=" ">
<path fill="none" stroke="#63b8ff" d="M435.25,-42.3C427.3,-42.13 419.21,-41.96 411.38,-41.8"/>
<polygon fill="#63b8ff" stroke="#63b8ff" points="435.17,-45.8 445.25,-42.51 435.32,-38.8 435.17,-45.8"/>
</a>
</g>
</g>
<!-- Node11 -->
<g id="Node000011" class="node">
<title>Node11</title>
<g id="a_Node000011"><a xlink:href="../../db/d6e/iopc-iopsq_8c.html#aa37570289cdd73d2d1aacb686eb9bd3e" target="_top" xlink:title=" ">
<polygon fill="white" stroke="#666666" points="262.25,-50.25 148.75,-50.25 148.75,-31 262.25,-31 262.25,-50.25"/>
<text text-anchor="middle" x="205.5" y="-36.75" font-family="Helvetica,sans-Serif" font-size="10.00">mp_iopsq_build_struct</text>
</a>
</g>
</g>
<!-- Node10&#45;&gt;Node11 -->
<g id="edge10_Node000010_Node000011" class="edge">
<title>Node10&#45;&gt;Node11</title>
<g id="a_edge10_Node000010_Node000011"><a xlink:title=" ">
<path fill="none" stroke="#63b8ff" d="M286.75,-40.62C278.71,-40.62 270.56,-40.62 262.69,-40.62"/>
<polygon fill="#63b8ff" stroke="#63b8ff" points="286.49,-44.13 296.49,-40.63 286.49,-37.13 286.49,-44.13"/>
</a>
</g>
</g>
<!-- Node12 -->
<g id="Node000012" class="node">
<title>Node12</title>
<g id="a_Node000012"><a xlink:href="../../db/d6e/iopc-iopsq_8c.html#a29da93a7e88dca9ad6e854548eb1ad54" target="_top" xlink:title="Build iopsq_iop_struct_t object.">
<polygon fill="white" stroke="#666666" points="112.75,-50.25 0,-50.25 0,-31 112.75,-31 112.75,-50.25"/>
<text text-anchor="middle" x="56.38" y="-36.75" font-family="Helvetica,sans-Serif" font-size="10.00">iopsq_iop_struct_build</text>
</a>
</g>
</g>
<!-- Node11&#45;&gt;Node12 -->
<g id="edge11_Node000011_Node000012" class="edge">
<title>Node11&#45;&gt;Node12</title>
<g id="a_edge11_Node000011_Node000012"><a xlink:title=" ">
<path fill="none" stroke="#63b8ff" d="M137.07,-40.62C128.94,-40.62 120.71,-40.62 112.77,-40.62"/>
<polygon fill="#63b8ff" stroke="#63b8ff" points="136.95,-44.13 146.95,-40.63 136.95,-37.13 136.95,-44.13"/>
</a>
</g>
</g>
</g>
</svg>
