<?xml version="1.0" encoding="UTF-8" standalone="no"?>
<!DOCTYPE svg PUBLIC "-//W3C//DTD SVG 1.1//EN"
 "http://www.w3.org/Graphics/SVG/1.1/DTD/svg11.dtd">
<!-- Generated by graphviz version 9.0.0 (20230911.1827)
 -->
<!-- Title: float.h Pages: 1 -->
<svg width="396pt" height="83pt"
 viewBox="0.00 0.00 395.88 82.50" xmlns="http://www.w3.org/2000/svg" xmlns:xlink="http://www.w3.org/1999/xlink">

<svg id="main" version="1.1" xmlns="http://www.w3.org/2000/svg" xmlns:xlink="http://www.w3.org/1999/xlink" xml:space="preserve" onload="init(evt)">
<style type="text/css"><![CDATA[
.node, .edge {opacity: 0.7;}
.node.selected, .edge.selected {opacity: 1;}
.edge:hover path { stroke: red; }
.edge:hover polygon { stroke: red; fill: red; }
]]></style>
<script type="application/ecmascript" xlink:href="../../svg.min.js"/>
<svg id="graph" class="graph">
<g id="graph0" class="graph" transform="scale(1 1) rotate(0) translate(4 78.5)">
<title>float.h</title>
<!-- Node1 -->
<g id="Node000001" class="node">
<title>Node1</title>
<g id="a_Node000001"><a xlink:title=" ">
<polygon fill="#999999" stroke="#666666" points="201.88,-74.5 160.38,-74.5 160.38,-55.25 201.88,-55.25 201.88,-74.5"/>
<text text-anchor="middle" x="181.12" y="-61" font-family="Helvetica,sans-Serif" font-size="10.00">float.h</text>
</a>
</g>
</g>
<!-- Node2 -->
<g id="Node000002" class="node">
<title>Node2</title>
<g id="a_Node000002"><a xlink:href="../../d7/deb/arith_8h.html" target="_top" xlink:title=" ">
<polygon fill="white" stroke="#666666" points="42.25,-19.25 0,-19.25 0,0 42.25,0 42.25,-19.25"/>
<text text-anchor="middle" x="21.12" y="-5.75" font-family="Helvetica,sans-Serif" font-size="10.00">arith.h</text>
</a>
</g>
</g>
<!-- Node1&#45;&gt;Node2 -->
<g id="edge1_Node000001_Node000002" class="edge">
<title>Node1&#45;&gt;Node2</title>
<g id="a_edge1_Node000001_Node000002"><a xlink:title=" ">
<path fill="none" stroke="#63b8ff" d="M149.02,-53.19C117.43,-42.68 70.06,-26.91 42.72,-17.81"/>
<polygon fill="#63b8ff" stroke="#63b8ff" points="147.85,-56.49 158.44,-56.33 150.06,-49.85 147.85,-56.49"/>
</a>
</g>
</g>
<!-- Node3 -->
<g id="Node000003" class="node">
<title>Node3</title>
<g id="a_Node000003"><a xlink:href="../../dd/d59/float_8c.html" target="_top" xlink:title=" ">
<polygon fill="white" stroke="#666666" points="101.88,-19.25 60.38,-19.25 60.38,0 101.88,0 101.88,-19.25"/>
<text text-anchor="middle" x="81.12" y="-5.75" font-family="Helvetica,sans-Serif" font-size="10.00">float.c</text>
</a>
</g>
</g>
<!-- Node1&#45;&gt;Node3 -->
<g id="edge2_Node000001_Node000003" class="edge">
<title>Node1&#45;&gt;Node3</title>
<g id="a_edge2_Node000001_Node000003"><a xlink:title=" ">
<path fill="none" stroke="#63b8ff" d="M154.08,-49.48C136.27,-39.99 113.5,-27.86 98.17,-19.7"/>
<polygon fill="#63b8ff" stroke="#63b8ff" points="152.35,-52.52 162.83,-54.13 155.64,-46.34 152.35,-52.52"/>
</a>
</g>
</g>
<!-- Node4 -->
<g id="Node000004" class="node">
<title>Node4</title>
<g id="a_Node000004"><a xlink:href="../../d0/d2d/iop_8blk.html" target="_top" xlink:title=" ">
<polygon fill="white" stroke="#666666" points="164,-19.25 120.25,-19.25 120.25,0 164,0 164,-19.25"/>
<text text-anchor="middle" x="142.12" y="-5.75" font-family="Helvetica,sans-Serif" font-size="10.00">iop.blk</text>
</a>
</g>
</g>
<!-- Node1&#45;&gt;Node4 -->
<g id="edge3_Node000001_Node000004" class="edge">
<title>Node1&#45;&gt;Node4</title>
<g id="a_edge3_Node000001_Node000004"><a xlink:title=" ">
<path fill="none" stroke="#63b8ff" d="M167.99,-45.94C161.5,-37.09 153.96,-26.79 148.7,-19.61"/>
<polygon fill="#63b8ff" stroke="#63b8ff" points="165.06,-47.86 173.79,-53.86 170.71,-43.73 165.06,-47.86"/>
</a>
</g>
</g>
<!-- Node5 -->
<g id="Node000005" class="node">
<title>Node5</title>
<g id="a_Node000005"><a xlink:href="../../d3/d7b/iopc-lang-c_8blk.html" target="_top" xlink:title=" ">
<polygon fill="white" stroke="#666666" points="260.25,-19.25 182,-19.25 182,0 260.25,0 260.25,-19.25"/>
<text text-anchor="middle" x="221.12" y="-5.75" font-family="Helvetica,sans-Serif" font-size="10.00">iopc&#45;lang&#45;c.blk</text>
</a>
</g>
</g>
<!-- Node1&#45;&gt;Node5 -->
<g id="edge4_Node000001_Node000005" class="edge">
<title>Node1&#45;&gt;Node5</title>
<g id="a_edge4_Node000001_Node000005"><a xlink:title=" ">
<path fill="none" stroke="#63b8ff" d="M194.6,-45.94C201.25,-37.09 208.98,-26.79 214.38,-19.61"/>
<polygon fill="#63b8ff" stroke="#63b8ff" points="191.85,-43.77 188.64,-53.87 197.44,-47.98 191.85,-43.77"/>
</a>
</g>
</g>
<!-- Node6 -->
<g id="Node000006" class="node">
<title>Node6</title>
<g id="a_Node000006"><a xlink:href="../../d9/d68/str-dtoa_8c.html" target="_top" xlink:title=" ">
<polygon fill="white" stroke="#666666" points="334.38,-19.25 277.88,-19.25 277.88,0 334.38,0 334.38,-19.25"/>
<text text-anchor="middle" x="306.12" y="-5.75" font-family="Helvetica,sans-Serif" font-size="10.00">str&#45;dtoa.c</text>
</a>
</g>
</g>
<!-- Node1&#45;&gt;Node6 -->
<g id="edge5_Node000001_Node000006" class="edge">
<title>Node1&#45;&gt;Node6</title>
<g id="a_edge5_Node000001_Node000006"><a xlink:title=" ">
<path fill="none" stroke="#63b8ff" d="M212.75,-50.4C235.31,-40.79 265.03,-28.13 284.82,-19.7"/>
<polygon fill="#63b8ff" stroke="#63b8ff" points="211.55,-47.11 203.72,-54.25 214.29,-53.55 211.55,-47.11"/>
</a>
</g>
</g>
<!-- Node7 -->
<g id="Node000007" class="node">
<title>Node7</title>
<g id="a_Node000007"><a xlink:href="../../dc/df9/z_8blk.html" target="_top" xlink:title=" ">
<polygon fill="white" stroke="#666666" points="387.88,-19.25 352.38,-19.25 352.38,0 387.88,0 387.88,-19.25"/>
<text text-anchor="middle" x="370.12" y="-5.75" font-family="Helvetica,sans-Serif" font-size="10.00">z.blk</text>
</a>
</g>
</g>
<!-- Node1&#45;&gt;Node7 -->
<g id="edge6_Node000001_Node000007" class="edge">
<title>Node1&#45;&gt;Node7</title>
<g id="a_edge6_Node000001_Node000007"><a xlink:title=" ">
<path fill="none" stroke="#63b8ff" d="M212.89,-55.53C245.63,-46.84 298.1,-32.64 343.12,-19.25 346.05,-18.38 349.14,-17.43 352.15,-16.48"/>
<polygon fill="#63b8ff" stroke="#63b8ff" points="212.41,-52.04 203.64,-57.98 214.2,-58.81 212.41,-52.04"/>
</a>
</g>
</g>
</g>
</svg>
</svg>

<style type='text/css'>
<![CDATA[
[data-mouse-over-selected='false'] { opacity: 0.7; }
[data-mouse-over-selected='true']  { opacity: 1.0; }
]]>
</style>
<script type="application/ecmascript"><![CDATA[
document.addEventListener('DOMContentLoaded', (event) => {
  highlightEdges();
  highlightAdjacentNodes();
});
]]></script>
</svg>
