<?xml version="1.0" encoding="UTF-8" standalone="no"?>
<!DOCTYPE svg PUBLIC "-//W3C//DTD SVG 1.1//EN"
 "http://www.w3.org/Graphics/SVG/1.1/DTD/svg11.dtd">
<!-- Generated by graphviz version 9.0.0 (20230911.1827)
 -->
<!-- Title: qpage_free Pages: 1 -->
<!--zoomable 447 -->

<svg id="main" version="1.1" xmlns="http://www.w3.org/2000/svg" xmlns:xlink="http://www.w3.org/1999/xlink" xml:space="preserve" onload="init(evt)">
<style type="text/css"><![CDATA[
.node, .edge {opacity: 0.7;}
.node.selected, .edge.selected {opacity: 1;}
.edge:hover path { stroke: red; }
.edge:hover polygon { stroke: red; fill: red; }
]]></style>

<defs>
  <circle id="rim" cx="0" cy="0" r="7"/>
  <circle id="rim2" cx="0" cy="0" r="3.5"/>
  <g id="zoomPlus">
    <use xlink:href="#rim" fill="#404040"><set attributeName="fill" to="#808080" begin="zoomplus.mouseover" end="zoomplus.mouseout"/></use>
    <path d="M-4,0h8M0,-4v8" fill="none" stroke="white" stroke-width="1.5" pointer-events="none"/>
  </g>
  <g id="zoomMin">
    <use xlink:href="#rim" fill="#404040"><set attributeName="fill" to="#808080" begin="zoomminus.mouseover" end="zoomminus.mouseout"/></use>
    <path d="M-4,0h8" fill="none" stroke="white" stroke-width="1.5" pointer-events="none"/>
  </g>
  <g id="arrowUp" transform="translate(30 24)">
    <use xlink:href="#rim"/>
    <path pointer-events="none" fill="none" stroke="white" stroke-width="1.5" d="M0,-3.0v7 M-2.5,-0.5L0,-3.0L2.5,-0.5"/>
  </g>
  <g id="arrowRight" transform="rotate(90) translate(36 -43)">
    <use xlink:href="#rim"/>
    <path pointer-events="none" fill="none" stroke="white" stroke-width="1.5" d="M0,-3.0v7 M-2.5,-0.5L0,-3.0L2.5,-0.5"/>
  </g>
  <g id="arrowDown" transform="rotate(180) translate(-30 -48)">
    <use xlink:href="#rim"/>
    <path pointer-events="none" fill="none" stroke="white" stroke-width="1.5" d="M0,-3.0v7 M-2.5,-0.5L0,-3.0L2.5,-0.5"/>
  </g>
  <g id="arrowLeft" transform="rotate(270) translate(-36 17)">
    <use xlink:href="#rim"/>
    <path pointer-events="none" fill="none" stroke="white" stroke-width="1.5" d="M0,-3.0v7 M-2.5,-0.5L0,-3.0L2.5,-0.5"/>
  </g>
  <g id="resetDef">
    <use xlink:href="#rim2" fill="#404040"><set attributeName="fill" to="#808080" begin="reset.mouseover" end="reset.mouseout"/></use>
  </g>
</defs>
<script type="application/ecmascript">
var viewWidth = 1522;
var viewHeight = 447;
var sectionId = 'dynsection-14';
</script>
<script type="application/ecmascript" xlink:href="../../svg.min.js"/>
<svg id="graph" class="graph">
<g id="viewport">
<title>qpage_free</title>
<!-- Node1 -->
<g id="Node000001" class="node">
<title>Node1</title>
<g id="a_Node000001"><a xlink:title=" ">
<polygon fill="#999999" stroke="#666666" points="64,-86.93 0,-86.93 0,-67.68 64,-67.68 64,-86.93"/>
<text text-anchor="middle" x="32" y="-73.43" font-family="Helvetica,sans-Serif" font-size="10.00">qpage_free</text>
</a>
</g>
</g>
<!-- Node2 -->
<g id="Node000002" class="node">
<title>Node2</title>
<g id="a_Node000002"><a xlink:href="../../dc/d4b/qpage_8c.html#a884ba1fb902e4ea6bc81e8ba71730819" target="_top" xlink:title=" ">
<polygon fill="white" stroke="#666666" points="174.5,-86.93 100,-86.93 100,-67.68 174.5,-67.68 174.5,-86.93"/>
<text text-anchor="middle" x="137.25" y="-73.43" font-family="Helvetica,sans-Serif" font-size="10.00">qpage_free_n</text>
</a>
</g>
</g>
<!-- Node1&#45;&gt;Node2 -->
<g id="edge1_Node000001_Node000002" class="edge">
<title>Node1&#45;&gt;Node2</title>
<g id="a_edge1_Node000001_Node000002"><a xlink:title=" ">
<path fill="none" stroke="#63b8ff" d="M64.26,-77.31C71.84,-77.31 80.13,-77.31 88.29,-77.31"/>
<polygon fill="#63b8ff" stroke="#63b8ff" points="88.14,-80.81 98.14,-77.31 88.14,-73.81 88.14,-80.81"/>
</a>
</g>
</g>
<!-- Node3 -->
<g id="Node000003" class="node">
<title>Node3</title>
<g id="a_Node000003"><a xlink:href="../../dc/d4b/qpage_8c.html#a251f62ccdac286348f7f9dd56c09154b" target="_top" xlink:title=" ">
<polygon fill="white" stroke="#666666" points="421.75,-103.93 377.25,-103.93 377.25,-84.68 421.75,-84.68 421.75,-103.93"/>
<text text-anchor="middle" x="399.5" y="-90.43" font-family="Helvetica,sans-Serif" font-size="10.00">blk_no</text>
</a>
</g>
</g>
<!-- Node2&#45;&gt;Node3 -->
<g id="edge2_Node000002_Node000003" class="edge">
<title>Node2&#45;&gt;Node3</title>
<g id="a_edge2_Node000002_Node000003"><a xlink:title=" ">
<path fill="none" stroke="#63b8ff" d="M174.99,-79.71C225.75,-83.02 316.59,-88.96 365.37,-92.14"/>
<polygon fill="#63b8ff" stroke="#63b8ff" points="365.1,-95.63 375.3,-92.79 365.55,-88.65 365.1,-95.63"/>
</a>
</g>
</g>
<!-- Node4 -->
<g id="Node000004" class="node">
<title>Node4</title>
<g id="a_Node000004"><a xlink:href="../../dc/d4b/qpage_8c.html#a0b557b2aae2c115df7607ce5ec46833d" target="_top" xlink:title=" ">
<polygon fill="white" stroke="#666666" points="273.75,-251.93 230.75,-251.93 230.75,-232.68 273.75,-232.68 273.75,-251.93"/>
<text text-anchor="middle" x="252.25" y="-238.43" font-family="Helvetica,sans-Serif" font-size="10.00">free_n</text>
</a>
</g>
</g>
<!-- Node2&#45;&gt;Node4 -->
<g id="edge3_Node000002_Node000004" class="edge">
<title>Node2&#45;&gt;Node4</title>
<g id="a_edge3_Node000002_Node000004"><a xlink:title=" ">
<path fill="none" stroke="#63b8ff" d="M144.98,-87.13C163.23,-113.78 213.9,-187.77 238.08,-223.08"/>
<polygon fill="#63b8ff" stroke="#63b8ff" points="235.02,-224.8 243.56,-231.07 240.79,-220.85 235.02,-224.8"/>
</a>
</g>
</g>
<!-- Node15 -->
<g id="Node000015" class="node">
<title>Node15</title>
<g id="a_Node000015"><a xlink:href="../../dc/d4b/qpage_8c.html#a929c2204f5ed9c40b1246999f1df30ac" target="_top" xlink:title=" ">
<polygon fill="white" stroke="#666666" points="294,-67.93 210.5,-67.93 210.5,-48.68 294,-48.68 294,-67.93"/>
<text text-anchor="middle" x="252.25" y="-54.43" font-family="Helvetica,sans-Serif" font-size="10.00">qpage_find_seg</text>
</a>
</g>
</g>
<!-- Node2&#45;&gt;Node15 -->
<g id="edge17_Node000002_Node000015" class="edge">
<title>Node2&#45;&gt;Node15</title>
<g id="a_edge17_Node000002_Node000015"><a xlink:title=" ">
<path fill="none" stroke="#63b8ff" d="M174.94,-71.14C182.56,-69.86 190.73,-68.48 198.79,-67.13"/>
<polygon fill="#63b8ff" stroke="#63b8ff" points="199.27,-70.6 208.56,-65.49 198.11,-63.69 199.27,-70.6"/>
</a>
</g>
</g>
<!-- Node40 -->
<g id="Node000040" class="node">
<title>Node40</title>
<g id="a_Node000040"><a xlink:href="../../dc/d4b/qpage_8c.html#afce0497578dec168fd971867c1b2bd50" target="_top" xlink:title=" ">
<polygon fill="white" stroke="#666666" points="421,-29.93 378,-29.93 378,-10.68 421,-10.68 421,-29.93"/>
<text text-anchor="middle" x="399.5" y="-16.43" font-family="Helvetica,sans-Serif" font-size="10.00">run_of</text>
</a>
</g>
</g>
<!-- Node2&#45;&gt;Node40 -->
<g id="edge49_Node000002_Node000040" class="edge">
<title>Node2&#45;&gt;Node40</title>
<g id="a_edge49_Node000002_Node000040"><a xlink:title=" ">
<path fill="none" stroke="#63b8ff" d="M153.29,-67.19C167.42,-58.24 189.47,-45.64 210.5,-39.31 263.5,-23.35 328.31,-20.17 366.34,-19.86"/>
<polygon fill="#63b8ff" stroke="#63b8ff" points="366.18,-23.36 376.18,-19.85 366.17,-16.36 366.18,-23.36"/>
</a>
</g>
</g>
<!-- Node4&#45;&gt;Node3 -->
<g id="edge10_Node000004_Node000003" class="edge">
<title>Node4&#45;&gt;Node3</title>
<g id="a_edge10_Node000004_Node000003"><a xlink:title=" ">
<path fill="none" stroke="#63b8ff" d="M256.18,-232.39C263.93,-207.96 287.35,-144.55 330,-112.31 340.26,-104.55 353.57,-100.13 365.72,-97.61"/>
<polygon fill="#63b8ff" stroke="#63b8ff" points="366.11,-101.1 375.39,-95.98 364.95,-94.19 366.11,-101.1"/>
</a>
</g>
</g>
<!-- Node5 -->
<g id="Node000005" class="node">
<title>Node5</title>
<g id="a_Node000005"><a xlink:href="../../dc/d4b/qpage_8c.html#a22f25069aa8fb78c62e551350de63812" target="_top" xlink:title=" ">
<polygon fill="white" stroke="#666666" points="423.25,-438.93 375.75,-438.93 375.75,-419.68 423.25,-419.68 423.25,-438.93"/>
<text text-anchor="middle" x="399.5" y="-425.43" font-family="Helvetica,sans-Serif" font-size="10.00">blk_cut</text>
</a>
</g>
</g>
<!-- Node4&#45;&gt;Node5 -->
<g id="edge4_Node000004_Node000005" class="edge">
<title>Node4&#45;&gt;Node5</title>
<g id="a_edge4_Node000004_Node000005"><a xlink:title=" ">
<path fill="none" stroke="#63b8ff" d="M254.71,-252.07C259.59,-281.09 278.03,-367.47 330,-411.31 339.62,-419.42 352.49,-423.92 364.47,-426.4"/>
<polygon fill="#63b8ff" stroke="#63b8ff" points="363.63,-429.81 374.07,-427.97 364.76,-422.91 363.63,-429.81"/>
</a>
</g>
</g>
<!-- Node7 -->
<g id="Node000007" class="node">
<title>Node7</title>
<g id="a_Node000007"><a xlink:href="../../dc/d4b/qpage_8c.html#a6c6dd362844632903c43ec6b1258204a" target="_top" xlink:title=" ">
<polygon fill="white" stroke="#666666" points="581,-289.93 529.75,-289.93 529.75,-270.68 581,-270.68 581,-289.93"/>
<text text-anchor="middle" x="555.38" y="-276.43" font-family="Helvetica,sans-Serif" font-size="10.00">blk_size</text>
</a>
</g>
</g>
<!-- Node4&#45;&gt;Node7 -->
<g id="edge15_Node000004_Node000007" class="edge">
<title>Node4&#45;&gt;Node7</title>
<g id="a_edge15_Node000004_Node000007"><a xlink:title=" ">
<path fill="none" stroke="#63b8ff" d="M274.24,-248.46C289.56,-252.71 310.9,-258.16 330,-261.31 395.72,-272.15 473.35,-276.98 517.92,-278.99"/>
<polygon fill="#63b8ff" stroke="#63b8ff" points="517.66,-282.49 527.8,-279.41 517.96,-275.49 517.66,-282.49"/>
</a>
</g>
</g>
<!-- Node8 -->
<g id="Node000008" class="node">
<title>Node8</title>
<g id="a_Node000008"><a xlink:href="../../dc/d4b/qpage_8c.html#acd7d484223a962f149ed6f0a68330358" target="_top" xlink:title=" ">
<polygon fill="white" stroke="#666666" points="435.25,-214.93 363.75,-214.93 363.75,-195.68 435.25,-195.68 435.25,-214.93"/>
<text text-anchor="middle" x="399.5" y="-201.43" font-family="Helvetica,sans-Serif" font-size="10.00">blk_get_prev</text>
</a>
</g>
</g>
<!-- Node4&#45;&gt;Node8 -->
<g id="edge7_Node000004_Node000008" class="edge">
<title>Node4&#45;&gt;Node8</title>
<g id="a_edge7_Node000004_Node000008"><a xlink:title=" ">
<path fill="none" stroke="#63b8ff" d="M274.06,-237.01C294.45,-231.81 326.2,-223.73 352.52,-217.02"/>
<polygon fill="#63b8ff" stroke="#63b8ff" points="353.13,-220.48 361.96,-214.62 351.4,-213.69 353.13,-220.48"/>
</a>
</g>
</g>
<!-- Node9 -->
<g id="Node000009" class="node">
<title>Node9</title>
<g id="a_Node000009"><a xlink:href="../../dc/d4b/qpage_8c.html#afcdf87a9c8913a351d99a702279144a7" target="_top" xlink:title=" ">
<polygon fill="white" stroke="#666666" points="428.5,-177.93 370.5,-177.93 370.5,-158.68 428.5,-158.68 428.5,-177.93"/>
<text text-anchor="middle" x="399.5" y="-164.43" font-family="Helvetica,sans-Serif" font-size="10.00">blk_insert</text>
</a>
</g>
</g>
<!-- Node4&#45;&gt;Node9 -->
<g id="edge8_Node000004_Node000009" class="edge">
<title>Node4&#45;&gt;Node9</title>
<g id="a_edge8_Node000004_Node000009"><a xlink:title=" ">
<path fill="none" stroke="#63b8ff" d="M263.85,-232.54C277.94,-220.07 304.08,-198.63 330,-186.31 339.02,-182.02 349.21,-178.64 358.92,-176.03"/>
<polygon fill="#63b8ff" stroke="#63b8ff" points="359.66,-179.45 368.53,-173.66 357.99,-172.65 359.66,-179.45"/>
</a>
</g>
</g>
<!-- Node10 -->
<g id="Node000010" class="node">
<title>Node10</title>
<g id="a_Node000010"><a xlink:href="../../dc/d4b/qpage_8c.html#a85689be5c3fbab8c32e947d34dbfdcad" target="_top" xlink:title=" ">
<polygon fill="white" stroke="#666666" points="425.5,-140.93 373.5,-140.93 373.5,-121.68 425.5,-121.68 425.5,-140.93"/>
<text text-anchor="middle" x="399.5" y="-127.43" font-family="Helvetica,sans-Serif" font-size="10.00">blk_next</text>
</a>
</g>
</g>
<!-- Node4&#45;&gt;Node10 -->
<g id="edge9_Node000004_Node000010" class="edge">
<title>Node4&#45;&gt;Node10</title>
<g id="a_edge9_Node000004_Node000010"><a xlink:title=" ">
<path fill="none" stroke="#63b8ff" d="M258.55,-232.43C269.35,-213.31 295.78,-171.19 330,-149.31 339.61,-143.16 351.25,-139.11 362.19,-136.43"/>
<polygon fill="#63b8ff" stroke="#63b8ff" points="362.67,-139.91 371.74,-134.43 361.23,-133.06 362.67,-139.91"/>
</a>
</g>
</g>
<!-- Node11 -->
<g id="Node000011" class="node">
<title>Node11</title>
<g id="a_Node000011"><a xlink:href="../../dc/d4b/qpage_8c.html#abc4d102214aca1797fb54698a25b2315" target="_top" xlink:title=" ">
<polygon fill="white" stroke="#666666" points="432.62,-251.93 366.38,-251.93 366.38,-232.68 432.62,-232.68 432.62,-251.93"/>
<text text-anchor="middle" x="399.5" y="-238.43" font-family="Helvetica,sans-Serif" font-size="10.00">blk_remove</text>
</a>
</g>
</g>
<!-- Node4&#45;&gt;Node11 -->
<g id="edge11_Node000004_Node000011" class="edge">
<title>Node4&#45;&gt;Node11</title>
<g id="a_edge11_Node000004_Node000011"><a xlink:title=" ">
<path fill="none" stroke="#63b8ff" d="M274.06,-242.31C294.97,-242.31 327.84,-242.31 354.54,-242.31"/>
<polygon fill="#63b8ff" stroke="#63b8ff" points="354.42,-245.81 364.42,-242.31 354.42,-238.81 354.42,-245.81"/>
</a>
</g>
</g>
<!-- Node12 -->
<g id="Node000012" class="node">
<title>Node12</title>
<g id="a_Node000012"><a xlink:href="../../dc/d4b/qpage_8c.html#ae801d4d9a57dd7526c41b539219b6d23" target="_top" xlink:title=" ">
<polygon fill="white" stroke="#666666" points="437.5,-401.93 361.5,-401.93 361.5,-382.68 437.5,-382.68 437.5,-401.93"/>
<text text-anchor="middle" x="399.5" y="-388.43" font-family="Helvetica,sans-Serif" font-size="10.00">blk_set_clean</text>
</a>
</g>
</g>
<!-- Node4&#45;&gt;Node12 -->
<g id="edge13_Node000004_Node000012" class="edge">
<title>Node4&#45;&gt;Node12</title>
<g id="a_edge13_Node000004_Node000012"><a xlink:title=" ">
<path fill="none" stroke="#63b8ff" d="M256.14,-252.38C263.78,-277.18 286.97,-341.56 330,-374.31 335.98,-378.86 343,-382.26 350.24,-384.81"/>
<polygon fill="#63b8ff" stroke="#63b8ff" points="349.23,-388.16 359.81,-387.62 351.21,-381.44 349.23,-388.16"/>
</a>
</g>
</g>
<!-- Node13 -->
<g id="Node000013" class="node">
<title>Node13</title>
<g id="a_Node000013"><a xlink:href="../../dc/d4b/qpage_8c.html#afbddd07cafc1ed8ffa1c97be4b93599d" target="_top" xlink:title=" ">
<polygon fill="white" stroke="#666666" points="434.88,-364.93 364.12,-364.93 364.12,-345.68 434.88,-345.68 434.88,-364.93"/>
<text text-anchor="middle" x="399.5" y="-351.43" font-family="Helvetica,sans-Serif" font-size="10.00">blk_set_dirty</text>
</a>
</g>
</g>
<!-- Node4&#45;&gt;Node13 -->
<g id="edge14_Node000004_Node000013" class="edge">
<title>Node4&#45;&gt;Node13</title>
<g id="a_edge14_Node000004_Node000013"><a xlink:title=" ">
<path fill="none" stroke="#63b8ff" d="M258.5,-252.39C269.19,-271.93 295.46,-314.97 330,-337.31 336.81,-341.71 344.65,-345.04 352.55,-347.56"/>
<polygon fill="#63b8ff" stroke="#63b8ff" points="351.61,-350.93 362.18,-350.2 353.46,-344.18 351.61,-350.93"/>
</a>
</g>
</g>
<!-- Node14 -->
<g id="Node000014" class="node">
<title>Node14</title>
<g id="a_Node000014"><a xlink:href="../../d8/d37/mem_8blk.html#a194c1be7b1e9d2742e6c11ea6fed3790" target="_top" xlink:title=" ">
<polygon fill="white" stroke="#666666" points="469,-327.93 330,-327.93 330,-308.68 469,-308.68 469,-327.93"/>
<text text-anchor="middle" x="399.5" y="-314.43" font-family="Helvetica,sans-Serif" font-size="10.00">mem_tool_disallow_memory</text>
</a>
</g>
</g>
<!-- Node4&#45;&gt;Node14 -->
<g id="edge16_Node000004_Node000014" class="edge">
<title>Node4&#45;&gt;Node14</title>
<g id="a_edge16_Node000004_Node000014"><a xlink:title=" ">
<path fill="none" stroke="#63b8ff" d="M265.92,-252.41C280.64,-263.78 305.99,-282.22 330,-294.31 337.43,-298.05 345.58,-301.45 353.59,-304.45"/>
<polygon fill="#63b8ff" stroke="#63b8ff" points="352.32,-307.71 362.91,-307.77 354.66,-301.12 352.32,-307.71"/>
</a>
</g>
</g>
<!-- Node6 -->
<g id="Node000006" class="node">
<title>Node6</title>
<g id="a_Node000006"><a xlink:href="../../dc/d4b/qpage_8c.html#a455aaf9b6d86312d27f80edfd61240a1" target="_top" xlink:title=" ">
<polygon fill="white" stroke="#666666" points="605.75,-438.93 505,-438.93 505,-419.68 605.75,-419.68 605.75,-438.93"/>
<text text-anchor="middle" x="555.38" y="-425.43" font-family="Helvetica,sans-Serif" font-size="10.00">blk_setup_backptrs</text>
</a>
</g>
</g>
<!-- Node5&#45;&gt;Node6 -->
<g id="edge5_Node000005_Node000006" class="edge">
<title>Node5&#45;&gt;Node6</title>
<g id="a_edge5_Node000005_Node000006"><a xlink:title=" ">
<path fill="none" stroke="#63b8ff" d="M423.54,-429.31C441.99,-429.31 468.77,-429.31 493.29,-429.31"/>
<polygon fill="#63b8ff" stroke="#63b8ff" points="493.22,-432.81 503.22,-429.31 493.22,-425.81 493.22,-432.81"/>
</a>
</g>
</g>
<!-- Node5&#45;&gt;Node7 -->
<g id="edge6_Node000005_Node000007" class="edge">
<title>Node5&#45;&gt;Node7</title>
<g id="a_edge6_Node000005_Node000007"><a xlink:title=" ">
<path fill="none" stroke="#63b8ff" d="M423.56,-427.46C437.77,-425.36 455.74,-420.88 469,-411.31 508.47,-382.83 534.53,-329.98 546.6,-300.87"/>
<polygon fill="#63b8ff" stroke="#63b8ff" points="549.8,-302.31 550.24,-291.72 543.29,-299.72 549.8,-302.31"/>
</a>
</g>
</g>
<!-- Node11&#45;&gt;Node7 -->
<g id="edge12_Node000011_Node000007" class="edge">
<title>Node11&#45;&gt;Node7</title>
<g id="a_edge12_Node000011_Node000007"><a xlink:title=" ">
<path fill="none" stroke="#63b8ff" d="M432.76,-250.27C457.78,-256.45 492.46,-265.02 518.39,-271.42"/>
<polygon fill="#63b8ff" stroke="#63b8ff" points="517.24,-274.74 527.79,-273.74 518.92,-267.95 517.24,-274.74"/>
</a>
</g>
</g>
<!-- Node15&#45;&gt;Node3 -->
<g id="edge18_Node000015_Node000003" class="edge">
<title>Node15&#45;&gt;Node3</title>
<g id="a_edge18_Node000015_Node000003"><a xlink:title=" ">
<path fill="none" stroke="#63b8ff" d="M294.1,-68.43C316.75,-74.05 344.55,-80.94 365.76,-86.19"/>
<polygon fill="#63b8ff" stroke="#63b8ff" points="364.78,-89.55 375.32,-88.56 366.46,-82.76 364.78,-89.55"/>
</a>
</g>
</g>
<!-- Node16 -->
<g id="Node000016" class="node">
<title>Node16</title>
<g id="a_Node000016"><a xlink:href="../../d7/df8/log_8c.html#abca342edf91a9b45f7a17ef564fa8a53" target="_top" xlink:title=" ">
<polygon fill="white" stroke="#666666" points="424.38,-66.93 374.62,-66.93 374.62,-47.68 424.38,-47.68 424.38,-66.93"/>
<text text-anchor="middle" x="399.5" y="-53.43" font-family="Helvetica,sans-Serif" font-size="10.00">e_panic</text>
</a>
</g>
</g>
<!-- Node15&#45;&gt;Node16 -->
<g id="edge19_Node000015_Node000016" class="edge">
<title>Node15&#45;&gt;Node16</title>
<g id="a_edge19_Node000015_Node000016"><a xlink:title=" ">
<path fill="none" stroke="#63b8ff" d="M294.48,-58.02C316.08,-57.87 342.26,-57.69 362.95,-57.55"/>
<polygon fill="#63b8ff" stroke="#63b8ff" points="362.93,-61.05 372.91,-57.48 362.89,-54.05 362.93,-61.05"/>
</a>
</g>
</g>
<!-- Node15&#45;&gt;Node40 -->
<g id="edge48_Node000015_Node000040" class="edge">
<title>Node15&#45;&gt;Node40</title>
<g id="a_edge48_Node000015_Node000040"><a xlink:title=" ">
<path fill="none" stroke="#63b8ff" d="M291.79,-48.22C315.16,-42.11 344.62,-34.4 366.66,-28.64"/>
<polygon fill="#63b8ff" stroke="#63b8ff" points="367.49,-32.04 376.28,-26.12 365.72,-25.27 367.49,-32.04"/>
</a>
</g>
</g>
<!-- Node17 -->
<g id="Node000017" class="node">
<title>Node17</title>
<g id="a_Node000017"><a xlink:href="../../d7/df8/log_8c.html#a4bc04f7baa1e064cb0b93c7b9f3a61a1" target="_top" xlink:title=" ">
<polygon fill="white" stroke="#666666" points="599.38,-207.93 511.38,-207.93 511.38,-188.68 599.38,-188.68 599.38,-207.93"/>
<text text-anchor="middle" x="555.38" y="-194.43" font-family="Helvetica,sans-Serif" font-size="10.00">__logger_refresh</text>
</a>
</g>
</g>
<!-- Node16&#45;&gt;Node17 -->
<g id="edge20_Node000016_Node000017" class="edge">
<title>Node16&#45;&gt;Node17</title>
<g id="a_edge20_Node000016_Node000017"><a xlink:title=" ">
<path fill="none" stroke="#63b8ff" d="M424.75,-59.49C438.71,-61.71 456,-66.21 469,-75.31 506.65,-101.65 533.01,-150.25 545.72,-177.82"/>
<polygon fill="#63b8ff" stroke="#63b8ff" points="542.46,-179.11 549.71,-186.83 548.86,-176.27 542.46,-179.11"/>
</a>
</g>
</g>
<!-- Node35 -->
<g id="Node000035" class="node">
<title>Node35</title>
<g id="a_Node000035"><a xlink:href="../../d7/df8/log_8c.html#a900490b26df7698aac12f7f7e6517e81" target="_top" xlink:title=" ">
<polygon fill="white" stroke="#666666" points="588.12,-85.93 522.62,-85.93 522.62,-66.68 588.12,-66.68 588.12,-85.93"/>
<text text-anchor="middle" x="555.38" y="-72.43" font-family="Helvetica,sans-Serif" font-size="10.00">logger_vlog</text>
</a>
</g>
</g>
<!-- Node16&#45;&gt;Node35 -->
<g id="edge42_Node000016_Node000035" class="edge">
<title>Node16&#45;&gt;Node35</title>
<g id="a_edge42_Node000016_Node000035"><a xlink:title=" ">
<path fill="none" stroke="#63b8ff" d="M424.54,-60.28C447.65,-63.13 483.09,-67.5 511.1,-70.96"/>
<polygon fill="#63b8ff" stroke="#63b8ff" points="510.36,-74.4 520.71,-72.15 511.21,-67.45 510.36,-74.4"/>
</a>
</g>
</g>
<!-- Node39 -->
<g id="Node000039" class="node">
<title>Node39</title>
<g id="a_Node000039"><a xlink:href="../../d2/d4d/file_8h.html#a25419a391fdd4ad7954699c58cfeb3b9" target="_top" xlink:title=" ">
<polygon fill="white" stroke="#666666" points="581,-48.93 529.75,-48.93 529.75,-29.68 581,-29.68 581,-48.93"/>
<text text-anchor="middle" x="555.38" y="-35.43" font-family="Helvetica,sans-Serif" font-size="10.00">va_start</text>
</a>
</g>
</g>
<!-- Node16&#45;&gt;Node39 -->
<g id="edge47_Node000016_Node000039" class="edge">
<title>Node16&#45;&gt;Node39</title>
<g id="a_edge47_Node000016_Node000039"><a xlink:title=" ">
<path fill="none" stroke="#63b8ff" d="M424.54,-54.49C449.65,-51.56 489.33,-46.92 518.22,-43.54"/>
<polygon fill="#63b8ff" stroke="#63b8ff" points="518.45,-47.03 527.98,-42.4 517.64,-40.08 518.45,-47.03"/>
</a>
</g>
</g>
<!-- Node18 -->
<g id="Node000018" class="node">
<title>Node18</title>
<g id="a_Node000018"><a xlink:href="../../d7/df8/log_8c.html#a3dbd75fb614210f0b114cfd03c9c0a7b" target="_top" xlink:title=" ">
<polygon fill="white" stroke="#666666" points="745.5,-180.93 641.75,-180.93 641.75,-161.68 745.5,-161.68 745.5,-180.93"/>
<text text-anchor="middle" x="693.62" y="-167.43" font-family="Helvetica,sans-Serif" font-size="10.00">__logger_do_refresh</text>
</a>
</g>
</g>
<!-- Node17&#45;&gt;Node18 -->
<g id="edge21_Node000017_Node000018" class="edge">
<title>Node17&#45;&gt;Node18</title>
<g id="a_edge21_Node000017_Node000018"><a xlink:title=" ">
<path fill="none" stroke="#63b8ff" d="M599.86,-189.69C609.7,-187.74 620.33,-185.63 630.76,-183.57"/>
<polygon fill="#63b8ff" stroke="#63b8ff" points="631.34,-187.02 640.47,-181.64 629.98,-180.15 631.34,-187.02"/>
</a>
</g>
</g>
<!-- Node33 -->
<g id="Node000033" class="node">
<title>Node33</title>
<g id="a_Node000033"><a xlink:href="../../d7/df8/log_8c.html#a7b1b02d1986e1247c2f571af4a2c2854" target="_top" xlink:title=" ">
<polygon fill="white" stroke="#666666" points="731.25,-272.93 656,-272.93 656,-253.68 731.25,-253.68 731.25,-272.93"/>
<text text-anchor="middle" x="693.62" y="-259.43" font-family="Helvetica,sans-Serif" font-size="10.00">log_spin_lock</text>
</a>
</g>
</g>
<!-- Node17&#45;&gt;Node33 -->
<g id="edge40_Node000017_Node000033" class="edge">
<title>Node17&#45;&gt;Node33</title>
<g id="a_edge40_Node000017_Node000033"><a xlink:title=" ">
<path fill="none" stroke="#63b8ff" d="M572.65,-208.32C589.54,-218.44 616.9,-234.16 641.75,-245.31 644.72,-246.64 647.81,-247.94 650.95,-249.19"/>
<polygon fill="#63b8ff" stroke="#63b8ff" points="649.63,-252.44 660.22,-252.71 652.12,-245.89 649.63,-252.44"/>
</a>
</g>
</g>
<!-- Node34 -->
<g id="Node000034" class="node">
<title>Node34</title>
<g id="a_Node000034"><a xlink:href="../../d1/dc0/group__log.html#ga045020bb4af234632f7761f220131c69" target="_top" xlink:title=" ">
<polygon fill="white" stroke="#666666" points="736.5,-235.93 650.75,-235.93 650.75,-216.68 736.5,-216.68 736.5,-235.93"/>
<text text-anchor="middle" x="693.62" y="-222.43" font-family="Helvetica,sans-Serif" font-size="10.00">log_spin_unlock</text>
</a>
</g>
</g>
<!-- Node17&#45;&gt;Node34 -->
<g id="edge41_Node000017_Node000034" class="edge">
<title>Node17&#45;&gt;Node34</title>
<g id="a_edge41_Node000017_Node000034"><a xlink:title=" ">
<path fill="none" stroke="#63b8ff" d="M599.86,-207.24C612.39,-209.82 626.2,-212.66 639.26,-215.34"/>
<polygon fill="#63b8ff" stroke="#63b8ff" points="638.5,-218.76 649,-217.34 639.91,-211.9 638.5,-218.76"/>
</a>
</g>
</g>
<!-- Node18&#45;&gt;Node18 -->
<g id="edge22_Node000018_Node000018" class="edge">
<title>Node18&#45;&gt;Node18</title>
<g id="a_edge22_Node000018_Node000018"><a xlink:title=" ">
<path fill="none" stroke="#63b8ff" d="M671.98,-181.22C662.11,-189.83 669.32,-198.93 693.62,-198.93 706.92,-198.93 715.09,-196.21 718.16,-192.33"/>
<polygon fill="#63b8ff" stroke="#63b8ff" points="721.56,-191.48 715.65,-182.69 714.78,-193.24 721.56,-191.48"/>
</a>
</g>
</g>
<!-- Node19 -->
<g id="Node000019" class="node">
<title>Node19</title>
<g id="a_Node000019"><a xlink:href="../../de/d1a/container-dlist_8h.html#a3b6f65860b212e28f2e28e71eb54d54d" target="_top" xlink:title="Add element e at the head of list l (suited for LIFO).">
<polygon fill="white" stroke="#666666" points="872.5,-274.93 817.5,-274.93 817.5,-255.68 872.5,-255.68 872.5,-274.93"/>
<text text-anchor="middle" x="845" y="-261.43" font-family="Helvetica,sans-Serif" font-size="10.00">dlist_add</text>
</a>
</g>
</g>
<!-- Node18&#45;&gt;Node19 -->
<g id="edge23_Node000018_Node000019" class="edge">
<title>Node18&#45;&gt;Node19</title>
<g id="a_edge23_Node000018_Node000019"><a xlink:title=" ">
<path fill="none" stroke="#63b8ff" d="M710.43,-181.18C720.83,-187.98 734.5,-197.53 745.5,-207.31 763.37,-223.2 761.23,-234.62 781.5,-247.31 788.95,-251.97 797.66,-255.46 806.16,-258.07"/>
<polygon fill="#63b8ff" stroke="#63b8ff" points="805.07,-261.4 815.64,-260.61 806.88,-254.64 805.07,-261.4"/>
</a>
</g>
</g>
<!-- Node21 -->
<g id="Node000021" class="node">
<title>Node21</title>
<g id="a_Node000021"><a xlink:href="../../de/d1a/container-dlist_8h.html#a0a69e401f6ec15966c891e96ad864c77" target="_top" xlink:title="Put a dlist_t element in a safe and detached state.">
<polygon fill="white" stroke="#666666" points="871,-237.93 819,-237.93 819,-218.68 871,-218.68 871,-237.93"/>
<text text-anchor="middle" x="845" y="-224.43" font-family="Helvetica,sans-Serif" font-size="10.00">dlist_init</text>
</a>
</g>
</g>
<!-- Node18&#45;&gt;Node21 -->
<g id="edge25_Node000018_Node000021" class="edge">
<title>Node18&#45;&gt;Node21</title>
<g id="a_edge25_Node000018_Node000021"><a xlink:title=" ">
<path fill="none" stroke="#63b8ff" d="M720.99,-181.37C745.28,-190.64 781.52,-204.47 808.38,-214.72"/>
<polygon fill="#63b8ff" stroke="#63b8ff" points="806.89,-217.89 817.48,-218.19 809.39,-211.35 806.89,-217.89"/>
</a>
</g>
</g>
<!-- Node22 -->
<g id="Node000022" class="node">
<title>Node22</title>
<g id="a_Node000022"><a xlink:href="../../d7/df8/log_8c.html#a4c8fbe8648573312126ce341cf34cba1" target="_top" xlink:title=" ">
<polygon fill="white" stroke="#666666" points="908.5,-161.93 781.5,-161.93 781.5,-142.68 908.5,-142.68 908.5,-161.93"/>
<text text-anchor="middle" x="845" y="-148.43" font-family="Helvetica,sans-Serif" font-size="10.00">logger_compute_fullname</text>
</a>
</g>
</g>
<!-- Node18&#45;&gt;Node22 -->
<g id="edge26_Node000018_Node000022" class="edge">
<title>Node18&#45;&gt;Node22</title>
<g id="a_edge26_Node000018_Node000022"><a xlink:title=" ">
<path fill="none" stroke="#63b8ff" d="M745.61,-164.82C753.46,-163.82 761.69,-162.78 769.91,-161.73"/>
<polygon fill="#63b8ff" stroke="#63b8ff" points="770.11,-165.23 779.58,-160.5 769.22,-158.29 770.11,-165.23"/>
</a>
</g>
</g>
<!-- Node25 -->
<g id="Node000025" class="node">
<title>Node25</title>
<g id="a_Node000025"><a xlink:href="../../df/d0a/str-l_8h.html#ad74dae07179370f3c22e3f026157926e" target="_top" xlink:title="wipe a lstr_t (frees memory if needed).">
<polygon fill="white" stroke="#666666" points="1016,-161.93 961,-161.93 961,-142.68 1016,-142.68 1016,-161.93"/>
<text text-anchor="middle" x="988.5" y="-148.43" font-family="Helvetica,sans-Serif" font-size="10.00">lstr_wipe</text>
</a>
</g>
</g>
<!-- Node18&#45;&gt;Node25 -->
<g id="edge39_Node000018_Node000025" class="edge">
<title>Node18&#45;&gt;Node25</title>
<g id="a_edge39_Node000018_Node000025"><a xlink:title=" ">
<path fill="none" stroke="#63b8ff" d="M745.82,-174.68C789.27,-176.74 853.19,-177.87 908.5,-171.31 922.15,-169.69 936.86,-166.55 949.84,-163.28"/>
<polygon fill="#63b8ff" stroke="#63b8ff" points="950.49,-166.73 959.27,-160.8 948.7,-159.96 950.49,-166.73"/>
</a>
</g>
</g>
<!-- Node32 -->
<g id="Node000032" class="node">
<title>Node32</title>
<g id="a_Node000032"><a xlink:href="../../df/d0a/str-l_8h.html#a963c22b229774d4b7c106bae4011cb8e" target="_top" xlink:title="Returns whether \v s1 and \v s2 contents are equal.">
<polygon fill="white" stroke="#666666" points="874,-124.93 816,-124.93 816,-105.68 874,-105.68 874,-124.93"/>
<text text-anchor="middle" x="845" y="-111.43" font-family="Helvetica,sans-Serif" font-size="10.00">lstr_equal</text>
</a>
</g>
</g>
<!-- Node18&#45;&gt;Node32 -->
<g id="edge38_Node000018_Node000032" class="edge">
<title>Node18&#45;&gt;Node32</title>
<g id="a_edge38_Node000018_Node000032"><a xlink:title=" ">
<path fill="none" stroke="#63b8ff" d="M715.38,-161.31C732.78,-153.14 758.43,-141.63 781.5,-133.31 788.92,-130.63 796.95,-128.07 804.7,-125.77"/>
<polygon fill="#63b8ff" stroke="#63b8ff" points="805.65,-129.14 814.29,-123.01 803.71,-122.41 805.65,-129.14"/>
</a>
</g>
</g>
<!-- Node20 -->
<g id="Node000020" class="node">
<title>Node20</title>
<g id="a_Node000020"><a xlink:href="../../de/d1a/container-dlist_8h.html#a71e7667ca0e4b896923788c5851afd24" target="_top" xlink:title="Put element e between prev and next.">
<polygon fill="white" stroke="#666666" points="1021.25,-274.93 955.75,-274.93 955.75,-255.68 1021.25,-255.68 1021.25,-274.93"/>
<text text-anchor="middle" x="988.5" y="-261.43" font-family="Helvetica,sans-Serif" font-size="10.00">__dlist_add</text>
</a>
</g>
</g>
<!-- Node19&#45;&gt;Node20 -->
<g id="edge24_Node000019_Node000020" class="edge">
<title>Node19&#45;&gt;Node20</title>
<g id="a_edge24_Node000019_Node000020"><a xlink:title=" ">
<path fill="none" stroke="#63b8ff" d="M872.95,-265.31C893.05,-265.31 920.92,-265.31 944.14,-265.31"/>
<polygon fill="#63b8ff" stroke="#63b8ff" points="943.94,-268.81 953.94,-265.31 943.94,-261.81 943.94,-268.81"/>
</a>
</g>
</g>
<!-- Node23 -->
<g id="Node000023" class="node">
<title>Node23</title>
<g id="a_Node000023"><a xlink:href="../../df/d0a/str-l_8h.html#a6a200ca09358f19b13a8e297cda34869" target="_top" xlink:title="returns a constant copy of \v s.">
<polygon fill="white" stroke="#666666" points="1016.38,-95.93 960.62,-95.93 960.62,-76.68 1016.38,-76.68 1016.38,-95.93"/>
<text text-anchor="middle" x="988.5" y="-82.43" font-family="Helvetica,sans-Serif" font-size="10.00">lstr_dupc</text>
</a>
</g>
</g>
<!-- Node22&#45;&gt;Node23 -->
<g id="edge27_Node000022_Node000023" class="edge">
<title>Node22&#45;&gt;Node23</title>
<g id="a_edge27_Node000022_Node000023"><a xlink:title=" ">
<path fill="none" stroke="#63b8ff" d="M886.9,-142.22C894.21,-139.95 901.67,-137.3 908.5,-134.31 928.27,-125.64 949.08,-112.82 964.38,-102.62"/>
<polygon fill="#63b8ff" stroke="#63b8ff" points="966.02,-105.73 972.31,-97.21 962.08,-99.95 966.02,-105.73"/>
</a>
</g>
</g>
<!-- Node22&#45;&gt;Node25 -->
<g id="edge29_Node000022_Node000025" class="edge">
<title>Node22&#45;&gt;Node25</title>
<g id="a_edge29_Node000022_Node000025"><a xlink:title=" ">
<path fill="none" stroke="#63b8ff" d="M908.89,-152.31C922.65,-152.31 936.81,-152.31 949.26,-152.31"/>
<polygon fill="#63b8ff" stroke="#63b8ff" points="949.08,-155.81 959.08,-152.31 949.08,-148.81 949.08,-155.81"/>
</a>
</g>
</g>
<!-- Node24 -->
<g id="Node000024" class="node">
<title>Node24</title>
<g id="a_Node000024"><a xlink:href="../../df/d0a/str-l_8h.html#a3b4dbe9c4cc70340cba0787574dc1c5e" target="_top" xlink:title=" ">
<polygon fill="white" stroke="#666666" points="1346,-95.93 1293.25,-95.93 1293.25,-76.68 1346,-76.68 1346,-95.93"/>
<text text-anchor="middle" x="1319.62" y="-82.43" font-family="Helvetica,sans-Serif" font-size="10.00">lstr_init_</text>
</a>
</g>
</g>
<!-- Node23&#45;&gt;Node24 -->
<g id="edge28_Node000023_Node000024" class="edge">
<title>Node23&#45;&gt;Node24</title>
<g id="a_edge28_Node000023_Node000024"><a xlink:title=" ">
<path fill="none" stroke="#63b8ff" d="M1016.71,-86.31C1075.56,-86.31 1214.69,-86.31 1281.53,-86.31"/>
<polygon fill="#63b8ff" stroke="#63b8ff" points="1281.24,-89.81 1291.24,-86.31 1281.24,-82.81 1281.24,-89.81"/>
</a>
</g>
</g>
<!-- Node26 -->
<g id="Node000026" class="node">
<title>Node26</title>
<g id="a_Node000026"><a xlink:href="../../df/d0a/str-l_8h.html#a381cd831ac9616c5bea8213bb679d1ac" target="_top" xlink:title="Wipe a lstr_t (frees memory if needed).">
<polygon fill="white" stroke="#666666" points="1142.25,-151.93 1068.5,-151.93 1068.5,-132.68 1142.25,-132.68 1142.25,-151.93"/>
<text text-anchor="middle" x="1105.38" y="-138.43" font-family="Helvetica,sans-Serif" font-size="10.00">mp_lstr_wipe</text>
</a>
</g>
</g>
<!-- Node25&#45;&gt;Node26 -->
<g id="edge30_Node000025_Node000026" class="edge">
<title>Node25&#45;&gt;Node26</title>
<g id="a_edge30_Node000025_Node000026"><a xlink:title=" ">
<path fill="none" stroke="#63b8ff" d="M1016.43,-149.96C1028.45,-148.92 1042.98,-147.65 1056.74,-146.45"/>
<polygon fill="#63b8ff" stroke="#63b8ff" points="1056.88,-149.96 1066.53,-145.6 1056.27,-142.98 1056.88,-149.96"/>
</a>
</g>
</g>
<!-- Node27 -->
<g id="Node000027" class="node">
<title>Node27</title>
<g id="a_Node000027"><a xlink:href="../../de/d04/str-l_8c.html#abe2a3a71f0b4dbc7d37c59d16762b6fb" target="_top" xlink:title="lstr_copy_* helper.">
<polygon fill="white" stroke="#666666" points="1257.25,-133.93 1178.25,-133.93 1178.25,-114.68 1257.25,-114.68 1257.25,-133.93"/>
<text text-anchor="middle" x="1217.75" y="-120.43" font-family="Helvetica,sans-Serif" font-size="10.00">mp_lstr_copy_</text>
</a>
</g>
</g>
<!-- Node26&#45;&gt;Node27 -->
<g id="edge31_Node000026_Node000027" class="edge">
<title>Node26&#45;&gt;Node27</title>
<g id="a_edge31_Node000026_Node000027"><a xlink:title=" ">
<path fill="none" stroke="#63b8ff" d="M1142.52,-136.41C1150.21,-135.16 1158.46,-133.81 1166.57,-132.49"/>
<polygon fill="#63b8ff" stroke="#63b8ff" points="1167.06,-135.96 1176.37,-130.89 1165.94,-129.05 1167.06,-135.96"/>
</a>
</g>
</g>
<!-- Node27&#45;&gt;Node24 -->
<g id="edge37_Node000027_Node000024" class="edge">
<title>Node27&#45;&gt;Node24</title>
<g id="a_edge37_Node000027_Node000024"><a xlink:title=" ">
<path fill="none" stroke="#63b8ff" d="M1245.25,-114.22C1256.69,-109.87 1270.26,-104.71 1282.6,-100.02"/>
<polygon fill="#63b8ff" stroke="#63b8ff" points="1283.52,-103.41 1291.62,-96.58 1281.03,-96.87 1283.52,-103.41"/>
</a>
</g>
</g>
<!-- Node28 -->
<g id="Node000028" class="node">
<title>Node28</title>
<g id="a_Node000028"><a xlink:href="../../d9/d9a/mem_8h.html#aebbbd277e2952bdb802104671ba23ba9" target="_top" xlink:title=" ">
<polygon fill="white" stroke="#666666" points="1337,-132.93 1302.25,-132.93 1302.25,-113.68 1337,-113.68 1337,-132.93"/>
<text text-anchor="middle" x="1319.62" y="-119.43" font-family="Helvetica,sans-Serif" font-size="10.00">ifree</text>
</a>
</g>
</g>
<!-- Node27&#45;&gt;Node28 -->
<g id="edge32_Node000027_Node000028" class="edge">
<title>Node27&#45;&gt;Node28</title>
<g id="a_edge32_Node000027_Node000028"><a xlink:title=" ">
<path fill="none" stroke="#63b8ff" d="M1257.65,-123.92C1268.55,-123.81 1280.2,-123.69 1290.35,-123.59"/>
<polygon fill="#63b8ff" stroke="#63b8ff" points="1290.38,-127.09 1300.35,-123.49 1290.31,-120.09 1290.38,-127.09"/>
</a>
</g>
</g>
<!-- Node29 -->
<g id="Node000029" class="node">
<title>Node29</title>
<g id="a_Node000029"><a xlink:href="../../d8/d37/mem_8blk.html#a36b65ab346f1d0deed7b63c544c78f2b" target="_top" xlink:title=" ">
<polygon fill="white" stroke="#666666" points="1426.88,-57.93 1390.62,-57.93 1390.62,-38.68 1426.88,-38.68 1426.88,-57.93"/>
<text text-anchor="middle" x="1408.75" y="-44.43" font-family="Helvetica,sans-Serif" font-size="10.00">ipool</text>
</a>
</g>
</g>
<!-- Node28&#45;&gt;Node29 -->
<g id="edge33_Node000028_Node000029" class="edge">
<title>Node28&#45;&gt;Node29</title>
<g id="a_edge33_Node000028_Node000029"><a xlink:title=" ">
<path fill="none" stroke="#63b8ff" d="M1335.36,-113.34C1338.91,-110.81 1342.64,-108.03 1346,-105.31 1361.32,-92.89 1377.68,-77.69 1389.71,-66.11"/>
<polygon fill="#63b8ff" stroke="#63b8ff" points="1391.81,-68.95 1396.54,-59.47 1386.93,-63.93 1391.81,-68.95"/>
</a>
</g>
</g>
<!-- Node31 -->
<g id="Node000031" class="node">
<title>Node31</title>
<g id="a_Node000031"><a xlink:href="../../d8/d37/mem_8blk.html#a83c7cf203e5eef9d1a8c6c43cde3e2e5" target="_top" xlink:title=" ">
<polygon fill="white" stroke="#666666" points="1435.5,-132.93 1382,-132.93 1382,-113.68 1435.5,-113.68 1435.5,-132.93"/>
<text text-anchor="middle" x="1408.75" y="-119.43" font-family="Helvetica,sans-Serif" font-size="10.00">mp_ifree</text>
</a>
</g>
</g>
<!-- Node28&#45;&gt;Node31 -->
<g id="edge36_Node000028_Node000031" class="edge">
<title>Node28&#45;&gt;Node31</title>
<g id="a_edge36_Node000028_Node000031"><a xlink:title=" ">
<path fill="none" stroke="#63b8ff" d="M1337.42,-123.31C1346.84,-123.31 1358.99,-123.31 1370.53,-123.31"/>
<polygon fill="#63b8ff" stroke="#63b8ff" points="1370.23,-126.81 1380.23,-123.31 1370.23,-119.81 1370.23,-126.81"/>
</a>
</g>
</g>
<!-- Node29&#45;&gt;Node16 -->
<g id="edge34_Node000029_Node000016" class="edge">
<title>Node29&#45;&gt;Node16</title>
<g id="a_edge34_Node000029_Node000016"><a xlink:title=" ">
<path fill="none" stroke="#63b8ff" d="M1390.13,-40.86C1357.14,-27.61 1283.5,-1.31 1218.75,-1.31 692.62,-1.31 692.62,-1.31 692.62,-1.31 608.81,-1.31 585.24,3.92 505,-20.31 487.68,-25.54 485.86,-32.74 469,-39.31 458.37,-43.45 446.45,-46.95 435.57,-49.73"/>
<polygon fill="#63b8ff" stroke="#63b8ff" points="435.06,-46.25 426.17,-52.01 436.72,-53.06 435.06,-46.25"/>
</a>
</g>
</g>
<!-- Node30 -->
<g id="Node000030" class="node">
<title>Node30</title>
<g id="a_Node000030"><a xlink:href="../../d1/d10/mem-stack_8h.html#a1d0e2a29f86dc033a02e50484b527fd0" target="_top" xlink:title=" ">
<polygon fill="white" stroke="#666666" points="1513.75,-57.93 1471.5,-57.93 1471.5,-38.68 1513.75,-38.68 1513.75,-57.93"/>
<text text-anchor="middle" x="1492.62" y="-44.43" font-family="Helvetica,sans-Serif" font-size="10.00">t_pool</text>
</a>
</g>
</g>
<!-- Node29&#45;&gt;Node30 -->
<g id="edge35_Node000029_Node000030" class="edge">
<title>Node29&#45;&gt;Node30</title>
<g id="a_edge35_Node000029_Node000030"><a xlink:title=" ">
<path fill="none" stroke="#63b8ff" d="M1427.11,-48.31C1436.56,-48.31 1448.54,-48.31 1459.61,-48.31"/>
<polygon fill="#63b8ff" stroke="#63b8ff" points="1459.59,-51.81 1469.59,-48.31 1459.59,-44.81 1459.59,-51.81"/>
</a>
</g>
</g>
<!-- Node35&#45;&gt;Node23 -->
<g id="edge46_Node000035_Node000023" class="edge">
<title>Node35&#45;&gt;Node23</title>
<g id="a_edge46_Node000035_Node000023"><a xlink:title=" ">
<path fill="none" stroke="#63b8ff" d="M588.43,-77.05C666.25,-78.86 864.97,-83.47 949.02,-85.42"/>
<polygon fill="#63b8ff" stroke="#63b8ff" points="948.74,-88.91 958.82,-85.64 948.9,-81.91 948.74,-88.91"/>
</a>
</g>
</g>
<!-- Node36 -->
<g id="Node000036" class="node">
<title>Node36</title>
<g id="a_Node000036"><a xlink:href="../../d1/dc0/group__log.html#ga168a6f17b248f61f7d25a17d58d04e36" target="_top" xlink:title=" ">
<polygon fill="white" stroke="#666666" points="738,-48.93 649.25,-48.93 649.25,-29.68 738,-29.68 738,-48.93"/>
<text text-anchor="middle" x="693.62" y="-35.43" font-family="Helvetica,sans-Serif" font-size="10.00">logger_has_level</text>
</a>
</g>
</g>
<!-- Node35&#45;&gt;Node36 -->
<g id="edge43_Node000035_Node000036" class="edge">
<title>Node35&#45;&gt;Node36</title>
<g id="a_edge43_Node000035_Node000036"><a xlink:title=" ">
<path fill="none" stroke="#63b8ff" d="M588.32,-67.63C605.07,-63.08 625.94,-57.42 644.6,-52.35"/>
<polygon fill="#63b8ff" stroke="#63b8ff" points="645.38,-55.76 654.11,-49.77 643.55,-49.01 645.38,-55.76"/>
</a>
</g>
</g>
<!-- Node37 -->
<g id="Node000037" class="node">
<title>Node37</title>
<g id="a_Node000037"><a xlink:href="../../d1/dc0/group__log.html#gaf388752b988541da0abeceecdf96e6b3" target="_top" xlink:title=" ">
<polygon fill="white" stroke="#666666" points="888.25,-48.93 801.75,-48.93 801.75,-29.68 888.25,-29.68 888.25,-48.93"/>
<text text-anchor="middle" x="845" y="-35.43" font-family="Helvetica,sans-Serif" font-size="10.00">logger_get_level</text>
</a>
</g>
</g>
<!-- Node36&#45;&gt;Node37 -->
<g id="edge44_Node000036_Node000037" class="edge">
<title>Node36&#45;&gt;Node37</title>
<g id="a_edge44_Node000036_Node000037"><a xlink:title=" ">
<path fill="none" stroke="#63b8ff" d="M738.23,-39.31C754.39,-39.31 772.92,-39.31 789.9,-39.31"/>
<polygon fill="#63b8ff" stroke="#63b8ff" points="789.86,-42.81 799.86,-39.31 789.86,-35.81 789.86,-42.81"/>
</a>
</g>
</g>
<!-- Node38 -->
<g id="Node000038" class="node">
<title>Node38</title>
<g id="a_Node000038"><a xlink:href="../../d1/dc0/group__log.html#ga93cbd623096e1704532d15b3eb30e42f" target="_top" xlink:title=" ">
<polygon fill="white" stroke="#666666" points="1032.5,-48.93 944.5,-48.93 944.5,-29.68 1032.5,-29.68 1032.5,-48.93"/>
<text text-anchor="middle" x="988.5" y="-35.43" font-family="Helvetica,sans-Serif" font-size="10.00">__logger_refresh</text>
</a>
</g>
</g>
<!-- Node37&#45;&gt;Node38 -->
<g id="edge45_Node000037_Node000038" class="edge">
<title>Node37&#45;&gt;Node38</title>
<g id="a_edge45_Node000037_Node000038"><a xlink:title=" ">
<path fill="none" stroke="#63b8ff" d="M888.45,-39.31C902.33,-39.31 917.94,-39.31 932.6,-39.31"/>
<polygon fill="#63b8ff" stroke="#63b8ff" points="932.58,-42.81 942.58,-39.31 932.58,-35.81 932.58,-42.81"/>
</a>
</g>
</g>
</g>
</svg>

<g id="navigator" transform="translate(0 0)" fill="#404254">
  <rect fill="#f2f5e9" fill-opacity="0.5" stroke="#606060" stroke-width=".5" x="0" y="0" width="60" height="60"/>
  <use id="zoomplus" xlink:href="#zoomPlus" x="17" y="9" onmousedown="handleZoom(evt,'in')"/>
  <use id="zoomminus" xlink:href="#zoomMin" x="42" y="9" onmousedown="handleZoom(evt,'out')"/>
  <use id="reset" xlink:href="#resetDef" x="30" y="36" onmousedown="handleReset()"/>
   <use id="arrowup" xlink:href="#arrowUp" x="0" y="0" onmousedown="handlePan(0,-1)"/>
  <use id="arrowright" xlink:href="#arrowRight" x="0" y="0" onmousedown="handlePan(1,0)"/>
  <use id="arrowdown" xlink:href="#arrowDown" x="0" y="0" onmousedown="handlePan(0,1)"/>
  <use id="arrowleft" xlink:href="#arrowLeft" x="0" y="0" onmousedown="handlePan(-1,0)"/>
</g>
<svg viewBox="0 0 15 15" width="100%" height="30px" preserveAspectRatio="xMaxYMin meet">
 <g id="arrow_out" transform="scale(0.3 0.3)">
  <a xlink:href="qpage_8h_a57d5e6bb1c0d7b9b2ee23313eac99792_cgraph_org.svg" target="_base">
   <rect id="button" ry="5" rx="5" y="6" x="6" height="38" width="38"
        fill="#f2f5e9" fill-opacity="0.5" stroke="#606060" stroke-width="1.0"/>
   <path id="arrow"
     d="M 11.500037,31.436501 C 11.940474,20.09759 22.043105,11.32322 32.158766,21.979434 L 37.068811,17.246167 C 37.068811,17.246167 37.088388,32 37.088388,32 L 22.160133,31.978069 C 22.160133,31.978069 26.997745,27.140456 26.997745,27.140456 C 18.528582,18.264221 13.291696,25.230495 11.500037,31.436501 z"
     style="fill:#404040;"/>
  </a>
 </g>
</svg>

<style type='text/css'>
<![CDATA[
[data-mouse-over-selected='false'] { opacity: 0.7; }
[data-mouse-over-selected='true']  { opacity: 1.0; }
]]>
</style>
<script type="application/ecmascript"><![CDATA[
document.addEventListener('DOMContentLoaded', (event) => {
  highlightEdges();
  highlightAdjacentNodes();
});
]]></script>
</svg>
