<?xml version="1.0" encoding="UTF-8" standalone="no"?>
<!DOCTYPE svg PUBLIC "-//W3C//DTD SVG 1.1//EN"
 "http://www.w3.org/Graphics/SVG/1.1/DTD/svg11.dtd">
<!-- Generated by graphviz version 9.0.0 (20230911.1827)
 -->
<!-- Title: log_file_find_last_date Pages: 1 -->
<svg width="472pt" height="27pt"
 viewBox="0.00 0.00 471.75 27.25" xmlns="http://www.w3.org/2000/svg" xmlns:xlink="http://www.w3.org/1999/xlink">
<g id="graph0" class="graph" transform="scale(1 1) rotate(0) translate(4 23.25)">
<title>log_file_find_last_date</title>
<!-- Node1 -->
<g id="Node000001" class="node">
<title>Node1</title>
<g id="a_Node000001"><a xlink:title=" ">
<polygon fill="#999999" stroke="#666666" points="111.25,-19.25 0,-19.25 0,0 111.25,0 111.25,-19.25"/>
<text text-anchor="middle" x="55.62" y="-5.75" font-family="Helvetica,sans-Serif" font-size="10.00">log_file_find_last_date</text>
</a>
</g>
</g>
<!-- Node2 -->
<g id="Node000002" class="node">
<title>Node2</title>
<g id="a_Node000002"><a xlink:href="../../db/da8/file-log_8blk.html#a1905f98f28c7ab872ff53d40b100e63b" target="_top" xlink:title="Get the creation timestamp of a log file from his full path.">
<polygon fill="white" stroke="#666666" points="261.5,-19.25 147.25,-19.25 147.25,0 261.5,0 261.5,-19.25"/>
<text text-anchor="middle" x="204.38" y="-5.75" font-family="Helvetica,sans-Serif" font-size="10.00">log_file_get_file_stamp</text>
</a>
</g>
</g>
<!-- Node1&#45;&gt;Node2 -->
<g id="edge1_Node000001_Node000002" class="edge">
<title>Node1&#45;&gt;Node2</title>
<g id="a_edge1_Node000001_Node000002"><a xlink:title=" ">
<path fill="none" stroke="#63b8ff" d="M111.69,-9.62C119.54,-9.62 127.68,-9.62 135.74,-9.62"/>
<polygon fill="#63b8ff" stroke="#63b8ff" points="135.51,-13.13 145.51,-9.63 135.51,-6.13 135.51,-13.13"/>
</a>
</g>
</g>
<!-- Node3 -->
<g id="Node000003" class="node">
<title>Node3</title>
<g id="a_Node000003"><a xlink:href="../../d8/d17/str-num_8c.html#ae846bdcb22ccf7e1a1a22e9ad94c87ee" target="_top" xlink:title=" ">
<polygon fill="white" stroke="#666666" points="351,-19.25 297.5,-19.25 297.5,0 351,0 351,-19.25"/>
<text text-anchor="middle" x="324.25" y="-5.75" font-family="Helvetica,sans-Serif" font-size="10.00">memtoip</text>
</a>
</g>
</g>
<!-- Node2&#45;&gt;Node3 -->
<g id="edge2_Node000002_Node000003" class="edge">
<title>Node2&#45;&gt;Node3</title>
<g id="a_edge2_Node000002_Node000003"><a xlink:title=" ">
<path fill="none" stroke="#63b8ff" d="M261.9,-9.62C269.96,-9.62 278.09,-9.62 285.67,-9.62"/>
<polygon fill="#63b8ff" stroke="#63b8ff" points="285.53,-13.13 295.53,-9.63 285.53,-6.13 285.53,-13.13"/>
</a>
</g>
</g>
<!-- Node4 -->
<g id="Node000004" class="node">
<title>Node4</title>
<g id="a_Node000004"><a xlink:href="../../d8/d17/str-num_8c.html#a8450512025b2b58bbdfdc7d5fbadbc99" target="_top" xlink:title=" ">
<polygon fill="white" stroke="#666666" points="463.75,-19.25 387,-19.25 387,0 463.75,0 463.75,-19.25"/>
<text text-anchor="middle" x="425.38" y="-5.75" font-family="Helvetica,sans-Serif" font-size="10.00">memtoip_impl</text>
</a>
</g>
</g>
<!-- Node3&#45;&gt;Node4 -->
<g id="edge3_Node000003_Node000004" class="edge">
<title>Node3&#45;&gt;Node4</title>
<g id="a_edge3_Node000003_Node000004"><a xlink:title=" ">
<path fill="none" stroke="#63b8ff" d="M351.29,-9.62C358.62,-9.62 366.85,-9.62 375.06,-9.62"/>
<polygon fill="#63b8ff" stroke="#63b8ff" points="375.06,-13.13 385.06,-9.63 375.06,-6.13 375.06,-13.13"/>
</a>
</g>
</g>
</g>
</svg>
