<?xml version="1.0" encoding="UTF-8" standalone="no"?>
<!DOCTYPE svg PUBLIC "-//W3C//DTD SVG 1.1//EN"
 "http://www.w3.org/Graphics/SVG/1.1/DTD/svg11.dtd">
<!-- Generated by graphviz version 9.0.0 (20230911.1827)
 -->
<!-- Title: log_file_call_cb Pages: 1 -->
<svg width="1053pt" height="162pt"
 viewBox="0.00 0.00 1053.25 162.25" xmlns="http://www.w3.org/2000/svg" xmlns:xlink="http://www.w3.org/1999/xlink">
<g id="graph0" class="graph" transform="scale(1 1) rotate(0) translate(4 158.25)">
<title>log_file_call_cb</title>
<!-- Node1 -->
<g id="Node000001" class="node">
<title>Node1</title>
<g id="a_Node000001"><a xlink:title=" ">
<polygon fill="#999999" stroke="#666666" points="1045.25,-97.25 963.25,-97.25 963.25,-78 1045.25,-78 1045.25,-97.25"/>
<text text-anchor="middle" x="1004.25" y="-83.75" font-family="Helvetica,sans-Serif" font-size="10.00">log_file_call_cb</text>
</a>
</g>
</g>
<!-- Node2 -->
<g id="Node000002" class="node">
<title>Node2</title>
<g id="a_Node000002"><a xlink:href="../../db/da8/file-log_8blk.html#ae941241f00b8bf0a4220af6619f56cef" target="_top" xlink:title=" ">
<polygon fill="white" stroke="#666666" points="927.25,-78.25 849.75,-78.25 849.75,-59 927.25,-59 927.25,-78.25"/>
<text text-anchor="middle" x="888.5" y="-64.75" font-family="Helvetica,sans-Serif" font-size="10.00">log_delete_file</text>
</a>
</g>
</g>
<!-- Node1&#45;&gt;Node2 -->
<g id="edge1_Node000001_Node000002" class="edge">
<title>Node1&#45;&gt;Node2</title>
<g id="a_edge1_Node000001_Node000002"><a xlink:title=" ">
<path fill="none" stroke="#63b8ff" d="M951.55,-78.99C943.46,-77.64 935.22,-76.26 927.51,-74.97"/>
<polygon fill="#63b8ff" stroke="#63b8ff" points="950.89,-82.43 961.33,-80.62 952.05,-75.52 950.89,-82.43"/>
</a>
</g>
</g>
<!-- Node4 -->
<g id="Node000004" class="node">
<title>Node4</title>
<g id="a_Node000004"><a xlink:href="../../db/da8/file-log_8blk.html#afd7ee1bc7a72c00ed491a88f661b602e" target="_top" xlink:title=" ">
<polygon fill="white" stroke="#666666" points="670.25,-87.25 574.75,-87.25 574.75,-68 670.25,-68 670.25,-87.25"/>
<text text-anchor="middle" x="622.5" y="-73.75" font-family="Helvetica,sans-Serif" font-size="10.00">log_file_open_new</text>
</a>
</g>
</g>
<!-- Node1&#45;&gt;Node4 -->
<g id="edge16_Node000001_Node000004" class="edge">
<title>Node1&#45;&gt;Node4</title>
<g id="a_edge16_Node000001_Node000004"><a xlink:title=" ">
<path fill="none" stroke="#63b8ff" d="M951.55,-89.51C892.25,-91.23 792.14,-92.8 706.25,-87.62 694.69,-86.93 682.28,-85.69 670.67,-84.32"/>
<polygon fill="#63b8ff" stroke="#63b8ff" points="951.45,-93.01 961.34,-89.21 951.24,-86.01 951.45,-93.01"/>
</a>
</g>
</g>
<!-- Node7 -->
<g id="Node000007" class="node">
<title>Node7</title>
<g id="a_Node000007"><a xlink:href="../../db/da8/file-log_8blk.html#aa1eabb6ae4e1887f9dce759c17c5b5d8" target="_top" xlink:title=" ">
<polygon fill="white" stroke="#666666" points="538.75,-55.25 457.5,-55.25 457.5,-36 538.75,-36 538.75,-55.25"/>
<text text-anchor="middle" x="498.12" y="-41.75" font-family="Helvetica,sans-Serif" font-size="10.00">log_file_rotate_</text>
</a>
</g>
</g>
<!-- Node1&#45;&gt;Node7 -->
<g id="edge17_Node000001_Node000007" class="edge">
<title>Node1&#45;&gt;Node7</title>
<g id="a_edge17_Node000001_Node000007"><a xlink:title=" ">
<path fill="none" stroke="#63b8ff" d="M978.73,-71.77C964.35,-63.42 945.48,-54.02 927.25,-49.62 787.97,-16.06 615.72,-30.77 539.11,-40.09"/>
<polygon fill="#63b8ff" stroke="#63b8ff" points="976.66,-74.62 987.03,-76.8 980.29,-68.63 976.66,-74.62"/>
</a>
</g>
</g>
<!-- Node15 -->
<g id="Node000015" class="node">
<title>Node15</title>
<g id="a_Node000015"><a xlink:href="../../db/da8/file-log_8blk.html#a60c9f888fb4dd891725490be7ceaf24f" target="_top" xlink:title=" ">
<polygon fill="white" stroke="#666666" points="797.25,-154.25 722.75,-154.25 722.75,-135 797.25,-135 797.25,-154.25"/>
<text text-anchor="middle" x="760" y="-140.75" font-family="Helvetica,sans-Serif" font-size="10.00">log_file_close</text>
</a>
</g>
</g>
<!-- Node1&#45;&gt;Node15 -->
<g id="edge14_Node000001_Node000015" class="edge">
<title>Node1&#45;&gt;Node15</title>
<g id="a_edge14_Node000001_Node000015"><a xlink:title=" ">
<path fill="none" stroke="#63b8ff" d="M973.75,-102.62C959.94,-109.06 943.08,-116.13 927.25,-120.62 883.63,-133 831.66,-139.2 797.58,-142.16"/>
<polygon fill="#63b8ff" stroke="#63b8ff" points="975.23,-105.79 982.73,-98.3 972.2,-99.48 975.23,-105.79"/>
</a>
</g>
</g>
<!-- Node3 -->
<g id="Node000003" class="node">
<title>Node3</title>
<g id="a_Node000003"><a xlink:href="../../db/da8/file-log_8blk.html#a5080bd91b3c4bf843ab06d86b536e542" target="_top" xlink:title=" ">
<polygon fill="white" stroke="#666666" points="813.75,-78.25 706.25,-78.25 706.25,-59 813.75,-59 813.75,-78.25"/>
<text text-anchor="middle" x="760" y="-64.75" font-family="Helvetica,sans-Serif" font-size="10.00">log_check_invariants</text>
</a>
</g>
</g>
<!-- Node2&#45;&gt;Node3 -->
<g id="edge2_Node000002_Node000003" class="edge">
<title>Node2&#45;&gt;Node3</title>
<g id="a_edge2_Node000002_Node000003"><a xlink:title=" ">
<path fill="none" stroke="#63b8ff" d="M838.17,-68.62C830.21,-68.62 821.94,-68.62 813.89,-68.62"/>
<polygon fill="#63b8ff" stroke="#63b8ff" points="838.03,-72.13 848.03,-68.63 838.03,-65.13 838.03,-72.13"/>
</a>
</g>
</g>
<!-- Node3&#45;&gt;Node4 -->
<g id="edge3_Node000003_Node000004" class="edge">
<title>Node3&#45;&gt;Node4</title>
<g id="a_edge3_Node000003_Node000004"><a xlink:title=" ">
<path fill="none" stroke="#63b8ff" d="M694.44,-72.91C686.32,-73.45 678.13,-74 670.35,-74.51"/>
<polygon fill="#63b8ff" stroke="#63b8ff" points="694.58,-76.41 704.33,-72.26 694.12,-69.43 694.58,-76.41"/>
</a>
</g>
</g>
<!-- Node5 -->
<g id="Node000005" class="node">
<title>Node5</title>
<g id="a_Node000005"><a xlink:href="../../db/da8/file-log_8blk.html#a07fef4953498f74c6154aa2a84a8cb22" target="_top" xlink:title="Open a log file.">
<polygon fill="white" stroke="#666666" points="534.25,-92.25 462,-92.25 462,-73 534.25,-73 534.25,-92.25"/>
<text text-anchor="middle" x="498.12" y="-78.75" font-family="Helvetica,sans-Serif" font-size="10.00">log_file_open</text>
</a>
</g>
</g>
<!-- Node4&#45;&gt;Node5 -->
<g id="edge4_Node000004_Node000005" class="edge">
<title>Node4&#45;&gt;Node5</title>
<g id="a_edge4_Node000004_Node000005"><a xlink:title=" ">
<path fill="none" stroke="#63b8ff" d="M563.23,-80.01C553.5,-80.4 543.68,-80.8 534.75,-81.17"/>
<polygon fill="#63b8ff" stroke="#63b8ff" points="563.18,-83.51 573.02,-79.61 562.89,-76.52 563.18,-83.51"/>
</a>
</g>
</g>
<!-- Node4&#45;&gt;Node7 -->
<g id="edge6_Node000004_Node000007" class="edge">
<title>Node4&#45;&gt;Node7</title>
<g id="a_edge6_Node000004_Node000007"><a xlink:title=" ">
<path fill="none" stroke="#63b8ff" d="M571.66,-64.59C560.3,-61.62 548.39,-58.51 537.59,-55.68"/>
<polygon fill="#63b8ff" stroke="#63b8ff" points="570.76,-67.97 581.32,-67.12 572.53,-61.2 570.76,-67.97"/>
</a>
</g>
</g>
<!-- Node6 -->
<g id="Node000006" class="node">
<title>Node6</title>
<g id="a_Node000006"><a xlink:href="../../db/da8/file-log_8blk.html#ac9997f2839a3532fe5a7c59b77f145ef" target="_top" xlink:title="Creates a log file from a configuration object, and opens it.">
<polygon fill="white" stroke="#666666" points="421.5,-120.25 300.5,-120.25 300.5,-101 421.5,-101 421.5,-120.25"/>
<text text-anchor="middle" x="361" y="-106.75" font-family="Helvetica,sans-Serif" font-size="10.00">log_file_create_from_iop</text>
</a>
</g>
</g>
<!-- Node5&#45;&gt;Node6 -->
<g id="edge5_Node000005_Node000006" class="edge">
<title>Node5&#45;&gt;Node6</title>
<g id="a_edge5_Node000005_Node000006"><a xlink:title=" ">
<path fill="none" stroke="#63b8ff" d="M450.65,-92.26C437.76,-94.93 423.74,-97.83 410.73,-100.53"/>
<polygon fill="#63b8ff" stroke="#63b8ff" points="451.06,-95.75 460.14,-90.29 449.64,-88.89 451.06,-95.75"/>
</a>
</g>
</g>
<!-- Node8 -->
<g id="Node000008" class="node">
<title>Node8</title>
<g id="a_Node000008"><a xlink:href="../../db/da8/file-log_8blk.html#af691a940781675fe1b40fdf41d24f230" target="_top" xlink:title=" ">
<polygon fill="white" stroke="#666666" points="406.12,-74.25 315.88,-74.25 315.88,-55 406.12,-55 406.12,-74.25"/>
<text text-anchor="middle" x="361" y="-60.75" font-family="Helvetica,sans-Serif" font-size="10.00">log_check_rotate</text>
</a>
</g>
</g>
<!-- Node7&#45;&gt;Node8 -->
<g id="edge7_Node000007_Node000008" class="edge">
<title>Node7&#45;&gt;Node8</title>
<g id="a_edge7_Node000007_Node000008"><a xlink:title=" ">
<path fill="none" stroke="#63b8ff" d="M446.08,-52.8C432.97,-54.65 418.99,-56.61 406.26,-58.4"/>
<polygon fill="#63b8ff" stroke="#63b8ff" points="446.4,-56.29 455.82,-51.43 445.43,-49.36 446.4,-56.29"/>
</a>
</g>
</g>
<!-- Node14 -->
<g id="Node000014" class="node">
<title>Node14</title>
<g id="a_Node000014"><a xlink:href="../../db/da8/file-log_8blk.html#a8ce89c3f10c656834b18a9ce5d3890c2" target="_top" xlink:title=" ">
<polygon fill="white" stroke="#666666" points="399,-37.25 323,-37.25 323,-18 399,-18 399,-37.25"/>
<text text-anchor="middle" x="361" y="-23.75" font-family="Helvetica,sans-Serif" font-size="10.00">log_file_rotate</text>
</a>
</g>
</g>
<!-- Node7&#45;&gt;Node14 -->
<g id="edge13_Node000007_Node000014" class="edge">
<title>Node7&#45;&gt;Node14</title>
<g id="a_edge13_Node000007_Node000014"><a xlink:title=" ">
<path fill="none" stroke="#63b8ff" d="M446.22,-38.84C430.61,-36.76 413.73,-34.52 399.21,-32.58"/>
<polygon fill="#63b8ff" stroke="#63b8ff" points="445.44,-42.27 455.81,-40.12 446.36,-35.33 445.44,-42.27"/>
</a>
</g>
</g>
<!-- Node9 -->
<g id="Node000009" class="node">
<title>Node9</title>
<g id="a_Node000009"><a xlink:href="../../db/da8/file-log_8blk.html#a242c917fdef070824408024eb4a7e4d1" target="_top" xlink:title="Re&#45;enable file rotations after &#39;log_file_disable_rotation&#39; has been called and trigger a rotation if ...">
<polygon fill="white" stroke="#666666" points="264.5,-130.25 147.25,-130.25 147.25,-111 264.5,-111 264.5,-130.25"/>
<text text-anchor="middle" x="205.88" y="-116.75" font-family="Helvetica,sans-Serif" font-size="10.00">log_file_enable_rotation</text>
</a>
</g>
</g>
<!-- Node8&#45;&gt;Node9 -->
<g id="edge8_Node000008_Node000009" class="edge">
<title>Node8&#45;&gt;Node9</title>
<g id="a_edge8_Node000008_Node000009"><a xlink:title=" ">
<path fill="none" stroke="#63b8ff" d="M325.64,-79.03C307.57,-86.42 284.97,-95.37 264.5,-102.62 256.79,-105.36 248.44,-108.1 240.54,-110.58"/>
<polygon fill="#63b8ff" stroke="#63b8ff" points="326.94,-82.28 334.85,-75.23 324.27,-75.81 326.94,-82.28"/>
</a>
</g>
</g>
<!-- Node11 -->
<g id="Node000011" class="node">
<title>Node11</title>
<g id="a_Node000011"><a xlink:href="../../db/da8/file-log_8blk.html#af0c37fd6a0bbee39669d78ee929fbe82" target="_top" xlink:title=" ">
<polygon fill="white" stroke="#666666" points="235.25,-93.25 176.5,-93.25 176.5,-74 235.25,-74 235.25,-93.25"/>
<text text-anchor="middle" x="205.88" y="-79.75" font-family="Helvetica,sans-Serif" font-size="10.00">log_fprintf</text>
</a>
</g>
</g>
<!-- Node8&#45;&gt;Node11 -->
<g id="edge10_Node000008_Node000011" class="edge">
<title>Node8&#45;&gt;Node11</title>
<g id="a_edge10_Node000008_Node000011"><a xlink:title=" ">
<path fill="none" stroke="#63b8ff" d="M304.52,-71.51C281.16,-74.41 254.98,-77.66 235.6,-80.06"/>
<polygon fill="#63b8ff" stroke="#63b8ff" points="304.71,-75.01 314.21,-70.31 303.85,-68.07 304.71,-75.01"/>
</a>
</g>
</g>
<!-- Node12 -->
<g id="Node000012" class="node">
<title>Node12</title>
<g id="a_Node000012"><a xlink:href="../../db/da8/file-log_8blk.html#aba54e4e7e1f5b88148e9fd8e0a3447ea" target="_top" xlink:title=" ">
<polygon fill="white" stroke="#666666" points="234.88,-56.25 176.88,-56.25 176.88,-37 234.88,-37 234.88,-56.25"/>
<text text-anchor="middle" x="205.88" y="-42.75" font-family="Helvetica,sans-Serif" font-size="10.00">log_fwrite</text>
</a>
</g>
</g>
<!-- Node8&#45;&gt;Node12 -->
<g id="edge11_Node000008_Node000012" class="edge">
<title>Node8&#45;&gt;Node12</title>
<g id="a_edge11_Node000008_Node000012"><a xlink:title=" ">
<path fill="none" stroke="#63b8ff" d="M304.44,-58.09C280.92,-55.33 254.54,-52.23 235.14,-49.95"/>
<polygon fill="#63b8ff" stroke="#63b8ff" points="303.87,-61.55 314.21,-59.24 304.68,-54.6 303.87,-61.55"/>
</a>
</g>
</g>
<!-- Node13 -->
<g id="Node000013" class="node">
<title>Node13</title>
<g id="a_Node000013"><a xlink:href="../../db/da8/file-log_8blk.html#a3ec4414d6a8bde342cdcf39036e01ead" target="_top" xlink:title=" ">
<polygon fill="white" stroke="#666666" points="237.5,-19.25 174.25,-19.25 174.25,0 237.5,0 237.5,-19.25"/>
<text text-anchor="middle" x="205.88" y="-5.75" font-family="Helvetica,sans-Serif" font-size="10.00">log_fwritev</text>
</a>
</g>
</g>
<!-- Node8&#45;&gt;Node13 -->
<g id="edge12_Node000008_Node000013" class="edge">
<title>Node8&#45;&gt;Node13</title>
<g id="a_edge12_Node000008_Node000013"><a xlink:title=" ">
<path fill="none" stroke="#63b8ff" d="M312.21,-51.06C308.21,-49.65 304.27,-48.17 300.5,-46.62 283.76,-39.75 281.2,-34.57 264.5,-27.62 255.98,-24.08 246.51,-20.85 237.75,-18.13"/>
<polygon fill="#63b8ff" stroke="#63b8ff" points="310.77,-54.26 321.36,-54.09 312.97,-47.62 310.77,-54.26"/>
</a>
</g>
</g>
<!-- Node10 -->
<g id="Node000010" class="node">
<title>Node10</title>
<g id="a_Node000010"><a xlink:href="../../db/da8/file-log_8blk.html#aa74655031af03892b62093d9b1938ce9" target="_top" xlink:title=" ">
<polygon fill="white" stroke="#666666" points="111.25,-130.25 0,-130.25 0,-111 111.25,-111 111.25,-130.25"/>
<text text-anchor="middle" x="55.62" y="-116.75" font-family="Helvetica,sans-Serif" font-size="10.00">log_fwrite_transaction</text>
</a>
</g>
</g>
<!-- Node9&#45;&gt;Node10 -->
<g id="edge9_Node000009_Node000010" class="edge">
<title>Node9&#45;&gt;Node10</title>
<g id="a_edge9_Node000009_Node000010"><a xlink:title=" ">
<path fill="none" stroke="#63b8ff" d="M135.75,-120.62C127.63,-120.62 119.43,-120.62 111.54,-120.62"/>
<polygon fill="#63b8ff" stroke="#63b8ff" points="135.62,-124.13 145.62,-120.63 135.62,-117.13 135.62,-124.13"/>
</a>
</g>
</g>
<!-- Node15&#45;&gt;Node6 -->
<g id="edge15_Node000015_Node000006" class="edge">
<title>Node15&#45;&gt;Node6</title>
<g id="a_edge15_Node000015_Node000006"><a xlink:title=" ">
<path fill="none" stroke="#63b8ff" d="M711.31,-140.54C638.83,-134.33 501.02,-122.53 421.89,-115.75"/>
<polygon fill="#63b8ff" stroke="#63b8ff" points="710.59,-143.99 720.85,-141.36 711.19,-137.02 710.59,-143.99"/>
</a>
</g>
</g>
</g>
</svg>
