<?xml version="1.0" encoding="UTF-8" standalone="no"?>
<!DOCTYPE svg PUBLIC "-//W3C//DTD SVG 1.1//EN"
 "http://www.w3.org/Graphics/SVG/1.1/DTD/svg11.dtd">
<!-- Generated by graphviz version 9.0.0 (20230911.1827)
 -->
<!-- Title: has_help Pages: 1 -->
<!--zoomable 271 -->

<svg id="main" version="1.1" xmlns="http://www.w3.org/2000/svg" xmlns:xlink="http://www.w3.org/1999/xlink" xml:space="preserve" onload="init(evt)">
<style type="text/css"><![CDATA[
.node, .edge {opacity: 0.7;}
.node.selected, .edge.selected {opacity: 1;}
.edge:hover path { stroke: red; }
.edge:hover polygon { stroke: red; fill: red; }
]]></style>

<defs>
  <circle id="rim" cx="0" cy="0" r="7"/>
  <circle id="rim2" cx="0" cy="0" r="3.5"/>
  <g id="zoomPlus">
    <use xlink:href="#rim" fill="#404040"><set attributeName="fill" to="#808080" begin="zoomplus.mouseover" end="zoomplus.mouseout"/></use>
    <path d="M-4,0h8M0,-4v8" fill="none" stroke="white" stroke-width="1.5" pointer-events="none"/>
  </g>
  <g id="zoomMin">
    <use xlink:href="#rim" fill="#404040"><set attributeName="fill" to="#808080" begin="zoomminus.mouseover" end="zoomminus.mouseout"/></use>
    <path d="M-4,0h8" fill="none" stroke="white" stroke-width="1.5" pointer-events="none"/>
  </g>
  <g id="arrowUp" transform="translate(30 24)">
    <use xlink:href="#rim"/>
    <path pointer-events="none" fill="none" stroke="white" stroke-width="1.5" d="M0,-3.0v7 M-2.5,-0.5L0,-3.0L2.5,-0.5"/>
  </g>
  <g id="arrowRight" transform="rotate(90) translate(36 -43)">
    <use xlink:href="#rim"/>
    <path pointer-events="none" fill="none" stroke="white" stroke-width="1.5" d="M0,-3.0v7 M-2.5,-0.5L0,-3.0L2.5,-0.5"/>
  </g>
  <g id="arrowDown" transform="rotate(180) translate(-30 -48)">
    <use xlink:href="#rim"/>
    <path pointer-events="none" fill="none" stroke="white" stroke-width="1.5" d="M0,-3.0v7 M-2.5,-0.5L0,-3.0L2.5,-0.5"/>
  </g>
  <g id="arrowLeft" transform="rotate(270) translate(-36 17)">
    <use xlink:href="#rim"/>
    <path pointer-events="none" fill="none" stroke="white" stroke-width="1.5" d="M0,-3.0v7 M-2.5,-0.5L0,-3.0L2.5,-0.5"/>
  </g>
  <g id="resetDef">
    <use xlink:href="#rim2" fill="#404040"><set attributeName="fill" to="#808080" begin="reset.mouseover" end="reset.mouseout"/></use>
  </g>
</defs>
<script type="application/ecmascript">
var viewWidth = 1200;
var viewHeight = 271;
var sectionId = 'dynsection-9';
</script>
<script type="application/ecmascript" xlink:href="../../svg.min.js"/>
<svg id="graph" class="graph">
<g id="viewport">
<title>has_help</title>
<!-- Node1 -->
<g id="Node000001" class="node">
<title>Node1</title>
<g id="a_Node000001"><a xlink:title=" ">
<polygon fill="#999999" stroke="#666666" points="1191.75,-134.49 1136.75,-134.49 1136.75,-115.24 1191.75,-115.24 1191.75,-134.49"/>
<text text-anchor="middle" x="1164.25" y="-120.99" font-family="Helvetica,sans-Serif" font-size="10.00">has_help</text>
</a>
</g>
</g>
<!-- Node2 -->
<g id="Node000002" class="node">
<title>Node2</title>
<g id="a_Node000002"><a xlink:href="../../d3/d7b/iopc-lang-c_8blk.html#a9d449ff27ae1a55122242457010da205" target="_top" xlink:title="Dump the attributes table associated to a given object.">
<polygon fill="white" stroke="#666666" points="924.25,-219.49 815.25,-219.49 815.25,-200.24 924.25,-200.24 924.25,-219.49"/>
<text text-anchor="middle" x="869.75" y="-205.99" font-family="Helvetica,sans-Serif" font-size="10.00">iopc_dump_attr_table</text>
</a>
</g>
</g>
<!-- Node1&#45;&gt;Node2 -->
<g id="edge1_Node000001_Node000002" class="edge">
<title>Node1&#45;&gt;Node2</title>
<g id="a_edge1_Node000001_Node000002"><a xlink:title=" ">
<path fill="none" stroke="#63b8ff" d="M1149.17,-143.49C1137.73,-157.13 1120.32,-174.78 1100.75,-183.86 1044.62,-209.92 972.79,-214.03 924.46,-213.18"/>
<polygon fill="#63b8ff" stroke="#63b8ff" points="1151.63,-146.02 1155.14,-136.02 1146.16,-141.64 1151.63,-146.02"/>
</a>
</g>
</g>
<!-- Node10 -->
<g id="Node000010" class="node">
<title>Node10</title>
<g id="a_Node000010"><a xlink:href="../../d3/d7b/iopc-lang-c_8blk.html#a9561a7ae07b731d59a3057073697f021" target="_top" xlink:title=" ">
<polygon fill="white" stroke="#666666" points="772.5,-257.49 653.75,-257.49 653.75,-238.24 772.5,-238.24 772.5,-257.49"/>
<text text-anchor="middle" x="713.12" y="-243.99" font-family="Helvetica,sans-Serif" font-size="10.00">iopc_module_dump_src</text>
</a>
</g>
</g>
<!-- Node1&#45;&gt;Node10 -->
<g id="edge31_Node000001_Node000010" class="edge">
<title>Node1&#45;&gt;Node10</title>
<g id="a_edge31_Node000001_Node000010"><a xlink:title=" ">
<path fill="none" stroke="#63b8ff" d="M1154.73,-145.31C1144.96,-165.92 1126.85,-196.78 1100.75,-211.86 997.57,-271.46 852.57,-265.92 772.68,-256.78"/>
<polygon fill="#63b8ff" stroke="#63b8ff" points="1157.91,-146.75 1158.79,-136.2 1151.52,-143.9 1157.91,-146.75"/>
</a>
</g>
</g>
<!-- Node11 -->
<g id="Node000011" class="node">
<title>Node11</title>
<g id="a_Node000011"><a xlink:href="../../d3/d7b/iopc-lang-c_8blk.html#ab28c9ad460b506283d0fdb7942134595" target="_top" xlink:title=" ">
<polygon fill="white" stroke="#666666" points="925,-133.49 814.5,-133.49 814.5,-114.24 925,-114.24 925,-133.49"/>
<text text-anchor="middle" x="869.75" y="-119.99" font-family="Helvetica,sans-Serif" font-size="10.00">iopc_dump_field_attrs</text>
</a>
</g>
</g>
<!-- Node1&#45;&gt;Node11 -->
<g id="edge11_Node000001_Node000011" class="edge">
<title>Node1&#45;&gt;Node11</title>
<g id="a_edge11_Node000001_Node000011"><a xlink:title=" ">
<path fill="none" stroke="#63b8ff" d="M1124.78,-124.73C1073.76,-124.56 983.4,-124.25 925.34,-124.05"/>
<polygon fill="#63b8ff" stroke="#63b8ff" points="1124.73,-128.23 1134.74,-124.76 1124.76,-121.23 1124.73,-128.23"/>
</a>
</g>
</g>
<!-- Node15 -->
<g id="Node000015" class="node">
<title>Node15</title>
<g id="a_Node000015"><a xlink:href="../../d3/d7b/iopc-lang-c_8blk.html#a794ac67b2f3d82d60665dac60b8db70e" target="_top" xlink:title=" ">
<polygon fill="white" stroke="#666666" points="925.75,-58.11 813.75,-58.11 813.75,-27.61 925.75,-27.61 925.75,-58.11"/>
<text text-anchor="start" x="821.75" y="-44.61" font-family="Helvetica,sans-Serif" font-size="10.00">iopc_dump_fun_struct</text>
<text text-anchor="middle" x="869.75" y="-33.36" font-family="Helvetica,sans-Serif" font-size="10.00">_attrs</text>
</a>
</g>
</g>
<!-- Node1&#45;&gt;Node15 -->
<g id="edge18_Node000001_Node000015" class="edge">
<title>Node1&#45;&gt;Node15</title>
<g id="a_edge18_Node000001_Node000015"><a xlink:title=" ">
<path fill="none" stroke="#63b8ff" d="M1148.32,-106.02C1136.82,-92.95 1119.71,-76.42 1100.75,-67.86 1045.1,-42.75 974.45,-38.65 926.23,-39.46"/>
<polygon fill="#63b8ff" stroke="#63b8ff" points="1145.57,-108.19 1154.68,-113.6 1150.94,-103.69 1145.57,-108.19"/>
</a>
</g>
</g>
<!-- Node16 -->
<g id="Node000016" class="node">
<title>Node16</title>
<g id="a_Node000016"><a xlink:href="../../d3/d7b/iopc-lang-c_8blk.html#a2d61f221cfd1fb5cf593831e131adae1" target="_top" xlink:title=" ">
<polygon fill="white" stroke="#666666" points="766.5,-54.49 659.75,-54.49 659.75,-35.24 766.5,-35.24 766.5,-54.49"/>
<text text-anchor="middle" x="713.12" y="-40.99" font-family="Helvetica,sans-Serif" font-size="10.00">iopc_dump_rpc_attrs</text>
</a>
</g>
</g>
<!-- Node1&#45;&gt;Node16 -->
<g id="edge27_Node000001_Node000016" class="edge">
<title>Node1&#45;&gt;Node16</title>
<g id="a_edge27_Node000001_Node000016"><a xlink:title=" ">
<path fill="none" stroke="#63b8ff" d="M1154.91,-104.51C1145.21,-83.69 1127.09,-52.27 1100.75,-36.86 983.7,31.63 810.65,-12.95 742.85,-34.8"/>
<polygon fill="#63b8ff" stroke="#63b8ff" points="1151.6,-105.68 1158.82,-113.43 1158.01,-102.87 1151.6,-105.68"/>
</a>
</g>
</g>
<!-- Node18 -->
<g id="Node000018" class="node">
<title>Node18</title>
<g id="a_Node000018"><a xlink:href="../../d3/d7b/iopc-lang-c_8blk.html#ab73af0a89901453e573a4738c0041e66" target="_top" xlink:title=" ">
<polygon fill="white" stroke="#666666" points="1095.88,-96.49 971.88,-96.49 971.88,-77.24 1095.88,-77.24 1095.88,-96.49"/>
<text text-anchor="middle" x="1033.88" y="-82.99" font-family="Helvetica,sans-Serif" font-size="10.00">iopc_dump_help_and_ref</text>
</a>
</g>
</g>
<!-- Node1&#45;&gt;Node18 -->
<g id="edge22_Node000001_Node000018" class="edge">
<title>Node1&#45;&gt;Node18</title>
<g id="a_edge22_Node000001_Node000018"><a xlink:title=" ">
<path fill="none" stroke="#63b8ff" d="M1125.35,-113.64C1107.36,-108.32 1086.04,-102.01 1068.62,-96.85"/>
<polygon fill="#63b8ff" stroke="#63b8ff" points="1124.3,-116.98 1134.89,-116.47 1126.29,-110.27 1124.3,-116.98"/>
</a>
</g>
</g>
<!-- Node19 -->
<g id="Node000019" class="node">
<title>Node19</title>
<g id="a_Node000019"><a xlink:href="../../d3/d7b/iopc-lang-c_8blk.html#a766df3c4483346cce96522cc13fc5d5a" target="_top" xlink:title=" ">
<polygon fill="white" stroke="#666666" points="1100.75,-174.49 967,-174.49 967,-155.24 1100.75,-155.24 1100.75,-174.49"/>
<text text-anchor="middle" x="1033.88" y="-160.99" font-family="Helvetica,sans-Serif" font-size="10.00">iopc_dump_static_field_src</text>
</a>
</g>
</g>
<!-- Node1&#45;&gt;Node19 -->
<g id="edge28_Node000001_Node000019" class="edge">
<title>Node1&#45;&gt;Node19</title>
<g id="a_edge28_Node000001_Node000019"><a xlink:title=" ">
<path fill="none" stroke="#63b8ff" d="M1125.36,-136.67C1106.88,-142.43 1084.88,-149.28 1067.21,-154.79"/>
<polygon fill="#63b8ff" stroke="#63b8ff" points="1126.39,-140.01 1134.89,-133.7 1124.3,-133.33 1126.39,-140.01"/>
</a>
</g>
</g>
<!-- Node3 -->
<g id="Node000003" class="node">
<title>Node3</title>
<g id="a_Node000003"><a xlink:href="../../d3/d7b/iopc-lang-c_8blk.html#a3e16b2467d10a5ddc2cf778af2ee3102" target="_top" xlink:title="Dump the attributes associated to a given object.">
<polygon fill="white" stroke="#666666" points="757.12,-181.49 669.12,-181.49 669.12,-162.24 757.12,-162.24 757.12,-181.49"/>
<text text-anchor="middle" x="713.12" y="-167.99" font-family="Helvetica,sans-Serif" font-size="10.00">iopc_dump_attrs</text>
</a>
</g>
</g>
<!-- Node2&#45;&gt;Node3 -->
<g id="edge2_Node000002_Node000003" class="edge">
<title>Node2&#45;&gt;Node3</title>
<g id="a_edge2_Node000002_Node000003"><a xlink:title=" ">
<path fill="none" stroke="#63b8ff" d="M816.57,-197.04C796.51,-192.11 773.93,-186.56 755.08,-181.93"/>
<polygon fill="#63b8ff" stroke="#63b8ff" points="815.7,-200.43 826.25,-199.42 817.37,-193.63 815.7,-200.43"/>
</a>
</g>
</g>
<!-- Node4 -->
<g id="Node000004" class="node">
<title>Node4</title>
<g id="a_Node000004"><a xlink:href="../../d3/d7b/iopc-lang-c_8blk.html#aaf96e6f2eb5aa959ac16df2bee47cd99" target="_top" xlink:title=" ">
<polygon fill="white" stroke="#666666" points="443.5,-219.49 332.25,-219.49 332.25,-200.24 443.5,-200.24 443.5,-219.49"/>
<text text-anchor="middle" x="387.88" y="-205.99" font-family="Helvetica,sans-Serif" font-size="10.00">iopc_enum_dump_src</text>
</a>
</g>
</g>
<!-- Node2&#45;&gt;Node4 -->
<g id="edge3_Node000002_Node000004" class="edge">
<title>Node2&#45;&gt;Node4</title>
<g id="a_edge3_Node000002_Node000004"><a xlink:title=" ">
<path fill="none" stroke="#63b8ff" d="M803.61,-209.86C708.33,-209.86 532.67,-209.86 443.65,-209.86"/>
<polygon fill="#63b8ff" stroke="#63b8ff" points="803.59,-213.36 813.59,-209.86 803.59,-206.36 803.59,-213.36"/>
</a>
</g>
</g>
<!-- Node2&#45;&gt;Node10 -->
<g id="edge9_Node000002_Node000010" class="edge">
<title>Node2&#45;&gt;Node10</title>
<g id="a_edge9_Node000002_Node000010"><a xlink:title=" ">
<path fill="none" stroke="#63b8ff" d="M816.57,-222.69C796.51,-227.61 773.93,-233.16 755.08,-237.8"/>
<polygon fill="#63b8ff" stroke="#63b8ff" points="817.37,-226.09 826.25,-220.31 815.7,-219.29 817.37,-226.09"/>
</a>
</g>
</g>
<!-- Node5 -->
<g id="Node000005" class="node">
<title>Node5</title>
<g id="a_Node000005"><a xlink:href="../../d3/d7b/iopc-lang-c_8blk.html#ac633cc5263e2185fcaaaa32bff48aade" target="_top" xlink:title=" ">
<polygon fill="white" stroke="#666666" points="296.25,-200.49 236,-200.49 236,-181.24 296.25,-181.24 296.25,-200.49"/>
<text text-anchor="middle" x="266.12" y="-186.99" font-family="Helvetica,sans-Serif" font-size="10.00">iopc_do_c</text>
</a>
</g>
</g>
<!-- Node4&#45;&gt;Node5 -->
<g id="edge4_Node000004_Node000005" class="edge">
<title>Node4&#45;&gt;Node5</title>
<g id="a_edge4_Node000004_Node000005"><a xlink:title=" ">
<path fill="none" stroke="#63b8ff" d="M320.76,-199.37C312.31,-198.03 304.03,-196.72 296.6,-195.54"/>
<polygon fill="#63b8ff" stroke="#63b8ff" points="319.99,-202.79 330.41,-200.9 321.08,-195.88 319.99,-202.79"/>
</a>
</g>
</g>
<!-- Node6 -->
<g id="Node000006" class="node">
<title>Node6</title>
<g id="a_Node000006"><a xlink:href="../../df/d1f/iopc_8c.html#a693d2e305d9102c8dd03b6bd0bf61111" target="_top" xlink:title=" ">
<polygon fill="white" stroke="#666666" points="200,-219.49 116.5,-219.49 116.5,-200.24 200,-200.24 200,-219.49"/>
<text text-anchor="middle" x="158.25" y="-205.99" font-family="Helvetica,sans-Serif" font-size="10.00">build_doit_table</text>
</a>
</g>
</g>
<!-- Node5&#45;&gt;Node6 -->
<g id="edge5_Node000005_Node000006" class="edge">
<title>Node5&#45;&gt;Node6</title>
<g id="a_edge5_Node000005_Node000006"><a xlink:title=" ">
<path fill="none" stroke="#63b8ff" d="M224.46,-198.16C216.59,-199.57 208.34,-201.05 200.45,-202.47"/>
<polygon fill="#63b8ff" stroke="#63b8ff" points="224.92,-201.63 234.14,-196.42 223.68,-194.74 224.92,-201.63"/>
</a>
</g>
</g>
<!-- Node8 -->
<g id="Node000008" class="node">
<title>Node8</title>
<g id="a_Node000008"><a xlink:href="../../db/d07/iopc-dso_8c.html#a95a19b847fb352eb92b539cf3495f093" target="_top" xlink:title=" ">
<polygon fill="white" stroke="#666666" points="188,-182.49 128.5,-182.49 128.5,-163.24 188,-163.24 188,-182.49"/>
<text text-anchor="middle" x="158.25" y="-168.99" font-family="Helvetica,sans-Serif" font-size="10.00">iopc_build</text>
</a>
</g>
</g>
<!-- Node5&#45;&gt;Node8 -->
<g id="edge7_Node000005_Node000008" class="edge">
<title>Node5&#45;&gt;Node8</title>
<g id="a_edge7_Node000005_Node000008"><a xlink:title=" ">
<path fill="none" stroke="#63b8ff" d="M224.42,-183.94C212.35,-181.89 199.38,-179.69 188.22,-177.79"/>
<polygon fill="#63b8ff" stroke="#63b8ff" points="223.7,-187.37 234.14,-185.59 224.87,-180.47 223.7,-187.37"/>
</a>
</g>
</g>
<!-- Node7 -->
<g id="Node000007" class="node">
<title>Node7</title>
<g id="a_Node000007"><a xlink:href="../../df/d1f/iopc_8c.html#a3c04138a5bfe5d72780bb7e82a18e627" target="_top" xlink:title=" ">
<polygon fill="white" stroke="#666666" points="58.75,-219.49 21.75,-219.49 21.75,-200.24 58.75,-200.24 58.75,-219.49"/>
<text text-anchor="middle" x="40.25" y="-205.99" font-family="Helvetica,sans-Serif" font-size="10.00">main</text>
</a>
</g>
</g>
<!-- Node6&#45;&gt;Node7 -->
<g id="edge6_Node000006_Node000007" class="edge">
<title>Node6&#45;&gt;Node7</title>
<g id="a_edge6_Node000006_Node000007"><a xlink:title=" ">
<path fill="none" stroke="#63b8ff" d="M104.81,-209.86C88.37,-209.86 71.34,-209.86 59.05,-209.86"/>
<polygon fill="#63b8ff" stroke="#63b8ff" points="104.51,-213.36 114.51,-209.86 104.51,-206.36 104.51,-213.36"/>
</a>
</g>
</g>
<!-- Node9 -->
<g id="Node000009" class="node">
<title>Node9</title>
<g id="a_Node000009"><a xlink:href="../../db/d07/iopc-dso_8c.html#ab2da67841232fab2872190ddabd94a81" target="_top" xlink:title="Build an IOP DSO.">
<polygon fill="white" stroke="#666666" points="80.5,-182.49 0,-182.49 0,-163.24 80.5,-163.24 80.5,-182.49"/>
<text text-anchor="middle" x="40.25" y="-168.99" font-family="Helvetica,sans-Serif" font-size="10.00">iopc_dso_build</text>
</a>
</g>
</g>
<!-- Node8&#45;&gt;Node9 -->
<g id="edge8_Node000008_Node000009" class="edge">
<title>Node8&#45;&gt;Node9</title>
<g id="a_edge8_Node000008_Node000009"><a xlink:title=" ">
<path fill="none" stroke="#63b8ff" d="M116.99,-172.86C105.26,-172.86 92.46,-172.86 80.78,-172.86"/>
<polygon fill="#63b8ff" stroke="#63b8ff" points="116.76,-176.36 126.76,-172.86 116.76,-169.36 116.76,-176.36"/>
</a>
</g>
</g>
<!-- Node10&#45;&gt;Node5 -->
<g id="edge10_Node000010_Node000005" class="edge">
<title>Node10&#45;&gt;Node5</title>
<g id="a_edge10_Node000010_Node000005"><a xlink:title=" ">
<path fill="none" stroke="#63b8ff" d="M642.35,-254.11C564.87,-258.83 436.92,-259.99 332.25,-228.86 312.43,-222.97 292.26,-209.87 279.73,-200.71"/>
<polygon fill="#63b8ff" stroke="#63b8ff" points="642.15,-257.63 651.9,-253.49 641.69,-250.64 642.15,-257.63"/>
</a>
</g>
</g>
<!-- Node12 -->
<g id="Node000012" class="node">
<title>Node12</title>
<g id="a_Node000012"><a xlink:href="../../d3/d7b/iopc-lang-c_8blk.html#a5932ca501a8fe4de629700124cb66e41" target="_top" xlink:title=" ">
<polygon fill="white" stroke="#666666" points="769.12,-143.49 657.12,-143.49 657.12,-124.24 769.12,-124.24 769.12,-143.49"/>
<text text-anchor="middle" x="713.12" y="-129.99" font-family="Helvetica,sans-Serif" font-size="10.00">iopc_struct_dump_src</text>
</a>
</g>
</g>
<!-- Node11&#45;&gt;Node12 -->
<g id="edge12_Node000011_Node000012" class="edge">
<title>Node11&#45;&gt;Node12</title>
<g id="a_edge12_Node000011_Node000012"><a xlink:title=" ">
<path fill="none" stroke="#63b8ff" d="M802.81,-128.13C791.7,-128.85 780.26,-129.58 769.45,-130.28"/>
<polygon fill="#63b8ff" stroke="#63b8ff" points="802.97,-131.62 812.72,-127.49 802.52,-124.64 802.97,-131.62"/>
</a>
</g>
</g>
<!-- Node12&#45;&gt;Node5 -->
<g id="edge13_Node000012_Node000005" class="edge">
<title>Node12&#45;&gt;Node5</title>
<g id="a_edge13_Node000012_Node000005"><a xlink:title=" ">
<path fill="none" stroke="#63b8ff" d="M645.37,-142.41C546.95,-155.02 366.96,-178.07 296.51,-187.1"/>
<polygon fill="#63b8ff" stroke="#63b8ff" points="645.69,-145.9 655.16,-141.16 644.8,-138.96 645.69,-145.9"/>
</a>
</g>
</g>
<!-- Node13 -->
<g id="Node000013" class="node">
<title>Node13</title>
<g id="a_Node000013"><a xlink:href="../../d3/d7b/iopc-lang-c_8blk.html#a60e8f426c2193869d8bd3daaecdc8173" target="_top" xlink:title=" ">
<polygon fill="white" stroke="#666666" points="442,-124.49 333.75,-124.49 333.75,-105.24 442,-105.24 442,-124.49"/>
<text text-anchor="middle" x="387.88" y="-110.99" font-family="Helvetica,sans-Serif" font-size="10.00">iopc_iface_dump_src</text>
</a>
</g>
</g>
<!-- Node12&#45;&gt;Node13 -->
<g id="edge14_Node000012_Node000013" class="edge">
<title>Node12&#45;&gt;Node13</title>
<g id="a_edge14_Node000012_Node000013"><a xlink:title=" ">
<path fill="none" stroke="#63b8ff" d="M645.64,-129.95C585.47,-126.42 497.96,-121.27 442.24,-118"/>
<polygon fill="#63b8ff" stroke="#63b8ff" points="645.22,-133.44 655.41,-130.53 645.64,-126.45 645.22,-133.44"/>
</a>
</g>
</g>
<!-- Node14 -->
<g id="Node000014" class="node">
<title>Node14</title>
<g id="a_Node000014"><a xlink:href="../../d3/d7b/iopc-lang-c_8blk.html#a60e21f96951fdd7e1bbb43189cc174de" target="_top" xlink:title=" ">
<polygon fill="white" stroke="#666666" points="617.75,-105.49 479.5,-105.49 479.5,-86.24 617.75,-86.24 617.75,-105.49"/>
<text text-anchor="middle" x="548.62" y="-91.99" font-family="Helvetica,sans-Serif" font-size="10.00">iopc_iface_struct_dump_src</text>
</a>
</g>
</g>
<!-- Node12&#45;&gt;Node14 -->
<g id="edge16_Node000012_Node000014" class="edge">
<title>Node12&#45;&gt;Node14</title>
<g id="a_edge16_Node000012_Node000014"><a xlink:title=" ">
<path fill="none" stroke="#63b8ff" d="M657.87,-121.17C636.65,-116.21 612.66,-110.6 592.66,-105.93"/>
<polygon fill="#63b8ff" stroke="#63b8ff" points="657,-124.56 667.53,-123.43 658.59,-117.75 657,-124.56"/>
</a>
</g>
</g>
<!-- Node13&#45;&gt;Node5 -->
<g id="edge15_Node000013_Node000005" class="edge">
<title>Node13&#45;&gt;Node5</title>
<g id="a_edge15_Node000013_Node000005"><a xlink:title=" ">
<path fill="none" stroke="#63b8ff" d="M361.77,-130.79C337.94,-145.92 302.87,-168.18 282.78,-180.92"/>
<polygon fill="#63b8ff" stroke="#63b8ff" points="363.37,-133.92 369.94,-125.61 359.62,-128.01 363.37,-133.92"/>
</a>
</g>
</g>
<!-- Node14&#45;&gt;Node13 -->
<g id="edge17_Node000014_Node000013" class="edge">
<title>Node14&#45;&gt;Node13</title>
<g id="a_edge17_Node000014_Node000013"><a xlink:title=" ">
<path fill="none" stroke="#63b8ff" d="M468.24,-105.36C459.41,-106.42 450.59,-107.48 442.21,-108.48"/>
<polygon fill="#63b8ff" stroke="#63b8ff" points="468.36,-108.87 477.88,-104.21 467.53,-101.92 468.36,-108.87"/>
</a>
</g>
</g>
<!-- Node15&#45;&gt;Node16 -->
<g id="edge19_Node000015_Node000016" class="edge">
<title>Node15&#45;&gt;Node16</title>
<g id="a_edge19_Node000015_Node000016"><a xlink:title=" ">
<path fill="none" stroke="#63b8ff" d="M802.17,-43.72C790.34,-43.88 778.17,-44.03 766.8,-44.18"/>
<polygon fill="#63b8ff" stroke="#63b8ff" points="801.9,-47.23 811.85,-43.6 801.81,-40.23 801.9,-47.23"/>
</a>
</g>
</g>
<!-- Node17 -->
<g id="Node000017" class="node">
<title>Node17</title>
<g id="a_Node000017"><a xlink:href="../../d3/d7b/iopc-lang-c_8blk.html#a138e3066b3ef3a01a0934dfddf817aad" target="_top" xlink:title=" ">
<polygon fill="white" stroke="#666666" points="602.75,-63.11 494.5,-63.11 494.5,-32.61 602.75,-32.61 602.75,-63.11"/>
<text text-anchor="start" x="502.5" y="-49.61" font-family="Helvetica,sans-Serif" font-size="10.00">iopc_iface_dump_rpc</text>
<text text-anchor="middle" x="548.62" y="-38.36" font-family="Helvetica,sans-Serif" font-size="10.00">_attrs</text>
</a>
</g>
</g>
<!-- Node16&#45;&gt;Node17 -->
<g id="edge20_Node000016_Node000017" class="edge">
<title>Node16&#45;&gt;Node17</title>
<g id="a_edge20_Node000016_Node000017"><a xlink:title=" ">
<path fill="none" stroke="#63b8ff" d="M648.18,-46.04C633.3,-46.32 617.61,-46.61 603.23,-46.87"/>
<polygon fill="#63b8ff" stroke="#63b8ff" points="647.92,-49.55 657.85,-45.86 647.79,-42.55 647.92,-49.55"/>
</a>
</g>
</g>
<!-- Node17&#45;&gt;Node13 -->
<g id="edge21_Node000017_Node000013" class="edge">
<title>Node17&#45;&gt;Node13</title>
<g id="a_edge21_Node000017_Node000013"><a xlink:title=" ">
<path fill="none" stroke="#63b8ff" d="M500.1,-67.92C471.22,-80.11 435.59,-95.15 412.56,-104.86"/>
<polygon fill="#63b8ff" stroke="#63b8ff" points="501.16,-71.27 509.01,-64.16 498.44,-64.82 501.16,-71.27"/>
</a>
</g>
</g>
<!-- Node18&#45;&gt;Node2 -->
<g id="edge23_Node000018_Node000002" class="edge">
<title>Node18&#45;&gt;Node2</title>
<g id="a_edge23_Node000018_Node000002"><a xlink:title=" ">
<path fill="none" stroke="#63b8ff" d="M1012.14,-103.88C998.75,-115.25 981.23,-130.82 967,-145.86 949.4,-164.47 952.13,-176.38 931,-190.86 925.75,-194.46 919.79,-197.4 913.71,-199.8"/>
<polygon fill="#63b8ff" stroke="#63b8ff" points="1014.09,-106.82 1019.51,-97.72 1009.59,-101.46 1014.09,-106.82"/>
</a>
</g>
</g>
<!-- Node18&#45;&gt;Node11 -->
<g id="edge24_Node000018_Node000011" class="edge">
<title>Node18&#45;&gt;Node11</title>
<g id="a_edge24_Node000018_Node000011"><a xlink:title=" ">
<path fill="none" stroke="#63b8ff" d="M977.53,-99.49C957.12,-104.15 934.29,-109.36 915,-113.76"/>
<polygon fill="#63b8ff" stroke="#63b8ff" points="978.13,-102.95 987.1,-97.31 976.57,-96.12 978.13,-102.95"/>
</a>
</g>
</g>
<!-- Node18&#45;&gt;Node15 -->
<g id="edge25_Node000018_Node000015" class="edge">
<title>Node18&#45;&gt;Node15</title>
<g id="a_edge25_Node000018_Node000015"><a xlink:title=" ">
<path fill="none" stroke="#63b8ff" d="M984.64,-73.77C966.28,-68.79 945.22,-63.07 926.24,-57.92"/>
<polygon fill="#63b8ff" stroke="#63b8ff" points="983.65,-77.13 994.22,-76.37 985.49,-70.37 983.65,-77.13"/>
</a>
</g>
</g>
<!-- Node18&#45;&gt;Node16 -->
<g id="edge26_Node000018_Node000016" class="edge">
<title>Node18&#45;&gt;Node16</title>
<g id="a_edge26_Node000018_Node000016"><a xlink:title=" ">
<path fill="none" stroke="#63b8ff" d="M960.16,-82.97C916.08,-79.97 858.84,-74.93 808.5,-66.86 789.73,-63.85 769.14,-59.21 752,-54.97"/>
<polygon fill="#63b8ff" stroke="#63b8ff" points="959.92,-86.46 970.13,-83.63 960.38,-79.48 959.92,-86.46"/>
</a>
</g>
</g>
<!-- Node20 -->
<g id="Node000020" class="node">
<title>Node20</title>
<g id="a_Node000020"><a xlink:href="../../d3/d7b/iopc-lang-c_8blk.html#a83f96b9d6339862d576aafb88c0ff018" target="_top" xlink:title=" ">
<polygon fill="white" stroke="#666666" points="931,-182.11 808.5,-182.11 808.5,-151.61 931,-151.61 931,-182.11"/>
<text text-anchor="start" x="816.5" y="-168.61" font-family="Helvetica,sans-Serif" font-size="10.00">iopc_struct_dump_static</text>
<text text-anchor="middle" x="869.75" y="-157.36" font-family="Helvetica,sans-Serif" font-size="10.00">_fields_src</text>
</a>
</g>
</g>
<!-- Node19&#45;&gt;Node20 -->
<g id="edge29_Node000019_Node000020" class="edge">
<title>Node19&#45;&gt;Node20</title>
<g id="a_edge29_Node000019_Node000020"><a xlink:title=" ">
<path fill="none" stroke="#63b8ff" d="M955.54,-165.82C947.44,-165.92 939.29,-166.02 931.41,-166.11"/>
<polygon fill="#63b8ff" stroke="#63b8ff" points="955.46,-169.32 965.42,-165.69 955.38,-162.32 955.46,-169.32"/>
</a>
</g>
</g>
<!-- Node20&#45;&gt;Node12 -->
<g id="edge30_Node000020_Node000012" class="edge">
<title>Node20&#45;&gt;Node12</title>
<g id="a_edge30_Node000020_Node000012"><a xlink:title=" ">
<path fill="none" stroke="#63b8ff" d="M797.01,-151.55C784.87,-148.96 772.54,-146.33 761.23,-143.92"/>
<polygon fill="#63b8ff" stroke="#63b8ff" points="796.09,-154.93 806.6,-153.6 797.55,-148.09 796.09,-154.93"/>
</a>
</g>
</g>
</g>
</svg>

<g id="navigator" transform="translate(0 0)" fill="#404254">
  <rect fill="#f2f5e9" fill-opacity="0.5" stroke="#606060" stroke-width=".5" x="0" y="0" width="60" height="60"/>
  <use id="zoomplus" xlink:href="#zoomPlus" x="17" y="9" onmousedown="handleZoom(evt,'in')"/>
  <use id="zoomminus" xlink:href="#zoomMin" x="42" y="9" onmousedown="handleZoom(evt,'out')"/>
  <use id="reset" xlink:href="#resetDef" x="30" y="36" onmousedown="handleReset()"/>
   <use id="arrowup" xlink:href="#arrowUp" x="0" y="0" onmousedown="handlePan(0,-1)"/>
  <use id="arrowright" xlink:href="#arrowRight" x="0" y="0" onmousedown="handlePan(1,0)"/>
  <use id="arrowdown" xlink:href="#arrowDown" x="0" y="0" onmousedown="handlePan(0,1)"/>
  <use id="arrowleft" xlink:href="#arrowLeft" x="0" y="0" onmousedown="handlePan(-1,0)"/>
</g>
<svg viewBox="0 0 15 15" width="100%" height="30px" preserveAspectRatio="xMaxYMin meet">
 <g id="arrow_out" transform="scale(0.3 0.3)">
  <a xlink:href="iopc-lang-c_8blk_a407eb558cd94e7aad0121be7012a3e16_icgraph_org.svg" target="_base">
   <rect id="button" ry="5" rx="5" y="6" x="6" height="38" width="38"
        fill="#f2f5e9" fill-opacity="0.5" stroke="#606060" stroke-width="1.0"/>
   <path id="arrow"
     d="M 11.500037,31.436501 C 11.940474,20.09759 22.043105,11.32322 32.158766,21.979434 L 37.068811,17.246167 C 37.068811,17.246167 37.088388,32 37.088388,32 L 22.160133,31.978069 C 22.160133,31.978069 26.997745,27.140456 26.997745,27.140456 C 18.528582,18.264221 13.291696,25.230495 11.500037,31.436501 z"
     style="fill:#404040;"/>
  </a>
 </g>
</svg>

<style type='text/css'>
<![CDATA[
[data-mouse-over-selected='false'] { opacity: 0.7; }
[data-mouse-over-selected='true']  { opacity: 1.0; }
]]>
</style>
<script type="application/ecmascript"><![CDATA[
document.addEventListener('DOMContentLoaded', (event) => {
  highlightEdges();
  highlightAdjacentNodes();
});
]]></script>
</svg>
