<?xml version="1.0" encoding="UTF-8" standalone="no"?>
<!DOCTYPE svg PUBLIC "-//W3C//DTD SVG 1.1//EN"
 "http://www.w3.org/Graphics/SVG/1.1/DTD/svg11.dtd">
<!-- Generated by graphviz version 9.0.0 (20230911.1827)
 -->
<!-- Title: iopc_struct_dump_tdef_hdr Pages: 1 -->
<!--zoomable 74 -->

<svg id="main" version="1.1" xmlns="http://www.w3.org/2000/svg" xmlns:xlink="http://www.w3.org/1999/xlink" xml:space="preserve" onload="init(evt)">
<style type="text/css"><![CDATA[
.node, .edge {opacity: 0.7;}
.node.selected, .edge.selected {opacity: 1;}
.edge:hover path { stroke: red; }
.edge:hover polygon { stroke: red; fill: red; }
]]></style>

<defs>
  <circle id="rim" cx="0" cy="0" r="7"/>
  <circle id="rim2" cx="0" cy="0" r="3.5"/>
  <g id="zoomPlus">
    <use xlink:href="#rim" fill="#404040"><set attributeName="fill" to="#808080" begin="zoomplus.mouseover" end="zoomplus.mouseout"/></use>
    <path d="M-4,0h8M0,-4v8" fill="none" stroke="white" stroke-width="1.5" pointer-events="none"/>
  </g>
  <g id="zoomMin">
    <use xlink:href="#rim" fill="#404040"><set attributeName="fill" to="#808080" begin="zoomminus.mouseover" end="zoomminus.mouseout"/></use>
    <path d="M-4,0h8" fill="none" stroke="white" stroke-width="1.5" pointer-events="none"/>
  </g>
  <g id="arrowUp" transform="translate(30 24)">
    <use xlink:href="#rim"/>
    <path pointer-events="none" fill="none" stroke="white" stroke-width="1.5" d="M0,-3.0v7 M-2.5,-0.5L0,-3.0L2.5,-0.5"/>
  </g>
  <g id="arrowRight" transform="rotate(90) translate(36 -43)">
    <use xlink:href="#rim"/>
    <path pointer-events="none" fill="none" stroke="white" stroke-width="1.5" d="M0,-3.0v7 M-2.5,-0.5L0,-3.0L2.5,-0.5"/>
  </g>
  <g id="arrowDown" transform="rotate(180) translate(-30 -48)">
    <use xlink:href="#rim"/>
    <path pointer-events="none" fill="none" stroke="white" stroke-width="1.5" d="M0,-3.0v7 M-2.5,-0.5L0,-3.0L2.5,-0.5"/>
  </g>
  <g id="arrowLeft" transform="rotate(270) translate(-36 17)">
    <use xlink:href="#rim"/>
    <path pointer-events="none" fill="none" stroke="white" stroke-width="1.5" d="M0,-3.0v7 M-2.5,-0.5L0,-3.0L2.5,-0.5"/>
  </g>
  <g id="resetDef">
    <use xlink:href="#rim2" fill="#404040"><set attributeName="fill" to="#808080" begin="reset.mouseover" end="reset.mouseout"/></use>
  </g>
</defs>
<script type="application/ecmascript">
var viewWidth = 788;
var viewHeight = 74;
var sectionId = 'dynsection-157';
</script>
<script type="application/ecmascript" xlink:href="../../svg.min.js"/>
<svg id="graph" class="graph">
<g id="viewport">
<title>iopc_struct_dump_tdef_hdr</title>
<!-- Node1 -->
<g id="Node000001" class="node">
<title>Node1</title>
<g id="a_Node000001"><a xlink:title=" ">
<polygon fill="#999999" stroke="#666666" points="780,-45.88 646.25,-45.88 646.25,-26.62 780,-26.62 780,-45.88"/>
<text text-anchor="middle" x="713.12" y="-32.38" font-family="Helvetica,sans-Serif" font-size="10.00">iopc_struct_dump_tdef_hdr</text>
</a>
</g>
</g>
<!-- Node2 -->
<g id="Node000002" class="node">
<title>Node2</title>
<g id="a_Node000002"><a xlink:href="../../d3/d7b/iopc-lang-c_8blk.html#ac633cc5263e2185fcaaaa32bff48aade" target="_top" xlink:title=" ">
<polygon fill="white" stroke="#666666" points="296.25,-46.88 236,-46.88 236,-27.62 296.25,-27.62 296.25,-46.88"/>
<text text-anchor="middle" x="266.12" y="-33.38" font-family="Helvetica,sans-Serif" font-size="10.00">iopc_do_c</text>
</a>
</g>
</g>
<!-- Node1&#45;&gt;Node2 -->
<g id="edge1_Node000001_Node000002" class="edge">
<title>Node1&#45;&gt;Node2</title>
<g id="a_edge1_Node000001_Node000002"><a xlink:title=" ">
<path fill="none" stroke="#63b8ff" d="M634.36,-38.78C626.22,-38.97 618.07,-39.13 610.25,-39.25 494.1,-40.96 355.81,-38.9 296.5,-37.83"/>
<polygon fill="#63b8ff" stroke="#63b8ff" points="634.4,-42.28 644.31,-38.52 634.22,-35.28 634.4,-42.28"/>
</a>
</g>
</g>
<!-- Node7 -->
<g id="Node000007" class="node">
<title>Node7</title>
<g id="a_Node000007"><a xlink:href="../../d3/d7b/iopc-lang-c_8blk.html#a04054448c7f507ae72403c4fcd3f0cde" target="_top" xlink:title=" ">
<polygon fill="white" stroke="#666666" points="610.25,-30.5 498.25,-30.5 498.25,0 610.25,0 610.25,-30.5"/>
<text text-anchor="start" x="506.25" y="-17" font-family="Helvetica,sans-Serif" font-size="10.00">iopc_fun_struct_dump</text>
<text text-anchor="middle" x="554.25" y="-5.75" font-family="Helvetica,sans-Serif" font-size="10.00">_tdef_hdr</text>
</a>
</g>
</g>
<!-- Node1&#45;&gt;Node7 -->
<g id="edge6_Node000001_Node000007" class="edge">
<title>Node1&#45;&gt;Node7</title>
<g id="a_edge6_Node000001_Node000007"><a xlink:title=" ">
<path fill="none" stroke="#63b8ff" d="M634.82,-25.9C626.56,-24.8 618.28,-23.69 610.34,-22.62"/>
<polygon fill="#63b8ff" stroke="#63b8ff" points="634.17,-29.35 644.55,-27.2 635.1,-22.41 634.17,-29.35"/>
</a>
</g>
</g>
<!-- Node3 -->
<g id="Node000003" class="node">
<title>Node3</title>
<g id="a_Node000003"><a xlink:href="../../df/d1f/iopc_8c.html#a693d2e305d9102c8dd03b6bd0bf61111" target="_top" xlink:title=" ">
<polygon fill="white" stroke="#666666" points="200,-65.88 116.5,-65.88 116.5,-46.62 200,-46.62 200,-65.88"/>
<text text-anchor="middle" x="158.25" y="-52.38" font-family="Helvetica,sans-Serif" font-size="10.00">build_doit_table</text>
</a>
</g>
</g>
<!-- Node2&#45;&gt;Node3 -->
<g id="edge2_Node000002_Node000003" class="edge">
<title>Node2&#45;&gt;Node3</title>
<g id="a_edge2_Node000002_Node000003"><a xlink:title=" ">
<path fill="none" stroke="#63b8ff" d="M224.46,-44.55C216.59,-45.96 208.34,-47.44 200.45,-48.86"/>
<polygon fill="#63b8ff" stroke="#63b8ff" points="224.92,-48.02 234.14,-42.81 223.68,-41.13 224.92,-48.02"/>
</a>
</g>
</g>
<!-- Node5 -->
<g id="Node000005" class="node">
<title>Node5</title>
<g id="a_Node000005"><a xlink:href="../../db/d07/iopc-dso_8c.html#a95a19b847fb352eb92b539cf3495f093" target="_top" xlink:title=" ">
<polygon fill="white" stroke="#666666" points="188,-28.88 128.5,-28.88 128.5,-9.62 188,-9.62 188,-28.88"/>
<text text-anchor="middle" x="158.25" y="-15.38" font-family="Helvetica,sans-Serif" font-size="10.00">iopc_build</text>
</a>
</g>
</g>
<!-- Node2&#45;&gt;Node5 -->
<g id="edge4_Node000002_Node000005" class="edge">
<title>Node2&#45;&gt;Node5</title>
<g id="a_edge4_Node000002_Node000005"><a xlink:title=" ">
<path fill="none" stroke="#63b8ff" d="M224.42,-30.33C212.35,-28.28 199.38,-26.07 188.22,-24.17"/>
<polygon fill="#63b8ff" stroke="#63b8ff" points="223.7,-33.76 234.14,-31.98 224.87,-26.86 223.7,-33.76"/>
</a>
</g>
</g>
<!-- Node4 -->
<g id="Node000004" class="node">
<title>Node4</title>
<g id="a_Node000004"><a xlink:href="../../df/d1f/iopc_8c.html#a3c04138a5bfe5d72780bb7e82a18e627" target="_top" xlink:title=" ">
<polygon fill="white" stroke="#666666" points="58.75,-65.88 21.75,-65.88 21.75,-46.62 58.75,-46.62 58.75,-65.88"/>
<text text-anchor="middle" x="40.25" y="-52.38" font-family="Helvetica,sans-Serif" font-size="10.00">main</text>
</a>
</g>
</g>
<!-- Node3&#45;&gt;Node4 -->
<g id="edge3_Node000003_Node000004" class="edge">
<title>Node3&#45;&gt;Node4</title>
<g id="a_edge3_Node000003_Node000004"><a xlink:title=" ">
<path fill="none" stroke="#63b8ff" d="M104.81,-56.25C88.37,-56.25 71.34,-56.25 59.05,-56.25"/>
<polygon fill="#63b8ff" stroke="#63b8ff" points="104.51,-59.75 114.51,-56.25 104.51,-52.75 104.51,-59.75"/>
</a>
</g>
</g>
<!-- Node6 -->
<g id="Node000006" class="node">
<title>Node6</title>
<g id="a_Node000006"><a xlink:href="../../db/d07/iopc-dso_8c.html#ab2da67841232fab2872190ddabd94a81" target="_top" xlink:title="Build an IOP DSO.">
<polygon fill="white" stroke="#666666" points="80.5,-28.88 0,-28.88 0,-9.62 80.5,-9.62 80.5,-28.88"/>
<text text-anchor="middle" x="40.25" y="-15.38" font-family="Helvetica,sans-Serif" font-size="10.00">iopc_dso_build</text>
</a>
</g>
</g>
<!-- Node5&#45;&gt;Node6 -->
<g id="edge5_Node000005_Node000006" class="edge">
<title>Node5&#45;&gt;Node6</title>
<g id="a_edge5_Node000005_Node000006"><a xlink:title=" ">
<path fill="none" stroke="#63b8ff" d="M116.99,-19.25C105.26,-19.25 92.46,-19.25 80.78,-19.25"/>
<polygon fill="#63b8ff" stroke="#63b8ff" points="116.76,-22.75 126.76,-19.25 116.76,-15.75 116.76,-22.75"/>
</a>
</g>
</g>
<!-- Node8 -->
<g id="Node000008" class="node">
<title>Node8</title>
<g id="a_Node000008"><a xlink:href="../../d3/d7b/iopc-lang-c_8blk.html#acf8fac91302b10b0c44ffcfeb497b83e" target="_top" xlink:title=" ">
<polygon fill="white" stroke="#666666" points="462.25,-27.88 332.25,-27.88 332.25,-8.62 462.25,-8.62 462.25,-27.88"/>
<text text-anchor="middle" x="397.25" y="-14.38" font-family="Helvetica,sans-Serif" font-size="10.00">iopc_iface_dump_tdef_hdr</text>
</a>
</g>
</g>
<!-- Node7&#45;&gt;Node8 -->
<g id="edge7_Node000007_Node000008" class="edge">
<title>Node7&#45;&gt;Node8</title>
<g id="a_edge7_Node000007_Node000008"><a xlink:title=" ">
<path fill="none" stroke="#63b8ff" d="M486.67,-16.54C478.72,-16.69 470.61,-16.85 462.69,-17"/>
<polygon fill="#63b8ff" stroke="#63b8ff" points="486.72,-20.04 496.65,-16.35 486.59,-13.04 486.72,-20.04"/>
</a>
</g>
</g>
<!-- Node8&#45;&gt;Node2 -->
<g id="edge8_Node000008_Node000002" class="edge">
<title>Node8&#45;&gt;Node2</title>
<g id="a_edge8_Node000008_Node000002"><a xlink:title=" ">
<path fill="none" stroke="#63b8ff" d="M320.77,-29.36C312.26,-30.61 304,-31.82 296.62,-32.91"/>
<polygon fill="#63b8ff" stroke="#63b8ff" points="321.18,-32.83 330.57,-27.91 320.17,-25.91 321.18,-32.83"/>
</a>
</g>
</g>
</g>
</svg>

<g id="navigator" transform="translate(0 0)" fill="#404254">
  <rect fill="#f2f5e9" fill-opacity="0.5" stroke="#606060" stroke-width=".5" x="0" y="0" width="60" height="60"/>
  <use id="zoomplus" xlink:href="#zoomPlus" x="17" y="9" onmousedown="handleZoom(evt,'in')"/>
  <use id="zoomminus" xlink:href="#zoomMin" x="42" y="9" onmousedown="handleZoom(evt,'out')"/>
  <use id="reset" xlink:href="#resetDef" x="30" y="36" onmousedown="handleReset()"/>
   <use id="arrowup" xlink:href="#arrowUp" x="0" y="0" onmousedown="handlePan(0,-1)"/>
  <use id="arrowright" xlink:href="#arrowRight" x="0" y="0" onmousedown="handlePan(1,0)"/>
  <use id="arrowdown" xlink:href="#arrowDown" x="0" y="0" onmousedown="handlePan(0,1)"/>
  <use id="arrowleft" xlink:href="#arrowLeft" x="0" y="0" onmousedown="handlePan(-1,0)"/>
</g>
<svg viewBox="0 0 15 15" width="100%" height="30px" preserveAspectRatio="xMaxYMin meet">
 <g id="arrow_out" transform="scale(0.3 0.3)">
  <a xlink:href="iopc-lang-c_8blk_a310c6dd21580792ecbe31616e6b0713f_icgraph_org.svg" target="_base">
   <rect id="button" ry="5" rx="5" y="6" x="6" height="38" width="38"
        fill="#f2f5e9" fill-opacity="0.5" stroke="#606060" stroke-width="1.0"/>
   <path id="arrow"
     d="M 11.500037,31.436501 C 11.940474,20.09759 22.043105,11.32322 32.158766,21.979434 L 37.068811,17.246167 C 37.068811,17.246167 37.088388,32 37.088388,32 L 22.160133,31.978069 C 22.160133,31.978069 26.997745,27.140456 26.997745,27.140456 C 18.528582,18.264221 13.291696,25.230495 11.500037,31.436501 z"
     style="fill:#404040;"/>
  </a>
 </g>
</svg>

<style type='text/css'>
<![CDATA[
[data-mouse-over-selected='false'] { opacity: 0.7; }
[data-mouse-over-selected='true']  { opacity: 1.0; }
]]>
</style>
<script type="application/ecmascript"><![CDATA[
document.addEventListener('DOMContentLoaded', (event) => {
  highlightEdges();
  highlightAdjacentNodes();
});
]]></script>
</svg>
