<?xml version="1.0" encoding="UTF-8" standalone="no"?>
<!DOCTYPE svg PUBLIC "-//W3C//DTD SVG 1.1//EN"
 "http://www.w3.org/Graphics/SVG/1.1/DTD/svg11.dtd">
<!-- Generated by graphviz version 9.0.0 (20230911.1827)
 -->
<!-- Title: iopc_dump_case_allow Pages: 1 -->
<svg width="1354pt" height="103pt"
 viewBox="0.00 0.00 1353.75 103.25" xmlns="http://www.w3.org/2000/svg" xmlns:xlink="http://www.w3.org/1999/xlink">
<g id="graph0" class="graph" transform="scale(1 1) rotate(0) translate(4 99.25)">
<title>iopc_dump_case_allow</title>
<!-- Node1 -->
<g id="Node000001" class="node">
<title>Node1</title>
<g id="a_Node000001"><a xlink:title=" ">
<polygon fill="#999999" stroke="#666666" points="1345.75,-57.25 1228.5,-57.25 1228.5,-38 1345.75,-38 1345.75,-57.25"/>
<text text-anchor="middle" x="1287.12" y="-43.75" font-family="Helvetica,sans-Serif" font-size="10.00">iopc_dump_case_allow</text>
</a>
</g>
</g>
<!-- Node2 -->
<g id="Node000002" class="node">
<title>Node2</title>
<g id="a_Node000002"><a xlink:href="../../d3/d7b/iopc-lang-c_8blk.html#ae59ffb712aa9e0182376d7bd358b4f39" target="_top" xlink:title=" ">
<polygon fill="white" stroke="#666666" points="1192.5,-76.25 1072.25,-76.25 1072.25,-57 1192.5,-57 1192.5,-76.25"/>
<text text-anchor="middle" x="1132.38" y="-62.75" font-family="Helvetica,sans-Serif" font-size="10.00">iopc_dump_allow_enum</text>
</a>
</g>
</g>
<!-- Node1&#45;&gt;Node2 -->
<g id="edge1_Node000001_Node000002" class="edge">
<title>Node1&#45;&gt;Node2</title>
<g id="a_edge1_Node000001_Node000002"><a xlink:title=" ">
<path fill="none" stroke="#63b8ff" d="M1217.11,-56.21C1209.05,-57.21 1200.89,-58.23 1192.98,-59.21"/>
<polygon fill="#63b8ff" stroke="#63b8ff" points="1217.38,-59.7 1226.87,-54.99 1216.52,-52.76 1217.38,-59.7"/>
</a>
</g>
</g>
<!-- Node13 -->
<g id="Node000013" class="node">
<title>Node13</title>
<g id="a_Node000013"><a xlink:href="../../d3/d7b/iopc-lang-c_8blk.html#adcaa3a9c0b091f1c54ec6aabb6e5984a" target="_top" xlink:title=" ">
<polygon fill="white" stroke="#666666" points="1192.12,-39.25 1072.62,-39.25 1072.62,-20 1192.12,-20 1192.12,-39.25"/>
<text text-anchor="middle" x="1132.38" y="-25.75" font-family="Helvetica,sans-Serif" font-size="10.00">iopc_dump_allow_union</text>
</a>
</g>
</g>
<!-- Node1&#45;&gt;Node13 -->
<g id="edge14_Node000001_Node000013" class="edge">
<title>Node1&#45;&gt;Node13</title>
<g id="a_edge14_Node000001_Node000013"><a xlink:title=" ">
<path fill="none" stroke="#63b8ff" d="M1217.22,-39.51C1208.96,-38.53 1200.58,-37.54 1192.47,-36.59"/>
<polygon fill="#63b8ff" stroke="#63b8ff" points="1216.53,-42.95 1226.87,-40.64 1217.35,-36 1216.53,-42.95"/>
</a>
</g>
</g>
<!-- Node3 -->
<g id="Node000003" class="node">
<title>Node3</title>
<g id="a_Node000003"><a xlink:href="../../d3/d7b/iopc-lang-c_8blk.html#a6e489a201db365b70e1f0a862cad3c0a" target="_top" xlink:title=" ">
<polygon fill="white" stroke="#666666" points="1036.25,-57.25 945.25,-57.25 945.25,-38 1036.25,-38 1036.25,-57.25"/>
<text text-anchor="middle" x="990.75" y="-43.75" font-family="Helvetica,sans-Serif" font-size="10.00">iopc_dump_allow</text>
</a>
</g>
</g>
<!-- Node2&#45;&gt;Node3 -->
<g id="edge2_Node000002_Node000003" class="edge">
<title>Node2&#45;&gt;Node3</title>
<g id="a_edge2_Node000002_Node000003"><a xlink:title=" ">
<path fill="none" stroke="#63b8ff" d="M1060.56,-56.99C1052.33,-55.87 1044.12,-54.75 1036.38,-53.7"/>
<polygon fill="#63b8ff" stroke="#63b8ff" points="1059.88,-60.43 1070.26,-58.31 1060.82,-53.49 1059.88,-60.43"/>
</a>
</g>
</g>
<!-- Node4 -->
<g id="Node000004" class="node">
<title>Node4</title>
<g id="a_Node000004"><a xlink:href="../../d3/d7b/iopc-lang-c_8blk.html#ab28c9ad460b506283d0fdb7942134595" target="_top" xlink:title=" ">
<polygon fill="white" stroke="#666666" points="909.25,-57.25 798.75,-57.25 798.75,-38 909.25,-38 909.25,-57.25"/>
<text text-anchor="middle" x="854" y="-43.75" font-family="Helvetica,sans-Serif" font-size="10.00">iopc_dump_field_attrs</text>
</a>
</g>
</g>
<!-- Node3&#45;&gt;Node4 -->
<g id="edge3_Node000003_Node000004" class="edge">
<title>Node3&#45;&gt;Node4</title>
<g id="a_edge3_Node000003_Node000004"><a xlink:title=" ">
<path fill="none" stroke="#63b8ff" d="M933.47,-47.62C925.54,-47.62 917.4,-47.62 909.51,-47.62"/>
<polygon fill="#63b8ff" stroke="#63b8ff" points="933.37,-51.13 943.37,-47.63 933.37,-44.13 933.37,-51.13"/>
</a>
</g>
</g>
<!-- Node5 -->
<g id="Node000005" class="node">
<title>Node5</title>
<g id="a_Node000005"><a xlink:href="../../d3/d7b/iopc-lang-c_8blk.html#a5932ca501a8fe4de629700124cb66e41" target="_top" xlink:title=" ">
<polygon fill="white" stroke="#666666" points="762.75,-57.25 650.75,-57.25 650.75,-38 762.75,-38 762.75,-57.25"/>
<text text-anchor="middle" x="706.75" y="-43.75" font-family="Helvetica,sans-Serif" font-size="10.00">iopc_struct_dump_src</text>
</a>
</g>
</g>
<!-- Node4&#45;&gt;Node5 -->
<g id="edge4_Node000004_Node000005" class="edge">
<title>Node4&#45;&gt;Node5</title>
<g id="a_edge4_Node000004_Node000005"><a xlink:title=" ">
<path fill="none" stroke="#63b8ff" d="M787.2,-47.62C779.13,-47.62 770.94,-47.62 763.04,-47.62"/>
<polygon fill="#63b8ff" stroke="#63b8ff" points="786.99,-51.13 796.99,-47.63 786.99,-44.13 786.99,-51.13"/>
</a>
</g>
</g>
<!-- Node6 -->
<g id="Node000006" class="node">
<title>Node6</title>
<g id="a_Node000006"><a xlink:href="../../d3/d7b/iopc-lang-c_8blk.html#ac633cc5263e2185fcaaaa32bff48aade" target="_top" xlink:title=" ">
<polygon fill="white" stroke="#666666" points="296.25,-76.25 236,-76.25 236,-57 296.25,-57 296.25,-76.25"/>
<text text-anchor="middle" x="266.12" y="-62.75" font-family="Helvetica,sans-Serif" font-size="10.00">iopc_do_c</text>
</a>
</g>
</g>
<!-- Node5&#45;&gt;Node6 -->
<g id="edge5_Node000005_Node000006" class="edge">
<title>Node5&#45;&gt;Node6</title>
<g id="a_edge5_Node000005_Node000006"><a xlink:title=" ">
<path fill="none" stroke="#63b8ff" d="M639.36,-58.81C631.09,-59.92 622.74,-60.9 614.75,-61.62 497.24,-72.31 356.47,-69.59 296.5,-67.71"/>
<polygon fill="#63b8ff" stroke="#63b8ff" points="639.63,-62.31 649.04,-57.45 638.65,-55.38 639.63,-62.31"/>
</a>
</g>
</g>
<!-- Node11 -->
<g id="Node000011" class="node">
<title>Node11</title>
<g id="a_Node000011"><a xlink:href="../../d3/d7b/iopc-lang-c_8blk.html#a60e8f426c2193869d8bd3daaecdc8173" target="_top" xlink:title=" ">
<polygon fill="white" stroke="#666666" points="440.5,-57.25 332.25,-57.25 332.25,-38 440.5,-38 440.5,-57.25"/>
<text text-anchor="middle" x="386.38" y="-43.75" font-family="Helvetica,sans-Serif" font-size="10.00">iopc_iface_dump_src</text>
</a>
</g>
</g>
<!-- Node5&#45;&gt;Node11 -->
<g id="edge10_Node000005_Node000011" class="edge">
<title>Node5&#45;&gt;Node11</title>
<g id="a_edge10_Node000005_Node000011"><a xlink:title=" ">
<path fill="none" stroke="#63b8ff" d="M638.88,-47.62C579.99,-47.62 495.36,-47.62 440.87,-47.62"/>
<polygon fill="#63b8ff" stroke="#63b8ff" points="638.78,-51.13 648.78,-47.63 638.78,-44.13 638.78,-51.13"/>
</a>
</g>
</g>
<!-- Node12 -->
<g id="Node000012" class="node">
<title>Node12</title>
<g id="a_Node000012"><a xlink:href="../../d3/d7b/iopc-lang-c_8blk.html#a60e21f96951fdd7e1bbb43189cc174de" target="_top" xlink:title=" ">
<polygon fill="white" stroke="#666666" points="614.75,-19.25 476.5,-19.25 476.5,0 614.75,0 614.75,-19.25"/>
<text text-anchor="middle" x="545.62" y="-5.75" font-family="Helvetica,sans-Serif" font-size="10.00">iopc_iface_struct_dump_src</text>
</a>
</g>
</g>
<!-- Node5&#45;&gt;Node12 -->
<g id="edge12_Node000005_Node000012" class="edge">
<title>Node5&#45;&gt;Node12</title>
<g id="a_edge12_Node000005_Node000012"><a xlink:title=" ">
<path fill="none" stroke="#63b8ff" d="M652.34,-34.87C631.63,-29.92 608.26,-24.34 588.77,-19.69"/>
<polygon fill="#63b8ff" stroke="#63b8ff" points="651.51,-38.27 662.05,-37.19 653.14,-31.46 651.51,-38.27"/>
</a>
</g>
</g>
<!-- Node7 -->
<g id="Node000007" class="node">
<title>Node7</title>
<g id="a_Node000007"><a xlink:href="../../df/d1f/iopc_8c.html#a693d2e305d9102c8dd03b6bd0bf61111" target="_top" xlink:title=" ">
<polygon fill="white" stroke="#666666" points="200,-95.25 116.5,-95.25 116.5,-76 200,-76 200,-95.25"/>
<text text-anchor="middle" x="158.25" y="-81.75" font-family="Helvetica,sans-Serif" font-size="10.00">build_doit_table</text>
</a>
</g>
</g>
<!-- Node6&#45;&gt;Node7 -->
<g id="edge6_Node000006_Node000007" class="edge">
<title>Node6&#45;&gt;Node7</title>
<g id="a_edge6_Node000006_Node000007"><a xlink:title=" ">
<path fill="none" stroke="#63b8ff" d="M224.46,-73.92C216.59,-75.33 208.34,-76.82 200.45,-78.23"/>
<polygon fill="#63b8ff" stroke="#63b8ff" points="224.92,-77.4 234.14,-72.18 223.68,-70.51 224.92,-77.4"/>
</a>
</g>
</g>
<!-- Node9 -->
<g id="Node000009" class="node">
<title>Node9</title>
<g id="a_Node000009"><a xlink:href="../../db/d07/iopc-dso_8c.html#a95a19b847fb352eb92b539cf3495f093" target="_top" xlink:title=" ">
<polygon fill="white" stroke="#666666" points="188,-58.25 128.5,-58.25 128.5,-39 188,-39 188,-58.25"/>
<text text-anchor="middle" x="158.25" y="-44.75" font-family="Helvetica,sans-Serif" font-size="10.00">iopc_build</text>
</a>
</g>
</g>
<!-- Node6&#45;&gt;Node9 -->
<g id="edge8_Node000006_Node000009" class="edge">
<title>Node6&#45;&gt;Node9</title>
<g id="a_edge8_Node000006_Node000009"><a xlink:title=" ">
<path fill="none" stroke="#63b8ff" d="M224.42,-59.71C212.35,-57.65 199.38,-55.45 188.22,-53.55"/>
<polygon fill="#63b8ff" stroke="#63b8ff" points="223.7,-63.13 234.14,-61.36 224.87,-56.23 223.7,-63.13"/>
</a>
</g>
</g>
<!-- Node8 -->
<g id="Node000008" class="node">
<title>Node8</title>
<g id="a_Node000008"><a xlink:href="../../df/d1f/iopc_8c.html#a3c04138a5bfe5d72780bb7e82a18e627" target="_top" xlink:title=" ">
<polygon fill="white" stroke="#666666" points="58.75,-95.25 21.75,-95.25 21.75,-76 58.75,-76 58.75,-95.25"/>
<text text-anchor="middle" x="40.25" y="-81.75" font-family="Helvetica,sans-Serif" font-size="10.00">main</text>
</a>
</g>
</g>
<!-- Node7&#45;&gt;Node8 -->
<g id="edge7_Node000007_Node000008" class="edge">
<title>Node7&#45;&gt;Node8</title>
<g id="a_edge7_Node000007_Node000008"><a xlink:title=" ">
<path fill="none" stroke="#63b8ff" d="M104.81,-85.62C88.37,-85.62 71.34,-85.62 59.05,-85.62"/>
<polygon fill="#63b8ff" stroke="#63b8ff" points="104.51,-89.13 114.51,-85.63 104.51,-82.13 104.51,-89.13"/>
</a>
</g>
</g>
<!-- Node10 -->
<g id="Node000010" class="node">
<title>Node10</title>
<g id="a_Node000010"><a xlink:href="../../db/d07/iopc-dso_8c.html#ab2da67841232fab2872190ddabd94a81" target="_top" xlink:title="Build an IOP DSO.">
<polygon fill="white" stroke="#666666" points="80.5,-58.25 0,-58.25 0,-39 80.5,-39 80.5,-58.25"/>
<text text-anchor="middle" x="40.25" y="-44.75" font-family="Helvetica,sans-Serif" font-size="10.00">iopc_dso_build</text>
</a>
</g>
</g>
<!-- Node9&#45;&gt;Node10 -->
<g id="edge9_Node000009_Node000010" class="edge">
<title>Node9&#45;&gt;Node10</title>
<g id="a_edge9_Node000009_Node000010"><a xlink:title=" ">
<path fill="none" stroke="#63b8ff" d="M116.99,-48.62C105.26,-48.62 92.46,-48.62 80.78,-48.62"/>
<polygon fill="#63b8ff" stroke="#63b8ff" points="116.76,-52.13 126.76,-48.63 116.76,-45.13 116.76,-52.13"/>
</a>
</g>
</g>
<!-- Node11&#45;&gt;Node6 -->
<g id="edge11_Node000011_Node000006" class="edge">
<title>Node11&#45;&gt;Node6</title>
<g id="a_edge11_Node000011_Node000006"><a xlink:title=" ">
<path fill="none" stroke="#63b8ff" d="M320.7,-58.02C312.28,-59.37 304.02,-60.7 296.6,-61.89"/>
<polygon fill="#63b8ff" stroke="#63b8ff" points="320.97,-61.52 330.29,-56.48 319.86,-54.61 320.97,-61.52"/>
</a>
</g>
</g>
<!-- Node12&#45;&gt;Node11 -->
<g id="edge13_Node000012_Node000011" class="edge">
<title>Node12&#45;&gt;Node11</title>
<g id="a_edge13_Node000012_Node000011"><a xlink:title=" ">
<path fill="none" stroke="#63b8ff" d="M491.84,-22.38C471.38,-27.33 448.28,-32.91 429.02,-37.56"/>
<polygon fill="#63b8ff" stroke="#63b8ff" points="492.53,-25.82 501.43,-20.06 490.88,-19.01 492.53,-25.82"/>
</a>
</g>
</g>
<!-- Node13&#45;&gt;Node3 -->
<g id="edge15_Node000013_Node000003" class="edge">
<title>Node13&#45;&gt;Node3</title>
<g id="a_edge15_Node000013_Node000003"><a xlink:title=" ">
<path fill="none" stroke="#63b8ff" d="M1060.93,-38.71C1052.67,-39.77 1044.42,-40.83 1036.65,-41.84"/>
<polygon fill="#63b8ff" stroke="#63b8ff" points="1061.19,-42.2 1070.66,-37.45 1060.29,-35.26 1061.19,-42.2"/>
</a>
</g>
</g>
</g>
</svg>
