<?xml version="1.0" encoding="UTF-8" standalone="no"?>
<!DOCTYPE svg PUBLIC "-//W3C//DTD SVG 1.1//EN"
 "http://www.w3.org/Graphics/SVG/1.1/DTD/svg11.dtd">
<!-- Generated by graphviz version 9.0.0 (20230911.1827)
 -->
<!-- Title: t_iopc_get_aliases Pages: 1 -->
<svg width="756pt" height="65pt"
 viewBox="0.00 0.00 755.75 65.25" xmlns="http://www.w3.org/2000/svg" xmlns:xlink="http://www.w3.org/1999/xlink">
<g id="graph0" class="graph" transform="scale(1 1) rotate(0) translate(4 61.25)">
<title>t_iopc_get_aliases</title>
<!-- Node1 -->
<g id="Node000001" class="node">
<title>Node1</title>
<g id="a_Node000001"><a xlink:title=" ">
<polygon fill="#999999" stroke="#666666" points="747.75,-38.25 650.75,-38.25 650.75,-19 747.75,-19 747.75,-38.25"/>
<text text-anchor="middle" x="699.25" y="-24.75" font-family="Helvetica,sans-Serif" font-size="10.00">t_iopc_get_aliases</text>
</a>
</g>
</g>
<!-- Node2 -->
<g id="Node000002" class="node">
<title>Node2</title>
<g id="a_Node000002"><a xlink:href="../../d3/d7b/iopc-lang-c_8blk.html#a60e8f426c2193869d8bd3daaecdc8173" target="_top" xlink:title=" ">
<polygon fill="white" stroke="#666666" points="440.5,-38.25 332.25,-38.25 332.25,-19 440.5,-19 440.5,-38.25"/>
<text text-anchor="middle" x="386.38" y="-24.75" font-family="Helvetica,sans-Serif" font-size="10.00">iopc_iface_dump_src</text>
</a>
</g>
</g>
<!-- Node1&#45;&gt;Node2 -->
<g id="edge1_Node000001_Node000002" class="edge">
<title>Node1&#45;&gt;Node2</title>
<g id="a_edge1_Node000001_Node000002"><a xlink:title=" ">
<path fill="none" stroke="#63b8ff" d="M638.96,-28.62C581.76,-28.62 495.94,-28.62 440.8,-28.62"/>
<polygon fill="#63b8ff" stroke="#63b8ff" points="638.84,-32.13 648.84,-28.63 638.84,-25.13 638.84,-32.13"/>
</a>
</g>
</g>
<!-- Node8 -->
<g id="Node000008" class="node">
<title>Node8</title>
<g id="a_Node000008"><a xlink:href="../../d3/d7b/iopc-lang-c_8blk.html#a60e21f96951fdd7e1bbb43189cc174de" target="_top" xlink:title=" ">
<polygon fill="white" stroke="#666666" points="614.75,-19.25 476.5,-19.25 476.5,0 614.75,0 614.75,-19.25"/>
<text text-anchor="middle" x="545.62" y="-5.75" font-family="Helvetica,sans-Serif" font-size="10.00">iopc_iface_struct_dump_src</text>
</a>
</g>
</g>
<!-- Node1&#45;&gt;Node8 -->
<g id="edge7_Node000001_Node000008" class="edge">
<title>Node1&#45;&gt;Node8</title>
<g id="a_edge7_Node000001_Node000008"><a xlink:title=" ">
<path fill="none" stroke="#63b8ff" d="M639,-21.2C631.15,-20.22 623.05,-19.2 615.06,-18.2"/>
<polygon fill="#63b8ff" stroke="#63b8ff" points="638.42,-24.65 648.77,-22.43 639.29,-17.71 638.42,-24.65"/>
</a>
</g>
</g>
<!-- Node3 -->
<g id="Node000003" class="node">
<title>Node3</title>
<g id="a_Node000003"><a xlink:href="../../d3/d7b/iopc-lang-c_8blk.html#ac633cc5263e2185fcaaaa32bff48aade" target="_top" xlink:title=" ">
<polygon fill="white" stroke="#666666" points="296.25,-38.25 236,-38.25 236,-19 296.25,-19 296.25,-38.25"/>
<text text-anchor="middle" x="266.12" y="-24.75" font-family="Helvetica,sans-Serif" font-size="10.00">iopc_do_c</text>
</a>
</g>
</g>
<!-- Node2&#45;&gt;Node3 -->
<g id="edge2_Node000002_Node000003" class="edge">
<title>Node2&#45;&gt;Node3</title>
<g id="a_edge2_Node000002_Node000003"><a xlink:title=" ">
<path fill="none" stroke="#63b8ff" d="M320.41,-28.62C312.1,-28.62 303.94,-28.62 296.6,-28.62"/>
<polygon fill="#63b8ff" stroke="#63b8ff" points="320.27,-32.13 330.27,-28.63 320.27,-25.13 320.27,-32.13"/>
</a>
</g>
</g>
<!-- Node4 -->
<g id="Node000004" class="node">
<title>Node4</title>
<g id="a_Node000004"><a xlink:href="../../df/d1f/iopc_8c.html#a693d2e305d9102c8dd03b6bd0bf61111" target="_top" xlink:title=" ">
<polygon fill="white" stroke="#666666" points="200,-57.25 116.5,-57.25 116.5,-38 200,-38 200,-57.25"/>
<text text-anchor="middle" x="158.25" y="-43.75" font-family="Helvetica,sans-Serif" font-size="10.00">build_doit_table</text>
</a>
</g>
</g>
<!-- Node3&#45;&gt;Node4 -->
<g id="edge3_Node000003_Node000004" class="edge">
<title>Node3&#45;&gt;Node4</title>
<g id="a_edge3_Node000003_Node000004"><a xlink:title=" ">
<path fill="none" stroke="#63b8ff" d="M224.46,-35.92C216.59,-37.33 208.34,-38.82 200.45,-40.23"/>
<polygon fill="#63b8ff" stroke="#63b8ff" points="224.92,-39.4 234.14,-34.18 223.68,-32.51 224.92,-39.4"/>
</a>
</g>
</g>
<!-- Node6 -->
<g id="Node000006" class="node">
<title>Node6</title>
<g id="a_Node000006"><a xlink:href="../../db/d07/iopc-dso_8c.html#a95a19b847fb352eb92b539cf3495f093" target="_top" xlink:title=" ">
<polygon fill="white" stroke="#666666" points="188,-20.25 128.5,-20.25 128.5,-1 188,-1 188,-20.25"/>
<text text-anchor="middle" x="158.25" y="-6.75" font-family="Helvetica,sans-Serif" font-size="10.00">iopc_build</text>
</a>
</g>
</g>
<!-- Node3&#45;&gt;Node6 -->
<g id="edge5_Node000003_Node000006" class="edge">
<title>Node3&#45;&gt;Node6</title>
<g id="a_edge5_Node000003_Node000006"><a xlink:title=" ">
<path fill="none" stroke="#63b8ff" d="M224.42,-21.71C212.35,-19.65 199.38,-17.45 188.22,-15.55"/>
<polygon fill="#63b8ff" stroke="#63b8ff" points="223.7,-25.13 234.14,-23.36 224.87,-18.23 223.7,-25.13"/>
</a>
</g>
</g>
<!-- Node5 -->
<g id="Node000005" class="node">
<title>Node5</title>
<g id="a_Node000005"><a xlink:href="../../df/d1f/iopc_8c.html#a3c04138a5bfe5d72780bb7e82a18e627" target="_top" xlink:title=" ">
<polygon fill="white" stroke="#666666" points="58.75,-57.25 21.75,-57.25 21.75,-38 58.75,-38 58.75,-57.25"/>
<text text-anchor="middle" x="40.25" y="-43.75" font-family="Helvetica,sans-Serif" font-size="10.00">main</text>
</a>
</g>
</g>
<!-- Node4&#45;&gt;Node5 -->
<g id="edge4_Node000004_Node000005" class="edge">
<title>Node4&#45;&gt;Node5</title>
<g id="a_edge4_Node000004_Node000005"><a xlink:title=" ">
<path fill="none" stroke="#63b8ff" d="M104.81,-47.62C88.37,-47.62 71.34,-47.62 59.05,-47.62"/>
<polygon fill="#63b8ff" stroke="#63b8ff" points="104.51,-51.13 114.51,-47.63 104.51,-44.13 104.51,-51.13"/>
</a>
</g>
</g>
<!-- Node7 -->
<g id="Node000007" class="node">
<title>Node7</title>
<g id="a_Node000007"><a xlink:href="../../db/d07/iopc-dso_8c.html#ab2da67841232fab2872190ddabd94a81" target="_top" xlink:title="Build an IOP DSO.">
<polygon fill="white" stroke="#666666" points="80.5,-20.25 0,-20.25 0,-1 80.5,-1 80.5,-20.25"/>
<text text-anchor="middle" x="40.25" y="-6.75" font-family="Helvetica,sans-Serif" font-size="10.00">iopc_dso_build</text>
</a>
</g>
</g>
<!-- Node6&#45;&gt;Node7 -->
<g id="edge6_Node000006_Node000007" class="edge">
<title>Node6&#45;&gt;Node7</title>
<g id="a_edge6_Node000006_Node000007"><a xlink:title=" ">
<path fill="none" stroke="#63b8ff" d="M116.99,-10.62C105.26,-10.62 92.46,-10.62 80.78,-10.62"/>
<polygon fill="#63b8ff" stroke="#63b8ff" points="116.76,-14.13 126.76,-10.63 116.76,-7.13 116.76,-14.13"/>
</a>
</g>
</g>
<!-- Node8&#45;&gt;Node2 -->
<g id="edge8_Node000008_Node000002" class="edge">
<title>Node8&#45;&gt;Node2</title>
<g id="a_edge8_Node000008_Node000002"><a xlink:title=" ">
<path fill="none" stroke="#63b8ff" d="M464.88,-19.26C456.62,-20.26 448.39,-21.25 440.53,-22.2"/>
<polygon fill="#63b8ff" stroke="#63b8ff" points="465.1,-22.76 474.61,-18.08 464.26,-15.81 465.1,-22.76"/>
</a>
</g>
</g>
</g>
</svg>
