<?xml version="1.0" encoding="UTF-8" standalone="no"?>
<!DOCTYPE svg PUBLIC "-//W3C//DTD SVG 1.1//EN"
 "http://www.w3.org/Graphics/SVG/1.1/DTD/svg11.dtd">
<!-- Generated by graphviz version 9.0.0 (20230911.1827)
 -->
<!-- Title: iopc_fun_has_alias Pages: 1 -->
<svg width="710pt" height="64pt"
 viewBox="0.00 0.00 710.00 64.25" xmlns="http://www.w3.org/2000/svg" xmlns:xlink="http://www.w3.org/1999/xlink">
<g id="graph0" class="graph" transform="scale(1 1) rotate(0) translate(4 60.25)">
<title>iopc_fun_has_alias</title>
<!-- Node1 -->
<g id="Node000001" class="node">
<title>Node1</title>
<g id="a_Node000001"><a xlink:title=" ">
<polygon fill="#999999" stroke="#666666" points="702,-37.25 602.75,-37.25 602.75,-18 702,-18 702,-37.25"/>
<text text-anchor="middle" x="652.38" y="-23.75" font-family="Helvetica,sans-Serif" font-size="10.00">iopc_fun_has_alias</text>
</a>
</g>
</g>
<!-- Node2 -->
<g id="Node000002" class="node">
<title>Node2</title>
<g id="a_Node000002"><a xlink:href="../../d3/d7b/iopc-lang-c_8blk.html#a8c3873f23ee29c3fed247408a9fad4d9" target="_top" xlink:title=" ">
<polygon fill="white" stroke="#666666" points="566.75,-37.25 476.5,-37.25 476.5,-18 566.75,-18 566.75,-37.25"/>
<text text-anchor="middle" x="521.62" y="-23.75" font-family="Helvetica,sans-Serif" font-size="10.00">iopc_register_fun</text>
</a>
</g>
</g>
<!-- Node1&#45;&gt;Node2 -->
<g id="edge1_Node000001_Node000002" class="edge">
<title>Node1&#45;&gt;Node2</title>
<g id="a_edge1_Node000001_Node000002"><a xlink:title=" ">
<path fill="none" stroke="#63b8ff" d="M590.97,-27.62C582.85,-27.62 574.65,-27.62 566.89,-27.62"/>
<polygon fill="#63b8ff" stroke="#63b8ff" points="590.82,-31.13 600.82,-27.63 590.82,-24.13 590.82,-31.13"/>
</a>
</g>
</g>
<!-- Node3 -->
<g id="Node000003" class="node">
<title>Node3</title>
<g id="a_Node000003"><a xlink:href="../../d3/d7b/iopc-lang-c_8blk.html#a60e8f426c2193869d8bd3daaecdc8173" target="_top" xlink:title=" ">
<polygon fill="white" stroke="#666666" points="440.5,-37.25 332.25,-37.25 332.25,-18 440.5,-18 440.5,-37.25"/>
<text text-anchor="middle" x="386.38" y="-23.75" font-family="Helvetica,sans-Serif" font-size="10.00">iopc_iface_dump_src</text>
</a>
</g>
</g>
<!-- Node2&#45;&gt;Node3 -->
<g id="edge2_Node000002_Node000003" class="edge">
<title>Node2&#45;&gt;Node3</title>
<g id="a_edge2_Node000002_Node000003"><a xlink:title=" ">
<path fill="none" stroke="#63b8ff" d="M464.82,-27.62C456.87,-27.62 448.71,-27.62 440.81,-27.62"/>
<polygon fill="#63b8ff" stroke="#63b8ff" points="464.74,-31.13 474.74,-27.63 464.74,-24.13 464.74,-31.13"/>
</a>
</g>
</g>
<!-- Node4 -->
<g id="Node000004" class="node">
<title>Node4</title>
<g id="a_Node000004"><a xlink:href="../../d3/d7b/iopc-lang-c_8blk.html#ac633cc5263e2185fcaaaa32bff48aade" target="_top" xlink:title=" ">
<polygon fill="white" stroke="#666666" points="296.25,-37.25 236,-37.25 236,-18 296.25,-18 296.25,-37.25"/>
<text text-anchor="middle" x="266.12" y="-23.75" font-family="Helvetica,sans-Serif" font-size="10.00">iopc_do_c</text>
</a>
</g>
</g>
<!-- Node3&#45;&gt;Node4 -->
<g id="edge3_Node000003_Node000004" class="edge">
<title>Node3&#45;&gt;Node4</title>
<g id="a_edge3_Node000003_Node000004"><a xlink:title=" ">
<path fill="none" stroke="#63b8ff" d="M320.41,-27.62C312.1,-27.62 303.94,-27.62 296.6,-27.62"/>
<polygon fill="#63b8ff" stroke="#63b8ff" points="320.27,-31.13 330.27,-27.63 320.27,-24.13 320.27,-31.13"/>
</a>
</g>
</g>
<!-- Node5 -->
<g id="Node000005" class="node">
<title>Node5</title>
<g id="a_Node000005"><a xlink:href="../../df/d1f/iopc_8c.html#a693d2e305d9102c8dd03b6bd0bf61111" target="_top" xlink:title=" ">
<polygon fill="white" stroke="#666666" points="200,-56.25 116.5,-56.25 116.5,-37 200,-37 200,-56.25"/>
<text text-anchor="middle" x="158.25" y="-42.75" font-family="Helvetica,sans-Serif" font-size="10.00">build_doit_table</text>
</a>
</g>
</g>
<!-- Node4&#45;&gt;Node5 -->
<g id="edge4_Node000004_Node000005" class="edge">
<title>Node4&#45;&gt;Node5</title>
<g id="a_edge4_Node000004_Node000005"><a xlink:title=" ">
<path fill="none" stroke="#63b8ff" d="M224.46,-34.92C216.59,-36.33 208.34,-37.82 200.45,-39.23"/>
<polygon fill="#63b8ff" stroke="#63b8ff" points="224.92,-38.4 234.14,-33.18 223.68,-31.51 224.92,-38.4"/>
</a>
</g>
</g>
<!-- Node7 -->
<g id="Node000007" class="node">
<title>Node7</title>
<g id="a_Node000007"><a xlink:href="../../db/d07/iopc-dso_8c.html#a95a19b847fb352eb92b539cf3495f093" target="_top" xlink:title=" ">
<polygon fill="white" stroke="#666666" points="188,-19.25 128.5,-19.25 128.5,0 188,0 188,-19.25"/>
<text text-anchor="middle" x="158.25" y="-5.75" font-family="Helvetica,sans-Serif" font-size="10.00">iopc_build</text>
</a>
</g>
</g>
<!-- Node4&#45;&gt;Node7 -->
<g id="edge6_Node000004_Node000007" class="edge">
<title>Node4&#45;&gt;Node7</title>
<g id="a_edge6_Node000004_Node000007"><a xlink:title=" ">
<path fill="none" stroke="#63b8ff" d="M224.42,-20.71C212.35,-18.65 199.38,-16.45 188.22,-14.55"/>
<polygon fill="#63b8ff" stroke="#63b8ff" points="223.7,-24.13 234.14,-22.36 224.87,-17.23 223.7,-24.13"/>
</a>
</g>
</g>
<!-- Node6 -->
<g id="Node000006" class="node">
<title>Node6</title>
<g id="a_Node000006"><a xlink:href="../../df/d1f/iopc_8c.html#a3c04138a5bfe5d72780bb7e82a18e627" target="_top" xlink:title=" ">
<polygon fill="white" stroke="#666666" points="58.75,-56.25 21.75,-56.25 21.75,-37 58.75,-37 58.75,-56.25"/>
<text text-anchor="middle" x="40.25" y="-42.75" font-family="Helvetica,sans-Serif" font-size="10.00">main</text>
</a>
</g>
</g>
<!-- Node5&#45;&gt;Node6 -->
<g id="edge5_Node000005_Node000006" class="edge">
<title>Node5&#45;&gt;Node6</title>
<g id="a_edge5_Node000005_Node000006"><a xlink:title=" ">
<path fill="none" stroke="#63b8ff" d="M104.81,-46.62C88.37,-46.62 71.34,-46.62 59.05,-46.62"/>
<polygon fill="#63b8ff" stroke="#63b8ff" points="104.51,-50.13 114.51,-46.63 104.51,-43.13 104.51,-50.13"/>
</a>
</g>
</g>
<!-- Node8 -->
<g id="Node000008" class="node">
<title>Node8</title>
<g id="a_Node000008"><a xlink:href="../../db/d07/iopc-dso_8c.html#ab2da67841232fab2872190ddabd94a81" target="_top" xlink:title="Build an IOP DSO.">
<polygon fill="white" stroke="#666666" points="80.5,-19.25 0,-19.25 0,0 80.5,0 80.5,-19.25"/>
<text text-anchor="middle" x="40.25" y="-5.75" font-family="Helvetica,sans-Serif" font-size="10.00">iopc_dso_build</text>
</a>
</g>
</g>
<!-- Node7&#45;&gt;Node8 -->
<g id="edge7_Node000007_Node000008" class="edge">
<title>Node7&#45;&gt;Node8</title>
<g id="a_edge7_Node000007_Node000008"><a xlink:title=" ">
<path fill="none" stroke="#63b8ff" d="M116.99,-9.62C105.26,-9.62 92.46,-9.62 80.78,-9.62"/>
<polygon fill="#63b8ff" stroke="#63b8ff" points="116.76,-13.13 126.76,-9.63 116.76,-6.13 116.76,-13.13"/>
</a>
</g>
</g>
</g>
</svg>
