<?xml version="1.0" encoding="UTF-8" standalone="no"?>
<!DOCTYPE svg PUBLIC "-//W3C//DTD SVG 1.1//EN"
 "http://www.w3.org/Graphics/SVG/1.1/DTD/svg11.dtd">
<!-- Generated by graphviz version 9.0.0 (20230911.1827)
 -->
<!-- Title: sha2_hex Pages: 1 -->
<svg width="322pt" height="119pt"
 viewBox="0.00 0.00 322.25 119.25" xmlns="http://www.w3.org/2000/svg" xmlns:xlink="http://www.w3.org/1999/xlink">
<g id="graph0" class="graph" transform="scale(1 1) rotate(0) translate(4 115.25)">
<title>sha2_hex</title>
<!-- Node1 -->
<g id="Node000001" class="node">
<title>Node1</title>
<g id="a_Node000001"><a xlink:title=" ">
<polygon fill="#999999" stroke="#666666" points="57.25,-56.25 0,-56.25 0,-37 57.25,-37 57.25,-56.25"/>
<text text-anchor="middle" x="28.62" y="-42.75" font-family="Helvetica,sans-Serif" font-size="10.00">sha2_hex</text>
</a>
</g>
</g>
<!-- Node2 -->
<g id="Node000002" class="node">
<title>Node2</title>
<g id="a_Node000002"><a xlink:href="../../d3/d80/sha2_8c.html#ae67b31e61956a129dd5574d12b99cd62" target="_top" xlink:title=" ">
<polygon fill="white" stroke="#666666" points="178.25,-93.25 93.25,-93.25 93.25,-74 178.25,-74 178.25,-93.25"/>
<text text-anchor="middle" x="135.75" y="-79.75" font-family="Helvetica,sans-Serif" font-size="10.00">sha2_finish_hex</text>
</a>
</g>
</g>
<!-- Node1&#45;&gt;Node2 -->
<g id="edge1_Node000001_Node000002" class="edge">
<title>Node1&#45;&gt;Node2</title>
<g id="a_edge1_Node000001_Node000002"><a xlink:title=" ">
<path fill="none" stroke="#63b8ff" d="M57.52,-56.44C69.09,-60.52 82.73,-65.32 95.3,-69.74"/>
<polygon fill="#63b8ff" stroke="#63b8ff" points="93.97,-72.98 104.56,-73 96.29,-66.38 93.97,-72.98"/>
</a>
</g>
</g>
<!-- Node5 -->
<g id="Node000005" class="node">
<title>Node5</title>
<g id="a_Node000005"><a xlink:href="../../db/d4d/sha2_8h.html#ac99af3f1af0ecf5ac3f233f88630c09b" target="_top" xlink:title="SHA&#45;256 context setup.">
<polygon fill="white" stroke="#666666" points="169.25,-56.25 102.25,-56.25 102.25,-37 169.25,-37 169.25,-56.25"/>
<text text-anchor="middle" x="135.75" y="-42.75" font-family="Helvetica,sans-Serif" font-size="10.00">sha2_starts</text>
</a>
</g>
</g>
<!-- Node1&#45;&gt;Node5 -->
<g id="edge4_Node000001_Node000005" class="edge">
<title>Node1&#45;&gt;Node5</title>
<g id="a_edge4_Node000001_Node000005"><a xlink:title=" ">
<path fill="none" stroke="#63b8ff" d="M57.52,-46.62C67.63,-46.62 79.32,-46.62 90.5,-46.62"/>
<polygon fill="#63b8ff" stroke="#63b8ff" points="90.35,-50.13 100.35,-46.63 90.35,-43.13 90.35,-50.13"/>
</a>
</g>
</g>
<!-- Node6 -->
<g id="Node000006" class="node">
<title>Node6</title>
<g id="a_Node000006"><a xlink:href="../../db/d4d/sha2_8h.html#aceb5bcd54a780d24a10fd45696db9e84" target="_top" xlink:title="SHA&#45;256 process buffer.">
<polygon fill="white" stroke="#666666" points="171.5,-19.25 100,-19.25 100,0 171.5,0 171.5,-19.25"/>
<text text-anchor="middle" x="135.75" y="-5.75" font-family="Helvetica,sans-Serif" font-size="10.00">sha2_update</text>
</a>
</g>
</g>
<!-- Node1&#45;&gt;Node6 -->
<g id="edge5_Node000001_Node000006" class="edge">
<title>Node1&#45;&gt;Node6</title>
<g id="a_edge5_Node000001_Node000006"><a xlink:title=" ">
<path fill="none" stroke="#63b8ff" d="M57.52,-36.81C69.09,-32.73 82.73,-27.93 95.3,-23.51"/>
<polygon fill="#63b8ff" stroke="#63b8ff" points="96.29,-26.87 104.56,-20.25 93.97,-20.27 96.29,-26.87"/>
</a>
</g>
</g>
<!-- Node3 -->
<g id="Node000003" class="node">
<title>Node3</title>
<g id="a_Node000003"><a xlink:href="../../db/d4d/sha2_8h.html#aec208a978984c9ee28547eb3caa7d8fd" target="_top" xlink:title="SHA&#45;256 final digest.">
<polygon fill="white" stroke="#666666" points="296.62,-111.25 231.88,-111.25 231.88,-92 296.62,-92 296.62,-111.25"/>
<text text-anchor="middle" x="264.25" y="-97.75" font-family="Helvetica,sans-Serif" font-size="10.00">sha2_finish</text>
</a>
</g>
</g>
<!-- Node2&#45;&gt;Node3 -->
<g id="edge2_Node000002_Node000003" class="edge">
<title>Node2&#45;&gt;Node3</title>
<g id="a_edge2_Node000002_Node000003"><a xlink:title=" ">
<path fill="none" stroke="#63b8ff" d="M178.52,-89.57C192.02,-91.49 206.99,-93.62 220.55,-95.55"/>
<polygon fill="#63b8ff" stroke="#63b8ff" points="219.65,-98.96 230.04,-96.9 220.64,-92.03 219.65,-98.96"/>
</a>
</g>
</g>
<!-- Node4 -->
<g id="Node000004" class="node">
<title>Node4</title>
<g id="a_Node000004"><a xlink:href="../../d4/d9a/str-conv_8c.html#aa26f0cf99ca505cfe76df2ad16e5ada7" target="_top" xlink:title=" ">
<polygon fill="white" stroke="#666666" points="314.25,-74.25 214.25,-74.25 214.25,-55 314.25,-55 314.25,-74.25"/>
<text text-anchor="middle" x="264.25" y="-60.75" font-family="Helvetica,sans-Serif" font-size="10.00">strconv_hexencode</text>
</a>
</g>
</g>
<!-- Node2&#45;&gt;Node4 -->
<g id="edge3_Node000002_Node000004" class="edge">
<title>Node2&#45;&gt;Node4</title>
<g id="a_edge3_Node000002_Node000004"><a xlink:title=" ">
<path fill="none" stroke="#63b8ff" d="M178.52,-77.35C186.34,-76.18 194.65,-74.93 202.9,-73.69"/>
<polygon fill="#63b8ff" stroke="#63b8ff" points="203.19,-77.19 212.56,-72.24 202.15,-70.26 203.19,-77.19"/>
</a>
</g>
</g>
</g>
</svg>
