<?xml version="1.0" encoding="UTF-8" standalone="no"?>
<!DOCTYPE svg PUBLIC "-//W3C//DTD SVG 1.1//EN"
 "http://www.w3.org/Graphics/SVG/1.1/DTD/svg11.dtd">
<!-- Generated by graphviz version 9.0.0 (20230911.1827)
 -->
<!-- Title: qps_encode Pages: 1 -->
<svg width="279pt" height="27pt"
 viewBox="0.00 0.00 278.75 27.25" xmlns="http://www.w3.org/2000/svg" xmlns:xlink="http://www.w3.org/1999/xlink">
<g id="graph0" class="graph" transform="scale(1 1) rotate(0) translate(4 23.25)">
<title>qps_encode</title>
<!-- Node1 -->
<g id="Node000001" class="node">
<title>Node1</title>
<g id="a_Node000001"><a xlink:title=" ">
<polygon fill="#999999" stroke="#666666" points="68.5,-19.25 0,-19.25 0,0 68.5,0 68.5,-19.25"/>
<text text-anchor="middle" x="34.25" y="-5.75" font-family="Helvetica,sans-Serif" font-size="10.00">qps_encode</text>
</a>
</g>
</g>
<!-- Node2 -->
<g id="Node000002" class="node">
<title>Node2</title>
<g id="a_Node000002"><a xlink:href="../../d4/d36/group__qkv____ll____qps.html#ga0cacf28e3b58a4dafde8dd8842d032bd" target="_top" xlink:title=" ">
<polygon fill="white" stroke="#666666" points="165.5,-19.25 104.5,-19.25 104.5,0 165.5,0 165.5,-19.25"/>
<text text-anchor="middle" x="135" y="-5.75" font-family="Helvetica,sans-Serif" font-size="10.00">qps_pg_of</text>
</a>
</g>
</g>
<!-- Node1&#45;&gt;Node2 -->
<g id="edge1_Node000001_Node000002" class="edge">
<title>Node1&#45;&gt;Node2</title>
<g id="a_edge1_Node000001_Node000002"><a xlink:title=" ">
<path fill="none" stroke="#63b8ff" d="M68.96,-9.62C76.62,-9.62 84.84,-9.62 92.77,-9.62"/>
<polygon fill="#63b8ff" stroke="#63b8ff" points="92.57,-13.13 102.57,-9.63 92.57,-6.13 92.57,-13.13"/>
</a>
</g>
</g>
<!-- Node3 -->
<g id="Node000003" class="node">
<title>Node3</title>
<g id="a_Node000003"><a xlink:href="../../d4/d36/group__qkv____ll____qps.html#ga764bdc449f42c744648a47799fc40354" target="_top" xlink:title=" ">
<polygon fill="white" stroke="#666666" points="270.75,-19.25 201.5,-19.25 201.5,0 270.75,0 270.75,-19.25"/>
<text text-anchor="middle" x="236.12" y="-5.75" font-family="Helvetica,sans-Serif" font-size="10.00">qps_map_of</text>
</a>
</g>
</g>
<!-- Node2&#45;&gt;Node3 -->
<g id="edge2_Node000002_Node000003" class="edge">
<title>Node2&#45;&gt;Node3</title>
<g id="a_edge2_Node000002_Node000003"><a xlink:title=" ">
<path fill="none" stroke="#63b8ff" d="M165.74,-9.62C173.34,-9.62 181.68,-9.62 189.86,-9.62"/>
<polygon fill="#63b8ff" stroke="#63b8ff" points="189.72,-13.13 199.72,-9.63 189.72,-6.13 189.72,-13.13"/>
</a>
</g>
</g>
</g>
</svg>
