<?xml version="1.0" encoding="UTF-8" standalone="no"?>
<!DOCTYPE svg PUBLIC "-//W3C//DTD SVG 1.1//EN"
 "http://www.w3.org/Graphics/SVG/1.1/DTD/svg11.dtd">
<!-- Generated by graphviz version 9.0.0 (20230911.1827)
 -->
<!-- Title: t_iop_union_to_schema_object Pages: 1 -->
<!--zoomable 209 -->

<svg id="main" version="1.1" xmlns="http://www.w3.org/2000/svg" xmlns:xlink="http://www.w3.org/1999/xlink" xml:space="preserve" onload="init(evt)">
<style type="text/css"><![CDATA[
.node, .edge {opacity: 0.7;}
.node.selected, .edge.selected {opacity: 1;}
.edge:hover path { stroke: red; }
.edge:hover polygon { stroke: red; fill: red; }
]]></style>

<defs>
  <circle id="rim" cx="0" cy="0" r="7"/>
  <circle id="rim2" cx="0" cy="0" r="3.5"/>
  <g id="zoomPlus">
    <use xlink:href="#rim" fill="#404040"><set attributeName="fill" to="#808080" begin="zoomplus.mouseover" end="zoomplus.mouseout"/></use>
    <path d="M-4,0h8M0,-4v8" fill="none" stroke="white" stroke-width="1.5" pointer-events="none"/>
  </g>
  <g id="zoomMin">
    <use xlink:href="#rim" fill="#404040"><set attributeName="fill" to="#808080" begin="zoomminus.mouseover" end="zoomminus.mouseout"/></use>
    <path d="M-4,0h8" fill="none" stroke="white" stroke-width="1.5" pointer-events="none"/>
  </g>
  <g id="arrowUp" transform="translate(30 24)">
    <use xlink:href="#rim"/>
    <path pointer-events="none" fill="none" stroke="white" stroke-width="1.5" d="M0,-3.0v7 M-2.5,-0.5L0,-3.0L2.5,-0.5"/>
  </g>
  <g id="arrowRight" transform="rotate(90) translate(36 -43)">
    <use xlink:href="#rim"/>
    <path pointer-events="none" fill="none" stroke="white" stroke-width="1.5" d="M0,-3.0v7 M-2.5,-0.5L0,-3.0L2.5,-0.5"/>
  </g>
  <g id="arrowDown" transform="rotate(180) translate(-30 -48)">
    <use xlink:href="#rim"/>
    <path pointer-events="none" fill="none" stroke="white" stroke-width="1.5" d="M0,-3.0v7 M-2.5,-0.5L0,-3.0L2.5,-0.5"/>
  </g>
  <g id="arrowLeft" transform="rotate(270) translate(-36 17)">
    <use xlink:href="#rim"/>
    <path pointer-events="none" fill="none" stroke="white" stroke-width="1.5" d="M0,-3.0v7 M-2.5,-0.5L0,-3.0L2.5,-0.5"/>
  </g>
  <g id="resetDef">
    <use xlink:href="#rim2" fill="#404040"><set attributeName="fill" to="#808080" begin="reset.mouseover" end="reset.mouseout"/></use>
  </g>
</defs>
<script type="application/ecmascript">
var viewWidth = 1010;
var viewHeight = 209;
var sectionId = 'dynsection-52';
</script>
<script type="application/ecmascript" xlink:href="../../svg.min.js"/>
<svg id="graph" class="graph">
<g id="viewport">
<title>t_iop_union_to_schema_object</title>
<!-- Node1 -->
<g id="Node000001" class="node">
<title>Node1</title>
<g id="a_Node000001"><a xlink:title=" ">
<polygon fill="#999999" stroke="#666666" points="1001.5,-56.51 882.75,-56.51 882.75,-26.01 1001.5,-26.01 1001.5,-56.51"/>
<text text-anchor="start" x="890.75" y="-43.01" font-family="Helvetica,sans-Serif" font-size="10.00">t_iop_union_to_schema</text>
<text text-anchor="middle" x="942.12" y="-31.76" font-family="Helvetica,sans-Serif" font-size="10.00">_object</text>
</a>
</g>
</g>
<!-- Node2 -->
<g id="Node000002" class="node">
<title>Node2</title>
<g id="a_Node000002"><a xlink:href="../../d2/dff/openapi_8blk.html#af2fda2b3c1e1fe8fedd3c3e57801ac8b" target="_top" xlink:title=" ">
<polygon fill="white" stroke="#666666" points="846.75,-99.51 726.5,-99.51 726.5,-69.01 846.75,-69.01 846.75,-99.51"/>
<text text-anchor="start" x="734.5" y="-86.01" font-family="Helvetica,sans-Serif" font-size="10.00">t_iop_struct_to_schema</text>
<text text-anchor="middle" x="786.62" y="-74.76" font-family="Helvetica,sans-Serif" font-size="10.00">_object</text>
</a>
</g>
</g>
<!-- Node1&#45;&gt;Node2 -->
<g id="edge1_Node000001_Node000002" class="edge">
<title>Node1&#45;&gt;Node2</title>
<g id="a_edge1_Node000001_Node000002"><a xlink:title=" ">
<path fill="none" stroke="#63b8ff" d="M874.32,-59.97C864.1,-62.83 853.65,-65.76 843.69,-68.55"/>
<polygon fill="#63b8ff" stroke="#63b8ff" points="875.13,-63.38 883.82,-57.31 873.24,-56.64 875.13,-63.38"/>
</a>
</g>
</g>
<!-- Node2&#45;&gt;Node2 -->
<g id="edge13_Node000002_Node000002" class="edge">
<title>Node2&#45;&gt;Node2</title>
<g id="a_edge13_Node000002_Node000002"><a xlink:title=" ">
<path fill="none" stroke="#63b8ff" d="M812.7,-111.21C808.44,-114.98 799.75,-117.51 786.62,-117.51 762.63,-117.51 753.45,-109.06 759.07,-99.99"/>
<polygon fill="#63b8ff" stroke="#63b8ff" points="816.15,-111.87 813.98,-101.49 809.21,-110.95 816.15,-111.87"/>
</a>
</g>
</g>
<!-- Node3 -->
<g id="Node000003" class="node">
<title>Node3</title>
<g id="a_Node000003"><a xlink:href="../../d2/dff/openapi_8blk.html#a695ffde2272f2282225f928f56ddd9c3" target="_top" xlink:title=" ">
<polygon fill="white" stroke="#666666" points="688.62,-151.51 565.38,-151.51 565.38,-121.01 688.62,-121.01 688.62,-151.51"/>
<text text-anchor="start" x="573.38" y="-138.01" font-family="Helvetica,sans-Serif" font-size="10.00">t_class_field_to_schema</text>
<text text-anchor="middle" x="627" y="-126.76" font-family="Helvetica,sans-Serif" font-size="10.00">_object</text>
</a>
</g>
</g>
<!-- Node2&#45;&gt;Node3 -->
<g id="edge2_Node000002_Node000003" class="edge">
<title>Node2&#45;&gt;Node3</title>
<g id="a_edge2_Node000002_Node000003"><a xlink:title=" ">
<path fill="none" stroke="#63b8ff" d="M726.99,-103.6C710.04,-109.19 691.75,-115.23 675.56,-120.57"/>
<polygon fill="#63b8ff" stroke="#63b8ff" points="728.07,-106.93 736.47,-100.47 725.87,-100.28 728.07,-106.93"/>
</a>
</g>
</g>
<!-- Node4 -->
<g id="Node000004" class="node">
<title>Node4</title>
<g id="a_Node000004"><a xlink:href="../../d2/dff/openapi_8blk.html#a6a422477738166de31af8622dd9b1123" target="_top" xlink:title=" ">
<polygon fill="white" stroke="#666666" points="527.5,-99.51 414.75,-99.51 414.75,-69.01 527.5,-69.01 527.5,-99.51"/>
<text text-anchor="start" x="422.75" y="-86.01" font-family="Helvetica,sans-Serif" font-size="10.00">t_iop_field_to_schema</text>
<text text-anchor="middle" x="471.12" y="-74.76" font-family="Helvetica,sans-Serif" font-size="10.00">_object</text>
</a>
</g>
</g>
<!-- Node2&#45;&gt;Node4 -->
<g id="edge6_Node000002_Node000004" class="edge">
<title>Node2&#45;&gt;Node4</title>
<g id="a_edge6_Node000002_Node000004"><a xlink:title=" ">
<path fill="none" stroke="#63b8ff" d="M714.91,-78.51C658.31,-77.04 580.01,-77.19 527.8,-78.95"/>
<polygon fill="#63b8ff" stroke="#63b8ff" points="714.68,-82 724.78,-78.79 714.88,-75.01 714.68,-82"/>
</a>
</g>
</g>
<!-- Node5 -->
<g id="Node000005" class="node">
<title>Node5</title>
<g id="a_Node000005"><a xlink:href="../../d2/dff/openapi_8blk.html#ab995e548f9f8be680b65f69b0aaafb6f" target="_top" xlink:title=" ">
<polygon fill="white" stroke="#666666" points="690.5,-46.88 563.5,-46.88 563.5,-27.63 690.5,-27.63 690.5,-46.88"/>
<text text-anchor="middle" x="627" y="-33.38" font-family="Helvetica,sans-Serif" font-size="10.00">t_iop_openapi_add_struct</text>
</a>
</g>
</g>
<!-- Node2&#45;&gt;Node5 -->
<g id="edge7_Node000002_Node000005" class="edge">
<title>Node2&#45;&gt;Node5</title>
<g id="a_edge7_Node000002_Node000005"><a xlink:title=" ">
<path fill="none" stroke="#63b8ff" d="M722.2,-65.35C701.6,-59.2 679.53,-52.62 661.94,-47.38"/>
<polygon fill="#63b8ff" stroke="#63b8ff" points="721.1,-68.67 731.69,-68.17 723.1,-61.96 721.1,-68.67"/>
</a>
</g>
</g>
<!-- Node6 -->
<g id="Node000006" class="node">
<title>Node6</title>
<g id="a_Node000006"><a xlink:href="../../d2/dff/openapi_8blk.html#a9df34cf35d5db78f417db2cc143d54e2" target="_top" xlink:title=" ">
<polygon fill="white" stroke="#666666" points="684.12,-200.51 569.88,-200.51 569.88,-170.01 684.12,-170.01 684.12,-200.51"/>
<text text-anchor="start" x="577.88" y="-187.01" font-family="Helvetica,sans-Serif" font-size="10.00">t_iop_rpc_to_operation</text>
<text text-anchor="middle" x="627" y="-175.76" font-family="Helvetica,sans-Serif" font-size="10.00">_object</text>
</a>
</g>
</g>
<!-- Node2&#45;&gt;Node6 -->
<g id="edge8_Node000002_Node000006" class="edge">
<title>Node2&#45;&gt;Node6</title>
<g id="a_edge8_Node000002_Node000006"><a xlink:title=" ">
<path fill="none" stroke="#63b8ff" d="M760.85,-107.43C742.47,-123.75 716.25,-145.27 690.5,-160.26 684.64,-163.67 678.23,-166.82 671.82,-169.65"/>
<polygon fill="#63b8ff" stroke="#63b8ff" points="763,-110.2 768.08,-100.9 758.31,-105.01 763,-110.2"/>
</a>
</g>
</g>
<!-- Node3&#45;&gt;Node4 -->
<g id="edge3_Node000003_Node000004" class="edge">
<title>Node3&#45;&gt;Node4</title>
<g id="a_edge3_Node000003_Node000004"><a xlink:title=" ">
<path fill="none" stroke="#63b8ff" d="M568.76,-116.91C552.21,-111.32 534.36,-105.29 518.55,-99.95"/>
<polygon fill="#63b8ff" stroke="#63b8ff" points="567.39,-120.14 577.98,-120.03 569.63,-113.51 567.39,-120.14"/>
</a>
</g>
</g>
<!-- Node4&#45;&gt;Node1 -->
<g id="edge5_Node000004_Node000001" class="edge">
<title>Node4&#45;&gt;Node1</title>
<g id="a_edge5_Node000004_Node000001"><a xlink:title=" ">
<path fill="none" stroke="#63b8ff" d="M495.48,-60.96C512.67,-45.54 537.5,-26.67 563.5,-18.26 673.65,17.36 811.12,-6.97 886.08,-25.58"/>
<polygon fill="#63b8ff" stroke="#63b8ff" points="493.27,-58.24 488.32,-67.61 498.03,-63.37 493.27,-58.24"/>
</a>
</g>
</g>
<!-- Node4&#45;&gt;Node2 -->
<g id="edge4_Node000004_Node000002" class="edge">
<title>Node4&#45;&gt;Node2</title>
<g id="a_edge4_Node000004_Node000002"><a xlink:title=" ">
<path fill="none" stroke="#63b8ff" d="M539.29,-89.91C594.85,-91.45 673.01,-91.37 726.29,-89.68"/>
<polygon fill="#63b8ff" stroke="#63b8ff" points="539.41,-86.41 529.31,-89.61 539.2,-93.41 539.41,-86.41"/>
</a>
</g>
</g>
<!-- Node7 -->
<g id="Node000007" class="node">
<title>Node7</title>
<g id="a_Node000007"><a xlink:href="../../d2/dff/openapi_8blk.html#a02e859879d378502e6c7bb3b2ac8bd18" target="_top" xlink:title=" ">
<polygon fill="white" stroke="#666666" points="509.5,-194.88 432.75,-194.88 432.75,-175.63 509.5,-175.63 509.5,-194.88"/>
<text text-anchor="middle" x="471.12" y="-181.38" font-family="Helvetica,sans-Serif" font-size="10.00">t_iop_rpc_add</text>
</a>
</g>
</g>
<!-- Node6&#45;&gt;Node7 -->
<g id="edge9_Node000006_Node000007" class="edge">
<title>Node6&#45;&gt;Node7</title>
<g id="a_edge9_Node000006_Node000007"><a xlink:title=" ">
<path fill="none" stroke="#63b8ff" d="M558.21,-185.26C541.61,-185.26 524.43,-185.26 509.83,-185.26"/>
<polygon fill="#63b8ff" stroke="#63b8ff" points="558.06,-188.76 568.06,-185.26 558.06,-181.76 558.06,-188.76"/>
</a>
</g>
</g>
<!-- Node8 -->
<g id="Node000008" class="node">
<title>Node8</title>
<g id="a_Node000008"><a xlink:href="../../d2/dff/openapi_8blk.html#a0506dcda552d42a571c9091a3ada9ff7" target="_top" xlink:title=" ">
<polygon fill="white" stroke="#666666" points="378.75,-194.88 269,-194.88 269,-175.63 378.75,-175.63 378.75,-194.88"/>
<text text-anchor="middle" x="323.88" y="-181.38" font-family="Helvetica,sans-Serif" font-size="10.00">t_iop_iface_alias_add</text>
</a>
</g>
</g>
<!-- Node7&#45;&gt;Node8 -->
<g id="edge10_Node000007_Node000008" class="edge">
<title>Node7&#45;&gt;Node8</title>
<g id="a_edge10_Node000007_Node000008"><a xlink:title=" ">
<path fill="none" stroke="#63b8ff" d="M420.9,-185.26C407.47,-185.26 392.84,-185.26 379.15,-185.26"/>
<polygon fill="#63b8ff" stroke="#63b8ff" points="420.83,-188.76 430.83,-185.26 420.83,-181.76 420.83,-188.76"/>
</a>
</g>
</g>
<!-- Node9 -->
<g id="Node000009" class="node">
<title>Node9</title>
<g id="a_Node000009"><a xlink:href="../../d2/dff/openapi_8blk.html#ae6d553f1cd1eb8ddfc04985a19f5c88e" target="_top" xlink:title=" ">
<polygon fill="white" stroke="#666666" points="233,-194.88 151,-194.88 151,-175.63 233,-175.63 233,-194.88"/>
<text text-anchor="middle" x="192" y="-181.38" font-family="Helvetica,sans-Serif" font-size="10.00">t_iop_mod_add</text>
</a>
</g>
</g>
<!-- Node8&#45;&gt;Node9 -->
<g id="edge11_Node000008_Node000009" class="edge">
<title>Node8&#45;&gt;Node9</title>
<g id="a_edge11_Node000008_Node000009"><a xlink:title=" ">
<path fill="none" stroke="#63b8ff" d="M257.1,-185.26C248.97,-185.26 240.86,-185.26 233.28,-185.26"/>
<polygon fill="#63b8ff" stroke="#63b8ff" points="257.04,-188.76 267.04,-185.26 257.04,-181.76 257.04,-188.76"/>
</a>
</g>
</g>
<!-- Node10 -->
<g id="Node000010" class="node">
<title>Node10</title>
<g id="a_Node000010"><a xlink:href="../../d2/dff/openapi_8blk.html#a64d93529939f39a5b056b7343ea90b83" target="_top" xlink:title=" ">
<polygon fill="white" stroke="#666666" points="115,-194.88 0,-194.88 0,-175.63 115,-175.63 115,-194.88"/>
<text text-anchor="middle" x="57.5" y="-181.38" font-family="Helvetica,sans-Serif" font-size="10.00">t_iop_openapi_to_yaml</text>
</a>
</g>
</g>
<!-- Node9&#45;&gt;Node10 -->
<g id="edge12_Node000009_Node000010" class="edge">
<title>Node9&#45;&gt;Node10</title>
<g id="a_edge12_Node000009_Node000010"><a xlink:title=" ">
<path fill="none" stroke="#63b8ff" d="M139.27,-185.26C131.41,-185.26 123.27,-185.26 115.31,-185.26"/>
<polygon fill="#63b8ff" stroke="#63b8ff" points="139.01,-188.76 149.01,-185.26 139.01,-181.76 139.01,-188.76"/>
</a>
</g>
</g>
</g>
</svg>

<g id="navigator" transform="translate(0 0)" fill="#404254">
  <rect fill="#f2f5e9" fill-opacity="0.5" stroke="#606060" stroke-width=".5" x="0" y="0" width="60" height="60"/>
  <use id="zoomplus" xlink:href="#zoomPlus" x="17" y="9" onmousedown="handleZoom(evt,'in')"/>
  <use id="zoomminus" xlink:href="#zoomMin" x="42" y="9" onmousedown="handleZoom(evt,'out')"/>
  <use id="reset" xlink:href="#resetDef" x="30" y="36" onmousedown="handleReset()"/>
   <use id="arrowup" xlink:href="#arrowUp" x="0" y="0" onmousedown="handlePan(0,-1)"/>
  <use id="arrowright" xlink:href="#arrowRight" x="0" y="0" onmousedown="handlePan(1,0)"/>
  <use id="arrowdown" xlink:href="#arrowDown" x="0" y="0" onmousedown="handlePan(0,1)"/>
  <use id="arrowleft" xlink:href="#arrowLeft" x="0" y="0" onmousedown="handlePan(-1,0)"/>
</g>
<svg viewBox="0 0 15 15" width="100%" height="30px" preserveAspectRatio="xMaxYMin meet">
 <g id="arrow_out" transform="scale(0.3 0.3)">
  <a xlink:href="openapi_8blk_a813712de608dbd79fa1536672f0310a1_icgraph_org.svg" target="_base">
   <rect id="button" ry="5" rx="5" y="6" x="6" height="38" width="38"
        fill="#f2f5e9" fill-opacity="0.5" stroke="#606060" stroke-width="1.0"/>
   <path id="arrow"
     d="M 11.500037,31.436501 C 11.940474,20.09759 22.043105,11.32322 32.158766,21.979434 L 37.068811,17.246167 C 37.068811,17.246167 37.088388,32 37.088388,32 L 22.160133,31.978069 C 22.160133,31.978069 26.997745,27.140456 26.997745,27.140456 C 18.528582,18.264221 13.291696,25.230495 11.500037,31.436501 z"
     style="fill:#404040;"/>
  </a>
 </g>
</svg>

<style type='text/css'>
<![CDATA[
[data-mouse-over-selected='false'] { opacity: 0.7; }
[data-mouse-over-selected='true']  { opacity: 1.0; }
]]>
</style>
<script type="application/ecmascript"><![CDATA[
document.addEventListener('DOMContentLoaded', (event) => {
  highlightEdges();
  highlightAdjacentNodes();
});
]]></script>
</svg>
