<?xml version="1.0" encoding="UTF-8" standalone="no"?>
<!DOCTYPE svg PUBLIC "-//W3C//DTD SVG 1.1//EN"
 "http://www.w3.org/Graphics/SVG/1.1/DTD/svg11.dtd">
<!-- Generated by graphviz version 9.0.0 (20230911.1827)
 -->
<!-- Title: t_schemas_to_yaml_seq Pages: 1 -->
<!--zoomable 162 -->

<svg id="main" version="1.1" xmlns="http://www.w3.org/2000/svg" xmlns:xlink="http://www.w3.org/1999/xlink" xml:space="preserve" onload="init(evt)">
<style type="text/css"><![CDATA[
.node, .edge {opacity: 0.7;}
.node.selected, .edge.selected {opacity: 1;}
.edge:hover path { stroke: red; }
.edge:hover polygon { stroke: red; fill: red; }
]]></style>

<defs>
  <circle id="rim" cx="0" cy="0" r="7"/>
  <circle id="rim2" cx="0" cy="0" r="3.5"/>
  <g id="zoomPlus">
    <use xlink:href="#rim" fill="#404040"><set attributeName="fill" to="#808080" begin="zoomplus.mouseover" end="zoomplus.mouseout"/></use>
    <path d="M-4,0h8M0,-4v8" fill="none" stroke="white" stroke-width="1.5" pointer-events="none"/>
  </g>
  <g id="zoomMin">
    <use xlink:href="#rim" fill="#404040"><set attributeName="fill" to="#808080" begin="zoomminus.mouseover" end="zoomminus.mouseout"/></use>
    <path d="M-4,0h8" fill="none" stroke="white" stroke-width="1.5" pointer-events="none"/>
  </g>
  <g id="arrowUp" transform="translate(30 24)">
    <use xlink:href="#rim"/>
    <path pointer-events="none" fill="none" stroke="white" stroke-width="1.5" d="M0,-3.0v7 M-2.5,-0.5L0,-3.0L2.5,-0.5"/>
  </g>
  <g id="arrowRight" transform="rotate(90) translate(36 -43)">
    <use xlink:href="#rim"/>
    <path pointer-events="none" fill="none" stroke="white" stroke-width="1.5" d="M0,-3.0v7 M-2.5,-0.5L0,-3.0L2.5,-0.5"/>
  </g>
  <g id="arrowDown" transform="rotate(180) translate(-30 -48)">
    <use xlink:href="#rim"/>
    <path pointer-events="none" fill="none" stroke="white" stroke-width="1.5" d="M0,-3.0v7 M-2.5,-0.5L0,-3.0L2.5,-0.5"/>
  </g>
  <g id="arrowLeft" transform="rotate(270) translate(-36 17)">
    <use xlink:href="#rim"/>
    <path pointer-events="none" fill="none" stroke="white" stroke-width="1.5" d="M0,-3.0v7 M-2.5,-0.5L0,-3.0L2.5,-0.5"/>
  </g>
  <g id="resetDef">
    <use xlink:href="#rim2" fill="#404040"><set attributeName="fill" to="#808080" begin="reset.mouseover" end="reset.mouseout"/></use>
  </g>
</defs>
<script type="application/ecmascript">
var viewWidth = 1161;
var viewHeight = 162;
var sectionId = 'dynsection-71';
</script>
<script type="application/ecmascript" xlink:href="../../svg.min.js"/>
<svg id="graph" class="graph">
<g id="viewport">
<title>t_schemas_to_yaml_seq</title>
<!-- Node1 -->
<g id="Node000001" class="node">
<title>Node1</title>
<g id="a_Node000001"><a xlink:title=" ">
<polygon fill="#999999" stroke="#666666" points="1153.25,-113.88 1029.25,-113.88 1029.25,-94.62 1153.25,-94.62 1153.25,-113.88"/>
<text text-anchor="middle" x="1091.25" y="-100.38" font-family="Helvetica,sans-Serif" font-size="10.00">t_schemas_to_yaml_seq</text>
</a>
</g>
</g>
<!-- Node2 -->
<g id="Node000002" class="node">
<title>Node2</title>
<g id="a_Node000002"><a xlink:href="../../d2/dff/openapi_8blk.html#ac2f5ae84a0f8d9198f1dce401c9a94f6" target="_top" xlink:title=" ">
<polygon fill="white" stroke="#666666" points="993.25,-113.88 864,-113.88 864,-94.62 993.25,-94.62 993.25,-113.88"/>
<text text-anchor="middle" x="928.62" y="-100.38" font-family="Helvetica,sans-Serif" font-size="10.00">t_schema_object_to_yaml</text>
</a>
</g>
</g>
<!-- Node1&#45;&gt;Node2 -->
<g id="edge1_Node000001_Node000002" class="edge">
<title>Node1&#45;&gt;Node2</title>
<g id="a_edge1_Node000001_Node000002"><a xlink:title=" ">
<path fill="none" stroke="#63b8ff" d="M1017.77,-97.53C1009.7,-97.47 1001.52,-97.5 993.57,-97.63"/>
<polygon fill="#63b8ff" stroke="#63b8ff" points="1017.51,-101.03 1027.55,-97.65 1017.6,-94.03 1017.51,-101.03"/>
</a>
</g>
</g>
<!-- Node2&#45;&gt;Node1 -->
<g id="edge15_Node000002_Node000001" class="edge">
<title>Node2&#45;&gt;Node1</title>
<g id="a_edge15_Node000002_Node000001"><a xlink:title=" ">
<path fill="none" stroke="#63b8ff" d="M1004.93,-110.99C1013.02,-111.03 1021.17,-110.97 1029.07,-110.83"/>
<polygon fill="#63b8ff" stroke="#63b8ff" points="1005.12,-107.49 995.09,-110.89 1005.05,-114.49 1005.12,-107.49"/>
</a>
</g>
</g>
<!-- Node2&#45;&gt;Node2 -->
<g id="edge14_Node000002_Node000002" class="edge">
<title>Node2&#45;&gt;Node2</title>
<g id="a_edge14_Node000002_Node000002"><a xlink:title=" ">
<path fill="none" stroke="#63b8ff" d="M957.38,-124.94C954.07,-128.99 944.48,-131.88 928.62,-131.88 900.43,-131.88 892.06,-122.77 903.52,-114.16"/>
<polygon fill="#63b8ff" stroke="#63b8ff" points="960.74,-123.95 954.22,-115.6 954.11,-126.19 960.74,-123.95"/>
</a>
</g>
</g>
<!-- Node3 -->
<g id="Node000003" class="node">
<title>Node3</title>
<g id="a_Node000003"><a xlink:href="../../d2/dff/openapi_8blk.html#aeb172eeb5a8cfc179750f8836f708535" target="_top" xlink:title=" ">
<polygon fill="white" stroke="#666666" points="517.75,-153.5 408.75,-153.5 408.75,-123 517.75,-123 517.75,-153.5"/>
<text text-anchor="start" x="416.75" y="-140" font-family="Helvetica,sans-Serif" font-size="10.00">t_components_object</text>
<text text-anchor="middle" x="463.25" y="-128.75" font-family="Helvetica,sans-Serif" font-size="10.00">_to_yaml</text>
</a>
</g>
</g>
<!-- Node2&#45;&gt;Node3 -->
<g id="edge2_Node000002_Node000003" class="edge">
<title>Node2&#45;&gt;Node3</title>
<g id="a_edge2_Node000002_Node000003"><a xlink:title=" ">
<path fill="none" stroke="#63b8ff" d="M882.64,-117.2C865.66,-121.52 846.08,-125.85 828,-128.25 718.72,-142.75 589.41,-142.13 518.15,-140.26"/>
<polygon fill="#63b8ff" stroke="#63b8ff" points="883.13,-120.69 891.92,-114.76 881.35,-113.92 883.13,-120.69"/>
</a>
</g>
</g>
<!-- Node5 -->
<g id="Node000005" class="node">
<title>Node5</title>
<g id="a_Node000005"><a xlink:href="../../d2/dff/openapi_8blk.html#a78377f077a890bd826380f467d5b8066" target="_top" xlink:title=" ">
<polygon fill="white" stroke="#666666" points="828,-119.5 708.5,-119.5 708.5,-89 828,-89 828,-119.5"/>
<text text-anchor="start" x="716.5" y="-106" font-family="Helvetica,sans-Serif" font-size="10.00">t_html_response_object</text>
<text text-anchor="middle" x="768.25" y="-94.75" font-family="Helvetica,sans-Serif" font-size="10.00">_to_yaml</text>
</a>
</g>
</g>
<!-- Node2&#45;&gt;Node5 -->
<g id="edge4_Node000002_Node000005" class="edge">
<title>Node2&#45;&gt;Node5</title>
<g id="a_edge4_Node000002_Node000005"><a xlink:title=" ">
<path fill="none" stroke="#63b8ff" d="M852.34,-104.25C844.28,-104.25 836.16,-104.25 828.33,-104.25"/>
<polygon fill="#63b8ff" stroke="#63b8ff" points="852.15,-107.75 862.15,-104.25 852.15,-100.75 852.15,-107.75"/>
</a>
</g>
</g>
<!-- Node9 -->
<g id="Node000009" class="node">
<title>Node9</title>
<g id="a_Node000009"><a xlink:href="../../d2/dff/openapi_8blk.html#a05d126c3e28ed7381582eb77c5d8089a" target="_top" xlink:title=" ">
<polygon fill="white" stroke="#666666" points="820.88,-70.5 715.62,-70.5 715.62,-40 820.88,-40 820.88,-70.5"/>
<text text-anchor="start" x="723.62" y="-57" font-family="Helvetica,sans-Serif" font-size="10.00">t_json_media_object</text>
<text text-anchor="middle" x="768.25" y="-45.75" font-family="Helvetica,sans-Serif" font-size="10.00">_to_yaml</text>
</a>
</g>
</g>
<!-- Node2&#45;&gt;Node9 -->
<g id="edge9_Node000002_Node000009" class="edge">
<title>Node2&#45;&gt;Node9</title>
<g id="a_edge9_Node000002_Node000009"><a xlink:title=" ">
<path fill="none" stroke="#63b8ff" d="M884.29,-90.84C864.42,-84.7 840.74,-77.37 820.04,-70.96"/>
<polygon fill="#63b8ff" stroke="#63b8ff" points="883.16,-94.16 893.75,-93.77 885.23,-87.47 883.16,-94.16"/>
</a>
</g>
</g>
<!-- Node4 -->
<g id="Node000004" class="node">
<title>Node4</title>
<g id="a_Node000004"><a xlink:href="../../d2/dff/openapi_8blk.html#a64d93529939f39a5b056b7343ea90b83" target="_top" xlink:title=" ">
<polygon fill="white" stroke="#666666" points="115,-116.88 0,-116.88 0,-97.62 115,-97.62 115,-116.88"/>
<text text-anchor="middle" x="57.5" y="-103.38" font-family="Helvetica,sans-Serif" font-size="10.00">t_iop_openapi_to_yaml</text>
</a>
</g>
</g>
<!-- Node3&#45;&gt;Node4 -->
<g id="edge3_Node000003_Node000004" class="edge">
<title>Node3&#45;&gt;Node4</title>
<g id="a_edge3_Node000003_Node000004"><a xlink:title=" ">
<path fill="none" stroke="#63b8ff" d="M397.51,-133.28C319.47,-127.29 189.56,-117.31 115.27,-111.61"/>
<polygon fill="#63b8ff" stroke="#63b8ff" points="396.89,-136.74 407.13,-134.02 397.42,-129.76 396.89,-136.74"/>
</a>
</g>
</g>
<!-- Node6 -->
<g id="Node000006" class="node">
<title>Node6</title>
<g id="a_Node000006"><a xlink:href="../../d2/dff/openapi_8blk.html#a67c1b8428eb928fd0e002b5ff73cbc76" target="_top" xlink:title=" ">
<polygon fill="white" stroke="#666666" points="511,-96.5 415.5,-96.5 415.5,-66 511,-66 511,-96.5"/>
<text text-anchor="start" x="423.5" y="-83" font-family="Helvetica,sans-Serif" font-size="10.00">t_operation_object</text>
<text text-anchor="middle" x="463.25" y="-71.75" font-family="Helvetica,sans-Serif" font-size="10.00">_to_yaml</text>
</a>
</g>
</g>
<!-- Node5&#45;&gt;Node6 -->
<g id="edge5_Node000005_Node000006" class="edge">
<title>Node5&#45;&gt;Node6</title>
<g id="a_edge5_Node000005_Node000006"><a xlink:title=" ">
<path fill="none" stroke="#63b8ff" d="M696.94,-99.04C655.3,-95.94 601.52,-91.91 553.75,-88.25 539.92,-87.19 524.89,-86.02 511.16,-84.95"/>
<polygon fill="#63b8ff" stroke="#63b8ff" points="696.6,-102.52 706.83,-99.77 697.12,-95.54 696.6,-102.52"/>
</a>
</g>
</g>
<!-- Node7 -->
<g id="Node000007" class="node">
<title>Node7</title>
<g id="a_Node000007"><a xlink:href="../../d2/dff/openapi_8blk.html#afa1c2a6dd30356d108c578fa090a8624" target="_top" xlink:title=" ">
<polygon fill="white" stroke="#666666" points="372.75,-99.5 274.25,-99.5 274.25,-69 372.75,-69 372.75,-99.5"/>
<text text-anchor="start" x="282.25" y="-86" font-family="Helvetica,sans-Serif" font-size="10.00">t_path_item_object</text>
<text text-anchor="middle" x="323.5" y="-74.75" font-family="Helvetica,sans-Serif" font-size="10.00">_to_yaml</text>
</a>
</g>
</g>
<!-- Node6&#45;&gt;Node7 -->
<g id="edge6_Node000006_Node000007" class="edge">
<title>Node6&#45;&gt;Node7</title>
<g id="a_edge6_Node000006_Node000007"><a xlink:title=" ">
<path fill="none" stroke="#63b8ff" d="M403.87,-82.52C393.65,-82.74 383.11,-82.97 373.19,-83.19"/>
<polygon fill="#63b8ff" stroke="#63b8ff" points="403.79,-86.02 413.72,-82.31 403.64,-79.03 403.79,-86.02"/>
</a>
</g>
</g>
<!-- Node8 -->
<g id="Node000008" class="node">
<title>Node8</title>
<g id="a_Node000008"><a xlink:href="../../d2/dff/openapi_8blk.html#a441e9458e40eeaf187a9a28ba14d0f58" target="_top" xlink:title=" ">
<polygon fill="white" stroke="#666666" points="238.25,-97.88 151,-97.88 151,-78.62 238.25,-78.62 238.25,-97.88"/>
<text text-anchor="middle" x="194.62" y="-84.38" font-family="Helvetica,sans-Serif" font-size="10.00">t_paths_to_yaml</text>
</a>
</g>
</g>
<!-- Node7&#45;&gt;Node8 -->
<g id="edge7_Node000007_Node000008" class="edge">
<title>Node7&#45;&gt;Node8</title>
<g id="a_edge7_Node000007_Node000008"><a xlink:title=" ">
<path fill="none" stroke="#63b8ff" d="M262.5,-86.14C254.43,-86.4 246.29,-86.65 238.59,-86.9"/>
<polygon fill="#63b8ff" stroke="#63b8ff" points="262.41,-89.65 272.3,-85.83 262.19,-82.65 262.41,-89.65"/>
</a>
</g>
</g>
<!-- Node8&#45;&gt;Node4 -->
<g id="edge8_Node000008_Node000004" class="edge">
<title>Node8&#45;&gt;Node4</title>
<g id="a_edge8_Node000008_Node000004"><a xlink:title=" ">
<path fill="none" stroke="#63b8ff" d="M139.74,-95.83C131.71,-96.96 123.41,-98.12 115.32,-99.26"/>
<polygon fill="#63b8ff" stroke="#63b8ff" points="139.96,-99.33 149.37,-94.47 138.98,-92.4 139.96,-99.33"/>
</a>
</g>
</g>
<!-- Node10 -->
<g id="Node000010" class="node">
<title>Node10</title>
<g id="a_Node000010"><a xlink:href="../../d2/dff/openapi_8blk.html#a0d93f8e9d3b78733833c390223e3de2e" target="_top" xlink:title=" ">
<polygon fill="white" stroke="#666666" points="668.75,-79.5 557.5,-79.5 557.5,-49 668.75,-49 668.75,-79.5"/>
<text text-anchor="start" x="565.5" y="-66" font-family="Helvetica,sans-Serif" font-size="10.00">t_json_request_object</text>
<text text-anchor="middle" x="613.12" y="-54.75" font-family="Helvetica,sans-Serif" font-size="10.00">_to_yaml</text>
</a>
</g>
</g>
<!-- Node9&#45;&gt;Node10 -->
<g id="edge10_Node000009_Node000010" class="edge">
<title>Node9&#45;&gt;Node10</title>
<g id="a_edge10_Node000009_Node000010"><a xlink:title=" ">
<path fill="none" stroke="#63b8ff" d="M703.99,-58.97C692.4,-59.65 680.38,-60.36 669.06,-61.02"/>
<polygon fill="#63b8ff" stroke="#63b8ff" points="704.12,-62.47 713.9,-58.39 703.71,-55.48 704.12,-62.47"/>
</a>
</g>
</g>
<!-- Node11 -->
<g id="Node000011" class="node">
<title>Node11</title>
<g id="a_Node000011"><a xlink:href="../../d2/dff/openapi_8blk.html#a995da5bb82a22c8c69f5bd2a11b0ee30" target="_top" xlink:title=" ">
<polygon fill="white" stroke="#666666" points="672.5,-30.5 553.75,-30.5 553.75,0 672.5,0 672.5,-30.5"/>
<text text-anchor="start" x="561.75" y="-17" font-family="Helvetica,sans-Serif" font-size="10.00">t_json_response_object</text>
<text text-anchor="middle" x="613.12" y="-5.75" font-family="Helvetica,sans-Serif" font-size="10.00">_to_yaml</text>
</a>
</g>
</g>
<!-- Node9&#45;&gt;Node11 -->
<g id="edge12_Node000009_Node000011" class="edge">
<title>Node9&#45;&gt;Node11</title>
<g id="a_edge12_Node000009_Node000011"><a xlink:title=" ">
<path fill="none" stroke="#63b8ff" d="M704.27,-38.8C693.85,-36.08 683.08,-33.26 672.77,-30.57"/>
<polygon fill="#63b8ff" stroke="#63b8ff" points="703.38,-42.18 713.94,-41.33 705.15,-35.41 703.38,-42.18"/>
</a>
</g>
</g>
<!-- Node10&#45;&gt;Node6 -->
<g id="edge11_Node000010_Node000006" class="edge">
<title>Node10&#45;&gt;Node6</title>
<g id="a_edge11_Node000010_Node000006"><a xlink:title=" ">
<path fill="none" stroke="#63b8ff" d="M545.92,-71.86C534.18,-73.21 522.18,-74.59 511.11,-75.86"/>
<polygon fill="#63b8ff" stroke="#63b8ff" points="546.02,-75.37 555.56,-70.75 545.22,-68.42 546.02,-75.37"/>
</a>
</g>
</g>
<!-- Node11&#45;&gt;Node6 -->
<g id="edge13_Node000011_Node000006" class="edge">
<title>Node11&#45;&gt;Node6</title>
<g id="a_edge13_Node000011_Node000006"><a xlink:title=" ">
<path fill="none" stroke="#63b8ff" d="M564.63,-35.47C560.95,-37.08 557.28,-38.68 553.75,-40.25 535.16,-48.49 514.51,-57.93 497.74,-65.67"/>
<polygon fill="#63b8ff" stroke="#63b8ff" points="565.83,-38.77 573.62,-31.58 563.05,-32.34 565.83,-38.77"/>
</a>
</g>
</g>
</g>
</svg>

<g id="navigator" transform="translate(0 0)" fill="#404254">
  <rect fill="#f2f5e9" fill-opacity="0.5" stroke="#606060" stroke-width=".5" x="0" y="0" width="60" height="60"/>
  <use id="zoomplus" xlink:href="#zoomPlus" x="17" y="9" onmousedown="handleZoom(evt,'in')"/>
  <use id="zoomminus" xlink:href="#zoomMin" x="42" y="9" onmousedown="handleZoom(evt,'out')"/>
  <use id="reset" xlink:href="#resetDef" x="30" y="36" onmousedown="handleReset()"/>
   <use id="arrowup" xlink:href="#arrowUp" x="0" y="0" onmousedown="handlePan(0,-1)"/>
  <use id="arrowright" xlink:href="#arrowRight" x="0" y="0" onmousedown="handlePan(1,0)"/>
  <use id="arrowdown" xlink:href="#arrowDown" x="0" y="0" onmousedown="handlePan(0,1)"/>
  <use id="arrowleft" xlink:href="#arrowLeft" x="0" y="0" onmousedown="handlePan(-1,0)"/>
</g>
<svg viewBox="0 0 15 15" width="100%" height="30px" preserveAspectRatio="xMaxYMin meet">
 <g id="arrow_out" transform="scale(0.3 0.3)">
  <a xlink:href="openapi_8blk_a0e2b2b412a69751e48a9fc3dd1b3d4b8_icgraph_org.svg" target="_base">
   <rect id="button" ry="5" rx="5" y="6" x="6" height="38" width="38"
        fill="#f2f5e9" fill-opacity="0.5" stroke="#606060" stroke-width="1.0"/>
   <path id="arrow"
     d="M 11.500037,31.436501 C 11.940474,20.09759 22.043105,11.32322 32.158766,21.979434 L 37.068811,17.246167 C 37.068811,17.246167 37.088388,32 37.088388,32 L 22.160133,31.978069 C 22.160133,31.978069 26.997745,27.140456 26.997745,27.140456 C 18.528582,18.264221 13.291696,25.230495 11.500037,31.436501 z"
     style="fill:#404040;"/>
  </a>
 </g>
</svg>

<style type='text/css'>
<![CDATA[
[data-mouse-over-selected='false'] { opacity: 0.7; }
[data-mouse-over-selected='true']  { opacity: 1.0; }
]]>
</style>
<script type="application/ecmascript"><![CDATA[
document.addEventListener('DOMContentLoaded', (event) => {
  highlightEdges();
  highlightAdjacentNodes();
});
]]></script>
</svg>
