<?xml version="1.0" encoding="UTF-8" standalone="no"?>
<!DOCTYPE svg PUBLIC "-//W3C//DTD SVG 1.1//EN"
 "http://www.w3.org/Graphics/SVG/1.1/DTD/svg11.dtd">
<!-- Generated by graphviz version 9.0.0 (20230911.1827)
 -->
<!-- Title: t_new_iop_openapi Pages: 1 -->
<svg width="1983pt" height="359pt"
 viewBox="0.00 0.00 1983.25 359.33" xmlns="http://www.w3.org/2000/svg" xmlns:xlink="http://www.w3.org/1999/xlink">
<g id="graph0" class="graph" transform="scale(1 1) rotate(0) translate(4 355.33)">
<title>t_new_iop_openapi</title>
<!-- Node1 -->
<g id="Node000001" class="node">
<title>Node1</title>
<g id="a_Node000001"><a xlink:title=" ">
<polygon fill="#999999" stroke="#666666" points="99.25,-332.33 0,-332.33 0,-313.08 99.25,-313.08 99.25,-332.33"/>
<text text-anchor="middle" x="49.62" y="-318.83" font-family="Helvetica,sans-Serif" font-size="10.00">t_new_iop_openapi</text>
</a>
</g>
</g>
<!-- Node2 -->
<g id="Node000002" class="node">
<title>Node2</title>
<g id="a_Node000002"><a xlink:href="../../d2/dff/openapi_8blk.html#ad6010b94afcd3434c49c56154e1c5fa8" target="_top" xlink:title=" ">
<polygon fill="white" stroke="#666666" points="262.25,-351.33 135.25,-351.33 135.25,-332.08 262.25,-332.08 262.25,-351.33"/>
<text text-anchor="middle" x="198.75" y="-337.83" font-family="Helvetica,sans-Serif" font-size="10.00">t_components_object_init</text>
</a>
</g>
</g>
<!-- Node1&#45;&gt;Node2 -->
<g id="edge1_Node000001_Node000002" class="edge">
<title>Node1&#45;&gt;Node2</title>
<g id="a_edge1_Node000001_Node000002"><a xlink:title=" ">
<path fill="none" stroke="#63b8ff" d="M99.62,-329.03C107.29,-330.02 115.36,-331.07 123.44,-332.11"/>
<polygon fill="#63b8ff" stroke="#63b8ff" points="122.97,-335.58 133.34,-333.39 123.87,-328.64 122.97,-335.58"/>
</a>
</g>
</g>
<!-- Node3 -->
<g id="Node000003" class="node">
<title>Node3</title>
<g id="a_Node000003"><a xlink:href="../../df/d0a/str-l_8h.html#a93860e0a444ab8a423d79b7818a28345" target="_top" xlink:title="returns a duplicated lstr from the mem stack.">
<polygon fill="white" stroke="#666666" points="228.12,-314.33 169.38,-314.33 169.38,-295.08 228.12,-295.08 228.12,-314.33"/>
<text text-anchor="middle" x="198.75" y="-300.83" font-family="Helvetica,sans-Serif" font-size="10.00">t_lstr_dup</text>
</a>
</g>
</g>
<!-- Node1&#45;&gt;Node3 -->
<g id="edge2_Node000001_Node000003" class="edge">
<title>Node1&#45;&gt;Node3</title>
<g id="a_edge2_Node000001_Node000003"><a xlink:title=" ">
<path fill="none" stroke="#63b8ff" d="M99.62,-316.71C118.54,-314.4 139.92,-311.78 157.88,-309.59"/>
<polygon fill="#63b8ff" stroke="#63b8ff" points="158.12,-313.08 167.62,-308.39 157.27,-306.13 158.12,-313.08"/>
</a>
</g>
</g>
<!-- Node4 -->
<g id="Node000004" class="node">
<title>Node4</title>
<g id="a_Node000004"><a xlink:href="../../de/d04/str-l_8c.html#a721e56afb064f7233eda0184065df9bb" target="_top" xlink:title="Returns new mp allocated lstr from its arguments.">
<polygon fill="white" stroke="#666666" points="367.5,-295.33 298.25,-295.33 298.25,-276.08 367.5,-276.08 367.5,-295.33"/>
<text text-anchor="middle" x="332.88" y="-281.83" font-family="Helvetica,sans-Serif" font-size="10.00">mp_lstr_dup</text>
</a>
</g>
</g>
<!-- Node3&#45;&gt;Node4 -->
<g id="edge3_Node000003_Node000004" class="edge">
<title>Node3&#45;&gt;Node4</title>
<g id="a_edge3_Node000003_Node000004"><a xlink:title=" ">
<path fill="none" stroke="#63b8ff" d="M228.42,-300.58C245.47,-298.13 267.47,-294.97 286.8,-292.19"/>
<polygon fill="#63b8ff" stroke="#63b8ff" points="287.22,-295.66 296.62,-290.78 286.23,-288.74 287.22,-295.66"/>
</a>
</g>
</g>
<!-- Node25 -->
<g id="Node000025" class="node">
<title>Node25</title>
<g id="a_Node000025"><a xlink:href="../../d1/d10/mem-stack_8h.html#a1d0e2a29f86dc033a02e50484b527fd0" target="_top" xlink:title=" ">
<polygon fill="white" stroke="#666666" points="1975.25,-332.33 1933,-332.33 1933,-313.08 1975.25,-313.08 1975.25,-332.33"/>
<text text-anchor="middle" x="1954.12" y="-318.83" font-family="Helvetica,sans-Serif" font-size="10.00">t_pool</text>
</a>
</g>
</g>
<!-- Node3&#45;&gt;Node25 -->
<g id="edge45_Node000003_Node000025" class="edge">
<title>Node3&#45;&gt;Node25</title>
<g id="a_edge45_Node000003_Node000025"><a xlink:title=" ">
<path fill="none" stroke="#63b8ff" d="M228.59,-312.37C271.96,-323.21 356.72,-341.71 430,-341.71 430,-341.71 430,-341.71 1782.12,-341.71 1831.02,-341.71 1887.31,-333.94 1921.54,-328.34"/>
<polygon fill="#63b8ff" stroke="#63b8ff" points="1921.9,-331.82 1931.18,-326.71 1920.74,-324.92 1921.9,-331.82"/>
</a>
</g>
</g>
<!-- Node5 -->
<g id="Node000005" class="node">
<title>Node5</title>
<g id="a_Node000005"><a xlink:href="../../d9/d9a/mem_8h.html#afb82bc4c2f614b07ba2987edb2fb12a2" target="_top" xlink:title=" ">
<polygon fill="white" stroke="#666666" points="458.5,-295.33 403.5,-295.33 403.5,-276.08 458.5,-276.08 458.5,-295.33"/>
<text text-anchor="middle" x="431" y="-281.83" font-family="Helvetica,sans-Serif" font-size="10.00">mp_dupz</text>
</a>
</g>
</g>
<!-- Node4&#45;&gt;Node5 -->
<g id="edge4_Node000004_Node000005" class="edge">
<title>Node4&#45;&gt;Node5</title>
<g id="a_edge4_Node000004_Node000005"><a xlink:title=" ">
<path fill="none" stroke="#63b8ff" d="M367.77,-285.71C375.54,-285.71 383.85,-285.71 391.79,-285.71"/>
<polygon fill="#63b8ff" stroke="#63b8ff" points="391.54,-289.21 401.54,-285.71 391.54,-282.21 391.54,-289.21"/>
</a>
</g>
</g>
<!-- Node39 -->
<g id="Node000039" class="node">
<title>Node39</title>
<g id="a_Node000039"><a xlink:href="../../df/d0a/str-l_8h.html#afaa32126aa321a4b319e39433d0e7f26" target="_top" xlink:title=" ">
<polygon fill="white" stroke="#666666" points="1600,-72.33 1533.75,-72.33 1533.75,-53.08 1600,-53.08 1600,-72.33"/>
<text text-anchor="middle" x="1566.88" y="-58.83" font-family="Helvetica,sans-Serif" font-size="10.00">mp_lstr_init</text>
</a>
</g>
</g>
<!-- Node4&#45;&gt;Node39 -->
<g id="edge43_Node000004_Node000039" class="edge">
<title>Node4&#45;&gt;Node39</title>
<g id="a_edge43_Node000004_Node000039"><a xlink:title=" ">
<path fill="none" stroke="#63b8ff" d="M335.52,-275.6C344.36,-225.01 391.07,-1.71 526.25,-1.71 526.25,-1.71 526.25,-1.71 1307.5,-1.71 1390.82,-1.71 1414.79,5.12 1494,-20.71 1511.63,-26.45 1529.64,-36.99 1543.22,-46.07"/>
<polygon fill="#63b8ff" stroke="#63b8ff" points="1541.21,-48.94 1551.42,-51.76 1545.21,-43.19 1541.21,-48.94"/>
</a>
</g>
</g>
<!-- Node6 -->
<g id="Node000006" class="node">
<title>Node6</title>
<g id="a_Node000006"><a xlink:href="../../d9/d9a/mem_8h.html#af52b7a33884b452f86de916d8109b8f1" target="_top" xlink:title=" ">
<polygon fill="white" stroke="#666666" points="555.88,-313.33 498.62,-313.33 498.62,-294.08 555.88,-294.08 555.88,-313.33"/>
<text text-anchor="middle" x="527.25" y="-299.83" font-family="Helvetica,sans-Serif" font-size="10.00">memcpyz</text>
</a>
</g>
</g>
<!-- Node5&#45;&gt;Node6 -->
<g id="edge5_Node000005_Node000006" class="edge">
<title>Node5&#45;&gt;Node6</title>
<g id="a_edge5_Node000005_Node000006"><a xlink:title=" ">
<path fill="none" stroke="#63b8ff" d="M458.76,-290.82C467.67,-292.52 477.8,-294.45 487.44,-296.3"/>
<polygon fill="#63b8ff" stroke="#63b8ff" points="486.48,-299.67 496.96,-298.11 487.79,-292.8 486.48,-299.67"/>
</a>
</g>
</g>
<!-- Node8 -->
<g id="Node000008" class="node">
<title>Node8</title>
<g id="a_Node000008"><a xlink:href="../../d9/d9a/mem_8h.html#ada6bb9661f0c10ccaa14d231c24aeafd" target="_top" xlink:title=" ">
<polygon fill="white" stroke="#666666" points="560,-276.33 494.5,-276.33 494.5,-257.08 560,-257.08 560,-276.33"/>
<text text-anchor="middle" x="527.25" y="-262.83" font-family="Helvetica,sans-Serif" font-size="10.00">mp_imalloc</text>
</a>
</g>
</g>
<!-- Node5&#45;&gt;Node8 -->
<g id="edge7_Node000005_Node000008" class="edge">
<title>Node5&#45;&gt;Node8</title>
<g id="a_edge7_Node000005_Node000008"><a xlink:title=" ">
<path fill="none" stroke="#63b8ff" d="M458.76,-280.31C466.31,-278.79 474.74,-277.09 483,-275.43"/>
<polygon fill="#63b8ff" stroke="#63b8ff" points="483.48,-278.9 492.59,-273.49 482.1,-272.04 483.48,-278.9"/>
</a>
</g>
</g>
<!-- Node7 -->
<g id="Node000007" class="node">
<title>Node7</title>
<g id="a_Node000007"><a xlink:href="../../d9/d9a/mem_8h.html#af3794c657c3ffd55b9771dcaeec60c02" target="_top" xlink:title=" ">
<polygon fill="white" stroke="#666666" points="681.38,-313.33 623.38,-313.33 623.38,-294.08 681.38,-294.08 681.38,-313.33"/>
<text text-anchor="middle" x="652.38" y="-299.83" font-family="Helvetica,sans-Serif" font-size="10.00">mempcpy</text>
</a>
</g>
</g>
<!-- Node6&#45;&gt;Node7 -->
<g id="edge6_Node000006_Node000007" class="edge">
<title>Node6&#45;&gt;Node7</title>
<g id="a_edge6_Node000006_Node000007"><a xlink:title=" ">
<path fill="none" stroke="#63b8ff" d="M556.19,-303.71C572.6,-303.71 593.61,-303.71 611.72,-303.71"/>
<polygon fill="#63b8ff" stroke="#63b8ff" points="611.61,-307.21 621.61,-303.71 611.61,-300.21 611.61,-307.21"/>
</a>
</g>
</g>
<!-- Node9 -->
<g id="Node000009" class="node">
<title>Node9</title>
<g id="a_Node000009"><a xlink:href="../../d8/d37/mem_8blk.html#a5666a1403bcf2bd8e114c23f8021d1ac" target="_top" xlink:title=" ">
<polygon fill="white" stroke="#666666" points="690.38,-239.33 614.38,-239.33 614.38,-220.08 690.38,-220.08 690.38,-239.33"/>
<text text-anchor="middle" x="652.38" y="-225.83" font-family="Helvetica,sans-Serif" font-size="10.00">__mp_imalloc</text>
</a>
</g>
</g>
<!-- Node8&#45;&gt;Node9 -->
<g id="edge8_Node000008_Node000009" class="edge">
<title>Node8&#45;&gt;Node9</title>
<g id="a_edge8_Node000008_Node000009"><a xlink:title=" ">
<path fill="none" stroke="#63b8ff" d="M560.28,-257.08C574.5,-252.81 591.47,-247.71 606.89,-243.07"/>
<polygon fill="#63b8ff" stroke="#63b8ff" points="607.77,-246.47 616.34,-240.24 605.75,-239.76 607.77,-246.47"/>
</a>
</g>
</g>
<!-- Node37 -->
<g id="Node000037" class="node">
<title>Node37</title>
<g id="a_Node000037"><a xlink:href="../../d9/d9a/mem_8h.html#ae99e17ad0b27e94e8a00c8af9734a0e7" target="_top" xlink:title=" ">
<polygon fill="white" stroke="#666666" points="708.75,-276.33 596,-276.33 596,-257.08 708.75,-257.08 708.75,-276.33"/>
<text text-anchor="middle" x="652.38" y="-262.83" font-family="Helvetica,sans-Serif" font-size="10.00">icheck_alloc_constant</text>
</a>
</g>
</g>
<!-- Node8&#45;&gt;Node37 -->
<g id="edge41_Node000008_Node000037" class="edge">
<title>Node8&#45;&gt;Node37</title>
<g id="a_edge41_Node000008_Node000037"><a xlink:title=" ">
<path fill="none" stroke="#63b8ff" d="M560.28,-266.71C567.72,-266.71 575.93,-266.71 584.26,-266.71"/>
<polygon fill="#63b8ff" stroke="#63b8ff" points="584.15,-270.21 594.15,-266.71 584.15,-263.21 584.15,-270.21"/>
</a>
</g>
</g>
<!-- Node10 -->
<g id="Node000010" class="node">
<title>Node10</title>
<g id="a_Node000010"><a xlink:href="../../d8/d37/mem_8blk.html#a8e4fbf6500e65079c31e3fd933ae7dc1" target="_top" xlink:title=" ">
<polygon fill="white" stroke="#666666" points="830.88,-237.33 760.88,-237.33 760.88,-218.08 830.88,-218.08 830.88,-237.33"/>
<text text-anchor="middle" x="795.88" y="-223.83" font-family="Helvetica,sans-Serif" font-size="10.00">icheck_alloc</text>
</a>
</g>
</g>
<!-- Node9&#45;&gt;Node10 -->
<g id="edge9_Node000009_Node000010" class="edge">
<title>Node9&#45;&gt;Node10</title>
<g id="a_edge9_Node000009_Node000010"><a xlink:title=" ">
<path fill="none" stroke="#63b8ff" d="M690.55,-229.18C708.59,-228.93 730.42,-228.62 749.43,-228.35"/>
<polygon fill="#63b8ff" stroke="#63b8ff" points="749.39,-231.85 759.34,-228.21 749.29,-224.85 749.39,-231.85"/>
</a>
</g>
</g>
<!-- Node35 -->
<g id="Node000035" class="node">
<title>Node35</title>
<g id="a_Node000035"><a xlink:href="../../d9/d9a/mem_8h.html#af42ab5c21de0c723b2a55403e5441fda" target="_top" xlink:title=" ">
<polygon fill="white" stroke="#666666" points="835.38,-274.33 756.38,-274.33 756.38,-255.08 835.38,-255.08 835.38,-274.33"/>
<text text-anchor="middle" x="795.88" y="-260.83" font-family="Helvetica,sans-Serif" font-size="10.00">mem_bit_align</text>
</a>
</g>
</g>
<!-- Node9&#45;&gt;Node35 -->
<g id="edge39_Node000009_Node000035" class="edge">
<title>Node9&#45;&gt;Node35</title>
<g id="a_edge39_Node000009_Node000035"><a xlink:title=" ">
<path fill="none" stroke="#63b8ff" d="M690.55,-238.9C707.15,-243.01 726.97,-247.91 744.85,-252.33"/>
<polygon fill="#63b8ff" stroke="#63b8ff" points="743.95,-255.72 754.5,-254.72 745.63,-248.92 743.95,-255.72"/>
</a>
</g>
</g>
<!-- Node11 -->
<g id="Node000011" class="node">
<title>Node11</title>
<g id="a_Node000011"><a xlink:href="../../d7/df8/log_8c.html#abca342edf91a9b45f7a17ef564fa8a53" target="_top" xlink:title=" ">
<polygon fill="white" stroke="#666666" points="938,-237.33 888.25,-237.33 888.25,-218.08 938,-218.08 938,-237.33"/>
<text text-anchor="middle" x="913.12" y="-223.83" font-family="Helvetica,sans-Serif" font-size="10.00">e_panic</text>
</a>
</g>
</g>
<!-- Node10&#45;&gt;Node11 -->
<g id="edge10_Node000010_Node000011" class="edge">
<title>Node10&#45;&gt;Node11</title>
<g id="a_edge10_Node000010_Node000011"><a xlink:title=" ">
<path fill="none" stroke="#63b8ff" d="M831.14,-227.71C845.59,-227.71 862.4,-227.71 876.95,-227.71"/>
<polygon fill="#63b8ff" stroke="#63b8ff" points="876.53,-231.21 886.53,-227.71 876.53,-224.21 876.53,-231.21"/>
</a>
</g>
</g>
<!-- Node12 -->
<g id="Node000012" class="node">
<title>Node12</title>
<g id="a_Node000012"><a xlink:href="../../d7/df8/log_8c.html#a4bc04f7baa1e064cb0b93c7b9f3a61a1" target="_top" xlink:title=" ">
<polygon fill="white" stroke="#666666" points="1067.25,-124.33 979.25,-124.33 979.25,-105.08 1067.25,-105.08 1067.25,-124.33"/>
<text text-anchor="middle" x="1023.25" y="-110.83" font-family="Helvetica,sans-Serif" font-size="10.00">__logger_refresh</text>
</a>
</g>
</g>
<!-- Node11&#45;&gt;Node12 -->
<g id="edge11_Node000011_Node000012" class="edge">
<title>Node11&#45;&gt;Node12</title>
<g id="a_edge11_Node000011_Node000012"><a xlink:title=" ">
<path fill="none" stroke="#63b8ff" d="M923.72,-217.68C941.96,-198.62 981.87,-156.91 1004.91,-132.83"/>
<polygon fill="#63b8ff" stroke="#63b8ff" points="1007.4,-135.29 1011.78,-125.64 1002.34,-130.45 1007.4,-135.29"/>
</a>
</g>
</g>
<!-- Node30 -->
<g id="Node000030" class="node">
<title>Node30</title>
<g id="a_Node000030"><a xlink:href="../../d7/df8/log_8c.html#a900490b26df7698aac12f7f7e6517e81" target="_top" xlink:title=" ">
<polygon fill="white" stroke="#666666" points="1056,-237.33 990.5,-237.33 990.5,-218.08 1056,-218.08 1056,-237.33"/>
<text text-anchor="middle" x="1023.25" y="-223.83" font-family="Helvetica,sans-Serif" font-size="10.00">logger_vlog</text>
</a>
</g>
</g>
<!-- Node11&#45;&gt;Node30 -->
<g id="edge33_Node000011_Node000030" class="edge">
<title>Node11&#45;&gt;Node30</title>
<g id="a_edge33_Node000011_Node000030"><a xlink:title=" ">
<path fill="none" stroke="#63b8ff" d="M938.39,-227.71C950.36,-227.71 965.16,-227.71 978.97,-227.71"/>
<polygon fill="#63b8ff" stroke="#63b8ff" points="978.75,-231.21 988.75,-227.71 978.75,-224.21 978.75,-231.21"/>
</a>
</g>
</g>
<!-- Node34 -->
<g id="Node000034" class="node">
<title>Node34</title>
<g id="a_Node000034"><a xlink:href="../../d2/d4d/file_8h.html#a25419a391fdd4ad7954699c58cfeb3b9" target="_top" xlink:title=" ">
<polygon fill="white" stroke="#666666" points="1048.88,-274.33 997.62,-274.33 997.62,-255.08 1048.88,-255.08 1048.88,-274.33"/>
<text text-anchor="middle" x="1023.25" y="-260.83" font-family="Helvetica,sans-Serif" font-size="10.00">va_start</text>
</a>
</g>
</g>
<!-- Node11&#45;&gt;Node34 -->
<g id="edge38_Node000011_Node000034" class="edge">
<title>Node11&#45;&gt;Node34</title>
<g id="a_edge38_Node000011_Node000034"><a xlink:title=" ">
<path fill="none" stroke="#63b8ff" d="M938.39,-236.01C952.66,-240.89 970.95,-247.15 986.81,-252.58"/>
<polygon fill="#63b8ff" stroke="#63b8ff" points="985.29,-255.76 995.88,-255.68 987.56,-249.14 985.29,-255.76"/>
</a>
</g>
</g>
<!-- Node13 -->
<g id="Node000013" class="node">
<title>Node13</title>
<g id="a_Node000013"><a xlink:href="../../d7/df8/log_8c.html#a3dbd75fb614210f0b114cfd03c9c0a7b" target="_top" xlink:title=" ">
<polygon fill="white" stroke="#666666" points="1207,-142.33 1103.25,-142.33 1103.25,-123.08 1207,-123.08 1207,-142.33"/>
<text text-anchor="middle" x="1155.12" y="-128.83" font-family="Helvetica,sans-Serif" font-size="10.00">__logger_do_refresh</text>
</a>
</g>
</g>
<!-- Node12&#45;&gt;Node13 -->
<g id="edge12_Node000012_Node000013" class="edge">
<title>Node12&#45;&gt;Node13</title>
<g id="a_edge12_Node000012_Node000013"><a xlink:title=" ">
<path fill="none" stroke="#63b8ff" d="M1067.5,-120.7C1075.31,-121.78 1083.59,-122.93 1091.82,-124.07"/>
<polygon fill="#63b8ff" stroke="#63b8ff" points="1091.08,-127.5 1101.46,-125.41 1092.04,-120.57 1091.08,-127.5"/>
</a>
</g>
</g>
<!-- Node28 -->
<g id="Node000028" class="node">
<title>Node28</title>
<g id="a_Node000028"><a xlink:href="../../d7/df8/log_8c.html#a7b1b02d1986e1247c2f571af4a2c2854" target="_top" xlink:title=" ">
<polygon fill="white" stroke="#666666" points="1192.75,-105.33 1117.5,-105.33 1117.5,-86.08 1192.75,-86.08 1192.75,-105.33"/>
<text text-anchor="middle" x="1155.12" y="-91.83" font-family="Helvetica,sans-Serif" font-size="10.00">log_spin_lock</text>
</a>
</g>
</g>
<!-- Node12&#45;&gt;Node28 -->
<g id="edge31_Node000012_Node000028" class="edge">
<title>Node12&#45;&gt;Node28</title>
<g id="a_edge31_Node000012_Node000028"><a xlink:title=" ">
<path fill="none" stroke="#63b8ff" d="M1067.5,-108.38C1079.81,-106.58 1093.3,-104.6 1105.9,-102.76"/>
<polygon fill="#63b8ff" stroke="#63b8ff" points="1106.26,-106.25 1115.65,-101.34 1105.25,-99.32 1106.26,-106.25"/>
</a>
</g>
</g>
<!-- Node29 -->
<g id="Node000029" class="node">
<title>Node29</title>
<g id="a_Node000029"><a xlink:href="../../d1/dc0/group__log.html#ga045020bb4af234632f7761f220131c69" target="_top" xlink:title=" ">
<polygon fill="white" stroke="#666666" points="1198,-68.33 1112.25,-68.33 1112.25,-49.08 1198,-49.08 1198,-68.33"/>
<text text-anchor="middle" x="1155.12" y="-54.83" font-family="Helvetica,sans-Serif" font-size="10.00">log_spin_unlock</text>
</a>
</g>
</g>
<!-- Node12&#45;&gt;Node29 -->
<g id="edge32_Node000012_Node000029" class="edge">
<title>Node12&#45;&gt;Node29</title>
<g id="a_edge32_Node000012_Node000029"><a xlink:title=" ">
<path fill="none" stroke="#63b8ff" d="M1043.46,-104.74C1059.3,-96.71 1082.45,-85.36 1103.25,-76.71 1106.58,-75.32 1110.06,-73.95 1113.57,-72.61"/>
<polygon fill="#63b8ff" stroke="#63b8ff" points="1114.47,-76.01 1122.64,-69.26 1112.05,-69.44 1114.47,-76.01"/>
</a>
</g>
</g>
<!-- Node13&#45;&gt;Node13 -->
<g id="edge13_Node000013_Node000013" class="edge">
<title>Node13&#45;&gt;Node13</title>
<g id="a_edge13_Node000013_Node000013"><a xlink:title=" ">
<path fill="none" stroke="#63b8ff" d="M1134.48,-142.62C1125.06,-151.23 1131.94,-160.33 1155.12,-160.33 1167.8,-160.33 1175.6,-157.61 1178.53,-153.73"/>
<polygon fill="#63b8ff" stroke="#63b8ff" points="1181.94,-152.95 1176.14,-144.09 1175.15,-154.64 1181.94,-152.95"/>
</a>
</g>
</g>
<!-- Node14 -->
<g id="Node000014" class="node">
<title>Node14</title>
<g id="a_Node000014"><a xlink:href="../../de/d1a/container-dlist_8h.html#a3b6f65860b212e28f2e28e71eb54d54d" target="_top" xlink:title="Add element e at the head of list l (suited for LIFO).">
<polygon fill="white" stroke="#666666" points="1334,-49.33 1279,-49.33 1279,-30.08 1334,-30.08 1334,-49.33"/>
<text text-anchor="middle" x="1306.5" y="-35.83" font-family="Helvetica,sans-Serif" font-size="10.00">dlist_add</text>
</a>
</g>
</g>
<!-- Node13&#45;&gt;Node14 -->
<g id="edge14_Node000013_Node000014" class="edge">
<title>Node13&#45;&gt;Node14</title>
<g id="a_edge14_Node000013_Node000014"><a xlink:title=" ">
<path fill="none" stroke="#63b8ff" d="M1193.78,-122.67C1198.5,-120.49 1203.05,-117.86 1207,-114.71 1230.42,-96.01 1219.04,-75.7 1243,-57.71 1250.16,-52.33 1258.88,-48.56 1267.5,-45.92"/>
<polygon fill="#63b8ff" stroke="#63b8ff" points="1268.37,-49.31 1277.18,-43.42 1266.62,-42.53 1268.37,-49.31"/>
</a>
</g>
</g>
<!-- Node16 -->
<g id="Node000016" class="node">
<title>Node16</title>
<g id="a_Node000016"><a xlink:href="../../de/d1a/container-dlist_8h.html#a0a69e401f6ec15966c891e96ad864c77" target="_top" xlink:title="Put a dlist_t element in a safe and detached state.">
<polygon fill="white" stroke="#666666" points="1332.5,-123.33 1280.5,-123.33 1280.5,-104.08 1332.5,-104.08 1332.5,-123.33"/>
<text text-anchor="middle" x="1306.5" y="-109.83" font-family="Helvetica,sans-Serif" font-size="10.00">dlist_init</text>
</a>
</g>
</g>
<!-- Node13&#45;&gt;Node16 -->
<g id="edge16_Node000013_Node000016" class="edge">
<title>Node13&#45;&gt;Node16</title>
<g id="a_edge16_Node000013_Node000016"><a xlink:title=" ">
<path fill="none" stroke="#63b8ff" d="M1207.11,-126.22C1227.45,-123.63 1250.41,-120.71 1269.03,-118.35"/>
<polygon fill="#63b8ff" stroke="#63b8ff" points="1269.3,-121.84 1278.78,-117.11 1268.42,-114.9 1269.3,-121.84"/>
</a>
</g>
</g>
<!-- Node17 -->
<g id="Node000017" class="node">
<title>Node17</title>
<g id="a_Node000017"><a xlink:href="../../d7/df8/log_8c.html#a4c8fbe8648573312126ce341cf34cba1" target="_top" xlink:title=" ">
<polygon fill="white" stroke="#666666" points="1370,-199.33 1243,-199.33 1243,-180.08 1370,-180.08 1370,-199.33"/>
<text text-anchor="middle" x="1306.5" y="-185.83" font-family="Helvetica,sans-Serif" font-size="10.00">logger_compute_fullname</text>
</a>
</g>
</g>
<!-- Node13&#45;&gt;Node17 -->
<g id="edge17_Node000013_Node000017" class="edge">
<title>Node13&#45;&gt;Node17</title>
<g id="a_edge17_Node000013_Node000017"><a xlink:title=" ">
<path fill="none" stroke="#63b8ff" d="M1182.49,-142.77C1206.41,-151.9 1241.93,-165.45 1268.66,-175.65"/>
<polygon fill="#63b8ff" stroke="#63b8ff" points="1267.15,-178.82 1277.74,-179.11 1269.64,-172.28 1267.15,-178.82"/>
</a>
</g>
</g>
<!-- Node20 -->
<g id="Node000020" class="node">
<title>Node20</title>
<g id="a_Node000020"><a xlink:href="../../df/d0a/str-l_8h.html#ad74dae07179370f3c22e3f026157926e" target="_top" xlink:title="wipe a lstr_t (frees memory if needed).">
<polygon fill="white" stroke="#666666" points="1477.5,-176.33 1422.5,-176.33 1422.5,-157.08 1477.5,-157.08 1477.5,-176.33"/>
<text text-anchor="middle" x="1450" y="-162.83" font-family="Helvetica,sans-Serif" font-size="10.00">lstr_wipe</text>
</a>
</g>
</g>
<!-- Node13&#45;&gt;Node20 -->
<g id="edge30_Node000013_Node000020" class="edge">
<title>Node13&#45;&gt;Node20</title>
<g id="a_edge30_Node000013_Node000020"><a xlink:title=" ">
<path fill="none" stroke="#63b8ff" d="M1207.48,-138.67C1265.61,-145.42 1358.99,-156.26 1410.96,-162.29"/>
<polygon fill="#63b8ff" stroke="#63b8ff" points="1410.47,-165.76 1420.81,-163.43 1411.28,-158.8 1410.47,-165.76"/>
</a>
</g>
</g>
<!-- Node27 -->
<g id="Node000027" class="node">
<title>Node27</title>
<g id="a_Node000027"><a xlink:href="../../df/d0a/str-l_8h.html#a963c22b229774d4b7c106bae4011cb8e" target="_top" xlink:title="Returns whether \v s1 and \v s2 contents are equal.">
<polygon fill="white" stroke="#666666" points="1335.5,-86.33 1277.5,-86.33 1277.5,-67.08 1335.5,-67.08 1335.5,-86.33"/>
<text text-anchor="middle" x="1306.5" y="-72.83" font-family="Helvetica,sans-Serif" font-size="10.00">lstr_equal</text>
</a>
</g>
</g>
<!-- Node13&#45;&gt;Node27 -->
<g id="edge29_Node000013_Node000027" class="edge">
<title>Node13&#45;&gt;Node27</title>
<g id="a_edge29_Node000013_Node000027"><a xlink:title=" ">
<path fill="none" stroke="#63b8ff" d="M1187.12,-122.67C1193.76,-120.26 1200.68,-117.56 1207,-114.71 1223.69,-107.18 1226.1,-101.73 1243,-94.71 1250.29,-91.68 1258.25,-88.96 1265.98,-86.62"/>
<polygon fill="#63b8ff" stroke="#63b8ff" points="1266.93,-89.98 1275.58,-83.86 1265,-83.26 1266.93,-89.98"/>
</a>
</g>
</g>
<!-- Node15 -->
<g id="Node000015" class="node">
<title>Node15</title>
<g id="a_Node000015"><a xlink:href="../../de/d1a/container-dlist_8h.html#a71e7667ca0e4b896923788c5851afd24" target="_top" xlink:title="Put element e between prev and next.">
<polygon fill="white" stroke="#666666" points="1482.75,-49.33 1417.25,-49.33 1417.25,-30.08 1482.75,-30.08 1482.75,-49.33"/>
<text text-anchor="middle" x="1450" y="-35.83" font-family="Helvetica,sans-Serif" font-size="10.00">__dlist_add</text>
</a>
</g>
</g>
<!-- Node14&#45;&gt;Node15 -->
<g id="edge15_Node000014_Node000015" class="edge">
<title>Node14&#45;&gt;Node15</title>
<g id="a_edge15_Node000014_Node000015"><a xlink:title=" ">
<path fill="none" stroke="#63b8ff" d="M1334.45,-39.71C1354.55,-39.71 1382.42,-39.71 1405.64,-39.71"/>
<polygon fill="#63b8ff" stroke="#63b8ff" points="1405.44,-43.21 1415.44,-39.71 1405.44,-36.21 1405.44,-43.21"/>
</a>
</g>
</g>
<!-- Node18 -->
<g id="Node000018" class="node">
<title>Node18</title>
<g id="a_Node000018"><a xlink:href="../../df/d0a/str-l_8h.html#a6a200ca09358f19b13a8e297cda34869" target="_top" xlink:title="returns a constant copy of \v s.">
<polygon fill="white" stroke="#666666" points="1477.88,-213.33 1422.12,-213.33 1422.12,-194.08 1477.88,-194.08 1477.88,-213.33"/>
<text text-anchor="middle" x="1450" y="-199.83" font-family="Helvetica,sans-Serif" font-size="10.00">lstr_dupc</text>
</a>
</g>
</g>
<!-- Node17&#45;&gt;Node18 -->
<g id="edge18_Node000017_Node000018" class="edge">
<title>Node17&#45;&gt;Node18</title>
<g id="a_edge18_Node000017_Node000018"><a xlink:title=" ">
<path fill="none" stroke="#63b8ff" d="M1370.39,-195.93C1384.04,-197.28 1398.08,-198.67 1410.45,-199.89"/>
<polygon fill="#63b8ff" stroke="#63b8ff" points="1409.93,-203.36 1420.23,-200.86 1410.62,-196.39 1409.93,-203.36"/>
</a>
</g>
</g>
<!-- Node17&#45;&gt;Node20 -->
<g id="edge20_Node000017_Node000020" class="edge">
<title>Node17&#45;&gt;Node20</title>
<g id="a_edge20_Node000017_Node000020"><a xlink:title=" ">
<path fill="none" stroke="#63b8ff" d="M1369.56,-179.62C1383.66,-177.33 1398.23,-174.96 1410.98,-172.89"/>
<polygon fill="#63b8ff" stroke="#63b8ff" points="1411.31,-176.38 1420.62,-171.32 1410.18,-169.47 1411.31,-176.38"/>
</a>
</g>
</g>
<!-- Node19 -->
<g id="Node000019" class="node">
<title>Node19</title>
<g id="a_Node000019"><a xlink:href="../../df/d0a/str-l_8h.html#a3b4dbe9c4cc70340cba0787574dc1c5e" target="_top" xlink:title=" ">
<polygon fill="white" stroke="#666666" points="1807.5,-166.33 1754.75,-166.33 1754.75,-147.08 1807.5,-147.08 1807.5,-166.33"/>
<text text-anchor="middle" x="1781.12" y="-152.83" font-family="Helvetica,sans-Serif" font-size="10.00">lstr_init_</text>
</a>
</g>
</g>
<!-- Node18&#45;&gt;Node19 -->
<g id="edge19_Node000018_Node000019" class="edge">
<title>Node18&#45;&gt;Node19</title>
<g id="a_edge19_Node000018_Node000019"><a xlink:title=" ">
<path fill="none" stroke="#63b8ff" d="M1474.04,-193.71C1489.55,-187.44 1510.64,-179.8 1530,-175.71 1604.59,-159.95 1694.14,-156.86 1743.3,-156.48"/>
<polygon fill="#63b8ff" stroke="#63b8ff" points="1743.11,-159.98 1753.09,-156.44 1743.08,-152.98 1743.11,-159.98"/>
</a>
</g>
</g>
<!-- Node21 -->
<g id="Node000021" class="node">
<title>Node21</title>
<g id="a_Node000021"><a xlink:href="../../df/d0a/str-l_8h.html#a381cd831ac9616c5bea8213bb679d1ac" target="_top" xlink:title="Wipe a lstr_t (frees memory if needed).">
<polygon fill="white" stroke="#666666" points="1603.75,-204.33 1530,-204.33 1530,-185.08 1603.75,-185.08 1603.75,-204.33"/>
<text text-anchor="middle" x="1566.88" y="-190.83" font-family="Helvetica,sans-Serif" font-size="10.00">mp_lstr_wipe</text>
</a>
</g>
</g>
<!-- Node20&#45;&gt;Node21 -->
<g id="edge21_Node000020_Node000021" class="edge">
<title>Node20&#45;&gt;Node21</title>
<g id="a_edge21_Node000020_Node000021"><a xlink:title=" ">
<path fill="none" stroke="#63b8ff" d="M1477.93,-173.27C1490.07,-176.23 1504.77,-179.81 1518.65,-183.2"/>
<polygon fill="#63b8ff" stroke="#63b8ff" points="1517.53,-186.52 1528.07,-185.49 1519.19,-179.72 1517.53,-186.52"/>
</a>
</g>
</g>
<!-- Node22 -->
<g id="Node000022" class="node">
<title>Node22</title>
<g id="a_Node000022"><a xlink:href="../../de/d04/str-l_8c.html#abe2a3a71f0b4dbc7d37c59d16762b6fb" target="_top" xlink:title="lstr_copy_* helper.">
<polygon fill="white" stroke="#666666" points="1718.75,-204.33 1639.75,-204.33 1639.75,-185.08 1718.75,-185.08 1718.75,-204.33"/>
<text text-anchor="middle" x="1679.25" y="-190.83" font-family="Helvetica,sans-Serif" font-size="10.00">mp_lstr_copy_</text>
</a>
</g>
</g>
<!-- Node21&#45;&gt;Node22 -->
<g id="edge22_Node000021_Node000022" class="edge">
<title>Node21&#45;&gt;Node22</title>
<g id="a_edge22_Node000021_Node000022"><a xlink:title=" ">
<path fill="none" stroke="#63b8ff" d="M1604.02,-194.71C1611.71,-194.71 1619.96,-194.71 1628.07,-194.71"/>
<polygon fill="#63b8ff" stroke="#63b8ff" points="1627.85,-198.21 1637.85,-194.71 1627.85,-191.21 1627.85,-198.21"/>
</a>
</g>
</g>
<!-- Node22&#45;&gt;Node19 -->
<g id="edge28_Node000022_Node000019" class="edge">
<title>Node22&#45;&gt;Node19</title>
<g id="a_edge28_Node000022_Node000019"><a xlink:title=" ">
<path fill="none" stroke="#63b8ff" d="M1706.75,-184.62C1718.19,-180.27 1731.76,-175.11 1744.1,-170.42"/>
<polygon fill="#63b8ff" stroke="#63b8ff" points="1745.02,-173.81 1753.12,-166.98 1742.53,-167.27 1745.02,-173.81"/>
</a>
</g>
</g>
<!-- Node23 -->
<g id="Node000023" class="node">
<title>Node23</title>
<g id="a_Node000023"><a xlink:href="../../d9/d9a/mem_8h.html#aebbbd277e2952bdb802104671ba23ba9" target="_top" xlink:title=" ">
<polygon fill="white" stroke="#666666" points="1798.5,-219.33 1763.75,-219.33 1763.75,-200.08 1798.5,-200.08 1798.5,-219.33"/>
<text text-anchor="middle" x="1781.12" y="-205.83" font-family="Helvetica,sans-Serif" font-size="10.00">ifree</text>
</a>
</g>
</g>
<!-- Node22&#45;&gt;Node23 -->
<g id="edge23_Node000022_Node000023" class="edge">
<title>Node22&#45;&gt;Node23</title>
<g id="a_edge23_Node000022_Node000023"><a xlink:title=" ">
<path fill="none" stroke="#63b8ff" d="M1719.15,-200.55C1730.17,-202.2 1741.95,-203.97 1752.19,-205.51"/>
<polygon fill="#63b8ff" stroke="#63b8ff" points="1751.45,-208.94 1761.86,-206.96 1752.49,-202.02 1751.45,-208.94"/>
</a>
</g>
</g>
<!-- Node24 -->
<g id="Node000024" class="node">
<title>Node24</title>
<g id="a_Node000024"><a xlink:href="../../d8/d37/mem_8blk.html#a36b65ab346f1d0deed7b63c544c78f2b" target="_top" xlink:title=" ">
<polygon fill="white" stroke="#666666" points="1888.38,-313.33 1852.12,-313.33 1852.12,-294.08 1888.38,-294.08 1888.38,-313.33"/>
<text text-anchor="middle" x="1870.25" y="-299.83" font-family="Helvetica,sans-Serif" font-size="10.00">ipool</text>
</a>
</g>
</g>
<!-- Node23&#45;&gt;Node24 -->
<g id="edge24_Node000023_Node000024" class="edge">
<title>Node23&#45;&gt;Node24</title>
<g id="a_edge24_Node000023_Node000024"><a xlink:title=" ">
<path fill="none" stroke="#63b8ff" d="M1791.45,-219.77C1805.93,-235.39 1834.03,-265.71 1852.2,-285.31"/>
<polygon fill="#63b8ff" stroke="#63b8ff" points="1849.6,-287.65 1858.96,-292.61 1854.73,-282.9 1849.6,-287.65"/>
</a>
</g>
</g>
<!-- Node26 -->
<g id="Node000026" class="node">
<title>Node26</title>
<g id="a_Node000026"><a xlink:href="../../d8/d37/mem_8blk.html#a83c7cf203e5eef9d1a8c6c43cde3e2e5" target="_top" xlink:title=" ">
<polygon fill="white" stroke="#666666" points="1897,-219.33 1843.5,-219.33 1843.5,-200.08 1897,-200.08 1897,-219.33"/>
<text text-anchor="middle" x="1870.25" y="-205.83" font-family="Helvetica,sans-Serif" font-size="10.00">mp_ifree</text>
</a>
</g>
</g>
<!-- Node23&#45;&gt;Node26 -->
<g id="edge27_Node000023_Node000026" class="edge">
<title>Node23&#45;&gt;Node26</title>
<g id="a_edge27_Node000023_Node000026"><a xlink:title=" ">
<path fill="none" stroke="#63b8ff" d="M1798.92,-209.71C1808.34,-209.71 1820.49,-209.71 1832.03,-209.71"/>
<polygon fill="#63b8ff" stroke="#63b8ff" points="1831.73,-213.21 1841.73,-209.71 1831.73,-206.21 1831.73,-213.21"/>
</a>
</g>
</g>
<!-- Node24&#45;&gt;Node11 -->
<g id="edge25_Node000024_Node000011" class="edge">
<title>Node24&#45;&gt;Node11</title>
<g id="a_edge25_Node000024_Node000011"><a xlink:title=" ">
<path fill="none" stroke="#63b8ff" d="M1851.79,-303.71C1818.45,-303.71 1743.41,-303.71 1680.25,-303.71 1154.12,-303.71 1154.12,-303.71 1154.12,-303.71 1075.9,-303.71 1049.24,-318.66 979.25,-283.71 958.44,-273.31 961.3,-260.39 943.25,-245.71 942.59,-245.17 941.92,-244.64 941.23,-244.12"/>
<polygon fill="#63b8ff" stroke="#63b8ff" points="943.34,-241.32 933.12,-238.52 939.37,-247.08 943.34,-241.32"/>
</a>
</g>
</g>
<!-- Node24&#45;&gt;Node25 -->
<g id="edge26_Node000024_Node000025" class="edge">
<title>Node24&#45;&gt;Node25</title>
<g id="a_edge26_Node000024_Node000025"><a xlink:title=" ">
<path fill="none" stroke="#63b8ff" d="M1888.61,-307.74C1898.16,-309.95 1910.3,-312.77 1921.47,-315.36"/>
<polygon fill="#63b8ff" stroke="#63b8ff" points="1920.6,-318.75 1931.13,-317.6 1922.18,-311.93 1920.6,-318.75"/>
</a>
</g>
</g>
<!-- Node30&#45;&gt;Node18 -->
<g id="edge37_Node000030_Node000018" class="edge">
<title>Node30&#45;&gt;Node18</title>
<g id="a_edge37_Node000030_Node000018"><a xlink:title=" ">
<path fill="none" stroke="#63b8ff" d="M1056.19,-226.04C1117.19,-222.84 1254.48,-215.54 1370,-208.71 1383.23,-207.92 1397.71,-207.02 1410.62,-206.2"/>
<polygon fill="#63b8ff" stroke="#63b8ff" points="1410.68,-209.7 1420.44,-205.57 1410.23,-202.72 1410.68,-209.7"/>
</a>
</g>
</g>
<!-- Node31 -->
<g id="Node000031" class="node">
<title>Node31</title>
<g id="a_Node000031"><a xlink:href="../../d1/dc0/group__log.html#ga168a6f17b248f61f7d25a17d58d04e36" target="_top" xlink:title=" ">
<polygon fill="white" stroke="#666666" points="1199.5,-275.33 1110.75,-275.33 1110.75,-256.08 1199.5,-256.08 1199.5,-275.33"/>
<text text-anchor="middle" x="1155.12" y="-261.83" font-family="Helvetica,sans-Serif" font-size="10.00">logger_has_level</text>
</a>
</g>
</g>
<!-- Node30&#45;&gt;Node31 -->
<g id="edge34_Node000030_Node000031" class="edge">
<title>Node30&#45;&gt;Node31</title>
<g id="a_edge34_Node000030_Node000031"><a xlink:title=" ">
<path fill="none" stroke="#63b8ff" d="M1056.35,-237.1C1072.13,-241.72 1091.41,-247.36 1108.67,-252.41"/>
<polygon fill="#63b8ff" stroke="#63b8ff" points="1107.63,-255.75 1118.21,-255.2 1109.59,-249.03 1107.63,-255.75"/>
</a>
</g>
</g>
<!-- Node32 -->
<g id="Node000032" class="node">
<title>Node32</title>
<g id="a_Node000032"><a xlink:href="../../d1/dc0/group__log.html#gaf388752b988541da0abeceecdf96e6b3" target="_top" xlink:title=" ">
<polygon fill="white" stroke="#666666" points="1349.75,-275.33 1263.25,-275.33 1263.25,-256.08 1349.75,-256.08 1349.75,-275.33"/>
<text text-anchor="middle" x="1306.5" y="-261.83" font-family="Helvetica,sans-Serif" font-size="10.00">logger_get_level</text>
</a>
</g>
</g>
<!-- Node31&#45;&gt;Node32 -->
<g id="edge35_Node000031_Node000032" class="edge">
<title>Node31&#45;&gt;Node32</title>
<g id="a_edge35_Node000031_Node000032"><a xlink:title=" ">
<path fill="none" stroke="#63b8ff" d="M1199.73,-265.71C1215.89,-265.71 1234.42,-265.71 1251.4,-265.71"/>
<polygon fill="#63b8ff" stroke="#63b8ff" points="1251.36,-269.21 1261.36,-265.71 1251.36,-262.21 1251.36,-269.21"/>
</a>
</g>
</g>
<!-- Node33 -->
<g id="Node000033" class="node">
<title>Node33</title>
<g id="a_Node000033"><a xlink:href="../../d1/dc0/group__log.html#ga93cbd623096e1704532d15b3eb30e42f" target="_top" xlink:title=" ">
<polygon fill="white" stroke="#666666" points="1494,-275.33 1406,-275.33 1406,-256.08 1494,-256.08 1494,-275.33"/>
<text text-anchor="middle" x="1450" y="-261.83" font-family="Helvetica,sans-Serif" font-size="10.00">__logger_refresh</text>
</a>
</g>
</g>
<!-- Node32&#45;&gt;Node33 -->
<g id="edge36_Node000032_Node000033" class="edge">
<title>Node32&#45;&gt;Node33</title>
<g id="a_edge36_Node000032_Node000033"><a xlink:title=" ">
<path fill="none" stroke="#63b8ff" d="M1349.95,-265.71C1363.83,-265.71 1379.44,-265.71 1394.1,-265.71"/>
<polygon fill="#63b8ff" stroke="#63b8ff" points="1394.08,-269.21 1404.08,-265.71 1394.08,-262.21 1394.08,-269.21"/>
</a>
</g>
</g>
<!-- Node36 -->
<g id="Node000036" class="node">
<title>Node36</title>
<g id="a_Node000036"><a xlink:href="../../d8/d96/bithacks_8h.html#ab80588fa9f8b9e766249edaf70558bdc" target="_top" xlink:title=" ">
<polygon fill="white" stroke="#666666" points="943.25,-274.33 883,-274.33 883,-255.08 943.25,-255.08 943.25,-274.33"/>
<text text-anchor="middle" x="913.12" y="-260.83" font-family="Helvetica,sans-Serif" font-size="10.00">bitcountsz</text>
</a>
</g>
</g>
<!-- Node35&#45;&gt;Node36 -->
<g id="edge40_Node000035_Node000036" class="edge">
<title>Node35&#45;&gt;Node36</title>
<g id="a_edge40_Node000035_Node000036"><a xlink:title=" ">
<path fill="none" stroke="#63b8ff" d="M835.57,-264.71C847.15,-264.71 859.87,-264.71 871.56,-264.71"/>
<polygon fill="#63b8ff" stroke="#63b8ff" points="871.31,-268.21 881.31,-264.71 871.31,-261.21 871.31,-268.21"/>
</a>
</g>
</g>
<!-- Node38 -->
<g id="Node000038" class="node">
<title>Node38</title>
<g id="a_Node000038"><a xlink:href="../../d8/d37/mem_8blk.html#a377e36d6fbaf3ee7f1b217559cb0c850" target="_top" xlink:title=" ">
<polygon fill="white" stroke="#666666" points="847,-311.33 744.75,-311.33 744.75,-292.08 847,-292.08 847,-311.33"/>
<text text-anchor="middle" x="795.88" y="-297.83" font-family="Helvetica,sans-Serif" font-size="10.00">__imalloc_too_large</text>
</a>
</g>
</g>
<!-- Node37&#45;&gt;Node38 -->
<g id="edge42_Node000037_Node000038" class="edge">
<title>Node37&#45;&gt;Node38</title>
<g id="a_edge42_Node000037_Node000038"><a xlink:title=" ">
<path fill="none" stroke="#63b8ff" d="M694.3,-276.83C709.56,-280.6 727.07,-284.94 743.17,-288.92"/>
<polygon fill="#63b8ff" stroke="#63b8ff" points="742.02,-292.24 752.57,-291.24 743.7,-285.44 742.02,-292.24"/>
</a>
</g>
</g>
<!-- Node39&#45;&gt;Node19 -->
<g id="edge44_Node000039_Node000019" class="edge">
<title>Node39&#45;&gt;Node19</title>
<g id="a_edge44_Node000039_Node000019"><a xlink:title=" ">
<path fill="none" stroke="#63b8ff" d="M1590.59,-72.77C1628.25,-89.45 1703.77,-122.89 1747.25,-142.15"/>
<polygon fill="#63b8ff" stroke="#63b8ff" points="1745.63,-145.26 1756.19,-146.11 1748.46,-138.86 1745.63,-145.26"/>
</a>
</g>
</g>
</g>
</svg>
