<?xml version="1.0" encoding="UTF-8" standalone="no"?>
<!DOCTYPE svg PUBLIC "-//W3C//DTD SVG 1.1//EN"
 "http://www.w3.org/Graphics/SVG/1.1/DTD/svg11.dtd">
<!-- Generated by graphviz version 9.0.0 (20230911.1827)
 -->
<!-- Title: http2_payload_get_trimmed_chunk Pages: 1 -->
<!--zoomable 117 -->

<svg id="main" version="1.1" xmlns="http://www.w3.org/2000/svg" xmlns:xlink="http://www.w3.org/1999/xlink" xml:space="preserve" onload="init(evt)">
<style type="text/css"><![CDATA[
.node, .edge {opacity: 0.7;}
.node.selected, .edge.selected {opacity: 1;}
.edge:hover path { stroke: red; }
.edge:hover polygon { stroke: red; fill: red; }
]]></style>

<defs>
  <circle id="rim" cx="0" cy="0" r="7"/>
  <circle id="rim2" cx="0" cy="0" r="3.5"/>
  <g id="zoomPlus">
    <use xlink:href="#rim" fill="#404040"><set attributeName="fill" to="#808080" begin="zoomplus.mouseover" end="zoomplus.mouseout"/></use>
    <path d="M-4,0h8M0,-4v8" fill="none" stroke="white" stroke-width="1.5" pointer-events="none"/>
  </g>
  <g id="zoomMin">
    <use xlink:href="#rim" fill="#404040"><set attributeName="fill" to="#808080" begin="zoomminus.mouseover" end="zoomminus.mouseout"/></use>
    <path d="M-4,0h8" fill="none" stroke="white" stroke-width="1.5" pointer-events="none"/>
  </g>
  <g id="arrowUp" transform="translate(30 24)">
    <use xlink:href="#rim"/>
    <path pointer-events="none" fill="none" stroke="white" stroke-width="1.5" d="M0,-3.0v7 M-2.5,-0.5L0,-3.0L2.5,-0.5"/>
  </g>
  <g id="arrowRight" transform="rotate(90) translate(36 -43)">
    <use xlink:href="#rim"/>
    <path pointer-events="none" fill="none" stroke="white" stroke-width="1.5" d="M0,-3.0v7 M-2.5,-0.5L0,-3.0L2.5,-0.5"/>
  </g>
  <g id="arrowDown" transform="rotate(180) translate(-30 -48)">
    <use xlink:href="#rim"/>
    <path pointer-events="none" fill="none" stroke="white" stroke-width="1.5" d="M0,-3.0v7 M-2.5,-0.5L0,-3.0L2.5,-0.5"/>
  </g>
  <g id="arrowLeft" transform="rotate(270) translate(-36 17)">
    <use xlink:href="#rim"/>
    <path pointer-events="none" fill="none" stroke="white" stroke-width="1.5" d="M0,-3.0v7 M-2.5,-0.5L0,-3.0L2.5,-0.5"/>
  </g>
  <g id="resetDef">
    <use xlink:href="#rim2" fill="#404040"><set attributeName="fill" to="#808080" begin="reset.mouseover" end="reset.mouseout"/></use>
  </g>
</defs>
<script type="application/ecmascript">
var viewWidth = 2067;
var viewHeight = 117;
var sectionId = 'dynsection-4';
</script>
<script type="application/ecmascript" xlink:href="../../svg.min.js"/>
<svg id="graph" class="graph">
<g id="viewport">
<title>http2_payload_get_trimmed_chunk</title>
<!-- Node1 -->
<g id="Node000001" class="node">
<title>Node1</title>
<g id="a_Node000001"><a xlink:title="Get the trimmed chunk of a HTTP/2 payload by removing the padding.">
<polygon fill="#999999" stroke="#666666" points="2059.25,-73.5 1924,-73.5 1924,-43 2059.25,-43 2059.25,-73.5"/>
<text text-anchor="start" x="1932" y="-60" font-family="Helvetica,sans-Serif" font-size="10.00">http2_payload_get_trimmed</text>
<text text-anchor="middle" x="1991.62" y="-48.75" font-family="Helvetica,sans-Serif" font-size="10.00">_chunk</text>
</a>
</g>
</g>
<!-- Node2 -->
<g id="Node000002" class="node">
<title>Node2</title>
<g id="a_Node000002"><a xlink:href="../../dd/d4a/net_2http_8c.html#a47dc85cf9d2fc00549967d2583a79992" target="_top" xlink:title=" ">
<polygon fill="white" stroke="#666666" points="1880.12,-104.88 1762.88,-104.88 1762.88,-85.62 1880.12,-85.62 1880.12,-104.88"/>
<text text-anchor="middle" x="1821.5" y="-91.38" font-family="Helvetica,sans-Serif" font-size="10.00">http2_conn_parse_data</text>
</a>
</g>
</g>
<!-- Node1&#45;&gt;Node2 -->
<g id="edge1_Node000001_Node000002" class="edge">
<title>Node1&#45;&gt;Node2</title>
<g id="a_edge1_Node000001_Node000002"><a xlink:title=" ">
<path fill="none" stroke="#63b8ff" d="M1912.7,-75.4C1897.49,-78.75 1882.01,-82.15 1868.27,-85.18"/>
<polygon fill="#63b8ff" stroke="#63b8ff" points="1913.2,-78.87 1922.22,-73.31 1911.7,-72.04 1913.2,-78.87"/>
</a>
</g>
</g>
<!-- Node22 -->
<g id="Node000022" class="node">
<title>Node22</title>
<g id="a_Node000022"><a xlink:href="../../dd/d4a/net_2http_8c.html#a80d71aeff699ae67e6453befa758cc4b" target="_top" xlink:title=" ">
<polygon fill="white" stroke="#666666" points="1888,-67.88 1755,-67.88 1755,-48.62 1888,-48.62 1888,-67.88"/>
<text text-anchor="middle" x="1821.5" y="-54.38" font-family="Helvetica,sans-Serif" font-size="10.00">http2_conn_parse_headers</text>
</a>
</g>
</g>
<!-- Node1&#45;&gt;Node22 -->
<g id="edge23_Node000001_Node000022" class="edge">
<title>Node1&#45;&gt;Node22</title>
<g id="a_edge23_Node000001_Node000022"><a xlink:title=" ">
<path fill="none" stroke="#63b8ff" d="M1912.41,-58.25C1904.37,-58.25 1896.26,-58.25 1888.38,-58.25"/>
<polygon fill="#63b8ff" stroke="#63b8ff" points="1912.18,-61.75 1922.18,-58.25 1912.18,-54.75 1912.18,-61.75"/>
</a>
</g>
</g>
<!-- Node23 -->
<g id="Node000023" class="node">
<title>Node23</title>
<g id="a_Node000023"><a xlink:href="../../dd/d4a/net_2http_8c.html#aaa847a55e8d6c54f4ac9146417c08ff9" target="_top" xlink:title=" ">
<polygon fill="white" stroke="#666666" points="1881.25,-30.5 1761.75,-30.5 1761.75,0 1881.25,0 1881.25,-30.5"/>
<text text-anchor="start" x="1769.75" y="-17" font-family="Helvetica,sans-Serif" font-size="10.00">http2_conn_parse_push</text>
<text text-anchor="middle" x="1821.5" y="-5.75" font-family="Helvetica,sans-Serif" font-size="10.00">_promise</text>
</a>
</g>
</g>
<!-- Node1&#45;&gt;Node23 -->
<g id="edge25_Node000001_Node000023" class="edge">
<title>Node1&#45;&gt;Node23</title>
<g id="a_edge25_Node000001_Node000023"><a xlink:title=" ">
<path fill="none" stroke="#63b8ff" d="M1918.34,-39.76C1906.1,-36.63 1893.52,-33.41 1881.66,-30.38"/>
<polygon fill="#63b8ff" stroke="#63b8ff" points="1917.43,-43.14 1927.99,-42.23 1919.17,-36.36 1917.43,-43.14"/>
</a>
</g>
</g>
<!-- Node3 -->
<g id="Node000003" class="node">
<title>Node3</title>
<g id="a_Node000003"><a xlink:href="../../dd/d4a/net_2http_8c.html#addba8a3224c0f2a994e3eb238c43ef0b" target="_top" xlink:title=" ">
<polygon fill="white" stroke="#666666" points="1719,-67.88 1587.5,-67.88 1587.5,-48.62 1719,-48.62 1719,-67.88"/>
<text text-anchor="middle" x="1653.25" y="-54.38" font-family="Helvetica,sans-Serif" font-size="10.00">http2_conn_parse_payload</text>
</a>
</g>
</g>
<!-- Node2&#45;&gt;Node3 -->
<g id="edge2_Node000002_Node000003" class="edge">
<title>Node2&#45;&gt;Node3</title>
<g id="a_edge2_Node000002_Node000003"><a xlink:title=" ">
<path fill="none" stroke="#63b8ff" d="M1764.03,-82.68C1743.04,-78.01 1719.5,-72.77 1699.62,-68.35"/>
<polygon fill="#63b8ff" stroke="#63b8ff" points="1763.07,-86.05 1773.59,-84.81 1764.59,-79.22 1763.07,-86.05"/>
</a>
</g>
</g>
<!-- Node4 -->
<g id="Node000004" class="node">
<title>Node4</title>
<g id="a_Node000004"><a xlink:href="../../dd/d4a/net_2http_8c.html#aa90fc77fe3e9885a90fa3b0a5d066fda" target="_top" xlink:title=" ">
<polygon fill="white" stroke="#666666" points="1551.5,-73.5 1447.75,-73.5 1447.75,-43 1551.5,-43 1551.5,-73.5"/>
<text text-anchor="start" x="1455.75" y="-60" font-family="Helvetica,sans-Serif" font-size="10.00">http2_conn_process</text>
<text text-anchor="middle" x="1499.62" y="-48.75" font-family="Helvetica,sans-Serif" font-size="10.00">_input_buffer</text>
</a>
</g>
</g>
<!-- Node3&#45;&gt;Node4 -->
<g id="edge3_Node000003_Node000004" class="edge">
<title>Node3&#45;&gt;Node4</title>
<g id="a_edge3_Node000003_Node000004"><a xlink:title=" ">
<path fill="none" stroke="#63b8ff" d="M1575.58,-58.25C1567.44,-58.25 1559.3,-58.25 1551.56,-58.25"/>
<polygon fill="#63b8ff" stroke="#63b8ff" points="1575.55,-61.75 1585.55,-58.25 1575.55,-54.75 1575.55,-61.75"/>
</a>
</g>
</g>
<!-- Node5 -->
<g id="Node000005" class="node">
<title>Node5</title>
<g id="a_Node000005"><a xlink:href="../../dd/d4a/net_2http_8c.html#a7116239c9f5e15549b2c80081b8cc76d" target="_top" xlink:title=" ">
<polygon fill="white" stroke="#666666" points="1411.75,-105.88 1302.75,-105.88 1302.75,-86.62 1411.75,-86.62 1411.75,-105.88"/>
<text text-anchor="middle" x="1357.25" y="-92.38" font-family="Helvetica,sans-Serif" font-size="10.00">http2_conn_on_event</text>
</a>
</g>
</g>
<!-- Node4&#45;&gt;Node5 -->
<g id="edge4_Node000004_Node000005" class="edge">
<title>Node4&#45;&gt;Node5</title>
<g id="a_edge4_Node000004_Node000005"><a xlink:title=" ">
<path fill="none" stroke="#63b8ff" d="M1436.46,-75.08C1422.46,-78.87 1408.02,-82.78 1395.43,-86.19"/>
<polygon fill="#63b8ff" stroke="#63b8ff" points="1437.35,-78.46 1446.09,-72.47 1435.52,-71.71 1437.35,-78.46"/>
</a>
</g>
</g>
<!-- Node6 -->
<g id="Node000006" class="node">
<title>Node6</title>
<g id="a_Node000006"><a xlink:href="../../dd/d4a/net_2http_8c.html#ad211549032983c94d9f52c4522a906a6" target="_top" xlink:title=" ">
<polygon fill="white" stroke="#666666" points="1266.75,-67.88 1126.25,-67.88 1126.25,-48.62 1266.75,-48.62 1266.75,-67.88"/>
<text text-anchor="middle" x="1196.5" y="-54.38" font-family="Helvetica,sans-Serif" font-size="10.00">http2_conn_on_preface_wait</text>
</a>
</g>
</g>
<!-- Node4&#45;&gt;Node6 -->
<g id="edge20_Node000004_Node000006" class="edge">
<title>Node4&#45;&gt;Node6</title>
<g id="a_edge20_Node000004_Node000006"><a xlink:title=" ">
<path fill="none" stroke="#63b8ff" d="M1436.09,-58.25C1386.84,-58.25 1318.23,-58.25 1267.22,-58.25"/>
<polygon fill="#63b8ff" stroke="#63b8ff" points="1436.03,-61.75 1446.03,-58.25 1436.03,-54.75 1436.03,-61.75"/>
</a>
</g>
</g>
<!-- Node21 -->
<g id="Node000021" class="node">
<title>Node21</title>
<g id="a_Node000021"><a xlink:href="../../dd/d4a/net_2http_8c.html#a84f0d249dafc919190634bd941b2bf6c" target="_top" xlink:title=" ">
<polygon fill="white" stroke="#666666" points="1260.38,-30.88 1132.62,-30.88 1132.62,-11.62 1260.38,-11.62 1260.38,-30.88"/>
<text text-anchor="middle" x="1196.5" y="-17.38" font-family="Helvetica,sans-Serif" font-size="10.00">http2_conn_pack_preface</text>
</a>
</g>
</g>
<!-- Node4&#45;&gt;Node21 -->
<g id="edge21_Node000004_Node000021" class="edge">
<title>Node4&#45;&gt;Node21</title>
<g id="a_edge21_Node000004_Node000021"><a xlink:title=" ">
<path fill="none" stroke="#63b8ff" d="M1436.26,-50.59C1384.84,-44.27 1312.23,-35.35 1260.61,-29"/>
<polygon fill="#63b8ff" stroke="#63b8ff" points="1435.69,-54.04 1446.04,-51.79 1436.54,-47.1 1435.69,-54.04"/>
</a>
</g>
</g>
<!-- Node5&#45;&gt;Node6 -->
<g id="edge5_Node000005_Node000006" class="edge">
<title>Node5&#45;&gt;Node6</title>
<g id="a_edge5_Node000005_Node000006"><a xlink:title=" ">
<path fill="none" stroke="#63b8ff" d="M1302.96,-83.49C1282.3,-78.55 1258.99,-72.97 1239.55,-68.31"/>
<polygon fill="#63b8ff" stroke="#63b8ff" points="1302.11,-86.89 1312.65,-85.81 1303.74,-80.08 1302.11,-86.89"/>
</a>
</g>
</g>
<!-- Node7 -->
<g id="Node000007" class="node">
<title>Node7</title>
<g id="a_Node000007"><a xlink:href="../../dd/d4a/net_2http_8c.html#a3ae7da35c16d0895aea3196afb96e16d" target="_top" xlink:title=" ">
<polygon fill="white" stroke="#666666" points="1090.25,-48.88 970.75,-48.88 970.75,-29.62 1090.25,-29.62 1090.25,-48.88"/>
<text text-anchor="middle" x="1030.5" y="-35.38" font-family="Helvetica,sans-Serif" font-size="10.00">http2_conn_on_connect</text>
</a>
</g>
</g>
<!-- Node6&#45;&gt;Node7 -->
<g id="edge6_Node000006_Node000007" class="edge">
<title>Node6&#45;&gt;Node7</title>
<g id="a_edge6_Node000006_Node000007"><a xlink:title=" ">
<path fill="none" stroke="#63b8ff" d="M1114.55,-48.87C1106.46,-47.93 1098.35,-46.99 1090.54,-46.09"/>
<polygon fill="#63b8ff" stroke="#63b8ff" points="1114.11,-52.34 1124.45,-50.02 1114.92,-45.39 1114.11,-52.34"/>
</a>
</g>
</g>
<!-- Node8 -->
<g id="Node000008" class="node">
<title>Node8</title>
<g id="a_Node000008"><a xlink:href="../../dd/d4a/net_2http_8c.html#a5754e9d15cd8048e27331bb4aaed12b7" target="_top" xlink:title=" ">
<polygon fill="white" stroke="#666666" points="929.5,-76.5 825.75,-76.5 825.75,-46 929.5,-46 929.5,-76.5"/>
<text text-anchor="start" x="833.75" y="-63" font-family="Helvetica,sans-Serif" font-size="10.00">http2_conn_connect</text>
<text text-anchor="middle" x="877.62" y="-51.75" font-family="Helvetica,sans-Serif" font-size="10.00">_client_as</text>
</a>
</g>
</g>
<!-- Node7&#45;&gt;Node8 -->
<g id="edge7_Node000007_Node000008" class="edge">
<title>Node7&#45;&gt;Node8</title>
<g id="a_edge7_Node000007_Node000008"><a xlink:title=" ">
<path fill="none" stroke="#63b8ff" d="M959.21,-49.5C949.3,-50.94 939.28,-52.41 929.83,-53.78"/>
<polygon fill="#63b8ff" stroke="#63b8ff" points="959.42,-53.01 968.81,-48.1 958.41,-46.08 959.42,-53.01"/>
</a>
</g>
</g>
<!-- Node18 -->
<g id="Node000018" class="node">
<title>Node18</title>
<g id="a_Node000018"><a xlink:href="../../dd/d4a/net_2http_8c.html#a3926ffca7cc91de4f1ef8ac35a7420c5" target="_top" xlink:title=" ">
<polygon fill="white" stroke="#666666" points="934.75,-27.88 820.5,-27.88 820.5,-8.62 934.75,-8.62 934.75,-27.88"/>
<text text-anchor="middle" x="877.62" y="-14.38" font-family="Helvetica,sans-Serif" font-size="10.00">httpd_spawn_as_http2</text>
</a>
</g>
</g>
<!-- Node7&#45;&gt;Node18 -->
<g id="edge17_Node000007_Node000018" class="edge">
<title>Node7&#45;&gt;Node18</title>
<g id="a_edge17_Node000007_Node000018"><a xlink:title=" ">
<path fill="none" stroke="#63b8ff" d="M959.07,-29.45C951.06,-28.33 942.98,-27.21 935.18,-26.12"/>
<polygon fill="#63b8ff" stroke="#63b8ff" points="958.42,-32.89 968.8,-30.8 959.38,-25.96 958.42,-32.89"/>
</a>
</g>
</g>
<!-- Node9 -->
<g id="Node000009" class="node">
<title>Node9</title>
<g id="a_Node000009"><a xlink:href="../../dd/d4a/net_2http_8c.html#a7a3e350c92c5b8a0ea73161bbc780926" target="_top" xlink:title=" ">
<polygon fill="white" stroke="#666666" points="784.5,-70.88 676.25,-70.88 676.25,-51.62 784.5,-51.62 784.5,-70.88"/>
<text text-anchor="middle" x="730.38" y="-57.38" font-family="Helvetica,sans-Serif" font-size="10.00">http2_pool_get_client</text>
</a>
</g>
</g>
<!-- Node8&#45;&gt;Node9 -->
<g id="edge8_Node000008_Node000009" class="edge">
<title>Node8&#45;&gt;Node9</title>
<g id="a_edge8_Node000008_Node000009"><a xlink:title=" ">
<path fill="none" stroke="#63b8ff" d="M814.05,-61.25C804.23,-61.25 794.16,-61.25 784.58,-61.25"/>
<polygon fill="#63b8ff" stroke="#63b8ff" points="813.9,-64.75 823.9,-61.25 813.9,-57.75 813.9,-64.75"/>
</a>
</g>
</g>
<!-- Node10 -->
<g id="Node000010" class="node">
<title>Node10</title>
<g id="a_Node000010"><a xlink:href="../../dd/d4a/net_2http_8c.html#ae849932f9841489cefbd4761c2ad561d" target="_top" xlink:title=" ">
<polygon fill="white" stroke="#666666" points="640.25,-70.88 520,-70.88 520,-51.62 640.25,-51.62 640.25,-70.88"/>
<text text-anchor="middle" x="580.12" y="-57.38" font-family="Helvetica,sans-Serif" font-size="10.00">httpc_connect_as_http2</text>
</a>
</g>
</g>
<!-- Node9&#45;&gt;Node10 -->
<g id="edge9_Node000009_Node000010" class="edge">
<title>Node9&#45;&gt;Node10</title>
<g id="a_edge9_Node000009_Node000010"><a xlink:title=" ">
<path fill="none" stroke="#63b8ff" d="M664.4,-61.25C656.48,-61.25 648.43,-61.25 640.6,-61.25"/>
<polygon fill="#63b8ff" stroke="#63b8ff" points="664.34,-64.75 674.34,-61.25 664.34,-57.75 664.34,-64.75"/>
</a>
</g>
</g>
<!-- Node11 -->
<g id="Node000011" class="node">
<title>Node11</title>
<g id="a_Node000011"><a xlink:href="../../dd/d4a/net_2http_8c.html#a30869b3f203c5600c7c6257da47f2a43" target="_top" xlink:title=" ">
<polygon fill="white" stroke="#666666" points="484,-70.88 390.75,-70.88 390.75,-51.62 484,-51.62 484,-70.88"/>
<text text-anchor="middle" x="437.38" y="-57.38" font-family="Helvetica,sans-Serif" font-size="10.00">httpc_connect_as</text>
</a>
</g>
</g>
<!-- Node10&#45;&gt;Node11 -->
<g id="edge10_Node000010_Node000011" class="edge">
<title>Node10&#45;&gt;Node11</title>
<g id="a_edge10_Node000010_Node000011"><a xlink:title=" ">
<path fill="none" stroke="#63b8ff" d="M508.35,-61.25C500.19,-61.25 492.04,-61.25 484.33,-61.25"/>
<polygon fill="#63b8ff" stroke="#63b8ff" points="508.33,-64.75 518.33,-61.25 508.33,-57.75 508.33,-64.75"/>
</a>
</g>
</g>
<!-- Node12 -->
<g id="Node000012" class="node">
<title>Node12</title>
<g id="a_Node000012"><a xlink:href="../../dd/d4a/net_2http_8c.html#a6fe5d8fb56f828b9cb355eaf9bb2efa8" target="_top" xlink:title=" ">
<polygon fill="white" stroke="#666666" points="346.12,-89.88 268.62,-89.88 268.62,-70.62 346.12,-70.62 346.12,-89.88"/>
<text text-anchor="middle" x="307.38" y="-76.38" font-family="Helvetica,sans-Serif" font-size="10.00">httpc_connect</text>
</a>
</g>
</g>
<!-- Node11&#45;&gt;Node12 -->
<g id="edge11_Node000011_Node000012" class="edge">
<title>Node11&#45;&gt;Node12</title>
<g id="a_edge11_Node000011_Node000012"><a xlink:title=" ">
<path fill="none" stroke="#63b8ff" d="M379.46,-69.7C368.24,-71.36 356.72,-73.07 346.32,-74.62"/>
<polygon fill="#63b8ff" stroke="#63b8ff" points="379.65,-73.21 389.03,-68.28 378.62,-66.28 379.65,-73.21"/>
</a>
</g>
</g>
<!-- Node16 -->
<g id="Node000016" class="node">
<title>Node16</title>
<g id="a_Node000016"><a xlink:href="../../dd/d4a/net_2http_8c.html#a08d48d7c0320097b6e50119e49dd1a5d" target="_top" xlink:title=" ">
<polygon fill="white" stroke="#666666" points="354.75,-52.88 260,-52.88 260,-33.62 354.75,-33.62 354.75,-52.88"/>
<text text-anchor="middle" x="307.38" y="-39.38" font-family="Helvetica,sans-Serif" font-size="10.00">httpc_pool_launch</text>
</a>
</g>
</g>
<!-- Node11&#45;&gt;Node16 -->
<g id="edge15_Node000011_Node000016" class="edge">
<title>Node11&#45;&gt;Node16</title>
<g id="a_edge15_Node000011_Node000016"><a xlink:title=" ">
<path fill="none" stroke="#63b8ff" d="M379.29,-53.22C371.23,-52.09 363.03,-50.94 355.2,-49.83"/>
<polygon fill="#63b8ff" stroke="#63b8ff" points="378.64,-56.66 389.03,-54.59 379.61,-49.73 378.64,-56.66"/>
</a>
</g>
</g>
<!-- Node13 -->
<g id="Node000013" class="node">
<title>Node13</title>
<g id="a_Node000013"><a xlink:href="../../dd/d4a/net_2http_8c.html#ae0600e298ca883d66d4ff582e8786e11" target="_top" xlink:title=" ">
<polygon fill="white" stroke="#666666" points="223.25,-89.88 145,-89.88 145,-70.62 223.25,-70.62 223.25,-89.88"/>
<text text-anchor="middle" x="184.12" y="-76.38" font-family="Helvetica,sans-Serif" font-size="10.00">z_query_setup</text>
</a>
</g>
</g>
<!-- Node12&#45;&gt;Node13 -->
<g id="edge12_Node000012_Node000013" class="edge">
<title>Node12&#45;&gt;Node13</title>
<g id="a_edge12_Node000012_Node000013"><a xlink:title=" ">
<path fill="none" stroke="#63b8ff" d="M256.95,-80.25C245.78,-80.25 234.08,-80.25 223.44,-80.25"/>
<polygon fill="#63b8ff" stroke="#63b8ff" points="256.83,-83.75 266.83,-80.25 256.83,-76.75 256.83,-83.75"/>
</a>
</g>
</g>
<!-- Node14 -->
<g id="Node000014" class="node">
<title>Node14</title>
<g id="a_Node000014"><a xlink:href="../../dd/d4a/net_2http_8c.html#ad6f99386fb518c8ba64244857b0240e1" target="_top" xlink:title=" ">
<polygon fill="white" stroke="#666666" points="108.25,-108.88 0,-108.88 0,-89.62 108.25,-89.62 108.25,-108.88"/>
<text text-anchor="middle" x="54.12" y="-95.38" font-family="Helvetica,sans-Serif" font-size="10.00">Z_GROUP_EXPORT</text>
</a>
</g>
</g>
<!-- Node13&#45;&gt;Node14 -->
<g id="edge13_Node000013_Node000014" class="edge">
<title>Node13&#45;&gt;Node14</title>
<g id="a_edge13_Node000013_Node000014"><a xlink:title=" ">
<path fill="none" stroke="#63b8ff" d="M133.49,-87.62C125.35,-88.83 116.88,-90.08 108.65,-91.31"/>
<polygon fill="#63b8ff" stroke="#63b8ff" points="133.85,-91.1 143.22,-86.17 132.82,-84.18 133.85,-91.1"/>
</a>
</g>
</g>
<!-- Node15 -->
<g id="Node000015" class="node">
<title>Node15</title>
<g id="a_Node000015"><a xlink:href="../../dd/d4a/net_2http_8c.html#ad196e07d97f054b7629a5f94093340dd" target="_top" xlink:title=" ">
<polygon fill="white" stroke="#666666" points="108.25,-71.88 0,-71.88 0,-52.62 108.25,-52.62 108.25,-71.88"/>
<text text-anchor="middle" x="54.12" y="-58.38" font-family="Helvetica,sans-Serif" font-size="10.00">Z_GROUP_EXPORT</text>
</a>
</g>
</g>
<!-- Node13&#45;&gt;Node15 -->
<g id="edge14_Node000013_Node000015" class="edge">
<title>Node13&#45;&gt;Node15</title>
<g id="a_edge14_Node000013_Node000015"><a xlink:title=" ">
<path fill="none" stroke="#63b8ff" d="M133.49,-73.27C125.35,-72.12 116.88,-70.93 108.65,-69.78"/>
<polygon fill="#63b8ff" stroke="#63b8ff" points="132.83,-76.71 143.22,-74.64 133.81,-69.78 132.83,-76.71"/>
</a>
</g>
</g>
<!-- Node17 -->
<g id="Node000017" class="node">
<title>Node17</title>
<g id="a_Node000017"><a xlink:href="../../dd/d4a/net_2http_8c.html#a13fe4b4dc9d8e2b66738d7bc50745860" target="_top" xlink:title=" ">
<polygon fill="white" stroke="#666666" points="224,-52.88 144.25,-52.88 144.25,-33.62 224,-33.62 224,-52.88"/>
<text text-anchor="middle" x="184.12" y="-39.38" font-family="Helvetica,sans-Serif" font-size="10.00">httpc_pool_get</text>
</a>
</g>
</g>
<!-- Node16&#45;&gt;Node17 -->
<g id="edge16_Node000016_Node000017" class="edge">
<title>Node16&#45;&gt;Node17</title>
<g id="a_edge16_Node000016_Node000017"><a xlink:title=" ">
<path fill="none" stroke="#63b8ff" d="M248.38,-43.25C240.2,-43.25 231.95,-43.25 224.24,-43.25"/>
<polygon fill="#63b8ff" stroke="#63b8ff" points="248.33,-46.75 258.33,-43.25 248.33,-39.75 248.33,-46.75"/>
</a>
</g>
</g>
<!-- Node19 -->
<g id="Node000019" class="node">
<title>Node19</title>
<g id="a_Node000019"><a xlink:href="../../dd/d4a/net_2http_8c.html#ababf4c72b8aba8aa09b45da6bccfd250" target="_top" xlink:title=" ">
<polygon fill="white" stroke="#666666" points="774.38,-27.88 686.38,-27.88 686.38,-8.62 774.38,-8.62 774.38,-27.88"/>
<text text-anchor="middle" x="730.38" y="-14.38" font-family="Helvetica,sans-Serif" font-size="10.00">httpd_on_accept</text>
</a>
</g>
</g>
<!-- Node18&#45;&gt;Node19 -->
<g id="edge18_Node000018_Node000019" class="edge">
<title>Node18&#45;&gt;Node19</title>
<g id="a_edge18_Node000018_Node000019"><a xlink:title=" ">
<path fill="none" stroke="#63b8ff" d="M808.56,-18.25C796.97,-18.25 785.23,-18.25 774.52,-18.25"/>
<polygon fill="#63b8ff" stroke="#63b8ff" points="808.54,-21.75 818.54,-18.25 808.54,-14.75 808.54,-21.75"/>
</a>
</g>
</g>
<!-- Node20 -->
<g id="Node000020" class="node">
<title>Node20</title>
<g id="a_Node000020"><a xlink:href="../../dd/d4a/net_2http_8c.html#a4bb48b79e806519f505be1648ff296fd" target="_top" xlink:title=" ">
<polygon fill="white" stroke="#666666" points="613.25,-27.88 547,-27.88 547,-8.62 613.25,-8.62 613.25,-27.88"/>
<text text-anchor="middle" x="580.12" y="-14.38" font-family="Helvetica,sans-Serif" font-size="10.00">httpd_listen</text>
</a>
</g>
</g>
<!-- Node19&#45;&gt;Node20 -->
<g id="edge19_Node000019_Node000020" class="edge">
<title>Node19&#45;&gt;Node20</title>
<g id="a_edge19_Node000019_Node000020"><a xlink:title=" ">
<path fill="none" stroke="#63b8ff" d="M674.6,-18.25C654,-18.25 631.27,-18.25 613.37,-18.25"/>
<polygon fill="#63b8ff" stroke="#63b8ff" points="674.58,-21.75 684.58,-18.25 674.58,-14.75 674.58,-21.75"/>
</a>
</g>
</g>
<!-- Node21&#45;&gt;Node7 -->
<g id="edge22_Node000021_Node000007" class="edge">
<title>Node21&#45;&gt;Node7</title>
<g id="a_edge22_Node000021_Node000007"><a xlink:title=" ">
<path fill="none" stroke="#63b8ff" d="M1121.42,-29.38C1111.06,-30.52 1100.53,-31.67 1090.5,-32.77"/>
<polygon fill="#63b8ff" stroke="#63b8ff" points="1121.5,-32.89 1131.06,-28.32 1120.74,-25.93 1121.5,-32.89"/>
</a>
</g>
</g>
<!-- Node22&#45;&gt;Node3 -->
<g id="edge24_Node000022_Node000003" class="edge">
<title>Node22&#45;&gt;Node3</title>
<g id="a_edge24_Node000022_Node000003"><a xlink:title=" ">
<path fill="none" stroke="#63b8ff" d="M1743.52,-58.25C1735.48,-58.25 1727.37,-58.25 1719.48,-58.25"/>
<polygon fill="#63b8ff" stroke="#63b8ff" points="1743.28,-61.75 1753.28,-58.25 1743.28,-54.75 1743.28,-61.75"/>
</a>
</g>
</g>
<!-- Node23&#45;&gt;Node3 -->
<g id="edge26_Node000023_Node000003" class="edge">
<title>Node23&#45;&gt;Node3</title>
<g id="a_edge26_Node000023_Node000003"><a xlink:title=" ">
<path fill="none" stroke="#63b8ff" d="M1750.4,-33.38C1730.89,-38.43 1710.41,-43.72 1693.38,-48.13"/>
<polygon fill="#63b8ff" stroke="#63b8ff" points="1751.15,-36.8 1759.95,-30.91 1749.4,-30.03 1751.15,-36.8"/>
</a>
</g>
</g>
</g>
</svg>

<g id="navigator" transform="translate(0 0)" fill="#404254">
  <rect fill="#f2f5e9" fill-opacity="0.5" stroke="#606060" stroke-width=".5" x="0" y="0" width="60" height="60"/>
  <use id="zoomplus" xlink:href="#zoomPlus" x="17" y="9" onmousedown="handleZoom(evt,'in')"/>
  <use id="zoomminus" xlink:href="#zoomMin" x="42" y="9" onmousedown="handleZoom(evt,'out')"/>
  <use id="reset" xlink:href="#resetDef" x="30" y="36" onmousedown="handleReset()"/>
   <use id="arrowup" xlink:href="#arrowUp" x="0" y="0" onmousedown="handlePan(0,-1)"/>
  <use id="arrowright" xlink:href="#arrowRight" x="0" y="0" onmousedown="handlePan(1,0)"/>
  <use id="arrowdown" xlink:href="#arrowDown" x="0" y="0" onmousedown="handlePan(0,1)"/>
  <use id="arrowleft" xlink:href="#arrowLeft" x="0" y="0" onmousedown="handlePan(-1,0)"/>
</g>
<svg viewBox="0 0 15 15" width="100%" height="30px" preserveAspectRatio="xMaxYMin meet">
 <g id="arrow_out" transform="scale(0.3 0.3)">
  <a xlink:href="http2_8h_aa714a2d55da4153b713f120acd207f4a_icgraph_org.svg" target="_base">
   <rect id="button" ry="5" rx="5" y="6" x="6" height="38" width="38"
        fill="#f2f5e9" fill-opacity="0.5" stroke="#606060" stroke-width="1.0"/>
   <path id="arrow"
     d="M 11.500037,31.436501 C 11.940474,20.09759 22.043105,11.32322 32.158766,21.979434 L 37.068811,17.246167 C 37.068811,17.246167 37.088388,32 37.088388,32 L 22.160133,31.978069 C 22.160133,31.978069 26.997745,27.140456 26.997745,27.140456 C 18.528582,18.264221 13.291696,25.230495 11.500037,31.436501 z"
     style="fill:#404040;"/>
  </a>
 </g>
</svg>

<style type='text/css'>
<![CDATA[
[data-mouse-over-selected='false'] { opacity: 0.7; }
[data-mouse-over-selected='true']  { opacity: 1.0; }
]]>
</style>
<script type="application/ecmascript"><![CDATA[
document.addEventListener('DOMContentLoaded', (event) => {
  highlightEdges();
  highlightAdjacentNodes();
});
]]></script>
</svg>
