<?xml version="1.0" encoding="UTF-8" standalone="no"?>
<!DOCTYPE svg PUBLIC "-//W3C//DTD SVG 1.1//EN"
 "http://www.w3.org/Graphics/SVG/1.1/DTD/svg11.dtd">
<!-- Generated by graphviz version 9.0.0 (20230911.1827)
 -->
<!-- Title: str&#45;buf.h Pages: 1 -->
<svg width="874pt" height="481pt"
 viewBox="0.00 0.00 874.12 480.50" xmlns="http://www.w3.org/2000/svg" xmlns:xlink="http://www.w3.org/1999/xlink">
<g id="graph0" class="graph" transform="scale(1 1) rotate(0) translate(4 476.5)">
<title>str&#45;buf.h</title>
<!-- Node1 -->
<g id="Node000001" class="node">
<title>Node1</title>
<g id="a_Node000001"><a xlink:title=" ">
<polygon fill="#999999" stroke="#666666" points="618.75,-472.5 567.5,-472.5 567.5,-453.25 618.75,-453.25 618.75,-472.5"/>
<text text-anchor="middle" x="593.12" y="-459" font-family="Helvetica,sans-Serif" font-size="10.00">str&#45;buf.h</text>
</a>
</g>
</g>
<!-- Node2 -->
<g id="Node000002" class="node">
<title>Node2</title>
<g id="a_Node000002"><a xlink:href="../../dc/d9c/stdlib_8h.html" target="_top" xlink:title=" ">
<polygon fill="white" stroke="#666666" points="864.5,-185 817.75,-185 817.75,-165.75 864.5,-165.75 864.5,-185"/>
<text text-anchor="middle" x="841.12" y="-171.5" font-family="Helvetica,sans-Serif" font-size="10.00">stdlib.h</text>
</a>
</g>
</g>
<!-- Node1&#45;&gt;Node2 -->
<g id="edge1_Node000001_Node000002" class="edge">
<title>Node1&#45;&gt;Node2</title>
<g id="a_edge1_Node000001_Node000002"><a xlink:title=" ">
<path fill="none" stroke="#63b8ff" d="M618.81,-457.37C686.77,-444.71 866.12,-406.29 866.12,-353.38 866.12,-353.38 866.12,-353.38 866.12,-290.5 866.12,-256.79 855.59,-218.74 848.19,-196.2"/>
<polygon fill="#63b8ff" stroke="#63b8ff" points="851.54,-195.16 844.99,-186.83 844.91,-197.43 851.54,-195.16"/>
</a>
</g>
</g>
<!-- Node18 -->
<g id="Node000018" class="node">
<title>Node18</title>
<g id="a_Node000018"><a xlink:href="../../d9/d9a/mem_8h.html" target="_top" xlink:title=" ">
<polygon fill="white" stroke="#666666" points="519.75,-301.12 474.5,-301.12 474.5,-281.88 519.75,-281.88 519.75,-301.12"/>
<text text-anchor="middle" x="497.12" y="-287.62" font-family="Helvetica,sans-Serif" font-size="10.00">mem.h</text>
</a>
</g>
</g>
<!-- Node1&#45;&gt;Node18 -->
<g id="edge19_Node000001_Node000018" class="edge">
<title>Node1&#45;&gt;Node18</title>
<g id="a_edge19_Node000001_Node000018"><a xlink:title=" ">
<path fill="none" stroke="#63b8ff" d="M587.32,-453C581.44,-444.01 572.11,-429.69 564.12,-417.25 548.43,-392.79 543.01,-387.54 529.12,-362 520.1,-345.41 511.23,-325.81 505.13,-311.66"/>
<polygon fill="#63b8ff" stroke="#63b8ff" points="508.42,-310.47 501.3,-302.63 501.98,-313.21 508.42,-310.47"/>
</a>
</g>
</g>
<!-- Node22 -->
<g id="Node000022" class="node">
<title>Node22</title>
<g id="a_Node000022"><a xlink:href="../../d6/dc3/str-conv_8h.html" target="_top" xlink:title=" ">
<polygon fill="white" stroke="#666666" points="819.5,-240.25 760.75,-240.25 760.75,-221 819.5,-221 819.5,-240.25"/>
<text text-anchor="middle" x="790.12" y="-226.75" font-family="Helvetica,sans-Serif" font-size="10.00">str&#45;conv.h</text>
</a>
</g>
</g>
<!-- Node1&#45;&gt;Node22 -->
<g id="edge31_Node000001_Node000022" class="edge">
<title>Node1&#45;&gt;Node22</title>
<g id="a_edge31_Node000001_Node000022"><a xlink:title=" ">
<path fill="none" stroke="#63b8ff" d="M619.24,-455.18C660.47,-443.31 740.63,-414.69 786.12,-362 811.64,-332.45 811.43,-314.77 805.12,-276.25 803.76,-267.89 801.04,-258.98 798.28,-251.34"/>
<polygon fill="#63b8ff" stroke="#63b8ff" points="801.56,-250.1 794.67,-242.04 795.03,-252.63 801.56,-250.1"/>
</a>
</g>
</g>
<!-- Node23 -->
<g id="Node000023" class="node">
<title>Node23</title>
<g id="a_Node000023"><a xlink:href="../../dd/def/str-ctype_8h.html" target="_top" xlink:title=" ">
<polygon fill="white" stroke="#666666" points="456.62,-362 395.62,-362 395.62,-342.75 456.62,-342.75 456.62,-362"/>
<text text-anchor="middle" x="426.12" y="-348.5" font-family="Helvetica,sans-Serif" font-size="10.00">str&#45;ctype.h</text>
</a>
</g>
</g>
<!-- Node1&#45;&gt;Node23 -->
<g id="edge34_Node000001_Node000023" class="edge">
<title>Node1&#45;&gt;Node23</title>
<g id="a_edge34_Node000001_Node000023"><a xlink:title=" ">
<path fill="none" stroke="#63b8ff" d="M567.1,-457.12C540.77,-451.29 499.95,-439.34 471.12,-417.25 455.49,-405.27 443.12,-386.33 435.33,-372.18"/>
<polygon fill="#63b8ff" stroke="#63b8ff" points="438.51,-370.7 430.8,-363.43 432.29,-373.92 438.51,-370.7"/>
</a>
</g>
</g>
<!-- Node24 -->
<g id="Node000024" class="node">
<title>Node24</title>
<g id="a_Node000024"><a xlink:href="../../df/d0a/str-l_8h.html" target="_top" xlink:title=" ">
<polygon fill="white" stroke="#666666" points="613.12,-417.25 573.12,-417.25 573.12,-398 613.12,-398 613.12,-417.25"/>
<text text-anchor="middle" x="593.12" y="-403.75" font-family="Helvetica,sans-Serif" font-size="10.00">str&#45;l.h</text>
</a>
</g>
</g>
<!-- Node1&#45;&gt;Node24 -->
<g id="edge38_Node000001_Node000024" class="edge">
<title>Node1&#45;&gt;Node24</title>
<g id="a_edge38_Node000001_Node000024"><a xlink:title=" ">
<path fill="none" stroke="#63b8ff" d="M593.12,-453.08C593.12,-446.57 593.12,-437.42 593.12,-429.12"/>
<polygon fill="#63b8ff" stroke="#63b8ff" points="596.63,-429.12 593.13,-419.12 589.63,-429.12 596.63,-429.12"/>
</a>
</g>
</g>
<!-- Node3 -->
<g id="Node000003" class="node">
<title>Node3</title>
<g id="a_Node000003"><a xlink:href="../../d2/d5c/stdinc_8h.html" target="_top" xlink:title=" ">
<polygon fill="white" stroke="#666666" points="415,-74.5 365.25,-74.5 365.25,-55.25 415,-55.25 415,-74.5"/>
<text text-anchor="middle" x="390.12" y="-61" font-family="Helvetica,sans-Serif" font-size="10.00">stdinc.h</text>
</a>
</g>
</g>
<!-- Node2&#45;&gt;Node3 -->
<g id="edge2_Node000002_Node000003" class="edge">
<title>Node2&#45;&gt;Node3</title>
<g id="a_edge2_Node000002_Node000003"><a xlink:title=" ">
<path fill="none" stroke="#63b8ff" d="M833.28,-165.56C825.61,-151.29 815.15,-123.42 795.12,-110.5 727.94,-67.15 516.44,-84.59 437.12,-74.5 433.67,-74.06 430.11,-73.58 426.55,-73.07"/>
<polygon fill="#63b8ff" stroke="#63b8ff" points="427.25,-69.64 416.85,-71.63 426.22,-76.56 427.25,-69.64"/>
</a>
</g>
</g>
<!-- Node16 -->
<g id="Node000016" class="node">
<title>Node16</title>
<g id="a_Node000016"><a xlink:href="../../da/dec/core_2macros_8h.html" target="_top" xlink:title=" ">
<polygon fill="white" stroke="#666666" points="519,-129.75 463.25,-129.75 463.25,-110.5 519,-110.5 519,-129.75"/>
<text text-anchor="middle" x="491.12" y="-116.25" font-family="Helvetica,sans-Serif" font-size="10.00">macros.h</text>
</a>
</g>
</g>
<!-- Node2&#45;&gt;Node16 -->
<g id="edge16_Node000002_Node000016" class="edge">
<title>Node2&#45;&gt;Node16</title>
<g id="a_edge16_Node000002_Node000016"><a xlink:title=" ">
<path fill="none" stroke="#63b8ff" d="M817.34,-170.76C758.05,-161.74 603.19,-138.18 530.23,-127.07"/>
<polygon fill="#63b8ff" stroke="#63b8ff" points="531.16,-123.68 520.75,-125.63 530.11,-130.6 531.16,-123.68"/>
</a>
</g>
</g>
<!-- Node3&#45;&gt;Node2 -->
<g id="edge12_Node000003_Node000002" class="edge">
<title>Node3&#45;&gt;Node2</title>
<g id="a_edge12_Node000003_Node000002"><a xlink:title=" ">
<path fill="none" stroke="#63b8ff" d="M415.23,-68.79C427.54,-70.59 442.15,-72.85 455.12,-74.5 534.44,-84.59 745.94,-67.15 813.12,-110.5 828.77,-120.6 838.58,-139.81 842.49,-154.54"/>
<polygon fill="#63b8ff" stroke="#63b8ff" points="838.98,-154.8 844.12,-164.07 845.88,-153.62 838.98,-154.8"/>
</a>
</g>
</g>
<!-- Node4 -->
<g id="Node000004" class="node">
<title>Node4</title>
<g id="a_Node000004"><a xlink:href="../../d9/dfd/Block_8h.html" target="_top" xlink:title=" ">
<polygon fill="white" stroke="#666666" points="48.25,-19.25 0,-19.25 0,0 48.25,0 48.25,-19.25"/>
<text text-anchor="middle" x="24.12" y="-5.75" font-family="Helvetica,sans-Serif" font-size="10.00">Block.h</text>
</a>
</g>
</g>
<!-- Node3&#45;&gt;Node4 -->
<g id="edge3_Node000003_Node000004" class="edge">
<title>Node3&#45;&gt;Node4</title>
<g id="a_edge3_Node000003_Node000004"><a xlink:title=" ">
<path fill="none" stroke="#63b8ff" d="M364.89,-61.56C310.75,-56.36 179.3,-42.55 59.72,-19.55"/>
<polygon fill="#63b8ff" stroke="#63b8ff" points="60.53,-16.14 50.04,-17.66 59.19,-23.01 60.53,-16.14"/>
</a>
</g>
</g>
<!-- Node5 -->
<g id="Node000005" class="node">
<title>Node5</title>
<g id="a_Node000005"><a xlink:title=" ">
<polygon fill="#e0e0e0" stroke="#999999" points="116.38,-19.25 65.88,-19.25 65.88,0 116.38,0 116.38,-19.25"/>
<text text-anchor="middle" x="91.12" y="-5.75" font-family="Helvetica,sans-Serif" font-size="10.00">assert.h</text>
</a>
</g>
</g>
<!-- Node3&#45;&gt;Node5 -->
<g id="edge4_Node000003_Node000005" class="edge">
<title>Node3&#45;&gt;Node5</title>
<g id="a_edge4_Node000003_Node000005"><a xlink:title=" ">
<path fill="none" stroke="#63b8ff" d="M364.89,-60.25C319.57,-53.6 221.16,-38.54 127.76,-19.44"/>
<polygon fill="#63b8ff" stroke="#63b8ff" points="128.67,-16.06 118.17,-17.46 127.26,-22.91 128.67,-16.06"/>
</a>
</g>
</g>
<!-- Node6 -->
<g id="Node000006" class="node">
<title>Node6</title>
<g id="a_Node000006"><a xlink:title=" ">
<polygon fill="#e0e0e0" stroke="#999999" points="181.5,-19.25 134.75,-19.25 134.75,0 181.5,0 181.5,-19.25"/>
<text text-anchor="middle" x="158.12" y="-5.75" font-family="Helvetica,sans-Serif" font-size="10.00">ctype.h</text>
</a>
</g>
</g>
<!-- Node3&#45;&gt;Node6 -->
<g id="edge5_Node000003_Node000006" class="edge">
<title>Node3&#45;&gt;Node6</title>
<g id="a_edge5_Node000003_Node000006"><a xlink:title=" ">
<path fill="none" stroke="#63b8ff" d="M364.78,-58.59C328.67,-50.98 260.08,-36.24 192.67,-19.8"/>
<polygon fill="#63b8ff" stroke="#63b8ff" points="193.88,-16.49 183.33,-17.51 192.21,-23.29 193.88,-16.49"/>
</a>
</g>
</g>
<!-- Node7 -->
<g id="Node000007" class="node">
<title>Node7</title>
<g id="a_Node000007"><a xlink:title=" ">
<polygon fill="#e0e0e0" stroke="#999999" points="244.75,-19.25 199.5,-19.25 199.5,0 244.75,0 244.75,-19.25"/>
<text text-anchor="middle" x="222.12" y="-5.75" font-family="Helvetica,sans-Serif" font-size="10.00">errno.h</text>
</a>
</g>
</g>
<!-- Node3&#45;&gt;Node7 -->
<g id="edge6_Node000003_Node000007" class="edge">
<title>Node3&#45;&gt;Node7</title>
<g id="a_edge6_Node000003_Node000007"><a xlink:title=" ">
<path fill="none" stroke="#63b8ff" d="M364.97,-55.9C335.91,-46.69 287.94,-31.49 255.71,-21.27"/>
<polygon fill="#63b8ff" stroke="#63b8ff" points="257.05,-18.02 246.46,-18.34 254.93,-24.7 257.05,-18.02"/>
</a>
</g>
</g>
<!-- Node8 -->
<g id="Node000008" class="node">
<title>Node8</title>
<g id="a_Node000008"><a xlink:title=" ">
<polygon fill="#e0e0e0" stroke="#999999" points="309.5,-19.25 262.75,-19.25 262.75,0 309.5,0 309.5,-19.25"/>
<text text-anchor="middle" x="286.12" y="-5.75" font-family="Helvetica,sans-Serif" font-size="10.00">limits.h</text>
</a>
</g>
</g>
<!-- Node3&#45;&gt;Node8 -->
<g id="edge7_Node000003_Node000008" class="edge">
<title>Node3&#45;&gt;Node8</title>
<g id="a_edge7_Node000003_Node000008"><a xlink:title=" ">
<path fill="none" stroke="#63b8ff" d="M372.48,-54.84C356.5,-46.66 332.67,-34.46 314.09,-24.94"/>
<polygon fill="#63b8ff" stroke="#63b8ff" points="315.7,-21.83 305.2,-20.39 312.51,-28.07 315.7,-21.83"/>
</a>
</g>
</g>
<!-- Node9 -->
<g id="Node000009" class="node">
<title>Node9</title>
<g id="a_Node000009"><a xlink:title=" ">
<polygon fill="#e0e0e0" stroke="#999999" points="382.62,-19.25 327.62,-19.25 327.62,0 382.62,0 382.62,-19.25"/>
<text text-anchor="middle" x="355.12" y="-5.75" font-family="Helvetica,sans-Serif" font-size="10.00">stdbool.h</text>
</a>
</g>
</g>
<!-- Node3&#45;&gt;Node9 -->
<g id="edge8_Node000003_Node000009" class="edge">
<title>Node3&#45;&gt;Node9</title>
<g id="a_edge8_Node000003_Node000009"><a xlink:title=" ">
<path fill="none" stroke="#63b8ff" d="M384.35,-55.08C379.71,-48.03 373.05,-37.9 367.26,-29.08"/>
<polygon fill="#63b8ff" stroke="#63b8ff" points="370.28,-27.31 361.86,-20.87 364.43,-31.15 370.28,-27.31"/>
</a>
</g>
</g>
<!-- Node10 -->
<g id="Node000010" class="node">
<title>Node10</title>
<g id="a_Node000010"><a xlink:title=" ">
<polygon fill="#e0e0e0" stroke="#999999" points="451.38,-19.25 400.88,-19.25 400.88,0 451.38,0 451.38,-19.25"/>
<text text-anchor="middle" x="426.12" y="-5.75" font-family="Helvetica,sans-Serif" font-size="10.00">stddef.h</text>
</a>
</g>
</g>
<!-- Node3&#45;&gt;Node10 -->
<g id="edge9_Node000003_Node000010" class="edge">
<title>Node3&#45;&gt;Node10</title>
<g id="a_edge9_Node000003_Node000010"><a xlink:title=" ">
<path fill="none" stroke="#63b8ff" d="M396.07,-55.08C400.84,-48.03 407.69,-37.9 413.65,-29.08"/>
<polygon fill="#63b8ff" stroke="#63b8ff" points="416.5,-31.11 419.2,-20.86 410.7,-27.19 416.5,-31.11"/>
</a>
</g>
</g>
<!-- Node11 -->
<g id="Node000011" class="node">
<title>Node11</title>
<g id="a_Node000011"><a xlink:title=" ">
<polygon fill="#e0e0e0" stroke="#999999" points="516.88,-19.25 469.38,-19.25 469.38,0 516.88,0 516.88,-19.25"/>
<text text-anchor="middle" x="493.12" y="-5.75" font-family="Helvetica,sans-Serif" font-size="10.00">stdint.h</text>
</a>
</g>
</g>
<!-- Node3&#45;&gt;Node11 -->
<g id="edge10_Node000003_Node000011" class="edge">
<title>Node3&#45;&gt;Node11</title>
<g id="a_edge10_Node000003_Node000011"><a xlink:title=" ">
<path fill="none" stroke="#63b8ff" d="M407.6,-54.84C423.43,-46.66 447.03,-34.46 465.43,-24.94"/>
<polygon fill="#63b8ff" stroke="#63b8ff" points="466.95,-28.1 474.22,-20.4 463.73,-21.88 466.95,-28.1"/>
</a>
</g>
</g>
<!-- Node12 -->
<g id="Node000012" class="node">
<title>Node12</title>
<g id="a_Node000012"><a xlink:title=" ">
<polygon fill="#e0e0e0" stroke="#999999" points="579.38,-19.25 534.88,-19.25 534.88,0 579.38,0 579.38,-19.25"/>
<text text-anchor="middle" x="557.12" y="-5.75" font-family="Helvetica,sans-Serif" font-size="10.00">stdio.h</text>
</a>
</g>
</g>
<!-- Node3&#45;&gt;Node12 -->
<g id="edge11_Node000003_Node000012" class="edge">
<title>Node3&#45;&gt;Node12</title>
<g id="a_edge11_Node000003_Node000012"><a xlink:title=" ">
<path fill="none" stroke="#63b8ff" d="M415.49,-55.79C444.46,-46.55 491.98,-31.4 523.9,-21.22"/>
<polygon fill="#63b8ff" stroke="#63b8ff" points="524.57,-24.68 533.03,-18.31 522.44,-18.01 524.57,-24.68"/>
</a>
</g>
</g>
<!-- Node13 -->
<g id="Node000013" class="node">
<title>Node13</title>
<g id="a_Node000013"><a xlink:title=" ">
<polygon fill="#e0e0e0" stroke="#999999" points="644.88,-19.25 597.38,-19.25 597.38,0 644.88,0 644.88,-19.25"/>
<text text-anchor="middle" x="621.12" y="-5.75" font-family="Helvetica,sans-Serif" font-size="10.00">string.h</text>
</a>
</g>
</g>
<!-- Node3&#45;&gt;Node13 -->
<g id="edge13_Node000003_Node000013" class="edge">
<title>Node3&#45;&gt;Node13</title>
<g id="a_edge13_Node000003_Node000013"><a xlink:title=" ">
<path fill="none" stroke="#63b8ff" d="M415.19,-58.51C450.92,-50.8 518.8,-35.94 586.19,-19.66"/>
<polygon fill="#63b8ff" stroke="#63b8ff" points="586.64,-23.15 595.53,-17.39 584.98,-16.35 586.64,-23.15"/>
</a>
</g>
</g>
<!-- Node14 -->
<g id="Node000014" class="node">
<title>Node14</title>
<g id="a_Node000014"><a xlink:title=" ">
<polygon fill="#e0e0e0" stroke="#999999" points="713.75,-19.25 662.5,-19.25 662.5,0 713.75,0 713.75,-19.25"/>
<text text-anchor="middle" x="688.12" y="-5.75" font-family="Helvetica,sans-Serif" font-size="10.00">syslog.h</text>
</a>
</g>
</g>
<!-- Node3&#45;&gt;Node14 -->
<g id="edge14_Node000003_Node000014" class="edge">
<title>Node3&#45;&gt;Node14</title>
<g id="a_edge14_Node000003_Node000014"><a xlink:title=" ">
<path fill="none" stroke="#63b8ff" d="M415.12,-59.92C468.2,-51.47 591.64,-31.59 651.17,-19.7"/>
<polygon fill="#63b8ff" stroke="#63b8ff" points="651.62,-23.18 660.7,-17.74 650.2,-16.33 651.62,-23.18"/>
</a>
</g>
</g>
<!-- Node15 -->
<g id="Node000015" class="node">
<title>Node15</title>
<g id="a_Node000015"><a xlink:title=" ">
<polygon fill="#e0e0e0" stroke="#999999" points="802.5,-19.25 731.75,-19.25 731.75,0 802.5,0 802.5,-19.25"/>
<text text-anchor="middle" x="767.12" y="-5.75" font-family="Helvetica,sans-Serif" font-size="10.00">sys/socket.h</text>
</a>
</g>
</g>
<!-- Node3&#45;&gt;Node15 -->
<g id="edge15_Node000003_Node000015" class="edge">
<title>Node3&#45;&gt;Node15</title>
<g id="a_edge15_Node000003_Node000015"><a xlink:title=" ">
<path fill="none" stroke="#63b8ff" d="M415.47,-59.84C425.07,-58.35 436.09,-56.67 446.12,-55.25 565.44,-38.31 598.66,-39.13 720.35,-19.61"/>
<polygon fill="#63b8ff" stroke="#63b8ff" points="720.81,-23.08 730.12,-18.03 719.69,-16.17 720.81,-23.08"/>
</a>
</g>
</g>
<!-- Node16&#45;&gt;Node3 -->
<g id="edge17_Node000016_Node000003" class="edge">
<title>Node16&#45;&gt;Node3</title>
<g id="a_edge17_Node000016_Node000003"><a xlink:title=" ">
<path fill="none" stroke="#63b8ff" d="M473.99,-110.09C458.47,-101.91 435.32,-89.71 417.28,-80.19"/>
<polygon fill="#63b8ff" stroke="#63b8ff" points="419.16,-77.23 408.68,-75.66 415.89,-83.42 419.16,-77.23"/>
</a>
</g>
</g>
<!-- Node17 -->
<g id="Node000017" class="node">
<title>Node17</title>
<g id="a_Node000017"><a xlink:href="../../d0/dd0/os-features_8h.html" target="_top" xlink:title=" ">
<polygon fill="white" stroke="#666666" points="527.25,-74.5 455,-74.5 455,-55.25 527.25,-55.25 527.25,-74.5"/>
<text text-anchor="middle" x="491.12" y="-61" font-family="Helvetica,sans-Serif" font-size="10.00">os&#45;features.h</text>
</a>
</g>
</g>
<!-- Node16&#45;&gt;Node17 -->
<g id="edge18_Node000016_Node000017" class="edge">
<title>Node16&#45;&gt;Node17</title>
<g id="a_edge18_Node000016_Node000017"><a xlink:title=" ">
<path fill="none" stroke="#63b8ff" d="M491.12,-110.33C491.12,-103.82 491.12,-94.67 491.12,-86.37"/>
<polygon fill="#63b8ff" stroke="#63b8ff" points="494.63,-86.37 491.13,-76.37 487.63,-86.37 494.63,-86.37"/>
</a>
</g>
</g>
<!-- Node18&#45;&gt;Node3 -->
<g id="edge20_Node000018_Node000003" class="edge">
<title>Node18&#45;&gt;Node3</title>
<g id="a_edge20_Node000018_Node000003"><a xlink:title=" ">
<path fill="none" stroke="#63b8ff" d="M474.01,-289.91C419.59,-287.08 284.24,-271.3 235.12,-185 203.95,-130.22 299.57,-92.23 354.43,-75.5"/>
<polygon fill="#63b8ff" stroke="#63b8ff" points="355.08,-78.95 363.68,-72.77 353.1,-72.24 355.08,-78.95"/>
</a>
</g>
</g>
<!-- Node18&#45;&gt;Node16 -->
<g id="edge21_Node000018_Node000016" class="edge">
<title>Node18&#45;&gt;Node16</title>
<g id="a_edge21_Node000018_Node000016"><a xlink:title=" ">
<path fill="none" stroke="#63b8ff" d="M496.8,-281.39C495.87,-254.96 493.13,-177.79 491.83,-141.03"/>
<polygon fill="#63b8ff" stroke="#63b8ff" points="495.34,-141.25 491.49,-131.38 488.34,-141.5 495.34,-141.25"/>
</a>
</g>
</g>
<!-- Node19 -->
<g id="Node000019" class="node">
<title>Node19</title>
<g id="a_Node000019"><a xlink:href="../../de/d45/errors_8h.html" target="_top" xlink:title=" ">
<polygon fill="white" stroke="#666666" points="419.25,-240.25 371,-240.25 371,-221 419.25,-221 419.25,-240.25"/>
<text text-anchor="middle" x="395.12" y="-226.75" font-family="Helvetica,sans-Serif" font-size="10.00">errors.h</text>
</a>
</g>
</g>
<!-- Node18&#45;&gt;Node19 -->
<g id="edge22_Node000018_Node000019" class="edge">
<title>Node18&#45;&gt;Node19</title>
<g id="a_edge22_Node000018_Node000019"><a xlink:title=" ">
<path fill="none" stroke="#63b8ff" d="M481.63,-281.56C465.46,-272.22 439.82,-257.42 420.65,-246.36"/>
<polygon fill="#63b8ff" stroke="#63b8ff" points="422.48,-243.38 412.07,-241.41 418.98,-249.44 422.48,-243.38"/>
</a>
</g>
</g>
<!-- Node21 -->
<g id="Node000021" class="node">
<title>Node21</title>
<g id="a_Node000021"><a xlink:href="../../d8/d96/bithacks_8h.html" target="_top" xlink:title=" ">
<polygon fill="white" stroke="#666666" points="304.25,-185 244,-185 244,-165.75 304.25,-165.75 304.25,-185"/>
<text text-anchor="middle" x="274.12" y="-171.5" font-family="Helvetica,sans-Serif" font-size="10.00">bithacks.h</text>
</a>
</g>
</g>
<!-- Node18&#45;&gt;Node21 -->
<g id="edge28_Node000018_Node000021" class="edge">
<title>Node18&#45;&gt;Node21</title>
<g id="a_edge28_Node000018_Node000021"><a xlink:title=" ">
<path fill="none" stroke="#63b8ff" d="M474.34,-284.1C446.83,-275.91 399.59,-260.34 362.12,-240.25 336.72,-226.63 310.3,-206.53 293.13,-192.52"/>
<polygon fill="#63b8ff" stroke="#63b8ff" points="295.7,-190.11 285.77,-186.42 291.23,-195.5 295.7,-190.11"/>
</a>
</g>
</g>
<!-- Node19&#45;&gt;Node3 -->
<g id="edge23_Node000019_Node000003" class="edge">
<title>Node19&#45;&gt;Node3</title>
<g id="a_edge23_Node000019_Node000003"><a xlink:title=" ">
<path fill="none" stroke="#63b8ff" d="M381.93,-220.77C371.36,-212.83 357.32,-200.1 351.12,-185 336.74,-149.92 360,-107.42 376.32,-83.84"/>
<polygon fill="#63b8ff" stroke="#63b8ff" points="379.03,-86.07 382.08,-75.93 373.37,-81.95 379.03,-86.07"/>
</a>
</g>
</g>
<!-- Node19&#45;&gt;Node16 -->
<g id="edge24_Node000019_Node000016" class="edge">
<title>Node19&#45;&gt;Node16</title>
<g id="a_edge24_Node000019_Node000016"><a xlink:title=" ">
<path fill="none" stroke="#63b8ff" d="M402.98,-220.75C418.8,-202.86 454.76,-162.22 475.53,-138.75"/>
<polygon fill="#63b8ff" stroke="#63b8ff" points="478.15,-141.07 482.16,-131.26 472.91,-136.43 478.15,-141.07"/>
</a>
</g>
</g>
<!-- Node20 -->
<g id="Node000020" class="node">
<title>Node20</title>
<g id="a_Node000020"><a xlink:href="../../d9/d49/types_8h.html" target="_top" xlink:title=" ">
<polygon fill="white" stroke="#666666" points="406.5,-185 359.75,-185 359.75,-165.75 406.5,-165.75 406.5,-185"/>
<text text-anchor="middle" x="383.12" y="-171.5" font-family="Helvetica,sans-Serif" font-size="10.00">types.h</text>
</a>
</g>
</g>
<!-- Node19&#45;&gt;Node20 -->
<g id="edge25_Node000019_Node000020" class="edge">
<title>Node19&#45;&gt;Node20</title>
<g id="a_edge25_Node000019_Node000020"><a xlink:title=" ">
<path fill="none" stroke="#63b8ff" d="M393.14,-220.83C391.66,-214.24 389.57,-204.96 387.68,-196.57"/>
<polygon fill="#63b8ff" stroke="#63b8ff" points="391.1,-195.82 385.48,-186.84 384.27,-197.36 391.1,-195.82"/>
</a>
</g>
</g>
<!-- Node20&#45;&gt;Node3 -->
<g id="edge26_Node000020_Node000003" class="edge">
<title>Node20&#45;&gt;Node3</title>
<g id="a_edge26_Node000020_Node000003"><a xlink:title=" ">
<path fill="none" stroke="#63b8ff" d="M383.7,-165.5C384.81,-148.25 387.29,-109.83 388.82,-86.06"/>
<polygon fill="#63b8ff" stroke="#63b8ff" points="392.3,-86.59 389.45,-76.39 385.31,-86.14 392.3,-86.59"/>
</a>
</g>
</g>
<!-- Node20&#45;&gt;Node16 -->
<g id="edge27_Node000020_Node000016" class="edge">
<title>Node20&#45;&gt;Node16</title>
<g id="a_edge27_Node000020_Node000016"><a xlink:title=" ">
<path fill="none" stroke="#63b8ff" d="M401.45,-165.34C418.2,-157.08 443.26,-144.73 462.63,-135.18"/>
<polygon fill="#63b8ff" stroke="#63b8ff" points="463.94,-138.43 471.36,-130.87 460.84,-132.15 463.94,-138.43"/>
</a>
</g>
</g>
<!-- Node21&#45;&gt;Node3 -->
<g id="edge29_Node000021_Node000003" class="edge">
<title>Node21&#45;&gt;Node3</title>
<g id="a_edge29_Node000021_Node000003"><a xlink:title=" ">
<path fill="none" stroke="#63b8ff" d="M278.58,-165.69C285.63,-152.56 300.38,-127.41 318.12,-110.5 330.68,-98.54 346.95,-88.12 360.85,-80.37"/>
<polygon fill="#63b8ff" stroke="#63b8ff" points="362.41,-83.51 369.57,-75.7 359.11,-77.34 362.41,-83.51"/>
</a>
</g>
</g>
<!-- Node21&#45;&gt;Node16 -->
<g id="edge30_Node000021_Node000016" class="edge">
<title>Node21&#45;&gt;Node16</title>
<g id="a_edge30_Node000021_Node000016"><a xlink:title=" ">
<path fill="none" stroke="#63b8ff" d="M304.3,-166.97C342.81,-157.52 409.51,-141.15 451.92,-130.75"/>
<polygon fill="#63b8ff" stroke="#63b8ff" points="452.58,-134.19 461.46,-128.4 450.91,-127.39 452.58,-134.19"/>
</a>
</g>
</g>
<!-- Node22&#45;&gt;Node3 -->
<g id="edge32_Node000022_Node000003" class="edge">
<title>Node22&#45;&gt;Node3</title>
<g id="a_edge32_Node000022_Node000003"><a xlink:title=" ">
<path fill="none" stroke="#63b8ff" d="M788.39,-220.58C783.5,-197.78 767.33,-137.84 728.12,-110.5 676.31,-74.36 508.68,-83.31 446.12,-74.5 439.85,-73.62 433.2,-72.63 426.74,-71.65"/>
<polygon fill="#63b8ff" stroke="#63b8ff" points="427.38,-68.21 416.97,-70.15 426.32,-75.13 427.38,-68.21"/>
</a>
</g>
</g>
<!-- Node22&#45;&gt;Node16 -->
<g id="edge33_Node000022_Node000016" class="edge">
<title>Node22&#45;&gt;Node16</title>
<g id="a_edge33_Node000022_Node000016"><a xlink:title=" ">
<path fill="none" stroke="#63b8ff" d="M765.15,-220.56C712.16,-201.33 588.34,-156.4 526.95,-134.12"/>
<polygon fill="#63b8ff" stroke="#63b8ff" points="528.26,-130.88 517.67,-130.76 525.87,-137.46 528.26,-130.88"/>
</a>
</g>
</g>
<!-- Node23&#45;&gt;Node3 -->
<g id="edge35_Node000023_Node000003" class="edge">
<title>Node23&#45;&gt;Node3</title>
<g id="a_edge35_Node000023_Node000003"><a xlink:title=" ">
<path fill="none" stroke="#63b8ff" d="M395.22,-350.39C328.74,-346.45 178.12,-327.01 178.12,-231.62 178.12,-231.62 178.12,-231.62 178.12,-174.38 178.12,-96.46 292.99,-74.46 353.62,-68.28"/>
<polygon fill="#63b8ff" stroke="#63b8ff" points="353.83,-71.77 363.47,-67.38 353.19,-64.8 353.83,-71.77"/>
</a>
</g>
</g>
<!-- Node23&#45;&gt;Node16 -->
<g id="edge36_Node000023_Node000016" class="edge">
<title>Node23&#45;&gt;Node16</title>
<g id="a_edge36_Node000023_Node000016"><a xlink:title=" ">
<path fill="none" stroke="#63b8ff" d="M428.67,-342.35C438.24,-308.46 472.15,-188.34 485.59,-140.75"/>
<polygon fill="#63b8ff" stroke="#63b8ff" points="488.9,-141.87 488.25,-131.3 482.17,-139.97 488.9,-141.87"/>
</a>
</g>
</g>
<!-- Node23&#45;&gt;Node18 -->
<g id="edge37_Node000023_Node000018" class="edge">
<title>Node23&#45;&gt;Node18</title>
<g id="a_edge37_Node000023_Node000018"><a xlink:title=" ">
<path fill="none" stroke="#63b8ff" d="M436.91,-342.43C447.65,-333.53 464.38,-319.66 477.48,-308.79"/>
<polygon fill="#63b8ff" stroke="#63b8ff" points="479.61,-311.57 485.08,-302.49 475.14,-306.18 479.61,-311.57"/>
</a>
</g>
</g>
<!-- Node24&#45;&gt;Node3 -->
<g id="edge39_Node000024_Node000003" class="edge">
<title>Node24&#45;&gt;Node3</title>
<g id="a_edge39_Node000024_Node000003"><a xlink:title=" ">
<path fill="none" stroke="#63b8ff" d="M613.38,-399.63C658.67,-382.74 761.96,-336.64 733.12,-276.25 673.58,-151.53 501.21,-93.93 425.97,-74.2"/>
<polygon fill="#63b8ff" stroke="#63b8ff" points="427.2,-70.9 416.64,-71.83 425.47,-77.69 427.2,-70.9"/>
</a>
</g>
</g>
<!-- Node24&#45;&gt;Node16 -->
<g id="edge40_Node000024_Node000016" class="edge">
<title>Node24&#45;&gt;Node16</title>
<g id="a_edge40_Node000024_Node000016"><a xlink:title=" ">
<path fill="none" stroke="#63b8ff" d="M590.01,-397.87C578.81,-366.47 539.59,-256.47 507.12,-165.75 504.18,-157.52 500.92,-148.43 498.12,-140.62"/>
<polygon fill="#63b8ff" stroke="#63b8ff" points="501.5,-139.67 494.83,-131.44 494.91,-142.03 501.5,-139.67"/>
</a>
</g>
</g>
<!-- Node24&#45;&gt;Node18 -->
<g id="edge41_Node000024_Node000018" class="edge">
<title>Node24&#45;&gt;Node18</title>
<g id="a_edge41_Node000024_Node000018"><a xlink:title=" ">
<path fill="none" stroke="#63b8ff" d="M582.74,-397.53C573.07,-388.84 558.47,-375.14 547.12,-362 532.9,-345.52 518.59,-325.15 508.94,-310.74"/>
<polygon fill="#63b8ff" stroke="#63b8ff" points="512.07,-309.12 503.64,-302.69 506.22,-312.97 512.07,-309.12"/>
</a>
</g>
</g>
<!-- Node24&#45;&gt;Node22 -->
<g id="edge46_Node000024_Node000022" class="edge">
<title>Node24&#45;&gt;Node22</title>
<g id="a_edge46_Node000024_Node000022"><a xlink:title=" ">
<path fill="none" stroke="#63b8ff" d="M613.45,-404.13C654.54,-398.66 745.35,-384.29 766.12,-362 794.16,-331.92 794.75,-280.34 792.55,-251.91"/>
<polygon fill="#63b8ff" stroke="#63b8ff" points="796.06,-251.74 791.58,-242.14 789.09,-252.44 796.06,-251.74"/>
</a>
</g>
</g>
<!-- Node24&#45;&gt;Node23 -->
<g id="edge47_Node000024_Node000023" class="edge">
<title>Node24&#45;&gt;Node23</title>
<g id="a_edge47_Node000024_Node000023"><a xlink:title=" ">
<path fill="none" stroke="#63b8ff" d="M572.65,-400.1C546.04,-391.61 499.03,-376.62 465.43,-365.91"/>
<polygon fill="#63b8ff" stroke="#63b8ff" points="466.63,-362.62 456.04,-362.91 464.5,-369.29 466.63,-362.62"/>
</a>
</g>
</g>
<!-- Node25 -->
<g id="Node000025" class="node">
<title>Node25</title>
<g id="a_Node000025"><a xlink:href="../../d1/d10/mem-stack_8h.html" target="_top" xlink:title=" ">
<polygon fill="white" stroke="#666666" points="661.25,-362 589,-362 589,-342.75 661.25,-342.75 661.25,-362"/>
<text text-anchor="middle" x="625.12" y="-348.5" font-family="Helvetica,sans-Serif" font-size="10.00">mem&#45;stack.h</text>
</a>
</g>
</g>
<!-- Node24&#45;&gt;Node25 -->
<g id="edge42_Node000024_Node000025" class="edge">
<title>Node24&#45;&gt;Node25</title>
<g id="a_edge42_Node000024_Node000025"><a xlink:title=" ">
<path fill="none" stroke="#63b8ff" d="M598.41,-397.83C602.6,-390.86 608.6,-380.87 613.86,-372.12"/>
<polygon fill="#63b8ff" stroke="#63b8ff" points="616.8,-374.03 618.95,-363.66 610.8,-370.43 616.8,-374.03"/>
</a>
</g>
</g>
<!-- Node25&#45;&gt;Node16 -->
<g id="edge44_Node000025_Node000016" class="edge">
<title>Node25&#45;&gt;Node16</title>
<g id="a_edge44_Node000025_Node000016"><a xlink:title=" ">
<path fill="none" stroke="#63b8ff" d="M620.92,-342.25C616.88,-333.31 610.72,-319.24 606.12,-306.75 583.46,-245.14 602.17,-217.77 562.12,-165.75 552.15,-152.79 537.25,-142.61 523.67,-135.26"/>
<polygon fill="#63b8ff" stroke="#63b8ff" points="525.51,-132.27 515.01,-130.88 522.35,-138.52 525.51,-132.27"/>
</a>
</g>
</g>
<!-- Node25&#45;&gt;Node18 -->
<g id="edge45_Node000025_Node000018" class="edge">
<title>Node25&#45;&gt;Node18</title>
<g id="a_edge45_Node000025_Node000018"><a xlink:title=" ">
<path fill="none" stroke="#63b8ff" d="M605.41,-342.3C584.49,-332.68 551.19,-317.37 527.03,-306.26"/>
<polygon fill="#63b8ff" stroke="#63b8ff" points="528.58,-303.12 518.03,-302.12 525.65,-309.47 528.58,-303.12"/>
</a>
</g>
</g>
<!-- Node26 -->
<g id="Node000026" class="node">
<title>Node26</title>
<g id="a_Node000026"><a xlink:title=" ">
<polygon fill="#e0e0e0" stroke="#999999" points="723.62,-306.75 614.62,-306.75 614.62,-276.25 723.62,-276.25 723.62,-306.75"/>
<text text-anchor="start" x="622.62" y="-293.25" font-family="Helvetica,sans-Serif" font-size="10.00">lib&#45;common/container</text>
<text text-anchor="middle" x="669.12" y="-282" font-family="Helvetica,sans-Serif" font-size="10.00">&#45;dlist.h</text>
</a>
</g>
</g>
<!-- Node25&#45;&gt;Node26 -->
<g id="edge43_Node000025_Node000026" class="edge">
<title>Node25&#45;&gt;Node26</title>
<g id="a_edge43_Node000025_Node000026"><a xlink:title=" ">
<path fill="none" stroke="#63b8ff" d="M631.81,-342.43C637.02,-335.46 644.5,-325.45 651.4,-316.21"/>
<polygon fill="#63b8ff" stroke="#63b8ff" points="654.18,-318.35 657.36,-308.24 648.57,-314.16 654.18,-318.35"/>
</a>
</g>
</g>
</g>
</svg>
