<?xml version="1.0" encoding="UTF-8" standalone="no"?>
<!DOCTYPE svg PUBLIC "-//W3C//DTD SVG 1.1//EN"
 "http://www.w3.org/Graphics/SVG/1.1/DTD/svg11.dtd">
<!-- Generated by graphviz version 9.0.0 (20230911.1827)
 -->
<!-- Title: blktst_wipe Pages: 1 -->
<svg width="1275pt" height="254pt"
 viewBox="0.00 0.00 1274.75 253.84" xmlns="http://www.w3.org/2000/svg" xmlns:xlink="http://www.w3.org/1999/xlink">
<g id="graph0" class="graph" transform="scale(1 1) rotate(0) translate(4 249.84)">
<title>blktst_wipe</title>
<!-- Node1 -->
<g id="Node000001" class="node">
<title>Node1</title>
<g id="a_Node000001"><a xlink:title=" ">
<polygon fill="#999999" stroke="#666666" points="65.5,-200.47 0,-200.47 0,-181.22 65.5,-181.22 65.5,-200.47"/>
<text text-anchor="middle" x="32.75" y="-186.97" font-family="Helvetica,sans-Serif" font-size="10.00">blktst_wipe</text>
</a>
</g>
</g>
<!-- Node2 -->
<g id="Node000002" class="node">
<title>Node2</title>
<g id="a_Node000002"><a xlink:href="../../df/d0a/str-l_8h.html#ad74dae07179370f3c22e3f026157926e" target="_top" xlink:title="wipe a lstr_t (frees memory if needed).">
<polygon fill="white" stroke="#666666" points="156.5,-200.47 101.5,-200.47 101.5,-181.22 156.5,-181.22 156.5,-200.47"/>
<text text-anchor="middle" x="129" y="-186.97" font-family="Helvetica,sans-Serif" font-size="10.00">lstr_wipe</text>
</a>
</g>
</g>
<!-- Node1&#45;&gt;Node2 -->
<g id="edge1_Node000001_Node000002" class="edge">
<title>Node1&#45;&gt;Node2</title>
<g id="a_edge1_Node000001_Node000002"><a xlink:title=" ">
<path fill="none" stroke="#63b8ff" d="M65.92,-190.84C73.66,-190.84 82,-190.84 89.98,-190.84"/>
<polygon fill="#63b8ff" stroke="#63b8ff" points="89.78,-194.34 99.78,-190.84 89.78,-187.34 89.78,-194.34"/>
</a>
</g>
</g>
<!-- Node3 -->
<g id="Node000003" class="node">
<title>Node3</title>
<g id="a_Node000003"><a xlink:href="../../df/d0a/str-l_8h.html#a381cd831ac9616c5bea8213bb679d1ac" target="_top" xlink:title="Wipe a lstr_t (frees memory if needed).">
<polygon fill="white" stroke="#666666" points="266.25,-125.47 192.5,-125.47 192.5,-106.22 266.25,-106.22 266.25,-125.47"/>
<text text-anchor="middle" x="229.38" y="-111.97" font-family="Helvetica,sans-Serif" font-size="10.00">mp_lstr_wipe</text>
</a>
</g>
</g>
<!-- Node2&#45;&gt;Node3 -->
<g id="edge2_Node000002_Node000003" class="edge">
<title>Node2&#45;&gt;Node3</title>
<g id="a_edge2_Node000002_Node000003"><a xlink:title=" ">
<path fill="none" stroke="#63b8ff" d="M143.27,-180.73C159.42,-168.41 186.93,-147.44 206.3,-132.68"/>
<polygon fill="#63b8ff" stroke="#63b8ff" points="208.28,-135.56 214.11,-126.71 204.04,-129.99 208.28,-135.56"/>
</a>
</g>
</g>
<!-- Node4 -->
<g id="Node000004" class="node">
<title>Node4</title>
<g id="a_Node000004"><a xlink:href="../../de/d04/str-l_8c.html#abe2a3a71f0b4dbc7d37c59d16762b6fb" target="_top" xlink:title="lstr_copy_* helper.">
<polygon fill="white" stroke="#666666" points="381.25,-88.47 302.25,-88.47 302.25,-69.22 381.25,-69.22 381.25,-88.47"/>
<text text-anchor="middle" x="341.75" y="-74.97" font-family="Helvetica,sans-Serif" font-size="10.00">mp_lstr_copy_</text>
</a>
</g>
</g>
<!-- Node3&#45;&gt;Node4 -->
<g id="edge3_Node000003_Node000004" class="edge">
<title>Node3&#45;&gt;Node4</title>
<g id="a_edge3_Node000003_Node000004"><a xlink:title=" ">
<path fill="none" stroke="#63b8ff" d="M260.54,-105.73C272.7,-101.65 286.93,-96.88 299.99,-92.5"/>
<polygon fill="#63b8ff" stroke="#63b8ff" points="300.82,-95.92 309.19,-89.42 298.6,-89.28 300.82,-95.92"/>
</a>
</g>
</g>
<!-- Node5 -->
<g id="Node000005" class="node">
<title>Node5</title>
<g id="a_Node000005"><a xlink:href="../../d9/d9a/mem_8h.html#aebbbd277e2952bdb802104671ba23ba9" target="_top" xlink:title=" ">
<polygon fill="white" stroke="#666666" points="452,-88.47 417.25,-88.47 417.25,-69.22 452,-69.22 452,-88.47"/>
<text text-anchor="middle" x="434.62" y="-74.97" font-family="Helvetica,sans-Serif" font-size="10.00">ifree</text>
</a>
</g>
</g>
<!-- Node4&#45;&gt;Node5 -->
<g id="edge4_Node000004_Node000005" class="edge">
<title>Node4&#45;&gt;Node5</title>
<g id="a_edge4_Node000004_Node000005"><a xlink:title=" ">
<path fill="none" stroke="#63b8ff" d="M381.55,-78.84C389.56,-78.84 397.85,-78.84 405.4,-78.84"/>
<polygon fill="#63b8ff" stroke="#63b8ff" points="405.34,-82.34 415.34,-78.84 405.34,-75.34 405.34,-82.34"/>
</a>
</g>
</g>
<!-- Node15 -->
<g id="Node000015" class="node">
<title>Node15</title>
<g id="a_Node000015"><a xlink:href="../../df/d0a/str-l_8h.html#a3b4dbe9c4cc70340cba0787574dc1c5e" target="_top" xlink:title=" ">
<polygon fill="white" stroke="#666666" points="1266.75,-67.47 1214,-67.47 1214,-48.22 1266.75,-48.22 1266.75,-67.47"/>
<text text-anchor="middle" x="1240.38" y="-53.97" font-family="Helvetica,sans-Serif" font-size="10.00">lstr_init_</text>
</a>
</g>
</g>
<!-- Node4&#45;&gt;Node15 -->
<g id="edge29_Node000004_Node000015" class="edge">
<title>Node4&#45;&gt;Node15</title>
<g id="a_edge29_Node000004_Node000015"><a xlink:title=" ">
<path fill="none" stroke="#63b8ff" d="M355.18,-68.78C382.25,-47.9 449.28,-1.84 513.75,-1.84 513.75,-1.84 513.75,-1.84 991.5,-1.84 1074.82,-1.84 1098.96,5.53 1178,-20.84 1191.92,-25.48 1206.03,-33.7 1217.21,-41.21"/>
<polygon fill="#63b8ff" stroke="#63b8ff" points="1215.13,-44.03 1225.33,-46.92 1219.16,-38.3 1215.13,-44.03"/>
</a>
</g>
</g>
<!-- Node6 -->
<g id="Node000006" class="node">
<title>Node6</title>
<g id="a_Node000006"><a xlink:href="../../d8/d37/mem_8blk.html#a36b65ab346f1d0deed7b63c544c78f2b" target="_top" xlink:title=" ">
<polygon fill="white" stroke="#666666" points="532.88,-107.47 496.62,-107.47 496.62,-88.22 532.88,-88.22 532.88,-107.47"/>
<text text-anchor="middle" x="514.75" y="-93.97" font-family="Helvetica,sans-Serif" font-size="10.00">ipool</text>
</a>
</g>
</g>
<!-- Node5&#45;&gt;Node6 -->
<g id="edge5_Node000005_Node000006" class="edge">
<title>Node5&#45;&gt;Node6</title>
<g id="a_edge5_Node000005_Node000006"><a xlink:title=" ">
<path fill="none" stroke="#63b8ff" d="M452.19,-82.87C461.83,-85.22 474.25,-88.24 485.4,-90.95"/>
<polygon fill="#63b8ff" stroke="#63b8ff" points="484.38,-94.3 494.92,-93.26 486.03,-87.5 484.38,-94.3"/>
</a>
</g>
</g>
<!-- Node25 -->
<g id="Node000025" class="node">
<title>Node25</title>
<g id="a_Node000025"><a xlink:href="../../d8/d37/mem_8blk.html#a83c7cf203e5eef9d1a8c6c43cde3e2e5" target="_top" xlink:title=" ">
<polygon fill="white" stroke="#666666" points="541.5,-70.47 488,-70.47 488,-51.22 541.5,-51.22 541.5,-70.47"/>
<text text-anchor="middle" x="514.75" y="-56.97" font-family="Helvetica,sans-Serif" font-size="10.00">mp_ifree</text>
</a>
</g>
</g>
<!-- Node5&#45;&gt;Node25 -->
<g id="edge28_Node000005_Node000025" class="edge">
<title>Node5&#45;&gt;Node25</title>
<g id="a_edge28_Node000005_Node000025"><a xlink:title=" ">
<path fill="none" stroke="#63b8ff" d="M452.19,-75.02C459.36,-73.37 468.05,-71.37 476.62,-69.4"/>
<polygon fill="#63b8ff" stroke="#63b8ff" points="477.24,-72.85 486.2,-67.19 475.67,-66.02 477.24,-72.85"/>
</a>
</g>
</g>
<!-- Node7 -->
<g id="Node000007" class="node">
<title>Node7</title>
<g id="a_Node000007"><a xlink:href="../../d7/df8/log_8c.html#abca342edf91a9b45f7a17ef564fa8a53" target="_top" xlink:title=" ">
<polygon fill="white" stroke="#666666" points="627.25,-125.47 577.5,-125.47 577.5,-106.22 627.25,-106.22 627.25,-125.47"/>
<text text-anchor="middle" x="602.38" y="-111.97" font-family="Helvetica,sans-Serif" font-size="10.00">e_panic</text>
</a>
</g>
</g>
<!-- Node6&#45;&gt;Node7 -->
<g id="edge6_Node000006_Node000007" class="edge">
<title>Node6&#45;&gt;Node7</title>
<g id="a_edge6_Node000006_Node000007"><a xlink:title=" ">
<path fill="none" stroke="#63b8ff" d="M533.08,-101.48C542.61,-103.49 554.78,-106.05 566.21,-108.45"/>
<polygon fill="#63b8ff" stroke="#63b8ff" points="565.27,-111.83 575.78,-110.46 566.71,-104.98 565.27,-111.83"/>
</a>
</g>
</g>
<!-- Node24 -->
<g id="Node000024" class="node">
<title>Node24</title>
<g id="a_Node000024"><a xlink:href="../../d1/d10/mem-stack_8h.html#a1d0e2a29f86dc033a02e50484b527fd0" target="_top" xlink:title=" ">
<polygon fill="white" stroke="#666666" points="623.5,-88.47 581.25,-88.47 581.25,-69.22 623.5,-69.22 623.5,-88.47"/>
<text text-anchor="middle" x="602.38" y="-74.97" font-family="Helvetica,sans-Serif" font-size="10.00">t_pool</text>
</a>
</g>
</g>
<!-- Node6&#45;&gt;Node24 -->
<g id="edge27_Node000006_Node000024" class="edge">
<title>Node6&#45;&gt;Node24</title>
<g id="a_edge27_Node000006_Node000024"><a xlink:title=" ">
<path fill="none" stroke="#63b8ff" d="M533.08,-94C543.63,-91.66 557.43,-88.59 569.86,-85.84"/>
<polygon fill="#63b8ff" stroke="#63b8ff" points="570.27,-89.33 579.28,-83.75 568.75,-82.5 570.27,-89.33"/>
</a>
</g>
</g>
<!-- Node8 -->
<g id="Node000008" class="node">
<title>Node8</title>
<g id="a_Node000008"><a xlink:href="../../d7/df8/log_8c.html#a4bc04f7baa1e064cb0b93c7b9f3a61a1" target="_top" xlink:title=" ">
<polygon fill="white" stroke="#666666" points="751.25,-125.47 663.25,-125.47 663.25,-106.22 751.25,-106.22 751.25,-125.47"/>
<text text-anchor="middle" x="707.25" y="-111.97" font-family="Helvetica,sans-Serif" font-size="10.00">__logger_refresh</text>
</a>
</g>
</g>
<!-- Node7&#45;&gt;Node8 -->
<g id="edge7_Node000007_Node000008" class="edge">
<title>Node7&#45;&gt;Node8</title>
<g id="a_edge7_Node000007_Node000008"><a xlink:title=" ">
<path fill="none" stroke="#63b8ff" d="M627.49,-115.84C634.76,-115.84 643.05,-115.84 651.47,-115.84"/>
<polygon fill="#63b8ff" stroke="#63b8ff" points="651.41,-119.34 661.41,-115.84 651.41,-112.34 651.41,-119.34"/>
</a>
</g>
</g>
<!-- Node19 -->
<g id="Node000019" class="node">
<title>Node19</title>
<g id="a_Node000019"><a xlink:href="../../d7/df8/log_8c.html#a900490b26df7698aac12f7f7e6517e81" target="_top" xlink:title=" ">
<polygon fill="white" stroke="#666666" points="740,-87.47 674.5,-87.47 674.5,-68.22 740,-68.22 740,-87.47"/>
<text text-anchor="middle" x="707.25" y="-73.97" font-family="Helvetica,sans-Serif" font-size="10.00">logger_vlog</text>
</a>
</g>
</g>
<!-- Node7&#45;&gt;Node19 -->
<g id="edge21_Node000007_Node000019" class="edge">
<title>Node7&#45;&gt;Node19</title>
<g id="a_edge21_Node000007_Node000019"><a xlink:title=" ">
<path fill="none" stroke="#63b8ff" d="M627.49,-106.93C639.68,-102.43 654.74,-96.87 668.42,-91.81"/>
<polygon fill="#63b8ff" stroke="#63b8ff" points="669.43,-95.17 677.6,-88.43 667,-88.61 669.43,-95.17"/>
</a>
</g>
</g>
<!-- Node23 -->
<g id="Node000023" class="node">
<title>Node23</title>
<g id="a_Node000023"><a xlink:href="../../d2/d4d/file_8h.html#a25419a391fdd4ad7954699c58cfeb3b9" target="_top" xlink:title=" ">
<polygon fill="white" stroke="#666666" points="732.88,-162.47 681.62,-162.47 681.62,-143.22 732.88,-143.22 732.88,-162.47"/>
<text text-anchor="middle" x="707.25" y="-148.97" font-family="Helvetica,sans-Serif" font-size="10.00">va_start</text>
</a>
</g>
</g>
<!-- Node7&#45;&gt;Node23 -->
<g id="edge26_Node000007_Node000023" class="edge">
<title>Node7&#45;&gt;Node23</title>
<g id="a_edge26_Node000007_Node000023"><a xlink:title=" ">
<path fill="none" stroke="#63b8ff" d="M627.49,-124.52C640.37,-129.15 656.45,-134.93 670.73,-140.07"/>
<polygon fill="#63b8ff" stroke="#63b8ff" points="669.19,-143.23 679.78,-143.32 671.56,-136.65 669.19,-143.23"/>
</a>
</g>
</g>
<!-- Node9 -->
<g id="Node000009" class="node">
<title>Node9</title>
<g id="a_Node000009"><a xlink:href="../../d7/df8/log_8c.html#a3dbd75fb614210f0b114cfd03c9c0a7b" target="_top" xlink:title=" ">
<polygon fill="white" stroke="#666666" points="891,-199.47 787.25,-199.47 787.25,-180.22 891,-180.22 891,-199.47"/>
<text text-anchor="middle" x="839.12" y="-185.97" font-family="Helvetica,sans-Serif" font-size="10.00">__logger_do_refresh</text>
</a>
</g>
</g>
<!-- Node8&#45;&gt;Node9 -->
<g id="edge8_Node000008_Node000009" class="edge">
<title>Node8&#45;&gt;Node9</title>
<g id="a_edge8_Node000008_Node000009"><a xlink:title=" ">
<path fill="none" stroke="#63b8ff" d="M736.89,-125.85C741.87,-128.14 746.85,-130.81 751.25,-133.84 770.39,-147.06 767.74,-159.17 787.25,-171.84 788.87,-172.9 790.56,-173.9 792.3,-174.84"/>
<polygon fill="#63b8ff" stroke="#63b8ff" points="790.71,-177.97 801.25,-179.08 793.71,-171.64 790.71,-177.97"/>
</a>
</g>
</g>
<!-- Node17 -->
<g id="Node000017" class="node">
<title>Node17</title>
<g id="a_Node000017"><a xlink:href="../../d7/df8/log_8c.html#a7b1b02d1986e1247c2f571af4a2c2854" target="_top" xlink:title=" ">
<polygon fill="white" stroke="#666666" points="876.75,-162.47 801.5,-162.47 801.5,-143.22 876.75,-143.22 876.75,-162.47"/>
<text text-anchor="middle" x="839.12" y="-148.97" font-family="Helvetica,sans-Serif" font-size="10.00">log_spin_lock</text>
</a>
</g>
</g>
<!-- Node8&#45;&gt;Node17 -->
<g id="edge19_Node000008_Node000017" class="edge">
<title>Node8&#45;&gt;Node17</title>
<g id="a_edge19_Node000008_Node000017"><a xlink:title=" ">
<path fill="none" stroke="#63b8ff" d="M743.74,-125.95C758.63,-130.19 776.14,-135.18 792.01,-139.7"/>
<polygon fill="#63b8ff" stroke="#63b8ff" points="790.65,-142.96 801.22,-142.33 792.57,-136.22 790.65,-142.96"/>
</a>
</g>
</g>
<!-- Node18 -->
<g id="Node000018" class="node">
<title>Node18</title>
<g id="a_Node000018"><a xlink:href="../../d1/dc0/group__log.html#ga045020bb4af234632f7761f220131c69" target="_top" xlink:title=" ">
<polygon fill="white" stroke="#666666" points="882,-125.47 796.25,-125.47 796.25,-106.22 882,-106.22 882,-125.47"/>
<text text-anchor="middle" x="839.12" y="-111.97" font-family="Helvetica,sans-Serif" font-size="10.00">log_spin_unlock</text>
</a>
</g>
</g>
<!-- Node8&#45;&gt;Node18 -->
<g id="edge20_Node000008_Node000018" class="edge">
<title>Node8&#45;&gt;Node18</title>
<g id="a_edge20_Node000008_Node000018"><a xlink:title=" ">
<path fill="none" stroke="#63b8ff" d="M751.5,-115.84C762.12,-115.84 773.62,-115.84 784.66,-115.84"/>
<polygon fill="#63b8ff" stroke="#63b8ff" points="784.44,-119.34 794.44,-115.84 784.44,-112.34 784.44,-119.34"/>
</a>
</g>
</g>
<!-- Node9&#45;&gt;Node2 -->
<g id="edge18_Node000009_Node000002" class="edge">
<title>Node9&#45;&gt;Node2</title>
<g id="a_edge18_Node000009_Node000002"><a xlink:title=" ">
<path fill="none" stroke="#63b8ff" d="M786.84,-190.19C739.28,-190.48 666.55,-190.84 603.38,-190.84 340.75,-190.84 340.75,-190.84 340.75,-190.84 280.51,-190.84 210.59,-190.84 168.35,-190.84"/>
<polygon fill="#63b8ff" stroke="#63b8ff" points="168.46,-187.34 158.46,-190.84 168.46,-194.34 168.46,-187.34"/>
</a>
</g>
</g>
<!-- Node9&#45;&gt;Node9 -->
<g id="edge9_Node000009_Node000009" class="edge">
<title>Node9&#45;&gt;Node9</title>
<g id="a_edge9_Node000009_Node000009"><a xlink:title=" ">
<path fill="none" stroke="#63b8ff" d="M818.48,-199.76C809.06,-208.36 815.94,-217.47 839.12,-217.47 851.8,-217.47 859.6,-214.74 862.53,-210.87"/>
<polygon fill="#63b8ff" stroke="#63b8ff" points="865.94,-210.08 860.14,-201.22 859.15,-211.77 865.94,-210.08"/>
</a>
</g>
</g>
<!-- Node10 -->
<g id="Node000010" class="node">
<title>Node10</title>
<g id="a_Node000010"><a xlink:href="../../de/d1a/container-dlist_8h.html#a3b6f65860b212e28f2e28e71eb54d54d" target="_top" xlink:title="Add element e at the head of list l (suited for LIFO).">
<polygon fill="white" stroke="#666666" points="1018,-199.47 963,-199.47 963,-180.22 1018,-180.22 1018,-199.47"/>
<text text-anchor="middle" x="990.5" y="-185.97" font-family="Helvetica,sans-Serif" font-size="10.00">dlist_add</text>
</a>
</g>
</g>
<!-- Node9&#45;&gt;Node10 -->
<g id="edge10_Node000009_Node000010" class="edge">
<title>Node9&#45;&gt;Node10</title>
<g id="a_edge10_Node000009_Node000010"><a xlink:title=" ">
<path fill="none" stroke="#63b8ff" d="M891.11,-189.84C910.8,-189.84 932.94,-189.84 951.23,-189.84"/>
<polygon fill="#63b8ff" stroke="#63b8ff" points="951.11,-193.34 961.11,-189.84 951.11,-186.34 951.11,-193.34"/>
</a>
</g>
</g>
<!-- Node12 -->
<g id="Node000012" class="node">
<title>Node12</title>
<g id="a_Node000012"><a xlink:href="../../de/d1a/container-dlist_8h.html#a0a69e401f6ec15966c891e96ad864c77" target="_top" xlink:title="Put a dlist_t element in a safe and detached state.">
<polygon fill="white" stroke="#666666" points="1016.5,-125.47 964.5,-125.47 964.5,-106.22 1016.5,-106.22 1016.5,-125.47"/>
<text text-anchor="middle" x="990.5" y="-111.97" font-family="Helvetica,sans-Serif" font-size="10.00">dlist_init</text>
</a>
</g>
</g>
<!-- Node9&#45;&gt;Node12 -->
<g id="edge12_Node000009_Node000012" class="edge">
<title>Node9&#45;&gt;Node12</title>
<g id="a_edge12_Node000009_Node000012"><a xlink:title=" ">
<path fill="none" stroke="#63b8ff" d="M875.64,-179.73C880.99,-177.52 886.29,-174.91 891,-171.84 910.51,-159.17 907.12,-145.93 927,-133.84 934.94,-129.02 944.23,-125.43 953.18,-122.79"/>
<polygon fill="#63b8ff" stroke="#63b8ff" points="953.95,-126.21 962.75,-120.31 952.19,-119.43 953.95,-126.21"/>
</a>
</g>
</g>
<!-- Node13 -->
<g id="Node000013" class="node">
<title>Node13</title>
<g id="a_Node000013"><a xlink:href="../../d7/df8/log_8c.html#a4c8fbe8648573312126ce341cf34cba1" target="_top" xlink:title=" ">
<polygon fill="white" stroke="#666666" points="1054,-236.47 927,-236.47 927,-217.22 1054,-217.22 1054,-236.47"/>
<text text-anchor="middle" x="990.5" y="-222.97" font-family="Helvetica,sans-Serif" font-size="10.00">logger_compute_fullname</text>
</a>
</g>
</g>
<!-- Node9&#45;&gt;Node13 -->
<g id="edge13_Node000009_Node000013" class="edge">
<title>Node9&#45;&gt;Node13</title>
<g id="a_edge13_Node000009_Node000013"><a xlink:title=" ">
<path fill="none" stroke="#63b8ff" d="M880.94,-199.95C898.48,-204.3 919.18,-209.42 937.77,-214.03"/>
<polygon fill="#63b8ff" stroke="#63b8ff" points="936.71,-217.37 947.26,-216.38 938.4,-210.58 936.71,-217.37"/>
</a>
</g>
</g>
<!-- Node16 -->
<g id="Node000016" class="node">
<title>Node16</title>
<g id="a_Node000016"><a xlink:href="../../df/d0a/str-l_8h.html#a963c22b229774d4b7c106bae4011cb8e" target="_top" xlink:title="Returns whether \v s1 and \v s2 contents are equal.">
<polygon fill="white" stroke="#666666" points="1019.5,-162.47 961.5,-162.47 961.5,-143.22 1019.5,-143.22 1019.5,-162.47"/>
<text text-anchor="middle" x="990.5" y="-148.97" font-family="Helvetica,sans-Serif" font-size="10.00">lstr_equal</text>
</a>
</g>
</g>
<!-- Node9&#45;&gt;Node16 -->
<g id="edge17_Node000009_Node000016" class="edge">
<title>Node9&#45;&gt;Node16</title>
<g id="a_edge17_Node000009_Node000016"><a xlink:title=" ">
<path fill="none" stroke="#63b8ff" d="M880.94,-179.73C902.47,-174.4 928.76,-167.89 950.08,-162.61"/>
<polygon fill="#63b8ff" stroke="#63b8ff" points="950.7,-166.06 959.56,-160.26 949.01,-159.27 950.7,-166.06"/>
</a>
</g>
</g>
<!-- Node11 -->
<g id="Node000011" class="node">
<title>Node11</title>
<g id="a_Node000011"><a xlink:href="../../de/d1a/container-dlist_8h.html#a71e7667ca0e4b896923788c5851afd24" target="_top" xlink:title="Put element e between prev and next.">
<polygon fill="white" stroke="#666666" points="1166.75,-142.47 1101.25,-142.47 1101.25,-123.22 1166.75,-123.22 1166.75,-142.47"/>
<text text-anchor="middle" x="1134" y="-128.97" font-family="Helvetica,sans-Serif" font-size="10.00">__dlist_add</text>
</a>
</g>
</g>
<!-- Node10&#45;&gt;Node11 -->
<g id="edge11_Node000010_Node000011" class="edge">
<title>Node10&#45;&gt;Node11</title>
<g id="a_edge11_Node000010_Node000011"><a xlink:title=" ">
<path fill="none" stroke="#63b8ff" d="M1018.46,-183.64C1029.67,-180.66 1042.68,-176.68 1054,-171.84 1071.03,-164.56 1073.42,-159.1 1090,-150.84 1092.24,-149.73 1094.56,-148.62 1096.91,-147.53"/>
<polygon fill="#63b8ff" stroke="#63b8ff" points="1098.16,-150.81 1105.9,-143.57 1095.34,-144.4 1098.16,-150.81"/>
</a>
</g>
</g>
<!-- Node13&#45;&gt;Node2 -->
<g id="edge16_Node000013_Node000002" class="edge">
<title>Node13&#45;&gt;Node2</title>
<g id="a_edge16_Node000013_Node000002"><a xlink:title=" ">
<path fill="none" stroke="#63b8ff" d="M926.75,-233.51C869.81,-238.99 783.49,-245.84 708.25,-245.84 340.75,-245.84 340.75,-245.84 340.75,-245.84 276.32,-245.84 204.3,-221.48 163.33,-205.18"/>
<polygon fill="#63b8ff" stroke="#63b8ff" points="164.86,-202.03 154.28,-201.5 162.22,-208.51 164.86,-202.03"/>
</a>
</g>
</g>
<!-- Node14 -->
<g id="Node000014" class="node">
<title>Node14</title>
<g id="a_Node000014"><a xlink:href="../../df/d0a/str-l_8h.html#a6a200ca09358f19b13a8e297cda34869" target="_top" xlink:title="returns a constant copy of \v s.">
<polygon fill="white" stroke="#666666" points="1161.88,-179.47 1106.12,-179.47 1106.12,-160.22 1161.88,-160.22 1161.88,-179.47"/>
<text text-anchor="middle" x="1134" y="-165.97" font-family="Helvetica,sans-Serif" font-size="10.00">lstr_dupc</text>
</a>
</g>
</g>
<!-- Node13&#45;&gt;Node14 -->
<g id="edge14_Node000013_Node000014" class="edge">
<title>Node13&#45;&gt;Node14</title>
<g id="a_edge14_Node000013_Node000014"><a xlink:title=" ">
<path fill="none" stroke="#63b8ff" d="M1030.53,-216.76C1038.39,-214.41 1046.52,-211.74 1054,-208.84 1071.33,-202.13 1090.01,-193 1104.85,-185.27"/>
<polygon fill="#63b8ff" stroke="#63b8ff" points="1106.37,-188.42 1113.56,-180.64 1103.09,-182.24 1106.37,-188.42"/>
</a>
</g>
</g>
<!-- Node14&#45;&gt;Node15 -->
<g id="edge15_Node000014_Node000015" class="edge">
<title>Node14&#45;&gt;Node15</title>
<g id="a_edge15_Node000014_Node000015"><a xlink:title=" ">
<path fill="none" stroke="#63b8ff" d="M1162.32,-161.3C1167.86,-158.8 1173.4,-155.67 1178,-151.84 1202.39,-131.53 1220.58,-99.03 1230.6,-78.06"/>
<polygon fill="#63b8ff" stroke="#63b8ff" points="1233.71,-79.67 1234.68,-69.12 1227.34,-76.76 1233.71,-79.67"/>
</a>
</g>
</g>
<!-- Node19&#45;&gt;Node14 -->
<g id="edge25_Node000019_Node000014" class="edge">
<title>Node19&#45;&gt;Node14</title>
<g id="a_edge25_Node000019_Node000014"><a xlink:title=" ">
<path fill="none" stroke="#63b8ff" d="M740.33,-76C815.62,-72.25 1001.27,-66.44 1054,-96.84 1079.31,-111.44 1067.54,-133.16 1090,-151.84 1091.87,-153.4 1093.89,-154.84 1096.01,-156.16"/>
<polygon fill="#63b8ff" stroke="#63b8ff" points="1093.87,-158.99 1104.35,-160.58 1097.15,-152.81 1093.87,-158.99"/>
</a>
</g>
</g>
<!-- Node20 -->
<g id="Node000020" class="node">
<title>Node20</title>
<g id="a_Node000020"><a xlink:href="../../d1/dc0/group__log.html#ga168a6f17b248f61f7d25a17d58d04e36" target="_top" xlink:title=" ">
<polygon fill="white" stroke="#666666" points="883.5,-49.47 794.75,-49.47 794.75,-30.22 883.5,-30.22 883.5,-49.47"/>
<text text-anchor="middle" x="839.12" y="-35.97" font-family="Helvetica,sans-Serif" font-size="10.00">logger_has_level</text>
</a>
</g>
</g>
<!-- Node19&#45;&gt;Node20 -->
<g id="edge22_Node000019_Node000020" class="edge">
<title>Node19&#45;&gt;Node20</title>
<g id="a_edge22_Node000019_Node000020"><a xlink:title=" ">
<path fill="none" stroke="#63b8ff" d="M740.35,-68.45C756.13,-63.83 775.41,-58.19 792.67,-53.14"/>
<polygon fill="#63b8ff" stroke="#63b8ff" points="793.59,-56.52 802.21,-50.35 791.63,-49.8 793.59,-56.52"/>
</a>
</g>
</g>
<!-- Node21 -->
<g id="Node000021" class="node">
<title>Node21</title>
<g id="a_Node000021"><a xlink:href="../../d1/dc0/group__log.html#gaf388752b988541da0abeceecdf96e6b3" target="_top" xlink:title=" ">
<polygon fill="white" stroke="#666666" points="1033.75,-49.47 947.25,-49.47 947.25,-30.22 1033.75,-30.22 1033.75,-49.47"/>
<text text-anchor="middle" x="990.5" y="-35.97" font-family="Helvetica,sans-Serif" font-size="10.00">logger_get_level</text>
</a>
</g>
</g>
<!-- Node20&#45;&gt;Node21 -->
<g id="edge23_Node000020_Node000021" class="edge">
<title>Node20&#45;&gt;Node21</title>
<g id="a_edge23_Node000020_Node000021"><a xlink:title=" ">
<path fill="none" stroke="#63b8ff" d="M883.73,-39.84C899.89,-39.84 918.42,-39.84 935.4,-39.84"/>
<polygon fill="#63b8ff" stroke="#63b8ff" points="935.36,-43.34 945.36,-39.84 935.36,-36.34 935.36,-43.34"/>
</a>
</g>
</g>
<!-- Node22 -->
<g id="Node000022" class="node">
<title>Node22</title>
<g id="a_Node000022"><a xlink:href="../../d1/dc0/group__log.html#ga93cbd623096e1704532d15b3eb30e42f" target="_top" xlink:title=" ">
<polygon fill="white" stroke="#666666" points="1178,-49.47 1090,-49.47 1090,-30.22 1178,-30.22 1178,-49.47"/>
<text text-anchor="middle" x="1134" y="-35.97" font-family="Helvetica,sans-Serif" font-size="10.00">__logger_refresh</text>
</a>
</g>
</g>
<!-- Node21&#45;&gt;Node22 -->
<g id="edge24_Node000021_Node000022" class="edge">
<title>Node21&#45;&gt;Node22</title>
<g id="a_edge24_Node000021_Node000022"><a xlink:title=" ">
<path fill="none" stroke="#63b8ff" d="M1033.95,-39.84C1047.83,-39.84 1063.44,-39.84 1078.1,-39.84"/>
<polygon fill="#63b8ff" stroke="#63b8ff" points="1078.08,-43.34 1088.08,-39.84 1078.08,-36.34 1078.08,-43.34"/>
</a>
</g>
</g>
</g>
</svg>
