<?xml version="1.0" encoding="UTF-8" standalone="no"?>
<!DOCTYPE svg PUBLIC "-//W3C//DTD SVG 1.1//EN"
 "http://www.w3.org/Graphics/SVG/1.1/DTD/svg11.dtd">
<!-- Generated by graphviz version 9.0.0 (20230911.1827)
 -->
<!-- Title: _z_group_exit Pages: 1 -->
<svg width="292pt" height="64pt"
 viewBox="0.00 0.00 291.50 64.25" xmlns="http://www.w3.org/2000/svg" xmlns:xlink="http://www.w3.org/1999/xlink">
<g id="graph0" class="graph" transform="scale(1 1) rotate(0) translate(4 60.25)">
<title>_z_group_exit</title>
<!-- Node1 -->
<g id="Node000001" class="node">
<title>Node1</title>
<g id="a_Node000001"><a xlink:title=" ">
<polygon fill="#999999" stroke="#666666" points="283.5,-37.25 208.25,-37.25 208.25,-18 283.5,-18 283.5,-37.25"/>
<text text-anchor="middle" x="245.88" y="-23.75" font-family="Helvetica,sans-Serif" font-size="10.00">_z_group_exit</text>
</a>
</g>
</g>
<!-- Node2 -->
<g id="Node000002" class="node">
<title>Node2</title>
<g id="a_Node000002"><a xlink:href="../../dc/df9/z_8blk.html#a5135ab49d9375ba42f41aa92a5bba2a9" target="_top" xlink:title=" ">
<polygon fill="white" stroke="#666666" points="172.25,-56.25 75.25,-56.25 75.25,-37 172.25,-37 172.25,-56.25"/>
<text text-anchor="middle" x="123.75" y="-42.75" font-family="Helvetica,sans-Serif" font-size="10.00">_z_blkgrp_process</text>
</a>
</g>
</g>
<!-- Node1&#45;&gt;Node2 -->
<g id="edge1_Node000001_Node000002" class="edge">
<title>Node1&#45;&gt;Node2</title>
<g id="a_edge1_Node000001_Node000002"><a xlink:title=" ">
<path fill="none" stroke="#63b8ff" d="M196.52,-35.27C188.61,-36.53 180.41,-37.82 172.5,-39.07"/>
<polygon fill="#63b8ff" stroke="#63b8ff" points="197.03,-38.74 206.36,-33.72 195.93,-31.82 197.03,-38.74"/>
</a>
</g>
</g>
<!-- Node4 -->
<g id="Node000004" class="node">
<title>Node4</title>
<g id="a_Node000004"><a xlink:href="../../dc/df9/z_8blk.html#ac3befccff5796a66c7d16d08159ee98d" target="_top" xlink:title=" ">
<polygon fill="white" stroke="#666666" points="171.12,-19.25 76.38,-19.25 76.38,0 171.12,0 171.12,-19.25"/>
<text text-anchor="middle" x="123.75" y="-5.75" font-family="Helvetica,sans-Serif" font-size="10.00">_z_group_process</text>
</a>
</g>
</g>
<!-- Node1&#45;&gt;Node4 -->
<g id="edge3_Node000001_Node000004" class="edge">
<title>Node1&#45;&gt;Node4</title>
<g id="a_edge3_Node000001_Node000004"><a xlink:title=" ">
<path fill="none" stroke="#63b8ff" d="M196.67,-20.4C188.27,-19.14 179.55,-17.84 171.2,-16.59"/>
<polygon fill="#63b8ff" stroke="#63b8ff" points="195.95,-23.83 206.36,-21.85 196.99,-16.91 195.95,-23.83"/>
</a>
</g>
</g>
<!-- Node3 -->
<g id="Node000003" class="node">
<title>Node3</title>
<g id="a_Node000003"><a xlink:href="../../dc/df9/z_8blk.html#a7aecafd2b6d53feb0c5ba3a9b492099a" target="_top" xlink:title=" ">
<polygon fill="white" stroke="#666666" points="39.25,-56.25 0,-56.25 0,-37 39.25,-37 39.25,-56.25"/>
<text text-anchor="middle" x="19.62" y="-42.75" font-family="Helvetica,sans-Serif" font-size="10.00">z_run</text>
</a>
</g>
</g>
<!-- Node2&#45;&gt;Node3 -->
<g id="edge2_Node000002_Node000003" class="edge">
<title>Node2&#45;&gt;Node3</title>
<g id="a_edge2_Node000002_Node000003"><a xlink:title=" ">
<path fill="none" stroke="#63b8ff" d="M63.71,-46.62C54.88,-46.62 46.38,-46.62 39.3,-46.62"/>
<polygon fill="#63b8ff" stroke="#63b8ff" points="63.46,-50.13 73.46,-46.63 63.46,-43.13 63.46,-50.13"/>
</a>
</g>
</g>
</g>
</svg>
