<?xml version="1.0" encoding="UTF-8" standalone="no"?>
<!DOCTYPE svg PUBLIC "-//W3C//DTD SVG 1.1//EN"
 "http://www.w3.org/Graphics/SVG/1.1/DTD/svg11.dtd">
<!-- Generated by graphviz version 9.0.0 (20230911.1827)
 -->
<!-- Title: rand_range Pages: 1 -->
<!--zoomable 150 -->

<svg id="main" version="1.1" xmlns="http://www.w3.org/2000/svg" xmlns:xlink="http://www.w3.org/1999/xlink" xml:space="preserve" onload="init(evt)">
<style type="text/css"><![CDATA[
.node, .edge {opacity: 0.7;}
.node.selected, .edge.selected {opacity: 1;}
.edge:hover path { stroke: red; }
.edge:hover polygon { stroke: red; fill: red; }
]]></style>

<defs>
  <circle id="rim" cx="0" cy="0" r="7"/>
  <circle id="rim2" cx="0" cy="0" r="3.5"/>
  <g id="zoomPlus">
    <use xlink:href="#rim" fill="#404040"><set attributeName="fill" to="#808080" begin="zoomplus.mouseover" end="zoomplus.mouseout"/></use>
    <path d="M-4,0h8M0,-4v8" fill="none" stroke="white" stroke-width="1.5" pointer-events="none"/>
  </g>
  <g id="zoomMin">
    <use xlink:href="#rim" fill="#404040"><set attributeName="fill" to="#808080" begin="zoomminus.mouseover" end="zoomminus.mouseout"/></use>
    <path d="M-4,0h8" fill="none" stroke="white" stroke-width="1.5" pointer-events="none"/>
  </g>
  <g id="arrowUp" transform="translate(30 24)">
    <use xlink:href="#rim"/>
    <path pointer-events="none" fill="none" stroke="white" stroke-width="1.5" d="M0,-3.0v7 M-2.5,-0.5L0,-3.0L2.5,-0.5"/>
  </g>
  <g id="arrowRight" transform="rotate(90) translate(36 -43)">
    <use xlink:href="#rim"/>
    <path pointer-events="none" fill="none" stroke="white" stroke-width="1.5" d="M0,-3.0v7 M-2.5,-0.5L0,-3.0L2.5,-0.5"/>
  </g>
  <g id="arrowDown" transform="rotate(180) translate(-30 -48)">
    <use xlink:href="#rim"/>
    <path pointer-events="none" fill="none" stroke="white" stroke-width="1.5" d="M0,-3.0v7 M-2.5,-0.5L0,-3.0L2.5,-0.5"/>
  </g>
  <g id="arrowLeft" transform="rotate(270) translate(-36 17)">
    <use xlink:href="#rim"/>
    <path pointer-events="none" fill="none" stroke="white" stroke-width="1.5" d="M0,-3.0v7 M-2.5,-0.5L0,-3.0L2.5,-0.5"/>
  </g>
  <g id="resetDef">
    <use xlink:href="#rim2" fill="#404040"><set attributeName="fill" to="#808080" begin="reset.mouseover" end="reset.mouseout"/></use>
  </g>
</defs>
<script type="application/ecmascript">
var viewWidth = 542;
var viewHeight = 150;
var sectionId = 'dynsection-7';
</script>
<script type="application/ecmascript" xlink:href="../../svg.min.js"/>
<svg id="graph" class="graph">
<g id="viewport">
<title>rand_range</title>
<!-- Node1 -->
<g id="Node000001" class="node">
<title>Node1</title>
<g id="a_Node000001"><a xlink:title="Generate a random integer in the range [first,last].">
<polygon fill="#999999" stroke="#666666" points="533.75,-93.25 469.75,-93.25 469.75,-74 533.75,-74 533.75,-93.25"/>
<text text-anchor="middle" x="501.75" y="-79.75" font-family="Helvetica,sans-Serif" font-size="10.00">rand_range</text>
</a>
</g>
</g>
<!-- Node2 -->
<g id="Node000002" class="node">
<title>Node2</title>
<g id="a_Node000002"><a xlink:href="../../d8/d37/mem_8blk.html#a81c4f4eb15266682c5f430e0ae992811" target="_top" xlink:title="Set the period for the cron that calls malloc_trim().">
<polygon fill="white" stroke="#666666" points="433.75,-141.88 319.5,-141.88 319.5,-111.38 433.75,-111.38 433.75,-141.88"/>
<text text-anchor="start" x="327.5" y="-128.38" font-family="Helvetica,sans-Serif" font-size="10.00">core_mem_set_malloc</text>
<text text-anchor="middle" x="376.62" y="-117.12" font-family="Helvetica,sans-Serif" font-size="10.00">_trim_period</text>
</a>
</g>
</g>
<!-- Node1&#45;&gt;Node2 -->
<g id="edge1_Node000001_Node000002" class="edge">
<title>Node1&#45;&gt;Node2</title>
<g id="a_edge1_Node000001_Node000002"><a xlink:title=" ">
<path fill="none" stroke="#63b8ff" d="M461.08,-97.48C448.84,-101.75 435.27,-106.49 422.7,-110.88"/>
<polygon fill="#63b8ff" stroke="#63b8ff" points="462.17,-100.81 470.45,-94.21 459.86,-94.2 462.17,-100.81"/>
</a>
</g>
</g>
<!-- Node4 -->
<g id="Node000004" class="node">
<title>Node4</title>
<g id="a_Node000004"><a xlink:href="../../d3/dcd/farchc_8c.html#aecd5d75d8a451fe6157dff16af885195" target="_top" xlink:title=" ">
<polygon fill="white" stroke="#666666" points="431.12,-93.25 322.12,-93.25 322.12,-74 431.12,-74 431.12,-93.25"/>
<text text-anchor="middle" x="376.62" y="-79.75" font-family="Helvetica,sans-Serif" font-size="10.00">dump_and_obfuscate</text>
</a>
</g>
</g>
<!-- Node1&#45;&gt;Node4 -->
<g id="edge3_Node000001_Node000004" class="edge">
<title>Node1&#45;&gt;Node4</title>
<g id="a_edge3_Node000001_Node000004"><a xlink:title=" ">
<path fill="none" stroke="#63b8ff" d="M458.06,-83.62C449.48,-83.62 440.35,-83.62 431.44,-83.62"/>
<polygon fill="#63b8ff" stroke="#63b8ff" points="457.85,-87.13 467.85,-83.63 457.85,-80.13 457.85,-87.13"/>
</a>
</g>
</g>
<!-- Node8 -->
<g id="Node000008" class="node">
<title>Node8</title>
<g id="a_Node000008"><a xlink:href="../../df/d5f/str_8c.html#a7abd374dbbd07b79acf805261e056ee4" target="_top" xlink:title="Put random characters from alphabet in destination buffer, and terminate with a &#39;\0&#39; character.">
<polygon fill="white" stroke="#666666" points="399.62,-56.25 353.62,-56.25 353.62,-37 399.62,-37 399.62,-56.25"/>
<text text-anchor="middle" x="376.62" y="-42.75" font-family="Helvetica,sans-Serif" font-size="10.00">strrand</text>
</a>
</g>
</g>
<!-- Node1&#45;&gt;Node8 -->
<g id="edge7_Node000001_Node000008" class="edge">
<title>Node1&#45;&gt;Node8</title>
<g id="a_edge7_Node000001_Node000008"><a xlink:title=" ">
<path fill="none" stroke="#63b8ff" d="M458.51,-70.93C438.87,-65.03 416.32,-58.25 400.02,-53.35"/>
<polygon fill="#63b8ff" stroke="#63b8ff" points="457.33,-74.23 467.91,-73.76 459.34,-67.53 457.33,-74.23"/>
</a>
</g>
</g>
<!-- Node3 -->
<g id="Node000003" class="node">
<title>Node3</title>
<g id="a_Node000003"><a xlink:href="../../d8/d37/mem_8blk.html#a023a25e6316cb99c8d3abac7bcf7c35b" target="_top" xlink:title=" ">
<polygon fill="white" stroke="#666666" points="283.5,-136.25 161.75,-136.25 161.75,-117 283.5,-117 283.5,-136.25"/>
<text text-anchor="middle" x="222.62" y="-122.75" font-family="Helvetica,sans-Serif" font-size="10.00">core_mem_libc_initialize</text>
</a>
</g>
</g>
<!-- Node2&#45;&gt;Node3 -->
<g id="edge2_Node000002_Node000003" class="edge">
<title>Node2&#45;&gt;Node3</title>
<g id="a_edge2_Node000002_Node000003"><a xlink:title=" ">
<path fill="none" stroke="#63b8ff" d="M307.56,-126.62C299.65,-126.62 291.63,-126.62 283.84,-126.62"/>
<polygon fill="#63b8ff" stroke="#63b8ff" points="307.51,-130.13 317.51,-126.63 307.51,-123.13 307.51,-130.13"/>
</a>
</g>
</g>
<!-- Node5 -->
<g id="Node000005" class="node">
<title>Node5</title>
<g id="a_Node000005"><a xlink:href="../../d3/dcd/farchc_8c.html#a5ed23f9cd81d0d89c1837cb5ecf9b8c5" target="_top" xlink:title=" ">
<polygon fill="white" stroke="#666666" points="251.25,-93.25 194,-93.25 194,-74 251.25,-74 251.25,-93.25"/>
<text text-anchor="middle" x="222.62" y="-79.75" font-family="Helvetica,sans-Serif" font-size="10.00">dump_file</text>
</a>
</g>
</g>
<!-- Node4&#45;&gt;Node5 -->
<g id="edge4_Node000004_Node000005" class="edge">
<title>Node4&#45;&gt;Node5</title>
<g id="a_edge4_Node000004_Node000005"><a xlink:title=" ">
<path fill="none" stroke="#63b8ff" d="M310.7,-83.62C290.02,-83.62 268.23,-83.62 251.61,-83.62"/>
<polygon fill="#63b8ff" stroke="#63b8ff" points="310.52,-87.13 320.52,-83.63 310.52,-80.13 310.52,-87.13"/>
</a>
</g>
</g>
<!-- Node6 -->
<g id="Node000006" class="node">
<title>Node6</title>
<g id="a_Node000006"><a xlink:href="../../d3/dcd/farchc_8c.html#a425d4ca44c7f0cfd1226ac47bef8fa9f" target="_top" xlink:title=" ">
<polygon fill="white" stroke="#666666" points="125.75,-93.25 73,-93.25 73,-74 125.75,-74 125.75,-93.25"/>
<text text-anchor="middle" x="99.38" y="-79.75" font-family="Helvetica,sans-Serif" font-size="10.00">do_work</text>
</a>
</g>
</g>
<!-- Node5&#45;&gt;Node6 -->
<g id="edge5_Node000005_Node000006" class="edge">
<title>Node5&#45;&gt;Node6</title>
<g id="a_edge5_Node000005_Node000006"><a xlink:title=" ">
<path fill="none" stroke="#63b8ff" d="M182.16,-83.62C163.67,-83.62 142.18,-83.62 125.87,-83.62"/>
<polygon fill="#63b8ff" stroke="#63b8ff" points="181.99,-87.13 191.99,-83.63 181.99,-80.13 181.99,-87.13"/>
</a>
</g>
</g>
<!-- Node7 -->
<g id="Node000007" class="node">
<title>Node7</title>
<g id="a_Node000007"><a xlink:href="../../d3/dcd/farchc_8c.html#a0ddf1224851353fc92bfbff6f499fa97" target="_top" xlink:title=" ">
<polygon fill="white" stroke="#666666" points="37,-93.25 0,-93.25 0,-74 37,-74 37,-93.25"/>
<text text-anchor="middle" x="18.5" y="-79.75" font-family="Helvetica,sans-Serif" font-size="10.00">main</text>
</a>
</g>
</g>
<!-- Node6&#45;&gt;Node7 -->
<g id="edge6_Node000006_Node000007" class="edge">
<title>Node6&#45;&gt;Node7</title>
<g id="a_edge6_Node000006_Node000007"><a xlink:title=" ">
<path fill="none" stroke="#63b8ff" d="M61.11,-83.62C52.85,-83.62 44.46,-83.62 37.4,-83.62"/>
<polygon fill="#63b8ff" stroke="#63b8ff" points="61.03,-87.13 71.03,-83.63 61.03,-80.13 61.03,-87.13"/>
</a>
</g>
</g>
<!-- Node9 -->
<g id="Node000009" class="node">
<title>Node9</title>
<g id="a_Node000009"><a xlink:href="../../df/d5f/str_8c.html#ae550b4e2e8310430c038087eb0e05433" target="_top" xlink:title="Put random hexadecimal digits in destination buffer.">
<polygon fill="white" stroke="#666666" points="248.25,-56.25 197,-56.25 197,-37 248.25,-37 248.25,-56.25"/>
<text text-anchor="middle" x="222.62" y="-42.75" font-family="Helvetica,sans-Serif" font-size="10.00">pstrrand</text>
</a>
</g>
</g>
<!-- Node8&#45;&gt;Node9 -->
<g id="edge8_Node000008_Node000009" class="edge">
<title>Node8&#45;&gt;Node9</title>
<g id="a_edge8_Node000008_Node000009"><a xlink:title=" ">
<path fill="none" stroke="#63b8ff" d="M341.88,-46.62C313.69,-46.62 274.12,-46.62 248.68,-46.62"/>
<polygon fill="#63b8ff" stroke="#63b8ff" points="341.68,-50.13 351.68,-46.63 341.68,-43.13 341.68,-50.13"/>
</a>
</g>
</g>
<!-- Node10 -->
<g id="Node000010" class="node">
<title>Node10</title>
<g id="a_Node000010"><a xlink:href="../../da/da5/ssl_8blk.html#aaf0c6e28f452e20200a08c3080cdb806" target="_top" xlink:title=" ">
<polygon fill="white" stroke="#666666" points="276.75,-19.25 168.5,-19.25 168.5,0 276.75,0 276.75,-19.25"/>
<text text-anchor="middle" x="222.62" y="-5.75" font-family="Helvetica,sans-Serif" font-size="10.00">Z_GROUP_EXPORT</text>
</a>
</g>
</g>
<!-- Node8&#45;&gt;Node10 -->
<g id="edge9_Node000008_Node000010" class="edge">
<title>Node8&#45;&gt;Node10</title>
<g id="a_edge9_Node000008_Node000010"><a xlink:title=" ">
<path fill="none" stroke="#63b8ff" d="M342.08,-38.46C319.39,-32.94 289.27,-25.61 265.08,-19.72"/>
<polygon fill="#63b8ff" stroke="#63b8ff" points="341.18,-41.84 351.73,-40.81 342.84,-35.04 341.18,-41.84"/>
</a>
</g>
</g>
</g>
</svg>

<g id="navigator" transform="translate(0 0)" fill="#404254">
  <rect fill="#f2f5e9" fill-opacity="0.5" stroke="#606060" stroke-width=".5" x="0" y="0" width="60" height="60"/>
  <use id="zoomplus" xlink:href="#zoomPlus" x="17" y="9" onmousedown="handleZoom(evt,'in')"/>
  <use id="zoomminus" xlink:href="#zoomMin" x="42" y="9" onmousedown="handleZoom(evt,'out')"/>
  <use id="reset" xlink:href="#resetDef" x="30" y="36" onmousedown="handleReset()"/>
   <use id="arrowup" xlink:href="#arrowUp" x="0" y="0" onmousedown="handlePan(0,-1)"/>
  <use id="arrowright" xlink:href="#arrowRight" x="0" y="0" onmousedown="handlePan(1,0)"/>
  <use id="arrowdown" xlink:href="#arrowDown" x="0" y="0" onmousedown="handlePan(0,1)"/>
  <use id="arrowleft" xlink:href="#arrowLeft" x="0" y="0" onmousedown="handlePan(-1,0)"/>
</g>
<svg viewBox="0 0 15 15" width="100%" height="30px" preserveAspectRatio="xMaxYMin meet">
 <g id="arrow_out" transform="scale(0.3 0.3)">
  <a xlink:href="stdlib_8h_a67d27a4cb80856f44e2b5b64f0ac2c8e_icgraph_org.svg" target="_base">
   <rect id="button" ry="5" rx="5" y="6" x="6" height="38" width="38"
        fill="#f2f5e9" fill-opacity="0.5" stroke="#606060" stroke-width="1.0"/>
   <path id="arrow"
     d="M 11.500037,31.436501 C 11.940474,20.09759 22.043105,11.32322 32.158766,21.979434 L 37.068811,17.246167 C 37.068811,17.246167 37.088388,32 37.088388,32 L 22.160133,31.978069 C 22.160133,31.978069 26.997745,27.140456 26.997745,27.140456 C 18.528582,18.264221 13.291696,25.230495 11.500037,31.436501 z"
     style="fill:#404040;"/>
  </a>
 </g>
</svg>

<style type='text/css'>
<![CDATA[
[data-mouse-over-selected='false'] { opacity: 0.7; }
[data-mouse-over-selected='true']  { opacity: 1.0; }
]]>
</style>
<script type="application/ecmascript"><![CDATA[
document.addEventListener('DOMContentLoaded', (event) => {
  highlightEdges();
  highlightAdjacentNodes();
});
]]></script>
</svg>
