<?xml version="1.0" encoding="UTF-8" standalone="no"?>
<!DOCTYPE svg PUBLIC "-//W3C//DTD SVG 1.1//EN"
 "http://www.w3.org/Graphics/SVG/1.1/DTD/svg11.dtd">
<!-- Generated by graphviz version 9.0.0 (20230911.1827)
 -->
<!-- Title: sb_add_uuid Pages: 1 -->
<svg width="2316pt" height="347pt"
 viewBox="0.00 0.00 2316.25 347.02" xmlns="http://www.w3.org/2000/svg" xmlns:xlink="http://www.w3.org/1999/xlink">
<g id="graph0" class="graph" transform="scale(1 1) rotate(0) translate(4 343.02)">
<title>sb_add_uuid</title>
<!-- Node1 -->
<g id="Node000001" class="node">
<title>Node1</title>
<g id="a_Node000001"><a xlink:title=" ">
<polygon fill="#999999" stroke="#666666" points="70.75,-127.64 0,-127.64 0,-108.39 70.75,-108.39 70.75,-127.64"/>
<text text-anchor="middle" x="35.38" y="-114.14" font-family="Helvetica,sans-Serif" font-size="10.00">sb_add_uuid</text>
</a>
</g>
</g>
<!-- Node2 -->
<g id="Node000002" class="node">
<title>Node2</title>
<g id="a_Node000002"><a xlink:href="../../d6/df4/rand_8c.html#a08337aaafc569d28a4fbf707375a310b" target="_top" xlink:title=" ">
<polygon fill="white" stroke="#666666" points="171.5,-146.64 107.5,-146.64 107.5,-127.39 171.5,-127.39 171.5,-146.64"/>
<text text-anchor="middle" x="139.5" y="-133.14" font-family="Helvetica,sans-Serif" font-size="10.00">__uuid_fmt</text>
</a>
</g>
</g>
<!-- Node1&#45;&gt;Node2 -->
<g id="edge1_Node000001_Node000002" class="edge">
<title>Node1&#45;&gt;Node2</title>
<g id="a_edge1_Node000001_Node000002"><a xlink:title=" ">
<path fill="none" stroke="#63b8ff" d="M71.23,-124.5C79.26,-126 87.88,-127.6 96.18,-129.14"/>
<polygon fill="#63b8ff" stroke="#63b8ff" points="95.26,-132.53 105.73,-130.92 96.54,-125.65 95.26,-132.53"/>
</a>
</g>
</g>
<!-- Node3 -->
<g id="Node000003" class="node">
<title>Node3</title>
<g id="a_Node000003"><a xlink:href="../../dc/d31/str-buf_8h.html#a69537528c954fce98e3d2cb92232ffe8" target="_top" xlink:title=" ">
<polygon fill="white" stroke="#666666" points="172.25,-109.64 106.75,-109.64 106.75,-90.39 172.25,-90.39 172.25,-109.64"/>
<text text-anchor="middle" x="139.5" y="-96.14" font-family="Helvetica,sans-Serif" font-size="10.00">sb_growlen</text>
</a>
</g>
</g>
<!-- Node1&#45;&gt;Node3 -->
<g id="edge2_Node000001_Node000003" class="edge">
<title>Node1&#45;&gt;Node3</title>
<g id="a_edge2_Node000001_Node000003"><a xlink:title=" ">
<path fill="none" stroke="#63b8ff" d="M71.23,-111.87C79.01,-110.5 87.35,-109.03 95.41,-107.61"/>
<polygon fill="#63b8ff" stroke="#63b8ff" points="95.81,-111.1 105.05,-105.91 94.6,-104.2 95.81,-111.1"/>
</a>
</g>
</g>
<!-- Node4 -->
<g id="Node000004" class="node">
<title>Node4</title>
<g id="a_Node000004"><a xlink:href="../../dc/d31/str-buf_8h.html#a5019d1298a6a5b4f8ae0b645bb8bc627" target="_top" xlink:title=" ">
<polygon fill="white" stroke="#666666" points="272.25,-164.64 208.25,-164.64 208.25,-145.39 272.25,-145.39 272.25,-164.64"/>
<text text-anchor="middle" x="240.25" y="-151.14" font-family="Helvetica,sans-Serif" font-size="10.00">__sb_fixlen</text>
</a>
</g>
</g>
<!-- Node3&#45;&gt;Node4 -->
<g id="edge3_Node000003_Node000004" class="edge">
<title>Node3&#45;&gt;Node4</title>
<g id="a_edge3_Node000003_Node000004"><a xlink:title=" ">
<path fill="none" stroke="#63b8ff" d="M158.61,-110.1C173.37,-118.32 194.45,-130.07 211.36,-139.48"/>
<polygon fill="#63b8ff" stroke="#63b8ff" points="209.49,-142.45 219.93,-144.26 212.9,-136.33 209.49,-142.45"/>
</a>
</g>
</g>
<!-- Node6 -->
<g id="Node000006" class="node">
<title>Node6</title>
<g id="a_Node000006"><a xlink:href="../../d4/d02/str-buf_8c.html#a96e2e5252e81ed31e7071e4db76085b5" target="_top" xlink:title=" ">
<polygon fill="white" stroke="#666666" points="271.88,-109.64 208.62,-109.64 208.62,-90.39 271.88,-90.39 271.88,-109.64"/>
<text text-anchor="middle" x="240.25" y="-96.14" font-family="Helvetica,sans-Serif" font-size="10.00">__sb_grow</text>
</a>
</g>
</g>
<!-- Node3&#45;&gt;Node6 -->
<g id="edge5_Node000003_Node000006" class="edge">
<title>Node3&#45;&gt;Node6</title>
<g id="a_edge5_Node000003_Node000006"><a xlink:title=" ">
<path fill="none" stroke="#63b8ff" d="M172.56,-100.02C180.37,-100.02 188.84,-100.02 197.04,-100.02"/>
<polygon fill="#63b8ff" stroke="#63b8ff" points="196.84,-103.52 206.84,-100.02 196.84,-96.52 196.84,-103.52"/>
</a>
</g>
</g>
<!-- Node45 -->
<g id="Node000045" class="node">
<title>Node45</title>
<g id="a_Node000045"><a xlink:href="../../dc/d31/str-buf_8h.html#acd3f1b7a3fde32b199cf24fdb133b4ce" target="_top" xlink:title=" ">
<polygon fill="white" stroke="#666666" points="264,-72.64 216.5,-72.64 216.5,-53.39 264,-53.39 264,-72.64"/>
<text text-anchor="middle" x="240.25" y="-59.14" font-family="Helvetica,sans-Serif" font-size="10.00">sb_end</text>
</a>
</g>
</g>
<!-- Node3&#45;&gt;Node45 -->
<g id="edge57_Node000003_Node000045" class="edge">
<title>Node3&#45;&gt;Node45</title>
<g id="a_edge57_Node000003_Node000045"><a xlink:title=" ">
<path fill="none" stroke="#63b8ff" d="M167.48,-89.91C179.32,-85.47 193.34,-80.22 205.83,-75.54"/>
<polygon fill="#63b8ff" stroke="#63b8ff" points="206.76,-78.93 214.9,-72.14 204.31,-72.37 206.76,-78.93"/>
</a>
</g>
</g>
<!-- Node5 -->
<g id="Node000005" class="node">
<title>Node5</title>
<g id="a_Node000005"><a xlink:href="../../dc/d31/str-buf_8h.html#a01c1a4f8ed76b6a919595b803c7d7376" target="_top" xlink:title=" ">
<polygon fill="white" stroke="#666666" points="402.62,-183.64 318.38,-183.64 318.38,-164.39 402.62,-164.39 402.62,-183.64"/>
<text text-anchor="middle" x="360.5" y="-170.14" font-family="Helvetica,sans-Serif" font-size="10.00">sb_set_trailing0</text>
</a>
</g>
</g>
<!-- Node4&#45;&gt;Node5 -->
<g id="edge4_Node000004_Node000005" class="edge">
<title>Node4&#45;&gt;Node5</title>
<g id="a_edge4_Node000004_Node000005"><a xlink:title=" ">
<path fill="none" stroke="#63b8ff" d="M272.63,-160.06C283.21,-161.76 295.32,-163.7 307.07,-165.59"/>
<polygon fill="#63b8ff" stroke="#63b8ff" points="306.24,-169 316.67,-167.14 307.35,-162.09 306.24,-169"/>
</a>
</g>
</g>
<!-- Node7 -->
<g id="Node000007" class="node">
<title>Node7</title>
<g id="a_Node000007"><a xlink:href="../../d7/df8/log_8c.html#abca342edf91a9b45f7a17ef564fa8a53" target="_top" xlink:title=" ">
<polygon fill="white" stroke="#666666" points="1271,-123.64 1221.25,-123.64 1221.25,-104.39 1271,-104.39 1271,-123.64"/>
<text text-anchor="middle" x="1246.12" y="-110.14" font-family="Helvetica,sans-Serif" font-size="10.00">e_panic</text>
</a>
</g>
</g>
<!-- Node6&#45;&gt;Node7 -->
<g id="edge6_Node000006_Node000007" class="edge">
<title>Node6&#45;&gt;Node7</title>
<g id="a_edge6_Node000006_Node000007"><a xlink:title=" ">
<path fill="none" stroke="#63b8ff" d="M260.5,-89.99C264.52,-87.58 268.64,-84.87 272.25,-82.02 290.5,-67.58 288.02,-55.5 308.25,-44.02 386.28,0.25 415.54,-0.02 505.25,-0.02 505.25,-0.02 505.25,-0.02 986.38,-0.02 1081.36,-0.02 1180.57,-65.14 1223.36,-96.94"/>
<polygon fill="#63b8ff" stroke="#63b8ff" points="1221.25,-99.73 1231.33,-102.99 1225.48,-94.15 1221.25,-99.73"/>
</a>
</g>
</g>
<!-- Node31 -->
<g id="Node000031" class="node">
<title>Node31</title>
<g id="a_Node000031"><a xlink:href="../../d9/d9a/mem_8h.html#a3fd6d5b3dcb24f194848ce86f988fb13" target="_top" xlink:title=" ">
<polygon fill="white" stroke="#666666" points="388,-72.64 333,-72.64 333,-53.39 388,-53.39 388,-72.64"/>
<text text-anchor="middle" x="360.5" y="-59.14" font-family="Helvetica,sans-Serif" font-size="10.00">mp_ipool</text>
</a>
</g>
</g>
<!-- Node6&#45;&gt;Node31 -->
<g id="edge35_Node000006_Node000031" class="edge">
<title>Node6&#45;&gt;Node31</title>
<g id="a_edge35_Node000006_Node000031"><a xlink:title=" ">
<path fill="none" stroke="#63b8ff" d="M272.32,-90.3C287.55,-85.53 306.02,-79.75 322.03,-74.74"/>
<polygon fill="#63b8ff" stroke="#63b8ff" points="322.71,-78.2 331.21,-71.87 320.62,-71.52 322.71,-78.2"/>
</a>
</g>
</g>
<!-- Node32 -->
<g id="Node000032" class="node">
<title>Node32</title>
<g id="a_Node000032"><a xlink:href="../../d9/d9a/mem_8h.html#a15958df365e5c2cc90a6c0c3e7e0e74f" target="_top" xlink:title=" ">
<polygon fill="white" stroke="#666666" points="412.75,-109.64 308.25,-109.64 308.25,-90.39 412.75,-90.39 412.75,-109.64"/>
<text text-anchor="middle" x="360.5" y="-96.14" font-family="Helvetica,sans-Serif" font-size="10.00">mp_irealloc_fallback</text>
</a>
</g>
</g>
<!-- Node6&#45;&gt;Node32 -->
<g id="edge36_Node000006_Node000032" class="edge">
<title>Node6&#45;&gt;Node32</title>
<g id="a_edge36_Node000006_Node000032"><a xlink:title=" ">
<path fill="none" stroke="#63b8ff" d="M272.32,-100.02C279.85,-100.02 288.16,-100.02 296.58,-100.02"/>
<polygon fill="#63b8ff" stroke="#63b8ff" points="296.55,-103.52 306.55,-100.02 296.55,-96.52 296.55,-103.52"/>
</a>
</g>
</g>
<!-- Node44 -->
<g id="Node000044" class="node">
<title>Node44</title>
<g id="a_Node000044"><a xlink:href="../../d4/d02/str-buf_8c.html#a63ddc4121cc8fbd2d5fd2a6d65a24feb" target="_top" xlink:title=" ">
<polygon fill="white" stroke="#666666" points="403.75,-146.64 317.25,-146.64 317.25,-127.39 403.75,-127.39 403.75,-146.64"/>
<text text-anchor="middle" x="360.5" y="-133.14" font-family="Helvetica,sans-Serif" font-size="10.00">sb_destroy_skip</text>
</a>
</g>
</g>
<!-- Node6&#45;&gt;Node44 -->
<g id="edge56_Node000006_Node000044" class="edge">
<title>Node6&#45;&gt;Node44</title>
<g id="a_edge56_Node000006_Node000044"><a xlink:title=" ">
<path fill="none" stroke="#63b8ff" d="M272.32,-109.74C285.84,-113.97 301.91,-119 316.55,-123.58"/>
<polygon fill="#63b8ff" stroke="#63b8ff" points="315.37,-126.88 325.96,-126.52 317.46,-120.2 315.37,-126.88"/>
</a>
</g>
</g>
<!-- Node8 -->
<g id="Node000008" class="node">
<title>Node8</title>
<g id="a_Node000008"><a xlink:href="../../d7/df8/log_8c.html#a4bc04f7baa1e064cb0b93c7b9f3a61a1" target="_top" xlink:title=" ">
<polygon fill="white" stroke="#666666" points="1400.25,-180.64 1312.25,-180.64 1312.25,-161.39 1400.25,-161.39 1400.25,-180.64"/>
<text text-anchor="middle" x="1356.25" y="-167.14" font-family="Helvetica,sans-Serif" font-size="10.00">__logger_refresh</text>
</a>
</g>
</g>
<!-- Node7&#45;&gt;Node8 -->
<g id="edge7_Node000007_Node000008" class="edge">
<title>Node7&#45;&gt;Node8</title>
<g id="a_edge7_Node000007_Node000008"><a xlink:title=" ">
<path fill="none" stroke="#63b8ff" d="M1266.21,-124.08C1282.88,-132.87 1307.34,-145.76 1326.41,-155.81"/>
<polygon fill="#63b8ff" stroke="#63b8ff" points="1324.54,-158.79 1335.02,-160.35 1327.81,-152.59 1324.54,-158.79"/>
</a>
</g>
</g>
<!-- Node26 -->
<g id="Node000026" class="node">
<title>Node26</title>
<g id="a_Node000026"><a xlink:href="../../d7/df8/log_8c.html#a900490b26df7698aac12f7f7e6517e81" target="_top" xlink:title=" ">
<polygon fill="white" stroke="#666666" points="1389,-123.64 1323.5,-123.64 1323.5,-104.39 1389,-104.39 1389,-123.64"/>
<text text-anchor="middle" x="1356.25" y="-110.14" font-family="Helvetica,sans-Serif" font-size="10.00">logger_vlog</text>
</a>
</g>
</g>
<!-- Node7&#45;&gt;Node26 -->
<g id="edge29_Node000007_Node000026" class="edge">
<title>Node7&#45;&gt;Node26</title>
<g id="a_edge29_Node000007_Node000026"><a xlink:title=" ">
<path fill="none" stroke="#63b8ff" d="M1271.39,-114.02C1283.36,-114.02 1298.16,-114.02 1311.97,-114.02"/>
<polygon fill="#63b8ff" stroke="#63b8ff" points="1311.75,-117.52 1321.75,-114.02 1311.75,-110.52 1311.75,-117.52"/>
</a>
</g>
</g>
<!-- Node30 -->
<g id="Node000030" class="node">
<title>Node30</title>
<g id="a_Node000030"><a xlink:href="../../d2/d4d/file_8h.html#a25419a391fdd4ad7954699c58cfeb3b9" target="_top" xlink:title=" ">
<polygon fill="white" stroke="#666666" points="1381.88,-86.64 1330.62,-86.64 1330.62,-67.39 1381.88,-67.39 1381.88,-86.64"/>
<text text-anchor="middle" x="1356.25" y="-73.14" font-family="Helvetica,sans-Serif" font-size="10.00">va_start</text>
</a>
</g>
</g>
<!-- Node7&#45;&gt;Node30 -->
<g id="edge34_Node000007_Node000030" class="edge">
<title>Node7&#45;&gt;Node30</title>
<g id="a_edge34_Node000007_Node000030"><a xlink:title=" ">
<path fill="none" stroke="#63b8ff" d="M1271.39,-105.71C1285.66,-100.83 1303.95,-94.57 1319.81,-89.15"/>
<polygon fill="#63b8ff" stroke="#63b8ff" points="1320.56,-92.59 1328.88,-86.04 1318.29,-85.97 1320.56,-92.59"/>
</a>
</g>
</g>
<!-- Node9 -->
<g id="Node000009" class="node">
<title>Node9</title>
<g id="a_Node000009"><a xlink:href="../../d7/df8/log_8c.html#a3dbd75fb614210f0b114cfd03c9c0a7b" target="_top" xlink:title=" ">
<polygon fill="white" stroke="#666666" points="1540,-235.64 1436.25,-235.64 1436.25,-216.39 1540,-216.39 1540,-235.64"/>
<text text-anchor="middle" x="1488.12" y="-222.14" font-family="Helvetica,sans-Serif" font-size="10.00">__logger_do_refresh</text>
</a>
</g>
</g>
<!-- Node8&#45;&gt;Node9 -->
<g id="edge8_Node000008_Node000009" class="edge">
<title>Node8&#45;&gt;Node9</title>
<g id="a_edge8_Node000008_Node000009"><a xlink:title=" ">
<path fill="none" stroke="#63b8ff" d="M1377.14,-180.99C1392.97,-188.77 1415.79,-199.63 1436.25,-208.02 1439.59,-209.39 1443.07,-210.75 1446.58,-212.08"/>
<polygon fill="#63b8ff" stroke="#63b8ff" points="1445.07,-215.25 1455.66,-215.41 1447.48,-208.68 1445.07,-215.25"/>
</a>
</g>
</g>
<!-- Node24 -->
<g id="Node000024" class="node">
<title>Node24</title>
<g id="a_Node000024"><a xlink:href="../../d7/df8/log_8c.html#a7b1b02d1986e1247c2f571af4a2c2854" target="_top" xlink:title=" ">
<polygon fill="white" stroke="#666666" points="1525.75,-198.64 1450.5,-198.64 1450.5,-179.39 1525.75,-179.39 1525.75,-198.64"/>
<text text-anchor="middle" x="1488.12" y="-185.14" font-family="Helvetica,sans-Serif" font-size="10.00">log_spin_lock</text>
</a>
</g>
</g>
<!-- Node8&#45;&gt;Node24 -->
<g id="edge27_Node000008_Node000024" class="edge">
<title>Node8&#45;&gt;Node24</title>
<g id="a_edge27_Node000008_Node000024"><a xlink:title=" ">
<path fill="none" stroke="#63b8ff" d="M1400.5,-177.01C1412.81,-178.72 1426.3,-180.59 1438.9,-182.33"/>
<polygon fill="#63b8ff" stroke="#63b8ff" points="1438.26,-185.78 1448.65,-183.68 1439.23,-178.84 1438.26,-185.78"/>
</a>
</g>
</g>
<!-- Node25 -->
<g id="Node000025" class="node">
<title>Node25</title>
<g id="a_Node000025"><a xlink:href="../../d1/dc0/group__log.html#ga045020bb4af234632f7761f220131c69" target="_top" xlink:title=" ">
<polygon fill="white" stroke="#666666" points="1531,-161.64 1445.25,-161.64 1445.25,-142.39 1531,-142.39 1531,-161.64"/>
<text text-anchor="middle" x="1488.12" y="-148.14" font-family="Helvetica,sans-Serif" font-size="10.00">log_spin_unlock</text>
</a>
</g>
</g>
<!-- Node8&#45;&gt;Node25 -->
<g id="edge28_Node000008_Node000025" class="edge">
<title>Node8&#45;&gt;Node25</title>
<g id="a_edge28_Node000008_Node000025"><a xlink:title=" ">
<path fill="none" stroke="#63b8ff" d="M1400.5,-164.69C1411.12,-163.14 1422.62,-161.45 1433.66,-159.84"/>
<polygon fill="#63b8ff" stroke="#63b8ff" points="1434.06,-163.32 1443.45,-158.41 1433.05,-156.39 1434.06,-163.32"/>
</a>
</g>
</g>
<!-- Node9&#45;&gt;Node9 -->
<g id="edge9_Node000009_Node000009" class="edge">
<title>Node9&#45;&gt;Node9</title>
<g id="a_edge9_Node000009_Node000009"><a xlink:title=" ">
<path fill="none" stroke="#63b8ff" d="M1467.48,-235.93C1458.06,-244.54 1464.94,-253.64 1488.12,-253.64 1500.8,-253.64 1508.6,-250.92 1511.53,-247.04"/>
<polygon fill="#63b8ff" stroke="#63b8ff" points="1514.94,-246.26 1509.14,-237.4 1508.15,-247.95 1514.94,-246.26"/>
</a>
</g>
</g>
<!-- Node10 -->
<g id="Node000010" class="node">
<title>Node10</title>
<g id="a_Node000010"><a xlink:href="../../de/d1a/container-dlist_8h.html#a3b6f65860b212e28f2e28e71eb54d54d" target="_top" xlink:title="Add element e at the head of list l (suited for LIFO).">
<polygon fill="white" stroke="#666666" points="1667,-161.64 1612,-161.64 1612,-142.39 1667,-142.39 1667,-161.64"/>
<text text-anchor="middle" x="1639.5" y="-148.14" font-family="Helvetica,sans-Serif" font-size="10.00">dlist_add</text>
</a>
</g>
</g>
<!-- Node9&#45;&gt;Node10 -->
<g id="edge10_Node000009_Node000010" class="edge">
<title>Node9&#45;&gt;Node10</title>
<g id="a_edge10_Node000009_Node000010"><a xlink:title=" ">
<path fill="none" stroke="#63b8ff" d="M1524.64,-215.91C1529.99,-213.7 1535.29,-211.08 1540,-208.02 1559.51,-195.34 1556.12,-182.11 1576,-170.02 1583.51,-165.45 1592.24,-161.99 1600.74,-159.4"/>
<polygon fill="#63b8ff" stroke="#63b8ff" points="1601.47,-162.83 1610.22,-156.85 1599.65,-156.07 1601.47,-162.83"/>
</a>
</g>
</g>
<!-- Node12 -->
<g id="Node000012" class="node">
<title>Node12</title>
<g id="a_Node000012"><a xlink:href="../../de/d1a/container-dlist_8h.html#a0a69e401f6ec15966c891e96ad864c77" target="_top" xlink:title="Put a dlist_t element in a safe and detached state.">
<polygon fill="white" stroke="#666666" points="1665.5,-198.64 1613.5,-198.64 1613.5,-179.39 1665.5,-179.39 1665.5,-198.64"/>
<text text-anchor="middle" x="1639.5" y="-185.14" font-family="Helvetica,sans-Serif" font-size="10.00">dlist_init</text>
</a>
</g>
</g>
<!-- Node9&#45;&gt;Node12 -->
<g id="edge12_Node000009_Node000012" class="edge">
<title>Node9&#45;&gt;Node12</title>
<g id="a_edge12_Node000009_Node000012"><a xlink:title=" ">
<path fill="none" stroke="#63b8ff" d="M1529.94,-215.91C1552.49,-210.32 1580.27,-203.44 1602.09,-198.04"/>
<polygon fill="#63b8ff" stroke="#63b8ff" points="1602.87,-201.45 1611.73,-195.65 1601.19,-194.65 1602.87,-201.45"/>
</a>
</g>
</g>
<!-- Node13 -->
<g id="Node000013" class="node">
<title>Node13</title>
<g id="a_Node000013"><a xlink:href="../../d7/df8/log_8c.html#a4c8fbe8648573312126ce341cf34cba1" target="_top" xlink:title=" ">
<polygon fill="white" stroke="#666666" points="1703,-272.64 1576,-272.64 1576,-253.39 1703,-253.39 1703,-272.64"/>
<text text-anchor="middle" x="1639.5" y="-259.14" font-family="Helvetica,sans-Serif" font-size="10.00">logger_compute_fullname</text>
</a>
</g>
</g>
<!-- Node9&#45;&gt;Node13 -->
<g id="edge13_Node000009_Node000013" class="edge">
<title>Node9&#45;&gt;Node13</title>
<g id="a_edge13_Node000009_Node000013"><a xlink:title=" ">
<path fill="none" stroke="#63b8ff" d="M1529.94,-236.13C1547.48,-240.47 1568.18,-245.6 1586.77,-250.2"/>
<polygon fill="#63b8ff" stroke="#63b8ff" points="1585.71,-253.55 1596.26,-252.55 1587.4,-246.75 1585.71,-253.55"/>
</a>
</g>
</g>
<!-- Node16 -->
<g id="Node000016" class="node">
<title>Node16</title>
<g id="a_Node000016"><a xlink:href="../../df/d0a/str-l_8h.html#ad74dae07179370f3c22e3f026157926e" target="_top" xlink:title="wipe a lstr_t (frees memory if needed).">
<polygon fill="white" stroke="#666666" points="1810.5,-272.64 1755.5,-272.64 1755.5,-253.39 1810.5,-253.39 1810.5,-272.64"/>
<text text-anchor="middle" x="1783" y="-259.14" font-family="Helvetica,sans-Serif" font-size="10.00">lstr_wipe</text>
</a>
</g>
</g>
<!-- Node9&#45;&gt;Node16 -->
<g id="edge26_Node000009_Node000016" class="edge">
<title>Node9&#45;&gt;Node16</title>
<g id="a_edge26_Node000009_Node000016"><a xlink:title=" ">
<path fill="none" stroke="#63b8ff" d="M1499.87,-235.93C1515.33,-249.45 1545.36,-273 1576,-282.02 1632.84,-298.75 1701.98,-286.02 1743.96,-274.86"/>
<polygon fill="#63b8ff" stroke="#63b8ff" points="1744.89,-278.23 1753.58,-272.18 1743.01,-271.49 1744.89,-278.23"/>
</a>
</g>
</g>
<!-- Node23 -->
<g id="Node000023" class="node">
<title>Node23</title>
<g id="a_Node000023"><a xlink:href="../../df/d0a/str-l_8h.html#a963c22b229774d4b7c106bae4011cb8e" target="_top" xlink:title="Returns whether \v s1 and \v s2 contents are equal.">
<polygon fill="white" stroke="#666666" points="1668.5,-235.64 1610.5,-235.64 1610.5,-216.39 1668.5,-216.39 1668.5,-235.64"/>
<text text-anchor="middle" x="1639.5" y="-222.14" font-family="Helvetica,sans-Serif" font-size="10.00">lstr_equal</text>
</a>
</g>
</g>
<!-- Node9&#45;&gt;Node23 -->
<g id="edge25_Node000009_Node000023" class="edge">
<title>Node9&#45;&gt;Node23</title>
<g id="a_edge25_Node000009_Node000023"><a xlink:title=" ">
<path fill="none" stroke="#63b8ff" d="M1540.11,-226.02C1559.39,-226.02 1581.01,-226.02 1599.07,-226.02"/>
<polygon fill="#63b8ff" stroke="#63b8ff" points="1598.84,-229.52 1608.84,-226.02 1598.84,-222.52 1598.84,-229.52"/>
</a>
</g>
</g>
<!-- Node11 -->
<g id="Node000011" class="node">
<title>Node11</title>
<g id="a_Node000011"><a xlink:href="../../de/d1a/container-dlist_8h.html#a71e7667ca0e4b896923788c5851afd24" target="_top" xlink:title="Put element e between prev and next.">
<polygon fill="white" stroke="#666666" points="1815.75,-175.64 1750.25,-175.64 1750.25,-156.39 1815.75,-156.39 1815.75,-175.64"/>
<text text-anchor="middle" x="1783" y="-162.14" font-family="Helvetica,sans-Serif" font-size="10.00">__dlist_add</text>
</a>
</g>
</g>
<!-- Node10&#45;&gt;Node11 -->
<g id="edge11_Node000010_Node000011" class="edge">
<title>Node10&#45;&gt;Node11</title>
<g id="a_edge11_Node000010_Node000011"><a xlink:title=" ">
<path fill="none" stroke="#63b8ff" d="M1667.45,-154.68C1687.55,-156.67 1715.42,-159.43 1738.64,-161.73"/>
<polygon fill="#63b8ff" stroke="#63b8ff" points="1738.15,-165.2 1748.44,-162.7 1738.84,-158.23 1738.15,-165.2"/>
</a>
</g>
</g>
<!-- Node14 -->
<g id="Node000014" class="node">
<title>Node14</title>
<g id="a_Node000014"><a xlink:href="../../df/d0a/str-l_8h.html#a6a200ca09358f19b13a8e297cda34869" target="_top" xlink:title="returns a constant copy of \v s.">
<polygon fill="white" stroke="#666666" points="1810.88,-138.64 1755.12,-138.64 1755.12,-119.39 1810.88,-119.39 1810.88,-138.64"/>
<text text-anchor="middle" x="1783" y="-125.14" font-family="Helvetica,sans-Serif" font-size="10.00">lstr_dupc</text>
</a>
</g>
</g>
<!-- Node13&#45;&gt;Node14 -->
<g id="edge14_Node000013_Node000014" class="edge">
<title>Node13&#45;&gt;Node14</title>
<g id="a_edge14_Node000013_Node000014"><a xlink:title=" ">
<path fill="none" stroke="#63b8ff" d="M1691.53,-252.93C1695.7,-250.78 1699.61,-248.17 1703,-245.02 1736.96,-213.4 1706.93,-180.55 1739,-147.02 1740.77,-145.16 1742.77,-143.49 1744.9,-141.99"/>
<polygon fill="#63b8ff" stroke="#63b8ff" points="1746.53,-145.08 1753.55,-137.15 1743.12,-138.98 1746.53,-145.08"/>
</a>
</g>
</g>
<!-- Node13&#45;&gt;Node16 -->
<g id="edge16_Node000013_Node000016" class="edge">
<title>Node13&#45;&gt;Node16</title>
<g id="a_edge16_Node000013_Node000016"><a xlink:title=" ">
<path fill="none" stroke="#63b8ff" d="M1703.39,-263.02C1717.15,-263.02 1731.31,-263.02 1743.76,-263.02"/>
<polygon fill="#63b8ff" stroke="#63b8ff" points="1743.58,-266.52 1753.58,-263.02 1743.58,-259.52 1743.58,-266.52"/>
</a>
</g>
</g>
<!-- Node15 -->
<g id="Node000015" class="node">
<title>Node15</title>
<g id="a_Node000015"><a xlink:href="../../df/d0a/str-l_8h.html#a3b4dbe9c4cc70340cba0787574dc1c5e" target="_top" xlink:title=" ">
<polygon fill="white" stroke="#666666" points="2140.5,-145.64 2087.75,-145.64 2087.75,-126.39 2140.5,-126.39 2140.5,-145.64"/>
<text text-anchor="middle" x="2114.12" y="-132.14" font-family="Helvetica,sans-Serif" font-size="10.00">lstr_init_</text>
</a>
</g>
</g>
<!-- Node14&#45;&gt;Node15 -->
<g id="edge15_Node000014_Node000015" class="edge">
<title>Node14&#45;&gt;Node15</title>
<g id="a_edge15_Node000014_Node000015"><a xlink:title=" ">
<path fill="none" stroke="#63b8ff" d="M1811.21,-129.6C1870.06,-130.85 2009.19,-133.81 2076.03,-135.23"/>
<polygon fill="#63b8ff" stroke="#63b8ff" points="2075.67,-138.72 2085.74,-135.43 2075.81,-131.72 2075.67,-138.72"/>
</a>
</g>
</g>
<!-- Node17 -->
<g id="Node000017" class="node">
<title>Node17</title>
<g id="a_Node000017"><a xlink:href="../../df/d0a/str-l_8h.html#a381cd831ac9616c5bea8213bb679d1ac" target="_top" xlink:title="Wipe a lstr_t (frees memory if needed).">
<polygon fill="white" stroke="#666666" points="1936.75,-245.64 1863,-245.64 1863,-226.39 1936.75,-226.39 1936.75,-245.64"/>
<text text-anchor="middle" x="1899.88" y="-232.14" font-family="Helvetica,sans-Serif" font-size="10.00">mp_lstr_wipe</text>
</a>
</g>
</g>
<!-- Node16&#45;&gt;Node17 -->
<g id="edge17_Node000016_Node000017" class="edge">
<title>Node16&#45;&gt;Node17</title>
<g id="a_edge17_Node000016_Node000017"><a xlink:title=" ">
<path fill="none" stroke="#63b8ff" d="M1810.93,-256.69C1823.07,-253.83 1837.77,-250.38 1851.65,-247.12"/>
<polygon fill="#63b8ff" stroke="#63b8ff" points="1852.14,-250.6 1861.07,-244.9 1850.53,-243.78 1852.14,-250.6"/>
</a>
</g>
</g>
<!-- Node18 -->
<g id="Node000018" class="node">
<title>Node18</title>
<g id="a_Node000018"><a xlink:href="../../de/d04/str-l_8c.html#abe2a3a71f0b4dbc7d37c59d16762b6fb" target="_top" xlink:title="lstr_copy_* helper.">
<polygon fill="white" stroke="#666666" points="2051.75,-238.64 1972.75,-238.64 1972.75,-219.39 2051.75,-219.39 2051.75,-238.64"/>
<text text-anchor="middle" x="2012.25" y="-225.14" font-family="Helvetica,sans-Serif" font-size="10.00">mp_lstr_copy_</text>
</a>
</g>
</g>
<!-- Node17&#45;&gt;Node18 -->
<g id="edge18_Node000017_Node000018" class="edge">
<title>Node17&#45;&gt;Node18</title>
<g id="a_edge18_Node000017_Node000018"><a xlink:title=" ">
<path fill="none" stroke="#63b8ff" d="M1937.02,-233.72C1944.71,-233.24 1952.96,-232.71 1961.07,-232.2"/>
<polygon fill="#63b8ff" stroke="#63b8ff" points="1961.1,-235.7 1970.85,-231.58 1960.65,-228.72 1961.1,-235.7"/>
</a>
</g>
</g>
<!-- Node18&#45;&gt;Node15 -->
<g id="edge24_Node000018_Node000015" class="edge">
<title>Node18&#45;&gt;Node15</title>
<g id="a_edge24_Node000018_Node000015"><a xlink:title=" ">
<path fill="none" stroke="#63b8ff" d="M2023.94,-219.06C2040.68,-203.47 2073.33,-173.07 2094.14,-153.69"/>
<polygon fill="#63b8ff" stroke="#63b8ff" points="2096.47,-156.31 2101.41,-146.93 2091.7,-151.18 2096.47,-156.31"/>
</a>
</g>
</g>
<!-- Node19 -->
<g id="Node000019" class="node">
<title>Node19</title>
<g id="a_Node000019"><a xlink:href="../../d9/d9a/mem_8h.html#aebbbd277e2952bdb802104671ba23ba9" target="_top" xlink:title=" ">
<polygon fill="white" stroke="#666666" points="2131.5,-238.64 2096.75,-238.64 2096.75,-219.39 2131.5,-219.39 2131.5,-238.64"/>
<text text-anchor="middle" x="2114.12" y="-225.14" font-family="Helvetica,sans-Serif" font-size="10.00">ifree</text>
</a>
</g>
</g>
<!-- Node18&#45;&gt;Node19 -->
<g id="edge19_Node000018_Node000019" class="edge">
<title>Node18&#45;&gt;Node19</title>
<g id="a_edge19_Node000018_Node000019"><a xlink:title=" ">
<path fill="none" stroke="#63b8ff" d="M2052.15,-229.02C2063.05,-229.02 2074.7,-229.02 2084.85,-229.02"/>
<polygon fill="#63b8ff" stroke="#63b8ff" points="2084.85,-232.52 2094.85,-229.02 2084.85,-225.52 2084.85,-232.52"/>
</a>
</g>
</g>
<!-- Node20 -->
<g id="Node000020" class="node">
<title>Node20</title>
<g id="a_Node000020"><a xlink:href="../../d8/d37/mem_8blk.html#a36b65ab346f1d0deed7b63c544c78f2b" target="_top" xlink:title=" ">
<polygon fill="white" stroke="#666666" points="2221.38,-276.64 2185.12,-276.64 2185.12,-257.39 2221.38,-257.39 2221.38,-276.64"/>
<text text-anchor="middle" x="2203.25" y="-263.14" font-family="Helvetica,sans-Serif" font-size="10.00">ipool</text>
</a>
</g>
</g>
<!-- Node19&#45;&gt;Node20 -->
<g id="edge20_Node000019_Node000020" class="edge">
<title>Node19&#45;&gt;Node20</title>
<g id="a_edge20_Node000019_Node000020"><a xlink:title=" ">
<path fill="none" stroke="#63b8ff" d="M2131.92,-236.34C2143.94,-241.59 2160.4,-248.76 2174.37,-254.86"/>
<polygon fill="#63b8ff" stroke="#63b8ff" points="2172.95,-258.06 2183.52,-258.85 2175.75,-251.64 2172.95,-258.06"/>
</a>
</g>
</g>
<!-- Node22 -->
<g id="Node000022" class="node">
<title>Node22</title>
<g id="a_Node000022"><a xlink:href="../../d8/d37/mem_8blk.html#a83c7cf203e5eef9d1a8c6c43cde3e2e5" target="_top" xlink:title=" ">
<polygon fill="white" stroke="#666666" points="2230,-200.64 2176.5,-200.64 2176.5,-181.39 2230,-181.39 2230,-200.64"/>
<text text-anchor="middle" x="2203.25" y="-187.14" font-family="Helvetica,sans-Serif" font-size="10.00">mp_ifree</text>
</a>
</g>
</g>
<!-- Node19&#45;&gt;Node22 -->
<g id="edge23_Node000019_Node000022" class="edge">
<title>Node19&#45;&gt;Node22</title>
<g id="a_edge23_Node000019_Node000022"><a xlink:title=" ">
<path fill="none" stroke="#63b8ff" d="M2131.92,-221.69C2142.43,-217.11 2156.33,-211.04 2169,-205.52"/>
<polygon fill="#63b8ff" stroke="#63b8ff" points="2170.09,-208.86 2177.86,-201.66 2167.29,-202.45 2170.09,-208.86"/>
</a>
</g>
</g>
<!-- Node20&#45;&gt;Node7 -->
<g id="edge21_Node000020_Node000007" class="edge">
<title>Node20&#45;&gt;Node7</title>
<g id="a_edge21_Node000020_Node000007"><a xlink:title=" ">
<path fill="none" stroke="#63b8ff" d="M2187.31,-277.03C2156.3,-296.81 2082.07,-339.02 2013.25,-339.02 1487.12,-339.02 1487.12,-339.02 1487.12,-339.02 1427.04,-339.02 1303.6,-187.03 1261.54,-132.89"/>
<polygon fill="#63b8ff" stroke="#63b8ff" points="1264.46,-130.95 1255.59,-125.17 1258.92,-135.23 1264.46,-130.95"/>
</a>
</g>
</g>
<!-- Node21 -->
<g id="Node000021" class="node">
<title>Node21</title>
<g id="a_Node000021"><a xlink:href="../../d1/d10/mem-stack_8h.html#a1d0e2a29f86dc033a02e50484b527fd0" target="_top" xlink:title=" ">
<polygon fill="white" stroke="#666666" points="2308.25,-276.64 2266,-276.64 2266,-257.39 2308.25,-257.39 2308.25,-276.64"/>
<text text-anchor="middle" x="2287.12" y="-263.14" font-family="Helvetica,sans-Serif" font-size="10.00">t_pool</text>
</a>
</g>
</g>
<!-- Node20&#45;&gt;Node21 -->
<g id="edge22_Node000020_Node000021" class="edge">
<title>Node20&#45;&gt;Node21</title>
<g id="a_edge22_Node000020_Node000021"><a xlink:title=" ">
<path fill="none" stroke="#63b8ff" d="M2221.61,-267.02C2231.06,-267.02 2243.04,-267.02 2254.11,-267.02"/>
<polygon fill="#63b8ff" stroke="#63b8ff" points="2254.09,-270.52 2264.09,-267.02 2254.09,-263.52 2254.09,-270.52"/>
</a>
</g>
</g>
<!-- Node26&#45;&gt;Node14 -->
<g id="edge33_Node000026_Node000014" class="edge">
<title>Node26&#45;&gt;Node14</title>
<g id="a_edge33_Node000026_Node000014"><a xlink:title=" ">
<path fill="none" stroke="#63b8ff" d="M1389.18,-115.14C1465.86,-117.85 1660.2,-124.72 1743.33,-127.65"/>
<polygon fill="#63b8ff" stroke="#63b8ff" points="1743.13,-131.15 1753.24,-128 1743.37,-124.15 1743.13,-131.15"/>
</a>
</g>
</g>
<!-- Node27 -->
<g id="Node000027" class="node">
<title>Node27</title>
<g id="a_Node000027"><a xlink:href="../../d1/dc0/group__log.html#ga168a6f17b248f61f7d25a17d58d04e36" target="_top" xlink:title=" ">
<polygon fill="white" stroke="#666666" points="1532.5,-85.64 1443.75,-85.64 1443.75,-66.39 1532.5,-66.39 1532.5,-85.64"/>
<text text-anchor="middle" x="1488.12" y="-72.14" font-family="Helvetica,sans-Serif" font-size="10.00">logger_has_level</text>
</a>
</g>
</g>
<!-- Node26&#45;&gt;Node27 -->
<g id="edge30_Node000026_Node000027" class="edge">
<title>Node26&#45;&gt;Node27</title>
<g id="a_edge30_Node000026_Node000027"><a xlink:title=" ">
<path fill="none" stroke="#63b8ff" d="M1389.35,-104.62C1405.13,-100.01 1424.41,-94.37 1441.67,-89.32"/>
<polygon fill="#63b8ff" stroke="#63b8ff" points="1442.59,-92.69 1451.21,-86.53 1440.63,-85.97 1442.59,-92.69"/>
</a>
</g>
</g>
<!-- Node28 -->
<g id="Node000028" class="node">
<title>Node28</title>
<g id="a_Node000028"><a xlink:href="../../d1/dc0/group__log.html#gaf388752b988541da0abeceecdf96e6b3" target="_top" xlink:title=" ">
<polygon fill="white" stroke="#666666" points="1682.75,-85.64 1596.25,-85.64 1596.25,-66.39 1682.75,-66.39 1682.75,-85.64"/>
<text text-anchor="middle" x="1639.5" y="-72.14" font-family="Helvetica,sans-Serif" font-size="10.00">logger_get_level</text>
</a>
</g>
</g>
<!-- Node27&#45;&gt;Node28 -->
<g id="edge31_Node000027_Node000028" class="edge">
<title>Node27&#45;&gt;Node28</title>
<g id="a_edge31_Node000027_Node000028"><a xlink:title=" ">
<path fill="none" stroke="#63b8ff" d="M1532.73,-76.02C1548.89,-76.02 1567.42,-76.02 1584.4,-76.02"/>
<polygon fill="#63b8ff" stroke="#63b8ff" points="1584.36,-79.52 1594.36,-76.02 1584.36,-72.52 1584.36,-79.52"/>
</a>
</g>
</g>
<!-- Node29 -->
<g id="Node000029" class="node">
<title>Node29</title>
<g id="a_Node000029"><a xlink:href="../../d1/dc0/group__log.html#ga93cbd623096e1704532d15b3eb30e42f" target="_top" xlink:title=" ">
<polygon fill="white" stroke="#666666" points="1827,-85.64 1739,-85.64 1739,-66.39 1827,-66.39 1827,-85.64"/>
<text text-anchor="middle" x="1783" y="-72.14" font-family="Helvetica,sans-Serif" font-size="10.00">__logger_refresh</text>
</a>
</g>
</g>
<!-- Node28&#45;&gt;Node29 -->
<g id="edge32_Node000028_Node000029" class="edge">
<title>Node28&#45;&gt;Node29</title>
<g id="a_edge32_Node000028_Node000029"><a xlink:title=" ">
<path fill="none" stroke="#63b8ff" d="M1682.95,-76.02C1696.83,-76.02 1712.44,-76.02 1727.1,-76.02"/>
<polygon fill="#63b8ff" stroke="#63b8ff" points="1727.08,-79.52 1737.08,-76.02 1727.08,-72.52 1727.08,-79.52"/>
</a>
</g>
</g>
<!-- Node33 -->
<g id="Node000033" class="node">
<title>Node33</title>
<g id="a_Node000033"><a xlink:href="../../d8/d37/mem_8blk.html#a2fa974dc4e9f038e5bc400eb689b74b4" target="_top" xlink:title=" ">
<polygon fill="white" stroke="#666666" points="563.75,-109.64 448.75,-109.64 448.75,-90.39 563.75,-90.39 563.75,-109.64"/>
<text text-anchor="middle" x="506.25" y="-96.14" font-family="Helvetica,sans-Serif" font-size="10.00">__mp_irealloc_fallback</text>
</a>
</g>
</g>
<!-- Node32&#45;&gt;Node33 -->
<g id="edge37_Node000032_Node000033" class="edge">
<title>Node32&#45;&gt;Node33</title>
<g id="a_edge37_Node000032_Node000033"><a xlink:title=" ">
<path fill="none" stroke="#63b8ff" d="M412.99,-100.02C420.77,-100.02 428.89,-100.02 436.95,-100.02"/>
<polygon fill="#63b8ff" stroke="#63b8ff" points="436.75,-103.52 446.75,-100.02 436.75,-96.52 436.75,-103.52"/>
</a>
</g>
</g>
<!-- Node39 -->
<g id="Node000039" class="node">
<title>Node39</title>
<g id="a_Node000039"><a xlink:href="../../d9/d9a/mem_8h.html#ae99e17ad0b27e94e8a00c8af9734a0e7" target="_top" xlink:title=" ">
<polygon fill="white" stroke="#666666" points="1041.75,-274.64 929,-274.64 929,-255.39 1041.75,-255.39 1041.75,-274.64"/>
<text text-anchor="middle" x="985.38" y="-261.14" font-family="Helvetica,sans-Serif" font-size="10.00">icheck_alloc_constant</text>
</a>
</g>
</g>
<!-- Node32&#45;&gt;Node39 -->
<g id="edge55_Node000032_Node000039" class="edge">
<title>Node32&#45;&gt;Node39</title>
<g id="a_edge55_Node000032_Node000039"><a xlink:title=" ">
<path fill="none" stroke="#63b8ff" d="M395.63,-110.04C401.51,-112.31 407.43,-114.97 412.75,-118.02 523.26,-181.27 504.17,-303.02 631.5,-303.02 631.5,-303.02 631.5,-303.02 740.25,-303.02 807.7,-303.02 884.4,-288.68 933.53,-277.62"/>
<polygon fill="#63b8ff" stroke="#63b8ff" points="934.06,-281.09 943.02,-275.44 932.49,-274.27 934.06,-281.09"/>
</a>
</g>
</g>
<!-- Node33&#45;&gt;Node22 -->
<g id="edge40_Node000033_Node000022" class="edge">
<title>Node33&#45;&gt;Node22</title>
<g id="a_edge40_Node000033_Node000022"><a xlink:title=" ">
<path fill="none" stroke="#63b8ff" d="M529.34,-89.92C569.86,-72.35 659.15,-38.02 738.25,-38.02 738.25,-38.02 738.25,-38.02 2013.25,-38.02 2096.96,-38.02 2164.38,-129.8 2190.53,-171.19"/>
<polygon fill="#63b8ff" stroke="#63b8ff" points="2187.52,-172.99 2195.74,-179.69 2193.49,-169.33 2187.52,-172.99"/>
</a>
</g>
</g>
<!-- Node34 -->
<g id="Node000034" class="node">
<title>Node34</title>
<g id="a_Node000034"><a xlink:href="../../d8/d37/mem_8blk.html#a8e4fbf6500e65079c31e3fd933ae7dc1" target="_top" xlink:title=" ">
<polygon fill="white" stroke="#666666" points="1163.88,-123.64 1093.88,-123.64 1093.88,-104.39 1163.88,-104.39 1163.88,-123.64"/>
<text text-anchor="middle" x="1128.88" y="-110.14" font-family="Helvetica,sans-Serif" font-size="10.00">icheck_alloc</text>
</a>
</g>
</g>
<!-- Node33&#45;&gt;Node34 -->
<g id="edge38_Node000033_Node000034" class="edge">
<title>Node33&#45;&gt;Node34</title>
<g id="a_edge38_Node000033_Node000034"><a xlink:title=" ">
<path fill="none" stroke="#63b8ff" d="M564.04,-90.81C610.69,-84.04 678.58,-76.02 738.25,-76.02 738.25,-76.02 738.25,-76.02 854.12,-76.02 935.04,-76.02 1028.13,-92.5 1082.25,-103.76"/>
<polygon fill="#63b8ff" stroke="#63b8ff" points="1081.53,-107.18 1092.04,-105.83 1082.98,-100.33 1081.53,-107.18"/>
</a>
</g>
</g>
<!-- Node35 -->
<g id="Node000035" class="node">
<title>Node35</title>
<g id="a_Node000035"><a xlink:href="../../d9/d9a/mem_8h.html#ada6bb9661f0c10ccaa14d231c24aeafd" target="_top" xlink:title=" ">
<polygon fill="white" stroke="#666666" points="885.88,-161.64 820.38,-161.64 820.38,-142.39 885.88,-142.39 885.88,-161.64"/>
<text text-anchor="middle" x="853.12" y="-148.14" font-family="Helvetica,sans-Serif" font-size="10.00">mp_imalloc</text>
</a>
</g>
</g>
<!-- Node33&#45;&gt;Node35 -->
<g id="edge41_Node000033_Node000035" class="edge">
<title>Node33&#45;&gt;Node35</title>
<g id="a_edge41_Node000033_Node000035"><a xlink:title=" ">
<path fill="none" stroke="#63b8ff" d="M564.2,-108.6C632.86,-118.96 746.72,-136.12 808.69,-145.47"/>
<polygon fill="#63b8ff" stroke="#63b8ff" points="808.09,-148.92 818.5,-146.95 809.14,-142 808.09,-148.92"/>
</a>
</g>
</g>
<!-- Node41 -->
<g id="Node000041" class="node">
<title>Node41</title>
<g id="a_Node000041"><a xlink:href="../../d9/d9a/mem_8h.html#aabfb5bf96a257374cbc245548b81c4ff" target="_top" xlink:title=" ">
<polygon fill="white" stroke="#666666" points="665.25,-180.64 599.75,-180.64 599.75,-161.39 665.25,-161.39 665.25,-180.64"/>
<text text-anchor="middle" x="632.5" y="-167.14" font-family="Helvetica,sans-Serif" font-size="10.00">mp_irealloc</text>
</a>
</g>
</g>
<!-- Node33&#45;&gt;Node41 -->
<g id="edge48_Node000033_Node000041" class="edge">
<title>Node33&#45;&gt;Node41</title>
<g id="a_edge48_Node000033_Node000041"><a xlink:title=" ">
<path fill="none" stroke="#63b8ff" d="M524.79,-110.04C545.42,-121.83 579.91,-141.53 604.08,-155.35"/>
<polygon fill="#63b8ff" stroke="#63b8ff" points="602.32,-158.37 612.74,-160.3 605.79,-152.29 602.32,-158.37"/>
</a>
</g>
</g>
<!-- Node34&#45;&gt;Node7 -->
<g id="edge39_Node000034_Node000007" class="edge">
<title>Node34&#45;&gt;Node7</title>
<g id="a_edge39_Node000034_Node000007"><a xlink:title=" ">
<path fill="none" stroke="#63b8ff" d="M1164.14,-114.02C1178.59,-114.02 1195.4,-114.02 1209.95,-114.02"/>
<polygon fill="#63b8ff" stroke="#63b8ff" points="1209.53,-117.52 1219.53,-114.02 1209.53,-110.52 1209.53,-117.52"/>
</a>
</g>
</g>
<!-- Node36 -->
<g id="Node000036" class="node">
<title>Node36</title>
<g id="a_Node000036"><a xlink:href="../../d8/d37/mem_8blk.html#a5666a1403bcf2bd8e114c23f8021d1ac" target="_top" xlink:title=" ">
<polygon fill="white" stroke="#666666" points="1023.38,-161.64 947.38,-161.64 947.38,-142.39 1023.38,-142.39 1023.38,-161.64"/>
<text text-anchor="middle" x="985.38" y="-148.14" font-family="Helvetica,sans-Serif" font-size="10.00">__mp_imalloc</text>
</a>
</g>
</g>
<!-- Node35&#45;&gt;Node36 -->
<g id="edge42_Node000035_Node000036" class="edge">
<title>Node35&#45;&gt;Node36</title>
<g id="a_edge42_Node000035_Node000036"><a xlink:title=" ">
<path fill="none" stroke="#63b8ff" d="M886.32,-152.02C901.26,-152.02 919.33,-152.02 935.86,-152.02"/>
<polygon fill="#63b8ff" stroke="#63b8ff" points="935.5,-155.52 945.5,-152.02 935.5,-148.52 935.5,-155.52"/>
</a>
</g>
</g>
<!-- Node35&#45;&gt;Node39 -->
<g id="edge46_Node000035_Node000039" class="edge">
<title>Node35&#45;&gt;Node39</title>
<g id="a_edge46_Node000035_Node000039"><a xlink:title=" ">
<path fill="none" stroke="#63b8ff" d="M879.57,-162.13C884.21,-164.44 888.88,-167.08 893,-170.02 923.89,-192.03 953.08,-225.36 969.83,-246.13"/>
<polygon fill="#63b8ff" stroke="#63b8ff" points="966.92,-248.09 975.87,-253.77 972.41,-243.75 966.92,-248.09"/>
</a>
</g>
</g>
<!-- Node36&#45;&gt;Node34 -->
<g id="edge43_Node000036_Node000034" class="edge">
<title>Node36&#45;&gt;Node34</title>
<g id="a_edge43_Node000036_Node000034"><a xlink:title=" ">
<path fill="none" stroke="#63b8ff" d="M1023.55,-142.03C1041.76,-137.14 1063.83,-131.22 1082.97,-126.08"/>
<polygon fill="#63b8ff" stroke="#63b8ff" points="1083.64,-129.52 1092.39,-123.55 1081.83,-122.76 1083.64,-129.52"/>
</a>
</g>
</g>
<!-- Node37 -->
<g id="Node000037" class="node">
<title>Node37</title>
<g id="a_Node000037"><a xlink:href="../../d9/d9a/mem_8h.html#af42ab5c21de0c723b2a55403e5441fda" target="_top" xlink:title=" ">
<polygon fill="white" stroke="#666666" points="1168.38,-198.64 1089.38,-198.64 1089.38,-179.39 1168.38,-179.39 1168.38,-198.64"/>
<text text-anchor="middle" x="1128.88" y="-185.14" font-family="Helvetica,sans-Serif" font-size="10.00">mem_bit_align</text>
</a>
</g>
</g>
<!-- Node36&#45;&gt;Node37 -->
<g id="edge44_Node000036_Node000037" class="edge">
<title>Node36&#45;&gt;Node37</title>
<g id="a_edge44_Node000036_Node000037"><a xlink:title=" ">
<path fill="none" stroke="#63b8ff" d="M1023.55,-161.74C1040.37,-166.14 1060.48,-171.39 1078.54,-176.12"/>
<polygon fill="#63b8ff" stroke="#63b8ff" points="1077.44,-179.45 1088,-178.59 1079.21,-172.67 1077.44,-179.45"/>
</a>
</g>
</g>
<!-- Node38 -->
<g id="Node000038" class="node">
<title>Node38</title>
<g id="a_Node000038"><a xlink:href="../../d8/d96/bithacks_8h.html#ab80588fa9f8b9e766249edaf70558bdc" target="_top" xlink:title=" ">
<polygon fill="white" stroke="#666666" points="1276.25,-198.64 1216,-198.64 1216,-179.39 1276.25,-179.39 1276.25,-198.64"/>
<text text-anchor="middle" x="1246.12" y="-185.14" font-family="Helvetica,sans-Serif" font-size="10.00">bitcountsz</text>
</a>
</g>
</g>
<!-- Node37&#45;&gt;Node38 -->
<g id="edge45_Node000037_Node000038" class="edge">
<title>Node37&#45;&gt;Node38</title>
<g id="a_edge45_Node000037_Node000038"><a xlink:title=" ">
<path fill="none" stroke="#63b8ff" d="M1168.57,-189.02C1180.15,-189.02 1192.87,-189.02 1204.56,-189.02"/>
<polygon fill="#63b8ff" stroke="#63b8ff" points="1204.31,-192.52 1214.31,-189.02 1204.31,-185.52 1204.31,-192.52"/>
</a>
</g>
</g>
<!-- Node40 -->
<g id="Node000040" class="node">
<title>Node40</title>
<g id="a_Node000040"><a xlink:href="../../d8/d37/mem_8blk.html#a377e36d6fbaf3ee7f1b217559cb0c850" target="_top" xlink:title=" ">
<polygon fill="white" stroke="#666666" points="1180,-274.64 1077.75,-274.64 1077.75,-255.39 1180,-255.39 1180,-274.64"/>
<text text-anchor="middle" x="1128.88" y="-261.14" font-family="Helvetica,sans-Serif" font-size="10.00">__imalloc_too_large</text>
</a>
</g>
</g>
<!-- Node39&#45;&gt;Node40 -->
<g id="edge47_Node000039_Node000040" class="edge">
<title>Node39&#45;&gt;Node40</title>
<g id="a_edge47_Node000039_Node000040"><a xlink:title=" ">
<path fill="none" stroke="#63b8ff" d="M1041.89,-265.02C1049.89,-265.02 1058.16,-265.02 1066.27,-265.02"/>
<polygon fill="#63b8ff" stroke="#63b8ff" points="1066.07,-268.52 1076.07,-265.02 1066.07,-261.52 1066.07,-268.52"/>
</a>
</g>
</g>
<!-- Node41&#45;&gt;Node39 -->
<g id="edge54_Node000041_Node000039" class="edge">
<title>Node41&#45;&gt;Node39</title>
<g id="a_edge54_Node000041_Node000039"><a xlink:title=" ">
<path fill="none" stroke="#63b8ff" d="M663.17,-181.1C698.63,-192.95 759.87,-212.8 813.25,-227.02 849.16,-236.58 889.74,-245.66 922.37,-252.55"/>
<polygon fill="#63b8ff" stroke="#63b8ff" points="921.58,-255.96 932.08,-254.58 923.01,-249.11 921.58,-255.96"/>
</a>
</g>
</g>
<!-- Node42 -->
<g id="Node000042" class="node">
<title>Node42</title>
<g id="a_Node000042"><a xlink:href="../../d8/d37/mem_8blk.html#aa4f4b48947d5dfb44c0897f6024ba16e" target="_top" xlink:title=" ">
<polygon fill="white" stroke="#666666" points="777.25,-180.64 701.25,-180.64 701.25,-161.39 777.25,-161.39 777.25,-180.64"/>
<text text-anchor="middle" x="739.25" y="-167.14" font-family="Helvetica,sans-Serif" font-size="10.00">__mp_irealloc</text>
</a>
</g>
</g>
<!-- Node41&#45;&gt;Node42 -->
<g id="edge49_Node000041_Node000042" class="edge">
<title>Node41&#45;&gt;Node42</title>
<g id="a_edge49_Node000041_Node000042"><a xlink:title=" ">
<path fill="none" stroke="#63b8ff" d="M665.5,-171.02C673.1,-171.02 681.39,-171.02 689.56,-171.02"/>
<polygon fill="#63b8ff" stroke="#63b8ff" points="689.42,-174.52 699.42,-171.02 689.42,-167.52 689.42,-174.52"/>
</a>
</g>
</g>
<!-- Node42&#45;&gt;Node34 -->
<g id="edge50_Node000042_Node000034" class="edge">
<title>Node42&#45;&gt;Node34</title>
<g id="a_edge50_Node000042_Node000034"><a xlink:title=" ">
<path fill="none" stroke="#63b8ff" d="M754.86,-161.05C769.07,-151.94 791.63,-139 813.25,-133.02 906.15,-107.29 1020.16,-107.97 1082.25,-110.9"/>
<polygon fill="#63b8ff" stroke="#63b8ff" points="1081.91,-114.39 1092.08,-111.41 1082.27,-107.4 1081.91,-114.39"/>
</a>
</g>
</g>
<!-- Node42&#45;&gt;Node35 -->
<g id="edge53_Node000042_Node000035" class="edge">
<title>Node42&#45;&gt;Node35</title>
<g id="a_edge53_Node000042_Node000035"><a xlink:title=" ">
<path fill="none" stroke="#63b8ff" d="M777.5,-164.69C787.48,-163 798.35,-161.15 808.63,-159.4"/>
<polygon fill="#63b8ff" stroke="#63b8ff" points="809.14,-162.87 818.41,-157.74 807.97,-155.97 809.14,-162.87"/>
</a>
</g>
</g>
<!-- Node42&#45;&gt;Node37 -->
<g id="edge52_Node000042_Node000037" class="edge">
<title>Node42&#45;&gt;Node37</title>
<g id="a_edge52_Node000042_Node000037"><a xlink:title=" ">
<path fill="none" stroke="#63b8ff" d="M754.82,-181.01C769.01,-190.09 791.55,-202.83 813.25,-208.02 904.69,-229.87 1015.1,-213.83 1077.84,-200.92"/>
<polygon fill="#63b8ff" stroke="#63b8ff" points="1078.45,-204.37 1087.5,-198.87 1076.99,-197.52 1078.45,-204.37"/>
</a>
</g>
</g>
<!-- Node43 -->
<g id="Node000043" class="node">
<title>Node43</title>
<g id="a_Node000043"><a xlink:href="../../d9/d9a/mem_8h.html#a97bf9c8331ed73f6c120224fb5e9a8b6" target="_top" xlink:title=" ">
<polygon fill="white" stroke="#666666" points="893,-198.64 813.25,-198.64 813.25,-179.39 893,-179.39 893,-198.64"/>
<text text-anchor="middle" x="853.12" y="-185.14" font-family="Helvetica,sans-Serif" font-size="10.00">mem_align_ptr</text>
</a>
</g>
</g>
<!-- Node42&#45;&gt;Node43 -->
<g id="edge51_Node000042_Node000043" class="edge">
<title>Node42&#45;&gt;Node43</title>
<g id="a_edge51_Node000042_Node000043"><a xlink:title=" ">
<path fill="none" stroke="#63b8ff" d="M777.5,-177.01C785.28,-178.26 793.6,-179.6 801.76,-180.91"/>
<polygon fill="#63b8ff" stroke="#63b8ff" points="801.2,-184.37 811.62,-182.5 802.31,-177.46 801.2,-184.37"/>
</a>
</g>
</g>
</g>
</svg>
