<?xml version="1.0" encoding="UTF-8" standalone="no"?>
<!DOCTYPE svg PUBLIC "-//W3C//DTD SVG 1.1//EN"
 "http://www.w3.org/Graphics/SVG/1.1/DTD/svg11.dtd">
<!-- Generated by graphviz version 9.0.0 (20230911.1827)
 -->
<!-- Title: errors.c Pages: 1 -->
<svg width="534pt" height="83pt"
 viewBox="0.00 0.00 533.75 82.50" xmlns="http://www.w3.org/2000/svg" xmlns:xlink="http://www.w3.org/1999/xlink">
<g id="graph0" class="graph" transform="scale(1 1) rotate(0) translate(4 78.5)">
<title>errors.c</title>
<!-- Node1 -->
<g id="Node000001" class="node">
<title>Node1</title>
<g id="a_Node000001"><a xlink:title=" ">
<polygon fill="#999999" stroke="#666666" points="283.88,-74.5 235.62,-74.5 235.62,-55.25 283.88,-55.25 283.88,-74.5"/>
<text text-anchor="middle" x="259.75" y="-61" font-family="Helvetica,sans-Serif" font-size="10.00">errors.c</text>
</a>
</g>
</g>
<!-- Node2 -->
<g id="Node000002" class="node">
<title>Node2</title>
<g id="a_Node000002"><a xlink:title=" ">
<polygon fill="#e0e0e0" stroke="#999999" points="59.5,-19.25 0,-19.25 0,0 59.5,0 59.5,-19.25"/>
<text text-anchor="middle" x="29.75" y="-5.75" font-family="Helvetica,sans-Serif" font-size="10.00">execinfo.h</text>
</a>
</g>
</g>
<!-- Node1&#45;&gt;Node2 -->
<g id="edge1_Node000001_Node000002" class="edge">
<title>Node1&#45;&gt;Node2</title>
<g id="a_edge1_Node000001_Node000002"><a xlink:title=" ">
<path fill="none" stroke="#63b8ff" d="M235.14,-58.18C195.95,-49.1 118.95,-31.28 71.17,-20.21"/>
<polygon fill="#63b8ff" stroke="#63b8ff" points="71.99,-16.81 61.46,-17.97 70.41,-23.63 71.99,-16.81"/>
</a>
</g>
</g>
<!-- Node3 -->
<g id="Node000003" class="node">
<title>Node3</title>
<g id="a_Node000003"><a xlink:title=" ">
<polygon fill="#e0e0e0" stroke="#999999" points="194,-19.25 77.5,-19.25 77.5,0 194,0 194,-19.25"/>
<text text-anchor="middle" x="135.75" y="-5.75" font-family="Helvetica,sans-Serif" font-size="10.00">lib&#45;common/container.h</text>
</a>
</g>
</g>
<!-- Node1&#45;&gt;Node3 -->
<g id="edge2_Node000001_Node000003" class="edge">
<title>Node1&#45;&gt;Node3</title>
<g id="a_edge2_Node000001_Node000003"><a xlink:title=" ">
<path fill="none" stroke="#63b8ff" d="M238.72,-54.84C219.12,-46.43 189.64,-33.77 167.24,-24.15"/>
<polygon fill="#63b8ff" stroke="#63b8ff" points="168.85,-21.03 158.28,-20.3 166.09,-27.46 168.85,-21.03"/>
</a>
</g>
</g>
<!-- Node4 -->
<g id="Node000004" class="node">
<title>Node4</title>
<g id="a_Node000004"><a xlink:title=" ">
<polygon fill="#e0e0e0" stroke="#999999" points="307.5,-19.25 212,-19.25 212,0 307.5,0 307.5,-19.25"/>
<text text-anchor="middle" x="259.75" y="-5.75" font-family="Helvetica,sans-Serif" font-size="10.00">lib&#45;common/core.h</text>
</a>
</g>
</g>
<!-- Node1&#45;&gt;Node4 -->
<g id="edge3_Node000001_Node000004" class="edge">
<title>Node1&#45;&gt;Node4</title>
<g id="a_edge3_Node000001_Node000004"><a xlink:title=" ">
<path fill="none" stroke="#63b8ff" d="M259.75,-55.08C259.75,-48.57 259.75,-39.42 259.75,-31.12"/>
<polygon fill="#63b8ff" stroke="#63b8ff" points="263.25,-31.12 259.75,-21.12 256.25,-31.12 263.25,-31.12"/>
</a>
</g>
</g>
<!-- Node5 -->
<g id="Node000005" class="node">
<title>Node5</title>
<g id="a_Node000005"><a xlink:title=" ">
<polygon fill="#e0e0e0" stroke="#999999" points="413.75,-19.25 325.75,-19.25 325.75,0 413.75,0 413.75,-19.25"/>
<text text-anchor="middle" x="369.75" y="-5.75" font-family="Helvetica,sans-Serif" font-size="10.00">lib&#45;common/thr.h</text>
</a>
</g>
</g>
<!-- Node1&#45;&gt;Node5 -->
<g id="edge4_Node000001_Node000005" class="edge">
<title>Node1&#45;&gt;Node5</title>
<g id="a_edge4_Node000001_Node000005"><a xlink:title=" ">
<path fill="none" stroke="#63b8ff" d="M278.41,-54.84C295.48,-46.58 320.99,-34.23 340.72,-24.68"/>
<polygon fill="#63b8ff" stroke="#63b8ff" points="342.16,-27.87 349.64,-20.36 339.11,-21.57 342.16,-27.87"/>
</a>
</g>
</g>
<!-- Node6 -->
<g id="Node000006" class="node">
<title>Node6</title>
<g id="a_Node000006"><a xlink:title=" ">
<polygon fill="#e0e0e0" stroke="#999999" points="525.75,-19.25 431.75,-19.25 431.75,0 525.75,0 525.75,-19.25"/>
<text text-anchor="middle" x="478.75" y="-5.75" font-family="Helvetica,sans-Serif" font-size="10.00">lib&#45;common/unix.h</text>
</a>
</g>
</g>
<!-- Node1&#45;&gt;Node6 -->
<g id="edge5_Node000001_Node000006" class="edge">
<title>Node1&#45;&gt;Node6</title>
<g id="a_edge5_Node000001_Node000006"><a xlink:title=" ">
<path fill="none" stroke="#63b8ff" d="M284.02,-57.97C319.24,-49.41 385.23,-33.37 430.55,-22.35"/>
<polygon fill="#63b8ff" stroke="#63b8ff" points="431.23,-25.78 440.12,-20.02 429.58,-18.98 431.23,-25.78"/>
</a>
</g>
</g>
</g>
</svg>
