<?xml version="1.0" encoding="UTF-8" standalone="no"?>
<!DOCTYPE svg PUBLIC "-//W3C//DTD SVG 1.1//EN"
 "http://www.w3.org/Graphics/SVG/1.1/DTD/svg11.dtd">
<!-- Generated by graphviz version 9.0.0 (20230911.1827)
 -->
<!-- Title: unpack_union Pages: 1 -->
<!--zoomable 152 -->

<svg id="main" version="1.1" xmlns="http://www.w3.org/2000/svg" xmlns:xlink="http://www.w3.org/1999/xlink" xml:space="preserve" onload="init(evt)">
<style type="text/css"><![CDATA[
.node, .edge {opacity: 0.7;}
.node.selected, .edge.selected {opacity: 1;}
.edge:hover path { stroke: red; }
.edge:hover polygon { stroke: red; fill: red; }
]]></style>

<defs>
  <circle id="rim" cx="0" cy="0" r="7"/>
  <circle id="rim2" cx="0" cy="0" r="3.5"/>
  <g id="zoomPlus">
    <use xlink:href="#rim" fill="#404040"><set attributeName="fill" to="#808080" begin="zoomplus.mouseover" end="zoomplus.mouseout"/></use>
    <path d="M-4,0h8M0,-4v8" fill="none" stroke="white" stroke-width="1.5" pointer-events="none"/>
  </g>
  <g id="zoomMin">
    <use xlink:href="#rim" fill="#404040"><set attributeName="fill" to="#808080" begin="zoomminus.mouseover" end="zoomminus.mouseout"/></use>
    <path d="M-4,0h8" fill="none" stroke="white" stroke-width="1.5" pointer-events="none"/>
  </g>
  <g id="arrowUp" transform="translate(30 24)">
    <use xlink:href="#rim"/>
    <path pointer-events="none" fill="none" stroke="white" stroke-width="1.5" d="M0,-3.0v7 M-2.5,-0.5L0,-3.0L2.5,-0.5"/>
  </g>
  <g id="arrowRight" transform="rotate(90) translate(36 -43)">
    <use xlink:href="#rim"/>
    <path pointer-events="none" fill="none" stroke="white" stroke-width="1.5" d="M0,-3.0v7 M-2.5,-0.5L0,-3.0L2.5,-0.5"/>
  </g>
  <g id="arrowDown" transform="rotate(180) translate(-30 -48)">
    <use xlink:href="#rim"/>
    <path pointer-events="none" fill="none" stroke="white" stroke-width="1.5" d="M0,-3.0v7 M-2.5,-0.5L0,-3.0L2.5,-0.5"/>
  </g>
  <g id="arrowLeft" transform="rotate(270) translate(-36 17)">
    <use xlink:href="#rim"/>
    <path pointer-events="none" fill="none" stroke="white" stroke-width="1.5" d="M0,-3.0v7 M-2.5,-0.5L0,-3.0L2.5,-0.5"/>
  </g>
  <g id="resetDef">
    <use xlink:href="#rim2" fill="#404040"><set attributeName="fill" to="#808080" begin="reset.mouseover" end="reset.mouseout"/></use>
  </g>
</defs>
<script type="application/ecmascript">
var viewWidth = 510;
var viewHeight = 152;
var sectionId = 'dynsection-104';
</script>
<script type="application/ecmascript" xlink:href="../../svg.min.js"/>
<svg id="graph" class="graph">
<g id="viewport">
<title>unpack_union</title>
<!-- Node1 -->
<g id="Node000001" class="node">
<title>Node1</title>
<g id="a_Node000001"><a xlink:title=" ">
<polygon fill="#999999" stroke="#666666" points="501.5,-50.29 425.5,-50.29 425.5,-31.04 501.5,-31.04 501.5,-50.29"/>
<text text-anchor="middle" x="463.5" y="-36.79" font-family="Helvetica,sans-Serif" font-size="10.00">unpack_union</text>
</a>
</g>
</g>
<!-- Node1&#45;&gt;Node1 -->
<g id="edge17_Node000001_Node000001" class="edge">
<title>Node1&#45;&gt;Node1</title>
<g id="a_edge17_Node000001_Node000001"><a xlink:title=" ">
<path fill="none" stroke="#63b8ff" d="M481.25,-61.7C479.03,-65.57 473.11,-68.29 463.5,-68.29 445.92,-68.29 440.7,-59.19 447.84,-50.58"/>
<polygon fill="#63b8ff" stroke="#63b8ff" points="484.73,-61.25 479.44,-52.07 477.85,-62.54 484.73,-61.25"/>
</a>
</g>
</g>
<!-- Node2 -->
<g id="Node000002" class="node">
<title>Node2</title>
<g id="a_Node000002"><a xlink:href="../../da/d15/json_8blk.html#a15830199ba94987c87edfef60871591c" target="_top" xlink:title=" ">
<polygon fill="white" stroke="#666666" points="188,-144.29 120.25,-144.29 120.25,-125.04 188,-125.04 188,-144.29"/>
<text text-anchor="middle" x="154.12" y="-130.79" font-family="Helvetica,sans-Serif" font-size="10.00">iop_junpack</text>
</a>
</g>
</g>
<!-- Node1&#45;&gt;Node2 -->
<g id="edge1_Node000001_Node000002" class="edge">
<title>Node1&#45;&gt;Node2</title>
<g id="a_edge1_Node000001_Node000002"><a xlink:title=" ">
<path fill="none" stroke="#63b8ff" d="M418.96,-53.99C356.64,-73.04 243.43,-107.66 187.78,-124.68"/>
<polygon fill="#63b8ff" stroke="#63b8ff" points="419.62,-57.44 428.16,-51.17 417.57,-50.75 419.62,-57.44"/>
</a>
</g>
</g>
<!-- Node4 -->
<g id="Node000004" class="node">
<title>Node4</title>
<g id="a_Node000004"><a xlink:href="../../da/d15/json_8blk.html#ac3e2708e183ae06d065ec3d9f5b6efe6" target="_top" xlink:title=" ">
<polygon fill="white" stroke="#666666" points="389.5,-50.29 337.5,-50.29 337.5,-31.04 389.5,-31.04 389.5,-50.29"/>
<text text-anchor="middle" x="363.5" y="-36.79" font-family="Helvetica,sans-Serif" font-size="10.00">skip_val</text>
</a>
</g>
</g>
<!-- Node1&#45;&gt;Node4 -->
<g id="edge3_Node000001_Node000004" class="edge">
<title>Node1&#45;&gt;Node4</title>
<g id="a_edge3_Node000001_Node000004"><a xlink:title=" ">
<path fill="none" stroke="#63b8ff" d="M413.93,-33.92C405.61,-33.91 397.27,-34.16 389.88,-34.67"/>
<polygon fill="#63b8ff" stroke="#63b8ff" points="413.6,-37.41 423.66,-34.07 413.71,-30.42 413.6,-37.41"/>
</a>
</g>
</g>
<!-- Node6 -->
<g id="Node000006" class="node">
<title>Node6</title>
<g id="a_Node000006"><a xlink:href="../../da/d15/json_8blk.html#a6c0ea4d53fbd6a0f997bac5dbc305e8d" target="_top" xlink:title=" ">
<polygon fill="white" stroke="#666666" points="186.88,-32.29 121.38,-32.29 121.38,-13.04 186.88,-13.04 186.88,-32.29"/>
<text text-anchor="middle" x="154.12" y="-18.79" font-family="Helvetica,sans-Serif" font-size="10.00">unpack_val</text>
</a>
</g>
</g>
<!-- Node1&#45;&gt;Node6 -->
<g id="edge18_Node000001_Node000006" class="edge">
<title>Node1&#45;&gt;Node6</title>
<g id="a_edge18_Node000001_Node000006"><a xlink:title=" ">
<path fill="none" stroke="#63b8ff" d="M440.38,-26.26C426,-20.85 406.79,-15.78 389.5,-12.67 317,0.39 297.47,1.64 224,-3.67 205.68,-4.99 184.84,-8.27 170.92,-12.6"/>
<polygon fill="#63b8ff" stroke="#63b8ff" points="438.77,-29.39 449.34,-30.06 441.5,-22.94 438.77,-29.39"/>
</a>
</g>
</g>
<!-- Node3 -->
<g id="Node000003" class="node">
<title>Node3</title>
<g id="a_Node000003"><a xlink:href="../../da/d15/json_8blk.html#a95647e5808c60fc30643e189b80fafc4" target="_top" xlink:title=" ">
<polygon fill="white" stroke="#666666" points="84.25,-144.29 0,-144.29 0,-125.04 84.25,-125.04 84.25,-144.29"/>
<text text-anchor="middle" x="42.12" y="-130.79" font-family="Helvetica,sans-Serif" font-size="10.00">iop_junpack_ptr</text>
</a>
</g>
</g>
<!-- Node2&#45;&gt;Node3 -->
<g id="edge2_Node000002_Node000003" class="edge">
<title>Node2&#45;&gt;Node3</title>
<g id="a_edge2_Node000002_Node000003"><a xlink:title=" ">
<path fill="none" stroke="#63b8ff" d="M108.49,-134.67C100.56,-134.67 92.32,-134.67 84.49,-134.67"/>
<polygon fill="#63b8ff" stroke="#63b8ff" points="108.31,-138.17 118.31,-134.67 108.31,-131.17 108.31,-138.17"/>
</a>
</g>
</g>
<!-- Node4&#45;&gt;Node1 -->
<g id="edge15_Node000004_Node000001" class="edge">
<title>Node4&#45;&gt;Node1</title>
<g id="a_edge15_Node000004_Node000001"><a xlink:title=" ">
<path fill="none" stroke="#63b8ff" d="M401.28,-47.23C409.09,-47.48 417.34,-47.48 425.17,-47.25"/>
<polygon fill="#63b8ff" stroke="#63b8ff" points="401.55,-43.74 391.39,-46.74 401.2,-50.73 401.55,-43.74"/>
</a>
</g>
</g>
<!-- Node5 -->
<g id="Node000005" class="node">
<title>Node5</title>
<g id="a_Node000005"><a xlink:href="../../da/d15/json_8blk.html#a9d7093d9643fe6a219c97bb34534d8ac" target="_top" xlink:title="Unpack a JSON array into a C array.">
<polygon fill="white" stroke="#666666" points="74.12,-65.29 10.12,-65.29 10.12,-46.04 74.12,-46.04 74.12,-65.29"/>
<text text-anchor="middle" x="42.12" y="-51.79" font-family="Helvetica,sans-Serif" font-size="10.00">unpack_arr</text>
</a>
</g>
</g>
<!-- Node4&#45;&gt;Node5 -->
<g id="edge4_Node000004_Node000005" class="edge">
<title>Node4&#45;&gt;Node5</title>
<g id="a_edge4_Node000004_Node000005"><a xlink:title=" ">
<path fill="none" stroke="#63b8ff" d="M326.18,-45.16C318.15,-47.32 309.62,-49.43 301.5,-50.67 220.34,-63.02 123.18,-55.67 74.37,-53.76"/>
<polygon fill="#63b8ff" stroke="#63b8ff" points="326.91,-48.59 335.62,-42.57 325.05,-41.84 326.91,-48.59"/>
</a>
</g>
</g>
<!-- Node4&#45;&gt;Node6 -->
<g id="edge16_Node000004_Node000006" class="edge">
<title>Node4&#45;&gt;Node6</title>
<g id="a_edge16_Node000004_Node000006"><a xlink:title=" ">
<path fill="none" stroke="#63b8ff" d="M326.18,-27.39C318.15,-25.02 309.62,-22.9 301.5,-21.67 262.56,-15.74 217.11,-17.36 187.31,-19.56"/>
<polygon fill="#63b8ff" stroke="#63b8ff" points="325.05,-30.71 335.64,-30.41 327.17,-24.04 325.05,-30.71"/>
</a>
</g>
</g>
<!-- Node7 -->
<g id="Node000007" class="node">
<title>Node7</title>
<g id="a_Node000007"><a xlink:href="../../da/d15/json_8blk.html#a27e7b54c13f1ef6ca370923cd8cdc4ab" target="_top" xlink:title="Unpack a json struct into a C struct.">
<polygon fill="white" stroke="#666666" points="301.5,-50.29 224,-50.29 224,-31.04 301.5,-31.04 301.5,-50.29"/>
<text text-anchor="middle" x="262.75" y="-36.79" font-family="Helvetica,sans-Serif" font-size="10.00">unpack_struct</text>
</a>
</g>
</g>
<!-- Node4&#45;&gt;Node7 -->
<g id="edge14_Node000004_Node000007" class="edge">
<title>Node4&#45;&gt;Node7</title>
<g id="a_edge14_Node000004_Node000007"><a xlink:title=" ">
<path fill="none" stroke="#63b8ff" d="M325.68,-34.12C317.87,-33.87 309.62,-33.85 301.77,-34.08"/>
<polygon fill="#63b8ff" stroke="#63b8ff" points="325.4,-37.61 335.56,-34.61 325.74,-30.62 325.4,-37.61"/>
</a>
</g>
</g>
<!-- Node5&#45;&gt;Node4 -->
<g id="edge5_Node000005_Node000004" class="edge">
<title>Node5&#45;&gt;Node4</title>
<g id="a_edge5_Node000005_Node000004"><a xlink:title=" ">
<path fill="none" stroke="#63b8ff" d="M85.69,-67C137.14,-74.63 226.2,-80.12 301.5,-68.67 320.58,-65.77 341.9,-58.03 353.61,-50.55"/>
<polygon fill="#63b8ff" stroke="#63b8ff" points="86.29,-63.55 75.87,-65.42 85.19,-70.46 86.29,-63.55"/>
</a>
</g>
</g>
<!-- Node5&#45;&gt;Node6 -->
<g id="edge6_Node000005_Node000006" class="edge">
<title>Node5&#45;&gt;Node6</title>
<g id="a_edge6_Node000005_Node000006"><a xlink:title=" ">
<path fill="none" stroke="#63b8ff" d="M85.26,-49.61C103.1,-44.73 122.85,-38.28 136.42,-32.69"/>
<polygon fill="#63b8ff" stroke="#63b8ff" points="84.44,-46.21 75.65,-52.12 86.21,-52.98 84.44,-46.21"/>
</a>
</g>
</g>
<!-- Node6&#45;&gt;Node1 -->
<g id="edge12_Node000006_Node000001" class="edge">
<title>Node6&#45;&gt;Node1</title>
<g id="a_edge12_Node000006_Node000001"><a xlink:title=" ">
<path fill="none" stroke="#63b8ff" d="M198.47,-24.23C206.91,-23.27 215.71,-22.27 224,-21.67 297.47,-16.36 317,-17.61 389.5,-30.67 401.23,-32.78 413.84,-35.79 425.23,-38.39"/>
<polygon fill="#63b8ff" stroke="#63b8ff" points="198.31,-20.73 188.76,-25.32 199.09,-27.68 198.31,-20.73"/>
</a>
</g>
</g>
<!-- Node6&#45;&gt;Node5 -->
<g id="edge7_Node000006_Node000005" class="edge">
<title>Node6&#45;&gt;Node5</title>
<g id="a_edge7_Node000006_Node000005"><a xlink:title=" ">
<path fill="none" stroke="#63b8ff" d="M110.06,-28.98C92.47,-33.83 73.16,-40.16 59.82,-45.65"/>
<polygon fill="#63b8ff" stroke="#63b8ff" points="110.77,-32.41 119.55,-26.49 108.99,-25.64 110.77,-32.41"/>
</a>
</g>
</g>
<!-- Node6&#45;&gt;Node6 -->
<g id="edge13_Node000006_Node000006" class="edge">
<title>Node6&#45;&gt;Node6</title>
<g id="a_edge13_Node000006_Node000006"><a xlink:title=" ">
<path fill="none" stroke="#63b8ff" d="M173.41,-43.7C170.99,-47.57 164.57,-50.29 154.12,-50.29 135.03,-50.29 129.36,-41.19 137.12,-32.58"/>
<polygon fill="#63b8ff" stroke="#63b8ff" points="176.87,-43.16 171.43,-34.06 170.01,-44.56 176.87,-43.16"/>
</a>
</g>
</g>
<!-- Node6&#45;&gt;Node7 -->
<g id="edge8_Node000006_Node000007" class="edge">
<title>Node6&#45;&gt;Node7</title>
<g id="a_edge8_Node000006_Node000007"><a xlink:title=" ">
<path fill="none" stroke="#63b8ff" d="M191.56,-35.26C201.88,-37.39 213.14,-39.31 223.56,-40.72"/>
<polygon fill="#63b8ff" stroke="#63b8ff" points="192.4,-31.86 181.88,-33.11 190.88,-38.69 192.4,-31.86"/>
</a>
</g>
</g>
<!-- Node7&#45;&gt;Node2 -->
<g id="edge9_Node000007_Node000002" class="edge">
<title>Node7&#45;&gt;Node2</title>
<g id="a_edge9_Node000007_Node000002"><a xlink:title=" ">
<path fill="none" stroke="#63b8ff" d="M241.98,-58.1C219.76,-77.69 184.44,-108.83 166.45,-124.68"/>
<polygon fill="#63b8ff" stroke="#63b8ff" points="244.02,-60.97 249.2,-51.73 239.39,-55.72 244.02,-60.97"/>
</a>
</g>
</g>
<!-- Node7&#45;&gt;Node4 -->
<g id="edge10_Node000007_Node000004" class="edge">
<title>Node7&#45;&gt;Node4</title>
<g id="a_edge10_Node000007_Node000004"><a xlink:title=" ">
<path fill="none" stroke="#63b8ff" d="M313.03,-47.42C321.35,-47.42 329.68,-47.17 337.07,-46.66"/>
<polygon fill="#63b8ff" stroke="#63b8ff" points="313.33,-43.92 303.28,-47.28 313.23,-50.92 313.33,-43.92"/>
</a>
</g>
</g>
<!-- Node7&#45;&gt;Node6 -->
<g id="edge11_Node000007_Node000006" class="edge">
<title>Node7&#45;&gt;Node6</title>
<g id="a_edge11_Node000007_Node000006"><a xlink:title=" ">
<path fill="none" stroke="#63b8ff" d="M225.52,-28.12C213.05,-25.54 199.2,-23.26 187.1,-21.82"/>
<polygon fill="#63b8ff" stroke="#63b8ff" points="224.48,-31.47 235,-30.23 226,-24.64 224.48,-31.47"/>
</a>
</g>
</g>
</g>
</svg>

<g id="navigator" transform="translate(0 0)" fill="#404254">
  <rect fill="#f2f5e9" fill-opacity="0.5" stroke="#606060" stroke-width=".5" x="0" y="0" width="60" height="60"/>
  <use id="zoomplus" xlink:href="#zoomPlus" x="17" y="9" onmousedown="handleZoom(evt,'in')"/>
  <use id="zoomminus" xlink:href="#zoomMin" x="42" y="9" onmousedown="handleZoom(evt,'out')"/>
  <use id="reset" xlink:href="#resetDef" x="30" y="36" onmousedown="handleReset()"/>
   <use id="arrowup" xlink:href="#arrowUp" x="0" y="0" onmousedown="handlePan(0,-1)"/>
  <use id="arrowright" xlink:href="#arrowRight" x="0" y="0" onmousedown="handlePan(1,0)"/>
  <use id="arrowdown" xlink:href="#arrowDown" x="0" y="0" onmousedown="handlePan(0,1)"/>
  <use id="arrowleft" xlink:href="#arrowLeft" x="0" y="0" onmousedown="handlePan(-1,0)"/>
</g>
<svg viewBox="0 0 15 15" width="100%" height="30px" preserveAspectRatio="xMaxYMin meet">
 <g id="arrow_out" transform="scale(0.3 0.3)">
  <a xlink:href="json_8blk_a35e658b504c6ad782a36fe53356cb57d_icgraph_org.svg" target="_base">
   <rect id="button" ry="5" rx="5" y="6" x="6" height="38" width="38"
        fill="#f2f5e9" fill-opacity="0.5" stroke="#606060" stroke-width="1.0"/>
   <path id="arrow"
     d="M 11.500037,31.436501 C 11.940474,20.09759 22.043105,11.32322 32.158766,21.979434 L 37.068811,17.246167 C 37.068811,17.246167 37.088388,32 37.088388,32 L 22.160133,31.978069 C 22.160133,31.978069 26.997745,27.140456 26.997745,27.140456 C 18.528582,18.264221 13.291696,25.230495 11.500037,31.436501 z"
     style="fill:#404040;"/>
  </a>
 </g>
</svg>

<style type='text/css'>
<![CDATA[
[data-mouse-over-selected='false'] { opacity: 0.7; }
[data-mouse-over-selected='true']  { opacity: 1.0; }
]]>
</style>
<script type="application/ecmascript"><![CDATA[
document.addEventListener('DOMContentLoaded', (event) => {
  highlightEdges();
  highlightAdjacentNodes();
});
]]></script>
</svg>
