<?xml version="1.0" encoding="UTF-8" standalone="no"?>
<!DOCTYPE svg PUBLIC "-//W3C//DTD SVG 1.1//EN"
 "http://www.w3.org/Graphics/SVG/1.1/DTD/svg11.dtd">
<!-- Generated by graphviz version 9.0.0 (20230911.1827)
 -->
<!-- Title: qhat_wipe_dispatch_node Pages: 1 -->
<svg width="265pt" height="101pt"
 viewBox="0.00 0.00 265.00 101.25" xmlns="http://www.w3.org/2000/svg" xmlns:xlink="http://www.w3.org/1999/xlink">

<svg id="main" version="1.1" xmlns="http://www.w3.org/2000/svg" xmlns:xlink="http://www.w3.org/1999/xlink" xml:space="preserve" onload="init(evt)">
<style type="text/css"><![CDATA[
.node, .edge {opacity: 0.7;}
.node.selected, .edge.selected {opacity: 1;}
.edge:hover path { stroke: red; }
.edge:hover polygon { stroke: red; fill: red; }
]]></style>
<script type="application/ecmascript" xlink:href="../../svg.min.js"/>
<svg id="graph" class="graph">
<g id="graph0" class="graph" transform="scale(1 1) rotate(0) translate(4 97.25)">
<title>qhat_wipe_dispatch_node</title>
<!-- Node1 -->
<g id="Node000001" class="node">
<title>Node1</title>
<g id="a_Node000001"><a xlink:title=" ">
<polygon fill="#999999" stroke="#666666" points="257,-56.25 128.5,-56.25 128.5,-37 257,-37 257,-56.25"/>
<text text-anchor="middle" x="192.75" y="-42.75" font-family="Helvetica,sans-Serif" font-size="10.00">qhat_wipe_dispatch_node</text>
</a>
</g>
</g>
<!-- Node2 -->
<g id="Node000002" class="node">
<title>Node2</title>
<g id="a_Node000002"><a xlink:href="../../d3/d0d/group__qkv____ll____hat.html#ga18233af65d543adc2921b880d40afcc1" target="_top" xlink:title=" ">
<polygon fill="white" stroke="#666666" points="76.75,-93.25 15.75,-93.25 15.75,-74 76.75,-74 76.75,-93.25"/>
<text text-anchor="middle" x="46.25" y="-79.75" font-family="Helvetica,sans-Serif" font-size="10.00">qhat_clear</text>
</a>
</g>
</g>
<!-- Node1&#45;&gt;Node2 -->
<g id="edge1_Node000001_Node000002" class="edge">
<title>Node1&#45;&gt;Node2</title>
<g id="a_edge1_Node000001_Node000002"><a xlink:title=" ">
<path fill="none" stroke="#63b8ff" d="M141.35,-59.53C119.89,-65.03 95.59,-71.25 77.06,-75.99"/>
<polygon fill="#63b8ff" stroke="#63b8ff" points="141.98,-62.98 150.8,-57.11 140.24,-56.2 141.98,-62.98"/>
</a>
</g>
</g>
<!-- Node3 -->
<g id="Node000003" class="node">
<title>Node3</title>
<g id="a_Node000003"><a xlink:href="../../d3/d0d/group__qkv____ll____hat.html#ga4285e92d6de3e8dc01b71bac8715c844" target="_top" xlink:title=" ">
<polygon fill="white" stroke="#666666" points="92.5,-56.25 0,-56.25 0,-37 92.5,-37 92.5,-56.25"/>
<text text-anchor="middle" x="46.25" y="-42.75" font-family="Helvetica,sans-Serif" font-size="10.00">qhat_delete_node</text>
</a>
</g>
</g>
<!-- Node1&#45;&gt;Node3 -->
<g id="edge2_Node000001_Node000003" class="edge">
<title>Node1&#45;&gt;Node3</title>
<g id="a_edge2_Node000001_Node000003"><a xlink:title=" ">
<path fill="none" stroke="#63b8ff" d="M117.08,-39.88C108.79,-39.9 100.55,-40.04 92.78,-40.3"/>
<polygon fill="#63b8ff" stroke="#63b8ff" points="116.84,-43.38 126.86,-39.91 116.87,-36.38 116.84,-43.38"/>
</a>
</g>
</g>
<!-- Node4 -->
<g id="Node000004" class="node">
<title>Node4</title>
<g id="a_Node000004"><a xlink:href="../../d3/d0d/group__qkv____ll____hat.html#ga768af957731da9f5e498e17e923dd2b1" target="_top" xlink:title=" ">
<polygon fill="white" stroke="#666666" points="82,-19.25 10.5,-19.25 10.5,0 82,0 82,-19.25"/>
<text text-anchor="middle" x="46.25" y="-5.75" font-family="Helvetica,sans-Serif" font-size="10.00">qhat_destroy</text>
</a>
</g>
</g>
<!-- Node1&#45;&gt;Node4 -->
<g id="edge4_Node000001_Node000004" class="edge">
<title>Node1&#45;&gt;Node4</title>
<g id="a_edge4_Node000001_Node000004"><a xlink:title=" ">
<path fill="none" stroke="#63b8ff" d="M141.13,-33.66C121.67,-28.68 99.92,-23.11 82.25,-18.59"/>
<polygon fill="#63b8ff" stroke="#63b8ff" points="140.24,-37.05 150.8,-36.14 141.98,-30.27 140.24,-37.05"/>
</a>
</g>
</g>
<!-- Node3&#45;&gt;Node1 -->
<g id="edge3_Node000003_Node000001" class="edge">
<title>Node3&#45;&gt;Node1</title>
<g id="a_edge3_Node000003_Node000001"><a xlink:title=" ">
<path fill="none" stroke="#63b8ff" d="M104.18,-53.24C112.12,-53.38 120.32,-53.41 128.37,-53.33"/>
<polygon fill="#63b8ff" stroke="#63b8ff" points="104.38,-49.74 94.29,-52.99 104.2,-56.74 104.38,-49.74"/>
</a>
</g>
</g>
</g>
</svg>
</svg>

<style type='text/css'>
<![CDATA[
[data-mouse-over-selected='false'] { opacity: 0.7; }
[data-mouse-over-selected='true']  { opacity: 1.0; }
]]>
</style>
<script type="application/ecmascript"><![CDATA[
document.addEventListener('DOMContentLoaded', (event) => {
  highlightEdges();
  highlightAdjacentNodes();
});
]]></script>
</svg>
