<?xml version="1.0" encoding="UTF-8" standalone="no"?>
<!DOCTYPE svg PUBLIC "-//W3C//DTD SVG 1.1//EN"
 "http://www.w3.org/Graphics/SVG/1.1/DTD/svg11.dtd">
<!-- Generated by graphviz version 9.0.0 (20230911.1827)
 -->
<!-- Title: qhat_get_dispatch_nodes Pages: 1 -->
<svg width="277pt" height="64pt"
 viewBox="0.00 0.00 277.00 64.25" xmlns="http://www.w3.org/2000/svg" xmlns:xlink="http://www.w3.org/1999/xlink">
<g id="graph0" class="graph" transform="scale(1 1) rotate(0) translate(4 60.25)">
<title>qhat_get_dispatch_nodes</title>
<!-- Node1 -->
<g id="Node000001" class="node">
<title>Node1</title>
<g id="a_Node000001"><a xlink:title=" ">
<polygon fill="#999999" stroke="#666666" points="269,-56.25 142,-56.25 142,-37 269,-37 269,-56.25"/>
<text text-anchor="middle" x="205.5" y="-42.75" font-family="Helvetica,sans-Serif" font-size="10.00">qhat_get_dispatch_nodes</text>
</a>
</g>
</g>
<!-- Node2 -->
<g id="Node000002" class="node">
<title>Node2</title>
<g id="a_Node000002"><a xlink:href="../../d3/d0d/group__qkv____ll____hat.html#ga96d627efea8e1c71dfc4111cf7693ad6" target="_top" xlink:title=" ">
<polygon fill="white" stroke="#666666" points="106,-56.25 0,-56.25 0,-37 106,-37 106,-56.25"/>
<text text-anchor="middle" x="53" y="-42.75" font-family="Helvetica,sans-Serif" font-size="10.00">qhat_get_qps_nodes</text>
</a>
</g>
</g>
<!-- Node1&#45;&gt;Node2 -->
<g id="edge1_Node000001_Node000002" class="edge">
<title>Node1&#45;&gt;Node2</title>
<g id="a_edge1_Node000001_Node000002"><a xlink:title=" ">
<path fill="none" stroke="#63b8ff" d="M130.16,-39.88C122.07,-39.87 113.97,-39.96 106.22,-40.16"/>
<polygon fill="#63b8ff" stroke="#63b8ff" points="130.01,-43.37 140.03,-39.95 130.06,-36.37 130.01,-43.37"/>
</a>
</g>
</g>
<!-- Node3 -->
<g id="Node000003" class="node">
<title>Node3</title>
<g id="a_Node000003"><a xlink:href="../../d3/d0d/group__qkv____ll____hat.html#ga97c9ddb0f19f3695e1489ac96764af1e" target="_top" xlink:title=" ">
<polygon fill="white" stroke="#666666" points="103.75,-19.25 2.25,-19.25 2.25,0 103.75,0 103.75,-19.25"/>
<text text-anchor="middle" x="53" y="-5.75" font-family="Helvetica,sans-Serif" font-size="10.00">qhat_get_qps_roots</text>
</a>
</g>
</g>
<!-- Node1&#45;&gt;Node3 -->
<g id="edge3_Node000001_Node000003" class="edge">
<title>Node1&#45;&gt;Node3</title>
<g id="a_edge3_Node000001_Node000003"><a xlink:title=" ">
<path fill="none" stroke="#63b8ff" d="M152.33,-33.8C133.59,-29.19 112.74,-24.07 95.08,-19.72"/>
<polygon fill="#63b8ff" stroke="#63b8ff" points="151.36,-37.16 161.91,-36.15 153.03,-30.37 151.36,-37.16"/>
</a>
</g>
</g>
<!-- Node2&#45;&gt;Node1 -->
<g id="edge2_Node000002_Node000001" class="edge">
<title>Node2&#45;&gt;Node1</title>
<g id="a_edge2_Node000002_Node000001"><a xlink:title=" ">
<path fill="none" stroke="#63b8ff" d="M117.65,-53.3C125.56,-53.4 133.65,-53.4 141.55,-53.29"/>
<polygon fill="#63b8ff" stroke="#63b8ff" points="117.8,-49.81 107.74,-53.11 117.67,-56.8 117.8,-49.81"/>
</a>
</g>
</g>
</g>
</svg>
