<?xml version="1.0" encoding="UTF-8" standalone="no"?>
<!DOCTYPE svg PUBLIC "-//W3C//DTD SVG 1.1//EN"
 "http://www.w3.org/Graphics/SVG/1.1/DTD/svg11.dtd">
<!-- Generated by graphviz version 9.0.0 (20230911.1827)
 -->
<!-- Title: qhat_leaf_is_full Pages: 1 -->
<svg width="600pt" height="27pt"
 viewBox="0.00 0.00 600.25 27.25" xmlns="http://www.w3.org/2000/svg" xmlns:xlink="http://www.w3.org/1999/xlink">
<g id="graph0" class="graph" transform="scale(1 1) rotate(0) translate(4 23.25)">
<title>qhat_leaf_is_full</title>
<!-- Node1 -->
<g id="Node000001" class="node">
<title>Node1</title>
<g id="a_Node000001"><a xlink:title=" ">
<polygon fill="#999999" stroke="#666666" points="86.5,-19.25 0,-19.25 0,0 86.5,0 86.5,-19.25"/>
<text text-anchor="middle" x="43.25" y="-5.75" font-family="Helvetica,sans-Serif" font-size="10.00">qhat_leaf_is_full</text>
</a>
</g>
</g>
<!-- Node2 -->
<g id="Node000002" class="node">
<title>Node2</title>
<g id="a_Node000002"><a xlink:href="../../d3/d0d/group__qkv____ll____hat.html#gad953a23007d74b8c94748061aab900f6" target="_top" xlink:title=" ">
<polygon fill="white" stroke="#666666" points="210.5,-19.25 122.5,-19.25 122.5,0 210.5,0 210.5,-19.25"/>
<text text-anchor="middle" x="166.5" y="-5.75" font-family="Helvetica,sans-Serif" font-size="10.00">qhat_node_deref</text>
</a>
</g>
</g>
<!-- Node1&#45;&gt;Node2 -->
<g id="edge1_Node000001_Node000002" class="edge">
<title>Node1&#45;&gt;Node2</title>
<g id="a_edge1_Node000001_Node000002"><a xlink:title=" ">
<path fill="none" stroke="#63b8ff" d="M87,-9.62C94.78,-9.62 103,-9.62 111.07,-9.62"/>
<polygon fill="#63b8ff" stroke="#63b8ff" points="110.81,-13.13 120.81,-9.63 110.81,-6.13 110.81,-13.13"/>
</a>
</g>
</g>
<!-- Node3 -->
<g id="Node000003" class="node">
<title>Node3</title>
<g id="a_Node000003"><a xlink:href="../../d3/d0d/group__qkv____ll____hat.html#gac5c1c66a7aa14f0b04f73c999244fa18" target="_top" xlink:title=" ">
<polygon fill="white" stroke="#666666" points="339.75,-19.25 246.5,-19.25 246.5,0 339.75,0 339.75,-19.25"/>
<text text-anchor="middle" x="293.12" y="-5.75" font-family="Helvetica,sans-Serif" font-size="10.00">qhat_node_deref_</text>
</a>
</g>
</g>
<!-- Node2&#45;&gt;Node3 -->
<g id="edge2_Node000002_Node000003" class="edge">
<title>Node2&#45;&gt;Node3</title>
<g id="a_edge2_Node000002_Node000003"><a xlink:title=" ">
<path fill="none" stroke="#63b8ff" d="M210.74,-9.62C218.57,-9.62 226.86,-9.62 235.02,-9.62"/>
<polygon fill="#63b8ff" stroke="#63b8ff" points="234.91,-13.13 244.91,-9.63 234.91,-6.13 234.91,-13.13"/>
</a>
</g>
</g>
<!-- Node4 -->
<g id="Node000004" class="node">
<title>Node4</title>
<g id="a_Node000004"><a xlink:href="../../d3/d0d/group__qkv____ll____hat.html#ga5ad0540efb0ed54f282ff91c9a6bff03" target="_top" xlink:title=" ">
<polygon fill="white" stroke="#666666" points="481.75,-19.25 375.75,-19.25 375.75,0 481.75,0 481.75,-19.25"/>
<text text-anchor="middle" x="428.75" y="-5.75" font-family="Helvetica,sans-Serif" font-size="10.00">qhat_node_w_deref_</text>
</a>
</g>
</g>
<!-- Node3&#45;&gt;Node4 -->
<g id="edge3_Node000003_Node000004" class="edge">
<title>Node3&#45;&gt;Node4</title>
<g id="a_edge3_Node000003_Node000004"><a xlink:title=" ">
<path fill="none" stroke="#63b8ff" d="M340.11,-9.62C347.81,-9.62 355.91,-9.62 363.96,-9.62"/>
<polygon fill="#63b8ff" stroke="#63b8ff" points="363.74,-13.13 373.74,-9.63 363.74,-6.13 363.74,-13.13"/>
</a>
</g>
</g>
<!-- Node5 -->
<g id="Node000005" class="node">
<title>Node5</title>
<g id="a_Node000005"><a xlink:href="../../d4/d36/group__qkv____ll____qps.html#ga84180dfcbb44d7244b1ec0b81022e09c" target="_top" xlink:title=" ">
<polygon fill="white" stroke="#666666" points="592.25,-19.25 517.75,-19.25 517.75,0 592.25,0 592.25,-19.25"/>
<text text-anchor="middle" x="555" y="-5.75" font-family="Helvetica,sans-Serif" font-size="10.00">qps_pg_deref</text>
</a>
</g>
</g>
<!-- Node4&#45;&gt;Node5 -->
<g id="edge4_Node000004_Node000005" class="edge">
<title>Node4&#45;&gt;Node5</title>
<g id="a_edge4_Node000004_Node000005"><a xlink:title=" ">
<path fill="none" stroke="#63b8ff" d="M482.08,-9.62C490.1,-9.62 498.35,-9.62 506.26,-9.62"/>
<polygon fill="#63b8ff" stroke="#63b8ff" points="506.04,-13.13 516.04,-9.63 506.04,-6.13 506.04,-13.13"/>
</a>
</g>
</g>
</g>
</svg>
