<?xml version="1.0" encoding="UTF-8" standalone="no"?>
<!DOCTYPE svg PUBLIC "-//W3C//DTD SVG 1.1//EN"
 "http://www.w3.org/Graphics/SVG/1.1/DTD/svg11.dtd">
<!-- Generated by graphviz version 9.0.0 (20230911.1827)
 -->
<!-- Title: qhat_get_tree_enumerator_at Pages: 1 -->
<svg width="460pt" height="64pt"
 viewBox="0.00 0.00 459.50 64.25" xmlns="http://www.w3.org/2000/svg" xmlns:xlink="http://www.w3.org/1999/xlink">
<g id="graph0" class="graph" transform="scale(1 1) rotate(0) translate(4 60.25)">
<title>qhat_get_tree_enumerator_at</title>
<!-- Node1 -->
<g id="Node000001" class="node">
<title>Node1</title>
<g id="a_Node000001"><a xlink:title=" ">
<polygon fill="#999999" stroke="#666666" points="451.5,-37.25 308.75,-37.25 308.75,-18 451.5,-18 451.5,-37.25"/>
<text text-anchor="middle" x="380.12" y="-23.75" font-family="Helvetica,sans-Serif" font-size="10.00">qhat_get_tree_enumerator_at</text>
</a>
</g>
</g>
<!-- Node2 -->
<g id="Node000002" class="node">
<title>Node2</title>
<g id="a_Node000002"><a xlink:href="../../d3/d0d/group__qkv____ll____hat.html#ga8c2aa1697f395cec342e7cd4475ed6df" target="_top" xlink:title=" ">
<polygon fill="white" stroke="#666666" points="268.62,-56.25 147.62,-56.25 147.62,-37 268.62,-37 268.62,-56.25"/>
<text text-anchor="middle" x="208.12" y="-42.75" font-family="Helvetica,sans-Serif" font-size="10.00">qhat_get_enumerator_at</text>
</a>
</g>
</g>
<!-- Node1&#45;&gt;Node2 -->
<g id="edge1_Node000001_Node000002" class="edge">
<title>Node1&#45;&gt;Node2</title>
<g id="a_edge1_Node000001_Node000002"><a xlink:title=" ">
<path fill="none" stroke="#63b8ff" d="M297.34,-36.77C287.78,-37.83 278.17,-38.91 268.99,-39.93"/>
<polygon fill="#63b8ff" stroke="#63b8ff" points="297.45,-40.27 307,-35.69 296.68,-33.32 297.45,-40.27"/>
</a>
</g>
</g>
<!-- Node4 -->
<g id="Node000004" class="node">
<title>Node4</title>
<g id="a_Node000004"><a xlink:href="../../d3/d0d/group__qkv____ll____hat.html#ga64349c3691919b1bd3bfae4c319f473e" target="_top" xlink:title=" ">
<polygon fill="white" stroke="#666666" points="272.75,-19.25 143.5,-19.25 143.5,0 272.75,0 272.75,-19.25"/>
<text text-anchor="middle" x="208.12" y="-5.75" font-family="Helvetica,sans-Serif" font-size="10.00">qhat_get_tree_enumerator</text>
</a>
</g>
</g>
<!-- Node1&#45;&gt;Node4 -->
<g id="edge3_Node000001_Node000004" class="edge">
<title>Node1&#45;&gt;Node4</title>
<g id="a_edge3_Node000001_Node000004"><a xlink:title=" ">
<path fill="none" stroke="#63b8ff" d="M297.11,-18.94C289.01,-18.08 280.88,-17.22 273,-16.39"/>
<polygon fill="#63b8ff" stroke="#63b8ff" points="296.69,-22.42 307,-19.99 297.43,-15.45 296.69,-22.42"/>
</a>
</g>
</g>
<!-- Node3 -->
<g id="Node000003" class="node">
<title>Node3</title>
<g id="a_Node000003"><a xlink:href="../../d3/d0d/group__qkv____ll____hat.html#ga9d2ba6ff3a64e3bb9d505d6c2ad50f7c" target="_top" xlink:title=" ">
<polygon fill="white" stroke="#666666" points="107.5,-56.25 0,-56.25 0,-37 107.5,-37 107.5,-56.25"/>
<text text-anchor="middle" x="53.75" y="-42.75" font-family="Helvetica,sans-Serif" font-size="10.00">qhat_get_enumerator</text>
</a>
</g>
</g>
<!-- Node2&#45;&gt;Node3 -->
<g id="edge2_Node000002_Node000003" class="edge">
<title>Node2&#45;&gt;Node3</title>
<g id="a_edge2_Node000002_Node000003"><a xlink:title=" ">
<path fill="none" stroke="#63b8ff" d="M135.93,-46.62C126.51,-46.62 116.98,-46.62 107.93,-46.62"/>
<polygon fill="#63b8ff" stroke="#63b8ff" points="135.83,-50.13 145.83,-46.63 135.83,-43.13 135.83,-50.13"/>
</a>
</g>
</g>
<!-- Node5 -->
<g id="Node000005" class="node">
<title>Node5</title>
<g id="a_Node000005"><a xlink:href="../../d3/d0d/group__qkv____ll____hat.html#ga7a648dfcb58c435fd9a6ad7877885bf0" target="_top" xlink:title="Remove stored zeros from the trie.">
<polygon fill="white" stroke="#666666" points="97,-19.25 10.5,-19.25 10.5,0 97,0 97,-19.25"/>
<text text-anchor="middle" x="53.75" y="-5.75" font-family="Helvetica,sans-Serif" font-size="10.00">qhat_fix_stored0</text>
</a>
</g>
</g>
<!-- Node4&#45;&gt;Node5 -->
<g id="edge4_Node000004_Node000005" class="edge">
<title>Node4&#45;&gt;Node5</title>
<g id="a_edge4_Node000004_Node000005"><a xlink:title=" ">
<path fill="none" stroke="#63b8ff" d="M132.04,-9.62C120.16,-9.62 108.24,-9.62 97.44,-9.62"/>
<polygon fill="#63b8ff" stroke="#63b8ff" points="131.87,-13.13 141.87,-9.63 131.87,-6.13 131.87,-13.13"/>
</a>
</g>
</g>
</g>
</svg>
