<?xml version="1.0" encoding="UTF-8" standalone="no"?>
<!DOCTYPE svg PUBLIC "-//W3C//DTD SVG 1.1//EN"
 "http://www.w3.org/Graphics/SVG/1.1/DTD/svg11.dtd">
<!-- Generated by graphviz version 9.0.0 (20230911.1827)
 -->
<!-- Title: qhat_tree_enumerator_go_to Pages: 1 -->
<!--zoomable 150 -->

<svg id="main" version="1.1" xmlns="http://www.w3.org/2000/svg" xmlns:xlink="http://www.w3.org/1999/xlink" xml:space="preserve" onload="init(evt)">
<style type="text/css"><![CDATA[
.node, .edge {opacity: 0.7;}
.node.selected, .edge.selected {opacity: 1;}
.edge:hover path { stroke: red; }
.edge:hover polygon { stroke: red; fill: red; }
]]></style>

<defs>
  <circle id="rim" cx="0" cy="0" r="7"/>
  <circle id="rim2" cx="0" cy="0" r="3.5"/>
  <g id="zoomPlus">
    <use xlink:href="#rim" fill="#404040"><set attributeName="fill" to="#808080" begin="zoomplus.mouseover" end="zoomplus.mouseout"/></use>
    <path d="M-4,0h8M0,-4v8" fill="none" stroke="white" stroke-width="1.5" pointer-events="none"/>
  </g>
  <g id="zoomMin">
    <use xlink:href="#rim" fill="#404040"><set attributeName="fill" to="#808080" begin="zoomminus.mouseover" end="zoomminus.mouseout"/></use>
    <path d="M-4,0h8" fill="none" stroke="white" stroke-width="1.5" pointer-events="none"/>
  </g>
  <g id="arrowUp" transform="translate(30 24)">
    <use xlink:href="#rim"/>
    <path pointer-events="none" fill="none" stroke="white" stroke-width="1.5" d="M0,-3.0v7 M-2.5,-0.5L0,-3.0L2.5,-0.5"/>
  </g>
  <g id="arrowRight" transform="rotate(90) translate(36 -43)">
    <use xlink:href="#rim"/>
    <path pointer-events="none" fill="none" stroke="white" stroke-width="1.5" d="M0,-3.0v7 M-2.5,-0.5L0,-3.0L2.5,-0.5"/>
  </g>
  <g id="arrowDown" transform="rotate(180) translate(-30 -48)">
    <use xlink:href="#rim"/>
    <path pointer-events="none" fill="none" stroke="white" stroke-width="1.5" d="M0,-3.0v7 M-2.5,-0.5L0,-3.0L2.5,-0.5"/>
  </g>
  <g id="arrowLeft" transform="rotate(270) translate(-36 17)">
    <use xlink:href="#rim"/>
    <path pointer-events="none" fill="none" stroke="white" stroke-width="1.5" d="M0,-3.0v7 M-2.5,-0.5L0,-3.0L2.5,-0.5"/>
  </g>
  <g id="resetDef">
    <use xlink:href="#rim2" fill="#404040"><set attributeName="fill" to="#808080" begin="reset.mouseover" end="reset.mouseout"/></use>
  </g>
</defs>
<script type="application/ecmascript">
var viewWidth = 584;
var viewHeight = 150;
var sectionId = 'dynsection-138';
</script>
<script type="application/ecmascript" xlink:href="../../svg.min.js"/>
<svg id="graph" class="graph">
<g id="viewport">
<title>qhat_tree_enumerator_go_to</title>
<!-- Node1 -->
<g id="Node000001" class="node">
<title>Node1</title>
<g id="a_Node000001"><a xlink:title=" ">
<polygon fill="#999999" stroke="#666666" points="575.5,-123.88 465,-123.88 465,-93.38 575.5,-93.38 575.5,-123.88"/>
<text text-anchor="start" x="473" y="-110.38" font-family="Helvetica,sans-Serif" font-size="10.00">qhat_tree_enumerator</text>
<text text-anchor="middle" x="520.25" y="-99.12" font-family="Helvetica,sans-Serif" font-size="10.00">_go_to</text>
</a>
</g>
</g>
<!-- Node2 -->
<g id="Node000002" class="node">
<title>Node2</title>
<g id="a_Node000002"><a xlink:href="../../d3/d0d/group__qkv____ll____hat.html#ga5e9a8eb619989968a7817eb694a0e38b" target="_top" xlink:title=" ">
<polygon fill="white" stroke="#666666" points="429,-99.25 300.5,-99.25 300.5,-80 429,-80 429,-99.25"/>
<text text-anchor="middle" x="364.75" y="-85.75" font-family="Helvetica,sans-Serif" font-size="10.00">qhat_enumerator_catchup</text>
</a>
</g>
</g>
<!-- Node1&#45;&gt;Node2 -->
<g id="edge1_Node000001_Node000002" class="edge">
<title>Node1&#45;&gt;Node2</title>
<g id="a_edge1_Node000001_Node000002"><a xlink:title=" ">
<path fill="none" stroke="#63b8ff" d="M453.5,-100.49C445.48,-99.49 437.29,-98.48 429.3,-97.49"/>
<polygon fill="#63b8ff" stroke="#63b8ff" points="452.84,-103.93 463.2,-101.69 453.7,-96.98 452.84,-103.93"/>
</a>
</g>
</g>
<!-- Node6 -->
<g id="Node000006" class="node">
<title>Node6</title>
<g id="a_Node000006"><a xlink:href="../../d3/d0d/group__qkv____ll____hat.html#ga313baf3168441e27beea8c21f619396b" target="_top" xlink:title="Move the enumerator to a given key if it is present in the qhat or to the first following one otherwi...">
<polygon fill="white" stroke="#666666" points="263,-142.25 145,-142.25 145,-123 263,-123 263,-142.25"/>
<text text-anchor="middle" x="204" y="-128.75" font-family="Helvetica,sans-Serif" font-size="10.00">qhat_enumerator_go_to</text>
</a>
</g>
</g>
<!-- Node1&#45;&gt;Node6 -->
<g id="edge9_Node000001_Node000006" class="edge">
<title>Node1&#45;&gt;Node6</title>
<g id="a_edge9_Node000001_Node000006"><a xlink:title=" ">
<path fill="none" stroke="#63b8ff" d="M453.26,-113.66C397.11,-117.95 317.23,-124.05 263.37,-128.17"/>
<polygon fill="#63b8ff" stroke="#63b8ff" points="453.3,-117.17 463,-112.92 452.77,-110.19 453.3,-117.17"/>
</a>
</g>
</g>
<!-- Node3 -->
<g id="Node000003" class="node">
<title>Node3</title>
<g id="a_Node000003"><a xlink:href="../../d3/d0d/group__qkv____ll____hat.html#gafe6889badccc3a35eb594417aa428369" target="_top" xlink:title=" ">
<polygon fill="white" stroke="#666666" points="257.75,-104.88 150.25,-104.88 150.25,-74.38 257.75,-74.38 257.75,-104.88"/>
<text text-anchor="start" x="158.25" y="-91.38" font-family="Helvetica,sans-Serif" font-size="10.00">qhat_enumerator_get</text>
<text text-anchor="middle" x="204" y="-80.12" font-family="Helvetica,sans-Serif" font-size="10.00">_value</text>
</a>
</g>
</g>
<!-- Node2&#45;&gt;Node3 -->
<g id="edge2_Node000002_Node000003" class="edge">
<title>Node2&#45;&gt;Node3</title>
<g id="a_edge2_Node000002_Node000003"><a xlink:title=" ">
<path fill="none" stroke="#63b8ff" d="M288.85,-89.62C278.42,-89.62 267.88,-89.62 257.97,-89.62"/>
<polygon fill="#63b8ff" stroke="#63b8ff" points="288.58,-93.13 298.58,-89.63 288.58,-86.13 288.58,-93.13"/>
</a>
</g>
</g>
<!-- Node2&#45;&gt;Node6 -->
<g id="edge5_Node000002_Node000006" class="edge">
<title>Node2&#45;&gt;Node6</title>
<g id="a_edge5_Node000002_Node000006"><a xlink:title=" ">
<path fill="none" stroke="#63b8ff" d="M315.71,-102.64C292.14,-109.02 264.18,-116.59 242.26,-122.53"/>
<polygon fill="#63b8ff" stroke="#63b8ff" points="316.33,-106.1 325.07,-100.1 314.5,-99.34 316.33,-106.1"/>
</a>
</g>
</g>
<!-- Node7 -->
<g id="Node000007" class="node">
<title>Node7</title>
<g id="a_Node000007"><a xlink:href="../../d3/d0d/group__qkv____ll____hat.html#gafdda19a7dd5d3d13eb22cc47fe27cde0" target="_top" xlink:title="Move the enumerator to the next key of the qhat.">
<polygon fill="white" stroke="#666666" points="260,-56.25 148,-56.25 148,-37 260,-37 260,-56.25"/>
<text text-anchor="middle" x="204" y="-42.75" font-family="Helvetica,sans-Serif" font-size="10.00">qhat_enumerator_next</text>
</a>
</g>
</g>
<!-- Node2&#45;&gt;Node7 -->
<g id="edge6_Node000002_Node000007" class="edge">
<title>Node2&#45;&gt;Node7</title>
<g id="a_edge6_Node000002_Node000007"><a xlink:title=" ">
<path fill="none" stroke="#63b8ff" d="M315.71,-76.61C292.14,-70.23 264.18,-62.66 242.26,-56.72"/>
<polygon fill="#63b8ff" stroke="#63b8ff" points="314.5,-79.91 325.07,-79.15 316.33,-73.15 314.5,-79.91"/>
</a>
</g>
</g>
<!-- Node8 -->
<g id="Node000008" class="node">
<title>Node8</title>
<g id="a_Node000008"><a xlink:href="../../d3/d0d/group__qkv____ll____hat.html#ga8c2aa1697f395cec342e7cd4475ed6df" target="_top" xlink:title=" ">
<polygon fill="white" stroke="#666666" points="264.5,-19.25 143.5,-19.25 143.5,0 264.5,0 264.5,-19.25"/>
<text text-anchor="middle" x="204" y="-5.75" font-family="Helvetica,sans-Serif" font-size="10.00">qhat_get_enumerator_at</text>
</a>
</g>
</g>
<!-- Node2&#45;&gt;Node8 -->
<g id="edge7_Node000002_Node000008" class="edge">
<title>Node2&#45;&gt;Node8</title>
<g id="a_edge7_Node000002_Node000008"><a xlink:title=" ">
<path fill="none" stroke="#63b8ff" d="M341.02,-72.98C321.51,-59.31 292.23,-40.21 264.5,-27.62 257.92,-24.64 250.7,-21.98 243.64,-19.68"/>
<polygon fill="#63b8ff" stroke="#63b8ff" points="338.86,-75.74 349.04,-78.7 342.92,-70.04 338.86,-75.74"/>
</a>
</g>
</g>
<!-- Node4 -->
<g id="Node000004" class="node">
<title>Node4</title>
<g id="a_Node000004"><a xlink:href="../../d3/d0d/group__qkv____ll____hat.html#ga829147f80d8a78b88ef4ecbdce1ab31c" target="_top" xlink:title="Get the value associated to the current key (safe).">
<polygon fill="white" stroke="#666666" points="107.5,-134.88 0,-134.88 0,-104.38 107.5,-104.38 107.5,-134.88"/>
<text text-anchor="start" x="8" y="-121.38" font-family="Helvetica,sans-Serif" font-size="10.00">qhat_enumerator_get</text>
<text text-anchor="middle" x="53.75" y="-110.12" font-family="Helvetica,sans-Serif" font-size="10.00">_value_safe</text>
</a>
</g>
</g>
<!-- Node3&#45;&gt;Node4 -->
<g id="edge3_Node000003_Node000004" class="edge">
<title>Node3&#45;&gt;Node4</title>
<g id="a_edge3_Node000003_Node000004"><a xlink:title=" ">
<path fill="none" stroke="#63b8ff" d="M138.86,-102.6C128.56,-104.69 117.99,-106.83 107.98,-108.85"/>
<polygon fill="#63b8ff" stroke="#63b8ff" points="139.31,-106.09 148.41,-100.67 137.92,-99.22 139.31,-106.09"/>
</a>
</g>
</g>
<!-- Node5 -->
<g id="Node000005" class="node">
<title>Node5</title>
<g id="a_Node000005"><a xlink:href="../../d3/d0d/group__qkv____ll____hat.html#ga49117940e0addc0c50d83d292695f1d6" target="_top" xlink:title="Get the value associated to the current key.">
<polygon fill="white" stroke="#666666" points="107.5,-85.88 0,-85.88 0,-55.38 107.5,-55.38 107.5,-85.88"/>
<text text-anchor="start" x="8" y="-72.38" font-family="Helvetica,sans-Serif" font-size="10.00">qhat_enumerator_get</text>
<text text-anchor="middle" x="53.75" y="-61.12" font-family="Helvetica,sans-Serif" font-size="10.00">_value_unsafe</text>
</a>
</g>
</g>
<!-- Node3&#45;&gt;Node5 -->
<g id="edge4_Node000003_Node000005" class="edge">
<title>Node3&#45;&gt;Node5</title>
<g id="a_edge4_Node000003_Node000005"><a xlink:title=" ">
<path fill="none" stroke="#63b8ff" d="M138.53,-81.36C128.33,-80.06 117.89,-78.72 107.98,-77.45"/>
<polygon fill="#63b8ff" stroke="#63b8ff" points="138.03,-84.83 148.4,-82.63 138.92,-77.88 138.03,-84.83"/>
</a>
</g>
</g>
<!-- Node9 -->
<g id="Node000009" class="node">
<title>Node9</title>
<g id="a_Node000009"><a xlink:href="../../d3/d0d/group__qkv____ll____hat.html#ga9d2ba6ff3a64e3bb9d505d6c2ad50f7c" target="_top" xlink:title=" ">
<polygon fill="white" stroke="#666666" points="107.5,-19.25 0,-19.25 0,0 107.5,0 107.5,-19.25"/>
<text text-anchor="middle" x="53.75" y="-5.75" font-family="Helvetica,sans-Serif" font-size="10.00">qhat_get_enumerator</text>
</a>
</g>
</g>
<!-- Node8&#45;&gt;Node9 -->
<g id="edge8_Node000008_Node000009" class="edge">
<title>Node8&#45;&gt;Node9</title>
<g id="a_edge8_Node000008_Node000009"><a xlink:title=" ">
<path fill="none" stroke="#63b8ff" d="M131.74,-9.62C123.64,-9.62 115.49,-9.62 107.68,-9.62"/>
<polygon fill="#63b8ff" stroke="#63b8ff" points="131.61,-13.13 141.61,-9.63 131.61,-6.13 131.61,-13.13"/>
</a>
</g>
</g>
</g>
</svg>

<g id="navigator" transform="translate(0 0)" fill="#404254">
  <rect fill="#f2f5e9" fill-opacity="0.5" stroke="#606060" stroke-width=".5" x="0" y="0" width="60" height="60"/>
  <use id="zoomplus" xlink:href="#zoomPlus" x="17" y="9" onmousedown="handleZoom(evt,'in')"/>
  <use id="zoomminus" xlink:href="#zoomMin" x="42" y="9" onmousedown="handleZoom(evt,'out')"/>
  <use id="reset" xlink:href="#resetDef" x="30" y="36" onmousedown="handleReset()"/>
   <use id="arrowup" xlink:href="#arrowUp" x="0" y="0" onmousedown="handlePan(0,-1)"/>
  <use id="arrowright" xlink:href="#arrowRight" x="0" y="0" onmousedown="handlePan(1,0)"/>
  <use id="arrowdown" xlink:href="#arrowDown" x="0" y="0" onmousedown="handlePan(0,1)"/>
  <use id="arrowleft" xlink:href="#arrowLeft" x="0" y="0" onmousedown="handlePan(-1,0)"/>
</g>
<svg viewBox="0 0 15 15" width="100%" height="30px" preserveAspectRatio="xMaxYMin meet">
 <g id="arrow_out" transform="scale(0.3 0.3)">
  <a xlink:href="group__qkv____ll____hat_ga1add9633b46283a82c07bc656df1daf7_icgraph_org.svg" target="_base">
   <rect id="button" ry="5" rx="5" y="6" x="6" height="38" width="38"
        fill="#f2f5e9" fill-opacity="0.5" stroke="#606060" stroke-width="1.0"/>
   <path id="arrow"
     d="M 11.500037,31.436501 C 11.940474,20.09759 22.043105,11.32322 32.158766,21.979434 L 37.068811,17.246167 C 37.068811,17.246167 37.088388,32 37.088388,32 L 22.160133,31.978069 C 22.160133,31.978069 26.997745,27.140456 26.997745,27.140456 C 18.528582,18.264221 13.291696,25.230495 11.500037,31.436501 z"
     style="fill:#404040;"/>
  </a>
 </g>
</svg>

<style type='text/css'>
<![CDATA[
[data-mouse-over-selected='false'] { opacity: 0.7; }
[data-mouse-over-selected='true']  { opacity: 1.0; }
]]>
</style>
<script type="application/ecmascript"><![CDATA[
document.addEventListener('DOMContentLoaded', (event) => {
  highlightEdges();
  highlightAdjacentNodes();
});
]]></script>
</svg>
