<?xml version="1.0" encoding="UTF-8" standalone="no"?>
<!DOCTYPE svg PUBLIC "-//W3C//DTD SVG 1.1//EN"
 "http://www.w3.org/Graphics/SVG/1.1/DTD/svg11.dtd">
<!-- Generated by graphviz version 9.0.0 (20230911.1827)
 -->
<!-- Title: qhat_tree_enumerator_find_entry Pages: 1 -->
<svg width="1811pt" height="276pt"
 viewBox="0.00 0.00 1811.00 276.05" xmlns="http://www.w3.org/2000/svg" xmlns:xlink="http://www.w3.org/1999/xlink">
<g id="graph0" class="graph" transform="scale(1 1) rotate(0) translate(4 272.05)">
<title>qhat_tree_enumerator_find_entry</title>
<!-- Node1 -->
<g id="Node000001" class="node">
<title>Node1</title>
<g id="a_Node000001"><a xlink:title=" ">
<polygon fill="#999999" stroke="#666666" points="1803,-160.67 1692.5,-160.67 1692.5,-130.17 1803,-130.17 1803,-160.67"/>
<text text-anchor="start" x="1700.5" y="-147.17" font-family="Helvetica,sans-Serif" font-size="10.00">qhat_tree_enumerator</text>
<text text-anchor="middle" x="1747.75" y="-135.92" font-family="Helvetica,sans-Serif" font-size="10.00">_find_entry</text>
</a>
</g>
</g>
<!-- Node2 -->
<g id="Node000002" class="node">
<title>Node2</title>
<g id="a_Node000002"><a xlink:href="../../d3/d0d/group__qkv____ll____hat.html#ga8935fcf0180c5b551c4915cd37964446" target="_top" xlink:title=" ">
<polygon fill="white" stroke="#666666" points="1656.5,-78.67 1546,-78.67 1546,-48.17 1656.5,-48.17 1656.5,-78.67"/>
<text text-anchor="start" x="1554" y="-65.17" font-family="Helvetica,sans-Serif" font-size="10.00">qhat_tree_enumerator</text>
<text text-anchor="middle" x="1601.25" y="-53.92" font-family="Helvetica,sans-Serif" font-size="10.00">_find_entry_from</text>
</a>
</g>
</g>
<!-- Node1&#45;&gt;Node2 -->
<g id="edge1_Node000001_Node000002" class="edge">
<title>Node1&#45;&gt;Node2</title>
<g id="a_edge1_Node000001_Node000002"><a xlink:title=" ">
<path fill="none" stroke="#63b8ff" d="M1709.39,-124.22C1684.46,-110.07 1652.24,-91.79 1629.67,-78.98"/>
<polygon fill="#63b8ff" stroke="#63b8ff" points="1707.49,-127.17 1717.91,-129.06 1710.94,-121.08 1707.49,-127.17"/>
</a>
</g>
</g>
<!-- Node23 -->
<g id="Node000023" class="node">
<title>Node23</title>
<g id="a_Node000023"><a xlink:href="../../d3/d0d/group__qkv____ll____hat.html#gaea41ff0831dfeb8b74aaa4c1a947f2ec" target="_top" xlink:title=" ">
<polygon fill="white" stroke="#666666" points="745.25,-145.05 611.5,-145.05 611.5,-125.8 745.25,-125.8 745.25,-145.05"/>
<text text-anchor="middle" x="678.38" y="-131.55" font-family="Helvetica,sans-Serif" font-size="10.00">qhat_tree_enumerator_next</text>
</a>
</g>
</g>
<!-- Node1&#45;&gt;Node23 -->
<g id="edge38_Node000001_Node000023" class="edge">
<title>Node1&#45;&gt;Node23</title>
<g id="a_edge38_Node000001_Node000023"><a xlink:title=" ">
<path fill="none" stroke="#63b8ff" d="M1681.07,-158.95C1622.3,-169.87 1533.65,-183.42 1455.75,-183.42 1455.75,-183.42 1455.75,-183.42 1307.25,-183.42 1101.99,-183.42 860.09,-157.6 745.69,-143.84"/>
<polygon fill="#63b8ff" stroke="#63b8ff" points="1681.39,-162.45 1690.57,-157.15 1680.09,-155.57 1681.39,-162.45"/>
</a>
</g>
</g>
<!-- Node3 -->
<g id="Node000003" class="node">
<title>Node3</title>
<g id="a_Node000003"><a xlink:href="../../d3/d0d/group__qkv____ll____hat.html#ga87bc6d7467a8f305ba001782b6e01cff" target="_top" xlink:title=" ">
<polygon fill="white" stroke="#666666" points="1510,-78.67 1399.5,-78.67 1399.5,-48.17 1510,-48.17 1510,-78.67"/>
<text text-anchor="start" x="1407.5" y="-65.17" font-family="Helvetica,sans-Serif" font-size="10.00">qhat_tree_enumerator</text>
<text text-anchor="middle" x="1454.75" y="-53.92" font-family="Helvetica,sans-Serif" font-size="10.00">_enter_leaf</text>
</a>
</g>
</g>
<!-- Node2&#45;&gt;Node3 -->
<g id="edge2_Node000002_Node000003" class="edge">
<title>Node2&#45;&gt;Node3</title>
<g id="a_edge2_Node000002_Node000003"><a xlink:title=" ">
<path fill="none" stroke="#63b8ff" d="M1534.13,-63.42C1526.21,-63.42 1518.19,-63.42 1510.46,-63.42"/>
<polygon fill="#63b8ff" stroke="#63b8ff" points="1534.11,-66.92 1544.11,-63.42 1534.11,-59.92 1534.11,-66.92"/>
</a>
</g>
</g>
<!-- Node6 -->
<g id="Node000006" class="node">
<title>Node6</title>
<g id="a_Node000006"><a xlink:href="../../d3/d0d/group__qkv____ll____hat.html#ga3bb8a88c31c3db9afc9a14e3967977f5" target="_top" xlink:title=" ">
<polygon fill="white" stroke="#666666" points="1070.5,-37.67 960,-37.67 960,-7.17 1070.5,-7.17 1070.5,-37.67"/>
<text text-anchor="start" x="968" y="-24.17" font-family="Helvetica,sans-Serif" font-size="10.00">qhat_tree_enumerator</text>
<text text-anchor="middle" x="1015.25" y="-12.92" font-family="Helvetica,sans-Serif" font-size="10.00">_find_down_up</text>
</a>
</g>
</g>
<!-- Node2&#45;&gt;Node6 -->
<g id="edge37_Node000002_Node000006" class="edge">
<title>Node2&#45;&gt;Node6</title>
<g id="a_edge37_Node000002_Node000006"><a xlink:title=" ">
<path fill="none" stroke="#63b8ff" d="M1535.51,-44.98C1526.98,-42.91 1518.31,-40.98 1510,-39.42 1333.17,-6.14 1285.74,9.35 1106.5,-6.42 1094.93,-7.44 1082.62,-9.18 1070.93,-11.14"/>
<polygon fill="#63b8ff" stroke="#63b8ff" points="1534.6,-48.36 1545.15,-47.4 1536.31,-41.57 1534.6,-48.36"/>
</a>
</g>
</g>
<!-- Node4 -->
<g id="Node000004" class="node">
<title>Node4</title>
<g id="a_Node000004"><a xlink:href="../../d3/d0d/group__qkv____ll____hat.html#ga8abfcceb9fdcfbf7d4554d198750ac2e" target="_top" xlink:title=" ">
<polygon fill="white" stroke="#666666" points="1363.5,-99.67 1253,-99.67 1253,-69.17 1363.5,-69.17 1363.5,-99.67"/>
<text text-anchor="start" x="1261" y="-86.17" font-family="Helvetica,sans-Serif" font-size="10.00">qhat_tree_enumerator</text>
<text text-anchor="middle" x="1308.25" y="-74.92" font-family="Helvetica,sans-Serif" font-size="10.00">_find_node</text>
</a>
</g>
</g>
<!-- Node3&#45;&gt;Node4 -->
<g id="edge3_Node000003_Node000004" class="edge">
<title>Node3&#45;&gt;Node4</title>
<g id="a_edge3_Node000003_Node000004"><a xlink:title=" ">
<path fill="none" stroke="#63b8ff" d="M1387.91,-72.99C1379.9,-74.15 1371.78,-75.33 1363.96,-76.47"/>
<polygon fill="#63b8ff" stroke="#63b8ff" points="1388.23,-76.48 1397.62,-71.58 1387.22,-69.55 1388.23,-76.48"/>
</a>
</g>
</g>
<!-- Node16 -->
<g id="Node000016" class="node">
<title>Node16</title>
<g id="a_Node000016"><a xlink:href="../../d3/d0d/group__qkv____ll____hat.html#ga1cae257137a7c7141f925336d8b522d1" target="_top" xlink:title=" ">
<polygon fill="white" stroke="#666666" points="1217,-61.67 1106.5,-61.67 1106.5,-31.17 1217,-31.17 1217,-61.67"/>
<text text-anchor="start" x="1114.5" y="-48.17" font-family="Helvetica,sans-Serif" font-size="10.00">qhat_tree_enumerator</text>
<text text-anchor="middle" x="1161.75" y="-36.92" font-family="Helvetica,sans-Serif" font-size="10.00">_find_root</text>
</a>
</g>
</g>
<!-- Node3&#45;&gt;Node16 -->
<g id="edge36_Node000003_Node000016" class="edge">
<title>Node3&#45;&gt;Node16</title>
<g id="a_edge36_Node000003_Node000016"><a xlink:title=" ">
<path fill="none" stroke="#63b8ff" d="M1387.68,-59.56C1336.18,-56.55 1265.53,-52.42 1217.24,-49.6"/>
<polygon fill="#63b8ff" stroke="#63b8ff" points="1387.32,-63.05 1397.5,-60.13 1387.73,-56.06 1387.32,-63.05"/>
</a>
</g>
</g>
<!-- Node4&#45;&gt;Node4 -->
<g id="edge18_Node000004_Node000004" class="edge">
<title>Node4&#45;&gt;Node4</title>
<g id="a_edge18_Node000004_Node000004"><a xlink:title=" ">
<path fill="none" stroke="#63b8ff" d="M1332.82,-111.37C1328.8,-115.14 1320.61,-117.67 1308.25,-117.67 1285.65,-117.67 1276.99,-109.23 1282.29,-100.16"/>
<polygon fill="#63b8ff" stroke="#63b8ff" points="1336.27,-112.01 1334.02,-101.66 1329.32,-111.15 1336.27,-112.01"/>
</a>
</g>
</g>
<!-- Node5 -->
<g id="Node000005" class="node">
<title>Node5</title>
<g id="a_Node000005"><a xlink:href="../../d3/d0d/group__qkv____ll____hat.html#ga38c1ce67a91cff23c416402bec81133f" target="_top" xlink:title=" ">
<polygon fill="white" stroke="#666666" points="1070.5,-145.67 960,-145.67 960,-115.17 1070.5,-115.17 1070.5,-145.67"/>
<text text-anchor="start" x="968" y="-132.17" font-family="Helvetica,sans-Serif" font-size="10.00">qhat_tree_enumerator</text>
<text text-anchor="middle" x="1015.25" y="-120.92" font-family="Helvetica,sans-Serif" font-size="10.00">_dispatch_up</text>
</a>
</g>
</g>
<!-- Node4&#45;&gt;Node5 -->
<g id="edge4_Node000004_Node000005" class="edge">
<title>Node4&#45;&gt;Node5</title>
<g id="a_edge4_Node000004_Node000005"><a xlink:title=" ">
<path fill="none" stroke="#63b8ff" d="M1241.18,-89.1C1189.68,-95.82 1119.03,-107.1 1070.74,-116.4"/>
<polygon fill="#63b8ff" stroke="#63b8ff" points="1241.54,-92.59 1251.01,-87.85 1240.65,-85.64 1241.54,-92.59"/>
</a>
</g>
</g>
<!-- Node4&#45;&gt;Node6 -->
<g id="edge7_Node000004_Node000006" class="edge">
<title>Node4&#45;&gt;Node6</title>
<g id="a_edge7_Node000004_Node000006"><a xlink:title=" ">
<path fill="none" stroke="#63b8ff" d="M1283.04,-61.72C1266.01,-47.38 1241.89,-30.15 1217,-22.42 1169.23,-7.59 1111.94,-9.39 1070.81,-13.83"/>
<polygon fill="#63b8ff" stroke="#63b8ff" points="1280.29,-63.96 1290.12,-67.9 1284.88,-58.69 1280.29,-63.96"/>
</a>
</g>
</g>
<!-- Node4&#45;&gt;Node16 -->
<g id="edge19_Node000004_Node000016" class="edge">
<title>Node4&#45;&gt;Node16</title>
<g id="a_edge19_Node000004_Node000016"><a xlink:title=" ">
<path fill="none" stroke="#63b8ff" d="M1241.68,-67.18C1233.58,-65.05 1225.37,-62.89 1217.46,-60.81"/>
<polygon fill="#63b8ff" stroke="#63b8ff" points="1240.6,-70.51 1251.16,-69.67 1242.38,-63.74 1240.6,-70.51"/>
</a>
</g>
</g>
<!-- Node5&#45;&gt;Node1 -->
<g id="edge5_Node000005_Node000001" class="edge">
<title>Node5&#45;&gt;Node1</title>
<g id="a_edge5_Node000005_Node000001"><a xlink:title=" ">
<path fill="none" stroke="#63b8ff" d="M1082.29,-135.77C1141.24,-140.08 1229.95,-145.42 1307.25,-145.42 1455.75,-145.42 1455.75,-145.42 1455.75,-145.42 1538.1,-145.42 1633.56,-145.42 1692.04,-145.42"/>
<polygon fill="#63b8ff" stroke="#63b8ff" points="1082.65,-132.28 1072.42,-135.03 1082.14,-139.26 1082.65,-132.28"/>
</a>
</g>
</g>
<!-- Node5&#45;&gt;Node4 -->
<g id="edge6_Node000005_Node000004" class="edge">
<title>Node5&#45;&gt;Node4</title>
<g id="a_edge6_Node000005_Node000004"><a xlink:title=" ">
<path fill="none" stroke="#63b8ff" d="M1082.06,-125.77C1133.5,-119.07 1204.15,-107.79 1252.52,-98.48"/>
<polygon fill="#63b8ff" stroke="#63b8ff" points="1081.72,-122.29 1072.24,-127.02 1082.6,-129.23 1081.72,-122.29"/>
</a>
</g>
</g>
<!-- Node7 -->
<g id="Node000007" class="node">
<title>Node7</title>
<g id="a_Node000007"><a xlink:href="../../d3/d0d/group__qkv____ll____hat.html#ga1add9633b46283a82c07bc656df1daf7" target="_top" xlink:title=" ">
<polygon fill="white" stroke="#666666" points="575.5,-107.67 465,-107.67 465,-77.17 575.5,-77.17 575.5,-107.67"/>
<text text-anchor="start" x="473" y="-94.17" font-family="Helvetica,sans-Serif" font-size="10.00">qhat_tree_enumerator</text>
<text text-anchor="middle" x="520.25" y="-82.92" font-family="Helvetica,sans-Serif" font-size="10.00">_go_to</text>
</a>
</g>
</g>
<!-- Node6&#45;&gt;Node7 -->
<g id="edge8_Node000006_Node000007" class="edge">
<title>Node6&#45;&gt;Node7</title>
<g id="a_edge8_Node000006_Node000007"><a xlink:title=" ">
<path fill="none" stroke="#63b8ff" d="M948.34,-31.78C850.07,-45.73 666.95,-71.73 575.76,-84.68"/>
<polygon fill="#63b8ff" stroke="#63b8ff" points="948.7,-35.26 958.11,-30.39 947.72,-28.33 948.7,-35.26"/>
</a>
</g>
</g>
<!-- Node8 -->
<g id="Node000008" class="node">
<title>Node8</title>
<g id="a_Node000008"><a xlink:href="../../d3/d0d/group__qkv____ll____hat.html#ga5e9a8eb619989968a7817eb694a0e38b" target="_top" xlink:title=" ">
<polygon fill="white" stroke="#666666" points="429,-183.05 300.5,-183.05 300.5,-163.8 429,-163.8 429,-183.05"/>
<text text-anchor="middle" x="364.75" y="-169.55" font-family="Helvetica,sans-Serif" font-size="10.00">qhat_enumerator_catchup</text>
</a>
</g>
</g>
<!-- Node7&#45;&gt;Node8 -->
<g id="edge9_Node000007_Node000008" class="edge">
<title>Node7&#45;&gt;Node8</title>
<g id="a_edge9_Node000007_Node000008"><a xlink:title=" ">
<path fill="none" stroke="#63b8ff" d="M479.73,-113.28C449.15,-129.41 408.19,-151.03 384.61,-163.47"/>
<polygon fill="#63b8ff" stroke="#63b8ff" points="481.1,-116.51 488.32,-108.74 477.84,-110.32 481.1,-116.51"/>
</a>
</g>
</g>
<!-- Node12 -->
<g id="Node000012" class="node">
<title>Node12</title>
<g id="a_Node000012"><a xlink:href="../../d3/d0d/group__qkv____ll____hat.html#ga313baf3168441e27beea8c21f619396b" target="_top" xlink:title="Move the enumerator to a given key if it is present in the qhat or to the first following one otherwi...">
<polygon fill="white" stroke="#666666" points="263,-110.05 145,-110.05 145,-90.8 263,-90.8 263,-110.05"/>
<text text-anchor="middle" x="204" y="-96.55" font-family="Helvetica,sans-Serif" font-size="10.00">qhat_enumerator_go_to</text>
</a>
</g>
</g>
<!-- Node7&#45;&gt;Node12 -->
<g id="edge17_Node000007_Node000012" class="edge">
<title>Node7&#45;&gt;Node12</title>
<g id="a_edge17_Node000007_Node000012"><a xlink:title=" ">
<path fill="none" stroke="#63b8ff" d="M453.26,-94.1C397.11,-95.53 317.23,-97.56 263.37,-98.93"/>
<polygon fill="#63b8ff" stroke="#63b8ff" points="453.09,-97.61 463,-93.85 452.91,-90.61 453.09,-97.61"/>
</a>
</g>
</g>
<!-- Node9 -->
<g id="Node000009" class="node">
<title>Node9</title>
<g id="a_Node000009"><a xlink:href="../../d3/d0d/group__qkv____ll____hat.html#gafe6889badccc3a35eb594417aa428369" target="_top" xlink:title=" ">
<polygon fill="white" stroke="#666666" points="257.75,-213.67 150.25,-213.67 150.25,-183.17 257.75,-183.17 257.75,-213.67"/>
<text text-anchor="start" x="158.25" y="-200.17" font-family="Helvetica,sans-Serif" font-size="10.00">qhat_enumerator_get</text>
<text text-anchor="middle" x="204" y="-188.92" font-family="Helvetica,sans-Serif" font-size="10.00">_value</text>
</a>
</g>
</g>
<!-- Node8&#45;&gt;Node9 -->
<g id="edge10_Node000008_Node000009" class="edge">
<title>Node8&#45;&gt;Node9</title>
<g id="a_edge10_Node000008_Node000009"><a xlink:title=" ">
<path fill="none" stroke="#63b8ff" d="M288.85,-185.22C278.42,-186.86 267.88,-188.52 257.97,-190.08"/>
<polygon fill="#63b8ff" stroke="#63b8ff" points="289.27,-188.69 298.6,-183.68 288.18,-181.78 289.27,-188.69"/>
</a>
</g>
</g>
<!-- Node8&#45;&gt;Node12 -->
<g id="edge13_Node000008_Node000012" class="edge">
<title>Node8&#45;&gt;Node12</title>
<g id="a_edge13_Node000008_Node000012"><a xlink:title=" ">
<path fill="none" stroke="#63b8ff" d="M338.43,-157.42C318.81,-145.51 290.65,-129.47 264.5,-118.42 257.54,-115.48 249.94,-112.8 242.57,-110.46"/>
<polygon fill="#63b8ff" stroke="#63b8ff" points="336.48,-160.33 346.83,-162.59 340.15,-154.37 336.48,-160.33"/>
</a>
</g>
</g>
<!-- Node13 -->
<g id="Node000013" class="node">
<title>Node13</title>
<g id="a_Node000013"><a xlink:href="../../d3/d0d/group__qkv____ll____hat.html#gafdda19a7dd5d3d13eb22cc47fe27cde0" target="_top" xlink:title="Move the enumerator to the next key of the qhat.">
<polygon fill="white" stroke="#666666" points="260,-147.05 148,-147.05 148,-127.8 260,-127.8 260,-147.05"/>
<text text-anchor="middle" x="204" y="-133.55" font-family="Helvetica,sans-Serif" font-size="10.00">qhat_enumerator_next</text>
</a>
</g>
</g>
<!-- Node8&#45;&gt;Node13 -->
<g id="edge14_Node000008_Node000013" class="edge">
<title>Node8&#45;&gt;Node13</title>
<g id="a_edge14_Node000008_Node000013"><a xlink:title=" ">
<path fill="none" stroke="#63b8ff" d="M308.1,-160.8C288.94,-156.45 267.75,-151.65 249.58,-147.53"/>
<polygon fill="#63b8ff" stroke="#63b8ff" points="307.1,-164.16 317.63,-162.96 308.65,-157.34 307.1,-164.16"/>
</a>
</g>
</g>
<!-- Node14 -->
<g id="Node000014" class="node">
<title>Node14</title>
<g id="a_Node000014"><a xlink:href="../../d3/d0d/group__qkv____ll____hat.html#ga8c2aa1697f395cec342e7cd4475ed6df" target="_top" xlink:title=" ">
<polygon fill="white" stroke="#666666" points="264.5,-265.05 143.5,-265.05 143.5,-245.8 264.5,-245.8 264.5,-265.05"/>
<text text-anchor="middle" x="204" y="-251.55" font-family="Helvetica,sans-Serif" font-size="10.00">qhat_get_enumerator_at</text>
</a>
</g>
</g>
<!-- Node8&#45;&gt;Node14 -->
<g id="edge15_Node000008_Node000014" class="edge">
<title>Node8&#45;&gt;Node14</title>
<g id="a_edge15_Node000008_Node000014"><a xlink:title=" ">
<path fill="none" stroke="#63b8ff" d="M334.13,-188.72C301.94,-205.35 251.46,-231.42 224.13,-245.54"/>
<polygon fill="#63b8ff" stroke="#63b8ff" points="335.66,-191.87 342.94,-184.17 332.45,-185.65 335.66,-191.87"/>
</a>
</g>
</g>
<!-- Node10 -->
<g id="Node000010" class="node">
<title>Node10</title>
<g id="a_Node000010"><a xlink:href="../../d3/d0d/group__qkv____ll____hat.html#ga829147f80d8a78b88ef4ecbdce1ab31c" target="_top" xlink:title="Get the value associated to the current key (safe).">
<polygon fill="white" stroke="#666666" points="107.5,-218.67 0,-218.67 0,-188.17 107.5,-188.17 107.5,-218.67"/>
<text text-anchor="start" x="8" y="-205.17" font-family="Helvetica,sans-Serif" font-size="10.00">qhat_enumerator_get</text>
<text text-anchor="middle" x="53.75" y="-193.92" font-family="Helvetica,sans-Serif" font-size="10.00">_value_safe</text>
</a>
</g>
</g>
<!-- Node9&#45;&gt;Node10 -->
<g id="edge11_Node000009_Node000010" class="edge">
<title>Node9&#45;&gt;Node10</title>
<g id="a_edge11_Node000009_Node000010"><a xlink:title=" ">
<path fill="none" stroke="#63b8ff" d="M138.53,-200.59C128.33,-200.94 117.89,-201.29 107.98,-201.62"/>
<polygon fill="#63b8ff" stroke="#63b8ff" points="138.51,-204.1 148.38,-200.26 138.27,-197.1 138.51,-204.1"/>
</a>
</g>
</g>
<!-- Node11 -->
<g id="Node000011" class="node">
<title>Node11</title>
<g id="a_Node000011"><a xlink:href="../../d3/d0d/group__qkv____ll____hat.html#ga49117940e0addc0c50d83d292695f1d6" target="_top" xlink:title="Get the value associated to the current key.">
<polygon fill="white" stroke="#666666" points="107.5,-169.67 0,-169.67 0,-139.17 107.5,-139.17 107.5,-169.67"/>
<text text-anchor="start" x="8" y="-156.17" font-family="Helvetica,sans-Serif" font-size="10.00">qhat_enumerator_get</text>
<text text-anchor="middle" x="53.75" y="-144.92" font-family="Helvetica,sans-Serif" font-size="10.00">_value_unsafe</text>
</a>
</g>
</g>
<!-- Node9&#45;&gt;Node11 -->
<g id="edge12_Node000009_Node000011" class="edge">
<title>Node9&#45;&gt;Node11</title>
<g id="a_edge12_Node000009_Node000011"><a xlink:title=" ">
<path fill="none" stroke="#63b8ff" d="M139.45,-179.56C128.89,-176.42 118.03,-173.2 107.76,-170.15"/>
<polygon fill="#63b8ff" stroke="#63b8ff" points="138.28,-182.86 148.86,-182.35 140.27,-176.15 138.28,-182.86"/>
</a>
</g>
</g>
<!-- Node15 -->
<g id="Node000015" class="node">
<title>Node15</title>
<g id="a_Node000015"><a xlink:href="../../d3/d0d/group__qkv____ll____hat.html#ga9d2ba6ff3a64e3bb9d505d6c2ad50f7c" target="_top" xlink:title=" ">
<polygon fill="white" stroke="#666666" points="107.5,-265.05 0,-265.05 0,-245.8 107.5,-245.8 107.5,-265.05"/>
<text text-anchor="middle" x="53.75" y="-251.55" font-family="Helvetica,sans-Serif" font-size="10.00">qhat_get_enumerator</text>
</a>
</g>
</g>
<!-- Node14&#45;&gt;Node15 -->
<g id="edge16_Node000014_Node000015" class="edge">
<title>Node14&#45;&gt;Node15</title>
<g id="a_edge16_Node000014_Node000015"><a xlink:title=" ">
<path fill="none" stroke="#63b8ff" d="M131.74,-255.42C123.64,-255.42 115.49,-255.42 107.68,-255.42"/>
<polygon fill="#63b8ff" stroke="#63b8ff" points="131.61,-258.92 141.61,-255.42 131.61,-251.92 131.61,-258.92"/>
</a>
</g>
</g>
<!-- Node16&#45;&gt;Node5 -->
<g id="edge20_Node000016_Node000005" class="edge">
<title>Node16&#45;&gt;Node5</title>
<g id="a_edge20_Node000016_Node000005"><a xlink:title=" ">
<path fill="none" stroke="#63b8ff" d="M1118.9,-67.67C1114.64,-70.16 1110.44,-72.77 1106.5,-75.42 1089.23,-87.06 1088.11,-94.3 1070.5,-105.42 1065.24,-108.74 1059.46,-111.88 1053.71,-114.74"/>
<polygon fill="#63b8ff" stroke="#63b8ff" points="1120.52,-70.77 1127.53,-62.82 1117.09,-64.67 1120.52,-70.77"/>
</a>
</g>
</g>
<!-- Node16&#45;&gt;Node6 -->
<g id="edge21_Node000016_Node000006" class="edge">
<title>Node16&#45;&gt;Node6</title>
<g id="a_edge21_Node000016_Node000006"><a xlink:title=" ">
<path fill="none" stroke="#63b8ff" d="M1094.91,-35.48C1086.9,-34.15 1078.78,-32.81 1070.96,-31.51"/>
<polygon fill="#63b8ff" stroke="#63b8ff" points="1094.19,-38.91 1104.63,-37.1 1095.34,-32.01 1094.19,-38.91"/>
</a>
</g>
</g>
<!-- Node17 -->
<g id="Node000017" class="node">
<title>Node17</title>
<g id="a_Node000017"><a xlink:href="../../d3/d0d/group__qkv____ll____hat.html#gaa0de53ec588483cc20bd34e60d4d56a5" target="_top" xlink:title=" ">
<polygon fill="white" stroke="#666666" points="1070.5,-96.67 960,-96.67 960,-66.17 1070.5,-66.17 1070.5,-96.67"/>
<text text-anchor="start" x="968" y="-83.17" font-family="Helvetica,sans-Serif" font-size="10.00">qhat_tree_enumerator</text>
<text text-anchor="middle" x="1015.25" y="-71.92" font-family="Helvetica,sans-Serif" font-size="10.00">_find_up_down</text>
</a>
</g>
</g>
<!-- Node16&#45;&gt;Node17 -->
<g id="edge22_Node000016_Node000017" class="edge">
<title>Node16&#45;&gt;Node17</title>
<g id="a_edge22_Node000016_Node000017"><a xlink:title=" ">
<path fill="none" stroke="#63b8ff" d="M1095.18,-62.3C1087.08,-64.26 1078.87,-66.25 1070.96,-68.17"/>
<polygon fill="#63b8ff" stroke="#63b8ff" points="1095.75,-65.76 1104.65,-60.01 1094.11,-58.96 1095.75,-65.76"/>
</a>
</g>
</g>
<!-- Node17&#45;&gt;Node7 -->
<g id="edge27_Node000017_Node000007" class="edge">
<title>Node17&#45;&gt;Node7</title>
<g id="a_edge27_Node000017_Node000007"><a xlink:title=" ">
<path fill="none" stroke="#63b8ff" d="M948.34,-82.89C850.07,-85.08 666.95,-89.17 575.76,-91.2"/>
<polygon fill="#63b8ff" stroke="#63b8ff" points="948.17,-86.4 958.09,-82.67 948.02,-79.4 948.17,-86.4"/>
</a>
</g>
</g>
<!-- Node18 -->
<g id="Node000018" class="node">
<title>Node18</title>
<g id="a_Node000018"><a xlink:href="../../d3/d0d/group__qkv____ll____hat.html#gafd894f7fa6dfa9dfb2d80e5ad1e56272" target="_top" xlink:title=" ">
<polygon fill="white" stroke="#666666" points="924,-268.05 781.25,-268.05 781.25,-248.8 924,-248.8 924,-268.05"/>
<text text-anchor="middle" x="852.62" y="-254.55" font-family="Helvetica,sans-Serif" font-size="10.00">qhat_get_tree_enumerator_at</text>
</a>
</g>
</g>
<!-- Node17&#45;&gt;Node18 -->
<g id="edge23_Node000017_Node000018" class="edge">
<title>Node17&#45;&gt;Node18</title>
<g id="a_edge23_Node000017_Node000018"><a xlink:title=" ">
<path fill="none" stroke="#63b8ff" d="M961.76,-104.47C961.15,-105.1 960.56,-105.75 960,-106.42 920.47,-153.19 967.32,-196.13 924,-239.42 920.42,-243 916.24,-245.92 911.74,-248.31"/>
<polygon fill="#63b8ff" stroke="#63b8ff" points="963.98,-107.17 969.42,-98.08 959.49,-101.8 963.98,-107.17"/>
</a>
</g>
</g>
<!-- Node21 -->
<g id="Node000021" class="node">
<title>Node21</title>
<g id="a_Node000021"><a xlink:href="../../d3/d0d/group__qkv____ll____hat.html#gad76c4907c3a42514c4a3bbf9af08b353" target="_top" xlink:title=" ">
<polygon fill="white" stroke="#666666" points="907.88,-230.67 797.38,-230.67 797.38,-200.17 907.88,-200.17 907.88,-230.67"/>
<text text-anchor="start" x="805.38" y="-217.17" font-family="Helvetica,sans-Serif" font-size="10.00">qhat_tree_enumerator</text>
<text text-anchor="middle" x="852.62" y="-205.92" font-family="Helvetica,sans-Serif" font-size="10.00">_refresh_path</text>
</a>
</g>
</g>
<!-- Node17&#45;&gt;Node21 -->
<g id="edge28_Node000017_Node000021" class="edge">
<title>Node17&#45;&gt;Node21</title>
<g id="a_edge28_Node000017_Node000021"><a xlink:title=" ">
<path fill="none" stroke="#63b8ff" d="M965.63,-102.7C963.7,-103.9 961.81,-105.14 960,-106.42 920.9,-134.02 883.91,-177.08 865.6,-199.94"/>
<polygon fill="#63b8ff" stroke="#63b8ff" points="967.31,-105.78 974.31,-97.82 963.88,-99.68 967.31,-105.78"/>
</a>
</g>
</g>
<!-- Node18&#45;&gt;Node14 -->
<g id="edge24_Node000018_Node000014" class="edge">
<title>Node18&#45;&gt;Node14</title>
<g id="a_edge24_Node000018_Node000014"><a xlink:title=" ">
<path fill="none" stroke="#63b8ff" d="M769.67,-258.04C637.68,-257.43 381.08,-256.24 264.82,-255.7"/>
<polygon fill="#63b8ff" stroke="#63b8ff" points="769.36,-261.54 779.37,-258.08 769.39,-254.54 769.36,-261.54"/>
</a>
</g>
</g>
<!-- Node19 -->
<g id="Node000019" class="node">
<title>Node19</title>
<g id="a_Node000019"><a xlink:href="../../d3/d0d/group__qkv____ll____hat.html#ga64349c3691919b1bd3bfae4c319f473e" target="_top" xlink:title=" ">
<polygon fill="white" stroke="#666666" points="743,-182.05 613.75,-182.05 613.75,-162.8 743,-162.8 743,-182.05"/>
<text text-anchor="middle" x="678.38" y="-168.55" font-family="Helvetica,sans-Serif" font-size="10.00">qhat_get_tree_enumerator</text>
</a>
</g>
</g>
<!-- Node18&#45;&gt;Node19 -->
<g id="edge25_Node000018_Node000019" class="edge">
<title>Node18&#45;&gt;Node19</title>
<g id="a_edge25_Node000018_Node000019"><a xlink:title=" ">
<path fill="none" stroke="#63b8ff" d="M788.33,-243.64C785.88,-242.35 783.5,-240.95 781.25,-239.42 759.17,-224.46 767.2,-206.57 745.25,-191.42 739.96,-187.77 733.97,-184.81 727.81,-182.42"/>
<polygon fill="#63b8ff" stroke="#63b8ff" points="786.86,-246.82 797.41,-247.73 789.73,-240.43 786.86,-246.82"/>
</a>
</g>
</g>
<!-- Node20 -->
<g id="Node000020" class="node">
<title>Node20</title>
<g id="a_Node000020"><a xlink:href="../../d3/d0d/group__qkv____ll____hat.html#ga7a648dfcb58c435fd9a6ad7877885bf0" target="_top" xlink:title="Remove stored zeros from the trie.">
<polygon fill="white" stroke="#666666" points="563.5,-183.05 477,-183.05 477,-163.8 563.5,-163.8 563.5,-183.05"/>
<text text-anchor="middle" x="520.25" y="-169.55" font-family="Helvetica,sans-Serif" font-size="10.00">qhat_fix_stored0</text>
</a>
</g>
</g>
<!-- Node19&#45;&gt;Node20 -->
<g id="edge26_Node000019_Node000020" class="edge">
<title>Node19&#45;&gt;Node20</title>
<g id="a_edge26_Node000019_Node000020"><a xlink:title=" ">
<path fill="none" stroke="#63b8ff" d="M601.99,-172.9C588.91,-172.99 575.73,-173.07 563.92,-173.15"/>
<polygon fill="#63b8ff" stroke="#63b8ff" points="601.93,-176.4 611.91,-172.84 601.89,-169.4 601.93,-176.4"/>
</a>
</g>
</g>
<!-- Node22 -->
<g id="Node000022" class="node">
<title>Node22</title>
<g id="a_Node000022"><a xlink:href="../../d3/d0d/group__qkv____ll____hat.html#gaa1237e2dec0827b1315803e22775912c" target="_top" xlink:title=" ">
<polygon fill="white" stroke="#666666" points="733.62,-230.67 623.12,-230.67 623.12,-200.17 733.62,-200.17 733.62,-230.67"/>
<text text-anchor="start" x="631.12" y="-217.17" font-family="Helvetica,sans-Serif" font-size="10.00">qhat_tree_enumerator</text>
<text text-anchor="middle" x="678.38" y="-205.92" font-family="Helvetica,sans-Serif" font-size="10.00">_get_value</text>
</a>
</g>
</g>
<!-- Node21&#45;&gt;Node22 -->
<g id="edge29_Node000021_Node000022" class="edge">
<title>Node21&#45;&gt;Node22</title>
<g id="a_edge29_Node000021_Node000022"><a xlink:title=" ">
<path fill="none" stroke="#63b8ff" d="M786.06,-215.42C768.92,-215.42 750.62,-215.42 734.11,-215.42"/>
<polygon fill="#63b8ff" stroke="#63b8ff" points="785.61,-218.92 795.61,-215.42 785.61,-211.92 785.61,-218.92"/>
</a>
</g>
</g>
<!-- Node21&#45;&gt;Node23 -->
<g id="edge32_Node000021_Node000023" class="edge">
<title>Node21&#45;&gt;Node23</title>
<g id="a_edge32_Node000021_Node000023"><a xlink:title=" ">
<path fill="none" stroke="#63b8ff" d="M796.6,-194.98C791.28,-192.35 786.07,-189.49 781.25,-186.42 762.93,-174.77 764.25,-163.91 745.25,-153.42 739.54,-150.27 733.24,-147.64 726.88,-145.46"/>
<polygon fill="#63b8ff" stroke="#63b8ff" points="794.97,-198.09 805.52,-199.13 797.92,-191.74 794.97,-198.09"/>
</a>
</g>
</g>
<!-- Node22&#45;&gt;Node9 -->
<g id="edge30_Node000022_Node000009" class="edge">
<title>Node22&#45;&gt;Node9</title>
<g id="a_edge30_Node000022_Node000009"><a xlink:title=" ">
<path fill="none" stroke="#63b8ff" d="M611.32,-213.04C516.8,-209.64 344.83,-203.45 258.07,-200.33"/>
<polygon fill="#63b8ff" stroke="#63b8ff" points="611.09,-216.54 621.21,-213.4 611.35,-209.54 611.09,-216.54"/>
</a>
</g>
</g>
<!-- Node22&#45;&gt;Node20 -->
<g id="edge31_Node000022_Node000020" class="edge">
<title>Node22&#45;&gt;Node20</title>
<g id="a_edge31_Node000022_Node000020"><a xlink:title=" ">
<path fill="none" stroke="#63b8ff" d="M611.86,-197.8C593.61,-192.89 574.42,-187.72 558.42,-183.42"/>
<polygon fill="#63b8ff" stroke="#63b8ff" points="610.74,-201.12 621.31,-200.34 612.56,-194.36 610.74,-201.12"/>
</a>
</g>
</g>
<!-- Node23&#45;&gt;Node7 -->
<g id="edge35_Node000023_Node000007" class="edge">
<title>Node23&#45;&gt;Node7</title>
<g id="a_edge35_Node000023_Node000007"><a xlink:title=" ">
<path fill="none" stroke="#63b8ff" d="M629.96,-122.36C612.93,-117.67 593.58,-112.34 575.98,-107.49"/>
<polygon fill="#63b8ff" stroke="#63b8ff" points="628.74,-125.66 639.31,-124.94 630.6,-118.91 628.74,-125.66"/>
</a>
</g>
</g>
<!-- Node23&#45;&gt;Node13 -->
<g id="edge33_Node000023_Node000013" class="edge">
<title>Node23&#45;&gt;Node13</title>
<g id="a_edge33_Node000023_Node000013"><a xlink:title=" ">
<path fill="none" stroke="#63b8ff" d="M599.88,-135.75C504.37,-136.15 344.46,-136.83 260.43,-137.19"/>
<polygon fill="#63b8ff" stroke="#63b8ff" points="599.7,-139.25 609.68,-135.71 599.67,-132.25 599.7,-139.25"/>
</a>
</g>
</g>
<!-- Node23&#45;&gt;Node20 -->
<g id="edge34_Node000023_Node000020" class="edge">
<title>Node23&#45;&gt;Node20</title>
<g id="a_edge34_Node000023_Node000020"><a xlink:title=" ">
<path fill="none" stroke="#63b8ff" d="M624.97,-148.18C604.65,-153.12 581.72,-158.7 562.6,-163.36"/>
<polygon fill="#63b8ff" stroke="#63b8ff" points="625.59,-151.63 634.48,-145.86 623.93,-144.83 625.59,-151.63"/>
</a>
</g>
</g>
</g>
</svg>
