<?xml version="1.0" encoding="UTF-8" standalone="no"?>
<!DOCTYPE svg PUBLIC "-//W3C//DTD SVG 1.1//EN"
 "http://www.w3.org/Graphics/SVG/1.1/DTD/svg11.dtd">
<!-- Generated by graphviz version 9.0.0 (20230911.1827)
 -->
<!-- Title: _write_file_bin Pages: 1 -->
<svg width="419pt" height="101pt"
 viewBox="0.00 0.00 419.25 101.25" xmlns="http://www.w3.org/2000/svg" xmlns:xlink="http://www.w3.org/1999/xlink">

<svg id="main" version="1.1" xmlns="http://www.w3.org/2000/svg" xmlns:xlink="http://www.w3.org/1999/xlink" xml:space="preserve" onload="init(evt)">
<style type="text/css"><![CDATA[
.node, .edge {opacity: 0.7;}
.node.selected, .edge.selected {opacity: 1;}
.edge:hover path { stroke: red; }
.edge:hover polygon { stroke: red; fill: red; }
]]></style>
<script type="application/ecmascript" xlink:href="../../svg.min.js"/>
<svg id="graph" class="graph">
<g id="graph0" class="graph" transform="scale(1 1) rotate(0) translate(4 97.25)">
<title>_write_file_bin</title>
<!-- Node1 -->
<g id="Node000001" class="node">
<title>Node1</title>
<g id="a_Node000001"><a xlink:title=" ">
<polygon fill="#999999" stroke="#666666" points="77.5,-74.25 0,-74.25 0,-55 77.5,-55 77.5,-74.25"/>
<text text-anchor="middle" x="38.75" y="-60.75" font-family="Helvetica,sans-Serif" font-size="10.00">_write_file_bin</text>
</a>
</g>
</g>
<!-- Node2 -->
<g id="Node000002" class="node">
<title>Node2</title>
<g id="a_Node000002"><a xlink:href="../../dc/d70/file-bin_8c.html#af96e2b4fdac4da97879e3dce1eb51700" target="_top" xlink:title=" ">
<polygon fill="white" stroke="#666666" points="180.5,-93.25 113.5,-93.25 113.5,-74 180.5,-74 180.5,-93.25"/>
<text text-anchor="middle" x="147" y="-79.75" font-family="Helvetica,sans-Serif" font-size="10.00">file_bin_pad</text>
</a>
</g>
</g>
<!-- Node1&#45;&gt;Node2 -->
<g id="edge1_Node000001_Node000002" class="edge">
<title>Node1&#45;&gt;Node2</title>
<g id="a_edge1_Node000001_Node000002"><a xlink:title=" ">
<path fill="none" stroke="#63b8ff" d="M77.81,-71.43C85.66,-72.83 93.99,-74.32 102.03,-75.76"/>
<polygon fill="#63b8ff" stroke="#63b8ff" points="101.18,-79.17 111.64,-77.48 102.41,-72.27 101.18,-79.17"/>
</a>
</g>
</g>
<!-- Node4 -->
<g id="Node000004" class="node">
<title>Node4</title>
<g id="a_Node000004"><a xlink:href="../../dc/d70/file-bin_8c.html#a17b4d982b45a1954c9c2b14594e53132" target="_top" xlink:title=" ">
<polygon fill="white" stroke="#666666" points="303,-56.25 216.5,-56.25 216.5,-37 303,-37 303,-56.25"/>
<text text-anchor="middle" x="259.75" y="-42.75" font-family="Helvetica,sans-Serif" font-size="10.00">file_bin_truncate</text>
</a>
</g>
</g>
<!-- Node1&#45;&gt;Node4 -->
<g id="edge7_Node000001_Node000004" class="edge">
<title>Node1&#45;&gt;Node4</title>
<g id="a_edge7_Node000001_Node000004"><a xlink:title=" ">
<path fill="none" stroke="#63b8ff" d="M77.9,-61.49C113.03,-58.6 165.53,-54.29 204.92,-51.05"/>
<polygon fill="#63b8ff" stroke="#63b8ff" points="204.99,-54.56 214.67,-50.25 204.41,-47.58 204.99,-54.56"/>
</a>
</g>
</g>
<!-- Node3 -->
<g id="Node000003" class="node">
<title>Node3</title>
<g id="a_Node000003"><a xlink:href="../../dc/d70/file-bin_8c.html#a1ad470a6677062a379358a64fd339144" target="_top" xlink:title=" ">
<polygon fill="white" stroke="#666666" points="291.75,-93.25 227.75,-93.25 227.75,-74 291.75,-74 291.75,-93.25"/>
<text text-anchor="middle" x="259.75" y="-79.75" font-family="Helvetica,sans-Serif" font-size="10.00">file_bin_tell</text>
</a>
</g>
</g>
<!-- Node2&#45;&gt;Node3 -->
<g id="edge2_Node000002_Node000003" class="edge">
<title>Node2&#45;&gt;Node3</title>
<g id="a_edge2_Node000002_Node000003"><a xlink:title=" ">
<path fill="none" stroke="#63b8ff" d="M180.93,-83.62C191.93,-83.62 204.35,-83.62 215.99,-83.62"/>
<polygon fill="#63b8ff" stroke="#63b8ff" points="215.77,-87.13 225.76,-83.63 215.76,-80.13 215.77,-87.13"/>
</a>
</g>
</g>
<!-- Node2&#45;&gt;Node4 -->
<g id="edge3_Node000002_Node000004" class="edge">
<title>Node2&#45;&gt;Node4</title>
<g id="a_edge3_Node000002_Node000004"><a xlink:title=" ">
<path fill="none" stroke="#63b8ff" d="M178.26,-73.51C190.47,-69.44 204.75,-64.67 217.86,-60.29"/>
<polygon fill="#63b8ff" stroke="#63b8ff" points="218.71,-63.69 227.09,-57.2 216.49,-57.05 218.71,-63.69"/>
</a>
</g>
</g>
<!-- Node5 -->
<g id="Node000005" class="node">
<title>Node5</title>
<g id="a_Node000005"><a xlink:href="../../dc/d70/file-bin_8c.html#a05cc53d9b844f219c71accceefcad6ec" target="_top" xlink:title=" ">
<polygon fill="white" stroke="#666666" points="410.88,-93.25 339.38,-93.25 339.38,-74 410.88,-74 410.88,-93.25"/>
<text text-anchor="middle" x="375.12" y="-79.75" font-family="Helvetica,sans-Serif" font-size="10.00">file_bin_flush</text>
</a>
</g>
</g>
<!-- Node4&#45;&gt;Node5 -->
<g id="edge4_Node000004_Node000005" class="edge">
<title>Node4&#45;&gt;Node5</title>
<g id="a_edge4_Node000004_Node000005"><a xlink:title=" ">
<path fill="none" stroke="#63b8ff" d="M291.73,-56.74C304.23,-60.81 318.84,-65.58 332.26,-69.96"/>
<polygon fill="#63b8ff" stroke="#63b8ff" points="331.15,-73.28 341.74,-73.06 333.32,-66.63 331.15,-73.28"/>
</a>
</g>
</g>
<!-- Node6 -->
<g id="Node000006" class="node">
<title>Node6</title>
<g id="a_Node000006"><a xlink:href="../../dc/d70/file-bin_8c.html#a8402efb2b8b9b591b4a76099222d707a" target="_top" xlink:title=" ">
<polygon fill="white" stroke="#666666" points="411.25,-56.25 339,-56.25 339,-37 411.25,-37 411.25,-56.25"/>
<text text-anchor="middle" x="375.12" y="-42.75" font-family="Helvetica,sans-Serif" font-size="10.00">file_bin_seek</text>
</a>
</g>
</g>
<!-- Node4&#45;&gt;Node6 -->
<g id="edge5_Node000004_Node000006" class="edge">
<title>Node4&#45;&gt;Node6</title>
<g id="a_edge5_Node000004_Node000006"><a xlink:title=" ">
<path fill="none" stroke="#63b8ff" d="M303.29,-46.62C311.14,-46.62 319.38,-46.62 327.35,-46.62"/>
<polygon fill="#63b8ff" stroke="#63b8ff" points="327.24,-50.13 337.24,-46.63 327.24,-43.13 327.24,-50.13"/>
</a>
</g>
</g>
<!-- Node7 -->
<g id="Node000007" class="node">
<title>Node7</title>
<g id="a_Node000007"><a xlink:href="../../d6/dd2/unix_8blk.html#a6090c3347d71212baa16b173e4c32137" target="_top" xlink:title=" ">
<polygon fill="white" stroke="#666666" points="404.5,-19.25 345.75,-19.25 345.75,0 404.5,0 404.5,-19.25"/>
<text text-anchor="middle" x="375.12" y="-5.75" font-family="Helvetica,sans-Serif" font-size="10.00">xftruncate</text>
</a>
</g>
</g>
<!-- Node4&#45;&gt;Node7 -->
<g id="edge6_Node000004_Node000007" class="edge">
<title>Node4&#45;&gt;Node7</title>
<g id="a_edge6_Node000004_Node000007"><a xlink:title=" ">
<path fill="none" stroke="#63b8ff" d="M291.73,-36.51C304.97,-32.19 320.59,-27.1 334.65,-22.51"/>
<polygon fill="#63b8ff" stroke="#63b8ff" points="335.66,-25.86 344.08,-19.43 333.48,-19.21 335.66,-25.86"/>
</a>
</g>
</g>
</g>
</svg>
</svg>

<style type='text/css'>
<![CDATA[
[data-mouse-over-selected='false'] { opacity: 0.7; }
[data-mouse-over-selected='true']  { opacity: 1.0; }
]]>
</style>
<script type="application/ecmascript"><![CDATA[
document.addEventListener('DOMContentLoaded', (event) => {
  highlightEdges();
  highlightAdjacentNodes();
});
]]></script>
</svg>
