<?xml version="1.0" encoding="UTF-8" standalone="no"?>
<!DOCTYPE svg PUBLIC "-//W3C//DTD SVG 1.1//EN"
 "http://www.w3.org/Graphics/SVG/1.1/DTD/svg11.dtd">
<!-- Generated by graphviz version 9.0.0 (20230911.1827)
 -->
<!-- Title: hpack_decoder_read_dts_update_ Pages: 1 -->
<!--zoomable 254 -->

<svg id="main" version="1.1" xmlns="http://www.w3.org/2000/svg" xmlns:xlink="http://www.w3.org/1999/xlink" xml:space="preserve" onload="init(evt)">
<style type="text/css"><![CDATA[
.node, .edge {opacity: 0.7;}
.node.selected, .edge.selected {opacity: 1;}
.edge:hover path { stroke: red; }
.edge:hover polygon { stroke: red; fill: red; }
]]></style>

<defs>
  <circle id="rim" cx="0" cy="0" r="7"/>
  <circle id="rim2" cx="0" cy="0" r="3.5"/>
  <g id="zoomPlus">
    <use xlink:href="#rim" fill="#404040"><set attributeName="fill" to="#808080" begin="zoomplus.mouseover" end="zoomplus.mouseout"/></use>
    <path d="M-4,0h8M0,-4v8" fill="none" stroke="white" stroke-width="1.5" pointer-events="none"/>
  </g>
  <g id="zoomMin">
    <use xlink:href="#rim" fill="#404040"><set attributeName="fill" to="#808080" begin="zoomminus.mouseover" end="zoomminus.mouseout"/></use>
    <path d="M-4,0h8" fill="none" stroke="white" stroke-width="1.5" pointer-events="none"/>
  </g>
  <g id="arrowUp" transform="translate(30 24)">
    <use xlink:href="#rim"/>
    <path pointer-events="none" fill="none" stroke="white" stroke-width="1.5" d="M0,-3.0v7 M-2.5,-0.5L0,-3.0L2.5,-0.5"/>
  </g>
  <g id="arrowRight" transform="rotate(90) translate(36 -43)">
    <use xlink:href="#rim"/>
    <path pointer-events="none" fill="none" stroke="white" stroke-width="1.5" d="M0,-3.0v7 M-2.5,-0.5L0,-3.0L2.5,-0.5"/>
  </g>
  <g id="arrowDown" transform="rotate(180) translate(-30 -48)">
    <use xlink:href="#rim"/>
    <path pointer-events="none" fill="none" stroke="white" stroke-width="1.5" d="M0,-3.0v7 M-2.5,-0.5L0,-3.0L2.5,-0.5"/>
  </g>
  <g id="arrowLeft" transform="rotate(270) translate(-36 17)">
    <use xlink:href="#rim"/>
    <path pointer-events="none" fill="none" stroke="white" stroke-width="1.5" d="M0,-3.0v7 M-2.5,-0.5L0,-3.0L2.5,-0.5"/>
  </g>
  <g id="resetDef">
    <use xlink:href="#rim2" fill="#404040"><set attributeName="fill" to="#808080" begin="reset.mouseover" end="reset.mouseout"/></use>
  </g>
</defs>
<script type="application/ecmascript">
var viewWidth = 1618;
var viewHeight = 254;
var sectionId = 'dynsection-15';
</script>
<script type="application/ecmascript" xlink:href="../../svg.min.js"/>
<svg id="graph" class="graph">
<g id="viewport">
<title>hpack_decoder_read_dts_update_</title>
<!-- Node1 -->
<g id="Node000001" class="node">
<title>Node1</title>
<g id="a_Node000001"><a xlink:title=" ">
<polygon fill="#999999" stroke="#666666" points="106,-163.09 0,-163.09 0,-132.59 106,-132.59 106,-163.09"/>
<text text-anchor="start" x="8" y="-149.59" font-family="Helvetica,sans-Serif" font-size="10.00">hpack_decoder_read</text>
<text text-anchor="middle" x="53" y="-138.34" font-family="Helvetica,sans-Serif" font-size="10.00">_dts_update_</text>
</a>
</g>
</g>
<!-- Node2 -->
<g id="Node000002" class="node">
<title>Node2</title>
<g id="a_Node000002"><a xlink:href="../../d9/dd5/hpack_8c.html#a2a68d624a8aaf9a86f8c3562fb74625a" target="_top" xlink:title=" ">
<polygon fill="white" stroke="#666666" points="257,-197.47 142,-197.47 142,-178.22 257,-178.22 257,-197.47"/>
<text text-anchor="middle" x="199.5" y="-183.97" font-family="Helvetica,sans-Serif" font-size="10.00">hpack_dec_dtbl_resize</text>
</a>
</g>
</g>
<!-- Node1&#45;&gt;Node2 -->
<g id="edge1_Node000001_Node000002" class="edge">
<title>Node1&#45;&gt;Node2</title>
<g id="a_edge1_Node000001_Node000002"><a xlink:title=" ">
<path fill="none" stroke="#63b8ff" d="M106.17,-162.28C120.98,-166.38 137.02,-170.82 151.51,-174.84"/>
<polygon fill="#63b8ff" stroke="#63b8ff" points="150.22,-178.11 160.79,-177.4 152.08,-171.36 150.22,-178.11"/>
</a>
</g>
</g>
<!-- Node28 -->
<g id="Node000028" class="node">
<title>Node28</title>
<g id="a_Node000028"><a xlink:href="../../d9/dd5/hpack_8c.html#a81f1f2daed95ed8a447ca6ea6ab60ef5" target="_top" xlink:title="Decode an HPACK&#45;coded integer from in to val.">
<polygon fill="white" stroke="#666666" points="246.88,-119.47 152.12,-119.47 152.12,-100.22 246.88,-100.22 246.88,-119.47"/>
<text text-anchor="middle" x="199.5" y="-105.97" font-family="Helvetica,sans-Serif" font-size="10.00">hpack_decode_int</text>
</a>
</g>
</g>
<!-- Node1&#45;&gt;Node28 -->
<g id="edge32_Node000001_Node000028" class="edge">
<title>Node1&#45;&gt;Node28</title>
<g id="a_edge32_Node000001_Node000028"><a xlink:title=" ">
<path fill="none" stroke="#63b8ff" d="M106.17,-134.12C120.2,-130.43 135.33,-126.45 149.2,-122.81"/>
<polygon fill="#63b8ff" stroke="#63b8ff" points="149.77,-126.28 158.55,-120.35 147.99,-119.51 149.77,-126.28"/>
</a>
</g>
</g>
<!-- Node31 -->
<g id="Node000031" class="node">
<title>Node31</title>
<g id="a_Node000031"><a xlink:href="../../d4/d86/str-stream_8h.html#ab34e4ed4459c611a797df76cab2e8846" target="_top" xlink:title=" ">
<polygon fill="white" stroke="#666666" points="596.38,-119.47 548.88,-119.47 548.88,-100.22 596.38,-100.22 596.38,-119.47"/>
<text text-anchor="middle" x="572.62" y="-105.97" font-family="Helvetica,sans-Serif" font-size="10.00">ps_has</text>
</a>
</g>
</g>
<!-- Node1&#45;&gt;Node31 -->
<g id="edge38_Node000001_Node000031" class="edge">
<title>Node1&#45;&gt;Node31</title>
<g id="a_edge38_Node000001_Node000031"><a xlink:title=" ">
<path fill="none" stroke="#63b8ff" d="M106.17,-149.24C189.75,-150.68 358.65,-150.24 499.75,-128.84 512.32,-126.94 525.86,-123.68 537.76,-120.4"/>
<polygon fill="#63b8ff" stroke="#63b8ff" points="538.49,-123.84 547.13,-117.71 536.55,-117.11 538.49,-123.84"/>
</a>
</g>
</g>
<!-- Node3 -->
<g id="Node000003" class="node">
<title>Node3</title>
<g id="a_Node000003"><a xlink:href="../../d9/dd5/hpack_8c.html#aea6f9fa284601f132f6860c5a1068d07" target="_top" xlink:title=" ">
<polygon fill="white" stroke="#666666" points="403.5,-206.09 293,-206.09 293,-175.59 403.5,-175.59 403.5,-206.09"/>
<text text-anchor="start" x="301" y="-192.59" font-family="Helvetica,sans-Serif" font-size="10.00">hpack_dec_dtbl_evict</text>
<text text-anchor="middle" x="348.25" y="-181.34" font-family="Helvetica,sans-Serif" font-size="10.00">_last_entry</text>
</a>
</g>
</g>
<!-- Node2&#45;&gt;Node3 -->
<g id="edge2_Node000002_Node000003" class="edge">
<title>Node2&#45;&gt;Node3</title>
<g id="a_edge2_Node000002_Node000003"><a xlink:title=" ">
<path fill="none" stroke="#63b8ff" d="M257.24,-189C265.13,-189.16 273.3,-189.33 281.34,-189.49"/>
<polygon fill="#63b8ff" stroke="#63b8ff" points="281.01,-192.99 291.08,-189.69 281.15,-185.99 281.01,-192.99"/>
</a>
</g>
</g>
<!-- Node4 -->
<g id="Node000004" class="node">
<title>Node4</title>
<g id="a_Node000004"><a xlink:href="../../df/d0a/str-l_8h.html#ad74dae07179370f3c22e3f026157926e" target="_top" xlink:title="wipe a lstr_t (frees memory if needed).">
<polygon fill="white" stroke="#666666" points="497.12,-200.47 442.12,-200.47 442.12,-181.22 497.12,-181.22 497.12,-200.47"/>
<text text-anchor="middle" x="469.62" y="-186.97" font-family="Helvetica,sans-Serif" font-size="10.00">lstr_wipe</text>
</a>
</g>
</g>
<!-- Node3&#45;&gt;Node4 -->
<g id="edge3_Node000003_Node000004" class="edge">
<title>Node3&#45;&gt;Node4</title>
<g id="a_edge3_Node000003_Node000004"><a xlink:title=" ">
<path fill="none" stroke="#63b8ff" d="M403.7,-190.84C412.73,-190.84 421.91,-190.84 430.43,-190.84"/>
<polygon fill="#63b8ff" stroke="#63b8ff" points="430.42,-194.34 440.42,-190.84 430.42,-187.34 430.42,-194.34"/>
</a>
</g>
</g>
<!-- Node5 -->
<g id="Node000005" class="node">
<title>Node5</title>
<g id="a_Node000005"><a xlink:href="../../df/d0a/str-l_8h.html#a381cd831ac9616c5bea8213bb679d1ac" target="_top" xlink:title="Wipe a lstr_t (frees memory if needed).">
<polygon fill="white" stroke="#666666" points="609.5,-159.47 535.75,-159.47 535.75,-140.22 609.5,-140.22 609.5,-159.47"/>
<text text-anchor="middle" x="572.62" y="-145.97" font-family="Helvetica,sans-Serif" font-size="10.00">mp_lstr_wipe</text>
</a>
</g>
</g>
<!-- Node4&#45;&gt;Node5 -->
<g id="edge4_Node000004_Node000005" class="edge">
<title>Node4&#45;&gt;Node5</title>
<g id="a_edge4_Node000004_Node000005"><a xlink:title=" ">
<path fill="none" stroke="#63b8ff" d="M495.33,-180.81C507.68,-175.8 522.85,-169.64 536.39,-164.15"/>
<polygon fill="#63b8ff" stroke="#63b8ff" points="537.47,-167.48 545.42,-160.48 534.84,-161 537.47,-167.48"/>
</a>
</g>
</g>
<!-- Node6 -->
<g id="Node000006" class="node">
<title>Node6</title>
<g id="a_Node000006"><a xlink:href="../../de/d04/str-l_8c.html#abe2a3a71f0b4dbc7d37c59d16762b6fb" target="_top" xlink:title="lstr_copy_* helper.">
<polygon fill="white" stroke="#666666" points="724.5,-142.47 645.5,-142.47 645.5,-123.22 724.5,-123.22 724.5,-142.47"/>
<text text-anchor="middle" x="685" y="-128.97" font-family="Helvetica,sans-Serif" font-size="10.00">mp_lstr_copy_</text>
</a>
</g>
</g>
<!-- Node5&#45;&gt;Node6 -->
<g id="edge5_Node000005_Node000006" class="edge">
<title>Node5&#45;&gt;Node6</title>
<g id="a_edge5_Node000005_Node000006"><a xlink:title=" ">
<path fill="none" stroke="#63b8ff" d="M609.77,-144.28C617.46,-143.09 625.71,-141.82 633.82,-140.57"/>
<polygon fill="#63b8ff" stroke="#63b8ff" points="634.27,-144.04 643.62,-139.06 633.2,-137.12 634.27,-144.04"/>
</a>
</g>
</g>
<!-- Node7 -->
<g id="Node000007" class="node">
<title>Node7</title>
<g id="a_Node000007"><a xlink:href="../../d9/d9a/mem_8h.html#aebbbd277e2952bdb802104671ba23ba9" target="_top" xlink:title=" ">
<polygon fill="white" stroke="#666666" points="795.25,-142.47 760.5,-142.47 760.5,-123.22 795.25,-123.22 795.25,-142.47"/>
<text text-anchor="middle" x="777.88" y="-128.97" font-family="Helvetica,sans-Serif" font-size="10.00">ifree</text>
</a>
</g>
</g>
<!-- Node6&#45;&gt;Node7 -->
<g id="edge6_Node000006_Node000007" class="edge">
<title>Node6&#45;&gt;Node7</title>
<g id="a_edge6_Node000006_Node000007"><a xlink:title=" ">
<path fill="none" stroke="#63b8ff" d="M724.8,-132.84C732.81,-132.84 741.1,-132.84 748.65,-132.84"/>
<polygon fill="#63b8ff" stroke="#63b8ff" points="748.59,-136.34 758.59,-132.84 748.59,-129.34 748.59,-136.34"/>
</a>
</g>
</g>
<!-- Node17 -->
<g id="Node000017" class="node">
<title>Node17</title>
<g id="a_Node000017"><a xlink:href="../../df/d0a/str-l_8h.html#a3b4dbe9c4cc70340cba0787574dc1c5e" target="_top" xlink:title=" ">
<polygon fill="white" stroke="#666666" points="1610,-67.47 1557.25,-67.47 1557.25,-48.22 1610,-48.22 1610,-67.47"/>
<text text-anchor="middle" x="1583.62" y="-53.97" font-family="Helvetica,sans-Serif" font-size="10.00">lstr_init_</text>
</a>
</g>
</g>
<!-- Node6&#45;&gt;Node17 -->
<g id="edge31_Node000006_Node000017" class="edge">
<title>Node6&#45;&gt;Node17</title>
<g id="a_edge31_Node000006_Node000017"><a xlink:title=" ">
<path fill="none" stroke="#63b8ff" d="M706.02,-122.87C712.1,-119.59 718.7,-115.77 724.5,-111.84 787.84,-68.87 780.46,-1.84 857,-1.84 857,-1.84 857,-1.84 1334.75,-1.84 1418.07,-1.84 1442.21,5.53 1521.25,-20.84 1535.17,-25.48 1549.28,-33.7 1560.46,-41.21"/>
<polygon fill="#63b8ff" stroke="#63b8ff" points="1558.38,-44.03 1568.58,-46.92 1562.41,-38.3 1558.38,-44.03"/>
</a>
</g>
</g>
<!-- Node8 -->
<g id="Node000008" class="node">
<title>Node8</title>
<g id="a_Node000008"><a xlink:href="../../d8/d37/mem_8blk.html#a36b65ab346f1d0deed7b63c544c78f2b" target="_top" xlink:title=" ">
<polygon fill="white" stroke="#666666" points="876.12,-125.47 839.88,-125.47 839.88,-106.22 876.12,-106.22 876.12,-125.47"/>
<text text-anchor="middle" x="858" y="-111.97" font-family="Helvetica,sans-Serif" font-size="10.00">ipool</text>
</a>
</g>
</g>
<!-- Node7&#45;&gt;Node8 -->
<g id="edge7_Node000007_Node000008" class="edge">
<title>Node7&#45;&gt;Node8</title>
<g id="a_edge7_Node000007_Node000008"><a xlink:title=" ">
<path fill="none" stroke="#63b8ff" d="M795.44,-129.24C805.08,-127.14 817.5,-124.44 828.65,-122.01"/>
<polygon fill="#63b8ff" stroke="#63b8ff" points="829.14,-125.49 838.16,-119.94 827.65,-118.65 829.14,-125.49"/>
</a>
</g>
</g>
<!-- Node27 -->
<g id="Node000027" class="node">
<title>Node27</title>
<g id="a_Node000027"><a xlink:href="../../d8/d37/mem_8blk.html#a83c7cf203e5eef9d1a8c6c43cde3e2e5" target="_top" xlink:title=" ">
<polygon fill="white" stroke="#666666" points="884.75,-162.47 831.25,-162.47 831.25,-143.22 884.75,-143.22 884.75,-162.47"/>
<text text-anchor="middle" x="858" y="-148.97" font-family="Helvetica,sans-Serif" font-size="10.00">mp_ifree</text>
</a>
</g>
</g>
<!-- Node7&#45;&gt;Node27 -->
<g id="edge30_Node000007_Node000027" class="edge">
<title>Node7&#45;&gt;Node27</title>
<g id="a_edge30_Node000007_Node000027"><a xlink:title=" ">
<path fill="none" stroke="#63b8ff" d="M795.44,-137.08C802.61,-138.92 811.3,-141.14 819.87,-143.34"/>
<polygon fill="#63b8ff" stroke="#63b8ff" points="818.9,-146.7 829.46,-145.79 820.64,-139.92 818.9,-146.7"/>
</a>
</g>
</g>
<!-- Node9 -->
<g id="Node000009" class="node">
<title>Node9</title>
<g id="a_Node000009"><a xlink:href="../../d7/df8/log_8c.html#abca342edf91a9b45f7a17ef564fa8a53" target="_top" xlink:title=" ">
<polygon fill="white" stroke="#666666" points="970.5,-125.47 920.75,-125.47 920.75,-106.22 970.5,-106.22 970.5,-125.47"/>
<text text-anchor="middle" x="945.62" y="-111.97" font-family="Helvetica,sans-Serif" font-size="10.00">e_panic</text>
</a>
</g>
</g>
<!-- Node8&#45;&gt;Node9 -->
<g id="edge8_Node000008_Node000009" class="edge">
<title>Node8&#45;&gt;Node9</title>
<g id="a_edge8_Node000008_Node000009"><a xlink:title=" ">
<path fill="none" stroke="#63b8ff" d="M876.33,-115.84C885.76,-115.84 897.78,-115.84 909.1,-115.84"/>
<polygon fill="#63b8ff" stroke="#63b8ff" points="909,-119.34 919,-115.84 909,-112.34 909,-119.34"/>
</a>
</g>
</g>
<!-- Node26 -->
<g id="Node000026" class="node">
<title>Node26</title>
<g id="a_Node000026"><a xlink:href="../../d1/d10/mem-stack_8h.html#a1d0e2a29f86dc033a02e50484b527fd0" target="_top" xlink:title=" ">
<polygon fill="white" stroke="#666666" points="966.75,-162.47 924.5,-162.47 924.5,-143.22 966.75,-143.22 966.75,-162.47"/>
<text text-anchor="middle" x="945.62" y="-148.97" font-family="Helvetica,sans-Serif" font-size="10.00">t_pool</text>
</a>
</g>
</g>
<!-- Node8&#45;&gt;Node26 -->
<g id="edge29_Node000008_Node000026" class="edge">
<title>Node8&#45;&gt;Node26</title>
<g id="a_edge29_Node000008_Node000026"><a xlink:title=" ">
<path fill="none" stroke="#63b8ff" d="M876.33,-123.33C886.99,-127.94 900.96,-133.97 913.49,-139.39"/>
<polygon fill="#63b8ff" stroke="#63b8ff" points="912.05,-142.58 922.61,-143.33 914.82,-136.15 912.05,-142.58"/>
</a>
</g>
</g>
<!-- Node10 -->
<g id="Node000010" class="node">
<title>Node10</title>
<g id="a_Node000010"><a xlink:href="../../d7/df8/log_8c.html#a4bc04f7baa1e064cb0b93c7b9f3a61a1" target="_top" xlink:title=" ">
<polygon fill="white" stroke="#666666" points="1094.5,-125.47 1006.5,-125.47 1006.5,-106.22 1094.5,-106.22 1094.5,-125.47"/>
<text text-anchor="middle" x="1050.5" y="-111.97" font-family="Helvetica,sans-Serif" font-size="10.00">__logger_refresh</text>
</a>
</g>
</g>
<!-- Node9&#45;&gt;Node10 -->
<g id="edge9_Node000009_Node000010" class="edge">
<title>Node9&#45;&gt;Node10</title>
<g id="a_edge9_Node000009_Node000010"><a xlink:title=" ">
<path fill="none" stroke="#63b8ff" d="M970.74,-115.84C978.01,-115.84 986.3,-115.84 994.72,-115.84"/>
<polygon fill="#63b8ff" stroke="#63b8ff" points="994.66,-119.34 1004.66,-115.84 994.66,-112.34 994.66,-119.34"/>
</a>
</g>
</g>
<!-- Node21 -->
<g id="Node000021" class="node">
<title>Node21</title>
<g id="a_Node000021"><a xlink:href="../../d7/df8/log_8c.html#a900490b26df7698aac12f7f7e6517e81" target="_top" xlink:title=" ">
<polygon fill="white" stroke="#666666" points="1083.25,-87.47 1017.75,-87.47 1017.75,-68.22 1083.25,-68.22 1083.25,-87.47"/>
<text text-anchor="middle" x="1050.5" y="-73.97" font-family="Helvetica,sans-Serif" font-size="10.00">logger_vlog</text>
</a>
</g>
</g>
<!-- Node9&#45;&gt;Node21 -->
<g id="edge23_Node000009_Node000021" class="edge">
<title>Node9&#45;&gt;Node21</title>
<g id="a_edge23_Node000009_Node000021"><a xlink:title=" ">
<path fill="none" stroke="#63b8ff" d="M970.74,-106.93C982.93,-102.43 997.99,-96.87 1011.67,-91.81"/>
<polygon fill="#63b8ff" stroke="#63b8ff" points="1012.68,-95.17 1020.85,-88.43 1010.25,-88.61 1012.68,-95.17"/>
</a>
</g>
</g>
<!-- Node25 -->
<g id="Node000025" class="node">
<title>Node25</title>
<g id="a_Node000025"><a xlink:href="../../d2/d4d/file_8h.html#a25419a391fdd4ad7954699c58cfeb3b9" target="_top" xlink:title=" ">
<polygon fill="white" stroke="#666666" points="1076.12,-162.47 1024.88,-162.47 1024.88,-143.22 1076.12,-143.22 1076.12,-162.47"/>
<text text-anchor="middle" x="1050.5" y="-148.97" font-family="Helvetica,sans-Serif" font-size="10.00">va_start</text>
</a>
</g>
</g>
<!-- Node9&#45;&gt;Node25 -->
<g id="edge28_Node000009_Node000025" class="edge">
<title>Node9&#45;&gt;Node25</title>
<g id="a_edge28_Node000009_Node000025"><a xlink:title=" ">
<path fill="none" stroke="#63b8ff" d="M970.74,-124.52C983.62,-129.15 999.7,-134.93 1013.98,-140.07"/>
<polygon fill="#63b8ff" stroke="#63b8ff" points="1012.44,-143.23 1023.03,-143.32 1014.81,-136.65 1012.44,-143.23"/>
</a>
</g>
</g>
<!-- Node11 -->
<g id="Node000011" class="node">
<title>Node11</title>
<g id="a_Node000011"><a xlink:href="../../d7/df8/log_8c.html#a3dbd75fb614210f0b114cfd03c9c0a7b" target="_top" xlink:title=" ">
<polygon fill="white" stroke="#666666" points="1234.25,-199.47 1130.5,-199.47 1130.5,-180.22 1234.25,-180.22 1234.25,-199.47"/>
<text text-anchor="middle" x="1182.38" y="-185.97" font-family="Helvetica,sans-Serif" font-size="10.00">__logger_do_refresh</text>
</a>
</g>
</g>
<!-- Node10&#45;&gt;Node11 -->
<g id="edge10_Node000010_Node000011" class="edge">
<title>Node10&#45;&gt;Node11</title>
<g id="a_edge10_Node000010_Node000011"><a xlink:title=" ">
<path fill="none" stroke="#63b8ff" d="M1080.14,-125.85C1085.12,-128.14 1090.1,-130.81 1094.5,-133.84 1113.64,-147.06 1110.99,-159.17 1130.5,-171.84 1132.12,-172.9 1133.81,-173.9 1135.55,-174.84"/>
<polygon fill="#63b8ff" stroke="#63b8ff" points="1133.96,-177.97 1144.5,-179.08 1136.96,-171.64 1133.96,-177.97"/>
</a>
</g>
</g>
<!-- Node19 -->
<g id="Node000019" class="node">
<title>Node19</title>
<g id="a_Node000019"><a xlink:href="../../d7/df8/log_8c.html#a7b1b02d1986e1247c2f571af4a2c2854" target="_top" xlink:title=" ">
<polygon fill="white" stroke="#666666" points="1220,-125.47 1144.75,-125.47 1144.75,-106.22 1220,-106.22 1220,-125.47"/>
<text text-anchor="middle" x="1182.38" y="-111.97" font-family="Helvetica,sans-Serif" font-size="10.00">log_spin_lock</text>
</a>
</g>
</g>
<!-- Node10&#45;&gt;Node19 -->
<g id="edge21_Node000010_Node000019" class="edge">
<title>Node10&#45;&gt;Node19</title>
<g id="a_edge21_Node000010_Node000019"><a xlink:title=" ">
<path fill="none" stroke="#63b8ff" d="M1094.75,-115.84C1107.06,-115.84 1120.55,-115.84 1133.15,-115.84"/>
<polygon fill="#63b8ff" stroke="#63b8ff" points="1132.89,-119.34 1142.89,-115.84 1132.89,-112.34 1132.89,-119.34"/>
</a>
</g>
</g>
<!-- Node20 -->
<g id="Node000020" class="node">
<title>Node20</title>
<g id="a_Node000020"><a xlink:href="../../d1/dc0/group__log.html#ga045020bb4af234632f7761f220131c69" target="_top" xlink:title=" ">
<polygon fill="white" stroke="#666666" points="1225.25,-162.47 1139.5,-162.47 1139.5,-143.22 1225.25,-143.22 1225.25,-162.47"/>
<text text-anchor="middle" x="1182.38" y="-148.97" font-family="Helvetica,sans-Serif" font-size="10.00">log_spin_unlock</text>
</a>
</g>
</g>
<!-- Node10&#45;&gt;Node20 -->
<g id="edge22_Node000010_Node000020" class="edge">
<title>Node10&#45;&gt;Node20</title>
<g id="a_edge22_Node000010_Node000020"><a xlink:title=" ">
<path fill="none" stroke="#63b8ff" d="M1086.99,-125.95C1101.88,-130.19 1119.39,-135.18 1135.26,-139.7"/>
<polygon fill="#63b8ff" stroke="#63b8ff" points="1133.9,-142.96 1144.47,-142.33 1135.82,-136.22 1133.9,-142.96"/>
</a>
</g>
</g>
<!-- Node11&#45;&gt;Node4 -->
<g id="edge20_Node000011_Node000004" class="edge">
<title>Node11&#45;&gt;Node4</title>
<g id="a_edge20_Node000011_Node000004"><a xlink:title=" ">
<path fill="none" stroke="#63b8ff" d="M1130.09,-190.19C1082.53,-190.48 1009.8,-190.84 946.62,-190.84 684,-190.84 684,-190.84 684,-190.84 622.71,-190.84 551.52,-190.84 508.83,-190.84"/>
<polygon fill="#63b8ff" stroke="#63b8ff" points="509.09,-187.34 499.09,-190.84 509.09,-194.34 509.09,-187.34"/>
</a>
</g>
</g>
<!-- Node11&#45;&gt;Node11 -->
<g id="edge11_Node000011_Node000011" class="edge">
<title>Node11&#45;&gt;Node11</title>
<g id="a_edge11_Node000011_Node000011"><a xlink:title=" ">
<path fill="none" stroke="#63b8ff" d="M1161.73,-199.76C1152.31,-208.36 1159.19,-217.47 1182.38,-217.47 1195.05,-217.47 1202.85,-214.74 1205.78,-210.87"/>
<polygon fill="#63b8ff" stroke="#63b8ff" points="1209.19,-210.08 1203.39,-201.22 1202.4,-211.77 1209.19,-210.08"/>
</a>
</g>
</g>
<!-- Node12 -->
<g id="Node000012" class="node">
<title>Node12</title>
<g id="a_Node000012"><a xlink:href="../../de/d1a/container-dlist_8h.html#a3b6f65860b212e28f2e28e71eb54d54d" target="_top" xlink:title="Add element e at the head of list l (suited for LIFO).">
<polygon fill="white" stroke="#666666" points="1361.25,-199.47 1306.25,-199.47 1306.25,-180.22 1361.25,-180.22 1361.25,-199.47"/>
<text text-anchor="middle" x="1333.75" y="-185.97" font-family="Helvetica,sans-Serif" font-size="10.00">dlist_add</text>
</a>
</g>
</g>
<!-- Node11&#45;&gt;Node12 -->
<g id="edge12_Node000011_Node000012" class="edge">
<title>Node11&#45;&gt;Node12</title>
<g id="a_edge12_Node000011_Node000012"><a xlink:title=" ">
<path fill="none" stroke="#63b8ff" d="M1234.36,-189.84C1254.05,-189.84 1276.19,-189.84 1294.48,-189.84"/>
<polygon fill="#63b8ff" stroke="#63b8ff" points="1294.36,-193.34 1304.36,-189.84 1294.36,-186.34 1294.36,-193.34"/>
</a>
</g>
</g>
<!-- Node14 -->
<g id="Node000014" class="node">
<title>Node14</title>
<g id="a_Node000014"><a xlink:href="../../de/d1a/container-dlist_8h.html#a0a69e401f6ec15966c891e96ad864c77" target="_top" xlink:title="Put a dlist_t element in a safe and detached state.">
<polygon fill="white" stroke="#666666" points="1359.75,-162.47 1307.75,-162.47 1307.75,-143.22 1359.75,-143.22 1359.75,-162.47"/>
<text text-anchor="middle" x="1333.75" y="-148.97" font-family="Helvetica,sans-Serif" font-size="10.00">dlist_init</text>
</a>
</g>
</g>
<!-- Node11&#45;&gt;Node14 -->
<g id="edge14_Node000011_Node000014" class="edge">
<title>Node11&#45;&gt;Node14</title>
<g id="a_edge14_Node000011_Node000014"><a xlink:title=" ">
<path fill="none" stroke="#63b8ff" d="M1224.19,-179.73C1246.74,-174.15 1274.52,-167.26 1296.34,-161.86"/>
<polygon fill="#63b8ff" stroke="#63b8ff" points="1297.12,-165.27 1305.98,-159.47 1295.44,-158.48 1297.12,-165.27"/>
</a>
</g>
</g>
<!-- Node15 -->
<g id="Node000015" class="node">
<title>Node15</title>
<g id="a_Node000015"><a xlink:href="../../d7/df8/log_8c.html#a4c8fbe8648573312126ce341cf34cba1" target="_top" xlink:title=" ">
<polygon fill="white" stroke="#666666" points="1397.25,-236.47 1270.25,-236.47 1270.25,-217.22 1397.25,-217.22 1397.25,-236.47"/>
<text text-anchor="middle" x="1333.75" y="-222.97" font-family="Helvetica,sans-Serif" font-size="10.00">logger_compute_fullname</text>
</a>
</g>
</g>
<!-- Node11&#45;&gt;Node15 -->
<g id="edge15_Node000011_Node000015" class="edge">
<title>Node11&#45;&gt;Node15</title>
<g id="a_edge15_Node000011_Node000015"><a xlink:title=" ">
<path fill="none" stroke="#63b8ff" d="M1224.19,-199.95C1241.73,-204.3 1262.43,-209.42 1281.02,-214.03"/>
<polygon fill="#63b8ff" stroke="#63b8ff" points="1279.96,-217.37 1290.51,-216.38 1281.65,-210.58 1279.96,-217.37"/>
</a>
</g>
</g>
<!-- Node18 -->
<g id="Node000018" class="node">
<title>Node18</title>
<g id="a_Node000018"><a xlink:href="../../df/d0a/str-l_8h.html#a963c22b229774d4b7c106bae4011cb8e" target="_top" xlink:title="Returns whether \v s1 and \v s2 contents are equal.">
<polygon fill="white" stroke="#666666" points="1362.75,-125.47 1304.75,-125.47 1304.75,-106.22 1362.75,-106.22 1362.75,-125.47"/>
<text text-anchor="middle" x="1333.75" y="-111.97" font-family="Helvetica,sans-Serif" font-size="10.00">lstr_equal</text>
</a>
</g>
</g>
<!-- Node11&#45;&gt;Node18 -->
<g id="edge19_Node000011_Node000018" class="edge">
<title>Node11&#45;&gt;Node18</title>
<g id="a_edge19_Node000011_Node000018"><a xlink:title=" ">
<path fill="none" stroke="#63b8ff" d="M1218.89,-179.73C1224.24,-177.52 1229.54,-174.91 1234.25,-171.84 1253.76,-159.17 1250.37,-145.93 1270.25,-133.84 1277.27,-129.57 1285.34,-126.28 1293.3,-123.75"/>
<polygon fill="#63b8ff" stroke="#63b8ff" points="1294.22,-127.13 1302.91,-121.06 1292.34,-120.38 1294.22,-127.13"/>
</a>
</g>
</g>
<!-- Node13 -->
<g id="Node000013" class="node">
<title>Node13</title>
<g id="a_Node000013"><a xlink:href="../../de/d1a/container-dlist_8h.html#a71e7667ca0e4b896923788c5851afd24" target="_top" xlink:title="Put element e between prev and next.">
<polygon fill="white" stroke="#666666" points="1510,-142.47 1444.5,-142.47 1444.5,-123.22 1510,-123.22 1510,-142.47"/>
<text text-anchor="middle" x="1477.25" y="-128.97" font-family="Helvetica,sans-Serif" font-size="10.00">__dlist_add</text>
</a>
</g>
</g>
<!-- Node12&#45;&gt;Node13 -->
<g id="edge13_Node000012_Node000013" class="edge">
<title>Node12&#45;&gt;Node13</title>
<g id="a_edge13_Node000012_Node000013"><a xlink:title=" ">
<path fill="none" stroke="#63b8ff" d="M1361.71,-183.64C1372.92,-180.66 1385.93,-176.68 1397.25,-171.84 1414.28,-164.56 1416.67,-159.1 1433.25,-150.84 1435.49,-149.73 1437.81,-148.62 1440.16,-147.53"/>
<polygon fill="#63b8ff" stroke="#63b8ff" points="1441.41,-150.81 1449.15,-143.57 1438.59,-144.4 1441.41,-150.81"/>
</a>
</g>
</g>
<!-- Node15&#45;&gt;Node4 -->
<g id="edge18_Node000015_Node000004" class="edge">
<title>Node15&#45;&gt;Node4</title>
<g id="a_edge18_Node000015_Node000004"><a xlink:title=" ">
<path fill="none" stroke="#63b8ff" d="M1270,-233.51C1213.06,-238.99 1126.74,-245.84 1051.5,-245.84 684,-245.84 684,-245.84 684,-245.84 618.82,-245.84 545.89,-221.48 504.39,-205.18"/>
<polygon fill="#63b8ff" stroke="#63b8ff" points="505.79,-201.97 495.21,-201.49 503.18,-208.47 505.79,-201.97"/>
</a>
</g>
</g>
<!-- Node16 -->
<g id="Node000016" class="node">
<title>Node16</title>
<g id="a_Node000016"><a xlink:href="../../df/d0a/str-l_8h.html#a6a200ca09358f19b13a8e297cda34869" target="_top" xlink:title="returns a constant copy of \v s.">
<polygon fill="white" stroke="#666666" points="1505.12,-179.47 1449.38,-179.47 1449.38,-160.22 1505.12,-160.22 1505.12,-179.47"/>
<text text-anchor="middle" x="1477.25" y="-165.97" font-family="Helvetica,sans-Serif" font-size="10.00">lstr_dupc</text>
</a>
</g>
</g>
<!-- Node15&#45;&gt;Node16 -->
<g id="edge16_Node000015_Node000016" class="edge">
<title>Node15&#45;&gt;Node16</title>
<g id="a_edge16_Node000015_Node000016"><a xlink:title=" ">
<path fill="none" stroke="#63b8ff" d="M1373.78,-216.76C1381.64,-214.41 1389.77,-211.74 1397.25,-208.84 1414.58,-202.13 1433.26,-193 1448.1,-185.27"/>
<polygon fill="#63b8ff" stroke="#63b8ff" points="1449.62,-188.42 1456.81,-180.64 1446.34,-182.24 1449.62,-188.42"/>
</a>
</g>
</g>
<!-- Node16&#45;&gt;Node17 -->
<g id="edge17_Node000016_Node000017" class="edge">
<title>Node16&#45;&gt;Node17</title>
<g id="a_edge17_Node000016_Node000017"><a xlink:title=" ">
<path fill="none" stroke="#63b8ff" d="M1505.57,-161.3C1511.11,-158.8 1516.65,-155.67 1521.25,-151.84 1545.64,-131.53 1563.83,-99.03 1573.85,-78.06"/>
<polygon fill="#63b8ff" stroke="#63b8ff" points="1576.96,-79.67 1577.93,-69.12 1570.59,-76.76 1576.96,-79.67"/>
</a>
</g>
</g>
<!-- Node21&#45;&gt;Node16 -->
<g id="edge27_Node000021_Node000016" class="edge">
<title>Node21&#45;&gt;Node16</title>
<g id="a_edge27_Node000021_Node000016"><a xlink:title=" ">
<path fill="none" stroke="#63b8ff" d="M1083.58,-76C1158.87,-72.25 1344.52,-66.44 1397.25,-96.84 1422.56,-111.44 1410.79,-133.16 1433.25,-151.84 1435.12,-153.4 1437.14,-154.84 1439.26,-156.16"/>
<polygon fill="#63b8ff" stroke="#63b8ff" points="1437.12,-158.99 1447.6,-160.58 1440.4,-152.81 1437.12,-158.99"/>
</a>
</g>
</g>
<!-- Node22 -->
<g id="Node000022" class="node">
<title>Node22</title>
<g id="a_Node000022"><a xlink:href="../../d1/dc0/group__log.html#ga168a6f17b248f61f7d25a17d58d04e36" target="_top" xlink:title=" ">
<polygon fill="white" stroke="#666666" points="1226.75,-49.47 1138,-49.47 1138,-30.22 1226.75,-30.22 1226.75,-49.47"/>
<text text-anchor="middle" x="1182.38" y="-35.97" font-family="Helvetica,sans-Serif" font-size="10.00">logger_has_level</text>
</a>
</g>
</g>
<!-- Node21&#45;&gt;Node22 -->
<g id="edge24_Node000021_Node000022" class="edge">
<title>Node21&#45;&gt;Node22</title>
<g id="a_edge24_Node000021_Node000022"><a xlink:title=" ">
<path fill="none" stroke="#63b8ff" d="M1083.6,-68.45C1099.38,-63.83 1118.66,-58.19 1135.92,-53.14"/>
<polygon fill="#63b8ff" stroke="#63b8ff" points="1136.84,-56.52 1145.46,-50.35 1134.88,-49.8 1136.84,-56.52"/>
</a>
</g>
</g>
<!-- Node23 -->
<g id="Node000023" class="node">
<title>Node23</title>
<g id="a_Node000023"><a xlink:href="../../d1/dc0/group__log.html#gaf388752b988541da0abeceecdf96e6b3" target="_top" xlink:title=" ">
<polygon fill="white" stroke="#666666" points="1377,-49.47 1290.5,-49.47 1290.5,-30.22 1377,-30.22 1377,-49.47"/>
<text text-anchor="middle" x="1333.75" y="-35.97" font-family="Helvetica,sans-Serif" font-size="10.00">logger_get_level</text>
</a>
</g>
</g>
<!-- Node22&#45;&gt;Node23 -->
<g id="edge25_Node000022_Node000023" class="edge">
<title>Node22&#45;&gt;Node23</title>
<g id="a_edge25_Node000022_Node000023"><a xlink:title=" ">
<path fill="none" stroke="#63b8ff" d="M1226.98,-39.84C1243.14,-39.84 1261.67,-39.84 1278.65,-39.84"/>
<polygon fill="#63b8ff" stroke="#63b8ff" points="1278.61,-43.34 1288.61,-39.84 1278.61,-36.34 1278.61,-43.34"/>
</a>
</g>
</g>
<!-- Node24 -->
<g id="Node000024" class="node">
<title>Node24</title>
<g id="a_Node000024"><a xlink:href="../../d1/dc0/group__log.html#ga93cbd623096e1704532d15b3eb30e42f" target="_top" xlink:title=" ">
<polygon fill="white" stroke="#666666" points="1521.25,-49.47 1433.25,-49.47 1433.25,-30.22 1521.25,-30.22 1521.25,-49.47"/>
<text text-anchor="middle" x="1477.25" y="-35.97" font-family="Helvetica,sans-Serif" font-size="10.00">__logger_refresh</text>
</a>
</g>
</g>
<!-- Node23&#45;&gt;Node24 -->
<g id="edge26_Node000023_Node000024" class="edge">
<title>Node23&#45;&gt;Node24</title>
<g id="a_edge26_Node000023_Node000024"><a xlink:title=" ">
<path fill="none" stroke="#63b8ff" d="M1377.2,-39.84C1391.08,-39.84 1406.69,-39.84 1421.35,-39.84"/>
<polygon fill="#63b8ff" stroke="#63b8ff" points="1421.33,-43.34 1431.33,-39.84 1421.33,-36.34 1421.33,-43.34"/>
</a>
</g>
</g>
<!-- Node29 -->
<g id="Node000029" class="node">
<title>Node29</title>
<g id="a_Node000029"><a xlink:href="../../d4/d86/str-stream_8h.html#ae7e79a0c55fae102e38e4362cc43dce1" target="_top" xlink:title=" ">
<polygon fill="white" stroke="#666666" points="378.75,-119.47 317.75,-119.47 317.75,-100.22 378.75,-100.22 378.75,-119.47"/>
<text text-anchor="middle" x="348.25" y="-105.97" font-family="Helvetica,sans-Serif" font-size="10.00">__ps_getc</text>
</a>
</g>
</g>
<!-- Node28&#45;&gt;Node29 -->
<g id="edge33_Node000028_Node000029" class="edge">
<title>Node28&#45;&gt;Node29</title>
<g id="a_edge33_Node000028_Node000029"><a xlink:title=" ">
<path fill="none" stroke="#63b8ff" d="M247.34,-109.84C266.19,-109.84 287.75,-109.84 306,-109.84"/>
<polygon fill="#63b8ff" stroke="#63b8ff" points="305.94,-113.34 315.94,-109.84 305.94,-106.34 305.94,-113.34"/>
</a>
</g>
</g>
<!-- Node32 -->
<g id="Node000032" class="node">
<title>Node32</title>
<g id="a_Node000032"><a xlink:href="../../d4/d86/str-stream_8h.html#a171f7ecffb1d3846b226cd8d7016aed7" target="_top" xlink:title=" ">
<polygon fill="white" stroke="#666666" points="711.38,-102.47 658.62,-102.47 658.62,-83.22 711.38,-83.22 711.38,-102.47"/>
<text text-anchor="middle" x="685" y="-88.97" font-family="Helvetica,sans-Serif" font-size="10.00">ps_done</text>
</a>
</g>
</g>
<!-- Node28&#45;&gt;Node32 -->
<g id="edge37_Node000028_Node000032" class="edge">
<title>Node28&#45;&gt;Node32</title>
<g id="a_edge37_Node000028_Node000032"><a xlink:title=" ">
<path fill="none" stroke="#63b8ff" d="M240.75,-99.73C256.88,-96.16 275.71,-92.6 293,-90.84 422.6,-77.67 577.61,-85.37 647.11,-90.05"/>
<polygon fill="#63b8ff" stroke="#63b8ff" points="646.56,-93.52 656.78,-90.72 647.05,-86.54 646.56,-93.52"/>
</a>
</g>
</g>
<!-- Node30 -->
<g id="Node000030" class="node">
<title>Node30</title>
<g id="a_Node000030"><a xlink:href="../../d4/d86/str-stream_8h.html#ae098817247881bad5d9318d4c6b712cf" target="_top" xlink:title=" ">
<polygon fill="white" stroke="#666666" points="499.75,-119.47 439.5,-119.47 439.5,-100.22 499.75,-100.22 499.75,-119.47"/>
<text text-anchor="middle" x="469.62" y="-105.97" font-family="Helvetica,sans-Serif" font-size="10.00">__ps_skip</text>
</a>
</g>
</g>
<!-- Node29&#45;&gt;Node30 -->
<g id="edge34_Node000029_Node000030" class="edge">
<title>Node29&#45;&gt;Node30</title>
<g id="a_edge34_Node000029_Node000030"><a xlink:title=" ">
<path fill="none" stroke="#63b8ff" d="M379.07,-109.84C393.85,-109.84 411.92,-109.84 427.95,-109.84"/>
<polygon fill="#63b8ff" stroke="#63b8ff" points="427.68,-113.34 437.68,-109.84 427.68,-106.34 427.68,-113.34"/>
</a>
</g>
</g>
<!-- Node30&#45;&gt;Node31 -->
<g id="edge35_Node000030_Node000031" class="edge">
<title>Node30&#45;&gt;Node31</title>
<g id="a_edge35_Node000030_Node000031"><a xlink:title=" ">
<path fill="none" stroke="#63b8ff" d="M500.11,-109.84C511.73,-109.84 525.15,-109.84 537.2,-109.84"/>
<polygon fill="#63b8ff" stroke="#63b8ff" points="537.17,-113.34 547.17,-109.84 537.17,-106.34 537.17,-113.34"/>
</a>
</g>
</g>
<!-- Node31&#45;&gt;Node32 -->
<g id="edge36_Node000031_Node000032" class="edge">
<title>Node31&#45;&gt;Node32</title>
<g id="a_edge36_Node000031_Node000032"><a xlink:title=" ">
<path fill="none" stroke="#63b8ff" d="M596.76,-106.28C611.35,-104.03 630.51,-101.08 647.15,-98.52"/>
<polygon fill="#63b8ff" stroke="#63b8ff" points="647.34,-102.03 656.69,-97.05 646.28,-95.11 647.34,-102.03"/>
</a>
</g>
</g>
</g>
</svg>

<g id="navigator" transform="translate(0 0)" fill="#404254">
  <rect fill="#f2f5e9" fill-opacity="0.5" stroke="#606060" stroke-width=".5" x="0" y="0" width="60" height="60"/>
  <use id="zoomplus" xlink:href="#zoomPlus" x="17" y="9" onmousedown="handleZoom(evt,'in')"/>
  <use id="zoomminus" xlink:href="#zoomMin" x="42" y="9" onmousedown="handleZoom(evt,'out')"/>
  <use id="reset" xlink:href="#resetDef" x="30" y="36" onmousedown="handleReset()"/>
   <use id="arrowup" xlink:href="#arrowUp" x="0" y="0" onmousedown="handlePan(0,-1)"/>
  <use id="arrowright" xlink:href="#arrowRight" x="0" y="0" onmousedown="handlePan(1,0)"/>
  <use id="arrowdown" xlink:href="#arrowDown" x="0" y="0" onmousedown="handlePan(0,1)"/>
  <use id="arrowleft" xlink:href="#arrowLeft" x="0" y="0" onmousedown="handlePan(-1,0)"/>
</g>
<svg viewBox="0 0 15 15" width="100%" height="30px" preserveAspectRatio="xMaxYMin meet">
 <g id="arrow_out" transform="scale(0.3 0.3)">
  <a xlink:href="hpack_8c_a30683ad392e615b0acb0b264c91ef418_cgraph_org.svg" target="_base">
   <rect id="button" ry="5" rx="5" y="6" x="6" height="38" width="38"
        fill="#f2f5e9" fill-opacity="0.5" stroke="#606060" stroke-width="1.0"/>
   <path id="arrow"
     d="M 11.500037,31.436501 C 11.940474,20.09759 22.043105,11.32322 32.158766,21.979434 L 37.068811,17.246167 C 37.068811,17.246167 37.088388,32 37.088388,32 L 22.160133,31.978069 C 22.160133,31.978069 26.997745,27.140456 26.997745,27.140456 C 18.528582,18.264221 13.291696,25.230495 11.500037,31.436501 z"
     style="fill:#404040;"/>
  </a>
 </g>
</svg>

<style type='text/css'>
<![CDATA[
[data-mouse-over-selected='false'] { opacity: 0.7; }
[data-mouse-over-selected='true']  { opacity: 1.0; }
]]>
</style>
<script type="application/ecmascript"><![CDATA[
document.addEventListener('DOMContentLoaded', (event) => {
  highlightEdges();
  highlightAdjacentNodes();
});
]]></script>
</svg>
