<?xml version="1.0" encoding="UTF-8" standalone="no"?>
<!DOCTYPE svg PUBLIC "-//W3C//DTD SVG 1.1//EN"
 "http://www.w3.org/Graphics/SVG/1.1/DTD/svg11.dtd">
<!-- Generated by graphviz version 9.0.0 (20230911.1827)
 -->
<!-- Title: qhat_node_memory_t Pages: 1 -->
<svg width="972pt" height="556pt"
 viewBox="0.00 0.00 971.76 555.75" xmlns="http://www.w3.org/2000/svg" xmlns:xlink="http://www.w3.org/1999/xlink">
<g id="graph0" class="graph" transform="scale(1 1) rotate(0) translate(4 551.75)">
<title>qhat_node_memory_t</title>
<!-- Node1 -->
<g id="Node000001" class="node">
<title>Node1</title>
<g id="a_Node000001"><a xlink:title=" ">
<polygon fill="#999999" stroke="none" points="521.76,-109 418.76,-109 418.76,0 521.76,0 521.76,-109"/>
<text text-anchor="start" x="423.76" y="-95.5" font-family="Helvetica,sans-Serif" font-size="10.00">qhat_node_memory_t</text>
<text text-anchor="start" x="429.26" y="-80.5" font-family="Helvetica,sans-Serif" font-size="10.00">+</text>
<text text-anchor="start" x="445.76" y="-80.5" font-family="Helvetica,sans-Serif" font-size="10.00">void * raw</text>
<text text-anchor="start" x="429.26" y="-65.5" font-family="Helvetica,sans-Serif" font-size="10.00">+</text>
<text text-anchor="start" x="445.76" y="-65.5" font-family="Helvetica,sans-Serif" font-size="10.00">uint8_t * u8</text>
<text text-anchor="start" x="429.26" y="-50.5" font-family="Helvetica,sans-Serif" font-size="10.00">+</text>
<text text-anchor="start" x="445.76" y="-50.5" font-family="Helvetica,sans-Serif" font-size="10.00">uint16_t * u16</text>
<text text-anchor="start" x="429.26" y="-35.5" font-family="Helvetica,sans-Serif" font-size="10.00">+</text>
<text text-anchor="start" x="445.76" y="-35.5" font-family="Helvetica,sans-Serif" font-size="10.00">uint32_t * u32</text>
<text text-anchor="start" x="429.26" y="-20.5" font-family="Helvetica,sans-Serif" font-size="10.00">+</text>
<text text-anchor="start" x="445.76" y="-20.5" font-family="Helvetica,sans-Serif" font-size="10.00">uint64_t * u64</text>
<text text-anchor="start" x="468.76" y="-5.5" font-family="Helvetica,sans-Serif" font-size="10.00"> </text>
<polygon fill="#666666" stroke="#666666" points="418.76,-92 418.76,-92 521.76,-92 521.76,-92 418.76,-92"/>
<polygon fill="#666666" stroke="#666666" points="418.76,-17 418.76,-17 443.76,-17 443.76,-17 418.76,-17"/>
<polygon fill="#666666" stroke="#666666" points="443.76,-17 443.76,-17 521.76,-17 521.76,-17 443.76,-17"/>
<polygon fill="none" stroke="#666666" points="418.76,0 418.76,-109 521.76,-109 521.76,0 418.76,0"/>
</a>
</g>
</g>
<!-- Node2 -->
<g id="Node000002" class="node">
<title>Node2</title>
<g id="a_Node000002"><a xlink:href="../../dd/d24/structqhat__128__t.html" target="_top" xlink:title=" ">
<polygon fill="white" stroke="none" points="586.26,-547.75 526.26,-547.75 526.26,-483.75 586.26,-483.75 586.26,-547.75"/>
<text text-anchor="start" x="532.26" y="-534.25" font-family="Helvetica,sans-Serif" font-size="10.00">qhat_128_t</text>
<text text-anchor="start" x="530.26" y="-519.25" font-family="Helvetica,sans-Serif" font-size="10.00">+</text>
<text text-anchor="start" x="540.26" y="-519.25" font-family="Helvetica,sans-Serif" font-size="10.00">uint64_t l</text>
<text text-anchor="start" x="530.26" y="-504.25" font-family="Helvetica,sans-Serif" font-size="10.00">+</text>
<text text-anchor="start" x="540.26" y="-504.25" font-family="Helvetica,sans-Serif" font-size="10.00">uint64_t h</text>
<text text-anchor="start" x="554.76" y="-489.25" font-family="Helvetica,sans-Serif" font-size="10.00"> </text>
<polygon fill="#666666" stroke="#666666" points="526.26,-530.75 526.26,-530.75 586.26,-530.75 586.26,-530.75 526.26,-530.75"/>
<polygon fill="#666666" stroke="#666666" points="526.26,-500.75 526.26,-500.75 538.26,-500.75 538.26,-500.75 526.26,-500.75"/>
<polygon fill="#666666" stroke="#666666" points="538.26,-500.75 538.26,-500.75 586.26,-500.75 586.26,-500.75 538.26,-500.75"/>
<polygon fill="none" stroke="#666666" points="526.26,-483.75 526.26,-547.75 586.26,-547.75 586.26,-483.75 526.26,-483.75"/>
</a>
</g>
</g>
<!-- Node2&#45;&gt;Node1 -->
<g id="edge1_Node000001_Node000002" class="edge">
<title>Node2&#45;&gt;Node1</title>
<g id="a_edge1_Node000001_Node000002"><a xlink:title=" ">
<path fill="none" stroke="#63b8ff" d="M526.55,-515.02C426.79,-515.25 106.51,-510.14 43.26,-436.5 -38.86,-340.91 7.86,-254.91 86.26,-156.25 125.81,-106.48 307.74,-76.12 406.33,-63.05"/>
<polygon fill="none" stroke="#63b8ff" points="406.29,-63.05 411.73,-58.31 418.19,-61.5 412.76,-66.24 406.29,-63.05"/>
</a>
</g>
<text text-anchor="middle" x="22.88" y="-285" font-family="Helvetica,sans-Serif" font-size="10.00" fill="grey"> +u128</text>
</g>
<!-- Node9 -->
<g id="Node000009" class="node">
<title>Node9</title>
<g id="a_Node000009"><a xlink:href="../../df/d6d/structqhat__compact128__t.html" target="_top" xlink:title=" ">
<polygon fill="white" stroke="none" points="954.76,-436.5 849.76,-436.5 849.76,-312.5 954.76,-312.5 954.76,-436.5"/>
<text text-anchor="start" x="859.51" y="-423" font-family="Helvetica,sans-Serif" font-size="10.00">qhat_compact128_t</text>
<text text-anchor="start" x="853.76" y="-408" font-family="Helvetica,sans-Serif" font-size="10.00">+</text>
<text text-anchor="start" x="863.76" y="-408" font-family="Helvetica,sans-Serif" font-size="10.00">uint32_t count</text>
<text text-anchor="start" x="853.76" y="-393" font-family="Helvetica,sans-Serif" font-size="10.00">+</text>
<text text-anchor="start" x="863.76" y="-393" font-family="Helvetica,sans-Serif" font-size="10.00">uint16_t parent_left</text>
<text text-anchor="start" x="853.76" y="-378" font-family="Helvetica,sans-Serif" font-size="10.00">+</text>
<text text-anchor="start" x="863.76" y="-378" font-family="Helvetica,sans-Serif" font-size="10.00">uint16_t parent_right</text>
<text text-anchor="start" x="853.76" y="-363" font-family="Helvetica,sans-Serif" font-size="10.00">+</text>
<text text-anchor="start" x="863.76" y="-363" font-family="Helvetica,sans-Serif" font-size="10.00">uint32_t keys</text>
<text text-anchor="start" x="853.76" y="-348" font-family="Helvetica,sans-Serif" font-size="10.00">+</text>
<text text-anchor="start" x="863.76" y="-348" font-family="Helvetica,sans-Serif" font-size="10.00">uint8_t padding</text>
<text text-anchor="start" x="853.76" y="-333" font-family="Helvetica,sans-Serif" font-size="10.00">+</text>
<text text-anchor="start" x="863.76" y="-333" font-family="Helvetica,sans-Serif" font-size="10.00">uint8_t padding2</text>
<text text-anchor="start" x="900.76" y="-318" font-family="Helvetica,sans-Serif" font-size="10.00"> </text>
<polygon fill="#666666" stroke="#666666" points="849.76,-419.5 849.76,-419.5 954.76,-419.5 954.76,-419.5 849.76,-419.5"/>
<polygon fill="#666666" stroke="#666666" points="849.76,-329.5 849.76,-329.5 861.76,-329.5 861.76,-329.5 849.76,-329.5"/>
<polygon fill="#666666" stroke="#666666" points="861.76,-329.5 861.76,-329.5 954.76,-329.5 954.76,-329.5 861.76,-329.5"/>
<polygon fill="none" stroke="#666666" points="849.76,-312.5 849.76,-436.5 954.76,-436.5 954.76,-312.5 849.76,-312.5"/>
</a>
</g>
</g>
<!-- Node2&#45;&gt;Node9 -->
<g id="edge9_Node000009_Node000002" class="edge">
<title>Node2&#45;&gt;Node9</title>
<g id="a_edge9_Node000009_Node000002"><a xlink:title=" ">
<path fill="none" stroke="#63b8ff" d="M586.09,-511.65C638.03,-505.24 747.52,-487.16 838.73,-437.22"/>
<polygon fill="none" stroke="#63b8ff" points="838.82,-437.17 842.07,-430.73 849.26,-431.25 846.02,-437.69 838.82,-437.17"/>
</a>
</g>
<text text-anchor="middle" x="823.63" y="-456.25" font-family="Helvetica,sans-Serif" font-size="10.00" fill="grey"> +values</text>
</g>
<!-- Node10 -->
<g id="Node000010" class="node">
<title>Node10</title>
<g id="a_Node000010"><a xlink:href="../../d6/d49/unionqhat__node__const__memory__t.html" target="_top" xlink:title=" ">
<polygon fill="white" stroke="none" points="655.26,-265.25 523.26,-265.25 523.26,-156.25 655.26,-156.25 655.26,-265.25"/>
<text text-anchor="start" x="528.13" y="-251.75" font-family="Helvetica,sans-Serif" font-size="10.00">qhat_node_const_memory_t</text>
<text text-anchor="start" x="534.76" y="-236.75" font-family="Helvetica,sans-Serif" font-size="10.00">+</text>
<text text-anchor="start" x="552.26" y="-236.75" font-family="Helvetica,sans-Serif" font-size="10.00">const void * raw</text>
<text text-anchor="start" x="534.76" y="-221.75" font-family="Helvetica,sans-Serif" font-size="10.00">+</text>
<text text-anchor="start" x="552.26" y="-221.75" font-family="Helvetica,sans-Serif" font-size="10.00">const uint8_t * u8</text>
<text text-anchor="start" x="534.76" y="-206.75" font-family="Helvetica,sans-Serif" font-size="10.00">+</text>
<text text-anchor="start" x="552.26" y="-206.75" font-family="Helvetica,sans-Serif" font-size="10.00">const uint16_t * u16</text>
<text text-anchor="start" x="534.76" y="-191.75" font-family="Helvetica,sans-Serif" font-size="10.00">+</text>
<text text-anchor="start" x="552.26" y="-191.75" font-family="Helvetica,sans-Serif" font-size="10.00">const uint32_t * u32</text>
<text text-anchor="start" x="534.76" y="-176.75" font-family="Helvetica,sans-Serif" font-size="10.00">+</text>
<text text-anchor="start" x="552.26" y="-176.75" font-family="Helvetica,sans-Serif" font-size="10.00">const uint64_t * u64</text>
<text text-anchor="start" x="587.76" y="-161.75" font-family="Helvetica,sans-Serif" font-size="10.00"> </text>
<polygon fill="#666666" stroke="#666666" points="523.26,-248.25 523.26,-248.25 655.26,-248.25 655.26,-248.25 523.26,-248.25"/>
<polygon fill="#666666" stroke="#666666" points="523.26,-173.25 523.26,-173.25 550.26,-173.25 550.26,-173.25 523.26,-173.25"/>
<polygon fill="#666666" stroke="#666666" points="550.26,-173.25 550.26,-173.25 655.26,-173.25 655.26,-173.25 550.26,-173.25"/>
<polygon fill="none" stroke="#666666" points="523.26,-156.25 523.26,-265.25 655.26,-265.25 655.26,-156.25 523.26,-156.25"/>
</a>
</g>
</g>
<!-- Node2&#45;&gt;Node10 -->
<g id="edge11_Node000010_Node000002" class="edge">
<title>Node2&#45;&gt;Node10</title>
<g id="a_edge11_Node000010_Node000002"><a xlink:title=" ">
<path fill="none" stroke="#63b8ff" d="M555.75,-484.09C555.51,-444.32 556.51,-372.88 565.01,-312.5 566.59,-301.24 568.87,-289.4 571.41,-277.95"/>
<polygon fill="none" stroke="#63b8ff" points="571.44,-277.8 568.9,-271.06 574.15,-266.11 576.69,-272.86 571.44,-277.8"/>
</a>
</g>
<text text-anchor="middle" x="579.88" y="-370.62" font-family="Helvetica,sans-Serif" font-size="10.00" fill="grey"> +u128</text>
</g>
<!-- Node3 -->
<g id="Node000003" class="node">
<title>Node3</title>
<g id="a_Node000003"><a xlink:href="../../dc/d3a/unionqhat__node__t.html" target="_top" xlink:title=" ">
<polygon fill="white" stroke="none" points="520.26,-434.5 422.26,-434.5 422.26,-314.5 520.26,-314.5 520.26,-434.5"/>
<text text-anchor="start" x="444.63" y="-421" font-family="Helvetica,sans-Serif" font-size="10.00">qhat_node_t</text>
<text text-anchor="start" x="426.26" y="-406" font-family="Helvetica,sans-Serif" font-size="10.00">+</text>
<text text-anchor="start" x="436.26" y="-406" font-family="Helvetica,sans-Serif" font-size="10.00">unsigned page</text>
<text text-anchor="start" x="426.26" y="-391" font-family="Helvetica,sans-Serif" font-size="10.00">+</text>
<text text-anchor="start" x="436.26" y="-391" font-family="Helvetica,sans-Serif" font-size="10.00">unsigned leaf</text>
<text text-anchor="start" x="426.26" y="-376" font-family="Helvetica,sans-Serif" font-size="10.00">+</text>
<text text-anchor="start" x="436.26" y="-376" font-family="Helvetica,sans-Serif" font-size="10.00">unsigned compact</text>
<text text-anchor="start" x="426.26" y="-361" font-family="Helvetica,sans-Serif" font-size="10.00">+</text>
<text text-anchor="start" x="436.26" y="-361" font-family="Helvetica,sans-Serif" font-size="10.00">struct qhat_node_t</text>
<text text-anchor="start" x="436.26" y="-349.75" font-family="Helvetica,sans-Serif" font-size="10.00">::@183 @184</text>
<text text-anchor="start" x="426.26" y="-335" font-family="Helvetica,sans-Serif" font-size="10.00">+</text>
<text text-anchor="start" x="436.26" y="-335" font-family="Helvetica,sans-Serif" font-size="10.00">uint32_t value</text>
<text text-anchor="start" x="469.76" y="-320" font-family="Helvetica,sans-Serif" font-size="10.00"> </text>
<polygon fill="#666666" stroke="#666666" points="422.26,-417.5 422.26,-417.5 520.26,-417.5 520.26,-417.5 422.26,-417.5"/>
<polygon fill="#666666" stroke="#666666" points="422.26,-331.5 422.26,-331.5 434.26,-331.5 434.26,-331.5 422.26,-331.5"/>
<polygon fill="#666666" stroke="#666666" points="434.26,-331.5 434.26,-331.5 520.26,-331.5 520.26,-331.5 434.26,-331.5"/>
<polygon fill="none" stroke="#666666" points="422.26,-314.5 422.26,-434.5 520.26,-434.5 520.26,-314.5 422.26,-314.5"/>
</a>
</g>
</g>
<!-- Node3&#45;&gt;Node1 -->
<g id="edge2_Node000001_Node000003" class="edge">
<title>Node3&#45;&gt;Node1</title>
<g id="a_edge2_Node000001_Node000003"><a xlink:title=" ">
<path fill="none" stroke="#63b8ff" d="M471.07,-314.8C470.9,-260.11 470.64,-178.66 470.46,-121.68"/>
<polygon fill="none" stroke="#63b8ff" points="470.46,-121.73 466.45,-115.74 470.43,-109.73 474.45,-115.72 470.46,-121.73"/>
</a>
</g>
<text text-anchor="middle" x="488.51" y="-206.88" font-family="Helvetica,sans-Serif" font-size="10.00" fill="grey"> +nodes</text>
</g>
<!-- Node3&#45;&gt;Node10 -->
<g id="edge12_Node000010_Node000003" class="edge">
<title>Node3&#45;&gt;Node10</title>
<g id="a_edge12_Node000010_Node000003"><a xlink:title=" ">
<path fill="none" stroke="#63b8ff" d="M490.42,-314.61C495.24,-303.7 501,-292.76 507.76,-283.25 510.03,-280.05 512.47,-276.9 515.03,-273.81"/>
<polygon fill="none" stroke="#63b8ff" points="515.04,-273.81 516.04,-266.67 523.02,-264.84 522.01,-271.99 515.04,-273.81"/>
</a>
</g>
<text text-anchor="middle" x="525.51" y="-285" font-family="Helvetica,sans-Serif" font-size="10.00" fill="grey"> +nodes</text>
</g>
<!-- Node4 -->
<g id="Node000004" class="node">
<title>Node4</title>
<g id="a_Node000004"><a xlink:href="../../d1/d11/structqhat__compacthdr__t.html" target="_top" xlink:title=" ">
<polygon fill="white" stroke="none" points="280.76,-421.5 175.76,-421.5 175.76,-327.5 280.76,-327.5 280.76,-421.5"/>
<text text-anchor="start" x="186.63" y="-408" font-family="Helvetica,sans-Serif" font-size="10.00">qhat_compacthdr_t</text>
<text text-anchor="start" x="179.76" y="-393" font-family="Helvetica,sans-Serif" font-size="10.00">+</text>
<text text-anchor="start" x="189.76" y="-393" font-family="Helvetica,sans-Serif" font-size="10.00">uint32_t count</text>
<text text-anchor="start" x="179.76" y="-378" font-family="Helvetica,sans-Serif" font-size="10.00">+</text>
<text text-anchor="start" x="189.76" y="-378" font-family="Helvetica,sans-Serif" font-size="10.00">uint16_t parent_left</text>
<text text-anchor="start" x="179.76" y="-363" font-family="Helvetica,sans-Serif" font-size="10.00">+</text>
<text text-anchor="start" x="189.76" y="-363" font-family="Helvetica,sans-Serif" font-size="10.00">uint16_t parent_right</text>
<text text-anchor="start" x="179.76" y="-348" font-family="Helvetica,sans-Serif" font-size="10.00">+</text>
<text text-anchor="start" x="189.76" y="-348" font-family="Helvetica,sans-Serif" font-size="10.00">uint32_t keys</text>
<text text-anchor="start" x="226.76" y="-333" font-family="Helvetica,sans-Serif" font-size="10.00"> </text>
<polygon fill="#666666" stroke="#666666" points="175.76,-404.5 175.76,-404.5 280.76,-404.5 280.76,-404.5 175.76,-404.5"/>
<polygon fill="#666666" stroke="#666666" points="175.76,-344.5 175.76,-344.5 187.76,-344.5 187.76,-344.5 175.76,-344.5"/>
<polygon fill="#666666" stroke="#666666" points="187.76,-344.5 187.76,-344.5 280.76,-344.5 280.76,-344.5 187.76,-344.5"/>
<polygon fill="none" stroke="#666666" points="175.76,-327.5 175.76,-421.5 280.76,-421.5 280.76,-327.5 175.76,-327.5"/>
</a>
</g>
</g>
<!-- Node4&#45;&gt;Node1 -->
<g id="edge3_Node000001_Node000004" class="edge">
<title>Node4&#45;&gt;Node1</title>
<g id="a_edge3_Node000001_Node000004"><a xlink:title=" ">
<path fill="none" stroke="#63b8ff" d="M205.57,-327.61C185.83,-280.41 165.39,-206.86 200.51,-156.25 246.57,-89.87 341.98,-67.15 406.08,-59.42"/>
<polygon fill="none" stroke="#63b8ff" points="406.03,-59.42 411.56,-54.8 417.95,-58.12 412.42,-62.75 406.03,-59.42"/>
</a>
</g>
<text text-anchor="middle" x="224.13" y="-206.88" font-family="Helvetica,sans-Serif" font-size="10.00" fill="grey"> +compact</text>
</g>
<!-- Node4&#45;&gt;Node10 -->
<g id="edge13_Node000010_Node000004" class="edge">
<title>Node4&#45;&gt;Node10</title>
<g id="a_edge13_Node000010_Node000004"><a xlink:title=" ">
<path fill="none" stroke="#63b8ff" d="M269,-327.65C275.39,-322.03 282.22,-316.78 289.26,-312.5 326.01,-290.16 339.57,-292.81 381.51,-283.25 436.98,-270.61 455.05,-285.42 508.26,-265.25 509.36,-264.83 510.46,-264.4 511.57,-263.95"/>
<polygon fill="none" stroke="#63b8ff" points="511.59,-263.93 515.38,-257.8 522.5,-258.94 518.71,-265.07 511.59,-263.93"/>
</a>
</g>
<text text-anchor="middle" x="405.13" y="-285" font-family="Helvetica,sans-Serif" font-size="10.00" fill="grey"> +compact</text>
</g>
<!-- Node5 -->
<g id="Node000005" class="node">
<title>Node5</title>
<g id="a_Node000005"><a xlink:href="../../d4/d4c/structqhat__compact8__t.html" target="_top" xlink:title=" ">
<polygon fill="white" stroke="none" points="403.76,-436.5 298.76,-436.5 298.76,-312.5 403.76,-312.5 403.76,-436.5"/>
<text text-anchor="start" x="313.76" y="-423" font-family="Helvetica,sans-Serif" font-size="10.00">qhat_compact8_t</text>
<text text-anchor="start" x="302.76" y="-408" font-family="Helvetica,sans-Serif" font-size="10.00">+</text>
<text text-anchor="start" x="312.76" y="-408" font-family="Helvetica,sans-Serif" font-size="10.00">uint32_t count</text>
<text text-anchor="start" x="302.76" y="-393" font-family="Helvetica,sans-Serif" font-size="10.00">+</text>
<text text-anchor="start" x="312.76" y="-393" font-family="Helvetica,sans-Serif" font-size="10.00">uint16_t parent_left</text>
<text text-anchor="start" x="302.76" y="-378" font-family="Helvetica,sans-Serif" font-size="10.00">+</text>
<text text-anchor="start" x="312.76" y="-378" font-family="Helvetica,sans-Serif" font-size="10.00">uint16_t parent_right</text>
<text text-anchor="start" x="302.76" y="-363" font-family="Helvetica,sans-Serif" font-size="10.00">+</text>
<text text-anchor="start" x="312.76" y="-363" font-family="Helvetica,sans-Serif" font-size="10.00">uint32_t keys</text>
<text text-anchor="start" x="302.76" y="-348" font-family="Helvetica,sans-Serif" font-size="10.00">+</text>
<text text-anchor="start" x="312.76" y="-348" font-family="Helvetica,sans-Serif" font-size="10.00">uint8_t values</text>
<text text-anchor="start" x="302.76" y="-333" font-family="Helvetica,sans-Serif" font-size="10.00">+</text>
<text text-anchor="start" x="312.76" y="-333" font-family="Helvetica,sans-Serif" font-size="10.00">uint8_t padding</text>
<text text-anchor="start" x="349.76" y="-318" font-family="Helvetica,sans-Serif" font-size="10.00"> </text>
<polygon fill="#666666" stroke="#666666" points="298.76,-419.5 298.76,-419.5 403.76,-419.5 403.76,-419.5 298.76,-419.5"/>
<polygon fill="#666666" stroke="#666666" points="298.76,-329.5 298.76,-329.5 310.76,-329.5 310.76,-329.5 298.76,-329.5"/>
<polygon fill="#666666" stroke="#666666" points="310.76,-329.5 310.76,-329.5 403.76,-329.5 403.76,-329.5 310.76,-329.5"/>
<polygon fill="none" stroke="#666666" points="298.76,-312.5 298.76,-436.5 403.76,-436.5 403.76,-312.5 298.76,-312.5"/>
</a>
</g>
</g>
<!-- Node5&#45;&gt;Node1 -->
<g id="edge4_Node000001_Node000005" class="edge">
<title>Node5&#45;&gt;Node1</title>
<g id="a_edge4_Node000001_Node000005"><a xlink:title=" ">
<path fill="none" stroke="#63b8ff" d="M299.11,-319.3C295.88,-316.87 292.59,-314.58 289.26,-312.5 267.09,-298.66 228.15,-307.34 238.26,-283.25 256.19,-240.52 346.58,-158.89 409.09,-105.86"/>
<polygon fill="none" stroke="#63b8ff" points="409.01,-105.92 411.01,-99 418.18,-98.18 416.17,-105.11 409.01,-105.92"/>
</a>
</g>
<text text-anchor="middle" x="375.76" y="-206.88" font-family="Helvetica,sans-Serif" font-size="10.00" fill="grey"> +compact8</text>
</g>
<!-- Node5&#45;&gt;Node10 -->
<g id="edge14_Node000010_Node000005" class="edge">
<title>Node5&#45;&gt;Node10</title>
<g id="a_edge14_Node000010_Node000005"><a xlink:title=" ">
<path fill="none" stroke="#63b8ff" d="M403.5,-321.72C406.78,-318.58 410.06,-315.49 413.26,-312.5 427.58,-299.12 429.09,-292.71 446.26,-283.25 471.38,-269.4 482.21,-277.29 508.26,-265.25 509.52,-264.67 510.78,-264.06 512.05,-263.45"/>
<polygon fill="none" stroke="#63b8ff" points="512,-263.47 515.47,-257.15 522.64,-257.92 519.17,-264.24 512,-263.47"/>
</a>
</g>
<text text-anchor="middle" x="471.76" y="-285" font-family="Helvetica,sans-Serif" font-size="10.00" fill="grey"> +compact8</text>
</g>
<!-- Node6 -->
<g id="Node000006" class="node">
<title>Node6</title>
<g id="a_Node000006"><a xlink:href="../../d1/d8c/structqhat__compact16__t.html" target="_top" xlink:title=" ">
<polygon fill="white" stroke="none" points="157.76,-436.5 52.76,-436.5 52.76,-312.5 157.76,-312.5 157.76,-436.5"/>
<text text-anchor="start" x="65.13" y="-423" font-family="Helvetica,sans-Serif" font-size="10.00">qhat_compact16_t</text>
<text text-anchor="start" x="56.76" y="-408" font-family="Helvetica,sans-Serif" font-size="10.00">+</text>
<text text-anchor="start" x="66.76" y="-408" font-family="Helvetica,sans-Serif" font-size="10.00">uint32_t count</text>
<text text-anchor="start" x="56.76" y="-393" font-family="Helvetica,sans-Serif" font-size="10.00">+</text>
<text text-anchor="start" x="66.76" y="-393" font-family="Helvetica,sans-Serif" font-size="10.00">uint16_t parent_left</text>
<text text-anchor="start" x="56.76" y="-378" font-family="Helvetica,sans-Serif" font-size="10.00">+</text>
<text text-anchor="start" x="66.76" y="-378" font-family="Helvetica,sans-Serif" font-size="10.00">uint16_t parent_right</text>
<text text-anchor="start" x="56.76" y="-363" font-family="Helvetica,sans-Serif" font-size="10.00">+</text>
<text text-anchor="start" x="66.76" y="-363" font-family="Helvetica,sans-Serif" font-size="10.00">uint32_t keys</text>
<text text-anchor="start" x="56.76" y="-348" font-family="Helvetica,sans-Serif" font-size="10.00">+</text>
<text text-anchor="start" x="66.76" y="-348" font-family="Helvetica,sans-Serif" font-size="10.00">uint16_t values</text>
<text text-anchor="start" x="56.76" y="-333" font-family="Helvetica,sans-Serif" font-size="10.00">+</text>
<text text-anchor="start" x="66.76" y="-333" font-family="Helvetica,sans-Serif" font-size="10.00">uint8_t padding</text>
<text text-anchor="start" x="103.76" y="-318" font-family="Helvetica,sans-Serif" font-size="10.00"> </text>
<polygon fill="#666666" stroke="#666666" points="52.76,-419.5 52.76,-419.5 157.76,-419.5 157.76,-419.5 52.76,-419.5"/>
<polygon fill="#666666" stroke="#666666" points="52.76,-329.5 52.76,-329.5 64.76,-329.5 64.76,-329.5 52.76,-329.5"/>
<polygon fill="#666666" stroke="#666666" points="64.76,-329.5 64.76,-329.5 157.76,-329.5 157.76,-329.5 64.76,-329.5"/>
<polygon fill="none" stroke="#666666" points="52.76,-312.5 52.76,-436.5 157.76,-436.5 157.76,-312.5 52.76,-312.5"/>
</a>
</g>
</g>
<!-- Node6&#45;&gt;Node1 -->
<g id="edge5_Node000001_Node000006" class="edge">
<title>Node6&#45;&gt;Node1</title>
<g id="a_edge5_Node000001_Node000006"><a xlink:title=" ">
<path fill="none" stroke="#63b8ff" d="M93.03,-312.61C87.12,-265.04 87.53,-199.88 122.01,-156.25 157.15,-111.77 315.28,-80 405.9,-65.08"/>
<polygon fill="none" stroke="#63b8ff" points="406.02,-65.06 411.31,-60.15 417.87,-63.15 412.58,-68.05 406.02,-65.06"/>
</a>
</g>
<text text-anchor="middle" x="150.38" y="-206.88" font-family="Helvetica,sans-Serif" font-size="10.00" fill="grey"> +compact16</text>
</g>
<!-- Node6&#45;&gt;Node10 -->
<g id="edge15_Node000010_Node000006" class="edge">
<title>Node6&#45;&gt;Node10</title>
<g id="a_edge15_Node000010_Node000006"><a xlink:title=" ">
<path fill="none" stroke="#63b8ff" d="M157.49,-318.23C160.36,-316.17 163.29,-314.25 166.26,-312.5 298.54,-234.75 363.06,-314.89 508.26,-265.25 509.37,-264.87 510.49,-264.47 511.6,-264.05"/>
<polygon fill="none" stroke="#63b8ff" points="511.61,-264.05 515.54,-258 522.63,-259.3 518.7,-265.35 511.61,-264.05"/>
</a>
</g>
<text text-anchor="middle" x="260.38" y="-285" font-family="Helvetica,sans-Serif" font-size="10.00" fill="grey"> +compact16</text>
</g>
<!-- Node7 -->
<g id="Node000007" class="node">
<title>Node7</title>
<g id="a_Node000007"><a xlink:href="../../df/d3d/structqhat__compact32__t.html" target="_top" xlink:title=" ">
<polygon fill="white" stroke="none" points="708.76,-429 603.76,-429 603.76,-320 708.76,-320 708.76,-429"/>
<text text-anchor="start" x="616.13" y="-415.5" font-family="Helvetica,sans-Serif" font-size="10.00">qhat_compact32_t</text>
<text text-anchor="start" x="607.76" y="-400.5" font-family="Helvetica,sans-Serif" font-size="10.00">+</text>
<text text-anchor="start" x="617.76" y="-400.5" font-family="Helvetica,sans-Serif" font-size="10.00">uint32_t count</text>
<text text-anchor="start" x="607.76" y="-385.5" font-family="Helvetica,sans-Serif" font-size="10.00">+</text>
<text text-anchor="start" x="617.76" y="-385.5" font-family="Helvetica,sans-Serif" font-size="10.00">uint16_t parent_left</text>
<text text-anchor="start" x="607.76" y="-370.5" font-family="Helvetica,sans-Serif" font-size="10.00">+</text>
<text text-anchor="start" x="617.76" y="-370.5" font-family="Helvetica,sans-Serif" font-size="10.00">uint16_t parent_right</text>
<text text-anchor="start" x="607.76" y="-355.5" font-family="Helvetica,sans-Serif" font-size="10.00">+</text>
<text text-anchor="start" x="617.76" y="-355.5" font-family="Helvetica,sans-Serif" font-size="10.00">uint32_t keys</text>
<text text-anchor="start" x="607.76" y="-340.5" font-family="Helvetica,sans-Serif" font-size="10.00">+</text>
<text text-anchor="start" x="617.76" y="-340.5" font-family="Helvetica,sans-Serif" font-size="10.00">uint32_t values</text>
<text text-anchor="start" x="654.76" y="-325.5" font-family="Helvetica,sans-Serif" font-size="10.00"> </text>
<polygon fill="#666666" stroke="#666666" points="603.76,-412 603.76,-412 708.76,-412 708.76,-412 603.76,-412"/>
<polygon fill="#666666" stroke="#666666" points="603.76,-337 603.76,-337 615.76,-337 615.76,-337 603.76,-337"/>
<polygon fill="#666666" stroke="#666666" points="615.76,-337 615.76,-337 708.76,-337 708.76,-337 615.76,-337"/>
<polygon fill="none" stroke="#666666" points="603.76,-320 603.76,-429 708.76,-429 708.76,-320 603.76,-320"/>
</a>
</g>
</g>
<!-- Node7&#45;&gt;Node1 -->
<g id="edge6_Node000001_Node000007" class="edge">
<title>Node7&#45;&gt;Node1</title>
<g id="a_edge6_Node000001_Node000007"><a xlink:title=" ">
<path fill="none" stroke="#63b8ff" d="M708.58,-323.92C715.39,-314.83 721.35,-304.9 725.26,-294.5 730.15,-281.46 720.6,-277.52 714.01,-265.25 688.79,-218.35 700.94,-194.85 664.26,-156.25 628.32,-118.44 575.06,-92.19 533.43,-75.99"/>
<polygon fill="none" stroke="#63b8ff" points="533.54,-76.03 526.52,-77.66 522.31,-71.8 529.34,-70.17 533.54,-76.03"/>
</a>
</g>
<text text-anchor="middle" x="741.38" y="-206.88" font-family="Helvetica,sans-Serif" font-size="10.00" fill="grey"> +compact32</text>
</g>
<!-- Node7&#45;&gt;Node10 -->
<g id="edge16_Node000010_Node000007" class="edge">
<title>Node7&#45;&gt;Node10</title>
<g id="a_edge16_Node000010_Node000007"><a xlink:title=" ">
<path fill="none" stroke="#63b8ff" d="M603.86,-320.5C598.23,-312.33 593.35,-303.57 590.01,-294.5 588.02,-289.12 586.64,-283.41 585.72,-277.6"/>
<polygon fill="none" stroke="#63b8ff" points="585.72,-277.65 581.12,-272.1 584.47,-265.71 589.08,-271.27 585.72,-277.65"/>
</a>
</g>
<text text-anchor="middle" x="618.38" y="-285" font-family="Helvetica,sans-Serif" font-size="10.00" fill="grey"> +compact32</text>
</g>
<!-- Node8 -->
<g id="Node000008" class="node">
<title>Node8</title>
<g id="a_Node000008"><a xlink:href="../../d1/ddf/structqhat__compact64__t.html" target="_top" xlink:title=" ">
<polygon fill="white" stroke="none" points="831.76,-436.5 726.76,-436.5 726.76,-312.5 831.76,-312.5 831.76,-436.5"/>
<text text-anchor="start" x="739.13" y="-423" font-family="Helvetica,sans-Serif" font-size="10.00">qhat_compact64_t</text>
<text text-anchor="start" x="730.76" y="-408" font-family="Helvetica,sans-Serif" font-size="10.00">+</text>
<text text-anchor="start" x="740.76" y="-408" font-family="Helvetica,sans-Serif" font-size="10.00">uint32_t count</text>
<text text-anchor="start" x="730.76" y="-393" font-family="Helvetica,sans-Serif" font-size="10.00">+</text>
<text text-anchor="start" x="740.76" y="-393" font-family="Helvetica,sans-Serif" font-size="10.00">uint16_t parent_left</text>
<text text-anchor="start" x="730.76" y="-378" font-family="Helvetica,sans-Serif" font-size="10.00">+</text>
<text text-anchor="start" x="740.76" y="-378" font-family="Helvetica,sans-Serif" font-size="10.00">uint16_t parent_right</text>
<text text-anchor="start" x="730.76" y="-363" font-family="Helvetica,sans-Serif" font-size="10.00">+</text>
<text text-anchor="start" x="740.76" y="-363" font-family="Helvetica,sans-Serif" font-size="10.00">uint32_t keys</text>
<text text-anchor="start" x="730.76" y="-348" font-family="Helvetica,sans-Serif" font-size="10.00">+</text>
<text text-anchor="start" x="740.76" y="-348" font-family="Helvetica,sans-Serif" font-size="10.00">uint8_t padding</text>
<text text-anchor="start" x="730.76" y="-333" font-family="Helvetica,sans-Serif" font-size="10.00">+</text>
<text text-anchor="start" x="740.76" y="-333" font-family="Helvetica,sans-Serif" font-size="10.00">uint64_t values</text>
<text text-anchor="start" x="777.76" y="-318" font-family="Helvetica,sans-Serif" font-size="10.00"> </text>
<polygon fill="#666666" stroke="#666666" points="726.76,-419.5 726.76,-419.5 831.76,-419.5 831.76,-419.5 726.76,-419.5"/>
<polygon fill="#666666" stroke="#666666" points="726.76,-329.5 726.76,-329.5 738.76,-329.5 738.76,-329.5 726.76,-329.5"/>
<polygon fill="#666666" stroke="#666666" points="738.76,-329.5 738.76,-329.5 831.76,-329.5 831.76,-329.5 738.76,-329.5"/>
<polygon fill="none" stroke="#666666" points="726.76,-312.5 726.76,-436.5 831.76,-436.5 831.76,-312.5 726.76,-312.5"/>
</a>
</g>
</g>
<!-- Node8&#45;&gt;Node1 -->
<g id="edge7_Node000001_Node000008" class="edge">
<title>Node8&#45;&gt;Node1</title>
<g id="a_edge7_Node000001_Node000008"><a xlink:title=" ">
<path fill="none" stroke="#63b8ff" d="M793.95,-312.53C801.61,-265.23 803.46,-200.47 770.26,-156.25 715.28,-83.04 604.77,-62.45 534.32,-57"/>
<polygon fill="none" stroke="#63b8ff" points="534.52,-57.01 528.27,-60.6 522.55,-56.21 528.8,-52.62 534.52,-57.01"/>
</a>
</g>
<text text-anchor="middle" x="826.38" y="-206.88" font-family="Helvetica,sans-Serif" font-size="10.00" fill="grey"> +compact64</text>
</g>
<!-- Node8&#45;&gt;Node10 -->
<g id="edge17_Node000010_Node000008" class="edge">
<title>Node8&#45;&gt;Node10</title>
<g id="a_edge17_Node000010_Node000008"><a xlink:title=" ">
<path fill="none" stroke="#63b8ff" d="M727.08,-320.51C724.13,-317.77 721.17,-315.08 718.26,-312.5 701.46,-297.65 682.77,-282.38 664.94,-268.37"/>
<polygon fill="none" stroke="#63b8ff" points="665.32,-268.66 658.13,-268.12 655.86,-261.27 663.05,-261.81 665.32,-268.66"/>
</a>
</g>
<text text-anchor="middle" x="722.38" y="-285" font-family="Helvetica,sans-Serif" font-size="10.00" fill="grey"> +compact64</text>
</g>
<!-- Node9&#45;&gt;Node1 -->
<g id="edge8_Node000001_Node000009" class="edge">
<title>Node9&#45;&gt;Node1</title>
<g id="a_edge8_Node000001_Node000009"><a xlink:title=" ">
<path fill="none" stroke="#63b8ff" d="M905.82,-312.64C905.27,-264.43 896.55,-198.41 858.26,-156.25 815.15,-108.8 633.15,-77.47 534.48,-63.63"/>
<polygon fill="none" stroke="#63b8ff" points="534.5,-63.63 528.01,-66.77 522.61,-61.99 529.1,-58.85 534.5,-63.63"/>
</a>
</g>
<text text-anchor="middle" x="933.01" y="-206.88" font-family="Helvetica,sans-Serif" font-size="10.00" fill="grey"> +compact128</text>
</g>
<!-- Node9&#45;&gt;Node10 -->
<g id="edge18_Node000010_Node000009" class="edge">
<title>Node9&#45;&gt;Node10</title>
<g id="a_edge18_Node000010_Node000009"><a xlink:title=" ">
<path fill="none" stroke="#63b8ff" d="M849.92,-318.4C847.08,-316.3 844.18,-314.31 841.26,-312.5 806.58,-291.01 793.48,-294.46 754.26,-283.25 720.88,-273.71 710.4,-278.35 678.26,-265.25 674.42,-263.69 670.55,-261.97 666.69,-260.14"/>
<polygon fill="none" stroke="#63b8ff" points="666.7,-260.15 659.54,-261.04 655.97,-254.78 663.13,-253.89 666.7,-260.15"/>
</a>
</g>
<text text-anchor="middle" x="831.01" y="-285" font-family="Helvetica,sans-Serif" font-size="10.00" fill="grey"> +compact128</text>
</g>
<!-- Node10&#45;&gt;Node1 -->
<g id="edge10_Node000001_Node000010" class="edge">
<title>Node10&#45;&gt;Node1</title>
<g id="a_edge10_Node000001_Node000010"><a xlink:title=" ">
<path fill="none" stroke="#63b8ff" d="M548.3,-156.67C539.01,-144.62 529.04,-131.69 519.44,-119.25"/>
<polygon fill="none" stroke="#63b8ff" points="519.37,-119.16 512.53,-116.85 512.04,-109.66 518.87,-111.96 519.37,-119.16"/>
</a>
</g>
<text text-anchor="middle" x="545.13" y="-128.75" font-family="Helvetica,sans-Serif" font-size="10.00" fill="grey"> +cst</text>
</g>
</g>
</svg>
