<?xml version="1.0" encoding="UTF-8" standalone="no"?>
<!DOCTYPE svg PUBLIC "-//W3C//DTD SVG 1.1//EN"
 "http://www.w3.org/Graphics/SVG/1.1/DTD/svg11.dtd">
<!-- Generated by graphviz version 9.0.0 (20230911.1827)
 -->
<!-- Title: lstr_dups Pages: 1 -->
<!--zoomable 358 -->

<svg id="main" version="1.1" xmlns="http://www.w3.org/2000/svg" xmlns:xlink="http://www.w3.org/1999/xlink" xml:space="preserve" onload="init(evt)">
<style type="text/css"><![CDATA[
.node, .edge {opacity: 0.7;}
.node.selected, .edge.selected {opacity: 1;}
.edge:hover path { stroke: red; }
.edge:hover polygon { stroke: red; fill: red; }
]]></style>

<defs>
  <circle id="rim" cx="0" cy="0" r="7"/>
  <circle id="rim2" cx="0" cy="0" r="3.5"/>
  <g id="zoomPlus">
    <use xlink:href="#rim" fill="#404040"><set attributeName="fill" to="#808080" begin="zoomplus.mouseover" end="zoomplus.mouseout"/></use>
    <path d="M-4,0h8M0,-4v8" fill="none" stroke="white" stroke-width="1.5" pointer-events="none"/>
  </g>
  <g id="zoomMin">
    <use xlink:href="#rim" fill="#404040"><set attributeName="fill" to="#808080" begin="zoomminus.mouseover" end="zoomminus.mouseout"/></use>
    <path d="M-4,0h8" fill="none" stroke="white" stroke-width="1.5" pointer-events="none"/>
  </g>
  <g id="arrowUp" transform="translate(30 24)">
    <use xlink:href="#rim"/>
    <path pointer-events="none" fill="none" stroke="white" stroke-width="1.5" d="M0,-3.0v7 M-2.5,-0.5L0,-3.0L2.5,-0.5"/>
  </g>
  <g id="arrowRight" transform="rotate(90) translate(36 -43)">
    <use xlink:href="#rim"/>
    <path pointer-events="none" fill="none" stroke="white" stroke-width="1.5" d="M0,-3.0v7 M-2.5,-0.5L0,-3.0L2.5,-0.5"/>
  </g>
  <g id="arrowDown" transform="rotate(180) translate(-30 -48)">
    <use xlink:href="#rim"/>
    <path pointer-events="none" fill="none" stroke="white" stroke-width="1.5" d="M0,-3.0v7 M-2.5,-0.5L0,-3.0L2.5,-0.5"/>
  </g>
  <g id="arrowLeft" transform="rotate(270) translate(-36 17)">
    <use xlink:href="#rim"/>
    <path pointer-events="none" fill="none" stroke="white" stroke-width="1.5" d="M0,-3.0v7 M-2.5,-0.5L0,-3.0L2.5,-0.5"/>
  </g>
  <g id="resetDef">
    <use xlink:href="#rim2" fill="#404040"><set attributeName="fill" to="#808080" begin="reset.mouseover" end="reset.mouseout"/></use>
  </g>
</defs>
<script type="application/ecmascript">
var viewWidth = 1782;
var viewHeight = 358;
var sectionId = 'dynsection-27';
</script>
<script type="application/ecmascript" xlink:href="../../svg.min.js"/>
<svg id="graph" class="graph">
<g id="viewport">
<title>lstr_dups</title>
<!-- Node1 -->
<g id="Node000001" class="node">
<title>Node1</title>
<g id="a_Node000001"><a xlink:title="returns new libc allocated lstr from its arguments.">
<polygon fill="#999999" stroke="#666666" points="55.75,-104.62 0,-104.62 0,-85.38 55.75,-85.38 55.75,-104.62"/>
<text text-anchor="middle" x="27.88" y="-91.12" font-family="Helvetica,sans-Serif" font-size="10.00">lstr_dups</text>
</a>
</g>
</g>
<!-- Node2 -->
<g id="Node000002" class="node">
<title>Node2</title>
<g id="a_Node000002"><a xlink:href="../../de/d04/str-l_8c.html#ac88d0ea682cd2939ca2a90a2d85682bc" target="_top" xlink:title="Returns new mp allocated lstr from its arguments.">
<polygon fill="white" stroke="#666666" points="166.25,-104.62 91.75,-104.62 91.75,-85.38 166.25,-85.38 166.25,-104.62"/>
<text text-anchor="middle" x="129" y="-91.12" font-family="Helvetica,sans-Serif" font-size="10.00">mp_lstr_dups</text>
</a>
</g>
</g>
<!-- Node1&#45;&gt;Node2 -->
<g id="edge1_Node000001_Node000002" class="edge">
<title>Node1&#45;&gt;Node2</title>
<g id="a_edge1_Node000001_Node000002"><a xlink:title=" ">
<path fill="none" stroke="#63b8ff" d="M56.22,-95C63.62,-95 71.86,-95 80.03,-95"/>
<polygon fill="#63b8ff" stroke="#63b8ff" points="79.95,-98.5 89.95,-95 79.95,-91.5 79.95,-98.5"/>
</a>
</g>
</g>
<!-- Node3 -->
<g id="Node000003" class="node">
<title>Node3</title>
<g id="a_Node000003"><a xlink:href="../../d9/d9a/mem_8h.html#afb82bc4c2f614b07ba2987edb2fb12a2" target="_top" xlink:title=" ">
<polygon fill="white" stroke="#666666" points="257.25,-226.62 202.25,-226.62 202.25,-207.38 257.25,-207.38 257.25,-226.62"/>
<text text-anchor="middle" x="229.75" y="-213.12" font-family="Helvetica,sans-Serif" font-size="10.00">mp_dupz</text>
</a>
</g>
</g>
<!-- Node2&#45;&gt;Node3 -->
<g id="edge2_Node000002_Node000003" class="edge">
<title>Node2&#45;&gt;Node3</title>
<g id="a_edge2_Node000002_Node000003"><a xlink:title=" ">
<path fill="none" stroke="#63b8ff" d="M138.08,-104.98C154.57,-125.36 192.34,-172.01 213.56,-198.23"/>
<polygon fill="#63b8ff" stroke="#63b8ff" points="210.59,-200.13 219.6,-205.7 216.03,-195.73 210.59,-200.13"/>
</a>
</g>
</g>
<!-- Node37 -->
<g id="Node000037" class="node">
<title>Node37</title>
<g id="a_Node000037"><a xlink:href="../../df/d0a/str-l_8h.html#afaa32126aa321a4b319e39433d0e7f26" target="_top" xlink:title=" ">
<polygon fill="white" stroke="#666666" points="1398.75,-19.62 1332.5,-19.62 1332.5,-0.38 1398.75,-0.38 1398.75,-19.62"/>
<text text-anchor="middle" x="1365.62" y="-6.12" font-family="Helvetica,sans-Serif" font-size="10.00">mp_lstr_init</text>
</a>
</g>
</g>
<!-- Node2&#45;&gt;Node37 -->
<g id="edge41_Node000002_Node000037" class="edge">
<title>Node2&#45;&gt;Node37</title>
<g id="a_edge41_Node000002_Node000037"><a xlink:title=" ">
<path fill="none" stroke="#63b8ff" d="M140.94,-85.19C169.2,-60.92 247.8,0 325,0 325,0 325,0 1106.25,0 1181.63,0 1269.29,-4.3 1320.68,-7.26"/>
<polygon fill="#63b8ff" stroke="#63b8ff" points="1320.31,-10.75 1330.5,-7.84 1320.72,-3.76 1320.31,-10.75"/>
</a>
</g>
</g>
<!-- Node4 -->
<g id="Node000004" class="node">
<title>Node4</title>
<g id="a_Node000004"><a xlink:href="../../d9/d9a/mem_8h.html#af52b7a33884b452f86de916d8109b8f1" target="_top" xlink:title=" ">
<polygon fill="white" stroke="#666666" points="354.62,-281.62 297.38,-281.62 297.38,-262.38 354.62,-262.38 354.62,-281.62"/>
<text text-anchor="middle" x="326" y="-268.12" font-family="Helvetica,sans-Serif" font-size="10.00">memcpyz</text>
</a>
</g>
</g>
<!-- Node3&#45;&gt;Node4 -->
<g id="edge3_Node000003_Node000004" class="edge">
<title>Node3&#45;&gt;Node4</title>
<g id="a_edge3_Node000003_Node000004"><a xlink:title=" ">
<path fill="none" stroke="#63b8ff" d="M248.04,-227.09C261.99,-235.23 281.86,-246.83 297.92,-256.2"/>
<polygon fill="#63b8ff" stroke="#63b8ff" points="296.11,-259.2 306.52,-261.21 299.64,-253.15 296.11,-259.2"/>
</a>
</g>
</g>
<!-- Node6 -->
<g id="Node000006" class="node">
<title>Node6</title>
<g id="a_Node000006"><a xlink:href="../../d9/d9a/mem_8h.html#ada6bb9661f0c10ccaa14d231c24aeafd" target="_top" xlink:title=" ">
<polygon fill="white" stroke="#666666" points="358.75,-226.62 293.25,-226.62 293.25,-207.38 358.75,-207.38 358.75,-226.62"/>
<text text-anchor="middle" x="326" y="-213.12" font-family="Helvetica,sans-Serif" font-size="10.00">mp_imalloc</text>
</a>
</g>
</g>
<!-- Node3&#45;&gt;Node6 -->
<g id="edge5_Node000003_Node000006" class="edge">
<title>Node3&#45;&gt;Node6</title>
<g id="a_edge5_Node000003_Node000006"><a xlink:title=" ">
<path fill="none" stroke="#63b8ff" d="M257.51,-217C264.98,-217 273.3,-217 281.47,-217"/>
<polygon fill="#63b8ff" stroke="#63b8ff" points="281.31,-220.5 291.31,-217 281.31,-213.5 281.31,-220.5"/>
</a>
</g>
</g>
<!-- Node5 -->
<g id="Node000005" class="node">
<title>Node5</title>
<g id="a_Node000005"><a xlink:href="../../d9/d9a/mem_8h.html#af3794c657c3ffd55b9771dcaeec60c02" target="_top" xlink:title=" ">
<polygon fill="white" stroke="#666666" points="480.12,-291.62 422.12,-291.62 422.12,-272.38 480.12,-272.38 480.12,-291.62"/>
<text text-anchor="middle" x="451.12" y="-278.12" font-family="Helvetica,sans-Serif" font-size="10.00">mempcpy</text>
</a>
</g>
</g>
<!-- Node4&#45;&gt;Node5 -->
<g id="edge4_Node000004_Node000005" class="edge">
<title>Node4&#45;&gt;Node5</title>
<g id="a_edge4_Node000004_Node000005"><a xlink:title=" ">
<path fill="none" stroke="#63b8ff" d="M354.94,-274.27C371.35,-275.6 392.36,-277.31 410.47,-278.78"/>
<polygon fill="#63b8ff" stroke="#63b8ff" points="410.11,-282.26 420.36,-279.58 410.68,-275.28 410.11,-282.26"/>
</a>
</g>
</g>
<!-- Node7 -->
<g id="Node000007" class="node">
<title>Node7</title>
<g id="a_Node000007"><a xlink:href="../../d8/d37/mem_8blk.html#a5666a1403bcf2bd8e114c23f8021d1ac" target="_top" xlink:title=" ">
<polygon fill="white" stroke="#666666" points="489.12,-217.62 413.12,-217.62 413.12,-198.38 489.12,-198.38 489.12,-217.62"/>
<text text-anchor="middle" x="451.12" y="-204.12" font-family="Helvetica,sans-Serif" font-size="10.00">__mp_imalloc</text>
</a>
</g>
</g>
<!-- Node6&#45;&gt;Node7 -->
<g id="edge6_Node000006_Node000007" class="edge">
<title>Node6&#45;&gt;Node7</title>
<g id="a_edge6_Node000006_Node000007"><a xlink:title=" ">
<path fill="none" stroke="#63b8ff" d="M359.03,-214.66C372.07,-213.71 387.43,-212.58 401.79,-211.53"/>
<polygon fill="#63b8ff" stroke="#63b8ff" points="401.79,-215.04 411.51,-210.82 401.28,-208.06 401.79,-215.04"/>
</a>
</g>
</g>
<!-- Node35 -->
<g id="Node000035" class="node">
<title>Node35</title>
<g id="a_Node000035"><a xlink:href="../../d9/d9a/mem_8h.html#ae99e17ad0b27e94e8a00c8af9734a0e7" target="_top" xlink:title=" ">
<polygon fill="white" stroke="#666666" points="507.5,-254.62 394.75,-254.62 394.75,-235.38 507.5,-235.38 507.5,-254.62"/>
<text text-anchor="middle" x="451.12" y="-241.12" font-family="Helvetica,sans-Serif" font-size="10.00">icheck_alloc_constant</text>
</a>
</g>
</g>
<!-- Node6&#45;&gt;Node35 -->
<g id="edge39_Node000006_Node000035" class="edge">
<title>Node6&#45;&gt;Node35</title>
<g id="a_edge39_Node000006_Node000035"><a xlink:title=" ">
<path fill="none" stroke="#63b8ff" d="M359.03,-224.28C369.94,-226.76 382.47,-229.61 394.68,-232.39"/>
<polygon fill="#63b8ff" stroke="#63b8ff" points="393.74,-235.77 404.27,-234.57 395.29,-228.94 393.74,-235.77"/>
</a>
</g>
</g>
<!-- Node8 -->
<g id="Node000008" class="node">
<title>Node8</title>
<g id="a_Node000008"><a xlink:href="../../d8/d37/mem_8blk.html#a8e4fbf6500e65079c31e3fd933ae7dc1" target="_top" xlink:title=" ">
<polygon fill="white" stroke="#666666" points="629.62,-199.62 559.62,-199.62 559.62,-180.38 629.62,-180.38 629.62,-199.62"/>
<text text-anchor="middle" x="594.62" y="-186.12" font-family="Helvetica,sans-Serif" font-size="10.00">icheck_alloc</text>
</a>
</g>
</g>
<!-- Node7&#45;&gt;Node8 -->
<g id="edge7_Node000007_Node000008" class="edge">
<title>Node7&#45;&gt;Node8</title>
<g id="a_edge7_Node000007_Node000008"><a xlink:title=" ">
<path fill="none" stroke="#63b8ff" d="M489.3,-203.27C507.34,-200.98 529.17,-198.2 548.18,-195.78"/>
<polygon fill="#63b8ff" stroke="#63b8ff" points="548.62,-199.25 558.1,-194.52 547.74,-192.31 548.62,-199.25"/>
</a>
</g>
</g>
<!-- Node33 -->
<g id="Node000033" class="node">
<title>Node33</title>
<g id="a_Node000033"><a xlink:href="../../d9/d9a/mem_8h.html#af42ab5c21de0c723b2a55403e5441fda" target="_top" xlink:title=" ">
<polygon fill="white" stroke="#666666" points="634.12,-236.62 555.12,-236.62 555.12,-217.38 634.12,-217.38 634.12,-236.62"/>
<text text-anchor="middle" x="594.62" y="-223.12" font-family="Helvetica,sans-Serif" font-size="10.00">mem_bit_align</text>
</a>
</g>
</g>
<!-- Node7&#45;&gt;Node33 -->
<g id="edge37_Node000007_Node000033" class="edge">
<title>Node7&#45;&gt;Node33</title>
<g id="a_edge37_Node000007_Node000033"><a xlink:title=" ">
<path fill="none" stroke="#63b8ff" d="M489.3,-212.99C505.83,-215.21 525.53,-217.86 543.34,-220.25"/>
<polygon fill="#63b8ff" stroke="#63b8ff" points="542.84,-223.71 553.22,-221.57 543.77,-216.77 542.84,-223.71"/>
</a>
</g>
</g>
<!-- Node9 -->
<g id="Node000009" class="node">
<title>Node9</title>
<g id="a_Node000009"><a xlink:href="../../d7/df8/log_8c.html#abca342edf91a9b45f7a17ef564fa8a53" target="_top" xlink:title=" ">
<polygon fill="white" stroke="#666666" points="736.75,-199.62 687,-199.62 687,-180.38 736.75,-180.38 736.75,-199.62"/>
<text text-anchor="middle" x="711.88" y="-186.12" font-family="Helvetica,sans-Serif" font-size="10.00">e_panic</text>
</a>
</g>
</g>
<!-- Node8&#45;&gt;Node9 -->
<g id="edge8_Node000008_Node000009" class="edge">
<title>Node8&#45;&gt;Node9</title>
<g id="a_edge8_Node000008_Node000009"><a xlink:title=" ">
<path fill="none" stroke="#63b8ff" d="M629.89,-190C644.34,-190 661.15,-190 675.7,-190"/>
<polygon fill="#63b8ff" stroke="#63b8ff" points="675.28,-193.5 685.28,-190 675.28,-186.5 675.28,-193.5"/>
</a>
</g>
</g>
<!-- Node10 -->
<g id="Node000010" class="node">
<title>Node10</title>
<g id="a_Node000010"><a xlink:href="../../d7/df8/log_8c.html#a4bc04f7baa1e064cb0b93c7b9f3a61a1" target="_top" xlink:title=" ">
<polygon fill="white" stroke="#666666" points="866,-199.62 778,-199.62 778,-180.38 866,-180.38 866,-199.62"/>
<text text-anchor="middle" x="822" y="-186.12" font-family="Helvetica,sans-Serif" font-size="10.00">__logger_refresh</text>
</a>
</g>
</g>
<!-- Node9&#45;&gt;Node10 -->
<g id="edge9_Node000009_Node000010" class="edge">
<title>Node9&#45;&gt;Node10</title>
<g id="a_edge9_Node000009_Node000010"><a xlink:title=" ">
<path fill="none" stroke="#63b8ff" d="M737.14,-190C745.83,-190 756,-190 766.22,-190"/>
<polygon fill="#63b8ff" stroke="#63b8ff" points="766.17,-193.5 776.17,-190 766.17,-186.5 766.17,-193.5"/>
</a>
</g>
</g>
<!-- Node28 -->
<g id="Node000028" class="node">
<title>Node28</title>
<g id="a_Node000028"><a xlink:href="../../d7/df8/log_8c.html#a900490b26df7698aac12f7f7e6517e81" target="_top" xlink:title=" ">
<polygon fill="white" stroke="#666666" points="854.75,-85.62 789.25,-85.62 789.25,-66.38 854.75,-66.38 854.75,-85.62"/>
<text text-anchor="middle" x="822" y="-72.12" font-family="Helvetica,sans-Serif" font-size="10.00">logger_vlog</text>
</a>
</g>
</g>
<!-- Node9&#45;&gt;Node28 -->
<g id="edge31_Node000009_Node000028" class="edge">
<title>Node9&#45;&gt;Node28</title>
<g id="a_edge31_Node000009_Node000028"><a xlink:title=" ">
<path fill="none" stroke="#63b8ff" d="M722.47,-179.88C740.79,-160.57 780.97,-118.2 803.96,-93.97"/>
<polygon fill="#63b8ff" stroke="#63b8ff" points="806.2,-96.69 810.54,-87.03 801.12,-91.88 806.2,-96.69"/>
</a>
</g>
</g>
<!-- Node32 -->
<g id="Node000032" class="node">
<title>Node32</title>
<g id="a_Node000032"><a xlink:href="../../d2/d4d/file_8h.html#a25419a391fdd4ad7954699c58cfeb3b9" target="_top" xlink:title=" ">
<polygon fill="white" stroke="#666666" points="847.62,-349.62 796.38,-349.62 796.38,-330.38 847.62,-330.38 847.62,-349.62"/>
<text text-anchor="middle" x="822" y="-336.12" font-family="Helvetica,sans-Serif" font-size="10.00">va_start</text>
</a>
</g>
</g>
<!-- Node9&#45;&gt;Node32 -->
<g id="edge36_Node000009_Node000032" class="edge">
<title>Node9&#45;&gt;Node32</title>
<g id="a_edge36_Node000009_Node000032"><a xlink:title=" ">
<path fill="none" stroke="#63b8ff" d="M733.17,-199.94C736.45,-202.24 739.57,-204.92 742,-208 773.4,-247.67 745.73,-277.03 778,-316 780.4,-318.9 783.24,-321.51 786.31,-323.84"/>
<polygon fill="#63b8ff" stroke="#63b8ff" points="784.37,-326.76 794.68,-329.23 788.16,-320.87 784.37,-326.76"/>
</a>
</g>
</g>
<!-- Node11 -->
<g id="Node000011" class="node">
<title>Node11</title>
<g id="a_Node000011"><a xlink:href="../../d7/df8/log_8c.html#a3dbd75fb614210f0b114cfd03c9c0a7b" target="_top" xlink:title=" ">
<polygon fill="white" stroke="#666666" points="1005.75,-199.62 902,-199.62 902,-180.38 1005.75,-180.38 1005.75,-199.62"/>
<text text-anchor="middle" x="953.88" y="-186.12" font-family="Helvetica,sans-Serif" font-size="10.00">__logger_do_refresh</text>
</a>
</g>
</g>
<!-- Node10&#45;&gt;Node11 -->
<g id="edge10_Node000010_Node000011" class="edge">
<title>Node10&#45;&gt;Node11</title>
<g id="a_edge10_Node000010_Node000011"><a xlink:title=" ">
<path fill="none" stroke="#63b8ff" d="M866.25,-190C873.97,-190 882.16,-190 890.29,-190"/>
<polygon fill="#63b8ff" stroke="#63b8ff" points="890.2,-193.5 900.2,-190 890.2,-186.5 890.2,-193.5"/>
</a>
</g>
</g>
<!-- Node26 -->
<g id="Node000026" class="node">
<title>Node26</title>
<g id="a_Node000026"><a xlink:href="../../d7/df8/log_8c.html#a7b1b02d1986e1247c2f571af4a2c2854" target="_top" xlink:title=" ">
<polygon fill="white" stroke="#666666" points="991.5,-162.62 916.25,-162.62 916.25,-143.38 991.5,-143.38 991.5,-162.62"/>
<text text-anchor="middle" x="953.88" y="-149.12" font-family="Helvetica,sans-Serif" font-size="10.00">log_spin_lock</text>
</a>
</g>
</g>
<!-- Node10&#45;&gt;Node26 -->
<g id="edge29_Node000010_Node000026" class="edge">
<title>Node10&#45;&gt;Node26</title>
<g id="a_edge29_Node000010_Node000026"><a xlink:title=" ">
<path fill="none" stroke="#63b8ff" d="M858.49,-179.89C873.38,-175.65 890.89,-170.66 906.76,-166.14"/>
<polygon fill="#63b8ff" stroke="#63b8ff" points="907.32,-169.62 915.97,-163.51 905.4,-162.89 907.32,-169.62"/>
</a>
</g>
</g>
<!-- Node27 -->
<g id="Node000027" class="node">
<title>Node27</title>
<g id="a_Node000027"><a xlink:href="../../d1/dc0/group__log.html#ga045020bb4af234632f7761f220131c69" target="_top" xlink:title=" ">
<polygon fill="white" stroke="#666666" points="996.75,-254.62 911,-254.62 911,-235.38 996.75,-235.38 996.75,-254.62"/>
<text text-anchor="middle" x="953.88" y="-241.12" font-family="Helvetica,sans-Serif" font-size="10.00">log_spin_unlock</text>
</a>
</g>
</g>
<!-- Node10&#45;&gt;Node27 -->
<g id="edge30_Node000010_Node000027" class="edge">
<title>Node10&#45;&gt;Node27</title>
<g id="a_edge30_Node000010_Node000027"><a xlink:title=" ">
<path fill="none" stroke="#63b8ff" d="M842.89,-199.98C858.72,-207.76 881.54,-218.61 902,-227 905.34,-228.37 908.82,-229.73 912.33,-231.06"/>
<polygon fill="#63b8ff" stroke="#63b8ff" points="910.82,-234.23 921.41,-234.4 913.23,-227.66 910.82,-234.23"/>
</a>
</g>
</g>
<!-- Node11&#45;&gt;Node11 -->
<g id="edge11_Node000011_Node000011" class="edge">
<title>Node11&#45;&gt;Node11</title>
<g id="a_edge11_Node000011_Node000011"><a xlink:title=" ">
<path fill="none" stroke="#63b8ff" d="M933.23,-199.91C923.81,-208.52 930.69,-217.62 953.88,-217.62 966.55,-217.62 974.35,-214.9 977.28,-211.03"/>
<polygon fill="#63b8ff" stroke="#63b8ff" points="980.69,-210.24 974.89,-201.38 973.9,-211.93 980.69,-210.24"/>
</a>
</g>
</g>
<!-- Node12 -->
<g id="Node000012" class="node">
<title>Node12</title>
<g id="a_Node000012"><a xlink:href="../../de/d1a/container-dlist_8h.html#a3b6f65860b212e28f2e28e71eb54d54d" target="_top" xlink:title="Add element e at the head of list l (suited for LIFO).">
<polygon fill="white" stroke="#666666" points="1132.75,-273.62 1077.75,-273.62 1077.75,-254.38 1132.75,-254.38 1132.75,-273.62"/>
<text text-anchor="middle" x="1105.25" y="-260.12" font-family="Helvetica,sans-Serif" font-size="10.00">dlist_add</text>
</a>
</g>
</g>
<!-- Node11&#45;&gt;Node12 -->
<g id="edge12_Node000011_Node000012" class="edge">
<title>Node11&#45;&gt;Node12</title>
<g id="a_edge12_Node000011_Node000012"><a xlink:title=" ">
<path fill="none" stroke="#63b8ff" d="M969.41,-200.11C990.07,-214.35 1027.05,-239.32 1041.75,-246 1049.52,-249.53 1058.16,-252.55 1066.47,-255.05"/>
<polygon fill="#63b8ff" stroke="#63b8ff" points="1065.46,-258.4 1076.03,-257.72 1067.34,-251.66 1065.46,-258.4"/>
</a>
</g>
</g>
<!-- Node14 -->
<g id="Node000014" class="node">
<title>Node14</title>
<g id="a_Node000014"><a xlink:href="../../de/d1a/container-dlist_8h.html#a0a69e401f6ec15966c891e96ad864c77" target="_top" xlink:title="Put a dlist_t element in a safe and detached state.">
<polygon fill="white" stroke="#666666" points="1131.25,-199.62 1079.25,-199.62 1079.25,-180.38 1131.25,-180.38 1131.25,-199.62"/>
<text text-anchor="middle" x="1105.25" y="-186.12" font-family="Helvetica,sans-Serif" font-size="10.00">dlist_init</text>
</a>
</g>
</g>
<!-- Node11&#45;&gt;Node14 -->
<g id="edge14_Node000011_Node000014" class="edge">
<title>Node11&#45;&gt;Node14</title>
<g id="a_edge14_Node000011_Node000014"><a xlink:title=" ">
<path fill="none" stroke="#63b8ff" d="M1005.86,-190C1026.2,-190 1049.16,-190 1067.78,-190"/>
<polygon fill="#63b8ff" stroke="#63b8ff" points="1067.52,-193.5 1077.52,-190 1067.52,-186.5 1067.52,-193.5"/>
</a>
</g>
</g>
<!-- Node15 -->
<g id="Node000015" class="node">
<title>Node15</title>
<g id="a_Node000015"><a xlink:href="../../d7/df8/log_8c.html#a4c8fbe8648573312126ce341cf34cba1" target="_top" xlink:title=" ">
<polygon fill="white" stroke="#666666" points="1168.75,-123.62 1041.75,-123.62 1041.75,-104.38 1168.75,-104.38 1168.75,-123.62"/>
<text text-anchor="middle" x="1105.25" y="-110.12" font-family="Helvetica,sans-Serif" font-size="10.00">logger_compute_fullname</text>
</a>
</g>
</g>
<!-- Node11&#45;&gt;Node15 -->
<g id="edge15_Node000011_Node000015" class="edge">
<title>Node11&#45;&gt;Node15</title>
<g id="a_edge15_Node000011_Node000015"><a xlink:title=" ">
<path fill="none" stroke="#63b8ff" d="M989.43,-179.98C995.07,-177.73 1000.71,-175.08 1005.75,-172 1024.53,-160.53 1023.12,-149.72 1041.75,-138 1047.62,-134.3 1054.16,-131.02 1060.73,-128.17"/>
<polygon fill="#63b8ff" stroke="#63b8ff" points="1061.61,-131.59 1069.58,-124.6 1059,-125.09 1061.61,-131.59"/>
</a>
</g>
</g>
<!-- Node18 -->
<g id="Node000018" class="node">
<title>Node18</title>
<g id="a_Node000018"><a xlink:href="../../df/d0a/str-l_8h.html#ad74dae07179370f3c22e3f026157926e" target="_top" xlink:title="wipe a lstr_t (frees memory if needed).">
<polygon fill="white" stroke="#666666" points="1276.25,-161.62 1221.25,-161.62 1221.25,-142.38 1276.25,-142.38 1276.25,-161.62"/>
<text text-anchor="middle" x="1248.75" y="-148.12" font-family="Helvetica,sans-Serif" font-size="10.00">lstr_wipe</text>
</a>
</g>
</g>
<!-- Node11&#45;&gt;Node18 -->
<g id="edge28_Node000011_Node000018" class="edge">
<title>Node11&#45;&gt;Node18</title>
<g id="a_edge28_Node000011_Node000018"><a xlink:title=" ">
<path fill="none" stroke="#63b8ff" d="M995.78,-179.97C1010.23,-176.71 1026.65,-173.34 1041.75,-171 1099.9,-162 1167.99,-156.73 1209.48,-154.11"/>
<polygon fill="#63b8ff" stroke="#63b8ff" points="1209.68,-157.61 1219.44,-153.51 1209.25,-150.62 1209.68,-157.61"/>
</a>
</g>
</g>
<!-- Node25 -->
<g id="Node000025" class="node">
<title>Node25</title>
<g id="a_Node000025"><a xlink:href="../../df/d0a/str-l_8h.html#a963c22b229774d4b7c106bae4011cb8e" target="_top" xlink:title="Returns whether \v s1 and \v s2 contents are equal.">
<polygon fill="white" stroke="#666666" points="1134.25,-236.62 1076.25,-236.62 1076.25,-217.38 1134.25,-217.38 1134.25,-236.62"/>
<text text-anchor="middle" x="1105.25" y="-223.12" font-family="Helvetica,sans-Serif" font-size="10.00">lstr_equal</text>
</a>
</g>
</g>
<!-- Node11&#45;&gt;Node25 -->
<g id="edge27_Node000011_Node000025" class="edge">
<title>Node11&#45;&gt;Node25</title>
<g id="a_edge27_Node000011_Node000025"><a xlink:title=" ">
<path fill="none" stroke="#63b8ff" d="M995.69,-200.11C1017.22,-205.44 1043.51,-211.95 1064.83,-217.23"/>
<polygon fill="#63b8ff" stroke="#63b8ff" points="1063.76,-220.58 1074.31,-219.58 1065.45,-213.78 1063.76,-220.58"/>
</a>
</g>
</g>
<!-- Node13 -->
<g id="Node000013" class="node">
<title>Node13</title>
<g id="a_Node000013"><a xlink:href="../../de/d1a/container-dlist_8h.html#a71e7667ca0e4b896923788c5851afd24" target="_top" xlink:title="Put element e between prev and next.">
<polygon fill="white" stroke="#666666" points="1281.5,-273.62 1216,-273.62 1216,-254.38 1281.5,-254.38 1281.5,-273.62"/>
<text text-anchor="middle" x="1248.75" y="-260.12" font-family="Helvetica,sans-Serif" font-size="10.00">__dlist_add</text>
</a>
</g>
</g>
<!-- Node12&#45;&gt;Node13 -->
<g id="edge13_Node000012_Node000013" class="edge">
<title>Node12&#45;&gt;Node13</title>
<g id="a_edge13_Node000012_Node000013"><a xlink:title=" ">
<path fill="none" stroke="#63b8ff" d="M1133.2,-264C1153.3,-264 1181.17,-264 1204.39,-264"/>
<polygon fill="#63b8ff" stroke="#63b8ff" points="1204.19,-267.5 1214.19,-264 1204.19,-260.5 1204.19,-267.5"/>
</a>
</g>
</g>
<!-- Node16 -->
<g id="Node000016" class="node">
<title>Node16</title>
<g id="a_Node000016"><a xlink:href="../../df/d0a/str-l_8h.html#a6a200ca09358f19b13a8e297cda34869" target="_top" xlink:title="returns a constant copy of \v s.">
<polygon fill="white" stroke="#666666" points="1276.62,-114.62 1220.88,-114.62 1220.88,-95.38 1276.62,-95.38 1276.62,-114.62"/>
<text text-anchor="middle" x="1248.75" y="-101.12" font-family="Helvetica,sans-Serif" font-size="10.00">lstr_dupc</text>
</a>
</g>
</g>
<!-- Node15&#45;&gt;Node16 -->
<g id="edge16_Node000015_Node000016" class="edge">
<title>Node15&#45;&gt;Node16</title>
<g id="a_edge16_Node000015_Node000016"><a xlink:title=" ">
<path fill="none" stroke="#63b8ff" d="M1169.14,-110C1182.79,-109.13 1196.83,-108.24 1209.2,-107.45"/>
<polygon fill="#63b8ff" stroke="#63b8ff" points="1209.22,-110.96 1218.98,-106.83 1208.77,-103.97 1209.22,-110.96"/>
</a>
</g>
</g>
<!-- Node15&#45;&gt;Node18 -->
<g id="edge18_Node000015_Node000018" class="edge">
<title>Node15&#45;&gt;Node18</title>
<g id="a_edge18_Node000015_Node000018"><a xlink:title=" ">
<path fill="none" stroke="#63b8ff" d="M1143.8,-124.08C1164.15,-129.55 1189.25,-136.29 1209.68,-141.78"/>
<polygon fill="#63b8ff" stroke="#63b8ff" points="1208.77,-145.16 1219.33,-144.37 1210.58,-138.4 1208.77,-145.16"/>
</a>
</g>
</g>
<!-- Node17 -->
<g id="Node000017" class="node">
<title>Node17</title>
<g id="a_Node000017"><a xlink:href="../../df/d0a/str-l_8h.html#a3b4dbe9c4cc70340cba0787574dc1c5e" target="_top" xlink:title=" ">
<polygon fill="white" stroke="#666666" points="1606.25,-114.62 1553.5,-114.62 1553.5,-95.38 1606.25,-95.38 1606.25,-114.62"/>
<text text-anchor="middle" x="1579.88" y="-101.12" font-family="Helvetica,sans-Serif" font-size="10.00">lstr_init_</text>
</a>
</g>
</g>
<!-- Node16&#45;&gt;Node17 -->
<g id="edge17_Node000016_Node000017" class="edge">
<title>Node16&#45;&gt;Node17</title>
<g id="a_edge17_Node000016_Node000017"><a xlink:title=" ">
<path fill="none" stroke="#63b8ff" d="M1276.96,-105C1335.81,-105 1474.94,-105 1541.78,-105"/>
<polygon fill="#63b8ff" stroke="#63b8ff" points="1541.49,-108.5 1551.49,-105 1541.49,-101.5 1541.49,-108.5"/>
</a>
</g>
</g>
<!-- Node19 -->
<g id="Node000019" class="node">
<title>Node19</title>
<g id="a_Node000019"><a xlink:href="../../df/d0a/str-l_8h.html#a381cd831ac9616c5bea8213bb679d1ac" target="_top" xlink:title="Wipe a lstr_t (frees memory if needed).">
<polygon fill="white" stroke="#666666" points="1402.5,-161.62 1328.75,-161.62 1328.75,-142.38 1402.5,-142.38 1402.5,-161.62"/>
<text text-anchor="middle" x="1365.62" y="-148.12" font-family="Helvetica,sans-Serif" font-size="10.00">mp_lstr_wipe</text>
</a>
</g>
</g>
<!-- Node18&#45;&gt;Node19 -->
<g id="edge19_Node000018_Node000019" class="edge">
<title>Node18&#45;&gt;Node19</title>
<g id="a_edge19_Node000018_Node000019"><a xlink:title=" ">
<path fill="none" stroke="#63b8ff" d="M1276.68,-152C1288.7,-152 1303.23,-152 1316.99,-152"/>
<polygon fill="#63b8ff" stroke="#63b8ff" points="1316.78,-155.5 1326.78,-152 1316.78,-148.5 1316.78,-155.5"/>
</a>
</g>
</g>
<!-- Node20 -->
<g id="Node000020" class="node">
<title>Node20</title>
<g id="a_Node000020"><a xlink:href="../../de/d04/str-l_8c.html#abe2a3a71f0b4dbc7d37c59d16762b6fb" target="_top" xlink:title="lstr_copy_* helper.">
<polygon fill="white" stroke="#666666" points="1517.5,-161.62 1438.5,-161.62 1438.5,-142.38 1517.5,-142.38 1517.5,-161.62"/>
<text text-anchor="middle" x="1478" y="-148.12" font-family="Helvetica,sans-Serif" font-size="10.00">mp_lstr_copy_</text>
</a>
</g>
</g>
<!-- Node19&#45;&gt;Node20 -->
<g id="edge20_Node000019_Node000020" class="edge">
<title>Node19&#45;&gt;Node20</title>
<g id="a_edge20_Node000019_Node000020"><a xlink:title=" ">
<path fill="none" stroke="#63b8ff" d="M1402.77,-152C1410.46,-152 1418.71,-152 1426.82,-152"/>
<polygon fill="#63b8ff" stroke="#63b8ff" points="1426.6,-155.5 1436.6,-152 1426.6,-148.5 1426.6,-155.5"/>
</a>
</g>
</g>
<!-- Node20&#45;&gt;Node17 -->
<g id="edge26_Node000020_Node000017" class="edge">
<title>Node20&#45;&gt;Node17</title>
<g id="a_edge26_Node000020_Node000017"><a xlink:title=" ">
<path fill="none" stroke="#63b8ff" d="M1500.18,-142.03C1513.86,-135.6 1531.9,-127.1 1547.26,-119.88"/>
<polygon fill="#63b8ff" stroke="#63b8ff" points="1548.45,-123.18 1556.01,-115.76 1545.47,-116.85 1548.45,-123.18"/>
</a>
</g>
</g>
<!-- Node21 -->
<g id="Node000021" class="node">
<title>Node21</title>
<g id="a_Node000021"><a xlink:href="../../d9/d9a/mem_8h.html#aebbbd277e2952bdb802104671ba23ba9" target="_top" xlink:title=" ">
<polygon fill="white" stroke="#666666" points="1597.25,-189.62 1562.5,-189.62 1562.5,-170.38 1597.25,-170.38 1597.25,-189.62"/>
<text text-anchor="middle" x="1579.88" y="-176.12" font-family="Helvetica,sans-Serif" font-size="10.00">ifree</text>
</a>
</g>
</g>
<!-- Node20&#45;&gt;Node21 -->
<g id="edge21_Node000020_Node000021" class="edge">
<title>Node20&#45;&gt;Node21</title>
<g id="a_edge21_Node000020_Node000021"><a xlink:title=" ">
<path fill="none" stroke="#63b8ff" d="M1515.06,-162.11C1527,-165.46 1540.09,-169.13 1551.3,-172.27"/>
<polygon fill="#63b8ff" stroke="#63b8ff" points="1550.13,-175.58 1560.7,-174.9 1552.02,-168.84 1550.13,-175.58"/>
</a>
</g>
</g>
<!-- Node22 -->
<g id="Node000022" class="node">
<title>Node22</title>
<g id="a_Node000022"><a xlink:href="../../d8/d37/mem_8blk.html#a36b65ab346f1d0deed7b63c544c78f2b" target="_top" xlink:title=" ">
<polygon fill="white" stroke="#666666" points="1687.12,-282.62 1650.88,-282.62 1650.88,-263.38 1687.12,-263.38 1687.12,-282.62"/>
<text text-anchor="middle" x="1669" y="-269.12" font-family="Helvetica,sans-Serif" font-size="10.00">ipool</text>
</a>
</g>
</g>
<!-- Node21&#45;&gt;Node22 -->
<g id="edge22_Node000021_Node000022" class="edge">
<title>Node21&#45;&gt;Node22</title>
<g id="a_edge22_Node000021_Node000022"><a xlink:title=" ">
<path fill="none" stroke="#63b8ff" d="M1590.2,-189.95C1604.68,-205.41 1632.78,-235.4 1650.95,-254.8"/>
<polygon fill="#63b8ff" stroke="#63b8ff" points="1648.32,-257.11 1657.71,-262.01 1653.43,-252.32 1648.32,-257.11"/>
</a>
</g>
</g>
<!-- Node24 -->
<g id="Node000024" class="node">
<title>Node24</title>
<g id="a_Node000024"><a xlink:href="../../d8/d37/mem_8blk.html#a83c7cf203e5eef9d1a8c6c43cde3e2e5" target="_top" xlink:title=" ">
<polygon fill="white" stroke="#666666" points="1695.75,-189.62 1642.25,-189.62 1642.25,-170.38 1695.75,-170.38 1695.75,-189.62"/>
<text text-anchor="middle" x="1669" y="-176.12" font-family="Helvetica,sans-Serif" font-size="10.00">mp_ifree</text>
</a>
</g>
</g>
<!-- Node21&#45;&gt;Node24 -->
<g id="edge25_Node000021_Node000024" class="edge">
<title>Node21&#45;&gt;Node24</title>
<g id="a_edge25_Node000021_Node000024"><a xlink:title=" ">
<path fill="none" stroke="#63b8ff" d="M1597.67,-180C1607.09,-180 1619.24,-180 1630.78,-180"/>
<polygon fill="#63b8ff" stroke="#63b8ff" points="1630.48,-183.5 1640.48,-180 1630.48,-176.5 1630.48,-183.5"/>
</a>
</g>
</g>
<!-- Node22&#45;&gt;Node9 -->
<g id="edge23_Node000022_Node000009" class="edge">
<title>Node22&#45;&gt;Node9</title>
<g id="a_edge23_Node000022_Node000009"><a xlink:title=" ">
<path fill="none" stroke="#63b8ff" d="M1650.42,-277.53C1617.18,-285.69 1542.74,-302 1479,-302 952.88,-302 952.88,-302 952.88,-302 907.92,-302 791.63,-236.66 739.2,-205.8"/>
<polygon fill="#63b8ff" stroke="#63b8ff" points="741,-202.8 730.62,-200.71 737.44,-208.82 741,-202.8"/>
</a>
</g>
</g>
<!-- Node23 -->
<g id="Node000023" class="node">
<title>Node23</title>
<g id="a_Node000023"><a xlink:href="../../d1/d10/mem-stack_8h.html#a1d0e2a29f86dc033a02e50484b527fd0" target="_top" xlink:title=" ">
<polygon fill="white" stroke="#666666" points="1774,-282.62 1731.75,-282.62 1731.75,-263.38 1774,-263.38 1774,-282.62"/>
<text text-anchor="middle" x="1752.88" y="-269.12" font-family="Helvetica,sans-Serif" font-size="10.00">t_pool</text>
</a>
</g>
</g>
<!-- Node22&#45;&gt;Node23 -->
<g id="edge24_Node000022_Node000023" class="edge">
<title>Node22&#45;&gt;Node23</title>
<g id="a_edge24_Node000022_Node000023"><a xlink:title=" ">
<path fill="none" stroke="#63b8ff" d="M1687.36,-273C1696.81,-273 1708.79,-273 1719.86,-273"/>
<polygon fill="#63b8ff" stroke="#63b8ff" points="1719.84,-276.5 1729.84,-273 1719.84,-269.5 1719.84,-276.5"/>
</a>
</g>
</g>
<!-- Node28&#45;&gt;Node16 -->
<g id="edge35_Node000028_Node000016" class="edge">
<title>Node28&#45;&gt;Node16</title>
<g id="a_edge35_Node000028_Node000016"><a xlink:title=" ">
<path fill="none" stroke="#63b8ff" d="M854.99,-77C916.08,-79.07 1053.5,-84.55 1168.75,-95 1181.93,-96.19 1196.29,-97.89 1209.12,-99.55"/>
<polygon fill="#63b8ff" stroke="#63b8ff" points="1208.51,-103 1218.88,-100.85 1209.43,-96.06 1208.51,-103"/>
</a>
</g>
</g>
<!-- Node29 -->
<g id="Node000029" class="node">
<title>Node29</title>
<g id="a_Node000029"><a xlink:href="../../d1/dc0/group__log.html#ga168a6f17b248f61f7d25a17d58d04e36" target="_top" xlink:title=" ">
<polygon fill="white" stroke="#666666" points="998.25,-47.62 909.5,-47.62 909.5,-28.38 998.25,-28.38 998.25,-47.62"/>
<text text-anchor="middle" x="953.88" y="-34.12" font-family="Helvetica,sans-Serif" font-size="10.00">logger_has_level</text>
</a>
</g>
</g>
<!-- Node28&#45;&gt;Node29 -->
<g id="edge32_Node000028_Node000029" class="edge">
<title>Node28&#45;&gt;Node29</title>
<g id="a_edge32_Node000028_Node000029"><a xlink:title=" ">
<path fill="none" stroke="#63b8ff" d="M855.1,-66.61C870.88,-61.99 890.16,-56.35 907.42,-51.3"/>
<polygon fill="#63b8ff" stroke="#63b8ff" points="908.34,-54.68 916.96,-48.51 906.38,-47.96 908.34,-54.68"/>
</a>
</g>
</g>
<!-- Node30 -->
<g id="Node000030" class="node">
<title>Node30</title>
<g id="a_Node000030"><a xlink:href="../../d1/dc0/group__log.html#gaf388752b988541da0abeceecdf96e6b3" target="_top" xlink:title=" ">
<polygon fill="white" stroke="#666666" points="1148.5,-47.62 1062,-47.62 1062,-28.38 1148.5,-28.38 1148.5,-47.62"/>
<text text-anchor="middle" x="1105.25" y="-34.12" font-family="Helvetica,sans-Serif" font-size="10.00">logger_get_level</text>
</a>
</g>
</g>
<!-- Node29&#45;&gt;Node30 -->
<g id="edge33_Node000029_Node000030" class="edge">
<title>Node29&#45;&gt;Node30</title>
<g id="a_edge33_Node000029_Node000030"><a xlink:title=" ">
<path fill="none" stroke="#63b8ff" d="M998.48,-38C1014.64,-38 1033.17,-38 1050.15,-38"/>
<polygon fill="#63b8ff" stroke="#63b8ff" points="1050.11,-41.5 1060.11,-38 1050.11,-34.5 1050.11,-41.5"/>
</a>
</g>
</g>
<!-- Node31 -->
<g id="Node000031" class="node">
<title>Node31</title>
<g id="a_Node000031"><a xlink:href="../../d1/dc0/group__log.html#ga93cbd623096e1704532d15b3eb30e42f" target="_top" xlink:title=" ">
<polygon fill="white" stroke="#666666" points="1292.75,-47.62 1204.75,-47.62 1204.75,-28.38 1292.75,-28.38 1292.75,-47.62"/>
<text text-anchor="middle" x="1248.75" y="-34.12" font-family="Helvetica,sans-Serif" font-size="10.00">__logger_refresh</text>
</a>
</g>
</g>
<!-- Node30&#45;&gt;Node31 -->
<g id="edge34_Node000030_Node000031" class="edge">
<title>Node30&#45;&gt;Node31</title>
<g id="a_edge34_Node000030_Node000031"><a xlink:title=" ">
<path fill="none" stroke="#63b8ff" d="M1148.7,-38C1162.58,-38 1178.19,-38 1192.85,-38"/>
<polygon fill="#63b8ff" stroke="#63b8ff" points="1192.83,-41.5 1202.83,-38 1192.83,-34.5 1192.83,-41.5"/>
</a>
</g>
</g>
<!-- Node34 -->
<g id="Node000034" class="node">
<title>Node34</title>
<g id="a_Node000034"><a xlink:href="../../d8/d96/bithacks_8h.html#ab80588fa9f8b9e766249edaf70558bdc" target="_top" xlink:title=" ">
<polygon fill="white" stroke="#666666" points="742,-236.62 681.75,-236.62 681.75,-217.38 742,-217.38 742,-236.62"/>
<text text-anchor="middle" x="711.88" y="-223.12" font-family="Helvetica,sans-Serif" font-size="10.00">bitcountsz</text>
</a>
</g>
</g>
<!-- Node33&#45;&gt;Node34 -->
<g id="edge38_Node000033_Node000034" class="edge">
<title>Node33&#45;&gt;Node34</title>
<g id="a_edge38_Node000033_Node000034"><a xlink:title=" ">
<path fill="none" stroke="#63b8ff" d="M634.32,-227C645.9,-227 658.62,-227 670.31,-227"/>
<polygon fill="#63b8ff" stroke="#63b8ff" points="670.06,-230.5 680.06,-227 670.06,-223.5 670.06,-230.5"/>
</a>
</g>
</g>
<!-- Node36 -->
<g id="Node000036" class="node">
<title>Node36</title>
<g id="a_Node000036"><a xlink:href="../../d8/d37/mem_8blk.html#a377e36d6fbaf3ee7f1b217559cb0c850" target="_top" xlink:title=" ">
<polygon fill="white" stroke="#666666" points="645.75,-273.62 543.5,-273.62 543.5,-254.38 645.75,-254.38 645.75,-273.62"/>
<text text-anchor="middle" x="594.62" y="-260.12" font-family="Helvetica,sans-Serif" font-size="10.00">__imalloc_too_large</text>
</a>
</g>
</g>
<!-- Node35&#45;&gt;Node36 -->
<g id="edge40_Node000035_Node000036" class="edge">
<title>Node35&#45;&gt;Node36</title>
<g id="a_edge40_Node000035_Node000036"><a xlink:title=" ">
<path fill="none" stroke="#63b8ff" d="M507.64,-252.45C515.64,-253.53 523.91,-254.64 532.02,-255.73"/>
<polygon fill="#63b8ff" stroke="#63b8ff" points="531.46,-259.18 541.83,-257.05 532.39,-252.25 531.46,-259.18"/>
</a>
</g>
</g>
<!-- Node37&#45;&gt;Node17 -->
<g id="edge42_Node000037_Node000017" class="edge">
<title>Node37&#45;&gt;Node17</title>
<g id="a_edge42_Node000037_Node000017"><a xlink:title=" ">
<path fill="none" stroke="#63b8ff" d="M1388.94,-19.99C1426.52,-36.81 1502.59,-70.86 1546.2,-90.37"/>
<polygon fill="#63b8ff" stroke="#63b8ff" points="1544.6,-93.5 1555.16,-94.39 1547.46,-87.11 1544.6,-93.5"/>
</a>
</g>
</g>
</g>
</svg>

<g id="navigator" transform="translate(0 0)" fill="#404254">
  <rect fill="#f2f5e9" fill-opacity="0.5" stroke="#606060" stroke-width=".5" x="0" y="0" width="60" height="60"/>
  <use id="zoomplus" xlink:href="#zoomPlus" x="17" y="9" onmousedown="handleZoom(evt,'in')"/>
  <use id="zoomminus" xlink:href="#zoomMin" x="42" y="9" onmousedown="handleZoom(evt,'out')"/>
  <use id="reset" xlink:href="#resetDef" x="30" y="36" onmousedown="handleReset()"/>
   <use id="arrowup" xlink:href="#arrowUp" x="0" y="0" onmousedown="handlePan(0,-1)"/>
  <use id="arrowright" xlink:href="#arrowRight" x="0" y="0" onmousedown="handlePan(1,0)"/>
  <use id="arrowdown" xlink:href="#arrowDown" x="0" y="0" onmousedown="handlePan(0,1)"/>
  <use id="arrowleft" xlink:href="#arrowLeft" x="0" y="0" onmousedown="handlePan(-1,0)"/>
</g>
<svg viewBox="0 0 15 15" width="100%" height="30px" preserveAspectRatio="xMaxYMin meet">
 <g id="arrow_out" transform="scale(0.3 0.3)">
  <a xlink:href="str-l_8h_acbf264e2a9d211340d62fd2da29fdec2_cgraph_org.svg" target="_base">
   <rect id="button" ry="5" rx="5" y="6" x="6" height="38" width="38"
        fill="#f2f5e9" fill-opacity="0.5" stroke="#606060" stroke-width="1.0"/>
   <path id="arrow"
     d="M 11.500037,31.436501 C 11.940474,20.09759 22.043105,11.32322 32.158766,21.979434 L 37.068811,17.246167 C 37.068811,17.246167 37.088388,32 37.088388,32 L 22.160133,31.978069 C 22.160133,31.978069 26.997745,27.140456 26.997745,27.140456 C 18.528582,18.264221 13.291696,25.230495 11.500037,31.436501 z"
     style="fill:#404040;"/>
  </a>
 </g>
</svg>

<style type='text/css'>
<![CDATA[
[data-mouse-over-selected='false'] { opacity: 0.7; }
[data-mouse-over-selected='true']  { opacity: 1.0; }
]]>
</style>
<script type="application/ecmascript"><![CDATA[
document.addEventListener('DOMContentLoaded', (event) => {
  highlightEdges();
  highlightAdjacentNodes();
});
]]></script>
</svg>
