<?xml version="1.0" encoding="UTF-8" standalone="no"?>
<!DOCTYPE svg PUBLIC "-//W3C//DTD SVG 1.1//EN"
 "http://www.w3.org/Graphics/SVG/1.1/DTD/svg11.dtd">
<!-- Generated by graphviz version 9.0.0 (20230911.1827)
 -->
<!-- Title: lstr_to_int Pages: 1 -->
<svg width="270pt" height="64pt"
 viewBox="0.00 0.00 269.75 64.25" xmlns="http://www.w3.org/2000/svg" xmlns:xlink="http://www.w3.org/1999/xlink">
<g id="graph0" class="graph" transform="scale(1 1) rotate(0) translate(4 60.25)">
<title>lstr_to_int</title>
<!-- Node1 -->
<g id="Node000001" class="node">
<title>Node1</title>
<g id="a_Node000001"><a xlink:title="Convert a lstr into an int.">
<polygon fill="#999999" stroke="#666666" points="58.75,-37.25 0,-37.25 0,-18 58.75,-18 58.75,-37.25"/>
<text text-anchor="middle" x="29.38" y="-23.75" font-family="Helvetica,sans-Serif" font-size="10.00">lstr_to_int</text>
</a>
</g>
</g>
<!-- Node2 -->
<g id="Node000002" class="node">
<title>Node2</title>
<g id="a_Node000002"><a xlink:href="../../df/d0a/str-l_8h.html#ac764f4c7ed4f6b893874879a2ebb28b4" target="_top" xlink:title="return the right&#45;trimmed lstr.">
<polygon fill="white" stroke="#666666" points="149,-56.25 94.75,-56.25 94.75,-37 149,-37 149,-56.25"/>
<text text-anchor="middle" x="121.88" y="-42.75" font-family="Helvetica,sans-Serif" font-size="10.00">lstr_rtrim</text>
</a>
</g>
</g>
<!-- Node1&#45;&gt;Node2 -->
<g id="edge1_Node000001_Node000002" class="edge">
<title>Node1&#45;&gt;Node2</title>
<g id="a_edge1_Node000001_Node000002"><a xlink:title=" ">
<path fill="none" stroke="#63b8ff" d="M59.01,-33.64C66.68,-35.25 75.1,-37.01 83.18,-38.71"/>
<polygon fill="#63b8ff" stroke="#63b8ff" points="82.29,-42.1 92.79,-40.73 83.72,-35.25 82.29,-42.1"/>
</a>
</g>
</g>
<!-- Node3 -->
<g id="Node000003" class="node">
<title>Node3</title>
<g id="a_Node000003"><a xlink:href="../../d8/d17/str-num_8c.html#ae846bdcb22ccf7e1a1a22e9ad94c87ee" target="_top" xlink:title=" ">
<polygon fill="white" stroke="#666666" points="148.62,-19.25 95.12,-19.25 95.12,0 148.62,0 148.62,-19.25"/>
<text text-anchor="middle" x="121.88" y="-5.75" font-family="Helvetica,sans-Serif" font-size="10.00">memtoip</text>
</a>
</g>
</g>
<!-- Node1&#45;&gt;Node3 -->
<g id="edge2_Node000001_Node000003" class="edge">
<title>Node1&#45;&gt;Node3</title>
<g id="a_edge2_Node000001_Node000003"><a xlink:title=" ">
<path fill="none" stroke="#63b8ff" d="M59.01,-21.93C66.82,-20.38 75.4,-18.67 83.62,-17.03"/>
<polygon fill="#63b8ff" stroke="#63b8ff" points="84.27,-20.47 93.4,-15.09 82.91,-13.61 84.27,-20.47"/>
</a>
</g>
</g>
<!-- Node4 -->
<g id="Node000004" class="node">
<title>Node4</title>
<g id="a_Node000004"><a xlink:href="../../d8/d17/str-num_8c.html#a8450512025b2b58bbdfdc7d5fbadbc99" target="_top" xlink:title=" ">
<polygon fill="white" stroke="#666666" points="261.75,-19.25 185,-19.25 185,0 261.75,0 261.75,-19.25"/>
<text text-anchor="middle" x="223.38" y="-5.75" font-family="Helvetica,sans-Serif" font-size="10.00">memtoip_impl</text>
</a>
</g>
</g>
<!-- Node3&#45;&gt;Node4 -->
<g id="edge3_Node000003_Node000004" class="edge">
<title>Node3&#45;&gt;Node4</title>
<g id="a_edge3_Node000003_Node000004"><a xlink:title=" ">
<path fill="none" stroke="#63b8ff" d="M149.02,-9.62C156.54,-9.62 165,-9.62 173.42,-9.62"/>
<polygon fill="#63b8ff" stroke="#63b8ff" points="173.29,-13.13 183.29,-9.63 173.29,-6.13 173.29,-13.13"/>
</a>
</g>
</g>
</g>
</svg>
