<?xml version="1.0" encoding="UTF-8" standalone="no"?>
<!DOCTYPE svg PUBLIC "-//W3C//DTD SVG 1.1//EN"
 "http://www.w3.org/Graphics/SVG/1.1/DTD/svg11.dtd">
<!-- Generated by graphviz version 9.0.0 (20230911.1827)
 -->
<!-- Title: mem_ring_delete Pages: 1 -->
<!--zoomable 83 -->

<svg id="main" version="1.1" xmlns="http://www.w3.org/2000/svg" xmlns:xlink="http://www.w3.org/1999/xlink" xml:space="preserve" onload="init(evt)">
<style type="text/css"><![CDATA[
.node, .edge {opacity: 0.7;}
.node.selected, .edge.selected {opacity: 1;}
.edge:hover path { stroke: red; }
.edge:hover polygon { stroke: red; fill: red; }
]]></style>

<defs>
  <circle id="rim" cx="0" cy="0" r="7"/>
  <circle id="rim2" cx="0" cy="0" r="3.5"/>
  <g id="zoomPlus">
    <use xlink:href="#rim" fill="#404040"><set attributeName="fill" to="#808080" begin="zoomplus.mouseover" end="zoomplus.mouseout"/></use>
    <path d="M-4,0h8M0,-4v8" fill="none" stroke="white" stroke-width="1.5" pointer-events="none"/>
  </g>
  <g id="zoomMin">
    <use xlink:href="#rim" fill="#404040"><set attributeName="fill" to="#808080" begin="zoomminus.mouseover" end="zoomminus.mouseout"/></use>
    <path d="M-4,0h8" fill="none" stroke="white" stroke-width="1.5" pointer-events="none"/>
  </g>
  <g id="arrowUp" transform="translate(30 24)">
    <use xlink:href="#rim"/>
    <path pointer-events="none" fill="none" stroke="white" stroke-width="1.5" d="M0,-3.0v7 M-2.5,-0.5L0,-3.0L2.5,-0.5"/>
  </g>
  <g id="arrowRight" transform="rotate(90) translate(36 -43)">
    <use xlink:href="#rim"/>
    <path pointer-events="none" fill="none" stroke="white" stroke-width="1.5" d="M0,-3.0v7 M-2.5,-0.5L0,-3.0L2.5,-0.5"/>
  </g>
  <g id="arrowDown" transform="rotate(180) translate(-30 -48)">
    <use xlink:href="#rim"/>
    <path pointer-events="none" fill="none" stroke="white" stroke-width="1.5" d="M0,-3.0v7 M-2.5,-0.5L0,-3.0L2.5,-0.5"/>
  </g>
  <g id="arrowLeft" transform="rotate(270) translate(-36 17)">
    <use xlink:href="#rim"/>
    <path pointer-events="none" fill="none" stroke="white" stroke-width="1.5" d="M0,-3.0v7 M-2.5,-0.5L0,-3.0L2.5,-0.5"/>
  </g>
  <g id="resetDef">
    <use xlink:href="#rim2" fill="#404040"><set attributeName="fill" to="#808080" begin="reset.mouseover" end="reset.mouseout"/></use>
  </g>
</defs>
<script type="application/ecmascript">
var viewWidth = 527;
var viewHeight = 83;
var sectionId = 'dynsection-24';
</script>
<script type="application/ecmascript" xlink:href="../../svg.min.js"/>
<svg id="graph" class="graph">
<g id="viewport">
<title>mem_ring_delete</title>
<!-- Node1 -->
<g id="Node000001" class="node">
<title>Node1</title>
<g id="a_Node000001"><a xlink:title="Delete the given memory ring&#45;pool.">
<polygon fill="#999999" stroke="#666666" points="519.25,-56.25 429,-56.25 429,-37 519.25,-37 519.25,-56.25"/>
<text text-anchor="middle" x="474.12" y="-42.75" font-family="Helvetica,sans-Serif" font-size="10.00">mem_ring_delete</text>
</a>
</g>
</g>
<!-- Node2 -->
<g id="Node000002" class="node">
<title>Node2</title>
<g id="a_Node000002"><a xlink:href="../../db/d6e/iopc-iopsq_8c.html#a5b83115db34f7935c32c3adcfab9143a" target="_top" xlink:title="Wipe an iopsq_iop_struct_t object.">
<polygon fill="white" stroke="#666666" points="261.5,-75.25 148.75,-75.25 148.75,-56 261.5,-56 261.5,-75.25"/>
<text text-anchor="middle" x="205.12" y="-61.75" font-family="Helvetica,sans-Serif" font-size="10.00">iopsq_iop_struct_wipe</text>
</a>
</g>
</g>
<!-- Node1&#45;&gt;Node2 -->
<g id="edge1_Node000001_Node000002" class="edge">
<title>Node1&#45;&gt;Node2</title>
<g id="a_edge1_Node000001_Node000002"><a xlink:title=" ">
<path fill="none" stroke="#63b8ff" d="M427.48,-59.38C416.29,-61.97 404.29,-64.3 393,-65.62 349.18,-70.75 299.17,-70.43 261.93,-69"/>
<polygon fill="#63b8ff" stroke="#63b8ff" points="427.98,-62.86 436.87,-57.1 426.32,-56.06 427.98,-62.86"/>
</a>
</g>
</g>
<!-- Node4 -->
<g id="Node000004" class="node">
<title>Node4</title>
<g id="a_Node000004"><a xlink:href="../../de/ddd/mem-ring_8c.html#af77a9c34439db748b2b2e4989c5c965f" target="_top" xlink:title="Release the frame identified by the given cookie.">
<polygon fill="white" stroke="#666666" points="393,-56.25 297.5,-56.25 297.5,-37 393,-37 393,-56.25"/>
<text text-anchor="middle" x="345.25" y="-42.75" font-family="Helvetica,sans-Serif" font-size="10.00">mem_ring_release</text>
</a>
</g>
</g>
<!-- Node1&#45;&gt;Node4 -->
<g id="edge3_Node000001_Node000004" class="edge">
<title>Node1&#45;&gt;Node4</title>
<g id="a_edge3_Node000001_Node000004"><a xlink:title=" ">
<path fill="none" stroke="#63b8ff" d="M417.26,-46.62C409.3,-46.62 401.18,-46.62 393.4,-46.62"/>
<polygon fill="#63b8ff" stroke="#63b8ff" points="417.24,-50.13 427.24,-46.63 417.24,-43.13 417.24,-50.13"/>
</a>
</g>
</g>
<!-- Node5 -->
<g id="Node000005" class="node">
<title>Node5</title>
<g id="a_Node000005"><a xlink:href="../../de/ddd/mem-ring_8c.html#aa5ae1efac41f407624fbc340a51d01d4" target="_top" xlink:title="Destroy the r_pool()">
<polygon fill="white" stroke="#666666" points="384.75,-19.25 305.75,-19.25 305.75,0 384.75,0 384.75,-19.25"/>
<text text-anchor="middle" x="345.25" y="-5.75" font-family="Helvetica,sans-Serif" font-size="10.00">r_pool_destroy</text>
</a>
</g>
</g>
<!-- Node1&#45;&gt;Node5 -->
<g id="edge5_Node000001_Node000005" class="edge">
<title>Node1&#45;&gt;Node5</title>
<g id="a_edge5_Node000001_Node000005"><a xlink:title=" ">
<path fill="none" stroke="#63b8ff" d="M427.58,-33.34C412.19,-28.86 395.28,-23.92 380.88,-19.72"/>
<polygon fill="#63b8ff" stroke="#63b8ff" points="426.42,-36.65 437,-36.09 428.38,-29.93 426.42,-36.65"/>
</a>
</g>
</g>
<!-- Node3 -->
<g id="Node000003" class="node">
<title>Node3</title>
<g id="a_Node000003"><a xlink:href="../../db/d6e/iopc-iopsq_8c.html#a29da93a7e88dca9ad6e854548eb1ad54" target="_top" xlink:title="Build iopsq_iop_struct_t object.">
<polygon fill="white" stroke="#666666" points="112.75,-75.25 0,-75.25 0,-56 112.75,-56 112.75,-75.25"/>
<text text-anchor="middle" x="56.38" y="-61.75" font-family="Helvetica,sans-Serif" font-size="10.00">iopsq_iop_struct_build</text>
</a>
</g>
</g>
<!-- Node2&#45;&gt;Node3 -->
<g id="edge2_Node000002_Node000003" class="edge">
<title>Node2&#45;&gt;Node3</title>
<g id="a_edge2_Node000002_Node000003"><a xlink:title=" ">
<path fill="none" stroke="#63b8ff" d="M137.26,-65.62C129.12,-65.62 120.88,-65.62 112.93,-65.62"/>
<polygon fill="#63b8ff" stroke="#63b8ff" points="137.13,-69.13 147.13,-65.63 137.13,-62.13 137.13,-69.13"/>
</a>
</g>
</g>
<!-- Node4&#45;&gt;Node2 -->
<g id="edge4_Node000004_Node000002" class="edge">
<title>Node4&#45;&gt;Node2</title>
<g id="a_edge4_Node000004_Node000002"><a xlink:title=" ">
<path fill="none" stroke="#63b8ff" d="M285.91,-54.65C277.87,-55.76 269.63,-56.89 261.64,-57.99"/>
<polygon fill="#63b8ff" stroke="#63b8ff" points="286.17,-58.15 295.6,-53.32 285.22,-51.21 286.17,-58.15"/>
</a>
</g>
</g>
</g>
</svg>

<g id="navigator" transform="translate(0 0)" fill="#404254">
  <rect fill="#f2f5e9" fill-opacity="0.5" stroke="#606060" stroke-width=".5" x="0" y="0" width="60" height="60"/>
  <use id="zoomplus" xlink:href="#zoomPlus" x="17" y="9" onmousedown="handleZoom(evt,'in')"/>
  <use id="zoomminus" xlink:href="#zoomMin" x="42" y="9" onmousedown="handleZoom(evt,'out')"/>
  <use id="reset" xlink:href="#resetDef" x="30" y="36" onmousedown="handleReset()"/>
   <use id="arrowup" xlink:href="#arrowUp" x="0" y="0" onmousedown="handlePan(0,-1)"/>
  <use id="arrowright" xlink:href="#arrowRight" x="0" y="0" onmousedown="handlePan(1,0)"/>
  <use id="arrowdown" xlink:href="#arrowDown" x="0" y="0" onmousedown="handlePan(0,1)"/>
  <use id="arrowleft" xlink:href="#arrowLeft" x="0" y="0" onmousedown="handlePan(-1,0)"/>
</g>
<svg viewBox="0 0 15 15" width="100%" height="30px" preserveAspectRatio="xMaxYMin meet">
 <g id="arrow_out" transform="scale(0.3 0.3)">
  <a xlink:href="mem-ring_8c_aff9eaa948c0e409bb9e9f3c18b0f73fa_icgraph_org.svg" target="_base">
   <rect id="button" ry="5" rx="5" y="6" x="6" height="38" width="38"
        fill="#f2f5e9" fill-opacity="0.5" stroke="#606060" stroke-width="1.0"/>
   <path id="arrow"
     d="M 11.500037,31.436501 C 11.940474,20.09759 22.043105,11.32322 32.158766,21.979434 L 37.068811,17.246167 C 37.068811,17.246167 37.088388,32 37.088388,32 L 22.160133,31.978069 C 22.160133,31.978069 26.997745,27.140456 26.997745,27.140456 C 18.528582,18.264221 13.291696,25.230495 11.500037,31.436501 z"
     style="fill:#404040;"/>
  </a>
 </g>
</svg>

<style type='text/css'>
<![CDATA[
[data-mouse-over-selected='false'] { opacity: 0.7; }
[data-mouse-over-selected='true']  { opacity: 1.0; }
]]>
</style>
<script type="application/ecmascript"><![CDATA[
document.addEventListener('DOMContentLoaded', (event) => {
  highlightEdges();
  highlightAdjacentNodes();
});
]]></script>
</svg>
