<?xml version="1.0" encoding="UTF-8" standalone="no"?>
<!DOCTYPE svg PUBLIC "-//W3C//DTD SVG 1.1//EN"
 "http://www.w3.org/Graphics/SVG/1.1/DTD/svg11.dtd">
<!-- Generated by graphviz version 9.0.0 (20230911.1827)
 -->
<!-- Title: align_boundary Pages: 1 -->
<svg width="542pt" height="101pt"
 viewBox="0.00 0.00 541.75 101.25" xmlns="http://www.w3.org/2000/svg" xmlns:xlink="http://www.w3.org/1999/xlink">
<g id="graph0" class="graph" transform="scale(1 1) rotate(0) translate(4 97.25)">
<title>align_boundary</title>
<!-- Node1 -->
<g id="Node000001" class="node">
<title>Node1</title>
<g id="a_Node000001"><a xlink:title=" ">
<polygon fill="#999999" stroke="#666666" points="533.75,-37.25 453.25,-37.25 453.25,-18 533.75,-18 533.75,-37.25"/>
<text text-anchor="middle" x="493.5" y="-23.75" font-family="Helvetica,sans-Serif" font-size="10.00">align_boundary</text>
</a>
</g>
</g>
<!-- Node2 -->
<g id="Node000002" class="node">
<title>Node2</title>
<g id="a_Node000002"><a xlink:href="../../de/ddd/mem-ring_8c.html#a97174d4c5d00eec93a6b5d0f5f90c5c4" target="_top" xlink:title=" ">
<polygon fill="white" stroke="#666666" points="417.25,-56.25 364.5,-56.25 364.5,-37 417.25,-37 417.25,-56.25"/>
<text text-anchor="middle" x="390.88" y="-42.75" font-family="Helvetica,sans-Serif" font-size="10.00">align_for</text>
</a>
</g>
</g>
<!-- Node1&#45;&gt;Node2 -->
<g id="edge1_Node000001_Node000002" class="edge">
<title>Node1&#45;&gt;Node2</title>
<g id="a_edge1_Node000001_Node000002"><a xlink:title=" ">
<path fill="none" stroke="#63b8ff" d="M441.71,-37.22C433.36,-38.79 425.02,-40.37 417.63,-41.76"/>
<polygon fill="#63b8ff" stroke="#63b8ff" points="442.35,-40.66 451.53,-35.36 441.06,-33.78 442.35,-40.66"/>
</a>
</g>
</g>
<!-- Node8 -->
<g id="Node000008" class="node">
<title>Node8</title>
<g id="a_Node000008"><a xlink:href="../../de/ddd/mem-ring_8c.html#ad4af0cc50b53e845edf250cb06b26646" target="_top" xlink:title=" ">
<polygon fill="white" stroke="#666666" points="85.38,-19.25 27.38,-19.25 27.38,0 85.38,0 85.38,-19.25"/>
<text text-anchor="middle" x="56.38" y="-5.75" font-family="Helvetica,sans-Serif" font-size="10.00">rp_realloc</text>
</a>
</g>
</g>
<!-- Node1&#45;&gt;Node8 -->
<g id="edge9_Node000001_Node000008" class="edge">
<title>Node1&#45;&gt;Node8</title>
<g id="a_edge9_Node000001_Node000008"><a xlink:title=" ">
<path fill="none" stroke="#63b8ff" d="M441.88,-25.53C349.89,-21.73 158.12,-13.79 85.8,-10.8"/>
<polygon fill="#63b8ff" stroke="#63b8ff" points="441.47,-29.02 451.61,-25.93 441.76,-22.02 441.47,-29.02"/>
</a>
</g>
</g>
<!-- Node3 -->
<g id="Node000003" class="node">
<title>Node3</title>
<g id="a_Node000003"><a xlink:href="../../de/ddd/mem-ring_8c.html#a77ae562bc5326a7ed63c03f3f6dfd007" target="_top" xlink:title=" ">
<polygon fill="white" stroke="#666666" points="328.5,-56.25 266.75,-56.25 266.75,-37 328.5,-37 328.5,-56.25"/>
<text text-anchor="middle" x="297.62" y="-42.75" font-family="Helvetica,sans-Serif" font-size="10.00">rp_reserve</text>
</a>
</g>
</g>
<!-- Node2&#45;&gt;Node3 -->
<g id="edge2_Node000002_Node000003" class="edge">
<title>Node2&#45;&gt;Node3</title>
<g id="a_edge2_Node000002_Node000003"><a xlink:title=" ">
<path fill="none" stroke="#63b8ff" d="M353.04,-46.62C344.97,-46.62 336.52,-46.62 328.76,-46.62"/>
<polygon fill="#63b8ff" stroke="#63b8ff" points="352.94,-50.13 362.94,-46.63 352.94,-43.13 352.94,-50.13"/>
</a>
</g>
</g>
<!-- Node4 -->
<g id="Node000004" class="node">
<title>Node4</title>
<g id="a_Node000004"><a xlink:href="../../de/ddd/mem-ring_8c.html#adc9e7915b3feee706d436c0e3cb715a2" target="_top" xlink:title="Seal the active frame.">
<polygon fill="white" stroke="#666666" points="230.75,-93.25 148.75,-93.25 148.75,-74 230.75,-74 230.75,-93.25"/>
<text text-anchor="middle" x="189.75" y="-79.75" font-family="Helvetica,sans-Serif" font-size="10.00">mem_ring_seal</text>
</a>
</g>
</g>
<!-- Node3&#45;&gt;Node4 -->
<g id="edge3_Node000003_Node000004" class="edge">
<title>Node3&#45;&gt;Node4</title>
<g id="a_edge3_Node000003_Node000004"><a xlink:title=" ">
<path fill="none" stroke="#63b8ff" d="M257.12,-60.43C244.69,-64.78 231.2,-69.49 219.65,-73.53"/>
<polygon fill="#63b8ff" stroke="#63b8ff" points="257.98,-63.84 266.27,-57.23 255.67,-57.23 257.98,-63.84"/>
</a>
</g>
</g>
<!-- Node7 -->
<g id="Node000007" class="node">
<title>Node7</title>
<g id="a_Node000007"><a xlink:href="../../de/ddd/mem-ring_8c.html#a8fd215d6b37878630abcd626f7108b85" target="_top" xlink:title=" ">
<polygon fill="white" stroke="#666666" points="214.62,-56.25 164.88,-56.25 164.88,-37 214.62,-37 214.62,-56.25"/>
<text text-anchor="middle" x="189.75" y="-42.75" font-family="Helvetica,sans-Serif" font-size="10.00">rp_alloc</text>
</a>
</g>
</g>
<!-- Node3&#45;&gt;Node7 -->
<g id="edge6_Node000003_Node000007" class="edge">
<title>Node3&#45;&gt;Node7</title>
<g id="a_edge6_Node000003_Node000007"><a xlink:title=" ">
<path fill="none" stroke="#63b8ff" d="M254.79,-46.62C241.31,-46.62 226.83,-46.62 215.05,-46.62"/>
<polygon fill="#63b8ff" stroke="#63b8ff" points="254.77,-50.13 264.77,-46.63 254.77,-43.13 254.77,-50.13"/>
</a>
</g>
</g>
<!-- Node5 -->
<g id="Node000005" class="node">
<title>Node5</title>
<g id="a_Node000005"><a xlink:href="../../db/d6e/iopc-iopsq_8c.html#a29da93a7e88dca9ad6e854548eb1ad54" target="_top" xlink:title="Build iopsq_iop_struct_t object.">
<polygon fill="white" stroke="#666666" points="112.75,-93.25 0,-93.25 0,-74 112.75,-74 112.75,-93.25"/>
<text text-anchor="middle" x="56.38" y="-79.75" font-family="Helvetica,sans-Serif" font-size="10.00">iopsq_iop_struct_build</text>
</a>
</g>
</g>
<!-- Node4&#45;&gt;Node5 -->
<g id="edge4_Node000004_Node000005" class="edge">
<title>Node4&#45;&gt;Node5</title>
<g id="a_edge4_Node000004_Node000005"><a xlink:title=" ">
<path fill="none" stroke="#63b8ff" d="M136.96,-83.62C129.08,-83.62 120.91,-83.62 112.95,-83.62"/>
<polygon fill="#63b8ff" stroke="#63b8ff" points="136.75,-87.13 146.75,-83.63 136.75,-80.13 136.75,-87.13"/>
</a>
</g>
</g>
<!-- Node6 -->
<g id="Node000006" class="node">
<title>Node6</title>
<g id="a_Node000006"><a xlink:href="../../de/ddd/mem-ring_8c.html#a3d93d1d071835d4ba0d25b057e8c2aac" target="_top" xlink:title="Seal the ring&#45;pool and return a checkpoint.">
<polygon fill="white" stroke="#666666" points="112,-56.25 0.75,-56.25 0.75,-37 112,-37 112,-56.25"/>
<text text-anchor="middle" x="56.38" y="-42.75" font-family="Helvetica,sans-Serif" font-size="10.00">mem_ring_checkpoint</text>
</a>
</g>
</g>
<!-- Node4&#45;&gt;Node6 -->
<g id="edge5_Node000004_Node000006" class="edge">
<title>Node4&#45;&gt;Node6</title>
<g id="a_edge5_Node000004_Node000006"><a xlink:title=" ">
<path fill="none" stroke="#63b8ff" d="M142.05,-70.47C126,-65.95 108.29,-60.96 93.23,-56.72"/>
<polygon fill="#63b8ff" stroke="#63b8ff" points="140.82,-73.76 151.39,-73.1 142.72,-67.02 140.82,-73.76"/>
</a>
</g>
</g>
<!-- Node7&#45;&gt;Node6 -->
<g id="edge7_Node000007_Node000006" class="edge">
<title>Node7&#45;&gt;Node6</title>
<g id="a_edge7_Node000007_Node000006"><a xlink:title=" ">
<path fill="none" stroke="#63b8ff" d="M153.25,-46.62C140.67,-46.62 126.2,-46.62 112.38,-46.62"/>
<polygon fill="#63b8ff" stroke="#63b8ff" points="153.14,-50.13 163.14,-46.63 153.14,-43.13 153.14,-50.13"/>
</a>
</g>
</g>
<!-- Node7&#45;&gt;Node8 -->
<g id="edge8_Node000007_Node000008" class="edge">
<title>Node7&#45;&gt;Node8</title>
<g id="a_edge8_Node000007_Node000008"><a xlink:title=" ">
<path fill="none" stroke="#63b8ff" d="M153.74,-36.77C132.36,-30.74 105.39,-23.15 85.42,-17.52"/>
<polygon fill="#63b8ff" stroke="#63b8ff" points="152.62,-40.09 163.2,-39.43 154.52,-33.35 152.62,-40.09"/>
</a>
</g>
</g>
</g>
</svg>
