<?xml version="1.0" encoding="UTF-8" standalone="no"?>
<!DOCTYPE svg PUBLIC "-//W3C//DTD SVG 1.1//EN"
 "http://www.w3.org/Graphics/SVG/1.1/DTD/svg11.dtd">
<!-- Generated by graphviz version 9.0.0 (20230911.1827)
 -->
<!-- Title: iop_hmac_md5 Pages: 1 -->
<svg width="477pt" height="103pt"
 viewBox="0.00 0.00 477.25 103.25" xmlns="http://www.w3.org/2000/svg" xmlns:xlink="http://www.w3.org/1999/xlink">
<g id="graph0" class="graph" transform="scale(1 1) rotate(0) translate(4 99.25)">
<title>iop_hmac_md5</title>
<!-- Node1 -->
<g id="Node000001" class="node">
<title>Node1</title>
<g id="a_Node000001"><a xlink:title=" ">
<polygon fill="#999999" stroke="#666666" points="82,-57.25 0,-57.25 0,-38 82,-38 82,-57.25"/>
<text text-anchor="middle" x="41" y="-43.75" font-family="Helvetica,sans-Serif" font-size="10.00">iop_hmac_md5</text>
</a>
</g>
</g>
<!-- Node2 -->
<g id="Node000002" class="node">
<title>Node2</title>
<g id="a_Node000002"><a xlink:href="../../d7/d6c/md5_8c.html#a358aa3deb2e553cf68c43f71a7f23d11" target="_top" xlink:title=" ">
<polygon fill="white" stroke="#666666" points="152.75,-57.25 118,-57.25 118,-38 152.75,-38 152.75,-57.25"/>
<text text-anchor="middle" x="135.38" y="-43.75" font-family="Helvetica,sans-Serif" font-size="10.00">md5</text>
</a>
</g>
</g>
<!-- Node1&#45;&gt;Node2 -->
<g id="edge1_Node000001_Node000002" class="edge">
<title>Node1&#45;&gt;Node2</title>
<g id="a_edge1_Node000001_Node000002"><a xlink:title=" ">
<path fill="none" stroke="#63b8ff" d="M82.25,-47.62C90.32,-47.62 98.64,-47.62 106.19,-47.62"/>
<polygon fill="#63b8ff" stroke="#63b8ff" points="106.13,-51.13 116.13,-47.63 106.13,-44.13 106.13,-51.13"/>
</a>
</g>
</g>
<!-- Node3 -->
<g id="Node000003" class="node">
<title>Node3</title>
<g id="a_Node000003"><a xlink:href="../../d7/d6c/md5_8c.html#a9cc3d423aee3a5673cda877c81936968" target="_top" xlink:title=" ">
<polygon fill="white" stroke="#666666" points="252.38,-95.25 189.88,-95.25 189.88,-76 252.38,-76 252.38,-95.25"/>
<text text-anchor="middle" x="221.12" y="-81.75" font-family="Helvetica,sans-Serif" font-size="10.00">md5_finish</text>
</a>
</g>
</g>
<!-- Node2&#45;&gt;Node3 -->
<g id="edge2_Node000002_Node000003" class="edge">
<title>Node2&#45;&gt;Node3</title>
<g id="a_edge2_Node000002_Node000003"><a xlink:title=" ">
<path fill="none" stroke="#63b8ff" d="M152.92,-55.13C162.78,-59.6 175.63,-65.44 187.45,-70.8"/>
<polygon fill="#63b8ff" stroke="#63b8ff" points="185.97,-73.97 196.52,-74.92 188.86,-67.6 185.97,-73.97"/>
</a>
</g>
</g>
<!-- Node4 -->
<g id="Node000004" class="node">
<title>Node4</title>
<g id="a_Node000004"><a xlink:href="../../d7/d6c/md5_8c.html#a845d891a79f167d517976c551219e1b6" target="_top" xlink:title=" ">
<polygon fill="white" stroke="#666666" points="358.75,-76.25 289.5,-76.25 289.5,-57 358.75,-57 358.75,-76.25"/>
<text text-anchor="middle" x="324.12" y="-62.75" font-family="Helvetica,sans-Serif" font-size="10.00">md5_update</text>
</a>
</g>
</g>
<!-- Node2&#45;&gt;Node4 -->
<g id="edge6_Node000002_Node000004" class="edge">
<title>Node2&#45;&gt;Node4</title>
<g id="a_edge6_Node000002_Node000004"><a xlink:title=" ">
<path fill="none" stroke="#63b8ff" d="M152.95,-49.31C180.65,-52.13 237.3,-57.89 277.62,-62"/>
<polygon fill="#63b8ff" stroke="#63b8ff" points="277.23,-65.47 287.54,-63 277.94,-58.51 277.23,-65.47"/>
</a>
</g>
</g>
<!-- Node6 -->
<g id="Node000006" class="node">
<title>Node6</title>
<g id="a_Node000006"><a xlink:href="../../d7/d6c/md5_8c.html#a5ff8b9970405fcf46accaa3b24d33b72" target="_top" xlink:title=" ">
<polygon fill="white" stroke="#666666" points="253.5,-19.25 188.75,-19.25 188.75,0 253.5,0 253.5,-19.25"/>
<text text-anchor="middle" x="221.12" y="-5.75" font-family="Helvetica,sans-Serif" font-size="10.00">md5_starts</text>
</a>
</g>
</g>
<!-- Node2&#45;&gt;Node6 -->
<g id="edge5_Node000002_Node000006" class="edge">
<title>Node2&#45;&gt;Node6</title>
<g id="a_edge5_Node000002_Node000006"><a xlink:title=" ">
<path fill="none" stroke="#63b8ff" d="M152.92,-40.12C162.78,-35.65 175.63,-29.81 187.45,-24.45"/>
<polygon fill="#63b8ff" stroke="#63b8ff" points="188.86,-27.65 196.52,-20.33 185.97,-21.28 188.86,-27.65"/>
</a>
</g>
</g>
<!-- Node3&#45;&gt;Node4 -->
<g id="edge3_Node000003_Node000004" class="edge">
<title>Node3&#45;&gt;Node4</title>
<g id="a_edge3_Node000003_Node000004"><a xlink:title=" ">
<path fill="none" stroke="#63b8ff" d="M252.7,-79.87C260.7,-78.37 269.48,-76.72 278.06,-75.1"/>
<polygon fill="#63b8ff" stroke="#63b8ff" points="278.46,-78.59 287.64,-73.3 277.16,-71.71 278.46,-78.59"/>
</a>
</g>
</g>
<!-- Node5 -->
<g id="Node000005" class="node">
<title>Node5</title>
<g id="a_Node000005"><a xlink:href="../../d7/d6c/md5_8c.html#a456b2b096fb3a8b481ab1cbbb1434d64" target="_top" xlink:title=" ">
<polygon fill="white" stroke="#666666" points="469.25,-76.25 394.75,-76.25 394.75,-57 469.25,-57 469.25,-76.25"/>
<text text-anchor="middle" x="432" y="-62.75" font-family="Helvetica,sans-Serif" font-size="10.00">md5_process</text>
</a>
</g>
</g>
<!-- Node4&#45;&gt;Node5 -->
<g id="edge4_Node000004_Node000005" class="edge">
<title>Node4&#45;&gt;Node5</title>
<g id="a_edge4_Node000004_Node000005"><a xlink:title=" ">
<path fill="none" stroke="#63b8ff" d="M359.21,-66.62C366.85,-66.62 375.09,-66.62 383.18,-66.62"/>
<polygon fill="#63b8ff" stroke="#63b8ff" points="382.91,-70.13 392.91,-66.63 382.91,-63.13 382.91,-70.13"/>
</a>
</g>
</g>
</g>
</svg>
