<?xml version="1.0" encoding="UTF-8" standalone="no"?>
<!DOCTYPE svg PUBLIC "-//W3C//DTD SVG 1.1//EN"
 "http://www.w3.org/Graphics/SVG/1.1/DTD/svg11.dtd">
<!-- Generated by graphviz version 9.0.0 (20230911.1827)
 -->
<!-- Title: bb_be_add_bytes Pages: 1 -->
<svg width="990pt" height="183pt"
 viewBox="0.00 0.00 990.00 183.25" xmlns="http://www.w3.org/2000/svg" xmlns:xlink="http://www.w3.org/1999/xlink">
<g id="graph0" class="graph" transform="scale(1 1) rotate(0) translate(4 179.25)">
<title>bb_be_add_bytes</title>
<!-- Node1 -->
<g id="Node000001" class="node">
<title>Node1</title>
<g id="a_Node000001"><a xlink:title=" ">
<polygon fill="#999999" stroke="#666666" points="982,-37.25 890.25,-37.25 890.25,-18 982,-18 982,-37.25"/>
<text text-anchor="middle" x="936.12" y="-23.75" font-family="Helvetica,sans-Serif" font-size="10.00">bb_be_add_bytes</text>
</a>
</g>
</g>
<!-- Node2 -->
<g id="Node000002" class="node">
<title>Node2</title>
<g id="a_Node000002"><a xlink:href="../../db/dfd/per_8c.html#af3ded80e3abcb1787eac771d0837943d" target="_top" xlink:title=" ">
<polygon fill="white" stroke="#666666" points="854.25,-56.25 726.5,-56.25 726.5,-37 854.25,-37 854.25,-56.25"/>
<text text-anchor="middle" x="790.38" y="-42.75" font-family="Helvetica,sans-Serif" font-size="10.00">aper_encode_octet_string</text>
</a>
</g>
</g>
<!-- Node1&#45;&gt;Node2 -->
<g id="edge1_Node000001_Node000002" class="edge">
<title>Node1&#45;&gt;Node2</title>
<g id="a_edge1_Node000001_Node000002"><a xlink:title=" ">
<path fill="none" stroke="#63b8ff" d="M878.73,-35.08C870.86,-36.12 862.72,-37.19 854.73,-38.25"/>
<polygon fill="#63b8ff" stroke="#63b8ff" points="879.08,-38.56 888.54,-33.78 878.16,-31.62 879.08,-38.56"/>
</a>
</g>
</g>
<!-- Node11 -->
<g id="Node000011" class="node">
<title>Node11</title>
<g id="a_Node000011"><a xlink:href="../../d2/d6f/bit-buf_8c.html#ad65ee2c172e426edf3bca48fdea049b6" target="_top" xlink:title=" ">
<polygon fill="white" stroke="#666666" points="829.88,-19.25 750.88,-19.25 750.88,0 829.88,0 829.88,-19.25"/>
<text text-anchor="middle" x="790.38" y="-5.75" font-family="Helvetica,sans-Serif" font-size="10.00">bb_be_add_bs</text>
</a>
</g>
</g>
<!-- Node1&#45;&gt;Node11 -->
<g id="edge14_Node000001_Node000011" class="edge">
<title>Node1&#45;&gt;Node11</title>
<g id="a_edge14_Node000001_Node000011"><a xlink:title=" ">
<path fill="none" stroke="#63b8ff" d="M878.93,-20.59C862.55,-18.54 845.04,-16.34 830.01,-14.46"/>
<polygon fill="#63b8ff" stroke="#63b8ff" points="878.18,-24.02 888.53,-21.79 879.05,-17.08 878.18,-24.02"/>
</a>
</g>
</g>
<!-- Node3 -->
<g id="Node000003" class="node">
<title>Node3</title>
<g id="a_Node000003"><a xlink:href="../../db/dfd/per_8c.html#ab6de48db5c07b39f755306539063d4dc" target="_top" xlink:title=" ">
<polygon fill="white" stroke="#666666" points="690.5,-94.25 596.5,-94.25 596.5,-75 690.5,-75 690.5,-94.25"/>
<text text-anchor="middle" x="643.5" y="-80.75" font-family="Helvetica,sans-Serif" font-size="10.00">aper_encode_field</text>
</a>
</g>
</g>
<!-- Node2&#45;&gt;Node3 -->
<g id="edge2_Node000002_Node000003" class="edge">
<title>Node2&#45;&gt;Node3</title>
<g id="a_edge2_Node000002_Node000003"><a xlink:title=" ">
<path fill="none" stroke="#63b8ff" d="M739.96,-59.59C721.3,-64.48 700.37,-69.97 682.87,-74.56"/>
<polygon fill="#63b8ff" stroke="#63b8ff" points="740.68,-63.02 749.47,-57.09 738.91,-56.24 740.68,-63.02"/>
</a>
</g>
</g>
<!-- Node7 -->
<g id="Node000007" class="node">
<title>Node7</title>
<g id="a_Node000007"><a xlink:href="../../db/dfd/per_8c.html#a679b17fc67fbf715cd08f770da4462e6" target="_top" xlink:title=" ">
<polygon fill="white" stroke="#666666" points="100,-56.25 0,-56.25 0,-37 100,-37 100,-56.25"/>
<text text-anchor="middle" x="50" y="-42.75" font-family="Helvetica,sans-Serif" font-size="10.00">aper_encode_value</text>
</a>
</g>
</g>
<!-- Node2&#45;&gt;Node7 -->
<g id="edge13_Node000002_Node000007" class="edge">
<title>Node2&#45;&gt;Node7</title>
<g id="a_edge13_Node000002_Node000007"><a xlink:title=" ">
<path fill="none" stroke="#63b8ff" d="M731.25,-34.37C673.44,-23.27 582.06,-8.63 502.12,-8.62 502.12,-8.62 502.12,-8.62 351.75,-8.62 262.54,-8.63 159.62,-25.28 100.25,-36.54"/>
<polygon fill="#63b8ff" stroke="#63b8ff" points="730.38,-37.77 740.87,-36.25 731.73,-30.9 730.38,-37.77"/>
</a>
</g>
</g>
<!-- Node4 -->
<g id="Node000004" class="node">
<title>Node4</title>
<g id="a_Node000004"><a xlink:href="../../db/dfd/per_8c.html#a380c07d1a13af3eeb62497bf05d7e155" target="_top" xlink:title=" ">
<polygon fill="white" stroke="#666666" points="405.38,-175.25 300.12,-175.25 300.12,-156 405.38,-156 405.38,-175.25"/>
<text text-anchor="middle" x="352.75" y="-161.75" font-family="Helvetica,sans-Serif" font-size="10.00">aper_encode_choice</text>
</a>
</g>
</g>
<!-- Node3&#45;&gt;Node4 -->
<g id="edge3_Node000003_Node000004" class="edge">
<title>Node3&#45;&gt;Node4</title>
<g id="a_edge3_Node000003_Node000004"><a xlink:title=" ">
<path fill="none" stroke="#63b8ff" d="M626.73,-102.71C611.55,-118.73 587.04,-141.14 560.5,-151.62 510.65,-171.33 448.79,-172.84 405.79,-170.66"/>
<polygon fill="#63b8ff" stroke="#63b8ff" points="628.97,-105.45 633.13,-95.71 623.8,-100.73 628.97,-105.45"/>
</a>
</g>
</g>
<!-- Node8 -->
<g id="Node000008" class="node">
<title>Node8</title>
<g id="a_Node000008"><a xlink:href="../../db/dfd/per_8c.html#ab6faf232bcb6b3144036345fc39a00bb" target="_top" xlink:title=" ">
<polygon fill="white" stroke="#666666" points="554.12,-142.88 448.12,-142.88 448.12,-112.38 554.12,-112.38 554.12,-142.88"/>
<text text-anchor="start" x="456.12" y="-129.38" font-family="Helvetica,sans-Serif" font-size="10.00">aper_encode_seq_of</text>
<text text-anchor="middle" x="501.12" y="-118.12" font-family="Helvetica,sans-Serif" font-size="10.00">_field</text>
</a>
</g>
</g>
<!-- Node3&#45;&gt;Node8 -->
<g id="edge8_Node000003_Node000008" class="edge">
<title>Node3&#45;&gt;Node8</title>
<g id="a_edge8_Node000003_Node000008"><a xlink:title=" ">
<path fill="none" stroke="#63b8ff" d="M598.97,-97.96C584.58,-102.37 568.43,-107.31 553.51,-111.88"/>
<polygon fill="#63b8ff" stroke="#63b8ff" points="599.6,-101.43 608.14,-95.15 597.55,-94.73 599.6,-101.43"/>
</a>
</g>
</g>
<!-- Node10 -->
<g id="Node000010" class="node">
<title>Node10</title>
<g id="a_Node000010"><a xlink:href="../../db/dfd/per_8c.html#a01b64aad1770f099346fb48f1152123f" target="_top" xlink:title=" ">
<polygon fill="white" stroke="#666666" points="560.5,-94.25 441.75,-94.25 441.75,-75 560.5,-75 560.5,-94.25"/>
<text text-anchor="middle" x="501.12" y="-80.75" font-family="Helvetica,sans-Serif" font-size="10.00">aper_encode_sequence</text>
</a>
</g>
</g>
<!-- Node3&#45;&gt;Node10 -->
<g id="edge11_Node000003_Node000010" class="edge">
<title>Node3&#45;&gt;Node10</title>
<g id="a_edge11_Node000003_Node000010"><a xlink:title=" ">
<path fill="none" stroke="#63b8ff" d="M584.81,-84.62C576.93,-84.62 568.84,-84.62 560.95,-84.62"/>
<polygon fill="#63b8ff" stroke="#63b8ff" points="584.63,-88.13 594.63,-84.63 584.63,-81.13 584.63,-88.13"/>
</a>
</g>
</g>
<!-- Node5 -->
<g id="Node000005" class="node">
<title>Node5</title>
<g id="a_Node000005"><a xlink:href="../../db/dfd/per_8c.html#a6bc628aaed9f4e1590870ef572e05fc9" target="_top" xlink:title=" ">
<polygon fill="white" stroke="#666666" points="263.75,-114.25 136,-114.25 136,-95 263.75,-95 263.75,-114.25"/>
<text text-anchor="middle" x="199.88" y="-100.75" font-family="Helvetica,sans-Serif" font-size="10.00">aper_encode_constructed</text>
</a>
</g>
</g>
<!-- Node4&#45;&gt;Node5 -->
<g id="edge4_Node000004_Node000005" class="edge">
<title>Node4&#45;&gt;Node5</title>
<g id="a_edge4_Node000004_Node000005"><a xlink:title=" ">
<path fill="none" stroke="#63b8ff" d="M316.36,-151.32C288.55,-140.07 250.52,-124.7 225.83,-114.71"/>
<polygon fill="#63b8ff" stroke="#63b8ff" points="314.85,-154.48 325.43,-154.98 317.47,-147.99 314.85,-154.48"/>
</a>
</g>
</g>
<!-- Node6 -->
<g id="Node000006" class="node">
<title>Node6</title>
<g id="a_Node000006"><a xlink:href="../../db/dfd/per_8c.html#a810ff2f8052e07179fb09eaa4a8a08c3" target="_top" xlink:title=" ">
<polygon fill="white" stroke="#666666" points="98.88,-114.25 1.12,-114.25 1.12,-95 98.88,-95 98.88,-114.25"/>
<text text-anchor="middle" x="50" y="-100.75" font-family="Helvetica,sans-Serif" font-size="10.00">aper_encode_desc</text>
</a>
</g>
</g>
<!-- Node5&#45;&gt;Node6 -->
<g id="edge5_Node000005_Node000006" class="edge">
<title>Node5&#45;&gt;Node6</title>
<g id="a_edge5_Node000005_Node000006"><a xlink:title=" ">
<path fill="none" stroke="#63b8ff" d="M124.47,-104.62C115.87,-104.62 107.28,-104.62 99.17,-104.62"/>
<polygon fill="#63b8ff" stroke="#63b8ff" points="124.22,-108.13 134.22,-104.63 124.22,-101.13 124.22,-108.13"/>
</a>
</g>
</g>
<!-- Node5&#45;&gt;Node7 -->
<g id="edge6_Node000005_Node000007" class="edge">
<title>Node5&#45;&gt;Node7</title>
<g id="a_edge6_Node000005_Node000007"><a xlink:title=" ">
<path fill="none" stroke="#63b8ff" d="M162.64,-90.41C135.91,-79.93 100.22,-65.93 76.46,-56.61"/>
<polygon fill="#63b8ff" stroke="#63b8ff" points="161.12,-93.58 171.71,-93.97 163.68,-87.06 161.12,-93.58"/>
</a>
</g>
</g>
<!-- Node7&#45;&gt;Node3 -->
<g id="edge7_Node000007_Node000003" class="edge">
<title>Node7&#45;&gt;Node3</title>
<g id="a_edge7_Node000007_Node000003"><a xlink:title=" ">
<path fill="none" stroke="#63b8ff" d="M111.94,-45.17C207.83,-43.71 399.63,-44.19 560.5,-65.62 575.42,-67.61 591.61,-71.08 605.63,-74.51"/>
<polygon fill="#63b8ff" stroke="#63b8ff" points="111.9,-41.67 101.96,-45.33 112.02,-48.67 111.9,-41.67"/>
</a>
</g>
</g>
<!-- Node9 -->
<g id="Node000009" class="node">
<title>Node9</title>
<g id="a_Node000009"><a xlink:href="../../db/dfd/per_8c.html#a180d7a6d7cc1dc66a66956730f88f418" target="_top" xlink:title=" ">
<polygon fill="white" stroke="#666666" points="405.75,-134.25 299.75,-134.25 299.75,-115 405.75,-115 405.75,-134.25"/>
<text text-anchor="middle" x="352.75" y="-120.75" font-family="Helvetica,sans-Serif" font-size="10.00">aper_encode_seq_of</text>
</a>
</g>
</g>
<!-- Node8&#45;&gt;Node9 -->
<g id="edge9_Node000008_Node000009" class="edge">
<title>Node8&#45;&gt;Node9</title>
<g id="a_edge9_Node000008_Node000009"><a xlink:title=" ">
<path fill="none" stroke="#63b8ff" d="M436.33,-126.32C426.14,-126.11 415.7,-125.89 405.82,-125.69"/>
<polygon fill="#63b8ff" stroke="#63b8ff" points="436.11,-129.81 446.18,-126.52 436.25,-122.82 436.11,-129.81"/>
</a>
</g>
</g>
<!-- Node9&#45;&gt;Node5 -->
<g id="edge10_Node000009_Node000005" class="edge">
<title>Node9&#45;&gt;Node5</title>
<g id="a_edge10_Node000009_Node000005"><a xlink:title=" ">
<path fill="none" stroke="#63b8ff" d="M288.24,-116.21C280.24,-115.15 272.04,-114.06 264.04,-113"/>
<polygon fill="#63b8ff" stroke="#63b8ff" points="287.53,-119.64 297.9,-117.49 288.45,-112.7 287.53,-119.64"/>
</a>
</g>
</g>
<!-- Node10&#45;&gt;Node5 -->
<g id="edge12_Node000010_Node000005" class="edge">
<title>Node10&#45;&gt;Node5</title>
<g id="a_edge12_Node000010_Node000005"><a xlink:title=" ">
<path fill="none" stroke="#63b8ff" d="M429.95,-89.32C379.74,-92.67 312.73,-97.15 264.16,-100.4"/>
<polygon fill="#63b8ff" stroke="#63b8ff" points="430.11,-92.81 439.85,-88.65 429.64,-85.83 430.11,-92.81"/>
</a>
</g>
</g>
</g>
</svg>
