<?xml version="1.0" encoding="UTF-8" standalone="no"?>
<!DOCTYPE svg PUBLIC "-//W3C//DTD SVG 1.1//EN"
 "http://www.w3.org/Graphics/SVG/1.1/DTD/svg11.dtd">
<!-- Generated by graphviz version 9.0.0 (20230911.1827)
 -->
<!-- Title: bb_push_mark Pages: 1 -->
<svg width="1500pt" height="350pt"
 viewBox="0.00 0.00 1499.50 350.00" xmlns="http://www.w3.org/2000/svg" xmlns:xlink="http://www.w3.org/1999/xlink">
<g id="graph0" class="graph" transform="scale(1 1) rotate(0) translate(4 346)">
<title>bb_push_mark</title>
<!-- Node1 -->
<g id="Node000001" class="node">
<title>Node1</title>
<g id="a_Node000001"><a xlink:title=" ">
<polygon fill="#999999" stroke="#666666" points="1491.5,-181.62 1411.75,-181.62 1411.75,-162.38 1491.5,-162.38 1491.5,-181.62"/>
<text text-anchor="middle" x="1451.62" y="-168.12" font-family="Helvetica,sans-Serif" font-size="10.00">bb_push_mark</text>
</a>
</g>
</g>
<!-- Node2 -->
<g id="Node000002" class="node">
<title>Node2</title>
<g id="a_Node000002"><a xlink:href="../../db/dfd/per_8c.html#a380c07d1a13af3eeb62497bf05d7e155" target="_top" xlink:title=" ">
<polygon fill="white" stroke="#666666" points="832.12,-124.62 726.88,-124.62 726.88,-105.38 832.12,-105.38 832.12,-124.62"/>
<text text-anchor="middle" x="779.5" y="-111.12" font-family="Helvetica,sans-Serif" font-size="10.00">aper_encode_choice</text>
</a>
</g>
</g>
<!-- Node1&#45;&gt;Node2 -->
<g id="edge1_Node000001_Node000002" class="edge">
<title>Node1&#45;&gt;Node2</title>
<g id="a_edge1_Node000001_Node000002"><a xlink:title=" ">
<path fill="none" stroke="#63b8ff" d="M1430.33,-154.52C1391.08,-122.57 1300.81,-58 1212.5,-58 1212.5,-58 1212.5,-58 1069.62,-58 979.84,-58 955.48,-54.71 868.5,-77 843.51,-83.4 816.52,-95.98 799.12,-104.91"/>
<polygon fill="#63b8ff" stroke="#63b8ff" points="1428.09,-157.21 1438.02,-160.92 1432.57,-151.83 1428.09,-157.21"/>
</a>
</g>
</g>
<!-- Node6 -->
<g id="Node000006" class="node">
<title>Node6</title>
<g id="a_Node000006"><a xlink:href="../../db/dfd/per_8c.html#ab6de48db5c07b39f755306539063d4dc" target="_top" xlink:title=" ">
<polygon fill="white" stroke="#666666" points="390.75,-237.62 296.75,-237.62 296.75,-218.38 390.75,-218.38 390.75,-237.62"/>
<text text-anchor="middle" x="343.75" y="-224.12" font-family="Helvetica,sans-Serif" font-size="10.00">aper_encode_field</text>
</a>
</g>
</g>
<!-- Node1&#45;&gt;Node6 -->
<g id="edge14_Node000001_Node000006" class="edge">
<title>Node1&#45;&gt;Node6</title>
<g id="a_edge14_Node000001_Node000006"><a xlink:title=" ">
<path fill="none" stroke="#63b8ff" d="M1437.57,-190.73C1405.08,-234.92 1315.7,-342 1212.5,-342 1212.5,-342 1212.5,-342 625.62,-342 515.64,-342 398.03,-266.02 358.55,-238.12"/>
<polygon fill="#63b8ff" stroke="#63b8ff" points="1440.24,-193.02 1443.23,-182.86 1434.55,-188.94 1440.24,-193.02"/>
</a>
</g>
</g>
<!-- Node9 -->
<g id="Node000009" class="node">
<title>Node9</title>
<g id="a_Node000009"><a xlink:href="../../db/dfd/per_8c.html#a01b64aad1770f099346fb48f1152123f" target="_top" xlink:title=" ">
<polygon fill="white" stroke="#666666" points="260.75,-66.62 142,-66.62 142,-47.38 260.75,-47.38 260.75,-66.62"/>
<text text-anchor="middle" x="201.38" y="-53.12" font-family="Helvetica,sans-Serif" font-size="10.00">aper_encode_sequence</text>
</a>
</g>
</g>
<!-- Node1&#45;&gt;Node9 -->
<g id="edge15_Node000001_Node000009" class="edge">
<title>Node1&#45;&gt;Node9</title>
<g id="a_edge15_Node000001_Node000009"><a xlink:title=" ">
<path fill="none" stroke="#63b8ff" d="M1440.07,-152.02C1427.4,-129.67 1404.26,-93.66 1375.75,-71 1313.81,-21.77 1291.62,0 1212.5,0 1212.5,0 1212.5,0 475.75,0 384.85,0 280.45,-30.58 231.09,-46.94"/>
<polygon fill="#63b8ff" stroke="#63b8ff" points="1436.97,-153.63 1444.85,-160.71 1443.1,-150.26 1436.97,-153.63"/>
</a>
</g>
</g>
<!-- Node10 -->
<g id="Node000010" class="node">
<title>Node10</title>
<g id="a_Node000010"><a xlink:href="../../db/dfd/per_8c.html#ae27ee105fcb50b0bb27e17ec68bab8f3" target="_top" xlink:title=" ">
<polygon fill="white" stroke="#666666" points="829.88,-181.62 729.12,-181.62 729.12,-162.38 829.88,-162.38 829.88,-181.62"/>
<text text-anchor="middle" x="779.5" y="-168.12" font-family="Helvetica,sans-Serif" font-size="10.00">aper_encode_enum</text>
</a>
</g>
</g>
<!-- Node1&#45;&gt;Node10 -->
<g id="edge12_Node000001_Node000010" class="edge">
<title>Node1&#45;&gt;Node10</title>
<g id="a_edge12_Node000001_Node000010"><a xlink:title=" ">
<path fill="none" stroke="#63b8ff" d="M1400.75,-159.33C1352.82,-148.28 1278.19,-134 1212.5,-134 1212.5,-134 1212.5,-134 1069.62,-134 983.81,-134 884.89,-150.66 827.83,-161.92"/>
<polygon fill="#63b8ff" stroke="#63b8ff" points="1399.73,-162.69 1410.27,-161.57 1401.34,-155.87 1399.73,-162.69"/>
</a>
</g>
</g>
<!-- Node11 -->
<g id="Node000011" class="node">
<title>Node11</title>
<g id="a_Node000011"><a xlink:href="../../db/dfd/per_8c.html#a591e9fbc5a04d60145d5edf7ed74ad0f" target="_top" xlink:title=" ">
<polygon fill="white" stroke="#666666" points="1259.25,-182.62 1163.75,-182.62 1163.75,-163.38 1259.25,-163.38 1259.25,-182.62"/>
<text text-anchor="middle" x="1211.5" y="-169.12" font-family="Helvetica,sans-Serif" font-size="10.00">aper_write_u16_m</text>
</a>
</g>
</g>
<!-- Node1&#45;&gt;Node11 -->
<g id="edge16_Node000001_Node000011" class="edge">
<title>Node1&#45;&gt;Node11</title>
<g id="a_edge16_Node000001_Node000011"><a xlink:title=" ">
<path fill="none" stroke="#63b8ff" d="M1399.81,-172.21C1358.32,-172.39 1300.13,-172.63 1259.67,-172.8"/>
<polygon fill="#63b8ff" stroke="#63b8ff" points="1399.8,-175.71 1409.79,-172.17 1399.78,-168.71 1399.8,-175.71"/>
</a>
</g>
</g>
<!-- Node20 -->
<g id="Node000020" class="node">
<title>Node20</title>
<g id="a_Node000020"><a xlink:href="../../db/dfd/per_8c.html#a7b2d87fca7374c053631f266e12e227d" target="_top" xlink:title=" ">
<polygon fill="white" stroke="#666666" points="1253.62,-237.62 1169.38,-237.62 1169.38,-218.38 1253.62,-218.38 1253.62,-237.62"/>
<text text-anchor="middle" x="1211.5" y="-224.12" font-family="Helvetica,sans-Serif" font-size="10.00">aper_write_ulen</text>
</a>
</g>
</g>
<!-- Node1&#45;&gt;Node20 -->
<g id="edge34_Node000001_Node000020" class="edge">
<title>Node1&#45;&gt;Node20</title>
<g id="a_edge34_Node000001_Node000020"><a xlink:title=" ">
<path fill="none" stroke="#63b8ff" d="M1433.95,-189.91C1419.93,-203.57 1398.57,-221.3 1375.75,-229 1336,-242.41 1287.65,-239.98 1253.93,-235.54"/>
<polygon fill="#63b8ff" stroke="#63b8ff" points="1436.1,-192.72 1440.62,-183.14 1431.11,-187.81 1436.1,-192.72"/>
</a>
</g>
</g>
<!-- Node22 -->
<g id="Node000022" class="node">
<title>Node22</title>
<g id="a_Node000022"><a xlink:href="../../da/ddb/bit-buf_8h.html#a46ad79a5f5947a9b6076e6d29dbbc094" target="_top" xlink:title=" ">
<polygon fill="white" stroke="#666666" points="1375.75,-219.62 1295.25,-219.62 1295.25,-200.38 1375.75,-200.38 1375.75,-219.62"/>
<text text-anchor="middle" x="1335.5" y="-206.12" font-family="Helvetica,sans-Serif" font-size="10.00">bb_reset_mark</text>
</a>
</g>
</g>
<!-- Node1&#45;&gt;Node22 -->
<g id="edge40_Node000001_Node000022" class="edge">
<title>Node1&#45;&gt;Node22</title>
<g id="a_edge40_Node000001_Node000022"><a xlink:title=" ">
<path fill="none" stroke="#63b8ff" d="M1409.78,-185.6C1395.51,-190.35 1379.76,-195.6 1366.53,-200"/>
<polygon fill="#63b8ff" stroke="#63b8ff" points="1410.52,-189.04 1418.91,-182.56 1408.31,-182.4 1410.52,-189.04"/>
</a>
</g>
</g>
<!-- Node3 -->
<g id="Node000003" class="node">
<title>Node3</title>
<g id="a_Node000003"><a xlink:href="../../db/dfd/per_8c.html#a6bc628aaed9f4e1590870ef572e05fc9" target="_top" xlink:title=" ">
<polygon fill="white" stroke="#666666" points="690.5,-124.62 562.75,-124.62 562.75,-105.38 690.5,-105.38 690.5,-124.62"/>
<text text-anchor="middle" x="626.62" y="-111.12" font-family="Helvetica,sans-Serif" font-size="10.00">aper_encode_constructed</text>
</a>
</g>
</g>
<!-- Node2&#45;&gt;Node3 -->
<g id="edge2_Node000002_Node000003" class="edge">
<title>Node2&#45;&gt;Node3</title>
<g id="a_edge2_Node000002_Node000003"><a xlink:title=" ">
<path fill="none" stroke="#63b8ff" d="M715.31,-115C707.22,-115 698.94,-115 690.85,-115"/>
<polygon fill="#63b8ff" stroke="#63b8ff" points="715.06,-118.5 725.06,-115 715.06,-111.5 715.06,-118.5"/>
</a>
</g>
</g>
<!-- Node4 -->
<g id="Node000004" class="node">
<title>Node4</title>
<g id="a_Node000004"><a xlink:href="../../db/dfd/per_8c.html#a810ff2f8052e07179fb09eaa4a8a08c3" target="_top" xlink:title=" ">
<polygon fill="white" stroke="#666666" points="525.62,-161.62 427.88,-161.62 427.88,-142.38 525.62,-142.38 525.62,-161.62"/>
<text text-anchor="middle" x="476.75" y="-148.12" font-family="Helvetica,sans-Serif" font-size="10.00">aper_encode_desc</text>
</a>
</g>
</g>
<!-- Node3&#45;&gt;Node4 -->
<g id="edge3_Node000003_Node000004" class="edge">
<title>Node3&#45;&gt;Node4</title>
<g id="a_edge3_Node000003_Node000004"><a xlink:title=" ">
<path fill="none" stroke="#63b8ff" d="M574.1,-127.89C555.76,-132.48 535.38,-137.58 518.11,-141.9"/>
<polygon fill="#63b8ff" stroke="#63b8ff" points="574.9,-131.3 583.75,-125.48 573.2,-124.51 574.9,-131.3"/>
</a>
</g>
</g>
<!-- Node5 -->
<g id="Node000005" class="node">
<title>Node5</title>
<g id="a_Node000005"><a xlink:href="../../db/dfd/per_8c.html#a679b17fc67fbf715cd08f770da4462e6" target="_top" xlink:title=" ">
<polygon fill="white" stroke="#666666" points="526.75,-237.62 426.75,-237.62 426.75,-218.38 526.75,-218.38 526.75,-237.62"/>
<text text-anchor="middle" x="476.75" y="-224.12" font-family="Helvetica,sans-Serif" font-size="10.00">aper_encode_value</text>
</a>
</g>
</g>
<!-- Node3&#45;&gt;Node5 -->
<g id="edge4_Node000003_Node000005" class="edge">
<title>Node3&#45;&gt;Node5</title>
<g id="a_edge4_Node000003_Node000005"><a xlink:title=" ">
<path fill="none" stroke="#63b8ff" d="M603.66,-131.79C572.36,-155.7 515.93,-198.82 490.63,-218.16"/>
<polygon fill="#63b8ff" stroke="#63b8ff" points="605.48,-134.8 611.3,-125.95 601.23,-129.24 605.48,-134.8"/>
</a>
</g>
</g>
<!-- Node5&#45;&gt;Node6 -->
<g id="edge5_Node000005_Node000006" class="edge">
<title>Node5&#45;&gt;Node6</title>
<g id="a_edge5_Node000005_Node000006"><a xlink:title=" ">
<path fill="none" stroke="#63b8ff" d="M415.26,-228C407.16,-228 398.95,-228 391.14,-228"/>
<polygon fill="#63b8ff" stroke="#63b8ff" points="415.08,-231.5 425.08,-228 415.08,-224.5 415.08,-231.5"/>
</a>
</g>
</g>
<!-- Node6&#45;&gt;Node2 -->
<g id="edge6_Node000006_Node000002" class="edge">
<title>Node6&#45;&gt;Node2</title>
<g id="a_edge6_Node000006_Node000002"><a xlink:title=" ">
<path fill="none" stroke="#63b8ff" d="M394.41,-215.06C481.8,-192.3 661.25,-145.55 740.01,-125.03"/>
<polygon fill="#63b8ff" stroke="#63b8ff" points="393.73,-211.62 384.93,-217.53 395.49,-218.4 393.73,-211.62"/>
</a>
</g>
</g>
<!-- Node7 -->
<g id="Node000007" class="node">
<title>Node7</title>
<g id="a_Node000007"><a xlink:href="../../db/dfd/per_8c.html#ab6faf232bcb6b3144036345fc39a00bb" target="_top" xlink:title=" ">
<polygon fill="white" stroke="#666666" points="254.38,-243.25 148.38,-243.25 148.38,-212.75 254.38,-212.75 254.38,-243.25"/>
<text text-anchor="start" x="156.38" y="-229.75" font-family="Helvetica,sans-Serif" font-size="10.00">aper_encode_seq_of</text>
<text text-anchor="middle" x="201.38" y="-218.5" font-family="Helvetica,sans-Serif" font-size="10.00">_field</text>
</a>
</g>
</g>
<!-- Node6&#45;&gt;Node7 -->
<g id="edge7_Node000006_Node000007" class="edge">
<title>Node6&#45;&gt;Node7</title>
<g id="a_edge7_Node000006_Node000007"><a xlink:title=" ">
<path fill="none" stroke="#63b8ff" d="M285.14,-228C275,-228 264.49,-228 254.5,-228"/>
<polygon fill="#63b8ff" stroke="#63b8ff" points="284.88,-231.5 294.88,-228 284.88,-224.5 284.88,-231.5"/>
</a>
</g>
</g>
<!-- Node6&#45;&gt;Node9 -->
<g id="edge10_Node000006_Node000009" class="edge">
<title>Node6&#45;&gt;Node9</title>
<g id="a_edge10_Node000006_Node000009"><a xlink:title=" ">
<path fill="none" stroke="#63b8ff" d="M327.54,-209.48C297.91,-173.38 233.35,-94.74 210.55,-66.96"/>
<polygon fill="#63b8ff" stroke="#63b8ff" points="324.59,-211.39 333.64,-216.9 330,-206.95 324.59,-211.39"/>
</a>
</g>
</g>
<!-- Node8 -->
<g id="Node000008" class="node">
<title>Node8</title>
<g id="a_Node000008"><a xlink:href="../../db/dfd/per_8c.html#a180d7a6d7cc1dc66a66956730f88f418" target="_top" xlink:title=" ">
<polygon fill="white" stroke="#666666" points="106,-237.62 0,-237.62 0,-218.38 106,-218.38 106,-237.62"/>
<text text-anchor="middle" x="53" y="-224.12" font-family="Helvetica,sans-Serif" font-size="10.00">aper_encode_seq_of</text>
</a>
</g>
</g>
<!-- Node7&#45;&gt;Node8 -->
<g id="edge8_Node000007_Node000008" class="edge">
<title>Node7&#45;&gt;Node8</title>
<g id="a_edge8_Node000007_Node000008"><a xlink:title=" ">
<path fill="none" stroke="#63b8ff" d="M136.58,-228C126.39,-228 115.95,-228 106.07,-228"/>
<polygon fill="#63b8ff" stroke="#63b8ff" points="136.43,-231.5 146.43,-228 136.43,-224.5 136.43,-231.5"/>
</a>
</g>
</g>
<!-- Node8&#45;&gt;Node3 -->
<g id="edge9_Node000008_Node000003" class="edge">
<title>Node8&#45;&gt;Node3</title>
<g id="a_edge9_Node000008_Node000003"><a xlink:title=" ">
<path fill="none" stroke="#63b8ff" d="M101.12,-214.95C114.33,-211.34 128.71,-207.47 142,-204 268.2,-171.06 298.14,-154.72 426.75,-133 471.87,-125.38 523.34,-120.83 562.61,-118.21"/>
<polygon fill="#63b8ff" stroke="#63b8ff" points="100.52,-211.48 91.8,-217.5 102.37,-218.23 100.52,-211.48"/>
</a>
</g>
</g>
<!-- Node9&#45;&gt;Node3 -->
<g id="edge11_Node000009_Node000003" class="edge">
<title>Node9&#45;&gt;Node3</title>
<g id="a_edge11_Node000009_Node000003"><a xlink:title=" ">
<path fill="none" stroke="#63b8ff" d="M272.06,-65.85C337.78,-74.29 439.02,-87.53 526.75,-100 538.27,-101.64 550.53,-103.44 562.36,-105.22"/>
<polygon fill="#63b8ff" stroke="#63b8ff" points="272.88,-62.43 262.52,-64.63 271.99,-69.37 272.88,-62.43"/>
</a>
</g>
</g>
<!-- Node10&#45;&gt;Node5 -->
<g id="edge13_Node000010_Node000005" class="edge">
<title>Node10&#45;&gt;Node5</title>
<g id="a_edge13_Node000010_Node000005"><a xlink:title=" ">
<path fill="none" stroke="#63b8ff" d="M717.51,-182.17C674.25,-189.52 614.85,-199.9 562.75,-210 550.16,-212.44 536.56,-215.24 524.01,-217.9"/>
<polygon fill="#63b8ff" stroke="#63b8ff" points="717.94,-185.64 727.22,-180.52 716.77,-178.74 717.94,-185.64"/>
</a>
</g>
</g>
<!-- Node12 -->
<g id="Node000012" class="node">
<title>Node12</title>
<g id="a_Node000012"><a xlink:href="../../db/dfd/per_8c.html#a07fcad7aac702bcd302f3002fda9b81f" target="_top" xlink:title=" ">
<polygon fill="white" stroke="#666666" points="1110.12,-219.62 1031.12,-219.62 1031.12,-200.38 1110.12,-200.38 1110.12,-219.62"/>
<text text-anchor="middle" x="1070.62" y="-206.12" font-family="Helvetica,sans-Serif" font-size="10.00">aper_write_len</text>
</a>
</g>
</g>
<!-- Node11&#45;&gt;Node12 -->
<g id="edge17_Node000011_Node000012" class="edge">
<title>Node11&#45;&gt;Node12</title>
<g id="a_edge17_Node000011_Node000012"><a xlink:title=" ">
<path fill="none" stroke="#63b8ff" d="M1161.63,-186.02C1144.53,-190.58 1125.6,-195.62 1109.53,-199.9"/>
<polygon fill="#63b8ff" stroke="#63b8ff" points="1162.33,-189.46 1171.09,-183.5 1160.53,-182.69 1162.33,-189.46"/>
</a>
</g>
</g>
<!-- Node17 -->
<g id="Node000017" class="node">
<title>Node17</title>
<g id="a_Node000017"><a xlink:href="../../db/dfd/per_8c.html#a022212d62c5b51db029145e3e6ba0d4d" target="_top" xlink:title=" ">
<polygon fill="white" stroke="#666666" points="1119.88,-182.62 1021.38,-182.62 1021.38,-163.38 1119.88,-163.38 1119.88,-182.62"/>
<text text-anchor="middle" x="1070.62" y="-169.12" font-family="Helvetica,sans-Serif" font-size="10.00">aper_write_number</text>
</a>
</g>
</g>
<!-- Node11&#45;&gt;Node17 -->
<g id="edge26_Node000011_Node000017" class="edge">
<title>Node11&#45;&gt;Node17</title>
<g id="a_edge26_Node000011_Node000017"><a xlink:title=" ">
<path fill="none" stroke="#63b8ff" d="M1152.08,-173C1141.4,-173 1130.36,-173 1120.01,-173"/>
<polygon fill="#63b8ff" stroke="#63b8ff" points="1151.97,-176.5 1161.97,-173 1151.97,-169.5 1151.97,-176.5"/>
</a>
</g>
</g>
<!-- Node13 -->
<g id="Node000013" class="node">
<title>Node13</title>
<g id="a_Node000013"><a xlink:href="../../db/dfd/per_8c.html#afe214d654872b884c2f90761575fb85f" target="_top" xlink:title="Encode the length of a repeated element (octet string, bit string, sequence of, set of,...">
<polygon fill="white" stroke="#666666" points="967.75,-294.62 878.25,-294.62 878.25,-275.38 967.75,-275.38 967.75,-294.62"/>
<text text-anchor="middle" x="923" y="-281.12" font-family="Helvetica,sans-Serif" font-size="10.00">aper_encode_len</text>
</a>
</g>
</g>
<!-- Node12&#45;&gt;Node13 -->
<g id="edge18_Node000012_Node000013" class="edge">
<title>Node12&#45;&gt;Node13</title>
<g id="a_edge18_Node000012_Node000013"><a xlink:title=" ">
<path fill="none" stroke="#63b8ff" d="M1020.21,-224.19C1017.89,-225.37 1015.64,-226.64 1013.5,-228 993.61,-240.69 997.3,-254.17 977.5,-267 972.73,-270.09 967.38,-272.71 961.95,-274.9"/>
<polygon fill="#63b8ff" stroke="#63b8ff" points="1021.57,-227.41 1029.32,-220.19 1018.75,-221.01 1021.57,-227.41"/>
</a>
</g>
</g>
<!-- Node13&#45;&gt;Node8 -->
<g id="edge25_Node000013_Node000008" class="edge">
<title>Node13&#45;&gt;Node8</title>
<g id="a_edge25_Node000013_Node000008"><a xlink:title=" ">
<path fill="none" stroke="#63b8ff" d="M866.86,-290.69C807.77,-296.29 711.17,-304 627.62,-304 627.62,-304 627.62,-304 342.75,-304 240.37,-304 124.1,-258.77 76.31,-238.09"/>
<polygon fill="#63b8ff" stroke="#63b8ff" points="867.04,-294.19 876.66,-289.74 866.37,-287.22 867.04,-294.19"/>
</a>
</g>
</g>
<!-- Node14 -->
<g id="Node000014" class="node">
<title>Node14</title>
<g id="a_Node000014"><a xlink:href="../../db/dfd/per_8c.html#a5e24b9ab14b25d1ffbf0580ae3ffc4ec" target="_top" xlink:title=" ">
<polygon fill="white" stroke="#666666" points="832.5,-237.62 726.5,-237.62 726.5,-218.38 832.5,-218.38 832.5,-237.62"/>
<text text-anchor="middle" x="779.5" y="-224.12" font-family="Helvetica,sans-Serif" font-size="10.00">aper_encode_bstring</text>
</a>
</g>
</g>
<!-- Node13&#45;&gt;Node14 -->
<g id="edge19_Node000013_Node000014" class="edge">
<title>Node13&#45;&gt;Node14</title>
<g id="a_edge19_Node000013_Node000014"><a xlink:title=" ">
<path fill="none" stroke="#63b8ff" d="M879.73,-271.18C875.91,-269.82 872.13,-268.41 868.5,-267 845.29,-257.98 819.29,-246.24 801.61,-238.01"/>
<polygon fill="#63b8ff" stroke="#63b8ff" points="878.4,-274.43 888.99,-274.42 880.71,-267.82 878.4,-274.43"/>
</a>
</g>
</g>
<!-- Node16 -->
<g id="Node000016" class="node">
<title>Node16</title>
<g id="a_Node000016"><a xlink:href="../../db/dfd/per_8c.html#af3ded80e3abcb1787eac771d0837943d" target="_top" xlink:title=" ">
<polygon fill="white" stroke="#666666" points="690.5,-275.62 562.75,-275.62 562.75,-256.38 690.5,-256.38 690.5,-275.62"/>
<text text-anchor="middle" x="626.62" y="-262.12" font-family="Helvetica,sans-Serif" font-size="10.00">aper_encode_octet_string</text>
</a>
</g>
</g>
<!-- Node13&#45;&gt;Node16 -->
<g id="edge22_Node000013_Node000016" class="edge">
<title>Node13&#45;&gt;Node16</title>
<g id="a_edge22_Node000013_Node000016"><a xlink:title=" ">
<path fill="none" stroke="#63b8ff" d="M866.7,-281.43C816.7,-278.2 743.12,-273.45 690.82,-270.08"/>
<polygon fill="#63b8ff" stroke="#63b8ff" points="866.21,-284.91 876.42,-282.06 866.66,-277.92 866.21,-284.91"/>
</a>
</g>
</g>
<!-- Node15 -->
<g id="Node000015" class="node">
<title>Node15</title>
<g id="a_Node000015"><a xlink:href="../../db/dfd/per_8c.html#ad3b0583c9c02aedb639455233a531a95" target="_top" xlink:title=" ">
<polygon fill="white" stroke="#666666" points="684.88,-238.62 568.38,-238.62 568.38,-219.38 684.88,-219.38 684.88,-238.62"/>
<text text-anchor="middle" x="626.62" y="-225.12" font-family="Helvetica,sans-Serif" font-size="10.00">aper_encode_bit_string</text>
</a>
</g>
</g>
<!-- Node14&#45;&gt;Node15 -->
<g id="edge20_Node000014_Node000015" class="edge">
<title>Node14&#45;&gt;Node15</title>
<g id="a_edge20_Node000014_Node000015"><a xlink:title=" ">
<path fill="none" stroke="#63b8ff" d="M714.82,-228.42C705.02,-228.49 694.95,-228.55 685.29,-228.62"/>
<polygon fill="#63b8ff" stroke="#63b8ff" points="714.66,-231.92 724.64,-228.36 714.62,-224.92 714.66,-231.92"/>
</a>
</g>
</g>
<!-- Node15&#45;&gt;Node5 -->
<g id="edge21_Node000015_Node000005" class="edge">
<title>Node15&#45;&gt;Node5</title>
<g id="a_edge21_Node000015_Node000005"><a xlink:title=" ">
<path fill="none" stroke="#63b8ff" d="M556.72,-228.53C546.62,-228.47 536.39,-228.4 526.8,-228.33"/>
<polygon fill="#63b8ff" stroke="#63b8ff" points="556.49,-232.03 566.52,-228.6 556.54,-225.03 556.49,-232.03"/>
</a>
</g>
</g>
<!-- Node16&#45;&gt;Node5 -->
<g id="edge24_Node000016_Node000005" class="edge">
<title>Node16&#45;&gt;Node5</title>
<g id="a_edge24_Node000016_Node000005"><a xlink:title=" ">
<path fill="none" stroke="#63b8ff" d="M575.45,-253.11C556.34,-248.2 534.86,-242.68 516.92,-238.06"/>
<polygon fill="#63b8ff" stroke="#63b8ff" points="574.36,-256.44 584.92,-255.54 576.11,-249.66 574.36,-256.44"/>
</a>
</g>
</g>
<!-- Node16&#45;&gt;Node6 -->
<g id="edge23_Node000016_Node000006" class="edge">
<title>Node16&#45;&gt;Node6</title>
<g id="a_edge23_Node000016_Node000006"><a xlink:title=" ">
<path fill="none" stroke="#63b8ff" d="M551.31,-261.25C513.81,-258.26 467.7,-253.67 426.75,-247 412.47,-244.67 396.97,-241.31 383.33,-238.05"/>
<polygon fill="#63b8ff" stroke="#63b8ff" points="550.9,-264.73 561.14,-262.01 551.44,-257.75 550.9,-264.73"/>
</a>
</g>
</g>
<!-- Node17&#45;&gt;Node2 -->
<g id="edge27_Node000017_Node000002" class="edge">
<title>Node17&#45;&gt;Node2</title>
<g id="a_edge27_Node000017_Node000002"><a xlink:title=" ">
<path fill="none" stroke="#63b8ff" d="M1009.67,-160.97C956.8,-150.37 880.65,-135.09 830.88,-125.11"/>
<polygon fill="#63b8ff" stroke="#63b8ff" points="1008.93,-164.39 1019.42,-162.93 1010.31,-157.53 1008.93,-164.39"/>
</a>
</g>
</g>
<!-- Node17&#45;&gt;Node10 -->
<g id="edge28_Node000017_Node000010" class="edge">
<title>Node17&#45;&gt;Node10</title>
<g id="a_edge28_Node000017_Node000010"><a xlink:title=" ">
<path fill="none" stroke="#63b8ff" d="M1009.61,-182.71C998.94,-184.08 987.91,-185.27 977.5,-186 929.17,-189.39 916.79,-189.82 868.5,-186 856.01,-185.01 842.61,-183.25 830.13,-181.3"/>
<polygon fill="#63b8ff" stroke="#63b8ff" points="1010.05,-186.18 1019.49,-181.37 1009.11,-179.24 1010.05,-186.18"/>
</a>
</g>
</g>
<!-- Node18 -->
<g id="Node000018" class="node">
<title>Node18</title>
<g id="a_Node000018"><a xlink:href="../../db/dfd/per_8c.html#a0ae52d120919421cdf481f700eb3cf02" target="_top" xlink:title=" ">
<polygon fill="white" stroke="#666666" points="977.5,-257.62 868.5,-257.62 868.5,-238.38 977.5,-238.38 977.5,-257.62"/>
<text text-anchor="middle" x="923" y="-244.12" font-family="Helvetica,sans-Serif" font-size="10.00">aper_encode_number</text>
</a>
</g>
</g>
<!-- Node17&#45;&gt;Node18 -->
<g id="edge29_Node000017_Node000018" class="edge">
<title>Node17&#45;&gt;Node18</title>
<g id="a_edge29_Node000017_Node000018"><a xlink:title=" ">
<path fill="none" stroke="#63b8ff" d="M1020.23,-187.47C1017.91,-188.57 1015.66,-189.75 1013.5,-191 994.73,-201.9 995.63,-212.07 977.5,-224 969.34,-229.37 959.77,-234.09 951,-237.89"/>
<polygon fill="#63b8ff" stroke="#63b8ff" points="1021.39,-190.77 1029.25,-183.66 1018.67,-184.32 1021.39,-190.77"/>
</a>
</g>
</g>
<!-- Node19 -->
<g id="Node000019" class="node">
<title>Node19</title>
<g id="a_Node000019"><a xlink:href="../../db/dfd/per_8c.html#a52d294a562cff9eb99e6e0874c154b0d" target="_top" xlink:title=" ">
<polygon fill="white" stroke="#666666" points="973,-105.62 873,-105.62 873,-86.38 973,-86.38 973,-105.62"/>
<text text-anchor="middle" x="923" y="-92.12" font-family="Helvetica,sans-Serif" font-size="10.00">aper_write_nsnnwn</text>
</a>
</g>
</g>
<!-- Node17&#45;&gt;Node19 -->
<g id="edge30_Node000017_Node000019" class="edge">
<title>Node17&#45;&gt;Node19</title>
<g id="a_edge30_Node000017_Node000019"><a xlink:title=" ">
<path fill="none" stroke="#63b8ff" d="M1040.64,-157.67C1011.65,-142.34 967.9,-119.21 943.04,-106.07"/>
<polygon fill="#63b8ff" stroke="#63b8ff" points="1038.77,-160.65 1049.25,-162.23 1042.04,-154.46 1038.77,-160.65"/>
</a>
</g>
</g>
<!-- Node19&#45;&gt;Node2 -->
<g id="edge31_Node000019_Node000002" class="edge">
<title>Node19&#45;&gt;Node2</title>
<g id="a_edge31_Node000019_Node000002"><a xlink:title=" ">
<path fill="none" stroke="#63b8ff" d="M861.1,-104.18C851.61,-105.45 841.88,-106.76 832.61,-108"/>
<polygon fill="#63b8ff" stroke="#63b8ff" points="861.56,-107.65 871.01,-102.85 860.63,-100.71 861.56,-107.65"/>
</a>
</g>
</g>
<!-- Node19&#45;&gt;Node9 -->
<g id="edge33_Node000019_Node000009" class="edge">
<title>Node19&#45;&gt;Node9</title>
<g id="a_edge33_Node000019_Node000009"><a xlink:title=" ">
<path fill="none" stroke="#63b8ff" d="M880.47,-82.51C823.92,-65.38 719.24,-38 627.62,-38 627.62,-38 627.62,-38 475.75,-38 401.65,-38 316.53,-45.03 261.22,-50.54"/>
<polygon fill="#63b8ff" stroke="#63b8ff" points="879.42,-85.85 890.01,-85.45 881.48,-79.16 879.42,-85.85"/>
</a>
</g>
</g>
<!-- Node19&#45;&gt;Node10 -->
<g id="edge32_Node000019_Node000010" class="edge">
<title>Node19&#45;&gt;Node10</title>
<g id="a_edge32_Node000019_Node000010"><a xlink:title=" ">
<path fill="none" stroke="#63b8ff" d="M887.56,-110.77C881.16,-113.7 874.58,-116.85 868.5,-120 842.5,-133.46 813.46,-151.17 796.1,-162.06"/>
<polygon fill="#63b8ff" stroke="#63b8ff" points="888.95,-113.98 896.64,-106.69 886.09,-107.59 888.95,-113.98"/>
</a>
</g>
</g>
<!-- Node20&#45;&gt;Node12 -->
<g id="edge38_Node000020_Node000012" class="edge">
<title>Node20&#45;&gt;Node12</title>
<g id="a_edge38_Node000020_Node000012"><a xlink:title=" ">
<path fill="none" stroke="#63b8ff" d="M1158.02,-221.2C1142.29,-219.16 1125.32,-216.96 1110.62,-215.05"/>
<polygon fill="#63b8ff" stroke="#63b8ff" points="1157.34,-224.64 1167.71,-222.45 1158.24,-217.7 1157.34,-224.64"/>
</a>
</g>
</g>
<!-- Node20&#45;&gt;Node13 -->
<g id="edge35_Node000020_Node000013" class="edge">
<title>Node20&#45;&gt;Node13</title>
<g id="a_edge35_Node000020_Node000013"><a xlink:title=" ">
<path fill="none" stroke="#63b8ff" d="M1183.02,-243.47C1167.32,-251.57 1146.98,-260.85 1127.75,-266 1074.04,-280.39 1009.86,-284.28 968.07,-285.14"/>
<polygon fill="#63b8ff" stroke="#63b8ff" points="1184.56,-246.62 1191.74,-238.83 1181.27,-240.44 1184.56,-246.62"/>
</a>
</g>
</g>
<!-- Node20&#45;&gt;Node17 -->
<g id="edge39_Node000020_Node000017" class="edge">
<title>Node20&#45;&gt;Node17</title>
<g id="a_edge39_Node000020_Node000017"><a xlink:title=" ">
<path fill="none" stroke="#63b8ff" d="M1179.65,-213.23C1164.23,-206.1 1145.19,-197.67 1127.75,-191 1120.49,-188.22 1112.59,-185.51 1105.07,-183.06"/>
<polygon fill="#63b8ff" stroke="#63b8ff" points="1177.77,-216.22 1188.31,-217.28 1180.73,-209.88 1177.77,-216.22"/>
</a>
</g>
</g>
<!-- Node21 -->
<g id="Node000021" class="node">
<title>Node21</title>
<g id="a_Node000021"><a xlink:href="../../db/dfd/per_8c.html#a9d12a5f9045ec9b40206bcc1acad68df" target="_top" xlink:title=" ">
<polygon fill="white" stroke="#666666" points="1127.75,-256.62 1013.5,-256.62 1013.5,-237.38 1127.75,-237.38 1127.75,-256.62"/>
<text text-anchor="middle" x="1070.62" y="-243.12" font-family="Helvetica,sans-Serif" font-size="10.00">aper_write_2c_number</text>
</a>
</g>
</g>
<!-- Node20&#45;&gt;Node21 -->
<g id="edge36_Node000020_Node000021" class="edge">
<title>Node20&#45;&gt;Node21</title>
<g id="a_edge36_Node000020_Node000021"><a xlink:title=" ">
<path fill="none" stroke="#63b8ff" d="M1158.03,-235.18C1148.28,-236.51 1138.05,-237.91 1128.18,-239.26"/>
<polygon fill="#63b8ff" stroke="#63b8ff" points="1158.28,-238.68 1167.71,-233.85 1157.33,-231.74 1158.28,-238.68"/>
</a>
</g>
</g>
<!-- Node21&#45;&gt;Node18 -->
<g id="edge37_Node000021_Node000018" class="edge">
<title>Node21&#45;&gt;Node18</title>
<g id="a_edge37_Node000021_Node000018"><a xlink:title=" ">
<path fill="none" stroke="#63b8ff" d="M1001.95,-247.46C993.84,-247.52 985.64,-247.58 977.76,-247.63"/>
<polygon fill="#63b8ff" stroke="#63b8ff" points="1001.83,-250.97 1011.81,-247.4 1001.79,-243.97 1001.83,-250.97"/>
</a>
</g>
</g>
<!-- Node22&#45;&gt;Node20 -->
<g id="edge41_Node000022_Node000020" class="edge">
<title>Node22&#45;&gt;Node20</title>
<g id="a_edge41_Node000022_Node000020"><a xlink:title=" ">
<path fill="none" stroke="#63b8ff" d="M1283.56,-217.52C1273.71,-218.97 1263.51,-220.47 1254.01,-221.88"/>
<polygon fill="#63b8ff" stroke="#63b8ff" points="1284.01,-220.99 1293.39,-216.07 1282.99,-214.06 1284.01,-220.99"/>
</a>
</g>
</g>
</g>
</svg>
