<?xml version="1.0" encoding="UTF-8" standalone="no"?>
<!DOCTYPE svg PUBLIC "-//W3C//DTD SVG 1.1//EN"
 "http://www.w3.org/Graphics/SVG/1.1/DTD/svg11.dtd">
<!-- Generated by graphviz version 9.0.0 (20230911.1827)
 -->
<!-- Title: bb_add_bits Pages: 1 -->
<!--zoomable 310 -->

<svg id="main" version="1.1" xmlns="http://www.w3.org/2000/svg" xmlns:xlink="http://www.w3.org/1999/xlink" xml:space="preserve" onload="init(evt)">
<style type="text/css"><![CDATA[
.node, .edge {opacity: 0.7;}
.node.selected, .edge.selected {opacity: 1;}
.edge:hover path { stroke: red; }
.edge:hover polygon { stroke: red; fill: red; }
]]></style>

<defs>
  <circle id="rim" cx="0" cy="0" r="7"/>
  <circle id="rim2" cx="0" cy="0" r="3.5"/>
  <g id="zoomPlus">
    <use xlink:href="#rim" fill="#404040"><set attributeName="fill" to="#808080" begin="zoomplus.mouseover" end="zoomplus.mouseout"/></use>
    <path d="M-4,0h8M0,-4v8" fill="none" stroke="white" stroke-width="1.5" pointer-events="none"/>
  </g>
  <g id="zoomMin">
    <use xlink:href="#rim" fill="#404040"><set attributeName="fill" to="#808080" begin="zoomminus.mouseover" end="zoomminus.mouseout"/></use>
    <path d="M-4,0h8" fill="none" stroke="white" stroke-width="1.5" pointer-events="none"/>
  </g>
  <g id="arrowUp" transform="translate(30 24)">
    <use xlink:href="#rim"/>
    <path pointer-events="none" fill="none" stroke="white" stroke-width="1.5" d="M0,-3.0v7 M-2.5,-0.5L0,-3.0L2.5,-0.5"/>
  </g>
  <g id="arrowRight" transform="rotate(90) translate(36 -43)">
    <use xlink:href="#rim"/>
    <path pointer-events="none" fill="none" stroke="white" stroke-width="1.5" d="M0,-3.0v7 M-2.5,-0.5L0,-3.0L2.5,-0.5"/>
  </g>
  <g id="arrowDown" transform="rotate(180) translate(-30 -48)">
    <use xlink:href="#rim"/>
    <path pointer-events="none" fill="none" stroke="white" stroke-width="1.5" d="M0,-3.0v7 M-2.5,-0.5L0,-3.0L2.5,-0.5"/>
  </g>
  <g id="arrowLeft" transform="rotate(270) translate(-36 17)">
    <use xlink:href="#rim"/>
    <path pointer-events="none" fill="none" stroke="white" stroke-width="1.5" d="M0,-3.0v7 M-2.5,-0.5L0,-3.0L2.5,-0.5"/>
  </g>
  <g id="resetDef">
    <use xlink:href="#rim2" fill="#404040"><set attributeName="fill" to="#808080" begin="reset.mouseover" end="reset.mouseout"/></use>
  </g>
</defs>
<script type="application/ecmascript">
var viewWidth = 2402;
var viewHeight = 310;
var sectionId = 'dynsection-11';
</script>
<script type="application/ecmascript" xlink:href="../../svg.min.js"/>
<svg id="graph" class="graph">
<g id="viewport">
<title>bb_add_bits</title>
<!-- Node1 -->
<g id="Node000001" class="node">
<title>Node1</title>
<g id="a_Node000001"><a xlink:title=" ">
<polygon fill="#999999" stroke="#666666" points="68.5,-121.62 0,-121.62 0,-102.38 68.5,-102.38 68.5,-121.62"/>
<text text-anchor="middle" x="34.25" y="-108.12" font-family="Helvetica,sans-Serif" font-size="10.00">bb_add_bits</text>
</a>
</g>
</g>
<!-- Node2 -->
<g id="Node000002" class="node">
<title>Node2</title>
<g id="a_Node000002"><a xlink:href="../../da/ddb/bit-buf_8h.html#abcb81d09e43374b3928a8207e0cd6929" target="_top" xlink:title=" ">
<polygon fill="white" stroke="#666666" points="170,-121.62 104.5,-121.62 104.5,-102.38 170,-102.38 170,-121.62"/>
<text text-anchor="middle" x="137.25" y="-108.12" font-family="Helvetica,sans-Serif" font-size="10.00">bb_growlen</text>
</a>
</g>
</g>
<!-- Node1&#45;&gt;Node2 -->
<g id="edge1_Node000001_Node000002" class="edge">
<title>Node1&#45;&gt;Node2</title>
<g id="a_edge1_Node000001_Node000002"><a xlink:title=" ">
<path fill="none" stroke="#63b8ff" d="M68.88,-112C76.52,-112 84.73,-112 92.71,-112"/>
<polygon fill="#63b8ff" stroke="#63b8ff" points="92.62,-115.5 102.62,-112 92.62,-108.5 92.62,-115.5"/>
</a>
</g>
</g>
<!-- Node3 -->
<g id="Node000003" class="node">
<title>Node3</title>
<g id="a_Node000003"><a xlink:href="../../da/ddb/bit-buf_8h.html#a90d46022b0ec0d5b7e12525a125603e1" target="_top" xlink:title=" ">
<polygon fill="white" stroke="#666666" points="258.75,-121.62 206,-121.62 206,-102.38 258.75,-102.38 258.75,-121.62"/>
<text text-anchor="middle" x="232.38" y="-108.12" font-family="Helvetica,sans-Serif" font-size="10.00">bb_grow</text>
</a>
</g>
</g>
<!-- Node2&#45;&gt;Node3 -->
<g id="edge2_Node000002_Node000003" class="edge">
<title>Node2&#45;&gt;Node3</title>
<g id="a_edge2_Node000002_Node000003"><a xlink:title=" ">
<path fill="none" stroke="#63b8ff" d="M170.3,-112C178.08,-112 186.45,-112 194.43,-112"/>
<polygon fill="#63b8ff" stroke="#63b8ff" points="194.22,-115.5 204.22,-112 194.22,-108.5 194.22,-115.5"/>
</a>
</g>
</g>
<!-- Node4 -->
<g id="Node000004" class="node">
<title>Node4</title>
<g id="a_Node000004"><a xlink:href="../../d2/d6f/bit-buf_8c.html#a1ccc4c7bc31544c5c75884fa89984eeb" target="_top" xlink:title=" ">
<polygon fill="white" stroke="#666666" points="358,-121.62 294.75,-121.62 294.75,-102.38 358,-102.38 358,-121.62"/>
<text text-anchor="middle" x="326.38" y="-108.12" font-family="Helvetica,sans-Serif" font-size="10.00">__bb_grow</text>
</a>
</g>
</g>
<!-- Node3&#45;&gt;Node4 -->
<g id="edge3_Node000003_Node000004" class="edge">
<title>Node3&#45;&gt;Node4</title>
<g id="a_edge3_Node000003_Node000004"><a xlink:title=" ">
<path fill="none" stroke="#63b8ff" d="M259,-112C266.45,-112 274.78,-112 282.97,-112"/>
<polygon fill="#63b8ff" stroke="#63b8ff" points="282.81,-115.5 292.81,-112 282.81,-108.5 282.81,-115.5"/>
</a>
</g>
</g>
<!-- Node5 -->
<g id="Node000005" class="node">
<title>Node5</title>
<g id="a_Node000005"><a xlink:href="../../d9/d9a/mem_8h.html#a15958df365e5c2cc90a6c0c3e7e0e74f" target="_top" xlink:title=" ">
<polygon fill="white" stroke="#666666" points="498.5,-121.62 394,-121.62 394,-102.38 498.5,-102.38 498.5,-121.62"/>
<text text-anchor="middle" x="446.25" y="-108.12" font-family="Helvetica,sans-Serif" font-size="10.00">mp_irealloc_fallback</text>
</a>
</g>
</g>
<!-- Node4&#45;&gt;Node5 -->
<g id="edge4_Node000004_Node000005" class="edge">
<title>Node4&#45;&gt;Node5</title>
<g id="a_edge4_Node000004_Node000005"><a xlink:title=" ">
<path fill="none" stroke="#63b8ff" d="M358.35,-112C365.75,-112 373.93,-112 382.22,-112"/>
<polygon fill="#63b8ff" stroke="#63b8ff" points="382.01,-115.5 392.01,-112 382.01,-108.5 382.01,-115.5"/>
</a>
</g>
</g>
<!-- Node6 -->
<g id="Node000006" class="node">
<title>Node6</title>
<g id="a_Node000006"><a xlink:href="../../d8/d37/mem_8blk.html#a2fa974dc4e9f038e5bc400eb689b74b4" target="_top" xlink:title=" ">
<polygon fill="white" stroke="#666666" points="649.5,-197.62 534.5,-197.62 534.5,-178.38 649.5,-178.38 649.5,-197.62"/>
<text text-anchor="middle" x="592" y="-184.12" font-family="Helvetica,sans-Serif" font-size="10.00">__mp_irealloc_fallback</text>
</a>
</g>
</g>
<!-- Node5&#45;&gt;Node6 -->
<g id="edge5_Node000005_Node000006" class="edge">
<title>Node5&#45;&gt;Node6</title>
<g id="a_edge5_Node000005_Node000006"><a xlink:title=" ">
<path fill="none" stroke="#63b8ff" d="M466.34,-122.09C490.85,-135.05 533.63,-157.67 562.13,-172.74"/>
<polygon fill="#63b8ff" stroke="#63b8ff" points="560.47,-175.82 570.95,-177.4 563.75,-169.63 560.47,-175.82"/>
</a>
</g>
</g>
<!-- Node36 -->
<g id="Node000036" class="node">
<title>Node36</title>
<g id="a_Node000036"><a xlink:href="../../d9/d9a/mem_8h.html#ae99e17ad0b27e94e8a00c8af9734a0e7" target="_top" xlink:title=" ">
<polygon fill="white" stroke="#666666" points="1127.5,-83.62 1014.75,-83.62 1014.75,-64.38 1127.5,-64.38 1127.5,-83.62"/>
<text text-anchor="middle" x="1071.12" y="-70.12" font-family="Helvetica,sans-Serif" font-size="10.00">icheck_alloc_constant</text>
</a>
</g>
</g>
<!-- Node5&#45;&gt;Node36 -->
<g id="edge51_Node000005_Node000036" class="edge">
<title>Node5&#45;&gt;Node36</title>
<g id="a_edge51_Node000005_Node000036"><a xlink:title=" ">
<path fill="none" stroke="#63b8ff" d="M468.04,-101.91C512.59,-81.23 621.07,-36 717.25,-36 717.25,-36 717.25,-36 826,-36 893.45,-36 970.15,-50.34 1019.28,-61.4"/>
<polygon fill="#63b8ff" stroke="#63b8ff" points="1018.24,-64.75 1028.77,-63.58 1019.81,-57.93 1018.24,-64.75"/>
</a>
</g>
</g>
<!-- Node7 -->
<g id="Node000007" class="node">
<title>Node7</title>
<g id="a_Node000007"><a xlink:href="../../d8/d37/mem_8blk.html#a8e4fbf6500e65079c31e3fd933ae7dc1" target="_top" xlink:title=" ">
<polygon fill="white" stroke="#666666" points="1249.62,-235.62 1179.62,-235.62 1179.62,-216.38 1249.62,-216.38 1249.62,-235.62"/>
<text text-anchor="middle" x="1214.62" y="-222.12" font-family="Helvetica,sans-Serif" font-size="10.00">icheck_alloc</text>
</a>
</g>
</g>
<!-- Node6&#45;&gt;Node7 -->
<g id="edge6_Node000006_Node000007" class="edge">
<title>Node6&#45;&gt;Node7</title>
<g id="a_edge6_Node000006_Node000007"><a xlink:title=" ">
<path fill="none" stroke="#63b8ff" d="M610.61,-198.09C648.4,-218.77 740.62,-264 824,-264 824,-264 824,-264 939.88,-264 1023.61,-264 1044.9,-260.73 1127.5,-247 1140.89,-244.77 1155.27,-241.59 1168.37,-238.37"/>
<polygon fill="#63b8ff" stroke="#63b8ff" points="1169.2,-241.77 1178.03,-235.93 1167.48,-234.99 1169.2,-241.77"/>
</a>
</g>
</g>
<!-- Node23 -->
<g id="Node000023" class="node">
<title>Node23</title>
<g id="a_Node000023"><a xlink:href="../../d8/d37/mem_8blk.html#a83c7cf203e5eef9d1a8c6c43cde3e2e5" target="_top" xlink:title=" ">
<polygon fill="white" stroke="#666666" points="2315.75,-234.62 2262.25,-234.62 2262.25,-215.38 2315.75,-215.38 2315.75,-234.62"/>
<text text-anchor="middle" x="2289" y="-221.12" font-family="Helvetica,sans-Serif" font-size="10.00">mp_ifree</text>
</a>
</g>
</g>
<!-- Node6&#45;&gt;Node23 -->
<g id="edge36_Node000006_Node000023" class="edge">
<title>Node6&#45;&gt;Node23</title>
<g id="a_edge36_Node000006_Node000023"><a xlink:title=" ">
<path fill="none" stroke="#63b8ff" d="M603.56,-197.94C619.93,-212.88 652.95,-241.15 685.5,-258 742.86,-287.69 759.41,-302 824,-302 824,-302 824,-302 2099,-302 2162.85,-302 2230.46,-263.84 2264.9,-241.25"/>
<polygon fill="#63b8ff" stroke="#63b8ff" points="2266.49,-244.4 2272.84,-235.91 2262.59,-238.59 2266.49,-244.4"/>
</a>
</g>
</g>
<!-- Node32 -->
<g id="Node000032" class="node">
<title>Node32</title>
<g id="a_Node000032"><a xlink:href="../../d9/d9a/mem_8h.html#ada6bb9661f0c10ccaa14d231c24aeafd" target="_top" xlink:title=" ">
<polygon fill="white" stroke="#666666" points="971.62,-197.62 906.12,-197.62 906.12,-178.38 971.62,-178.38 971.62,-197.62"/>
<text text-anchor="middle" x="938.88" y="-184.12" font-family="Helvetica,sans-Serif" font-size="10.00">mp_imalloc</text>
</a>
</g>
</g>
<!-- Node6&#45;&gt;Node32 -->
<g id="edge37_Node000006_Node000032" class="edge">
<title>Node6&#45;&gt;Node32</title>
<g id="a_edge37_Node000006_Node000032"><a xlink:title=" ">
<path fill="none" stroke="#63b8ff" d="M649.95,-188C718.61,-188 832.47,-188 894.44,-188"/>
<polygon fill="#63b8ff" stroke="#63b8ff" points="894.24,-191.5 904.24,-188 894.24,-184.5 894.24,-191.5"/>
</a>
</g>
</g>
<!-- Node38 -->
<g id="Node000038" class="node">
<title>Node38</title>
<g id="a_Node000038"><a xlink:href="../../d9/d9a/mem_8h.html#aabfb5bf96a257374cbc245548b81c4ff" target="_top" xlink:title=" ">
<polygon fill="white" stroke="#666666" points="751,-159.62 685.5,-159.62 685.5,-140.38 751,-140.38 751,-159.62"/>
<text text-anchor="middle" x="718.25" y="-146.12" font-family="Helvetica,sans-Serif" font-size="10.00">mp_irealloc</text>
</a>
</g>
</g>
<!-- Node6&#45;&gt;Node38 -->
<g id="edge44_Node000006_Node000038" class="edge">
<title>Node6&#45;&gt;Node38</title>
<g id="a_edge44_Node000006_Node000038"><a xlink:title=" ">
<path fill="none" stroke="#63b8ff" d="M625.97,-177.92C640.92,-173.34 658.79,-167.88 674.74,-163"/>
<polygon fill="#63b8ff" stroke="#63b8ff" points="675.43,-166.45 683.97,-160.18 673.38,-159.76 675.43,-166.45"/>
</a>
</g>
</g>
<!-- Node8 -->
<g id="Node000008" class="node">
<title>Node8</title>
<g id="a_Node000008"><a xlink:href="../../d7/df8/log_8c.html#abca342edf91a9b45f7a17ef564fa8a53" target="_top" xlink:title=" ">
<polygon fill="white" stroke="#666666" points="1356.75,-235.62 1307,-235.62 1307,-216.38 1356.75,-216.38 1356.75,-235.62"/>
<text text-anchor="middle" x="1331.88" y="-222.12" font-family="Helvetica,sans-Serif" font-size="10.00">e_panic</text>
</a>
</g>
</g>
<!-- Node7&#45;&gt;Node8 -->
<g id="edge7_Node000007_Node000008" class="edge">
<title>Node7&#45;&gt;Node8</title>
<g id="a_edge7_Node000007_Node000008"><a xlink:title=" ">
<path fill="none" stroke="#63b8ff" d="M1249.89,-226C1264.34,-226 1281.15,-226 1295.7,-226"/>
<polygon fill="#63b8ff" stroke="#63b8ff" points="1295.28,-229.5 1305.28,-226 1295.28,-222.5 1295.28,-229.5"/>
</a>
</g>
</g>
<!-- Node9 -->
<g id="Node000009" class="node">
<title>Node9</title>
<g id="a_Node000009"><a xlink:href="../../d7/df8/log_8c.html#a4bc04f7baa1e064cb0b93c7b9f3a61a1" target="_top" xlink:title=" ">
<polygon fill="white" stroke="#666666" points="1486,-121.62 1398,-121.62 1398,-102.38 1486,-102.38 1486,-121.62"/>
<text text-anchor="middle" x="1442" y="-108.12" font-family="Helvetica,sans-Serif" font-size="10.00">__logger_refresh</text>
</a>
</g>
</g>
<!-- Node8&#45;&gt;Node9 -->
<g id="edge8_Node000008_Node000009" class="edge">
<title>Node8&#45;&gt;Node9</title>
<g id="a_edge8_Node000008_Node000009"><a xlink:title=" ">
<path fill="none" stroke="#63b8ff" d="M1342.47,-215.88C1360.79,-196.57 1400.97,-154.2 1423.96,-129.97"/>
<polygon fill="#63b8ff" stroke="#63b8ff" points="1426.2,-132.69 1430.54,-123.03 1421.12,-127.88 1426.2,-132.69"/>
</a>
</g>
</g>
<!-- Node27 -->
<g id="Node000027" class="node">
<title>Node27</title>
<g id="a_Node000027"><a xlink:href="../../d7/df8/log_8c.html#a900490b26df7698aac12f7f7e6517e81" target="_top" xlink:title=" ">
<polygon fill="white" stroke="#666666" points="1474.75,-235.62 1409.25,-235.62 1409.25,-216.38 1474.75,-216.38 1474.75,-235.62"/>
<text text-anchor="middle" x="1442" y="-222.12" font-family="Helvetica,sans-Serif" font-size="10.00">logger_vlog</text>
</a>
</g>
</g>
<!-- Node8&#45;&gt;Node27 -->
<g id="edge30_Node000008_Node000027" class="edge">
<title>Node8&#45;&gt;Node27</title>
<g id="a_edge30_Node000008_Node000027"><a xlink:title=" ">
<path fill="none" stroke="#63b8ff" d="M1357.14,-226C1369.11,-226 1383.91,-226 1397.72,-226"/>
<polygon fill="#63b8ff" stroke="#63b8ff" points="1397.5,-229.5 1407.5,-226 1397.5,-222.5 1397.5,-229.5"/>
</a>
</g>
</g>
<!-- Node31 -->
<g id="Node000031" class="node">
<title>Node31</title>
<g id="a_Node000031"><a xlink:href="../../d2/d4d/file_8h.html#a25419a391fdd4ad7954699c58cfeb3b9" target="_top" xlink:title=" ">
<polygon fill="white" stroke="#666666" points="1467.62,-272.62 1416.38,-272.62 1416.38,-253.38 1467.62,-253.38 1467.62,-272.62"/>
<text text-anchor="middle" x="1442" y="-259.12" font-family="Helvetica,sans-Serif" font-size="10.00">va_start</text>
</a>
</g>
</g>
<!-- Node8&#45;&gt;Node31 -->
<g id="edge35_Node000008_Node000031" class="edge">
<title>Node8&#45;&gt;Node31</title>
<g id="a_edge35_Node000008_Node000031"><a xlink:title=" ">
<path fill="none" stroke="#63b8ff" d="M1357.14,-234.3C1371.41,-239.19 1389.7,-245.44 1405.56,-250.87"/>
<polygon fill="#63b8ff" stroke="#63b8ff" points="1404.04,-254.05 1414.63,-253.98 1406.31,-247.43 1404.04,-254.05"/>
</a>
</g>
</g>
<!-- Node10 -->
<g id="Node000010" class="node">
<title>Node10</title>
<g id="a_Node000010"><a xlink:href="../../d7/df8/log_8c.html#a3dbd75fb614210f0b114cfd03c9c0a7b" target="_top" xlink:title=" ">
<polygon fill="white" stroke="#666666" points="1625.75,-140.62 1522,-140.62 1522,-121.38 1625.75,-121.38 1625.75,-140.62"/>
<text text-anchor="middle" x="1573.88" y="-127.12" font-family="Helvetica,sans-Serif" font-size="10.00">__logger_do_refresh</text>
</a>
</g>
</g>
<!-- Node9&#45;&gt;Node10 -->
<g id="edge9_Node000009_Node000010" class="edge">
<title>Node9&#45;&gt;Node10</title>
<g id="a_edge9_Node000009_Node000010"><a xlink:title=" ">
<path fill="none" stroke="#63b8ff" d="M1486.25,-118.33C1494.06,-119.47 1502.34,-120.68 1510.57,-121.89"/>
<polygon fill="#63b8ff" stroke="#63b8ff" points="1509.81,-125.31 1520.21,-123.3 1510.83,-118.39 1509.81,-125.31"/>
</a>
</g>
</g>
<!-- Node25 -->
<g id="Node000025" class="node">
<title>Node25</title>
<g id="a_Node000025"><a xlink:href="../../d7/df8/log_8c.html#a7b1b02d1986e1247c2f571af4a2c2854" target="_top" xlink:title=" ">
<polygon fill="white" stroke="#666666" points="1611.5,-66.62 1536.25,-66.62 1536.25,-47.38 1611.5,-47.38 1611.5,-66.62"/>
<text text-anchor="middle" x="1573.88" y="-53.12" font-family="Helvetica,sans-Serif" font-size="10.00">log_spin_lock</text>
</a>
</g>
</g>
<!-- Node9&#45;&gt;Node25 -->
<g id="edge28_Node000009_Node000025" class="edge">
<title>Node9&#45;&gt;Node25</title>
<g id="a_edge28_Node000009_Node000025"><a xlink:title=" ">
<path fill="none" stroke="#63b8ff" d="M1462.89,-102.02C1478.72,-94.24 1501.54,-83.39 1522,-75 1525.34,-73.63 1528.82,-72.27 1532.33,-70.94"/>
<polygon fill="#63b8ff" stroke="#63b8ff" points="1533.23,-74.34 1541.41,-67.6 1530.82,-67.77 1533.23,-74.34"/>
</a>
</g>
</g>
<!-- Node26 -->
<g id="Node000026" class="node">
<title>Node26</title>
<g id="a_Node000026"><a xlink:href="../../d1/dc0/group__log.html#ga045020bb4af234632f7761f220131c69" target="_top" xlink:title=" ">
<polygon fill="white" stroke="#666666" points="1616.75,-103.62 1531,-103.62 1531,-84.38 1616.75,-84.38 1616.75,-103.62"/>
<text text-anchor="middle" x="1573.88" y="-90.12" font-family="Helvetica,sans-Serif" font-size="10.00">log_spin_unlock</text>
</a>
</g>
</g>
<!-- Node9&#45;&gt;Node26 -->
<g id="edge29_Node000009_Node000026" class="edge">
<title>Node9&#45;&gt;Node26</title>
<g id="a_edge29_Node000009_Node000026"><a xlink:title=" ">
<path fill="none" stroke="#63b8ff" d="M1486.25,-106.01C1496.87,-104.53 1508.37,-102.94 1519.41,-101.41"/>
<polygon fill="#63b8ff" stroke="#63b8ff" points="1519.78,-104.89 1529.2,-100.05 1518.81,-97.96 1519.78,-104.89"/>
</a>
</g>
</g>
<!-- Node10&#45;&gt;Node10 -->
<g id="edge10_Node000010_Node000010" class="edge">
<title>Node10&#45;&gt;Node10</title>
<g id="a_edge10_Node000010_Node000010"><a xlink:title=" ">
<path fill="none" stroke="#63b8ff" d="M1553.23,-140.91C1543.81,-149.52 1550.69,-158.62 1573.88,-158.62 1586.55,-158.62 1594.35,-155.9 1597.28,-152.03"/>
<polygon fill="#63b8ff" stroke="#63b8ff" points="1600.69,-151.24 1594.89,-142.38 1593.9,-152.93 1600.69,-151.24"/>
</a>
</g>
</g>
<!-- Node11 -->
<g id="Node000011" class="node">
<title>Node11</title>
<g id="a_Node000011"><a xlink:href="../../de/d1a/container-dlist_8h.html#a3b6f65860b212e28f2e28e71eb54d54d" target="_top" xlink:title="Add element e at the head of list l (suited for LIFO).">
<polygon fill="white" stroke="#666666" points="1752.75,-84.62 1697.75,-84.62 1697.75,-65.38 1752.75,-65.38 1752.75,-84.62"/>
<text text-anchor="middle" x="1725.25" y="-71.12" font-family="Helvetica,sans-Serif" font-size="10.00">dlist_add</text>
</a>
</g>
</g>
<!-- Node10&#45;&gt;Node11 -->
<g id="edge11_Node000010_Node000011" class="edge">
<title>Node10&#45;&gt;Node11</title>
<g id="a_edge11_Node000010_Node000011"><a xlink:title=" ">
<path fill="none" stroke="#63b8ff" d="M1605.87,-120.96C1612.51,-118.56 1619.43,-115.85 1625.75,-113 1642.44,-105.48 1644.85,-100.02 1661.75,-93 1669.56,-89.75 1678.16,-86.87 1686.41,-84.4"/>
<polygon fill="#63b8ff" stroke="#63b8ff" points="1687.21,-87.82 1695.88,-81.73 1685.3,-81.08 1687.21,-87.82"/>
</a>
</g>
</g>
<!-- Node13 -->
<g id="Node000013" class="node">
<title>Node13</title>
<g id="a_Node000013"><a xlink:href="../../de/d1a/container-dlist_8h.html#a0a69e401f6ec15966c891e96ad864c77" target="_top" xlink:title="Put a dlist_t element in a safe and detached state.">
<polygon fill="white" stroke="#666666" points="1751.25,-121.62 1699.25,-121.62 1699.25,-102.38 1751.25,-102.38 1751.25,-121.62"/>
<text text-anchor="middle" x="1725.25" y="-108.12" font-family="Helvetica,sans-Serif" font-size="10.00">dlist_init</text>
</a>
</g>
</g>
<!-- Node10&#45;&gt;Node13 -->
<g id="edge13_Node000010_Node000013" class="edge">
<title>Node10&#45;&gt;Node13</title>
<g id="a_edge13_Node000010_Node000013"><a xlink:title=" ">
<path fill="none" stroke="#63b8ff" d="M1625.86,-124.51C1646.2,-121.93 1669.16,-119.01 1687.78,-116.64"/>
<polygon fill="#63b8ff" stroke="#63b8ff" points="1688.05,-120.13 1697.53,-115.4 1687.17,-113.19 1688.05,-120.13"/>
</a>
</g>
</g>
<!-- Node14 -->
<g id="Node000014" class="node">
<title>Node14</title>
<g id="a_Node000014"><a xlink:href="../../d7/df8/log_8c.html#a4c8fbe8648573312126ce341cf34cba1" target="_top" xlink:title=" ">
<polygon fill="white" stroke="#666666" points="1788.75,-197.62 1661.75,-197.62 1661.75,-178.38 1788.75,-178.38 1788.75,-197.62"/>
<text text-anchor="middle" x="1725.25" y="-184.12" font-family="Helvetica,sans-Serif" font-size="10.00">logger_compute_fullname</text>
</a>
</g>
</g>
<!-- Node10&#45;&gt;Node14 -->
<g id="edge14_Node000010_Node000014" class="edge">
<title>Node10&#45;&gt;Node14</title>
<g id="a_edge14_Node000010_Node000014"><a xlink:title=" ">
<path fill="none" stroke="#63b8ff" d="M1601.24,-141.06C1625.16,-150.19 1660.68,-163.74 1687.41,-173.94"/>
<polygon fill="#63b8ff" stroke="#63b8ff" points="1685.9,-177.11 1696.49,-177.41 1688.39,-170.57 1685.9,-177.11"/>
</a>
</g>
</g>
<!-- Node17 -->
<g id="Node000017" class="node">
<title>Node17</title>
<g id="a_Node000017"><a xlink:href="../../df/d0a/str-l_8h.html#ad74dae07179370f3c22e3f026157926e" target="_top" xlink:title="wipe a lstr_t (frees memory if needed).">
<polygon fill="white" stroke="#666666" points="1896.25,-178.62 1841.25,-178.62 1841.25,-159.38 1896.25,-159.38 1896.25,-178.62"/>
<text text-anchor="middle" x="1868.75" y="-165.12" font-family="Helvetica,sans-Serif" font-size="10.00">lstr_wipe</text>
</a>
</g>
</g>
<!-- Node10&#45;&gt;Node17 -->
<g id="edge27_Node000010_Node000017" class="edge">
<title>Node10&#45;&gt;Node17</title>
<g id="a_edge27_Node000010_Node000017"><a xlink:title=" ">
<path fill="none" stroke="#63b8ff" d="M1626.23,-137.66C1684.36,-145.21 1777.74,-157.32 1829.71,-164.06"/>
<polygon fill="#63b8ff" stroke="#63b8ff" points="1829.2,-167.53 1839.56,-165.34 1830.1,-160.59 1829.2,-167.53"/>
</a>
</g>
</g>
<!-- Node24 -->
<g id="Node000024" class="node">
<title>Node24</title>
<g id="a_Node000024"><a xlink:href="../../df/d0a/str-l_8h.html#a963c22b229774d4b7c106bae4011cb8e" target="_top" xlink:title="Returns whether \v s1 and \v s2 contents are equal.">
<polygon fill="white" stroke="#666666" points="1754.25,-47.62 1696.25,-47.62 1696.25,-28.38 1754.25,-28.38 1754.25,-47.62"/>
<text text-anchor="middle" x="1725.25" y="-34.12" font-family="Helvetica,sans-Serif" font-size="10.00">lstr_equal</text>
</a>
</g>
</g>
<!-- Node10&#45;&gt;Node24 -->
<g id="edge26_Node000010_Node000024" class="edge">
<title>Node10&#45;&gt;Node24</title>
<g id="a_edge26_Node000010_Node000024"><a xlink:title=" ">
<path fill="none" stroke="#63b8ff" d="M1612.53,-120.96C1617.25,-118.78 1621.8,-116.16 1625.75,-113 1649.17,-94.3 1637.79,-73.99 1661.75,-56 1668.52,-50.92 1676.68,-47.27 1684.84,-44.65"/>
<polygon fill="#63b8ff" stroke="#63b8ff" points="1685.63,-48.06 1694.37,-42.07 1683.8,-41.31 1685.63,-48.06"/>
</a>
</g>
</g>
<!-- Node12 -->
<g id="Node000012" class="node">
<title>Node12</title>
<g id="a_Node000012"><a xlink:href="../../de/d1a/container-dlist_8h.html#a71e7667ca0e4b896923788c5851afd24" target="_top" xlink:title="Put element e between prev and next.">
<polygon fill="white" stroke="#666666" points="1901.5,-84.62 1836,-84.62 1836,-65.38 1901.5,-65.38 1901.5,-84.62"/>
<text text-anchor="middle" x="1868.75" y="-71.12" font-family="Helvetica,sans-Serif" font-size="10.00">__dlist_add</text>
</a>
</g>
</g>
<!-- Node11&#45;&gt;Node12 -->
<g id="edge12_Node000011_Node000012" class="edge">
<title>Node11&#45;&gt;Node12</title>
<g id="a_edge12_Node000011_Node000012"><a xlink:title=" ">
<path fill="none" stroke="#63b8ff" d="M1753.2,-75C1773.3,-75 1801.17,-75 1824.39,-75"/>
<polygon fill="#63b8ff" stroke="#63b8ff" points="1824.19,-78.5 1834.19,-75 1824.19,-71.5 1824.19,-78.5"/>
</a>
</g>
</g>
<!-- Node15 -->
<g id="Node000015" class="node">
<title>Node15</title>
<g id="a_Node000015"><a xlink:href="../../df/d0a/str-l_8h.html#a6a200ca09358f19b13a8e297cda34869" target="_top" xlink:title="returns a constant copy of \v s.">
<polygon fill="white" stroke="#666666" points="1896.62,-216.62 1840.88,-216.62 1840.88,-197.38 1896.62,-197.38 1896.62,-216.62"/>
<text text-anchor="middle" x="1868.75" y="-203.12" font-family="Helvetica,sans-Serif" font-size="10.00">lstr_dupc</text>
</a>
</g>
</g>
<!-- Node14&#45;&gt;Node15 -->
<g id="edge15_Node000014_Node000015" class="edge">
<title>Node14&#45;&gt;Node15</title>
<g id="a_edge15_Node000014_Node000015"><a xlink:title=" ">
<path fill="none" stroke="#63b8ff" d="M1789.14,-196.44C1802.79,-198.28 1816.83,-200.16 1829.2,-201.82"/>
<polygon fill="#63b8ff" stroke="#63b8ff" points="1828.61,-205.28 1838.99,-203.14 1829.54,-198.34 1828.61,-205.28"/>
</a>
</g>
</g>
<!-- Node14&#45;&gt;Node17 -->
<g id="edge17_Node000014_Node000017" class="edge">
<title>Node14&#45;&gt;Node17</title>
<g id="a_edge17_Node000014_Node000017"><a xlink:title=" ">
<path fill="none" stroke="#63b8ff" d="M1789.14,-179.56C1802.9,-177.71 1817.06,-175.81 1829.51,-174.14"/>
<polygon fill="#63b8ff" stroke="#63b8ff" points="1829.9,-177.61 1839.34,-172.81 1828.97,-170.68 1829.9,-177.61"/>
</a>
</g>
</g>
<!-- Node16 -->
<g id="Node000016" class="node">
<title>Node16</title>
<g id="a_Node000016"><a xlink:href="../../df/d0a/str-l_8h.html#a3b4dbe9c4cc70340cba0787574dc1c5e" target="_top" xlink:title=" ">
<polygon fill="white" stroke="#666666" points="2226.25,-216.62 2173.5,-216.62 2173.5,-197.38 2226.25,-197.38 2226.25,-216.62"/>
<text text-anchor="middle" x="2199.88" y="-203.12" font-family="Helvetica,sans-Serif" font-size="10.00">lstr_init_</text>
</a>
</g>
</g>
<!-- Node15&#45;&gt;Node16 -->
<g id="edge16_Node000015_Node000016" class="edge">
<title>Node15&#45;&gt;Node16</title>
<g id="a_edge16_Node000015_Node000016"><a xlink:title=" ">
<path fill="none" stroke="#63b8ff" d="M1896.96,-207C1955.81,-207 2094.94,-207 2161.78,-207"/>
<polygon fill="#63b8ff" stroke="#63b8ff" points="2161.49,-210.5 2171.49,-207 2161.49,-203.5 2161.49,-210.5"/>
</a>
</g>
</g>
<!-- Node18 -->
<g id="Node000018" class="node">
<title>Node18</title>
<g id="a_Node000018"><a xlink:href="../../df/d0a/str-l_8h.html#a381cd831ac9616c5bea8213bb679d1ac" target="_top" xlink:title="Wipe a lstr_t (frees memory if needed).">
<polygon fill="white" stroke="#666666" points="2022.5,-178.62 1948.75,-178.62 1948.75,-159.38 2022.5,-159.38 2022.5,-178.62"/>
<text text-anchor="middle" x="1985.62" y="-165.12" font-family="Helvetica,sans-Serif" font-size="10.00">mp_lstr_wipe</text>
</a>
</g>
</g>
<!-- Node17&#45;&gt;Node18 -->
<g id="edge18_Node000017_Node000018" class="edge">
<title>Node17&#45;&gt;Node18</title>
<g id="a_edge18_Node000017_Node000018"><a xlink:title=" ">
<path fill="none" stroke="#63b8ff" d="M1896.68,-169C1908.7,-169 1923.23,-169 1936.99,-169"/>
<polygon fill="#63b8ff" stroke="#63b8ff" points="1936.78,-172.5 1946.78,-169 1936.78,-165.5 1936.78,-172.5"/>
</a>
</g>
</g>
<!-- Node19 -->
<g id="Node000019" class="node">
<title>Node19</title>
<g id="a_Node000019"><a xlink:href="../../de/d04/str-l_8c.html#abe2a3a71f0b4dbc7d37c59d16762b6fb" target="_top" xlink:title="lstr_copy_* helper.">
<polygon fill="white" stroke="#666666" points="2137.5,-178.62 2058.5,-178.62 2058.5,-159.38 2137.5,-159.38 2137.5,-178.62"/>
<text text-anchor="middle" x="2098" y="-165.12" font-family="Helvetica,sans-Serif" font-size="10.00">mp_lstr_copy_</text>
</a>
</g>
</g>
<!-- Node18&#45;&gt;Node19 -->
<g id="edge19_Node000018_Node000019" class="edge">
<title>Node18&#45;&gt;Node19</title>
<g id="a_edge19_Node000018_Node000019"><a xlink:title=" ">
<path fill="none" stroke="#63b8ff" d="M2022.77,-169C2030.46,-169 2038.71,-169 2046.82,-169"/>
<polygon fill="#63b8ff" stroke="#63b8ff" points="2046.6,-172.5 2056.6,-169 2046.6,-165.5 2046.6,-172.5"/>
</a>
</g>
</g>
<!-- Node19&#45;&gt;Node16 -->
<g id="edge25_Node000019_Node000016" class="edge">
<title>Node19&#45;&gt;Node16</title>
<g id="a_edge25_Node000019_Node000016"><a xlink:title=" ">
<path fill="none" stroke="#63b8ff" d="M2125.5,-179.08C2136.94,-183.44 2150.51,-188.6 2162.85,-193.29"/>
<polygon fill="#63b8ff" stroke="#63b8ff" points="2161.28,-196.44 2171.87,-196.73 2163.77,-189.9 2161.28,-196.44"/>
</a>
</g>
</g>
<!-- Node20 -->
<g id="Node000020" class="node">
<title>Node20</title>
<g id="a_Node000020"><a xlink:href="../../d9/d9a/mem_8h.html#aebbbd277e2952bdb802104671ba23ba9" target="_top" xlink:title=" ">
<polygon fill="white" stroke="#666666" points="2217.25,-178.62 2182.5,-178.62 2182.5,-159.38 2217.25,-159.38 2217.25,-178.62"/>
<text text-anchor="middle" x="2199.88" y="-165.12" font-family="Helvetica,sans-Serif" font-size="10.00">ifree</text>
</a>
</g>
</g>
<!-- Node19&#45;&gt;Node20 -->
<g id="edge20_Node000019_Node000020" class="edge">
<title>Node19&#45;&gt;Node20</title>
<g id="a_edge20_Node000019_Node000020"><a xlink:title=" ">
<path fill="none" stroke="#63b8ff" d="M2137.9,-169C2148.8,-169 2160.45,-169 2170.6,-169"/>
<polygon fill="#63b8ff" stroke="#63b8ff" points="2170.6,-172.5 2180.6,-169 2170.6,-165.5 2170.6,-172.5"/>
</a>
</g>
</g>
<!-- Node21 -->
<g id="Node000021" class="node">
<title>Node21</title>
<g id="a_Node000021"><a xlink:href="../../d8/d37/mem_8blk.html#a36b65ab346f1d0deed7b63c544c78f2b" target="_top" xlink:title=" ">
<polygon fill="white" stroke="#666666" points="2307.12,-122.62 2270.88,-122.62 2270.88,-103.38 2307.12,-103.38 2307.12,-122.62"/>
<text text-anchor="middle" x="2289" y="-109.12" font-family="Helvetica,sans-Serif" font-size="10.00">ipool</text>
</a>
</g>
</g>
<!-- Node20&#45;&gt;Node21 -->
<g id="edge21_Node000020_Node000021" class="edge">
<title>Node20&#45;&gt;Node21</title>
<g id="a_edge21_Node000020_Node000021"><a xlink:title=" ">
<path fill="none" stroke="#63b8ff" d="M2216.45,-158.99C2229.26,-150.76 2247.66,-138.93 2262.59,-129.33"/>
<polygon fill="#63b8ff" stroke="#63b8ff" points="2264.47,-132.28 2270.99,-123.93 2260.69,-126.39 2264.47,-132.28"/>
</a>
</g>
</g>
<!-- Node20&#45;&gt;Node23 -->
<g id="edge24_Node000020_Node000023" class="edge">
<title>Node20&#45;&gt;Node23</title>
<g id="a_edge24_Node000020_Node000023"><a xlink:title=" ">
<path fill="none" stroke="#63b8ff" d="M2216.45,-179.01C2229.26,-187.24 2247.66,-199.07 2262.59,-208.67"/>
<polygon fill="#63b8ff" stroke="#63b8ff" points="2260.69,-211.61 2270.99,-214.07 2264.47,-205.72 2260.69,-211.61"/>
</a>
</g>
</g>
<!-- Node21&#45;&gt;Node8 -->
<g id="edge22_Node000021_Node000008" class="edge">
<title>Node21&#45;&gt;Node8</title>
<g id="a_edge22_Node000021_Node000008"><a xlink:title=" ">
<path fill="none" stroke="#63b8ff" d="M2279.31,-102.97C2254.31,-75.32 2178.9,0 2099,0 1572.88,0 1572.88,0 1572.88,0 1484.85,0 1456.19,-26.94 1398,-93 1368.16,-126.88 1383.97,-148.55 1362,-188 1358.28,-194.67 1353.48,-201.45 1348.86,-207.4"/>
<polygon fill="#63b8ff" stroke="#63b8ff" points="1346.47,-204.79 1342.86,-214.75 1351.89,-209.21 1346.47,-204.79"/>
</a>
</g>
</g>
<!-- Node22 -->
<g id="Node000022" class="node">
<title>Node22</title>
<g id="a_Node000022"><a xlink:href="../../d1/d10/mem-stack_8h.html#a1d0e2a29f86dc033a02e50484b527fd0" target="_top" xlink:title=" ">
<polygon fill="white" stroke="#666666" points="2394,-122.62 2351.75,-122.62 2351.75,-103.38 2394,-103.38 2394,-122.62"/>
<text text-anchor="middle" x="2372.88" y="-109.12" font-family="Helvetica,sans-Serif" font-size="10.00">t_pool</text>
</a>
</g>
</g>
<!-- Node21&#45;&gt;Node22 -->
<g id="edge23_Node000021_Node000022" class="edge">
<title>Node21&#45;&gt;Node22</title>
<g id="a_edge23_Node000021_Node000022"><a xlink:title=" ">
<path fill="none" stroke="#63b8ff" d="M2307.36,-113C2316.81,-113 2328.79,-113 2339.86,-113"/>
<polygon fill="#63b8ff" stroke="#63b8ff" points="2339.84,-116.5 2349.84,-113 2339.84,-109.5 2339.84,-116.5"/>
</a>
</g>
</g>
<!-- Node27&#45;&gt;Node15 -->
<g id="edge34_Node000027_Node000015" class="edge">
<title>Node27&#45;&gt;Node15</title>
<g id="a_edge34_Node000027_Node000015"><a xlink:title=" ">
<path fill="none" stroke="#63b8ff" d="M1474.93,-224.57C1551.61,-221.14 1745.95,-212.45 1829.08,-208.73"/>
<polygon fill="#63b8ff" stroke="#63b8ff" points="1829.16,-212.23 1838.99,-208.29 1828.85,-205.24 1829.16,-212.23"/>
</a>
</g>
</g>
<!-- Node28 -->
<g id="Node000028" class="node">
<title>Node28</title>
<g id="a_Node000028"><a xlink:href="../../d1/dc0/group__log.html#ga168a6f17b248f61f7d25a17d58d04e36" target="_top" xlink:title=" ">
<polygon fill="white" stroke="#666666" points="1618.25,-273.62 1529.5,-273.62 1529.5,-254.38 1618.25,-254.38 1618.25,-273.62"/>
<text text-anchor="middle" x="1573.88" y="-260.12" font-family="Helvetica,sans-Serif" font-size="10.00">logger_has_level</text>
</a>
</g>
</g>
<!-- Node27&#45;&gt;Node28 -->
<g id="edge31_Node000027_Node000028" class="edge">
<title>Node27&#45;&gt;Node28</title>
<g id="a_edge31_Node000027_Node000028"><a xlink:title=" ">
<path fill="none" stroke="#63b8ff" d="M1475.1,-235.39C1490.88,-240.01 1510.16,-245.65 1527.42,-250.7"/>
<polygon fill="#63b8ff" stroke="#63b8ff" points="1526.38,-254.04 1536.96,-253.49 1528.34,-247.32 1526.38,-254.04"/>
</a>
</g>
</g>
<!-- Node29 -->
<g id="Node000029" class="node">
<title>Node29</title>
<g id="a_Node000029"><a xlink:href="../../d1/dc0/group__log.html#gaf388752b988541da0abeceecdf96e6b3" target="_top" xlink:title=" ">
<polygon fill="white" stroke="#666666" points="1768.5,-273.62 1682,-273.62 1682,-254.38 1768.5,-254.38 1768.5,-273.62"/>
<text text-anchor="middle" x="1725.25" y="-260.12" font-family="Helvetica,sans-Serif" font-size="10.00">logger_get_level</text>
</a>
</g>
</g>
<!-- Node28&#45;&gt;Node29 -->
<g id="edge32_Node000028_Node000029" class="edge">
<title>Node28&#45;&gt;Node29</title>
<g id="a_edge32_Node000028_Node000029"><a xlink:title=" ">
<path fill="none" stroke="#63b8ff" d="M1618.48,-264C1634.64,-264 1653.17,-264 1670.15,-264"/>
<polygon fill="#63b8ff" stroke="#63b8ff" points="1670.11,-267.5 1680.11,-264 1670.11,-260.5 1670.11,-267.5"/>
</a>
</g>
</g>
<!-- Node30 -->
<g id="Node000030" class="node">
<title>Node30</title>
<g id="a_Node000030"><a xlink:href="../../d1/dc0/group__log.html#ga93cbd623096e1704532d15b3eb30e42f" target="_top" xlink:title=" ">
<polygon fill="white" stroke="#666666" points="1912.75,-273.62 1824.75,-273.62 1824.75,-254.38 1912.75,-254.38 1912.75,-273.62"/>
<text text-anchor="middle" x="1868.75" y="-260.12" font-family="Helvetica,sans-Serif" font-size="10.00">__logger_refresh</text>
</a>
</g>
</g>
<!-- Node29&#45;&gt;Node30 -->
<g id="edge33_Node000029_Node000030" class="edge">
<title>Node29&#45;&gt;Node30</title>
<g id="a_edge33_Node000029_Node000030"><a xlink:title=" ">
<path fill="none" stroke="#63b8ff" d="M1768.7,-264C1782.58,-264 1798.19,-264 1812.85,-264"/>
<polygon fill="#63b8ff" stroke="#63b8ff" points="1812.83,-267.5 1822.83,-264 1812.83,-260.5 1812.83,-267.5"/>
</a>
</g>
</g>
<!-- Node33 -->
<g id="Node000033" class="node">
<title>Node33</title>
<g id="a_Node000033"><a xlink:href="../../d8/d37/mem_8blk.html#a5666a1403bcf2bd8e114c23f8021d1ac" target="_top" xlink:title=" ">
<polygon fill="white" stroke="#666666" points="1109.12,-197.62 1033.12,-197.62 1033.12,-178.38 1109.12,-178.38 1109.12,-197.62"/>
<text text-anchor="middle" x="1071.12" y="-184.12" font-family="Helvetica,sans-Serif" font-size="10.00">__mp_imalloc</text>
</a>
</g>
</g>
<!-- Node32&#45;&gt;Node33 -->
<g id="edge38_Node000032_Node000033" class="edge">
<title>Node32&#45;&gt;Node33</title>
<g id="a_edge38_Node000032_Node000033"><a xlink:title=" ">
<path fill="none" stroke="#63b8ff" d="M972.07,-188C987.01,-188 1005.08,-188 1021.61,-188"/>
<polygon fill="#63b8ff" stroke="#63b8ff" points="1021.25,-191.5 1031.25,-188 1021.25,-184.5 1021.25,-191.5"/>
</a>
</g>
</g>
<!-- Node32&#45;&gt;Node36 -->
<g id="edge42_Node000032_Node000036" class="edge">
<title>Node32&#45;&gt;Node36</title>
<g id="a_edge42_Node000032_Node000036"><a xlink:title=" ">
<path fill="none" stroke="#63b8ff" d="M951.43,-177.88C973.7,-158.4 1022.76,-115.46 1050.32,-91.33"/>
<polygon fill="#63b8ff" stroke="#63b8ff" points="1052.42,-94.15 1057.64,-84.93 1047.81,-88.88 1052.42,-94.15"/>
</a>
</g>
</g>
<!-- Node33&#45;&gt;Node7 -->
<g id="edge39_Node000033_Node000007" class="edge">
<title>Node33&#45;&gt;Node7</title>
<g id="a_edge39_Node000033_Node000007"><a xlink:title=" ">
<path fill="none" stroke="#63b8ff" d="M1109.3,-197.98C1127.51,-202.87 1149.58,-208.8 1168.72,-213.94"/>
<polygon fill="#63b8ff" stroke="#63b8ff" points="1167.58,-217.26 1178.14,-216.47 1169.39,-210.5 1167.58,-217.26"/>
</a>
</g>
</g>
<!-- Node34 -->
<g id="Node000034" class="node">
<title>Node34</title>
<g id="a_Node000034"><a xlink:href="../../d9/d9a/mem_8h.html#af42ab5c21de0c723b2a55403e5441fda" target="_top" xlink:title=" ">
<polygon fill="white" stroke="#666666" points="1254.12,-178.62 1175.12,-178.62 1175.12,-159.38 1254.12,-159.38 1254.12,-178.62"/>
<text text-anchor="middle" x="1214.62" y="-165.12" font-family="Helvetica,sans-Serif" font-size="10.00">mem_bit_align</text>
</a>
</g>
</g>
<!-- Node33&#45;&gt;Node34 -->
<g id="edge40_Node000033_Node000034" class="edge">
<title>Node33&#45;&gt;Node34</title>
<g id="a_edge40_Node000033_Node000034"><a xlink:title=" ">
<path fill="none" stroke="#63b8ff" d="M1109.3,-183.01C1125.83,-180.79 1145.53,-178.14 1163.34,-175.75"/>
<polygon fill="#63b8ff" stroke="#63b8ff" points="1163.77,-179.23 1173.22,-174.43 1162.84,-172.29 1163.77,-179.23"/>
</a>
</g>
</g>
<!-- Node35 -->
<g id="Node000035" class="node">
<title>Node35</title>
<g id="a_Node000035"><a xlink:href="../../d8/d96/bithacks_8h.html#ab80588fa9f8b9e766249edaf70558bdc" target="_top" xlink:title=" ">
<polygon fill="white" stroke="#666666" points="1362,-178.62 1301.75,-178.62 1301.75,-159.38 1362,-159.38 1362,-178.62"/>
<text text-anchor="middle" x="1331.88" y="-165.12" font-family="Helvetica,sans-Serif" font-size="10.00">bitcountsz</text>
</a>
</g>
</g>
<!-- Node34&#45;&gt;Node35 -->
<g id="edge41_Node000034_Node000035" class="edge">
<title>Node34&#45;&gt;Node35</title>
<g id="a_edge41_Node000034_Node000035"><a xlink:title=" ">
<path fill="none" stroke="#63b8ff" d="M1254.32,-169C1265.9,-169 1278.62,-169 1290.31,-169"/>
<polygon fill="#63b8ff" stroke="#63b8ff" points="1290.06,-172.5 1300.06,-169 1290.06,-165.5 1290.06,-172.5"/>
</a>
</g>
</g>
<!-- Node37 -->
<g id="Node000037" class="node">
<title>Node37</title>
<g id="a_Node000037"><a xlink:href="../../d8/d37/mem_8blk.html#a377e36d6fbaf3ee7f1b217559cb0c850" target="_top" xlink:title=" ">
<polygon fill="white" stroke="#666666" points="1265.75,-83.62 1163.5,-83.62 1163.5,-64.38 1265.75,-64.38 1265.75,-83.62"/>
<text text-anchor="middle" x="1214.62" y="-70.12" font-family="Helvetica,sans-Serif" font-size="10.00">__imalloc_too_large</text>
</a>
</g>
</g>
<!-- Node36&#45;&gt;Node37 -->
<g id="edge43_Node000036_Node000037" class="edge">
<title>Node36&#45;&gt;Node37</title>
<g id="a_edge43_Node000036_Node000037"><a xlink:title=" ">
<path fill="none" stroke="#63b8ff" d="M1127.64,-74C1135.64,-74 1143.91,-74 1152.02,-74"/>
<polygon fill="#63b8ff" stroke="#63b8ff" points="1151.82,-77.5 1161.82,-74 1151.82,-70.5 1151.82,-77.5"/>
</a>
</g>
</g>
<!-- Node38&#45;&gt;Node36 -->
<g id="edge50_Node000038_Node000036" class="edge">
<title>Node38&#45;&gt;Node36</title>
<g id="a_edge50_Node000038_Node000036"><a xlink:title=" ">
<path fill="none" stroke="#63b8ff" d="M745.31,-139.95C779.9,-127.02 843.11,-104.84 899,-93 932.99,-85.8 971.39,-81.22 1003.19,-78.37"/>
<polygon fill="#63b8ff" stroke="#63b8ff" points="1003.41,-81.86 1013.07,-77.52 1002.81,-74.88 1003.41,-81.86"/>
</a>
</g>
</g>
<!-- Node39 -->
<g id="Node000039" class="node">
<title>Node39</title>
<g id="a_Node000039"><a xlink:href="../../d8/d37/mem_8blk.html#aa4f4b48947d5dfb44c0897f6024ba16e" target="_top" xlink:title=" ">
<polygon fill="white" stroke="#666666" points="863,-159.62 787,-159.62 787,-140.38 863,-140.38 863,-159.62"/>
<text text-anchor="middle" x="825" y="-146.12" font-family="Helvetica,sans-Serif" font-size="10.00">__mp_irealloc</text>
</a>
</g>
</g>
<!-- Node38&#45;&gt;Node39 -->
<g id="edge45_Node000038_Node000039" class="edge">
<title>Node38&#45;&gt;Node39</title>
<g id="a_edge45_Node000038_Node000039"><a xlink:title=" ">
<path fill="none" stroke="#63b8ff" d="M751.25,-150C758.85,-150 767.14,-150 775.31,-150"/>
<polygon fill="#63b8ff" stroke="#63b8ff" points="775.17,-153.5 785.17,-150 775.17,-146.5 775.17,-153.5"/>
</a>
</g>
</g>
<!-- Node39&#45;&gt;Node7 -->
<g id="edge46_Node000039_Node000007" class="edge">
<title>Node39&#45;&gt;Node7</title>
<g id="a_edge46_Node000039_Node000007"><a xlink:title=" ">
<path fill="none" stroke="#63b8ff" d="M834.75,-159.83C847.39,-173.27 872.23,-196.87 899,-207 989.59,-241.26 1105.3,-237.23 1168.1,-231.48"/>
<polygon fill="#63b8ff" stroke="#63b8ff" points="1168.07,-235 1177.68,-230.54 1167.39,-228.03 1168.07,-235"/>
</a>
</g>
</g>
<!-- Node39&#45;&gt;Node32 -->
<g id="edge49_Node000039_Node000032" class="edge">
<title>Node39&#45;&gt;Node32</title>
<g id="a_edge49_Node000039_Node000032"><a xlink:title=" ">
<path fill="none" stroke="#63b8ff" d="M855.69,-160.08C868.56,-164.46 883.83,-169.64 897.69,-174.35"/>
<polygon fill="#63b8ff" stroke="#63b8ff" points="896.41,-177.61 907,-177.51 898.66,-170.98 896.41,-177.61"/>
</a>
</g>
</g>
<!-- Node39&#45;&gt;Node34 -->
<g id="edge48_Node000039_Node000034" class="edge">
<title>Node39&#45;&gt;Node34</title>
<g id="a_edge48_Node000039_Node000034"><a xlink:title=" ">
<path fill="none" stroke="#63b8ff" d="M863.17,-151.82C933.24,-155.26 1084.92,-162.69 1163.77,-166.56"/>
<polygon fill="#63b8ff" stroke="#63b8ff" points="1163.18,-170.03 1173.34,-167.03 1163.52,-163.04 1163.18,-170.03"/>
</a>
</g>
</g>
<!-- Node40 -->
<g id="Node000040" class="node">
<title>Node40</title>
<g id="a_Node000040"><a xlink:href="../../d9/d9a/mem_8h.html#a97bf9c8331ed73f6c120224fb5e9a8b6" target="_top" xlink:title=" ">
<polygon fill="white" stroke="#666666" points="978.75,-121.62 899,-121.62 899,-102.38 978.75,-102.38 978.75,-121.62"/>
<text text-anchor="middle" x="938.88" y="-108.12" font-family="Helvetica,sans-Serif" font-size="10.00">mem_align_ptr</text>
</a>
</g>
</g>
<!-- Node39&#45;&gt;Node40 -->
<g id="edge47_Node000039_Node000040" class="edge">
<title>Node39&#45;&gt;Node40</title>
<g id="a_edge47_Node000039_Node000040"><a xlink:title=" ">
<path fill="none" stroke="#63b8ff" d="M855.69,-139.92C868.56,-135.54 883.83,-130.36 897.69,-125.65"/>
<polygon fill="#63b8ff" stroke="#63b8ff" points="898.66,-129.02 907,-122.49 896.41,-122.39 898.66,-129.02"/>
</a>
</g>
</g>
</g>
</svg>

<g id="navigator" transform="translate(0 0)" fill="#404254">
  <rect fill="#f2f5e9" fill-opacity="0.5" stroke="#606060" stroke-width=".5" x="0" y="0" width="60" height="60"/>
  <use id="zoomplus" xlink:href="#zoomPlus" x="17" y="9" onmousedown="handleZoom(evt,'in')"/>
  <use id="zoomminus" xlink:href="#zoomMin" x="42" y="9" onmousedown="handleZoom(evt,'out')"/>
  <use id="reset" xlink:href="#resetDef" x="30" y="36" onmousedown="handleReset()"/>
   <use id="arrowup" xlink:href="#arrowUp" x="0" y="0" onmousedown="handlePan(0,-1)"/>
  <use id="arrowright" xlink:href="#arrowRight" x="0" y="0" onmousedown="handlePan(1,0)"/>
  <use id="arrowdown" xlink:href="#arrowDown" x="0" y="0" onmousedown="handlePan(0,1)"/>
  <use id="arrowleft" xlink:href="#arrowLeft" x="0" y="0" onmousedown="handlePan(-1,0)"/>
</g>
<svg viewBox="0 0 15 15" width="100%" height="30px" preserveAspectRatio="xMaxYMin meet">
 <g id="arrow_out" transform="scale(0.3 0.3)">
  <a xlink:href="bit-buf_8h_af26cd51bb0650395612565edb1615a5e_cgraph_org.svg" target="_base">
   <rect id="button" ry="5" rx="5" y="6" x="6" height="38" width="38"
        fill="#f2f5e9" fill-opacity="0.5" stroke="#606060" stroke-width="1.0"/>
   <path id="arrow"
     d="M 11.500037,31.436501 C 11.940474,20.09759 22.043105,11.32322 32.158766,21.979434 L 37.068811,17.246167 C 37.068811,17.246167 37.088388,32 37.088388,32 L 22.160133,31.978069 C 22.160133,31.978069 26.997745,27.140456 26.997745,27.140456 C 18.528582,18.264221 13.291696,25.230495 11.500037,31.436501 z"
     style="fill:#404040;"/>
  </a>
 </g>
</svg>

<style type='text/css'>
<![CDATA[
[data-mouse-over-selected='false'] { opacity: 0.7; }
[data-mouse-over-selected='true']  { opacity: 1.0; }
]]>
</style>
<script type="application/ecmascript"><![CDATA[
document.addEventListener('DOMContentLoaded', (event) => {
  highlightEdges();
  highlightAdjacentNodes();
});
]]></script>
</svg>
