<?xml version="1.0" encoding="UTF-8" standalone="no"?>
<!DOCTYPE svg PUBLIC "-//W3C//DTD SVG 1.1//EN"
 "http://www.w3.org/Graphics/SVG/1.1/DTD/svg11.dtd">
<!-- Generated by graphviz version 9.0.0 (20230911.1827)
 -->
<!-- Title: bb_add_bit Pages: 1 -->
<svg width="216pt" height="64pt"
 viewBox="0.00 0.00 215.50 64.25" xmlns="http://www.w3.org/2000/svg" xmlns:xlink="http://www.w3.org/1999/xlink">
<g id="graph0" class="graph" transform="scale(1 1) rotate(0) translate(4 60.25)">
<title>bb_add_bit</title>
<!-- Node1 -->
<g id="Node000001" class="node">
<title>Node1</title>
<g id="a_Node000001"><a xlink:title=" ">
<polygon fill="#999999" stroke="#666666" points="207.5,-37.25 144.25,-37.25 144.25,-18 207.5,-18 207.5,-37.25"/>
<text text-anchor="middle" x="175.88" y="-23.75" font-family="Helvetica,sans-Serif" font-size="10.00">bb_add_bit</text>
</a>
</g>
</g>
<!-- Node2 -->
<g id="Node000002" class="node">
<title>Node2</title>
<g id="a_Node000002"><a xlink:href="../../d2/d6f/bit-buf_8c.html#a2aa19565572a2bd686ad5aeecc4f2a29" target="_top" xlink:title=" ">
<polygon fill="white" stroke="#666666" points="85.75,-56.25 22.5,-56.25 22.5,-37 85.75,-37 85.75,-56.25"/>
<text text-anchor="middle" x="54.12" y="-42.75" font-family="Helvetica,sans-Serif" font-size="10.00">bb_add_bs</text>
</a>
</g>
</g>
<!-- Node1&#45;&gt;Node2 -->
<g id="edge1_Node000001_Node000002" class="edge">
<title>Node1&#45;&gt;Node2</title>
<g id="a_edge1_Node000001_Node000002"><a xlink:title=" ">
<path fill="none" stroke="#63b8ff" d="M133.11,-34.25C117.57,-36.72 100.23,-39.47 85.86,-41.75"/>
<polygon fill="#63b8ff" stroke="#63b8ff" points="133.21,-37.78 142.54,-32.76 132.12,-30.87 133.21,-37.78"/>
</a>
</g>
</g>
<!-- Node3 -->
<g id="Node000003" class="node">
<title>Node3</title>
<g id="a_Node000003"><a xlink:href="../../d2/d6f/bit-buf_8c.html#af31a575e22f67942b78c9ef715ca77c3" target="_top" xlink:title=" ">
<polygon fill="white" stroke="#666666" points="108.25,-19.25 0,-19.25 0,0 108.25,0 108.25,-19.25"/>
<text text-anchor="middle" x="54.12" y="-5.75" font-family="Helvetica,sans-Serif" font-size="10.00">Z_GROUP_EXPORT</text>
</a>
</g>
</g>
<!-- Node1&#45;&gt;Node3 -->
<g id="edge2_Node000001_Node000003" class="edge">
<title>Node1&#45;&gt;Node3</title>
<g id="a_edge2_Node000001_Node000003"><a xlink:title=" ">
<path fill="none" stroke="#63b8ff" d="M132.65,-21.28C124.88,-20.11 116.68,-18.88 108.62,-17.67"/>
<polygon fill="#63b8ff" stroke="#63b8ff" points="132.13,-24.74 142.54,-22.76 133.17,-17.82 132.13,-24.74"/>
</a>
</g>
</g>
</g>
</svg>
