<?xml version="1.0" encoding="UTF-8" standalone="no"?>
<!DOCTYPE svg PUBLIC "-//W3C//DTD SVG 1.1//EN"
 "http://www.w3.org/Graphics/SVG/1.1/DTD/svg11.dtd">
<!-- Generated by graphviz version 9.0.0 (20230911.1827)
 -->
<!-- Title: __bb_grow Pages: 1 -->
<svg width="2107pt" height="310pt"
 viewBox="0.00 0.00 2107.25 310.00" xmlns="http://www.w3.org/2000/svg" xmlns:xlink="http://www.w3.org/1999/xlink">
<g id="graph0" class="graph" transform="scale(1 1) rotate(0) translate(4 306)">
<title>__bb_grow</title>
<!-- Node1 -->
<g id="Node000001" class="node">
<title>Node1</title>
<g id="a_Node000001"><a xlink:title=" ">
<polygon fill="#999999" stroke="#666666" points="63.25,-121.62 0,-121.62 0,-102.38 63.25,-102.38 63.25,-121.62"/>
<text text-anchor="middle" x="31.62" y="-108.12" font-family="Helvetica,sans-Serif" font-size="10.00">__bb_grow</text>
</a>
</g>
</g>
<!-- Node2 -->
<g id="Node000002" class="node">
<title>Node2</title>
<g id="a_Node000002"><a xlink:href="../../d9/d9a/mem_8h.html#a15958df365e5c2cc90a6c0c3e7e0e74f" target="_top" xlink:title=" ">
<polygon fill="white" stroke="#666666" points="203.75,-121.62 99.25,-121.62 99.25,-102.38 203.75,-102.38 203.75,-121.62"/>
<text text-anchor="middle" x="151.5" y="-108.12" font-family="Helvetica,sans-Serif" font-size="10.00">mp_irealloc_fallback</text>
</a>
</g>
</g>
<!-- Node1&#45;&gt;Node2 -->
<g id="edge1_Node000001_Node000002" class="edge">
<title>Node1&#45;&gt;Node2</title>
<g id="a_edge1_Node000001_Node000002"><a xlink:title=" ">
<path fill="none" stroke="#63b8ff" d="M63.6,-112C71,-112 79.18,-112 87.47,-112"/>
<polygon fill="#63b8ff" stroke="#63b8ff" points="87.26,-115.5 97.26,-112 87.26,-108.5 87.26,-115.5"/>
</a>
</g>
</g>
<!-- Node3 -->
<g id="Node000003" class="node">
<title>Node3</title>
<g id="a_Node000003"><a xlink:href="../../d8/d37/mem_8blk.html#a2fa974dc4e9f038e5bc400eb689b74b4" target="_top" xlink:title=" ">
<polygon fill="white" stroke="#666666" points="354.75,-197.62 239.75,-197.62 239.75,-178.38 354.75,-178.38 354.75,-197.62"/>
<text text-anchor="middle" x="297.25" y="-184.12" font-family="Helvetica,sans-Serif" font-size="10.00">__mp_irealloc_fallback</text>
</a>
</g>
</g>
<!-- Node2&#45;&gt;Node3 -->
<g id="edge2_Node000002_Node000003" class="edge">
<title>Node2&#45;&gt;Node3</title>
<g id="a_edge2_Node000002_Node000003"><a xlink:title=" ">
<path fill="none" stroke="#63b8ff" d="M171.59,-122.09C196.1,-135.05 238.88,-157.67 267.38,-172.74"/>
<polygon fill="#63b8ff" stroke="#63b8ff" points="265.72,-175.82 276.2,-177.4 269,-169.63 265.72,-175.82"/>
</a>
</g>
</g>
<!-- Node33 -->
<g id="Node000033" class="node">
<title>Node33</title>
<g id="a_Node000033"><a xlink:href="../../d9/d9a/mem_8h.html#ae99e17ad0b27e94e8a00c8af9734a0e7" target="_top" xlink:title=" ">
<polygon fill="white" stroke="#666666" points="832.75,-83.62 720,-83.62 720,-64.38 832.75,-64.38 832.75,-83.62"/>
<text text-anchor="middle" x="776.38" y="-70.12" font-family="Helvetica,sans-Serif" font-size="10.00">icheck_alloc_constant</text>
</a>
</g>
</g>
<!-- Node2&#45;&gt;Node33 -->
<g id="edge48_Node000002_Node000033" class="edge">
<title>Node2&#45;&gt;Node33</title>
<g id="a_edge48_Node000002_Node000033"><a xlink:title=" ">
<path fill="none" stroke="#63b8ff" d="M173.29,-101.91C217.84,-81.23 326.32,-36 422.5,-36 422.5,-36 422.5,-36 531.25,-36 598.7,-36 675.4,-50.34 724.53,-61.4"/>
<polygon fill="#63b8ff" stroke="#63b8ff" points="723.49,-64.75 734.02,-63.58 725.06,-57.93 723.49,-64.75"/>
</a>
</g>
</g>
<!-- Node4 -->
<g id="Node000004" class="node">
<title>Node4</title>
<g id="a_Node000004"><a xlink:href="../../d8/d37/mem_8blk.html#a8e4fbf6500e65079c31e3fd933ae7dc1" target="_top" xlink:title=" ">
<polygon fill="white" stroke="#666666" points="954.88,-235.62 884.88,-235.62 884.88,-216.38 954.88,-216.38 954.88,-235.62"/>
<text text-anchor="middle" x="919.88" y="-222.12" font-family="Helvetica,sans-Serif" font-size="10.00">icheck_alloc</text>
</a>
</g>
</g>
<!-- Node3&#45;&gt;Node4 -->
<g id="edge3_Node000003_Node000004" class="edge">
<title>Node3&#45;&gt;Node4</title>
<g id="a_edge3_Node000003_Node000004"><a xlink:title=" ">
<path fill="none" stroke="#63b8ff" d="M315.86,-198.09C353.65,-218.77 445.87,-264 529.25,-264 529.25,-264 529.25,-264 645.12,-264 728.86,-264 750.15,-260.73 832.75,-247 846.14,-244.77 860.52,-241.59 873.62,-238.37"/>
<polygon fill="#63b8ff" stroke="#63b8ff" points="874.45,-241.77 883.28,-235.93 872.73,-234.99 874.45,-241.77"/>
</a>
</g>
</g>
<!-- Node20 -->
<g id="Node000020" class="node">
<title>Node20</title>
<g id="a_Node000020"><a xlink:href="../../d8/d37/mem_8blk.html#a83c7cf203e5eef9d1a8c6c43cde3e2e5" target="_top" xlink:title=" ">
<polygon fill="white" stroke="#666666" points="2021,-234.62 1967.5,-234.62 1967.5,-215.38 2021,-215.38 2021,-234.62"/>
<text text-anchor="middle" x="1994.25" y="-221.12" font-family="Helvetica,sans-Serif" font-size="10.00">mp_ifree</text>
</a>
</g>
</g>
<!-- Node3&#45;&gt;Node20 -->
<g id="edge33_Node000003_Node000020" class="edge">
<title>Node3&#45;&gt;Node20</title>
<g id="a_edge33_Node000003_Node000020"><a xlink:title=" ">
<path fill="none" stroke="#63b8ff" d="M308.81,-197.94C325.18,-212.88 358.2,-241.15 390.75,-258 448.11,-287.69 464.66,-302 529.25,-302 529.25,-302 529.25,-302 1804.25,-302 1868.1,-302 1935.71,-263.84 1970.15,-241.25"/>
<polygon fill="#63b8ff" stroke="#63b8ff" points="1971.74,-244.4 1978.09,-235.91 1967.84,-238.59 1971.74,-244.4"/>
</a>
</g>
</g>
<!-- Node29 -->
<g id="Node000029" class="node">
<title>Node29</title>
<g id="a_Node000029"><a xlink:href="../../d9/d9a/mem_8h.html#ada6bb9661f0c10ccaa14d231c24aeafd" target="_top" xlink:title=" ">
<polygon fill="white" stroke="#666666" points="676.88,-197.62 611.38,-197.62 611.38,-178.38 676.88,-178.38 676.88,-197.62"/>
<text text-anchor="middle" x="644.12" y="-184.12" font-family="Helvetica,sans-Serif" font-size="10.00">mp_imalloc</text>
</a>
</g>
</g>
<!-- Node3&#45;&gt;Node29 -->
<g id="edge34_Node000003_Node000029" class="edge">
<title>Node3&#45;&gt;Node29</title>
<g id="a_edge34_Node000003_Node000029"><a xlink:title=" ">
<path fill="none" stroke="#63b8ff" d="M355.2,-188C423.86,-188 537.72,-188 599.69,-188"/>
<polygon fill="#63b8ff" stroke="#63b8ff" points="599.49,-191.5 609.49,-188 599.49,-184.5 599.49,-191.5"/>
</a>
</g>
</g>
<!-- Node35 -->
<g id="Node000035" class="node">
<title>Node35</title>
<g id="a_Node000035"><a xlink:href="../../d9/d9a/mem_8h.html#aabfb5bf96a257374cbc245548b81c4ff" target="_top" xlink:title=" ">
<polygon fill="white" stroke="#666666" points="456.25,-159.62 390.75,-159.62 390.75,-140.38 456.25,-140.38 456.25,-159.62"/>
<text text-anchor="middle" x="423.5" y="-146.12" font-family="Helvetica,sans-Serif" font-size="10.00">mp_irealloc</text>
</a>
</g>
</g>
<!-- Node3&#45;&gt;Node35 -->
<g id="edge41_Node000003_Node000035" class="edge">
<title>Node3&#45;&gt;Node35</title>
<g id="a_edge41_Node000003_Node000035"><a xlink:title=" ">
<path fill="none" stroke="#63b8ff" d="M331.22,-177.92C346.17,-173.34 364.04,-167.88 379.99,-163"/>
<polygon fill="#63b8ff" stroke="#63b8ff" points="380.68,-166.45 389.22,-160.18 378.63,-159.76 380.68,-166.45"/>
</a>
</g>
</g>
<!-- Node5 -->
<g id="Node000005" class="node">
<title>Node5</title>
<g id="a_Node000005"><a xlink:href="../../d7/df8/log_8c.html#abca342edf91a9b45f7a17ef564fa8a53" target="_top" xlink:title=" ">
<polygon fill="white" stroke="#666666" points="1062,-235.62 1012.25,-235.62 1012.25,-216.38 1062,-216.38 1062,-235.62"/>
<text text-anchor="middle" x="1037.12" y="-222.12" font-family="Helvetica,sans-Serif" font-size="10.00">e_panic</text>
</a>
</g>
</g>
<!-- Node4&#45;&gt;Node5 -->
<g id="edge4_Node000004_Node000005" class="edge">
<title>Node4&#45;&gt;Node5</title>
<g id="a_edge4_Node000004_Node000005"><a xlink:title=" ">
<path fill="none" stroke="#63b8ff" d="M955.14,-226C969.59,-226 986.4,-226 1000.95,-226"/>
<polygon fill="#63b8ff" stroke="#63b8ff" points="1000.53,-229.5 1010.53,-226 1000.53,-222.5 1000.53,-229.5"/>
</a>
</g>
</g>
<!-- Node6 -->
<g id="Node000006" class="node">
<title>Node6</title>
<g id="a_Node000006"><a xlink:href="../../d7/df8/log_8c.html#a4bc04f7baa1e064cb0b93c7b9f3a61a1" target="_top" xlink:title=" ">
<polygon fill="white" stroke="#666666" points="1191.25,-121.62 1103.25,-121.62 1103.25,-102.38 1191.25,-102.38 1191.25,-121.62"/>
<text text-anchor="middle" x="1147.25" y="-108.12" font-family="Helvetica,sans-Serif" font-size="10.00">__logger_refresh</text>
</a>
</g>
</g>
<!-- Node5&#45;&gt;Node6 -->
<g id="edge5_Node000005_Node000006" class="edge">
<title>Node5&#45;&gt;Node6</title>
<g id="a_edge5_Node000005_Node000006"><a xlink:title=" ">
<path fill="none" stroke="#63b8ff" d="M1047.72,-215.88C1066.04,-196.57 1106.22,-154.2 1129.21,-129.97"/>
<polygon fill="#63b8ff" stroke="#63b8ff" points="1131.45,-132.69 1135.79,-123.03 1126.37,-127.88 1131.45,-132.69"/>
</a>
</g>
</g>
<!-- Node24 -->
<g id="Node000024" class="node">
<title>Node24</title>
<g id="a_Node000024"><a xlink:href="../../d7/df8/log_8c.html#a900490b26df7698aac12f7f7e6517e81" target="_top" xlink:title=" ">
<polygon fill="white" stroke="#666666" points="1180,-235.62 1114.5,-235.62 1114.5,-216.38 1180,-216.38 1180,-235.62"/>
<text text-anchor="middle" x="1147.25" y="-222.12" font-family="Helvetica,sans-Serif" font-size="10.00">logger_vlog</text>
</a>
</g>
</g>
<!-- Node5&#45;&gt;Node24 -->
<g id="edge27_Node000005_Node000024" class="edge">
<title>Node5&#45;&gt;Node24</title>
<g id="a_edge27_Node000005_Node000024"><a xlink:title=" ">
<path fill="none" stroke="#63b8ff" d="M1062.39,-226C1074.36,-226 1089.16,-226 1102.97,-226"/>
<polygon fill="#63b8ff" stroke="#63b8ff" points="1102.75,-229.5 1112.75,-226 1102.75,-222.5 1102.75,-229.5"/>
</a>
</g>
</g>
<!-- Node28 -->
<g id="Node000028" class="node">
<title>Node28</title>
<g id="a_Node000028"><a xlink:href="../../d2/d4d/file_8h.html#a25419a391fdd4ad7954699c58cfeb3b9" target="_top" xlink:title=" ">
<polygon fill="white" stroke="#666666" points="1172.88,-272.62 1121.62,-272.62 1121.62,-253.38 1172.88,-253.38 1172.88,-272.62"/>
<text text-anchor="middle" x="1147.25" y="-259.12" font-family="Helvetica,sans-Serif" font-size="10.00">va_start</text>
</a>
</g>
</g>
<!-- Node5&#45;&gt;Node28 -->
<g id="edge32_Node000005_Node000028" class="edge">
<title>Node5&#45;&gt;Node28</title>
<g id="a_edge32_Node000005_Node000028"><a xlink:title=" ">
<path fill="none" stroke="#63b8ff" d="M1062.39,-234.3C1076.66,-239.19 1094.95,-245.44 1110.81,-250.87"/>
<polygon fill="#63b8ff" stroke="#63b8ff" points="1109.29,-254.05 1119.88,-253.98 1111.56,-247.43 1109.29,-254.05"/>
</a>
</g>
</g>
<!-- Node7 -->
<g id="Node000007" class="node">
<title>Node7</title>
<g id="a_Node000007"><a xlink:href="../../d7/df8/log_8c.html#a3dbd75fb614210f0b114cfd03c9c0a7b" target="_top" xlink:title=" ">
<polygon fill="white" stroke="#666666" points="1331,-140.62 1227.25,-140.62 1227.25,-121.38 1331,-121.38 1331,-140.62"/>
<text text-anchor="middle" x="1279.12" y="-127.12" font-family="Helvetica,sans-Serif" font-size="10.00">__logger_do_refresh</text>
</a>
</g>
</g>
<!-- Node6&#45;&gt;Node7 -->
<g id="edge6_Node000006_Node000007" class="edge">
<title>Node6&#45;&gt;Node7</title>
<g id="a_edge6_Node000006_Node000007"><a xlink:title=" ">
<path fill="none" stroke="#63b8ff" d="M1191.5,-118.33C1199.31,-119.47 1207.59,-120.68 1215.82,-121.89"/>
<polygon fill="#63b8ff" stroke="#63b8ff" points="1215.06,-125.31 1225.46,-123.3 1216.08,-118.39 1215.06,-125.31"/>
</a>
</g>
</g>
<!-- Node22 -->
<g id="Node000022" class="node">
<title>Node22</title>
<g id="a_Node000022"><a xlink:href="../../d7/df8/log_8c.html#a7b1b02d1986e1247c2f571af4a2c2854" target="_top" xlink:title=" ">
<polygon fill="white" stroke="#666666" points="1316.75,-66.62 1241.5,-66.62 1241.5,-47.38 1316.75,-47.38 1316.75,-66.62"/>
<text text-anchor="middle" x="1279.12" y="-53.12" font-family="Helvetica,sans-Serif" font-size="10.00">log_spin_lock</text>
</a>
</g>
</g>
<!-- Node6&#45;&gt;Node22 -->
<g id="edge25_Node000006_Node000022" class="edge">
<title>Node6&#45;&gt;Node22</title>
<g id="a_edge25_Node000006_Node000022"><a xlink:title=" ">
<path fill="none" stroke="#63b8ff" d="M1168.14,-102.02C1183.97,-94.24 1206.79,-83.39 1227.25,-75 1230.59,-73.63 1234.07,-72.27 1237.58,-70.94"/>
<polygon fill="#63b8ff" stroke="#63b8ff" points="1238.48,-74.34 1246.66,-67.6 1236.07,-67.77 1238.48,-74.34"/>
</a>
</g>
</g>
<!-- Node23 -->
<g id="Node000023" class="node">
<title>Node23</title>
<g id="a_Node000023"><a xlink:href="../../d1/dc0/group__log.html#ga045020bb4af234632f7761f220131c69" target="_top" xlink:title=" ">
<polygon fill="white" stroke="#666666" points="1322,-103.62 1236.25,-103.62 1236.25,-84.38 1322,-84.38 1322,-103.62"/>
<text text-anchor="middle" x="1279.12" y="-90.12" font-family="Helvetica,sans-Serif" font-size="10.00">log_spin_unlock</text>
</a>
</g>
</g>
<!-- Node6&#45;&gt;Node23 -->
<g id="edge26_Node000006_Node000023" class="edge">
<title>Node6&#45;&gt;Node23</title>
<g id="a_edge26_Node000006_Node000023"><a xlink:title=" ">
<path fill="none" stroke="#63b8ff" d="M1191.5,-106.01C1202.12,-104.53 1213.62,-102.94 1224.66,-101.41"/>
<polygon fill="#63b8ff" stroke="#63b8ff" points="1225.03,-104.89 1234.45,-100.05 1224.06,-97.96 1225.03,-104.89"/>
</a>
</g>
</g>
<!-- Node7&#45;&gt;Node7 -->
<g id="edge7_Node000007_Node000007" class="edge">
<title>Node7&#45;&gt;Node7</title>
<g id="a_edge7_Node000007_Node000007"><a xlink:title=" ">
<path fill="none" stroke="#63b8ff" d="M1258.48,-140.91C1249.06,-149.52 1255.94,-158.62 1279.12,-158.62 1291.8,-158.62 1299.6,-155.9 1302.53,-152.03"/>
<polygon fill="#63b8ff" stroke="#63b8ff" points="1305.94,-151.24 1300.14,-142.38 1299.15,-152.93 1305.94,-151.24"/>
</a>
</g>
</g>
<!-- Node8 -->
<g id="Node000008" class="node">
<title>Node8</title>
<g id="a_Node000008"><a xlink:href="../../de/d1a/container-dlist_8h.html#a3b6f65860b212e28f2e28e71eb54d54d" target="_top" xlink:title="Add element e at the head of list l (suited for LIFO).">
<polygon fill="white" stroke="#666666" points="1458,-84.62 1403,-84.62 1403,-65.38 1458,-65.38 1458,-84.62"/>
<text text-anchor="middle" x="1430.5" y="-71.12" font-family="Helvetica,sans-Serif" font-size="10.00">dlist_add</text>
</a>
</g>
</g>
<!-- Node7&#45;&gt;Node8 -->
<g id="edge8_Node000007_Node000008" class="edge">
<title>Node7&#45;&gt;Node8</title>
<g id="a_edge8_Node000007_Node000008"><a xlink:title=" ">
<path fill="none" stroke="#63b8ff" d="M1311.12,-120.96C1317.76,-118.56 1324.68,-115.85 1331,-113 1347.69,-105.48 1350.1,-100.02 1367,-93 1374.81,-89.75 1383.41,-86.87 1391.66,-84.4"/>
<polygon fill="#63b8ff" stroke="#63b8ff" points="1392.46,-87.82 1401.13,-81.73 1390.55,-81.08 1392.46,-87.82"/>
</a>
</g>
</g>
<!-- Node10 -->
<g id="Node000010" class="node">
<title>Node10</title>
<g id="a_Node000010"><a xlink:href="../../de/d1a/container-dlist_8h.html#a0a69e401f6ec15966c891e96ad864c77" target="_top" xlink:title="Put a dlist_t element in a safe and detached state.">
<polygon fill="white" stroke="#666666" points="1456.5,-121.62 1404.5,-121.62 1404.5,-102.38 1456.5,-102.38 1456.5,-121.62"/>
<text text-anchor="middle" x="1430.5" y="-108.12" font-family="Helvetica,sans-Serif" font-size="10.00">dlist_init</text>
</a>
</g>
</g>
<!-- Node7&#45;&gt;Node10 -->
<g id="edge10_Node000007_Node000010" class="edge">
<title>Node7&#45;&gt;Node10</title>
<g id="a_edge10_Node000007_Node000010"><a xlink:title=" ">
<path fill="none" stroke="#63b8ff" d="M1331.11,-124.51C1351.45,-121.93 1374.41,-119.01 1393.03,-116.64"/>
<polygon fill="#63b8ff" stroke="#63b8ff" points="1393.3,-120.13 1402.78,-115.4 1392.42,-113.19 1393.3,-120.13"/>
</a>
</g>
</g>
<!-- Node11 -->
<g id="Node000011" class="node">
<title>Node11</title>
<g id="a_Node000011"><a xlink:href="../../d7/df8/log_8c.html#a4c8fbe8648573312126ce341cf34cba1" target="_top" xlink:title=" ">
<polygon fill="white" stroke="#666666" points="1494,-197.62 1367,-197.62 1367,-178.38 1494,-178.38 1494,-197.62"/>
<text text-anchor="middle" x="1430.5" y="-184.12" font-family="Helvetica,sans-Serif" font-size="10.00">logger_compute_fullname</text>
</a>
</g>
</g>
<!-- Node7&#45;&gt;Node11 -->
<g id="edge11_Node000007_Node000011" class="edge">
<title>Node7&#45;&gt;Node11</title>
<g id="a_edge11_Node000007_Node000011"><a xlink:title=" ">
<path fill="none" stroke="#63b8ff" d="M1306.49,-141.06C1330.41,-150.19 1365.93,-163.74 1392.66,-173.94"/>
<polygon fill="#63b8ff" stroke="#63b8ff" points="1391.15,-177.11 1401.74,-177.41 1393.64,-170.57 1391.15,-177.11"/>
</a>
</g>
</g>
<!-- Node14 -->
<g id="Node000014" class="node">
<title>Node14</title>
<g id="a_Node000014"><a xlink:href="../../df/d0a/str-l_8h.html#ad74dae07179370f3c22e3f026157926e" target="_top" xlink:title="wipe a lstr_t (frees memory if needed).">
<polygon fill="white" stroke="#666666" points="1601.5,-178.62 1546.5,-178.62 1546.5,-159.38 1601.5,-159.38 1601.5,-178.62"/>
<text text-anchor="middle" x="1574" y="-165.12" font-family="Helvetica,sans-Serif" font-size="10.00">lstr_wipe</text>
</a>
</g>
</g>
<!-- Node7&#45;&gt;Node14 -->
<g id="edge24_Node000007_Node000014" class="edge">
<title>Node7&#45;&gt;Node14</title>
<g id="a_edge24_Node000007_Node000014"><a xlink:title=" ">
<path fill="none" stroke="#63b8ff" d="M1331.48,-137.66C1389.61,-145.21 1482.99,-157.32 1534.96,-164.06"/>
<polygon fill="#63b8ff" stroke="#63b8ff" points="1534.45,-167.53 1544.81,-165.34 1535.35,-160.59 1534.45,-167.53"/>
</a>
</g>
</g>
<!-- Node21 -->
<g id="Node000021" class="node">
<title>Node21</title>
<g id="a_Node000021"><a xlink:href="../../df/d0a/str-l_8h.html#a963c22b229774d4b7c106bae4011cb8e" target="_top" xlink:title="Returns whether \v s1 and \v s2 contents are equal.">
<polygon fill="white" stroke="#666666" points="1459.5,-47.62 1401.5,-47.62 1401.5,-28.38 1459.5,-28.38 1459.5,-47.62"/>
<text text-anchor="middle" x="1430.5" y="-34.12" font-family="Helvetica,sans-Serif" font-size="10.00">lstr_equal</text>
</a>
</g>
</g>
<!-- Node7&#45;&gt;Node21 -->
<g id="edge23_Node000007_Node000021" class="edge">
<title>Node7&#45;&gt;Node21</title>
<g id="a_edge23_Node000007_Node000021"><a xlink:title=" ">
<path fill="none" stroke="#63b8ff" d="M1317.78,-120.96C1322.5,-118.78 1327.05,-116.16 1331,-113 1354.42,-94.3 1343.04,-73.99 1367,-56 1373.77,-50.92 1381.93,-47.27 1390.09,-44.65"/>
<polygon fill="#63b8ff" stroke="#63b8ff" points="1390.88,-48.06 1399.62,-42.07 1389.05,-41.31 1390.88,-48.06"/>
</a>
</g>
</g>
<!-- Node9 -->
<g id="Node000009" class="node">
<title>Node9</title>
<g id="a_Node000009"><a xlink:href="../../de/d1a/container-dlist_8h.html#a71e7667ca0e4b896923788c5851afd24" target="_top" xlink:title="Put element e between prev and next.">
<polygon fill="white" stroke="#666666" points="1606.75,-84.62 1541.25,-84.62 1541.25,-65.38 1606.75,-65.38 1606.75,-84.62"/>
<text text-anchor="middle" x="1574" y="-71.12" font-family="Helvetica,sans-Serif" font-size="10.00">__dlist_add</text>
</a>
</g>
</g>
<!-- Node8&#45;&gt;Node9 -->
<g id="edge9_Node000008_Node000009" class="edge">
<title>Node8&#45;&gt;Node9</title>
<g id="a_edge9_Node000008_Node000009"><a xlink:title=" ">
<path fill="none" stroke="#63b8ff" d="M1458.45,-75C1478.55,-75 1506.42,-75 1529.64,-75"/>
<polygon fill="#63b8ff" stroke="#63b8ff" points="1529.44,-78.5 1539.44,-75 1529.44,-71.5 1529.44,-78.5"/>
</a>
</g>
</g>
<!-- Node12 -->
<g id="Node000012" class="node">
<title>Node12</title>
<g id="a_Node000012"><a xlink:href="../../df/d0a/str-l_8h.html#a6a200ca09358f19b13a8e297cda34869" target="_top" xlink:title="returns a constant copy of \v s.">
<polygon fill="white" stroke="#666666" points="1601.88,-216.62 1546.12,-216.62 1546.12,-197.38 1601.88,-197.38 1601.88,-216.62"/>
<text text-anchor="middle" x="1574" y="-203.12" font-family="Helvetica,sans-Serif" font-size="10.00">lstr_dupc</text>
</a>
</g>
</g>
<!-- Node11&#45;&gt;Node12 -->
<g id="edge12_Node000011_Node000012" class="edge">
<title>Node11&#45;&gt;Node12</title>
<g id="a_edge12_Node000011_Node000012"><a xlink:title=" ">
<path fill="none" stroke="#63b8ff" d="M1494.39,-196.44C1508.04,-198.28 1522.08,-200.16 1534.45,-201.82"/>
<polygon fill="#63b8ff" stroke="#63b8ff" points="1533.86,-205.28 1544.24,-203.14 1534.79,-198.34 1533.86,-205.28"/>
</a>
</g>
</g>
<!-- Node11&#45;&gt;Node14 -->
<g id="edge14_Node000011_Node000014" class="edge">
<title>Node11&#45;&gt;Node14</title>
<g id="a_edge14_Node000011_Node000014"><a xlink:title=" ">
<path fill="none" stroke="#63b8ff" d="M1494.39,-179.56C1508.15,-177.71 1522.31,-175.81 1534.76,-174.14"/>
<polygon fill="#63b8ff" stroke="#63b8ff" points="1535.15,-177.61 1544.59,-172.81 1534.22,-170.68 1535.15,-177.61"/>
</a>
</g>
</g>
<!-- Node13 -->
<g id="Node000013" class="node">
<title>Node13</title>
<g id="a_Node000013"><a xlink:href="../../df/d0a/str-l_8h.html#a3b4dbe9c4cc70340cba0787574dc1c5e" target="_top" xlink:title=" ">
<polygon fill="white" stroke="#666666" points="1931.5,-216.62 1878.75,-216.62 1878.75,-197.38 1931.5,-197.38 1931.5,-216.62"/>
<text text-anchor="middle" x="1905.12" y="-203.12" font-family="Helvetica,sans-Serif" font-size="10.00">lstr_init_</text>
</a>
</g>
</g>
<!-- Node12&#45;&gt;Node13 -->
<g id="edge13_Node000012_Node000013" class="edge">
<title>Node12&#45;&gt;Node13</title>
<g id="a_edge13_Node000012_Node000013"><a xlink:title=" ">
<path fill="none" stroke="#63b8ff" d="M1602.21,-207C1661.06,-207 1800.19,-207 1867.03,-207"/>
<polygon fill="#63b8ff" stroke="#63b8ff" points="1866.74,-210.5 1876.74,-207 1866.74,-203.5 1866.74,-210.5"/>
</a>
</g>
</g>
<!-- Node15 -->
<g id="Node000015" class="node">
<title>Node15</title>
<g id="a_Node000015"><a xlink:href="../../df/d0a/str-l_8h.html#a381cd831ac9616c5bea8213bb679d1ac" target="_top" xlink:title="Wipe a lstr_t (frees memory if needed).">
<polygon fill="white" stroke="#666666" points="1727.75,-178.62 1654,-178.62 1654,-159.38 1727.75,-159.38 1727.75,-178.62"/>
<text text-anchor="middle" x="1690.88" y="-165.12" font-family="Helvetica,sans-Serif" font-size="10.00">mp_lstr_wipe</text>
</a>
</g>
</g>
<!-- Node14&#45;&gt;Node15 -->
<g id="edge15_Node000014_Node000015" class="edge">
<title>Node14&#45;&gt;Node15</title>
<g id="a_edge15_Node000014_Node000015"><a xlink:title=" ">
<path fill="none" stroke="#63b8ff" d="M1601.93,-169C1613.95,-169 1628.48,-169 1642.24,-169"/>
<polygon fill="#63b8ff" stroke="#63b8ff" points="1642.03,-172.5 1652.03,-169 1642.03,-165.5 1642.03,-172.5"/>
</a>
</g>
</g>
<!-- Node16 -->
<g id="Node000016" class="node">
<title>Node16</title>
<g id="a_Node000016"><a xlink:href="../../de/d04/str-l_8c.html#abe2a3a71f0b4dbc7d37c59d16762b6fb" target="_top" xlink:title="lstr_copy_* helper.">
<polygon fill="white" stroke="#666666" points="1842.75,-178.62 1763.75,-178.62 1763.75,-159.38 1842.75,-159.38 1842.75,-178.62"/>
<text text-anchor="middle" x="1803.25" y="-165.12" font-family="Helvetica,sans-Serif" font-size="10.00">mp_lstr_copy_</text>
</a>
</g>
</g>
<!-- Node15&#45;&gt;Node16 -->
<g id="edge16_Node000015_Node000016" class="edge">
<title>Node15&#45;&gt;Node16</title>
<g id="a_edge16_Node000015_Node000016"><a xlink:title=" ">
<path fill="none" stroke="#63b8ff" d="M1728.02,-169C1735.71,-169 1743.96,-169 1752.07,-169"/>
<polygon fill="#63b8ff" stroke="#63b8ff" points="1751.85,-172.5 1761.85,-169 1751.85,-165.5 1751.85,-172.5"/>
</a>
</g>
</g>
<!-- Node16&#45;&gt;Node13 -->
<g id="edge22_Node000016_Node000013" class="edge">
<title>Node16&#45;&gt;Node13</title>
<g id="a_edge22_Node000016_Node000013"><a xlink:title=" ">
<path fill="none" stroke="#63b8ff" d="M1830.75,-179.08C1842.19,-183.44 1855.76,-188.6 1868.1,-193.29"/>
<polygon fill="#63b8ff" stroke="#63b8ff" points="1866.53,-196.44 1877.12,-196.73 1869.02,-189.9 1866.53,-196.44"/>
</a>
</g>
</g>
<!-- Node17 -->
<g id="Node000017" class="node">
<title>Node17</title>
<g id="a_Node000017"><a xlink:href="../../d9/d9a/mem_8h.html#aebbbd277e2952bdb802104671ba23ba9" target="_top" xlink:title=" ">
<polygon fill="white" stroke="#666666" points="1922.5,-178.62 1887.75,-178.62 1887.75,-159.38 1922.5,-159.38 1922.5,-178.62"/>
<text text-anchor="middle" x="1905.12" y="-165.12" font-family="Helvetica,sans-Serif" font-size="10.00">ifree</text>
</a>
</g>
</g>
<!-- Node16&#45;&gt;Node17 -->
<g id="edge17_Node000016_Node000017" class="edge">
<title>Node16&#45;&gt;Node17</title>
<g id="a_edge17_Node000016_Node000017"><a xlink:title=" ">
<path fill="none" stroke="#63b8ff" d="M1843.15,-169C1854.05,-169 1865.7,-169 1875.85,-169"/>
<polygon fill="#63b8ff" stroke="#63b8ff" points="1875.85,-172.5 1885.85,-169 1875.85,-165.5 1875.85,-172.5"/>
</a>
</g>
</g>
<!-- Node18 -->
<g id="Node000018" class="node">
<title>Node18</title>
<g id="a_Node000018"><a xlink:href="../../d8/d37/mem_8blk.html#a36b65ab346f1d0deed7b63c544c78f2b" target="_top" xlink:title=" ">
<polygon fill="white" stroke="#666666" points="2012.38,-122.62 1976.12,-122.62 1976.12,-103.38 2012.38,-103.38 2012.38,-122.62"/>
<text text-anchor="middle" x="1994.25" y="-109.12" font-family="Helvetica,sans-Serif" font-size="10.00">ipool</text>
</a>
</g>
</g>
<!-- Node17&#45;&gt;Node18 -->
<g id="edge18_Node000017_Node000018" class="edge">
<title>Node17&#45;&gt;Node18</title>
<g id="a_edge18_Node000017_Node000018"><a xlink:title=" ">
<path fill="none" stroke="#63b8ff" d="M1921.7,-158.99C1934.51,-150.76 1952.91,-138.93 1967.84,-129.33"/>
<polygon fill="#63b8ff" stroke="#63b8ff" points="1969.72,-132.28 1976.24,-123.93 1965.94,-126.39 1969.72,-132.28"/>
</a>
</g>
</g>
<!-- Node17&#45;&gt;Node20 -->
<g id="edge21_Node000017_Node000020" class="edge">
<title>Node17&#45;&gt;Node20</title>
<g id="a_edge21_Node000017_Node000020"><a xlink:title=" ">
<path fill="none" stroke="#63b8ff" d="M1921.7,-179.01C1934.51,-187.24 1952.91,-199.07 1967.84,-208.67"/>
<polygon fill="#63b8ff" stroke="#63b8ff" points="1965.94,-211.61 1976.24,-214.07 1969.72,-205.72 1965.94,-211.61"/>
</a>
</g>
</g>
<!-- Node18&#45;&gt;Node5 -->
<g id="edge19_Node000018_Node000005" class="edge">
<title>Node18&#45;&gt;Node5</title>
<g id="a_edge19_Node000018_Node000005"><a xlink:title=" ">
<path fill="none" stroke="#63b8ff" d="M1984.56,-102.97C1959.56,-75.32 1884.15,0 1804.25,0 1278.12,0 1278.12,0 1278.12,0 1190.1,0 1161.44,-26.94 1103.25,-93 1073.41,-126.88 1089.22,-148.55 1067.25,-188 1063.53,-194.67 1058.73,-201.45 1054.11,-207.4"/>
<polygon fill="#63b8ff" stroke="#63b8ff" points="1051.72,-204.79 1048.11,-214.75 1057.14,-209.21 1051.72,-204.79"/>
</a>
</g>
</g>
<!-- Node19 -->
<g id="Node000019" class="node">
<title>Node19</title>
<g id="a_Node000019"><a xlink:href="../../d1/d10/mem-stack_8h.html#a1d0e2a29f86dc033a02e50484b527fd0" target="_top" xlink:title=" ">
<polygon fill="white" stroke="#666666" points="2099.25,-122.62 2057,-122.62 2057,-103.38 2099.25,-103.38 2099.25,-122.62"/>
<text text-anchor="middle" x="2078.12" y="-109.12" font-family="Helvetica,sans-Serif" font-size="10.00">t_pool</text>
</a>
</g>
</g>
<!-- Node18&#45;&gt;Node19 -->
<g id="edge20_Node000018_Node000019" class="edge">
<title>Node18&#45;&gt;Node19</title>
<g id="a_edge20_Node000018_Node000019"><a xlink:title=" ">
<path fill="none" stroke="#63b8ff" d="M2012.61,-113C2022.06,-113 2034.04,-113 2045.11,-113"/>
<polygon fill="#63b8ff" stroke="#63b8ff" points="2045.09,-116.5 2055.09,-113 2045.09,-109.5 2045.09,-116.5"/>
</a>
</g>
</g>
<!-- Node24&#45;&gt;Node12 -->
<g id="edge31_Node000024_Node000012" class="edge">
<title>Node24&#45;&gt;Node12</title>
<g id="a_edge31_Node000024_Node000012"><a xlink:title=" ">
<path fill="none" stroke="#63b8ff" d="M1180.18,-224.57C1256.86,-221.14 1451.2,-212.45 1534.33,-208.73"/>
<polygon fill="#63b8ff" stroke="#63b8ff" points="1534.41,-212.23 1544.24,-208.29 1534.1,-205.24 1534.41,-212.23"/>
</a>
</g>
</g>
<!-- Node25 -->
<g id="Node000025" class="node">
<title>Node25</title>
<g id="a_Node000025"><a xlink:href="../../d1/dc0/group__log.html#ga168a6f17b248f61f7d25a17d58d04e36" target="_top" xlink:title=" ">
<polygon fill="white" stroke="#666666" points="1323.5,-273.62 1234.75,-273.62 1234.75,-254.38 1323.5,-254.38 1323.5,-273.62"/>
<text text-anchor="middle" x="1279.12" y="-260.12" font-family="Helvetica,sans-Serif" font-size="10.00">logger_has_level</text>
</a>
</g>
</g>
<!-- Node24&#45;&gt;Node25 -->
<g id="edge28_Node000024_Node000025" class="edge">
<title>Node24&#45;&gt;Node25</title>
<g id="a_edge28_Node000024_Node000025"><a xlink:title=" ">
<path fill="none" stroke="#63b8ff" d="M1180.35,-235.39C1196.13,-240.01 1215.41,-245.65 1232.67,-250.7"/>
<polygon fill="#63b8ff" stroke="#63b8ff" points="1231.63,-254.04 1242.21,-253.49 1233.59,-247.32 1231.63,-254.04"/>
</a>
</g>
</g>
<!-- Node26 -->
<g id="Node000026" class="node">
<title>Node26</title>
<g id="a_Node000026"><a xlink:href="../../d1/dc0/group__log.html#gaf388752b988541da0abeceecdf96e6b3" target="_top" xlink:title=" ">
<polygon fill="white" stroke="#666666" points="1473.75,-273.62 1387.25,-273.62 1387.25,-254.38 1473.75,-254.38 1473.75,-273.62"/>
<text text-anchor="middle" x="1430.5" y="-260.12" font-family="Helvetica,sans-Serif" font-size="10.00">logger_get_level</text>
</a>
</g>
</g>
<!-- Node25&#45;&gt;Node26 -->
<g id="edge29_Node000025_Node000026" class="edge">
<title>Node25&#45;&gt;Node26</title>
<g id="a_edge29_Node000025_Node000026"><a xlink:title=" ">
<path fill="none" stroke="#63b8ff" d="M1323.73,-264C1339.89,-264 1358.42,-264 1375.4,-264"/>
<polygon fill="#63b8ff" stroke="#63b8ff" points="1375.36,-267.5 1385.36,-264 1375.36,-260.5 1375.36,-267.5"/>
</a>
</g>
</g>
<!-- Node27 -->
<g id="Node000027" class="node">
<title>Node27</title>
<g id="a_Node000027"><a xlink:href="../../d1/dc0/group__log.html#ga93cbd623096e1704532d15b3eb30e42f" target="_top" xlink:title=" ">
<polygon fill="white" stroke="#666666" points="1618,-273.62 1530,-273.62 1530,-254.38 1618,-254.38 1618,-273.62"/>
<text text-anchor="middle" x="1574" y="-260.12" font-family="Helvetica,sans-Serif" font-size="10.00">__logger_refresh</text>
</a>
</g>
</g>
<!-- Node26&#45;&gt;Node27 -->
<g id="edge30_Node000026_Node000027" class="edge">
<title>Node26&#45;&gt;Node27</title>
<g id="a_edge30_Node000026_Node000027"><a xlink:title=" ">
<path fill="none" stroke="#63b8ff" d="M1473.95,-264C1487.83,-264 1503.44,-264 1518.1,-264"/>
<polygon fill="#63b8ff" stroke="#63b8ff" points="1518.08,-267.5 1528.08,-264 1518.08,-260.5 1518.08,-267.5"/>
</a>
</g>
</g>
<!-- Node30 -->
<g id="Node000030" class="node">
<title>Node30</title>
<g id="a_Node000030"><a xlink:href="../../d8/d37/mem_8blk.html#a5666a1403bcf2bd8e114c23f8021d1ac" target="_top" xlink:title=" ">
<polygon fill="white" stroke="#666666" points="814.38,-197.62 738.38,-197.62 738.38,-178.38 814.38,-178.38 814.38,-197.62"/>
<text text-anchor="middle" x="776.38" y="-184.12" font-family="Helvetica,sans-Serif" font-size="10.00">__mp_imalloc</text>
</a>
</g>
</g>
<!-- Node29&#45;&gt;Node30 -->
<g id="edge35_Node000029_Node000030" class="edge">
<title>Node29&#45;&gt;Node30</title>
<g id="a_edge35_Node000029_Node000030"><a xlink:title=" ">
<path fill="none" stroke="#63b8ff" d="M677.32,-188C692.26,-188 710.33,-188 726.86,-188"/>
<polygon fill="#63b8ff" stroke="#63b8ff" points="726.5,-191.5 736.5,-188 726.5,-184.5 726.5,-191.5"/>
</a>
</g>
</g>
<!-- Node29&#45;&gt;Node33 -->
<g id="edge39_Node000029_Node000033" class="edge">
<title>Node29&#45;&gt;Node33</title>
<g id="a_edge39_Node000029_Node000033"><a xlink:title=" ">
<path fill="none" stroke="#63b8ff" d="M656.68,-177.88C678.95,-158.4 728.01,-115.46 755.57,-91.33"/>
<polygon fill="#63b8ff" stroke="#63b8ff" points="757.67,-94.15 762.89,-84.93 753.06,-88.88 757.67,-94.15"/>
</a>
</g>
</g>
<!-- Node30&#45;&gt;Node4 -->
<g id="edge36_Node000030_Node000004" class="edge">
<title>Node30&#45;&gt;Node4</title>
<g id="a_edge36_Node000030_Node000004"><a xlink:title=" ">
<path fill="none" stroke="#63b8ff" d="M814.55,-197.98C832.76,-202.87 854.83,-208.8 873.97,-213.94"/>
<polygon fill="#63b8ff" stroke="#63b8ff" points="872.83,-217.26 883.39,-216.47 874.64,-210.5 872.83,-217.26"/>
</a>
</g>
</g>
<!-- Node31 -->
<g id="Node000031" class="node">
<title>Node31</title>
<g id="a_Node000031"><a xlink:href="../../d9/d9a/mem_8h.html#af42ab5c21de0c723b2a55403e5441fda" target="_top" xlink:title=" ">
<polygon fill="white" stroke="#666666" points="959.38,-178.62 880.38,-178.62 880.38,-159.38 959.38,-159.38 959.38,-178.62"/>
<text text-anchor="middle" x="919.88" y="-165.12" font-family="Helvetica,sans-Serif" font-size="10.00">mem_bit_align</text>
</a>
</g>
</g>
<!-- Node30&#45;&gt;Node31 -->
<g id="edge37_Node000030_Node000031" class="edge">
<title>Node30&#45;&gt;Node31</title>
<g id="a_edge37_Node000030_Node000031"><a xlink:title=" ">
<path fill="none" stroke="#63b8ff" d="M814.55,-183.01C831.08,-180.79 850.78,-178.14 868.59,-175.75"/>
<polygon fill="#63b8ff" stroke="#63b8ff" points="869.02,-179.23 878.47,-174.43 868.09,-172.29 869.02,-179.23"/>
</a>
</g>
</g>
<!-- Node32 -->
<g id="Node000032" class="node">
<title>Node32</title>
<g id="a_Node000032"><a xlink:href="../../d8/d96/bithacks_8h.html#ab80588fa9f8b9e766249edaf70558bdc" target="_top" xlink:title=" ">
<polygon fill="white" stroke="#666666" points="1067.25,-178.62 1007,-178.62 1007,-159.38 1067.25,-159.38 1067.25,-178.62"/>
<text text-anchor="middle" x="1037.12" y="-165.12" font-family="Helvetica,sans-Serif" font-size="10.00">bitcountsz</text>
</a>
</g>
</g>
<!-- Node31&#45;&gt;Node32 -->
<g id="edge38_Node000031_Node000032" class="edge">
<title>Node31&#45;&gt;Node32</title>
<g id="a_edge38_Node000031_Node000032"><a xlink:title=" ">
<path fill="none" stroke="#63b8ff" d="M959.57,-169C971.15,-169 983.87,-169 995.56,-169"/>
<polygon fill="#63b8ff" stroke="#63b8ff" points="995.31,-172.5 1005.31,-169 995.31,-165.5 995.31,-172.5"/>
</a>
</g>
</g>
<!-- Node34 -->
<g id="Node000034" class="node">
<title>Node34</title>
<g id="a_Node000034"><a xlink:href="../../d8/d37/mem_8blk.html#a377e36d6fbaf3ee7f1b217559cb0c850" target="_top" xlink:title=" ">
<polygon fill="white" stroke="#666666" points="971,-83.62 868.75,-83.62 868.75,-64.38 971,-64.38 971,-83.62"/>
<text text-anchor="middle" x="919.88" y="-70.12" font-family="Helvetica,sans-Serif" font-size="10.00">__imalloc_too_large</text>
</a>
</g>
</g>
<!-- Node33&#45;&gt;Node34 -->
<g id="edge40_Node000033_Node000034" class="edge">
<title>Node33&#45;&gt;Node34</title>
<g id="a_edge40_Node000033_Node000034"><a xlink:title=" ">
<path fill="none" stroke="#63b8ff" d="M832.89,-74C840.89,-74 849.16,-74 857.27,-74"/>
<polygon fill="#63b8ff" stroke="#63b8ff" points="857.07,-77.5 867.07,-74 857.07,-70.5 857.07,-77.5"/>
</a>
</g>
</g>
<!-- Node35&#45;&gt;Node33 -->
<g id="edge47_Node000035_Node000033" class="edge">
<title>Node35&#45;&gt;Node33</title>
<g id="a_edge47_Node000035_Node000033"><a xlink:title=" ">
<path fill="none" stroke="#63b8ff" d="M450.56,-139.95C485.15,-127.02 548.36,-104.84 604.25,-93 638.24,-85.8 676.64,-81.22 708.44,-78.37"/>
<polygon fill="#63b8ff" stroke="#63b8ff" points="708.66,-81.86 718.32,-77.52 708.06,-74.88 708.66,-81.86"/>
</a>
</g>
</g>
<!-- Node36 -->
<g id="Node000036" class="node">
<title>Node36</title>
<g id="a_Node000036"><a xlink:href="../../d8/d37/mem_8blk.html#aa4f4b48947d5dfb44c0897f6024ba16e" target="_top" xlink:title=" ">
<polygon fill="white" stroke="#666666" points="568.25,-159.62 492.25,-159.62 492.25,-140.38 568.25,-140.38 568.25,-159.62"/>
<text text-anchor="middle" x="530.25" y="-146.12" font-family="Helvetica,sans-Serif" font-size="10.00">__mp_irealloc</text>
</a>
</g>
</g>
<!-- Node35&#45;&gt;Node36 -->
<g id="edge42_Node000035_Node000036" class="edge">
<title>Node35&#45;&gt;Node36</title>
<g id="a_edge42_Node000035_Node000036"><a xlink:title=" ">
<path fill="none" stroke="#63b8ff" d="M456.5,-150C464.1,-150 472.39,-150 480.56,-150"/>
<polygon fill="#63b8ff" stroke="#63b8ff" points="480.42,-153.5 490.42,-150 480.42,-146.5 480.42,-153.5"/>
</a>
</g>
</g>
<!-- Node36&#45;&gt;Node4 -->
<g id="edge43_Node000036_Node000004" class="edge">
<title>Node36&#45;&gt;Node4</title>
<g id="a_edge43_Node000036_Node000004"><a xlink:title=" ">
<path fill="none" stroke="#63b8ff" d="M540,-159.83C552.64,-173.27 577.48,-196.87 604.25,-207 694.84,-241.26 810.55,-237.23 873.35,-231.48"/>
<polygon fill="#63b8ff" stroke="#63b8ff" points="873.32,-235 882.93,-230.54 872.64,-228.03 873.32,-235"/>
</a>
</g>
</g>
<!-- Node36&#45;&gt;Node29 -->
<g id="edge46_Node000036_Node000029" class="edge">
<title>Node36&#45;&gt;Node29</title>
<g id="a_edge46_Node000036_Node000029"><a xlink:title=" ">
<path fill="none" stroke="#63b8ff" d="M560.94,-160.08C573.81,-164.46 589.08,-169.64 602.94,-174.35"/>
<polygon fill="#63b8ff" stroke="#63b8ff" points="601.66,-177.61 612.25,-177.51 603.91,-170.98 601.66,-177.61"/>
</a>
</g>
</g>
<!-- Node36&#45;&gt;Node31 -->
<g id="edge45_Node000036_Node000031" class="edge">
<title>Node36&#45;&gt;Node31</title>
<g id="a_edge45_Node000036_Node000031"><a xlink:title=" ">
<path fill="none" stroke="#63b8ff" d="M568.42,-151.82C638.49,-155.26 790.17,-162.69 869.02,-166.56"/>
<polygon fill="#63b8ff" stroke="#63b8ff" points="868.43,-170.03 878.59,-167.03 868.77,-163.04 868.43,-170.03"/>
</a>
</g>
</g>
<!-- Node37 -->
<g id="Node000037" class="node">
<title>Node37</title>
<g id="a_Node000037"><a xlink:href="../../d9/d9a/mem_8h.html#a97bf9c8331ed73f6c120224fb5e9a8b6" target="_top" xlink:title=" ">
<polygon fill="white" stroke="#666666" points="684,-121.62 604.25,-121.62 604.25,-102.38 684,-102.38 684,-121.62"/>
<text text-anchor="middle" x="644.12" y="-108.12" font-family="Helvetica,sans-Serif" font-size="10.00">mem_align_ptr</text>
</a>
</g>
</g>
<!-- Node36&#45;&gt;Node37 -->
<g id="edge44_Node000036_Node000037" class="edge">
<title>Node36&#45;&gt;Node37</title>
<g id="a_edge44_Node000036_Node000037"><a xlink:title=" ">
<path fill="none" stroke="#63b8ff" d="M560.94,-139.92C573.81,-135.54 589.08,-130.36 602.94,-125.65"/>
<polygon fill="#63b8ff" stroke="#63b8ff" points="603.91,-129.02 612.25,-122.49 601.66,-122.39 603.91,-129.02"/>
</a>
</g>
</g>
</g>
</svg>
