<?xml version="1.0" encoding="UTF-8" standalone="no"?>
<!DOCTYPE svg PUBLIC "-//W3C//DTD SVG 1.1//EN"
 "http://www.w3.org/Graphics/SVG/1.1/DTD/svg11.dtd">
<!-- Generated by graphviz version 9.0.0 (20230911.1827)
 -->
<!-- Title: str&#45;buf&#45;quoting.c Pages: 1 -->
<svg width="341pt" height="94pt"
 viewBox="0.00 0.00 341.38 93.75" xmlns="http://www.w3.org/2000/svg" xmlns:xlink="http://www.w3.org/1999/xlink">
<g id="graph0" class="graph" transform="scale(1 1) rotate(0) translate(4 89.75)">
<title>str&#45;buf&#45;quoting.c</title>
<!-- Node1 -->
<g id="Node000001" class="node">
<title>Node1</title>
<g id="a_Node000001"><a xlink:title=" ">
<polygon fill="#999999" stroke="#666666" points="210.62,-85.75 124.88,-85.75 124.88,-66.5 210.62,-66.5 210.62,-85.75"/>
<text text-anchor="middle" x="167.75" y="-72.25" font-family="Helvetica,sans-Serif" font-size="10.00">str&#45;buf&#45;quoting.c</text>
</a>
</g>
</g>
<!-- Node2 -->
<g id="Node000002" class="node">
<title>Node2</title>
<g id="a_Node000002"><a xlink:title=" ">
<polygon fill="#e0e0e0" stroke="#999999" points="95.5,-24.88 0,-24.88 0,-5.63 95.5,-5.63 95.5,-24.88"/>
<text text-anchor="middle" x="47.75" y="-11.38" font-family="Helvetica,sans-Serif" font-size="10.00">lib&#45;common/core.h</text>
</a>
</g>
</g>
<!-- Node1&#45;&gt;Node2 -->
<g id="edge1_Node000001_Node000002" class="edge">
<title>Node1&#45;&gt;Node2</title>
<g id="a_edge1_Node000001_Node000002"><a xlink:title=" ">
<path fill="none" stroke="#63b8ff" d="M149.26,-66.05C129.74,-56.48 98.71,-41.25 76.1,-30.16"/>
<polygon fill="#63b8ff" stroke="#63b8ff" points="77.94,-27.16 67.42,-25.9 74.86,-33.45 77.94,-27.16"/>
</a>
</g>
</g>
<!-- Node3 -->
<g id="Node000003" class="node">
<title>Node3</title>
<g id="a_Node000003"><a xlink:title=" ">
<polygon fill="#e0e0e0" stroke="#999999" points="222.25,-30.5 113.25,-30.5 113.25,0 222.25,0 222.25,-30.5"/>
<text text-anchor="start" x="121.25" y="-17" font-family="Helvetica,sans-Serif" font-size="10.00">lib&#45;common/container</text>
<text text-anchor="middle" x="167.75" y="-5.75" font-family="Helvetica,sans-Serif" font-size="10.00">&#45;qvector.h</text>
</a>
</g>
</g>
<!-- Node1&#45;&gt;Node3 -->
<g id="edge2_Node000001_Node000003" class="edge">
<title>Node1&#45;&gt;Node3</title>
<g id="a_edge2_Node000001_Node000003"><a xlink:title=" ">
<path fill="none" stroke="#63b8ff" d="M167.75,-66.18C167.75,-59.73 167.75,-50.66 167.75,-42.01"/>
<polygon fill="#63b8ff" stroke="#63b8ff" points="171.25,-42.3 167.75,-32.3 164.25,-42.3 171.25,-42.3"/>
</a>
</g>
</g>
<!-- Node4 -->
<g id="Node000004" class="node">
<title>Node4</title>
<g id="a_Node000004"><a xlink:title=" ">
<polygon fill="#e0e0e0" stroke="#999999" points="333.38,-24.88 240.12,-24.88 240.12,-5.63 333.38,-5.63 333.38,-24.88"/>
<text text-anchor="middle" x="286.75" y="-11.38" font-family="Helvetica,sans-Serif" font-size="10.00">lib&#45;common/sort.h</text>
</a>
</g>
</g>
<!-- Node1&#45;&gt;Node4 -->
<g id="edge3_Node000001_Node000004" class="edge">
<title>Node1&#45;&gt;Node4</title>
<g id="a_edge3_Node000001_Node000004"><a xlink:title=" ">
<path fill="none" stroke="#63b8ff" d="M186.08,-66.05C205.36,-56.52 235.93,-41.39 258.34,-30.31"/>
<polygon fill="#63b8ff" stroke="#63b8ff" points="259.82,-33.48 267.23,-25.91 256.72,-27.2 259.82,-33.48"/>
</a>
</g>
</g>
</g>
</svg>
