<?xml version="1.0" encoding="UTF-8" standalone="no"?>
<!DOCTYPE svg PUBLIC "-//W3C//DTD SVG 1.1//EN"
 "http://www.w3.org/Graphics/SVG/1.1/DTD/svg11.dtd">
<!-- Generated by graphviz version 9.0.0 (20230911.1827)
 -->
<!-- Title: iop_dso_find_type Pages: 1 -->
<svg width="443pt" height="139pt"
 viewBox="0.00 0.00 442.50 139.25" xmlns="http://www.w3.org/2000/svg" xmlns:xlink="http://www.w3.org/1999/xlink">
<g id="graph0" class="graph" transform="scale(1 1) rotate(0) translate(4 135.25)">
<title>iop_dso_find_type</title>
<!-- Node1 -->
<g id="Node000001" class="node">
<title>Node1</title>
<g id="a_Node000001"><a xlink:title=" ">
<polygon fill="#999999" stroke="#666666" points="93.25,-74.25 0,-74.25 0,-55 93.25,-55 93.25,-74.25"/>
<text text-anchor="middle" x="46.62" y="-60.75" font-family="Helvetica,sans-Serif" font-size="10.00">iop_dso_find_type</text>
</a>
</g>
</g>
<!-- Node2 -->
<g id="Node000002" class="node">
<title>Node2</title>
<g id="a_Node000002"><a xlink:href="../../d7/dc8/dso_8c.html#a110a31677bd4109a97101376494fe4af" target="_top" xlink:title=" ">
<polygon fill="white" stroke="#666666" points="340.5,-131.25 251.75,-131.25 251.75,-112 340.5,-112 340.5,-131.25"/>
<text text-anchor="middle" x="296.12" y="-117.75" font-family="Helvetica,sans-Serif" font-size="10.00">find_rpc_in_iface</text>
</a>
</g>
</g>
<!-- Node1&#45;&gt;Node2 -->
<g id="edge1_Node000001_Node000002" class="edge">
<title>Node1&#45;&gt;Node2</title>
<g id="a_edge1_Node000001_Node000002"><a xlink:title=" ">
<path fill="none" stroke="#63b8ff" d="M64.83,-74.63C80.93,-83.51 105.93,-96.05 129.25,-102.62 165.44,-112.83 207.54,-117.57 240.27,-119.77"/>
<polygon fill="#63b8ff" stroke="#63b8ff" points="239.72,-123.24 249.92,-120.35 240.15,-116.25 239.72,-123.24"/>
</a>
</g>
</g>
<!-- Node4 -->
<g id="Node000004" class="node">
<title>Node4</title>
<g id="a_Node000004"><a xlink:href="../../d7/dc8/dso_8c.html#aebb7e584b7a39387e5dea01aeb2a2ee0" target="_top" xlink:title=" ">
<polygon fill="white" stroke="#666666" points="215.75,-93.25 129.25,-93.25 129.25,-74 215.75,-74 215.75,-93.25"/>
<text text-anchor="middle" x="172.5" y="-79.75" font-family="Helvetica,sans-Serif" font-size="10.00">find_rpc_in_mod</text>
</a>
</g>
</g>
<!-- Node1&#45;&gt;Node4 -->
<g id="edge3_Node000001_Node000004" class="edge">
<title>Node1&#45;&gt;Node4</title>
<g id="a_edge3_Node000001_Node000004"><a xlink:title=" ">
<path fill="none" stroke="#63b8ff" d="M93.4,-71.65C101.27,-72.85 109.51,-74.12 117.57,-75.35"/>
<polygon fill="#63b8ff" stroke="#63b8ff" points="116.88,-78.79 127.29,-76.84 117.94,-71.87 116.88,-78.79"/>
</a>
</g>
</g>
<!-- Node5 -->
<g id="Node000005" class="node">
<title>Node5</title>
<g id="a_Node000005"><a xlink:href="../../df/d0a/str-l_8h.html#a09b3864d863f462547f007bfcb5e6091" target="_top" xlink:title="Returns whether s ends with p.">
<polygon fill="white" stroke="#666666" points="209.38,-56.25 135.62,-56.25 135.62,-37 209.38,-37 209.38,-56.25"/>
<text text-anchor="middle" x="172.5" y="-42.75" font-family="Helvetica,sans-Serif" font-size="10.00">lstr_endswith</text>
</a>
</g>
</g>
<!-- Node1&#45;&gt;Node5 -->
<g id="edge6_Node000001_Node000005" class="edge">
<title>Node1&#45;&gt;Node5</title>
<g id="a_edge6_Node000001_Node000005"><a xlink:title=" ">
<path fill="none" stroke="#63b8ff" d="M93.4,-57.97C103.41,-56.52 114.04,-54.97 124.11,-53.51"/>
<polygon fill="#63b8ff" stroke="#63b8ff" points="124.31,-57.02 133.7,-52.12 123.3,-50.09 124.31,-57.02"/>
</a>
</g>
</g>
<!-- Node6 -->
<g id="Node000006" class="node">
<title>Node6</title>
<g id="a_Node000006"><a xlink:href="../../d9/d9a/mem_8h.html#a2802b921775732b82e8bdd44313fe24a" target="_top" xlink:title=" ">
<polygon fill="white" stroke="#666666" points="199.62,-19.25 145.38,-19.25 145.38,0 199.62,0 199.62,-19.25"/>
<text text-anchor="middle" x="172.5" y="-5.75" font-family="Helvetica,sans-Serif" font-size="10.00">memrchr</text>
</a>
</g>
</g>
<!-- Node1&#45;&gt;Node6 -->
<g id="edge7_Node000001_Node000006" class="edge">
<title>Node1&#45;&gt;Node6</title>
<g id="a_edge7_Node000001_Node000006"><a xlink:title=" ">
<path fill="none" stroke="#63b8ff" d="M69.39,-54.6C85.8,-47.07 108.88,-36.58 129.25,-27.62 131.87,-26.47 134.58,-25.29 137.31,-24.11"/>
<polygon fill="#63b8ff" stroke="#63b8ff" points="138.57,-27.38 146.38,-20.22 135.81,-20.95 138.57,-27.38"/>
</a>
</g>
</g>
<!-- Node3 -->
<g id="Node000003" class="node">
<title>Node3</title>
<g id="a_Node000003"><a xlink:href="../../df/d0a/str-l_8h.html#a963c22b229774d4b7c106bae4011cb8e" target="_top" xlink:title="Returns whether \v s1 and \v s2 contents are equal.">
<polygon fill="white" stroke="#666666" points="434.5,-112.25 376.5,-112.25 376.5,-93 434.5,-93 434.5,-112.25"/>
<text text-anchor="middle" x="405.5" y="-98.75" font-family="Helvetica,sans-Serif" font-size="10.00">lstr_equal</text>
</a>
</g>
</g>
<!-- Node2&#45;&gt;Node3 -->
<g id="edge2_Node000002_Node000003" class="edge">
<title>Node2&#45;&gt;Node3</title>
<g id="a_edge2_Node000002_Node000003"><a xlink:title=" ">
<path fill="none" stroke="#63b8ff" d="M340.8,-113.9C348.83,-112.47 357.18,-111 365.08,-109.6"/>
<polygon fill="#63b8ff" stroke="#63b8ff" points="365.53,-113.08 374.76,-107.89 364.31,-106.18 365.53,-113.08"/>
</a>
</g>
</g>
<!-- Node4&#45;&gt;Node2 -->
<g id="edge4_Node000004_Node000002" class="edge">
<title>Node4&#45;&gt;Node2</title>
<g id="a_edge4_Node000004_Node000002"><a xlink:title=" ">
<path fill="none" stroke="#63b8ff" d="M205.77,-93.71C220.04,-98.17 237.03,-103.47 252.33,-108.26"/>
<polygon fill="#63b8ff" stroke="#63b8ff" points="251.09,-111.53 261.68,-111.17 253.18,-104.85 251.09,-111.53"/>
</a>
</g>
</g>
<!-- Node4&#45;&gt;Node3 -->
<g id="edge5_Node000004_Node000003" class="edge">
<title>Node4&#45;&gt;Node3</title>
<g id="a_edge5_Node000004_Node000003"><a xlink:title=" ">
<path fill="none" stroke="#63b8ff" d="M216.14,-87.13C258.71,-90.63 323.59,-95.97 365.02,-99.38"/>
<polygon fill="#63b8ff" stroke="#63b8ff" points="364.53,-102.85 374.79,-100.18 365.11,-95.87 364.53,-102.85"/>
</a>
</g>
</g>
</g>
</svg>
