<?xml version="1.0" encoding="UTF-8" standalone="no"?>
<!DOCTYPE svg PUBLIC "-//W3C//DTD SVG 1.1//EN"
 "http://www.w3.org/Graphics/SVG/1.1/DTD/svg11.dtd">
<!-- Generated by graphviz version 9.0.0 (20230911.1827)
 -->
<!-- Title: t_field_get_help Pages: 1 -->
<svg width="494pt" height="83pt"
 viewBox="0.00 0.00 493.75 83.25" xmlns="http://www.w3.org/2000/svg" xmlns:xlink="http://www.w3.org/1999/xlink">

<svg id="main" version="1.1" xmlns="http://www.w3.org/2000/svg" xmlns:xlink="http://www.w3.org/1999/xlink" xml:space="preserve" onload="init(evt)">
<style type="text/css"><![CDATA[
.node, .edge {opacity: 0.7;}
.node.selected, .edge.selected {opacity: 1;}
.edge:hover path { stroke: red; }
.edge:hover polygon { stroke: red; fill: red; }
]]></style>
<script type="application/ecmascript" xlink:href="../../svg.min.js"/>
<svg id="graph" class="graph">
<g id="graph0" class="graph" transform="scale(1 1) rotate(0) translate(4 79.25)">
<title>t_field_get_help</title>
<!-- Node1 -->
<g id="Node000001" class="node">
<title>Node1</title>
<g id="a_Node000001"><a xlink:title=" ">
<polygon fill="#999999" stroke="#666666" points="83.5,-37.25 0,-37.25 0,-18 83.5,-18 83.5,-37.25"/>
<text text-anchor="middle" x="41.75" y="-23.75" font-family="Helvetica,sans-Serif" font-size="10.00">t_field_get_help</text>
</a>
</g>
</g>
<!-- Node2 -->
<g id="Node000002" class="node">
<title>Node2</title>
<g id="a_Node000002"><a xlink:href="../../df/d0a/str-l_8h.html#a20d4e20f8eca0a76eb265176ab94b7f2" target="_top" xlink:title="concatenates its argument to form a new lstr on the t_stack.">
<polygon fill="white" stroke="#666666" points="181.25,-37.25 119.5,-37.25 119.5,-18 181.25,-18 181.25,-37.25"/>
<text text-anchor="middle" x="150.38" y="-23.75" font-family="Helvetica,sans-Serif" font-size="10.00">t_lstr_cat3</text>
</a>
</g>
</g>
<!-- Node1&#45;&gt;Node2 -->
<g id="edge1_Node000001_Node000002" class="edge">
<title>Node1&#45;&gt;Node2</title>
<g id="a_edge1_Node000001_Node000002"><a xlink:title=" ">
<path fill="none" stroke="#63b8ff" d="M83.97,-27.62C91.76,-27.62 99.9,-27.62 107.7,-27.62"/>
<polygon fill="#63b8ff" stroke="#63b8ff" points="107.66,-31.13 117.66,-27.63 107.66,-24.13 107.66,-31.13"/>
</a>
</g>
</g>
<!-- Node3 -->
<g id="Node000003" class="node">
<title>Node3</title>
<g id="a_Node000003"><a xlink:href="../../de/d04/str-l_8c.html#a697641ab65efd67b8180dab9ddef0130" target="_top" xlink:title="Concatenates its argument to form a new lstr on the mem pool.">
<polygon fill="white" stroke="#666666" points="289.5,-56.25 217.25,-56.25 217.25,-37 289.5,-37 289.5,-56.25"/>
<text text-anchor="middle" x="253.38" y="-42.75" font-family="Helvetica,sans-Serif" font-size="10.00">mp_lstr_cat3</text>
</a>
</g>
</g>
<!-- Node2&#45;&gt;Node3 -->
<g id="edge2_Node000002_Node000003" class="edge">
<title>Node2&#45;&gt;Node3</title>
<g id="a_edge2_Node000002_Node000003"><a xlink:title=" ">
<path fill="none" stroke="#63b8ff" d="M181.68,-33.33C189.18,-34.74 197.4,-36.28 205.49,-37.81"/>
<polygon fill="#63b8ff" stroke="#63b8ff" points="204.8,-41.24 215.27,-39.65 206.09,-34.36 204.8,-41.24"/>
</a>
</g>
</g>
<!-- Node8 -->
<g id="Node000008" class="node">
<title>Node8</title>
<g id="a_Node000008"><a xlink:href="../../d1/d10/mem-stack_8h.html#a1d0e2a29f86dc033a02e50484b527fd0" target="_top" xlink:title=" ">
<polygon fill="white" stroke="#666666" points="274.5,-19.25 232.25,-19.25 232.25,0 274.5,0 274.5,-19.25"/>
<text text-anchor="middle" x="253.38" y="-5.75" font-family="Helvetica,sans-Serif" font-size="10.00">t_pool</text>
</a>
</g>
</g>
<!-- Node2&#45;&gt;Node8 -->
<g id="edge8_Node000002_Node000008" class="edge">
<title>Node2&#45;&gt;Node8</title>
<g id="a_edge8_Node000002_Node000008"><a xlink:title=" ">
<path fill="none" stroke="#63b8ff" d="M181.68,-22.22C194.01,-20.03 208.26,-17.49 220.72,-15.27"/>
<polygon fill="#63b8ff" stroke="#63b8ff" points="221.28,-18.72 230.51,-13.52 220.06,-11.83 221.28,-18.72"/>
</a>
</g>
</g>
<!-- Node4 -->
<g id="Node000004" class="node">
<title>Node4</title>
<g id="a_Node000004"><a xlink:href="../../d9/d9a/mem_8h.html#af3794c657c3ffd55b9771dcaeec60c02" target="_top" xlink:title=" ">
<polygon fill="white" stroke="#666666" points="485.75,-75.25 427.75,-75.25 427.75,-56 485.75,-56 485.75,-75.25"/>
<text text-anchor="middle" x="456.75" y="-61.75" font-family="Helvetica,sans-Serif" font-size="10.00">mempcpy</text>
</a>
</g>
</g>
<!-- Node3&#45;&gt;Node4 -->
<g id="edge3_Node000003_Node000004" class="edge">
<title>Node3&#45;&gt;Node4</title>
<g id="a_edge3_Node000003_Node000004"><a xlink:title=" ">
<path fill="none" stroke="#63b8ff" d="M285.18,-56.73C297.56,-60.3 312.07,-63.86 325.5,-65.62 355.73,-69.59 390.26,-69.38 416.16,-68.29"/>
<polygon fill="#63b8ff" stroke="#63b8ff" points="416.08,-71.8 425.9,-67.81 415.74,-64.81 416.08,-71.8"/>
</a>
</g>
</g>
<!-- Node5 -->
<g id="Node000005" class="node">
<title>Node5</title>
<g id="a_Node000005"><a xlink:href="../../d9/d9a/mem_8h.html#adc8b730239ca8846b4161cabd49cf628" target="_top" xlink:title=" ">
<polygon fill="white" stroke="#666666" points="389.88,-56.25 327.38,-56.25 327.38,-37 389.88,-37 389.88,-56.25"/>
<text text-anchor="middle" x="358.62" y="-42.75" font-family="Helvetica,sans-Serif" font-size="10.00">mempcpyz</text>
</a>
</g>
</g>
<!-- Node3&#45;&gt;Node5 -->
<g id="edge4_Node000003_Node000005" class="edge">
<title>Node3&#45;&gt;Node5</title>
<g id="a_edge4_Node000003_Node000005"><a xlink:title=" ">
<path fill="none" stroke="#63b8ff" d="M289.91,-46.62C298.25,-46.62 307.21,-46.62 315.8,-46.62"/>
<polygon fill="#63b8ff" stroke="#63b8ff" points="315.67,-50.13 325.67,-46.63 315.67,-43.13 315.67,-50.13"/>
</a>
</g>
</g>
<!-- Node6 -->
<g id="Node000006" class="node">
<title>Node6</title>
<g id="a_Node000006"><a xlink:href="../../df/d0a/str-l_8h.html#afaa32126aa321a4b319e39433d0e7f26" target="_top" xlink:title=" ">
<polygon fill="white" stroke="#666666" points="391.75,-19.25 325.5,-19.25 325.5,0 391.75,0 391.75,-19.25"/>
<text text-anchor="middle" x="358.62" y="-5.75" font-family="Helvetica,sans-Serif" font-size="10.00">mp_lstr_init</text>
</a>
</g>
</g>
<!-- Node3&#45;&gt;Node6 -->
<g id="edge6_Node000003_Node000006" class="edge">
<title>Node3&#45;&gt;Node6</title>
<g id="a_edge6_Node000003_Node000006"><a xlink:title=" ">
<path fill="none" stroke="#63b8ff" d="M282.59,-36.51C293.74,-32.52 306.75,-27.86 318.77,-23.55"/>
<polygon fill="#63b8ff" stroke="#63b8ff" points="319.79,-26.9 328.02,-20.23 317.43,-20.31 319.79,-26.9"/>
</a>
</g>
</g>
<!-- Node5&#45;&gt;Node4 -->
<g id="edge5_Node000005_Node000004" class="edge">
<title>Node5&#45;&gt;Node4</title>
<g id="a_edge5_Node000005_Node000004"><a xlink:title=" ">
<path fill="none" stroke="#63b8ff" d="M390.3,-52.69C398.56,-54.32 407.6,-56.11 416.26,-57.82"/>
<polygon fill="#63b8ff" stroke="#63b8ff" points="415.35,-61.21 425.83,-59.71 416.7,-54.34 415.35,-61.21"/>
</a>
</g>
</g>
<!-- Node7 -->
<g id="Node000007" class="node">
<title>Node7</title>
<g id="a_Node000007"><a xlink:href="../../df/d0a/str-l_8h.html#a3b4dbe9c4cc70340cba0787574dc1c5e" target="_top" xlink:title=" ">
<polygon fill="white" stroke="#666666" points="483.12,-19.25 430.38,-19.25 430.38,0 483.12,0 483.12,-19.25"/>
<text text-anchor="middle" x="456.75" y="-5.75" font-family="Helvetica,sans-Serif" font-size="10.00">lstr_init_</text>
</a>
</g>
</g>
<!-- Node6&#45;&gt;Node7 -->
<g id="edge7_Node000006_Node000007" class="edge">
<title>Node6&#45;&gt;Node7</title>
<g id="a_edge7_Node000006_Node000007"><a xlink:title=" ">
<path fill="none" stroke="#63b8ff" d="M392.17,-9.62C400.63,-9.62 409.81,-9.62 418.5,-9.62"/>
<polygon fill="#63b8ff" stroke="#63b8ff" points="418.41,-13.13 428.41,-9.63 418.41,-6.13 418.41,-13.13"/>
</a>
</g>
</g>
</g>
</svg>
</svg>

<style type='text/css'>
<![CDATA[
[data-mouse-over-selected='false'] { opacity: 0.7; }
[data-mouse-over-selected='true']  { opacity: 1.0; }
]]>
</style>
<script type="application/ecmascript"><![CDATA[
document.addEventListener('DOMContentLoaded', (event) => {
  highlightEdges();
  highlightAdjacentNodes();
});
]]></script>
</svg>
