<?xml version="1.0" encoding="UTF-8" standalone="no"?>
<!DOCTYPE svg PUBLIC "-//W3C//DTD SVG 1.1//EN"
 "http://www.w3.org/Graphics/SVG/1.1/DTD/svg11.dtd">
<!-- Generated by graphviz version 9.0.0 (20230911.1827)
 -->
<!-- Title: t_struct_build_oid Pages: 1 -->
<svg width="1716pt" height="589pt"
 viewBox="0.00 0.00 1716.25 588.56" xmlns="http://www.w3.org/2000/svg" xmlns:xlink="http://www.w3.org/1999/xlink">
<g id="graph0" class="graph" transform="scale(1 1) rotate(0) translate(4 584.56)">
<title>t_struct_build_oid</title>
<!-- Node1 -->
<g id="Node000001" class="node">
<title>Node1</title>
<g id="a_Node000001"><a xlink:title=" ">
<polygon fill="#999999" stroke="#666666" points="92.5,-304.62 0,-304.62 0,-285.38 92.5,-285.38 92.5,-304.62"/>
<text text-anchor="middle" x="46.25" y="-291.12" font-family="Helvetica,sans-Serif" font-size="10.00">t_struct_build_oid</text>
</a>
</g>
</g>
<!-- Node2 -->
<g id="Node000002" class="node">
<title>Node2</title>
<g id="a_Node000002"><a xlink:href="../../d3/d40/iop_8h.html#a0c5cc0feec0dd418ded2bfcada406925" target="_top" xlink:title=" ">
<polygon fill="white" stroke="#666666" points="247.25,-341.62 128.5,-341.62 128.5,-322.38 247.25,-322.38 247.25,-341.62"/>
<text text-anchor="middle" x="187.88" y="-328.12" font-family="Helvetica,sans-Serif" font-size="10.00">iop_struct_is_snmp_obj</text>
</a>
</g>
</g>
<!-- Node1&#45;&gt;Node2 -->
<g id="edge1_Node000001_Node000002" class="edge">
<title>Node1&#45;&gt;Node2</title>
<g id="a_edge1_Node000001_Node000002"><a xlink:title=" ">
<path fill="none" stroke="#63b8ff" d="M85.4,-305.11C101.56,-309.39 120.6,-314.44 137.79,-318.99"/>
<polygon fill="#63b8ff" stroke="#63b8ff" points="136.74,-322.34 147.3,-321.51 138.54,-315.57 136.74,-322.34"/>
</a>
</g>
</g>
<!-- Node3 -->
<g id="Node000003" class="node">
<title>Node3</title>
<g id="a_Node000003"><a xlink:href="../../d3/d40/iop_8h.html#a7ff2b7d10f816bfc16029083e3cde458" target="_top" xlink:title=" ">
<polygon fill="white" stroke="#666666" points="246.12,-304.62 129.62,-304.62 129.62,-285.38 246.12,-285.38 246.12,-304.62"/>
<text text-anchor="middle" x="187.88" y="-291.12" font-family="Helvetica,sans-Serif" font-size="10.00">iop_struct_is_snmp_tbl</text>
</a>
</g>
</g>
<!-- Node1&#45;&gt;Node3 -->
<g id="edge2_Node000001_Node000003" class="edge">
<title>Node1&#45;&gt;Node3</title>
<g id="a_edge2_Node000001_Node000003"><a xlink:title=" ">
<path fill="none" stroke="#63b8ff" d="M92.97,-295C100.95,-295 109.41,-295 117.86,-295"/>
<polygon fill="#63b8ff" stroke="#63b8ff" points="117.81,-298.5 127.81,-295 117.81,-291.5 117.81,-298.5"/>
</a>
</g>
</g>
<!-- Node4 -->
<g id="Node000004" class="node">
<title>Node4</title>
<g id="a_Node000004"><a xlink:href="../../d4/d02/str-buf_8c.html#afb6af3b66bb89dd7790246497d4e4d04" target="_top" xlink:title=" ">
<polygon fill="white" stroke="#666666" points="213.12,-267.62 162.62,-267.62 162.62,-248.38 213.12,-248.38 213.12,-267.62"/>
<text text-anchor="middle" x="187.88" y="-254.12" font-family="Helvetica,sans-Serif" font-size="10.00">sb_addf</text>
</a>
</g>
</g>
<!-- Node1&#45;&gt;Node4 -->
<g id="edge3_Node000001_Node000004" class="edge">
<title>Node1&#45;&gt;Node4</title>
<g id="a_edge3_Node000001_Node000004"><a xlink:title=" ">
<path fill="none" stroke="#63b8ff" d="M85.4,-284.89C106.02,-279.43 131.31,-272.73 151.48,-267.38"/>
<polygon fill="#63b8ff" stroke="#63b8ff" points="152.16,-270.82 160.93,-264.87 150.37,-264.05 152.16,-270.82"/>
</a>
</g>
</g>
<!-- Node5 -->
<g id="Node000005" class="node">
<title>Node5</title>
<g id="a_Node000005"><a xlink:href="../../d4/d02/str-buf_8c.html#a69ef1f90a740762a1a93dbfdb5af7fbe" target="_top" xlink:title=" ">
<polygon fill="white" stroke="#666666" points="339,-341.62 283.25,-341.62 283.25,-322.38 339,-322.38 339,-341.62"/>
<text text-anchor="middle" x="311.12" y="-328.12" font-family="Helvetica,sans-Serif" font-size="10.00">sb_addvf</text>
</a>
</g>
</g>
<!-- Node4&#45;&gt;Node5 -->
<g id="edge4_Node000004_Node000005" class="edge">
<title>Node4&#45;&gt;Node5</title>
<g id="a_edge4_Node000004_Node000005"><a xlink:title=" ">
<path fill="none" stroke="#63b8ff" d="M213.4,-263.07C224.21,-265.92 236.81,-270.11 247.25,-276 265.08,-286.05 282.21,-301.86 294.08,-314.12"/>
<polygon fill="#63b8ff" stroke="#63b8ff" points="291.3,-316.27 300.69,-321.18 296.41,-311.49 291.3,-316.27"/>
</a>
</g>
</g>
<!-- Node47 -->
<g id="Node000047" class="node">
<title>Node47</title>
<g id="a_Node000047"><a xlink:href="../../d2/d4d/file_8h.html#a25419a391fdd4ad7954699c58cfeb3b9" target="_top" xlink:title=" ">
<polygon fill="white" stroke="#666666" points="1199.5,-157.62 1148.25,-157.62 1148.25,-138.38 1199.5,-138.38 1199.5,-157.62"/>
<text text-anchor="middle" x="1173.88" y="-144.12" font-family="Helvetica,sans-Serif" font-size="10.00">va_start</text>
</a>
</g>
</g>
<!-- Node4&#45;&gt;Node47 -->
<g id="edge59_Node000004_Node000047" class="edge">
<title>Node4&#45;&gt;Node47</title>
<g id="a_edge59_Node000004_Node000047"><a xlink:title=" ">
<path fill="none" stroke="#63b8ff" d="M191.79,-247.89C206.2,-200.19 274.55,0 406.75,0 406.75,0 406.75,0 904,0 1011,0 1115.58,-91.07 1155.69,-130.33"/>
<polygon fill="#63b8ff" stroke="#63b8ff" points="1153.04,-132.63 1162.59,-137.22 1157.99,-127.68 1153.04,-132.63"/>
</a>
</g>
</g>
<!-- Node62 -->
<g id="Node000062" class="node">
<title>Node62</title>
<g id="a_Node000062"><a xlink:href="../../d2/d4d/file_8h.html#aa694120a0e2e1e38b7bebb913a0fe88e" target="_top" xlink:title=" ">
<polygon fill="white" stroke="#666666" points="431.5,-267.62 384,-267.62 384,-248.38 431.5,-248.38 431.5,-267.62"/>
<text text-anchor="middle" x="407.75" y="-254.12" font-family="Helvetica,sans-Serif" font-size="10.00">va_end</text>
</a>
</g>
</g>
<!-- Node4&#45;&gt;Node62 -->
<g id="edge58_Node000004_Node000062" class="edge">
<title>Node4&#45;&gt;Node62</title>
<g id="a_edge58_Node000004_Node000062"><a xlink:title=" ">
<path fill="none" stroke="#63b8ff" d="M213.44,-258C252.28,-258 327.99,-258 372.26,-258"/>
<polygon fill="#63b8ff" stroke="#63b8ff" points="372.08,-261.5 382.08,-258 372.08,-254.5 372.08,-261.5"/>
</a>
</g>
</g>
<!-- Node6 -->
<g id="Node000006" class="node">
<title>Node6</title>
<g id="a_Node000006"><a xlink:href="../../dc/d31/str-buf_8h.html#a5019d1298a6a5b4f8ae0b645bb8bc627" target="_top" xlink:title=" ">
<polygon fill="white" stroke="#666666" points="540.5,-380.62 476.5,-380.62 476.5,-361.38 540.5,-361.38 540.5,-380.62"/>
<text text-anchor="middle" x="508.5" y="-367.12" font-family="Helvetica,sans-Serif" font-size="10.00">__sb_fixlen</text>
</a>
</g>
</g>
<!-- Node5&#45;&gt;Node6 -->
<g id="edge5_Node000005_Node000006" class="edge">
<title>Node5&#45;&gt;Node6</title>
<g id="a_edge5_Node000005_Node000006"><a xlink:title=" ">
<path fill="none" stroke="#63b8ff" d="M339.44,-341.19C350.4,-344.63 363.21,-348.34 375,-351 404.72,-357.7 438.7,-362.78 464.81,-366.14"/>
<polygon fill="#63b8ff" stroke="#63b8ff" points="464.35,-369.61 474.71,-367.38 465.22,-362.66 464.35,-369.61"/>
</a>
</g>
</g>
<!-- Node8 -->
<g id="Node000008" class="node">
<title>Node8</title>
<g id="a_Node000008"><a xlink:href="../../dd/d5b/str-iprintf_8c.html#ae025de8d462e446841348cd71254064e" target="_top" xlink:title=" ">
<polygon fill="white" stroke="#666666" points="435.62,-341.62 379.88,-341.62 379.88,-322.38 435.62,-322.38 435.62,-341.62"/>
<text text-anchor="middle" x="407.75" y="-328.12" font-family="Helvetica,sans-Serif" font-size="10.00">ivsnprintf</text>
</a>
</g>
</g>
<!-- Node5&#45;&gt;Node8 -->
<g id="edge7_Node000005_Node000008" class="edge">
<title>Node5&#45;&gt;Node8</title>
<g id="a_edge7_Node000005_Node000008"><a xlink:title=" ">
<path fill="none" stroke="#63b8ff" d="M339.49,-332C348.42,-332 358.5,-332 368.1,-332"/>
<polygon fill="#63b8ff" stroke="#63b8ff" points="367.93,-335.5 377.93,-332 367.93,-328.5 367.93,-335.5"/>
</a>
</g>
</g>
<!-- Node20 -->
<g id="Node000020" class="node">
<title>Node20</title>
<g id="a_Node000020"><a xlink:href="../../dc/d31/str-buf_8h.html#a102279333d8b7438c3fdb0896fd08bd8" target="_top" xlink:title=" ">
<polygon fill="white" stroke="#666666" points="433.75,-304.62 381.75,-304.62 381.75,-285.38 433.75,-285.38 433.75,-304.62"/>
<text text-anchor="middle" x="407.75" y="-291.12" font-family="Helvetica,sans-Serif" font-size="10.00">sb_avail</text>
</a>
</g>
</g>
<!-- Node5&#45;&gt;Node20 -->
<g id="edge19_Node000005_Node000020" class="edge">
<title>Node5&#45;&gt;Node20</title>
<g id="a_edge19_Node000005_Node000020"><a xlink:title=" ">
<path fill="none" stroke="#63b8ff" d="M337.98,-321.89C348.08,-317.94 359.83,-313.35 370.73,-309.09"/>
<polygon fill="#63b8ff" stroke="#63b8ff" points="371.8,-312.42 379.84,-305.52 369.25,-305.9 371.8,-312.42"/>
</a>
</g>
</g>
<!-- Node21 -->
<g id="Node000021" class="node">
<title>Node21</title>
<g id="a_Node000021"><a xlink:href="../../dc/d31/str-buf_8h.html#acd3f1b7a3fde32b199cf24fdb133b4ce" target="_top" xlink:title=" ">
<polygon fill="white" stroke="#666666" points="532.25,-455.62 484.75,-455.62 484.75,-436.38 532.25,-436.38 532.25,-455.62"/>
<text text-anchor="middle" x="508.5" y="-442.12" font-family="Helvetica,sans-Serif" font-size="10.00">sb_end</text>
</a>
</g>
</g>
<!-- Node5&#45;&gt;Node21 -->
<g id="edge20_Node000005_Node000021" class="edge">
<title>Node5&#45;&gt;Node21</title>
<g id="a_edge20_Node000005_Node000021"><a xlink:title=" ">
<path fill="none" stroke="#63b8ff" d="M315.58,-342.1C322.99,-362.05 342.41,-406.37 375,-427 404.38,-445.6 444.68,-448.94 473.1,-448.52"/>
<polygon fill="#63b8ff" stroke="#63b8ff" points="473.09,-452.02 482.97,-448.19 472.86,-445.02 473.09,-452.02"/>
</a>
</g>
</g>
<!-- Node22 -->
<g id="Node000022" class="node">
<title>Node22</title>
<g id="a_Node000022"><a xlink:href="../../dc/d31/str-buf_8h.html#a69537528c954fce98e3d2cb92232ffe8" target="_top" xlink:title=" ">
<polygon fill="white" stroke="#666666" points="440.5,-417.62 375,-417.62 375,-398.38 440.5,-398.38 440.5,-417.62"/>
<text text-anchor="middle" x="407.75" y="-404.12" font-family="Helvetica,sans-Serif" font-size="10.00">sb_growlen</text>
</a>
</g>
</g>
<!-- Node5&#45;&gt;Node22 -->
<g id="edge21_Node000005_Node000022" class="edge">
<title>Node5&#45;&gt;Node22</title>
<g id="a_edge21_Node000005_Node000022"><a xlink:title=" ">
<path fill="none" stroke="#63b8ff" d="M323.59,-341.74C336.1,-352.3 356.78,-369.59 375,-384 377.98,-386.36 381.15,-388.81 384.28,-391.21"/>
<polygon fill="#63b8ff" stroke="#63b8ff" points="382.07,-393.93 392.16,-397.17 386.3,-388.35 382.07,-393.93"/>
</a>
</g>
</g>
<!-- Node5&#45;&gt;Node62 -->
<g id="edge57_Node000005_Node000062" class="edge">
<title>Node5&#45;&gt;Node62</title>
<g id="a_edge57_Node000005_Node000062"><a xlink:title=" ">
<path fill="none" stroke="#63b8ff" d="M321.81,-322.19C333.7,-310.42 354.8,-290.47 375,-276 375.98,-275.3 376.99,-274.6 378.02,-273.91"/>
<polygon fill="#63b8ff" stroke="#63b8ff" points="379.59,-277.06 386.25,-268.82 375.91,-271.1 379.59,-277.06"/>
</a>
</g>
</g>
<!-- Node7 -->
<g id="Node000007" class="node">
<title>Node7</title>
<g id="a_Node000007"><a xlink:href="../../dc/d31/str-buf_8h.html#a01c1a4f8ed76b6a919595b803c7d7376" target="_top" xlink:title=" ">
<polygon fill="white" stroke="#666666" points="670.88,-380.62 586.62,-380.62 586.62,-361.38 670.88,-361.38 670.88,-380.62"/>
<text text-anchor="middle" x="628.75" y="-367.12" font-family="Helvetica,sans-Serif" font-size="10.00">sb_set_trailing0</text>
</a>
</g>
</g>
<!-- Node6&#45;&gt;Node7 -->
<g id="edge6_Node000006_Node000007" class="edge">
<title>Node6&#45;&gt;Node7</title>
<g id="a_edge6_Node000006_Node000007"><a xlink:title=" ">
<path fill="none" stroke="#63b8ff" d="M540.88,-371C551.35,-371 563.32,-371 574.95,-371"/>
<polygon fill="#63b8ff" stroke="#63b8ff" points="574.9,-374.5 584.9,-371 574.9,-367.5 574.9,-374.5"/>
</a>
</g>
</g>
<!-- Node9 -->
<g id="Node000009" class="node">
<title>Node9</title>
<g id="a_Node000009"><a xlink:href="../../dd/d5b/str-iprintf_8c.html#a86edb100b724e785592b84eaf4b565c5" target="_top" xlink:title=" ">
<polygon fill="white" stroke="#666666" points="539.75,-213.62 477.25,-213.62 477.25,-194.38 539.75,-194.38 539.75,-213.62"/>
<text text-anchor="middle" x="508.5" y="-200.12" font-family="Helvetica,sans-Serif" font-size="10.00">fmt_output</text>
</a>
</g>
</g>
<!-- Node8&#45;&gt;Node9 -->
<g id="edge8_Node000008_Node000009" class="edge">
<title>Node8&#45;&gt;Node9</title>
<g id="a_edge8_Node000008_Node000009"><a xlink:title=" ">
<path fill="none" stroke="#63b8ff" d="M429.96,-321.99C433.72,-319.67 437.41,-317 440.5,-314 467.68,-287.65 488.22,-248.05 499,-224.24"/>
<polygon fill="#63b8ff" stroke="#63b8ff" points="502.1,-225.9 502.9,-215.34 495.68,-223.1 502.1,-225.9"/>
</a>
</g>
</g>
<!-- Node10 -->
<g id="Node000010" class="node">
<title>Node10</title>
<g id="a_Node000010"><a xlink:href="../../dd/d5b/str-iprintf_8c.html#a4a403b71d8f1e07cdb47dae4915d49b9" target="_top" xlink:title=" ">
<polygon fill="white" stroke="#666666" points="666,-269.62 591.5,-269.62 591.5,-250.38 666,-250.38 666,-269.62"/>
<text text-anchor="middle" x="628.75" y="-256.12" font-family="Helvetica,sans-Serif" font-size="10.00">convert_int10</text>
</a>
</g>
</g>
<!-- Node9&#45;&gt;Node10 -->
<g id="edge9_Node000009_Node000010" class="edge">
<title>Node9&#45;&gt;Node10</title>
<g id="a_edge9_Node000009_Node000010"><a xlink:title=" ">
<path fill="none" stroke="#63b8ff" d="M525.32,-214.04C538.64,-222.23 558.36,-233.75 576.5,-242 579.44,-243.34 582.51,-244.64 585.62,-245.89"/>
<polygon fill="#63b8ff" stroke="#63b8ff" points="584.23,-249.1 594.82,-249.39 586.72,-242.56 584.23,-249.1"/>
</a>
</g>
</g>
<!-- Node11 -->
<g id="Node000011" class="node">
<title>Node11</title>
<g id="a_Node000011"><a xlink:href="../../dd/d5b/str-iprintf_8c.html#a447933b7890ca600f312634ccef28540" target="_top" xlink:title=" ">
<polygon fill="white" stroke="#666666" points="680.62,-232.62 576.88,-232.62 576.88,-213.38 680.62,-213.38 680.62,-232.62"/>
<text text-anchor="middle" x="628.75" y="-219.12" font-family="Helvetica,sans-Serif" font-size="10.00">convert_quoted_uint</text>
</a>
</g>
</g>
<!-- Node9&#45;&gt;Node11 -->
<g id="edge10_Node000009_Node000011" class="edge">
<title>Node9&#45;&gt;Node11</title>
<g id="a_edge10_Node000009_Node000011"><a xlink:title=" ">
<path fill="none" stroke="#63b8ff" d="M539.95,-208.89C547.84,-210.16 556.63,-211.57 565.52,-213"/>
<polygon fill="#63b8ff" stroke="#63b8ff" points="564.84,-216.44 575.27,-214.57 565.95,-209.52 564.84,-216.44"/>
</a>
</g>
</g>
<!-- Node12 -->
<g id="Node000012" class="node">
<title>Node12</title>
<g id="a_Node000012"><a xlink:href="../../dd/d5b/str-iprintf_8c.html#abf630e253d9cde6fc2160e5a79269bf7" target="_top" xlink:title=" ">
<polygon fill="white" stroke="#666666" points="663.38,-195.62 594.12,-195.62 594.12,-176.38 663.38,-176.38 663.38,-195.62"/>
<text text-anchor="middle" x="628.75" y="-182.12" font-family="Helvetica,sans-Serif" font-size="10.00">convert_uint</text>
</a>
</g>
</g>
<!-- Node9&#45;&gt;Node12 -->
<g id="edge11_Node000009_Node000012" class="edge">
<title>Node9&#45;&gt;Node12</title>
<g id="a_edge11_Node000009_Node000012"><a xlink:title=" ">
<path fill="none" stroke="#63b8ff" d="M539.95,-199.36C552.91,-197.39 568.3,-195.05 582.54,-192.88"/>
<polygon fill="#63b8ff" stroke="#63b8ff" points="582.79,-196.38 592.15,-191.42 581.74,-189.46 582.79,-196.38"/>
</a>
</g>
</g>
<!-- Node13 -->
<g id="Node000013" class="node">
<title>Node13</title>
<g id="a_Node000013"><a xlink:href="../../dd/d5b/str-iprintf_8c.html#a149dbd88166dd707291eb48f86809116" target="_top" xlink:title=" ">
<polygon fill="white" stroke="#666666" points="668.62,-158.62 588.88,-158.62 588.88,-139.38 668.62,-139.38 668.62,-158.62"/>
<text text-anchor="middle" x="628.75" y="-145.12" font-family="Helvetica,sans-Serif" font-size="10.00">convert_uint32</text>
</a>
</g>
</g>
<!-- Node9&#45;&gt;Node13 -->
<g id="edge12_Node000009_Node000013" class="edge">
<title>Node9&#45;&gt;Node13</title>
<g id="a_edge12_Node000009_Node000013"><a xlink:title=" ">
<path fill="none" stroke="#63b8ff" d="M525.9,-193.93C539.23,-186 558.67,-174.99 576.5,-167 579.49,-165.66 582.6,-164.36 585.76,-163.1"/>
<polygon fill="#63b8ff" stroke="#63b8ff" points="586.99,-166.38 595.11,-159.57 584.52,-159.83 586.99,-166.38"/>
</a>
</g>
</g>
<!-- Node14 -->
<g id="Node000014" class="node">
<title>Node14</title>
<g id="a_Node000014"><a xlink:href="../../dd/d5b/str-iprintf_8c.html#a22d81a1ea399cd1123d75552ca6436f9" target="_top" xlink:title=" ">
<polygon fill="white" stroke="#666666" points="668.62,-121.62 588.88,-121.62 588.88,-102.38 668.62,-102.38 668.62,-121.62"/>
<text text-anchor="middle" x="628.75" y="-108.12" font-family="Helvetica,sans-Serif" font-size="10.00">convert_uint64</text>
</a>
</g>
</g>
<!-- Node9&#45;&gt;Node14 -->
<g id="edge13_Node000009_Node000014" class="edge">
<title>Node9&#45;&gt;Node14</title>
<g id="a_edge13_Node000009_Node000014"><a xlink:title=" ">
<path fill="none" stroke="#63b8ff" d="M516.12,-193.92C526.95,-178.15 549.94,-147.65 576.5,-130 578.09,-128.94 579.76,-127.94 581.47,-126.99"/>
<polygon fill="#63b8ff" stroke="#63b8ff" points="582.78,-130.24 590.28,-122.76 579.75,-123.93 582.78,-130.24"/>
</a>
</g>
</g>
<!-- Node15 -->
<g id="Node000015" class="node">
<title>Node15</title>
<g id="a_Node000015"><a xlink:href="../../dd/d5b/str-iprintf_8c.html#a63813b3275ab6c84540a718634617315" target="_top" xlink:title=" ">
<polygon fill="white" stroke="#666666" points="643.5,-84.62 614,-84.62 614,-65.38 643.5,-65.38 643.5,-84.62"/>
<text text-anchor="middle" x="628.75" y="-71.12" font-family="Helvetica,sans-Serif" font-size="10.00">cvt</text>
</a>
</g>
</g>
<!-- Node9&#45;&gt;Node15 -->
<g id="edge14_Node000009_Node000015" class="edge">
<title>Node9&#45;&gt;Node15</title>
<g id="a_edge14_Node000009_Node000015"><a xlink:title=" ">
<path fill="none" stroke="#63b8ff" d="M512.82,-194.15C520.54,-172.66 541.75,-121.26 576.5,-93 584.03,-86.88 593.79,-82.77 602.76,-80.04"/>
<polygon fill="#63b8ff" stroke="#63b8ff" points="603.58,-83.45 612.4,-77.58 601.84,-76.67 603.58,-83.45"/>
</a>
</g>
</g>
<!-- Node16 -->
<g id="Node000016" class="node">
<title>Node16</title>
<g id="a_Node000016"><a xlink:href="../../dd/d5b/str-iprintf_8c.html#a4d97bad725d98d86ca70da65686742b6" target="_top" xlink:title=" ">
<polygon fill="white" stroke="#666666" points="656.25,-47.62 601.25,-47.62 601.25,-28.38 656.25,-28.38 656.25,-47.62"/>
<text text-anchor="middle" x="628.75" y="-34.12" font-family="Helvetica,sans-Serif" font-size="10.00">exponent</text>
</a>
</g>
</g>
<!-- Node9&#45;&gt;Node16 -->
<g id="edge15_Node000009_Node000016" class="edge">
<title>Node9&#45;&gt;Node16</title>
<g id="a_edge15_Node000009_Node000016"><a xlink:title=" ">
<path fill="none" stroke="#63b8ff" d="M511.19,-194.14C516.22,-167.86 533.45,-95.44 576.5,-56 580.5,-52.33 585.3,-49.4 590.33,-47.06"/>
<polygon fill="#63b8ff" stroke="#63b8ff" points="591.3,-50.44 599.39,-43.6 588.8,-43.9 591.3,-50.44"/>
</a>
</g>
</g>
<!-- Node17 -->
<g id="Node000017" class="node">
<title>Node17</title>
<g id="a_Node000017"><a xlink:href="../../dd/d5b/str-iprintf_8c.html#a316de177eb751d84a9656e42a114e60b" target="_top" xlink:title=" ">
<polygon fill="white" stroke="#666666" points="674.62,-343.62 582.88,-343.62 582.88,-324.38 674.62,-324.38 674.62,-343.62"/>
<text text-anchor="middle" x="628.75" y="-330.12" font-family="Helvetica,sans-Serif" font-size="10.00">fmt_output_chars</text>
</a>
</g>
</g>
<!-- Node9&#45;&gt;Node17 -->
<g id="edge16_Node000009_Node000017" class="edge">
<title>Node9&#45;&gt;Node17</title>
<g id="a_edge16_Node000009_Node000017"><a xlink:title=" ">
<path fill="none" stroke="#63b8ff" d="M512.79,-213.94C520.46,-235.62 541.57,-287.48 576.5,-316 577.47,-316.79 578.47,-317.55 579.51,-318.27"/>
<polygon fill="#63b8ff" stroke="#63b8ff" points="577.75,-321.3 588.17,-323.21 581.21,-315.22 577.75,-321.3"/>
</a>
</g>
</g>
<!-- Node18 -->
<g id="Node000018" class="node">
<title>Node18</title>
<g id="a_Node000018"><a xlink:href="../../dd/d5b/str-iprintf_8c.html#a2515d73b29e14ab7ffcbe54864ec7afd" target="_top" xlink:title=" ">
<polygon fill="white" stroke="#666666" points="675.75,-306.62 581.75,-306.62 581.75,-287.38 675.75,-287.38 675.75,-306.62"/>
<text text-anchor="middle" x="628.75" y="-293.12" font-family="Helvetica,sans-Serif" font-size="10.00">fmt_output_chunk</text>
</a>
</g>
</g>
<!-- Node9&#45;&gt;Node18 -->
<g id="edge17_Node000009_Node000018" class="edge">
<title>Node9&#45;&gt;Node18</title>
<g id="a_edge17_Node000009_Node000018"><a xlink:title=" ">
<path fill="none" stroke="#63b8ff" d="M515.91,-213.96C526.62,-229.87 549.66,-261.04 576.5,-279 578.09,-280.06 579.75,-281.07 581.46,-282.03"/>
<polygon fill="#63b8ff" stroke="#63b8ff" points="579.73,-285.08 590.26,-286.27 582.77,-278.78 579.73,-285.08"/>
</a>
</g>
</g>
<!-- Node19 -->
<g id="Node000019" class="node">
<title>Node19</title>
<g id="a_Node000019"><a xlink:href="../../dd/d5b/str-iprintf_8c.html#a4eab8c1e99457dd0479a7fd2aeae3a5d" target="_top" xlink:title=" ">
<polygon fill="white" stroke="#666666" points="816.25,-306.62 732.75,-306.62 732.75,-287.38 816.25,-287.38 816.25,-306.62"/>
<text text-anchor="middle" x="774.5" y="-293.12" font-family="Helvetica,sans-Serif" font-size="10.00">fmt_output_raw</text>
</a>
</g>
</g>
<!-- Node18&#45;&gt;Node19 -->
<g id="edge18_Node000018_Node000019" class="edge">
<title>Node18&#45;&gt;Node19</title>
<g id="a_edge18_Node000018_Node000019"><a xlink:title=" ">
<path fill="none" stroke="#63b8ff" d="M676.02,-297C690.54,-297 706.67,-297 721.55,-297"/>
<polygon fill="#63b8ff" stroke="#63b8ff" points="721.13,-300.5 731.13,-297 721.13,-293.5 721.13,-300.5"/>
</a>
</g>
</g>
<!-- Node22&#45;&gt;Node6 -->
<g id="edge22_Node000022_Node000006" class="edge">
<title>Node22&#45;&gt;Node6</title>
<g id="a_edge22_Node000022_Node000006"><a xlink:title=" ">
<path fill="none" stroke="#63b8ff" d="M435.73,-397.89C446.29,-393.93 458.59,-389.33 469.98,-385.06"/>
<polygon fill="#63b8ff" stroke="#63b8ff" points="471,-388.42 479.13,-381.63 468.54,-381.86 471,-388.42"/>
</a>
</g>
</g>
<!-- Node22&#45;&gt;Node21 -->
<g id="edge56_Node000022_Node000021" class="edge">
<title>Node22&#45;&gt;Node21</title>
<g id="a_edge56_Node000022_Node000021"><a xlink:title=" ">
<path fill="none" stroke="#63b8ff" d="M434.95,-418.08C446.89,-422.68 461.15,-428.17 473.87,-433.06"/>
<polygon fill="#63b8ff" stroke="#63b8ff" points="472.54,-436.3 483.13,-436.62 475.05,-429.76 472.54,-436.3"/>
</a>
</g>
</g>
<!-- Node23 -->
<g id="Node000023" class="node">
<title>Node23</title>
<g id="a_Node000023"><a xlink:href="../../d4/d02/str-buf_8c.html#a96e2e5252e81ed31e7071e4db76085b5" target="_top" xlink:title=" ">
<polygon fill="white" stroke="#666666" points="540.12,-418.62 476.88,-418.62 476.88,-399.38 540.12,-399.38 540.12,-418.62"/>
<text text-anchor="middle" x="508.5" y="-405.12" font-family="Helvetica,sans-Serif" font-size="10.00">__sb_grow</text>
</a>
</g>
</g>
<!-- Node22&#45;&gt;Node23 -->
<g id="edge23_Node000022_Node000023" class="edge">
<title>Node22&#45;&gt;Node23</title>
<g id="a_edge23_Node000022_Node000023"><a xlink:title=" ">
<path fill="none" stroke="#63b8ff" d="M440.81,-408.32C448.62,-408.4 457.09,-408.49 465.29,-408.57"/>
<polygon fill="#63b8ff" stroke="#63b8ff" points="465.06,-412.07 475.09,-408.67 465.13,-405.07 465.06,-412.07"/>
</a>
</g>
</g>
<!-- Node24 -->
<g id="Node000024" class="node">
<title>Node24</title>
<g id="a_Node000024"><a xlink:href="../../d7/df8/log_8c.html#abca342edf91a9b45f7a17ef564fa8a53" target="_top" xlink:title=" ">
<polygon fill="white" stroke="#666666" points="1055.25,-418.62 1005.5,-418.62 1005.5,-399.38 1055.25,-399.38 1055.25,-418.62"/>
<text text-anchor="middle" x="1030.38" y="-405.12" font-family="Helvetica,sans-Serif" font-size="10.00">e_panic</text>
</a>
</g>
</g>
<!-- Node23&#45;&gt;Node24 -->
<g id="edge24_Node000023_Node000024" class="edge">
<title>Node23&#45;&gt;Node24</title>
<g id="a_edge24_Node000023_Node000024"><a xlink:title=" ">
<path fill="none" stroke="#63b8ff" d="M540.46,-409C631.34,-409 896.96,-409 993.65,-409"/>
<polygon fill="#63b8ff" stroke="#63b8ff" points="993.59,-412.5 1003.59,-409 993.59,-405.5 993.59,-412.5"/>
</a>
</g>
</g>
<!-- Node48 -->
<g id="Node000048" class="node">
<title>Node48</title>
<g id="a_Node000048"><a xlink:href="../../d9/d9a/mem_8h.html#a3fd6d5b3dcb24f194848ce86f988fb13" target="_top" xlink:title=" ">
<polygon fill="white" stroke="#666666" points="656.25,-530.62 601.25,-530.62 601.25,-511.38 656.25,-511.38 656.25,-530.62"/>
<text text-anchor="middle" x="628.75" y="-517.12" font-family="Helvetica,sans-Serif" font-size="10.00">mp_ipool</text>
</a>
</g>
</g>
<!-- Node23&#45;&gt;Node48 -->
<g id="edge43_Node000023_Node000048" class="edge">
<title>Node23&#45;&gt;Node48</title>
<g id="a_edge43_Node000023_Node000048"><a xlink:title=" ">
<path fill="none" stroke="#63b8ff" d="M530.79,-419.03C534.31,-421.32 537.72,-423.98 540.5,-427 565.8,-454.51 548.73,-477.99 576.5,-503 580.54,-506.63 585.35,-509.54 590.39,-511.87"/>
<polygon fill="#63b8ff" stroke="#63b8ff" points="588.86,-515.04 599.45,-515.34 591.36,-508.5 588.86,-515.04"/>
</a>
</g>
</g>
<!-- Node49 -->
<g id="Node000049" class="node">
<title>Node49</title>
<g id="a_Node000049"><a xlink:href="../../d9/d9a/mem_8h.html#a15958df365e5c2cc90a6c0c3e7e0e74f" target="_top" xlink:title=" ">
<polygon fill="white" stroke="#666666" points="681,-493.62 576.5,-493.62 576.5,-474.38 681,-474.38 681,-493.62"/>
<text text-anchor="middle" x="628.75" y="-480.12" font-family="Helvetica,sans-Serif" font-size="10.00">mp_irealloc_fallback</text>
</a>
</g>
</g>
<!-- Node23&#45;&gt;Node49 -->
<g id="edge44_Node000023_Node000049" class="edge">
<title>Node23&#45;&gt;Node49</title>
<g id="a_edge44_Node000023_Node000049"><a xlink:title=" ">
<path fill="none" stroke="#63b8ff" d="M528.78,-418.99C532.8,-421.4 536.91,-424.12 540.5,-427 558.91,-441.75 556.79,-453.04 576.5,-466 578.13,-467.07 579.82,-468.08 581.57,-469.04"/>
<polygon fill="#63b8ff" stroke="#63b8ff" points="580.04,-472.19 590.57,-473.32 583.04,-465.87 580.04,-472.19"/>
</a>
</g>
</g>
<!-- Node61 -->
<g id="Node000061" class="node">
<title>Node61</title>
<g id="a_Node000061"><a xlink:href="../../d4/d02/str-buf_8c.html#a63ddc4121cc8fbd2d5fd2a6d65a24feb" target="_top" xlink:title=" ">
<polygon fill="white" stroke="#666666" points="672,-456.62 585.5,-456.62 585.5,-437.38 672,-437.38 672,-456.62"/>
<text text-anchor="middle" x="628.75" y="-443.12" font-family="Helvetica,sans-Serif" font-size="10.00">sb_destroy_skip</text>
</a>
</g>
</g>
<!-- Node23&#45;&gt;Node61 -->
<g id="edge55_Node000023_Node000061" class="edge">
<title>Node23&#45;&gt;Node61</title>
<g id="a_edge55_Node000023_Node000061"><a xlink:title=" ">
<path fill="none" stroke="#63b8ff" d="M540.57,-418.98C554.44,-423.44 571,-428.76 585.95,-433.57"/>
<polygon fill="#63b8ff" stroke="#63b8ff" points="584.45,-436.76 595.04,-436.49 586.59,-430.1 584.45,-436.76"/>
</a>
</g>
</g>
<!-- Node25 -->
<g id="Node000025" class="node">
<title>Node25</title>
<g id="a_Node000025"><a xlink:href="../../d7/df8/log_8c.html#a4bc04f7baa1e064cb0b93c7b9f3a61a1" target="_top" xlink:title=" ">
<polygon fill="white" stroke="#666666" points="1217.88,-361.62 1129.88,-361.62 1129.88,-342.38 1217.88,-342.38 1217.88,-361.62"/>
<text text-anchor="middle" x="1173.88" y="-348.12" font-family="Helvetica,sans-Serif" font-size="10.00">__logger_refresh</text>
</a>
</g>
</g>
<!-- Node24&#45;&gt;Node25 -->
<g id="edge25_Node000024_Node000025" class="edge">
<title>Node24&#45;&gt;Node25</title>
<g id="a_edge25_Node000024_Node000025"><a xlink:title=" ">
<path fill="none" stroke="#63b8ff" d="M1055.7,-399.2C1078.24,-390.12 1112.03,-376.51 1137.55,-366.23"/>
<polygon fill="#63b8ff" stroke="#63b8ff" points="1138.55,-369.6 1146.51,-362.62 1135.93,-363.11 1138.55,-369.6"/>
</a>
</g>
</g>
<!-- Node43 -->
<g id="Node000043" class="node">
<title>Node43</title>
<g id="a_Node000043"><a xlink:href="../../d7/df8/log_8c.html#a900490b26df7698aac12f7f7e6517e81" target="_top" xlink:title=" ">
<polygon fill="white" stroke="#666666" points="1206.62,-474.62 1141.12,-474.62 1141.12,-455.38 1206.62,-455.38 1206.62,-474.62"/>
<text text-anchor="middle" x="1173.88" y="-461.12" font-family="Helvetica,sans-Serif" font-size="10.00">logger_vlog</text>
</a>
</g>
</g>
<!-- Node24&#45;&gt;Node43 -->
<g id="edge38_Node000024_Node000043" class="edge">
<title>Node24&#45;&gt;Node43</title>
<g id="a_edge38_Node000024_Node000043"><a xlink:title=" ">
<path fill="none" stroke="#63b8ff" d="M1055.7,-418.63C1078,-427.45 1111.32,-440.64 1136.74,-450.7"/>
<polygon fill="#63b8ff" stroke="#63b8ff" points="1135.44,-453.95 1146.03,-454.38 1138.02,-447.44 1135.44,-453.95"/>
</a>
</g>
</g>
<!-- Node24&#45;&gt;Node47 -->
<g id="edge42_Node000024_Node000047" class="edge">
<title>Node24&#45;&gt;Node47</title>
<g id="a_edge42_Node000024_Node000047"><a xlink:title=" ">
<path fill="none" stroke="#63b8ff" d="M1036.75,-399.09C1057.63,-360.57 1133.62,-220.4 1162.05,-167.97"/>
<polygon fill="#63b8ff" stroke="#63b8ff" points="1165.08,-169.71 1166.77,-159.25 1158.93,-166.38 1165.08,-169.71"/>
</a>
</g>
</g>
<!-- Node26 -->
<g id="Node000026" class="node">
<title>Node26</title>
<g id="a_Node000026"><a xlink:href="../../d7/df8/log_8c.html#a3dbd75fb614210f0b114cfd03c9c0a7b" target="_top" xlink:title=" ">
<polygon fill="white" stroke="#666666" points="1364.75,-380.62 1261,-380.62 1261,-361.38 1364.75,-361.38 1364.75,-380.62"/>
<text text-anchor="middle" x="1312.88" y="-367.12" font-family="Helvetica,sans-Serif" font-size="10.00">__logger_do_refresh</text>
</a>
</g>
</g>
<!-- Node25&#45;&gt;Node26 -->
<g id="edge26_Node000025_Node000026" class="edge">
<title>Node25&#45;&gt;Node26</title>
<g id="a_edge26_Node000025_Node000026"><a xlink:title=" ">
<path fill="none" stroke="#63b8ff" d="M1218.22,-358.01C1228.12,-359.38 1238.84,-360.87 1249.37,-362.33"/>
<polygon fill="#63b8ff" stroke="#63b8ff" points="1248.78,-365.78 1259.17,-363.69 1249.74,-358.85 1248.78,-365.78"/>
</a>
</g>
</g>
<!-- Node41 -->
<g id="Node000041" class="node">
<title>Node41</title>
<g id="a_Node000041"><a xlink:href="../../d7/df8/log_8c.html#a7b1b02d1986e1247c2f571af4a2c2854" target="_top" xlink:title=" ">
<polygon fill="white" stroke="#666666" points="1350.5,-343.62 1275.25,-343.62 1275.25,-324.38 1350.5,-324.38 1350.5,-343.62"/>
<text text-anchor="middle" x="1312.88" y="-330.12" font-family="Helvetica,sans-Serif" font-size="10.00">log_spin_lock</text>
</a>
</g>
</g>
<!-- Node25&#45;&gt;Node41 -->
<g id="edge36_Node000025_Node000041" class="edge">
<title>Node25&#45;&gt;Node41</title>
<g id="a_edge36_Node000025_Node000041"><a xlink:title=" ">
<path fill="none" stroke="#63b8ff" d="M1218.22,-346.3C1232.72,-344.4 1248.95,-342.27 1263.78,-340.32"/>
<polygon fill="#63b8ff" stroke="#63b8ff" points="1263.84,-343.84 1273.3,-339.07 1262.93,-336.9 1263.84,-343.84"/>
</a>
</g>
</g>
<!-- Node42 -->
<g id="Node000042" class="node">
<title>Node42</title>
<g id="a_Node000042"><a xlink:href="../../d1/dc0/group__log.html#ga045020bb4af234632f7761f220131c69" target="_top" xlink:title=" ">
<polygon fill="white" stroke="#666666" points="1355.75,-306.62 1270,-306.62 1270,-287.38 1355.75,-287.38 1355.75,-306.62"/>
<text text-anchor="middle" x="1312.88" y="-293.12" font-family="Helvetica,sans-Serif" font-size="10.00">log_spin_unlock</text>
</a>
</g>
</g>
<!-- Node25&#45;&gt;Node42 -->
<g id="edge37_Node000025_Node000042" class="edge">
<title>Node25&#45;&gt;Node42</title>
<g id="a_edge37_Node000025_Node000042"><a xlink:title=" ">
<path fill="none" stroke="#63b8ff" d="M1197.01,-342.01C1214.31,-334.33 1239.02,-323.6 1261,-315 1264.45,-313.65 1268.04,-312.29 1271.65,-310.95"/>
<polygon fill="#63b8ff" stroke="#63b8ff" points="1272.8,-314.26 1281.01,-307.56 1270.41,-307.68 1272.8,-314.26"/>
</a>
</g>
</g>
<!-- Node26&#45;&gt;Node26 -->
<g id="edge27_Node000026_Node000026" class="edge">
<title>Node26&#45;&gt;Node26</title>
<g id="a_edge27_Node000026_Node000026"><a xlink:title=" ">
<path fill="none" stroke="#63b8ff" d="M1291.11,-380.91C1281.19,-389.52 1288.44,-398.62 1312.88,-398.62 1326.24,-398.62 1334.46,-395.9 1337.55,-392.03"/>
<polygon fill="#63b8ff" stroke="#63b8ff" points="1340.94,-391.16 1335.02,-382.38 1334.17,-392.94 1340.94,-391.16"/>
</a>
</g>
</g>
<!-- Node27 -->
<g id="Node000027" class="node">
<title>Node27</title>
<g id="a_Node000027"><a xlink:href="../../de/d1a/container-dlist_8h.html#a3b6f65860b212e28f2e28e71eb54d54d" target="_top" xlink:title="Add element e at the head of list l (suited for LIFO).">
<polygon fill="#fff0f0" stroke="red" points="1491.75,-436.62 1436.75,-436.62 1436.75,-417.38 1491.75,-417.38 1491.75,-436.62"/>
<text text-anchor="middle" x="1464.25" y="-423.12" font-family="Helvetica,sans-Serif" font-size="10.00">dlist_add</text>
</a>
</g>
</g>
<!-- Node26&#45;&gt;Node27 -->
<g id="edge28_Node000026_Node000027" class="edge">
<title>Node26&#45;&gt;Node27</title>
<g id="a_edge28_Node000026_Node000027"><a xlink:title=" ">
<path fill="none" stroke="#63b8ff" d="M1334.63,-381C1352.03,-389.17 1377.68,-400.67 1400.75,-409 1408.71,-411.87 1417.36,-414.61 1425.63,-417.04"/>
<polygon fill="#63b8ff" stroke="#63b8ff" points="1424.51,-420.36 1435.09,-419.73 1426.43,-413.63 1424.51,-420.36"/>
</a>
</g>
</g>
<!-- Node29 -->
<g id="Node000029" class="node">
<title>Node29</title>
<g id="a_Node000029"><a xlink:href="../../de/d1a/container-dlist_8h.html#a0a69e401f6ec15966c891e96ad864c77" target="_top" xlink:title="Put a dlist_t element in a safe and detached state.">
<polygon fill="white" stroke="#666666" points="1490.25,-399.62 1438.25,-399.62 1438.25,-380.38 1490.25,-380.38 1490.25,-399.62"/>
<text text-anchor="middle" x="1464.25" y="-386.12" font-family="Helvetica,sans-Serif" font-size="10.00">dlist_init</text>
</a>
</g>
</g>
<!-- Node26&#45;&gt;Node29 -->
<g id="edge29_Node000026_Node000029" class="edge">
<title>Node26&#45;&gt;Node29</title>
<g id="a_edge29_Node000026_Node000029"><a xlink:title=" ">
<path fill="none" stroke="#63b8ff" d="M1364.86,-377.49C1385.2,-380.07 1408.16,-382.99 1426.78,-385.36"/>
<polygon fill="#63b8ff" stroke="#63b8ff" points="1426.17,-388.81 1436.53,-386.6 1427.05,-381.87 1426.17,-388.81"/>
</a>
</g>
</g>
<!-- Node30 -->
<g id="Node000030" class="node">
<title>Node30</title>
<g id="a_Node000030"><a xlink:href="../../d7/df8/log_8c.html#a4c8fbe8648573312126ce341cf34cba1" target="_top" xlink:title=" ">
<polygon fill="white" stroke="#666666" points="1527.75,-362.62 1400.75,-362.62 1400.75,-343.38 1527.75,-343.38 1527.75,-362.62"/>
<text text-anchor="middle" x="1464.25" y="-349.12" font-family="Helvetica,sans-Serif" font-size="10.00">logger_compute_fullname</text>
</a>
</g>
</g>
<!-- Node26&#45;&gt;Node30 -->
<g id="edge30_Node000026_Node000030" class="edge">
<title>Node26&#45;&gt;Node30</title>
<g id="a_edge30_Node000026_Node000030"><a xlink:title=" ">
<path fill="none" stroke="#63b8ff" d="M1364.86,-364.86C1372.71,-363.91 1380.94,-362.92 1389.16,-361.93"/>
<polygon fill="#63b8ff" stroke="#63b8ff" points="1389.32,-365.43 1398.83,-360.76 1388.49,-358.48 1389.32,-365.43"/>
</a>
</g>
</g>
<!-- Node33 -->
<g id="Node000033" class="node">
<title>Node33</title>
<g id="a_Node000033"><a xlink:href="../../df/d0a/str-l_8h.html#ad74dae07179370f3c22e3f026157926e" target="_top" xlink:title="wipe a lstr_t (frees memory if needed).">
<polygon fill="#fff0f0" stroke="red" points="1619.12,-343.62 1564.12,-343.62 1564.12,-324.38 1619.12,-324.38 1619.12,-343.62"/>
<text text-anchor="middle" x="1591.62" y="-330.12" font-family="Helvetica,sans-Serif" font-size="10.00">lstr_wipe</text>
</a>
</g>
</g>
<!-- Node26&#45;&gt;Node33 -->
<g id="edge35_Node000026_Node000033" class="edge">
<title>Node26&#45;&gt;Node33</title>
<g id="a_edge35_Node000026_Node000033"><a xlink:title=" ">
<path fill="none" stroke="#63b8ff" d="M1344.56,-360.96C1351.28,-358.53 1358.31,-355.82 1364.75,-353 1381.32,-345.74 1383.19,-338.35 1400.75,-334 1452.08,-321.29 1513.63,-324.51 1552.44,-328.68"/>
<polygon fill="#63b8ff" stroke="#63b8ff" points="1551.88,-332.14 1562.22,-329.82 1552.69,-325.19 1551.88,-332.14"/>
</a>
</g>
</g>
<!-- Node40 -->
<g id="Node000040" class="node">
<title>Node40</title>
<g id="a_Node000040"><a xlink:href="../../df/d0a/str-l_8h.html#a963c22b229774d4b7c106bae4011cb8e" target="_top" xlink:title="Returns whether \v s1 and \v s2 contents are equal.">
<polygon fill="white" stroke="#666666" points="1493.25,-286.62 1435.25,-286.62 1435.25,-267.38 1493.25,-267.38 1493.25,-286.62"/>
<text text-anchor="middle" x="1464.25" y="-273.12" font-family="Helvetica,sans-Serif" font-size="10.00">lstr_equal</text>
</a>
</g>
</g>
<!-- Node26&#45;&gt;Node40 -->
<g id="edge34_Node000026_Node000040" class="edge">
<title>Node26&#45;&gt;Node40</title>
<g id="a_edge34_Node000026_Node000040"><a xlink:title=" ">
<path fill="none" stroke="#63b8ff" d="M1351.14,-360.92C1355.97,-358.74 1360.66,-356.13 1364.75,-353 1387.08,-335.93 1378.65,-318.37 1400.75,-301 1407.68,-295.56 1415.98,-291.23 1424.24,-287.84"/>
<polygon fill="#63b8ff" stroke="#63b8ff" points="1425.35,-291.17 1433.53,-284.43 1422.93,-284.59 1425.35,-291.17"/>
</a>
</g>
</g>
<!-- Node31 -->
<g id="Node000031" class="node">
<title>Node31</title>
<g id="a_Node000031"><a xlink:href="../../df/d0a/str-l_8h.html#a6a200ca09358f19b13a8e297cda34869" target="_top" xlink:title="returns a constant copy of \v s.">
<polygon fill="white" stroke="#666666" points="1619.5,-380.62 1563.75,-380.62 1563.75,-361.38 1619.5,-361.38 1619.5,-380.62"/>
<text text-anchor="middle" x="1591.62" y="-367.12" font-family="Helvetica,sans-Serif" font-size="10.00">lstr_dupc</text>
</a>
</g>
</g>
<!-- Node30&#45;&gt;Node31 -->
<g id="edge31_Node000030_Node000031" class="edge">
<title>Node30&#45;&gt;Node31</title>
<g id="a_edge31_Node000030_Node000031"><a xlink:title=" ">
<path fill="none" stroke="#63b8ff" d="M1527.94,-362C1536.23,-363.19 1544.52,-364.38 1552.24,-365.49"/>
<polygon fill="#63b8ff" stroke="#63b8ff" points="1551.53,-368.92 1561.92,-366.88 1552.52,-361.99 1551.53,-368.92"/>
</a>
</g>
</g>
<!-- Node30&#45;&gt;Node33 -->
<g id="edge33_Node000030_Node000033" class="edge">
<title>Node30&#45;&gt;Node33</title>
<g id="a_edge33_Node000030_Node000033"><a xlink:title=" ">
<path fill="none" stroke="#63b8ff" d="M1527.94,-343.5C1536.31,-342.23 1544.69,-340.96 1552.46,-339.78"/>
<polygon fill="#63b8ff" stroke="#63b8ff" points="1552.87,-343.26 1562.23,-338.3 1551.82,-336.34 1552.87,-343.26"/>
</a>
</g>
</g>
<!-- Node32 -->
<g id="Node000032" class="node">
<title>Node32</title>
<g id="a_Node000032"><a xlink:href="../../df/d0a/str-l_8h.html#a3b4dbe9c4cc70340cba0787574dc1c5e" target="_top" xlink:title=" ">
<polygon fill="white" stroke="#666666" points="1708.25,-380.62 1655.5,-380.62 1655.5,-361.38 1708.25,-361.38 1708.25,-380.62"/>
<text text-anchor="middle" x="1681.88" y="-367.12" font-family="Helvetica,sans-Serif" font-size="10.00">lstr_init_</text>
</a>
</g>
</g>
<!-- Node31&#45;&gt;Node32 -->
<g id="edge32_Node000031_Node000032" class="edge">
<title>Node31&#45;&gt;Node32</title>
<g id="a_edge32_Node000031_Node000032"><a xlink:title=" ">
<path fill="none" stroke="#63b8ff" d="M1619.58,-371C1627.3,-371 1635.85,-371 1644.05,-371"/>
<polygon fill="#63b8ff" stroke="#63b8ff" points="1643.78,-374.5 1653.78,-371 1643.78,-367.5 1643.78,-374.5"/>
</a>
</g>
</g>
<!-- Node43&#45;&gt;Node31 -->
<g id="edge41_Node000043_Node000031" class="edge">
<title>Node43&#45;&gt;Node31</title>
<g id="a_edge41_Node000043_Node000031"><a xlink:title=" ">
<path fill="none" stroke="#63b8ff" d="M1206.71,-471.3C1271.24,-482.42 1420.46,-499.62 1527.75,-446 1551.41,-434.17 1569.55,-408.99 1580.13,-391.08"/>
<polygon fill="#63b8ff" stroke="#63b8ff" points="1583.17,-392.8 1584.98,-382.36 1577.06,-389.39 1583.17,-392.8"/>
</a>
</g>
</g>
<!-- Node44 -->
<g id="Node000044" class="node">
<title>Node44</title>
<g id="a_Node000044"><a xlink:href="../../d1/dc0/group__log.html#ga168a6f17b248f61f7d25a17d58d04e36" target="_top" xlink:title=" ">
<polygon fill="white" stroke="#666666" points="1357.25,-512.62 1268.5,-512.62 1268.5,-493.38 1357.25,-493.38 1357.25,-512.62"/>
<text text-anchor="middle" x="1312.88" y="-499.12" font-family="Helvetica,sans-Serif" font-size="10.00">logger_has_level</text>
</a>
</g>
</g>
<!-- Node43&#45;&gt;Node44 -->
<g id="edge39_Node000043_Node000044" class="edge">
<title>Node43&#45;&gt;Node44</title>
<g id="a_edge39_Node000043_Node000044"><a xlink:title=" ">
<path fill="none" stroke="#63b8ff" d="M1207,-473.91C1224.18,-478.68 1245.68,-484.64 1264.73,-489.92"/>
<polygon fill="#63b8ff" stroke="#63b8ff" points="1263.58,-493.24 1274.15,-492.54 1265.45,-486.49 1263.58,-493.24"/>
</a>
</g>
</g>
<!-- Node45 -->
<g id="Node000045" class="node">
<title>Node45</title>
<g id="a_Node000045"><a xlink:href="../../d1/dc0/group__log.html#gaf388752b988541da0abeceecdf96e6b3" target="_top" xlink:title=" ">
<polygon fill="#fff0f0" stroke="red" points="1507.5,-512.62 1421,-512.62 1421,-493.38 1507.5,-493.38 1507.5,-512.62"/>
<text text-anchor="middle" x="1464.25" y="-499.12" font-family="Helvetica,sans-Serif" font-size="10.00">logger_get_level</text>
</a>
</g>
</g>
<!-- Node44&#45;&gt;Node45 -->
<g id="edge40_Node000044_Node000045" class="edge">
<title>Node44&#45;&gt;Node45</title>
<g id="a_edge40_Node000044_Node000045"><a xlink:title=" ">
<path fill="none" stroke="#63b8ff" d="M1357.48,-503C1373.64,-503 1392.17,-503 1409.15,-503"/>
<polygon fill="#63b8ff" stroke="#63b8ff" points="1409.11,-506.5 1419.11,-503 1409.11,-499.5 1409.11,-506.5"/>
</a>
</g>
</g>
<!-- Node50 -->
<g id="Node000050" class="node">
<title>Node50</title>
<g id="a_Node000050"><a xlink:href="../../d8/d37/mem_8blk.html#a2fa974dc4e9f038e5bc400eb689b74b4" target="_top" xlink:title=" ">
<polygon fill="white" stroke="#666666" points="832,-493.62 717,-493.62 717,-474.38 832,-474.38 832,-493.62"/>
<text text-anchor="middle" x="774.5" y="-480.12" font-family="Helvetica,sans-Serif" font-size="10.00">__mp_irealloc_fallback</text>
</a>
</g>
</g>
<!-- Node49&#45;&gt;Node50 -->
<g id="edge45_Node000049_Node000050" class="edge">
<title>Node49&#45;&gt;Node50</title>
<g id="a_edge45_Node000049_Node000050"><a xlink:title=" ">
<path fill="none" stroke="#63b8ff" d="M681.24,-484C689.02,-484 697.14,-484 705.2,-484"/>
<polygon fill="#63b8ff" stroke="#63b8ff" points="705,-487.5 715,-484 705,-480.5 705,-487.5"/>
</a>
</g>
</g>
<!-- Node56 -->
<g id="Node000056" class="node">
<title>Node56</title>
<g id="a_Node000056"><a xlink:href="../../d9/d9a/mem_8h.html#ae99e17ad0b27e94e8a00c8af9734a0e7" target="_top" xlink:title=" ">
<polygon fill="white" stroke="#666666" points="1086.75,-567.62 974,-567.62 974,-548.38 1086.75,-548.38 1086.75,-567.62"/>
<text text-anchor="middle" x="1030.38" y="-554.12" font-family="Helvetica,sans-Serif" font-size="10.00">icheck_alloc_constant</text>
</a>
</g>
</g>
<!-- Node49&#45;&gt;Node56 -->
<g id="edge54_Node000049_Node000056" class="edge">
<title>Node49&#45;&gt;Node56</title>
<g id="a_edge54_Node000049_Node000056"><a xlink:title=" ">
<path fill="none" stroke="#63b8ff" d="M659.1,-494.06C666.29,-496.59 673.94,-499.35 681,-502 764.82,-533.51 780.08,-560.03 868,-577 906.9,-584.51 951.69,-578.06 984.19,-570.71"/>
<polygon fill="#63b8ff" stroke="#63b8ff" points="984.76,-574.17 993.68,-568.45 983.14,-567.36 984.76,-574.17"/>
</a>
</g>
</g>
<!-- Node51 -->
<g id="Node000051" class="node">
<title>Node51</title>
<g id="a_Node000051"><a xlink:href="../../d8/d37/mem_8blk.html#a8e4fbf6500e65079c31e3fd933ae7dc1" target="_top" xlink:title=" ">
<polygon fill="white" stroke="#666666" points="938,-493.62 868,-493.62 868,-474.38 938,-474.38 938,-493.62"/>
<text text-anchor="middle" x="903" y="-480.12" font-family="Helvetica,sans-Serif" font-size="10.00">icheck_alloc</text>
</a>
</g>
</g>
<!-- Node50&#45;&gt;Node51 -->
<g id="edge46_Node000050_Node000051" class="edge">
<title>Node50&#45;&gt;Node51</title>
<g id="a_edge46_Node000050_Node000051"><a xlink:title=" ">
<path fill="none" stroke="#63b8ff" d="M832.46,-484C840.47,-484 848.62,-484 856.38,-484"/>
<polygon fill="#63b8ff" stroke="#63b8ff" points="856.29,-487.5 866.29,-484 856.29,-480.5 856.29,-487.5"/>
</a>
</g>
</g>
<!-- Node39 -->
<g id="Node000039" class="node">
<title>Node39</title>
<g id="a_Node000039"><a xlink:href="../../d8/d37/mem_8blk.html#a83c7cf203e5eef9d1a8c6c43cde3e2e5" target="_top" xlink:title=" ">
<polygon fill="white" stroke="#666666" points="929.75,-456.62 876.25,-456.62 876.25,-437.38 929.75,-437.38 929.75,-456.62"/>
<text text-anchor="middle" x="903" y="-443.12" font-family="Helvetica,sans-Serif" font-size="10.00">mp_ifree</text>
</a>
</g>
</g>
<!-- Node50&#45;&gt;Node39 -->
<g id="edge48_Node000050_Node000039" class="edge">
<title>Node50&#45;&gt;Node39</title>
<g id="a_edge48_Node000050_Node000039"><a xlink:title=" ">
<path fill="none" stroke="#63b8ff" d="M810.07,-473.89C827.11,-468.9 847.68,-462.89 865.03,-457.81"/>
<polygon fill="#63b8ff" stroke="#63b8ff" points="865.84,-461.22 874.45,-455.06 863.87,-454.51 865.84,-461.22"/>
</a>
</g>
</g>
<!-- Node52 -->
<g id="Node000052" class="node">
<title>Node52</title>
<g id="a_Node000052"><a xlink:href="../../d9/d9a/mem_8h.html#ada6bb9661f0c10ccaa14d231c24aeafd" target="_top" xlink:title=" ">
<polygon fill="#fff0f0" stroke="red" points="935.75,-567.62 870.25,-567.62 870.25,-548.38 935.75,-548.38 935.75,-567.62"/>
<text text-anchor="middle" x="903" y="-554.12" font-family="Helvetica,sans-Serif" font-size="10.00">mp_imalloc</text>
</a>
</g>
</g>
<!-- Node50&#45;&gt;Node52 -->
<g id="edge49_Node000050_Node000052" class="edge">
<title>Node50&#45;&gt;Node52</title>
<g id="a_edge49_Node000050_Node000052"><a xlink:title=" ">
<path fill="none" stroke="#63b8ff" d="M791.38,-493.99C809.67,-505.42 840.73,-524.54 868,-540 869.45,-540.82 870.95,-541.66 872.46,-542.49"/>
<polygon fill="#63b8ff" stroke="#63b8ff" points="870.68,-545.51 881.15,-547.19 874.01,-539.36 870.68,-545.51"/>
</a>
</g>
</g>
<!-- Node58 -->
<g id="Node000058" class="node">
<title>Node58</title>
<g id="a_Node000058"><a xlink:href="../../d9/d9a/mem_8h.html#aabfb5bf96a257374cbc245548b81c4ff" target="_top" xlink:title=" ">
<polygon fill="#fff0f0" stroke="red" points="935.75,-530.62 870.25,-530.62 870.25,-511.38 935.75,-511.38 935.75,-530.62"/>
<text text-anchor="middle" x="903" y="-517.12" font-family="Helvetica,sans-Serif" font-size="10.00">mp_irealloc</text>
</a>
</g>
</g>
<!-- Node50&#45;&gt;Node58 -->
<g id="edge52_Node000050_Node000058" class="edge">
<title>Node50&#45;&gt;Node58</title>
<g id="a_edge52_Node000050_Node000058"><a xlink:title=" ">
<path fill="none" stroke="#63b8ff" d="M810.07,-494.11C825.28,-498.56 843.31,-503.83 859.35,-508.53"/>
<polygon fill="#63b8ff" stroke="#63b8ff" points="858.05,-511.79 868.63,-511.24 860.01,-505.07 858.05,-511.79"/>
</a>
</g>
</g>
<!-- Node51&#45;&gt;Node24 -->
<g id="edge47_Node000051_Node000024" class="edge">
<title>Node51&#45;&gt;Node24</title>
<g id="a_edge47_Node000051_Node000024"><a xlink:title=" ">
<path fill="none" stroke="#63b8ff" d="M923.55,-473.95C928.31,-471.42 933.37,-468.67 938,-466 960.86,-452.84 986.28,-436.87 1004.49,-425.19"/>
<polygon fill="#63b8ff" stroke="#63b8ff" points="1006.28,-428.2 1012.78,-419.84 1002.48,-422.32 1006.28,-428.2"/>
</a>
</g>
</g>
<!-- Node52&#45;&gt;Node56 -->
<g id="edge50_Node000052_Node000056" class="edge">
<title>Node52&#45;&gt;Node56</title>
<g id="a_edge50_Node000052_Node000056"><a xlink:title=" ">
<path fill="none" stroke="#63b8ff" d="M935.96,-558C944.11,-558 953.18,-558 962.38,-558"/>
<polygon fill="#63b8ff" stroke="#63b8ff" points="962.08,-561.5 972.08,-558 962.08,-554.5 962.08,-561.5"/>
</a>
</g>
</g>
<!-- Node57 -->
<g id="Node000057" class="node">
<title>Node57</title>
<g id="a_Node000057"><a xlink:href="../../d8/d37/mem_8blk.html#a377e36d6fbaf3ee7f1b217559cb0c850" target="_top" xlink:title=" ">
<polygon fill="white" stroke="#666666" points="1225,-567.62 1122.75,-567.62 1122.75,-548.38 1225,-548.38 1225,-567.62"/>
<text text-anchor="middle" x="1173.88" y="-554.12" font-family="Helvetica,sans-Serif" font-size="10.00">__imalloc_too_large</text>
</a>
</g>
</g>
<!-- Node56&#45;&gt;Node57 -->
<g id="edge51_Node000056_Node000057" class="edge">
<title>Node56&#45;&gt;Node57</title>
<g id="a_edge51_Node000056_Node000057"><a xlink:title=" ">
<path fill="none" stroke="#63b8ff" d="M1086.89,-558C1094.89,-558 1103.16,-558 1111.27,-558"/>
<polygon fill="#63b8ff" stroke="#63b8ff" points="1111.07,-561.5 1121.07,-558 1111.07,-554.5 1111.07,-561.5"/>
</a>
</g>
</g>
<!-- Node58&#45;&gt;Node56 -->
<g id="edge53_Node000058_Node000056" class="edge">
<title>Node58&#45;&gt;Node56</title>
<g id="a_edge53_Node000058_Node000056"><a xlink:title=" ">
<path fill="none" stroke="#63b8ff" d="M935.96,-530.43C950.7,-534.78 968.44,-540.02 984.49,-544.75"/>
<polygon fill="#63b8ff" stroke="#63b8ff" points="983.24,-548.03 993.82,-547.51 985.22,-541.32 983.24,-548.03"/>
</a>
</g>
</g>
</g>
</svg>
