<?xml version="1.0" encoding="UTF-8" standalone="no"?>
<!DOCTYPE svg PUBLIC "-//W3C//DTD SVG 1.1//EN"
 "http://www.w3.org/Graphics/SVG/1.1/DTD/svg11.dtd">
<!-- Generated by graphviz version 9.0.0 (20230911.1827)
 -->
<!-- Title: t_get_name_full_up Pages: 1 -->
<!--zoomable 350 -->

<svg id="main" version="1.1" xmlns="http://www.w3.org/2000/svg" xmlns:xlink="http://www.w3.org/1999/xlink" xml:space="preserve" onload="init(evt)">
<style type="text/css"><![CDATA[
.node, .edge {opacity: 0.7;}
.node.selected, .edge.selected {opacity: 1;}
.edge:hover path { stroke: red; }
.edge:hover polygon { stroke: red; fill: red; }
]]></style>

<defs>
  <circle id="rim" cx="0" cy="0" r="7"/>
  <circle id="rim2" cx="0" cy="0" r="3.5"/>
  <g id="zoomPlus">
    <use xlink:href="#rim" fill="#404040"><set attributeName="fill" to="#808080" begin="zoomplus.mouseover" end="zoomplus.mouseout"/></use>
    <path d="M-4,0h8M0,-4v8" fill="none" stroke="white" stroke-width="1.5" pointer-events="none"/>
  </g>
  <g id="zoomMin">
    <use xlink:href="#rim" fill="#404040"><set attributeName="fill" to="#808080" begin="zoomminus.mouseover" end="zoomminus.mouseout"/></use>
    <path d="M-4,0h8" fill="none" stroke="white" stroke-width="1.5" pointer-events="none"/>
  </g>
  <g id="arrowUp" transform="translate(30 24)">
    <use xlink:href="#rim"/>
    <path pointer-events="none" fill="none" stroke="white" stroke-width="1.5" d="M0,-3.0v7 M-2.5,-0.5L0,-3.0L2.5,-0.5"/>
  </g>
  <g id="arrowRight" transform="rotate(90) translate(36 -43)">
    <use xlink:href="#rim"/>
    <path pointer-events="none" fill="none" stroke="white" stroke-width="1.5" d="M0,-3.0v7 M-2.5,-0.5L0,-3.0L2.5,-0.5"/>
  </g>
  <g id="arrowDown" transform="rotate(180) translate(-30 -48)">
    <use xlink:href="#rim"/>
    <path pointer-events="none" fill="none" stroke="white" stroke-width="1.5" d="M0,-3.0v7 M-2.5,-0.5L0,-3.0L2.5,-0.5"/>
  </g>
  <g id="arrowLeft" transform="rotate(270) translate(-36 17)">
    <use xlink:href="#rim"/>
    <path pointer-events="none" fill="none" stroke="white" stroke-width="1.5" d="M0,-3.0v7 M-2.5,-0.5L0,-3.0L2.5,-0.5"/>
  </g>
  <g id="resetDef">
    <use xlink:href="#rim2" fill="#404040"><set attributeName="fill" to="#808080" begin="reset.mouseover" end="reset.mouseout"/></use>
  </g>
</defs>
<script type="application/ecmascript">
var viewWidth = 1917;
var viewHeight = 350;
var sectionId = 'dynsection-32';
</script>
<script type="application/ecmascript" xlink:href="../../svg.min.js"/>
<svg id="graph" class="graph">
<g id="viewport">
<title>t_get_name_full_up</title>
<!-- Node1 -->
<g id="Node000001" class="node">
<title>Node1</title>
<g id="a_Node000001"><a xlink:title=" ">
<polygon fill="#999999" stroke="#666666" points="100.75,-314.33 0,-314.33 0,-295.08 100.75,-295.08 100.75,-314.33"/>
<text text-anchor="middle" x="50.38" y="-300.83" font-family="Helvetica,sans-Serif" font-size="10.00">t_get_name_full_up</text>
</a>
</g>
</g>
<!-- Node2 -->
<g id="Node000002" class="node">
<title>Node2</title>
<g id="a_Node000002"><a xlink:href="../../df/d0a/str-l_8h.html#a93860e0a444ab8a423d79b7818a28345" target="_top" xlink:title="returns a duplicated lstr from the mem stack.">
<polygon fill="white" stroke="#666666" points="195.5,-314.33 136.75,-314.33 136.75,-295.08 195.5,-295.08 195.5,-314.33"/>
<text text-anchor="middle" x="166.12" y="-300.83" font-family="Helvetica,sans-Serif" font-size="10.00">t_lstr_dup</text>
</a>
</g>
</g>
<!-- Node1&#45;&gt;Node2 -->
<g id="edge1_Node000001_Node000002" class="edge">
<title>Node1&#45;&gt;Node2</title>
<g id="a_edge1_Node000001_Node000002"><a xlink:title=" ">
<path fill="none" stroke="#63b8ff" d="M100.94,-304.71C108.97,-304.71 117.2,-304.71 124.97,-304.71"/>
<polygon fill="#63b8ff" stroke="#63b8ff" points="124.81,-308.21 134.81,-304.71 124.81,-301.21 124.81,-308.21"/>
</a>
</g>
</g>
<!-- Node3 -->
<g id="Node000003" class="node">
<title>Node3</title>
<g id="a_Node000003"><a xlink:href="../../de/d04/str-l_8c.html#a721e56afb064f7233eda0184065df9bb" target="_top" xlink:title="Returns new mp allocated lstr from its arguments.">
<polygon fill="white" stroke="#666666" points="300.75,-295.33 231.5,-295.33 231.5,-276.08 300.75,-276.08 300.75,-295.33"/>
<text text-anchor="middle" x="266.12" y="-281.83" font-family="Helvetica,sans-Serif" font-size="10.00">mp_lstr_dup</text>
</a>
</g>
</g>
<!-- Node2&#45;&gt;Node3 -->
<g id="edge2_Node000002_Node000003" class="edge">
<title>Node2&#45;&gt;Node3</title>
<g id="a_edge2_Node000002_Node000003"><a xlink:title=" ">
<path fill="none" stroke="#63b8ff" d="M196,-299.11C203.61,-297.63 212,-296.01 220.23,-294.41"/>
<polygon fill="#63b8ff" stroke="#63b8ff" points="220.64,-297.9 229.79,-292.56 219.31,-291.02 220.64,-297.9"/>
</a>
</g>
</g>
<!-- Node24 -->
<g id="Node000024" class="node">
<title>Node24</title>
<g id="a_Node000024"><a xlink:href="../../d1/d10/mem-stack_8h.html#a1d0e2a29f86dc033a02e50484b527fd0" target="_top" xlink:title=" ">
<polygon fill="white" stroke="#666666" points="1908.5,-332.33 1866.25,-332.33 1866.25,-313.08 1908.5,-313.08 1908.5,-332.33"/>
<text text-anchor="middle" x="1887.38" y="-318.83" font-family="Helvetica,sans-Serif" font-size="10.00">t_pool</text>
</a>
</g>
</g>
<!-- Node2&#45;&gt;Node24 -->
<g id="edge44_Node000002_Node000024" class="edge">
<title>Node2&#45;&gt;Node24</title>
<g id="a_edge44_Node000002_Node000024"><a xlink:title=" ">
<path fill="none" stroke="#63b8ff" d="M195.72,-313.57C233.62,-324.52 302.79,-341.71 363.25,-341.71 363.25,-341.71 363.25,-341.71 1715.38,-341.71 1764.27,-341.71 1820.56,-333.94 1854.79,-328.34"/>
<polygon fill="#63b8ff" stroke="#63b8ff" points="1855.15,-331.82 1864.43,-326.71 1853.99,-324.92 1855.15,-331.82"/>
</a>
</g>
</g>
<!-- Node4 -->
<g id="Node000004" class="node">
<title>Node4</title>
<g id="a_Node000004"><a xlink:href="../../d9/d9a/mem_8h.html#afb82bc4c2f614b07ba2987edb2fb12a2" target="_top" xlink:title=" ">
<polygon fill="white" stroke="#666666" points="391.75,-295.33 336.75,-295.33 336.75,-276.08 391.75,-276.08 391.75,-295.33"/>
<text text-anchor="middle" x="364.25" y="-281.83" font-family="Helvetica,sans-Serif" font-size="10.00">mp_dupz</text>
</a>
</g>
</g>
<!-- Node3&#45;&gt;Node4 -->
<g id="edge3_Node000003_Node000004" class="edge">
<title>Node3&#45;&gt;Node4</title>
<g id="a_edge3_Node000003_Node000004"><a xlink:title=" ">
<path fill="none" stroke="#63b8ff" d="M301.02,-285.71C308.79,-285.71 317.1,-285.71 325.04,-285.71"/>
<polygon fill="#63b8ff" stroke="#63b8ff" points="324.79,-289.21 334.79,-285.71 324.79,-282.21 324.79,-289.21"/>
</a>
</g>
</g>
<!-- Node38 -->
<g id="Node000038" class="node">
<title>Node38</title>
<g id="a_Node000038"><a xlink:href="../../df/d0a/str-l_8h.html#afaa32126aa321a4b319e39433d0e7f26" target="_top" xlink:title=" ">
<polygon fill="white" stroke="#666666" points="1533.25,-72.33 1467,-72.33 1467,-53.08 1533.25,-53.08 1533.25,-72.33"/>
<text text-anchor="middle" x="1500.12" y="-58.83" font-family="Helvetica,sans-Serif" font-size="10.00">mp_lstr_init</text>
</a>
</g>
</g>
<!-- Node3&#45;&gt;Node38 -->
<g id="edge42_Node000003_Node000038" class="edge">
<title>Node3&#45;&gt;Node38</title>
<g id="a_edge42_Node000003_Node000038"><a xlink:title=" ">
<path fill="none" stroke="#63b8ff" d="M268.77,-275.6C277.61,-225.01 324.32,-1.71 459.5,-1.71 459.5,-1.71 459.5,-1.71 1240.75,-1.71 1324.07,-1.71 1348.04,5.12 1427.25,-20.71 1444.88,-26.45 1462.89,-36.99 1476.47,-46.07"/>
<polygon fill="#63b8ff" stroke="#63b8ff" points="1474.46,-48.94 1484.67,-51.76 1478.46,-43.19 1474.46,-48.94"/>
</a>
</g>
</g>
<!-- Node5 -->
<g id="Node000005" class="node">
<title>Node5</title>
<g id="a_Node000005"><a xlink:href="../../d9/d9a/mem_8h.html#af52b7a33884b452f86de916d8109b8f1" target="_top" xlink:title=" ">
<polygon fill="white" stroke="#666666" points="489.12,-313.33 431.88,-313.33 431.88,-294.08 489.12,-294.08 489.12,-313.33"/>
<text text-anchor="middle" x="460.5" y="-299.83" font-family="Helvetica,sans-Serif" font-size="10.00">memcpyz</text>
</a>
</g>
</g>
<!-- Node4&#45;&gt;Node5 -->
<g id="edge4_Node000004_Node000005" class="edge">
<title>Node4&#45;&gt;Node5</title>
<g id="a_edge4_Node000004_Node000005"><a xlink:title=" ">
<path fill="none" stroke="#63b8ff" d="M392.01,-290.82C400.92,-292.52 411.05,-294.45 420.69,-296.3"/>
<polygon fill="#63b8ff" stroke="#63b8ff" points="419.73,-299.67 430.21,-298.11 421.04,-292.8 419.73,-299.67"/>
</a>
</g>
</g>
<!-- Node7 -->
<g id="Node000007" class="node">
<title>Node7</title>
<g id="a_Node000007"><a xlink:href="../../d9/d9a/mem_8h.html#ada6bb9661f0c10ccaa14d231c24aeafd" target="_top" xlink:title=" ">
<polygon fill="white" stroke="#666666" points="493.25,-276.33 427.75,-276.33 427.75,-257.08 493.25,-257.08 493.25,-276.33"/>
<text text-anchor="middle" x="460.5" y="-262.83" font-family="Helvetica,sans-Serif" font-size="10.00">mp_imalloc</text>
</a>
</g>
</g>
<!-- Node4&#45;&gt;Node7 -->
<g id="edge6_Node000004_Node000007" class="edge">
<title>Node4&#45;&gt;Node7</title>
<g id="a_edge6_Node000004_Node000007"><a xlink:title=" ">
<path fill="none" stroke="#63b8ff" d="M392.01,-280.31C399.56,-278.79 407.99,-277.09 416.25,-275.43"/>
<polygon fill="#63b8ff" stroke="#63b8ff" points="416.73,-278.9 425.84,-273.49 415.35,-272.04 416.73,-278.9"/>
</a>
</g>
</g>
<!-- Node6 -->
<g id="Node000006" class="node">
<title>Node6</title>
<g id="a_Node000006"><a xlink:href="../../d9/d9a/mem_8h.html#af3794c657c3ffd55b9771dcaeec60c02" target="_top" xlink:title=" ">
<polygon fill="white" stroke="#666666" points="614.62,-313.33 556.62,-313.33 556.62,-294.08 614.62,-294.08 614.62,-313.33"/>
<text text-anchor="middle" x="585.62" y="-299.83" font-family="Helvetica,sans-Serif" font-size="10.00">mempcpy</text>
</a>
</g>
</g>
<!-- Node5&#45;&gt;Node6 -->
<g id="edge5_Node000005_Node000006" class="edge">
<title>Node5&#45;&gt;Node6</title>
<g id="a_edge5_Node000005_Node000006"><a xlink:title=" ">
<path fill="none" stroke="#63b8ff" d="M489.44,-303.71C505.85,-303.71 526.86,-303.71 544.97,-303.71"/>
<polygon fill="#63b8ff" stroke="#63b8ff" points="544.86,-307.21 554.86,-303.71 544.86,-300.21 544.86,-307.21"/>
</a>
</g>
</g>
<!-- Node8 -->
<g id="Node000008" class="node">
<title>Node8</title>
<g id="a_Node000008"><a xlink:href="../../d8/d37/mem_8blk.html#a5666a1403bcf2bd8e114c23f8021d1ac" target="_top" xlink:title=" ">
<polygon fill="white" stroke="#666666" points="623.62,-239.33 547.62,-239.33 547.62,-220.08 623.62,-220.08 623.62,-239.33"/>
<text text-anchor="middle" x="585.62" y="-225.83" font-family="Helvetica,sans-Serif" font-size="10.00">__mp_imalloc</text>
</a>
</g>
</g>
<!-- Node7&#45;&gt;Node8 -->
<g id="edge7_Node000007_Node000008" class="edge">
<title>Node7&#45;&gt;Node8</title>
<g id="a_edge7_Node000007_Node000008"><a xlink:title=" ">
<path fill="none" stroke="#63b8ff" d="M493.53,-257.08C507.75,-252.81 524.72,-247.71 540.14,-243.07"/>
<polygon fill="#63b8ff" stroke="#63b8ff" points="541.02,-246.47 549.59,-240.24 539,-239.76 541.02,-246.47"/>
</a>
</g>
</g>
<!-- Node36 -->
<g id="Node000036" class="node">
<title>Node36</title>
<g id="a_Node000036"><a xlink:href="../../d9/d9a/mem_8h.html#ae99e17ad0b27e94e8a00c8af9734a0e7" target="_top" xlink:title=" ">
<polygon fill="white" stroke="#666666" points="642,-276.33 529.25,-276.33 529.25,-257.08 642,-257.08 642,-276.33"/>
<text text-anchor="middle" x="585.62" y="-262.83" font-family="Helvetica,sans-Serif" font-size="10.00">icheck_alloc_constant</text>
</a>
</g>
</g>
<!-- Node7&#45;&gt;Node36 -->
<g id="edge40_Node000007_Node000036" class="edge">
<title>Node7&#45;&gt;Node36</title>
<g id="a_edge40_Node000007_Node000036"><a xlink:title=" ">
<path fill="none" stroke="#63b8ff" d="M493.53,-266.71C500.97,-266.71 509.18,-266.71 517.51,-266.71"/>
<polygon fill="#63b8ff" stroke="#63b8ff" points="517.4,-270.21 527.4,-266.71 517.4,-263.21 517.4,-270.21"/>
</a>
</g>
</g>
<!-- Node9 -->
<g id="Node000009" class="node">
<title>Node9</title>
<g id="a_Node000009"><a xlink:href="../../d8/d37/mem_8blk.html#a8e4fbf6500e65079c31e3fd933ae7dc1" target="_top" xlink:title=" ">
<polygon fill="white" stroke="#666666" points="764.12,-237.33 694.12,-237.33 694.12,-218.08 764.12,-218.08 764.12,-237.33"/>
<text text-anchor="middle" x="729.12" y="-223.83" font-family="Helvetica,sans-Serif" font-size="10.00">icheck_alloc</text>
</a>
</g>
</g>
<!-- Node8&#45;&gt;Node9 -->
<g id="edge8_Node000008_Node000009" class="edge">
<title>Node8&#45;&gt;Node9</title>
<g id="a_edge8_Node000008_Node000009"><a xlink:title=" ">
<path fill="none" stroke="#63b8ff" d="M623.8,-229.18C641.84,-228.93 663.67,-228.62 682.68,-228.35"/>
<polygon fill="#63b8ff" stroke="#63b8ff" points="682.64,-231.85 692.59,-228.21 682.54,-224.85 682.64,-231.85"/>
</a>
</g>
</g>
<!-- Node34 -->
<g id="Node000034" class="node">
<title>Node34</title>
<g id="a_Node000034"><a xlink:href="../../d9/d9a/mem_8h.html#af42ab5c21de0c723b2a55403e5441fda" target="_top" xlink:title=" ">
<polygon fill="white" stroke="#666666" points="768.62,-274.33 689.62,-274.33 689.62,-255.08 768.62,-255.08 768.62,-274.33"/>
<text text-anchor="middle" x="729.12" y="-260.83" font-family="Helvetica,sans-Serif" font-size="10.00">mem_bit_align</text>
</a>
</g>
</g>
<!-- Node8&#45;&gt;Node34 -->
<g id="edge38_Node000008_Node000034" class="edge">
<title>Node8&#45;&gt;Node34</title>
<g id="a_edge38_Node000008_Node000034"><a xlink:title=" ">
<path fill="none" stroke="#63b8ff" d="M623.8,-238.9C640.4,-243.01 660.22,-247.91 678.1,-252.33"/>
<polygon fill="#63b8ff" stroke="#63b8ff" points="677.2,-255.72 687.75,-254.72 678.88,-248.92 677.2,-255.72"/>
</a>
</g>
</g>
<!-- Node10 -->
<g id="Node000010" class="node">
<title>Node10</title>
<g id="a_Node000010"><a xlink:href="../../d7/df8/log_8c.html#abca342edf91a9b45f7a17ef564fa8a53" target="_top" xlink:title=" ">
<polygon fill="white" stroke="#666666" points="871.25,-237.33 821.5,-237.33 821.5,-218.08 871.25,-218.08 871.25,-237.33"/>
<text text-anchor="middle" x="846.38" y="-223.83" font-family="Helvetica,sans-Serif" font-size="10.00">e_panic</text>
</a>
</g>
</g>
<!-- Node9&#45;&gt;Node10 -->
<g id="edge9_Node000009_Node000010" class="edge">
<title>Node9&#45;&gt;Node10</title>
<g id="a_edge9_Node000009_Node000010"><a xlink:title=" ">
<path fill="none" stroke="#63b8ff" d="M764.39,-227.71C778.84,-227.71 795.65,-227.71 810.2,-227.71"/>
<polygon fill="#63b8ff" stroke="#63b8ff" points="809.78,-231.21 819.78,-227.71 809.78,-224.21 809.78,-231.21"/>
</a>
</g>
</g>
<!-- Node11 -->
<g id="Node000011" class="node">
<title>Node11</title>
<g id="a_Node000011"><a xlink:href="../../d7/df8/log_8c.html#a4bc04f7baa1e064cb0b93c7b9f3a61a1" target="_top" xlink:title=" ">
<polygon fill="white" stroke="#666666" points="1000.5,-124.33 912.5,-124.33 912.5,-105.08 1000.5,-105.08 1000.5,-124.33"/>
<text text-anchor="middle" x="956.5" y="-110.83" font-family="Helvetica,sans-Serif" font-size="10.00">__logger_refresh</text>
</a>
</g>
</g>
<!-- Node10&#45;&gt;Node11 -->
<g id="edge10_Node000010_Node000011" class="edge">
<title>Node10&#45;&gt;Node11</title>
<g id="a_edge10_Node000010_Node000011"><a xlink:title=" ">
<path fill="none" stroke="#63b8ff" d="M856.97,-217.68C875.21,-198.62 915.12,-156.91 938.16,-132.83"/>
<polygon fill="#63b8ff" stroke="#63b8ff" points="940.65,-135.29 945.03,-125.64 935.59,-130.45 940.65,-135.29"/>
</a>
</g>
</g>
<!-- Node29 -->
<g id="Node000029" class="node">
<title>Node29</title>
<g id="a_Node000029"><a xlink:href="../../d7/df8/log_8c.html#a900490b26df7698aac12f7f7e6517e81" target="_top" xlink:title=" ">
<polygon fill="white" stroke="#666666" points="989.25,-237.33 923.75,-237.33 923.75,-218.08 989.25,-218.08 989.25,-237.33"/>
<text text-anchor="middle" x="956.5" y="-223.83" font-family="Helvetica,sans-Serif" font-size="10.00">logger_vlog</text>
</a>
</g>
</g>
<!-- Node10&#45;&gt;Node29 -->
<g id="edge32_Node000010_Node000029" class="edge">
<title>Node10&#45;&gt;Node29</title>
<g id="a_edge32_Node000010_Node000029"><a xlink:title=" ">
<path fill="none" stroke="#63b8ff" d="M871.64,-227.71C883.61,-227.71 898.41,-227.71 912.22,-227.71"/>
<polygon fill="#63b8ff" stroke="#63b8ff" points="912,-231.21 922,-227.71 912,-224.21 912,-231.21"/>
</a>
</g>
</g>
<!-- Node33 -->
<g id="Node000033" class="node">
<title>Node33</title>
<g id="a_Node000033"><a xlink:href="../../d2/d4d/file_8h.html#a25419a391fdd4ad7954699c58cfeb3b9" target="_top" xlink:title=" ">
<polygon fill="white" stroke="#666666" points="982.12,-274.33 930.88,-274.33 930.88,-255.08 982.12,-255.08 982.12,-274.33"/>
<text text-anchor="middle" x="956.5" y="-260.83" font-family="Helvetica,sans-Serif" font-size="10.00">va_start</text>
</a>
</g>
</g>
<!-- Node10&#45;&gt;Node33 -->
<g id="edge37_Node000010_Node000033" class="edge">
<title>Node10&#45;&gt;Node33</title>
<g id="a_edge37_Node000010_Node000033"><a xlink:title=" ">
<path fill="none" stroke="#63b8ff" d="M871.64,-236.01C885.91,-240.89 904.2,-247.15 920.06,-252.58"/>
<polygon fill="#63b8ff" stroke="#63b8ff" points="918.54,-255.76 929.13,-255.68 920.81,-249.14 918.54,-255.76"/>
</a>
</g>
</g>
<!-- Node12 -->
<g id="Node000012" class="node">
<title>Node12</title>
<g id="a_Node000012"><a xlink:href="../../d7/df8/log_8c.html#a3dbd75fb614210f0b114cfd03c9c0a7b" target="_top" xlink:title=" ">
<polygon fill="white" stroke="#666666" points="1140.25,-142.33 1036.5,-142.33 1036.5,-123.08 1140.25,-123.08 1140.25,-142.33"/>
<text text-anchor="middle" x="1088.38" y="-128.83" font-family="Helvetica,sans-Serif" font-size="10.00">__logger_do_refresh</text>
</a>
</g>
</g>
<!-- Node11&#45;&gt;Node12 -->
<g id="edge11_Node000011_Node000012" class="edge">
<title>Node11&#45;&gt;Node12</title>
<g id="a_edge11_Node000011_Node000012"><a xlink:title=" ">
<path fill="none" stroke="#63b8ff" d="M1000.75,-120.7C1008.56,-121.78 1016.84,-122.93 1025.07,-124.07"/>
<polygon fill="#63b8ff" stroke="#63b8ff" points="1024.33,-127.5 1034.71,-125.41 1025.29,-120.57 1024.33,-127.5"/>
</a>
</g>
</g>
<!-- Node27 -->
<g id="Node000027" class="node">
<title>Node27</title>
<g id="a_Node000027"><a xlink:href="../../d7/df8/log_8c.html#a7b1b02d1986e1247c2f571af4a2c2854" target="_top" xlink:title=" ">
<polygon fill="white" stroke="#666666" points="1126,-105.33 1050.75,-105.33 1050.75,-86.08 1126,-86.08 1126,-105.33"/>
<text text-anchor="middle" x="1088.38" y="-91.83" font-family="Helvetica,sans-Serif" font-size="10.00">log_spin_lock</text>
</a>
</g>
</g>
<!-- Node11&#45;&gt;Node27 -->
<g id="edge30_Node000011_Node000027" class="edge">
<title>Node11&#45;&gt;Node27</title>
<g id="a_edge30_Node000011_Node000027"><a xlink:title=" ">
<path fill="none" stroke="#63b8ff" d="M1000.75,-108.38C1013.06,-106.58 1026.55,-104.6 1039.15,-102.76"/>
<polygon fill="#63b8ff" stroke="#63b8ff" points="1039.51,-106.25 1048.9,-101.34 1038.5,-99.32 1039.51,-106.25"/>
</a>
</g>
</g>
<!-- Node28 -->
<g id="Node000028" class="node">
<title>Node28</title>
<g id="a_Node000028"><a xlink:href="../../d1/dc0/group__log.html#ga045020bb4af234632f7761f220131c69" target="_top" xlink:title=" ">
<polygon fill="white" stroke="#666666" points="1131.25,-68.33 1045.5,-68.33 1045.5,-49.08 1131.25,-49.08 1131.25,-68.33"/>
<text text-anchor="middle" x="1088.38" y="-54.83" font-family="Helvetica,sans-Serif" font-size="10.00">log_spin_unlock</text>
</a>
</g>
</g>
<!-- Node11&#45;&gt;Node28 -->
<g id="edge31_Node000011_Node000028" class="edge">
<title>Node11&#45;&gt;Node28</title>
<g id="a_edge31_Node000011_Node000028"><a xlink:title=" ">
<path fill="none" stroke="#63b8ff" d="M976.71,-104.74C992.55,-96.71 1015.7,-85.36 1036.5,-76.71 1039.83,-75.32 1043.31,-73.95 1046.82,-72.61"/>
<polygon fill="#63b8ff" stroke="#63b8ff" points="1047.72,-76.01 1055.89,-69.26 1045.3,-69.44 1047.72,-76.01"/>
</a>
</g>
</g>
<!-- Node12&#45;&gt;Node12 -->
<g id="edge12_Node000012_Node000012" class="edge">
<title>Node12&#45;&gt;Node12</title>
<g id="a_edge12_Node000012_Node000012"><a xlink:title=" ">
<path fill="none" stroke="#63b8ff" d="M1067.73,-142.62C1058.31,-151.23 1065.19,-160.33 1088.38,-160.33 1101.05,-160.33 1108.85,-157.61 1111.78,-153.73"/>
<polygon fill="#63b8ff" stroke="#63b8ff" points="1115.19,-152.95 1109.39,-144.09 1108.4,-154.64 1115.19,-152.95"/>
</a>
</g>
</g>
<!-- Node13 -->
<g id="Node000013" class="node">
<title>Node13</title>
<g id="a_Node000013"><a xlink:href="../../de/d1a/container-dlist_8h.html#a3b6f65860b212e28f2e28e71eb54d54d" target="_top" xlink:title="Add element e at the head of list l (suited for LIFO).">
<polygon fill="white" stroke="#666666" points="1267.25,-49.33 1212.25,-49.33 1212.25,-30.08 1267.25,-30.08 1267.25,-49.33"/>
<text text-anchor="middle" x="1239.75" y="-35.83" font-family="Helvetica,sans-Serif" font-size="10.00">dlist_add</text>
</a>
</g>
</g>
<!-- Node12&#45;&gt;Node13 -->
<g id="edge13_Node000012_Node000013" class="edge">
<title>Node12&#45;&gt;Node13</title>
<g id="a_edge13_Node000012_Node000013"><a xlink:title=" ">
<path fill="none" stroke="#63b8ff" d="M1127.03,-122.67C1131.75,-120.49 1136.3,-117.86 1140.25,-114.71 1163.67,-96.01 1152.29,-75.7 1176.25,-57.71 1183.41,-52.33 1192.13,-48.56 1200.75,-45.92"/>
<polygon fill="#63b8ff" stroke="#63b8ff" points="1201.62,-49.31 1210.43,-43.42 1199.87,-42.53 1201.62,-49.31"/>
</a>
</g>
</g>
<!-- Node15 -->
<g id="Node000015" class="node">
<title>Node15</title>
<g id="a_Node000015"><a xlink:href="../../de/d1a/container-dlist_8h.html#a0a69e401f6ec15966c891e96ad864c77" target="_top" xlink:title="Put a dlist_t element in a safe and detached state.">
<polygon fill="white" stroke="#666666" points="1265.75,-123.33 1213.75,-123.33 1213.75,-104.08 1265.75,-104.08 1265.75,-123.33"/>
<text text-anchor="middle" x="1239.75" y="-109.83" font-family="Helvetica,sans-Serif" font-size="10.00">dlist_init</text>
</a>
</g>
</g>
<!-- Node12&#45;&gt;Node15 -->
<g id="edge15_Node000012_Node000015" class="edge">
<title>Node12&#45;&gt;Node15</title>
<g id="a_edge15_Node000012_Node000015"><a xlink:title=" ">
<path fill="none" stroke="#63b8ff" d="M1140.36,-126.22C1160.7,-123.63 1183.66,-120.71 1202.28,-118.35"/>
<polygon fill="#63b8ff" stroke="#63b8ff" points="1202.55,-121.84 1212.03,-117.11 1201.67,-114.9 1202.55,-121.84"/>
</a>
</g>
</g>
<!-- Node16 -->
<g id="Node000016" class="node">
<title>Node16</title>
<g id="a_Node000016"><a xlink:href="../../d7/df8/log_8c.html#a4c8fbe8648573312126ce341cf34cba1" target="_top" xlink:title=" ">
<polygon fill="white" stroke="#666666" points="1303.25,-199.33 1176.25,-199.33 1176.25,-180.08 1303.25,-180.08 1303.25,-199.33"/>
<text text-anchor="middle" x="1239.75" y="-185.83" font-family="Helvetica,sans-Serif" font-size="10.00">logger_compute_fullname</text>
</a>
</g>
</g>
<!-- Node12&#45;&gt;Node16 -->
<g id="edge16_Node000012_Node000016" class="edge">
<title>Node12&#45;&gt;Node16</title>
<g id="a_edge16_Node000012_Node000016"><a xlink:title=" ">
<path fill="none" stroke="#63b8ff" d="M1115.74,-142.77C1139.66,-151.9 1175.18,-165.45 1201.91,-175.65"/>
<polygon fill="#63b8ff" stroke="#63b8ff" points="1200.4,-178.82 1210.99,-179.11 1202.89,-172.28 1200.4,-178.82"/>
</a>
</g>
</g>
<!-- Node19 -->
<g id="Node000019" class="node">
<title>Node19</title>
<g id="a_Node000019"><a xlink:href="../../df/d0a/str-l_8h.html#ad74dae07179370f3c22e3f026157926e" target="_top" xlink:title="wipe a lstr_t (frees memory if needed).">
<polygon fill="white" stroke="#666666" points="1410.75,-176.33 1355.75,-176.33 1355.75,-157.08 1410.75,-157.08 1410.75,-176.33"/>
<text text-anchor="middle" x="1383.25" y="-162.83" font-family="Helvetica,sans-Serif" font-size="10.00">lstr_wipe</text>
</a>
</g>
</g>
<!-- Node12&#45;&gt;Node19 -->
<g id="edge29_Node000012_Node000019" class="edge">
<title>Node12&#45;&gt;Node19</title>
<g id="a_edge29_Node000012_Node000019"><a xlink:title=" ">
<path fill="none" stroke="#63b8ff" d="M1140.73,-138.67C1198.86,-145.42 1292.24,-156.26 1344.21,-162.29"/>
<polygon fill="#63b8ff" stroke="#63b8ff" points="1343.72,-165.76 1354.06,-163.43 1344.53,-158.8 1343.72,-165.76"/>
</a>
</g>
</g>
<!-- Node26 -->
<g id="Node000026" class="node">
<title>Node26</title>
<g id="a_Node000026"><a xlink:href="../../df/d0a/str-l_8h.html#a963c22b229774d4b7c106bae4011cb8e" target="_top" xlink:title="Returns whether \v s1 and \v s2 contents are equal.">
<polygon fill="white" stroke="#666666" points="1268.75,-86.33 1210.75,-86.33 1210.75,-67.08 1268.75,-67.08 1268.75,-86.33"/>
<text text-anchor="middle" x="1239.75" y="-72.83" font-family="Helvetica,sans-Serif" font-size="10.00">lstr_equal</text>
</a>
</g>
</g>
<!-- Node12&#45;&gt;Node26 -->
<g id="edge28_Node000012_Node000026" class="edge">
<title>Node12&#45;&gt;Node26</title>
<g id="a_edge28_Node000012_Node000026"><a xlink:title=" ">
<path fill="none" stroke="#63b8ff" d="M1120.37,-122.67C1127.01,-120.26 1133.93,-117.56 1140.25,-114.71 1156.94,-107.18 1159.35,-101.73 1176.25,-94.71 1183.54,-91.68 1191.5,-88.96 1199.23,-86.62"/>
<polygon fill="#63b8ff" stroke="#63b8ff" points="1200.18,-89.98 1208.83,-83.86 1198.25,-83.26 1200.18,-89.98"/>
</a>
</g>
</g>
<!-- Node14 -->
<g id="Node000014" class="node">
<title>Node14</title>
<g id="a_Node000014"><a xlink:href="../../de/d1a/container-dlist_8h.html#a71e7667ca0e4b896923788c5851afd24" target="_top" xlink:title="Put element e between prev and next.">
<polygon fill="white" stroke="#666666" points="1416,-49.33 1350.5,-49.33 1350.5,-30.08 1416,-30.08 1416,-49.33"/>
<text text-anchor="middle" x="1383.25" y="-35.83" font-family="Helvetica,sans-Serif" font-size="10.00">__dlist_add</text>
</a>
</g>
</g>
<!-- Node13&#45;&gt;Node14 -->
<g id="edge14_Node000013_Node000014" class="edge">
<title>Node13&#45;&gt;Node14</title>
<g id="a_edge14_Node000013_Node000014"><a xlink:title=" ">
<path fill="none" stroke="#63b8ff" d="M1267.7,-39.71C1287.8,-39.71 1315.67,-39.71 1338.89,-39.71"/>
<polygon fill="#63b8ff" stroke="#63b8ff" points="1338.69,-43.21 1348.69,-39.71 1338.69,-36.21 1338.69,-43.21"/>
</a>
</g>
</g>
<!-- Node17 -->
<g id="Node000017" class="node">
<title>Node17</title>
<g id="a_Node000017"><a xlink:href="../../df/d0a/str-l_8h.html#a6a200ca09358f19b13a8e297cda34869" target="_top" xlink:title="returns a constant copy of \v s.">
<polygon fill="white" stroke="#666666" points="1411.12,-213.33 1355.38,-213.33 1355.38,-194.08 1411.12,-194.08 1411.12,-213.33"/>
<text text-anchor="middle" x="1383.25" y="-199.83" font-family="Helvetica,sans-Serif" font-size="10.00">lstr_dupc</text>
</a>
</g>
</g>
<!-- Node16&#45;&gt;Node17 -->
<g id="edge17_Node000016_Node000017" class="edge">
<title>Node16&#45;&gt;Node17</title>
<g id="a_edge17_Node000016_Node000017"><a xlink:title=" ">
<path fill="none" stroke="#63b8ff" d="M1303.64,-195.93C1317.29,-197.28 1331.33,-198.67 1343.7,-199.89"/>
<polygon fill="#63b8ff" stroke="#63b8ff" points="1343.18,-203.36 1353.48,-200.86 1343.87,-196.39 1343.18,-203.36"/>
</a>
</g>
</g>
<!-- Node16&#45;&gt;Node19 -->
<g id="edge19_Node000016_Node000019" class="edge">
<title>Node16&#45;&gt;Node19</title>
<g id="a_edge19_Node000016_Node000019"><a xlink:title=" ">
<path fill="none" stroke="#63b8ff" d="M1302.81,-179.62C1316.91,-177.33 1331.48,-174.96 1344.23,-172.89"/>
<polygon fill="#63b8ff" stroke="#63b8ff" points="1344.56,-176.38 1353.87,-171.32 1343.43,-169.47 1344.56,-176.38"/>
</a>
</g>
</g>
<!-- Node18 -->
<g id="Node000018" class="node">
<title>Node18</title>
<g id="a_Node000018"><a xlink:href="../../df/d0a/str-l_8h.html#a3b4dbe9c4cc70340cba0787574dc1c5e" target="_top" xlink:title=" ">
<polygon fill="white" stroke="#666666" points="1740.75,-166.33 1688,-166.33 1688,-147.08 1740.75,-147.08 1740.75,-166.33"/>
<text text-anchor="middle" x="1714.38" y="-152.83" font-family="Helvetica,sans-Serif" font-size="10.00">lstr_init_</text>
</a>
</g>
</g>
<!-- Node17&#45;&gt;Node18 -->
<g id="edge18_Node000017_Node000018" class="edge">
<title>Node17&#45;&gt;Node18</title>
<g id="a_edge18_Node000017_Node000018"><a xlink:title=" ">
<path fill="none" stroke="#63b8ff" d="M1407.29,-193.71C1422.8,-187.44 1443.89,-179.8 1463.25,-175.71 1537.84,-159.95 1627.39,-156.86 1676.55,-156.48"/>
<polygon fill="#63b8ff" stroke="#63b8ff" points="1676.36,-159.98 1686.34,-156.44 1676.33,-152.98 1676.36,-159.98"/>
</a>
</g>
</g>
<!-- Node20 -->
<g id="Node000020" class="node">
<title>Node20</title>
<g id="a_Node000020"><a xlink:href="../../df/d0a/str-l_8h.html#a381cd831ac9616c5bea8213bb679d1ac" target="_top" xlink:title="Wipe a lstr_t (frees memory if needed).">
<polygon fill="white" stroke="#666666" points="1537,-204.33 1463.25,-204.33 1463.25,-185.08 1537,-185.08 1537,-204.33"/>
<text text-anchor="middle" x="1500.12" y="-190.83" font-family="Helvetica,sans-Serif" font-size="10.00">mp_lstr_wipe</text>
</a>
</g>
</g>
<!-- Node19&#45;&gt;Node20 -->
<g id="edge20_Node000019_Node000020" class="edge">
<title>Node19&#45;&gt;Node20</title>
<g id="a_edge20_Node000019_Node000020"><a xlink:title=" ">
<path fill="none" stroke="#63b8ff" d="M1411.18,-173.27C1423.32,-176.23 1438.02,-179.81 1451.9,-183.2"/>
<polygon fill="#63b8ff" stroke="#63b8ff" points="1450.78,-186.52 1461.32,-185.49 1452.44,-179.72 1450.78,-186.52"/>
</a>
</g>
</g>
<!-- Node21 -->
<g id="Node000021" class="node">
<title>Node21</title>
<g id="a_Node000021"><a xlink:href="../../de/d04/str-l_8c.html#abe2a3a71f0b4dbc7d37c59d16762b6fb" target="_top" xlink:title="lstr_copy_* helper.">
<polygon fill="white" stroke="#666666" points="1652,-204.33 1573,-204.33 1573,-185.08 1652,-185.08 1652,-204.33"/>
<text text-anchor="middle" x="1612.5" y="-190.83" font-family="Helvetica,sans-Serif" font-size="10.00">mp_lstr_copy_</text>
</a>
</g>
</g>
<!-- Node20&#45;&gt;Node21 -->
<g id="edge21_Node000020_Node000021" class="edge">
<title>Node20&#45;&gt;Node21</title>
<g id="a_edge21_Node000020_Node000021"><a xlink:title=" ">
<path fill="none" stroke="#63b8ff" d="M1537.27,-194.71C1544.96,-194.71 1553.21,-194.71 1561.32,-194.71"/>
<polygon fill="#63b8ff" stroke="#63b8ff" points="1561.1,-198.21 1571.1,-194.71 1561.1,-191.21 1561.1,-198.21"/>
</a>
</g>
</g>
<!-- Node21&#45;&gt;Node18 -->
<g id="edge27_Node000021_Node000018" class="edge">
<title>Node21&#45;&gt;Node18</title>
<g id="a_edge27_Node000021_Node000018"><a xlink:title=" ">
<path fill="none" stroke="#63b8ff" d="M1640,-184.62C1651.44,-180.27 1665.01,-175.11 1677.35,-170.42"/>
<polygon fill="#63b8ff" stroke="#63b8ff" points="1678.27,-173.81 1686.37,-166.98 1675.78,-167.27 1678.27,-173.81"/>
</a>
</g>
</g>
<!-- Node22 -->
<g id="Node000022" class="node">
<title>Node22</title>
<g id="a_Node000022"><a xlink:href="../../d9/d9a/mem_8h.html#aebbbd277e2952bdb802104671ba23ba9" target="_top" xlink:title=" ">
<polygon fill="white" stroke="#666666" points="1731.75,-219.33 1697,-219.33 1697,-200.08 1731.75,-200.08 1731.75,-219.33"/>
<text text-anchor="middle" x="1714.38" y="-205.83" font-family="Helvetica,sans-Serif" font-size="10.00">ifree</text>
</a>
</g>
</g>
<!-- Node21&#45;&gt;Node22 -->
<g id="edge22_Node000021_Node000022" class="edge">
<title>Node21&#45;&gt;Node22</title>
<g id="a_edge22_Node000021_Node000022"><a xlink:title=" ">
<path fill="none" stroke="#63b8ff" d="M1652.4,-200.55C1663.42,-202.2 1675.2,-203.97 1685.44,-205.51"/>
<polygon fill="#63b8ff" stroke="#63b8ff" points="1684.7,-208.94 1695.11,-206.96 1685.74,-202.02 1684.7,-208.94"/>
</a>
</g>
</g>
<!-- Node23 -->
<g id="Node000023" class="node">
<title>Node23</title>
<g id="a_Node000023"><a xlink:href="../../d8/d37/mem_8blk.html#a36b65ab346f1d0deed7b63c544c78f2b" target="_top" xlink:title=" ">
<polygon fill="white" stroke="#666666" points="1821.62,-313.33 1785.38,-313.33 1785.38,-294.08 1821.62,-294.08 1821.62,-313.33"/>
<text text-anchor="middle" x="1803.5" y="-299.83" font-family="Helvetica,sans-Serif" font-size="10.00">ipool</text>
</a>
</g>
</g>
<!-- Node22&#45;&gt;Node23 -->
<g id="edge23_Node000022_Node000023" class="edge">
<title>Node22&#45;&gt;Node23</title>
<g id="a_edge23_Node000022_Node000023"><a xlink:title=" ">
<path fill="none" stroke="#63b8ff" d="M1724.7,-219.77C1739.18,-235.39 1767.28,-265.71 1785.45,-285.31"/>
<polygon fill="#63b8ff" stroke="#63b8ff" points="1782.85,-287.65 1792.21,-292.61 1787.98,-282.9 1782.85,-287.65"/>
</a>
</g>
</g>
<!-- Node25 -->
<g id="Node000025" class="node">
<title>Node25</title>
<g id="a_Node000025"><a xlink:href="../../d8/d37/mem_8blk.html#a83c7cf203e5eef9d1a8c6c43cde3e2e5" target="_top" xlink:title=" ">
<polygon fill="white" stroke="#666666" points="1830.25,-219.33 1776.75,-219.33 1776.75,-200.08 1830.25,-200.08 1830.25,-219.33"/>
<text text-anchor="middle" x="1803.5" y="-205.83" font-family="Helvetica,sans-Serif" font-size="10.00">mp_ifree</text>
</a>
</g>
</g>
<!-- Node22&#45;&gt;Node25 -->
<g id="edge26_Node000022_Node000025" class="edge">
<title>Node22&#45;&gt;Node25</title>
<g id="a_edge26_Node000022_Node000025"><a xlink:title=" ">
<path fill="none" stroke="#63b8ff" d="M1732.17,-209.71C1741.59,-209.71 1753.74,-209.71 1765.28,-209.71"/>
<polygon fill="#63b8ff" stroke="#63b8ff" points="1764.98,-213.21 1774.98,-209.71 1764.98,-206.21 1764.98,-213.21"/>
</a>
</g>
</g>
<!-- Node23&#45;&gt;Node10 -->
<g id="edge24_Node000023_Node000010" class="edge">
<title>Node23&#45;&gt;Node10</title>
<g id="a_edge24_Node000023_Node000010"><a xlink:title=" ">
<path fill="none" stroke="#63b8ff" d="M1785.04,-303.71C1751.7,-303.71 1676.66,-303.71 1613.5,-303.71 1087.38,-303.71 1087.38,-303.71 1087.38,-303.71 1009.15,-303.71 982.49,-318.66 912.5,-283.71 891.69,-273.31 894.55,-260.39 876.5,-245.71 875.84,-245.17 875.17,-244.64 874.48,-244.12"/>
<polygon fill="#63b8ff" stroke="#63b8ff" points="876.59,-241.32 866.37,-238.52 872.62,-247.08 876.59,-241.32"/>
</a>
</g>
</g>
<!-- Node23&#45;&gt;Node24 -->
<g id="edge25_Node000023_Node000024" class="edge">
<title>Node23&#45;&gt;Node24</title>
<g id="a_edge25_Node000023_Node000024"><a xlink:title=" ">
<path fill="none" stroke="#63b8ff" d="M1821.86,-307.74C1831.41,-309.95 1843.55,-312.77 1854.72,-315.36"/>
<polygon fill="#63b8ff" stroke="#63b8ff" points="1853.85,-318.75 1864.38,-317.6 1855.43,-311.93 1853.85,-318.75"/>
</a>
</g>
</g>
<!-- Node29&#45;&gt;Node17 -->
<g id="edge36_Node000029_Node000017" class="edge">
<title>Node29&#45;&gt;Node17</title>
<g id="a_edge36_Node000029_Node000017"><a xlink:title=" ">
<path fill="none" stroke="#63b8ff" d="M989.44,-226.04C1050.44,-222.84 1187.73,-215.54 1303.25,-208.71 1316.48,-207.92 1330.96,-207.02 1343.87,-206.2"/>
<polygon fill="#63b8ff" stroke="#63b8ff" points="1343.93,-209.7 1353.69,-205.57 1343.48,-202.72 1343.93,-209.7"/>
</a>
</g>
</g>
<!-- Node30 -->
<g id="Node000030" class="node">
<title>Node30</title>
<g id="a_Node000030"><a xlink:href="../../d1/dc0/group__log.html#ga168a6f17b248f61f7d25a17d58d04e36" target="_top" xlink:title=" ">
<polygon fill="white" stroke="#666666" points="1132.75,-275.33 1044,-275.33 1044,-256.08 1132.75,-256.08 1132.75,-275.33"/>
<text text-anchor="middle" x="1088.38" y="-261.83" font-family="Helvetica,sans-Serif" font-size="10.00">logger_has_level</text>
</a>
</g>
</g>
<!-- Node29&#45;&gt;Node30 -->
<g id="edge33_Node000029_Node000030" class="edge">
<title>Node29&#45;&gt;Node30</title>
<g id="a_edge33_Node000029_Node000030"><a xlink:title=" ">
<path fill="none" stroke="#63b8ff" d="M989.6,-237.1C1005.38,-241.72 1024.66,-247.36 1041.92,-252.41"/>
<polygon fill="#63b8ff" stroke="#63b8ff" points="1040.88,-255.75 1051.46,-255.2 1042.84,-249.03 1040.88,-255.75"/>
</a>
</g>
</g>
<!-- Node31 -->
<g id="Node000031" class="node">
<title>Node31</title>
<g id="a_Node000031"><a xlink:href="../../d1/dc0/group__log.html#gaf388752b988541da0abeceecdf96e6b3" target="_top" xlink:title=" ">
<polygon fill="white" stroke="#666666" points="1283,-275.33 1196.5,-275.33 1196.5,-256.08 1283,-256.08 1283,-275.33"/>
<text text-anchor="middle" x="1239.75" y="-261.83" font-family="Helvetica,sans-Serif" font-size="10.00">logger_get_level</text>
</a>
</g>
</g>
<!-- Node30&#45;&gt;Node31 -->
<g id="edge34_Node000030_Node000031" class="edge">
<title>Node30&#45;&gt;Node31</title>
<g id="a_edge34_Node000030_Node000031"><a xlink:title=" ">
<path fill="none" stroke="#63b8ff" d="M1132.98,-265.71C1149.14,-265.71 1167.67,-265.71 1184.65,-265.71"/>
<polygon fill="#63b8ff" stroke="#63b8ff" points="1184.61,-269.21 1194.61,-265.71 1184.61,-262.21 1184.61,-269.21"/>
</a>
</g>
</g>
<!-- Node32 -->
<g id="Node000032" class="node">
<title>Node32</title>
<g id="a_Node000032"><a xlink:href="../../d1/dc0/group__log.html#ga93cbd623096e1704532d15b3eb30e42f" target="_top" xlink:title=" ">
<polygon fill="white" stroke="#666666" points="1427.25,-275.33 1339.25,-275.33 1339.25,-256.08 1427.25,-256.08 1427.25,-275.33"/>
<text text-anchor="middle" x="1383.25" y="-261.83" font-family="Helvetica,sans-Serif" font-size="10.00">__logger_refresh</text>
</a>
</g>
</g>
<!-- Node31&#45;&gt;Node32 -->
<g id="edge35_Node000031_Node000032" class="edge">
<title>Node31&#45;&gt;Node32</title>
<g id="a_edge35_Node000031_Node000032"><a xlink:title=" ">
<path fill="none" stroke="#63b8ff" d="M1283.2,-265.71C1297.08,-265.71 1312.69,-265.71 1327.35,-265.71"/>
<polygon fill="#63b8ff" stroke="#63b8ff" points="1327.33,-269.21 1337.33,-265.71 1327.33,-262.21 1327.33,-269.21"/>
</a>
</g>
</g>
<!-- Node35 -->
<g id="Node000035" class="node">
<title>Node35</title>
<g id="a_Node000035"><a xlink:href="../../d8/d96/bithacks_8h.html#ab80588fa9f8b9e766249edaf70558bdc" target="_top" xlink:title=" ">
<polygon fill="white" stroke="#666666" points="876.5,-274.33 816.25,-274.33 816.25,-255.08 876.5,-255.08 876.5,-274.33"/>
<text text-anchor="middle" x="846.38" y="-260.83" font-family="Helvetica,sans-Serif" font-size="10.00">bitcountsz</text>
</a>
</g>
</g>
<!-- Node34&#45;&gt;Node35 -->
<g id="edge39_Node000034_Node000035" class="edge">
<title>Node34&#45;&gt;Node35</title>
<g id="a_edge39_Node000034_Node000035"><a xlink:title=" ">
<path fill="none" stroke="#63b8ff" d="M768.82,-264.71C780.4,-264.71 793.12,-264.71 804.81,-264.71"/>
<polygon fill="#63b8ff" stroke="#63b8ff" points="804.56,-268.21 814.56,-264.71 804.56,-261.21 804.56,-268.21"/>
</a>
</g>
</g>
<!-- Node37 -->
<g id="Node000037" class="node">
<title>Node37</title>
<g id="a_Node000037"><a xlink:href="../../d8/d37/mem_8blk.html#a377e36d6fbaf3ee7f1b217559cb0c850" target="_top" xlink:title=" ">
<polygon fill="white" stroke="#666666" points="780.25,-311.33 678,-311.33 678,-292.08 780.25,-292.08 780.25,-311.33"/>
<text text-anchor="middle" x="729.12" y="-297.83" font-family="Helvetica,sans-Serif" font-size="10.00">__imalloc_too_large</text>
</a>
</g>
</g>
<!-- Node36&#45;&gt;Node37 -->
<g id="edge41_Node000036_Node000037" class="edge">
<title>Node36&#45;&gt;Node37</title>
<g id="a_edge41_Node000036_Node000037"><a xlink:title=" ">
<path fill="none" stroke="#63b8ff" d="M627.55,-276.83C642.81,-280.6 660.32,-284.94 676.42,-288.92"/>
<polygon fill="#63b8ff" stroke="#63b8ff" points="675.27,-292.24 685.82,-291.24 676.95,-285.44 675.27,-292.24"/>
</a>
</g>
</g>
<!-- Node38&#45;&gt;Node18 -->
<g id="edge43_Node000038_Node000018" class="edge">
<title>Node38&#45;&gt;Node18</title>
<g id="a_edge43_Node000038_Node000018"><a xlink:title=" ">
<path fill="none" stroke="#63b8ff" d="M1523.84,-72.77C1561.5,-89.45 1637.02,-122.89 1680.5,-142.15"/>
<polygon fill="#63b8ff" stroke="#63b8ff" points="1678.88,-145.26 1689.44,-146.11 1681.71,-138.86 1678.88,-145.26"/>
</a>
</g>
</g>
</g>
</svg>

<g id="navigator" transform="translate(0 0)" fill="#404254">
  <rect fill="#f2f5e9" fill-opacity="0.5" stroke="#606060" stroke-width=".5" x="0" y="0" width="60" height="60"/>
  <use id="zoomplus" xlink:href="#zoomPlus" x="17" y="9" onmousedown="handleZoom(evt,'in')"/>
  <use id="zoomminus" xlink:href="#zoomMin" x="42" y="9" onmousedown="handleZoom(evt,'out')"/>
  <use id="reset" xlink:href="#resetDef" x="30" y="36" onmousedown="handleReset()"/>
   <use id="arrowup" xlink:href="#arrowUp" x="0" y="0" onmousedown="handlePan(0,-1)"/>
  <use id="arrowright" xlink:href="#arrowRight" x="0" y="0" onmousedown="handlePan(1,0)"/>
  <use id="arrowdown" xlink:href="#arrowDown" x="0" y="0" onmousedown="handlePan(0,1)"/>
  <use id="arrowleft" xlink:href="#arrowLeft" x="0" y="0" onmousedown="handlePan(-1,0)"/>
</g>
<svg viewBox="0 0 15 15" width="100%" height="30px" preserveAspectRatio="xMaxYMin meet">
 <g id="arrow_out" transform="scale(0.3 0.3)">
  <a xlink:href="snmp-doc_8c_a57c002028209db7cae61a25f917f7cea_cgraph_org.svg" target="_base">
   <rect id="button" ry="5" rx="5" y="6" x="6" height="38" width="38"
        fill="#f2f5e9" fill-opacity="0.5" stroke="#606060" stroke-width="1.0"/>
   <path id="arrow"
     d="M 11.500037,31.436501 C 11.940474,20.09759 22.043105,11.32322 32.158766,21.979434 L 37.068811,17.246167 C 37.068811,17.246167 37.088388,32 37.088388,32 L 22.160133,31.978069 C 22.160133,31.978069 26.997745,27.140456 26.997745,27.140456 C 18.528582,18.264221 13.291696,25.230495 11.500037,31.436501 z"
     style="fill:#404040;"/>
  </a>
 </g>
</svg>

<style type='text/css'>
<![CDATA[
[data-mouse-over-selected='false'] { opacity: 0.7; }
[data-mouse-over-selected='true']  { opacity: 1.0; }
]]>
</style>
<script type="application/ecmascript"><![CDATA[
document.addEventListener('DOMContentLoaded', (event) => {
  highlightEdges();
  highlightAdjacentNodes();
});
]]></script>
</svg>
