<?xml version="1.0" encoding="UTF-8" standalone="no"?>
<!DOCTYPE svg PUBLIC "-//W3C//DTD SVG 1.1//EN"
 "http://www.w3.org/Graphics/SVG/1.1/DTD/svg11.dtd">
<!-- Generated by graphviz version 9.0.0 (20230911.1827)
 -->
<!-- Title: t_yaml_string_to_iop_field Pages: 1 -->
<svg width="1990pt" height="359pt"
 viewBox="0.00 0.00 1990.00 359.33" xmlns="http://www.w3.org/2000/svg" xmlns:xlink="http://www.w3.org/1999/xlink">
<g id="graph0" class="graph" transform="scale(1 1) rotate(0) translate(4 355.33)">
<title>t_yaml_string_to_iop_field</title>
<!-- Node1 -->
<g id="Node000001" class="node">
<title>Node1</title>
<g id="a_Node000001"><a xlink:title=" ">
<polygon fill="#999999" stroke="#666666" points="105.25,-337.96 0,-337.96 0,-307.46 105.25,-307.46 105.25,-337.96"/>
<text text-anchor="start" x="8" y="-324.46" font-family="Helvetica,sans-Serif" font-size="10.00">t_yaml_string_to_iop</text>
<text text-anchor="middle" x="52.62" y="-313.21" font-family="Helvetica,sans-Serif" font-size="10.00">_field</text>
</a>
</g>
</g>
<!-- Node2 -->
<g id="Node000002" class="node">
<title>Node2</title>
<g id="a_Node000002"><a xlink:href="../../d3/d40/iop_8h.html#a3e7264eb6cc7f17710cdca957013b06f" target="_top" xlink:title="Convert a lstr_t to its integer value using an IOP enum mapping.">
<polygon fill="white" stroke="#666666" points="269,-351.33 141.25,-351.33 141.25,-332.08 269,-332.08 269,-351.33"/>
<text text-anchor="middle" x="205.12" y="-337.83" font-family="Helvetica,sans-Serif" font-size="10.00">iop_enum_from_lstr_desc</text>
</a>
</g>
</g>
<!-- Node1&#45;&gt;Node2 -->
<g id="edge1_Node000001_Node000002" class="edge">
<title>Node1&#45;&gt;Node2</title>
<g id="a_edge1_Node000001_Node000002"><a xlink:title=" ">
<path fill="none" stroke="#63b8ff" d="M105.42,-329.25C113.16,-330.22 121.28,-331.25 129.38,-332.27"/>
<polygon fill="#63b8ff" stroke="#63b8ff" points="128.93,-335.74 139.29,-333.52 129.81,-328.8 128.93,-335.74"/>
</a>
</g>
</g>
<!-- Node3 -->
<g id="Node000003" class="node">
<title>Node3</title>
<g id="a_Node000003"><a xlink:href="../../df/d0a/str-l_8h.html#a93860e0a444ab8a423d79b7818a28345" target="_top" xlink:title="returns a duplicated lstr from the mem stack.">
<polygon fill="white" stroke="#666666" points="234.5,-314.33 175.75,-314.33 175.75,-295.08 234.5,-295.08 234.5,-314.33"/>
<text text-anchor="middle" x="205.12" y="-300.83" font-family="Helvetica,sans-Serif" font-size="10.00">t_lstr_dup</text>
</a>
</g>
</g>
<!-- Node1&#45;&gt;Node3 -->
<g id="edge2_Node000001_Node000003" class="edge">
<title>Node1&#45;&gt;Node3</title>
<g id="a_edge2_Node000001_Node000003"><a xlink:title=" ">
<path fill="none" stroke="#63b8ff" d="M105.42,-316.51C124.67,-314.21 146.2,-311.64 164.22,-309.48"/>
<polygon fill="#63b8ff" stroke="#63b8ff" points="164.49,-312.97 174,-308.31 163.65,-306.02 164.49,-312.97"/>
</a>
</g>
</g>
<!-- Node4 -->
<g id="Node000004" class="node">
<title>Node4</title>
<g id="a_Node000004"><a xlink:href="../../de/d04/str-l_8c.html#a721e56afb064f7233eda0184065df9bb" target="_top" xlink:title="Returns new mp allocated lstr from its arguments.">
<polygon fill="white" stroke="#666666" points="374.25,-295.33 305,-295.33 305,-276.08 374.25,-276.08 374.25,-295.33"/>
<text text-anchor="middle" x="339.62" y="-281.83" font-family="Helvetica,sans-Serif" font-size="10.00">mp_lstr_dup</text>
</a>
</g>
</g>
<!-- Node3&#45;&gt;Node4 -->
<g id="edge3_Node000003_Node000004" class="edge">
<title>Node3&#45;&gt;Node4</title>
<g id="a_edge3_Node000003_Node000004"><a xlink:title=" ">
<path fill="none" stroke="#63b8ff" d="M234.88,-300.58C251.97,-298.13 274.04,-294.97 293.43,-292.19"/>
<polygon fill="#63b8ff" stroke="#63b8ff" points="293.87,-295.66 303.28,-290.78 292.88,-288.73 293.87,-295.66"/>
</a>
</g>
</g>
<!-- Node25 -->
<g id="Node000025" class="node">
<title>Node25</title>
<g id="a_Node000025"><a xlink:href="../../d1/d10/mem-stack_8h.html#a1d0e2a29f86dc033a02e50484b527fd0" target="_top" xlink:title=" ">
<polygon fill="white" stroke="#666666" points="1982,-332.33 1939.75,-332.33 1939.75,-313.08 1982,-313.08 1982,-332.33"/>
<text text-anchor="middle" x="1960.88" y="-318.83" font-family="Helvetica,sans-Serif" font-size="10.00">t_pool</text>
</a>
</g>
</g>
<!-- Node3&#45;&gt;Node25 -->
<g id="edge45_Node000003_Node000025" class="edge">
<title>Node3&#45;&gt;Node25</title>
<g id="a_edge45_Node000003_Node000025"><a xlink:title=" ">
<path fill="none" stroke="#63b8ff" d="M234.65,-312.28C277.99,-323.11 363.15,-341.71 436.75,-341.71 436.75,-341.71 436.75,-341.71 1788.88,-341.71 1837.77,-341.71 1894.06,-333.94 1928.29,-328.34"/>
<polygon fill="#63b8ff" stroke="#63b8ff" points="1928.65,-331.82 1937.93,-326.71 1927.49,-324.92 1928.65,-331.82"/>
</a>
</g>
</g>
<!-- Node5 -->
<g id="Node000005" class="node">
<title>Node5</title>
<g id="a_Node000005"><a xlink:href="../../d9/d9a/mem_8h.html#afb82bc4c2f614b07ba2987edb2fb12a2" target="_top" xlink:title=" ">
<polygon fill="white" stroke="#666666" points="465.25,-295.33 410.25,-295.33 410.25,-276.08 465.25,-276.08 465.25,-295.33"/>
<text text-anchor="middle" x="437.75" y="-281.83" font-family="Helvetica,sans-Serif" font-size="10.00">mp_dupz</text>
</a>
</g>
</g>
<!-- Node4&#45;&gt;Node5 -->
<g id="edge4_Node000004_Node000005" class="edge">
<title>Node4&#45;&gt;Node5</title>
<g id="a_edge4_Node000004_Node000005"><a xlink:title=" ">
<path fill="none" stroke="#63b8ff" d="M374.52,-285.71C382.29,-285.71 390.6,-285.71 398.54,-285.71"/>
<polygon fill="#63b8ff" stroke="#63b8ff" points="398.29,-289.21 408.29,-285.71 398.29,-282.21 398.29,-289.21"/>
</a>
</g>
</g>
<!-- Node39 -->
<g id="Node000039" class="node">
<title>Node39</title>
<g id="a_Node000039"><a xlink:href="../../df/d0a/str-l_8h.html#afaa32126aa321a4b319e39433d0e7f26" target="_top" xlink:title=" ">
<polygon fill="white" stroke="#666666" points="1606.75,-72.33 1540.5,-72.33 1540.5,-53.08 1606.75,-53.08 1606.75,-72.33"/>
<text text-anchor="middle" x="1573.62" y="-58.83" font-family="Helvetica,sans-Serif" font-size="10.00">mp_lstr_init</text>
</a>
</g>
</g>
<!-- Node4&#45;&gt;Node39 -->
<g id="edge43_Node000004_Node000039" class="edge">
<title>Node4&#45;&gt;Node39</title>
<g id="a_edge43_Node000004_Node000039"><a xlink:title=" ">
<path fill="none" stroke="#63b8ff" d="M342.27,-275.6C351.11,-225.01 397.82,-1.71 533,-1.71 533,-1.71 533,-1.71 1314.25,-1.71 1397.57,-1.71 1421.54,5.12 1500.75,-20.71 1518.38,-26.45 1536.39,-36.99 1549.97,-46.07"/>
<polygon fill="#63b8ff" stroke="#63b8ff" points="1547.96,-48.94 1558.17,-51.76 1551.96,-43.19 1547.96,-48.94"/>
</a>
</g>
</g>
<!-- Node6 -->
<g id="Node000006" class="node">
<title>Node6</title>
<g id="a_Node000006"><a xlink:href="../../d9/d9a/mem_8h.html#af52b7a33884b452f86de916d8109b8f1" target="_top" xlink:title=" ">
<polygon fill="white" stroke="#666666" points="562.62,-313.33 505.38,-313.33 505.38,-294.08 562.62,-294.08 562.62,-313.33"/>
<text text-anchor="middle" x="534" y="-299.83" font-family="Helvetica,sans-Serif" font-size="10.00">memcpyz</text>
</a>
</g>
</g>
<!-- Node5&#45;&gt;Node6 -->
<g id="edge5_Node000005_Node000006" class="edge">
<title>Node5&#45;&gt;Node6</title>
<g id="a_edge5_Node000005_Node000006"><a xlink:title=" ">
<path fill="none" stroke="#63b8ff" d="M465.51,-290.82C474.42,-292.52 484.55,-294.45 494.19,-296.3"/>
<polygon fill="#63b8ff" stroke="#63b8ff" points="493.23,-299.67 503.71,-298.11 494.54,-292.8 493.23,-299.67"/>
</a>
</g>
</g>
<!-- Node8 -->
<g id="Node000008" class="node">
<title>Node8</title>
<g id="a_Node000008"><a xlink:href="../../d9/d9a/mem_8h.html#ada6bb9661f0c10ccaa14d231c24aeafd" target="_top" xlink:title=" ">
<polygon fill="white" stroke="#666666" points="566.75,-276.33 501.25,-276.33 501.25,-257.08 566.75,-257.08 566.75,-276.33"/>
<text text-anchor="middle" x="534" y="-262.83" font-family="Helvetica,sans-Serif" font-size="10.00">mp_imalloc</text>
</a>
</g>
</g>
<!-- Node5&#45;&gt;Node8 -->
<g id="edge7_Node000005_Node000008" class="edge">
<title>Node5&#45;&gt;Node8</title>
<g id="a_edge7_Node000005_Node000008"><a xlink:title=" ">
<path fill="none" stroke="#63b8ff" d="M465.51,-280.31C473.06,-278.79 481.49,-277.09 489.75,-275.43"/>
<polygon fill="#63b8ff" stroke="#63b8ff" points="490.23,-278.9 499.34,-273.49 488.85,-272.04 490.23,-278.9"/>
</a>
</g>
</g>
<!-- Node7 -->
<g id="Node000007" class="node">
<title>Node7</title>
<g id="a_Node000007"><a xlink:href="../../d9/d9a/mem_8h.html#af3794c657c3ffd55b9771dcaeec60c02" target="_top" xlink:title=" ">
<polygon fill="white" stroke="#666666" points="688.12,-313.33 630.12,-313.33 630.12,-294.08 688.12,-294.08 688.12,-313.33"/>
<text text-anchor="middle" x="659.12" y="-299.83" font-family="Helvetica,sans-Serif" font-size="10.00">mempcpy</text>
</a>
</g>
</g>
<!-- Node6&#45;&gt;Node7 -->
<g id="edge6_Node000006_Node000007" class="edge">
<title>Node6&#45;&gt;Node7</title>
<g id="a_edge6_Node000006_Node000007"><a xlink:title=" ">
<path fill="none" stroke="#63b8ff" d="M562.94,-303.71C579.35,-303.71 600.36,-303.71 618.47,-303.71"/>
<polygon fill="#63b8ff" stroke="#63b8ff" points="618.36,-307.21 628.36,-303.71 618.36,-300.21 618.36,-307.21"/>
</a>
</g>
</g>
<!-- Node9 -->
<g id="Node000009" class="node">
<title>Node9</title>
<g id="a_Node000009"><a xlink:href="../../d8/d37/mem_8blk.html#a5666a1403bcf2bd8e114c23f8021d1ac" target="_top" xlink:title=" ">
<polygon fill="white" stroke="#666666" points="697.12,-239.33 621.12,-239.33 621.12,-220.08 697.12,-220.08 697.12,-239.33"/>
<text text-anchor="middle" x="659.12" y="-225.83" font-family="Helvetica,sans-Serif" font-size="10.00">__mp_imalloc</text>
</a>
</g>
</g>
<!-- Node8&#45;&gt;Node9 -->
<g id="edge8_Node000008_Node000009" class="edge">
<title>Node8&#45;&gt;Node9</title>
<g id="a_edge8_Node000008_Node000009"><a xlink:title=" ">
<path fill="none" stroke="#63b8ff" d="M567.03,-257.08C581.25,-252.81 598.22,-247.71 613.64,-243.07"/>
<polygon fill="#63b8ff" stroke="#63b8ff" points="614.52,-246.47 623.09,-240.24 612.5,-239.76 614.52,-246.47"/>
</a>
</g>
</g>
<!-- Node37 -->
<g id="Node000037" class="node">
<title>Node37</title>
<g id="a_Node000037"><a xlink:href="../../d9/d9a/mem_8h.html#ae99e17ad0b27e94e8a00c8af9734a0e7" target="_top" xlink:title=" ">
<polygon fill="white" stroke="#666666" points="715.5,-276.33 602.75,-276.33 602.75,-257.08 715.5,-257.08 715.5,-276.33"/>
<text text-anchor="middle" x="659.12" y="-262.83" font-family="Helvetica,sans-Serif" font-size="10.00">icheck_alloc_constant</text>
</a>
</g>
</g>
<!-- Node8&#45;&gt;Node37 -->
<g id="edge41_Node000008_Node000037" class="edge">
<title>Node8&#45;&gt;Node37</title>
<g id="a_edge41_Node000008_Node000037"><a xlink:title=" ">
<path fill="none" stroke="#63b8ff" d="M567.03,-266.71C574.47,-266.71 582.68,-266.71 591.01,-266.71"/>
<polygon fill="#63b8ff" stroke="#63b8ff" points="590.9,-270.21 600.9,-266.71 590.9,-263.21 590.9,-270.21"/>
</a>
</g>
</g>
<!-- Node10 -->
<g id="Node000010" class="node">
<title>Node10</title>
<g id="a_Node000010"><a xlink:href="../../d8/d37/mem_8blk.html#a8e4fbf6500e65079c31e3fd933ae7dc1" target="_top" xlink:title=" ">
<polygon fill="white" stroke="#666666" points="837.62,-237.33 767.62,-237.33 767.62,-218.08 837.62,-218.08 837.62,-237.33"/>
<text text-anchor="middle" x="802.62" y="-223.83" font-family="Helvetica,sans-Serif" font-size="10.00">icheck_alloc</text>
</a>
</g>
</g>
<!-- Node9&#45;&gt;Node10 -->
<g id="edge9_Node000009_Node000010" class="edge">
<title>Node9&#45;&gt;Node10</title>
<g id="a_edge9_Node000009_Node000010"><a xlink:title=" ">
<path fill="none" stroke="#63b8ff" d="M697.3,-229.18C715.34,-228.93 737.17,-228.62 756.18,-228.35"/>
<polygon fill="#63b8ff" stroke="#63b8ff" points="756.14,-231.85 766.09,-228.21 756.04,-224.85 756.14,-231.85"/>
</a>
</g>
</g>
<!-- Node35 -->
<g id="Node000035" class="node">
<title>Node35</title>
<g id="a_Node000035"><a xlink:href="../../d9/d9a/mem_8h.html#af42ab5c21de0c723b2a55403e5441fda" target="_top" xlink:title=" ">
<polygon fill="white" stroke="#666666" points="842.12,-274.33 763.12,-274.33 763.12,-255.08 842.12,-255.08 842.12,-274.33"/>
<text text-anchor="middle" x="802.62" y="-260.83" font-family="Helvetica,sans-Serif" font-size="10.00">mem_bit_align</text>
</a>
</g>
</g>
<!-- Node9&#45;&gt;Node35 -->
<g id="edge39_Node000009_Node000035" class="edge">
<title>Node9&#45;&gt;Node35</title>
<g id="a_edge39_Node000009_Node000035"><a xlink:title=" ">
<path fill="none" stroke="#63b8ff" d="M697.3,-238.9C713.9,-243.01 733.72,-247.91 751.6,-252.33"/>
<polygon fill="#63b8ff" stroke="#63b8ff" points="750.7,-255.72 761.25,-254.72 752.38,-248.92 750.7,-255.72"/>
</a>
</g>
</g>
<!-- Node11 -->
<g id="Node000011" class="node">
<title>Node11</title>
<g id="a_Node000011"><a xlink:href="../../d7/df8/log_8c.html#abca342edf91a9b45f7a17ef564fa8a53" target="_top" xlink:title=" ">
<polygon fill="white" stroke="#666666" points="944.75,-237.33 895,-237.33 895,-218.08 944.75,-218.08 944.75,-237.33"/>
<text text-anchor="middle" x="919.88" y="-223.83" font-family="Helvetica,sans-Serif" font-size="10.00">e_panic</text>
</a>
</g>
</g>
<!-- Node10&#45;&gt;Node11 -->
<g id="edge10_Node000010_Node000011" class="edge">
<title>Node10&#45;&gt;Node11</title>
<g id="a_edge10_Node000010_Node000011"><a xlink:title=" ">
<path fill="none" stroke="#63b8ff" d="M837.89,-227.71C852.34,-227.71 869.15,-227.71 883.7,-227.71"/>
<polygon fill="#63b8ff" stroke="#63b8ff" points="883.28,-231.21 893.28,-227.71 883.28,-224.21 883.28,-231.21"/>
</a>
</g>
</g>
<!-- Node12 -->
<g id="Node000012" class="node">
<title>Node12</title>
<g id="a_Node000012"><a xlink:href="../../d7/df8/log_8c.html#a4bc04f7baa1e064cb0b93c7b9f3a61a1" target="_top" xlink:title=" ">
<polygon fill="white" stroke="#666666" points="1074,-124.33 986,-124.33 986,-105.08 1074,-105.08 1074,-124.33"/>
<text text-anchor="middle" x="1030" y="-110.83" font-family="Helvetica,sans-Serif" font-size="10.00">__logger_refresh</text>
</a>
</g>
</g>
<!-- Node11&#45;&gt;Node12 -->
<g id="edge11_Node000011_Node000012" class="edge">
<title>Node11&#45;&gt;Node12</title>
<g id="a_edge11_Node000011_Node000012"><a xlink:title=" ">
<path fill="none" stroke="#63b8ff" d="M930.47,-217.68C948.71,-198.62 988.62,-156.91 1011.66,-132.83"/>
<polygon fill="#63b8ff" stroke="#63b8ff" points="1014.15,-135.29 1018.53,-125.64 1009.09,-130.45 1014.15,-135.29"/>
</a>
</g>
</g>
<!-- Node30 -->
<g id="Node000030" class="node">
<title>Node30</title>
<g id="a_Node000030"><a xlink:href="../../d7/df8/log_8c.html#a900490b26df7698aac12f7f7e6517e81" target="_top" xlink:title=" ">
<polygon fill="white" stroke="#666666" points="1062.75,-237.33 997.25,-237.33 997.25,-218.08 1062.75,-218.08 1062.75,-237.33"/>
<text text-anchor="middle" x="1030" y="-223.83" font-family="Helvetica,sans-Serif" font-size="10.00">logger_vlog</text>
</a>
</g>
</g>
<!-- Node11&#45;&gt;Node30 -->
<g id="edge33_Node000011_Node000030" class="edge">
<title>Node11&#45;&gt;Node30</title>
<g id="a_edge33_Node000011_Node000030"><a xlink:title=" ">
<path fill="none" stroke="#63b8ff" d="M945.14,-227.71C957.11,-227.71 971.91,-227.71 985.72,-227.71"/>
<polygon fill="#63b8ff" stroke="#63b8ff" points="985.5,-231.21 995.5,-227.71 985.5,-224.21 985.5,-231.21"/>
</a>
</g>
</g>
<!-- Node34 -->
<g id="Node000034" class="node">
<title>Node34</title>
<g id="a_Node000034"><a xlink:href="../../d2/d4d/file_8h.html#a25419a391fdd4ad7954699c58cfeb3b9" target="_top" xlink:title=" ">
<polygon fill="white" stroke="#666666" points="1055.62,-274.33 1004.38,-274.33 1004.38,-255.08 1055.62,-255.08 1055.62,-274.33"/>
<text text-anchor="middle" x="1030" y="-260.83" font-family="Helvetica,sans-Serif" font-size="10.00">va_start</text>
</a>
</g>
</g>
<!-- Node11&#45;&gt;Node34 -->
<g id="edge38_Node000011_Node000034" class="edge">
<title>Node11&#45;&gt;Node34</title>
<g id="a_edge38_Node000011_Node000034"><a xlink:title=" ">
<path fill="none" stroke="#63b8ff" d="M945.14,-236.01C959.41,-240.89 977.7,-247.15 993.56,-252.58"/>
<polygon fill="#63b8ff" stroke="#63b8ff" points="992.04,-255.76 1002.63,-255.68 994.31,-249.14 992.04,-255.76"/>
</a>
</g>
</g>
<!-- Node13 -->
<g id="Node000013" class="node">
<title>Node13</title>
<g id="a_Node000013"><a xlink:href="../../d7/df8/log_8c.html#a3dbd75fb614210f0b114cfd03c9c0a7b" target="_top" xlink:title=" ">
<polygon fill="white" stroke="#666666" points="1213.75,-142.33 1110,-142.33 1110,-123.08 1213.75,-123.08 1213.75,-142.33"/>
<text text-anchor="middle" x="1161.88" y="-128.83" font-family="Helvetica,sans-Serif" font-size="10.00">__logger_do_refresh</text>
</a>
</g>
</g>
<!-- Node12&#45;&gt;Node13 -->
<g id="edge12_Node000012_Node000013" class="edge">
<title>Node12&#45;&gt;Node13</title>
<g id="a_edge12_Node000012_Node000013"><a xlink:title=" ">
<path fill="none" stroke="#63b8ff" d="M1074.25,-120.7C1082.06,-121.78 1090.34,-122.93 1098.57,-124.07"/>
<polygon fill="#63b8ff" stroke="#63b8ff" points="1097.83,-127.5 1108.21,-125.41 1098.79,-120.57 1097.83,-127.5"/>
</a>
</g>
</g>
<!-- Node28 -->
<g id="Node000028" class="node">
<title>Node28</title>
<g id="a_Node000028"><a xlink:href="../../d7/df8/log_8c.html#a7b1b02d1986e1247c2f571af4a2c2854" target="_top" xlink:title=" ">
<polygon fill="white" stroke="#666666" points="1199.5,-105.33 1124.25,-105.33 1124.25,-86.08 1199.5,-86.08 1199.5,-105.33"/>
<text text-anchor="middle" x="1161.88" y="-91.83" font-family="Helvetica,sans-Serif" font-size="10.00">log_spin_lock</text>
</a>
</g>
</g>
<!-- Node12&#45;&gt;Node28 -->
<g id="edge31_Node000012_Node000028" class="edge">
<title>Node12&#45;&gt;Node28</title>
<g id="a_edge31_Node000012_Node000028"><a xlink:title=" ">
<path fill="none" stroke="#63b8ff" d="M1074.25,-108.38C1086.56,-106.58 1100.05,-104.6 1112.65,-102.76"/>
<polygon fill="#63b8ff" stroke="#63b8ff" points="1113.01,-106.25 1122.4,-101.34 1112,-99.32 1113.01,-106.25"/>
</a>
</g>
</g>
<!-- Node29 -->
<g id="Node000029" class="node">
<title>Node29</title>
<g id="a_Node000029"><a xlink:href="../../d1/dc0/group__log.html#ga045020bb4af234632f7761f220131c69" target="_top" xlink:title=" ">
<polygon fill="white" stroke="#666666" points="1204.75,-68.33 1119,-68.33 1119,-49.08 1204.75,-49.08 1204.75,-68.33"/>
<text text-anchor="middle" x="1161.88" y="-54.83" font-family="Helvetica,sans-Serif" font-size="10.00">log_spin_unlock</text>
</a>
</g>
</g>
<!-- Node12&#45;&gt;Node29 -->
<g id="edge32_Node000012_Node000029" class="edge">
<title>Node12&#45;&gt;Node29</title>
<g id="a_edge32_Node000012_Node000029"><a xlink:title=" ">
<path fill="none" stroke="#63b8ff" d="M1050.21,-104.74C1066.05,-96.71 1089.2,-85.36 1110,-76.71 1113.33,-75.32 1116.81,-73.95 1120.32,-72.61"/>
<polygon fill="#63b8ff" stroke="#63b8ff" points="1121.22,-76.01 1129.39,-69.26 1118.8,-69.44 1121.22,-76.01"/>
</a>
</g>
</g>
<!-- Node13&#45;&gt;Node13 -->
<g id="edge13_Node000013_Node000013" class="edge">
<title>Node13&#45;&gt;Node13</title>
<g id="a_edge13_Node000013_Node000013"><a xlink:title=" ">
<path fill="none" stroke="#63b8ff" d="M1141.23,-142.62C1131.81,-151.23 1138.69,-160.33 1161.88,-160.33 1174.55,-160.33 1182.35,-157.61 1185.28,-153.73"/>
<polygon fill="#63b8ff" stroke="#63b8ff" points="1188.69,-152.95 1182.89,-144.09 1181.9,-154.64 1188.69,-152.95"/>
</a>
</g>
</g>
<!-- Node14 -->
<g id="Node000014" class="node">
<title>Node14</title>
<g id="a_Node000014"><a xlink:href="../../de/d1a/container-dlist_8h.html#a3b6f65860b212e28f2e28e71eb54d54d" target="_top" xlink:title="Add element e at the head of list l (suited for LIFO).">
<polygon fill="white" stroke="#666666" points="1340.75,-49.33 1285.75,-49.33 1285.75,-30.08 1340.75,-30.08 1340.75,-49.33"/>
<text text-anchor="middle" x="1313.25" y="-35.83" font-family="Helvetica,sans-Serif" font-size="10.00">dlist_add</text>
</a>
</g>
</g>
<!-- Node13&#45;&gt;Node14 -->
<g id="edge14_Node000013_Node000014" class="edge">
<title>Node13&#45;&gt;Node14</title>
<g id="a_edge14_Node000013_Node000014"><a xlink:title=" ">
<path fill="none" stroke="#63b8ff" d="M1200.53,-122.67C1205.25,-120.49 1209.8,-117.86 1213.75,-114.71 1237.17,-96.01 1225.79,-75.7 1249.75,-57.71 1256.91,-52.33 1265.63,-48.56 1274.25,-45.92"/>
<polygon fill="#63b8ff" stroke="#63b8ff" points="1275.12,-49.31 1283.93,-43.42 1273.37,-42.53 1275.12,-49.31"/>
</a>
</g>
</g>
<!-- Node16 -->
<g id="Node000016" class="node">
<title>Node16</title>
<g id="a_Node000016"><a xlink:href="../../de/d1a/container-dlist_8h.html#a0a69e401f6ec15966c891e96ad864c77" target="_top" xlink:title="Put a dlist_t element in a safe and detached state.">
<polygon fill="white" stroke="#666666" points="1339.25,-123.33 1287.25,-123.33 1287.25,-104.08 1339.25,-104.08 1339.25,-123.33"/>
<text text-anchor="middle" x="1313.25" y="-109.83" font-family="Helvetica,sans-Serif" font-size="10.00">dlist_init</text>
</a>
</g>
</g>
<!-- Node13&#45;&gt;Node16 -->
<g id="edge16_Node000013_Node000016" class="edge">
<title>Node13&#45;&gt;Node16</title>
<g id="a_edge16_Node000013_Node000016"><a xlink:title=" ">
<path fill="none" stroke="#63b8ff" d="M1213.86,-126.22C1234.2,-123.63 1257.16,-120.71 1275.78,-118.35"/>
<polygon fill="#63b8ff" stroke="#63b8ff" points="1276.05,-121.84 1285.53,-117.11 1275.17,-114.9 1276.05,-121.84"/>
</a>
</g>
</g>
<!-- Node17 -->
<g id="Node000017" class="node">
<title>Node17</title>
<g id="a_Node000017"><a xlink:href="../../d7/df8/log_8c.html#a4c8fbe8648573312126ce341cf34cba1" target="_top" xlink:title=" ">
<polygon fill="white" stroke="#666666" points="1376.75,-199.33 1249.75,-199.33 1249.75,-180.08 1376.75,-180.08 1376.75,-199.33"/>
<text text-anchor="middle" x="1313.25" y="-185.83" font-family="Helvetica,sans-Serif" font-size="10.00">logger_compute_fullname</text>
</a>
</g>
</g>
<!-- Node13&#45;&gt;Node17 -->
<g id="edge17_Node000013_Node000017" class="edge">
<title>Node13&#45;&gt;Node17</title>
<g id="a_edge17_Node000013_Node000017"><a xlink:title=" ">
<path fill="none" stroke="#63b8ff" d="M1189.24,-142.77C1213.16,-151.9 1248.68,-165.45 1275.41,-175.65"/>
<polygon fill="#63b8ff" stroke="#63b8ff" points="1273.9,-178.82 1284.49,-179.11 1276.39,-172.28 1273.9,-178.82"/>
</a>
</g>
</g>
<!-- Node20 -->
<g id="Node000020" class="node">
<title>Node20</title>
<g id="a_Node000020"><a xlink:href="../../df/d0a/str-l_8h.html#ad74dae07179370f3c22e3f026157926e" target="_top" xlink:title="wipe a lstr_t (frees memory if needed).">
<polygon fill="white" stroke="#666666" points="1484.25,-176.33 1429.25,-176.33 1429.25,-157.08 1484.25,-157.08 1484.25,-176.33"/>
<text text-anchor="middle" x="1456.75" y="-162.83" font-family="Helvetica,sans-Serif" font-size="10.00">lstr_wipe</text>
</a>
</g>
</g>
<!-- Node13&#45;&gt;Node20 -->
<g id="edge30_Node000013_Node000020" class="edge">
<title>Node13&#45;&gt;Node20</title>
<g id="a_edge30_Node000013_Node000020"><a xlink:title=" ">
<path fill="none" stroke="#63b8ff" d="M1214.23,-138.67C1272.36,-145.42 1365.74,-156.26 1417.71,-162.29"/>
<polygon fill="#63b8ff" stroke="#63b8ff" points="1417.22,-165.76 1427.56,-163.43 1418.03,-158.8 1417.22,-165.76"/>
</a>
</g>
</g>
<!-- Node27 -->
<g id="Node000027" class="node">
<title>Node27</title>
<g id="a_Node000027"><a xlink:href="../../df/d0a/str-l_8h.html#a963c22b229774d4b7c106bae4011cb8e" target="_top" xlink:title="Returns whether \v s1 and \v s2 contents are equal.">
<polygon fill="white" stroke="#666666" points="1342.25,-86.33 1284.25,-86.33 1284.25,-67.08 1342.25,-67.08 1342.25,-86.33"/>
<text text-anchor="middle" x="1313.25" y="-72.83" font-family="Helvetica,sans-Serif" font-size="10.00">lstr_equal</text>
</a>
</g>
</g>
<!-- Node13&#45;&gt;Node27 -->
<g id="edge29_Node000013_Node000027" class="edge">
<title>Node13&#45;&gt;Node27</title>
<g id="a_edge29_Node000013_Node000027"><a xlink:title=" ">
<path fill="none" stroke="#63b8ff" d="M1193.87,-122.67C1200.51,-120.26 1207.43,-117.56 1213.75,-114.71 1230.44,-107.18 1232.85,-101.73 1249.75,-94.71 1257.04,-91.68 1265,-88.96 1272.73,-86.62"/>
<polygon fill="#63b8ff" stroke="#63b8ff" points="1273.68,-89.98 1282.33,-83.86 1271.75,-83.26 1273.68,-89.98"/>
</a>
</g>
</g>
<!-- Node15 -->
<g id="Node000015" class="node">
<title>Node15</title>
<g id="a_Node000015"><a xlink:href="../../de/d1a/container-dlist_8h.html#a71e7667ca0e4b896923788c5851afd24" target="_top" xlink:title="Put element e between prev and next.">
<polygon fill="white" stroke="#666666" points="1489.5,-49.33 1424,-49.33 1424,-30.08 1489.5,-30.08 1489.5,-49.33"/>
<text text-anchor="middle" x="1456.75" y="-35.83" font-family="Helvetica,sans-Serif" font-size="10.00">__dlist_add</text>
</a>
</g>
</g>
<!-- Node14&#45;&gt;Node15 -->
<g id="edge15_Node000014_Node000015" class="edge">
<title>Node14&#45;&gt;Node15</title>
<g id="a_edge15_Node000014_Node000015"><a xlink:title=" ">
<path fill="none" stroke="#63b8ff" d="M1341.2,-39.71C1361.3,-39.71 1389.17,-39.71 1412.39,-39.71"/>
<polygon fill="#63b8ff" stroke="#63b8ff" points="1412.19,-43.21 1422.19,-39.71 1412.19,-36.21 1412.19,-43.21"/>
</a>
</g>
</g>
<!-- Node18 -->
<g id="Node000018" class="node">
<title>Node18</title>
<g id="a_Node000018"><a xlink:href="../../df/d0a/str-l_8h.html#a6a200ca09358f19b13a8e297cda34869" target="_top" xlink:title="returns a constant copy of \v s.">
<polygon fill="white" stroke="#666666" points="1484.62,-213.33 1428.88,-213.33 1428.88,-194.08 1484.62,-194.08 1484.62,-213.33"/>
<text text-anchor="middle" x="1456.75" y="-199.83" font-family="Helvetica,sans-Serif" font-size="10.00">lstr_dupc</text>
</a>
</g>
</g>
<!-- Node17&#45;&gt;Node18 -->
<g id="edge18_Node000017_Node000018" class="edge">
<title>Node17&#45;&gt;Node18</title>
<g id="a_edge18_Node000017_Node000018"><a xlink:title=" ">
<path fill="none" stroke="#63b8ff" d="M1377.14,-195.93C1390.79,-197.28 1404.83,-198.67 1417.2,-199.89"/>
<polygon fill="#63b8ff" stroke="#63b8ff" points="1416.68,-203.36 1426.98,-200.86 1417.37,-196.39 1416.68,-203.36"/>
</a>
</g>
</g>
<!-- Node17&#45;&gt;Node20 -->
<g id="edge20_Node000017_Node000020" class="edge">
<title>Node17&#45;&gt;Node20</title>
<g id="a_edge20_Node000017_Node000020"><a xlink:title=" ">
<path fill="none" stroke="#63b8ff" d="M1376.31,-179.62C1390.41,-177.33 1404.98,-174.96 1417.73,-172.89"/>
<polygon fill="#63b8ff" stroke="#63b8ff" points="1418.06,-176.38 1427.37,-171.32 1416.93,-169.47 1418.06,-176.38"/>
</a>
</g>
</g>
<!-- Node19 -->
<g id="Node000019" class="node">
<title>Node19</title>
<g id="a_Node000019"><a xlink:href="../../df/d0a/str-l_8h.html#a3b4dbe9c4cc70340cba0787574dc1c5e" target="_top" xlink:title=" ">
<polygon fill="white" stroke="#666666" points="1814.25,-166.33 1761.5,-166.33 1761.5,-147.08 1814.25,-147.08 1814.25,-166.33"/>
<text text-anchor="middle" x="1787.88" y="-152.83" font-family="Helvetica,sans-Serif" font-size="10.00">lstr_init_</text>
</a>
</g>
</g>
<!-- Node18&#45;&gt;Node19 -->
<g id="edge19_Node000018_Node000019" class="edge">
<title>Node18&#45;&gt;Node19</title>
<g id="a_edge19_Node000018_Node000019"><a xlink:title=" ">
<path fill="none" stroke="#63b8ff" d="M1480.79,-193.71C1496.3,-187.44 1517.39,-179.8 1536.75,-175.71 1611.34,-159.95 1700.89,-156.86 1750.05,-156.48"/>
<polygon fill="#63b8ff" stroke="#63b8ff" points="1749.86,-159.98 1759.84,-156.44 1749.83,-152.98 1749.86,-159.98"/>
</a>
</g>
</g>
<!-- Node21 -->
<g id="Node000021" class="node">
<title>Node21</title>
<g id="a_Node000021"><a xlink:href="../../df/d0a/str-l_8h.html#a381cd831ac9616c5bea8213bb679d1ac" target="_top" xlink:title="Wipe a lstr_t (frees memory if needed).">
<polygon fill="white" stroke="#666666" points="1610.5,-204.33 1536.75,-204.33 1536.75,-185.08 1610.5,-185.08 1610.5,-204.33"/>
<text text-anchor="middle" x="1573.62" y="-190.83" font-family="Helvetica,sans-Serif" font-size="10.00">mp_lstr_wipe</text>
</a>
</g>
</g>
<!-- Node20&#45;&gt;Node21 -->
<g id="edge21_Node000020_Node000021" class="edge">
<title>Node20&#45;&gt;Node21</title>
<g id="a_edge21_Node000020_Node000021"><a xlink:title=" ">
<path fill="none" stroke="#63b8ff" d="M1484.68,-173.27C1496.82,-176.23 1511.52,-179.81 1525.4,-183.2"/>
<polygon fill="#63b8ff" stroke="#63b8ff" points="1524.28,-186.52 1534.82,-185.49 1525.94,-179.72 1524.28,-186.52"/>
</a>
</g>
</g>
<!-- Node22 -->
<g id="Node000022" class="node">
<title>Node22</title>
<g id="a_Node000022"><a xlink:href="../../de/d04/str-l_8c.html#abe2a3a71f0b4dbc7d37c59d16762b6fb" target="_top" xlink:title="lstr_copy_* helper.">
<polygon fill="white" stroke="#666666" points="1725.5,-204.33 1646.5,-204.33 1646.5,-185.08 1725.5,-185.08 1725.5,-204.33"/>
<text text-anchor="middle" x="1686" y="-190.83" font-family="Helvetica,sans-Serif" font-size="10.00">mp_lstr_copy_</text>
</a>
</g>
</g>
<!-- Node21&#45;&gt;Node22 -->
<g id="edge22_Node000021_Node000022" class="edge">
<title>Node21&#45;&gt;Node22</title>
<g id="a_edge22_Node000021_Node000022"><a xlink:title=" ">
<path fill="none" stroke="#63b8ff" d="M1610.77,-194.71C1618.46,-194.71 1626.71,-194.71 1634.82,-194.71"/>
<polygon fill="#63b8ff" stroke="#63b8ff" points="1634.6,-198.21 1644.6,-194.71 1634.6,-191.21 1634.6,-198.21"/>
</a>
</g>
</g>
<!-- Node22&#45;&gt;Node19 -->
<g id="edge28_Node000022_Node000019" class="edge">
<title>Node22&#45;&gt;Node19</title>
<g id="a_edge28_Node000022_Node000019"><a xlink:title=" ">
<path fill="none" stroke="#63b8ff" d="M1713.5,-184.62C1724.94,-180.27 1738.51,-175.11 1750.85,-170.42"/>
<polygon fill="#63b8ff" stroke="#63b8ff" points="1751.77,-173.81 1759.87,-166.98 1749.28,-167.27 1751.77,-173.81"/>
</a>
</g>
</g>
<!-- Node23 -->
<g id="Node000023" class="node">
<title>Node23</title>
<g id="a_Node000023"><a xlink:href="../../d9/d9a/mem_8h.html#aebbbd277e2952bdb802104671ba23ba9" target="_top" xlink:title=" ">
<polygon fill="white" stroke="#666666" points="1805.25,-219.33 1770.5,-219.33 1770.5,-200.08 1805.25,-200.08 1805.25,-219.33"/>
<text text-anchor="middle" x="1787.88" y="-205.83" font-family="Helvetica,sans-Serif" font-size="10.00">ifree</text>
</a>
</g>
</g>
<!-- Node22&#45;&gt;Node23 -->
<g id="edge23_Node000022_Node000023" class="edge">
<title>Node22&#45;&gt;Node23</title>
<g id="a_edge23_Node000022_Node000023"><a xlink:title=" ">
<path fill="none" stroke="#63b8ff" d="M1725.9,-200.55C1736.92,-202.2 1748.7,-203.97 1758.94,-205.51"/>
<polygon fill="#63b8ff" stroke="#63b8ff" points="1758.2,-208.94 1768.61,-206.96 1759.24,-202.02 1758.2,-208.94"/>
</a>
</g>
</g>
<!-- Node24 -->
<g id="Node000024" class="node">
<title>Node24</title>
<g id="a_Node000024"><a xlink:href="../../d8/d37/mem_8blk.html#a36b65ab346f1d0deed7b63c544c78f2b" target="_top" xlink:title=" ">
<polygon fill="white" stroke="#666666" points="1895.12,-313.33 1858.88,-313.33 1858.88,-294.08 1895.12,-294.08 1895.12,-313.33"/>
<text text-anchor="middle" x="1877" y="-299.83" font-family="Helvetica,sans-Serif" font-size="10.00">ipool</text>
</a>
</g>
</g>
<!-- Node23&#45;&gt;Node24 -->
<g id="edge24_Node000023_Node000024" class="edge">
<title>Node23&#45;&gt;Node24</title>
<g id="a_edge24_Node000023_Node000024"><a xlink:title=" ">
<path fill="none" stroke="#63b8ff" d="M1798.2,-219.77C1812.68,-235.39 1840.78,-265.71 1858.95,-285.31"/>
<polygon fill="#63b8ff" stroke="#63b8ff" points="1856.35,-287.65 1865.71,-292.61 1861.48,-282.9 1856.35,-287.65"/>
</a>
</g>
</g>
<!-- Node26 -->
<g id="Node000026" class="node">
<title>Node26</title>
<g id="a_Node000026"><a xlink:href="../../d8/d37/mem_8blk.html#a83c7cf203e5eef9d1a8c6c43cde3e2e5" target="_top" xlink:title=" ">
<polygon fill="white" stroke="#666666" points="1903.75,-219.33 1850.25,-219.33 1850.25,-200.08 1903.75,-200.08 1903.75,-219.33"/>
<text text-anchor="middle" x="1877" y="-205.83" font-family="Helvetica,sans-Serif" font-size="10.00">mp_ifree</text>
</a>
</g>
</g>
<!-- Node23&#45;&gt;Node26 -->
<g id="edge27_Node000023_Node000026" class="edge">
<title>Node23&#45;&gt;Node26</title>
<g id="a_edge27_Node000023_Node000026"><a xlink:title=" ">
<path fill="none" stroke="#63b8ff" d="M1805.67,-209.71C1815.09,-209.71 1827.24,-209.71 1838.78,-209.71"/>
<polygon fill="#63b8ff" stroke="#63b8ff" points="1838.48,-213.21 1848.48,-209.71 1838.48,-206.21 1838.48,-213.21"/>
</a>
</g>
</g>
<!-- Node24&#45;&gt;Node11 -->
<g id="edge25_Node000024_Node000011" class="edge">
<title>Node24&#45;&gt;Node11</title>
<g id="a_edge25_Node000024_Node000011"><a xlink:title=" ">
<path fill="none" stroke="#63b8ff" d="M1858.54,-303.71C1825.2,-303.71 1750.16,-303.71 1687,-303.71 1160.88,-303.71 1160.88,-303.71 1160.88,-303.71 1082.65,-303.71 1055.99,-318.66 986,-283.71 965.19,-273.31 968.05,-260.39 950,-245.71 949.34,-245.17 948.67,-244.64 947.98,-244.12"/>
<polygon fill="#63b8ff" stroke="#63b8ff" points="950.09,-241.32 939.87,-238.52 946.12,-247.08 950.09,-241.32"/>
</a>
</g>
</g>
<!-- Node24&#45;&gt;Node25 -->
<g id="edge26_Node000024_Node000025" class="edge">
<title>Node24&#45;&gt;Node25</title>
<g id="a_edge26_Node000024_Node000025"><a xlink:title=" ">
<path fill="none" stroke="#63b8ff" d="M1895.36,-307.74C1904.91,-309.95 1917.05,-312.77 1928.22,-315.36"/>
<polygon fill="#63b8ff" stroke="#63b8ff" points="1927.35,-318.75 1937.88,-317.6 1928.93,-311.93 1927.35,-318.75"/>
</a>
</g>
</g>
<!-- Node30&#45;&gt;Node18 -->
<g id="edge37_Node000030_Node000018" class="edge">
<title>Node30&#45;&gt;Node18</title>
<g id="a_edge37_Node000030_Node000018"><a xlink:title=" ">
<path fill="none" stroke="#63b8ff" d="M1062.94,-226.04C1123.94,-222.84 1261.23,-215.54 1376.75,-208.71 1389.98,-207.92 1404.46,-207.02 1417.37,-206.2"/>
<polygon fill="#63b8ff" stroke="#63b8ff" points="1417.43,-209.7 1427.19,-205.57 1416.98,-202.72 1417.43,-209.7"/>
</a>
</g>
</g>
<!-- Node31 -->
<g id="Node000031" class="node">
<title>Node31</title>
<g id="a_Node000031"><a xlink:href="../../d1/dc0/group__log.html#ga168a6f17b248f61f7d25a17d58d04e36" target="_top" xlink:title=" ">
<polygon fill="white" stroke="#666666" points="1206.25,-275.33 1117.5,-275.33 1117.5,-256.08 1206.25,-256.08 1206.25,-275.33"/>
<text text-anchor="middle" x="1161.88" y="-261.83" font-family="Helvetica,sans-Serif" font-size="10.00">logger_has_level</text>
</a>
</g>
</g>
<!-- Node30&#45;&gt;Node31 -->
<g id="edge34_Node000030_Node000031" class="edge">
<title>Node30&#45;&gt;Node31</title>
<g id="a_edge34_Node000030_Node000031"><a xlink:title=" ">
<path fill="none" stroke="#63b8ff" d="M1063.1,-237.1C1078.88,-241.72 1098.16,-247.36 1115.42,-252.41"/>
<polygon fill="#63b8ff" stroke="#63b8ff" points="1114.38,-255.75 1124.96,-255.2 1116.34,-249.03 1114.38,-255.75"/>
</a>
</g>
</g>
<!-- Node32 -->
<g id="Node000032" class="node">
<title>Node32</title>
<g id="a_Node000032"><a xlink:href="../../d1/dc0/group__log.html#gaf388752b988541da0abeceecdf96e6b3" target="_top" xlink:title=" ">
<polygon fill="white" stroke="#666666" points="1356.5,-275.33 1270,-275.33 1270,-256.08 1356.5,-256.08 1356.5,-275.33"/>
<text text-anchor="middle" x="1313.25" y="-261.83" font-family="Helvetica,sans-Serif" font-size="10.00">logger_get_level</text>
</a>
</g>
</g>
<!-- Node31&#45;&gt;Node32 -->
<g id="edge35_Node000031_Node000032" class="edge">
<title>Node31&#45;&gt;Node32</title>
<g id="a_edge35_Node000031_Node000032"><a xlink:title=" ">
<path fill="none" stroke="#63b8ff" d="M1206.48,-265.71C1222.64,-265.71 1241.17,-265.71 1258.15,-265.71"/>
<polygon fill="#63b8ff" stroke="#63b8ff" points="1258.11,-269.21 1268.11,-265.71 1258.11,-262.21 1258.11,-269.21"/>
</a>
</g>
</g>
<!-- Node33 -->
<g id="Node000033" class="node">
<title>Node33</title>
<g id="a_Node000033"><a xlink:href="../../d1/dc0/group__log.html#ga93cbd623096e1704532d15b3eb30e42f" target="_top" xlink:title=" ">
<polygon fill="white" stroke="#666666" points="1500.75,-275.33 1412.75,-275.33 1412.75,-256.08 1500.75,-256.08 1500.75,-275.33"/>
<text text-anchor="middle" x="1456.75" y="-261.83" font-family="Helvetica,sans-Serif" font-size="10.00">__logger_refresh</text>
</a>
</g>
</g>
<!-- Node32&#45;&gt;Node33 -->
<g id="edge36_Node000032_Node000033" class="edge">
<title>Node32&#45;&gt;Node33</title>
<g id="a_edge36_Node000032_Node000033"><a xlink:title=" ">
<path fill="none" stroke="#63b8ff" d="M1356.7,-265.71C1370.58,-265.71 1386.19,-265.71 1400.85,-265.71"/>
<polygon fill="#63b8ff" stroke="#63b8ff" points="1400.83,-269.21 1410.83,-265.71 1400.83,-262.21 1400.83,-269.21"/>
</a>
</g>
</g>
<!-- Node36 -->
<g id="Node000036" class="node">
<title>Node36</title>
<g id="a_Node000036"><a xlink:href="../../d8/d96/bithacks_8h.html#ab80588fa9f8b9e766249edaf70558bdc" target="_top" xlink:title=" ">
<polygon fill="white" stroke="#666666" points="950,-274.33 889.75,-274.33 889.75,-255.08 950,-255.08 950,-274.33"/>
<text text-anchor="middle" x="919.88" y="-260.83" font-family="Helvetica,sans-Serif" font-size="10.00">bitcountsz</text>
</a>
</g>
</g>
<!-- Node35&#45;&gt;Node36 -->
<g id="edge40_Node000035_Node000036" class="edge">
<title>Node35&#45;&gt;Node36</title>
<g id="a_edge40_Node000035_Node000036"><a xlink:title=" ">
<path fill="none" stroke="#63b8ff" d="M842.32,-264.71C853.9,-264.71 866.62,-264.71 878.31,-264.71"/>
<polygon fill="#63b8ff" stroke="#63b8ff" points="878.06,-268.21 888.06,-264.71 878.06,-261.21 878.06,-268.21"/>
</a>
</g>
</g>
<!-- Node38 -->
<g id="Node000038" class="node">
<title>Node38</title>
<g id="a_Node000038"><a xlink:href="../../d8/d37/mem_8blk.html#a377e36d6fbaf3ee7f1b217559cb0c850" target="_top" xlink:title=" ">
<polygon fill="white" stroke="#666666" points="853.75,-311.33 751.5,-311.33 751.5,-292.08 853.75,-292.08 853.75,-311.33"/>
<text text-anchor="middle" x="802.62" y="-297.83" font-family="Helvetica,sans-Serif" font-size="10.00">__imalloc_too_large</text>
</a>
</g>
</g>
<!-- Node37&#45;&gt;Node38 -->
<g id="edge42_Node000037_Node000038" class="edge">
<title>Node37&#45;&gt;Node38</title>
<g id="a_edge42_Node000037_Node000038"><a xlink:title=" ">
<path fill="none" stroke="#63b8ff" d="M701.05,-276.83C716.31,-280.6 733.82,-284.94 749.92,-288.92"/>
<polygon fill="#63b8ff" stroke="#63b8ff" points="748.77,-292.24 759.32,-291.24 750.45,-285.44 748.77,-292.24"/>
</a>
</g>
</g>
<!-- Node39&#45;&gt;Node19 -->
<g id="edge44_Node000039_Node000019" class="edge">
<title>Node39&#45;&gt;Node19</title>
<g id="a_edge44_Node000039_Node000019"><a xlink:title=" ">
<path fill="none" stroke="#63b8ff" d="M1597.34,-72.77C1635,-89.45 1710.52,-122.89 1754,-142.15"/>
<polygon fill="#63b8ff" stroke="#63b8ff" points="1752.38,-145.26 1762.94,-146.11 1755.21,-138.86 1752.38,-145.26"/>
</a>
</g>
</g>
</g>
</svg>
