<?xml version="1.0" encoding="UTF-8" standalone="no"?>
<!DOCTYPE svg PUBLIC "-//W3C//DTD SVG 1.1//EN"
 "http://www.w3.org/Graphics/SVG/1.1/DTD/svg11.dtd">
<!-- Generated by graphviz version 9.0.0 (20230911.1827)
 -->
<!-- Title: t_yaml_uint_to_iop_field Pages: 1 -->
<svg width="2115pt" height="362pt"
 viewBox="0.00 0.00 2114.75 361.95" xmlns="http://www.w3.org/2000/svg" xmlns:xlink="http://www.w3.org/1999/xlink">
<g id="graph0" class="graph" transform="scale(1 1) rotate(0) translate(4 357.95)">
<title>t_yaml_uint_to_iop_field</title>
<!-- Node1 -->
<g id="Node000001" class="node">
<title>Node1</title>
<g id="a_Node000001"><a xlink:title=" ">
<polygon fill="#999999" stroke="#666666" points="97,-340.57 0,-340.57 0,-310.07 97,-310.07 97,-340.57"/>
<text text-anchor="start" x="8" y="-327.07" font-family="Helvetica,sans-Serif" font-size="10.00">t_yaml_uint_to_iop</text>
<text text-anchor="middle" x="48.5" y="-315.82" font-family="Helvetica,sans-Serif" font-size="10.00">_field</text>
</a>
</g>
</g>
<!-- Node2 -->
<g id="Node000002" class="node">
<title>Node2</title>
<g id="a_Node000002"><a xlink:href="../../d3/d40/iop_8h.html#ac41f97583bdf1ec5db11f5872016f9a1" target="_top" xlink:title=" ">
<polygon fill="white" stroke="#666666" points="254,-353.95 139,-353.95 139,-334.7 254,-334.7 254,-353.95"/>
<text text-anchor="middle" x="196.5" y="-340.45" font-family="Helvetica,sans-Serif" font-size="10.00">iop_enum_exists_desc</text>
</a>
</g>
</g>
<!-- Node1&#45;&gt;Node2 -->
<g id="edge1_Node000001_Node000002" class="edge">
<title>Node1&#45;&gt;Node2</title>
<g id="a_edge1_Node000001_Node000002"><a xlink:title=" ">
<path fill="none" stroke="#63b8ff" d="M97.31,-331.55C106.91,-332.8 117.18,-334.13 127.33,-335.45"/>
<polygon fill="#63b8ff" stroke="#63b8ff" points="126.82,-338.92 137.19,-336.74 127.72,-331.97 126.82,-338.92"/>
</a>
</g>
</g>
<!-- Node4 -->
<g id="Node000004" class="node">
<title>Node4</title>
<g id="a_Node000004"><a xlink:href="../../d1/d3c/yaml_8blk.html#a6ebd1551ea60fdddabb2f05967d35306" target="_top" xlink:title=" ">
<polygon fill="white" stroke="#666666" points="260,-316.95 133,-316.95 133,-297.7 260,-297.7 260,-316.95"/>
<text text-anchor="middle" x="196.5" y="-303.45" font-family="Helvetica,sans-Serif" font-size="10.00">t_set_string_from_stream</text>
</a>
</g>
</g>
<!-- Node1&#45;&gt;Node4 -->
<g id="edge3_Node000001_Node000004" class="edge">
<title>Node1&#45;&gt;Node4</title>
<g id="a_edge3_Node000001_Node000004"><a xlink:title=" ">
<path fill="none" stroke="#63b8ff" d="M97.31,-319.43C105.08,-318.47 113.29,-317.46 121.52,-316.44"/>
<polygon fill="#63b8ff" stroke="#63b8ff" points="121.71,-319.95 131.21,-315.25 120.85,-313 121.71,-319.95"/>
</a>
</g>
</g>
<!-- Node3 -->
<g id="Node000003" class="node">
<title>Node3</title>
<g id="a_Node000003"><a xlink:href="../../d3/d40/iop_8h.html#ae28506f4d447d90fb92b640b196981f6" target="_top" xlink:title=" ">
<polygon fill="white" stroke="#666666" points="393.75,-353.95 296,-353.95 296,-334.7 393.75,-334.7 393.75,-353.95"/>
<text text-anchor="middle" x="344.88" y="-340.45" font-family="Helvetica,sans-Serif" font-size="10.00">iop_ranges_search</text>
</a>
</g>
</g>
<!-- Node2&#45;&gt;Node3 -->
<g id="edge2_Node000002_Node000003" class="edge">
<title>Node2&#45;&gt;Node3</title>
<g id="a_edge2_Node000002_Node000003"><a xlink:title=" ">
<path fill="none" stroke="#63b8ff" d="M254.09,-344.32C263.92,-344.32 274.17,-344.32 284.09,-344.32"/>
<polygon fill="#63b8ff" stroke="#63b8ff" points="284.01,-347.82 294.01,-344.32 284.01,-340.82 284.01,-347.82"/>
</a>
</g>
</g>
<!-- Node5 -->
<g id="Node000005" class="node">
<title>Node5</title>
<g id="a_Node000005"><a xlink:href="../../df/d0a/str-l_8h.html#a93860e0a444ab8a423d79b7818a28345" target="_top" xlink:title="returns a duplicated lstr from the mem stack.">
<polygon fill="white" stroke="#666666" points="374.25,-316.95 315.5,-316.95 315.5,-297.7 374.25,-297.7 374.25,-316.95"/>
<text text-anchor="middle" x="344.88" y="-303.45" font-family="Helvetica,sans-Serif" font-size="10.00">t_lstr_dup</text>
</a>
</g>
</g>
<!-- Node4&#45;&gt;Node5 -->
<g id="edge4_Node000004_Node000005" class="edge">
<title>Node4&#45;&gt;Node5</title>
<g id="a_edge4_Node000004_Node000005"><a xlink:title=" ">
<path fill="none" stroke="#63b8ff" d="M260.43,-307.32C275.17,-307.32 290.48,-307.32 303.9,-307.32"/>
<polygon fill="#63b8ff" stroke="#63b8ff" points="303.63,-310.82 313.63,-307.32 303.63,-303.82 303.63,-310.82"/>
</a>
</g>
</g>
<!-- Node42 -->
<g id="Node000042" class="node">
<title>Node42</title>
<g id="a_Node000042"><a xlink:href="../../d7/d75/yaml_8c.html#a9569f1b4b3adff40ba9162204569dd04" target="_top" xlink:title="Return a lstr set to the contents described by the span.">
<polygon fill="white" stroke="#666666" points="392.25,-279.95 297.5,-279.95 297.5,-260.7 392.25,-260.7 392.25,-279.95"/>
<text text-anchor="middle" x="344.88" y="-266.45" font-family="Helvetica,sans-Serif" font-size="10.00">yaml_span_to_lstr</text>
</a>
</g>
</g>
<!-- Node4&#45;&gt;Node42 -->
<g id="edge48_Node000004_Node000042" class="edge">
<title>Node4&#45;&gt;Node42</title>
<g id="a_edge48_Node000004_Node000042"><a xlink:title=" ">
<path fill="none" stroke="#63b8ff" d="M237.5,-297.21C254.6,-292.89 274.77,-287.79 292.93,-283.2"/>
<polygon fill="#63b8ff" stroke="#63b8ff" points="293.62,-286.64 302.46,-280.79 291.91,-279.85 293.62,-286.64"/>
</a>
</g>
</g>
<!-- Node6 -->
<g id="Node000006" class="node">
<title>Node6</title>
<g id="a_Node000006"><a xlink:href="../../de/d04/str-l_8c.html#a721e56afb064f7233eda0184065df9bb" target="_top" xlink:title="Returns new mp allocated lstr from its arguments.">
<polygon fill="white" stroke="#666666" points="499,-297.95 429.75,-297.95 429.75,-278.7 499,-278.7 499,-297.95"/>
<text text-anchor="middle" x="464.38" y="-284.45" font-family="Helvetica,sans-Serif" font-size="10.00">mp_lstr_dup</text>
</a>
</g>
</g>
<!-- Node5&#45;&gt;Node6 -->
<g id="edge5_Node000005_Node000006" class="edge">
<title>Node5&#45;&gt;Node6</title>
<g id="a_edge5_Node000005_Node000006"><a xlink:title=" ">
<path fill="none" stroke="#63b8ff" d="M374.62,-302.68C387.83,-300.54 403.81,-297.96 418.54,-295.57"/>
<polygon fill="#63b8ff" stroke="#63b8ff" points="418.7,-299.09 428.01,-294.04 417.58,-292.18 418.7,-299.09"/>
</a>
</g>
</g>
<!-- Node27 -->
<g id="Node000027" class="node">
<title>Node27</title>
<g id="a_Node000027"><a xlink:href="../../d1/d10/mem-stack_8h.html#a1d0e2a29f86dc033a02e50484b527fd0" target="_top" xlink:title=" ">
<polygon fill="white" stroke="#666666" points="2106.75,-334.95 2064.5,-334.95 2064.5,-315.7 2106.75,-315.7 2106.75,-334.95"/>
<text text-anchor="middle" x="2085.62" y="-321.45" font-family="Helvetica,sans-Serif" font-size="10.00">t_pool</text>
</a>
</g>
</g>
<!-- Node5&#45;&gt;Node27 -->
<g id="edge47_Node000005_Node000027" class="edge">
<title>Node5&#45;&gt;Node27</title>
<g id="a_edge47_Node000005_Node000027"><a xlink:title=" ">
<path fill="none" stroke="#63b8ff" d="M374.55,-315.44C415.62,-326.34 493.7,-344.32 561.5,-344.32 561.5,-344.32 561.5,-344.32 1913.62,-344.32 1962.52,-344.32 2018.81,-336.56 2053.04,-330.95"/>
<polygon fill="#63b8ff" stroke="#63b8ff" points="2053.4,-334.44 2062.68,-329.33 2052.24,-327.54 2053.4,-334.44"/>
</a>
</g>
</g>
<!-- Node7 -->
<g id="Node000007" class="node">
<title>Node7</title>
<g id="a_Node000007"><a xlink:href="../../d9/d9a/mem_8h.html#afb82bc4c2f614b07ba2987edb2fb12a2" target="_top" xlink:title=" ">
<polygon fill="white" stroke="#666666" points="590,-297.95 535,-297.95 535,-278.7 590,-278.7 590,-297.95"/>
<text text-anchor="middle" x="562.5" y="-284.45" font-family="Helvetica,sans-Serif" font-size="10.00">mp_dupz</text>
</a>
</g>
</g>
<!-- Node6&#45;&gt;Node7 -->
<g id="edge6_Node000006_Node000007" class="edge">
<title>Node6&#45;&gt;Node7</title>
<g id="a_edge6_Node000006_Node000007"><a xlink:title=" ">
<path fill="none" stroke="#63b8ff" d="M499.27,-288.32C507.04,-288.32 515.35,-288.32 523.29,-288.32"/>
<polygon fill="#63b8ff" stroke="#63b8ff" points="523.04,-291.82 533.04,-288.32 523.04,-284.82 523.04,-291.82"/>
</a>
</g>
</g>
<!-- Node41 -->
<g id="Node000041" class="node">
<title>Node41</title>
<g id="a_Node000041"><a xlink:href="../../df/d0a/str-l_8h.html#afaa32126aa321a4b319e39433d0e7f26" target="_top" xlink:title=" ">
<polygon fill="white" stroke="#666666" points="1731.5,-106.95 1665.25,-106.95 1665.25,-87.7 1731.5,-87.7 1731.5,-106.95"/>
<text text-anchor="middle" x="1698.38" y="-93.45" font-family="Helvetica,sans-Serif" font-size="10.00">mp_lstr_init</text>
</a>
</g>
</g>
<!-- Node6&#45;&gt;Node41 -->
<g id="edge45_Node000006_Node000041" class="edge">
<title>Node6&#45;&gt;Node41</title>
<g id="a_edge45_Node000006_Node000041"><a xlink:title=" ">
<path fill="none" stroke="#63b8ff" d="M467.02,-278.22C475.86,-227.62 522.57,-4.32 657.75,-4.32 657.75,-4.32 657.75,-4.32 1439,-4.32 1522.32,-4.32 1550.5,12.97 1625.5,-23.32 1650.7,-35.52 1671.92,-60.41 1684.63,-77.95"/>
<polygon fill="#63b8ff" stroke="#63b8ff" points="1681.66,-79.81 1690.23,-86.03 1687.41,-75.82 1681.66,-79.81"/>
</a>
</g>
</g>
<!-- Node8 -->
<g id="Node000008" class="node">
<title>Node8</title>
<g id="a_Node000008"><a xlink:href="../../d9/d9a/mem_8h.html#af52b7a33884b452f86de916d8109b8f1" target="_top" xlink:title=" ">
<polygon fill="white" stroke="#666666" points="687.38,-315.95 630.12,-315.95 630.12,-296.7 687.38,-296.7 687.38,-315.95"/>
<text text-anchor="middle" x="658.75" y="-302.45" font-family="Helvetica,sans-Serif" font-size="10.00">memcpyz</text>
</a>
</g>
</g>
<!-- Node7&#45;&gt;Node8 -->
<g id="edge7_Node000007_Node000008" class="edge">
<title>Node7&#45;&gt;Node8</title>
<g id="a_edge7_Node000007_Node000008"><a xlink:title=" ">
<path fill="none" stroke="#63b8ff" d="M590.26,-293.43C599.17,-295.14 609.3,-297.07 618.94,-298.91"/>
<polygon fill="#63b8ff" stroke="#63b8ff" points="617.98,-302.29 628.46,-300.73 619.29,-295.42 617.98,-302.29"/>
</a>
</g>
</g>
<!-- Node10 -->
<g id="Node000010" class="node">
<title>Node10</title>
<g id="a_Node000010"><a xlink:href="../../d9/d9a/mem_8h.html#ada6bb9661f0c10ccaa14d231c24aeafd" target="_top" xlink:title=" ">
<polygon fill="white" stroke="#666666" points="691.5,-278.95 626,-278.95 626,-259.7 691.5,-259.7 691.5,-278.95"/>
<text text-anchor="middle" x="658.75" y="-265.45" font-family="Helvetica,sans-Serif" font-size="10.00">mp_imalloc</text>
</a>
</g>
</g>
<!-- Node7&#45;&gt;Node10 -->
<g id="edge9_Node000007_Node000010" class="edge">
<title>Node7&#45;&gt;Node10</title>
<g id="a_edge9_Node000007_Node000010"><a xlink:title=" ">
<path fill="none" stroke="#63b8ff" d="M590.26,-282.93C597.81,-281.41 606.24,-279.71 614.5,-278.04"/>
<polygon fill="#63b8ff" stroke="#63b8ff" points="614.98,-281.52 624.09,-276.11 613.6,-274.65 614.98,-281.52"/>
</a>
</g>
</g>
<!-- Node9 -->
<g id="Node000009" class="node">
<title>Node9</title>
<g id="a_Node000009"><a xlink:href="../../d9/d9a/mem_8h.html#af3794c657c3ffd55b9771dcaeec60c02" target="_top" xlink:title=" ">
<polygon fill="white" stroke="#666666" points="812.88,-315.95 754.88,-315.95 754.88,-296.7 812.88,-296.7 812.88,-315.95"/>
<text text-anchor="middle" x="783.88" y="-302.45" font-family="Helvetica,sans-Serif" font-size="10.00">mempcpy</text>
</a>
</g>
</g>
<!-- Node8&#45;&gt;Node9 -->
<g id="edge8_Node000008_Node000009" class="edge">
<title>Node8&#45;&gt;Node9</title>
<g id="a_edge8_Node000008_Node000009"><a xlink:title=" ">
<path fill="none" stroke="#63b8ff" d="M687.69,-306.32C704.1,-306.32 725.11,-306.32 743.22,-306.32"/>
<polygon fill="#63b8ff" stroke="#63b8ff" points="743.11,-309.82 753.11,-306.32 743.11,-302.82 743.11,-309.82"/>
</a>
</g>
</g>
<!-- Node11 -->
<g id="Node000011" class="node">
<title>Node11</title>
<g id="a_Node000011"><a xlink:href="../../d8/d37/mem_8blk.html#a5666a1403bcf2bd8e114c23f8021d1ac" target="_top" xlink:title=" ">
<polygon fill="white" stroke="#666666" points="821.88,-241.95 745.88,-241.95 745.88,-222.7 821.88,-222.7 821.88,-241.95"/>
<text text-anchor="middle" x="783.88" y="-228.45" font-family="Helvetica,sans-Serif" font-size="10.00">__mp_imalloc</text>
</a>
</g>
</g>
<!-- Node10&#45;&gt;Node11 -->
<g id="edge10_Node000010_Node000011" class="edge">
<title>Node10&#45;&gt;Node11</title>
<g id="a_edge10_Node000010_Node000011"><a xlink:title=" ">
<path fill="none" stroke="#63b8ff" d="M691.78,-259.7C706,-255.43 722.97,-250.33 738.39,-245.69"/>
<polygon fill="#63b8ff" stroke="#63b8ff" points="739.27,-249.08 747.84,-242.85 737.25,-242.38 739.27,-249.08"/>
</a>
</g>
</g>
<!-- Node39 -->
<g id="Node000039" class="node">
<title>Node39</title>
<g id="a_Node000039"><a xlink:href="../../d9/d9a/mem_8h.html#ae99e17ad0b27e94e8a00c8af9734a0e7" target="_top" xlink:title=" ">
<polygon fill="white" stroke="#666666" points="840.25,-278.95 727.5,-278.95 727.5,-259.7 840.25,-259.7 840.25,-278.95"/>
<text text-anchor="middle" x="783.88" y="-265.45" font-family="Helvetica,sans-Serif" font-size="10.00">icheck_alloc_constant</text>
</a>
</g>
</g>
<!-- Node10&#45;&gt;Node39 -->
<g id="edge43_Node000010_Node000039" class="edge">
<title>Node10&#45;&gt;Node39</title>
<g id="a_edge43_Node000010_Node000039"><a xlink:title=" ">
<path fill="none" stroke="#63b8ff" d="M691.78,-269.32C699.22,-269.32 707.43,-269.32 715.76,-269.32"/>
<polygon fill="#63b8ff" stroke="#63b8ff" points="715.65,-272.82 725.65,-269.32 715.65,-265.82 715.65,-272.82"/>
</a>
</g>
</g>
<!-- Node12 -->
<g id="Node000012" class="node">
<title>Node12</title>
<g id="a_Node000012"><a xlink:href="../../d8/d37/mem_8blk.html#a8e4fbf6500e65079c31e3fd933ae7dc1" target="_top" xlink:title=" ">
<polygon fill="white" stroke="#666666" points="962.38,-239.95 892.38,-239.95 892.38,-220.7 962.38,-220.7 962.38,-239.95"/>
<text text-anchor="middle" x="927.38" y="-226.45" font-family="Helvetica,sans-Serif" font-size="10.00">icheck_alloc</text>
</a>
</g>
</g>
<!-- Node11&#45;&gt;Node12 -->
<g id="edge11_Node000011_Node000012" class="edge">
<title>Node11&#45;&gt;Node12</title>
<g id="a_edge11_Node000011_Node000012"><a xlink:title=" ">
<path fill="none" stroke="#63b8ff" d="M822.05,-231.8C840.09,-231.54 861.92,-231.24 880.93,-230.97"/>
<polygon fill="#63b8ff" stroke="#63b8ff" points="880.89,-234.47 890.84,-230.83 880.79,-227.47 880.89,-234.47"/>
</a>
</g>
</g>
<!-- Node37 -->
<g id="Node000037" class="node">
<title>Node37</title>
<g id="a_Node000037"><a xlink:href="../../d9/d9a/mem_8h.html#af42ab5c21de0c723b2a55403e5441fda" target="_top" xlink:title=" ">
<polygon fill="white" stroke="#666666" points="966.88,-276.95 887.88,-276.95 887.88,-257.7 966.88,-257.7 966.88,-276.95"/>
<text text-anchor="middle" x="927.38" y="-263.45" font-family="Helvetica,sans-Serif" font-size="10.00">mem_bit_align</text>
</a>
</g>
</g>
<!-- Node11&#45;&gt;Node37 -->
<g id="edge41_Node000011_Node000037" class="edge">
<title>Node11&#45;&gt;Node37</title>
<g id="a_edge41_Node000011_Node000037"><a xlink:title=" ">
<path fill="none" stroke="#63b8ff" d="M822.05,-241.52C838.65,-245.63 858.47,-250.53 876.35,-254.95"/>
<polygon fill="#63b8ff" stroke="#63b8ff" points="875.45,-258.33 886,-257.34 877.13,-251.54 875.45,-258.33"/>
</a>
</g>
</g>
<!-- Node13 -->
<g id="Node000013" class="node">
<title>Node13</title>
<g id="a_Node000013"><a xlink:href="../../d7/df8/log_8c.html#abca342edf91a9b45f7a17ef564fa8a53" target="_top" xlink:title=" ">
<polygon fill="white" stroke="#666666" points="1069.5,-239.95 1019.75,-239.95 1019.75,-220.7 1069.5,-220.7 1069.5,-239.95"/>
<text text-anchor="middle" x="1044.62" y="-226.45" font-family="Helvetica,sans-Serif" font-size="10.00">e_panic</text>
</a>
</g>
</g>
<!-- Node12&#45;&gt;Node13 -->
<g id="edge12_Node000012_Node000013" class="edge">
<title>Node12&#45;&gt;Node13</title>
<g id="a_edge12_Node000012_Node000013"><a xlink:title=" ">
<path fill="none" stroke="#63b8ff" d="M962.64,-230.32C977.09,-230.32 993.9,-230.32 1008.45,-230.32"/>
<polygon fill="#63b8ff" stroke="#63b8ff" points="1008.03,-233.82 1018.03,-230.32 1008.03,-226.82 1008.03,-233.82"/>
</a>
</g>
</g>
<!-- Node14 -->
<g id="Node000014" class="node">
<title>Node14</title>
<g id="a_Node000014"><a xlink:href="../../d7/df8/log_8c.html#a4bc04f7baa1e064cb0b93c7b9f3a61a1" target="_top" xlink:title=" ">
<polygon fill="white" stroke="#666666" points="1198.75,-126.95 1110.75,-126.95 1110.75,-107.7 1198.75,-107.7 1198.75,-126.95"/>
<text text-anchor="middle" x="1154.75" y="-113.45" font-family="Helvetica,sans-Serif" font-size="10.00">__logger_refresh</text>
</a>
</g>
</g>
<!-- Node13&#45;&gt;Node14 -->
<g id="edge13_Node000013_Node000014" class="edge">
<title>Node13&#45;&gt;Node14</title>
<g id="a_edge13_Node000013_Node000014"><a xlink:title=" ">
<path fill="none" stroke="#63b8ff" d="M1055.22,-220.3C1073.46,-201.23 1113.37,-159.53 1136.41,-135.45"/>
<polygon fill="#63b8ff" stroke="#63b8ff" points="1138.9,-137.91 1143.28,-128.26 1133.84,-133.07 1138.9,-137.91"/>
</a>
</g>
</g>
<!-- Node32 -->
<g id="Node000032" class="node">
<title>Node32</title>
<g id="a_Node000032"><a xlink:href="../../d7/df8/log_8c.html#a900490b26df7698aac12f7f7e6517e81" target="_top" xlink:title=" ">
<polygon fill="white" stroke="#666666" points="1187.5,-239.95 1122,-239.95 1122,-220.7 1187.5,-220.7 1187.5,-239.95"/>
<text text-anchor="middle" x="1154.75" y="-226.45" font-family="Helvetica,sans-Serif" font-size="10.00">logger_vlog</text>
</a>
</g>
</g>
<!-- Node13&#45;&gt;Node32 -->
<g id="edge35_Node000013_Node000032" class="edge">
<title>Node13&#45;&gt;Node32</title>
<g id="a_edge35_Node000013_Node000032"><a xlink:title=" ">
<path fill="none" stroke="#63b8ff" d="M1069.89,-230.32C1081.86,-230.32 1096.66,-230.32 1110.47,-230.32"/>
<polygon fill="#63b8ff" stroke="#63b8ff" points="1110.25,-233.82 1120.25,-230.32 1110.25,-226.82 1110.25,-233.82"/>
</a>
</g>
</g>
<!-- Node36 -->
<g id="Node000036" class="node">
<title>Node36</title>
<g id="a_Node000036"><a xlink:href="../../d2/d4d/file_8h.html#a25419a391fdd4ad7954699c58cfeb3b9" target="_top" xlink:title=" ">
<polygon fill="white" stroke="#666666" points="1180.38,-276.95 1129.12,-276.95 1129.12,-257.7 1180.38,-257.7 1180.38,-276.95"/>
<text text-anchor="middle" x="1154.75" y="-263.45" font-family="Helvetica,sans-Serif" font-size="10.00">va_start</text>
</a>
</g>
</g>
<!-- Node13&#45;&gt;Node36 -->
<g id="edge40_Node000013_Node000036" class="edge">
<title>Node13&#45;&gt;Node36</title>
<g id="a_edge40_Node000013_Node000036"><a xlink:title=" ">
<path fill="none" stroke="#63b8ff" d="M1069.89,-238.63C1084.16,-243.51 1102.45,-249.77 1118.31,-255.2"/>
<polygon fill="#63b8ff" stroke="#63b8ff" points="1116.79,-258.38 1127.38,-258.3 1119.06,-251.75 1116.79,-258.38"/>
</a>
</g>
</g>
<!-- Node15 -->
<g id="Node000015" class="node">
<title>Node15</title>
<g id="a_Node000015"><a xlink:href="../../d7/df8/log_8c.html#a3dbd75fb614210f0b114cfd03c9c0a7b" target="_top" xlink:title=" ">
<polygon fill="white" stroke="#666666" points="1338.5,-144.95 1234.75,-144.95 1234.75,-125.7 1338.5,-125.7 1338.5,-144.95"/>
<text text-anchor="middle" x="1286.62" y="-131.45" font-family="Helvetica,sans-Serif" font-size="10.00">__logger_do_refresh</text>
</a>
</g>
</g>
<!-- Node14&#45;&gt;Node15 -->
<g id="edge14_Node000014_Node000015" class="edge">
<title>Node14&#45;&gt;Node15</title>
<g id="a_edge14_Node000014_Node000015"><a xlink:title=" ">
<path fill="none" stroke="#63b8ff" d="M1199,-123.32C1206.81,-124.4 1215.09,-125.55 1223.32,-126.69"/>
<polygon fill="#63b8ff" stroke="#63b8ff" points="1222.58,-130.12 1232.96,-128.03 1223.54,-123.19 1222.58,-130.12"/>
</a>
</g>
</g>
<!-- Node30 -->
<g id="Node000030" class="node">
<title>Node30</title>
<g id="a_Node000030"><a xlink:href="../../d7/df8/log_8c.html#a7b1b02d1986e1247c2f571af4a2c2854" target="_top" xlink:title=" ">
<polygon fill="white" stroke="#666666" points="1324.25,-107.95 1249,-107.95 1249,-88.7 1324.25,-88.7 1324.25,-107.95"/>
<text text-anchor="middle" x="1286.62" y="-94.45" font-family="Helvetica,sans-Serif" font-size="10.00">log_spin_lock</text>
</a>
</g>
</g>
<!-- Node14&#45;&gt;Node30 -->
<g id="edge33_Node000014_Node000030" class="edge">
<title>Node14&#45;&gt;Node30</title>
<g id="a_edge33_Node000014_Node000030"><a xlink:title=" ">
<path fill="none" stroke="#63b8ff" d="M1199,-111C1211.31,-109.2 1224.8,-107.22 1237.4,-105.38"/>
<polygon fill="#63b8ff" stroke="#63b8ff" points="1237.76,-108.86 1247.15,-103.95 1236.75,-101.94 1237.76,-108.86"/>
</a>
</g>
</g>
<!-- Node31 -->
<g id="Node000031" class="node">
<title>Node31</title>
<g id="a_Node000031"><a xlink:href="../../d1/dc0/group__log.html#ga045020bb4af234632f7761f220131c69" target="_top" xlink:title=" ">
<polygon fill="white" stroke="#666666" points="1329.5,-70.95 1243.75,-70.95 1243.75,-51.7 1329.5,-51.7 1329.5,-70.95"/>
<text text-anchor="middle" x="1286.62" y="-57.45" font-family="Helvetica,sans-Serif" font-size="10.00">log_spin_unlock</text>
</a>
</g>
</g>
<!-- Node14&#45;&gt;Node31 -->
<g id="edge34_Node000014_Node000031" class="edge">
<title>Node14&#45;&gt;Node31</title>
<g id="a_edge34_Node000014_Node000031"><a xlink:title=" ">
<path fill="none" stroke="#63b8ff" d="M1174.96,-107.36C1190.8,-99.32 1213.95,-87.98 1234.75,-79.32 1238.08,-77.94 1241.56,-76.56 1245.07,-75.23"/>
<polygon fill="#63b8ff" stroke="#63b8ff" points="1245.97,-78.62 1254.14,-71.88 1243.55,-72.06 1245.97,-78.62"/>
</a>
</g>
</g>
<!-- Node15&#45;&gt;Node15 -->
<g id="edge15_Node000015_Node000015" class="edge">
<title>Node15&#45;&gt;Node15</title>
<g id="a_edge15_Node000015_Node000015"><a xlink:title=" ">
<path fill="none" stroke="#63b8ff" d="M1265.98,-145.24C1256.56,-153.84 1263.44,-162.95 1286.62,-162.95 1299.3,-162.95 1307.1,-160.23 1310.03,-156.35"/>
<polygon fill="#63b8ff" stroke="#63b8ff" points="1313.44,-155.57 1307.64,-146.71 1306.65,-157.25 1313.44,-155.57"/>
</a>
</g>
</g>
<!-- Node16 -->
<g id="Node000016" class="node">
<title>Node16</title>
<g id="a_Node000016"><a xlink:href="../../de/d1a/container-dlist_8h.html#a3b6f65860b212e28f2e28e71eb54d54d" target="_top" xlink:title="Add element e at the head of list l (suited for LIFO).">
<polygon fill="white" stroke="#666666" points="1465.5,-51.95 1410.5,-51.95 1410.5,-32.7 1465.5,-32.7 1465.5,-51.95"/>
<text text-anchor="middle" x="1438" y="-38.45" font-family="Helvetica,sans-Serif" font-size="10.00">dlist_add</text>
</a>
</g>
</g>
<!-- Node15&#45;&gt;Node16 -->
<g id="edge16_Node000015_Node000016" class="edge">
<title>Node15&#45;&gt;Node16</title>
<g id="a_edge16_Node000015_Node000016"><a xlink:title=" ">
<path fill="none" stroke="#63b8ff" d="M1325.28,-125.29C1330,-123.11 1334.55,-120.48 1338.5,-117.32 1361.92,-98.63 1350.54,-78.31 1374.5,-60.32 1381.66,-54.95 1390.38,-51.18 1399,-48.53"/>
<polygon fill="#63b8ff" stroke="#63b8ff" points="1399.87,-51.92 1408.68,-46.04 1398.12,-45.14 1399.87,-51.92"/>
</a>
</g>
</g>
<!-- Node18 -->
<g id="Node000018" class="node">
<title>Node18</title>
<g id="a_Node000018"><a xlink:href="../../de/d1a/container-dlist_8h.html#a0a69e401f6ec15966c891e96ad864c77" target="_top" xlink:title="Put a dlist_t element in a safe and detached state.">
<polygon fill="white" stroke="#666666" points="1464,-125.95 1412,-125.95 1412,-106.7 1464,-106.7 1464,-125.95"/>
<text text-anchor="middle" x="1438" y="-112.45" font-family="Helvetica,sans-Serif" font-size="10.00">dlist_init</text>
</a>
</g>
</g>
<!-- Node15&#45;&gt;Node18 -->
<g id="edge18_Node000015_Node000018" class="edge">
<title>Node15&#45;&gt;Node18</title>
<g id="a_edge18_Node000015_Node000018"><a xlink:title=" ">
<path fill="none" stroke="#63b8ff" d="M1338.61,-128.84C1358.95,-126.25 1381.91,-123.33 1400.53,-120.96"/>
<polygon fill="#63b8ff" stroke="#63b8ff" points="1400.8,-124.46 1410.28,-119.72 1399.92,-117.51 1400.8,-124.46"/>
</a>
</g>
</g>
<!-- Node19 -->
<g id="Node000019" class="node">
<title>Node19</title>
<g id="a_Node000019"><a xlink:href="../../d7/df8/log_8c.html#a4c8fbe8648573312126ce341cf34cba1" target="_top" xlink:title=" ">
<polygon fill="white" stroke="#666666" points="1501.5,-201.95 1374.5,-201.95 1374.5,-182.7 1501.5,-182.7 1501.5,-201.95"/>
<text text-anchor="middle" x="1438" y="-188.45" font-family="Helvetica,sans-Serif" font-size="10.00">logger_compute_fullname</text>
</a>
</g>
</g>
<!-- Node15&#45;&gt;Node19 -->
<g id="edge19_Node000015_Node000019" class="edge">
<title>Node15&#45;&gt;Node19</title>
<g id="a_edge19_Node000015_Node000019"><a xlink:title=" ">
<path fill="none" stroke="#63b8ff" d="M1313.99,-145.38C1337.91,-154.51 1373.43,-168.07 1400.16,-178.27"/>
<polygon fill="#63b8ff" stroke="#63b8ff" points="1398.65,-181.43 1409.24,-181.73 1401.14,-174.89 1398.65,-181.43"/>
</a>
</g>
</g>
<!-- Node22 -->
<g id="Node000022" class="node">
<title>Node22</title>
<g id="a_Node000022"><a xlink:href="../../df/d0a/str-l_8h.html#ad74dae07179370f3c22e3f026157926e" target="_top" xlink:title="wipe a lstr_t (frees memory if needed).">
<polygon fill="white" stroke="#666666" points="1609,-189.95 1554,-189.95 1554,-170.7 1609,-170.7 1609,-189.95"/>
<text text-anchor="middle" x="1581.5" y="-176.45" font-family="Helvetica,sans-Serif" font-size="10.00">lstr_wipe</text>
</a>
</g>
</g>
<!-- Node15&#45;&gt;Node22 -->
<g id="edge32_Node000015_Node000022" class="edge">
<title>Node15&#45;&gt;Node22</title>
<g id="a_edge32_Node000015_Node000022"><a xlink:title=" ">
<path fill="none" stroke="#63b8ff" d="M1338.98,-143.21C1397.11,-152.15 1490.49,-166.49 1542.46,-174.48"/>
<polygon fill="#63b8ff" stroke="#63b8ff" points="1541.9,-177.93 1552.32,-175.99 1542.97,-171.02 1541.9,-177.93"/>
</a>
</g>
</g>
<!-- Node29 -->
<g id="Node000029" class="node">
<title>Node29</title>
<g id="a_Node000029"><a xlink:href="../../df/d0a/str-l_8h.html#a963c22b229774d4b7c106bae4011cb8e" target="_top" xlink:title="Returns whether \v s1 and \v s2 contents are equal.">
<polygon fill="white" stroke="#666666" points="1467,-88.95 1409,-88.95 1409,-69.7 1467,-69.7 1467,-88.95"/>
<text text-anchor="middle" x="1438" y="-75.45" font-family="Helvetica,sans-Serif" font-size="10.00">lstr_equal</text>
</a>
</g>
</g>
<!-- Node15&#45;&gt;Node29 -->
<g id="edge31_Node000015_Node000029" class="edge">
<title>Node15&#45;&gt;Node29</title>
<g id="a_edge31_Node000015_Node000029"><a xlink:title=" ">
<path fill="none" stroke="#63b8ff" d="M1318.62,-125.29C1325.26,-122.88 1332.18,-120.17 1338.5,-117.32 1355.19,-109.8 1357.6,-104.35 1374.5,-97.32 1381.79,-94.3 1389.75,-91.58 1397.48,-89.23"/>
<polygon fill="#63b8ff" stroke="#63b8ff" points="1398.43,-92.6 1407.08,-86.48 1396.5,-85.87 1398.43,-92.6"/>
</a>
</g>
</g>
<!-- Node17 -->
<g id="Node000017" class="node">
<title>Node17</title>
<g id="a_Node000017"><a xlink:href="../../de/d1a/container-dlist_8h.html#a71e7667ca0e4b896923788c5851afd24" target="_top" xlink:title="Put element e between prev and next.">
<polygon fill="white" stroke="#666666" points="1614.25,-51.95 1548.75,-51.95 1548.75,-32.7 1614.25,-32.7 1614.25,-51.95"/>
<text text-anchor="middle" x="1581.5" y="-38.45" font-family="Helvetica,sans-Serif" font-size="10.00">__dlist_add</text>
</a>
</g>
</g>
<!-- Node16&#45;&gt;Node17 -->
<g id="edge17_Node000016_Node000017" class="edge">
<title>Node16&#45;&gt;Node17</title>
<g id="a_edge17_Node000016_Node000017"><a xlink:title=" ">
<path fill="none" stroke="#63b8ff" d="M1465.95,-42.32C1486.05,-42.32 1513.92,-42.32 1537.14,-42.32"/>
<polygon fill="#63b8ff" stroke="#63b8ff" points="1536.94,-45.82 1546.94,-42.32 1536.94,-38.82 1536.94,-45.82"/>
</a>
</g>
</g>
<!-- Node20 -->
<g id="Node000020" class="node">
<title>Node20</title>
<g id="a_Node000020"><a xlink:href="../../df/d0a/str-l_8h.html#a6a200ca09358f19b13a8e297cda34869" target="_top" xlink:title="returns a constant copy of \v s.">
<polygon fill="white" stroke="#666666" points="1609.38,-226.95 1553.62,-226.95 1553.62,-207.7 1609.38,-207.7 1609.38,-226.95"/>
<text text-anchor="middle" x="1581.5" y="-213.45" font-family="Helvetica,sans-Serif" font-size="10.00">lstr_dupc</text>
</a>
</g>
</g>
<!-- Node19&#45;&gt;Node20 -->
<g id="edge20_Node000019_Node000020" class="edge">
<title>Node19&#45;&gt;Node20</title>
<g id="a_edge20_Node000019_Node000020"><a xlink:title=" ">
<path fill="none" stroke="#63b8ff" d="M1496.15,-202.42C1511.61,-205.15 1527.97,-208.04 1542.12,-210.54"/>
<polygon fill="#63b8ff" stroke="#63b8ff" points="1541.48,-213.98 1551.94,-212.28 1542.7,-207.09 1541.48,-213.98"/>
</a>
</g>
</g>
<!-- Node19&#45;&gt;Node22 -->
<g id="edge22_Node000019_Node000022" class="edge">
<title>Node19&#45;&gt;Node22</title>
<g id="a_edge22_Node000019_Node000022"><a xlink:title=" ">
<path fill="none" stroke="#63b8ff" d="M1501.89,-186.99C1515.65,-185.82 1529.81,-184.62 1542.26,-183.57"/>
<polygon fill="#63b8ff" stroke="#63b8ff" points="1542.42,-187.07 1552.09,-182.73 1541.83,-180.09 1542.42,-187.07"/>
</a>
</g>
</g>
<!-- Node21 -->
<g id="Node000021" class="node">
<title>Node21</title>
<g id="a_Node000021"><a xlink:href="../../df/d0a/str-l_8h.html#a3b4dbe9c4cc70340cba0787574dc1c5e" target="_top" xlink:title=" ">
<polygon fill="white" stroke="#666666" points="1939,-203.95 1886.25,-203.95 1886.25,-184.7 1939,-184.7 1939,-203.95"/>
<text text-anchor="middle" x="1912.62" y="-190.45" font-family="Helvetica,sans-Serif" font-size="10.00">lstr_init_</text>
</a>
</g>
</g>
<!-- Node20&#45;&gt;Node21 -->
<g id="edge21_Node000020_Node000021" class="edge">
<title>Node20&#45;&gt;Node21</title>
<g id="a_edge21_Node000020_Node000021"><a xlink:title=" ">
<path fill="none" stroke="#63b8ff" d="M1609.71,-215.42C1668.56,-211.31 1807.69,-201.59 1874.53,-196.92"/>
<polygon fill="#63b8ff" stroke="#63b8ff" points="1874.51,-200.43 1884.24,-196.24 1874.02,-193.44 1874.51,-200.43"/>
</a>
</g>
</g>
<!-- Node23 -->
<g id="Node000023" class="node">
<title>Node23</title>
<g id="a_Node000023"><a xlink:href="../../df/d0a/str-l_8h.html#a381cd831ac9616c5bea8213bb679d1ac" target="_top" xlink:title="Wipe a lstr_t (frees memory if needed).">
<polygon fill="white" stroke="#666666" points="1735.25,-241.95 1661.5,-241.95 1661.5,-222.7 1735.25,-222.7 1735.25,-241.95"/>
<text text-anchor="middle" x="1698.38" y="-228.45" font-family="Helvetica,sans-Serif" font-size="10.00">mp_lstr_wipe</text>
</a>
</g>
</g>
<!-- Node22&#45;&gt;Node23 -->
<g id="edge23_Node000022_Node000023" class="edge">
<title>Node22&#45;&gt;Node23</title>
<g id="a_edge23_Node000022_Node000023"><a xlink:title=" ">
<path fill="none" stroke="#63b8ff" d="M1607.14,-190.41C1613.17,-192.94 1619.59,-195.69 1625.5,-198.32 1639.09,-204.38 1653.99,-211.37 1666.67,-217.42"/>
<polygon fill="#63b8ff" stroke="#63b8ff" points="1664.84,-220.43 1675.37,-221.6 1667.87,-214.12 1664.84,-220.43"/>
</a>
</g>
</g>
<!-- Node24 -->
<g id="Node000024" class="node">
<title>Node24</title>
<g id="a_Node000024"><a xlink:href="../../de/d04/str-l_8c.html#abe2a3a71f0b4dbc7d37c59d16762b6fb" target="_top" xlink:title="lstr_copy_* helper.">
<polygon fill="white" stroke="#666666" points="1850.25,-241.95 1771.25,-241.95 1771.25,-222.7 1850.25,-222.7 1850.25,-241.95"/>
<text text-anchor="middle" x="1810.75" y="-228.45" font-family="Helvetica,sans-Serif" font-size="10.00">mp_lstr_copy_</text>
</a>
</g>
</g>
<!-- Node23&#45;&gt;Node24 -->
<g id="edge24_Node000023_Node000024" class="edge">
<title>Node23&#45;&gt;Node24</title>
<g id="a_edge24_Node000023_Node000024"><a xlink:title=" ">
<path fill="none" stroke="#63b8ff" d="M1735.52,-232.32C1743.21,-232.32 1751.46,-232.32 1759.57,-232.32"/>
<polygon fill="#63b8ff" stroke="#63b8ff" points="1759.35,-235.82 1769.35,-232.32 1759.35,-228.82 1759.35,-235.82"/>
</a>
</g>
</g>
<!-- Node24&#45;&gt;Node21 -->
<g id="edge30_Node000024_Node000021" class="edge">
<title>Node24&#45;&gt;Node21</title>
<g id="a_edge30_Node000024_Node000021"><a xlink:title=" ">
<path fill="none" stroke="#63b8ff" d="M1838.25,-222.24C1849.69,-217.89 1863.26,-212.73 1875.6,-208.03"/>
<polygon fill="#63b8ff" stroke="#63b8ff" points="1876.52,-211.43 1884.62,-204.6 1874.03,-204.88 1876.52,-211.43"/>
</a>
</g>
</g>
<!-- Node25 -->
<g id="Node000025" class="node">
<title>Node25</title>
<g id="a_Node000025"><a xlink:href="../../d9/d9a/mem_8h.html#aebbbd277e2952bdb802104671ba23ba9" target="_top" xlink:title=" ">
<polygon fill="white" stroke="#666666" points="1930,-277.95 1895.25,-277.95 1895.25,-258.7 1930,-258.7 1930,-277.95"/>
<text text-anchor="middle" x="1912.62" y="-264.45" font-family="Helvetica,sans-Serif" font-size="10.00">ifree</text>
</a>
</g>
</g>
<!-- Node24&#45;&gt;Node25 -->
<g id="edge25_Node000024_Node000025" class="edge">
<title>Node24&#45;&gt;Node25</title>
<g id="a_edge25_Node000024_Node000025"><a xlink:title=" ">
<path fill="none" stroke="#63b8ff" d="M1839.84,-242.45C1853.72,-247.45 1870.41,-253.47 1884.2,-258.44"/>
<polygon fill="#63b8ff" stroke="#63b8ff" points="1882.96,-261.71 1893.56,-261.81 1885.34,-255.13 1882.96,-261.71"/>
</a>
</g>
</g>
<!-- Node26 -->
<g id="Node000026" class="node">
<title>Node26</title>
<g id="a_Node000026"><a xlink:href="../../d8/d37/mem_8blk.html#a36b65ab346f1d0deed7b63c544c78f2b" target="_top" xlink:title=" ">
<polygon fill="white" stroke="#666666" points="2019.88,-315.95 1983.62,-315.95 1983.62,-296.7 2019.88,-296.7 2019.88,-315.95"/>
<text text-anchor="middle" x="2001.75" y="-302.45" font-family="Helvetica,sans-Serif" font-size="10.00">ipool</text>
</a>
</g>
</g>
<!-- Node25&#45;&gt;Node26 -->
<g id="edge26_Node000025_Node000026" class="edge">
<title>Node25&#45;&gt;Node26</title>
<g id="a_edge26_Node000025_Node000026"><a xlink:title=" ">
<path fill="none" stroke="#63b8ff" d="M1930.42,-275.65C1942.44,-280.89 1958.9,-288.07 1972.87,-294.16"/>
<polygon fill="#63b8ff" stroke="#63b8ff" points="1971.45,-297.36 1982.02,-298.15 1974.25,-290.95 1971.45,-297.36"/>
</a>
</g>
</g>
<!-- Node28 -->
<g id="Node000028" class="node">
<title>Node28</title>
<g id="a_Node000028"><a xlink:href="../../d8/d37/mem_8blk.html#a83c7cf203e5eef9d1a8c6c43cde3e2e5" target="_top" xlink:title=" ">
<polygon fill="white" stroke="#666666" points="2028.5,-277.95 1975,-277.95 1975,-258.7 2028.5,-258.7 2028.5,-277.95"/>
<text text-anchor="middle" x="2001.75" y="-264.45" font-family="Helvetica,sans-Serif" font-size="10.00">mp_ifree</text>
</a>
</g>
</g>
<!-- Node25&#45;&gt;Node28 -->
<g id="edge29_Node000025_Node000028" class="edge">
<title>Node25&#45;&gt;Node28</title>
<g id="a_edge29_Node000025_Node000028"><a xlink:title=" ">
<path fill="none" stroke="#63b8ff" d="M1930.42,-268.32C1939.84,-268.32 1951.99,-268.32 1963.53,-268.32"/>
<polygon fill="#63b8ff" stroke="#63b8ff" points="1963.23,-271.82 1973.23,-268.32 1963.23,-264.82 1963.23,-271.82"/>
</a>
</g>
</g>
<!-- Node26&#45;&gt;Node13 -->
<g id="edge27_Node000026_Node000013" class="edge">
<title>Node26&#45;&gt;Node13</title>
<g id="a_edge27_Node000026_Node000013"><a xlink:title=" ">
<path fill="none" stroke="#63b8ff" d="M1983.29,-306.32C1949.95,-306.32 1874.91,-306.32 1811.75,-306.32 1285.62,-306.32 1285.62,-306.32 1285.62,-306.32 1207.4,-306.32 1180.74,-321.27 1110.75,-286.32 1089.94,-275.93 1092.8,-263.01 1074.75,-248.32 1074.09,-247.79 1073.42,-247.26 1072.73,-246.73"/>
<polygon fill="#63b8ff" stroke="#63b8ff" points="1074.84,-243.94 1064.62,-241.14 1070.87,-249.7 1074.84,-243.94"/>
</a>
</g>
</g>
<!-- Node26&#45;&gt;Node27 -->
<g id="edge28_Node000026_Node000027" class="edge">
<title>Node26&#45;&gt;Node27</title>
<g id="a_edge28_Node000026_Node000027"><a xlink:title=" ">
<path fill="none" stroke="#63b8ff" d="M2020.11,-310.35C2029.66,-312.57 2041.8,-315.39 2052.97,-317.98"/>
<polygon fill="#63b8ff" stroke="#63b8ff" points="2052.1,-321.37 2062.63,-320.22 2053.68,-314.55 2052.1,-321.37"/>
</a>
</g>
</g>
<!-- Node32&#45;&gt;Node20 -->
<g id="edge39_Node000032_Node000020" class="edge">
<title>Node32&#45;&gt;Node20</title>
<g id="a_edge39_Node000032_Node000020"><a xlink:title=" ">
<path fill="none" stroke="#63b8ff" d="M1187.68,-229.35C1264.36,-227 1458.7,-221.05 1541.83,-218.51"/>
<polygon fill="#63b8ff" stroke="#63b8ff" points="1541.85,-222.01 1551.74,-218.2 1541.64,-215.01 1541.85,-222.01"/>
</a>
</g>
</g>
<!-- Node33 -->
<g id="Node000033" class="node">
<title>Node33</title>
<g id="a_Node000033"><a xlink:href="../../d1/dc0/group__log.html#ga168a6f17b248f61f7d25a17d58d04e36" target="_top" xlink:title=" ">
<polygon fill="white" stroke="#666666" points="1331,-277.95 1242.25,-277.95 1242.25,-258.7 1331,-258.7 1331,-277.95"/>
<text text-anchor="middle" x="1286.62" y="-264.45" font-family="Helvetica,sans-Serif" font-size="10.00">logger_has_level</text>
</a>
</g>
</g>
<!-- Node32&#45;&gt;Node33 -->
<g id="edge36_Node000032_Node000033" class="edge">
<title>Node32&#45;&gt;Node33</title>
<g id="a_edge36_Node000032_Node000033"><a xlink:title=" ">
<path fill="none" stroke="#63b8ff" d="M1187.85,-239.72C1203.63,-244.33 1222.91,-249.97 1240.17,-255.02"/>
<polygon fill="#63b8ff" stroke="#63b8ff" points="1239.13,-258.37 1249.71,-257.82 1241.09,-251.65 1239.13,-258.37"/>
</a>
</g>
</g>
<!-- Node34 -->
<g id="Node000034" class="node">
<title>Node34</title>
<g id="a_Node000034"><a xlink:href="../../d1/dc0/group__log.html#gaf388752b988541da0abeceecdf96e6b3" target="_top" xlink:title=" ">
<polygon fill="white" stroke="#666666" points="1481.25,-277.95 1394.75,-277.95 1394.75,-258.7 1481.25,-258.7 1481.25,-277.95"/>
<text text-anchor="middle" x="1438" y="-264.45" font-family="Helvetica,sans-Serif" font-size="10.00">logger_get_level</text>
</a>
</g>
</g>
<!-- Node33&#45;&gt;Node34 -->
<g id="edge37_Node000033_Node000034" class="edge">
<title>Node33&#45;&gt;Node34</title>
<g id="a_edge37_Node000033_Node000034"><a xlink:title=" ">
<path fill="none" stroke="#63b8ff" d="M1331.23,-268.32C1347.39,-268.32 1365.92,-268.32 1382.9,-268.32"/>
<polygon fill="#63b8ff" stroke="#63b8ff" points="1382.86,-271.82 1392.86,-268.32 1382.86,-264.82 1382.86,-271.82"/>
</a>
</g>
</g>
<!-- Node35 -->
<g id="Node000035" class="node">
<title>Node35</title>
<g id="a_Node000035"><a xlink:href="../../d1/dc0/group__log.html#ga93cbd623096e1704532d15b3eb30e42f" target="_top" xlink:title=" ">
<polygon fill="white" stroke="#666666" points="1625.5,-277.95 1537.5,-277.95 1537.5,-258.7 1625.5,-258.7 1625.5,-277.95"/>
<text text-anchor="middle" x="1581.5" y="-264.45" font-family="Helvetica,sans-Serif" font-size="10.00">__logger_refresh</text>
</a>
</g>
</g>
<!-- Node34&#45;&gt;Node35 -->
<g id="edge38_Node000034_Node000035" class="edge">
<title>Node34&#45;&gt;Node35</title>
<g id="a_edge38_Node000034_Node000035"><a xlink:title=" ">
<path fill="none" stroke="#63b8ff" d="M1481.45,-268.32C1495.33,-268.32 1510.94,-268.32 1525.6,-268.32"/>
<polygon fill="#63b8ff" stroke="#63b8ff" points="1525.58,-271.82 1535.58,-268.32 1525.58,-264.82 1525.58,-271.82"/>
</a>
</g>
</g>
<!-- Node38 -->
<g id="Node000038" class="node">
<title>Node38</title>
<g id="a_Node000038"><a xlink:href="../../d8/d96/bithacks_8h.html#ab80588fa9f8b9e766249edaf70558bdc" target="_top" xlink:title=" ">
<polygon fill="white" stroke="#666666" points="1074.75,-276.95 1014.5,-276.95 1014.5,-257.7 1074.75,-257.7 1074.75,-276.95"/>
<text text-anchor="middle" x="1044.62" y="-263.45" font-family="Helvetica,sans-Serif" font-size="10.00">bitcountsz</text>
</a>
</g>
</g>
<!-- Node37&#45;&gt;Node38 -->
<g id="edge42_Node000037_Node000038" class="edge">
<title>Node37&#45;&gt;Node38</title>
<g id="a_edge42_Node000037_Node000038"><a xlink:title=" ">
<path fill="none" stroke="#63b8ff" d="M967.07,-267.32C978.65,-267.32 991.37,-267.32 1003.06,-267.32"/>
<polygon fill="#63b8ff" stroke="#63b8ff" points="1002.81,-270.82 1012.81,-267.32 1002.81,-263.82 1002.81,-270.82"/>
</a>
</g>
</g>
<!-- Node40 -->
<g id="Node000040" class="node">
<title>Node40</title>
<g id="a_Node000040"><a xlink:href="../../d8/d37/mem_8blk.html#a377e36d6fbaf3ee7f1b217559cb0c850" target="_top" xlink:title=" ">
<polygon fill="white" stroke="#666666" points="978.5,-313.95 876.25,-313.95 876.25,-294.7 978.5,-294.7 978.5,-313.95"/>
<text text-anchor="middle" x="927.38" y="-300.45" font-family="Helvetica,sans-Serif" font-size="10.00">__imalloc_too_large</text>
</a>
</g>
</g>
<!-- Node39&#45;&gt;Node40 -->
<g id="edge44_Node000039_Node000040" class="edge">
<title>Node39&#45;&gt;Node40</title>
<g id="a_edge44_Node000039_Node000040"><a xlink:title=" ">
<path fill="none" stroke="#63b8ff" d="M825.8,-279.45C841.06,-283.22 858.57,-287.55 874.67,-291.53"/>
<polygon fill="#63b8ff" stroke="#63b8ff" points="873.52,-294.86 884.07,-293.86 875.2,-288.06 873.52,-294.86"/>
</a>
</g>
</g>
<!-- Node41&#45;&gt;Node21 -->
<g id="edge46_Node000041_Node000021" class="edge">
<title>Node41&#45;&gt;Node21</title>
<g id="a_edge46_Node000041_Node000021"><a xlink:title=" ">
<path fill="none" stroke="#63b8ff" d="M1721.29,-107.34C1758.78,-124.47 1835.42,-159.5 1879.15,-179.48"/>
<polygon fill="#63b8ff" stroke="#63b8ff" points="1877.58,-182.62 1888.13,-183.59 1880.49,-176.25 1877.58,-182.62"/>
</a>
</g>
</g>
</g>
</svg>
