<?xml version="1.0" encoding="UTF-8" standalone="no"?>
<!DOCTYPE svg PUBLIC "-//W3C//DTD SVG 1.1//EN"
 "http://www.w3.org/Graphics/SVG/1.1/DTD/svg11.dtd">
<!-- Generated by graphviz version 9.0.0 (20230911.1827)
 -->
<!-- Title: check_constraints Pages: 1 -->
<svg width="581pt" height="64pt"
 viewBox="0.00 0.00 581.25 64.25" xmlns="http://www.w3.org/2000/svg" xmlns:xlink="http://www.w3.org/1999/xlink">
<g id="graph0" class="graph" transform="scale(1 1) rotate(0) translate(4 60.25)">
<title>check_constraints</title>
<!-- Node1 -->
<g id="Node000001" class="node">
<title>Node1</title>
<g id="a_Node000001"><a xlink:title=" ">
<polygon fill="#999999" stroke="#666666" points="95.5,-37.25 0,-37.25 0,-18 95.5,-18 95.5,-37.25"/>
<text text-anchor="middle" x="47.75" y="-23.75" font-family="Helvetica,sans-Serif" font-size="10.00">check_constraints</text>
</a>
</g>
</g>
<!-- Node2 -->
<g id="Node000002" class="node">
<title>Node2</title>
<g id="a_Node000002"><a xlink:href="../../d3/d40/iop_8h.html#acbfd916977616199b49f6fe2495877fc" target="_top" xlink:title="Checks the constraints associated to a given field.">
<polygon fill="white" stroke="#666666" points="267.5,-56.25 131.5,-56.25 131.5,-37 267.5,-37 267.5,-56.25"/>
<text text-anchor="middle" x="199.5" y="-42.75" font-family="Helvetica,sans-Serif" font-size="10.00">iop_field_check_constraints</text>
</a>
</g>
</g>
<!-- Node1&#45;&gt;Node2 -->
<g id="edge1_Node000001_Node000002" class="edge">
<title>Node1&#45;&gt;Node2</title>
<g id="a_edge1_Node000001_Node000002"><a xlink:title=" ">
<path fill="none" stroke="#63b8ff" d="M95.72,-33.58C103.45,-34.56 111.63,-35.6 119.88,-36.65"/>
<polygon fill="#63b8ff" stroke="#63b8ff" points="119.27,-40.1 129.63,-37.89 120.15,-33.16 119.27,-40.1"/>
</a>
</g>
</g>
<!-- Node3 -->
<g id="Node000003" class="node">
<title>Node3</title>
<g id="a_Node000003"><a xlink:href="../../d3/d40/iop_8h.html#ad3bec187e4664f20a9cb315f7d33dfbf" target="_top" xlink:title=" ">
<polygon fill="white" stroke="#666666" points="262.25,-19.25 136.75,-19.25 136.75,0 262.25,0 262.25,-19.25"/>
<text text-anchor="middle" x="199.5" y="-5.75" font-family="Helvetica,sans-Serif" font-size="10.00">iop_field_has_constraints</text>
</a>
</g>
</g>
<!-- Node1&#45;&gt;Node3 -->
<g id="edge2_Node000001_Node000003" class="edge">
<title>Node1&#45;&gt;Node3</title>
<g id="a_edge2_Node000001_Node000003"><a xlink:title=" ">
<path fill="none" stroke="#63b8ff" d="M95.72,-21.98C105.07,-20.86 115.09,-19.65 125.09,-18.45"/>
<polygon fill="#63b8ff" stroke="#63b8ff" points="125.3,-21.95 134.81,-17.28 124.46,-15 125.3,-21.95"/>
</a>
</g>
</g>
<!-- Node4 -->
<g id="Node000004" class="node">
<title>Node4</title>
<g id="a_Node000004"><a xlink:href="../../d3/d40/iop_8h.html#a37f2dbd1515c3c532140c857435daa54" target="_top" xlink:title=" ">
<polygon fill="white" stroke="#666666" points="442.5,-19.25 303.5,-19.25 303.5,0 442.5,0 442.5,-19.25"/>
<text text-anchor="middle" x="373" y="-5.75" font-family="Helvetica,sans-Serif" font-size="10.00">iop_field_get_constraints_cb</text>
</a>
</g>
</g>
<!-- Node3&#45;&gt;Node4 -->
<g id="edge3_Node000003_Node000004" class="edge">
<title>Node3&#45;&gt;Node4</title>
<g id="a_edge3_Node000003_Node000004"><a xlink:title=" ">
<path fill="none" stroke="#63b8ff" d="M262.42,-9.62C271.93,-9.62 281.87,-9.62 291.72,-9.62"/>
<polygon fill="#63b8ff" stroke="#63b8ff" points="291.69,-13.13 301.69,-9.63 291.69,-6.13 291.69,-13.13"/>
</a>
</g>
</g>
<!-- Node5 -->
<g id="Node000005" class="node">
<title>Node5</title>
<g id="a_Node000005"><a xlink:href="../../d3/d40/iop_8h.html#a756dfeca8862c920963ce9700ecce577" target="_top" xlink:title=" ">
<polygon fill="white" stroke="#666666" points="573.25,-19.25 478.5,-19.25 478.5,0 573.25,0 573.25,-19.25"/>
<text text-anchor="middle" x="525.88" y="-5.75" font-family="Helvetica,sans-Serif" font-size="10.00">iop_field_get_attrs</text>
</a>
</g>
</g>
<!-- Node4&#45;&gt;Node5 -->
<g id="edge4_Node000004_Node000005" class="edge">
<title>Node4&#45;&gt;Node5</title>
<g id="a_edge4_Node000004_Node000005"><a xlink:title=" ">
<path fill="none" stroke="#63b8ff" d="M442.81,-9.62C450.86,-9.62 459,-9.62 466.87,-9.62"/>
<polygon fill="#63b8ff" stroke="#63b8ff" points="466.66,-13.13 476.66,-9.63 466.66,-6.13 466.66,-13.13"/>
</a>
</g>
</g>
</g>
</svg>
