<?xml version="1.0" encoding="UTF-8" standalone="no"?>
<!DOCTYPE svg PUBLIC "-//W3C//DTD SVG 1.1//EN"
 "http://www.w3.org/Graphics/SVG/1.1/DTD/svg11.dtd">
<!-- Generated by graphviz version 9.0.0 (20230911.1827)
 -->
<!-- Title: get_struct_from_tag Pages: 1 -->
<svg width="416pt" height="140pt"
 viewBox="0.00 0.00 416.00 140.25" xmlns="http://www.w3.org/2000/svg" xmlns:xlink="http://www.w3.org/1999/xlink">
<g id="graph0" class="graph" transform="scale(1 1) rotate(0) translate(4 136.25)">
<title>get_struct_from_tag</title>
<!-- Node1 -->
<g id="Node000001" class="node">
<title>Node1</title>
<g id="a_Node000001"><a xlink:title=" ">
<polygon fill="#999999" stroke="#666666" points="103,-75.25 0,-75.25 0,-56 103,-56 103,-75.25"/>
<text text-anchor="middle" x="51.5" y="-61.75" font-family="Helvetica,sans-Serif" font-size="10.00">get_struct_from_tag</text>
</a>
</g>
</g>
<!-- Node2 -->
<g id="Node000002" class="node">
<title>Node2</title>
<g id="a_Node000002"><a xlink:href="../../d0/d2d/iop_8blk.html#ac6881f6f92d74c934dcf5c56b0c3d9a6" target="_top" xlink:title=" ">
<polygon fill="white" stroke="#666666" points="245.75,-132.25 165.25,-132.25 165.25,-113 245.75,-113 245.75,-132.25"/>
<text text-anchor="middle" x="205.5" y="-118.75" font-family="Helvetica,sans-Serif" font-size="10.00">iop_class_is_a</text>
</a>
</g>
</g>
<!-- Node1&#45;&gt;Node2 -->
<g id="edge1_Node000001_Node000002" class="edge">
<title>Node1&#45;&gt;Node2</title>
<g id="a_edge1_Node000001_Node000002"><a xlink:title=" ">
<path fill="none" stroke="#63b8ff" d="M78.58,-75.68C95.73,-82.26 118.68,-91.02 139,-98.62 147.79,-101.91 157.26,-105.41 166.19,-108.69"/>
<polygon fill="#63b8ff" stroke="#63b8ff" points="164.73,-111.88 175.32,-112.03 167.13,-105.3 164.73,-111.88"/>
</a>
</g>
</g>
<!-- Node3 -->
<g id="Node000003" class="node">
<title>Node3</title>
<g id="a_Node000003"><a xlink:href="../../d3/d40/iop_8h.html#a07f21da2d3381b98dd6f6bbd642d2130" target="_top" xlink:title=" ">
<polygon fill="white" stroke="#666666" points="408,-94.25 308,-94.25 308,-75 408,-75 408,-94.25"/>
<text text-anchor="middle" x="358" y="-80.75" font-family="Helvetica,sans-Serif" font-size="10.00">iop_struct_is_class</text>
</a>
</g>
</g>
<!-- Node1&#45;&gt;Node3 -->
<g id="edge5_Node000001_Node000003" class="edge">
<title>Node1&#45;&gt;Node3</title>
<g id="a_edge5_Node000001_Node000003"><a xlink:title=" ">
<path fill="none" stroke="#63b8ff" d="M103.47,-68.81C156.61,-72.12 239.88,-77.32 296.36,-80.84"/>
<polygon fill="#63b8ff" stroke="#63b8ff" points="295.93,-84.32 306.13,-81.45 296.36,-77.33 295.93,-84.32"/>
</a>
</g>
</g>
<!-- Node4 -->
<g id="Node000004" class="node">
<title>Node4</title>
<g id="a_Node000004"><a xlink:href="../../d0/d2d/iop_8blk.html#a3e0d747e81d1c12ef29768dbc4cb0029" target="_top" xlink:title=" ">
<polygon fill="white" stroke="#666666" points="272,-56.25 139,-56.25 139,-37 272,-37 272,-56.25"/>
<text text-anchor="middle" x="205.5" y="-42.75" font-family="Helvetica,sans-Serif" font-size="10.00">iop_get_class_by_fullname</text>
</a>
</g>
</g>
<!-- Node1&#45;&gt;Node4 -->
<g id="edge3_Node000001_Node000004" class="edge">
<title>Node1&#45;&gt;Node4</title>
<g id="a_edge3_Node000001_Node000004"><a xlink:title=" ">
<path fill="none" stroke="#63b8ff" d="M103.11,-59.3C110.95,-58.32 119.2,-57.29 127.46,-56.26"/>
<polygon fill="#63b8ff" stroke="#63b8ff" points="127.7,-59.75 137.19,-55.04 126.84,-52.81 127.7,-59.75"/>
</a>
</g>
</g>
<!-- Node5 -->
<g id="Node000005" class="node">
<title>Node5</title>
<g id="a_Node000005"><a xlink:href="../../df/d0a/str-l_8h.html#a963c22b229774d4b7c106bae4011cb8e" target="_top" xlink:title="Returns whether \v s1 and \v s2 contents are equal.">
<polygon fill="white" stroke="#666666" points="234.5,-19.25 176.5,-19.25 176.5,0 234.5,0 234.5,-19.25"/>
<text text-anchor="middle" x="205.5" y="-5.75" font-family="Helvetica,sans-Serif" font-size="10.00">lstr_equal</text>
</a>
</g>
</g>
<!-- Node1&#45;&gt;Node5 -->
<g id="edge6_Node000001_Node000005" class="edge">
<title>Node1&#45;&gt;Node5</title>
<g id="a_edge6_Node000001_Node000005"><a xlink:title=" ">
<path fill="none" stroke="#63b8ff" d="M73.13,-55.54C90.44,-47.33 115.97,-35.8 139,-27.62 147.35,-24.66 156.43,-21.89 165.1,-19.45"/>
<polygon fill="#63b8ff" stroke="#63b8ff" points="165.98,-22.84 174.71,-16.84 164.14,-16.08 165.98,-22.84"/>
</a>
</g>
</g>
<!-- Node2&#45;&gt;Node3 -->
<g id="edge2_Node000002_Node000003" class="edge">
<title>Node2&#45;&gt;Node3</title>
<g id="a_edge2_Node000002_Node000003"><a xlink:title=" ">
<path fill="none" stroke="#63b8ff" d="M246.04,-112.64C264.4,-108.01 286.45,-102.44 306.04,-97.49"/>
<polygon fill="#63b8ff" stroke="#63b8ff" points="306.63,-100.95 315.47,-95.11 304.92,-94.17 306.63,-100.95"/>
</a>
</g>
</g>
<!-- Node4&#45;&gt;Node3 -->
<g id="edge4_Node000004_Node000003" class="edge">
<title>Node4&#45;&gt;Node3</title>
<g id="a_edge4_Node000004_Node000003"><a xlink:title=" ">
<path fill="none" stroke="#63b8ff" d="M246.44,-56.71C264.71,-61.32 286.57,-66.84 306.02,-71.75"/>
<polygon fill="#63b8ff" stroke="#63b8ff" points="305.12,-75.14 315.67,-74.19 306.83,-68.35 305.12,-75.14"/>
</a>
</g>
</g>
</g>
</svg>
