<?xml version="1.0" encoding="UTF-8" standalone="no"?>
<!DOCTYPE svg PUBLIC "-//W3C//DTD SVG 1.1//EN"
 "http://www.w3.org/Graphics/SVG/1.1/DTD/svg11.dtd">
<!-- Generated by graphviz version 9.0.0 (20230911.1827)
 -->
<!-- Title: ic_el_wait_thr_cond_sigint Pages: 1 -->
<svg width="739pt" height="162pt"
 viewBox="0.00 0.00 739.00 161.88" xmlns="http://www.w3.org/2000/svg" xmlns:xlink="http://www.w3.org/1999/xlink">
<g id="graph0" class="graph" transform="scale(1 1) rotate(0) translate(4 157.88)">
<title>ic_el_wait_thr_cond_sigint</title>
<!-- Node1 -->
<g id="Node000001" class="node">
<title>Node1</title>
<g id="a_Node000001"><a xlink:title=" ">
<polygon fill="#999999" stroke="#666666" points="731,-110.88 628.75,-110.88 628.75,-80.38 731,-80.38 731,-110.88"/>
<text text-anchor="start" x="636.75" y="-97.38" font-family="Helvetica,sans-Serif" font-size="10.00">ic_el_wait_thr_cond</text>
<text text-anchor="middle" x="679.88" y="-86.12" font-family="Helvetica,sans-Serif" font-size="10.00">_sigint</text>
</a>
</g>
</g>
<!-- Node2 -->
<g id="Node000002" class="node">
<title>Node2</title>
<g id="a_Node000002"><a xlink:href="../../db/dac/rpc-el_8c.html#af5523730bd4a2a9ce3ef4da291f4b03e" target="_top" xlink:title="Wait thread for specified condition.">
<polygon fill="white" stroke="#666666" points="592.75,-105.25 500.25,-105.25 500.25,-86 592.75,-86 592.75,-105.25"/>
<text text-anchor="middle" x="546.5" y="-91.75" font-family="Helvetica,sans-Serif" font-size="10.00">wait_thread_cond</text>
</a>
</g>
</g>
<!-- Node1&#45;&gt;Node2 -->
<g id="edge1_Node000001_Node000002" class="edge">
<title>Node1&#45;&gt;Node2</title>
<g id="a_edge1_Node000001_Node000002"><a xlink:title=" ">
<path fill="none" stroke="#63b8ff" d="M617.03,-95.62C608.88,-95.62 600.65,-95.62 592.84,-95.62"/>
<polygon fill="#63b8ff" stroke="#63b8ff" points="616.94,-99.13 626.94,-95.63 616.94,-92.13 616.94,-99.13"/>
</a>
</g>
</g>
<!-- Node3 -->
<g id="Node000003" class="node">
<title>Node3</title>
<g id="a_Node000003"><a xlink:href="../../db/dac/rpc-el_8c.html#a41ecdfe8bbde520af3ea79224147944c" target="_top" xlink:title="Synchronously connect the client and wait for connection.">
<polygon fill="white" stroke="#666666" points="449.62,-153.88 346.62,-153.88 346.62,-123.38 449.62,-123.38 449.62,-153.88"/>
<text text-anchor="start" x="354.62" y="-140.38" font-family="Helvetica,sans-Serif" font-size="10.00">ic_el_client_ic_sync</text>
<text text-anchor="middle" x="398.12" y="-129.12" font-family="Helvetica,sans-Serif" font-size="10.00">_connect_wait</text>
</a>
</g>
</g>
<!-- Node2&#45;&gt;Node3 -->
<g id="edge2_Node000002_Node000003" class="edge">
<title>Node2&#45;&gt;Node3</title>
<g id="a_edge2_Node000002_Node000003"><a xlink:title=" ">
<path fill="none" stroke="#63b8ff" d="M500.48,-108.85C484.47,-113.55 466.34,-118.88 449.88,-123.72"/>
<polygon fill="#63b8ff" stroke="#63b8ff" points="501.12,-112.31 509.73,-106.13 499.15,-105.59 501.12,-112.31"/>
</a>
</g>
</g>
<!-- Node5 -->
<g id="Node000005" class="node">
<title>Node5</title>
<g id="a_Node000005"><a xlink:href="../../db/dac/rpc-el_8c.html#ad2091c7b6c6d08d767130403a26c4230" target="_top" xlink:title="Synchronously call an RPC with the IC EL client.">
<polygon fill="white" stroke="#666666" points="120.25,-108.25 9.75,-108.25 9.75,-89 120.25,-89 120.25,-108.25"/>
<text text-anchor="middle" x="65" y="-94.75" font-family="Helvetica,sans-Serif" font-size="10.00">ic_el_client_sync_call</text>
</a>
</g>
</g>
<!-- Node2&#45;&gt;Node5 -->
<g id="edge6_Node000002_Node000005" class="edge">
<title>Node2&#45;&gt;Node5</title>
<g id="a_edge6_Node000002_Node000005"><a xlink:title=" ">
<path fill="none" stroke="#63b8ff" d="M488.53,-95.98C395.51,-96.56 212.23,-97.71 120.7,-98.28"/>
<polygon fill="#63b8ff" stroke="#63b8ff" points="488.47,-99.48 498.44,-95.92 488.42,-92.48 488.47,-99.48"/>
</a>
</g>
</g>
<!-- Node7 -->
<g id="Node000007" class="node">
<title>Node7</title>
<g id="a_Node000007"><a xlink:href="../../db/dac/rpc-el_8c.html#a0df155ef9ba82109a7a7d8bc00db61a7" target="_top" xlink:title="Wait for the IC EL server to be fully stopped by the event loop.">
<polygon fill="white" stroke="#666666" points="464.25,-62.25 332,-62.25 332,-43 464.25,-43 464.25,-62.25"/>
<text text-anchor="middle" x="398.12" y="-48.75" font-family="Helvetica,sans-Serif" font-size="10.00">ic_el_server_wait_for_stop</text>
</a>
</g>
</g>
<!-- Node2&#45;&gt;Node7 -->
<g id="edge7_Node000002_Node000007" class="edge">
<title>Node2&#45;&gt;Node7</title>
<g id="a_edge7_Node000002_Node000007"><a xlink:title=" ">
<path fill="none" stroke="#63b8ff" d="M500.31,-82.35C478.77,-76.02 453.42,-68.58 433.48,-62.72"/>
<polygon fill="#63b8ff" stroke="#63b8ff" points="499.15,-85.66 509.73,-85.12 501.12,-78.94 499.15,-85.66"/>
</a>
</g>
</g>
<!-- Node4 -->
<g id="Node000004" class="node">
<title>Node4</title>
<g id="a_Node000004"><a xlink:href="../../db/dac/rpc-el_8c.html#a3ad0d6233d7acb631c464674f93f6cfa" target="_top" xlink:title="Synchronously connect the client with the el mutex locked.">
<polygon fill="white" stroke="#666666" points="296,-153.88 166,-153.88 166,-123.38 296,-123.38 296,-153.88"/>
<text text-anchor="start" x="174" y="-140.38" font-family="Helvetica,sans-Serif" font-size="10.00">ic_el_client_sync_connect</text>
<text text-anchor="middle" x="231" y="-129.12" font-family="Helvetica,sans-Serif" font-size="10.00">_locked</text>
</a>
</g>
</g>
<!-- Node3&#45;&gt;Node4 -->
<g id="edge3_Node000003_Node000004" class="edge">
<title>Node3&#45;&gt;Node4</title>
<g id="a_edge3_Node000003_Node000004"><a xlink:title=" ">
<path fill="none" stroke="#63b8ff" d="M334.91,-138.62C322.34,-138.62 309.09,-138.62 296.45,-138.62"/>
<polygon fill="#63b8ff" stroke="#63b8ff" points="334.72,-142.13 344.72,-138.63 334.72,-135.13 334.72,-142.13"/>
</a>
</g>
</g>
<!-- Node4&#45;&gt;Node5 -->
<g id="edge4_Node000004_Node000005" class="edge">
<title>Node4&#45;&gt;Node5</title>
<g id="a_edge4_Node000004_Node000005"><a xlink:title=" ">
<path fill="none" stroke="#63b8ff" d="M154.53,-120.22C138.34,-116.27 121.81,-112.24 107.49,-108.74"/>
<polygon fill="#63b8ff" stroke="#63b8ff" points="153.64,-123.6 164.18,-122.57 155.3,-116.8 153.64,-123.6"/>
</a>
</g>
</g>
<!-- Node6 -->
<g id="Node000006" class="node">
<title>Node6</title>
<g id="a_Node000006"><a xlink:href="../../db/dac/rpc-el_8c.html#a09e1f75cc8dc9524e55a885d25b7f03d" target="_top" xlink:title="Synchronously connect the IC EL client.">
<polygon fill="white" stroke="#666666" points="130,-148.25 0,-148.25 0,-129 130,-129 130,-148.25"/>
<text text-anchor="middle" x="65" y="-134.75" font-family="Helvetica,sans-Serif" font-size="10.00">ic_el_client_sync_connect</text>
</a>
</g>
</g>
<!-- Node4&#45;&gt;Node6 -->
<g id="edge5_Node000004_Node000006" class="edge">
<title>Node4&#45;&gt;Node6</title>
<g id="a_edge5_Node000004_Node000006"><a xlink:title=" ">
<path fill="none" stroke="#63b8ff" d="M154.41,-138.62C146.4,-138.62 138.3,-138.62 130.43,-138.62"/>
<polygon fill="#63b8ff" stroke="#63b8ff" points="154.14,-142.13 164.14,-138.63 154.14,-135.13 154.14,-142.13"/>
</a>
</g>
</g>
<!-- Node8 -->
<g id="Node000008" class="node">
<title>Node8</title>
<g id="a_Node000008"><a xlink:href="../../db/dac/rpc-el_8c.html#ac07f125f7ff190c68cd106bd3b3cb5e1" target="_top" xlink:title="Make the IC EL server start listening until timeout elapsed or the server has been stopped.">
<polygon fill="white" stroke="#666666" points="279.5,-67.88 182.5,-67.88 182.5,-37.38 279.5,-37.38 279.5,-67.88"/>
<text text-anchor="start" x="190.5" y="-54.38" font-family="Helvetica,sans-Serif" font-size="10.00">ic_el_server_listen</text>
<text text-anchor="middle" x="231" y="-43.12" font-family="Helvetica,sans-Serif" font-size="10.00">_block</text>
</a>
</g>
</g>
<!-- Node7&#45;&gt;Node8 -->
<g id="edge8_Node000007_Node000008" class="edge">
<title>Node7&#45;&gt;Node8</title>
<g id="a_edge8_Node000007_Node000008"><a xlink:title=" ">
<path fill="none" stroke="#63b8ff" d="M320.39,-52.62C306.62,-52.62 292.64,-52.62 279.98,-52.62"/>
<polygon fill="#63b8ff" stroke="#63b8ff" points="320.35,-56.13 330.35,-52.63 320.35,-49.13 320.35,-56.13"/>
</a>
</g>
</g>
<!-- Node9 -->
<g id="Node000009" class="node">
<title>Node9</title>
<g id="a_Node000009"><a xlink:href="../../db/dac/rpc-el_8c.html#a8c4a63302472770cb91fed95798a754f" target="_top" xlink:title="Stop the IC EL server.">
<polygon fill="white" stroke="#666666" points="277.25,-19.25 184.75,-19.25 184.75,0 277.25,0 277.25,-19.25"/>
<text text-anchor="middle" x="231" y="-5.75" font-family="Helvetica,sans-Serif" font-size="10.00">ic_el_server_stop</text>
</a>
</g>
</g>
<!-- Node7&#45;&gt;Node9 -->
<g id="edge9_Node000007_Node000009" class="edge">
<title>Node7&#45;&gt;Node9</title>
<g id="a_edge9_Node000007_Node000009"><a xlink:title=" ">
<path fill="none" stroke="#63b8ff" d="M347.48,-39.7C322.9,-33.3 293.66,-25.68 270.76,-19.72"/>
<polygon fill="#63b8ff" stroke="#63b8ff" points="346.39,-43.03 356.95,-42.16 348.15,-36.25 346.39,-43.03"/>
</a>
</g>
</g>
</g>
</svg>
