<?xml version="1.0" encoding="UTF-8" standalone="no"?>
<!DOCTYPE svg PUBLIC "-//W3C//DTD SVG 1.1//EN"
 "http://www.w3.org/Graphics/SVG/1.1/DTD/svg11.dtd">
<!-- Generated by graphviz version 9.0.0 (20230911.1827)
 -->
<!-- Title: ic_el_server_wipe Pages: 1 -->
<svg width="1303pt" height="254pt"
 viewBox="0.00 0.00 1303.25 253.84" xmlns="http://www.w3.org/2000/svg" xmlns:xlink="http://www.w3.org/1999/xlink">
<g id="graph0" class="graph" transform="scale(1 1) rotate(0) translate(4 249.84)">
<title>ic_el_server_wipe</title>
<!-- Node1 -->
<g id="Node000001" class="node">
<title>Node1</title>
<g id="a_Node000001"><a xlink:title=" ">
<polygon fill="#999999" stroke="#666666" points="94,-200.47 0,-200.47 0,-181.22 94,-181.22 94,-200.47"/>
<text text-anchor="middle" x="47" y="-186.97" font-family="Helvetica,sans-Serif" font-size="10.00">ic_el_server_wipe</text>
</a>
</g>
</g>
<!-- Node2 -->
<g id="Node000002" class="node">
<title>Node2</title>
<g id="a_Node000002"><a xlink:href="../../df/d0a/str-l_8h.html#ad74dae07179370f3c22e3f026157926e" target="_top" xlink:title="wipe a lstr_t (frees memory if needed).">
<polygon fill="white" stroke="#666666" points="185,-200.47 130,-200.47 130,-181.22 185,-181.22 185,-200.47"/>
<text text-anchor="middle" x="157.5" y="-186.97" font-family="Helvetica,sans-Serif" font-size="10.00">lstr_wipe</text>
</a>
</g>
</g>
<!-- Node1&#45;&gt;Node2 -->
<g id="edge1_Node000001_Node000002" class="edge">
<title>Node1&#45;&gt;Node2</title>
<g id="a_edge1_Node000001_Node000002"><a xlink:title=" ">
<path fill="none" stroke="#63b8ff" d="M94.33,-190.84C102.36,-190.84 110.63,-190.84 118.41,-190.84"/>
<polygon fill="#63b8ff" stroke="#63b8ff" points="118.24,-194.34 128.24,-190.84 118.24,-187.34 118.24,-194.34"/>
</a>
</g>
</g>
<!-- Node3 -->
<g id="Node000003" class="node">
<title>Node3</title>
<g id="a_Node000003"><a xlink:href="../../df/d0a/str-l_8h.html#a381cd831ac9616c5bea8213bb679d1ac" target="_top" xlink:title="Wipe a lstr_t (frees memory if needed).">
<polygon fill="white" stroke="#666666" points="294.75,-125.47 221,-125.47 221,-106.22 294.75,-106.22 294.75,-125.47"/>
<text text-anchor="middle" x="257.88" y="-111.97" font-family="Helvetica,sans-Serif" font-size="10.00">mp_lstr_wipe</text>
</a>
</g>
</g>
<!-- Node2&#45;&gt;Node3 -->
<g id="edge2_Node000002_Node000003" class="edge">
<title>Node2&#45;&gt;Node3</title>
<g id="a_edge2_Node000002_Node000003"><a xlink:title=" ">
<path fill="none" stroke="#63b8ff" d="M171.77,-180.73C187.92,-168.41 215.43,-147.44 234.8,-132.68"/>
<polygon fill="#63b8ff" stroke="#63b8ff" points="236.78,-135.56 242.61,-126.71 232.54,-129.99 236.78,-135.56"/>
</a>
</g>
</g>
<!-- Node4 -->
<g id="Node000004" class="node">
<title>Node4</title>
<g id="a_Node000004"><a xlink:href="../../de/d04/str-l_8c.html#abe2a3a71f0b4dbc7d37c59d16762b6fb" target="_top" xlink:title="lstr_copy_* helper.">
<polygon fill="white" stroke="#666666" points="409.75,-88.47 330.75,-88.47 330.75,-69.22 409.75,-69.22 409.75,-88.47"/>
<text text-anchor="middle" x="370.25" y="-74.97" font-family="Helvetica,sans-Serif" font-size="10.00">mp_lstr_copy_</text>
</a>
</g>
</g>
<!-- Node3&#45;&gt;Node4 -->
<g id="edge3_Node000003_Node000004" class="edge">
<title>Node3&#45;&gt;Node4</title>
<g id="a_edge3_Node000003_Node000004"><a xlink:title=" ">
<path fill="none" stroke="#63b8ff" d="M289.04,-105.73C301.2,-101.65 315.43,-96.88 328.49,-92.5"/>
<polygon fill="#63b8ff" stroke="#63b8ff" points="329.32,-95.92 337.69,-89.42 327.1,-89.28 329.32,-95.92"/>
</a>
</g>
</g>
<!-- Node5 -->
<g id="Node000005" class="node">
<title>Node5</title>
<g id="a_Node000005"><a xlink:href="../../d9/d9a/mem_8h.html#aebbbd277e2952bdb802104671ba23ba9" target="_top" xlink:title=" ">
<polygon fill="white" stroke="#666666" points="480.5,-88.47 445.75,-88.47 445.75,-69.22 480.5,-69.22 480.5,-88.47"/>
<text text-anchor="middle" x="463.12" y="-74.97" font-family="Helvetica,sans-Serif" font-size="10.00">ifree</text>
</a>
</g>
</g>
<!-- Node4&#45;&gt;Node5 -->
<g id="edge4_Node000004_Node000005" class="edge">
<title>Node4&#45;&gt;Node5</title>
<g id="a_edge4_Node000004_Node000005"><a xlink:title=" ">
<path fill="none" stroke="#63b8ff" d="M410.05,-78.84C418.06,-78.84 426.35,-78.84 433.9,-78.84"/>
<polygon fill="#63b8ff" stroke="#63b8ff" points="433.84,-82.34 443.84,-78.84 433.84,-75.34 433.84,-82.34"/>
</a>
</g>
</g>
<!-- Node15 -->
<g id="Node000015" class="node">
<title>Node15</title>
<g id="a_Node000015"><a xlink:href="../../df/d0a/str-l_8h.html#a3b4dbe9c4cc70340cba0787574dc1c5e" target="_top" xlink:title=" ">
<polygon fill="white" stroke="#666666" points="1295.25,-67.47 1242.5,-67.47 1242.5,-48.22 1295.25,-48.22 1295.25,-67.47"/>
<text text-anchor="middle" x="1268.88" y="-53.97" font-family="Helvetica,sans-Serif" font-size="10.00">lstr_init_</text>
</a>
</g>
</g>
<!-- Node4&#45;&gt;Node15 -->
<g id="edge29_Node000004_Node000015" class="edge">
<title>Node4&#45;&gt;Node15</title>
<g id="a_edge29_Node000004_Node000015"><a xlink:title=" ">
<path fill="none" stroke="#63b8ff" d="M383.68,-68.78C410.75,-47.9 477.78,-1.84 542.25,-1.84 542.25,-1.84 542.25,-1.84 1020,-1.84 1103.32,-1.84 1127.46,5.53 1206.5,-20.84 1220.42,-25.48 1234.53,-33.7 1245.71,-41.21"/>
<polygon fill="#63b8ff" stroke="#63b8ff" points="1243.63,-44.03 1253.83,-46.92 1247.66,-38.3 1243.63,-44.03"/>
</a>
</g>
</g>
<!-- Node6 -->
<g id="Node000006" class="node">
<title>Node6</title>
<g id="a_Node000006"><a xlink:href="../../d8/d37/mem_8blk.html#a36b65ab346f1d0deed7b63c544c78f2b" target="_top" xlink:title=" ">
<polygon fill="white" stroke="#666666" points="561.38,-107.47 525.12,-107.47 525.12,-88.22 561.38,-88.22 561.38,-107.47"/>
<text text-anchor="middle" x="543.25" y="-93.97" font-family="Helvetica,sans-Serif" font-size="10.00">ipool</text>
</a>
</g>
</g>
<!-- Node5&#45;&gt;Node6 -->
<g id="edge5_Node000005_Node000006" class="edge">
<title>Node5&#45;&gt;Node6</title>
<g id="a_edge5_Node000005_Node000006"><a xlink:title=" ">
<path fill="none" stroke="#63b8ff" d="M480.69,-82.87C490.33,-85.22 502.75,-88.24 513.9,-90.95"/>
<polygon fill="#63b8ff" stroke="#63b8ff" points="512.88,-94.3 523.42,-93.26 514.53,-87.5 512.88,-94.3"/>
</a>
</g>
</g>
<!-- Node25 -->
<g id="Node000025" class="node">
<title>Node25</title>
<g id="a_Node000025"><a xlink:href="../../d8/d37/mem_8blk.html#a83c7cf203e5eef9d1a8c6c43cde3e2e5" target="_top" xlink:title=" ">
<polygon fill="white" stroke="#666666" points="570,-70.47 516.5,-70.47 516.5,-51.22 570,-51.22 570,-70.47"/>
<text text-anchor="middle" x="543.25" y="-56.97" font-family="Helvetica,sans-Serif" font-size="10.00">mp_ifree</text>
</a>
</g>
</g>
<!-- Node5&#45;&gt;Node25 -->
<g id="edge28_Node000005_Node000025" class="edge">
<title>Node5&#45;&gt;Node25</title>
<g id="a_edge28_Node000005_Node000025"><a xlink:title=" ">
<path fill="none" stroke="#63b8ff" d="M480.69,-75.02C487.86,-73.37 496.55,-71.37 505.12,-69.4"/>
<polygon fill="#63b8ff" stroke="#63b8ff" points="505.74,-72.85 514.7,-67.19 504.17,-66.02 505.74,-72.85"/>
</a>
</g>
</g>
<!-- Node7 -->
<g id="Node000007" class="node">
<title>Node7</title>
<g id="a_Node000007"><a xlink:href="../../d7/df8/log_8c.html#abca342edf91a9b45f7a17ef564fa8a53" target="_top" xlink:title=" ">
<polygon fill="white" stroke="#666666" points="655.75,-125.47 606,-125.47 606,-106.22 655.75,-106.22 655.75,-125.47"/>
<text text-anchor="middle" x="630.88" y="-111.97" font-family="Helvetica,sans-Serif" font-size="10.00">e_panic</text>
</a>
</g>
</g>
<!-- Node6&#45;&gt;Node7 -->
<g id="edge6_Node000006_Node000007" class="edge">
<title>Node6&#45;&gt;Node7</title>
<g id="a_edge6_Node000006_Node000007"><a xlink:title=" ">
<path fill="none" stroke="#63b8ff" d="M561.58,-101.48C571.11,-103.49 583.28,-106.05 594.71,-108.45"/>
<polygon fill="#63b8ff" stroke="#63b8ff" points="593.77,-111.83 604.28,-110.46 595.21,-104.98 593.77,-111.83"/>
</a>
</g>
</g>
<!-- Node24 -->
<g id="Node000024" class="node">
<title>Node24</title>
<g id="a_Node000024"><a xlink:href="../../d1/d10/mem-stack_8h.html#a1d0e2a29f86dc033a02e50484b527fd0" target="_top" xlink:title=" ">
<polygon fill="white" stroke="#666666" points="652,-88.47 609.75,-88.47 609.75,-69.22 652,-69.22 652,-88.47"/>
<text text-anchor="middle" x="630.88" y="-74.97" font-family="Helvetica,sans-Serif" font-size="10.00">t_pool</text>
</a>
</g>
</g>
<!-- Node6&#45;&gt;Node24 -->
<g id="edge27_Node000006_Node000024" class="edge">
<title>Node6&#45;&gt;Node24</title>
<g id="a_edge27_Node000006_Node000024"><a xlink:title=" ">
<path fill="none" stroke="#63b8ff" d="M561.58,-94C572.13,-91.66 585.93,-88.59 598.36,-85.84"/>
<polygon fill="#63b8ff" stroke="#63b8ff" points="598.77,-89.33 607.78,-83.75 597.25,-82.5 598.77,-89.33"/>
</a>
</g>
</g>
<!-- Node8 -->
<g id="Node000008" class="node">
<title>Node8</title>
<g id="a_Node000008"><a xlink:href="../../d7/df8/log_8c.html#a4bc04f7baa1e064cb0b93c7b9f3a61a1" target="_top" xlink:title=" ">
<polygon fill="white" stroke="#666666" points="779.75,-125.47 691.75,-125.47 691.75,-106.22 779.75,-106.22 779.75,-125.47"/>
<text text-anchor="middle" x="735.75" y="-111.97" font-family="Helvetica,sans-Serif" font-size="10.00">__logger_refresh</text>
</a>
</g>
</g>
<!-- Node7&#45;&gt;Node8 -->
<g id="edge7_Node000007_Node000008" class="edge">
<title>Node7&#45;&gt;Node8</title>
<g id="a_edge7_Node000007_Node000008"><a xlink:title=" ">
<path fill="none" stroke="#63b8ff" d="M655.99,-115.84C663.26,-115.84 671.55,-115.84 679.97,-115.84"/>
<polygon fill="#63b8ff" stroke="#63b8ff" points="679.91,-119.34 689.91,-115.84 679.91,-112.34 679.91,-119.34"/>
</a>
</g>
</g>
<!-- Node19 -->
<g id="Node000019" class="node">
<title>Node19</title>
<g id="a_Node000019"><a xlink:href="../../d7/df8/log_8c.html#a900490b26df7698aac12f7f7e6517e81" target="_top" xlink:title=" ">
<polygon fill="white" stroke="#666666" points="768.5,-87.47 703,-87.47 703,-68.22 768.5,-68.22 768.5,-87.47"/>
<text text-anchor="middle" x="735.75" y="-73.97" font-family="Helvetica,sans-Serif" font-size="10.00">logger_vlog</text>
</a>
</g>
</g>
<!-- Node7&#45;&gt;Node19 -->
<g id="edge21_Node000007_Node000019" class="edge">
<title>Node7&#45;&gt;Node19</title>
<g id="a_edge21_Node000007_Node000019"><a xlink:title=" ">
<path fill="none" stroke="#63b8ff" d="M655.99,-106.93C668.18,-102.43 683.24,-96.87 696.92,-91.81"/>
<polygon fill="#63b8ff" stroke="#63b8ff" points="697.93,-95.17 706.1,-88.43 695.5,-88.61 697.93,-95.17"/>
</a>
</g>
</g>
<!-- Node23 -->
<g id="Node000023" class="node">
<title>Node23</title>
<g id="a_Node000023"><a xlink:href="../../d2/d4d/file_8h.html#a25419a391fdd4ad7954699c58cfeb3b9" target="_top" xlink:title=" ">
<polygon fill="white" stroke="#666666" points="761.38,-162.47 710.12,-162.47 710.12,-143.22 761.38,-143.22 761.38,-162.47"/>
<text text-anchor="middle" x="735.75" y="-148.97" font-family="Helvetica,sans-Serif" font-size="10.00">va_start</text>
</a>
</g>
</g>
<!-- Node7&#45;&gt;Node23 -->
<g id="edge26_Node000007_Node000023" class="edge">
<title>Node7&#45;&gt;Node23</title>
<g id="a_edge26_Node000007_Node000023"><a xlink:title=" ">
<path fill="none" stroke="#63b8ff" d="M655.99,-124.52C668.87,-129.15 684.95,-134.93 699.23,-140.07"/>
<polygon fill="#63b8ff" stroke="#63b8ff" points="697.69,-143.23 708.28,-143.32 700.06,-136.65 697.69,-143.23"/>
</a>
</g>
</g>
<!-- Node9 -->
<g id="Node000009" class="node">
<title>Node9</title>
<g id="a_Node000009"><a xlink:href="../../d7/df8/log_8c.html#a3dbd75fb614210f0b114cfd03c9c0a7b" target="_top" xlink:title=" ">
<polygon fill="white" stroke="#666666" points="919.5,-199.47 815.75,-199.47 815.75,-180.22 919.5,-180.22 919.5,-199.47"/>
<text text-anchor="middle" x="867.62" y="-185.97" font-family="Helvetica,sans-Serif" font-size="10.00">__logger_do_refresh</text>
</a>
</g>
</g>
<!-- Node8&#45;&gt;Node9 -->
<g id="edge8_Node000008_Node000009" class="edge">
<title>Node8&#45;&gt;Node9</title>
<g id="a_edge8_Node000008_Node000009"><a xlink:title=" ">
<path fill="none" stroke="#63b8ff" d="M765.39,-125.85C770.37,-128.14 775.35,-130.81 779.75,-133.84 798.89,-147.06 796.24,-159.17 815.75,-171.84 817.37,-172.9 819.06,-173.9 820.8,-174.84"/>
<polygon fill="#63b8ff" stroke="#63b8ff" points="819.21,-177.97 829.75,-179.08 822.21,-171.64 819.21,-177.97"/>
</a>
</g>
</g>
<!-- Node17 -->
<g id="Node000017" class="node">
<title>Node17</title>
<g id="a_Node000017"><a xlink:href="../../d7/df8/log_8c.html#a7b1b02d1986e1247c2f571af4a2c2854" target="_top" xlink:title=" ">
<polygon fill="white" stroke="#666666" points="905.25,-162.47 830,-162.47 830,-143.22 905.25,-143.22 905.25,-162.47"/>
<text text-anchor="middle" x="867.62" y="-148.97" font-family="Helvetica,sans-Serif" font-size="10.00">log_spin_lock</text>
</a>
</g>
</g>
<!-- Node8&#45;&gt;Node17 -->
<g id="edge19_Node000008_Node000017" class="edge">
<title>Node8&#45;&gt;Node17</title>
<g id="a_edge19_Node000008_Node000017"><a xlink:title=" ">
<path fill="none" stroke="#63b8ff" d="M772.24,-125.95C787.13,-130.19 804.64,-135.18 820.51,-139.7"/>
<polygon fill="#63b8ff" stroke="#63b8ff" points="819.15,-142.96 829.72,-142.33 821.07,-136.22 819.15,-142.96"/>
</a>
</g>
</g>
<!-- Node18 -->
<g id="Node000018" class="node">
<title>Node18</title>
<g id="a_Node000018"><a xlink:href="../../d1/dc0/group__log.html#ga045020bb4af234632f7761f220131c69" target="_top" xlink:title=" ">
<polygon fill="white" stroke="#666666" points="910.5,-125.47 824.75,-125.47 824.75,-106.22 910.5,-106.22 910.5,-125.47"/>
<text text-anchor="middle" x="867.62" y="-111.97" font-family="Helvetica,sans-Serif" font-size="10.00">log_spin_unlock</text>
</a>
</g>
</g>
<!-- Node8&#45;&gt;Node18 -->
<g id="edge20_Node000008_Node000018" class="edge">
<title>Node8&#45;&gt;Node18</title>
<g id="a_edge20_Node000008_Node000018"><a xlink:title=" ">
<path fill="none" stroke="#63b8ff" d="M780,-115.84C790.62,-115.84 802.12,-115.84 813.16,-115.84"/>
<polygon fill="#63b8ff" stroke="#63b8ff" points="812.94,-119.34 822.94,-115.84 812.94,-112.34 812.94,-119.34"/>
</a>
</g>
</g>
<!-- Node9&#45;&gt;Node2 -->
<g id="edge18_Node000009_Node000002" class="edge">
<title>Node9&#45;&gt;Node2</title>
<g id="a_edge18_Node000009_Node000002"><a xlink:title=" ">
<path fill="none" stroke="#63b8ff" d="M815.34,-190.19C767.78,-190.48 695.05,-190.84 631.88,-190.84 369.25,-190.84 369.25,-190.84 369.25,-190.84 309.01,-190.84 239.09,-190.84 196.85,-190.84"/>
<polygon fill="#63b8ff" stroke="#63b8ff" points="196.96,-187.34 186.96,-190.84 196.96,-194.34 196.96,-187.34"/>
</a>
</g>
</g>
<!-- Node9&#45;&gt;Node9 -->
<g id="edge9_Node000009_Node000009" class="edge">
<title>Node9&#45;&gt;Node9</title>
<g id="a_edge9_Node000009_Node000009"><a xlink:title=" ">
<path fill="none" stroke="#63b8ff" d="M846.98,-199.76C837.56,-208.36 844.44,-217.47 867.62,-217.47 880.3,-217.47 888.1,-214.74 891.03,-210.87"/>
<polygon fill="#63b8ff" stroke="#63b8ff" points="894.44,-210.08 888.64,-201.22 887.65,-211.77 894.44,-210.08"/>
</a>
</g>
</g>
<!-- Node10 -->
<g id="Node000010" class="node">
<title>Node10</title>
<g id="a_Node000010"><a xlink:href="../../de/d1a/container-dlist_8h.html#a3b6f65860b212e28f2e28e71eb54d54d" target="_top" xlink:title="Add element e at the head of list l (suited for LIFO).">
<polygon fill="white" stroke="#666666" points="1046.5,-199.47 991.5,-199.47 991.5,-180.22 1046.5,-180.22 1046.5,-199.47"/>
<text text-anchor="middle" x="1019" y="-185.97" font-family="Helvetica,sans-Serif" font-size="10.00">dlist_add</text>
</a>
</g>
</g>
<!-- Node9&#45;&gt;Node10 -->
<g id="edge10_Node000009_Node000010" class="edge">
<title>Node9&#45;&gt;Node10</title>
<g id="a_edge10_Node000009_Node000010"><a xlink:title=" ">
<path fill="none" stroke="#63b8ff" d="M919.61,-189.84C939.3,-189.84 961.44,-189.84 979.73,-189.84"/>
<polygon fill="#63b8ff" stroke="#63b8ff" points="979.61,-193.34 989.61,-189.84 979.61,-186.34 979.61,-193.34"/>
</a>
</g>
</g>
<!-- Node12 -->
<g id="Node000012" class="node">
<title>Node12</title>
<g id="a_Node000012"><a xlink:href="../../de/d1a/container-dlist_8h.html#a0a69e401f6ec15966c891e96ad864c77" target="_top" xlink:title="Put a dlist_t element in a safe and detached state.">
<polygon fill="white" stroke="#666666" points="1045,-125.47 993,-125.47 993,-106.22 1045,-106.22 1045,-125.47"/>
<text text-anchor="middle" x="1019" y="-111.97" font-family="Helvetica,sans-Serif" font-size="10.00">dlist_init</text>
</a>
</g>
</g>
<!-- Node9&#45;&gt;Node12 -->
<g id="edge12_Node000009_Node000012" class="edge">
<title>Node9&#45;&gt;Node12</title>
<g id="a_edge12_Node000009_Node000012"><a xlink:title=" ">
<path fill="none" stroke="#63b8ff" d="M904.14,-179.73C909.49,-177.52 914.79,-174.91 919.5,-171.84 939.01,-159.17 935.62,-145.93 955.5,-133.84 963.44,-129.02 972.73,-125.43 981.68,-122.79"/>
<polygon fill="#63b8ff" stroke="#63b8ff" points="982.45,-126.21 991.25,-120.31 980.69,-119.43 982.45,-126.21"/>
</a>
</g>
</g>
<!-- Node13 -->
<g id="Node000013" class="node">
<title>Node13</title>
<g id="a_Node000013"><a xlink:href="../../d7/df8/log_8c.html#a4c8fbe8648573312126ce341cf34cba1" target="_top" xlink:title=" ">
<polygon fill="white" stroke="#666666" points="1082.5,-236.47 955.5,-236.47 955.5,-217.22 1082.5,-217.22 1082.5,-236.47"/>
<text text-anchor="middle" x="1019" y="-222.97" font-family="Helvetica,sans-Serif" font-size="10.00">logger_compute_fullname</text>
</a>
</g>
</g>
<!-- Node9&#45;&gt;Node13 -->
<g id="edge13_Node000009_Node000013" class="edge">
<title>Node9&#45;&gt;Node13</title>
<g id="a_edge13_Node000009_Node000013"><a xlink:title=" ">
<path fill="none" stroke="#63b8ff" d="M909.44,-199.95C926.98,-204.3 947.68,-209.42 966.27,-214.03"/>
<polygon fill="#63b8ff" stroke="#63b8ff" points="965.21,-217.37 975.76,-216.38 966.9,-210.58 965.21,-217.37"/>
</a>
</g>
</g>
<!-- Node16 -->
<g id="Node000016" class="node">
<title>Node16</title>
<g id="a_Node000016"><a xlink:href="../../df/d0a/str-l_8h.html#a963c22b229774d4b7c106bae4011cb8e" target="_top" xlink:title="Returns whether \v s1 and \v s2 contents are equal.">
<polygon fill="white" stroke="#666666" points="1048,-162.47 990,-162.47 990,-143.22 1048,-143.22 1048,-162.47"/>
<text text-anchor="middle" x="1019" y="-148.97" font-family="Helvetica,sans-Serif" font-size="10.00">lstr_equal</text>
</a>
</g>
</g>
<!-- Node9&#45;&gt;Node16 -->
<g id="edge17_Node000009_Node000016" class="edge">
<title>Node9&#45;&gt;Node16</title>
<g id="a_edge17_Node000009_Node000016"><a xlink:title=" ">
<path fill="none" stroke="#63b8ff" d="M909.44,-179.73C930.97,-174.4 957.26,-167.89 978.58,-162.61"/>
<polygon fill="#63b8ff" stroke="#63b8ff" points="979.2,-166.06 988.06,-160.26 977.51,-159.27 979.2,-166.06"/>
</a>
</g>
</g>
<!-- Node11 -->
<g id="Node000011" class="node">
<title>Node11</title>
<g id="a_Node000011"><a xlink:href="../../de/d1a/container-dlist_8h.html#a71e7667ca0e4b896923788c5851afd24" target="_top" xlink:title="Put element e between prev and next.">
<polygon fill="white" stroke="#666666" points="1195.25,-142.47 1129.75,-142.47 1129.75,-123.22 1195.25,-123.22 1195.25,-142.47"/>
<text text-anchor="middle" x="1162.5" y="-128.97" font-family="Helvetica,sans-Serif" font-size="10.00">__dlist_add</text>
</a>
</g>
</g>
<!-- Node10&#45;&gt;Node11 -->
<g id="edge11_Node000010_Node000011" class="edge">
<title>Node10&#45;&gt;Node11</title>
<g id="a_edge11_Node000010_Node000011"><a xlink:title=" ">
<path fill="none" stroke="#63b8ff" d="M1046.96,-183.64C1058.17,-180.66 1071.18,-176.68 1082.5,-171.84 1099.53,-164.56 1101.92,-159.1 1118.5,-150.84 1120.74,-149.73 1123.06,-148.62 1125.41,-147.53"/>
<polygon fill="#63b8ff" stroke="#63b8ff" points="1126.66,-150.81 1134.4,-143.57 1123.84,-144.4 1126.66,-150.81"/>
</a>
</g>
</g>
<!-- Node13&#45;&gt;Node2 -->
<g id="edge16_Node000013_Node000002" class="edge">
<title>Node13&#45;&gt;Node2</title>
<g id="a_edge16_Node000013_Node000002"><a xlink:title=" ">
<path fill="none" stroke="#63b8ff" d="M955.25,-233.51C898.31,-238.99 811.99,-245.84 736.75,-245.84 369.25,-245.84 369.25,-245.84 369.25,-245.84 304.82,-245.84 232.8,-221.48 191.83,-205.18"/>
<polygon fill="#63b8ff" stroke="#63b8ff" points="193.36,-202.03 182.78,-201.5 190.72,-208.51 193.36,-202.03"/>
</a>
</g>
</g>
<!-- Node14 -->
<g id="Node000014" class="node">
<title>Node14</title>
<g id="a_Node000014"><a xlink:href="../../df/d0a/str-l_8h.html#a6a200ca09358f19b13a8e297cda34869" target="_top" xlink:title="returns a constant copy of \v s.">
<polygon fill="white" stroke="#666666" points="1190.38,-179.47 1134.62,-179.47 1134.62,-160.22 1190.38,-160.22 1190.38,-179.47"/>
<text text-anchor="middle" x="1162.5" y="-165.97" font-family="Helvetica,sans-Serif" font-size="10.00">lstr_dupc</text>
</a>
</g>
</g>
<!-- Node13&#45;&gt;Node14 -->
<g id="edge14_Node000013_Node000014" class="edge">
<title>Node13&#45;&gt;Node14</title>
<g id="a_edge14_Node000013_Node000014"><a xlink:title=" ">
<path fill="none" stroke="#63b8ff" d="M1059.03,-216.76C1066.89,-214.41 1075.02,-211.74 1082.5,-208.84 1099.83,-202.13 1118.51,-193 1133.35,-185.27"/>
<polygon fill="#63b8ff" stroke="#63b8ff" points="1134.87,-188.42 1142.06,-180.64 1131.59,-182.24 1134.87,-188.42"/>
</a>
</g>
</g>
<!-- Node14&#45;&gt;Node15 -->
<g id="edge15_Node000014_Node000015" class="edge">
<title>Node14&#45;&gt;Node15</title>
<g id="a_edge15_Node000014_Node000015"><a xlink:title=" ">
<path fill="none" stroke="#63b8ff" d="M1190.82,-161.3C1196.36,-158.8 1201.9,-155.67 1206.5,-151.84 1230.89,-131.53 1249.08,-99.03 1259.1,-78.06"/>
<polygon fill="#63b8ff" stroke="#63b8ff" points="1262.21,-79.67 1263.18,-69.12 1255.84,-76.76 1262.21,-79.67"/>
</a>
</g>
</g>
<!-- Node19&#45;&gt;Node14 -->
<g id="edge25_Node000019_Node000014" class="edge">
<title>Node19&#45;&gt;Node14</title>
<g id="a_edge25_Node000019_Node000014"><a xlink:title=" ">
<path fill="none" stroke="#63b8ff" d="M768.83,-76C844.12,-72.25 1029.77,-66.44 1082.5,-96.84 1107.81,-111.44 1096.04,-133.16 1118.5,-151.84 1120.37,-153.4 1122.39,-154.84 1124.51,-156.16"/>
<polygon fill="#63b8ff" stroke="#63b8ff" points="1122.37,-158.99 1132.85,-160.58 1125.65,-152.81 1122.37,-158.99"/>
</a>
</g>
</g>
<!-- Node20 -->
<g id="Node000020" class="node">
<title>Node20</title>
<g id="a_Node000020"><a xlink:href="../../d1/dc0/group__log.html#ga168a6f17b248f61f7d25a17d58d04e36" target="_top" xlink:title=" ">
<polygon fill="white" stroke="#666666" points="912,-49.47 823.25,-49.47 823.25,-30.22 912,-30.22 912,-49.47"/>
<text text-anchor="middle" x="867.62" y="-35.97" font-family="Helvetica,sans-Serif" font-size="10.00">logger_has_level</text>
</a>
</g>
</g>
<!-- Node19&#45;&gt;Node20 -->
<g id="edge22_Node000019_Node000020" class="edge">
<title>Node19&#45;&gt;Node20</title>
<g id="a_edge22_Node000019_Node000020"><a xlink:title=" ">
<path fill="none" stroke="#63b8ff" d="M768.85,-68.45C784.63,-63.83 803.91,-58.19 821.17,-53.14"/>
<polygon fill="#63b8ff" stroke="#63b8ff" points="822.09,-56.52 830.71,-50.35 820.13,-49.8 822.09,-56.52"/>
</a>
</g>
</g>
<!-- Node21 -->
<g id="Node000021" class="node">
<title>Node21</title>
<g id="a_Node000021"><a xlink:href="../../d1/dc0/group__log.html#gaf388752b988541da0abeceecdf96e6b3" target="_top" xlink:title=" ">
<polygon fill="white" stroke="#666666" points="1062.25,-49.47 975.75,-49.47 975.75,-30.22 1062.25,-30.22 1062.25,-49.47"/>
<text text-anchor="middle" x="1019" y="-35.97" font-family="Helvetica,sans-Serif" font-size="10.00">logger_get_level</text>
</a>
</g>
</g>
<!-- Node20&#45;&gt;Node21 -->
<g id="edge23_Node000020_Node000021" class="edge">
<title>Node20&#45;&gt;Node21</title>
<g id="a_edge23_Node000020_Node000021"><a xlink:title=" ">
<path fill="none" stroke="#63b8ff" d="M912.23,-39.84C928.39,-39.84 946.92,-39.84 963.9,-39.84"/>
<polygon fill="#63b8ff" stroke="#63b8ff" points="963.86,-43.34 973.86,-39.84 963.86,-36.34 963.86,-43.34"/>
</a>
</g>
</g>
<!-- Node22 -->
<g id="Node000022" class="node">
<title>Node22</title>
<g id="a_Node000022"><a xlink:href="../../d1/dc0/group__log.html#ga93cbd623096e1704532d15b3eb30e42f" target="_top" xlink:title=" ">
<polygon fill="white" stroke="#666666" points="1206.5,-49.47 1118.5,-49.47 1118.5,-30.22 1206.5,-30.22 1206.5,-49.47"/>
<text text-anchor="middle" x="1162.5" y="-35.97" font-family="Helvetica,sans-Serif" font-size="10.00">__logger_refresh</text>
</a>
</g>
</g>
<!-- Node21&#45;&gt;Node22 -->
<g id="edge24_Node000021_Node000022" class="edge">
<title>Node21&#45;&gt;Node22</title>
<g id="a_edge24_Node000021_Node000022"><a xlink:title=" ">
<path fill="none" stroke="#63b8ff" d="M1062.45,-39.84C1076.33,-39.84 1091.94,-39.84 1106.6,-39.84"/>
<polygon fill="#63b8ff" stroke="#63b8ff" points="1106.58,-43.34 1116.58,-39.84 1106.58,-36.34 1106.58,-43.34"/>
</a>
</g>
</g>
</g>
</svg>
