<?xml version="1.0" encoding="UTF-8" standalone="no"?>
<!DOCTYPE svg PUBLIC "-//W3C//DTD SVG 1.1//EN"
 "http://www.w3.org/Graphics/SVG/1.1/DTD/svg11.dtd">
<!-- Generated by graphviz version 9.0.0 (20230911.1827)
 -->
<!-- Title: __logger_vpanic Pages: 1 -->
<svg width="1566pt" height="299pt"
 viewBox="0.00 0.00 1566.25 298.62" xmlns="http://www.w3.org/2000/svg" xmlns:xlink="http://www.w3.org/1999/xlink">
<g id="graph0" class="graph" transform="scale(1 1) rotate(0) translate(4 294.62)">
<title>__logger_vpanic</title>
<!-- Node1 -->
<g id="Node000001" class="node">
<title>Node1</title>
<g id="a_Node000001"><a xlink:title=" ">
<polygon fill="#999999" stroke="#666666" points="86.5,-47.62 0,-47.62 0,-28.38 86.5,-28.38 86.5,-47.62"/>
<text text-anchor="middle" x="43.25" y="-34.12" font-family="Helvetica,sans-Serif" font-size="10.00">__logger_vpanic</text>
</a>
</g>
</g>
<!-- Node2 -->
<g id="Node000002" class="node">
<title>Node2</title>
<g id="a_Node000002"><a xlink:href="../../d7/df8/log_8c.html#a4bc04f7baa1e064cb0b93c7b9f3a61a1" target="_top" xlink:title=" ">
<polygon fill="white" stroke="#666666" points="210.5,-85.62 122.5,-85.62 122.5,-66.38 210.5,-66.38 210.5,-85.62"/>
<text text-anchor="middle" x="166.5" y="-72.12" font-family="Helvetica,sans-Serif" font-size="10.00">__logger_refresh</text>
</a>
</g>
</g>
<!-- Node1&#45;&gt;Node2 -->
<g id="edge1_Node000001_Node000002" class="edge">
<title>Node1&#45;&gt;Node2</title>
<g id="a_edge1_Node000001_Node000002"><a xlink:title=" ">
<path fill="none" stroke="#63b8ff" d="M76.42,-48.08C90.65,-52.54 107.58,-57.85 122.84,-62.63"/>
<polygon fill="#63b8ff" stroke="#63b8ff" points="121.56,-65.9 132.15,-65.55 123.66,-59.22 121.56,-65.9"/>
</a>
</g>
</g>
<!-- Node16 -->
<g id="Node000016" class="node">
<title>Node16</title>
<g id="a_Node000016"><a xlink:href="../../d7/df8/log_8c.html#a900490b26df7698aac12f7f7e6517e81" target="_top" xlink:title=" ">
<polygon fill="white" stroke="#666666" points="1187,-67.62 1121.5,-67.62 1121.5,-48.38 1187,-48.38 1187,-67.62"/>
<text text-anchor="middle" x="1154.25" y="-54.12" font-family="Helvetica,sans-Serif" font-size="10.00">logger_vlog</text>
</a>
</g>
</g>
<!-- Node1&#45;&gt;Node16 -->
<g id="edge30_Node000001_Node000016" class="edge">
<title>Node1&#45;&gt;Node16</title>
<g id="a_edge30_Node000001_Node000016"><a xlink:title=" ">
<path fill="none" stroke="#63b8ff" d="M85.62,-27.92C135.51,-16.66 222.05,0 297.38,0 297.38,0 297.38,0 974,0 1029.73,0 1090.67,-25.69 1125.21,-42.87"/>
<polygon fill="#63b8ff" stroke="#63b8ff" points="1123.2,-45.78 1133.7,-47.21 1126.38,-39.54 1123.2,-45.78"/>
</a>
</g>
</g>
<!-- Node3 -->
<g id="Node000003" class="node">
<title>Node3</title>
<g id="a_Node000003"><a xlink:href="../../d7/df8/log_8c.html#a3dbd75fb614210f0b114cfd03c9c0a7b" target="_top" xlink:title=" ">
<polygon fill="white" stroke="#666666" points="350.25,-179.62 246.5,-179.62 246.5,-160.38 350.25,-160.38 350.25,-179.62"/>
<text text-anchor="middle" x="298.38" y="-166.12" font-family="Helvetica,sans-Serif" font-size="10.00">__logger_do_refresh</text>
</a>
</g>
</g>
<!-- Node2&#45;&gt;Node3 -->
<g id="edge2_Node000002_Node000003" class="edge">
<title>Node2&#45;&gt;Node3</title>
<g id="a_edge2_Node000002_Node000003"><a xlink:title=" ">
<path fill="none" stroke="#63b8ff" d="M181.4,-86.06C203.66,-102.17 247.55,-133.94 274.49,-153.44"/>
<polygon fill="#63b8ff" stroke="#63b8ff" points="272.2,-156.1 282.35,-159.13 276.3,-150.43 272.2,-156.1"/>
</a>
</g>
</g>
<!-- Node24 -->
<g id="Node000024" class="node">
<title>Node24</title>
<g id="a_Node000024"><a xlink:href="../../d7/df8/log_8c.html#a7b1b02d1986e1247c2f571af4a2c2854" target="_top" xlink:title=" ">
<polygon fill="white" stroke="#666666" points="336,-47.62 260.75,-47.62 260.75,-28.38 336,-28.38 336,-47.62"/>
<text text-anchor="middle" x="298.38" y="-34.12" font-family="Helvetica,sans-Serif" font-size="10.00">log_spin_lock</text>
</a>
</g>
</g>
<!-- Node2&#45;&gt;Node24 -->
<g id="edge28_Node000002_Node000024" class="edge">
<title>Node2&#45;&gt;Node24</title>
<g id="a_edge28_Node000002_Node000024"><a xlink:title=" ">
<path fill="none" stroke="#63b8ff" d="M201.96,-65.92C217.35,-61.41 235.69,-56.05 252.16,-51.23"/>
<polygon fill="#63b8ff" stroke="#63b8ff" points="253.13,-54.59 261.75,-48.42 251.17,-47.87 253.13,-54.59"/>
</a>
</g>
</g>
<!-- Node25 -->
<g id="Node000025" class="node">
<title>Node25</title>
<g id="a_Node000025"><a xlink:href="../../d1/dc0/group__log.html#ga045020bb4af234632f7761f220131c69" target="_top" xlink:title=" ">
<polygon fill="white" stroke="#666666" points="341.25,-234.62 255.5,-234.62 255.5,-215.38 341.25,-215.38 341.25,-234.62"/>
<text text-anchor="middle" x="298.38" y="-221.12" font-family="Helvetica,sans-Serif" font-size="10.00">log_spin_unlock</text>
</a>
</g>
</g>
<!-- Node2&#45;&gt;Node25 -->
<g id="edge29_Node000002_Node000025" class="edge">
<title>Node2&#45;&gt;Node25</title>
<g id="a_edge29_Node000002_Node000025"><a xlink:title=" ">
<path fill="none" stroke="#63b8ff" d="M170.76,-85.78C179.28,-109.9 204.51,-172.76 246.5,-207 247.46,-207.78 248.46,-208.54 249.49,-209.26"/>
<polygon fill="#63b8ff" stroke="#63b8ff" points="247.66,-212.24 258.08,-214.16 251.14,-206.17 247.66,-212.24"/>
</a>
</g>
</g>
<!-- Node3&#45;&gt;Node3 -->
<g id="edge3_Node000003_Node000003" class="edge">
<title>Node3&#45;&gt;Node3</title>
<g id="a_edge3_Node000003_Node000003"><a xlink:title=" ">
<path fill="none" stroke="#63b8ff" d="M277.73,-179.91C268.31,-188.52 275.19,-197.62 298.38,-197.62 311.05,-197.62 318.85,-194.9 321.78,-191.03"/>
<polygon fill="#63b8ff" stroke="#63b8ff" points="325.19,-190.24 319.39,-181.38 318.4,-191.93 325.19,-190.24"/>
</a>
</g>
</g>
<!-- Node4 -->
<g id="Node000004" class="node">
<title>Node4</title>
<g id="a_Node000004"><a xlink:href="../../de/d1a/container-dlist_8h.html#a3b6f65860b212e28f2e28e71eb54d54d" target="_top" xlink:title="Add element e at the head of list l (suited for LIFO).">
<polygon fill="white" stroke="#666666" points="477.25,-253.62 422.25,-253.62 422.25,-234.38 477.25,-234.38 477.25,-253.62"/>
<text text-anchor="middle" x="449.75" y="-240.12" font-family="Helvetica,sans-Serif" font-size="10.00">dlist_add</text>
</a>
</g>
</g>
<!-- Node3&#45;&gt;Node4 -->
<g id="edge4_Node000003_Node000004" class="edge">
<title>Node3&#45;&gt;Node4</title>
<g id="a_edge4_Node000003_Node000004"><a xlink:title=" ">
<path fill="none" stroke="#63b8ff" d="M313.91,-180.11C334.57,-194.35 371.55,-219.32 386.25,-226 394.02,-229.53 402.66,-232.55 410.97,-235.05"/>
<polygon fill="#63b8ff" stroke="#63b8ff" points="409.96,-238.4 420.53,-237.72 411.84,-231.66 409.96,-238.4"/>
</a>
</g>
</g>
<!-- Node6 -->
<g id="Node000006" class="node">
<title>Node6</title>
<g id="a_Node000006"><a xlink:href="../../de/d1a/container-dlist_8h.html#a0a69e401f6ec15966c891e96ad864c77" target="_top" xlink:title="Put a dlist_t element in a safe and detached state.">
<polygon fill="white" stroke="#666666" points="475.75,-290.62 423.75,-290.62 423.75,-271.38 475.75,-271.38 475.75,-290.62"/>
<text text-anchor="middle" x="449.75" y="-277.12" font-family="Helvetica,sans-Serif" font-size="10.00">dlist_init</text>
</a>
</g>
</g>
<!-- Node3&#45;&gt;Node6 -->
<g id="edge6_Node000003_Node000006" class="edge">
<title>Node3&#45;&gt;Node6</title>
<g id="a_edge6_Node000003_Node000006"><a xlink:title=" ">
<path fill="none" stroke="#63b8ff" d="M316.7,-179.86C327.2,-186.39 340.42,-195.64 350.25,-206 370.87,-227.74 362.29,-245.01 386.25,-263 393.89,-268.74 403.31,-272.65 412.49,-275.31"/>
<polygon fill="#63b8ff" stroke="#63b8ff" points="411.43,-278.65 421.97,-277.62 413.09,-271.85 411.43,-278.65"/>
</a>
</g>
</g>
<!-- Node7 -->
<g id="Node000007" class="node">
<title>Node7</title>
<g id="a_Node000007"><a xlink:href="../../d7/df8/log_8c.html#a4c8fbe8648573312126ce341cf34cba1" target="_top" xlink:title=" ">
<polygon fill="white" stroke="#666666" points="513.25,-216.62 386.25,-216.62 386.25,-197.38 513.25,-197.38 513.25,-216.62"/>
<text text-anchor="middle" x="449.75" y="-203.12" font-family="Helvetica,sans-Serif" font-size="10.00">logger_compute_fullname</text>
</a>
</g>
</g>
<!-- Node3&#45;&gt;Node7 -->
<g id="edge7_Node000003_Node000007" class="edge">
<title>Node3&#45;&gt;Node7</title>
<g id="a_edge7_Node000003_Node000007"><a xlink:title=" ">
<path fill="none" stroke="#63b8ff" d="M340.19,-180.11C357.73,-184.45 378.43,-189.58 397.02,-194.19"/>
<polygon fill="#63b8ff" stroke="#63b8ff" points="395.96,-197.53 406.51,-196.54 397.65,-190.74 395.96,-197.53"/>
</a>
</g>
</g>
<!-- Node10 -->
<g id="Node000010" class="node">
<title>Node10</title>
<g id="a_Node000010"><a xlink:href="../../df/d0a/str-l_8h.html#ad74dae07179370f3c22e3f026157926e" target="_top" xlink:title="wipe a lstr_t (frees memory if needed).">
<polygon fill="white" stroke="#666666" points="609.5,-179.62 554.5,-179.62 554.5,-160.38 609.5,-160.38 609.5,-179.62"/>
<text text-anchor="middle" x="582" y="-166.12" font-family="Helvetica,sans-Serif" font-size="10.00">lstr_wipe</text>
</a>
</g>
</g>
<!-- Node3&#45;&gt;Node10 -->
<g id="edge27_Node000003_Node000010" class="edge">
<title>Node3&#45;&gt;Node10</title>
<g id="a_edge27_Node000003_Node000010"><a xlink:title=" ">
<path fill="none" stroke="#63b8ff" d="M337.14,-159.89C352.29,-156.32 369.98,-152.76 386.25,-151 442.37,-144.94 457.33,-143.31 513.25,-151 523.17,-152.36 533.68,-154.8 543.38,-157.49"/>
<polygon fill="#63b8ff" stroke="#63b8ff" points="542.29,-160.81 552.87,-160.27 544.26,-154.1 542.29,-160.81"/>
</a>
</g>
</g>
<!-- Node23 -->
<g id="Node000023" class="node">
<title>Node23</title>
<g id="a_Node000023"><a xlink:href="../../df/d0a/str-l_8h.html#a963c22b229774d4b7c106bae4011cb8e" target="_top" xlink:title="Returns whether \v s1 and \v s2 contents are equal.">
<polygon fill="white" stroke="#666666" points="478.75,-179.62 420.75,-179.62 420.75,-160.38 478.75,-160.38 478.75,-179.62"/>
<text text-anchor="middle" x="449.75" y="-166.12" font-family="Helvetica,sans-Serif" font-size="10.00">lstr_equal</text>
</a>
</g>
</g>
<!-- Node3&#45;&gt;Node23 -->
<g id="edge26_Node000003_Node000023" class="edge">
<title>Node3&#45;&gt;Node23</title>
<g id="a_edge26_Node000003_Node000023"><a xlink:title=" ">
<path fill="none" stroke="#63b8ff" d="M350.36,-170C369.64,-170 391.26,-170 409.32,-170"/>
<polygon fill="#63b8ff" stroke="#63b8ff" points="409.09,-173.5 419.09,-170 409.09,-166.5 409.09,-173.5"/>
</a>
</g>
</g>
<!-- Node5 -->
<g id="Node000005" class="node">
<title>Node5</title>
<g id="a_Node000005"><a xlink:href="../../de/d1a/container-dlist_8h.html#a71e7667ca0e4b896923788c5851afd24" target="_top" xlink:title="Put element e between prev and next.">
<polygon fill="white" stroke="#666666" points="614.75,-274.62 549.25,-274.62 549.25,-255.38 614.75,-255.38 614.75,-274.62"/>
<text text-anchor="middle" x="582" y="-261.12" font-family="Helvetica,sans-Serif" font-size="10.00">__dlist_add</text>
</a>
</g>
</g>
<!-- Node4&#45;&gt;Node5 -->
<g id="edge5_Node000004_Node000005" class="edge">
<title>Node4&#45;&gt;Node5</title>
<g id="a_edge5_Node000004_Node000005"><a xlink:title=" ">
<path fill="none" stroke="#63b8ff" d="M477.74,-248.35C495.05,-251.14 517.92,-254.83 537.74,-258.03"/>
<polygon fill="#63b8ff" stroke="#63b8ff" points="537.06,-261.46 547.49,-259.6 538.18,-254.55 537.06,-261.46"/>
</a>
</g>
</g>
<!-- Node8 -->
<g id="Node000008" class="node">
<title>Node8</title>
<g id="a_Node000008"><a xlink:href="../../df/d0a/str-l_8h.html#a6a200ca09358f19b13a8e297cda34869" target="_top" xlink:title="returns a constant copy of \v s.">
<polygon fill="white" stroke="#666666" points="1295.25,-160.62 1239.5,-160.62 1239.5,-141.38 1295.25,-141.38 1295.25,-160.62"/>
<text text-anchor="middle" x="1267.38" y="-147.12" font-family="Helvetica,sans-Serif" font-size="10.00">lstr_dupc</text>
</a>
</g>
</g>
<!-- Node7&#45;&gt;Node8 -->
<g id="edge8_Node000007_Node000008" class="edge">
<title>Node7&#45;&gt;Node8</title>
<g id="a_edge8_Node000007_Node000008"><a xlink:title=" ">
<path fill="none" stroke="#63b8ff" d="M513.7,-215.25C561.14,-220.76 627.86,-227 686.62,-227 686.62,-227 686.62,-227 1061.62,-227 1130.07,-227 1203.8,-189.21 1241.33,-166.92"/>
<polygon fill="#63b8ff" stroke="#63b8ff" points="1242.9,-170.06 1249.62,-161.88 1239.26,-164.08 1242.9,-170.06"/>
</a>
</g>
</g>
<!-- Node7&#45;&gt;Node10 -->
<g id="edge10_Node000007_Node000010" class="edge">
<title>Node7&#45;&gt;Node10</title>
<g id="a_edge10_Node000007_Node000010"><a xlink:title=" ">
<path fill="none" stroke="#63b8ff" d="M486.34,-196.89C503.97,-191.88 525.27,-185.83 543.19,-180.74"/>
<polygon fill="#63b8ff" stroke="#63b8ff" points="544.01,-184.15 552.67,-178.05 542.1,-177.41 544.01,-184.15"/>
</a>
</g>
</g>
<!-- Node9 -->
<g id="Node000009" class="node">
<title>Node9</title>
<g id="a_Node000009"><a xlink:href="../../df/d0a/str-l_8h.html#a3b4dbe9c4cc70340cba0787574dc1c5e" target="_top" xlink:title=" ">
<polygon fill="white" stroke="#666666" points="1417.38,-179.62 1364.62,-179.62 1364.62,-160.38 1417.38,-160.38 1417.38,-179.62"/>
<text text-anchor="middle" x="1391" y="-166.12" font-family="Helvetica,sans-Serif" font-size="10.00">lstr_init_</text>
</a>
</g>
</g>
<!-- Node8&#45;&gt;Node9 -->
<g id="edge9_Node000008_Node000009" class="edge">
<title>Node8&#45;&gt;Node9</title>
<g id="a_edge9_Node000008_Node000009"><a xlink:title=" ">
<path fill="none" stroke="#63b8ff" d="M1295.67,-155.26C1312.64,-157.92 1334.68,-161.36 1353.18,-164.25"/>
<polygon fill="#63b8ff" stroke="#63b8ff" points="1352.54,-167.69 1362.96,-165.78 1353.62,-160.77 1352.54,-167.69"/>
</a>
</g>
</g>
<!-- Node11 -->
<g id="Node000011" class="node">
<title>Node11</title>
<g id="a_Node000011"><a xlink:href="../../df/d0a/str-l_8h.html#a381cd831ac9616c5bea8213bb679d1ac" target="_top" xlink:title="Wipe a lstr_t (frees memory if needed).">
<polygon fill="white" stroke="#666666" points="724.5,-179.62 650.75,-179.62 650.75,-160.38 724.5,-160.38 724.5,-179.62"/>
<text text-anchor="middle" x="687.62" y="-166.12" font-family="Helvetica,sans-Serif" font-size="10.00">mp_lstr_wipe</text>
</a>
</g>
</g>
<!-- Node10&#45;&gt;Node11 -->
<g id="edge11_Node000010_Node000011" class="edge">
<title>Node10&#45;&gt;Node11</title>
<g id="a_edge11_Node000010_Node000011"><a xlink:title=" ">
<path fill="none" stroke="#63b8ff" d="M609.96,-170C618.83,-170 628.99,-170 638.94,-170"/>
<polygon fill="#63b8ff" stroke="#63b8ff" points="638.93,-173.5 648.93,-170 638.93,-166.5 638.93,-173.5"/>
</a>
</g>
</g>
<!-- Node12 -->
<g id="Node000012" class="node">
<title>Node12</title>
<g id="a_Node000012"><a xlink:href="../../de/d04/str-l_8c.html#abe2a3a71f0b4dbc7d37c59d16762b6fb" target="_top" xlink:title="lstr_copy_* helper.">
<polygon fill="white" stroke="#666666" points="839.5,-179.62 760.5,-179.62 760.5,-160.38 839.5,-160.38 839.5,-179.62"/>
<text text-anchor="middle" x="800" y="-166.12" font-family="Helvetica,sans-Serif" font-size="10.00">mp_lstr_copy_</text>
</a>
</g>
</g>
<!-- Node11&#45;&gt;Node12 -->
<g id="edge12_Node000011_Node000012" class="edge">
<title>Node11&#45;&gt;Node12</title>
<g id="a_edge12_Node000011_Node000012"><a xlink:title=" ">
<path fill="none" stroke="#63b8ff" d="M724.77,-170C732.46,-170 740.71,-170 748.82,-170"/>
<polygon fill="#63b8ff" stroke="#63b8ff" points="748.6,-173.5 758.6,-170 748.6,-166.5 748.6,-173.5"/>
</a>
</g>
</g>
<!-- Node12&#45;&gt;Node9 -->
<g id="edge25_Node000012_Node000009" class="edge">
<title>Node12&#45;&gt;Node9</title>
<g id="a_edge25_Node000012_Node000009"><a xlink:title=" ">
<path fill="none" stroke="#63b8ff" d="M839.91,-176.81C874.49,-182.26 926.45,-189 972,-189 972,-189 972,-189 1155.25,-189 1225.4,-189 1306.96,-180.47 1353.13,-174.84"/>
<polygon fill="#63b8ff" stroke="#63b8ff" points="1353.36,-178.34 1362.85,-173.63 1352.49,-171.39 1353.36,-178.34"/>
</a>
</g>
</g>
<!-- Node13 -->
<g id="Node000013" class="node">
<title>Node13</title>
<g id="a_Node000013"><a xlink:href="../../d9/d9a/mem_8h.html#aebbbd277e2952bdb802104671ba23ba9" target="_top" xlink:title=" ">
<polygon fill="white" stroke="#666666" points="910.25,-160.62 875.5,-160.62 875.5,-141.38 910.25,-141.38 910.25,-160.62"/>
<text text-anchor="middle" x="892.88" y="-147.12" font-family="Helvetica,sans-Serif" font-size="10.00">ifree</text>
</a>
</g>
</g>
<!-- Node12&#45;&gt;Node13 -->
<g id="edge13_Node000012_Node000013" class="edge">
<title>Node12&#45;&gt;Node13</title>
<g id="a_edge13_Node000012_Node000013"><a xlink:title=" ">
<path fill="none" stroke="#63b8ff" d="M839.8,-161.89C847.91,-160.19 856.3,-158.44 863.92,-156.85"/>
<polygon fill="#63b8ff" stroke="#63b8ff" points="864.55,-160.29 873.62,-154.82 863.12,-153.44 864.55,-160.29"/>
</a>
</g>
</g>
<!-- Node14 -->
<g id="Node000014" class="node">
<title>Node14</title>
<g id="a_Node000014"><a xlink:href="../../d8/d37/mem_8blk.html#a36b65ab346f1d0deed7b63c544c78f2b" target="_top" xlink:title=" ">
<polygon fill="white" stroke="#666666" points="991.12,-123.62 954.88,-123.62 954.88,-104.38 991.12,-104.38 991.12,-123.62"/>
<text text-anchor="middle" x="973" y="-110.12" font-family="Helvetica,sans-Serif" font-size="10.00">ipool</text>
</a>
</g>
</g>
<!-- Node13&#45;&gt;Node14 -->
<g id="edge14_Node000013_Node000014" class="edge">
<title>Node13&#45;&gt;Node14</title>
<g id="a_edge14_Node000013_Node000014"><a xlink:title=" ">
<path fill="none" stroke="#63b8ff" d="M910.44,-143.15C920.29,-138.49 933.02,-132.46 944.35,-127.09"/>
<polygon fill="#63b8ff" stroke="#63b8ff" points="945.74,-130.31 953.28,-122.87 942.74,-123.99 945.74,-130.31"/>
</a>
</g>
</g>
<!-- Node22 -->
<g id="Node000022" class="node">
<title>Node22</title>
<g id="a_Node000022"><a xlink:href="../../d8/d37/mem_8blk.html#a83c7cf203e5eef9d1a8c6c43cde3e2e5" target="_top" xlink:title=" ">
<polygon fill="white" stroke="#666666" points="999.75,-160.62 946.25,-160.62 946.25,-141.38 999.75,-141.38 999.75,-160.62"/>
<text text-anchor="middle" x="973" y="-147.12" font-family="Helvetica,sans-Serif" font-size="10.00">mp_ifree</text>
</a>
</g>
</g>
<!-- Node13&#45;&gt;Node22 -->
<g id="edge24_Node000013_Node000022" class="edge">
<title>Node13&#45;&gt;Node22</title>
<g id="a_edge24_Node000013_Node000022"><a xlink:title=" ">
<path fill="none" stroke="#63b8ff" d="M910.44,-151C917.53,-151 926.11,-151 934.58,-151"/>
<polygon fill="#63b8ff" stroke="#63b8ff" points="934.41,-154.5 944.41,-151 934.41,-147.5 934.41,-154.5"/>
</a>
</g>
</g>
<!-- Node15 -->
<g id="Node000015" class="node">
<title>Node15</title>
<g id="a_Node000015"><a xlink:href="../../d7/df8/log_8c.html#abca342edf91a9b45f7a17ef564fa8a53" target="_top" xlink:title=" ">
<polygon fill="white" stroke="#666666" points="1085.5,-86.62 1035.75,-86.62 1035.75,-67.38 1085.5,-67.38 1085.5,-86.62"/>
<text text-anchor="middle" x="1060.62" y="-73.12" font-family="Helvetica,sans-Serif" font-size="10.00">e_panic</text>
</a>
</g>
</g>
<!-- Node14&#45;&gt;Node15 -->
<g id="edge15_Node000014_Node000015" class="edge">
<title>Node14&#45;&gt;Node15</title>
<g id="a_edge15_Node000014_Node000015"><a xlink:title=" ">
<path fill="none" stroke="#63b8ff" d="M991.33,-106.51C1001.28,-102.21 1014.12,-96.66 1025.98,-91.54"/>
<polygon fill="#63b8ff" stroke="#63b8ff" points="1027.3,-94.78 1035.09,-87.6 1024.52,-88.36 1027.3,-94.78"/>
</a>
</g>
</g>
<!-- Node21 -->
<g id="Node000021" class="node">
<title>Node21</title>
<g id="a_Node000021"><a xlink:href="../../d1/d10/mem-stack_8h.html#a1d0e2a29f86dc033a02e50484b527fd0" target="_top" xlink:title=" ">
<polygon fill="white" stroke="#666666" points="1081.75,-123.62 1039.5,-123.62 1039.5,-104.38 1081.75,-104.38 1081.75,-123.62"/>
<text text-anchor="middle" x="1060.62" y="-110.12" font-family="Helvetica,sans-Serif" font-size="10.00">t_pool</text>
</a>
</g>
</g>
<!-- Node14&#45;&gt;Node21 -->
<g id="edge23_Node000014_Node000021" class="edge">
<title>Node14&#45;&gt;Node21</title>
<g id="a_edge23_Node000014_Node000021"><a xlink:title=" ">
<path fill="none" stroke="#63b8ff" d="M991.33,-114C1001.77,-114 1015.39,-114 1027.72,-114"/>
<polygon fill="#63b8ff" stroke="#63b8ff" points="1027.49,-117.5 1037.49,-114 1027.49,-110.5 1027.49,-117.5"/>
</a>
</g>
</g>
<!-- Node15&#45;&gt;Node2 -->
<g id="edge16_Node000015_Node000002" class="edge">
<title>Node15&#45;&gt;Node2</title>
<g id="a_edge16_Node000015_Node000002"><a xlink:title=" ">
<path fill="none" stroke="#63b8ff" d="M1035.47,-76.76C1003.2,-76.47 944.23,-76 893.88,-76 448.75,-76 448.75,-76 448.75,-76 369.95,-76 278.73,-76 222.07,-76"/>
<polygon fill="#63b8ff" stroke="#63b8ff" points="222.38,-72.5 212.38,-76 222.38,-79.5 222.38,-72.5"/>
</a>
</g>
</g>
<!-- Node15&#45;&gt;Node16 -->
<g id="edge17_Node000015_Node000016" class="edge">
<title>Node15&#45;&gt;Node16</title>
<g id="a_edge17_Node000015_Node000016"><a xlink:title=" ">
<path fill="none" stroke="#63b8ff" d="M1085.7,-72.01C1093.13,-70.47 1101.57,-68.72 1109.89,-66.99"/>
<polygon fill="#63b8ff" stroke="#63b8ff" points="1110.5,-70.44 1119.59,-64.98 1109.08,-63.58 1110.5,-70.44"/>
</a>
</g>
</g>
<!-- Node20 -->
<g id="Node000020" class="node">
<title>Node20</title>
<g id="a_Node000020"><a xlink:href="../../d2/d4d/file_8h.html#a25419a391fdd4ad7954699c58cfeb3b9" target="_top" xlink:title=" ">
<polygon fill="white" stroke="#666666" points="1179.88,-104.62 1128.62,-104.62 1128.62,-85.38 1179.88,-85.38 1179.88,-104.62"/>
<text text-anchor="middle" x="1154.25" y="-91.12" font-family="Helvetica,sans-Serif" font-size="10.00">va_start</text>
</a>
</g>
</g>
<!-- Node15&#45;&gt;Node20 -->
<g id="edge22_Node000015_Node000020" class="edge">
<title>Node15&#45;&gt;Node20</title>
<g id="a_edge22_Node000015_Node000020"><a xlink:title=" ">
<path fill="none" stroke="#63b8ff" d="M1085.7,-81.73C1095.35,-83.63 1106.69,-85.85 1117.29,-87.93"/>
<polygon fill="#63b8ff" stroke="#63b8ff" points="1116.41,-91.33 1126.89,-89.82 1117.76,-84.46 1116.41,-91.33"/>
</a>
</g>
</g>
<!-- Node16&#45;&gt;Node8 -->
<g id="edge21_Node000016_Node000008" class="edge">
<title>Node16&#45;&gt;Node8</title>
<g id="a_edge21_Node000016_Node000008"><a xlink:title=" ">
<path fill="none" stroke="#63b8ff" d="M1174.52,-67.94C1178.76,-70.39 1183.13,-73.14 1187,-76 1210.41,-93.3 1234.3,-116.83 1249.67,-132.9"/>
<polygon fill="#63b8ff" stroke="#63b8ff" points="1246.82,-134.98 1256.23,-139.86 1251.92,-130.18 1246.82,-134.98"/>
</a>
</g>
</g>
<!-- Node17 -->
<g id="Node000017" class="node">
<title>Node17</title>
<g id="a_Node000017"><a xlink:href="../../d1/dc0/group__log.html#ga168a6f17b248f61f7d25a17d58d04e36" target="_top" xlink:title=" ">
<polygon fill="white" stroke="#666666" points="1311.75,-67.62 1223,-67.62 1223,-48.38 1311.75,-48.38 1311.75,-67.62"/>
<text text-anchor="middle" x="1267.38" y="-54.12" font-family="Helvetica,sans-Serif" font-size="10.00">logger_has_level</text>
</a>
</g>
</g>
<!-- Node16&#45;&gt;Node17 -->
<g id="edge18_Node000016_Node000017" class="edge">
<title>Node16&#45;&gt;Node17</title>
<g id="a_edge18_Node000016_Node000017"><a xlink:title=" ">
<path fill="none" stroke="#63b8ff" d="M1187.39,-58C1194.89,-58 1203.08,-58 1211.25,-58"/>
<polygon fill="#63b8ff" stroke="#63b8ff" points="1211.22,-61.5 1221.22,-58 1211.22,-54.5 1211.22,-61.5"/>
</a>
</g>
</g>
<!-- Node18 -->
<g id="Node000018" class="node">
<title>Node18</title>
<g id="a_Node000018"><a xlink:href="../../d1/dc0/group__log.html#gaf388752b988541da0abeceecdf96e6b3" target="_top" xlink:title=" ">
<polygon fill="white" stroke="#666666" points="1434.25,-67.62 1347.75,-67.62 1347.75,-48.38 1434.25,-48.38 1434.25,-67.62"/>
<text text-anchor="middle" x="1391" y="-54.12" font-family="Helvetica,sans-Serif" font-size="10.00">logger_get_level</text>
</a>
</g>
</g>
<!-- Node17&#45;&gt;Node18 -->
<g id="edge19_Node000017_Node000018" class="edge">
<title>Node17&#45;&gt;Node18</title>
<g id="a_edge19_Node000017_Node000018"><a xlink:title=" ">
<path fill="none" stroke="#63b8ff" d="M1311.94,-58C1319.82,-58 1328.11,-58 1336.24,-58"/>
<polygon fill="#63b8ff" stroke="#63b8ff" points="1336.04,-61.5 1346.04,-58 1336.04,-54.5 1336.04,-61.5"/>
</a>
</g>
</g>
<!-- Node19 -->
<g id="Node000019" class="node">
<title>Node19</title>
<g id="a_Node000019"><a xlink:href="../../d1/dc0/group__log.html#ga93cbd623096e1704532d15b3eb30e42f" target="_top" xlink:title=" ">
<polygon fill="white" stroke="#666666" points="1558.25,-67.62 1470.25,-67.62 1470.25,-48.38 1558.25,-48.38 1558.25,-67.62"/>
<text text-anchor="middle" x="1514.25" y="-54.12" font-family="Helvetica,sans-Serif" font-size="10.00">__logger_refresh</text>
</a>
</g>
</g>
<!-- Node18&#45;&gt;Node19 -->
<g id="edge20_Node000018_Node000019" class="edge">
<title>Node18&#45;&gt;Node19</title>
<g id="a_edge20_Node000018_Node000019"><a xlink:title=" ">
<path fill="none" stroke="#63b8ff" d="M1434.75,-58C1442.53,-58 1450.75,-58 1458.82,-58"/>
<polygon fill="#63b8ff" stroke="#63b8ff" points="1458.56,-61.5 1468.56,-58 1458.56,-54.5 1458.56,-61.5"/>
</a>
</g>
</g>
</g>
</svg>
