<?xml version="1.0" encoding="UTF-8" standalone="no"?>
<!DOCTYPE svg PUBLIC "-//W3C//DTD SVG 1.1//EN"
 "http://www.w3.org/Graphics/SVG/1.1/DTD/svg11.dtd">
<!-- Generated by graphviz version 9.0.0 (20230911.1827)
 -->
<!-- Title: e_is_traced_ Pages: 1 -->
<svg width="706pt" height="214pt"
 viewBox="0.00 0.00 705.50 214.25" xmlns="http://www.w3.org/2000/svg" xmlns:xlink="http://www.w3.org/1999/xlink">
<g id="graph0" class="graph" transform="scale(1 1) rotate(0) translate(4 210.25)">
<title>e_is_traced_</title>
<!-- Node1 -->
<g id="Node000001" class="node">
<title>Node1</title>
<g id="a_Node000001"><a xlink:title=" ">
<polygon fill="#999999" stroke="#666666" points="71.5,-150.25 0,-150.25 0,-131 71.5,-131 71.5,-150.25"/>
<text text-anchor="middle" x="35.75" y="-136.75" font-family="Helvetica,sans-Serif" font-size="10.00">e_is_traced_</text>
</a>
</g>
</g>
<!-- Node2 -->
<g id="Node000002" class="node">
<title>Node2</title>
<g id="a_Node000002"><a xlink:href="../../d7/df8/log_8c.html#a67f493fe9fec0c170e3d3866cd930880" target="_top" xlink:title=" ">
<polygon fill="white" stroke="#666666" points="209,-206.25 111.25,-206.25 111.25,-187 209,-187 209,-206.25"/>
<text text-anchor="middle" x="160.12" y="-192.75" font-family="Helvetica,sans-Serif" font-size="10.00">__logger_is_traced</text>
</a>
</g>
</g>
<!-- Node1&#45;&gt;Node2 -->
<g id="edge1_Node000001_Node000002" class="edge">
<title>Node1&#45;&gt;Node2</title>
<g id="a_edge1_Node000001_Node000002"><a xlink:title=" ">
<path fill="none" stroke="#63b8ff" d="M53.53,-150.61C67.64,-158.76 88.48,-170.26 107.5,-178.62 110.61,-179.99 113.87,-181.33 117.16,-182.62"/>
<polygon fill="#63b8ff" stroke="#63b8ff" points="115.69,-185.81 126.28,-186.02 118.13,-179.25 115.69,-185.81"/>
</a>
</g>
</g>
<!-- Node3 -->
<g id="Node000003" class="node">
<title>Node3</title>
<g id="a_Node000003"><a xlink:href="../../d7/df8/log_8c.html#a7b1b02d1986e1247c2f571af4a2c2854" target="_top" xlink:title=" ">
<polygon fill="white" stroke="#666666" points="197.75,-169.25 122.5,-169.25 122.5,-150 197.75,-150 197.75,-169.25"/>
<text text-anchor="middle" x="160.12" y="-155.75" font-family="Helvetica,sans-Serif" font-size="10.00">log_spin_lock</text>
</a>
</g>
</g>
<!-- Node1&#45;&gt;Node3 -->
<g id="edge2_Node000001_Node000003" class="edge">
<title>Node1&#45;&gt;Node3</title>
<g id="a_edge2_Node000001_Node000003"><a xlink:title=" ">
<path fill="none" stroke="#63b8ff" d="M71.82,-146.07C84.05,-147.97 98.01,-150.14 111.11,-152.17"/>
<polygon fill="#63b8ff" stroke="#63b8ff" points="110.43,-155.61 120.85,-153.68 111.51,-148.69 110.43,-155.61"/>
</a>
</g>
</g>
<!-- Node4 -->
<g id="Node000004" class="node">
<title>Node4</title>
<g id="a_Node000004"><a xlink:href="../../d1/dc0/group__log.html#ga045020bb4af234632f7761f220131c69" target="_top" xlink:title=" ">
<polygon fill="white" stroke="#666666" points="203,-132.25 117.25,-132.25 117.25,-113 203,-113 203,-132.25"/>
<text text-anchor="middle" x="160.12" y="-118.75" font-family="Helvetica,sans-Serif" font-size="10.00">log_spin_unlock</text>
</a>
</g>
</g>
<!-- Node1&#45;&gt;Node4 -->
<g id="edge3_Node000001_Node000004" class="edge">
<title>Node1&#45;&gt;Node4</title>
<g id="a_edge3_Node000001_Node000004"><a xlink:title=" ">
<path fill="none" stroke="#63b8ff" d="M71.82,-135.47C82.41,-133.91 94.29,-132.16 105.8,-130.47"/>
<polygon fill="#63b8ff" stroke="#63b8ff" points="106.23,-133.94 115.61,-129.02 105.21,-127.02 106.23,-133.94"/>
</a>
</g>
</g>
<!-- Node5 -->
<g id="Node000005" class="node">
<title>Node5</title>
<g id="a_Node000005"><a xlink:href="../../d1/dc0/group__log.html#ga873bee329dcde06d08c3846981434e08" target="_top" xlink:title=" ">
<polygon fill="white" stroke="#666666" points="212.75,-95.25 107.5,-95.25 107.5,-76 212.75,-76 212.75,-95.25"/>
<text text-anchor="middle" x="160.12" y="-81.75" font-family="Helvetica,sans-Serif" font-size="10.00">logger_get_by_name</text>
</a>
</g>
</g>
<!-- Node1&#45;&gt;Node5 -->
<g id="edge4_Node000001_Node000005" class="edge">
<title>Node1&#45;&gt;Node5</title>
<g id="a_edge4_Node000001_Node000005"><a xlink:title=" ">
<path fill="none" stroke="#63b8ff" d="M54.14,-130.62C68.25,-122.72 88.8,-111.72 107.5,-103.62 110.66,-102.25 113.97,-100.91 117.31,-99.61"/>
<polygon fill="#63b8ff" stroke="#63b8ff" points="118.42,-102.94 126.57,-96.18 115.98,-96.37 118.42,-102.94"/>
</a>
</g>
</g>
<!-- Node6 -->
<g id="Node000006" class="node">
<title>Node6</title>
<g id="a_Node000006"><a xlink:href="../../df/d0a/str-l_8h.html#a963c22b229774d4b7c106bae4011cb8e" target="_top" xlink:title="Returns whether \v s1 and \v s2 contents are equal.">
<polygon fill="white" stroke="#666666" points="339.75,-206.25 281.75,-206.25 281.75,-187 339.75,-187 339.75,-206.25"/>
<text text-anchor="middle" x="310.75" y="-192.75" font-family="Helvetica,sans-Serif" font-size="10.00">lstr_equal</text>
</a>
</g>
</g>
<!-- Node5&#45;&gt;Node6 -->
<g id="edge5_Node000005_Node000006" class="edge">
<title>Node5&#45;&gt;Node6</title>
<g id="a_edge5_Node000005_Node000006"><a xlink:title=" ">
<path fill="none" stroke="#63b8ff" d="M200.37,-95.68C204.84,-97.84 209.09,-100.46 212.75,-103.62 238.92,-126.24 223.03,-149.5 248.75,-172.62 255.03,-178.27 262.8,-182.67 270.67,-186.05"/>
<polygon fill="#63b8ff" stroke="#63b8ff" points="269.32,-189.28 279.91,-189.54 271.79,-182.74 269.32,-189.28"/>
</a>
</g>
</g>
<!-- Node7 -->
<g id="Node000007" class="node">
<title>Node7</title>
<g id="a_Node000007"><a xlink:href="../../d4/d86/str-stream_8h.html#a171f7ecffb1d3846b226cd8d7016aed7" target="_top" xlink:title=" ">
<polygon fill="white" stroke="#666666" points="697.5,-149.25 644.75,-149.25 644.75,-130 697.5,-130 697.5,-149.25"/>
<text text-anchor="middle" x="671.12" y="-135.75" font-family="Helvetica,sans-Serif" font-size="10.00">ps_done</text>
</a>
</g>
</g>
<!-- Node5&#45;&gt;Node7 -->
<g id="edge6_Node000005_Node000007" class="edge">
<title>Node5&#45;&gt;Node7</title>
<g id="a_edge6_Node000005_Node000007"><a xlink:title=" ">
<path fill="none" stroke="#63b8ff" d="M196,-95.72C243.59,-108.92 331.75,-131.33 408.75,-139.62 488.32,-148.2 582.3,-144.96 633.08,-142.11"/>
<polygon fill="#63b8ff" stroke="#63b8ff" points="633.14,-145.62 642.92,-141.53 632.73,-138.63 633.14,-145.62"/>
</a>
</g>
</g>
<!-- Node8 -->
<g id="Node000008" class="node">
<title>Node8</title>
<g id="a_Node000008"><a xlink:href="../../d4/d86/str-stream_8h.html#ac725025db4399b257caac530505f6c63" target="_top" xlink:title=" ">
<polygon fill="white" stroke="#666666" points="372.75,-95.25 248.75,-95.25 248.75,-76 372.75,-76 372.75,-95.25"/>
<text text-anchor="middle" x="310.75" y="-81.75" font-family="Helvetica,sans-Serif" font-size="10.00">ps_get_ps_chr_and_skip</text>
</a>
</g>
</g>
<!-- Node5&#45;&gt;Node8 -->
<g id="edge7_Node000005_Node000008" class="edge">
<title>Node5&#45;&gt;Node8</title>
<g id="a_edge7_Node000005_Node000008"><a xlink:title=" ">
<path fill="none" stroke="#63b8ff" d="M213.11,-85.62C220.84,-85.62 228.94,-85.62 237.01,-85.62"/>
<polygon fill="#63b8ff" stroke="#63b8ff" points="236.85,-89.13 246.85,-85.63 236.85,-82.13 236.85,-89.13"/>
</a>
</g>
</g>
<!-- Node15 -->
<g id="Node000015" class="node">
<title>Node15</title>
<g id="a_Node000015"><a xlink:href="../../d4/d86/str-stream_8h.html#a8c72cf3833ab9273d676151a583336a2" target="_top" xlink:title=" ">
<polygon fill="white" stroke="#666666" points="478.75,-19.25 434.25,-19.25 434.25,0 478.75,0 478.75,-19.25"/>
<text text-anchor="middle" x="456.5" y="-5.75" font-family="Helvetica,sans-Serif" font-size="10.00">ps_init</text>
</a>
</g>
</g>
<!-- Node5&#45;&gt;Node15 -->
<g id="edge15_Node000005_Node000015" class="edge">
<title>Node5&#45;&gt;Node15</title>
<g id="a_edge15_Node000005_Node000015"><a xlink:title=" ">
<path fill="none" stroke="#63b8ff" d="M200.22,-75.53C258.79,-60.41 368.27,-32.15 422.84,-18.06"/>
<polygon fill="#63b8ff" stroke="#63b8ff" points="423.65,-21.46 432.45,-15.57 421.9,-14.69 423.65,-21.46"/>
</a>
</g>
</g>
<!-- Node16 -->
<g id="Node000016" class="node">
<title>Node16</title>
<g id="a_Node000016"><a xlink:href="../../d4/d86/str-stream_8h.html#a01f510bc60b3e1efa55cf7c371dadfee" target="_top" xlink:title=" ">
<polygon fill="white" stroke="#666666" points="339.75,-19.25 281.75,-19.25 281.75,0 339.75,0 339.75,-19.25"/>
<text text-anchor="middle" x="310.75" y="-5.75" font-family="Helvetica,sans-Serif" font-size="10.00">ps_initlstr</text>
</a>
</g>
</g>
<!-- Node5&#45;&gt;Node16 -->
<g id="edge17_Node000005_Node000016" class="edge">
<title>Node5&#45;&gt;Node16</title>
<g id="a_edge17_Node000005_Node000016"><a xlink:title=" ">
<path fill="none" stroke="#63b8ff" d="M176.22,-75.65C193.36,-64.57 222.38,-46.54 248.75,-33.62 255.75,-30.2 263.38,-26.88 270.79,-23.87"/>
<polygon fill="#63b8ff" stroke="#63b8ff" points="271.97,-27.17 280,-20.25 269.41,-20.65 271.97,-27.17"/>
</a>
</g>
</g>
<!-- Node9 -->
<g id="Node000009" class="node">
<title>Node9</title>
<g id="a_Node000009"><a xlink:href="../../d4/d86/str-stream_8h.html#a0cabc922ee6509017454cd14b7cd9fc5" target="_top" xlink:title=" ">
<polygon fill="white" stroke="#666666" points="504.25,-56.25 408.75,-56.25 408.75,-37 504.25,-37 504.25,-56.25"/>
<text text-anchor="middle" x="456.5" y="-42.75" font-family="Helvetica,sans-Serif" font-size="10.00">__ps_get_ps_upto</text>
</a>
</g>
</g>
<!-- Node8&#45;&gt;Node9 -->
<g id="edge8_Node000008_Node000009" class="edge">
<title>Node8&#45;&gt;Node9</title>
<g id="a_edge8_Node000008_Node000009"><a xlink:title=" ">
<path fill="none" stroke="#63b8ff" d="M348.77,-75.58C366.71,-70.71 388.47,-64.81 407.66,-59.6"/>
<polygon fill="#63b8ff" stroke="#63b8ff" points="408.41,-63.03 417.15,-57.03 406.58,-56.27 408.41,-63.03"/>
</a>
</g>
</g>
<!-- Node12 -->
<g id="Node000012" class="node">
<title>Node12</title>
<g id="a_Node000012"><a xlink:href="../../d4/d86/str-stream_8h.html#ae098817247881bad5d9318d4c6b712cf" target="_top" xlink:title=" ">
<polygon fill="white" stroke="#666666" points="486.62,-130.25 426.38,-130.25 426.38,-111 486.62,-111 486.62,-130.25"/>
<text text-anchor="middle" x="456.5" y="-116.75" font-family="Helvetica,sans-Serif" font-size="10.00">__ps_skip</text>
</a>
</g>
</g>
<!-- Node8&#45;&gt;Node12 -->
<g id="edge11_Node000008_Node000012" class="edge">
<title>Node8&#45;&gt;Node12</title>
<g id="a_edge11_Node000008_Node000012"><a xlink:title=" ">
<path fill="none" stroke="#63b8ff" d="M353.33,-95.75C372.65,-100.45 395.54,-106.03 414.75,-110.7"/>
<polygon fill="#63b8ff" stroke="#63b8ff" points="413.86,-114.09 424.41,-113.05 415.52,-107.29 413.86,-114.09"/>
</a>
</g>
</g>
<!-- Node14 -->
<g id="Node000014" class="node">
<title>Node14</title>
<g id="a_Node000014"><a xlink:href="../../d4/d86/str-stream_8h.html#a792bf8e215595e8fd225339902c447bf" target="_top" xlink:title=" ">
<polygon fill="white" stroke="#666666" points="478.75,-93.25 434.25,-93.25 434.25,-74 478.75,-74 478.75,-93.25"/>
<text text-anchor="middle" x="456.5" y="-79.75" font-family="Helvetica,sans-Serif" font-size="10.00">ps_len</text>
</a>
</g>
</g>
<!-- Node8&#45;&gt;Node14 -->
<g id="edge14_Node000008_Node000014" class="edge">
<title>Node8&#45;&gt;Node14</title>
<g id="a_edge14_Node000008_Node000014"><a xlink:title=" ">
<path fill="none" stroke="#63b8ff" d="M373.13,-84.77C390.06,-84.54 407.79,-84.29 422.44,-84.08"/>
<polygon fill="#63b8ff" stroke="#63b8ff" points="422.47,-87.58 432.42,-83.95 422.38,-80.59 422.47,-87.58"/>
</a>
</g>
</g>
<!-- Node10 -->
<g id="Node000010" class="node">
<title>Node10</title>
<g id="a_Node000010"><a xlink:href="../../d4/d86/str-stream_8h.html#a25629ed82260cb18f7703e4bd8e8c0a4" target="_top" xlink:title=" ">
<polygon fill="white" stroke="#666666" points="608.75,-56.25 540.25,-56.25 540.25,-37 608.75,-37 608.75,-56.25"/>
<text text-anchor="middle" x="574.5" y="-42.75" font-family="Helvetica,sans-Serif" font-size="10.00">ps_contains</text>
</a>
</g>
</g>
<!-- Node9&#45;&gt;Node10 -->
<g id="edge9_Node000009_Node000010" class="edge">
<title>Node9&#45;&gt;Node10</title>
<g id="a_edge9_Node000009_Node000010"><a xlink:title=" ">
<path fill="none" stroke="#63b8ff" d="M504.68,-46.62C512.51,-46.62 520.62,-46.62 528.39,-46.62"/>
<polygon fill="#63b8ff" stroke="#63b8ff" points="528.36,-50.13 538.36,-46.63 528.36,-43.13 528.36,-50.13"/>
</a>
</g>
</g>
<!-- Node11 -->
<g id="Node000011" class="node">
<title>Node11</title>
<g id="a_Node000011"><a xlink:href="../../d4/d86/str-stream_8h.html#a3b4fe44eb26c6eb77b5c58ab8f6a0b46" target="_top" xlink:title=" ">
<polygon fill="white" stroke="#666666" points="602.38,-19.25 546.62,-19.25 546.62,0 602.38,0 602.38,-19.25"/>
<text text-anchor="middle" x="574.5" y="-5.75" font-family="Helvetica,sans-Serif" font-size="10.00">ps_initptr</text>
</a>
</g>
</g>
<!-- Node9&#45;&gt;Node11 -->
<g id="edge10_Node000009_Node000011" class="edge">
<title>Node9&#45;&gt;Node11</title>
<g id="a_edge10_Node000009_Node000011"><a xlink:title=" ">
<path fill="none" stroke="#63b8ff" d="M489.2,-36.51C503.42,-31.98 520.31,-26.59 535.23,-21.83"/>
<polygon fill="#63b8ff" stroke="#63b8ff" points="536.27,-25.17 544.73,-18.8 534.14,-18.51 536.27,-25.17"/>
</a>
</g>
</g>
<!-- Node13 -->
<g id="Node000013" class="node">
<title>Node13</title>
<g id="a_Node000013"><a xlink:href="../../d4/d86/str-stream_8h.html#ab34e4ed4459c611a797df76cab2e8846" target="_top" xlink:title=" ">
<polygon fill="white" stroke="#666666" points="598.25,-130.25 550.75,-130.25 550.75,-111 598.25,-111 598.25,-130.25"/>
<text text-anchor="middle" x="574.5" y="-116.75" font-family="Helvetica,sans-Serif" font-size="10.00">ps_has</text>
</a>
</g>
</g>
<!-- Node12&#45;&gt;Node13 -->
<g id="edge12_Node000012_Node000013" class="edge">
<title>Node12&#45;&gt;Node13</title>
<g id="a_edge12_Node000012_Node000013"><a xlink:title=" ">
<path fill="none" stroke="#63b8ff" d="M487.07,-120.62C502.95,-120.62 522.61,-120.62 539.16,-120.62"/>
<polygon fill="#63b8ff" stroke="#63b8ff" points="539.06,-124.13 549.06,-120.63 539.06,-117.13 539.06,-124.13"/>
</a>
</g>
</g>
<!-- Node13&#45;&gt;Node7 -->
<g id="edge13_Node000013_Node000007" class="edge">
<title>Node13&#45;&gt;Node7</title>
<g id="a_edge13_Node000013_Node000007"><a xlink:title=" ">
<path fill="none" stroke="#63b8ff" d="M598.41,-125.22C608.93,-127.34 621.68,-129.9 633.49,-132.27"/>
<polygon fill="#63b8ff" stroke="#63b8ff" points="632.45,-135.63 642.94,-134.17 633.83,-128.77 632.45,-135.63"/>
</a>
</g>
</g>
<!-- Node15&#45;&gt;Node11 -->
<g id="edge16_Node000015_Node000011" class="edge">
<title>Node15&#45;&gt;Node11</title>
<g id="a_edge16_Node000015_Node000011"><a xlink:title=" ">
<path fill="none" stroke="#63b8ff" d="M479.05,-9.62C494.71,-9.62 516.33,-9.62 534.94,-9.62"/>
<polygon fill="#63b8ff" stroke="#63b8ff" points="534.83,-13.13 544.83,-9.63 534.83,-6.13 534.83,-13.13"/>
</a>
</g>
</g>
<!-- Node16&#45;&gt;Node15 -->
<g id="edge18_Node000016_Node000015" class="edge">
<title>Node16&#45;&gt;Node15</title>
<g id="a_edge18_Node000016_Node000015"><a xlink:title=" ">
<path fill="none" stroke="#63b8ff" d="M340.15,-9.62C363.92,-9.62 397.84,-9.62 422.75,-9.62"/>
<polygon fill="#63b8ff" stroke="#63b8ff" points="422.66,-13.13 432.66,-9.63 422.66,-6.13 422.66,-13.13"/>
</a>
</g>
</g>
</g>
</svg>
