<?xml version="1.0" encoding="UTF-8" standalone="no"?>
<!DOCTYPE svg PUBLIC "-//W3C//DTD SVG 1.1//EN"
 "http://www.w3.org/Graphics/SVG/1.1/DTD/svg11.dtd">
<!-- Generated by graphviz version 9.0.0 (20230911.1827)
 -->
<!-- Title: xmlr_node_is_empty Pages: 1 -->
<!--zoomable 416 -->

<svg id="main" version="1.1" xmlns="http://www.w3.org/2000/svg" xmlns:xlink="http://www.w3.org/1999/xlink" xml:space="preserve" onload="init(evt)">
<style type="text/css"><![CDATA[
.node, .edge {opacity: 0.7;}
.node.selected, .edge.selected {opacity: 1;}
.edge:hover path { stroke: red; }
.edge:hover polygon { stroke: red; fill: red; }
]]></style>

<defs>
  <circle id="rim" cx="0" cy="0" r="7"/>
  <circle id="rim2" cx="0" cy="0" r="3.5"/>
  <g id="zoomPlus">
    <use xlink:href="#rim" fill="#404040"><set attributeName="fill" to="#808080" begin="zoomplus.mouseover" end="zoomplus.mouseout"/></use>
    <path d="M-4,0h8M0,-4v8" fill="none" stroke="white" stroke-width="1.5" pointer-events="none"/>
  </g>
  <g id="zoomMin">
    <use xlink:href="#rim" fill="#404040"><set attributeName="fill" to="#808080" begin="zoomminus.mouseover" end="zoomminus.mouseout"/></use>
    <path d="M-4,0h8" fill="none" stroke="white" stroke-width="1.5" pointer-events="none"/>
  </g>
  <g id="arrowUp" transform="translate(30 24)">
    <use xlink:href="#rim"/>
    <path pointer-events="none" fill="none" stroke="white" stroke-width="1.5" d="M0,-3.0v7 M-2.5,-0.5L0,-3.0L2.5,-0.5"/>
  </g>
  <g id="arrowRight" transform="rotate(90) translate(36 -43)">
    <use xlink:href="#rim"/>
    <path pointer-events="none" fill="none" stroke="white" stroke-width="1.5" d="M0,-3.0v7 M-2.5,-0.5L0,-3.0L2.5,-0.5"/>
  </g>
  <g id="arrowDown" transform="rotate(180) translate(-30 -48)">
    <use xlink:href="#rim"/>
    <path pointer-events="none" fill="none" stroke="white" stroke-width="1.5" d="M0,-3.0v7 M-2.5,-0.5L0,-3.0L2.5,-0.5"/>
  </g>
  <g id="arrowLeft" transform="rotate(270) translate(-36 17)">
    <use xlink:href="#rim"/>
    <path pointer-events="none" fill="none" stroke="white" stroke-width="1.5" d="M0,-3.0v7 M-2.5,-0.5L0,-3.0L2.5,-0.5"/>
  </g>
  <g id="resetDef">
    <use xlink:href="#rim2" fill="#404040"><set attributeName="fill" to="#808080" begin="reset.mouseover" end="reset.mouseout"/></use>
  </g>
</defs>
<script type="application/ecmascript">
var viewWidth = 1782;
var viewHeight = 416;
var sectionId = 'dynsection-55';
</script>
<script type="application/ecmascript" xlink:href="../../svg.min.js"/>
<svg id="graph" class="graph">
<g id="viewport">
<title>xmlr_node_is_empty</title>
<!-- Node1 -->
<g id="Node000001" class="node">
<title>Node1</title>
<g id="a_Node000001"><a xlink:title=" ">
<polygon fill="#999999" stroke="#666666" points="1774,-202.66 1669.5,-202.66 1669.5,-183.41 1774,-183.41 1774,-202.66"/>
<text text-anchor="middle" x="1721.75" y="-189.16" font-family="Helvetica,sans-Serif" font-size="10.00">xmlr_node_is_empty</text>
</a>
</g>
</g>
<!-- Node2 -->
<g id="Node000002" class="node">
<title>Node2</title>
<g id="a_Node000002"><a xlink:href="../../dd/df6/xml-unpack_8c.html#a38ee3269be758ee015828067eb6a351e" target="_top" xlink:title=" ">
<polygon fill="white" stroke="#666666" points="1472.38,-296.66 1421.88,-296.66 1421.88,-277.41 1472.38,-277.41 1472.38,-296.66"/>
<text text-anchor="middle" x="1447.12" y="-283.16" font-family="Helvetica,sans-Serif" font-size="10.00">get_text</text>
</a>
</g>
</g>
<!-- Node1&#45;&gt;Node2 -->
<g id="edge1_Node000001_Node000002" class="edge">
<title>Node1&#45;&gt;Node2</title>
<g id="a_edge1_Node000001_Node000002"><a xlink:title=" ">
<path fill="none" stroke="#63b8ff" d="M1705.56,-211.41C1689.63,-229.24 1662.88,-255.4 1633.5,-268.04 1579.71,-291.17 1509.31,-291.09 1472.68,-289.06"/>
<polygon fill="#63b8ff" stroke="#63b8ff" points="1707.98,-213.96 1711.87,-204.11 1702.68,-209.39 1707.98,-213.96"/>
</a>
</g>
</g>
<!-- Node18 -->
<g id="Node000018" class="node">
<title>Node18</title>
<g id="a_Node000018"><a xlink:href="../../d7/d61/xmlr_8c.html#a2a53633554a053bdbfbe6bbd52fe0191" target="_top" xlink:title=" ">
<polygon fill="white" stroke="#666666" points="1633.5,-258.66 1532.75,-258.66 1532.75,-239.41 1633.5,-239.41 1633.5,-258.66"/>
<text text-anchor="middle" x="1583.12" y="-245.16" font-family="Helvetica,sans-Serif" font-size="10.00">xmlr_get_cstr_done</text>
</a>
</g>
</g>
<!-- Node1&#45;&gt;Node18 -->
<g id="edge23_Node000001_Node000018" class="edge">
<title>Node1&#45;&gt;Node18</title>
<g id="a_edge23_Node000001_Node000018"><a xlink:title=" ">
<path fill="none" stroke="#63b8ff" d="M1688.53,-207.63C1672.15,-214.9 1651.87,-223.69 1633.5,-231.04 1626.81,-233.71 1619.54,-236.45 1612.7,-238.96"/>
<polygon fill="#63b8ff" stroke="#63b8ff" points="1689.59,-210.99 1697.29,-203.71 1686.73,-204.6 1689.59,-210.99"/>
</a>
</g>
</g>
<!-- Node21 -->
<g id="Node000021" class="node">
<title>Node21</title>
<g id="a_Node000021"><a xlink:href="../../d7/d61/xmlr_8c.html#a6359e22211f64ff25992d84067f82318" target="_top" xlink:title=" ">
<polygon fill="white" stroke="#666666" points="1632.75,-221.66 1533.5,-221.66 1533.5,-202.41 1632.75,-202.41 1632.75,-221.66"/>
<text text-anchor="middle" x="1583.12" y="-208.16" font-family="Helvetica,sans-Serif" font-size="10.00">xmlr_get_cstr_start</text>
</a>
</g>
</g>
<!-- Node1&#45;&gt;Node21 -->
<g id="edge29_Node000001_Node000021" class="edge">
<title>Node1&#45;&gt;Node21</title>
<g id="a_edge29_Node000001_Node000021"><a xlink:title=" ">
<path fill="none" stroke="#63b8ff" d="M1657.89,-201.78C1649.58,-202.93 1641.17,-204.1 1633.14,-205.22"/>
<polygon fill="#63b8ff" stroke="#63b8ff" points="1658.18,-205.27 1667.6,-200.43 1657.21,-198.34 1658.18,-205.27"/>
</a>
</g>
</g>
<!-- Node22 -->
<g id="Node000022" class="node">
<title>Node22</title>
<g id="a_Node000022"><a xlink:href="../../d7/d61/xmlr_8c.html#a3bdac31d20258658229897e369d8a6e6" target="_top" xlink:title=" ">
<polygon fill="white" stroke="#666666" points="1350.62,-145.66 1267.88,-145.66 1267.88,-126.41 1350.62,-126.41 1350.62,-145.66"/>
<text text-anchor="middle" x="1309.25" y="-132.16" font-family="Helvetica,sans-Serif" font-size="10.00">xmlr_next_child</text>
</a>
</g>
</g>
<!-- Node1&#45;&gt;Node22 -->
<g id="edge32_Node000001_Node000022" class="edge">
<title>Node1&#45;&gt;Node22</title>
<g id="a_edge32_Node000001_Node000022"><a xlink:title=" ">
<path fill="none" stroke="#63b8ff" d="M1689.77,-178.28C1673.28,-170.75 1652.53,-161.79 1633.5,-155.04 1533.37,-119.52 1503.13,-105.67 1397.5,-117.04 1381.16,-118.79 1363.39,-122.35 1348.18,-125.92"/>
<polygon fill="#63b8ff" stroke="#63b8ff" points="1688.01,-181.32 1698.55,-182.35 1690.95,-174.97 1688.01,-181.32"/>
</a>
</g>
</g>
<!-- Node23 -->
<g id="Node000023" class="node">
<title>Node23</title>
<g id="a_Node000023"><a xlink:href="../../d7/d61/xmlr_8c.html#a3b6f5040e7c9e272c5e499a8fc614d76" target="_top" xlink:title=" ">
<polygon fill="white" stroke="#666666" points="1213.88,-32.66 1126.62,-32.66 1126.62,-13.41 1213.88,-13.41 1213.88,-32.66"/>
<text text-anchor="middle" x="1170.25" y="-19.16" font-family="Helvetica,sans-Serif" font-size="10.00">xmlr_node_enter</text>
</a>
</g>
</g>
<!-- Node1&#45;&gt;Node23 -->
<g id="edge47_Node000001_Node000023" class="edge">
<title>Node1&#45;&gt;Node23</title>
<g id="a_edge47_Node000001_Node000023"><a xlink:title=" ">
<path fill="none" stroke="#63b8ff" d="M1704.7,-174.98C1688.46,-157.89 1661.77,-132.84 1633.5,-119.04 1490.6,-49.29 1298.82,-30.12 1214.31,-24.93"/>
<polygon fill="#63b8ff" stroke="#63b8ff" points="1701.81,-177.02 1711.17,-181.99 1706.95,-172.27 1701.81,-177.02"/>
</a>
</g>
</g>
<!-- Node28 -->
<g id="Node000028" class="node">
<title>Node28</title>
<g id="a_Node000028"><a xlink:href="../../d7/d61/xmlr_8c.html#ab6d0cf9572349d4671f34220a2fd4335" target="_top" xlink:title=" ">
<polygon fill="white" stroke="#666666" points="1627.5,-183.66 1538.75,-183.66 1538.75,-164.41 1627.5,-164.41 1627.5,-183.66"/>
<text text-anchor="middle" x="1583.12" y="-170.16" font-family="Helvetica,sans-Serif" font-size="10.00">xmlr_node_close</text>
</a>
</g>
</g>
<!-- Node1&#45;&gt;Node28 -->
<g id="edge41_Node000001_Node000028" class="edge">
<title>Node1&#45;&gt;Node28</title>
<g id="a_edge41_Node000001_Node000028"><a xlink:title=" ">
<path fill="none" stroke="#63b8ff" d="M1657.78,-184.28C1647.65,-182.87 1637.36,-181.44 1627.82,-180.11"/>
<polygon fill="#63b8ff" stroke="#63b8ff" points="1657.21,-187.73 1667.6,-185.64 1658.18,-180.8 1657.21,-187.73"/>
</a>
</g>
</g>
<!-- Node3 -->
<g id="Node000003" class="node">
<title>Node3</title>
<g id="a_Node000003"><a xlink:href="../../dd/df6/xml-unpack_8c.html#a673dd4593bf62f1bd0094ad31a74e03e" target="_top" xlink:title=" ">
<polygon fill="white" stroke="#666666" points="1349.5,-296.66 1269,-296.66 1269,-277.41 1349.5,-277.41 1349.5,-296.66"/>
<text text-anchor="middle" x="1309.25" y="-283.16" font-family="Helvetica,sans-Serif" font-size="10.00">xunpack_value</text>
</a>
</g>
</g>
<!-- Node2&#45;&gt;Node3 -->
<g id="edge2_Node000002_Node000003" class="edge">
<title>Node2&#45;&gt;Node3</title>
<g id="a_edge2_Node000002_Node000003"><a xlink:title=" ">
<path fill="none" stroke="#63b8ff" d="M1410.01,-287.04C1391.48,-287.04 1368.87,-287.04 1349.86,-287.04"/>
<polygon fill="#63b8ff" stroke="#63b8ff" points="1410.01,-290.54 1420.01,-287.04 1410.01,-283.54 1410.01,-290.54"/>
</a>
</g>
</g>
<!-- Node4 -->
<g id="Node000004" class="node">
<title>Node4</title>
<g id="a_Node000004"><a xlink:href="../../dd/df6/xml-unpack_8c.html#a3ff98cca75a1414f1e3d18e0797babf1" target="_top" xlink:title=" ">
<polygon fill="white" stroke="#666666" points="1080.88,-259.66 988.38,-259.66 988.38,-240.41 1080.88,-240.41 1080.88,-259.66"/>
<text text-anchor="middle" x="1034.62" y="-246.16" font-family="Helvetica,sans-Serif" font-size="10.00">__xunpack_struct</text>
</a>
</g>
</g>
<!-- Node3&#45;&gt;Node4 -->
<g id="edge3_Node000003_Node000004" class="edge">
<title>Node3&#45;&gt;Node4</title>
<g id="a_edge3_Node000003_Node000004"><a xlink:title=" ">
<path fill="none" stroke="#63b8ff" d="M1257.49,-281.47C1219.44,-277.14 1166.14,-270.77 1119.5,-264.04 1107.08,-262.24 1093.66,-260.1 1081.28,-258.03"/>
<polygon fill="#63b8ff" stroke="#63b8ff" points="1256.94,-284.93 1267.27,-282.57 1257.73,-277.97 1256.94,-284.93"/>
</a>
</g>
</g>
<!-- Node16 -->
<g id="Node000016" class="node">
<title>Node16</title>
<g id="a_Node000016"><a xlink:href="../../dd/df6/xml-unpack_8c.html#a015f36d4d6d49cff168de8e9a6803a6f" target="_top" xlink:title=" ">
<polygon fill="white" stroke="#666666" points="1221,-335.66 1119.5,-335.66 1119.5,-316.41 1221,-316.41 1221,-335.66"/>
<text text-anchor="middle" x="1170.25" y="-322.16" font-family="Helvetica,sans-Serif" font-size="10.00">xunpack_block_vec</text>
</a>
</g>
</g>
<!-- Node3&#45;&gt;Node16 -->
<g id="edge18_Node000003_Node000016" class="edge">
<title>Node3&#45;&gt;Node16</title>
<g id="a_edge18_Node000003_Node000016"><a xlink:title=" ">
<path fill="none" stroke="#63b8ff" d="M1262.01,-300.2C1243.85,-305.37 1223.33,-311.21 1206.41,-316.03"/>
<polygon fill="#63b8ff" stroke="#63b8ff" points="1262.85,-303.6 1271.51,-297.49 1260.94,-296.87 1262.85,-303.6"/>
</a>
</g>
</g>
<!-- Node17 -->
<g id="Node000017" class="node">
<title>Node17</title>
<g id="a_Node000017"><a xlink:href="../../dd/df6/xml-unpack_8c.html#aeae567b37b59a952d4aeec6856e419d7" target="_top" xlink:title=" ">
<polygon fill="white" stroke="#666666" points="1210.5,-221.66 1130,-221.66 1130,-202.41 1210.5,-202.41 1210.5,-221.66"/>
<text text-anchor="middle" x="1170.25" y="-208.16" font-family="Helvetica,sans-Serif" font-size="10.00">xunpack_union</text>
</a>
</g>
</g>
<!-- Node3&#45;&gt;Node17 -->
<g id="edge20_Node000003_Node000017" class="edge">
<title>Node3&#45;&gt;Node17</title>
<g id="a_edge20_Node000003_Node000017"><a xlink:title=" ">
<path fill="none" stroke="#63b8ff" d="M1286.54,-272.47C1277.23,-268.7 1266.36,-264.7 1257,-260.04 1234.6,-248.88 1211.05,-232.88 1194.32,-222.14"/>
<polygon fill="#63b8ff" stroke="#63b8ff" points="1284.97,-275.6 1295.54,-276.38 1287.76,-269.18 1284.97,-275.6"/>
</a>
</g>
</g>
<!-- Node5 -->
<g id="Node000005" class="node">
<title>Node5</title>
<g id="a_Node000005"><a xlink:href="../../dd/df6/xml-unpack_8c.html#a6554017ac7458bcba59e9d3a61008b9a" target="_top" xlink:title=" ">
<polygon fill="white" stroke="#666666" points="933.62,-259.66 853.12,-259.66 853.12,-240.41 933.62,-240.41 933.62,-259.66"/>
<text text-anchor="middle" x="893.38" y="-246.16" font-family="Helvetica,sans-Serif" font-size="10.00">xunpack_class</text>
</a>
</g>
</g>
<!-- Node4&#45;&gt;Node5 -->
<g id="edge4_Node000004_Node000005" class="edge">
<title>Node4&#45;&gt;Node5</title>
<g id="a_edge4_Node000004_Node000005"><a xlink:title=" ">
<path fill="none" stroke="#63b8ff" d="M976.73,-250.04C962.38,-250.04 947.28,-250.04 933.99,-250.04"/>
<polygon fill="#63b8ff" stroke="#63b8ff" points="976.52,-253.54 986.52,-250.04 976.52,-246.54 976.52,-253.54"/>
</a>
</g>
</g>
<!-- Node15 -->
<g id="Node000015" class="node">
<title>Node15</title>
<g id="a_Node000015"><a xlink:href="../../dd/df6/xml-unpack_8c.html#ae718721a7f8b3e6ea30d1f22c4b7aa25" target="_top" xlink:title=" ">
<polygon fill="white" stroke="#666666" points="934.38,-296.66 852.38,-296.66 852.38,-277.41 934.38,-277.41 934.38,-296.66"/>
<text text-anchor="middle" x="893.38" y="-283.16" font-family="Helvetica,sans-Serif" font-size="10.00">xunpack_struct</text>
</a>
</g>
</g>
<!-- Node4&#45;&gt;Node15 -->
<g id="edge15_Node000004_Node000015" class="edge">
<title>Node4&#45;&gt;Node15</title>
<g id="a_edge15_Node000004_Node000015"><a xlink:title=" ">
<path fill="none" stroke="#63b8ff" d="M984.62,-263.06C967.47,-267.61 948.49,-272.66 932.38,-276.94"/>
<polygon fill="#63b8ff" stroke="#63b8ff" points="985.35,-266.49 994.11,-260.54 983.55,-259.72 985.35,-266.49"/>
</a>
</g>
</g>
<!-- Node5&#45;&gt;Node3 -->
<g id="edge14_Node000005_Node000003" class="edge">
<title>Node5&#45;&gt;Node3</title>
<g id="a_edge14_Node000005_Node000003"><a xlink:title=" ">
<path fill="none" stroke="#63b8ff" d="M937.95,-263.69C941.96,-265.1 945.94,-266.56 949.75,-268.04 1026.99,-298 1038.53,-327.53 1119.5,-345.04 1163.59,-354.57 1177.82,-358.08 1221,-345.04 1252.17,-335.62 1282.41,-311.02 1297.78,-297.07"/>
<polygon fill="#63b8ff" stroke="#63b8ff" points="939.41,-260.49 928.82,-260.59 937.16,-267.12 939.41,-260.49"/>
</a>
</g>
</g>
<!-- Node6 -->
<g id="Node000006" class="node">
<title>Node6</title>
<g id="a_Node000006"><a xlink:href="../../dd/df6/xml-unpack_8c.html#ab21c2e203381c53df59f25b2554cc68d" target="_top" xlink:title=" ">
<polygon fill="white" stroke="#666666" points="801,-240.66 693.5,-240.66 693.5,-221.41 801,-221.41 801,-240.66"/>
<text text-anchor="middle" x="747.25" y="-227.16" font-family="Helvetica,sans-Serif" font-size="10.00">__iop_xunpack_parts</text>
</a>
</g>
</g>
<!-- Node5&#45;&gt;Node6 -->
<g id="edge5_Node000005_Node000006" class="edge">
<title>Node5&#45;&gt;Node6</title>
<g id="a_edge5_Node000005_Node000006"><a xlink:title=" ">
<path fill="none" stroke="#63b8ff" d="M841.81,-243.37C828.72,-241.64 814.58,-239.78 801.37,-238.04"/>
<polygon fill="#63b8ff" stroke="#63b8ff" points="841.12,-246.81 851.49,-244.65 842.03,-239.87 841.12,-246.81"/>
</a>
</g>
</g>
<!-- Node7 -->
<g id="Node000007" class="node">
<title>Node7</title>
<g id="a_Node000007"><a xlink:href="../../dd/df6/xml-unpack_8c.html#a6f1a81d26eab76ee15065d8df1c07903" target="_top" xlink:title=" ">
<polygon fill="white" stroke="#666666" points="648.5,-203.66 553,-203.66 553,-184.41 648.5,-184.41 648.5,-203.66"/>
<text text-anchor="middle" x="600.75" y="-190.16" font-family="Helvetica,sans-Serif" font-size="10.00">iop_xunpack_flags</text>
</a>
</g>
</g>
<!-- Node6&#45;&gt;Node7 -->
<g id="edge6_Node000006_Node000007" class="edge">
<title>Node6&#45;&gt;Node7</title>
<g id="a_edge6_Node000006_Node000007"><a xlink:title=" ">
<path fill="none" stroke="#63b8ff" d="M695.65,-218.08C677.79,-213.51 657.99,-208.44 641.19,-204.13"/>
<polygon fill="#63b8ff" stroke="#63b8ff" points="694.74,-221.46 705.3,-220.55 696.48,-214.68 694.74,-221.46"/>
</a>
</g>
</g>
<!-- Node8 -->
<g id="Node000008" class="node">
<title>Node8</title>
<g id="a_Node000008"><a xlink:href="../../dd/df6/xml-unpack_8c.html#a3173252ac387fded98290c1c5456b6b8" target="_top" xlink:title=" ">
<polygon fill="white" stroke="#666666" points="649.25,-166.66 552.25,-166.66 552.25,-147.41 649.25,-147.41 649.25,-166.66"/>
<text text-anchor="middle" x="600.75" y="-153.16" font-family="Helvetica,sans-Serif" font-size="10.00">iop_xunpack_parts</text>
</a>
</g>
</g>
<!-- Node6&#45;&gt;Node8 -->
<g id="edge7_Node000006_Node000008" class="edge">
<title>Node6&#45;&gt;Node8</title>
<g id="a_edge7_Node000006_Node000008"><a xlink:title=" ">
<path fill="none" stroke="#63b8ff" d="M723.41,-214.38C706.01,-202.24 681.09,-186.07 657.5,-175.04 651.24,-172.11 644.37,-169.46 637.65,-167.16"/>
<polygon fill="#63b8ff" stroke="#63b8ff" points="721.31,-217.18 731.49,-220.11 725.36,-211.47 721.31,-217.18"/>
</a>
</g>
</g>
<!-- Node9 -->
<g id="Node000009" class="node">
<title>Node9</title>
<g id="a_Node000009"><a xlink:href="../../dd/df6/xml-unpack_8c.html#a07d2db648550564a80900b1bea4ba772" target="_top" xlink:title=" ">
<polygon fill="white" stroke="#666666" points="656.75,-277.66 544.75,-277.66 544.75,-258.41 656.75,-258.41 656.75,-277.66"/>
<text text-anchor="middle" x="600.75" y="-264.16" font-family="Helvetica,sans-Serif" font-size="10.00">iop_xunpack_ptr_flags</text>
</a>
</g>
</g>
<!-- Node6&#45;&gt;Node9 -->
<g id="edge8_Node000006_Node000009" class="edge">
<title>Node6&#45;&gt;Node9</title>
<g id="a_edge8_Node000006_Node000009"><a xlink:title=" ">
<path fill="none" stroke="#63b8ff" d="M695.65,-243.99C677.79,-248.57 657.99,-253.64 641.19,-257.94"/>
<polygon fill="#63b8ff" stroke="#63b8ff" points="696.48,-247.39 705.3,-241.52 694.74,-240.61 696.48,-247.39"/>
</a>
</g>
</g>
<!-- Node14 -->
<g id="Node000014" class="node">
<title>Node14</title>
<g id="a_Node000014"><a xlink:href="../../dd/df6/xml-unpack_8c.html#a200155ac7f332e212ca188814465ea21" target="_top" xlink:title=" ">
<polygon fill="white" stroke="#666666" points="657.5,-240.66 544,-240.66 544,-221.41 657.5,-221.41 657.5,-240.66"/>
<text text-anchor="middle" x="600.75" y="-227.16" font-family="Helvetica,sans-Serif" font-size="10.00">iop_xunpack_ptr_parts</text>
</a>
</g>
</g>
<!-- Node6&#45;&gt;Node14 -->
<g id="edge13_Node000006_Node000014" class="edge">
<title>Node6&#45;&gt;Node14</title>
<g id="a_edge13_Node000006_Node000014"><a xlink:title=" ">
<path fill="none" stroke="#63b8ff" d="M681.94,-231.04C673.84,-231.04 665.6,-231.04 657.64,-231.04"/>
<polygon fill="#63b8ff" stroke="#63b8ff" points="681.75,-234.54 691.75,-231.04 681.75,-227.54 681.75,-234.54"/>
</a>
</g>
</g>
<!-- Node10 -->
<g id="Node000010" class="node">
<title>Node10</title>
<g id="a_Node000010"><a xlink:href="../../dd/de9/rpc-http-server_8c.html#a2b21eb7b51309291cf8be943414fd476" target="_top" xlink:title=" ">
<polygon fill="white" stroke="#666666" points="508,-107.66 433.5,-107.66 433.5,-88.41 508,-88.41 508,-107.66"/>
<text text-anchor="middle" x="470.75" y="-94.16" font-family="Helvetica,sans-Serif" font-size="10.00">t_parse_soap</text>
</a>
</g>
</g>
<!-- Node9&#45;&gt;Node10 -->
<g id="edge9_Node000009_Node000010" class="edge">
<title>Node9&#45;&gt;Node10</title>
<g id="a_edge9_Node000009_Node000010"><a xlink:title=" ">
<path fill="none" stroke="#63b8ff" d="M546.44,-252.03C545.6,-251.39 544.79,-250.73 544,-250.04 498.3,-209.98 479.17,-134.67 473.6,-107.84"/>
<polygon fill="#63b8ff" stroke="#63b8ff" points="544.48,-254.93 554.84,-257.15 548.12,-248.96 544.48,-254.93"/>
</a>
</g>
</g>
<!-- Node11 -->
<g id="Node000011" class="node">
<title>Node11</title>
<g id="a_Node000011"><a xlink:href="../../dd/de9/rpc-http-server_8c.html#a7aa35bd836933f462594989148ab5fd5" target="_top" xlink:title=" ">
<polygon fill="white" stroke="#666666" points="397.5,-107.66 287,-107.66 287,-88.41 397.5,-88.41 397.5,-107.66"/>
<text text-anchor="middle" x="342.25" y="-94.16" font-family="Helvetica,sans-Serif" font-size="10.00">ichttp_query_on_done</text>
</a>
</g>
</g>
<!-- Node10&#45;&gt;Node11 -->
<g id="edge10_Node000010_Node000011" class="edge">
<title>Node10&#45;&gt;Node11</title>
<g id="a_edge10_Node000010_Node000011"><a xlink:title=" ">
<path fill="none" stroke="#63b8ff" d="M421.87,-98.04C413.96,-98.04 405.7,-98.04 397.64,-98.04"/>
<polygon fill="#63b8ff" stroke="#63b8ff" points="421.65,-101.54 431.65,-98.04 421.65,-94.54 421.65,-101.54"/>
</a>
</g>
</g>
<!-- Node12 -->
<g id="Node000012" class="node">
<title>Node12</title>
<g id="a_Node000012"><a xlink:href="../../dd/de9/rpc-http-server_8c.html#a99f4d0b0719988496aa4496ad91d0b82" target="_top" xlink:title=" ">
<polygon fill="white" stroke="#666666" points="251,-107.66 147.25,-107.66 147.25,-88.41 251,-88.41 251,-107.66"/>
<text text-anchor="middle" x="199.12" y="-94.16" font-family="Helvetica,sans-Serif" font-size="10.00">httpd_trigger__ic_cb</text>
</a>
</g>
</g>
<!-- Node11&#45;&gt;Node12 -->
<g id="edge11_Node000011_Node000012" class="edge">
<title>Node11&#45;&gt;Node12</title>
<g id="a_edge11_Node000011_Node000012"><a xlink:title=" ">
<path fill="none" stroke="#63b8ff" d="M275.36,-98.04C267.28,-98.04 259.12,-98.04 251.3,-98.04"/>
<polygon fill="#63b8ff" stroke="#63b8ff" points="275.17,-101.54 285.17,-98.04 275.17,-94.54 275.17,-101.54"/>
</a>
</g>
</g>
<!-- Node13 -->
<g id="Node000013" class="node">
<title>Node13</title>
<g id="a_Node000013"><a xlink:href="../../dd/de9/rpc-http-server_8c.html#a30f581d1d1e0c0a8ff0bd69f9b6316b9" target="_top" xlink:title=" ">
<polygon fill="white" stroke="#666666" points="111.25,-107.66 0,-107.66 0,-88.41 111.25,-88.41 111.25,-107.66"/>
<text text-anchor="middle" x="55.62" y="-94.16" font-family="Helvetica,sans-Serif" font-size="10.00">httpd_trigger__ic_new</text>
</a>
</g>
</g>
<!-- Node12&#45;&gt;Node13 -->
<g id="edge12_Node000012_Node000013" class="edge">
<title>Node12&#45;&gt;Node13</title>
<g id="a_edge12_Node000012_Node000013"><a xlink:title=" ">
<path fill="none" stroke="#63b8ff" d="M135.75,-98.04C127.65,-98.04 119.42,-98.04 111.46,-98.04"/>
<polygon fill="#63b8ff" stroke="#63b8ff" points="135.53,-101.54 145.53,-98.04 135.53,-94.54 135.53,-101.54"/>
</a>
</g>
</g>
<!-- Node15&#45;&gt;Node3 -->
<g id="edge17_Node000015_Node000003" class="edge">
<title>Node15&#45;&gt;Node3</title>
<g id="a_edge17_Node000015_Node000003"><a xlink:title=" ">
<path fill="none" stroke="#63b8ff" d="M906.69,-306.34C922.09,-328.48 950.74,-363.58 985.75,-378.04 1082.39,-417.95 1124.83,-419.06 1221,-378.04 1260.46,-361.2 1290.64,-316.8 1302.62,-296.92"/>
<polygon fill="#63b8ff" stroke="#63b8ff" points="909.71,-304.55 901.24,-298.19 903.89,-308.45 909.71,-304.55"/>
</a>
</g>
</g>
<!-- Node15&#45;&gt;Node6 -->
<g id="edge16_Node000015_Node000006" class="edge">
<title>Node15&#45;&gt;Node6</title>
<g id="a_edge16_Node000015_Node000006"><a xlink:title=" ">
<path fill="none" stroke="#63b8ff" d="M848.99,-273.35C844.92,-271.94 840.87,-270.49 837,-269.04 813.94,-260.37 788.1,-249.13 770.27,-241.12"/>
<polygon fill="#63b8ff" stroke="#63b8ff" points="847.67,-276.6 858.27,-276.47 849.91,-269.97 847.67,-276.6"/>
</a>
</g>
</g>
<!-- Node16&#45;&gt;Node4 -->
<g id="edge19_Node000016_Node000004" class="edge">
<title>Node16&#45;&gt;Node4</title>
<g id="a_edge19_Node000016_Node000004"><a xlink:title=" ">
<path fill="none" stroke="#63b8ff" d="M1136.95,-311.07C1131.09,-308.18 1125.07,-305.09 1119.5,-302.04 1094.87,-288.51 1067.38,-270.97 1050.79,-260.12"/>
<polygon fill="#63b8ff" stroke="#63b8ff" points="1135.31,-314.16 1145.84,-315.36 1138.35,-307.86 1135.31,-314.16"/>
</a>
</g>
</g>
<!-- Node17&#45;&gt;Node3 -->
<g id="edge22_Node000017_Node000003" class="edge">
<title>Node17&#45;&gt;Node3</title>
<g id="a_edge22_Node000017_Node000003"><a xlink:title=" ">
<path fill="none" stroke="#63b8ff" d="M1185.43,-229.57C1201.91,-244.51 1230.27,-264.72 1257,-278.04 1260.71,-279.89 1264.67,-281.63 1268.66,-283.21"/>
<polygon fill="#63b8ff" stroke="#63b8ff" points="1188.26,-227.44 1178.66,-222.95 1183.36,-232.45 1188.26,-227.44"/>
</a>
</g>
</g>
<!-- Node17&#45;&gt;Node6 -->
<g id="edge21_Node000017_Node000006" class="edge">
<title>Node17&#45;&gt;Node6</title>
<g id="a_edge21_Node000017_Node000006"><a xlink:title=" ">
<path fill="none" stroke="#63b8ff" d="M1118.37,-214.33C1038.17,-217.95 883.1,-224.95 801.47,-228.63"/>
<polygon fill="#63b8ff" stroke="#63b8ff" points="1118.3,-217.84 1128.13,-213.89 1117.98,-210.85 1118.3,-217.84"/>
</a>
</g>
</g>
<!-- Node18&#45;&gt;Node2 -->
<g id="edge28_Node000018_Node000002" class="edge">
<title>Node18&#45;&gt;Node2</title>
<g id="a_edge28_Node000018_Node000002"><a xlink:title=" ">
<path fill="none" stroke="#63b8ff" d="M1535.54,-262.25C1514.44,-268.23 1490.36,-275.06 1472.82,-280.03"/>
<polygon fill="#63b8ff" stroke="#63b8ff" points="1536.45,-265.63 1545.11,-259.53 1534.54,-258.89 1536.45,-265.63"/>
</a>
</g>
</g>
<!-- Node19 -->
<g id="Node000019" class="node">
<title>Node19</title>
<g id="a_Node000019"><a xlink:href="../../dd/df6/xml-unpack_8c.html#a9333687fe47dcf5f5451976ad5689702" target="_top" xlink:title=" ">
<polygon fill="white" stroke="#666666" points="1490.75,-259.66 1403.5,-259.66 1403.5,-240.41 1490.75,-240.41 1490.75,-259.66"/>
<text text-anchor="middle" x="1447.12" y="-246.16" font-family="Helvetica,sans-Serif" font-size="10.00">get_enum_value</text>
</a>
</g>
</g>
<!-- Node18&#45;&gt;Node19 -->
<g id="edge24_Node000018_Node000019" class="edge">
<title>Node18&#45;&gt;Node19</title>
<g id="a_edge24_Node000018_Node000019"><a xlink:title=" ">
<path fill="none" stroke="#63b8ff" d="M1521.17,-249.49C1510.92,-249.57 1500.49,-249.65 1490.83,-249.72"/>
<polygon fill="#63b8ff" stroke="#63b8ff" points="1521.12,-252.99 1531.1,-249.42 1521.07,-245.99 1521.12,-252.99"/>
</a>
</g>
</g>
<!-- Node19&#45;&gt;Node3 -->
<g id="edge27_Node000019_Node000003" class="edge">
<title>Node19&#45;&gt;Node3</title>
<g id="a_edge27_Node000019_Node000003"><a xlink:title=" ">
<path fill="none" stroke="#63b8ff" d="M1398.31,-263.06C1381.58,-267.61 1363.06,-272.66 1347.33,-276.94"/>
<polygon fill="#63b8ff" stroke="#63b8ff" points="1398.81,-266.55 1407.54,-260.54 1396.97,-259.79 1398.81,-266.55"/>
</a>
</g>
</g>
<!-- Node20 -->
<g id="Node000020" class="node">
<title>Node20</title>
<g id="a_Node000020"><a xlink:href="../../dd/df6/xml-unpack_8c.html#af710b7a316428710f93e75d74580d975" target="_top" xlink:title=" ">
<polygon fill="white" stroke="#666666" points="1361.5,-259.66 1257,-259.66 1257,-240.41 1361.5,-240.41 1361.5,-259.66"/>
<text text-anchor="middle" x="1309.25" y="-246.16" font-family="Helvetica,sans-Serif" font-size="10.00">xunpack_scalar_vec</text>
</a>
</g>
</g>
<!-- Node19&#45;&gt;Node20 -->
<g id="edge25_Node000019_Node000020" class="edge">
<title>Node19&#45;&gt;Node20</title>
<g id="a_edge25_Node000019_Node000020"><a xlink:title=" ">
<path fill="none" stroke="#63b8ff" d="M1391.69,-250.04C1381.73,-250.04 1371.38,-250.04 1361.52,-250.04"/>
<polygon fill="#63b8ff" stroke="#63b8ff" points="1391.62,-253.54 1401.62,-250.04 1391.62,-246.54 1391.62,-253.54"/>
</a>
</g>
</g>
<!-- Node20&#45;&gt;Node4 -->
<g id="edge26_Node000020_Node000004" class="edge">
<title>Node20&#45;&gt;Node4</title>
<g id="a_edge26_Node000020_Node000004"><a xlink:title=" ">
<path fill="none" stroke="#63b8ff" d="M1245.29,-250.04C1195.11,-250.04 1126.05,-250.04 1081.13,-250.04"/>
<polygon fill="#63b8ff" stroke="#63b8ff" points="1245.14,-253.54 1255.14,-250.04 1245.14,-246.54 1245.14,-253.54"/>
</a>
</g>
</g>
<!-- Node21&#45;&gt;Node2 -->
<g id="edge31_Node000021_Node000002" class="edge">
<title>Node21&#45;&gt;Node2</title>
<g id="a_edge31_Node000021_Node000002"><a xlink:title=" ">
<path fill="none" stroke="#63b8ff" d="M1537.72,-227.01C1536.01,-227.97 1534.34,-228.98 1532.75,-230.04 1513.12,-243.11 1516.35,-255.91 1496.75,-269.04 1489.42,-273.94 1480.58,-277.73 1472.45,-280.54"/>
<polygon fill="#63b8ff" stroke="#63b8ff" points="1539.05,-230.26 1546.53,-222.75 1536,-223.95 1539.05,-230.26"/>
</a>
</g>
</g>
<!-- Node21&#45;&gt;Node19 -->
<g id="edge30_Node000021_Node000019" class="edge">
<title>Node21&#45;&gt;Node19</title>
<g id="a_edge30_Node000021_Node000019"><a xlink:title=" ">
<path fill="none" stroke="#63b8ff" d="M1535.64,-225.22C1518.5,-230.08 1499.37,-235.5 1483.38,-240.04"/>
<polygon fill="#63b8ff" stroke="#63b8ff" points="1536.45,-228.63 1545.11,-222.53 1534.54,-221.89 1536.45,-228.63"/>
</a>
</g>
</g>
<!-- Node22&#45;&gt;Node4 -->
<g id="edge33_Node000022_Node000004" class="edge">
<title>Node22&#45;&gt;Node4</title>
<g id="a_edge33_Node000022_Node000004"><a xlink:title=" ">
<path fill="none" stroke="#63b8ff" d="M1256.12,-133.34C1216.57,-133.43 1161.95,-138.28 1119.5,-160.04 1082.62,-178.93 1053.47,-220.87 1041.51,-240.08"/>
<polygon fill="#63b8ff" stroke="#63b8ff" points="1256.08,-136.84 1266.11,-133.43 1256.14,-129.84 1256.08,-136.84"/>
</a>
</g>
</g>
<!-- Node22&#45;&gt;Node17 -->
<g id="edge40_Node000022_Node000017" class="edge">
<title>Node22&#45;&gt;Node17</title>
<g id="a_edge40_Node000022_Node000017"><a xlink:title=" ">
<path fill="none" stroke="#63b8ff" d="M1280.32,-151.53C1253.01,-166.68 1212.27,-189.28 1189.08,-202.14"/>
<polygon fill="#63b8ff" stroke="#63b8ff" points="1281.69,-154.77 1288.73,-146.86 1278.29,-148.65 1281.69,-154.77"/>
</a>
</g>
</g>
<!-- Node22&#45;&gt;Node23 -->
<g id="edge34_Node000022_Node000023" class="edge">
<title>Node22&#45;&gt;Node23</title>
<g id="a_edge34_Node000022_Node000023"><a xlink:title=" ">
<path fill="none" stroke="#63b8ff" d="M1287.52,-118.94C1258.45,-94.96 1206.52,-52.13 1183.18,-32.88"/>
<polygon fill="#63b8ff" stroke="#63b8ff" points="1284.98,-121.38 1294.92,-125.05 1289.44,-115.98 1284.98,-121.38"/>
</a>
</g>
</g>
<!-- Node24 -->
<g id="Node000024" class="node">
<title>Node24</title>
<g id="a_Node000024"><a xlink:href="../../d5/de6/xmlr_8h.html#a3249a8e0aeb2fb46c1a6c79a2c8fbf77" target="_top" xlink:title=" ">
<polygon fill="white" stroke="#666666" points="1083.5,-32.66 985.75,-32.66 985.75,-13.41 1083.5,-13.41 1083.5,-32.66"/>
<text text-anchor="middle" x="1034.62" y="-19.16" font-family="Helvetica,sans-Serif" font-size="10.00">xmlr_node_enter_s</text>
</a>
</g>
</g>
<!-- Node23&#45;&gt;Node24 -->
<g id="edge35_Node000023_Node000024" class="edge">
<title>Node23&#45;&gt;Node24</title>
<g id="a_edge35_Node000023_Node000024"><a xlink:title=" ">
<path fill="none" stroke="#63b8ff" d="M1114.81,-23.04C1104.49,-23.04 1093.76,-23.04 1083.66,-23.04"/>
<polygon fill="#63b8ff" stroke="#63b8ff" points="1114.72,-26.54 1124.72,-23.04 1114.72,-19.54 1114.72,-26.54"/>
</a>
</g>
</g>
<!-- Node25 -->
<g id="Node000025" class="node">
<title>Node25</title>
<g id="a_Node000025"><a xlink:href="../../d5/de6/xmlr_8h.html#a9c17fd4404ec4aa9ec3ec71a8534bca7" target="_top" xlink:title=" ">
<polygon fill="white" stroke="#666666" points="795.75,-31.66 698.75,-31.66 698.75,-12.41 795.75,-12.41 795.75,-31.66"/>
<text text-anchor="middle" x="747.25" y="-18.16" font-family="Helvetica,sans-Serif" font-size="10.00">xmlr_node_open_s</text>
</a>
</g>
</g>
<!-- Node24&#45;&gt;Node25 -->
<g id="edge36_Node000024_Node000025" class="edge">
<title>Node24&#45;&gt;Node25</title>
<g id="a_edge36_Node000024_Node000025"><a xlink:title=" ">
<path fill="none" stroke="#63b8ff" d="M986.18,-10.36C974.37,-7.74 961.67,-5.37 949.75,-4.04 899.95,1.53 886.86,0.97 837,-4.04 821.2,-5.62 804.05,-8.76 789.08,-11.98"/>
<polygon fill="#63b8ff" stroke="#63b8ff" points="985.17,-13.72 995.71,-12.58 986.76,-6.9 985.17,-13.72"/>
</a>
</g>
</g>
<!-- Node26 -->
<g id="Node000026" class="node">
<title>Node26</title>
<g id="a_Node000026"><a xlink:href="../../d5/de6/xmlr_8h.html#a28ba0bdb410764100feb7df216e61e0f" target="_top" xlink:title=" ">
<polygon fill="white" stroke="#666666" points="940.38,-69.66 846.38,-69.66 846.38,-50.41 940.38,-50.41 940.38,-69.66"/>
<text text-anchor="middle" x="893.38" y="-56.16" font-family="Helvetica,sans-Serif" font-size="10.00">xmlr_node_skip_s</text>
</a>
</g>
</g>
<!-- Node24&#45;&gt;Node26 -->
<g id="edge38_Node000024_Node000026" class="edge">
<title>Node24&#45;&gt;Node26</title>
<g id="a_edge38_Node000024_Node000026"><a xlink:title=" ">
<path fill="none" stroke="#63b8ff" d="M984.62,-36.06C967.47,-40.61 948.49,-45.66 932.38,-49.94"/>
<polygon fill="#63b8ff" stroke="#63b8ff" points="985.35,-39.49 994.11,-33.54 983.55,-32.72 985.35,-39.49"/>
</a>
</g>
</g>
<!-- Node27 -->
<g id="Node000027" class="node">
<title>Node27</title>
<g id="a_Node000027"><a xlink:href="../../d5/de6/xmlr_8h.html#a39dd1207d6764edfdfac42fc989b5dc9" target="_top" xlink:title=" ">
<polygon fill="white" stroke="#666666" points="949.75,-32.66 837,-32.66 837,-13.41 949.75,-13.41 949.75,-32.66"/>
<text text-anchor="middle" x="893.38" y="-19.16" font-family="Helvetica,sans-Serif" font-size="10.00">xmlr_node_try_open_s</text>
</a>
</g>
</g>
<!-- Node24&#45;&gt;Node27 -->
<g id="edge39_Node000024_Node000027" class="edge">
<title>Node24&#45;&gt;Node27</title>
<g id="a_edge39_Node000024_Node000027"><a xlink:title=" ">
<path fill="none" stroke="#63b8ff" d="M973.96,-23.04C966.09,-23.04 958.05,-23.04 950.25,-23.04"/>
<polygon fill="#63b8ff" stroke="#63b8ff" points="973.8,-26.54 983.8,-23.04 973.8,-19.54 973.8,-26.54"/>
</a>
</g>
</g>
<!-- Node25&#45;&gt;Node10 -->
<g id="edge37_Node000025_Node000010" class="edge">
<title>Node25&#45;&gt;Node10</title>
<g id="a_edge37_Node000025_Node000010"><a xlink:title=" ">
<path fill="none" stroke="#63b8ff" d="M698.75,-35.19C644.5,-50.21 556.92,-74.46 507.92,-88.02"/>
<polygon fill="#63b8ff" stroke="#63b8ff" points="699.64,-38.57 708.34,-32.53 697.77,-31.83 699.64,-38.57"/>
</a>
</g>
</g>
<!-- Node28&#45;&gt;Node2 -->
<g id="edge43_Node000028_Node000002" class="edge">
<title>Node28&#45;&gt;Node2</title>
<g id="a_edge43_Node000028_Node000002"><a xlink:title=" ">
<path fill="none" stroke="#63b8ff" d="M1536.62,-189.83C1535.27,-190.84 1533.97,-191.9 1532.75,-193.04 1505.35,-218.46 1524.31,-243.79 1496.75,-269.04 1490.05,-275.18 1481.06,-279.27 1472.64,-281.98"/>
<polygon fill="#63b8ff" stroke="#63b8ff" points="1538.16,-192.99 1544.92,-184.83 1534.55,-186.99 1538.16,-192.99"/>
</a>
</g>
</g>
<!-- Node28&#45;&gt;Node4 -->
<g id="edge42_Node000028_Node000004" class="edge">
<title>Node28&#45;&gt;Node4</title>
<g id="a_edge42_Node000028_Node000004"><a xlink:title=" ">
<path fill="none" stroke="#63b8ff" d="M1526.93,-166.77C1438.4,-157.18 1260.3,-146.54 1119.5,-193.04 1089.74,-202.86 1060.82,-226.58 1045.95,-240.12"/>
<polygon fill="#63b8ff" stroke="#63b8ff" points="1526.47,-170.24 1536.8,-167.88 1527.25,-163.28 1526.47,-170.24"/>
</a>
</g>
</g>
<!-- Node28&#45;&gt;Node10 -->
<g id="edge44_Node000028_Node000010" class="edge">
<title>Node28&#45;&gt;Node10</title>
<g id="a_edge44_Node000028_Node000010"><a xlink:title=" ">
<path fill="none" stroke="#63b8ff" d="M1562.32,-156.69C1545.94,-143.41 1521.42,-125.91 1496.75,-117.04 1418.34,-88.85 1393.57,-98.04 1310.25,-98.04 1310.25,-98.04 1310.25,-98.04 746.25,-98.04 660.95,-98.04 560.73,-98.04 508.16,-98.04"/>
<polygon fill="#63b8ff" stroke="#63b8ff" points="1559.89,-159.22 1569.81,-162.95 1564.39,-153.85 1559.89,-159.22"/>
</a>
</g>
</g>
<!-- Node28&#45;&gt;Node17 -->
<g id="edge46_Node000028_Node000017" class="edge">
<title>Node28&#45;&gt;Node17</title>
<g id="a_edge46_Node000028_Node000017"><a xlink:title=" ">
<path fill="none" stroke="#63b8ff" d="M1527.17,-183.79C1517.07,-185.37 1506.61,-186.87 1496.75,-188.04 1394.06,-200.22 1272.36,-207.23 1210.94,-210.25"/>
<polygon fill="#63b8ff" stroke="#63b8ff" points="1527.55,-187.27 1536.87,-182.22 1526.44,-180.36 1527.55,-187.27"/>
</a>
</g>
</g>
<!-- Node29 -->
<g id="Node000029" class="node">
<title>Node29</title>
<g id="a_Node000029"><a xlink:href="../../d5/de6/xmlr_8h.html#a7abcb25400981e0f3404a819d58dcce6" target="_top" xlink:title=" ">
<polygon fill="white" stroke="#666666" points="1496.75,-145.66 1397.5,-145.66 1397.5,-126.41 1496.75,-126.41 1496.75,-145.66"/>
<text text-anchor="middle" x="1447.12" y="-132.16" font-family="Helvetica,sans-Serif" font-size="10.00">xmlr_node_close_n</text>
</a>
</g>
</g>
<!-- Node28&#45;&gt;Node29 -->
<g id="edge45_Node000028_Node000029" class="edge">
<title>Node28&#45;&gt;Node29</title>
<g id="a_edge45_Node000028_Node000029"><a xlink:title=" ">
<path fill="none" stroke="#63b8ff" d="M1535.64,-160.85C1518.5,-155.99 1499.37,-150.57 1483.38,-146.04"/>
<polygon fill="#63b8ff" stroke="#63b8ff" points="1534.54,-164.18 1545.11,-163.54 1536.45,-157.44 1534.54,-164.18"/>
</a>
</g>
</g>
</g>
</svg>

<g id="navigator" transform="translate(0 0)" fill="#404254">
  <rect fill="#f2f5e9" fill-opacity="0.5" stroke="#606060" stroke-width=".5" x="0" y="0" width="60" height="60"/>
  <use id="zoomplus" xlink:href="#zoomPlus" x="17" y="9" onmousedown="handleZoom(evt,'in')"/>
  <use id="zoomminus" xlink:href="#zoomMin" x="42" y="9" onmousedown="handleZoom(evt,'out')"/>
  <use id="reset" xlink:href="#resetDef" x="30" y="36" onmousedown="handleReset()"/>
   <use id="arrowup" xlink:href="#arrowUp" x="0" y="0" onmousedown="handlePan(0,-1)"/>
  <use id="arrowright" xlink:href="#arrowRight" x="0" y="0" onmousedown="handlePan(1,0)"/>
  <use id="arrowdown" xlink:href="#arrowDown" x="0" y="0" onmousedown="handlePan(0,1)"/>
  <use id="arrowleft" xlink:href="#arrowLeft" x="0" y="0" onmousedown="handlePan(-1,0)"/>
</g>
<svg viewBox="0 0 15 15" width="100%" height="30px" preserveAspectRatio="xMaxYMin meet">
 <g id="arrow_out" transform="scale(0.3 0.3)">
  <a xlink:href="xmlr_8h_a599a8836ea02169ee8756c42245ae4a0_icgraph_org.svg" target="_base">
   <rect id="button" ry="5" rx="5" y="6" x="6" height="38" width="38"
        fill="#f2f5e9" fill-opacity="0.5" stroke="#606060" stroke-width="1.0"/>
   <path id="arrow"
     d="M 11.500037,31.436501 C 11.940474,20.09759 22.043105,11.32322 32.158766,21.979434 L 37.068811,17.246167 C 37.068811,17.246167 37.088388,32 37.088388,32 L 22.160133,31.978069 C 22.160133,31.978069 26.997745,27.140456 26.997745,27.140456 C 18.528582,18.264221 13.291696,25.230495 11.500037,31.436501 z"
     style="fill:#404040;"/>
  </a>
 </g>
</svg>

<style type='text/css'>
<![CDATA[
[data-mouse-over-selected='false'] { opacity: 0.7; }
[data-mouse-over-selected='true']  { opacity: 1.0; }
]]>
</style>
<script type="application/ecmascript"><![CDATA[
document.addEventListener('DOMContentLoaded', (event) => {
  highlightEdges();
  highlightAdjacentNodes();
});
]]></script>
</svg>
