<?xml version="1.0" encoding="UTF-8" standalone="no"?>
<!DOCTYPE svg PUBLIC "-//W3C//DTD SVG 1.1//EN"
 "http://www.w3.org/Graphics/SVG/1.1/DTD/svg11.dtd">
<!-- Generated by graphviz version 9.0.0 (20230911.1827)
 -->
<!-- Title: iop_static_field_t Pages: 1 -->
<svg width="267pt" height="845pt"
 viewBox="0.00 0.00 267.00 845.25" xmlns="http://www.w3.org/2000/svg" xmlns:xlink="http://www.w3.org/1999/xlink">
<g id="graph0" class="graph" transform="scale(1 1) rotate(0) translate(4 841.25)">
<title>iop_static_field_t</title>
<!-- Node1 -->
<g id="Node000001" class="node">
<title>Node1</title>
<g id="a_Node000001"><a xlink:title=" ">
<polygon fill="#999999" stroke="none" points="134,-49 52,-49 52,0 134,0 134,-49"/>
<text text-anchor="start" x="56.62" y="-35.5" font-family="Helvetica,sans-Serif" font-size="10.00">iop_static_field_t</text>
<text text-anchor="start" x="58.5" y="-20.5" font-family="Helvetica,sans-Serif" font-size="10.00">+</text>
<text text-anchor="start" x="71" y="-20.5" font-family="Helvetica,sans-Serif" font-size="10.00">uint16_t type</text>
<text text-anchor="start" x="91.5" y="-5.5" font-family="Helvetica,sans-Serif" font-size="10.00"> </text>
<polygon fill="#666666" stroke="#666666" points="52,-32 52,-32 134,-32 134,-32 52,-32"/>
<polygon fill="#666666" stroke="#666666" points="52,-17 52,-17 69,-17 69,-17 52,-17"/>
<polygon fill="#666666" stroke="#666666" points="69,-17 69,-17 134,-17 134,-17 69,-17"/>
<polygon fill="none" stroke="#666666" points="52,0 52,-49 134,-49 134,0 52,0"/>
</a>
</g>
</g>
<!-- Node2 -->
<g id="Node000002" class="node">
<title>Node2</title>
<g id="a_Node000002"><a xlink:href="../../d1/ddc/structlstr__t.html" target="_top" xlink:title="representation of a string with length.">
<polygon fill="white" stroke="none" points="124,-837.25 0,-837.25 0,-698.25 124,-698.25 124,-837.25"/>
<text text-anchor="start" x="51.12" y="-823.75" font-family="Helvetica,sans-Serif" font-size="10.00">lstr_t</text>
<text text-anchor="start" x="4" y="-808.75" font-family="Helvetica,sans-Serif" font-size="10.00">+</text>
<text text-anchor="start" x="14" y="-808.75" font-family="Helvetica,sans-Serif" font-size="10.00">const char * s</text>
<text text-anchor="start" x="4" y="-793.75" font-family="Helvetica,sans-Serif" font-size="10.00">+</text>
<text text-anchor="start" x="14" y="-793.75" font-family="Helvetica,sans-Serif" font-size="10.00">char * v</text>
<text text-anchor="start" x="4" y="-778.75" font-family="Helvetica,sans-Serif" font-size="10.00">+</text>
<text text-anchor="start" x="14" y="-778.75" font-family="Helvetica,sans-Serif" font-size="10.00">void * data</text>
<text text-anchor="start" x="4" y="-763.75" font-family="Helvetica,sans-Serif" font-size="10.00">+</text>
<text text-anchor="start" x="14" y="-763.75" font-family="Helvetica,sans-Serif" font-size="10.00">union lstr_t::@107 @108</text>
<text text-anchor="start" x="4" y="-748.75" font-family="Helvetica,sans-Serif" font-size="10.00">+</text>
<text text-anchor="start" x="14" y="-748.75" font-family="Helvetica,sans-Serif" font-size="10.00">int len</text>
<text text-anchor="start" x="4" y="-733.75" font-family="Helvetica,sans-Serif" font-size="10.00">+</text>
<text text-anchor="start" x="14" y="-733.75" font-family="Helvetica,sans-Serif" font-size="10.00">unsigned mem_pool</text>
<text text-anchor="start" x="4" y="-718.75" font-family="Helvetica,sans-Serif" font-size="10.00">+</text>
<text text-anchor="start" x="14" y="-718.75" font-family="Helvetica,sans-Serif" font-size="10.00">union lstr_t::@125 @126</text>
<text text-anchor="start" x="60.5" y="-703.75" font-family="Helvetica,sans-Serif" font-size="10.00"> </text>
<polygon fill="#666666" stroke="#666666" points="0,-820.25 0,-820.25 124,-820.25 124,-820.25 0,-820.25"/>
<polygon fill="#666666" stroke="#666666" points="0,-715.25 0,-715.25 12,-715.25 12,-715.25 0,-715.25"/>
<polygon fill="#666666" stroke="#666666" points="12,-715.25 12,-715.25 124,-715.25 124,-715.25 12,-715.25"/>
<polygon fill="none" stroke="#666666" points="0,-698.25 0,-837.25 124,-837.25 124,-698.25 0,-698.25"/>
</a>
</g>
</g>
<!-- Node2&#45;&gt;Node1 -->
<g id="edge1_Node000001_Node000002" class="edge">
<title>Node2&#45;&gt;Node1</title>
<g id="a_edge1_Node000001_Node000002"><a xlink:title=" ">
<path fill="none" stroke="#63b8ff" d="M54.05,-698.41C50.03,-658.17 46,-606.26 46,-560 46,-560 46,-560 46,-155.25 46,-121.54 60.2,-85.68 72.99,-60.23"/>
<polygon fill="none" stroke="#63b8ff" points="72.9,-60.39 72.15,-53.22 78.48,-49.77 79.23,-56.94 72.9,-60.39"/>
</a>
</g>
<text text-anchor="middle" x="62.12" y="-343.25" font-family="Helvetica,sans-Serif" font-size="10.00" fill="grey"> +name</text>
</g>
<!-- Node3 -->
<g id="Node000003" class="node">
<title>Node3</title>
<g id="a_Node000003"><a xlink:href="../../d9/d45/unioniop__value__t.html" target="_top" xlink:title=" ">
<polygon fill="white" stroke="none" points="182,-651 74,-651 74,-467 182,-467 182,-651"/>
<text text-anchor="start" x="103.25" y="-637.5" font-family="Helvetica,sans-Serif" font-size="10.00">iop_value_t</text>
<text text-anchor="start" x="78" y="-622.5" font-family="Helvetica,sans-Serif" font-size="10.00">+</text>
<text text-anchor="start" x="88" y="-622.5" font-family="Helvetica,sans-Serif" font-size="10.00">int64_t i</text>
<text text-anchor="start" x="78" y="-607.5" font-family="Helvetica,sans-Serif" font-size="10.00">+</text>
<text text-anchor="start" x="88" y="-607.5" font-family="Helvetica,sans-Serif" font-size="10.00">int64_t i64</text>
<text text-anchor="start" x="78" y="-592.5" font-family="Helvetica,sans-Serif" font-size="10.00">+</text>
<text text-anchor="start" x="88" y="-592.5" font-family="Helvetica,sans-Serif" font-size="10.00">int32_t i32</text>
<text text-anchor="start" x="78" y="-577.5" font-family="Helvetica,sans-Serif" font-size="10.00">+</text>
<text text-anchor="start" x="88" y="-577.5" font-family="Helvetica,sans-Serif" font-size="10.00">uint64_t u</text>
<text text-anchor="start" x="78" y="-562.5" font-family="Helvetica,sans-Serif" font-size="10.00">+</text>
<text text-anchor="start" x="88" y="-562.5" font-family="Helvetica,sans-Serif" font-size="10.00">uint64_t u64</text>
<text text-anchor="start" x="78" y="-547.5" font-family="Helvetica,sans-Serif" font-size="10.00">+</text>
<text text-anchor="start" x="88" y="-547.5" font-family="Helvetica,sans-Serif" font-size="10.00">uint32_t u32</text>
<text text-anchor="start" x="78" y="-532.5" font-family="Helvetica,sans-Serif" font-size="10.00">+</text>
<text text-anchor="start" x="88" y="-532.5" font-family="Helvetica,sans-Serif" font-size="10.00">double d</text>
<text text-anchor="start" x="78" y="-517.5" font-family="Helvetica,sans-Serif" font-size="10.00">+</text>
<text text-anchor="start" x="88" y="-517.5" font-family="Helvetica,sans-Serif" font-size="10.00">bool b</text>
<text text-anchor="start" x="78" y="-502.5" font-family="Helvetica,sans-Serif" font-size="10.00">+</text>
<text text-anchor="start" x="88" y="-502.5" font-family="Helvetica,sans-Serif" font-size="10.00">const void *nullable p</text>
<text text-anchor="start" x="78" y="-487.5" font-family="Helvetica,sans-Serif" font-size="10.00">+</text>
<text text-anchor="start" x="88" y="-487.5" font-family="Helvetica,sans-Serif" font-size="10.00">void *nullable v</text>
<text text-anchor="start" x="126.5" y="-472.5" font-family="Helvetica,sans-Serif" font-size="10.00"> </text>
<polygon fill="#666666" stroke="#666666" points="74,-634 74,-634 182,-634 182,-634 74,-634"/>
<polygon fill="#666666" stroke="#666666" points="74,-484 74,-484 86,-484 86,-484 74,-484"/>
<polygon fill="#666666" stroke="#666666" points="86,-484 86,-484 182,-484 182,-484 86,-484"/>
<polygon fill="none" stroke="#666666" points="74,-467 74,-651 182,-651 182,-467 74,-467"/>
</a>
</g>
</g>
<!-- Node2&#45;&gt;Node3 -->
<g id="edge3_Node000003_Node000002" class="edge">
<title>Node2&#45;&gt;Node3</title>
<g id="a_edge3_Node000003_Node000002"><a xlink:title=" ">
<path fill="none" stroke="#63b8ff" d="M83.79,-698.48C87.45,-687.01 91.32,-674.89 95.19,-662.78"/>
<polygon fill="none" stroke="#63b8ff" points="95.12,-662.99 93.14,-656.05 98.77,-651.55 100.76,-658.49 95.12,-662.99"/>
</a>
</g>
<text text-anchor="middle" x="100.75" y="-670.75" font-family="Helvetica,sans-Serif" font-size="10.00" fill="grey"> +s</text>
</g>
<!-- Node3&#45;&gt;Node1 -->
<g id="edge2_Node000001_Node000003" class="edge">
<title>Node3&#45;&gt;Node1</title>
<g id="a_edge2_Node000001_Node000003"><a xlink:title=" ">
<path fill="none" stroke="#63b8ff" d="M101.29,-467.21C96.5,-444.26 93,-419.52 93,-396.25 93,-396.25 93,-396.25 93,-155.25 93,-123.74 93,-87.94 93,-61.93"/>
<polygon fill="none" stroke="#63b8ff" points="93,-61.84 89,-55.84 93,-49.84 97,-55.84 93,-61.84"/>
</a>
</g>
<text text-anchor="middle" x="108.75" y="-289.62" font-family="Helvetica,sans-Serif" font-size="10.00" fill="grey"> +value</text>
</g>
<!-- Node6 -->
<g id="Node000006" class="node">
<title>Node6</title>
<g id="a_Node000006"><a xlink:href="../../db/dc2/structiop__generic__attr__arg__t.html" target="_top" xlink:title=" ">
<polygon fill="white" stroke="none" points="235,-419.75 129,-419.75 129,-370.75 235,-370.75 235,-419.75"/>
<text text-anchor="start" x="134" y="-406.25" font-family="Helvetica,sans-Serif" font-size="10.00">iop_generic_attr_arg_t</text>
<text text-anchor="start" x="180.5" y="-391.25" font-family="Helvetica,sans-Serif" font-size="10.00"> </text>
<text text-anchor="start" x="180.5" y="-376.25" font-family="Helvetica,sans-Serif" font-size="10.00"> </text>
<polygon fill="#666666" stroke="#666666" points="129,-402.75 129,-402.75 235,-402.75 235,-402.75 129,-402.75"/>
<polygon fill="#666666" stroke="#666666" points="129,-387.75 129,-387.75 235,-387.75 235,-387.75 129,-387.75"/>
<polygon fill="none" stroke="#666666" points="129,-370.75 129,-419.75 235,-419.75 235,-370.75 129,-370.75"/>
</a>
</g>
</g>
<!-- Node3&#45;&gt;Node6 -->
<g id="edge7_Node000006_Node000003" class="edge">
<title>Node3&#45;&gt;Node6</title>
<g id="a_edge7_Node000006_Node000003"><a xlink:title=" ">
<path fill="none" stroke="#63b8ff" d="M158.31,-467.2C162.52,-454.6 166.62,-442.33 170.19,-431.64"/>
<polygon fill="none" stroke="#63b8ff" points="170.17,-431.69 168.27,-424.74 173.97,-420.31 175.86,-427.27 170.17,-431.69"/>
</a>
</g>
<text text-anchor="middle" x="173.75" y="-439.5" font-family="Helvetica,sans-Serif" font-size="10.00" fill="grey"> +v</text>
</g>
<!-- Node4 -->
<g id="Node000004" class="node">
<title>Node4</title>
<g id="a_Node000004"><a xlink:href="../../db/d6a/structiop__field__attrs__t.html" target="_top" xlink:title=" ">
<polygon fill="white" stroke="none" points="259,-216.25 121,-216.25 121,-96.25 259,-96.25 259,-216.25"/>
<text text-anchor="start" x="155.88" y="-202.75" font-family="Helvetica,sans-Serif" font-size="10.00">iop_field_attrs_t</text>
<text text-anchor="start" x="125" y="-187.75" font-family="Helvetica,sans-Serif" font-size="10.00">+</text>
<text text-anchor="start" x="135" y="-187.75" font-family="Helvetica,sans-Serif" font-size="10.00">check_constraints_f</text>
<text text-anchor="start" x="135" y="-176.5" font-family="Helvetica,sans-Serif" font-size="10.00"> *nullable check_constraints</text>
<text text-anchor="start" x="125" y="-161.75" font-family="Helvetica,sans-Serif" font-size="10.00">+</text>
<text text-anchor="start" x="135" y="-161.75" font-family="Helvetica,sans-Serif" font-size="10.00">unsigned flags</text>
<text text-anchor="start" x="125" y="-146.75" font-family="Helvetica,sans-Serif" font-size="10.00">+</text>
<text text-anchor="start" x="135" y="-146.75" font-family="Helvetica,sans-Serif" font-size="10.00">uint16_t attrs_len</text>
<text text-anchor="start" x="125" y="-131.75" font-family="Helvetica,sans-Serif" font-size="10.00">+</text>
<text text-anchor="start" x="135" y="-131.75" font-family="Helvetica,sans-Serif" font-size="10.00">uint8_t version</text>
<text text-anchor="start" x="125" y="-116.75" font-family="Helvetica,sans-Serif" font-size="10.00">+</text>
<text text-anchor="start" x="135" y="-116.75" font-family="Helvetica,sans-Serif" font-size="10.00">uint8_t padding</text>
<text text-anchor="start" x="188.5" y="-101.75" font-family="Helvetica,sans-Serif" font-size="10.00"> </text>
<polygon fill="#666666" stroke="#666666" points="121,-199.25 121,-199.25 259,-199.25 259,-199.25 121,-199.25"/>
<polygon fill="#666666" stroke="#666666" points="121,-113.25 121,-113.25 133,-113.25 133,-113.25 121,-113.25"/>
<polygon fill="#666666" stroke="#666666" points="133,-113.25 133,-113.25 259,-113.25 259,-113.25 133,-113.25"/>
<polygon fill="none" stroke="#666666" points="121,-96.25 121,-216.25 259,-216.25 259,-96.25 121,-96.25"/>
</a>
</g>
</g>
<!-- Node4&#45;&gt;Node1 -->
<g id="edge4_Node000001_Node000004" class="edge">
<title>Node4&#45;&gt;Node1</title>
<g id="a_edge4_Node000001_Node000004"><a xlink:title=" ">
<path fill="none" stroke="#63b8ff" d="M146.04,-96.45C136.47,-83.64 126.66,-70.52 118.12,-59.1"/>
<polygon fill="none" stroke="#63b8ff" points="118.09,-59.07 111.3,-56.66 110.91,-49.46 117.71,-51.87 118.09,-59.07"/>
</a>
</g>
<text text-anchor="middle" x="143.88" y="-68.75" font-family="Helvetica,sans-Serif" font-size="10.00" fill="grey"> +attrs</text>
</g>
<!-- Node5 -->
<g id="Node000005" class="node">
<title>Node5</title>
<g id="a_Node000005"><a xlink:href="../../d9/dc0/structiop__field__attr__t.html" target="_top" xlink:title=" ">
<polygon fill="white" stroke="none" points="239,-323.5 143,-323.5 143,-263.5 239,-263.5 239,-323.5"/>
<text text-anchor="start" x="159.5" y="-310" font-family="Helvetica,sans-Serif" font-size="10.00">iop_field_attr_t</text>
<text text-anchor="start" x="147" y="-295" font-family="Helvetica,sans-Serif" font-size="10.00">+</text>
<text text-anchor="start" x="157" y="-295" font-family="Helvetica,sans-Serif" font-size="10.00">iop_field_attr_type</text>
<text text-anchor="start" x="157" y="-283.75" font-family="Helvetica,sans-Serif" font-size="10.00">_t type</text>
<text text-anchor="start" x="189.5" y="-269" font-family="Helvetica,sans-Serif" font-size="10.00"> </text>
<polygon fill="#666666" stroke="#666666" points="143,-306.5 143,-306.5 239,-306.5 239,-306.5 143,-306.5"/>
<polygon fill="#666666" stroke="#666666" points="143,-280.5 143,-280.5 155,-280.5 155,-280.5 143,-280.5"/>
<polygon fill="#666666" stroke="#666666" points="155,-280.5 155,-280.5 239,-280.5 239,-280.5 155,-280.5"/>
<polygon fill="none" stroke="#666666" points="143,-263.5 143,-323.5 239,-323.5 239,-263.5 143,-263.5"/>
</a>
</g>
</g>
<!-- Node5&#45;&gt;Node4 -->
<g id="edge5_Node000004_Node000005" class="edge">
<title>Node5&#45;&gt;Node4</title>
<g id="a_edge5_Node000004_Node000005"><a xlink:title=" ">
<path fill="none" stroke="#63b8ff" d="M190.79,-263.82C190.71,-253.52 190.62,-241.38 190.53,-229.07"/>
<polygon fill="none" stroke="#63b8ff" points="190.53,-229.14 186.49,-223.17 190.44,-217.14 194.49,-223.11 190.53,-229.14"/>
</a>
</g>
<text text-anchor="middle" x="203.88" y="-236" font-family="Helvetica,sans-Serif" font-size="10.00" fill="grey"> +attrs</text>
</g>
<!-- Node6&#45;&gt;Node5 -->
<g id="edge6_Node000005_Node000006" class="edge">
<title>Node6&#45;&gt;Node5</title>
<g id="a_edge6_Node000005_Node000006"><a xlink:title=" ">
<path fill="none" stroke="#63b8ff" d="M184.11,-370.86C185.04,-360.57 186.16,-348.16 187.22,-336.36"/>
<polygon fill="none" stroke="#63b8ff" points="187.23,-336.3 183.78,-329.96 188.31,-324.34 191.75,-330.68 187.23,-336.3"/>
</a>
</g>
<text text-anchor="middle" x="199.5" y="-343.25" font-family="Helvetica,sans-Serif" font-size="10.00" fill="grey"> +args</text>
</g>
</g>
</svg>
