<?xml version="1.0" encoding="UTF-8" standalone="no"?>
<!DOCTYPE svg PUBLIC "-//W3C//DTD SVG 1.1//EN"
 "http://www.w3.org/Graphics/SVG/1.1/DTD/svg11.dtd">
<!-- Generated by graphviz version 9.0.0 (20230911.1827)
 -->
<!-- Title: timeval_is_le0 Pages: 1 -->
<svg width="644pt" height="70pt"
 viewBox="0.00 0.00 643.75 69.88" xmlns="http://www.w3.org/2000/svg" xmlns:xlink="http://www.w3.org/1999/xlink">
<g id="graph0" class="graph" transform="scale(1 1) rotate(0) translate(4 65.88)">
<title>timeval_is_le0</title>
<!-- Node1 -->
<g id="Node000001" class="node">
<title>Node1</title>
<g id="a_Node000001"><a xlink:title=" ">
<polygon fill="#999999" stroke="#666666" points="635.75,-37.25 557.5,-37.25 557.5,-18 635.75,-18 635.75,-37.25"/>
<text text-anchor="middle" x="596.62" y="-23.75" font-family="Helvetica,sans-Serif" font-size="10.00">timeval_is_le0</text>
</a>
</g>
</g>
<!-- Node2 -->
<g id="Node000002" class="node">
<title>Node2</title>
<g id="a_Node000002"><a xlink:href="../../de/d6e/datetime_8c.html#ae1a746f482294c5e68925ba7ac2d408b" target="_top" xlink:title=" ">
<polygon fill="white" stroke="#666666" points="511.75,-56.25 452.25,-56.25 452.25,-37 511.75,-37 511.75,-56.25"/>
<text text-anchor="middle" x="482" y="-42.75" font-family="Helvetica,sans-Serif" font-size="10.00">is_expired</text>
</a>
</g>
</g>
<!-- Node1&#45;&gt;Node2 -->
<g id="edge1_Node000001_Node000002" class="edge">
<title>Node1&#45;&gt;Node2</title>
<g id="a_edge1_Node000001_Node000002"><a xlink:title=" ">
<path fill="none" stroke="#63b8ff" d="M546.18,-35.97C534.52,-37.93 522.45,-39.97 512.03,-41.73"/>
<polygon fill="#63b8ff" stroke="#63b8ff" points="546.41,-39.48 555.69,-34.36 545.25,-32.57 546.41,-39.48"/>
</a>
</g>
</g>
<!-- Node6 -->
<g id="Node000006" class="node">
<title>Node6</title>
<g id="a_Node000006"><a xlink:href="../../de/d1b/datetime_8h.html#a5a3f55ecc9837c77355f35232c55af9b" target="_top" xlink:title=" ">
<polygon fill="white" stroke="#666666" points="521.5,-19.25 442.5,-19.25 442.5,0 521.5,0 521.5,-19.25"/>
<text text-anchor="middle" x="482" y="-5.75" font-family="Helvetica,sans-Serif" font-size="10.00">timeval_is_gt0</text>
</a>
</g>
</g>
<!-- Node1&#45;&gt;Node6 -->
<g id="edge6_Node000001_Node000006" class="edge">
<title>Node1&#45;&gt;Node6</title>
<g id="a_edge6_Node000001_Node000006"><a xlink:title=" ">
<path fill="none" stroke="#63b8ff" d="M545.89,-19.68C537.77,-18.38 529.46,-17.05 521.65,-15.8"/>
<polygon fill="#63b8ff" stroke="#63b8ff" points="545.26,-23.12 555.69,-21.24 546.36,-16.21 545.26,-23.12"/>
</a>
</g>
</g>
<!-- Node3 -->
<g id="Node000003" class="node">
<title>Node3</title>
<g id="a_Node000003"><a xlink:href="../../d1/dcb/rpc-http-client_8c.html#a17dc16c4d8c2d91ec0df8fbdc40e44af" target="_top" xlink:title=" ">
<polygon fill="white" stroke="#666666" points="406.5,-56.25 281.75,-56.25 281.75,-37 406.5,-37 406.5,-56.25"/>
<text text-anchor="middle" x="344.12" y="-42.75" font-family="Helvetica,sans-Serif" font-size="10.00">http_iop_timeout_queries</text>
</a>
</g>
</g>
<!-- Node2&#45;&gt;Node3 -->
<g id="edge2_Node000002_Node000003" class="edge">
<title>Node2&#45;&gt;Node3</title>
<g id="a_edge2_Node000002_Node000003"><a xlink:title=" ">
<path fill="none" stroke="#63b8ff" d="M440.45,-46.62C429.9,-46.62 418.28,-46.62 406.9,-46.62"/>
<polygon fill="#63b8ff" stroke="#63b8ff" points="440.34,-50.13 450.34,-46.63 440.34,-43.13 440.34,-50.13"/>
</a>
</g>
</g>
<!-- Node4 -->
<g id="Node000004" class="node">
<title>Node4</title>
<g id="a_Node000004"><a xlink:href="../../d1/dcb/rpc-http-client_8c.html#a882e4ddedc01172eadfb1055e9566a2d" target="_top" xlink:title=" ">
<polygon fill="white" stroke="#666666" points="245.75,-61.88 120.25,-61.88 120.25,-31.38 245.75,-31.38 245.75,-61.88"/>
<text text-anchor="start" x="128.25" y="-48.38" font-family="Helvetica,sans-Serif" font-size="10.00">http_iop_register_timeout</text>
<text text-anchor="middle" x="183" y="-37.12" font-family="Helvetica,sans-Serif" font-size="10.00">_check</text>
</a>
</g>
</g>
<!-- Node3&#45;&gt;Node4 -->
<g id="edge3_Node000003_Node000004" class="edge">
<title>Node3&#45;&gt;Node4</title>
<g id="a_edge3_Node000003_Node000004"><a xlink:title=" ">
<path fill="none" stroke="#63b8ff" d="M270.29,-39.9C262.23,-39.84 254.06,-39.89 246.15,-40.02"/>
<polygon fill="#63b8ff" stroke="#63b8ff" points="270.05,-43.39 280.09,-40.01 270.13,-36.39 270.05,-43.39"/>
</a>
</g>
</g>
<!-- Node4&#45;&gt;Node3 -->
<g id="edge5_Node000004_Node000003" class="edge">
<title>Node4&#45;&gt;Node3</title>
<g id="a_edge5_Node000004_Node000003"><a xlink:title=" ">
<path fill="none" stroke="#63b8ff" d="M257.47,-53.36C265.54,-53.4 273.7,-53.36 281.6,-53.22"/>
<polygon fill="#63b8ff" stroke="#63b8ff" points="257.7,-49.86 247.66,-53.25 257.62,-56.86 257.7,-49.86"/>
</a>
</g>
</g>
<!-- Node5 -->
<g id="Node000005" class="node">
<title>Node5</title>
<g id="a_Node000005"><a xlink:href="../../d1/dcb/rpc-http-client_8c.html#ac2c5663b4b81434be56c2ac4cf5f35b5" target="_top" xlink:title=" ">
<polygon fill="white" stroke="#666666" points="84.25,-56.25 0,-56.25 0,-37 84.25,-37 84.25,-56.25"/>
<text text-anchor="middle" x="42.12" y="-42.75" font-family="Helvetica,sans-Serif" font-size="10.00">http_iop_query_</text>
</a>
</g>
</g>
<!-- Node4&#45;&gt;Node5 -->
<g id="edge4_Node000004_Node000005" class="edge">
<title>Node4&#45;&gt;Node5</title>
<g id="a_edge4_Node000004_Node000005"><a xlink:title=" ">
<path fill="none" stroke="#63b8ff" d="M108.59,-46.62C100.32,-46.62 92.13,-46.62 84.48,-46.62"/>
<polygon fill="#63b8ff" stroke="#63b8ff" points="108.36,-50.13 118.36,-46.63 108.36,-43.13 108.36,-50.13"/>
</a>
</g>
</g>
</g>
</svg>
