<?xml version="1.0" encoding="UTF-8" standalone="no"?>
<!DOCTYPE svg PUBLIC "-//W3C//DTD SVG 1.1//EN"
 "http://www.w3.org/Graphics/SVG/1.1/DTD/svg11.dtd">
<!-- Generated by graphviz version 9.0.0 (20230911.1827)
 -->
<!-- Title: acceptx Pages: 1 -->
<svg width="584pt" height="143pt"
 viewBox="0.00 0.00 583.75 143.25" xmlns="http://www.w3.org/2000/svg" xmlns:xlink="http://www.w3.org/1999/xlink">
<g id="graph0" class="graph" transform="scale(1 1) rotate(0) translate(4 139.25)">
<title>acceptx</title>
<!-- Node1 -->
<g id="Node000001" class="node">
<title>Node1</title>
<g id="a_Node000001"><a xlink:title=" ">
<polygon fill="#999999" stroke="#666666" points="575.75,-77.25 526,-77.25 526,-58 575.75,-58 575.75,-77.25"/>
<text text-anchor="middle" x="550.88" y="-63.75" font-family="Helvetica,sans-Serif" font-size="10.00">acceptx</text>
</a>
</g>
</g>
<!-- Node2 -->
<g id="Node000002" class="node">
<title>Node2</title>
<g id="a_Node000002"><a xlink:href="../../db/d0c/rpc-channel_8blk.html#a8b4174078808b34967f5fe0a7c27f2ce" target="_top" xlink:title=" ">
<polygon fill="white" stroke="#666666" points="469.75,-114.25 411.75,-114.25 411.75,-95 469.75,-95 469.75,-114.25"/>
<text text-anchor="middle" x="440.75" y="-100.75" font-family="Helvetica,sans-Serif" font-size="10.00">ic_accept</text>
</a>
</g>
</g>
<!-- Node1&#45;&gt;Node2 -->
<g id="edge1_Node000001_Node000002" class="edge">
<title>Node1&#45;&gt;Node2</title>
<g id="a_edge1_Node000001_Node000002"><a xlink:title=" ">
<path fill="none" stroke="#63b8ff" d="M515.01,-79.55C500.51,-84.52 483.89,-90.21 470.15,-94.91"/>
<polygon fill="#63b8ff" stroke="#63b8ff" points="515.85,-82.97 524.18,-76.42 513.58,-76.34 515.85,-82.97"/>
</a>
</g>
</g>
<!-- Node7 -->
<g id="Node000007" class="node">
<title>Node7</title>
<g id="a_Node000007"><a xlink:href="../../dd/d03/sctp-tools_8c.html#acfd854b4c7dfdf0e41435248865bba08" target="_top" xlink:title=" ">
<polygon fill="white" stroke="#666666" points="490,-77.25 391.5,-77.25 391.5,-58 490,-58 490,-77.25"/>
<text text-anchor="middle" x="440.75" y="-63.75" font-family="Helvetica,sans-Serif" font-size="10.00">sctp_srv_on_event</text>
</a>
</g>
</g>
<!-- Node1&#45;&gt;Node7 -->
<g id="edge6_Node000001_Node000007" class="edge">
<title>Node1&#45;&gt;Node7</title>
<g id="a_edge6_Node000001_Node000007"><a xlink:title=" ">
<path fill="none" stroke="#63b8ff" d="M514.16,-67.62C506.52,-67.62 498.32,-67.62 490.28,-67.62"/>
<polygon fill="#63b8ff" stroke="#63b8ff" points="514.1,-71.13 524.1,-67.63 514.1,-64.13 514.1,-71.13"/>
</a>
</g>
</g>
<!-- Node9 -->
<g id="Node000009" class="node">
<title>Node9</title>
<g id="a_Node000009"><a xlink:href="../../dd/d4a/net_2http_8c.html#af4754705bc6829e79a05d2129b5e9fae" target="_top" xlink:title=" ">
<polygon fill="white" stroke="#666666" points="468.25,-40.25 413.25,-40.25 413.25,-21 468.25,-21 468.25,-40.25"/>
<text text-anchor="middle" x="440.75" y="-26.75" font-family="Helvetica,sans-Serif" font-size="10.00">z_accept</text>
</a>
</g>
</g>
<!-- Node1&#45;&gt;Node9 -->
<g id="edge8_Node000001_Node000009" class="edge">
<title>Node1&#45;&gt;Node9</title>
<g id="a_edge8_Node000001_Node000009"><a xlink:title=" ">
<path fill="none" stroke="#63b8ff" d="M515.12,-55.73C500.04,-50.57 482.65,-44.62 468.59,-39.81"/>
<polygon fill="#63b8ff" stroke="#63b8ff" points="513.58,-58.91 524.18,-58.83 515.85,-52.28 513.58,-58.91"/>
</a>
</g>
</g>
<!-- Node3 -->
<g id="Node000003" class="node">
<title>Node3</title>
<g id="a_Node000003"><a xlink:href="../../db/d0c/rpc-channel_8blk.html#a704e386d35f73b95af5ad6101b5d600f" target="_top" xlink:title=" ">
<polygon fill="white" stroke="#666666" points="346.5,-114.25 286.25,-114.25 286.25,-95 346.5,-95 346.5,-114.25"/>
<text text-anchor="middle" x="316.38" y="-100.75" font-family="Helvetica,sans-Serif" font-size="10.00">ic_listento</text>
</a>
</g>
</g>
<!-- Node2&#45;&gt;Node3 -->
<g id="edge2_Node000002_Node000003" class="edge">
<title>Node2&#45;&gt;Node3</title>
<g id="a_edge2_Node000002_Node000003"><a xlink:title=" ">
<path fill="none" stroke="#63b8ff" d="M399.91,-104.62C382.65,-104.62 362.79,-104.62 346.88,-104.62"/>
<polygon fill="#63b8ff" stroke="#63b8ff" points="399.85,-108.13 409.85,-104.63 399.85,-101.13 399.85,-108.13"/>
</a>
</g>
</g>
<!-- Node4 -->
<g id="Node000004" class="node">
<title>Node4</title>
<g id="a_Node000004"><a xlink:href="../../db/dac/rpc-el_8c.html#a8e8fb844ec631a1b47b560e08a11f2ad" target="_top" xlink:title="Make the IC EL server listening with the mutex locked.">
<polygon fill="white" stroke="#666666" points="235.62,-119.88 138.62,-119.88 138.62,-89.38 235.62,-89.38 235.62,-119.88"/>
<text text-anchor="start" x="146.62" y="-106.38" font-family="Helvetica,sans-Serif" font-size="10.00">ic_el_server_listen</text>
<text text-anchor="middle" x="187.12" y="-95.12" font-family="Helvetica,sans-Serif" font-size="10.00">_internal</text>
</a>
</g>
</g>
<!-- Node3&#45;&gt;Node4 -->
<g id="edge3_Node000003_Node000004" class="edge">
<title>Node3&#45;&gt;Node4</title>
<g id="a_edge3_Node000003_Node000004"><a xlink:title=" ">
<path fill="none" stroke="#63b8ff" d="M274.54,-104.62C262.24,-104.62 248.63,-104.62 235.92,-104.62"/>
<polygon fill="#63b8ff" stroke="#63b8ff" points="274.35,-108.13 284.35,-104.63 274.35,-101.13 274.35,-108.13"/>
</a>
</g>
</g>
<!-- Node5 -->
<g id="Node000005" class="node">
<title>Node5</title>
<g id="a_Node000005"><a xlink:href="../../db/dac/rpc-el_8c.html#a6b734e9aea95c3678e493969c78ddabf" target="_top" xlink:title="Make the IC EL server start listening.">
<polygon fill="white" stroke="#666666" points="97,-135.25 0,-135.25 0,-116 97,-116 97,-135.25"/>
<text text-anchor="middle" x="48.5" y="-121.75" font-family="Helvetica,sans-Serif" font-size="10.00">ic_el_server_listen</text>
</a>
</g>
</g>
<!-- Node4&#45;&gt;Node5 -->
<g id="edge4_Node000004_Node000005" class="edge">
<title>Node4&#45;&gt;Node5</title>
<g id="a_edge4_Node000004_Node000005"><a xlink:title=" ">
<path fill="none" stroke="#63b8ff" d="M127.27,-113.67C117.33,-115.2 107.11,-116.77 97.49,-118.25"/>
<polygon fill="#63b8ff" stroke="#63b8ff" points="127.49,-117.18 136.84,-112.2 126.43,-110.26 127.49,-117.18"/>
</a>
</g>
</g>
<!-- Node6 -->
<g id="Node000006" class="node">
<title>Node6</title>
<g id="a_Node000006"><a xlink:href="../../db/dac/rpc-el_8c.html#ac07f125f7ff190c68cd106bd3b3cb5e1" target="_top" xlink:title="Make the IC EL server start listening until timeout elapsed or the server has been stopped.">
<polygon fill="white" stroke="#666666" points="97,-97.88 0,-97.88 0,-67.38 97,-67.38 97,-97.88"/>
<text text-anchor="start" x="8" y="-84.38" font-family="Helvetica,sans-Serif" font-size="10.00">ic_el_server_listen</text>
<text text-anchor="middle" x="48.5" y="-73.12" font-family="Helvetica,sans-Serif" font-size="10.00">_block</text>
</a>
</g>
</g>
<!-- Node4&#45;&gt;Node6 -->
<g id="edge5_Node000004_Node000006" class="edge">
<title>Node4&#45;&gt;Node6</title>
<g id="a_edge5_Node000004_Node000006"><a xlink:title=" ">
<path fill="none" stroke="#63b8ff" d="M127.27,-95.15C117.33,-93.55 107.11,-91.9 97.49,-90.35"/>
<polygon fill="#63b8ff" stroke="#63b8ff" points="126.42,-98.56 136.85,-96.69 127.53,-91.64 126.42,-98.56"/>
</a>
</g>
</g>
<!-- Node8 -->
<g id="Node000008" class="node">
<title>Node8</title>
<g id="a_Node000008"><a xlink:href="../../dd/d03/sctp-tools_8c.html#a8f0c86a4df171798cafc332f5fc2a904" target="_top" xlink:title=" ">
<polygon fill="white" stroke="#666666" points="348,-77.25 284.75,-77.25 284.75,-58 348,-58 348,-77.25"/>
<text text-anchor="middle" x="316.38" y="-63.75" font-family="Helvetica,sans-Serif" font-size="10.00">sctp_listen</text>
</a>
</g>
</g>
<!-- Node7&#45;&gt;Node8 -->
<g id="edge7_Node000007_Node000008" class="edge">
<title>Node7&#45;&gt;Node8</title>
<g id="a_edge7_Node000007_Node000008"><a xlink:title=" ">
<path fill="none" stroke="#63b8ff" d="M379.76,-67.62C368.88,-67.62 357.94,-67.62 348.33,-67.62"/>
<polygon fill="#63b8ff" stroke="#63b8ff" points="379.52,-71.13 389.52,-67.63 379.52,-64.13 379.52,-71.13"/>
</a>
</g>
</g>
<!-- Node10 -->
<g id="Node000010" class="node">
<title>Node10</title>
<g id="a_Node000010"><a xlink:href="../../dd/d4a/net_2http_8c.html#ae0600e298ca883d66d4ff582e8786e11" target="_top" xlink:title=" ">
<polygon fill="white" stroke="#666666" points="355.5,-40.25 277.25,-40.25 277.25,-21 355.5,-21 355.5,-40.25"/>
<text text-anchor="middle" x="316.38" y="-26.75" font-family="Helvetica,sans-Serif" font-size="10.00">z_query_setup</text>
</a>
</g>
</g>
<!-- Node9&#45;&gt;Node10 -->
<g id="edge9_Node000009_Node000010" class="edge">
<title>Node9&#45;&gt;Node10</title>
<g id="a_edge9_Node000009_Node000010"><a xlink:title=" ">
<path fill="none" stroke="#63b8ff" d="M401.7,-30.62C387.09,-30.62 370.42,-30.62 355.78,-30.62"/>
<polygon fill="#63b8ff" stroke="#63b8ff" points="401.38,-34.13 411.38,-30.63 401.38,-27.13 401.38,-34.13"/>
</a>
</g>
</g>
<!-- Node11 -->
<g id="Node000011" class="node">
<title>Node11</title>
<g id="a_Node000011"><a xlink:href="../../dd/d4a/net_2http_8c.html#ad6f99386fb518c8ba64244857b0240e1" target="_top" xlink:title=" ">
<polygon fill="white" stroke="#666666" points="241.25,-56.25 133,-56.25 133,-37 241.25,-37 241.25,-56.25"/>
<text text-anchor="middle" x="187.12" y="-42.75" font-family="Helvetica,sans-Serif" font-size="10.00">Z_GROUP_EXPORT</text>
</a>
</g>
</g>
<!-- Node10&#45;&gt;Node11 -->
<g id="edge10_Node000010_Node000011" class="edge">
<title>Node10&#45;&gt;Node11</title>
<g id="a_edge10_Node000010_Node000011"><a xlink:title=" ">
<path fill="none" stroke="#63b8ff" d="M265.57,-36.89C257.69,-37.88 249.51,-38.91 241.54,-39.91"/>
<polygon fill="#63b8ff" stroke="#63b8ff" points="265.86,-40.38 275.35,-35.66 264.99,-33.43 265.86,-40.38"/>
</a>
</g>
</g>
<!-- Node12 -->
<g id="Node000012" class="node">
<title>Node12</title>
<g id="a_Node000012"><a xlink:href="../../dd/d4a/net_2http_8c.html#ad196e07d97f054b7629a5f94093340dd" target="_top" xlink:title=" ">
<polygon fill="white" stroke="#666666" points="241.25,-19.25 133,-19.25 133,0 241.25,0 241.25,-19.25"/>
<text text-anchor="middle" x="187.12" y="-5.75" font-family="Helvetica,sans-Serif" font-size="10.00">Z_GROUP_EXPORT</text>
</a>
</g>
</g>
<!-- Node10&#45;&gt;Node12 -->
<g id="edge11_Node000010_Node000012" class="edge">
<title>Node10&#45;&gt;Node12</title>
<g id="a_edge11_Node000010_Node000012"><a xlink:title=" ">
<path fill="none" stroke="#63b8ff" d="M265.57,-22.41C257.69,-21.1 249.51,-19.75 241.54,-18.44"/>
<polygon fill="#63b8ff" stroke="#63b8ff" points="264.92,-25.85 275.36,-24.02 266.06,-18.94 264.92,-25.85"/>
</a>
</g>
</g>
</g>
</svg>
