<?xml version="1.0" encoding="UTF-8" standalone="no"?>
<!DOCTYPE svg PUBLIC "-//W3C//DTD SVG 1.1//EN"
 "http://www.w3.org/Graphics/SVG/1.1/DTD/svg11.dtd">
<!-- Generated by graphviz version 9.0.0 (20230911.1827)
 -->
<!-- Title: qps_bitmap_enumerator_find_bit_nn Pages: 1 -->
<svg width="1265pt" height="227pt"
 viewBox="0.00 0.00 1264.75 227.25" xmlns="http://www.w3.org/2000/svg" xmlns:xlink="http://www.w3.org/1999/xlink">
<g id="graph0" class="graph" transform="scale(1 1) rotate(0) translate(4 223.25)">
<title>qps_bitmap_enumerator_find_bit_nn</title>
<!-- Node1 -->
<g id="Node000001" class="node">
<title>Node1</title>
<g id="a_Node000001"><a xlink:title=" ">
<polygon fill="#999999" stroke="#666666" points="1256.75,-123.88 1136.5,-123.88 1136.5,-93.38 1256.75,-93.38 1256.75,-123.88"/>
<text text-anchor="start" x="1144.5" y="-110.38" font-family="Helvetica,sans-Serif" font-size="10.00">qps_bitmap_enumerator</text>
<text text-anchor="middle" x="1196.62" y="-99.12" font-family="Helvetica,sans-Serif" font-size="10.00">_find_bit_nn</text>
</a>
</g>
</g>
<!-- Node2 -->
<g id="Node000002" class="node">
<title>Node2</title>
<g id="a_Node000002"><a xlink:href="../../d7/d31/group__qkv____ll____bitmap.html#ga4fed97e800c14c7c33011f0bbd5c0528" target="_top" xlink:title=" ">
<polygon fill="white" stroke="#666666" points="1100.5,-145.88 980.25,-145.88 980.25,-115.38 1100.5,-115.38 1100.5,-145.88"/>
<text text-anchor="start" x="988.25" y="-132.38" font-family="Helvetica,sans-Serif" font-size="10.00">qps_bitmap_enumerator</text>
<text text-anchor="middle" x="1040.38" y="-121.12" font-family="Helvetica,sans-Serif" font-size="10.00">_find_word_nn</text>
</a>
</g>
</g>
<!-- Node1&#45;&gt;Node2 -->
<g id="edge1_Node000001_Node000002" class="edge">
<title>Node1&#45;&gt;Node2</title>
<g id="a_edge1_Node000001_Node000002"><a xlink:title=" ">
<path fill="none" stroke="#63b8ff" d="M1125.1,-118.68C1117.02,-119.84 1108.84,-121 1100.92,-122.13"/>
<polygon fill="#63b8ff" stroke="#63b8ff" points="1125.53,-122.16 1134.93,-117.28 1124.54,-115.23 1125.53,-122.16"/>
</a>
</g>
</g>
<!-- Node6 -->
<g id="Node000006" class="node">
<title>Node6</title>
<g id="a_Node000006"><a xlink:href="../../d7/d31/group__qkv____ll____bitmap.html#gaf100d71ba9df145d6a833426bd01d938" target="_top" xlink:title=" ">
<polygon fill="white" stroke="#666666" points="459.38,-181.88 339.12,-181.88 339.12,-151.38 459.38,-151.38 459.38,-181.88"/>
<text text-anchor="start" x="347.12" y="-168.38" font-family="Helvetica,sans-Serif" font-size="10.00">qps_bitmap_enumerator</text>
<text text-anchor="middle" x="399.25" y="-157.12" font-family="Helvetica,sans-Serif" font-size="10.00">_go_to_nn</text>
</a>
</g>
</g>
<!-- Node1&#45;&gt;Node6 -->
<g id="edge22_Node000001_Node000006" class="edge">
<title>Node1&#45;&gt;Node6</title>
<g id="a_edge22_Node000001_Node000006"><a xlink:title=" ">
<path fill="none" stroke="#63b8ff" d="M1156.49,-129.5C1098.81,-158.28 986.77,-206.62 885.12,-206.62 885.12,-206.62 885.12,-206.62 726.88,-206.62 632.9,-206.62 524.83,-190.11 459.58,-178.3"/>
<polygon fill="#63b8ff" stroke="#63b8ff" points="1157.93,-132.7 1165.27,-125.05 1154.77,-126.45 1157.93,-132.7"/>
</a>
</g>
</g>
<!-- Node9 -->
<g id="Node000009" class="node">
<title>Node9</title>
<g id="a_Node000009"><a xlink:href="../../d7/d31/group__qkv____ll____bitmap.html#ga837f5721c619ba1ea936a9746142e62e" target="_top" xlink:title=" ">
<polygon fill="white" stroke="#666666" points="459.38,-59.88 339.12,-59.88 339.12,-29.38 459.38,-29.38 459.38,-59.88"/>
<text text-anchor="start" x="347.12" y="-46.38" font-family="Helvetica,sans-Serif" font-size="10.00">qps_bitmap_enumerator</text>
<text text-anchor="middle" x="399.25" y="-35.12" font-family="Helvetica,sans-Serif" font-size="10.00">_next_nn</text>
</a>
</g>
</g>
<!-- Node1&#45;&gt;Node9 -->
<g id="edge23_Node000001_Node000009" class="edge">
<title>Node1&#45;&gt;Node9</title>
<g id="a_edge23_Node000001_Node000009"><a xlink:title=" ">
<path fill="none" stroke="#63b8ff" d="M1138.48,-89.57C1076.73,-70.71 975.08,-44.62 885.12,-44.62 885.12,-44.62 885.12,-44.62 726.88,-44.62 633.59,-44.63 525.33,-44.62 459.85,-44.62"/>
<polygon fill="#63b8ff" stroke="#63b8ff" points="1137.13,-92.82 1147.71,-92.44 1139.2,-86.13 1137.13,-92.82"/>
</a>
</g>
</g>
<!-- Node3 -->
<g id="Node000003" class="node">
<title>Node3</title>
<g id="a_Node000003"><a xlink:href="../../d7/d31/group__qkv____ll____bitmap.html#ga1ef8626d8523e87e2891994a920d0364" target="_top" xlink:title=" ">
<polygon fill="white" stroke="#666666" points="944.25,-102.88 824,-102.88 824,-72.38 944.25,-72.38 944.25,-102.88"/>
<text text-anchor="start" x="832" y="-89.38" font-family="Helvetica,sans-Serif" font-size="10.00">qps_bitmap_enumerator</text>
<text text-anchor="middle" x="884.12" y="-78.12" font-family="Helvetica,sans-Serif" font-size="10.00">_dispatch_up_nn</text>
</a>
</g>
</g>
<!-- Node2&#45;&gt;Node3 -->
<g id="edge2_Node000002_Node000003" class="edge">
<title>Node2&#45;&gt;Node3</title>
<g id="a_edge2_Node000002_Node000003"><a xlink:title=" ">
<path fill="none" stroke="#63b8ff" d="M993.24,-111.52C977.94,-106.73 960.69,-101.8 944.54,-97.6"/>
<polygon fill="#63b8ff" stroke="#63b8ff" points="991.95,-114.79 1002.55,-114.52 994.1,-108.12 991.95,-114.79"/>
</a>
</g>
</g>
<!-- Node4 -->
<g id="Node000004" class="node">
<title>Node4</title>
<g id="a_Node000004"><a xlink:href="../../d7/d31/group__qkv____ll____bitmap.html#ga3509cee1e52b9834afb79ee65205f712" target="_top" xlink:title=" ">
<polygon fill="white" stroke="#666666" points="788,-140.88 667.75,-140.88 667.75,-110.38 788,-110.38 788,-140.88"/>
<text text-anchor="start" x="675.75" y="-127.38" font-family="Helvetica,sans-Serif" font-size="10.00">qps_bitmap_enumerator</text>
<text text-anchor="middle" x="727.88" y="-116.12" font-family="Helvetica,sans-Serif" font-size="10.00">_find_leaf_nn</text>
</a>
</g>
</g>
<!-- Node2&#45;&gt;Node4 -->
<g id="edge20_Node000002_Node000004" class="edge">
<title>Node2&#45;&gt;Node4</title>
<g id="a_edge20_Node000002_Node000004"><a xlink:title=" ">
<path fill="none" stroke="#63b8ff" d="M968.58,-129.48C914.16,-128.61 839.83,-127.41 788.44,-126.58"/>
<polygon fill="#63b8ff" stroke="#63b8ff" points="968.31,-132.98 978.36,-129.64 968.42,-125.98 968.31,-132.98"/>
</a>
</g>
</g>
<!-- Node2&#45;&gt;Node6 -->
<g id="edge21_Node000002_Node000006" class="edge">
<title>Node2&#45;&gt;Node6</title>
<g id="a_edge21_Node000002_Node000006"><a xlink:title=" ">
<path fill="none" stroke="#63b8ff" d="M968.4,-140.22C960.27,-141.13 952.08,-141.96 944.25,-142.62 768.34,-157.64 559.59,-163.52 459.52,-165.6"/>
<polygon fill="#63b8ff" stroke="#63b8ff" points="968.8,-143.69 978.33,-139.06 967.99,-136.74 968.8,-143.69"/>
</a>
</g>
</g>
<!-- Node3&#45;&gt;Node1 -->
<g id="edge3_Node000003_Node000001" class="edge">
<title>Node3&#45;&gt;Node1</title>
<g id="a_edge3_Node000003_Node000001"><a xlink:title=" ">
<path fill="none" stroke="#63b8ff" d="M955.99,-92.42C1010.43,-96.1 1084.75,-101.13 1136.12,-104.6"/>
<polygon fill="#63b8ff" stroke="#63b8ff" points="956.41,-88.94 946.2,-91.76 955.94,-95.92 956.41,-88.94"/>
</a>
</g>
</g>
<!-- Node3&#45;&gt;Node2 -->
<g id="edge19_Node000003_Node000002" class="edge">
<title>Node3&#45;&gt;Node2</title>
<g id="a_edge19_Node000003_Node000002"><a xlink:title=" ">
<path fill="none" stroke="#63b8ff" d="M931.49,-106.8C946.8,-111.59 964.04,-116.51 980.18,-120.71"/>
<polygon fill="#63b8ff" stroke="#63b8ff" points="932.76,-103.53 922.17,-103.81 930.62,-110.2 932.76,-103.53"/>
</a>
</g>
</g>
<!-- Node3&#45;&gt;Node4 -->
<g id="edge4_Node000003_Node000004" class="edge">
<title>Node3&#45;&gt;Node4</title>
<g id="a_edge4_Node000003_Node000004"><a xlink:title=" ">
<path fill="none" stroke="#63b8ff" d="M812.84,-98.21C797.48,-101.89 781.75,-106.02 768.12,-109.99"/>
<polygon fill="#63b8ff" stroke="#63b8ff" points="813.51,-101.65 822.46,-95.97 811.92,-94.83 813.51,-101.65"/>
</a>
</g>
</g>
<!-- Node4&#45;&gt;Node3 -->
<g id="edge5_Node000004_Node000003" class="edge">
<title>Node4&#45;&gt;Node3</title>
<g id="a_edge5_Node000004_Node000003"><a xlink:title=" ">
<path fill="none" stroke="#63b8ff" d="M799.28,-115.01C814.58,-111.34 830.23,-107.24 843.8,-103.28"/>
<polygon fill="#63b8ff" stroke="#63b8ff" points="798.66,-111.56 789.71,-117.24 800.25,-118.38 798.66,-111.56"/>
</a>
</g>
</g>
<!-- Node5 -->
<g id="Node000005" class="node">
<title>Node5</title>
<g id="a_Node000005"><a xlink:href="../../d7/d31/group__qkv____ll____bitmap.html#ga717992f675e1402cefc29035a4c4ca70" target="_top" xlink:title=" ">
<polygon fill="white" stroke="#666666" points="631.75,-102.88 511.5,-102.88 511.5,-72.38 631.75,-72.38 631.75,-102.88"/>
<text text-anchor="start" x="519.5" y="-89.38" font-family="Helvetica,sans-Serif" font-size="10.00">qps_bitmap_enumerator</text>
<text text-anchor="middle" x="571.62" y="-78.12" font-family="Helvetica,sans-Serif" font-size="10.00">_find_dispatch_nn</text>
</a>
</g>
</g>
<!-- Node4&#45;&gt;Node5 -->
<g id="edge6_Node000004_Node000005" class="edge">
<title>Node4&#45;&gt;Node5</title>
<g id="a_edge6_Node000004_Node000005"><a xlink:title=" ">
<path fill="none" stroke="#63b8ff" d="M656.63,-108.32C648.46,-106.31 640.18,-104.27 632.17,-102.29"/>
<polygon fill="#63b8ff" stroke="#63b8ff" points="655.66,-111.69 666.21,-110.68 657.34,-104.89 655.66,-111.69"/>
</a>
</g>
</g>
<!-- Node4&#45;&gt;Node6 -->
<g id="edge18_Node000004_Node000006" class="edge">
<title>Node4&#45;&gt;Node6</title>
<g id="a_edge18_Node000004_Node000006"><a xlink:title=" ">
<path fill="none" stroke="#63b8ff" d="M655.94,-134.53C597.27,-141.89 514.89,-152.23 459.64,-159.17"/>
<polygon fill="#63b8ff" stroke="#63b8ff" points="656.36,-138 665.84,-133.29 655.49,-131.06 656.36,-138"/>
</a>
</g>
</g>
<!-- Node5&#45;&gt;Node3 -->
<g id="edge7_Node000005_Node000003" class="edge">
<title>Node5&#45;&gt;Node3</title>
<g id="a_edge7_Node000005_Node000003"><a xlink:title=" ">
<path fill="none" stroke="#63b8ff" d="M643.49,-87.62C697.93,-87.62 772.25,-87.62 823.62,-87.62"/>
<polygon fill="#63b8ff" stroke="#63b8ff" points="643.7,-84.13 633.7,-87.63 643.7,-91.13 643.7,-84.13"/>
</a>
</g>
</g>
<!-- Node5&#45;&gt;Node6 -->
<g id="edge8_Node000005_Node000006" class="edge">
<title>Node5&#45;&gt;Node6</title>
<g id="a_edge8_Node000005_Node000006"><a xlink:title=" ">
<path fill="none" stroke="#63b8ff" d="M526.75,-107.97C497.9,-121.35 460.71,-138.59 434.13,-150.91"/>
<polygon fill="#63b8ff" stroke="#63b8ff" points="527.99,-111.25 535.59,-103.87 525.05,-104.9 527.99,-111.25"/>
</a>
</g>
</g>
<!-- Node5&#45;&gt;Node9 -->
<g id="edge11_Node000005_Node000009" class="edge">
<title>Node5&#45;&gt;Node9</title>
<g id="a_edge11_Node000005_Node000009"><a xlink:title=" ">
<path fill="none" stroke="#63b8ff" d="M499.97,-69.79C486.62,-66.42 472.77,-62.93 459.81,-59.66"/>
<polygon fill="#63b8ff" stroke="#63b8ff" points="499.02,-73.16 509.57,-72.22 500.73,-66.37 499.02,-73.16"/>
</a>
</g>
</g>
<!-- Node12 -->
<g id="Node000012" class="node">
<title>Node12</title>
<g id="a_Node000012"><a xlink:href="../../d7/d31/group__qkv____ll____bitmap.html#gada4ee5e3319aa0a4bee72601d99f1a1f" target="_top" xlink:title=" ">
<polygon fill="white" stroke="#666666" points="475.5,-97.25 323,-97.25 323,-78 475.5,-78 475.5,-97.25"/>
<text text-anchor="middle" x="399.25" y="-83.75" font-family="Helvetica,sans-Serif" font-size="10.00">qps_bitmap_get_enumerator_at</text>
</a>
</g>
</g>
<!-- Node5&#45;&gt;Node12 -->
<g id="edge14_Node000005_Node000012" class="edge">
<title>Node5&#45;&gt;Node12</title>
<g id="a_edge14_Node000005_Node000012"><a xlink:title=" ">
<path fill="none" stroke="#63b8ff" d="M499.71,-87.62C491.87,-87.62 483.87,-87.62 475.98,-87.62"/>
<polygon fill="#63b8ff" stroke="#63b8ff" points="499.52,-91.13 509.52,-87.63 499.52,-84.13 499.52,-91.13"/>
</a>
</g>
</g>
<!-- Node7 -->
<g id="Node000007" class="node">
<title>Node7</title>
<g id="a_Node000007"><a xlink:href="../../d3/d0d/group__qkv____ll____hat.html#ga313baf3168441e27beea8c21f619396b" target="_top" xlink:title="Move the enumerator to a given key if it is present in the qhat or to the first following one otherwi...">
<polygon fill="white" stroke="#666666" points="274.25,-219.25 156.25,-219.25 156.25,-200 274.25,-200 274.25,-219.25"/>
<text text-anchor="middle" x="215.25" y="-205.75" font-family="Helvetica,sans-Serif" font-size="10.00">qhat_enumerator_go_to</text>
</a>
</g>
</g>
<!-- Node6&#45;&gt;Node7 -->
<g id="edge9_Node000006_Node000007" class="edge">
<title>Node6&#45;&gt;Node7</title>
<g id="a_edge9_Node000006_Node000007"><a xlink:title=" ">
<path fill="none" stroke="#63b8ff" d="M327.48,-183.35C304.34,-188.81 279.37,-194.71 258.96,-199.53"/>
<polygon fill="#63b8ff" stroke="#63b8ff" points="328.26,-186.76 337.18,-181.05 326.65,-179.95 328.26,-186.76"/>
</a>
</g>
</g>
<!-- Node8 -->
<g id="Node000008" class="node">
<title>Node8</title>
<g id="a_Node000008"><a xlink:href="../../d7/d31/group__qkv____ll____bitmap.html#ga66913ebe9b3ffe78274658055ccb8c95" target="_top" xlink:title=" ">
<polygon fill="white" stroke="#666666" points="275.38,-181.88 155.12,-181.88 155.12,-151.38 275.38,-151.38 275.38,-181.88"/>
<text text-anchor="start" x="163.12" y="-168.38" font-family="Helvetica,sans-Serif" font-size="10.00">qps_bitmap_enumerator</text>
<text text-anchor="middle" x="215.25" y="-157.12" font-family="Helvetica,sans-Serif" font-size="10.00">_go_to</text>
</a>
</g>
</g>
<!-- Node6&#45;&gt;Node8 -->
<g id="edge10_Node000006_Node000008" class="edge">
<title>Node6&#45;&gt;Node8</title>
<g id="a_edge10_Node000006_Node000008"><a xlink:title=" ">
<path fill="none" stroke="#63b8ff" d="M327.56,-166.62C310.41,-166.62 292.24,-166.62 275.67,-166.62"/>
<polygon fill="#63b8ff" stroke="#63b8ff" points="327.14,-170.13 337.14,-166.63 327.14,-163.13 327.14,-170.13"/>
</a>
</g>
</g>
<!-- Node10 -->
<g id="Node000010" class="node">
<title>Node10</title>
<g id="a_Node000010"><a xlink:href="../../d3/d0d/group__qkv____ll____hat.html#gafdda19a7dd5d3d13eb22cc47fe27cde0" target="_top" xlink:title="Move the enumerator to the next key of the qhat.">
<polygon fill="white" stroke="#666666" points="271.25,-56.25 159.25,-56.25 159.25,-37 271.25,-37 271.25,-56.25"/>
<text text-anchor="middle" x="215.25" y="-42.75" font-family="Helvetica,sans-Serif" font-size="10.00">qhat_enumerator_next</text>
</a>
</g>
</g>
<!-- Node9&#45;&gt;Node10 -->
<g id="edge12_Node000009_Node000010" class="edge">
<title>Node9&#45;&gt;Node10</title>
<g id="a_edge12_Node000009_Node000010"><a xlink:title=" ">
<path fill="none" stroke="#63b8ff" d="M327.33,-45.4C308.85,-45.61 289.21,-45.82 271.66,-46.02"/>
<polygon fill="#63b8ff" stroke="#63b8ff" points="327.18,-48.91 337.14,-45.3 327.11,-41.91 327.18,-48.91"/>
</a>
</g>
</g>
<!-- Node11 -->
<g id="Node000011" class="node">
<title>Node11</title>
<g id="a_Node000011"><a xlink:href="../../d7/d31/group__qkv____ll____bitmap.html#gae1a59b44c58217a87b9a682aa4452d15" target="_top" xlink:title=" ">
<polygon fill="white" stroke="#666666" points="287,-19.25 143.5,-19.25 143.5,0 287,0 287,-19.25"/>
<text text-anchor="middle" x="215.25" y="-5.75" font-family="Helvetica,sans-Serif" font-size="10.00">qps_bitmap_enumerator_next</text>
</a>
</g>
</g>
<!-- Node9&#45;&gt;Node11 -->
<g id="edge13_Node000009_Node000011" class="edge">
<title>Node9&#45;&gt;Node11</title>
<g id="a_edge13_Node000009_Node000011"><a xlink:title=" ">
<path fill="none" stroke="#63b8ff" d="M327.6,-31.04C307.97,-27.26 287.01,-23.23 268.62,-19.7"/>
<polygon fill="#63b8ff" stroke="#63b8ff" points="326.69,-34.43 337.17,-32.88 328.01,-27.55 326.69,-34.43"/>
</a>
</g>
</g>
<!-- Node13 -->
<g id="Node000013" class="node">
<title>Node13</title>
<g id="a_Node000013"><a xlink:href="../../d3/d0d/group__qkv____ll____hat.html#ga8c2aa1697f395cec342e7cd4475ed6df" target="_top" xlink:title=" ">
<polygon fill="white" stroke="#666666" points="275.75,-133.25 154.75,-133.25 154.75,-114 275.75,-114 275.75,-133.25"/>
<text text-anchor="middle" x="215.25" y="-119.75" font-family="Helvetica,sans-Serif" font-size="10.00">qhat_get_enumerator_at</text>
</a>
</g>
</g>
<!-- Node12&#45;&gt;Node13 -->
<g id="edge15_Node000012_Node000013" class="edge">
<title>Node12&#45;&gt;Node13</title>
<g id="a_edge15_Node000012_Node000013"><a xlink:title=" ">
<path fill="none" stroke="#63b8ff" d="M335.98,-99.94C313.62,-104.37 288.67,-109.3 267.36,-113.51"/>
<polygon fill="#63b8ff" stroke="#63b8ff" points="336.45,-103.42 345.58,-98.04 335.09,-96.55 336.45,-103.42"/>
</a>
</g>
</g>
<!-- Node15 -->
<g id="Node000015" class="node">
<title>Node15</title>
<g id="a_Node000015"><a xlink:href="../../d7/d31/group__qkv____ll____bitmap.html#ga1fcba2838447d0d9ca95eb50bdf7d190" target="_top" xlink:title=" ">
<polygon fill="white" stroke="#666666" points="284.75,-96.25 145.75,-96.25 145.75,-77 284.75,-77 284.75,-96.25"/>
<text text-anchor="middle" x="215.25" y="-82.75" font-family="Helvetica,sans-Serif" font-size="10.00">qps_bitmap_get_enumerator</text>
</a>
</g>
</g>
<!-- Node12&#45;&gt;Node15 -->
<g id="edge17_Node000012_Node000015" class="edge">
<title>Node12&#45;&gt;Node15</title>
<g id="a_edge17_Node000012_Node000015"><a xlink:title=" ">
<path fill="none" stroke="#63b8ff" d="M311.23,-87.15C302.5,-87.1 293.72,-87.05 285.22,-87"/>
<polygon fill="#63b8ff" stroke="#63b8ff" points="311.11,-90.65 321.13,-87.2 311.15,-83.65 311.11,-90.65"/>
</a>
</g>
</g>
<!-- Node14 -->
<g id="Node000014" class="node">
<title>Node14</title>
<g id="a_Node000014"><a xlink:href="../../d3/d0d/group__qkv____ll____hat.html#ga9d2ba6ff3a64e3bb9d505d6c2ad50f7c" target="_top" xlink:title=" ">
<polygon fill="white" stroke="#666666" points="107.5,-133.25 0,-133.25 0,-114 107.5,-114 107.5,-133.25"/>
<text text-anchor="middle" x="53.75" y="-119.75" font-family="Helvetica,sans-Serif" font-size="10.00">qhat_get_enumerator</text>
</a>
</g>
</g>
<!-- Node13&#45;&gt;Node14 -->
<g id="edge16_Node000013_Node000014" class="edge">
<title>Node13&#45;&gt;Node14</title>
<g id="a_edge16_Node000013_Node000014"><a xlink:title=" ">
<path fill="none" stroke="#63b8ff" d="M143.14,-123.62C131.28,-123.62 119.16,-123.62 107.85,-123.62"/>
<polygon fill="#63b8ff" stroke="#63b8ff" points="142.89,-127.13 152.89,-123.63 142.89,-120.13 142.89,-127.13"/>
</a>
</g>
</g>
</g>
</svg>
