<?xml version="1.0" encoding="UTF-8" standalone="no"?>
<!DOCTYPE svg PUBLIC "-//W3C//DTD SVG 1.1//EN"
 "http://www.w3.org/Graphics/SVG/1.1/DTD/svg11.dtd">
<!-- Generated by graphviz version 9.0.0 (20230911.1827)
 -->
<!-- Title: qps_bitmap_init Pages: 1 -->
<svg width="660pt" height="103pt"
 viewBox="0.00 0.00 659.50 103.25" xmlns="http://www.w3.org/2000/svg" xmlns:xlink="http://www.w3.org/1999/xlink">
<g id="graph0" class="graph" transform="scale(1 1) rotate(0) translate(4 99.25)">
<title>qps_bitmap_init</title>
<!-- Node1 -->
<g id="Node000001" class="node">
<title>Node1</title>
<g id="a_Node000001"><a xlink:title=" ">
<polygon fill="#999999" stroke="#666666" points="84.25,-38.25 0,-38.25 0,-19 84.25,-19 84.25,-38.25"/>
<text text-anchor="middle" x="42.12" y="-24.75" font-family="Helvetica,sans-Serif" font-size="10.00">qps_bitmap_init</text>
</a>
</g>
</g>
<!-- Node2 -->
<g id="Node000002" class="node">
<title>Node2</title>
<g id="a_Node000002"><a xlink:href="../../d4/d36/group__qkv____ll____qps.html#ga12922c582aa992fb1a120cfebd53b7fa" target="_top" xlink:title=" ">
<polygon fill="white" stroke="#666666" points="191.75,-57.25 120.25,-57.25 120.25,-38 191.75,-38 191.75,-57.25"/>
<text text-anchor="middle" x="156" y="-43.75" font-family="Helvetica,sans-Serif" font-size="10.00">qps_hptr_init</text>
</a>
</g>
</g>
<!-- Node1&#45;&gt;Node2 -->
<g id="edge1_Node000001_Node000002" class="edge">
<title>Node1&#45;&gt;Node2</title>
<g id="a_edge1_Node000001_Node000002"><a xlink:title=" ">
<path fill="none" stroke="#63b8ff" d="M84.47,-35.65C92.42,-37 100.8,-38.42 108.89,-39.79"/>
<polygon fill="#63b8ff" stroke="#63b8ff" points="108.13,-43.22 118.58,-41.44 109.3,-36.31 108.13,-43.22"/>
</a>
</g>
</g>
<!-- Node8 -->
<g id="Node000008" class="node">
<title>Node8</title>
<g id="a_Node000008"><a xlink:href="../../d8/d6c/core_2str_8h.html#a92b107f7a7bb4e0fb29239f766a3e328" target="_top" xlink:title=" ">
<polygon fill="white" stroke="#666666" points="181.25,-20.25 130.75,-20.25 130.75,-1 181.25,-1 181.25,-20.25"/>
<text text-anchor="middle" x="156" y="-6.75" font-family="Helvetica,sans-Serif" font-size="10.00">strequal</text>
</a>
</g>
</g>
<!-- Node1&#45;&gt;Node8 -->
<g id="edge8_Node000001_Node000008" class="edge">
<title>Node1&#45;&gt;Node8</title>
<g id="a_edge8_Node000001_Node000008"><a xlink:title=" ">
<path fill="none" stroke="#63b8ff" d="M84.47,-21.97C95.92,-20.13 108.26,-18.15 119.36,-16.36"/>
<polygon fill="#63b8ff" stroke="#63b8ff" points="119.58,-19.87 128.9,-14.82 118.47,-12.96 119.58,-19.87"/>
</a>
</g>
</g>
<!-- Node3 -->
<g id="Node000003" class="node">
<title>Node3</title>
<g id="a_Node000003"><a xlink:href="../../d4/d36/group__qkv____ll____qps.html#ga0a47f47d60aa3639eeb02904b772dbf0" target="_top" xlink:title=" ">
<polygon fill="white" stroke="#666666" points="320.25,-57.25 227.75,-57.25 227.75,-38 320.25,-38 320.25,-57.25"/>
<text text-anchor="middle" x="274" y="-43.75" font-family="Helvetica,sans-Serif" font-size="10.00">qps_handle_deref</text>
</a>
</g>
</g>
<!-- Node2&#45;&gt;Node3 -->
<g id="edge2_Node000002_Node000003" class="edge">
<title>Node2&#45;&gt;Node3</title>
<g id="a_edge2_Node000002_Node000003"><a xlink:title=" ">
<path fill="none" stroke="#63b8ff" d="M192.12,-47.62C199.64,-47.62 207.78,-47.62 215.89,-47.62"/>
<polygon fill="#63b8ff" stroke="#63b8ff" points="215.76,-51.13 225.76,-47.63 215.76,-44.13 215.76,-51.13"/>
</a>
</g>
</g>
<!-- Node4 -->
<g id="Node000004" class="node">
<title>Node4</title>
<g id="a_Node000004"><a xlink:href="../../d4/d36/group__qkv____ll____qps.html#ga7c134b98e149f056c7e16308663cc3ff" target="_top" xlink:title=" ">
<polygon fill="white" stroke="#666666" points="489.25,-95.25 356.25,-95.25 356.25,-76 489.25,-76 489.25,-95.25"/>
<text text-anchor="middle" x="422.75" y="-81.75" font-family="Helvetica,sans-Serif" font-size="10.00">qps_handle_allow_memory</text>
</a>
</g>
</g>
<!-- Node3&#45;&gt;Node4 -->
<g id="edge3_Node000003_Node000004" class="edge">
<title>Node3&#45;&gt;Node4</title>
<g id="a_edge3_Node000003_Node000004"><a xlink:title=" ">
<path fill="none" stroke="#63b8ff" d="M313.94,-57.71C331.67,-62.3 352.88,-67.79 371.77,-72.68"/>
<polygon fill="#63b8ff" stroke="#63b8ff" points="370.86,-76.06 381.42,-75.18 372.61,-69.29 370.86,-76.06"/>
</a>
</g>
</g>
<!-- Node6 -->
<g id="Node000006" class="node">
<title>Node6</title>
<g id="a_Node000006"><a xlink:href="../../d4/d36/group__qkv____ll____qps.html#ga84180dfcbb44d7244b1ec0b81022e09c" target="_top" xlink:title=" ">
<polygon fill="white" stroke="#666666" points="625.62,-58.25 551.12,-58.25 551.12,-39 625.62,-39 625.62,-58.25"/>
<text text-anchor="middle" x="588.38" y="-44.75" font-family="Helvetica,sans-Serif" font-size="10.00">qps_pg_deref</text>
</a>
</g>
</g>
<!-- Node3&#45;&gt;Node6 -->
<g id="edge7_Node000003_Node000006" class="edge">
<title>Node3&#45;&gt;Node6</title>
<g id="a_edge7_Node000003_Node000006"><a xlink:title=" ">
<path fill="none" stroke="#63b8ff" d="M320.42,-47.77C378.8,-47.96 479.71,-48.28 539.33,-48.47"/>
<polygon fill="#63b8ff" stroke="#63b8ff" points="539.16,-51.97 549.17,-48.5 539.18,-44.97 539.16,-51.97"/>
</a>
</g>
</g>
<!-- Node7 -->
<g id="Node000007" class="node">
<title>Node7</title>
<g id="a_Node000007"><a xlink:href="../../d4/d36/group__qkv____ll____qps.html#ga308fba36a1e8e39cefd304a3502fbf27" target="_top" xlink:title=" ">
<polygon fill="white" stroke="#666666" points="466,-19.25 379.5,-19.25 379.5,0 466,0 466,-19.25"/>
<text text-anchor="middle" x="422.75" y="-5.75" font-family="Helvetica,sans-Serif" font-size="10.00">qps_handle_slot</text>
</a>
</g>
</g>
<!-- Node3&#45;&gt;Node7 -->
<g id="edge6_Node000003_Node000007" class="edge">
<title>Node3&#45;&gt;Node7</title>
<g id="a_edge6_Node000003_Node000007"><a xlink:title=" ">
<path fill="none" stroke="#63b8ff" d="M313.94,-37.54C331.67,-32.95 352.88,-27.46 371.77,-22.57"/>
<polygon fill="#63b8ff" stroke="#63b8ff" points="372.61,-25.96 381.42,-20.07 370.86,-19.19 372.61,-25.96"/>
</a>
</g>
</g>
<!-- Node5 -->
<g id="Node000005" class="node">
<title>Node5</title>
<g id="a_Node000005"><a xlink:href="../../d8/d37/mem_8blk.html#ab1e585a4f25d3d3c3dd6512cf31f923e" target="_top" xlink:title=" ">
<polygon fill="white" stroke="#666666" points="651.5,-95.25 525.25,-95.25 525.25,-76 651.5,-76 651.5,-95.25"/>
<text text-anchor="middle" x="588.38" y="-81.75" font-family="Helvetica,sans-Serif" font-size="10.00">mem_tool_allow_memory</text>
</a>
</g>
</g>
<!-- Node4&#45;&gt;Node5 -->
<g id="edge4_Node000004_Node000005" class="edge">
<title>Node4&#45;&gt;Node5</title>
<g id="a_edge4_Node000004_Node000005"><a xlink:title=" ">
<path fill="none" stroke="#63b8ff" d="M489.36,-85.62C497.34,-85.62 505.53,-85.62 513.61,-85.62"/>
<polygon fill="#63b8ff" stroke="#63b8ff" points="513.43,-89.13 523.43,-85.63 513.43,-82.13 513.43,-89.13"/>
</a>
</g>
</g>
<!-- Node4&#45;&gt;Node6 -->
<g id="edge5_Node000004_Node000006" class="edge">
<title>Node4&#45;&gt;Node6</title>
<g id="a_edge5_Node000004_Node000006"><a xlink:title=" ">
<path fill="none" stroke="#63b8ff" d="M468.46,-75.51C490.56,-70.52 517.24,-64.48 539.72,-59.4"/>
<polygon fill="#63b8ff" stroke="#63b8ff" points="540.26,-62.87 549.24,-57.25 538.72,-56.04 540.26,-62.87"/>
</a>
</g>
</g>
</g>
</svg>
