<?xml version="1.0" encoding="UTF-8" standalone="no"?>
<!DOCTYPE svg PUBLIC "-//W3C//DTD SVG 1.1//EN"
 "http://www.w3.org/Graphics/SVG/1.1/DTD/svg11.dtd">
<!-- Generated by graphviz version 9.0.0 (20230911.1827)
 -->
<!-- Title: file_open_at Pages: 1 -->
<svg width="424pt" height="76pt"
 viewBox="0.00 0.00 423.75 75.88" xmlns="http://www.w3.org/2000/svg" xmlns:xlink="http://www.w3.org/1999/xlink">
<g id="graph0" class="graph" transform="scale(1 1) rotate(0) translate(4 71.88)">
<title>file_open_at</title>
<!-- Node1 -->
<g id="Node000001" class="node">
<title>Node1</title>
<g id="a_Node000001"><a xlink:title=" ">
<polygon fill="#999999" stroke="#666666" points="67.75,-40.25 0,-40.25 0,-21 67.75,-21 67.75,-40.25"/>
<text text-anchor="middle" x="33.88" y="-26.75" font-family="Helvetica,sans-Serif" font-size="10.00">file_open_at</text>
</a>
</g>
</g>
<!-- Node2 -->
<g id="Node000002" class="node">
<title>Node2</title>
<g id="a_Node000002"><a xlink:href="../../d6/d13/file_8c.html#a51a500fc35e0ab21ecb657b00afa96f9" target="_top" xlink:title=" ">
<polygon fill="white" stroke="#666666" points="197,-67.88 103.75,-67.88 103.75,-37.38 197,-37.38 197,-67.88"/>
<text text-anchor="start" x="111.75" y="-54.38" font-family="Helvetica,sans-Serif" font-size="10.00">file_flags_to_open</text>
<text text-anchor="middle" x="150.38" y="-43.12" font-family="Helvetica,sans-Serif" font-size="10.00">_flags</text>
</a>
</g>
</g>
<!-- Node1&#45;&gt;Node2 -->
<g id="edge1_Node000001_Node000002" class="edge">
<title>Node1&#45;&gt;Node2</title>
<g id="a_edge1_Node000001_Node000002"><a xlink:title=" ">
<path fill="none" stroke="#63b8ff" d="M67.99,-36.99C75.62,-38.45 83.95,-40.05 92.27,-41.65"/>
<polygon fill="#63b8ff" stroke="#63b8ff" points="91.59,-45.09 102.07,-43.54 92.91,-38.21 91.59,-45.09"/>
</a>
</g>
</g>
<!-- Node3 -->
<g id="Node000003" class="node">
<title>Node3</title>
<g id="a_Node000003"><a xlink:href="../../dc/d31/str-buf_8h.html#a28a37219e3d2287e3ead464da4894790" target="_top" xlink:title=" ">
<polygon fill="white" stroke="#666666" points="172.62,-19.25 128.12,-19.25 128.12,0 172.62,0 172.62,-19.25"/>
<text text-anchor="middle" x="150.38" y="-5.75" font-family="Helvetica,sans-Serif" font-size="10.00">sb_init</text>
</a>
</g>
</g>
<!-- Node1&#45;&gt;Node3 -->
<g id="edge2_Node000001_Node000003" class="edge">
<title>Node1&#45;&gt;Node3</title>
<g id="a_edge2_Node000001_Node000003"><a xlink:title=" ">
<path fill="none" stroke="#63b8ff" d="M67.99,-24.55C83.36,-21.73 101.57,-18.39 116.86,-15.59"/>
<polygon fill="#63b8ff" stroke="#63b8ff" points="117.2,-19.08 126.4,-13.84 115.94,-12.2 117.2,-19.08"/>
</a>
</g>
</g>
<!-- Node4 -->
<g id="Node000004" class="node">
<title>Node4</title>
<g id="a_Node000004"><a xlink:href="../../dc/d31/str-buf_8h.html#a6dc2ca5bc1506b37f95463e6abe4e201" target="_top" xlink:title=" ">
<polygon fill="white" stroke="#666666" points="295.5,-19.25 233,-19.25 233,0 295.5,0 295.5,-19.25"/>
<text text-anchor="middle" x="264.25" y="-5.75" font-family="Helvetica,sans-Serif" font-size="10.00">sb_init_full</text>
</a>
</g>
</g>
<!-- Node3&#45;&gt;Node4 -->
<g id="edge3_Node000003_Node000004" class="edge">
<title>Node3&#45;&gt;Node4</title>
<g id="a_edge3_Node000003_Node000004"><a xlink:title=" ">
<path fill="none" stroke="#63b8ff" d="M172.95,-9.62C186.77,-9.62 205.17,-9.62 221.75,-9.62"/>
<polygon fill="#63b8ff" stroke="#63b8ff" points="221.35,-13.13 231.35,-9.63 221.35,-6.13 221.35,-13.13"/>
</a>
</g>
</g>
<!-- Node5 -->
<g id="Node000005" class="node">
<title>Node5</title>
<g id="a_Node000005"><a xlink:href="../../dc/d31/str-buf_8h.html#a01c1a4f8ed76b6a919595b803c7d7376" target="_top" xlink:title=" ">
<polygon fill="white" stroke="#666666" points="415.75,-19.25 331.5,-19.25 331.5,0 415.75,0 415.75,-19.25"/>
<text text-anchor="middle" x="373.62" y="-5.75" font-family="Helvetica,sans-Serif" font-size="10.00">sb_set_trailing0</text>
</a>
</g>
</g>
<!-- Node4&#45;&gt;Node5 -->
<g id="edge4_Node000004_Node000005" class="edge">
<title>Node4&#45;&gt;Node5</title>
<g id="a_edge4_Node000004_Node000005"><a xlink:title=" ">
<path fill="none" stroke="#63b8ff" d="M295.73,-9.62C303.32,-9.62 311.67,-9.62 319.99,-9.62"/>
<polygon fill="#63b8ff" stroke="#63b8ff" points="319.73,-13.13 329.73,-9.63 319.73,-6.13 319.73,-13.13"/>
</a>
</g>
</g>
</g>
</svg>
