<?xml version="1.0" encoding="UTF-8" standalone="no"?>
<!DOCTYPE svg PUBLIC "-//W3C//DTD SVG 1.1//EN"
 "http://www.w3.org/Graphics/SVG/1.1/DTD/svg11.dtd">
<!-- Generated by graphviz version 9.0.0 (20230911.1827)
 -->
<!-- Title: lstr_ascii_tolower Pages: 1 -->
<!--zoomable 213 -->

<svg id="main" version="1.1" xmlns="http://www.w3.org/2000/svg" xmlns:xlink="http://www.w3.org/1999/xlink" xml:space="preserve" onload="init(evt)">
<style type="text/css"><![CDATA[
.node, .edge {opacity: 0.7;}
.node.selected, .edge.selected {opacity: 1;}
.edge:hover path { stroke: red; }
.edge:hover polygon { stroke: red; fill: red; }
]]></style>

<defs>
  <circle id="rim" cx="0" cy="0" r="7"/>
  <circle id="rim2" cx="0" cy="0" r="3.5"/>
  <g id="zoomPlus">
    <use xlink:href="#rim" fill="#404040"><set attributeName="fill" to="#808080" begin="zoomplus.mouseover" end="zoomplus.mouseout"/></use>
    <path d="M-4,0h8M0,-4v8" fill="none" stroke="white" stroke-width="1.5" pointer-events="none"/>
  </g>
  <g id="zoomMin">
    <use xlink:href="#rim" fill="#404040"><set attributeName="fill" to="#808080" begin="zoomminus.mouseover" end="zoomminus.mouseout"/></use>
    <path d="M-4,0h8" fill="none" stroke="white" stroke-width="1.5" pointer-events="none"/>
  </g>
  <g id="arrowUp" transform="translate(30 24)">
    <use xlink:href="#rim"/>
    <path pointer-events="none" fill="none" stroke="white" stroke-width="1.5" d="M0,-3.0v7 M-2.5,-0.5L0,-3.0L2.5,-0.5"/>
  </g>
  <g id="arrowRight" transform="rotate(90) translate(36 -43)">
    <use xlink:href="#rim"/>
    <path pointer-events="none" fill="none" stroke="white" stroke-width="1.5" d="M0,-3.0v7 M-2.5,-0.5L0,-3.0L2.5,-0.5"/>
  </g>
  <g id="arrowDown" transform="rotate(180) translate(-30 -48)">
    <use xlink:href="#rim"/>
    <path pointer-events="none" fill="none" stroke="white" stroke-width="1.5" d="M0,-3.0v7 M-2.5,-0.5L0,-3.0L2.5,-0.5"/>
  </g>
  <g id="arrowLeft" transform="rotate(270) translate(-36 17)">
    <use xlink:href="#rim"/>
    <path pointer-events="none" fill="none" stroke="white" stroke-width="1.5" d="M0,-3.0v7 M-2.5,-0.5L0,-3.0L2.5,-0.5"/>
  </g>
  <g id="resetDef">
    <use xlink:href="#rim2" fill="#404040"><set attributeName="fill" to="#808080" begin="reset.mouseover" end="reset.mouseout"/></use>
  </g>
</defs>
<script type="application/ecmascript">
var viewWidth = 2876;
var viewHeight = 213;
var sectionId = 'dynsection-4';
</script>
<script type="application/ecmascript" xlink:href="../../svg.min.js"/>
<svg id="graph" class="graph">
<g id="viewport">
<title>lstr_ascii_tolower</title>
<!-- Node1 -->
<g id="Node000001" class="node">
<title>Node1</title>
<g id="a_Node000001"><a xlink:title="In&#45;place version of t_lstr_ascii_tolower.">
<polygon fill="#999999" stroke="#666666" points="2868.25,-96.25 2776.5,-96.25 2776.5,-77 2868.25,-77 2868.25,-96.25"/>
<text text-anchor="middle" x="2822.38" y="-82.75" font-family="Helvetica,sans-Serif" font-size="10.00">lstr_ascii_tolower</text>
</a>
</g>
</g>
<!-- Node2 -->
<g id="Node000002" class="node">
<title>Node2</title>
<g id="a_Node000002"><a xlink:href="../../d9/dd5/hpack_8c.html#ae5cc89b8601c165ee9dedfb4aee93769" target="_top" xlink:title="Write a single hdr to out using the encoding options in flags.">
<polygon fill="white" stroke="#666666" points="2740.5,-115.25 2613.5,-115.25 2613.5,-96 2740.5,-96 2740.5,-115.25"/>
<text text-anchor="middle" x="2677" y="-101.75" font-family="Helvetica,sans-Serif" font-size="10.00">hpack_encoder_write_hdr</text>
</a>
</g>
</g>
<!-- Node1&#45;&gt;Node2 -->
<g id="edge1_Node000001_Node000002" class="edge">
<title>Node1&#45;&gt;Node2</title>
<g id="a_edge1_Node000001_Node000002"><a xlink:title=" ">
<path fill="none" stroke="#63b8ff" d="M2764.75,-94.13C2756.92,-95.17 2748.83,-96.24 2740.89,-97.29"/>
<polygon fill="#63b8ff" stroke="#63b8ff" points="2765.06,-97.62 2774.51,-92.84 2764.14,-90.68 2765.06,-97.62"/>
</a>
</g>
</g>
<!-- Node34 -->
<g id="Node000034" class="node">
<title>Node34</title>
<g id="a_Node000034"><a xlink:href="../../de/d04/str-l_8c.html#a87620d7a12933dac6ad27c97c5082218" target="_top" xlink:title="Lower case the given lstr.">
<polygon fill="white" stroke="#666666" points="2727,-78.25 2627,-78.25 2627,-59 2727,-59 2727,-78.25"/>
<text text-anchor="middle" x="2677" y="-64.75" font-family="Helvetica,sans-Serif" font-size="10.00">t_lstr_ascii_tolower</text>
</a>
</g>
</g>
<!-- Node1&#45;&gt;Node34 -->
<g id="edge37_Node000001_Node000034" class="edge">
<title>Node1&#45;&gt;Node34</title>
<g id="a_edge37_Node000001_Node000034"><a xlink:title=" ">
<path fill="none" stroke="#63b8ff" d="M2764.84,-79.53C2752.43,-77.97 2739.39,-76.33 2727.29,-74.81"/>
<polygon fill="#63b8ff" stroke="#63b8ff" points="2764.15,-82.97 2774.51,-80.74 2765.02,-76.02 2764.15,-82.97"/>
</a>
</g>
</g>
<!-- Node3 -->
<g id="Node000003" class="node">
<title>Node3</title>
<g id="a_Node000003"><a xlink:href="../../dd/d4a/net_2http_8c.html#ac5d8ddf5451e78c514860456a1d3ae57" target="_top" xlink:title=" ">
<polygon fill="white" stroke="#666666" points="2577.5,-115.25 2437.75,-115.25 2437.75,-96 2577.5,-96 2577.5,-115.25"/>
<text text-anchor="middle" x="2507.62" y="-101.75" font-family="Helvetica,sans-Serif" font-size="10.00">http2_conn_pack_single_hdr</text>
</a>
</g>
</g>
<!-- Node2&#45;&gt;Node3 -->
<g id="edge2_Node000002_Node000003" class="edge">
<title>Node2&#45;&gt;Node3</title>
<g id="a_edge2_Node000002_Node000003"><a xlink:title=" ">
<path fill="none" stroke="#63b8ff" d="M2601.73,-105.62C2593.82,-105.62 2585.8,-105.62 2577.95,-105.62"/>
<polygon fill="#63b8ff" stroke="#63b8ff" points="2601.69,-109.13 2611.69,-105.63 2601.69,-102.13 2601.69,-109.13"/>
</a>
</g>
</g>
<!-- Node4 -->
<g id="Node000004" class="node">
<title>Node4</title>
<g id="a_Node000004"><a xlink:href="../../dd/d4a/net_2http_8c.html#aad543226bda8b421c1191f384d1a6fb8" target="_top" xlink:title=" ">
<polygon fill="white" stroke="#666666" points="2398,-191.88 2261.25,-191.88 2261.25,-161.38 2398,-161.38 2398,-191.88"/>
<text text-anchor="start" x="2269.25" y="-178.38" font-family="Helvetica,sans-Serif" font-size="10.00">http2_stream_send_request</text>
<text text-anchor="middle" x="2329.62" y="-167.12" font-family="Helvetica,sans-Serif" font-size="10.00">_headers</text>
</a>
</g>
</g>
<!-- Node3&#45;&gt;Node4 -->
<g id="edge3_Node000003_Node000004" class="edge">
<title>Node3&#45;&gt;Node4</title>
<g id="a_edge3_Node000003_Node000004"><a xlink:title=" ">
<path fill="none" stroke="#63b8ff" d="M2474.73,-120.36C2454.08,-129.72 2426.52,-141.86 2401.75,-151.62 2393.71,-154.79 2385.09,-157.99 2376.73,-160.99"/>
<polygon fill="#63b8ff" stroke="#63b8ff" points="2476.11,-123.58 2483.76,-116.25 2473.2,-117.21 2476.11,-123.58"/>
</a>
</g>
</g>
<!-- Node26 -->
<g id="Node000026" class="node">
<title>Node26</title>
<g id="a_Node000026"><a xlink:href="../../dd/d4a/net_2http_8c.html#a4c023d33dc7af6d682c7d34efc96c841" target="_top" xlink:title=" ">
<polygon fill="white" stroke="#666666" points="2401.75,-142.88 2257.5,-142.88 2257.5,-112.38 2401.75,-112.38 2401.75,-142.88"/>
<text text-anchor="start" x="2265.5" y="-129.38" font-family="Helvetica,sans-Serif" font-size="10.00">http2_stream_send_response</text>
<text text-anchor="middle" x="2329.62" y="-118.12" font-family="Helvetica,sans-Serif" font-size="10.00">_headers</text>
</a>
</g>
</g>
<!-- Node3&#45;&gt;Node26 -->
<g id="edge25_Node000003_Node000026" class="edge">
<title>Node3&#45;&gt;Node26</title>
<g id="a_edge25_Node000003_Node000026"><a xlink:title=" ">
<path fill="none" stroke="#63b8ff" d="M2426.11,-115.69C2418.13,-116.69 2410.07,-117.69 2402.18,-118.68"/>
<polygon fill="#63b8ff" stroke="#63b8ff" points="2426.33,-119.19 2435.82,-114.48 2425.46,-112.24 2426.33,-119.19"/>
</a>
</g>
</g>
<!-- Node29 -->
<g id="Node000029" class="node">
<title>Node29</title>
<g id="a_Node000029"><a xlink:href="../../dd/d4a/net_2http_8c.html#a0947c769a30f7d6bced8508522992f8f" target="_top" xlink:title=" ">
<polygon fill="white" stroke="#666666" points="1743.75,-94.25 1644.5,-94.25 1644.5,-75 1743.75,-75 1743.75,-94.25"/>
<text text-anchor="middle" x="1694.12" y="-80.75" font-family="Helvetica,sans-Serif" font-size="10.00">z_http2_write_reply</text>
</a>
</g>
</g>
<!-- Node3&#45;&gt;Node29 -->
<g id="edge29_Node000003_Node000029" class="edge">
<title>Node3&#45;&gt;Node29</title>
<g id="a_edge29_Node000003_Node000029"><a xlink:title=" ">
<path fill="none" stroke="#63b8ff" d="M2426.24,-97.94C2356.6,-91.94 2253.12,-84.62 2162.75,-84.62 2162.75,-84.62 2162.75,-84.62 2005.25,-84.62 1912.91,-84.62 1805.11,-84.62 1744,-84.62"/>
<polygon fill="#63b8ff" stroke="#63b8ff" points="2425.77,-101.41 2436.03,-98.79 2426.38,-94.43 2425.77,-101.41"/>
</a>
</g>
</g>
<!-- Node5 -->
<g id="Node000005" class="node">
<title>Node5</title>
<g id="a_Node000005"><a xlink:href="../../dd/d4a/net_2http_8c.html#ae0cb7d72f5fab4d2156d1e8ccb7edf78" target="_top" xlink:title=" ">
<polygon fill="white" stroke="#666666" points="2214.38,-191.88 2109.12,-191.88 2109.12,-161.38 2214.38,-161.38 2214.38,-191.88"/>
<text text-anchor="start" x="2117.12" y="-178.38" font-family="Helvetica,sans-Serif" font-size="10.00">http2_stream_attach</text>
<text text-anchor="middle" x="2161.75" y="-167.12" font-family="Helvetica,sans-Serif" font-size="10.00">_httpc</text>
</a>
</g>
</g>
<!-- Node4&#45;&gt;Node5 -->
<g id="edge4_Node000004_Node000005" class="edge">
<title>Node4&#45;&gt;Node5</title>
<g id="a_edge4_Node000004_Node000005"><a xlink:title=" ">
<path fill="none" stroke="#63b8ff" d="M2249.78,-176.62C2237.85,-176.62 2225.8,-176.62 2214.64,-176.62"/>
<polygon fill="#63b8ff" stroke="#63b8ff" points="2249.64,-180.13 2259.64,-176.63 2249.64,-173.13 2249.64,-180.13"/>
</a>
</g>
</g>
<!-- Node6 -->
<g id="Node000006" class="node">
<title>Node6</title>
<g id="a_Node000006"><a xlink:href="../../dd/d4a/net_2http_8c.html#ac8447ce72f46d5157ebc374347da10f0" target="_top" xlink:title=" ">
<polygon fill="white" stroke="#666666" points="2066,-191.88 1946.5,-191.88 1946.5,-161.38 2066,-161.38 2066,-191.88"/>
<text text-anchor="start" x="1954.5" y="-178.38" font-family="Helvetica,sans-Serif" font-size="10.00">http2_conn_stream_idle</text>
<text text-anchor="middle" x="2006.25" y="-167.12" font-family="Helvetica,sans-Serif" font-size="10.00">_httpc</text>
</a>
</g>
</g>
<!-- Node5&#45;&gt;Node6 -->
<g id="edge5_Node000005_Node000006" class="edge">
<title>Node5&#45;&gt;Node6</title>
<g id="a_edge5_Node000005_Node000006"><a xlink:title=" ">
<path fill="none" stroke="#63b8ff" d="M2097.36,-176.62C2087.08,-176.62 2076.47,-176.62 2066.3,-176.62"/>
<polygon fill="#63b8ff" stroke="#63b8ff" points="2097.27,-180.13 2107.27,-176.63 2097.27,-173.13 2097.27,-180.13"/>
</a>
</g>
</g>
<!-- Node7 -->
<g id="Node000007" class="node">
<title>Node7</title>
<g id="a_Node000007"><a xlink:href="../../dd/d4a/net_2http_8c.html#ab56b08eb153b50849ce6824fff45133c" target="_top" xlink:title=" ">
<polygon fill="white" stroke="#666666" points="1910.5,-191.88 1790.25,-191.88 1790.25,-161.38 1910.5,-161.38 1910.5,-191.88"/>
<text text-anchor="start" x="1798.25" y="-178.38" font-family="Helvetica,sans-Serif" font-size="10.00">http2_conn_on_streams</text>
<text text-anchor="middle" x="1850.38" y="-167.12" font-family="Helvetica,sans-Serif" font-size="10.00">_can_write_client</text>
</a>
</g>
</g>
<!-- Node6&#45;&gt;Node7 -->
<g id="edge6_Node000006_Node000007" class="edge">
<title>Node6&#45;&gt;Node7</title>
<g id="a_edge6_Node000006_Node000007"><a xlink:title=" ">
<path fill="none" stroke="#63b8ff" d="M1934.9,-176.62C1926.84,-176.62 1918.68,-176.62 1910.78,-176.62"/>
<polygon fill="#63b8ff" stroke="#63b8ff" points="1934.68,-180.13 1944.68,-176.63 1934.68,-173.13 1934.68,-180.13"/>
</a>
</g>
</g>
<!-- Node8 -->
<g id="Node000008" class="node">
<title>Node8</title>
<g id="a_Node000008"><a xlink:href="../../dd/d4a/net_2http_8c.html#ab1ce2354f7820e515ed425148c4e3243" target="_top" xlink:title=" ">
<polygon fill="white" stroke="#666666" points="1754.25,-154.88 1634,-154.88 1634,-124.38 1754.25,-124.38 1754.25,-154.88"/>
<text text-anchor="start" x="1642" y="-141.38" font-family="Helvetica,sans-Serif" font-size="10.00">http2_conn_on_streams</text>
<text text-anchor="middle" x="1694.12" y="-130.12" font-family="Helvetica,sans-Serif" font-size="10.00">_can_write</text>
</a>
</g>
</g>
<!-- Node7&#45;&gt;Node8 -->
<g id="edge7_Node000007_Node000008" class="edge">
<title>Node7&#45;&gt;Node8</title>
<g id="a_edge7_Node000007_Node000008"><a xlink:title=" ">
<path fill="none" stroke="#63b8ff" d="M1779.13,-159.78C1770.96,-157.82 1762.68,-155.83 1754.67,-153.91"/>
<polygon fill="#63b8ff" stroke="#63b8ff" points="1778.17,-163.14 1788.71,-162.07 1779.8,-156.34 1778.17,-163.14"/>
</a>
</g>
</g>
<!-- Node9 -->
<g id="Node000009" class="node">
<title>Node9</title>
<g id="a_Node000009"><a xlink:href="../../dd/d4a/net_2http_8c.html#aac4164640a709268a8ea3ff45c06134d" target="_top" xlink:title=" ">
<polygon fill="white" stroke="#666666" points="1598,-154.88 1494.25,-154.88 1494.25,-124.38 1598,-124.38 1598,-154.88"/>
<text text-anchor="start" x="1502.25" y="-141.38" font-family="Helvetica,sans-Serif" font-size="10.00">http2_conn_process</text>
<text text-anchor="middle" x="1546.12" y="-130.12" font-family="Helvetica,sans-Serif" font-size="10.00">_streams_output</text>
</a>
</g>
</g>
<!-- Node8&#45;&gt;Node9 -->
<g id="edge8_Node000008_Node000009" class="edge">
<title>Node8&#45;&gt;Node9</title>
<g id="a_edge8_Node000008_Node000009"><a xlink:title=" ">
<path fill="none" stroke="#63b8ff" d="M1622.41,-139.62C1614.34,-139.62 1606.24,-139.62 1598.5,-139.62"/>
<polygon fill="#63b8ff" stroke="#63b8ff" points="1622.23,-143.13 1632.23,-139.63 1622.23,-136.13 1622.23,-143.13"/>
</a>
</g>
</g>
<!-- Node10 -->
<g id="Node000010" class="node">
<title>Node10</title>
<g id="a_Node000010"><a xlink:href="../../dd/d4a/net_2http_8c.html#a7116239c9f5e15549b2c80081b8cc76d" target="_top" xlink:title=" ">
<polygon fill="white" stroke="#666666" points="1458.25,-149.25 1349.25,-149.25 1349.25,-130 1458.25,-130 1458.25,-149.25"/>
<text text-anchor="middle" x="1403.75" y="-135.75" font-family="Helvetica,sans-Serif" font-size="10.00">http2_conn_on_event</text>
</a>
</g>
</g>
<!-- Node9&#45;&gt;Node10 -->
<g id="edge9_Node000009_Node000010" class="edge">
<title>Node9&#45;&gt;Node10</title>
<g id="a_edge9_Node000009_Node000010"><a xlink:title=" ">
<path fill="none" stroke="#63b8ff" d="M1482.71,-139.62C1474.6,-139.62 1466.34,-139.62 1458.39,-139.62"/>
<polygon fill="#63b8ff" stroke="#63b8ff" points="1482.54,-143.13 1492.54,-139.63 1482.54,-136.13 1482.54,-143.13"/>
</a>
</g>
</g>
<!-- Node11 -->
<g id="Node000011" class="node">
<title>Node11</title>
<g id="a_Node000011"><a xlink:href="../../dd/d4a/net_2http_8c.html#ad211549032983c94d9f52c4522a906a6" target="_top" xlink:title=" ">
<polygon fill="white" stroke="#666666" points="1313.25,-149.25 1172.75,-149.25 1172.75,-130 1313.25,-130 1313.25,-149.25"/>
<text text-anchor="middle" x="1243" y="-135.75" font-family="Helvetica,sans-Serif" font-size="10.00">http2_conn_on_preface_wait</text>
</a>
</g>
</g>
<!-- Node10&#45;&gt;Node11 -->
<g id="edge10_Node000010_Node000011" class="edge">
<title>Node10&#45;&gt;Node11</title>
<g id="a_edge10_Node000010_Node000011"><a xlink:title=" ">
<path fill="none" stroke="#63b8ff" d="M1337.63,-139.62C1329.75,-139.62 1321.68,-139.62 1313.73,-139.62"/>
<polygon fill="#63b8ff" stroke="#63b8ff" points="1337.49,-143.13 1347.49,-139.63 1337.49,-136.13 1337.49,-143.13"/>
</a>
</g>
</g>
<!-- Node12 -->
<g id="Node000012" class="node">
<title>Node12</title>
<g id="a_Node000012"><a xlink:href="../../dd/d4a/net_2http_8c.html#a3ae7da35c16d0895aea3196afb96e16d" target="_top" xlink:title=" ">
<polygon fill="white" stroke="#666666" points="1136.75,-149.25 1017.25,-149.25 1017.25,-130 1136.75,-130 1136.75,-149.25"/>
<text text-anchor="middle" x="1077" y="-135.75" font-family="Helvetica,sans-Serif" font-size="10.00">http2_conn_on_connect</text>
</a>
</g>
</g>
<!-- Node11&#45;&gt;Node12 -->
<g id="edge11_Node000011_Node000012" class="edge">
<title>Node11&#45;&gt;Node12</title>
<g id="a_edge11_Node000011_Node000012"><a xlink:title=" ">
<path fill="none" stroke="#63b8ff" d="M1161.05,-139.62C1152.96,-139.62 1144.85,-139.62 1137.04,-139.62"/>
<polygon fill="#63b8ff" stroke="#63b8ff" points="1160.94,-143.13 1170.94,-139.63 1160.94,-136.13 1160.94,-143.13"/>
</a>
</g>
</g>
<!-- Node13 -->
<g id="Node000013" class="node">
<title>Node13</title>
<g id="a_Node000013"><a xlink:href="../../dd/d4a/net_2http_8c.html#a5754e9d15cd8048e27331bb4aaed12b7" target="_top" xlink:title=" ">
<polygon fill="white" stroke="#666666" points="976,-189.88 872.25,-189.88 872.25,-159.38 976,-159.38 976,-189.88"/>
<text text-anchor="start" x="880.25" y="-176.38" font-family="Helvetica,sans-Serif" font-size="10.00">http2_conn_connect</text>
<text text-anchor="middle" x="924.12" y="-165.12" font-family="Helvetica,sans-Serif" font-size="10.00">_client_as</text>
</a>
</g>
</g>
<!-- Node12&#45;&gt;Node13 -->
<g id="edge12_Node000012_Node000013" class="edge">
<title>Node12&#45;&gt;Node13</title>
<g id="a_edge12_Node000012_Node000013"><a xlink:title=" ">
<path fill="none" stroke="#63b8ff" d="M1021.4,-152.29C1006.71,-155.7 990.89,-159.37 976.39,-162.73"/>
<polygon fill="#63b8ff" stroke="#63b8ff" points="1021.94,-155.76 1030.89,-150.09 1020.35,-148.94 1021.94,-155.76"/>
</a>
</g>
</g>
<!-- Node23 -->
<g id="Node000023" class="node">
<title>Node23</title>
<g id="a_Node000023"><a xlink:href="../../dd/d4a/net_2http_8c.html#a3926ffca7cc91de4f1ef8ac35a7420c5" target="_top" xlink:title=" ">
<polygon fill="white" stroke="#666666" points="981.25,-141.25 867,-141.25 867,-122 981.25,-122 981.25,-141.25"/>
<text text-anchor="middle" x="924.12" y="-127.75" font-family="Helvetica,sans-Serif" font-size="10.00">httpd_spawn_as_http2</text>
</a>
</g>
</g>
<!-- Node12&#45;&gt;Node23 -->
<g id="edge22_Node000012_Node000023" class="edge">
<title>Node12&#45;&gt;Node23</title>
<g id="a_edge22_Node000012_Node000023"><a xlink:title=" ">
<path fill="none" stroke="#63b8ff" d="M1005.57,-135.89C997.56,-135.47 989.48,-135.04 981.68,-134.62"/>
<polygon fill="#63b8ff" stroke="#63b8ff" points="1005.12,-139.37 1015.29,-136.41 1005.49,-132.38 1005.12,-139.37"/>
</a>
</g>
</g>
<!-- Node14 -->
<g id="Node000014" class="node">
<title>Node14</title>
<g id="a_Node000014"><a xlink:href="../../dd/d4a/net_2http_8c.html#a7a3e350c92c5b8a0ea73161bbc780926" target="_top" xlink:title=" ">
<polygon fill="white" stroke="#666666" points="831,-184.25 722.75,-184.25 722.75,-165 831,-165 831,-184.25"/>
<text text-anchor="middle" x="776.88" y="-170.75" font-family="Helvetica,sans-Serif" font-size="10.00">http2_pool_get_client</text>
</a>
</g>
</g>
<!-- Node13&#45;&gt;Node14 -->
<g id="edge13_Node000013_Node000014" class="edge">
<title>Node13&#45;&gt;Node14</title>
<g id="a_edge13_Node000013_Node000014"><a xlink:title=" ">
<path fill="none" stroke="#63b8ff" d="M860.55,-174.62C850.73,-174.62 840.66,-174.62 831.08,-174.62"/>
<polygon fill="#63b8ff" stroke="#63b8ff" points="860.4,-178.13 870.4,-174.63 860.4,-171.13 860.4,-178.13"/>
</a>
</g>
</g>
<!-- Node15 -->
<g id="Node000015" class="node">
<title>Node15</title>
<g id="a_Node000015"><a xlink:href="../../dd/d4a/net_2http_8c.html#ae849932f9841489cefbd4761c2ad561d" target="_top" xlink:title=" ">
<polygon fill="white" stroke="#666666" points="686.75,-184.25 566.5,-184.25 566.5,-165 686.75,-165 686.75,-184.25"/>
<text text-anchor="middle" x="626.62" y="-170.75" font-family="Helvetica,sans-Serif" font-size="10.00">httpc_connect_as_http2</text>
</a>
</g>
</g>
<!-- Node14&#45;&gt;Node15 -->
<g id="edge14_Node000014_Node000015" class="edge">
<title>Node14&#45;&gt;Node15</title>
<g id="a_edge14_Node000014_Node000015"><a xlink:title=" ">
<path fill="none" stroke="#63b8ff" d="M710.9,-174.62C702.98,-174.62 694.93,-174.62 687.1,-174.62"/>
<polygon fill="#63b8ff" stroke="#63b8ff" points="710.84,-178.13 720.84,-174.63 710.84,-171.13 710.84,-178.13"/>
</a>
</g>
</g>
<!-- Node16 -->
<g id="Node000016" class="node">
<title>Node16</title>
<g id="a_Node000016"><a xlink:href="../../dd/d4a/net_2http_8c.html#a30869b3f203c5600c7c6257da47f2a43" target="_top" xlink:title=" ">
<polygon fill="white" stroke="#666666" points="530.5,-184.25 437.25,-184.25 437.25,-165 530.5,-165 530.5,-184.25"/>
<text text-anchor="middle" x="483.88" y="-170.75" font-family="Helvetica,sans-Serif" font-size="10.00">httpc_connect_as</text>
</a>
</g>
</g>
<!-- Node15&#45;&gt;Node16 -->
<g id="edge15_Node000015_Node000016" class="edge">
<title>Node15&#45;&gt;Node16</title>
<g id="a_edge15_Node000015_Node000016"><a xlink:title=" ">
<path fill="none" stroke="#63b8ff" d="M554.85,-174.62C546.69,-174.62 538.54,-174.62 530.83,-174.62"/>
<polygon fill="#63b8ff" stroke="#63b8ff" points="554.83,-178.13 564.83,-174.63 554.83,-171.13 554.83,-178.13"/>
</a>
</g>
</g>
<!-- Node17 -->
<g id="Node000017" class="node">
<title>Node17</title>
<g id="a_Node000017"><a xlink:href="../../dd/d4a/net_2http_8c.html#a6fe5d8fb56f828b9cb355eaf9bb2efa8" target="_top" xlink:title=" ">
<polygon fill="white" stroke="#666666" points="392.62,-205.25 315.12,-205.25 315.12,-186 392.62,-186 392.62,-205.25"/>
<text text-anchor="middle" x="353.88" y="-191.75" font-family="Helvetica,sans-Serif" font-size="10.00">httpc_connect</text>
</a>
</g>
</g>
<!-- Node16&#45;&gt;Node17 -->
<g id="edge16_Node000016_Node000017" class="edge">
<title>Node16&#45;&gt;Node17</title>
<g id="a_edge16_Node000016_Node000017"><a xlink:title=" ">
<path fill="none" stroke="#63b8ff" d="M425.96,-183.96C414.74,-185.8 403.22,-187.69 392.82,-189.4"/>
<polygon fill="#63b8ff" stroke="#63b8ff" points="426.23,-187.47 435.53,-182.39 425.1,-180.56 426.23,-187.47"/>
</a>
</g>
</g>
<!-- Node21 -->
<g id="Node000021" class="node">
<title>Node21</title>
<g id="a_Node000021"><a xlink:href="../../dd/d4a/net_2http_8c.html#a08d48d7c0320097b6e50119e49dd1a5d" target="_top" xlink:title=" ">
<polygon fill="white" stroke="#666666" points="401.25,-168.25 306.5,-168.25 306.5,-149 401.25,-149 401.25,-168.25"/>
<text text-anchor="middle" x="353.88" y="-154.75" font-family="Helvetica,sans-Serif" font-size="10.00">httpc_pool_launch</text>
</a>
</g>
</g>
<!-- Node16&#45;&gt;Node21 -->
<g id="edge20_Node000016_Node000021" class="edge">
<title>Node16&#45;&gt;Node21</title>
<g id="a_edge20_Node000016_Node000021"><a xlink:title=" ">
<path fill="none" stroke="#63b8ff" d="M425.79,-167.49C417.73,-166.48 409.53,-165.46 401.7,-164.48"/>
<polygon fill="#63b8ff" stroke="#63b8ff" points="425.17,-170.94 435.52,-168.71 426.04,-163.99 425.17,-170.94"/>
</a>
</g>
</g>
<!-- Node18 -->
<g id="Node000018" class="node">
<title>Node18</title>
<g id="a_Node000018"><a xlink:href="../../dd/d4a/net_2http_8c.html#ae0600e298ca883d66d4ff582e8786e11" target="_top" xlink:title=" ">
<polygon fill="white" stroke="#666666" points="246.5,-205.25 168.25,-205.25 168.25,-186 246.5,-186 246.5,-205.25"/>
<text text-anchor="middle" x="207.38" y="-191.75" font-family="Helvetica,sans-Serif" font-size="10.00">z_query_setup</text>
</a>
</g>
</g>
<!-- Node17&#45;&gt;Node18 -->
<g id="edge17_Node000017_Node000018" class="edge">
<title>Node17&#45;&gt;Node18</title>
<g id="a_edge17_Node000017_Node000018"><a xlink:title=" ">
<path fill="none" stroke="#63b8ff" d="M303.43,-195.62C284.93,-195.62 264.2,-195.62 246.84,-195.62"/>
<polygon fill="#63b8ff" stroke="#63b8ff" points="303.4,-199.13 313.4,-195.63 303.4,-192.13 303.4,-199.13"/>
</a>
</g>
</g>
<!-- Node19 -->
<g id="Node000019" class="node">
<title>Node19</title>
<g id="a_Node000019"><a xlink:href="../../dd/d4a/net_2http_8c.html#ad6f99386fb518c8ba64244857b0240e1" target="_top" xlink:title=" ">
<polygon fill="white" stroke="#666666" points="108.25,-205.25 0,-205.25 0,-186 108.25,-186 108.25,-205.25"/>
<text text-anchor="middle" x="54.12" y="-191.75" font-family="Helvetica,sans-Serif" font-size="10.00">Z_GROUP_EXPORT</text>
</a>
</g>
</g>
<!-- Node18&#45;&gt;Node19 -->
<g id="edge18_Node000018_Node000019" class="edge">
<title>Node18&#45;&gt;Node19</title>
<g id="a_edge18_Node000018_Node000019"><a xlink:title=" ">
<path fill="none" stroke="#63b8ff" d="M156.47,-195.62C141.17,-195.62 124.27,-195.62 108.73,-195.62"/>
<polygon fill="#63b8ff" stroke="#63b8ff" points="156.3,-199.13 166.3,-195.63 156.3,-192.13 156.3,-199.13"/>
</a>
</g>
</g>
<!-- Node20 -->
<g id="Node000020" class="node">
<title>Node20</title>
<g id="a_Node000020"><a xlink:href="../../dd/d4a/net_2http_8c.html#ad196e07d97f054b7629a5f94093340dd" target="_top" xlink:title=" ">
<polygon fill="white" stroke="#666666" points="108.25,-113.25 0,-113.25 0,-94 108.25,-94 108.25,-113.25"/>
<text text-anchor="middle" x="54.12" y="-99.75" font-family="Helvetica,sans-Serif" font-size="10.00">Z_GROUP_EXPORT</text>
</a>
</g>
</g>
<!-- Node18&#45;&gt;Node20 -->
<g id="edge19_Node000018_Node000020" class="edge">
<title>Node18&#45;&gt;Node20</title>
<g id="a_edge19_Node000018_Node000020"><a xlink:title=" ">
<path fill="none" stroke="#63b8ff" d="M157.33,-183.5C152.81,-181.77 148.38,-179.81 144.25,-177.62 111.38,-160.2 79.47,-129.31 64.3,-113.52"/>
<polygon fill="#63b8ff" stroke="#63b8ff" points="155.93,-186.72 166.52,-186.68 158.21,-180.11 155.93,-186.72"/>
</a>
</g>
</g>
<!-- Node22 -->
<g id="Node000022" class="node">
<title>Node22</title>
<g id="a_Node000022"><a xlink:href="../../dd/d4a/net_2http_8c.html#a13fe4b4dc9d8e2b66738d7bc50745860" target="_top" xlink:title=" ">
<polygon fill="white" stroke="#666666" points="247.25,-168.25 167.5,-168.25 167.5,-149 247.25,-149 247.25,-168.25"/>
<text text-anchor="middle" x="207.38" y="-154.75" font-family="Helvetica,sans-Serif" font-size="10.00">httpc_pool_get</text>
</a>
</g>
</g>
<!-- Node21&#45;&gt;Node22 -->
<g id="edge21_Node000021_Node000022" class="edge">
<title>Node21&#45;&gt;Node22</title>
<g id="a_edge21_Node000021_Node000022"><a xlink:title=" ">
<path fill="none" stroke="#63b8ff" d="M294.98,-158.62C279.04,-158.62 262.14,-158.62 247.54,-158.62"/>
<polygon fill="#63b8ff" stroke="#63b8ff" points="294.85,-162.13 304.85,-158.63 294.85,-155.13 294.85,-162.13"/>
</a>
</g>
</g>
<!-- Node24 -->
<g id="Node000024" class="node">
<title>Node24</title>
<g id="a_Node000024"><a xlink:href="../../dd/d4a/net_2http_8c.html#ababf4c72b8aba8aa09b45da6bccfd250" target="_top" xlink:title=" ">
<polygon fill="white" stroke="#666666" points="820.88,-141.25 732.88,-141.25 732.88,-122 820.88,-122 820.88,-141.25"/>
<text text-anchor="middle" x="776.88" y="-127.75" font-family="Helvetica,sans-Serif" font-size="10.00">httpd_on_accept</text>
</a>
</g>
</g>
<!-- Node23&#45;&gt;Node24 -->
<g id="edge23_Node000023_Node000024" class="edge">
<title>Node23&#45;&gt;Node24</title>
<g id="a_edge23_Node000023_Node000024"><a xlink:title=" ">
<path fill="none" stroke="#63b8ff" d="M855.06,-131.62C843.47,-131.62 831.73,-131.62 821.02,-131.62"/>
<polygon fill="#63b8ff" stroke="#63b8ff" points="855.04,-135.13 865.04,-131.63 855.04,-128.13 855.04,-135.13"/>
</a>
</g>
</g>
<!-- Node25 -->
<g id="Node000025" class="node">
<title>Node25</title>
<g id="a_Node000025"><a xlink:href="../../dd/d4a/net_2http_8c.html#a4bb48b79e806519f505be1648ff296fd" target="_top" xlink:title=" ">
<polygon fill="white" stroke="#666666" points="659.75,-141.25 593.5,-141.25 593.5,-122 659.75,-122 659.75,-141.25"/>
<text text-anchor="middle" x="626.62" y="-127.75" font-family="Helvetica,sans-Serif" font-size="10.00">httpd_listen</text>
</a>
</g>
</g>
<!-- Node24&#45;&gt;Node25 -->
<g id="edge24_Node000024_Node000025" class="edge">
<title>Node24&#45;&gt;Node25</title>
<g id="a_edge24_Node000024_Node000025"><a xlink:title=" ">
<path fill="none" stroke="#63b8ff" d="M721.1,-131.62C700.5,-131.62 677.77,-131.62 659.87,-131.62"/>
<polygon fill="#63b8ff" stroke="#63b8ff" points="721.08,-135.13 731.08,-131.63 721.08,-128.13 721.08,-135.13"/>
</a>
</g>
</g>
<!-- Node27 -->
<g id="Node000027" class="node">
<title>Node27</title>
<g id="a_Node000027"><a xlink:href="../../dd/d4a/net_2http_8c.html#a3d20af4dfd727c2c13e846fc55c5d008" target="_top" xlink:title=" ">
<polygon fill="white" stroke="#666666" points="2221.5,-142.88 2102,-142.88 2102,-112.38 2221.5,-112.38 2221.5,-142.88"/>
<text text-anchor="start" x="2110" y="-129.38" font-family="Helvetica,sans-Serif" font-size="10.00">http2_conn_stream_idle</text>
<text text-anchor="middle" x="2161.75" y="-118.12" font-family="Helvetica,sans-Serif" font-size="10.00">_httpd</text>
</a>
</g>
</g>
<!-- Node26&#45;&gt;Node27 -->
<g id="edge26_Node000026_Node000027" class="edge">
<title>Node26&#45;&gt;Node27</title>
<g id="a_edge26_Node000026_Node000027"><a xlink:title=" ">
<path fill="none" stroke="#63b8ff" d="M2245.86,-127.62C2237.73,-127.62 2229.6,-127.62 2221.78,-127.62"/>
<polygon fill="#63b8ff" stroke="#63b8ff" points="2245.8,-131.13 2255.8,-127.63 2245.8,-124.13 2245.8,-131.13"/>
</a>
</g>
</g>
<!-- Node28 -->
<g id="Node000028" class="node">
<title>Node28</title>
<g id="a_Node000028"><a xlink:href="../../dd/d4a/net_2http_8c.html#a94d60a00ee29889d7792da23ff311ba3" target="_top" xlink:title=" ">
<polygon fill="white" stroke="#666666" points="1910.5,-142.88 1790.25,-142.88 1790.25,-112.38 1910.5,-112.38 1910.5,-142.88"/>
<text text-anchor="start" x="1798.25" y="-129.38" font-family="Helvetica,sans-Serif" font-size="10.00">http2_conn_on_streams</text>
<text text-anchor="middle" x="1850.38" y="-118.12" font-family="Helvetica,sans-Serif" font-size="10.00">_can_write_server</text>
</a>
</g>
</g>
<!-- Node27&#45;&gt;Node28 -->
<g id="edge27_Node000027_Node000028" class="edge">
<title>Node27&#45;&gt;Node28</title>
<g id="a_edge27_Node000027_Node000028"><a xlink:title=" ">
<path fill="none" stroke="#63b8ff" d="M2090.58,-127.62C2036.37,-127.62 1962.18,-127.62 1910.86,-127.62"/>
<polygon fill="#63b8ff" stroke="#63b8ff" points="2090.32,-131.13 2100.32,-127.63 2090.32,-124.13 2090.32,-131.13"/>
</a>
</g>
</g>
<!-- Node28&#45;&gt;Node8 -->
<g id="edge28_Node000028_Node000008" class="edge">
<title>Node28&#45;&gt;Node8</title>
<g id="a_edge28_Node000028_Node000008"><a xlink:title=" ">
<path fill="none" stroke="#63b8ff" d="M1778.85,-133.11C1770.77,-133.74 1762.59,-134.38 1754.67,-134.99"/>
<polygon fill="#63b8ff" stroke="#63b8ff" points="1778.97,-136.61 1788.67,-132.35 1778.43,-129.63 1778.97,-136.61"/>
</a>
</g>
</g>
<!-- Node30 -->
<g id="Node000030" class="node">
<title>Node30</title>
<g id="a_Node000030"><a xlink:href="../../dd/d4a/net_2http_8c.html#a6871c3ee30f4927c471d80137929ee63" target="_top" xlink:title=" ">
<polygon fill="white" stroke="#666666" points="390.38,-94.25 317.38,-94.25 317.38,-75 390.38,-75 390.38,-94.25"/>
<text text-anchor="middle" x="353.88" y="-80.75" font-family="Helvetica,sans-Serif" font-size="10.00">z_http2_reply</text>
</a>
</g>
</g>
<!-- Node29&#45;&gt;Node30 -->
<g id="edge30_Node000029_Node000030" class="edge">
<title>Node29&#45;&gt;Node30</title>
<g id="a_edge30_Node000029_Node000030"><a xlink:title=" ">
<path fill="none" stroke="#63b8ff" d="M1632.92,-84.62C1574.58,-84.62 1483.6,-84.62 1404.75,-84.62 1404.75,-84.62 1404.75,-84.62 625.62,-84.62 541.49,-84.62 442.64,-84.62 390.79,-84.62"/>
<polygon fill="#63b8ff" stroke="#63b8ff" points="1632.63,-88.13 1642.63,-84.63 1632.63,-81.13 1632.63,-88.13"/>
</a>
</g>
</g>
<!-- Node31 -->
<g id="Node000031" class="node">
<title>Node31</title>
<g id="a_Node000031"><a xlink:href="../../dd/d4a/net_2http_8c.html#a3b13f075467c6b4af9e79380e7123bac" target="_top" xlink:title=" ">
<polygon fill="white" stroke="#666666" points="270.5,-131.25 144.25,-131.25 144.25,-112 270.5,-112 270.5,-131.25"/>
<text text-anchor="middle" x="207.38" y="-117.75" font-family="Helvetica,sans-Serif" font-size="10.00">z_http2_reply_no_content</text>
</a>
</g>
</g>
<!-- Node30&#45;&gt;Node31 -->
<g id="edge31_Node000030_Node000031" class="edge">
<title>Node30&#45;&gt;Node31</title>
<g id="a_edge31_Node000030_Node000031"><a xlink:title=" ">
<path fill="none" stroke="#63b8ff" d="M306.12,-96.6C287.27,-101.42 265.77,-106.93 247.75,-111.54"/>
<polygon fill="#63b8ff" stroke="#63b8ff" points="306.87,-100.02 315.69,-94.15 305.13,-93.24 306.87,-100.02"/>
</a>
</g>
</g>
<!-- Node32 -->
<g id="Node000032" class="node">
<title>Node32</title>
<g id="a_Node000032"><a xlink:href="../../dd/d4a/net_2http_8c.html#acf3d1429768b5d516d9ed0f10bdac072" target="_top" xlink:title=" ">
<polygon fill="white" stroke="#666666" points="251.75,-94.25 163,-94.25 163,-75 251.75,-75 251.75,-94.25"/>
<text text-anchor="middle" x="207.38" y="-80.75" font-family="Helvetica,sans-Serif" font-size="10.00">z_http2_reply_ok</text>
</a>
</g>
</g>
<!-- Node30&#45;&gt;Node32 -->
<g id="edge33_Node000030_Node000032" class="edge">
<title>Node30&#45;&gt;Node32</title>
<g id="a_edge33_Node000030_Node000032"><a xlink:title=" ">
<path fill="none" stroke="#63b8ff" d="M305.65,-84.62C288.45,-84.62 269.09,-84.62 252.2,-84.62"/>
<polygon fill="#63b8ff" stroke="#63b8ff" points="305.64,-88.13 315.64,-84.63 305.64,-81.13 305.64,-88.13"/>
</a>
</g>
</g>
<!-- Node33 -->
<g id="Node000033" class="node">
<title>Node33</title>
<g id="a_Node000033"><a xlink:href="../../dd/d4a/net_2http_8c.html#ab79164279547a8a8ff15ced069acc64d" target="_top" xlink:title=" ">
<polygon fill="white" stroke="#666666" points="260.75,-57.25 154,-57.25 154,-38 260.75,-38 260.75,-57.25"/>
<text text-anchor="middle" x="207.38" y="-43.75" font-family="Helvetica,sans-Serif" font-size="10.00">z_http2_reply_ok_big</text>
</a>
</g>
</g>
<!-- Node30&#45;&gt;Node33 -->
<g id="edge35_Node000030_Node000033" class="edge">
<title>Node30&#45;&gt;Node33</title>
<g id="a_edge35_Node000030_Node000033"><a xlink:title=" ">
<path fill="none" stroke="#63b8ff" d="M306.12,-72.65C287.27,-67.83 265.77,-62.32 247.75,-57.71"/>
<polygon fill="#63b8ff" stroke="#63b8ff" points="305.13,-76.01 315.69,-75.1 306.87,-69.23 305.13,-76.01"/>
</a>
</g>
</g>
<!-- Node31&#45;&gt;Node20 -->
<g id="edge32_Node000031_Node000020" class="edge">
<title>Node31&#45;&gt;Node20</title>
<g id="a_edge32_Node000031_Node000020"><a xlink:title=" ">
<path fill="none" stroke="#63b8ff" d="M132.63,-112.85C124.55,-111.89 116.45,-110.92 108.69,-110"/>
<polygon fill="#63b8ff" stroke="#63b8ff" points="132.14,-116.31 142.48,-114.02 132.96,-109.36 132.14,-116.31"/>
</a>
</g>
</g>
<!-- Node32&#45;&gt;Node20 -->
<g id="edge34_Node000032_Node000020" class="edge">
<title>Node32&#45;&gt;Node20</title>
<g id="a_edge34_Node000032_Node000020"><a xlink:title=" ">
<path fill="none" stroke="#63b8ff" d="M151.25,-91.55C137.38,-93.29 122.51,-95.16 108.71,-96.89"/>
<polygon fill="#63b8ff" stroke="#63b8ff" points="151.64,-95.03 161.13,-90.31 150.77,-88.08 151.64,-95.03"/>
</a>
</g>
</g>
<!-- Node33&#45;&gt;Node20 -->
<g id="edge36_Node000033_Node000020" class="edge">
<title>Node33&#45;&gt;Node20</title>
<g id="a_edge36_Node000033_Node000020"><a xlink:title=" ">
<path fill="none" stroke="#63b8ff" d="M158.09,-60.99C153.39,-62.48 148.71,-64.03 144.25,-65.62 120.8,-73.99 94.68,-85.38 76.81,-93.51"/>
<polygon fill="#63b8ff" stroke="#63b8ff" points="159.03,-64.36 167.57,-58.1 156.99,-57.67 159.03,-64.36"/>
</a>
</g>
</g>
<!-- Node35 -->
<g id="Node000035" class="node">
<title>Node35</title>
<g id="a_Node000035"><a xlink:href="../../d3/d7b/iopc-lang-c_8blk.html#aaf96e6f2eb5aa959ac16df2bee47cd99" target="_top" xlink:title=" ">
<polygon fill="white" stroke="#666666" points="2563.25,-78.25 2452,-78.25 2452,-59 2563.25,-59 2563.25,-78.25"/>
<text text-anchor="middle" x="2507.62" y="-64.75" font-family="Helvetica,sans-Serif" font-size="10.00">iopc_enum_dump_src</text>
</a>
</g>
</g>
<!-- Node34&#45;&gt;Node35 -->
<g id="edge38_Node000034_Node000035" class="edge">
<title>Node34&#45;&gt;Node35</title>
<g id="a_edge38_Node000034_Node000035"><a xlink:title=" ">
<path fill="none" stroke="#63b8ff" d="M2615.28,-68.62C2598.43,-68.62 2580.25,-68.62 2563.74,-68.62"/>
<polygon fill="#63b8ff" stroke="#63b8ff" points="2615.17,-72.13 2625.17,-68.63 2615.17,-65.13 2615.17,-72.13"/>
</a>
</g>
</g>
<!-- Node36 -->
<g id="Node000036" class="node">
<title>Node36</title>
<g id="a_Node000036"><a xlink:href="../../d3/d7b/iopc-lang-c_8blk.html#ac633cc5263e2185fcaaaa32bff48aade" target="_top" xlink:title=" ">
<polygon fill="white" stroke="#666666" points="2359.75,-56.25 2299.5,-56.25 2299.5,-37 2359.75,-37 2359.75,-56.25"/>
<text text-anchor="middle" x="2329.62" y="-42.75" font-family="Helvetica,sans-Serif" font-size="10.00">iopc_do_c</text>
</a>
</g>
</g>
<!-- Node35&#45;&gt;Node36 -->
<g id="edge39_Node000035_Node000036" class="edge">
<title>Node35&#45;&gt;Node36</title>
<g id="a_edge39_Node000035_Node000036"><a xlink:title=" ">
<path fill="none" stroke="#63b8ff" d="M2440.67,-60.38C2412.97,-56.92 2382.17,-53.07 2360.21,-50.32"/>
<polygon fill="#63b8ff" stroke="#63b8ff" points="2440.04,-63.83 2450.4,-61.6 2440.91,-56.88 2440.04,-63.83"/>
</a>
</g>
</g>
<!-- Node37 -->
<g id="Node000037" class="node">
<title>Node37</title>
<g id="a_Node000037"><a xlink:href="../../df/d1f/iopc_8c.html#a693d2e305d9102c8dd03b6bd0bf61111" target="_top" xlink:title=" ">
<polygon fill="white" stroke="#666666" points="2203.5,-56.25 2120,-56.25 2120,-37 2203.5,-37 2203.5,-56.25"/>
<text text-anchor="middle" x="2161.75" y="-42.75" font-family="Helvetica,sans-Serif" font-size="10.00">build_doit_table</text>
</a>
</g>
</g>
<!-- Node36&#45;&gt;Node37 -->
<g id="edge40_Node000036_Node000037" class="edge">
<title>Node36&#45;&gt;Node37</title>
<g id="a_edge40_Node000036_Node000037"><a xlink:title=" ">
<path fill="none" stroke="#63b8ff" d="M2288.16,-46.62C2262.57,-46.62 2229.58,-46.62 2203.86,-46.62"/>
<polygon fill="#63b8ff" stroke="#63b8ff" points="2287.84,-50.13 2297.84,-46.63 2287.84,-43.13 2287.84,-50.13"/>
</a>
</g>
</g>
<!-- Node39 -->
<g id="Node000039" class="node">
<title>Node39</title>
<g id="a_Node000039"><a xlink:href="../../db/d07/iopc-dso_8c.html#a95a19b847fb352eb92b539cf3495f093" target="_top" xlink:title=" ">
<polygon fill="white" stroke="#666666" points="2191.5,-19.25 2132,-19.25 2132,0 2191.5,0 2191.5,-19.25"/>
<text text-anchor="middle" x="2161.75" y="-5.75" font-family="Helvetica,sans-Serif" font-size="10.00">iopc_build</text>
</a>
</g>
</g>
<!-- Node36&#45;&gt;Node39 -->
<g id="edge42_Node000036_Node000039" class="edge">
<title>Node36&#45;&gt;Node39</title>
<g id="a_edge42_Node000036_Node000039"><a xlink:title=" ">
<path fill="none" stroke="#63b8ff" d="M2288.45,-37.66C2258.58,-31 2218.52,-22.07 2191.73,-16.09"/>
<polygon fill="#63b8ff" stroke="#63b8ff" points="2287.35,-41 2297.87,-39.77 2288.88,-34.17 2287.35,-41"/>
</a>
</g>
</g>
<!-- Node38 -->
<g id="Node000038" class="node">
<title>Node38</title>
<g id="a_Node000038"><a xlink:href="../../df/d1f/iopc_8c.html#a3c04138a5bfe5d72780bb7e82a18e627" target="_top" xlink:title=" ">
<polygon fill="white" stroke="#666666" points="2024.75,-56.25 1987.75,-56.25 1987.75,-37 2024.75,-37 2024.75,-56.25"/>
<text text-anchor="middle" x="2006.25" y="-42.75" font-family="Helvetica,sans-Serif" font-size="10.00">main</text>
</a>
</g>
</g>
<!-- Node37&#45;&gt;Node38 -->
<g id="edge41_Node000037_Node000038" class="edge">
<title>Node37&#45;&gt;Node38</title>
<g id="a_edge41_Node000037_Node000038"><a xlink:title=" ">
<path fill="none" stroke="#63b8ff" d="M2108.39,-46.62C2079.39,-46.62 2045.22,-46.62 2024.94,-46.62"/>
<polygon fill="#63b8ff" stroke="#63b8ff" points="2108.1,-50.13 2118.1,-46.63 2108.1,-43.13 2108.1,-50.13"/>
</a>
</g>
</g>
<!-- Node40 -->
<g id="Node000040" class="node">
<title>Node40</title>
<g id="a_Node000040"><a xlink:href="../../db/d07/iopc-dso_8c.html#ab2da67841232fab2872190ddabd94a81" target="_top" xlink:title="Build an IOP DSO.">
<polygon fill="white" stroke="#666666" points="2046.5,-19.25 1966,-19.25 1966,0 2046.5,0 2046.5,-19.25"/>
<text text-anchor="middle" x="2006.25" y="-5.75" font-family="Helvetica,sans-Serif" font-size="10.00">iopc_dso_build</text>
</a>
</g>
</g>
<!-- Node39&#45;&gt;Node40 -->
<g id="edge43_Node000039_Node000040" class="edge">
<title>Node39&#45;&gt;Node40</title>
<g id="a_edge43_Node000039_Node000040"><a xlink:title=" ">
<path fill="none" stroke="#63b8ff" d="M2120.21,-9.62C2097.52,-9.62 2069.35,-9.62 2046.81,-9.62"/>
<polygon fill="#63b8ff" stroke="#63b8ff" points="2120,-13.13 2130,-9.63 2120,-6.13 2120,-13.13"/>
</a>
</g>
</g>
</g>
</svg>

<g id="navigator" transform="translate(0 0)" fill="#404254">
  <rect fill="#f2f5e9" fill-opacity="0.5" stroke="#606060" stroke-width=".5" x="0" y="0" width="60" height="60"/>
  <use id="zoomplus" xlink:href="#zoomPlus" x="17" y="9" onmousedown="handleZoom(evt,'in')"/>
  <use id="zoomminus" xlink:href="#zoomMin" x="42" y="9" onmousedown="handleZoom(evt,'out')"/>
  <use id="reset" xlink:href="#resetDef" x="30" y="36" onmousedown="handleReset()"/>
   <use id="arrowup" xlink:href="#arrowUp" x="0" y="0" onmousedown="handlePan(0,-1)"/>
  <use id="arrowright" xlink:href="#arrowRight" x="0" y="0" onmousedown="handlePan(1,0)"/>
  <use id="arrowdown" xlink:href="#arrowDown" x="0" y="0" onmousedown="handlePan(0,1)"/>
  <use id="arrowleft" xlink:href="#arrowLeft" x="0" y="0" onmousedown="handlePan(-1,0)"/>
</g>
<svg viewBox="0 0 15 15" width="100%" height="30px" preserveAspectRatio="xMaxYMin meet">
 <g id="arrow_out" transform="scale(0.3 0.3)">
  <a xlink:href="str-l_8c_a6ace26d5050a4a2023b9ec390d79f4fa_icgraph_org.svg" target="_base">
   <rect id="button" ry="5" rx="5" y="6" x="6" height="38" width="38"
        fill="#f2f5e9" fill-opacity="0.5" stroke="#606060" stroke-width="1.0"/>
   <path id="arrow"
     d="M 11.500037,31.436501 C 11.940474,20.09759 22.043105,11.32322 32.158766,21.979434 L 37.068811,17.246167 C 37.068811,17.246167 37.088388,32 37.088388,32 L 22.160133,31.978069 C 22.160133,31.978069 26.997745,27.140456 26.997745,27.140456 C 18.528582,18.264221 13.291696,25.230495 11.500037,31.436501 z"
     style="fill:#404040;"/>
  </a>
 </g>
</svg>

<style type='text/css'>
<![CDATA[
[data-mouse-over-selected='false'] { opacity: 0.7; }
[data-mouse-over-selected='true']  { opacity: 1.0; }
]]>
</style>
<script type="application/ecmascript"><![CDATA[
document.addEventListener('DOMContentLoaded', (event) => {
  highlightEdges();
  highlightAdjacentNodes();
});
]]></script>
</svg>
