<?xml version="1.0" encoding="UTF-8" standalone="no"?>
<!DOCTYPE svg PUBLIC "-//W3C//DTD SVG 1.1//EN"
 "http://www.w3.org/Graphics/SVG/1.1/DTD/svg11.dtd">
<!-- Generated by graphviz version 9.0.0 (20230911.1827)
 -->
<!-- Title: ps_is_like Pages: 1 -->
<svg width="854pt" height="64pt"
 viewBox="0.00 0.00 854.25 64.25" xmlns="http://www.w3.org/2000/svg" xmlns:xlink="http://www.w3.org/1999/xlink">
<g id="graph0" class="graph" transform="scale(1 1) rotate(0) translate(4 60.25)">
<title>ps_is_like</title>
<!-- Node1 -->
<g id="Node000001" class="node">
<title>Node1</title>
<g id="a_Node000001"><a xlink:title=" ">
<polygon fill="#999999" stroke="#666666" points="846.25,-37.25 786.75,-37.25 786.75,-18 846.25,-18 846.25,-37.25"/>
<text text-anchor="middle" x="816.5" y="-23.75" font-family="Helvetica,sans-Serif" font-size="10.00">ps_is_like</text>
</a>
</g>
</g>
<!-- Node1&#45;&gt;Node1 -->
<g id="edge9_Node000001_Node000001" class="edge">
<title>Node1&#45;&gt;Node1</title>
<g id="a_edge9_Node000001_Node000001"><a xlink:title=" ">
<path fill="none" stroke="#63b8ff" d="M835.85,-48.65C833.43,-52.53 826.98,-55.25 816.5,-55.25 797.34,-55.25 791.65,-46.15 799.44,-37.54"/>
<polygon fill="#63b8ff" stroke="#63b8ff" points="839.31,-48.11 833.87,-39.02 832.45,-49.52 839.31,-48.11"/>
</a>
</g>
</g>
<!-- Node2 -->
<g id="Node000002" class="node">
<title>Node2</title>
<g id="a_Node000002"><a xlink:href="../../de/d04/str-l_8c.html#abc9d1c7c9239ce415b8435dbca9b81ba" target="_top" xlink:title="Returns whether a string respects a given SQL pattern.">
<polygon fill="white" stroke="#666666" points="750.75,-37.25 664.25,-37.25 664.25,-18 750.75,-18 750.75,-37.25"/>
<text text-anchor="middle" x="707.5" y="-23.75" font-family="Helvetica,sans-Serif" font-size="10.00">lstr_utf8_is_ilike</text>
</a>
</g>
</g>
<!-- Node1&#45;&gt;Node2 -->
<g id="edge1_Node000001_Node000002" class="edge">
<title>Node1&#45;&gt;Node2</title>
<g id="a_edge1_Node000001_Node000002"><a xlink:title=" ">
<path fill="none" stroke="#63b8ff" d="M774.8,-27.62C767,-27.62 758.8,-27.62 750.94,-27.62"/>
<polygon fill="#63b8ff" stroke="#63b8ff" points="774.75,-31.13 784.75,-27.63 774.75,-24.13 774.75,-31.13"/>
</a>
</g>
</g>
<!-- Node3 -->
<g id="Node000003" class="node">
<title>Node3</title>
<g id="a_Node000003"><a xlink:href="../../d0/d2d/iop_8blk.html#aa779df49b692ccbdbaf2e39e50eec026" target="_top" xlink:title=" ">
<polygon fill="white" stroke="#666666" points="628.25,-37.25 532,-37.25 532,-18 628.25,-18 628.25,-37.25"/>
<text text-anchor="middle" x="580.12" y="-23.75" font-family="Helvetica,sans-Serif" font-size="10.00">iop_string_sql_like</text>
</a>
</g>
</g>
<!-- Node2&#45;&gt;Node3 -->
<g id="edge2_Node000002_Node000003" class="edge">
<title>Node2&#45;&gt;Node3</title>
<g id="a_edge2_Node000002_Node000003"><a xlink:title=" ">
<path fill="none" stroke="#63b8ff" d="M652.6,-27.62C644.65,-27.62 636.51,-27.62 628.7,-27.62"/>
<polygon fill="#63b8ff" stroke="#63b8ff" points="652.54,-31.13 662.54,-27.63 652.54,-24.13 652.54,-31.13"/>
</a>
</g>
</g>
<!-- Node4 -->
<g id="Node000004" class="node">
<title>Node4</title>
<g id="a_Node000004"><a xlink:href="../../d0/d2d/iop_8blk.html#ab4e22b7c768920fb06007a30dfb6f355" target="_top" xlink:title=" ">
<polygon fill="white" stroke="#666666" points="496,-37.25 363,-37.25 363,-18 496,-18 496,-37.25"/>
<text text-anchor="middle" x="429.5" y="-23.75" font-family="Helvetica,sans-Serif" font-size="10.00">iop_get_equal_fun_sql_like</text>
</a>
</g>
</g>
<!-- Node3&#45;&gt;Node4 -->
<g id="edge3_Node000003_Node000004" class="edge">
<title>Node3&#45;&gt;Node4</title>
<g id="a_edge3_Node000003_Node000004"><a xlink:title=" ">
<path fill="none" stroke="#63b8ff" d="M520.39,-27.62C512.53,-27.62 504.42,-27.62 496.45,-27.62"/>
<polygon fill="#63b8ff" stroke="#63b8ff" points="520.18,-31.13 530.18,-27.63 520.18,-24.13 520.18,-31.13"/>
</a>
</g>
</g>
<!-- Node5 -->
<g id="Node000005" class="node">
<title>Node5</title>
<g id="a_Node000005"><a xlink:href="../../d0/d2d/iop_8blk.html#a0f28a8d736ba51afe0e043c16793bfd1" target="_top" xlink:title=" ">
<polygon fill="white" stroke="#666666" points="327,-37.25 256.25,-37.25 256.25,-18 327,-18 327,-37.25"/>
<text text-anchor="middle" x="291.62" y="-23.75" font-family="Helvetica,sans-Serif" font-size="10.00">__t_iop_filter</text>
</a>
</g>
</g>
<!-- Node4&#45;&gt;Node5 -->
<g id="edge4_Node000004_Node000005" class="edge">
<title>Node4&#45;&gt;Node5</title>
<g id="a_edge4_Node000004_Node000005"><a xlink:title=" ">
<path fill="none" stroke="#63b8ff" d="M351.17,-27.62C342.87,-27.62 334.76,-27.62 327.35,-27.62"/>
<polygon fill="#63b8ff" stroke="#63b8ff" points="351.04,-31.13 361.04,-27.63 351.04,-24.13 351.04,-31.13"/>
</a>
</g>
</g>
<!-- Node6 -->
<g id="Node000006" class="node">
<title>Node6</title>
<g id="a_Node000006"><a xlink:href="../../d0/d2d/iop_8blk.html#aa6b76e4b5bc7384d01a8ce42e8a29d52" target="_top" xlink:title=" ">
<polygon fill="white" stroke="#666666" points="210.88,-56.25 116.12,-56.25 116.12,-37 210.88,-37 210.88,-56.25"/>
<text text-anchor="middle" x="163.5" y="-42.75" font-family="Helvetica,sans-Serif" font-size="10.00">t_iop_filter_bitmap</text>
</a>
</g>
</g>
<!-- Node5&#45;&gt;Node6 -->
<g id="edge5_Node000005_Node000006" class="edge">
<title>Node5&#45;&gt;Node6</title>
<g id="a_edge5_Node000005_Node000006"><a xlink:title=" ">
<path fill="none" stroke="#63b8ff" d="M244.72,-34.54C233.73,-36.2 222,-37.96 210.99,-39.62"/>
<polygon fill="#63b8ff" stroke="#63b8ff" points="244.96,-38.04 254.33,-33.09 243.92,-31.12 244.96,-38.04"/>
</a>
</g>
</g>
<!-- Node8 -->
<g id="Node000008" class="node">
<title>Node8</title>
<g id="a_Node000008"><a xlink:href="../../d0/d2d/iop_8blk.html#a770b375ad4f549e6fc68894ef28a27d8" target="_top" xlink:title=" ">
<polygon fill="white" stroke="#666666" points="220.25,-19.25 106.75,-19.25 106.75,0 220.25,0 220.25,-19.25"/>
<text text-anchor="middle" x="163.5" y="-5.75" font-family="Helvetica,sans-Serif" font-size="10.00">t_iop_filter_opt_bitmap</text>
</a>
</g>
</g>
<!-- Node5&#45;&gt;Node8 -->
<g id="edge7_Node000005_Node000008" class="edge">
<title>Node5&#45;&gt;Node8</title>
<g id="a_edge7_Node000005_Node000008"><a xlink:title=" ">
<path fill="none" stroke="#63b8ff" d="M244.66,-21.07C236.81,-19.94 228.58,-18.77 220.5,-17.62"/>
<polygon fill="#63b8ff" stroke="#63b8ff" points="243.93,-24.5 254.33,-22.44 244.92,-17.57 243.93,-24.5"/>
</a>
</g>
</g>
<!-- Node7 -->
<g id="Node000007" class="node">
<title>Node7</title>
<g id="a_Node000007"><a xlink:href="../../d0/d2d/iop_8blk.html#a6ff8c1041c8e7afd9eb502c2054a0bf3" target="_top" xlink:title=" ">
<polygon fill="white" stroke="#666666" points="61.38,-56.25 9.38,-56.25 9.38,-37 61.38,-37 61.38,-56.25"/>
<text text-anchor="middle" x="35.38" y="-42.75" font-family="Helvetica,sans-Serif" font-size="10.00">iop_filter</text>
</a>
</g>
</g>
<!-- Node6&#45;&gt;Node7 -->
<g id="edge6_Node000006_Node000007" class="edge">
<title>Node6&#45;&gt;Node7</title>
<g id="a_edge6_Node000006_Node000007"><a xlink:title=" ">
<path fill="none" stroke="#63b8ff" d="M104.5,-46.62C89.43,-46.62 73.96,-46.62 61.59,-46.62"/>
<polygon fill="#63b8ff" stroke="#63b8ff" points="104.38,-50.13 114.38,-46.63 104.38,-43.13 104.38,-50.13"/>
</a>
</g>
</g>
<!-- Node9 -->
<g id="Node000009" class="node">
<title>Node9</title>
<g id="a_Node000009"><a xlink:href="../../d0/d2d/iop_8blk.html#a2884c8e2327706902c3e723580d4e29e" target="_top" xlink:title=" ">
<polygon fill="white" stroke="#666666" points="70.75,-19.25 0,-19.25 0,0 70.75,0 70.75,-19.25"/>
<text text-anchor="middle" x="35.38" y="-5.75" font-family="Helvetica,sans-Serif" font-size="10.00">iop_filter_opt</text>
</a>
</g>
</g>
<!-- Node8&#45;&gt;Node9 -->
<g id="edge8_Node000008_Node000009" class="edge">
<title>Node8&#45;&gt;Node9</title>
<g id="a_edge8_Node000008_Node000009"><a xlink:title=" ">
<path fill="none" stroke="#63b8ff" d="M95.05,-9.62C86.7,-9.62 78.45,-9.62 70.9,-9.62"/>
<polygon fill="#63b8ff" stroke="#63b8ff" points="94.93,-13.13 104.93,-9.63 94.93,-6.13 94.93,-13.13"/>
</a>
</g>
</g>
</g>
</svg>
