<?xml version="1.0" encoding="UTF-8" standalone="no"?>
<!DOCTYPE svg PUBLIC "-//W3C//DTD SVG 1.1//EN"
 "http://www.w3.org/Graphics/SVG/1.1/DTD/svg11.dtd">
<!-- Generated by graphviz version 9.0.0 (20230911.1827)
 -->
<!-- Title: sha1_hex Pages: 1 -->
<!--zoomable 140 -->

<svg id="main" version="1.1" xmlns="http://www.w3.org/2000/svg" xmlns:xlink="http://www.w3.org/1999/xlink" xml:space="preserve" onload="init(evt)">
<style type="text/css"><![CDATA[
.node, .edge {opacity: 0.7;}
.node.selected, .edge.selected {opacity: 1;}
.edge:hover path { stroke: red; }
.edge:hover polygon { stroke: red; fill: red; }
]]></style>

<defs>
  <circle id="rim" cx="0" cy="0" r="7"/>
  <circle id="rim2" cx="0" cy="0" r="3.5"/>
  <g id="zoomPlus">
    <use xlink:href="#rim" fill="#404040"><set attributeName="fill" to="#808080" begin="zoomplus.mouseover" end="zoomplus.mouseout"/></use>
    <path d="M-4,0h8M0,-4v8" fill="none" stroke="white" stroke-width="1.5" pointer-events="none"/>
  </g>
  <g id="zoomMin">
    <use xlink:href="#rim" fill="#404040"><set attributeName="fill" to="#808080" begin="zoomminus.mouseover" end="zoomminus.mouseout"/></use>
    <path d="M-4,0h8" fill="none" stroke="white" stroke-width="1.5" pointer-events="none"/>
  </g>
  <g id="arrowUp" transform="translate(30 24)">
    <use xlink:href="#rim"/>
    <path pointer-events="none" fill="none" stroke="white" stroke-width="1.5" d="M0,-3.0v7 M-2.5,-0.5L0,-3.0L2.5,-0.5"/>
  </g>
  <g id="arrowRight" transform="rotate(90) translate(36 -43)">
    <use xlink:href="#rim"/>
    <path pointer-events="none" fill="none" stroke="white" stroke-width="1.5" d="M0,-3.0v7 M-2.5,-0.5L0,-3.0L2.5,-0.5"/>
  </g>
  <g id="arrowDown" transform="rotate(180) translate(-30 -48)">
    <use xlink:href="#rim"/>
    <path pointer-events="none" fill="none" stroke="white" stroke-width="1.5" d="M0,-3.0v7 M-2.5,-0.5L0,-3.0L2.5,-0.5"/>
  </g>
  <g id="arrowLeft" transform="rotate(270) translate(-36 17)">
    <use xlink:href="#rim"/>
    <path pointer-events="none" fill="none" stroke="white" stroke-width="1.5" d="M0,-3.0v7 M-2.5,-0.5L0,-3.0L2.5,-0.5"/>
  </g>
  <g id="resetDef">
    <use xlink:href="#rim2" fill="#404040"><set attributeName="fill" to="#808080" begin="reset.mouseover" end="reset.mouseout"/></use>
  </g>
</defs>
<script type="application/ecmascript">
var viewWidth = 543;
var viewHeight = 140;
var sectionId = 'dynsection-9';
</script>
<script type="application/ecmascript" xlink:href="../../svg.min.js"/>
<svg id="graph" class="graph">
<g id="viewport">
<title>sha1_hex</title>
<!-- Node1 -->
<g id="Node000001" class="node">
<title>Node1</title>
<g id="a_Node000001"><a xlink:title=" ">
<polygon fill="#999999" stroke="#666666" points="57.25,-57.25 0,-57.25 0,-38 57.25,-38 57.25,-57.25"/>
<text text-anchor="middle" x="28.62" y="-43.75" font-family="Helvetica,sans-Serif" font-size="10.00">sha1_hex</text>
</a>
</g>
</g>
<!-- Node2 -->
<g id="Node000002" class="node">
<title>Node2</title>
<g id="a_Node000002"><a xlink:href="../../d2/d24/sha1_8c.html#a4134c47f8cd22ae2e566cef0370ca7eb" target="_top" xlink:title=" ">
<polygon fill="white" stroke="#666666" points="178.25,-95.25 93.25,-95.25 93.25,-76 178.25,-76 178.25,-95.25"/>
<text text-anchor="middle" x="135.75" y="-81.75" font-family="Helvetica,sans-Serif" font-size="10.00">sha1_finish_hex</text>
</a>
</g>
</g>
<!-- Node1&#45;&gt;Node2 -->
<g id="edge1_Node000001_Node000002" class="edge">
<title>Node1&#45;&gt;Node2</title>
<g id="a_edge1_Node000001_Node000002"><a xlink:title=" ">
<path fill="none" stroke="#63b8ff" d="M57.52,-57.71C69.5,-62.04 83.68,-67.16 96.61,-71.84"/>
<polygon fill="#63b8ff" stroke="#63b8ff" points="95.07,-75 105.67,-75.11 97.45,-68.42 95.07,-75"/>
</a>
</g>
</g>
<!-- Node4 -->
<g id="Node000004" class="node">
<title>Node4</title>
<g id="a_Node000004"><a xlink:href="../../d2/d24/sha1_8c.html#a5298595f391b62c6ec3585508aed8f89" target="_top" xlink:title=" ">
<polygon fill="white" stroke="#666666" points="421.75,-94.25 350.25,-94.25 350.25,-75 421.75,-75 421.75,-94.25"/>
<text text-anchor="middle" x="386" y="-80.75" font-family="Helvetica,sans-Serif" font-size="10.00">sha1_update</text>
</a>
</g>
</g>
<!-- Node1&#45;&gt;Node4 -->
<g id="edge7_Node000001_Node000004" class="edge">
<title>Node1&#45;&gt;Node4</title>
<g id="a_edge7_Node000001_Node000004"><a xlink:title=" ">
<path fill="none" stroke="#63b8ff" d="M57.69,-47.81C108.96,-48.51 221.08,-51.79 314.25,-66.62 322.51,-67.94 331.21,-69.77 339.58,-71.77"/>
<polygon fill="#63b8ff" stroke="#63b8ff" points="338.7,-75.16 349.25,-74.19 340.4,-68.37 338.7,-75.16"/>
</a>
</g>
</g>
<!-- Node7 -->
<g id="Node000007" class="node">
<title>Node7</title>
<g id="a_Node000007"><a xlink:href="../../d2/d24/sha1_8c.html#a01fa92464ee526388362f290794be54e" target="_top" xlink:title=" ">
<polygon fill="white" stroke="#666666" points="169.25,-19.25 102.25,-19.25 102.25,0 169.25,0 169.25,-19.25"/>
<text text-anchor="middle" x="135.75" y="-5.75" font-family="Helvetica,sans-Serif" font-size="10.00">sha1_starts</text>
</a>
</g>
</g>
<!-- Node1&#45;&gt;Node7 -->
<g id="edge6_Node000001_Node000007" class="edge">
<title>Node1&#45;&gt;Node7</title>
<g id="a_edge6_Node000001_Node000007"><a xlink:title=" ">
<path fill="none" stroke="#63b8ff" d="M57.52,-37.54C69.5,-33.21 83.68,-28.09 96.61,-23.41"/>
<polygon fill="#63b8ff" stroke="#63b8ff" points="97.45,-26.83 105.67,-20.14 95.07,-20.25 97.45,-26.83"/>
</a>
</g>
</g>
<!-- Node3 -->
<g id="Node000003" class="node">
<title>Node3</title>
<g id="a_Node000003"><a xlink:href="../../d2/d24/sha1_8c.html#adc35c232f9928a060e316480c90542b1" target="_top" xlink:title=" ">
<polygon fill="white" stroke="#666666" points="296.62,-132.25 231.88,-132.25 231.88,-113 296.62,-113 296.62,-132.25"/>
<text text-anchor="middle" x="264.25" y="-118.75" font-family="Helvetica,sans-Serif" font-size="10.00">sha1_finish</text>
</a>
</g>
</g>
<!-- Node2&#45;&gt;Node3 -->
<g id="edge2_Node000002_Node000003" class="edge">
<title>Node2&#45;&gt;Node3</title>
<g id="a_edge2_Node000002_Node000003"><a xlink:title=" ">
<path fill="none" stroke="#63b8ff" d="M171.32,-95.74C186.65,-100.22 204.84,-105.54 220.97,-110.26"/>
<polygon fill="#63b8ff" stroke="#63b8ff" points="219.72,-113.54 230.3,-112.99 221.69,-106.82 219.72,-113.54"/>
</a>
</g>
</g>
<!-- Node6 -->
<g id="Node000006" class="node">
<title>Node6</title>
<g id="a_Node000006"><a xlink:href="../../d4/d9a/str-conv_8c.html#aa26f0cf99ca505cfe76df2ad16e5ada7" target="_top" xlink:title=" ">
<polygon fill="white" stroke="#666666" points="314.25,-95.25 214.25,-95.25 214.25,-76 314.25,-76 314.25,-95.25"/>
<text text-anchor="middle" x="264.25" y="-81.75" font-family="Helvetica,sans-Serif" font-size="10.00">strconv_hexencode</text>
</a>
</g>
</g>
<!-- Node2&#45;&gt;Node6 -->
<g id="edge5_Node000002_Node000006" class="edge">
<title>Node2&#45;&gt;Node6</title>
<g id="a_edge5_Node000002_Node000006"><a xlink:title=" ">
<path fill="none" stroke="#63b8ff" d="M178.52,-85.62C186.25,-85.62 194.46,-85.62 202.62,-85.62"/>
<polygon fill="#63b8ff" stroke="#63b8ff" points="202.54,-89.13 212.54,-85.63 202.54,-82.13 202.54,-89.13"/>
</a>
</g>
</g>
<!-- Node3&#45;&gt;Node4 -->
<g id="edge3_Node000003_Node000004" class="edge">
<title>Node3&#45;&gt;Node4</title>
<g id="a_edge3_Node000003_Node000004"><a xlink:title=" ">
<path fill="none" stroke="#63b8ff" d="M297.03,-112.54C311.08,-108.08 327.8,-102.78 342.87,-97.99"/>
<polygon fill="#63b8ff" stroke="#63b8ff" points="343.58,-101.44 352.05,-95.08 341.46,-94.77 343.58,-101.44"/>
</a>
</g>
</g>
<!-- Node5 -->
<g id="Node000005" class="node">
<title>Node5</title>
<g id="a_Node000005"><a xlink:href="../../d2/d24/sha1_8c.html#a225db2030cefb398ac48b56df33ed6e5" target="_top" xlink:title=" ">
<polygon fill="white" stroke="#666666" points="534.5,-94.25 457.75,-94.25 457.75,-75 534.5,-75 534.5,-94.25"/>
<text text-anchor="middle" x="496.12" y="-80.75" font-family="Helvetica,sans-Serif" font-size="10.00">sha1_process</text>
</a>
</g>
</g>
<!-- Node4&#45;&gt;Node5 -->
<g id="edge4_Node000004_Node000005" class="edge">
<title>Node4&#45;&gt;Node5</title>
<g id="a_edge4_Node000004_Node000005"><a xlink:title=" ">
<path fill="none" stroke="#63b8ff" d="M422.11,-84.62C429.82,-84.62 438.12,-84.62 446.26,-84.62"/>
<polygon fill="#63b8ff" stroke="#63b8ff" points="446.07,-88.13 456.07,-84.63 446.07,-81.13 446.07,-88.13"/>
</a>
</g>
</g>
</g>
</svg>

<g id="navigator" transform="translate(0 0)" fill="#404254">
  <rect fill="#f2f5e9" fill-opacity="0.5" stroke="#606060" stroke-width=".5" x="0" y="0" width="60" height="60"/>
  <use id="zoomplus" xlink:href="#zoomPlus" x="17" y="9" onmousedown="handleZoom(evt,'in')"/>
  <use id="zoomminus" xlink:href="#zoomMin" x="42" y="9" onmousedown="handleZoom(evt,'out')"/>
  <use id="reset" xlink:href="#resetDef" x="30" y="36" onmousedown="handleReset()"/>
   <use id="arrowup" xlink:href="#arrowUp" x="0" y="0" onmousedown="handlePan(0,-1)"/>
  <use id="arrowright" xlink:href="#arrowRight" x="0" y="0" onmousedown="handlePan(1,0)"/>
  <use id="arrowdown" xlink:href="#arrowDown" x="0" y="0" onmousedown="handlePan(0,1)"/>
  <use id="arrowleft" xlink:href="#arrowLeft" x="0" y="0" onmousedown="handlePan(-1,0)"/>
</g>
<svg viewBox="0 0 15 15" width="100%" height="30px" preserveAspectRatio="xMaxYMin meet">
 <g id="arrow_out" transform="scale(0.3 0.3)">
  <a xlink:href="sha1_8c_a75509cb7ab60825516a8eaabe6b71e5d_cgraph_org.svg" target="_base">
   <rect id="button" ry="5" rx="5" y="6" x="6" height="38" width="38"
        fill="#f2f5e9" fill-opacity="0.5" stroke="#606060" stroke-width="1.0"/>
   <path id="arrow"
     d="M 11.500037,31.436501 C 11.940474,20.09759 22.043105,11.32322 32.158766,21.979434 L 37.068811,17.246167 C 37.068811,17.246167 37.088388,32 37.088388,32 L 22.160133,31.978069 C 22.160133,31.978069 26.997745,27.140456 26.997745,27.140456 C 18.528582,18.264221 13.291696,25.230495 11.500037,31.436501 z"
     style="fill:#404040;"/>
  </a>
 </g>
</svg>

<style type='text/css'>
<![CDATA[
[data-mouse-over-selected='false'] { opacity: 0.7; }
[data-mouse-over-selected='true']  { opacity: 1.0; }
]]>
</style>
<script type="application/ecmascript"><![CDATA[
document.addEventListener('DOMContentLoaded', (event) => {
  highlightEdges();
  highlightAdjacentNodes();
});
]]></script>
</svg>
