<?xml version="1.0" encoding="UTF-8" standalone="no"?>
<!DOCTYPE svg PUBLIC "-//W3C//DTD SVG 1.1//EN"
 "http://www.w3.org/Graphics/SVG/1.1/DTD/svg11.dtd">
<!-- Generated by graphviz version 9.0.0 (20230911.1827)
 -->
<!-- Title: iop_rpc_attr_t Pages: 1 -->
<svg width="132pt" height="571pt"
 viewBox="0.00 0.00 132.00 570.75" xmlns="http://www.w3.org/2000/svg" xmlns:xlink="http://www.w3.org/1999/xlink">
<g id="graph0" class="graph" transform="scale(1 1) rotate(0) translate(4 566.75)">
<title>iop_rpc_attr_t</title>
<!-- Node1 -->
<g id="Node000001" class="node">
<title>Node1</title>
<g id="a_Node000001"><a xlink:title=" ">
<polygon fill="#999999" stroke="none" points="122,-49 2,-49 2,0 122,0 122,-49"/>
<text text-anchor="start" x="32.38" y="-35.5" font-family="Helvetica,sans-Serif" font-size="10.00">iop_rpc_attr_t</text>
<text text-anchor="start" x="6" y="-20.5" font-family="Helvetica,sans-Serif" font-size="10.00">+</text>
<text text-anchor="start" x="16" y="-20.5" font-family="Helvetica,sans-Serif" font-size="10.00">iop_rpc_attr_type_t type</text>
<text text-anchor="start" x="60.5" y="-5.5" font-family="Helvetica,sans-Serif" font-size="10.00"> </text>
<polygon fill="#666666" stroke="#666666" points="2,-32 2,-32 122,-32 122,-32 2,-32"/>
<polygon fill="#666666" stroke="#666666" points="2,-17 2,-17 14,-17 14,-17 2,-17"/>
<polygon fill="#666666" stroke="#666666" points="14,-17 14,-17 122,-17 122,-17 14,-17"/>
<polygon fill="none" stroke="#666666" points="2,0 2,-49 122,-49 122,0 2,0"/>
</a>
</g>
</g>
<!-- Node2 -->
<g id="Node000002" class="node">
<title>Node2</title>
<g id="a_Node000002"><a xlink:href="../../db/dc2/structiop__generic__attr__arg__t.html" target="_top" xlink:title=" ">
<polygon fill="white" stroke="none" points="115,-145.25 9,-145.25 9,-96.25 115,-96.25 115,-145.25"/>
<text text-anchor="start" x="14" y="-131.75" font-family="Helvetica,sans-Serif" font-size="10.00">iop_generic_attr_arg_t</text>
<text text-anchor="start" x="60.5" y="-116.75" font-family="Helvetica,sans-Serif" font-size="10.00"> </text>
<text text-anchor="start" x="60.5" y="-101.75" font-family="Helvetica,sans-Serif" font-size="10.00"> </text>
<polygon fill="#666666" stroke="#666666" points="9,-128.25 9,-128.25 115,-128.25 115,-128.25 9,-128.25"/>
<polygon fill="#666666" stroke="#666666" points="9,-113.25 9,-113.25 115,-113.25 115,-113.25 9,-113.25"/>
<polygon fill="none" stroke="#666666" points="9,-96.25 9,-145.25 115,-145.25 115,-96.25 9,-96.25"/>
</a>
</g>
</g>
<!-- Node2&#45;&gt;Node1 -->
<g id="edge1_Node000001_Node000002" class="edge">
<title>Node2&#45;&gt;Node1</title>
<g id="a_edge1_Node000001_Node000002"><a xlink:title=" ">
<path fill="none" stroke="#63b8ff" d="M62,-96.45C62,-86.03 62,-73.5 62,-61.89"/>
<polygon fill="none" stroke="#63b8ff" points="62,-61.76 58,-55.76 62,-49.76 66,-55.76 62,-61.76"/>
</a>
</g>
<text text-anchor="middle" x="75.5" y="-68.75" font-family="Helvetica,sans-Serif" font-size="10.00" fill="grey"> +args</text>
</g>
<!-- Node3 -->
<g id="Node000003" class="node">
<title>Node3</title>
<g id="a_Node000003"><a xlink:href="../../d9/d45/unioniop__value__t.html" target="_top" xlink:title=" ">
<polygon fill="white" stroke="none" points="116,-376.5 8,-376.5 8,-192.5 116,-192.5 116,-376.5"/>
<text text-anchor="start" x="37.25" y="-363" font-family="Helvetica,sans-Serif" font-size="10.00">iop_value_t</text>
<text text-anchor="start" x="12" y="-348" font-family="Helvetica,sans-Serif" font-size="10.00">+</text>
<text text-anchor="start" x="22" y="-348" font-family="Helvetica,sans-Serif" font-size="10.00">int64_t i</text>
<text text-anchor="start" x="12" y="-333" font-family="Helvetica,sans-Serif" font-size="10.00">+</text>
<text text-anchor="start" x="22" y="-333" font-family="Helvetica,sans-Serif" font-size="10.00">int64_t i64</text>
<text text-anchor="start" x="12" y="-318" font-family="Helvetica,sans-Serif" font-size="10.00">+</text>
<text text-anchor="start" x="22" y="-318" font-family="Helvetica,sans-Serif" font-size="10.00">int32_t i32</text>
<text text-anchor="start" x="12" y="-303" font-family="Helvetica,sans-Serif" font-size="10.00">+</text>
<text text-anchor="start" x="22" y="-303" font-family="Helvetica,sans-Serif" font-size="10.00">uint64_t u</text>
<text text-anchor="start" x="12" y="-288" font-family="Helvetica,sans-Serif" font-size="10.00">+</text>
<text text-anchor="start" x="22" y="-288" font-family="Helvetica,sans-Serif" font-size="10.00">uint64_t u64</text>
<text text-anchor="start" x="12" y="-273" font-family="Helvetica,sans-Serif" font-size="10.00">+</text>
<text text-anchor="start" x="22" y="-273" font-family="Helvetica,sans-Serif" font-size="10.00">uint32_t u32</text>
<text text-anchor="start" x="12" y="-258" font-family="Helvetica,sans-Serif" font-size="10.00">+</text>
<text text-anchor="start" x="22" y="-258" font-family="Helvetica,sans-Serif" font-size="10.00">double d</text>
<text text-anchor="start" x="12" y="-243" font-family="Helvetica,sans-Serif" font-size="10.00">+</text>
<text text-anchor="start" x="22" y="-243" font-family="Helvetica,sans-Serif" font-size="10.00">bool b</text>
<text text-anchor="start" x="12" y="-228" font-family="Helvetica,sans-Serif" font-size="10.00">+</text>
<text text-anchor="start" x="22" y="-228" font-family="Helvetica,sans-Serif" font-size="10.00">const void *nullable p</text>
<text text-anchor="start" x="12" y="-213" font-family="Helvetica,sans-Serif" font-size="10.00">+</text>
<text text-anchor="start" x="22" y="-213" font-family="Helvetica,sans-Serif" font-size="10.00">void *nullable v</text>
<text text-anchor="start" x="60.5" y="-198" font-family="Helvetica,sans-Serif" font-size="10.00"> </text>
<polygon fill="#666666" stroke="#666666" points="8,-359.5 8,-359.5 116,-359.5 116,-359.5 8,-359.5"/>
<polygon fill="#666666" stroke="#666666" points="8,-209.5 8,-209.5 20,-209.5 20,-209.5 8,-209.5"/>
<polygon fill="#666666" stroke="#666666" points="20,-209.5 20,-209.5 116,-209.5 116,-209.5 20,-209.5"/>
<polygon fill="none" stroke="#666666" points="8,-192.5 8,-376.5 116,-376.5 116,-192.5 8,-192.5"/>
</a>
</g>
</g>
<!-- Node3&#45;&gt;Node2 -->
<g id="edge2_Node000002_Node000003" class="edge">
<title>Node3&#45;&gt;Node2</title>
<g id="a_edge2_Node000002_Node000003"><a xlink:title=" ">
<path fill="none" stroke="#63b8ff" d="M62,-192.7C62,-180.38 62,-168.37 62,-157.85"/>
<polygon fill="none" stroke="#63b8ff" points="62,-157.86 58,-151.86 62,-145.86 66,-151.86 62,-157.86"/>
</a>
</g>
<text text-anchor="middle" x="68.75" y="-165" font-family="Helvetica,sans-Serif" font-size="10.00" fill="grey"> +v</text>
</g>
<!-- Node4 -->
<g id="Node000004" class="node">
<title>Node4</title>
<g id="a_Node000004"><a xlink:href="../../d1/ddc/structlstr__t.html" target="_top" xlink:title="representation of a string with length.">
<polygon fill="white" stroke="none" points="124,-562.75 0,-562.75 0,-423.75 124,-423.75 124,-562.75"/>
<text text-anchor="start" x="51.12" y="-549.25" font-family="Helvetica,sans-Serif" font-size="10.00">lstr_t</text>
<text text-anchor="start" x="4" y="-534.25" font-family="Helvetica,sans-Serif" font-size="10.00">+</text>
<text text-anchor="start" x="14" y="-534.25" font-family="Helvetica,sans-Serif" font-size="10.00">const char * s</text>
<text text-anchor="start" x="4" y="-519.25" font-family="Helvetica,sans-Serif" font-size="10.00">+</text>
<text text-anchor="start" x="14" y="-519.25" font-family="Helvetica,sans-Serif" font-size="10.00">char * v</text>
<text text-anchor="start" x="4" y="-504.25" font-family="Helvetica,sans-Serif" font-size="10.00">+</text>
<text text-anchor="start" x="14" y="-504.25" font-family="Helvetica,sans-Serif" font-size="10.00">void * data</text>
<text text-anchor="start" x="4" y="-489.25" font-family="Helvetica,sans-Serif" font-size="10.00">+</text>
<text text-anchor="start" x="14" y="-489.25" font-family="Helvetica,sans-Serif" font-size="10.00">union lstr_t::@107 @108</text>
<text text-anchor="start" x="4" y="-474.25" font-family="Helvetica,sans-Serif" font-size="10.00">+</text>
<text text-anchor="start" x="14" y="-474.25" font-family="Helvetica,sans-Serif" font-size="10.00">int len</text>
<text text-anchor="start" x="4" y="-459.25" font-family="Helvetica,sans-Serif" font-size="10.00">+</text>
<text text-anchor="start" x="14" y="-459.25" font-family="Helvetica,sans-Serif" font-size="10.00">unsigned mem_pool</text>
<text text-anchor="start" x="4" y="-444.25" font-family="Helvetica,sans-Serif" font-size="10.00">+</text>
<text text-anchor="start" x="14" y="-444.25" font-family="Helvetica,sans-Serif" font-size="10.00">union lstr_t::@125 @126</text>
<text text-anchor="start" x="60.5" y="-429.25" font-family="Helvetica,sans-Serif" font-size="10.00"> </text>
<polygon fill="#666666" stroke="#666666" points="0,-545.75 0,-545.75 124,-545.75 124,-545.75 0,-545.75"/>
<polygon fill="#666666" stroke="#666666" points="0,-440.75 0,-440.75 12,-440.75 12,-440.75 0,-440.75"/>
<polygon fill="#666666" stroke="#666666" points="12,-440.75 12,-440.75 124,-440.75 124,-440.75 12,-440.75"/>
<polygon fill="none" stroke="#666666" points="0,-423.75 0,-562.75 124,-562.75 124,-423.75 0,-423.75"/>
</a>
</g>
</g>
<!-- Node4&#45;&gt;Node3 -->
<g id="edge3_Node000003_Node000004" class="edge">
<title>Node4&#45;&gt;Node3</title>
<g id="a_edge3_Node000003_Node000004"><a xlink:title=" ">
<path fill="none" stroke="#63b8ff" d="M62,-423.98C62,-412.75 62,-400.89 62,-389.04"/>
<polygon fill="none" stroke="#63b8ff" points="62,-389.1 58,-383.1 62,-377.1 66,-383.1 62,-389.1"/>
</a>
</g>
<text text-anchor="middle" x="68.75" y="-396.25" font-family="Helvetica,sans-Serif" font-size="10.00" fill="grey"> +s</text>
</g>
</g>
</svg>
