<?xml version="1.0" encoding="UTF-8" standalone="no"?>
<!DOCTYPE svg PUBLIC "-//W3C//DTD SVG 1.1//EN"
 "http://www.w3.org/Graphics/SVG/1.1/DTD/svg11.dtd">
<!-- Generated by graphviz version 9.0.0 (20230911.1827)
 -->
<!-- Title: t_split_on_str Pages: 1 -->
<svg width="1677pt" height="480pt"
 viewBox="0.00 0.00 1677.25 480.25" xmlns="http://www.w3.org/2000/svg" xmlns:xlink="http://www.w3.org/1999/xlink">
<g id="graph0" class="graph" transform="scale(1 1) rotate(0) translate(4 476.25)">
<title>t_split_on_str</title>
<!-- Node1 -->
<g id="Node000001" class="node">
<title>Node1</title>
<g id="a_Node000001"><a xlink:title=" ">
<polygon fill="#999999" stroke="#666666" points="74.5,-227.25 0,-227.25 0,-208 74.5,-208 74.5,-227.25"/>
<text text-anchor="middle" x="37.25" y="-213.75" font-family="Helvetica,sans-Serif" font-size="10.00">t_split_on_str</text>
</a>
</g>
</g>
<!-- Node2 -->
<g id="Node000002" class="node">
<title>Node2</title>
<g id="a_Node000002"><a xlink:href="../../dd/def/str-ctype_8h.html#a8a4076c56f547a9b1fd67bc9bcd6c6e9" target="_top" xlink:title=" ">
<polygon fill="white" stroke="#666666" points="201.5,-462.25 110.5,-462.25 110.5,-443 201.5,-443 201.5,-462.25"/>
<text text-anchor="middle" x="156" y="-448.75" font-family="Helvetica,sans-Serif" font-size="10.00">ctype_desc_build</text>
</a>
</g>
</g>
<!-- Node1&#45;&gt;Node2 -->
<g id="edge1_Node000001_Node000002" class="edge">
<title>Node1&#45;&gt;Node2</title>
<g id="a_edge1_Node000001_Node000002"><a xlink:title=" ">
<path fill="none" stroke="#63b8ff" d="M41.1,-227.39C49.4,-255.1 75.24,-336.11 110.5,-396.62 118.25,-409.93 128.94,-423.49 137.9,-433.93"/>
<polygon fill="#63b8ff" stroke="#63b8ff" points="135.26,-436.23 144.5,-441.41 140.51,-431.6 135.26,-436.23"/>
</a>
</g>
</g>
<!-- Node4 -->
<g id="Node000004" class="node">
<title>Node4</title>
<g id="a_Node000004"><a xlink:href="../../d4/d86/str-stream_8h.html#a01f510bc60b3e1efa55cf7c371dadfee" target="_top" xlink:title=" ">
<polygon fill="white" stroke="#666666" points="185,-387.25 127,-387.25 127,-368 185,-368 185,-387.25"/>
<text text-anchor="middle" x="156" y="-373.75" font-family="Helvetica,sans-Serif" font-size="10.00">ps_initlstr</text>
</a>
</g>
</g>
<!-- Node1&#45;&gt;Node4 -->
<g id="edge3_Node000001_Node000004" class="edge">
<title>Node1&#45;&gt;Node4</title>
<g id="a_edge3_Node000001_Node000004"><a xlink:title=" ">
<path fill="none" stroke="#63b8ff" d="M45.55,-227.63C64.64,-253.79 116.23,-324.5 141.16,-358.65"/>
<polygon fill="#63b8ff" stroke="#63b8ff" points="138.09,-360.38 146.81,-366.4 143.74,-356.26 138.09,-360.38"/>
</a>
</g>
</g>
<!-- Node7 -->
<g id="Node000007" class="node">
<title>Node7</title>
<g id="a_Node000007"><a xlink:href="../../d0/dee/str-stream_8c.html#a06377df2da016e42024221ec640d10f4" target="_top" xlink:title=" ">
<polygon fill="white" stroke="#666666" points="180.88,-275.25 131.12,-275.25 131.12,-256 180.88,-256 180.88,-275.25"/>
<text text-anchor="middle" x="156" y="-261.75" font-family="Helvetica,sans-Serif" font-size="10.00">ps_split</text>
</a>
</g>
</g>
<!-- Node1&#45;&gt;Node7 -->
<g id="edge6_Node000001_Node000007" class="edge">
<title>Node1&#45;&gt;Node7</title>
<g id="a_edge6_Node000001_Node000007"><a xlink:title=" ">
<path fill="none" stroke="#63b8ff" d="M62.72,-227.69C79.49,-234.58 101.97,-243.82 120.55,-251.46"/>
<polygon fill="#63b8ff" stroke="#63b8ff" points="118.98,-254.6 129.56,-255.16 121.64,-248.13 118.98,-254.6"/>
</a>
</g>
</g>
<!-- Node63 -->
<g id="Node000063" class="node">
<title>Node63</title>
<g id="a_Node000063"><a xlink:href="../../dc/d31/str-buf_8h.html#af06d57f4ca5646c0dfaee309dc556826" target="_top" xlink:title=" ">
<polygon fill="white" stroke="#666666" points="189.12,-189.25 122.88,-189.25 122.88,-170 189.12,-170 189.12,-189.25"/>
<text text-anchor="middle" x="156" y="-175.75" font-family="Helvetica,sans-Serif" font-size="10.00">sb_add_lstr</text>
</a>
</g>
</g>
<!-- Node1&#45;&gt;Node63 -->
<g id="edge45_Node000001_Node000063" class="edge">
<title>Node1&#45;&gt;Node63</title>
<g id="a_edge45_Node000001_Node000063"><a xlink:title=" ">
<path fill="none" stroke="#63b8ff" d="M69.23,-207.54C82.8,-203.13 98.91,-197.88 113.5,-193.13"/>
<polygon fill="#63b8ff" stroke="#63b8ff" points="114.42,-196.52 122.84,-190.09 112.25,-189.86 114.42,-196.52"/>
</a>
</g>
</g>
<!-- Node64 -->
<g id="Node000064" class="node">
<title>Node64</title>
<g id="a_Node000064"><a xlink:href="../../df/d0a/str-l_8h.html#aef999f3fc156bd0d489e768fc25b7ec0" target="_top" xlink:title="concatenates its argument to form a new lstr on the t_stack.">
<polygon fill="white" stroke="#666666" points="184.25,-95.25 127.75,-95.25 127.75,-76 184.25,-76 184.25,-95.25"/>
<text text-anchor="middle" x="156" y="-81.75" font-family="Helvetica,sans-Serif" font-size="10.00">t_lstr_cat</text>
</a>
</g>
</g>
<!-- Node1&#45;&gt;Node64 -->
<g id="edge47_Node000001_Node000064" class="edge">
<title>Node1&#45;&gt;Node64</title>
<g id="a_edge47_Node000001_Node000064"><a xlink:title=" ">
<path fill="none" stroke="#63b8ff" d="M42.07,-207.63C50.9,-185.81 74.69,-133.49 110.5,-103.62 112.68,-101.8 115.08,-100.15 117.58,-98.65"/>
<polygon fill="#63b8ff" stroke="#63b8ff" points="118.91,-101.9 126.26,-94.27 115.76,-95.65 118.91,-101.9"/>
</a>
</g>
</g>
<!-- Node69 -->
<g id="Node000069" class="node">
<title>Node69</title>
<g id="a_Node000069"><a xlink:href="../../df/d0a/str-l_8h.html#a93860e0a444ab8a423d79b7818a28345" target="_top" xlink:title="returns a duplicated lstr from the mem stack.">
<polygon fill="white" stroke="#666666" points="185.38,-132.25 126.62,-132.25 126.62,-113 185.38,-113 185.38,-132.25"/>
<text text-anchor="middle" x="156" y="-118.75" font-family="Helvetica,sans-Serif" font-size="10.00">t_lstr_dup</text>
</a>
</g>
</g>
<!-- Node1&#45;&gt;Node69 -->
<g id="edge55_Node000001_Node000069" class="edge">
<title>Node1&#45;&gt;Node69</title>
<g id="a_edge55_Node000001_Node000069"><a xlink:title=" ">
<path fill="none" stroke="#63b8ff" d="M50.3,-207.82C70.05,-191.75 109.55,-159.61 133.98,-139.73"/>
<polygon fill="#63b8ff" stroke="#63b8ff" points="136.11,-142.5 141.66,-133.48 131.7,-137.07 136.11,-142.5"/>
</a>
</g>
</g>
<!-- Node3 -->
<g id="Node000003" class="node">
<title>Node3</title>
<g id="a_Node000003"><a xlink:href="../../dd/def/str-ctype_8h.html#a01d45cbdda0e68b0ff5aaeb618825ceb" target="_top" xlink:title=" ">
<polygon fill="white" stroke="#666666" points="330,-472.25 237.5,-472.25 237.5,-453 330,-453 330,-472.25"/>
<text text-anchor="middle" x="283.75" y="-458.75" font-family="Helvetica,sans-Serif" font-size="10.00">ctype_desc_reset</text>
</a>
</g>
</g>
<!-- Node2&#45;&gt;Node3 -->
<g id="edge2_Node000002_Node000003" class="edge">
<title>Node2&#45;&gt;Node3</title>
<g id="a_edge2_Node000002_Node000003"><a xlink:title=" ">
<path fill="none" stroke="#63b8ff" d="M201.69,-456.18C209.56,-456.8 217.84,-457.46 225.99,-458.11"/>
<polygon fill="#63b8ff" stroke="#63b8ff" points="225.6,-461.59 235.85,-458.9 226.16,-454.61 225.6,-461.59"/>
</a>
</g>
</g>
<!-- Node5 -->
<g id="Node000005" class="node">
<title>Node5</title>
<g id="a_Node000005"><a xlink:href="../../d4/d86/str-stream_8h.html#a8c72cf3833ab9273d676151a583336a2" target="_top" xlink:title=" ">
<polygon fill="white" stroke="#666666" points="442,-434.25 397.5,-434.25 397.5,-415 442,-415 442,-434.25"/>
<text text-anchor="middle" x="419.75" y="-420.75" font-family="Helvetica,sans-Serif" font-size="10.00">ps_init</text>
</a>
</g>
</g>
<!-- Node4&#45;&gt;Node5 -->
<g id="edge4_Node000004_Node000005" class="edge">
<title>Node4&#45;&gt;Node5</title>
<g id="a_edge4_Node000004_Node000005"><a xlink:title=" ">
<path fill="none" stroke="#63b8ff" d="M185.43,-386.85C200.73,-391.53 220,-396.99 237.5,-400.62 288.73,-411.28 349.15,-418.16 385.67,-421.72"/>
<polygon fill="#63b8ff" stroke="#63b8ff" points="385.3,-425.2 395.59,-422.65 385.96,-418.23 385.3,-425.2"/>
</a>
</g>
</g>
<!-- Node6 -->
<g id="Node000006" class="node">
<title>Node6</title>
<g id="a_Node000006"><a xlink:href="../../d4/d86/str-stream_8h.html#a3b4fe44eb26c6eb77b5c58ab8f6a0b46" target="_top" xlink:title=" ">
<polygon fill="white" stroke="#666666" points="571.62,-434.25 515.88,-434.25 515.88,-415 571.62,-415 571.62,-434.25"/>
<text text-anchor="middle" x="543.75" y="-420.75" font-family="Helvetica,sans-Serif" font-size="10.00">ps_initptr</text>
</a>
</g>
</g>
<!-- Node5&#45;&gt;Node6 -->
<g id="edge5_Node000005_Node000006" class="edge">
<title>Node5&#45;&gt;Node6</title>
<g id="a_edge5_Node000005_Node000006"><a xlink:title=" ">
<path fill="none" stroke="#63b8ff" d="M442.28,-424.62C459.32,-424.62 483.56,-424.62 503.97,-424.62"/>
<polygon fill="#63b8ff" stroke="#63b8ff" points="503.94,-428.13 513.94,-424.63 503.94,-421.13 503.94,-428.13"/>
</a>
</g>
</g>
<!-- Node8 -->
<g id="Node000008" class="node">
<title>Node8</title>
<g id="a_Node000008"><a xlink:href="../../d4/d86/str-stream_8h.html#a171f7ecffb1d3846b226cd8d7016aed7" target="_top" xlink:title=" ">
<polygon fill="white" stroke="#666666" points="673.12,-359.25 620.38,-359.25 620.38,-340 673.12,-340 673.12,-359.25"/>
<text text-anchor="middle" x="646.75" y="-345.75" font-family="Helvetica,sans-Serif" font-size="10.00">ps_done</text>
</a>
</g>
</g>
<!-- Node7&#45;&gt;Node8 -->
<g id="edge7_Node000007_Node000008" class="edge">
<title>Node7&#45;&gt;Node8</title>
<g id="a_edge7_Node000007_Node000008"><a xlink:title=" ">
<path fill="none" stroke="#63b8ff" d="M163.34,-275.58C175.36,-293.54 203.38,-331.13 237.5,-348.62 372.38,-417.77 427.71,-387.25 578,-367.62 588.26,-366.29 599.17,-363.85 609.18,-361.2"/>
<polygon fill="#63b8ff" stroke="#63b8ff" points="609.87,-364.64 618.55,-358.56 607.98,-357.9 609.87,-364.64"/>
</a>
</g>
</g>
<!-- Node9 -->
<g id="Node000009" class="node">
<title>Node9</title>
<g id="a_Node000009"><a xlink:href="../../d4/d86/str-stream_8h.html#afc666c144a33f2620d7f6a51849b40e5" target="_top" xlink:title=" ">
<polygon fill="white" stroke="#666666" points="322.12,-339.25 245.38,-339.25 245.38,-320 322.12,-320 322.12,-339.25"/>
<text text-anchor="middle" x="283.75" y="-325.75" font-family="Helvetica,sans-Serif" font-size="10.00">ps_get_cspan</text>
</a>
</g>
</g>
<!-- Node7&#45;&gt;Node9 -->
<g id="edge8_Node000007_Node000009" class="edge">
<title>Node7&#45;&gt;Node9</title>
<g id="a_edge8_Node000007_Node000009"><a xlink:title=" ">
<path fill="none" stroke="#63b8ff" d="M172.98,-275.65C188.97,-285.46 214.44,-300.52 237.5,-311.62 240.03,-312.84 242.67,-314.05 245.34,-315.23"/>
<polygon fill="#63b8ff" stroke="#63b8ff" points="243.71,-318.34 254.29,-318.99 246.43,-311.89 243.71,-318.34"/>
</a>
</g>
</g>
<!-- Node13 -->
<g id="Node000013" class="node">
<title>Node13</title>
<g id="a_Node000013"><a xlink:href="../../d4/d86/str-stream_8h.html#a6519e4e29aa5ddc1017c2c4a197e6995" target="_top" xlink:title=" ">
<polygon fill="white" stroke="#666666" points="308.62,-265.25 258.88,-265.25 258.88,-246 308.62,-246 308.62,-265.25"/>
<text text-anchor="middle" x="283.75" y="-251.75" font-family="Helvetica,sans-Serif" font-size="10.00">ps_skip</text>
</a>
</g>
</g>
<!-- Node7&#45;&gt;Node13 -->
<g id="edge13_Node000007_Node000013" class="edge">
<title>Node7&#45;&gt;Node13</title>
<g id="a_edge13_Node000007_Node000013"><a xlink:title=" ">
<path fill="none" stroke="#63b8ff" d="M181.25,-263.7C199.95,-262.21 226.09,-260.13 247.16,-258.45"/>
<polygon fill="#63b8ff" stroke="#63b8ff" points="247.38,-261.95 257.07,-257.67 246.82,-254.97 247.38,-261.95"/>
</a>
</g>
</g>
<!-- Node16 -->
<g id="Node000016" class="node">
<title>Node16</title>
<g id="a_Node000016"><a xlink:href="../../d4/d86/str-stream_8h.html#ab78e1058da1a53def87108a4cccce75b" target="_top" xlink:title=" ">
<polygon fill="white" stroke="#666666" points="321.75,-302.25 245.75,-302.25 245.75,-283 321.75,-283 321.75,-302.25"/>
<text text-anchor="middle" x="283.75" y="-288.75" font-family="Helvetica,sans-Serif" font-size="10.00">ps_skip_span</text>
</a>
</g>
</g>
<!-- Node7&#45;&gt;Node16 -->
<g id="edge18_Node000007_Node000016" class="edge">
<title>Node7&#45;&gt;Node16</title>
<g id="a_edge18_Node000007_Node000016"><a xlink:title=" ">
<path fill="none" stroke="#63b8ff" d="M181.25,-270.83C196.38,-274.08 216.38,-278.37 234.63,-282.29"/>
<polygon fill="#63b8ff" stroke="#63b8ff" points="233.71,-285.68 244.22,-284.35 235.18,-278.83 233.71,-285.68"/>
</a>
</g>
</g>
<!-- Node17 -->
<g id="Node000017" class="node">
<title>Node17</title>
<g id="a_Node000017"><a xlink:href="../../d1/dd5/iopc-lang-json_8blk.html#a2e3d34eed6781e6c23e6fd37e2eb66cd" target="_top" xlink:title=" ">
<polygon fill="white" stroke="#666666" points="299.62,-218.25 267.88,-218.25 267.88,-199 299.62,-199 299.62,-218.25"/>
<text text-anchor="middle" x="283.75" y="-204.75" font-family="Helvetica,sans-Serif" font-size="10.00">sep</text>
</a>
</g>
</g>
<!-- Node7&#45;&gt;Node17 -->
<g id="edge20_Node000007_Node000017" class="edge">
<title>Node7&#45;&gt;Node17</title>
<g id="a_edge20_Node000007_Node000017"><a xlink:title=" ">
<path fill="none" stroke="#63b8ff" d="M179.19,-255.57C201.01,-245.68 234.27,-230.6 257.18,-220.22"/>
<polygon fill="#63b8ff" stroke="#63b8ff" points="258.46,-223.48 266.12,-216.16 255.57,-217.1 258.46,-223.48"/>
</a>
</g>
</g>
<!-- Node10 -->
<g id="Node000010" class="node">
<title>Node10</title>
<g id="a_Node000010"><a xlink:href="../../d4/d86/str-stream_8h.html#a0cabc922ee6509017454cd14b7cd9fc5" target="_top" xlink:title=" ">
<polygon fill="white" stroke="#666666" points="467.5,-358.25 372,-358.25 372,-339 467.5,-339 467.5,-358.25"/>
<text text-anchor="middle" x="419.75" y="-344.75" font-family="Helvetica,sans-Serif" font-size="10.00">__ps_get_ps_upto</text>
</a>
</g>
</g>
<!-- Node9&#45;&gt;Node10 -->
<g id="edge9_Node000009_Node000010" class="edge">
<title>Node9&#45;&gt;Node10</title>
<g id="a_edge9_Node000009_Node000010"><a xlink:title=" ">
<path fill="none" stroke="#63b8ff" d="M322.43,-334.97C334.29,-336.65 347.67,-338.55 360.6,-340.38"/>
<polygon fill="#63b8ff" stroke="#63b8ff" points="359.91,-343.82 370.3,-341.76 360.89,-336.89 359.91,-343.82"/>
</a>
</g>
</g>
<!-- Node12 -->
<g id="Node000012" class="node">
<title>Node12</title>
<g id="a_Node000012"><a xlink:href="../../dd/def/str-ctype_8h.html#ae0cf190bab0c8d79a8562678e7661aad" target="_top" xlink:title=" ">
<polygon fill="white" stroke="#666666" points="473.5,-321.25 366,-321.25 366,-302 473.5,-302 473.5,-321.25"/>
<text text-anchor="middle" x="419.75" y="-307.75" font-family="Helvetica,sans-Serif" font-size="10.00">ctype_desc_contains</text>
</a>
</g>
</g>
<!-- Node9&#45;&gt;Node12 -->
<g id="edge12_Node000009_Node000012" class="edge">
<title>Node9&#45;&gt;Node12</title>
<g id="a_edge12_Node000009_Node000012"><a xlink:title=" ">
<path fill="none" stroke="#63b8ff" d="M322.43,-324.56C332.37,-323.23 343.38,-321.75 354.3,-320.28"/>
<polygon fill="#63b8ff" stroke="#63b8ff" points="354.66,-323.77 364.1,-318.97 353.73,-316.83 354.66,-323.77"/>
</a>
</g>
</g>
<!-- Node10&#45;&gt;Node6 -->
<g id="edge11_Node000010_Node000006" class="edge">
<title>Node10&#45;&gt;Node6</title>
<g id="a_edge11_Node000010_Node000006"><a xlink:title=" ">
<path fill="none" stroke="#63b8ff" d="M436.95,-358.72C457.48,-371.51 493.1,-393.7 517.28,-408.76"/>
<polygon fill="#63b8ff" stroke="#63b8ff" points="515.25,-411.62 525.59,-413.93 518.95,-405.67 515.25,-411.62"/>
</a>
</g>
</g>
<!-- Node11 -->
<g id="Node000011" class="node">
<title>Node11</title>
<g id="a_Node000011"><a xlink:href="../../d4/d86/str-stream_8h.html#a25629ed82260cb18f7703e4bd8e8c0a4" target="_top" xlink:title=" ">
<polygon fill="white" stroke="#666666" points="578,-358.25 509.5,-358.25 509.5,-339 578,-339 578,-358.25"/>
<text text-anchor="middle" x="543.75" y="-344.75" font-family="Helvetica,sans-Serif" font-size="10.00">ps_contains</text>
</a>
</g>
</g>
<!-- Node10&#45;&gt;Node11 -->
<g id="edge10_Node000010_Node000011" class="edge">
<title>Node10&#45;&gt;Node11</title>
<g id="a_edge10_Node000010_Node000011"><a xlink:title=" ">
<path fill="none" stroke="#63b8ff" d="M467.92,-348.62C477.74,-348.62 488.06,-348.62 497.8,-348.62"/>
<polygon fill="#63b8ff" stroke="#63b8ff" points="497.8,-352.13 507.8,-348.63 497.8,-345.13 497.8,-352.13"/>
</a>
</g>
</g>
<!-- Node14 -->
<g id="Node000014" class="node">
<title>Node14</title>
<g id="a_Node000014"><a xlink:href="../../d4/d86/str-stream_8h.html#ae098817247881bad5d9318d4c6b712cf" target="_top" xlink:title=" ">
<polygon fill="white" stroke="#666666" points="449.88,-284.25 389.62,-284.25 389.62,-265 449.88,-265 449.88,-284.25"/>
<text text-anchor="middle" x="419.75" y="-270.75" font-family="Helvetica,sans-Serif" font-size="10.00">__ps_skip</text>
</a>
</g>
</g>
<!-- Node13&#45;&gt;Node14 -->
<g id="edge14_Node000013_Node000014" class="edge">
<title>Node13&#45;&gt;Node14</title>
<g id="a_edge14_Node000013_Node000014"><a xlink:title=" ">
<path fill="none" stroke="#63b8ff" d="M309.02,-259.07C328.28,-261.8 355.64,-265.68 378.22,-268.88"/>
<polygon fill="#63b8ff" stroke="#63b8ff" points="377.64,-272.33 388.03,-270.27 378.62,-265.4 377.64,-272.33"/>
</a>
</g>
</g>
<!-- Node15 -->
<g id="Node000015" class="node">
<title>Node15</title>
<g id="a_Node000015"><a xlink:href="../../d4/d86/str-stream_8h.html#ab34e4ed4459c611a797df76cab2e8846" target="_top" xlink:title=" ">
<polygon fill="white" stroke="#666666" points="567.5,-284.25 520,-284.25 520,-265 567.5,-265 567.5,-284.25"/>
<text text-anchor="middle" x="543.75" y="-270.75" font-family="Helvetica,sans-Serif" font-size="10.00">ps_has</text>
</a>
</g>
</g>
<!-- Node13&#45;&gt;Node15 -->
<g id="edge17_Node000013_Node000015" class="edge">
<title>Node13&#45;&gt;Node15</title>
<g id="a_edge17_Node000013_Node000015"><a xlink:title=" ">
<path fill="none" stroke="#63b8ff" d="M309.02,-253.56C345.09,-250.97 414.88,-247.73 473.5,-255.62 485.15,-257.19 497.6,-260.18 508.7,-263.33"/>
<polygon fill="#63b8ff" stroke="#63b8ff" points="507.64,-266.67 518.22,-266.19 509.65,-259.97 507.64,-266.67"/>
</a>
</g>
</g>
<!-- Node14&#45;&gt;Node15 -->
<g id="edge15_Node000014_Node000015" class="edge">
<title>Node14&#45;&gt;Node15</title>
<g id="a_edge15_Node000014_Node000015"><a xlink:title=" ">
<path fill="none" stroke="#63b8ff" d="M450.28,-274.62C467.75,-274.62 489.97,-274.62 508.24,-274.62"/>
<polygon fill="#63b8ff" stroke="#63b8ff" points="508.08,-278.13 518.08,-274.63 508.08,-271.13 508.08,-278.13"/>
</a>
</g>
</g>
<!-- Node15&#45;&gt;Node8 -->
<g id="edge16_Node000015_Node000008" class="edge">
<title>Node15&#45;&gt;Node8</title>
<g id="a_edge16_Node000015_Node000008"><a xlink:title=" ">
<path fill="none" stroke="#63b8ff" d="M558.37,-284.74C575.03,-297.11 603.46,-318.22 623.35,-332.99"/>
<polygon fill="#63b8ff" stroke="#63b8ff" points="621.01,-335.62 631.13,-338.77 625.19,-330 621.01,-335.62"/>
</a>
</g>
</g>
<!-- Node16&#45;&gt;Node12 -->
<g id="edge19_Node000016_Node000012" class="edge">
<title>Node16&#45;&gt;Node12</title>
<g id="a_edge19_Node000016_Node000012"><a xlink:title=" ">
<path fill="none" stroke="#63b8ff" d="M322.08,-297.92C332.08,-299.34 343.18,-300.91 354.2,-302.47"/>
<polygon fill="#63b8ff" stroke="#63b8ff" points="353.71,-305.94 364.1,-303.88 354.69,-299.01 353.71,-305.94"/>
</a>
</g>
</g>
<!-- Node18 -->
<g id="Node000018" class="node">
<title>Node18</title>
<g id="a_Node000018"><a xlink:href="../../dc/d31/str-buf_8h.html#a0e30bbfffdcff0994b8d64f4e75b9be4" target="_top" xlink:title=" ">
<polygon fill="white" stroke="#666666" points="446.12,-208.25 393.38,-208.25 393.38,-189 446.12,-189 446.12,-208.25"/>
<text text-anchor="middle" x="419.75" y="-194.75" font-family="Helvetica,sans-Serif" font-size="10.00">sb_adds</text>
</a>
</g>
</g>
<!-- Node17&#45;&gt;Node18 -->
<g id="edge21_Node000017_Node000018" class="edge">
<title>Node17&#45;&gt;Node18</title>
<g id="a_edge21_Node000017_Node000018"><a xlink:title=" ">
<path fill="none" stroke="#63b8ff" d="M300.12,-207.48C319.88,-206 354.85,-203.39 381.72,-201.39"/>
<polygon fill="#63b8ff" stroke="#63b8ff" points="381.82,-204.89 391.53,-200.66 381.3,-197.91 381.82,-204.89"/>
</a>
</g>
</g>
<!-- Node19 -->
<g id="Node000019" class="node">
<title>Node19</title>
<g id="a_Node000019"><a xlink:href="../../dc/d31/str-buf_8h.html#a6e739817e8e91ceaace33c4817e67ac6" target="_top" xlink:title=" ">
<polygon fill="white" stroke="#666666" points="567.5,-208.25 520,-208.25 520,-189 567.5,-189 567.5,-208.25"/>
<text text-anchor="middle" x="543.75" y="-194.75" font-family="Helvetica,sans-Serif" font-size="10.00">sb_add</text>
</a>
</g>
</g>
<!-- Node18&#45;&gt;Node19 -->
<g id="edge22_Node000018_Node000019" class="edge">
<title>Node18&#45;&gt;Node19</title>
<g id="a_edge22_Node000018_Node000019"><a xlink:title=" ">
<path fill="none" stroke="#63b8ff" d="M446.62,-198.62C464.58,-198.62 488.7,-198.62 508.28,-198.62"/>
<polygon fill="#63b8ff" stroke="#63b8ff" points="508.28,-202.13 518.28,-198.63 508.28,-195.13 508.28,-202.13"/>
</a>
</g>
</g>
<!-- Node20 -->
<g id="Node000020" class="node">
<title>Node20</title>
<g id="a_Node000020"><a xlink:href="../../dc/d31/str-buf_8h.html#a69537528c954fce98e3d2cb92232ffe8" target="_top" xlink:title=" ">
<polygon fill="white" stroke="#666666" points="679.5,-285.25 614,-285.25 614,-266 679.5,-266 679.5,-285.25"/>
<text text-anchor="middle" x="646.75" y="-271.75" font-family="Helvetica,sans-Serif" font-size="10.00">sb_growlen</text>
</a>
</g>
</g>
<!-- Node19&#45;&gt;Node20 -->
<g id="edge23_Node000019_Node000020" class="edge">
<title>Node19&#45;&gt;Node20</title>
<g id="a_edge23_Node000019_Node000020"><a xlink:title=" ">
<path fill="none" stroke="#63b8ff" d="M557.95,-208.69C574.59,-221.37 603.42,-243.35 623.49,-258.65"/>
<polygon fill="#63b8ff" stroke="#63b8ff" points="621.26,-261.36 631.34,-264.64 625.51,-255.79 621.26,-261.36"/>
</a>
</g>
</g>
<!-- Node21 -->
<g id="Node000021" class="node">
<title>Node21</title>
<g id="a_Node000021"><a xlink:href="../../dc/d31/str-buf_8h.html#a5019d1298a6a5b4f8ae0b645bb8bc627" target="_top" xlink:title=" ">
<polygon fill="white" stroke="#666666" points="779.5,-378.25 715.5,-378.25 715.5,-359 779.5,-359 779.5,-378.25"/>
<text text-anchor="middle" x="747.5" y="-364.75" font-family="Helvetica,sans-Serif" font-size="10.00">__sb_fixlen</text>
</a>
</g>
</g>
<!-- Node20&#45;&gt;Node21 -->
<g id="edge24_Node000020_Node000021" class="edge">
<title>Node20&#45;&gt;Node21</title>
<g id="a_edge24_Node000020_Node000021"><a xlink:title=" ">
<path fill="none" stroke="#63b8ff" d="M658.32,-285.58C674.87,-301.17 707.16,-331.57 727.73,-350.95"/>
<polygon fill="#63b8ff" stroke="#63b8ff" points="725.23,-353.4 734.91,-357.71 730.03,-348.3 725.23,-353.4"/>
</a>
</g>
</g>
<!-- Node23 -->
<g id="Node000023" class="node">
<title>Node23</title>
<g id="a_Node000023"><a xlink:href="../../d4/d02/str-buf_8c.html#a96e2e5252e81ed31e7071e4db76085b5" target="_top" xlink:title=" ">
<polygon fill="white" stroke="#666666" points="779.12,-303.25 715.88,-303.25 715.88,-284 779.12,-284 779.12,-303.25"/>
<text text-anchor="middle" x="747.5" y="-289.75" font-family="Helvetica,sans-Serif" font-size="10.00">__sb_grow</text>
</a>
</g>
</g>
<!-- Node20&#45;&gt;Node23 -->
<g id="edge26_Node000020_Node000023" class="edge">
<title>Node20&#45;&gt;Node23</title>
<g id="a_edge26_Node000020_Node000023"><a xlink:title=" ">
<path fill="none" stroke="#63b8ff" d="M679.81,-281.47C687.62,-282.89 696.09,-284.44 704.29,-285.93"/>
<polygon fill="#63b8ff" stroke="#63b8ff" points="703.65,-289.37 714.12,-287.72 704.91,-282.49 703.65,-289.37"/>
</a>
</g>
</g>
<!-- Node62 -->
<g id="Node000062" class="node">
<title>Node62</title>
<g id="a_Node000062"><a xlink:href="../../dc/d31/str-buf_8h.html#acd3f1b7a3fde32b199cf24fdb133b4ce" target="_top" xlink:title=" ">
<polygon fill="white" stroke="#666666" points="771.25,-266.25 723.75,-266.25 723.75,-247 771.25,-247 771.25,-266.25"/>
<text text-anchor="middle" x="747.5" y="-252.75" font-family="Helvetica,sans-Serif" font-size="10.00">sb_end</text>
</a>
</g>
</g>
<!-- Node20&#45;&gt;Node62 -->
<g id="edge44_Node000020_Node000062" class="edge">
<title>Node20&#45;&gt;Node62</title>
<g id="a_edge44_Node000020_Node000062"><a xlink:title=" ">
<path fill="none" stroke="#63b8ff" d="M679.81,-269.46C690.12,-267.47 701.59,-265.27 712.06,-263.25"/>
<polygon fill="#63b8ff" stroke="#63b8ff" points="712.71,-266.69 721.87,-261.36 711.39,-259.82 712.71,-266.69"/>
</a>
</g>
</g>
<!-- Node22 -->
<g id="Node000022" class="node">
<title>Node22</title>
<g id="a_Node000022"><a xlink:href="../../dc/d31/str-buf_8h.html#a01c1a4f8ed76b6a919595b803c7d7376" target="_top" xlink:title=" ">
<polygon fill="white" stroke="#666666" points="909.88,-397.25 825.62,-397.25 825.62,-378 909.88,-378 909.88,-397.25"/>
<text text-anchor="middle" x="867.75" y="-383.75" font-family="Helvetica,sans-Serif" font-size="10.00">sb_set_trailing0</text>
</a>
</g>
</g>
<!-- Node21&#45;&gt;Node22 -->
<g id="edge25_Node000021_Node000022" class="edge">
<title>Node21&#45;&gt;Node22</title>
<g id="a_edge25_Node000021_Node000022"><a xlink:title=" ">
<path fill="none" stroke="#63b8ff" d="M779.88,-373.67C790.46,-375.37 802.57,-377.31 814.32,-379.2"/>
<polygon fill="#63b8ff" stroke="#63b8ff" points="813.49,-382.61 823.92,-380.74 814.6,-375.7 813.49,-382.61"/>
</a>
</g>
</g>
<!-- Node24 -->
<g id="Node000024" class="node">
<title>Node24</title>
<g id="a_Node000024"><a xlink:href="../../d7/df8/log_8c.html#abca342edf91a9b45f7a17ef564fa8a53" target="_top" xlink:title=" ">
<polygon fill="white" stroke="#666666" points="1545.25,-303.25 1495.5,-303.25 1495.5,-284 1545.25,-284 1545.25,-303.25"/>
<text text-anchor="middle" x="1520.38" y="-289.75" font-family="Helvetica,sans-Serif" font-size="10.00">e_panic</text>
</a>
</g>
</g>
<!-- Node23&#45;&gt;Node24 -->
<g id="edge27_Node000023_Node000024" class="edge">
<title>Node23&#45;&gt;Node24</title>
<g id="a_edge27_Node000023_Node000024"><a xlink:title=" ">
<path fill="none" stroke="#63b8ff" d="M779.34,-297.29C828.56,-302.81 927.95,-312.62 1012.5,-312.62 1012.5,-312.62 1012.5,-312.62 1265.88,-312.62 1343.95,-312.62 1435.18,-303.55 1484.1,-297.94"/>
<polygon fill="#63b8ff" stroke="#63b8ff" points="1484.27,-301.45 1493.8,-296.81 1483.46,-294.5 1484.27,-301.45"/>
</a>
</g>
</g>
<!-- Node48 -->
<g id="Node000048" class="node">
<title>Node48</title>
<g id="a_Node000048"><a xlink:href="../../d9/d9a/mem_8h.html#a3fd6d5b3dcb24f194848ce86f988fb13" target="_top" xlink:title=" ">
<polygon fill="white" stroke="#666666" points="895.25,-247.25 840.25,-247.25 840.25,-228 895.25,-228 895.25,-247.25"/>
<text text-anchor="middle" x="867.75" y="-233.75" font-family="Helvetica,sans-Serif" font-size="10.00">mp_ipool</text>
</a>
</g>
</g>
<!-- Node23&#45;&gt;Node48 -->
<g id="edge31_Node000023_Node000048" class="edge">
<title>Node23&#45;&gt;Node48</title>
<g id="a_edge31_Node000023_Node000048"><a xlink:title=" ">
<path fill="none" stroke="#63b8ff" d="M765.65,-283.69C783.78,-273.22 810.45,-257.92 815.5,-255.62 819.85,-253.65 824.48,-251.75 829.11,-249.98"/>
<polygon fill="#63b8ff" stroke="#63b8ff" points="830.17,-253.31 838.37,-246.6 827.78,-246.74 830.17,-253.31"/>
</a>
</g>
</g>
<!-- Node49 -->
<g id="Node000049" class="node">
<title>Node49</title>
<g id="a_Node000049"><a xlink:href="../../d9/d9a/mem_8h.html#a15958df365e5c2cc90a6c0c3e7e0e74f" target="_top" xlink:title=" ">
<polygon fill="white" stroke="#666666" points="920,-284.25 815.5,-284.25 815.5,-265 920,-265 920,-284.25"/>
<text text-anchor="middle" x="867.75" y="-270.75" font-family="Helvetica,sans-Serif" font-size="10.00">mp_irealloc_fallback</text>
</a>
</g>
</g>
<!-- Node23&#45;&gt;Node49 -->
<g id="edge32_Node000023_Node000049" class="edge">
<title>Node23&#45;&gt;Node49</title>
<g id="a_edge32_Node000023_Node000049"><a xlink:title=" ">
<path fill="none" stroke="#63b8ff" d="M779.57,-288.63C787.18,-287.41 795.6,-286.06 804.12,-284.69"/>
<polygon fill="#63b8ff" stroke="#63b8ff" points="804.5,-288.17 813.82,-283.13 803.39,-281.26 804.5,-288.17"/>
</a>
</g>
</g>
<!-- Node61 -->
<g id="Node000061" class="node">
<title>Node61</title>
<g id="a_Node000061"><a xlink:href="../../d4/d02/str-buf_8c.html#a63ddc4121cc8fbd2d5fd2a6d65a24feb" target="_top" xlink:title=" ">
<polygon fill="white" stroke="#666666" points="911,-360.25 824.5,-360.25 824.5,-341 911,-341 911,-360.25"/>
<text text-anchor="middle" x="867.75" y="-346.75" font-family="Helvetica,sans-Serif" font-size="10.00">sb_destroy_skip</text>
</a>
</g>
</g>
<!-- Node23&#45;&gt;Node61 -->
<g id="edge43_Node000023_Node000061" class="edge">
<title>Node23&#45;&gt;Node61</title>
<g id="a_edge43_Node000023_Node000061"><a xlink:title=" ">
<path fill="none" stroke="#63b8ff" d="M768.68,-303.69C781.95,-310.28 799.72,-319.05 815.5,-326.62 821.68,-329.6 828.31,-332.73 834.67,-335.72"/>
<polygon fill="#63b8ff" stroke="#63b8ff" points="833.1,-338.85 843.64,-339.92 836.07,-332.51 833.1,-338.85"/>
</a>
</g>
</g>
<!-- Node25 -->
<g id="Node000025" class="node">
<title>Node25</title>
<g id="a_Node000025"><a xlink:href="../../d7/df8/log_8c.html#a4bc04f7baa1e064cb0b93c7b9f3a61a1" target="_top" xlink:title=" ">
<polygon fill="#fff0f0" stroke="red" points="1669.25,-340.25 1581.25,-340.25 1581.25,-321 1669.25,-321 1669.25,-340.25"/>
<text text-anchor="middle" x="1625.25" y="-326.75" font-family="Helvetica,sans-Serif" font-size="10.00">__logger_refresh</text>
</a>
</g>
</g>
<!-- Node24&#45;&gt;Node25 -->
<g id="edge28_Node000024_Node000025" class="edge">
<title>Node24&#45;&gt;Node25</title>
<g id="a_edge28_Node000024_Node000025"><a xlink:title=" ">
<path fill="none" stroke="#63b8ff" d="M1545.49,-302.3C1557.49,-306.61 1572.28,-311.93 1585.79,-316.79"/>
<polygon fill="#63b8ff" stroke="#63b8ff" points="1584.26,-319.96 1594.85,-320.05 1586.63,-313.37 1584.26,-319.96"/>
</a>
</g>
</g>
<!-- Node43 -->
<g id="Node000043" class="node">
<title>Node43</title>
<g id="a_Node000043"><a xlink:href="../../d7/df8/log_8c.html#a900490b26df7698aac12f7f7e6517e81" target="_top" xlink:title=" ">
<polygon fill="#fff0f0" stroke="red" points="1658,-303.25 1592.5,-303.25 1592.5,-284 1658,-284 1658,-303.25"/>
<text text-anchor="middle" x="1625.25" y="-289.75" font-family="Helvetica,sans-Serif" font-size="10.00">logger_vlog</text>
</a>
</g>
</g>
<!-- Node24&#45;&gt;Node43 -->
<g id="edge29_Node000024_Node000043" class="edge">
<title>Node24&#45;&gt;Node43</title>
<g id="a_edge29_Node000024_Node000043"><a xlink:title=" ">
<path fill="none" stroke="#63b8ff" d="M1545.49,-293.62C1556.03,-293.62 1568.71,-293.62 1580.79,-293.62"/>
<polygon fill="#63b8ff" stroke="#63b8ff" points="1580.59,-297.13 1590.59,-293.63 1580.59,-290.13 1580.59,-297.13"/>
</a>
</g>
</g>
<!-- Node47 -->
<g id="Node000047" class="node">
<title>Node47</title>
<g id="a_Node000047"><a xlink:href="../../d2/d4d/file_8h.html#a25419a391fdd4ad7954699c58cfeb3b9" target="_top" xlink:title=" ">
<polygon fill="white" stroke="#666666" points="1650.88,-266.25 1599.62,-266.25 1599.62,-247 1650.88,-247 1650.88,-266.25"/>
<text text-anchor="middle" x="1625.25" y="-252.75" font-family="Helvetica,sans-Serif" font-size="10.00">va_start</text>
</a>
</g>
</g>
<!-- Node24&#45;&gt;Node47 -->
<g id="edge30_Node000024_Node000047" class="edge">
<title>Node24&#45;&gt;Node47</title>
<g id="a_edge30_Node000024_Node000047"><a xlink:title=" ">
<path fill="none" stroke="#63b8ff" d="M1545.49,-284.95C1558.37,-280.32 1574.45,-274.53 1588.73,-269.4"/>
<polygon fill="#63b8ff" stroke="#63b8ff" points="1589.56,-272.82 1597.78,-266.14 1587.19,-266.24 1589.56,-272.82"/>
</a>
</g>
</g>
<!-- Node50 -->
<g id="Node000050" class="node">
<title>Node50</title>
<g id="a_Node000050"><a xlink:href="../../d8/d37/mem_8blk.html#a2fa974dc4e9f038e5bc400eb689b74b4" target="_top" xlink:title=" ">
<polygon fill="#fff0f0" stroke="red" points="1071,-284.25 956,-284.25 956,-265 1071,-265 1071,-284.25"/>
<text text-anchor="middle" x="1013.5" y="-270.75" font-family="Helvetica,sans-Serif" font-size="10.00">__mp_irealloc_fallback</text>
</a>
</g>
</g>
<!-- Node49&#45;&gt;Node50 -->
<g id="edge33_Node000049_Node000050" class="edge">
<title>Node49&#45;&gt;Node50</title>
<g id="a_edge33_Node000049_Node000050"><a xlink:title=" ">
<path fill="none" stroke="#63b8ff" d="M920.24,-274.62C928.02,-274.62 936.14,-274.62 944.2,-274.62"/>
<polygon fill="#63b8ff" stroke="#63b8ff" points="944,-278.13 954,-274.63 944,-271.13 944,-278.13"/>
</a>
</g>
</g>
<!-- Node56 -->
<g id="Node000056" class="node">
<title>Node56</title>
<g id="a_Node000056"><a xlink:href="../../d9/d9a/mem_8h.html#ae99e17ad0b27e94e8a00c8af9734a0e7" target="_top" xlink:title=" ">
<polygon fill="white" stroke="#666666" points="1321.25,-209.25 1208.5,-209.25 1208.5,-190 1321.25,-190 1321.25,-209.25"/>
<text text-anchor="middle" x="1264.88" y="-195.75" font-family="Helvetica,sans-Serif" font-size="10.00">icheck_alloc_constant</text>
</a>
</g>
</g>
<!-- Node49&#45;&gt;Node56 -->
<g id="edge42_Node000049_Node000056" class="edge">
<title>Node49&#45;&gt;Node56</title>
<g id="a_edge42_Node000049_Node000056"><a xlink:title=" ">
<path fill="none" stroke="#63b8ff" d="M904.79,-264.56C951.21,-251.94 1034.54,-230.4 1107,-217.62 1136.3,-212.46 1168.96,-208.44 1196.86,-205.52"/>
<polygon fill="#63b8ff" stroke="#63b8ff" points="1197,-209.02 1206.59,-204.53 1196.29,-202.06 1197,-209.02"/>
</a>
</g>
</g>
<!-- Node51 -->
<g id="Node000051" class="node">
<title>Node51</title>
<g id="a_Node000051"><a xlink:href="../../d8/d37/mem_8blk.html#a8e4fbf6500e65079c31e3fd933ae7dc1" target="_top" xlink:title=" ">
<polygon fill="white" stroke="#666666" points="1443.38,-284.25 1373.38,-284.25 1373.38,-265 1443.38,-265 1443.38,-284.25"/>
<text text-anchor="middle" x="1408.38" y="-270.75" font-family="Helvetica,sans-Serif" font-size="10.00">icheck_alloc</text>
</a>
</g>
</g>
<!-- Node50&#45;&gt;Node51 -->
<g id="edge34_Node000050_Node000051" class="edge">
<title>Node50&#45;&gt;Node51</title>
<g id="a_edge34_Node000050_Node000051"><a xlink:title=" ">
<path fill="none" stroke="#63b8ff" d="M1071.21,-274.62C1149.61,-274.62 1289.59,-274.62 1361.68,-274.62"/>
<polygon fill="#63b8ff" stroke="#63b8ff" points="1361.55,-278.13 1371.55,-274.63 1361.55,-271.13 1361.55,-278.13"/>
</a>
</g>
</g>
<!-- Node52 -->
<g id="Node000052" class="node">
<title>Node52</title>
<g id="a_Node000052"><a xlink:href="../../d9/d9a/mem_8h.html#ada6bb9661f0c10ccaa14d231c24aeafd" target="_top" xlink:title=" ">
<polygon fill="white" stroke="#666666" points="1172.5,-246.25 1107,-246.25 1107,-227 1172.5,-227 1172.5,-246.25"/>
<text text-anchor="middle" x="1139.75" y="-232.75" font-family="Helvetica,sans-Serif" font-size="10.00">mp_imalloc</text>
</a>
</g>
</g>
<!-- Node50&#45;&gt;Node52 -->
<g id="edge36_Node000050_Node000052" class="edge">
<title>Node50&#45;&gt;Node52</title>
<g id="a_edge36_Node000050_Node000052"><a xlink:title=" ">
<path fill="none" stroke="#63b8ff" d="M1047.47,-264.54C1062.42,-259.97 1080.29,-254.5 1096.24,-249.63"/>
<polygon fill="#63b8ff" stroke="#63b8ff" points="1096.93,-253.08 1105.47,-246.8 1094.88,-246.38 1096.93,-253.08"/>
</a>
</g>
</g>
<!-- Node51&#45;&gt;Node24 -->
<g id="edge35_Node000051_Node000024" class="edge">
<title>Node51&#45;&gt;Node24</title>
<g id="a_edge35_Node000051_Node000024"><a xlink:title=" ">
<path fill="none" stroke="#63b8ff" d="M1443.58,-280.53C1456.42,-282.75 1471.04,-285.28 1483.99,-287.51"/>
<polygon fill="#63b8ff" stroke="#63b8ff" points="1483.37,-290.96 1493.82,-289.21 1484.56,-284.06 1483.37,-290.96"/>
</a>
</g>
</g>
<!-- Node53 -->
<g id="Node000053" class="node">
<title>Node53</title>
<g id="a_Node000053"><a xlink:href="../../d8/d37/mem_8blk.html#a5666a1403bcf2bd8e114c23f8021d1ac" target="_top" xlink:title=" ">
<polygon fill="white" stroke="#666666" points="1302.88,-246.25 1226.88,-246.25 1226.88,-227 1302.88,-227 1302.88,-246.25"/>
<text text-anchor="middle" x="1264.88" y="-232.75" font-family="Helvetica,sans-Serif" font-size="10.00">__mp_imalloc</text>
</a>
</g>
</g>
<!-- Node52&#45;&gt;Node53 -->
<g id="edge37_Node000052_Node000053" class="edge">
<title>Node52&#45;&gt;Node53</title>
<g id="a_edge37_Node000052_Node000053"><a xlink:title=" ">
<path fill="none" stroke="#63b8ff" d="M1172.78,-236.62C1185.82,-236.62 1201.18,-236.62 1215.54,-236.62"/>
<polygon fill="#63b8ff" stroke="#63b8ff" points="1215.26,-240.13 1225.26,-236.63 1215.26,-233.13 1215.26,-240.13"/>
</a>
</g>
</g>
<!-- Node52&#45;&gt;Node56 -->
<g id="edge40_Node000052_Node000056" class="edge">
<title>Node52&#45;&gt;Node56</title>
<g id="a_edge40_Node000052_Node000056"><a xlink:title=" ">
<path fill="none" stroke="#63b8ff" d="M1172.78,-227C1187,-222.73 1203.97,-217.63 1219.39,-212.99"/>
<polygon fill="#63b8ff" stroke="#63b8ff" points="1220.27,-216.38 1228.84,-210.15 1218.25,-209.68 1220.27,-216.38"/>
</a>
</g>
</g>
<!-- Node53&#45;&gt;Node51 -->
<g id="edge38_Node000053_Node000051" class="edge">
<title>Node53&#45;&gt;Node51</title>
<g id="a_edge38_Node000053_Node000051"><a xlink:title=" ">
<path fill="none" stroke="#63b8ff" d="M1303.05,-246.61C1321.26,-251.5 1343.33,-257.43 1362.47,-262.57"/>
<polygon fill="#63b8ff" stroke="#63b8ff" points="1361.33,-265.88 1371.89,-265.1 1363.14,-259.12 1361.33,-265.88"/>
</a>
</g>
</g>
<!-- Node54 -->
<g id="Node000054" class="node">
<title>Node54</title>
<g id="a_Node000054"><a xlink:href="../../d9/d9a/mem_8h.html#af42ab5c21de0c723b2a55403e5441fda" target="_top" xlink:title=" ">
<polygon fill="#fff0f0" stroke="red" points="1447.88,-246.25 1368.88,-246.25 1368.88,-227 1447.88,-227 1447.88,-246.25"/>
<text text-anchor="middle" x="1408.38" y="-232.75" font-family="Helvetica,sans-Serif" font-size="10.00">mem_bit_align</text>
</a>
</g>
</g>
<!-- Node53&#45;&gt;Node54 -->
<g id="edge39_Node000053_Node000054" class="edge">
<title>Node53&#45;&gt;Node54</title>
<g id="a_edge39_Node000053_Node000054"><a xlink:title=" ">
<path fill="none" stroke="#63b8ff" d="M1303.05,-236.62C1319.58,-236.62 1339.28,-236.62 1357.09,-236.62"/>
<polygon fill="#63b8ff" stroke="#63b8ff" points="1356.96,-240.13 1366.96,-236.63 1356.96,-233.13 1356.96,-240.13"/>
</a>
</g>
</g>
<!-- Node57 -->
<g id="Node000057" class="node">
<title>Node57</title>
<g id="a_Node000057"><a xlink:href="../../d8/d37/mem_8blk.html#a377e36d6fbaf3ee7f1b217559cb0c850" target="_top" xlink:title=" ">
<polygon fill="white" stroke="#666666" points="1459.5,-209.25 1357.25,-209.25 1357.25,-190 1459.5,-190 1459.5,-209.25"/>
<text text-anchor="middle" x="1408.38" y="-195.75" font-family="Helvetica,sans-Serif" font-size="10.00">__imalloc_too_large</text>
</a>
</g>
</g>
<!-- Node56&#45;&gt;Node57 -->
<g id="edge41_Node000056_Node000057" class="edge">
<title>Node56&#45;&gt;Node57</title>
<g id="a_edge41_Node000056_Node000057"><a xlink:title=" ">
<path fill="none" stroke="#63b8ff" d="M1321.39,-199.62C1329.39,-199.62 1337.66,-199.62 1345.77,-199.62"/>
<polygon fill="#63b8ff" stroke="#63b8ff" points="1345.57,-203.13 1355.57,-199.63 1345.57,-196.13 1345.57,-203.13"/>
</a>
</g>
</g>
<!-- Node63&#45;&gt;Node19 -->
<g id="edge46_Node000063_Node000019" class="edge">
<title>Node63&#45;&gt;Node19</title>
<g id="a_edge46_Node000063_Node000019"><a xlink:title=" ">
<path fill="none" stroke="#63b8ff" d="M189.54,-176.78C247.12,-172.37 370.58,-165.76 473.5,-179.62 485.15,-181.19 497.6,-184.18 508.7,-187.33"/>
<polygon fill="#63b8ff" stroke="#63b8ff" points="507.64,-190.67 518.22,-190.19 509.65,-183.97 507.64,-190.67"/>
</a>
</g>
</g>
<!-- Node65 -->
<g id="Node000065" class="node">
<title>Node65</title>
<g id="a_Node000065"><a xlink:href="../../de/d04/str-l_8c.html#ab302398e2bc88f3f26938fe3d6983f93" target="_top" xlink:title="Concatenates its argument to form a new lstr on the mem pool.">
<polygon fill="white" stroke="#666666" points="317.25,-58.25 250.25,-58.25 250.25,-39 317.25,-39 317.25,-58.25"/>
<text text-anchor="middle" x="283.75" y="-44.75" font-family="Helvetica,sans-Serif" font-size="10.00">mp_lstr_cat</text>
</a>
</g>
</g>
<!-- Node64&#45;&gt;Node65 -->
<g id="edge48_Node000064_Node000065" class="edge">
<title>Node64&#45;&gt;Node65</title>
<g id="a_edge48_Node000064_Node000065"><a xlink:title=" ">
<path fill="none" stroke="#63b8ff" d="M184.6,-77.51C200.52,-72.82 220.91,-66.82 238.98,-61.5"/>
<polygon fill="#63b8ff" stroke="#63b8ff" points="239.81,-64.91 248.41,-58.73 237.83,-58.19 239.81,-64.91"/>
</a>
</g>
</g>
<!-- Node38 -->
<g id="Node000038" class="node">
<title>Node38</title>
<g id="a_Node000038"><a xlink:href="../../d1/d10/mem-stack_8h.html#a1d0e2a29f86dc033a02e50484b527fd0" target="_top" xlink:title=" ">
<polygon fill="white" stroke="#666666" points="304.88,-95.25 262.62,-95.25 262.62,-76 304.88,-76 304.88,-95.25"/>
<text text-anchor="middle" x="283.75" y="-81.75" font-family="Helvetica,sans-Serif" font-size="10.00">t_pool</text>
</a>
</g>
</g>
<!-- Node64&#45;&gt;Node38 -->
<g id="edge54_Node000064_Node000038" class="edge">
<title>Node64&#45;&gt;Node38</title>
<g id="a_edge54_Node000064_Node000038"><a xlink:title=" ">
<path fill="none" stroke="#63b8ff" d="M184.6,-85.62C204.18,-85.62 230.51,-85.62 250.97,-85.62"/>
<polygon fill="#63b8ff" stroke="#63b8ff" points="250.73,-89.13 260.73,-85.63 250.73,-82.13 250.73,-89.13"/>
</a>
</g>
</g>
<!-- Node66 -->
<g id="Node000066" class="node">
<title>Node66</title>
<g id="a_Node000066"><a xlink:href="../../d9/d9a/mem_8h.html#af3794c657c3ffd55b9771dcaeec60c02" target="_top" xlink:title=" ">
<polygon fill="white" stroke="#666666" points="675.75,-57.25 617.75,-57.25 617.75,-38 675.75,-38 675.75,-57.25"/>
<text text-anchor="middle" x="646.75" y="-43.75" font-family="Helvetica,sans-Serif" font-size="10.00">mempcpy</text>
</a>
</g>
</g>
<!-- Node65&#45;&gt;Node66 -->
<g id="edge49_Node000065_Node000066" class="edge">
<title>Node65&#45;&gt;Node66</title>
<g id="a_edge49_Node000065_Node000066"><a xlink:title=" ">
<path fill="none" stroke="#63b8ff" d="M317.74,-48.53C384.35,-48.35 534.64,-47.93 606.3,-47.73"/>
<polygon fill="#63b8ff" stroke="#63b8ff" points="606.01,-51.24 616,-47.71 605.99,-44.24 606.01,-51.24"/>
</a>
</g>
</g>
<!-- Node67 -->
<g id="Node000067" class="node">
<title>Node67</title>
<g id="a_Node000067"><a xlink:href="../../d9/d9a/mem_8h.html#adc8b730239ca8846b4161cabd49cf628" target="_top" xlink:title=" ">
<polygon fill="white" stroke="#666666" points="575,-19.25 512.5,-19.25 512.5,0 575,0 575,-19.25"/>
<text text-anchor="middle" x="543.75" y="-5.75" font-family="Helvetica,sans-Serif" font-size="10.00">mempcpyz</text>
</a>
</g>
</g>
<!-- Node65&#45;&gt;Node67 -->
<g id="edge50_Node000065_Node000067" class="edge">
<title>Node65&#45;&gt;Node67</title>
<g id="a_edge50_Node000065_Node000067"><a xlink:title=" ">
<path fill="none" stroke="#63b8ff" d="M317.5,-42.21C332.29,-39.41 349.99,-36.19 366,-33.62 412.08,-26.25 465.15,-19.24 501.02,-14.72"/>
<polygon fill="#63b8ff" stroke="#63b8ff" points="501.04,-18.25 510.53,-13.53 500.17,-11.3 501.04,-18.25"/>
</a>
</g>
</g>
<!-- Node68 -->
<g id="Node000068" class="node">
<title>Node68</title>
<g id="a_Node000068"><a xlink:href="../../df/d0a/str-l_8h.html#afaa32126aa321a4b319e39433d0e7f26" target="_top" xlink:title=" ">
<polygon fill="white" stroke="#666666" points="452.88,-95.25 386.62,-95.25 386.62,-76 452.88,-76 452.88,-95.25"/>
<text text-anchor="middle" x="419.75" y="-81.75" font-family="Helvetica,sans-Serif" font-size="10.00">mp_lstr_init</text>
</a>
</g>
</g>
<!-- Node65&#45;&gt;Node68 -->
<g id="edge52_Node000065_Node000068" class="edge">
<title>Node65&#45;&gt;Node68</title>
<g id="a_edge52_Node000065_Node000068"><a xlink:title=" ">
<path fill="none" stroke="#63b8ff" d="M317.53,-57.68C334.94,-62.48 356.55,-68.45 375.34,-73.64"/>
<polygon fill="#63b8ff" stroke="#63b8ff" points="374.28,-76.98 384.85,-76.26 376.14,-70.23 374.28,-76.98"/>
</a>
</g>
</g>
<!-- Node67&#45;&gt;Node66 -->
<g id="edge51_Node000067_Node000066" class="edge">
<title>Node67&#45;&gt;Node66</title>
<g id="a_edge51_Node000067_Node000066"><a xlink:title=" ">
<path fill="none" stroke="#63b8ff" d="M571.55,-19.71C582.94,-23.99 596.41,-29.06 608.73,-33.7"/>
<polygon fill="#63b8ff" stroke="#63b8ff" points="607.17,-36.85 617.76,-37.09 609.63,-30.3 607.17,-36.85"/>
</a>
</g>
</g>
<!-- Node32 -->
<g id="Node000032" class="node">
<title>Node32</title>
<g id="a_Node000032"><a xlink:href="../../df/d0a/str-l_8h.html#a3b4dbe9c4cc70340cba0787574dc1c5e" target="_top" xlink:title=" ">
<polygon fill="white" stroke="#666666" points="570.12,-95.25 517.38,-95.25 517.38,-76 570.12,-76 570.12,-95.25"/>
<text text-anchor="middle" x="543.75" y="-81.75" font-family="Helvetica,sans-Serif" font-size="10.00">lstr_init_</text>
</a>
</g>
</g>
<!-- Node68&#45;&gt;Node32 -->
<g id="edge53_Node000068_Node000032" class="edge">
<title>Node68&#45;&gt;Node32</title>
<g id="a_edge53_Node000068_Node000032"><a xlink:title=" ">
<path fill="none" stroke="#63b8ff" d="M453.12,-85.62C469.41,-85.62 489.22,-85.62 506.07,-85.62"/>
<polygon fill="#63b8ff" stroke="#63b8ff" points="505.67,-89.13 515.67,-85.63 505.67,-82.13 505.67,-89.13"/>
</a>
</g>
</g>
<!-- Node69&#45;&gt;Node38 -->
<g id="edge62_Node000069_Node000038" class="edge">
<title>Node69&#45;&gt;Node38</title>
<g id="a_edge62_Node000069_Node000038"><a xlink:title=" ">
<path fill="none" stroke="#63b8ff" d="M185.85,-114.14C205.46,-108.37 231.39,-100.74 251.49,-94.82"/>
<polygon fill="#63b8ff" stroke="#63b8ff" points="252.21,-98.26 260.82,-92.08 250.23,-91.54 252.21,-98.26"/>
</a>
</g>
</g>
<!-- Node70 -->
<g id="Node000070" class="node">
<title>Node70</title>
<g id="a_Node000070"><a xlink:href="../../de/d04/str-l_8c.html#a721e56afb064f7233eda0184065df9bb" target="_top" xlink:title="Returns new mp allocated lstr from its arguments.">
<polygon fill="white" stroke="#666666" points="318.38,-132.25 249.12,-132.25 249.12,-113 318.38,-113 318.38,-132.25"/>
<text text-anchor="middle" x="283.75" y="-118.75" font-family="Helvetica,sans-Serif" font-size="10.00">mp_lstr_dup</text>
</a>
</g>
</g>
<!-- Node69&#45;&gt;Node70 -->
<g id="edge56_Node000069_Node000070" class="edge">
<title>Node69&#45;&gt;Node70</title>
<g id="a_edge56_Node000069_Node000070"><a xlink:title=" ">
<path fill="none" stroke="#63b8ff" d="M185.85,-122.62C201.05,-122.62 220.05,-122.62 237.18,-122.62"/>
<polygon fill="#63b8ff" stroke="#63b8ff" points="237.17,-126.13 247.17,-122.63 237.17,-119.13 237.17,-126.13"/>
</a>
</g>
</g>
<!-- Node70&#45;&gt;Node68 -->
<g id="edge61_Node000070_Node000068" class="edge">
<title>Node70&#45;&gt;Node68</title>
<g id="a_edge61_Node000070_Node000068"><a xlink:title=" ">
<path fill="none" stroke="#63b8ff" d="M318.56,-113.29C335.77,-108.54 356.89,-102.71 375.29,-97.63"/>
<polygon fill="#63b8ff" stroke="#63b8ff" points="376.17,-101.01 384.87,-94.98 374.3,-94.27 376.17,-101.01"/>
</a>
</g>
</g>
<!-- Node71 -->
<g id="Node000071" class="node">
<title>Node71</title>
<g id="a_Node000071"><a xlink:href="../../d9/d9a/mem_8h.html#afb82bc4c2f614b07ba2987edb2fb12a2" target="_top" xlink:title=" ">
<polygon fill="white" stroke="#666666" points="447.25,-132.25 392.25,-132.25 392.25,-113 447.25,-113 447.25,-132.25"/>
<text text-anchor="middle" x="419.75" y="-118.75" font-family="Helvetica,sans-Serif" font-size="10.00">mp_dupz</text>
</a>
</g>
</g>
<!-- Node70&#45;&gt;Node71 -->
<g id="edge57_Node000070_Node000071" class="edge">
<title>Node70&#45;&gt;Node71</title>
<g id="a_edge57_Node000070_Node000071"><a xlink:title=" ">
<path fill="none" stroke="#63b8ff" d="M318.56,-122.62C337.53,-122.62 361.24,-122.62 380.84,-122.62"/>
<polygon fill="#63b8ff" stroke="#63b8ff" points="380.61,-126.13 390.61,-122.63 380.61,-119.13 380.61,-126.13"/>
</a>
</g>
</g>
<!-- Node71&#45;&gt;Node52 -->
<g id="edge60_Node000071_Node000052" class="edge">
<title>Node71&#45;&gt;Node52</title>
<g id="a_edge60_Node000071_Node000052"><a xlink:title=" ">
<path fill="none" stroke="#63b8ff" d="M447.52,-130.13C489.43,-141.21 573.25,-160.62 645.75,-160.62 645.75,-160.62 645.75,-160.62 868.75,-160.62 958.16,-160.62 1058.21,-199.72 1107.64,-221.83"/>
<polygon fill="#63b8ff" stroke="#63b8ff" points="1106.03,-224.95 1116.59,-225.91 1108.94,-218.58 1106.03,-224.95"/>
</a>
</g>
</g>
<!-- Node72 -->
<g id="Node000072" class="node">
<title>Node72</title>
<g id="a_Node000072"><a xlink:href="../../d9/d9a/mem_8h.html#af52b7a33884b452f86de916d8109b8f1" target="_top" xlink:title=" ">
<polygon fill="white" stroke="#666666" points="572.38,-132.25 515.12,-132.25 515.12,-113 572.38,-113 572.38,-132.25"/>
<text text-anchor="middle" x="543.75" y="-118.75" font-family="Helvetica,sans-Serif" font-size="10.00">memcpyz</text>
</a>
</g>
</g>
<!-- Node71&#45;&gt;Node72 -->
<g id="edge58_Node000071_Node000072" class="edge">
<title>Node71&#45;&gt;Node72</title>
<g id="a_edge58_Node000071_Node000072"><a xlink:title=" ">
<path fill="none" stroke="#63b8ff" d="M447.52,-122.62C463.86,-122.62 485.05,-122.62 503.29,-122.62"/>
<polygon fill="#63b8ff" stroke="#63b8ff" points="503.25,-126.13 513.25,-122.63 503.25,-119.13 503.25,-126.13"/>
</a>
</g>
</g>
<!-- Node72&#45;&gt;Node66 -->
<g id="edge59_Node000072_Node000066" class="edge">
<title>Node72&#45;&gt;Node66</title>
<g id="a_edge59_Node000072_Node000066"><a xlink:title=" ">
<path fill="none" stroke="#63b8ff" d="M564.83,-112.61C569.27,-110.16 573.88,-107.43 578,-104.62 595.55,-92.68 613.88,-77.03 627.05,-65.15"/>
<polygon fill="#63b8ff" stroke="#63b8ff" points="629.14,-67.98 634.15,-58.64 624.41,-62.82 629.14,-67.98"/>
</a>
</g>
</g>
</g>
</svg>
