<?xml version="1.0" encoding="UTF-8" standalone="no"?>
<!DOCTYPE svg PUBLIC "-//W3C//DTD SVG 1.1//EN"
 "http://www.w3.org/Graphics/SVG/1.1/DTD/svg11.dtd">
<!-- Generated by graphviz version 9.0.0 (20230911.1827)
 -->
<!-- Title: mp_wah_new_from_data Pages: 1 -->
<!--zoomable 216 -->

<svg id="main" version="1.1" xmlns="http://www.w3.org/2000/svg" xmlns:xlink="http://www.w3.org/1999/xlink" xml:space="preserve" onload="init(evt)">
<style type="text/css"><![CDATA[
.node, .edge {opacity: 0.7;}
.node.selected, .edge.selected {opacity: 1;}
.edge:hover path { stroke: red; }
.edge:hover polygon { stroke: red; fill: red; }
]]></style>

<defs>
  <circle id="rim" cx="0" cy="0" r="7"/>
  <circle id="rim2" cx="0" cy="0" r="3.5"/>
  <g id="zoomPlus">
    <use xlink:href="#rim" fill="#404040"><set attributeName="fill" to="#808080" begin="zoomplus.mouseover" end="zoomplus.mouseout"/></use>
    <path d="M-4,0h8M0,-4v8" fill="none" stroke="white" stroke-width="1.5" pointer-events="none"/>
  </g>
  <g id="zoomMin">
    <use xlink:href="#rim" fill="#404040"><set attributeName="fill" to="#808080" begin="zoomminus.mouseover" end="zoomminus.mouseout"/></use>
    <path d="M-4,0h8" fill="none" stroke="white" stroke-width="1.5" pointer-events="none"/>
  </g>
  <g id="arrowUp" transform="translate(30 24)">
    <use xlink:href="#rim"/>
    <path pointer-events="none" fill="none" stroke="white" stroke-width="1.5" d="M0,-3.0v7 M-2.5,-0.5L0,-3.0L2.5,-0.5"/>
  </g>
  <g id="arrowRight" transform="rotate(90) translate(36 -43)">
    <use xlink:href="#rim"/>
    <path pointer-events="none" fill="none" stroke="white" stroke-width="1.5" d="M0,-3.0v7 M-2.5,-0.5L0,-3.0L2.5,-0.5"/>
  </g>
  <g id="arrowDown" transform="rotate(180) translate(-30 -48)">
    <use xlink:href="#rim"/>
    <path pointer-events="none" fill="none" stroke="white" stroke-width="1.5" d="M0,-3.0v7 M-2.5,-0.5L0,-3.0L2.5,-0.5"/>
  </g>
  <g id="arrowLeft" transform="rotate(270) translate(-36 17)">
    <use xlink:href="#rim"/>
    <path pointer-events="none" fill="none" stroke="white" stroke-width="1.5" d="M0,-3.0v7 M-2.5,-0.5L0,-3.0L2.5,-0.5"/>
  </g>
  <g id="resetDef">
    <use xlink:href="#rim2" fill="#404040"><set attributeName="fill" to="#808080" begin="reset.mouseover" end="reset.mouseout"/></use>
  </g>
</defs>
<script type="application/ecmascript">
var viewWidth = 764;
var viewHeight = 216;
var sectionId = 'dynsection-2';
</script>
<script type="application/ecmascript" xlink:href="../../svg.min.js"/>
<svg id="graph" class="graph">
<g id="viewport">
<title>mp_wah_new_from_data</title>
<!-- Node1 -->
<g id="Node000001" class="node">
<title>Node1</title>
<g id="a_Node000001"><a xlink:title=" ">
<polygon fill="#999999" stroke="#666666" points="124.75,-132.25 0,-132.25 0,-113 124.75,-113 124.75,-132.25"/>
<text text-anchor="middle" x="62.38" y="-118.75" font-family="Helvetica,sans-Serif" font-size="10.00">mp_wah_new_from_data</text>
</a>
</g>
</g>
<!-- Node2 -->
<g id="Node000002" class="node">
<title>Node2</title>
<g id="a_Node000002"><a xlink:href="../../da/dff/group__qkv____ll____wah.html#ga91110b1ca390aff37e1ca2bc4b2b53dd" target="_top" xlink:title=" ">
<polygon fill="white" stroke="#666666" points="280.25,-132.25 160.75,-132.25 160.75,-113 280.25,-113 280.25,-132.25"/>
<text text-anchor="middle" x="220.5" y="-118.75" font-family="Helvetica,sans-Serif" font-size="10.00">mp_wah_init_from_data</text>
</a>
</g>
</g>
<!-- Node1&#45;&gt;Node2 -->
<g id="edge1_Node000001_Node000002" class="edge">
<title>Node1&#45;&gt;Node2</title>
<g id="a_edge1_Node000001_Node000002"><a xlink:title=" ">
<path fill="none" stroke="#63b8ff" d="M125.08,-122.62C132.87,-122.62 140.88,-122.62 148.8,-122.62"/>
<polygon fill="#63b8ff" stroke="#63b8ff" points="148.77,-126.13 158.77,-122.63 148.77,-119.13 148.77,-126.13"/>
</a>
</g>
</g>
<!-- Node3 -->
<g id="Node000003" class="node">
<title>Node3</title>
<g id="a_Node000003"><a xlink:href="../../df/df4/bit-wah_8c.html#a857c43313deb1993b8c98e2b1b65fe22" target="_top" xlink:title=" ">
<polygon fill="white" stroke="#666666" points="430.5,-208.25 316.25,-208.25 316.25,-189 430.5,-189 430.5,-208.25"/>
<text text-anchor="middle" x="373.38" y="-194.75" font-family="Helvetica,sans-Serif" font-size="10.00">from_data_split_chunk</text>
</a>
</g>
</g>
<!-- Node2&#45;&gt;Node3 -->
<g id="edge2_Node000002_Node000003" class="edge">
<title>Node2&#45;&gt;Node3</title>
<g id="a_edge2_Node000002_Node000003"><a xlink:title=" ">
<path fill="none" stroke="#63b8ff" d="M238.7,-132.73C257.48,-143.6 288.58,-161.16 316.25,-174.62 322.82,-177.82 329.91,-181.04 336.78,-184.03"/>
<polygon fill="#63b8ff" stroke="#63b8ff" points="335.31,-187.2 345.88,-187.91 338.06,-180.77 335.31,-187.2"/>
</a>
</g>
</g>
<!-- Node4 -->
<g id="Node000004" class="node">
<title>Node4</title>
<g id="a_Node000004"><a xlink:href="../../d4/d86/str-stream_8h.html#a171f7ecffb1d3846b226cd8d7016aed7" target="_top" xlink:title=" ">
<polygon fill="white" stroke="#666666" points="756,-151.25 703.25,-151.25 703.25,-132 756,-132 756,-151.25"/>
<text text-anchor="middle" x="729.62" y="-137.75" font-family="Helvetica,sans-Serif" font-size="10.00">ps_done</text>
</a>
</g>
</g>
<!-- Node2&#45;&gt;Node4 -->
<g id="edge3_Node000002_Node000004" class="edge">
<title>Node2&#45;&gt;Node4</title>
<g id="a_edge3_Node000002_Node000004"><a xlink:title=" ">
<path fill="none" stroke="#63b8ff" d="M262.74,-132.74C279.27,-136.31 298.55,-139.87 316.25,-141.62 454.26,-155.33 619.53,-148.29 691.78,-144.06"/>
<polygon fill="#63b8ff" stroke="#63b8ff" points="691.68,-147.57 701.45,-143.47 691.26,-140.58 691.68,-147.57"/>
</a>
</g>
</g>
<!-- Node5 -->
<g id="Node000005" class="node">
<title>Node5</title>
<g id="a_Node000005"><a xlink:href="../../d4/d86/str-stream_8h.html#a792bf8e215595e8fd225339902c447bf" target="_top" xlink:title=" ">
<polygon fill="white" stroke="#666666" points="395.62,-132.25 351.12,-132.25 351.12,-113 395.62,-113 395.62,-132.25"/>
<text text-anchor="middle" x="373.38" y="-118.75" font-family="Helvetica,sans-Serif" font-size="10.00">ps_len</text>
</a>
</g>
</g>
<!-- Node2&#45;&gt;Node5 -->
<g id="edge4_Node000002_Node000005" class="edge">
<title>Node2&#45;&gt;Node5</title>
<g id="a_edge4_Node000002_Node000005"><a xlink:title=" ">
<path fill="none" stroke="#63b8ff" d="M280.7,-122.62C300.72,-122.62 322.35,-122.62 339.57,-122.62"/>
<polygon fill="#63b8ff" stroke="#63b8ff" points="339.46,-126.13 349.46,-122.63 339.46,-119.13 339.46,-126.13"/>
</a>
</g>
</g>
<!-- Node6 -->
<g id="Node000006" class="node">
<title>Node6</title>
<g id="a_Node000006"><a xlink:href="../../d4/d86/str-stream_8h.html#a6519e4e29aa5ddc1017c2c4a197e6995" target="_top" xlink:title=" ">
<polygon fill="white" stroke="#666666" points="398.25,-95.25 348.5,-95.25 348.5,-76 398.25,-76 398.25,-95.25"/>
<text text-anchor="middle" x="373.38" y="-81.75" font-family="Helvetica,sans-Serif" font-size="10.00">ps_skip</text>
</a>
</g>
</g>
<!-- Node2&#45;&gt;Node6 -->
<g id="edge5_Node000002_Node000006" class="edge">
<title>Node2&#45;&gt;Node6</title>
<g id="a_edge5_Node000002_Node000006"><a xlink:title=" ">
<path fill="none" stroke="#63b8ff" d="M262.73,-112.51C286.06,-106.79 314.92,-99.71 337.18,-94.26"/>
<polygon fill="#63b8ff" stroke="#63b8ff" points="337.81,-97.71 346.69,-91.93 336.14,-90.91 337.81,-97.71"/>
</a>
</g>
</g>
<!-- Node9 -->
<g id="Node000009" class="node">
<title>Node9</title>
<g id="a_Node000009"><a xlink:href="../../df/df4/bit-wah_8c.html#aca7141da56c51bb22d65567f5eee8643" target="_top" xlink:title=" ">
<polygon fill="white" stroke="#666666" points="427.12,-56.25 319.62,-56.25 319.62,-37 427.12,-37 427.12,-56.25"/>
<text text-anchor="middle" x="373.38" y="-42.75" font-family="Helvetica,sans-Serif" font-size="10.00">wah_check_invariant</text>
</a>
</g>
</g>
<!-- Node2&#45;&gt;Node9 -->
<g id="edge10_Node000002_Node000009" class="edge">
<title>Node2&#45;&gt;Node9</title>
<g id="a_edge10_Node000002_Node000009"><a xlink:title=" ">
<path fill="none" stroke="#63b8ff" d="M236.44,-112.58C254.7,-100.58 286.83,-80.4 316.25,-66.62 320.74,-64.52 325.53,-62.5 330.33,-60.61"/>
<polygon fill="#63b8ff" stroke="#63b8ff" points="331.22,-64.01 339.36,-57.22 328.77,-57.46 331.22,-64.01"/>
</a>
</g>
</g>
<!-- Node7 -->
<g id="Node000007" class="node">
<title>Node7</title>
<g id="a_Node000007"><a xlink:href="../../d4/d86/str-stream_8h.html#ae098817247881bad5d9318d4c6b712cf" target="_top" xlink:title=" ">
<polygon fill="white" stroke="#666666" points="555.25,-132.25 495,-132.25 495,-113 555.25,-113 555.25,-132.25"/>
<text text-anchor="middle" x="525.12" y="-118.75" font-family="Helvetica,sans-Serif" font-size="10.00">__ps_skip</text>
</a>
</g>
</g>
<!-- Node6&#45;&gt;Node7 -->
<g id="edge6_Node000006_Node000007" class="edge">
<title>Node6&#45;&gt;Node7</title>
<g id="a_edge6_Node000006_Node000007"><a xlink:title=" ">
<path fill="none" stroke="#63b8ff" d="M398.43,-91.57C421.37,-97.24 456.34,-105.88 483.58,-112.61"/>
<polygon fill="#63b8ff" stroke="#63b8ff" points="482.71,-116 493.25,-115 484.38,-109.2 482.71,-116"/>
</a>
</g>
</g>
<!-- Node8 -->
<g id="Node000008" class="node">
<title>Node8</title>
<g id="a_Node000008"><a xlink:href="../../d4/d86/str-stream_8h.html#ab34e4ed4459c611a797df76cab2e8846" target="_top" xlink:title=" ">
<polygon fill="white" stroke="#666666" points="667.25,-132.25 619.75,-132.25 619.75,-113 667.25,-113 667.25,-132.25"/>
<text text-anchor="middle" x="643.5" y="-118.75" font-family="Helvetica,sans-Serif" font-size="10.00">ps_has</text>
</a>
</g>
</g>
<!-- Node6&#45;&gt;Node8 -->
<g id="edge9_Node000006_Node000008" class="edge">
<title>Node6&#45;&gt;Node8</title>
<g id="a_edge9_Node000006_Node000008"><a xlink:title=" ">
<path fill="none" stroke="#63b8ff" d="M398.49,-85.93C437.71,-86.81 517.59,-90.26 583.75,-103.62 591.89,-105.27 600.49,-107.66 608.52,-110.19"/>
<polygon fill="#63b8ff" stroke="#63b8ff" points="607.35,-113.49 617.95,-113.33 609.56,-106.85 607.35,-113.49"/>
</a>
</g>
</g>
<!-- Node7&#45;&gt;Node8 -->
<g id="edge7_Node000007_Node000008" class="edge">
<title>Node7&#45;&gt;Node8</title>
<g id="a_edge7_Node000007_Node000008"><a xlink:title=" ">
<path fill="none" stroke="#63b8ff" d="M555.49,-122.62C571.42,-122.62 591.21,-122.62 607.88,-122.62"/>
<polygon fill="#63b8ff" stroke="#63b8ff" points="607.86,-126.13 617.86,-122.63 607.86,-119.13 607.86,-126.13"/>
</a>
</g>
</g>
<!-- Node8&#45;&gt;Node4 -->
<g id="edge8_Node000008_Node000004" class="edge">
<title>Node8&#45;&gt;Node4</title>
<g id="a_edge8_Node000008_Node000004"><a xlink:title=" ">
<path fill="none" stroke="#63b8ff" d="M667.49,-127.82C675.05,-129.52 683.65,-131.47 691.96,-133.34"/>
<polygon fill="#63b8ff" stroke="#63b8ff" points="691,-136.71 701.52,-135.5 692.54,-129.89 691,-136.71"/>
</a>
</g>
</g>
<!-- Node10 -->
<g id="Node000010" class="node">
<title>Node10</title>
<g id="a_Node000010"><a xlink:href="../../df/df4/bit-wah_8c.html#a62c3e890b52764c0292c77491da5f7d9" target="_top" xlink:title=" ">
<polygon fill="white" stroke="#666666" points="583.75,-56.25 466.5,-56.25 466.5,-37 583.75,-37 583.75,-56.25"/>
<text text-anchor="middle" x="525.12" y="-42.75" font-family="Helvetica,sans-Serif" font-size="10.00">wah_check_normalized</text>
</a>
</g>
</g>
<!-- Node9&#45;&gt;Node10 -->
<g id="edge11_Node000009_Node000010" class="edge">
<title>Node9&#45;&gt;Node10</title>
<g id="a_edge11_Node000009_Node000010"><a xlink:title=" ">
<path fill="none" stroke="#63b8ff" d="M427.59,-46.62C436.4,-46.62 445.65,-46.62 454.78,-46.62"/>
<polygon fill="#63b8ff" stroke="#63b8ff" points="454.74,-50.13 464.74,-46.63 454.74,-43.13 454.74,-50.13"/>
</a>
</g>
</g>
<!-- Node11 -->
<g id="Node000011" class="node">
<title>Node11</title>
<g id="a_Node000011"><a xlink:href="../../df/df4/bit-wah_8c.html#a5a95ffd92f8dca7a256cc23b6614a19c" target="_top" xlink:title=" ">
<polygon fill="white" stroke="#666666" points="576.62,-19.25 473.62,-19.25 473.62,0 576.62,0 576.62,-19.25"/>
<text text-anchor="middle" x="525.12" y="-5.75" font-family="Helvetica,sans-Serif" font-size="10.00">wah_last_run_count</text>
</a>
</g>
</g>
<!-- Node9&#45;&gt;Node11 -->
<g id="edge12_Node000009_Node000011" class="edge">
<title>Node9&#45;&gt;Node11</title>
<g id="a_edge12_Node000009_Node000011"><a xlink:title=" ">
<path fill="none" stroke="#63b8ff" d="M415.29,-36.51C432.88,-32.17 453.63,-27.04 472.27,-22.44"/>
<polygon fill="#63b8ff" stroke="#63b8ff" points="472.92,-25.88 481.79,-20.09 471.24,-19.09 472.92,-25.88"/>
</a>
</g>
</g>
</g>
</svg>

<g id="navigator" transform="translate(0 0)" fill="#404254">
  <rect fill="#f2f5e9" fill-opacity="0.5" stroke="#606060" stroke-width=".5" x="0" y="0" width="60" height="60"/>
  <use id="zoomplus" xlink:href="#zoomPlus" x="17" y="9" onmousedown="handleZoom(evt,'in')"/>
  <use id="zoomminus" xlink:href="#zoomMin" x="42" y="9" onmousedown="handleZoom(evt,'out')"/>
  <use id="reset" xlink:href="#resetDef" x="30" y="36" onmousedown="handleReset()"/>
   <use id="arrowup" xlink:href="#arrowUp" x="0" y="0" onmousedown="handlePan(0,-1)"/>
  <use id="arrowright" xlink:href="#arrowRight" x="0" y="0" onmousedown="handlePan(1,0)"/>
  <use id="arrowdown" xlink:href="#arrowDown" x="0" y="0" onmousedown="handlePan(0,1)"/>
  <use id="arrowleft" xlink:href="#arrowLeft" x="0" y="0" onmousedown="handlePan(-1,0)"/>
</g>
<svg viewBox="0 0 15 15" width="100%" height="30px" preserveAspectRatio="xMaxYMin meet">
 <g id="arrow_out" transform="scale(0.3 0.3)">
  <a xlink:href="group__qkv____ll____wah_gab8599ae1fd7836450904181c77d034c5_cgraph_org.svg" target="_base">
   <rect id="button" ry="5" rx="5" y="6" x="6" height="38" width="38"
        fill="#f2f5e9" fill-opacity="0.5" stroke="#606060" stroke-width="1.0"/>
   <path id="arrow"
     d="M 11.500037,31.436501 C 11.940474,20.09759 22.043105,11.32322 32.158766,21.979434 L 37.068811,17.246167 C 37.068811,17.246167 37.088388,32 37.088388,32 L 22.160133,31.978069 C 22.160133,31.978069 26.997745,27.140456 26.997745,27.140456 C 18.528582,18.264221 13.291696,25.230495 11.500037,31.436501 z"
     style="fill:#404040;"/>
  </a>
 </g>
</svg>

<style type='text/css'>
<![CDATA[
[data-mouse-over-selected='false'] { opacity: 0.7; }
[data-mouse-over-selected='true']  { opacity: 1.0; }
]]>
</style>
<script type="application/ecmascript"><![CDATA[
document.addEventListener('DOMContentLoaded', (event) => {
  highlightEdges();
  highlightAdjacentNodes();
});
]]></script>
</svg>
