<?xml version="1.0" encoding="UTF-8" standalone="no"?>
<!DOCTYPE svg PUBLIC "-//W3C//DTD SVG 1.1//EN"
 "http://www.w3.org/Graphics/SVG/1.1/DTD/svg11.dtd">
<!-- Generated by graphviz version 9.0.0 (20230911.1827)
 -->
<!-- Title: wah_pad32 Pages: 1 -->
<!--zoomable 195 -->

<svg id="main" version="1.1" xmlns="http://www.w3.org/2000/svg" xmlns:xlink="http://www.w3.org/1999/xlink" xml:space="preserve" onload="init(evt)">
<style type="text/css"><![CDATA[
.node, .edge {opacity: 0.7;}
.node.selected, .edge.selected {opacity: 1;}
.edge:hover path { stroke: red; }
.edge:hover polygon { stroke: red; fill: red; }
]]></style>

<defs>
  <circle id="rim" cx="0" cy="0" r="7"/>
  <circle id="rim2" cx="0" cy="0" r="3.5"/>
  <g id="zoomPlus">
    <use xlink:href="#rim" fill="#404040"><set attributeName="fill" to="#808080" begin="zoomplus.mouseover" end="zoomplus.mouseout"/></use>
    <path d="M-4,0h8M0,-4v8" fill="none" stroke="white" stroke-width="1.5" pointer-events="none"/>
  </g>
  <g id="zoomMin">
    <use xlink:href="#rim" fill="#404040"><set attributeName="fill" to="#808080" begin="zoomminus.mouseover" end="zoomminus.mouseout"/></use>
    <path d="M-4,0h8" fill="none" stroke="white" stroke-width="1.5" pointer-events="none"/>
  </g>
  <g id="arrowUp" transform="translate(30 24)">
    <use xlink:href="#rim"/>
    <path pointer-events="none" fill="none" stroke="white" stroke-width="1.5" d="M0,-3.0v7 M-2.5,-0.5L0,-3.0L2.5,-0.5"/>
  </g>
  <g id="arrowRight" transform="rotate(90) translate(36 -43)">
    <use xlink:href="#rim"/>
    <path pointer-events="none" fill="none" stroke="white" stroke-width="1.5" d="M0,-3.0v7 M-2.5,-0.5L0,-3.0L2.5,-0.5"/>
  </g>
  <g id="arrowDown" transform="rotate(180) translate(-30 -48)">
    <use xlink:href="#rim"/>
    <path pointer-events="none" fill="none" stroke="white" stroke-width="1.5" d="M0,-3.0v7 M-2.5,-0.5L0,-3.0L2.5,-0.5"/>
  </g>
  <g id="arrowLeft" transform="rotate(270) translate(-36 17)">
    <use xlink:href="#rim"/>
    <path pointer-events="none" fill="none" stroke="white" stroke-width="1.5" d="M0,-3.0v7 M-2.5,-0.5L0,-3.0L2.5,-0.5"/>
  </g>
  <g id="resetDef">
    <use xlink:href="#rim2" fill="#404040"><set attributeName="fill" to="#808080" begin="reset.mouseover" end="reset.mouseout"/></use>
  </g>
</defs>
<script type="application/ecmascript">
var viewWidth = 895;
var viewHeight = 195;
var sectionId = 'dynsection-46';
</script>
<script type="application/ecmascript" xlink:href="../../svg.min.js"/>
<svg id="graph" class="graph">
<g id="viewport">
<title>wah_pad32</title>
<!-- Node1 -->
<g id="Node000001" class="node">
<title>Node1</title>
<g id="a_Node000001"><a xlink:title=" ">
<polygon fill="#999999" stroke="#666666" points="65.5,-130.44 0,-130.44 0,-111.19 65.5,-111.19 65.5,-130.44"/>
<text text-anchor="middle" x="32.75" y="-116.94" font-family="Helvetica,sans-Serif" font-size="10.00">wah_pad32</text>
</a>
</g>
</g>
<!-- Node2 -->
<g id="Node000002" class="node">
<title>Node2</title>
<g id="a_Node000002"><a xlink:href="../../da/dff/group__qkv____ll____wah.html#ga7f0f5bd637de144a657f136f2a8ba2b2" target="_top" xlink:title=" ">
<polygon fill="white" stroke="#666666" points="167,-130.44 101.5,-130.44 101.5,-111.19 167,-111.19 167,-130.44"/>
<text text-anchor="middle" x="134.25" y="-116.94" font-family="Helvetica,sans-Serif" font-size="10.00">wah_add0s</text>
</a>
</g>
</g>
<!-- Node1&#45;&gt;Node2 -->
<g id="edge1_Node000001_Node000002" class="edge">
<title>Node1&#45;&gt;Node2</title>
<g id="a_edge1_Node000001_Node000002"><a xlink:title=" ">
<path fill="none" stroke="#63b8ff" d="M65.78,-120.81C73.5,-120.81 81.88,-120.81 90.02,-120.81"/>
<polygon fill="#63b8ff" stroke="#63b8ff" points="89.77,-124.31 99.77,-120.81 89.77,-117.31 89.77,-124.31"/>
</a>
</g>
</g>
<!-- Node3 -->
<g id="Node000003" class="node">
<title>Node3</title>
<g id="a_Node000003"><a xlink:href="../../df/df4/bit-wah_8c.html#a3b42e09c9457638f3261018c62bc37a8" target="_top" xlink:title=" ">
<polygon fill="white" stroke="#666666" points="448,-92.44 338.25,-92.44 338.25,-73.19 448,-73.19 448,-92.44"/>
<text text-anchor="middle" x="393.12" y="-78.94" font-family="Helvetica,sans-Serif" font-size="10.00">__wah_push_pending</text>
</a>
</g>
</g>
<!-- Node2&#45;&gt;Node3 -->
<g id="edge2_Node000002_Node000003" class="edge">
<title>Node2&#45;&gt;Node3</title>
<g id="a_edge2_Node000002_Node000003"><a xlink:title=" ">
<path fill="none" stroke="#63b8ff" d="M167.39,-118.07C201.11,-114.98 255.59,-109.38 302.25,-101.81 313.58,-99.97 325.65,-97.66 337.15,-95.3"/>
<polygon fill="#63b8ff" stroke="#63b8ff" points="337.85,-98.73 346.92,-93.24 336.41,-91.88 337.85,-98.73"/>
</a>
</g>
</g>
<!-- Node7 -->
<g id="Node000007" class="node">
<title>Node7</title>
<g id="a_Node000007"><a xlink:href="../../df/df4/bit-wah_8c.html#aca7141da56c51bb22d65567f5eee8643" target="_top" xlink:title=" ">
<polygon fill="white" stroke="#666666" points="733.12,-187.44 625.62,-187.44 625.62,-168.19 733.12,-168.19 733.12,-187.44"/>
<text text-anchor="middle" x="679.38" y="-173.94" font-family="Helvetica,sans-Serif" font-size="10.00">wah_check_invariant</text>
</a>
</g>
</g>
<!-- Node2&#45;&gt;Node7 -->
<g id="edge14_Node000002_Node000007" class="edge">
<title>Node2&#45;&gt;Node7</title>
<g id="a_edge14_Node000002_Node000007"><a xlink:title=" ">
<path fill="none" stroke="#63b8ff" d="M167.45,-124.44C228.95,-131.34 367.38,-146.76 484,-158.81 527.25,-163.28 575.94,-168.04 613.77,-171.68"/>
<polygon fill="#63b8ff" stroke="#63b8ff" points="613.35,-175.15 623.64,-172.62 614.02,-168.18 613.35,-175.15"/>
</a>
</g>
</g>
<!-- Node11 -->
<g id="Node000011" class="node">
<title>Node11</title>
<g id="a_Node000011"><a xlink:href="../../df/df4/bit-wah_8c.html#a9131f23b69d3047eee377b53681e6403" target="_top" xlink:title=" ">
<polygon fill="white" stroke="#666666" points="302.25,-92.44 203,-92.44 203,-73.19 302.25,-73.19 302.25,-92.44"/>
<text text-anchor="middle" x="252.62" y="-78.94" font-family="Helvetica,sans-Serif" font-size="10.00">wah_push_pending</text>
</a>
</g>
</g>
<!-- Node2&#45;&gt;Node11 -->
<g id="edge15_Node000002_Node000011" class="edge">
<title>Node2&#45;&gt;Node11</title>
<g id="a_edge15_Node000002_Node000011"><a xlink:title=" ">
<path fill="none" stroke="#63b8ff" d="M166.13,-110.73C179.65,-106.31 195.72,-101.07 210.25,-96.32"/>
<polygon fill="#63b8ff" stroke="#63b8ff" points="211.15,-99.71 219.56,-93.28 208.97,-93.06 211.15,-99.71"/>
</a>
</g>
</g>
<!-- Node4 -->
<g id="Node000004" class="node">
<title>Node4</title>
<g id="a_Node000004"><a xlink:href="../../df/df4/bit-wah_8c.html#a5465ab9f3c3aadf570d3dfd42bfacdb4" target="_top" xlink:title=" ">
<polygon fill="white" stroke="#666666" points="589.25,-73.44 484,-73.44 484,-54.19 589.25,-54.19 589.25,-73.44"/>
<text text-anchor="middle" x="536.62" y="-59.94" font-family="Helvetica,sans-Serif" font-size="10.00">wah_append_header</text>
</a>
</g>
</g>
<!-- Node3&#45;&gt;Node4 -->
<g id="edge3_Node000003_Node000004" class="edge">
<title>Node3&#45;&gt;Node4</title>
<g id="a_edge3_Node000003_Node000004"><a xlink:title=" ">
<path fill="none" stroke="#63b8ff" d="M448.43,-75.52C456.27,-74.47 464.39,-73.38 472.39,-72.3"/>
<polygon fill="#63b8ff" stroke="#63b8ff" points="472.62,-75.8 482.06,-71 471.69,-68.86 472.62,-75.8"/>
</a>
</g>
</g>
<!-- Node5 -->
<g id="Node000005" class="node">
<title>Node5</title>
<g id="a_Node000005"><a xlink:href="../../df/df4/bit-wah_8c.html#a65d98c5439f6a5909baa6b18d4f9ffbd" target="_top" xlink:title=" ">
<polygon fill="white" stroke="#666666" points="729,-55.44 629.75,-55.44 629.75,-36.19 729,-36.19 729,-55.44"/>
<text text-anchor="middle" x="679.38" y="-41.94" font-family="Helvetica,sans-Serif" font-size="10.00">wah_append_literal</text>
</a>
</g>
</g>
<!-- Node3&#45;&gt;Node5 -->
<g id="edge4_Node000003_Node000005" class="edge">
<title>Node3&#45;&gt;Node5</title>
<g id="a_edge4_Node000003_Node000005"><a xlink:title=" ">
<path fill="none" stroke="#63b8ff" d="M412.02,-72.71C429.68,-63.36 457.77,-50.13 484,-44.81 528.4,-35.81 579.69,-36.52 618.43,-39.24"/>
<polygon fill="#63b8ff" stroke="#63b8ff" points="617.76,-42.7 628,-39.98 618.3,-35.72 617.76,-42.7"/>
</a>
</g>
</g>
<!-- Node6 -->
<g id="Node000006" class="node">
<title>Node6</title>
<g id="a_Node000006"><a xlink:href="../../df/df4/bit-wah_8c.html#afa97d9c8aca9f7f5126dcf775f5aa360" target="_top" xlink:title=" ">
<polygon fill="white" stroke="#666666" points="589.25,-149.44 484,-149.44 484,-130.19 589.25,-130.19 589.25,-149.44"/>
<text text-anchor="middle" x="536.62" y="-135.94" font-family="Helvetica,sans-Serif" font-size="10.00">wah_flatten_last_run</text>
</a>
</g>
</g>
<!-- Node3&#45;&gt;Node6 -->
<g id="edge5_Node000003_Node000006" class="edge">
<title>Node3&#45;&gt;Node6</title>
<g id="a_edge5_Node000003_Node000006"><a xlink:title=" ">
<path fill="none" stroke="#63b8ff" d="M419.1,-92.87C441.63,-101.95 475.01,-115.39 500.28,-125.57"/>
<polygon fill="#63b8ff" stroke="#63b8ff" points="498.92,-128.8 509.5,-129.29 501.53,-122.3 498.92,-128.8"/>
</a>
</g>
</g>
<!-- Node9 -->
<g id="Node000009" class="node">
<title>Node9</title>
<g id="a_Node000009"><a xlink:href="../../df/df4/bit-wah_8c.html#a5a95ffd92f8dca7a256cc23b6614a19c" target="_top" xlink:title=" ">
<polygon fill="white" stroke="#666666" points="879.62,-149.44 776.62,-149.44 776.62,-130.19 879.62,-130.19 879.62,-149.44"/>
<text text-anchor="middle" x="828.12" y="-135.94" font-family="Helvetica,sans-Serif" font-size="10.00">wah_last_run_count</text>
</a>
</g>
</g>
<!-- Node3&#45;&gt;Node9 -->
<g id="edge12_Node000003_Node000009" class="edge">
<title>Node3&#45;&gt;Node9</title>
<g id="a_edge12_Node000003_Node000009"><a xlink:title=" ">
<path fill="none" stroke="#63b8ff" d="M407.89,-72.71C424.83,-60.92 454.92,-42 484,-33.81 590.78,-3.76 633.11,20.38 733.5,-26.81 774.25,-45.97 803.36,-92.54 817.48,-119.54"/>
<polygon fill="#63b8ff" stroke="#63b8ff" points="814.32,-121.04 821.92,-128.42 820.58,-117.91 814.32,-121.04"/>
</a>
</g>
</g>
<!-- Node10 -->
<g id="Node000010" class="node">
<title>Node10</title>
<g id="a_Node000010"><a xlink:href="../../df/df4/bit-wah_8c.html#af9ce1d9755574430bed00583c13c6a8c" target="_top" xlink:title=" ">
<polygon fill="white" stroke="#666666" points="733.5,-111.44 625.25,-111.44 625.25,-92.19 733.5,-92.19 733.5,-111.44"/>
<text text-anchor="middle" x="679.38" y="-97.94" font-family="Helvetica,sans-Serif" font-size="10.00">wah_last_run_header</text>
</a>
</g>
</g>
<!-- Node3&#45;&gt;Node10 -->
<g id="edge13_Node000003_Node000010" class="edge">
<title>Node3&#45;&gt;Node10</title>
<g id="a_edge13_Node000003_Node000010"><a xlink:title=" ">
<path fill="none" stroke="#63b8ff" d="M448.26,-86.43C495.33,-89.58 563.64,-94.14 613.6,-97.48"/>
<polygon fill="#63b8ff" stroke="#63b8ff" points="613.2,-100.96 623.41,-98.14 613.67,-93.98 613.2,-100.96"/>
</a>
</g>
</g>
<!-- Node6&#45;&gt;Node5 -->
<g id="edge6_Node000006_Node000005" class="edge">
<title>Node6&#45;&gt;Node5</title>
<g id="a_edge6_Node000006_Node000005"><a xlink:title=" ">
<path fill="none" stroke="#63b8ff" d="M552.69,-129.75C576.92,-113.57 624.79,-81.6 653.95,-62.12"/>
<polygon fill="#63b8ff" stroke="#63b8ff" points="655.79,-65.1 662.16,-56.64 651.9,-59.28 655.79,-65.1"/>
</a>
</g>
</g>
<!-- Node6&#45;&gt;Node7 -->
<g id="edge7_Node000006_Node000007" class="edge">
<title>Node6&#45;&gt;Node7</title>
<g id="a_edge7_Node000006_Node000007"><a xlink:title=" ">
<path fill="none" stroke="#63b8ff" d="M574.97,-149.89C591.97,-154.48 612.29,-159.97 630.4,-164.86"/>
<polygon fill="#63b8ff" stroke="#63b8ff" points="629.31,-168.19 639.88,-167.42 631.14,-161.43 629.31,-168.19"/>
</a>
</g>
</g>
<!-- Node6&#45;&gt;Node9 -->
<g id="edge10_Node000006_Node000009" class="edge">
<title>Node6&#45;&gt;Node9</title>
<g id="a_edge10_Node000006_Node000009"><a xlink:title=" ">
<path fill="none" stroke="#63b8ff" d="M589.72,-139.81C638.9,-139.81 712.72,-139.81 764.96,-139.81"/>
<polygon fill="#63b8ff" stroke="#63b8ff" points="764.91,-143.31 774.91,-139.81 764.91,-136.31 764.91,-143.31"/>
</a>
</g>
</g>
<!-- Node6&#45;&gt;Node10 -->
<g id="edge11_Node000006_Node000010" class="edge">
<title>Node6&#45;&gt;Node10</title>
<g id="a_edge11_Node000006_Node000010"><a xlink:title=" ">
<path fill="none" stroke="#63b8ff" d="M574.97,-129.73C591.97,-125.14 612.29,-119.65 630.4,-114.76"/>
<polygon fill="#63b8ff" stroke="#63b8ff" points="631.14,-118.19 639.88,-112.2 629.31,-111.43 631.14,-118.19"/>
</a>
</g>
</g>
<!-- Node8 -->
<g id="Node000008" class="node">
<title>Node8</title>
<g id="a_Node000008"><a xlink:href="../../df/df4/bit-wah_8c.html#a62c3e890b52764c0292c77491da5f7d9" target="_top" xlink:title=" ">
<polygon fill="white" stroke="#666666" points="886.75,-187.44 769.5,-187.44 769.5,-168.19 886.75,-168.19 886.75,-187.44"/>
<text text-anchor="middle" x="828.12" y="-173.94" font-family="Helvetica,sans-Serif" font-size="10.00">wah_check_normalized</text>
</a>
</g>
</g>
<!-- Node7&#45;&gt;Node8 -->
<g id="edge8_Node000007_Node000008" class="edge">
<title>Node7&#45;&gt;Node8</title>
<g id="a_edge8_Node000007_Node000008"><a xlink:title=" ">
<path fill="none" stroke="#63b8ff" d="M733.36,-177.81C741.22,-177.81 749.43,-177.81 757.58,-177.81"/>
<polygon fill="#63b8ff" stroke="#63b8ff" points="757.49,-181.31 767.49,-177.81 757.49,-174.31 757.49,-181.31"/>
</a>
</g>
</g>
<!-- Node7&#45;&gt;Node9 -->
<g id="edge9_Node000007_Node000009" class="edge">
<title>Node7&#45;&gt;Node9</title>
<g id="a_edge9_Node000007_Node000009"><a xlink:title=" ">
<path fill="none" stroke="#63b8ff" d="M719.32,-167.73C737.05,-163.14 758.25,-157.64 777.15,-152.75"/>
<polygon fill="#63b8ff" stroke="#63b8ff" points="777.99,-156.15 786.79,-150.25 776.23,-149.37 777.99,-156.15"/>
</a>
</g>
</g>
<!-- Node11&#45;&gt;Node3 -->
<g id="edge16_Node000011_Node000003" class="edge">
<title>Node11&#45;&gt;Node3</title>
<g id="a_edge16_Node000011_Node000003"><a xlink:title=" ">
<path fill="none" stroke="#63b8ff" d="M302.45,-82.81C310.29,-82.81 318.51,-82.81 326.65,-82.81"/>
<polygon fill="#63b8ff" stroke="#63b8ff" points="326.56,-86.31 336.56,-82.81 326.56,-79.31 326.56,-86.31"/>
</a>
</g>
</g>
</g>
</svg>

<g id="navigator" transform="translate(0 0)" fill="#404254">
  <rect fill="#f2f5e9" fill-opacity="0.5" stroke="#606060" stroke-width=".5" x="0" y="0" width="60" height="60"/>
  <use id="zoomplus" xlink:href="#zoomPlus" x="17" y="9" onmousedown="handleZoom(evt,'in')"/>
  <use id="zoomminus" xlink:href="#zoomMin" x="42" y="9" onmousedown="handleZoom(evt,'out')"/>
  <use id="reset" xlink:href="#resetDef" x="30" y="36" onmousedown="handleReset()"/>
   <use id="arrowup" xlink:href="#arrowUp" x="0" y="0" onmousedown="handlePan(0,-1)"/>
  <use id="arrowright" xlink:href="#arrowRight" x="0" y="0" onmousedown="handlePan(1,0)"/>
  <use id="arrowdown" xlink:href="#arrowDown" x="0" y="0" onmousedown="handlePan(0,1)"/>
  <use id="arrowleft" xlink:href="#arrowLeft" x="0" y="0" onmousedown="handlePan(-1,0)"/>
</g>
<svg viewBox="0 0 15 15" width="100%" height="30px" preserveAspectRatio="xMaxYMin meet">
 <g id="arrow_out" transform="scale(0.3 0.3)">
  <a xlink:href="group__qkv____ll____wah_ga5b96cfabbce468d22a52c50f0ce4ba63_cgraph_org.svg" target="_base">
   <rect id="button" ry="5" rx="5" y="6" x="6" height="38" width="38"
        fill="#f2f5e9" fill-opacity="0.5" stroke="#606060" stroke-width="1.0"/>
   <path id="arrow"
     d="M 11.500037,31.436501 C 11.940474,20.09759 22.043105,11.32322 32.158766,21.979434 L 37.068811,17.246167 C 37.068811,17.246167 37.088388,32 37.088388,32 L 22.160133,31.978069 C 22.160133,31.978069 26.997745,27.140456 26.997745,27.140456 C 18.528582,18.264221 13.291696,25.230495 11.500037,31.436501 z"
     style="fill:#404040;"/>
  </a>
 </g>
</svg>

<style type='text/css'>
<![CDATA[
[data-mouse-over-selected='false'] { opacity: 0.7; }
[data-mouse-over-selected='true']  { opacity: 1.0; }
]]>
</style>
<script type="application/ecmascript"><![CDATA[
document.addEventListener('DOMContentLoaded', (event) => {
  highlightEdges();
  highlightAdjacentNodes();
});
]]></script>
</svg>
