<?xml version="1.0" encoding="UTF-8" standalone="no"?>
<!DOCTYPE svg PUBLIC "-//W3C//DTD SVG 1.1//EN"
 "http://www.w3.org/Graphics/SVG/1.1/DTD/svg11.dtd">
<!-- Generated by graphviz version 9.0.0 (20230911.1827)
 -->
<!-- Title: sctp_conn_priv_wipe Pages: 1 -->
<!--zoomable 389 -->

<svg id="main" version="1.1" xmlns="http://www.w3.org/2000/svg" xmlns:xlink="http://www.w3.org/1999/xlink" xml:space="preserve" onload="init(evt)">
<style type="text/css"><![CDATA[
.node, .edge {opacity: 0.7;}
.node.selected, .edge.selected {opacity: 1;}
.edge:hover path { stroke: red; }
.edge:hover polygon { stroke: red; fill: red; }
]]></style>

<defs>
  <circle id="rim" cx="0" cy="0" r="7"/>
  <circle id="rim2" cx="0" cy="0" r="3.5"/>
  <g id="zoomPlus">
    <use xlink:href="#rim" fill="#404040"><set attributeName="fill" to="#808080" begin="zoomplus.mouseover" end="zoomplus.mouseout"/></use>
    <path d="M-4,0h8M0,-4v8" fill="none" stroke="white" stroke-width="1.5" pointer-events="none"/>
  </g>
  <g id="zoomMin">
    <use xlink:href="#rim" fill="#404040"><set attributeName="fill" to="#808080" begin="zoomminus.mouseover" end="zoomminus.mouseout"/></use>
    <path d="M-4,0h8" fill="none" stroke="white" stroke-width="1.5" pointer-events="none"/>
  </g>
  <g id="arrowUp" transform="translate(30 24)">
    <use xlink:href="#rim"/>
    <path pointer-events="none" fill="none" stroke="white" stroke-width="1.5" d="M0,-3.0v7 M-2.5,-0.5L0,-3.0L2.5,-0.5"/>
  </g>
  <g id="arrowRight" transform="rotate(90) translate(36 -43)">
    <use xlink:href="#rim"/>
    <path pointer-events="none" fill="none" stroke="white" stroke-width="1.5" d="M0,-3.0v7 M-2.5,-0.5L0,-3.0L2.5,-0.5"/>
  </g>
  <g id="arrowDown" transform="rotate(180) translate(-30 -48)">
    <use xlink:href="#rim"/>
    <path pointer-events="none" fill="none" stroke="white" stroke-width="1.5" d="M0,-3.0v7 M-2.5,-0.5L0,-3.0L2.5,-0.5"/>
  </g>
  <g id="arrowLeft" transform="rotate(270) translate(-36 17)">
    <use xlink:href="#rim"/>
    <path pointer-events="none" fill="none" stroke="white" stroke-width="1.5" d="M0,-3.0v7 M-2.5,-0.5L0,-3.0L2.5,-0.5"/>
  </g>
  <g id="resetDef">
    <use xlink:href="#rim2" fill="#404040"><set attributeName="fill" to="#808080" begin="reset.mouseover" end="reset.mouseout"/></use>
  </g>
</defs>
<script type="application/ecmascript">
var viewWidth = 1450;
var viewHeight = 389;
var sectionId = 'dynsection-11';
</script>
<script type="application/ecmascript" xlink:href="../../svg.min.js"/>
<svg id="graph" class="graph">
<g id="viewport">
<title>sctp_conn_priv_wipe</title>
<!-- Node1 -->
<g id="Node000001" class="node">
<title>Node1</title>
<g id="a_Node000001"><a xlink:title=" ">
<polygon fill="#999999" stroke="#666666" points="107.5,-86.25 0,-86.25 0,-67 107.5,-67 107.5,-86.25"/>
<text text-anchor="middle" x="53.75" y="-72.75" font-family="Helvetica,sans-Serif" font-size="10.00">sctp_conn_priv_wipe</text>
</a>
</g>
</g>
<!-- Node2 -->
<g id="Node000002" class="node">
<title>Node2</title>
<g id="a_Node000002"><a xlink:href="../../df/d0a/str-l_8h.html#ad74dae07179370f3c22e3f026157926e" target="_top" xlink:title="wipe a lstr_t (frees memory if needed).">
<polygon fill="white" stroke="#666666" points="222.12,-186.25 167.12,-186.25 167.12,-167 222.12,-167 222.12,-186.25"/>
<text text-anchor="middle" x="194.62" y="-172.75" font-family="Helvetica,sans-Serif" font-size="10.00">lstr_wipe</text>
</a>
</g>
</g>
<!-- Node1&#45;&gt;Node2 -->
<g id="edge1_Node000001_Node000002" class="edge">
<title>Node1&#45;&gt;Node2</title>
<g id="a_edge1_Node000001_Node000002"><a xlink:title=" ">
<path fill="none" stroke="#63b8ff" d="M68.57,-86.58C92.49,-103.8 141.81,-139.31 170.85,-160.23"/>
<polygon fill="#63b8ff" stroke="#63b8ff" points="168.47,-162.82 178.63,-165.83 172.56,-157.14 168.47,-162.82"/>
</a>
</g>
</g>
<!-- Node26 -->
<g id="Node000026" class="node">
<title>Node26</title>
<g id="a_Node000026"><a xlink:href="../../d4/d02/str-buf_8c.html#a2df9d24379657189beb232b2a5ab851b" target="_top" xlink:title=" ">
<polygon fill="white" stroke="#666666" points="220.62,-86.25 168.62,-86.25 168.62,-67 220.62,-67 220.62,-86.25"/>
<text text-anchor="middle" x="194.62" y="-72.75" font-family="Helvetica,sans-Serif" font-size="10.00">sb_wipe</text>
</a>
</g>
</g>
<!-- Node1&#45;&gt;Node26 -->
<g id="edge30_Node000001_Node000026" class="edge">
<title>Node1&#45;&gt;Node26</title>
<g id="a_edge30_Node000001_Node000026"><a xlink:title=" ">
<path fill="none" stroke="#63b8ff" d="M107.65,-76.62C124.1,-76.62 141.87,-76.62 156.96,-76.62"/>
<polygon fill="#63b8ff" stroke="#63b8ff" points="156.89,-80.13 166.89,-76.63 156.89,-73.13 156.89,-80.13"/>
</a>
</g>
</g>
<!-- Node32 -->
<g id="Node000032" class="node">
<title>Node32</title>
<g id="a_Node000032"><a xlink:href="../../dd/d03/sctp-tools_8c.html#a9457f4fc17f8c2adb538b6af00944124" target="_top" xlink:title=" ">
<polygon fill="white" stroke="#666666" points="245.75,-49.25 143.5,-49.25 143.5,-30 245.75,-30 245.75,-49.25"/>
<text text-anchor="middle" x="194.62" y="-35.75" font-family="Helvetica,sans-Serif" font-size="10.00">sctp_msg_list_wipe</text>
</a>
</g>
</g>
<!-- Node1&#45;&gt;Node32 -->
<g id="edge37_Node000001_Node000032" class="edge">
<title>Node1&#45;&gt;Node32</title>
<g id="a_edge37_Node000001_Node000032"><a xlink:title=" ">
<path fill="none" stroke="#63b8ff" d="M92.7,-66.51C108.77,-62.23 127.7,-57.19 144.8,-52.63"/>
<polygon fill="#63b8ff" stroke="#63b8ff" points="145.5,-56.07 154.26,-50.11 143.7,-49.31 145.5,-56.07"/>
</a>
</g>
</g>
<!-- Node3 -->
<g id="Node000003" class="node">
<title>Node3</title>
<g id="a_Node000003"><a xlink:href="../../df/d0a/str-l_8h.html#a381cd831ac9616c5bea8213bb679d1ac" target="_top" xlink:title="Wipe a lstr_t (frees memory if needed).">
<polygon fill="white" stroke="#666666" points="355.5,-281.25 281.75,-281.25 281.75,-262 355.5,-262 355.5,-281.25"/>
<text text-anchor="middle" x="318.62" y="-267.75" font-family="Helvetica,sans-Serif" font-size="10.00">mp_lstr_wipe</text>
</a>
</g>
</g>
<!-- Node2&#45;&gt;Node3 -->
<g id="edge2_Node000002_Node000003" class="edge">
<title>Node2&#45;&gt;Node3</title>
<g id="a_edge2_Node000002_Node000003"><a xlink:title=" ">
<path fill="none" stroke="#63b8ff" d="M208.22,-186.43C228.95,-202.58 270.5,-234.93 296,-254.79"/>
<polygon fill="#63b8ff" stroke="#63b8ff" points="293.68,-257.41 303.72,-260.8 297.98,-251.89 293.68,-257.41"/>
</a>
</g>
</g>
<!-- Node4 -->
<g id="Node000004" class="node">
<title>Node4</title>
<g id="a_Node000004"><a xlink:href="../../de/d04/str-l_8c.html#abe2a3a71f0b4dbc7d37c59d16762b6fb" target="_top" xlink:title="lstr_copy_* helper.">
<polygon fill="white" stroke="#666666" points="484.38,-309.25 405.38,-309.25 405.38,-290 484.38,-290 484.38,-309.25"/>
<text text-anchor="middle" x="444.88" y="-295.75" font-family="Helvetica,sans-Serif" font-size="10.00">mp_lstr_copy_</text>
</a>
</g>
</g>
<!-- Node3&#45;&gt;Node4 -->
<g id="edge3_Node000003_Node000004" class="edge">
<title>Node3&#45;&gt;Node4</title>
<g id="a_edge3_Node000003_Node000004"><a xlink:title=" ">
<path fill="none" stroke="#63b8ff" d="M355.9,-279.8C367.86,-282.5 381.39,-285.54 394.18,-288.43"/>
<polygon fill="#63b8ff" stroke="#63b8ff" points="393.17,-291.79 403.7,-290.57 394.71,-284.96 393.17,-291.79"/>
</a>
</g>
</g>
<!-- Node5 -->
<g id="Node000005" class="node">
<title>Node5</title>
<g id="a_Node000005"><a xlink:href="../../d9/d9a/mem_8h.html#aebbbd277e2952bdb802104671ba23ba9" target="_top" xlink:title=" ">
<polygon fill="white" stroke="#666666" points="582.88,-309.25 548.12,-309.25 548.12,-290 582.88,-290 582.88,-309.25"/>
<text text-anchor="middle" x="565.5" y="-295.75" font-family="Helvetica,sans-Serif" font-size="10.00">ifree</text>
</a>
</g>
</g>
<!-- Node4&#45;&gt;Node5 -->
<g id="edge4_Node000004_Node000005" class="edge">
<title>Node4&#45;&gt;Node5</title>
<g id="a_edge4_Node000004_Node000005"><a xlink:title=" ">
<path fill="none" stroke="#63b8ff" d="M484.72,-299.62C501.57,-299.62 520.93,-299.62 536.36,-299.62"/>
<polygon fill="#63b8ff" stroke="#63b8ff" points="536.25,-303.13 546.25,-299.63 536.25,-296.13 536.25,-303.13"/>
</a>
</g>
</g>
<!-- Node15 -->
<g id="Node000015" class="node">
<title>Node15</title>
<g id="a_Node000015"><a xlink:href="../../df/d0a/str-l_8h.html#a3b4dbe9c4cc70340cba0787574dc1c5e" target="_top" xlink:title=" ">
<polygon fill="white" stroke="#666666" points="1442.25,-297.25 1389.5,-297.25 1389.5,-278 1442.25,-278 1442.25,-297.25"/>
<text text-anchor="middle" x="1415.88" y="-283.75" font-family="Helvetica,sans-Serif" font-size="10.00">lstr_init_</text>
</a>
</g>
</g>
<!-- Node4&#45;&gt;Node15 -->
<g id="edge29_Node000004_Node000015" class="edge">
<title>Node4&#45;&gt;Node15</title>
<g id="a_edge29_Node000004_Node000015"><a xlink:title=" ">
<path fill="none" stroke="#63b8ff" d="M462.04,-309.72C498.42,-331.43 590.07,-380.62 673.88,-380.62 673.88,-380.62 673.88,-380.62 1167,-380.62 1253.62,-380.62 1347.04,-330.22 1390.31,-303.63"/>
<polygon fill="#63b8ff" stroke="#63b8ff" points="1392.06,-306.66 1398.67,-298.38 1388.34,-300.73 1392.06,-306.66"/>
</a>
</g>
</g>
<!-- Node6 -->
<g id="Node000006" class="node">
<title>Node6</title>
<g id="a_Node000006"><a xlink:href="../../d8/d37/mem_8blk.html#a36b65ab346f1d0deed7b63c544c78f2b" target="_top" xlink:title=" ">
<polygon fill="white" stroke="#666666" points="693,-281.25 656.75,-281.25 656.75,-262 693,-262 693,-281.25"/>
<text text-anchor="middle" x="674.88" y="-267.75" font-family="Helvetica,sans-Serif" font-size="10.00">ipool</text>
</a>
</g>
</g>
<!-- Node5&#45;&gt;Node6 -->
<g id="edge5_Node000005_Node000006" class="edge">
<title>Node5&#45;&gt;Node6</title>
<g id="a_edge5_Node000005_Node000006"><a xlink:title=" ">
<path fill="none" stroke="#63b8ff" d="M583.28,-295.25C599.94,-290.9 625.8,-284.16 645.64,-278.99"/>
<polygon fill="#63b8ff" stroke="#63b8ff" points="646.25,-282.45 655.04,-276.54 644.48,-275.67 646.25,-282.45"/>
</a>
</g>
</g>
<!-- Node25 -->
<g id="Node000025" class="node">
<title>Node25</title>
<g id="a_Node000025"><a xlink:href="../../d8/d37/mem_8blk.html#a83c7cf203e5eef9d1a8c6c43cde3e2e5" target="_top" xlink:title=" ">
<polygon fill="white" stroke="#666666" points="701.62,-318.25 648.12,-318.25 648.12,-299 701.62,-299 701.62,-318.25"/>
<text text-anchor="middle" x="674.88" y="-304.75" font-family="Helvetica,sans-Serif" font-size="10.00">mp_ifree</text>
</a>
</g>
</g>
<!-- Node5&#45;&gt;Node25 -->
<g id="edge28_Node000005_Node000025" class="edge">
<title>Node5&#45;&gt;Node25</title>
<g id="a_edge28_Node000005_Node000025"><a xlink:title=" ">
<path fill="none" stroke="#63b8ff" d="M583.28,-301.03C597.5,-302.22 618.43,-303.98 636.59,-305.5"/>
<polygon fill="#63b8ff" stroke="#63b8ff" points="636.25,-308.98 646.51,-306.33 636.84,-302.01 636.25,-308.98"/>
</a>
</g>
</g>
<!-- Node7 -->
<g id="Node000007" class="node">
<title>Node7</title>
<g id="a_Node000007"><a xlink:href="../../d7/df8/log_8c.html#abca342edf91a9b45f7a17ef564fa8a53" target="_top" xlink:title=" ">
<polygon fill="white" stroke="#666666" points="802.75,-300.25 753,-300.25 753,-281 802.75,-281 802.75,-300.25"/>
<text text-anchor="middle" x="777.88" y="-286.75" font-family="Helvetica,sans-Serif" font-size="10.00">e_panic</text>
</a>
</g>
</g>
<!-- Node6&#45;&gt;Node7 -->
<g id="edge6_Node000006_Node000007" class="edge">
<title>Node6&#45;&gt;Node7</title>
<g id="a_edge6_Node000006_Node000007"><a xlink:title=" ">
<path fill="none" stroke="#63b8ff" d="M693.47,-274.93C706.66,-277.42 725.15,-280.89 741.37,-283.95"/>
<polygon fill="#63b8ff" stroke="#63b8ff" points="740.71,-287.38 751.19,-285.79 742.01,-280.5 740.71,-287.38"/>
</a>
</g>
</g>
<!-- Node24 -->
<g id="Node000024" class="node">
<title>Node24</title>
<g id="a_Node000024"><a xlink:href="../../d1/d10/mem-stack_8h.html#a1d0e2a29f86dc033a02e50484b527fd0" target="_top" xlink:title=" ">
<polygon fill="white" stroke="#666666" points="799,-263.25 756.75,-263.25 756.75,-244 799,-244 799,-263.25"/>
<text text-anchor="middle" x="777.88" y="-249.75" font-family="Helvetica,sans-Serif" font-size="10.00">t_pool</text>
</a>
</g>
</g>
<!-- Node6&#45;&gt;Node24 -->
<g id="edge27_Node000006_Node000024" class="edge">
<title>Node6&#45;&gt;Node24</title>
<g id="a_edge27_Node000006_Node000024"><a xlink:title=" ">
<path fill="none" stroke="#63b8ff" d="M693.47,-268.49C707.7,-265.95 728.12,-262.31 745.19,-259.27"/>
<polygon fill="#63b8ff" stroke="#63b8ff" points="745.63,-262.75 754.86,-257.55 744.4,-255.86 745.63,-262.75"/>
</a>
</g>
</g>
<!-- Node8 -->
<g id="Node000008" class="node">
<title>Node8</title>
<g id="a_Node000008"><a xlink:href="../../d7/df8/log_8c.html#a4bc04f7baa1e064cb0b93c7b9f3a61a1" target="_top" xlink:title=" ">
<polygon fill="white" stroke="#666666" points="926.75,-315.25 838.75,-315.25 838.75,-296 926.75,-296 926.75,-315.25"/>
<text text-anchor="middle" x="882.75" y="-301.75" font-family="Helvetica,sans-Serif" font-size="10.00">__logger_refresh</text>
</a>
</g>
</g>
<!-- Node7&#45;&gt;Node8 -->
<g id="edge7_Node000007_Node000008" class="edge">
<title>Node7&#45;&gt;Node8</title>
<g id="a_edge7_Node000007_Node000008"><a xlink:title=" ">
<path fill="none" stroke="#63b8ff" d="M802.99,-294.14C810.34,-295.21 818.74,-296.44 827.25,-297.68"/>
<polygon fill="#63b8ff" stroke="#63b8ff" points="826.53,-301.11 836.93,-299.09 827.54,-294.18 826.53,-301.11"/>
</a>
</g>
</g>
<!-- Node19 -->
<g id="Node000019" class="node">
<title>Node19</title>
<g id="a_Node000019"><a xlink:href="../../d7/df8/log_8c.html#a900490b26df7698aac12f7f7e6517e81" target="_top" xlink:title=" ">
<polygon fill="white" stroke="#666666" points="915.5,-187.25 850,-187.25 850,-168 915.5,-168 915.5,-187.25"/>
<text text-anchor="middle" x="882.75" y="-173.75" font-family="Helvetica,sans-Serif" font-size="10.00">logger_vlog</text>
</a>
</g>
</g>
<!-- Node7&#45;&gt;Node19 -->
<g id="edge21_Node000007_Node000019" class="edge">
<title>Node7&#45;&gt;Node19</title>
<g id="a_edge21_Node000007_Node000019"><a xlink:title=" ">
<path fill="none" stroke="#63b8ff" d="M793.2,-280.67C796.46,-278.18 799.82,-275.42 802.75,-272.62 827.98,-248.57 853.02,-216.76 867.94,-196.75"/>
<polygon fill="#63b8ff" stroke="#63b8ff" points="870.59,-199.05 873.69,-188.92 864.95,-194.91 870.59,-199.05"/>
</a>
</g>
</g>
<!-- Node23 -->
<g id="Node000023" class="node">
<title>Node23</title>
<g id="a_Node000023"><a xlink:href="../../d2/d4d/file_8h.html#a25419a391fdd4ad7954699c58cfeb3b9" target="_top" xlink:title=" ">
<polygon fill="white" stroke="#666666" points="908.38,-278.25 857.12,-278.25 857.12,-259 908.38,-259 908.38,-278.25"/>
<text text-anchor="middle" x="882.75" y="-264.75" font-family="Helvetica,sans-Serif" font-size="10.00">va_start</text>
</a>
</g>
</g>
<!-- Node7&#45;&gt;Node23 -->
<g id="edge26_Node000007_Node000023" class="edge">
<title>Node7&#45;&gt;Node23</title>
<g id="a_edge26_Node000007_Node000023"><a xlink:title=" ">
<path fill="none" stroke="#63b8ff" d="M802.99,-285.47C815.74,-282.74 831.64,-279.34 845.81,-276.31"/>
<polygon fill="#63b8ff" stroke="#63b8ff" points="846.18,-279.81 855.23,-274.3 844.72,-272.97 846.18,-279.81"/>
</a>
</g>
</g>
<!-- Node9 -->
<g id="Node000009" class="node">
<title>Node9</title>
<g id="a_Node000009"><a xlink:href="../../d7/df8/log_8c.html#a3dbd75fb614210f0b114cfd03c9c0a7b" target="_top" xlink:title=" ">
<polygon fill="white" stroke="#666666" points="1066.5,-260.25 962.75,-260.25 962.75,-241 1066.5,-241 1066.5,-260.25"/>
<text text-anchor="middle" x="1014.62" y="-246.75" font-family="Helvetica,sans-Serif" font-size="10.00">__logger_do_refresh</text>
</a>
</g>
</g>
<!-- Node8&#45;&gt;Node9 -->
<g id="edge8_Node000008_Node000009" class="edge">
<title>Node8&#45;&gt;Node9</title>
<g id="a_edge8_Node000008_Node000009"><a xlink:title=" ">
<path fill="none" stroke="#63b8ff" d="M907.87,-295.56C914.03,-292.98 920.64,-290.21 926.75,-287.62 944.17,-280.27 963.54,-272.03 979.56,-265.19"/>
<polygon fill="#63b8ff" stroke="#63b8ff" points="980.83,-268.45 988.65,-261.31 978.08,-262.02 980.83,-268.45"/>
</a>
</g>
</g>
<!-- Node17 -->
<g id="Node000017" class="node">
<title>Node17</title>
<g id="a_Node000017"><a xlink:href="../../d7/df8/log_8c.html#a7b1b02d1986e1247c2f571af4a2c2854" target="_top" xlink:title=" ">
<polygon fill="white" stroke="#666666" points="1052.25,-352.25 977,-352.25 977,-333 1052.25,-333 1052.25,-352.25"/>
<text text-anchor="middle" x="1014.62" y="-338.75" font-family="Helvetica,sans-Serif" font-size="10.00">log_spin_lock</text>
</a>
</g>
</g>
<!-- Node8&#45;&gt;Node17 -->
<g id="edge19_Node000008_Node000017" class="edge">
<title>Node8&#45;&gt;Node17</title>
<g id="a_edge19_Node000008_Node000017"><a xlink:title=" ">
<path fill="none" stroke="#63b8ff" d="M919.24,-315.74C934.13,-319.98 951.64,-324.97 967.51,-329.49"/>
<polygon fill="#63b8ff" stroke="#63b8ff" points="966.15,-332.74 976.72,-332.11 968.07,-326.01 966.15,-332.74"/>
</a>
</g>
</g>
<!-- Node18 -->
<g id="Node000018" class="node">
<title>Node18</title>
<g id="a_Node000018"><a xlink:href="../../d1/dc0/group__log.html#ga045020bb4af234632f7761f220131c69" target="_top" xlink:title=" ">
<polygon fill="white" stroke="#666666" points="1057.5,-315.25 971.75,-315.25 971.75,-296 1057.5,-296 1057.5,-315.25"/>
<text text-anchor="middle" x="1014.62" y="-301.75" font-family="Helvetica,sans-Serif" font-size="10.00">log_spin_unlock</text>
</a>
</g>
</g>
<!-- Node8&#45;&gt;Node18 -->
<g id="edge20_Node000008_Node000018" class="edge">
<title>Node8&#45;&gt;Node18</title>
<g id="a_edge20_Node000008_Node000018"><a xlink:title=" ">
<path fill="none" stroke="#63b8ff" d="M927,-305.62C937.62,-305.62 949.12,-305.62 960.16,-305.62"/>
<polygon fill="#63b8ff" stroke="#63b8ff" points="959.94,-309.13 969.94,-305.63 959.94,-302.13 959.94,-309.13"/>
</a>
</g>
</g>
<!-- Node9&#45;&gt;Node2 -->
<g id="edge18_Node000009_Node000002" class="edge">
<title>Node9&#45;&gt;Node2</title>
<g id="a_edge18_Node000009_Node000002"><a xlink:title=" ">
<path fill="none" stroke="#63b8ff" d="M971.5,-240.5C924.73,-230.16 846.86,-215.62 778.88,-215.62 443.88,-215.62 443.88,-215.62 443.88,-215.62 368.55,-215.62 281.91,-197.88 233.48,-186.33"/>
<polygon fill="#63b8ff" stroke="#63b8ff" points="234.6,-183.01 224.06,-184.05 232.95,-189.81 234.6,-183.01"/>
</a>
</g>
</g>
<!-- Node9&#45;&gt;Node9 -->
<g id="edge9_Node000009_Node000009" class="edge">
<title>Node9&#45;&gt;Node9</title>
<g id="a_edge9_Node000009_Node000009"><a xlink:title=" ">
<path fill="none" stroke="#63b8ff" d="M993.98,-260.54C984.56,-269.15 991.44,-278.25 1014.62,-278.25 1027.3,-278.25 1035.1,-275.53 1038.03,-271.65"/>
<polygon fill="#63b8ff" stroke="#63b8ff" points="1041.44,-270.87 1035.64,-262.01 1034.65,-272.56 1041.44,-270.87"/>
</a>
</g>
</g>
<!-- Node10 -->
<g id="Node000010" class="node">
<title>Node10</title>
<g id="a_Node000010"><a xlink:href="../../de/d1a/container-dlist_8h.html#a3b6f65860b212e28f2e28e71eb54d54d" target="_top" xlink:title="Add element e at the head of list l (suited for LIFO).">
<polygon fill="white" stroke="#666666" points="1193.5,-315.25 1138.5,-315.25 1138.5,-296 1193.5,-296 1193.5,-315.25"/>
<text text-anchor="middle" x="1166" y="-301.75" font-family="Helvetica,sans-Serif" font-size="10.00">dlist_add</text>
</a>
</g>
</g>
<!-- Node9&#45;&gt;Node10 -->
<g id="edge10_Node000009_Node000010" class="edge">
<title>Node9&#45;&gt;Node10</title>
<g id="a_edge10_Node000009_Node000010"><a xlink:title=" ">
<path fill="none" stroke="#63b8ff" d="M1037.11,-260.65C1054.52,-268.55 1079.79,-279.55 1102.5,-287.62 1110.4,-290.43 1118.97,-293.13 1127.17,-295.54"/>
<polygon fill="#63b8ff" stroke="#63b8ff" points="1125.97,-298.83 1136.55,-298.21 1127.9,-292.1 1125.97,-298.83"/>
</a>
</g>
</g>
<!-- Node12 -->
<g id="Node000012" class="node">
<title>Node12</title>
<g id="a_Node000012"><a xlink:href="../../de/d1a/container-dlist_8h.html#a0a69e401f6ec15966c891e96ad864c77" target="_top" xlink:title="Put a dlist_t element in a safe and detached state.">
<polygon fill="white" stroke="#666666" points="1192,-278.25 1140,-278.25 1140,-259 1192,-259 1192,-278.25"/>
<text text-anchor="middle" x="1166" y="-264.75" font-family="Helvetica,sans-Serif" font-size="10.00">dlist_init</text>
</a>
</g>
</g>
<!-- Node9&#45;&gt;Node12 -->
<g id="edge12_Node000009_Node000012" class="edge">
<title>Node9&#45;&gt;Node12</title>
<g id="a_edge12_Node000009_Node000012"><a xlink:title=" ">
<path fill="none" stroke="#63b8ff" d="M1066.61,-256.77C1086.95,-259.22 1109.91,-261.99 1128.53,-264.23"/>
<polygon fill="#63b8ff" stroke="#63b8ff" points="1127.94,-267.68 1138.28,-265.41 1128.77,-260.73 1127.94,-267.68"/>
</a>
</g>
</g>
<!-- Node13 -->
<g id="Node000013" class="node">
<title>Node13</title>
<g id="a_Node000013"><a xlink:href="../../d7/df8/log_8c.html#a4c8fbe8648573312126ce341cf34cba1" target="_top" xlink:title=" ">
<polygon fill="white" stroke="#666666" points="1229.5,-204.25 1102.5,-204.25 1102.5,-185 1229.5,-185 1229.5,-204.25"/>
<text text-anchor="middle" x="1166" y="-190.75" font-family="Helvetica,sans-Serif" font-size="10.00">logger_compute_fullname</text>
</a>
</g>
</g>
<!-- Node9&#45;&gt;Node13 -->
<g id="edge13_Node000009_Node000013" class="edge">
<title>Node9&#45;&gt;Node13</title>
<g id="a_edge13_Node000009_Node000013"><a xlink:title=" ">
<path fill="none" stroke="#63b8ff" d="M1037.49,-240.67C1058.89,-230.99 1090.03,-217.12 1102.5,-212.62 1106.92,-211.03 1111.56,-209.48 1116.22,-208"/>
<polygon fill="#63b8ff" stroke="#63b8ff" points="1117.08,-211.39 1125.62,-205.12 1115.03,-204.7 1117.08,-211.39"/>
</a>
</g>
</g>
<!-- Node16 -->
<g id="Node000016" class="node">
<title>Node16</title>
<g id="a_Node000016"><a xlink:href="../../df/d0a/str-l_8h.html#a963c22b229774d4b7c106bae4011cb8e" target="_top" xlink:title="Returns whether \v s1 and \v s2 contents are equal.">
<polygon fill="white" stroke="#666666" points="1195,-352.25 1137,-352.25 1137,-333 1195,-333 1195,-352.25"/>
<text text-anchor="middle" x="1166" y="-338.75" font-family="Helvetica,sans-Serif" font-size="10.00">lstr_equal</text>
</a>
</g>
</g>
<!-- Node9&#45;&gt;Node16 -->
<g id="edge17_Node000009_Node000016" class="edge">
<title>Node9&#45;&gt;Node16</title>
<g id="a_edge17_Node000009_Node000016"><a xlink:title=" ">
<path fill="none" stroke="#63b8ff" d="M1031.35,-260.59C1041.72,-267.43 1055.38,-276.99 1066.5,-286.62 1084.08,-301.86 1082.62,-312.54 1102.5,-324.62 1109.52,-328.89 1117.59,-332.19 1125.55,-334.72"/>
<polygon fill="#63b8ff" stroke="#63b8ff" points="1124.59,-338.08 1135.16,-337.4 1126.47,-331.34 1124.59,-338.08"/>
</a>
</g>
</g>
<!-- Node11 -->
<g id="Node000011" class="node">
<title>Node11</title>
<g id="a_Node000011"><a xlink:href="../../de/d1a/container-dlist_8h.html#a71e7667ca0e4b896923788c5851afd24" target="_top" xlink:title="Put element e between prev and next.">
<polygon fill="white" stroke="#666666" points="1342.25,-315.25 1276.75,-315.25 1276.75,-296 1342.25,-296 1342.25,-315.25"/>
<text text-anchor="middle" x="1309.5" y="-301.75" font-family="Helvetica,sans-Serif" font-size="10.00">__dlist_add</text>
</a>
</g>
</g>
<!-- Node10&#45;&gt;Node11 -->
<g id="edge11_Node000010_Node000011" class="edge">
<title>Node10&#45;&gt;Node11</title>
<g id="a_edge11_Node000010_Node000011"><a xlink:title=" ">
<path fill="none" stroke="#63b8ff" d="M1193.95,-305.62C1214.05,-305.62 1241.92,-305.62 1265.14,-305.62"/>
<polygon fill="#63b8ff" stroke="#63b8ff" points="1264.94,-309.13 1274.94,-305.63 1264.94,-302.13 1264.94,-309.13"/>
</a>
</g>
</g>
<!-- Node13&#45;&gt;Node2 -->
<g id="edge16_Node000013_Node000002" class="edge">
<title>Node13&#45;&gt;Node2</title>
<g id="a_edge16_Node000013_Node000002"><a xlink:title=" ">
<path fill="none" stroke="#63b8ff" d="M1141.8,-184.6C1094.31,-165.03 982.2,-123.62 883.75,-123.62 443.88,-123.62 443.88,-123.62 443.88,-123.62 367.78,-123.62 281.41,-147.73 233.23,-163.43"/>
<polygon fill="#63b8ff" stroke="#63b8ff" points="232.23,-160.08 223.84,-166.55 234.44,-166.72 232.23,-160.08"/>
</a>
</g>
</g>
<!-- Node14 -->
<g id="Node000014" class="node">
<title>Node14</title>
<g id="a_Node000014"><a xlink:href="../../df/d0a/str-l_8h.html#a6a200ca09358f19b13a8e297cda34869" target="_top" xlink:title="returns a constant copy of \v s.">
<polygon fill="white" stroke="#666666" points="1337.38,-204.25 1281.62,-204.25 1281.62,-185 1337.38,-185 1337.38,-204.25"/>
<text text-anchor="middle" x="1309.5" y="-190.75" font-family="Helvetica,sans-Serif" font-size="10.00">lstr_dupc</text>
</a>
</g>
</g>
<!-- Node13&#45;&gt;Node14 -->
<g id="edge14_Node000013_Node000014" class="edge">
<title>Node13&#45;&gt;Node14</title>
<g id="a_edge14_Node000013_Node000014"><a xlink:title=" ">
<path fill="none" stroke="#63b8ff" d="M1229.89,-194.62C1243.54,-194.62 1257.58,-194.62 1269.95,-194.62"/>
<polygon fill="#63b8ff" stroke="#63b8ff" points="1269.72,-198.13 1279.72,-194.63 1269.72,-191.13 1269.72,-198.13"/>
</a>
</g>
</g>
<!-- Node14&#45;&gt;Node15 -->
<g id="edge15_Node000014_Node000015" class="edge">
<title>Node14&#45;&gt;Node15</title>
<g id="a_edge15_Node000014_Node000015"><a xlink:title=" ">
<path fill="none" stroke="#63b8ff" d="M1337.52,-203.55C1343.08,-206.03 1348.7,-209.05 1353.5,-212.62 1374.05,-227.95 1391.88,-251.6 1402.95,-268.24"/>
<polygon fill="#63b8ff" stroke="#63b8ff" points="1399.77,-269.76 1408.11,-276.28 1405.66,-265.98 1399.77,-269.76"/>
</a>
</g>
</g>
<!-- Node19&#45;&gt;Node14 -->
<g id="edge25_Node000019_Node000014" class="edge">
<title>Node19&#45;&gt;Node14</title>
<g id="a_edge25_Node000019_Node000014"><a xlink:title=" ">
<path fill="none" stroke="#63b8ff" d="M915.84,-174.81C977.08,-170.01 1114.75,-162.02 1229.5,-175.62 1243.04,-177.23 1257.62,-180.33 1270.53,-183.57"/>
<polygon fill="#63b8ff" stroke="#63b8ff" points="1269.34,-186.88 1279.9,-186.04 1271.12,-180.11 1269.34,-186.88"/>
</a>
</g>
</g>
<!-- Node20 -->
<g id="Node000020" class="node">
<title>Node20</title>
<g id="a_Node000020"><a xlink:href="../../d1/dc0/group__log.html#ga168a6f17b248f61f7d25a17d58d04e36" target="_top" xlink:title=" ">
<polygon fill="white" stroke="#666666" points="1059,-218.25 970.25,-218.25 970.25,-199 1059,-199 1059,-218.25"/>
<text text-anchor="middle" x="1014.62" y="-204.75" font-family="Helvetica,sans-Serif" font-size="10.00">logger_has_level</text>
</a>
</g>
</g>
<!-- Node19&#45;&gt;Node20 -->
<g id="edge22_Node000019_Node000020" class="edge">
<title>Node19&#45;&gt;Node20</title>
<g id="a_edge22_Node000019_Node000020"><a xlink:title=" ">
<path fill="none" stroke="#63b8ff" d="M915.85,-185.29C929.39,-188.52 945.52,-192.37 960.73,-196"/>
<polygon fill="#63b8ff" stroke="#63b8ff" points="959.58,-199.32 970.12,-198.24 961.21,-192.51 959.58,-199.32"/>
</a>
</g>
</g>
<!-- Node21 -->
<g id="Node000021" class="node">
<title>Node21</title>
<g id="a_Node000021"><a xlink:href="../../d1/dc0/group__log.html#gaf388752b988541da0abeceecdf96e6b3" target="_top" xlink:title=" ">
<polygon fill="white" stroke="#666666" points="1209.25,-241.25 1122.75,-241.25 1122.75,-222 1209.25,-222 1209.25,-241.25"/>
<text text-anchor="middle" x="1166" y="-227.75" font-family="Helvetica,sans-Serif" font-size="10.00">logger_get_level</text>
</a>
</g>
</g>
<!-- Node20&#45;&gt;Node21 -->
<g id="edge23_Node000020_Node000021" class="edge">
<title>Node20&#45;&gt;Node21</title>
<g id="a_edge23_Node000020_Node000021"><a xlink:title=" ">
<path fill="none" stroke="#63b8ff" d="M1059.23,-215.34C1075.55,-217.85 1094.28,-220.74 1111.39,-223.37"/>
<polygon fill="#63b8ff" stroke="#63b8ff" points="1110.46,-226.77 1120.87,-224.83 1111.52,-219.85 1110.46,-226.77"/>
</a>
</g>
</g>
<!-- Node22 -->
<g id="Node000022" class="node">
<title>Node22</title>
<g id="a_Node000022"><a xlink:href="../../d1/dc0/group__log.html#ga93cbd623096e1704532d15b3eb30e42f" target="_top" xlink:title=" ">
<polygon fill="white" stroke="#666666" points="1353.5,-241.25 1265.5,-241.25 1265.5,-222 1353.5,-222 1353.5,-241.25"/>
<text text-anchor="middle" x="1309.5" y="-227.75" font-family="Helvetica,sans-Serif" font-size="10.00">__logger_refresh</text>
</a>
</g>
</g>
<!-- Node21&#45;&gt;Node22 -->
<g id="edge24_Node000021_Node000022" class="edge">
<title>Node21&#45;&gt;Node22</title>
<g id="a_edge24_Node000021_Node000022"><a xlink:title=" ">
<path fill="none" stroke="#63b8ff" d="M1209.45,-231.62C1223.33,-231.62 1238.94,-231.62 1253.6,-231.62"/>
<polygon fill="#63b8ff" stroke="#63b8ff" points="1253.58,-235.13 1263.58,-231.63 1253.58,-228.13 1253.58,-235.13"/>
</a>
</g>
</g>
<!-- Node27 -->
<g id="Node000027" class="node">
<title>Node27</title>
<g id="a_Node000027"><a xlink:href="../../d4/d02/str-buf_8c.html#a4a2eff2f7383d95c9ede6af667197566" target="_top" xlink:title=" ">
<polygon fill="white" stroke="#666666" points="350.62,-76.25 286.62,-76.25 286.62,-57 350.62,-57 350.62,-76.25"/>
<text text-anchor="middle" x="318.62" y="-62.75" font-family="Helvetica,sans-Serif" font-size="10.00">__sb_reset</text>
</a>
</g>
</g>
<!-- Node26&#45;&gt;Node27 -->
<g id="edge31_Node000026_Node000027" class="edge">
<title>Node26&#45;&gt;Node27</title>
<g id="a_edge31_Node000026_Node000027"><a xlink:title=" ">
<path fill="none" stroke="#63b8ff" d="M220.9,-74.55C236.48,-73.28 256.84,-71.61 274.87,-70.13"/>
<polygon fill="#63b8ff" stroke="#63b8ff" points="275.12,-73.62 284.8,-69.32 274.54,-66.64 275.12,-73.62"/>
</a>
</g>
</g>
<!-- Node28 -->
<g id="Node000028" class="node">
<title>Node28</title>
<g id="a_Node000028"><a xlink:href="../../d9/d9a/mem_8h.html#a3fd6d5b3dcb24f194848ce86f988fb13" target="_top" xlink:title=" ">
<polygon fill="white" stroke="#666666" points="472.38,-95.25 417.38,-95.25 417.38,-76 472.38,-76 472.38,-95.25"/>
<text text-anchor="middle" x="444.88" y="-81.75" font-family="Helvetica,sans-Serif" font-size="10.00">mp_ipool</text>
</a>
</g>
</g>
<!-- Node27&#45;&gt;Node28 -->
<g id="edge32_Node000027_Node000028" class="edge">
<title>Node27&#45;&gt;Node28</title>
<g id="a_edge32_Node000027_Node000028"><a xlink:title=" ">
<path fill="none" stroke="#63b8ff" d="M350.98,-71.42C367.65,-73.97 388.27,-77.12 405.85,-79.81"/>
<polygon fill="#63b8ff" stroke="#63b8ff" points="405.25,-83.26 415.67,-81.31 406.31,-76.34 405.25,-83.26"/>
</a>
</g>
</g>
<!-- Node29 -->
<g id="Node000029" class="node">
<title>Node29</title>
<g id="a_Node000029"><a xlink:href="../../dc/d31/str-buf_8h.html#a6dc2ca5bc1506b37f95463e6abe4e201" target="_top" xlink:title=" ">
<polygon fill="white" stroke="#666666" points="596.75,-38.25 534.25,-38.25 534.25,-19 596.75,-19 596.75,-38.25"/>
<text text-anchor="middle" x="565.5" y="-24.75" font-family="Helvetica,sans-Serif" font-size="10.00">sb_init_full</text>
</a>
</g>
</g>
<!-- Node27&#45;&gt;Node29 -->
<g id="edge33_Node000027_Node000029" class="edge">
<title>Node27&#45;&gt;Node29</title>
<g id="a_edge33_Node000027_Node000029"><a xlink:title=" ">
<path fill="none" stroke="#63b8ff" d="M350.64,-61.81C394.36,-55.03 474.23,-42.63 523.02,-35.06"/>
<polygon fill="#63b8ff" stroke="#63b8ff" points="523.28,-38.56 532.63,-33.57 522.21,-31.65 523.28,-38.56"/>
</a>
</g>
</g>
<!-- Node31 -->
<g id="Node000031" class="node">
<title>Node31</title>
<g id="a_Node000031"><a xlink:href="../../d4/d02/str-buf_8c.html#a7ab29759b9a4ccea4138a4f64031ce08" target="_top" xlink:title="Resets the buffer but keeps the allocated memory, however big it is.">
<polygon fill="white" stroke="#666666" points="498.25,-19.25 391.5,-19.25 391.5,0 498.25,0 498.25,-19.25"/>
<text text-anchor="middle" x="444.88" y="-5.75" font-family="Helvetica,sans-Serif" font-size="10.00">sb_reset_keep_mem</text>
</a>
</g>
</g>
<!-- Node27&#45;&gt;Node31 -->
<g id="edge35_Node000027_Node000031" class="edge">
<title>Node27&#45;&gt;Node31</title>
<g id="a_edge35_Node000027_Node000031"><a xlink:title=" ">
<path fill="none" stroke="#63b8ff" d="M341.64,-56.51C355.87,-49.98 374.78,-41.3 391.5,-33.62 398.06,-30.61 405.09,-27.39 411.8,-24.32"/>
<polygon fill="#63b8ff" stroke="#63b8ff" points="412.95,-27.64 420.58,-20.29 410.03,-21.28 412.95,-27.64"/>
</a>
</g>
</g>
<!-- Node30 -->
<g id="Node000030" class="node">
<title>Node30</title>
<g id="a_Node000030"><a xlink:href="../../dc/d31/str-buf_8h.html#a01c1a4f8ed76b6a919595b803c7d7376" target="_top" xlink:title=" ">
<polygon fill="white" stroke="#666666" points="717,-38.25 632.75,-38.25 632.75,-19 717,-19 717,-38.25"/>
<text text-anchor="middle" x="674.88" y="-24.75" font-family="Helvetica,sans-Serif" font-size="10.00">sb_set_trailing0</text>
</a>
</g>
</g>
<!-- Node29&#45;&gt;Node30 -->
<g id="edge34_Node000029_Node000030" class="edge">
<title>Node29&#45;&gt;Node30</title>
<g id="a_edge34_Node000029_Node000030"><a xlink:title=" ">
<path fill="none" stroke="#63b8ff" d="M596.98,-28.62C604.57,-28.62 612.92,-28.62 621.24,-28.62"/>
<polygon fill="#63b8ff" stroke="#63b8ff" points="620.98,-32.13 630.98,-28.63 620.98,-25.13 620.98,-32.13"/>
</a>
</g>
</g>
<!-- Node31&#45;&gt;Node29 -->
<g id="edge36_Node000031_Node000029" class="edge">
<title>Node31&#45;&gt;Node29</title>
<g id="a_edge36_Node000031_Node000029"><a xlink:title=" ">
<path fill="none" stroke="#63b8ff" d="M498.6,-18.07C506.75,-19.37 515.06,-20.71 522.92,-21.97"/>
<polygon fill="#63b8ff" stroke="#63b8ff" points="522.11,-25.38 532.54,-23.51 523.22,-18.47 522.11,-25.38"/>
</a>
</g>
</g>
</g>
</svg>

<g id="navigator" transform="translate(0 0)" fill="#404254">
  <rect fill="#f2f5e9" fill-opacity="0.5" stroke="#606060" stroke-width=".5" x="0" y="0" width="60" height="60"/>
  <use id="zoomplus" xlink:href="#zoomPlus" x="17" y="9" onmousedown="handleZoom(evt,'in')"/>
  <use id="zoomminus" xlink:href="#zoomMin" x="42" y="9" onmousedown="handleZoom(evt,'out')"/>
  <use id="reset" xlink:href="#resetDef" x="30" y="36" onmousedown="handleReset()"/>
   <use id="arrowup" xlink:href="#arrowUp" x="0" y="0" onmousedown="handlePan(0,-1)"/>
  <use id="arrowright" xlink:href="#arrowRight" x="0" y="0" onmousedown="handlePan(1,0)"/>
  <use id="arrowdown" xlink:href="#arrowDown" x="0" y="0" onmousedown="handlePan(0,1)"/>
  <use id="arrowleft" xlink:href="#arrowLeft" x="0" y="0" onmousedown="handlePan(-1,0)"/>
</g>
<svg viewBox="0 0 15 15" width="100%" height="30px" preserveAspectRatio="xMaxYMin meet">
 <g id="arrow_out" transform="scale(0.3 0.3)">
  <a xlink:href="sctp-tools_8c_a6703e6f56996e10df7d07f660e0f2a03_cgraph_org.svg" target="_base">
   <rect id="button" ry="5" rx="5" y="6" x="6" height="38" width="38"
        fill="#f2f5e9" fill-opacity="0.5" stroke="#606060" stroke-width="1.0"/>
   <path id="arrow"
     d="M 11.500037,31.436501 C 11.940474,20.09759 22.043105,11.32322 32.158766,21.979434 L 37.068811,17.246167 C 37.068811,17.246167 37.088388,32 37.088388,32 L 22.160133,31.978069 C 22.160133,31.978069 26.997745,27.140456 26.997745,27.140456 C 18.528582,18.264221 13.291696,25.230495 11.500037,31.436501 z"
     style="fill:#404040;"/>
  </a>
 </g>
</svg>

<style type='text/css'>
<![CDATA[
[data-mouse-over-selected='false'] { opacity: 0.7; }
[data-mouse-over-selected='true']  { opacity: 1.0; }
]]>
</style>
<script type="application/ecmascript"><![CDATA[
document.addEventListener('DOMContentLoaded', (event) => {
  highlightEdges();
  highlightAdjacentNodes();
});
]]></script>
</svg>
