<?xml version="1.0" encoding="UTF-8" standalone="no"?>
<!DOCTYPE svg PUBLIC "-//W3C//DTD SVG 1.1//EN"
 "http://www.w3.org/Graphics/SVG/1.1/DTD/svg11.dtd">
<!-- Generated by graphviz version 9.0.0 (20230911.1827)
 -->
<!-- Title: thr_ctor Pages: 1 -->
<svg width="98pt" height="153pt"
 viewBox="0.00 0.00 97.75 153.25" xmlns="http://www.w3.org/2000/svg" xmlns:xlink="http://www.w3.org/1999/xlink">

<svg id="main" version="1.1" xmlns="http://www.w3.org/2000/svg" xmlns:xlink="http://www.w3.org/1999/xlink" xml:space="preserve" onload="init(evt)">
<style type="text/css"><![CDATA[
.node, .edge {opacity: 0.7;}
.node.selected, .edge.selected {opacity: 1;}
.edge:hover path { stroke: red; }
.edge:hover polygon { stroke: red; fill: red; }
]]></style>
<script type="application/ecmascript" xlink:href="../../svg.min.js"/>
<svg id="graph" class="graph">
<g id="graph0" class="graph" transform="scale(1 1) rotate(0) translate(4 149.25)">
<title>thr_ctor</title>
<!-- Node1 -->
<g id="Node000001" class="node">
<title>Node1</title>
<g id="a_Node000001"><a xlink:title=" ">
<polygon fill="#999999" stroke="none" points="55,-49 0,-49 0,0 55,0 55,-49"/>
<text text-anchor="start" x="11" y="-35.5" font-family="Helvetica,sans-Serif" font-size="10.00">thr_ctor</text>
<text text-anchor="start" x="4" y="-20.5" font-family="Helvetica,sans-Serif" font-size="10.00">+</text>
<text text-anchor="start" x="14" y="-20.5" font-family="Helvetica,sans-Serif" font-size="10.00">void(* cb</text>
<text text-anchor="start" x="26" y="-5.5" font-family="Helvetica,sans-Serif" font-size="10.00"> </text>
<polygon fill="#666666" stroke="#666666" points="0,-32 0,-32 55,-32 55,-32 0,-32"/>
<polygon fill="#666666" stroke="#666666" points="0,-17 0,-17 12,-17 12,-17 0,-17"/>
<polygon fill="#666666" stroke="#666666" points="12,-17 12,-17 55,-17 55,-17 12,-17"/>
<polygon fill="none" stroke="#666666" points="0,0 0,-49 55,-49 55,0 0,0"/>
</a>
</g>
</g>
<!-- Node2 -->
<g id="Node000002" class="node">
<title>Node2</title>
<g id="a_Node000002"><a xlink:href="../../db/ddb/structdlist__t.html" target="_top" xlink:title=" ">
<polygon fill="white" stroke="none" points="45.5,-145.25 9.5,-145.25 9.5,-96.25 45.5,-96.25 45.5,-145.25"/>
<text text-anchor="start" x="14.38" y="-131.75" font-family="Helvetica,sans-Serif" font-size="10.00">dlist_t</text>
<text text-anchor="start" x="26" y="-116.75" font-family="Helvetica,sans-Serif" font-size="10.00"> </text>
<text text-anchor="start" x="26" y="-101.75" font-family="Helvetica,sans-Serif" font-size="10.00"> </text>
<polygon fill="#666666" stroke="#666666" points="9.5,-128.25 9.5,-128.25 45.5,-128.25 45.5,-128.25 9.5,-128.25"/>
<polygon fill="#666666" stroke="#666666" points="9.5,-113.25 9.5,-113.25 45.5,-113.25 45.5,-113.25 9.5,-113.25"/>
<polygon fill="none" stroke="#666666" points="9.5,-96.25 9.5,-145.25 45.5,-145.25 45.5,-96.25 9.5,-96.25"/>
</a>
</g>
</g>
<!-- Node2&#45;&gt;Node1 -->
<g id="edge1_Node000001_Node000002" class="edge">
<title>Node2&#45;&gt;Node1</title>
<g id="a_edge1_Node000001_Node000002"><a xlink:title=" ">
<path fill="none" stroke="#63b8ff" d="M27.5,-96.45C27.5,-86.03 27.5,-73.5 27.5,-61.89"/>
<polygon fill="none" stroke="#63b8ff" points="27.5,-61.76 23.5,-55.76 27.5,-49.76 31.5,-55.76 27.5,-61.76"/>
</a>
</g>
<text text-anchor="middle" x="39.12" y="-68.75" font-family="Helvetica,sans-Serif" font-size="10.00" fill="grey"> +link</text>
</g>
<!-- Node2&#45;&gt;Node2 -->
<g id="edge2_Node000002_Node000002" class="edge">
<title>Node2&#45;&gt;Node2</title>
<g id="a_edge2_Node000002_Node000002"><a xlink:title=" ">
<path fill="none" stroke="#63b8ff" d="M45.28,-129.4C54.81,-130.87 63.5,-127.99 63.5,-120.75 63.5,-117.24 61.46,-114.76 58.28,-113.3"/>
<polygon fill="none" stroke="#63b8ff" points="58.13,-113.28 51.79,-116.72 46.18,-112.18 52.52,-108.75 58.13,-113.28"/>
</a>
</g>
<text text-anchor="middle" x="76.62" y="-122.5" font-family="Helvetica,sans-Serif" font-size="10.00" fill="grey"> +next</text>
<text text-anchor="middle" x="76.62" y="-111.25" font-family="Helvetica,sans-Serif" font-size="10.00" fill="grey">+prev</text>
</g>
</g>
</svg>
</svg>

<style type='text/css'>
<![CDATA[
[data-mouse-over-selected='false'] { opacity: 0.7; }
[data-mouse-over-selected='true']  { opacity: 1.0; }
]]>
</style>
<script type="application/ecmascript"><![CDATA[
document.addEventListener('DOMContentLoaded', (event) => {
  highlightEdges();
  highlightAdjacentNodes();
});
]]></script>
</svg>
