<?xml version="1.0" encoding="UTF-8" standalone="no"?>
<!DOCTYPE svg PUBLIC "-//W3C//DTD SVG 1.1//EN"
 "http://www.w3.org/Graphics/SVG/1.1/DTD/svg11.dtd">
<!-- Generated by graphviz version 9.0.0 (20230911.1827)
 -->
<!-- Title: mem_page_new Pages: 1 -->
<svg width="595pt" height="83pt"
 viewBox="0.00 0.00 594.75 83.25" xmlns="http://www.w3.org/2000/svg" xmlns:xlink="http://www.w3.org/1999/xlink">
<g id="graph0" class="graph" transform="scale(1 1) rotate(0) translate(4 79.25)">
<title>mem_page_new</title>
<!-- Node1 -->
<g id="Node000001" class="node">
<title>Node1</title>
<g id="a_Node000001"><a xlink:title=" ">
<polygon fill="#999999" stroke="#666666" points="87.25,-56.25 0,-56.25 0,-37 87.25,-37 87.25,-56.25"/>
<text text-anchor="middle" x="43.62" y="-42.75" font-family="Helvetica,sans-Serif" font-size="10.00">mem_page_new</text>
</a>
</g>
</g>
<!-- Node2 -->
<g id="Node000002" class="node">
<title>Node2</title>
<g id="a_Node000002"><a xlink:href="../../d1/d4a/mem-bench_8c.html#a894543a053d7df18c74fa43be618b84f" target="_top" xlink:title="Manually dump fields.">
<polygon fill="white" stroke="#666666" points="412.5,-75.25 298.25,-75.25 298.25,-56 412.5,-56 412.5,-75.25"/>
<text text-anchor="middle" x="355.38" y="-61.75" font-family="Helvetica,sans-Serif" font-size="10.00">mem_bench_print_csv</text>
</a>
</g>
</g>
<!-- Node1&#45;&gt;Node2 -->
<g id="edge1_Node000001_Node000002" class="edge">
<title>Node1&#45;&gt;Node2</title>
<g id="a_edge1_Node000001_Node000002"><a xlink:title=" ">
<path fill="none" stroke="#63b8ff" d="M78.75,-56.74C92.45,-60.3 108.47,-63.86 123.25,-65.62 177.98,-72.14 240.52,-71.67 286.73,-69.83"/>
<polygon fill="#63b8ff" stroke="#63b8ff" points="286.76,-73.33 296.6,-69.4 286.46,-66.33 286.76,-73.33"/>
</a>
</g>
</g>
<!-- Node4 -->
<g id="Node000004" class="node">
<title>Node4</title>
<g id="a_Node000004"><a xlink:href="../../d1/d4a/mem-bench_8c.html#a107076f5f573e8b183ee8ad5d1be866c" target="_top" xlink:title="Update state of the mem&#45;bench object.">
<polygon fill="white" stroke="#666666" points="244.62,-56.25 140.88,-56.25 140.88,-37 244.62,-37 244.62,-56.25"/>
<text text-anchor="middle" x="192.75" y="-42.75" font-family="Helvetica,sans-Serif" font-size="10.00">mem_bench_update</text>
</a>
</g>
</g>
<!-- Node1&#45;&gt;Node4 -->
<g id="edge3_Node000001_Node000004" class="edge">
<title>Node1&#45;&gt;Node4</title>
<g id="a_edge3_Node000001_Node000004"><a xlink:title=" ">
<path fill="none" stroke="#63b8ff" d="M87.58,-46.62C100.63,-46.62 115.24,-46.62 129.3,-46.62"/>
<polygon fill="#63b8ff" stroke="#63b8ff" points="128.9,-50.13 138.9,-46.63 128.9,-43.13 128.9,-50.13"/>
</a>
</g>
</g>
<!-- Node5 -->
<g id="Node000005" class="node">
<title>Node5</title>
<g id="a_Node000005"><a xlink:href="../../d8/d37/mem_8blk.html#a194c1be7b1e9d2742e6c11ea6fed3790" target="_top" xlink:title=" ">
<polygon fill="white" stroke="#666666" points="262.25,-19.25 123.25,-19.25 123.25,0 262.25,0 262.25,-19.25"/>
<text text-anchor="middle" x="192.75" y="-5.75" font-family="Helvetica,sans-Serif" font-size="10.00">mem_tool_disallow_memory</text>
</a>
</g>
</g>
<!-- Node1&#45;&gt;Node5 -->
<g id="edge5_Node000001_Node000005" class="edge">
<title>Node1&#45;&gt;Node5</title>
<g id="a_edge5_Node000001_Node000005"><a xlink:title=" ">
<path fill="none" stroke="#63b8ff" d="M84.83,-36.51C102.02,-32.19 122.29,-27.09 140.54,-22.5"/>
<polygon fill="#63b8ff" stroke="#63b8ff" points="141.28,-25.93 150.13,-20.09 139.58,-19.14 141.28,-25.93"/>
</a>
</g>
</g>
<!-- Node3 -->
<g id="Node000003" class="node">
<title>Node3</title>
<g id="a_Node000003"><a xlink:href="../../d1/d4a/mem-bench_8c.html#abc263411cfd81a45b3c42b71eb24d3f2" target="_top" xlink:title=" ">
<polygon fill="white" stroke="#666666" points="586.75,-75.25 448.5,-75.25 448.5,-56 586.75,-56 586.75,-75.25"/>
<text text-anchor="middle" x="517.62" y="-61.75" font-family="Helvetica,sans-Serif" font-size="10.00">mem_bench_print_func_csv</text>
</a>
</g>
</g>
<!-- Node2&#45;&gt;Node3 -->
<g id="edge2_Node000002_Node000003" class="edge">
<title>Node2&#45;&gt;Node3</title>
<g id="a_edge2_Node000002_Node000003"><a xlink:title=" ">
<path fill="none" stroke="#63b8ff" d="M412.87,-65.62C420.65,-65.62 428.76,-65.62 436.86,-65.62"/>
<polygon fill="#63b8ff" stroke="#63b8ff" points="436.76,-69.13 446.76,-65.63 436.76,-62.13 436.76,-69.13"/>
</a>
</g>
</g>
<!-- Node4&#45;&gt;Node2 -->
<g id="edge4_Node000004_Node000002" class="edge">
<title>Node4&#45;&gt;Node2</title>
<g id="a_edge4_Node000004_Node000002"><a xlink:title=" ">
<path fill="none" stroke="#63b8ff" d="M245.01,-52.69C258.27,-54.26 272.75,-55.97 286.71,-57.62"/>
<polygon fill="#63b8ff" stroke="#63b8ff" points="285.91,-61.05 296.25,-58.75 286.73,-54.1 285.91,-61.05"/>
</a>
</g>
</g>
</g>
</svg>
