<?xml version="1.0" encoding="UTF-8" standalone="no"?>
<!DOCTYPE svg PUBLIC "-//W3C//DTD SVG 1.1//EN"
 "http://www.w3.org/Graphics/SVG/1.1/DTD/svg11.dtd">
<!-- Generated by graphviz version 9.0.0 (20230911.1827)
 -->
<!-- Title: iopc&#45;parser.c Pages: 1 -->
<svg width="340pt" height="193pt"
 viewBox="0.00 0.00 340.00 193.00" xmlns="http://www.w3.org/2000/svg" xmlns:xlink="http://www.w3.org/1999/xlink">
<g id="graph0" class="graph" transform="scale(1 1) rotate(0) translate(4 189)">
<title>iopc&#45;parser.c</title>
<!-- Node1 -->
<g id="Node000001" class="node">
<title>Node1</title>
<g id="a_Node000001"><a xlink:title=" ">
<polygon fill="#999999" stroke="#666666" points="258,-185 186.5,-185 186.5,-165.75 258,-165.75 258,-185"/>
<text text-anchor="middle" x="222.25" y="-171.5" font-family="Helvetica,sans-Serif" font-size="10.00">iopc&#45;parser.c</text>
</a>
</g>
</g>
<!-- Node2 -->
<g id="Node000002" class="node">
<title>Node2</title>
<g id="a_Node000002"><a xlink:href="../../d5/df1/iopc-priv_8h.html" target="_top" xlink:title=" ">
<polygon fill="white" stroke="#666666" points="210.38,-129.75 150.12,-129.75 150.12,-110.5 210.38,-110.5 210.38,-129.75"/>
<text text-anchor="middle" x="180.25" y="-116.25" font-family="Helvetica,sans-Serif" font-size="10.00">iopc&#45;priv.h</text>
</a>
</g>
</g>
<!-- Node1&#45;&gt;Node2 -->
<g id="edge1_Node000001_Node000002" class="edge">
<title>Node1&#45;&gt;Node2</title>
<g id="a_edge1_Node000001_Node000002"><a xlink:title=" ">
<path fill="none" stroke="#63b8ff" d="M215.31,-165.58C209.63,-158.38 201.41,-147.96 194.36,-139.01"/>
<polygon fill="#63b8ff" stroke="#63b8ff" points="197.21,-136.98 188.27,-131.3 191.72,-141.32 197.21,-136.98"/>
</a>
</g>
</g>
<!-- Node7 -->
<g id="Node000007" class="node">
<title>Node7</title>
<g id="a_Node000007"><a xlink:href="../../d1/dcc/iopctokens_8h.html" target="_top" xlink:title=" ">
<polygon fill="white" stroke="#666666" points="300.62,-129.75 229.88,-129.75 229.88,-110.5 300.62,-110.5 300.62,-129.75"/>
<text text-anchor="middle" x="265.25" y="-116.25" font-family="Helvetica,sans-Serif" font-size="10.00">iopctokens.h</text>
</a>
</g>
</g>
<!-- Node1&#45;&gt;Node7 -->
<g id="edge6_Node000001_Node000007" class="edge">
<title>Node1&#45;&gt;Node7</title>
<g id="a_edge6_Node000001_Node000007"><a xlink:title=" ">
<path fill="none" stroke="#63b8ff" d="M229.35,-165.58C235.17,-158.38 243.58,-147.96 250.81,-139.01"/>
<polygon fill="#63b8ff" stroke="#63b8ff" points="253.48,-141.27 257.04,-131.29 248.04,-136.87 253.48,-141.27"/>
</a>
</g>
</g>
<!-- Node3 -->
<g id="Node000003" class="node">
<title>Node3</title>
<g id="a_Node000003"><a xlink:href="../../d0/dc5/iopc_8h.html" target="_top" xlink:title=" ">
<polygon fill="white" stroke="#666666" points="200,-74.5 158.5,-74.5 158.5,-55.25 200,-55.25 200,-74.5"/>
<text text-anchor="middle" x="179.25" y="-61" font-family="Helvetica,sans-Serif" font-size="10.00">iopc.h</text>
</a>
</g>
</g>
<!-- Node2&#45;&gt;Node3 -->
<g id="edge2_Node000002_Node000003" class="edge">
<title>Node2&#45;&gt;Node3</title>
<g id="a_edge2_Node000002_Node000003"><a xlink:title=" ">
<path fill="none" stroke="#63b8ff" d="M180.08,-110.33C179.96,-103.82 179.79,-94.67 179.63,-86.37"/>
<polygon fill="#63b8ff" stroke="#63b8ff" points="183.13,-86.3 179.45,-76.37 176.14,-86.44 183.13,-86.3"/>
</a>
</g>
</g>
<!-- Node4 -->
<g id="Node000004" class="node">
<title>Node4</title>
<g id="a_Node000004"><a xlink:title=" ">
<polygon fill="#e0e0e0" stroke="#999999" points="116.5,-19.25 0,-19.25 0,0 116.5,0 116.5,-19.25"/>
<text text-anchor="middle" x="58.25" y="-5.75" font-family="Helvetica,sans-Serif" font-size="10.00">lib&#45;common/container.h</text>
</a>
</g>
</g>
<!-- Node3&#45;&gt;Node4 -->
<g id="edge3_Node000003_Node000004" class="edge">
<title>Node3&#45;&gt;Node4</title>
<g id="a_edge3_Node000003_Node000004"><a xlink:title=" ">
<path fill="none" stroke="#63b8ff" d="M158.72,-54.84C139.69,-46.47 111.1,-33.88 89.28,-24.28"/>
<polygon fill="#63b8ff" stroke="#63b8ff" points="90.82,-21.14 80.26,-20.31 88.01,-27.54 90.82,-21.14"/>
</a>
</g>
</g>
<!-- Node5 -->
<g id="Node000005" class="node">
<title>Node5</title>
<g id="a_Node000005"><a xlink:title=" ">
<polygon fill="#e0e0e0" stroke="#999999" points="224,-19.25 134.5,-19.25 134.5,0 224,0 224,-19.25"/>
<text text-anchor="middle" x="179.25" y="-5.75" font-family="Helvetica,sans-Serif" font-size="10.00">lib&#45;common/iop.h</text>
</a>
</g>
</g>
<!-- Node3&#45;&gt;Node5 -->
<g id="edge4_Node000003_Node000005" class="edge">
<title>Node3&#45;&gt;Node5</title>
<g id="a_edge4_Node000003_Node000005"><a xlink:title=" ">
<path fill="none" stroke="#63b8ff" d="M179.25,-55.08C179.25,-48.57 179.25,-39.42 179.25,-31.12"/>
<polygon fill="#63b8ff" stroke="#63b8ff" points="182.75,-31.12 179.25,-21.12 175.75,-31.12 182.75,-31.12"/>
</a>
</g>
</g>
<!-- Node6 -->
<g id="Node000006" class="node">
<title>Node6</title>
<g id="a_Node000006"><a xlink:title=" ">
<polygon fill="#e0e0e0" stroke="#999999" points="332,-19.25 242.5,-19.25 242.5,0 332,0 332,-19.25"/>
<text text-anchor="middle" x="287.25" y="-5.75" font-family="Helvetica,sans-Serif" font-size="10.00">lib&#45;common/log.h</text>
</a>
</g>
</g>
<!-- Node3&#45;&gt;Node6 -->
<g id="edge5_Node000003_Node000006" class="edge">
<title>Node3&#45;&gt;Node6</title>
<g id="a_edge5_Node000003_Node000006"><a xlink:title=" ">
<path fill="none" stroke="#63b8ff" d="M197.57,-54.84C214.33,-46.58 239.38,-34.23 258.75,-24.68"/>
<polygon fill="#63b8ff" stroke="#63b8ff" points="260.06,-27.93 267.48,-20.37 256.97,-21.65 260.06,-27.93"/>
</a>
</g>
</g>
<!-- Node8 -->
<g id="Node000008" class="node">
<title>Node8</title>
<g id="a_Node000008"><a xlink:title=" ">
<polygon fill="#e0e0e0" stroke="#999999" points="314,-74.5 218.5,-74.5 218.5,-55.25 314,-55.25 314,-74.5"/>
<text text-anchor="middle" x="266.25" y="-61" font-family="Helvetica,sans-Serif" font-size="10.00">lib&#45;common/core.h</text>
</a>
</g>
</g>
<!-- Node7&#45;&gt;Node8 -->
<g id="edge7_Node000007_Node000008" class="edge">
<title>Node7&#45;&gt;Node8</title>
<g id="a_edge7_Node000007_Node000008"><a xlink:title=" ">
<path fill="none" stroke="#63b8ff" d="M265.42,-110.33C265.54,-103.82 265.71,-94.67 265.87,-86.37"/>
<polygon fill="#63b8ff" stroke="#63b8ff" points="269.36,-86.44 266.05,-76.37 262.37,-86.3 269.36,-86.44"/>
</a>
</g>
</g>
</g>
</svg>
