<?xml version="1.0" encoding="UTF-8" standalone="no"?>
<!DOCTYPE svg PUBLIC "-//W3C//DTD SVG 1.1//EN"
 "http://www.w3.org/Graphics/SVG/1.1/DTD/svg11.dtd">
<!-- Generated by graphviz version 9.0.0 (20230911.1827)
 -->
<!-- Title: aper_check_int_root_constraints Pages: 1 -->
<svg width="1303pt" height="165pt"
 viewBox="0.00 0.00 1303.25 165.25" xmlns="http://www.w3.org/2000/svg" xmlns:xlink="http://www.w3.org/1999/xlink">
<g id="graph0" class="graph" transform="scale(1 1) rotate(0) translate(4 161.25)">
<title>aper_check_int_root_constraints</title>
<!-- Node1 -->
<g id="Node000001" class="node">
<title>Node1</title>
<g id="a_Node000001"><a xlink:title=" ">
<polygon fill="#999999" stroke="#666666" points="1295.25,-42.88 1191.5,-42.88 1191.5,-12.37 1295.25,-12.37 1295.25,-42.88"/>
<text text-anchor="start" x="1199.5" y="-29.38" font-family="Helvetica,sans-Serif" font-size="10.00">aper_check_int_root</text>
<text text-anchor="middle" x="1243.38" y="-18.12" font-family="Helvetica,sans-Serif" font-size="10.00">_constraints</text>
</a>
</g>
</g>
<!-- Node2 -->
<g id="Node000002" class="node">
<title>Node2</title>
<g id="a_Node000002"><a xlink:href="../../db/dfd/per_8c.html#a27a2863dd2208ceda62fabc8626b783f" target="_top" xlink:title=" ">
<polygon fill="white" stroke="#666666" points="1155.5,-56.25 1046.5,-56.25 1046.5,-37 1155.5,-37 1155.5,-56.25"/>
<text text-anchor="middle" x="1101" y="-42.75" font-family="Helvetica,sans-Serif" font-size="10.00">aper_decode_number</text>
</a>
</g>
</g>
<!-- Node1&#45;&gt;Node2 -->
<g id="edge1_Node000001_Node000002" class="edge">
<title>Node1&#45;&gt;Node2</title>
<g id="a_edge1_Node000001_Node000002"><a xlink:title=" ">
<path fill="none" stroke="#63b8ff" d="M1179.96,-36.07C1171.85,-37.17 1163.59,-38.29 1155.64,-39.37"/>
<polygon fill="#63b8ff" stroke="#63b8ff" points="1180.36,-39.55 1189.8,-34.74 1179.42,-32.61 1180.36,-39.55"/>
</a>
</g>
</g>
<!-- Node12 -->
<g id="Node000012" class="node">
<title>Node12</title>
<g id="a_Node000012"><a xlink:href="../../db/dfd/per_8c.html#a0ae52d120919421cdf481f700eb3cf02" target="_top" xlink:title=" ">
<polygon fill="white" stroke="#666666" points="1155.5,-19.25 1046.5,-19.25 1046.5,0 1155.5,0 1155.5,-19.25"/>
<text text-anchor="middle" x="1101" y="-5.75" font-family="Helvetica,sans-Serif" font-size="10.00">aper_encode_number</text>
</a>
</g>
</g>
<!-- Node1&#45;&gt;Node12 -->
<g id="edge14_Node000001_Node000012" class="edge">
<title>Node1&#45;&gt;Node12</title>
<g id="a_edge14_Node000001_Node000012"><a xlink:title=" ">
<path fill="none" stroke="#63b8ff" d="M1179.96,-19.62C1171.85,-18.58 1163.59,-17.52 1155.64,-16.5"/>
<polygon fill="#63b8ff" stroke="#63b8ff" points="1179.43,-23.08 1189.8,-20.88 1180.32,-16.14 1179.43,-23.08"/>
</a>
</g>
</g>
<!-- Node3 -->
<g id="Node000003" class="node">
<title>Node3</title>
<g id="a_Node000003"><a xlink:href="../../db/dfd/per_8c.html#a991155f9de8c848cfac2f27f75b9801e" target="_top" xlink:title=" ">
<polygon fill="white" stroke="#666666" points="1010.5,-56.25 909.75,-56.25 909.75,-37 1010.5,-37 1010.5,-56.25"/>
<text text-anchor="middle" x="960.12" y="-42.75" font-family="Helvetica,sans-Serif" font-size="10.00">aper_decode_enum</text>
</a>
</g>
</g>
<!-- Node2&#45;&gt;Node3 -->
<g id="edge2_Node000002_Node000003" class="edge">
<title>Node2&#45;&gt;Node3</title>
<g id="a_edge2_Node000002_Node000003"><a xlink:title=" ">
<path fill="none" stroke="#63b8ff" d="M1034.86,-46.62C1026.7,-46.62 1018.45,-46.62 1010.58,-46.62"/>
<polygon fill="#63b8ff" stroke="#63b8ff" points="1034.79,-50.13 1044.79,-46.63 1034.79,-43.13 1034.79,-50.13"/>
</a>
</g>
</g>
<!-- Node4 -->
<g id="Node000004" class="node">
<title>Node4</title>
<g id="a_Node000004"><a xlink:href="../../db/dfd/per_8c.html#ad241b250dff184dcd0a44ca475aaf70e" target="_top" xlink:title=" ">
<polygon fill="white" stroke="#666666" points="873.75,-56.25 765.5,-56.25 765.5,-37 873.75,-37 873.75,-56.25"/>
<text text-anchor="middle" x="819.62" y="-42.75" font-family="Helvetica,sans-Serif" font-size="10.00">t_aper_decode_value</text>
</a>
</g>
</g>
<!-- Node3&#45;&gt;Node4 -->
<g id="edge3_Node000003_Node000004" class="edge">
<title>Node3&#45;&gt;Node4</title>
<g id="a_edge3_Node000003_Node000004"><a xlink:title=" ">
<path fill="none" stroke="#63b8ff" d="M898,-46.62C890.04,-46.62 881.93,-46.62 874.11,-46.62"/>
<polygon fill="#63b8ff" stroke="#63b8ff" points="898,-50.13 908,-46.63 898,-43.13 898,-50.13"/>
</a>
</g>
</g>
<!-- Node5 -->
<g id="Node000005" class="node">
<title>Node5</title>
<g id="a_Node000005"><a xlink:href="../../db/dfd/per_8c.html#adedfcb81b5e27cfaa3679c443107fd60" target="_top" xlink:title=" ">
<polygon fill="white" stroke="#666666" points="729.5,-96.25 627.25,-96.25 627.25,-77 729.5,-77 729.5,-96.25"/>
<text text-anchor="middle" x="678.38" y="-82.75" font-family="Helvetica,sans-Serif" font-size="10.00">t_aper_decode_field</text>
</a>
</g>
</g>
<!-- Node4&#45;&gt;Node5 -->
<g id="edge4_Node000004_Node000005" class="edge">
<title>Node4&#45;&gt;Node5</title>
<g id="a_edge4_Node000004_Node000005"><a xlink:title=" ">
<path fill="none" stroke="#63b8ff" d="M772.42,-59.9C753.54,-65.32 732.06,-71.49 714.5,-76.53"/>
<polygon fill="#63b8ff" stroke="#63b8ff" points="773.39,-63.26 782.03,-57.14 771.45,-56.53 773.39,-63.26"/>
</a>
</g>
</g>
<!-- Node6 -->
<g id="Node000006" class="node">
<title>Node6</title>
<g id="a_Node000006"><a xlink:href="../../db/dfd/per_8c.html#a6e95f8cdc72c7432a7773ca9db9bfca2" target="_top" xlink:title=" ">
<polygon fill="white" stroke="#666666" points="427.88,-157.25 314.38,-157.25 314.38,-138 427.88,-138 427.88,-157.25"/>
<text text-anchor="middle" x="371.12" y="-143.75" font-family="Helvetica,sans-Serif" font-size="10.00">t_aper_decode_choice</text>
</a>
</g>
</g>
<!-- Node5&#45;&gt;Node6 -->
<g id="edge5_Node000005_Node000006" class="edge">
<title>Node5&#45;&gt;Node6</title>
<g id="a_edge5_Node000005_Node000006"><a xlink:title=" ">
<path fill="none" stroke="#63b8ff" d="M653.79,-102.75C637.11,-113.25 613.78,-126.16 591.25,-132.62 537.37,-148.09 473.12,-150.74 428.17,-150.19"/>
<polygon fill="#63b8ff" stroke="#63b8ff" points="655.5,-105.81 661.98,-97.43 651.69,-99.94 655.5,-105.81"/>
</a>
</g>
</g>
<!-- Node9 -->
<g id="Node000009" class="node">
<title>Node9</title>
<g id="a_Node000009"><a xlink:href="../../db/dfd/per_8c.html#a73f9c9a06039b6798b47b73b8cc274c0" target="_top" xlink:title=" ">
<polygon fill="white" stroke="#666666" points="584.88,-123.88 470.62,-123.88 470.62,-93.38 584.88,-93.38 584.88,-123.88"/>
<text text-anchor="start" x="478.62" y="-110.38" font-family="Helvetica,sans-Serif" font-size="10.00">t_aper_decode_seq_of</text>
<text text-anchor="middle" x="527.75" y="-99.12" font-family="Helvetica,sans-Serif" font-size="10.00">_fields</text>
</a>
</g>
</g>
<!-- Node5&#45;&gt;Node9 -->
<g id="edge9_Node000005_Node000009" class="edge">
<title>Node5&#45;&gt;Node9</title>
<g id="a_edge9_Node000005_Node000009"><a xlink:title=" ">
<path fill="none" stroke="#63b8ff" d="M615.78,-95.74C605.64,-97.24 595.16,-98.79 585.15,-100.28"/>
<polygon fill="#63b8ff" stroke="#63b8ff" points="616.18,-99.22 625.56,-94.29 615.16,-92.3 616.18,-99.22"/>
</a>
</g>
</g>
<!-- Node11 -->
<g id="Node000011" class="node">
<title>Node11</title>
<g id="a_Node000011"><a xlink:href="../../db/dfd/per_8c.html#a21384fcb7cf727f5e2e124c51b614075" target="_top" xlink:title=" ">
<polygon fill="white" stroke="#666666" points="591.25,-75.25 464.25,-75.25 464.25,-56 591.25,-56 591.25,-75.25"/>
<text text-anchor="middle" x="527.75" y="-61.75" font-family="Helvetica,sans-Serif" font-size="10.00">t_aper_decode_sequence</text>
</a>
</g>
</g>
<!-- Node5&#45;&gt;Node11 -->
<g id="edge12_Node000005_Node000011" class="edge">
<title>Node5&#45;&gt;Node11</title>
<g id="a_edge12_Node000005_Node000011"><a xlink:title=" ">
<path fill="none" stroke="#63b8ff" d="M615.91,-77.94C607.91,-76.81 599.7,-75.65 591.67,-74.51"/>
<polygon fill="#63b8ff" stroke="#63b8ff" points="615.17,-81.37 625.56,-79.3 616.15,-74.44 615.17,-81.37"/>
</a>
</g>
</g>
<!-- Node7 -->
<g id="Node000007" class="node">
<title>Node7</title>
<g id="a_Node000007"><a xlink:href="../../db/dfd/per_8c.html#a1f1e087bcc1964a0347044fce93f6a7c" target="_top" xlink:title=" ">
<polygon fill="white" stroke="#666666" points="278,-96.25 142,-96.25 142,-77 278,-77 278,-96.25"/>
<text text-anchor="middle" x="210" y="-82.75" font-family="Helvetica,sans-Serif" font-size="10.00">t_aper_decode_constructed</text>
</a>
</g>
</g>
<!-- Node6&#45;&gt;Node7 -->
<g id="edge6_Node000006_Node000007" class="edge">
<title>Node6&#45;&gt;Node7</title>
<g id="a_edge6_Node000006_Node000007"><a xlink:title=" ">
<path fill="none" stroke="#63b8ff" d="M333.19,-133.46C303.82,-122.21 263.47,-106.74 237.32,-96.71"/>
<polygon fill="#63b8ff" stroke="#63b8ff" points="331.85,-136.7 342.44,-137.01 334.35,-130.16 331.85,-136.7"/>
</a>
</g>
</g>
<!-- Node7&#45;&gt;Node4 -->
<g id="edge8_Node000007_Node000004" class="edge">
<title>Node7&#45;&gt;Node4</title>
<g id="a_edge8_Node000007_Node000004"><a xlink:title=" ">
<path fill="none" stroke="#63b8ff" d="M274.57,-74.45C287.6,-72.08 301.23,-69.69 314,-67.62 380.56,-56.84 396.99,-51.3 464.25,-46.62 570.74,-39.22 695.66,-41.85 765.11,-44.32"/>
<polygon fill="#63b8ff" stroke="#63b8ff" points="274.01,-70.99 264.81,-76.24 275.28,-77.88 274.01,-70.99"/>
</a>
</g>
</g>
<!-- Node8 -->
<g id="Node000008" class="node">
<title>Node8</title>
<g id="a_Node000008"><a xlink:href="../../db/dfd/per_8c.html#ab63f464a0d939fde54f1a6365c47bedb" target="_top" xlink:title=" ">
<polygon fill="white" stroke="#666666" points="106,-96.25 0,-96.25 0,-77 106,-77 106,-96.25"/>
<text text-anchor="middle" x="53" y="-82.75" font-family="Helvetica,sans-Serif" font-size="10.00">t_aper_decode_desc</text>
</a>
</g>
</g>
<!-- Node7&#45;&gt;Node8 -->
<g id="edge7_Node000007_Node000008" class="edge">
<title>Node7&#45;&gt;Node8</title>
<g id="a_edge7_Node000007_Node000008"><a xlink:title=" ">
<path fill="none" stroke="#63b8ff" d="M130.65,-86.62C122.38,-86.62 114.11,-86.62 106.23,-86.62"/>
<polygon fill="#63b8ff" stroke="#63b8ff" points="130.4,-90.13 140.4,-86.63 130.4,-83.13 130.4,-90.13"/>
</a>
</g>
</g>
<!-- Node10 -->
<g id="Node000010" class="node">
<title>Node10</title>
<g id="a_Node000010"><a xlink:href="../../db/dfd/per_8c.html#a6174b0f0ff0e2b1e946640951a39b6b9" target="_top" xlink:title=" ">
<polygon fill="white" stroke="#666666" points="428.25,-116.25 314,-116.25 314,-97 428.25,-97 428.25,-116.25"/>
<text text-anchor="middle" x="371.12" y="-102.75" font-family="Helvetica,sans-Serif" font-size="10.00">t_aper_decode_seq_of</text>
</a>
</g>
</g>
<!-- Node9&#45;&gt;Node10 -->
<g id="edge10_Node000009_Node000010" class="edge">
<title>Node9&#45;&gt;Node10</title>
<g id="a_edge10_Node000009_Node000010"><a xlink:title=" ">
<path fill="none" stroke="#63b8ff" d="M459.12,-107.75C448.94,-107.62 438.52,-107.48 428.6,-107.36"/>
<polygon fill="#63b8ff" stroke="#63b8ff" points="458.93,-111.25 468.98,-107.88 459.02,-104.25 458.93,-111.25"/>
</a>
</g>
</g>
<!-- Node10&#45;&gt;Node7 -->
<g id="edge11_Node000010_Node000007" class="edge">
<title>Node10&#45;&gt;Node7</title>
<g id="a_edge11_Node000010_Node000007"><a xlink:title=" ">
<path fill="none" stroke="#63b8ff" d="M302.41,-98.11C294.41,-97.11 286.25,-96.08 278.25,-95.08"/>
<polygon fill="#63b8ff" stroke="#63b8ff" points="301.72,-101.55 312.07,-99.33 302.59,-94.61 301.72,-101.55"/>
</a>
</g>
</g>
<!-- Node11&#45;&gt;Node7 -->
<g id="edge13_Node000011_Node000007" class="edge">
<title>Node11&#45;&gt;Node7</title>
<g id="a_edge13_Node000011_Node000007"><a xlink:title=" ">
<path fill="none" stroke="#63b8ff" d="M452.67,-70.55C399.87,-74.06 329.47,-78.75 278.28,-82.15"/>
<polygon fill="#63b8ff" stroke="#63b8ff" points="452.73,-74.06 462.48,-69.9 452.27,-67.07 452.73,-74.06"/>
</a>
</g>
</g>
</g>
</svg>
