<?xml version="1.0" encoding="UTF-8" standalone="no"?>
<!DOCTYPE svg PUBLIC "-//W3C//DTD SVG 1.1//EN"
 "http://www.w3.org/Graphics/SVG/1.1/DTD/svg11.dtd">
<!-- Generated by graphviz version 9.0.0 (20230911.1827)
 -->
<!-- Title: aper_write_u16_m Pages: 1 -->
<svg width="1522pt" height="239pt"
 viewBox="0.00 0.00 1522.00 239.12" xmlns="http://www.w3.org/2000/svg" xmlns:xlink="http://www.w3.org/1999/xlink">
<g id="graph0" class="graph" transform="scale(1 1) rotate(0) translate(4 235.12)">
<title>aper_write_u16_m</title>
<!-- Node1 -->
<g id="Node000001" class="node">
<title>Node1</title>
<g id="a_Node000001"><a xlink:title=" ">
<polygon fill="#999999" stroke="#666666" points="1514,-135.59 1418.5,-135.59 1418.5,-116.34 1514,-116.34 1514,-135.59"/>
<text text-anchor="middle" x="1466.25" y="-122.09" font-family="Helvetica,sans-Serif" font-size="10.00">aper_write_u16_m</text>
</a>
</g>
</g>
<!-- Node2 -->
<g id="Node000002" class="node">
<title>Node2</title>
<g id="a_Node000002"><a xlink:href="../../db/dfd/per_8c.html#a07fcad7aac702bcd302f3002fda9b81f" target="_top" xlink:title=" ">
<polygon fill="white" stroke="#666666" points="1382.5,-173.59 1303.5,-173.59 1303.5,-154.34 1382.5,-154.34 1382.5,-173.59"/>
<text text-anchor="middle" x="1343" y="-160.09" font-family="Helvetica,sans-Serif" font-size="10.00">aper_write_len</text>
</a>
</g>
</g>
<!-- Node1&#45;&gt;Node2 -->
<g id="edge1_Node000001_Node000002" class="edge">
<title>Node1&#45;&gt;Node2</title>
<g id="a_edge1_Node000001_Node000002"><a xlink:title=" ">
<path fill="none" stroke="#63b8ff" d="M1422.3,-139.42C1407.02,-144.21 1390.1,-149.51 1375.9,-153.96"/>
<polygon fill="#63b8ff" stroke="#63b8ff" points="1423.14,-142.83 1431.63,-136.5 1421.04,-136.15 1423.14,-142.83"/>
</a>
</g>
</g>
<!-- Node15 -->
<g id="Node000015" class="node">
<title>Node15</title>
<g id="a_Node000015"><a xlink:href="../../db/dfd/per_8c.html#a022212d62c5b51db029145e3e6ba0d4d" target="_top" xlink:title=" ">
<polygon fill="white" stroke="#666666" points="1267.5,-87.59 1169,-87.59 1169,-68.34 1267.5,-68.34 1267.5,-87.59"/>
<text text-anchor="middle" x="1218.25" y="-74.09" font-family="Helvetica,sans-Serif" font-size="10.00">aper_write_number</text>
</a>
</g>
</g>
<!-- Node1&#45;&gt;Node15 -->
<g id="edge20_Node000001_Node000015" class="edge">
<title>Node1&#45;&gt;Node15</title>
<g id="a_edge20_Node000001_Node000015"><a xlink:title=" ">
<path fill="none" stroke="#63b8ff" d="M1406.84,-114.56C1364.47,-106.3 1307.83,-95.25 1267.91,-87.46"/>
<polygon fill="#63b8ff" stroke="#63b8ff" points="1406.14,-117.99 1416.62,-116.47 1407.48,-111.12 1406.14,-117.99"/>
</a>
</g>
</g>
<!-- Node3 -->
<g id="Node000003" class="node">
<title>Node3</title>
<g id="a_Node000003"><a xlink:href="../../db/dfd/per_8c.html#afe214d654872b884c2f90761575fb85f" target="_top" xlink:title="Encode the length of a repeated element (octet string, bit string, sequence of, set of,...">
<polygon fill="white" stroke="#666666" points="1263,-182.59 1173.5,-182.59 1173.5,-163.34 1263,-163.34 1263,-182.59"/>
<text text-anchor="middle" x="1218.25" y="-169.09" font-family="Helvetica,sans-Serif" font-size="10.00">aper_encode_len</text>
</a>
</g>
</g>
<!-- Node2&#45;&gt;Node3 -->
<g id="edge2_Node000002_Node000003" class="edge">
<title>Node2&#45;&gt;Node3</title>
<g id="a_edge2_Node000002_Node000003"><a xlink:title=" ">
<path fill="none" stroke="#63b8ff" d="M1291.89,-167.63C1282.45,-168.33 1272.64,-169.05 1263.39,-169.72"/>
<polygon fill="#63b8ff" stroke="#63b8ff" points="1291.93,-171.14 1301.65,-166.92 1291.42,-164.16 1291.93,-171.14"/>
</a>
</g>
</g>
<!-- Node4 -->
<g id="Node000004" class="node">
<title>Node4</title>
<g id="a_Node000004"><a xlink:href="../../db/dfd/per_8c.html#a5e24b9ab14b25d1ffbf0580ae3ffc4ec" target="_top" xlink:title=" ">
<polygon fill="white" stroke="#666666" points="1131.5,-201.59 1025.5,-201.59 1025.5,-182.34 1131.5,-182.34 1131.5,-201.59"/>
<text text-anchor="middle" x="1078.5" y="-188.09" font-family="Helvetica,sans-Serif" font-size="10.00">aper_encode_bstring</text>
</a>
</g>
</g>
<!-- Node3&#45;&gt;Node4 -->
<g id="edge3_Node000003_Node000004" class="edge">
<title>Node3&#45;&gt;Node4</title>
<g id="a_edge3_Node000003_Node000004"><a xlink:title=" ">
<path fill="none" stroke="#63b8ff" d="M1162.17,-180.56C1152.12,-181.94 1141.67,-183.39 1131.71,-184.76"/>
<polygon fill="#63b8ff" stroke="#63b8ff" points="1162.36,-184.06 1171.79,-179.23 1161.4,-177.13 1162.36,-184.06"/>
</a>
</g>
</g>
<!-- Node12 -->
<g id="Node000012" class="node">
<title>Node12</title>
<g id="a_Node000012"><a xlink:href="../../db/dfd/per_8c.html#a180d7a6d7cc1dc66a66956730f88f418" target="_top" xlink:title=" ">
<polygon fill="white" stroke="#666666" points="403.5,-131.59 297.5,-131.59 297.5,-112.34 403.5,-112.34 403.5,-131.59"/>
<text text-anchor="middle" x="350.5" y="-118.09" font-family="Helvetica,sans-Serif" font-size="10.00">aper_encode_seq_of</text>
</a>
</g>
</g>
<!-- Node3&#45;&gt;Node12 -->
<g id="edge19_Node000003_Node000012" class="edge">
<title>Node3&#45;&gt;Node12</title>
<g id="a_edge19_Node000003_Node000012"><a xlink:title=" ">
<path fill="none" stroke="#63b8ff" d="M1189.7,-188.2C1173.64,-196.36 1152.73,-205.77 1133,-210.96 1043.28,-234.58 1017.9,-229.96 925.12,-229.96 925.12,-229.96 925.12,-229.96 773.25,-229.96 616.04,-229.96 435.87,-158.66 373.84,-131.93"/>
<polygon fill="#63b8ff" stroke="#63b8ff" points="1190.91,-191.52 1198.15,-183.78 1187.66,-185.32 1190.91,-191.52"/>
</a>
</g>
</g>
<!-- Node14 -->
<g id="Node000014" class="node">
<title>Node14</title>
<g id="a_Node000014"><a xlink:href="../../db/dfd/per_8c.html#af3ded80e3abcb1787eac771d0837943d" target="_top" xlink:title=" ">
<polygon fill="white" stroke="#666666" points="988,-163.59 860.25,-163.59 860.25,-144.34 988,-144.34 988,-163.59"/>
<text text-anchor="middle" x="924.12" y="-150.09" font-family="Helvetica,sans-Serif" font-size="10.00">aper_encode_octet_string</text>
</a>
</g>
</g>
<!-- Node3&#45;&gt;Node14 -->
<g id="edge16_Node000003_Node000014" class="edge">
<title>Node3&#45;&gt;Node14</title>
<g id="a_edge16_Node000003_Node000014"><a xlink:title=" ">
<path fill="none" stroke="#63b8ff" d="M1161.76,-169.35C1112.29,-166.13 1039.91,-161.43 988.24,-158.07"/>
<polygon fill="#63b8ff" stroke="#63b8ff" points="1161.48,-172.84 1171.69,-170 1161.94,-165.86 1161.48,-172.84"/>
</a>
</g>
</g>
<!-- Node5 -->
<g id="Node000005" class="node">
<title>Node5</title>
<g id="a_Node000005"><a xlink:href="../../db/dfd/per_8c.html#ad3b0583c9c02aedb639455233a531a95" target="_top" xlink:title=" ">
<polygon fill="white" stroke="#666666" points="982.38,-201.59 865.88,-201.59 865.88,-182.34 982.38,-182.34 982.38,-201.59"/>
<text text-anchor="middle" x="924.12" y="-188.09" font-family="Helvetica,sans-Serif" font-size="10.00">aper_encode_bit_string</text>
</a>
</g>
</g>
<!-- Node4&#45;&gt;Node5 -->
<g id="edge4_Node000004_Node000005" class="edge">
<title>Node4&#45;&gt;Node5</title>
<g id="a_edge4_Node000004_Node000005"><a xlink:title=" ">
<path fill="none" stroke="#63b8ff" d="M1013.62,-191.96C1003.33,-191.96 992.74,-191.96 982.61,-191.96"/>
<polygon fill="#63b8ff" stroke="#63b8ff" points="1013.55,-195.46 1023.55,-191.96 1013.55,-188.46 1013.55,-195.46"/>
</a>
</g>
</g>
<!-- Node6 -->
<g id="Node000006" class="node">
<title>Node6</title>
<g id="a_Node000006"><a xlink:href="../../db/dfd/per_8c.html#a679b17fc67fbf715cd08f770da4462e6" target="_top" xlink:title=" ">
<polygon fill="white" stroke="#666666" points="824.25,-167.59 724.25,-167.59 724.25,-148.34 824.25,-148.34 824.25,-167.59"/>
<text text-anchor="middle" x="774.25" y="-154.09" font-family="Helvetica,sans-Serif" font-size="10.00">aper_encode_value</text>
</a>
</g>
</g>
<!-- Node5&#45;&gt;Node6 -->
<g id="edge5_Node000005_Node000006" class="edge">
<title>Node5&#45;&gt;Node6</title>
<g id="a_edge5_Node000005_Node000006"><a xlink:title=" ">
<path fill="none" stroke="#63b8ff" d="M868.19,-179.33C851.98,-175.6 834.46,-171.57 819.05,-168.03"/>
<polygon fill="#63b8ff" stroke="#63b8ff" points="867.15,-182.68 877.68,-181.51 868.72,-175.86 867.15,-182.68"/>
</a>
</g>
</g>
<!-- Node7 -->
<g id="Node000007" class="node">
<title>Node7</title>
<g id="a_Node000007"><a xlink:href="../../db/dfd/per_8c.html#ab6de48db5c07b39f755306539063d4dc" target="_top" xlink:title=" ">
<polygon fill="white" stroke="#666666" points="688.25,-129.59 594.25,-129.59 594.25,-110.34 688.25,-110.34 688.25,-129.59"/>
<text text-anchor="middle" x="641.25" y="-116.09" font-family="Helvetica,sans-Serif" font-size="10.00">aper_encode_field</text>
</a>
</g>
</g>
<!-- Node6&#45;&gt;Node7 -->
<g id="edge6_Node000006_Node000007" class="edge">
<title>Node6&#45;&gt;Node7</title>
<g id="a_edge6_Node000006_Node000007"><a xlink:title=" ">
<path fill="none" stroke="#63b8ff" d="M727.81,-144.78C711.05,-139.92 692.35,-134.49 676.72,-129.96"/>
<polygon fill="#63b8ff" stroke="#63b8ff" points="726.46,-148.03 737.03,-147.46 728.41,-141.31 726.46,-148.03"/>
</a>
</g>
</g>
<!-- Node8 -->
<g id="Node000008" class="node">
<title>Node8</title>
<g id="a_Node000008"><a xlink:href="../../db/dfd/per_8c.html#a380c07d1a13af3eeb62497bf05d7e155" target="_top" xlink:title=" ">
<polygon fill="white" stroke="#666666" points="551.5,-51.59 446.25,-51.59 446.25,-32.34 551.5,-32.34 551.5,-51.59"/>
<text text-anchor="middle" x="498.88" y="-38.09" font-family="Helvetica,sans-Serif" font-size="10.00">aper_encode_choice</text>
</a>
</g>
</g>
<!-- Node7&#45;&gt;Node8 -->
<g id="edge7_Node000007_Node000008" class="edge">
<title>Node7&#45;&gt;Node8</title>
<g id="a_edge7_Node000007_Node000008"><a xlink:title=" ">
<path fill="none" stroke="#63b8ff" d="M620.68,-102.73C604.79,-89.48 581.31,-71.54 558.25,-59.96 552.18,-56.91 545.5,-54.27 538.89,-52.01"/>
<polygon fill="#63b8ff" stroke="#63b8ff" points="618.07,-105.1 627.95,-108.92 622.61,-99.77 618.07,-105.1"/>
</a>
</g>
</g>
<!-- Node11 -->
<g id="Node000011" class="node">
<title>Node11</title>
<g id="a_Node000011"><a xlink:href="../../db/dfd/per_8c.html#ab6faf232bcb6b3144036345fc39a00bb" target="_top" xlink:title=" ">
<polygon fill="white" stroke="#666666" points="551.88,-137.21 445.88,-137.21 445.88,-106.71 551.88,-106.71 551.88,-137.21"/>
<text text-anchor="start" x="453.88" y="-123.71" font-family="Helvetica,sans-Serif" font-size="10.00">aper_encode_seq_of</text>
<text text-anchor="middle" x="498.88" y="-112.46" font-family="Helvetica,sans-Serif" font-size="10.00">_field</text>
</a>
</g>
</g>
<!-- Node7&#45;&gt;Node11 -->
<g id="edge11_Node000007_Node000011" class="edge">
<title>Node7&#45;&gt;Node11</title>
<g id="a_edge11_Node000007_Node000011"><a xlink:title=" ">
<path fill="none" stroke="#63b8ff" d="M582.64,-120.78C572.5,-120.93 561.99,-121.08 552,-121.22"/>
<polygon fill="#63b8ff" stroke="#63b8ff" points="582.43,-124.28 592.38,-120.64 582.33,-117.29 582.43,-124.28"/>
</a>
</g>
</g>
<!-- Node13 -->
<g id="Node000013" class="node">
<title>Node13</title>
<g id="a_Node000013"><a xlink:href="../../db/dfd/per_8c.html#a01b64aad1770f099346fb48f1152123f" target="_top" xlink:title=" ">
<polygon fill="white" stroke="#666666" points="558.25,-88.59 439.5,-88.59 439.5,-69.34 558.25,-69.34 558.25,-88.59"/>
<text text-anchor="middle" x="498.88" y="-75.09" font-family="Helvetica,sans-Serif" font-size="10.00">aper_encode_sequence</text>
</a>
</g>
</g>
<!-- Node7&#45;&gt;Node13 -->
<g id="edge14_Node000007_Node000013" class="edge">
<title>Node7&#45;&gt;Node13</title>
<g id="a_edge14_Node000007_Node000013"><a xlink:title=" ">
<path fill="none" stroke="#63b8ff" d="M595.03,-106.75C575.34,-101 552.64,-94.37 534.35,-89.03"/>
<polygon fill="#63b8ff" stroke="#63b8ff" points="593.88,-110.06 604.46,-109.51 595.84,-103.34 593.88,-110.06"/>
</a>
</g>
</g>
<!-- Node9 -->
<g id="Node000009" class="node">
<title>Node9</title>
<g id="a_Node000009"><a xlink:href="../../db/dfd/per_8c.html#a6bc628aaed9f4e1590870ef572e05fc9" target="_top" xlink:title=" ">
<polygon fill="white" stroke="#666666" points="261.5,-111.59 133.75,-111.59 133.75,-92.34 261.5,-92.34 261.5,-111.59"/>
<text text-anchor="middle" x="197.62" y="-98.09" font-family="Helvetica,sans-Serif" font-size="10.00">aper_encode_constructed</text>
</a>
</g>
</g>
<!-- Node8&#45;&gt;Node9 -->
<g id="edge8_Node000008_Node000009" class="edge">
<title>Node8&#45;&gt;Node9</title>
<g id="a_edge8_Node000008_Node000009"><a xlink:title=" ">
<path fill="none" stroke="#63b8ff" d="M436.38,-54.29C381.02,-65.39 300.65,-81.5 249.01,-91.86"/>
<polygon fill="#63b8ff" stroke="#63b8ff" points="436.85,-57.77 445.97,-52.37 435.47,-50.9 436.85,-57.77"/>
</a>
</g>
</g>
<!-- Node9&#45;&gt;Node6 -->
<g id="edge10_Node000009_Node000006" class="edge">
<title>Node9&#45;&gt;Node6</title>
<g id="a_edge10_Node000009_Node000006"><a xlink:title=" ">
<path fill="none" stroke="#63b8ff" d="M228.3,-116.74C247.52,-125.53 273.38,-135.93 297.5,-140.96 450.41,-172.87 636.85,-166.93 723.97,-161.63"/>
<polygon fill="#63b8ff" stroke="#63b8ff" points="229.99,-113.67 219.45,-112.58 227.01,-120 229.99,-113.67"/>
</a>
</g>
</g>
<!-- Node10 -->
<g id="Node000010" class="node">
<title>Node10</title>
<g id="a_Node000010"><a xlink:href="../../db/dfd/per_8c.html#a810ff2f8052e07179fb09eaa4a8a08c3" target="_top" xlink:title=" ">
<polygon fill="white" stroke="#666666" points="97.75,-111.59 0,-111.59 0,-92.34 97.75,-92.34 97.75,-111.59"/>
<text text-anchor="middle" x="48.88" y="-98.09" font-family="Helvetica,sans-Serif" font-size="10.00">aper_encode_desc</text>
</a>
</g>
</g>
<!-- Node9&#45;&gt;Node10 -->
<g id="edge9_Node000009_Node000010" class="edge">
<title>Node9&#45;&gt;Node10</title>
<g id="a_edge9_Node000009_Node000010"><a xlink:title=" ">
<path fill="none" stroke="#63b8ff" d="M122.25,-101.96C113.96,-101.96 105.68,-101.96 97.84,-101.96"/>
<polygon fill="#63b8ff" stroke="#63b8ff" points="122.02,-105.46 132.02,-101.96 122.02,-98.46 122.02,-105.46"/>
</a>
</g>
</g>
<!-- Node11&#45;&gt;Node12 -->
<g id="edge12_Node000011_Node000012" class="edge">
<title>Node11&#45;&gt;Node12</title>
<g id="a_edge12_Node000011_Node000012"><a xlink:title=" ">
<path fill="none" stroke="#63b8ff" d="M434.08,-121.96C423.89,-121.96 413.45,-121.96 403.57,-121.96"/>
<polygon fill="#63b8ff" stroke="#63b8ff" points="433.93,-125.46 443.93,-121.96 433.93,-118.46 433.93,-125.46"/>
</a>
</g>
</g>
<!-- Node12&#45;&gt;Node9 -->
<g id="edge13_Node000012_Node000009" class="edge">
<title>Node12&#45;&gt;Node9</title>
<g id="a_edge13_Node000012_Node000009"><a xlink:title=" ">
<path fill="none" stroke="#63b8ff" d="M285.99,-113.54C277.99,-112.48 269.79,-111.39 261.79,-110.33"/>
<polygon fill="#63b8ff" stroke="#63b8ff" points="285.28,-116.98 295.65,-114.82 286.2,-110.04 285.28,-116.98"/>
</a>
</g>
</g>
<!-- Node13&#45;&gt;Node9 -->
<g id="edge15_Node000013_Node000009" class="edge">
<title>Node13&#45;&gt;Node9</title>
<g id="a_edge15_Node000013_Node000009"><a xlink:title=" ">
<path fill="none" stroke="#63b8ff" d="M427.7,-84.35C377.49,-88.21 310.48,-93.36 261.91,-97.1"/>
<polygon fill="#63b8ff" stroke="#63b8ff" points="427.9,-87.85 437.6,-83.59 427.36,-80.87 427.9,-87.85"/>
</a>
</g>
</g>
<!-- Node14&#45;&gt;Node6 -->
<g id="edge18_Node000014_Node000006" class="edge">
<title>Node14&#45;&gt;Node6</title>
<g id="a_edge18_Node000014_Node000006"><a xlink:title=" ">
<path fill="none" stroke="#63b8ff" d="M848.72,-155.97C840.44,-156.2 832.17,-156.42 824.32,-156.63"/>
<polygon fill="#63b8ff" stroke="#63b8ff" points="848.57,-159.48 858.47,-155.71 848.38,-152.48 848.57,-159.48"/>
</a>
</g>
</g>
<!-- Node14&#45;&gt;Node7 -->
<g id="edge17_Node000014_Node000007" class="edge">
<title>Node14&#45;&gt;Node7</title>
<g id="a_edge17_Node000014_Node000007"><a xlink:title=" ">
<path fill="none" stroke="#63b8ff" d="M848.71,-142.29C840.46,-141.11 832.18,-139.98 824.25,-138.96 778.24,-133.07 725.52,-127.72 688.7,-124.21"/>
<polygon fill="#63b8ff" stroke="#63b8ff" points="847.99,-145.72 858.39,-143.7 849,-138.8 847.99,-145.72"/>
</a>
</g>
</g>
<!-- Node15&#45;&gt;Node8 -->
<g id="edge21_Node000015_Node000008" class="edge">
<title>Node15&#45;&gt;Node8</title>
<g id="a_edge21_Node000015_Node000008"><a xlink:title=" ">
<path fill="none" stroke="#63b8ff" d="M1197.72,-60.85C1181.56,-47.76 1157.37,-30.55 1133,-21.96 1045.5,8.88 1017.9,-2.96 925.12,-2.96 925.12,-2.96 925.12,-2.96 773.25,-2.96 691.27,-2.96 596.84,-20.36 543.16,-31.92"/>
<polygon fill="#63b8ff" stroke="#63b8ff" points="1195.17,-63.28 1205.09,-67.01 1199.66,-57.91 1195.17,-63.28"/>
</a>
</g>
</g>
<!-- Node16 -->
<g id="Node000016" class="node">
<title>Node16</title>
<g id="a_Node000016"><a xlink:href="../../db/dfd/per_8c.html#ae27ee105fcb50b0bb27e17ec68bab8f3" target="_top" xlink:title=" ">
<polygon fill="white" stroke="#666666" points="974.5,-126.59 873.75,-126.59 873.75,-107.34 974.5,-107.34 974.5,-126.59"/>
<text text-anchor="middle" x="924.12" y="-113.09" font-family="Helvetica,sans-Serif" font-size="10.00">aper_encode_enum</text>
</a>
</g>
</g>
<!-- Node15&#45;&gt;Node16 -->
<g id="edge22_Node000015_Node000016" class="edge">
<title>Node15&#45;&gt;Node16</title>
<g id="a_edge22_Node000015_Node000016"><a xlink:title=" ">
<path fill="none" stroke="#63b8ff" d="M1166.09,-90.58C1155.22,-92.96 1143.77,-95.24 1133,-96.96 1079.3,-105.56 1017.16,-110.95 974.91,-113.94"/>
<polygon fill="#63b8ff" stroke="#63b8ff" points="1166.7,-94.03 1175.69,-88.42 1165.17,-87.2 1166.7,-94.03"/>
</a>
</g>
</g>
<!-- Node17 -->
<g id="Node000017" class="node">
<title>Node17</title>
<g id="a_Node000017"><a xlink:href="../../db/dfd/per_8c.html#a0ae52d120919421cdf481f700eb3cf02" target="_top" xlink:title=" ">
<polygon fill="white" stroke="#666666" points="1133,-87.59 1024,-87.59 1024,-68.34 1133,-68.34 1133,-87.59"/>
<text text-anchor="middle" x="1078.5" y="-74.09" font-family="Helvetica,sans-Serif" font-size="10.00">aper_encode_number</text>
</a>
</g>
</g>
<!-- Node15&#45;&gt;Node17 -->
<g id="edge24_Node000015_Node000017" class="edge">
<title>Node15&#45;&gt;Node17</title>
<g id="a_edge24_Node000015_Node000017"><a xlink:title=" ">
<path fill="none" stroke="#63b8ff" d="M1157.18,-77.96C1149.22,-77.96 1141.1,-77.96 1133.25,-77.96"/>
<polygon fill="#63b8ff" stroke="#63b8ff" points="1157.17,-81.46 1167.17,-77.96 1157.17,-74.46 1157.17,-81.46"/>
</a>
</g>
</g>
<!-- Node18 -->
<g id="Node000018" class="node">
<title>Node18</title>
<g id="a_Node000018"><a xlink:href="../../db/dfd/per_8c.html#a52d294a562cff9eb99e6e0874c154b0d" target="_top" xlink:title=" ">
<polygon fill="white" stroke="#666666" points="1128.5,-50.59 1028.5,-50.59 1028.5,-31.34 1128.5,-31.34 1128.5,-50.59"/>
<text text-anchor="middle" x="1078.5" y="-37.09" font-family="Helvetica,sans-Serif" font-size="10.00">aper_write_nsnnwn</text>
</a>
</g>
</g>
<!-- Node15&#45;&gt;Node18 -->
<g id="edge25_Node000015_Node000018" class="edge">
<title>Node15&#45;&gt;Node18</title>
<g id="a_edge25_Node000015_Node000018"><a xlink:title=" ">
<path fill="none" stroke="#63b8ff" d="M1168.77,-64.94C1151.81,-60.38 1133.03,-55.34 1117.1,-51.06"/>
<polygon fill="#63b8ff" stroke="#63b8ff" points="1167.58,-68.24 1178.15,-67.46 1169.4,-61.48 1167.58,-68.24"/>
</a>
</g>
</g>
<!-- Node16&#45;&gt;Node6 -->
<g id="edge23_Node000016_Node000006" class="edge">
<title>Node16&#45;&gt;Node6</title>
<g id="a_edge23_Node000016_Node000006"><a xlink:title=" ">
<path fill="none" stroke="#63b8ff" d="M876.06,-130.01C855.19,-135.8 831.01,-142.5 811.56,-147.89"/>
<polygon fill="#63b8ff" stroke="#63b8ff" points="876.79,-133.44 885.49,-127.39 874.92,-126.69 876.79,-133.44"/>
</a>
</g>
</g>
<!-- Node18&#45;&gt;Node8 -->
<g id="edge26_Node000018_Node000008" class="edge">
<title>Node18&#45;&gt;Node8</title>
<g id="a_edge26_Node000018_Node000008"><a xlink:title=" ">
<path fill="none" stroke="#63b8ff" d="M1016.73,-41.07C902.74,-41.26 658.72,-41.69 551.84,-41.87"/>
<polygon fill="#63b8ff" stroke="#63b8ff" points="1016.49,-44.57 1026.49,-41.05 1016.48,-37.57 1016.49,-44.57"/>
</a>
</g>
</g>
<!-- Node18&#45;&gt;Node13 -->
<g id="edge28_Node000018_Node000013" class="edge">
<title>Node18&#45;&gt;Node13</title>
<g id="a_edge28_Node000018_Node000013"><a xlink:title=" ">
<path fill="none" stroke="#63b8ff" d="M1017.15,-52.08C1007.43,-53.58 997.46,-54.95 988,-55.96 833.63,-72.47 650.53,-77.13 558.65,-78.44"/>
<polygon fill="#63b8ff" stroke="#63b8ff" points="1017.59,-55.55 1026.91,-50.51 1016.48,-48.64 1017.59,-55.55"/>
</a>
</g>
</g>
<!-- Node18&#45;&gt;Node16 -->
<g id="edge27_Node000018_Node000016" class="edge">
<title>Node18&#45;&gt;Node16</title>
<g id="a_edge27_Node000018_Node000016"><a xlink:title=" ">
<path fill="none" stroke="#63b8ff" d="M1030.24,-55.56C1028.09,-56.62 1026,-57.76 1024,-58.96 1005.13,-70.29 1006.64,-81.26 988,-92.96 979,-98.61 968.45,-103.28 958.59,-106.95"/>
<polygon fill="#63b8ff" stroke="#63b8ff" points="1031.44,-58.85 1039.2,-51.63 1028.64,-52.44 1031.44,-58.85"/>
</a>
</g>
</g>
</g>
</svg>
