<?xml version="1.0" encoding="UTF-8" standalone="no"?>
<!DOCTYPE svg PUBLIC "-//W3C//DTD SVG 1.1//EN"
 "http://www.w3.org/Graphics/SVG/1.1/DTD/svg11.dtd">
<!-- Generated by graphviz version 9.0.0 (20230911.1827)
 -->
<!-- Title: is_bstring_aligned Pages: 1 -->
<!--zoomable 289 -->

<svg id="main" version="1.1" xmlns="http://www.w3.org/2000/svg" xmlns:xlink="http://www.w3.org/1999/xlink" xml:space="preserve" onload="init(evt)">
<style type="text/css"><![CDATA[
.node, .edge {opacity: 0.7;}
.node.selected, .edge.selected {opacity: 1;}
.edge:hover path { stroke: red; }
.edge:hover polygon { stroke: red; fill: red; }
]]></style>

<defs>
  <circle id="rim" cx="0" cy="0" r="7"/>
  <circle id="rim2" cx="0" cy="0" r="3.5"/>
  <g id="zoomPlus">
    <use xlink:href="#rim" fill="#404040"><set attributeName="fill" to="#808080" begin="zoomplus.mouseover" end="zoomplus.mouseout"/></use>
    <path d="M-4,0h8M0,-4v8" fill="none" stroke="white" stroke-width="1.5" pointer-events="none"/>
  </g>
  <g id="zoomMin">
    <use xlink:href="#rim" fill="#404040"><set attributeName="fill" to="#808080" begin="zoomminus.mouseover" end="zoomminus.mouseout"/></use>
    <path d="M-4,0h8" fill="none" stroke="white" stroke-width="1.5" pointer-events="none"/>
  </g>
  <g id="arrowUp" transform="translate(30 24)">
    <use xlink:href="#rim"/>
    <path pointer-events="none" fill="none" stroke="white" stroke-width="1.5" d="M0,-3.0v7 M-2.5,-0.5L0,-3.0L2.5,-0.5"/>
  </g>
  <g id="arrowRight" transform="rotate(90) translate(36 -43)">
    <use xlink:href="#rim"/>
    <path pointer-events="none" fill="none" stroke="white" stroke-width="1.5" d="M0,-3.0v7 M-2.5,-0.5L0,-3.0L2.5,-0.5"/>
  </g>
  <g id="arrowDown" transform="rotate(180) translate(-30 -48)">
    <use xlink:href="#rim"/>
    <path pointer-events="none" fill="none" stroke="white" stroke-width="1.5" d="M0,-3.0v7 M-2.5,-0.5L0,-3.0L2.5,-0.5"/>
  </g>
  <g id="arrowLeft" transform="rotate(270) translate(-36 17)">
    <use xlink:href="#rim"/>
    <path pointer-events="none" fill="none" stroke="white" stroke-width="1.5" d="M0,-3.0v7 M-2.5,-0.5L0,-3.0L2.5,-0.5"/>
  </g>
  <g id="resetDef">
    <use xlink:href="#rim2" fill="#404040"><set attributeName="fill" to="#808080" begin="reset.mouseover" end="reset.mouseout"/></use>
  </g>
</defs>
<script type="application/ecmascript">
var viewWidth = 1319;
var viewHeight = 289;
var sectionId = 'dynsection-103';
</script>
<script type="application/ecmascript" xlink:href="../../svg.min.js"/>
<svg id="graph" class="graph">
<g id="viewport">
<title>is_bstring_aligned</title>
<!-- Node1 -->
<g id="Node000001" class="node">
<title>Node1</title>
<g id="a_Node000001"><a xlink:title=" ">
<polygon fill="#999999" stroke="#666666" points="1311,-119.74 1217,-119.74 1217,-100.49 1311,-100.49 1311,-119.74"/>
<text text-anchor="middle" x="1264" y="-106.24" font-family="Helvetica,sans-Serif" font-size="10.00">is_bstring_aligned</text>
</a>
</g>
</g>
<!-- Node2 -->
<g id="Node000002" class="node">
<title>Node2</title>
<g id="a_Node000002"><a xlink:href="../../db/dfd/per_8c.html#aaa95b1763cbec63fc72ff314e9ded6c3" target="_top" xlink:title=" ">
<polygon fill="white" stroke="#666666" points="1181,-138.74 1075,-138.74 1075,-119.49 1181,-119.49 1181,-138.74"/>
<text text-anchor="middle" x="1128" y="-125.24" font-family="Helvetica,sans-Serif" font-size="10.00">aper_decode_bstring</text>
</a>
</g>
</g>
<!-- Node1&#45;&gt;Node2 -->
<g id="edge1_Node000001_Node000002" class="edge">
<title>Node1&#45;&gt;Node2</title>
<g id="a_edge1_Node000001_Node000002"><a xlink:title=" ">
<path fill="none" stroke="#63b8ff" d="M1205.12,-118.32C1197.23,-119.44 1189.16,-120.59 1181.37,-121.69"/>
<polygon fill="#63b8ff" stroke="#63b8ff" points="1205.6,-121.79 1215.01,-116.92 1204.62,-114.86 1205.6,-121.79"/>
</a>
</g>
</g>
<!-- Node12 -->
<g id="Node000012" class="node">
<title>Node12</title>
<g id="a_Node000012"><a xlink:href="../../db/dfd/per_8c.html#a5e24b9ab14b25d1ffbf0580ae3ffc4ec" target="_top" xlink:title=" ">
<polygon fill="white" stroke="#666666" points="1181,-101.74 1075,-101.74 1075,-82.49 1181,-82.49 1181,-101.74"/>
<text text-anchor="middle" x="1128" y="-88.24" font-family="Helvetica,sans-Serif" font-size="10.00">aper_encode_bstring</text>
</a>
</g>
</g>
<!-- Node1&#45;&gt;Node12 -->
<g id="edge14_Node000001_Node000012" class="edge">
<title>Node1&#45;&gt;Node12</title>
<g id="a_edge14_Node000001_Node000012"><a xlink:title=" ">
<path fill="none" stroke="#63b8ff" d="M1205.12,-102.34C1197.23,-101.28 1189.16,-100.2 1181.37,-99.15"/>
<polygon fill="#63b8ff" stroke="#63b8ff" points="1204.63,-105.81 1215.01,-103.67 1205.56,-98.87 1204.63,-105.81"/>
</a>
</g>
</g>
<!-- Node3 -->
<g id="Node000003" class="node">
<title>Node3</title>
<g id="a_Node000003"><a xlink:href="../../db/dfd/per_8c.html#aeee9b68532c304b2d04cdd2c707504af" target="_top" xlink:title=" ">
<polygon fill="white" stroke="#666666" points="1039,-149.74 914.25,-149.74 914.25,-130.49 1039,-130.49 1039,-149.74"/>
<text text-anchor="middle" x="976.62" y="-136.24" font-family="Helvetica,sans-Serif" font-size="10.00">t_aper_decode_bit_string</text>
</a>
</g>
</g>
<!-- Node2&#45;&gt;Node3 -->
<g id="edge2_Node000002_Node000003" class="edge">
<title>Node2&#45;&gt;Node3</title>
<g id="a_edge2_Node000002_Node000003"><a xlink:title=" ">
<path fill="none" stroke="#63b8ff" d="M1063.29,-133.81C1055.34,-134.39 1047.23,-134.99 1039.32,-135.57"/>
<polygon fill="#63b8ff" stroke="#63b8ff" points="1063.53,-137.3 1073.25,-133.07 1063.02,-130.32 1063.53,-137.3"/>
</a>
</g>
</g>
<!-- Node4 -->
<g id="Node000004" class="node">
<title>Node4</title>
<g id="a_Node000004"><a xlink:href="../../db/dfd/per_8c.html#ad241b250dff184dcd0a44ca475aaf70e" target="_top" xlink:title=" ">
<polygon fill="white" stroke="#666666" points="878.25,-160.74 770,-160.74 770,-141.49 878.25,-141.49 878.25,-160.74"/>
<text text-anchor="middle" x="824.12" y="-147.24" font-family="Helvetica,sans-Serif" font-size="10.00">t_aper_decode_value</text>
</a>
</g>
</g>
<!-- Node3&#45;&gt;Node4 -->
<g id="edge3_Node000003_Node000004" class="edge">
<title>Node3&#45;&gt;Node4</title>
<g id="a_edge3_Node000003_Node000004"><a xlink:title=" ">
<path fill="none" stroke="#63b8ff" d="M902.64,-145.45C894.58,-146.04 886.49,-146.63 878.73,-147.2"/>
<polygon fill="#63b8ff" stroke="#63b8ff" points="902.75,-148.95 912.47,-144.73 902.24,-141.97 902.75,-148.95"/>
</a>
</g>
</g>
<!-- Node5 -->
<g id="Node000005" class="node">
<title>Node5</title>
<g id="a_Node000005"><a xlink:href="../../db/dfd/per_8c.html#adedfcb81b5e27cfaa3679c443107fd60" target="_top" xlink:title=" ">
<polygon fill="white" stroke="#666666" points="734,-219.74 631.75,-219.74 631.75,-200.49 734,-200.49 734,-219.74"/>
<text text-anchor="middle" x="682.88" y="-206.24" font-family="Helvetica,sans-Serif" font-size="10.00">t_aper_decode_field</text>
</a>
</g>
</g>
<!-- Node4&#45;&gt;Node5 -->
<g id="edge4_Node000004_Node000005" class="edge">
<title>Node4&#45;&gt;Node5</title>
<g id="a_edge4_Node000004_Node000005"><a xlink:title=" ">
<path fill="none" stroke="#63b8ff" d="M788.92,-165.61C763.67,-176.31 729.96,-190.59 707.61,-200.06"/>
<polygon fill="#63b8ff" stroke="#63b8ff" points="790.27,-168.84 798.11,-161.72 787.54,-162.39 790.27,-168.84"/>
</a>
</g>
</g>
<!-- Node6 -->
<g id="Node000006" class="node">
<title>Node6</title>
<g id="a_Node000006"><a xlink:href="../../db/dfd/per_8c.html#a6e95f8cdc72c7432a7773ca9db9bfca2" target="_top" xlink:title=" ">
<polygon fill="white" stroke="#666666" points="430.12,-280.74 316.62,-280.74 316.62,-261.49 430.12,-261.49 430.12,-280.74"/>
<text text-anchor="middle" x="373.38" y="-267.24" font-family="Helvetica,sans-Serif" font-size="10.00">t_aper_decode_choice</text>
</a>
</g>
</g>
<!-- Node5&#45;&gt;Node6 -->
<g id="edge5_Node000005_Node000006" class="edge">
<title>Node5&#45;&gt;Node6</title>
<g id="a_edge5_Node000005_Node000006"><a xlink:title=" ">
<path fill="none" stroke="#63b8ff" d="M658.29,-226.25C641.61,-236.75 618.29,-249.66 595.75,-256.12 541.13,-271.77 475.96,-274.36 430.53,-273.75"/>
<polygon fill="#63b8ff" stroke="#63b8ff" points="660,-229.31 666.48,-220.93 656.19,-223.44 660,-229.31"/>
</a>
</g>
</g>
<!-- Node9 -->
<g id="Node000009" class="node">
<title>Node9</title>
<g id="a_Node000009"><a xlink:href="../../db/dfd/per_8c.html#a73f9c9a06039b6798b47b73b8cc274c0" target="_top" xlink:title=" ">
<polygon fill="white" stroke="#666666" points="589.38,-247.37 475.12,-247.37 475.12,-216.87 589.38,-216.87 589.38,-247.37"/>
<text text-anchor="start" x="483.12" y="-233.87" font-family="Helvetica,sans-Serif" font-size="10.00">t_aper_decode_seq_of</text>
<text text-anchor="middle" x="532.25" y="-222.62" font-family="Helvetica,sans-Serif" font-size="10.00">_fields</text>
</a>
</g>
</g>
<!-- Node5&#45;&gt;Node9 -->
<g id="edge9_Node000005_Node000009" class="edge">
<title>Node5&#45;&gt;Node9</title>
<g id="a_edge9_Node000005_Node000009"><a xlink:title=" ">
<path fill="none" stroke="#63b8ff" d="M620.28,-219.23C610.14,-220.74 599.66,-222.29 589.65,-223.77"/>
<polygon fill="#63b8ff" stroke="#63b8ff" points="620.68,-222.71 630.06,-217.79 619.66,-215.79 620.68,-222.71"/>
</a>
</g>
</g>
<!-- Node11 -->
<g id="Node000011" class="node">
<title>Node11</title>
<g id="a_Node000011"><a xlink:href="../../db/dfd/per_8c.html#a21384fcb7cf727f5e2e124c51b614075" target="_top" xlink:title=" ">
<polygon fill="white" stroke="#666666" points="595.75,-198.74 468.75,-198.74 468.75,-179.49 595.75,-179.49 595.75,-198.74"/>
<text text-anchor="middle" x="532.25" y="-185.24" font-family="Helvetica,sans-Serif" font-size="10.00">t_aper_decode_sequence</text>
</a>
</g>
</g>
<!-- Node5&#45;&gt;Node11 -->
<g id="edge12_Node000005_Node000011" class="edge">
<title>Node5&#45;&gt;Node11</title>
<g id="a_edge12_Node000005_Node000011"><a xlink:title=" ">
<path fill="none" stroke="#63b8ff" d="M620.41,-201.43C612.41,-200.3 604.2,-199.14 596.17,-198.01"/>
<polygon fill="#63b8ff" stroke="#63b8ff" points="619.67,-204.86 630.06,-202.79 620.65,-197.93 619.67,-204.86"/>
</a>
</g>
</g>
<!-- Node7 -->
<g id="Node000007" class="node">
<title>Node7</title>
<g id="a_Node000007"><a xlink:href="../../db/dfd/per_8c.html#a1f1e087bcc1964a0347044fce93f6a7c" target="_top" xlink:title=" ">
<polygon fill="white" stroke="#666666" points="278,-219.74 142,-219.74 142,-200.49 278,-200.49 278,-219.74"/>
<text text-anchor="middle" x="210" y="-206.24" font-family="Helvetica,sans-Serif" font-size="10.00">t_aper_decode_constructed</text>
</a>
</g>
</g>
<!-- Node6&#45;&gt;Node7 -->
<g id="edge6_Node000006_Node000007" class="edge">
<title>Node6&#45;&gt;Node7</title>
<g id="a_edge6_Node000006_Node000007"><a xlink:title=" ">
<path fill="none" stroke="#63b8ff" d="M334.98,-257.03C328.01,-254.4 320.78,-251.68 314,-249.12 288.06,-239.32 258.46,-228.11 237.67,-220.23"/>
<polygon fill="#63b8ff" stroke="#63b8ff" points="333.63,-260.26 344.22,-260.52 336.1,-253.71 333.63,-260.26"/>
</a>
</g>
</g>
<!-- Node7&#45;&gt;Node4 -->
<g id="edge8_Node000007_Node000004" class="edge">
<title>Node7&#45;&gt;Node4</title>
<g id="a_edge8_Node000007_Node000004"><a xlink:title=" ">
<path fill="none" stroke="#63b8ff" d="M274.36,-197.94C287.44,-195.56 301.15,-193.17 314,-191.12 382.54,-180.15 399.65,-176.65 468.75,-170.12 575.17,-160.06 700.12,-154.91 769.59,-152.63"/>
<polygon fill="#63b8ff" stroke="#63b8ff" points="273.74,-194.49 264.54,-199.74 275.01,-201.38 273.74,-194.49"/>
</a>
</g>
</g>
<!-- Node8 -->
<g id="Node000008" class="node">
<title>Node8</title>
<g id="a_Node000008"><a xlink:href="../../db/dfd/per_8c.html#ab63f464a0d939fde54f1a6365c47bedb" target="_top" xlink:title=" ">
<polygon fill="white" stroke="#666666" points="106,-219.74 0,-219.74 0,-200.49 106,-200.49 106,-219.74"/>
<text text-anchor="middle" x="53" y="-206.24" font-family="Helvetica,sans-Serif" font-size="10.00">t_aper_decode_desc</text>
</a>
</g>
</g>
<!-- Node7&#45;&gt;Node8 -->
<g id="edge7_Node000007_Node000008" class="edge">
<title>Node7&#45;&gt;Node8</title>
<g id="a_edge7_Node000007_Node000008"><a xlink:title=" ">
<path fill="none" stroke="#63b8ff" d="M130.65,-210.12C122.38,-210.12 114.11,-210.12 106.23,-210.12"/>
<polygon fill="#63b8ff" stroke="#63b8ff" points="130.4,-213.62 140.4,-210.12 130.4,-206.62 130.4,-213.62"/>
</a>
</g>
</g>
<!-- Node10 -->
<g id="Node000010" class="node">
<title>Node10</title>
<g id="a_Node000010"><a xlink:href="../../db/dfd/per_8c.html#a6174b0f0ff0e2b1e946640951a39b6b9" target="_top" xlink:title=" ">
<polygon fill="white" stroke="#666666" points="430.5,-239.74 316.25,-239.74 316.25,-220.49 430.5,-220.49 430.5,-239.74"/>
<text text-anchor="middle" x="373.38" y="-226.24" font-family="Helvetica,sans-Serif" font-size="10.00">t_aper_decode_seq_of</text>
</a>
</g>
</g>
<!-- Node9&#45;&gt;Node10 -->
<g id="edge10_Node000009_Node000010" class="edge">
<title>Node9&#45;&gt;Node10</title>
<g id="a_edge10_Node000009_Node000010"><a xlink:title=" ">
<path fill="none" stroke="#63b8ff" d="M463.8,-231.26C452.85,-231.12 441.62,-230.97 430.97,-230.84"/>
<polygon fill="#63b8ff" stroke="#63b8ff" points="463.5,-234.75 473.54,-231.38 463.59,-227.75 463.5,-234.75"/>
</a>
</g>
</g>
<!-- Node10&#45;&gt;Node7 -->
<g id="edge11_Node000010_Node000007" class="edge">
<title>Node10&#45;&gt;Node7</title>
<g id="a_edge11_Node000010_Node000007"><a xlink:title=" ">
<path fill="none" stroke="#63b8ff" d="M304.7,-221.73C296.03,-220.65 287.16,-219.56 278.5,-218.48"/>
<polygon fill="#63b8ff" stroke="#63b8ff" points="304.08,-225.18 314.43,-222.94 304.94,-218.23 304.08,-225.18"/>
</a>
</g>
</g>
<!-- Node11&#45;&gt;Node7 -->
<g id="edge13_Node000011_Node000007" class="edge">
<title>Node11&#45;&gt;Node7</title>
<g id="a_edge13_Node000011_Node000007"><a xlink:title=" ">
<path fill="none" stroke="#63b8ff" d="M457.15,-193.98C403.21,-197.51 330.76,-202.26 278.44,-205.69"/>
<polygon fill="#63b8ff" stroke="#63b8ff" points="457.1,-197.49 466.85,-193.34 456.64,-190.5 457.1,-197.49"/>
</a>
</g>
</g>
<!-- Node13 -->
<g id="Node000013" class="node">
<title>Node13</title>
<g id="a_Node000013"><a xlink:href="../../db/dfd/per_8c.html#ad3b0583c9c02aedb639455233a531a95" target="_top" xlink:title=" ">
<polygon fill="white" stroke="#666666" points="1034.88,-101.74 918.38,-101.74 918.38,-82.49 1034.88,-82.49 1034.88,-101.74"/>
<text text-anchor="middle" x="976.62" y="-88.24" font-family="Helvetica,sans-Serif" font-size="10.00">aper_encode_bit_string</text>
</a>
</g>
</g>
<!-- Node12&#45;&gt;Node13 -->
<g id="edge15_Node000012_Node000013" class="edge">
<title>Node12&#45;&gt;Node13</title>
<g id="a_edge15_Node000012_Node000013"><a xlink:title=" ">
<path fill="none" stroke="#63b8ff" d="M1063.46,-92.12C1054.08,-92.12 1044.45,-92.12 1035.19,-92.12"/>
<polygon fill="#63b8ff" stroke="#63b8ff" points="1063.24,-95.62 1073.24,-92.12 1063.24,-88.62 1063.24,-95.62"/>
</a>
</g>
</g>
<!-- Node14 -->
<g id="Node000014" class="node">
<title>Node14</title>
<g id="a_Node000014"><a xlink:href="../../db/dfd/per_8c.html#a679b17fc67fbf715cd08f770da4462e6" target="_top" xlink:title=" ">
<polygon fill="white" stroke="#666666" points="874.12,-79.74 774.12,-79.74 774.12,-60.49 874.12,-60.49 874.12,-79.74"/>
<text text-anchor="middle" x="824.12" y="-66.24" font-family="Helvetica,sans-Serif" font-size="10.00">aper_encode_value</text>
</a>
</g>
</g>
<!-- Node13&#45;&gt;Node14 -->
<g id="edge16_Node000013_Node000014" class="edge">
<title>Node13&#45;&gt;Node14</title>
<g id="a_edge16_Node000013_Node000014"><a xlink:title=" ">
<path fill="none" stroke="#63b8ff" d="M906.97,-82.08C896,-80.48 884.84,-78.85 874.43,-77.32"/>
<polygon fill="#63b8ff" stroke="#63b8ff" points="906.4,-85.53 916.8,-83.52 907.41,-78.61 906.4,-85.53"/>
</a>
</g>
</g>
<!-- Node15 -->
<g id="Node000015" class="node">
<title>Node15</title>
<g id="a_Node000015"><a xlink:href="../../db/dfd/per_8c.html#ab6de48db5c07b39f755306539063d4dc" target="_top" xlink:title=" ">
<polygon fill="white" stroke="#666666" points="729.88,-79.74 635.88,-79.74 635.88,-60.49 729.88,-60.49 729.88,-79.74"/>
<text text-anchor="middle" x="682.88" y="-66.24" font-family="Helvetica,sans-Serif" font-size="10.00">aper_encode_field</text>
</a>
</g>
</g>
<!-- Node14&#45;&gt;Node15 -->
<g id="edge17_Node000014_Node000015" class="edge">
<title>Node14&#45;&gt;Node15</title>
<g id="a_edge17_Node000014_Node000015"><a xlink:title=" ">
<path fill="none" stroke="#63b8ff" d="M762.44,-70.12C751.54,-70.12 740.34,-70.12 729.94,-70.12"/>
<polygon fill="#63b8ff" stroke="#63b8ff" points="762.13,-73.62 772.13,-70.12 762.13,-66.62 762.13,-73.62"/>
</a>
</g>
</g>
<!-- Node16 -->
<g id="Node000016" class="node">
<title>Node16</title>
<g id="a_Node000016"><a xlink:href="../../db/dfd/per_8c.html#a380c07d1a13af3eeb62497bf05d7e155" target="_top" xlink:title=" ">
<polygon fill="white" stroke="#666666" points="584.88,-122.74 479.62,-122.74 479.62,-103.49 584.88,-103.49 584.88,-122.74"/>
<text text-anchor="middle" x="532.25" y="-109.24" font-family="Helvetica,sans-Serif" font-size="10.00">aper_encode_choice</text>
</a>
</g>
</g>
<!-- Node15&#45;&gt;Node16 -->
<g id="edge18_Node000015_Node000016" class="edge">
<title>Node15&#45;&gt;Node16</title>
<g id="a_edge18_Node000015_Node000016"><a xlink:title=" ">
<path fill="none" stroke="#63b8ff" d="M635.99,-83.39C614.12,-89.72 588.38,-97.17 568.13,-103.02"/>
<polygon fill="#63b8ff" stroke="#63b8ff" points="636.94,-86.76 645.58,-80.62 635,-80.04 636.94,-86.76"/>
</a>
</g>
</g>
<!-- Node19 -->
<g id="Node000019" class="node">
<title>Node19</title>
<g id="a_Node000019"><a xlink:href="../../db/dfd/per_8c.html#ab6faf232bcb6b3144036345fc39a00bb" target="_top" xlink:title=" ">
<polygon fill="white" stroke="#666666" points="585.25,-85.37 479.25,-85.37 479.25,-54.87 585.25,-54.87 585.25,-85.37"/>
<text text-anchor="start" x="487.25" y="-71.87" font-family="Helvetica,sans-Serif" font-size="10.00">aper_encode_seq_of</text>
<text text-anchor="middle" x="532.25" y="-60.62" font-family="Helvetica,sans-Serif" font-size="10.00">_field</text>
</a>
</g>
</g>
<!-- Node15&#45;&gt;Node19 -->
<g id="edge22_Node000015_Node000019" class="edge">
<title>Node15&#45;&gt;Node19</title>
<g id="a_edge22_Node000015_Node000019"><a xlink:title=" ">
<path fill="none" stroke="#63b8ff" d="M624.24,-70.12C611.53,-70.12 598.14,-70.12 585.66,-70.12"/>
<polygon fill="#63b8ff" stroke="#63b8ff" points="624.15,-73.62 634.15,-70.12 624.15,-66.62 624.15,-73.62"/>
</a>
</g>
</g>
<!-- Node21 -->
<g id="Node000021" class="node">
<title>Node21</title>
<g id="a_Node000021"><a xlink:href="../../db/dfd/per_8c.html#a01b64aad1770f099346fb48f1152123f" target="_top" xlink:title=" ">
<polygon fill="white" stroke="#666666" points="432.75,-38.74 314,-38.74 314,-19.49 432.75,-19.49 432.75,-38.74"/>
<text text-anchor="middle" x="373.38" y="-25.24" font-family="Helvetica,sans-Serif" font-size="10.00">aper_encode_sequence</text>
</a>
</g>
</g>
<!-- Node15&#45;&gt;Node21 -->
<g id="edge25_Node000015_Node000021" class="edge">
<title>Node15&#45;&gt;Node21</title>
<g id="a_edge25_Node000015_Node000021"><a xlink:title=" ">
<path fill="none" stroke="#63b8ff" d="M640.66,-56.87C626.55,-52.81 610.59,-48.73 595.75,-46.12 541.08,-36.5 477.87,-32.32 433.03,-30.51"/>
<polygon fill="#63b8ff" stroke="#63b8ff" points="639.48,-60.17 650.07,-59.66 641.48,-53.46 639.48,-60.17"/>
</a>
</g>
</g>
<!-- Node17 -->
<g id="Node000017" class="node">
<title>Node17</title>
<g id="a_Node000017"><a xlink:href="../../db/dfd/per_8c.html#a6bc628aaed9f4e1590870ef572e05fc9" target="_top" xlink:title=" ">
<polygon fill="white" stroke="#666666" points="273.88,-58.74 146.12,-58.74 146.12,-39.49 273.88,-39.49 273.88,-58.74"/>
<text text-anchor="middle" x="210" y="-45.24" font-family="Helvetica,sans-Serif" font-size="10.00">aper_encode_constructed</text>
</a>
</g>
</g>
<!-- Node16&#45;&gt;Node17 -->
<g id="edge19_Node000016_Node000017" class="edge">
<title>Node16&#45;&gt;Node17</title>
<g id="a_edge19_Node000016_Node000017"><a xlink:title=" ">
<path fill="none" stroke="#63b8ff" d="M467.99,-108.97C424.29,-105.2 365.07,-98.3 314,-86.12 285.91,-79.41 254.86,-67.63 234.28,-59.15"/>
<polygon fill="#63b8ff" stroke="#63b8ff" points="467.56,-112.44 477.81,-109.78 468.13,-105.47 467.56,-112.44"/>
</a>
</g>
</g>
<!-- Node17&#45;&gt;Node14 -->
<g id="edge21_Node000017_Node000014" class="edge">
<title>Node17&#45;&gt;Node14</title>
<g id="a_edge21_Node000017_Node000014"><a xlink:title=" ">
<path fill="none" stroke="#63b8ff" d="M241.26,-34.33C261.35,-25.35 288.61,-14.76 314,-10.12 493.47,22.72 711.99,-35.51 791.93,-60.01"/>
<polygon fill="#63b8ff" stroke="#63b8ff" points="239.89,-31.11 232.27,-38.47 242.82,-37.47 239.89,-31.11"/>
</a>
</g>
</g>
<!-- Node18 -->
<g id="Node000018" class="node">
<title>Node18</title>
<g id="a_Node000018"><a xlink:href="../../db/dfd/per_8c.html#a810ff2f8052e07179fb09eaa4a8a08c3" target="_top" xlink:title=" ">
<polygon fill="white" stroke="#666666" points="101.88,-58.74 4.12,-58.74 4.12,-39.49 101.88,-39.49 101.88,-58.74"/>
<text text-anchor="middle" x="53" y="-45.24" font-family="Helvetica,sans-Serif" font-size="10.00">aper_encode_desc</text>
</a>
</g>
</g>
<!-- Node17&#45;&gt;Node18 -->
<g id="edge20_Node000017_Node000018" class="edge">
<title>Node17&#45;&gt;Node18</title>
<g id="a_edge20_Node000017_Node000018"><a xlink:title=" ">
<path fill="none" stroke="#63b8ff" d="M134.57,-49.12C123.58,-49.12 112.51,-49.12 102.25,-49.12"/>
<polygon fill="#63b8ff" stroke="#63b8ff" points="134.44,-52.62 144.44,-49.12 134.44,-45.62 134.44,-52.62"/>
</a>
</g>
</g>
<!-- Node20 -->
<g id="Node000020" class="node">
<title>Node20</title>
<g id="a_Node000020"><a xlink:href="../../db/dfd/per_8c.html#a180d7a6d7cc1dc66a66956730f88f418" target="_top" xlink:title=" ">
<polygon fill="white" stroke="#666666" points="426.38,-76.74 320.38,-76.74 320.38,-57.49 426.38,-57.49 426.38,-76.74"/>
<text text-anchor="middle" x="373.38" y="-63.24" font-family="Helvetica,sans-Serif" font-size="10.00">aper_encode_seq_of</text>
</a>
</g>
</g>
<!-- Node19&#45;&gt;Node20 -->
<g id="edge23_Node000019_Node000020" class="edge">
<title>Node19&#45;&gt;Node20</title>
<g id="a_edge23_Node000019_Node000020"><a xlink:title=" ">
<path fill="none" stroke="#63b8ff" d="M467.73,-68.9C454.09,-68.64 439.81,-68.37 426.65,-68.12"/>
<polygon fill="#63b8ff" stroke="#63b8ff" points="467.43,-72.4 477.5,-69.09 467.57,-65.4 467.43,-72.4"/>
</a>
</g>
</g>
<!-- Node20&#45;&gt;Node17 -->
<g id="edge24_Node000020_Node000017" class="edge">
<title>Node20&#45;&gt;Node17</title>
<g id="a_edge24_Node000020_Node000017"><a xlink:title=" ">
<path fill="none" stroke="#63b8ff" d="M308.78,-60.02C297.38,-58.75 285.5,-57.43 274.11,-56.16"/>
<polygon fill="#63b8ff" stroke="#63b8ff" points="308.15,-63.47 318.48,-61.1 308.93,-56.52 308.15,-63.47"/>
</a>
</g>
</g>
<!-- Node21&#45;&gt;Node17 -->
<g id="edge26_Node000021_Node000017" class="edge">
<title>Node21&#45;&gt;Node17</title>
<g id="a_edge26_Node000021_Node000017"><a xlink:title=" ">
<path fill="none" stroke="#63b8ff" d="M302.4,-37.79C293.05,-38.95 283.52,-40.13 274.3,-41.27"/>
<polygon fill="#63b8ff" stroke="#63b8ff" points="302.66,-41.28 312.16,-36.58 301.8,-34.34 302.66,-41.28"/>
</a>
</g>
</g>
</g>
</svg>

<g id="navigator" transform="translate(0 0)" fill="#404254">
  <rect fill="#f2f5e9" fill-opacity="0.5" stroke="#606060" stroke-width=".5" x="0" y="0" width="60" height="60"/>
  <use id="zoomplus" xlink:href="#zoomPlus" x="17" y="9" onmousedown="handleZoom(evt,'in')"/>
  <use id="zoomminus" xlink:href="#zoomMin" x="42" y="9" onmousedown="handleZoom(evt,'out')"/>
  <use id="reset" xlink:href="#resetDef" x="30" y="36" onmousedown="handleReset()"/>
   <use id="arrowup" xlink:href="#arrowUp" x="0" y="0" onmousedown="handlePan(0,-1)"/>
  <use id="arrowright" xlink:href="#arrowRight" x="0" y="0" onmousedown="handlePan(1,0)"/>
  <use id="arrowdown" xlink:href="#arrowDown" x="0" y="0" onmousedown="handlePan(0,1)"/>
  <use id="arrowleft" xlink:href="#arrowLeft" x="0" y="0" onmousedown="handlePan(-1,0)"/>
</g>
<svg viewBox="0 0 15 15" width="100%" height="30px" preserveAspectRatio="xMaxYMin meet">
 <g id="arrow_out" transform="scale(0.3 0.3)">
  <a xlink:href="per_8c_a6d2f83637571ee20e1b49375205657ae_icgraph_org.svg" target="_base">
   <rect id="button" ry="5" rx="5" y="6" x="6" height="38" width="38"
        fill="#f2f5e9" fill-opacity="0.5" stroke="#606060" stroke-width="1.0"/>
   <path id="arrow"
     d="M 11.500037,31.436501 C 11.940474,20.09759 22.043105,11.32322 32.158766,21.979434 L 37.068811,17.246167 C 37.068811,17.246167 37.088388,32 37.088388,32 L 22.160133,31.978069 C 22.160133,31.978069 26.997745,27.140456 26.997745,27.140456 C 18.528582,18.264221 13.291696,25.230495 11.500037,31.436501 z"
     style="fill:#404040;"/>
  </a>
 </g>
</svg>

<style type='text/css'>
<![CDATA[
[data-mouse-over-selected='false'] { opacity: 0.7; }
[data-mouse-over-selected='true']  { opacity: 1.0; }
]]>
</style>
<script type="application/ecmascript"><![CDATA[
document.addEventListener('DOMContentLoaded', (event) => {
  highlightEdges();
  highlightAdjacentNodes();
});
]]></script>
</svg>
