<?xml version="1.0" encoding="UTF-8" standalone="no"?>
<!DOCTYPE svg PUBLIC "-//W3C//DTD SVG 1.1//EN"
 "http://www.w3.org/Graphics/SVG/1.1/DTD/svg11.dtd">
<!-- Generated by graphviz version 9.0.0 (20230911.1827)
 -->
<!-- Title: aper_decode_bool Pages: 1 -->
<svg width="467pt" height="82pt"
 viewBox="0.00 0.00 467.25 82.25" xmlns="http://www.w3.org/2000/svg" xmlns:xlink="http://www.w3.org/1999/xlink">
<g id="graph0" class="graph" transform="scale(1 1) rotate(0) translate(4 78.25)">
<title>aper_decode_bool</title>
<!-- Node1 -->
<g id="Node000001" class="node">
<title>Node1</title>
<g id="a_Node000001"><a xlink:title=" ">
<polygon fill="#999999" stroke="#666666" points="94.75,-37.25 0,-37.25 0,-18 94.75,-18 94.75,-37.25"/>
<text text-anchor="middle" x="47.38" y="-23.75" font-family="Helvetica,sans-Serif" font-size="10.00">aper_decode_bool</text>
</a>
</g>
</g>
<!-- Node2 -->
<g id="Node000002" class="node">
<title>Node2</title>
<g id="a_Node000002"><a xlink:href="../../d8/d1b/bit-stream_8h.html#a5ae8b276975dc224cdc2a4f49d320baa" target="_top" xlink:title=" ">
<polygon fill="white" stroke="#666666" points="218,-56.25 130.75,-56.25 130.75,-37 218,-37 218,-56.25"/>
<text text-anchor="middle" x="174.38" y="-42.75" font-family="Helvetica,sans-Serif" font-size="10.00">__bs_be_get_bit</text>
</a>
</g>
</g>
<!-- Node1&#45;&gt;Node2 -->
<g id="edge1_Node000001_Node000002" class="edge">
<title>Node1&#45;&gt;Node2</title>
<g id="a_edge1_Node000001_Node000002"><a xlink:title=" ">
<path fill="none" stroke="#63b8ff" d="M94.92,-34.7C102.85,-35.9 111.14,-37.17 119.24,-38.4"/>
<polygon fill="#63b8ff" stroke="#63b8ff" points="118.6,-41.84 129.01,-39.88 119.65,-34.92 118.6,-41.84"/>
</a>
</g>
</g>
<!-- Node6 -->
<g id="Node000006" class="node">
<title>Node6</title>
<g id="a_Node000006"><a xlink:href="../../d8/d1b/bit-stream_8h.html#a75ece4d468a17d53ff49a6d240c09800" target="_top" xlink:title=" ">
<polygon fill="white" stroke="#666666" points="200.75,-19.25 148,-19.25 148,0 200.75,0 200.75,-19.25"/>
<text text-anchor="middle" x="174.38" y="-5.75" font-family="Helvetica,sans-Serif" font-size="10.00">bs_done</text>
</a>
</g>
</g>
<!-- Node1&#45;&gt;Node6 -->
<g id="edge5_Node000001_Node000006" class="edge">
<title>Node1&#45;&gt;Node6</title>
<g id="a_edge5_Node000001_Node000006"><a xlink:title=" ">
<path fill="none" stroke="#63b8ff" d="M94.92,-20.92C108.63,-18.95 123.44,-16.82 136.46,-14.94"/>
<polygon fill="#63b8ff" stroke="#63b8ff" points="136.93,-18.41 146.33,-13.52 135.93,-11.48 136.93,-18.41"/>
</a>
</g>
</g>
<!-- Node3 -->
<g id="Node000003" class="node">
<title>Node3</title>
<g id="a_Node000003"><a xlink:href="../../d8/d1b/bit-stream_8h.html#a785b49afc5f57872e0f6cd66adac4067" target="_top" xlink:title=" ">
<polygon fill="white" stroke="#666666" points="348.75,-74.25 254,-74.25 254,-55 348.75,-55 348.75,-74.25"/>
<text text-anchor="middle" x="301.38" y="-60.75" font-family="Helvetica,sans-Serif" font-size="10.00">__bs_be_peek_bit</text>
</a>
</g>
</g>
<!-- Node2&#45;&gt;Node3 -->
<g id="edge2_Node000002_Node000003" class="edge">
<title>Node2&#45;&gt;Node3</title>
<g id="a_edge2_Node000002_Node000003"><a xlink:title=" ">
<path fill="none" stroke="#63b8ff" d="M218.39,-52.82C226.17,-53.94 234.39,-55.12 242.51,-56.29"/>
<polygon fill="#63b8ff" stroke="#63b8ff" points="241.97,-59.75 252.36,-57.71 242.96,-52.82 241.97,-59.75"/>
</a>
</g>
</g>
<!-- Node4 -->
<g id="Node000004" class="node">
<title>Node4</title>
<g id="a_Node000004"><a xlink:href="../../d8/d1b/bit-stream_8h.html#a9314cf527c89c282a39950c0ef72b97f" target="_top" xlink:title=" ">
<polygon fill="white" stroke="#666666" points="331.5,-37.25 271.25,-37.25 271.25,-18 331.5,-18 331.5,-37.25"/>
<text text-anchor="middle" x="301.38" y="-23.75" font-family="Helvetica,sans-Serif" font-size="10.00">__bs_skip</text>
</a>
</g>
</g>
<!-- Node2&#45;&gt;Node4 -->
<g id="edge3_Node000002_Node000004" class="edge">
<title>Node2&#45;&gt;Node4</title>
<g id="a_edge3_Node000002_Node000004"><a xlink:title=" ">
<path fill="none" stroke="#63b8ff" d="M218.39,-40.09C231.83,-38.04 246.6,-35.8 259.86,-33.78"/>
<polygon fill="#63b8ff" stroke="#63b8ff" points="260.19,-37.27 269.55,-32.31 259.14,-30.35 260.19,-37.27"/>
</a>
</g>
</g>
<!-- Node5 -->
<g id="Node000005" class="node">
<title>Node5</title>
<g id="a_Node000005"><a xlink:href="../../d8/d1b/bit-stream_8h.html#ac7c3f7fc264c42a4d53cf5bd3b4e8f49" target="_top" xlink:title=" ">
<polygon fill="white" stroke="#666666" points="459.25,-37.25 384.75,-37.25 384.75,-18 459.25,-18 459.25,-37.25"/>
<text text-anchor="middle" x="422" y="-23.75" font-family="Helvetica,sans-Serif" font-size="10.00">bit_ptroff_add</text>
</a>
</g>
</g>
<!-- Node4&#45;&gt;Node5 -->
<g id="edge4_Node000004_Node000005" class="edge">
<title>Node4&#45;&gt;Node5</title>
<g id="a_edge4_Node000004_Node000005"><a xlink:title=" ">
<path fill="none" stroke="#63b8ff" d="M331.7,-27.62C344.13,-27.62 358.96,-27.62 372.92,-27.62"/>
<polygon fill="#63b8ff" stroke="#63b8ff" points="372.86,-31.13 382.86,-27.63 372.86,-24.13 372.86,-31.13"/>
</a>
</g>
</g>
</g>
</svg>
