<?xml version="1.0" encoding="UTF-8" standalone="no"?>
<!DOCTYPE svg PUBLIC "-//W3C//DTD SVG 1.1//EN"
 "http://www.w3.org/Graphics/SVG/1.1/DTD/svg11.dtd">
<!-- Generated by graphviz version 9.0.0 (20230911.1827)
 -->
<!-- Title: field_bitmap_add_bit Pages: 1 -->
<svg width="2452pt" height="310pt"
 viewBox="0.00 0.00 2451.50 310.00" xmlns="http://www.w3.org/2000/svg" xmlns:xlink="http://www.w3.org/1999/xlink">
<g id="graph0" class="graph" transform="scale(1 1) rotate(0) translate(4 306)">
<title>field_bitmap_add_bit</title>
<!-- Node1 -->
<g id="Node000001" class="node">
<title>Node1</title>
<g id="a_Node000001"><a xlink:title=" ">
<polygon fill="#999999" stroke="#666666" points="104.5,-139.62 0,-139.62 0,-120.38 104.5,-120.38 104.5,-139.62"/>
<text text-anchor="middle" x="52.25" y="-126.12" font-family="Helvetica,sans-Serif" font-size="10.00">field_bitmap_add_bit</text>
</a>
</g>
</g>
<!-- Node2 -->
<g id="Node000002" class="node">
<title>Node2</title>
<g id="a_Node000002"><a xlink:href="../../d6/d42/writer_8c.html#a5d373ebdd5dd1e48a5975c694e7dda52" target="_top" xlink:title=" ">
<polygon fill="white" stroke="#666666" points="219.12,-158.62 140.88,-158.62 140.88,-139.38 219.12,-139.38 219.12,-158.62"/>
<text text-anchor="middle" x="180" y="-145.12" font-family="Helvetica,sans-Serif" font-size="10.00">asn1_opt_field</text>
</a>
</g>
</g>
<!-- Node1&#45;&gt;Node2 -->
<g id="edge1_Node000001_Node000002" class="edge">
<title>Node1&#45;&gt;Node2</title>
<g id="a_edge1_Node000001_Node000002"><a xlink:title=" ">
<path fill="none" stroke="#63b8ff" d="M104.76,-137.78C112.87,-139.01 121.25,-140.27 129.32,-141.49"/>
<polygon fill="#63b8ff" stroke="#63b8ff" points="128.56,-144.92 138.97,-142.95 129.61,-138 128.56,-144.92"/>
</a>
</g>
</g>
<!-- Node3 -->
<g id="Node000003" class="node">
<title>Node3</title>
<g id="a_Node000003"><a xlink:href="../../da/ddb/bit-buf_8h.html#adbc78830d55d31fffd992d2a70327e85" target="_top" xlink:title=" ">
<polygon fill="white" stroke="#666666" points="219.5,-121.62 140.5,-121.62 140.5,-102.38 219.5,-102.38 219.5,-121.62"/>
<text text-anchor="middle" x="180" y="-108.12" font-family="Helvetica,sans-Serif" font-size="10.00">bb_be_add_bit</text>
</a>
</g>
</g>
<!-- Node1&#45;&gt;Node3 -->
<g id="edge2_Node000001_Node000003" class="edge">
<title>Node1&#45;&gt;Node3</title>
<g id="a_edge2_Node000001_Node000003"><a xlink:title=" ">
<path fill="none" stroke="#63b8ff" d="M104.76,-122.63C112.69,-121.49 120.87,-120.32 128.77,-119.19"/>
<polygon fill="#63b8ff" stroke="#63b8ff" points="129.18,-122.67 138.59,-117.78 128.19,-115.74 129.18,-122.67"/>
</a>
</g>
</g>
<!-- Node4 -->
<g id="Node000004" class="node">
<title>Node4</title>
<g id="a_Node000004"><a xlink:href="../../da/ddb/bit-buf_8h.html#a90d46022b0ec0d5b7e12525a125603e1" target="_top" xlink:title=" ">
<polygon fill="white" stroke="#666666" points="308.25,-121.62 255.5,-121.62 255.5,-102.38 308.25,-102.38 308.25,-121.62"/>
<text text-anchor="middle" x="281.88" y="-108.12" font-family="Helvetica,sans-Serif" font-size="10.00">bb_grow</text>
</a>
</g>
</g>
<!-- Node3&#45;&gt;Node4 -->
<g id="edge3_Node000003_Node000004" class="edge">
<title>Node3&#45;&gt;Node4</title>
<g id="a_edge3_Node000003_Node000004"><a xlink:title=" ">
<path fill="none" stroke="#63b8ff" d="M219.9,-112C227.76,-112 236,-112 243.79,-112"/>
<polygon fill="#63b8ff" stroke="#63b8ff" points="243.65,-115.5 253.65,-112 243.65,-108.5 243.65,-115.5"/>
</a>
</g>
</g>
<!-- Node5 -->
<g id="Node000005" class="node">
<title>Node5</title>
<g id="a_Node000005"><a xlink:href="../../d2/d6f/bit-buf_8c.html#a1ccc4c7bc31544c5c75884fa89984eeb" target="_top" xlink:title=" ">
<polygon fill="white" stroke="#666666" points="407.5,-121.62 344.25,-121.62 344.25,-102.38 407.5,-102.38 407.5,-121.62"/>
<text text-anchor="middle" x="375.88" y="-108.12" font-family="Helvetica,sans-Serif" font-size="10.00">__bb_grow</text>
</a>
</g>
</g>
<!-- Node4&#45;&gt;Node5 -->
<g id="edge4_Node000004_Node000005" class="edge">
<title>Node4&#45;&gt;Node5</title>
<g id="a_edge4_Node000004_Node000005"><a xlink:title=" ">
<path fill="none" stroke="#63b8ff" d="M308.5,-112C315.95,-112 324.28,-112 332.47,-112"/>
<polygon fill="#63b8ff" stroke="#63b8ff" points="332.31,-115.5 342.31,-112 332.31,-108.5 332.31,-115.5"/>
</a>
</g>
</g>
<!-- Node6 -->
<g id="Node000006" class="node">
<title>Node6</title>
<g id="a_Node000006"><a xlink:href="../../d9/d9a/mem_8h.html#a15958df365e5c2cc90a6c0c3e7e0e74f" target="_top" xlink:title=" ">
<polygon fill="white" stroke="#666666" points="548,-121.62 443.5,-121.62 443.5,-102.38 548,-102.38 548,-121.62"/>
<text text-anchor="middle" x="495.75" y="-108.12" font-family="Helvetica,sans-Serif" font-size="10.00">mp_irealloc_fallback</text>
</a>
</g>
</g>
<!-- Node5&#45;&gt;Node6 -->
<g id="edge5_Node000005_Node000006" class="edge">
<title>Node5&#45;&gt;Node6</title>
<g id="a_edge5_Node000005_Node000006"><a xlink:title=" ">
<path fill="none" stroke="#63b8ff" d="M407.85,-112C415.25,-112 423.43,-112 431.72,-112"/>
<polygon fill="#63b8ff" stroke="#63b8ff" points="431.51,-115.5 441.51,-112 431.51,-108.5 431.51,-115.5"/>
</a>
</g>
</g>
<!-- Node7 -->
<g id="Node000007" class="node">
<title>Node7</title>
<g id="a_Node000007"><a xlink:href="../../d8/d37/mem_8blk.html#a2fa974dc4e9f038e5bc400eb689b74b4" target="_top" xlink:title=" ">
<polygon fill="white" stroke="#666666" points="699,-197.62 584,-197.62 584,-178.38 699,-178.38 699,-197.62"/>
<text text-anchor="middle" x="641.5" y="-184.12" font-family="Helvetica,sans-Serif" font-size="10.00">__mp_irealloc_fallback</text>
</a>
</g>
</g>
<!-- Node6&#45;&gt;Node7 -->
<g id="edge6_Node000006_Node000007" class="edge">
<title>Node6&#45;&gt;Node7</title>
<g id="a_edge6_Node000006_Node000007"><a xlink:title=" ">
<path fill="none" stroke="#63b8ff" d="M515.84,-122.09C540.35,-135.05 583.13,-157.67 611.63,-172.74"/>
<polygon fill="#63b8ff" stroke="#63b8ff" points="609.97,-175.82 620.45,-177.4 613.25,-169.63 609.97,-175.82"/>
</a>
</g>
</g>
<!-- Node37 -->
<g id="Node000037" class="node">
<title>Node37</title>
<g id="a_Node000037"><a xlink:href="../../d9/d9a/mem_8h.html#ae99e17ad0b27e94e8a00c8af9734a0e7" target="_top" xlink:title=" ">
<polygon fill="white" stroke="#666666" points="1177,-83.62 1064.25,-83.62 1064.25,-64.38 1177,-64.38 1177,-83.62"/>
<text text-anchor="middle" x="1120.62" y="-70.12" font-family="Helvetica,sans-Serif" font-size="10.00">icheck_alloc_constant</text>
</a>
</g>
</g>
<!-- Node6&#45;&gt;Node37 -->
<g id="edge52_Node000006_Node000037" class="edge">
<title>Node6&#45;&gt;Node37</title>
<g id="a_edge52_Node000006_Node000037"><a xlink:title=" ">
<path fill="none" stroke="#63b8ff" d="M517.54,-101.91C562.09,-81.23 670.57,-36 766.75,-36 766.75,-36 766.75,-36 875.5,-36 942.95,-36 1019.65,-50.34 1068.78,-61.4"/>
<polygon fill="#63b8ff" stroke="#63b8ff" points="1067.74,-64.75 1078.27,-63.58 1069.31,-57.93 1067.74,-64.75"/>
</a>
</g>
</g>
<!-- Node8 -->
<g id="Node000008" class="node">
<title>Node8</title>
<g id="a_Node000008"><a xlink:href="../../d8/d37/mem_8blk.html#a8e4fbf6500e65079c31e3fd933ae7dc1" target="_top" xlink:title=" ">
<polygon fill="white" stroke="#666666" points="1299.12,-235.62 1229.12,-235.62 1229.12,-216.38 1299.12,-216.38 1299.12,-235.62"/>
<text text-anchor="middle" x="1264.12" y="-222.12" font-family="Helvetica,sans-Serif" font-size="10.00">icheck_alloc</text>
</a>
</g>
</g>
<!-- Node7&#45;&gt;Node8 -->
<g id="edge7_Node000007_Node000008" class="edge">
<title>Node7&#45;&gt;Node8</title>
<g id="a_edge7_Node000007_Node000008"><a xlink:title=" ">
<path fill="none" stroke="#63b8ff" d="M660.11,-198.09C697.9,-218.77 790.12,-264 873.5,-264 873.5,-264 873.5,-264 989.38,-264 1073.11,-264 1094.4,-260.73 1177,-247 1190.39,-244.77 1204.77,-241.59 1217.87,-238.37"/>
<polygon fill="#63b8ff" stroke="#63b8ff" points="1218.7,-241.77 1227.53,-235.93 1216.98,-234.99 1218.7,-241.77"/>
</a>
</g>
</g>
<!-- Node24 -->
<g id="Node000024" class="node">
<title>Node24</title>
<g id="a_Node000024"><a xlink:href="../../d8/d37/mem_8blk.html#a83c7cf203e5eef9d1a8c6c43cde3e2e5" target="_top" xlink:title=" ">
<polygon fill="white" stroke="#666666" points="2365.25,-234.62 2311.75,-234.62 2311.75,-215.38 2365.25,-215.38 2365.25,-234.62"/>
<text text-anchor="middle" x="2338.5" y="-221.12" font-family="Helvetica,sans-Serif" font-size="10.00">mp_ifree</text>
</a>
</g>
</g>
<!-- Node7&#45;&gt;Node24 -->
<g id="edge37_Node000007_Node000024" class="edge">
<title>Node7&#45;&gt;Node24</title>
<g id="a_edge37_Node000007_Node000024"><a xlink:title=" ">
<path fill="none" stroke="#63b8ff" d="M653.06,-197.94C669.43,-212.88 702.45,-241.15 735,-258 792.36,-287.69 808.91,-302 873.5,-302 873.5,-302 873.5,-302 2148.5,-302 2212.35,-302 2279.96,-263.84 2314.4,-241.25"/>
<polygon fill="#63b8ff" stroke="#63b8ff" points="2315.99,-244.4 2322.34,-235.91 2312.09,-238.59 2315.99,-244.4"/>
</a>
</g>
</g>
<!-- Node33 -->
<g id="Node000033" class="node">
<title>Node33</title>
<g id="a_Node000033"><a xlink:href="../../d9/d9a/mem_8h.html#ada6bb9661f0c10ccaa14d231c24aeafd" target="_top" xlink:title=" ">
<polygon fill="white" stroke="#666666" points="1021.12,-197.62 955.62,-197.62 955.62,-178.38 1021.12,-178.38 1021.12,-197.62"/>
<text text-anchor="middle" x="988.38" y="-184.12" font-family="Helvetica,sans-Serif" font-size="10.00">mp_imalloc</text>
</a>
</g>
</g>
<!-- Node7&#45;&gt;Node33 -->
<g id="edge38_Node000007_Node000033" class="edge">
<title>Node7&#45;&gt;Node33</title>
<g id="a_edge38_Node000007_Node000033"><a xlink:title=" ">
<path fill="none" stroke="#63b8ff" d="M699.45,-188C768.11,-188 881.97,-188 943.94,-188"/>
<polygon fill="#63b8ff" stroke="#63b8ff" points="943.74,-191.5 953.74,-188 943.74,-184.5 943.74,-191.5"/>
</a>
</g>
</g>
<!-- Node39 -->
<g id="Node000039" class="node">
<title>Node39</title>
<g id="a_Node000039"><a xlink:href="../../d9/d9a/mem_8h.html#aabfb5bf96a257374cbc245548b81c4ff" target="_top" xlink:title=" ">
<polygon fill="white" stroke="#666666" points="800.5,-159.62 735,-159.62 735,-140.38 800.5,-140.38 800.5,-159.62"/>
<text text-anchor="middle" x="767.75" y="-146.12" font-family="Helvetica,sans-Serif" font-size="10.00">mp_irealloc</text>
</a>
</g>
</g>
<!-- Node7&#45;&gt;Node39 -->
<g id="edge45_Node000007_Node000039" class="edge">
<title>Node7&#45;&gt;Node39</title>
<g id="a_edge45_Node000007_Node000039"><a xlink:title=" ">
<path fill="none" stroke="#63b8ff" d="M675.47,-177.92C690.42,-173.34 708.29,-167.88 724.24,-163"/>
<polygon fill="#63b8ff" stroke="#63b8ff" points="724.93,-166.45 733.47,-160.18 722.88,-159.76 724.93,-166.45"/>
</a>
</g>
</g>
<!-- Node9 -->
<g id="Node000009" class="node">
<title>Node9</title>
<g id="a_Node000009"><a xlink:href="../../d7/df8/log_8c.html#abca342edf91a9b45f7a17ef564fa8a53" target="_top" xlink:title=" ">
<polygon fill="white" stroke="#666666" points="1406.25,-235.62 1356.5,-235.62 1356.5,-216.38 1406.25,-216.38 1406.25,-235.62"/>
<text text-anchor="middle" x="1381.38" y="-222.12" font-family="Helvetica,sans-Serif" font-size="10.00">e_panic</text>
</a>
</g>
</g>
<!-- Node8&#45;&gt;Node9 -->
<g id="edge8_Node000008_Node000009" class="edge">
<title>Node8&#45;&gt;Node9</title>
<g id="a_edge8_Node000008_Node000009"><a xlink:title=" ">
<path fill="none" stroke="#63b8ff" d="M1299.39,-226C1313.84,-226 1330.65,-226 1345.2,-226"/>
<polygon fill="#63b8ff" stroke="#63b8ff" points="1344.78,-229.5 1354.78,-226 1344.78,-222.5 1344.78,-229.5"/>
</a>
</g>
</g>
<!-- Node10 -->
<g id="Node000010" class="node">
<title>Node10</title>
<g id="a_Node000010"><a xlink:href="../../d7/df8/log_8c.html#a4bc04f7baa1e064cb0b93c7b9f3a61a1" target="_top" xlink:title=" ">
<polygon fill="white" stroke="#666666" points="1535.5,-121.62 1447.5,-121.62 1447.5,-102.38 1535.5,-102.38 1535.5,-121.62"/>
<text text-anchor="middle" x="1491.5" y="-108.12" font-family="Helvetica,sans-Serif" font-size="10.00">__logger_refresh</text>
</a>
</g>
</g>
<!-- Node9&#45;&gt;Node10 -->
<g id="edge9_Node000009_Node000010" class="edge">
<title>Node9&#45;&gt;Node10</title>
<g id="a_edge9_Node000009_Node000010"><a xlink:title=" ">
<path fill="none" stroke="#63b8ff" d="M1391.97,-215.88C1410.29,-196.57 1450.47,-154.2 1473.46,-129.97"/>
<polygon fill="#63b8ff" stroke="#63b8ff" points="1475.7,-132.69 1480.04,-123.03 1470.62,-127.88 1475.7,-132.69"/>
</a>
</g>
</g>
<!-- Node28 -->
<g id="Node000028" class="node">
<title>Node28</title>
<g id="a_Node000028"><a xlink:href="../../d7/df8/log_8c.html#a900490b26df7698aac12f7f7e6517e81" target="_top" xlink:title=" ">
<polygon fill="white" stroke="#666666" points="1524.25,-235.62 1458.75,-235.62 1458.75,-216.38 1524.25,-216.38 1524.25,-235.62"/>
<text text-anchor="middle" x="1491.5" y="-222.12" font-family="Helvetica,sans-Serif" font-size="10.00">logger_vlog</text>
</a>
</g>
</g>
<!-- Node9&#45;&gt;Node28 -->
<g id="edge31_Node000009_Node000028" class="edge">
<title>Node9&#45;&gt;Node28</title>
<g id="a_edge31_Node000009_Node000028"><a xlink:title=" ">
<path fill="none" stroke="#63b8ff" d="M1406.64,-226C1418.61,-226 1433.41,-226 1447.22,-226"/>
<polygon fill="#63b8ff" stroke="#63b8ff" points="1447,-229.5 1457,-226 1447,-222.5 1447,-229.5"/>
</a>
</g>
</g>
<!-- Node32 -->
<g id="Node000032" class="node">
<title>Node32</title>
<g id="a_Node000032"><a xlink:href="../../d2/d4d/file_8h.html#a25419a391fdd4ad7954699c58cfeb3b9" target="_top" xlink:title=" ">
<polygon fill="white" stroke="#666666" points="1517.12,-272.62 1465.88,-272.62 1465.88,-253.38 1517.12,-253.38 1517.12,-272.62"/>
<text text-anchor="middle" x="1491.5" y="-259.12" font-family="Helvetica,sans-Serif" font-size="10.00">va_start</text>
</a>
</g>
</g>
<!-- Node9&#45;&gt;Node32 -->
<g id="edge36_Node000009_Node000032" class="edge">
<title>Node9&#45;&gt;Node32</title>
<g id="a_edge36_Node000009_Node000032"><a xlink:title=" ">
<path fill="none" stroke="#63b8ff" d="M1406.64,-234.3C1420.91,-239.19 1439.2,-245.44 1455.06,-250.87"/>
<polygon fill="#63b8ff" stroke="#63b8ff" points="1453.54,-254.05 1464.13,-253.98 1455.81,-247.43 1453.54,-254.05"/>
</a>
</g>
</g>
<!-- Node11 -->
<g id="Node000011" class="node">
<title>Node11</title>
<g id="a_Node000011"><a xlink:href="../../d7/df8/log_8c.html#a3dbd75fb614210f0b114cfd03c9c0a7b" target="_top" xlink:title=" ">
<polygon fill="white" stroke="#666666" points="1675.25,-140.62 1571.5,-140.62 1571.5,-121.38 1675.25,-121.38 1675.25,-140.62"/>
<text text-anchor="middle" x="1623.38" y="-127.12" font-family="Helvetica,sans-Serif" font-size="10.00">__logger_do_refresh</text>
</a>
</g>
</g>
<!-- Node10&#45;&gt;Node11 -->
<g id="edge10_Node000010_Node000011" class="edge">
<title>Node10&#45;&gt;Node11</title>
<g id="a_edge10_Node000010_Node000011"><a xlink:title=" ">
<path fill="none" stroke="#63b8ff" d="M1535.75,-118.33C1543.56,-119.47 1551.84,-120.68 1560.07,-121.89"/>
<polygon fill="#63b8ff" stroke="#63b8ff" points="1559.31,-125.31 1569.71,-123.3 1560.33,-118.39 1559.31,-125.31"/>
</a>
</g>
</g>
<!-- Node26 -->
<g id="Node000026" class="node">
<title>Node26</title>
<g id="a_Node000026"><a xlink:href="../../d7/df8/log_8c.html#a7b1b02d1986e1247c2f571af4a2c2854" target="_top" xlink:title=" ">
<polygon fill="white" stroke="#666666" points="1661,-66.62 1585.75,-66.62 1585.75,-47.38 1661,-47.38 1661,-66.62"/>
<text text-anchor="middle" x="1623.38" y="-53.12" font-family="Helvetica,sans-Serif" font-size="10.00">log_spin_lock</text>
</a>
</g>
</g>
<!-- Node10&#45;&gt;Node26 -->
<g id="edge29_Node000010_Node000026" class="edge">
<title>Node10&#45;&gt;Node26</title>
<g id="a_edge29_Node000010_Node000026"><a xlink:title=" ">
<path fill="none" stroke="#63b8ff" d="M1512.39,-102.02C1528.22,-94.24 1551.04,-83.39 1571.5,-75 1574.84,-73.63 1578.32,-72.27 1581.83,-70.94"/>
<polygon fill="#63b8ff" stroke="#63b8ff" points="1582.73,-74.34 1590.91,-67.6 1580.32,-67.77 1582.73,-74.34"/>
</a>
</g>
</g>
<!-- Node27 -->
<g id="Node000027" class="node">
<title>Node27</title>
<g id="a_Node000027"><a xlink:href="../../d1/dc0/group__log.html#ga045020bb4af234632f7761f220131c69" target="_top" xlink:title=" ">
<polygon fill="white" stroke="#666666" points="1666.25,-103.62 1580.5,-103.62 1580.5,-84.38 1666.25,-84.38 1666.25,-103.62"/>
<text text-anchor="middle" x="1623.38" y="-90.12" font-family="Helvetica,sans-Serif" font-size="10.00">log_spin_unlock</text>
</a>
</g>
</g>
<!-- Node10&#45;&gt;Node27 -->
<g id="edge30_Node000010_Node000027" class="edge">
<title>Node10&#45;&gt;Node27</title>
<g id="a_edge30_Node000010_Node000027"><a xlink:title=" ">
<path fill="none" stroke="#63b8ff" d="M1535.75,-106.01C1546.37,-104.53 1557.87,-102.94 1568.91,-101.41"/>
<polygon fill="#63b8ff" stroke="#63b8ff" points="1569.28,-104.89 1578.7,-100.05 1568.31,-97.96 1569.28,-104.89"/>
</a>
</g>
</g>
<!-- Node11&#45;&gt;Node11 -->
<g id="edge11_Node000011_Node000011" class="edge">
<title>Node11&#45;&gt;Node11</title>
<g id="a_edge11_Node000011_Node000011"><a xlink:title=" ">
<path fill="none" stroke="#63b8ff" d="M1602.73,-140.91C1593.31,-149.52 1600.19,-158.62 1623.38,-158.62 1636.05,-158.62 1643.85,-155.9 1646.78,-152.03"/>
<polygon fill="#63b8ff" stroke="#63b8ff" points="1650.19,-151.24 1644.39,-142.38 1643.4,-152.93 1650.19,-151.24"/>
</a>
</g>
</g>
<!-- Node12 -->
<g id="Node000012" class="node">
<title>Node12</title>
<g id="a_Node000012"><a xlink:href="../../de/d1a/container-dlist_8h.html#a3b6f65860b212e28f2e28e71eb54d54d" target="_top" xlink:title="Add element e at the head of list l (suited for LIFO).">
<polygon fill="white" stroke="#666666" points="1802.25,-84.62 1747.25,-84.62 1747.25,-65.38 1802.25,-65.38 1802.25,-84.62"/>
<text text-anchor="middle" x="1774.75" y="-71.12" font-family="Helvetica,sans-Serif" font-size="10.00">dlist_add</text>
</a>
</g>
</g>
<!-- Node11&#45;&gt;Node12 -->
<g id="edge12_Node000011_Node000012" class="edge">
<title>Node11&#45;&gt;Node12</title>
<g id="a_edge12_Node000011_Node000012"><a xlink:title=" ">
<path fill="none" stroke="#63b8ff" d="M1655.37,-120.96C1662.01,-118.56 1668.93,-115.85 1675.25,-113 1691.94,-105.48 1694.35,-100.02 1711.25,-93 1719.06,-89.75 1727.66,-86.87 1735.91,-84.4"/>
<polygon fill="#63b8ff" stroke="#63b8ff" points="1736.71,-87.82 1745.38,-81.73 1734.8,-81.08 1736.71,-87.82"/>
</a>
</g>
</g>
<!-- Node14 -->
<g id="Node000014" class="node">
<title>Node14</title>
<g id="a_Node000014"><a xlink:href="../../de/d1a/container-dlist_8h.html#a0a69e401f6ec15966c891e96ad864c77" target="_top" xlink:title="Put a dlist_t element in a safe and detached state.">
<polygon fill="white" stroke="#666666" points="1800.75,-121.62 1748.75,-121.62 1748.75,-102.38 1800.75,-102.38 1800.75,-121.62"/>
<text text-anchor="middle" x="1774.75" y="-108.12" font-family="Helvetica,sans-Serif" font-size="10.00">dlist_init</text>
</a>
</g>
</g>
<!-- Node11&#45;&gt;Node14 -->
<g id="edge14_Node000011_Node000014" class="edge">
<title>Node11&#45;&gt;Node14</title>
<g id="a_edge14_Node000011_Node000014"><a xlink:title=" ">
<path fill="none" stroke="#63b8ff" d="M1675.36,-124.51C1695.7,-121.93 1718.66,-119.01 1737.28,-116.64"/>
<polygon fill="#63b8ff" stroke="#63b8ff" points="1737.55,-120.13 1747.03,-115.4 1736.67,-113.19 1737.55,-120.13"/>
</a>
</g>
</g>
<!-- Node15 -->
<g id="Node000015" class="node">
<title>Node15</title>
<g id="a_Node000015"><a xlink:href="../../d7/df8/log_8c.html#a4c8fbe8648573312126ce341cf34cba1" target="_top" xlink:title=" ">
<polygon fill="white" stroke="#666666" points="1838.25,-197.62 1711.25,-197.62 1711.25,-178.38 1838.25,-178.38 1838.25,-197.62"/>
<text text-anchor="middle" x="1774.75" y="-184.12" font-family="Helvetica,sans-Serif" font-size="10.00">logger_compute_fullname</text>
</a>
</g>
</g>
<!-- Node11&#45;&gt;Node15 -->
<g id="edge15_Node000011_Node000015" class="edge">
<title>Node11&#45;&gt;Node15</title>
<g id="a_edge15_Node000011_Node000015"><a xlink:title=" ">
<path fill="none" stroke="#63b8ff" d="M1650.74,-141.06C1674.66,-150.19 1710.18,-163.74 1736.91,-173.94"/>
<polygon fill="#63b8ff" stroke="#63b8ff" points="1735.4,-177.11 1745.99,-177.41 1737.89,-170.57 1735.4,-177.11"/>
</a>
</g>
</g>
<!-- Node18 -->
<g id="Node000018" class="node">
<title>Node18</title>
<g id="a_Node000018"><a xlink:href="../../df/d0a/str-l_8h.html#ad74dae07179370f3c22e3f026157926e" target="_top" xlink:title="wipe a lstr_t (frees memory if needed).">
<polygon fill="white" stroke="#666666" points="1945.75,-178.62 1890.75,-178.62 1890.75,-159.38 1945.75,-159.38 1945.75,-178.62"/>
<text text-anchor="middle" x="1918.25" y="-165.12" font-family="Helvetica,sans-Serif" font-size="10.00">lstr_wipe</text>
</a>
</g>
</g>
<!-- Node11&#45;&gt;Node18 -->
<g id="edge28_Node000011_Node000018" class="edge">
<title>Node11&#45;&gt;Node18</title>
<g id="a_edge28_Node000011_Node000018"><a xlink:title=" ">
<path fill="none" stroke="#63b8ff" d="M1675.73,-137.66C1733.86,-145.21 1827.24,-157.32 1879.21,-164.06"/>
<polygon fill="#63b8ff" stroke="#63b8ff" points="1878.7,-167.53 1889.06,-165.34 1879.6,-160.59 1878.7,-167.53"/>
</a>
</g>
</g>
<!-- Node25 -->
<g id="Node000025" class="node">
<title>Node25</title>
<g id="a_Node000025"><a xlink:href="../../df/d0a/str-l_8h.html#a963c22b229774d4b7c106bae4011cb8e" target="_top" xlink:title="Returns whether \v s1 and \v s2 contents are equal.">
<polygon fill="white" stroke="#666666" points="1803.75,-47.62 1745.75,-47.62 1745.75,-28.38 1803.75,-28.38 1803.75,-47.62"/>
<text text-anchor="middle" x="1774.75" y="-34.12" font-family="Helvetica,sans-Serif" font-size="10.00">lstr_equal</text>
</a>
</g>
</g>
<!-- Node11&#45;&gt;Node25 -->
<g id="edge27_Node000011_Node000025" class="edge">
<title>Node11&#45;&gt;Node25</title>
<g id="a_edge27_Node000011_Node000025"><a xlink:title=" ">
<path fill="none" stroke="#63b8ff" d="M1662.03,-120.96C1666.75,-118.78 1671.3,-116.16 1675.25,-113 1698.67,-94.3 1687.29,-73.99 1711.25,-56 1718.02,-50.92 1726.18,-47.27 1734.34,-44.65"/>
<polygon fill="#63b8ff" stroke="#63b8ff" points="1735.13,-48.06 1743.87,-42.07 1733.3,-41.31 1735.13,-48.06"/>
</a>
</g>
</g>
<!-- Node13 -->
<g id="Node000013" class="node">
<title>Node13</title>
<g id="a_Node000013"><a xlink:href="../../de/d1a/container-dlist_8h.html#a71e7667ca0e4b896923788c5851afd24" target="_top" xlink:title="Put element e between prev and next.">
<polygon fill="white" stroke="#666666" points="1951,-84.62 1885.5,-84.62 1885.5,-65.38 1951,-65.38 1951,-84.62"/>
<text text-anchor="middle" x="1918.25" y="-71.12" font-family="Helvetica,sans-Serif" font-size="10.00">__dlist_add</text>
</a>
</g>
</g>
<!-- Node12&#45;&gt;Node13 -->
<g id="edge13_Node000012_Node000013" class="edge">
<title>Node12&#45;&gt;Node13</title>
<g id="a_edge13_Node000012_Node000013"><a xlink:title=" ">
<path fill="none" stroke="#63b8ff" d="M1802.7,-75C1822.8,-75 1850.67,-75 1873.89,-75"/>
<polygon fill="#63b8ff" stroke="#63b8ff" points="1873.69,-78.5 1883.69,-75 1873.69,-71.5 1873.69,-78.5"/>
</a>
</g>
</g>
<!-- Node16 -->
<g id="Node000016" class="node">
<title>Node16</title>
<g id="a_Node000016"><a xlink:href="../../df/d0a/str-l_8h.html#a6a200ca09358f19b13a8e297cda34869" target="_top" xlink:title="returns a constant copy of \v s.">
<polygon fill="white" stroke="#666666" points="1946.12,-216.62 1890.38,-216.62 1890.38,-197.38 1946.12,-197.38 1946.12,-216.62"/>
<text text-anchor="middle" x="1918.25" y="-203.12" font-family="Helvetica,sans-Serif" font-size="10.00">lstr_dupc</text>
</a>
</g>
</g>
<!-- Node15&#45;&gt;Node16 -->
<g id="edge16_Node000015_Node000016" class="edge">
<title>Node15&#45;&gt;Node16</title>
<g id="a_edge16_Node000015_Node000016"><a xlink:title=" ">
<path fill="none" stroke="#63b8ff" d="M1838.64,-196.44C1852.29,-198.28 1866.33,-200.16 1878.7,-201.82"/>
<polygon fill="#63b8ff" stroke="#63b8ff" points="1878.11,-205.28 1888.49,-203.14 1879.04,-198.34 1878.11,-205.28"/>
</a>
</g>
</g>
<!-- Node15&#45;&gt;Node18 -->
<g id="edge18_Node000015_Node000018" class="edge">
<title>Node15&#45;&gt;Node18</title>
<g id="a_edge18_Node000015_Node000018"><a xlink:title=" ">
<path fill="none" stroke="#63b8ff" d="M1838.64,-179.56C1852.4,-177.71 1866.56,-175.81 1879.01,-174.14"/>
<polygon fill="#63b8ff" stroke="#63b8ff" points="1879.4,-177.61 1888.84,-172.81 1878.47,-170.68 1879.4,-177.61"/>
</a>
</g>
</g>
<!-- Node17 -->
<g id="Node000017" class="node">
<title>Node17</title>
<g id="a_Node000017"><a xlink:href="../../df/d0a/str-l_8h.html#a3b4dbe9c4cc70340cba0787574dc1c5e" target="_top" xlink:title=" ">
<polygon fill="white" stroke="#666666" points="2275.75,-216.62 2223,-216.62 2223,-197.38 2275.75,-197.38 2275.75,-216.62"/>
<text text-anchor="middle" x="2249.38" y="-203.12" font-family="Helvetica,sans-Serif" font-size="10.00">lstr_init_</text>
</a>
</g>
</g>
<!-- Node16&#45;&gt;Node17 -->
<g id="edge17_Node000016_Node000017" class="edge">
<title>Node16&#45;&gt;Node17</title>
<g id="a_edge17_Node000016_Node000017"><a xlink:title=" ">
<path fill="none" stroke="#63b8ff" d="M1946.46,-207C2005.31,-207 2144.44,-207 2211.28,-207"/>
<polygon fill="#63b8ff" stroke="#63b8ff" points="2210.99,-210.5 2220.99,-207 2210.99,-203.5 2210.99,-210.5"/>
</a>
</g>
</g>
<!-- Node19 -->
<g id="Node000019" class="node">
<title>Node19</title>
<g id="a_Node000019"><a xlink:href="../../df/d0a/str-l_8h.html#a381cd831ac9616c5bea8213bb679d1ac" target="_top" xlink:title="Wipe a lstr_t (frees memory if needed).">
<polygon fill="white" stroke="#666666" points="2072,-178.62 1998.25,-178.62 1998.25,-159.38 2072,-159.38 2072,-178.62"/>
<text text-anchor="middle" x="2035.12" y="-165.12" font-family="Helvetica,sans-Serif" font-size="10.00">mp_lstr_wipe</text>
</a>
</g>
</g>
<!-- Node18&#45;&gt;Node19 -->
<g id="edge19_Node000018_Node000019" class="edge">
<title>Node18&#45;&gt;Node19</title>
<g id="a_edge19_Node000018_Node000019"><a xlink:title=" ">
<path fill="none" stroke="#63b8ff" d="M1946.18,-169C1958.2,-169 1972.73,-169 1986.49,-169"/>
<polygon fill="#63b8ff" stroke="#63b8ff" points="1986.28,-172.5 1996.28,-169 1986.28,-165.5 1986.28,-172.5"/>
</a>
</g>
</g>
<!-- Node20 -->
<g id="Node000020" class="node">
<title>Node20</title>
<g id="a_Node000020"><a xlink:href="../../de/d04/str-l_8c.html#abe2a3a71f0b4dbc7d37c59d16762b6fb" target="_top" xlink:title="lstr_copy_* helper.">
<polygon fill="white" stroke="#666666" points="2187,-178.62 2108,-178.62 2108,-159.38 2187,-159.38 2187,-178.62"/>
<text text-anchor="middle" x="2147.5" y="-165.12" font-family="Helvetica,sans-Serif" font-size="10.00">mp_lstr_copy_</text>
</a>
</g>
</g>
<!-- Node19&#45;&gt;Node20 -->
<g id="edge20_Node000019_Node000020" class="edge">
<title>Node19&#45;&gt;Node20</title>
<g id="a_edge20_Node000019_Node000020"><a xlink:title=" ">
<path fill="none" stroke="#63b8ff" d="M2072.27,-169C2079.96,-169 2088.21,-169 2096.32,-169"/>
<polygon fill="#63b8ff" stroke="#63b8ff" points="2096.1,-172.5 2106.1,-169 2096.1,-165.5 2096.1,-172.5"/>
</a>
</g>
</g>
<!-- Node20&#45;&gt;Node17 -->
<g id="edge26_Node000020_Node000017" class="edge">
<title>Node20&#45;&gt;Node17</title>
<g id="a_edge26_Node000020_Node000017"><a xlink:title=" ">
<path fill="none" stroke="#63b8ff" d="M2175,-179.08C2186.44,-183.44 2200.01,-188.6 2212.35,-193.29"/>
<polygon fill="#63b8ff" stroke="#63b8ff" points="2210.78,-196.44 2221.37,-196.73 2213.27,-189.9 2210.78,-196.44"/>
</a>
</g>
</g>
<!-- Node21 -->
<g id="Node000021" class="node">
<title>Node21</title>
<g id="a_Node000021"><a xlink:href="../../d9/d9a/mem_8h.html#aebbbd277e2952bdb802104671ba23ba9" target="_top" xlink:title=" ">
<polygon fill="white" stroke="#666666" points="2266.75,-178.62 2232,-178.62 2232,-159.38 2266.75,-159.38 2266.75,-178.62"/>
<text text-anchor="middle" x="2249.38" y="-165.12" font-family="Helvetica,sans-Serif" font-size="10.00">ifree</text>
</a>
</g>
</g>
<!-- Node20&#45;&gt;Node21 -->
<g id="edge21_Node000020_Node000021" class="edge">
<title>Node20&#45;&gt;Node21</title>
<g id="a_edge21_Node000020_Node000021"><a xlink:title=" ">
<path fill="none" stroke="#63b8ff" d="M2187.4,-169C2198.3,-169 2209.95,-169 2220.1,-169"/>
<polygon fill="#63b8ff" stroke="#63b8ff" points="2220.1,-172.5 2230.1,-169 2220.1,-165.5 2220.1,-172.5"/>
</a>
</g>
</g>
<!-- Node22 -->
<g id="Node000022" class="node">
<title>Node22</title>
<g id="a_Node000022"><a xlink:href="../../d8/d37/mem_8blk.html#a36b65ab346f1d0deed7b63c544c78f2b" target="_top" xlink:title=" ">
<polygon fill="white" stroke="#666666" points="2356.62,-122.62 2320.38,-122.62 2320.38,-103.38 2356.62,-103.38 2356.62,-122.62"/>
<text text-anchor="middle" x="2338.5" y="-109.12" font-family="Helvetica,sans-Serif" font-size="10.00">ipool</text>
</a>
</g>
</g>
<!-- Node21&#45;&gt;Node22 -->
<g id="edge22_Node000021_Node000022" class="edge">
<title>Node21&#45;&gt;Node22</title>
<g id="a_edge22_Node000021_Node000022"><a xlink:title=" ">
<path fill="none" stroke="#63b8ff" d="M2265.95,-158.99C2278.76,-150.76 2297.16,-138.93 2312.09,-129.33"/>
<polygon fill="#63b8ff" stroke="#63b8ff" points="2313.97,-132.28 2320.49,-123.93 2310.19,-126.39 2313.97,-132.28"/>
</a>
</g>
</g>
<!-- Node21&#45;&gt;Node24 -->
<g id="edge25_Node000021_Node000024" class="edge">
<title>Node21&#45;&gt;Node24</title>
<g id="a_edge25_Node000021_Node000024"><a xlink:title=" ">
<path fill="none" stroke="#63b8ff" d="M2265.95,-179.01C2278.76,-187.24 2297.16,-199.07 2312.09,-208.67"/>
<polygon fill="#63b8ff" stroke="#63b8ff" points="2310.19,-211.61 2320.49,-214.07 2313.97,-205.72 2310.19,-211.61"/>
</a>
</g>
</g>
<!-- Node22&#45;&gt;Node9 -->
<g id="edge23_Node000022_Node000009" class="edge">
<title>Node22&#45;&gt;Node9</title>
<g id="a_edge23_Node000022_Node000009"><a xlink:title=" ">
<path fill="none" stroke="#63b8ff" d="M2328.81,-102.97C2303.81,-75.32 2228.4,0 2148.5,0 1622.38,0 1622.38,0 1622.38,0 1534.35,0 1505.69,-26.94 1447.5,-93 1417.66,-126.88 1433.47,-148.55 1411.5,-188 1407.78,-194.67 1402.98,-201.45 1398.36,-207.4"/>
<polygon fill="#63b8ff" stroke="#63b8ff" points="1395.97,-204.79 1392.36,-214.75 1401.39,-209.21 1395.97,-204.79"/>
</a>
</g>
</g>
<!-- Node23 -->
<g id="Node000023" class="node">
<title>Node23</title>
<g id="a_Node000023"><a xlink:href="../../d1/d10/mem-stack_8h.html#a1d0e2a29f86dc033a02e50484b527fd0" target="_top" xlink:title=" ">
<polygon fill="white" stroke="#666666" points="2443.5,-122.62 2401.25,-122.62 2401.25,-103.38 2443.5,-103.38 2443.5,-122.62"/>
<text text-anchor="middle" x="2422.38" y="-109.12" font-family="Helvetica,sans-Serif" font-size="10.00">t_pool</text>
</a>
</g>
</g>
<!-- Node22&#45;&gt;Node23 -->
<g id="edge24_Node000022_Node000023" class="edge">
<title>Node22&#45;&gt;Node23</title>
<g id="a_edge24_Node000022_Node000023"><a xlink:title=" ">
<path fill="none" stroke="#63b8ff" d="M2356.86,-113C2366.31,-113 2378.29,-113 2389.36,-113"/>
<polygon fill="#63b8ff" stroke="#63b8ff" points="2389.34,-116.5 2399.34,-113 2389.34,-109.5 2389.34,-116.5"/>
</a>
</g>
</g>
<!-- Node28&#45;&gt;Node16 -->
<g id="edge35_Node000028_Node000016" class="edge">
<title>Node28&#45;&gt;Node16</title>
<g id="a_edge35_Node000028_Node000016"><a xlink:title=" ">
<path fill="none" stroke="#63b8ff" d="M1524.43,-224.57C1601.11,-221.14 1795.45,-212.45 1878.58,-208.73"/>
<polygon fill="#63b8ff" stroke="#63b8ff" points="1878.66,-212.23 1888.49,-208.29 1878.35,-205.24 1878.66,-212.23"/>
</a>
</g>
</g>
<!-- Node29 -->
<g id="Node000029" class="node">
<title>Node29</title>
<g id="a_Node000029"><a xlink:href="../../d1/dc0/group__log.html#ga168a6f17b248f61f7d25a17d58d04e36" target="_top" xlink:title=" ">
<polygon fill="white" stroke="#666666" points="1667.75,-273.62 1579,-273.62 1579,-254.38 1667.75,-254.38 1667.75,-273.62"/>
<text text-anchor="middle" x="1623.38" y="-260.12" font-family="Helvetica,sans-Serif" font-size="10.00">logger_has_level</text>
</a>
</g>
</g>
<!-- Node28&#45;&gt;Node29 -->
<g id="edge32_Node000028_Node000029" class="edge">
<title>Node28&#45;&gt;Node29</title>
<g id="a_edge32_Node000028_Node000029"><a xlink:title=" ">
<path fill="none" stroke="#63b8ff" d="M1524.6,-235.39C1540.38,-240.01 1559.66,-245.65 1576.92,-250.7"/>
<polygon fill="#63b8ff" stroke="#63b8ff" points="1575.88,-254.04 1586.46,-253.49 1577.84,-247.32 1575.88,-254.04"/>
</a>
</g>
</g>
<!-- Node30 -->
<g id="Node000030" class="node">
<title>Node30</title>
<g id="a_Node000030"><a xlink:href="../../d1/dc0/group__log.html#gaf388752b988541da0abeceecdf96e6b3" target="_top" xlink:title=" ">
<polygon fill="white" stroke="#666666" points="1818,-273.62 1731.5,-273.62 1731.5,-254.38 1818,-254.38 1818,-273.62"/>
<text text-anchor="middle" x="1774.75" y="-260.12" font-family="Helvetica,sans-Serif" font-size="10.00">logger_get_level</text>
</a>
</g>
</g>
<!-- Node29&#45;&gt;Node30 -->
<g id="edge33_Node000029_Node000030" class="edge">
<title>Node29&#45;&gt;Node30</title>
<g id="a_edge33_Node000029_Node000030"><a xlink:title=" ">
<path fill="none" stroke="#63b8ff" d="M1667.98,-264C1684.14,-264 1702.67,-264 1719.65,-264"/>
<polygon fill="#63b8ff" stroke="#63b8ff" points="1719.61,-267.5 1729.61,-264 1719.61,-260.5 1719.61,-267.5"/>
</a>
</g>
</g>
<!-- Node31 -->
<g id="Node000031" class="node">
<title>Node31</title>
<g id="a_Node000031"><a xlink:href="../../d1/dc0/group__log.html#ga93cbd623096e1704532d15b3eb30e42f" target="_top" xlink:title=" ">
<polygon fill="white" stroke="#666666" points="1962.25,-273.62 1874.25,-273.62 1874.25,-254.38 1962.25,-254.38 1962.25,-273.62"/>
<text text-anchor="middle" x="1918.25" y="-260.12" font-family="Helvetica,sans-Serif" font-size="10.00">__logger_refresh</text>
</a>
</g>
</g>
<!-- Node30&#45;&gt;Node31 -->
<g id="edge34_Node000030_Node000031" class="edge">
<title>Node30&#45;&gt;Node31</title>
<g id="a_edge34_Node000030_Node000031"><a xlink:title=" ">
<path fill="none" stroke="#63b8ff" d="M1818.2,-264C1832.08,-264 1847.69,-264 1862.35,-264"/>
<polygon fill="#63b8ff" stroke="#63b8ff" points="1862.33,-267.5 1872.33,-264 1862.33,-260.5 1862.33,-267.5"/>
</a>
</g>
</g>
<!-- Node34 -->
<g id="Node000034" class="node">
<title>Node34</title>
<g id="a_Node000034"><a xlink:href="../../d8/d37/mem_8blk.html#a5666a1403bcf2bd8e114c23f8021d1ac" target="_top" xlink:title=" ">
<polygon fill="white" stroke="#666666" points="1158.62,-197.62 1082.62,-197.62 1082.62,-178.38 1158.62,-178.38 1158.62,-197.62"/>
<text text-anchor="middle" x="1120.62" y="-184.12" font-family="Helvetica,sans-Serif" font-size="10.00">__mp_imalloc</text>
</a>
</g>
</g>
<!-- Node33&#45;&gt;Node34 -->
<g id="edge39_Node000033_Node000034" class="edge">
<title>Node33&#45;&gt;Node34</title>
<g id="a_edge39_Node000033_Node000034"><a xlink:title=" ">
<path fill="none" stroke="#63b8ff" d="M1021.57,-188C1036.51,-188 1054.58,-188 1071.11,-188"/>
<polygon fill="#63b8ff" stroke="#63b8ff" points="1070.75,-191.5 1080.75,-188 1070.75,-184.5 1070.75,-191.5"/>
</a>
</g>
</g>
<!-- Node33&#45;&gt;Node37 -->
<g id="edge43_Node000033_Node000037" class="edge">
<title>Node33&#45;&gt;Node37</title>
<g id="a_edge43_Node000033_Node000037"><a xlink:title=" ">
<path fill="none" stroke="#63b8ff" d="M1000.93,-177.88C1023.2,-158.4 1072.26,-115.46 1099.82,-91.33"/>
<polygon fill="#63b8ff" stroke="#63b8ff" points="1101.92,-94.15 1107.14,-84.93 1097.31,-88.88 1101.92,-94.15"/>
</a>
</g>
</g>
<!-- Node34&#45;&gt;Node8 -->
<g id="edge40_Node000034_Node000008" class="edge">
<title>Node34&#45;&gt;Node8</title>
<g id="a_edge40_Node000034_Node000008"><a xlink:title=" ">
<path fill="none" stroke="#63b8ff" d="M1158.8,-197.98C1177.01,-202.87 1199.08,-208.8 1218.22,-213.94"/>
<polygon fill="#63b8ff" stroke="#63b8ff" points="1217.08,-217.26 1227.64,-216.47 1218.89,-210.5 1217.08,-217.26"/>
</a>
</g>
</g>
<!-- Node35 -->
<g id="Node000035" class="node">
<title>Node35</title>
<g id="a_Node000035"><a xlink:href="../../d9/d9a/mem_8h.html#af42ab5c21de0c723b2a55403e5441fda" target="_top" xlink:title=" ">
<polygon fill="white" stroke="#666666" points="1303.62,-178.62 1224.62,-178.62 1224.62,-159.38 1303.62,-159.38 1303.62,-178.62"/>
<text text-anchor="middle" x="1264.12" y="-165.12" font-family="Helvetica,sans-Serif" font-size="10.00">mem_bit_align</text>
</a>
</g>
</g>
<!-- Node34&#45;&gt;Node35 -->
<g id="edge41_Node000034_Node000035" class="edge">
<title>Node34&#45;&gt;Node35</title>
<g id="a_edge41_Node000034_Node000035"><a xlink:title=" ">
<path fill="none" stroke="#63b8ff" d="M1158.8,-183.01C1175.33,-180.79 1195.03,-178.14 1212.84,-175.75"/>
<polygon fill="#63b8ff" stroke="#63b8ff" points="1213.27,-179.23 1222.72,-174.43 1212.34,-172.29 1213.27,-179.23"/>
</a>
</g>
</g>
<!-- Node36 -->
<g id="Node000036" class="node">
<title>Node36</title>
<g id="a_Node000036"><a xlink:href="../../d8/d96/bithacks_8h.html#ab80588fa9f8b9e766249edaf70558bdc" target="_top" xlink:title=" ">
<polygon fill="white" stroke="#666666" points="1411.5,-178.62 1351.25,-178.62 1351.25,-159.38 1411.5,-159.38 1411.5,-178.62"/>
<text text-anchor="middle" x="1381.38" y="-165.12" font-family="Helvetica,sans-Serif" font-size="10.00">bitcountsz</text>
</a>
</g>
</g>
<!-- Node35&#45;&gt;Node36 -->
<g id="edge42_Node000035_Node000036" class="edge">
<title>Node35&#45;&gt;Node36</title>
<g id="a_edge42_Node000035_Node000036"><a xlink:title=" ">
<path fill="none" stroke="#63b8ff" d="M1303.82,-169C1315.4,-169 1328.12,-169 1339.81,-169"/>
<polygon fill="#63b8ff" stroke="#63b8ff" points="1339.56,-172.5 1349.56,-169 1339.56,-165.5 1339.56,-172.5"/>
</a>
</g>
</g>
<!-- Node38 -->
<g id="Node000038" class="node">
<title>Node38</title>
<g id="a_Node000038"><a xlink:href="../../d8/d37/mem_8blk.html#a377e36d6fbaf3ee7f1b217559cb0c850" target="_top" xlink:title=" ">
<polygon fill="white" stroke="#666666" points="1315.25,-83.62 1213,-83.62 1213,-64.38 1315.25,-64.38 1315.25,-83.62"/>
<text text-anchor="middle" x="1264.12" y="-70.12" font-family="Helvetica,sans-Serif" font-size="10.00">__imalloc_too_large</text>
</a>
</g>
</g>
<!-- Node37&#45;&gt;Node38 -->
<g id="edge44_Node000037_Node000038" class="edge">
<title>Node37&#45;&gt;Node38</title>
<g id="a_edge44_Node000037_Node000038"><a xlink:title=" ">
<path fill="none" stroke="#63b8ff" d="M1177.14,-74C1185.14,-74 1193.41,-74 1201.52,-74"/>
<polygon fill="#63b8ff" stroke="#63b8ff" points="1201.32,-77.5 1211.32,-74 1201.32,-70.5 1201.32,-77.5"/>
</a>
</g>
</g>
<!-- Node39&#45;&gt;Node37 -->
<g id="edge51_Node000039_Node000037" class="edge">
<title>Node39&#45;&gt;Node37</title>
<g id="a_edge51_Node000039_Node000037"><a xlink:title=" ">
<path fill="none" stroke="#63b8ff" d="M794.81,-139.95C829.4,-127.02 892.61,-104.84 948.5,-93 982.49,-85.8 1020.89,-81.22 1052.69,-78.37"/>
<polygon fill="#63b8ff" stroke="#63b8ff" points="1052.91,-81.86 1062.57,-77.52 1052.31,-74.88 1052.91,-81.86"/>
</a>
</g>
</g>
<!-- Node40 -->
<g id="Node000040" class="node">
<title>Node40</title>
<g id="a_Node000040"><a xlink:href="../../d8/d37/mem_8blk.html#aa4f4b48947d5dfb44c0897f6024ba16e" target="_top" xlink:title=" ">
<polygon fill="white" stroke="#666666" points="912.5,-159.62 836.5,-159.62 836.5,-140.38 912.5,-140.38 912.5,-159.62"/>
<text text-anchor="middle" x="874.5" y="-146.12" font-family="Helvetica,sans-Serif" font-size="10.00">__mp_irealloc</text>
</a>
</g>
</g>
<!-- Node39&#45;&gt;Node40 -->
<g id="edge46_Node000039_Node000040" class="edge">
<title>Node39&#45;&gt;Node40</title>
<g id="a_edge46_Node000039_Node000040"><a xlink:title=" ">
<path fill="none" stroke="#63b8ff" d="M800.75,-150C808.35,-150 816.64,-150 824.81,-150"/>
<polygon fill="#63b8ff" stroke="#63b8ff" points="824.67,-153.5 834.67,-150 824.67,-146.5 824.67,-153.5"/>
</a>
</g>
</g>
<!-- Node40&#45;&gt;Node8 -->
<g id="edge47_Node000040_Node000008" class="edge">
<title>Node40&#45;&gt;Node8</title>
<g id="a_edge47_Node000040_Node000008"><a xlink:title=" ">
<path fill="none" stroke="#63b8ff" d="M884.25,-159.83C896.89,-173.27 921.73,-196.87 948.5,-207 1039.09,-241.26 1154.8,-237.23 1217.6,-231.48"/>
<polygon fill="#63b8ff" stroke="#63b8ff" points="1217.57,-235 1227.18,-230.54 1216.89,-228.03 1217.57,-235"/>
</a>
</g>
</g>
<!-- Node40&#45;&gt;Node33 -->
<g id="edge50_Node000040_Node000033" class="edge">
<title>Node40&#45;&gt;Node33</title>
<g id="a_edge50_Node000040_Node000033"><a xlink:title=" ">
<path fill="none" stroke="#63b8ff" d="M905.19,-160.08C918.06,-164.46 933.33,-169.64 947.19,-174.35"/>
<polygon fill="#63b8ff" stroke="#63b8ff" points="945.91,-177.61 956.5,-177.51 948.16,-170.98 945.91,-177.61"/>
</a>
</g>
</g>
<!-- Node40&#45;&gt;Node35 -->
<g id="edge49_Node000040_Node000035" class="edge">
<title>Node40&#45;&gt;Node35</title>
<g id="a_edge49_Node000040_Node000035"><a xlink:title=" ">
<path fill="none" stroke="#63b8ff" d="M912.67,-151.82C982.74,-155.26 1134.42,-162.69 1213.27,-166.56"/>
<polygon fill="#63b8ff" stroke="#63b8ff" points="1212.68,-170.03 1222.84,-167.03 1213.02,-163.04 1212.68,-170.03"/>
</a>
</g>
</g>
<!-- Node41 -->
<g id="Node000041" class="node">
<title>Node41</title>
<g id="a_Node000041"><a xlink:href="../../d9/d9a/mem_8h.html#a97bf9c8331ed73f6c120224fb5e9a8b6" target="_top" xlink:title=" ">
<polygon fill="white" stroke="#666666" points="1028.25,-121.62 948.5,-121.62 948.5,-102.38 1028.25,-102.38 1028.25,-121.62"/>
<text text-anchor="middle" x="988.38" y="-108.12" font-family="Helvetica,sans-Serif" font-size="10.00">mem_align_ptr</text>
</a>
</g>
</g>
<!-- Node40&#45;&gt;Node41 -->
<g id="edge48_Node000040_Node000041" class="edge">
<title>Node40&#45;&gt;Node41</title>
<g id="a_edge48_Node000040_Node000041"><a xlink:title=" ">
<path fill="none" stroke="#63b8ff" d="M905.19,-139.92C918.06,-135.54 933.33,-130.36 947.19,-125.65"/>
<polygon fill="#63b8ff" stroke="#63b8ff" points="948.16,-129.02 956.5,-122.49 945.91,-122.39 948.16,-129.02"/>
</a>
</g>
</g>
</g>
</svg>
