<?xml version="1.0" encoding="UTF-8" standalone="no"?>
<!DOCTYPE svg PUBLIC "-//W3C//DTD SVG 1.1//EN"
 "http://www.w3.org/Graphics/SVG/1.1/DTD/svg11.dtd">
<!-- Generated by graphviz version 9.0.0 (20230911.1827)
 -->
<!-- Title: fill_opt_bitmap Pages: 1 -->
<!--zoomable 310 -->

<svg id="main" version="1.1" xmlns="http://www.w3.org/2000/svg" xmlns:xlink="http://www.w3.org/1999/xlink" xml:space="preserve" onload="init(evt)">
<style type="text/css"><![CDATA[
.node, .edge {opacity: 0.7;}
.node.selected, .edge.selected {opacity: 1;}
.edge:hover path { stroke: red; }
.edge:hover polygon { stroke: red; fill: red; }
]]></style>

<defs>
  <circle id="rim" cx="0" cy="0" r="7"/>
  <circle id="rim2" cx="0" cy="0" r="3.5"/>
  <g id="zoomPlus">
    <use xlink:href="#rim" fill="#404040"><set attributeName="fill" to="#808080" begin="zoomplus.mouseover" end="zoomplus.mouseout"/></use>
    <path d="M-4,0h8M0,-4v8" fill="none" stroke="white" stroke-width="1.5" pointer-events="none"/>
  </g>
  <g id="zoomMin">
    <use xlink:href="#rim" fill="#404040"><set attributeName="fill" to="#808080" begin="zoomminus.mouseover" end="zoomminus.mouseout"/></use>
    <path d="M-4,0h8" fill="none" stroke="white" stroke-width="1.5" pointer-events="none"/>
  </g>
  <g id="arrowUp" transform="translate(30 24)">
    <use xlink:href="#rim"/>
    <path pointer-events="none" fill="none" stroke="white" stroke-width="1.5" d="M0,-3.0v7 M-2.5,-0.5L0,-3.0L2.5,-0.5"/>
  </g>
  <g id="arrowRight" transform="rotate(90) translate(36 -43)">
    <use xlink:href="#rim"/>
    <path pointer-events="none" fill="none" stroke="white" stroke-width="1.5" d="M0,-3.0v7 M-2.5,-0.5L0,-3.0L2.5,-0.5"/>
  </g>
  <g id="arrowDown" transform="rotate(180) translate(-30 -48)">
    <use xlink:href="#rim"/>
    <path pointer-events="none" fill="none" stroke="white" stroke-width="1.5" d="M0,-3.0v7 M-2.5,-0.5L0,-3.0L2.5,-0.5"/>
  </g>
  <g id="arrowLeft" transform="rotate(270) translate(-36 17)">
    <use xlink:href="#rim"/>
    <path pointer-events="none" fill="none" stroke="white" stroke-width="1.5" d="M0,-3.0v7 M-2.5,-0.5L0,-3.0L2.5,-0.5"/>
  </g>
  <g id="resetDef">
    <use xlink:href="#rim2" fill="#404040"><set attributeName="fill" to="#808080" begin="reset.mouseover" end="reset.mouseout"/></use>
  </g>
</defs>
<script type="application/ecmascript">
var viewWidth = 2566;
var viewHeight = 310;
var sectionId = 'dynsection-101';
</script>
<script type="application/ecmascript" xlink:href="../../svg.min.js"/>
<svg id="graph" class="graph">
<g id="viewport">
<title>fill_opt_bitmap</title>
<!-- Node1 -->
<g id="Node000001" class="node">
<title>Node1</title>
<g id="a_Node000001"><a xlink:title=" ">
<polygon fill="#999999" stroke="#666666" points="78.25,-139.62 0,-139.62 0,-120.38 78.25,-120.38 78.25,-139.62"/>
<text text-anchor="middle" x="39.12" y="-126.12" font-family="Helvetica,sans-Serif" font-size="10.00">fill_opt_bitmap</text>
</a>
</g>
</g>
<!-- Node2 -->
<g id="Node000002" class="node">
<title>Node2</title>
<g id="a_Node000002"><a xlink:href="../../db/dfd/per_8c.html#ad0e734cc0b0878873ccc00ae007b0849" target="_top" xlink:title=" ">
<polygon fill="white" stroke="#666666" points="218.75,-139.62 114.25,-139.62 114.25,-120.38 218.75,-120.38 218.75,-139.62"/>
<text text-anchor="middle" x="166.5" y="-126.12" font-family="Helvetica,sans-Serif" font-size="10.00">field_bitmap_add_bit</text>
</a>
</g>
</g>
<!-- Node1&#45;&gt;Node2 -->
<g id="edge1_Node000001_Node000002" class="edge">
<title>Node1&#45;&gt;Node2</title>
<g id="a_edge1_Node000001_Node000002"><a xlink:title=" ">
<path fill="none" stroke="#63b8ff" d="M78.42,-130C86.15,-130 94.45,-130 102.76,-130"/>
<polygon fill="#63b8ff" stroke="#63b8ff" points="102.53,-133.5 112.53,-130 102.53,-126.5 102.53,-133.5"/>
</a>
</g>
</g>
<!-- Node3 -->
<g id="Node000003" class="node">
<title>Node3</title>
<g id="a_Node000003"><a xlink:href="../../d6/d42/writer_8c.html#a5d373ebdd5dd1e48a5975c694e7dda52" target="_top" xlink:title=" ">
<polygon fill="white" stroke="#666666" points="333.38,-158.62 255.12,-158.62 255.12,-139.38 333.38,-139.38 333.38,-158.62"/>
<text text-anchor="middle" x="294.25" y="-145.12" font-family="Helvetica,sans-Serif" font-size="10.00">asn1_opt_field</text>
</a>
</g>
</g>
<!-- Node2&#45;&gt;Node3 -->
<g id="edge2_Node000002_Node000003" class="edge">
<title>Node2&#45;&gt;Node3</title>
<g id="a_edge2_Node000002_Node000003"><a xlink:title=" ">
<path fill="none" stroke="#63b8ff" d="M219.01,-137.78C227.12,-139.01 235.5,-140.27 243.57,-141.49"/>
<polygon fill="#63b8ff" stroke="#63b8ff" points="242.81,-144.92 253.22,-142.95 243.86,-138 242.81,-144.92"/>
</a>
</g>
</g>
<!-- Node4 -->
<g id="Node000004" class="node">
<title>Node4</title>
<g id="a_Node000004"><a xlink:href="../../da/ddb/bit-buf_8h.html#adbc78830d55d31fffd992d2a70327e85" target="_top" xlink:title=" ">
<polygon fill="white" stroke="#666666" points="333.75,-121.62 254.75,-121.62 254.75,-102.38 333.75,-102.38 333.75,-121.62"/>
<text text-anchor="middle" x="294.25" y="-108.12" font-family="Helvetica,sans-Serif" font-size="10.00">bb_be_add_bit</text>
</a>
</g>
</g>
<!-- Node2&#45;&gt;Node4 -->
<g id="edge3_Node000002_Node000004" class="edge">
<title>Node2&#45;&gt;Node4</title>
<g id="a_edge3_Node000002_Node000004"><a xlink:title=" ">
<path fill="none" stroke="#63b8ff" d="M219.01,-122.63C226.94,-121.49 235.12,-120.32 243.02,-119.19"/>
<polygon fill="#63b8ff" stroke="#63b8ff" points="243.43,-122.67 252.84,-117.78 242.44,-115.74 243.43,-122.67"/>
</a>
</g>
</g>
<!-- Node5 -->
<g id="Node000005" class="node">
<title>Node5</title>
<g id="a_Node000005"><a xlink:href="../../da/ddb/bit-buf_8h.html#a90d46022b0ec0d5b7e12525a125603e1" target="_top" xlink:title=" ">
<polygon fill="white" stroke="#666666" points="422.5,-121.62 369.75,-121.62 369.75,-102.38 422.5,-102.38 422.5,-121.62"/>
<text text-anchor="middle" x="396.12" y="-108.12" font-family="Helvetica,sans-Serif" font-size="10.00">bb_grow</text>
</a>
</g>
</g>
<!-- Node4&#45;&gt;Node5 -->
<g id="edge4_Node000004_Node000005" class="edge">
<title>Node4&#45;&gt;Node5</title>
<g id="a_edge4_Node000004_Node000005"><a xlink:title=" ">
<path fill="none" stroke="#63b8ff" d="M334.15,-112C342.01,-112 350.25,-112 358.04,-112"/>
<polygon fill="#63b8ff" stroke="#63b8ff" points="357.9,-115.5 367.9,-112 357.9,-108.5 357.9,-115.5"/>
</a>
</g>
</g>
<!-- Node6 -->
<g id="Node000006" class="node">
<title>Node6</title>
<g id="a_Node000006"><a xlink:href="../../d2/d6f/bit-buf_8c.html#a1ccc4c7bc31544c5c75884fa89984eeb" target="_top" xlink:title=" ">
<polygon fill="white" stroke="#666666" points="521.75,-121.62 458.5,-121.62 458.5,-102.38 521.75,-102.38 521.75,-121.62"/>
<text text-anchor="middle" x="490.12" y="-108.12" font-family="Helvetica,sans-Serif" font-size="10.00">__bb_grow</text>
</a>
</g>
</g>
<!-- Node5&#45;&gt;Node6 -->
<g id="edge5_Node000005_Node000006" class="edge">
<title>Node5&#45;&gt;Node6</title>
<g id="a_edge5_Node000005_Node000006"><a xlink:title=" ">
<path fill="none" stroke="#63b8ff" d="M422.75,-112C430.2,-112 438.53,-112 446.72,-112"/>
<polygon fill="#63b8ff" stroke="#63b8ff" points="446.56,-115.5 456.56,-112 446.56,-108.5 446.56,-115.5"/>
</a>
</g>
</g>
<!-- Node7 -->
<g id="Node000007" class="node">
<title>Node7</title>
<g id="a_Node000007"><a xlink:href="../../d9/d9a/mem_8h.html#a15958df365e5c2cc90a6c0c3e7e0e74f" target="_top" xlink:title=" ">
<polygon fill="white" stroke="#666666" points="662.25,-121.62 557.75,-121.62 557.75,-102.38 662.25,-102.38 662.25,-121.62"/>
<text text-anchor="middle" x="610" y="-108.12" font-family="Helvetica,sans-Serif" font-size="10.00">mp_irealloc_fallback</text>
</a>
</g>
</g>
<!-- Node6&#45;&gt;Node7 -->
<g id="edge6_Node000006_Node000007" class="edge">
<title>Node6&#45;&gt;Node7</title>
<g id="a_edge6_Node000006_Node000007"><a xlink:title=" ">
<path fill="none" stroke="#63b8ff" d="M522.1,-112C529.5,-112 537.68,-112 545.97,-112"/>
<polygon fill="#63b8ff" stroke="#63b8ff" points="545.76,-115.5 555.76,-112 545.76,-108.5 545.76,-115.5"/>
</a>
</g>
</g>
<!-- Node8 -->
<g id="Node000008" class="node">
<title>Node8</title>
<g id="a_Node000008"><a xlink:href="../../d8/d37/mem_8blk.html#a2fa974dc4e9f038e5bc400eb689b74b4" target="_top" xlink:title=" ">
<polygon fill="white" stroke="#666666" points="813.25,-197.62 698.25,-197.62 698.25,-178.38 813.25,-178.38 813.25,-197.62"/>
<text text-anchor="middle" x="755.75" y="-184.12" font-family="Helvetica,sans-Serif" font-size="10.00">__mp_irealloc_fallback</text>
</a>
</g>
</g>
<!-- Node7&#45;&gt;Node8 -->
<g id="edge7_Node000007_Node000008" class="edge">
<title>Node7&#45;&gt;Node8</title>
<g id="a_edge7_Node000007_Node000008"><a xlink:title=" ">
<path fill="none" stroke="#63b8ff" d="M630.09,-122.09C654.6,-135.05 697.38,-157.67 725.88,-172.74"/>
<polygon fill="#63b8ff" stroke="#63b8ff" points="724.22,-175.82 734.7,-177.4 727.5,-169.63 724.22,-175.82"/>
</a>
</g>
</g>
<!-- Node38 -->
<g id="Node000038" class="node">
<title>Node38</title>
<g id="a_Node000038"><a xlink:href="../../d9/d9a/mem_8h.html#ae99e17ad0b27e94e8a00c8af9734a0e7" target="_top" xlink:title=" ">
<polygon fill="white" stroke="#666666" points="1291.25,-83.62 1178.5,-83.62 1178.5,-64.38 1291.25,-64.38 1291.25,-83.62"/>
<text text-anchor="middle" x="1234.88" y="-70.12" font-family="Helvetica,sans-Serif" font-size="10.00">icheck_alloc_constant</text>
</a>
</g>
</g>
<!-- Node7&#45;&gt;Node38 -->
<g id="edge53_Node000007_Node000038" class="edge">
<title>Node7&#45;&gt;Node38</title>
<g id="a_edge53_Node000007_Node000038"><a xlink:title=" ">
<path fill="none" stroke="#63b8ff" d="M631.79,-101.91C676.34,-81.23 784.82,-36 881,-36 881,-36 881,-36 989.75,-36 1057.2,-36 1133.9,-50.34 1183.03,-61.4"/>
<polygon fill="#63b8ff" stroke="#63b8ff" points="1181.99,-64.75 1192.52,-63.58 1183.56,-57.93 1181.99,-64.75"/>
</a>
</g>
</g>
<!-- Node9 -->
<g id="Node000009" class="node">
<title>Node9</title>
<g id="a_Node000009"><a xlink:href="../../d8/d37/mem_8blk.html#a8e4fbf6500e65079c31e3fd933ae7dc1" target="_top" xlink:title=" ">
<polygon fill="white" stroke="#666666" points="1413.38,-235.62 1343.38,-235.62 1343.38,-216.38 1413.38,-216.38 1413.38,-235.62"/>
<text text-anchor="middle" x="1378.38" y="-222.12" font-family="Helvetica,sans-Serif" font-size="10.00">icheck_alloc</text>
</a>
</g>
</g>
<!-- Node8&#45;&gt;Node9 -->
<g id="edge8_Node000008_Node000009" class="edge">
<title>Node8&#45;&gt;Node9</title>
<g id="a_edge8_Node000008_Node000009"><a xlink:title=" ">
<path fill="none" stroke="#63b8ff" d="M774.36,-198.09C812.15,-218.77 904.37,-264 987.75,-264 987.75,-264 987.75,-264 1103.62,-264 1187.36,-264 1208.65,-260.73 1291.25,-247 1304.64,-244.77 1319.02,-241.59 1332.12,-238.37"/>
<polygon fill="#63b8ff" stroke="#63b8ff" points="1332.95,-241.77 1341.78,-235.93 1331.23,-234.99 1332.95,-241.77"/>
</a>
</g>
</g>
<!-- Node25 -->
<g id="Node000025" class="node">
<title>Node25</title>
<g id="a_Node000025"><a xlink:href="../../d8/d37/mem_8blk.html#a83c7cf203e5eef9d1a8c6c43cde3e2e5" target="_top" xlink:title=" ">
<polygon fill="white" stroke="#666666" points="2479.5,-234.62 2426,-234.62 2426,-215.38 2479.5,-215.38 2479.5,-234.62"/>
<text text-anchor="middle" x="2452.75" y="-221.12" font-family="Helvetica,sans-Serif" font-size="10.00">mp_ifree</text>
</a>
</g>
</g>
<!-- Node8&#45;&gt;Node25 -->
<g id="edge38_Node000008_Node000025" class="edge">
<title>Node8&#45;&gt;Node25</title>
<g id="a_edge38_Node000008_Node000025"><a xlink:title=" ">
<path fill="none" stroke="#63b8ff" d="M767.31,-197.94C783.68,-212.88 816.7,-241.15 849.25,-258 906.61,-287.69 923.16,-302 987.75,-302 987.75,-302 987.75,-302 2262.75,-302 2326.6,-302 2394.21,-263.84 2428.65,-241.25"/>
<polygon fill="#63b8ff" stroke="#63b8ff" points="2430.24,-244.4 2436.59,-235.91 2426.34,-238.59 2430.24,-244.4"/>
</a>
</g>
</g>
<!-- Node34 -->
<g id="Node000034" class="node">
<title>Node34</title>
<g id="a_Node000034"><a xlink:href="../../d9/d9a/mem_8h.html#ada6bb9661f0c10ccaa14d231c24aeafd" target="_top" xlink:title=" ">
<polygon fill="white" stroke="#666666" points="1135.38,-197.62 1069.88,-197.62 1069.88,-178.38 1135.38,-178.38 1135.38,-197.62"/>
<text text-anchor="middle" x="1102.62" y="-184.12" font-family="Helvetica,sans-Serif" font-size="10.00">mp_imalloc</text>
</a>
</g>
</g>
<!-- Node8&#45;&gt;Node34 -->
<g id="edge39_Node000008_Node000034" class="edge">
<title>Node8&#45;&gt;Node34</title>
<g id="a_edge39_Node000008_Node000034"><a xlink:title=" ">
<path fill="none" stroke="#63b8ff" d="M813.7,-188C882.36,-188 996.22,-188 1058.19,-188"/>
<polygon fill="#63b8ff" stroke="#63b8ff" points="1057.99,-191.5 1067.99,-188 1057.99,-184.5 1057.99,-191.5"/>
</a>
</g>
</g>
<!-- Node40 -->
<g id="Node000040" class="node">
<title>Node40</title>
<g id="a_Node000040"><a xlink:href="../../d9/d9a/mem_8h.html#aabfb5bf96a257374cbc245548b81c4ff" target="_top" xlink:title=" ">
<polygon fill="white" stroke="#666666" points="914.75,-159.62 849.25,-159.62 849.25,-140.38 914.75,-140.38 914.75,-159.62"/>
<text text-anchor="middle" x="882" y="-146.12" font-family="Helvetica,sans-Serif" font-size="10.00">mp_irealloc</text>
</a>
</g>
</g>
<!-- Node8&#45;&gt;Node40 -->
<g id="edge46_Node000008_Node000040" class="edge">
<title>Node8&#45;&gt;Node40</title>
<g id="a_edge46_Node000008_Node000040"><a xlink:title=" ">
<path fill="none" stroke="#63b8ff" d="M789.72,-177.92C804.67,-173.34 822.54,-167.88 838.49,-163"/>
<polygon fill="#63b8ff" stroke="#63b8ff" points="839.18,-166.45 847.72,-160.18 837.13,-159.76 839.18,-166.45"/>
</a>
</g>
</g>
<!-- Node10 -->
<g id="Node000010" class="node">
<title>Node10</title>
<g id="a_Node000010"><a xlink:href="../../d7/df8/log_8c.html#abca342edf91a9b45f7a17ef564fa8a53" target="_top" xlink:title=" ">
<polygon fill="white" stroke="#666666" points="1520.5,-235.62 1470.75,-235.62 1470.75,-216.38 1520.5,-216.38 1520.5,-235.62"/>
<text text-anchor="middle" x="1495.62" y="-222.12" font-family="Helvetica,sans-Serif" font-size="10.00">e_panic</text>
</a>
</g>
</g>
<!-- Node9&#45;&gt;Node10 -->
<g id="edge9_Node000009_Node000010" class="edge">
<title>Node9&#45;&gt;Node10</title>
<g id="a_edge9_Node000009_Node000010"><a xlink:title=" ">
<path fill="none" stroke="#63b8ff" d="M1413.64,-226C1428.09,-226 1444.9,-226 1459.45,-226"/>
<polygon fill="#63b8ff" stroke="#63b8ff" points="1459.03,-229.5 1469.03,-226 1459.03,-222.5 1459.03,-229.5"/>
</a>
</g>
</g>
<!-- Node11 -->
<g id="Node000011" class="node">
<title>Node11</title>
<g id="a_Node000011"><a xlink:href="../../d7/df8/log_8c.html#a4bc04f7baa1e064cb0b93c7b9f3a61a1" target="_top" xlink:title=" ">
<polygon fill="white" stroke="#666666" points="1649.75,-121.62 1561.75,-121.62 1561.75,-102.38 1649.75,-102.38 1649.75,-121.62"/>
<text text-anchor="middle" x="1605.75" y="-108.12" font-family="Helvetica,sans-Serif" font-size="10.00">__logger_refresh</text>
</a>
</g>
</g>
<!-- Node10&#45;&gt;Node11 -->
<g id="edge10_Node000010_Node000011" class="edge">
<title>Node10&#45;&gt;Node11</title>
<g id="a_edge10_Node000010_Node000011"><a xlink:title=" ">
<path fill="none" stroke="#63b8ff" d="M1506.22,-215.88C1524.54,-196.57 1564.72,-154.2 1587.71,-129.97"/>
<polygon fill="#63b8ff" stroke="#63b8ff" points="1589.95,-132.69 1594.29,-123.03 1584.87,-127.88 1589.95,-132.69"/>
</a>
</g>
</g>
<!-- Node29 -->
<g id="Node000029" class="node">
<title>Node29</title>
<g id="a_Node000029"><a xlink:href="../../d7/df8/log_8c.html#a900490b26df7698aac12f7f7e6517e81" target="_top" xlink:title=" ">
<polygon fill="white" stroke="#666666" points="1638.5,-235.62 1573,-235.62 1573,-216.38 1638.5,-216.38 1638.5,-235.62"/>
<text text-anchor="middle" x="1605.75" y="-222.12" font-family="Helvetica,sans-Serif" font-size="10.00">logger_vlog</text>
</a>
</g>
</g>
<!-- Node10&#45;&gt;Node29 -->
<g id="edge32_Node000010_Node000029" class="edge">
<title>Node10&#45;&gt;Node29</title>
<g id="a_edge32_Node000010_Node000029"><a xlink:title=" ">
<path fill="none" stroke="#63b8ff" d="M1520.89,-226C1532.86,-226 1547.66,-226 1561.47,-226"/>
<polygon fill="#63b8ff" stroke="#63b8ff" points="1561.25,-229.5 1571.25,-226 1561.25,-222.5 1561.25,-229.5"/>
</a>
</g>
</g>
<!-- Node33 -->
<g id="Node000033" class="node">
<title>Node33</title>
<g id="a_Node000033"><a xlink:href="../../d2/d4d/file_8h.html#a25419a391fdd4ad7954699c58cfeb3b9" target="_top" xlink:title=" ">
<polygon fill="white" stroke="#666666" points="1631.38,-272.62 1580.12,-272.62 1580.12,-253.38 1631.38,-253.38 1631.38,-272.62"/>
<text text-anchor="middle" x="1605.75" y="-259.12" font-family="Helvetica,sans-Serif" font-size="10.00">va_start</text>
</a>
</g>
</g>
<!-- Node10&#45;&gt;Node33 -->
<g id="edge37_Node000010_Node000033" class="edge">
<title>Node10&#45;&gt;Node33</title>
<g id="a_edge37_Node000010_Node000033"><a xlink:title=" ">
<path fill="none" stroke="#63b8ff" d="M1520.89,-234.3C1535.16,-239.19 1553.45,-245.44 1569.31,-250.87"/>
<polygon fill="#63b8ff" stroke="#63b8ff" points="1567.79,-254.05 1578.38,-253.98 1570.06,-247.43 1567.79,-254.05"/>
</a>
</g>
</g>
<!-- Node12 -->
<g id="Node000012" class="node">
<title>Node12</title>
<g id="a_Node000012"><a xlink:href="../../d7/df8/log_8c.html#a3dbd75fb614210f0b114cfd03c9c0a7b" target="_top" xlink:title=" ">
<polygon fill="white" stroke="#666666" points="1789.5,-140.62 1685.75,-140.62 1685.75,-121.38 1789.5,-121.38 1789.5,-140.62"/>
<text text-anchor="middle" x="1737.62" y="-127.12" font-family="Helvetica,sans-Serif" font-size="10.00">__logger_do_refresh</text>
</a>
</g>
</g>
<!-- Node11&#45;&gt;Node12 -->
<g id="edge11_Node000011_Node000012" class="edge">
<title>Node11&#45;&gt;Node12</title>
<g id="a_edge11_Node000011_Node000012"><a xlink:title=" ">
<path fill="none" stroke="#63b8ff" d="M1650,-118.33C1657.81,-119.47 1666.09,-120.68 1674.32,-121.89"/>
<polygon fill="#63b8ff" stroke="#63b8ff" points="1673.56,-125.31 1683.96,-123.3 1674.58,-118.39 1673.56,-125.31"/>
</a>
</g>
</g>
<!-- Node27 -->
<g id="Node000027" class="node">
<title>Node27</title>
<g id="a_Node000027"><a xlink:href="../../d7/df8/log_8c.html#a7b1b02d1986e1247c2f571af4a2c2854" target="_top" xlink:title=" ">
<polygon fill="white" stroke="#666666" points="1775.25,-66.62 1700,-66.62 1700,-47.38 1775.25,-47.38 1775.25,-66.62"/>
<text text-anchor="middle" x="1737.62" y="-53.12" font-family="Helvetica,sans-Serif" font-size="10.00">log_spin_lock</text>
</a>
</g>
</g>
<!-- Node11&#45;&gt;Node27 -->
<g id="edge30_Node000011_Node000027" class="edge">
<title>Node11&#45;&gt;Node27</title>
<g id="a_edge30_Node000011_Node000027"><a xlink:title=" ">
<path fill="none" stroke="#63b8ff" d="M1626.64,-102.02C1642.47,-94.24 1665.29,-83.39 1685.75,-75 1689.09,-73.63 1692.57,-72.27 1696.08,-70.94"/>
<polygon fill="#63b8ff" stroke="#63b8ff" points="1696.98,-74.34 1705.16,-67.6 1694.57,-67.77 1696.98,-74.34"/>
</a>
</g>
</g>
<!-- Node28 -->
<g id="Node000028" class="node">
<title>Node28</title>
<g id="a_Node000028"><a xlink:href="../../d1/dc0/group__log.html#ga045020bb4af234632f7761f220131c69" target="_top" xlink:title=" ">
<polygon fill="white" stroke="#666666" points="1780.5,-103.62 1694.75,-103.62 1694.75,-84.38 1780.5,-84.38 1780.5,-103.62"/>
<text text-anchor="middle" x="1737.62" y="-90.12" font-family="Helvetica,sans-Serif" font-size="10.00">log_spin_unlock</text>
</a>
</g>
</g>
<!-- Node11&#45;&gt;Node28 -->
<g id="edge31_Node000011_Node000028" class="edge">
<title>Node11&#45;&gt;Node28</title>
<g id="a_edge31_Node000011_Node000028"><a xlink:title=" ">
<path fill="none" stroke="#63b8ff" d="M1650,-106.01C1660.62,-104.53 1672.12,-102.94 1683.16,-101.41"/>
<polygon fill="#63b8ff" stroke="#63b8ff" points="1683.53,-104.89 1692.95,-100.05 1682.56,-97.96 1683.53,-104.89"/>
</a>
</g>
</g>
<!-- Node12&#45;&gt;Node12 -->
<g id="edge12_Node000012_Node000012" class="edge">
<title>Node12&#45;&gt;Node12</title>
<g id="a_edge12_Node000012_Node000012"><a xlink:title=" ">
<path fill="none" stroke="#63b8ff" d="M1716.98,-140.91C1707.56,-149.52 1714.44,-158.62 1737.62,-158.62 1750.3,-158.62 1758.1,-155.9 1761.03,-152.03"/>
<polygon fill="#63b8ff" stroke="#63b8ff" points="1764.44,-151.24 1758.64,-142.38 1757.65,-152.93 1764.44,-151.24"/>
</a>
</g>
</g>
<!-- Node13 -->
<g id="Node000013" class="node">
<title>Node13</title>
<g id="a_Node000013"><a xlink:href="../../de/d1a/container-dlist_8h.html#a3b6f65860b212e28f2e28e71eb54d54d" target="_top" xlink:title="Add element e at the head of list l (suited for LIFO).">
<polygon fill="white" stroke="#666666" points="1916.5,-84.62 1861.5,-84.62 1861.5,-65.38 1916.5,-65.38 1916.5,-84.62"/>
<text text-anchor="middle" x="1889" y="-71.12" font-family="Helvetica,sans-Serif" font-size="10.00">dlist_add</text>
</a>
</g>
</g>
<!-- Node12&#45;&gt;Node13 -->
<g id="edge13_Node000012_Node000013" class="edge">
<title>Node12&#45;&gt;Node13</title>
<g id="a_edge13_Node000012_Node000013"><a xlink:title=" ">
<path fill="none" stroke="#63b8ff" d="M1769.62,-120.96C1776.26,-118.56 1783.18,-115.85 1789.5,-113 1806.19,-105.48 1808.6,-100.02 1825.5,-93 1833.31,-89.75 1841.91,-86.87 1850.16,-84.4"/>
<polygon fill="#63b8ff" stroke="#63b8ff" points="1850.96,-87.82 1859.63,-81.73 1849.05,-81.08 1850.96,-87.82"/>
</a>
</g>
</g>
<!-- Node15 -->
<g id="Node000015" class="node">
<title>Node15</title>
<g id="a_Node000015"><a xlink:href="../../de/d1a/container-dlist_8h.html#a0a69e401f6ec15966c891e96ad864c77" target="_top" xlink:title="Put a dlist_t element in a safe and detached state.">
<polygon fill="white" stroke="#666666" points="1915,-121.62 1863,-121.62 1863,-102.38 1915,-102.38 1915,-121.62"/>
<text text-anchor="middle" x="1889" y="-108.12" font-family="Helvetica,sans-Serif" font-size="10.00">dlist_init</text>
</a>
</g>
</g>
<!-- Node12&#45;&gt;Node15 -->
<g id="edge15_Node000012_Node000015" class="edge">
<title>Node12&#45;&gt;Node15</title>
<g id="a_edge15_Node000012_Node000015"><a xlink:title=" ">
<path fill="none" stroke="#63b8ff" d="M1789.61,-124.51C1809.95,-121.93 1832.91,-119.01 1851.53,-116.64"/>
<polygon fill="#63b8ff" stroke="#63b8ff" points="1851.8,-120.13 1861.28,-115.4 1850.92,-113.19 1851.8,-120.13"/>
</a>
</g>
</g>
<!-- Node16 -->
<g id="Node000016" class="node">
<title>Node16</title>
<g id="a_Node000016"><a xlink:href="../../d7/df8/log_8c.html#a4c8fbe8648573312126ce341cf34cba1" target="_top" xlink:title=" ">
<polygon fill="white" stroke="#666666" points="1952.5,-197.62 1825.5,-197.62 1825.5,-178.38 1952.5,-178.38 1952.5,-197.62"/>
<text text-anchor="middle" x="1889" y="-184.12" font-family="Helvetica,sans-Serif" font-size="10.00">logger_compute_fullname</text>
</a>
</g>
</g>
<!-- Node12&#45;&gt;Node16 -->
<g id="edge16_Node000012_Node000016" class="edge">
<title>Node12&#45;&gt;Node16</title>
<g id="a_edge16_Node000012_Node000016"><a xlink:title=" ">
<path fill="none" stroke="#63b8ff" d="M1764.99,-141.06C1788.91,-150.19 1824.43,-163.74 1851.16,-173.94"/>
<polygon fill="#63b8ff" stroke="#63b8ff" points="1849.65,-177.11 1860.24,-177.41 1852.14,-170.57 1849.65,-177.11"/>
</a>
</g>
</g>
<!-- Node19 -->
<g id="Node000019" class="node">
<title>Node19</title>
<g id="a_Node000019"><a xlink:href="../../df/d0a/str-l_8h.html#ad74dae07179370f3c22e3f026157926e" target="_top" xlink:title="wipe a lstr_t (frees memory if needed).">
<polygon fill="white" stroke="#666666" points="2060,-178.62 2005,-178.62 2005,-159.38 2060,-159.38 2060,-178.62"/>
<text text-anchor="middle" x="2032.5" y="-165.12" font-family="Helvetica,sans-Serif" font-size="10.00">lstr_wipe</text>
</a>
</g>
</g>
<!-- Node12&#45;&gt;Node19 -->
<g id="edge29_Node000012_Node000019" class="edge">
<title>Node12&#45;&gt;Node19</title>
<g id="a_edge29_Node000012_Node000019"><a xlink:title=" ">
<path fill="none" stroke="#63b8ff" d="M1789.98,-137.66C1848.11,-145.21 1941.49,-157.32 1993.46,-164.06"/>
<polygon fill="#63b8ff" stroke="#63b8ff" points="1992.95,-167.53 2003.31,-165.34 1993.85,-160.59 1992.95,-167.53"/>
</a>
</g>
</g>
<!-- Node26 -->
<g id="Node000026" class="node">
<title>Node26</title>
<g id="a_Node000026"><a xlink:href="../../df/d0a/str-l_8h.html#a963c22b229774d4b7c106bae4011cb8e" target="_top" xlink:title="Returns whether \v s1 and \v s2 contents are equal.">
<polygon fill="white" stroke="#666666" points="1918,-47.62 1860,-47.62 1860,-28.38 1918,-28.38 1918,-47.62"/>
<text text-anchor="middle" x="1889" y="-34.12" font-family="Helvetica,sans-Serif" font-size="10.00">lstr_equal</text>
</a>
</g>
</g>
<!-- Node12&#45;&gt;Node26 -->
<g id="edge28_Node000012_Node000026" class="edge">
<title>Node12&#45;&gt;Node26</title>
<g id="a_edge28_Node000012_Node000026"><a xlink:title=" ">
<path fill="none" stroke="#63b8ff" d="M1776.28,-120.96C1781,-118.78 1785.55,-116.16 1789.5,-113 1812.92,-94.3 1801.54,-73.99 1825.5,-56 1832.27,-50.92 1840.43,-47.27 1848.59,-44.65"/>
<polygon fill="#63b8ff" stroke="#63b8ff" points="1849.38,-48.06 1858.12,-42.07 1847.55,-41.31 1849.38,-48.06"/>
</a>
</g>
</g>
<!-- Node14 -->
<g id="Node000014" class="node">
<title>Node14</title>
<g id="a_Node000014"><a xlink:href="../../de/d1a/container-dlist_8h.html#a71e7667ca0e4b896923788c5851afd24" target="_top" xlink:title="Put element e between prev and next.">
<polygon fill="white" stroke="#666666" points="2065.25,-84.62 1999.75,-84.62 1999.75,-65.38 2065.25,-65.38 2065.25,-84.62"/>
<text text-anchor="middle" x="2032.5" y="-71.12" font-family="Helvetica,sans-Serif" font-size="10.00">__dlist_add</text>
</a>
</g>
</g>
<!-- Node13&#45;&gt;Node14 -->
<g id="edge14_Node000013_Node000014" class="edge">
<title>Node13&#45;&gt;Node14</title>
<g id="a_edge14_Node000013_Node000014"><a xlink:title=" ">
<path fill="none" stroke="#63b8ff" d="M1916.95,-75C1937.05,-75 1964.92,-75 1988.14,-75"/>
<polygon fill="#63b8ff" stroke="#63b8ff" points="1987.94,-78.5 1997.94,-75 1987.94,-71.5 1987.94,-78.5"/>
</a>
</g>
</g>
<!-- Node17 -->
<g id="Node000017" class="node">
<title>Node17</title>
<g id="a_Node000017"><a xlink:href="../../df/d0a/str-l_8h.html#a6a200ca09358f19b13a8e297cda34869" target="_top" xlink:title="returns a constant copy of \v s.">
<polygon fill="white" stroke="#666666" points="2060.38,-216.62 2004.62,-216.62 2004.62,-197.38 2060.38,-197.38 2060.38,-216.62"/>
<text text-anchor="middle" x="2032.5" y="-203.12" font-family="Helvetica,sans-Serif" font-size="10.00">lstr_dupc</text>
</a>
</g>
</g>
<!-- Node16&#45;&gt;Node17 -->
<g id="edge17_Node000016_Node000017" class="edge">
<title>Node16&#45;&gt;Node17</title>
<g id="a_edge17_Node000016_Node000017"><a xlink:title=" ">
<path fill="none" stroke="#63b8ff" d="M1952.89,-196.44C1966.54,-198.28 1980.58,-200.16 1992.95,-201.82"/>
<polygon fill="#63b8ff" stroke="#63b8ff" points="1992.36,-205.28 2002.74,-203.14 1993.29,-198.34 1992.36,-205.28"/>
</a>
</g>
</g>
<!-- Node16&#45;&gt;Node19 -->
<g id="edge19_Node000016_Node000019" class="edge">
<title>Node16&#45;&gt;Node19</title>
<g id="a_edge19_Node000016_Node000019"><a xlink:title=" ">
<path fill="none" stroke="#63b8ff" d="M1952.89,-179.56C1966.65,-177.71 1980.81,-175.81 1993.26,-174.14"/>
<polygon fill="#63b8ff" stroke="#63b8ff" points="1993.65,-177.61 2003.09,-172.81 1992.72,-170.68 1993.65,-177.61"/>
</a>
</g>
</g>
<!-- Node18 -->
<g id="Node000018" class="node">
<title>Node18</title>
<g id="a_Node000018"><a xlink:href="../../df/d0a/str-l_8h.html#a3b4dbe9c4cc70340cba0787574dc1c5e" target="_top" xlink:title=" ">
<polygon fill="white" stroke="#666666" points="2390,-216.62 2337.25,-216.62 2337.25,-197.38 2390,-197.38 2390,-216.62"/>
<text text-anchor="middle" x="2363.62" y="-203.12" font-family="Helvetica,sans-Serif" font-size="10.00">lstr_init_</text>
</a>
</g>
</g>
<!-- Node17&#45;&gt;Node18 -->
<g id="edge18_Node000017_Node000018" class="edge">
<title>Node17&#45;&gt;Node18</title>
<g id="a_edge18_Node000017_Node000018"><a xlink:title=" ">
<path fill="none" stroke="#63b8ff" d="M2060.71,-207C2119.56,-207 2258.69,-207 2325.53,-207"/>
<polygon fill="#63b8ff" stroke="#63b8ff" points="2325.24,-210.5 2335.24,-207 2325.24,-203.5 2325.24,-210.5"/>
</a>
</g>
</g>
<!-- Node20 -->
<g id="Node000020" class="node">
<title>Node20</title>
<g id="a_Node000020"><a xlink:href="../../df/d0a/str-l_8h.html#a381cd831ac9616c5bea8213bb679d1ac" target="_top" xlink:title="Wipe a lstr_t (frees memory if needed).">
<polygon fill="white" stroke="#666666" points="2186.25,-178.62 2112.5,-178.62 2112.5,-159.38 2186.25,-159.38 2186.25,-178.62"/>
<text text-anchor="middle" x="2149.38" y="-165.12" font-family="Helvetica,sans-Serif" font-size="10.00">mp_lstr_wipe</text>
</a>
</g>
</g>
<!-- Node19&#45;&gt;Node20 -->
<g id="edge20_Node000019_Node000020" class="edge">
<title>Node19&#45;&gt;Node20</title>
<g id="a_edge20_Node000019_Node000020"><a xlink:title=" ">
<path fill="none" stroke="#63b8ff" d="M2060.43,-169C2072.45,-169 2086.98,-169 2100.74,-169"/>
<polygon fill="#63b8ff" stroke="#63b8ff" points="2100.53,-172.5 2110.53,-169 2100.53,-165.5 2100.53,-172.5"/>
</a>
</g>
</g>
<!-- Node21 -->
<g id="Node000021" class="node">
<title>Node21</title>
<g id="a_Node000021"><a xlink:href="../../de/d04/str-l_8c.html#abe2a3a71f0b4dbc7d37c59d16762b6fb" target="_top" xlink:title="lstr_copy_* helper.">
<polygon fill="white" stroke="#666666" points="2301.25,-178.62 2222.25,-178.62 2222.25,-159.38 2301.25,-159.38 2301.25,-178.62"/>
<text text-anchor="middle" x="2261.75" y="-165.12" font-family="Helvetica,sans-Serif" font-size="10.00">mp_lstr_copy_</text>
</a>
</g>
</g>
<!-- Node20&#45;&gt;Node21 -->
<g id="edge21_Node000020_Node000021" class="edge">
<title>Node20&#45;&gt;Node21</title>
<g id="a_edge21_Node000020_Node000021"><a xlink:title=" ">
<path fill="none" stroke="#63b8ff" d="M2186.52,-169C2194.21,-169 2202.46,-169 2210.57,-169"/>
<polygon fill="#63b8ff" stroke="#63b8ff" points="2210.35,-172.5 2220.35,-169 2210.35,-165.5 2210.35,-172.5"/>
</a>
</g>
</g>
<!-- Node21&#45;&gt;Node18 -->
<g id="edge27_Node000021_Node000018" class="edge">
<title>Node21&#45;&gt;Node18</title>
<g id="a_edge27_Node000021_Node000018"><a xlink:title=" ">
<path fill="none" stroke="#63b8ff" d="M2289.25,-179.08C2300.69,-183.44 2314.26,-188.6 2326.6,-193.29"/>
<polygon fill="#63b8ff" stroke="#63b8ff" points="2325.03,-196.44 2335.62,-196.73 2327.52,-189.9 2325.03,-196.44"/>
</a>
</g>
</g>
<!-- Node22 -->
<g id="Node000022" class="node">
<title>Node22</title>
<g id="a_Node000022"><a xlink:href="../../d9/d9a/mem_8h.html#aebbbd277e2952bdb802104671ba23ba9" target="_top" xlink:title=" ">
<polygon fill="white" stroke="#666666" points="2381,-178.62 2346.25,-178.62 2346.25,-159.38 2381,-159.38 2381,-178.62"/>
<text text-anchor="middle" x="2363.62" y="-165.12" font-family="Helvetica,sans-Serif" font-size="10.00">ifree</text>
</a>
</g>
</g>
<!-- Node21&#45;&gt;Node22 -->
<g id="edge22_Node000021_Node000022" class="edge">
<title>Node21&#45;&gt;Node22</title>
<g id="a_edge22_Node000021_Node000022"><a xlink:title=" ">
<path fill="none" stroke="#63b8ff" d="M2301.65,-169C2312.55,-169 2324.2,-169 2334.35,-169"/>
<polygon fill="#63b8ff" stroke="#63b8ff" points="2334.35,-172.5 2344.35,-169 2334.35,-165.5 2334.35,-172.5"/>
</a>
</g>
</g>
<!-- Node23 -->
<g id="Node000023" class="node">
<title>Node23</title>
<g id="a_Node000023"><a xlink:href="../../d8/d37/mem_8blk.html#a36b65ab346f1d0deed7b63c544c78f2b" target="_top" xlink:title=" ">
<polygon fill="white" stroke="#666666" points="2470.88,-122.62 2434.62,-122.62 2434.62,-103.38 2470.88,-103.38 2470.88,-122.62"/>
<text text-anchor="middle" x="2452.75" y="-109.12" font-family="Helvetica,sans-Serif" font-size="10.00">ipool</text>
</a>
</g>
</g>
<!-- Node22&#45;&gt;Node23 -->
<g id="edge23_Node000022_Node000023" class="edge">
<title>Node22&#45;&gt;Node23</title>
<g id="a_edge23_Node000022_Node000023"><a xlink:title=" ">
<path fill="none" stroke="#63b8ff" d="M2380.2,-158.99C2393.01,-150.76 2411.41,-138.93 2426.34,-129.33"/>
<polygon fill="#63b8ff" stroke="#63b8ff" points="2428.22,-132.28 2434.74,-123.93 2424.44,-126.39 2428.22,-132.28"/>
</a>
</g>
</g>
<!-- Node22&#45;&gt;Node25 -->
<g id="edge26_Node000022_Node000025" class="edge">
<title>Node22&#45;&gt;Node25</title>
<g id="a_edge26_Node000022_Node000025"><a xlink:title=" ">
<path fill="none" stroke="#63b8ff" d="M2380.2,-179.01C2393.01,-187.24 2411.41,-199.07 2426.34,-208.67"/>
<polygon fill="#63b8ff" stroke="#63b8ff" points="2424.44,-211.61 2434.74,-214.07 2428.22,-205.72 2424.44,-211.61"/>
</a>
</g>
</g>
<!-- Node23&#45;&gt;Node10 -->
<g id="edge24_Node000023_Node000010" class="edge">
<title>Node23&#45;&gt;Node10</title>
<g id="a_edge24_Node000023_Node000010"><a xlink:title=" ">
<path fill="none" stroke="#63b8ff" d="M2443.06,-102.97C2418.06,-75.32 2342.65,0 2262.75,0 1736.62,0 1736.62,0 1736.62,0 1648.6,0 1619.94,-26.94 1561.75,-93 1531.91,-126.88 1547.72,-148.55 1525.75,-188 1522.03,-194.67 1517.23,-201.45 1512.61,-207.4"/>
<polygon fill="#63b8ff" stroke="#63b8ff" points="1510.22,-204.79 1506.61,-214.75 1515.64,-209.21 1510.22,-204.79"/>
</a>
</g>
</g>
<!-- Node24 -->
<g id="Node000024" class="node">
<title>Node24</title>
<g id="a_Node000024"><a xlink:href="../../d1/d10/mem-stack_8h.html#a1d0e2a29f86dc033a02e50484b527fd0" target="_top" xlink:title=" ">
<polygon fill="white" stroke="#666666" points="2557.75,-122.62 2515.5,-122.62 2515.5,-103.38 2557.75,-103.38 2557.75,-122.62"/>
<text text-anchor="middle" x="2536.62" y="-109.12" font-family="Helvetica,sans-Serif" font-size="10.00">t_pool</text>
</a>
</g>
</g>
<!-- Node23&#45;&gt;Node24 -->
<g id="edge25_Node000023_Node000024" class="edge">
<title>Node23&#45;&gt;Node24</title>
<g id="a_edge25_Node000023_Node000024"><a xlink:title=" ">
<path fill="none" stroke="#63b8ff" d="M2471.11,-113C2480.56,-113 2492.54,-113 2503.61,-113"/>
<polygon fill="#63b8ff" stroke="#63b8ff" points="2503.59,-116.5 2513.59,-113 2503.59,-109.5 2503.59,-116.5"/>
</a>
</g>
</g>
<!-- Node29&#45;&gt;Node17 -->
<g id="edge36_Node000029_Node000017" class="edge">
<title>Node29&#45;&gt;Node17</title>
<g id="a_edge36_Node000029_Node000017"><a xlink:title=" ">
<path fill="none" stroke="#63b8ff" d="M1638.68,-224.57C1715.36,-221.14 1909.7,-212.45 1992.83,-208.73"/>
<polygon fill="#63b8ff" stroke="#63b8ff" points="1992.91,-212.23 2002.74,-208.29 1992.6,-205.24 1992.91,-212.23"/>
</a>
</g>
</g>
<!-- Node30 -->
<g id="Node000030" class="node">
<title>Node30</title>
<g id="a_Node000030"><a xlink:href="../../d1/dc0/group__log.html#ga168a6f17b248f61f7d25a17d58d04e36" target="_top" xlink:title=" ">
<polygon fill="white" stroke="#666666" points="1782,-273.62 1693.25,-273.62 1693.25,-254.38 1782,-254.38 1782,-273.62"/>
<text text-anchor="middle" x="1737.62" y="-260.12" font-family="Helvetica,sans-Serif" font-size="10.00">logger_has_level</text>
</a>
</g>
</g>
<!-- Node29&#45;&gt;Node30 -->
<g id="edge33_Node000029_Node000030" class="edge">
<title>Node29&#45;&gt;Node30</title>
<g id="a_edge33_Node000029_Node000030"><a xlink:title=" ">
<path fill="none" stroke="#63b8ff" d="M1638.85,-235.39C1654.63,-240.01 1673.91,-245.65 1691.17,-250.7"/>
<polygon fill="#63b8ff" stroke="#63b8ff" points="1690.13,-254.04 1700.71,-253.49 1692.09,-247.32 1690.13,-254.04"/>
</a>
</g>
</g>
<!-- Node31 -->
<g id="Node000031" class="node">
<title>Node31</title>
<g id="a_Node000031"><a xlink:href="../../d1/dc0/group__log.html#gaf388752b988541da0abeceecdf96e6b3" target="_top" xlink:title=" ">
<polygon fill="white" stroke="#666666" points="1932.25,-273.62 1845.75,-273.62 1845.75,-254.38 1932.25,-254.38 1932.25,-273.62"/>
<text text-anchor="middle" x="1889" y="-260.12" font-family="Helvetica,sans-Serif" font-size="10.00">logger_get_level</text>
</a>
</g>
</g>
<!-- Node30&#45;&gt;Node31 -->
<g id="edge34_Node000030_Node000031" class="edge">
<title>Node30&#45;&gt;Node31</title>
<g id="a_edge34_Node000030_Node000031"><a xlink:title=" ">
<path fill="none" stroke="#63b8ff" d="M1782.23,-264C1798.39,-264 1816.92,-264 1833.9,-264"/>
<polygon fill="#63b8ff" stroke="#63b8ff" points="1833.86,-267.5 1843.86,-264 1833.86,-260.5 1833.86,-267.5"/>
</a>
</g>
</g>
<!-- Node32 -->
<g id="Node000032" class="node">
<title>Node32</title>
<g id="a_Node000032"><a xlink:href="../../d1/dc0/group__log.html#ga93cbd623096e1704532d15b3eb30e42f" target="_top" xlink:title=" ">
<polygon fill="white" stroke="#666666" points="2076.5,-273.62 1988.5,-273.62 1988.5,-254.38 2076.5,-254.38 2076.5,-273.62"/>
<text text-anchor="middle" x="2032.5" y="-260.12" font-family="Helvetica,sans-Serif" font-size="10.00">__logger_refresh</text>
</a>
</g>
</g>
<!-- Node31&#45;&gt;Node32 -->
<g id="edge35_Node000031_Node000032" class="edge">
<title>Node31&#45;&gt;Node32</title>
<g id="a_edge35_Node000031_Node000032"><a xlink:title=" ">
<path fill="none" stroke="#63b8ff" d="M1932.45,-264C1946.33,-264 1961.94,-264 1976.6,-264"/>
<polygon fill="#63b8ff" stroke="#63b8ff" points="1976.58,-267.5 1986.58,-264 1976.58,-260.5 1976.58,-267.5"/>
</a>
</g>
</g>
<!-- Node35 -->
<g id="Node000035" class="node">
<title>Node35</title>
<g id="a_Node000035"><a xlink:href="../../d8/d37/mem_8blk.html#a5666a1403bcf2bd8e114c23f8021d1ac" target="_top" xlink:title=" ">
<polygon fill="white" stroke="#666666" points="1272.88,-197.62 1196.88,-197.62 1196.88,-178.38 1272.88,-178.38 1272.88,-197.62"/>
<text text-anchor="middle" x="1234.88" y="-184.12" font-family="Helvetica,sans-Serif" font-size="10.00">__mp_imalloc</text>
</a>
</g>
</g>
<!-- Node34&#45;&gt;Node35 -->
<g id="edge40_Node000034_Node000035" class="edge">
<title>Node34&#45;&gt;Node35</title>
<g id="a_edge40_Node000034_Node000035"><a xlink:title=" ">
<path fill="none" stroke="#63b8ff" d="M1135.82,-188C1150.76,-188 1168.83,-188 1185.36,-188"/>
<polygon fill="#63b8ff" stroke="#63b8ff" points="1185,-191.5 1195,-188 1185,-184.5 1185,-191.5"/>
</a>
</g>
</g>
<!-- Node34&#45;&gt;Node38 -->
<g id="edge44_Node000034_Node000038" class="edge">
<title>Node34&#45;&gt;Node38</title>
<g id="a_edge44_Node000034_Node000038"><a xlink:title=" ">
<path fill="none" stroke="#63b8ff" d="M1115.18,-177.88C1137.45,-158.4 1186.51,-115.46 1214.07,-91.33"/>
<polygon fill="#63b8ff" stroke="#63b8ff" points="1216.17,-94.15 1221.39,-84.93 1211.56,-88.88 1216.17,-94.15"/>
</a>
</g>
</g>
<!-- Node35&#45;&gt;Node9 -->
<g id="edge41_Node000035_Node000009" class="edge">
<title>Node35&#45;&gt;Node9</title>
<g id="a_edge41_Node000035_Node000009"><a xlink:title=" ">
<path fill="none" stroke="#63b8ff" d="M1273.05,-197.98C1291.26,-202.87 1313.33,-208.8 1332.47,-213.94"/>
<polygon fill="#63b8ff" stroke="#63b8ff" points="1331.33,-217.26 1341.89,-216.47 1333.14,-210.5 1331.33,-217.26"/>
</a>
</g>
</g>
<!-- Node36 -->
<g id="Node000036" class="node">
<title>Node36</title>
<g id="a_Node000036"><a xlink:href="../../d9/d9a/mem_8h.html#af42ab5c21de0c723b2a55403e5441fda" target="_top" xlink:title=" ">
<polygon fill="white" stroke="#666666" points="1417.88,-178.62 1338.88,-178.62 1338.88,-159.38 1417.88,-159.38 1417.88,-178.62"/>
<text text-anchor="middle" x="1378.38" y="-165.12" font-family="Helvetica,sans-Serif" font-size="10.00">mem_bit_align</text>
</a>
</g>
</g>
<!-- Node35&#45;&gt;Node36 -->
<g id="edge42_Node000035_Node000036" class="edge">
<title>Node35&#45;&gt;Node36</title>
<g id="a_edge42_Node000035_Node000036"><a xlink:title=" ">
<path fill="none" stroke="#63b8ff" d="M1273.05,-183.01C1289.58,-180.79 1309.28,-178.14 1327.09,-175.75"/>
<polygon fill="#63b8ff" stroke="#63b8ff" points="1327.52,-179.23 1336.97,-174.43 1326.59,-172.29 1327.52,-179.23"/>
</a>
</g>
</g>
<!-- Node37 -->
<g id="Node000037" class="node">
<title>Node37</title>
<g id="a_Node000037"><a xlink:href="../../d8/d96/bithacks_8h.html#ab80588fa9f8b9e766249edaf70558bdc" target="_top" xlink:title=" ">
<polygon fill="white" stroke="#666666" points="1525.75,-178.62 1465.5,-178.62 1465.5,-159.38 1525.75,-159.38 1525.75,-178.62"/>
<text text-anchor="middle" x="1495.62" y="-165.12" font-family="Helvetica,sans-Serif" font-size="10.00">bitcountsz</text>
</a>
</g>
</g>
<!-- Node36&#45;&gt;Node37 -->
<g id="edge43_Node000036_Node000037" class="edge">
<title>Node36&#45;&gt;Node37</title>
<g id="a_edge43_Node000036_Node000037"><a xlink:title=" ">
<path fill="none" stroke="#63b8ff" d="M1418.07,-169C1429.65,-169 1442.37,-169 1454.06,-169"/>
<polygon fill="#63b8ff" stroke="#63b8ff" points="1453.81,-172.5 1463.81,-169 1453.81,-165.5 1453.81,-172.5"/>
</a>
</g>
</g>
<!-- Node39 -->
<g id="Node000039" class="node">
<title>Node39</title>
<g id="a_Node000039"><a xlink:href="../../d8/d37/mem_8blk.html#a377e36d6fbaf3ee7f1b217559cb0c850" target="_top" xlink:title=" ">
<polygon fill="white" stroke="#666666" points="1429.5,-83.62 1327.25,-83.62 1327.25,-64.38 1429.5,-64.38 1429.5,-83.62"/>
<text text-anchor="middle" x="1378.38" y="-70.12" font-family="Helvetica,sans-Serif" font-size="10.00">__imalloc_too_large</text>
</a>
</g>
</g>
<!-- Node38&#45;&gt;Node39 -->
<g id="edge45_Node000038_Node000039" class="edge">
<title>Node38&#45;&gt;Node39</title>
<g id="a_edge45_Node000038_Node000039"><a xlink:title=" ">
<path fill="none" stroke="#63b8ff" d="M1291.39,-74C1299.39,-74 1307.66,-74 1315.77,-74"/>
<polygon fill="#63b8ff" stroke="#63b8ff" points="1315.57,-77.5 1325.57,-74 1315.57,-70.5 1315.57,-77.5"/>
</a>
</g>
</g>
<!-- Node40&#45;&gt;Node38 -->
<g id="edge52_Node000040_Node000038" class="edge">
<title>Node40&#45;&gt;Node38</title>
<g id="a_edge52_Node000040_Node000038"><a xlink:title=" ">
<path fill="none" stroke="#63b8ff" d="M909.06,-139.95C943.65,-127.02 1006.86,-104.84 1062.75,-93 1096.74,-85.8 1135.14,-81.22 1166.94,-78.37"/>
<polygon fill="#63b8ff" stroke="#63b8ff" points="1167.16,-81.86 1176.82,-77.52 1166.56,-74.88 1167.16,-81.86"/>
</a>
</g>
</g>
<!-- Node41 -->
<g id="Node000041" class="node">
<title>Node41</title>
<g id="a_Node000041"><a xlink:href="../../d8/d37/mem_8blk.html#aa4f4b48947d5dfb44c0897f6024ba16e" target="_top" xlink:title=" ">
<polygon fill="white" stroke="#666666" points="1026.75,-159.62 950.75,-159.62 950.75,-140.38 1026.75,-140.38 1026.75,-159.62"/>
<text text-anchor="middle" x="988.75" y="-146.12" font-family="Helvetica,sans-Serif" font-size="10.00">__mp_irealloc</text>
</a>
</g>
</g>
<!-- Node40&#45;&gt;Node41 -->
<g id="edge47_Node000040_Node000041" class="edge">
<title>Node40&#45;&gt;Node41</title>
<g id="a_edge47_Node000040_Node000041"><a xlink:title=" ">
<path fill="none" stroke="#63b8ff" d="M915,-150C922.6,-150 930.89,-150 939.06,-150"/>
<polygon fill="#63b8ff" stroke="#63b8ff" points="938.92,-153.5 948.92,-150 938.92,-146.5 938.92,-153.5"/>
</a>
</g>
</g>
<!-- Node41&#45;&gt;Node9 -->
<g id="edge48_Node000041_Node000009" class="edge">
<title>Node41&#45;&gt;Node9</title>
<g id="a_edge48_Node000041_Node000009"><a xlink:title=" ">
<path fill="none" stroke="#63b8ff" d="M998.5,-159.83C1011.14,-173.27 1035.98,-196.87 1062.75,-207 1153.34,-241.26 1269.05,-237.23 1331.85,-231.48"/>
<polygon fill="#63b8ff" stroke="#63b8ff" points="1331.82,-235 1341.43,-230.54 1331.14,-228.03 1331.82,-235"/>
</a>
</g>
</g>
<!-- Node41&#45;&gt;Node34 -->
<g id="edge51_Node000041_Node000034" class="edge">
<title>Node41&#45;&gt;Node34</title>
<g id="a_edge51_Node000041_Node000034"><a xlink:title=" ">
<path fill="none" stroke="#63b8ff" d="M1019.44,-160.08C1032.31,-164.46 1047.58,-169.64 1061.44,-174.35"/>
<polygon fill="#63b8ff" stroke="#63b8ff" points="1060.16,-177.61 1070.75,-177.51 1062.41,-170.98 1060.16,-177.61"/>
</a>
</g>
</g>
<!-- Node41&#45;&gt;Node36 -->
<g id="edge50_Node000041_Node000036" class="edge">
<title>Node41&#45;&gt;Node36</title>
<g id="a_edge50_Node000041_Node000036"><a xlink:title=" ">
<path fill="none" stroke="#63b8ff" d="M1026.92,-151.82C1096.99,-155.26 1248.67,-162.69 1327.52,-166.56"/>
<polygon fill="#63b8ff" stroke="#63b8ff" points="1326.93,-170.03 1337.09,-167.03 1327.27,-163.04 1326.93,-170.03"/>
</a>
</g>
</g>
<!-- Node42 -->
<g id="Node000042" class="node">
<title>Node42</title>
<g id="a_Node000042"><a xlink:href="../../d9/d9a/mem_8h.html#a97bf9c8331ed73f6c120224fb5e9a8b6" target="_top" xlink:title=" ">
<polygon fill="white" stroke="#666666" points="1142.5,-121.62 1062.75,-121.62 1062.75,-102.38 1142.5,-102.38 1142.5,-121.62"/>
<text text-anchor="middle" x="1102.62" y="-108.12" font-family="Helvetica,sans-Serif" font-size="10.00">mem_align_ptr</text>
</a>
</g>
</g>
<!-- Node41&#45;&gt;Node42 -->
<g id="edge49_Node000041_Node000042" class="edge">
<title>Node41&#45;&gt;Node42</title>
<g id="a_edge49_Node000041_Node000042"><a xlink:title=" ">
<path fill="none" stroke="#63b8ff" d="M1019.44,-139.92C1032.31,-135.54 1047.58,-130.36 1061.44,-125.65"/>
<polygon fill="#63b8ff" stroke="#63b8ff" points="1062.41,-129.02 1070.75,-122.49 1060.16,-122.39 1062.41,-129.02"/>
</a>
</g>
</g>
</g>
</svg>

<g id="navigator" transform="translate(0 0)" fill="#404254">
  <rect fill="#f2f5e9" fill-opacity="0.5" stroke="#606060" stroke-width=".5" x="0" y="0" width="60" height="60"/>
  <use id="zoomplus" xlink:href="#zoomPlus" x="17" y="9" onmousedown="handleZoom(evt,'in')"/>
  <use id="zoomminus" xlink:href="#zoomMin" x="42" y="9" onmousedown="handleZoom(evt,'out')"/>
  <use id="reset" xlink:href="#resetDef" x="30" y="36" onmousedown="handleReset()"/>
   <use id="arrowup" xlink:href="#arrowUp" x="0" y="0" onmousedown="handlePan(0,-1)"/>
  <use id="arrowright" xlink:href="#arrowRight" x="0" y="0" onmousedown="handlePan(1,0)"/>
  <use id="arrowdown" xlink:href="#arrowDown" x="0" y="0" onmousedown="handlePan(0,1)"/>
  <use id="arrowleft" xlink:href="#arrowLeft" x="0" y="0" onmousedown="handlePan(-1,0)"/>
</g>
<svg viewBox="0 0 15 15" width="100%" height="30px" preserveAspectRatio="xMaxYMin meet">
 <g id="arrow_out" transform="scale(0.3 0.3)">
  <a xlink:href="per_8c_a89f0ee9d105b3aaa29bd11c4e4773e1c_cgraph_org.svg" target="_base">
   <rect id="button" ry="5" rx="5" y="6" x="6" height="38" width="38"
        fill="#f2f5e9" fill-opacity="0.5" stroke="#606060" stroke-width="1.0"/>
   <path id="arrow"
     d="M 11.500037,31.436501 C 11.940474,20.09759 22.043105,11.32322 32.158766,21.979434 L 37.068811,17.246167 C 37.068811,17.246167 37.088388,32 37.088388,32 L 22.160133,31.978069 C 22.160133,31.978069 26.997745,27.140456 26.997745,27.140456 C 18.528582,18.264221 13.291696,25.230495 11.500037,31.436501 z"
     style="fill:#404040;"/>
  </a>
 </g>
</svg>

<style type='text/css'>
<![CDATA[
[data-mouse-over-selected='false'] { opacity: 0.7; }
[data-mouse-over-selected='true']  { opacity: 1.0; }
]]>
</style>
<script type="application/ecmascript"><![CDATA[
document.addEventListener('DOMContentLoaded', (event) => {
  highlightEdges();
  highlightAdjacentNodes();
});
]]></script>
</svg>
