<?xml version="1.0" encoding="UTF-8" standalone="no"?>
<!DOCTYPE svg PUBLIC "-//W3C//DTD SVG 1.1//EN"
 "http://www.w3.org/Graphics/SVG/1.1/DTD/svg11.dtd">
<!-- Generated by graphviz version 9.0.0 (20230911.1827)
 -->
<!-- Title: aper_read_nsnnwn Pages: 1 -->
<!--zoomable 151 -->

<svg id="main" version="1.1" xmlns="http://www.w3.org/2000/svg" xmlns:xlink="http://www.w3.org/1999/xlink" xml:space="preserve" onload="init(evt)">
<style type="text/css"><![CDATA[
.node, .edge {opacity: 0.7;}
.node.selected, .edge.selected {opacity: 1;}
.edge:hover path { stroke: red; }
.edge:hover polygon { stroke: red; fill: red; }
]]></style>

<defs>
  <circle id="rim" cx="0" cy="0" r="7"/>
  <circle id="rim2" cx="0" cy="0" r="3.5"/>
  <g id="zoomPlus">
    <use xlink:href="#rim" fill="#404040"><set attributeName="fill" to="#808080" begin="zoomplus.mouseover" end="zoomplus.mouseout"/></use>
    <path d="M-4,0h8M0,-4v8" fill="none" stroke="white" stroke-width="1.5" pointer-events="none"/>
  </g>
  <g id="zoomMin">
    <use xlink:href="#rim" fill="#404040"><set attributeName="fill" to="#808080" begin="zoomminus.mouseover" end="zoomminus.mouseout"/></use>
    <path d="M-4,0h8" fill="none" stroke="white" stroke-width="1.5" pointer-events="none"/>
  </g>
  <g id="arrowUp" transform="translate(30 24)">
    <use xlink:href="#rim"/>
    <path pointer-events="none" fill="none" stroke="white" stroke-width="1.5" d="M0,-3.0v7 M-2.5,-0.5L0,-3.0L2.5,-0.5"/>
  </g>
  <g id="arrowRight" transform="rotate(90) translate(36 -43)">
    <use xlink:href="#rim"/>
    <path pointer-events="none" fill="none" stroke="white" stroke-width="1.5" d="M0,-3.0v7 M-2.5,-0.5L0,-3.0L2.5,-0.5"/>
  </g>
  <g id="arrowDown" transform="rotate(180) translate(-30 -48)">
    <use xlink:href="#rim"/>
    <path pointer-events="none" fill="none" stroke="white" stroke-width="1.5" d="M0,-3.0v7 M-2.5,-0.5L0,-3.0L2.5,-0.5"/>
  </g>
  <g id="arrowLeft" transform="rotate(270) translate(-36 17)">
    <use xlink:href="#rim"/>
    <path pointer-events="none" fill="none" stroke="white" stroke-width="1.5" d="M0,-3.0v7 M-2.5,-0.5L0,-3.0L2.5,-0.5"/>
  </g>
  <g id="resetDef">
    <use xlink:href="#rim2" fill="#404040"><set attributeName="fill" to="#808080" begin="reset.mouseover" end="reset.mouseout"/></use>
  </g>
</defs>
<script type="application/ecmascript">
var viewWidth = 1152;
var viewHeight = 151;
var sectionId = 'dynsection-69';
</script>
<script type="application/ecmascript" xlink:href="../../svg.min.js"/>
<svg id="graph" class="graph">
<g id="viewport">
<title>aper_read_nsnnwn</title>
<!-- Node1 -->
<g id="Node000001" class="node">
<title>Node1</title>
<g id="a_Node000001"><a xlink:title=" ">
<polygon fill="#999999" stroke="#666666" points="1144.25,-85.25 1046.5,-85.25 1046.5,-66 1144.25,-66 1144.25,-85.25"/>
<text text-anchor="middle" x="1095.38" y="-71.75" font-family="Helvetica,sans-Serif" font-size="10.00">aper_read_nsnnwn</text>
</a>
</g>
</g>
<!-- Node2 -->
<g id="Node000002" class="node">
<title>Node2</title>
<g id="a_Node000002"><a xlink:href="../../db/dfd/per_8c.html#a991155f9de8c848cfac2f27f75b9801e" target="_top" xlink:title=" ">
<polygon fill="white" stroke="#666666" points="1010.5,-85.25 909.75,-85.25 909.75,-66 1010.5,-66 1010.5,-85.25"/>
<text text-anchor="middle" x="960.12" y="-71.75" font-family="Helvetica,sans-Serif" font-size="10.00">aper_decode_enum</text>
</a>
</g>
</g>
<!-- Node1&#45;&gt;Node2 -->
<g id="edge1_Node000001_Node000002" class="edge">
<title>Node1&#45;&gt;Node2</title>
<g id="a_edge1_Node000001_Node000002"><a xlink:title=" ">
<path fill="none" stroke="#63b8ff" d="M1034.76,-75.62C1026.81,-75.62 1018.72,-75.62 1010.96,-75.62"/>
<polygon fill="#63b8ff" stroke="#63b8ff" points="1034.76,-79.13 1044.76,-75.63 1034.76,-72.13 1034.76,-79.13"/>
</a>
</g>
</g>
<!-- Node5 -->
<g id="Node000005" class="node">
<title>Node5</title>
<g id="a_Node000005"><a xlink:href="../../db/dfd/per_8c.html#a6e95f8cdc72c7432a7773ca9db9bfca2" target="_top" xlink:title=" ">
<polygon fill="white" stroke="#666666" points="584.5,-143.25 471,-143.25 471,-124 584.5,-124 584.5,-143.25"/>
<text text-anchor="middle" x="527.75" y="-129.75" font-family="Helvetica,sans-Serif" font-size="10.00">t_aper_decode_choice</text>
</a>
</g>
</g>
<!-- Node1&#45;&gt;Node5 -->
<g id="edge15_Node000001_Node000005" class="edge">
<title>Node1&#45;&gt;Node5</title>
<g id="a_edge15_Node000001_Node000005"><a xlink:title=" ">
<path fill="none" stroke="#63b8ff" d="M1044.13,-88.23C1033.11,-90.65 1021.45,-92.95 1010.5,-94.62 857.46,-118.03 674.79,-127.96 584.68,-131.68"/>
<polygon fill="#63b8ff" stroke="#63b8ff" points="1044.89,-91.64 1053.86,-86.01 1043.33,-84.82 1044.89,-91.64"/>
</a>
</g>
</g>
<!-- Node11 -->
<g id="Node000011" class="node">
<title>Node11</title>
<g id="a_Node000011"><a xlink:href="../../db/dfd/per_8c.html#aa16f77b126f0757f07771c27604ef868" target="_top" xlink:title=" ">
<polygon fill="white" stroke="#666666" points="863.25,-21.25 776,-21.25 776,-2 863.25,-2 863.25,-21.25"/>
<text text-anchor="middle" x="819.62" y="-7.75" font-family="Helvetica,sans-Serif" font-size="10.00">read_ext_bitmap</text>
</a>
</g>
</g>
<!-- Node1&#45;&gt;Node11 -->
<g id="edge13_Node000001_Node000011" class="edge">
<title>Node1&#45;&gt;Node11</title>
<g id="a_edge13_Node000001_Node000011"><a xlink:title=" ">
<path fill="none" stroke="#63b8ff" d="M1040.32,-62.99C988.46,-50.86 911.18,-32.8 863.45,-21.64"/>
<polygon fill="#63b8ff" stroke="#63b8ff" points="1039.29,-66.34 1049.83,-65.21 1040.89,-59.53 1039.29,-66.34"/>
</a>
</g>
</g>
<!-- Node3 -->
<g id="Node000003" class="node">
<title>Node3</title>
<g id="a_Node000003"><a xlink:href="../../db/dfd/per_8c.html#ad241b250dff184dcd0a44ca475aaf70e" target="_top" xlink:title=" ">
<polygon fill="white" stroke="#666666" points="873.75,-85.25 765.5,-85.25 765.5,-66 873.75,-66 873.75,-85.25"/>
<text text-anchor="middle" x="819.62" y="-71.75" font-family="Helvetica,sans-Serif" font-size="10.00">t_aper_decode_value</text>
</a>
</g>
</g>
<!-- Node2&#45;&gt;Node3 -->
<g id="edge2_Node000002_Node000003" class="edge">
<title>Node2&#45;&gt;Node3</title>
<g id="a_edge2_Node000002_Node000003"><a xlink:title=" ">
<path fill="none" stroke="#63b8ff" d="M898,-75.62C890.04,-75.62 881.93,-75.62 874.11,-75.62"/>
<polygon fill="#63b8ff" stroke="#63b8ff" points="898,-79.13 908,-75.63 898,-72.13 898,-79.13"/>
</a>
</g>
</g>
<!-- Node4 -->
<g id="Node000004" class="node">
<title>Node4</title>
<g id="a_Node000004"><a xlink:href="../../db/dfd/per_8c.html#adedfcb81b5e27cfaa3679c443107fd60" target="_top" xlink:title=" ">
<polygon fill="white" stroke="#666666" points="729.5,-64.25 627.25,-64.25 627.25,-45 729.5,-45 729.5,-64.25"/>
<text text-anchor="middle" x="678.38" y="-50.75" font-family="Helvetica,sans-Serif" font-size="10.00">t_aper_decode_field</text>
</a>
</g>
</g>
<!-- Node3&#45;&gt;Node4 -->
<g id="edge3_Node000003_Node000004" class="edge">
<title>Node3&#45;&gt;Node4</title>
<g id="a_edge3_Node000003_Node000004"><a xlink:title=" ">
<path fill="none" stroke="#63b8ff" d="M753.83,-65.85C745.73,-64.63 737.53,-63.4 729.7,-62.21"/>
<polygon fill="#63b8ff" stroke="#63b8ff" points="753.28,-69.31 763.69,-67.34 754.32,-62.39 753.28,-69.31"/>
</a>
</g>
</g>
<!-- Node4&#45;&gt;Node5 -->
<g id="edge4_Node000004_Node000005" class="edge">
<title>Node4&#45;&gt;Node5</title>
<g id="a_edge4_Node000004_Node000005"><a xlink:title=" ">
<path fill="none" stroke="#63b8ff" d="M648.72,-69.86C618.85,-85.73 572.91,-110.15 547.42,-123.7"/>
<polygon fill="#63b8ff" stroke="#63b8ff" points="650.03,-73.12 657.22,-65.34 646.74,-66.94 650.03,-73.12"/>
</a>
</g>
</g>
<!-- Node8 -->
<g id="Node000008" class="node">
<title>Node8</title>
<g id="a_Node000008"><a xlink:href="../../db/dfd/per_8c.html#a73f9c9a06039b6798b47b73b8cc274c0" target="_top" xlink:title=" ">
<polygon fill="white" stroke="#666666" points="584.88,-67.88 470.62,-67.88 470.62,-37.38 584.88,-37.38 584.88,-67.88"/>
<text text-anchor="start" x="478.62" y="-54.38" font-family="Helvetica,sans-Serif" font-size="10.00">t_aper_decode_seq_of</text>
<text text-anchor="middle" x="527.75" y="-43.12" font-family="Helvetica,sans-Serif" font-size="10.00">_fields</text>
</a>
</g>
</g>
<!-- Node4&#45;&gt;Node8 -->
<g id="edge8_Node000004_Node000008" class="edge">
<title>Node4&#45;&gt;Node8</title>
<g id="a_edge8_Node000004_Node000008"><a xlink:title=" ">
<path fill="none" stroke="#63b8ff" d="M615.78,-53.8C605.64,-53.66 595.16,-53.52 585.15,-53.38"/>
<polygon fill="#63b8ff" stroke="#63b8ff" points="615.5,-57.29 625.54,-53.93 615.59,-50.29 615.5,-57.29"/>
</a>
</g>
</g>
<!-- Node10 -->
<g id="Node000010" class="node">
<title>Node10</title>
<g id="a_Node000010"><a xlink:href="../../db/dfd/per_8c.html#a21384fcb7cf727f5e2e124c51b614075" target="_top" xlink:title=" ">
<polygon fill="white" stroke="#666666" points="591.25,-19.25 464.25,-19.25 464.25,0 591.25,0 591.25,-19.25"/>
<text text-anchor="middle" x="527.75" y="-5.75" font-family="Helvetica,sans-Serif" font-size="10.00">t_aper_decode_sequence</text>
</a>
</g>
</g>
<!-- Node4&#45;&gt;Node10 -->
<g id="edge11_Node000004_Node000010" class="edge">
<title>Node4&#45;&gt;Node10</title>
<g id="a_edge11_Node000004_Node000010"><a xlink:title=" ">
<path fill="none" stroke="#63b8ff" d="M633.23,-41.26C610.41,-34.35 583.01,-26.05 561.99,-19.69"/>
<polygon fill="#63b8ff" stroke="#63b8ff" points="631.99,-44.54 642.57,-44.09 634.02,-37.84 631.99,-44.54"/>
</a>
</g>
</g>
<!-- Node6 -->
<g id="Node000006" class="node">
<title>Node6</title>
<g id="a_Node000006"><a xlink:href="../../db/dfd/per_8c.html#a1f1e087bcc1964a0347044fce93f6a7c" target="_top" xlink:title=" ">
<polygon fill="white" stroke="#666666" points="278,-85.25 142,-85.25 142,-66 278,-66 278,-85.25"/>
<text text-anchor="middle" x="210" y="-71.75" font-family="Helvetica,sans-Serif" font-size="10.00">t_aper_decode_constructed</text>
</a>
</g>
</g>
<!-- Node5&#45;&gt;Node6 -->
<g id="edge5_Node000005_Node000006" class="edge">
<title>Node5&#45;&gt;Node6</title>
<g id="a_edge5_Node000005_Node000006"><a xlink:title=" ">
<path fill="none" stroke="#63b8ff" d="M459.44,-129.6C417.3,-126.21 362.06,-120.15 314,-109.62 286.96,-103.7 257.01,-93.37 236.41,-85.65"/>
<polygon fill="#63b8ff" stroke="#63b8ff" points="458.94,-133.07 469.18,-130.35 459.48,-126.1 458.94,-133.07"/>
</a>
</g>
</g>
<!-- Node6&#45;&gt;Node3 -->
<g id="edge7_Node000006_Node000003" class="edge">
<title>Node6&#45;&gt;Node3</title>
<g id="a_edge7_Node000006_Node000003"><a xlink:title=" ">
<path fill="none" stroke="#63b8ff" d="M289.81,-76.05C366.71,-76.42 487.01,-76.85 591.25,-76.62 650.86,-76.49 719.25,-76.17 765.33,-75.93"/>
<polygon fill="#63b8ff" stroke="#63b8ff" points="289.84,-72.55 279.83,-76.01 289.81,-79.55 289.84,-72.55"/>
</a>
</g>
</g>
<!-- Node7 -->
<g id="Node000007" class="node">
<title>Node7</title>
<g id="a_Node000007"><a xlink:href="../../db/dfd/per_8c.html#ab63f464a0d939fde54f1a6365c47bedb" target="_top" xlink:title=" ">
<polygon fill="white" stroke="#666666" points="106,-85.25 0,-85.25 0,-66 106,-66 106,-85.25"/>
<text text-anchor="middle" x="53" y="-71.75" font-family="Helvetica,sans-Serif" font-size="10.00">t_aper_decode_desc</text>
</a>
</g>
</g>
<!-- Node6&#45;&gt;Node7 -->
<g id="edge6_Node000006_Node000007" class="edge">
<title>Node6&#45;&gt;Node7</title>
<g id="a_edge6_Node000006_Node000007"><a xlink:title=" ">
<path fill="none" stroke="#63b8ff" d="M130.65,-75.62C122.38,-75.62 114.11,-75.62 106.23,-75.62"/>
<polygon fill="#63b8ff" stroke="#63b8ff" points="130.4,-79.13 140.4,-75.63 130.4,-72.13 130.4,-79.13"/>
</a>
</g>
</g>
<!-- Node9 -->
<g id="Node000009" class="node">
<title>Node9</title>
<g id="a_Node000009"><a xlink:href="../../db/dfd/per_8c.html#a6174b0f0ff0e2b1e946640951a39b6b9" target="_top" xlink:title=" ">
<polygon fill="white" stroke="#666666" points="428.25,-64.25 314,-64.25 314,-45 428.25,-45 428.25,-64.25"/>
<text text-anchor="middle" x="371.12" y="-50.75" font-family="Helvetica,sans-Serif" font-size="10.00">t_aper_decode_seq_of</text>
</a>
</g>
</g>
<!-- Node8&#45;&gt;Node9 -->
<g id="edge9_Node000008_Node000009" class="edge">
<title>Node8&#45;&gt;Node9</title>
<g id="a_edge9_Node000008_Node000009"><a xlink:title=" ">
<path fill="none" stroke="#63b8ff" d="M459.12,-53.5C448.94,-53.63 438.52,-53.77 428.6,-53.89"/>
<polygon fill="#63b8ff" stroke="#63b8ff" points="459.02,-57 468.98,-53.37 458.93,-50 459.02,-57"/>
</a>
</g>
</g>
<!-- Node9&#45;&gt;Node6 -->
<g id="edge10_Node000009_Node000006" class="edge">
<title>Node9&#45;&gt;Node6</title>
<g id="a_edge10_Node000009_Node000006"><a xlink:title=" ">
<path fill="none" stroke="#63b8ff" d="M302.41,-63.56C294.41,-64.62 286.25,-65.69 278.25,-66.75"/>
<polygon fill="#63b8ff" stroke="#63b8ff" points="302.62,-67.06 312.07,-62.29 301.7,-60.12 302.62,-67.06"/>
</a>
</g>
</g>
<!-- Node10&#45;&gt;Node6 -->
<g id="edge12_Node000010_Node000006" class="edge">
<title>Node10&#45;&gt;Node6</title>
<g id="a_edge12_Node000010_Node000006"><a xlink:title=" ">
<path fill="none" stroke="#63b8ff" d="M452.75,-14.12C411.46,-17.76 359.36,-24.24 314,-35.62 284.79,-42.96 252.67,-56.34 232.19,-65.6"/>
<polygon fill="#63b8ff" stroke="#63b8ff" points="452.91,-17.62 462.59,-13.3 452.33,-10.65 452.91,-17.62"/>
</a>
</g>
</g>
<!-- Node11&#45;&gt;Node10 -->
<g id="edge14_Node000011_Node000010" class="edge">
<title>Node11&#45;&gt;Node10</title>
<g id="a_edge14_Node000011_Node000010"><a xlink:title=" ">
<path fill="none" stroke="#63b8ff" d="M764.22,-11.25C715.2,-10.91 643.14,-10.41 591.66,-10.06"/>
<polygon fill="#63b8ff" stroke="#63b8ff" points="764,-14.75 774.03,-11.32 764.05,-7.75 764,-14.75"/>
</a>
</g>
</g>
</g>
</svg>

<g id="navigator" transform="translate(0 0)" fill="#404254">
  <rect fill="#f2f5e9" fill-opacity="0.5" stroke="#606060" stroke-width=".5" x="0" y="0" width="60" height="60"/>
  <use id="zoomplus" xlink:href="#zoomPlus" x="17" y="9" onmousedown="handleZoom(evt,'in')"/>
  <use id="zoomminus" xlink:href="#zoomMin" x="42" y="9" onmousedown="handleZoom(evt,'out')"/>
  <use id="reset" xlink:href="#resetDef" x="30" y="36" onmousedown="handleReset()"/>
   <use id="arrowup" xlink:href="#arrowUp" x="0" y="0" onmousedown="handlePan(0,-1)"/>
  <use id="arrowright" xlink:href="#arrowRight" x="0" y="0" onmousedown="handlePan(1,0)"/>
  <use id="arrowdown" xlink:href="#arrowDown" x="0" y="0" onmousedown="handlePan(0,1)"/>
  <use id="arrowleft" xlink:href="#arrowLeft" x="0" y="0" onmousedown="handlePan(-1,0)"/>
</g>
<svg viewBox="0 0 15 15" width="100%" height="30px" preserveAspectRatio="xMaxYMin meet">
 <g id="arrow_out" transform="scale(0.3 0.3)">
  <a xlink:href="per_8c_a71247fb67eb0def2628bb251d8669b35_icgraph_org.svg" target="_base">
   <rect id="button" ry="5" rx="5" y="6" x="6" height="38" width="38"
        fill="#f2f5e9" fill-opacity="0.5" stroke="#606060" stroke-width="1.0"/>
   <path id="arrow"
     d="M 11.500037,31.436501 C 11.940474,20.09759 22.043105,11.32322 32.158766,21.979434 L 37.068811,17.246167 C 37.068811,17.246167 37.088388,32 37.088388,32 L 22.160133,31.978069 C 22.160133,31.978069 26.997745,27.140456 26.997745,27.140456 C 18.528582,18.264221 13.291696,25.230495 11.500037,31.436501 z"
     style="fill:#404040;"/>
  </a>
 </g>
</svg>

<style type='text/css'>
<![CDATA[
[data-mouse-over-selected='false'] { opacity: 0.7; }
[data-mouse-over-selected='true']  { opacity: 1.0; }
]]>
</style>
<script type="application/ecmascript"><![CDATA[
document.addEventListener('DOMContentLoaded', (event) => {
  highlightEdges();
  highlightAdjacentNodes();
});
]]></script>
</svg>
