<?xml version="1.0" encoding="UTF-8" standalone="no"?>
<!DOCTYPE svg PUBLIC "-//W3C//DTD SVG 1.1//EN"
 "http://www.w3.org/Graphics/SVG/1.1/DTD/svg11.dtd">
<!-- Generated by graphviz version 9.0.0 (20230911.1827)
 -->
<!-- Title: t_aper_decode_seq_of Pages: 1 -->
<svg width="740pt" height="148pt"
 viewBox="0.00 0.00 739.75 147.88" xmlns="http://www.w3.org/2000/svg" xmlns:xlink="http://www.w3.org/1999/xlink">
<g id="graph0" class="graph" transform="scale(1 1) rotate(0) translate(4 143.88)">
<title>t_aper_decode_seq_of</title>
<!-- Node1 -->
<g id="Node000001" class="node">
<title>Node1</title>
<g id="a_Node000001"><a xlink:title=" ">
<polygon fill="#999999" stroke="#666666" points="731.75,-35.88 617.5,-35.88 617.5,-16.62 731.75,-16.62 731.75,-35.88"/>
<text text-anchor="middle" x="674.62" y="-22.38" font-family="Helvetica,sans-Serif" font-size="10.00">t_aper_decode_seq_of</text>
</a>
</g>
</g>
<!-- Node2 -->
<g id="Node000002" class="node">
<title>Node2</title>
<g id="a_Node000002"><a xlink:href="../../db/dfd/per_8c.html#a1f1e087bcc1964a0347044fce93f6a7c" target="_top" xlink:title=" ">
<polygon fill="white" stroke="#666666" points="581.5,-73.88 445.5,-73.88 445.5,-54.62 581.5,-54.62 581.5,-73.88"/>
<text text-anchor="middle" x="513.5" y="-60.38" font-family="Helvetica,sans-Serif" font-size="10.00">t_aper_decode_constructed</text>
</a>
</g>
</g>
<!-- Node1&#45;&gt;Node2 -->
<g id="edge1_Node000001_Node000002" class="edge">
<title>Node1&#45;&gt;Node2</title>
<g id="a_edge1_Node000001_Node000002"><a xlink:title=" ">
<path fill="none" stroke="#63b8ff" d="M620.21,-39.01C599.5,-43.95 576.13,-49.53 556.65,-54.19"/>
<polygon fill="#63b8ff" stroke="#63b8ff" points="621.01,-42.41 629.93,-36.69 619.39,-35.6 621.01,-42.41"/>
</a>
</g>
</g>
<!-- Node3 -->
<g id="Node000003" class="node">
<title>Node3</title>
<g id="a_Node000003"><a xlink:href="../../db/dfd/per_8c.html#ab63f464a0d939fde54f1a6365c47bedb" target="_top" xlink:title=" ">
<polygon fill="white" stroke="#666666" points="408.38,-36.88 302.38,-36.88 302.38,-17.62 408.38,-17.62 408.38,-36.88"/>
<text text-anchor="middle" x="355.38" y="-23.38" font-family="Helvetica,sans-Serif" font-size="10.00">t_aper_decode_desc</text>
</a>
</g>
</g>
<!-- Node2&#45;&gt;Node3 -->
<g id="edge2_Node000002_Node000003" class="edge">
<title>Node2&#45;&gt;Node3</title>
<g id="a_edge2_Node000002_Node000003"><a xlink:title=" ">
<path fill="none" stroke="#63b8ff" d="M458.65,-51.49C439.14,-46.87 417.39,-41.71 398.99,-37.35"/>
<polygon fill="#63b8ff" stroke="#63b8ff" points="457.83,-54.89 468.37,-53.79 459.44,-48.08 457.83,-54.89"/>
</a>
</g>
</g>
<!-- Node4 -->
<g id="Node000004" class="node">
<title>Node4</title>
<g id="a_Node000004"><a xlink:href="../../db/dfd/per_8c.html#ad241b250dff184dcd0a44ca475aaf70e" target="_top" xlink:title=" ">
<polygon fill="white" stroke="#666666" points="409.5,-73.88 301.25,-73.88 301.25,-54.62 409.5,-54.62 409.5,-73.88"/>
<text text-anchor="middle" x="355.38" y="-60.38" font-family="Helvetica,sans-Serif" font-size="10.00">t_aper_decode_value</text>
</a>
</g>
</g>
<!-- Node2&#45;&gt;Node4 -->
<g id="edge3_Node000002_Node000004" class="edge">
<title>Node2&#45;&gt;Node4</title>
<g id="a_edge3_Node000002_Node000004"><a xlink:title=" ">
<path fill="none" stroke="#63b8ff" d="M433.88,-64.25C425.72,-64.25 417.56,-64.25 409.78,-64.25"/>
<polygon fill="#63b8ff" stroke="#63b8ff" points="433.87,-67.75 443.87,-64.25 433.87,-60.75 433.87,-67.75"/>
</a>
</g>
</g>
<!-- Node5 -->
<g id="Node000005" class="node">
<title>Node5</title>
<g id="a_Node000005"><a xlink:href="../../db/dfd/per_8c.html#adedfcb81b5e27cfaa3679c443107fd60" target="_top" xlink:title=" ">
<polygon fill="white" stroke="#666666" points="265.25,-73.88 163,-73.88 163,-54.62 265.25,-54.62 265.25,-73.88"/>
<text text-anchor="middle" x="214.12" y="-60.38" font-family="Helvetica,sans-Serif" font-size="10.00">t_aper_decode_field</text>
</a>
</g>
</g>
<!-- Node4&#45;&gt;Node5 -->
<g id="edge4_Node000004_Node000005" class="edge">
<title>Node4&#45;&gt;Node5</title>
<g id="a_edge4_Node000004_Node000005"><a xlink:title=" ">
<path fill="none" stroke="#63b8ff" d="M289.58,-64.25C281.48,-64.25 273.28,-64.25 265.45,-64.25"/>
<polygon fill="#63b8ff" stroke="#63b8ff" points="289.42,-67.75 299.42,-64.25 289.42,-60.75 289.42,-67.75"/>
</a>
</g>
</g>
<!-- Node6 -->
<g id="Node000006" class="node">
<title>Node6</title>
<g id="a_Node000006"><a xlink:href="../../db/dfd/per_8c.html#a6e95f8cdc72c7432a7773ca9db9bfca2" target="_top" xlink:title=" ">
<polygon fill="white" stroke="#666666" points="120.25,-139.88 6.75,-139.88 6.75,-120.62 120.25,-120.62 120.25,-139.88"/>
<text text-anchor="middle" x="63.5" y="-126.38" font-family="Helvetica,sans-Serif" font-size="10.00">t_aper_decode_choice</text>
</a>
</g>
</g>
<!-- Node5&#45;&gt;Node6 -->
<g id="edge5_Node000005_Node000006" class="edge">
<title>Node5&#45;&gt;Node6</title>
<g id="a_edge5_Node000005_Node000006"><a xlink:title=" ">
<path fill="none" stroke="#63b8ff" d="M180.37,-78.8C152.15,-91.33 112.14,-109.09 87.29,-120.13"/>
<polygon fill="#63b8ff" stroke="#63b8ff" points="181.45,-82.15 189.17,-74.89 178.61,-75.75 181.45,-82.15"/>
</a>
</g>
</g>
<!-- Node7 -->
<g id="Node000007" class="node">
<title>Node7</title>
<g id="a_Node000007"><a xlink:href="../../db/dfd/per_8c.html#a73f9c9a06039b6798b47b73b8cc274c0" target="_top" xlink:title=" ">
<polygon fill="white" stroke="#666666" points="120.63,-30.5 6.38,-30.5 6.38,0 120.63,0 120.63,-30.5"/>
<text text-anchor="start" x="14.38" y="-17" font-family="Helvetica,sans-Serif" font-size="10.00">t_aper_decode_seq_of</text>
<text text-anchor="middle" x="63.5" y="-5.75" font-family="Helvetica,sans-Serif" font-size="10.00">_fields</text>
</a>
</g>
</g>
<!-- Node5&#45;&gt;Node7 -->
<g id="edge7_Node000005_Node000007" class="edge">
<title>Node5&#45;&gt;Node7</title>
<g id="a_edge7_Node000005_Node000007"><a xlink:title=" ">
<path fill="none" stroke="#63b8ff" d="M171.94,-50.67C153.4,-44.56 131.41,-37.31 112.16,-30.96"/>
<polygon fill="#63b8ff" stroke="#63b8ff" points="170.66,-53.93 181.25,-53.74 172.85,-47.29 170.66,-53.93"/>
</a>
</g>
</g>
<!-- Node8 -->
<g id="Node000008" class="node">
<title>Node8</title>
<g id="a_Node000008"><a xlink:href="../../db/dfd/per_8c.html#a21384fcb7cf727f5e2e124c51b614075" target="_top" xlink:title=" ">
<polygon fill="white" stroke="#666666" points="127,-83.88 0,-83.88 0,-64.62 127,-64.62 127,-83.88"/>
<text text-anchor="middle" x="63.5" y="-70.38" font-family="Helvetica,sans-Serif" font-size="10.00">t_aper_decode_sequence</text>
</a>
</g>
</g>
<!-- Node5&#45;&gt;Node8 -->
<g id="edge9_Node000005_Node000008" class="edge">
<title>Node5&#45;&gt;Node8</title>
<g id="a_edge9_Node000005_Node000008"><a xlink:title=" ">
<path fill="none" stroke="#63b8ff" d="M151.39,-68.4C143.47,-68.94 135.35,-69.48 127.42,-70.02"/>
<polygon fill="#63b8ff" stroke="#63b8ff" points="151.55,-71.9 161.3,-67.74 151.08,-64.92 151.55,-71.9"/>
</a>
</g>
</g>
<!-- Node6&#45;&gt;Node2 -->
<g id="edge6_Node000006_Node000002" class="edge">
<title>Node6&#45;&gt;Node2</title>
<g id="a_edge6_Node000006_Node000002"><a xlink:title=" ">
<path fill="none" stroke="#63b8ff" d="M131.97,-128.92C202.03,-126.44 314.48,-119.36 409.5,-99.25 437.22,-93.38 467.81,-82.38 488.4,-74.27"/>
<polygon fill="#63b8ff" stroke="#63b8ff" points="132.07,-125.41 122.19,-129.24 132.3,-132.41 132.07,-125.41"/>
</a>
</g>
</g>
<!-- Node7&#45;&gt;Node1 -->
<g id="edge8_Node000007_Node000001" class="edge">
<title>Node7&#45;&gt;Node1</title>
<g id="a_edge8_Node000007_Node000001"><a xlink:title=" ">
<path fill="none" stroke="#63b8ff" d="M132.28,-12.71C179.61,-11.07 244.27,-9.09 301.25,-8.25 349.36,-7.54 361.42,-6.61 409.5,-8.25 481.16,-10.69 563.56,-16.84 617.01,-21.27"/>
<polygon fill="#63b8ff" stroke="#63b8ff" points="132.32,-9.21 122.45,-13.06 132.56,-16.21 132.32,-9.21"/>
</a>
</g>
</g>
<!-- Node8&#45;&gt;Node2 -->
<g id="edge10_Node000008_Node000002" class="edge">
<title>Node8&#45;&gt;Node2</title>
<g id="a_edge10_Node000008_Node000002"><a xlink:title=" ">
<path fill="none" stroke="#63b8ff" d="M138.92,-81.77C147.04,-82.38 155.19,-82.89 163,-83.25 272.44,-88.24 300.4,-93.23 409.5,-83.25 428.69,-81.49 449.65,-77.94 467.62,-74.37"/>
<polygon fill="#63b8ff" stroke="#63b8ff" points="139.25,-78.29 129.01,-80.99 138.7,-85.27 139.25,-78.29"/>
</a>
</g>
</g>
</g>
</svg>
