<?xml version="1.0" encoding="UTF-8" standalone="no"?>
<!DOCTYPE svg PUBLIC "-//W3C//DTD SVG 1.1//EN"
 "http://www.w3.org/Graphics/SVG/1.1/DTD/svg11.dtd">
<!-- Generated by graphviz version 9.0.0 (20230911.1827)
 -->
<!-- Title: thr_create Pages: 1 -->
<!--zoomable 83 -->

<svg id="main" version="1.1" xmlns="http://www.w3.org/2000/svg" xmlns:xlink="http://www.w3.org/1999/xlink" xml:space="preserve" onload="init(evt)">
<style type="text/css"><![CDATA[
.node, .edge {opacity: 0.7;}
.node.selected, .edge.selected {opacity: 1;}
.edge:hover path { stroke: red; }
.edge:hover polygon { stroke: red; fill: red; }
]]></style>

<defs>
  <circle id="rim" cx="0" cy="0" r="7"/>
  <circle id="rim2" cx="0" cy="0" r="3.5"/>
  <g id="zoomPlus">
    <use xlink:href="#rim" fill="#404040"><set attributeName="fill" to="#808080" begin="zoomplus.mouseover" end="zoomplus.mouseout"/></use>
    <path d="M-4,0h8M0,-4v8" fill="none" stroke="white" stroke-width="1.5" pointer-events="none"/>
  </g>
  <g id="zoomMin">
    <use xlink:href="#rim" fill="#404040"><set attributeName="fill" to="#808080" begin="zoomminus.mouseover" end="zoomminus.mouseout"/></use>
    <path d="M-4,0h8" fill="none" stroke="white" stroke-width="1.5" pointer-events="none"/>
  </g>
  <g id="arrowUp" transform="translate(30 24)">
    <use xlink:href="#rim"/>
    <path pointer-events="none" fill="none" stroke="white" stroke-width="1.5" d="M0,-3.0v7 M-2.5,-0.5L0,-3.0L2.5,-0.5"/>
  </g>
  <g id="arrowRight" transform="rotate(90) translate(36 -43)">
    <use xlink:href="#rim"/>
    <path pointer-events="none" fill="none" stroke="white" stroke-width="1.5" d="M0,-3.0v7 M-2.5,-0.5L0,-3.0L2.5,-0.5"/>
  </g>
  <g id="arrowDown" transform="rotate(180) translate(-30 -48)">
    <use xlink:href="#rim"/>
    <path pointer-events="none" fill="none" stroke="white" stroke-width="1.5" d="M0,-3.0v7 M-2.5,-0.5L0,-3.0L2.5,-0.5"/>
  </g>
  <g id="arrowLeft" transform="rotate(270) translate(-36 17)">
    <use xlink:href="#rim"/>
    <path pointer-events="none" fill="none" stroke="white" stroke-width="1.5" d="M0,-3.0v7 M-2.5,-0.5L0,-3.0L2.5,-0.5"/>
  </g>
  <g id="resetDef">
    <use xlink:href="#rim2" fill="#404040"><set attributeName="fill" to="#808080" begin="reset.mouseover" end="reset.mouseout"/></use>
  </g>
</defs>
<script type="application/ecmascript">
var viewWidth = 668;
var viewHeight = 83;
var sectionId = 'dynsection-4';
</script>
<script type="application/ecmascript" xlink:href="../../svg.min.js"/>
<svg id="graph" class="graph">
<g id="viewport">
<title>thr_create</title>
<!-- Node1 -->
<g id="Node000001" class="node">
<title>Node1</title>
<g id="a_Node000001"><a xlink:title=" ">
<polygon fill="#999999" stroke="#666666" points="59.5,-37.25 0,-37.25 0,-18 59.5,-18 59.5,-37.25"/>
<text text-anchor="middle" x="29.75" y="-23.75" font-family="Helvetica,sans-Serif" font-size="10.00">thr_create</text>
</a>
</g>
</g>
<!-- Node2 -->
<g id="Node000002" class="node">
<title>Node2</title>
<g id="a_Node000002"><a xlink:href="../../d6/dcc/thr_8c.html#ab46c4157b643e0a7ec74a3b9171c5526" target="_top" xlink:title=" ">
<polygon fill="white" stroke="#666666" points="194,-56.25 95.5,-56.25 95.5,-37 194,-37 194,-56.25"/>
<text text-anchor="middle" x="144.75" y="-42.75" font-family="Helvetica,sans-Serif" font-size="10.00">thr_hooks_wrapper</text>
</a>
</g>
</g>
<!-- Node1&#45;&gt;Node2 -->
<g id="edge1_Node000001_Node000002" class="edge">
<title>Node1&#45;&gt;Node2</title>
<g id="a_edge1_Node000001_Node000002"><a xlink:title=" ">
<path fill="none" stroke="#63b8ff" d="M59.85,-32.52C67.22,-33.76 75.42,-35.14 83.71,-36.53"/>
<polygon fill="#63b8ff" stroke="#63b8ff" points="83.09,-39.97 93.53,-38.18 84.25,-33.07 83.09,-39.97"/>
</a>
</g>
</g>
<!-- Node7 -->
<g id="Node000007" class="node">
<title>Node7</title>
<g id="a_Node000007"><a xlink:href="../../db/d07/iopc-dso_8c.html#a42bcf99288880269128e22f8e39a93d7" target="_top" xlink:title=" ">
<polygon fill="white" stroke="#666666" points="165.88,-19.25 123.62,-19.25 123.62,0 165.88,0 165.88,-19.25"/>
<text text-anchor="middle" x="144.75" y="-5.75" font-family="Helvetica,sans-Serif" font-size="10.00">typeof</text>
</a>
</g>
</g>
<!-- Node1&#45;&gt;Node7 -->
<g id="edge7_Node000001_Node000007" class="edge">
<title>Node1&#45;&gt;Node7</title>
<g id="a_edge7_Node000001_Node000007"><a xlink:title=" ">
<path fill="none" stroke="#63b8ff" d="M59.85,-22.99C75.85,-20.44 95.71,-17.28 112.09,-14.67"/>
<polygon fill="#63b8ff" stroke="#63b8ff" points="112.48,-18.15 121.81,-13.12 111.38,-11.24 112.48,-18.15"/>
</a>
</g>
</g>
<!-- Node3 -->
<g id="Node000003" class="node">
<title>Node3</title>
<g id="a_Node000003"><a xlink:href="../../d6/dcc/thr_8c.html#afdb201425426c5ba99e1424aa07af932" target="_top" xlink:title=" ">
<polygon fill="white" stroke="#666666" points="289.5,-75.25 230,-75.25 230,-56 289.5,-56 289.5,-75.25"/>
<text text-anchor="middle" x="259.75" y="-61.75" font-family="Helvetica,sans-Serif" font-size="10.00">thr_attach</text>
</a>
</g>
</g>
<!-- Node2&#45;&gt;Node3 -->
<g id="edge2_Node000002_Node000003" class="edge">
<title>Node2&#45;&gt;Node3</title>
<g id="a_edge2_Node000002_Node000003"><a xlink:title=" ">
<path fill="none" stroke="#63b8ff" d="M194.33,-54.79C202.45,-56.16 210.79,-57.56 218.66,-58.88"/>
<polygon fill="#63b8ff" stroke="#63b8ff" points="217.85,-62.3 228.29,-60.5 219.01,-55.39 217.85,-62.3"/>
</a>
</g>
</g>
<!-- Node6 -->
<g id="Node000006" class="node">
<title>Node6</title>
<g id="a_Node000006"><a xlink:href="../../d6/dcc/thr_8c.html#ace5cc2add50fda5c6610a9ff6c6134c0" target="_top" xlink:title=" ">
<polygon fill="white" stroke="#666666" points="660,-56.25 598.25,-56.25 598.25,-37 660,-37 660,-56.25"/>
<text text-anchor="middle" x="629.12" y="-42.75" font-family="Helvetica,sans-Serif" font-size="10.00">thr_detach</text>
</a>
</g>
</g>
<!-- Node2&#45;&gt;Node6 -->
<g id="edge6_Node000002_Node000006" class="edge">
<title>Node2&#45;&gt;Node6</title>
<g id="a_edge6_Node000002_Node000006"><a xlink:title=" ">
<path fill="none" stroke="#63b8ff" d="M194.21,-46.62C289,-46.62 497.45,-46.62 586.48,-46.62"/>
<polygon fill="#63b8ff" stroke="#63b8ff" points="586.47,-50.13 596.47,-46.63 586.47,-43.13 586.47,-50.13"/>
</a>
</g>
</g>
<!-- Node4 -->
<g id="Node000004" class="node">
<title>Node4</title>
<g id="a_Node000004"><a xlink:href="../../d6/dcc/thr_8c.html#a571d312d0e337a446a972df1f3a7838f" target="_top" xlink:title=" ">
<polygon fill="white" stroke="#666666" points="433.75,-75.25 325.5,-75.25 325.5,-56 433.75,-56 433.75,-75.25"/>
<text text-anchor="middle" x="379.62" y="-61.75" font-family="Helvetica,sans-Serif" font-size="10.00">thr_hooks_key_setup</text>
</a>
</g>
</g>
<!-- Node3&#45;&gt;Node4 -->
<g id="edge3_Node000003_Node000004" class="edge">
<title>Node3&#45;&gt;Node4</title>
<g id="a_edge3_Node000003_Node000004"><a xlink:title=" ">
<path fill="none" stroke="#63b8ff" d="M289.89,-65.62C297.2,-65.62 305.34,-65.62 313.65,-65.62"/>
<polygon fill="#63b8ff" stroke="#63b8ff" points="313.49,-69.13 323.49,-65.63 313.49,-62.13 313.49,-69.13"/>
</a>
</g>
</g>
<!-- Node5 -->
<g id="Node000005" class="node">
<title>Node5</title>
<g id="a_Node000005"><a xlink:href="../../d6/dcc/thr_8c.html#a4888a6647e98910ac529aff5c9a9758a" target="_top" xlink:title=" ">
<polygon fill="white" stroke="#666666" points="562.25,-75.25 469.75,-75.25 469.75,-56 562.25,-56 562.25,-75.25"/>
<text text-anchor="middle" x="516" y="-61.75" font-family="Helvetica,sans-Serif" font-size="10.00">thr_hooks_at_exit</text>
</a>
</g>
</g>
<!-- Node4&#45;&gt;Node5 -->
<g id="edge4_Node000004_Node000005" class="edge">
<title>Node4&#45;&gt;Node5</title>
<g id="a_edge4_Node000004_Node000005"><a xlink:title=" ">
<path fill="none" stroke="#63b8ff" d="M434.12,-65.62C441.99,-65.62 450.12,-65.62 458.05,-65.62"/>
<polygon fill="#63b8ff" stroke="#63b8ff" points="457.97,-69.13 467.97,-65.63 457.97,-62.13 457.97,-69.13"/>
</a>
</g>
</g>
<!-- Node5&#45;&gt;Node6 -->
<g id="edge5_Node000005_Node000006" class="edge">
<title>Node5&#45;&gt;Node6</title>
<g id="a_edge5_Node000005_Node000006"><a xlink:title=" ">
<path fill="none" stroke="#63b8ff" d="M562.52,-57.84C570.49,-56.48 578.75,-55.07 586.61,-53.72"/>
<polygon fill="#63b8ff" stroke="#63b8ff" points="587,-57.21 596.26,-52.07 585.82,-50.31 587,-57.21"/>
</a>
</g>
</g>
</g>
</svg>

<g id="navigator" transform="translate(0 0)" fill="#404254">
  <rect fill="#f2f5e9" fill-opacity="0.5" stroke="#606060" stroke-width=".5" x="0" y="0" width="60" height="60"/>
  <use id="zoomplus" xlink:href="#zoomPlus" x="17" y="9" onmousedown="handleZoom(evt,'in')"/>
  <use id="zoomminus" xlink:href="#zoomMin" x="42" y="9" onmousedown="handleZoom(evt,'out')"/>
  <use id="reset" xlink:href="#resetDef" x="30" y="36" onmousedown="handleReset()"/>
   <use id="arrowup" xlink:href="#arrowUp" x="0" y="0" onmousedown="handlePan(0,-1)"/>
  <use id="arrowright" xlink:href="#arrowRight" x="0" y="0" onmousedown="handlePan(1,0)"/>
  <use id="arrowdown" xlink:href="#arrowDown" x="0" y="0" onmousedown="handlePan(0,1)"/>
  <use id="arrowleft" xlink:href="#arrowLeft" x="0" y="0" onmousedown="handlePan(-1,0)"/>
</g>
<svg viewBox="0 0 15 15" width="100%" height="30px" preserveAspectRatio="xMaxYMin meet">
 <g id="arrow_out" transform="scale(0.3 0.3)">
  <a xlink:href="thr_8c_a9c1c4f9fca6b868294393d4964578be6_cgraph_org.svg" target="_base">
   <rect id="button" ry="5" rx="5" y="6" x="6" height="38" width="38"
        fill="#f2f5e9" fill-opacity="0.5" stroke="#606060" stroke-width="1.0"/>
   <path id="arrow"
     d="M 11.500037,31.436501 C 11.940474,20.09759 22.043105,11.32322 32.158766,21.979434 L 37.068811,17.246167 C 37.068811,17.246167 37.088388,32 37.088388,32 L 22.160133,31.978069 C 22.160133,31.978069 26.997745,27.140456 26.997745,27.140456 C 18.528582,18.264221 13.291696,25.230495 11.500037,31.436501 z"
     style="fill:#404040;"/>
  </a>
 </g>
</svg>

<style type='text/css'>
<![CDATA[
[data-mouse-over-selected='false'] { opacity: 0.7; }
[data-mouse-over-selected='true']  { opacity: 1.0; }
]]>
</style>
<script type="application/ecmascript"><![CDATA[
document.addEventListener('DOMContentLoaded', (event) => {
  highlightEdges();
  highlightAdjacentNodes();
});
]]></script>
</svg>
