<?xml version="1.0" encoding="UTF-8" standalone="no"?>
<!DOCTYPE svg PUBLIC "-//W3C//DTD SVG 1.1//EN"
 "http://www.w3.org/Graphics/SVG/1.1/DTD/svg11.dtd">
<!-- Generated by graphviz version 9.0.0 (20230911.1827)
 -->
<!-- Title: httpd_set_mask Pages: 1 -->
<svg width="3122pt" height="403pt"
 viewBox="0.00 0.00 3122.00 403.25" xmlns="http://www.w3.org/2000/svg" xmlns:xlink="http://www.w3.org/1999/xlink">
<g id="graph0" class="graph" transform="scale(1 1) rotate(0) translate(4 399.25)">
<title>httpd_set_mask</title>
<!-- Node1 -->
<g id="Node000001" class="node">
<title>Node1</title>
<g id="a_Node000001"><a xlink:title=" ">
<polygon fill="#999999" stroke="#666666" points="3114,-57.25 3028.25,-57.25 3028.25,-38 3114,-38 3114,-57.25"/>
<text text-anchor="middle" x="3071.12" y="-43.75" font-family="Helvetica,sans-Serif" font-size="10.00">httpd_set_mask</text>
</a>
</g>
</g>
<!-- Node2 -->
<g id="Node000002" class="node">
<title>Node2</title>
<g id="a_Node000002"><a xlink:href="../../dd/d4a/net_2http_8c.html#ad9b09f3dad466ee1160e8a18c51d0522" target="_top" xlink:title=" ">
<polygon fill="white" stroke="#666666" points="2992.25,-151.25 2881.75,-151.25 2881.75,-132 2992.25,-132 2992.25,-151.25"/>
<text text-anchor="middle" x="2937" y="-137.75" font-family="Helvetica,sans-Serif" font-size="10.00">httpd_flush_answered</text>
</a>
</g>
</g>
<!-- Node1&#45;&gt;Node2 -->
<g id="edge1_Node000001_Node000002" class="edge">
<title>Node1&#45;&gt;Node2</title>
<g id="a_edge1_Node000001_Node000002"><a xlink:title=" ">
<path fill="none" stroke="#63b8ff" d="M3046.72,-64.28C3019.26,-83.81 2974.62,-115.57 2952.04,-131.64"/>
<polygon fill="#63b8ff" stroke="#63b8ff" points="3048.63,-67.21 3054.75,-58.56 3044.57,-61.51 3048.63,-67.21"/>
</a>
</g>
</g>
<!-- Node40 -->
<g id="Node000040" class="node">
<title>Node40</title>
<g id="a_Node000040"><a xlink:href="../../dd/d4a/net_2http_8c.html#aefa9e1985bcbcb43e5192818d95bc83a" target="_top" xlink:title=" ">
<polygon fill="white" stroke="#666666" points="2978.38,-57.25 2895.62,-57.25 2895.62,-38 2978.38,-38 2978.38,-57.25"/>
<text text-anchor="middle" x="2937" y="-43.75" font-family="Helvetica,sans-Serif" font-size="10.00">httpd_on_event</text>
</a>
</g>
</g>
<!-- Node1&#45;&gt;Node40 -->
<g id="edge46_Node000001_Node000040" class="edge">
<title>Node1&#45;&gt;Node40</title>
<g id="a_edge46_Node000001_Node000040"><a xlink:title=" ">
<path fill="none" stroke="#63b8ff" d="M3016.62,-47.62C3004.03,-47.62 2990.8,-47.62 2978.87,-47.62"/>
<polygon fill="#63b8ff" stroke="#63b8ff" points="3016.44,-51.13 3026.44,-47.63 3016.44,-44.13 3016.44,-51.13"/>
</a>
</g>
</g>
<!-- Node43 -->
<g id="Node000043" class="node">
<title>Node43</title>
<g id="a_Node000043"><a xlink:href="../../dd/d4a/net_2http_8c.html#a7d5b896116ffb14b87f83c9b7454470a" target="_top" xlink:title=" ">
<polygon fill="white" stroke="#666666" points="2984.38,-20.25 2889.62,-20.25 2889.62,-1 2984.38,-1 2984.38,-20.25"/>
<text text-anchor="middle" x="2937" y="-6.75" font-family="Helvetica,sans-Serif" font-size="10.00">httpd_signal_write</text>
</a>
</g>
</g>
<!-- Node1&#45;&gt;Node43 -->
<g id="edge51_Node000001_Node000043" class="edge">
<title>Node1&#45;&gt;Node43</title>
<g id="a_edge51_Node000001_Node000043"><a xlink:title=" ">
<path fill="none" stroke="#63b8ff" d="M3023.16,-34.47C3007.01,-29.95 2989.2,-24.96 2974.06,-20.72"/>
<polygon fill="#63b8ff" stroke="#63b8ff" points="3021.99,-37.78 3032.56,-37.11 3023.88,-31.04 3021.99,-37.78"/>
</a>
</g>
</g>
<!-- Node3 -->
<g id="Node000003" class="node">
<title>Node3</title>
<g id="a_Node000003"><a xlink:href="../../dd/d4a/net_2http_8c.html#a694c2533c78a21a297fc8478bbce2b27" target="_top" xlink:title=" ">
<polygon fill="white" stroke="#666666" points="2845.75,-264.25 2705.25,-264.25 2705.25,-245 2845.75,-245 2845.75,-264.25"/>
<text text-anchor="middle" x="2775.5" y="-250.75" font-family="Helvetica,sans-Serif" font-size="10.00">httpd_mark_query_answered</text>
</a>
</g>
</g>
<!-- Node2&#45;&gt;Node3 -->
<g id="edge2_Node000002_Node000003" class="edge">
<title>Node2&#45;&gt;Node3</title>
<g id="a_edge2_Node000002_Node000003"><a xlink:title=" ">
<path fill="none" stroke="#63b8ff" d="M2912.74,-158.1C2879.07,-181.95 2817.8,-225.36 2790.4,-244.78"/>
<polygon fill="#63b8ff" stroke="#63b8ff" points="2914.47,-161.16 2920.61,-152.53 2910.43,-155.45 2914.47,-161.16"/>
</a>
</g>
</g>
<!-- Node11 -->
<g id="Node000011" class="node">
<title>Node11</title>
<g id="a_Node000011"><a xlink:href="../../dd/d4a/net_2http_8c.html#af25b81c0d21741801af13c0c400b66c0" target="_top" xlink:title=" ">
<polygon fill="white" stroke="#666666" points="2821.75,-151.25 2729.25,-151.25 2729.25,-132 2821.75,-132 2821.75,-151.25"/>
<text text-anchor="middle" x="2775.5" y="-137.75" font-family="Helvetica,sans-Serif" font-size="10.00">httpd_query_done</text>
</a>
</g>
</g>
<!-- Node2&#45;&gt;Node11 -->
<g id="edge10_Node000002_Node000011" class="edge">
<title>Node2&#45;&gt;Node11</title>
<g id="a_edge10_Node000002_Node000011"><a xlink:title=" ">
<path fill="none" stroke="#63b8ff" d="M2870.49,-141.62C2854.28,-141.62 2837.25,-141.62 2822.21,-141.62"/>
<polygon fill="#63b8ff" stroke="#63b8ff" points="2870.04,-145.13 2880.04,-141.63 2870.04,-138.13 2870.04,-145.13"/>
</a>
</g>
</g>
<!-- Node4 -->
<g id="Node000004" class="node">
<title>Node4</title>
<g id="a_Node000004"><a xlink:href="../../dd/d4a/net_2http_8c.html#a1376dfefa5c91c9802ce9fba9b213eaf" target="_top" xlink:title=" ">
<polygon fill="white" stroke="#666666" points="2650.12,-321.25 2560.62,-321.25 2560.62,-302 2650.12,-302 2650.12,-321.25"/>
<text text-anchor="middle" x="2605.38" y="-307.75" font-family="Helvetica,sans-Serif" font-size="10.00">httpd_reply_done</text>
</a>
</g>
</g>
<!-- Node3&#45;&gt;Node4 -->
<g id="edge3_Node000003_Node000004" class="edge">
<title>Node3&#45;&gt;Node4</title>
<g id="a_edge3_Node000003_Node000004"><a xlink:title=" ">
<path fill="none" stroke="#63b8ff" d="M2734.21,-268.28C2704,-278.53 2663.31,-292.32 2636.03,-301.57"/>
<polygon fill="#63b8ff" stroke="#63b8ff" points="2735.05,-271.7 2743.4,-265.17 2732.8,-265.07 2735.05,-271.7"/>
</a>
</g>
</g>
<!-- Node5 -->
<g id="Node000005" class="node">
<title>Node5</title>
<g id="a_Node000005"><a xlink:href="../../dd/d4a/net_2http_8c.html#a1174f21a7f3da5d1eb47413db5b6ee0c" target="_top" xlink:title=" ">
<polygon fill="white" stroke="#666666" points="2478.88,-284.25 2405.12,-284.25 2405.12,-265 2478.88,-265 2478.88,-284.25"/>
<text text-anchor="middle" x="2442" y="-270.75" font-family="Helvetica,sans-Serif" font-size="10.00">httpd_do_any</text>
</a>
</g>
</g>
<!-- Node4&#45;&gt;Node5 -->
<g id="edge4_Node000004_Node000005" class="edge">
<title>Node4&#45;&gt;Node5</title>
<g id="a_edge4_Node000004_Node000005"><a xlink:title=" ">
<path fill="none" stroke="#63b8ff" d="M2549.2,-298.98C2526.05,-293.67 2499.78,-287.64 2479.15,-282.91"/>
<polygon fill="#63b8ff" stroke="#63b8ff" points="2548.27,-302.35 2558.8,-301.18 2549.84,-295.53 2548.27,-302.35"/>
</a>
</g>
</g>
<!-- Node7 -->
<g id="Node000007" class="node">
<title>Node7</title>
<g id="a_Node000007"><a xlink:href="../../dd/d4a/net_2http_8c.html#a8da7422931be08c5745536b7a1660465" target="_top" xlink:title=" ">
<polygon fill="white" stroke="#666666" points="2478.12,-358.25 2405.88,-358.25 2405.88,-339 2478.12,-339 2478.12,-358.25"/>
<text text-anchor="middle" x="2442" y="-344.75" font-family="Helvetica,sans-Serif" font-size="10.00">httpd_reject_</text>
</a>
</g>
</g>
<!-- Node4&#45;&gt;Node7 -->
<g id="edge6_Node000004_Node000007" class="edge">
<title>Node4&#45;&gt;Node7</title>
<g id="a_edge6_Node000004_Node000007"><a xlink:title=" ">
<path fill="none" stroke="#63b8ff" d="M2549.08,-324.3C2525.66,-329.67 2499.07,-335.77 2478.36,-340.52"/>
<polygon fill="#63b8ff" stroke="#63b8ff" points="2549.84,-327.72 2558.8,-322.07 2548.27,-320.9 2549.84,-327.72"/>
</a>
</g>
</g>
<!-- Node9 -->
<g id="Node000009" class="node">
<title>Node9</title>
<g id="a_Node000009"><a xlink:href="../../dd/d4a/net_2http_8c.html#a07cef95b97579a3db1a9b235de5b4d92" target="_top" xlink:title=" ">
<polygon fill="white" stroke="#666666" points="2505.5,-321.25 2378.5,-321.25 2378.5,-302 2505.5,-302 2505.5,-321.25"/>
<text text-anchor="middle" x="2442" y="-307.75" font-family="Helvetica,sans-Serif" font-size="10.00">httpd_reject_unauthorized</text>
</a>
</g>
</g>
<!-- Node4&#45;&gt;Node9 -->
<g id="edge8_Node000004_Node000009" class="edge">
<title>Node4&#45;&gt;Node9</title>
<g id="a_edge8_Node000004_Node000009"><a xlink:title=" ">
<path fill="none" stroke="#63b8ff" d="M2548.91,-311.62C2535.02,-311.62 2520.02,-311.62 2505.8,-311.62"/>
<polygon fill="#63b8ff" stroke="#63b8ff" points="2548.77,-315.13 2558.77,-311.63 2548.76,-308.13 2548.77,-315.13"/>
</a>
</g>
</g>
<!-- Node10 -->
<g id="Node000010" class="node">
<title>Node10</title>
<g id="a_Node000010"><a xlink:href="../../dd/d4a/net_2http_8c.html#a94104e8e2e402823518d290201401945" target="_top" xlink:title=" ">
<polygon fill="white" stroke="#666666" points="2504,-395.25 2380,-395.25 2380,-376 2504,-376 2504,-395.25"/>
<text text-anchor="middle" x="2442" y="-381.75" font-family="Helvetica,sans-Serif" font-size="10.00">httpd_reply_202accepted</text>
</a>
</g>
</g>
<!-- Node4&#45;&gt;Node10 -->
<g id="edge9_Node000004_Node000010" class="edge">
<title>Node4&#45;&gt;Node10</title>
<g id="a_edge9_Node000004_Node000010"><a xlink:title=" ">
<path fill="none" stroke="#63b8ff" d="M2579.58,-327.84C2560.07,-340.06 2531.86,-356.55 2505.5,-367.62 2498.42,-370.6 2490.69,-373.26 2483.16,-375.57"/>
<polygon fill="#63b8ff" stroke="#63b8ff" points="2581.36,-330.86 2587.92,-322.54 2577.6,-324.95 2581.36,-330.86"/>
</a>
</g>
</g>
<!-- Node6 -->
<g id="Node000006" class="node">
<title>Node6</title>
<g id="a_Node000006"><a xlink:href="../../dd/d4a/net_2http_8c.html#a26703f6902d3ced0d6f3242f837db49b" target="_top" xlink:title=" ">
<polygon fill="white" stroke="#666666" points="2329.75,-265.25 2242.5,-265.25 2242.5,-246 2329.75,-246 2329.75,-265.25"/>
<text text-anchor="middle" x="2286.12" y="-251.75" font-family="Helvetica,sans-Serif" font-size="10.00">httpd_parse_idle</text>
</a>
</g>
</g>
<!-- Node5&#45;&gt;Node6 -->
<g id="edge5_Node000005_Node000006" class="edge">
<title>Node5&#45;&gt;Node6</title>
<g id="a_edge5_Node000005_Node000006"><a xlink:title=" ">
<path fill="none" stroke="#63b8ff" d="M2393.72,-268.79C2373.42,-266.28 2349.88,-263.37 2330.09,-260.93"/>
<polygon fill="#63b8ff" stroke="#63b8ff" points="2393.07,-272.23 2403.42,-269.98 2393.93,-265.29 2393.07,-272.23"/>
</a>
</g>
</g>
<!-- Node8 -->
<g id="Node000008" class="node">
<title>Node8</title>
<g id="a_Node000008"><a xlink:href="../../dd/de9/rpc-http-server_8c.html#a2cd204c75682d014a9231ce0d3d125fe" target="_top" xlink:title=" ">
<polygon fill="white" stroke="#666666" points="2325.25,-358.25 2247,-358.25 2247,-339 2325.25,-339 2325.25,-358.25"/>
<text text-anchor="middle" x="2286.12" y="-344.75" font-family="Helvetica,sans-Serif" font-size="10.00">__attr_printf__</text>
</a>
</g>
</g>
<!-- Node7&#45;&gt;Node8 -->
<g id="edge7_Node000007_Node000008" class="edge">
<title>Node7&#45;&gt;Node8</title>
<g id="a_edge7_Node000007_Node000008"><a xlink:title=" ">
<path fill="none" stroke="#63b8ff" d="M2394.26,-348.62C2372.26,-348.62 2346.33,-348.62 2325.5,-348.62"/>
<polygon fill="#63b8ff" stroke="#63b8ff" points="2394.18,-352.13 2404.18,-348.63 2394.18,-345.13 2394.18,-352.13"/>
</a>
</g>
</g>
<!-- Node11&#45;&gt;Node6 -->
<g id="edge45_Node000011_Node000006" class="edge">
<title>Node11&#45;&gt;Node6</title>
<g id="a_edge45_Node000011_Node000006"><a xlink:title=" ">
<path fill="none" stroke="#63b8ff" d="M2756.27,-159.51C2736.59,-177.59 2703.46,-204.66 2669.25,-217.62 2608.16,-240.78 2416.62,-250.75 2330.19,-254.16"/>
<polygon fill="#63b8ff" stroke="#63b8ff" points="2758.58,-162.13 2763.45,-152.72 2753.78,-157.04 2758.58,-162.13"/>
</a>
</g>
</g>
<!-- Node12 -->
<g id="Node000012" class="node">
<title>Node12</title>
<g id="a_Node000012"><a xlink:href="../../dd/d4a/net_2http_8c.html#a91269c83f3cc243cce81d5bf270cdb2f" target="_top" xlink:title=" ">
<polygon fill="white" stroke="#666666" points="2649,-132.25 2561.75,-132.25 2561.75,-113 2649,-113 2649,-132.25"/>
<text text-anchor="middle" x="2605.38" y="-118.75" font-family="Helvetica,sans-Serif" font-size="10.00">httpd_flush_data</text>
</a>
</g>
</g>
<!-- Node11&#45;&gt;Node12 -->
<g id="edge11_Node000011_Node000012" class="edge">
<title>Node11&#45;&gt;Node12</title>
<g id="a_edge11_Node000011_Node000012"><a xlink:title=" ">
<path fill="none" stroke="#63b8ff" d="M2717.62,-135.2C2695.28,-132.67 2670.07,-129.82 2649.3,-127.48"/>
<polygon fill="#63b8ff" stroke="#63b8ff" points="2717.17,-138.67 2727.5,-136.31 2717.96,-131.71 2717.17,-138.67"/>
</a>
</g>
</g>
<!-- Node13 -->
<g id="Node000013" class="node">
<title>Node13</title>
<g id="a_Node000013"><a xlink:href="../../dd/d4a/net_2http_8c.html#a571a5516950e9eea64e426793b3d68d7" target="_top" xlink:title=" ">
<polygon fill="white" stroke="#666666" points="2488.25,-95.25 2395.75,-95.25 2395.75,-76 2488.25,-76 2488.25,-95.25"/>
<text text-anchor="middle" x="2442" y="-81.75" font-family="Helvetica,sans-Serif" font-size="10.00">httpd_parse_body</text>
</a>
</g>
</g>
<!-- Node11&#45;&gt;Node13 -->
<g id="edge40_Node000011_Node000013" class="edge">
<title>Node11&#45;&gt;Node13</title>
<g id="a_edge40_Node000011_Node000013"><a xlink:title=" ">
<path fill="none" stroke="#63b8ff" d="M2741.41,-127.1C2721.01,-118.79 2694.08,-108.99 2669.25,-103.62 2607.63,-90.3 2534.65,-86.6 2488.59,-85.7"/>
<polygon fill="#63b8ff" stroke="#63b8ff" points="2740.05,-130.32 2750.63,-130.94 2742.74,-123.86 2740.05,-130.32"/>
</a>
</g>
</g>
<!-- Node37 -->
<g id="Node000037" class="node">
<title>Node37</title>
<g id="a_Node000037"><a xlink:href="../../dd/d4a/net_2http_8c.html#a083e8594973a3bf75a79dd2300b5c017" target="_top" xlink:title=" ">
<polygon fill="white" stroke="#666666" points="2491.25,-132.25 2392.75,-132.25 2392.75,-113 2491.25,-113 2491.25,-132.25"/>
<text text-anchor="middle" x="2442" y="-118.75" font-family="Helvetica,sans-Serif" font-size="10.00">httpd_parse_chunk</text>
</a>
</g>
</g>
<!-- Node11&#45;&gt;Node37 -->
<g id="edge41_Node000011_Node000037" class="edge">
<title>Node11&#45;&gt;Node37</title>
<g id="a_edge41_Node000011_Node000037"><a xlink:title=" ">
<path fill="none" stroke="#63b8ff" d="M2717.61,-144.64C2670.34,-146.42 2601.39,-147.35 2541.5,-141.62 2523.12,-139.87 2503.08,-136.31 2485.89,-132.74"/>
<polygon fill="#63b8ff" stroke="#63b8ff" points="2717.48,-148.15 2727.33,-144.25 2717.19,-141.15 2717.48,-148.15"/>
</a>
</g>
</g>
<!-- Node38 -->
<g id="Node000038" class="node">
<title>Node38</title>
<g id="a_Node000038"><a xlink:href="../../dd/d4a/net_2http_8c.html#ae428eb0a43828e140b739c4e807032ce" target="_top" xlink:title=" ">
<polygon fill="white" stroke="#666666" points="2664,-56.25 2546.75,-56.25 2546.75,-37 2664,-37 2664,-56.25"/>
<text text-anchor="middle" x="2605.38" y="-42.75" font-family="Helvetica,sans-Serif" font-size="10.00">httpd_parse_chunk_hdr</text>
</a>
</g>
</g>
<!-- Node11&#45;&gt;Node38 -->
<g id="edge42_Node000011_Node000038" class="edge">
<title>Node11&#45;&gt;Node38</title>
<g id="a_edge42_Node000011_Node000038"><a xlink:title=" ">
<path fill="none" stroke="#63b8ff" d="M2752.66,-124.71C2731.98,-109.24 2699.68,-86.43 2669.25,-70.62 2659.09,-65.35 2647.49,-60.59 2637.05,-56.74"/>
<polygon fill="#63b8ff" stroke="#63b8ff" points="2750.52,-127.48 2760.6,-130.73 2754.75,-121.9 2750.52,-127.48"/>
</a>
</g>
</g>
<!-- Node39 -->
<g id="Node000039" class="node">
<title>Node39</title>
<g id="a_Node000039"><a xlink:href="../../dd/d4a/net_2http_8c.html#abb17920d7f065f71b57b789042aa8e56" target="_top" xlink:title=" ">
<polygon fill="white" stroke="#666666" points="2669.25,-208.25 2541.5,-208.25 2541.5,-189 2669.25,-189 2669.25,-208.25"/>
<text text-anchor="middle" x="2605.38" y="-194.75" font-family="Helvetica,sans-Serif" font-size="10.00">httpd_parse_chunk_trailer</text>
</a>
</g>
</g>
<!-- Node11&#45;&gt;Node39 -->
<g id="edge44_Node000011_Node000039" class="edge">
<title>Node11&#45;&gt;Node39</title>
<g id="a_edge44_Node000011_Node000039"><a xlink:title=" ">
<path fill="none" stroke="#63b8ff" d="M2734.21,-155.28C2704,-165.53 2663.31,-179.32 2636.03,-188.57"/>
<polygon fill="#63b8ff" stroke="#63b8ff" points="2735.05,-158.7 2743.4,-152.17 2732.8,-152.07 2735.05,-158.7"/>
</a>
</g>
</g>
<!-- Node12&#45;&gt;Node13 -->
<g id="edge12_Node000012_Node000013" class="edge">
<title>Node12&#45;&gt;Node13</title>
<g id="a_edge12_Node000012_Node000013"><a xlink:title=" ">
<path fill="none" stroke="#63b8ff" d="M2550.44,-110.26C2529.87,-105.54 2506.7,-100.23 2487.15,-95.75"/>
<polygon fill="#63b8ff" stroke="#63b8ff" points="2549.55,-113.65 2560.08,-112.47 2551.11,-106.82 2549.55,-113.65"/>
</a>
</g>
</g>
<!-- Node12&#45;&gt;Node37 -->
<g id="edge38_Node000012_Node000037" class="edge">
<title>Node12&#45;&gt;Node37</title>
<g id="a_edge38_Node000012_Node000037"><a xlink:title=" ">
<path fill="none" stroke="#63b8ff" d="M2550.11,-122.62C2531.22,-122.62 2510.15,-122.62 2491.73,-122.62"/>
<polygon fill="#63b8ff" stroke="#63b8ff" points="2550.04,-126.13 2560.04,-122.63 2550.04,-119.13 2550.04,-126.13"/>
</a>
</g>
</g>
<!-- Node14 -->
<g id="Node000014" class="node">
<title>Node14</title>
<g id="a_Node000014"><a xlink:href="../../dd/d4a/net_2http_8c.html#aa16be181cb8d0f253afc761fd47ba5ce" target="_top" xlink:title=" ">
<polygon fill="white" stroke="#666666" points="2342.5,-100.88 2229.75,-100.88 2229.75,-70.38 2342.5,-70.38 2342.5,-100.88"/>
<text text-anchor="start" x="2237.75" y="-87.38" font-family="Helvetica,sans-Serif" font-size="10.00">http2_stream_on_data</text>
<text text-anchor="middle" x="2286.12" y="-76.12" font-family="Helvetica,sans-Serif" font-size="10.00">_server</text>
</a>
</g>
</g>
<!-- Node13&#45;&gt;Node14 -->
<g id="edge13_Node000013_Node000014" class="edge">
<title>Node13&#45;&gt;Node14</title>
<g id="a_edge13_Node000013_Node000014"><a xlink:title=" ">
<path fill="none" stroke="#63b8ff" d="M2384.49,-85.62C2370.87,-85.62 2356.34,-85.62 2342.77,-85.62"/>
<polygon fill="#63b8ff" stroke="#63b8ff" points="2384.15,-89.13 2394.15,-85.63 2384.15,-82.13 2384.15,-89.13"/>
</a>
</g>
</g>
<!-- Node15 -->
<g id="Node000015" class="node">
<title>Node15</title>
<g id="a_Node000015"><a xlink:href="../../dd/d4a/net_2http_8c.html#a8618f1fda2b0675ce5c781043bf8bdf4" target="_top" xlink:title=" ">
<polygon fill="white" stroke="#666666" points="2193.75,-95.25 2081,-95.25 2081,-76 2193.75,-76 2193.75,-95.25"/>
<text text-anchor="middle" x="2137.38" y="-81.75" font-family="Helvetica,sans-Serif" font-size="10.00">http2_stream_on_data</text>
</a>
</g>
</g>
<!-- Node14&#45;&gt;Node15 -->
<g id="edge14_Node000014_Node000015" class="edge">
<title>Node14&#45;&gt;Node15</title>
<g id="a_edge14_Node000014_Node000015"><a xlink:title=" ">
<path fill="none" stroke="#63b8ff" d="M2218.26,-85.62C2210.12,-85.62 2201.88,-85.62 2193.93,-85.62"/>
<polygon fill="#63b8ff" stroke="#63b8ff" points="2218.13,-89.13 2228.13,-85.63 2218.13,-82.13 2218.13,-89.13"/>
</a>
</g>
</g>
<!-- Node16 -->
<g id="Node000016" class="node">
<title>Node16</title>
<g id="a_Node000016"><a xlink:href="../../dd/d4a/net_2http_8c.html#afe6b03d9f45ffe601f5839b466d5a337" target="_top" xlink:title=" ">
<polygon fill="white" stroke="#666666" points="2045,-95.25 1908.25,-95.25 1908.25,-76 2045,-76 2045,-95.25"/>
<text text-anchor="middle" x="1976.62" y="-81.75" font-family="Helvetica,sans-Serif" font-size="10.00">http2_stream_do_recv_data</text>
</a>
</g>
</g>
<!-- Node15&#45;&gt;Node16 -->
<g id="edge15_Node000015_Node000016" class="edge">
<title>Node15&#45;&gt;Node16</title>
<g id="a_edge15_Node000015_Node000016"><a xlink:title=" ">
<path fill="none" stroke="#63b8ff" d="M2069.39,-85.62C2061.46,-85.62 2053.35,-85.62 2045.41,-85.62"/>
<polygon fill="#63b8ff" stroke="#63b8ff" points="2069.34,-89.13 2079.34,-85.63 2069.34,-82.13 2069.34,-89.13"/>
</a>
</g>
</g>
<!-- Node17 -->
<g id="Node000017" class="node">
<title>Node17</title>
<g id="a_Node000017"><a xlink:href="../../dd/d4a/net_2http_8c.html#a47dc85cf9d2fc00549967d2583a79992" target="_top" xlink:title=" ">
<polygon fill="white" stroke="#666666" points="1872.25,-95.25 1755,-95.25 1755,-76 1872.25,-76 1872.25,-95.25"/>
<text text-anchor="middle" x="1813.62" y="-81.75" font-family="Helvetica,sans-Serif" font-size="10.00">http2_conn_parse_data</text>
</a>
</g>
</g>
<!-- Node16&#45;&gt;Node17 -->
<g id="edge16_Node000016_Node000017" class="edge">
<title>Node16&#45;&gt;Node17</title>
<g id="a_edge16_Node000016_Node000017"><a xlink:title=" ">
<path fill="none" stroke="#63b8ff" d="M1896.5,-85.62C1888.47,-85.62 1880.42,-85.62 1872.67,-85.62"/>
<polygon fill="#63b8ff" stroke="#63b8ff" points="1896.3,-89.13 1906.3,-85.63 1896.3,-82.13 1896.3,-89.13"/>
</a>
</g>
</g>
<!-- Node18 -->
<g id="Node000018" class="node">
<title>Node18</title>
<g id="a_Node000018"><a xlink:href="../../dd/d4a/net_2http_8c.html#addba8a3224c0f2a994e3eb238c43ef0b" target="_top" xlink:title=" ">
<polygon fill="white" stroke="#666666" points="1719,-95.25 1587.5,-95.25 1587.5,-76 1719,-76 1719,-95.25"/>
<text text-anchor="middle" x="1653.25" y="-81.75" font-family="Helvetica,sans-Serif" font-size="10.00">http2_conn_parse_payload</text>
</a>
</g>
</g>
<!-- Node17&#45;&gt;Node18 -->
<g id="edge17_Node000017_Node000018" class="edge">
<title>Node17&#45;&gt;Node18</title>
<g id="a_edge17_Node000017_Node000018"><a xlink:title=" ">
<path fill="none" stroke="#63b8ff" d="M1743.09,-85.62C1735.17,-85.62 1727.12,-85.62 1719.27,-85.62"/>
<polygon fill="#63b8ff" stroke="#63b8ff" points="1743.04,-89.13 1753.04,-85.63 1743.04,-82.13 1743.04,-89.13"/>
</a>
</g>
</g>
<!-- Node19 -->
<g id="Node000019" class="node">
<title>Node19</title>
<g id="a_Node000019"><a xlink:href="../../dd/d4a/net_2http_8c.html#aa90fc77fe3e9885a90fa3b0a5d066fda" target="_top" xlink:title=" ">
<polygon fill="white" stroke="#666666" points="1551.5,-100.88 1447.75,-100.88 1447.75,-70.38 1551.5,-70.38 1551.5,-100.88"/>
<text text-anchor="start" x="1455.75" y="-87.38" font-family="Helvetica,sans-Serif" font-size="10.00">http2_conn_process</text>
<text text-anchor="middle" x="1499.62" y="-76.12" font-family="Helvetica,sans-Serif" font-size="10.00">_input_buffer</text>
</a>
</g>
</g>
<!-- Node18&#45;&gt;Node19 -->
<g id="edge18_Node000018_Node000019" class="edge">
<title>Node18&#45;&gt;Node19</title>
<g id="a_edge18_Node000018_Node000019"><a xlink:title=" ">
<path fill="none" stroke="#63b8ff" d="M1575.58,-85.62C1567.44,-85.62 1559.3,-85.62 1551.56,-85.62"/>
<polygon fill="#63b8ff" stroke="#63b8ff" points="1575.55,-89.13 1585.55,-85.63 1575.55,-82.13 1575.55,-89.13"/>
</a>
</g>
</g>
<!-- Node20 -->
<g id="Node000020" class="node">
<title>Node20</title>
<g id="a_Node000020"><a xlink:href="../../dd/d4a/net_2http_8c.html#a7116239c9f5e15549b2c80081b8cc76d" target="_top" xlink:title=" ">
<polygon fill="white" stroke="#666666" points="1411.75,-133.25 1302.75,-133.25 1302.75,-114 1411.75,-114 1411.75,-133.25"/>
<text text-anchor="middle" x="1357.25" y="-119.75" font-family="Helvetica,sans-Serif" font-size="10.00">http2_conn_on_event</text>
</a>
</g>
</g>
<!-- Node19&#45;&gt;Node20 -->
<g id="edge19_Node000019_Node000020" class="edge">
<title>Node19&#45;&gt;Node20</title>
<g id="a_edge19_Node000019_Node000020"><a xlink:title=" ">
<path fill="none" stroke="#63b8ff" d="M1436.46,-102.45C1422.46,-106.24 1408.02,-110.15 1395.43,-113.56"/>
<polygon fill="#63b8ff" stroke="#63b8ff" points="1437.35,-105.84 1446.09,-99.85 1435.52,-99.08 1437.35,-105.84"/>
</a>
</g>
</g>
<!-- Node21 -->
<g id="Node000021" class="node">
<title>Node21</title>
<g id="a_Node000021"><a xlink:href="../../dd/d4a/net_2http_8c.html#ad211549032983c94d9f52c4522a906a6" target="_top" xlink:title=" ">
<polygon fill="white" stroke="#666666" points="1266.75,-95.25 1126.25,-95.25 1126.25,-76 1266.75,-76 1266.75,-95.25"/>
<text text-anchor="middle" x="1196.5" y="-81.75" font-family="Helvetica,sans-Serif" font-size="10.00">http2_conn_on_preface_wait</text>
</a>
</g>
</g>
<!-- Node19&#45;&gt;Node21 -->
<g id="edge35_Node000019_Node000021" class="edge">
<title>Node19&#45;&gt;Node21</title>
<g id="a_edge35_Node000019_Node000021"><a xlink:title=" ">
<path fill="none" stroke="#63b8ff" d="M1436.09,-85.62C1386.84,-85.62 1318.23,-85.62 1267.22,-85.62"/>
<polygon fill="#63b8ff" stroke="#63b8ff" points="1436.03,-89.13 1446.03,-85.63 1436.03,-82.13 1436.03,-89.13"/>
</a>
</g>
</g>
<!-- Node36 -->
<g id="Node000036" class="node">
<title>Node36</title>
<g id="a_Node000036"><a xlink:href="../../dd/d4a/net_2http_8c.html#a84f0d249dafc919190634bd941b2bf6c" target="_top" xlink:title=" ">
<polygon fill="white" stroke="#666666" points="1260.38,-57.25 1132.62,-57.25 1132.62,-38 1260.38,-38 1260.38,-57.25"/>
<text text-anchor="middle" x="1196.5" y="-43.75" font-family="Helvetica,sans-Serif" font-size="10.00">http2_conn_pack_preface</text>
</a>
</g>
</g>
<!-- Node19&#45;&gt;Node36 -->
<g id="edge36_Node000019_Node000036" class="edge">
<title>Node19&#45;&gt;Node36</title>
<g id="a_edge36_Node000019_Node000036"><a xlink:title=" ">
<path fill="none" stroke="#63b8ff" d="M1436.26,-77.75C1384.84,-71.27 1312.23,-62.1 1260.61,-55.59"/>
<polygon fill="#63b8ff" stroke="#63b8ff" points="1435.68,-81.21 1446.04,-78.99 1436.56,-74.26 1435.68,-81.21"/>
</a>
</g>
</g>
<!-- Node20&#45;&gt;Node21 -->
<g id="edge20_Node000020_Node000021" class="edge">
<title>Node20&#45;&gt;Node21</title>
<g id="a_edge20_Node000020_Node000021"><a xlink:title=" ">
<path fill="none" stroke="#63b8ff" d="M1302.96,-110.87C1282.3,-105.92 1258.99,-100.34 1239.55,-95.69"/>
<polygon fill="#63b8ff" stroke="#63b8ff" points="1302.11,-114.26 1312.65,-113.19 1303.74,-107.46 1302.11,-114.26"/>
</a>
</g>
</g>
<!-- Node22 -->
<g id="Node000022" class="node">
<title>Node22</title>
<g id="a_Node000022"><a xlink:href="../../dd/d4a/net_2http_8c.html#a3ae7da35c16d0895aea3196afb96e16d" target="_top" xlink:title=" ">
<polygon fill="white" stroke="#666666" points="1090.25,-57.25 970.75,-57.25 970.75,-38 1090.25,-38 1090.25,-57.25"/>
<text text-anchor="middle" x="1030.5" y="-43.75" font-family="Helvetica,sans-Serif" font-size="10.00">http2_conn_on_connect</text>
</a>
</g>
</g>
<!-- Node21&#45;&gt;Node22 -->
<g id="edge21_Node000021_Node000022" class="edge">
<title>Node21&#45;&gt;Node22</title>
<g id="a_edge21_Node000021_Node000022"><a xlink:title=" ">
<path fill="none" stroke="#63b8ff" d="M1141.04,-73.01C1119.55,-68.03 1095.21,-62.39 1074.94,-57.69"/>
<polygon fill="#63b8ff" stroke="#63b8ff" points="1139.98,-76.35 1150.51,-75.2 1141.56,-69.53 1139.98,-76.35"/>
</a>
</g>
</g>
<!-- Node23 -->
<g id="Node000023" class="node">
<title>Node23</title>
<g id="a_Node000023"><a xlink:href="../../dd/d4a/net_2http_8c.html#a5754e9d15cd8048e27331bb4aaed12b7" target="_top" xlink:title=" ">
<polygon fill="white" stroke="#666666" points="929.5,-105.88 825.75,-105.88 825.75,-75.38 929.5,-75.38 929.5,-105.88"/>
<text text-anchor="start" x="833.75" y="-92.38" font-family="Helvetica,sans-Serif" font-size="10.00">http2_conn_connect</text>
<text text-anchor="middle" x="877.62" y="-81.12" font-family="Helvetica,sans-Serif" font-size="10.00">_client_as</text>
</a>
</g>
</g>
<!-- Node22&#45;&gt;Node23 -->
<g id="edge22_Node000022_Node000023" class="edge">
<title>Node22&#45;&gt;Node23</title>
<g id="a_edge22_Node000022_Node000023"><a xlink:title=" ">
<path fill="none" stroke="#63b8ff" d="M983.37,-60.77C966.43,-65.6 947.14,-71.1 929.78,-76.05"/>
<polygon fill="#63b8ff" stroke="#63b8ff" points="984.01,-64.23 992.67,-58.12 982.09,-57.5 984.01,-64.23"/>
</a>
</g>
</g>
<!-- Node33 -->
<g id="Node000033" class="node">
<title>Node33</title>
<g id="a_Node000033"><a xlink:href="../../dd/d4a/net_2http_8c.html#a3926ffca7cc91de4f1ef8ac35a7420c5" target="_top" xlink:title=" ">
<polygon fill="white" stroke="#666666" points="934.75,-57.25 820.5,-57.25 820.5,-38 934.75,-38 934.75,-57.25"/>
<text text-anchor="middle" x="877.62" y="-43.75" font-family="Helvetica,sans-Serif" font-size="10.00">httpd_spawn_as_http2</text>
</a>
</g>
</g>
<!-- Node22&#45;&gt;Node33 -->
<g id="edge32_Node000022_Node000033" class="edge">
<title>Node22&#45;&gt;Node33</title>
<g id="a_edge32_Node000022_Node000033"><a xlink:title=" ">
<path fill="none" stroke="#63b8ff" d="M958.79,-47.62C950.88,-47.62 942.89,-47.62 935.18,-47.62"/>
<polygon fill="#63b8ff" stroke="#63b8ff" points="958.79,-51.13 968.79,-47.63 958.79,-44.13 958.79,-51.13"/>
</a>
</g>
</g>
<!-- Node24 -->
<g id="Node000024" class="node">
<title>Node24</title>
<g id="a_Node000024"><a xlink:href="../../dd/d4a/net_2http_8c.html#a7a3e350c92c5b8a0ea73161bbc780926" target="_top" xlink:title=" ">
<polygon fill="white" stroke="#666666" points="784.5,-100.25 676.25,-100.25 676.25,-81 784.5,-81 784.5,-100.25"/>
<text text-anchor="middle" x="730.38" y="-86.75" font-family="Helvetica,sans-Serif" font-size="10.00">http2_pool_get_client</text>
</a>
</g>
</g>
<!-- Node23&#45;&gt;Node24 -->
<g id="edge23_Node000023_Node000024" class="edge">
<title>Node23&#45;&gt;Node24</title>
<g id="a_edge23_Node000023_Node000024"><a xlink:title=" ">
<path fill="none" stroke="#63b8ff" d="M814.05,-90.62C804.23,-90.62 794.16,-90.62 784.58,-90.62"/>
<polygon fill="#63b8ff" stroke="#63b8ff" points="813.9,-94.13 823.9,-90.63 813.9,-87.13 813.9,-94.13"/>
</a>
</g>
</g>
<!-- Node25 -->
<g id="Node000025" class="node">
<title>Node25</title>
<g id="a_Node000025"><a xlink:href="../../dd/d4a/net_2http_8c.html#ae849932f9841489cefbd4761c2ad561d" target="_top" xlink:title=" ">
<polygon fill="white" stroke="#666666" points="640.25,-100.25 520,-100.25 520,-81 640.25,-81 640.25,-100.25"/>
<text text-anchor="middle" x="580.12" y="-86.75" font-family="Helvetica,sans-Serif" font-size="10.00">httpc_connect_as_http2</text>
</a>
</g>
</g>
<!-- Node24&#45;&gt;Node25 -->
<g id="edge24_Node000024_Node000025" class="edge">
<title>Node24&#45;&gt;Node25</title>
<g id="a_edge24_Node000024_Node000025"><a xlink:title=" ">
<path fill="none" stroke="#63b8ff" d="M664.4,-90.62C656.48,-90.62 648.43,-90.62 640.6,-90.62"/>
<polygon fill="#63b8ff" stroke="#63b8ff" points="664.34,-94.13 674.34,-90.63 664.34,-87.13 664.34,-94.13"/>
</a>
</g>
</g>
<!-- Node26 -->
<g id="Node000026" class="node">
<title>Node26</title>
<g id="a_Node000026"><a xlink:href="../../dd/d4a/net_2http_8c.html#a30869b3f203c5600c7c6257da47f2a43" target="_top" xlink:title=" ">
<polygon fill="white" stroke="#666666" points="484,-100.25 390.75,-100.25 390.75,-81 484,-81 484,-100.25"/>
<text text-anchor="middle" x="437.38" y="-86.75" font-family="Helvetica,sans-Serif" font-size="10.00">httpc_connect_as</text>
</a>
</g>
</g>
<!-- Node25&#45;&gt;Node26 -->
<g id="edge25_Node000025_Node000026" class="edge">
<title>Node25&#45;&gt;Node26</title>
<g id="a_edge25_Node000025_Node000026"><a xlink:title=" ">
<path fill="none" stroke="#63b8ff" d="M508.35,-90.62C500.19,-90.62 492.04,-90.62 484.33,-90.62"/>
<polygon fill="#63b8ff" stroke="#63b8ff" points="508.33,-94.13 518.33,-90.63 508.33,-87.13 508.33,-94.13"/>
</a>
</g>
</g>
<!-- Node27 -->
<g id="Node000027" class="node">
<title>Node27</title>
<g id="a_Node000027"><a xlink:href="../../dd/d4a/net_2http_8c.html#a6fe5d8fb56f828b9cb355eaf9bb2efa8" target="_top" xlink:title=" ">
<polygon fill="white" stroke="#666666" points="346.12,-119.25 268.62,-119.25 268.62,-100 346.12,-100 346.12,-119.25"/>
<text text-anchor="middle" x="307.38" y="-105.75" font-family="Helvetica,sans-Serif" font-size="10.00">httpc_connect</text>
</a>
</g>
</g>
<!-- Node26&#45;&gt;Node27 -->
<g id="edge26_Node000026_Node000027" class="edge">
<title>Node26&#45;&gt;Node27</title>
<g id="a_edge26_Node000026_Node000027"><a xlink:title=" ">
<path fill="none" stroke="#63b8ff" d="M379.46,-99.07C368.24,-100.74 356.72,-102.45 346.32,-103.99"/>
<polygon fill="#63b8ff" stroke="#63b8ff" points="379.65,-102.58 389.03,-97.65 378.62,-95.66 379.65,-102.58"/>
</a>
</g>
</g>
<!-- Node31 -->
<g id="Node000031" class="node">
<title>Node31</title>
<g id="a_Node000031"><a xlink:href="../../dd/d4a/net_2http_8c.html#a08d48d7c0320097b6e50119e49dd1a5d" target="_top" xlink:title=" ">
<polygon fill="white" stroke="#666666" points="354.75,-82.25 260,-82.25 260,-63 354.75,-63 354.75,-82.25"/>
<text text-anchor="middle" x="307.38" y="-68.75" font-family="Helvetica,sans-Serif" font-size="10.00">httpc_pool_launch</text>
</a>
</g>
</g>
<!-- Node26&#45;&gt;Node31 -->
<g id="edge30_Node000026_Node000031" class="edge">
<title>Node26&#45;&gt;Node31</title>
<g id="a_edge30_Node000026_Node000031"><a xlink:title=" ">
<path fill="none" stroke="#63b8ff" d="M379.29,-82.6C371.23,-81.46 363.03,-80.31 355.2,-79.21"/>
<polygon fill="#63b8ff" stroke="#63b8ff" points="378.64,-86.04 389.03,-83.97 379.61,-79.11 378.64,-86.04"/>
</a>
</g>
</g>
<!-- Node28 -->
<g id="Node000028" class="node">
<title>Node28</title>
<g id="a_Node000028"><a xlink:href="../../dd/d4a/net_2http_8c.html#ae0600e298ca883d66d4ff582e8786e11" target="_top" xlink:title=" ">
<polygon fill="white" stroke="#666666" points="223.25,-119.25 145,-119.25 145,-100 223.25,-100 223.25,-119.25"/>
<text text-anchor="middle" x="184.12" y="-105.75" font-family="Helvetica,sans-Serif" font-size="10.00">z_query_setup</text>
</a>
</g>
</g>
<!-- Node27&#45;&gt;Node28 -->
<g id="edge27_Node000027_Node000028" class="edge">
<title>Node27&#45;&gt;Node28</title>
<g id="a_edge27_Node000027_Node000028"><a xlink:title=" ">
<path fill="none" stroke="#63b8ff" d="M256.95,-109.62C245.78,-109.62 234.08,-109.62 223.44,-109.62"/>
<polygon fill="#63b8ff" stroke="#63b8ff" points="256.83,-113.13 266.83,-109.63 256.83,-106.13 256.83,-113.13"/>
</a>
</g>
</g>
<!-- Node29 -->
<g id="Node000029" class="node">
<title>Node29</title>
<g id="a_Node000029"><a xlink:href="../../dd/d4a/net_2http_8c.html#ad6f99386fb518c8ba64244857b0240e1" target="_top" xlink:title=" ">
<polygon fill="white" stroke="#666666" points="108.25,-137.25 0,-137.25 0,-118 108.25,-118 108.25,-137.25"/>
<text text-anchor="middle" x="54.12" y="-123.75" font-family="Helvetica,sans-Serif" font-size="10.00">Z_GROUP_EXPORT</text>
</a>
</g>
</g>
<!-- Node28&#45;&gt;Node29 -->
<g id="edge28_Node000028_Node000029" class="edge">
<title>Node28&#45;&gt;Node29</title>
<g id="a_edge28_Node000028_Node000029"><a xlink:title=" ">
<path fill="none" stroke="#63b8ff" d="M133.49,-116.61C125.35,-117.75 116.88,-118.94 108.65,-120.1"/>
<polygon fill="#63b8ff" stroke="#63b8ff" points="133.81,-120.09 143.22,-115.24 132.83,-113.16 133.81,-120.09"/>
</a>
</g>
</g>
<!-- Node30 -->
<g id="Node000030" class="node">
<title>Node30</title>
<g id="a_Node000030"><a xlink:href="../../dd/d4a/net_2http_8c.html#ad196e07d97f054b7629a5f94093340dd" target="_top" xlink:title=" ">
<polygon fill="white" stroke="#666666" points="108.25,-100.25 0,-100.25 0,-81 108.25,-81 108.25,-100.25"/>
<text text-anchor="middle" x="54.12" y="-86.75" font-family="Helvetica,sans-Serif" font-size="10.00">Z_GROUP_EXPORT</text>
</a>
</g>
</g>
<!-- Node28&#45;&gt;Node30 -->
<g id="edge29_Node000028_Node000030" class="edge">
<title>Node28&#45;&gt;Node30</title>
<g id="a_edge29_Node000028_Node000030"><a xlink:title=" ">
<path fill="none" stroke="#63b8ff" d="M133.49,-102.26C125.35,-101.05 116.88,-99.79 108.65,-98.57"/>
<polygon fill="#63b8ff" stroke="#63b8ff" points="132.82,-105.7 143.22,-103.7 133.85,-98.77 132.82,-105.7"/>
</a>
</g>
</g>
<!-- Node32 -->
<g id="Node000032" class="node">
<title>Node32</title>
<g id="a_Node000032"><a xlink:href="../../dd/d4a/net_2http_8c.html#a13fe4b4dc9d8e2b66738d7bc50745860" target="_top" xlink:title=" ">
<polygon fill="white" stroke="#666666" points="224,-82.25 144.25,-82.25 144.25,-63 224,-63 224,-82.25"/>
<text text-anchor="middle" x="184.12" y="-68.75" font-family="Helvetica,sans-Serif" font-size="10.00">httpc_pool_get</text>
</a>
</g>
</g>
<!-- Node31&#45;&gt;Node32 -->
<g id="edge31_Node000031_Node000032" class="edge">
<title>Node31&#45;&gt;Node32</title>
<g id="a_edge31_Node000031_Node000032"><a xlink:title=" ">
<path fill="none" stroke="#63b8ff" d="M248.38,-72.62C240.2,-72.62 231.95,-72.62 224.24,-72.62"/>
<polygon fill="#63b8ff" stroke="#63b8ff" points="248.33,-76.13 258.33,-72.63 248.33,-69.13 248.33,-76.13"/>
</a>
</g>
</g>
<!-- Node34 -->
<g id="Node000034" class="node">
<title>Node34</title>
<g id="a_Node000034"><a xlink:href="../../dd/d4a/net_2http_8c.html#ababf4c72b8aba8aa09b45da6bccfd250" target="_top" xlink:title=" ">
<polygon fill="white" stroke="#666666" points="774.38,-38.25 686.38,-38.25 686.38,-19 774.38,-19 774.38,-38.25"/>
<text text-anchor="middle" x="730.38" y="-24.75" font-family="Helvetica,sans-Serif" font-size="10.00">httpd_on_accept</text>
</a>
</g>
</g>
<!-- Node33&#45;&gt;Node34 -->
<g id="edge33_Node000033_Node000034" class="edge">
<title>Node33&#45;&gt;Node34</title>
<g id="a_edge33_Node000033_Node000034"><a xlink:title=" ">
<path fill="none" stroke="#63b8ff" d="M808.92,-38.77C797.22,-37.24 785.34,-35.68 774.52,-34.27"/>
<polygon fill="#63b8ff" stroke="#63b8ff" points="808.18,-42.2 818.55,-40.03 809.09,-35.26 808.18,-42.2"/>
</a>
</g>
</g>
<!-- Node35 -->
<g id="Node000035" class="node">
<title>Node35</title>
<g id="a_Node000035"><a xlink:href="../../dd/d4a/net_2http_8c.html#a4bb48b79e806519f505be1648ff296fd" target="_top" xlink:title=" ">
<polygon fill="white" stroke="#666666" points="613.25,-38.25 547,-38.25 547,-19 613.25,-19 613.25,-38.25"/>
<text text-anchor="middle" x="580.12" y="-24.75" font-family="Helvetica,sans-Serif" font-size="10.00">httpd_listen</text>
</a>
</g>
</g>
<!-- Node34&#45;&gt;Node35 -->
<g id="edge34_Node000034_Node000035" class="edge">
<title>Node34&#45;&gt;Node35</title>
<g id="a_edge34_Node000034_Node000035"><a xlink:title=" ">
<path fill="none" stroke="#63b8ff" d="M674.6,-28.62C654,-28.62 631.27,-28.62 613.37,-28.62"/>
<polygon fill="#63b8ff" stroke="#63b8ff" points="674.58,-32.13 684.58,-28.63 674.58,-25.13 674.58,-32.13"/>
</a>
</g>
</g>
<!-- Node36&#45;&gt;Node22 -->
<g id="edge37_Node000036_Node000022" class="edge">
<title>Node36&#45;&gt;Node22</title>
<g id="a_edge37_Node000036_Node000022"><a xlink:title=" ">
<path fill="none" stroke="#63b8ff" d="M1121.09,-47.62C1110.83,-47.62 1100.42,-47.62 1090.5,-47.62"/>
<polygon fill="#63b8ff" stroke="#63b8ff" points="1121.05,-51.13 1131.05,-47.63 1121.05,-44.13 1121.05,-51.13"/>
</a>
</g>
</g>
<!-- Node37&#45;&gt;Node14 -->
<g id="edge39_Node000037_Node000014" class="edge">
<title>Node37&#45;&gt;Node14</title>
<g id="a_edge39_Node000037_Node000014"><a xlink:title=" ">
<path fill="none" stroke="#63b8ff" d="M2388.11,-109.91C2373.54,-106.4 2357.7,-102.6 2342.98,-99.05"/>
<polygon fill="#63b8ff" stroke="#63b8ff" points="2386.94,-113.23 2397.48,-112.16 2388.58,-106.42 2386.94,-113.23"/>
</a>
</g>
</g>
<!-- Node38&#45;&gt;Node14 -->
<g id="edge43_Node000038_Node000014" class="edge">
<title>Node38&#45;&gt;Node14</title>
<g id="a_edge43_Node000038_Node000014"><a xlink:title=" ">
<path fill="none" stroke="#63b8ff" d="M2535.24,-50.65C2490.4,-53.77 2430.81,-58.9 2378.5,-66.62 2366.96,-68.33 2354.68,-70.58 2343,-72.93"/>
<polygon fill="#63b8ff" stroke="#63b8ff" points="2535.35,-54.15 2545.09,-49.98 2534.87,-47.17 2535.35,-54.15"/>
</a>
</g>
</g>
<!-- Node41 -->
<g id="Node000041" class="node">
<title>Node41</title>
<g id="a_Node000041"><a xlink:href="../../dd/d4a/net_2http_8c.html#aac95f98fcb46c504715162ba09273b52" target="_top" xlink:title=" ">
<polygon fill="white" stroke="#666666" points="2641.12,-19.25 2569.62,-19.25 2569.62,0 2641.12,0 2641.12,-19.25"/>
<text text-anchor="middle" x="2605.38" y="-5.75" font-family="Helvetica,sans-Serif" font-size="10.00">httpd_spawn</text>
</a>
</g>
</g>
<!-- Node40&#45;&gt;Node41 -->
<g id="edge47_Node000040_Node000041" class="edge">
<title>Node40&#45;&gt;Node41</title>
<g id="a_edge47_Node000040_Node000041"><a xlink:title=" ">
<path fill="none" stroke="#63b8ff" d="M2884.04,-44.95C2837.16,-42.15 2766.38,-36.99 2705.25,-28.62 2683.95,-25.71 2660.29,-21.21 2641.46,-17.32"/>
<polygon fill="#63b8ff" stroke="#63b8ff" points="2883.73,-48.44 2893.91,-45.52 2884.13,-41.45 2883.73,-48.44"/>
</a>
</g>
</g>
<!-- Node42 -->
<g id="Node000042" class="node">
<title>Node42</title>
<g id="a_Node000042"><a xlink:href="../../dd/d4a/net_2http_8c.html#ab8b8782f8a83d4129ebc2681768e90ca" target="_top" xlink:title=" ">
<polygon fill="white" stroke="#666666" points="2828.5,-19.25 2722.5,-19.25 2722.5,0 2828.5,0 2828.5,-19.25"/>
<text text-anchor="middle" x="2775.5" y="-5.75" font-family="Helvetica,sans-Serif" font-size="10.00">httpd_tls_handshake</text>
</a>
</g>
</g>
<!-- Node40&#45;&gt;Node42 -->
<g id="edge49_Node000040_Node000042" class="edge">
<title>Node40&#45;&gt;Node42</title>
<g id="a_edge49_Node000040_Node000042"><a xlink:title=" ">
<path fill="none" stroke="#63b8ff" d="M2884.25,-35.3C2863.06,-30.25 2838.85,-24.48 2818.76,-19.69"/>
<polygon fill="#63b8ff" stroke="#63b8ff" points="2883.33,-38.67 2893.87,-37.59 2884.95,-31.86 2883.33,-38.67"/>
</a>
</g>
</g>
<!-- Node41&#45;&gt;Node34 -->
<g id="edge48_Node000041_Node000034" class="edge">
<title>Node41&#45;&gt;Node34</title>
<g id="a_edge48_Node000041_Node000034"><a xlink:title=" ">
<path fill="none" stroke="#63b8ff" d="M2557.86,-9.62C2496.03,-9.62 2383.37,-9.62 2287.12,-9.62 2287.12,-9.62 2287.12,-9.62 1029.5,-9.62 938.74,-9.62 832.75,-18.5 774.77,-24.12"/>
<polygon fill="#63b8ff" stroke="#63b8ff" points="2557.65,-13.13 2567.65,-9.63 2557.65,-6.13 2557.65,-13.13"/>
</a>
</g>
</g>
<!-- Node42&#45;&gt;Node41 -->
<g id="edge50_Node000042_Node000041" class="edge">
<title>Node42&#45;&gt;Node41</title>
<g id="a_edge50_Node000042_Node000041"><a xlink:title=" ">
<path fill="none" stroke="#63b8ff" d="M2710.91,-9.62C2687.42,-9.62 2661.66,-9.62 2641.59,-9.62"/>
<polygon fill="#63b8ff" stroke="#63b8ff" points="2710.71,-13.13 2720.71,-9.63 2710.71,-6.13 2710.71,-13.13"/>
</a>
</g>
</g>
</g>
</svg>
