<?xml version="1.0" encoding="UTF-8" standalone="no"?>
<!DOCTYPE svg PUBLIC "-//W3C//DTD SVG 1.1//EN"
 "http://www.w3.org/Graphics/SVG/1.1/DTD/svg11.dtd">
<!-- Generated by graphviz version 9.0.0 (20230911.1827)
 -->
<!-- Title: httpc_http2_ctx_on_connect_error Pages: 1 -->
<!--zoomable 186 -->

<svg id="main" version="1.1" xmlns="http://www.w3.org/2000/svg" xmlns:xlink="http://www.w3.org/1999/xlink" xml:space="preserve" onload="init(evt)">
<style type="text/css"><![CDATA[
.node, .edge {opacity: 0.7;}
.node.selected, .edge.selected {opacity: 1;}
.edge:hover path { stroke: red; }
.edge:hover polygon { stroke: red; fill: red; }
]]></style>

<defs>
  <circle id="rim" cx="0" cy="0" r="7"/>
  <circle id="rim2" cx="0" cy="0" r="3.5"/>
  <g id="zoomPlus">
    <use xlink:href="#rim" fill="#404040"><set attributeName="fill" to="#808080" begin="zoomplus.mouseover" end="zoomplus.mouseout"/></use>
    <path d="M-4,0h8M0,-4v8" fill="none" stroke="white" stroke-width="1.5" pointer-events="none"/>
  </g>
  <g id="zoomMin">
    <use xlink:href="#rim" fill="#404040"><set attributeName="fill" to="#808080" begin="zoomminus.mouseover" end="zoomminus.mouseout"/></use>
    <path d="M-4,0h8" fill="none" stroke="white" stroke-width="1.5" pointer-events="none"/>
  </g>
  <g id="arrowUp" transform="translate(30 24)">
    <use xlink:href="#rim"/>
    <path pointer-events="none" fill="none" stroke="white" stroke-width="1.5" d="M0,-3.0v7 M-2.5,-0.5L0,-3.0L2.5,-0.5"/>
  </g>
  <g id="arrowRight" transform="rotate(90) translate(36 -43)">
    <use xlink:href="#rim"/>
    <path pointer-events="none" fill="none" stroke="white" stroke-width="1.5" d="M0,-3.0v7 M-2.5,-0.5L0,-3.0L2.5,-0.5"/>
  </g>
  <g id="arrowDown" transform="rotate(180) translate(-30 -48)">
    <use xlink:href="#rim"/>
    <path pointer-events="none" fill="none" stroke="white" stroke-width="1.5" d="M0,-3.0v7 M-2.5,-0.5L0,-3.0L2.5,-0.5"/>
  </g>
  <g id="arrowLeft" transform="rotate(270) translate(-36 17)">
    <use xlink:href="#rim"/>
    <path pointer-events="none" fill="none" stroke="white" stroke-width="1.5" d="M0,-3.0v7 M-2.5,-0.5L0,-3.0L2.5,-0.5"/>
  </g>
  <g id="resetDef">
    <use xlink:href="#rim2" fill="#404040"><set attributeName="fill" to="#808080" begin="reset.mouseover" end="reset.mouseout"/></use>
  </g>
</defs>
<script type="application/ecmascript">
var viewWidth = 1557;
var viewHeight = 186;
var sectionId = 'dynsection-331';
</script>
<script type="application/ecmascript" xlink:href="../../svg.min.js"/>
<svg id="graph" class="graph">
<g id="viewport">
<title>httpc_http2_ctx_on_connect_error</title>
<!-- Node1 -->
<g id="Node000001" class="node">
<title>Node1</title>
<g id="a_Node000001"><a xlink:title=" ">
<polygon fill="#999999" stroke="#666666" points="1548.5,-103.5 1450,-103.5 1450,-73 1548.5,-73 1548.5,-103.5"/>
<text text-anchor="start" x="1458" y="-90" font-family="Helvetica,sans-Serif" font-size="10.00">httpc_http2_ctx_on</text>
<text text-anchor="middle" x="1499.25" y="-78.75" font-family="Helvetica,sans-Serif" font-size="10.00">_connect_error</text>
</a>
</g>
</g>
<!-- Node2 -->
<g id="Node000002" class="node">
<title>Node2</title>
<g id="a_Node000002"><a xlink:href="../../dd/d4a/net_2http_8c.html#ae939f183d667e5ad8ec3d3c3b4374e0f" target="_top" xlink:title=" ">
<polygon fill="white" stroke="#666666" points="1414,-103.5 1294.5,-103.5 1294.5,-73 1414,-73 1414,-103.5"/>
<text text-anchor="start" x="1302.5" y="-90" font-family="Helvetica,sans-Serif" font-size="10.00">http2_conn_on_connect</text>
<text text-anchor="middle" x="1354.25" y="-78.75" font-family="Helvetica,sans-Serif" font-size="10.00">_error</text>
</a>
</g>
</g>
<!-- Node1&#45;&gt;Node2 -->
<g id="edge1_Node000001_Node000002" class="edge">
<title>Node1&#45;&gt;Node2</title>
<g id="a_edge1_Node000001_Node000002"><a xlink:title=" ">
<path fill="none" stroke="#63b8ff" d="M1438.35,-88.25C1430.39,-88.25 1422.22,-88.25 1414.27,-88.25"/>
<polygon fill="#63b8ff" stroke="#63b8ff" points="1438.32,-91.75 1448.32,-88.25 1438.32,-84.75 1438.32,-91.75"/>
</a>
</g>
</g>
<!-- Node3 -->
<g id="Node000003" class="node">
<title>Node3</title>
<g id="a_Node000003"><a xlink:href="../../dd/d4a/net_2http_8c.html#a6cd3fedefa6697bd38bd7cb0cf916806" target="_top" xlink:title=" ">
<polygon fill="white" stroke="#666666" points="1258.5,-177.5 1126.25,-177.5 1126.25,-147 1258.5,-147 1258.5,-177.5"/>
<text text-anchor="start" x="1134.25" y="-164" font-family="Helvetica,sans-Serif" font-size="10.00">http2_conn_close_connect</text>
<text text-anchor="middle" x="1192.38" y="-152.75" font-family="Helvetica,sans-Serif" font-size="10.00">_error</text>
</a>
</g>
</g>
<!-- Node2&#45;&gt;Node3 -->
<g id="edge2_Node000002_Node000003" class="edge">
<title>Node2&#45;&gt;Node3</title>
<g id="a_edge2_Node000002_Node000003"><a xlink:title=" ">
<path fill="none" stroke="#63b8ff" d="M1314.91,-109.31C1297.85,-118.35 1277.39,-128.77 1258.5,-137.25 1251.43,-140.42 1243.82,-143.57 1236.39,-146.51"/>
<polygon fill="#63b8ff" stroke="#63b8ff" points="1316.54,-112.4 1323.71,-104.6 1313.24,-106.23 1316.54,-112.4"/>
</a>
</g>
</g>
<!-- Node18 -->
<g id="Node000018" class="node">
<title>Node18</title>
<g id="a_Node000018"><a xlink:href="../../dd/d4a/net_2http_8c.html#a6e80d05a5256ea0601beff0283ae6292" target="_top" xlink:title=" ">
<polygon fill="white" stroke="#666666" points="1258.5,-128.5 1126.25,-128.5 1126.25,-98 1258.5,-98 1258.5,-128.5"/>
<text text-anchor="start" x="1134.25" y="-115" font-family="Helvetica,sans-Serif" font-size="10.00">http2_conn_close_connect</text>
<text text-anchor="middle" x="1192.38" y="-103.75" font-family="Helvetica,sans-Serif" font-size="10.00">_timeout</text>
</a>
</g>
</g>
<!-- Node2&#45;&gt;Node18 -->
<g id="edge17_Node000002_Node000018" class="edge">
<title>Node2&#45;&gt;Node18</title>
<g id="a_edge17_Node000002_Node000018"><a xlink:title=" ">
<path fill="none" stroke="#63b8ff" d="M1282.99,-99.24C1275,-100.49 1266.87,-101.76 1258.94,-103"/>
<polygon fill="#63b8ff" stroke="#63b8ff" points="1283.34,-102.72 1292.68,-97.72 1282.26,-95.81 1283.34,-102.72"/>
</a>
</g>
</g>
<!-- Node19 -->
<g id="Node000019" class="node">
<title>Node19</title>
<g id="a_Node000019"><a xlink:href="../../dd/d4a/net_2http_8c.html#a3b578ee2ce5e6010b5205685a6c2071d" target="_top" xlink:title=" ">
<polygon fill="white" stroke="#666666" points="1246.5,-79.5 1138.25,-79.5 1138.25,-49 1246.5,-49 1246.5,-79.5"/>
<text text-anchor="start" x="1146.25" y="-66" font-family="Helvetica,sans-Serif" font-size="10.00">http2_conn_close_tls</text>
<text text-anchor="middle" x="1192.38" y="-54.75" font-family="Helvetica,sans-Serif" font-size="10.00">_handshake_error</text>
</a>
</g>
</g>
<!-- Node2&#45;&gt;Node19 -->
<g id="edge19_Node000002_Node000019" class="edge">
<title>Node2&#45;&gt;Node19</title>
<g id="a_edge19_Node000002_Node000019"><a xlink:title=" ">
<path fill="none" stroke="#63b8ff" d="M1283.14,-77.73C1270.99,-75.9 1258.54,-74.03 1246.93,-72.29"/>
<polygon fill="#63b8ff" stroke="#63b8ff" points="1282.27,-81.13 1292.68,-79.16 1283.31,-74.21 1282.27,-81.13"/>
</a>
</g>
</g>
<!-- Node20 -->
<g id="Node000020" class="node">
<title>Node20</title>
<g id="a_Node000020"><a xlink:href="../../dd/d4a/net_2http_8c.html#ac16fb2f971178f827c7f14a15d81e51b" target="_top" xlink:title=" ">
<polygon fill="white" stroke="#666666" points="1256.25,-30.5 1128.5,-30.5 1128.5,0 1256.25,0 1256.25,-30.5"/>
<text text-anchor="start" x="1136.5" y="-17" font-family="Helvetica,sans-Serif" font-size="10.00">http2_conn_close_tls</text>
<text text-anchor="middle" x="1192.38" y="-5.75" font-family="Helvetica,sans-Serif" font-size="10.00">_no_peer_certificate_error</text>
</a>
</g>
</g>
<!-- Node2&#45;&gt;Node20 -->
<g id="edge21_Node000002_Node000020" class="edge">
<title>Node2&#45;&gt;Node20</title>
<g id="a_edge21_Node000002_Node000020"><a xlink:title=" ">
<path fill="none" stroke="#63b8ff" d="M1314.1,-67.28C1297.19,-58.52 1277.06,-48.49 1258.5,-40.25 1251.3,-37.06 1243.56,-33.87 1236.02,-30.9"/>
<polygon fill="#63b8ff" stroke="#63b8ff" points="1312.35,-70.32 1322.83,-71.85 1315.59,-64.11 1312.35,-70.32"/>
</a>
</g>
</g>
<!-- Node4 -->
<g id="Node000004" class="node">
<title>Node4</title>
<g id="a_Node000004"><a xlink:href="../../dd/d4a/net_2http_8c.html#a3ae7da35c16d0895aea3196afb96e16d" target="_top" xlink:title=" ">
<polygon fill="white" stroke="#666666" points="1090.25,-97.88 970.75,-97.88 970.75,-78.62 1090.25,-78.62 1090.25,-97.88"/>
<text text-anchor="middle" x="1030.5" y="-84.38" font-family="Helvetica,sans-Serif" font-size="10.00">http2_conn_on_connect</text>
</a>
</g>
</g>
<!-- Node3&#45;&gt;Node4 -->
<g id="edge3_Node000003_Node000004" class="edge">
<title>Node3&#45;&gt;Node4</title>
<g id="a_edge3_Node000003_Node000004"><a xlink:title=" ">
<path fill="none" stroke="#63b8ff" d="M1137.87,-142.26C1133.91,-140.62 1130.01,-138.94 1126.25,-137.25 1098.88,-124.96 1068.21,-108.61 1049.37,-98.25"/>
<polygon fill="#63b8ff" stroke="#63b8ff" points="1136.37,-145.43 1146.96,-145.94 1139,-138.94 1136.37,-145.43"/>
</a>
</g>
</g>
<!-- Node5 -->
<g id="Node000005" class="node">
<title>Node5</title>
<g id="a_Node000005"><a xlink:href="../../dd/d4a/net_2http_8c.html#a5754e9d15cd8048e27331bb4aaed12b7" target="_top" xlink:title=" ">
<polygon fill="white" stroke="#666666" points="929.5,-125.5 825.75,-125.5 825.75,-95 929.5,-95 929.5,-125.5"/>
<text text-anchor="start" x="833.75" y="-112" font-family="Helvetica,sans-Serif" font-size="10.00">http2_conn_connect</text>
<text text-anchor="middle" x="877.62" y="-100.75" font-family="Helvetica,sans-Serif" font-size="10.00">_client_as</text>
</a>
</g>
</g>
<!-- Node4&#45;&gt;Node5 -->
<g id="edge4_Node000004_Node000005" class="edge">
<title>Node4&#45;&gt;Node5</title>
<g id="a_edge4_Node000004_Node000005"><a xlink:title=" ">
<path fill="none" stroke="#63b8ff" d="M959.21,-98.5C949.3,-99.94 939.28,-101.41 929.83,-102.78"/>
<polygon fill="#63b8ff" stroke="#63b8ff" points="959.42,-102.01 968.81,-97.1 958.41,-95.08 959.42,-102.01"/>
</a>
</g>
</g>
<!-- Node15 -->
<g id="Node000015" class="node">
<title>Node15</title>
<g id="a_Node000015"><a xlink:href="../../dd/d4a/net_2http_8c.html#a3926ffca7cc91de4f1ef8ac35a7420c5" target="_top" xlink:title=" ">
<polygon fill="white" stroke="#666666" points="934.75,-76.88 820.5,-76.88 820.5,-57.62 934.75,-57.62 934.75,-76.88"/>
<text text-anchor="middle" x="877.62" y="-63.38" font-family="Helvetica,sans-Serif" font-size="10.00">httpd_spawn_as_http2</text>
</a>
</g>
</g>
<!-- Node4&#45;&gt;Node15 -->
<g id="edge14_Node000004_Node000015" class="edge">
<title>Node4&#45;&gt;Node15</title>
<g id="a_edge14_Node000004_Node000015"><a xlink:title=" ">
<path fill="none" stroke="#63b8ff" d="M959.07,-78.45C951.06,-77.33 942.98,-76.21 935.18,-75.12"/>
<polygon fill="#63b8ff" stroke="#63b8ff" points="958.42,-81.89 968.8,-79.8 959.38,-74.96 958.42,-81.89"/>
</a>
</g>
</g>
<!-- Node6 -->
<g id="Node000006" class="node">
<title>Node6</title>
<g id="a_Node000006"><a xlink:href="../../dd/d4a/net_2http_8c.html#a7a3e350c92c5b8a0ea73161bbc780926" target="_top" xlink:title=" ">
<polygon fill="white" stroke="#666666" points="784.5,-119.88 676.25,-119.88 676.25,-100.62 784.5,-100.62 784.5,-119.88"/>
<text text-anchor="middle" x="730.38" y="-106.38" font-family="Helvetica,sans-Serif" font-size="10.00">http2_pool_get_client</text>
</a>
</g>
</g>
<!-- Node5&#45;&gt;Node6 -->
<g id="edge5_Node000005_Node000006" class="edge">
<title>Node5&#45;&gt;Node6</title>
<g id="a_edge5_Node000005_Node000006"><a xlink:title=" ">
<path fill="none" stroke="#63b8ff" d="M814.05,-110.25C804.23,-110.25 794.16,-110.25 784.58,-110.25"/>
<polygon fill="#63b8ff" stroke="#63b8ff" points="813.9,-113.75 823.9,-110.25 813.9,-106.75 813.9,-113.75"/>
</a>
</g>
</g>
<!-- Node7 -->
<g id="Node000007" class="node">
<title>Node7</title>
<g id="a_Node000007"><a xlink:href="../../dd/d4a/net_2http_8c.html#ae849932f9841489cefbd4761c2ad561d" target="_top" xlink:title=" ">
<polygon fill="white" stroke="#666666" points="640.25,-119.88 520,-119.88 520,-100.62 640.25,-100.62 640.25,-119.88"/>
<text text-anchor="middle" x="580.12" y="-106.38" font-family="Helvetica,sans-Serif" font-size="10.00">httpc_connect_as_http2</text>
</a>
</g>
</g>
<!-- Node6&#45;&gt;Node7 -->
<g id="edge6_Node000006_Node000007" class="edge">
<title>Node6&#45;&gt;Node7</title>
<g id="a_edge6_Node000006_Node000007"><a xlink:title=" ">
<path fill="none" stroke="#63b8ff" d="M664.4,-110.25C656.48,-110.25 648.43,-110.25 640.6,-110.25"/>
<polygon fill="#63b8ff" stroke="#63b8ff" points="664.34,-113.75 674.34,-110.25 664.34,-106.75 664.34,-113.75"/>
</a>
</g>
</g>
<!-- Node8 -->
<g id="Node000008" class="node">
<title>Node8</title>
<g id="a_Node000008"><a xlink:href="../../dd/d4a/net_2http_8c.html#a30869b3f203c5600c7c6257da47f2a43" target="_top" xlink:title=" ">
<polygon fill="white" stroke="#666666" points="484,-119.88 390.75,-119.88 390.75,-100.62 484,-100.62 484,-119.88"/>
<text text-anchor="middle" x="437.38" y="-106.38" font-family="Helvetica,sans-Serif" font-size="10.00">httpc_connect_as</text>
</a>
</g>
</g>
<!-- Node7&#45;&gt;Node8 -->
<g id="edge7_Node000007_Node000008" class="edge">
<title>Node7&#45;&gt;Node8</title>
<g id="a_edge7_Node000007_Node000008"><a xlink:title=" ">
<path fill="none" stroke="#63b8ff" d="M508.35,-110.25C500.19,-110.25 492.04,-110.25 484.33,-110.25"/>
<polygon fill="#63b8ff" stroke="#63b8ff" points="508.33,-113.75 518.33,-110.25 508.33,-106.75 508.33,-113.75"/>
</a>
</g>
</g>
<!-- Node9 -->
<g id="Node000009" class="node">
<title>Node9</title>
<g id="a_Node000009"><a xlink:href="../../dd/d4a/net_2http_8c.html#a6fe5d8fb56f828b9cb355eaf9bb2efa8" target="_top" xlink:title=" ">
<polygon fill="white" stroke="#666666" points="346.12,-138.88 268.62,-138.88 268.62,-119.62 346.12,-119.62 346.12,-138.88"/>
<text text-anchor="middle" x="307.38" y="-125.38" font-family="Helvetica,sans-Serif" font-size="10.00">httpc_connect</text>
</a>
</g>
</g>
<!-- Node8&#45;&gt;Node9 -->
<g id="edge8_Node000008_Node000009" class="edge">
<title>Node8&#45;&gt;Node9</title>
<g id="a_edge8_Node000008_Node000009"><a xlink:title=" ">
<path fill="none" stroke="#63b8ff" d="M379.46,-118.7C368.24,-120.36 356.72,-122.07 346.32,-123.62"/>
<polygon fill="#63b8ff" stroke="#63b8ff" points="379.65,-122.21 389.03,-117.28 378.62,-115.28 379.65,-122.21"/>
</a>
</g>
</g>
<!-- Node13 -->
<g id="Node000013" class="node">
<title>Node13</title>
<g id="a_Node000013"><a xlink:href="../../dd/d4a/net_2http_8c.html#a08d48d7c0320097b6e50119e49dd1a5d" target="_top" xlink:title=" ">
<polygon fill="white" stroke="#666666" points="354.75,-101.88 260,-101.88 260,-82.62 354.75,-82.62 354.75,-101.88"/>
<text text-anchor="middle" x="307.38" y="-88.38" font-family="Helvetica,sans-Serif" font-size="10.00">httpc_pool_launch</text>
</a>
</g>
</g>
<!-- Node8&#45;&gt;Node13 -->
<g id="edge12_Node000008_Node000013" class="edge">
<title>Node8&#45;&gt;Node13</title>
<g id="a_edge12_Node000008_Node000013"><a xlink:title=" ">
<path fill="none" stroke="#63b8ff" d="M379.29,-102.22C371.23,-101.09 363.03,-99.94 355.2,-98.83"/>
<polygon fill="#63b8ff" stroke="#63b8ff" points="378.64,-105.66 389.03,-103.59 379.61,-98.73 378.64,-105.66"/>
</a>
</g>
</g>
<!-- Node10 -->
<g id="Node000010" class="node">
<title>Node10</title>
<g id="a_Node000010"><a xlink:href="../../dd/d4a/net_2http_8c.html#ae0600e298ca883d66d4ff582e8786e11" target="_top" xlink:title=" ">
<polygon fill="white" stroke="#666666" points="223.25,-138.88 145,-138.88 145,-119.62 223.25,-119.62 223.25,-138.88"/>
<text text-anchor="middle" x="184.12" y="-125.38" font-family="Helvetica,sans-Serif" font-size="10.00">z_query_setup</text>
</a>
</g>
</g>
<!-- Node9&#45;&gt;Node10 -->
<g id="edge9_Node000009_Node000010" class="edge">
<title>Node9&#45;&gt;Node10</title>
<g id="a_edge9_Node000009_Node000010"><a xlink:title=" ">
<path fill="none" stroke="#63b8ff" d="M256.95,-129.25C245.78,-129.25 234.08,-129.25 223.44,-129.25"/>
<polygon fill="#63b8ff" stroke="#63b8ff" points="256.83,-132.75 266.83,-129.25 256.83,-125.75 256.83,-132.75"/>
</a>
</g>
</g>
<!-- Node11 -->
<g id="Node000011" class="node">
<title>Node11</title>
<g id="a_Node000011"><a xlink:href="../../dd/d4a/net_2http_8c.html#ad6f99386fb518c8ba64244857b0240e1" target="_top" xlink:title=" ">
<polygon fill="white" stroke="#666666" points="108.25,-157.88 0,-157.88 0,-138.62 108.25,-138.62 108.25,-157.88"/>
<text text-anchor="middle" x="54.12" y="-144.38" font-family="Helvetica,sans-Serif" font-size="10.00">Z_GROUP_EXPORT</text>
</a>
</g>
</g>
<!-- Node10&#45;&gt;Node11 -->
<g id="edge10_Node000010_Node000011" class="edge">
<title>Node10&#45;&gt;Node11</title>
<g id="a_edge10_Node000010_Node000011"><a xlink:title=" ">
<path fill="none" stroke="#63b8ff" d="M133.49,-136.62C125.35,-137.83 116.88,-139.08 108.65,-140.31"/>
<polygon fill="#63b8ff" stroke="#63b8ff" points="133.85,-140.1 143.22,-135.17 132.82,-133.18 133.85,-140.1"/>
</a>
</g>
</g>
<!-- Node12 -->
<g id="Node000012" class="node">
<title>Node12</title>
<g id="a_Node000012"><a xlink:href="../../dd/d4a/net_2http_8c.html#ad196e07d97f054b7629a5f94093340dd" target="_top" xlink:title=" ">
<polygon fill="white" stroke="#666666" points="108.25,-120.88 0,-120.88 0,-101.62 108.25,-101.62 108.25,-120.88"/>
<text text-anchor="middle" x="54.12" y="-107.38" font-family="Helvetica,sans-Serif" font-size="10.00">Z_GROUP_EXPORT</text>
</a>
</g>
</g>
<!-- Node10&#45;&gt;Node12 -->
<g id="edge11_Node000010_Node000012" class="edge">
<title>Node10&#45;&gt;Node12</title>
<g id="a_edge11_Node000010_Node000012"><a xlink:title=" ">
<path fill="none" stroke="#63b8ff" d="M133.49,-122.27C125.35,-121.12 116.88,-119.93 108.65,-118.78"/>
<polygon fill="#63b8ff" stroke="#63b8ff" points="132.83,-125.71 143.22,-123.64 133.81,-118.78 132.83,-125.71"/>
</a>
</g>
</g>
<!-- Node14 -->
<g id="Node000014" class="node">
<title>Node14</title>
<g id="a_Node000014"><a xlink:href="../../dd/d4a/net_2http_8c.html#a13fe4b4dc9d8e2b66738d7bc50745860" target="_top" xlink:title=" ">
<polygon fill="white" stroke="#666666" points="224,-101.88 144.25,-101.88 144.25,-82.62 224,-82.62 224,-101.88"/>
<text text-anchor="middle" x="184.12" y="-88.38" font-family="Helvetica,sans-Serif" font-size="10.00">httpc_pool_get</text>
</a>
</g>
</g>
<!-- Node13&#45;&gt;Node14 -->
<g id="edge13_Node000013_Node000014" class="edge">
<title>Node13&#45;&gt;Node14</title>
<g id="a_edge13_Node000013_Node000014"><a xlink:title=" ">
<path fill="none" stroke="#63b8ff" d="M248.38,-92.25C240.2,-92.25 231.95,-92.25 224.24,-92.25"/>
<polygon fill="#63b8ff" stroke="#63b8ff" points="248.33,-95.75 258.33,-92.25 248.33,-88.75 248.33,-95.75"/>
</a>
</g>
</g>
<!-- Node16 -->
<g id="Node000016" class="node">
<title>Node16</title>
<g id="a_Node000016"><a xlink:href="../../dd/d4a/net_2http_8c.html#ababf4c72b8aba8aa09b45da6bccfd250" target="_top" xlink:title=" ">
<polygon fill="white" stroke="#666666" points="774.38,-76.88 686.38,-76.88 686.38,-57.62 774.38,-57.62 774.38,-76.88"/>
<text text-anchor="middle" x="730.38" y="-63.38" font-family="Helvetica,sans-Serif" font-size="10.00">httpd_on_accept</text>
</a>
</g>
</g>
<!-- Node15&#45;&gt;Node16 -->
<g id="edge15_Node000015_Node000016" class="edge">
<title>Node15&#45;&gt;Node16</title>
<g id="a_edge15_Node000015_Node000016"><a xlink:title=" ">
<path fill="none" stroke="#63b8ff" d="M808.56,-67.25C796.97,-67.25 785.23,-67.25 774.52,-67.25"/>
<polygon fill="#63b8ff" stroke="#63b8ff" points="808.54,-70.75 818.54,-67.25 808.54,-63.75 808.54,-70.75"/>
</a>
</g>
</g>
<!-- Node17 -->
<g id="Node000017" class="node">
<title>Node17</title>
<g id="a_Node000017"><a xlink:href="../../dd/d4a/net_2http_8c.html#a4bb48b79e806519f505be1648ff296fd" target="_top" xlink:title=" ">
<polygon fill="white" stroke="#666666" points="613.25,-76.88 547,-76.88 547,-57.62 613.25,-57.62 613.25,-76.88"/>
<text text-anchor="middle" x="580.12" y="-63.38" font-family="Helvetica,sans-Serif" font-size="10.00">httpd_listen</text>
</a>
</g>
</g>
<!-- Node16&#45;&gt;Node17 -->
<g id="edge16_Node000016_Node000017" class="edge">
<title>Node16&#45;&gt;Node17</title>
<g id="a_edge16_Node000016_Node000017"><a xlink:title=" ">
<path fill="none" stroke="#63b8ff" d="M674.6,-67.25C654,-67.25 631.27,-67.25 613.37,-67.25"/>
<polygon fill="#63b8ff" stroke="#63b8ff" points="674.58,-70.75 684.58,-67.25 674.58,-63.75 674.58,-70.75"/>
</a>
</g>
</g>
<!-- Node18&#45;&gt;Node4 -->
<g id="edge18_Node000018_Node000004" class="edge">
<title>Node18&#45;&gt;Node4</title>
<g id="a_edge18_Node000018_Node000004"><a xlink:title=" ">
<path fill="none" stroke="#63b8ff" d="M1114.6,-101.25C1106.58,-99.99 1098.51,-98.73 1090.73,-97.51"/>
<polygon fill="#63b8ff" stroke="#63b8ff" points="1113.97,-104.69 1124.39,-102.78 1115.05,-97.77 1113.97,-104.69"/>
</a>
</g>
</g>
<!-- Node19&#45;&gt;Node4 -->
<g id="edge20_Node000019_Node000004" class="edge">
<title>Node19&#45;&gt;Node4</title>
<g id="a_edge20_Node000019_Node000004"><a xlink:title=" ">
<path fill="none" stroke="#63b8ff" d="M1126.83,-73.94C1114.84,-75.74 1102.38,-77.61 1090.56,-79.38"/>
<polygon fill="#63b8ff" stroke="#63b8ff" points="1127.27,-77.41 1136.64,-72.47 1126.23,-70.49 1127.27,-77.41"/>
</a>
</g>
</g>
<!-- Node20&#45;&gt;Node4 -->
<g id="edge22_Node000020_Node000004" class="edge">
<title>Node20&#45;&gt;Node4</title>
<g id="a_edge22_Node000020_Node000004"><a xlink:title=" ">
<path fill="none" stroke="#63b8ff" d="M1138.07,-35.2C1134.05,-36.86 1130.07,-38.55 1126.25,-40.25 1099.11,-52.29 1068.63,-68.17 1049.75,-78.3"/>
<polygon fill="#63b8ff" stroke="#63b8ff" points="1139.36,-38.45 1147.33,-31.47 1136.74,-31.96 1139.36,-38.45"/>
</a>
</g>
</g>
</g>
</svg>

<g id="navigator" transform="translate(0 0)" fill="#404254">
  <rect fill="#f2f5e9" fill-opacity="0.5" stroke="#606060" stroke-width=".5" x="0" y="0" width="60" height="60"/>
  <use id="zoomplus" xlink:href="#zoomPlus" x="17" y="9" onmousedown="handleZoom(evt,'in')"/>
  <use id="zoomminus" xlink:href="#zoomMin" x="42" y="9" onmousedown="handleZoom(evt,'out')"/>
  <use id="reset" xlink:href="#resetDef" x="30" y="36" onmousedown="handleReset()"/>
   <use id="arrowup" xlink:href="#arrowUp" x="0" y="0" onmousedown="handlePan(0,-1)"/>
  <use id="arrowright" xlink:href="#arrowRight" x="0" y="0" onmousedown="handlePan(1,0)"/>
  <use id="arrowdown" xlink:href="#arrowDown" x="0" y="0" onmousedown="handlePan(0,1)"/>
  <use id="arrowleft" xlink:href="#arrowLeft" x="0" y="0" onmousedown="handlePan(-1,0)"/>
</g>
<svg viewBox="0 0 15 15" width="100%" height="30px" preserveAspectRatio="xMaxYMin meet">
 <g id="arrow_out" transform="scale(0.3 0.3)">
  <a xlink:href="net_2http_8c_a41985d00babaf79f4976ab42fc989705_icgraph_org.svg" target="_base">
   <rect id="button" ry="5" rx="5" y="6" x="6" height="38" width="38"
        fill="#f2f5e9" fill-opacity="0.5" stroke="#606060" stroke-width="1.0"/>
   <path id="arrow"
     d="M 11.500037,31.436501 C 11.940474,20.09759 22.043105,11.32322 32.158766,21.979434 L 37.068811,17.246167 C 37.068811,17.246167 37.088388,32 37.088388,32 L 22.160133,31.978069 C 22.160133,31.978069 26.997745,27.140456 26.997745,27.140456 C 18.528582,18.264221 13.291696,25.230495 11.500037,31.436501 z"
     style="fill:#404040;"/>
  </a>
 </g>
</svg>

<style type='text/css'>
<![CDATA[
[data-mouse-over-selected='false'] { opacity: 0.7; }
[data-mouse-over-selected='true']  { opacity: 1.0; }
]]>
</style>
<script type="application/ecmascript"><![CDATA[
document.addEventListener('DOMContentLoaded', (event) => {
  highlightEdges();
  highlightAdjacentNodes();
});
]]></script>
</svg>
