<?xml version="1.0" encoding="UTF-8" standalone="no"?>
<!DOCTYPE svg PUBLIC "-//W3C//DTD SVG 1.1//EN"
 "http://www.w3.org/Graphics/SVG/1.1/DTD/svg11.dtd">
<!-- Generated by graphviz version 9.0.0 (20230911.1827)
 -->
<!-- Title: http2_conn_on_close_server Pages: 1 -->
<svg width="2369pt" height="523pt"
 viewBox="0.00 0.00 2369.25 522.80" xmlns="http://www.w3.org/2000/svg" xmlns:xlink="http://www.w3.org/1999/xlink">
<g id="graph0" class="graph" transform="scale(1 1) rotate(0) translate(4 518.8)">
<title>http2_conn_on_close_server</title>
<!-- Node1 -->
<g id="Node000001" class="node">
<title>Node1</title>
<g id="a_Node000001"><a xlink:title=" ">
<polygon fill="#999999" stroke="#666666" points="2361.25,-285.95 2253,-285.95 2253,-255.45 2361.25,-255.45 2361.25,-285.95"/>
<text text-anchor="start" x="2261" y="-272.45" font-family="Helvetica,sans-Serif" font-size="10.00">http2_conn_on_close</text>
<text text-anchor="middle" x="2307.12" y="-261.2" font-family="Helvetica,sans-Serif" font-size="10.00">_server</text>
</a>
</g>
</g>
<!-- Node2 -->
<g id="Node000002" class="node">
<title>Node2</title>
<g id="a_Node000002"><a xlink:href="../../dd/d4a/net_2http_8c.html#ac7fbeba93886082113be531c89b08aea" target="_top" xlink:title=" ">
<polygon fill="white" stroke="#666666" points="2217,-280.32 2108.75,-280.32 2108.75,-261.07 2217,-261.07 2217,-280.32"/>
<text text-anchor="middle" x="2162.88" y="-266.82" font-family="Helvetica,sans-Serif" font-size="10.00">http2_conn_on_close</text>
</a>
</g>
</g>
<!-- Node1&#45;&gt;Node2 -->
<g id="edge1_Node000001_Node000002" class="edge">
<title>Node1&#45;&gt;Node2</title>
<g id="a_edge1_Node000001_Node000002"><a xlink:title=" ">
<path fill="none" stroke="#63b8ff" d="M2241.38,-270.7C2233.24,-270.7 2225,-270.7 2217.07,-270.7"/>
<polygon fill="#63b8ff" stroke="#63b8ff" points="2241.24,-274.2 2251.24,-270.7 2241.24,-267.2 2241.24,-274.2"/>
</a>
</g>
</g>
<!-- Node3 -->
<g id="Node000003" class="node">
<title>Node3</title>
<g id="a_Node000003"><a xlink:href="../../dd/d4a/net_2http_8c.html#a115c73f758bc9cbedf1ab74e7cb32f64" target="_top" xlink:title=" ">
<polygon fill="white" stroke="#666666" points="2072.75,-280.32 1980.25,-280.32 1980.25,-261.07 2072.75,-261.07 2072.75,-280.32"/>
<text text-anchor="middle" x="2026.5" y="-266.82" font-family="Helvetica,sans-Serif" font-size="10.00">http2_conn_close</text>
</a>
</g>
</g>
<!-- Node2&#45;&gt;Node3 -->
<g id="edge2_Node000002_Node000003" class="edge">
<title>Node2&#45;&gt;Node3</title>
<g id="a_edge2_Node000002_Node000003"><a xlink:title=" ">
<path fill="none" stroke="#63b8ff" d="M2097,-270.7C2088.89,-270.7 2080.74,-270.7 2073.02,-270.7"/>
<polygon fill="#63b8ff" stroke="#63b8ff" points="2096.87,-274.2 2106.87,-270.7 2096.87,-267.2 2096.87,-274.2"/>
</a>
</g>
</g>
<!-- Node4 -->
<g id="Node000004" class="node">
<title>Node4</title>
<g id="a_Node000004"><a xlink:href="../../dd/d4a/net_2http_8c.html#a76b727f1e324c5eea12a77fd4e8e0c04" target="_top" xlink:title=" ">
<polygon fill="white" stroke="#666666" points="1944.25,-179.32 1800.75,-179.32 1800.75,-160.07 1944.25,-160.07 1944.25,-179.32"/>
<text text-anchor="middle" x="1872.5" y="-165.82" font-family="Helvetica,sans-Serif" font-size="10.00">http2_conn_close_abort_recv</text>
</a>
</g>
</g>
<!-- Node3&#45;&gt;Node4 -->
<g id="edge3_Node000003_Node000004" class="edge">
<title>Node3&#45;&gt;Node4</title>
<g id="a_edge3_Node000003_Node000004"><a xlink:title=" ">
<path fill="none" stroke="#63b8ff" d="M2011.87,-251.6C1997.28,-232.57 1972.39,-203.91 1944.25,-187.7 1938.76,-184.53 1932.71,-181.92 1926.54,-179.76"/>
<polygon fill="#63b8ff" stroke="#63b8ff" points="2009.03,-253.64 2017.8,-259.59 2014.65,-249.47 2009.03,-253.64"/>
</a>
</g>
</g>
<!-- Node23 -->
<g id="Node000023" class="node">
<title>Node23</title>
<g id="a_Node000023"><a xlink:href="../../dd/d4a/net_2http_8c.html#a49299560a7f01755f302e48c97530869" target="_top" xlink:title=" ">
<polygon fill="white" stroke="#666666" points="1944.25,-302.32 1800.75,-302.32 1800.75,-283.07 1944.25,-283.07 1944.25,-302.32"/>
<text text-anchor="middle" x="1872.5" y="-288.82" font-family="Helvetica,sans-Serif" font-size="10.00">http2_conn_close_abort_sent</text>
</a>
</g>
</g>
<!-- Node3&#45;&gt;Node23 -->
<g id="edge22_Node000003_Node000023" class="edge">
<title>Node3&#45;&gt;Node23</title>
<g id="a_edge22_Node000003_Node000023"><a xlink:title=" ">
<path fill="none" stroke="#63b8ff" d="M1968.5,-278.95C1960.26,-280.14 1951.71,-281.38 1943.25,-282.6"/>
<polygon fill="#63b8ff" stroke="#63b8ff" points="1969,-282.41 1978.4,-277.51 1968,-275.48 1969,-282.41"/>
</a>
</g>
</g>
<!-- Node24 -->
<g id="Node000024" class="node">
<title>Node24</title>
<g id="a_Node000024"><a xlink:href="../../dd/d4a/net_2http_8c.html#a6cd3fedefa6697bd38bd7cb0cf916806" target="_top" xlink:title=" ">
<polygon fill="white" stroke="#666666" points="1598.75,-502.95 1466.5,-502.95 1466.5,-472.45 1598.75,-472.45 1598.75,-502.95"/>
<text text-anchor="start" x="1474.5" y="-489.45" font-family="Helvetica,sans-Serif" font-size="10.00">http2_conn_close_connect</text>
<text text-anchor="middle" x="1532.62" y="-478.2" font-family="Helvetica,sans-Serif" font-size="10.00">_error</text>
</a>
</g>
</g>
<!-- Node3&#45;&gt;Node24 -->
<g id="edge24_Node000003_Node000024" class="edge">
<title>Node3&#45;&gt;Node24</title>
<g id="a_edge24_Node000003_Node000024"><a xlink:title=" ">
<path fill="none" stroke="#63b8ff" d="M2023.34,-291.97C2018,-332.22 2000.26,-418.99 1944.25,-458.7 1841.78,-531.34 1686.47,-517.91 1599.17,-502.35"/>
<polygon fill="#63b8ff" stroke="#63b8ff" points="2026.8,-292.51 2024.49,-282.17 2019.85,-291.69 2026.8,-292.51"/>
</a>
</g>
</g>
<!-- Node25 -->
<g id="Node000025" class="node">
<title>Node25</title>
<g id="a_Node000025"><a xlink:href="../../dd/d4a/net_2http_8c.html#a6e80d05a5256ea0601beff0283ae6292" target="_top" xlink:title=" ">
<polygon fill="white" stroke="#666666" points="1262.62,-453.95 1130.38,-453.95 1130.38,-423.45 1262.62,-423.45 1262.62,-453.95"/>
<text text-anchor="start" x="1138.38" y="-440.45" font-family="Helvetica,sans-Serif" font-size="10.00">http2_conn_close_connect</text>
<text text-anchor="middle" x="1196.5" y="-429.2" font-family="Helvetica,sans-Serif" font-size="10.00">_timeout</text>
</a>
</g>
</g>
<!-- Node3&#45;&gt;Node25 -->
<g id="edge26_Node000003_Node000025" class="edge">
<title>Node3&#45;&gt;Node25</title>
<g id="a_edge26_Node000003_Node000025"><a xlink:title=" ">
<path fill="none" stroke="#63b8ff" d="M2017.32,-291.06C2005.4,-318 1980.66,-364.95 1944.25,-389.7 1852.49,-452.06 1811.7,-444.7 1700.75,-444.7 1700.75,-444.7 1700.75,-444.7 1531.62,-444.7 1438.36,-444.7 1330.48,-442.33 1263.11,-440.57"/>
<polygon fill="#63b8ff" stroke="#63b8ff" points="2020.5,-292.52 2021.17,-281.95 2014.05,-289.8 2020.5,-292.52"/>
</a>
</g>
</g>
<!-- Node26 -->
<g id="Node000026" class="node">
<title>Node26</title>
<g id="a_Node000026"><a xlink:href="../../dd/d4a/net_2http_8c.html#aace9d5eae290a73ed122874920d7d3cb" target="_top" xlink:title=" ">
<polygon fill="white" stroke="#666666" points="1758.38,-416.95 1641.12,-416.95 1641.12,-386.45 1758.38,-386.45 1758.38,-416.95"/>
<text text-anchor="start" x="1649.12" y="-403.45" font-family="Helvetica,sans-Serif" font-size="10.00">http2_conn_close_error</text>
<text text-anchor="middle" x="1699.75" y="-392.2" font-family="Helvetica,sans-Serif" font-size="10.00">_pack_preface</text>
</a>
</g>
</g>
<!-- Node3&#45;&gt;Node26 -->
<g id="edge28_Node000003_Node000026" class="edge">
<title>Node3&#45;&gt;Node26</title>
<g id="a_edge28_Node000003_Node000026"><a xlink:title=" ">
<path fill="none" stroke="#63b8ff" d="M2012.61,-290.04C1998.33,-309.83 1973.43,-339.86 1944.25,-355.7 1886.21,-387.2 1810.23,-397.46 1758.69,-400.63"/>
<polygon fill="#63b8ff" stroke="#63b8ff" points="2015.37,-292.2 2018.21,-282 2009.62,-288.2 2015.37,-292.2"/>
</a>
</g>
</g>
<!-- Node27 -->
<g id="Node000027" class="node">
<title>Node27</title>
<g id="a_Node000027"><a xlink:href="../../dd/d4a/net_2http_8c.html#a9c83459d26563313b4613b3e2b60affb" target="_top" xlink:title=" ">
<polygon fill="white" stroke="#666666" points="1429.38,-224.95 1303.88,-224.95 1303.88,-194.45 1429.38,-194.45 1429.38,-224.95"/>
<text text-anchor="start" x="1311.88" y="-211.45" font-family="Helvetica,sans-Serif" font-size="10.00">http2_conn_close_invalid</text>
<text text-anchor="middle" x="1366.62" y="-200.2" font-family="Helvetica,sans-Serif" font-size="10.00">_preface</text>
</a>
</g>
</g>
<!-- Node3&#45;&gt;Node27 -->
<g id="edge30_Node000003_Node000027" class="edge">
<title>Node3&#45;&gt;Node27</title>
<g id="a_edge30_Node000003_Node000027"><a xlink:title=" ">
<path fill="none" stroke="#63b8ff" d="M2018.58,-250.15C2007.77,-221.78 1983.92,-171.74 1944.25,-150.7 1759.13,-52.48 1493.61,-153.1 1401,-194.05"/>
<polygon fill="#63b8ff" stroke="#63b8ff" points="2015.23,-251.18 2021.9,-259.41 2021.82,-248.81 2015.23,-251.18"/>
</a>
</g>
</g>
<!-- Node28 -->
<g id="Node000028" class="node">
<title>Node28</title>
<g id="a_Node000028"><a xlink:href="../../dd/d4a/net_2http_8c.html#a62269e1c80908b63a0f3d87a8ab93d32" target="_top" xlink:title=" ">
<polygon fill="white" stroke="#666666" points="1764.75,-367.95 1634.75,-367.95 1634.75,-337.45 1764.75,-337.45 1764.75,-367.95"/>
<text text-anchor="start" x="1642.75" y="-354.45" font-family="Helvetica,sans-Serif" font-size="10.00">http2_conn_close_preface</text>
<text text-anchor="middle" x="1699.75" y="-343.2" font-family="Helvetica,sans-Serif" font-size="10.00">_wait_socket_error</text>
</a>
</g>
</g>
<!-- Node3&#45;&gt;Node28 -->
<g id="edge32_Node000003_Node000028" class="edge">
<title>Node3&#45;&gt;Node28</title>
<g id="a_edge32_Node000003_Node000028"><a xlink:title=" ">
<path fill="none" stroke="#63b8ff" d="M2007.45,-288.25C1992.02,-302.09 1968.52,-320.53 1944.25,-329.7 1886.35,-351.56 1815.45,-355.99 1765.12,-355.74"/>
<polygon fill="#63b8ff" stroke="#63b8ff" points="2009.49,-291.13 2014.44,-281.77 2004.73,-286 2009.49,-291.13"/>
</a>
</g>
</g>
<!-- Node29 -->
<g id="Node000029" class="node">
<title>Node29</title>
<g id="a_Node000029"><a xlink:href="../../dd/d4a/net_2http_8c.html#a0ee8be29774609156f850fb93a91d431" target="_top" xlink:title=" ">
<polygon fill="white" stroke="#666666" points="1764.75,-318.95 1634.75,-318.95 1634.75,-288.45 1764.75,-288.45 1764.75,-318.95"/>
<text text-anchor="start" x="1642.75" y="-305.45" font-family="Helvetica,sans-Serif" font-size="10.00">http2_conn_close_preface</text>
<text text-anchor="middle" x="1699.75" y="-294.2" font-family="Helvetica,sans-Serif" font-size="10.00">_wait_timeout</text>
</a>
</g>
</g>
<!-- Node3&#45;&gt;Node29 -->
<g id="edge34_Node000003_Node000029" class="edge">
<title>Node3&#45;&gt;Node29</title>
<g id="a_edge34_Node000003_Node000029"><a xlink:title=" ">
<path fill="none" stroke="#63b8ff" d="M2001.66,-286.48C1986.05,-295.84 1964.8,-306.8 1944.25,-311.7 1884.69,-325.87 1814.63,-321.46 1764.99,-314.95"/>
<polygon fill="#63b8ff" stroke="#63b8ff" points="2003.12,-289.69 2009.76,-281.44 1999.42,-283.75 2003.12,-289.69"/>
</a>
</g>
</g>
<!-- Node30 -->
<g id="Node000030" class="node">
<title>Node30</title>
<g id="a_Node000030"><a xlink:href="../../dd/d4a/net_2http_8c.html#aad84e62a115edc2cd9fa59501ed5c03d" target="_top" xlink:title=" ">
<polygon fill="white" stroke="#666666" points="1931.88,-264.95 1813.12,-264.95 1813.12,-234.45 1931.88,-234.45 1931.88,-264.95"/>
<text text-anchor="start" x="1821.12" y="-251.45" font-family="Helvetica,sans-Serif" font-size="10.00">http2_conn_close_sock</text>
<text text-anchor="middle" x="1872.5" y="-240.2" font-family="Helvetica,sans-Serif" font-size="10.00">_error</text>
</a>
</g>
</g>
<!-- Node3&#45;&gt;Node30 -->
<g id="edge36_Node000003_Node000030" class="edge">
<title>Node3&#45;&gt;Node30</title>
<g id="a_edge36_Node000003_Node000030"><a xlink:title=" ">
<path fill="none" stroke="#63b8ff" d="M1968.74,-262.85C1956.85,-261.21 1944.28,-259.48 1932.32,-257.82"/>
<polygon fill="#63b8ff" stroke="#63b8ff" points="1968.01,-266.29 1978.4,-264.19 1968.97,-259.35 1968.01,-266.29"/>
</a>
</g>
</g>
<!-- Node31 -->
<g id="Node000031" class="node">
<title>Node31</title>
<g id="a_Node000031"><a xlink:href="../../dd/d4a/net_2http_8c.html#af712f6f5bac4cff32bb16c7a7811e196" target="_top" xlink:title=" ">
<polygon fill="white" stroke="#666666" points="1944.25,-216.32 1800.75,-216.32 1800.75,-197.07 1944.25,-197.07 1944.25,-216.32"/>
<text text-anchor="middle" x="1872.5" y="-202.82" font-family="Helvetica,sans-Serif" font-size="10.00">http2_conn_close_terminated</text>
</a>
</g>
</g>
<!-- Node3&#45;&gt;Node31 -->
<g id="edge38_Node000003_Node000031" class="edge">
<title>Node3&#45;&gt;Node31</title>
<g id="a_edge38_Node000003_Node000031"><a xlink:title=" ">
<path fill="none" stroke="#63b8ff" d="M2000.69,-254.88C1984.99,-245.4 1963.99,-233.68 1944.25,-225.7 1935.76,-222.26 1926.45,-219.26 1917.45,-216.71"/>
<polygon fill="#63b8ff" stroke="#63b8ff" points="1998.54,-257.66 2008.89,-259.93 2002.21,-251.7 1998.54,-257.66"/>
</a>
</g>
</g>
<!-- Node32 -->
<g id="Node000032" class="node">
<title>Node32</title>
<g id="a_Node000032"><a xlink:href="../../dd/d4a/net_2http_8c.html#a3b578ee2ce5e6010b5205685a6c2071d" target="_top" xlink:title=" ">
<polygon fill="white" stroke="#666666" points="1586.75,-108.95 1478.5,-108.95 1478.5,-78.45 1586.75,-78.45 1586.75,-108.95"/>
<text text-anchor="start" x="1486.5" y="-95.45" font-family="Helvetica,sans-Serif" font-size="10.00">http2_conn_close_tls</text>
<text text-anchor="middle" x="1532.62" y="-84.2" font-family="Helvetica,sans-Serif" font-size="10.00">_handshake_error</text>
</a>
</g>
</g>
<!-- Node3&#45;&gt;Node32 -->
<g id="edge40_Node000003_Node000032" class="edge">
<title>Node3&#45;&gt;Node32</title>
<g id="a_edge40_Node000003_Node000032"><a xlink:title=" ">
<path fill="none" stroke="#63b8ff" d="M2021.29,-249.98C2013.13,-215.73 1991.59,-148.07 1944.25,-117.7 1833.96,-46.93 1670.81,-65.28 1587.24,-81.35"/>
<polygon fill="#63b8ff" stroke="#63b8ff" points="2017.82,-250.47 2023.39,-259.48 2024.65,-248.96 2017.82,-250.47"/>
</a>
</g>
</g>
<!-- Node33 -->
<g id="Node000033" class="node">
<title>Node33</title>
<g id="a_Node000033"><a xlink:href="../../dd/d4a/net_2http_8c.html#ac16fb2f971178f827c7f14a15d81e51b" target="_top" xlink:title=" ">
<polygon fill="white" stroke="#666666" points="1430.5,-74.95 1302.75,-74.95 1302.75,-44.45 1430.5,-44.45 1430.5,-74.95"/>
<text text-anchor="start" x="1310.75" y="-61.45" font-family="Helvetica,sans-Serif" font-size="10.00">http2_conn_close_tls</text>
<text text-anchor="middle" x="1366.62" y="-50.2" font-family="Helvetica,sans-Serif" font-size="10.00">_no_peer_certificate_error</text>
</a>
</g>
</g>
<!-- Node3&#45;&gt;Node33 -->
<g id="edge42_Node000003_Node000033" class="edge">
<title>Node3&#45;&gt;Node33</title>
<g id="a_edge42_Node000003_Node000033"><a xlink:title=" ">
<path fill="none" stroke="#63b8ff" d="M2024.36,-249.42C2020.77,-206.28 2005.89,-109.04 1944.25,-66.7 1779.63,46.4 1521.4,-12.52 1415.43,-44.04"/>
<polygon fill="#63b8ff" stroke="#63b8ff" points="2020.86,-249.48 2025.04,-259.22 2027.84,-249 2020.86,-249.48"/>
</a>
</g>
</g>
<!-- Node5 -->
<g id="Node000005" class="node">
<title>Node5</title>
<g id="a_Node000005"><a xlink:href="../../dd/d4a/net_2http_8c.html#a6b9599451053e73b70e0294ff1dd95ca" target="_top" xlink:title=" ">
<polygon fill="white" stroke="#666666" points="1759.12,-259.32 1640.38,-259.32 1640.38,-240.07 1759.12,-240.07 1759.12,-259.32"/>
<text text-anchor="middle" x="1699.75" y="-245.82" font-family="Helvetica,sans-Serif" font-size="10.00">http2_conn_close_done</text>
</a>
</g>
</g>
<!-- Node4&#45;&gt;Node5 -->
<g id="edge4_Node000004_Node000005" class="edge">
<title>Node4&#45;&gt;Node5</title>
<g id="a_edge4_Node000004_Node000005"><a xlink:title=" ">
<path fill="none" stroke="#63b8ff" d="M1812.71,-183.16C1808.62,-184.55 1804.59,-186.06 1800.75,-187.7 1767.48,-201.84 1732.41,-226.07 1713.94,-239.67"/>
<polygon fill="#63b8ff" stroke="#63b8ff" points="1813.7,-186.52 1822.2,-180.19 1811.61,-179.83 1813.7,-186.52"/>
</a>
</g>
</g>
<!-- Node6 -->
<g id="Node000006" class="node">
<title>Node6</title>
<g id="a_Node000006"><a xlink:href="../../dd/d4a/net_2http_8c.html#aeb42434fb02b4136f27d592a7192d382" target="_top" xlink:title=" ">
<polygon fill="white" stroke="#666666" points="1591.25,-270.95 1474,-270.95 1474,-240.45 1591.25,-240.45 1591.25,-270.95"/>
<text text-anchor="start" x="1482" y="-257.45" font-family="Helvetica,sans-Serif" font-size="10.00">http2_conn_process</text>
<text text-anchor="middle" x="1532.62" y="-246.2" font-family="Helvetica,sans-Serif" font-size="10.00">_before_return_ev_loop</text>
</a>
</g>
</g>
<!-- Node5&#45;&gt;Node6 -->
<g id="edge5_Node000005_Node000006" class="edge">
<title>Node5&#45;&gt;Node6</title>
<g id="a_edge5_Node000005_Node000006"><a xlink:title=" ">
<path fill="none" stroke="#63b8ff" d="M1628.81,-252.24C1616.4,-252.69 1603.6,-253.15 1591.56,-253.59"/>
<polygon fill="#63b8ff" stroke="#63b8ff" points="1628.69,-255.74 1638.56,-251.88 1628.44,-248.75 1628.69,-255.74"/>
</a>
</g>
</g>
<!-- Node7 -->
<g id="Node000007" class="node">
<title>Node7</title>
<g id="a_Node000007"><a xlink:href="../../dd/d4a/net_2http_8c.html#a7116239c9f5e15549b2c80081b8cc76d" target="_top" xlink:title=" ">
<polygon fill="white" stroke="#666666" points="1421.12,-273.32 1312.12,-273.32 1312.12,-254.07 1421.12,-254.07 1421.12,-273.32"/>
<text text-anchor="middle" x="1366.62" y="-259.82" font-family="Helvetica,sans-Serif" font-size="10.00">http2_conn_on_event</text>
</a>
</g>
</g>
<!-- Node6&#45;&gt;Node7 -->
<g id="edge6_Node000006_Node000007" class="edge">
<title>Node6&#45;&gt;Node7</title>
<g id="a_edge6_Node000006_Node000007"><a xlink:title=" ">
<path fill="none" stroke="#63b8ff" d="M1462.42,-259.07C1448.7,-259.74 1434.48,-260.43 1421.36,-261.07"/>
<polygon fill="#63b8ff" stroke="#63b8ff" points="1462.48,-262.57 1472.29,-258.59 1462.13,-255.58 1462.48,-262.57"/>
</a>
</g>
</g>
<!-- Node8 -->
<g id="Node000008" class="node">
<title>Node8</title>
<g id="a_Node000008"><a xlink:href="../../dd/d4a/net_2http_8c.html#ad211549032983c94d9f52c4522a906a6" target="_top" xlink:title=" ">
<polygon fill="white" stroke="#666666" points="1266.75,-313.32 1126.25,-313.32 1126.25,-294.07 1266.75,-294.07 1266.75,-313.32"/>
<text text-anchor="middle" x="1196.5" y="-299.82" font-family="Helvetica,sans-Serif" font-size="10.00">http2_conn_on_preface_wait</text>
</a>
</g>
</g>
<!-- Node7&#45;&gt;Node8 -->
<g id="edge7_Node000007_Node000008" class="edge">
<title>Node7&#45;&gt;Node8</title>
<g id="a_edge7_Node000007_Node000008"><a xlink:title=" ">
<path fill="none" stroke="#63b8ff" d="M1312.08,-276.44C1288.76,-281.98 1261.81,-288.4 1239.91,-293.61"/>
<polygon fill="#63b8ff" stroke="#63b8ff" points="1312.81,-279.86 1321.73,-274.14 1311.19,-273.05 1312.81,-279.86"/>
</a>
</g>
</g>
<!-- Node9 -->
<g id="Node000009" class="node">
<title>Node9</title>
<g id="a_Node000009"><a xlink:href="../../dd/d4a/net_2http_8c.html#a3ae7da35c16d0895aea3196afb96e16d" target="_top" xlink:title=" ">
<polygon fill="white" stroke="#666666" points="1090.25,-356.32 970.75,-356.32 970.75,-337.07 1090.25,-337.07 1090.25,-356.32"/>
<text text-anchor="middle" x="1030.5" y="-342.82" font-family="Helvetica,sans-Serif" font-size="10.00">http2_conn_on_connect</text>
</a>
</g>
</g>
<!-- Node8&#45;&gt;Node9 -->
<g id="edge8_Node000008_Node000009" class="edge">
<title>Node8&#45;&gt;Node9</title>
<g id="a_edge8_Node000008_Node000009"><a xlink:title=" ">
<path fill="none" stroke="#63b8ff" d="M1146.2,-316.62C1121.78,-323.02 1092.74,-330.64 1069.99,-336.6"/>
<polygon fill="#63b8ff" stroke="#63b8ff" points="1146.8,-320.08 1155.59,-314.16 1145.02,-313.31 1146.8,-320.08"/>
</a>
</g>
</g>
<!-- Node10 -->
<g id="Node000010" class="node">
<title>Node10</title>
<g id="a_Node000010"><a xlink:href="../../dd/d4a/net_2http_8c.html#a5754e9d15cd8048e27331bb4aaed12b7" target="_top" xlink:title=" ">
<polygon fill="white" stroke="#666666" points="929.5,-383.95 825.75,-383.95 825.75,-353.45 929.5,-353.45 929.5,-383.95"/>
<text text-anchor="start" x="833.75" y="-370.45" font-family="Helvetica,sans-Serif" font-size="10.00">http2_conn_connect</text>
<text text-anchor="middle" x="877.62" y="-359.2" font-family="Helvetica,sans-Serif" font-size="10.00">_client_as</text>
</a>
</g>
</g>
<!-- Node9&#45;&gt;Node10 -->
<g id="edge9_Node000009_Node000010" class="edge">
<title>Node9&#45;&gt;Node10</title>
<g id="a_edge9_Node000009_Node000010"><a xlink:title=" ">
<path fill="none" stroke="#63b8ff" d="M959.21,-356.95C949.3,-358.39 939.28,-359.85 929.83,-361.23"/>
<polygon fill="#63b8ff" stroke="#63b8ff" points="959.42,-360.45 968.81,-355.55 958.41,-353.53 959.42,-360.45"/>
</a>
</g>
</g>
<!-- Node20 -->
<g id="Node000020" class="node">
<title>Node20</title>
<g id="a_Node000020"><a xlink:href="../../dd/d4a/net_2http_8c.html#a3926ffca7cc91de4f1ef8ac35a7420c5" target="_top" xlink:title=" ">
<polygon fill="white" stroke="#666666" points="934.75,-335.32 820.5,-335.32 820.5,-316.07 934.75,-316.07 934.75,-335.32"/>
<text text-anchor="middle" x="877.62" y="-321.82" font-family="Helvetica,sans-Serif" font-size="10.00">httpd_spawn_as_http2</text>
</a>
</g>
</g>
<!-- Node9&#45;&gt;Node20 -->
<g id="edge19_Node000009_Node000020" class="edge">
<title>Node9&#45;&gt;Node20</title>
<g id="a_edge19_Node000009_Node000020"><a xlink:title=" ">
<path fill="none" stroke="#63b8ff" d="M959.07,-336.89C951.06,-335.78 942.98,-334.65 935.18,-333.57"/>
<polygon fill="#63b8ff" stroke="#63b8ff" points="958.42,-340.34 968.8,-338.25 959.38,-333.4 958.42,-340.34"/>
</a>
</g>
</g>
<!-- Node11 -->
<g id="Node000011" class="node">
<title>Node11</title>
<g id="a_Node000011"><a xlink:href="../../dd/d4a/net_2http_8c.html#a7a3e350c92c5b8a0ea73161bbc780926" target="_top" xlink:title=" ">
<polygon fill="white" stroke="#666666" points="784.5,-378.32 676.25,-378.32 676.25,-359.07 784.5,-359.07 784.5,-378.32"/>
<text text-anchor="middle" x="730.38" y="-364.82" font-family="Helvetica,sans-Serif" font-size="10.00">http2_pool_get_client</text>
</a>
</g>
</g>
<!-- Node10&#45;&gt;Node11 -->
<g id="edge10_Node000010_Node000011" class="edge">
<title>Node10&#45;&gt;Node11</title>
<g id="a_edge10_Node000010_Node000011"><a xlink:title=" ">
<path fill="none" stroke="#63b8ff" d="M814.05,-368.7C804.23,-368.7 794.16,-368.7 784.58,-368.7"/>
<polygon fill="#63b8ff" stroke="#63b8ff" points="813.9,-372.2 823.9,-368.7 813.9,-365.2 813.9,-372.2"/>
</a>
</g>
</g>
<!-- Node12 -->
<g id="Node000012" class="node">
<title>Node12</title>
<g id="a_Node000012"><a xlink:href="../../dd/d4a/net_2http_8c.html#ae849932f9841489cefbd4761c2ad561d" target="_top" xlink:title=" ">
<polygon fill="white" stroke="#666666" points="640.25,-378.32 520,-378.32 520,-359.07 640.25,-359.07 640.25,-378.32"/>
<text text-anchor="middle" x="580.12" y="-364.82" font-family="Helvetica,sans-Serif" font-size="10.00">httpc_connect_as_http2</text>
</a>
</g>
</g>
<!-- Node11&#45;&gt;Node12 -->
<g id="edge11_Node000011_Node000012" class="edge">
<title>Node11&#45;&gt;Node12</title>
<g id="a_edge11_Node000011_Node000012"><a xlink:title=" ">
<path fill="none" stroke="#63b8ff" d="M664.4,-368.7C656.48,-368.7 648.43,-368.7 640.6,-368.7"/>
<polygon fill="#63b8ff" stroke="#63b8ff" points="664.34,-372.2 674.34,-368.7 664.34,-365.2 664.34,-372.2"/>
</a>
</g>
</g>
<!-- Node13 -->
<g id="Node000013" class="node">
<title>Node13</title>
<g id="a_Node000013"><a xlink:href="../../dd/d4a/net_2http_8c.html#a30869b3f203c5600c7c6257da47f2a43" target="_top" xlink:title=" ">
<polygon fill="white" stroke="#666666" points="484,-378.32 390.75,-378.32 390.75,-359.07 484,-359.07 484,-378.32"/>
<text text-anchor="middle" x="437.38" y="-364.82" font-family="Helvetica,sans-Serif" font-size="10.00">httpc_connect_as</text>
</a>
</g>
</g>
<!-- Node12&#45;&gt;Node13 -->
<g id="edge12_Node000012_Node000013" class="edge">
<title>Node12&#45;&gt;Node13</title>
<g id="a_edge12_Node000012_Node000013"><a xlink:title=" ">
<path fill="none" stroke="#63b8ff" d="M508.35,-368.7C500.19,-368.7 492.04,-368.7 484.33,-368.7"/>
<polygon fill="#63b8ff" stroke="#63b8ff" points="508.33,-372.2 518.33,-368.7 508.33,-365.2 508.33,-372.2"/>
</a>
</g>
</g>
<!-- Node14 -->
<g id="Node000014" class="node">
<title>Node14</title>
<g id="a_Node000014"><a xlink:href="../../dd/d4a/net_2http_8c.html#a6fe5d8fb56f828b9cb355eaf9bb2efa8" target="_top" xlink:title=" ">
<polygon fill="white" stroke="#666666" points="346.12,-397.32 268.62,-397.32 268.62,-378.07 346.12,-378.07 346.12,-397.32"/>
<text text-anchor="middle" x="307.38" y="-383.82" font-family="Helvetica,sans-Serif" font-size="10.00">httpc_connect</text>
</a>
</g>
</g>
<!-- Node13&#45;&gt;Node14 -->
<g id="edge13_Node000013_Node000014" class="edge">
<title>Node13&#45;&gt;Node14</title>
<g id="a_edge13_Node000013_Node000014"><a xlink:title=" ">
<path fill="none" stroke="#63b8ff" d="M379.46,-377.14C368.24,-378.81 356.72,-380.52 346.32,-382.06"/>
<polygon fill="#63b8ff" stroke="#63b8ff" points="379.65,-380.65 389.03,-375.72 378.62,-373.73 379.65,-380.65"/>
</a>
</g>
</g>
<!-- Node18 -->
<g id="Node000018" class="node">
<title>Node18</title>
<g id="a_Node000018"><a xlink:href="../../dd/d4a/net_2http_8c.html#a08d48d7c0320097b6e50119e49dd1a5d" target="_top" xlink:title=" ">
<polygon fill="white" stroke="#666666" points="354.75,-360.32 260,-360.32 260,-341.07 354.75,-341.07 354.75,-360.32"/>
<text text-anchor="middle" x="307.38" y="-346.82" font-family="Helvetica,sans-Serif" font-size="10.00">httpc_pool_launch</text>
</a>
</g>
</g>
<!-- Node13&#45;&gt;Node18 -->
<g id="edge17_Node000013_Node000018" class="edge">
<title>Node13&#45;&gt;Node18</title>
<g id="a_edge17_Node000013_Node000018"><a xlink:title=" ">
<path fill="none" stroke="#63b8ff" d="M379.29,-360.67C371.23,-359.54 363.03,-358.38 355.2,-357.28"/>
<polygon fill="#63b8ff" stroke="#63b8ff" points="378.64,-364.11 389.03,-362.04 379.61,-357.18 378.64,-364.11"/>
</a>
</g>
</g>
<!-- Node15 -->
<g id="Node000015" class="node">
<title>Node15</title>
<g id="a_Node000015"><a xlink:href="../../dd/d4a/net_2http_8c.html#ae0600e298ca883d66d4ff582e8786e11" target="_top" xlink:title=" ">
<polygon fill="white" stroke="#666666" points="223.25,-397.32 145,-397.32 145,-378.07 223.25,-378.07 223.25,-397.32"/>
<text text-anchor="middle" x="184.12" y="-383.82" font-family="Helvetica,sans-Serif" font-size="10.00">z_query_setup</text>
</a>
</g>
</g>
<!-- Node14&#45;&gt;Node15 -->
<g id="edge14_Node000014_Node000015" class="edge">
<title>Node14&#45;&gt;Node15</title>
<g id="a_edge14_Node000014_Node000015"><a xlink:title=" ">
<path fill="none" stroke="#63b8ff" d="M256.95,-387.7C245.78,-387.7 234.08,-387.7 223.44,-387.7"/>
<polygon fill="#63b8ff" stroke="#63b8ff" points="256.83,-391.2 266.83,-387.7 256.83,-384.2 256.83,-391.2"/>
</a>
</g>
</g>
<!-- Node16 -->
<g id="Node000016" class="node">
<title>Node16</title>
<g id="a_Node000016"><a xlink:href="../../dd/d4a/net_2http_8c.html#ad6f99386fb518c8ba64244857b0240e1" target="_top" xlink:title=" ">
<polygon fill="white" stroke="#666666" points="108.25,-415.32 0,-415.32 0,-396.07 108.25,-396.07 108.25,-415.32"/>
<text text-anchor="middle" x="54.12" y="-401.82" font-family="Helvetica,sans-Serif" font-size="10.00">Z_GROUP_EXPORT</text>
</a>
</g>
</g>
<!-- Node15&#45;&gt;Node16 -->
<g id="edge15_Node000015_Node000016" class="edge">
<title>Node15&#45;&gt;Node16</title>
<g id="a_edge15_Node000015_Node000016"><a xlink:title=" ">
<path fill="none" stroke="#63b8ff" d="M133.49,-394.68C125.35,-395.82 116.88,-397.01 108.65,-398.17"/>
<polygon fill="#63b8ff" stroke="#63b8ff" points="133.81,-398.17 143.22,-393.31 132.83,-391.23 133.81,-398.17"/>
</a>
</g>
</g>
<!-- Node17 -->
<g id="Node000017" class="node">
<title>Node17</title>
<g id="a_Node000017"><a xlink:href="../../dd/d4a/net_2http_8c.html#ad196e07d97f054b7629a5f94093340dd" target="_top" xlink:title=" ">
<polygon fill="white" stroke="#666666" points="108.25,-378.32 0,-378.32 0,-359.07 108.25,-359.07 108.25,-378.32"/>
<text text-anchor="middle" x="54.12" y="-364.82" font-family="Helvetica,sans-Serif" font-size="10.00">Z_GROUP_EXPORT</text>
</a>
</g>
</g>
<!-- Node15&#45;&gt;Node17 -->
<g id="edge16_Node000015_Node000017" class="edge">
<title>Node15&#45;&gt;Node17</title>
<g id="a_edge16_Node000015_Node000017"><a xlink:title=" ">
<path fill="none" stroke="#63b8ff" d="M133.49,-380.33C125.35,-379.12 116.88,-377.86 108.65,-376.64"/>
<polygon fill="#63b8ff" stroke="#63b8ff" points="132.82,-383.77 143.22,-381.77 133.85,-376.84 132.82,-383.77"/>
</a>
</g>
</g>
<!-- Node19 -->
<g id="Node000019" class="node">
<title>Node19</title>
<g id="a_Node000019"><a xlink:href="../../dd/d4a/net_2http_8c.html#a13fe4b4dc9d8e2b66738d7bc50745860" target="_top" xlink:title=" ">
<polygon fill="white" stroke="#666666" points="224,-360.32 144.25,-360.32 144.25,-341.07 224,-341.07 224,-360.32"/>
<text text-anchor="middle" x="184.12" y="-346.82" font-family="Helvetica,sans-Serif" font-size="10.00">httpc_pool_get</text>
</a>
</g>
</g>
<!-- Node18&#45;&gt;Node19 -->
<g id="edge18_Node000018_Node000019" class="edge">
<title>Node18&#45;&gt;Node19</title>
<g id="a_edge18_Node000018_Node000019"><a xlink:title=" ">
<path fill="none" stroke="#63b8ff" d="M248.38,-350.7C240.2,-350.7 231.95,-350.7 224.24,-350.7"/>
<polygon fill="#63b8ff" stroke="#63b8ff" points="248.33,-354.2 258.33,-350.7 248.33,-347.2 248.33,-354.2"/>
</a>
</g>
</g>
<!-- Node21 -->
<g id="Node000021" class="node">
<title>Node21</title>
<g id="a_Node000021"><a xlink:href="../../dd/d4a/net_2http_8c.html#ababf4c72b8aba8aa09b45da6bccfd250" target="_top" xlink:title=" ">
<polygon fill="white" stroke="#666666" points="774.38,-335.32 686.38,-335.32 686.38,-316.07 774.38,-316.07 774.38,-335.32"/>
<text text-anchor="middle" x="730.38" y="-321.82" font-family="Helvetica,sans-Serif" font-size="10.00">httpd_on_accept</text>
</a>
</g>
</g>
<!-- Node20&#45;&gt;Node21 -->
<g id="edge20_Node000020_Node000021" class="edge">
<title>Node20&#45;&gt;Node21</title>
<g id="a_edge20_Node000020_Node000021"><a xlink:title=" ">
<path fill="none" stroke="#63b8ff" d="M808.56,-325.7C796.97,-325.7 785.23,-325.7 774.52,-325.7"/>
<polygon fill="#63b8ff" stroke="#63b8ff" points="808.54,-329.2 818.54,-325.7 808.54,-322.2 808.54,-329.2"/>
</a>
</g>
</g>
<!-- Node22 -->
<g id="Node000022" class="node">
<title>Node22</title>
<g id="a_Node000022"><a xlink:href="../../dd/d4a/net_2http_8c.html#a4bb48b79e806519f505be1648ff296fd" target="_top" xlink:title=" ">
<polygon fill="white" stroke="#666666" points="613.25,-335.32 547,-335.32 547,-316.07 613.25,-316.07 613.25,-335.32"/>
<text text-anchor="middle" x="580.12" y="-321.82" font-family="Helvetica,sans-Serif" font-size="10.00">httpd_listen</text>
</a>
</g>
</g>
<!-- Node21&#45;&gt;Node22 -->
<g id="edge21_Node000021_Node000022" class="edge">
<title>Node21&#45;&gt;Node22</title>
<g id="a_edge21_Node000021_Node000022"><a xlink:title=" ">
<path fill="none" stroke="#63b8ff" d="M674.6,-325.7C654,-325.7 631.27,-325.7 613.37,-325.7"/>
<polygon fill="#63b8ff" stroke="#63b8ff" points="674.58,-329.2 684.58,-325.7 674.58,-322.2 674.58,-329.2"/>
</a>
</g>
</g>
<!-- Node23&#45;&gt;Node5 -->
<g id="edge23_Node000023_Node000005" class="edge">
<title>Node23&#45;&gt;Node5</title>
<g id="a_edge23_Node000023_Node000005"><a xlink:title=" ">
<path fill="none" stroke="#63b8ff" d="M1820.51,-279.86C1795.02,-273.44 1764.62,-265.78 1740.83,-259.79"/>
<polygon fill="#63b8ff" stroke="#63b8ff" points="1819.45,-283.2 1830,-282.24 1821.16,-276.41 1819.45,-283.2"/>
</a>
</g>
</g>
<!-- Node24&#45;&gt;Node9 -->
<g id="edge25_Node000024_Node000009" class="edge">
<title>Node24&#45;&gt;Node9</title>
<g id="a_edge25_Node000024_Node000009"><a xlink:title=" ">
<path fill="none" stroke="#63b8ff" d="M1454.6,-500.47C1369.32,-510.78 1230.18,-515.98 1126.25,-462.7 1079.51,-438.73 1047.54,-380.36 1036.13,-356.8"/>
<polygon fill="#63b8ff" stroke="#63b8ff" points="1455.03,-503.94 1464.51,-499.21 1454.15,-497 1455.03,-503.94"/>
</a>
</g>
</g>
<!-- Node25&#45;&gt;Node9 -->
<g id="edge27_Node000025_Node000009" class="edge">
<title>Node25&#45;&gt;Node9</title>
<g id="a_edge27_Node000025_Node000009"><a xlink:title=" ">
<path fill="none" stroke="#63b8ff" d="M1156.75,-417.58C1146.8,-412.11 1136.11,-406.21 1126.25,-400.7 1099.15,-385.54 1067.89,-367.64 1048.92,-356.73"/>
<polygon fill="#63b8ff" stroke="#63b8ff" points="1155.03,-420.62 1165.48,-422.36 1158.39,-414.48 1155.03,-420.62"/>
</a>
</g>
</g>
<!-- Node26&#45;&gt;Node9 -->
<g id="edge29_Node000026_Node000009" class="edge">
<title>Node26&#45;&gt;Node9</title>
<g id="a_edge29_Node000026_Node000009"><a xlink:title=" ">
<path fill="none" stroke="#63b8ff" d="M1629.59,-396C1497.95,-385.14 1213.55,-361.7 1090.37,-351.55"/>
<polygon fill="#63b8ff" stroke="#63b8ff" points="1628.94,-399.45 1639.19,-396.79 1629.52,-392.48 1628.94,-399.45"/>
</a>
</g>
</g>
<!-- Node27&#45;&gt;Node8 -->
<g id="edge31_Node000027_Node000008" class="edge">
<title>Node27&#45;&gt;Node8</title>
<g id="a_edge31_Node000027_Node000008"><a xlink:title=" ">
<path fill="none" stroke="#63b8ff" d="M1327.42,-230.94C1319.27,-235.47 1310.73,-240.24 1302.75,-244.7 1272.03,-261.86 1236.3,-281.9 1215.37,-293.66"/>
<polygon fill="#63b8ff" stroke="#63b8ff" points="1329.09,-234.02 1336.12,-226.09 1325.68,-227.9 1329.09,-234.02"/>
</a>
</g>
</g>
<!-- Node28&#45;&gt;Node8 -->
<g id="edge33_Node000028_Node000008" class="edge">
<title>Node28&#45;&gt;Node8</title>
<g id="a_edge33_Node000028_Node000008"><a xlink:title=" ">
<path fill="none" stroke="#63b8ff" d="M1623.13,-347.01C1543.37,-340.78 1414.07,-330.01 1302.75,-317.7 1291.21,-316.42 1278.97,-314.92 1267.08,-313.39"/>
<polygon fill="#63b8ff" stroke="#63b8ff" points="1622.78,-350.49 1633.03,-347.78 1623.33,-343.51 1622.78,-350.49"/>
</a>
</g>
</g>
<!-- Node29&#45;&gt;Node8 -->
<g id="edge35_Node000029_Node000008" class="edge">
<title>Node29&#45;&gt;Node8</title>
<g id="a_edge35_Node000029_Node000008"><a xlink:title=" ">
<path fill="none" stroke="#63b8ff" d="M1623.07,-303.7C1526.46,-303.7 1360.64,-303.7 1267.06,-303.7"/>
<polygon fill="#63b8ff" stroke="#63b8ff" points="1622.99,-307.2 1632.99,-303.7 1622.99,-300.2 1622.99,-307.2"/>
</a>
</g>
</g>
<!-- Node30&#45;&gt;Node5 -->
<g id="edge37_Node000030_Node000005" class="edge">
<title>Node30&#45;&gt;Node5</title>
<g id="a_edge37_Node000030_Node000005"><a xlink:title=" ">
<path fill="none" stroke="#63b8ff" d="M1801.27,-249.7C1787.43,-249.7 1773.04,-249.7 1759.62,-249.7"/>
<polygon fill="#63b8ff" stroke="#63b8ff" points="1801.22,-253.2 1811.22,-249.7 1801.22,-246.2 1801.22,-253.2"/>
</a>
</g>
</g>
<!-- Node31&#45;&gt;Node5 -->
<g id="edge39_Node000031_Node000005" class="edge">
<title>Node31&#45;&gt;Node5</title>
<g id="a_edge39_Node000031_Node000005"><a xlink:title=" ">
<path fill="none" stroke="#63b8ff" d="M1820.51,-219.54C1795.02,-225.96 1764.62,-233.61 1740.83,-239.6"/>
<polygon fill="#63b8ff" stroke="#63b8ff" points="1821.16,-222.98 1830,-217.15 1819.45,-216.2 1821.16,-222.98"/>
</a>
</g>
</g>
<!-- Node32&#45;&gt;Node9 -->
<g id="edge41_Node000032_Node000009" class="edge">
<title>Node32&#45;&gt;Node9</title>
<g id="a_edge41_Node000032_Node000009"><a xlink:title=" ">
<path fill="none" stroke="#63b8ff" d="M1477.34,-113.26C1430.42,-130.69 1361.16,-157.72 1302.75,-185.7 1221.63,-224.55 1203.15,-238.05 1126.25,-284.7 1097.34,-302.23 1064.51,-324.19 1046.07,-336.72"/>
<polygon fill="#63b8ff" stroke="#63b8ff" points="1478.29,-116.63 1486.46,-109.88 1475.87,-110.07 1478.29,-116.63"/>
</a>
</g>
</g>
<!-- Node33&#45;&gt;Node9 -->
<g id="edge43_Node000033_Node000009" class="edge">
<title>Node33&#45;&gt;Node9</title>
<g id="a_edge43_Node000033_Node000009"><a xlink:title=" ">
<path fill="none" stroke="#63b8ff" d="M1291.25,-65.79C1239.52,-73.58 1171.91,-91.33 1126.25,-131.7 1060.24,-190.05 1038.17,-302.99 1032.88,-336.86"/>
<polygon fill="#63b8ff" stroke="#63b8ff" points="1291.45,-69.29 1300.87,-64.44 1290.48,-62.36 1291.45,-69.29"/>
</a>
</g>
</g>
</g>
</svg>
