<?xml version="1.0" encoding="UTF-8" standalone="no"?>
<!DOCTYPE svg PUBLIC "-//W3C//DTD SVG 1.1//EN"
 "http://www.w3.org/Graphics/SVG/1.1/DTD/svg11.dtd">
<!-- Generated by graphviz version 9.0.0 (20230911.1827)
 -->
<!-- Title: http_zlib_inflate Pages: 1 -->
<svg width="2928pt" height="187pt"
 viewBox="0.00 0.00 2927.50 187.25" xmlns="http://www.w3.org/2000/svg" xmlns:xlink="http://www.w3.org/1999/xlink">
<g id="graph0" class="graph" transform="scale(1 1) rotate(0) translate(4 183.25)">
<title>http_zlib_inflate</title>
<!-- Node1 -->
<g id="Node000001" class="node">
<title>Node1</title>
<g id="a_Node000001"><a xlink:title=" ">
<polygon fill="#999999" stroke="#666666" points="2919.5,-74.25 2836.75,-74.25 2836.75,-55 2919.5,-55 2919.5,-74.25"/>
<text text-anchor="middle" x="2878.12" y="-60.75" font-family="Helvetica,sans-Serif" font-size="10.00">http_zlib_inflate</text>
</a>
</g>
</g>
<!-- Node2 -->
<g id="Node000002" class="node">
<title>Node2</title>
<g id="a_Node000002"><a xlink:href="../../dd/d4a/net_2http_8c.html#a46d0933e89f126a944ada867d1d325c5" target="_top" xlink:title=" ">
<polygon fill="white" stroke="#666666" points="2800.75,-93.25 2713.5,-93.25 2713.5,-74 2800.75,-74 2800.75,-93.25"/>
<text text-anchor="middle" x="2757.12" y="-79.75" font-family="Helvetica,sans-Serif" font-size="10.00">httpc_flush_data</text>
</a>
</g>
</g>
<!-- Node1&#45;&gt;Node2 -->
<g id="edge1_Node000001_Node000002" class="edge">
<title>Node1&#45;&gt;Node2</title>
<g id="a_edge1_Node000001_Node000002"><a xlink:title=" ">
<path fill="none" stroke="#63b8ff" d="M2825.25,-72.91C2817.15,-74.2 2808.87,-75.52 2801,-76.78"/>
<polygon fill="#63b8ff" stroke="#63b8ff" points="2825.69,-76.38 2835.01,-71.35 2824.58,-69.47 2825.69,-76.38"/>
</a>
</g>
</g>
<!-- Node35 -->
<g id="Node000035" class="node">
<title>Node35</title>
<g id="a_Node000035"><a xlink:href="../../dd/d4a/net_2http_8c.html#a91269c83f3cc243cce81d5bf270cdb2f" target="_top" xlink:title=" ">
<polygon fill="white" stroke="#666666" points="2800.75,-56.25 2713.5,-56.25 2713.5,-37 2800.75,-37 2800.75,-56.25"/>
<text text-anchor="middle" x="2757.12" y="-42.75" font-family="Helvetica,sans-Serif" font-size="10.00">httpd_flush_data</text>
</a>
</g>
</g>
<!-- Node1&#45;&gt;Node35 -->
<g id="edge39_Node000001_Node000035" class="edge">
<title>Node1&#45;&gt;Node35</title>
<g id="a_edge39_Node000001_Node000035"><a xlink:title=" ">
<path fill="none" stroke="#63b8ff" d="M2825.25,-56.78C2817.15,-55.55 2808.87,-54.3 2801,-53.11"/>
<polygon fill="#63b8ff" stroke="#63b8ff" points="2824.6,-60.22 2835.01,-58.25 2825.64,-53.3 2824.6,-60.22"/>
</a>
</g>
</g>
<!-- Node3 -->
<g id="Node000003" class="node">
<title>Node3</title>
<g id="a_Node000003"><a xlink:href="../../dd/d4a/net_2http_8c.html#a41234bb9553b7bf0070e3310ae849596" target="_top" xlink:title=" ">
<polygon fill="white" stroke="#666666" points="2674.5,-130.25 2582,-130.25 2582,-111 2674.5,-111 2674.5,-130.25"/>
<text text-anchor="middle" x="2628.25" y="-116.75" font-family="Helvetica,sans-Serif" font-size="10.00">httpc_parse_body</text>
</a>
</g>
</g>
<!-- Node2&#45;&gt;Node3 -->
<g id="edge2_Node000002_Node000003" class="edge">
<title>Node2&#45;&gt;Node3</title>
<g id="a_edge2_Node000002_Node000003"><a xlink:title=" ">
<path fill="none" stroke="#63b8ff" d="M2710.58,-96.91C2695.19,-101.39 2678.28,-106.33 2663.88,-110.53"/>
<polygon fill="#63b8ff" stroke="#63b8ff" points="2711.38,-100.32 2720,-94.16 2709.42,-93.6 2711.38,-100.32"/>
</a>
</g>
</g>
<!-- Node34 -->
<g id="Node000034" class="node">
<title>Node34</title>
<g id="a_Node000034"><a xlink:href="../../dd/d4a/net_2http_8c.html#a6bb93ac79aedbce30729506b1b10d0b9" target="_top" xlink:title=" ">
<polygon fill="white" stroke="#666666" points="2677.5,-93.25 2579,-93.25 2579,-74 2677.5,-74 2677.5,-93.25"/>
<text text-anchor="middle" x="2628.25" y="-79.75" font-family="Helvetica,sans-Serif" font-size="10.00">httpc_parse_chunk</text>
</a>
</g>
</g>
<!-- Node2&#45;&gt;Node34 -->
<g id="edge38_Node000002_Node000034" class="edge">
<title>Node2&#45;&gt;Node34</title>
<g id="a_edge38_Node000002_Node000034"><a xlink:title=" ">
<path fill="none" stroke="#63b8ff" d="M2701.73,-83.62C2693.79,-83.62 2685.65,-83.62 2677.84,-83.62"/>
<polygon fill="#63b8ff" stroke="#63b8ff" points="2701.66,-87.13 2711.66,-83.63 2701.66,-80.13 2701.66,-87.13"/>
</a>
</g>
</g>
<!-- Node4 -->
<g id="Node000004" class="node">
<title>Node4</title>
<g id="a_Node000004"><a xlink:href="../../dd/d4a/net_2http_8c.html#a8d1188abc1400cecd65975025b4f4a3a" target="_top" xlink:title=" ">
<polygon fill="white" stroke="#666666" points="2535.12,-98.88 2422.38,-98.88 2422.38,-68.38 2535.12,-68.38 2535.12,-98.88"/>
<text text-anchor="start" x="2430.38" y="-85.38" font-family="Helvetica,sans-Serif" font-size="10.00">http2_stream_on_data</text>
<text text-anchor="middle" x="2478.75" y="-74.12" font-family="Helvetica,sans-Serif" font-size="10.00">_client</text>
</a>
</g>
</g>
<!-- Node3&#45;&gt;Node4 -->
<g id="edge3_Node000003_Node000004" class="edge">
<title>Node3&#45;&gt;Node4</title>
<g id="a_edge3_Node000003_Node000004"><a xlink:title=" ">
<path fill="none" stroke="#63b8ff" d="M2575.8,-107.72C2562.77,-104.45 2548.72,-100.93 2535.49,-97.61"/>
<polygon fill="#63b8ff" stroke="#63b8ff" points="2574.93,-111.11 2585.48,-110.15 2576.63,-104.32 2574.93,-111.11"/>
</a>
</g>
</g>
<!-- Node27 -->
<g id="Node000027" class="node">
<title>Node27</title>
<g id="a_Node000027"><a xlink:href="../../dd/d4a/net_2http_8c.html#a4b0cd17e72b3772406ff30057308ec3a" target="_top" xlink:title=" ">
<polygon fill="white" stroke="#666666" points="2543,-147.88 2414.5,-147.88 2414.5,-117.38 2543,-117.38 2543,-147.88"/>
<text text-anchor="start" x="2422.5" y="-134.38" font-family="Helvetica,sans-Serif" font-size="10.00">http2_stream_on_headers</text>
<text text-anchor="middle" x="2478.75" y="-123.12" font-family="Helvetica,sans-Serif" font-size="10.00">_client</text>
</a>
</g>
</g>
<!-- Node3&#45;&gt;Node27 -->
<g id="edge28_Node000003_Node000027" class="edge">
<title>Node3&#45;&gt;Node27</title>
<g id="a_edge28_Node000003_Node000027"><a xlink:title=" ">
<path fill="none" stroke="#63b8ff" d="M2570.44,-125.25C2561.62,-125.96 2552.46,-126.71 2543.5,-127.44"/>
<polygon fill="#63b8ff" stroke="#63b8ff" points="2570.6,-128.75 2580.28,-124.45 2570.03,-121.77 2570.6,-128.75"/>
</a>
</g>
</g>
<!-- Node5 -->
<g id="Node000005" class="node">
<title>Node5</title>
<g id="a_Node000005"><a xlink:href="../../dd/d4a/net_2http_8c.html#a8618f1fda2b0675ce5c781043bf8bdf4" target="_top" xlink:title=" ">
<polygon fill="white" stroke="#666666" points="2370.62,-56.25 2257.88,-56.25 2257.88,-37 2370.62,-37 2370.62,-56.25"/>
<text text-anchor="middle" x="2314.25" y="-42.75" font-family="Helvetica,sans-Serif" font-size="10.00">http2_stream_on_data</text>
</a>
</g>
</g>
<!-- Node4&#45;&gt;Node5 -->
<g id="edge4_Node000004_Node000005" class="edge">
<title>Node4&#45;&gt;Node5</title>
<g id="a_edge4_Node000004_Node000005"><a xlink:title=" ">
<path fill="none" stroke="#63b8ff" d="M2411.52,-68.55C2394,-64.55 2375.5,-60.34 2359.46,-56.69"/>
<polygon fill="#63b8ff" stroke="#63b8ff" points="2410.28,-71.85 2420.81,-70.66 2411.83,-65.03 2410.28,-71.85"/>
</a>
</g>
</g>
<!-- Node6 -->
<g id="Node000006" class="node">
<title>Node6</title>
<g id="a_Node000006"><a xlink:href="../../dd/d4a/net_2http_8c.html#afe6b03d9f45ffe601f5839b466d5a337" target="_top" xlink:title=" ">
<polygon fill="white" stroke="#666666" points="2214,-56.25 2077.25,-56.25 2077.25,-37 2214,-37 2214,-56.25"/>
<text text-anchor="middle" x="2145.62" y="-42.75" font-family="Helvetica,sans-Serif" font-size="10.00">http2_stream_do_recv_data</text>
</a>
</g>
</g>
<!-- Node5&#45;&gt;Node6 -->
<g id="edge5_Node000005_Node000006" class="edge">
<title>Node5&#45;&gt;Node6</title>
<g id="a_edge5_Node000005_Node000006"><a xlink:title=" ">
<path fill="none" stroke="#63b8ff" d="M2246.46,-46.62C2235.88,-46.62 2224.93,-46.62 2214.32,-46.62"/>
<polygon fill="#63b8ff" stroke="#63b8ff" points="2246.25,-50.13 2256.25,-46.63 2246.25,-43.13 2246.25,-50.13"/>
</a>
</g>
</g>
<!-- Node7 -->
<g id="Node000007" class="node">
<title>Node7</title>
<g id="a_Node000007"><a xlink:href="../../dd/d4a/net_2http_8c.html#a47dc85cf9d2fc00549967d2583a79992" target="_top" xlink:title=" ">
<polygon fill="white" stroke="#666666" points="2041.25,-56.25 1924,-56.25 1924,-37 2041.25,-37 2041.25,-56.25"/>
<text text-anchor="middle" x="1982.62" y="-42.75" font-family="Helvetica,sans-Serif" font-size="10.00">http2_conn_parse_data</text>
</a>
</g>
</g>
<!-- Node6&#45;&gt;Node7 -->
<g id="edge6_Node000006_Node000007" class="edge">
<title>Node6&#45;&gt;Node7</title>
<g id="a_edge6_Node000006_Node000007"><a xlink:title=" ">
<path fill="none" stroke="#63b8ff" d="M2065.5,-46.62C2057.47,-46.62 2049.42,-46.62 2041.67,-46.62"/>
<polygon fill="#63b8ff" stroke="#63b8ff" points="2065.3,-50.13 2075.3,-46.63 2065.3,-43.13 2065.3,-50.13"/>
</a>
</g>
</g>
<!-- Node8 -->
<g id="Node000008" class="node">
<title>Node8</title>
<g id="a_Node000008"><a xlink:href="../../dd/d4a/net_2http_8c.html#addba8a3224c0f2a994e3eb238c43ef0b" target="_top" xlink:title=" ">
<polygon fill="white" stroke="#666666" points="1719,-118.25 1587.5,-118.25 1587.5,-99 1719,-99 1719,-118.25"/>
<text text-anchor="middle" x="1653.25" y="-104.75" font-family="Helvetica,sans-Serif" font-size="10.00">http2_conn_parse_payload</text>
</a>
</g>
</g>
<!-- Node7&#45;&gt;Node8 -->
<g id="edge7_Node000007_Node000008" class="edge">
<title>Node7&#45;&gt;Node8</title>
<g id="a_edge7_Node000007_Node000008"><a xlink:title=" ">
<path fill="none" stroke="#63b8ff" d="M1912.03,-46.74C1866.72,-48.21 1806.64,-52.8 1755,-65.62 1724.92,-73.1 1692.3,-88.49 1672.57,-98.68"/>
<polygon fill="#63b8ff" stroke="#63b8ff" points="1912.11,-50.24 1922.01,-46.47 1911.91,-43.24 1912.11,-50.24"/>
</a>
</g>
</g>
<!-- Node9 -->
<g id="Node000009" class="node">
<title>Node9</title>
<g id="a_Node000009"><a xlink:href="../../dd/d4a/net_2http_8c.html#aa90fc77fe3e9885a90fa3b0a5d066fda" target="_top" xlink:title=" ">
<polygon fill="white" stroke="#666666" points="1551.5,-144.88 1447.75,-144.88 1447.75,-114.38 1551.5,-114.38 1551.5,-144.88"/>
<text text-anchor="start" x="1455.75" y="-131.38" font-family="Helvetica,sans-Serif" font-size="10.00">http2_conn_process</text>
<text text-anchor="middle" x="1499.62" y="-120.12" font-family="Helvetica,sans-Serif" font-size="10.00">_input_buffer</text>
</a>
</g>
</g>
<!-- Node8&#45;&gt;Node9 -->
<g id="edge8_Node000008_Node000009" class="edge">
<title>Node8&#45;&gt;Node9</title>
<g id="a_edge8_Node000008_Node000009"><a xlink:title=" ">
<path fill="none" stroke="#63b8ff" d="M1575.86,-119.2C1567.62,-120.35 1559.39,-121.49 1551.56,-122.57"/>
<polygon fill="#63b8ff" stroke="#63b8ff" points="1576.14,-122.7 1585.57,-117.86 1575.18,-115.77 1576.14,-122.7"/>
</a>
</g>
</g>
<!-- Node10 -->
<g id="Node000010" class="node">
<title>Node10</title>
<g id="a_Node000010"><a xlink:href="../../dd/d4a/net_2http_8c.html#a7116239c9f5e15549b2c80081b8cc76d" target="_top" xlink:title=" ">
<polygon fill="white" stroke="#666666" points="1411.75,-177.25 1302.75,-177.25 1302.75,-158 1411.75,-158 1411.75,-177.25"/>
<text text-anchor="middle" x="1357.25" y="-163.75" font-family="Helvetica,sans-Serif" font-size="10.00">http2_conn_on_event</text>
</a>
</g>
</g>
<!-- Node9&#45;&gt;Node10 -->
<g id="edge9_Node000009_Node000010" class="edge">
<title>Node9&#45;&gt;Node10</title>
<g id="a_edge9_Node000009_Node000010"><a xlink:title=" ">
<path fill="none" stroke="#63b8ff" d="M1436.46,-146.45C1422.46,-150.24 1408.02,-154.15 1395.43,-157.56"/>
<polygon fill="#63b8ff" stroke="#63b8ff" points="1437.35,-149.84 1446.09,-143.85 1435.52,-143.08 1437.35,-149.84"/>
</a>
</g>
</g>
<!-- Node11 -->
<g id="Node000011" class="node">
<title>Node11</title>
<g id="a_Node000011"><a xlink:href="../../dd/d4a/net_2http_8c.html#ad211549032983c94d9f52c4522a906a6" target="_top" xlink:title=" ">
<polygon fill="white" stroke="#666666" points="1266.75,-139.25 1126.25,-139.25 1126.25,-120 1266.75,-120 1266.75,-139.25"/>
<text text-anchor="middle" x="1196.5" y="-125.75" font-family="Helvetica,sans-Serif" font-size="10.00">http2_conn_on_preface_wait</text>
</a>
</g>
</g>
<!-- Node9&#45;&gt;Node11 -->
<g id="edge25_Node000009_Node000011" class="edge">
<title>Node9&#45;&gt;Node11</title>
<g id="a_edge25_Node000009_Node000011"><a xlink:title=" ">
<path fill="none" stroke="#63b8ff" d="M1436.09,-129.62C1386.84,-129.62 1318.23,-129.62 1267.22,-129.62"/>
<polygon fill="#63b8ff" stroke="#63b8ff" points="1436.03,-133.13 1446.03,-129.63 1436.03,-126.13 1436.03,-133.13"/>
</a>
</g>
</g>
<!-- Node26 -->
<g id="Node000026" class="node">
<title>Node26</title>
<g id="a_Node000026"><a xlink:href="../../dd/d4a/net_2http_8c.html#a84f0d249dafc919190634bd941b2bf6c" target="_top" xlink:title=" ">
<polygon fill="white" stroke="#666666" points="1260.38,-102.25 1132.62,-102.25 1132.62,-83 1260.38,-83 1260.38,-102.25"/>
<text text-anchor="middle" x="1196.5" y="-88.75" font-family="Helvetica,sans-Serif" font-size="10.00">http2_conn_pack_preface</text>
</a>
</g>
</g>
<!-- Node9&#45;&gt;Node26 -->
<g id="edge26_Node000009_Node000026" class="edge">
<title>Node9&#45;&gt;Node26</title>
<g id="a_edge26_Node000009_Node000026"><a xlink:title=" ">
<path fill="none" stroke="#63b8ff" d="M1436.26,-121.96C1384.84,-115.64 1312.23,-106.72 1260.61,-100.38"/>
<polygon fill="#63b8ff" stroke="#63b8ff" points="1435.69,-125.42 1446.04,-123.16 1436.54,-118.47 1435.69,-125.42"/>
</a>
</g>
</g>
<!-- Node10&#45;&gt;Node11 -->
<g id="edge10_Node000010_Node000011" class="edge">
<title>Node10&#45;&gt;Node11</title>
<g id="a_edge10_Node000010_Node000011"><a xlink:title=" ">
<path fill="none" stroke="#63b8ff" d="M1302.96,-154.87C1282.3,-149.92 1258.99,-144.34 1239.55,-139.69"/>
<polygon fill="#63b8ff" stroke="#63b8ff" points="1302.11,-158.26 1312.65,-157.19 1303.74,-151.46 1302.11,-158.26"/>
</a>
</g>
</g>
<!-- Node12 -->
<g id="Node000012" class="node">
<title>Node12</title>
<g id="a_Node000012"><a xlink:href="../../dd/d4a/net_2http_8c.html#a3ae7da35c16d0895aea3196afb96e16d" target="_top" xlink:title=" ">
<polygon fill="white" stroke="#666666" points="1090.25,-120.25 970.75,-120.25 970.75,-101 1090.25,-101 1090.25,-120.25"/>
<text text-anchor="middle" x="1030.5" y="-106.75" font-family="Helvetica,sans-Serif" font-size="10.00">http2_conn_on_connect</text>
</a>
</g>
</g>
<!-- Node11&#45;&gt;Node12 -->
<g id="edge11_Node000011_Node000012" class="edge">
<title>Node11&#45;&gt;Node12</title>
<g id="a_edge11_Node000011_Node000012"><a xlink:title=" ">
<path fill="none" stroke="#63b8ff" d="M1114.55,-120.25C1106.46,-119.31 1098.35,-118.37 1090.54,-117.47"/>
<polygon fill="#63b8ff" stroke="#63b8ff" points="1114.11,-123.72 1124.45,-121.39 1114.92,-116.77 1114.11,-123.72"/>
</a>
</g>
</g>
<!-- Node13 -->
<g id="Node000013" class="node">
<title>Node13</title>
<g id="a_Node000013"><a xlink:href="../../dd/d4a/net_2http_8c.html#a5754e9d15cd8048e27331bb4aaed12b7" target="_top" xlink:title=" ">
<polygon fill="white" stroke="#666666" points="929.5,-147.88 825.75,-147.88 825.75,-117.38 929.5,-117.38 929.5,-147.88"/>
<text text-anchor="start" x="833.75" y="-134.38" font-family="Helvetica,sans-Serif" font-size="10.00">http2_conn_connect</text>
<text text-anchor="middle" x="877.62" y="-123.12" font-family="Helvetica,sans-Serif" font-size="10.00">_client_as</text>
</a>
</g>
</g>
<!-- Node12&#45;&gt;Node13 -->
<g id="edge12_Node000012_Node000013" class="edge">
<title>Node12&#45;&gt;Node13</title>
<g id="a_edge12_Node000012_Node000013"><a xlink:title=" ">
<path fill="none" stroke="#63b8ff" d="M959.21,-120.87C949.3,-122.32 939.28,-123.78 929.83,-125.16"/>
<polygon fill="#63b8ff" stroke="#63b8ff" points="959.42,-124.38 968.81,-119.48 958.41,-117.45 959.42,-124.38"/>
</a>
</g>
</g>
<!-- Node23 -->
<g id="Node000023" class="node">
<title>Node23</title>
<g id="a_Node000023"><a xlink:href="../../dd/d4a/net_2http_8c.html#a3926ffca7cc91de4f1ef8ac35a7420c5" target="_top" xlink:title=" ">
<polygon fill="white" stroke="#666666" points="934.75,-99.25 820.5,-99.25 820.5,-80 934.75,-80 934.75,-99.25"/>
<text text-anchor="middle" x="877.62" y="-85.75" font-family="Helvetica,sans-Serif" font-size="10.00">httpd_spawn_as_http2</text>
</a>
</g>
</g>
<!-- Node12&#45;&gt;Node23 -->
<g id="edge22_Node000012_Node000023" class="edge">
<title>Node12&#45;&gt;Node23</title>
<g id="a_edge22_Node000012_Node000023"><a xlink:title=" ">
<path fill="none" stroke="#63b8ff" d="M959.07,-100.82C951.06,-99.71 942.98,-98.58 935.18,-97.5"/>
<polygon fill="#63b8ff" stroke="#63b8ff" points="958.42,-104.26 968.8,-102.18 959.38,-97.33 958.42,-104.26"/>
</a>
</g>
</g>
<!-- Node14 -->
<g id="Node000014" class="node">
<title>Node14</title>
<g id="a_Node000014"><a xlink:href="../../dd/d4a/net_2http_8c.html#a7a3e350c92c5b8a0ea73161bbc780926" target="_top" xlink:title=" ">
<polygon fill="white" stroke="#666666" points="784.5,-142.25 676.25,-142.25 676.25,-123 784.5,-123 784.5,-142.25"/>
<text text-anchor="middle" x="730.38" y="-128.75" font-family="Helvetica,sans-Serif" font-size="10.00">http2_pool_get_client</text>
</a>
</g>
</g>
<!-- Node13&#45;&gt;Node14 -->
<g id="edge13_Node000013_Node000014" class="edge">
<title>Node13&#45;&gt;Node14</title>
<g id="a_edge13_Node000013_Node000014"><a xlink:title=" ">
<path fill="none" stroke="#63b8ff" d="M814.05,-132.62C804.23,-132.62 794.16,-132.62 784.58,-132.62"/>
<polygon fill="#63b8ff" stroke="#63b8ff" points="813.9,-136.13 823.9,-132.63 813.9,-129.13 813.9,-136.13"/>
</a>
</g>
</g>
<!-- Node15 -->
<g id="Node000015" class="node">
<title>Node15</title>
<g id="a_Node000015"><a xlink:href="../../dd/d4a/net_2http_8c.html#ae849932f9841489cefbd4761c2ad561d" target="_top" xlink:title=" ">
<polygon fill="white" stroke="#666666" points="640.25,-142.25 520,-142.25 520,-123 640.25,-123 640.25,-142.25"/>
<text text-anchor="middle" x="580.12" y="-128.75" font-family="Helvetica,sans-Serif" font-size="10.00">httpc_connect_as_http2</text>
</a>
</g>
</g>
<!-- Node14&#45;&gt;Node15 -->
<g id="edge14_Node000014_Node000015" class="edge">
<title>Node14&#45;&gt;Node15</title>
<g id="a_edge14_Node000014_Node000015"><a xlink:title=" ">
<path fill="none" stroke="#63b8ff" d="M664.4,-132.62C656.48,-132.62 648.43,-132.62 640.6,-132.62"/>
<polygon fill="#63b8ff" stroke="#63b8ff" points="664.34,-136.13 674.34,-132.63 664.34,-129.13 664.34,-136.13"/>
</a>
</g>
</g>
<!-- Node16 -->
<g id="Node000016" class="node">
<title>Node16</title>
<g id="a_Node000016"><a xlink:href="../../dd/d4a/net_2http_8c.html#a30869b3f203c5600c7c6257da47f2a43" target="_top" xlink:title=" ">
<polygon fill="white" stroke="#666666" points="484,-142.25 390.75,-142.25 390.75,-123 484,-123 484,-142.25"/>
<text text-anchor="middle" x="437.38" y="-128.75" font-family="Helvetica,sans-Serif" font-size="10.00">httpc_connect_as</text>
</a>
</g>
</g>
<!-- Node15&#45;&gt;Node16 -->
<g id="edge15_Node000015_Node000016" class="edge">
<title>Node15&#45;&gt;Node16</title>
<g id="a_edge15_Node000015_Node000016"><a xlink:title=" ">
<path fill="none" stroke="#63b8ff" d="M508.35,-132.62C500.19,-132.62 492.04,-132.62 484.33,-132.62"/>
<polygon fill="#63b8ff" stroke="#63b8ff" points="508.33,-136.13 518.33,-132.63 508.33,-129.13 508.33,-136.13"/>
</a>
</g>
</g>
<!-- Node17 -->
<g id="Node000017" class="node">
<title>Node17</title>
<g id="a_Node000017"><a xlink:href="../../dd/d4a/net_2http_8c.html#a6fe5d8fb56f828b9cb355eaf9bb2efa8" target="_top" xlink:title=" ">
<polygon fill="white" stroke="#666666" points="346.12,-161.25 268.62,-161.25 268.62,-142 346.12,-142 346.12,-161.25"/>
<text text-anchor="middle" x="307.38" y="-147.75" font-family="Helvetica,sans-Serif" font-size="10.00">httpc_connect</text>
</a>
</g>
</g>
<!-- Node16&#45;&gt;Node17 -->
<g id="edge16_Node000016_Node000017" class="edge">
<title>Node16&#45;&gt;Node17</title>
<g id="a_edge16_Node000016_Node000017"><a xlink:title=" ">
<path fill="none" stroke="#63b8ff" d="M379.46,-141.07C368.24,-142.74 356.72,-144.45 346.32,-145.99"/>
<polygon fill="#63b8ff" stroke="#63b8ff" points="379.65,-144.58 389.03,-139.65 378.62,-137.66 379.65,-144.58"/>
</a>
</g>
</g>
<!-- Node21 -->
<g id="Node000021" class="node">
<title>Node21</title>
<g id="a_Node000021"><a xlink:href="../../dd/d4a/net_2http_8c.html#a08d48d7c0320097b6e50119e49dd1a5d" target="_top" xlink:title=" ">
<polygon fill="white" stroke="#666666" points="354.75,-124.25 260,-124.25 260,-105 354.75,-105 354.75,-124.25"/>
<text text-anchor="middle" x="307.38" y="-110.75" font-family="Helvetica,sans-Serif" font-size="10.00">httpc_pool_launch</text>
</a>
</g>
</g>
<!-- Node16&#45;&gt;Node21 -->
<g id="edge20_Node000016_Node000021" class="edge">
<title>Node16&#45;&gt;Node21</title>
<g id="a_edge20_Node000016_Node000021"><a xlink:title=" ">
<path fill="none" stroke="#63b8ff" d="M379.29,-124.6C371.23,-123.46 363.03,-122.31 355.2,-121.21"/>
<polygon fill="#63b8ff" stroke="#63b8ff" points="378.64,-128.04 389.03,-125.97 379.61,-121.11 378.64,-128.04"/>
</a>
</g>
</g>
<!-- Node18 -->
<g id="Node000018" class="node">
<title>Node18</title>
<g id="a_Node000018"><a xlink:href="../../dd/d4a/net_2http_8c.html#ae0600e298ca883d66d4ff582e8786e11" target="_top" xlink:title=" ">
<polygon fill="white" stroke="#666666" points="223.25,-161.25 145,-161.25 145,-142 223.25,-142 223.25,-161.25"/>
<text text-anchor="middle" x="184.12" y="-147.75" font-family="Helvetica,sans-Serif" font-size="10.00">z_query_setup</text>
</a>
</g>
</g>
<!-- Node17&#45;&gt;Node18 -->
<g id="edge17_Node000017_Node000018" class="edge">
<title>Node17&#45;&gt;Node18</title>
<g id="a_edge17_Node000017_Node000018"><a xlink:title=" ">
<path fill="none" stroke="#63b8ff" d="M256.95,-151.62C245.78,-151.62 234.08,-151.62 223.44,-151.62"/>
<polygon fill="#63b8ff" stroke="#63b8ff" points="256.83,-155.13 266.83,-151.63 256.83,-148.13 256.83,-155.13"/>
</a>
</g>
</g>
<!-- Node19 -->
<g id="Node000019" class="node">
<title>Node19</title>
<g id="a_Node000019"><a xlink:href="../../dd/d4a/net_2http_8c.html#ad6f99386fb518c8ba64244857b0240e1" target="_top" xlink:title=" ">
<polygon fill="white" stroke="#666666" points="108.25,-179.25 0,-179.25 0,-160 108.25,-160 108.25,-179.25"/>
<text text-anchor="middle" x="54.12" y="-165.75" font-family="Helvetica,sans-Serif" font-size="10.00">Z_GROUP_EXPORT</text>
</a>
</g>
</g>
<!-- Node18&#45;&gt;Node19 -->
<g id="edge18_Node000018_Node000019" class="edge">
<title>Node18&#45;&gt;Node19</title>
<g id="a_edge18_Node000018_Node000019"><a xlink:title=" ">
<path fill="none" stroke="#63b8ff" d="M133.49,-158.61C125.35,-159.75 116.88,-160.94 108.65,-162.1"/>
<polygon fill="#63b8ff" stroke="#63b8ff" points="133.81,-162.09 143.22,-157.24 132.83,-155.16 133.81,-162.09"/>
</a>
</g>
</g>
<!-- Node20 -->
<g id="Node000020" class="node">
<title>Node20</title>
<g id="a_Node000020"><a xlink:href="../../dd/d4a/net_2http_8c.html#ad196e07d97f054b7629a5f94093340dd" target="_top" xlink:title=" ">
<polygon fill="white" stroke="#666666" points="108.25,-142.25 0,-142.25 0,-123 108.25,-123 108.25,-142.25"/>
<text text-anchor="middle" x="54.12" y="-128.75" font-family="Helvetica,sans-Serif" font-size="10.00">Z_GROUP_EXPORT</text>
</a>
</g>
</g>
<!-- Node18&#45;&gt;Node20 -->
<g id="edge19_Node000018_Node000020" class="edge">
<title>Node18&#45;&gt;Node20</title>
<g id="a_edge19_Node000018_Node000020"><a xlink:title=" ">
<path fill="none" stroke="#63b8ff" d="M133.49,-144.26C125.35,-143.05 116.88,-141.79 108.65,-140.57"/>
<polygon fill="#63b8ff" stroke="#63b8ff" points="132.82,-147.7 143.22,-145.7 133.85,-140.77 132.82,-147.7"/>
</a>
</g>
</g>
<!-- Node22 -->
<g id="Node000022" class="node">
<title>Node22</title>
<g id="a_Node000022"><a xlink:href="../../dd/d4a/net_2http_8c.html#a13fe4b4dc9d8e2b66738d7bc50745860" target="_top" xlink:title=" ">
<polygon fill="white" stroke="#666666" points="224,-124.25 144.25,-124.25 144.25,-105 224,-105 224,-124.25"/>
<text text-anchor="middle" x="184.12" y="-110.75" font-family="Helvetica,sans-Serif" font-size="10.00">httpc_pool_get</text>
</a>
</g>
</g>
<!-- Node21&#45;&gt;Node22 -->
<g id="edge21_Node000021_Node000022" class="edge">
<title>Node21&#45;&gt;Node22</title>
<g id="a_edge21_Node000021_Node000022"><a xlink:title=" ">
<path fill="none" stroke="#63b8ff" d="M248.38,-114.62C240.2,-114.62 231.95,-114.62 224.24,-114.62"/>
<polygon fill="#63b8ff" stroke="#63b8ff" points="248.33,-118.13 258.33,-114.63 248.33,-111.13 248.33,-118.13"/>
</a>
</g>
</g>
<!-- Node24 -->
<g id="Node000024" class="node">
<title>Node24</title>
<g id="a_Node000024"><a xlink:href="../../dd/d4a/net_2http_8c.html#ababf4c72b8aba8aa09b45da6bccfd250" target="_top" xlink:title=" ">
<polygon fill="white" stroke="#666666" points="774.38,-99.25 686.38,-99.25 686.38,-80 774.38,-80 774.38,-99.25"/>
<text text-anchor="middle" x="730.38" y="-85.75" font-family="Helvetica,sans-Serif" font-size="10.00">httpd_on_accept</text>
</a>
</g>
</g>
<!-- Node23&#45;&gt;Node24 -->
<g id="edge23_Node000023_Node000024" class="edge">
<title>Node23&#45;&gt;Node24</title>
<g id="a_edge23_Node000023_Node000024"><a xlink:title=" ">
<path fill="none" stroke="#63b8ff" d="M808.56,-89.62C796.97,-89.62 785.23,-89.62 774.52,-89.62"/>
<polygon fill="#63b8ff" stroke="#63b8ff" points="808.54,-93.13 818.54,-89.63 808.54,-86.13 808.54,-93.13"/>
</a>
</g>
</g>
<!-- Node25 -->
<g id="Node000025" class="node">
<title>Node25</title>
<g id="a_Node000025"><a xlink:href="../../dd/d4a/net_2http_8c.html#a4bb48b79e806519f505be1648ff296fd" target="_top" xlink:title=" ">
<polygon fill="white" stroke="#666666" points="613.25,-99.25 547,-99.25 547,-80 613.25,-80 613.25,-99.25"/>
<text text-anchor="middle" x="580.12" y="-85.75" font-family="Helvetica,sans-Serif" font-size="10.00">httpd_listen</text>
</a>
</g>
</g>
<!-- Node24&#45;&gt;Node25 -->
<g id="edge24_Node000024_Node000025" class="edge">
<title>Node24&#45;&gt;Node25</title>
<g id="a_edge24_Node000024_Node000025"><a xlink:title=" ">
<path fill="none" stroke="#63b8ff" d="M674.6,-89.62C654,-89.62 631.27,-89.62 613.37,-89.62"/>
<polygon fill="#63b8ff" stroke="#63b8ff" points="674.58,-93.13 684.58,-89.63 674.58,-86.13 674.58,-93.13"/>
</a>
</g>
</g>
<!-- Node26&#45;&gt;Node12 -->
<g id="edge27_Node000026_Node000012" class="edge">
<title>Node26&#45;&gt;Node12</title>
<g id="a_edge27_Node000026_Node000012"><a xlink:title=" ">
<path fill="none" stroke="#63b8ff" d="M1121.42,-100.76C1111.06,-101.89 1100.53,-103.05 1090.5,-104.15"/>
<polygon fill="#63b8ff" stroke="#63b8ff" points="1121.5,-104.27 1131.06,-99.7 1120.74,-97.31 1121.5,-104.27"/>
</a>
</g>
</g>
<!-- Node28 -->
<g id="Node000028" class="node">
<title>Node28</title>
<g id="a_Node000028"><a xlink:href="../../dd/d4a/net_2http_8c.html#a6c6bfcb15400c59f6f02e2890f0bdcb6" target="_top" xlink:title=" ">
<polygon fill="white" stroke="#666666" points="2378.5,-142.25 2250,-142.25 2250,-123 2378.5,-123 2378.5,-142.25"/>
<text text-anchor="middle" x="2314.25" y="-128.75" font-family="Helvetica,sans-Serif" font-size="10.00">http2_stream_on_headers</text>
</a>
</g>
</g>
<!-- Node27&#45;&gt;Node28 -->
<g id="edge29_Node000027_Node000028" class="edge">
<title>Node27&#45;&gt;Node28</title>
<g id="a_edge29_Node000027_Node000028"><a xlink:title=" ">
<path fill="none" stroke="#63b8ff" d="M2403.11,-132.62C2395.02,-132.62 2386.85,-132.62 2378.9,-132.62"/>
<polygon fill="#63b8ff" stroke="#63b8ff" points="2402.94,-136.13 2412.94,-132.63 2402.94,-129.13 2402.94,-136.13"/>
</a>
</g>
</g>
<!-- Node29 -->
<g id="Node000029" class="node">
<title>Node29</title>
<g id="a_Node000029"><a xlink:href="../../dd/d4a/net_2http_8c.html#aa50f853ea8f95760e2a9b39d02707e5e" target="_top" xlink:title=" ">
<polygon fill="white" stroke="#666666" points="2202,-147.88 2089.25,-147.88 2089.25,-117.38 2202,-117.38 2202,-147.88"/>
<text text-anchor="start" x="2097.25" y="-134.38" font-family="Helvetica,sans-Serif" font-size="10.00">http2_stream_do_recv</text>
<text text-anchor="middle" x="2145.62" y="-123.12" font-family="Helvetica,sans-Serif" font-size="10.00">_headers</text>
</a>
</g>
</g>
<!-- Node28&#45;&gt;Node29 -->
<g id="edge30_Node000028_Node000029" class="edge">
<title>Node28&#45;&gt;Node29</title>
<g id="a_edge30_Node000028_Node000029"><a xlink:title=" ">
<path fill="none" stroke="#63b8ff" d="M2238.28,-132.62C2226.18,-132.62 2213.83,-132.62 2202.29,-132.62"/>
<polygon fill="#63b8ff" stroke="#63b8ff" points="2238.27,-136.13 2248.27,-132.63 2238.27,-129.13 2238.27,-136.13"/>
</a>
</g>
</g>
<!-- Node30 -->
<g id="Node000030" class="node">
<title>Node30</title>
<g id="a_Node000030"><a xlink:href="../../dd/d4a/net_2http_8c.html#aaf0cb3c0f710ff209dd9386e08bcf828" target="_top" xlink:title=" ">
<polygon fill="white" stroke="#666666" points="2040.88,-147.88 1924.38,-147.88 1924.38,-117.38 2040.88,-117.38 2040.88,-147.88"/>
<text text-anchor="start" x="1932.38" y="-134.38" font-family="Helvetica,sans-Serif" font-size="10.00">http2_conn_do_on_end</text>
<text text-anchor="middle" x="1982.62" y="-123.12" font-family="Helvetica,sans-Serif" font-size="10.00">_headers</text>
</a>
</g>
</g>
<!-- Node29&#45;&gt;Node30 -->
<g id="edge31_Node000029_Node000030" class="edge">
<title>Node29&#45;&gt;Node30</title>
<g id="a_edge31_Node000029_Node000030"><a xlink:title=" ">
<path fill="none" stroke="#63b8ff" d="M2077.42,-132.62C2065.41,-132.62 2053,-132.62 2041.3,-132.62"/>
<polygon fill="#63b8ff" stroke="#63b8ff" points="2077.25,-136.13 2087.25,-132.63 2077.25,-129.13 2077.25,-136.13"/>
</a>
</g>
</g>
<!-- Node31 -->
<g id="Node000031" class="node">
<title>Node31</title>
<g id="a_Node000031"><a xlink:href="../../dd/d4a/net_2http_8c.html#af88da3c67b8f93ddac978795275c8f55" target="_top" xlink:title=" ">
<polygon fill="white" stroke="#666666" points="1711.88,-175.88 1594.62,-175.88 1594.62,-145.38 1711.88,-145.38 1711.88,-175.88"/>
<text text-anchor="start" x="1602.62" y="-162.38" font-family="Helvetica,sans-Serif" font-size="10.00">http2_conn_parse_cont</text>
<text text-anchor="middle" x="1653.25" y="-151.12" font-family="Helvetica,sans-Serif" font-size="10.00">_fragment</text>
</a>
</g>
</g>
<!-- Node30&#45;&gt;Node31 -->
<g id="edge32_Node000030_Node000031" class="edge">
<title>Node30&#45;&gt;Node31</title>
<g id="a_edge32_Node000030_Node000031"><a xlink:title=" ">
<path fill="none" stroke="#63b8ff" d="M1912.71,-147.92C1904.42,-149.37 1896.04,-150.66 1888,-151.62 1828.32,-158.78 1759.52,-160.67 1712.09,-160.99"/>
<polygon fill="#63b8ff" stroke="#63b8ff" points="1913.24,-151.38 1922.44,-146.13 1911.97,-144.5 1913.24,-151.38"/>
</a>
</g>
</g>
<!-- Node32 -->
<g id="Node000032" class="node">
<title>Node32</title>
<g id="a_Node000032"><a xlink:href="../../dd/d4a/net_2http_8c.html#a80d71aeff699ae67e6453befa758cc4b" target="_top" xlink:title=" ">
<polygon fill="white" stroke="#666666" points="1888,-142.25 1755,-142.25 1755,-123 1888,-123 1888,-142.25"/>
<text text-anchor="middle" x="1821.5" y="-128.75" font-family="Helvetica,sans-Serif" font-size="10.00">http2_conn_parse_headers</text>
</a>
</g>
</g>
<!-- Node30&#45;&gt;Node32 -->
<g id="edge34_Node000030_Node000032" class="edge">
<title>Node30&#45;&gt;Node32</title>
<g id="a_edge34_Node000030_Node000032"><a xlink:title=" ">
<path fill="none" stroke="#63b8ff" d="M1912.8,-132.62C1904.65,-132.62 1896.35,-132.62 1888.24,-132.62"/>
<polygon fill="#63b8ff" stroke="#63b8ff" points="1912.66,-136.13 1922.66,-132.63 1912.66,-129.13 1912.66,-136.13"/>
</a>
</g>
</g>
<!-- Node33 -->
<g id="Node000033" class="node">
<title>Node33</title>
<g id="a_Node000033"><a xlink:href="../../dd/d4a/net_2http_8c.html#aaa847a55e8d6c54f4ac9146417c08ff9" target="_top" xlink:title=" ">
<polygon fill="white" stroke="#666666" points="1881.25,-104.88 1761.75,-104.88 1761.75,-74.38 1881.25,-74.38 1881.25,-104.88"/>
<text text-anchor="start" x="1769.75" y="-91.38" font-family="Helvetica,sans-Serif" font-size="10.00">http2_conn_parse_push</text>
<text text-anchor="middle" x="1821.5" y="-80.12" font-family="Helvetica,sans-Serif" font-size="10.00">_promise</text>
</a>
</g>
</g>
<!-- Node30&#45;&gt;Node33 -->
<g id="edge36_Node000030_Node000033" class="edge">
<title>Node30&#45;&gt;Node33</title>
<g id="a_edge36_Node000030_Node000033"><a xlink:title=" ">
<path fill="none" stroke="#63b8ff" d="M1913.4,-114.19C1902.5,-111.24 1891.31,-108.22 1880.67,-105.34"/>
<polygon fill="#63b8ff" stroke="#63b8ff" points="1912.15,-117.48 1922.72,-116.71 1913.98,-110.72 1912.15,-117.48"/>
</a>
</g>
</g>
<!-- Node31&#45;&gt;Node9 -->
<g id="edge33_Node000031_Node000009" class="edge">
<title>Node31&#45;&gt;Node9</title>
<g id="a_edge33_Node000031_Node000009"><a xlink:title=" ">
<path fill="none" stroke="#63b8ff" d="M1583.48,-146.56C1572.81,-144.38 1561.96,-142.16 1551.77,-140.08"/>
<polygon fill="#63b8ff" stroke="#63b8ff" points="1582.51,-149.94 1593.01,-148.51 1583.92,-143.08 1582.51,-149.94"/>
</a>
</g>
</g>
<!-- Node32&#45;&gt;Node8 -->
<g id="edge35_Node000032_Node000008" class="edge">
<title>Node32&#45;&gt;Node8</title>
<g id="a_edge35_Node000032_Node000008"><a xlink:title=" ">
<path fill="none" stroke="#63b8ff" d="M1743.52,-121.51C1735.48,-120.35 1727.37,-119.18 1719.48,-118.04"/>
<polygon fill="#63b8ff" stroke="#63b8ff" points="1742.9,-124.96 1753.3,-122.92 1743.9,-118.03 1742.9,-124.96"/>
</a>
</g>
</g>
<!-- Node33&#45;&gt;Node8 -->
<g id="edge37_Node000033_Node000008" class="edge">
<title>Node33&#45;&gt;Node8</title>
<g id="a_edge37_Node000033_Node000008"><a xlink:title=" ">
<path fill="none" stroke="#63b8ff" d="M1750.06,-97.67C1739.88,-98.84 1729.43,-100.03 1719.36,-101.18"/>
<polygon fill="#63b8ff" stroke="#63b8ff" points="1750.38,-101.16 1759.91,-96.55 1749.58,-94.21 1750.38,-101.16"/>
</a>
</g>
</g>
<!-- Node36 -->
<g id="Node000036" class="node">
<title>Node36</title>
<g id="a_Node000036"><a xlink:href="../../dd/d4a/net_2http_8c.html#a571a5516950e9eea64e426793b3d68d7" target="_top" xlink:title=" ">
<polygon fill="white" stroke="#666666" points="2674.5,-56.25 2582,-56.25 2582,-37 2674.5,-37 2674.5,-56.25"/>
<text text-anchor="middle" x="2628.25" y="-42.75" font-family="Helvetica,sans-Serif" font-size="10.00">httpd_parse_body</text>
</a>
</g>
</g>
<!-- Node35&#45;&gt;Node36 -->
<g id="edge40_Node000035_Node000036" class="edge">
<title>Node35&#45;&gt;Node36</title>
<g id="a_edge40_Node000035_Node000036"><a xlink:title=" ">
<path fill="none" stroke="#63b8ff" d="M2701.91,-46.62C2692.86,-46.62 2683.56,-46.62 2674.76,-46.62"/>
<polygon fill="#63b8ff" stroke="#63b8ff" points="2701.66,-50.13 2711.66,-46.63 2701.66,-43.13 2701.66,-50.13"/>
</a>
</g>
</g>
<!-- Node38 -->
<g id="Node000038" class="node">
<title>Node38</title>
<g id="a_Node000038"><a xlink:href="../../dd/d4a/net_2http_8c.html#a083e8594973a3bf75a79dd2300b5c017" target="_top" xlink:title=" ">
<polygon fill="white" stroke="#666666" points="2677.5,-19.25 2579,-19.25 2579,0 2677.5,0 2677.5,-19.25"/>
<text text-anchor="middle" x="2628.25" y="-5.75" font-family="Helvetica,sans-Serif" font-size="10.00">httpd_parse_chunk</text>
</a>
</g>
</g>
<!-- Node35&#45;&gt;Node38 -->
<g id="edge43_Node000035_Node000038" class="edge">
<title>Node35&#45;&gt;Node38</title>
<g id="a_edge43_Node000035_Node000038"><a xlink:title=" ">
<path fill="none" stroke="#63b8ff" d="M2710.58,-33.34C2695.19,-28.86 2678.28,-23.92 2663.88,-19.72"/>
<polygon fill="#63b8ff" stroke="#63b8ff" points="2709.42,-36.65 2720,-36.09 2711.38,-29.93 2709.42,-36.65"/>
</a>
</g>
</g>
<!-- Node37 -->
<g id="Node000037" class="node">
<title>Node37</title>
<g id="a_Node000037"><a xlink:href="../../dd/d4a/net_2http_8c.html#aa16be181cb8d0f253afc761fd47ba5ce" target="_top" xlink:title=" ">
<polygon fill="white" stroke="#666666" points="2535.12,-49.88 2422.38,-49.88 2422.38,-19.38 2535.12,-19.38 2535.12,-49.88"/>
<text text-anchor="start" x="2430.38" y="-36.38" font-family="Helvetica,sans-Serif" font-size="10.00">http2_stream_on_data</text>
<text text-anchor="middle" x="2478.75" y="-25.12" font-family="Helvetica,sans-Serif" font-size="10.00">_server</text>
</a>
</g>
</g>
<!-- Node36&#45;&gt;Node37 -->
<g id="edge41_Node000036_Node000037" class="edge">
<title>Node36&#45;&gt;Node37</title>
<g id="a_edge41_Node000036_Node000037"><a xlink:title=" ">
<path fill="none" stroke="#63b8ff" d="M2570.52,-42.01C2559.02,-41.07 2546.93,-40.09 2535.46,-39.16"/>
<polygon fill="#63b8ff" stroke="#63b8ff" points="2570.03,-45.48 2580.28,-42.8 2570.6,-38.5 2570.03,-45.48"/>
</a>
</g>
</g>
<!-- Node37&#45;&gt;Node5 -->
<g id="edge42_Node000037_Node000005" class="edge">
<title>Node37&#45;&gt;Node5</title>
<g id="a_edge42_Node000037_Node000005"><a xlink:title=" ">
<path fill="none" stroke="#63b8ff" d="M2410.82,-39.57C2397.59,-40.54 2383.84,-41.56 2371.02,-42.51"/>
<polygon fill="#63b8ff" stroke="#63b8ff" points="2411.06,-43.06 2420.77,-38.83 2410.54,-36.08 2411.06,-43.06"/>
</a>
</g>
</g>
<!-- Node38&#45;&gt;Node37 -->
<g id="edge44_Node000038_Node000037" class="edge">
<title>Node38&#45;&gt;Node37</title>
<g id="a_edge44_Node000038_Node000037"><a xlink:title=" ">
<path fill="none" stroke="#63b8ff" d="M2567.34,-19.78C2556.84,-21.56 2545.94,-23.41 2535.56,-25.17"/>
<polygon fill="#63b8ff" stroke="#63b8ff" points="2567.78,-23.26 2577.05,-18.13 2566.61,-16.35 2567.78,-23.26"/>
</a>
</g>
</g>
</g>
</svg>
