<?xml version="1.0" encoding="UTF-8" standalone="no"?>
<!DOCTYPE svg PUBLIC "-//W3C//DTD SVG 1.1//EN"
 "http://www.w3.org/Graphics/SVG/1.1/DTD/svg11.dtd">
<!-- Generated by graphviz version 9.0.0 (20230911.1827)
 -->
<!-- Title: httpd_reply_done Pages: 1 -->
<svg width="2103pt" height="400pt"
 viewBox="0.00 0.00 2103.00 400.13" xmlns="http://www.w3.org/2000/svg" xmlns:xlink="http://www.w3.org/1999/xlink">
<g id="graph0" class="graph" transform="scale(1 1) rotate(0) translate(4 396.13)">
<title>httpd_reply_done</title>
<!-- Node1 -->
<g id="Node000001" class="node">
<title>Node1</title>
<g id="a_Node000001"><a xlink:title=" ">
<polygon fill="#999999" stroke="#666666" points="89.5,-306.75 0,-306.75 0,-287.5 89.5,-287.5 89.5,-306.75"/>
<text text-anchor="middle" x="44.75" y="-293.25" font-family="Helvetica,sans-Serif" font-size="10.00">httpd_reply_done</text>
</a>
</g>
</g>
<!-- Node2 -->
<g id="Node000002" class="node">
<title>Node2</title>
<g id="a_Node000002"><a xlink:href="../../dd/d4a/net_2http_8c.html#a2318c5384d20ab71fcefb04b4a2ce9a9" target="_top" xlink:title=" ">
<polygon fill="white" stroke="#666666" points="245,-343.75 146.5,-343.75 146.5,-324.5 245,-324.5 245,-343.75"/>
<text text-anchor="middle" x="195.75" y="-330.25" font-family="Helvetica,sans-Serif" font-size="10.00">http_clength_patch</text>
</a>
</g>
</g>
<!-- Node1&#45;&gt;Node2 -->
<g id="edge1_Node000001_Node000002" class="edge">
<title>Node1&#45;&gt;Node2</title>
<g id="a_edge1_Node000001_Node000002"><a xlink:title=" ">
<path fill="none" stroke="#63b8ff" d="M86.46,-307.24C103.96,-311.58 124.6,-316.71 143.15,-321.32"/>
<polygon fill="#63b8ff" stroke="#63b8ff" points="142.07,-324.65 152.62,-323.67 143.75,-317.86 142.07,-324.65"/>
</a>
</g>
</g>
<!-- Node3 -->
<g id="Node000003" class="node">
<title>Node3</title>
<g id="a_Node000003"><a xlink:href="../../dd/d56/http_8h.html#a72fbe8d7bf5169f3edc762b6c1a2f806" target="_top" xlink:title=" ">
<polygon fill="white" stroke="#666666" points="231.88,-306.75 159.62,-306.75 159.62,-287.5 231.88,-287.5 231.88,-306.75"/>
<text text-anchor="middle" x="195.75" y="-293.25" font-family="Helvetica,sans-Serif" font-size="10.00">httpd_get_ob</text>
</a>
</g>
</g>
<!-- Node1&#45;&gt;Node3 -->
<g id="edge2_Node000001_Node000003" class="edge">
<title>Node1&#45;&gt;Node3</title>
<g id="a_edge2_Node000001_Node000003"><a xlink:title=" ">
<path fill="none" stroke="#63b8ff" d="M89.65,-297.13C107.9,-297.13 129.12,-297.13 147.7,-297.13"/>
<polygon fill="#63b8ff" stroke="#63b8ff" points="147.65,-300.63 157.65,-297.13 147.65,-293.63 147.65,-300.63"/>
</a>
</g>
</g>
<!-- Node4 -->
<g id="Node000004" class="node">
<title>Node4</title>
<g id="a_Node000004"><a xlink:href="../../dd/d4a/net_2http_8c.html#a694c2533c78a21a297fc8478bbce2b27" target="_top" xlink:title=" ">
<polygon fill="white" stroke="#666666" points="266,-269.75 125.5,-269.75 125.5,-250.5 266,-250.5 266,-269.75"/>
<text text-anchor="middle" x="195.75" y="-256.25" font-family="Helvetica,sans-Serif" font-size="10.00">httpd_mark_query_answered</text>
</a>
</g>
</g>
<!-- Node1&#45;&gt;Node4 -->
<g id="edge3_Node000001_Node000004" class="edge">
<title>Node1&#45;&gt;Node4</title>
<g id="a_edge3_Node000001_Node000004"><a xlink:title=" ">
<path fill="none" stroke="#63b8ff" d="M86.46,-287.02C103.96,-282.68 124.6,-277.55 143.15,-272.94"/>
<polygon fill="#63b8ff" stroke="#63b8ff" points="143.75,-276.4 152.62,-270.59 142.07,-269.61 143.75,-276.4"/>
</a>
</g>
</g>
<!-- Node5 -->
<g id="Node000005" class="node">
<title>Node5</title>
<g id="a_Node000005"><a xlink:href="../../de/d1a/container-dlist_8h.html#a6db5338e9150b644d46cf4269de28d43" target="_top" xlink:title="Return true if e is the head of l.">
<polygon fill="white" stroke="#666666" points="391.12,-288.75 323.38,-288.75 323.38,-269.5 391.12,-269.5 391.12,-288.75"/>
<text text-anchor="middle" x="357.25" y="-275.25" font-family="Helvetica,sans-Serif" font-size="10.00">dlist_is_first</text>
</a>
</g>
</g>
<!-- Node4&#45;&gt;Node5 -->
<g id="edge4_Node000004_Node000005" class="edge">
<title>Node4&#45;&gt;Node5</title>
<g id="a_edge4_Node000004_Node000005"><a xlink:title=" ">
<path fill="none" stroke="#63b8ff" d="M266.25,-268.41C281.72,-270.25 297.73,-272.16 311.87,-273.84"/>
<polygon fill="#63b8ff" stroke="#63b8ff" points="311.41,-277.31 321.75,-275.02 312.24,-270.36 311.41,-277.31"/>
</a>
</g>
</g>
<!-- Node6 -->
<g id="Node000006" class="node">
<title>Node6</title>
<g id="a_Node000006"><a xlink:href="../../dd/d4a/net_2http_8c.html#ad9b09f3dad466ee1160e8a18c51d0522" target="_top" xlink:title=" ">
<polygon fill="white" stroke="#666666" points="412.5,-251.75 302,-251.75 302,-232.5 412.5,-232.5 412.5,-251.75"/>
<text text-anchor="middle" x="357.25" y="-238.25" font-family="Helvetica,sans-Serif" font-size="10.00">httpd_flush_answered</text>
</a>
</g>
</g>
<!-- Node4&#45;&gt;Node6 -->
<g id="edge5_Node000004_Node000006" class="edge">
<title>Node4&#45;&gt;Node6</title>
<g id="a_edge5_Node000004_Node000006"><a xlink:title=" ">
<path fill="none" stroke="#63b8ff" d="M266.25,-252.29C274.35,-251.37 282.59,-250.44 290.64,-249.53"/>
<polygon fill="#63b8ff" stroke="#63b8ff" points="290.8,-253.04 300.35,-248.44 290.02,-246.08 290.8,-253.04"/>
</a>
</g>
</g>
<!-- Node7 -->
<g id="Node000007" class="node">
<title>Node7</title>
<g id="a_Node000007"><a xlink:href="../../dd/d4a/net_2http_8c.html#aff56d60a1967e0810717542f5c0d722c" target="_top" xlink:title=" ">
<polygon fill="white" stroke="#666666" points="549.25,-325.75 448.5,-325.75 448.5,-306.5 549.25,-306.5 549.25,-325.75"/>
<text text-anchor="middle" x="498.88" y="-312.25" font-family="Helvetica,sans-Serif" font-size="10.00">httpd_query_detach</text>
</a>
</g>
</g>
<!-- Node6&#45;&gt;Node7 -->
<g id="edge6_Node000006_Node000007" class="edge">
<title>Node6&#45;&gt;Node7</title>
<g id="a_edge6_Node000006_Node000007"><a xlink:title=" ">
<path fill="none" stroke="#63b8ff" d="M393.22,-252.24C399.75,-254.54 406.43,-257.19 412.5,-260.13 435.31,-271.16 459.27,-287.33 475.98,-299.47"/>
<polygon fill="#63b8ff" stroke="#63b8ff" points="473.57,-302.04 483.7,-305.17 477.74,-296.41 473.57,-302.04"/>
</a>
</g>
</g>
<!-- Node11 -->
<g id="Node000011" class="node">
<title>Node11</title>
<g id="a_Node000011"><a xlink:href="../../dd/d4a/net_2http_8c.html#aa615c493f45e35558857dee9fa206f33" target="_top" xlink:title=" ">
<polygon fill="white" stroke="#666666" points="541.75,-158.75 456,-158.75 456,-139.5 541.75,-139.5 541.75,-158.75"/>
<text text-anchor="middle" x="498.88" y="-145.25" font-family="Helvetica,sans-Serif" font-size="10.00">httpd_set_mask</text>
</a>
</g>
</g>
<!-- Node6&#45;&gt;Node11 -->
<g id="edge10_Node000006_Node000011" class="edge">
<title>Node6&#45;&gt;Node11</title>
<g id="a_edge10_Node000006_Node000011"><a xlink:title=" ">
<path fill="none" stroke="#63b8ff" d="M373.19,-232.18C397.23,-216.16 444.72,-184.53 473.65,-165.26"/>
<polygon fill="#63b8ff" stroke="#63b8ff" points="475.4,-168.31 481.78,-159.85 471.52,-162.48 475.4,-168.31"/>
</a>
</g>
</g>
<!-- Node15 -->
<g id="Node000015" class="node">
<title>Node15</title>
<g id="a_Node000015"><a xlink:href="../../d6/d7f/str-outbuf_8c.html#aabfe20a977a1d6f5c8e9b9578ead66ac" target="_top" xlink:title=" ">
<polygon fill="white" stroke="#666666" points="544,-251.75 453.75,-251.75 453.75,-232.5 544,-232.5 544,-251.75"/>
<text text-anchor="middle" x="498.88" y="-238.25" font-family="Helvetica,sans-Serif" font-size="10.00">ob_merge_delete</text>
</a>
</g>
</g>
<!-- Node6&#45;&gt;Node15 -->
<g id="edge16_Node000006_Node000015" class="edge">
<title>Node6&#45;&gt;Node15</title>
<g id="a_edge16_Node000006_Node000015"><a xlink:title=" ">
<path fill="none" stroke="#63b8ff" d="M412.63,-242.13C422.21,-242.13 432.2,-242.13 441.83,-242.13"/>
<polygon fill="#63b8ff" stroke="#63b8ff" points="441.82,-245.63 451.82,-242.13 441.82,-238.63 441.82,-245.63"/>
</a>
</g>
</g>
<!-- Node8 -->
<g id="Node000008" class="node">
<title>Node8</title>
<g id="a_Node000008"><a xlink:href="../../de/d1a/container-dlist_8h.html#a14167c2a5ebeec326a085645ab7ca07d" target="_top" xlink:title="Remove element e from the list and re&#45;init e.">
<polygon fill="white" stroke="#666666" points="677.38,-363.75 605.88,-363.75 605.88,-344.5 677.38,-344.5 677.38,-363.75"/>
<text text-anchor="middle" x="641.62" y="-350.25" font-family="Helvetica,sans-Serif" font-size="10.00">dlist_remove</text>
</a>
</g>
</g>
<!-- Node7&#45;&gt;Node8 -->
<g id="edge7_Node000007_Node000008" class="edge">
<title>Node7&#45;&gt;Node8</title>
<g id="a_edge7_Node000007_Node000008"><a xlink:title=" ">
<path fill="none" stroke="#63b8ff" d="M537.22,-326.21C554.84,-330.97 576.03,-336.69 594.63,-341.71"/>
<polygon fill="#63b8ff" stroke="#63b8ff" points="593.5,-345.03 604.06,-344.26 595.32,-338.27 593.5,-345.03"/>
</a>
</g>
</g>
<!-- Node9 -->
<g id="Node000009" class="node">
<title>Node9</title>
<g id="a_Node000009"><a xlink:href="../../de/d1a/container-dlist_8h.html#a1ea330e4089b402d22627e6c7596f2ce" target="_top" xlink:title=" ">
<polygon fill="white" stroke="#666666" points="817.88,-363.75 735.88,-363.75 735.88,-344.5 817.88,-344.5 817.88,-363.75"/>
<text text-anchor="middle" x="776.88" y="-350.25" font-family="Helvetica,sans-Serif" font-size="10.00">__dlist_remove</text>
</a>
</g>
</g>
<!-- Node8&#45;&gt;Node9 -->
<g id="edge8_Node000008_Node000009" class="edge">
<title>Node8&#45;&gt;Node9</title>
<g id="a_edge8_Node000008_Node000009"><a xlink:title=" ">
<path fill="none" stroke="#63b8ff" d="M677.63,-354.13C691.91,-354.13 708.7,-354.13 724.32,-354.13"/>
<polygon fill="#63b8ff" stroke="#63b8ff" points="723.92,-357.63 733.92,-354.13 723.92,-350.63 723.92,-357.63"/>
</a>
</g>
</g>
<!-- Node10 -->
<g id="Node000010" class="node">
<title>Node10</title>
<g id="a_Node000010"><a xlink:href="../../de/d1a/container-dlist_8h.html#a0a69e401f6ec15966c891e96ad864c77" target="_top" xlink:title="Put a dlist_t element in a safe and detached state.">
<polygon fill="white" stroke="#666666" points="2093.5,-358.75 2041.5,-358.75 2041.5,-339.5 2093.5,-339.5 2093.5,-358.75"/>
<text text-anchor="middle" x="2067.5" y="-345.25" font-family="Helvetica,sans-Serif" font-size="10.00">dlist_init</text>
</a>
</g>
</g>
<!-- Node8&#45;&gt;Node10 -->
<g id="edge9_Node000008_Node000010" class="edge">
<title>Node8&#45;&gt;Node10</title>
<g id="a_edge9_Node000008_Node000010"><a xlink:title=" ">
<path fill="none" stroke="#63b8ff" d="M677.54,-362.75C726.08,-373.96 816.83,-392.13 895.38,-392.13 895.38,-392.13 895.38,-392.13 1814.12,-392.13 1892.1,-392.13 1981.73,-371.94 2030.41,-359.22"/>
<polygon fill="#63b8ff" stroke="#63b8ff" points="2031.08,-362.67 2039.85,-356.72 2029.28,-355.9 2031.08,-362.67"/>
</a>
</g>
</g>
<!-- Node12 -->
<g id="Node000012" class="node">
<title>Node12</title>
<g id="a_Node000012"><a xlink:href="../../da/d9c/group__lc__el.html#ga6dff73e88ed149b81552ac29439f8f66" target="_top" xlink:title=" ">
<polygon fill="white" stroke="#666666" points="819.38,-102.75 734.38,-102.75 734.38,-83.5 819.38,-83.5 819.38,-102.75"/>
<text text-anchor="middle" x="776.88" y="-89.25" font-family="Helvetica,sans-Serif" font-size="10.00">el_fd_set_mask</text>
</a>
</g>
</g>
<!-- Node11&#45;&gt;Node12 -->
<g id="edge11_Node000011_Node000012" class="edge">
<title>Node11&#45;&gt;Node12</title>
<g id="a_edge11_Node000011_Node000012"><a xlink:title=" ">
<path fill="none" stroke="#63b8ff" d="M517.9,-139.03C534.76,-130.09 560.93,-117.51 585.25,-111.13 630.56,-99.25 683.75,-94.99 722.42,-93.57"/>
<polygon fill="#63b8ff" stroke="#63b8ff" points="722.52,-97.07 732.41,-93.26 722.31,-90.07 722.52,-97.07"/>
</a>
</g>
</g>
<!-- Node13 -->
<g id="Node000013" class="node">
<title>Node13</title>
<g id="a_Node000013"><a xlink:href="../../dd/d4a/net_2http_8c.html#a41bf4a22c5254f70860aeb58179effbd" target="_top" xlink:title=" ">
<polygon fill="white" stroke="#666666" points="698,-139.75 585.25,-139.75 585.25,-120.5 698,-120.5 698,-139.75"/>
<text text-anchor="middle" x="641.62" y="-126.25" font-family="Helvetica,sans-Serif" font-size="10.00">httpd_http2_set_mask</text>
</a>
</g>
</g>
<!-- Node11&#45;&gt;Node13 -->
<g id="edge12_Node000011_Node000013" class="edge">
<title>Node11&#45;&gt;Node13</title>
<g id="a_edge12_Node000011_Node000013"><a xlink:title=" ">
<path fill="none" stroke="#63b8ff" d="M542.1,-143.43C552.08,-142.08 562.96,-140.61 573.73,-139.16"/>
<polygon fill="#63b8ff" stroke="#63b8ff" points="573.93,-142.66 583.37,-137.86 573,-135.73 573.93,-142.66"/>
</a>
</g>
</g>
<!-- Node14 -->
<g id="Node000014" class="node">
<title>Node14</title>
<g id="a_Node000014"><a xlink:href="../../d3/d83/str-outbuf_8h.html#a42072687446e713827648f3da773336a" target="_top" xlink:title=" ">
<polygon fill="white" stroke="#666666" points="812.25,-139.75 741.5,-139.75 741.5,-120.5 812.25,-120.5 812.25,-139.75"/>
<text text-anchor="middle" x="776.88" y="-126.25" font-family="Helvetica,sans-Serif" font-size="10.00">ob_is_empty</text>
</a>
</g>
</g>
<!-- Node11&#45;&gt;Node14 -->
<g id="edge15_Node000011_Node000014" class="edge">
<title>Node11&#45;&gt;Node14</title>
<g id="a_edge15_Node000011_Node000014"><a xlink:title=" ">
<path fill="none" stroke="#63b8ff" d="M542.18,-152.04C582.41,-154.12 644.55,-155.55 698,-149.13 708.87,-147.82 720.41,-145.52 731.19,-142.97"/>
<polygon fill="#63b8ff" stroke="#63b8ff" points="731.76,-146.43 740.61,-140.61 730.06,-139.64 731.76,-146.43"/>
</a>
</g>
</g>
<!-- Node13&#45;&gt;Node12 -->
<g id="edge13_Node000013_Node000012" class="edge">
<title>Node13&#45;&gt;Node12</title>
<g id="a_edge13_Node000013_Node000012"><a xlink:title=" ">
<path fill="none" stroke="#63b8ff" d="M679.04,-120.02C694.31,-115.78 712.28,-110.79 728.56,-106.27"/>
<polygon fill="#63b8ff" stroke="#63b8ff" points="729.35,-109.68 738.05,-103.63 727.48,-102.94 729.35,-109.68"/>
</a>
</g>
</g>
<!-- Node13&#45;&gt;Node14 -->
<g id="edge14_Node000013_Node000014" class="edge">
<title>Node13&#45;&gt;Node14</title>
<g id="a_edge14_Node000013_Node000014"><a xlink:title=" ">
<path fill="none" stroke="#63b8ff" d="M698.36,-130.13C708.82,-130.13 719.64,-130.13 729.77,-130.13"/>
<polygon fill="#63b8ff" stroke="#63b8ff" points="729.75,-133.63 739.75,-130.13 729.75,-126.63 729.75,-133.63"/>
</a>
</g>
</g>
<!-- Node16 -->
<g id="Node000016" class="node">
<title>Node16</title>
<g id="a_Node000016"><a xlink:href="../../d6/d7f/str-outbuf_8c.html#addca88764c953296b654c3f8d1945e6d" target="_top" xlink:title=" ">
<polygon fill="white" stroke="#666666" points="673.62,-251.75 609.62,-251.75 609.62,-232.5 673.62,-232.5 673.62,-251.75"/>
<text text-anchor="middle" x="641.62" y="-238.25" font-family="Helvetica,sans-Serif" font-size="10.00">ob_merge_</text>
</a>
</g>
</g>
<!-- Node15&#45;&gt;Node16 -->
<g id="edge17_Node000015_Node000016" class="edge">
<title>Node15&#45;&gt;Node16</title>
<g id="a_edge17_Node000015_Node000016"><a xlink:title=" ">
<path fill="none" stroke="#63b8ff" d="M544.41,-242.13C561.55,-242.13 581.07,-242.13 598.03,-242.13"/>
<polygon fill="#63b8ff" stroke="#63b8ff" points="597.79,-245.63 607.79,-242.13 597.79,-238.63 597.79,-245.63"/>
</a>
</g>
</g>
<!-- Node17 -->
<g id="Node000017" class="node">
<title>Node17</title>
<g id="a_Node000017"><a xlink:href="../../d7/dcb/container-htlist_8h.html#ad447ba65032263c290856d3718ce59ea" target="_top" xlink:title=" ">
<polygon fill="white" stroke="#666666" points="937,-236.75 855.75,-236.75 855.75,-217.5 937,-217.5 937,-236.75"/>
<text text-anchor="middle" x="896.38" y="-223.25" font-family="Helvetica,sans-Serif" font-size="10.00">htlist_is_empty</text>
</a>
</g>
</g>
<!-- Node16&#45;&gt;Node17 -->
<g id="edge18_Node000016_Node000017" class="edge">
<title>Node16&#45;&gt;Node17</title>
<g id="a_edge18_Node000016_Node000017"><a xlink:title=" ">
<path fill="none" stroke="#63b8ff" d="M674.12,-240.26C716.73,-237.73 793.22,-233.19 844.15,-230.17"/>
<polygon fill="#63b8ff" stroke="#63b8ff" points="844.27,-233.67 854.05,-229.58 843.86,-226.68 844.27,-233.67"/>
</a>
</g>
</g>
<!-- Node18 -->
<g id="Node000018" class="node">
<title>Node18</title>
<g id="a_Node000018"><a xlink:href="../../d7/dcb/container-htlist_8h.html#a2be3301c92d6bcba6a31cf754e4a895b" target="_top" xlink:title=" ">
<polygon fill="white" stroke="#666666" points="819.75,-213.75 734,-213.75 734,-194.5 819.75,-194.5 819.75,-213.75"/>
<text text-anchor="middle" x="776.88" y="-200.25" font-family="Helvetica,sans-Serif" font-size="10.00">htlist_splice_tail</text>
</a>
</g>
</g>
<!-- Node16&#45;&gt;Node18 -->
<g id="edge19_Node000016_Node000018" class="edge">
<title>Node16&#45;&gt;Node18</title>
<g id="a_edge19_Node000016_Node000018"><a xlink:title=" ">
<path fill="none" stroke="#63b8ff" d="M673.87,-233.22C690.51,-228.47 711.3,-222.55 729.76,-217.28"/>
<polygon fill="#63b8ff" stroke="#63b8ff" points="730.49,-220.71 739.15,-214.6 728.57,-213.98 730.49,-220.71"/>
</a>
</g>
</g>
<!-- Node19 -->
<g id="Node000019" class="node">
<title>Node19</title>
<g id="a_Node000019"><a xlink:href="../../dc/d31/str-buf_8h.html#a7316e7a5a9583e6f0df48e14574ccff6" target="_top" xlink:title=" ">
<polygon fill="white" stroke="#666666" points="805.88,-176.75 747.88,-176.75 747.88,-157.5 805.88,-157.5 805.88,-176.75"/>
<text text-anchor="middle" x="776.88" y="-163.25" font-family="Helvetica,sans-Serif" font-size="10.00">sb_addsb</text>
</a>
</g>
</g>
<!-- Node16&#45;&gt;Node19 -->
<g id="edge21_Node000016_Node000019" class="edge">
<title>Node16&#45;&gt;Node19</title>
<g id="a_edge21_Node000016_Node000019"><a xlink:title=" ">
<path fill="none" stroke="#63b8ff" d="M657.1,-232.14C674.78,-220.16 705.83,-199.86 734,-185.13 736.08,-184.04 738.24,-182.96 740.44,-181.91"/>
<polygon fill="#63b8ff" stroke="#63b8ff" points="741.77,-185.15 749.41,-177.81 738.86,-178.78 741.77,-185.15"/>
</a>
</g>
</g>
<!-- Node63 -->
<g id="Node000063" class="node">
<title>Node63</title>
<g id="a_Node000063"><a xlink:href="../../d4/d02/str-buf_8c.html#a565dca690544eca5eb3516d506ea086f" target="_top" xlink:title=" ">
<polygon fill="white" stroke="#666666" points="803.62,-326.75 750.12,-326.75 750.12,-307.5 803.62,-307.5 803.62,-326.75"/>
<text text-anchor="middle" x="776.88" y="-313.25" font-family="Helvetica,sans-Serif" font-size="10.00">sb_reset</text>
</a>
</g>
</g>
<!-- Node16&#45;&gt;Node63 -->
<g id="edge53_Node000016_Node000063" class="edge">
<title>Node16&#45;&gt;Node63</title>
<g id="a_edge53_Node000016_Node000063"><a xlink:title=" ">
<path fill="none" stroke="#63b8ff" d="M657.1,-252.12C674.78,-264.1 705.83,-284.4 734,-299.13 736.08,-300.22 738.24,-301.3 740.44,-302.35"/>
<polygon fill="#63b8ff" stroke="#63b8ff" points="738.86,-305.48 749.41,-306.45 741.77,-299.11 738.86,-305.48"/>
</a>
</g>
</g>
<!-- Node67 -->
<g id="Node000067" class="node">
<title>Node67</title>
<g id="a_Node000067"><a xlink:href="../../d4/d02/str-buf_8c.html#a2df9d24379657189beb232b2a5ab851b" target="_top" xlink:title=" ">
<polygon fill="white" stroke="#666666" points="802.88,-289.75 750.88,-289.75 750.88,-270.5 802.88,-270.5 802.88,-289.75"/>
<text text-anchor="middle" x="776.88" y="-276.25" font-family="Helvetica,sans-Serif" font-size="10.00">sb_wipe</text>
</a>
</g>
</g>
<!-- Node16&#45;&gt;Node67 -->
<g id="edge60_Node000016_Node000067" class="edge">
<title>Node16&#45;&gt;Node67</title>
<g id="a_edge60_Node000016_Node000067"><a xlink:title=" ">
<path fill="none" stroke="#63b8ff" d="M673.87,-251.04C693.6,-256.67 719.16,-263.96 739.76,-269.83"/>
<polygon fill="#63b8ff" stroke="#63b8ff" points="738.59,-273.14 749.17,-272.51 740.51,-266.41 738.59,-273.14"/>
</a>
</g>
</g>
<!-- Node18&#45;&gt;Node17 -->
<g id="edge20_Node000018_Node000017" class="edge">
<title>Node18&#45;&gt;Node17</title>
<g id="a_edge20_Node000018_Node000017"><a xlink:title=" ">
<path fill="none" stroke="#63b8ff" d="M819.96,-212.37C827.84,-213.91 836.15,-215.54 844.27,-217.13"/>
<polygon fill="#63b8ff" stroke="#63b8ff" points="843.57,-220.56 854.06,-219.04 844.92,-213.69 843.57,-220.56"/>
</a>
</g>
</g>
<!-- Node20 -->
<g id="Node000020" class="node">
<title>Node20</title>
<g id="a_Node000020"><a xlink:href="../../dc/d31/str-buf_8h.html#a6e739817e8e91ceaace33c4817e67ac6" target="_top" xlink:title=" ">
<polygon fill="white" stroke="#666666" points="920.12,-180.75 872.62,-180.75 872.62,-161.5 920.12,-161.5 920.12,-180.75"/>
<text text-anchor="middle" x="896.38" y="-167.25" font-family="Helvetica,sans-Serif" font-size="10.00">sb_add</text>
</a>
</g>
</g>
<!-- Node19&#45;&gt;Node20 -->
<g id="edge22_Node000019_Node000020" class="edge">
<title>Node19&#45;&gt;Node20</title>
<g id="a_edge22_Node000019_Node000020"><a xlink:title=" ">
<path fill="none" stroke="#63b8ff" d="M806.32,-168.1C822.76,-168.66 843.57,-169.37 860.94,-169.96"/>
<polygon fill="#63b8ff" stroke="#63b8ff" points="860.69,-173.45 870.8,-170.29 860.93,-166.45 860.69,-173.45"/>
</a>
</g>
</g>
<!-- Node21 -->
<g id="Node000021" class="node">
<title>Node21</title>
<g id="a_Node000021"><a xlink:href="../../dc/d31/str-buf_8h.html#a69537528c954fce98e3d2cb92232ffe8" target="_top" xlink:title=" ">
<polygon fill="white" stroke="#666666" points="1059.12,-180.75 993.62,-180.75 993.62,-161.5 1059.12,-161.5 1059.12,-180.75"/>
<text text-anchor="middle" x="1026.38" y="-167.25" font-family="Helvetica,sans-Serif" font-size="10.00">sb_growlen</text>
</a>
</g>
</g>
<!-- Node20&#45;&gt;Node21 -->
<g id="edge23_Node000020_Node000021" class="edge">
<title>Node20&#45;&gt;Node21</title>
<g id="a_edge23_Node000020_Node000021"><a xlink:title=" ">
<path fill="none" stroke="#63b8ff" d="M920.55,-171.13C937.62,-171.13 961.32,-171.13 981.88,-171.13"/>
<polygon fill="#63b8ff" stroke="#63b8ff" points="981.71,-174.63 991.71,-171.13 981.71,-167.63 981.71,-174.63"/>
</a>
</g>
</g>
<!-- Node22 -->
<g id="Node000022" class="node">
<title>Node22</title>
<g id="a_Node000022"><a xlink:href="../../dc/d31/str-buf_8h.html#a5019d1298a6a5b4f8ae0b645bb8bc627" target="_top" xlink:title=" ">
<polygon fill="white" stroke="#666666" points="1179.75,-217.75 1115.75,-217.75 1115.75,-198.5 1179.75,-198.5 1179.75,-217.75"/>
<text text-anchor="middle" x="1147.75" y="-204.25" font-family="Helvetica,sans-Serif" font-size="10.00">__sb_fixlen</text>
</a>
</g>
</g>
<!-- Node21&#45;&gt;Node22 -->
<g id="edge24_Node000021_Node000022" class="edge">
<title>Node21&#45;&gt;Node22</title>
<g id="a_edge24_Node000021_Node000022"><a xlink:title=" ">
<path fill="none" stroke="#63b8ff" d="M1059.37,-181.04C1073.23,-185.34 1089.67,-190.44 1104.52,-195.04"/>
<polygon fill="#63b8ff" stroke="#63b8ff" points="1103.46,-198.38 1114.05,-197.99 1105.54,-191.69 1103.46,-198.38"/>
</a>
</g>
</g>
<!-- Node24 -->
<g id="Node000024" class="node">
<title>Node24</title>
<g id="a_Node000024"><a xlink:href="../../d4/d02/str-buf_8c.html#a96e2e5252e81ed31e7071e4db76085b5" target="_top" xlink:title=" ">
<polygon fill="white" stroke="#666666" points="1179.38,-180.75 1116.12,-180.75 1116.12,-161.5 1179.38,-161.5 1179.38,-180.75"/>
<text text-anchor="middle" x="1147.75" y="-167.25" font-family="Helvetica,sans-Serif" font-size="10.00">__sb_grow</text>
</a>
</g>
</g>
<!-- Node21&#45;&gt;Node24 -->
<g id="edge26_Node000021_Node000024" class="edge">
<title>Node21&#45;&gt;Node24</title>
<g id="a_edge26_Node000021_Node000024"><a xlink:title=" ">
<path fill="none" stroke="#63b8ff" d="M1059.37,-171.13C1073.21,-171.13 1089.6,-171.13 1104.43,-171.13"/>
<polygon fill="#63b8ff" stroke="#63b8ff" points="1104.4,-174.63 1114.39,-171.13 1104.39,-167.63 1104.4,-174.63"/>
</a>
</g>
</g>
<!-- Node62 -->
<g id="Node000062" class="node">
<title>Node62</title>
<g id="a_Node000062"><a xlink:href="../../dc/d31/str-buf_8h.html#acd3f1b7a3fde32b199cf24fdb133b4ce" target="_top" xlink:title=" ">
<polygon fill="white" stroke="#666666" points="1171.5,-143.75 1124,-143.75 1124,-124.5 1171.5,-124.5 1171.5,-143.75"/>
<text text-anchor="middle" x="1147.75" y="-130.25" font-family="Helvetica,sans-Serif" font-size="10.00">sb_end</text>
</a>
</g>
</g>
<!-- Node21&#45;&gt;Node62 -->
<g id="edge52_Node000021_Node000062" class="edge">
<title>Node21&#45;&gt;Node62</title>
<g id="a_edge52_Node000021_Node000062"><a xlink:title=" ">
<path fill="none" stroke="#63b8ff" d="M1059.37,-161.21C1075.86,-156.1 1095.99,-149.86 1112.76,-144.66"/>
<polygon fill="#63b8ff" stroke="#63b8ff" points="1113.8,-148.01 1122.31,-141.7 1111.72,-141.32 1113.8,-148.01"/>
</a>
</g>
</g>
<!-- Node23 -->
<g id="Node000023" class="node">
<title>Node23</title>
<g id="a_Node000023"><a xlink:href="../../dc/d31/str-buf_8h.html#a01c1a4f8ed76b6a919595b803c7d7376" target="_top" xlink:title=" ">
<polygon fill="white" stroke="#666666" points="1310.12,-293.75 1225.88,-293.75 1225.88,-274.5 1310.12,-274.5 1310.12,-293.75"/>
<text text-anchor="middle" x="1268" y="-280.25" font-family="Helvetica,sans-Serif" font-size="10.00">sb_set_trailing0</text>
</a>
</g>
</g>
<!-- Node22&#45;&gt;Node23 -->
<g id="edge25_Node000022_Node000023" class="edge">
<title>Node22&#45;&gt;Node23</title>
<g id="a_edge25_Node000022_Node000023"><a xlink:title=" ">
<path fill="none" stroke="#63b8ff" d="M1158.34,-218.22C1170.63,-230.68 1193.09,-251.85 1215.75,-265.13 1218.38,-266.67 1221.17,-268.13 1224.02,-269.49"/>
<polygon fill="#63b8ff" stroke="#63b8ff" points="1222.54,-272.67 1233.11,-273.44 1225.33,-266.25 1222.54,-272.67"/>
</a>
</g>
</g>
<!-- Node25 -->
<g id="Node000025" class="node">
<title>Node25</title>
<g id="a_Node000025"><a xlink:href="../../d7/df8/log_8c.html#abca342edf91a9b45f7a17ef564fa8a53" target="_top" xlink:title=" ">
<polygon fill="white" stroke="#666666" points="1694.5,-180.75 1644.75,-180.75 1644.75,-161.5 1694.5,-161.5 1694.5,-180.75"/>
<text text-anchor="middle" x="1669.62" y="-167.25" font-family="Helvetica,sans-Serif" font-size="10.00">e_panic</text>
</a>
</g>
</g>
<!-- Node24&#45;&gt;Node25 -->
<g id="edge27_Node000024_Node000025" class="edge">
<title>Node24&#45;&gt;Node25</title>
<g id="a_edge27_Node000024_Node000025"><a xlink:title=" ">
<path fill="none" stroke="#63b8ff" d="M1179.71,-171.13C1270.59,-171.13 1536.21,-171.13 1632.9,-171.13"/>
<polygon fill="#63b8ff" stroke="#63b8ff" points="1632.84,-174.63 1642.84,-171.13 1632.84,-167.63 1632.84,-174.63"/>
</a>
</g>
</g>
<!-- Node48 -->
<g id="Node000048" class="node">
<title>Node48</title>
<g id="a_Node000048"><a xlink:href="../../d9/d9a/mem_8h.html#a3fd6d5b3dcb24f194848ce86f988fb13" target="_top" xlink:title=" ">
<polygon fill="white" stroke="#666666" points="1295.5,-255.75 1240.5,-255.75 1240.5,-236.5 1295.5,-236.5 1295.5,-255.75"/>
<text text-anchor="middle" x="1268" y="-242.25" font-family="Helvetica,sans-Serif" font-size="10.00">mp_ipool</text>
</a>
</g>
</g>
<!-- Node24&#45;&gt;Node48 -->
<g id="edge39_Node000024_Node000048" class="edge">
<title>Node24&#45;&gt;Node48</title>
<g id="a_edge39_Node000024_Node000048"><a xlink:title=" ">
<path fill="none" stroke="#63b8ff" d="M1168.03,-181.12C1172.05,-183.53 1176.16,-186.25 1179.75,-189.13 1198.16,-203.88 1196.04,-215.17 1215.75,-228.13 1219.99,-230.91 1224.7,-233.32 1229.51,-235.39"/>
<polygon fill="#63b8ff" stroke="#63b8ff" points="1228.03,-238.57 1238.62,-238.85 1230.52,-232.03 1228.03,-238.57"/>
</a>
</g>
</g>
<!-- Node49 -->
<g id="Node000049" class="node">
<title>Node49</title>
<g id="a_Node000049"><a xlink:href="../../d9/d9a/mem_8h.html#a15958df365e5c2cc90a6c0c3e7e0e74f" target="_top" xlink:title=" ">
<polygon fill="white" stroke="#666666" points="1320.25,-86.75 1215.75,-86.75 1215.75,-67.5 1320.25,-67.5 1320.25,-86.75"/>
<text text-anchor="middle" x="1268" y="-73.25" font-family="Helvetica,sans-Serif" font-size="10.00">mp_irealloc_fallback</text>
</a>
</g>
</g>
<!-- Node24&#45;&gt;Node49 -->
<g id="edge40_Node000024_Node000049" class="edge">
<title>Node24&#45;&gt;Node49</title>
<g id="a_edge40_Node000024_Node000049"><a xlink:title=" ">
<path fill="none" stroke="#63b8ff" d="M1167.47,-161.03C1171.61,-158.59 1175.9,-155.88 1179.75,-153.13 1205.07,-135.01 1231.71,-110.97 1248.79,-94.83"/>
<polygon fill="#63b8ff" stroke="#63b8ff" points="1250.89,-97.66 1255.7,-88.22 1246.05,-92.6 1250.89,-97.66"/>
</a>
</g>
</g>
<!-- Node61 -->
<g id="Node000061" class="node">
<title>Node61</title>
<g id="a_Node000061"><a xlink:href="../../d4/d02/str-buf_8c.html#a63ddc4121cc8fbd2d5fd2a6d65a24feb" target="_top" xlink:title=" ">
<polygon fill="white" stroke="#666666" points="1311.25,-218.75 1224.75,-218.75 1224.75,-199.5 1311.25,-199.5 1311.25,-218.75"/>
<text text-anchor="middle" x="1268" y="-205.25" font-family="Helvetica,sans-Serif" font-size="10.00">sb_destroy_skip</text>
</a>
</g>
</g>
<!-- Node24&#45;&gt;Node61 -->
<g id="edge51_Node000024_Node000061" class="edge">
<title>Node24&#45;&gt;Node61</title>
<g id="a_edge51_Node000024_Node000061"><a xlink:title=" ">
<path fill="none" stroke="#63b8ff" d="M1179.82,-181.11C1193.69,-185.57 1210.25,-190.89 1225.2,-195.7"/>
<polygon fill="#63b8ff" stroke="#63b8ff" points="1223.7,-198.89 1234.29,-198.62 1225.84,-192.23 1223.7,-198.89"/>
</a>
</g>
</g>
<!-- Node26 -->
<g id="Node000026" class="node">
<title>Node26</title>
<g id="a_Node000026"><a xlink:href="../../d7/df8/log_8c.html#a4bc04f7baa1e064cb0b93c7b9f3a61a1" target="_top" xlink:title=" ">
<polygon fill="white" stroke="#666666" points="1857.12,-261.75 1769.12,-261.75 1769.12,-242.5 1857.12,-242.5 1857.12,-261.75"/>
<text text-anchor="middle" x="1813.12" y="-248.25" font-family="Helvetica,sans-Serif" font-size="10.00">__logger_refresh</text>
</a>
</g>
</g>
<!-- Node25&#45;&gt;Node26 -->
<g id="edge28_Node000025_Node000026" class="edge">
<title>Node25&#45;&gt;Node26</title>
<g id="a_edge28_Node000025_Node000026"><a xlink:title=" ">
<path fill="none" stroke="#63b8ff" d="M1688.26,-181.22C1712.54,-195.12 1756.49,-220.28 1784.98,-236.59"/>
<polygon fill="#63b8ff" stroke="#63b8ff" points="1782.98,-239.48 1793.4,-241.41 1786.46,-233.4 1782.98,-239.48"/>
</a>
</g>
</g>
<!-- Node43 -->
<g id="Node000043" class="node">
<title>Node43</title>
<g id="a_Node000043"><a xlink:href="../../d7/df8/log_8c.html#a900490b26df7698aac12f7f7e6517e81" target="_top" xlink:title=" ">
<polygon fill="white" stroke="#666666" points="1845.88,-194.75 1780.38,-194.75 1780.38,-175.5 1845.88,-175.5 1845.88,-194.75"/>
<text text-anchor="middle" x="1813.12" y="-181.25" font-family="Helvetica,sans-Serif" font-size="10.00">logger_vlog</text>
</a>
</g>
</g>
<!-- Node25&#45;&gt;Node43 -->
<g id="edge35_Node000025_Node000043" class="edge">
<title>Node25&#45;&gt;Node43</title>
<g id="a_edge35_Node000025_Node000043"><a xlink:title=" ">
<path fill="none" stroke="#63b8ff" d="M1694.95,-173.54C1715.12,-175.53 1744.3,-178.42 1768.49,-180.81"/>
<polygon fill="#63b8ff" stroke="#63b8ff" points="1768.1,-184.29 1778.4,-181.79 1768.79,-177.32 1768.1,-184.29"/>
</a>
</g>
</g>
<!-- Node47 -->
<g id="Node000047" class="node">
<title>Node47</title>
<g id="a_Node000047"><a xlink:href="../../d2/d4d/file_8h.html#a25419a391fdd4ad7954699c58cfeb3b9" target="_top" xlink:title=" ">
<polygon fill="white" stroke="#666666" points="1838.75,-157.75 1787.5,-157.75 1787.5,-138.5 1838.75,-138.5 1838.75,-157.75"/>
<text text-anchor="middle" x="1813.12" y="-144.25" font-family="Helvetica,sans-Serif" font-size="10.00">va_start</text>
</a>
</g>
</g>
<!-- Node25&#45;&gt;Node47 -->
<g id="edge38_Node000025_Node000047" class="edge">
<title>Node25&#45;&gt;Node47</title>
<g id="a_edge38_Node000025_Node000047"><a xlink:title=" ">
<path fill="none" stroke="#63b8ff" d="M1694.95,-167.18C1717.29,-163.54 1750.68,-158.12 1776.11,-153.98"/>
<polygon fill="#63b8ff" stroke="#63b8ff" points="1776.36,-157.49 1785.67,-152.43 1775.24,-150.58 1776.36,-157.49"/>
</a>
</g>
</g>
<!-- Node27 -->
<g id="Node000027" class="node">
<title>Node27</title>
<g id="a_Node000027"><a xlink:href="../../d7/df8/log_8c.html#a3dbd75fb614210f0b114cfd03c9c0a7b" target="_top" xlink:title=" ">
<polygon fill="#fff0f0" stroke="red" points="2004,-279.75 1900.25,-279.75 1900.25,-260.5 2004,-260.5 2004,-279.75"/>
<text text-anchor="middle" x="1952.12" y="-266.25" font-family="Helvetica,sans-Serif" font-size="10.00">__logger_do_refresh</text>
</a>
</g>
</g>
<!-- Node26&#45;&gt;Node27 -->
<g id="edge29_Node000026_Node000027" class="edge">
<title>Node26&#45;&gt;Node27</title>
<g id="a_edge29_Node000026_Node000027"><a xlink:title=" ">
<path fill="none" stroke="#63b8ff" d="M1857.47,-257.82C1867.37,-259.13 1878.09,-260.53 1888.62,-261.92"/>
<polygon fill="#63b8ff" stroke="#63b8ff" points="1888.05,-265.37 1898.42,-263.2 1888.96,-258.43 1888.05,-265.37"/>
</a>
</g>
</g>
<!-- Node41 -->
<g id="Node000041" class="node">
<title>Node41</title>
<g id="a_Node000041"><a xlink:href="../../d7/df8/log_8c.html#a7b1b02d1986e1247c2f571af4a2c2854" target="_top" xlink:title=" ">
<polygon fill="white" stroke="#666666" points="1989.75,-242.75 1914.5,-242.75 1914.5,-223.5 1989.75,-223.5 1989.75,-242.75"/>
<text text-anchor="middle" x="1952.12" y="-229.25" font-family="Helvetica,sans-Serif" font-size="10.00">log_spin_lock</text>
</a>
</g>
</g>
<!-- Node26&#45;&gt;Node41 -->
<g id="edge33_Node000026_Node000041" class="edge">
<title>Node26&#45;&gt;Node41</title>
<g id="a_edge33_Node000026_Node000041"><a xlink:title=" ">
<path fill="none" stroke="#63b8ff" d="M1857.47,-246.12C1871.97,-244.11 1888.2,-241.86 1903.03,-239.8"/>
<polygon fill="#63b8ff" stroke="#63b8ff" points="1903.13,-243.32 1912.55,-238.48 1902.17,-236.39 1903.13,-243.32"/>
</a>
</g>
</g>
<!-- Node42 -->
<g id="Node000042" class="node">
<title>Node42</title>
<g id="a_Node000042"><a xlink:href="../../d1/dc0/group__log.html#ga045020bb4af234632f7761f220131c69" target="_top" xlink:title=" ">
<polygon fill="white" stroke="#666666" points="1995,-334.75 1909.25,-334.75 1909.25,-315.5 1995,-315.5 1995,-334.75"/>
<text text-anchor="middle" x="1952.12" y="-321.25" font-family="Helvetica,sans-Serif" font-size="10.00">log_spin_unlock</text>
</a>
</g>
</g>
<!-- Node26&#45;&gt;Node42 -->
<g id="edge34_Node000026_Node000042" class="edge">
<title>Node26&#45;&gt;Node42</title>
<g id="a_edge34_Node000026_Node000042"><a xlink:title=" ">
<path fill="none" stroke="#63b8ff" d="M1827.58,-262.1C1844.06,-273.99 1873.15,-293.9 1900.25,-307.13 1902.96,-308.45 1905.79,-309.73 1908.67,-310.94"/>
<polygon fill="#63b8ff" stroke="#63b8ff" points="1907.19,-314.12 1917.78,-314.53 1909.76,-307.61 1907.19,-314.12"/>
</a>
</g>
</g>
<!-- Node27&#45;&gt;Node10 -->
<g id="edge32_Node000027_Node000010" class="edge">
<title>Node27&#45;&gt;Node10</title>
<g id="a_edge32_Node000027_Node000010"><a xlink:title=" ">
<path fill="none" stroke="#63b8ff" d="M1967.48,-280.13C1986.48,-293.37 2020.21,-316.88 2042.96,-332.73"/>
<polygon fill="#63b8ff" stroke="#63b8ff" points="2040.81,-335.49 2051.02,-338.34 2044.81,-329.75 2040.81,-335.49"/>
</a>
</g>
</g>
<!-- Node27&#45;&gt;Node27 -->
<g id="edge30_Node000027_Node000027" class="edge">
<title>Node27&#45;&gt;Node27</title>
<g id="a_edge30_Node000027_Node000027"><a xlink:title=" ">
<path fill="none" stroke="#63b8ff" d="M1934.06,-280.04C1925.82,-288.65 1931.84,-297.75 1952.12,-297.75 1963.22,-297.75 1970.04,-295.03 1972.6,-291.16"/>
<polygon fill="#63b8ff" stroke="#63b8ff" points="1976.05,-290.55 1970.51,-281.52 1969.21,-292.04 1976.05,-290.55"/>
</a>
</g>
</g>
<!-- Node28 -->
<g id="Node000028" class="node">
<title>Node28</title>
<g id="a_Node000028"><a xlink:href="../../de/d1a/container-dlist_8h.html#a3b6f65860b212e28f2e28e71eb54d54d" target="_top" xlink:title="Add element e at the head of list l (suited for LIFO).">
<polygon fill="#fff0f0" stroke="red" points="2095,-279.75 2040,-279.75 2040,-260.5 2095,-260.5 2095,-279.75"/>
<text text-anchor="middle" x="2067.5" y="-266.25" font-family="Helvetica,sans-Serif" font-size="10.00">dlist_add</text>
</a>
</g>
</g>
<!-- Node27&#45;&gt;Node28 -->
<g id="edge31_Node000027_Node000028" class="edge">
<title>Node27&#45;&gt;Node28</title>
<g id="a_edge31_Node000027_Node000028"><a xlink:title=" ">
<path fill="none" stroke="#63b8ff" d="M2004.17,-270.13C2012.29,-270.13 2020.57,-270.13 2028.32,-270.13"/>
<polygon fill="#63b8ff" stroke="#63b8ff" points="2028.09,-273.63 2038.09,-270.13 2028.09,-266.63 2028.09,-273.63"/>
</a>
</g>
</g>
<!-- Node44 -->
<g id="Node000044" class="node">
<title>Node44</title>
<g id="a_Node000044"><a xlink:href="../../d1/dc0/group__log.html#ga168a6f17b248f61f7d25a17d58d04e36" target="_top" xlink:title=" ">
<polygon fill="#fff0f0" stroke="red" points="1996.5,-164.75 1907.75,-164.75 1907.75,-145.5 1996.5,-145.5 1996.5,-164.75"/>
<text text-anchor="middle" x="1952.12" y="-151.25" font-family="Helvetica,sans-Serif" font-size="10.00">logger_has_level</text>
</a>
</g>
</g>
<!-- Node43&#45;&gt;Node44 -->
<g id="edge36_Node000043_Node000044" class="edge">
<title>Node43&#45;&gt;Node44</title>
<g id="a_edge36_Node000043_Node000044"><a xlink:title=" ">
<path fill="none" stroke="#63b8ff" d="M1846.25,-178.1C1861.17,-174.83 1879.33,-170.85 1896.33,-167.13"/>
<polygon fill="#63b8ff" stroke="#63b8ff" points="1896.78,-170.61 1905.8,-165.05 1895.28,-163.77 1896.78,-170.61"/>
</a>
</g>
</g>
<!-- Node31 -->
<g id="Node000031" class="node">
<title>Node31</title>
<g id="a_Node000031"><a xlink:href="../../df/d0a/str-l_8h.html#a6a200ca09358f19b13a8e297cda34869" target="_top" xlink:title="returns a constant copy of \v s.">
<polygon fill="#fff0f0" stroke="red" points="1980,-201.75 1924.25,-201.75 1924.25,-182.5 1980,-182.5 1980,-201.75"/>
<text text-anchor="middle" x="1952.12" y="-188.25" font-family="Helvetica,sans-Serif" font-size="10.00">lstr_dupc</text>
</a>
</g>
</g>
<!-- Node43&#45;&gt;Node31 -->
<g id="edge37_Node000043_Node000031" class="edge">
<title>Node43&#45;&gt;Node31</title>
<g id="a_edge37_Node000043_Node000031"><a xlink:title=" ">
<path fill="none" stroke="#63b8ff" d="M1846.25,-186.77C1866.04,-187.78 1891.54,-189.08 1912.44,-190.15"/>
<polygon fill="#63b8ff" stroke="#63b8ff" points="1912.15,-193.64 1922.31,-190.66 1912.51,-186.65 1912.15,-193.64"/>
</a>
</g>
</g>
<!-- Node50 -->
<g id="Node000050" class="node">
<title>Node50</title>
<g id="a_Node000050"><a xlink:href="../../d8/d37/mem_8blk.html#a2fa974dc4e9f038e5bc400eb689b74b4" target="_top" xlink:title=" ">
<polygon fill="white" stroke="#666666" points="1471.25,-86.75 1356.25,-86.75 1356.25,-67.5 1471.25,-67.5 1471.25,-86.75"/>
<text text-anchor="middle" x="1413.75" y="-73.25" font-family="Helvetica,sans-Serif" font-size="10.00">__mp_irealloc_fallback</text>
</a>
</g>
</g>
<!-- Node49&#45;&gt;Node50 -->
<g id="edge41_Node000049_Node000050" class="edge">
<title>Node49&#45;&gt;Node50</title>
<g id="a_edge41_Node000049_Node000050"><a xlink:title=" ">
<path fill="none" stroke="#63b8ff" d="M1320.49,-77.13C1328.27,-77.13 1336.39,-77.13 1344.45,-77.13"/>
<polygon fill="#63b8ff" stroke="#63b8ff" points="1344.25,-80.63 1354.25,-77.13 1344.25,-73.63 1344.25,-80.63"/>
</a>
</g>
</g>
<!-- Node56 -->
<g id="Node000056" class="node">
<title>Node56</title>
<g id="a_Node000056"><a xlink:href="../../d9/d9a/mem_8h.html#ae99e17ad0b27e94e8a00c8af9734a0e7" target="_top" xlink:title=" ">
<polygon fill="white" stroke="#666666" points="1726,-31.75 1613.25,-31.75 1613.25,-12.5 1726,-12.5 1726,-31.75"/>
<text text-anchor="middle" x="1669.62" y="-18.25" font-family="Helvetica,sans-Serif" font-size="10.00">icheck_alloc_constant</text>
</a>
</g>
</g>
<!-- Node49&#45;&gt;Node56 -->
<g id="edge50_Node000049_Node000056" class="edge">
<title>Node49&#45;&gt;Node56</title>
<g id="a_edge50_Node000049_Node000056"><a xlink:title=" ">
<path fill="none" stroke="#63b8ff" d="M1292.78,-67.1C1335.03,-49.89 1426.32,-15.41 1507.25,-3.13 1538.01,1.54 1546.3,0.05 1577.25,-3.13 1590.46,-4.49 1604.59,-6.93 1617.68,-9.61"/>
<polygon fill="#63b8ff" stroke="#63b8ff" points="1616.88,-13.02 1627.39,-11.7 1618.35,-6.18 1616.88,-13.02"/>
</a>
</g>
</g>
<!-- Node51 -->
<g id="Node000051" class="node">
<title>Node51</title>
<g id="a_Node000051"><a xlink:href="../../d8/d37/mem_8blk.html#a8e4fbf6500e65079c31e3fd933ae7dc1" target="_top" xlink:title=" ">
<polygon fill="white" stroke="#666666" points="1577.25,-142.75 1507.25,-142.75 1507.25,-123.5 1577.25,-123.5 1577.25,-142.75"/>
<text text-anchor="middle" x="1542.25" y="-129.25" font-family="Helvetica,sans-Serif" font-size="10.00">icheck_alloc</text>
</a>
</g>
</g>
<!-- Node50&#45;&gt;Node51 -->
<g id="edge42_Node000050_Node000051" class="edge">
<title>Node50&#45;&gt;Node51</title>
<g id="a_edge42_Node000050_Node000051"><a xlink:title=" ">
<path fill="none" stroke="#63b8ff" d="M1437.37,-87.14C1457.03,-95.85 1485.78,-108.58 1508.06,-118.44"/>
<polygon fill="#63b8ff" stroke="#63b8ff" points="1506.46,-121.56 1517.02,-122.4 1509.29,-115.15 1506.46,-121.56"/>
</a>
</g>
</g>
<!-- Node39 -->
<g id="Node000039" class="node">
<title>Node39</title>
<g id="a_Node000039"><a xlink:href="../../d8/d37/mem_8blk.html#a83c7cf203e5eef9d1a8c6c43cde3e2e5" target="_top" xlink:title=" ">
<polygon fill="white" stroke="#666666" points="1569,-105.75 1515.5,-105.75 1515.5,-86.5 1569,-86.5 1569,-105.75"/>
<text text-anchor="middle" x="1542.25" y="-92.25" font-family="Helvetica,sans-Serif" font-size="10.00">mp_ifree</text>
</a>
</g>
</g>
<!-- Node50&#45;&gt;Node39 -->
<g id="edge44_Node000050_Node000039" class="edge">
<title>Node50&#45;&gt;Node39</title>
<g id="a_edge44_Node000050_Node000039"><a xlink:title=" ">
<path fill="none" stroke="#63b8ff" d="M1471.71,-85.68C1482.64,-87.33 1493.83,-89.01 1503.95,-90.53"/>
<polygon fill="#63b8ff" stroke="#63b8ff" points="1503.35,-93.98 1513.76,-92 1504.39,-87.05 1503.35,-93.98"/>
</a>
</g>
</g>
<!-- Node52 -->
<g id="Node000052" class="node">
<title>Node52</title>
<g id="a_Node000052"><a xlink:href="../../d9/d9a/mem_8h.html#ada6bb9661f0c10ccaa14d231c24aeafd" target="_top" xlink:title=" ">
<polygon fill="#fff0f0" stroke="red" points="1575,-68.75 1509.5,-68.75 1509.5,-49.5 1575,-49.5 1575,-68.75"/>
<text text-anchor="middle" x="1542.25" y="-55.25" font-family="Helvetica,sans-Serif" font-size="10.00">mp_imalloc</text>
</a>
</g>
</g>
<!-- Node50&#45;&gt;Node52 -->
<g id="edge45_Node000050_Node000052" class="edge">
<title>Node50&#45;&gt;Node52</title>
<g id="a_edge45_Node000050_Node000052"><a xlink:title=" ">
<path fill="none" stroke="#63b8ff" d="M1471.71,-69.02C1480.55,-67.77 1489.55,-66.49 1498.02,-65.28"/>
<polygon fill="#63b8ff" stroke="#63b8ff" points="1498.26,-68.78 1507.67,-63.91 1497.28,-61.85 1498.26,-68.78"/>
</a>
</g>
</g>
<!-- Node58 -->
<g id="Node000058" class="node">
<title>Node58</title>
<g id="a_Node000058"><a xlink:href="../../d9/d9a/mem_8h.html#aabfb5bf96a257374cbc245548b81c4ff" target="_top" xlink:title=" ">
<polygon fill="#fff0f0" stroke="red" points="1575,-31.75 1509.5,-31.75 1509.5,-12.5 1575,-12.5 1575,-31.75"/>
<text text-anchor="middle" x="1542.25" y="-18.25" font-family="Helvetica,sans-Serif" font-size="10.00">mp_irealloc</text>
</a>
</g>
</g>
<!-- Node50&#45;&gt;Node58 -->
<g id="edge48_Node000050_Node000058" class="edge">
<title>Node50&#45;&gt;Node58</title>
<g id="a_edge48_Node000050_Node000058"><a xlink:title=" ">
<path fill="none" stroke="#63b8ff" d="M1437.95,-67.04C1457.48,-58.55 1485.65,-46.3 1507.65,-36.74"/>
<polygon fill="#63b8ff" stroke="#63b8ff" points="1509.03,-39.95 1516.81,-32.76 1506.24,-33.53 1509.03,-39.95"/>
</a>
</g>
</g>
<!-- Node51&#45;&gt;Node25 -->
<g id="edge43_Node000051_Node000025" class="edge">
<title>Node51&#45;&gt;Node25</title>
<g id="a_edge43_Node000051_Node000025"><a xlink:title=" ">
<path fill="none" stroke="#63b8ff" d="M1576.52,-143.21C1594.1,-148.54 1615.67,-155.08 1633.52,-160.49"/>
<polygon fill="#63b8ff" stroke="#63b8ff" points="1632.32,-163.78 1642.9,-163.33 1634.35,-157.08 1632.32,-163.78"/>
</a>
</g>
</g>
<!-- Node52&#45;&gt;Node56 -->
<g id="edge46_Node000052_Node000056" class="edge">
<title>Node52&#45;&gt;Node56</title>
<g id="a_edge46_Node000052_Node000056"><a xlink:title=" ">
<path fill="none" stroke="#63b8ff" d="M1575.21,-49.7C1589.95,-45.35 1607.69,-40.11 1623.74,-35.37"/>
<polygon fill="#63b8ff" stroke="#63b8ff" points="1624.47,-38.81 1633.07,-32.62 1622.49,-32.09 1624.47,-38.81"/>
</a>
</g>
</g>
<!-- Node57 -->
<g id="Node000057" class="node">
<title>Node57</title>
<g id="a_Node000057"><a xlink:href="../../d8/d37/mem_8blk.html#a377e36d6fbaf3ee7f1b217559cb0c850" target="_top" xlink:title=" ">
<polygon fill="white" stroke="#666666" points="1864.25,-31.75 1762,-31.75 1762,-12.5 1864.25,-12.5 1864.25,-31.75"/>
<text text-anchor="middle" x="1813.12" y="-18.25" font-family="Helvetica,sans-Serif" font-size="10.00">__imalloc_too_large</text>
</a>
</g>
</g>
<!-- Node56&#45;&gt;Node57 -->
<g id="edge47_Node000056_Node000057" class="edge">
<title>Node56&#45;&gt;Node57</title>
<g id="a_edge47_Node000056_Node000057"><a xlink:title=" ">
<path fill="none" stroke="#63b8ff" d="M1726.14,-22.13C1734.14,-22.13 1742.41,-22.13 1750.52,-22.13"/>
<polygon fill="#63b8ff" stroke="#63b8ff" points="1750.32,-25.63 1760.32,-22.13 1750.32,-18.63 1750.32,-25.63"/>
</a>
</g>
</g>
<!-- Node58&#45;&gt;Node56 -->
<g id="edge49_Node000058_Node000056" class="edge">
<title>Node58&#45;&gt;Node56</title>
<g id="a_edge49_Node000058_Node000056"><a xlink:title=" ">
<path fill="none" stroke="#63b8ff" d="M1575.21,-22.13C1583.36,-22.13 1592.43,-22.13 1601.63,-22.13"/>
<polygon fill="#63b8ff" stroke="#63b8ff" points="1601.33,-25.63 1611.33,-22.13 1601.33,-18.63 1601.33,-25.63"/>
</a>
</g>
</g>
<!-- Node64 -->
<g id="Node000064" class="node">
<title>Node64</title>
<g id="a_Node000064"><a xlink:href="../../d4/d02/str-buf_8c.html#a4a2eff2f7383d95c9ede6af667197566" target="_top" xlink:title=" ">
<polygon fill="white" stroke="#666666" points="928.38,-293.75 864.38,-293.75 864.38,-274.5 928.38,-274.5 928.38,-293.75"/>
<text text-anchor="middle" x="896.38" y="-280.25" font-family="Helvetica,sans-Serif" font-size="10.00">__sb_reset</text>
</a>
</g>
</g>
<!-- Node63&#45;&gt;Node64 -->
<g id="edge54_Node000063_Node000064" class="edge">
<title>Node63&#45;&gt;Node64</title>
<g id="a_edge54_Node000063_Node000064"><a xlink:title=" ">
<path fill="none" stroke="#63b8ff" d="M803.95,-309.81C818.34,-305.76 836.57,-300.64 852.96,-296.04"/>
<polygon fill="#63b8ff" stroke="#63b8ff" points="853.8,-299.44 862.48,-293.37 851.91,-292.7 853.8,-299.44"/>
</a>
</g>
</g>
<!-- Node64&#45;&gt;Node48 -->
<g id="edge55_Node000064_Node000048" class="edge">
<title>Node64&#45;&gt;Node48</title>
<g id="a_edge55_Node000064_Node000048"><a xlink:title=" ">
<path fill="none" stroke="#63b8ff" d="M928.57,-280.92C996,-273.99 1155.17,-257.63 1228.62,-250.07"/>
<polygon fill="#63b8ff" stroke="#63b8ff" points="1228.97,-253.56 1238.56,-249.05 1228.25,-246.59 1228.97,-253.56"/>
</a>
</g>
</g>
<!-- Node65 -->
<g id="Node000065" class="node">
<title>Node65</title>
<g id="a_Node000065"><a xlink:href="../../dc/d31/str-buf_8h.html#a6dc2ca5bc1506b37f95463e6abe4e201" target="_top" xlink:title=" ">
<polygon fill="white" stroke="#666666" points="1179,-293.75 1116.5,-293.75 1116.5,-274.5 1179,-274.5 1179,-293.75"/>
<text text-anchor="middle" x="1147.75" y="-280.25" font-family="Helvetica,sans-Serif" font-size="10.00">sb_init_full</text>
</a>
</g>
</g>
<!-- Node64&#45;&gt;Node65 -->
<g id="edge56_Node000064_Node000065" class="edge">
<title>Node64&#45;&gt;Node65</title>
<g id="a_edge56_Node000064_Node000065"><a xlink:title=" ">
<path fill="none" stroke="#63b8ff" d="M928.71,-284.13C973.27,-284.13 1055.07,-284.13 1104.82,-284.13"/>
<polygon fill="#63b8ff" stroke="#63b8ff" points="1104.62,-287.63 1114.62,-284.13 1104.62,-280.63 1104.62,-287.63"/>
</a>
</g>
</g>
<!-- Node66 -->
<g id="Node000066" class="node">
<title>Node66</title>
<g id="a_Node000066"><a xlink:href="../../d4/d02/str-buf_8c.html#a7ab29759b9a4ccea4138a4f64031ce08" target="_top" xlink:title="Resets the buffer but keeps the allocated memory, however big it is.">
<polygon fill="white" stroke="#666666" points="1079.75,-331.75 973,-331.75 973,-312.5 1079.75,-312.5 1079.75,-331.75"/>
<text text-anchor="middle" x="1026.38" y="-318.25" font-family="Helvetica,sans-Serif" font-size="10.00">sb_reset_keep_mem</text>
</a>
</g>
</g>
<!-- Node64&#45;&gt;Node66 -->
<g id="edge58_Node000064_Node000066" class="edge">
<title>Node64&#45;&gt;Node66</title>
<g id="a_edge58_Node000064_Node000066"><a xlink:title=" ">
<path fill="none" stroke="#63b8ff" d="M928.69,-293.43C944.35,-298.08 963.59,-303.79 980.76,-308.89"/>
<polygon fill="#63b8ff" stroke="#63b8ff" points="979.66,-312.21 990.25,-311.7 981.65,-305.5 979.66,-312.21"/>
</a>
</g>
</g>
<!-- Node65&#45;&gt;Node23 -->
<g id="edge57_Node000065_Node000023" class="edge">
<title>Node65&#45;&gt;Node23</title>
<g id="a_edge57_Node000065_Node000023"><a xlink:title=" ">
<path fill="none" stroke="#63b8ff" d="M1179.2,-284.13C1189.89,-284.13 1202.22,-284.13 1214.2,-284.13"/>
<polygon fill="#63b8ff" stroke="#63b8ff" points="1214,-287.63 1224,-284.13 1214,-280.63 1214,-287.63"/>
</a>
</g>
</g>
<!-- Node66&#45;&gt;Node65 -->
<g id="edge59_Node000066_Node000065" class="edge">
<title>Node66&#45;&gt;Node65</title>
<g id="a_edge59_Node000066_Node000065"><a xlink:title=" ">
<path fill="none" stroke="#63b8ff" d="M1059.05,-312.05C1073.28,-307.52 1090.26,-302.11 1105.47,-297.27"/>
<polygon fill="#63b8ff" stroke="#63b8ff" points="1106.25,-300.69 1114.72,-294.33 1104.13,-294.02 1106.25,-300.69"/>
</a>
</g>
</g>
<!-- Node67&#45;&gt;Node64 -->
<g id="edge61_Node000067_Node000064" class="edge">
<title>Node67&#45;&gt;Node64</title>
<g id="a_edge61_Node000067_Node000064"><a xlink:title=" ">
<path fill="none" stroke="#63b8ff" d="M803.37,-281C817.85,-281.49 836.34,-282.12 852.95,-282.69"/>
<polygon fill="#63b8ff" stroke="#63b8ff" points="852.44,-286.17 862.56,-283.01 852.68,-279.17 852.44,-286.17"/>
</a>
</g>
</g>
</g>
</svg>
