<?xml version="1.0" encoding="UTF-8" standalone="no"?>
<!DOCTYPE svg PUBLIC "-//W3C//DTD SVG 1.1//EN"
 "http://www.w3.org/Graphics/SVG/1.1/DTD/svg11.dtd">
<!-- Generated by graphviz version 9.0.0 (20230911.1827)
 -->
<!-- Title: parse_qvalue Pages: 1 -->
<!--zoomable 158 -->

<svg id="main" version="1.1" xmlns="http://www.w3.org/2000/svg" xmlns:xlink="http://www.w3.org/1999/xlink" xml:space="preserve" onload="init(evt)">
<style type="text/css"><![CDATA[
.node, .edge {opacity: 0.7;}
.node.selected, .edge.selected {opacity: 1;}
.edge:hover path { stroke: red; }
.edge:hover polygon { stroke: red; fill: red; }
]]></style>

<defs>
  <circle id="rim" cx="0" cy="0" r="7"/>
  <circle id="rim2" cx="0" cy="0" r="3.5"/>
  <g id="zoomPlus">
    <use xlink:href="#rim" fill="#404040"><set attributeName="fill" to="#808080" begin="zoomplus.mouseover" end="zoomplus.mouseout"/></use>
    <path d="M-4,0h8M0,-4v8" fill="none" stroke="white" stroke-width="1.5" pointer-events="none"/>
  </g>
  <g id="zoomMin">
    <use xlink:href="#rim" fill="#404040"><set attributeName="fill" to="#808080" begin="zoomminus.mouseover" end="zoomminus.mouseout"/></use>
    <path d="M-4,0h8" fill="none" stroke="white" stroke-width="1.5" pointer-events="none"/>
  </g>
  <g id="arrowUp" transform="translate(30 24)">
    <use xlink:href="#rim"/>
    <path pointer-events="none" fill="none" stroke="white" stroke-width="1.5" d="M0,-3.0v7 M-2.5,-0.5L0,-3.0L2.5,-0.5"/>
  </g>
  <g id="arrowRight" transform="rotate(90) translate(36 -43)">
    <use xlink:href="#rim"/>
    <path pointer-events="none" fill="none" stroke="white" stroke-width="1.5" d="M0,-3.0v7 M-2.5,-0.5L0,-3.0L2.5,-0.5"/>
  </g>
  <g id="arrowDown" transform="rotate(180) translate(-30 -48)">
    <use xlink:href="#rim"/>
    <path pointer-events="none" fill="none" stroke="white" stroke-width="1.5" d="M0,-3.0v7 M-2.5,-0.5L0,-3.0L2.5,-0.5"/>
  </g>
  <g id="arrowLeft" transform="rotate(270) translate(-36 17)">
    <use xlink:href="#rim"/>
    <path pointer-events="none" fill="none" stroke="white" stroke-width="1.5" d="M0,-3.0v7 M-2.5,-0.5L0,-3.0L2.5,-0.5"/>
  </g>
  <g id="resetDef">
    <use xlink:href="#rim2" fill="#404040"><set attributeName="fill" to="#808080" begin="reset.mouseover" end="reset.mouseout"/></use>
  </g>
</defs>
<script type="application/ecmascript">
var viewWidth = 539;
var viewHeight = 158;
var sectionId = 'dynsection-497';
</script>
<script type="application/ecmascript" xlink:href="../../svg.min.js"/>
<svg id="graph" class="graph">
<g id="viewport">
<title>parse_qvalue</title>
<!-- Node1 -->
<g id="Node000001" class="node">
<title>Node1</title>
<g id="a_Node000001"><a xlink:title=" ">
<polygon fill="#999999" stroke="#666666" points="73.75,-92.55 0,-92.55 0,-73.3 73.75,-73.3 73.75,-92.55"/>
<text text-anchor="middle" x="36.88" y="-79.05" font-family="Helvetica,sans-Serif" font-size="10.00">parse_qvalue</text>
</a>
</g>
</g>
<!-- Node2 -->
<g id="Node000002" class="node">
<title>Node2</title>
<g id="a_Node000002"><a xlink:href="../../d4/d86/str-stream_8h.html#ae7e79a0c55fae102e38e4362cc43dce1" target="_top" xlink:title=" ">
<polygon fill="white" stroke="#666666" points="257.25,-149.55 196.25,-149.55 196.25,-130.3 257.25,-130.3 257.25,-149.55"/>
<text text-anchor="middle" x="226.75" y="-136.05" font-family="Helvetica,sans-Serif" font-size="10.00">__ps_getc</text>
</a>
</g>
</g>
<!-- Node1&#45;&gt;Node2 -->
<g id="edge1_Node000001_Node000002" class="edge">
<title>Node1&#45;&gt;Node2</title>
<g id="a_edge1_Node000001_Node000002"><a xlink:title=" ">
<path fill="none" stroke="#63b8ff" d="M53.2,-92.91C67.32,-101.65 89.15,-113.99 109.75,-120.92 133.96,-129.06 162.23,-133.79 184.8,-136.49"/>
<polygon fill="#63b8ff" stroke="#63b8ff" points="184.21,-139.94 194.53,-137.56 184.97,-132.98 184.21,-139.94"/>
</a>
</g>
</g>
<!-- Node4 -->
<g id="Node000004" class="node">
<title>Node4</title>
<g id="a_Node000004"><a xlink:href="../../d4/d86/str-stream_8h.html#ab34e4ed4459c611a797df76cab2e8846" target="_top" xlink:title=" ">
<polygon fill="white" stroke="#666666" points="442.25,-73.55 394.75,-73.55 394.75,-54.3 442.25,-54.3 442.25,-73.55"/>
<text text-anchor="middle" x="418.5" y="-60.05" font-family="Helvetica,sans-Serif" font-size="10.00">ps_has</text>
</a>
</g>
</g>
<!-- Node1&#45;&gt;Node4 -->
<g id="edge8_Node000001_Node000004" class="edge">
<title>Node1&#45;&gt;Node4</title>
<g id="a_edge8_Node000001_Node000004"><a xlink:title=" ">
<path fill="none" stroke="#63b8ff" d="M73.93,-81.12C146.89,-77.47 311.16,-69.24 382.89,-65.65"/>
<polygon fill="#63b8ff" stroke="#63b8ff" points="383.05,-69.15 392.86,-65.15 382.7,-62.16 383.05,-69.15"/>
</a>
</g>
</g>
<!-- Node6 -->
<g id="Node000006" class="node">
<title>Node6</title>
<g id="a_Node000006"><a xlink:href="../../d4/d86/str-stream_8h.html#acfd192f4458058cc85b3bfdc7d9bb79d" target="_top" xlink:title=" ">
<polygon fill="white" stroke="#666666" points="160.25,-111.55 109.75,-111.55 109.75,-92.3 160.25,-92.3 160.25,-111.55"/>
<text text-anchor="middle" x="135" y="-98.05" font-family="Helvetica,sans-Serif" font-size="10.00">ps_getc</text>
</a>
</g>
</g>
<!-- Node1&#45;&gt;Node6 -->
<g id="edge5_Node000001_Node000006" class="edge">
<title>Node1&#45;&gt;Node6</title>
<g id="a_edge5_Node000001_Node000006"><a xlink:title=" ">
<path fill="none" stroke="#63b8ff" d="M74.22,-90.1C82.07,-91.66 90.38,-93.3 98.22,-94.85"/>
<polygon fill="#63b8ff" stroke="#63b8ff" points="97.28,-98.23 107.77,-96.74 98.64,-91.37 97.28,-98.23"/>
</a>
</g>
</g>
<!-- Node7 -->
<g id="Node000007" class="node">
<title>Node7</title>
<g id="a_Node000007"><a xlink:href="../../d4/d86/str-stream_8h.html#abbd112e439a33211fc2b37ec9b08d645" target="_top" xlink:title=" ">
<polygon fill="white" stroke="#666666" points="254.25,-35.55 199.25,-35.55 199.25,-16.3 254.25,-16.3 254.25,-35.55"/>
<text text-anchor="middle" x="226.75" y="-22.05" font-family="Helvetica,sans-Serif" font-size="10.00">ps_skipc</text>
</a>
</g>
</g>
<!-- Node1&#45;&gt;Node7 -->
<g id="edge9_Node000001_Node000007" class="edge">
<title>Node1&#45;&gt;Node7</title>
<g id="a_edge9_Node000001_Node000007"><a xlink:title=" ">
<path fill="none" stroke="#63b8ff" d="M56.62,-72.89C70.85,-65.63 91.09,-56.05 109.75,-49.92 135.21,-41.56 164.8,-35.5 187.72,-31.55"/>
<polygon fill="#63b8ff" stroke="#63b8ff" points="188.25,-35.01 197.55,-29.93 187.11,-28.11 188.25,-35.01"/>
</a>
</g>
</g>
<!-- Node3 -->
<g id="Node000003" class="node">
<title>Node3</title>
<g id="a_Node000003"><a xlink:href="../../d4/d86/str-stream_8h.html#ae098817247881bad5d9318d4c6b712cf" target="_top" xlink:title=" ">
<polygon fill="white" stroke="#666666" points="356.12,-149.55 295.88,-149.55 295.88,-130.3 356.12,-130.3 356.12,-149.55"/>
<text text-anchor="middle" x="326" y="-136.05" font-family="Helvetica,sans-Serif" font-size="10.00">__ps_skip</text>
</a>
</g>
</g>
<!-- Node2&#45;&gt;Node3 -->
<g id="edge2_Node000002_Node000003" class="edge">
<title>Node2&#45;&gt;Node3</title>
<g id="a_edge2_Node000002_Node000003"><a xlink:title=" ">
<path fill="none" stroke="#63b8ff" d="M257.72,-139.92C266.1,-139.92 275.36,-139.92 284.25,-139.92"/>
<polygon fill="#63b8ff" stroke="#63b8ff" points="284.11,-143.42 294.11,-139.92 284.11,-136.42 284.11,-143.42"/>
</a>
</g>
</g>
<!-- Node3&#45;&gt;Node4 -->
<g id="edge3_Node000003_Node000004" class="edge">
<title>Node3&#45;&gt;Node4</title>
<g id="a_edge3_Node000003_Node000004"><a xlink:title=" ">
<path fill="none" stroke="#63b8ff" d="M340.78,-129.87C346.42,-125.66 352.98,-120.65 358.75,-115.92 372.39,-104.76 387.25,-91.59 398.62,-81.3"/>
<polygon fill="#63b8ff" stroke="#63b8ff" points="400.74,-84.1 405.77,-74.78 396.02,-78.93 400.74,-84.1"/>
</a>
</g>
</g>
<!-- Node5 -->
<g id="Node000005" class="node">
<title>Node5</title>
<g id="a_Node000005"><a xlink:href="../../d4/d86/str-stream_8h.html#a171f7ecffb1d3846b226cd8d7016aed7" target="_top" xlink:title=" ">
<polygon fill="white" stroke="#666666" points="531,-73.55 478.25,-73.55 478.25,-54.3 531,-54.3 531,-73.55"/>
<text text-anchor="middle" x="504.62" y="-60.05" font-family="Helvetica,sans-Serif" font-size="10.00">ps_done</text>
</a>
</g>
</g>
<!-- Node4&#45;&gt;Node5 -->
<g id="edge4_Node000004_Node000005" class="edge">
<title>Node4&#45;&gt;Node5</title>
<g id="a_edge4_Node000004_Node000005"><a xlink:title=" ">
<path fill="none" stroke="#63b8ff" d="M442.49,-63.92C449.96,-63.92 458.45,-63.92 466.68,-63.92"/>
<polygon fill="#63b8ff" stroke="#63b8ff" points="466.49,-67.42 476.49,-63.92 466.49,-60.42 466.49,-67.42"/>
</a>
</g>
</g>
<!-- Node6&#45;&gt;Node2 -->
<g id="edge6_Node000006_Node000002" class="edge">
<title>Node6&#45;&gt;Node2</title>
<g id="a_edge6_Node000006_Node000002"><a xlink:title=" ">
<path fill="none" stroke="#63b8ff" d="M159.58,-111.91C169.4,-116.06 180.98,-120.97 191.69,-125.5"/>
<polygon fill="#63b8ff" stroke="#63b8ff" points="190.05,-128.61 200.62,-129.28 192.78,-122.16 190.05,-128.61"/>
</a>
</g>
</g>
<!-- Node6&#45;&gt;Node4 -->
<g id="edge7_Node000006_Node000004" class="edge">
<title>Node6&#45;&gt;Node4</title>
<g id="a_edge7_Node000006_Node000004"><a xlink:title=" ">
<path fill="none" stroke="#63b8ff" d="M160.53,-100.3C201.71,-97.35 287.26,-90.24 358.75,-77.92 366.83,-76.53 375.45,-74.68 383.53,-72.79"/>
<polygon fill="#63b8ff" stroke="#63b8ff" points="384.12,-76.25 393.01,-70.48 382.46,-69.45 384.12,-76.25"/>
</a>
</g>
</g>
<!-- Node7&#45;&gt;Node4 -->
<g id="edge12_Node000007_Node000004" class="edge">
<title>Node7&#45;&gt;Node4</title>
<g id="a_edge12_Node000007_Node000004"><a xlink:title=" ">
<path fill="none" stroke="#63b8ff" d="M249.91,-15.96C276.66,-5.44 322.54,7.76 358.75,-6.92 377.61,-14.57 393.76,-31.5 404.33,-44.94"/>
<polygon fill="#63b8ff" stroke="#63b8ff" points="401.32,-46.76 410.09,-52.7 406.94,-42.59 401.32,-46.76"/>
</a>
</g>
</g>
<!-- Node8 -->
<g id="Node000008" class="node">
<title>Node8</title>
<g id="a_Node000008"><a xlink:href="../../d4/d86/str-stream_8h.html#ab49bd98b3b894ba0666d76f13d25b9c1" target="_top" xlink:title=" ">
<polygon fill="white" stroke="#666666" points="358.75,-35.55 293.25,-35.55 293.25,-16.3 358.75,-16.3 358.75,-35.55"/>
<text text-anchor="middle" x="326" y="-22.05" font-family="Helvetica,sans-Serif" font-size="10.00">__ps_skipc</text>
</a>
</g>
</g>
<!-- Node7&#45;&gt;Node8 -->
<g id="edge10_Node000007_Node000008" class="edge">
<title>Node7&#45;&gt;Node8</title>
<g id="a_edge10_Node000007_Node000008"><a xlink:title=" ">
<path fill="none" stroke="#63b8ff" d="M254.58,-25.92C262.96,-25.92 272.43,-25.92 281.65,-25.92"/>
<polygon fill="#63b8ff" stroke="#63b8ff" points="281.57,-29.42 291.57,-25.92 281.57,-22.42 281.57,-29.42"/>
</a>
</g>
</g>
<!-- Node8&#45;&gt;Node4 -->
<g id="edge11_Node000008_Node000004" class="edge">
<title>Node8&#45;&gt;Node4</title>
<g id="a_edge11_Node000008_Node000004"><a xlink:title=" ">
<path fill="none" stroke="#63b8ff" d="M350.78,-35.91C360.91,-40.16 372.92,-45.2 383.93,-49.83"/>
<polygon fill="#63b8ff" stroke="#63b8ff" points="382.54,-53.04 393.11,-53.68 385.25,-46.58 382.54,-53.04"/>
</a>
</g>
</g>
</g>
</svg>

<g id="navigator" transform="translate(0 0)" fill="#404254">
  <rect fill="#f2f5e9" fill-opacity="0.5" stroke="#606060" stroke-width=".5" x="0" y="0" width="60" height="60"/>
  <use id="zoomplus" xlink:href="#zoomPlus" x="17" y="9" onmousedown="handleZoom(evt,'in')"/>
  <use id="zoomminus" xlink:href="#zoomMin" x="42" y="9" onmousedown="handleZoom(evt,'out')"/>
  <use id="reset" xlink:href="#resetDef" x="30" y="36" onmousedown="handleReset()"/>
   <use id="arrowup" xlink:href="#arrowUp" x="0" y="0" onmousedown="handlePan(0,-1)"/>
  <use id="arrowright" xlink:href="#arrowRight" x="0" y="0" onmousedown="handlePan(1,0)"/>
  <use id="arrowdown" xlink:href="#arrowDown" x="0" y="0" onmousedown="handlePan(0,1)"/>
  <use id="arrowleft" xlink:href="#arrowLeft" x="0" y="0" onmousedown="handlePan(-1,0)"/>
</g>
<svg viewBox="0 0 15 15" width="100%" height="30px" preserveAspectRatio="xMaxYMin meet">
 <g id="arrow_out" transform="scale(0.3 0.3)">
  <a xlink:href="net_2http_8c_a19334ad04d7170263813221991152234_cgraph_org.svg" target="_base">
   <rect id="button" ry="5" rx="5" y="6" x="6" height="38" width="38"
        fill="#f2f5e9" fill-opacity="0.5" stroke="#606060" stroke-width="1.0"/>
   <path id="arrow"
     d="M 11.500037,31.436501 C 11.940474,20.09759 22.043105,11.32322 32.158766,21.979434 L 37.068811,17.246167 C 37.068811,17.246167 37.088388,32 37.088388,32 L 22.160133,31.978069 C 22.160133,31.978069 26.997745,27.140456 26.997745,27.140456 C 18.528582,18.264221 13.291696,25.230495 11.500037,31.436501 z"
     style="fill:#404040;"/>
  </a>
 </g>
</svg>

<style type='text/css'>
<![CDATA[
[data-mouse-over-selected='false'] { opacity: 0.7; }
[data-mouse-over-selected='true']  { opacity: 1.0; }
]]>
</style>
<script type="application/ecmascript"><![CDATA[
document.addEventListener('DOMContentLoaded', (event) => {
  highlightEdges();
  highlightAdjacentNodes();
});
]]></script>
</svg>
