<?xml version="1.0" encoding="UTF-8" standalone="no"?>
<!DOCTYPE svg PUBLIC "-//W3C//DTD SVG 1.1//EN"
 "http://www.w3.org/Graphics/SVG/1.1/DTD/svg11.dtd">
<!-- Generated by graphviz version 9.0.0 (20230911.1827)
 -->
<!-- Title: wah_and_ Pages: 1 -->
<svg width="322pt" height="140pt"
 viewBox="0.00 0.00 322.25 140.25" xmlns="http://www.w3.org/2000/svg" xmlns:xlink="http://www.w3.org/1999/xlink">

<svg id="main" version="1.1" xmlns="http://www.w3.org/2000/svg" xmlns:xlink="http://www.w3.org/1999/xlink" xml:space="preserve" onload="init(evt)">
<style type="text/css"><![CDATA[
.node, .edge {opacity: 0.7;}
.node.selected, .edge.selected {opacity: 1;}
.edge:hover path { stroke: red; }
.edge:hover polygon { stroke: red; fill: red; }
]]></style>
<script type="application/ecmascript" xlink:href="../../svg.min.js"/>
<svg id="graph" class="graph">
<g id="graph0" class="graph" transform="scale(1 1) rotate(0) translate(4 136.25)">
<title>wah_and_</title>
<!-- Node1 -->
<g id="Node000001" class="node">
<title>Node1</title>
<g id="a_Node000001"><a xlink:title=" ">
<polygon fill="#999999" stroke="#666666" points="314.25,-75.25 254,-75.25 254,-56 314.25,-56 314.25,-75.25"/>
<text text-anchor="middle" x="284.12" y="-61.75" font-family="Helvetica,sans-Serif" font-size="10.00">wah_and_</text>
</a>
</g>
</g>
<!-- Node2 -->
<g id="Node000002" class="node">
<title>Node2</title>
<g id="a_Node000002"><a xlink:href="../../da/dff/group__qkv____ll____wah.html#ga469467f843cabfcad057247ab4b4ff5d" target="_top" xlink:title=" ">
<polygon fill="white" stroke="#666666" points="208.62,-132.25 153.62,-132.25 153.62,-113 208.62,-113 208.62,-132.25"/>
<text text-anchor="middle" x="181.12" y="-118.75" font-family="Helvetica,sans-Serif" font-size="10.00">wah_and</text>
</a>
</g>
</g>
<!-- Node1&#45;&gt;Node2 -->
<g id="edge1_Node000001_Node000002" class="edge">
<title>Node1&#45;&gt;Node2</title>
<g id="a_edge1_Node000001_Node000002"><a xlink:title=" ">
<path fill="none" stroke="#63b8ff" d="M255.72,-81.09C237.94,-91.12 215.3,-103.9 199.86,-112.62"/>
<polygon fill="#63b8ff" stroke="#63b8ff" points="257.23,-84.26 264.21,-76.3 253.78,-78.16 257.23,-84.26"/>
</a>
</g>
</g>
<!-- Node3 -->
<g id="Node000003" class="node">
<title>Node3</title>
<g id="a_Node000003"><a xlink:href="../../df/df4/bit-wah_8c.html#af1a5aff5b52de47bd8debb55bc3ac390" target="_top" xlink:title=" ">
<polygon fill="white" stroke="#666666" points="108.25,-75.25 0,-75.25 0,-56 108.25,-56 108.25,-75.25"/>
<text text-anchor="middle" x="54.12" y="-61.75" font-family="Helvetica,sans-Serif" font-size="10.00">Z_GROUP_EXPORT</text>
</a>
</g>
</g>
<!-- Node1&#45;&gt;Node3 -->
<g id="edge7_Node000001_Node000003" class="edge">
<title>Node1&#45;&gt;Node3</title>
<g id="a_edge7_Node000001_Node000003"><a xlink:title=" ">
<path fill="none" stroke="#63b8ff" d="M242.35,-65.62C205.05,-65.62 149.62,-65.62 108.74,-65.62"/>
<polygon fill="#63b8ff" stroke="#63b8ff" points="242.27,-69.13 252.27,-65.63 242.27,-62.13 242.27,-69.13"/>
</a>
</g>
</g>
<!-- Node4 -->
<g id="Node000004" class="node">
<title>Node4</title>
<g id="a_Node000004"><a xlink:href="../../da/dff/group__qkv____ll____wah.html#ga2d148679bd3e55cda848742714de5441" target="_top" xlink:title=" ">
<polygon fill="white" stroke="#666666" points="218,-56.25 144.25,-56.25 144.25,-37 218,-37 218,-56.25"/>
<text text-anchor="middle" x="181.12" y="-42.75" font-family="Helvetica,sans-Serif" font-size="10.00">wah_and_not</text>
</a>
</g>
</g>
<!-- Node1&#45;&gt;Node4 -->
<g id="edge3_Node000001_Node000004" class="edge">
<title>Node1&#45;&gt;Node4</title>
<g id="a_edge3_Node000001_Node000004"><a xlink:title=" ">
<path fill="none" stroke="#63b8ff" d="M242.6,-58C234.55,-56.49 226.16,-54.91 218.28,-53.43"/>
<polygon fill="#63b8ff" stroke="#63b8ff" points="241.68,-61.39 252.15,-59.8 242.97,-54.51 241.68,-61.39"/>
</a>
</g>
</g>
<!-- Node5 -->
<g id="Node000005" class="node">
<title>Node5</title>
<g id="a_Node000005"><a xlink:href="../../da/dff/group__qkv____ll____wah.html#ga270633aa164ded7f69a10771d8298993" target="_top" xlink:title=" ">
<polygon fill="white" stroke="#666666" points="218,-19.25 144.25,-19.25 144.25,0 218,0 218,-19.25"/>
<text text-anchor="middle" x="181.12" y="-5.75" font-family="Helvetica,sans-Serif" font-size="10.00">wah_not_and</text>
</a>
</g>
</g>
<!-- Node1&#45;&gt;Node5 -->
<g id="edge5_Node000001_Node000005" class="edge">
<title>Node1&#45;&gt;Node5</title>
<g id="a_edge5_Node000001_Node000005"><a xlink:title=" ">
<path fill="none" stroke="#63b8ff" d="M257.01,-49.88C245.2,-42.89 231,-34.67 218,-27.62 213.1,-24.97 207.76,-22.22 202.73,-19.68"/>
<polygon fill="#63b8ff" stroke="#63b8ff" points="255.01,-52.76 265.39,-54.88 258.59,-46.75 255.01,-52.76"/>
</a>
</g>
</g>
<!-- Node2&#45;&gt;Node3 -->
<g id="edge2_Node000002_Node000003" class="edge">
<title>Node2&#45;&gt;Node3</title>
<g id="a_edge2_Node000002_Node000003"><a xlink:title=" ">
<path fill="none" stroke="#63b8ff" d="M147.75,-107.86C125.49,-97.71 96.53,-84.51 76.96,-75.58"/>
<polygon fill="#63b8ff" stroke="#63b8ff" points="146.14,-110.97 156.69,-111.94 149.04,-104.6 146.14,-110.97"/>
</a>
</g>
</g>
<!-- Node4&#45;&gt;Node3 -->
<g id="edge4_Node000004_Node000003" class="edge">
<title>Node4&#45;&gt;Node3</title>
<g id="a_edge4_Node000004_Node000003"><a xlink:title=" ">
<path fill="none" stroke="#63b8ff" d="M132.67,-53.84C124.74,-55.04 116.47,-56.3 108.41,-57.53"/>
<polygon fill="#63b8ff" stroke="#63b8ff" points="133.11,-57.31 142.47,-52.35 132.06,-50.39 133.11,-57.31"/>
</a>
</g>
</g>
<!-- Node5&#45;&gt;Node3 -->
<g id="edge6_Node000005_Node000003" class="edge">
<title>Node5&#45;&gt;Node3</title>
<g id="a_edge6_Node000005_Node000003"><a xlink:title=" ">
<path fill="none" stroke="#63b8ff" d="M147.28,-24.34C125.37,-34.16 97.11,-46.81 77.7,-55.51"/>
<polygon fill="#63b8ff" stroke="#63b8ff" points="148.7,-27.54 156.4,-20.26 145.84,-21.15 148.7,-27.54"/>
</a>
</g>
</g>
</g>
</svg>
</svg>

<style type='text/css'>
<![CDATA[
[data-mouse-over-selected='false'] { opacity: 0.7; }
[data-mouse-over-selected='true']  { opacity: 1.0; }
]]>
</style>
<script type="application/ecmascript"><![CDATA[
document.addEventListener('DOMContentLoaded', (event) => {
  highlightEdges();
  highlightAdjacentNodes();
});
]]></script>
</svg>
