<?xml version="1.0" encoding="UTF-8" standalone="no"?>
<!DOCTYPE svg PUBLIC "-//W3C//DTD SVG 1.1//EN"
 "http://www.w3.org/Graphics/SVG/1.1/DTD/svg11.dtd">
<!-- Generated by graphviz version 9.0.0 (20230911.1827)
 -->
<!-- Title: iop_generic_attr_arg_t Pages: 1 -->
<!--zoomable 475 -->

<svg id="main" version="1.1" xmlns="http://www.w3.org/2000/svg" xmlns:xlink="http://www.w3.org/1999/xlink" xml:space="preserve" onload="init(evt)">
<style type="text/css"><![CDATA[
.node, .edge {opacity: 0.7;}
.node.selected, .edge.selected {opacity: 1;}
.edge:hover path { stroke: red; }
.edge:hover polygon { stroke: red; fill: red; }
]]></style>

<defs>
  <circle id="rim" cx="0" cy="0" r="7"/>
  <circle id="rim2" cx="0" cy="0" r="3.5"/>
  <g id="zoomPlus">
    <use xlink:href="#rim" fill="#404040"><set attributeName="fill" to="#808080" begin="zoomplus.mouseover" end="zoomplus.mouseout"/></use>
    <path d="M-4,0h8M0,-4v8" fill="none" stroke="white" stroke-width="1.5" pointer-events="none"/>
  </g>
  <g id="zoomMin">
    <use xlink:href="#rim" fill="#404040"><set attributeName="fill" to="#808080" begin="zoomminus.mouseover" end="zoomminus.mouseout"/></use>
    <path d="M-4,0h8" fill="none" stroke="white" stroke-width="1.5" pointer-events="none"/>
  </g>
  <g id="arrowUp" transform="translate(30 24)">
    <use xlink:href="#rim"/>
    <path pointer-events="none" fill="none" stroke="white" stroke-width="1.5" d="M0,-3.0v7 M-2.5,-0.5L0,-3.0L2.5,-0.5"/>
  </g>
  <g id="arrowRight" transform="rotate(90) translate(36 -43)">
    <use xlink:href="#rim"/>
    <path pointer-events="none" fill="none" stroke="white" stroke-width="1.5" d="M0,-3.0v7 M-2.5,-0.5L0,-3.0L2.5,-0.5"/>
  </g>
  <g id="arrowDown" transform="rotate(180) translate(-30 -48)">
    <use xlink:href="#rim"/>
    <path pointer-events="none" fill="none" stroke="white" stroke-width="1.5" d="M0,-3.0v7 M-2.5,-0.5L0,-3.0L2.5,-0.5"/>
  </g>
  <g id="arrowLeft" transform="rotate(270) translate(-36 17)">
    <use xlink:href="#rim"/>
    <path pointer-events="none" fill="none" stroke="white" stroke-width="1.5" d="M0,-3.0v7 M-2.5,-0.5L0,-3.0L2.5,-0.5"/>
  </g>
  <g id="resetDef">
    <use xlink:href="#rim2" fill="#404040"><set attributeName="fill" to="#808080" begin="reset.mouseover" end="reset.mouseout"/></use>
  </g>
</defs>
<script type="application/ecmascript">
var viewWidth = 132;
var viewHeight = 475;
var sectionId = 'dynsection-0';
</script>
<script type="application/ecmascript" xlink:href="../../svg.min.js"/>
<svg id="graph" class="graph">
<g id="viewport">
<title>iop_generic_attr_arg_t</title>
<!-- Node1 -->
<g id="Node000001" class="node">
<title>Node1</title>
<g id="a_Node000001"><a xlink:title=" ">
<polygon fill="#999999" stroke="none" points="115,-49 9,-49 9,0 115,0 115,-49"/>
<text text-anchor="start" x="14" y="-35.5" font-family="Helvetica,sans-Serif" font-size="10.00">iop_generic_attr_arg_t</text>
<text text-anchor="start" x="60.5" y="-20.5" font-family="Helvetica,sans-Serif" font-size="10.00"> </text>
<text text-anchor="start" x="60.5" y="-5.5" font-family="Helvetica,sans-Serif" font-size="10.00"> </text>
<polygon fill="#666666" stroke="#666666" points="9,-32 9,-32 115,-32 115,-32 9,-32"/>
<polygon fill="#666666" stroke="#666666" points="9,-17 9,-17 115,-17 115,-17 9,-17"/>
<polygon fill="none" stroke="#666666" points="9,0 9,-49 115,-49 115,0 9,0"/>
</a>
</g>
</g>
<!-- Node2 -->
<g id="Node000002" class="node">
<title>Node2</title>
<g id="a_Node000002"><a xlink:href="../../d9/d45/unioniop__value__t.html" target="_top" xlink:title=" ">
<polygon fill="white" stroke="none" points="116,-280.25 8,-280.25 8,-96.25 116,-96.25 116,-280.25"/>
<text text-anchor="start" x="37.25" y="-266.75" font-family="Helvetica,sans-Serif" font-size="10.00">iop_value_t</text>
<text text-anchor="start" x="12" y="-251.75" font-family="Helvetica,sans-Serif" font-size="10.00">+</text>
<text text-anchor="start" x="22" y="-251.75" font-family="Helvetica,sans-Serif" font-size="10.00">int64_t i</text>
<text text-anchor="start" x="12" y="-236.75" font-family="Helvetica,sans-Serif" font-size="10.00">+</text>
<text text-anchor="start" x="22" y="-236.75" font-family="Helvetica,sans-Serif" font-size="10.00">int64_t i64</text>
<text text-anchor="start" x="12" y="-221.75" font-family="Helvetica,sans-Serif" font-size="10.00">+</text>
<text text-anchor="start" x="22" y="-221.75" font-family="Helvetica,sans-Serif" font-size="10.00">int32_t i32</text>
<text text-anchor="start" x="12" y="-206.75" font-family="Helvetica,sans-Serif" font-size="10.00">+</text>
<text text-anchor="start" x="22" y="-206.75" font-family="Helvetica,sans-Serif" font-size="10.00">uint64_t u</text>
<text text-anchor="start" x="12" y="-191.75" font-family="Helvetica,sans-Serif" font-size="10.00">+</text>
<text text-anchor="start" x="22" y="-191.75" font-family="Helvetica,sans-Serif" font-size="10.00">uint64_t u64</text>
<text text-anchor="start" x="12" y="-176.75" font-family="Helvetica,sans-Serif" font-size="10.00">+</text>
<text text-anchor="start" x="22" y="-176.75" font-family="Helvetica,sans-Serif" font-size="10.00">uint32_t u32</text>
<text text-anchor="start" x="12" y="-161.75" font-family="Helvetica,sans-Serif" font-size="10.00">+</text>
<text text-anchor="start" x="22" y="-161.75" font-family="Helvetica,sans-Serif" font-size="10.00">double d</text>
<text text-anchor="start" x="12" y="-146.75" font-family="Helvetica,sans-Serif" font-size="10.00">+</text>
<text text-anchor="start" x="22" y="-146.75" font-family="Helvetica,sans-Serif" font-size="10.00">bool b</text>
<text text-anchor="start" x="12" y="-131.75" font-family="Helvetica,sans-Serif" font-size="10.00">+</text>
<text text-anchor="start" x="22" y="-131.75" font-family="Helvetica,sans-Serif" font-size="10.00">const void *nullable p</text>
<text text-anchor="start" x="12" y="-116.75" font-family="Helvetica,sans-Serif" font-size="10.00">+</text>
<text text-anchor="start" x="22" y="-116.75" font-family="Helvetica,sans-Serif" font-size="10.00">void *nullable v</text>
<text text-anchor="start" x="60.5" y="-101.75" font-family="Helvetica,sans-Serif" font-size="10.00"> </text>
<polygon fill="#666666" stroke="#666666" points="8,-263.25 8,-263.25 116,-263.25 116,-263.25 8,-263.25"/>
<polygon fill="#666666" stroke="#666666" points="8,-113.25 8,-113.25 20,-113.25 20,-113.25 8,-113.25"/>
<polygon fill="#666666" stroke="#666666" points="20,-113.25 20,-113.25 116,-113.25 116,-113.25 20,-113.25"/>
<polygon fill="none" stroke="#666666" points="8,-96.25 8,-280.25 116,-280.25 116,-96.25 8,-96.25"/>
</a>
</g>
</g>
<!-- Node2&#45;&gt;Node1 -->
<g id="edge1_Node000001_Node000002" class="edge">
<title>Node2&#45;&gt;Node1</title>
<g id="a_edge1_Node000001_Node000002"><a xlink:title=" ">
<path fill="none" stroke="#63b8ff" d="M62,-96.45C62,-84.13 62,-72.12 62,-61.6"/>
<polygon fill="none" stroke="#63b8ff" points="62,-61.61 58,-55.61 62,-49.61 66,-55.61 62,-61.61"/>
</a>
</g>
<text text-anchor="middle" x="68.75" y="-68.75" font-family="Helvetica,sans-Serif" font-size="10.00" fill="grey"> +v</text>
</g>
<!-- Node3 -->
<g id="Node000003" class="node">
<title>Node3</title>
<g id="a_Node000003"><a xlink:href="../../d1/ddc/structlstr__t.html" target="_top" xlink:title="representation of a string with length.">
<polygon fill="white" stroke="none" points="124,-466.5 0,-466.5 0,-327.5 124,-327.5 124,-466.5"/>
<text text-anchor="start" x="51.12" y="-453" font-family="Helvetica,sans-Serif" font-size="10.00">lstr_t</text>
<text text-anchor="start" x="4" y="-438" font-family="Helvetica,sans-Serif" font-size="10.00">+</text>
<text text-anchor="start" x="14" y="-438" font-family="Helvetica,sans-Serif" font-size="10.00">const char * s</text>
<text text-anchor="start" x="4" y="-423" font-family="Helvetica,sans-Serif" font-size="10.00">+</text>
<text text-anchor="start" x="14" y="-423" font-family="Helvetica,sans-Serif" font-size="10.00">char * v</text>
<text text-anchor="start" x="4" y="-408" font-family="Helvetica,sans-Serif" font-size="10.00">+</text>
<text text-anchor="start" x="14" y="-408" font-family="Helvetica,sans-Serif" font-size="10.00">void * data</text>
<text text-anchor="start" x="4" y="-393" font-family="Helvetica,sans-Serif" font-size="10.00">+</text>
<text text-anchor="start" x="14" y="-393" font-family="Helvetica,sans-Serif" font-size="10.00">union lstr_t::@107 @108</text>
<text text-anchor="start" x="4" y="-378" font-family="Helvetica,sans-Serif" font-size="10.00">+</text>
<text text-anchor="start" x="14" y="-378" font-family="Helvetica,sans-Serif" font-size="10.00">int len</text>
<text text-anchor="start" x="4" y="-363" font-family="Helvetica,sans-Serif" font-size="10.00">+</text>
<text text-anchor="start" x="14" y="-363" font-family="Helvetica,sans-Serif" font-size="10.00">unsigned mem_pool</text>
<text text-anchor="start" x="4" y="-348" font-family="Helvetica,sans-Serif" font-size="10.00">+</text>
<text text-anchor="start" x="14" y="-348" font-family="Helvetica,sans-Serif" font-size="10.00">union lstr_t::@125 @126</text>
<text text-anchor="start" x="60.5" y="-333" font-family="Helvetica,sans-Serif" font-size="10.00"> </text>
<polygon fill="#666666" stroke="#666666" points="0,-449.5 0,-449.5 124,-449.5 124,-449.5 0,-449.5"/>
<polygon fill="#666666" stroke="#666666" points="0,-344.5 0,-344.5 12,-344.5 12,-344.5 0,-344.5"/>
<polygon fill="#666666" stroke="#666666" points="12,-344.5 12,-344.5 124,-344.5 124,-344.5 12,-344.5"/>
<polygon fill="none" stroke="#666666" points="0,-327.5 0,-466.5 124,-466.5 124,-327.5 0,-327.5"/>
</a>
</g>
</g>
<!-- Node3&#45;&gt;Node2 -->
<g id="edge2_Node000002_Node000003" class="edge">
<title>Node3&#45;&gt;Node2</title>
<g id="a_edge2_Node000002_Node000003"><a xlink:title=" ">
<path fill="none" stroke="#63b8ff" d="M62,-327.73C62,-316.5 62,-304.64 62,-292.79"/>
<polygon fill="none" stroke="#63b8ff" points="62,-292.85 58,-286.85 62,-280.85 66,-286.85 62,-292.85"/>
</a>
</g>
<text text-anchor="middle" x="68.75" y="-300" font-family="Helvetica,sans-Serif" font-size="10.00" fill="grey"> +s</text>
</g>
</g>
</svg>

<g id="navigator" transform="translate(0 0)" fill="#404254">
  <rect fill="#f2f5e9" fill-opacity="0.5" stroke="#606060" stroke-width=".5" x="0" y="0" width="60" height="60"/>
  <use id="zoomplus" xlink:href="#zoomPlus" x="17" y="9" onmousedown="handleZoom(evt,'in')"/>
  <use id="zoomminus" xlink:href="#zoomMin" x="42" y="9" onmousedown="handleZoom(evt,'out')"/>
  <use id="reset" xlink:href="#resetDef" x="30" y="36" onmousedown="handleReset()"/>
   <use id="arrowup" xlink:href="#arrowUp" x="0" y="0" onmousedown="handlePan(0,-1)"/>
  <use id="arrowright" xlink:href="#arrowRight" x="0" y="0" onmousedown="handlePan(1,0)"/>
  <use id="arrowdown" xlink:href="#arrowDown" x="0" y="0" onmousedown="handlePan(0,1)"/>
  <use id="arrowleft" xlink:href="#arrowLeft" x="0" y="0" onmousedown="handlePan(-1,0)"/>
</g>
<svg viewBox="0 0 15 15" width="100%" height="30px" preserveAspectRatio="xMaxYMin meet">
 <g id="arrow_out" transform="scale(0.3 0.3)">
  <a xlink:href="structiop__generic__attr__arg__t__coll__graph_org.svg" target="_base">
   <rect id="button" ry="5" rx="5" y="6" x="6" height="38" width="38"
        fill="#f2f5e9" fill-opacity="0.5" stroke="#606060" stroke-width="1.0"/>
   <path id="arrow"
     d="M 11.500037,31.436501 C 11.940474,20.09759 22.043105,11.32322 32.158766,21.979434 L 37.068811,17.246167 C 37.068811,17.246167 37.088388,32 37.088388,32 L 22.160133,31.978069 C 22.160133,31.978069 26.997745,27.140456 26.997745,27.140456 C 18.528582,18.264221 13.291696,25.230495 11.500037,31.436501 z"
     style="fill:#404040;"/>
  </a>
 </g>
</svg>

<style type='text/css'>
<![CDATA[
[data-mouse-over-selected='false'] { opacity: 0.7; }
[data-mouse-over-selected='true']  { opacity: 1.0; }
]]>
</style>
<script type="application/ecmascript"><![CDATA[
document.addEventListener('DOMContentLoaded', (event) => {
  highlightEdges();
  highlightAdjacentNodes();
});
]]></script>
</svg>
