<?xml version="1.0" encoding="UTF-8" standalone="no"?>
<!DOCTYPE svg PUBLIC "-//W3C//DTD SVG 1.1//EN"
 "http://www.w3.org/Graphics/SVG/1.1/DTD/svg11.dtd">
<!-- Generated by graphviz version 9.0.0 (20230911.1827)
 -->
<!-- Title: Graphical Class Hierarchy Pages: 1 -->
<svg width="438pt" height="39pt"
 viewBox="0.00 0.00 437.75 38.50" xmlns="http://www.w3.org/2000/svg" xmlns:xlink="http://www.w3.org/1999/xlink">
<g id="graph0" class="graph" transform="scale(1 1) rotate(0) translate(4 34.5)">
<title>Graphical Class Hierarchy</title>
<!-- Node0 -->
<g id="Node000000" class="node">
<title>Node0</title>
<g id="a_Node000000"><a xlink:title=" ">
<polygon fill="#e0e0e0" stroke="#999999" points="92.5,-24.88 0,-24.88 0,-5.63 92.5,-5.63 92.5,-24.88"/>
<text text-anchor="middle" x="46.25" y="-11.38" font-family="Helvetica,sans-Serif" font-size="10.00">unittest.TestSuite</text>
</a>
</g>
</g>
<!-- Node1 -->
<g id="Node000001" class="node">
<title>Node1</title>
<g id="a_Node000001"><a xlink:href="de/ddc/classzpycore_1_1zunittest_1_1ZTestSuite.html" target="_top" xlink:title=" ">
<polygon fill="white" stroke="#666666" points="266.75,-24.88 128.5,-24.88 128.5,-5.63 266.75,-5.63 266.75,-24.88"/>
<text text-anchor="middle" x="197.62" y="-11.38" font-family="Helvetica,sans-Serif" font-size="10.00">zpycore.zunittest.ZTestSuite</text>
</a>
</g>
</g>
<!-- Node0&#45;&gt;Node1 -->
<g id="edge8_Node000000_Node000001" class="edge">
<title>Node0&#45;&gt;Node1</title>
<g id="a_edge8_Node000000_Node000001"><a xlink:title=" ">
<path fill="none" stroke="#63b8ff" d="M104.15,-15.25C112,-15.25 120.14,-15.25 128.17,-15.25"/>
<polygon fill="#63b8ff" stroke="#63b8ff" points="104.39,-11.75 94.39,-15.25 104.39,-18.75 104.39,-11.75"/>
</a>
</g>
</g>
<!-- Node2 -->
<g id="Node000002" class="node">
<title>Node2</title>
<g id="a_Node000002"><a xlink:href="d0/d84/classzpycore_1_1zunittest_1_1DocTestModule.html" target="_top" xlink:title=" ">
<polygon fill="white" stroke="#666666" points="429.75,-30.5 302.75,-30.5 302.75,0 429.75,0 429.75,-30.5"/>
<text text-anchor="start" x="310.75" y="-17" font-family="Helvetica,sans-Serif" font-size="10.00">zpycore.zunittest.DocTest</text>
<text text-anchor="middle" x="366.25" y="-5.75" font-family="Helvetica,sans-Serif" font-size="10.00">Module</text>
</a>
</g>
</g>
<!-- Node1&#45;&gt;Node2 -->
<g id="edge9_Node000001_Node000002" class="edge">
<title>Node1&#45;&gt;Node2</title>
<g id="a_edge9_Node000001_Node000002"><a xlink:title=" ">
<path fill="none" stroke="#63b8ff" d="M278.29,-15.25C286.4,-15.25 294.56,-15.25 302.46,-15.25"/>
<polygon fill="#63b8ff" stroke="#63b8ff" points="278.39,-11.75 268.39,-15.25 278.39,-18.75 278.39,-11.75"/>
</a>
</g>
</g>
</g>
</svg>
