<?xml version="1.0" encoding="UTF-8" standalone="no"?>
<!DOCTYPE svg PUBLIC "-//W3C//DTD SVG 1.1//EN"
 "http://www.w3.org/Graphics/SVG/1.1/DTD/svg11.dtd">
<!-- Generated by graphviz version 9.0.0 (20230911.1827)
 -->
<!-- Title: parse_long_opt Pages: 1 -->
<!--zoomable 325 -->

<svg id="main" version="1.1" xmlns="http://www.w3.org/2000/svg" xmlns:xlink="http://www.w3.org/1999/xlink" xml:space="preserve" onload="init(evt)">
<style type="text/css"><![CDATA[
.node, .edge {opacity: 0.7;}
.node.selected, .edge.selected {opacity: 1;}
.edge:hover path { stroke: red; }
.edge:hover polygon { stroke: red; fill: red; }
]]></style>

<defs>
  <circle id="rim" cx="0" cy="0" r="7"/>
  <circle id="rim2" cx="0" cy="0" r="3.5"/>
  <g id="zoomPlus">
    <use xlink:href="#rim" fill="#404040"><set attributeName="fill" to="#808080" begin="zoomplus.mouseover" end="zoomplus.mouseout"/></use>
    <path d="M-4,0h8M0,-4v8" fill="none" stroke="white" stroke-width="1.5" pointer-events="none"/>
  </g>
  <g id="zoomMin">
    <use xlink:href="#rim" fill="#404040"><set attributeName="fill" to="#808080" begin="zoomminus.mouseover" end="zoomminus.mouseout"/></use>
    <path d="M-4,0h8" fill="none" stroke="white" stroke-width="1.5" pointer-events="none"/>
  </g>
  <g id="arrowUp" transform="translate(30 24)">
    <use xlink:href="#rim"/>
    <path pointer-events="none" fill="none" stroke="white" stroke-width="1.5" d="M0,-3.0v7 M-2.5,-0.5L0,-3.0L2.5,-0.5"/>
  </g>
  <g id="arrowRight" transform="rotate(90) translate(36 -43)">
    <use xlink:href="#rim"/>
    <path pointer-events="none" fill="none" stroke="white" stroke-width="1.5" d="M0,-3.0v7 M-2.5,-0.5L0,-3.0L2.5,-0.5"/>
  </g>
  <g id="arrowDown" transform="rotate(180) translate(-30 -48)">
    <use xlink:href="#rim"/>
    <path pointer-events="none" fill="none" stroke="white" stroke-width="1.5" d="M0,-3.0v7 M-2.5,-0.5L0,-3.0L2.5,-0.5"/>
  </g>
  <g id="arrowLeft" transform="rotate(270) translate(-36 17)">
    <use xlink:href="#rim"/>
    <path pointer-events="none" fill="none" stroke="white" stroke-width="1.5" d="M0,-3.0v7 M-2.5,-0.5L0,-3.0L2.5,-0.5"/>
  </g>
  <g id="resetDef">
    <use xlink:href="#rim2" fill="#404040"><set attributeName="fill" to="#808080" begin="reset.mouseover" end="reset.mouseout"/></use>
  </g>
</defs>
<script type="application/ecmascript">
var viewWidth = 1451;
var viewHeight = 325;
var sectionId = 'dynsection-17';
</script>
<script type="application/ecmascript" xlink:href="../../svg.min.js"/>
<svg id="graph" class="graph">
<g id="viewport">
<title>parse_long_opt</title>
<!-- Node1 -->
<g id="Node000001" class="node">
<title>Node1</title>
<g id="a_Node000001"><a xlink:title=" ">
<polygon fill="#999999" stroke="#666666" points="82,-188.25 0,-188.25 0,-169 82,-169 82,-188.25"/>
<text text-anchor="middle" x="41" y="-174.75" font-family="Helvetica,sans-Serif" font-size="10.00">parse_long_opt</text>
</a>
</g>
</g>
<!-- Node2 -->
<g id="Node000002" class="node">
<title>Node2</title>
<g id="a_Node000002"><a xlink:href="../../d7/df8/log_8c.html#ab9aebc66105141ee67ddf3882842c29e" target="_top" xlink:title=" ">
<polygon fill="white" stroke="#666666" points="408.62,-282.25 362.62,-282.25 362.62,-263 408.62,-263 408.62,-282.25"/>
<text text-anchor="middle" x="385.62" y="-268.75" font-family="Helvetica,sans-Serif" font-size="10.00">e_error</text>
</a>
</g>
</g>
<!-- Node1&#45;&gt;Node2 -->
<g id="edge1_Node000001_Node000002" class="edge">
<title>Node1&#45;&gt;Node2</title>
<g id="a_edge1_Node000001_Node000002"><a xlink:title=" ">
<path fill="none" stroke="#63b8ff" d="M52.13,-188.49C79.72,-214.57 159.67,-285.06 242,-309.62 277.24,-320.14 289.37,-319.67 324.75,-309.62 338.97,-305.59 353.12,-297.1 364.09,-289.28"/>
<polygon fill="#63b8ff" stroke="#63b8ff" points="366.1,-292.15 371.98,-283.33 361.88,-286.56 366.1,-292.15"/>
</a>
</g>
</g>
<!-- Node3 -->
<g id="Node000003" class="node">
<title>Node3</title>
<g id="a_Node000003"><a xlink:href="../../d3/d47/parseopt_8c.html#a420b1f06229b4bdd052b1ae307fd6f52" target="_top" xlink:title=" ">
<polygon fill="white" stroke="#666666" points="191,-207.25 133,-207.25 133,-188 191,-188 191,-207.25"/>
<text text-anchor="middle" x="162" y="-193.75" font-family="Helvetica,sans-Serif" font-size="10.00">get_value</text>
</a>
</g>
</g>
<!-- Node1&#45;&gt;Node3 -->
<g id="edge2_Node000001_Node000003" class="edge">
<title>Node1&#45;&gt;Node3</title>
<g id="a_edge2_Node000001_Node000003"><a xlink:title=" ">
<path fill="none" stroke="#63b8ff" d="M82.29,-185.06C94.99,-187.09 109,-189.32 121.63,-191.34"/>
<polygon fill="#63b8ff" stroke="#63b8ff" points="120.85,-194.76 131.28,-192.88 121.95,-187.85 120.85,-194.76"/>
</a>
</g>
</g>
<!-- Node34 -->
<g id="Node000034" class="node">
<title>Node34</title>
<g id="a_Node000034"><a xlink:href="../../d3/d47/parseopt_8c.html#ae060bafebf02dbf79894301ecc20f8ff" target="_top" xlink:title=" ">
<polygon fill="white" stroke="#666666" points="206,-170.25 118,-170.25 118,-151 206,-151 206,-170.25"/>
<text text-anchor="middle" x="162" y="-156.75" font-family="Helvetica,sans-Serif" font-size="10.00">opt_add_left_arg</text>
</a>
</g>
</g>
<!-- Node1&#45;&gt;Node34 -->
<g id="edge40_Node000001_Node000034" class="edge">
<title>Node1&#45;&gt;Node34</title>
<g id="a_edge40_Node000001_Node000034"><a xlink:title=" ">
<path fill="none" stroke="#63b8ff" d="M82.29,-172.53C90.08,-171.35 98.36,-170.1 106.52,-168.87"/>
<polygon fill="#63b8ff" stroke="#63b8ff" points="107.04,-172.33 116.41,-167.37 105.99,-165.41 107.04,-172.33"/>
</a>
</g>
</g>
<!-- Node35 -->
<g id="Node000035" class="node">
<title>Node35</title>
<g id="a_Node000035"><a xlink:href="../../df/d5f/str_8c.html#a4a358a8ac4ec96b42b21de848da04b74" target="_top" xlink:title="Tells whether str begins with p.">
<polygon fill="white" stroke="#666666" points="185.38,-133.25 138.62,-133.25 138.62,-114 185.38,-114 185.38,-133.25"/>
<text text-anchor="middle" x="162" y="-119.75" font-family="Helvetica,sans-Serif" font-size="10.00">strstart</text>
</a>
</g>
</g>
<!-- Node1&#45;&gt;Node35 -->
<g id="edge41_Node000001_Node000035" class="edge">
<title>Node1&#45;&gt;Node35</title>
<g id="a_edge41_Node000001_Node000035"><a xlink:title=" ">
<path fill="none" stroke="#63b8ff" d="M61.86,-168.58C77.11,-160.95 98.75,-150.33 118,-141.62 121.14,-140.2 124.43,-138.76 127.73,-137.33"/>
<polygon fill="#63b8ff" stroke="#63b8ff" points="128.9,-140.64 136.74,-133.51 126.17,-134.19 128.9,-140.64"/>
</a>
</g>
</g>
<!-- Node4 -->
<g id="Node000004" class="node">
<title>Node4</title>
<g id="a_Node000004"><a xlink:href="../../d7/df8/log_8c.html#abca342edf91a9b45f7a17ef564fa8a53" target="_top" xlink:title=" ">
<polygon fill="white" stroke="#666666" points="410.5,-169.25 360.75,-169.25 360.75,-150 410.5,-150 410.5,-169.25"/>
<text text-anchor="middle" x="385.62" y="-155.75" font-family="Helvetica,sans-Serif" font-size="10.00">e_panic</text>
</a>
</g>
</g>
<!-- Node3&#45;&gt;Node4 -->
<g id="edge3_Node000003_Node000004" class="edge">
<title>Node3&#45;&gt;Node4</title>
<g id="a_edge3_Node000003_Node000004"><a xlink:title=" ">
<path fill="none" stroke="#63b8ff" d="M191.07,-192.81C231.29,-185.92 305.31,-173.22 349.24,-165.69"/>
<polygon fill="#63b8ff" stroke="#63b8ff" points="349.75,-169.16 359.02,-164.02 348.57,-162.26 349.75,-169.16"/>
</a>
</g>
</g>
<!-- Node28 -->
<g id="Node000028" class="node">
<title>Node28</title>
<g id="a_Node000028"><a xlink:href="../../df/d0a/str-l_8h.html#a6fd2457702779cd5682db2e932222da4" target="_top" xlink:title="return the left&#45;trimmed lstr.">
<polygon fill="white" stroke="#666666" points="310.12,-113.25 256.62,-113.25 256.62,-94 310.12,-94 310.12,-113.25"/>
<text text-anchor="middle" x="283.38" y="-99.75" font-family="Helvetica,sans-Serif" font-size="10.00">lstr_ltrim</text>
</a>
</g>
</g>
<!-- Node3&#45;&gt;Node28 -->
<g id="edge32_Node000003_Node000028" class="edge">
<title>Node3&#45;&gt;Node28</title>
<g id="a_edge32_Node000003_Node000028"><a xlink:title=" ">
<path fill="none" stroke="#63b8ff" d="M191.29,-188.75C196.52,-186.31 201.69,-183.3 206,-179.62 229.09,-159.94 219.14,-141.57 242,-121.62 243.43,-120.38 244.96,-119.2 246.56,-118.1"/>
<polygon fill="#63b8ff" stroke="#63b8ff" points="248.01,-121.3 254.93,-113.28 244.51,-115.24 248.01,-121.3"/>
</a>
</g>
</g>
<!-- Node29 -->
<g id="Node000029" class="node">
<title>Node29</title>
<g id="a_Node000029"><a xlink:href="../../df/d0a/str-l_8h.html#af83ad82735f957fa423ab84368de4dcd" target="_top" xlink:title="Returns whether s starts with c.">
<polygon fill="white" stroke="#666666" points="324.75,-76.25 242,-76.25 242,-57 324.75,-57 324.75,-76.25"/>
<text text-anchor="middle" x="283.38" y="-62.75" font-family="Helvetica,sans-Serif" font-size="10.00">lstr_startswithc</text>
</a>
</g>
</g>
<!-- Node3&#45;&gt;Node29 -->
<g id="edge33_Node000003_Node000029" class="edge">
<title>Node3&#45;&gt;Node29</title>
<g id="a_edge33_Node000003_Node000029"><a xlink:title=" ">
<path fill="none" stroke="#63b8ff" d="M191.43,-189.59C196.78,-187.07 201.95,-183.82 206,-179.62 237.38,-147.16 211,-117.45 242,-84.62 242.37,-84.23 242.75,-83.85 243.14,-83.48"/>
<polygon fill="#63b8ff" stroke="#63b8ff" points="245.15,-86.34 251.13,-77.59 241.01,-80.7 245.15,-86.34"/>
</a>
</g>
</g>
<!-- Node30 -->
<g id="Node000030" class="node">
<title>Node30</title>
<g id="a_Node000030"><a xlink:href="../../d3/d47/parseopt_8c.html#a2453e906f88135c2ef8d32097d5a6ab8" target="_top" xlink:title=" ">
<polygon fill="white" stroke="#666666" points="319.12,-300.25 247.62,-300.25 247.62,-281 319.12,-281 319.12,-300.25"/>
<text text-anchor="middle" x="283.38" y="-286.75" font-family="Helvetica,sans-Serif" font-size="10.00">makeversion</text>
</a>
</g>
</g>
<!-- Node3&#45;&gt;Node30 -->
<g id="edge34_Node000003_Node000030" class="edge">
<title>Node3&#45;&gt;Node30</title>
<g id="a_edge34_Node000003_Node000030"><a xlink:title=" ">
<path fill="none" stroke="#63b8ff" d="M171.59,-207.75C185.22,-223.33 213.23,-253.39 242,-272.62 243.4,-273.56 244.85,-274.46 246.34,-275.34"/>
<polygon fill="#63b8ff" stroke="#63b8ff" points="244.66,-278.41 255.14,-279.95 247.91,-272.21 244.66,-278.41"/>
</a>
</g>
</g>
<!-- Node31 -->
<g id="Node000031" class="node">
<title>Node31</title>
<g id="a_Node000031"><a xlink:href="../../d3/d47/parseopt_8c.html#a1f002ec8ba638b5f4527e5755f45ab0c" target="_top" xlink:title=" ">
<polygon fill="white" stroke="#666666" points="307.5,-263.25 259.25,-263.25 259.25,-244 307.5,-244 307.5,-263.25"/>
<text text-anchor="middle" x="283.38" y="-249.75" font-family="Helvetica,sans-Serif" font-size="10.00">opt_arg</text>
</a>
</g>
</g>
<!-- Node3&#45;&gt;Node31 -->
<g id="edge35_Node000003_Node000031" class="edge">
<title>Node3&#45;&gt;Node31</title>
<g id="a_edge35_Node000003_Node000031"><a xlink:title=" ">
<path fill="none" stroke="#63b8ff" d="M183.38,-207.63C199.29,-215.39 221.98,-226.35 242,-235.62 244.41,-236.74 246.9,-237.88 249.42,-239.03"/>
<polygon fill="#63b8ff" stroke="#63b8ff" points="247.75,-242.11 258.31,-243.03 250.62,-235.73 247.75,-242.11"/>
</a>
</g>
</g>
<!-- Node32 -->
<g id="Node000032" class="node">
<title>Node32</title>
<g id="a_Node000032"><a xlink:href="../../d3/d47/parseopt_8c.html#a1c7765d4760068e5929bdf696c814c86" target="_top" xlink:title=" ">
<polygon fill="white" stroke="#666666" points="307.88,-226.25 258.88,-226.25 258.88,-207 307.88,-207 307.88,-226.25"/>
<text text-anchor="middle" x="283.38" y="-212.75" font-family="Helvetica,sans-Serif" font-size="10.00">opterror</text>
</a>
</g>
</g>
<!-- Node3&#45;&gt;Node32 -->
<g id="edge36_Node000003_Node000032" class="edge">
<title>Node3&#45;&gt;Node32</title>
<g id="a_edge36_Node000003_Node000032"><a xlink:title=" ">
<path fill="none" stroke="#63b8ff" d="M191.29,-202.13C208.14,-204.81 229.67,-208.24 247.56,-211.08"/>
<polygon fill="#63b8ff" stroke="#63b8ff" points="246.79,-214.5 257.21,-212.62 247.89,-207.59 246.79,-214.5"/>
</a>
</g>
</g>
<!-- Node33 -->
<g id="Node000033" class="node">
<title>Node33</title>
<g id="a_Node000033"><a xlink:href="../../d3/d47/parseopt_8c.html#aa193b1f875d3f13fdbc88733043c5918" target="_top" xlink:title=" ">
<polygon fill="white" stroke="#666666" points="320.25,-150.25 246.5,-150.25 246.5,-131 320.25,-131 320.25,-150.25"/>
<text text-anchor="middle" x="283.38" y="-136.75" font-family="Helvetica,sans-Serif" font-size="10.00">put_int_value</text>
</a>
</g>
</g>
<!-- Node3&#45;&gt;Node33 -->
<g id="edge38_Node000003_Node000033" class="edge">
<title>Node3&#45;&gt;Node33</title>
<g id="a_edge38_Node000003_Node000033"><a xlink:title=" ">
<path fill="none" stroke="#63b8ff" d="M187.7,-187.66C193.72,-185.13 200.13,-182.35 206,-179.62 221.93,-172.24 239.39,-163.38 253.59,-155.97"/>
<polygon fill="#63b8ff" stroke="#63b8ff" points="255.17,-159.1 262.4,-151.35 251.92,-152.9 255.17,-159.1"/>
</a>
</g>
</g>
<!-- Node5 -->
<g id="Node000005" class="node">
<title>Node5</title>
<g id="a_Node000005"><a xlink:href="../../d7/df8/log_8c.html#a4bc04f7baa1e064cb0b93c7b9f3a61a1" target="_top" xlink:title=" ">
<polygon fill="white" stroke="#666666" points="534.5,-132.25 446.5,-132.25 446.5,-113 534.5,-113 534.5,-132.25"/>
<text text-anchor="middle" x="490.5" y="-118.75" font-family="Helvetica,sans-Serif" font-size="10.00">__logger_refresh</text>
</a>
</g>
</g>
<!-- Node4&#45;&gt;Node5 -->
<g id="edge4_Node000004_Node000005" class="edge">
<title>Node4&#45;&gt;Node5</title>
<g id="a_edge4_Node000004_Node000005"><a xlink:title=" ">
<path fill="none" stroke="#63b8ff" d="M410.74,-150.95C422.74,-146.64 437.53,-141.32 451.04,-136.46"/>
<polygon fill="#63b8ff" stroke="#63b8ff" points="451.88,-139.88 460.1,-133.2 449.51,-133.29 451.88,-139.88"/>
</a>
</g>
</g>
<!-- Node23 -->
<g id="Node000023" class="node">
<title>Node23</title>
<g id="a_Node000023"><a xlink:href="../../d7/df8/log_8c.html#a900490b26df7698aac12f7f7e6517e81" target="_top" xlink:title=" ">
<polygon fill="white" stroke="#666666" points="523.25,-207.25 457.75,-207.25 457.75,-188 523.25,-188 523.25,-207.25"/>
<text text-anchor="middle" x="490.5" y="-193.75" font-family="Helvetica,sans-Serif" font-size="10.00">logger_vlog</text>
</a>
</g>
</g>
<!-- Node4&#45;&gt;Node23 -->
<g id="edge26_Node000004_Node000023" class="edge">
<title>Node4&#45;&gt;Node23</title>
<g id="a_edge26_Node000004_Node000023"><a xlink:title=" ">
<path fill="none" stroke="#63b8ff" d="M410.74,-168.53C422.93,-173.03 437.99,-178.6 451.67,-183.65"/>
<polygon fill="#63b8ff" stroke="#63b8ff" points="450.25,-186.86 460.85,-187.04 452.68,-180.29 450.25,-186.86"/>
</a>
</g>
</g>
<!-- Node27 -->
<g id="Node000027" class="node">
<title>Node27</title>
<g id="a_Node000027"><a xlink:href="../../d2/d4d/file_8h.html#a25419a391fdd4ad7954699c58cfeb3b9" target="_top" xlink:title=" ">
<polygon fill="white" stroke="#666666" points="516.12,-95.25 464.88,-95.25 464.88,-76 516.12,-76 516.12,-95.25"/>
<text text-anchor="middle" x="490.5" y="-81.75" font-family="Helvetica,sans-Serif" font-size="10.00">va_start</text>
</a>
</g>
</g>
<!-- Node4&#45;&gt;Node27 -->
<g id="edge31_Node000004_Node000027" class="edge">
<title>Node4&#45;&gt;Node27</title>
<g id="a_edge31_Node000004_Node000027"><a xlink:title=" ">
<path fill="none" stroke="#63b8ff" d="M395.09,-149.79C405.98,-137.63 425.95,-116.92 446.5,-103.62 449.02,-101.99 451.72,-100.45 454.49,-99.02"/>
<polygon fill="#63b8ff" stroke="#63b8ff" points="455.69,-102.32 463.26,-94.91 452.72,-95.98 455.69,-102.32"/>
</a>
</g>
</g>
<!-- Node6 -->
<g id="Node000006" class="node">
<title>Node6</title>
<g id="a_Node000006"><a xlink:href="../../d7/df8/log_8c.html#a3dbd75fb614210f0b114cfd03c9c0a7b" target="_top" xlink:title=" ">
<polygon fill="white" stroke="#666666" points="674.25,-132.25 570.5,-132.25 570.5,-113 674.25,-113 674.25,-132.25"/>
<text text-anchor="middle" x="622.38" y="-118.75" font-family="Helvetica,sans-Serif" font-size="10.00">__logger_do_refresh</text>
</a>
</g>
</g>
<!-- Node5&#45;&gt;Node6 -->
<g id="edge5_Node000005_Node000006" class="edge">
<title>Node5&#45;&gt;Node6</title>
<g id="a_edge5_Node000005_Node000006"><a xlink:title=" ">
<path fill="none" stroke="#63b8ff" d="M534.75,-122.62C542.47,-122.62 550.66,-122.62 558.79,-122.62"/>
<polygon fill="#63b8ff" stroke="#63b8ff" points="558.7,-126.13 568.7,-122.63 558.7,-119.13 558.7,-126.13"/>
</a>
</g>
</g>
<!-- Node21 -->
<g id="Node000021" class="node">
<title>Node21</title>
<g id="a_Node000021"><a xlink:href="../../d7/df8/log_8c.html#a7b1b02d1986e1247c2f571af4a2c2854" target="_top" xlink:title=" ">
<polygon fill="white" stroke="#666666" points="660,-58.25 584.75,-58.25 584.75,-39 660,-39 660,-58.25"/>
<text text-anchor="middle" x="622.38" y="-44.75" font-family="Helvetica,sans-Serif" font-size="10.00">log_spin_lock</text>
</a>
</g>
</g>
<!-- Node5&#45;&gt;Node21 -->
<g id="edge24_Node000005_Node000021" class="edge">
<title>Node5&#45;&gt;Node21</title>
<g id="a_edge24_Node000005_Node000021"><a xlink:title=" ">
<path fill="none" stroke="#63b8ff" d="M520.14,-112.61C525.12,-110.33 530.1,-107.66 534.5,-104.62 553.64,-91.4 550.99,-79.3 570.5,-66.62 572.12,-65.57 573.81,-64.57 575.55,-63.62"/>
<polygon fill="#63b8ff" stroke="#63b8ff" points="576.96,-66.83 584.5,-59.38 573.96,-60.5 576.96,-66.83"/>
</a>
</g>
</g>
<!-- Node22 -->
<g id="Node000022" class="node">
<title>Node22</title>
<g id="a_Node000022"><a xlink:href="../../d1/dc0/group__log.html#ga045020bb4af234632f7761f220131c69" target="_top" xlink:title=" ">
<polygon fill="white" stroke="#666666" points="665.25,-95.25 579.5,-95.25 579.5,-76 665.25,-76 665.25,-95.25"/>
<text text-anchor="middle" x="622.38" y="-81.75" font-family="Helvetica,sans-Serif" font-size="10.00">log_spin_unlock</text>
</a>
</g>
</g>
<!-- Node5&#45;&gt;Node22 -->
<g id="edge25_Node000005_Node000022" class="edge">
<title>Node5&#45;&gt;Node22</title>
<g id="a_edge25_Node000005_Node000022"><a xlink:title=" ">
<path fill="none" stroke="#63b8ff" d="M526.99,-112.51C541.88,-108.27 559.39,-103.28 575.26,-98.76"/>
<polygon fill="#63b8ff" stroke="#63b8ff" points="575.82,-102.24 584.47,-96.14 573.9,-95.51 575.82,-102.24"/>
</a>
</g>
</g>
<!-- Node6&#45;&gt;Node6 -->
<g id="edge6_Node000006_Node000006" class="edge">
<title>Node6&#45;&gt;Node6</title>
<g id="a_edge6_Node000006_Node000006"><a xlink:title=" ">
<path fill="none" stroke="#63b8ff" d="M601.73,-132.54C592.31,-141.15 599.19,-150.25 622.38,-150.25 635.05,-150.25 642.85,-147.53 645.78,-143.65"/>
<polygon fill="#63b8ff" stroke="#63b8ff" points="649.19,-142.87 643.39,-134.01 642.4,-144.56 649.19,-142.87"/>
</a>
</g>
</g>
<!-- Node7 -->
<g id="Node000007" class="node">
<title>Node7</title>
<g id="a_Node000007"><a xlink:href="../../de/d1a/container-dlist_8h.html#a3b6f65860b212e28f2e28e71eb54d54d" target="_top" xlink:title="Add element e at the head of list l (suited for LIFO).">
<polygon fill="white" stroke="#666666" points="801.25,-56.25 746.25,-56.25 746.25,-37 801.25,-37 801.25,-56.25"/>
<text text-anchor="middle" x="773.75" y="-42.75" font-family="Helvetica,sans-Serif" font-size="10.00">dlist_add</text>
</a>
</g>
</g>
<!-- Node6&#45;&gt;Node7 -->
<g id="edge7_Node000006_Node000007" class="edge">
<title>Node6&#45;&gt;Node7</title>
<g id="a_edge7_Node000006_Node000007"><a xlink:title=" ">
<path fill="none" stroke="#63b8ff" d="M657.93,-112.61C663.57,-110.36 669.21,-107.7 674.25,-104.62 693.03,-93.15 691.62,-82.35 710.25,-70.62 717.93,-65.79 726.73,-61.68 735.26,-58.29"/>
<polygon fill="#63b8ff" stroke="#63b8ff" points="736.23,-61.66 744.4,-54.91 733.81,-55.1 736.23,-61.66"/>
</a>
</g>
</g>
<!-- Node9 -->
<g id="Node000009" class="node">
<title>Node9</title>
<g id="a_Node000009"><a xlink:href="../../de/d1a/container-dlist_8h.html#a0a69e401f6ec15966c891e96ad864c77" target="_top" xlink:title="Put a dlist_t element in a safe and detached state.">
<polygon fill="white" stroke="#666666" points="799.75,-19.25 747.75,-19.25 747.75,0 799.75,0 799.75,-19.25"/>
<text text-anchor="middle" x="773.75" y="-5.75" font-family="Helvetica,sans-Serif" font-size="10.00">dlist_init</text>
</a>
</g>
</g>
<!-- Node6&#45;&gt;Node9 -->
<g id="edge9_Node000006_Node000009" class="edge">
<title>Node6&#45;&gt;Node9</title>
<g id="a_edge9_Node000006_Node000009"><a xlink:title=" ">
<path fill="none" stroke="#63b8ff" d="M662.45,-112.53C666.73,-110.38 670.78,-107.77 674.25,-104.62 702.23,-79.24 681.53,-52.16 710.25,-27.62 717.57,-21.37 726.96,-17.28 736.22,-14.62"/>
<polygon fill="#63b8ff" stroke="#63b8ff" points="736.89,-18.05 745.82,-12.36 735.29,-11.24 736.89,-18.05"/>
</a>
</g>
</g>
<!-- Node10 -->
<g id="Node000010" class="node">
<title>Node10</title>
<g id="a_Node000010"><a xlink:href="../../d7/df8/log_8c.html#a4c8fbe8648573312126ce341cf34cba1" target="_top" xlink:title=" ">
<polygon fill="white" stroke="#666666" points="837.25,-169.25 710.25,-169.25 710.25,-150 837.25,-150 837.25,-169.25"/>
<text text-anchor="middle" x="773.75" y="-155.75" font-family="Helvetica,sans-Serif" font-size="10.00">logger_compute_fullname</text>
</a>
</g>
</g>
<!-- Node6&#45;&gt;Node10 -->
<g id="edge10_Node000006_Node000010" class="edge">
<title>Node6&#45;&gt;Node10</title>
<g id="a_edge10_Node000006_Node000010"><a xlink:title=" ">
<path fill="none" stroke="#63b8ff" d="M664.19,-132.74C681.73,-137.08 702.43,-142.21 721.02,-146.81"/>
<polygon fill="#63b8ff" stroke="#63b8ff" points="719.96,-150.16 730.51,-149.16 721.65,-143.36 719.96,-150.16"/>
</a>
</g>
</g>
<!-- Node13 -->
<g id="Node000013" class="node">
<title>Node13</title>
<g id="a_Node000013"><a xlink:href="../../df/d0a/str-l_8h.html#ad74dae07179370f3c22e3f026157926e" target="_top" xlink:title="wipe a lstr_t (frees memory if needed).">
<polygon fill="white" stroke="#666666" points="944.75,-169.25 889.75,-169.25 889.75,-150 944.75,-150 944.75,-169.25"/>
<text text-anchor="middle" x="917.25" y="-155.75" font-family="Helvetica,sans-Serif" font-size="10.00">lstr_wipe</text>
</a>
</g>
</g>
<!-- Node6&#45;&gt;Node13 -->
<g id="edge23_Node000006_Node000013" class="edge">
<title>Node6&#45;&gt;Node13</title>
<g id="a_edge23_Node000006_Node000013"><a xlink:title=" ">
<path fill="none" stroke="#63b8ff" d="M653.95,-112.59C696.21,-100.35 774.38,-83.6 837.25,-103.62 860.86,-111.15 883.48,-128.57 898.41,-142"/>
<polygon fill="#63b8ff" stroke="#63b8ff" points="895.86,-144.41 905.55,-148.69 900.65,-139.3 895.86,-144.41"/>
</a>
</g>
</g>
<!-- Node20 -->
<g id="Node000020" class="node">
<title>Node20</title>
<g id="a_Node000020"><a xlink:href="../../df/d0a/str-l_8h.html#a963c22b229774d4b7c106bae4011cb8e" target="_top" xlink:title="Returns whether \v s1 and \v s2 contents are equal.">
<polygon fill="white" stroke="#666666" points="802.75,-132.25 744.75,-132.25 744.75,-113 802.75,-113 802.75,-132.25"/>
<text text-anchor="middle" x="773.75" y="-118.75" font-family="Helvetica,sans-Serif" font-size="10.00">lstr_equal</text>
</a>
</g>
</g>
<!-- Node6&#45;&gt;Node20 -->
<g id="edge22_Node000006_Node000020" class="edge">
<title>Node6&#45;&gt;Node20</title>
<g id="a_edge22_Node000006_Node000020"><a xlink:title=" ">
<path fill="none" stroke="#63b8ff" d="M674.36,-122.62C693.64,-122.62 715.26,-122.62 733.32,-122.62"/>
<polygon fill="#63b8ff" stroke="#63b8ff" points="733.09,-126.13 743.09,-122.63 733.09,-119.13 733.09,-126.13"/>
</a>
</g>
</g>
<!-- Node8 -->
<g id="Node000008" class="node">
<title>Node8</title>
<g id="a_Node000008"><a xlink:href="../../de/d1a/container-dlist_8h.html#a71e7667ca0e4b896923788c5851afd24" target="_top" xlink:title="Put element e between prev and next.">
<polygon fill="white" stroke="#666666" points="950,-56.25 884.5,-56.25 884.5,-37 950,-37 950,-56.25"/>
<text text-anchor="middle" x="917.25" y="-42.75" font-family="Helvetica,sans-Serif" font-size="10.00">__dlist_add</text>
</a>
</g>
</g>
<!-- Node7&#45;&gt;Node8 -->
<g id="edge8_Node000007_Node000008" class="edge">
<title>Node7&#45;&gt;Node8</title>
<g id="a_edge8_Node000007_Node000008"><a xlink:title=" ">
<path fill="none" stroke="#63b8ff" d="M801.7,-46.62C821.8,-46.62 849.67,-46.62 872.89,-46.62"/>
<polygon fill="#63b8ff" stroke="#63b8ff" points="872.69,-50.13 882.69,-46.63 872.69,-43.13 872.69,-50.13"/>
</a>
</g>
</g>
<!-- Node11 -->
<g id="Node000011" class="node">
<title>Node11</title>
<g id="a_Node000011"><a xlink:href="../../df/d0a/str-l_8h.html#a6a200ca09358f19b13a8e297cda34869" target="_top" xlink:title="returns a constant copy of \v s.">
<polygon fill="white" stroke="#666666" points="945.12,-207.25 889.38,-207.25 889.38,-188 945.12,-188 945.12,-207.25"/>
<text text-anchor="middle" x="917.25" y="-193.75" font-family="Helvetica,sans-Serif" font-size="10.00">lstr_dupc</text>
</a>
</g>
</g>
<!-- Node10&#45;&gt;Node11 -->
<g id="edge11_Node000010_Node000011" class="edge">
<title>Node10&#45;&gt;Node11</title>
<g id="a_edge11_Node000010_Node000011"><a xlink:title=" ">
<path fill="none" stroke="#63b8ff" d="M812.3,-169.71C832.65,-175.17 857.75,-181.91 878.18,-187.4"/>
<polygon fill="#63b8ff" stroke="#63b8ff" points="877.27,-190.78 887.83,-189.99 879.08,-184.02 877.27,-190.78"/>
</a>
</g>
</g>
<!-- Node10&#45;&gt;Node13 -->
<g id="edge13_Node000010_Node000013" class="edge">
<title>Node10&#45;&gt;Node13</title>
<g id="a_edge13_Node000010_Node000013"><a xlink:title=" ">
<path fill="none" stroke="#63b8ff" d="M837.64,-159.62C851.4,-159.62 865.56,-159.62 878.01,-159.62"/>
<polygon fill="#63b8ff" stroke="#63b8ff" points="877.83,-163.13 887.83,-159.63 877.83,-156.13 877.83,-163.13"/>
</a>
</g>
</g>
<!-- Node12 -->
<g id="Node000012" class="node">
<title>Node12</title>
<g id="a_Node000012"><a xlink:href="../../df/d0a/str-l_8h.html#a3b4dbe9c4cc70340cba0787574dc1c5e" target="_top" xlink:title=" ">
<polygon fill="white" stroke="#666666" points="1274.75,-207.25 1222,-207.25 1222,-188 1274.75,-188 1274.75,-207.25"/>
<text text-anchor="middle" x="1248.38" y="-193.75" font-family="Helvetica,sans-Serif" font-size="10.00">lstr_init_</text>
</a>
</g>
</g>
<!-- Node11&#45;&gt;Node12 -->
<g id="edge12_Node000011_Node000012" class="edge">
<title>Node11&#45;&gt;Node12</title>
<g id="a_edge12_Node000011_Node000012"><a xlink:title=" ">
<path fill="none" stroke="#63b8ff" d="M945.46,-197.62C1004.31,-197.62 1143.44,-197.62 1210.28,-197.62"/>
<polygon fill="#63b8ff" stroke="#63b8ff" points="1209.99,-201.13 1219.99,-197.63 1209.99,-194.13 1209.99,-201.13"/>
</a>
</g>
</g>
<!-- Node14 -->
<g id="Node000014" class="node">
<title>Node14</title>
<g id="a_Node000014"><a xlink:href="../../df/d0a/str-l_8h.html#a381cd831ac9616c5bea8213bb679d1ac" target="_top" xlink:title="Wipe a lstr_t (frees memory if needed).">
<polygon fill="white" stroke="#666666" points="1071,-169.25 997.25,-169.25 997.25,-150 1071,-150 1071,-169.25"/>
<text text-anchor="middle" x="1034.12" y="-155.75" font-family="Helvetica,sans-Serif" font-size="10.00">mp_lstr_wipe</text>
</a>
</g>
</g>
<!-- Node13&#45;&gt;Node14 -->
<g id="edge14_Node000013_Node000014" class="edge">
<title>Node13&#45;&gt;Node14</title>
<g id="a_edge14_Node000013_Node000014"><a xlink:title=" ">
<path fill="none" stroke="#63b8ff" d="M945.18,-159.62C957.2,-159.62 971.73,-159.62 985.49,-159.62"/>
<polygon fill="#63b8ff" stroke="#63b8ff" points="985.28,-163.13 995.28,-159.63 985.28,-156.13 985.28,-163.13"/>
</a>
</g>
</g>
<!-- Node15 -->
<g id="Node000015" class="node">
<title>Node15</title>
<g id="a_Node000015"><a xlink:href="../../de/d04/str-l_8c.html#abe2a3a71f0b4dbc7d37c59d16762b6fb" target="_top" xlink:title="lstr_copy_* helper.">
<polygon fill="white" stroke="#666666" points="1186,-169.25 1107,-169.25 1107,-150 1186,-150 1186,-169.25"/>
<text text-anchor="middle" x="1146.5" y="-155.75" font-family="Helvetica,sans-Serif" font-size="10.00">mp_lstr_copy_</text>
</a>
</g>
</g>
<!-- Node14&#45;&gt;Node15 -->
<g id="edge15_Node000014_Node000015" class="edge">
<title>Node14&#45;&gt;Node15</title>
<g id="a_edge15_Node000014_Node000015"><a xlink:title=" ">
<path fill="none" stroke="#63b8ff" d="M1071.27,-159.62C1078.96,-159.62 1087.21,-159.62 1095.32,-159.62"/>
<polygon fill="#63b8ff" stroke="#63b8ff" points="1095.1,-163.13 1105.1,-159.63 1095.1,-156.13 1095.1,-163.13"/>
</a>
</g>
</g>
<!-- Node15&#45;&gt;Node12 -->
<g id="edge21_Node000015_Node000012" class="edge">
<title>Node15&#45;&gt;Node12</title>
<g id="a_edge21_Node000015_Node000012"><a xlink:title=" ">
<path fill="none" stroke="#63b8ff" d="M1174,-169.71C1185.44,-174.06 1199.01,-179.22 1211.35,-183.92"/>
<polygon fill="#63b8ff" stroke="#63b8ff" points="1209.78,-187.07 1220.37,-187.35 1212.27,-180.52 1209.78,-187.07"/>
</a>
</g>
</g>
<!-- Node16 -->
<g id="Node000016" class="node">
<title>Node16</title>
<g id="a_Node000016"><a xlink:href="../../d9/d9a/mem_8h.html#aebbbd277e2952bdb802104671ba23ba9" target="_top" xlink:title=" ">
<polygon fill="white" stroke="#666666" points="1265.75,-170.25 1231,-170.25 1231,-151 1265.75,-151 1265.75,-170.25"/>
<text text-anchor="middle" x="1248.38" y="-156.75" font-family="Helvetica,sans-Serif" font-size="10.00">ifree</text>
</a>
</g>
</g>
<!-- Node15&#45;&gt;Node16 -->
<g id="edge16_Node000015_Node000016" class="edge">
<title>Node15&#45;&gt;Node16</title>
<g id="a_edge16_Node000015_Node000016"><a xlink:title=" ">
<path fill="none" stroke="#63b8ff" d="M1186.4,-160.01C1197.3,-160.12 1208.95,-160.24 1219.1,-160.34"/>
<polygon fill="#63b8ff" stroke="#63b8ff" points="1219.06,-163.84 1229.1,-160.44 1219.13,-156.84 1219.06,-163.84"/>
</a>
</g>
</g>
<!-- Node17 -->
<g id="Node000017" class="node">
<title>Node17</title>
<g id="a_Node000017"><a xlink:href="../../d8/d37/mem_8blk.html#a36b65ab346f1d0deed7b63c544c78f2b" target="_top" xlink:title=" ">
<polygon fill="white" stroke="#666666" points="1355.62,-245.25 1319.38,-245.25 1319.38,-226 1355.62,-226 1355.62,-245.25"/>
<text text-anchor="middle" x="1337.5" y="-231.75" font-family="Helvetica,sans-Serif" font-size="10.00">ipool</text>
</a>
</g>
</g>
<!-- Node16&#45;&gt;Node17 -->
<g id="edge17_Node000016_Node000017" class="edge">
<title>Node16&#45;&gt;Node17</title>
<g id="a_edge17_Node000016_Node000017"><a xlink:title=" ">
<path fill="none" stroke="#63b8ff" d="M1264.11,-170.59C1267.66,-173.13 1271.39,-175.9 1274.75,-178.62 1290.07,-191.05 1306.43,-206.24 1318.46,-217.82"/>
<polygon fill="#63b8ff" stroke="#63b8ff" points="1315.68,-220 1325.29,-224.47 1320.56,-214.98 1315.68,-220"/>
</a>
</g>
</g>
<!-- Node19 -->
<g id="Node000019" class="node">
<title>Node19</title>
<g id="a_Node000019"><a xlink:href="../../d8/d37/mem_8blk.html#a83c7cf203e5eef9d1a8c6c43cde3e2e5" target="_top" xlink:title=" ">
<polygon fill="white" stroke="#666666" points="1364.25,-170.25 1310.75,-170.25 1310.75,-151 1364.25,-151 1364.25,-170.25"/>
<text text-anchor="middle" x="1337.5" y="-156.75" font-family="Helvetica,sans-Serif" font-size="10.00">mp_ifree</text>
</a>
</g>
</g>
<!-- Node16&#45;&gt;Node19 -->
<g id="edge20_Node000016_Node000019" class="edge">
<title>Node16&#45;&gt;Node19</title>
<g id="a_edge20_Node000016_Node000019"><a xlink:title=" ">
<path fill="none" stroke="#63b8ff" d="M1266.17,-160.62C1275.59,-160.62 1287.74,-160.62 1299.28,-160.62"/>
<polygon fill="#63b8ff" stroke="#63b8ff" points="1298.98,-164.13 1308.98,-160.63 1298.98,-157.13 1298.98,-164.13"/>
</a>
</g>
</g>
<!-- Node17&#45;&gt;Node4 -->
<g id="edge18_Node000017_Node000004" class="edge">
<title>Node17&#45;&gt;Node4</title>
<g id="a_edge18_Node000017_Node000004"><a xlink:title=" ">
<path fill="none" stroke="#63b8ff" d="M1319.02,-241.56C1285.94,-252.25 1211.76,-273.62 1147.5,-273.62 621.38,-273.62 621.38,-273.62 621.38,-273.62 539.63,-273.62 516.7,-258.51 446.5,-216.62 429.41,-206.43 413.27,-190.56 402.06,-178.15"/>
<polygon fill="#63b8ff" stroke="#63b8ff" points="404.72,-175.87 395.51,-170.63 399.44,-180.47 404.72,-175.87"/>
</a>
</g>
</g>
<!-- Node18 -->
<g id="Node000018" class="node">
<title>Node18</title>
<g id="a_Node000018"><a xlink:href="../../d1/d10/mem-stack_8h.html#a1d0e2a29f86dc033a02e50484b527fd0" target="_top" xlink:title=" ">
<polygon fill="white" stroke="#666666" points="1442.5,-245.25 1400.25,-245.25 1400.25,-226 1442.5,-226 1442.5,-245.25"/>
<text text-anchor="middle" x="1421.38" y="-231.75" font-family="Helvetica,sans-Serif" font-size="10.00">t_pool</text>
</a>
</g>
</g>
<!-- Node17&#45;&gt;Node18 -->
<g id="edge19_Node000017_Node000018" class="edge">
<title>Node17&#45;&gt;Node18</title>
<g id="a_edge19_Node000017_Node000018"><a xlink:title=" ">
<path fill="none" stroke="#63b8ff" d="M1355.86,-235.62C1365.31,-235.62 1377.29,-235.62 1388.36,-235.62"/>
<polygon fill="#63b8ff" stroke="#63b8ff" points="1388.34,-239.13 1398.34,-235.63 1388.34,-232.13 1388.34,-239.13"/>
</a>
</g>
</g>
<!-- Node23&#45;&gt;Node11 -->
<g id="edge30_Node000023_Node000011" class="edge">
<title>Node23&#45;&gt;Node11</title>
<g id="a_edge30_Node000023_Node000011"><a xlink:title=" ">
<path fill="none" stroke="#63b8ff" d="M523.43,-197.62C600.11,-197.62 794.45,-197.62 877.58,-197.62"/>
<polygon fill="#63b8ff" stroke="#63b8ff" points="877.49,-201.13 887.49,-197.63 877.49,-194.13 877.49,-201.13"/>
</a>
</g>
</g>
<!-- Node24 -->
<g id="Node000024" class="node">
<title>Node24</title>
<g id="a_Node000024"><a xlink:href="../../d1/dc0/group__log.html#ga168a6f17b248f61f7d25a17d58d04e36" target="_top" xlink:title=" ">
<polygon fill="white" stroke="#666666" points="666.75,-245.25 578,-245.25 578,-226 666.75,-226 666.75,-245.25"/>
<text text-anchor="middle" x="622.38" y="-231.75" font-family="Helvetica,sans-Serif" font-size="10.00">logger_has_level</text>
</a>
</g>
</g>
<!-- Node23&#45;&gt;Node24 -->
<g id="edge27_Node000023_Node000024" class="edge">
<title>Node23&#45;&gt;Node24</title>
<g id="a_edge27_Node000023_Node000024"><a xlink:title=" ">
<path fill="none" stroke="#63b8ff" d="M523.6,-207.02C539.38,-211.63 558.66,-217.28 575.92,-222.33"/>
<polygon fill="#63b8ff" stroke="#63b8ff" points="574.88,-225.67 585.46,-225.12 576.84,-218.95 574.88,-225.67"/>
</a>
</g>
</g>
<!-- Node25 -->
<g id="Node000025" class="node">
<title>Node25</title>
<g id="a_Node000025"><a xlink:href="../../d1/dc0/group__log.html#gaf388752b988541da0abeceecdf96e6b3" target="_top" xlink:title=" ">
<polygon fill="white" stroke="#666666" points="817,-245.25 730.5,-245.25 730.5,-226 817,-226 817,-245.25"/>
<text text-anchor="middle" x="773.75" y="-231.75" font-family="Helvetica,sans-Serif" font-size="10.00">logger_get_level</text>
</a>
</g>
</g>
<!-- Node24&#45;&gt;Node25 -->
<g id="edge28_Node000024_Node000025" class="edge">
<title>Node24&#45;&gt;Node25</title>
<g id="a_edge28_Node000024_Node000025"><a xlink:title=" ">
<path fill="none" stroke="#63b8ff" d="M666.98,-235.62C683.14,-235.62 701.67,-235.62 718.65,-235.62"/>
<polygon fill="#63b8ff" stroke="#63b8ff" points="718.61,-239.13 728.61,-235.63 718.61,-232.13 718.61,-239.13"/>
</a>
</g>
</g>
<!-- Node26 -->
<g id="Node000026" class="node">
<title>Node26</title>
<g id="a_Node000026"><a xlink:href="../../d1/dc0/group__log.html#ga93cbd623096e1704532d15b3eb30e42f" target="_top" xlink:title=" ">
<polygon fill="white" stroke="#666666" points="961.25,-245.25 873.25,-245.25 873.25,-226 961.25,-226 961.25,-245.25"/>
<text text-anchor="middle" x="917.25" y="-231.75" font-family="Helvetica,sans-Serif" font-size="10.00">__logger_refresh</text>
</a>
</g>
</g>
<!-- Node25&#45;&gt;Node26 -->
<g id="edge29_Node000025_Node000026" class="edge">
<title>Node25&#45;&gt;Node26</title>
<g id="a_edge29_Node000025_Node000026"><a xlink:title=" ">
<path fill="none" stroke="#63b8ff" d="M817.2,-235.62C831.08,-235.62 846.69,-235.62 861.35,-235.62"/>
<polygon fill="#63b8ff" stroke="#63b8ff" points="861.33,-239.13 871.33,-235.63 861.33,-232.13 861.33,-239.13"/>
</a>
</g>
</g>
<!-- Node32&#45;&gt;Node2 -->
<g id="edge37_Node000032_Node000002" class="edge">
<title>Node32&#45;&gt;Node2</title>
<g id="a_edge37_Node000032_Node000002"><a xlink:title=" ">
<path fill="none" stroke="#63b8ff" d="M308.14,-226.53C313.67,-229.02 319.48,-231.79 324.75,-234.62 336.92,-241.15 349.92,-249.26 360.68,-256.3"/>
<polygon fill="#63b8ff" stroke="#63b8ff" points="358.69,-259.18 368.96,-261.8 362.57,-253.35 358.69,-259.18"/>
</a>
</g>
</g>
<!-- Node33&#45;&gt;Node4 -->
<g id="edge39_Node000033_Node000004" class="edge">
<title>Node33&#45;&gt;Node4</title>
<g id="a_edge39_Node000033_Node000004"><a xlink:title=" ">
<path fill="none" stroke="#63b8ff" d="M320.57,-147.48C329.87,-149.25 339.88,-151.14 349.15,-152.9"/>
<polygon fill="#63b8ff" stroke="#63b8ff" points="348.43,-156.33 358.9,-154.75 349.73,-149.45 348.43,-156.33"/>
</a>
</g>
</g>
</g>
</svg>

<g id="navigator" transform="translate(0 0)" fill="#404254">
  <rect fill="#f2f5e9" fill-opacity="0.5" stroke="#606060" stroke-width=".5" x="0" y="0" width="60" height="60"/>
  <use id="zoomplus" xlink:href="#zoomPlus" x="17" y="9" onmousedown="handleZoom(evt,'in')"/>
  <use id="zoomminus" xlink:href="#zoomMin" x="42" y="9" onmousedown="handleZoom(evt,'out')"/>
  <use id="reset" xlink:href="#resetDef" x="30" y="36" onmousedown="handleReset()"/>
   <use id="arrowup" xlink:href="#arrowUp" x="0" y="0" onmousedown="handlePan(0,-1)"/>
  <use id="arrowright" xlink:href="#arrowRight" x="0" y="0" onmousedown="handlePan(1,0)"/>
  <use id="arrowdown" xlink:href="#arrowDown" x="0" y="0" onmousedown="handlePan(0,1)"/>
  <use id="arrowleft" xlink:href="#arrowLeft" x="0" y="0" onmousedown="handlePan(-1,0)"/>
</g>
<svg viewBox="0 0 15 15" width="100%" height="30px" preserveAspectRatio="xMaxYMin meet">
 <g id="arrow_out" transform="scale(0.3 0.3)">
  <a xlink:href="parseopt_8c_a1afc7b0144b8a17883b46b738f0ab009_cgraph_org.svg" target="_base">
   <rect id="button" ry="5" rx="5" y="6" x="6" height="38" width="38"
        fill="#f2f5e9" fill-opacity="0.5" stroke="#606060" stroke-width="1.0"/>
   <path id="arrow"
     d="M 11.500037,31.436501 C 11.940474,20.09759 22.043105,11.32322 32.158766,21.979434 L 37.068811,17.246167 C 37.068811,17.246167 37.088388,32 37.088388,32 L 22.160133,31.978069 C 22.160133,31.978069 26.997745,27.140456 26.997745,27.140456 C 18.528582,18.264221 13.291696,25.230495 11.500037,31.436501 z"
     style="fill:#404040;"/>
  </a>
 </g>
</svg>

<style type='text/css'>
<![CDATA[
[data-mouse-over-selected='false'] { opacity: 0.7; }
[data-mouse-over-selected='true']  { opacity: 1.0; }
]]>
</style>
<script type="application/ecmascript"><![CDATA[
document.addEventListener('DOMContentLoaded', (event) => {
  highlightEdges();
  highlightAdjacentNodes();
});
]]></script>
</svg>
