<?xml version="1.0" encoding="UTF-8" standalone="no"?>
<!DOCTYPE svg PUBLIC "-//W3C//DTD SVG 1.1//EN"
 "http://www.w3.org/Graphics/SVG/1.1/DTD/svg11.dtd">
<!-- Generated by graphviz version 9.0.0 (20230911.1827)
 -->
<!-- Title: iopc_fun_get_struct_const Pages: 1 -->
<svg width="2153pt" height="406pt"
 viewBox="0.00 0.00 2153.25 406.25" xmlns="http://www.w3.org/2000/svg" xmlns:xlink="http://www.w3.org/1999/xlink">
<g id="graph0" class="graph" transform="scale(1 1) rotate(0) translate(4 402.25)">
<title>iopc_fun_get_struct_const</title>
<!-- Node1 -->
<g id="Node000001" class="node">
<title>Node1</title>
<g id="a_Node000001"><a xlink:title=" ">
<polygon fill="#999999" stroke="#666666" points="2145.25,-365.88 2043.75,-365.88 2043.75,-335.38 2145.25,-335.38 2145.25,-365.88"/>
<text text-anchor="start" x="2051.75" y="-352.38" font-family="Helvetica,sans-Serif" font-size="10.00">iopc_fun_get_struct</text>
<text text-anchor="middle" x="2094.5" y="-341.12" font-family="Helvetica,sans-Serif" font-size="10.00">_const</text>
</a>
</g>
</g>
<!-- Node2 -->
<g id="Node000002" class="node">
<title>Node2</title>
<g id="a_Node000002"><a xlink:href="../../dd/dfc/iopc-parser_8c.html#a0451da1efc7d24554e38be6289a52ba9" target="_top" xlink:title=" ">
<polygon fill="white" stroke="#666666" points="1838.38,-398.25 1749.62,-398.25 1749.62,-379 1838.38,-379 1838.38,-398.25"/>
<text text-anchor="middle" x="1794" y="-384.75" font-family="Helvetica,sans-Serif" font-size="10.00">build_dox_param</text>
</a>
</g>
</g>
<!-- Node1&#45;&gt;Node2 -->
<g id="edge1_Node000001_Node000002" class="edge">
<title>Node1&#45;&gt;Node2</title>
<g id="a_edge1_Node000001_Node000002"><a xlink:title=" ">
<path fill="none" stroke="#63b8ff" d="M2032.07,-354.18C1989.96,-357.1 1932.9,-362.02 1883,-369.62 1867.7,-371.96 1851.08,-375.33 1836.44,-378.58"/>
<polygon fill="#63b8ff" stroke="#63b8ff" points="2032.28,-357.67 2042.02,-353.51 2031.81,-350.69 2032.28,-357.67"/>
</a>
</g>
</g>
<!-- Node4 -->
<g id="Node000004" class="node">
<title>Node4</title>
<g id="a_Node000004"><a xlink:href="../../dd/dfc/iopc-parser_8c.html#a60bc4fdac1682148dde43dd284f3c29b" target="_top" xlink:title=" ">
<polygon fill="white" stroke="#666666" points="2007.75,-398.25 1883,-398.25 1883,-379 2007.75,-379 2007.75,-398.25"/>
<text text-anchor="middle" x="1945.38" y="-384.75" font-family="Helvetica,sans-Serif" font-size="10.00">iopc_dox_arg_find_in_fun</text>
</a>
</g>
</g>
<!-- Node1&#45;&gt;Node4 -->
<g id="edge3_Node000001_Node000004" class="edge">
<title>Node1&#45;&gt;Node4</title>
<g id="a_edge3_Node000001_Node000004"><a xlink:title=" ">
<path fill="none" stroke="#63b8ff" d="M2032.4,-366.41C2016.44,-370.53 1999.67,-374.86 1985.23,-378.59"/>
<polygon fill="#63b8ff" stroke="#63b8ff" points="2033.01,-369.86 2041.81,-363.97 2031.26,-363.09 2033.01,-369.86"/>
</a>
</g>
</g>
<!-- Node5 -->
<g id="Node000005" class="node">
<title>Node5</title>
<g id="a_Node000005"><a xlink:href="../../dd/dfc/iopc-parser_8c.html#a62d5c4d67812740e28597c66c36d9c75" target="_top" xlink:title=" ">
<polygon fill="white" stroke="#666666" points="1996.12,-322.25 1894.62,-322.25 1894.62,-303 1996.12,-303 1996.12,-322.25"/>
<text text-anchor="middle" x="1945.38" y="-308.75" font-family="Helvetica,sans-Serif" font-size="10.00">iopc_fun_get_struct</text>
</a>
</g>
</g>
<!-- Node1&#45;&gt;Node5 -->
<g id="edge5_Node000001_Node000005" class="edge">
<title>Node1&#45;&gt;Node5</title>
<g id="a_edge5_Node000001_Node000005"><a xlink:title=" ">
<path fill="none" stroke="#63b8ff" d="M2032.4,-334.84C2016.44,-330.72 1999.67,-326.39 1985.23,-322.66"/>
<polygon fill="#63b8ff" stroke="#63b8ff" points="2031.26,-338.16 2041.81,-337.28 2033.01,-331.39 2031.26,-338.16"/>
</a>
</g>
</g>
<!-- Node3 -->
<g id="Node000003" class="node">
<title>Node3</title>
<g id="a_Node000003"><a xlink:href="../../dd/dfc/iopc-parser_8c.html#abe3d6cfba80507c9ce5861308c77342d" target="_top" xlink:title=" ">
<polygon fill="white" stroke="#666666" points="1683.62,-398.25 1621.88,-398.25 1621.88,-379 1683.62,-379 1683.62,-398.25"/>
<text text-anchor="middle" x="1652.75" y="-384.75" font-family="Helvetica,sans-Serif" font-size="10.00">build_dox_</text>
</a>
</g>
</g>
<!-- Node2&#45;&gt;Node3 -->
<g id="edge2_Node000002_Node000003" class="edge">
<title>Node2&#45;&gt;Node3</title>
<g id="a_edge2_Node000002_Node000003"><a xlink:title=" ">
<path fill="none" stroke="#63b8ff" d="M1737.84,-388.62C1719.51,-388.62 1699.78,-388.62 1684.04,-388.62"/>
<polygon fill="#63b8ff" stroke="#63b8ff" points="1737.81,-392.13 1747.81,-388.63 1737.81,-385.13 1737.81,-392.13"/>
</a>
</g>
</g>
<!-- Node4&#45;&gt;Node2 -->
<g id="edge4_Node000004_Node000002" class="edge">
<title>Node4&#45;&gt;Node2</title>
<g id="a_edge4_Node000004_Node000002"><a xlink:title=" ">
<path fill="none" stroke="#63b8ff" d="M1871.57,-388.62C1860.33,-388.62 1849.03,-388.62 1838.69,-388.62"/>
<polygon fill="#63b8ff" stroke="#63b8ff" points="1871.24,-392.13 1881.24,-388.63 1871.24,-385.13 1871.24,-392.13"/>
</a>
</g>
</g>
<!-- Node6 -->
<g id="Node000006" class="node">
<title>Node6</title>
<g id="a_Node000006"><a xlink:href="../../dd/dfc/iopc-parser_8c.html#a881b113838da8ff0b54d725bbff9049a" target="_top" xlink:title=" ">
<polygon fill="white" stroke="#666666" points="1847,-322.25 1741,-322.25 1741,-303 1847,-303 1847,-322.25"/>
<text text-anchor="middle" x="1794" y="-308.75" font-family="Helvetica,sans-Serif" font-size="10.00">parse_function_desc</text>
</a>
</g>
</g>
<!-- Node5&#45;&gt;Node6 -->
<g id="edge6_Node000005_Node000006" class="edge">
<title>Node5&#45;&gt;Node6</title>
<g id="a_edge6_Node000005_Node000006"><a xlink:title=" ">
<path fill="none" stroke="#63b8ff" d="M1883.03,-312.62C1871.18,-312.62 1858.86,-312.62 1847.32,-312.62"/>
<polygon fill="#63b8ff" stroke="#63b8ff" points="1882.71,-316.13 1892.71,-312.63 1882.71,-309.13 1882.71,-316.13"/>
</a>
</g>
</g>
<!-- Node7 -->
<g id="Node000007" class="node">
<title>Node7</title>
<g id="a_Node000007"><a xlink:href="../../dd/dfc/iopc-parser_8c.html#aecb24588e7de941ac8b4717fc96c31a2" target="_top" xlink:title=" ">
<polygon fill="white" stroke="#666666" points="1705,-284.25 1600.5,-284.25 1600.5,-265 1705,-265 1705,-284.25"/>
<text text-anchor="middle" x="1652.75" y="-270.75" font-family="Helvetica,sans-Serif" font-size="10.00">parse_function_stmt</text>
</a>
</g>
</g>
<!-- Node6&#45;&gt;Node7 -->
<g id="edge7_Node000006_Node000007" class="edge">
<title>Node6&#45;&gt;Node7</title>
<g id="a_edge7_Node000006_Node000007"><a xlink:title=" ">
<path fill="none" stroke="#63b8ff" d="M1744.95,-299.51C1727.07,-294.63 1707.09,-289.18 1690.39,-284.62"/>
<polygon fill="#63b8ff" stroke="#63b8ff" points="1744.02,-302.89 1754.59,-302.14 1745.86,-296.13 1744.02,-302.89"/>
</a>
</g>
</g>
<!-- Node8 -->
<g id="Node000008" class="node">
<title>Node8</title>
<g id="a_Node000008"><a xlink:href="../../dd/dfc/iopc-parser_8c.html#a35685e561fb0c4cb62de1c2b33992a95" target="_top" xlink:title=" ">
<polygon fill="white" stroke="#666666" points="1564.5,-284.25 1473.5,-284.25 1473.5,-265 1564.5,-265 1564.5,-284.25"/>
<text text-anchor="middle" x="1519" y="-270.75" font-family="Helvetica,sans-Serif" font-size="10.00">parse_iface_stmt</text>
</a>
</g>
</g>
<!-- Node7&#45;&gt;Node8 -->
<g id="edge8_Node000007_Node000008" class="edge">
<title>Node7&#45;&gt;Node8</title>
<g id="a_edge8_Node000007_Node000008"><a xlink:title=" ">
<path fill="none" stroke="#63b8ff" d="M1588.69,-274.62C1580.59,-274.62 1572.44,-274.62 1564.71,-274.62"/>
<polygon fill="#63b8ff" stroke="#63b8ff" points="1588.54,-278.13 1598.54,-274.63 1588.54,-271.13 1588.54,-278.13"/>
</a>
</g>
</g>
<!-- Node9 -->
<g id="Node000009" class="node">
<title>Node9</title>
<g id="a_Node000009"><a xlink:href="../../dd/dfc/iopc-parser_8c.html#acc269e02f19abeee93b7a6ef689abe1d" target="_top" xlink:title=" ">
<polygon fill="white" stroke="#666666" points="1437.5,-171.25 1355.5,-171.25 1355.5,-152 1437.5,-152 1437.5,-171.25"/>
<text text-anchor="middle" x="1396.5" y="-157.75" font-family="Helvetica,sans-Serif" font-size="10.00">parse_package</text>
</a>
</g>
</g>
<!-- Node8&#45;&gt;Node9 -->
<g id="edge9_Node000008_Node000009" class="edge">
<title>Node8&#45;&gt;Node9</title>
<g id="a_edge9_Node000008_Node000009"><a xlink:title=" ">
<path fill="none" stroke="#63b8ff" d="M1499.1,-256.9C1473.41,-232.81 1428.35,-190.55 1408,-171.47"/>
<polygon fill="#63b8ff" stroke="#63b8ff" points="1496.51,-259.27 1506.2,-263.56 1501.3,-254.17 1496.51,-259.27"/>
</a>
</g>
</g>
<!-- Node10 -->
<g id="Node000010" class="node">
<title>Node10</title>
<g id="a_Node000010"><a xlink:href="../../dd/dfc/iopc-parser_8c.html#a5b4e6d6c40f2ad8a2daee70d7c82ce9d" target="_top" xlink:title=" ">
<polygon fill="white" stroke="#666666" points="1319.5,-114.25 1239,-114.25 1239,-95 1319.5,-95 1319.5,-114.25"/>
<text text-anchor="middle" x="1279.25" y="-100.75" font-family="Helvetica,sans-Serif" font-size="10.00">iopc_parse_file</text>
</a>
</g>
</g>
<!-- Node9&#45;&gt;Node10 -->
<g id="edge10_Node000009_Node000010" class="edge">
<title>Node9&#45;&gt;Node10</title>
<g id="a_edge10_Node000009_Node000010"><a xlink:title=" ">
<path fill="none" stroke="#63b8ff" d="M1365.09,-146.58C1344.64,-136.47 1318.26,-123.42 1300.39,-114.58"/>
<polygon fill="#63b8ff" stroke="#63b8ff" points="1363.29,-149.6 1373.8,-150.89 1366.39,-143.32 1363.29,-149.6"/>
</a>
</g>
</g>
<!-- Node11 -->
<g id="Node000011" class="node">
<title>Node11</title>
<g id="a_Node000011"><a xlink:href="../../db/d07/iopc-dso_8c.html#a95a19b847fb352eb92b539cf3495f093" target="_top" xlink:title=" ">
<polygon fill="white" stroke="#666666" points="1199.25,-96.25 1139.75,-96.25 1139.75,-77 1199.25,-77 1199.25,-96.25"/>
<text text-anchor="middle" x="1169.5" y="-82.75" font-family="Helvetica,sans-Serif" font-size="10.00">iopc_build</text>
</a>
</g>
</g>
<!-- Node10&#45;&gt;Node11 -->
<g id="edge11_Node000010_Node000011" class="edge">
<title>Node10&#45;&gt;Node11</title>
<g id="a_edge11_Node000010_Node000011"><a xlink:title=" ">
<path fill="none" stroke="#63b8ff" d="M1227.58,-96.16C1217.96,-94.55 1208.2,-92.92 1199.54,-91.48"/>
<polygon fill="#63b8ff" stroke="#63b8ff" points="1226.81,-99.58 1237.25,-97.78 1227.96,-92.68 1226.81,-99.58"/>
</a>
</g>
</g>
<!-- Node13 -->
<g id="Node000013" class="node">
<title>Node13</title>
<g id="a_Node000013"><a xlink:href="../../dd/dfc/iopc-parser_8c.html#a4a1b6267556f4be9d70d30b95884da4d" target="_top" xlink:title=" ">
<polygon fill="white" stroke="#666666" points="1203,-133.25 1136,-133.25 1136,-114 1203,-114 1203,-133.25"/>
<text text-anchor="middle" x="1169.5" y="-119.75" font-family="Helvetica,sans-Serif" font-size="10.00">iopc_try_file</text>
</a>
</g>
</g>
<!-- Node10&#45;&gt;Node13 -->
<g id="edge13_Node000010_Node000013" class="edge">
<title>Node10&#45;&gt;Node13</title>
<g id="a_edge13_Node000010_Node000013"><a xlink:title=" ">
<path fill="none" stroke="#63b8ff" d="M1227.61,-113.56C1219.34,-115.01 1210.97,-116.49 1203.29,-117.84"/>
<polygon fill="#63b8ff" stroke="#63b8ff" points="1228.01,-117.04 1237.25,-111.85 1226.79,-110.14 1228.01,-117.04"/>
</a>
</g>
</g>
<!-- Node32 -->
<g id="Node000032" class="node">
<title>Node32</title>
<g id="a_Node000032"><a xlink:href="../../df/d1f/iopc_8c.html#a3c04138a5bfe5d72780bb7e82a18e627" target="_top" xlink:title=" ">
<polygon fill="white" stroke="#666666" points="1188,-59.25 1151,-59.25 1151,-40 1188,-40 1188,-59.25"/>
<text text-anchor="middle" x="1169.5" y="-45.75" font-family="Helvetica,sans-Serif" font-size="10.00">main</text>
</a>
</g>
</g>
<!-- Node10&#45;&gt;Node32 -->
<g id="edge41_Node000010_Node000032" class="edge">
<title>Node10&#45;&gt;Node32</title>
<g id="a_edge41_Node000010_Node000032"><a xlink:title=" ">
<path fill="none" stroke="#63b8ff" d="M1248.39,-89.38C1229.11,-79.54 1204.66,-67.06 1188.35,-58.74"/>
<polygon fill="#63b8ff" stroke="#63b8ff" points="1246.64,-92.42 1257.14,-93.85 1249.82,-86.19 1246.64,-92.42"/>
</a>
</g>
</g>
<!-- Node12 -->
<g id="Node000012" class="node">
<title>Node12</title>
<g id="a_Node000012"><a xlink:href="../../db/d07/iopc-dso_8c.html#ab2da67841232fab2872190ddabd94a81" target="_top" xlink:title="Build an IOP DSO.">
<polygon fill="white" stroke="#666666" points="1091.75,-96.25 1011.25,-96.25 1011.25,-77 1091.75,-77 1091.75,-96.25"/>
<text text-anchor="middle" x="1051.5" y="-82.75" font-family="Helvetica,sans-Serif" font-size="10.00">iopc_dso_build</text>
</a>
</g>
</g>
<!-- Node11&#45;&gt;Node12 -->
<g id="edge12_Node000011_Node000012" class="edge">
<title>Node11&#45;&gt;Node12</title>
<g id="a_edge12_Node000011_Node000012"><a xlink:title=" ">
<path fill="none" stroke="#63b8ff" d="M1128.24,-86.62C1116.51,-86.62 1103.71,-86.62 1092.03,-86.62"/>
<polygon fill="#63b8ff" stroke="#63b8ff" points="1128.01,-90.13 1138.01,-86.63 1128.01,-83.13 1128.01,-90.13"/>
</a>
</g>
</g>
<!-- Node14 -->
<g id="Node000014" class="node">
<title>Node14</title>
<g id="a_Node000014"><a xlink:href="../../dd/dfc/iopc-parser_8c.html#a79761716a7eac847296f64962fe71976" target="_top" xlink:title=" ">
<polygon fill="white" stroke="#666666" points="1100,-133.25 1003,-133.25 1003,-114 1100,-114 1100,-133.25"/>
<text text-anchor="middle" x="1051.5" y="-119.75" font-family="Helvetica,sans-Serif" font-size="10.00">check_path_exists</text>
</a>
</g>
</g>
<!-- Node13&#45;&gt;Node14 -->
<g id="edge14_Node000013_Node000014" class="edge">
<title>Node13&#45;&gt;Node14</title>
<g id="a_edge14_Node000013_Node000014"><a xlink:title=" ">
<path fill="none" stroke="#63b8ff" d="M1124.07,-123.62C1116.27,-123.62 1108.12,-123.62 1100.24,-123.62"/>
<polygon fill="#63b8ff" stroke="#63b8ff" points="1124.06,-127.13 1134.06,-123.63 1124.06,-120.13 1124.06,-127.13"/>
</a>
</g>
</g>
<!-- Node15 -->
<g id="Node000015" class="node">
<title>Node15</title>
<g id="a_Node000015"><a xlink:href="../../dd/dfc/iopc-parser_8c.html#a0ec09fbdcf0b260ff83a7fdb42cf23cc" target="_top" xlink:title=" ">
<polygon fill="white" stroke="#666666" points="967,-133.25 882.75,-133.25 882.75,-114 967,-114 967,-133.25"/>
<text text-anchor="middle" x="924.88" y="-119.75" font-family="Helvetica,sans-Serif" font-size="10.00">parse_path_aux</text>
</a>
</g>
</g>
<!-- Node14&#45;&gt;Node15 -->
<g id="edge15_Node000014_Node000015" class="edge">
<title>Node14&#45;&gt;Node15</title>
<g id="a_edge15_Node000014_Node000015"><a xlink:title=" ">
<path fill="none" stroke="#63b8ff" d="M991.3,-123.62C983.18,-123.62 974.98,-123.62 967.28,-123.62"/>
<polygon fill="#63b8ff" stroke="#63b8ff" points="991.16,-127.13 1001.16,-123.63 991.16,-120.13 991.16,-127.13"/>
</a>
</g>
</g>
<!-- Node27 -->
<g id="Node000027" class="node">
<title>Node27</title>
<g id="a_Node000027"><a xlink:href="../../dd/dfc/iopc-parser_8c.html#a3f387ee0539c70f944de5dcc98cf928e" target="_top" xlink:title=" ">
<polygon fill="white" stroke="#666666" points="715.62,-56.25 591.62,-56.25 591.62,-37 715.62,-37 715.62,-56.25"/>
<text text-anchor="middle" x="653.62" y="-42.75" font-family="Helvetica,sans-Serif" font-size="10.00">parse_struct_snmp_from</text>
</a>
</g>
</g>
<!-- Node14&#45;&gt;Node27 -->
<g id="edge40_Node000014_Node000027" class="edge">
<title>Node14&#45;&gt;Node27</title>
<g id="a_edge40_Node000014_Node000027"><a xlink:title=" ">
<path fill="none" stroke="#63b8ff" d="M996.72,-111.05C986.85,-108.84 976.63,-106.61 967,-104.62 878.68,-86.38 775.76,-67.79 712.91,-56.73"/>
<polygon fill="#63b8ff" stroke="#63b8ff" points="995.66,-114.4 1006.19,-113.2 997.21,-107.58 995.66,-114.4"/>
</a>
</g>
</g>
<!-- Node16 -->
<g id="Node000016" class="node">
<title>Node16</title>
<g id="a_Node000016"><a xlink:href="../../dd/dfc/iopc-parser_8c.html#abeb1a49428a1bce37107c5b00cddb84a" target="_top" xlink:title=" ">
<polygon fill="white" stroke="#666666" points="843,-133.25 757.25,-133.25 757.25,-114 843,-114 843,-133.25"/>
<text text-anchor="middle" x="800.12" y="-119.75" font-family="Helvetica,sans-Serif" font-size="10.00">parse_pkg_stmt</text>
</a>
</g>
</g>
<!-- Node15&#45;&gt;Node16 -->
<g id="edge16_Node000015_Node000016" class="edge">
<title>Node15&#45;&gt;Node16</title>
<g id="a_edge16_Node000015_Node000016"><a xlink:title=" ">
<path fill="none" stroke="#63b8ff" d="M870.9,-123.62C861.74,-123.62 852.31,-123.62 843.48,-123.62"/>
<polygon fill="#63b8ff" stroke="#63b8ff" points="870.8,-127.13 880.8,-123.63 870.8,-120.13 870.8,-127.13"/>
</a>
</g>
</g>
<!-- Node17 -->
<g id="Node000017" class="node">
<title>Node17</title>
<g id="a_Node000017"><a xlink:href="../../dd/dfc/iopc-parser_8c.html#ac72267654dc96e255a3f80df8feb4307" target="_top" xlink:title=" ">
<polygon fill="white" stroke="#666666" points="846.75,-170.25 753.5,-170.25 753.5,-151 846.75,-151 846.75,-170.25"/>
<text text-anchor="middle" x="800.12" y="-156.75" font-family="Helvetica,sans-Serif" font-size="10.00">parse_struct_type</text>
</a>
</g>
</g>
<!-- Node15&#45;&gt;Node17 -->
<g id="edge18_Node000015_Node000017" class="edge">
<title>Node15&#45;&gt;Node17</title>
<g id="a_edge18_Node000015_Node000017"><a xlink:title=" ">
<path fill="none" stroke="#63b8ff" d="M879.38,-137.04C864.61,-141.49 848.42,-146.37 834.63,-150.53"/>
<polygon fill="#63b8ff" stroke="#63b8ff" points="880.32,-140.41 888.88,-134.17 878.3,-133.71 880.32,-140.41"/>
</a>
</g>
</g>
<!-- Node16&#45;&gt;Node9 -->
<g id="edge17_Node000016_Node000009" class="edge">
<title>Node16&#45;&gt;Node9</title>
<g id="a_edge17_Node000016_Node000009"><a xlink:title=" ">
<path fill="none" stroke="#63b8ff" d="M851.35,-136.28C861.69,-138.61 872.54,-140.86 882.75,-142.62 956.69,-155.37 975.47,-161.62 1050.5,-161.62 1170.5,-161.62 1170.5,-161.62 1170.5,-161.62 1235.15,-161.62 1310.25,-161.62 1355.26,-161.62"/>
<polygon fill="#63b8ff" stroke="#63b8ff" points="852.39,-132.93 841.85,-134.08 850.8,-139.75 852.39,-132.93"/>
</a>
</g>
</g>
<!-- Node17&#45;&gt;Node6 -->
<g id="edge26_Node000017_Node000006" class="edge">
<title>Node17&#45;&gt;Node6</title>
<g id="a_edge26_Node000017_Node000006"><a xlink:title=" ">
<path fill="none" stroke="#63b8ff" d="M816.93,-179.03C853.56,-219.49 948.9,-312.62 1050.5,-312.62 1520,-312.62 1520,-312.62 1520,-312.62 1596.78,-312.62 1685.71,-312.62 1740.66,-312.62"/>
<polygon fill="#63b8ff" stroke="#63b8ff" points="819.72,-176.9 810.47,-171.73 814.48,-181.54 819.72,-176.9"/>
</a>
</g>
</g>
<!-- Node18 -->
<g id="Node000018" class="node">
<title>Node18</title>
<g id="a_Node000018"><a xlink:href="../../dd/dfc/iopc-parser_8c.html#a1bbd17ec50769c5bdda73d466edd08a3" target="_top" xlink:title=" ">
<polygon fill="white" stroke="#666666" points="696.5,-132.25 610.75,-132.25 610.75,-113 696.5,-113 696.5,-132.25"/>
<text text-anchor="middle" x="653.62" y="-118.75" font-family="Helvetica,sans-Serif" font-size="10.00">parse_field_type</text>
</a>
</g>
</g>
<!-- Node17&#45;&gt;Node18 -->
<g id="edge19_Node000017_Node000018" class="edge">
<title>Node17&#45;&gt;Node18</title>
<g id="a_edge19_Node000017_Node000018"><a xlink:title=" ">
<path fill="none" stroke="#63b8ff" d="M749.83,-147.66C731.23,-142.77 710.35,-137.28 692.9,-132.69"/>
<polygon fill="#63b8ff" stroke="#63b8ff" points="748.76,-151 759.32,-150.16 750.54,-144.23 748.76,-151"/>
</a>
</g>
</g>
<!-- Node23 -->
<g id="Node000023" class="node">
<title>Node23</title>
<g id="a_Node000023"><a xlink:href="../../dd/dfc/iopc-parser_8c.html#a0ddf289eec55c97f63f8115e0e3a83d4" target="_top" xlink:title=" ">
<polygon fill="white" stroke="#666666" points="410.25,-95.25 278.75,-95.25 278.75,-76 410.25,-76 410.25,-95.25"/>
<text text-anchor="middle" x="344.5" y="-81.75" font-family="Helvetica,sans-Serif" font-size="10.00">parse_handle_class_snmp</text>
</a>
</g>
</g>
<!-- Node17&#45;&gt;Node23 -->
<g id="edge27_Node000017_Node000023" class="edge">
<title>Node17&#45;&gt;Node23</title>
<g id="a_edge27_Node000017_Node000023"><a xlink:title=" ">
<path fill="none" stroke="#63b8ff" d="M758.33,-145.65C756.66,-144.69 755.05,-143.68 753.5,-142.62 734.04,-129.29 738.87,-113.61 717.5,-103.62 614.97,-55.75 478.78,-64.92 402.87,-75.51"/>
<polygon fill="#63b8ff" stroke="#63b8ff" points="756.36,-148.58 766.86,-149.95 759.51,-142.33 756.36,-148.58"/>
</a>
</g>
</g>
<!-- Node24 -->
<g id="Node000024" class="node">
<title>Node24</title>
<g id="a_Node000024"><a xlink:href="../../dd/dfc/iopc-parser_8c.html#ad28554ac836ef0c02ed7096a98e8749c" target="_top" xlink:title=" ">
<polygon fill="white" stroke="#666666" points="709.25,-208.25 598,-208.25 598,-189 709.25,-189 709.25,-208.25"/>
<text text-anchor="middle" x="653.62" y="-194.75" font-family="Helvetica,sans-Serif" font-size="10.00">parse_mod_field_stmt</text>
</a>
</g>
</g>
<!-- Node17&#45;&gt;Node24 -->
<g id="edge29_Node000017_Node000024" class="edge">
<title>Node17&#45;&gt;Node24</title>
<g id="a_edge29_Node000017_Node000024"><a xlink:title=" ">
<path fill="none" stroke="#63b8ff" d="M749.83,-173.59C731.23,-178.48 710.35,-183.97 692.9,-188.56"/>
<polygon fill="#63b8ff" stroke="#63b8ff" points="750.54,-177.02 759.32,-171.09 748.76,-170.25 750.54,-177.02"/>
</a>
</g>
</g>
<!-- Node25 -->
<g id="Node000025" class="node">
<title>Node25</title>
<g id="a_Node000025"><a xlink:href="../../dd/dfc/iopc-parser_8c.html#a285bbff499acd09cc7b78a6110b26092" target="_top" xlink:title=" ">
<polygon fill="white" stroke="#666666" points="550.75,-208.25 449.25,-208.25 449.25,-189 550.75,-189 550.75,-208.25"/>
<text text-anchor="middle" x="500" y="-194.75" font-family="Helvetica,sans-Serif" font-size="10.00">parse_module_stmt</text>
</a>
</g>
</g>
<!-- Node17&#45;&gt;Node25 -->
<g id="edge32_Node000017_Node000025" class="edge">
<title>Node17&#45;&gt;Node25</title>
<g id="a_edge32_Node000017_Node000025"><a xlink:title=" ">
<path fill="none" stroke="#63b8ff" d="M741.74,-163.96C699.54,-166.87 640.88,-171.86 589.75,-179.62 574.33,-181.97 557.56,-185.34 542.8,-188.59"/>
<polygon fill="#63b8ff" stroke="#63b8ff" points="741.93,-167.46 751.68,-163.3 741.47,-160.47 741.93,-167.46"/>
</a>
</g>
</g>
<!-- Node26 -->
<g id="Node000026" class="node">
<title>Node26</title>
<g id="a_Node000026"><a xlink:href="../../dd/dfc/iopc-parser_8c.html#a7281d65321218fddc70cabe8a105be55" target="_top" xlink:title=" ">
<polygon fill="white" stroke="#666666" points="717.5,-284.25 589.75,-284.25 589.75,-265 717.5,-265 717.5,-284.25"/>
<text text-anchor="middle" x="653.62" y="-270.75" font-family="Helvetica,sans-Serif" font-size="10.00">parse_snmp_iface_parent</text>
</a>
</g>
</g>
<!-- Node17&#45;&gt;Node26 -->
<g id="edge33_Node000017_Node000026" class="edge">
<title>Node17&#45;&gt;Node26</title>
<g id="a_edge33_Node000017_Node000026"><a xlink:title=" ">
<path fill="none" stroke="#63b8ff" d="M777.26,-177.87C746.6,-202.06 691.83,-245.27 667.21,-264.69"/>
<polygon fill="#63b8ff" stroke="#63b8ff" points="779.43,-180.62 785.11,-171.68 775.09,-175.13 779.43,-180.62"/>
</a>
</g>
</g>
<!-- Node17&#45;&gt;Node27 -->
<g id="edge35_Node000017_Node000027" class="edge">
<title>Node17&#45;&gt;Node27</title>
<g id="a_edge35_Node000017_Node000027"><a xlink:title=" ">
<path fill="none" stroke="#63b8ff" d="M755.9,-144.66C755.07,-144.01 754.27,-143.33 753.5,-142.62 727.12,-118.46 744.02,-94.64 717.5,-70.62 710.92,-64.66 702.7,-60.13 694.4,-56.69"/>
<polygon fill="#63b8ff" stroke="#63b8ff" points="753.93,-147.56 764.25,-149.92 757.66,-141.63 753.93,-147.56"/>
</a>
</g>
</g>
<!-- Node19 -->
<g id="Node000019" class="node">
<title>Node19</title>
<g id="a_Node000019"><a xlink:href="../../dd/dfc/iopc-parser_8c.html#a7649a6231d55a4b9ec364ac09d94d3a5" target="_top" xlink:title=" ">
<polygon fill="white" stroke="#666666" points="543.62,-132.25 456.38,-132.25 456.38,-113 543.62,-113 543.62,-132.25"/>
<text text-anchor="middle" x="500" y="-118.75" font-family="Helvetica,sans-Serif" font-size="10.00">parse_field_stmt</text>
</a>
</g>
</g>
<!-- Node18&#45;&gt;Node19 -->
<g id="edge20_Node000018_Node000019" class="edge">
<title>Node18&#45;&gt;Node19</title>
<g id="a_edge20_Node000018_Node000019"><a xlink:title=" ">
<path fill="none" stroke="#63b8ff" d="M598.88,-122.62C580.91,-122.62 561.12,-122.62 544.06,-122.62"/>
<polygon fill="#63b8ff" stroke="#63b8ff" points="598.88,-126.13 608.88,-122.63 598.88,-119.13 598.88,-126.13"/>
</a>
</g>
</g>
<!-- Node22 -->
<g id="Node000022" class="node">
<title>Node22</title>
<g id="a_Node000022"><a xlink:href="../../dd/dfc/iopc-parser_8c.html#ab828c3a92b1c8238adadb490b7af86c2" target="_top" xlink:title=" ">
<polygon fill="white" stroke="#666666" points="550.75,-56.25 449.25,-56.25 449.25,-37 550.75,-37 550.75,-56.25"/>
<text text-anchor="middle" x="500" y="-42.75" font-family="Helvetica,sans-Serif" font-size="10.00">parse_typedef_stmt</text>
</a>
</g>
</g>
<!-- Node18&#45;&gt;Node22 -->
<g id="edge24_Node000018_Node000022" class="edge">
<title>Node18&#45;&gt;Node22</title>
<g id="a_edge24_Node000018_Node000022"><a xlink:title=" ">
<path fill="none" stroke="#63b8ff" d="M622.5,-107.53C592.29,-92.38 546.62,-69.49 520.74,-56.52"/>
<polygon fill="#63b8ff" stroke="#63b8ff" points="620.63,-110.5 631.14,-111.85 623.77,-104.24 620.63,-110.5"/>
</a>
</g>
</g>
<!-- Node20 -->
<g id="Node000020" class="node">
<title>Node20</title>
<g id="a_Node000020"><a xlink:href="../../dd/dfc/iopc-parser_8c.html#a77240cf99eead09f3518815538f6c3be" target="_top" xlink:title=" ">
<polygon fill="white" stroke="#666666" points="379.5,-132.25 309.5,-132.25 309.5,-113 379.5,-113 379.5,-132.25"/>
<text text-anchor="middle" x="344.5" y="-118.75" font-family="Helvetica,sans-Serif" font-size="10.00">parse_struct</text>
</a>
</g>
</g>
<!-- Node19&#45;&gt;Node20 -->
<g id="edge21_Node000019_Node000020" class="edge">
<title>Node19&#45;&gt;Node20</title>
<g id="a_edge21_Node000019_Node000020"><a xlink:title=" ">
<path fill="none" stroke="#63b8ff" d="M444.87,-122.62C423.22,-122.62 398.93,-122.62 379.78,-122.62"/>
<polygon fill="#63b8ff" stroke="#63b8ff" points="444.73,-126.13 454.73,-122.63 444.73,-119.13 444.73,-126.13"/>
</a>
</g>
</g>
<!-- Node20&#45;&gt;Node6 -->
<g id="edge22_Node000020_Node000006" class="edge">
<title>Node20&#45;&gt;Node6</title>
<g id="a_edge22_Node000020_Node000006"><a xlink:title=" ">
<path fill="none" stroke="#63b8ff" d="M358.19,-142.09C395.88,-197.25 513.19,-350.62 652.62,-350.62 1520,-350.62 1520,-350.62 1520,-350.62 1601.11,-350.62 1694.49,-333.97 1748.34,-322.71"/>
<polygon fill="#63b8ff" stroke="#63b8ff" points="361.23,-140.33 352.76,-133.97 355.42,-144.23 361.23,-140.33"/>
</a>
</g>
</g>
<!-- Node21 -->
<g id="Node000021" class="node">
<title>Node21</title>
<g id="a_Node000021"><a xlink:href="../../dd/dfc/iopc-parser_8c.html#a0420653b173302863ab71ffe83237e6d" target="_top" xlink:title=" ">
<polygon fill="white" stroke="#666666" points="242.75,-118.88 144.25,-118.88 144.25,-88.38 242.75,-88.38 242.75,-118.88"/>
<text text-anchor="start" x="152.25" y="-105.38" font-family="Helvetica,sans-Serif" font-size="10.00">parse_struct_class</text>
<text text-anchor="middle" x="193.5" y="-94.12" font-family="Helvetica,sans-Serif" font-size="10.00">_union_snmp_stmt</text>
</a>
</g>
</g>
<!-- Node20&#45;&gt;Node21 -->
<g id="edge23_Node000020_Node000021" class="edge">
<title>Node20&#45;&gt;Node21</title>
<g id="a_edge23_Node000020_Node000021"><a xlink:title=" ">
<path fill="none" stroke="#63b8ff" d="M298.29,-116.86C280.88,-114.64 260.93,-112.1 243.21,-109.84"/>
<polygon fill="#63b8ff" stroke="#63b8ff" points="297.45,-120.28 307.82,-118.07 298.34,-113.34 297.45,-120.28"/>
</a>
</g>
</g>
<!-- Node22&#45;&gt;Node9 -->
<g id="edge25_Node000022_Node000009" class="edge">
<title>Node22&#45;&gt;Node9</title>
<g id="a_edge25_Node000022_Node000009"><a xlink:title=" ">
<path fill="none" stroke="#63b8ff" d="M553.83,-34.22C565.6,-31.77 578.06,-29.4 589.75,-27.62 682.13,-13.6 705.69,-8.62 799.12,-8.62 1170.5,-8.62 1170.5,-8.62 1170.5,-8.62 1272.53,-8.62 1362.57,-117.55 1388.21,-151.59"/>
<polygon fill="#63b8ff" stroke="#63b8ff" points="553.32,-30.75 544.28,-36.28 554.79,-37.6 553.32,-30.75"/>
</a>
</g>
</g>
<!-- Node23&#45;&gt;Node21 -->
<g id="edge28_Node000023_Node000021" class="edge">
<title>Node23&#45;&gt;Node21</title>
<g id="a_edge28_Node000023_Node000021"><a xlink:title=" ">
<path fill="none" stroke="#63b8ff" d="M267.35,-94.82C259.09,-95.82 250.86,-96.82 243.07,-97.76"/>
<polygon fill="#63b8ff" stroke="#63b8ff" points="267.57,-98.32 277.08,-93.65 266.73,-91.37 267.57,-98.32"/>
</a>
</g>
</g>
<!-- Node24&#45;&gt;Node25 -->
<g id="edge30_Node000024_Node000025" class="edge">
<title>Node24&#45;&gt;Node25</title>
<g id="a_edge30_Node000024_Node000025"><a xlink:title=" ">
<path fill="none" stroke="#63b8ff" d="M586.61,-198.62C574.71,-198.62 562.48,-198.62 551.12,-198.62"/>
<polygon fill="#63b8ff" stroke="#63b8ff" points="586.37,-202.13 596.37,-198.63 586.37,-195.13 586.37,-202.13"/>
</a>
</g>
</g>
<!-- Node25&#45;&gt;Node9 -->
<g id="edge31_Node000025_Node000009" class="edge">
<title>Node25&#45;&gt;Node9</title>
<g id="a_edge31_Node000025_Node000009"><a xlink:title=" ">
<path fill="none" stroke="#63b8ff" d="M553.83,-211.03C565.6,-213.48 578.06,-215.85 589.75,-217.62 682.13,-231.65 705.69,-236.62 799.12,-236.62 1170.5,-236.62 1170.5,-236.62 1170.5,-236.62 1251.62,-236.62 1341.13,-192.21 1378.08,-171.74"/>
<polygon fill="#63b8ff" stroke="#63b8ff" points="554.79,-207.65 544.28,-208.97 553.32,-214.5 554.79,-207.65"/>
</a>
</g>
</g>
<!-- Node26&#45;&gt;Node8 -->
<g id="edge34_Node000026_Node000008" class="edge">
<title>Node26&#45;&gt;Node8</title>
<g id="a_edge34_Node000026_Node000008"><a xlink:title=" ">
<path fill="none" stroke="#63b8ff" d="M728.94,-274.62C783.01,-274.62 857.98,-274.62 923.88,-274.62 1280.25,-274.62 1280.25,-274.62 1280.25,-274.62 1347.53,-274.62 1425.52,-274.62 1473.3,-274.62"/>
<polygon fill="#63b8ff" stroke="#63b8ff" points="729.25,-271.13 719.25,-274.63 729.25,-278.13 729.25,-271.13"/>
</a>
</g>
</g>
<!-- Node28 -->
<g id="Node000028" class="node">
<title>Node28</title>
<g id="a_Node000028"><a xlink:href="../../dd/dfc/iopc-parser_8c.html#a54608d30c17f5d1a6f858f3f748ffc45" target="_top" xlink:title=" ">
<polygon fill="white" stroke="#666666" points="553.75,-19.25 446.25,-19.25 446.25,0 553.75,0 553.75,-19.25"/>
<text text-anchor="middle" x="500" y="-5.75" font-family="Helvetica,sans-Serif" font-size="10.00">parse_snmp_attr_arg</text>
</a>
</g>
</g>
<!-- Node27&#45;&gt;Node28 -->
<g id="edge36_Node000027_Node000028" class="edge">
<title>Node27&#45;&gt;Node28</title>
<g id="a_edge36_Node000027_Node000028"><a xlink:title=" ">
<path fill="none" stroke="#63b8ff" d="M600.06,-33.8C581.19,-29.19 560.18,-24.07 542.38,-19.72"/>
<polygon fill="#63b8ff" stroke="#63b8ff" points="599.18,-37.19 609.72,-36.16 600.84,-30.38 599.18,-37.19"/>
</a>
</g>
</g>
<!-- Node29 -->
<g id="Node000029" class="node">
<title>Node29</title>
<g id="a_Node000029"><a xlink:href="../../dd/dfc/iopc-parser_8c.html#a8c3760612476135c94480e62e7928c71" target="_top" xlink:title=" ">
<polygon fill="white" stroke="#666666" points="386.25,-19.25 302.75,-19.25 302.75,0 386.25,0 386.25,-19.25"/>
<text text-anchor="middle" x="344.5" y="-5.75" font-family="Helvetica,sans-Serif" font-size="10.00">parse_attr_args</text>
</a>
</g>
</g>
<!-- Node28&#45;&gt;Node29 -->
<g id="edge37_Node000028_Node000029" class="edge">
<title>Node28&#45;&gt;Node29</title>
<g id="a_edge37_Node000028_Node000029"><a xlink:title=" ">
<path fill="none" stroke="#63b8ff" d="M434.94,-9.62C418.48,-9.62 401.22,-9.62 386.3,-9.62"/>
<polygon fill="#63b8ff" stroke="#63b8ff" points="434.66,-13.13 444.66,-9.63 434.66,-6.13 434.66,-13.13"/>
</a>
</g>
</g>
<!-- Node30 -->
<g id="Node000030" class="node">
<title>Node30</title>
<g id="a_Node000030"><a xlink:href="../../dd/dfc/iopc-parser_8c.html#a325c3a28208c682c1b52f9711967f77e" target="_top" xlink:title=" ">
<polygon fill="white" stroke="#666666" points="223.25,-19.25 163.75,-19.25 163.75,0 223.25,0 223.25,-19.25"/>
<text text-anchor="middle" x="193.5" y="-5.75" font-family="Helvetica,sans-Serif" font-size="10.00">parse_attr</text>
</a>
</g>
</g>
<!-- Node29&#45;&gt;Node30 -->
<g id="edge38_Node000029_Node000030" class="edge">
<title>Node29&#45;&gt;Node30</title>
<g id="a_edge38_Node000029_Node000030"><a xlink:title=" ">
<path fill="none" stroke="#63b8ff" d="M290.9,-9.62C268.31,-9.62 242.78,-9.62 223.67,-9.62"/>
<polygon fill="#63b8ff" stroke="#63b8ff" points="290.88,-13.13 300.88,-9.63 290.88,-6.13 290.88,-13.13"/>
</a>
</g>
</g>
<!-- Node31 -->
<g id="Node000031" class="node">
<title>Node31</title>
<g id="a_Node000031"><a xlink:href="../../dd/dfc/iopc-parser_8c.html#a2dd65e07c0efdb78cfd5b45d7ae13c3f" target="_top" xlink:title=" ">
<polygon fill="white" stroke="#666666" points="108.25,-19.25 0,-19.25 0,0 108.25,0 108.25,-19.25"/>
<text text-anchor="middle" x="54.12" y="-5.75" font-family="Helvetica,sans-Serif" font-size="10.00">check_dox_and_attrs</text>
</a>
</g>
</g>
<!-- Node30&#45;&gt;Node31 -->
<g id="edge39_Node000030_Node000031" class="edge">
<title>Node30&#45;&gt;Node31</title>
<g id="a_edge39_Node000030_Node000031"><a xlink:title=" ">
<path fill="none" stroke="#63b8ff" d="M151.96,-9.62C138.38,-9.62 123.03,-9.62 108.62,-9.62"/>
<polygon fill="#63b8ff" stroke="#63b8ff" points="151.85,-13.13 161.85,-9.63 151.85,-6.13 151.85,-13.13"/>
</a>
</g>
</g>
</g>
</svg>
