<?xml version="1.0" encoding="UTF-8" standalone="no"?>
<!DOCTYPE svg PUBLIC "-//W3C//DTD SVG 1.1//EN"
 "http://www.w3.org/Graphics/SVG/1.1/DTD/svg11.dtd">
<!-- Generated by graphviz version 9.0.0 (20230911.1827)
 -->
<!-- Title: iopc_dox_append_paragraphs_to_details Pages: 1 -->
<!--zoomable 130 -->

<svg id="main" version="1.1" xmlns="http://www.w3.org/2000/svg" xmlns:xlink="http://www.w3.org/1999/xlink" xml:space="preserve" onload="init(evt)">
<style type="text/css"><![CDATA[
.node, .edge {opacity: 0.7;}
.node.selected, .edge.selected {opacity: 1;}
.edge:hover path { stroke: red; }
.edge:hover polygon { stroke: red; fill: red; }
]]></style>

<defs>
  <circle id="rim" cx="0" cy="0" r="7"/>
  <circle id="rim2" cx="0" cy="0" r="3.5"/>
  <g id="zoomPlus">
    <use xlink:href="#rim" fill="#404040"><set attributeName="fill" to="#808080" begin="zoomplus.mouseover" end="zoomplus.mouseout"/></use>
    <path d="M-4,0h8M0,-4v8" fill="none" stroke="white" stroke-width="1.5" pointer-events="none"/>
  </g>
  <g id="zoomMin">
    <use xlink:href="#rim" fill="#404040"><set attributeName="fill" to="#808080" begin="zoomminus.mouseover" end="zoomminus.mouseout"/></use>
    <path d="M-4,0h8" fill="none" stroke="white" stroke-width="1.5" pointer-events="none"/>
  </g>
  <g id="arrowUp" transform="translate(30 24)">
    <use xlink:href="#rim"/>
    <path pointer-events="none" fill="none" stroke="white" stroke-width="1.5" d="M0,-3.0v7 M-2.5,-0.5L0,-3.0L2.5,-0.5"/>
  </g>
  <g id="arrowRight" transform="rotate(90) translate(36 -43)">
    <use xlink:href="#rim"/>
    <path pointer-events="none" fill="none" stroke="white" stroke-width="1.5" d="M0,-3.0v7 M-2.5,-0.5L0,-3.0L2.5,-0.5"/>
  </g>
  <g id="arrowDown" transform="rotate(180) translate(-30 -48)">
    <use xlink:href="#rim"/>
    <path pointer-events="none" fill="none" stroke="white" stroke-width="1.5" d="M0,-3.0v7 M-2.5,-0.5L0,-3.0L2.5,-0.5"/>
  </g>
  <g id="arrowLeft" transform="rotate(270) translate(-36 17)">
    <use xlink:href="#rim"/>
    <path pointer-events="none" fill="none" stroke="white" stroke-width="1.5" d="M0,-3.0v7 M-2.5,-0.5L0,-3.0L2.5,-0.5"/>
  </g>
  <g id="resetDef">
    <use xlink:href="#rim2" fill="#404040"><set attributeName="fill" to="#808080" begin="reset.mouseover" end="reset.mouseout"/></use>
  </g>
</defs>
<script type="application/ecmascript">
var viewWidth = 605;
var viewHeight = 130;
var sectionId = 'dynsection-75';
</script>
<script type="application/ecmascript" xlink:href="../../svg.min.js"/>
<svg id="graph" class="graph">
<g id="viewport">
<title>iopc_dox_append_paragraphs_to_details</title>
<!-- Node1 -->
<g id="Node000001" class="node">
<title>Node1</title>
<g id="a_Node000001"><a xlink:title=" ">
<polygon fill="#999999" stroke="#666666" points="597.25,-81.88 453,-81.88 453,-51.38 597.25,-51.38 597.25,-81.88"/>
<text text-anchor="start" x="461" y="-68.38" font-family="Helvetica,sans-Serif" font-size="10.00">iopc_dox_append_paragraphs</text>
<text text-anchor="middle" x="525.12" y="-57.12" font-family="Helvetica,sans-Serif" font-size="10.00">_to_details</text>
</a>
</g>
</g>
<!-- Node2 -->
<g id="Node000002" class="node">
<title>Node2</title>
<g id="a_Node000002"><a xlink:href="../../dd/dfc/iopc-parser_8c.html#abe3d6cfba80507c9ce5861308c77342d" target="_top" xlink:title=" ">
<polygon fill="white" stroke="#666666" points="61.75,-76.25 0,-76.25 0,-57 61.75,-57 61.75,-76.25"/>
<text text-anchor="middle" x="30.88" y="-62.75" font-family="Helvetica,sans-Serif" font-size="10.00">build_dox_</text>
</a>
</g>
</g>
<!-- Node1&#45;&gt;Node2 -->
<g id="edge1_Node000001_Node000002" class="edge">
<title>Node1&#45;&gt;Node2</title>
<g id="a_edge1_Node000001_Node000002"><a xlink:title=" ">
<path fill="none" stroke="#63b8ff" d="M446.22,-84.55C436.42,-86.45 426.5,-88.2 417,-89.62 276.52,-110.64 234.96,-141.36 97.75,-104.62 77.6,-99.23 57.23,-86.02 44.59,-76.7"/>
<polygon fill="#63b8ff" stroke="#63b8ff" points="446.61,-88.04 455.73,-82.64 445.24,-81.17 446.61,-88.04"/>
</a>
</g>
</g>
<!-- Node3 -->
<g id="Node000003" class="node">
<title>Node3</title>
<g id="a_Node000003"><a xlink:href="../../dd/dfc/iopc-parser_8c.html#a0451da1efc7d24554e38be6289a52ba9" target="_top" xlink:title=" ">
<polygon fill="white" stroke="#666666" points="214.25,-95.25 125.5,-95.25 125.5,-76 214.25,-76 214.25,-95.25"/>
<text text-anchor="middle" x="169.88" y="-81.75" font-family="Helvetica,sans-Serif" font-size="10.00">build_dox_param</text>
</a>
</g>
</g>
<!-- Node1&#45;&gt;Node3 -->
<g id="edge2_Node000001_Node000003" class="edge">
<title>Node1&#45;&gt;Node3</title>
<g id="a_edge2_Node000001_Node000003"><a xlink:title=" ">
<path fill="none" stroke="#63b8ff" d="M441.52,-71.07C370.61,-74.88 271.18,-80.23 214.68,-83.27"/>
<polygon fill="#63b8ff" stroke="#63b8ff" points="441.33,-74.58 451.13,-70.55 440.95,-67.59 441.33,-74.58"/>
</a>
</g>
</g>
<!-- Node4 -->
<g id="Node000004" class="node">
<title>Node4</title>
<g id="a_Node000004"><a xlink:href="../../dd/dfc/iopc-parser_8c.html#a05a1bcb00bada8ef3e31a8ce82a890f5" target="_top" xlink:title=" ">
<polygon fill="white" stroke="#666666" points="242,-19.25 97.75,-19.25 97.75,0 242,0 242,-19.25"/>
<text text-anchor="middle" x="169.88" y="-5.75" font-family="Helvetica,sans-Serif" font-size="10.00">iopc_dox_append_paragraphs</text>
</a>
</g>
</g>
<!-- Node1&#45;&gt;Node4 -->
<g id="edge4_Node000001_Node000004" class="edge">
<title>Node1&#45;&gt;Node4</title>
<g id="a_edge4_Node000001_Node000004"><a xlink:title=" ">
<path fill="none" stroke="#63b8ff" d="M476.91,-46.85C458.52,-39.95 437.08,-32.88 417,-28.62 359.04,-16.33 291.9,-11.78 242.4,-10.19"/>
<polygon fill="#63b8ff" stroke="#63b8ff" points="475.63,-50.11 486.22,-50.43 478.15,-43.57 475.63,-50.11"/>
</a>
</g>
</g>
<!-- Node5 -->
<g id="Node000005" class="node">
<title>Node5</title>
<g id="a_Node000005"><a xlink:href="../../dd/dfc/iopc-parser_8c.html#afb9a39fa28b00e30df8ebd08e01ce5c1" target="_top" xlink:title=" ">
<polygon fill="white" stroke="#666666" points="417,-57.25 278,-57.25 278,-38 417,-38 417,-57.25"/>
<text text-anchor="middle" x="347.5" y="-43.75" font-family="Helvetica,sans-Serif" font-size="10.00">iopc_dox_check_paragraphs</text>
</a>
</g>
</g>
<!-- Node1&#45;&gt;Node5 -->
<g id="edge6_Node000001_Node000005" class="edge">
<title>Node1&#45;&gt;Node5</title>
<g id="a_edge6_Node000001_Node000005"><a xlink:title=" ">
<path fill="none" stroke="#63b8ff" d="M441.37,-57.67C433.32,-56.8 425.21,-55.92 417.31,-55.07"/>
<polygon fill="#63b8ff" stroke="#63b8ff" points="440.87,-61.14 451.19,-58.73 441.62,-54.18 440.87,-61.14"/>
</a>
</g>
</g>
<!-- Node3&#45;&gt;Node2 -->
<g id="edge3_Node000003_Node000002" class="edge">
<title>Node3&#45;&gt;Node2</title>
<g id="a_edge3_Node000003_Node000002"><a xlink:title=" ">
<path fill="none" stroke="#63b8ff" d="M113.81,-77.99C96.21,-75.55 77.37,-72.93 62.2,-70.83"/>
<polygon fill="#63b8ff" stroke="#63b8ff" points="113.27,-81.45 123.65,-79.35 114.23,-74.51 113.27,-81.45"/>
</a>
</g>
</g>
<!-- Node4&#45;&gt;Node2 -->
<g id="edge5_Node000004_Node000002" class="edge">
<title>Node4&#45;&gt;Node2</title>
<g id="a_edge5_Node000004_Node000002"><a xlink:title=" ">
<path fill="none" stroke="#63b8ff" d="M125.08,-23.34C115.96,-26.49 106.47,-29.99 97.75,-33.62 81.34,-40.47 63.33,-49.61 50.29,-56.53"/>
<polygon fill="#63b8ff" stroke="#63b8ff" points="126.15,-26.67 134.51,-20.16 123.92,-20.03 126.15,-26.67"/>
</a>
</g>
</g>
<!-- Node5&#45;&gt;Node2 -->
<g id="edge7_Node000005_Node000002" class="edge">
<title>Node5&#45;&gt;Node2</title>
<g id="a_edge7_Node000005_Node000002"><a xlink:title=" ">
<path fill="none" stroke="#63b8ff" d="M266.53,-52.45C199.86,-56.48 108.52,-62 61.9,-64.81"/>
<polygon fill="#63b8ff" stroke="#63b8ff" points="266.56,-55.96 276.33,-51.86 266.14,-48.97 266.56,-55.96"/>
</a>
</g>
</g>
<!-- Node5&#45;&gt;Node3 -->
<g id="edge8_Node000005_Node000003" class="edge">
<title>Node5&#45;&gt;Node3</title>
<g id="a_edge8_Node000005_Node000003"><a xlink:title=" ">
<path fill="none" stroke="#63b8ff" d="M288.73,-60.12C264.62,-65.34 237.07,-71.3 214.67,-76.15"/>
<polygon fill="#63b8ff" stroke="#63b8ff" points="289.38,-63.56 298.42,-58.03 287.9,-56.72 289.38,-63.56"/>
</a>
</g>
</g>
</g>
</svg>

<g id="navigator" transform="translate(0 0)" fill="#404254">
  <rect fill="#f2f5e9" fill-opacity="0.5" stroke="#606060" stroke-width=".5" x="0" y="0" width="60" height="60"/>
  <use id="zoomplus" xlink:href="#zoomPlus" x="17" y="9" onmousedown="handleZoom(evt,'in')"/>
  <use id="zoomminus" xlink:href="#zoomMin" x="42" y="9" onmousedown="handleZoom(evt,'out')"/>
  <use id="reset" xlink:href="#resetDef" x="30" y="36" onmousedown="handleReset()"/>
   <use id="arrowup" xlink:href="#arrowUp" x="0" y="0" onmousedown="handlePan(0,-1)"/>
  <use id="arrowright" xlink:href="#arrowRight" x="0" y="0" onmousedown="handlePan(1,0)"/>
  <use id="arrowdown" xlink:href="#arrowDown" x="0" y="0" onmousedown="handlePan(0,1)"/>
  <use id="arrowleft" xlink:href="#arrowLeft" x="0" y="0" onmousedown="handlePan(-1,0)"/>
</g>
<svg viewBox="0 0 15 15" width="100%" height="30px" preserveAspectRatio="xMaxYMin meet">
 <g id="arrow_out" transform="scale(0.3 0.3)">
  <a xlink:href="iopc-parser_8c_a3c8e969d3cc714d1f63d5feecb8bae11_icgraph_org.svg" target="_base">
   <rect id="button" ry="5" rx="5" y="6" x="6" height="38" width="38"
        fill="#f2f5e9" fill-opacity="0.5" stroke="#606060" stroke-width="1.0"/>
   <path id="arrow"
     d="M 11.500037,31.436501 C 11.940474,20.09759 22.043105,11.32322 32.158766,21.979434 L 37.068811,17.246167 C 37.068811,17.246167 37.088388,32 37.088388,32 L 22.160133,31.978069 C 22.160133,31.978069 26.997745,27.140456 26.997745,27.140456 C 18.528582,18.264221 13.291696,25.230495 11.500037,31.436501 z"
     style="fill:#404040;"/>
  </a>
 </g>
</svg>

<style type='text/css'>
<![CDATA[
[data-mouse-over-selected='false'] { opacity: 0.7; }
[data-mouse-over-selected='true']  { opacity: 1.0; }
]]>
</style>
<script type="application/ecmascript"><![CDATA[
document.addEventListener('DOMContentLoaded', (event) => {
  highlightEdges();
  highlightAdjacentNodes();
});
]]></script>
</svg>
