<?xml version="1.0" encoding="UTF-8" standalone="no"?>
<!DOCTYPE svg PUBLIC "-//W3C//DTD SVG 1.1//EN"
 "http://www.w3.org/Graphics/SVG/1.1/DTD/svg11.dtd">
<!-- Generated by graphviz version 9.0.0 (20230911.1827)
 -->
<!-- Title: iopc_check_name Pages: 1 -->
<svg width="2291pt" height="615pt"
 viewBox="0.00 0.00 2290.50 615.00" xmlns="http://www.w3.org/2000/svg" xmlns:xlink="http://www.w3.org/1999/xlink">
<g id="graph0" class="graph" transform="scale(1 1) rotate(0) translate(4 611)">
<title>iopc_check_name</title>
<!-- Node1 -->
<g id="Node000001" class="node">
<title>Node1</title>
<g id="a_Node000001"><a xlink:title=" ">
<polygon fill="#999999" stroke="#666666" points="2282.5,-85.62 2187.75,-85.62 2187.75,-66.38 2282.5,-66.38 2282.5,-85.62"/>
<text text-anchor="middle" x="2235.12" y="-72.12" font-family="Helvetica,sans-Serif" font-size="10.00">iopc_check_name</text>
</a>
</g>
</g>
<!-- Node2 -->
<g id="Node000002" class="node">
<title>Node2</title>
<g id="a_Node000002"><a xlink:href="../../dd/dfc/iopc-parser_8c.html#ab3ab1f4d17552428de754a2b7d96776e" target="_top" xlink:title=" ">
<polygon fill="white" stroke="#666666" points="2128.5,-199.62 2057,-199.62 2057,-180.38 2128.5,-180.38 2128.5,-199.62"/>
<text text-anchor="middle" x="2092.75" y="-186.12" font-family="Helvetica,sans-Serif" font-size="10.00">check_name</text>
</a>
</g>
</g>
<!-- Node1&#45;&gt;Node2 -->
<g id="edge1_Node000001_Node000002" class="edge">
<title>Node1&#45;&gt;Node2</title>
<g id="a_edge1_Node000001_Node000002"><a xlink:title=" ">
<path fill="none" stroke="#63b8ff" d="M2212.89,-93.25C2183.1,-117.44 2129.89,-160.65 2105.98,-180.07"/>
<polygon fill="#63b8ff" stroke="#63b8ff" points="2214.94,-96.09 2220.49,-87.07 2210.52,-90.66 2214.94,-96.09"/>
</a>
</g>
</g>
<!-- Node32 -->
<g id="Node000032" class="node">
<title>Node32</title>
<g id="a_Node000032"><a xlink:href="../../dd/dfc/iopc-parser_8c.html#aae77603562d65af991d3c7fa7351d07f" target="_top" xlink:title=" ">
<polygon fill="white" stroke="#666666" points="1995.12,-85.62 1877.88,-85.62 1877.88,-66.38 1995.12,-66.38 1995.12,-85.62"/>
<text text-anchor="middle" x="1936.5" y="-72.12" font-family="Helvetica,sans-Serif" font-size="10.00">iopc_check_field_name</text>
</a>
</g>
</g>
<!-- Node1&#45;&gt;Node32 -->
<g id="edge44_Node000001_Node000032" class="edge">
<title>Node1&#45;&gt;Node32</title>
<g id="a_edge44_Node000001_Node000032"><a xlink:title=" ">
<path fill="none" stroke="#63b8ff" d="M2176.05,-76C2123.91,-76 2047.77,-76 1995.62,-76"/>
<polygon fill="#63b8ff" stroke="#63b8ff" points="2175.94,-79.5 2185.94,-76 2175.94,-72.5 2175.94,-79.5"/>
</a>
</g>
</g>
<!-- Node40 -->
<g id="Node000040" class="node">
<title>Node40</title>
<g id="a_Node000040"><a xlink:href="../../dd/dfc/iopc-parser_8c.html#ac0c0c6741a2ba86209e144b60e411064" target="_top" xlink:title=" ">
<polygon fill="white" stroke="#666666" points="2151.75,-47.62 2033.75,-47.62 2033.75,-28.38 2151.75,-28.38 2151.75,-47.62"/>
<text text-anchor="middle" x="2092.75" y="-34.12" font-family="Helvetica,sans-Serif" font-size="10.00">iopc_check_type_name</text>
</a>
</g>
</g>
<!-- Node1&#45;&gt;Node40 -->
<g id="edge52_Node000001_Node000040" class="edge">
<title>Node1&#45;&gt;Node40</title>
<g id="a_edge52_Node000001_Node000040"><a xlink:title=" ">
<path fill="none" stroke="#63b8ff" d="M2185.94,-62.96C2167.85,-58.06 2147.6,-52.58 2130.69,-48"/>
<polygon fill="#63b8ff" stroke="#63b8ff" points="2184.85,-66.29 2195.41,-65.52 2186.68,-59.53 2184.85,-66.29"/>
</a>
</g>
</g>
<!-- Node3 -->
<g id="Node000003" class="node">
<title>Node3</title>
<g id="a_Node000003"><a xlink:href="../../dd/dfc/iopc-parser_8c.html#a967918dc628b1301af0d158c57ccc727" target="_top" xlink:title=" ">
<polygon fill="white" stroke="#666666" points="1988.75,-346.62 1884.25,-346.62 1884.25,-327.38 1988.75,-327.38 1988.75,-346.62"/>
<text text-anchor="middle" x="1936.5" y="-333.12" font-family="Helvetica,sans-Serif" font-size="10.00">__parse_enum_stmt</text>
</a>
</g>
</g>
<!-- Node2&#45;&gt;Node3 -->
<g id="edge2_Node000002_Node000003" class="edge">
<title>Node2&#45;&gt;Node3</title>
<g id="a_edge2_Node000002_Node000003"><a xlink:title=" ">
<path fill="none" stroke="#63b8ff" d="M2072.83,-208.03C2039.94,-239.38 1973.3,-302.88 1947.77,-327.21"/>
<polygon fill="#63b8ff" stroke="#63b8ff" points="2075.23,-210.58 2080.05,-201.15 2070.4,-205.51 2075.23,-210.58"/>
</a>
</g>
</g>
<!-- Node15 -->
<g id="Node000015" class="node">
<title>Node15</title>
<g id="a_Node000015"><a xlink:href="../../dd/dfc/iopc-parser_8c.html#a7649a6231d55a4b9ec364ac09d94d3a5" target="_top" xlink:title=" ">
<polygon fill="white" stroke="#666666" points="697.62,-278.62 610.38,-278.62 610.38,-259.38 697.62,-259.38 697.62,-278.62"/>
<text text-anchor="middle" x="654" y="-265.12" font-family="Helvetica,sans-Serif" font-size="10.00">parse_field_stmt</text>
</a>
</g>
</g>
<!-- Node2&#45;&gt;Node15 -->
<g id="edge40_Node000002_Node000015" class="edge">
<title>Node2&#45;&gt;Node15</title>
<g id="a_edge40_Node000002_Node000015"><a xlink:title=" ">
<path fill="none" stroke="#63b8ff" d="M2045.61,-199.49C1986.78,-210.75 1881.78,-228 1791,-228 1791,-228 1791,-228 959.5,-228 863.24,-228 838.7,-231.15 743.75,-247 725.9,-249.98 706.35,-254.67 690.15,-258.95"/>
<polygon fill="#63b8ff" stroke="#63b8ff" points="2046.11,-202.96 2055.26,-197.62 2044.77,-196.09 2046.11,-202.96"/>
</a>
</g>
</g>
<!-- Node18 -->
<g id="Node000018" class="node">
<title>Node18</title>
<g id="a_Node000018"><a xlink:href="../../dd/dfc/iopc-parser_8c.html#aecb24588e7de941ac8b4717fc96c31a2" target="_top" xlink:title=" ">
<polygon fill="white" stroke="#666666" points="243.12,-323.62 138.62,-323.62 138.62,-304.38 243.12,-304.38 243.12,-323.62"/>
<text text-anchor="middle" x="190.88" y="-310.12" font-family="Helvetica,sans-Serif" font-size="10.00">parse_function_stmt</text>
</a>
</g>
</g>
<!-- Node2&#45;&gt;Node18 -->
<g id="edge41_Node000002_Node000018" class="edge">
<title>Node2&#45;&gt;Node18</title>
<g id="a_edge41_Node000002_Node000018"><a xlink:title=" ">
<path fill="none" stroke="#63b8ff" d="M2060.07,-175.32C2042.11,-167.48 2019.03,-158.19 1997.75,-152 1908.04,-125.91 1884.43,-114 1791,-114 1791,-114 1791,-114 497.5,-114 402.75,-114 368.19,-111.4 290.75,-166 238.22,-203.04 205.78,-277.59 195.46,-304.25"/>
<polygon fill="#63b8ff" stroke="#63b8ff" points="2058.59,-178.49 2069.15,-179.36 2061.44,-172.1 2058.59,-178.49"/>
</a>
</g>
</g>
<!-- Node19 -->
<g id="Node000019" class="node">
<title>Node19</title>
<g id="a_Node000019"><a xlink:href="../../dd/dfc/iopc-parser_8c.html#a35685e561fb0c4cb62de1c2b33992a95" target="_top" xlink:title=" ">
<polygon fill="white" stroke="#666666" points="91,-521.62 0,-521.62 0,-502.38 91,-502.38 91,-521.62"/>
<text text-anchor="middle" x="45.5" y="-508.12" font-family="Helvetica,sans-Serif" font-size="10.00">parse_iface_stmt</text>
</a>
</g>
</g>
<!-- Node2&#45;&gt;Node19 -->
<g id="edge42_Node000002_Node000019" class="edge">
<title>Node2&#45;&gt;Node19</title>
<g id="a_edge42_Node000002_Node000019"><a xlink:title=" ">
<path fill="none" stroke="#63b8ff" d="M2087.52,-211.08C2069.18,-295.81 1988.4,-607 1791,-607 1791,-607 1791,-607 342.75,-607 244.89,-607 217.77,-599.57 127,-563 101.07,-552.55 74.29,-533.67 59.09,-522.05"/>
<polygon fill="#63b8ff" stroke="#63b8ff" points="2090.93,-211.88 2089.55,-201.38 2084.08,-210.45 2090.93,-211.88"/>
</a>
</g>
</g>
<!-- Node20 -->
<g id="Node000020" class="node">
<title>Node20</title>
<g id="a_Node000020"><a xlink:href="../../dd/dfc/iopc-parser_8c.html#a0420653b173302863ab71ffe83237e6d" target="_top" xlink:title=" ">
<polygon fill="white" stroke="#666666" points="393,-205.25 294.5,-205.25 294.5,-174.75 393,-174.75 393,-205.25"/>
<text text-anchor="start" x="302.5" y="-191.75" font-family="Helvetica,sans-Serif" font-size="10.00">parse_struct_class</text>
<text text-anchor="middle" x="343.75" y="-180.5" font-family="Helvetica,sans-Serif" font-size="10.00">_union_snmp_stmt</text>
</a>
</g>
</g>
<!-- Node2&#45;&gt;Node20 -->
<g id="edge43_Node000002_Node000020" class="edge">
<title>Node2&#45;&gt;Node20</title>
<g id="a_edge43_Node000002_Node000020"><a xlink:title=" ">
<path fill="none" stroke="#63b8ff" d="M2045.61,-180.51C1986.78,-169.25 1881.78,-152 1791,-152 1791,-152 1791,-152 653,-152 554.75,-152 529.91,-156.38 432.75,-171 419.92,-172.93 406.16,-175.61 393.42,-178.34"/>
<polygon fill="#63b8ff" stroke="#63b8ff" points="2044.77,-183.91 2055.26,-182.38 2046.11,-177.04 2044.77,-183.91"/>
</a>
</g>
</g>
<!-- Node4 -->
<g id="Node000004" class="node">
<title>Node4</title>
<g id="a_Node000004"><a xlink:href="../../dd/dfc/iopc-parser_8c.html#a92f79cd8a68b2e28e8c2cbc1ade3b424" target="_top" xlink:title=" ">
<polygon fill="white" stroke="#666666" points="1837,-431.62 1743,-431.62 1743,-412.38 1837,-412.38 1837,-431.62"/>
<text text-anchor="middle" x="1790" y="-418.12" font-family="Helvetica,sans-Serif" font-size="10.00">parse_enum_stmt</text>
</a>
</g>
</g>
<!-- Node3&#45;&gt;Node4 -->
<g id="edge3_Node000003_Node000004" class="edge">
<title>Node3&#45;&gt;Node4</title>
<g id="a_edge3_Node000003_Node000004"><a xlink:title=" ">
<path fill="none" stroke="#63b8ff" d="M1908.73,-352.75C1879.32,-370.05 1832.99,-397.3 1808.12,-411.93"/>
<polygon fill="#63b8ff" stroke="#63b8ff" points="1910.21,-355.94 1917.05,-347.85 1906.66,-349.91 1910.21,-355.94"/>
</a>
</g>
</g>
<!-- Node5 -->
<g id="Node000005" class="node">
<title>Node5</title>
<g id="a_Node000005"><a xlink:href="../../dd/dfc/iopc-parser_8c.html#acc269e02f19abeee93b7a6ef689abe1d" target="_top" xlink:title=" ">
<polygon fill="white" stroke="#666666" points="1704.75,-474.62 1622.75,-474.62 1622.75,-455.38 1704.75,-455.38 1704.75,-474.62"/>
<text text-anchor="middle" x="1663.75" y="-461.12" font-family="Helvetica,sans-Serif" font-size="10.00">parse_package</text>
</a>
</g>
</g>
<!-- Node4&#45;&gt;Node5 -->
<g id="edge4_Node000004_Node000005" class="edge">
<title>Node4&#45;&gt;Node5</title>
<g id="a_edge4_Node000004_Node000005"><a xlink:title=" ">
<path fill="none" stroke="#63b8ff" d="M1749.09,-435.81C1731.07,-442.05 1710.18,-449.28 1693.7,-454.98"/>
<polygon fill="#63b8ff" stroke="#63b8ff" points="1750.13,-439.15 1758.44,-432.58 1747.84,-432.54 1750.13,-439.15"/>
</a>
</g>
</g>
<!-- Node6 -->
<g id="Node000006" class="node">
<title>Node6</title>
<g id="a_Node000006"><a xlink:href="../../dd/dfc/iopc-parser_8c.html#a5b4e6d6c40f2ad8a2daee70d7c82ce9d" target="_top" xlink:title=" ">
<polygon fill="white" stroke="#666666" points="1583.38,-446.62 1502.88,-446.62 1502.88,-427.38 1583.38,-427.38 1583.38,-446.62"/>
<text text-anchor="middle" x="1543.12" y="-433.12" font-family="Helvetica,sans-Serif" font-size="10.00">iopc_parse_file</text>
</a>
</g>
</g>
<!-- Node5&#45;&gt;Node6 -->
<g id="edge5_Node000005_Node000006" class="edge">
<title>Node5&#45;&gt;Node6</title>
<g id="a_edge5_Node000005_Node000006"><a xlink:title=" ">
<path fill="none" stroke="#63b8ff" d="M1611.18,-452.83C1601.95,-450.65 1592.46,-448.41 1583.63,-446.33"/>
<polygon fill="#63b8ff" stroke="#63b8ff" points="1610.25,-456.2 1620.78,-455.09 1611.86,-449.39 1610.25,-456.2"/>
</a>
</g>
</g>
<!-- Node7 -->
<g id="Node000007" class="node">
<title>Node7</title>
<g id="a_Node000007"><a xlink:href="../../db/d07/iopc-dso_8c.html#a95a19b847fb352eb92b539cf3495f093" target="_top" xlink:title=" ">
<polygon fill="white" stroke="#666666" points="1432.75,-427.62 1373.25,-427.62 1373.25,-408.38 1432.75,-408.38 1432.75,-427.62"/>
<text text-anchor="middle" x="1403" y="-414.12" font-family="Helvetica,sans-Serif" font-size="10.00">iopc_build</text>
</a>
</g>
</g>
<!-- Node6&#45;&gt;Node7 -->
<g id="edge6_Node000006_Node000007" class="edge">
<title>Node6&#45;&gt;Node7</title>
<g id="a_edge6_Node000006_Node000007"><a xlink:title=" ">
<path fill="none" stroke="#63b8ff" d="M1491.29,-430.01C1471.66,-427.31 1449.92,-424.32 1433.05,-422"/>
<polygon fill="#63b8ff" stroke="#63b8ff" points="1490.66,-433.45 1501.04,-431.35 1491.61,-426.52 1490.66,-433.45"/>
</a>
</g>
</g>
<!-- Node9 -->
<g id="Node000009" class="node">
<title>Node9</title>
<g id="a_Node000009"><a xlink:href="../../dd/dfc/iopc-parser_8c.html#a4a1b6267556f4be9d70d30b95884da4d" target="_top" xlink:title=" ">
<polygon fill="white" stroke="#666666" points="1436.5,-464.62 1369.5,-464.62 1369.5,-445.38 1436.5,-445.38 1436.5,-464.62"/>
<text text-anchor="middle" x="1403" y="-451.12" font-family="Helvetica,sans-Serif" font-size="10.00">iopc_try_file</text>
</a>
</g>
</g>
<!-- Node6&#45;&gt;Node9 -->
<g id="edge8_Node000006_Node000009" class="edge">
<title>Node6&#45;&gt;Node9</title>
<g id="a_edge8_Node000006_Node000009"><a xlink:title=" ">
<path fill="none" stroke="#63b8ff" d="M1491.17,-443.64C1472.93,-446.02 1452.87,-448.63 1436.6,-450.75"/>
<polygon fill="#63b8ff" stroke="#63b8ff" points="1491.58,-447.12 1501.04,-442.35 1490.67,-440.18 1491.58,-447.12"/>
</a>
</g>
</g>
<!-- Node31 -->
<g id="Node000031" class="node">
<title>Node31</title>
<g id="a_Node000031"><a xlink:href="../../df/d1f/iopc_8c.html#a3c04138a5bfe5d72780bb7e82a18e627" target="_top" xlink:title=" ">
<polygon fill="white" stroke="#666666" points="1421.5,-390.62 1384.5,-390.62 1384.5,-371.38 1421.5,-371.38 1421.5,-390.62"/>
<text text-anchor="middle" x="1403" y="-377.12" font-family="Helvetica,sans-Serif" font-size="10.00">main</text>
</a>
</g>
</g>
<!-- Node6&#45;&gt;Node31 -->
<g id="edge39_Node000006_Node000031" class="edge">
<title>Node6&#45;&gt;Node31</title>
<g id="a_edge39_Node000006_Node000031"><a xlink:title=" ">
<path fill="none" stroke="#63b8ff" d="M1513.44,-421.8C1498.75,-414.36 1480.43,-405.61 1463.5,-399 1449.83,-393.67 1433.89,-388.92 1421.95,-385.64"/>
<polygon fill="#63b8ff" stroke="#63b8ff" points="1511.59,-424.78 1522.08,-426.24 1514.79,-418.56 1511.59,-424.78"/>
</a>
</g>
</g>
<!-- Node8 -->
<g id="Node000008" class="node">
<title>Node8</title>
<g id="a_Node000008"><a xlink:href="../../db/d07/iopc-dso_8c.html#ab2da67841232fab2872190ddabd94a81" target="_top" xlink:title="Build an IOP DSO.">
<polygon fill="white" stroke="#666666" points="1294.5,-427.62 1214,-427.62 1214,-408.38 1294.5,-408.38 1294.5,-427.62"/>
<text text-anchor="middle" x="1254.25" y="-414.12" font-family="Helvetica,sans-Serif" font-size="10.00">iopc_dso_build</text>
</a>
</g>
</g>
<!-- Node7&#45;&gt;Node8 -->
<g id="edge7_Node000007_Node000008" class="edge">
<title>Node7&#45;&gt;Node8</title>
<g id="a_edge7_Node000007_Node000008"><a xlink:title=" ">
<path fill="none" stroke="#63b8ff" d="M1361.63,-418C1340.79,-418 1315.46,-418 1294.74,-418"/>
<polygon fill="#63b8ff" stroke="#63b8ff" points="1361.49,-421.5 1371.49,-418 1361.49,-414.5 1361.49,-421.5"/>
</a>
</g>
</g>
<!-- Node10 -->
<g id="Node000010" class="node">
<title>Node10</title>
<g id="a_Node000010"><a xlink:href="../../dd/dfc/iopc-parser_8c.html#a79761716a7eac847296f64962fe71976" target="_top" xlink:title=" ">
<polygon fill="white" stroke="#666666" points="1302.75,-464.62 1205.75,-464.62 1205.75,-445.38 1302.75,-445.38 1302.75,-464.62"/>
<text text-anchor="middle" x="1254.25" y="-451.12" font-family="Helvetica,sans-Serif" font-size="10.00">check_path_exists</text>
</a>
</g>
</g>
<!-- Node9&#45;&gt;Node10 -->
<g id="edge9_Node000009_Node000010" class="edge">
<title>Node9&#45;&gt;Node10</title>
<g id="a_edge9_Node000009_Node000010"><a xlink:title=" ">
<path fill="none" stroke="#63b8ff" d="M1357.61,-455C1340.4,-455 1320.64,-455 1303.11,-455"/>
<polygon fill="#63b8ff" stroke="#63b8ff" points="1357.55,-458.5 1367.55,-455 1357.55,-451.5 1357.55,-458.5"/>
</a>
</g>
</g>
<!-- Node11 -->
<g id="Node000011" class="node">
<title>Node11</title>
<g id="a_Node000011"><a xlink:href="../../dd/dfc/iopc-parser_8c.html#a0ec09fbdcf0b260ff83a7fdb42cf23cc" target="_top" xlink:title=" ">
<polygon fill="white" stroke="#666666" points="1151.75,-389.62 1067.5,-389.62 1067.5,-370.38 1151.75,-370.38 1151.75,-389.62"/>
<text text-anchor="middle" x="1109.62" y="-376.12" font-family="Helvetica,sans-Serif" font-size="10.00">parse_path_aux</text>
</a>
</g>
</g>
<!-- Node10&#45;&gt;Node11 -->
<g id="edge10_Node000010_Node000011" class="edge">
<title>Node10&#45;&gt;Node11</title>
<g id="a_edge10_Node000010_Node000011"><a xlink:title=" ">
<path fill="none" stroke="#63b8ff" d="M1210.5,-440.79C1207.59,-439.58 1204.73,-438.31 1202,-437 1173.18,-423.16 1142.09,-402.38 1124.62,-390.1"/>
<polygon fill="#63b8ff" stroke="#63b8ff" points="1209.1,-444 1219.69,-444.38 1211.64,-437.48 1209.1,-444"/>
</a>
</g>
</g>
<!-- Node26 -->
<g id="Node000026" class="node">
<title>Node26</title>
<g id="a_Node000026"><a xlink:href="../../dd/dfc/iopc-parser_8c.html#a3f387ee0539c70f944de5dcc98cf928e" target="_top" xlink:title=" ">
<polygon fill="white" stroke="#666666" points="867.75,-464.62 743.75,-464.62 743.75,-445.38 867.75,-445.38 867.75,-464.62"/>
<text text-anchor="middle" x="805.75" y="-451.12" font-family="Helvetica,sans-Serif" font-size="10.00">parse_struct_snmp_from</text>
</a>
</g>
</g>
<!-- Node10&#45;&gt;Node26 -->
<g id="edge38_Node000010_Node000026" class="edge">
<title>Node10&#45;&gt;Node26</title>
<g id="a_edge38_Node000010_Node000026"><a xlink:title=" ">
<path fill="none" stroke="#63b8ff" d="M1193.98,-455C1109.16,-455 953.93,-455 868.02,-455"/>
<polygon fill="#63b8ff" stroke="#63b8ff" points="1193.95,-458.5 1203.95,-455 1193.95,-451.5 1193.95,-458.5"/>
</a>
</g>
</g>
<!-- Node12 -->
<g id="Node000012" class="node">
<title>Node12</title>
<g id="a_Node000012"><a xlink:href="../../dd/dfc/iopc-parser_8c.html#abeb1a49428a1bce37107c5b00cddb84a" target="_top" xlink:title=" ">
<polygon fill="white" stroke="#666666" points="1003.38,-351.62 917.62,-351.62 917.62,-332.38 1003.38,-332.38 1003.38,-351.62"/>
<text text-anchor="middle" x="960.5" y="-338.12" font-family="Helvetica,sans-Serif" font-size="10.00">parse_pkg_stmt</text>
</a>
</g>
</g>
<!-- Node11&#45;&gt;Node12 -->
<g id="edge11_Node000011_Node000012" class="edge">
<title>Node11&#45;&gt;Node12</title>
<g id="a_edge11_Node000011_Node000012"><a xlink:title=" ">
<path fill="none" stroke="#63b8ff" d="M1058.44,-367.04C1039.49,-362.14 1018.24,-356.65 1000.47,-352.06"/>
<polygon fill="#63b8ff" stroke="#63b8ff" points="1057.56,-370.43 1068.12,-369.54 1059.31,-363.65 1057.56,-370.43"/>
</a>
</g>
</g>
<!-- Node13 -->
<g id="Node000013" class="node">
<title>Node13</title>
<g id="a_Node000013"><a xlink:href="../../dd/dfc/iopc-parser_8c.html#ac72267654dc96e255a3f80df8feb4307" target="_top" xlink:title=" ">
<polygon fill="white" stroke="#666666" points="1007.12,-388.62 913.88,-388.62 913.88,-369.38 1007.12,-369.38 1007.12,-388.62"/>
<text text-anchor="middle" x="960.5" y="-375.12" font-family="Helvetica,sans-Serif" font-size="10.00">parse_struct_type</text>
</a>
</g>
</g>
<!-- Node11&#45;&gt;Node13 -->
<g id="edge13_Node000011_Node000013" class="edge">
<title>Node11&#45;&gt;Node13</title>
<g id="a_edge13_Node000011_Node000013"><a xlink:title=" ">
<path fill="none" stroke="#63b8ff" d="M1056,-379.64C1040.14,-379.53 1022.86,-379.42 1007.47,-379.31"/>
<polygon fill="#63b8ff" stroke="#63b8ff" points="1055.71,-383.14 1065.74,-379.71 1055.76,-376.14 1055.71,-383.14"/>
</a>
</g>
</g>
<!-- Node12&#45;&gt;Node5 -->
<g id="edge12_Node000012_Node000005" class="edge">
<title>Node12&#45;&gt;Node5</title>
<g id="a_edge12_Node000012_Node000005"><a xlink:title=" ">
<path fill="none" stroke="#63b8ff" d="M1014.7,-342C1073.19,-342 1169.91,-342 1253.25,-342 1404,-342 1404,-342 1404,-342 1508.95,-342 1616.67,-425.56 1651.3,-454.93"/>
<polygon fill="#63b8ff" stroke="#63b8ff" points="1015.05,-338.5 1005.05,-342 1015.05,-345.5 1015.05,-338.5"/>
</a>
</g>
</g>
<!-- Node14 -->
<g id="Node000014" class="node">
<title>Node14</title>
<g id="a_Node000014"><a xlink:href="../../dd/dfc/iopc-parser_8c.html#a1bbd17ec50769c5bdda73d466edd08a3" target="_top" xlink:title=" ">
<polygon fill="white" stroke="#666666" points="848.62,-312.62 762.88,-312.62 762.88,-293.38 848.62,-293.38 848.62,-312.62"/>
<text text-anchor="middle" x="805.75" y="-299.12" font-family="Helvetica,sans-Serif" font-size="10.00">parse_field_type</text>
</a>
</g>
</g>
<!-- Node13&#45;&gt;Node14 -->
<g id="edge14_Node000013_Node000014" class="edge">
<title>Node13&#45;&gt;Node14</title>
<g id="a_edge14_Node000013_Node000014"><a xlink:title=" ">
<path fill="none" stroke="#63b8ff" d="M910.41,-364.56C908.12,-363.45 905.88,-362.26 903.75,-361 884.81,-349.79 886.33,-338.8 867.75,-327 858.91,-321.39 848.55,-316.71 838.9,-313.02"/>
<polygon fill="#63b8ff" stroke="#63b8ff" points="908.77,-367.67 919.34,-368.38 911.52,-361.23 908.77,-367.67"/>
</a>
</g>
</g>
<!-- Node17 -->
<g id="Node000017" class="node">
<title>Node17</title>
<g id="a_Node000017"><a xlink:href="../../dd/dfc/iopc-parser_8c.html#a881b113838da8ff0b54d725bbff9049a" target="_top" xlink:title=" ">
<polygon fill="white" stroke="#666666" points="396.75,-323.62 290.75,-323.62 290.75,-304.38 396.75,-304.38 396.75,-323.62"/>
<text text-anchor="middle" x="343.75" y="-310.12" font-family="Helvetica,sans-Serif" font-size="10.00">parse_function_desc</text>
</a>
</g>
</g>
<!-- Node13&#45;&gt;Node17 -->
<g id="edge24_Node000013_Node000017" class="edge">
<title>Node13&#45;&gt;Node17</title>
<g id="a_edge24_Node000013_Node000017"><a xlink:title=" ">
<path fill="none" stroke="#63b8ff" d="M902.35,-375.51C858.82,-372.68 797.45,-368.29 743.75,-363 619.08,-350.73 473.07,-331.58 396.95,-321.22"/>
<polygon fill="#63b8ff" stroke="#63b8ff" points="901.85,-378.99 912.06,-376.14 902.3,-372 901.85,-378.99"/>
</a>
</g>
</g>
<!-- Node22 -->
<g id="Node000022" class="node">
<title>Node22</title>
<g id="a_Node000022"><a xlink:href="../../dd/dfc/iopc-parser_8c.html#a0ddf289eec55c97f63f8115e0e3a83d4" target="_top" xlink:title=" ">
<polygon fill="white" stroke="#666666" points="564.25,-199.62 432.75,-199.62 432.75,-180.38 564.25,-180.38 564.25,-199.62"/>
<text text-anchor="middle" x="498.5" y="-186.12" font-family="Helvetica,sans-Serif" font-size="10.00">parse_handle_class_snmp</text>
</a>
</g>
</g>
<!-- Node13&#45;&gt;Node22 -->
<g id="edge25_Node000013_Node000022" class="edge">
<title>Node13&#45;&gt;Node22</title>
<g id="a_edge25_Node000013_Node000022"><a xlink:title=" ">
<path fill="none" stroke="#63b8ff" d="M905.27,-362.45C904.75,-361.98 904.24,-361.5 903.75,-361 866.3,-323.31 908.07,-281.6 867.75,-247 783.06,-174.32 645.3,-173.71 564.45,-181.04"/>
<polygon fill="#63b8ff" stroke="#63b8ff" points="903.16,-365.25 913.37,-368.08 907.16,-359.5 903.16,-365.25"/>
</a>
</g>
</g>
<!-- Node23 -->
<g id="Node000023" class="node">
<title>Node23</title>
<g id="a_Node000023"><a xlink:href="../../dd/dfc/iopc-parser_8c.html#ad28554ac836ef0c02ed7096a98e8749c" target="_top" xlink:title=" ">
<polygon fill="white" stroke="#666666" points="861.38,-275.62 750.12,-275.62 750.12,-256.38 861.38,-256.38 861.38,-275.62"/>
<text text-anchor="middle" x="805.75" y="-262.12" font-family="Helvetica,sans-Serif" font-size="10.00">parse_mod_field_stmt</text>
</a>
</g>
</g>
<!-- Node13&#45;&gt;Node23 -->
<g id="edge27_Node000013_Node000023" class="edge">
<title>Node13&#45;&gt;Node23</title>
<g id="a_edge27_Node000013_Node000023"><a xlink:title=" ">
<path fill="none" stroke="#63b8ff" d="M906.18,-363C905.35,-362.36 904.53,-361.69 903.75,-361 875.42,-336.01 896.39,-308.63 867.75,-284 864.07,-280.83 859.85,-278.22 855.38,-276.07"/>
<polygon fill="#63b8ff" stroke="#63b8ff" points="904.22,-365.9 914.57,-368.13 907.87,-359.93 904.22,-365.9"/>
</a>
</g>
</g>
<!-- Node24 -->
<g id="Node000024" class="node">
<title>Node24</title>
<g id="a_Node000024"><a xlink:href="../../dd/dfc/iopc-parser_8c.html#a285bbff499acd09cc7b78a6110b26092" target="_top" xlink:title=" ">
<polygon fill="white" stroke="#666666" points="704.75,-331.62 603.25,-331.62 603.25,-312.38 704.75,-312.38 704.75,-331.62"/>
<text text-anchor="middle" x="654" y="-318.12" font-family="Helvetica,sans-Serif" font-size="10.00">parse_module_stmt</text>
</a>
</g>
</g>
<!-- Node13&#45;&gt;Node24 -->
<g id="edge30_Node000013_Node000024" class="edge">
<title>Node13&#45;&gt;Node24</title>
<g id="a_edge30_Node000013_Node000024"><a xlink:title=" ">
<path fill="none" stroke="#63b8ff" d="M902.28,-368.29C845.48,-357.66 759.27,-341.52 705.1,-331.38"/>
<polygon fill="#63b8ff" stroke="#63b8ff" points="901.62,-371.73 912.1,-370.13 902.91,-364.85 901.62,-371.73"/>
</a>
</g>
</g>
<!-- Node25 -->
<g id="Node000025" class="node">
<title>Node25</title>
<g id="a_Node000025"><a xlink:href="../../dd/dfc/iopc-parser_8c.html#a7281d65321218fddc70cabe8a105be55" target="_top" xlink:title=" ">
<polygon fill="white" stroke="#666666" points="254.75,-445.62 127,-445.62 127,-426.38 254.75,-426.38 254.75,-445.62"/>
<text text-anchor="middle" x="190.88" y="-432.12" font-family="Helvetica,sans-Serif" font-size="10.00">parse_snmp_iface_parent</text>
</a>
</g>
</g>
<!-- Node13&#45;&gt;Node25 -->
<g id="edge31_Node000013_Node000025" class="edge">
<title>Node13&#45;&gt;Node25</title>
<g id="a_edge31_Node000013_Node000025"><a xlink:title=" ">
<path fill="none" stroke="#63b8ff" d="M902.67,-389.46C851.79,-398.37 775.06,-410.7 707.75,-417 545.12,-432.22 352.59,-435.4 255.16,-435.97"/>
<polygon fill="#63b8ff" stroke="#63b8ff" points="903.02,-392.95 912.26,-387.76 901.81,-386.05 903.02,-392.95"/>
</a>
</g>
</g>
<!-- Node13&#45;&gt;Node26 -->
<g id="edge33_Node000013_Node000026" class="edge">
<title>Node13&#45;&gt;Node26</title>
<g id="a_edge33_Node000013_Node000026"><a xlink:title=" ">
<path fill="none" stroke="#63b8ff" d="M933.5,-395.04C915.41,-405.87 890.54,-420.12 867.75,-431 857.17,-436.05 845.23,-440.92 834.74,-444.94"/>
<polygon fill="#63b8ff" stroke="#63b8ff" points="935.26,-398.06 942,-389.89 931.64,-392.08 935.26,-398.06"/>
</a>
</g>
</g>
<!-- Node14&#45;&gt;Node15 -->
<g id="edge15_Node000014_Node000015" class="edge">
<title>Node14&#45;&gt;Node15</title>
<g id="a_edge15_Node000014_Node000015"><a xlink:title=" ">
<path fill="none" stroke="#63b8ff" d="M751.44,-290.9C733.94,-286.92 714.73,-282.56 698.1,-278.78"/>
<polygon fill="#63b8ff" stroke="#63b8ff" points="750.64,-294.3 761.16,-293.1 752.18,-287.48 750.64,-294.3"/>
</a>
</g>
</g>
<!-- Node21 -->
<g id="Node000021" class="node">
<title>Node21</title>
<g id="a_Node000021"><a xlink:href="../../dd/dfc/iopc-parser_8c.html#ab828c3a92b1c8238adadb490b7af86c2" target="_top" xlink:title=" ">
<polygon fill="white" stroke="#666666" points="704.75,-407.62 603.25,-407.62 603.25,-388.38 704.75,-388.38 704.75,-407.62"/>
<text text-anchor="middle" x="654" y="-394.12" font-family="Helvetica,sans-Serif" font-size="10.00">parse_typedef_stmt</text>
</a>
</g>
</g>
<!-- Node14&#45;&gt;Node21 -->
<g id="edge22_Node000014_Node000021" class="edge">
<title>Node14&#45;&gt;Node21</title>
<g id="a_edge22_Node000014_Node000021"><a xlink:title=" ">
<path fill="none" stroke="#63b8ff" d="M779.29,-319.15C748.12,-338.92 696.3,-371.8 670.53,-388.15"/>
<polygon fill="#63b8ff" stroke="#63b8ff" points="781.16,-322.11 787.73,-313.8 777.41,-316.2 781.16,-322.11"/>
</a>
</g>
</g>
<!-- Node16 -->
<g id="Node000016" class="node">
<title>Node16</title>
<g id="a_Node000016"><a xlink:href="../../dd/dfc/iopc-parser_8c.html#a77240cf99eead09f3518815538f6c3be" target="_top" xlink:title=" ">
<polygon fill="white" stroke="#666666" points="533.5,-278.62 463.5,-278.62 463.5,-259.38 533.5,-259.38 533.5,-278.62"/>
<text text-anchor="middle" x="498.5" y="-265.12" font-family="Helvetica,sans-Serif" font-size="10.00">parse_struct</text>
</a>
</g>
</g>
<!-- Node15&#45;&gt;Node16 -->
<g id="edge16_Node000015_Node000016" class="edge">
<title>Node15&#45;&gt;Node16</title>
<g id="a_edge16_Node000015_Node000016"><a xlink:title=" ">
<path fill="none" stroke="#63b8ff" d="M598.87,-269C577.22,-269 552.93,-269 533.78,-269"/>
<polygon fill="#63b8ff" stroke="#63b8ff" points="598.73,-272.5 608.73,-269 598.73,-265.5 598.73,-272.5"/>
</a>
</g>
</g>
<!-- Node16&#45;&gt;Node17 -->
<g id="edge17_Node000016_Node000017" class="edge">
<title>Node16&#45;&gt;Node17</title>
<g id="a_edge17_Node000016_Node000017"><a xlink:title=" ">
<path fill="none" stroke="#63b8ff" d="M452.45,-282.27C428.93,-289.2 400.61,-297.54 378.92,-303.93"/>
<polygon fill="#63b8ff" stroke="#63b8ff" points="453.16,-285.71 461.77,-279.53 451.19,-279 453.16,-285.71"/>
</a>
</g>
</g>
<!-- Node16&#45;&gt;Node20 -->
<g id="edge21_Node000016_Node000020" class="edge">
<title>Node16&#45;&gt;Node20</title>
<g id="a_edge21_Node000016_Node000020"><a xlink:title=" ">
<path fill="none" stroke="#63b8ff" d="M468.22,-253.86C441.46,-240.02 402.04,-219.63 374.98,-205.63"/>
<polygon fill="#63b8ff" stroke="#63b8ff" points="466.32,-256.81 476.81,-258.3 469.54,-250.6 466.32,-256.81"/>
</a>
</g>
</g>
<!-- Node17&#45;&gt;Node18 -->
<g id="edge18_Node000017_Node000018" class="edge">
<title>Node17&#45;&gt;Node18</title>
<g id="a_edge18_Node000017_Node000018"><a xlink:title=" ">
<path fill="none" stroke="#63b8ff" d="M279.2,-314C267.33,-314 255.07,-314 243.62,-314"/>
<polygon fill="#63b8ff" stroke="#63b8ff" points="278.89,-317.5 288.89,-314 278.89,-310.5 278.89,-317.5"/>
</a>
</g>
</g>
<!-- Node18&#45;&gt;Node19 -->
<g id="edge19_Node000018_Node000019" class="edge">
<title>Node18&#45;&gt;Node19</title>
<g id="a_edge19_Node000018_Node000019"><a xlink:title=" ">
<path fill="none" stroke="#63b8ff" d="M175.83,-333.39C145.77,-374.91 76.09,-471.13 53.62,-502.16"/>
<polygon fill="#63b8ff" stroke="#63b8ff" points="178.65,-335.47 181.68,-325.32 172.98,-331.36 178.65,-335.47"/>
</a>
</g>
</g>
<!-- Node19&#45;&gt;Node5 -->
<g id="edge20_Node000019_Node000005" class="edge">
<title>Node19&#45;&gt;Node5</title>
<g id="a_edge20_Node000019_Node000005"><a xlink:title=" ">
<path fill="none" stroke="#63b8ff" d="M88.42,-525.28C145.37,-542.13 250.68,-569 342.75,-569 1404,-569 1404,-569 1404,-569 1486.96,-569 1512.42,-567.83 1586.75,-531 1615.25,-516.88 1641.64,-489.48 1654.51,-474.82"/>
<polygon fill="#63b8ff" stroke="#63b8ff" points="89.72,-522.02 79.14,-522.49 87.71,-528.72 89.72,-522.02"/>
</a>
</g>
</g>
<!-- Node21&#45;&gt;Node5 -->
<g id="edge23_Node000021_Node000005" class="edge">
<title>Node21&#45;&gt;Node5</title>
<g id="a_edge23_Node000021_Node000005"><a xlink:title=" ">
<path fill="none" stroke="#63b8ff" d="M672.93,-416.05C683.47,-426.98 696.83,-441.39 707.75,-455 725.34,-476.93 719.61,-492.6 743.75,-507 826.6,-556.44 863.02,-531 959.5,-531 1404,-531 1404,-531 1404,-531 1485.92,-531 1508.93,-532.59 1586.75,-507 1609.66,-499.46 1633.62,-484.94 1648.37,-475.11"/>
<polygon fill="#63b8ff" stroke="#63b8ff" points="675.73,-413.9 666.24,-409.19 670.72,-418.79 675.73,-413.9"/>
</a>
</g>
</g>
<!-- Node22&#45;&gt;Node20 -->
<g id="edge26_Node000022_Node000020" class="edge">
<title>Node22&#45;&gt;Node20</title>
<g id="a_edge26_Node000022_Node000020"><a xlink:title=" ">
<path fill="none" stroke="#63b8ff" d="M420.81,-190C411.38,-190 401.96,-190 393.12,-190"/>
<polygon fill="#63b8ff" stroke="#63b8ff" points="420.76,-193.5 430.76,-190 420.76,-186.5 420.76,-193.5"/>
</a>
</g>
</g>
<!-- Node23&#45;&gt;Node24 -->
<g id="edge28_Node000023_Node000024" class="edge">
<title>Node23&#45;&gt;Node24</title>
<g id="a_edge28_Node000023_Node000024"><a xlink:title=" ">
<path fill="none" stroke="#63b8ff" d="M757.35,-279.39C752.73,-280.87 748.13,-282.42 743.75,-284 720.41,-292.41 694.4,-303.79 676.6,-311.91"/>
<polygon fill="#63b8ff" stroke="#63b8ff" points="758.11,-282.82 766.63,-276.51 756.04,-276.13 758.11,-282.82"/>
</a>
</g>
</g>
<!-- Node24&#45;&gt;Node5 -->
<g id="edge29_Node000024_Node000005" class="edge">
<title>Node24&#45;&gt;Node5</title>
<g id="a_edge29_Node000024_Node000005"><a xlink:title=" ">
<path fill="none" stroke="#63b8ff" d="M674.6,-339.54C685.51,-350.12 698.68,-364.35 707.75,-379 731.52,-417.39 707.76,-446.74 743.75,-474 820.49,-532.12 863.24,-493 959.5,-493 1404,-493 1404,-493 1404,-493 1481.72,-493 1571.81,-480.36 1622.56,-472.07"/>
<polygon fill="#63b8ff" stroke="#63b8ff" points="677.25,-337.22 667.57,-332.94 672.46,-342.33 677.25,-337.22"/>
</a>
</g>
</g>
<!-- Node25&#45;&gt;Node19 -->
<g id="edge32_Node000025_Node000019" class="edge">
<title>Node25&#45;&gt;Node19</title>
<g id="a_edge32_Node000025_Node000019"><a xlink:title=" ">
<path fill="none" stroke="#63b8ff" d="M138.77,-449.9C134.72,-451.46 130.76,-453.16 127,-455 100.39,-468.01 72.98,-489.47 58.01,-502.01"/>
<polygon fill="#63b8ff" stroke="#63b8ff" points="139.88,-453.22 148.13,-446.58 137.53,-446.62 139.88,-453.22"/>
</a>
</g>
</g>
<!-- Node27 -->
<g id="Node000027" class="node">
<title>Node27</title>
<g id="a_Node000027"><a xlink:href="../../dd/dfc/iopc-parser_8c.html#a54608d30c17f5d1a6f858f3f748ffc45" target="_top" xlink:title=" ">
<polygon fill="white" stroke="#666666" points="707.75,-483.62 600.25,-483.62 600.25,-464.38 707.75,-464.38 707.75,-483.62"/>
<text text-anchor="middle" x="654" y="-470.12" font-family="Helvetica,sans-Serif" font-size="10.00">parse_snmp_attr_arg</text>
</a>
</g>
</g>
<!-- Node26&#45;&gt;Node27 -->
<g id="edge34_Node000026_Node000027" class="edge">
<title>Node26&#45;&gt;Node27</title>
<g id="a_edge34_Node000026_Node000027"><a xlink:title=" ">
<path fill="none" stroke="#63b8ff" d="M732.25,-464.2C724.03,-465.24 715.77,-466.29 707.86,-467.29"/>
<polygon fill="#63b8ff" stroke="#63b8ff" points="732.43,-467.7 741.91,-462.97 731.55,-460.76 732.43,-467.7"/>
</a>
</g>
</g>
<!-- Node28 -->
<g id="Node000028" class="node">
<title>Node28</title>
<g id="a_Node000028"><a xlink:href="../../dd/dfc/iopc-parser_8c.html#a8c3760612476135c94480e62e7928c71" target="_top" xlink:title=" ">
<polygon fill="white" stroke="#666666" points="540.25,-483.62 456.75,-483.62 456.75,-464.38 540.25,-464.38 540.25,-483.62"/>
<text text-anchor="middle" x="498.5" y="-470.12" font-family="Helvetica,sans-Serif" font-size="10.00">parse_attr_args</text>
</a>
</g>
</g>
<!-- Node27&#45;&gt;Node28 -->
<g id="edge35_Node000027_Node000028" class="edge">
<title>Node27&#45;&gt;Node28</title>
<g id="a_edge35_Node000027_Node000028"><a xlink:title=" ">
<path fill="none" stroke="#63b8ff" d="M588.94,-474C572.48,-474 555.22,-474 540.3,-474"/>
<polygon fill="#63b8ff" stroke="#63b8ff" points="588.66,-477.5 598.66,-474 588.66,-470.5 588.66,-477.5"/>
</a>
</g>
</g>
<!-- Node29 -->
<g id="Node000029" class="node">
<title>Node29</title>
<g id="a_Node000029"><a xlink:href="../../dd/dfc/iopc-parser_8c.html#a325c3a28208c682c1b52f9711967f77e" target="_top" xlink:title=" ">
<polygon fill="white" stroke="#666666" points="373.5,-483.62 314,-483.62 314,-464.38 373.5,-464.38 373.5,-483.62"/>
<text text-anchor="middle" x="343.75" y="-470.12" font-family="Helvetica,sans-Serif" font-size="10.00">parse_attr</text>
</a>
</g>
</g>
<!-- Node28&#45;&gt;Node29 -->
<g id="edge36_Node000028_Node000029" class="edge">
<title>Node28&#45;&gt;Node29</title>
<g id="a_edge36_Node000028_Node000029"><a xlink:title=" ">
<path fill="none" stroke="#63b8ff" d="M445.15,-474C421.24,-474 393.83,-474 373.69,-474"/>
<polygon fill="#63b8ff" stroke="#63b8ff" points="445.05,-477.5 455.05,-474 445.05,-470.5 445.05,-477.5"/>
</a>
</g>
</g>
<!-- Node30 -->
<g id="Node000030" class="node">
<title>Node30</title>
<g id="a_Node000030"><a xlink:href="../../dd/dfc/iopc-parser_8c.html#a2dd65e07c0efdb78cfd5b45d7ae13c3f" target="_top" xlink:title=" ">
<polygon fill="white" stroke="#666666" points="245,-483.62 136.75,-483.62 136.75,-464.38 245,-464.38 245,-483.62"/>
<text text-anchor="middle" x="190.88" y="-470.12" font-family="Helvetica,sans-Serif" font-size="10.00">check_dox_and_attrs</text>
</a>
</g>
</g>
<!-- Node29&#45;&gt;Node30 -->
<g id="edge37_Node000029_Node000030" class="edge">
<title>Node29&#45;&gt;Node30</title>
<g id="a_edge37_Node000029_Node000030"><a xlink:title=" ">
<path fill="none" stroke="#63b8ff" d="M302.39,-474C284.86,-474 264.09,-474 245.31,-474"/>
<polygon fill="#63b8ff" stroke="#63b8ff" points="302.15,-477.5 312.15,-474 302.15,-470.5 302.15,-477.5"/>
</a>
</g>
</g>
<!-- Node33 -->
<g id="Node000033" class="node">
<title>Node33</title>
<g id="a_Node000033"><a xlink:href="../../db/d6e/iopc-iopsq_8c.html#a81946ae68938df3f27037c6024c35a81" target="_top" xlink:title=" ">
<polygon fill="white" stroke="#666666" points="1703.62,-47.62 1623.88,-47.62 1623.88,-28.38 1703.62,-28.38 1703.62,-47.62"/>
<text text-anchor="middle" x="1663.75" y="-34.12" font-family="Helvetica,sans-Serif" font-size="10.00">iopc_field_load</text>
</a>
</g>
</g>
<!-- Node32&#45;&gt;Node33 -->
<g id="edge45_Node000032_Node000033" class="edge">
<title>Node32&#45;&gt;Node33</title>
<g id="a_edge45_Node000032_Node000033"><a xlink:title=" ">
<path fill="none" stroke="#63b8ff" d="M1866.4,-71.76C1829.02,-68.83 1782.16,-64.16 1740.75,-57 1727.48,-54.71 1713.11,-51.35 1700.47,-48.09"/>
<polygon fill="#63b8ff" stroke="#63b8ff" points="1865.94,-75.23 1876.17,-72.49 1866.46,-68.25 1865.94,-75.23"/>
</a>
</g>
</g>
<!-- Node34 -->
<g id="Node000034" class="node">
<title>Node34</title>
<g id="a_Node000034"><a xlink:href="../../db/d6e/iopc-iopsq_8c.html#a5a76180f5ffa4801c91b3f9761f5bb4a" target="_top" xlink:title=" ">
<polygon fill="white" stroke="#666666" points="1586.75,-47.62 1499.5,-47.62 1499.5,-28.38 1586.75,-28.38 1586.75,-47.62"/>
<text text-anchor="middle" x="1543.12" y="-34.12" font-family="Helvetica,sans-Serif" font-size="10.00">iopc_struct_load</text>
</a>
</g>
</g>
<!-- Node33&#45;&gt;Node34 -->
<g id="edge46_Node000033_Node000034" class="edge">
<title>Node33&#45;&gt;Node34</title>
<g id="a_edge46_Node000033_Node000034"><a xlink:title=" ">
<path fill="none" stroke="#63b8ff" d="M1612.29,-38C1603.85,-38 1595.16,-38 1586.93,-38"/>
<polygon fill="#63b8ff" stroke="#63b8ff" points="1612.07,-41.5 1622.07,-38 1612.07,-34.5 1612.07,-41.5"/>
</a>
</g>
</g>
<!-- Node35 -->
<g id="Node000035" class="node">
<title>Node35</title>
<g id="a_Node000035"><a xlink:href="../../db/d6e/iopc-iopsq_8c.html#aa4bf9f9ee8f407df75f9e236ef596fe7" target="_top" xlink:title=" ">
<polygon fill="white" stroke="#666666" points="1463.5,-28.62 1342.5,-28.62 1342.5,-9.38 1463.5,-9.38 1463.5,-28.62"/>
<text text-anchor="middle" x="1403" y="-15.12" font-family="Helvetica,sans-Serif" font-size="10.00">iopc_pkg_load_from_iop</text>
</a>
</g>
</g>
<!-- Node34&#45;&gt;Node35 -->
<g id="edge47_Node000034_Node000035" class="edge">
<title>Node34&#45;&gt;Node35</title>
<g id="a_edge47_Node000034_Node000035"><a xlink:title=" ">
<path fill="none" stroke="#63b8ff" d="M1487.89,-30.54C1480.02,-29.46 1471.88,-28.34 1463.91,-27.24"/>
<polygon fill="#63b8ff" stroke="#63b8ff" points="1487.3,-33.99 1497.68,-31.89 1488.25,-27.06 1487.3,-33.99"/>
</a>
</g>
</g>
<!-- Node36 -->
<g id="Node000036" class="node">
<title>Node36</title>
<g id="a_Node000036"><a xlink:href="../../db/d6e/iopc-iopsq_8c.html#ad9d8b003c04a8df3421b09d35a688cdb" target="_top" xlink:title="Generates an IOP package description from its IOP version.">
<polygon fill="white" stroke="#666666" points="1306.5,-28.62 1202,-28.62 1202,-9.38 1306.5,-9.38 1306.5,-28.62"/>
<text text-anchor="middle" x="1254.25" y="-15.12" font-family="Helvetica,sans-Serif" font-size="10.00">mp_iopsq_build_pkg</text>
</a>
</g>
</g>
<!-- Node35&#45;&gt;Node36 -->
<g id="edge48_Node000035_Node000036" class="edge">
<title>Node35&#45;&gt;Node36</title>
<g id="a_edge48_Node000035_Node000036"><a xlink:title=" ">
<path fill="none" stroke="#63b8ff" d="M1330.92,-19C1322.81,-19 1314.67,-19 1306.89,-19"/>
<polygon fill="#63b8ff" stroke="#63b8ff" points="1330.8,-22.5 1340.8,-19 1330.8,-15.5 1330.8,-22.5"/>
</a>
</g>
</g>
<!-- Node37 -->
<g id="Node000037" class="node">
<title>Node37</title>
<g id="a_Node000037"><a xlink:href="../../db/d6e/iopc-iopsq_8c.html#ab249c992023713d970929acd2c1e9fed" target="_top" xlink:title="Generates an dumb IOP package from a single package elem description.">
<polygon fill="white" stroke="#666666" points="1166,-34.25 1053.25,-34.25 1053.25,-3.75 1166,-3.75 1166,-34.25"/>
<text text-anchor="start" x="1061.25" y="-20.75" font-family="Helvetica,sans-Serif" font-size="10.00">mp_iopsq_build_mono</text>
<text text-anchor="middle" x="1109.62" y="-9.5" font-family="Helvetica,sans-Serif" font-size="10.00">_element_pkg</text>
</a>
</g>
</g>
<!-- Node36&#45;&gt;Node37 -->
<g id="edge49_Node000036_Node000037" class="edge">
<title>Node36&#45;&gt;Node37</title>
<g id="a_edge49_Node000036_Node000037"><a xlink:title=" ">
<path fill="none" stroke="#63b8ff" d="M1190.25,-19C1182.3,-19 1174.21,-19 1166.38,-19"/>
<polygon fill="#63b8ff" stroke="#63b8ff" points="1190.25,-22.5 1200.25,-19 1190.25,-15.5 1190.25,-22.5"/>
</a>
</g>
</g>
<!-- Node38 -->
<g id="Node000038" class="node">
<title>Node38</title>
<g id="a_Node000038"><a xlink:href="../../db/d6e/iopc-iopsq_8c.html#aa37570289cdd73d2d1aacb686eb9bd3e" target="_top" xlink:title=" ">
<polygon fill="white" stroke="#666666" points="1017.25,-28.62 903.75,-28.62 903.75,-9.38 1017.25,-9.38 1017.25,-28.62"/>
<text text-anchor="middle" x="960.5" y="-15.12" font-family="Helvetica,sans-Serif" font-size="10.00">mp_iopsq_build_struct</text>
</a>
</g>
</g>
<!-- Node37&#45;&gt;Node38 -->
<g id="edge50_Node000037_Node000038" class="edge">
<title>Node37&#45;&gt;Node38</title>
<g id="a_edge50_Node000037_Node000038"><a xlink:title=" ">
<path fill="none" stroke="#63b8ff" d="M1041.75,-19C1033.71,-19 1025.56,-19 1017.69,-19"/>
<polygon fill="#63b8ff" stroke="#63b8ff" points="1041.49,-22.5 1051.49,-19 1041.49,-15.5 1041.49,-22.5"/>
</a>
</g>
</g>
<!-- Node39 -->
<g id="Node000039" class="node">
<title>Node39</title>
<g id="a_Node000039"><a xlink:href="../../db/d6e/iopc-iopsq_8c.html#a29da93a7e88dca9ad6e854548eb1ad54" target="_top" xlink:title="Build iopsq_iop_struct_t object.">
<polygon fill="white" stroke="#666666" points="862.12,-28.62 749.38,-28.62 749.38,-9.38 862.12,-9.38 862.12,-28.62"/>
<text text-anchor="middle" x="805.75" y="-15.12" font-family="Helvetica,sans-Serif" font-size="10.00">iopsq_iop_struct_build</text>
</a>
</g>
</g>
<!-- Node38&#45;&gt;Node39 -->
<g id="edge51_Node000038_Node000039" class="edge">
<title>Node38&#45;&gt;Node39</title>
<g id="a_edge51_Node000038_Node000039"><a xlink:title=" ">
<path fill="none" stroke="#63b8ff" d="M892.04,-19C882.17,-19 872.1,-19 862.5,-19"/>
<polygon fill="#63b8ff" stroke="#63b8ff" points="891.98,-22.5 901.98,-19 891.98,-15.5 891.98,-22.5"/>
</a>
</g>
</g>
<!-- Node40&#45;&gt;Node35 -->
<g id="edge56_Node000040_Node000035" class="edge">
<title>Node40&#45;&gt;Node35</title>
<g id="a_edge56_Node000040_Node000035"><a xlink:title=" ">
<path fill="none" stroke="#63b8ff" d="M2035.77,-25.66C2023.3,-23.19 2010.11,-20.81 1997.75,-19 1906.45,-5.62 1883.28,0 1791,0 1791,0 1791,0 1662.75,0 1594.4,0 1516.16,-6.68 1463.78,-12.11"/>
<polygon fill="#63b8ff" stroke="#63b8ff" points="2035,-29.07 2045.49,-27.63 2036.39,-22.21 2035,-29.07"/>
</a>
</g>
</g>
<!-- Node41 -->
<g id="Node000041" class="node">
<title>Node41</title>
<g id="a_Node000041"><a xlink:href="../../db/d6e/iopc-iopsq_8c.html#a3ec8a377e81d653a7fd5b032ddd0f81e" target="_top" xlink:title=" ">
<polygon fill="white" stroke="#666666" points="1997.75,-47.62 1875.25,-47.62 1875.25,-28.38 1997.75,-28.38 1997.75,-47.62"/>
<text text-anchor="middle" x="1936.5" y="-34.12" font-family="Helvetica,sans-Serif" font-size="10.00">iopc_field_set_typename</text>
</a>
</g>
</g>
<!-- Node40&#45;&gt;Node41 -->
<g id="edge53_Node000040_Node000041" class="edge">
<title>Node40&#45;&gt;Node41</title>
<g id="a_edge53_Node000040_Node000041"><a xlink:title=" ">
<path fill="none" stroke="#63b8ff" d="M2021.94,-38C2014.02,-38 2006,-38 1998.21,-38"/>
<polygon fill="#63b8ff" stroke="#63b8ff" points="2021.92,-41.5 2031.92,-38 2021.92,-34.5 2021.92,-41.5"/>
</a>
</g>
</g>
<!-- Node42 -->
<g id="Node000042" class="node">
<title>Node42</title>
<g id="a_Node000042"><a xlink:href="../../db/d6e/iopc-iopsq_8c.html#a6dd8a8ab7162eb138a97c75b4edcb198" target="_top" xlink:title=" ">
<polygon fill="white" stroke="#666666" points="1839.25,-47.62 1740.75,-47.62 1740.75,-28.38 1839.25,-28.38 1839.25,-47.62"/>
<text text-anchor="middle" x="1790" y="-34.12" font-family="Helvetica,sans-Serif" font-size="10.00">iopc_field_set_type</text>
</a>
</g>
</g>
<!-- Node41&#45;&gt;Node42 -->
<g id="edge54_Node000041_Node000042" class="edge">
<title>Node41&#45;&gt;Node42</title>
<g id="a_edge54_Node000041_Node000042"><a xlink:title=" ">
<path fill="none" stroke="#63b8ff" d="M1863.8,-38C1855.52,-38 1847.22,-38 1839.35,-38"/>
<polygon fill="#63b8ff" stroke="#63b8ff" points="1863.54,-41.5 1873.54,-38 1863.54,-34.5 1863.54,-41.5"/>
</a>
</g>
</g>
<!-- Node42&#45;&gt;Node33 -->
<g id="edge55_Node000042_Node000033" class="edge">
<title>Node42&#45;&gt;Node33</title>
<g id="a_edge55_Node000042_Node000033"><a xlink:title=" ">
<path fill="none" stroke="#63b8ff" d="M1729.37,-38C1720.75,-38 1712.07,-38 1703.99,-38"/>
<polygon fill="#63b8ff" stroke="#63b8ff" points="1729.09,-41.5 1739.09,-38 1729.09,-34.5 1729.09,-41.5"/>
</a>
</g>
</g>
</g>
</svg>
