<?xml version="1.0" encoding="UTF-8" standalone="no"?>
<!DOCTYPE svg PUBLIC "-//W3C//DTD SVG 1.1//EN"
 "http://www.w3.org/Graphics/SVG/1.1/DTD/svg11.dtd">
<!-- Generated by graphviz version 9.0.0 (20230911.1827)
 -->
<!-- Title: iopc_dox_desc_append_paragraphs Pages: 1 -->
<svg width="708pt" height="141pt"
 viewBox="0.00 0.00 708.25 141.25" xmlns="http://www.w3.org/2000/svg" xmlns:xlink="http://www.w3.org/1999/xlink">
<g id="graph0" class="graph" transform="scale(1 1) rotate(0) translate(4 137.25)">
<title>iopc_dox_desc_append_paragraphs</title>
<!-- Node1 -->
<g id="Node000001" class="node">
<title>Node1</title>
<g id="a_Node000001"><a xlink:title=" ">
<polygon fill="#999999" stroke="#666666" points="700.25,-116.88 583,-116.88 583,-86.38 700.25,-86.38 700.25,-116.88"/>
<text text-anchor="start" x="591" y="-103.38" font-family="Helvetica,sans-Serif" font-size="10.00">iopc_dox_desc_append</text>
<text text-anchor="middle" x="641.62" y="-92.12" font-family="Helvetica,sans-Serif" font-size="10.00">_paragraphs</text>
</a>
</g>
</g>
<!-- Node2 -->
<g id="Node000002" class="node">
<title>Node2</title>
<g id="a_Node000002"><a xlink:href="../../dd/dfc/iopc-parser_8c.html#a05a1bcb00bada8ef3e31a8ce82a890f5" target="_top" xlink:title=" ">
<polygon fill="white" stroke="#666666" points="366.75,-133.25 222.5,-133.25 222.5,-114 366.75,-114 366.75,-133.25"/>
<text text-anchor="middle" x="294.62" y="-119.75" font-family="Helvetica,sans-Serif" font-size="10.00">iopc_dox_append_paragraphs</text>
</a>
</g>
</g>
<!-- Node1&#45;&gt;Node2 -->
<g id="edge1_Node000001_Node000002" class="edge">
<title>Node1&#45;&gt;Node2</title>
<g id="a_edge1_Node000001_Node000002"><a xlink:title=" ">
<path fill="none" stroke="#63b8ff" d="M571.74,-106.02C512.41,-109.8 427.08,-115.24 367.02,-119.07"/>
<polygon fill="#63b8ff" stroke="#63b8ff" points="571.61,-109.53 581.37,-105.4 571.17,-102.55 571.61,-109.53"/>
</a>
</g>
</g>
<!-- Node4 -->
<g id="Node000004" class="node">
<title>Node4</title>
<g id="a_Node000004"><a xlink:href="../../dd/dfc/iopc-parser_8c.html#a3c8e969d3cc714d1f63d5feecb8bae11" target="_top" xlink:title=" ">
<polygon fill="white" stroke="#666666" points="547,-95.88 402.75,-95.88 402.75,-65.38 547,-65.38 547,-95.88"/>
<text text-anchor="start" x="410.75" y="-82.38" font-family="Helvetica,sans-Serif" font-size="10.00">iopc_dox_append_paragraphs</text>
<text text-anchor="middle" x="474.88" y="-71.12" font-family="Helvetica,sans-Serif" font-size="10.00">_to_details</text>
</a>
</g>
</g>
<!-- Node1&#45;&gt;Node4 -->
<g id="edge3_Node000001_Node000004" class="edge">
<title>Node1&#45;&gt;Node4</title>
<g id="a_edge3_Node000001_Node000004"><a xlink:title=" ">
<path fill="none" stroke="#63b8ff" d="M571.14,-92.77C563.25,-91.76 555.21,-90.74 547.3,-89.73"/>
<polygon fill="#63b8ff" stroke="#63b8ff" points="570.68,-96.24 581.04,-94.03 571.56,-89.29 570.68,-96.24"/>
</a>
</g>
</g>
<!-- Node3 -->
<g id="Node000003" class="node">
<title>Node3</title>
<g id="a_Node000003"><a xlink:href="../../dd/dfc/iopc-parser_8c.html#abe3d6cfba80507c9ce5861308c77342d" target="_top" xlink:title=" ">
<polygon fill="white" stroke="#666666" points="61.75,-76.25 0,-76.25 0,-57 61.75,-57 61.75,-76.25"/>
<text text-anchor="middle" x="30.88" y="-62.75" font-family="Helvetica,sans-Serif" font-size="10.00">build_dox_</text>
</a>
</g>
</g>
<!-- Node2&#45;&gt;Node3 -->
<g id="edge2_Node000002_Node000003" class="edge">
<title>Node2&#45;&gt;Node3</title>
<g id="a_edge2_Node000002_Node000003"><a xlink:title=" ">
<path fill="none" stroke="#63b8ff" d="M210.89,-119.78C175.47,-116.54 134,-110.57 97.75,-99.62 79.87,-94.23 60.96,-84.25 48.01,-76.68"/>
<polygon fill="#63b8ff" stroke="#63b8ff" points="210.39,-123.25 220.65,-120.62 210.98,-116.28 210.39,-123.25"/>
</a>
</g>
</g>
<!-- Node4&#45;&gt;Node2 -->
<g id="edge7_Node000004_Node000002" class="edge">
<title>Node4&#45;&gt;Node2</title>
<g id="a_edge7_Node000004_Node000002"><a xlink:title=" ">
<path fill="none" stroke="#63b8ff" d="M397.76,-98.99C377.12,-103.97 355.53,-109.17 337.55,-113.51"/>
<polygon fill="#63b8ff" stroke="#63b8ff" points="398.39,-102.43 407.29,-96.69 396.75,-95.63 398.39,-102.43"/>
</a>
</g>
</g>
<!-- Node4&#45;&gt;Node3 -->
<g id="edge4_Node000004_Node000003" class="edge">
<title>Node4&#45;&gt;Node3</title>
<g id="a_edge4_Node000004_Node000003"><a xlink:title=" ">
<path fill="none" stroke="#63b8ff" d="M391.14,-78C291.5,-74.85 129.19,-69.71 62.23,-67.59"/>
<polygon fill="#63b8ff" stroke="#63b8ff" points="390.75,-81.49 400.86,-78.31 390.97,-74.5 390.75,-81.49"/>
</a>
</g>
</g>
<!-- Node5 -->
<g id="Node000005" class="node">
<title>Node5</title>
<g id="a_Node000005"><a xlink:href="../../dd/dfc/iopc-parser_8c.html#a0451da1efc7d24554e38be6289a52ba9" target="_top" xlink:title=" ">
<polygon fill="white" stroke="#666666" points="186.5,-57.25 97.75,-57.25 97.75,-38 186.5,-38 186.5,-57.25"/>
<text text-anchor="middle" x="142.12" y="-43.75" font-family="Helvetica,sans-Serif" font-size="10.00">build_dox_param</text>
</a>
</g>
</g>
<!-- Node4&#45;&gt;Node5 -->
<g id="edge5_Node000004_Node000005" class="edge">
<title>Node4&#45;&gt;Node5</title>
<g id="a_edge5_Node000004_Node000005"><a xlink:title=" ">
<path fill="none" stroke="#63b8ff" d="M391.08,-72.36C326.13,-65.88 238.34,-57.12 186.52,-51.95"/>
<polygon fill="#63b8ff" stroke="#63b8ff" points="390.71,-75.84 401.01,-73.35 391.41,-68.88 390.71,-75.84"/>
</a>
</g>
</g>
<!-- Node6 -->
<g id="Node000006" class="node">
<title>Node6</title>
<g id="a_Node000006"><a xlink:href="../../dd/dfc/iopc-parser_8c.html#afb9a39fa28b00e30df8ebd08e01ce5c1" target="_top" xlink:title=" ">
<polygon fill="white" stroke="#666666" points="364.12,-19.25 225.12,-19.25 225.12,0 364.12,0 364.12,-19.25"/>
<text text-anchor="middle" x="294.62" y="-5.75" font-family="Helvetica,sans-Serif" font-size="10.00">iopc_dox_check_paragraphs</text>
</a>
</g>
</g>
<!-- Node4&#45;&gt;Node6 -->
<g id="edge8_Node000004_Node000006" class="edge">
<title>Node4&#45;&gt;Node6</title>
<g id="a_edge8_Node000004_Node000006"><a xlink:title=" ">
<path fill="none" stroke="#63b8ff" d="M430.13,-60.39C410.86,-51.75 387.84,-41.79 366.75,-33.62 353.99,-28.68 339.73,-23.76 327.35,-19.67"/>
<polygon fill="#63b8ff" stroke="#63b8ff" points="428.49,-63.49 439.04,-64.42 431.37,-57.11 428.49,-63.49"/>
</a>
</g>
</g>
<!-- Node5&#45;&gt;Node3 -->
<g id="edge6_Node000005_Node000003" class="edge">
<title>Node5&#45;&gt;Node3</title>
<g id="a_edge6_Node000005_Node000003"><a xlink:title=" ">
<path fill="none" stroke="#63b8ff" d="M86.05,-57.2C77.74,-58.65 69.45,-60.09 61.94,-61.4"/>
<polygon fill="#63b8ff" stroke="#63b8ff" points="86.57,-60.66 95.83,-55.5 85.38,-53.77 86.57,-60.66"/>
</a>
</g>
</g>
<!-- Node6&#45;&gt;Node3 -->
<g id="edge9_Node000006_Node000003" class="edge">
<title>Node6&#45;&gt;Node3</title>
<g id="a_edge9_Node000006_Node000003"><a xlink:title=" ">
<path fill="none" stroke="#63b8ff" d="M213.2,-9.75C177.17,-11.75 134.6,-16.82 97.75,-28.62 78.13,-34.91 57.96,-47.64 45.2,-56.64"/>
<polygon fill="#63b8ff" stroke="#63b8ff" points="213.32,-13.25 223.14,-9.28 212.99,-6.26 213.32,-13.25"/>
</a>
</g>
</g>
<!-- Node6&#45;&gt;Node5 -->
<g id="edge10_Node000006_Node000005" class="edge">
<title>Node6&#45;&gt;Node5</title>
<g id="a_edge10_Node000006_Node000005"><a xlink:title=" ">
<path fill="none" stroke="#63b8ff" d="M242.56,-22.52C223.11,-27.43 201.25,-32.95 182.99,-37.56"/>
<polygon fill="#63b8ff" stroke="#63b8ff" points="243.38,-25.92 252.22,-20.08 241.67,-19.13 243.38,-25.92"/>
</a>
</g>
</g>
</g>
</svg>
