<?xml version="1.0" encoding="UTF-8" standalone="no"?>
<!DOCTYPE svg PUBLIC "-//W3C//DTD SVG 1.1//EN"
 "http://www.w3.org/Graphics/SVG/1.1/DTD/svg11.dtd">
<!-- Generated by graphviz version 9.0.0 (20230911.1827)
 -->
<!-- Title: __eat Pages: 1 -->
<svg width="1797pt" height="425pt"
 viewBox="0.00 0.00 1796.50 425.00" xmlns="http://www.w3.org/2000/svg" xmlns:xlink="http://www.w3.org/1999/xlink">
<g id="graph0" class="graph" transform="scale(1 1) rotate(0) translate(4 421)">
<title>__eat</title>
<!-- Node1 -->
<g id="Node000001" class="node">
<title>Node1</title>
<g id="a_Node000001"><a xlink:title=" ">
<polygon fill="#999999" stroke="#666666" points="1788.5,-292.62 1748.5,-292.62 1748.5,-273.38 1788.5,-273.38 1788.5,-292.62"/>
<text text-anchor="middle" x="1768.5" y="-279.12" font-family="Helvetica,sans-Serif" font-size="10.00">__eat</text>
</a>
</g>
</g>
<!-- Node2 -->
<g id="Node000002" class="node">
<title>Node2</title>
<g id="a_Node000002"><a xlink:href="../../dd/dfc/iopc-parser_8c.html#aecb24588e7de941ac8b4717fc96c31a2" target="_top" xlink:title=" ">
<polygon fill="white" stroke="#666666" points="1712.5,-197.62 1608,-197.62 1608,-178.38 1712.5,-178.38 1712.5,-197.62"/>
<text text-anchor="middle" x="1660.25" y="-184.12" font-family="Helvetica,sans-Serif" font-size="10.00">parse_function_stmt</text>
</a>
</g>
</g>
<!-- Node1&#45;&gt;Node2 -->
<g id="edge1_Node000001_Node000002" class="edge">
<title>Node1&#45;&gt;Node2</title>
<g id="a_edge1_Node000001_Node000002"><a xlink:title=" ">
<path fill="none" stroke="#63b8ff" d="M1755.99,-263.41C1746.06,-247.86 1730.5,-226.41 1712.5,-212 1705.52,-206.41 1697.03,-201.77 1688.98,-198.1"/>
<polygon fill="#63b8ff" stroke="#63b8ff" points="1752.92,-265.1 1761.13,-271.79 1758.88,-261.43 1752.92,-265.1"/>
</a>
</g>
</g>
<!-- Node3 -->
<g id="Node000003" class="node">
<title>Node3</title>
<g id="a_Node000003"><a xlink:href="../../dd/dfc/iopc-parser_8c.html#a35685e561fb0c4cb62de1c2b33992a95" target="_top" xlink:title=" ">
<polygon fill="white" stroke="#666666" points="1572,-273.62 1481,-273.62 1481,-254.38 1572,-254.38 1572,-273.62"/>
<text text-anchor="middle" x="1526.5" y="-260.12" font-family="Helvetica,sans-Serif" font-size="10.00">parse_iface_stmt</text>
</a>
</g>
</g>
<!-- Node1&#45;&gt;Node3 -->
<g id="edge37_Node000001_Node000003" class="edge">
<title>Node1&#45;&gt;Node3</title>
<g id="a_edge37_Node000001_Node000003"><a xlink:title=" ">
<path fill="none" stroke="#63b8ff" d="M1736.95,-280.58C1695.26,-277.28 1620.26,-271.34 1572.23,-267.54"/>
<polygon fill="#63b8ff" stroke="#63b8ff" points="1736.51,-284.06 1746.76,-281.36 1737.06,-277.08 1736.51,-284.06"/>
</a>
</g>
</g>
<!-- Node4 -->
<g id="Node000004" class="node">
<title>Node4</title>
<g id="a_Node000004"><a xlink:href="../../dd/dfc/iopc-parser_8c.html#acc269e02f19abeee93b7a6ef689abe1d" target="_top" xlink:title=" ">
<polygon fill="white" stroke="#666666" points="1445,-180.62 1363,-180.62 1363,-161.38 1445,-161.38 1445,-180.62"/>
<text text-anchor="middle" x="1404" y="-167.12" font-family="Helvetica,sans-Serif" font-size="10.00">parse_package</text>
</a>
</g>
</g>
<!-- Node1&#45;&gt;Node4 -->
<g id="edge39_Node000001_Node000004" class="edge">
<title>Node1&#45;&gt;Node4</title>
<g id="a_edge39_Node000001_Node000004"><a xlink:title=" ">
<path fill="none" stroke="#63b8ff" d="M1737.28,-273.66C1669.76,-252.8 1507.12,-202.55 1437.51,-181.04"/>
<polygon fill="#63b8ff" stroke="#63b8ff" points="1735.98,-276.92 1746.56,-276.53 1738.04,-270.24 1735.98,-276.92"/>
</a>
</g>
</g>
<!-- Node11 -->
<g id="Node000011" class="node">
<title>Node11</title>
<g id="a_Node000011"><a xlink:href="../../dd/dfc/iopc-parser_8c.html#abeb1a49428a1bce37107c5b00cddb84a" target="_top" xlink:title=" ">
<polygon fill="white" stroke="#666666" points="850.5,-235.62 764.75,-235.62 764.75,-216.38 850.5,-216.38 850.5,-235.62"/>
<text text-anchor="middle" x="807.62" y="-222.12" font-family="Helvetica,sans-Serif" font-size="10.00">parse_pkg_stmt</text>
</a>
</g>
</g>
<!-- Node1&#45;&gt;Node11 -->
<g id="edge40_Node000001_Node000011" class="edge">
<title>Node1&#45;&gt;Node11</title>
<g id="a_edge40_Node000001_Node000011"><a xlink:title=" ">
<path fill="none" stroke="#63b8ff" d="M1736.84,-286.99C1691.27,-292.56 1602.92,-302 1527.5,-302 1527.5,-302 1527.5,-302 1285.75,-302 1221.97,-302 1200.68,-311.26 1143.5,-283 1123.22,-272.97 1128.09,-256.39 1107.5,-247 1023.02,-208.48 911.04,-213.47 850.99,-220.02"/>
<polygon fill="#63b8ff" stroke="#63b8ff" points="1737.26,-290.46 1746.75,-285.75 1736.39,-283.52 1737.26,-290.46"/>
</a>
</g>
</g>
<!-- Node15 -->
<g id="Node000015" class="node">
<title>Node15</title>
<g id="a_Node000015"><a xlink:href="../../dd/dfc/iopc-parser_8c.html#a77240cf99eead09f3518815538f6c3be" target="_top" xlink:title=" ">
<polygon fill="white" stroke="#666666" points="387,-213.62 317,-213.62 317,-194.38 387,-194.38 387,-213.62"/>
<text text-anchor="middle" x="352" y="-200.12" font-family="Helvetica,sans-Serif" font-size="10.00">parse_struct</text>
</a>
</g>
</g>
<!-- Node1&#45;&gt;Node15 -->
<g id="edge41_Node000001_Node000015" class="edge">
<title>Node1&#45;&gt;Node15</title>
<g id="a_edge41_Node000001_Node000015"><a xlink:title=" ">
<path fill="none" stroke="#63b8ff" d="M1757.15,-302.74C1747.6,-319.17 1731.97,-342.05 1712.5,-356 1642.13,-406.43 1614.08,-417 1527.5,-417 1527.5,-417 1527.5,-417 660.12,-417 559.34,-417 522.92,-396.31 453.75,-323 423.33,-290.76 448.89,-261.54 417.75,-230 409.49,-221.64 398.2,-215.88 387.35,-211.95"/>
<polygon fill="#63b8ff" stroke="#63b8ff" points="1760.01,-304.81 1761.79,-294.36 1753.89,-301.41 1760.01,-304.81"/>
</a>
</g>
</g>
<!-- Node21 -->
<g id="Node000021" class="node">
<title>Node21</title>
<g id="a_Node000021"><a xlink:href="../../dd/dfc/iopc-parser_8c.html#a285bbff499acd09cc7b78a6110b26092" target="_top" xlink:title=" ">
<polygon fill="white" stroke="#666666" points="558.25,-218.62 456.75,-218.62 456.75,-199.38 558.25,-199.38 558.25,-218.62"/>
<text text-anchor="middle" x="507.5" y="-205.12" font-family="Helvetica,sans-Serif" font-size="10.00">parse_module_stmt</text>
</a>
</g>
</g>
<!-- Node1&#45;&gt;Node21 -->
<g id="edge38_Node000001_Node000021" class="edge">
<title>Node1&#45;&gt;Node21</title>
<g id="a_edge38_Node000001_Node000021"><a xlink:title=" ">
<path fill="none" stroke="#63b8ff" d="M1743.9,-299.49C1702.25,-326.94 1612.1,-379 1527.5,-379 1527.5,-379 1527.5,-379 806.62,-379 713.19,-379 674,-413.29 597.25,-360 566.88,-338.91 579.85,-316.96 561.25,-285 546.87,-260.29 526.98,-233.2 516.2,-218.99"/>
<polygon fill="#63b8ff" stroke="#63b8ff" points="1745.81,-302.42 1752.16,-293.94 1741.91,-296.62 1745.81,-302.42"/>
</a>
</g>
</g>
<!-- Node2&#45;&gt;Node3 -->
<g id="edge2_Node000002_Node000003" class="edge">
<title>Node2&#45;&gt;Node3</title>
<g id="a_edge2_Node000002_Node000003"><a xlink:title=" ">
<path fill="none" stroke="#63b8ff" d="M1632.04,-203.7C1605.78,-218.84 1566.85,-241.3 1544.65,-254.11"/>
<polygon fill="#63b8ff" stroke="#63b8ff" points="1633.53,-206.88 1640.44,-198.85 1630.03,-200.81 1633.53,-206.88"/>
</a>
</g>
</g>
<!-- Node3&#45;&gt;Node4 -->
<g id="edge3_Node000003_Node000004" class="edge">
<title>Node3&#45;&gt;Node4</title>
<g id="a_edge3_Node000003_Node000004"><a xlink:title=" ">
<path fill="none" stroke="#63b8ff" d="M1494.5,-248.55C1489.86,-245.88 1485.23,-242.99 1481,-240 1454.82,-221.47 1427.88,-194.88 1414.19,-180.73"/>
<polygon fill="#63b8ff" stroke="#63b8ff" points="1492.72,-251.56 1503.17,-253.28 1496.07,-245.42 1492.72,-251.56"/>
</a>
</g>
</g>
<!-- Node5 -->
<g id="Node000005" class="node">
<title>Node5</title>
<g id="a_Node000005"><a xlink:href="../../dd/dfc/iopc-parser_8c.html#a5b4e6d6c40f2ad8a2daee70d7c82ce9d" target="_top" xlink:title=" ">
<polygon fill="white" stroke="#666666" points="1327,-217.62 1246.5,-217.62 1246.5,-198.38 1327,-198.38 1327,-217.62"/>
<text text-anchor="middle" x="1286.75" y="-204.12" font-family="Helvetica,sans-Serif" font-size="10.00">iopc_parse_file</text>
</a>
</g>
</g>
<!-- Node4&#45;&gt;Node5 -->
<g id="edge4_Node000004_Node000005" class="edge">
<title>Node4&#45;&gt;Node5</title>
<g id="a_edge4_Node000004_Node000005"><a xlink:title=" ">
<path fill="none" stroke="#63b8ff" d="M1360.81,-184.54C1347.06,-188.96 1332.03,-193.78 1319.2,-197.9"/>
<polygon fill="#63b8ff" stroke="#63b8ff" points="1361.61,-187.96 1370.07,-181.57 1359.48,-181.3 1361.61,-187.96"/>
</a>
</g>
</g>
<!-- Node6 -->
<g id="Node000006" class="node">
<title>Node6</title>
<g id="a_Node000006"><a xlink:href="../../db/d07/iopc-dso_8c.html#a95a19b847fb352eb92b539cf3495f093" target="_top" xlink:title=" ">
<polygon fill="white" stroke="#666666" points="1206.75,-199.62 1147.25,-199.62 1147.25,-180.38 1206.75,-180.38 1206.75,-199.62"/>
<text text-anchor="middle" x="1177" y="-186.12" font-family="Helvetica,sans-Serif" font-size="10.00">iopc_build</text>
</a>
</g>
</g>
<!-- Node5&#45;&gt;Node6 -->
<g id="edge5_Node000005_Node000006" class="edge">
<title>Node5&#45;&gt;Node6</title>
<g id="a_edge5_Node000005_Node000006"><a xlink:title=" ">
<path fill="none" stroke="#63b8ff" d="M1235.08,-199.54C1225.46,-197.93 1215.7,-196.3 1207.04,-194.85"/>
<polygon fill="#63b8ff" stroke="#63b8ff" points="1234.31,-202.95 1244.75,-201.15 1235.46,-196.05 1234.31,-202.95"/>
</a>
</g>
</g>
<!-- Node8 -->
<g id="Node000008" class="node">
<title>Node8</title>
<g id="a_Node000008"><a xlink:href="../../dd/dfc/iopc-parser_8c.html#a4a1b6267556f4be9d70d30b95884da4d" target="_top" xlink:title=" ">
<polygon fill="white" stroke="#666666" points="1210.5,-273.62 1143.5,-273.62 1143.5,-254.38 1210.5,-254.38 1210.5,-273.62"/>
<text text-anchor="middle" x="1177" y="-260.12" font-family="Helvetica,sans-Serif" font-size="10.00">iopc_try_file</text>
</a>
</g>
</g>
<!-- Node5&#45;&gt;Node8 -->
<g id="edge7_Node000005_Node000008" class="edge">
<title>Node5&#45;&gt;Node8</title>
<g id="a_edge7_Node000005_Node000008"><a xlink:title=" ">
<path fill="none" stroke="#63b8ff" d="M1256.4,-223.25C1237.66,-232.99 1213.89,-245.35 1197.46,-253.89"/>
<polygon fill="#63b8ff" stroke="#63b8ff" points="1257.88,-226.43 1265.14,-218.71 1254.66,-220.22 1257.88,-226.43"/>
</a>
</g>
</g>
<!-- Node28 -->
<g id="Node000028" class="node">
<title>Node28</title>
<g id="a_Node000028"><a xlink:href="../../df/d1f/iopc_8c.html#a3c04138a5bfe5d72780bb7e82a18e627" target="_top" xlink:title=" ">
<polygon fill="white" stroke="#666666" points="1195.5,-236.62 1158.5,-236.62 1158.5,-217.38 1195.5,-217.38 1195.5,-236.62"/>
<text text-anchor="middle" x="1177" y="-223.12" font-family="Helvetica,sans-Serif" font-size="10.00">main</text>
</a>
</g>
</g>
<!-- Node5&#45;&gt;Node28 -->
<g id="edge36_Node000005_Node000028" class="edge">
<title>Node5&#45;&gt;Node28</title>
<g id="a_edge36_Node000005_Node000028"><a xlink:title=" ">
<path fill="none" stroke="#63b8ff" d="M1235.08,-216.93C1221,-219.42 1206.62,-221.95 1195.82,-223.86"/>
<polygon fill="#63b8ff" stroke="#63b8ff" points="1235.51,-220.41 1244.75,-215.23 1234.29,-213.52 1235.51,-220.41"/>
</a>
</g>
</g>
<!-- Node7 -->
<g id="Node000007" class="node">
<title>Node7</title>
<g id="a_Node000007"><a xlink:href="../../db/d07/iopc-dso_8c.html#ab2da67841232fab2872190ddabd94a81" target="_top" xlink:title="Build an IOP DSO.">
<polygon fill="white" stroke="#666666" points="1099.25,-199.62 1018.75,-199.62 1018.75,-180.38 1099.25,-180.38 1099.25,-199.62"/>
<text text-anchor="middle" x="1059" y="-186.12" font-family="Helvetica,sans-Serif" font-size="10.00">iopc_dso_build</text>
</a>
</g>
</g>
<!-- Node6&#45;&gt;Node7 -->
<g id="edge6_Node000006_Node000007" class="edge">
<title>Node6&#45;&gt;Node7</title>
<g id="a_edge6_Node000006_Node000007"><a xlink:title=" ">
<path fill="none" stroke="#63b8ff" d="M1135.74,-190C1124.01,-190 1111.21,-190 1099.53,-190"/>
<polygon fill="#63b8ff" stroke="#63b8ff" points="1135.51,-193.5 1145.51,-190 1135.51,-186.5 1135.51,-193.5"/>
</a>
</g>
</g>
<!-- Node9 -->
<g id="Node000009" class="node">
<title>Node9</title>
<g id="a_Node000009"><a xlink:href="../../dd/dfc/iopc-parser_8c.html#a79761716a7eac847296f64962fe71976" target="_top" xlink:title=" ">
<polygon fill="white" stroke="#666666" points="1107.5,-275.62 1010.5,-275.62 1010.5,-256.38 1107.5,-256.38 1107.5,-275.62"/>
<text text-anchor="middle" x="1059" y="-262.12" font-family="Helvetica,sans-Serif" font-size="10.00">check_path_exists</text>
</a>
</g>
</g>
<!-- Node8&#45;&gt;Node9 -->
<g id="edge8_Node000008_Node000009" class="edge">
<title>Node8&#45;&gt;Node9</title>
<g id="a_edge8_Node000008_Node000009"><a xlink:title=" ">
<path fill="none" stroke="#63b8ff" d="M1131.57,-264.77C1123.77,-264.9 1115.62,-265.04 1107.74,-265.18"/>
<polygon fill="#63b8ff" stroke="#63b8ff" points="1131.62,-268.27 1141.56,-264.59 1131.5,-261.27 1131.62,-268.27"/>
</a>
</g>
</g>
<!-- Node10 -->
<g id="Node000010" class="node">
<title>Node10</title>
<g id="a_Node000010"><a xlink:href="../../dd/dfc/iopc-parser_8c.html#a0ec09fbdcf0b260ff83a7fdb42cf23cc" target="_top" xlink:title=" ">
<polygon fill="white" stroke="#666666" points="974.5,-273.62 890.25,-273.62 890.25,-254.38 974.5,-254.38 974.5,-273.62"/>
<text text-anchor="middle" x="932.38" y="-260.12" font-family="Helvetica,sans-Serif" font-size="10.00">parse_path_aux</text>
</a>
</g>
</g>
<!-- Node9&#45;&gt;Node10 -->
<g id="edge9_Node000009_Node000010" class="edge">
<title>Node9&#45;&gt;Node10</title>
<g id="a_edge9_Node000009_Node000010"><a xlink:title=" ">
<path fill="none" stroke="#63b8ff" d="M998.8,-265.05C990.68,-264.92 982.48,-264.79 974.78,-264.66"/>
<polygon fill="#63b8ff" stroke="#63b8ff" points="998.6,-268.55 1008.66,-265.21 998.72,-261.55 998.6,-268.55"/>
</a>
</g>
</g>
<!-- Node23 -->
<g id="Node000023" class="node">
<title>Node23</title>
<g id="a_Node000023"><a xlink:href="../../dd/dfc/iopc-parser_8c.html#a3f387ee0539c70f944de5dcc98cf928e" target="_top" xlink:title=" ">
<polygon fill="white" stroke="#666666" points="723.12,-313.62 599.12,-313.62 599.12,-294.38 723.12,-294.38 723.12,-313.62"/>
<text text-anchor="middle" x="661.12" y="-300.12" font-family="Helvetica,sans-Serif" font-size="10.00">parse_struct_snmp_from</text>
</a>
</g>
</g>
<!-- Node9&#45;&gt;Node23 -->
<g id="edge35_Node000009_Node000023" class="edge">
<title>Node9&#45;&gt;Node23</title>
<g id="a_edge35_Node000009_Node000023"><a xlink:title=" ">
<path fill="none" stroke="#63b8ff" d="M1002.73,-278.33C993.35,-280.12 983.67,-281.76 974.5,-283 887.77,-294.69 786.58,-299.98 723.42,-302.3"/>
<polygon fill="#63b8ff" stroke="#63b8ff" points="1003.37,-281.77 1012.5,-276.4 1002.01,-274.91 1003.37,-281.77"/>
</a>
</g>
</g>
<!-- Node10&#45;&gt;Node11 -->
<g id="edge10_Node000010_Node000011" class="edge">
<title>Node10&#45;&gt;Node11</title>
<g id="a_edge10_Node000010_Node000011"><a xlink:title=" ">
<path fill="none" stroke="#63b8ff" d="M887.89,-250.54C872.42,-245.75 855.29,-240.45 840.92,-236"/>
<polygon fill="#63b8ff" stroke="#63b8ff" points="886.77,-253.85 897.36,-253.47 888.84,-247.17 886.77,-253.85"/>
</a>
</g>
</g>
<!-- Node12 -->
<g id="Node000012" class="node">
<title>Node12</title>
<g id="a_Node000012"><a xlink:href="../../dd/dfc/iopc-parser_8c.html#ac72267654dc96e255a3f80df8feb4307" target="_top" xlink:title=" ">
<polygon fill="white" stroke="#666666" points="854.25,-272.62 761,-272.62 761,-253.38 854.25,-253.38 854.25,-272.62"/>
<text text-anchor="middle" x="807.62" y="-259.12" font-family="Helvetica,sans-Serif" font-size="10.00">parse_struct_type</text>
</a>
</g>
</g>
<!-- Node10&#45;&gt;Node12 -->
<g id="edge12_Node000010_Node000012" class="edge">
<title>Node10&#45;&gt;Node12</title>
<g id="a_edge12_Node000010_Node000012"><a xlink:title=" ">
<path fill="none" stroke="#63b8ff" d="M878.32,-263.57C870.34,-263.5 862.17,-263.44 854.35,-263.37"/>
<polygon fill="#63b8ff" stroke="#63b8ff" points="878.28,-267.07 888.3,-263.65 878.33,-260.07 878.28,-267.07"/>
</a>
</g>
</g>
<!-- Node11&#45;&gt;Node4 -->
<g id="edge11_Node000011_Node000004" class="edge">
<title>Node11&#45;&gt;Node4</title>
<g id="a_edge11_Node000011_Node000004"><a xlink:title=" ">
<path fill="none" stroke="#63b8ff" d="M838.2,-211.16C884.06,-189.56 975.64,-152 1058,-152 1178,-152 1178,-152 1178,-152 1242.88,-152 1317.91,-159.94 1362.85,-165.56"/>
<polygon fill="#63b8ff" stroke="#63b8ff" points="836.94,-207.88 829.44,-215.36 839.97,-214.19 836.94,-207.88"/>
</a>
</g>
</g>
<!-- Node13 -->
<g id="Node000013" class="node">
<title>Node13</title>
<g id="a_Node000013"><a xlink:href="../../dd/dfc/iopc-parser_8c.html#a1bbd17ec50769c5bdda73d466edd08a3" target="_top" xlink:title=" ">
<polygon fill="white" stroke="#666666" points="704,-85.62 618.25,-85.62 618.25,-66.38 704,-66.38 704,-85.62"/>
<text text-anchor="middle" x="661.12" y="-72.12" font-family="Helvetica,sans-Serif" font-size="10.00">parse_field_type</text>
</a>
</g>
</g>
<!-- Node12&#45;&gt;Node13 -->
<g id="edge13_Node000012_Node000013" class="edge">
<title>Node12&#45;&gt;Node13</title>
<g id="a_edge13_Node000012_Node000013"><a xlink:title=" ">
<path fill="none" stroke="#63b8ff" d="M762.48,-246.46C761.97,-245.99 761.48,-245.5 761,-245 726.44,-208.62 751.59,-180.55 725,-138 711.68,-116.68 689.62,-97.23 675.49,-86.01"/>
<polygon fill="#63b8ff" stroke="#63b8ff" points="760.29,-249.2 770.46,-252.16 764.35,-243.5 760.29,-249.2"/>
</a>
</g>
</g>
<!-- Node16 -->
<g id="Node000016" class="node">
<title>Node16</title>
<g id="a_Node000016"><a xlink:href="../../dd/dfc/iopc-parser_8c.html#a881b113838da8ff0b54d725bbff9049a" target="_top" xlink:title=" ">
<polygon fill="white" stroke="#666666" points="250.25,-161.62 144.25,-161.62 144.25,-142.38 250.25,-142.38 250.25,-161.62"/>
<text text-anchor="middle" x="197.25" y="-148.12" font-family="Helvetica,sans-Serif" font-size="10.00">parse_function_desc</text>
</a>
</g>
</g>
<!-- Node12&#45;&gt;Node16 -->
<g id="edge21_Node000012_Node000016" class="edge">
<title>Node12&#45;&gt;Node16</title>
<g id="a_edge21_Node000012_Node000016"><a xlink:title=" ">
<path fill="none" stroke="#63b8ff" d="M763.97,-247.26C762.95,-246.54 761.95,-245.78 761,-245 738.14,-226.22 750.46,-204.08 725,-189 645.93,-142.16 367.6,-145.99 250.64,-149.86"/>
<polygon fill="#63b8ff" stroke="#63b8ff" points="762.1,-250.22 772.51,-252.22 765.62,-244.17 762.1,-250.22"/>
</a>
</g>
</g>
<!-- Node19 -->
<g id="Node000019" class="node">
<title>Node19</title>
<g id="a_Node000019"><a xlink:href="../../dd/dfc/iopc-parser_8c.html#a0ddf289eec55c97f63f8115e0e3a83d4" target="_top" xlink:title=" ">
<polygon fill="white" stroke="#666666" points="417.75,-258.62 286.25,-258.62 286.25,-239.38 417.75,-239.38 417.75,-258.62"/>
<text text-anchor="middle" x="352" y="-245.12" font-family="Helvetica,sans-Serif" font-size="10.00">parse_handle_class_snmp</text>
</a>
</g>
</g>
<!-- Node12&#45;&gt;Node19 -->
<g id="edge22_Node000012_Node000019" class="edge">
<title>Node12&#45;&gt;Node19</title>
<g id="a_edge22_Node000012_Node000019"><a xlink:title=" ">
<path fill="none" stroke="#63b8ff" d="M749.19,-261.23C664.55,-258.62 506.78,-253.75 418.01,-251.01"/>
<polygon fill="#63b8ff" stroke="#63b8ff" points="749.02,-264.72 759.12,-261.53 749.23,-257.73 749.02,-264.72"/>
</a>
</g>
</g>
<!-- Node20 -->
<g id="Node000020" class="node">
<title>Node20</title>
<g id="a_Node000020"><a xlink:href="../../dd/dfc/iopc-parser_8c.html#ad28554ac836ef0c02ed7096a98e8749c" target="_top" xlink:title=" ">
<polygon fill="white" stroke="#666666" points="716.75,-237.62 605.5,-237.62 605.5,-218.38 716.75,-218.38 716.75,-237.62"/>
<text text-anchor="middle" x="661.12" y="-224.12" font-family="Helvetica,sans-Serif" font-size="10.00">parse_mod_field_stmt</text>
</a>
</g>
</g>
<!-- Node12&#45;&gt;Node20 -->
<g id="edge24_Node000012_Node000020" class="edge">
<title>Node12&#45;&gt;Node20</title>
<g id="a_edge24_Node000012_Node000020"><a xlink:title=" ">
<path fill="none" stroke="#63b8ff" d="M753.72,-250.19C737.28,-246.2 719.39,-241.87 703.83,-238.1"/>
<polygon fill="#63b8ff" stroke="#63b8ff" points="752.82,-253.57 763.36,-252.52 754.46,-246.76 752.82,-253.57"/>
</a>
</g>
</g>
<!-- Node12&#45;&gt;Node21 -->
<g id="edge27_Node000012_Node000021" class="edge">
<title>Node12&#45;&gt;Node21</title>
<g id="a_edge27_Node000012_Node000021"><a xlink:title=" ">
<path fill="none" stroke="#63b8ff" d="M766.04,-248.04C764.3,-247.07 762.62,-246.06 761,-245 742.08,-232.59 745.91,-217.66 725,-209 670.31,-186.35 600.96,-191.57 555.7,-198.94"/>
<polygon fill="#63b8ff" stroke="#63b8ff" points="764.42,-251.15 774.94,-252.4 767.5,-244.86 764.42,-251.15"/>
</a>
</g>
</g>
<!-- Node22 -->
<g id="Node000022" class="node">
<title>Node22</title>
<g id="a_Node000022"><a xlink:href="../../dd/dfc/iopc-parser_8c.html#a7281d65321218fddc70cabe8a105be55" target="_top" xlink:title=" ">
<polygon fill="white" stroke="#666666" points="725,-350.62 597.25,-350.62 597.25,-331.38 725,-331.38 725,-350.62"/>
<text text-anchor="middle" x="661.12" y="-337.12" font-family="Helvetica,sans-Serif" font-size="10.00">parse_snmp_iface_parent</text>
</a>
</g>
</g>
<!-- Node12&#45;&gt;Node22 -->
<g id="edge28_Node000012_Node000022" class="edge">
<title>Node12&#45;&gt;Node22</title>
<g id="a_edge28_Node000012_Node000022"><a xlink:title=" ">
<path fill="none" stroke="#63b8ff" d="M787.5,-280.14C771.72,-293.48 748.23,-311.6 725,-323 718.78,-326.05 711.96,-328.67 705.17,-330.89"/>
<polygon fill="#63b8ff" stroke="#63b8ff" points="789.42,-283.1 794.69,-273.91 784.84,-277.81 789.42,-283.1"/>
</a>
</g>
</g>
<!-- Node12&#45;&gt;Node23 -->
<g id="edge30_Node000012_Node000023" class="edge">
<title>Node12&#45;&gt;Node23</title>
<g id="a_edge30_Node000012_Node000023"><a xlink:title=" ">
<path fill="none" stroke="#63b8ff" d="M760.36,-276.13C740.02,-281.9 716.52,-288.56 697.61,-293.93"/>
<polygon fill="#63b8ff" stroke="#63b8ff" points="761.16,-279.54 769.82,-273.44 759.24,-272.81 761.16,-279.54"/>
</a>
</g>
</g>
<!-- Node14 -->
<g id="Node000014" class="node">
<title>Node14</title>
<g id="a_Node000014"><a xlink:href="../../dd/dfc/iopc-parser_8c.html#a7649a6231d55a4b9ec364ac09d94d3a5" target="_top" xlink:title=" ">
<polygon fill="white" stroke="#666666" points="551.12,-123.62 463.88,-123.62 463.88,-104.38 551.12,-104.38 551.12,-123.62"/>
<text text-anchor="middle" x="507.5" y="-110.12" font-family="Helvetica,sans-Serif" font-size="10.00">parse_field_stmt</text>
</a>
</g>
</g>
<!-- Node13&#45;&gt;Node14 -->
<g id="edge14_Node000013_Node000014" class="edge">
<title>Node13&#45;&gt;Node14</title>
<g id="a_edge14_Node000013_Node000014"><a xlink:title=" ">
<path fill="none" stroke="#63b8ff" d="M608.95,-88.82C589.29,-93.75 567.14,-99.3 548.66,-103.94"/>
<polygon fill="#63b8ff" stroke="#63b8ff" points="609.57,-92.28 618.42,-86.45 607.87,-85.49 609.57,-92.28"/>
</a>
</g>
</g>
<!-- Node18 -->
<g id="Node000018" class="node">
<title>Node18</title>
<g id="a_Node000018"><a xlink:href="../../dd/dfc/iopc-parser_8c.html#ab828c3a92b1c8238adadb490b7af86c2" target="_top" xlink:title=" ">
<polygon fill="white" stroke="#666666" points="558.25,-66.62 456.75,-66.62 456.75,-47.38 558.25,-47.38 558.25,-66.62"/>
<text text-anchor="middle" x="507.5" y="-53.12" font-family="Helvetica,sans-Serif" font-size="10.00">parse_typedef_stmt</text>
</a>
</g>
</g>
<!-- Node13&#45;&gt;Node18 -->
<g id="edge19_Node000013_Node000018" class="edge">
<title>Node13&#45;&gt;Node18</title>
<g id="a_edge19_Node000013_Node000018"><a xlink:title=" ">
<path fill="none" stroke="#63b8ff" d="M606.77,-69.31C591.1,-67.35 574.03,-65.21 558.57,-63.27"/>
<polygon fill="#63b8ff" stroke="#63b8ff" points="606.03,-72.75 616.39,-70.52 606.9,-65.8 606.03,-72.75"/>
</a>
</g>
</g>
<!-- Node14&#45;&gt;Node15 -->
<g id="edge15_Node000014_Node000015" class="edge">
<title>Node14&#45;&gt;Node15</title>
<g id="a_edge15_Node000014_Node000015"><a xlink:title=" ">
<path fill="none" stroke="#63b8ff" d="M479.61,-129.77C448.04,-148.27 396.65,-178.41 370.09,-193.98"/>
<polygon fill="#63b8ff" stroke="#63b8ff" points="481.32,-132.82 488.18,-124.74 477.78,-126.78 481.32,-132.82"/>
</a>
</g>
</g>
<!-- Node15&#45;&gt;Node16 -->
<g id="edge16_Node000015_Node000016" class="edge">
<title>Node15&#45;&gt;Node16</title>
<g id="a_edge16_Node000015_Node000016"><a xlink:title=" ">
<path fill="none" stroke="#63b8ff" d="M310.89,-190.35C284.86,-181.48 251.51,-170.13 227.87,-162.08"/>
<polygon fill="#63b8ff" stroke="#63b8ff" points="309.52,-193.58 320.12,-193.49 311.78,-186.95 309.52,-193.58"/>
</a>
</g>
</g>
<!-- Node17 -->
<g id="Node000017" class="node">
<title>Node17</title>
<g id="a_Node000017"><a xlink:href="../../dd/dfc/iopc-parser_8c.html#a0420653b173302863ab71ffe83237e6d" target="_top" xlink:title=" ">
<polygon fill="white" stroke="#666666" points="246.5,-241.25 148,-241.25 148,-210.75 246.5,-210.75 246.5,-241.25"/>
<text text-anchor="start" x="156" y="-227.75" font-family="Helvetica,sans-Serif" font-size="10.00">parse_struct_class</text>
<text text-anchor="middle" x="197.25" y="-216.5" font-family="Helvetica,sans-Serif" font-size="10.00">_union_snmp_stmt</text>
</a>
</g>
</g>
<!-- Node15&#45;&gt;Node17 -->
<g id="edge18_Node000015_Node000017" class="edge">
<title>Node15&#45;&gt;Node17</title>
<g id="a_edge18_Node000015_Node000017"><a xlink:title=" ">
<path fill="none" stroke="#63b8ff" d="M305.37,-210.57C286.93,-213.23 265.63,-216.3 246.9,-218.99"/>
<polygon fill="#63b8ff" stroke="#63b8ff" points="305.82,-214.04 315.22,-209.15 304.82,-207.11 305.82,-214.04"/>
</a>
</g>
</g>
<!-- Node16&#45;&gt;Node2 -->
<g id="edge17_Node000016_Node000002" class="edge">
<title>Node16&#45;&gt;Node2</title>
<g id="a_edge17_Node000016_Node000002"><a xlink:title=" ">
<path fill="none" stroke="#63b8ff" d="M217.47,-134.61C263.63,-94.71 385.92,0 506.5,0 1405,0 1405,0 1405,0 1525.77,0 1626.74,-138.84 1652.75,-177.89"/>
<polygon fill="#63b8ff" stroke="#63b8ff" points="215.37,-131.79 210.17,-141.03 219.99,-137.05 215.37,-131.79"/>
</a>
</g>
</g>
<!-- Node18&#45;&gt;Node4 -->
<g id="edge20_Node000018_Node000004" class="edge">
<title>Node18&#45;&gt;Node4</title>
<g id="a_edge20_Node000018_Node000004"><a xlink:title=" ">
<path fill="none" stroke="#63b8ff" d="M569.75,-50.81C629.97,-45.26 724.53,-38 806.62,-38 1178,-38 1178,-38 1178,-38 1274.65,-38 1366.23,-130.07 1394.27,-161"/>
<polygon fill="#63b8ff" stroke="#63b8ff" points="569.69,-47.3 560.06,-51.72 570.34,-54.27 569.69,-47.3"/>
</a>
</g>
</g>
<!-- Node19&#45;&gt;Node17 -->
<g id="edge23_Node000019_Node000017" class="edge">
<title>Node19&#45;&gt;Node17</title>
<g id="a_edge23_Node000019_Node000017"><a xlink:title=" ">
<path fill="none" stroke="#63b8ff" d="M274.62,-237.5C265.09,-236.06 255.56,-234.63 246.62,-233.28"/>
<polygon fill="#63b8ff" stroke="#63b8ff" points="273.87,-240.93 284.28,-238.95 274.91,-234 273.87,-240.93"/>
</a>
</g>
</g>
<!-- Node20&#45;&gt;Node21 -->
<g id="edge25_Node000020_Node000021" class="edge">
<title>Node20&#45;&gt;Node21</title>
<g id="a_edge25_Node000020_Node000021"><a xlink:title=" ">
<path fill="none" stroke="#63b8ff" d="M594.11,-219.73C582.21,-218.24 569.98,-216.7 558.62,-215.28"/>
<polygon fill="#63b8ff" stroke="#63b8ff" points="593.53,-223.18 603.88,-220.95 594.4,-216.24 593.53,-223.18"/>
</a>
</g>
</g>
<!-- Node21&#45;&gt;Node4 -->
<g id="edge26_Node000021_Node000004" class="edge">
<title>Node21&#45;&gt;Node4</title>
<g id="a_edge26_Node000021_Node000004"><a xlink:title=" ">
<path fill="none" stroke="#63b8ff" d="M536.4,-193.7C588.08,-166.84 702.91,-114 806.62,-114 1178,-114 1178,-114 1178,-114 1253.56,-114 1339.13,-144.58 1379.52,-160.94"/>
<polygon fill="#63b8ff" stroke="#63b8ff" points="534.9,-190.54 527.69,-198.31 538.17,-196.73 534.9,-190.54"/>
</a>
</g>
</g>
<!-- Node22&#45;&gt;Node3 -->
<g id="edge29_Node000022_Node000003" class="edge">
<title>Node22&#45;&gt;Node3</title>
<g id="a_edge29_Node000022_Node000003"><a xlink:title=" ">
<path fill="none" stroke="#63b8ff" d="M736.44,-340.58C790.51,-340.3 865.48,-340 931.38,-340 1060,-340 1060,-340 1060,-340 1221.72,-340 1410.97,-294.77 1489.02,-274.09"/>
<polygon fill="#63b8ff" stroke="#63b8ff" points="736.73,-337.07 726.75,-340.63 736.76,-344.07 736.73,-337.07"/>
</a>
</g>
</g>
<!-- Node24 -->
<g id="Node000024" class="node">
<title>Node24</title>
<g id="a_Node000024"><a xlink:href="../../dd/dfc/iopc-parser_8c.html#a54608d30c17f5d1a6f858f3f748ffc45" target="_top" xlink:title=" ">
<polygon fill="white" stroke="#666666" points="561.25,-313.62 453.75,-313.62 453.75,-294.38 561.25,-294.38 561.25,-313.62"/>
<text text-anchor="middle" x="507.5" y="-300.12" font-family="Helvetica,sans-Serif" font-size="10.00">parse_snmp_attr_arg</text>
</a>
</g>
</g>
<!-- Node23&#45;&gt;Node24 -->
<g id="edge31_Node000023_Node000024" class="edge">
<title>Node23&#45;&gt;Node24</title>
<g id="a_edge31_Node000023_Node000024"><a xlink:title=" ">
<path fill="none" stroke="#63b8ff" d="M587.51,-304C578.8,-304 570.03,-304 561.67,-304"/>
<polygon fill="#63b8ff" stroke="#63b8ff" points="587.38,-307.5 597.38,-304 587.38,-300.5 587.38,-307.5"/>
</a>
</g>
</g>
<!-- Node25 -->
<g id="Node000025" class="node">
<title>Node25</title>
<g id="a_Node000025"><a xlink:href="../../dd/dfc/iopc-parser_8c.html#a8c3760612476135c94480e62e7928c71" target="_top" xlink:title=" ">
<polygon fill="white" stroke="#666666" points="393.75,-313.62 310.25,-313.62 310.25,-294.38 393.75,-294.38 393.75,-313.62"/>
<text text-anchor="middle" x="352" y="-300.12" font-family="Helvetica,sans-Serif" font-size="10.00">parse_attr_args</text>
</a>
</g>
</g>
<!-- Node24&#45;&gt;Node25 -->
<g id="edge32_Node000024_Node000025" class="edge">
<title>Node24&#45;&gt;Node25</title>
<g id="a_edge32_Node000024_Node000025"><a xlink:title=" ">
<path fill="none" stroke="#63b8ff" d="M442.44,-304C425.98,-304 408.72,-304 393.8,-304"/>
<polygon fill="#63b8ff" stroke="#63b8ff" points="442.16,-307.5 452.16,-304 442.16,-300.5 442.16,-307.5"/>
</a>
</g>
</g>
<!-- Node26 -->
<g id="Node000026" class="node">
<title>Node26</title>
<g id="a_Node000026"><a xlink:href="../../dd/dfc/iopc-parser_8c.html#a325c3a28208c682c1b52f9711967f77e" target="_top" xlink:title=" ">
<polygon fill="white" stroke="#666666" points="227,-313.62 167.5,-313.62 167.5,-294.38 227,-294.38 227,-313.62"/>
<text text-anchor="middle" x="197.25" y="-300.12" font-family="Helvetica,sans-Serif" font-size="10.00">parse_attr</text>
</a>
</g>
</g>
<!-- Node25&#45;&gt;Node26 -->
<g id="edge33_Node000025_Node000026" class="edge">
<title>Node25&#45;&gt;Node26</title>
<g id="a_edge33_Node000025_Node000026"><a xlink:title=" ">
<path fill="none" stroke="#63b8ff" d="M298.65,-304C274.74,-304 247.33,-304 227.19,-304"/>
<polygon fill="#63b8ff" stroke="#63b8ff" points="298.55,-307.5 308.55,-304 298.55,-300.5 298.55,-307.5"/>
</a>
</g>
</g>
<!-- Node27 -->
<g id="Node000027" class="node">
<title>Node27</title>
<g id="a_Node000027"><a xlink:href="../../dd/dfc/iopc-parser_8c.html#a2dd65e07c0efdb78cfd5b45d7ae13c3f" target="_top" xlink:title=" ">
<polygon fill="white" stroke="#666666" points="108.25,-313.62 0,-313.62 0,-294.38 108.25,-294.38 108.25,-313.62"/>
<text text-anchor="middle" x="54.12" y="-300.12" font-family="Helvetica,sans-Serif" font-size="10.00">check_dox_and_attrs</text>
</a>
</g>
</g>
<!-- Node26&#45;&gt;Node27 -->
<g id="edge34_Node000026_Node000027" class="edge">
<title>Node26&#45;&gt;Node27</title>
<g id="a_edge34_Node000026_Node000027"><a xlink:title=" ">
<path fill="none" stroke="#63b8ff" d="M155.74,-304C141.05,-304 124.21,-304 108.57,-304"/>
<polygon fill="#63b8ff" stroke="#63b8ff" points="155.5,-307.5 165.5,-304 155.5,-300.5 155.5,-307.5"/>
</a>
</g>
</g>
</g>
</svg>
