<?xml version="1.0" encoding="UTF-8" standalone="no"?>
<!DOCTYPE svg PUBLIC "-//W3C//DTD SVG 1.1//EN"
 "http://www.w3.org/Graphics/SVG/1.1/DTD/svg11.dtd">
<!-- Generated by graphviz version 9.0.0 (20230911.1827)
 -->
<!-- Title: ic_write Pages: 1 -->
<svg width="1945pt" height="392pt"
 viewBox="0.00 0.00 1945.25 391.61" xmlns="http://www.w3.org/2000/svg" xmlns:xlink="http://www.w3.org/1999/xlink">
<g id="graph0" class="graph" transform="scale(1 1) rotate(0) translate(4 387.61)">
<title>ic_write</title>
<!-- Node1 -->
<g id="Node000001" class="node">
<title>Node1</title>
<g id="a_Node000001"><a xlink:title=" ">
<polygon fill="#999999" stroke="#666666" points="1937.25,-234.86 1887.5,-234.86 1887.5,-215.61 1937.25,-215.61 1937.25,-234.86"/>
<text text-anchor="middle" x="1912.38" y="-221.36" font-family="Helvetica,sans-Serif" font-size="10.00">ic_write</text>
</a>
</g>
</g>
<!-- Node2 -->
<g id="Node000002" class="node">
<title>Node2</title>
<g id="a_Node000002"><a xlink:href="../../db/d0c/rpc-channel_8blk.html#a58bd11f70ef478384c17a09cc4e8257d" target="_top" xlink:title=" ">
<polygon fill="white" stroke="#666666" points="1155.88,-347.86 1096.38,-347.86 1096.38,-328.61 1155.88,-328.61 1155.88,-347.86"/>
<text text-anchor="middle" x="1126.12" y="-334.36" font-family="Helvetica,sans-Serif" font-size="10.00">__ic_flush</text>
</a>
</g>
</g>
<!-- Node1&#45;&gt;Node2 -->
<g id="edge1_Node000001_Node000002" class="edge">
<title>Node1&#45;&gt;Node2</title>
<g id="a_edge1_Node000001_Node000002"><a xlink:title=" ">
<path fill="none" stroke="#63b8ff" d="M1896.62,-244.2C1869.74,-276.38 1809.41,-338.24 1742.62,-338.24 1742.62,-338.24 1742.62,-338.24 1392.25,-338.24 1306.41,-338.24 1204.93,-338.24 1156.16,-338.24"/>
<polygon fill="#63b8ff" stroke="#63b8ff" points="1899.32,-246.41 1902.9,-236.44 1893.88,-242.01 1899.32,-246.41"/>
</a>
</g>
</g>
<!-- Node11 -->
<g id="Node000011" class="node">
<title>Node11</title>
<g id="a_Node000011"><a xlink:href="../../db/d0c/rpc-channel_8blk.html#adc9bceb7a0974122d068ea5e0aa85fb1" target="_top" xlink:title=" ">
<polygon fill="white" stroke="#666666" points="1768,-196.86 1715.25,-196.86 1715.25,-177.61 1768,-177.61 1768,-196.86"/>
<text text-anchor="middle" x="1741.62" y="-183.36" font-family="Helvetica,sans-Serif" font-size="10.00">ic_event</text>
</a>
</g>
</g>
<!-- Node1&#45;&gt;Node11 -->
<g id="edge13_Node000001_Node000011" class="edge">
<title>Node1&#45;&gt;Node11</title>
<g id="a_edge13_Node000001_Node000011"><a xlink:title=" ">
<path fill="none" stroke="#63b8ff" d="M1876.18,-213.2C1868.13,-210.69 1859.56,-208.21 1851.5,-206.24 1823.36,-199.35 1790.53,-193.98 1768.34,-190.73"/>
<polygon fill="#63b8ff" stroke="#63b8ff" points="1875.08,-216.52 1885.67,-216.26 1877.23,-209.86 1875.08,-216.52"/>
</a>
</g>
</g>
<!-- Node33 -->
<g id="Node000033" class="node">
<title>Node33</title>
<g id="a_Node000033"><a xlink:href="../../db/d0c/rpc-channel_8blk.html#a747e2773aab9e2db14c24fcc56d62781" target="_top" xlink:title=" ">
<polygon fill="white" stroke="#666666" points="1851.5,-234.86 1804,-234.86 1804,-215.61 1851.5,-215.61 1851.5,-234.86"/>
<text text-anchor="middle" x="1827.75" y="-221.36" font-family="Helvetica,sans-Serif" font-size="10.00">ic_read</text>
</a>
</g>
</g>
<!-- Node1&#45;&gt;Node33 -->
<g id="edge49_Node000001_Node000033" class="edge">
<title>Node1&#45;&gt;Node33</title>
<g id="a_edge49_Node000001_Node000033"><a xlink:title=" ">
<path fill="none" stroke="#63b8ff" d="M1875.57,-225.24C1867.51,-225.24 1859.16,-225.24 1851.79,-225.24"/>
<polygon fill="#63b8ff" stroke="#63b8ff" points="1875.52,-228.74 1885.52,-225.24 1875.52,-221.74 1875.52,-228.74"/>
</a>
</g>
</g>
<!-- Node3 -->
<g id="Node000003" class="node">
<title>Node3</title>
<g id="a_Node000003"><a xlink:href="../../db/d0c/rpc-channel_8blk.html#a5ab21aa9425e725ac9904df04d90af3c" target="_top" xlink:title=" ">
<polygon fill="white" stroke="#666666" points="994.38,-353.86 945.38,-353.86 945.38,-334.61 994.38,-334.61 994.38,-353.86"/>
<text text-anchor="middle" x="969.88" y="-340.36" font-family="Helvetica,sans-Serif" font-size="10.00">ic_flush</text>
</a>
</g>
</g>
<!-- Node2&#45;&gt;Node3 -->
<g id="edge2_Node000002_Node000003" class="edge">
<title>Node2&#45;&gt;Node3</title>
<g id="a_edge2_Node000002_Node000003"><a xlink:title=" ">
<path fill="none" stroke="#63b8ff" d="M1084.84,-339.8C1056.2,-340.92 1018.71,-342.38 994.7,-343.31"/>
<polygon fill="#63b8ff" stroke="#63b8ff" points="1084.74,-343.31 1094.6,-339.42 1084.47,-336.32 1084.74,-343.31"/>
</a>
</g>
</g>
<!-- Node4 -->
<g id="Node000004" class="node">
<title>Node4</title>
<g id="a_Node000004"><a xlink:href="../../db/d0c/rpc-channel_8blk.html#a123218bc7d709a83e1b732adeae29069" target="_top" xlink:title="XXX: __ic_query_sync() insures that the message has effectively been written on the socket (and does ...">
<polygon fill="white" stroke="#666666" points="858.75,-355.86 770.75,-355.86 770.75,-336.61 858.75,-336.61 858.75,-355.86"/>
<text text-anchor="middle" x="814.75" y="-342.36" font-family="Helvetica,sans-Serif" font-size="10.00">__ic_query_sync</text>
</a>
</g>
</g>
<!-- Node3&#45;&gt;Node4 -->
<g id="edge3_Node000003_Node000004" class="edge">
<title>Node3&#45;&gt;Node4</title>
<g id="a_edge3_Node000003_Node000004"><a xlink:title=" ">
<path fill="none" stroke="#63b8ff" d="M933.72,-344.7C911.56,-344.98 882.8,-345.36 859.22,-345.67"/>
<polygon fill="#63b8ff" stroke="#63b8ff" points="933.48,-348.2 943.44,-344.57 933.39,-341.2 933.48,-348.2"/>
</a>
</g>
</g>
<!-- Node5 -->
<g id="Node000005" class="node">
<title>Node5</title>
<g id="a_Node000005"><a xlink:href="../../db/dac/rpc-el_8c.html#aa790b34645336ccb442ccd31d6058355" target="_top" xlink:title="Pack and do RPC query.">
<polygon fill="white" stroke="#666666" points="728,-373.49 621.25,-373.49 621.25,-342.99 728,-342.99 728,-373.49"/>
<text text-anchor="start" x="629.25" y="-359.99" font-family="Helvetica,sans-Serif" font-size="10.00">ic_client_query_pack</text>
<text text-anchor="middle" x="674.62" y="-348.74" font-family="Helvetica,sans-Serif" font-size="10.00">_and_query</text>
</a>
</g>
</g>
<!-- Node4&#45;&gt;Node5 -->
<g id="edge4_Node000004_Node000005" class="edge">
<title>Node4&#45;&gt;Node5</title>
<g id="a_edge4_Node000004_Node000005"><a xlink:title=" ">
<path fill="none" stroke="#63b8ff" d="M759.1,-350.98C748.86,-351.87 738.18,-352.8 728.01,-353.69"/>
<polygon fill="#63b8ff" stroke="#63b8ff" points="759.26,-354.48 768.92,-350.13 758.65,-347.51 759.26,-354.48"/>
</a>
</g>
</g>
<!-- Node6 -->
<g id="Node000006" class="node">
<title>Node6</title>
<g id="a_Node000006"><a xlink:href="../../db/dac/rpc-el_8c.html#ad5785edad9fce58e6f303b4a28df193d" target="_top" xlink:title="Make an RPC call to an async RPC.">
<polygon fill="white" stroke="#666666" points="579.25,-369.86 449.25,-369.86 449.25,-350.61 579.25,-350.61 579.25,-369.86"/>
<text text-anchor="middle" x="514.25" y="-356.36" font-family="Helvetica,sans-Serif" font-size="10.00">ic_client_query_async_rpc</text>
</a>
</g>
</g>
<!-- Node5&#45;&gt;Node6 -->
<g id="edge5_Node000005_Node000006" class="edge">
<title>Node5&#45;&gt;Node6</title>
<g id="a_edge5_Node000005_Node000006"><a xlink:title=" ">
<path fill="none" stroke="#63b8ff" d="M609.5,-359.05C599.64,-359.17 589.46,-359.3 579.6,-359.42"/>
<polygon fill="#63b8ff" stroke="#63b8ff" points="609.42,-362.55 619.37,-358.92 609.33,-355.55 609.42,-362.55"/>
</a>
</g>
</g>
<!-- Node7 -->
<g id="Node000007" class="node">
<title>Node7</title>
<g id="a_Node000007"><a xlink:href="../../db/dac/rpc-el_8c.html#ab564d5690ba53152c1900e3ae9cdb33a" target="_top" xlink:title="Make the asynchronous RPC call with the connected IC EL client.">
<polygon fill="white" stroke="#666666" points="396,-377.49 300.5,-377.49 300.5,-346.99 396,-346.99 396,-377.49"/>
<text text-anchor="start" x="308.5" y="-363.99" font-family="Helvetica,sans-Serif" font-size="10.00">ic_el_client_async</text>
<text text-anchor="middle" x="348.25" y="-352.74" font-family="Helvetica,sans-Serif" font-size="10.00">_call_connected</text>
</a>
</g>
</g>
<!-- Node5&#45;&gt;Node7 -->
<g id="edge11_Node000005_Node000007" class="edge">
<title>Node5&#45;&gt;Node7</title>
<g id="a_edge11_Node000005_Node000007"><a xlink:title=" ">
<path fill="none" stroke="#63b8ff" d="M610.09,-374.36C599.84,-376.39 589.3,-378.13 579.25,-379.24 521.82,-385.55 506.82,-384.1 449.25,-379.24 431.88,-377.77 412.99,-374.9 396.35,-371.92"/>
<polygon fill="#63b8ff" stroke="#63b8ff" points="610.5,-377.85 619.58,-372.38 609.07,-371 610.5,-377.85"/>
</a>
</g>
</g>
<!-- Node10 -->
<g id="Node000010" class="node">
<title>Node10</title>
<g id="a_Node000010"><a xlink:href="../../db/dac/rpc-el_8c.html#ad2091c7b6c6d08d767130403a26c4230" target="_top" xlink:title="Synchronously call an RPC with the IC EL client.">
<polygon fill="white" stroke="#666666" points="403.5,-328.86 293,-328.86 293,-309.61 403.5,-309.61 403.5,-328.86"/>
<text text-anchor="middle" x="348.25" y="-315.36" font-family="Helvetica,sans-Serif" font-size="10.00">ic_el_client_sync_call</text>
</a>
</g>
</g>
<!-- Node5&#45;&gt;Node10 -->
<g id="edge12_Node000005_Node000010" class="edge">
<title>Node5&#45;&gt;Node10</title>
<g id="a_edge12_Node000005_Node000010"><a xlink:title=" ">
<path fill="none" stroke="#63b8ff" d="M609.56,-345.96C599.44,-344.23 589.08,-342.59 579.25,-341.24 519.44,-333 450.47,-326.85 403.77,-323.17"/>
<polygon fill="#63b8ff" stroke="#63b8ff" points="608.89,-349.4 619.35,-347.67 610.1,-342.5 608.89,-349.4"/>
</a>
</g>
</g>
<!-- Node6&#45;&gt;Node7 -->
<g id="edge6_Node000006_Node000007" class="edge">
<title>Node6&#45;&gt;Node7</title>
<g id="a_edge6_Node000006_Node000007"><a xlink:title=" ">
<path fill="none" stroke="#63b8ff" d="M437.71,-361.16C423.65,-361.33 409.33,-361.5 396.43,-361.66"/>
<polygon fill="#63b8ff" stroke="#63b8ff" points="437.43,-364.66 447.39,-361.04 437.35,-357.66 437.43,-364.66"/>
</a>
</g>
</g>
<!-- Node6&#45;&gt;Node10 -->
<g id="edge10_Node000006_Node000010" class="edge">
<title>Node6&#45;&gt;Node10</title>
<g id="a_edge10_Node000006_Node000010"><a xlink:title=" ">
<path fill="none" stroke="#63b8ff" d="M462.02,-347.43C438.65,-341.59 411.39,-334.77 389.52,-329.3"/>
<polygon fill="#63b8ff" stroke="#63b8ff" points="461.11,-350.81 471.66,-349.84 462.81,-344.02 461.11,-350.81"/>
</a>
</g>
</g>
<!-- Node8 -->
<g id="Node000008" class="node">
<title>Node8</title>
<g id="a_Node000008"><a xlink:href="../../db/dac/rpc-el_8c.html#a6bcd2209ce7ff6879666d2d222dbd3d6" target="_top" xlink:title="Asynchronously call an RPC with the IC EL client.">
<polygon fill="white" stroke="#666666" points="115.75,-328.86 0,-328.86 0,-309.61 115.75,-309.61 115.75,-328.86"/>
<text text-anchor="middle" x="57.88" y="-315.36" font-family="Helvetica,sans-Serif" font-size="10.00">ic_el_client_async_call</text>
</a>
</g>
</g>
<!-- Node7&#45;&gt;Node8 -->
<g id="edge7_Node000007_Node000008" class="edge">
<title>Node7&#45;&gt;Node8</title>
<g id="a_edge7_Node000007_Node000008"><a xlink:title=" ">
<path fill="none" stroke="#63b8ff" d="M289.42,-346.96C275.67,-343.71 261,-340.57 247.25,-338.24 203.5,-330.81 153.51,-325.94 116.02,-322.98"/>
<polygon fill="#63b8ff" stroke="#63b8ff" points="288.2,-350.26 298.74,-349.21 289.84,-343.46 288.2,-350.26"/>
</a>
</g>
</g>
<!-- Node9 -->
<g id="Node000009" class="node">
<title>Node9</title>
<g id="a_Node000009"><a xlink:href="../../db/dac/rpc-el_8c.html#a406e0ad69521a457ec592294f76e267d" target="_top" xlink:title=" ">
<polygon fill="white" stroke="#666666" points="247.25,-377.49 151.75,-377.49 151.75,-346.99 247.25,-346.99 247.25,-377.49"/>
<text text-anchor="start" x="159.75" y="-363.99" font-family="Helvetica,sans-Serif" font-size="10.00">ic_el_client_async</text>
<text text-anchor="middle" x="199.5" y="-352.74" font-family="Helvetica,sans-Serif" font-size="10.00">_call_connect_cb</text>
</a>
</g>
</g>
<!-- Node7&#45;&gt;Node9 -->
<g id="edge8_Node000007_Node000009" class="edge">
<title>Node7&#45;&gt;Node9</title>
<g id="a_edge8_Node000007_Node000009"><a xlink:title=" ">
<path fill="none" stroke="#63b8ff" d="M288.76,-362.24C275.11,-362.24 260.74,-362.24 247.65,-362.24"/>
<polygon fill="#63b8ff" stroke="#63b8ff" points="288.5,-365.74 298.5,-362.24 288.5,-358.74 288.5,-365.74"/>
</a>
</g>
</g>
<!-- Node9&#45;&gt;Node8 -->
<g id="edge9_Node000009_Node000008" class="edge">
<title>Node9&#45;&gt;Node8</title>
<g id="a_edge9_Node000009_Node000008"><a xlink:title=" ">
<path fill="none" stroke="#63b8ff" d="M140.81,-344.47C124.08,-339.32 106.39,-333.87 91.75,-329.36"/>
<polygon fill="#63b8ff" stroke="#63b8ff" points="139.58,-347.75 150.17,-347.35 141.65,-341.06 139.58,-347.75"/>
</a>
</g>
</g>
<!-- Node12 -->
<g id="Node000012" class="node">
<title>Node12</title>
<g id="a_Node000012"><a xlink:href="../../db/d0c/rpc-channel_8blk.html#a817ef99c961cde2e81f182d8694839c1" target="_top" xlink:title=" ">
<polygon fill="white" stroke="#666666" points="1679.25,-158.86 1605.5,-158.86 1605.5,-139.61 1679.25,-139.61 1679.25,-158.86"/>
<text text-anchor="middle" x="1642.38" y="-145.36" font-family="Helvetica,sans-Serif" font-size="10.00">__ic_connect</text>
</a>
</g>
</g>
<!-- Node11&#45;&gt;Node12 -->
<g id="edge14_Node000011_Node000012" class="edge">
<title>Node11&#45;&gt;Node12</title>
<g id="a_edge14_Node000011_Node000012"><a xlink:title=" ">
<path fill="none" stroke="#63b8ff" d="M1704.38,-173.08C1692.61,-168.47 1679.79,-163.47 1668.96,-159.24"/>
<polygon fill="#63b8ff" stroke="#63b8ff" points="1702.82,-176.22 1713.41,-176.6 1705.37,-169.7 1702.82,-176.22"/>
</a>
</g>
</g>
<!-- Node31 -->
<g id="Node000031" class="node">
<title>Node31</title>
<g id="a_Node000031"><a xlink:href="../../db/d0c/rpc-channel_8blk.html#aebe3d9f2d9d4315148f658d6ef5b0d86" target="_top" xlink:title=" ">
<polygon fill="white" stroke="#666666" points="1315.12,-25.86 1214.38,-25.86 1214.38,-6.61 1315.12,-6.61 1315.12,-25.86"/>
<text text-anchor="middle" x="1264.75" y="-12.36" font-family="Helvetica,sans-Serif" font-size="10.00">ic_mark_connected</text>
</a>
</g>
</g>
<!-- Node11&#45;&gt;Node31 -->
<g id="edge44_Node000011_Node000031" class="edge">
<title>Node11&#45;&gt;Node31</title>
<g id="a_edge44_Node000011_Node000031"><a xlink:title=" ">
<path fill="none" stroke="#63b8ff" d="M1726.23,-168.62C1699.5,-135.7 1638.61,-68.07 1569.5,-40.24 1485.22,-6.3 1377.31,-7.09 1315.41,-11.3"/>
<polygon fill="#63b8ff" stroke="#63b8ff" points="1723.21,-170.45 1732.17,-176.1 1728.69,-166.09 1723.21,-170.45"/>
</a>
</g>
</g>
<!-- Node13 -->
<g id="Node000013" class="node">
<title>Node13</title>
<g id="a_Node000013"><a xlink:href="../../db/d0c/rpc-channel_8blk.html#a48c3a0948c51fa0f785be1abb8087dbd" target="_top" xlink:title=" ">
<polygon fill="white" stroke="#666666" points="1548.88,-177.86 1485.62,-177.86 1485.62,-158.61 1548.88,-158.61 1548.88,-177.86"/>
<text text-anchor="middle" x="1517.25" y="-164.36" font-family="Helvetica,sans-Serif" font-size="10.00">ic_connect</text>
</a>
</g>
</g>
<!-- Node12&#45;&gt;Node13 -->
<g id="edge15_Node000012_Node000013" class="edge">
<title>Node12&#45;&gt;Node13</title>
<g id="a_edge15_Node000012_Node000013"><a xlink:title=" ">
<path fill="none" stroke="#63b8ff" d="M1593.94,-156.56C1578.96,-158.87 1562.8,-161.36 1549.27,-163.45"/>
<polygon fill="#63b8ff" stroke="#63b8ff" points="1594.25,-160.05 1603.6,-155.07 1593.19,-153.13 1594.25,-160.05"/>
</a>
</g>
</g>
<!-- Node30 -->
<g id="Node000030" class="node">
<title>Node30</title>
<g id="a_Node000030"><a xlink:href="../../db/d0c/rpc-channel_8blk.html#ac436bdc6f58cc92cb6d146a2932ea5bb" target="_top" xlink:title=" ">
<polygon fill="white" stroke="#666666" points="1569.5,-101.86 1465,-101.86 1465,-82.61 1569.5,-82.61 1569.5,-101.86"/>
<text text-anchor="middle" x="1517.25" y="-88.36" font-family="Helvetica,sans-Serif" font-size="10.00">ic_connect_blocking</text>
</a>
</g>
</g>
<!-- Node12&#45;&gt;Node30 -->
<g id="edge43_Node000012_Node000030" class="edge">
<title>Node12&#45;&gt;Node30</title>
<g id="a_edge43_Node000012_Node000030"><a xlink:title=" ">
<path fill="none" stroke="#63b8ff" d="M1609.48,-134.47C1587.56,-124.32 1559.03,-111.12 1539.76,-102.2"/>
<polygon fill="#63b8ff" stroke="#63b8ff" points="1607.73,-137.52 1618.27,-138.54 1610.67,-131.16 1607.73,-137.52"/>
</a>
</g>
</g>
<!-- Node14 -->
<g id="Node000014" class="node">
<title>Node14</title>
<g id="a_Node000014"><a xlink:href="../../db/dac/rpc-el_8c.html#a214c8f6acecb37da4afa49e2e8fef056" target="_top" xlink:title="Start client connection if not already in connection attempt.">
<polygon fill="white" stroke="#666666" points="859.5,-294.49 770,-294.49 770,-263.99 859.5,-263.99 859.5,-294.49"/>
<text text-anchor="start" x="778" y="-280.99" font-family="Helvetica,sans-Serif" font-size="10.00">ic_el_client_start</text>
<text text-anchor="middle" x="814.75" y="-269.74" font-family="Helvetica,sans-Serif" font-size="10.00">_connection</text>
</a>
</g>
</g>
<!-- Node13&#45;&gt;Node14 -->
<g id="edge16_Node000013_Node000014" class="edge">
<title>Node13&#45;&gt;Node14</title>
<g id="a_edge16_Node000013_Node000014"><a xlink:title=" ">
<path fill="none" stroke="#63b8ff" d="M1486.9,-183.13C1470.31,-190.92 1448.95,-199.92 1429,-205.24 1220.73,-260.77 961.46,-274.72 859.67,-278.15"/>
<polygon fill="#63b8ff" stroke="#63b8ff" points="1488.2,-186.39 1495.69,-178.89 1485.16,-180.08 1488.2,-186.39"/>
</a>
</g>
</g>
<!-- Node20 -->
<g id="Node000020" class="node">
<title>Node20</title>
<g id="a_Node000020"><a xlink:href="../../db/d0c/rpc-channel_8blk.html#a532fd47994a1a29d8a264c1e9129fc21" target="_top" xlink:title=" ">
<polygon fill="white" stroke="#666666" points="1429,-177.86 1357.5,-177.86 1357.5,-158.61 1429,-158.61 1429,-177.86"/>
<text text-anchor="middle" x="1393.25" y="-164.36" font-family="Helvetica,sans-Serif" font-size="10.00">ic_reconnect</text>
</a>
</g>
</g>
<!-- Node13&#45;&gt;Node20 -->
<g id="edge24_Node000013_Node000020" class="edge">
<title>Node13&#45;&gt;Node20</title>
<g id="a_edge24_Node000013_Node000020"><a xlink:title=" ">
<path fill="none" stroke="#63b8ff" d="M1473.86,-168.24C1459.26,-168.24 1443.1,-168.24 1429.17,-168.24"/>
<polygon fill="#63b8ff" stroke="#63b8ff" points="1473.64,-171.74 1483.64,-168.24 1473.64,-164.74 1473.64,-171.74"/>
</a>
</g>
</g>
<!-- Node15 -->
<g id="Node000015" class="node">
<title>Node15</title>
<g id="a_Node000015"><a xlink:href="../../db/dac/rpc-el_8c.html#a686d8e36b0ef838cc8b4235214194488" target="_top" xlink:title="Asynchronously connect the client with the el mutex locked.">
<polygon fill="white" stroke="#666666" points="722.38,-245.49 626.88,-245.49 626.88,-214.99 722.38,-214.99 722.38,-245.49"/>
<text text-anchor="start" x="634.88" y="-231.99" font-family="Helvetica,sans-Serif" font-size="10.00">ic_el_client_async</text>
<text text-anchor="middle" x="674.62" y="-220.74" font-family="Helvetica,sans-Serif" font-size="10.00">_connect_locked</text>
</a>
</g>
</g>
<!-- Node14&#45;&gt;Node15 -->
<g id="edge17_Node000014_Node000015" class="edge">
<title>Node14&#45;&gt;Node15</title>
<g id="a_edge17_Node000014_Node000015"><a xlink:title=" ">
<path fill="none" stroke="#63b8ff" d="M758.95,-259.8C745.94,-255.18 732.23,-250.32 719.76,-245.89"/>
<polygon fill="#63b8ff" stroke="#63b8ff" points="757.65,-263.05 768.24,-263.09 759.99,-256.45 757.65,-263.05"/>
</a>
</g>
</g>
<!-- Node17 -->
<g id="Node000017" class="node">
<title>Node17</title>
<g id="a_Node000017"><a xlink:href="../../db/dac/rpc-el_8c.html#a41ecdfe8bbde520af3ea79224147944c" target="_top" xlink:title="Synchronously connect the client and wait for connection.">
<polygon fill="white" stroke="#666666" points="726.12,-294.49 623.12,-294.49 623.12,-263.99 726.12,-263.99 726.12,-294.49"/>
<text text-anchor="start" x="631.12" y="-280.99" font-family="Helvetica,sans-Serif" font-size="10.00">ic_el_client_ic_sync</text>
<text text-anchor="middle" x="674.62" y="-269.74" font-family="Helvetica,sans-Serif" font-size="10.00">_connect_wait</text>
</a>
</g>
</g>
<!-- Node14&#45;&gt;Node17 -->
<g id="edge20_Node000014_Node000017" class="edge">
<title>Node14&#45;&gt;Node17</title>
<g id="a_edge20_Node000014_Node000017"><a xlink:title=" ">
<path fill="none" stroke="#63b8ff" d="M758.45,-279.24C747.9,-279.24 736.91,-279.24 726.5,-279.24"/>
<polygon fill="#63b8ff" stroke="#63b8ff" points="758.15,-282.74 768.15,-279.24 758.15,-275.74 758.15,-282.74"/>
</a>
</g>
</g>
<!-- Node15&#45;&gt;Node8 -->
<g id="edge18_Node000015_Node000008" class="edge">
<title>Node15&#45;&gt;Node8</title>
<g id="a_edge18_Node000015_Node000008"><a xlink:title=" ">
<path fill="none" stroke="#63b8ff" d="M615.4,-213.02C603.54,-210.2 591.07,-207.72 579.25,-206.24 521.92,-199.06 506.46,-198.12 449.25,-206.24 307.79,-226.3 145.86,-285.33 84.36,-309.12"/>
<polygon fill="#63b8ff" stroke="#63b8ff" points="614.52,-216.41 625.07,-215.44 616.22,-209.62 614.52,-216.41"/>
</a>
</g>
</g>
<!-- Node16 -->
<g id="Node000016" class="node">
<title>Node16</title>
<g id="a_Node000016"><a xlink:href="../../db/dac/rpc-el_8c.html#a92167a92086d474f807a9d76b3bf3679" target="_top" xlink:title="Aynchronously connect the IC EL client.">
<polygon fill="white" stroke="#666666" points="562,-245.49 466.5,-245.49 466.5,-214.99 562,-214.99 562,-245.49"/>
<text text-anchor="start" x="474.5" y="-231.99" font-family="Helvetica,sans-Serif" font-size="10.00">ic_el_client_async</text>
<text text-anchor="middle" x="514.25" y="-220.74" font-family="Helvetica,sans-Serif" font-size="10.00">_connect</text>
</a>
</g>
</g>
<!-- Node15&#45;&gt;Node16 -->
<g id="edge19_Node000015_Node000016" class="edge">
<title>Node15&#45;&gt;Node16</title>
<g id="a_edge19_Node000015_Node000016"><a xlink:title=" ">
<path fill="none" stroke="#63b8ff" d="M615.34,-230.24C597.92,-230.24 579.04,-230.24 562.43,-230.24"/>
<polygon fill="#63b8ff" stroke="#63b8ff" points="615.02,-233.74 625.02,-230.24 615.02,-226.74 615.02,-233.74"/>
</a>
</g>
</g>
<!-- Node18 -->
<g id="Node000018" class="node">
<title>Node18</title>
<g id="a_Node000018"><a xlink:href="../../db/dac/rpc-el_8c.html#a3ad0d6233d7acb631c464674f93f6cfa" target="_top" xlink:title="Synchronously connect the client with the el mutex locked.">
<polygon fill="white" stroke="#666666" points="579.25,-294.49 449.25,-294.49 449.25,-263.99 579.25,-263.99 579.25,-294.49"/>
<text text-anchor="start" x="457.25" y="-280.99" font-family="Helvetica,sans-Serif" font-size="10.00">ic_el_client_sync_connect</text>
<text text-anchor="middle" x="514.25" y="-269.74" font-family="Helvetica,sans-Serif" font-size="10.00">_locked</text>
</a>
</g>
</g>
<!-- Node17&#45;&gt;Node18 -->
<g id="edge21_Node000017_Node000018" class="edge">
<title>Node17&#45;&gt;Node18</title>
<g id="a_edge21_Node000017_Node000018"><a xlink:title=" ">
<path fill="none" stroke="#63b8ff" d="M611.45,-279.24C600.95,-279.24 590.03,-279.24 579.48,-279.24"/>
<polygon fill="#63b8ff" stroke="#63b8ff" points="611.13,-282.74 621.13,-279.24 611.13,-275.74 611.13,-282.74"/>
</a>
</g>
</g>
<!-- Node18&#45;&gt;Node10 -->
<g id="edge22_Node000018_Node000010" class="edge">
<title>Node18&#45;&gt;Node10</title>
<g id="a_edge22_Node000018_Node000010"><a xlink:title=" ">
<path fill="none" stroke="#63b8ff" d="M437.78,-297.64C421.59,-301.59 405.06,-305.62 390.74,-309.12"/>
<polygon fill="#63b8ff" stroke="#63b8ff" points="438.55,-301.06 447.43,-295.29 436.89,-294.26 438.55,-301.06"/>
</a>
</g>
</g>
<!-- Node19 -->
<g id="Node000019" class="node">
<title>Node19</title>
<g id="a_Node000019"><a xlink:href="../../db/dac/rpc-el_8c.html#a09e1f75cc8dc9524e55a885d25b7f03d" target="_top" xlink:title="Synchronously connect the IC EL client.">
<polygon fill="white" stroke="#666666" points="413.25,-288.86 283.25,-288.86 283.25,-269.61 413.25,-269.61 413.25,-288.86"/>
<text text-anchor="middle" x="348.25" y="-275.36" font-family="Helvetica,sans-Serif" font-size="10.00">ic_el_client_sync_connect</text>
</a>
</g>
</g>
<!-- Node18&#45;&gt;Node19 -->
<g id="edge23_Node000018_Node000019" class="edge">
<title>Node18&#45;&gt;Node19</title>
<g id="a_edge23_Node000018_Node000019"><a xlink:title=" ">
<path fill="none" stroke="#63b8ff" d="M437.66,-279.24C429.65,-279.24 421.55,-279.24 413.68,-279.24"/>
<polygon fill="#63b8ff" stroke="#63b8ff" points="437.39,-282.74 447.39,-279.24 437.39,-275.74 437.39,-282.74"/>
</a>
</g>
</g>
<!-- Node20&#45;&gt;Node20 -->
<g id="edge42_Node000020_Node000020" class="edge">
<title>Node20&#45;&gt;Node20</title>
<g id="a_edge42_Node000020_Node000020"><a xlink:title=" ">
<path fill="none" stroke="#63b8ff" d="M1415.26,-189.26C1412.51,-193.14 1405.17,-195.86 1393.25,-195.86 1371.45,-195.86 1364.98,-186.76 1373.84,-178.15"/>
<polygon fill="#63b8ff" stroke="#63b8ff" points="1418.69,-188.56 1413.01,-179.62 1411.87,-190.16 1418.69,-188.56"/>
</a>
</g>
</g>
<!-- Node21 -->
<g id="Node000021" class="node">
<title>Node21</title>
<g id="a_Node000021"><a xlink:href="../../db/d0c/rpc-channel_8blk.html#a5c38a7bea394c5d2b631aa4d8a928d1f" target="_top" xlink:title=" ">
<polygon fill="white" stroke="#666666" points="1321.5,-177.86 1208,-177.86 1208,-158.61 1321.5,-158.61 1321.5,-177.86"/>
<text text-anchor="middle" x="1264.75" y="-164.36" font-family="Helvetica,sans-Serif" font-size="10.00">ic_mark_disconnected</text>
</a>
</g>
</g>
<!-- Node20&#45;&gt;Node21 -->
<g id="edge25_Node000020_Node000021" class="edge">
<title>Node20&#45;&gt;Node21</title>
<g id="a_edge25_Node000020_Node000021"><a xlink:title=" ">
<path fill="none" stroke="#63b8ff" d="M1345.55,-168.24C1337.77,-168.24 1329.64,-168.24 1321.66,-168.24"/>
<polygon fill="#63b8ff" stroke="#63b8ff" points="1345.5,-171.74 1355.5,-168.24 1345.5,-164.74 1345.5,-171.74"/>
</a>
</g>
</g>
<!-- Node21&#45;&gt;Node2 -->
<g id="edge27_Node000021_Node000002" class="edge">
<title>Node21&#45;&gt;Node2</title>
<g id="a_edge27_Node000021_Node000002"><a xlink:title=" ">
<path fill="none" stroke="#63b8ff" d="M1248.82,-186.81C1219.94,-222.74 1157.31,-300.68 1135.12,-328.29"/>
<polygon fill="#63b8ff" stroke="#63b8ff" points="1251.53,-189.03 1255.06,-179.04 1246.07,-184.65 1251.53,-189.03"/>
</a>
</g>
</g>
<!-- Node21&#45;&gt;Node11 -->
<g id="edge30_Node000021_Node000011" class="edge">
<title>Node21&#45;&gt;Node11</title>
<g id="a_edge30_Node000021_Node000011"><a xlink:title=" ">
<path fill="none" stroke="#63b8ff" d="M1294.61,-183.21C1312.26,-191.51 1335.58,-200.98 1357.5,-205.24 1489.87,-230.92 1652.55,-204.71 1714.76,-192.63"/>
<polygon fill="#63b8ff" stroke="#63b8ff" points="1296.31,-180.14 1285.79,-178.91 1293.25,-186.44 1296.31,-180.14"/>
</a>
</g>
</g>
<!-- Node21&#45;&gt;Node12 -->
<g id="edge26_Node000021_Node000012" class="edge">
<title>Node21&#45;&gt;Node12</title>
<g id="a_edge26_Node000021_Node000012"><a xlink:title=" ">
<path fill="none" stroke="#63b8ff" d="M1316.91,-155.72C1330.05,-153.03 1344.23,-150.6 1357.5,-149.24 1446.24,-140.14 1551.4,-143.91 1605.41,-146.9"/>
<polygon fill="#63b8ff" stroke="#63b8ff" points="1316.2,-152.29 1307.15,-157.8 1317.66,-159.14 1316.2,-152.29"/>
</a>
</g>
</g>
<!-- Node22 -->
<g id="Node000022" class="node">
<title>Node22</title>
<g id="a_Node000022"><a xlink:href="../../db/d0c/rpc-channel_8blk.html#a87345140c3ae43f61da780ce43cd9d44" target="_top" xlink:title=" ">
<polygon fill="white" stroke="#666666" points="852.75,-215.86 776.75,-215.86 776.75,-196.61 852.75,-196.61 852.75,-215.86"/>
<text text-anchor="middle" x="814.75" y="-202.36" font-family="Helvetica,sans-Serif" font-size="10.00">ic_connecting</text>
</a>
</g>
</g>
<!-- Node21&#45;&gt;Node22 -->
<g id="edge28_Node000021_Node000022" class="edge">
<title>Node21&#45;&gt;Node22</title>
<g id="a_edge28_Node000021_Node000022"><a xlink:title=" ">
<path fill="none" stroke="#63b8ff" d="M1196.44,-179.17C1188.22,-180.31 1179.93,-181.37 1172,-182.24 1056,-194.97 917.96,-201.95 853.02,-204.76"/>
<polygon fill="#63b8ff" stroke="#63b8ff" points="1196.66,-182.67 1206.06,-177.79 1195.67,-175.74 1196.66,-182.67"/>
</a>
</g>
</g>
<!-- Node23 -->
<g id="Node000023" class="node">
<title>Node23</title>
<g id="a_Node000023"><a xlink:href="../../db/d0c/rpc-channel_8blk.html#a103c1f47d37a3645d936a0a7a7468561" target="_top" xlink:title=" ">
<polygon fill="white" stroke="#666666" points="843.38,-101.86 786.12,-101.86 786.12,-82.61 843.38,-82.61 843.38,-101.86"/>
<text text-anchor="middle" x="814.75" y="-88.36" font-family="Helvetica,sans-Serif" font-size="10.00">ic_spawn</text>
</a>
</g>
</g>
<!-- Node21&#45;&gt;Node23 -->
<g id="edge31_Node000021_Node000023" class="edge">
<title>Node21&#45;&gt;Node23</title>
<g id="a_edge31_Node000021_Node000023"><a xlink:title=" ">
<path fill="none" stroke="#63b8ff" d="M1196.33,-161.8C1161.57,-158.16 1118.54,-153.15 1080.25,-147.24 997.57,-134.47 977.26,-128.93 895.5,-111.24 878.25,-107.5 859,-102.93 843.74,-99.2"/>
<polygon fill="#63b8ff" stroke="#63b8ff" points="1195.97,-165.28 1206.28,-162.83 1196.69,-158.32 1195.97,-165.28"/>
</a>
</g>
</g>
<!-- Node28 -->
<g id="Node000028" class="node">
<title>Node28</title>
<g id="a_Node000028"><a xlink:href="../../db/d0c/rpc-channel_8blk.html#ac47b14c27995455cf09a680d434a7c6f" target="_top" xlink:title=" ">
<polygon fill="white" stroke="#666666" points="1172,-101.86 1080.25,-101.86 1080.25,-82.61 1172,-82.61 1172,-101.86"/>
<text text-anchor="middle" x="1126.12" y="-88.36" font-family="Helvetica,sans-Serif" font-size="10.00">ic_tls_handshake</text>
</a>
</g>
</g>
<!-- Node21&#45;&gt;Node28 -->
<g id="edge36_Node000021_Node000028" class="edge">
<title>Node21&#45;&gt;Node28</title>
<g id="a_edge36_Node000021_Node000028"><a xlink:title=" ">
<path fill="none" stroke="#63b8ff" d="M1236.32,-152.46C1218.13,-142.05 1193.72,-128.2 1172,-116.24 1163.49,-111.55 1154,-106.46 1145.96,-102.18"/>
<polygon fill="#63b8ff" stroke="#63b8ff" points="1234.5,-155.45 1244.92,-157.39 1237.98,-149.38 1234.5,-155.45"/>
</a>
</g>
</g>
<!-- Node29 -->
<g id="Node000029" class="node">
<title>Node29</title>
<g id="a_Node000029"><a xlink:href="../../db/d0c/rpc-channel_8blk.html#acdf03700d6914be61467f1f9dc8ddbbd" target="_top" xlink:title=" ">
<polygon fill="white" stroke="#666666" points="1026.25,-101.86 913.5,-101.86 913.5,-82.61 1026.25,-82.61 1026.25,-101.86"/>
<text text-anchor="middle" x="969.88" y="-88.36" font-family="Helvetica,sans-Serif" font-size="10.00">ic_version_handshake</text>
</a>
</g>
</g>
<!-- Node21&#45;&gt;Node29 -->
<g id="edge41_Node000021_Node000029" class="edge">
<title>Node21&#45;&gt;Node29</title>
<g id="a_edge41_Node000021_Node000029"><a xlink:title=" ">
<path fill="none" stroke="#63b8ff" d="M1213.8,-155.27C1155.97,-140.27 1061.96,-115.87 1009.46,-102.25"/>
<polygon fill="#63b8ff" stroke="#63b8ff" points="1212.83,-158.64 1223.39,-157.76 1214.59,-151.86 1212.83,-158.64"/>
</a>
</g>
</g>
<!-- Node22&#45;&gt;Node12 -->
<g id="edge29_Node000022_Node000012" class="edge">
<title>Node22&#45;&gt;Node12</title>
<g id="a_edge29_Node000022_Node000012"><a xlink:title=" ">
<path fill="none" stroke="#63b8ff" d="M864.35,-211.18C874.63,-212.04 885.41,-212.79 895.5,-213.24 1132.41,-223.61 1192.51,-222.79 1429,-205.24 1491.78,-200.58 1509.49,-206.25 1569.5,-187.24 1590.36,-180.63 1612.31,-168.09 1626.38,-159.23"/>
<polygon fill="#63b8ff" stroke="#63b8ff" points="864.81,-207.71 854.54,-210.32 864.19,-214.68 864.81,-207.71"/>
</a>
</g>
</g>
<!-- Node24 -->
<g id="Node000024" class="node">
<title>Node24</title>
<g id="a_Node000024"><a xlink:href="../../db/dac/rpc-el_8c.html#a7fe4f5c20a898647ced2b915ad318b5b" target="_top" xlink:title=" ">
<polygon fill="white" stroke="#666666" points="734,-101.86 615.25,-101.86 615.25,-82.61 734,-82.61 734,-101.86"/>
<text text-anchor="middle" x="674.62" y="-88.36" font-family="Helvetica,sans-Serif" font-size="10.00">ic_el_server_on_accept</text>
</a>
</g>
</g>
<!-- Node23&#45;&gt;Node24 -->
<g id="edge32_Node000023_Node000024" class="edge">
<title>Node23&#45;&gt;Node24</title>
<g id="a_edge32_Node000023_Node000024"><a xlink:title=" ">
<path fill="none" stroke="#63b8ff" d="M774.4,-92.24C761.93,-92.24 747.87,-92.24 734.34,-92.24"/>
<polygon fill="#63b8ff" stroke="#63b8ff" points="774.28,-95.74 784.28,-92.24 774.28,-88.74 774.28,-95.74"/>
</a>
</g>
</g>
<!-- Node25 -->
<g id="Node000025" class="node">
<title>Node25</title>
<g id="a_Node000025"><a xlink:href="../../db/dac/rpc-el_8c.html#a8e8fb844ec631a1b47b560e08a11f2ad" target="_top" xlink:title="Make the IC EL server listening with the mutex locked.">
<polygon fill="white" stroke="#666666" points="562.75,-107.49 465.75,-107.49 465.75,-76.99 562.75,-76.99 562.75,-107.49"/>
<text text-anchor="start" x="473.75" y="-93.99" font-family="Helvetica,sans-Serif" font-size="10.00">ic_el_server_listen</text>
<text text-anchor="middle" x="514.25" y="-82.74" font-family="Helvetica,sans-Serif" font-size="10.00">_internal</text>
</a>
</g>
</g>
<!-- Node24&#45;&gt;Node25 -->
<g id="edge33_Node000024_Node000025" class="edge">
<title>Node24&#45;&gt;Node25</title>
<g id="a_edge33_Node000024_Node000025"><a xlink:title=" ">
<path fill="none" stroke="#63b8ff" d="M603.72,-92.24C590.03,-92.24 575.95,-92.24 563.18,-92.24"/>
<polygon fill="#63b8ff" stroke="#63b8ff" points="603.59,-95.74 613.59,-92.24 603.59,-88.74 603.59,-95.74"/>
</a>
</g>
</g>
<!-- Node26 -->
<g id="Node000026" class="node">
<title>Node26</title>
<g id="a_Node000026"><a xlink:href="../../db/dac/rpc-el_8c.html#a6b734e9aea95c3678e493969c78ddabf" target="_top" xlink:title="Make the IC EL server start listening.">
<polygon fill="white" stroke="#666666" points="396.75,-123.86 299.75,-123.86 299.75,-104.61 396.75,-104.61 396.75,-123.86"/>
<text text-anchor="middle" x="348.25" y="-110.36" font-family="Helvetica,sans-Serif" font-size="10.00">ic_el_server_listen</text>
</a>
</g>
</g>
<!-- Node25&#45;&gt;Node26 -->
<g id="edge34_Node000025_Node000026" class="edge">
<title>Node25&#45;&gt;Node26</title>
<g id="a_edge34_Node000025_Node000026"><a xlink:title=" ">
<path fill="none" stroke="#63b8ff" d="M454.01,-100.18C435.34,-102.69 414.96,-105.42 397.19,-107.81"/>
<polygon fill="#63b8ff" stroke="#63b8ff" points="454.43,-103.66 463.87,-98.86 453.5,-96.72 454.43,-103.66"/>
</a>
</g>
</g>
<!-- Node27 -->
<g id="Node000027" class="node">
<title>Node27</title>
<g id="a_Node000027"><a xlink:href="../../db/dac/rpc-el_8c.html#ac07f125f7ff190c68cd106bd3b3cb5e1" target="_top" xlink:title="Make the IC EL server start listening until timeout elapsed or the server has been stopped.">
<polygon fill="white" stroke="#666666" points="396.75,-86.49 299.75,-86.49 299.75,-55.99 396.75,-55.99 396.75,-86.49"/>
<text text-anchor="start" x="307.75" y="-72.99" font-family="Helvetica,sans-Serif" font-size="10.00">ic_el_server_listen</text>
<text text-anchor="middle" x="348.25" y="-61.74" font-family="Helvetica,sans-Serif" font-size="10.00">_block</text>
</a>
</g>
</g>
<!-- Node25&#45;&gt;Node27 -->
<g id="edge35_Node000025_Node000027" class="edge">
<title>Node25&#45;&gt;Node27</title>
<g id="a_edge35_Node000025_Node000027"><a xlink:title=" ">
<path fill="none" stroke="#63b8ff" d="M454.01,-84.65C435.34,-82.26 414.96,-79.65 397.19,-77.37"/>
<polygon fill="#63b8ff" stroke="#63b8ff" points="453.51,-88.12 463.87,-85.91 454.4,-81.17 453.51,-88.12"/>
</a>
</g>
</g>
<!-- Node28&#45;&gt;Node29 -->
<g id="edge37_Node000028_Node000029" class="edge">
<title>Node28&#45;&gt;Node29</title>
<g id="a_edge37_Node000028_Node000029"><a xlink:title=" ">
<path fill="none" stroke="#63b8ff" d="M1068.81,-92.24C1055.07,-92.24 1040.37,-92.24 1026.65,-92.24"/>
<polygon fill="#63b8ff" stroke="#63b8ff" points="1068.58,-95.74 1078.58,-92.24 1068.58,-88.74 1068.58,-95.74"/>
</a>
</g>
</g>
<!-- Node29&#45;&gt;Node12 -->
<g id="edge38_Node000029_Node000012" class="edge">
<title>Node29&#45;&gt;Node12</title>
<g id="a_edge38_Node000029_Node000012"><a xlink:title=" ">
<path fill="none" stroke="#63b8ff" d="M1029.78,-80.05C1088.71,-68.94 1182.1,-54.24 1263.75,-54.24 1394.25,-54.24 1394.25,-54.24 1394.25,-54.24 1472.6,-54.24 1499.32,-38.41 1569.5,-73.24 1585.28,-81.07 1618.42,-120.67 1633.55,-139.4"/>
<polygon fill="#63b8ff" stroke="#63b8ff" points="1029.47,-76.55 1020.31,-81.87 1030.79,-83.42 1029.47,-76.55"/>
</a>
</g>
</g>
<!-- Node29&#45;&gt;Node22 -->
<g id="edge39_Node000029_Node000022" class="edge">
<title>Node29&#45;&gt;Node22</title>
<g id="a_edge39_Node000029_Node000022"><a xlink:title=" ">
<path fill="none" stroke="#63b8ff" d="M946.13,-109.17C913.72,-133.3 855.29,-176.8 829.09,-196.31"/>
<polygon fill="#63b8ff" stroke="#63b8ff" points="948.14,-112.04 954.07,-103.26 943.96,-106.42 948.14,-112.04"/>
</a>
</g>
</g>
<!-- Node29&#45;&gt;Node23 -->
<g id="edge40_Node000029_Node000023" class="edge">
<title>Node29&#45;&gt;Node23</title>
<g id="a_edge40_Node000029_Node000023"><a xlink:title=" ">
<path fill="none" stroke="#63b8ff" d="M901.93,-92.24C881.46,-92.24 860.07,-92.24 843.72,-92.24"/>
<polygon fill="#63b8ff" stroke="#63b8ff" points="901.65,-95.74 911.65,-92.24 901.65,-88.74 901.65,-95.74"/>
</a>
</g>
</g>
<!-- Node31&#45;&gt;Node28 -->
<g id="edge47_Node000031_Node000028" class="edge">
<title>Node31&#45;&gt;Node28</title>
<g id="a_edge47_Node000031_Node000028"><a xlink:title=" ">
<path fill="none" stroke="#63b8ff" d="M1235.89,-31.73C1208.66,-46.88 1168.03,-69.48 1144.91,-82.34"/>
<polygon fill="#63b8ff" stroke="#63b8ff" points="1237.25,-34.98 1244.28,-27.06 1233.84,-28.87 1237.25,-34.98"/>
</a>
</g>
</g>
<!-- Node31&#45;&gt;Node29 -->
<g id="edge48_Node000031_Node000029" class="edge">
<title>Node31&#45;&gt;Node29</title>
<g id="a_edge48_Node000031_Node000029"><a xlink:title=" ">
<path fill="none" stroke="#63b8ff" d="M1202.83,-19.4C1166.64,-22.46 1120.15,-28.46 1080.25,-40.24 1045.77,-50.41 1008.55,-70.19 987.64,-82.21"/>
<polygon fill="#63b8ff" stroke="#63b8ff" points="1203,-22.9 1212.69,-18.63 1202.45,-15.92 1203,-22.9"/>
</a>
</g>
</g>
<!-- Node32 -->
<g id="Node000032" class="node">
<title>Node32</title>
<g id="a_Node000032"><a xlink:href="../../db/d0c/rpc-channel_8blk.html#adbad4d290e7d5c74507e6862f700b720" target="_top" xlink:title=" ">
<polygon fill="white" stroke="#666666" points="1044.25,-26.86 895.5,-26.86 895.5,-7.61 1044.25,-7.61 1044.25,-26.86"/>
<text text-anchor="middle" x="969.88" y="-13.36" font-family="Helvetica,sans-Serif" font-size="10.00">ic_bypass_version_handshake</text>
</a>
</g>
</g>
<!-- Node31&#45;&gt;Node32 -->
<g id="edge45_Node000031_Node000032" class="edge">
<title>Node31&#45;&gt;Node32</title>
<g id="a_edge45_Node000031_Node000032"><a xlink:title=" ">
<path fill="none" stroke="#63b8ff" d="M1202.58,-5.59C1192.4,-4.19 1181.92,-2.99 1172,-2.24 1131.34,0.85 1120.93,0.54 1080.25,-2.24 1065.14,-3.27 1048.94,-5.09 1033.77,-7.12"/>
<polygon fill="#63b8ff" stroke="#63b8ff" points="1202.01,-9.04 1212.41,-7.01 1203.02,-2.11 1202.01,-9.04"/>
</a>
</g>
</g>
<!-- Node32&#45;&gt;Node23 -->
<g id="edge46_Node000032_Node000023" class="edge">
<title>Node32&#45;&gt;Node23</title>
<g id="a_edge46_Node000032_Node000023"><a xlink:title=" ">
<path fill="none" stroke="#63b8ff" d="M938.18,-32.27C907.81,-47.15 862.2,-69.48 836.07,-82.28"/>
<polygon fill="#63b8ff" stroke="#63b8ff" points="939.42,-35.56 946.86,-28.02 936.34,-29.27 939.42,-35.56"/>
</a>
</g>
</g>
<!-- Node33&#45;&gt;Node11 -->
<g id="edge50_Node000033_Node000011" class="edge">
<title>Node33&#45;&gt;Node11</title>
<g id="a_edge50_Node000033_Node000011"><a xlink:title=" ">
<path fill="none" stroke="#63b8ff" d="M1794.36,-210.6C1784.5,-206.15 1773.9,-201.36 1764.87,-197.29"/>
<polygon fill="#63b8ff" stroke="#63b8ff" points="1792.71,-213.7 1803.27,-214.63 1795.6,-207.32 1792.71,-213.7"/>
</a>
</g>
</g>
</g>
</svg>
