<?xml version="1.0" encoding="UTF-8" standalone="no"?>
<!DOCTYPE svg PUBLIC "-//W3C//DTD SVG 1.1//EN"
 "http://www.w3.org/Graphics/SVG/1.1/DTD/svg11.dtd">
<!-- Generated by graphviz version 9.0.0 (20230911.1827)
 -->
<!-- Title: ic_listento Pages: 1 -->
<!--zoomable 176 -->

<svg id="main" version="1.1" xmlns="http://www.w3.org/2000/svg" xmlns:xlink="http://www.w3.org/1999/xlink" xml:space="preserve" onload="init(evt)">
<style type="text/css"><![CDATA[
.node, .edge {opacity: 0.7;}
.node.selected, .edge.selected {opacity: 1;}
.edge:hover path { stroke: red; }
.edge:hover polygon { stroke: red; fill: red; }
]]></style>

<defs>
  <circle id="rim" cx="0" cy="0" r="7"/>
  <circle id="rim2" cx="0" cy="0" r="3.5"/>
  <g id="zoomPlus">
    <use xlink:href="#rim" fill="#404040"><set attributeName="fill" to="#808080" begin="zoomplus.mouseover" end="zoomplus.mouseout"/></use>
    <path d="M-4,0h8M0,-4v8" fill="none" stroke="white" stroke-width="1.5" pointer-events="none"/>
  </g>
  <g id="zoomMin">
    <use xlink:href="#rim" fill="#404040"><set attributeName="fill" to="#808080" begin="zoomminus.mouseover" end="zoomminus.mouseout"/></use>
    <path d="M-4,0h8" fill="none" stroke="white" stroke-width="1.5" pointer-events="none"/>
  </g>
  <g id="arrowUp" transform="translate(30 24)">
    <use xlink:href="#rim"/>
    <path pointer-events="none" fill="none" stroke="white" stroke-width="1.5" d="M0,-3.0v7 M-2.5,-0.5L0,-3.0L2.5,-0.5"/>
  </g>
  <g id="arrowRight" transform="rotate(90) translate(36 -43)">
    <use xlink:href="#rim"/>
    <path pointer-events="none" fill="none" stroke="white" stroke-width="1.5" d="M0,-3.0v7 M-2.5,-0.5L0,-3.0L2.5,-0.5"/>
  </g>
  <g id="arrowDown" transform="rotate(180) translate(-30 -48)">
    <use xlink:href="#rim"/>
    <path pointer-events="none" fill="none" stroke="white" stroke-width="1.5" d="M0,-3.0v7 M-2.5,-0.5L0,-3.0L2.5,-0.5"/>
  </g>
  <g id="arrowLeft" transform="rotate(270) translate(-36 17)">
    <use xlink:href="#rim"/>
    <path pointer-events="none" fill="none" stroke="white" stroke-width="1.5" d="M0,-3.0v7 M-2.5,-0.5L0,-3.0L2.5,-0.5"/>
  </g>
  <g id="resetDef">
    <use xlink:href="#rim2" fill="#404040"><set attributeName="fill" to="#808080" begin="reset.mouseover" end="reset.mouseout"/></use>
  </g>
</defs>
<script type="application/ecmascript">
var viewWidth = 630;
var viewHeight = 176;
var sectionId = 'dynsection-71';
</script>
<script type="application/ecmascript" xlink:href="../../svg.min.js"/>
<svg id="graph" class="graph">
<g id="viewport">
<title>ic_listento</title>
<!-- Node1 -->
<g id="Node000001" class="node">
<title>Node1</title>
<g id="a_Node000001"><a xlink:title=" ">
<polygon fill="#999999" stroke="#666666" points="60.25,-112.25 0,-112.25 0,-93 60.25,-93 60.25,-112.25"/>
<text text-anchor="middle" x="30.12" y="-98.75" font-family="Helvetica,sans-Serif" font-size="10.00">ic_listento</text>
</a>
</g>
</g>
<!-- Node2 -->
<g id="Node000002" class="node">
<title>Node2</title>
<g id="a_Node000002"><a xlink:href="../../da/d9c/group__lc__el.html#ga4cf906039ea801bceabc776703adfa45" target="_top" xlink:title=" ">
<polygon fill="white" stroke="#666666" points="170.75,-168.25 96.25,-168.25 96.25,-149 170.75,-149 170.75,-168.25"/>
<text text-anchor="middle" x="133.5" y="-154.75" font-family="Helvetica,sans-Serif" font-size="10.00">el_fd_register</text>
</a>
</g>
</g>
<!-- Node1&#45;&gt;Node2 -->
<g id="edge1_Node000001_Node000002" class="edge">
<title>Node1&#45;&gt;Node2</title>
<g id="a_edge1_Node000001_Node000002"><a xlink:title=" ">
<path fill="none" stroke="#63b8ff" d="M47.55,-112.62C60.61,-120.47 79.43,-131.55 96.25,-140.62 97.95,-141.54 99.7,-142.47 101.48,-143.4"/>
<polygon fill="#63b8ff" stroke="#63b8ff" points="99.82,-146.48 110.32,-147.9 103,-140.24 99.82,-146.48"/>
</a>
</g>
</g>
<!-- Node4 -->
<g id="Node000004" class="node">
<title>Node4</title>
<g id="a_Node000004"><a xlink:href="../../da/d9c/group__lc__el.html#ga41c7f8deedc1eb73f14c2500fecc3322" target="_top" xlink:title=" ">
<polygon fill="white" stroke="#666666" points="158.75,-131.25 108.25,-131.25 108.25,-112 158.75,-112 158.75,-131.25"/>
<text text-anchor="middle" x="133.5" y="-117.75" font-family="Helvetica,sans-Serif" font-size="10.00">el_unref</text>
</a>
</g>
</g>
<!-- Node1&#45;&gt;Node4 -->
<g id="edge3_Node000001_Node000004" class="edge">
<title>Node1&#45;&gt;Node4</title>
<g id="a_edge3_Node000001_Node000004"><a xlink:title=" ">
<path fill="none" stroke="#63b8ff" d="M60.72,-108.17C71.94,-110.27 84.84,-112.69 96.58,-114.89"/>
<polygon fill="#63b8ff" stroke="#63b8ff" points="95.87,-118.32 106.34,-116.72 97.16,-111.44 95.87,-118.32"/>
</a>
</g>
</g>
<!-- Node6 -->
<g id="Node000006" class="node">
<title>Node6</title>
<g id="a_Node000006"><a xlink:href="../../db/d0c/rpc-channel_8blk.html#a8b4174078808b34967f5fe0a7c27f2ce" target="_top" xlink:title=" ">
<polygon fill="white" stroke="#666666" points="162.5,-94.25 104.5,-94.25 104.5,-75 162.5,-75 162.5,-94.25"/>
<text text-anchor="middle" x="133.5" y="-80.75" font-family="Helvetica,sans-Serif" font-size="10.00">ic_accept</text>
</a>
</g>
</g>
<!-- Node1&#45;&gt;Node6 -->
<g id="edge5_Node000001_Node000006" class="edge">
<title>Node1&#45;&gt;Node6</title>
<g id="a_edge5_Node000001_Node000006"><a xlink:title=" ">
<path fill="none" stroke="#63b8ff" d="M60.72,-97.37C70.76,-95.59 82.15,-93.57 92.85,-91.67"/>
<polygon fill="#63b8ff" stroke="#63b8ff" points="93.37,-95.13 102.6,-89.93 92.14,-88.24 93.37,-95.13"/>
</a>
</g>
</g>
<!-- Node11 -->
<g id="Node000011" class="node">
<title>Node11</title>
<g id="a_Node000011"><a xlink:href="../../d5/df8/socket_8c.html#a1a69cdb92fcc5b29a7e8a4d91dad6bbb" target="_top" xlink:title=" ">
<polygon fill="white" stroke="#666666" points="155.38,-57.25 111.62,-57.25 111.62,-38 155.38,-38 155.38,-57.25"/>
<text text-anchor="middle" x="133.5" y="-43.75" font-family="Helvetica,sans-Serif" font-size="10.00">listenx</text>
</a>
</g>
</g>
<!-- Node1&#45;&gt;Node11 -->
<g id="edge10_Node000001_Node000011" class="edge">
<title>Node1&#45;&gt;Node11</title>
<g id="a_edge10_Node000001_Node000011"><a xlink:title=" ">
<path fill="none" stroke="#63b8ff" d="M48.12,-92.62C61.18,-85.03 79.72,-74.42 96.25,-65.62 97.96,-64.72 99.71,-63.8 101.49,-62.88"/>
<polygon fill="#63b8ff" stroke="#63b8ff" points="103.01,-66.03 110.34,-58.39 99.84,-59.79 103.01,-66.03"/>
</a>
</g>
</g>
<!-- Node3 -->
<g id="Node000003" class="node">
<title>Node3</title>
<g id="a_Node000003"><a xlink:href="../../da/d9c/group__lc__el.html#gafef4bb4442efd7cf5324659b2323eafa" target="_top" xlink:title=" ">
<polygon fill="white" stroke="#666666" points="291.75,-168.25 206.75,-168.25 206.75,-149 291.75,-149 291.75,-168.25"/>
<text text-anchor="middle" x="249.25" y="-154.75" font-family="Helvetica,sans-Serif" font-size="10.00">el_fd_register_d</text>
</a>
</g>
</g>
<!-- Node2&#45;&gt;Node3 -->
<g id="edge2_Node000002_Node000003" class="edge">
<title>Node2&#45;&gt;Node3</title>
<g id="a_edge2_Node000002_Node000003"><a xlink:title=" ">
<path fill="none" stroke="#63b8ff" d="M171.12,-158.62C178.8,-158.62 187.05,-158.62 195.19,-158.62"/>
<polygon fill="#63b8ff" stroke="#63b8ff" points="195.05,-162.13 205.05,-158.63 195.05,-155.13 195.05,-162.13"/>
</a>
</g>
</g>
<!-- Node5 -->
<g id="Node000005" class="node">
<title>Node5</title>
<g id="a_Node000005"><a xlink:href="../../da/d9c/group__lc__el.html#ga73e7bbafc05cdf7a1efa3a7b835e159d" target="_top" xlink:title=" ">
<polygon fill="white" stroke="#666666" points="279.75,-131.25 218.75,-131.25 218.75,-112 279.75,-112 279.75,-131.25"/>
<text text-anchor="middle" x="249.25" y="-117.75" font-family="Helvetica,sans-Serif" font-size="10.00">__el_unref</text>
</a>
</g>
</g>
<!-- Node4&#45;&gt;Node5 -->
<g id="edge4_Node000004_Node000005" class="edge">
<title>Node4&#45;&gt;Node5</title>
<g id="a_edge4_Node000004_Node000005"><a xlink:title=" ">
<path fill="none" stroke="#63b8ff" d="M159.18,-121.62C173.17,-121.62 191.03,-121.62 207.08,-121.62"/>
<polygon fill="#63b8ff" stroke="#63b8ff" points="206.85,-125.13 216.85,-121.63 206.85,-118.13 206.85,-125.13"/>
</a>
</g>
</g>
<!-- Node7 -->
<g id="Node000007" class="node">
<title>Node7</title>
<g id="a_Node000007"><a xlink:href="../../d5/df8/socket_8c.html#aed7bede2ba4dcffca13450fbd9eb1b58" target="_top" xlink:title=" ">
<polygon fill="white" stroke="#666666" points="274.12,-94.25 224.38,-94.25 224.38,-75 274.12,-75 274.12,-94.25"/>
<text text-anchor="middle" x="249.25" y="-80.75" font-family="Helvetica,sans-Serif" font-size="10.00">acceptx</text>
</a>
</g>
</g>
<!-- Node6&#45;&gt;Node7 -->
<g id="edge6_Node000006_Node000007" class="edge">
<title>Node6&#45;&gt;Node7</title>
<g id="a_edge6_Node000006_Node000007"><a xlink:title=" ">
<path fill="none" stroke="#63b8ff" d="M162.91,-84.62C178.05,-84.62 196.83,-84.62 212.91,-84.62"/>
<polygon fill="#63b8ff" stroke="#63b8ff" points="212.53,-88.13 222.53,-84.63 212.53,-81.13 212.53,-88.13"/>
</a>
</g>
</g>
<!-- Node8 -->
<g id="Node000008" class="node">
<title>Node8</title>
<g id="a_Node000008"><a xlink:href="../../d5/df8/socket_8c.html#a39a36d17d08d39d888dc739989775a7b" target="_top" xlink:title=" ">
<polygon fill="white" stroke="#666666" points="420.25,-95.25 327.75,-95.25 327.75,-76 420.25,-76 420.25,-95.25"/>
<text text-anchor="middle" x="374" y="-81.75" font-family="Helvetica,sans-Serif" font-size="10.00">acceptx_get_addr</text>
</a>
</g>
</g>
<!-- Node7&#45;&gt;Node8 -->
<g id="edge7_Node000007_Node000008" class="edge">
<title>Node7&#45;&gt;Node8</title>
<g id="a_edge7_Node000007_Node000008"><a xlink:title=" ">
<path fill="none" stroke="#63b8ff" d="M274.5,-84.82C286.53,-84.92 301.6,-85.04 316.31,-85.16"/>
<polygon fill="#63b8ff" stroke="#63b8ff" points="315.89,-88.66 325.92,-85.24 315.95,-81.66 315.89,-88.66"/>
</a>
</g>
</g>
<!-- Node9 -->
<g id="Node000009" class="node">
<title>Node9</title>
<g id="a_Node000009"><a xlink:href="../../d6/dd2/unix_8blk.html#a49ce04bc27f124999ef20359ed0bb764" target="_top" xlink:title=" ">
<polygon fill="white" stroke="#666666" points="539.75,-76.25 456.25,-76.25 456.25,-57 539.75,-57 539.75,-76.25"/>
<text text-anchor="middle" x="498" y="-62.75" font-family="Helvetica,sans-Serif" font-size="10.00">fd_set_features</text>
</a>
</g>
</g>
<!-- Node8&#45;&gt;Node9 -->
<g id="edge8_Node000008_Node000009" class="edge">
<title>Node8&#45;&gt;Node9</title>
<g id="a_edge8_Node000008_Node000009"><a xlink:title=" ">
<path fill="none" stroke="#63b8ff" d="M420.43,-78.55C428.35,-77.32 436.64,-76.02 444.73,-74.77"/>
<polygon fill="#63b8ff" stroke="#63b8ff" points="445.12,-78.25 454.47,-73.25 444.05,-71.33 445.12,-78.25"/>
</a>
</g>
</g>
<!-- Node10 -->
<g id="Node000010" class="node">
<title>Node10</title>
<g id="a_Node000010"><a xlink:href="../../d7/df8/log_8c.html#ab9aebc66105141ee67ddf3882842c29e" target="_top" xlink:title=" ">
<polygon fill="white" stroke="#666666" points="621.75,-76.25 575.75,-76.25 575.75,-57 621.75,-57 621.75,-76.25"/>
<text text-anchor="middle" x="598.75" y="-62.75" font-family="Helvetica,sans-Serif" font-size="10.00">e_error</text>
</a>
</g>
</g>
<!-- Node9&#45;&gt;Node10 -->
<g id="edge9_Node000009_Node000010" class="edge">
<title>Node9&#45;&gt;Node10</title>
<g id="a_edge9_Node000009_Node000010"><a xlink:title=" ">
<path fill="none" stroke="#63b8ff" d="M540.02,-66.62C547.95,-66.62 556.17,-66.62 563.85,-66.62"/>
<polygon fill="#63b8ff" stroke="#63b8ff" points="563.81,-70.13 573.81,-66.63 563.81,-63.13 563.81,-70.13"/>
</a>
</g>
</g>
<!-- Node12 -->
<g id="Node000012" class="node">
<title>Node12</title>
<g id="a_Node000012"><a xlink:href="../../d5/df8/socket_8c.html#a1c8957eb8abbd1b39bf55c8ab8bf20cd" target="_top" xlink:title=" ">
<polygon fill="white" stroke="#666666" points="268.5,-57.25 230,-57.25 230,-38 268.5,-38 268.5,-57.25"/>
<text text-anchor="middle" x="249.25" y="-43.75" font-family="Helvetica,sans-Serif" font-size="10.00">bindx</text>
</a>
</g>
</g>
<!-- Node11&#45;&gt;Node12 -->
<g id="edge11_Node000011_Node000012" class="edge">
<title>Node11&#45;&gt;Node12</title>
<g id="a_edge11_Node000011_Node000012"><a xlink:title=" ">
<path fill="none" stroke="#63b8ff" d="M155.63,-47.62C173.29,-47.62 198.69,-47.62 218.43,-47.62"/>
<polygon fill="#63b8ff" stroke="#63b8ff" points="218.35,-51.13 228.35,-47.63 218.35,-44.13 218.35,-51.13"/>
</a>
</g>
</g>
<!-- Node12&#45;&gt;Node9 -->
<g id="edge12_Node000012_Node000009" class="edge">
<title>Node12&#45;&gt;Node9</title>
<g id="a_edge12_Node000012_Node000009"><a xlink:title=" ">
<path fill="none" stroke="#63b8ff" d="M268.8,-49.05C305.73,-51.9 389.67,-58.36 444.79,-62.61"/>
<polygon fill="#63b8ff" stroke="#63b8ff" points="444.34,-66.08 454.58,-63.36 444.88,-59.1 444.34,-66.08"/>
</a>
</g>
</g>
<!-- Node13 -->
<g id="Node000013" class="node">
<title>Node13</title>
<g id="a_Node000013"><a xlink:href="../../d5/df8/socket_8c.html#a5ab6198acd2e2bc4cc52a6dce281aa68" target="_top" xlink:title=" ">
<polygon fill="white" stroke="#666666" points="416.5,-19.25 331.5,-19.25 331.5,0 416.5,0 416.5,-19.25"/>
<text text-anchor="middle" x="374" y="-5.75" font-family="Helvetica,sans-Serif" font-size="10.00">sock_reuseaddr</text>
</a>
</g>
</g>
<!-- Node12&#45;&gt;Node13 -->
<g id="edge13_Node000012_Node000013" class="edge">
<title>Node12&#45;&gt;Node13</title>
<g id="a_edge13_Node000012_Node000013"><a xlink:title=" ">
<path fill="none" stroke="#63b8ff" d="M268.89,-41.85C284.93,-36.89 308.68,-29.54 329.45,-23.11"/>
<polygon fill="#63b8ff" stroke="#63b8ff" points="330.34,-26.5 338.85,-20.2 328.27,-19.81 330.34,-26.5"/>
</a>
</g>
</g>
</g>
</svg>

<g id="navigator" transform="translate(0 0)" fill="#404254">
  <rect fill="#f2f5e9" fill-opacity="0.5" stroke="#606060" stroke-width=".5" x="0" y="0" width="60" height="60"/>
  <use id="zoomplus" xlink:href="#zoomPlus" x="17" y="9" onmousedown="handleZoom(evt,'in')"/>
  <use id="zoomminus" xlink:href="#zoomMin" x="42" y="9" onmousedown="handleZoom(evt,'out')"/>
  <use id="reset" xlink:href="#resetDef" x="30" y="36" onmousedown="handleReset()"/>
   <use id="arrowup" xlink:href="#arrowUp" x="0" y="0" onmousedown="handlePan(0,-1)"/>
  <use id="arrowright" xlink:href="#arrowRight" x="0" y="0" onmousedown="handlePan(1,0)"/>
  <use id="arrowdown" xlink:href="#arrowDown" x="0" y="0" onmousedown="handlePan(0,1)"/>
  <use id="arrowleft" xlink:href="#arrowLeft" x="0" y="0" onmousedown="handlePan(-1,0)"/>
</g>
<svg viewBox="0 0 15 15" width="100%" height="30px" preserveAspectRatio="xMaxYMin meet">
 <g id="arrow_out" transform="scale(0.3 0.3)">
  <a xlink:href="rpc-channel_8blk_a704e386d35f73b95af5ad6101b5d600f_cgraph_org.svg" target="_base">
   <rect id="button" ry="5" rx="5" y="6" x="6" height="38" width="38"
        fill="#f2f5e9" fill-opacity="0.5" stroke="#606060" stroke-width="1.0"/>
   <path id="arrow"
     d="M 11.500037,31.436501 C 11.940474,20.09759 22.043105,11.32322 32.158766,21.979434 L 37.068811,17.246167 C 37.068811,17.246167 37.088388,32 37.088388,32 L 22.160133,31.978069 C 22.160133,31.978069 26.997745,27.140456 26.997745,27.140456 C 18.528582,18.264221 13.291696,25.230495 11.500037,31.436501 z"
     style="fill:#404040;"/>
  </a>
 </g>
</svg>

<style type='text/css'>
<![CDATA[
[data-mouse-over-selected='false'] { opacity: 0.7; }
[data-mouse-over-selected='true']  { opacity: 1.0; }
]]>
</style>
<script type="application/ecmascript"><![CDATA[
document.addEventListener('DOMContentLoaded', (event) => {
  highlightEdges();
  highlightAdjacentNodes();
});
]]></script>
</svg>
