<?xml version="1.0" encoding="UTF-8" standalone="no"?>
<!DOCTYPE svg PUBLIC "-//W3C//DTD SVG 1.1//EN"
 "http://www.w3.org/Graphics/SVG/1.1/DTD/svg11.dtd">
<!-- Generated by graphviz version 9.0.0 (20230911.1827)
 -->
<!-- Title: bb_t Pages: 1 -->
<svg width="222pt" height="363pt"
 viewBox="0.00 0.00 221.75 363.25" xmlns="http://www.w3.org/2000/svg" xmlns:xlink="http://www.w3.org/1999/xlink">

<svg id="main" version="1.1" xmlns="http://www.w3.org/2000/svg" xmlns:xlink="http://www.w3.org/1999/xlink" xml:space="preserve" onload="init(evt)">
<style type="text/css"><![CDATA[
.node, .edge {opacity: 0.7;}
.node.selected, .edge.selected {opacity: 1;}
.edge:hover path { stroke: red; }
.edge:hover polygon { stroke: red; fill: red; }
]]></style>
<script type="application/ecmascript" xlink:href="../../svg.min.js"/>
<svg id="graph" class="graph">
<g id="graph0" class="graph" transform="scale(1 1) rotate(0) translate(4 359.25)">
<title>bb_t</title>
<!-- Node1 -->
<g id="Node000001" class="node">
<title>Node1</title>
<g id="a_Node000001"><a xlink:title=" ">
<polygon fill="#999999" stroke="none" points="110,-199 10,-199 10,0 110,0 110,-199"/>
<text text-anchor="start" x="50.62" y="-185.5" font-family="Helvetica,sans-Serif" font-size="10.00">bb_t</text>
<text text-anchor="start" x="14" y="-170.5" font-family="Helvetica,sans-Serif" font-size="10.00">+</text>
<text text-anchor="start" x="24" y="-170.5" font-family="Helvetica,sans-Serif" font-size="10.00">uint64_t * data</text>
<text text-anchor="start" x="14" y="-155.5" font-family="Helvetica,sans-Serif" font-size="10.00">+</text>
<text text-anchor="start" x="24" y="-155.5" font-family="Helvetica,sans-Serif" font-size="10.00">byte * bytes</text>
<text text-anchor="start" x="14" y="-140.5" font-family="Helvetica,sans-Serif" font-size="10.00">+</text>
<text text-anchor="start" x="24" y="-140.5" font-family="Helvetica,sans-Serif" font-size="10.00">union bb_t::@1 @2</text>
<text text-anchor="start" x="14" y="-125.5" font-family="Helvetica,sans-Serif" font-size="10.00">+</text>
<text text-anchor="start" x="24" y="-125.5" font-family="Helvetica,sans-Serif" font-size="10.00">unsigned offset</text>
<text text-anchor="start" x="14" y="-110.5" font-family="Helvetica,sans-Serif" font-size="10.00">+</text>
<text text-anchor="start" x="24" y="-110.5" font-family="Helvetica,sans-Serif" font-size="10.00">size_t word</text>
<text text-anchor="start" x="14" y="-95.5" font-family="Helvetica,sans-Serif" font-size="10.00">+</text>
<text text-anchor="start" x="24" y="-95.5" font-family="Helvetica,sans-Serif" font-size="10.00">unsigned boffset</text>
<text text-anchor="start" x="14" y="-80.5" font-family="Helvetica,sans-Serif" font-size="10.00">+</text>
<text text-anchor="start" x="24" y="-80.5" font-family="Helvetica,sans-Serif" font-size="10.00">size_t b</text>
<text text-anchor="start" x="14" y="-65.5" font-family="Helvetica,sans-Serif" font-size="10.00">+</text>
<text text-anchor="start" x="24" y="-65.5" font-family="Helvetica,sans-Serif" font-size="10.00">size_t len</text>
<text text-anchor="start" x="14" y="-50.5" font-family="Helvetica,sans-Serif" font-size="10.00">+</text>
<text text-anchor="start" x="24" y="-50.5" font-family="Helvetica,sans-Serif" font-size="10.00">union bb_t::@3 @4</text>
<text text-anchor="start" x="14" y="-35.5" font-family="Helvetica,sans-Serif" font-size="10.00">+</text>
<text text-anchor="start" x="24" y="-35.5" font-family="Helvetica,sans-Serif" font-size="10.00">size_t size</text>
<text text-anchor="start" x="14" y="-20.5" font-family="Helvetica,sans-Serif" font-size="10.00">+</text>
<text text-anchor="start" x="24" y="-20.5" font-family="Helvetica,sans-Serif" font-size="10.00">size_t alignment</text>
<text text-anchor="start" x="14" y="-5.5" font-family="Helvetica,sans-Serif" font-size="10.00">+</text>
<text text-anchor="start" x="24" y="-5.5" font-family="Helvetica,sans-Serif" font-size="10.00">qv_t(u64) marks</text>
<polygon fill="#666666" stroke="#666666" points="10,-182 10,-182 110,-182 110,-182 10,-182"/>
<polygon fill="#666666" stroke="#666666" points="10,-17 10,-17 22,-17 22,-17 10,-17"/>
<polygon fill="#666666" stroke="#666666" points="22,-17 22,-17 110,-17 110,-17 22,-17"/>
<polygon fill="none" stroke="#666666" points="10,0 10,-199 110,-199 110,0 10,0"/>
</a>
</g>
</g>
<!-- Node2 -->
<g id="Node000002" class="node">
<title>Node2</title>
<g id="a_Node000002"><a xlink:href="../../d4/de3/structmem__pool__t.html" target="_top" xlink:title=" ">
<polygon fill="white" stroke="none" points="120,-355.25 0,-355.25 0,-246.25 120,-246.25 120,-355.25"/>
<text text-anchor="start" x="33.38" y="-341.75" font-family="Helvetica,sans-Serif" font-size="10.00">mem_pool_t</text>
<text text-anchor="start" x="4" y="-326.75" font-family="Helvetica,sans-Serif" font-size="10.00">+</text>
<text text-anchor="start" x="14" y="-326.75" font-family="Helvetica,sans-Serif" font-size="10.00">mem_flags_t mem_pool</text>
<text text-anchor="start" x="4" y="-311.75" font-family="Helvetica,sans-Serif" font-size="10.00">+</text>
<text text-anchor="start" x="14" y="-311.75" font-family="Helvetica,sans-Serif" font-size="10.00">uint32_t min_alignment</text>
<text text-anchor="start" x="4" y="-296.75" font-family="Helvetica,sans-Serif" font-size="10.00">+</text>
<text text-anchor="start" x="14" y="-296.75" font-family="Helvetica,sans-Serif" font-size="10.00">void *(* malloc</text>
<text text-anchor="start" x="4" y="-281.75" font-family="Helvetica,sans-Serif" font-size="10.00">+</text>
<text text-anchor="start" x="14" y="-281.75" font-family="Helvetica,sans-Serif" font-size="10.00">void *(* realloc</text>
<text text-anchor="start" x="4" y="-266.75" font-family="Helvetica,sans-Serif" font-size="10.00">+</text>
<text text-anchor="start" x="14" y="-266.75" font-family="Helvetica,sans-Serif" font-size="10.00">void(* free</text>
<text text-anchor="start" x="58.5" y="-251.75" font-family="Helvetica,sans-Serif" font-size="10.00"> </text>
<polygon fill="#666666" stroke="#666666" points="0,-338.25 0,-338.25 120,-338.25 120,-338.25 0,-338.25"/>
<polygon fill="#666666" stroke="#666666" points="0,-263.25 0,-263.25 12,-263.25 12,-263.25 0,-263.25"/>
<polygon fill="#666666" stroke="#666666" points="12,-263.25 12,-263.25 120,-263.25 120,-263.25 12,-263.25"/>
<polygon fill="none" stroke="#666666" points="0,-246.25 0,-355.25 120,-355.25 120,-246.25 0,-246.25"/>
</a>
</g>
</g>
<!-- Node2&#45;&gt;Node1 -->
<g id="edge1_Node000001_Node000002" class="edge">
<title>Node2&#45;&gt;Node1</title>
<g id="a_edge1_Node000001_Node000002"><a xlink:title=" ">
<path fill="none" stroke="#63b8ff" d="M60,-246.35C60,-235.4 60,-223.5 60,-211.36"/>
<polygon fill="none" stroke="#63b8ff" points="60,-211.57 56,-205.57 60,-199.57 64,-205.57 60,-211.57"/>
</a>
</g>
<text text-anchor="middle" x="70.88" y="-218.75" font-family="Helvetica,sans-Serif" font-size="10.00" fill="grey"> +mp</text>
</g>
<!-- Node2&#45;&gt;Node2 -->
<g id="edge2_Node000002_Node000002" class="edge">
<title>Node2&#45;&gt;Node2</title>
<g id="a_edge2_Node000002_Node000002"><a xlink:title=" ">
<path fill="none" stroke="#63b8ff" d="M119.85,-314.54C130.53,-312.75 138,-308.15 138,-300.75 138,-296.7 135.77,-293.49 132,-291.12"/>
<polygon fill="none" stroke="#63b8ff" points="132.05,-291.14 125.08,-292.98 120.7,-287.25 127.67,-285.41 132.05,-291.14"/>
</a>
</g>
<text text-anchor="middle" x="175.88" y="-296.88" font-family="Helvetica,sans-Serif" font-size="10.00" fill="grey"> +realloc_fallback</text>
</g>
</g>
</svg>
</svg>

<style type='text/css'>
<![CDATA[
[data-mouse-over-selected='false'] { opacity: 0.7; }
[data-mouse-over-selected='true']  { opacity: 1.0; }
]]>
</style>
<script type="application/ecmascript"><![CDATA[
document.addEventListener('DOMContentLoaded', (event) => {
  highlightEdges();
  highlightAdjacentNodes();
});
]]></script>
</svg>
