<?xml version="1.0" encoding="UTF-8" standalone="no"?>
<!DOCTYPE svg PUBLIC "-//W3C//DTD SVG 1.1//EN"
 "http://www.w3.org/Graphics/SVG/1.1/DTD/svg11.dtd">
<!-- Generated by graphviz version 9.0.0 (20230911.1827)
 -->
<!-- Title: ifree Pages: 1 -->
<svg width="789pt" height="800pt"
 viewBox="0.00 0.00 788.75 800.25" xmlns="http://www.w3.org/2000/svg" xmlns:xlink="http://www.w3.org/1999/xlink">
<g id="graph0" class="graph" transform="scale(1 1) rotate(0) translate(4 796.25)">
<title>ifree</title>
<!-- Node1 -->
<g id="Node000001" class="node">
<title>Node1</title>
<g id="a_Node000001"><a xlink:title=" ">
<polygon fill="#999999" stroke="#666666" points="780.75,-187.25 746,-187.25 746,-168 780.75,-168 780.75,-187.25"/>
<text text-anchor="middle" x="763.38" y="-173.75" font-family="Helvetica,sans-Serif" font-size="10.00">ifree</text>
</a>
</g>
</g>
<!-- Node2 -->
<g id="Node000002" class="node">
<title>Node2</title>
<g id="a_Node000002"><a xlink:href="../../da/d36/mem-stack_8c.html#a5bf5d042159ae9833f0a5d55142331c2" target="_top" xlink:title=" ">
<polygon fill="white" stroke="#666666" points="692.38,-674.25 626.88,-674.25 626.88,-655 692.38,-655 692.38,-674.25"/>
<text text-anchor="middle" x="659.62" y="-660.75" font-family="Helvetica,sans-Serif" font-size="10.00">blk_destroy</text>
</a>
</g>
</g>
<!-- Node1&#45;&gt;Node2 -->
<g id="edge1_Node000001_Node000002" class="edge">
<title>Node1&#45;&gt;Node2</title>
<g id="a_edge1_Node000001_Node000002"><a xlink:title=" ">
<path fill="none" stroke="#63b8ff" d="M758.76,-198.91C750.73,-245.79 730.45,-361.46 710,-457.62 693.78,-533.88 670.76,-625.05 663.16,-654.75"/>
<polygon fill="#63b8ff" stroke="#63b8ff" points="762.21,-199.52 760.44,-189.07 755.31,-198.34 762.21,-199.52"/>
</a>
</g>
</g>
<!-- Node99 -->
<g id="Node000099" class="node">
<title>Node99</title>
<g id="a_Node000099"><a xlink:href="../../de/ddd/mem-ring_8c.html#a57840e34c87ae424e4c42fef88341cb0" target="_top" xlink:title=" ">
<polygon fill="white" stroke="#666666" points="692.38,-448.25 626.88,-448.25 626.88,-429 692.38,-429 692.38,-448.25"/>
<text text-anchor="middle" x="659.62" y="-434.75" font-family="Helvetica,sans-Serif" font-size="10.00">blk_destroy</text>
</a>
</g>
</g>
<!-- Node1&#45;&gt;Node99 -->
<g id="edge14_Node000001_Node000099" class="edge">
<title>Node1&#45;&gt;Node99</title>
<g id="a_edge14_Node000001_Node000099"><a xlink:title=" ">
<path fill="none" stroke="#63b8ff" d="M754.34,-198.25C733.7,-251.17 679.45,-390.33 664.49,-428.7"/>
<polygon fill="#63b8ff" stroke="#63b8ff" points="757.59,-199.54 757.96,-188.95 751.07,-196.99 757.59,-199.54"/>
</a>
</g>
</g>
<!-- Node112 -->
<g id="Node000112" class="node">
<title>Node112</title>
<g id="a_Node000112"><a xlink:href="../../de/d04/str-l_8c.html#abe2a3a71f0b4dbc7d37c59d16762b6fb" target="_top" xlink:title="lstr_copy_* helper.">
<polygon fill="white" stroke="#666666" points="699.12,-187.25 620.12,-187.25 620.12,-168 699.12,-168 699.12,-187.25"/>
<text text-anchor="middle" x="659.62" y="-173.75" font-family="Helvetica,sans-Serif" font-size="10.00">mp_lstr_copy_</text>
</a>
</g>
</g>
<!-- Node1&#45;&gt;Node112 -->
<g id="edge26_Node000001_Node000112" class="edge">
<title>Node1&#45;&gt;Node112</title>
<g id="a_edge26_Node000001_Node000112"><a xlink:title=" ">
<path fill="none" stroke="#63b8ff" d="M734.29,-177.62C723.52,-177.62 711.04,-177.62 699.45,-177.62"/>
<polygon fill="#63b8ff" stroke="#63b8ff" points="734.06,-181.13 744.06,-177.63 734.06,-174.13 734.06,-181.13"/>
</a>
</g>
</g>
<!-- Node1663 -->
<g id="Node001663" class="node">
<title>Node1663</title>
<g id="a_Node001663"><a xlink:href="../../d3/d83/str-outbuf_8h.html#a8f58f073a33595cf421281fa4e831e82" target="_top" xlink:title="adds a memory block (ptr, len) to the chunks referenced by ob.">
<polygon fill="white" stroke="#666666" points="710,-150.25 609.25,-150.25 609.25,-131 710,-131 710,-150.25"/>
<text text-anchor="middle" x="659.62" y="-136.75" font-family="Helvetica,sans-Serif" font-size="10.00">ob_add_memchunk</text>
</a>
</g>
</g>
<!-- Node1&#45;&gt;Node1663 -->
<g id="edge53_Node000001_Node001663" class="edge">
<title>Node1&#45;&gt;Node1663</title>
<g id="a_edge53_Node000001_Node001663"><a xlink:title=" ">
<path fill="none" stroke="#63b8ff" d="M734.78,-167.59C720.32,-162.33 702.66,-155.91 688.2,-150.65"/>
<polygon fill="#63b8ff" stroke="#63b8ff" points="733.56,-170.87 744.15,-171 735.95,-164.29 733.56,-170.87"/>
</a>
</g>
</g>
<!-- Node1664 -->
<g id="Node001664" class="node">
<title>Node1664</title>
<g id="a_Node001664"><a xlink:href="../../d6/d7f/str-outbuf_8c.html#afb0e0c193df05b1dc1ccf1aab7b55627" target="_top" xlink:title=" ">
<polygon fill="white" stroke="#666666" points="701.38,-113.25 617.88,-113.25 617.88,-94 701.38,-94 701.38,-113.25"/>
<text text-anchor="middle" x="659.62" y="-99.75" font-family="Helvetica,sans-Serif" font-size="10.00">ob_chunk_wipe</text>
</a>
</g>
</g>
<!-- Node1&#45;&gt;Node1664 -->
<g id="edge54_Node000001_Node001664" class="edge">
<title>Node1&#45;&gt;Node1664</title>
<g id="a_edge54_Node000001_Node001664"><a xlink:title=" ">
<path fill="none" stroke="#63b8ff" d="M748.53,-158.75C738.88,-146.73 725.07,-131.59 710,-121.62 705.36,-118.56 700.12,-115.93 694.84,-113.7"/>
<polygon fill="#63b8ff" stroke="#63b8ff" points="745.53,-160.59 754.4,-166.37 751.07,-156.32 745.53,-160.59"/>
</a>
</g>
</g>
<!-- Node3 -->
<g id="Node000003" class="node">
<title>Node3</title>
<g id="a_Node000003"><a xlink:href="../../da/d36/mem-stack_8c.html#a4514038d26ab97f35c63d889a68febf7" target="_top" xlink:title=" ">
<polygon fill="white" stroke="#666666" points="565,-735.25 464.25,-735.25 464.25,-716 565,-716 565,-735.25"/>
<text text-anchor="middle" x="514.62" y="-721.75" font-family="Helvetica,sans-Serif" font-size="10.00">frame_get_next_blk</text>
</a>
</g>
</g>
<!-- Node2&#45;&gt;Node3 -->
<g id="edge2_Node000002_Node000003" class="edge">
<title>Node2&#45;&gt;Node3</title>
<g id="a_edge2_Node000002_Node000003"><a xlink:title=" ">
<path fill="none" stroke="#63b8ff" d="M627.77,-679.29C611.64,-686.82 591.5,-695.98 573.25,-703.62 563.47,-707.72 552.64,-711.94 543.03,-715.57"/>
<polygon fill="#63b8ff" stroke="#63b8ff" points="628.8,-682.68 636.37,-675.26 625.83,-676.34 628.8,-682.68"/>
</a>
</g>
</g>
<!-- Node18 -->
<g id="Node000018" class="node">
<title>Node18</title>
<g id="a_Node000018"><a xlink:href="../../da/d36/mem-stack_8c.html#a85476f6e9863c9b8ee3fd7123e2e034e" target="_top" xlink:title=" ">
<polygon fill="white" stroke="#666666" points="573.25,-694.25 456,-694.25 456,-675 573.25,-675 573.25,-694.25"/>
<text text-anchor="middle" x="514.62" y="-680.75" font-family="Helvetica,sans-Serif" font-size="10.00">mem_stack_pool_reset</text>
</a>
</g>
</g>
<!-- Node2&#45;&gt;Node18 -->
<g id="edge6_Node000002_Node000018" class="edge">
<title>Node2&#45;&gt;Node18</title>
<g id="a_edge6_Node000002_Node000018"><a xlink:title=" ">
<path fill="none" stroke="#63b8ff" d="M615.39,-670.67C602.2,-672.52 587.48,-674.58 573.48,-676.53"/>
<polygon fill="#63b8ff" stroke="#63b8ff" points="615.62,-674.17 625.03,-669.32 614.65,-667.24 615.62,-674.17"/>
</a>
</g>
</g>
<!-- Node96 -->
<g id="Node000096" class="node">
<title>Node96</title>
<g id="a_Node000096"><a xlink:href="../../da/d36/mem-stack_8c.html#a8c6e273f2e9095316fb9d84df3a912dc" target="_top" xlink:title=" ">
<polygon fill="white" stroke="#666666" points="572.5,-654.25 456.75,-654.25 456.75,-635 572.5,-635 572.5,-654.25"/>
<text text-anchor="middle" x="514.62" y="-640.75" font-family="Helvetica,sans-Serif" font-size="10.00">mem_stack_pool_wipe</text>
</a>
</g>
</g>
<!-- Node2&#45;&gt;Node96 -->
<g id="edge11_Node000002_Node000096" class="edge">
<title>Node2&#45;&gt;Node96</title>
<g id="a_edge11_Node000002_Node000096"><a xlink:title=" ">
<path fill="none" stroke="#63b8ff" d="M615.27,-658.56C601.93,-656.7 587.04,-654.61 572.91,-652.64"/>
<polygon fill="#63b8ff" stroke="#63b8ff" points="614.65,-662.01 625.03,-659.93 615.62,-655.08 614.65,-662.01"/>
</a>
</g>
</g>
<!-- Node4 -->
<g id="Node000004" class="node">
<title>Node4</title>
<g id="a_Node000004"><a xlink:href="../../da/d36/mem-stack_8c.html#a29b20c65e83261029b376369d9431d7c" target="_top" xlink:title=" ">
<polygon fill="white" stroke="#666666" points="397.88,-755.25 333.88,-755.25 333.88,-736 397.88,-736 397.88,-755.25"/>
<text text-anchor="middle" x="365.88" y="-741.75" font-family="Helvetica,sans-Serif" font-size="10.00">sp_reserve</text>
</a>
</g>
</g>
<!-- Node3&#45;&gt;Node4 -->
<g id="edge3_Node000003_Node000004" class="edge">
<title>Node3&#45;&gt;Node4</title>
<g id="a_edge3_Node000003_Node000004"><a xlink:title=" ">
<path fill="none" stroke="#63b8ff" d="M452.74,-733.92C433.95,-736.48 414.04,-739.2 398.12,-741.37"/>
<polygon fill="#63b8ff" stroke="#63b8ff" points="453.01,-737.42 462.44,-732.6 452.06,-730.48 453.01,-737.42"/>
</a>
</g>
</g>
<!-- Node5 -->
<g id="Node000005" class="node">
<title>Node5</title>
<g id="a_Node000005"><a xlink:href="../../da/d36/mem-stack_8c.html#a6423fdf814c1fba9107714e0b5213578" target="_top" xlink:title=" ">
<polygon fill="#fff0f0" stroke="red" points="275.75,-792.25 159.25,-792.25 159.25,-773 275.75,-773 275.75,-792.25"/>
<text text-anchor="middle" x="217.5" y="-778.75" font-family="Helvetica,sans-Serif" font-size="10.00">mem_stack_pool_push</text>
</a>
</g>
</g>
<!-- Node4&#45;&gt;Node5 -->
<g id="edge4_Node000004_Node000005" class="edge">
<title>Node4&#45;&gt;Node5</title>
<g id="a_edge4_Node000004_Node000005"><a xlink:title=" ">
<path fill="none" stroke="#63b8ff" d="M322.42,-756.36C302.27,-761.45 278.32,-767.5 258.5,-772.52"/>
<polygon fill="#63b8ff" stroke="#63b8ff" points="323.17,-759.78 332.01,-753.93 321.45,-752.99 323.17,-759.78"/>
</a>
</g>
</g>
<!-- Node16 -->
<g id="Node000016" class="node">
<title>Node16</title>
<g id="a_Node000016"><a xlink:href="../../da/d36/mem-stack_8c.html#a460c916b00b3fbb36d9a62c392158bff" target="_top" xlink:title=" ">
<polygon fill="#fff0f0" stroke="red" points="243.5,-755.25 191.5,-755.25 191.5,-736 243.5,-736 243.5,-755.25"/>
<text text-anchor="middle" x="217.5" y="-741.75" font-family="Helvetica,sans-Serif" font-size="10.00">sp_alloc</text>
</a>
</g>
</g>
<!-- Node4&#45;&gt;Node16 -->
<g id="edge5_Node000004_Node000016" class="edge">
<title>Node4&#45;&gt;Node16</title>
<g id="a_edge5_Node000004_Node000016"><a xlink:title=" ">
<path fill="none" stroke="#63b8ff" d="M322.22,-745.62C296.68,-745.62 265.1,-745.62 243.54,-745.62"/>
<polygon fill="#63b8ff" stroke="#63b8ff" points="321.96,-749.13 331.96,-745.63 321.96,-742.13 321.96,-749.13"/>
</a>
</g>
</g>
<!-- Node19 -->
<g id="Node000019" class="node">
<title>Node19</title>
<g id="a_Node000019"><a xlink:href="../../da/d36/mem-stack_8c.html#ac00001221a884d669f23d00005c1f998" target="_top" xlink:title=" ">
<polygon fill="white" stroke="#666666" points="418.88,-702.88 312.88,-702.88 312.88,-672.38 418.88,-672.38 418.88,-702.88"/>
<text text-anchor="start" x="320.88" y="-689.38" font-family="Helvetica,sans-Serif" font-size="10.00">mem_stack_pool_try</text>
<text text-anchor="middle" x="365.88" y="-678.12" font-family="Helvetica,sans-Serif" font-size="10.00">_reset</text>
</a>
</g>
</g>
<!-- Node18&#45;&gt;Node19 -->
<g id="edge7_Node000018_Node000019" class="edge">
<title>Node18&#45;&gt;Node19</title>
<g id="a_edge7_Node000018_Node000019"><a xlink:title=" ">
<path fill="none" stroke="#63b8ff" d="M444.23,-686.04C435.81,-686.22 427.33,-686.39 419.21,-686.56"/>
<polygon fill="#63b8ff" stroke="#63b8ff" points="444.19,-689.55 454.11,-685.84 444.04,-682.55 444.19,-689.55"/>
</a>
</g>
</g>
<!-- Node20 -->
<g id="Node000020" class="node">
<title>Node20</title>
<g id="a_Node000020"><a xlink:href="../../da/d9c/group__lc__el.html#gac9cb473c0ef1d887656d6330445d9453" target="_top" xlink:title=" ">
<polygon fill="#fff0f0" stroke="red" points="259.62,-718.25 175.38,-718.25 175.38,-699 259.62,-699 259.62,-718.25"/>
<text text-anchor="middle" x="217.5" y="-704.75" font-family="Helvetica,sans-Serif" font-size="10.00">el_loop_timeout</text>
</a>
</g>
</g>
<!-- Node19&#45;&gt;Node20 -->
<g id="edge8_Node000019_Node000020" class="edge">
<title>Node19&#45;&gt;Node20</title>
<g id="a_edge8_Node000019_Node000020"><a xlink:title=" ">
<path fill="none" stroke="#63b8ff" d="M301.36,-696.74C287.36,-698.75 272.88,-700.82 260.02,-702.67"/>
<polygon fill="#63b8ff" stroke="#63b8ff" points="301.54,-700.25 310.95,-695.36 300.55,-693.32 301.54,-700.25"/>
</a>
</g>
</g>
<!-- Node59 -->
<g id="Node000059" class="node">
<title>Node59</title>
<g id="a_Node000059"><a xlink:href="../../d1/d10/mem-stack_8h.html#a0996ccb805ddd268936677fb82594eca" target="_top" xlink:title=" ">
<polygon fill="#fff0f0" stroke="red" points="273.12,-681.25 161.88,-681.25 161.88,-662 273.12,-662 273.12,-681.25"/>
<text text-anchor="middle" x="217.5" y="-667.75" font-family="Helvetica,sans-Serif" font-size="10.00">mem_stack_pool_pop</text>
</a>
</g>
</g>
<!-- Node19&#45;&gt;Node59 -->
<g id="edge9_Node000019_Node000059" class="edge">
<title>Node19&#45;&gt;Node59</title>
<g id="a_edge9_Node000019_Node000059"><a xlink:title=" ">
<path fill="none" stroke="#63b8ff" d="M301,-680.64C291.84,-679.64 282.49,-678.62 273.53,-677.64"/>
<polygon fill="#63b8ff" stroke="#63b8ff" points="300.62,-684.12 310.94,-681.73 301.38,-677.16 300.62,-684.12"/>
</a>
</g>
</g>
<!-- Node65 -->
<g id="Node000065" class="node">
<title>Node65</title>
<g id="a_Node000065"><a xlink:href="../../dc/d4b/thr-job_8blk.html#a6f8fe76627469a6067f736c91660cc17" target="_top" xlink:title=" ">
<polygon fill="#fff0f0" stroke="red" points="253.25,-644.25 181.75,-644.25 181.75,-625 253.25,-625 253.25,-644.25"/>
<text text-anchor="middle" x="217.5" y="-630.75" font-family="Helvetica,sans-Serif" font-size="10.00">thr_job_main</text>
</a>
</g>
</g>
<!-- Node19&#45;&gt;Node65 -->
<g id="edge10_Node000019_Node000065" class="edge">
<title>Node19&#45;&gt;Node65</title>
<g id="a_edge10_Node000019_Node000065"><a xlink:title=" ">
<path fill="none" stroke="#63b8ff" d="M315.88,-667.68C302.9,-662.59 288.85,-657.25 275.75,-652.62 268.09,-649.92 259.78,-647.19 251.93,-644.71"/>
<polygon fill="#63b8ff" stroke="#63b8ff" points="314.5,-670.89 325.08,-671.32 317.07,-664.39 314.5,-670.89"/>
</a>
</g>
</g>
<!-- Node97 -->
<g id="Node000097" class="node">
<title>Node97</title>
<g id="a_Node000097"><a xlink:href="../../d7/df8/log_8c.html#adc2702e4573e3b3f549a58dc9a8505f3" target="_top" xlink:title=" ">
<polygon fill="white" stroke="#666666" points="420,-654.25 311.75,-654.25 311.75,-635 420,-635 420,-654.25"/>
<text text-anchor="middle" x="365.88" y="-640.75" font-family="Helvetica,sans-Serif" font-size="10.00">log_shutdown_thread</text>
</a>
</g>
</g>
<!-- Node96&#45;&gt;Node97 -->
<g id="edge12_Node000096_Node000097" class="edge">
<title>Node96&#45;&gt;Node97</title>
<g id="a_edge12_Node000096_Node000097"><a xlink:title=" ">
<path fill="none" stroke="#63b8ff" d="M445.17,-644.62C436.81,-644.62 428.37,-644.62 420.28,-644.62"/>
<polygon fill="#63b8ff" stroke="#63b8ff" points="444.95,-648.13 454.95,-644.63 444.95,-641.13 444.95,-648.13"/>
</a>
</g>
</g>
<!-- Node98 -->
<g id="Node000098" class="node">
<title>Node98</title>
<g id="a_Node000098"><a xlink:href="../../da/d36/mem-stack_8c.html#ab4a41c8ca86b1ac60611d7febe462e0d" target="_top" xlink:title=" ">
<polygon fill="white" stroke="#666666" points="399.75,-617.25 332,-617.25 332,-598 399.75,-598 399.75,-617.25"/>
<text text-anchor="middle" x="365.88" y="-603.75" font-family="Helvetica,sans-Serif" font-size="10.00">t_pool_wipe</text>
</a>
</g>
</g>
<!-- Node96&#45;&gt;Node98 -->
<g id="edge13_Node000096_Node000098" class="edge">
<title>Node96&#45;&gt;Node98</title>
<g id="a_edge13_Node000096_Node000098"><a xlink:title=" ">
<path fill="none" stroke="#63b8ff" d="M462.63,-631.77C441.87,-626.53 418.47,-620.63 399.99,-615.97"/>
<polygon fill="#63b8ff" stroke="#63b8ff" points="461.51,-635.09 472.06,-634.14 463.22,-628.31 461.51,-635.09"/>
</a>
</g>
</g>
<!-- Node100 -->
<g id="Node000100" class="node">
<title>Node100</title>
<g id="a_Node000100"><a xlink:href="../../de/ddd/mem-ring_8c.html#a46e2665eca3ad83041424003cca3e840" target="_top" xlink:title=" ">
<polygon fill="white" stroke="#666666" points="562.75,-467.25 466.5,-467.25 466.5,-448 562.75,-448 562.75,-467.25"/>
<text text-anchor="middle" x="514.62" y="-453.75" font-family="Helvetica,sans-Serif" font-size="10.00">__mem_ring_reset</text>
</a>
</g>
</g>
<!-- Node99&#45;&gt;Node100 -->
<g id="edge15_Node000099_Node000100" class="edge">
<title>Node99&#45;&gt;Node100</title>
<g id="a_edge15_Node000099_Node000100"><a xlink:title=" ">
<path fill="none" stroke="#63b8ff" d="M615.52,-444.35C598.98,-446.55 580.02,-449.07 563.09,-451.32"/>
<polygon fill="#63b8ff" stroke="#63b8ff" points="615.58,-447.88 625.03,-443.09 614.66,-440.94 615.58,-447.88"/>
</a>
</g>
</g>
<!-- Node104 -->
<g id="Node000104" class="node">
<title>Node104</title>
<g id="a_Node000104"><a xlink:href="../../de/ddd/mem-ring_8c.html#a0dc519eb8e7f01fa6416ca8bc3d6b8dc" target="_top" xlink:title=" ">
<polygon fill="white" stroke="#666666" points="565,-430.25 464.25,-430.25 464.25,-411 565,-411 565,-430.25"/>
<text text-anchor="middle" x="514.62" y="-416.75" font-family="Helvetica,sans-Serif" font-size="10.00">frame_get_next_blk</text>
</a>
</g>
</g>
<!-- Node99&#45;&gt;Node104 -->
<g id="edge19_Node000099_Node000104" class="edge">
<title>Node99&#45;&gt;Node104</title>
<g id="a_edge19_Node000099_Node000104"><a xlink:title=" ">
<path fill="none" stroke="#63b8ff" d="M615.47,-433.19C599.65,-431.2 581.64,-428.93 565.3,-426.88"/>
<polygon fill="#63b8ff" stroke="#63b8ff" points="614.67,-436.62 625.03,-434.4 615.55,-429.67 614.67,-436.62"/>
</a>
</g>
</g>
<!-- Node110 -->
<g id="Node000110" class="node">
<title>Node110</title>
<g id="a_Node000110"><a xlink:href="../../de/ddd/mem-ring_8c.html#aff9eaa948c0e409bb9e9f3c18b0f73fa" target="_top" xlink:title="Delete the given memory ring&#45;pool.">
<polygon fill="white" stroke="#666666" points="559.75,-523.25 469.5,-523.25 469.5,-504 559.75,-504 559.75,-523.25"/>
<text text-anchor="middle" x="514.62" y="-509.75" font-family="Helvetica,sans-Serif" font-size="10.00">mem_ring_delete</text>
</a>
</g>
</g>
<!-- Node99&#45;&gt;Node110 -->
<g id="edge22_Node000099_Node000110" class="edge">
<title>Node99&#45;&gt;Node110</title>
<g id="a_edge22_Node000099_Node000110"><a xlink:title=" ">
<path fill="none" stroke="#63b8ff" d="M629.21,-454.05C600.86,-468.92 558.79,-490.99 534.61,-503.67"/>
<polygon fill="#63b8ff" stroke="#63b8ff" points="630.77,-457.19 638,-449.44 627.52,-450.99 630.77,-457.19"/>
</a>
</g>
</g>
<!-- Node101 -->
<g id="Node000101" class="node">
<title>Node101</title>
<g id="a_Node000101"><a xlink:href="../../de/ddd/mem-ring_8c.html#af77a9c34439db748b2b2e4989c5c965f" target="_top" xlink:title="Release the frame identified by the given cookie.">
<polygon fill="white" stroke="#666666" points="413.62,-504.25 318.12,-504.25 318.12,-485 413.62,-485 413.62,-504.25"/>
<text text-anchor="middle" x="365.88" y="-490.75" font-family="Helvetica,sans-Serif" font-size="10.00">mem_ring_release</text>
</a>
</g>
</g>
<!-- Node100&#45;&gt;Node101 -->
<g id="edge16_Node000100_Node000101" class="edge">
<title>Node100&#45;&gt;Node101</title>
<g id="a_edge16_Node000100_Node000101"><a xlink:title=" ">
<path fill="none" stroke="#63b8ff" d="M462.5,-470.52C444.29,-475.11 424.07,-480.2 406.93,-484.53"/>
<polygon fill="#63b8ff" stroke="#63b8ff" points="463.22,-473.94 472.06,-468.11 461.51,-467.16 463.22,-473.94"/>
</a>
</g>
</g>
<!-- Node103 -->
<g id="Node000103" class="node">
<title>Node103</title>
<g id="a_Node000103"><a xlink:href="../../de/ddd/mem-ring_8c.html#a4833b3049c110c86fe85645ba1627c52" target="_top" xlink:title="Force clean the ring pool from empty memory blocks.">
<polygon fill="white" stroke="#666666" points="408.75,-467.25 323,-467.25 323,-448 408.75,-448 408.75,-467.25"/>
<text text-anchor="middle" x="365.88" y="-453.75" font-family="Helvetica,sans-Serif" font-size="10.00">mem_ring_reset</text>
</a>
</g>
</g>
<!-- Node100&#45;&gt;Node103 -->
<g id="edge18_Node000100_Node000103" class="edge">
<title>Node100&#45;&gt;Node103</title>
<g id="a_edge18_Node000100_Node000103"><a xlink:title=" ">
<path fill="none" stroke="#63b8ff" d="M454.89,-457.62C439.56,-457.62 423.35,-457.62 409.07,-457.62"/>
<polygon fill="#63b8ff" stroke="#63b8ff" points="454.87,-461.13 464.87,-457.63 454.87,-454.13 454.87,-461.13"/>
</a>
</g>
</g>
<!-- Node102 -->
<g id="Node000102" class="node">
<title>Node102</title>
<g id="a_Node000102"><a xlink:href="../../db/d6e/iopc-iopsq_8c.html#a5b83115db34f7935c32c3adcfab9143a" target="_top" xlink:title="Wipe an iopsq_iop_struct_t object.">
<polygon fill="#fff0f0" stroke="red" points="273.88,-541.25 161.12,-541.25 161.12,-522 273.88,-522 273.88,-541.25"/>
<text text-anchor="middle" x="217.5" y="-527.75" font-family="Helvetica,sans-Serif" font-size="10.00">iopsq_iop_struct_wipe</text>
</a>
</g>
</g>
<!-- Node101&#45;&gt;Node102 -->
<g id="edge17_Node000101_Node000102" class="edge">
<title>Node101&#45;&gt;Node102</title>
<g id="a_edge17_Node000101_Node000102"><a xlink:title=" ">
<path fill="none" stroke="#63b8ff" d="M313.88,-507.52C295.72,-512.11 275.55,-517.2 258.45,-521.53"/>
<polygon fill="#63b8ff" stroke="#63b8ff" points="314.57,-510.95 323.41,-505.11 312.86,-504.16 314.57,-510.95"/>
</a>
</g>
</g>
<!-- Node105 -->
<g id="Node000105" class="node">
<title>Node105</title>
<g id="a_Node000105"><a xlink:href="../../de/ddd/mem-ring_8c.html#a77ae562bc5326a7ed63c03f3f6dfd007" target="_top" xlink:title=" ">
<polygon fill="#fff0f0" stroke="red" points="396.75,-430.25 335,-430.25 335,-411 396.75,-411 396.75,-430.25"/>
<text text-anchor="middle" x="365.88" y="-416.75" font-family="Helvetica,sans-Serif" font-size="10.00">rp_reserve</text>
</a>
</g>
</g>
<!-- Node104&#45;&gt;Node105 -->
<g id="edge20_Node000104_Node000105" class="edge">
<title>Node104&#45;&gt;Node105</title>
<g id="a_edge20_Node000104_Node000105"><a xlink:title=" ">
<path fill="none" stroke="#63b8ff" d="M452.57,-420.62C433.48,-420.62 413.26,-420.62 397.25,-420.62"/>
<polygon fill="#63b8ff" stroke="#63b8ff" points="452.43,-424.13 462.43,-420.63 452.43,-417.13 452.43,-424.13"/>
</a>
</g>
</g>
<!-- Node106 -->
<g id="Node000106" class="node">
<title>Node106</title>
<g id="a_Node000106"><a xlink:href="../../de/ddd/mem-ring_8c.html#adc9e7915b3feee706d436c0e3cb715a2" target="_top" xlink:title="Seal the active frame.">
<polygon fill="#fff0f0" stroke="red" points="258.5,-430.25 176.5,-430.25 176.5,-411 258.5,-411 258.5,-430.25"/>
<text text-anchor="middle" x="217.5" y="-416.75" font-family="Helvetica,sans-Serif" font-size="10.00">mem_ring_seal</text>
</a>
</g>
</g>
<!-- Node105&#45;&gt;Node106 -->
<g id="edge21_Node000105_Node000106" class="edge">
<title>Node105&#45;&gt;Node106</title>
<g id="a_edge21_Node000105_Node000106"><a xlink:title=" ">
<path fill="none" stroke="#63b8ff" d="M323.17,-420.62C302.96,-420.62 278.81,-420.62 258.79,-420.62"/>
<polygon fill="#63b8ff" stroke="#63b8ff" points="323.03,-424.13 333.03,-420.63 323.03,-417.13 323.03,-424.13"/>
</a>
</g>
</g>
<!-- Node110&#45;&gt;Node101 -->
<g id="edge24_Node000110_Node000101" class="edge">
<title>Node110&#45;&gt;Node101</title>
<g id="a_edge24_Node000110_Node000101"><a xlink:title=" ">
<path fill="none" stroke="#63b8ff" d="M457.85,-506.4C443.37,-504.53 427.93,-502.53 413.96,-500.72"/>
<polygon fill="#63b8ff" stroke="#63b8ff" points="457.33,-509.87 467.7,-507.68 458.23,-502.92 457.33,-509.87"/>
</a>
</g>
</g>
<!-- Node110&#45;&gt;Node102 -->
<g id="edge23_Node000110_Node000102" class="edge">
<title>Node110&#45;&gt;Node102</title>
<g id="a_edge23_Node000110_Node000102"><a xlink:title=" ">
<path fill="none" stroke="#63b8ff" d="M484.39,-528.48C466.34,-536.81 442.43,-546.35 420,-550.62 364.08,-561.27 298.24,-550.84 257.43,-541.74"/>
<polygon fill="#63b8ff" stroke="#63b8ff" points="485.66,-531.76 493.18,-524.29 482.64,-525.44 485.66,-531.76"/>
</a>
</g>
</g>
<!-- Node111 -->
<g id="Node000111" class="node">
<title>Node111</title>
<g id="a_Node000111"><a xlink:href="../../de/ddd/mem-ring_8c.html#aa5ae1efac41f407624fbc340a51d01d4" target="_top" xlink:title="Destroy the r_pool()">
<polygon fill="white" stroke="#666666" points="405.38,-541.25 326.38,-541.25 326.38,-522 405.38,-522 405.38,-541.25"/>
<text text-anchor="middle" x="365.88" y="-527.75" font-family="Helvetica,sans-Serif" font-size="10.00">r_pool_destroy</text>
</a>
</g>
</g>
<!-- Node110&#45;&gt;Node111 -->
<g id="edge25_Node000110_Node000111" class="edge">
<title>Node110&#45;&gt;Node111</title>
<g id="a_edge25_Node000110_Node000111"><a xlink:title=" ">
<path fill="none" stroke="#63b8ff" d="M457.99,-520.45C440.55,-522.59 421.7,-524.9 405.68,-526.86"/>
<polygon fill="#63b8ff" stroke="#63b8ff" points="458.2,-523.95 467.69,-519.26 457.34,-517 458.2,-523.95"/>
</a>
</g>
</g>
<!-- Node113 -->
<g id="Node000113" class="node">
<title>Node113</title>
<g id="a_Node000113"><a xlink:href="../../df/d0a/str-l_8h.html#a366786b424cf2689b6e10b03f6939637" target="_top" xlink:title="copies a constant of \v s into \v dst.">
<polygon fill="white" stroke="#666666" points="544.75,-299.25 484.5,-299.25 484.5,-280 544.75,-280 544.75,-299.25"/>
<text text-anchor="middle" x="514.62" y="-285.75" font-family="Helvetica,sans-Serif" font-size="10.00">lstr_copyc</text>
</a>
</g>
</g>
<!-- Node112&#45;&gt;Node113 -->
<g id="edge27_Node000112_Node000113" class="edge">
<title>Node112&#45;&gt;Node113</title>
<g id="a_edge27_Node000112_Node000113"><a xlink:title=" ">
<path fill="none" stroke="#63b8ff" d="M637.04,-194.53C606.88,-218.16 553.06,-260.31 528.49,-279.55"/>
<polygon fill="#63b8ff" stroke="#63b8ff" points="639.03,-197.42 644.74,-188.5 634.71,-191.91 639.03,-197.42"/>
</a>
</g>
</g>
<!-- Node122 -->
<g id="Node000122" class="node">
<title>Node122</title>
<g id="a_Node000122"><a xlink:href="../../df/d0a/str-l_8h.html#a62ee949c4c582dd42fed34b4c98c871b" target="_top" xlink:title="copies \v src into \dst tranferring memory ownership to \v dst.">
<polygon fill="white" stroke="#666666" points="548.5,-130.25 480.75,-130.25 480.75,-111 548.5,-111 548.5,-130.25"/>
<text text-anchor="middle" x="514.62" y="-116.75" font-family="Helvetica,sans-Serif" font-size="10.00">lstr_transfer</text>
</a>
</g>
</g>
<!-- Node112&#45;&gt;Node122 -->
<g id="edge33_Node000112_Node000122" class="edge">
<title>Node112&#45;&gt;Node122</title>
<g id="a_edge33_Node000112_Node000122"><a xlink:title=" ">
<path fill="none" stroke="#63b8ff" d="M619.75,-163.64C616.19,-162.3 612.65,-160.95 609.25,-159.62 608.81,-159.45 567.19,-142.11 539.59,-130.61"/>
<polygon fill="#63b8ff" stroke="#63b8ff" points="618.33,-166.85 628.92,-167.04 620.76,-160.28 618.33,-166.85"/>
</a>
</g>
</g>
<!-- Node123 -->
<g id="Node000123" class="node">
<title>Node123</title>
<g id="a_Node000123"><a xlink:href="../../de/d04/str-l_8c.html#a4c4d34e32aaab8fe8948af97a9d2a135" target="_top" xlink:title="copies src into dst transferring memory ownershipt to dst">
<polygon fill="white" stroke="#666666" points="259.25,-168.25 175.75,-168.25 175.75,-149 259.25,-149 259.25,-168.25"/>
<text text-anchor="middle" x="217.5" y="-154.75" font-family="Helvetica,sans-Serif" font-size="10.00">lstr_transfer_sb</text>
</a>
</g>
</g>
<!-- Node112&#45;&gt;Node123 -->
<g id="edge34_Node000112_Node000123" class="edge">
<title>Node112&#45;&gt;Node123</title>
<g id="a_edge34_Node000112_Node000123"><a xlink:title=" ">
<path fill="none" stroke="#63b8ff" d="M608.7,-175.47C520.9,-171.68 340.49,-163.89 259.47,-160.39"/>
<polygon fill="#63b8ff" stroke="#63b8ff" points="608.3,-178.96 618.44,-175.89 608.6,-171.96 608.3,-178.96"/>
</a>
</g>
</g>
<!-- Node169 -->
<g id="Node000169" class="node">
<title>Node169</title>
<g id="a_Node000169"><a xlink:href="../../de/d04/str-l_8c.html#ad27b4eb4e6bb1b13aaaccd67c588e6b1" target="_top" xlink:title="Sets dst to a new mp allocated lstr from its arguments.">
<polygon fill="white" stroke="#666666" points="551.5,-93.25 477.75,-93.25 477.75,-74 551.5,-74 551.5,-93.25"/>
<text text-anchor="middle" x="514.62" y="-79.75" font-family="Helvetica,sans-Serif" font-size="10.00">mp_lstr_copy</text>
</a>
</g>
</g>
<!-- Node112&#45;&gt;Node169 -->
<g id="edge42_Node000112_Node000169" class="edge">
<title>Node112&#45;&gt;Node169</title>
<g id="a_edge42_Node000112_Node000169"><a xlink:title=" ">
<path fill="none" stroke="#63b8ff" d="M612.67,-162.17C611.49,-161.36 610.35,-160.52 609.25,-159.62 585.71,-140.49 597.24,-120.2 573.25,-101.62 567.04,-96.81 559.52,-93.27 551.99,-90.68"/>
<polygon fill="#63b8ff" stroke="#63b8ff" points="610.56,-165 620.99,-166.87 614,-158.91 610.56,-165"/>
</a>
</g>
</g>
<!-- Node187 -->
<g id="Node000187" class="node">
<title>Node187</title>
<g id="a_Node000187"><a xlink:href="../../de/d04/str-l_8c.html#adef2d7033b6f56fceee1752939faa0a3" target="_top" xlink:title="Sets dst to a new mp allocated lstr from its arguments.">
<polygon fill="white" stroke="#666666" points="554.12,-56.25 475.12,-56.25 475.12,-37 554.12,-37 554.12,-56.25"/>
<text text-anchor="middle" x="514.62" y="-42.75" font-family="Helvetica,sans-Serif" font-size="10.00">mp_lstr_copys</text>
</a>
</g>
</g>
<!-- Node112&#45;&gt;Node187 -->
<g id="edge45_Node000112_Node000187" class="edge">
<title>Node112&#45;&gt;Node187</title>
<g id="a_edge45_Node000112_Node000187"><a xlink:title=" ">
<path fill="none" stroke="#63b8ff" d="M611.14,-161.37C610.49,-160.81 609.86,-160.23 609.25,-159.62 577.12,-127.9 606.11,-95.59 573.25,-64.62 567.99,-59.67 561.37,-56.07 554.52,-53.47"/>
<polygon fill="#63b8ff" stroke="#63b8ff" points="608.96,-164.12 619.21,-166.8 612.87,-158.31 608.96,-164.12"/>
</a>
</g>
</g>
<!-- Node190 -->
<g id="Node000190" class="node">
<title>Node190</title>
<g id="a_Node000190"><a xlink:href="../../df/d0a/str-l_8h.html#a381cd831ac9616c5bea8213bb679d1ac" target="_top" xlink:title="Wipe a lstr_t (frees memory if needed).">
<polygon fill="white" stroke="#666666" points="551.5,-206.25 477.75,-206.25 477.75,-187 551.5,-187 551.5,-206.25"/>
<text text-anchor="middle" x="514.62" y="-192.75" font-family="Helvetica,sans-Serif" font-size="10.00">mp_lstr_wipe</text>
</a>
</g>
</g>
<!-- Node112&#45;&gt;Node190 -->
<g id="edge48_Node000112_Node000190" class="edge">
<title>Node112&#45;&gt;Node190</title>
<g id="a_edge48_Node000112_Node000190"><a xlink:title=" ">
<path fill="none" stroke="#63b8ff" d="M608.63,-184.27C589.95,-186.75 569.1,-189.52 551.89,-191.81"/>
<polygon fill="#63b8ff" stroke="#63b8ff" points="608.97,-187.75 618.43,-182.97 608.05,-180.81 608.97,-187.75"/>
</a>
</g>
</g>
<!-- Node114 -->
<g id="Node000114" class="node">
<title>Node114</title>
<g id="a_Node000114"><a xlink:href="../../dc/df9/z_8blk.html#acd295131980fbf1e4049e084e5bdb31f" target="_top" xlink:title=" ">
<polygon fill="#fff0f0" stroke="red" points="408.38,-393.25 323.38,-393.25 323.38,-374 408.38,-374 408.38,-393.25"/>
<text text-anchor="middle" x="365.88" y="-379.75" font-family="Helvetica,sans-Serif" font-size="10.00">__z_group_start</text>
</a>
</g>
</g>
<!-- Node113&#45;&gt;Node114 -->
<g id="edge28_Node000113_Node000114" class="edge">
<title>Node113&#45;&gt;Node114</title>
<g id="a_edge28_Node000113_Node000114"><a xlink:title=" ">
<path fill="none" stroke="#63b8ff" d="M496.03,-307.17C478.2,-324.12 449.14,-349.54 420,-365.62 414.54,-368.64 408.49,-371.27 402.49,-373.52"/>
<polygon fill="#63b8ff" stroke="#63b8ff" points="498.01,-310.13 502.75,-300.66 493.14,-305.1 498.01,-310.13"/>
</a>
</g>
</g>
<!-- Node117 -->
<g id="Node000117" class="node">
<title>Node117</title>
<g id="a_Node000117"><a xlink:href="../../dc/df9/z_8blk.html#a7ea8d481ea27f565520ccf8aad9f2c50" target="_top" xlink:title=" ">
<polygon fill="#fff0f0" stroke="red" points="409.5,-356.25 322.25,-356.25 322.25,-337 409.5,-337 409.5,-356.25"/>
<text text-anchor="middle" x="365.88" y="-342.75" font-family="Helvetica,sans-Serif" font-size="10.00">_z_step_prepare</text>
</a>
</g>
</g>
<!-- Node113&#45;&gt;Node117 -->
<g id="edge29_Node000113_Node000117" class="edge">
<title>Node113&#45;&gt;Node117</title>
<g id="a_edge29_Node000113_Node000117"><a xlink:title=" ">
<path fill="none" stroke="#63b8ff" d="M477.03,-303.84C450.72,-314.06 415.9,-327.58 392.51,-336.67"/>
<polygon fill="#63b8ff" stroke="#63b8ff" points="478.26,-307.12 486.32,-300.23 475.73,-300.59 478.26,-307.12"/>
</a>
</g>
</g>
<!-- Node119 -->
<g id="Node000119" class="node">
<title>Node119</title>
<g id="a_Node000119"><a xlink:href="../../dc/df9/z_8blk.html#a048bd9d10e60a8e9e1660dc2903c5005" target="_top" xlink:title=" ">
<polygon fill="#fff0f0" stroke="red" points="257.38,-281.25 177.62,-281.25 177.62,-262 257.38,-262 257.38,-281.25"/>
<text text-anchor="middle" x="217.5" y="-267.75" font-family="Helvetica,sans-Serif" font-size="10.00">_z_step_report</text>
</a>
</g>
</g>
<!-- Node113&#45;&gt;Node119 -->
<g id="edge30_Node000113_Node000119" class="edge">
<title>Node113&#45;&gt;Node119</title>
<g id="a_edge30_Node000113_Node000119"><a xlink:title=" ">
<path fill="none" stroke="#63b8ff" d="M472.75,-291.9C431.89,-293.64 367.32,-294.94 311.75,-289.62 293.86,-287.91 274.3,-284.4 257.73,-280.92"/>
<polygon fill="#63b8ff" stroke="#63b8ff" points="472.78,-295.4 482.61,-291.45 472.46,-288.41 472.78,-295.4"/>
</a>
</g>
</g>
<!-- Node120 -->
<g id="Node000120" class="node">
<title>Node120</title>
<g id="a_Node000120"><a xlink:href="../../dc/df9/z_8blk.html#a9de89fbbbf3265fca03f1f6a27946dfd" target="_top" xlink:title=" ">
<polygon fill="white" stroke="#666666" points="398.25,-280.25 333.5,-280.25 333.5,-261 398.25,-261 398.25,-280.25"/>
<text text-anchor="middle" x="365.88" y="-266.75" font-family="Helvetica,sans-Serif" font-size="10.00">z_skip_end</text>
</a>
</g>
</g>
<!-- Node113&#45;&gt;Node120 -->
<g id="edge31_Node000113_Node000120" class="edge">
<title>Node113&#45;&gt;Node120</title>
<g id="a_edge31_Node000113_Node000120"><a xlink:title=" ">
<path fill="none" stroke="#63b8ff" d="M472.94,-284.36C449.51,-281.32 420.47,-277.56 398.71,-274.75"/>
<polygon fill="#63b8ff" stroke="#63b8ff" points="472.41,-287.82 482.78,-285.63 473.31,-280.88 472.41,-287.82"/>
</a>
</g>
</g>
<!-- Node121 -->
<g id="Node000121" class="node">
<title>Node121</title>
<g id="a_Node000121"><a xlink:href="../../dc/df9/z_8blk.html#a7385a7b87ba9e784d5a47a45897977e1" target="_top" xlink:title=" ">
<polygon fill="white" stroke="#666666" points="398.62,-243.25 333.12,-243.25 333.12,-224 398.62,-224 398.62,-243.25"/>
<text text-anchor="middle" x="365.88" y="-229.75" font-family="Helvetica,sans-Serif" font-size="10.00">z_todo_end</text>
</a>
</g>
</g>
<!-- Node113&#45;&gt;Node121 -->
<g id="edge32_Node000113_Node000121" class="edge">
<title>Node113&#45;&gt;Node121</title>
<g id="a_edge32_Node000113_Node000121"><a xlink:title=" ">
<path fill="none" stroke="#63b8ff" d="M479.53,-275.22C461.86,-267.91 439.88,-259.02 420,-251.62 412.79,-248.94 404.97,-246.2 397.6,-243.69"/>
<polygon fill="#63b8ff" stroke="#63b8ff" points="477.94,-278.35 488.52,-278.97 480.64,-271.89 477.94,-278.35"/>
</a>
</g>
</g>
<!-- Node9 -->
<g id="Node000009" class="node">
<title>Node9</title>
<g id="a_Node000009"><a xlink:href="../../dd/dfc/iopc-parser_8c.html#abe3d6cfba80507c9ce5861308c77342d" target="_top" xlink:title=" ">
<polygon fill="white" stroke="#666666" points="92.5,-224.25 30.75,-224.25 30.75,-205 92.5,-205 92.5,-224.25"/>
<text text-anchor="middle" x="61.62" y="-210.75" font-family="Helvetica,sans-Serif" font-size="10.00">build_dox_</text>
</a>
</g>
</g>
<!-- Node123&#45;&gt;Node9 -->
<g id="edge35_Node000123_Node000009" class="edge">
<title>Node123&#45;&gt;Node9</title>
<g id="a_edge35_Node000123_Node000009"><a xlink:title=" ">
<path fill="none" stroke="#63b8ff" d="M183.38,-173.05C165.7,-180.51 143.47,-189.52 123.25,-196.62 113.41,-200.08 102.52,-203.45 92.72,-206.32"/>
<polygon fill="#63b8ff" stroke="#63b8ff" points="184.53,-176.36 192.36,-169.22 181.78,-169.92 184.53,-176.36"/>
</a>
</g>
</g>
<!-- Node124 -->
<g id="Node000124" class="node">
<title>Node124</title>
<g id="a_Node000124"><a xlink:href="../../dd/dfc/iopc-parser_8c.html#a8e672e85d6e5191d8ac4aadb6bf84301" target="_top" xlink:title=" ">
<polygon fill="#fff0f0" stroke="red" points="120.25,-272.88 3,-272.88 3,-242.38 120.25,-242.38 120.25,-272.88"/>
<text text-anchor="start" x="11" y="-259.38" font-family="Helvetica,sans-Serif" font-size="10.00">iopc_dox_desc_append</text>
<text text-anchor="middle" x="61.62" y="-248.12" font-family="Helvetica,sans-Serif" font-size="10.00">_paragraphs</text>
</a>
</g>
</g>
<!-- Node123&#45;&gt;Node124 -->
<g id="edge36_Node000123_Node000124" class="edge">
<title>Node123&#45;&gt;Node124</title>
<g id="a_edge36_Node000123_Node000124"><a xlink:title=" ">
<path fill="none" stroke="#63b8ff" d="M192.71,-175.19C182.25,-182.7 169.94,-191.85 159.25,-200.62 142.47,-214.4 141.65,-222.11 123.25,-233.62 118.36,-236.69 113.01,-239.48 107.58,-242"/>
<polygon fill="#63b8ff" stroke="#63b8ff" points="194.69,-178.08 200.82,-169.44 190.64,-172.37 194.69,-178.08"/>
</a>
</g>
</g>
<!-- Node129 -->
<g id="Node000129" class="node">
<title>Node129</title>
<g id="a_Node000129"><a xlink:href="../../de/d04/str-l_8c.html#a2506ee856865448f24701a72ae8d7d02" target="_top" xlink:title="Initialize a lstr_t from the content of a file pointed by a fd.">
<polygon fill="#fff0f0" stroke="red" points="104.5,-187.25 18.75,-187.25 18.75,-168 104.5,-168 104.5,-187.25"/>
<text text-anchor="middle" x="61.62" y="-173.75" font-family="Helvetica,sans-Serif" font-size="10.00">lstr_init_from_fd</text>
</a>
</g>
</g>
<!-- Node123&#45;&gt;Node129 -->
<g id="edge37_Node000123_Node000129" class="edge">
<title>Node123&#45;&gt;Node129</title>
<g id="a_edge37_Node000123_Node000129"><a xlink:title=" ">
<path fill="none" stroke="#63b8ff" d="M163.9,-165.12C144.61,-167.5 123.04,-170.17 104.78,-172.42"/>
<polygon fill="#63b8ff" stroke="#63b8ff" points="164.27,-168.6 173.76,-163.9 163.41,-161.65 164.27,-168.6"/>
</a>
</g>
</g>
<!-- Node161 -->
<g id="Node000161" class="node">
<title>Node161</title>
<g id="a_Node000161"><a xlink:href="../../dd/dfc/iopc-parser_8c.html#a64a42871e5e42b8747435081b26268a7" target="_top" xlink:title=" ">
<polygon fill="#fff0f0" stroke="red" points="111.25,-150.25 12,-150.25 12,-131 111.25,-131 111.25,-150.25"/>
<text text-anchor="middle" x="61.62" y="-136.75" font-family="Helvetica,sans-Serif" font-size="10.00">parse_gen_attr_arg</text>
</a>
</g>
</g>
<!-- Node123&#45;&gt;Node161 -->
<g id="edge38_Node000123_Node000161" class="edge">
<title>Node123&#45;&gt;Node161</title>
<g id="a_edge38_Node000123_Node000161"><a xlink:title=" ">
<path fill="none" stroke="#63b8ff" d="M163.88,-152.47C146.96,-150.49 128.29,-148.31 111.64,-146.36"/>
<polygon fill="#63b8ff" stroke="#63b8ff" points="163.42,-155.94 173.76,-153.63 164.24,-148.99 163.42,-155.94"/>
</a>
</g>
</g>
<!-- Node165 -->
<g id="Node000165" class="node">
<title>Node165</title>
<g id="a_Node000165"><a xlink:href="../../d0/dee/str-stream_8c.html#a7b7448ece4ca50bf67455d06b4a67428" target="_top" xlink:title=" ">
<polygon fill="#fff0f0" stroke="red" points="123.25,-113.25 0,-113.25 0,-94 123.25,-94 123.25,-113.25"/>
<text text-anchor="middle" x="61.62" y="-99.75" font-family="Helvetica,sans-Serif" font-size="10.00">ps_get_csv_quoted_field</text>
</a>
</g>
</g>
<!-- Node123&#45;&gt;Node165 -->
<g id="edge39_Node000123_Node000165" class="edge">
<title>Node123&#45;&gt;Node165</title>
<g id="a_edge39_Node000123_Node000165"><a xlink:title=" ">
<path fill="none" stroke="#63b8ff" d="M182.63,-144.34C165.05,-137.15 143.15,-128.51 123.25,-121.62 115.26,-118.86 106.59,-116.13 98.38,-113.66"/>
<polygon fill="#63b8ff" stroke="#63b8ff" points="180.98,-147.45 191.56,-148.03 183.65,-140.98 180.98,-147.45"/>
</a>
</g>
</g>
<!-- Node167 -->
<g id="Node000167" class="node">
<title>Node167</title>
<g id="a_Node000167"><a xlink:href="../../d0/dee/str-stream_8c.html#a208bdaf2ce7ce08dc17ea6e48c981dbe" target="_top" xlink:title=" ">
<polygon fill="white" stroke="#666666" points="107.5,-76.25 15.75,-76.25 15.75,-57 107.5,-57 107.5,-76.25"/>
<text text-anchor="middle" x="61.62" y="-62.75" font-family="Helvetica,sans-Serif" font-size="10.00">ps_split_escaped</text>
</a>
</g>
</g>
<!-- Node123&#45;&gt;Node167 -->
<g id="edge40_Node000123_Node000167" class="edge">
<title>Node123&#45;&gt;Node167</title>
<g id="a_edge40_Node000123_Node000167"><a xlink:title=" ">
<path fill="none" stroke="#63b8ff" d="M198.26,-140.6C180.47,-123.94 151.98,-99.57 123.25,-84.62 117.31,-81.53 110.76,-78.89 104.22,-76.67"/>
<polygon fill="#63b8ff" stroke="#63b8ff" points="195.79,-143.09 205.43,-147.48 200.63,-138.03 195.79,-143.09"/>
</a>
</g>
</g>
<!-- Node168 -->
<g id="Node000168" class="node">
<title>Node168</title>
<g id="a_Node000168"><a xlink:href="../../dd/d4a/net_2http_8c.html#ab79164279547a8a8ff15ced069acc64d" target="_top" xlink:title=" ">
<polygon fill="#fff0f0" stroke="red" points="115,-39.25 8.25,-39.25 8.25,-20 115,-20 115,-39.25"/>
<text text-anchor="middle" x="61.62" y="-25.75" font-family="Helvetica,sans-Serif" font-size="10.00">z_http2_reply_ok_big</text>
</a>
</g>
</g>
<!-- Node123&#45;&gt;Node168 -->
<g id="edge41_Node000123_Node000168" class="edge">
<title>Node123&#45;&gt;Node168</title>
<g id="a_edge41_Node000123_Node000168"><a xlink:title=" ">
<path fill="none" stroke="#63b8ff" d="M205.03,-138.87C189.57,-113.97 159.74,-71.55 123.25,-47.62 118.48,-44.49 113.14,-41.89 107.67,-39.74"/>
<polygon fill="#63b8ff" stroke="#63b8ff" points="201.98,-140.59 210.14,-147.35 207.98,-136.98 201.98,-140.59"/>
</a>
</g>
</g>
<!-- Node170 -->
<g id="Node000170" class="node">
<title>Node170</title>
<g id="a_Node000170"><a xlink:href="../../df/d0a/str-l_8h.html#a01cc59c102b8ab53b844533669623b28" target="_top" xlink:title="sets \v dst to a new libc allocated lstr from its arguments.">
<polygon fill="#fff0f0" stroke="red" points="393.38,-130.25 338.38,-130.25 338.38,-111 393.38,-111 393.38,-130.25"/>
<text text-anchor="middle" x="365.88" y="-116.75" font-family="Helvetica,sans-Serif" font-size="10.00">lstr_copy</text>
</a>
</g>
</g>
<!-- Node169&#45;&gt;Node170 -->
<g id="edge43_Node000169_Node000170" class="edge">
<title>Node169&#45;&gt;Node170</title>
<g id="a_edge43_Node000169_Node000170"><a xlink:title=" ">
<path fill="none" stroke="#63b8ff" d="M466.27,-95.56C442.18,-101.64 413.78,-108.8 393.52,-113.91"/>
<polygon fill="#63b8ff" stroke="#63b8ff" points="467.04,-98.98 475.88,-93.14 465.33,-92.19 467.04,-98.98"/>
</a>
</g>
</g>
<!-- Node186 -->
<g id="Node000186" class="node">
<title>Node186</title>
<g id="a_Node000186"><a xlink:href="../../df/d0a/str-l_8h.html#ae0f507fbb687fe874866d4f75b7ad245" target="_top" xlink:title="sets \v dst to a mem stack allocated copy of its arguments.">
<polygon fill="white" stroke="#666666" points="397.5,-93.25 334.25,-93.25 334.25,-74 397.5,-74 397.5,-93.25"/>
<text text-anchor="middle" x="365.88" y="-79.75" font-family="Helvetica,sans-Serif" font-size="10.00">t_lstr_copy</text>
</a>
</g>
</g>
<!-- Node169&#45;&gt;Node186 -->
<g id="edge44_Node000169_Node000186" class="edge">
<title>Node169&#45;&gt;Node186</title>
<g id="a_edge44_Node000169_Node000186"><a xlink:title=" ">
<path fill="none" stroke="#63b8ff" d="M466.02,-83.62C443.63,-83.62 417.56,-83.62 397.77,-83.62"/>
<polygon fill="#63b8ff" stroke="#63b8ff" points="465.84,-87.13 475.84,-83.63 465.84,-80.13 465.84,-87.13"/>
</a>
</g>
</g>
<!-- Node188 -->
<g id="Node000188" class="node">
<title>Node188</title>
<g id="a_Node000188"><a xlink:href="../../df/d0a/str-l_8h.html#acd0eeba65b88d154fc0cb0f7304bf0a1" target="_top" xlink:title="sets \v dst to a new libc allocated lstr from its arguments.">
<polygon fill="white" stroke="#666666" points="396,-56.25 335.75,-56.25 335.75,-37 396,-37 396,-56.25"/>
<text text-anchor="middle" x="365.88" y="-42.75" font-family="Helvetica,sans-Serif" font-size="10.00">lstr_copys</text>
</a>
</g>
</g>
<!-- Node187&#45;&gt;Node188 -->
<g id="edge46_Node000187_Node000188" class="edge">
<title>Node187&#45;&gt;Node188</title>
<g id="a_edge46_Node000187_Node000188"><a xlink:title=" ">
<path fill="none" stroke="#63b8ff" d="M463.33,-46.62C440.96,-46.62 415.4,-46.62 396.22,-46.62"/>
<polygon fill="#63b8ff" stroke="#63b8ff" points="463.17,-50.13 473.17,-46.63 463.17,-43.13 463.17,-50.13"/>
</a>
</g>
</g>
<!-- Node189 -->
<g id="Node000189" class="node">
<title>Node189</title>
<g id="a_Node000189"><a xlink:href="../../df/d0a/str-l_8h.html#a0039c01a214e142b51f96d7939fd66ab" target="_top" xlink:title="sets \v dst to a mem stack allocated copy of its arguments.">
<polygon fill="white" stroke="#666666" points="400.12,-19.25 331.62,-19.25 331.62,0 400.12,0 400.12,-19.25"/>
<text text-anchor="middle" x="365.88" y="-5.75" font-family="Helvetica,sans-Serif" font-size="10.00">t_lstr_copys</text>
</a>
</g>
</g>
<!-- Node187&#45;&gt;Node189 -->
<g id="edge47_Node000187_Node000189" class="edge">
<title>Node187&#45;&gt;Node189</title>
<g id="a_edge47_Node000187_Node000189"><a xlink:title=" ">
<path fill="none" stroke="#63b8ff" d="M463.76,-34.05C442.92,-28.8 419.24,-22.83 400.51,-18.1"/>
<polygon fill="#63b8ff" stroke="#63b8ff" points="462.66,-37.39 473.22,-36.44 464.38,-30.6 462.66,-37.39"/>
</a>
</g>
</g>
<!-- Node191 -->
<g id="Node000191" class="node">
<title>Node191</title>
<g id="a_Node000191"><a xlink:href="../../df/d0a/str-l_8h.html#ad74dae07179370f3c22e3f026157926e" target="_top" xlink:title="wipe a lstr_t (frees memory if needed).">
<polygon fill="#fff0f0" stroke="red" points="393.38,-206.25 338.38,-206.25 338.38,-187 393.38,-187 393.38,-206.25"/>
<text text-anchor="middle" x="365.88" y="-192.75" font-family="Helvetica,sans-Serif" font-size="10.00">lstr_wipe</text>
</a>
</g>
</g>
<!-- Node190&#45;&gt;Node191 -->
<g id="edge49_Node000190_Node000191" class="edge">
<title>Node190&#45;&gt;Node191</title>
<g id="a_edge49_Node000190_Node000191"><a xlink:title=" ">
<path fill="none" stroke="#63b8ff" d="M465.95,-196.62C441.92,-196.62 413.69,-196.62 393.52,-196.62"/>
<polygon fill="#63b8ff" stroke="#63b8ff" points="465.84,-200.13 475.84,-196.63 465.84,-193.13 465.84,-200.13"/>
</a>
</g>
</g>
<!-- Node191&#45;&gt;Node119 -->
<g id="edge50_Node000191_Node000119" class="edge">
<title>Node191&#45;&gt;Node119</title>
<g id="a_edge50_Node000191_Node000119"><a xlink:title=" ">
<path fill="none" stroke="#63b8ff" d="M327.26,-208.21C321.97,-210.17 316.67,-212.32 311.75,-214.62 282.19,-228.46 250.26,-249.43 232.48,-261.71"/>
<polygon fill="#63b8ff" stroke="#63b8ff" points="328.23,-211.57 336.51,-204.97 325.91,-204.97 328.23,-211.57"/>
</a>
</g>
</g>
<!-- Node191&#45;&gt;Node123 -->
<g id="edge52_Node000191_Node000123" class="edge">
<title>Node191&#45;&gt;Node123</title>
<g id="a_edge52_Node000191_Node000123"><a xlink:title=" ">
<path fill="none" stroke="#63b8ff" d="M327.05,-186.81C305.63,-181.25 278.89,-174.3 257.31,-168.7"/>
<polygon fill="#63b8ff" stroke="#63b8ff" points="326,-190.15 336.56,-189.27 327.76,-183.37 326,-190.15"/>
</a>
</g>
</g>
<!-- Node191&#45;&gt;Node124 -->
<g id="edge51_Node000191_Node000124" class="edge">
<title>Node191&#45;&gt;Node124</title>
<g id="a_edge51_Node000191_Node000124"><a xlink:title=" ">
<path fill="none" stroke="#63b8ff" d="M327.03,-204.26C275.15,-214.73 181.46,-233.64 120.68,-245.91"/>
<polygon fill="#63b8ff" stroke="#63b8ff" points="327.46,-207.75 336.57,-202.34 326.07,-200.89 327.46,-207.75"/>
</a>
</g>
</g>
</g>
</svg>
