<?xml version="1.0" encoding="UTF-8" standalone="no"?>
<!DOCTYPE svg PUBLIC "-//W3C//DTD SVG 1.1//EN"
 "http://www.w3.org/Graphics/SVG/1.1/DTD/svg11.dtd">
<!-- Generated by graphviz version 9.0.0 (20230911.1827)
 -->
<!-- Title: mem_ring_new Pages: 1 -->
<!--zoomable 489 -->

<svg id="main" version="1.1" xmlns="http://www.w3.org/2000/svg" xmlns:xlink="http://www.w3.org/1999/xlink" xml:space="preserve" onload="init(evt)">
<style type="text/css"><![CDATA[
.node, .edge {opacity: 0.7;}
.node.selected, .edge.selected {opacity: 1;}
.edge:hover path { stroke: red; }
.edge:hover polygon { stroke: red; fill: red; }
]]></style>

<defs>
  <circle id="rim" cx="0" cy="0" r="7"/>
  <circle id="rim2" cx="0" cy="0" r="3.5"/>
  <g id="zoomPlus">
    <use xlink:href="#rim" fill="#404040"><set attributeName="fill" to="#808080" begin="zoomplus.mouseover" end="zoomplus.mouseout"/></use>
    <path d="M-4,0h8M0,-4v8" fill="none" stroke="white" stroke-width="1.5" pointer-events="none"/>
  </g>
  <g id="zoomMin">
    <use xlink:href="#rim" fill="#404040"><set attributeName="fill" to="#808080" begin="zoomminus.mouseover" end="zoomminus.mouseout"/></use>
    <path d="M-4,0h8" fill="none" stroke="white" stroke-width="1.5" pointer-events="none"/>
  </g>
  <g id="arrowUp" transform="translate(30 24)">
    <use xlink:href="#rim"/>
    <path pointer-events="none" fill="none" stroke="white" stroke-width="1.5" d="M0,-3.0v7 M-2.5,-0.5L0,-3.0L2.5,-0.5"/>
  </g>
  <g id="arrowRight" transform="rotate(90) translate(36 -43)">
    <use xlink:href="#rim"/>
    <path pointer-events="none" fill="none" stroke="white" stroke-width="1.5" d="M0,-3.0v7 M-2.5,-0.5L0,-3.0L2.5,-0.5"/>
  </g>
  <g id="arrowDown" transform="rotate(180) translate(-30 -48)">
    <use xlink:href="#rim"/>
    <path pointer-events="none" fill="none" stroke="white" stroke-width="1.5" d="M0,-3.0v7 M-2.5,-0.5L0,-3.0L2.5,-0.5"/>
  </g>
  <g id="arrowLeft" transform="rotate(270) translate(-36 17)">
    <use xlink:href="#rim"/>
    <path pointer-events="none" fill="none" stroke="white" stroke-width="1.5" d="M0,-3.0v7 M-2.5,-0.5L0,-3.0L2.5,-0.5"/>
  </g>
  <g id="resetDef">
    <use xlink:href="#rim2" fill="#404040"><set attributeName="fill" to="#808080" begin="reset.mouseover" end="reset.mouseout"/></use>
  </g>
</defs>
<script type="application/ecmascript">
var viewWidth = 1949;
var viewHeight = 489;
var sectionId = 'dynsection-38';
</script>
<script type="application/ecmascript" xlink:href="../../svg.min.js"/>
<svg id="graph" class="graph">
<g id="viewport">
<title>mem_ring_new</title>
<!-- Node1 -->
<g id="Node000001" class="node">
<title>Node1</title>
<g id="a_Node000001"><a xlink:title="Create a new memory ring&#45;pool.">
<polygon fill="#999999" stroke="#666666" points="82,-94.25 0,-94.25 0,-75 82,-75 82,-94.25"/>
<text text-anchor="middle" x="41" y="-80.75" font-family="Helvetica,sans-Serif" font-size="10.00">mem_ring_new</text>
</a>
</g>
</g>
<!-- Node2 -->
<g id="Node000002" class="node">
<title>Node2</title>
<g id="a_Node000002"><a xlink:href="../../de/ddd/mem-ring_8c.html#ac95c93f6aa1232001fa44a61e8b46f70" target="_top" xlink:title=" ">
<polygon fill="white" stroke="#666666" points="211.62,-227.25 150.62,-227.25 150.62,-208 211.62,-208 211.62,-227.25"/>
<text text-anchor="middle" x="181.12" y="-213.75" font-family="Helvetica,sans-Serif" font-size="10.00">blk_create</text>
</a>
</g>
</g>
<!-- Node1&#45;&gt;Node2 -->
<g id="edge1_Node000001_Node000002" class="edge">
<title>Node1&#45;&gt;Node2</title>
<g id="a_edge1_Node000001_Node000002"><a xlink:title=" ">
<path fill="none" stroke="#63b8ff" d="M52.38,-94.62C75.58,-116.96 131.89,-171.18 161.39,-199.59"/>
<polygon fill="#63b8ff" stroke="#63b8ff" points="158.9,-202.05 168.53,-206.46 163.76,-197.01 158.9,-202.05"/>
</a>
</g>
</g>
<!-- Node6 -->
<g id="Node000006" class="node">
<title>Node6</title>
<g id="a_Node000006"><a xlink:href="../../de/d1a/container-dlist_8h.html#a0a69e401f6ec15966c891e96ad864c77" target="_top" xlink:title="Put a dlist_t element in a safe and detached state.">
<polygon fill="white" stroke="#666666" points="1297.75,-170.25 1245.75,-170.25 1245.75,-151 1297.75,-151 1297.75,-170.25"/>
<text text-anchor="middle" x="1271.75" y="-156.75" font-family="Helvetica,sans-Serif" font-size="10.00">dlist_init</text>
</a>
</g>
</g>
<!-- Node1&#45;&gt;Node6 -->
<g id="edge47_Node000001_Node000006" class="edge">
<title>Node1&#45;&gt;Node6</title>
<g id="a_edge47_Node000001_Node000006"><a xlink:title=" ">
<path fill="none" stroke="#63b8ff" d="M82.34,-93.53C136.81,-104.77 237.04,-122.62 323.62,-122.62 323.62,-122.62 323.62,-122.62 989.5,-122.62 1078.09,-122.62 1180.98,-141.37 1234.38,-152.53"/>
<polygon fill="#63b8ff" stroke="#63b8ff" points="1233.32,-155.88 1243.83,-154.54 1234.78,-149.04 1233.32,-155.88"/>
</a>
</g>
</g>
<!-- Node37 -->
<g id="Node000037" class="node">
<title>Node37</title>
<g id="a_Node000037"><a xlink:href="../../de/d1a/container-dlist_8h.html#a66c1c2e99436b710c76a19f5ad5333c6" target="_top" xlink:title="Add a new element e at the tail of list l (suited for FIFO).">
<polygon fill="white" stroke="#666666" points="361.12,-94.25 288.12,-94.25 288.12,-75 361.12,-75 361.12,-94.25"/>
<text text-anchor="middle" x="324.62" y="-80.75" font-family="Helvetica,sans-Serif" font-size="10.00">dlist_add_tail</text>
</a>
</g>
</g>
<!-- Node1&#45;&gt;Node37 -->
<g id="edge45_Node000001_Node000037" class="edge">
<title>Node1&#45;&gt;Node37</title>
<g id="a_edge45_Node000001_Node000037"><a xlink:title=" ">
<path fill="none" stroke="#63b8ff" d="M82.35,-84.62C133.64,-84.62 222.05,-84.62 276.42,-84.62"/>
<polygon fill="#63b8ff" stroke="#63b8ff" points="276.3,-88.13 286.3,-84.63 276.3,-81.13 276.3,-88.13"/>
</a>
</g>
</g>
<!-- Node38 -->
<g id="Node000038" class="node">
<title>Node38</title>
<g id="a_Node000038"><a xlink:href="../../d8/d37/mem_8blk.html#ab1e585a4f25d3d3c3dd6512cf31f923e" target="_top" xlink:title=" ">
<polygon fill="white" stroke="#666666" points="244.25,-19.25 118,-19.25 118,0 244.25,0 244.25,-19.25"/>
<text text-anchor="middle" x="181.12" y="-5.75" font-family="Helvetica,sans-Serif" font-size="10.00">mem_tool_allow_memory</text>
</a>
</g>
</g>
<!-- Node1&#45;&gt;Node38 -->
<g id="edge48_Node000001_Node000038" class="edge">
<title>Node1&#45;&gt;Node38</title>
<g id="a_edge48_Node000001_Node000038"><a xlink:title=" ">
<path fill="none" stroke="#63b8ff" d="M52.49,-74.77C66.44,-62.16 92.32,-40.44 118,-27.62 120.87,-26.19 123.88,-24.85 126.95,-23.61"/>
<polygon fill="#63b8ff" stroke="#63b8ff" points="127.96,-26.97 136.15,-20.24 125.55,-20.39 127.96,-26.97"/>
</a>
</g>
</g>
<!-- Node39 -->
<g id="Node000039" class="node">
<title>Node39</title>
<g id="a_Node000039"><a xlink:href="../../de/ddd/mem-ring_8c.html#ad6ba8e24fa3e20e0c9dd80ef1717628a" target="_top" xlink:title=" ">
<polygon fill="white" stroke="#666666" points="226.62,-56.25 135.62,-56.25 135.62,-37 226.62,-37 226.62,-56.25"/>
<text text-anchor="middle" x="181.12" y="-42.75" font-family="Helvetica,sans-Serif" font-size="10.00">ring_setup_frame</text>
</a>
</g>
</g>
<!-- Node1&#45;&gt;Node39 -->
<g id="edge49_Node000001_Node000039" class="edge">
<title>Node1&#45;&gt;Node39</title>
<g id="a_edge49_Node000001_Node000039"><a xlink:title=" ">
<path fill="none" stroke="#63b8ff" d="M78.65,-74.54C95.25,-69.97 115.08,-64.52 132.79,-59.65"/>
<polygon fill="#63b8ff" stroke="#63b8ff" points="133.61,-63.05 142.32,-57.03 131.75,-56.3 133.61,-63.05"/>
</a>
</g>
</g>
<!-- Node3 -->
<g id="Node000003" class="node">
<title>Node3</title>
<g id="a_Node000003"><a xlink:href="../../de/d1a/container-dlist_8h.html#a151d7b2b783db55c1add882b6eb3609f" target="_top" xlink:title="Add a new element n after an element e.">
<polygon fill="white" stroke="#666666" points="491.88,-189.25 412.12,-189.25 412.12,-170 491.88,-170 491.88,-189.25"/>
<text text-anchor="middle" x="452" y="-175.75" font-family="Helvetica,sans-Serif" font-size="10.00">dlist_add_after</text>
</a>
</g>
</g>
<!-- Node2&#45;&gt;Node3 -->
<g id="edge2_Node000002_Node000003" class="edge">
<title>Node2&#45;&gt;Node3</title>
<g id="a_edge2_Node000002_Node000003"><a xlink:title=" ">
<path fill="none" stroke="#63b8ff" d="M201.78,-207.51C221.15,-198.16 251.88,-184.93 280.25,-179.62 320.17,-172.16 366.27,-172.69 400.5,-174.79"/>
<polygon fill="#63b8ff" stroke="#63b8ff" points="399.9,-178.26 410.12,-175.45 400.38,-171.27 399.9,-178.26"/>
</a>
</g>
</g>
<!-- Node2&#45;&gt;Node6 -->
<g id="edge5_Node000002_Node000006" class="edge">
<title>Node2&#45;&gt;Node6</title>
<g id="a_edge5_Node000002_Node000006"><a xlink:title=" ">
<path fill="none" stroke="#63b8ff" d="M211.92,-221.11C261.46,-226.6 363.96,-236.62 451,-236.62 451,-236.62 451,-236.62 879.38,-236.62 949.05,-236.62 1151.17,-189.63 1234.34,-169.55"/>
<polygon fill="#63b8ff" stroke="#63b8ff" points="1235.13,-172.96 1244.02,-167.2 1233.48,-166.16 1235.13,-172.96"/>
</a>
</g>
</g>
<!-- Node7 -->
<g id="Node000007" class="node">
<title>Node7</title>
<g id="a_Node000007"><a xlink:href="../../d8/d37/mem_8blk.html#a8e4fbf6500e65079c31e3fd933ae7dc1" target="_top" xlink:title=" ">
<polygon fill="white" stroke="#666666" points="796.12,-359.25 726.12,-359.25 726.12,-340 796.12,-340 796.12,-359.25"/>
<text text-anchor="middle" x="761.12" y="-345.75" font-family="Helvetica,sans-Serif" font-size="10.00">icheck_alloc</text>
</a>
</g>
</g>
<!-- Node2&#45;&gt;Node7 -->
<g id="edge6_Node000002_Node000007" class="edge">
<title>Node2&#45;&gt;Node7</title>
<g id="a_edge6_Node000002_Node000007"><a xlink:title=" ">
<path fill="none" stroke="#63b8ff" d="M188.79,-227.69C202.87,-247.99 237.87,-293.54 280.25,-312.62 427.73,-379.03 626.52,-366.17 714.73,-355.95"/>
<polygon fill="#63b8ff" stroke="#63b8ff" points="714.91,-359.45 724.42,-354.77 714.07,-352.5 714.91,-359.45"/>
</a>
</g>
</g>
<!-- Node29 -->
<g id="Node000029" class="node">
<title>Node29</title>
<g id="a_Node000029"><a xlink:href="../../d9/d9a/mem_8h.html#afc189a91af4554a8ac93a9b5bb7d9cc8" target="_top" xlink:title=" ">
<polygon fill="white" stroke="#666666" points="348,-303.25 301.25,-303.25 301.25,-284 348,-284 348,-303.25"/>
<text text-anchor="middle" x="324.62" y="-289.75" font-family="Helvetica,sans-Serif" font-size="10.00">imalloc</text>
</a>
</g>
</g>
<!-- Node2&#45;&gt;Node29 -->
<g id="edge35_Node000002_Node000029" class="edge">
<title>Node2&#45;&gt;Node29</title>
<g id="a_edge35_Node000002_Node000029"><a xlink:title=" ">
<path fill="none" stroke="#63b8ff" d="M200.92,-227.72C225.05,-240.68 267.15,-263.29 295.21,-278.36"/>
<polygon fill="#63b8ff" stroke="#63b8ff" points="293.41,-281.37 303.87,-283.02 296.72,-275.2 293.41,-281.37"/>
</a>
</g>
</g>
<!-- Node36 -->
<g id="Node000036" class="node">
<title>Node36</title>
<g id="a_Node000036"><a xlink:href="../../de/ddd/mem-ring_8c.html#af15b2a73e5d3dbc3ffbcbac62ae27646" target="_top" xlink:title=" ">
<polygon fill="white" stroke="#666666" points="364.12,-208.25 285.12,-208.25 285.12,-189 364.12,-189 364.12,-208.25"/>
<text text-anchor="middle" x="324.62" y="-194.75" font-family="Helvetica,sans-Serif" font-size="10.00">rp_alloc_mean</text>
</a>
</g>
</g>
<!-- Node2&#45;&gt;Node36 -->
<g id="edge44_Node000002_Node000036" class="edge">
<title>Node2&#45;&gt;Node36</title>
<g id="a_edge44_Node000002_Node000036"><a xlink:title=" ">
<path fill="none" stroke="#63b8ff" d="M211.79,-213.64C229.7,-211.24 253,-208.11 273.68,-205.33"/>
<polygon fill="#63b8ff" stroke="#63b8ff" points="273.91,-208.83 283.36,-204.03 272.98,-201.89 273.91,-208.83"/>
</a>
</g>
</g>
<!-- Node4 -->
<g id="Node000004" class="node">
<title>Node4</title>
<g id="a_Node000004"><a xlink:href="../../de/d1a/container-dlist_8h.html#a3b6f65860b212e28f2e28e71eb54d54d" target="_top" xlink:title="Add element e at the head of list l (suited for LIFO).">
<polygon fill="white" stroke="#666666" points="1299.25,-208.25 1244.25,-208.25 1244.25,-189 1299.25,-189 1299.25,-208.25"/>
<text text-anchor="middle" x="1271.75" y="-194.75" font-family="Helvetica,sans-Serif" font-size="10.00">dlist_add</text>
</a>
</g>
</g>
<!-- Node3&#45;&gt;Node4 -->
<g id="edge3_Node000003_Node000004" class="edge">
<title>Node3&#45;&gt;Node4</title>
<g id="a_edge3_Node000003_Node000004"><a xlink:title=" ">
<path fill="none" stroke="#63b8ff" d="M492.22,-183.61C550.57,-189.18 663.7,-198.62 760.12,-198.62 760.12,-198.62 760.12,-198.62 989.5,-198.62 1076.43,-198.62 1178.48,-198.62 1232.57,-198.62"/>
<polygon fill="#63b8ff" stroke="#63b8ff" points="1232.48,-202.13 1242.48,-198.63 1232.48,-195.13 1232.48,-202.13"/>
</a>
</g>
</g>
<!-- Node5 -->
<g id="Node000005" class="node">
<title>Node5</title>
<g id="a_Node000005"><a xlink:href="../../de/d1a/container-dlist_8h.html#a71e7667ca0e4b896923788c5851afd24" target="_top" xlink:title="Put element e between prev and next.">
<polygon fill="white" stroke="#666666" points="1448,-151.25 1382.5,-151.25 1382.5,-132 1448,-132 1448,-151.25"/>
<text text-anchor="middle" x="1415.25" y="-137.75" font-family="Helvetica,sans-Serif" font-size="10.00">__dlist_add</text>
</a>
</g>
</g>
<!-- Node4&#45;&gt;Node5 -->
<g id="edge4_Node000004_Node000005" class="edge">
<title>Node4&#45;&gt;Node5</title>
<g id="a_edge4_Node000004_Node000005"><a xlink:title=" ">
<path fill="none" stroke="#63b8ff" d="M1299.51,-191.47C1310.69,-188.23 1323.73,-184.12 1335.25,-179.62 1352.25,-173 1370.66,-164.24 1385.42,-156.81"/>
<polygon fill="#63b8ff" stroke="#63b8ff" points="1386.8,-160.03 1394.11,-152.36 1383.61,-153.8 1386.8,-160.03"/>
</a>
</g>
</g>
<!-- Node8 -->
<g id="Node000008" class="node">
<title>Node8</title>
<g id="a_Node000008"><a xlink:href="../../d7/df8/log_8c.html#abca342edf91a9b45f7a17ef564fa8a53" target="_top" xlink:title=" ">
<polygon fill="white" stroke="#666666" points="903.25,-359.25 853.5,-359.25 853.5,-340 903.25,-340 903.25,-359.25"/>
<text text-anchor="middle" x="878.38" y="-345.75" font-family="Helvetica,sans-Serif" font-size="10.00">e_panic</text>
</a>
</g>
</g>
<!-- Node7&#45;&gt;Node8 -->
<g id="edge7_Node000007_Node000008" class="edge">
<title>Node7&#45;&gt;Node8</title>
<g id="a_edge7_Node000007_Node000008"><a xlink:title=" ">
<path fill="none" stroke="#63b8ff" d="M796.39,-349.62C810.84,-349.62 827.65,-349.62 842.2,-349.62"/>
<polygon fill="#63b8ff" stroke="#63b8ff" points="841.78,-353.13 851.78,-349.63 841.78,-346.13 841.78,-353.13"/>
</a>
</g>
</g>
<!-- Node9 -->
<g id="Node000009" class="node">
<title>Node9</title>
<g id="a_Node000009"><a xlink:href="../../d7/df8/log_8c.html#a4bc04f7baa1e064cb0b93c7b9f3a61a1" target="_top" xlink:title=" ">
<polygon fill="white" stroke="#666666" points="1032.5,-321.25 944.5,-321.25 944.5,-302 1032.5,-302 1032.5,-321.25"/>
<text text-anchor="middle" x="988.5" y="-307.75" font-family="Helvetica,sans-Serif" font-size="10.00">__logger_refresh</text>
</a>
</g>
</g>
<!-- Node8&#45;&gt;Node9 -->
<g id="edge8_Node000008_Node000009" class="edge">
<title>Node8&#45;&gt;Node9</title>
<g id="a_edge8_Node000008_Node000009"><a xlink:title=" ">
<path fill="none" stroke="#63b8ff" d="M903.64,-341.1C916.77,-336.48 933.3,-330.67 948.21,-325.43"/>
<polygon fill="#63b8ff" stroke="#63b8ff" points="949.01,-328.86 957.28,-322.24 946.69,-322.26 949.01,-328.86"/>
</a>
</g>
</g>
<!-- Node24 -->
<g id="Node000024" class="node">
<title>Node24</title>
<g id="a_Node000024"><a xlink:href="../../d7/df8/log_8c.html#a900490b26df7698aac12f7f7e6517e81" target="_top" xlink:title=" ">
<polygon fill="white" stroke="#666666" points="1021.25,-376.25 955.75,-376.25 955.75,-357 1021.25,-357 1021.25,-376.25"/>
<text text-anchor="middle" x="988.5" y="-362.75" font-family="Helvetica,sans-Serif" font-size="10.00">logger_vlog</text>
</a>
</g>
</g>
<!-- Node8&#45;&gt;Node24 -->
<g id="edge29_Node000008_Node000024" class="edge">
<title>Node8&#45;&gt;Node24</title>
<g id="a_edge29_Node000008_Node000024"><a xlink:title=" ">
<path fill="none" stroke="#63b8ff" d="M903.64,-353.44C915.61,-355.32 930.41,-357.65 944.22,-359.82"/>
<polygon fill="#63b8ff" stroke="#63b8ff" points="943.6,-363.27 954.02,-361.36 944.69,-356.35 943.6,-363.27"/>
</a>
</g>
</g>
<!-- Node28 -->
<g id="Node000028" class="node">
<title>Node28</title>
<g id="a_Node000028"><a xlink:href="../../d2/d4d/file_8h.html#a25419a391fdd4ad7954699c58cfeb3b9" target="_top" xlink:title=" ">
<polygon fill="white" stroke="#666666" points="1014.12,-284.25 962.88,-284.25 962.88,-265 1014.12,-265 1014.12,-284.25"/>
<text text-anchor="middle" x="988.5" y="-270.75" font-family="Helvetica,sans-Serif" font-size="10.00">va_start</text>
</a>
</g>
</g>
<!-- Node8&#45;&gt;Node28 -->
<g id="edge34_Node000008_Node000028" class="edge">
<title>Node8&#45;&gt;Node28</title>
<g id="a_edge34_Node000008_Node000028"><a xlink:title=" ">
<path fill="none" stroke="#63b8ff" d="M896.18,-339.62C900.34,-336.89 904.7,-333.8 908.5,-330.62 926.36,-315.72 925.36,-305.85 944.5,-292.62 946.89,-290.98 949.45,-289.43 952.1,-288"/>
<polygon fill="#63b8ff" stroke="#63b8ff" points="953.6,-291.16 961.11,-283.69 950.58,-284.85 953.6,-291.16"/>
</a>
</g>
</g>
<!-- Node10 -->
<g id="Node000010" class="node">
<title>Node10</title>
<g id="a_Node000010"><a xlink:href="../../d7/df8/log_8c.html#a3dbd75fb614210f0b114cfd03c9c0a7b" target="_top" xlink:title=" ">
<polygon fill="white" stroke="#666666" points="1172.25,-320.25 1068.5,-320.25 1068.5,-301 1172.25,-301 1172.25,-320.25"/>
<text text-anchor="middle" x="1120.38" y="-306.75" font-family="Helvetica,sans-Serif" font-size="10.00">__logger_do_refresh</text>
</a>
</g>
</g>
<!-- Node9&#45;&gt;Node10 -->
<g id="edge9_Node000009_Node000010" class="edge">
<title>Node9&#45;&gt;Node10</title>
<g id="a_edge9_Node000009_Node000010"><a xlink:title=" ">
<path fill="none" stroke="#63b8ff" d="M1032.75,-311.29C1040.47,-311.23 1048.66,-311.17 1056.79,-311.11"/>
<polygon fill="#63b8ff" stroke="#63b8ff" points="1056.72,-314.61 1066.7,-311.03 1056.67,-307.61 1056.72,-314.61"/>
</a>
</g>
</g>
<!-- Node22 -->
<g id="Node000022" class="node">
<title>Node22</title>
<g id="a_Node000022"><a xlink:href="../../d7/df8/log_8c.html#a7b1b02d1986e1247c2f571af4a2c2854" target="_top" xlink:title=" ">
<polygon fill="white" stroke="#666666" points="1158,-246.25 1082.75,-246.25 1082.75,-227 1158,-227 1158,-246.25"/>
<text text-anchor="middle" x="1120.38" y="-232.75" font-family="Helvetica,sans-Serif" font-size="10.00">log_spin_lock</text>
</a>
</g>
</g>
<!-- Node9&#45;&gt;Node22 -->
<g id="edge27_Node000009_Node000022" class="edge">
<title>Node9&#45;&gt;Node22</title>
<g id="a_edge27_Node000009_Node000022"><a xlink:title=" ">
<path fill="none" stroke="#63b8ff" d="M1018.17,-301.66C1023.15,-299.37 1028.12,-296.69 1032.5,-293.62 1051.82,-280.09 1048.8,-267.61 1068.5,-254.62 1070.11,-253.56 1071.8,-252.55 1073.53,-251.6"/>
<polygon fill="#63b8ff" stroke="#63b8ff" points="1074.94,-254.8 1082.46,-247.33 1071.93,-248.48 1074.94,-254.8"/>
</a>
</g>
</g>
<!-- Node23 -->
<g id="Node000023" class="node">
<title>Node23</title>
<g id="a_Node000023"><a xlink:href="../../d1/dc0/group__log.html#ga045020bb4af234632f7761f220131c69" target="_top" xlink:title=" ">
<polygon fill="white" stroke="#666666" points="1163.25,-283.25 1077.5,-283.25 1077.5,-264 1163.25,-264 1163.25,-283.25"/>
<text text-anchor="middle" x="1120.38" y="-269.75" font-family="Helvetica,sans-Serif" font-size="10.00">log_spin_unlock</text>
</a>
</g>
</g>
<!-- Node9&#45;&gt;Node23 -->
<g id="edge28_Node000009_Node000023" class="edge">
<title>Node9&#45;&gt;Node23</title>
<g id="a_edge28_Node000009_Node000023"><a xlink:title=" ">
<path fill="none" stroke="#63b8ff" d="M1023.96,-301.54C1039.35,-297.04 1057.69,-291.67 1074.16,-286.86"/>
<polygon fill="#63b8ff" stroke="#63b8ff" points="1075.13,-290.22 1083.75,-284.05 1073.17,-283.5 1075.13,-290.22"/>
</a>
</g>
</g>
<!-- Node10&#45;&gt;Node4 -->
<g id="edge11_Node000010_Node000004" class="edge">
<title>Node10&#45;&gt;Node4</title>
<g id="a_edge11_Node000010_Node000004"><a xlink:title=" ">
<path fill="none" stroke="#63b8ff" d="M1158.67,-300.58C1163.49,-298.4 1168.17,-295.77 1172.25,-292.62 1194.8,-275.23 1187.95,-259.6 1208.25,-239.62 1218.02,-230.01 1230.37,-221.35 1241.51,-214.49"/>
<polygon fill="#63b8ff" stroke="#63b8ff" points="1243.15,-217.58 1249.99,-209.49 1239.6,-211.56 1243.15,-217.58"/>
</a>
</g>
</g>
<!-- Node10&#45;&gt;Node6 -->
<g id="edge12_Node000010_Node000006" class="edge">
<title>Node10&#45;&gt;Node6</title>
<g id="a_edge12_Node000010_Node000006"><a xlink:title=" ">
<path fill="none" stroke="#63b8ff" d="M1161.36,-300.68C1165.38,-298.51 1169.12,-295.85 1172.25,-292.62 1208.93,-254.77 1170.73,-216.65 1208.25,-179.62 1215.33,-172.64 1224.89,-168.21 1234.4,-165.41"/>
<polygon fill="#63b8ff" stroke="#63b8ff" points="1235,-168.86 1243.93,-163.15 1233.39,-162.05 1235,-168.86"/>
</a>
</g>
</g>
<!-- Node10&#45;&gt;Node10 -->
<g id="edge10_Node000010_Node000010" class="edge">
<title>Node10&#45;&gt;Node10</title>
<g id="a_edge10_Node000010_Node000010"><a xlink:title=" ">
<path fill="none" stroke="#63b8ff" d="M1099.73,-320.54C1090.31,-329.15 1097.19,-338.25 1120.38,-338.25 1133.05,-338.25 1140.85,-335.53 1143.78,-331.65"/>
<polygon fill="#63b8ff" stroke="#63b8ff" points="1147.19,-330.87 1141.39,-322.01 1140.4,-332.56 1147.19,-330.87"/>
</a>
</g>
</g>
<!-- Node11 -->
<g id="Node000011" class="node">
<title>Node11</title>
<g id="a_Node000011"><a xlink:href="../../d7/df8/log_8c.html#a4c8fbe8648573312126ce341cf34cba1" target="_top" xlink:title=" ">
<polygon fill="white" stroke="#666666" points="1335.25,-338.25 1208.25,-338.25 1208.25,-319 1335.25,-319 1335.25,-338.25"/>
<text text-anchor="middle" x="1271.75" y="-324.75" font-family="Helvetica,sans-Serif" font-size="10.00">logger_compute_fullname</text>
</a>
</g>
</g>
<!-- Node10&#45;&gt;Node11 -->
<g id="edge13_Node000010_Node000011" class="edge">
<title>Node10&#45;&gt;Node11</title>
<g id="a_edge13_Node000010_Node000011"><a xlink:title=" ">
<path fill="none" stroke="#63b8ff" d="M1172.36,-316.77C1180.21,-317.71 1188.44,-318.71 1196.66,-319.7"/>
<polygon fill="#63b8ff" stroke="#63b8ff" points="1195.99,-323.14 1206.33,-320.86 1196.82,-316.19 1195.99,-323.14"/>
</a>
</g>
</g>
<!-- Node14 -->
<g id="Node000014" class="node">
<title>Node14</title>
<g id="a_Node000014"><a xlink:href="../../df/d0a/str-l_8h.html#ad74dae07179370f3c22e3f026157926e" target="_top" xlink:title="wipe a lstr_t (frees memory if needed).">
<polygon fill="white" stroke="#666666" points="1442.75,-338.25 1387.75,-338.25 1387.75,-319 1442.75,-319 1442.75,-338.25"/>
<text text-anchor="middle" x="1415.25" y="-324.75" font-family="Helvetica,sans-Serif" font-size="10.00">lstr_wipe</text>
</a>
</g>
</g>
<!-- Node10&#45;&gt;Node14 -->
<g id="edge26_Node000010_Node000014" class="edge">
<title>Node10&#45;&gt;Node14</title>
<g id="a_edge26_Node000010_Node000014"><a xlink:title=" ">
<path fill="none" stroke="#63b8ff" d="M1152.37,-300.59C1159.01,-298.18 1165.93,-295.47 1172.25,-292.62 1188.94,-285.1 1190.53,-277.22 1208.25,-272.62 1262.89,-258.47 1281.47,-255.5 1335.25,-272.62 1358.86,-280.15 1381.48,-297.57 1396.41,-311"/>
<polygon fill="#63b8ff" stroke="#63b8ff" points="1393.86,-313.41 1403.55,-317.69 1398.65,-308.3 1393.86,-313.41"/>
</a>
</g>
</g>
<!-- Node21 -->
<g id="Node000021" class="node">
<title>Node21</title>
<g id="a_Node000021"><a xlink:href="../../df/d0a/str-l_8h.html#a963c22b229774d4b7c106bae4011cb8e" target="_top" xlink:title="Returns whether \v s1 and \v s2 contents are equal.">
<polygon fill="white" stroke="#666666" points="1300.75,-301.25 1242.75,-301.25 1242.75,-282 1300.75,-282 1300.75,-301.25"/>
<text text-anchor="middle" x="1271.75" y="-287.75" font-family="Helvetica,sans-Serif" font-size="10.00">lstr_equal</text>
</a>
</g>
</g>
<!-- Node10&#45;&gt;Node21 -->
<g id="edge25_Node000010_Node000021" class="edge">
<title>Node10&#45;&gt;Node21</title>
<g id="a_edge25_Node000010_Node000021"><a xlink:title=" ">
<path fill="none" stroke="#63b8ff" d="M1172.36,-304.14C1191.64,-301.69 1213.26,-298.94 1231.32,-296.64"/>
<polygon fill="#63b8ff" stroke="#63b8ff" points="1231.63,-300.13 1241.1,-295.4 1230.74,-293.19 1231.63,-300.13"/>
</a>
</g>
</g>
<!-- Node12 -->
<g id="Node000012" class="node">
<title>Node12</title>
<g id="a_Node000012"><a xlink:href="../../df/d0a/str-l_8h.html#a6a200ca09358f19b13a8e297cda34869" target="_top" xlink:title="returns a constant copy of \v s.">
<polygon fill="white" stroke="#666666" points="1443.12,-376.25 1387.38,-376.25 1387.38,-357 1443.12,-357 1443.12,-376.25"/>
<text text-anchor="middle" x="1415.25" y="-362.75" font-family="Helvetica,sans-Serif" font-size="10.00">lstr_dupc</text>
</a>
</g>
</g>
<!-- Node11&#45;&gt;Node12 -->
<g id="edge14_Node000011_Node000012" class="edge">
<title>Node11&#45;&gt;Node12</title>
<g id="a_edge14_Node000011_Node000012"><a xlink:title=" ">
<path fill="none" stroke="#63b8ff" d="M1310.3,-338.71C1330.65,-344.17 1355.75,-350.91 1376.18,-356.4"/>
<polygon fill="#63b8ff" stroke="#63b8ff" points="1375.27,-359.78 1385.83,-358.99 1377.08,-353.02 1375.27,-359.78"/>
</a>
</g>
</g>
<!-- Node11&#45;&gt;Node14 -->
<g id="edge16_Node000011_Node000014" class="edge">
<title>Node11&#45;&gt;Node14</title>
<g id="a_edge16_Node000011_Node000014"><a xlink:title=" ">
<path fill="none" stroke="#63b8ff" d="M1335.64,-328.62C1349.4,-328.62 1363.56,-328.62 1376.01,-328.62"/>
<polygon fill="#63b8ff" stroke="#63b8ff" points="1375.83,-332.13 1385.83,-328.63 1375.83,-325.13 1375.83,-332.13"/>
</a>
</g>
</g>
<!-- Node13 -->
<g id="Node000013" class="node">
<title>Node13</title>
<g id="a_Node000013"><a xlink:href="../../df/d0a/str-l_8h.html#a3b4dbe9c4cc70340cba0787574dc1c5e" target="_top" xlink:title=" ">
<polygon fill="white" stroke="#666666" points="1772.75,-376.25 1720,-376.25 1720,-357 1772.75,-357 1772.75,-376.25"/>
<text text-anchor="middle" x="1746.38" y="-362.75" font-family="Helvetica,sans-Serif" font-size="10.00">lstr_init_</text>
</a>
</g>
</g>
<!-- Node12&#45;&gt;Node13 -->
<g id="edge15_Node000012_Node000013" class="edge">
<title>Node12&#45;&gt;Node13</title>
<g id="a_edge15_Node000012_Node000013"><a xlink:title=" ">
<path fill="none" stroke="#63b8ff" d="M1443.46,-366.62C1502.31,-366.62 1641.44,-366.62 1708.28,-366.62"/>
<polygon fill="#63b8ff" stroke="#63b8ff" points="1707.99,-370.13 1717.99,-366.63 1707.99,-363.13 1707.99,-370.13"/>
</a>
</g>
</g>
<!-- Node15 -->
<g id="Node000015" class="node">
<title>Node15</title>
<g id="a_Node000015"><a xlink:href="../../df/d0a/str-l_8h.html#a381cd831ac9616c5bea8213bb679d1ac" target="_top" xlink:title="Wipe a lstr_t (frees memory if needed).">
<polygon fill="white" stroke="#666666" points="1569,-338.25 1495.25,-338.25 1495.25,-319 1569,-319 1569,-338.25"/>
<text text-anchor="middle" x="1532.12" y="-324.75" font-family="Helvetica,sans-Serif" font-size="10.00">mp_lstr_wipe</text>
</a>
</g>
</g>
<!-- Node14&#45;&gt;Node15 -->
<g id="edge17_Node000014_Node000015" class="edge">
<title>Node14&#45;&gt;Node15</title>
<g id="a_edge17_Node000014_Node000015"><a xlink:title=" ">
<path fill="none" stroke="#63b8ff" d="M1443.18,-328.62C1455.2,-328.62 1469.73,-328.62 1483.49,-328.62"/>
<polygon fill="#63b8ff" stroke="#63b8ff" points="1483.28,-332.13 1493.28,-328.63 1483.28,-325.13 1483.28,-332.13"/>
</a>
</g>
</g>
<!-- Node16 -->
<g id="Node000016" class="node">
<title>Node16</title>
<g id="a_Node000016"><a xlink:href="../../de/d04/str-l_8c.html#abe2a3a71f0b4dbc7d37c59d16762b6fb" target="_top" xlink:title="lstr_copy_* helper.">
<polygon fill="white" stroke="#666666" points="1684,-338.25 1605,-338.25 1605,-319 1684,-319 1684,-338.25"/>
<text text-anchor="middle" x="1644.5" y="-324.75" font-family="Helvetica,sans-Serif" font-size="10.00">mp_lstr_copy_</text>
</a>
</g>
</g>
<!-- Node15&#45;&gt;Node16 -->
<g id="edge18_Node000015_Node000016" class="edge">
<title>Node15&#45;&gt;Node16</title>
<g id="a_edge18_Node000015_Node000016"><a xlink:title=" ">
<path fill="none" stroke="#63b8ff" d="M1569.27,-328.62C1576.96,-328.62 1585.21,-328.62 1593.32,-328.62"/>
<polygon fill="#63b8ff" stroke="#63b8ff" points="1593.1,-332.13 1603.1,-328.63 1593.1,-325.13 1593.1,-332.13"/>
</a>
</g>
</g>
<!-- Node16&#45;&gt;Node13 -->
<g id="edge24_Node000016_Node000013" class="edge">
<title>Node16&#45;&gt;Node13</title>
<g id="a_edge24_Node000016_Node000013"><a xlink:title=" ">
<path fill="none" stroke="#63b8ff" d="M1672,-338.71C1683.44,-343.06 1697.01,-348.22 1709.35,-352.92"/>
<polygon fill="#63b8ff" stroke="#63b8ff" points="1707.78,-356.07 1718.37,-356.35 1710.27,-349.52 1707.78,-356.07"/>
</a>
</g>
</g>
<!-- Node17 -->
<g id="Node000017" class="node">
<title>Node17</title>
<g id="a_Node000017"><a xlink:href="../../d9/d9a/mem_8h.html#aebbbd277e2952bdb802104671ba23ba9" target="_top" xlink:title=" ">
<polygon fill="white" stroke="#666666" points="1763.75,-339.25 1729,-339.25 1729,-320 1763.75,-320 1763.75,-339.25"/>
<text text-anchor="middle" x="1746.38" y="-325.75" font-family="Helvetica,sans-Serif" font-size="10.00">ifree</text>
</a>
</g>
</g>
<!-- Node16&#45;&gt;Node17 -->
<g id="edge19_Node000016_Node000017" class="edge">
<title>Node16&#45;&gt;Node17</title>
<g id="a_edge19_Node000016_Node000017"><a xlink:title=" ">
<path fill="none" stroke="#63b8ff" d="M1684.4,-329.01C1695.3,-329.12 1706.95,-329.24 1717.1,-329.34"/>
<polygon fill="#63b8ff" stroke="#63b8ff" points="1717.06,-332.84 1727.1,-329.44 1717.13,-325.84 1717.06,-332.84"/>
</a>
</g>
</g>
<!-- Node18 -->
<g id="Node000018" class="node">
<title>Node18</title>
<g id="a_Node000018"><a xlink:href="../../d8/d37/mem_8blk.html#a36b65ab346f1d0deed7b63c544c78f2b" target="_top" xlink:title=" ">
<polygon fill="white" stroke="#666666" points="1853.62,-452.25 1817.38,-452.25 1817.38,-433 1853.62,-433 1853.62,-452.25"/>
<text text-anchor="middle" x="1835.5" y="-438.75" font-family="Helvetica,sans-Serif" font-size="10.00">ipool</text>
</a>
</g>
</g>
<!-- Node17&#45;&gt;Node18 -->
<g id="edge20_Node000017_Node000018" class="edge">
<title>Node17&#45;&gt;Node18</title>
<g id="a_edge20_Node000017_Node000018"><a xlink:title=" ">
<path fill="none" stroke="#63b8ff" d="M1763.42,-339.61C1766.69,-342.02 1769.98,-344.74 1772.75,-347.62 1794.71,-370.49 1813.49,-402.22 1824.39,-422.58"/>
<polygon fill="#63b8ff" stroke="#63b8ff" points="1821.19,-424.01 1828.91,-431.26 1827.4,-420.77 1821.19,-424.01"/>
</a>
</g>
</g>
<!-- Node20 -->
<g id="Node000020" class="node">
<title>Node20</title>
<g id="a_Node000020"><a xlink:href="../../d8/d37/mem_8blk.html#a83c7cf203e5eef9d1a8c6c43cde3e2e5" target="_top" xlink:title=" ">
<polygon fill="white" stroke="#666666" points="1862.25,-339.25 1808.75,-339.25 1808.75,-320 1862.25,-320 1862.25,-339.25"/>
<text text-anchor="middle" x="1835.5" y="-325.75" font-family="Helvetica,sans-Serif" font-size="10.00">mp_ifree</text>
</a>
</g>
</g>
<!-- Node17&#45;&gt;Node20 -->
<g id="edge23_Node000017_Node000020" class="edge">
<title>Node17&#45;&gt;Node20</title>
<g id="a_edge23_Node000017_Node000020"><a xlink:title=" ">
<path fill="none" stroke="#63b8ff" d="M1764.17,-329.62C1773.59,-329.62 1785.74,-329.62 1797.28,-329.62"/>
<polygon fill="#63b8ff" stroke="#63b8ff" points="1796.98,-333.13 1806.98,-329.63 1796.98,-326.13 1796.98,-333.13"/>
</a>
</g>
</g>
<!-- Node18&#45;&gt;Node8 -->
<g id="edge21_Node000018_Node000008" class="edge">
<title>Node18&#45;&gt;Node8</title>
<g id="a_edge21_Node000018_Node000008"><a xlink:title=" ">
<path fill="none" stroke="#63b8ff" d="M1817.04,-442.62C1783.7,-442.62 1708.66,-442.62 1645.5,-442.62 1119.38,-442.62 1119.38,-442.62 1119.38,-442.62 1035.34,-442.62 945.25,-392.44 903.36,-365.8"/>
<polygon fill="#63b8ff" stroke="#63b8ff" points="905.34,-362.91 895.05,-360.4 901.53,-368.78 905.34,-362.91"/>
</a>
</g>
</g>
<!-- Node19 -->
<g id="Node000019" class="node">
<title>Node19</title>
<g id="a_Node000019"><a xlink:href="../../d1/d10/mem-stack_8h.html#a1d0e2a29f86dc033a02e50484b527fd0" target="_top" xlink:title=" ">
<polygon fill="white" stroke="#666666" points="1940.5,-452.25 1898.25,-452.25 1898.25,-433 1940.5,-433 1940.5,-452.25"/>
<text text-anchor="middle" x="1919.38" y="-438.75" font-family="Helvetica,sans-Serif" font-size="10.00">t_pool</text>
</a>
</g>
</g>
<!-- Node18&#45;&gt;Node19 -->
<g id="edge22_Node000018_Node000019" class="edge">
<title>Node18&#45;&gt;Node19</title>
<g id="a_edge22_Node000018_Node000019"><a xlink:title=" ">
<path fill="none" stroke="#63b8ff" d="M1853.86,-442.62C1863.31,-442.62 1875.29,-442.62 1886.36,-442.62"/>
<polygon fill="#63b8ff" stroke="#63b8ff" points="1886.34,-446.13 1896.34,-442.63 1886.34,-439.13 1886.34,-446.13"/>
</a>
</g>
</g>
<!-- Node24&#45;&gt;Node12 -->
<g id="edge33_Node000024_Node000012" class="edge">
<title>Node24&#45;&gt;Node12</title>
<g id="a_edge33_Node000024_Node000012"><a xlink:title=" ">
<path fill="none" stroke="#63b8ff" d="M1021.43,-366.62C1098.11,-366.62 1292.45,-366.62 1375.58,-366.62"/>
<polygon fill="#63b8ff" stroke="#63b8ff" points="1375.49,-370.13 1385.49,-366.63 1375.49,-363.13 1375.49,-370.13"/>
</a>
</g>
</g>
<!-- Node25 -->
<g id="Node000025" class="node">
<title>Node25</title>
<g id="a_Node000025"><a xlink:href="../../d1/dc0/group__log.html#ga168a6f17b248f61f7d25a17d58d04e36" target="_top" xlink:title=" ">
<polygon fill="white" stroke="#666666" points="1164.75,-414.25 1076,-414.25 1076,-395 1164.75,-395 1164.75,-414.25"/>
<text text-anchor="middle" x="1120.38" y="-400.75" font-family="Helvetica,sans-Serif" font-size="10.00">logger_has_level</text>
</a>
</g>
</g>
<!-- Node24&#45;&gt;Node25 -->
<g id="edge30_Node000024_Node000025" class="edge">
<title>Node24&#45;&gt;Node25</title>
<g id="a_edge30_Node000024_Node000025"><a xlink:title=" ">
<path fill="none" stroke="#63b8ff" d="M1021.6,-376.02C1037.38,-380.63 1056.66,-386.28 1073.92,-391.33"/>
<polygon fill="#63b8ff" stroke="#63b8ff" points="1072.88,-394.67 1083.46,-394.12 1074.84,-387.95 1072.88,-394.67"/>
</a>
</g>
</g>
<!-- Node26 -->
<g id="Node000026" class="node">
<title>Node26</title>
<g id="a_Node000026"><a xlink:href="../../d1/dc0/group__log.html#gaf388752b988541da0abeceecdf96e6b3" target="_top" xlink:title=" ">
<polygon fill="white" stroke="#666666" points="1315,-414.25 1228.5,-414.25 1228.5,-395 1315,-395 1315,-414.25"/>
<text text-anchor="middle" x="1271.75" y="-400.75" font-family="Helvetica,sans-Serif" font-size="10.00">logger_get_level</text>
</a>
</g>
</g>
<!-- Node25&#45;&gt;Node26 -->
<g id="edge31_Node000025_Node000026" class="edge">
<title>Node25&#45;&gt;Node26</title>
<g id="a_edge31_Node000025_Node000026"><a xlink:title=" ">
<path fill="none" stroke="#63b8ff" d="M1164.98,-404.62C1181.14,-404.62 1199.67,-404.62 1216.65,-404.62"/>
<polygon fill="#63b8ff" stroke="#63b8ff" points="1216.61,-408.13 1226.61,-404.63 1216.61,-401.13 1216.61,-408.13"/>
</a>
</g>
</g>
<!-- Node27 -->
<g id="Node000027" class="node">
<title>Node27</title>
<g id="a_Node000027"><a xlink:href="../../d1/dc0/group__log.html#ga93cbd623096e1704532d15b3eb30e42f" target="_top" xlink:title=" ">
<polygon fill="white" stroke="#666666" points="1459.25,-414.25 1371.25,-414.25 1371.25,-395 1459.25,-395 1459.25,-414.25"/>
<text text-anchor="middle" x="1415.25" y="-400.75" font-family="Helvetica,sans-Serif" font-size="10.00">__logger_refresh</text>
</a>
</g>
</g>
<!-- Node26&#45;&gt;Node27 -->
<g id="edge32_Node000026_Node000027" class="edge">
<title>Node26&#45;&gt;Node27</title>
<g id="a_edge32_Node000026_Node000027"><a xlink:title=" ">
<path fill="none" stroke="#63b8ff" d="M1315.2,-404.62C1329.08,-404.62 1344.69,-404.62 1359.35,-404.62"/>
<polygon fill="#63b8ff" stroke="#63b8ff" points="1359.33,-408.13 1369.33,-404.63 1359.33,-401.13 1359.33,-408.13"/>
</a>
</g>
</g>
<!-- Node29&#45;&gt;Node18 -->
<g id="edge36_Node000029_Node000018" class="edge">
<title>Node29&#45;&gt;Node18</title>
<g id="a_edge36_Node000029_Node000018"><a xlink:title=" ">
<path fill="none" stroke="#63b8ff" d="M332.98,-303.68C362.3,-342.52 475.57,-480.62 603.5,-480.62 603.5,-480.62 603.5,-480.62 1645.5,-480.62 1703.49,-480.62 1769.55,-463.22 1806.2,-451.97"/>
<polygon fill="#63b8ff" stroke="#63b8ff" points="1807.09,-455.36 1815.57,-449.02 1804.98,-448.68 1807.09,-455.36"/>
</a>
</g>
</g>
<!-- Node30 -->
<g id="Node000030" class="node">
<title>Node30</title>
<g id="a_Node000030"><a xlink:href="../../d9/d9a/mem_8h.html#ada6bb9661f0c10ccaa14d231c24aeafd" target="_top" xlink:title=" ">
<polygon fill="white" stroke="#666666" points="484.75,-303.25 419.25,-303.25 419.25,-284 484.75,-284 484.75,-303.25"/>
<text text-anchor="middle" x="452" y="-289.75" font-family="Helvetica,sans-Serif" font-size="10.00">mp_imalloc</text>
</a>
</g>
</g>
<!-- Node29&#45;&gt;Node30 -->
<g id="edge37_Node000029_Node000030" class="edge">
<title>Node29&#45;&gt;Node30</title>
<g id="a_edge37_Node000029_Node000030"><a xlink:title=" ">
<path fill="none" stroke="#63b8ff" d="M348.33,-293.62C364.85,-293.62 387.72,-293.62 407.68,-293.62"/>
<polygon fill="#63b8ff" stroke="#63b8ff" points="407.52,-297.13 417.52,-293.63 407.52,-290.13 407.52,-297.13"/>
</a>
</g>
</g>
<!-- Node31 -->
<g id="Node000031" class="node">
<title>Node31</title>
<g id="a_Node000031"><a xlink:href="../../d8/d37/mem_8blk.html#a5666a1403bcf2bd8e114c23f8021d1ac" target="_top" xlink:title=" ">
<polygon fill="white" stroke="#666666" points="642.5,-321.25 566.5,-321.25 566.5,-302 642.5,-302 642.5,-321.25"/>
<text text-anchor="middle" x="604.5" y="-307.75" font-family="Helvetica,sans-Serif" font-size="10.00">__mp_imalloc</text>
</a>
</g>
</g>
<!-- Node30&#45;&gt;Node31 -->
<g id="edge38_Node000030_Node000031" class="edge">
<title>Node30&#45;&gt;Node31</title>
<g id="a_edge38_Node000030_Node000031"><a xlink:title=" ">
<path fill="none" stroke="#63b8ff" d="M484.92,-297.44C505.22,-299.87 531.9,-303.06 554.81,-305.8"/>
<polygon fill="#63b8ff" stroke="#63b8ff" points="554.2,-309.25 564.55,-306.97 555.03,-302.3 554.2,-309.25"/>
</a>
</g>
</g>
<!-- Node34 -->
<g id="Node000034" class="node">
<title>Node34</title>
<g id="a_Node000034"><a xlink:href="../../d9/d9a/mem_8h.html#ae99e17ad0b27e94e8a00c8af9734a0e7" target="_top" xlink:title=" ">
<polygon fill="white" stroke="#666666" points="660.88,-284.25 548.12,-284.25 548.12,-265 660.88,-265 660.88,-284.25"/>
<text text-anchor="middle" x="604.5" y="-270.75" font-family="Helvetica,sans-Serif" font-size="10.00">icheck_alloc_constant</text>
</a>
</g>
</g>
<!-- Node30&#45;&gt;Node34 -->
<g id="edge42_Node000030_Node000034" class="edge">
<title>Node30&#45;&gt;Node34</title>
<g id="a_edge42_Node000030_Node000034"><a xlink:title=" ">
<path fill="none" stroke="#63b8ff" d="M484.92,-289.6C499.99,-287.69 518.59,-285.34 536.55,-283.08"/>
<polygon fill="#63b8ff" stroke="#63b8ff" points="536.93,-286.56 546.41,-281.83 536.05,-279.61 536.93,-286.56"/>
</a>
</g>
</g>
<!-- Node31&#45;&gt;Node7 -->
<g id="edge39_Node000031_Node000007" class="edge">
<title>Node31&#45;&gt;Node7</title>
<g id="a_edge39_Node000031_Node000007"><a xlink:title=" ">
<path fill="none" stroke="#63b8ff" d="M642.93,-320.82C664.49,-326.12 691.75,-332.82 714.56,-338.43"/>
<polygon fill="#63b8ff" stroke="#63b8ff" points="713.67,-341.81 724.21,-340.8 715.34,-335.01 713.67,-341.81"/>
</a>
</g>
</g>
<!-- Node32 -->
<g id="Node000032" class="node">
<title>Node32</title>
<g id="a_Node000032"><a xlink:href="../../d9/d9a/mem_8h.html#af42ab5c21de0c723b2a55403e5441fda" target="_top" xlink:title=" ">
<polygon fill="white" stroke="#666666" points="800.62,-321.25 721.62,-321.25 721.62,-302 800.62,-302 800.62,-321.25"/>
<text text-anchor="middle" x="761.12" y="-307.75" font-family="Helvetica,sans-Serif" font-size="10.00">mem_bit_align</text>
</a>
</g>
</g>
<!-- Node31&#45;&gt;Node32 -->
<g id="edge40_Node000031_Node000032" class="edge">
<title>Node31&#45;&gt;Node32</title>
<g id="a_edge40_Node000031_Node000032"><a xlink:title=" ">
<path fill="none" stroke="#63b8ff" d="M642.93,-311.62C663.01,-311.62 688.03,-311.62 709.78,-311.62"/>
<polygon fill="#63b8ff" stroke="#63b8ff" points="709.64,-315.13 719.64,-311.63 709.64,-308.13 709.64,-315.13"/>
</a>
</g>
</g>
<!-- Node33 -->
<g id="Node000033" class="node">
<title>Node33</title>
<g id="a_Node000033"><a xlink:href="../../d8/d96/bithacks_8h.html#ab80588fa9f8b9e766249edaf70558bdc" target="_top" xlink:title=" ">
<polygon fill="white" stroke="#666666" points="908.5,-321.25 848.25,-321.25 848.25,-302 908.5,-302 908.5,-321.25"/>
<text text-anchor="middle" x="878.38" y="-307.75" font-family="Helvetica,sans-Serif" font-size="10.00">bitcountsz</text>
</a>
</g>
</g>
<!-- Node32&#45;&gt;Node33 -->
<g id="edge41_Node000032_Node000033" class="edge">
<title>Node32&#45;&gt;Node33</title>
<g id="a_edge41_Node000032_Node000033"><a xlink:title=" ">
<path fill="none" stroke="#63b8ff" d="M800.82,-311.62C812.4,-311.62 825.12,-311.62 836.81,-311.62"/>
<polygon fill="#63b8ff" stroke="#63b8ff" points="836.56,-315.13 846.56,-311.63 836.56,-308.13 836.56,-315.13"/>
</a>
</g>
</g>
<!-- Node35 -->
<g id="Node000035" class="node">
<title>Node35</title>
<g id="a_Node000035"><a xlink:href="../../d8/d37/mem_8blk.html#a377e36d6fbaf3ee7f1b217559cb0c850" target="_top" xlink:title=" ">
<polygon fill="white" stroke="#666666" points="812.25,-284.25 710,-284.25 710,-265 812.25,-265 812.25,-284.25"/>
<text text-anchor="middle" x="761.12" y="-270.75" font-family="Helvetica,sans-Serif" font-size="10.00">__imalloc_too_large</text>
</a>
</g>
</g>
<!-- Node34&#45;&gt;Node35 -->
<g id="edge43_Node000034_Node000035" class="edge">
<title>Node34&#45;&gt;Node35</title>
<g id="a_edge43_Node000034_Node000035"><a xlink:title=" ">
<path fill="none" stroke="#63b8ff" d="M661.32,-274.62C673.25,-274.62 685.93,-274.62 698.08,-274.62"/>
<polygon fill="#63b8ff" stroke="#63b8ff" points="698.01,-278.13 708.01,-274.63 698.01,-271.13 698.01,-278.13"/>
</a>
</g>
</g>
<!-- Node37&#45;&gt;Node5 -->
<g id="edge46_Node000037_Node000005" class="edge">
<title>Node37&#45;&gt;Node5</title>
<g id="a_edge46_Node000037_Node000005"><a xlink:title=" ">
<path fill="none" stroke="#63b8ff" d="M361.6,-84.62C414.56,-84.62 516.66,-84.62 603.5,-84.62 603.5,-84.62 603.5,-84.62 1121.38,-84.62 1212.24,-84.62 1316.09,-111.39 1372.47,-128.24"/>
<polygon fill="#63b8ff" stroke="#63b8ff" points="1371.39,-131.57 1381.98,-131.13 1373.43,-124.87 1371.39,-131.57"/>
</a>
</g>
</g>
<!-- Node39&#45;&gt;Node37 -->
<g id="edge50_Node000039_Node000037" class="edge">
<title>Node39&#45;&gt;Node37</title>
<g id="a_edge50_Node000039_Node000037"><a xlink:title=" ">
<path fill="none" stroke="#63b8ff" d="M219.67,-56.71C237.25,-61.43 258.36,-67.1 276.95,-72.09"/>
<polygon fill="#63b8ff" stroke="#63b8ff" points="275.83,-75.41 286.39,-74.63 277.64,-68.65 275.83,-75.41"/>
</a>
</g>
</g>
<!-- Node40 -->
<g id="Node000040" class="node">
<title>Node40</title>
<g id="a_Node000040"><a xlink:href="../../de/ddd/mem-ring_8c.html#a303b6087b1b7a8b477e5f44639c12469" target="_top" xlink:title=" ">
<polygon fill="white" stroke="#666666" points="369,-56.25 280.25,-56.25 280.25,-37 369,-37 369,-56.25"/>
<text text-anchor="middle" x="324.62" y="-42.75" font-family="Helvetica,sans-Serif" font-size="10.00">ring_reset_frame</text>
</a>
</g>
</g>
<!-- Node39&#45;&gt;Node40 -->
<g id="edge51_Node000039_Node000040" class="edge">
<title>Node39&#45;&gt;Node40</title>
<g id="a_edge51_Node000039_Node000040"><a xlink:title=" ">
<path fill="none" stroke="#63b8ff" d="M226.9,-46.62C240.18,-46.62 254.88,-46.62 268.73,-46.62"/>
<polygon fill="#63b8ff" stroke="#63b8ff" points="268.6,-50.13 278.6,-46.63 268.6,-43.13 268.6,-50.13"/>
</a>
</g>
</g>
<!-- Node41 -->
<g id="Node000041" class="node">
<title>Node41</title>
<g id="a_Node000041"><a xlink:href="../../de/ddd/mem-ring_8c.html#ac4bc88a0e9539a661958e685045321c1" target="_top" xlink:title=" ">
<polygon fill="white" stroke="#666666" points="499,-56.25 405,-56.25 405,-37 499,-37 499,-56.25"/>
<text text-anchor="middle" x="452" y="-42.75" font-family="Helvetica,sans-Serif" font-size="10.00">mem_ring_protect</text>
</a>
</g>
</g>
<!-- Node40&#45;&gt;Node41 -->
<g id="edge52_Node000040_Node000041" class="edge">
<title>Node40&#45;&gt;Node41</title>
<g id="a_edge52_Node000040_Node000041"><a xlink:title=" ">
<path fill="none" stroke="#63b8ff" d="M369.48,-46.62C377.25,-46.62 385.45,-46.62 393.54,-46.62"/>
<polygon fill="#63b8ff" stroke="#63b8ff" points="393.32,-50.13 403.32,-46.63 393.32,-43.13 393.32,-50.13"/>
</a>
</g>
</g>
<!-- Node42 -->
<g id="Node000042" class="node">
<title>Node42</title>
<g id="a_Node000042"><a xlink:href="../../de/ddd/mem-ring_8c.html#ade729b3a4fafd9430e7d426e2ae2b780" target="_top" xlink:title=" ">
<polygon fill="white" stroke="#666666" points="639.88,-19.25 569.12,-19.25 569.12,0 639.88,0 639.88,-19.25"/>
<text text-anchor="middle" x="604.5" y="-5.75" font-family="Helvetica,sans-Serif" font-size="10.00">blk_contains</text>
</a>
</g>
</g>
<!-- Node41&#45;&gt;Node42 -->
<g id="edge53_Node000041_Node000042" class="edge">
<title>Node41&#45;&gt;Node42</title>
<g id="a_edge53_Node000041_Node000042"><a xlink:title=" ">
<path fill="none" stroke="#63b8ff" d="M494.12,-36.51C513.95,-31.64 537.79,-25.78 558.14,-20.78"/>
<polygon fill="#63b8ff" stroke="#63b8ff" points="558.7,-24.24 567.57,-18.46 557.03,-17.45 558.7,-24.24"/>
</a>
</g>
</g>
<!-- Node43 -->
<g id="Node000043" class="node">
<title>Node43</title>
<g id="a_Node000043"><a xlink:href="../../d8/d37/mem_8blk.html#a194c1be7b1e9d2742e6c11ea6fed3790" target="_top" xlink:title=" ">
<polygon fill="white" stroke="#666666" points="674,-56.25 535,-56.25 535,-37 674,-37 674,-56.25"/>
<text text-anchor="middle" x="604.5" y="-42.75" font-family="Helvetica,sans-Serif" font-size="10.00">mem_tool_disallow_memory</text>
</a>
</g>
</g>
<!-- Node41&#45;&gt;Node43 -->
<g id="edge54_Node000041_Node000043" class="edge">
<title>Node41&#45;&gt;Node43</title>
<g id="a_edge54_Node000041_Node000043"><a xlink:title=" ">
<path fill="none" stroke="#63b8ff" d="M499.38,-46.62C506.96,-46.62 514.99,-46.62 523.1,-46.62"/>
<polygon fill="#63b8ff" stroke="#63b8ff" points="523.07,-50.13 533.07,-46.63 523.07,-43.13 523.07,-50.13"/>
</a>
</g>
</g>
</g>
</svg>

<g id="navigator" transform="translate(0 0)" fill="#404254">
  <rect fill="#f2f5e9" fill-opacity="0.5" stroke="#606060" stroke-width=".5" x="0" y="0" width="60" height="60"/>
  <use id="zoomplus" xlink:href="#zoomPlus" x="17" y="9" onmousedown="handleZoom(evt,'in')"/>
  <use id="zoomminus" xlink:href="#zoomMin" x="42" y="9" onmousedown="handleZoom(evt,'out')"/>
  <use id="reset" xlink:href="#resetDef" x="30" y="36" onmousedown="handleReset()"/>
   <use id="arrowup" xlink:href="#arrowUp" x="0" y="0" onmousedown="handlePan(0,-1)"/>
  <use id="arrowright" xlink:href="#arrowRight" x="0" y="0" onmousedown="handlePan(1,0)"/>
  <use id="arrowdown" xlink:href="#arrowDown" x="0" y="0" onmousedown="handlePan(0,1)"/>
  <use id="arrowleft" xlink:href="#arrowLeft" x="0" y="0" onmousedown="handlePan(-1,0)"/>
</g>
<svg viewBox="0 0 15 15" width="100%" height="30px" preserveAspectRatio="xMaxYMin meet">
 <g id="arrow_out" transform="scale(0.3 0.3)">
  <a xlink:href="mem_8h_a3985ede75cf06dabc280a095b4d0134e_cgraph_org.svg" target="_base">
   <rect id="button" ry="5" rx="5" y="6" x="6" height="38" width="38"
        fill="#f2f5e9" fill-opacity="0.5" stroke="#606060" stroke-width="1.0"/>
   <path id="arrow"
     d="M 11.500037,31.436501 C 11.940474,20.09759 22.043105,11.32322 32.158766,21.979434 L 37.068811,17.246167 C 37.068811,17.246167 37.088388,32 37.088388,32 L 22.160133,31.978069 C 22.160133,31.978069 26.997745,27.140456 26.997745,27.140456 C 18.528582,18.264221 13.291696,25.230495 11.500037,31.436501 z"
     style="fill:#404040;"/>
  </a>
 </g>
</svg>

<style type='text/css'>
<![CDATA[
[data-mouse-over-selected='false'] { opacity: 0.7; }
[data-mouse-over-selected='true']  { opacity: 1.0; }
]]>
</style>
<script type="application/ecmascript"><![CDATA[
document.addEventListener('DOMContentLoaded', (event) => {
  highlightEdges();
  highlightAdjacentNodes();
});
]]></script>
</svg>
