<?xml version="1.0" encoding="UTF-8" standalone="no"?>
<!DOCTYPE svg PUBLIC "-//W3C//DTD SVG 1.1//EN"
 "http://www.w3.org/Graphics/SVG/1.1/DTD/svg11.dtd">
<!-- Generated by graphviz version 9.0.0 (20230911.1827)
 -->
<!-- Title: icheck_alloc Pages: 1 -->
<svg width="1196pt" height="282pt"
 viewBox="0.00 0.00 1195.75 281.62" xmlns="http://www.w3.org/2000/svg" xmlns:xlink="http://www.w3.org/1999/xlink">
<g id="graph0" class="graph" transform="scale(1 1) rotate(0) translate(4 277.62)">
<title>icheck_alloc</title>
<!-- Node1 -->
<g id="Node000001" class="node">
<title>Node1</title>
<g id="a_Node000001"><a xlink:title=" ">
<polygon fill="#999999" stroke="#666666" points="70,-169.25 0,-169.25 0,-150 70,-150 70,-169.25"/>
<text text-anchor="middle" x="35" y="-155.75" font-family="Helvetica,sans-Serif" font-size="10.00">icheck_alloc</text>
</a>
</g>
</g>
<!-- Node2 -->
<g id="Node000002" class="node">
<title>Node2</title>
<g id="a_Node000002"><a xlink:href="../../d7/df8/log_8c.html#abca342edf91a9b45f7a17ef564fa8a53" target="_top" xlink:title=" ">
<polygon fill="white" stroke="#666666" points="155.75,-169.25 106,-169.25 106,-150 155.75,-150 155.75,-169.25"/>
<text text-anchor="middle" x="130.88" y="-155.75" font-family="Helvetica,sans-Serif" font-size="10.00">e_panic</text>
</a>
</g>
</g>
<!-- Node1&#45;&gt;Node2 -->
<g id="edge1_Node000001_Node000002" class="edge">
<title>Node1&#45;&gt;Node2</title>
<g id="a_edge1_Node000001_Node000002"><a xlink:title=" ">
<path fill="none" stroke="#63b8ff" d="M70.42,-159.62C78.21,-159.62 86.49,-159.62 94.32,-159.62"/>
<polygon fill="#63b8ff" stroke="#63b8ff" points="94.22,-163.13 104.22,-159.63 94.22,-156.13 94.22,-163.13"/>
</a>
</g>
</g>
<!-- Node3 -->
<g id="Node000003" class="node">
<title>Node3</title>
<g id="a_Node000003"><a xlink:href="../../d7/df8/log_8c.html#a4bc04f7baa1e064cb0b93c7b9f3a61a1" target="_top" xlink:title=" ">
<polygon fill="white" stroke="#666666" points="279.75,-132.25 191.75,-132.25 191.75,-113 279.75,-113 279.75,-132.25"/>
<text text-anchor="middle" x="235.75" y="-118.75" font-family="Helvetica,sans-Serif" font-size="10.00">__logger_refresh</text>
</a>
</g>
</g>
<!-- Node2&#45;&gt;Node3 -->
<g id="edge2_Node000002_Node000003" class="edge">
<title>Node2&#45;&gt;Node3</title>
<g id="a_edge2_Node000002_Node000003"><a xlink:title=" ">
<path fill="none" stroke="#63b8ff" d="M155.99,-150.95C167.99,-146.64 182.78,-141.32 196.29,-136.46"/>
<polygon fill="#63b8ff" stroke="#63b8ff" points="197.13,-139.88 205.35,-133.2 194.76,-133.29 197.13,-139.88"/>
</a>
</g>
</g>
<!-- Node21 -->
<g id="Node000021" class="node">
<title>Node21</title>
<g id="a_Node000021"><a xlink:href="../../d7/df8/log_8c.html#a900490b26df7698aac12f7f7e6517e81" target="_top" xlink:title=" ">
<polygon fill="white" stroke="#666666" points="268.5,-207.25 203,-207.25 203,-188 268.5,-188 268.5,-207.25"/>
<text text-anchor="middle" x="235.75" y="-193.75" font-family="Helvetica,sans-Serif" font-size="10.00">logger_vlog</text>
</a>
</g>
</g>
<!-- Node2&#45;&gt;Node21 -->
<g id="edge24_Node000002_Node000021" class="edge">
<title>Node2&#45;&gt;Node21</title>
<g id="a_edge24_Node000002_Node000021"><a xlink:title=" ">
<path fill="none" stroke="#63b8ff" d="M155.99,-168.53C168.18,-173.03 183.24,-178.6 196.92,-183.65"/>
<polygon fill="#63b8ff" stroke="#63b8ff" points="195.5,-186.86 206.1,-187.04 197.93,-180.29 195.5,-186.86"/>
</a>
</g>
</g>
<!-- Node25 -->
<g id="Node000025" class="node">
<title>Node25</title>
<g id="a_Node000025"><a xlink:href="../../d2/d4d/file_8h.html#a25419a391fdd4ad7954699c58cfeb3b9" target="_top" xlink:title=" ">
<polygon fill="white" stroke="#666666" points="261.38,-95.25 210.12,-95.25 210.12,-76 261.38,-76 261.38,-95.25"/>
<text text-anchor="middle" x="235.75" y="-81.75" font-family="Helvetica,sans-Serif" font-size="10.00">va_start</text>
</a>
</g>
</g>
<!-- Node2&#45;&gt;Node25 -->
<g id="edge29_Node000002_Node000025" class="edge">
<title>Node2&#45;&gt;Node25</title>
<g id="a_edge29_Node000002_Node000025"><a xlink:title=" ">
<path fill="none" stroke="#63b8ff" d="M140.34,-149.79C151.23,-137.63 171.2,-116.92 191.75,-103.62 194.27,-101.99 196.97,-100.45 199.74,-99.02"/>
<polygon fill="#63b8ff" stroke="#63b8ff" points="200.94,-102.32 208.51,-94.91 197.97,-95.98 200.94,-102.32"/>
</a>
</g>
</g>
<!-- Node4 -->
<g id="Node000004" class="node">
<title>Node4</title>
<g id="a_Node000004"><a xlink:href="../../d7/df8/log_8c.html#a3dbd75fb614210f0b114cfd03c9c0a7b" target="_top" xlink:title=" ">
<polygon fill="white" stroke="#666666" points="419.5,-132.25 315.75,-132.25 315.75,-113 419.5,-113 419.5,-132.25"/>
<text text-anchor="middle" x="367.62" y="-118.75" font-family="Helvetica,sans-Serif" font-size="10.00">__logger_do_refresh</text>
</a>
</g>
</g>
<!-- Node3&#45;&gt;Node4 -->
<g id="edge3_Node000003_Node000004" class="edge">
<title>Node3&#45;&gt;Node4</title>
<g id="a_edge3_Node000003_Node000004"><a xlink:title=" ">
<path fill="none" stroke="#63b8ff" d="M280,-122.62C287.72,-122.62 295.91,-122.62 304.04,-122.62"/>
<polygon fill="#63b8ff" stroke="#63b8ff" points="303.95,-126.13 313.95,-122.63 303.95,-119.13 303.95,-126.13"/>
</a>
</g>
</g>
<!-- Node19 -->
<g id="Node000019" class="node">
<title>Node19</title>
<g id="a_Node000019"><a xlink:href="../../d7/df8/log_8c.html#a7b1b02d1986e1247c2f571af4a2c2854" target="_top" xlink:title=" ">
<polygon fill="white" stroke="#666666" points="405.25,-58.25 330,-58.25 330,-39 405.25,-39 405.25,-58.25"/>
<text text-anchor="middle" x="367.62" y="-44.75" font-family="Helvetica,sans-Serif" font-size="10.00">log_spin_lock</text>
</a>
</g>
</g>
<!-- Node3&#45;&gt;Node19 -->
<g id="edge22_Node000003_Node000019" class="edge">
<title>Node3&#45;&gt;Node19</title>
<g id="a_edge22_Node000003_Node000019"><a xlink:title=" ">
<path fill="none" stroke="#63b8ff" d="M265.39,-112.61C270.37,-110.33 275.35,-107.66 279.75,-104.62 298.89,-91.4 296.24,-79.3 315.75,-66.62 317.37,-65.57 319.06,-64.57 320.8,-63.62"/>
<polygon fill="#63b8ff" stroke="#63b8ff" points="322.21,-66.83 329.75,-59.38 319.21,-60.5 322.21,-66.83"/>
</a>
</g>
</g>
<!-- Node20 -->
<g id="Node000020" class="node">
<title>Node20</title>
<g id="a_Node000020"><a xlink:href="../../d1/dc0/group__log.html#ga045020bb4af234632f7761f220131c69" target="_top" xlink:title=" ">
<polygon fill="white" stroke="#666666" points="410.5,-95.25 324.75,-95.25 324.75,-76 410.5,-76 410.5,-95.25"/>
<text text-anchor="middle" x="367.62" y="-81.75" font-family="Helvetica,sans-Serif" font-size="10.00">log_spin_unlock</text>
</a>
</g>
</g>
<!-- Node3&#45;&gt;Node20 -->
<g id="edge23_Node000003_Node000020" class="edge">
<title>Node3&#45;&gt;Node20</title>
<g id="a_edge23_Node000003_Node000020"><a xlink:title=" ">
<path fill="none" stroke="#63b8ff" d="M272.24,-112.51C287.13,-108.27 304.64,-103.28 320.51,-98.76"/>
<polygon fill="#63b8ff" stroke="#63b8ff" points="321.07,-102.24 329.72,-96.14 319.15,-95.51 321.07,-102.24"/>
</a>
</g>
</g>
<!-- Node4&#45;&gt;Node4 -->
<g id="edge4_Node000004_Node000004" class="edge">
<title>Node4&#45;&gt;Node4</title>
<g id="a_edge4_Node000004_Node000004"><a xlink:title=" ">
<path fill="none" stroke="#63b8ff" d="M346.98,-132.54C337.56,-141.15 344.44,-150.25 367.62,-150.25 380.3,-150.25 388.1,-147.53 391.03,-143.65"/>
<polygon fill="#63b8ff" stroke="#63b8ff" points="394.44,-142.87 388.64,-134.01 387.65,-144.56 394.44,-142.87"/>
</a>
</g>
</g>
<!-- Node5 -->
<g id="Node000005" class="node">
<title>Node5</title>
<g id="a_Node000005"><a xlink:href="../../de/d1a/container-dlist_8h.html#a3b6f65860b212e28f2e28e71eb54d54d" target="_top" xlink:title="Add element e at the head of list l (suited for LIFO).">
<polygon fill="white" stroke="#666666" points="546.5,-56.25 491.5,-56.25 491.5,-37 546.5,-37 546.5,-56.25"/>
<text text-anchor="middle" x="519" y="-42.75" font-family="Helvetica,sans-Serif" font-size="10.00">dlist_add</text>
</a>
</g>
</g>
<!-- Node4&#45;&gt;Node5 -->
<g id="edge5_Node000004_Node000005" class="edge">
<title>Node4&#45;&gt;Node5</title>
<g id="a_edge5_Node000004_Node000005"><a xlink:title=" ">
<path fill="none" stroke="#63b8ff" d="M403.18,-112.61C408.82,-110.36 414.46,-107.7 419.5,-104.62 438.28,-93.15 436.87,-82.35 455.5,-70.62 463.18,-65.79 471.98,-61.68 480.51,-58.29"/>
<polygon fill="#63b8ff" stroke="#63b8ff" points="481.48,-61.66 489.65,-54.91 479.06,-55.1 481.48,-61.66"/>
</a>
</g>
</g>
<!-- Node7 -->
<g id="Node000007" class="node">
<title>Node7</title>
<g id="a_Node000007"><a xlink:href="../../de/d1a/container-dlist_8h.html#a0a69e401f6ec15966c891e96ad864c77" target="_top" xlink:title="Put a dlist_t element in a safe and detached state.">
<polygon fill="white" stroke="#666666" points="545,-19.25 493,-19.25 493,0 545,0 545,-19.25"/>
<text text-anchor="middle" x="519" y="-5.75" font-family="Helvetica,sans-Serif" font-size="10.00">dlist_init</text>
</a>
</g>
</g>
<!-- Node4&#45;&gt;Node7 -->
<g id="edge7_Node000004_Node000007" class="edge">
<title>Node4&#45;&gt;Node7</title>
<g id="a_edge7_Node000004_Node000007"><a xlink:title=" ">
<path fill="none" stroke="#63b8ff" d="M407.7,-112.53C411.98,-110.38 416.03,-107.77 419.5,-104.62 447.48,-79.24 426.78,-52.16 455.5,-27.62 462.82,-21.37 472.21,-17.28 481.47,-14.62"/>
<polygon fill="#63b8ff" stroke="#63b8ff" points="482.14,-18.05 491.07,-12.36 480.54,-11.24 482.14,-18.05"/>
</a>
</g>
</g>
<!-- Node8 -->
<g id="Node000008" class="node">
<title>Node8</title>
<g id="a_Node000008"><a xlink:href="../../d7/df8/log_8c.html#a4c8fbe8648573312126ce341cf34cba1" target="_top" xlink:title=" ">
<polygon fill="white" stroke="#666666" points="582.5,-169.25 455.5,-169.25 455.5,-150 582.5,-150 582.5,-169.25"/>
<text text-anchor="middle" x="519" y="-155.75" font-family="Helvetica,sans-Serif" font-size="10.00">logger_compute_fullname</text>
</a>
</g>
</g>
<!-- Node4&#45;&gt;Node8 -->
<g id="edge8_Node000004_Node000008" class="edge">
<title>Node4&#45;&gt;Node8</title>
<g id="a_edge8_Node000004_Node000008"><a xlink:title=" ">
<path fill="none" stroke="#63b8ff" d="M409.44,-132.74C426.98,-137.08 447.68,-142.21 466.27,-146.81"/>
<polygon fill="#63b8ff" stroke="#63b8ff" points="465.21,-150.16 475.76,-149.16 466.9,-143.36 465.21,-150.16"/>
</a>
</g>
</g>
<!-- Node11 -->
<g id="Node000011" class="node">
<title>Node11</title>
<g id="a_Node000011"><a xlink:href="../../df/d0a/str-l_8h.html#ad74dae07179370f3c22e3f026157926e" target="_top" xlink:title="wipe a lstr_t (frees memory if needed).">
<polygon fill="white" stroke="#666666" points="690,-169.25 635,-169.25 635,-150 690,-150 690,-169.25"/>
<text text-anchor="middle" x="662.5" y="-155.75" font-family="Helvetica,sans-Serif" font-size="10.00">lstr_wipe</text>
</a>
</g>
</g>
<!-- Node4&#45;&gt;Node11 -->
<g id="edge21_Node000004_Node000011" class="edge">
<title>Node4&#45;&gt;Node11</title>
<g id="a_edge21_Node000004_Node000011"><a xlink:title=" ">
<path fill="none" stroke="#63b8ff" d="M399.2,-112.59C441.46,-100.35 519.63,-83.6 582.5,-103.62 606.11,-111.15 628.73,-128.57 643.66,-142"/>
<polygon fill="#63b8ff" stroke="#63b8ff" points="641.11,-144.41 650.8,-148.69 645.9,-139.3 641.11,-144.41"/>
</a>
</g>
</g>
<!-- Node18 -->
<g id="Node000018" class="node">
<title>Node18</title>
<g id="a_Node000018"><a xlink:href="../../df/d0a/str-l_8h.html#a963c22b229774d4b7c106bae4011cb8e" target="_top" xlink:title="Returns whether \v s1 and \v s2 contents are equal.">
<polygon fill="white" stroke="#666666" points="548,-132.25 490,-132.25 490,-113 548,-113 548,-132.25"/>
<text text-anchor="middle" x="519" y="-118.75" font-family="Helvetica,sans-Serif" font-size="10.00">lstr_equal</text>
</a>
</g>
</g>
<!-- Node4&#45;&gt;Node18 -->
<g id="edge20_Node000004_Node000018" class="edge">
<title>Node4&#45;&gt;Node18</title>
<g id="a_edge20_Node000004_Node000018"><a xlink:title=" ">
<path fill="none" stroke="#63b8ff" d="M419.61,-122.62C438.89,-122.62 460.51,-122.62 478.57,-122.62"/>
<polygon fill="#63b8ff" stroke="#63b8ff" points="478.34,-126.13 488.34,-122.63 478.34,-119.13 478.34,-126.13"/>
</a>
</g>
</g>
<!-- Node6 -->
<g id="Node000006" class="node">
<title>Node6</title>
<g id="a_Node000006"><a xlink:href="../../de/d1a/container-dlist_8h.html#a71e7667ca0e4b896923788c5851afd24" target="_top" xlink:title="Put element e between prev and next.">
<polygon fill="white" stroke="#666666" points="695.25,-56.25 629.75,-56.25 629.75,-37 695.25,-37 695.25,-56.25"/>
<text text-anchor="middle" x="662.5" y="-42.75" font-family="Helvetica,sans-Serif" font-size="10.00">__dlist_add</text>
</a>
</g>
</g>
<!-- Node5&#45;&gt;Node6 -->
<g id="edge6_Node000005_Node000006" class="edge">
<title>Node5&#45;&gt;Node6</title>
<g id="a_edge6_Node000005_Node000006"><a xlink:title=" ">
<path fill="none" stroke="#63b8ff" d="M546.95,-46.62C567.05,-46.62 594.92,-46.62 618.14,-46.62"/>
<polygon fill="#63b8ff" stroke="#63b8ff" points="617.94,-50.13 627.94,-46.63 617.94,-43.13 617.94,-50.13"/>
</a>
</g>
</g>
<!-- Node9 -->
<g id="Node000009" class="node">
<title>Node9</title>
<g id="a_Node000009"><a xlink:href="../../df/d0a/str-l_8h.html#a6a200ca09358f19b13a8e297cda34869" target="_top" xlink:title="returns a constant copy of \v s.">
<polygon fill="white" stroke="#666666" points="690.38,-207.25 634.62,-207.25 634.62,-188 690.38,-188 690.38,-207.25"/>
<text text-anchor="middle" x="662.5" y="-193.75" font-family="Helvetica,sans-Serif" font-size="10.00">lstr_dupc</text>
</a>
</g>
</g>
<!-- Node8&#45;&gt;Node9 -->
<g id="edge9_Node000008_Node000009" class="edge">
<title>Node8&#45;&gt;Node9</title>
<g id="a_edge9_Node000008_Node000009"><a xlink:title=" ">
<path fill="none" stroke="#63b8ff" d="M557.55,-169.71C577.9,-175.17 603,-181.91 623.43,-187.4"/>
<polygon fill="#63b8ff" stroke="#63b8ff" points="622.52,-190.78 633.08,-189.99 624.33,-184.02 622.52,-190.78"/>
</a>
</g>
</g>
<!-- Node8&#45;&gt;Node11 -->
<g id="edge11_Node000008_Node000011" class="edge">
<title>Node8&#45;&gt;Node11</title>
<g id="a_edge11_Node000008_Node000011"><a xlink:title=" ">
<path fill="none" stroke="#63b8ff" d="M582.89,-159.62C596.65,-159.62 610.81,-159.62 623.26,-159.62"/>
<polygon fill="#63b8ff" stroke="#63b8ff" points="623.08,-163.13 633.08,-159.63 623.08,-156.13 623.08,-163.13"/>
</a>
</g>
</g>
<!-- Node10 -->
<g id="Node000010" class="node">
<title>Node10</title>
<g id="a_Node000010"><a xlink:href="../../df/d0a/str-l_8h.html#a3b4dbe9c4cc70340cba0787574dc1c5e" target="_top" xlink:title=" ">
<polygon fill="white" stroke="#666666" points="1020,-207.25 967.25,-207.25 967.25,-188 1020,-188 1020,-207.25"/>
<text text-anchor="middle" x="993.62" y="-193.75" font-family="Helvetica,sans-Serif" font-size="10.00">lstr_init_</text>
</a>
</g>
</g>
<!-- Node9&#45;&gt;Node10 -->
<g id="edge10_Node000009_Node000010" class="edge">
<title>Node9&#45;&gt;Node10</title>
<g id="a_edge10_Node000009_Node000010"><a xlink:title=" ">
<path fill="none" stroke="#63b8ff" d="M690.71,-197.62C749.56,-197.62 888.69,-197.62 955.53,-197.62"/>
<polygon fill="#63b8ff" stroke="#63b8ff" points="955.24,-201.13 965.24,-197.63 955.24,-194.13 955.24,-201.13"/>
</a>
</g>
</g>
<!-- Node12 -->
<g id="Node000012" class="node">
<title>Node12</title>
<g id="a_Node000012"><a xlink:href="../../df/d0a/str-l_8h.html#a381cd831ac9616c5bea8213bb679d1ac" target="_top" xlink:title="Wipe a lstr_t (frees memory if needed).">
<polygon fill="white" stroke="#666666" points="816.25,-169.25 742.5,-169.25 742.5,-150 816.25,-150 816.25,-169.25"/>
<text text-anchor="middle" x="779.38" y="-155.75" font-family="Helvetica,sans-Serif" font-size="10.00">mp_lstr_wipe</text>
</a>
</g>
</g>
<!-- Node11&#45;&gt;Node12 -->
<g id="edge12_Node000011_Node000012" class="edge">
<title>Node11&#45;&gt;Node12</title>
<g id="a_edge12_Node000011_Node000012"><a xlink:title=" ">
<path fill="none" stroke="#63b8ff" d="M690.43,-159.62C702.45,-159.62 716.98,-159.62 730.74,-159.62"/>
<polygon fill="#63b8ff" stroke="#63b8ff" points="730.53,-163.13 740.53,-159.63 730.53,-156.13 730.53,-163.13"/>
</a>
</g>
</g>
<!-- Node13 -->
<g id="Node000013" class="node">
<title>Node13</title>
<g id="a_Node000013"><a xlink:href="../../de/d04/str-l_8c.html#abe2a3a71f0b4dbc7d37c59d16762b6fb" target="_top" xlink:title="lstr_copy_* helper.">
<polygon fill="white" stroke="#666666" points="931.25,-169.25 852.25,-169.25 852.25,-150 931.25,-150 931.25,-169.25"/>
<text text-anchor="middle" x="891.75" y="-155.75" font-family="Helvetica,sans-Serif" font-size="10.00">mp_lstr_copy_</text>
</a>
</g>
</g>
<!-- Node12&#45;&gt;Node13 -->
<g id="edge13_Node000012_Node000013" class="edge">
<title>Node12&#45;&gt;Node13</title>
<g id="a_edge13_Node000012_Node000013"><a xlink:title=" ">
<path fill="none" stroke="#63b8ff" d="M816.52,-159.62C824.21,-159.62 832.46,-159.62 840.57,-159.62"/>
<polygon fill="#63b8ff" stroke="#63b8ff" points="840.35,-163.13 850.35,-159.63 840.35,-156.13 840.35,-163.13"/>
</a>
</g>
</g>
<!-- Node13&#45;&gt;Node10 -->
<g id="edge19_Node000013_Node000010" class="edge">
<title>Node13&#45;&gt;Node10</title>
<g id="a_edge19_Node000013_Node000010"><a xlink:title=" ">
<path fill="none" stroke="#63b8ff" d="M919.25,-169.71C930.69,-174.06 944.26,-179.22 956.6,-183.92"/>
<polygon fill="#63b8ff" stroke="#63b8ff" points="955.03,-187.07 965.62,-187.35 957.52,-180.52 955.03,-187.07"/>
</a>
</g>
</g>
<!-- Node14 -->
<g id="Node000014" class="node">
<title>Node14</title>
<g id="a_Node000014"><a xlink:href="../../d9/d9a/mem_8h.html#aebbbd277e2952bdb802104671ba23ba9" target="_top" xlink:title=" ">
<polygon fill="white" stroke="#666666" points="1011,-170.25 976.25,-170.25 976.25,-151 1011,-151 1011,-170.25"/>
<text text-anchor="middle" x="993.62" y="-156.75" font-family="Helvetica,sans-Serif" font-size="10.00">ifree</text>
</a>
</g>
</g>
<!-- Node13&#45;&gt;Node14 -->
<g id="edge14_Node000013_Node000014" class="edge">
<title>Node13&#45;&gt;Node14</title>
<g id="a_edge14_Node000013_Node000014"><a xlink:title=" ">
<path fill="none" stroke="#63b8ff" d="M931.65,-160.01C942.55,-160.12 954.2,-160.24 964.35,-160.34"/>
<polygon fill="#63b8ff" stroke="#63b8ff" points="964.31,-163.84 974.35,-160.44 964.38,-156.84 964.31,-163.84"/>
</a>
</g>
</g>
<!-- Node15 -->
<g id="Node000015" class="node">
<title>Node15</title>
<g id="a_Node000015"><a xlink:href="../../d8/d37/mem_8blk.html#a36b65ab346f1d0deed7b63c544c78f2b" target="_top" xlink:title=" ">
<polygon fill="white" stroke="#666666" points="1100.88,-245.25 1064.62,-245.25 1064.62,-226 1100.88,-226 1100.88,-245.25"/>
<text text-anchor="middle" x="1082.75" y="-231.75" font-family="Helvetica,sans-Serif" font-size="10.00">ipool</text>
</a>
</g>
</g>
<!-- Node14&#45;&gt;Node15 -->
<g id="edge15_Node000014_Node000015" class="edge">
<title>Node14&#45;&gt;Node15</title>
<g id="a_edge15_Node000014_Node000015"><a xlink:title=" ">
<path fill="none" stroke="#63b8ff" d="M1009.36,-170.59C1012.91,-173.13 1016.64,-175.9 1020,-178.62 1035.32,-191.05 1051.68,-206.24 1063.71,-217.82"/>
<polygon fill="#63b8ff" stroke="#63b8ff" points="1060.93,-220 1070.54,-224.47 1065.81,-214.98 1060.93,-220"/>
</a>
</g>
</g>
<!-- Node17 -->
<g id="Node000017" class="node">
<title>Node17</title>
<g id="a_Node000017"><a xlink:href="../../d8/d37/mem_8blk.html#a83c7cf203e5eef9d1a8c6c43cde3e2e5" target="_top" xlink:title=" ">
<polygon fill="white" stroke="#666666" points="1109.5,-170.25 1056,-170.25 1056,-151 1109.5,-151 1109.5,-170.25"/>
<text text-anchor="middle" x="1082.75" y="-156.75" font-family="Helvetica,sans-Serif" font-size="10.00">mp_ifree</text>
</a>
</g>
</g>
<!-- Node14&#45;&gt;Node17 -->
<g id="edge18_Node000014_Node000017" class="edge">
<title>Node14&#45;&gt;Node17</title>
<g id="a_edge18_Node000014_Node000017"><a xlink:title=" ">
<path fill="none" stroke="#63b8ff" d="M1011.42,-160.62C1020.84,-160.62 1032.99,-160.62 1044.53,-160.62"/>
<polygon fill="#63b8ff" stroke="#63b8ff" points="1044.23,-164.13 1054.23,-160.63 1044.23,-157.13 1044.23,-164.13"/>
</a>
</g>
</g>
<!-- Node15&#45;&gt;Node2 -->
<g id="edge16_Node000015_Node000002" class="edge">
<title>Node15&#45;&gt;Node2</title>
<g id="a_edge16_Node000015_Node000002"><a xlink:title=" ">
<path fill="none" stroke="#63b8ff" d="M1064.27,-241.56C1031.19,-252.25 957.01,-273.62 892.75,-273.62 366.62,-273.62 366.62,-273.62 366.62,-273.62 284.88,-273.62 261.95,-258.51 191.75,-216.62 174.66,-206.43 158.52,-190.56 147.31,-178.15"/>
<polygon fill="#63b8ff" stroke="#63b8ff" points="149.97,-175.87 140.76,-170.63 144.69,-180.47 149.97,-175.87"/>
</a>
</g>
</g>
<!-- Node16 -->
<g id="Node000016" class="node">
<title>Node16</title>
<g id="a_Node000016"><a xlink:href="../../d1/d10/mem-stack_8h.html#a1d0e2a29f86dc033a02e50484b527fd0" target="_top" xlink:title=" ">
<polygon fill="white" stroke="#666666" points="1187.75,-245.25 1145.5,-245.25 1145.5,-226 1187.75,-226 1187.75,-245.25"/>
<text text-anchor="middle" x="1166.62" y="-231.75" font-family="Helvetica,sans-Serif" font-size="10.00">t_pool</text>
</a>
</g>
</g>
<!-- Node15&#45;&gt;Node16 -->
<g id="edge17_Node000015_Node000016" class="edge">
<title>Node15&#45;&gt;Node16</title>
<g id="a_edge17_Node000015_Node000016"><a xlink:title=" ">
<path fill="none" stroke="#63b8ff" d="M1101.11,-235.62C1110.56,-235.62 1122.54,-235.62 1133.61,-235.62"/>
<polygon fill="#63b8ff" stroke="#63b8ff" points="1133.59,-239.13 1143.59,-235.63 1133.59,-232.13 1133.59,-239.13"/>
</a>
</g>
</g>
<!-- Node21&#45;&gt;Node9 -->
<g id="edge28_Node000021_Node000009" class="edge">
<title>Node21&#45;&gt;Node9</title>
<g id="a_edge28_Node000021_Node000009"><a xlink:title=" ">
<path fill="none" stroke="#63b8ff" d="M268.68,-197.62C345.36,-197.62 539.7,-197.62 622.83,-197.62"/>
<polygon fill="#63b8ff" stroke="#63b8ff" points="622.74,-201.13 632.74,-197.63 622.74,-194.13 622.74,-201.13"/>
</a>
</g>
</g>
<!-- Node22 -->
<g id="Node000022" class="node">
<title>Node22</title>
<g id="a_Node000022"><a xlink:href="../../d1/dc0/group__log.html#ga168a6f17b248f61f7d25a17d58d04e36" target="_top" xlink:title=" ">
<polygon fill="white" stroke="#666666" points="412,-245.25 323.25,-245.25 323.25,-226 412,-226 412,-245.25"/>
<text text-anchor="middle" x="367.62" y="-231.75" font-family="Helvetica,sans-Serif" font-size="10.00">logger_has_level</text>
</a>
</g>
</g>
<!-- Node21&#45;&gt;Node22 -->
<g id="edge25_Node000021_Node000022" class="edge">
<title>Node21&#45;&gt;Node22</title>
<g id="a_edge25_Node000021_Node000022"><a xlink:title=" ">
<path fill="none" stroke="#63b8ff" d="M268.85,-207.02C284.63,-211.63 303.91,-217.28 321.17,-222.33"/>
<polygon fill="#63b8ff" stroke="#63b8ff" points="320.13,-225.67 330.71,-225.12 322.09,-218.95 320.13,-225.67"/>
</a>
</g>
</g>
<!-- Node23 -->
<g id="Node000023" class="node">
<title>Node23</title>
<g id="a_Node000023"><a xlink:href="../../d1/dc0/group__log.html#gaf388752b988541da0abeceecdf96e6b3" target="_top" xlink:title=" ">
<polygon fill="white" stroke="#666666" points="562.25,-245.25 475.75,-245.25 475.75,-226 562.25,-226 562.25,-245.25"/>
<text text-anchor="middle" x="519" y="-231.75" font-family="Helvetica,sans-Serif" font-size="10.00">logger_get_level</text>
</a>
</g>
</g>
<!-- Node22&#45;&gt;Node23 -->
<g id="edge26_Node000022_Node000023" class="edge">
<title>Node22&#45;&gt;Node23</title>
<g id="a_edge26_Node000022_Node000023"><a xlink:title=" ">
<path fill="none" stroke="#63b8ff" d="M412.23,-235.62C428.39,-235.62 446.92,-235.62 463.9,-235.62"/>
<polygon fill="#63b8ff" stroke="#63b8ff" points="463.86,-239.13 473.86,-235.63 463.86,-232.13 463.86,-239.13"/>
</a>
</g>
</g>
<!-- Node24 -->
<g id="Node000024" class="node">
<title>Node24</title>
<g id="a_Node000024"><a xlink:href="../../d1/dc0/group__log.html#ga93cbd623096e1704532d15b3eb30e42f" target="_top" xlink:title=" ">
<polygon fill="white" stroke="#666666" points="706.5,-245.25 618.5,-245.25 618.5,-226 706.5,-226 706.5,-245.25"/>
<text text-anchor="middle" x="662.5" y="-231.75" font-family="Helvetica,sans-Serif" font-size="10.00">__logger_refresh</text>
</a>
</g>
</g>
<!-- Node23&#45;&gt;Node24 -->
<g id="edge27_Node000023_Node000024" class="edge">
<title>Node23&#45;&gt;Node24</title>
<g id="a_edge27_Node000023_Node000024"><a xlink:title=" ">
<path fill="none" stroke="#63b8ff" d="M562.45,-235.62C576.33,-235.62 591.94,-235.62 606.6,-235.62"/>
<polygon fill="#63b8ff" stroke="#63b8ff" points="606.58,-239.13 616.58,-235.63 606.58,-232.13 606.58,-239.13"/>
</a>
</g>
</g>
</g>
</svg>
