<?xml version="1.0" encoding="UTF-8" standalone="no"?>
<!DOCTYPE svg PUBLIC "-//W3C//DTD SVG 1.1//EN"
 "http://www.w3.org/Graphics/SVG/1.1/DTD/svg11.dtd">
<!-- Generated by graphviz version 9.0.0 (20230911.1827)
 -->
<!-- Title: imalloc Pages: 1 -->
<!--zoomable 329 -->

<svg id="main" version="1.1" xmlns="http://www.w3.org/2000/svg" xmlns:xlink="http://www.w3.org/1999/xlink" xml:space="preserve" onload="init(evt)">
<style type="text/css"><![CDATA[
.node, .edge {opacity: 0.7;}
.node.selected, .edge.selected {opacity: 1;}
.edge:hover path { stroke: red; }
.edge:hover polygon { stroke: red; fill: red; }
]]></style>

<defs>
  <circle id="rim" cx="0" cy="0" r="7"/>
  <circle id="rim2" cx="0" cy="0" r="3.5"/>
  <g id="zoomPlus">
    <use xlink:href="#rim" fill="#404040"><set attributeName="fill" to="#808080" begin="zoomplus.mouseover" end="zoomplus.mouseout"/></use>
    <path d="M-4,0h8M0,-4v8" fill="none" stroke="white" stroke-width="1.5" pointer-events="none"/>
  </g>
  <g id="zoomMin">
    <use xlink:href="#rim" fill="#404040"><set attributeName="fill" to="#808080" begin="zoomminus.mouseover" end="zoomminus.mouseout"/></use>
    <path d="M-4,0h8" fill="none" stroke="white" stroke-width="1.5" pointer-events="none"/>
  </g>
  <g id="arrowUp" transform="translate(30 24)">
    <use xlink:href="#rim"/>
    <path pointer-events="none" fill="none" stroke="white" stroke-width="1.5" d="M0,-3.0v7 M-2.5,-0.5L0,-3.0L2.5,-0.5"/>
  </g>
  <g id="arrowRight" transform="rotate(90) translate(36 -43)">
    <use xlink:href="#rim"/>
    <path pointer-events="none" fill="none" stroke="white" stroke-width="1.5" d="M0,-3.0v7 M-2.5,-0.5L0,-3.0L2.5,-0.5"/>
  </g>
  <g id="arrowDown" transform="rotate(180) translate(-30 -48)">
    <use xlink:href="#rim"/>
    <path pointer-events="none" fill="none" stroke="white" stroke-width="1.5" d="M0,-3.0v7 M-2.5,-0.5L0,-3.0L2.5,-0.5"/>
  </g>
  <g id="arrowLeft" transform="rotate(270) translate(-36 17)">
    <use xlink:href="#rim"/>
    <path pointer-events="none" fill="none" stroke="white" stroke-width="1.5" d="M0,-3.0v7 M-2.5,-0.5L0,-3.0L2.5,-0.5"/>
  </g>
  <g id="resetDef">
    <use xlink:href="#rim2" fill="#404040"><set attributeName="fill" to="#808080" begin="reset.mouseover" end="reset.mouseout"/></use>
  </g>
</defs>
<script type="application/ecmascript">
var viewWidth = 1493;
var viewHeight = 329;
var sectionId = 'dynsection-19';
</script>
<script type="application/ecmascript" xlink:href="../../svg.min.js"/>
<svg id="graph" class="graph">
<g id="viewport">
<title>imalloc</title>
<!-- Node1 -->
<g id="Node000001" class="node">
<title>Node1</title>
<g id="a_Node000001"><a xlink:title=" ">
<polygon fill="#999999" stroke="#666666" points="46.75,-264.25 0,-264.25 0,-245 46.75,-245 46.75,-264.25"/>
<text text-anchor="middle" x="23.38" y="-250.75" font-family="Helvetica,sans-Serif" font-size="10.00">imalloc</text>
</a>
</g>
</g>
<!-- Node2 -->
<g id="Node000002" class="node">
<title>Node2</title>
<g id="a_Node000002"><a xlink:href="../../d8/d37/mem_8blk.html#a36b65ab346f1d0deed7b63c544c78f2b" target="_top" xlink:title=" ">
<polygon fill="white" stroke="#666666" points="402.25,-283.25 366,-283.25 366,-264 402.25,-264 402.25,-283.25"/>
<text text-anchor="middle" x="384.12" y="-269.75" font-family="Helvetica,sans-Serif" font-size="10.00">ipool</text>
</a>
</g>
</g>
<!-- Node1&#45;&gt;Node2 -->
<g id="edge1_Node000001_Node000002" class="edge">
<title>Node1&#45;&gt;Node2</title>
<g id="a_edge1_Node000001_Node000002"><a xlink:title=" ">
<path fill="none" stroke="#63b8ff" d="M47.09,-255.83C109.71,-259.14 284.79,-268.42 354.22,-272.09"/>
<polygon fill="#63b8ff" stroke="#63b8ff" points="353.86,-275.58 364.03,-272.61 354.23,-268.59 353.86,-275.58"/>
</a>
</g>
</g>
<!-- Node26 -->
<g id="Node000026" class="node">
<title>Node26</title>
<g id="a_Node000026"><a xlink:href="../../d9/d9a/mem_8h.html#ada6bb9661f0c10ccaa14d231c24aeafd" target="_top" xlink:title=" ">
<polygon fill="white" stroke="#666666" points="148.25,-245.25 82.75,-245.25 82.75,-226 148.25,-226 148.25,-245.25"/>
<text text-anchor="middle" x="115.5" y="-231.75" font-family="Helvetica,sans-Serif" font-size="10.00">mp_imalloc</text>
</a>
</g>
</g>
<!-- Node1&#45;&gt;Node26 -->
<g id="edge30_Node000001_Node000026" class="edge">
<title>Node1&#45;&gt;Node26</title>
<g id="a_edge30_Node000001_Node000026"><a xlink:title=" ">
<path fill="none" stroke="#63b8ff" d="M47.12,-249.83C54.5,-248.27 62.96,-246.49 71.33,-244.73"/>
<polygon fill="#63b8ff" stroke="#63b8ff" points="72.03,-248.16 81.09,-242.67 70.59,-241.31 72.03,-248.16"/>
</a>
</g>
</g>
<!-- Node3 -->
<g id="Node000003" class="node">
<title>Node3</title>
<g id="a_Node000003"><a xlink:href="../../d7/df8/log_8c.html#abca342edf91a9b45f7a17ef564fa8a53" target="_top" xlink:title=" ">
<polygon fill="white" stroke="#666666" points="526.25,-208.25 476.5,-208.25 476.5,-189 526.25,-189 526.25,-208.25"/>
<text text-anchor="middle" x="501.38" y="-194.75" font-family="Helvetica,sans-Serif" font-size="10.00">e_panic</text>
</a>
</g>
</g>
<!-- Node2&#45;&gt;Node3 -->
<g id="edge2_Node000002_Node000003" class="edge">
<title>Node2&#45;&gt;Node3</title>
<g id="a_edge2_Node000002_Node000003"><a xlink:title=" ">
<path fill="none" stroke="#63b8ff" d="M402.51,-268.69C412.48,-265.46 425.01,-260.71 435.25,-254.62 452.99,-244.08 470.59,-228.57 483.01,-216.54"/>
<polygon fill="#63b8ff" stroke="#63b8ff" points="485.37,-219.13 489.99,-209.59 480.43,-214.16 485.37,-219.13"/>
</a>
</g>
</g>
<!-- Node25 -->
<g id="Node000025" class="node">
<title>Node25</title>
<g id="a_Node000025"><a xlink:href="../../d1/d10/mem-stack_8h.html#a1d0e2a29f86dc033a02e50484b527fd0" target="_top" xlink:title=" ">
<polygon fill="white" stroke="#666666" points="522.5,-321.25 480.25,-321.25 480.25,-302 522.5,-302 522.5,-321.25"/>
<text text-anchor="middle" x="501.38" y="-307.75" font-family="Helvetica,sans-Serif" font-size="10.00">t_pool</text>
</a>
</g>
</g>
<!-- Node2&#45;&gt;Node25 -->
<g id="edge29_Node000002_Node000025" class="edge">
<title>Node2&#45;&gt;Node25</title>
<g id="a_edge29_Node000002_Node000025"><a xlink:title=" ">
<path fill="none" stroke="#63b8ff" d="M402.63,-279.4C420.24,-285.2 447.79,-294.29 469.15,-301.33"/>
<polygon fill="#63b8ff" stroke="#63b8ff" points="467.95,-304.62 478.54,-304.43 470.14,-297.97 467.95,-304.62"/>
</a>
</g>
</g>
<!-- Node4 -->
<g id="Node000004" class="node">
<title>Node4</title>
<g id="a_Node000004"><a xlink:href="../../d7/df8/log_8c.html#a4bc04f7baa1e064cb0b93c7b9f3a61a1" target="_top" xlink:title=" ">
<polygon fill="white" stroke="#666666" points="655.5,-208.25 567.5,-208.25 567.5,-189 655.5,-189 655.5,-208.25"/>
<text text-anchor="middle" x="611.5" y="-194.75" font-family="Helvetica,sans-Serif" font-size="10.00">__logger_refresh</text>
</a>
</g>
</g>
<!-- Node3&#45;&gt;Node4 -->
<g id="edge3_Node000003_Node000004" class="edge">
<title>Node3&#45;&gt;Node4</title>
<g id="a_edge3_Node000003_Node000004"><a xlink:title=" ">
<path fill="none" stroke="#63b8ff" d="M526.64,-198.62C535.33,-198.62 545.5,-198.62 555.72,-198.62"/>
<polygon fill="#63b8ff" stroke="#63b8ff" points="555.67,-202.13 565.67,-198.63 555.67,-195.13 555.67,-202.13"/>
</a>
</g>
</g>
<!-- Node20 -->
<g id="Node000020" class="node">
<title>Node20</title>
<g id="a_Node000020"><a xlink:href="../../d7/df8/log_8c.html#a900490b26df7698aac12f7f7e6517e81" target="_top" xlink:title=" ">
<polygon fill="white" stroke="#666666" points="644.25,-114.25 578.75,-114.25 578.75,-95 644.25,-95 644.25,-114.25"/>
<text text-anchor="middle" x="611.5" y="-100.75" font-family="Helvetica,sans-Serif" font-size="10.00">logger_vlog</text>
</a>
</g>
</g>
<!-- Node3&#45;&gt;Node20 -->
<g id="edge23_Node000003_Node000020" class="edge">
<title>Node3&#45;&gt;Node20</title>
<g id="a_edge23_Node000003_Node000020"><a xlink:title=" ">
<path fill="none" stroke="#63b8ff" d="M520.03,-188.55C523.91,-186.11 527.93,-183.39 531.5,-180.62 554.59,-162.71 578.41,-138.94 593.77,-122.79"/>
<polygon fill="#63b8ff" stroke="#63b8ff" points="596.05,-125.47 600.34,-115.79 590.94,-120.68 596.05,-125.47"/>
</a>
</g>
</g>
<!-- Node24 -->
<g id="Node000024" class="node">
<title>Node24</title>
<g id="a_Node000024"><a xlink:href="../../d2/d4d/file_8h.html#a25419a391fdd4ad7954699c58cfeb3b9" target="_top" xlink:title=" ">
<polygon fill="white" stroke="#666666" points="637.12,-77.25 585.88,-77.25 585.88,-58 637.12,-58 637.12,-77.25"/>
<text text-anchor="middle" x="611.5" y="-63.75" font-family="Helvetica,sans-Serif" font-size="10.00">va_start</text>
</a>
</g>
</g>
<!-- Node3&#45;&gt;Node24 -->
<g id="edge28_Node000003_Node000024" class="edge">
<title>Node3&#45;&gt;Node24</title>
<g id="a_edge28_Node000003_Node000024"><a xlink:title=" ">
<path fill="none" stroke="#63b8ff" d="M522.57,-188.6C525.86,-186.31 529,-183.65 531.5,-180.62 560.23,-145.79 536.12,-118.09 567.5,-85.62 569.82,-83.22 572.51,-81.13 575.39,-79.31"/>
<polygon fill="#63b8ff" stroke="#63b8ff" points="576.97,-82.43 584.29,-74.78 573.79,-76.19 576.97,-82.43"/>
</a>
</g>
</g>
<!-- Node5 -->
<g id="Node000005" class="node">
<title>Node5</title>
<g id="a_Node000005"><a xlink:href="../../d7/df8/log_8c.html#a3dbd75fb614210f0b114cfd03c9c0a7b" target="_top" xlink:title=" ">
<polygon fill="white" stroke="#666666" points="795.25,-153.25 691.5,-153.25 691.5,-134 795.25,-134 795.25,-153.25"/>
<text text-anchor="middle" x="743.38" y="-139.75" font-family="Helvetica,sans-Serif" font-size="10.00">__logger_do_refresh</text>
</a>
</g>
</g>
<!-- Node4&#45;&gt;Node5 -->
<g id="edge4_Node000004_Node000005" class="edge">
<title>Node4&#45;&gt;Node5</title>
<g id="a_edge4_Node000004_Node000005"><a xlink:title=" ">
<path fill="none" stroke="#63b8ff" d="M636.32,-188.54C656.46,-180.01 685.56,-167.69 708.19,-158.1"/>
<polygon fill="#63b8ff" stroke="#63b8ff" points="709.47,-161.36 717.31,-154.24 706.74,-154.92 709.47,-161.36"/>
</a>
</g>
</g>
<!-- Node18 -->
<g id="Node000018" class="node">
<title>Node18</title>
<g id="a_Node000018"><a xlink:href="../../d7/df8/log_8c.html#a7b1b02d1986e1247c2f571af4a2c2854" target="_top" xlink:title=" ">
<polygon fill="white" stroke="#666666" points="781,-245.25 705.75,-245.25 705.75,-226 781,-226 781,-245.25"/>
<text text-anchor="middle" x="743.38" y="-231.75" font-family="Helvetica,sans-Serif" font-size="10.00">log_spin_lock</text>
</a>
</g>
</g>
<!-- Node4&#45;&gt;Node18 -->
<g id="edge21_Node000004_Node000018" class="edge">
<title>Node4&#45;&gt;Node18</title>
<g id="a_edge21_Node000004_Node000018"><a xlink:title=" ">
<path fill="none" stroke="#63b8ff" d="M647.99,-208.74C662.88,-212.98 680.39,-217.97 696.26,-222.49"/>
<polygon fill="#63b8ff" stroke="#63b8ff" points="694.9,-225.74 705.47,-225.11 696.82,-219.01 694.9,-225.74"/>
</a>
</g>
</g>
<!-- Node19 -->
<g id="Node000019" class="node">
<title>Node19</title>
<g id="a_Node000019"><a xlink:href="../../d1/dc0/group__log.html#ga045020bb4af234632f7761f220131c69" target="_top" xlink:title=" ">
<polygon fill="white" stroke="#666666" points="786.25,-208.25 700.5,-208.25 700.5,-189 786.25,-189 786.25,-208.25"/>
<text text-anchor="middle" x="743.38" y="-194.75" font-family="Helvetica,sans-Serif" font-size="10.00">log_spin_unlock</text>
</a>
</g>
</g>
<!-- Node4&#45;&gt;Node19 -->
<g id="edge22_Node000004_Node000019" class="edge">
<title>Node4&#45;&gt;Node19</title>
<g id="a_edge22_Node000004_Node000019"><a xlink:title=" ">
<path fill="none" stroke="#63b8ff" d="M655.75,-198.62C666.37,-198.62 677.87,-198.62 688.91,-198.62"/>
<polygon fill="#63b8ff" stroke="#63b8ff" points="688.69,-202.13 698.69,-198.63 688.69,-195.13 688.69,-202.13"/>
</a>
</g>
</g>
<!-- Node5&#45;&gt;Node5 -->
<g id="edge5_Node000005_Node000005" class="edge">
<title>Node5&#45;&gt;Node5</title>
<g id="a_edge5_Node000005_Node000005"><a xlink:title=" ">
<path fill="none" stroke="#63b8ff" d="M722.73,-153.54C713.31,-162.15 720.19,-171.25 743.38,-171.25 756.05,-171.25 763.85,-168.53 766.78,-164.65"/>
<polygon fill="#63b8ff" stroke="#63b8ff" points="770.19,-163.87 764.39,-155.01 763.4,-165.56 770.19,-163.87"/>
</a>
</g>
</g>
<!-- Node6 -->
<g id="Node000006" class="node">
<title>Node6</title>
<g id="a_Node000006"><a xlink:href="../../de/d1a/container-dlist_8h.html#a3b6f65860b212e28f2e28e71eb54d54d" target="_top" xlink:title="Add element e at the head of list l (suited for LIFO).">
<polygon fill="white" stroke="#666666" points="922.25,-245.25 867.25,-245.25 867.25,-226 922.25,-226 922.25,-245.25"/>
<text text-anchor="middle" x="894.75" y="-231.75" font-family="Helvetica,sans-Serif" font-size="10.00">dlist_add</text>
</a>
</g>
</g>
<!-- Node5&#45;&gt;Node6 -->
<g id="edge6_Node000005_Node000006" class="edge">
<title>Node5&#45;&gt;Node6</title>
<g id="a_edge6_Node000005_Node000006"><a xlink:title=" ">
<path fill="none" stroke="#63b8ff" d="M760.1,-153.59C770.47,-160.43 784.13,-169.99 795.25,-179.62 812.83,-194.86 811.37,-205.54 831.25,-217.62 838.76,-222.19 847.49,-225.65 855.99,-228.25"/>
<polygon fill="#63b8ff" stroke="#63b8ff" points="854.9,-231.58 865.47,-230.79 856.72,-224.82 854.9,-231.58"/>
</a>
</g>
</g>
<!-- Node8 -->
<g id="Node000008" class="node">
<title>Node8</title>
<g id="a_Node000008"><a xlink:href="../../de/d1a/container-dlist_8h.html#a0a69e401f6ec15966c891e96ad864c77" target="_top" xlink:title="Put a dlist_t element in a safe and detached state.">
<polygon fill="white" stroke="#666666" points="920.75,-132.25 868.75,-132.25 868.75,-113 920.75,-113 920.75,-132.25"/>
<text text-anchor="middle" x="894.75" y="-118.75" font-family="Helvetica,sans-Serif" font-size="10.00">dlist_init</text>
</a>
</g>
</g>
<!-- Node5&#45;&gt;Node8 -->
<g id="edge8_Node000005_Node000008" class="edge">
<title>Node5&#45;&gt;Node8</title>
<g id="a_edge8_Node000005_Node000008"><a xlink:title=" ">
<path fill="none" stroke="#63b8ff" d="M795.36,-136.46C815.7,-133.6 838.66,-130.37 857.28,-127.75"/>
<polygon fill="#63b8ff" stroke="#63b8ff" points="857.62,-131.24 867.04,-126.38 856.65,-124.31 857.62,-131.24"/>
</a>
</g>
</g>
<!-- Node9 -->
<g id="Node000009" class="node">
<title>Node9</title>
<g id="a_Node000009"><a xlink:href="../../d7/df8/log_8c.html#a4c8fbe8648573312126ce341cf34cba1" target="_top" xlink:title=" ">
<polygon fill="white" stroke="#666666" points="958.25,-95.25 831.25,-95.25 831.25,-76 958.25,-76 958.25,-95.25"/>
<text text-anchor="middle" x="894.75" y="-81.75" font-family="Helvetica,sans-Serif" font-size="10.00">logger_compute_fullname</text>
</a>
</g>
</g>
<!-- Node5&#45;&gt;Node9 -->
<g id="edge9_Node000005_Node000009" class="edge">
<title>Node5&#45;&gt;Node9</title>
<g id="a_edge9_Node000005_Node000009"><a xlink:title=" ">
<path fill="none" stroke="#63b8ff" d="M764.03,-133.54C781.4,-124.87 807.59,-112.42 831.25,-103.62 835.6,-102.01 840.16,-100.45 844.75,-98.97"/>
<polygon fill="#63b8ff" stroke="#63b8ff" points="845.47,-102.41 854,-96.11 843.41,-95.72 845.47,-102.41"/>
</a>
</g>
</g>
<!-- Node12 -->
<g id="Node000012" class="node">
<title>Node12</title>
<g id="a_Node000012"><a xlink:href="../../df/d0a/str-l_8h.html#ad74dae07179370f3c22e3f026157926e" target="_top" xlink:title="wipe a lstr_t (frees memory if needed).">
<polygon fill="white" stroke="#666666" points="1065.75,-152.25 1010.75,-152.25 1010.75,-133 1065.75,-133 1065.75,-152.25"/>
<text text-anchor="middle" x="1038.25" y="-138.75" font-family="Helvetica,sans-Serif" font-size="10.00">lstr_wipe</text>
</a>
</g>
</g>
<!-- Node5&#45;&gt;Node12 -->
<g id="edge20_Node000005_Node000012" class="edge">
<title>Node5&#45;&gt;Node12</title>
<g id="a_edge20_Node000005_Node000012"><a xlink:title=" ">
<path fill="none" stroke="#63b8ff" d="M795.73,-143.45C853.86,-143.25 947.24,-142.93 999.21,-142.75"/>
<polygon fill="#63b8ff" stroke="#63b8ff" points="999.06,-146.26 1009.05,-142.72 999.04,-139.26 999.06,-146.26"/>
</a>
</g>
</g>
<!-- Node17 -->
<g id="Node000017" class="node">
<title>Node17</title>
<g id="a_Node000017"><a xlink:href="../../df/d0a/str-l_8h.html#a963c22b229774d4b7c106bae4011cb8e" target="_top" xlink:title="Returns whether \v s1 and \v s2 contents are equal.">
<polygon fill="white" stroke="#666666" points="923.75,-208.25 865.75,-208.25 865.75,-189 923.75,-189 923.75,-208.25"/>
<text text-anchor="middle" x="894.75" y="-194.75" font-family="Helvetica,sans-Serif" font-size="10.00">lstr_equal</text>
</a>
</g>
</g>
<!-- Node5&#45;&gt;Node17 -->
<g id="edge19_Node000005_Node000017" class="edge">
<title>Node5&#45;&gt;Node17</title>
<g id="a_edge19_Node000005_Node000017"><a xlink:title=" ">
<path fill="none" stroke="#63b8ff" d="M771.77,-153.71C795.28,-162.37 829.41,-174.94 855.59,-184.58"/>
<polygon fill="#63b8ff" stroke="#63b8ff" points="854.26,-187.81 864.85,-187.99 856.68,-181.25 854.26,-187.81"/>
</a>
</g>
</g>
<!-- Node7 -->
<g id="Node000007" class="node">
<title>Node7</title>
<g id="a_Node000007"><a xlink:href="../../de/d1a/container-dlist_8h.html#a71e7667ca0e4b896923788c5851afd24" target="_top" xlink:title="Put element e between prev and next.">
<polygon fill="white" stroke="#666666" points="1071,-245.25 1005.5,-245.25 1005.5,-226 1071,-226 1071,-245.25"/>
<text text-anchor="middle" x="1038.25" y="-231.75" font-family="Helvetica,sans-Serif" font-size="10.00">__dlist_add</text>
</a>
</g>
</g>
<!-- Node6&#45;&gt;Node7 -->
<g id="edge7_Node000006_Node000007" class="edge">
<title>Node6&#45;&gt;Node7</title>
<g id="a_edge7_Node000006_Node000007"><a xlink:title=" ">
<path fill="none" stroke="#63b8ff" d="M922.7,-235.62C942.8,-235.62 970.67,-235.62 993.89,-235.62"/>
<polygon fill="#63b8ff" stroke="#63b8ff" points="993.69,-239.13 1003.69,-235.63 993.69,-232.13 993.69,-239.13"/>
</a>
</g>
</g>
<!-- Node10 -->
<g id="Node000010" class="node">
<title>Node10</title>
<g id="a_Node000010"><a xlink:href="../../df/d0a/str-l_8h.html#a6a200ca09358f19b13a8e297cda34869" target="_top" xlink:title="returns a constant copy of \v s.">
<polygon fill="white" stroke="#666666" points="1066.12,-95.25 1010.38,-95.25 1010.38,-76 1066.12,-76 1066.12,-95.25"/>
<text text-anchor="middle" x="1038.25" y="-81.75" font-family="Helvetica,sans-Serif" font-size="10.00">lstr_dupc</text>
</a>
</g>
</g>
<!-- Node9&#45;&gt;Node10 -->
<g id="edge10_Node000009_Node000010" class="edge">
<title>Node9&#45;&gt;Node10</title>
<g id="a_edge10_Node000009_Node000010"><a xlink:title=" ">
<path fill="none" stroke="#63b8ff" d="M958.64,-85.62C972.29,-85.62 986.33,-85.62 998.7,-85.62"/>
<polygon fill="#63b8ff" stroke="#63b8ff" points="998.47,-89.13 1008.47,-85.63 998.47,-82.13 998.47,-89.13"/>
</a>
</g>
</g>
<!-- Node9&#45;&gt;Node12 -->
<g id="edge12_Node000009_Node000012" class="edge">
<title>Node9&#45;&gt;Node12</title>
<g id="a_edge12_Node000009_Node000012"><a xlink:title=" ">
<path fill="none" stroke="#63b8ff" d="M934.78,-95.7C942.64,-98.06 950.77,-100.73 958.25,-103.62 975.58,-110.34 994.26,-119.46 1009.1,-127.2"/>
<polygon fill="#63b8ff" stroke="#63b8ff" points="1007.34,-130.23 1017.81,-131.82 1010.62,-124.05 1007.34,-130.23"/>
</a>
</g>
</g>
<!-- Node11 -->
<g id="Node000011" class="node">
<title>Node11</title>
<g id="a_Node000011"><a xlink:href="../../df/d0a/str-l_8h.html#a3b4dbe9c4cc70340cba0787574dc1c5e" target="_top" xlink:title=" ">
<polygon fill="white" stroke="#666666" points="1395.75,-131.25 1343,-131.25 1343,-112 1395.75,-112 1395.75,-131.25"/>
<text text-anchor="middle" x="1369.38" y="-117.75" font-family="Helvetica,sans-Serif" font-size="10.00">lstr_init_</text>
</a>
</g>
</g>
<!-- Node10&#45;&gt;Node11 -->
<g id="edge11_Node000010_Node000011" class="edge">
<title>Node10&#45;&gt;Node11</title>
<g id="a_edge11_Node000010_Node000011"><a xlink:title=" ">
<path fill="none" stroke="#63b8ff" d="M1066.46,-88.6C1125.31,-95.04 1264.44,-110.26 1331.28,-117.57"/>
<polygon fill="#63b8ff" stroke="#63b8ff" points="1330.68,-121.02 1341,-118.63 1331.44,-114.06 1330.68,-121.02"/>
</a>
</g>
</g>
<!-- Node13 -->
<g id="Node000013" class="node">
<title>Node13</title>
<g id="a_Node000013"><a xlink:href="../../df/d0a/str-l_8h.html#a381cd831ac9616c5bea8213bb679d1ac" target="_top" xlink:title="Wipe a lstr_t (frees memory if needed).">
<polygon fill="white" stroke="#666666" points="1192,-152.25 1118.25,-152.25 1118.25,-133 1192,-133 1192,-152.25"/>
<text text-anchor="middle" x="1155.12" y="-138.75" font-family="Helvetica,sans-Serif" font-size="10.00">mp_lstr_wipe</text>
</a>
</g>
</g>
<!-- Node12&#45;&gt;Node13 -->
<g id="edge13_Node000012_Node000013" class="edge">
<title>Node12&#45;&gt;Node13</title>
<g id="a_edge13_Node000012_Node000013"><a xlink:title=" ">
<path fill="none" stroke="#63b8ff" d="M1066.18,-142.62C1078.2,-142.62 1092.73,-142.62 1106.49,-142.62"/>
<polygon fill="#63b8ff" stroke="#63b8ff" points="1106.28,-146.13 1116.28,-142.63 1106.28,-139.13 1106.28,-146.13"/>
</a>
</g>
</g>
<!-- Node14 -->
<g id="Node000014" class="node">
<title>Node14</title>
<g id="a_Node000014"><a xlink:href="../../de/d04/str-l_8c.html#abe2a3a71f0b4dbc7d37c59d16762b6fb" target="_top" xlink:title="lstr_copy_* helper.">
<polygon fill="white" stroke="#666666" points="1307,-152.25 1228,-152.25 1228,-133 1307,-133 1307,-152.25"/>
<text text-anchor="middle" x="1267.5" y="-138.75" font-family="Helvetica,sans-Serif" font-size="10.00">mp_lstr_copy_</text>
</a>
</g>
</g>
<!-- Node13&#45;&gt;Node14 -->
<g id="edge14_Node000013_Node000014" class="edge">
<title>Node13&#45;&gt;Node14</title>
<g id="a_edge14_Node000013_Node000014"><a xlink:title=" ">
<path fill="none" stroke="#63b8ff" d="M1192.27,-142.62C1199.96,-142.62 1208.21,-142.62 1216.32,-142.62"/>
<polygon fill="#63b8ff" stroke="#63b8ff" points="1216.1,-146.13 1226.1,-142.63 1216.1,-139.13 1216.1,-146.13"/>
</a>
</g>
</g>
<!-- Node14&#45;&gt;Node11 -->
<g id="edge18_Node000014_Node000011" class="edge">
<title>Node14&#45;&gt;Node11</title>
<g id="a_edge18_Node000014_Node000011"><a xlink:title=" ">
<path fill="none" stroke="#63b8ff" d="M1307.4,-134.45C1315.35,-132.77 1323.69,-131.02 1331.56,-129.37"/>
<polygon fill="#63b8ff" stroke="#63b8ff" points="1332.12,-132.83 1341.18,-127.34 1330.68,-125.98 1332.12,-132.83"/>
</a>
</g>
</g>
<!-- Node15 -->
<g id="Node000015" class="node">
<title>Node15</title>
<g id="a_Node000015"><a xlink:href="../../d9/d9a/mem_8h.html#aebbbd277e2952bdb802104671ba23ba9" target="_top" xlink:title=" ">
<polygon fill="white" stroke="#666666" points="1386.75,-173.25 1352,-173.25 1352,-154 1386.75,-154 1386.75,-173.25"/>
<text text-anchor="middle" x="1369.38" y="-159.75" font-family="Helvetica,sans-Serif" font-size="10.00">ifree</text>
</a>
</g>
</g>
<!-- Node14&#45;&gt;Node15 -->
<g id="edge15_Node000014_Node000015" class="edge">
<title>Node14&#45;&gt;Node15</title>
<g id="a_edge15_Node000014_Node000015"><a xlink:title=" ">
<path fill="none" stroke="#63b8ff" d="M1307.4,-150.8C1318.42,-153.12 1330.2,-155.6 1340.44,-157.75"/>
<polygon fill="#63b8ff" stroke="#63b8ff" points="1339.62,-161.16 1350.13,-159.79 1341.06,-154.31 1339.62,-161.16"/>
</a>
</g>
</g>
<!-- Node15&#45;&gt;Node2 -->
<g id="edge16_Node000015_Node000002" class="edge">
<title>Node15&#45;&gt;Node2</title>
<g id="a_edge16_Node000015_Node000002"><a xlink:title=" ">
<path fill="none" stroke="#63b8ff" d="M1358.31,-173.39C1329.44,-200.31 1242.87,-273.62 1156.12,-273.62 610.5,-273.62 610.5,-273.62 610.5,-273.62 539.99,-273.62 457.07,-273.62 414.15,-273.62"/>
<polygon fill="#63b8ff" stroke="#63b8ff" points="414.17,-270.13 404.17,-273.63 414.17,-277.13 414.17,-270.13"/>
</a>
</g>
</g>
<!-- Node16 -->
<g id="Node000016" class="node">
<title>Node16</title>
<g id="a_Node000016"><a xlink:href="../../d8/d37/mem_8blk.html#a83c7cf203e5eef9d1a8c6c43cde3e2e5" target="_top" xlink:title=" ">
<polygon fill="white" stroke="#666666" points="1485.25,-173.25 1431.75,-173.25 1431.75,-154 1485.25,-154 1485.25,-173.25"/>
<text text-anchor="middle" x="1458.5" y="-159.75" font-family="Helvetica,sans-Serif" font-size="10.00">mp_ifree</text>
</a>
</g>
</g>
<!-- Node15&#45;&gt;Node16 -->
<g id="edge17_Node000015_Node000016" class="edge">
<title>Node15&#45;&gt;Node16</title>
<g id="a_edge17_Node000015_Node000016"><a xlink:title=" ">
<path fill="none" stroke="#63b8ff" d="M1387.17,-163.62C1396.59,-163.62 1408.74,-163.62 1420.28,-163.62"/>
<polygon fill="#63b8ff" stroke="#63b8ff" points="1419.98,-167.13 1429.98,-163.63 1419.98,-160.13 1419.98,-167.13"/>
</a>
</g>
</g>
<!-- Node20&#45;&gt;Node10 -->
<g id="edge27_Node000020_Node000010" class="edge">
<title>Node20&#45;&gt;Node10</title>
<g id="a_edge27_Node000020_Node000010"><a xlink:title=" ">
<path fill="none" stroke="#63b8ff" d="M644.46,-96.24C705.48,-81.32 842.81,-52.94 958.25,-66.62 971.79,-68.23 986.37,-71.33 999.28,-74.57"/>
<polygon fill="#63b8ff" stroke="#63b8ff" points="998.09,-77.88 1008.65,-77.04 999.87,-71.11 998.09,-77.88"/>
</a>
</g>
</g>
<!-- Node21 -->
<g id="Node000021" class="node">
<title>Node21</title>
<g id="a_Node000021"><a xlink:href="../../d1/dc0/group__log.html#ga168a6f17b248f61f7d25a17d58d04e36" target="_top" xlink:title=" ">
<polygon fill="white" stroke="#666666" points="787.75,-19.25 699,-19.25 699,0 787.75,0 787.75,-19.25"/>
<text text-anchor="middle" x="743.38" y="-5.75" font-family="Helvetica,sans-Serif" font-size="10.00">logger_has_level</text>
</a>
</g>
</g>
<!-- Node20&#45;&gt;Node21 -->
<g id="edge24_Node000020_Node000021" class="edge">
<title>Node20&#45;&gt;Node21</title>
<g id="a_edge24_Node000020_Node000021"><a xlink:title=" ">
<path fill="none" stroke="#63b8ff" d="M642.91,-94.53C647.38,-92.32 651.74,-89.7 655.5,-86.62 677.55,-68.6 669.86,-52.13 691.5,-33.62 695.32,-30.36 699.66,-27.44 704.15,-24.85"/>
<polygon fill="#63b8ff" stroke="#63b8ff" points="705.47,-28.11 712.76,-20.42 702.27,-21.89 705.47,-28.11"/>
</a>
</g>
</g>
<!-- Node22 -->
<g id="Node000022" class="node">
<title>Node22</title>
<g id="a_Node000022"><a xlink:href="../../d1/dc0/group__log.html#gaf388752b988541da0abeceecdf96e6b3" target="_top" xlink:title=" ">
<polygon fill="white" stroke="#666666" points="938,-19.25 851.5,-19.25 851.5,0 938,0 938,-19.25"/>
<text text-anchor="middle" x="894.75" y="-5.75" font-family="Helvetica,sans-Serif" font-size="10.00">logger_get_level</text>
</a>
</g>
</g>
<!-- Node21&#45;&gt;Node22 -->
<g id="edge25_Node000021_Node000022" class="edge">
<title>Node21&#45;&gt;Node22</title>
<g id="a_edge25_Node000021_Node000022"><a xlink:title=" ">
<path fill="none" stroke="#63b8ff" d="M787.98,-9.62C804.14,-9.62 822.67,-9.62 839.65,-9.62"/>
<polygon fill="#63b8ff" stroke="#63b8ff" points="839.61,-13.13 849.61,-9.63 839.61,-6.13 839.61,-13.13"/>
</a>
</g>
</g>
<!-- Node23 -->
<g id="Node000023" class="node">
<title>Node23</title>
<g id="a_Node000023"><a xlink:href="../../d1/dc0/group__log.html#ga93cbd623096e1704532d15b3eb30e42f" target="_top" xlink:title=" ">
<polygon fill="white" stroke="#666666" points="1082.25,-19.25 994.25,-19.25 994.25,0 1082.25,0 1082.25,-19.25"/>
<text text-anchor="middle" x="1038.25" y="-5.75" font-family="Helvetica,sans-Serif" font-size="10.00">__logger_refresh</text>
</a>
</g>
</g>
<!-- Node22&#45;&gt;Node23 -->
<g id="edge26_Node000022_Node000023" class="edge">
<title>Node22&#45;&gt;Node23</title>
<g id="a_edge26_Node000022_Node000023"><a xlink:title=" ">
<path fill="none" stroke="#63b8ff" d="M938.2,-9.62C952.08,-9.62 967.69,-9.62 982.35,-9.62"/>
<polygon fill="#63b8ff" stroke="#63b8ff" points="982.33,-13.13 992.33,-9.63 982.33,-6.13 982.33,-13.13"/>
</a>
</g>
</g>
<!-- Node27 -->
<g id="Node000027" class="node">
<title>Node27</title>
<g id="a_Node000027"><a xlink:href="../../d8/d37/mem_8blk.html#a5666a1403bcf2bd8e114c23f8021d1ac" target="_top" xlink:title=" ">
<polygon fill="white" stroke="#666666" points="278.62,-208.25 202.62,-208.25 202.62,-189 278.62,-189 278.62,-208.25"/>
<text text-anchor="middle" x="240.62" y="-194.75" font-family="Helvetica,sans-Serif" font-size="10.00">__mp_imalloc</text>
</a>
</g>
</g>
<!-- Node26&#45;&gt;Node27 -->
<g id="edge31_Node000026_Node000027" class="edge">
<title>Node26&#45;&gt;Node27</title>
<g id="a_edge31_Node000026_Node000027"><a xlink:title=" ">
<path fill="none" stroke="#63b8ff" d="M148.53,-226C162.75,-221.73 179.72,-216.63 195.14,-211.99"/>
<polygon fill="#63b8ff" stroke="#63b8ff" points="196.02,-215.38 204.59,-209.15 194,-208.68 196.02,-215.38"/>
</a>
</g>
</g>
<!-- Node31 -->
<g id="Node000031" class="node">
<title>Node31</title>
<g id="a_Node000031"><a xlink:href="../../d9/d9a/mem_8h.html#ae99e17ad0b27e94e8a00c8af9734a0e7" target="_top" xlink:title=" ">
<polygon fill="white" stroke="#666666" points="297,-245.25 184.25,-245.25 184.25,-226 297,-226 297,-245.25"/>
<text text-anchor="middle" x="240.62" y="-231.75" font-family="Helvetica,sans-Serif" font-size="10.00">icheck_alloc_constant</text>
</a>
</g>
</g>
<!-- Node26&#45;&gt;Node31 -->
<g id="edge36_Node000026_Node000031" class="edge">
<title>Node26&#45;&gt;Node31</title>
<g id="a_edge36_Node000026_Node000031"><a xlink:title=" ">
<path fill="none" stroke="#63b8ff" d="M148.53,-235.62C155.97,-235.62 164.18,-235.62 172.51,-235.62"/>
<polygon fill="#63b8ff" stroke="#63b8ff" points="172.4,-239.13 182.4,-235.63 172.4,-232.13 172.4,-239.13"/>
</a>
</g>
</g>
<!-- Node28 -->
<g id="Node000028" class="node">
<title>Node28</title>
<g id="a_Node000028"><a xlink:href="../../d8/d37/mem_8blk.html#a8e4fbf6500e65079c31e3fd933ae7dc1" target="_top" xlink:title=" ">
<polygon fill="white" stroke="#666666" points="419.12,-208.25 349.12,-208.25 349.12,-189 419.12,-189 419.12,-208.25"/>
<text text-anchor="middle" x="384.12" y="-194.75" font-family="Helvetica,sans-Serif" font-size="10.00">icheck_alloc</text>
</a>
</g>
</g>
<!-- Node27&#45;&gt;Node28 -->
<g id="edge32_Node000027_Node000028" class="edge">
<title>Node27&#45;&gt;Node28</title>
<g id="a_edge32_Node000027_Node000028"><a xlink:title=" ">
<path fill="none" stroke="#63b8ff" d="M278.8,-198.62C296.84,-198.62 318.67,-198.62 337.68,-198.62"/>
<polygon fill="#63b8ff" stroke="#63b8ff" points="337.59,-202.13 347.59,-198.63 337.59,-195.13 337.59,-202.13"/>
</a>
</g>
</g>
<!-- Node29 -->
<g id="Node000029" class="node">
<title>Node29</title>
<g id="a_Node000029"><a xlink:href="../../d9/d9a/mem_8h.html#af42ab5c21de0c723b2a55403e5441fda" target="_top" xlink:title=" ">
<polygon fill="white" stroke="#666666" points="423.62,-171.25 344.62,-171.25 344.62,-152 423.62,-152 423.62,-171.25"/>
<text text-anchor="middle" x="384.12" y="-157.75" font-family="Helvetica,sans-Serif" font-size="10.00">mem_bit_align</text>
</a>
</g>
</g>
<!-- Node27&#45;&gt;Node29 -->
<g id="edge34_Node000027_Node000029" class="edge">
<title>Node27&#45;&gt;Node29</title>
<g id="a_edge34_Node000027_Node000029"><a xlink:title=" ">
<path fill="none" stroke="#63b8ff" d="M278.8,-188.9C295.62,-184.51 315.73,-179.25 333.79,-174.53"/>
<polygon fill="#63b8ff" stroke="#63b8ff" points="334.46,-177.97 343.25,-172.05 332.69,-171.19 334.46,-177.97"/>
</a>
</g>
</g>
<!-- Node28&#45;&gt;Node3 -->
<g id="edge33_Node000028_Node000003" class="edge">
<title>Node28&#45;&gt;Node3</title>
<g id="a_edge33_Node000028_Node000003"><a xlink:title=" ">
<path fill="none" stroke="#63b8ff" d="M419.39,-198.62C433.84,-198.62 450.65,-198.62 465.2,-198.62"/>
<polygon fill="#63b8ff" stroke="#63b8ff" points="464.78,-202.13 474.78,-198.63 464.78,-195.13 464.78,-202.13"/>
</a>
</g>
</g>
<!-- Node30 -->
<g id="Node000030" class="node">
<title>Node30</title>
<g id="a_Node000030"><a xlink:href="../../d8/d96/bithacks_8h.html#ab80588fa9f8b9e766249edaf70558bdc" target="_top" xlink:title=" ">
<polygon fill="white" stroke="#666666" points="531.5,-171.25 471.25,-171.25 471.25,-152 531.5,-152 531.5,-171.25"/>
<text text-anchor="middle" x="501.38" y="-157.75" font-family="Helvetica,sans-Serif" font-size="10.00">bitcountsz</text>
</a>
</g>
</g>
<!-- Node29&#45;&gt;Node30 -->
<g id="edge35_Node000029_Node000030" class="edge">
<title>Node29&#45;&gt;Node30</title>
<g id="a_edge35_Node000029_Node000030"><a xlink:title=" ">
<path fill="none" stroke="#63b8ff" d="M423.82,-161.62C435.4,-161.62 448.12,-161.62 459.81,-161.62"/>
<polygon fill="#63b8ff" stroke="#63b8ff" points="459.56,-165.13 469.56,-161.63 459.56,-158.13 459.56,-165.13"/>
</a>
</g>
</g>
<!-- Node32 -->
<g id="Node000032" class="node">
<title>Node32</title>
<g id="a_Node000032"><a xlink:href="../../d8/d37/mem_8blk.html#a377e36d6fbaf3ee7f1b217559cb0c850" target="_top" xlink:title=" ">
<polygon fill="white" stroke="#666666" points="435.25,-245.25 333,-245.25 333,-226 435.25,-226 435.25,-245.25"/>
<text text-anchor="middle" x="384.12" y="-231.75" font-family="Helvetica,sans-Serif" font-size="10.00">__imalloc_too_large</text>
</a>
</g>
</g>
<!-- Node31&#45;&gt;Node32 -->
<g id="edge37_Node000031_Node000032" class="edge">
<title>Node31&#45;&gt;Node32</title>
<g id="a_edge37_Node000031_Node000032"><a xlink:title=" ">
<path fill="none" stroke="#63b8ff" d="M297.14,-235.62C305.14,-235.62 313.41,-235.62 321.52,-235.62"/>
<polygon fill="#63b8ff" stroke="#63b8ff" points="321.32,-239.13 331.32,-235.63 321.32,-232.13 321.32,-239.13"/>
</a>
</g>
</g>
</g>
</svg>

<g id="navigator" transform="translate(0 0)" fill="#404254">
  <rect fill="#f2f5e9" fill-opacity="0.5" stroke="#606060" stroke-width=".5" x="0" y="0" width="60" height="60"/>
  <use id="zoomplus" xlink:href="#zoomPlus" x="17" y="9" onmousedown="handleZoom(evt,'in')"/>
  <use id="zoomminus" xlink:href="#zoomMin" x="42" y="9" onmousedown="handleZoom(evt,'out')"/>
  <use id="reset" xlink:href="#resetDef" x="30" y="36" onmousedown="handleReset()"/>
   <use id="arrowup" xlink:href="#arrowUp" x="0" y="0" onmousedown="handlePan(0,-1)"/>
  <use id="arrowright" xlink:href="#arrowRight" x="0" y="0" onmousedown="handlePan(1,0)"/>
  <use id="arrowdown" xlink:href="#arrowDown" x="0" y="0" onmousedown="handlePan(0,1)"/>
  <use id="arrowleft" xlink:href="#arrowLeft" x="0" y="0" onmousedown="handlePan(-1,0)"/>
</g>
<svg viewBox="0 0 15 15" width="100%" height="30px" preserveAspectRatio="xMaxYMin meet">
 <g id="arrow_out" transform="scale(0.3 0.3)">
  <a xlink:href="mem_8h_afc189a91af4554a8ac93a9b5bb7d9cc8_cgraph_org.svg" target="_base">
   <rect id="button" ry="5" rx="5" y="6" x="6" height="38" width="38"
        fill="#f2f5e9" fill-opacity="0.5" stroke="#606060" stroke-width="1.0"/>
   <path id="arrow"
     d="M 11.500037,31.436501 C 11.940474,20.09759 22.043105,11.32322 32.158766,21.979434 L 37.068811,17.246167 C 37.068811,17.246167 37.088388,32 37.088388,32 L 22.160133,31.978069 C 22.160133,31.978069 26.997745,27.140456 26.997745,27.140456 C 18.528582,18.264221 13.291696,25.230495 11.500037,31.436501 z"
     style="fill:#404040;"/>
  </a>
 </g>
</svg>

<style type='text/css'>
<![CDATA[
[data-mouse-over-selected='false'] { opacity: 0.7; }
[data-mouse-over-selected='true']  { opacity: 1.0; }
]]>
</style>
<script type="application/ecmascript"><![CDATA[
document.addEventListener('DOMContentLoaded', (event) => {
  highlightEdges();
  highlightAdjacentNodes();
});
]]></script>
</svg>
