<?xml version="1.0" encoding="UTF-8" standalone="no"?>
<!DOCTYPE svg PUBLIC "-//W3C//DTD SVG 1.1//EN"
 "http://www.w3.org/Graphics/SVG/1.1/DTD/svg11.dtd">
<!-- Generated by graphviz version 9.0.0 (20230911.1827)
 -->
<!-- Title: sb_ltrim_ctype Pages: 1 -->
<!--zoomable 113 -->

<svg id="main" version="1.1" xmlns="http://www.w3.org/2000/svg" xmlns:xlink="http://www.w3.org/1999/xlink" xml:space="preserve" onload="init(evt)">
<style type="text/css"><![CDATA[
.node, .edge {opacity: 0.7;}
.node.selected, .edge.selected {opacity: 1;}
.edge:hover path { stroke: red; }
.edge:hover polygon { stroke: red; fill: red; }
]]></style>

<defs>
  <circle id="rim" cx="0" cy="0" r="7"/>
  <circle id="rim2" cx="0" cy="0" r="3.5"/>
  <g id="zoomPlus">
    <use xlink:href="#rim" fill="#404040"><set attributeName="fill" to="#808080" begin="zoomplus.mouseover" end="zoomplus.mouseout"/></use>
    <path d="M-4,0h8M0,-4v8" fill="none" stroke="white" stroke-width="1.5" pointer-events="none"/>
  </g>
  <g id="zoomMin">
    <use xlink:href="#rim" fill="#404040"><set attributeName="fill" to="#808080" begin="zoomminus.mouseover" end="zoomminus.mouseout"/></use>
    <path d="M-4,0h8" fill="none" stroke="white" stroke-width="1.5" pointer-events="none"/>
  </g>
  <g id="arrowUp" transform="translate(30 24)">
    <use xlink:href="#rim"/>
    <path pointer-events="none" fill="none" stroke="white" stroke-width="1.5" d="M0,-3.0v7 M-2.5,-0.5L0,-3.0L2.5,-0.5"/>
  </g>
  <g id="arrowRight" transform="rotate(90) translate(36 -43)">
    <use xlink:href="#rim"/>
    <path pointer-events="none" fill="none" stroke="white" stroke-width="1.5" d="M0,-3.0v7 M-2.5,-0.5L0,-3.0L2.5,-0.5"/>
  </g>
  <g id="arrowDown" transform="rotate(180) translate(-30 -48)">
    <use xlink:href="#rim"/>
    <path pointer-events="none" fill="none" stroke="white" stroke-width="1.5" d="M0,-3.0v7 M-2.5,-0.5L0,-3.0L2.5,-0.5"/>
  </g>
  <g id="arrowLeft" transform="rotate(270) translate(-36 17)">
    <use xlink:href="#rim"/>
    <path pointer-events="none" fill="none" stroke="white" stroke-width="1.5" d="M0,-3.0v7 M-2.5,-0.5L0,-3.0L2.5,-0.5"/>
  </g>
  <g id="resetDef">
    <use xlink:href="#rim2" fill="#404040"><set attributeName="fill" to="#808080" begin="reset.mouseover" end="reset.mouseout"/></use>
  </g>
</defs>
<script type="application/ecmascript">
var viewWidth = 582;
var viewHeight = 113;
var sectionId = 'dynsection-138';
</script>
<script type="application/ecmascript" xlink:href="../../svg.min.js"/>
<svg id="graph" class="graph">
<g id="viewport">
<title>sb_ltrim_ctype</title>
<!-- Node1 -->
<g id="Node000001" class="node">
<title>Node1</title>
<g id="a_Node000001"><a xlink:title=" ">
<polygon fill="#999999" stroke="#666666" points="574.25,-37.25 495.25,-37.25 495.25,-18 574.25,-18 574.25,-37.25"/>
<text text-anchor="middle" x="534.75" y="-23.75" font-family="Helvetica,sans-Serif" font-size="10.00">sb_ltrim_ctype</text>
</a>
</g>
</g>
<!-- Node2 -->
<g id="Node000002" class="node">
<title>Node2</title>
<g id="a_Node000002"><a xlink:href="../../dc/d31/str-buf_8h.html#aeb303a5ab9efa796ab2699f4de9f2bd7" target="_top" xlink:title=" ">
<polygon fill="white" stroke="#666666" points="446.12,-56.25 395.62,-56.25 395.62,-37 446.12,-37 446.12,-56.25"/>
<text text-anchor="middle" x="420.88" y="-42.75" font-family="Helvetica,sans-Serif" font-size="10.00">sb_ltrim</text>
</a>
</g>
</g>
<!-- Node1&#45;&gt;Node2 -->
<g id="edge1_Node000001_Node000002" class="edge">
<title>Node1&#45;&gt;Node2</title>
<g id="a_edge1_Node000001_Node000002"><a xlink:title=" ">
<path fill="none" stroke="#63b8ff" d="M483.79,-36.11C470.9,-38.3 457.59,-40.56 446.62,-42.42"/>
<polygon fill="#63b8ff" stroke="#63b8ff" points="484.17,-39.6 493.44,-34.47 483,-32.69 484.17,-39.6"/>
</a>
</g>
</g>
<!-- Node7 -->
<g id="Node000007" class="node">
<title>Node7</title>
<g id="a_Node000007"><a xlink:href="../../dc/d31/str-buf_8h.html#a6aa5e608caad4186c2114c73a18fa00f" target="_top" xlink:title=" ">
<polygon fill="white" stroke="#666666" points="459.25,-19.25 382.5,-19.25 382.5,0 459.25,0 459.25,-19.25"/>
<text text-anchor="middle" x="420.88" y="-5.75" font-family="Helvetica,sans-Serif" font-size="10.00">sb_trim_ctype</text>
</a>
</g>
</g>
<!-- Node1&#45;&gt;Node7 -->
<g id="edge6_Node000001_Node000007" class="edge">
<title>Node1&#45;&gt;Node7</title>
<g id="a_edge6_Node000001_Node000007"><a xlink:title=" ">
<path fill="none" stroke="#63b8ff" d="M483.64,-19.56C475.53,-18.26 467.24,-16.92 459.49,-15.68"/>
<polygon fill="#63b8ff" stroke="#63b8ff" points="483.01,-23.01 493.44,-21.14 484.12,-16.1 483.01,-23.01"/>
</a>
</g>
</g>
<!-- Node3 -->
<g id="Node000003" class="node">
<title>Node3</title>
<g id="a_Node000003"><a xlink:href="../../dd/dfc/iopc-parser_8c.html#ab0a6b124a11ecb06f4b584e53c345456" target="_top" xlink:title=" ">
<polygon fill="white" stroke="#666666" points="346.5,-104.88 222.5,-104.88 222.5,-74.38 346.5,-74.38 346.5,-104.88"/>
<text text-anchor="start" x="230.5" y="-91.38" font-family="Helvetica,sans-Serif" font-size="10.00">dox_chunk_params_args</text>
<text text-anchor="middle" x="284.5" y="-80.12" font-family="Helvetica,sans-Serif" font-size="10.00">_validate</text>
</a>
</g>
</g>
<!-- Node2&#45;&gt;Node3 -->
<g id="edge2_Node000002_Node000003" class="edge">
<title>Node2&#45;&gt;Node3</title>
<g id="a_edge2_Node000002_Node000003"><a xlink:title=" ">
<path fill="none" stroke="#63b8ff" d="M384.64,-57.9C369.32,-62.8 351.1,-68.63 334.49,-73.95"/>
<polygon fill="#63b8ff" stroke="#63b8ff" points="385.33,-61.35 393.79,-54.97 383.2,-54.69 385.33,-61.35"/>
</a>
</g>
</g>
<!-- Node6 -->
<g id="Node000006" class="node">
<title>Node6</title>
<g id="a_Node000006"><a xlink:href="../../d6/ddf/iopc-lex_8l.html#aa15f636ff9edb54ec620152ae2d5c50e" target="_top" xlink:title=" ">
<polygon fill="white" stroke="#666666" points="339.38,-56.25 229.62,-56.25 229.62,-37 339.38,-37 339.38,-56.25"/>
<text text-anchor="middle" x="284.5" y="-42.75" font-family="Helvetica,sans-Serif" font-size="10.00">lexdox_comment_end</text>
</a>
</g>
</g>
<!-- Node2&#45;&gt;Node6 -->
<g id="edge5_Node000002_Node000006" class="edge">
<title>Node2&#45;&gt;Node6</title>
<g id="a_edge5_Node000002_Node000006"><a xlink:title=" ">
<path fill="none" stroke="#63b8ff" d="M383.95,-46.62C370.4,-46.62 354.66,-46.62 339.79,-46.62"/>
<polygon fill="#63b8ff" stroke="#63b8ff" points="383.72,-50.13 393.72,-46.63 383.71,-43.13 383.72,-50.13"/>
</a>
</g>
</g>
<!-- Node4 -->
<g id="Node000004" class="node">
<title>Node4</title>
<g id="a_Node000004"><a xlink:href="../../dd/dfc/iopc-parser_8c.html#a0451da1efc7d24554e38be6289a52ba9" target="_top" xlink:title=" ">
<polygon fill="white" stroke="#666666" points="186.5,-99.25 97.75,-99.25 97.75,-80 186.5,-80 186.5,-99.25"/>
<text text-anchor="middle" x="142.12" y="-85.75" font-family="Helvetica,sans-Serif" font-size="10.00">build_dox_param</text>
</a>
</g>
</g>
<!-- Node3&#45;&gt;Node4 -->
<g id="edge3_Node000003_Node000004" class="edge">
<title>Node3&#45;&gt;Node4</title>
<g id="a_edge3_Node000003_Node000004"><a xlink:title=" ">
<path fill="none" stroke="#63b8ff" d="M211.06,-89.62C202.77,-89.62 194.53,-89.62 186.79,-89.62"/>
<polygon fill="#63b8ff" stroke="#63b8ff" points="210.82,-93.13 220.82,-89.63 210.82,-86.13 210.82,-93.13"/>
</a>
</g>
</g>
<!-- Node5 -->
<g id="Node000005" class="node">
<title>Node5</title>
<g id="a_Node000005"><a xlink:href="../../dd/dfc/iopc-parser_8c.html#abe3d6cfba80507c9ce5861308c77342d" target="_top" xlink:title=" ">
<polygon fill="white" stroke="#666666" points="61.75,-99.25 0,-99.25 0,-80 61.75,-80 61.75,-99.25"/>
<text text-anchor="middle" x="30.88" y="-85.75" font-family="Helvetica,sans-Serif" font-size="10.00">build_dox_</text>
</a>
</g>
</g>
<!-- Node4&#45;&gt;Node5 -->
<g id="edge4_Node000004_Node000005" class="edge">
<title>Node4&#45;&gt;Node5</title>
<g id="a_edge4_Node000004_Node000005"><a xlink:title=" ">
<path fill="none" stroke="#63b8ff" d="M86.05,-89.62C77.74,-89.62 69.45,-89.62 61.94,-89.62"/>
<polygon fill="#63b8ff" stroke="#63b8ff" points="85.8,-93.13 95.8,-89.63 85.8,-86.13 85.8,-93.13"/>
</a>
</g>
</g>
<!-- Node8 -->
<g id="Node000008" class="node">
<title>Node8</title>
<g id="a_Node000008"><a xlink:href="../../dc/d31/str-buf_8h.html#ac859e16aa6801e5718b7df12219c4031" target="_top" xlink:title=" ">
<polygon fill="white" stroke="#666666" points="308.62,-19.25 260.38,-19.25 260.38,0 308.62,0 308.62,-19.25"/>
<text text-anchor="middle" x="284.5" y="-5.75" font-family="Helvetica,sans-Serif" font-size="10.00">sb_trim</text>
</a>
</g>
</g>
<!-- Node7&#45;&gt;Node8 -->
<g id="edge7_Node000007_Node000008" class="edge">
<title>Node7&#45;&gt;Node8</title>
<g id="a_edge7_Node000007_Node000008"><a xlink:title=" ">
<path fill="none" stroke="#63b8ff" d="M370.72,-9.62C349.68,-9.62 326.1,-9.62 309.09,-9.62"/>
<polygon fill="#63b8ff" stroke="#63b8ff" points="370.57,-13.13 380.57,-9.63 370.57,-6.13 370.57,-13.13"/>
</a>
</g>
</g>
</g>
</svg>

<g id="navigator" transform="translate(0 0)" fill="#404254">
  <rect fill="#f2f5e9" fill-opacity="0.5" stroke="#606060" stroke-width=".5" x="0" y="0" width="60" height="60"/>
  <use id="zoomplus" xlink:href="#zoomPlus" x="17" y="9" onmousedown="handleZoom(evt,'in')"/>
  <use id="zoomminus" xlink:href="#zoomMin" x="42" y="9" onmousedown="handleZoom(evt,'out')"/>
  <use id="reset" xlink:href="#resetDef" x="30" y="36" onmousedown="handleReset()"/>
   <use id="arrowup" xlink:href="#arrowUp" x="0" y="0" onmousedown="handlePan(0,-1)"/>
  <use id="arrowright" xlink:href="#arrowRight" x="0" y="0" onmousedown="handlePan(1,0)"/>
  <use id="arrowdown" xlink:href="#arrowDown" x="0" y="0" onmousedown="handlePan(0,1)"/>
  <use id="arrowleft" xlink:href="#arrowLeft" x="0" y="0" onmousedown="handlePan(-1,0)"/>
</g>
<svg viewBox="0 0 15 15" width="100%" height="30px" preserveAspectRatio="xMaxYMin meet">
 <g id="arrow_out" transform="scale(0.3 0.3)">
  <a xlink:href="str-buf_8h_ab79c69ba22e995dcd2a52284f9e64e12_icgraph_org.svg" target="_base">
   <rect id="button" ry="5" rx="5" y="6" x="6" height="38" width="38"
        fill="#f2f5e9" fill-opacity="0.5" stroke="#606060" stroke-width="1.0"/>
   <path id="arrow"
     d="M 11.500037,31.436501 C 11.940474,20.09759 22.043105,11.32322 32.158766,21.979434 L 37.068811,17.246167 C 37.068811,17.246167 37.088388,32 37.088388,32 L 22.160133,31.978069 C 22.160133,31.978069 26.997745,27.140456 26.997745,27.140456 C 18.528582,18.264221 13.291696,25.230495 11.500037,31.436501 z"
     style="fill:#404040;"/>
  </a>
 </g>
</svg>

<style type='text/css'>
<![CDATA[
[data-mouse-over-selected='false'] { opacity: 0.7; }
[data-mouse-over-selected='true']  { opacity: 1.0; }
]]>
</style>
<script type="application/ecmascript"><![CDATA[
document.addEventListener('DOMContentLoaded', (event) => {
  highlightEdges();
  highlightAdjacentNodes();
});
]]></script>
</svg>
