<?xml version="1.0" encoding="UTF-8" standalone="no"?>
<!DOCTYPE svg PUBLIC "-//W3C//DTD SVG 1.1//EN"
 "http://www.w3.org/Graphics/SVG/1.1/DTD/svg11.dtd">
<!-- Generated by graphviz version 9.0.0 (20230911.1827)
 -->
<!-- Title: sb_optimize Pages: 1 -->
<svg width="741pt" height="140pt"
 viewBox="0.00 0.00 741.00 140.25" xmlns="http://www.w3.org/2000/svg" xmlns:xlink="http://www.w3.org/1999/xlink">
<g id="graph0" class="graph" transform="scale(1 1) rotate(0) translate(4 136.25)">
<title>sb_optimize</title>
<!-- Node1 -->
<g id="Node000001" class="node">
<title>Node1</title>
<g id="a_Node000001"><a xlink:title=" ">
<polygon fill="#999999" stroke="#666666" points="67.75,-75.25 0,-75.25 0,-56 67.75,-56 67.75,-75.25"/>
<text text-anchor="middle" x="33.88" y="-61.75" font-family="Helvetica,sans-Serif" font-size="10.00">sb_optimize</text>
</a>
</g>
</g>
<!-- Node2 -->
<g id="Node000002" class="node">
<title>Node2</title>
<g id="a_Node000002"><a xlink:href="../../d4/d02/str-buf_8c.html#ac6b7656f4a0f5ea5fa081d29dbc39b98" target="_top" xlink:title=" ">
<polygon fill="white" stroke="#666666" points="182,-75.25 103.75,-75.25 103.75,-56 182,-56 182,-75.25"/>
<text text-anchor="middle" x="142.88" y="-61.75" font-family="Helvetica,sans-Serif" font-size="10.00">__sb_optimize</text>
</a>
</g>
</g>
<!-- Node1&#45;&gt;Node2 -->
<g id="edge1_Node000001_Node000002" class="edge">
<title>Node1&#45;&gt;Node2</title>
<g id="a_edge1_Node000001_Node000002"><a xlink:title=" ">
<path fill="none" stroke="#63b8ff" d="M68.14,-65.62C75.73,-65.62 83.96,-65.62 92.07,-65.62"/>
<polygon fill="#63b8ff" stroke="#63b8ff" points="91.87,-69.13 101.87,-65.63 91.87,-62.13 91.87,-69.13"/>
</a>
</g>
</g>
<!-- Node3 -->
<g id="Node000003" class="node">
<title>Node3</title>
<g id="a_Node000003"><a xlink:href="../../d8/d37/mem_8blk.html#a83c7cf203e5eef9d1a8c6c43cde3e2e5" target="_top" xlink:title=" ">
<polygon fill="white" stroke="#666666" points="271.5,-132.25 218,-132.25 218,-113 271.5,-113 271.5,-132.25"/>
<text text-anchor="middle" x="244.75" y="-118.75" font-family="Helvetica,sans-Serif" font-size="10.00">mp_ifree</text>
</a>
</g>
</g>
<!-- Node2&#45;&gt;Node3 -->
<g id="edge2_Node000002_Node000003" class="edge">
<title>Node2&#45;&gt;Node3</title>
<g id="a_edge2_Node000002_Node000003"><a xlink:title=" ">
<path fill="none" stroke="#63b8ff" d="M161.27,-75.55C176.5,-84.25 198.89,-97.02 216.49,-107.07"/>
<polygon fill="#63b8ff" stroke="#63b8ff" points="214.48,-109.95 224.9,-111.87 217.95,-103.87 214.48,-109.95"/>
</a>
</g>
</g>
<!-- Node4 -->
<g id="Node000004" class="node">
<title>Node4</title>
<g id="a_Node000004"><a xlink:href="../../d9/d9a/mem_8h.html#a3fd6d5b3dcb24f194848ce86f988fb13" target="_top" xlink:title=" ">
<polygon fill="white" stroke="#666666" points="488.38,-94.25 433.38,-94.25 433.38,-75 488.38,-75 488.38,-94.25"/>
<text text-anchor="middle" x="460.88" y="-80.75" font-family="Helvetica,sans-Serif" font-size="10.00">mp_ipool</text>
</a>
</g>
</g>
<!-- Node2&#45;&gt;Node4 -->
<g id="edge3_Node000002_Node000004" class="edge">
<title>Node2&#45;&gt;Node4</title>
<g id="a_edge3_Node000002_Node000004"><a xlink:title=" ">
<path fill="none" stroke="#63b8ff" d="M182.31,-67.94C243.22,-71.6 361.22,-78.69 421.86,-82.34"/>
<polygon fill="#63b8ff" stroke="#63b8ff" points="421.49,-85.82 431.68,-82.93 421.91,-78.84 421.49,-85.82"/>
</a>
</g>
</g>
<!-- Node5 -->
<g id="Node000005" class="node">
<title>Node5</title>
<g id="a_Node000005"><a xlink:href="../../dc/d31/str-buf_8h.html#a6dc2ca5bc1506b37f95463e6abe4e201" target="_top" xlink:title=" ">
<polygon fill="white" stroke="#666666" points="612.75,-19.25 550.25,-19.25 550.25,0 612.75,0 612.75,-19.25"/>
<text text-anchor="middle" x="581.5" y="-5.75" font-family="Helvetica,sans-Serif" font-size="10.00">sb_init_full</text>
</a>
</g>
</g>
<!-- Node2&#45;&gt;Node5 -->
<g id="edge4_Node000002_Node000005" class="edge">
<title>Node2&#45;&gt;Node5</title>
<g id="a_edge4_Node000002_Node000005"><a xlink:title=" ">
<path fill="none" stroke="#63b8ff" d="M159.06,-55.66C173.56,-46.68 196.35,-33.95 218,-27.62 330.35,5.19 470.51,-0.14 538.97,-5.53"/>
<polygon fill="#63b8ff" stroke="#63b8ff" points="538.35,-8.99 548.61,-6.34 538.93,-2.02 538.35,-8.99"/>
</a>
</g>
</g>
<!-- Node7 -->
<g id="Node000007" class="node">
<title>Node7</title>
<g id="a_Node000007"><a xlink:href="../../d4/d02/str-buf_8c.html#a565dca690544eca5eb3516d506ea086f" target="_top" xlink:title=" ">
<polygon fill="white" stroke="#666666" points="271.5,-56.25 218,-56.25 218,-37 271.5,-37 271.5,-56.25"/>
<text text-anchor="middle" x="244.75" y="-42.75" font-family="Helvetica,sans-Serif" font-size="10.00">sb_reset</text>
</a>
</g>
</g>
<!-- Node2&#45;&gt;Node7 -->
<g id="edge6_Node000002_Node000007" class="edge">
<title>Node2&#45;&gt;Node7</title>
<g id="a_edge6_Node000002_Node000007"><a xlink:title=" ">
<path fill="none" stroke="#63b8ff" d="M182.49,-58.28C190.38,-56.78 198.67,-55.2 206.52,-53.71"/>
<polygon fill="#63b8ff" stroke="#63b8ff" points="206.93,-57.19 216.1,-51.88 205.62,-50.32 206.93,-57.19"/>
</a>
</g>
</g>
<!-- Node6 -->
<g id="Node000006" class="node">
<title>Node6</title>
<g id="a_Node000006"><a xlink:href="../../dc/d31/str-buf_8h.html#a01c1a4f8ed76b6a919595b803c7d7376" target="_top" xlink:title=" ">
<polygon fill="white" stroke="#666666" points="733,-19.25 648.75,-19.25 648.75,0 733,0 733,-19.25"/>
<text text-anchor="middle" x="690.88" y="-5.75" font-family="Helvetica,sans-Serif" font-size="10.00">sb_set_trailing0</text>
</a>
</g>
</g>
<!-- Node5&#45;&gt;Node6 -->
<g id="edge5_Node000005_Node000006" class="edge">
<title>Node5&#45;&gt;Node6</title>
<g id="a_edge5_Node000005_Node000006"><a xlink:title=" ">
<path fill="none" stroke="#63b8ff" d="M612.98,-9.62C620.57,-9.62 628.92,-9.62 637.24,-9.62"/>
<polygon fill="#63b8ff" stroke="#63b8ff" points="636.98,-13.13 646.98,-9.63 636.98,-6.13 636.98,-13.13"/>
</a>
</g>
</g>
<!-- Node8 -->
<g id="Node000008" class="node">
<title>Node8</title>
<g id="a_Node000008"><a xlink:href="../../d4/d02/str-buf_8c.html#a4a2eff2f7383d95c9ede6af667197566" target="_top" xlink:title=" ">
<polygon fill="white" stroke="#666666" points="371.5,-56.25 307.5,-56.25 307.5,-37 371.5,-37 371.5,-56.25"/>
<text text-anchor="middle" x="339.5" y="-42.75" font-family="Helvetica,sans-Serif" font-size="10.00">__sb_reset</text>
</a>
</g>
</g>
<!-- Node7&#45;&gt;Node8 -->
<g id="edge7_Node000007_Node000008" class="edge">
<title>Node7&#45;&gt;Node8</title>
<g id="a_edge7_Node000007_Node000008"><a xlink:title=" ">
<path fill="none" stroke="#63b8ff" d="M271.59,-46.62C279.09,-46.62 287.5,-46.62 295.75,-46.62"/>
<polygon fill="#63b8ff" stroke="#63b8ff" points="295.68,-50.13 305.68,-46.63 295.68,-43.13 295.68,-50.13"/>
</a>
</g>
</g>
<!-- Node8&#45;&gt;Node4 -->
<g id="edge8_Node000008_Node000004" class="edge">
<title>Node8&#45;&gt;Node4</title>
<g id="a_edge8_Node000008_Node000004"><a xlink:title=" ">
<path fill="none" stroke="#63b8ff" d="M371.86,-56.61C387.36,-61.54 406.16,-67.53 422.4,-72.7"/>
<polygon fill="#63b8ff" stroke="#63b8ff" points="421.14,-75.97 431.73,-75.66 423.26,-69.3 421.14,-75.97"/>
</a>
</g>
</g>
<!-- Node8&#45;&gt;Node5 -->
<g id="edge9_Node000008_Node000005" class="edge">
<title>Node8&#45;&gt;Node5</title>
<g id="a_edge9_Node000008_Node000005"><a xlink:title=" ">
<path fill="none" stroke="#63b8ff" d="M371.97,-37.11C383.11,-34.02 395.78,-30.83 407.5,-28.62 451.92,-20.27 503.5,-15.19 538.7,-12.41"/>
<polygon fill="#63b8ff" stroke="#63b8ff" points="538.76,-15.92 548.47,-11.67 538.23,-8.94 538.76,-15.92"/>
</a>
</g>
</g>
<!-- Node9 -->
<g id="Node000009" class="node">
<title>Node9</title>
<g id="a_Node000009"><a xlink:href="../../d4/d02/str-buf_8c.html#a7ab29759b9a4ccea4138a4f64031ce08" target="_top" xlink:title="Resets the buffer but keeps the allocated memory, however big it is.">
<polygon fill="white" stroke="#666666" points="514.25,-57.25 407.5,-57.25 407.5,-38 514.25,-38 514.25,-57.25"/>
<text text-anchor="middle" x="460.88" y="-43.75" font-family="Helvetica,sans-Serif" font-size="10.00">sb_reset_keep_mem</text>
</a>
</g>
</g>
<!-- Node8&#45;&gt;Node9 -->
<g id="edge10_Node000008_Node000009" class="edge">
<title>Node8&#45;&gt;Node9</title>
<g id="a_edge10_Node000008_Node000009"><a xlink:title=" ">
<path fill="none" stroke="#63b8ff" d="M371.86,-46.89C379.27,-46.95 387.44,-47.02 395.72,-47.09"/>
<polygon fill="#63b8ff" stroke="#63b8ff" points="395.48,-50.59 405.51,-47.17 395.54,-43.59 395.48,-50.59"/>
</a>
</g>
</g>
<!-- Node9&#45;&gt;Node5 -->
<g id="edge11_Node000009_Node000005" class="edge">
<title>Node9&#45;&gt;Node5</title>
<g id="a_edge11_Node000009_Node000005"><a xlink:title=" ">
<path fill="none" stroke="#63b8ff" d="M493.35,-37.54C507.49,-33.01 524.36,-27.61 539.47,-22.77"/>
<polygon fill="#63b8ff" stroke="#63b8ff" points="540.21,-26.21 548.66,-19.82 538.07,-19.54 540.21,-26.21"/>
</a>
</g>
</g>
</g>
</svg>
