<?xml version="1.0" encoding="UTF-8" standalone="no"?>
<!DOCTYPE svg PUBLIC "-//W3C//DTD SVG 1.1//EN"
 "http://www.w3.org/Graphics/SVG/1.1/DTD/svg11.dtd">
<!-- Generated by graphviz version 9.0.0 (20230911.1827)
 -->
<!-- Title: sb_add_b64url_update Pages: 1 -->
<svg width="370pt" height="64pt"
 viewBox="0.00 0.00 370.25 64.25" xmlns="http://www.w3.org/2000/svg" xmlns:xlink="http://www.w3.org/1999/xlink">
<g id="graph0" class="graph" transform="scale(1 1) rotate(0) translate(4 60.25)">
<title>sb_add_b64url_update</title>
<!-- Node1 -->
<g id="Node000001" class="node">
<title>Node1</title>
<g id="a_Node000001"><a xlink:title=" ">
<polygon fill="#999999" stroke="#666666" points="362.25,-37.25 248.75,-37.25 248.75,-18 362.25,-18 362.25,-37.25"/>
<text text-anchor="middle" x="305.5" y="-23.75" font-family="Helvetica,sans-Serif" font-size="10.00">sb_add_b64url_update</text>
</a>
</g>
</g>
<!-- Node2 -->
<g id="Node000002" class="node">
<title>Node2</title>
<g id="a_Node000002"><a xlink:href="../../de/df3/str-buf-quoting_8c.html#ad323d4b0735454311d3e273d6af0dd99" target="_top" xlink:title=" ">
<polygon fill="white" stroke="#666666" points="212.75,-37.25 133.75,-37.25 133.75,-18 212.75,-18 212.75,-37.25"/>
<text text-anchor="middle" x="173.25" y="-23.75" font-family="Helvetica,sans-Serif" font-size="10.00">sb_add_b64url</text>
</a>
</g>
</g>
<!-- Node1&#45;&gt;Node2 -->
<g id="edge1_Node000001_Node000002" class="edge">
<title>Node1&#45;&gt;Node2</title>
<g id="a_edge1_Node000001_Node000002"><a xlink:title=" ">
<path fill="none" stroke="#63b8ff" d="M237.19,-27.62C228.87,-27.62 220.6,-27.62 212.92,-27.62"/>
<polygon fill="#63b8ff" stroke="#63b8ff" points="236.99,-31.13 246.99,-27.63 236.99,-24.13 236.99,-31.13"/>
</a>
</g>
</g>
<!-- Node3 -->
<g id="Node000003" class="node">
<title>Node3</title>
<g id="a_Node000003"><a xlink:href="../../de/df3/str-buf-quoting_8c.html#aa1576fa191b759976794564ca5d47ae5" target="_top" xlink:title=" ">
<polygon fill="white" stroke="#666666" points="97.75,-56.25 0,-56.25 0,-37 97.75,-37 97.75,-56.25"/>
<text text-anchor="middle" x="48.88" y="-42.75" font-family="Helvetica,sans-Serif" font-size="10.00">sb_add_lstr_b64url</text>
</a>
</g>
</g>
<!-- Node2&#45;&gt;Node3 -->
<g id="edge2_Node000002_Node000003" class="edge">
<title>Node2&#45;&gt;Node3</title>
<g id="a_edge2_Node000002_Node000003"><a xlink:title=" ">
<path fill="none" stroke="#63b8ff" d="M122.19,-35.4C114.28,-36.63 106.11,-37.89 98.24,-39.12"/>
<polygon fill="#63b8ff" stroke="#63b8ff" points="122.69,-38.86 132.03,-33.87 121.62,-31.94 122.69,-38.86"/>
</a>
</g>
</g>
<!-- Node4 -->
<g id="Node000004" class="node">
<title>Node4</title>
<g id="a_Node000004"><a xlink:href="../../dc/d31/str-buf_8h.html#af0fb00bd4748baeace97a0726d73746f" target="_top" xlink:title=" ">
<polygon fill="white" stroke="#666666" points="91,-19.25 6.75,-19.25 6.75,0 91,0 91,-19.25"/>
<text text-anchor="middle" x="48.88" y="-5.75" font-family="Helvetica,sans-Serif" font-size="10.00">sb_adds_b64url</text>
</a>
</g>
</g>
<!-- Node2&#45;&gt;Node4 -->
<g id="edge3_Node000002_Node000004" class="edge">
<title>Node2&#45;&gt;Node4</title>
<g id="a_edge3_Node000002_Node000004"><a xlink:title=" ">
<path fill="none" stroke="#63b8ff" d="M122.19,-20.26C111.92,-18.75 101.23,-17.18 91.31,-15.72"/>
<polygon fill="#63b8ff" stroke="#63b8ff" points="121.63,-23.72 132.03,-21.71 122.65,-16.79 121.63,-23.72"/>
</a>
</g>
</g>
</g>
</svg>
