<?xml version="1.0" encoding="UTF-8" standalone="no"?>
<!DOCTYPE svg PUBLIC "-//W3C//DTD SVG 1.1//EN"
 "http://www.w3.org/Graphics/SVG/1.1/DTD/svg11.dtd">
<!-- Generated by graphviz version 9.0.0 (20230911.1827)
 -->
<!-- Title: sb_rtrim Pages: 1 -->
<svg width="622pt" height="64pt"
 viewBox="0.00 0.00 621.50 64.25" xmlns="http://www.w3.org/2000/svg" xmlns:xlink="http://www.w3.org/1999/xlink">
<g id="graph0" class="graph" transform="scale(1 1) rotate(0) translate(4 60.25)">
<title>sb_rtrim</title>
<!-- Node1 -->
<g id="Node000001" class="node">
<title>Node1</title>
<g id="a_Node000001"><a xlink:title=" ">
<polygon fill="#999999" stroke="#666666" points="51.25,-37.25 0,-37.25 0,-18 51.25,-18 51.25,-37.25"/>
<text text-anchor="middle" x="25.62" y="-23.75" font-family="Helvetica,sans-Serif" font-size="10.00">sb_rtrim</text>
</a>
</g>
</g>
<!-- Node2 -->
<g id="Node000002" class="node">
<title>Node2</title>
<g id="a_Node000002"><a xlink:href="../../dc/d31/str-buf_8h.html#a17c5eef891e6942075bc5d6dc8f4cafb" target="_top" xlink:title=" ">
<polygon fill="white" stroke="#666666" points="167,-37.25 87.25,-37.25 87.25,-18 167,-18 167,-37.25"/>
<text text-anchor="middle" x="127.12" y="-23.75" font-family="Helvetica,sans-Serif" font-size="10.00">sb_rtrim_ctype</text>
</a>
</g>
</g>
<!-- Node1&#45;&gt;Node2 -->
<g id="edge1_Node000001_Node000002" class="edge">
<title>Node1&#45;&gt;Node2</title>
<g id="a_edge1_Node000001_Node000002"><a xlink:title=" ">
<path fill="none" stroke="#63b8ff" d="M51.73,-27.62C59.09,-27.62 67.42,-27.62 75.77,-27.62"/>
<polygon fill="#63b8ff" stroke="#63b8ff" points="75.56,-31.13 85.56,-27.63 75.56,-24.13 75.56,-31.13"/>
</a>
</g>
</g>
<!-- Node3 -->
<g id="Node000003" class="node">
<title>Node3</title>
<g id="a_Node000003"><a xlink:href="../../dd/def/str-ctype_8h.html#ae0cf190bab0c8d79a8562678e7661aad" target="_top" xlink:title=" ">
<polygon fill="white" stroke="#666666" points="310.5,-56.25 203,-56.25 203,-37 310.5,-37 310.5,-56.25"/>
<text text-anchor="middle" x="256.75" y="-42.75" font-family="Helvetica,sans-Serif" font-size="10.00">ctype_desc_contains</text>
</a>
</g>
</g>
<!-- Node2&#45;&gt;Node3 -->
<g id="edge2_Node000002_Node000003" class="edge">
<title>Node2&#45;&gt;Node3</title>
<g id="a_edge2_Node000002_Node000003"><a xlink:title=" ">
<path fill="none" stroke="#63b8ff" d="M167.46,-33.48C175.11,-34.62 183.32,-35.84 191.54,-37.07"/>
<polygon fill="#63b8ff" stroke="#63b8ff" points="190.79,-40.49 201.2,-38.5 191.82,-33.57 190.79,-40.49"/>
</a>
</g>
</g>
<!-- Node4 -->
<g id="Node000004" class="node">
<title>Node4</title>
<g id="a_Node000004"><a xlink:href="../../dc/d31/str-buf_8h.html#a0ee7f254541fa0eaa356841b8f7e1a5a" target="_top" xlink:title=" ">
<polygon fill="white" stroke="#666666" points="297.75,-19.25 215.75,-19.25 215.75,0 297.75,0 297.75,-19.25"/>
<text text-anchor="middle" x="256.75" y="-5.75" font-family="Helvetica,sans-Serif" font-size="10.00">sb_shrink_upto</text>
</a>
</g>
</g>
<!-- Node2&#45;&gt;Node4 -->
<g id="edge3_Node000002_Node000004" class="edge">
<title>Node2&#45;&gt;Node4</title>
<g id="a_edge3_Node000002_Node000004"><a xlink:title=" ">
<path fill="none" stroke="#63b8ff" d="M167.46,-22.08C179.12,-20.43 192.07,-18.61 204.38,-16.87"/>
<polygon fill="#63b8ff" stroke="#63b8ff" points="204.53,-20.38 213.95,-15.52 203.56,-13.45 204.53,-20.38"/>
</a>
</g>
</g>
<!-- Node5 -->
<g id="Node000005" class="node">
<title>Node5</title>
<g id="a_Node000005"><a xlink:href="../../dc/d31/str-buf_8h.html#a8a5e395e8a7be1e4ad896ab4a90ddad6" target="_top" xlink:title=" ">
<polygon fill="white" stroke="#666666" points="393.25,-19.25 346.5,-19.25 346.5,0 393.25,0 393.25,-19.25"/>
<text text-anchor="middle" x="369.88" y="-5.75" font-family="Helvetica,sans-Serif" font-size="10.00">sb_clip</text>
</a>
</g>
</g>
<!-- Node4&#45;&gt;Node5 -->
<g id="edge4_Node000004_Node000005" class="edge">
<title>Node4&#45;&gt;Node5</title>
<g id="a_edge4_Node000004_Node000005"><a xlink:title=" ">
<path fill="none" stroke="#63b8ff" d="M298.18,-9.62C310.16,-9.62 323.15,-9.62 334.69,-9.62"/>
<polygon fill="#63b8ff" stroke="#63b8ff" points="334.57,-13.13 344.57,-9.63 334.57,-6.13 334.57,-13.13"/>
</a>
</g>
</g>
<!-- Node6 -->
<g id="Node000006" class="node">
<title>Node6</title>
<g id="a_Node000006"><a xlink:href="../../dc/d31/str-buf_8h.html#a5019d1298a6a5b4f8ae0b645bb8bc627" target="_top" xlink:title=" ">
<polygon fill="white" stroke="#666666" points="493.25,-19.25 429.25,-19.25 429.25,0 493.25,0 493.25,-19.25"/>
<text text-anchor="middle" x="461.25" y="-5.75" font-family="Helvetica,sans-Serif" font-size="10.00">__sb_fixlen</text>
</a>
</g>
</g>
<!-- Node5&#45;&gt;Node6 -->
<g id="edge5_Node000005_Node000006" class="edge">
<title>Node5&#45;&gt;Node6</title>
<g id="a_edge5_Node000005_Node000006"><a xlink:title=" ">
<path fill="none" stroke="#63b8ff" d="M393.43,-9.62C400.82,-9.62 409.3,-9.62 417.68,-9.62"/>
<polygon fill="#63b8ff" stroke="#63b8ff" points="417.41,-13.13 427.41,-9.63 417.41,-6.13 417.41,-13.13"/>
</a>
</g>
</g>
<!-- Node7 -->
<g id="Node000007" class="node">
<title>Node7</title>
<g id="a_Node000007"><a xlink:href="../../dc/d31/str-buf_8h.html#a01c1a4f8ed76b6a919595b803c7d7376" target="_top" xlink:title=" ">
<polygon fill="white" stroke="#666666" points="613.5,-19.25 529.25,-19.25 529.25,0 613.5,0 613.5,-19.25"/>
<text text-anchor="middle" x="571.38" y="-5.75" font-family="Helvetica,sans-Serif" font-size="10.00">sb_set_trailing0</text>
</a>
</g>
</g>
<!-- Node6&#45;&gt;Node7 -->
<g id="edge6_Node000006_Node000007" class="edge">
<title>Node6&#45;&gt;Node7</title>
<g id="a_edge6_Node000006_Node000007"><a xlink:title=" ">
<path fill="none" stroke="#63b8ff" d="M493.52,-9.62C501.16,-9.62 509.53,-9.62 517.86,-9.62"/>
<polygon fill="#63b8ff" stroke="#63b8ff" points="517.59,-13.13 527.59,-9.63 517.59,-6.13 517.59,-13.13"/>
</a>
</g>
</g>
</g>
</svg>
