<?xml version="1.0" encoding="UTF-8" standalone="no"?>
<!DOCTYPE svg PUBLIC "-//W3C//DTD SVG 1.1//EN"
 "http://www.w3.org/Graphics/SVG/1.1/DTD/svg11.dtd">
<!-- Generated by graphviz version 9.0.0 (20230911.1827)
 -->
<!-- Title: sb_addsb Pages: 1 -->
<svg width="2387pt" height="347pt"
 viewBox="0.00 0.00 2387.00 347.02" xmlns="http://www.w3.org/2000/svg" xmlns:xlink="http://www.w3.org/1999/xlink">
<g id="graph0" class="graph" transform="scale(1 1) rotate(0) translate(4 343.02)">
<title>sb_addsb</title>
<!-- Node1 -->
<g id="Node000001" class="node">
<title>Node1</title>
<g id="a_Node000001"><a xlink:title=" ">
<polygon fill="#999999" stroke="#666666" points="58,-109.64 0,-109.64 0,-90.39 58,-90.39 58,-109.64"/>
<text text-anchor="middle" x="29" y="-96.14" font-family="Helvetica,sans-Serif" font-size="10.00">sb_addsb</text>
</a>
</g>
</g>
<!-- Node2 -->
<g id="Node000002" class="node">
<title>Node2</title>
<g id="a_Node000002"><a xlink:href="../../dc/d31/str-buf_8h.html#a6e739817e8e91ceaace33c4817e67ac6" target="_top" xlink:title=" ">
<polygon fill="white" stroke="#666666" points="141.5,-109.64 94,-109.64 94,-90.39 141.5,-90.39 141.5,-109.64"/>
<text text-anchor="middle" x="117.75" y="-96.14" font-family="Helvetica,sans-Serif" font-size="10.00">sb_add</text>
</a>
</g>
</g>
<!-- Node1&#45;&gt;Node2 -->
<g id="edge1_Node000001_Node000002" class="edge">
<title>Node1&#45;&gt;Node2</title>
<g id="a_edge1_Node000001_Node000002"><a xlink:title=" ">
<path fill="none" stroke="#63b8ff" d="M58.41,-100.02C66.11,-100.02 74.53,-100.02 82.51,-100.02"/>
<polygon fill="#63b8ff" stroke="#63b8ff" points="82.26,-103.52 92.26,-100.02 82.26,-96.52 82.26,-103.52"/>
</a>
</g>
</g>
<!-- Node3 -->
<g id="Node000003" class="node">
<title>Node3</title>
<g id="a_Node000003"><a xlink:href="../../dc/d31/str-buf_8h.html#a69537528c954fce98e3d2cb92232ffe8" target="_top" xlink:title=" ">
<polygon fill="white" stroke="#666666" points="243,-109.64 177.5,-109.64 177.5,-90.39 243,-90.39 243,-109.64"/>
<text text-anchor="middle" x="210.25" y="-96.14" font-family="Helvetica,sans-Serif" font-size="10.00">sb_growlen</text>
</a>
</g>
</g>
<!-- Node2&#45;&gt;Node3 -->
<g id="edge2_Node000002_Node000003" class="edge">
<title>Node2&#45;&gt;Node3</title>
<g id="a_edge2_Node000002_Node000003"><a xlink:title=" ">
<path fill="none" stroke="#63b8ff" d="M141.59,-100.02C149,-100.02 157.49,-100.02 165.9,-100.02"/>
<polygon fill="#63b8ff" stroke="#63b8ff" points="165.68,-103.52 175.68,-100.02 165.68,-96.52 165.68,-103.52"/>
</a>
</g>
</g>
<!-- Node4 -->
<g id="Node000004" class="node">
<title>Node4</title>
<g id="a_Node000004"><a xlink:href="../../dc/d31/str-buf_8h.html#a5019d1298a6a5b4f8ae0b645bb8bc627" target="_top" xlink:title=" ">
<polygon fill="white" stroke="#666666" points="343,-164.64 279,-164.64 279,-145.39 343,-145.39 343,-164.64"/>
<text text-anchor="middle" x="311" y="-151.14" font-family="Helvetica,sans-Serif" font-size="10.00">__sb_fixlen</text>
</a>
</g>
</g>
<!-- Node3&#45;&gt;Node4 -->
<g id="edge3_Node000003_Node000004" class="edge">
<title>Node3&#45;&gt;Node4</title>
<g id="a_edge3_Node000003_Node000004"><a xlink:title=" ">
<path fill="none" stroke="#63b8ff" d="M229.36,-110.1C244.12,-118.32 265.2,-130.07 282.11,-139.48"/>
<polygon fill="#63b8ff" stroke="#63b8ff" points="280.24,-142.45 290.68,-144.26 283.65,-136.33 280.24,-142.45"/>
</a>
</g>
</g>
<!-- Node6 -->
<g id="Node000006" class="node">
<title>Node6</title>
<g id="a_Node000006"><a xlink:href="../../d4/d02/str-buf_8c.html#a96e2e5252e81ed31e7071e4db76085b5" target="_top" xlink:title=" ">
<polygon fill="white" stroke="#666666" points="342.62,-109.64 279.38,-109.64 279.38,-90.39 342.62,-90.39 342.62,-109.64"/>
<text text-anchor="middle" x="311" y="-96.14" font-family="Helvetica,sans-Serif" font-size="10.00">__sb_grow</text>
</a>
</g>
</g>
<!-- Node3&#45;&gt;Node6 -->
<g id="edge5_Node000003_Node000006" class="edge">
<title>Node3&#45;&gt;Node6</title>
<g id="a_edge5_Node000003_Node000006"><a xlink:title=" ">
<path fill="none" stroke="#63b8ff" d="M243.31,-100.02C251.12,-100.02 259.59,-100.02 267.79,-100.02"/>
<polygon fill="#63b8ff" stroke="#63b8ff" points="267.59,-103.52 277.59,-100.02 267.59,-96.52 267.59,-103.52"/>
</a>
</g>
</g>
<!-- Node45 -->
<g id="Node000045" class="node">
<title>Node45</title>
<g id="a_Node000045"><a xlink:href="../../dc/d31/str-buf_8h.html#acd3f1b7a3fde32b199cf24fdb133b4ce" target="_top" xlink:title=" ">
<polygon fill="white" stroke="#666666" points="334.75,-72.64 287.25,-72.64 287.25,-53.39 334.75,-53.39 334.75,-72.64"/>
<text text-anchor="middle" x="311" y="-59.14" font-family="Helvetica,sans-Serif" font-size="10.00">sb_end</text>
</a>
</g>
</g>
<!-- Node3&#45;&gt;Node45 -->
<g id="edge57_Node000003_Node000045" class="edge">
<title>Node3&#45;&gt;Node45</title>
<g id="a_edge57_Node000003_Node000045"><a xlink:title=" ">
<path fill="none" stroke="#63b8ff" d="M238.23,-89.91C250.07,-85.47 264.09,-80.22 276.58,-75.54"/>
<polygon fill="#63b8ff" stroke="#63b8ff" points="277.51,-78.93 285.65,-72.14 275.06,-72.37 277.51,-78.93"/>
</a>
</g>
</g>
<!-- Node5 -->
<g id="Node000005" class="node">
<title>Node5</title>
<g id="a_Node000005"><a xlink:href="../../dc/d31/str-buf_8h.html#a01c1a4f8ed76b6a919595b803c7d7376" target="_top" xlink:title=" ">
<polygon fill="white" stroke="#666666" points="473.38,-183.64 389.12,-183.64 389.12,-164.39 473.38,-164.39 473.38,-183.64"/>
<text text-anchor="middle" x="431.25" y="-170.14" font-family="Helvetica,sans-Serif" font-size="10.00">sb_set_trailing0</text>
</a>
</g>
</g>
<!-- Node4&#45;&gt;Node5 -->
<g id="edge4_Node000004_Node000005" class="edge">
<title>Node4&#45;&gt;Node5</title>
<g id="a_edge4_Node000004_Node000005"><a xlink:title=" ">
<path fill="none" stroke="#63b8ff" d="M343.38,-160.06C353.96,-161.76 366.07,-163.7 377.82,-165.59"/>
<polygon fill="#63b8ff" stroke="#63b8ff" points="376.99,-169 387.42,-167.14 378.1,-162.09 376.99,-169"/>
</a>
</g>
</g>
<!-- Node7 -->
<g id="Node000007" class="node">
<title>Node7</title>
<g id="a_Node000007"><a xlink:href="../../d7/df8/log_8c.html#abca342edf91a9b45f7a17ef564fa8a53" target="_top" xlink:title=" ">
<polygon fill="white" stroke="#666666" points="1341.75,-123.64 1292,-123.64 1292,-104.39 1341.75,-104.39 1341.75,-123.64"/>
<text text-anchor="middle" x="1316.88" y="-110.14" font-family="Helvetica,sans-Serif" font-size="10.00">e_panic</text>
</a>
</g>
</g>
<!-- Node6&#45;&gt;Node7 -->
<g id="edge6_Node000006_Node000007" class="edge">
<title>Node6&#45;&gt;Node7</title>
<g id="a_edge6_Node000006_Node000007"><a xlink:title=" ">
<path fill="none" stroke="#63b8ff" d="M331.25,-89.99C335.27,-87.58 339.39,-84.87 343,-82.02 361.25,-67.58 358.77,-55.5 379,-44.02 457.03,0.25 486.29,-0.02 576,-0.02 576,-0.02 576,-0.02 1057.12,-0.02 1152.11,-0.02 1251.32,-65.14 1294.11,-96.94"/>
<polygon fill="#63b8ff" stroke="#63b8ff" points="1292,-99.73 1302.08,-102.99 1296.23,-94.15 1292,-99.73"/>
</a>
</g>
</g>
<!-- Node31 -->
<g id="Node000031" class="node">
<title>Node31</title>
<g id="a_Node000031"><a xlink:href="../../d9/d9a/mem_8h.html#a3fd6d5b3dcb24f194848ce86f988fb13" target="_top" xlink:title=" ">
<polygon fill="white" stroke="#666666" points="458.75,-72.64 403.75,-72.64 403.75,-53.39 458.75,-53.39 458.75,-72.64"/>
<text text-anchor="middle" x="431.25" y="-59.14" font-family="Helvetica,sans-Serif" font-size="10.00">mp_ipool</text>
</a>
</g>
</g>
<!-- Node6&#45;&gt;Node31 -->
<g id="edge35_Node000006_Node000031" class="edge">
<title>Node6&#45;&gt;Node31</title>
<g id="a_edge35_Node000006_Node000031"><a xlink:title=" ">
<path fill="none" stroke="#63b8ff" d="M343.07,-90.3C358.3,-85.53 376.77,-79.75 392.78,-74.74"/>
<polygon fill="#63b8ff" stroke="#63b8ff" points="393.46,-78.2 401.96,-71.87 391.37,-71.52 393.46,-78.2"/>
</a>
</g>
</g>
<!-- Node32 -->
<g id="Node000032" class="node">
<title>Node32</title>
<g id="a_Node000032"><a xlink:href="../../d9/d9a/mem_8h.html#a15958df365e5c2cc90a6c0c3e7e0e74f" target="_top" xlink:title=" ">
<polygon fill="white" stroke="#666666" points="483.5,-109.64 379,-109.64 379,-90.39 483.5,-90.39 483.5,-109.64"/>
<text text-anchor="middle" x="431.25" y="-96.14" font-family="Helvetica,sans-Serif" font-size="10.00">mp_irealloc_fallback</text>
</a>
</g>
</g>
<!-- Node6&#45;&gt;Node32 -->
<g id="edge36_Node000006_Node000032" class="edge">
<title>Node6&#45;&gt;Node32</title>
<g id="a_edge36_Node000006_Node000032"><a xlink:title=" ">
<path fill="none" stroke="#63b8ff" d="M343.07,-100.02C350.6,-100.02 358.91,-100.02 367.33,-100.02"/>
<polygon fill="#63b8ff" stroke="#63b8ff" points="367.3,-103.52 377.3,-100.02 367.3,-96.52 367.3,-103.52"/>
</a>
</g>
</g>
<!-- Node44 -->
<g id="Node000044" class="node">
<title>Node44</title>
<g id="a_Node000044"><a xlink:href="../../d4/d02/str-buf_8c.html#a63ddc4121cc8fbd2d5fd2a6d65a24feb" target="_top" xlink:title=" ">
<polygon fill="white" stroke="#666666" points="474.5,-146.64 388,-146.64 388,-127.39 474.5,-127.39 474.5,-146.64"/>
<text text-anchor="middle" x="431.25" y="-133.14" font-family="Helvetica,sans-Serif" font-size="10.00">sb_destroy_skip</text>
</a>
</g>
</g>
<!-- Node6&#45;&gt;Node44 -->
<g id="edge56_Node000006_Node000044" class="edge">
<title>Node6&#45;&gt;Node44</title>
<g id="a_edge56_Node000006_Node000044"><a xlink:title=" ">
<path fill="none" stroke="#63b8ff" d="M343.07,-109.74C356.59,-113.97 372.66,-119 387.3,-123.58"/>
<polygon fill="#63b8ff" stroke="#63b8ff" points="386.12,-126.88 396.71,-126.52 388.21,-120.2 386.12,-126.88"/>
</a>
</g>
</g>
<!-- Node8 -->
<g id="Node000008" class="node">
<title>Node8</title>
<g id="a_Node000008"><a xlink:href="../../d7/df8/log_8c.html#a4bc04f7baa1e064cb0b93c7b9f3a61a1" target="_top" xlink:title=" ">
<polygon fill="white" stroke="#666666" points="1471,-180.64 1383,-180.64 1383,-161.39 1471,-161.39 1471,-180.64"/>
<text text-anchor="middle" x="1427" y="-167.14" font-family="Helvetica,sans-Serif" font-size="10.00">__logger_refresh</text>
</a>
</g>
</g>
<!-- Node7&#45;&gt;Node8 -->
<g id="edge7_Node000007_Node000008" class="edge">
<title>Node7&#45;&gt;Node8</title>
<g id="a_edge7_Node000007_Node000008"><a xlink:title=" ">
<path fill="none" stroke="#63b8ff" d="M1336.96,-124.08C1353.63,-132.87 1378.09,-145.76 1397.16,-155.81"/>
<polygon fill="#63b8ff" stroke="#63b8ff" points="1395.29,-158.79 1405.77,-160.35 1398.56,-152.59 1395.29,-158.79"/>
</a>
</g>
</g>
<!-- Node26 -->
<g id="Node000026" class="node">
<title>Node26</title>
<g id="a_Node000026"><a xlink:href="../../d7/df8/log_8c.html#a900490b26df7698aac12f7f7e6517e81" target="_top" xlink:title=" ">
<polygon fill="white" stroke="#666666" points="1459.75,-123.64 1394.25,-123.64 1394.25,-104.39 1459.75,-104.39 1459.75,-123.64"/>
<text text-anchor="middle" x="1427" y="-110.14" font-family="Helvetica,sans-Serif" font-size="10.00">logger_vlog</text>
</a>
</g>
</g>
<!-- Node7&#45;&gt;Node26 -->
<g id="edge29_Node000007_Node000026" class="edge">
<title>Node7&#45;&gt;Node26</title>
<g id="a_edge29_Node000007_Node000026"><a xlink:title=" ">
<path fill="none" stroke="#63b8ff" d="M1342.14,-114.02C1354.11,-114.02 1368.91,-114.02 1382.72,-114.02"/>
<polygon fill="#63b8ff" stroke="#63b8ff" points="1382.5,-117.52 1392.5,-114.02 1382.5,-110.52 1382.5,-117.52"/>
</a>
</g>
</g>
<!-- Node30 -->
<g id="Node000030" class="node">
<title>Node30</title>
<g id="a_Node000030"><a xlink:href="../../d2/d4d/file_8h.html#a25419a391fdd4ad7954699c58cfeb3b9" target="_top" xlink:title=" ">
<polygon fill="white" stroke="#666666" points="1452.62,-86.64 1401.38,-86.64 1401.38,-67.39 1452.62,-67.39 1452.62,-86.64"/>
<text text-anchor="middle" x="1427" y="-73.14" font-family="Helvetica,sans-Serif" font-size="10.00">va_start</text>
</a>
</g>
</g>
<!-- Node7&#45;&gt;Node30 -->
<g id="edge34_Node000007_Node000030" class="edge">
<title>Node7&#45;&gt;Node30</title>
<g id="a_edge34_Node000007_Node000030"><a xlink:title=" ">
<path fill="none" stroke="#63b8ff" d="M1342.14,-105.71C1356.41,-100.83 1374.7,-94.57 1390.56,-89.15"/>
<polygon fill="#63b8ff" stroke="#63b8ff" points="1391.31,-92.59 1399.63,-86.04 1389.04,-85.97 1391.31,-92.59"/>
</a>
</g>
</g>
<!-- Node9 -->
<g id="Node000009" class="node">
<title>Node9</title>
<g id="a_Node000009"><a xlink:href="../../d7/df8/log_8c.html#a3dbd75fb614210f0b114cfd03c9c0a7b" target="_top" xlink:title=" ">
<polygon fill="white" stroke="#666666" points="1610.75,-235.64 1507,-235.64 1507,-216.39 1610.75,-216.39 1610.75,-235.64"/>
<text text-anchor="middle" x="1558.88" y="-222.14" font-family="Helvetica,sans-Serif" font-size="10.00">__logger_do_refresh</text>
</a>
</g>
</g>
<!-- Node8&#45;&gt;Node9 -->
<g id="edge8_Node000008_Node000009" class="edge">
<title>Node8&#45;&gt;Node9</title>
<g id="a_edge8_Node000008_Node000009"><a xlink:title=" ">
<path fill="none" stroke="#63b8ff" d="M1447.89,-180.99C1463.72,-188.77 1486.54,-199.63 1507,-208.02 1510.34,-209.39 1513.82,-210.75 1517.33,-212.08"/>
<polygon fill="#63b8ff" stroke="#63b8ff" points="1515.82,-215.25 1526.41,-215.41 1518.23,-208.68 1515.82,-215.25"/>
</a>
</g>
</g>
<!-- Node24 -->
<g id="Node000024" class="node">
<title>Node24</title>
<g id="a_Node000024"><a xlink:href="../../d7/df8/log_8c.html#a7b1b02d1986e1247c2f571af4a2c2854" target="_top" xlink:title=" ">
<polygon fill="white" stroke="#666666" points="1596.5,-198.64 1521.25,-198.64 1521.25,-179.39 1596.5,-179.39 1596.5,-198.64"/>
<text text-anchor="middle" x="1558.88" y="-185.14" font-family="Helvetica,sans-Serif" font-size="10.00">log_spin_lock</text>
</a>
</g>
</g>
<!-- Node8&#45;&gt;Node24 -->
<g id="edge27_Node000008_Node000024" class="edge">
<title>Node8&#45;&gt;Node24</title>
<g id="a_edge27_Node000008_Node000024"><a xlink:title=" ">
<path fill="none" stroke="#63b8ff" d="M1471.25,-177.01C1483.56,-178.72 1497.05,-180.59 1509.65,-182.33"/>
<polygon fill="#63b8ff" stroke="#63b8ff" points="1509.01,-185.78 1519.4,-183.68 1509.98,-178.84 1509.01,-185.78"/>
</a>
</g>
</g>
<!-- Node25 -->
<g id="Node000025" class="node">
<title>Node25</title>
<g id="a_Node000025"><a xlink:href="../../d1/dc0/group__log.html#ga045020bb4af234632f7761f220131c69" target="_top" xlink:title=" ">
<polygon fill="white" stroke="#666666" points="1601.75,-161.64 1516,-161.64 1516,-142.39 1601.75,-142.39 1601.75,-161.64"/>
<text text-anchor="middle" x="1558.88" y="-148.14" font-family="Helvetica,sans-Serif" font-size="10.00">log_spin_unlock</text>
</a>
</g>
</g>
<!-- Node8&#45;&gt;Node25 -->
<g id="edge28_Node000008_Node000025" class="edge">
<title>Node8&#45;&gt;Node25</title>
<g id="a_edge28_Node000008_Node000025"><a xlink:title=" ">
<path fill="none" stroke="#63b8ff" d="M1471.25,-164.69C1481.87,-163.14 1493.37,-161.45 1504.41,-159.84"/>
<polygon fill="#63b8ff" stroke="#63b8ff" points="1504.81,-163.32 1514.2,-158.41 1503.8,-156.39 1504.81,-163.32"/>
</a>
</g>
</g>
<!-- Node9&#45;&gt;Node9 -->
<g id="edge9_Node000009_Node000009" class="edge">
<title>Node9&#45;&gt;Node9</title>
<g id="a_edge9_Node000009_Node000009"><a xlink:title=" ">
<path fill="none" stroke="#63b8ff" d="M1538.23,-235.93C1528.81,-244.54 1535.69,-253.64 1558.88,-253.64 1571.55,-253.64 1579.35,-250.92 1582.28,-247.04"/>
<polygon fill="#63b8ff" stroke="#63b8ff" points="1585.69,-246.26 1579.89,-237.4 1578.9,-247.95 1585.69,-246.26"/>
</a>
</g>
</g>
<!-- Node10 -->
<g id="Node000010" class="node">
<title>Node10</title>
<g id="a_Node000010"><a xlink:href="../../de/d1a/container-dlist_8h.html#a3b6f65860b212e28f2e28e71eb54d54d" target="_top" xlink:title="Add element e at the head of list l (suited for LIFO).">
<polygon fill="white" stroke="#666666" points="1737.75,-161.64 1682.75,-161.64 1682.75,-142.39 1737.75,-142.39 1737.75,-161.64"/>
<text text-anchor="middle" x="1710.25" y="-148.14" font-family="Helvetica,sans-Serif" font-size="10.00">dlist_add</text>
</a>
</g>
</g>
<!-- Node9&#45;&gt;Node10 -->
<g id="edge10_Node000009_Node000010" class="edge">
<title>Node9&#45;&gt;Node10</title>
<g id="a_edge10_Node000009_Node000010"><a xlink:title=" ">
<path fill="none" stroke="#63b8ff" d="M1595.39,-215.91C1600.74,-213.7 1606.04,-211.08 1610.75,-208.02 1630.26,-195.34 1626.87,-182.11 1646.75,-170.02 1654.26,-165.45 1662.99,-161.99 1671.49,-159.4"/>
<polygon fill="#63b8ff" stroke="#63b8ff" points="1672.22,-162.83 1680.97,-156.85 1670.4,-156.07 1672.22,-162.83"/>
</a>
</g>
</g>
<!-- Node12 -->
<g id="Node000012" class="node">
<title>Node12</title>
<g id="a_Node000012"><a xlink:href="../../de/d1a/container-dlist_8h.html#a0a69e401f6ec15966c891e96ad864c77" target="_top" xlink:title="Put a dlist_t element in a safe and detached state.">
<polygon fill="white" stroke="#666666" points="1736.25,-198.64 1684.25,-198.64 1684.25,-179.39 1736.25,-179.39 1736.25,-198.64"/>
<text text-anchor="middle" x="1710.25" y="-185.14" font-family="Helvetica,sans-Serif" font-size="10.00">dlist_init</text>
</a>
</g>
</g>
<!-- Node9&#45;&gt;Node12 -->
<g id="edge12_Node000009_Node000012" class="edge">
<title>Node9&#45;&gt;Node12</title>
<g id="a_edge12_Node000009_Node000012"><a xlink:title=" ">
<path fill="none" stroke="#63b8ff" d="M1600.69,-215.91C1623.24,-210.32 1651.02,-203.44 1672.84,-198.04"/>
<polygon fill="#63b8ff" stroke="#63b8ff" points="1673.62,-201.45 1682.48,-195.65 1671.94,-194.65 1673.62,-201.45"/>
</a>
</g>
</g>
<!-- Node13 -->
<g id="Node000013" class="node">
<title>Node13</title>
<g id="a_Node000013"><a xlink:href="../../d7/df8/log_8c.html#a4c8fbe8648573312126ce341cf34cba1" target="_top" xlink:title=" ">
<polygon fill="white" stroke="#666666" points="1773.75,-272.64 1646.75,-272.64 1646.75,-253.39 1773.75,-253.39 1773.75,-272.64"/>
<text text-anchor="middle" x="1710.25" y="-259.14" font-family="Helvetica,sans-Serif" font-size="10.00">logger_compute_fullname</text>
</a>
</g>
</g>
<!-- Node9&#45;&gt;Node13 -->
<g id="edge13_Node000009_Node000013" class="edge">
<title>Node9&#45;&gt;Node13</title>
<g id="a_edge13_Node000009_Node000013"><a xlink:title=" ">
<path fill="none" stroke="#63b8ff" d="M1600.69,-236.13C1618.23,-240.47 1638.93,-245.6 1657.52,-250.2"/>
<polygon fill="#63b8ff" stroke="#63b8ff" points="1656.46,-253.55 1667.01,-252.55 1658.15,-246.75 1656.46,-253.55"/>
</a>
</g>
</g>
<!-- Node16 -->
<g id="Node000016" class="node">
<title>Node16</title>
<g id="a_Node000016"><a xlink:href="../../df/d0a/str-l_8h.html#ad74dae07179370f3c22e3f026157926e" target="_top" xlink:title="wipe a lstr_t (frees memory if needed).">
<polygon fill="white" stroke="#666666" points="1881.25,-272.64 1826.25,-272.64 1826.25,-253.39 1881.25,-253.39 1881.25,-272.64"/>
<text text-anchor="middle" x="1853.75" y="-259.14" font-family="Helvetica,sans-Serif" font-size="10.00">lstr_wipe</text>
</a>
</g>
</g>
<!-- Node9&#45;&gt;Node16 -->
<g id="edge26_Node000009_Node000016" class="edge">
<title>Node9&#45;&gt;Node16</title>
<g id="a_edge26_Node000009_Node000016"><a xlink:title=" ">
<path fill="none" stroke="#63b8ff" d="M1570.62,-235.93C1586.08,-249.45 1616.11,-273 1646.75,-282.02 1703.59,-298.75 1772.73,-286.02 1814.71,-274.86"/>
<polygon fill="#63b8ff" stroke="#63b8ff" points="1815.64,-278.23 1824.33,-272.18 1813.76,-271.49 1815.64,-278.23"/>
</a>
</g>
</g>
<!-- Node23 -->
<g id="Node000023" class="node">
<title>Node23</title>
<g id="a_Node000023"><a xlink:href="../../df/d0a/str-l_8h.html#a963c22b229774d4b7c106bae4011cb8e" target="_top" xlink:title="Returns whether \v s1 and \v s2 contents are equal.">
<polygon fill="white" stroke="#666666" points="1739.25,-235.64 1681.25,-235.64 1681.25,-216.39 1739.25,-216.39 1739.25,-235.64"/>
<text text-anchor="middle" x="1710.25" y="-222.14" font-family="Helvetica,sans-Serif" font-size="10.00">lstr_equal</text>
</a>
</g>
</g>
<!-- Node9&#45;&gt;Node23 -->
<g id="edge25_Node000009_Node000023" class="edge">
<title>Node9&#45;&gt;Node23</title>
<g id="a_edge25_Node000009_Node000023"><a xlink:title=" ">
<path fill="none" stroke="#63b8ff" d="M1610.86,-226.02C1630.14,-226.02 1651.76,-226.02 1669.82,-226.02"/>
<polygon fill="#63b8ff" stroke="#63b8ff" points="1669.59,-229.52 1679.59,-226.02 1669.59,-222.52 1669.59,-229.52"/>
</a>
</g>
</g>
<!-- Node11 -->
<g id="Node000011" class="node">
<title>Node11</title>
<g id="a_Node000011"><a xlink:href="../../de/d1a/container-dlist_8h.html#a71e7667ca0e4b896923788c5851afd24" target="_top" xlink:title="Put element e between prev and next.">
<polygon fill="white" stroke="#666666" points="1886.5,-175.64 1821,-175.64 1821,-156.39 1886.5,-156.39 1886.5,-175.64"/>
<text text-anchor="middle" x="1853.75" y="-162.14" font-family="Helvetica,sans-Serif" font-size="10.00">__dlist_add</text>
</a>
</g>
</g>
<!-- Node10&#45;&gt;Node11 -->
<g id="edge11_Node000010_Node000011" class="edge">
<title>Node10&#45;&gt;Node11</title>
<g id="a_edge11_Node000010_Node000011"><a xlink:title=" ">
<path fill="none" stroke="#63b8ff" d="M1738.2,-154.68C1758.3,-156.67 1786.17,-159.43 1809.39,-161.73"/>
<polygon fill="#63b8ff" stroke="#63b8ff" points="1808.9,-165.2 1819.19,-162.7 1809.59,-158.23 1808.9,-165.2"/>
</a>
</g>
</g>
<!-- Node14 -->
<g id="Node000014" class="node">
<title>Node14</title>
<g id="a_Node000014"><a xlink:href="../../df/d0a/str-l_8h.html#a6a200ca09358f19b13a8e297cda34869" target="_top" xlink:title="returns a constant copy of \v s.">
<polygon fill="white" stroke="#666666" points="1881.62,-138.64 1825.88,-138.64 1825.88,-119.39 1881.62,-119.39 1881.62,-138.64"/>
<text text-anchor="middle" x="1853.75" y="-125.14" font-family="Helvetica,sans-Serif" font-size="10.00">lstr_dupc</text>
</a>
</g>
</g>
<!-- Node13&#45;&gt;Node14 -->
<g id="edge14_Node000013_Node000014" class="edge">
<title>Node13&#45;&gt;Node14</title>
<g id="a_edge14_Node000013_Node000014"><a xlink:title=" ">
<path fill="none" stroke="#63b8ff" d="M1762.28,-252.93C1766.45,-250.78 1770.36,-248.17 1773.75,-245.02 1807.71,-213.4 1777.68,-180.55 1809.75,-147.02 1811.52,-145.16 1813.52,-143.49 1815.65,-141.99"/>
<polygon fill="#63b8ff" stroke="#63b8ff" points="1817.28,-145.08 1824.3,-137.15 1813.87,-138.98 1817.28,-145.08"/>
</a>
</g>
</g>
<!-- Node13&#45;&gt;Node16 -->
<g id="edge16_Node000013_Node000016" class="edge">
<title>Node13&#45;&gt;Node16</title>
<g id="a_edge16_Node000013_Node000016"><a xlink:title=" ">
<path fill="none" stroke="#63b8ff" d="M1774.14,-263.02C1787.9,-263.02 1802.06,-263.02 1814.51,-263.02"/>
<polygon fill="#63b8ff" stroke="#63b8ff" points="1814.33,-266.52 1824.33,-263.02 1814.33,-259.52 1814.33,-266.52"/>
</a>
</g>
</g>
<!-- Node15 -->
<g id="Node000015" class="node">
<title>Node15</title>
<g id="a_Node000015"><a xlink:href="../../df/d0a/str-l_8h.html#a3b4dbe9c4cc70340cba0787574dc1c5e" target="_top" xlink:title=" ">
<polygon fill="white" stroke="#666666" points="2211.25,-145.64 2158.5,-145.64 2158.5,-126.39 2211.25,-126.39 2211.25,-145.64"/>
<text text-anchor="middle" x="2184.88" y="-132.14" font-family="Helvetica,sans-Serif" font-size="10.00">lstr_init_</text>
</a>
</g>
</g>
<!-- Node14&#45;&gt;Node15 -->
<g id="edge15_Node000014_Node000015" class="edge">
<title>Node14&#45;&gt;Node15</title>
<g id="a_edge15_Node000014_Node000015"><a xlink:title=" ">
<path fill="none" stroke="#63b8ff" d="M1881.96,-129.6C1940.81,-130.85 2079.94,-133.81 2146.78,-135.23"/>
<polygon fill="#63b8ff" stroke="#63b8ff" points="2146.42,-138.72 2156.49,-135.43 2146.56,-131.72 2146.42,-138.72"/>
</a>
</g>
</g>
<!-- Node17 -->
<g id="Node000017" class="node">
<title>Node17</title>
<g id="a_Node000017"><a xlink:href="../../df/d0a/str-l_8h.html#a381cd831ac9616c5bea8213bb679d1ac" target="_top" xlink:title="Wipe a lstr_t (frees memory if needed).">
<polygon fill="white" stroke="#666666" points="2007.5,-245.64 1933.75,-245.64 1933.75,-226.39 2007.5,-226.39 2007.5,-245.64"/>
<text text-anchor="middle" x="1970.62" y="-232.14" font-family="Helvetica,sans-Serif" font-size="10.00">mp_lstr_wipe</text>
</a>
</g>
</g>
<!-- Node16&#45;&gt;Node17 -->
<g id="edge17_Node000016_Node000017" class="edge">
<title>Node16&#45;&gt;Node17</title>
<g id="a_edge17_Node000016_Node000017"><a xlink:title=" ">
<path fill="none" stroke="#63b8ff" d="M1881.68,-256.69C1893.82,-253.83 1908.52,-250.38 1922.4,-247.12"/>
<polygon fill="#63b8ff" stroke="#63b8ff" points="1922.89,-250.6 1931.82,-244.9 1921.28,-243.78 1922.89,-250.6"/>
</a>
</g>
</g>
<!-- Node18 -->
<g id="Node000018" class="node">
<title>Node18</title>
<g id="a_Node000018"><a xlink:href="../../de/d04/str-l_8c.html#abe2a3a71f0b4dbc7d37c59d16762b6fb" target="_top" xlink:title="lstr_copy_* helper.">
<polygon fill="white" stroke="#666666" points="2122.5,-238.64 2043.5,-238.64 2043.5,-219.39 2122.5,-219.39 2122.5,-238.64"/>
<text text-anchor="middle" x="2083" y="-225.14" font-family="Helvetica,sans-Serif" font-size="10.00">mp_lstr_copy_</text>
</a>
</g>
</g>
<!-- Node17&#45;&gt;Node18 -->
<g id="edge18_Node000017_Node000018" class="edge">
<title>Node17&#45;&gt;Node18</title>
<g id="a_edge18_Node000017_Node000018"><a xlink:title=" ">
<path fill="none" stroke="#63b8ff" d="M2007.77,-233.72C2015.46,-233.24 2023.71,-232.71 2031.82,-232.2"/>
<polygon fill="#63b8ff" stroke="#63b8ff" points="2031.85,-235.7 2041.6,-231.58 2031.4,-228.72 2031.85,-235.7"/>
</a>
</g>
</g>
<!-- Node18&#45;&gt;Node15 -->
<g id="edge24_Node000018_Node000015" class="edge">
<title>Node18&#45;&gt;Node15</title>
<g id="a_edge24_Node000018_Node000015"><a xlink:title=" ">
<path fill="none" stroke="#63b8ff" d="M2094.69,-219.06C2111.43,-203.47 2144.08,-173.07 2164.89,-153.69"/>
<polygon fill="#63b8ff" stroke="#63b8ff" points="2167.22,-156.31 2172.16,-146.93 2162.45,-151.18 2167.22,-156.31"/>
</a>
</g>
</g>
<!-- Node19 -->
<g id="Node000019" class="node">
<title>Node19</title>
<g id="a_Node000019"><a xlink:href="../../d9/d9a/mem_8h.html#aebbbd277e2952bdb802104671ba23ba9" target="_top" xlink:title=" ">
<polygon fill="white" stroke="#666666" points="2202.25,-238.64 2167.5,-238.64 2167.5,-219.39 2202.25,-219.39 2202.25,-238.64"/>
<text text-anchor="middle" x="2184.88" y="-225.14" font-family="Helvetica,sans-Serif" font-size="10.00">ifree</text>
</a>
</g>
</g>
<!-- Node18&#45;&gt;Node19 -->
<g id="edge19_Node000018_Node000019" class="edge">
<title>Node18&#45;&gt;Node19</title>
<g id="a_edge19_Node000018_Node000019"><a xlink:title=" ">
<path fill="none" stroke="#63b8ff" d="M2122.9,-229.02C2133.8,-229.02 2145.45,-229.02 2155.6,-229.02"/>
<polygon fill="#63b8ff" stroke="#63b8ff" points="2155.6,-232.52 2165.6,-229.02 2155.6,-225.52 2155.6,-232.52"/>
</a>
</g>
</g>
<!-- Node20 -->
<g id="Node000020" class="node">
<title>Node20</title>
<g id="a_Node000020"><a xlink:href="../../d8/d37/mem_8blk.html#a36b65ab346f1d0deed7b63c544c78f2b" target="_top" xlink:title=" ">
<polygon fill="white" stroke="#666666" points="2292.12,-276.64 2255.88,-276.64 2255.88,-257.39 2292.12,-257.39 2292.12,-276.64"/>
<text text-anchor="middle" x="2274" y="-263.14" font-family="Helvetica,sans-Serif" font-size="10.00">ipool</text>
</a>
</g>
</g>
<!-- Node19&#45;&gt;Node20 -->
<g id="edge20_Node000019_Node000020" class="edge">
<title>Node19&#45;&gt;Node20</title>
<g id="a_edge20_Node000019_Node000020"><a xlink:title=" ">
<path fill="none" stroke="#63b8ff" d="M2202.67,-236.34C2214.69,-241.59 2231.15,-248.76 2245.12,-254.86"/>
<polygon fill="#63b8ff" stroke="#63b8ff" points="2243.7,-258.06 2254.27,-258.85 2246.5,-251.64 2243.7,-258.06"/>
</a>
</g>
</g>
<!-- Node22 -->
<g id="Node000022" class="node">
<title>Node22</title>
<g id="a_Node000022"><a xlink:href="../../d8/d37/mem_8blk.html#a83c7cf203e5eef9d1a8c6c43cde3e2e5" target="_top" xlink:title=" ">
<polygon fill="white" stroke="#666666" points="2300.75,-200.64 2247.25,-200.64 2247.25,-181.39 2300.75,-181.39 2300.75,-200.64"/>
<text text-anchor="middle" x="2274" y="-187.14" font-family="Helvetica,sans-Serif" font-size="10.00">mp_ifree</text>
</a>
</g>
</g>
<!-- Node19&#45;&gt;Node22 -->
<g id="edge23_Node000019_Node000022" class="edge">
<title>Node19&#45;&gt;Node22</title>
<g id="a_edge23_Node000019_Node000022"><a xlink:title=" ">
<path fill="none" stroke="#63b8ff" d="M2202.67,-221.69C2213.18,-217.11 2227.08,-211.04 2239.75,-205.52"/>
<polygon fill="#63b8ff" stroke="#63b8ff" points="2240.84,-208.86 2248.61,-201.66 2238.04,-202.45 2240.84,-208.86"/>
</a>
</g>
</g>
<!-- Node20&#45;&gt;Node7 -->
<g id="edge21_Node000020_Node000007" class="edge">
<title>Node20&#45;&gt;Node7</title>
<g id="a_edge21_Node000020_Node000007"><a xlink:title=" ">
<path fill="none" stroke="#63b8ff" d="M2258.06,-277.03C2227.05,-296.81 2152.82,-339.02 2084,-339.02 1557.88,-339.02 1557.88,-339.02 1557.88,-339.02 1497.79,-339.02 1374.35,-187.03 1332.29,-132.89"/>
<polygon fill="#63b8ff" stroke="#63b8ff" points="1335.21,-130.95 1326.34,-125.17 1329.67,-135.23 1335.21,-130.95"/>
</a>
</g>
</g>
<!-- Node21 -->
<g id="Node000021" class="node">
<title>Node21</title>
<g id="a_Node000021"><a xlink:href="../../d1/d10/mem-stack_8h.html#a1d0e2a29f86dc033a02e50484b527fd0" target="_top" xlink:title=" ">
<polygon fill="white" stroke="#666666" points="2379,-276.64 2336.75,-276.64 2336.75,-257.39 2379,-257.39 2379,-276.64"/>
<text text-anchor="middle" x="2357.88" y="-263.14" font-family="Helvetica,sans-Serif" font-size="10.00">t_pool</text>
</a>
</g>
</g>
<!-- Node20&#45;&gt;Node21 -->
<g id="edge22_Node000020_Node000021" class="edge">
<title>Node20&#45;&gt;Node21</title>
<g id="a_edge22_Node000020_Node000021"><a xlink:title=" ">
<path fill="none" stroke="#63b8ff" d="M2292.36,-267.02C2301.81,-267.02 2313.79,-267.02 2324.86,-267.02"/>
<polygon fill="#63b8ff" stroke="#63b8ff" points="2324.84,-270.52 2334.84,-267.02 2324.84,-263.52 2324.84,-270.52"/>
</a>
</g>
</g>
<!-- Node26&#45;&gt;Node14 -->
<g id="edge33_Node000026_Node000014" class="edge">
<title>Node26&#45;&gt;Node14</title>
<g id="a_edge33_Node000026_Node000014"><a xlink:title=" ">
<path fill="none" stroke="#63b8ff" d="M1459.93,-115.14C1536.61,-117.85 1730.95,-124.72 1814.08,-127.65"/>
<polygon fill="#63b8ff" stroke="#63b8ff" points="1813.88,-131.15 1823.99,-128 1814.12,-124.15 1813.88,-131.15"/>
</a>
</g>
</g>
<!-- Node27 -->
<g id="Node000027" class="node">
<title>Node27</title>
<g id="a_Node000027"><a xlink:href="../../d1/dc0/group__log.html#ga168a6f17b248f61f7d25a17d58d04e36" target="_top" xlink:title=" ">
<polygon fill="white" stroke="#666666" points="1603.25,-85.64 1514.5,-85.64 1514.5,-66.39 1603.25,-66.39 1603.25,-85.64"/>
<text text-anchor="middle" x="1558.88" y="-72.14" font-family="Helvetica,sans-Serif" font-size="10.00">logger_has_level</text>
</a>
</g>
</g>
<!-- Node26&#45;&gt;Node27 -->
<g id="edge30_Node000026_Node000027" class="edge">
<title>Node26&#45;&gt;Node27</title>
<g id="a_edge30_Node000026_Node000027"><a xlink:title=" ">
<path fill="none" stroke="#63b8ff" d="M1460.1,-104.62C1475.88,-100.01 1495.16,-94.37 1512.42,-89.32"/>
<polygon fill="#63b8ff" stroke="#63b8ff" points="1513.34,-92.69 1521.96,-86.53 1511.38,-85.97 1513.34,-92.69"/>
</a>
</g>
</g>
<!-- Node28 -->
<g id="Node000028" class="node">
<title>Node28</title>
<g id="a_Node000028"><a xlink:href="../../d1/dc0/group__log.html#gaf388752b988541da0abeceecdf96e6b3" target="_top" xlink:title=" ">
<polygon fill="white" stroke="#666666" points="1753.5,-85.64 1667,-85.64 1667,-66.39 1753.5,-66.39 1753.5,-85.64"/>
<text text-anchor="middle" x="1710.25" y="-72.14" font-family="Helvetica,sans-Serif" font-size="10.00">logger_get_level</text>
</a>
</g>
</g>
<!-- Node27&#45;&gt;Node28 -->
<g id="edge31_Node000027_Node000028" class="edge">
<title>Node27&#45;&gt;Node28</title>
<g id="a_edge31_Node000027_Node000028"><a xlink:title=" ">
<path fill="none" stroke="#63b8ff" d="M1603.48,-76.02C1619.64,-76.02 1638.17,-76.02 1655.15,-76.02"/>
<polygon fill="#63b8ff" stroke="#63b8ff" points="1655.11,-79.52 1665.11,-76.02 1655.11,-72.52 1655.11,-79.52"/>
</a>
</g>
</g>
<!-- Node29 -->
<g id="Node000029" class="node">
<title>Node29</title>
<g id="a_Node000029"><a xlink:href="../../d1/dc0/group__log.html#ga93cbd623096e1704532d15b3eb30e42f" target="_top" xlink:title=" ">
<polygon fill="white" stroke="#666666" points="1897.75,-85.64 1809.75,-85.64 1809.75,-66.39 1897.75,-66.39 1897.75,-85.64"/>
<text text-anchor="middle" x="1853.75" y="-72.14" font-family="Helvetica,sans-Serif" font-size="10.00">__logger_refresh</text>
</a>
</g>
</g>
<!-- Node28&#45;&gt;Node29 -->
<g id="edge32_Node000028_Node000029" class="edge">
<title>Node28&#45;&gt;Node29</title>
<g id="a_edge32_Node000028_Node000029"><a xlink:title=" ">
<path fill="none" stroke="#63b8ff" d="M1753.7,-76.02C1767.58,-76.02 1783.19,-76.02 1797.85,-76.02"/>
<polygon fill="#63b8ff" stroke="#63b8ff" points="1797.83,-79.52 1807.83,-76.02 1797.83,-72.52 1797.83,-79.52"/>
</a>
</g>
</g>
<!-- Node33 -->
<g id="Node000033" class="node">
<title>Node33</title>
<g id="a_Node000033"><a xlink:href="../../d8/d37/mem_8blk.html#a2fa974dc4e9f038e5bc400eb689b74b4" target="_top" xlink:title=" ">
<polygon fill="white" stroke="#666666" points="634.5,-109.64 519.5,-109.64 519.5,-90.39 634.5,-90.39 634.5,-109.64"/>
<text text-anchor="middle" x="577" y="-96.14" font-family="Helvetica,sans-Serif" font-size="10.00">__mp_irealloc_fallback</text>
</a>
</g>
</g>
<!-- Node32&#45;&gt;Node33 -->
<g id="edge37_Node000032_Node000033" class="edge">
<title>Node32&#45;&gt;Node33</title>
<g id="a_edge37_Node000032_Node000033"><a xlink:title=" ">
<path fill="none" stroke="#63b8ff" d="M483.74,-100.02C491.52,-100.02 499.64,-100.02 507.7,-100.02"/>
<polygon fill="#63b8ff" stroke="#63b8ff" points="507.5,-103.52 517.5,-100.02 507.5,-96.52 507.5,-103.52"/>
</a>
</g>
</g>
<!-- Node39 -->
<g id="Node000039" class="node">
<title>Node39</title>
<g id="a_Node000039"><a xlink:href="../../d9/d9a/mem_8h.html#ae99e17ad0b27e94e8a00c8af9734a0e7" target="_top" xlink:title=" ">
<polygon fill="white" stroke="#666666" points="1112.5,-274.64 999.75,-274.64 999.75,-255.39 1112.5,-255.39 1112.5,-274.64"/>
<text text-anchor="middle" x="1056.12" y="-261.14" font-family="Helvetica,sans-Serif" font-size="10.00">icheck_alloc_constant</text>
</a>
</g>
</g>
<!-- Node32&#45;&gt;Node39 -->
<g id="edge55_Node000032_Node000039" class="edge">
<title>Node32&#45;&gt;Node39</title>
<g id="a_edge55_Node000032_Node000039"><a xlink:title=" ">
<path fill="none" stroke="#63b8ff" d="M466.38,-110.04C472.26,-112.31 478.18,-114.97 483.5,-118.02 594.01,-181.27 574.92,-303.02 702.25,-303.02 702.25,-303.02 702.25,-303.02 811,-303.02 878.45,-303.02 955.15,-288.68 1004.28,-277.62"/>
<polygon fill="#63b8ff" stroke="#63b8ff" points="1004.81,-281.09 1013.77,-275.44 1003.24,-274.27 1004.81,-281.09"/>
</a>
</g>
</g>
<!-- Node33&#45;&gt;Node22 -->
<g id="edge40_Node000033_Node000022" class="edge">
<title>Node33&#45;&gt;Node22</title>
<g id="a_edge40_Node000033_Node000022"><a xlink:title=" ">
<path fill="none" stroke="#63b8ff" d="M600.09,-89.92C640.61,-72.35 729.9,-38.02 809,-38.02 809,-38.02 809,-38.02 2084,-38.02 2167.71,-38.02 2235.13,-129.8 2261.28,-171.19"/>
<polygon fill="#63b8ff" stroke="#63b8ff" points="2258.27,-172.99 2266.49,-179.69 2264.24,-169.33 2258.27,-172.99"/>
</a>
</g>
</g>
<!-- Node34 -->
<g id="Node000034" class="node">
<title>Node34</title>
<g id="a_Node000034"><a xlink:href="../../d8/d37/mem_8blk.html#a8e4fbf6500e65079c31e3fd933ae7dc1" target="_top" xlink:title=" ">
<polygon fill="white" stroke="#666666" points="1234.62,-123.64 1164.62,-123.64 1164.62,-104.39 1234.62,-104.39 1234.62,-123.64"/>
<text text-anchor="middle" x="1199.62" y="-110.14" font-family="Helvetica,sans-Serif" font-size="10.00">icheck_alloc</text>
</a>
</g>
</g>
<!-- Node33&#45;&gt;Node34 -->
<g id="edge38_Node000033_Node000034" class="edge">
<title>Node33&#45;&gt;Node34</title>
<g id="a_edge38_Node000033_Node000034"><a xlink:title=" ">
<path fill="none" stroke="#63b8ff" d="M634.79,-90.81C681.44,-84.04 749.33,-76.02 809,-76.02 809,-76.02 809,-76.02 924.88,-76.02 1005.79,-76.02 1098.88,-92.5 1153,-103.76"/>
<polygon fill="#63b8ff" stroke="#63b8ff" points="1152.28,-107.18 1162.79,-105.83 1153.73,-100.33 1152.28,-107.18"/>
</a>
</g>
</g>
<!-- Node35 -->
<g id="Node000035" class="node">
<title>Node35</title>
<g id="a_Node000035"><a xlink:href="../../d9/d9a/mem_8h.html#ada6bb9661f0c10ccaa14d231c24aeafd" target="_top" xlink:title=" ">
<polygon fill="white" stroke="#666666" points="956.62,-161.64 891.12,-161.64 891.12,-142.39 956.62,-142.39 956.62,-161.64"/>
<text text-anchor="middle" x="923.88" y="-148.14" font-family="Helvetica,sans-Serif" font-size="10.00">mp_imalloc</text>
</a>
</g>
</g>
<!-- Node33&#45;&gt;Node35 -->
<g id="edge41_Node000033_Node000035" class="edge">
<title>Node33&#45;&gt;Node35</title>
<g id="a_edge41_Node000033_Node000035"><a xlink:title=" ">
<path fill="none" stroke="#63b8ff" d="M634.95,-108.6C703.61,-118.96 817.47,-136.12 879.44,-145.47"/>
<polygon fill="#63b8ff" stroke="#63b8ff" points="878.84,-148.92 889.25,-146.95 879.89,-142 878.84,-148.92"/>
</a>
</g>
</g>
<!-- Node41 -->
<g id="Node000041" class="node">
<title>Node41</title>
<g id="a_Node000041"><a xlink:href="../../d9/d9a/mem_8h.html#aabfb5bf96a257374cbc245548b81c4ff" target="_top" xlink:title=" ">
<polygon fill="white" stroke="#666666" points="736,-180.64 670.5,-180.64 670.5,-161.39 736,-161.39 736,-180.64"/>
<text text-anchor="middle" x="703.25" y="-167.14" font-family="Helvetica,sans-Serif" font-size="10.00">mp_irealloc</text>
</a>
</g>
</g>
<!-- Node33&#45;&gt;Node41 -->
<g id="edge48_Node000033_Node000041" class="edge">
<title>Node33&#45;&gt;Node41</title>
<g id="a_edge48_Node000033_Node000041"><a xlink:title=" ">
<path fill="none" stroke="#63b8ff" d="M595.54,-110.04C616.17,-121.83 650.66,-141.53 674.83,-155.35"/>
<polygon fill="#63b8ff" stroke="#63b8ff" points="673.07,-158.37 683.49,-160.3 676.54,-152.29 673.07,-158.37"/>
</a>
</g>
</g>
<!-- Node34&#45;&gt;Node7 -->
<g id="edge39_Node000034_Node000007" class="edge">
<title>Node34&#45;&gt;Node7</title>
<g id="a_edge39_Node000034_Node000007"><a xlink:title=" ">
<path fill="none" stroke="#63b8ff" d="M1234.89,-114.02C1249.34,-114.02 1266.15,-114.02 1280.7,-114.02"/>
<polygon fill="#63b8ff" stroke="#63b8ff" points="1280.28,-117.52 1290.28,-114.02 1280.28,-110.52 1280.28,-117.52"/>
</a>
</g>
</g>
<!-- Node36 -->
<g id="Node000036" class="node">
<title>Node36</title>
<g id="a_Node000036"><a xlink:href="../../d8/d37/mem_8blk.html#a5666a1403bcf2bd8e114c23f8021d1ac" target="_top" xlink:title=" ">
<polygon fill="white" stroke="#666666" points="1094.12,-161.64 1018.12,-161.64 1018.12,-142.39 1094.12,-142.39 1094.12,-161.64"/>
<text text-anchor="middle" x="1056.12" y="-148.14" font-family="Helvetica,sans-Serif" font-size="10.00">__mp_imalloc</text>
</a>
</g>
</g>
<!-- Node35&#45;&gt;Node36 -->
<g id="edge42_Node000035_Node000036" class="edge">
<title>Node35&#45;&gt;Node36</title>
<g id="a_edge42_Node000035_Node000036"><a xlink:title=" ">
<path fill="none" stroke="#63b8ff" d="M957.07,-152.02C972.01,-152.02 990.08,-152.02 1006.61,-152.02"/>
<polygon fill="#63b8ff" stroke="#63b8ff" points="1006.25,-155.52 1016.25,-152.02 1006.25,-148.52 1006.25,-155.52"/>
</a>
</g>
</g>
<!-- Node35&#45;&gt;Node39 -->
<g id="edge46_Node000035_Node000039" class="edge">
<title>Node35&#45;&gt;Node39</title>
<g id="a_edge46_Node000035_Node000039"><a xlink:title=" ">
<path fill="none" stroke="#63b8ff" d="M950.32,-162.13C954.96,-164.44 959.63,-167.08 963.75,-170.02 994.64,-192.03 1023.83,-225.36 1040.58,-246.13"/>
<polygon fill="#63b8ff" stroke="#63b8ff" points="1037.67,-248.09 1046.62,-253.77 1043.16,-243.75 1037.67,-248.09"/>
</a>
</g>
</g>
<!-- Node36&#45;&gt;Node34 -->
<g id="edge43_Node000036_Node000034" class="edge">
<title>Node36&#45;&gt;Node34</title>
<g id="a_edge43_Node000036_Node000034"><a xlink:title=" ">
<path fill="none" stroke="#63b8ff" d="M1094.3,-142.03C1112.51,-137.14 1134.58,-131.22 1153.72,-126.08"/>
<polygon fill="#63b8ff" stroke="#63b8ff" points="1154.39,-129.52 1163.14,-123.55 1152.58,-122.76 1154.39,-129.52"/>
</a>
</g>
</g>
<!-- Node37 -->
<g id="Node000037" class="node">
<title>Node37</title>
<g id="a_Node000037"><a xlink:href="../../d9/d9a/mem_8h.html#af42ab5c21de0c723b2a55403e5441fda" target="_top" xlink:title=" ">
<polygon fill="white" stroke="#666666" points="1239.12,-198.64 1160.12,-198.64 1160.12,-179.39 1239.12,-179.39 1239.12,-198.64"/>
<text text-anchor="middle" x="1199.62" y="-185.14" font-family="Helvetica,sans-Serif" font-size="10.00">mem_bit_align</text>
</a>
</g>
</g>
<!-- Node36&#45;&gt;Node37 -->
<g id="edge44_Node000036_Node000037" class="edge">
<title>Node36&#45;&gt;Node37</title>
<g id="a_edge44_Node000036_Node000037"><a xlink:title=" ">
<path fill="none" stroke="#63b8ff" d="M1094.3,-161.74C1111.12,-166.14 1131.23,-171.39 1149.29,-176.12"/>
<polygon fill="#63b8ff" stroke="#63b8ff" points="1148.19,-179.45 1158.75,-178.59 1149.96,-172.67 1148.19,-179.45"/>
</a>
</g>
</g>
<!-- Node38 -->
<g id="Node000038" class="node">
<title>Node38</title>
<g id="a_Node000038"><a xlink:href="../../d8/d96/bithacks_8h.html#ab80588fa9f8b9e766249edaf70558bdc" target="_top" xlink:title=" ">
<polygon fill="white" stroke="#666666" points="1347,-198.64 1286.75,-198.64 1286.75,-179.39 1347,-179.39 1347,-198.64"/>
<text text-anchor="middle" x="1316.88" y="-185.14" font-family="Helvetica,sans-Serif" font-size="10.00">bitcountsz</text>
</a>
</g>
</g>
<!-- Node37&#45;&gt;Node38 -->
<g id="edge45_Node000037_Node000038" class="edge">
<title>Node37&#45;&gt;Node38</title>
<g id="a_edge45_Node000037_Node000038"><a xlink:title=" ">
<path fill="none" stroke="#63b8ff" d="M1239.32,-189.02C1250.9,-189.02 1263.62,-189.02 1275.31,-189.02"/>
<polygon fill="#63b8ff" stroke="#63b8ff" points="1275.06,-192.52 1285.06,-189.02 1275.06,-185.52 1275.06,-192.52"/>
</a>
</g>
</g>
<!-- Node40 -->
<g id="Node000040" class="node">
<title>Node40</title>
<g id="a_Node000040"><a xlink:href="../../d8/d37/mem_8blk.html#a377e36d6fbaf3ee7f1b217559cb0c850" target="_top" xlink:title=" ">
<polygon fill="white" stroke="#666666" points="1250.75,-274.64 1148.5,-274.64 1148.5,-255.39 1250.75,-255.39 1250.75,-274.64"/>
<text text-anchor="middle" x="1199.62" y="-261.14" font-family="Helvetica,sans-Serif" font-size="10.00">__imalloc_too_large</text>
</a>
</g>
</g>
<!-- Node39&#45;&gt;Node40 -->
<g id="edge47_Node000039_Node000040" class="edge">
<title>Node39&#45;&gt;Node40</title>
<g id="a_edge47_Node000039_Node000040"><a xlink:title=" ">
<path fill="none" stroke="#63b8ff" d="M1112.64,-265.02C1120.64,-265.02 1128.91,-265.02 1137.02,-265.02"/>
<polygon fill="#63b8ff" stroke="#63b8ff" points="1136.82,-268.52 1146.82,-265.02 1136.82,-261.52 1136.82,-268.52"/>
</a>
</g>
</g>
<!-- Node41&#45;&gt;Node39 -->
<g id="edge54_Node000041_Node000039" class="edge">
<title>Node41&#45;&gt;Node39</title>
<g id="a_edge54_Node000041_Node000039"><a xlink:title=" ">
<path fill="none" stroke="#63b8ff" d="M733.92,-181.1C769.38,-192.95 830.62,-212.8 884,-227.02 919.91,-236.58 960.49,-245.66 993.12,-252.55"/>
<polygon fill="#63b8ff" stroke="#63b8ff" points="992.33,-255.96 1002.83,-254.58 993.76,-249.11 992.33,-255.96"/>
</a>
</g>
</g>
<!-- Node42 -->
<g id="Node000042" class="node">
<title>Node42</title>
<g id="a_Node000042"><a xlink:href="../../d8/d37/mem_8blk.html#aa4f4b48947d5dfb44c0897f6024ba16e" target="_top" xlink:title=" ">
<polygon fill="white" stroke="#666666" points="848,-180.64 772,-180.64 772,-161.39 848,-161.39 848,-180.64"/>
<text text-anchor="middle" x="810" y="-167.14" font-family="Helvetica,sans-Serif" font-size="10.00">__mp_irealloc</text>
</a>
</g>
</g>
<!-- Node41&#45;&gt;Node42 -->
<g id="edge49_Node000041_Node000042" class="edge">
<title>Node41&#45;&gt;Node42</title>
<g id="a_edge49_Node000041_Node000042"><a xlink:title=" ">
<path fill="none" stroke="#63b8ff" d="M736.25,-171.02C743.85,-171.02 752.14,-171.02 760.31,-171.02"/>
<polygon fill="#63b8ff" stroke="#63b8ff" points="760.17,-174.52 770.17,-171.02 760.17,-167.52 760.17,-174.52"/>
</a>
</g>
</g>
<!-- Node42&#45;&gt;Node34 -->
<g id="edge50_Node000042_Node000034" class="edge">
<title>Node42&#45;&gt;Node34</title>
<g id="a_edge50_Node000042_Node000034"><a xlink:title=" ">
<path fill="none" stroke="#63b8ff" d="M825.61,-161.05C839.82,-151.94 862.38,-139 884,-133.02 976.9,-107.29 1090.91,-107.97 1153,-110.9"/>
<polygon fill="#63b8ff" stroke="#63b8ff" points="1152.66,-114.39 1162.83,-111.41 1153.02,-107.4 1152.66,-114.39"/>
</a>
</g>
</g>
<!-- Node42&#45;&gt;Node35 -->
<g id="edge53_Node000042_Node000035" class="edge">
<title>Node42&#45;&gt;Node35</title>
<g id="a_edge53_Node000042_Node000035"><a xlink:title=" ">
<path fill="none" stroke="#63b8ff" d="M848.25,-164.69C858.23,-163 869.1,-161.15 879.38,-159.4"/>
<polygon fill="#63b8ff" stroke="#63b8ff" points="879.89,-162.87 889.16,-157.74 878.72,-155.97 879.89,-162.87"/>
</a>
</g>
</g>
<!-- Node42&#45;&gt;Node37 -->
<g id="edge52_Node000042_Node000037" class="edge">
<title>Node42&#45;&gt;Node37</title>
<g id="a_edge52_Node000042_Node000037"><a xlink:title=" ">
<path fill="none" stroke="#63b8ff" d="M825.57,-181.01C839.76,-190.09 862.3,-202.83 884,-208.02 975.44,-229.87 1085.85,-213.83 1148.59,-200.92"/>
<polygon fill="#63b8ff" stroke="#63b8ff" points="1149.2,-204.37 1158.25,-198.87 1147.74,-197.52 1149.2,-204.37"/>
</a>
</g>
</g>
<!-- Node43 -->
<g id="Node000043" class="node">
<title>Node43</title>
<g id="a_Node000043"><a xlink:href="../../d9/d9a/mem_8h.html#a97bf9c8331ed73f6c120224fb5e9a8b6" target="_top" xlink:title=" ">
<polygon fill="white" stroke="#666666" points="963.75,-198.64 884,-198.64 884,-179.39 963.75,-179.39 963.75,-198.64"/>
<text text-anchor="middle" x="923.88" y="-185.14" font-family="Helvetica,sans-Serif" font-size="10.00">mem_align_ptr</text>
</a>
</g>
</g>
<!-- Node42&#45;&gt;Node43 -->
<g id="edge51_Node000042_Node000043" class="edge">
<title>Node42&#45;&gt;Node43</title>
<g id="a_edge51_Node000042_Node000043"><a xlink:title=" ">
<path fill="none" stroke="#63b8ff" d="M848.25,-177.01C856.03,-178.26 864.35,-179.6 872.51,-180.91"/>
<polygon fill="#63b8ff" stroke="#63b8ff" points="871.95,-184.37 882.37,-182.5 873.06,-177.46 871.95,-184.37"/>
</a>
</g>
</g>
</g>
</svg>
