<?xml version="1.0" encoding="UTF-8" standalone="no"?>
<!DOCTYPE svg PUBLIC "-//W3C//DTD SVG 1.1//EN"
 "http://www.w3.org/Graphics/SVG/1.1/DTD/svg11.dtd">
<!-- Generated by graphviz version 9.0.0 (20230911.1827)
 -->
<!-- Title: ber_decode_int16 Pages: 1 -->
<svg width="966pt" height="141pt"
 viewBox="0.00 0.00 966.00 141.07" xmlns="http://www.w3.org/2000/svg" xmlns:xlink="http://www.w3.org/1999/xlink">
<g id="graph0" class="graph" transform="scale(1 1) rotate(0) translate(4 137.07)">
<title>ber_decode_int16</title>
<!-- Node1 -->
<g id="Node000001" class="node">
<title>Node1</title>
<g id="a_Node000001"><a xlink:title=" ">
<polygon fill="#999999" stroke="#666666" points="958,-76.62 865.5,-76.62 865.5,-57.37 958,-57.37 958,-76.62"/>
<text text-anchor="middle" x="911.75" y="-63.12" font-family="Helvetica,sans-Serif" font-size="10.00">ber_decode_int16</text>
</a>
</g>
</g>
<!-- Node2 -->
<g id="Node000002" class="node">
<title>Node2</title>
<g id="a_Node000002"><a xlink:href="../../d6/d42/writer_8c.html#a6da296f594f1280e9156917ebba28b4d" target="_top" xlink:title=" ">
<polygon fill="white" stroke="#666666" points="829.5,-76.62 727.25,-76.62 727.25,-57.37 829.5,-57.37 829.5,-76.62"/>
<text text-anchor="middle" x="778.38" y="-63.12" font-family="Helvetica,sans-Serif" font-size="10.00">asn1_unpack_value</text>
</a>
</g>
</g>
<!-- Node1&#45;&gt;Node2 -->
<g id="edge1_Node000001_Node000002" class="edge">
<title>Node1&#45;&gt;Node2</title>
<g id="a_edge1_Node000001_Node000002"><a xlink:title=" ">
<path fill="none" stroke="#63b8ff" d="M853.7,-67C845.75,-67 837.63,-67 829.81,-67"/>
<polygon fill="#63b8ff" stroke="#63b8ff" points="853.66,-70.5 863.66,-67 853.66,-63.5 853.66,-70.5"/>
</a>
</g>
</g>
<!-- Node3 -->
<g id="Node000003" class="node">
<title>Node3</title>
<g id="a_Node000003"><a xlink:href="../../d6/d42/writer_8c.html#a331023de9463ad4d7902cdf3300418ab" target="_top" xlink:title=" ">
<polygon fill="white" stroke="#666666" points="508,-122.62 411.75,-122.62 411.75,-103.37 508,-103.37 508,-122.62"/>
<text text-anchor="middle" x="459.88" y="-109.12" font-family="Helvetica,sans-Serif" font-size="10.00">asn1_unpack_field</text>
</a>
</g>
</g>
<!-- Node2&#45;&gt;Node3 -->
<g id="edge2_Node000002_Node000003" class="edge">
<title>Node2&#45;&gt;Node3</title>
<g id="a_edge2_Node000002_Node000003"><a xlink:title=" ">
<path fill="none" stroke="#63b8ff" d="M757.77,-84.19C741.29,-97.41 716.45,-114.64 691.25,-122 629.01,-140.18 553.29,-131.74 506.07,-123.1"/>
<polygon fill="#63b8ff" stroke="#63b8ff" points="759.83,-87.02 765.28,-77.93 755.36,-81.64 759.83,-87.02"/>
</a>
</g>
</g>
<!-- Node8 -->
<g id="Node000008" class="node">
<title>Node8</title>
<g id="a_Node000008"><a xlink:href="../../d6/d42/writer_8c.html#a4e255b03ffc64ea6eeaf9567187084bc" target="_top" xlink:title=" ">
<polygon fill="white" stroke="#666666" points="677.38,-113.25 569.12,-113.25 569.12,-82.75 677.38,-82.75 677.38,-113.25"/>
<text text-anchor="start" x="577.12" y="-99.75" font-family="Helvetica,sans-Serif" font-size="10.00">asn1_unpack_seq_of</text>
<text text-anchor="middle" x="623.25" y="-88.5" font-family="Helvetica,sans-Serif" font-size="10.00">_u_choice</text>
</a>
</g>
</g>
<!-- Node2&#45;&gt;Node8 -->
<g id="edge9_Node000002_Node000008" class="edge">
<title>Node2&#45;&gt;Node8</title>
<g id="a_edge9_Node000002_Node000008"><a xlink:title=" ">
<path fill="none" stroke="#63b8ff" d="M716.56,-79.31C703.71,-81.91 690.23,-84.64 677.68,-87.18"/>
<polygon fill="#63b8ff" stroke="#63b8ff" points="717.07,-82.78 726.18,-77.36 715.68,-75.92 717.07,-82.78"/>
</a>
</g>
</g>
<!-- Node10 -->
<g id="Node000010" class="node">
<title>Node10</title>
<g id="a_Node000010"><a xlink:href="../../d6/d42/writer_8c.html#abfd307b07b11e4c30802d1290ba1be25" target="_top" xlink:title=" ">
<polygon fill="white" stroke="#666666" points="691.25,-46.62 555.25,-46.62 555.25,-27.37 691.25,-27.37 691.25,-46.62"/>
<text text-anchor="middle" x="623.25" y="-33.12" font-family="Helvetica,sans-Serif" font-size="10.00">asn1_unpack_u_choice_val</text>
</a>
</g>
</g>
<!-- Node2&#45;&gt;Node10 -->
<g id="edge12_Node000002_Node000010" class="edge">
<title>Node2&#45;&gt;Node10</title>
<g id="a_edge12_Node000002_Node000010"><a xlink:title=" ">
<path fill="none" stroke="#63b8ff" d="M715.84,-54.94C702.56,-52.34 688.66,-49.62 675.81,-47.1"/>
<polygon fill="#63b8ff" stroke="#63b8ff" points="714.84,-58.31 725.33,-56.8 716.19,-51.44 714.84,-58.31"/>
</a>
</g>
</g>
<!-- Node4 -->
<g id="Node000004" class="node">
<title>Node4</title>
<g id="a_Node000004"><a xlink:href="../../d6/d42/writer_8c.html#a2a4d04f44bb1e6520b812a9a4cb855e7" target="_top" xlink:title=" ">
<polygon fill="white" stroke="#666666" points="357.75,-120.62 250.25,-120.62 250.25,-101.37 357.75,-101.37 357.75,-120.62"/>
<text text-anchor="middle" x="304" y="-107.12" font-family="Helvetica,sans-Serif" font-size="10.00">asn1_unpack_choice</text>
</a>
</g>
</g>
<!-- Node3&#45;&gt;Node4 -->
<g id="edge3_Node000003_Node000004" class="edge">
<title>Node3&#45;&gt;Node4</title>
<g id="a_edge3_Node000003_Node000004"><a xlink:title=" ">
<path fill="none" stroke="#63b8ff" d="M400.11,-112.23C386.32,-112.06 371.7,-111.87 358.17,-111.69"/>
<polygon fill="#63b8ff" stroke="#63b8ff" points="399.89,-115.73 409.94,-112.36 399.98,-108.73 399.89,-115.73"/>
</a>
</g>
</g>
<!-- Node7 -->
<g id="Node000007" class="node">
<title>Node7</title>
<g id="a_Node000007"><a xlink:href="../../d6/d42/writer_8c.html#a202971cefcb81bce243bb9ddf7e50f73" target="_top" xlink:title=" ">
<polygon fill="white" stroke="#666666" points="364.5,-80.62 243.5,-80.62 243.5,-61.37 364.5,-61.37 364.5,-80.62"/>
<text text-anchor="middle" x="304" y="-67.12" font-family="Helvetica,sans-Serif" font-size="10.00">asn1_unpack_sequence</text>
</a>
</g>
</g>
<!-- Node3&#45;&gt;Node7 -->
<g id="edge7_Node000003_Node000007" class="edge">
<title>Node3&#45;&gt;Node7</title>
<g id="a_edge7_Node000003_Node000007"><a xlink:title=" ">
<path fill="none" stroke="#63b8ff" d="M411.12,-99.96C388.88,-93.89 362.82,-86.78 342.09,-81.12"/>
<polygon fill="#63b8ff" stroke="#63b8ff" points="409.99,-103.28 420.56,-102.54 411.83,-96.53 409.99,-103.28"/>
</a>
</g>
</g>
<!-- Node5 -->
<g id="Node000005" class="node">
<title>Node5</title>
<g id="a_Node000005"><a xlink:href="../../d6/d42/writer_8c.html#a7163773c50921438f6663a9e83930d73" target="_top" xlink:title=" ">
<polygon fill="white" stroke="#666666" points="207.5,-80.62 115,-80.62 115,-61.37 207.5,-61.37 207.5,-80.62"/>
<text text-anchor="middle" x="161.25" y="-67.12" font-family="Helvetica,sans-Serif" font-size="10.00">asn1_unpack_rec</text>
</a>
</g>
</g>
<!-- Node4&#45;&gt;Node5 -->
<g id="edge4_Node000004_Node000005" class="edge">
<title>Node4&#45;&gt;Node5</title>
<g id="a_edge4_Node000004_Node000005"><a xlink:title=" ">
<path fill="none" stroke="#63b8ff" d="M256.57,-97.8C237.42,-92.36 215.59,-86.16 197.76,-81.09"/>
<polygon fill="#63b8ff" stroke="#63b8ff" points="255.45,-101.12 266.03,-100.49 257.36,-94.39 255.45,-101.12"/>
</a>
</g>
</g>
<!-- Node5&#45;&gt;Node2 -->
<g id="edge6_Node000005_Node000002" class="edge">
<title>Node5&#45;&gt;Node2</title>
<g id="a_edge6_Node000005_Node000002"><a xlink:title=" ">
<path fill="none" stroke="#63b8ff" d="M202.21,-57.5C291.48,-29.38 513.26,29.09 691.25,-18 719.85,-25.57 748.9,-45.08 764.88,-57.08"/>
<polygon fill="#63b8ff" stroke="#63b8ff" points="201.39,-54.08 192.94,-60.47 203.53,-60.75 201.39,-54.08"/>
</a>
</g>
</g>
<!-- Node6 -->
<g id="Node000006" class="node">
<title>Node6</title>
<g id="a_Node000006"><a xlink:href="../../d6/d42/writer_8c.html#a5760e7b97aed25cfbc59243584efd6f5" target="_top" xlink:title="Unpack a given payload following an asn1 description.">
<polygon fill="white" stroke="#666666" points="79,-80.62 0,-80.62 0,-61.37 79,-61.37 79,-80.62"/>
<text text-anchor="middle" x="39.5" y="-67.12" font-family="Helvetica,sans-Serif" font-size="10.00">asn1_unpack_</text>
</a>
</g>
</g>
<!-- Node5&#45;&gt;Node6 -->
<g id="edge5_Node000005_Node000006" class="edge">
<title>Node5&#45;&gt;Node6</title>
<g id="a_edge5_Node000005_Node000006"><a xlink:title=" ">
<path fill="none" stroke="#63b8ff" d="M103.29,-71C95.18,-71 87,-71 79.35,-71"/>
<polygon fill="#63b8ff" stroke="#63b8ff" points="103.12,-74.5 113.12,-71 103.12,-67.5 103.12,-74.5"/>
</a>
</g>
</g>
<!-- Node7&#45;&gt;Node5 -->
<g id="edge8_Node000007_Node000005" class="edge">
<title>Node7&#45;&gt;Node5</title>
<g id="a_edge8_Node000007_Node000005"><a xlink:title=" ">
<path fill="none" stroke="#63b8ff" d="M231.85,-71C223.72,-71 215.61,-71 207.94,-71"/>
<polygon fill="#63b8ff" stroke="#63b8ff" points="231.8,-74.5 241.8,-71 231.8,-67.5 231.8,-74.5"/>
</a>
</g>
</g>
<!-- Node9 -->
<g id="Node000009" class="node">
<title>Node9</title>
<g id="a_Node000009"><a xlink:href="../../d6/d42/writer_8c.html#a44290d4db5917ffd539efd3e4bbfeffc" target="_top" xlink:title=" ">
<polygon fill="white" stroke="#666666" points="519.25,-85.25 400.5,-85.25 400.5,-54.75 519.25,-54.75 519.25,-85.25"/>
<text text-anchor="start" x="408.5" y="-71.75" font-family="Helvetica,sans-Serif" font-size="10.00">asn1_unpack_untagged</text>
<text text-anchor="middle" x="459.88" y="-60.5" font-family="Helvetica,sans-Serif" font-size="10.00">_choice</text>
</a>
</g>
</g>
<!-- Node8&#45;&gt;Node9 -->
<g id="edge10_Node000008_Node000009" class="edge">
<title>Node8&#45;&gt;Node9</title>
<g id="a_edge10_Node000008_Node000009"><a xlink:title=" ">
<path fill="none" stroke="#63b8ff" d="M557.63,-86.79C545.09,-84.61 532.01,-82.34 519.67,-80.2"/>
<polygon fill="#63b8ff" stroke="#63b8ff" points="557.02,-90.23 567.47,-88.49 558.22,-83.34 557.02,-90.23"/>
</a>
</g>
</g>
<!-- Node9&#45;&gt;Node7 -->
<g id="edge11_Node000009_Node000007" class="edge">
<title>Node9&#45;&gt;Node7</title>
<g id="a_edge11_Node000009_Node000007"><a xlink:title=" ">
<path fill="none" stroke="#63b8ff" d="M389.02,-70.45C380.99,-70.5 372.86,-70.56 364.98,-70.61"/>
<polygon fill="#63b8ff" stroke="#63b8ff" points="388.77,-73.95 398.75,-70.39 388.73,-66.95 388.77,-73.95"/>
</a>
</g>
</g>
<!-- Node10&#45;&gt;Node9 -->
<g id="edge14_Node000010_Node000009" class="edge">
<title>Node10&#45;&gt;Node9</title>
<g id="a_edge14_Node000010_Node000009"><a xlink:title=" ">
<path fill="none" stroke="#63b8ff" d="M562.02,-49.31C548.12,-52.16 533.35,-55.18 519.51,-58.01"/>
<polygon fill="#63b8ff" stroke="#63b8ff" points="562.38,-52.81 571.47,-47.38 560.97,-45.96 562.38,-52.81"/>
</a>
</g>
</g>
<!-- Node10&#45;&gt;Node10 -->
<g id="edge13_Node000010_Node000010" class="edge">
<title>Node10&#45;&gt;Node10</title>
<g id="a_edge13_Node000010_Node000010"><a xlink:title=" ">
<path fill="none" stroke="#63b8ff" d="M651.07,-57.69C647.86,-61.74 638.59,-64.62 623.25,-64.62 595.98,-64.62 587.89,-55.52 598.96,-46.91"/>
<polygon fill="#63b8ff" stroke="#63b8ff" points="654.45,-56.76 648.01,-48.35 647.79,-58.94 654.45,-56.76"/>
</a>
</g>
</g>
</g>
</svg>
