<?xml version="1.0" encoding="UTF-8" standalone="no"?>
<!DOCTYPE svg PUBLIC "-//W3C//DTD SVG 1.1//EN"
 "http://www.w3.org/Graphics/SVG/1.1/DTD/svg11.dtd">
<!-- Generated by graphviz version 9.0.0 (20230911.1827)
 -->
<!-- Title: iopsq_type_table_fill_type Pages: 1 -->
<svg width="545pt" height="119pt"
 viewBox="0.00 0.00 545.25 119.25" xmlns="http://www.w3.org/2000/svg" xmlns:xlink="http://www.w3.org/1999/xlink">
<g id="graph0" class="graph" transform="scale(1 1) rotate(0) translate(4 115.25)">
<title>iopsq_type_table_fill_type</title>
<!-- Node1 -->
<g id="Node000001" class="node">
<title>Node1</title>
<g id="a_Node000001"><a xlink:title="Build an iopsq.Type instance from an &#39;iop_full_type_t&#39;.">
<polygon fill="#999999" stroke="#666666" points="126.25,-74.25 0,-74.25 0,-55 126.25,-55 126.25,-74.25"/>
<text text-anchor="middle" x="63.12" y="-60.75" font-family="Helvetica,sans-Serif" font-size="10.00">iopsq_type_table_fill_type</text>
</a>
</g>
</g>
<!-- Node2 -->
<g id="Node000002" class="node">
<title>Node2</title>
<g id="a_Node000002"><a xlink:href="../../db/d6e/iopc-iopsq_8c.html#a4d0dcf7022ee812d436eb925951ee564" target="_top" xlink:title="Fill an iopsq type from an iop_full_type_t.">
<polygon fill="white" stroke="#666666" points="239,-74.25 162.25,-74.25 162.25,-55 239,-55 239,-74.25"/>
<text text-anchor="middle" x="200.62" y="-60.75" font-family="Helvetica,sans-Serif" font-size="10.00">iopsq_fill_type</text>
</a>
</g>
</g>
<!-- Node1&#45;&gt;Node2 -->
<g id="edge1_Node000001_Node000002" class="edge">
<title>Node1&#45;&gt;Node2</title>
<g id="a_edge1_Node000001_Node000002"><a xlink:title=" ">
<path fill="none" stroke="#63b8ff" d="M126.72,-64.62C134.73,-64.62 142.84,-64.62 150.59,-64.62"/>
<polygon fill="#63b8ff" stroke="#63b8ff" points="150.52,-68.13 160.52,-64.63 150.52,-61.13 150.52,-68.13"/>
</a>
</g>
</g>
<!-- Node3 -->
<g id="Node000003" class="node">
<title>Node3</title>
<g id="a_Node000003"><a xlink:href="../../d0/d2d/iop_8blk.html#a4d49da8790a8a7c37cebb0db721dbb7c" target="_top" xlink:title="Get an union/struct/class/enum from its fullname.">
<polygon fill="white" stroke="#666666" points="355.88,-111.25 290.38,-111.25 290.38,-92 355.88,-92 355.88,-111.25"/>
<text text-anchor="middle" x="323.12" y="-97.75" font-family="Helvetica,sans-Serif" font-size="10.00">iop_get_obj</text>
</a>
</g>
</g>
<!-- Node2&#45;&gt;Node3 -->
<g id="edge2_Node000002_Node000003" class="edge">
<title>Node2&#45;&gt;Node3</title>
<g id="a_edge2_Node000002_Node000003"><a xlink:title=" ">
<path fill="none" stroke="#63b8ff" d="M234.55,-74.74C248.32,-78.96 264.51,-83.93 279.2,-88.44"/>
<polygon fill="#63b8ff" stroke="#63b8ff" points="278.04,-91.75 288.62,-91.34 280.09,-85.06 278.04,-91.75"/>
</a>
</g>
</g>
<!-- Node5 -->
<g id="Node000005" class="node">
<title>Node5</title>
<g id="a_Node000005"><a xlink:href="../../d0/d2d/iop_8blk.html#af138a610122e2e92f0bad6e5c05432bd" target="_top" xlink:title="Return whether the IOP type is scalar or not.">
<polygon fill="white" stroke="#666666" points="371.25,-74.25 275,-74.25 275,-55 371.25,-55 371.25,-74.25"/>
<text text-anchor="middle" x="323.12" y="-60.75" font-family="Helvetica,sans-Serif" font-size="10.00">iop_type_is_scalar</text>
</a>
</g>
</g>
<!-- Node2&#45;&gt;Node5 -->
<g id="edge4_Node000002_Node000005" class="edge">
<title>Node2&#45;&gt;Node5</title>
<g id="a_edge4_Node000002_Node000005"><a xlink:title=" ">
<path fill="none" stroke="#63b8ff" d="M239.42,-64.62C247.02,-64.62 255.18,-64.62 263.3,-64.62"/>
<polygon fill="#63b8ff" stroke="#63b8ff" points="263.18,-68.13 273.18,-64.63 263.18,-61.13 263.18,-68.13"/>
</a>
</g>
</g>
<!-- Node6 -->
<g id="Node000006" class="node">
<title>Node6</title>
<g id="a_Node000006"><a xlink:href="../../db/d6e/iopc-iopsq_8c.html#a33fbaca083ba8048f6874dd2702d7d2a" target="_top" xlink:title="Fill an IOP² type from an iop_type_t.">
<polygon fill="white" stroke="#666666" points="364.88,-37.25 281.38,-37.25 281.38,-18 364.88,-18 364.88,-37.25"/>
<text text-anchor="middle" x="323.12" y="-23.75" font-family="Helvetica,sans-Serif" font-size="10.00">iop_type_to_iop</text>
</a>
</g>
</g>
<!-- Node2&#45;&gt;Node6 -->
<g id="edge5_Node000002_Node000006" class="edge">
<title>Node2&#45;&gt;Node6</title>
<g id="a_edge5_Node000002_Node000006"><a xlink:title=" ">
<path fill="none" stroke="#63b8ff" d="M234.55,-54.51C248.1,-50.35 263.99,-45.48 278.49,-41.02"/>
<polygon fill="#63b8ff" stroke="#63b8ff" points="279.26,-44.45 287.79,-38.17 277.2,-37.76 279.26,-44.45"/>
</a>
</g>
</g>
<!-- Node4 -->
<g id="Node000004" class="node">
<title>Node4</title>
<g id="a_Node000004"><a xlink:href="../../d0/d2d/iop_8blk.html#a771bd23922ebaa381094a49ca4c1c7b1" target="_top" xlink:title=" ">
<polygon fill="white" stroke="#666666" points="515.5,-111.25 429,-111.25 429,-92 515.5,-92 515.5,-111.25"/>
<text text-anchor="middle" x="472.25" y="-97.75" font-family="Helvetica,sans-Serif" font-size="10.00">iop_get_obj_env</text>
</a>
</g>
</g>
<!-- Node3&#45;&gt;Node4 -->
<g id="edge3_Node000003_Node000004" class="edge">
<title>Node3&#45;&gt;Node4</title>
<g id="a_edge3_Node000003_Node000004"><a xlink:title=" ">
<path fill="none" stroke="#63b8ff" d="M356.05,-101.62C373.94,-101.62 396.72,-101.62 417.29,-101.62"/>
<polygon fill="#63b8ff" stroke="#63b8ff" points="417.26,-105.13 427.26,-101.63 417.26,-98.13 417.26,-105.13"/>
</a>
</g>
</g>
<!-- Node7 -->
<g id="Node000007" class="node">
<title>Node7</title>
<g id="a_Node000007"><a xlink:href="../../d5/d85/iop_2priv_8h.html#a1d55c91fb65bfbfdc1d7f8669eeb98df" target="_top" xlink:title=" ">
<polygon fill="white" stroke="#666666" points="529.38,-56.25 415.12,-56.25 415.12,-37 529.38,-37 529.38,-56.25"/>
<text text-anchor="middle" x="472.25" y="-42.75" font-family="Helvetica,sans-Serif" font-size="10.00">iop_int_type_is_signed</text>
</a>
</g>
</g>
<!-- Node6&#45;&gt;Node7 -->
<g id="edge6_Node000006_Node000007" class="edge">
<title>Node6&#45;&gt;Node7</title>
<g id="a_edge6_Node000006_Node000007"><a xlink:title=" ">
<path fill="none" stroke="#63b8ff" d="M365.11,-32.92C377.01,-34.45 390.34,-36.18 403.42,-37.87"/>
<polygon fill="#63b8ff" stroke="#63b8ff" points="402.95,-41.33 413.32,-39.14 403.85,-34.39 402.95,-41.33"/>
</a>
</g>
</g>
<!-- Node8 -->
<g id="Node000008" class="node">
<title>Node8</title>
<g id="a_Node000008"><a xlink:href="../../dd/d89/iopc-iopsq_8h.html#a1c12808fe56c05bf2a3257245155ed4f" target="_top" xlink:title=" ">
<polygon fill="white" stroke="#666666" points="537.25,-19.25 407.25,-19.25 407.25,0 537.25,0 537.25,-19.25"/>
<text text-anchor="middle" x="472.25" y="-5.75" font-family="Helvetica,sans-Serif" font-size="10.00">iopsq_int_type_to_int_size</text>
</a>
</g>
</g>
<!-- Node6&#45;&gt;Node8 -->
<g id="edge7_Node000006_Node000008" class="edge">
<title>Node6&#45;&gt;Node8</title>
<g id="a_edge7_Node000006_Node000008"><a xlink:title=" ">
<path fill="none" stroke="#63b8ff" d="M365.11,-22.61C374.6,-21.45 385,-20.18 395.45,-18.9"/>
<polygon fill="#63b8ff" stroke="#63b8ff" points="395.78,-22.38 405.28,-17.7 394.93,-15.44 395.78,-22.38"/>
</a>
</g>
</g>
</g>
</svg>
