<?xml version="1.0" encoding="UTF-8" standalone="no"?>
<!DOCTYPE svg PUBLIC "-//W3C//DTD SVG 1.1//EN"
 "http://www.w3.org/Graphics/SVG/1.1/DTD/svg11.dtd">
<!-- Generated by graphviz version 9.0.0 (20230911.1827)
 -->
<!-- Title: iopc_apply_typedef Pages: 1 -->
<svg width="2367pt" height="398pt"
 viewBox="0.00 0.00 2366.50 398.25" xmlns="http://www.w3.org/2000/svg" xmlns:xlink="http://www.w3.org/1999/xlink">
<g id="graph0" class="graph" transform="scale(1 1) rotate(0) translate(4 394.25)">
<title>iopc_apply_typedef</title>
<!-- Node1 -->
<g id="Node000001" class="node">
<title>Node1</title>
<g id="a_Node000001"><a xlink:title=" ">
<polygon fill="#999999" stroke="#666666" points="98.5,-314.25 0,-314.25 0,-295 98.5,-295 98.5,-314.25"/>
<text text-anchor="middle" x="49.25" y="-300.75" font-family="Helvetica,sans-Serif" font-size="10.00">iopc_apply_typedef</text>
</a>
</g>
</g>
<!-- Node2 -->
<g id="Node000002" class="node">
<title>Node2</title>
<g id="a_Node000002"><a xlink:href="../../dd/dfc/iopc-parser_8c.html#a178d6aa42183378bd03f1ac9262c6847" target="_top" xlink:title=" ">
<polygon fill="white" stroke="#666666" points="268.25,-352.25 134.5,-352.25 134.5,-333 268.25,-333 268.25,-352.25"/>
<text text-anchor="middle" x="201.38" y="-338.75" font-family="Helvetica,sans-Serif" font-size="10.00">iopc_check_field_attributes</text>
</a>
</g>
</g>
<!-- Node1&#45;&gt;Node2 -->
<g id="edge1_Node000001_Node000002" class="edge">
<title>Node1&#45;&gt;Node2</title>
<g id="a_edge1_Node000001_Node000002"><a xlink:title=" ">
<path fill="none" stroke="#63b8ff" d="M90.09,-314.71C108.31,-319.32 130.12,-324.84 149.52,-329.75"/>
<polygon fill="#63b8ff" stroke="#63b8ff" points="148.59,-333.13 159.15,-332.19 150.31,-326.34 148.59,-333.13"/>
</a>
</g>
</g>
<!-- Node5 -->
<g id="Node000005" class="node">
<title>Node5</title>
<g id="a_Node000005"><a xlink:href="../../dd/dfc/iopc-parser_8c.html#a4ac4c33aa6b29382b9cda925df27ae27" target="_top" xlink:title=" ">
<polygon fill="white" stroke="#666666" points="249.88,-314.25 152.88,-314.25 152.88,-295 249.88,-295 249.88,-314.25"/>
<text text-anchor="middle" x="201.38" y="-300.75" font-family="Helvetica,sans-Serif" font-size="10.00">iopc_field_add_attr</text>
</a>
</g>
</g>
<!-- Node1&#45;&gt;Node5 -->
<g id="edge4_Node000001_Node000005" class="edge">
<title>Node1&#45;&gt;Node5</title>
<g id="a_edge4_Node000001_Node000005"><a xlink:title=" ">
<path fill="none" stroke="#63b8ff" d="M98.99,-304.62C112.37,-304.62 127.02,-304.62 140.93,-304.62"/>
<polygon fill="#63b8ff" stroke="#63b8ff" points="140.88,-308.13 150.88,-304.63 140.88,-301.13 140.88,-308.13"/>
</a>
</g>
</g>
<!-- Node47 -->
<g id="Node000047" class="node">
<title>Node47</title>
<g id="a_Node000047"><a xlink:href="../../d2/d5f/iopc-typer_8blk.html#afedfb1f5ab2192340384aad280fde590" target="_top" xlink:title=" ">
<polygon fill="white" stroke="#666666" points="257,-277.25 145.75,-277.25 145.75,-258 257,-258 257,-277.25"/>
<text text-anchor="middle" x="201.38" y="-263.75" font-family="Helvetica,sans-Serif" font-size="10.00">iopc_field_is_resolved</text>
</a>
</g>
</g>
<!-- Node1&#45;&gt;Node47 -->
<g id="edge54_Node000001_Node000047" class="edge">
<title>Node1&#45;&gt;Node47</title>
<g id="a_edge54_Node000001_Node000047"><a xlink:title=" ">
<path fill="none" stroke="#63b8ff" d="M91.27,-294.51C108.9,-290.17 129.7,-285.04 148.39,-280.44"/>
<polygon fill="#63b8ff" stroke="#63b8ff" points="149.06,-283.88 157.93,-278.09 147.39,-277.08 149.06,-283.88"/>
</a>
</g>
</g>
<!-- Node3 -->
<g id="Node000003" class="node">
<title>Node3</title>
<g id="a_Node000003"><a xlink:href="../../d8/d6c/core_2str_8h.html#a92b107f7a7bb4e0fb29239f766a3e328" target="_top" xlink:title=" ">
<polygon fill="white" stroke="#666666" points="383.25,-390.25 332.75,-390.25 332.75,-371 383.25,-371 383.25,-390.25"/>
<text text-anchor="middle" x="358" y="-376.75" font-family="Helvetica,sans-Serif" font-size="10.00">strequal</text>
</a>
</g>
</g>
<!-- Node2&#45;&gt;Node3 -->
<g id="edge2_Node000002_Node000003" class="edge">
<title>Node2&#45;&gt;Node3</title>
<g id="a_edge2_Node000002_Node000003"><a xlink:title=" ">
<path fill="none" stroke="#63b8ff" d="M243.41,-352.71C267.74,-358.69 298.29,-366.2 321.57,-371.92"/>
<polygon fill="#63b8ff" stroke="#63b8ff" points="320.67,-375.3 331.22,-374.29 322.34,-368.5 320.67,-375.3"/>
</a>
</g>
</g>
<!-- Node4 -->
<g id="Node000004" class="node">
<title>Node4</title>
<g id="a_Node000004"><a xlink:href="../../dd/dfc/iopc-parser_8c.html#a1e1dd8f29426028f3a4977bebf04781c" target="_top" xlink:title=" ">
<polygon fill="white" stroke="#666666" points="516.62,-343.25 452.62,-343.25 452.62,-324 516.62,-324 516.62,-343.25"/>
<text text-anchor="middle" x="484.62" y="-329.75" font-family="Helvetica,sans-Serif" font-size="10.00">type_to_str</text>
</a>
</g>
</g>
<!-- Node2&#45;&gt;Node4 -->
<g id="edge3_Node000002_Node000004" class="edge">
<title>Node2&#45;&gt;Node4</title>
<g id="a_edge3_Node000002_Node000004"><a xlink:title=" ">
<path fill="none" stroke="#63b8ff" d="M268.67,-340.5C322.01,-338.8 395.36,-336.45 441.11,-334.99"/>
<polygon fill="#63b8ff" stroke="#63b8ff" points="441,-338.49 450.88,-334.67 440.77,-331.49 441,-338.49"/>
</a>
</g>
</g>
<!-- Node6 -->
<g id="Node000006" class="node">
<title>Node6</title>
<g id="a_Node000006"><a xlink:href="../../dd/dfc/iopc-parser_8c.html#a3c28292263cf6927a7f96be13de22aca" target="_top" xlink:title=" ">
<polygon fill="white" stroke="#666666" points="411.75,-314.25 304.25,-314.25 304.25,-295 411.75,-295 411.75,-314.25"/>
<text text-anchor="middle" x="358" y="-300.75" font-family="Helvetica,sans-Serif" font-size="10.00">check_attr_type_field</text>
</a>
</g>
</g>
<!-- Node5&#45;&gt;Node6 -->
<g id="edge5_Node000005_Node000006" class="edge">
<title>Node5&#45;&gt;Node6</title>
<g id="a_edge5_Node000005_Node000006"><a xlink:title=" ">
<path fill="none" stroke="#63b8ff" d="M250.03,-304.62C263.47,-304.62 278.33,-304.62 292.58,-304.62"/>
<polygon fill="#63b8ff" stroke="#63b8ff" points="292.33,-308.13 302.33,-304.63 292.33,-301.13 292.33,-308.13"/>
</a>
</g>
</g>
<!-- Node7 -->
<g id="Node000007" class="node">
<title>Node7</title>
<g id="a_Node000007"><a xlink:href="../../dd/dfc/iopc-parser_8c.html#a89756e623925a604eb31c85c55dcaff2" target="_top" xlink:title=" ">
<polygon fill="white" stroke="#666666" points="395.25,-277.25 320.75,-277.25 320.75,-258 395.25,-258 395.25,-277.25"/>
<text text-anchor="middle" x="358" y="-263.75" font-family="Helvetica,sans-Serif" font-size="10.00">iopc_add_attr</text>
</a>
</g>
</g>
<!-- Node5&#45;&gt;Node7 -->
<g id="edge7_Node000005_Node000007" class="edge">
<title>Node5&#45;&gt;Node7</title>
<g id="a_edge7_Node000005_Node000007"><a xlink:title=" ">
<path fill="none" stroke="#63b8ff" d="M244.63,-294.51C264.62,-289.73 288.58,-284 309.23,-279.06"/>
<polygon fill="#63b8ff" stroke="#63b8ff" points="309.94,-282.49 318.85,-276.75 308.31,-275.68 309.94,-282.49"/>
</a>
</g>
</g>
<!-- Node6&#45;&gt;Node4 -->
<g id="edge6_Node000006_Node000004" class="edge">
<title>Node6&#45;&gt;Node4</title>
<g id="a_edge6_Node000006_Node000004"><a xlink:title=" ">
<path fill="none" stroke="#63b8ff" d="M402.24,-314.69C414.83,-317.62 428.58,-320.82 441.13,-323.74"/>
<polygon fill="#63b8ff" stroke="#63b8ff" points="440.24,-327.12 450.77,-325.98 441.83,-320.31 440.24,-327.12"/>
</a>
</g>
</g>
<!-- Node8 -->
<g id="Node000008" class="node">
<title>Node8</title>
<g id="a_Node000008"><a xlink:href="../../dd/dfc/iopc-parser_8c.html#a7889031a30dd630c81c0b941ce60a02a" target="_top" xlink:title=" ">
<polygon fill="white" stroke="#666666" points="645.5,-302.25 557.5,-302.25 557.5,-283 645.5,-283 645.5,-302.25"/>
<text text-anchor="middle" x="601.5" y="-288.75" font-family="Helvetica,sans-Serif" font-size="10.00">check_attr_multi</text>
</a>
</g>
</g>
<!-- Node7&#45;&gt;Node8 -->
<g id="edge8_Node000007_Node000008" class="edge">
<title>Node7&#45;&gt;Node8</title>
<g id="a_edge8_Node000007_Node000008"><a xlink:title=" ">
<path fill="none" stroke="#63b8ff" d="M395.68,-271.42C435.7,-275.56 500.18,-282.24 546.1,-286.99"/>
<polygon fill="#63b8ff" stroke="#63b8ff" points="545.53,-290.45 555.84,-288 546.25,-283.49 545.53,-290.45"/>
</a>
</g>
</g>
<!-- Node10 -->
<g id="Node000010" class="node">
<title>Node10</title>
<g id="a_Node000010"><a xlink:href="../../d0/dc5/iopc_8h.html#a1c93d5cc7ed978b5e5ac563739dd6dc6" target="_top" xlink:title=" ">
<polygon fill="white" stroke="#666666" points="521.5,-207.25 447.75,-207.25 447.75,-188 521.5,-188 521.5,-207.25"/>
<text text-anchor="middle" x="484.62" y="-193.75" font-family="Helvetica,sans-Serif" font-size="10.00">iopc_arg_dup</text>
</a>
</g>
</g>
<!-- Node7&#45;&gt;Node10 -->
<g id="edge10_Node000007_Node000010" class="edge">
<title>Node7&#45;&gt;Node10</title>
<g id="a_edge10_Node000007_Node000010"><a xlink:title=" ">
<path fill="none" stroke="#63b8ff" d="M376.86,-257.6C397.49,-246 431.71,-226.79 455.83,-213.24"/>
<polygon fill="#63b8ff" stroke="#63b8ff" points="457.48,-216.33 464.48,-208.38 454.05,-210.22 457.48,-216.33"/>
</a>
</g>
</g>
<!-- Node9 -->
<g id="Node000009" class="node">
<title>Node9</title>
<g id="a_Node000009"><a xlink:href="../../df/d0a/str-l_8h.html#a963c22b229774d4b7c106bae4011cb8e" target="_top" xlink:title="Returns whether \v s1 and \v s2 contents are equal.">
<polygon fill="white" stroke="#666666" points="1718.75,-320.25 1660.75,-320.25 1660.75,-301 1718.75,-301 1718.75,-320.25"/>
<text text-anchor="middle" x="1689.75" y="-306.75" font-family="Helvetica,sans-Serif" font-size="10.00">lstr_equal</text>
</a>
</g>
</g>
<!-- Node8&#45;&gt;Node9 -->
<g id="edge9_Node000008_Node000009" class="edge">
<title>Node8&#45;&gt;Node9</title>
<g id="a_edge9_Node000008_Node000009"><a xlink:title=" ">
<path fill="none" stroke="#63b8ff" d="M645.67,-295.22C688.26,-297.56 755.22,-300.62 813.25,-300.62 813.25,-300.62 813.25,-300.62 1407.5,-300.62 1493.76,-300.62 1594.8,-305.38 1649.22,-308.33"/>
<polygon fill="#63b8ff" stroke="#63b8ff" points="1648.73,-311.81 1658.91,-308.87 1649.11,-304.82 1648.73,-311.81"/>
</a>
</g>
</g>
<!-- Node11 -->
<g id="Node000011" class="node">
<title>Node11</title>
<g id="a_Node000011"><a xlink:href="../../df/d0a/str-l_8h.html#a3d960ba9eadec31df885e309483d732a" target="_top" xlink:title="returns new libc allocated lstr from its arguments.">
<polygon fill="white" stroke="#666666" points="626.75,-124.25 576.25,-124.25 576.25,-105 626.75,-105 626.75,-124.25"/>
<text text-anchor="middle" x="601.5" y="-110.75" font-family="Helvetica,sans-Serif" font-size="10.00">lstr_dup</text>
</a>
</g>
</g>
<!-- Node10&#45;&gt;Node11 -->
<g id="edge11_Node000010_Node000011" class="edge">
<title>Node10&#45;&gt;Node11</title>
<g id="a_edge11_Node000010_Node000011"><a xlink:title=" ">
<path fill="none" stroke="#63b8ff" d="M499.25,-187.78C518.49,-173.88 553.88,-148.31 577.31,-131.38"/>
<polygon fill="#63b8ff" stroke="#63b8ff" points="579.25,-134.3 585.3,-125.6 575.15,-128.62 579.25,-134.3"/>
</a>
</g>
</g>
<!-- Node12 -->
<g id="Node000012" class="node">
<title>Node12</title>
<g id="a_Node000012"><a xlink:href="../../de/d04/str-l_8c.html#a721e56afb064f7233eda0184065df9bb" target="_top" xlink:title="Returns new mp allocated lstr from its arguments.">
<polygon fill="white" stroke="#666666" points="750.75,-103.25 681.5,-103.25 681.5,-84 750.75,-84 750.75,-103.25"/>
<text text-anchor="middle" x="716.12" y="-89.75" font-family="Helvetica,sans-Serif" font-size="10.00">mp_lstr_dup</text>
</a>
</g>
</g>
<!-- Node11&#45;&gt;Node12 -->
<g id="edge12_Node000011_Node000012" class="edge">
<title>Node11&#45;&gt;Node12</title>
<g id="a_edge12_Node000011_Node000012"><a xlink:title=" ">
<path fill="none" stroke="#63b8ff" d="M627.22,-110.02C639.81,-107.67 655.51,-104.74 670.15,-102.01"/>
<polygon fill="#63b8ff" stroke="#63b8ff" points="670.39,-105.53 679.58,-100.25 669.11,-98.64 670.39,-105.53"/>
</a>
</g>
</g>
<!-- Node13 -->
<g id="Node000013" class="node">
<title>Node13</title>
<g id="a_Node000013"><a xlink:href="../../d9/d9a/mem_8h.html#afb82bc4c2f614b07ba2987edb2fb12a2" target="_top" xlink:title=" ">
<polygon fill="white" stroke="#666666" points="841.75,-103.25 786.75,-103.25 786.75,-84 841.75,-84 841.75,-103.25"/>
<text text-anchor="middle" x="814.25" y="-89.75" font-family="Helvetica,sans-Serif" font-size="10.00">mp_dupz</text>
</a>
</g>
</g>
<!-- Node12&#45;&gt;Node13 -->
<g id="edge13_Node000012_Node000013" class="edge">
<title>Node12&#45;&gt;Node13</title>
<g id="a_edge13_Node000012_Node000013"><a xlink:title=" ">
<path fill="none" stroke="#63b8ff" d="M751.02,-93.62C758.79,-93.62 767.1,-93.62 775.04,-93.62"/>
<polygon fill="#63b8ff" stroke="#63b8ff" points="774.79,-97.13 784.79,-93.63 774.79,-90.13 774.79,-97.13"/>
</a>
</g>
</g>
<!-- Node46 -->
<g id="Node000046" class="node">
<title>Node46</title>
<g id="a_Node000046"><a xlink:href="../../df/d0a/str-l_8h.html#afaa32126aa321a4b319e39433d0e7f26" target="_top" xlink:title=" ">
<polygon fill="white" stroke="#666666" points="1983.25,-19.25 1917,-19.25 1917,0 1983.25,0 1983.25,-19.25"/>
<text text-anchor="middle" x="1950.12" y="-5.75" font-family="Helvetica,sans-Serif" font-size="10.00">mp_lstr_init</text>
</a>
</g>
</g>
<!-- Node12&#45;&gt;Node46 -->
<g id="edge52_Node000012_Node000046" class="edge">
<title>Node12&#45;&gt;Node46</title>
<g id="a_edge52_Node000012_Node000046"><a xlink:title=" ">
<path fill="none" stroke="#63b8ff" d="M729.8,-83.66C759.43,-61.41 836.25,-9.62 909.5,-9.62 909.5,-9.62 909.5,-9.62 1690.75,-9.62 1766.28,-9.62 1854.23,-9.62 1905.59,-9.62"/>
<polygon fill="#63b8ff" stroke="#63b8ff" points="1905.39,-13.13 1915.39,-9.63 1905.39,-6.13 1905.39,-13.13"/>
</a>
</g>
</g>
<!-- Node14 -->
<g id="Node000014" class="node">
<title>Node14</title>
<g id="a_Node000014"><a xlink:href="../../d9/d9a/mem_8h.html#af52b7a33884b452f86de916d8109b8f1" target="_top" xlink:title=" ">
<polygon fill="white" stroke="#666666" points="939.12,-132.25 881.88,-132.25 881.88,-113 939.12,-113 939.12,-132.25"/>
<text text-anchor="middle" x="910.5" y="-118.75" font-family="Helvetica,sans-Serif" font-size="10.00">memcpyz</text>
</a>
</g>
</g>
<!-- Node13&#45;&gt;Node14 -->
<g id="edge14_Node000013_Node000014" class="edge">
<title>Node13&#45;&gt;Node14</title>
<g id="a_edge14_Node000013_Node000014"><a xlink:title=" ">
<path fill="none" stroke="#63b8ff" d="M842.01,-101.86C850.92,-104.6 861.05,-107.72 870.69,-110.68"/>
<polygon fill="#63b8ff" stroke="#63b8ff" points="869.66,-114.03 880.25,-113.62 871.72,-107.34 869.66,-114.03"/>
</a>
</g>
</g>
<!-- Node16 -->
<g id="Node000016" class="node">
<title>Node16</title>
<g id="a_Node000016"><a xlink:href="../../d9/d9a/mem_8h.html#ada6bb9661f0c10ccaa14d231c24aeafd" target="_top" xlink:title=" ">
<polygon fill="white" stroke="#666666" points="943.25,-95.25 877.75,-95.25 877.75,-76 943.25,-76 943.25,-95.25"/>
<text text-anchor="middle" x="910.5" y="-81.75" font-family="Helvetica,sans-Serif" font-size="10.00">mp_imalloc</text>
</a>
</g>
</g>
<!-- Node13&#45;&gt;Node16 -->
<g id="edge16_Node000013_Node000016" class="edge">
<title>Node13&#45;&gt;Node16</title>
<g id="a_edge16_Node000013_Node000016"><a xlink:title=" ">
<path fill="none" stroke="#63b8ff" d="M842.01,-91.35C849.48,-90.72 857.8,-90.01 865.97,-89.32"/>
<polygon fill="#63b8ff" stroke="#63b8ff" points="866.15,-92.82 875.82,-88.48 865.56,-85.84 866.15,-92.82"/>
</a>
</g>
</g>
<!-- Node15 -->
<g id="Node000015" class="node">
<title>Node15</title>
<g id="a_Node000015"><a xlink:href="../../d9/d9a/mem_8h.html#af3794c657c3ffd55b9771dcaeec60c02" target="_top" xlink:title=" ">
<polygon fill="white" stroke="#666666" points="1064.62,-132.25 1006.62,-132.25 1006.62,-113 1064.62,-113 1064.62,-132.25"/>
<text text-anchor="middle" x="1035.62" y="-118.75" font-family="Helvetica,sans-Serif" font-size="10.00">mempcpy</text>
</a>
</g>
</g>
<!-- Node14&#45;&gt;Node15 -->
<g id="edge15_Node000014_Node000015" class="edge">
<title>Node14&#45;&gt;Node15</title>
<g id="a_edge15_Node000014_Node000015"><a xlink:title=" ">
<path fill="none" stroke="#63b8ff" d="M939.44,-122.62C955.85,-122.62 976.86,-122.62 994.97,-122.62"/>
<polygon fill="#63b8ff" stroke="#63b8ff" points="994.86,-126.13 1004.86,-122.63 994.86,-119.13 994.86,-126.13"/>
</a>
</g>
</g>
<!-- Node17 -->
<g id="Node000017" class="node">
<title>Node17</title>
<g id="a_Node000017"><a xlink:href="../../d8/d37/mem_8blk.html#a5666a1403bcf2bd8e114c23f8021d1ac" target="_top" xlink:title=" ">
<polygon fill="white" stroke="#666666" points="1073.62,-95.25 997.62,-95.25 997.62,-76 1073.62,-76 1073.62,-95.25"/>
<text text-anchor="middle" x="1035.62" y="-81.75" font-family="Helvetica,sans-Serif" font-size="10.00">__mp_imalloc</text>
</a>
</g>
</g>
<!-- Node16&#45;&gt;Node17 -->
<g id="edge17_Node000016_Node000017" class="edge">
<title>Node16&#45;&gt;Node17</title>
<g id="a_edge17_Node000016_Node000017"><a xlink:title=" ">
<path fill="none" stroke="#63b8ff" d="M943.53,-85.62C956.57,-85.62 971.93,-85.62 986.29,-85.62"/>
<polygon fill="#63b8ff" stroke="#63b8ff" points="986.01,-89.13 996.01,-85.63 986.01,-82.13 986.01,-89.13"/>
</a>
</g>
</g>
<!-- Node44 -->
<g id="Node000044" class="node">
<title>Node44</title>
<g id="a_Node000044"><a xlink:href="../../d9/d9a/mem_8h.html#ae99e17ad0b27e94e8a00c8af9734a0e7" target="_top" xlink:title=" ">
<polygon fill="white" stroke="#666666" points="1092,-58.25 979.25,-58.25 979.25,-39 1092,-39 1092,-58.25"/>
<text text-anchor="middle" x="1035.62" y="-44.75" font-family="Helvetica,sans-Serif" font-size="10.00">icheck_alloc_constant</text>
</a>
</g>
</g>
<!-- Node16&#45;&gt;Node44 -->
<g id="edge50_Node000016_Node000044" class="edge">
<title>Node16&#45;&gt;Node44</title>
<g id="a_edge50_Node000016_Node000044"><a xlink:title=" ">
<path fill="none" stroke="#63b8ff" d="M943.53,-76C957.75,-71.73 974.72,-66.63 990.14,-61.99"/>
<polygon fill="#63b8ff" stroke="#63b8ff" points="991.02,-65.38 999.59,-59.15 989,-58.68 991.02,-65.38"/>
</a>
</g>
</g>
<!-- Node18 -->
<g id="Node000018" class="node">
<title>Node18</title>
<g id="a_Node000018"><a xlink:href="../../d8/d37/mem_8blk.html#a8e4fbf6500e65079c31e3fd933ae7dc1" target="_top" xlink:title=" ">
<polygon fill="white" stroke="#666666" points="1214.12,-132.25 1144.12,-132.25 1144.12,-113 1214.12,-113 1214.12,-132.25"/>
<text text-anchor="middle" x="1179.12" y="-118.75" font-family="Helvetica,sans-Serif" font-size="10.00">icheck_alloc</text>
</a>
</g>
</g>
<!-- Node17&#45;&gt;Node18 -->
<g id="edge18_Node000017_Node000018" class="edge">
<title>Node17&#45;&gt;Node18</title>
<g id="a_edge18_Node000017_Node000018"><a xlink:title=" ">
<path fill="none" stroke="#63b8ff" d="M1073.8,-95.35C1092.01,-100.11 1114.08,-105.88 1133.22,-110.88"/>
<polygon fill="#63b8ff" stroke="#63b8ff" points="1132.08,-114.2 1142.64,-113.35 1133.85,-107.43 1132.08,-114.2"/>
</a>
</g>
</g>
<!-- Node42 -->
<g id="Node000042" class="node">
<title>Node42</title>
<g id="a_Node000042"><a xlink:href="../../d9/d9a/mem_8h.html#af42ab5c21de0c723b2a55403e5441fda" target="_top" xlink:title=" ">
<polygon fill="white" stroke="#666666" points="1218.62,-95.25 1139.62,-95.25 1139.62,-76 1218.62,-76 1218.62,-95.25"/>
<text text-anchor="middle" x="1179.12" y="-81.75" font-family="Helvetica,sans-Serif" font-size="10.00">mem_bit_align</text>
</a>
</g>
</g>
<!-- Node17&#45;&gt;Node42 -->
<g id="edge48_Node000017_Node000042" class="edge">
<title>Node17&#45;&gt;Node42</title>
<g id="a_edge48_Node000017_Node000042"><a xlink:title=" ">
<path fill="none" stroke="#63b8ff" d="M1073.8,-85.62C1090.33,-85.62 1110.03,-85.62 1127.84,-85.62"/>
<polygon fill="#63b8ff" stroke="#63b8ff" points="1127.71,-89.13 1137.71,-85.63 1127.71,-82.13 1127.71,-89.13"/>
</a>
</g>
</g>
<!-- Node19 -->
<g id="Node000019" class="node">
<title>Node19</title>
<g id="a_Node000019"><a xlink:href="../../d7/df8/log_8c.html#abca342edf91a9b45f7a17ef564fa8a53" target="_top" xlink:title=" ">
<polygon fill="white" stroke="#666666" points="1321.25,-132.25 1271.5,-132.25 1271.5,-113 1321.25,-113 1321.25,-132.25"/>
<text text-anchor="middle" x="1296.38" y="-118.75" font-family="Helvetica,sans-Serif" font-size="10.00">e_panic</text>
</a>
</g>
</g>
<!-- Node18&#45;&gt;Node19 -->
<g id="edge19_Node000018_Node000019" class="edge">
<title>Node18&#45;&gt;Node19</title>
<g id="a_edge19_Node000018_Node000019"><a xlink:title=" ">
<path fill="none" stroke="#63b8ff" d="M1214.39,-122.62C1228.84,-122.62 1245.65,-122.62 1260.2,-122.62"/>
<polygon fill="#63b8ff" stroke="#63b8ff" points="1259.78,-126.13 1269.78,-122.63 1259.78,-119.13 1259.78,-126.13"/>
</a>
</g>
</g>
<!-- Node20 -->
<g id="Node000020" class="node">
<title>Node20</title>
<g id="a_Node000020"><a xlink:href="../../d7/df8/log_8c.html#a4bc04f7baa1e064cb0b93c7b9f3a61a1" target="_top" xlink:title=" ">
<polygon fill="white" stroke="#666666" points="1450.5,-189.25 1362.5,-189.25 1362.5,-170 1450.5,-170 1450.5,-189.25"/>
<text text-anchor="middle" x="1406.5" y="-175.75" font-family="Helvetica,sans-Serif" font-size="10.00">__logger_refresh</text>
</a>
</g>
</g>
<!-- Node19&#45;&gt;Node20 -->
<g id="edge20_Node000019_Node000020" class="edge">
<title>Node19&#45;&gt;Node20</title>
<g id="a_edge20_Node000019_Node000020"><a xlink:title=" ">
<path fill="none" stroke="#63b8ff" d="M1316.46,-132.68C1333.13,-141.48 1357.59,-154.37 1376.66,-164.42"/>
<polygon fill="#63b8ff" stroke="#63b8ff" points="1374.79,-167.39 1385.27,-168.96 1378.06,-161.2 1374.79,-167.39"/>
</a>
</g>
</g>
<!-- Node37 -->
<g id="Node000037" class="node">
<title>Node37</title>
<g id="a_Node000037"><a xlink:href="../../d7/df8/log_8c.html#a900490b26df7698aac12f7f7e6517e81" target="_top" xlink:title=" ">
<polygon fill="white" stroke="#666666" points="1439.25,-133.25 1373.75,-133.25 1373.75,-114 1439.25,-114 1439.25,-133.25"/>
<text text-anchor="middle" x="1406.5" y="-119.75" font-family="Helvetica,sans-Serif" font-size="10.00">logger_vlog</text>
</a>
</g>
</g>
<!-- Node19&#45;&gt;Node37 -->
<g id="edge42_Node000019_Node000037" class="edge">
<title>Node19&#45;&gt;Node37</title>
<g id="a_edge42_Node000019_Node000037"><a xlink:title=" ">
<path fill="none" stroke="#63b8ff" d="M1321.64,-122.85C1333.61,-122.96 1348.41,-123.1 1362.22,-123.22"/>
<polygon fill="#63b8ff" stroke="#63b8ff" points="1361.97,-126.72 1372,-123.32 1362.04,-119.72 1361.97,-126.72"/>
</a>
</g>
</g>
<!-- Node41 -->
<g id="Node000041" class="node">
<title>Node41</title>
<g id="a_Node000041"><a xlink:href="../../d2/d4d/file_8h.html#a25419a391fdd4ad7954699c58cfeb3b9" target="_top" xlink:title=" ">
<polygon fill="white" stroke="#666666" points="1432.12,-96.25 1380.88,-96.25 1380.88,-77 1432.12,-77 1432.12,-96.25"/>
<text text-anchor="middle" x="1406.5" y="-82.75" font-family="Helvetica,sans-Serif" font-size="10.00">va_start</text>
</a>
</g>
</g>
<!-- Node19&#45;&gt;Node41 -->
<g id="edge47_Node000019_Node000041" class="edge">
<title>Node19&#45;&gt;Node41</title>
<g id="a_edge47_Node000019_Node000041"><a xlink:title=" ">
<path fill="none" stroke="#63b8ff" d="M1321.64,-114.55C1335.91,-109.8 1354.2,-103.71 1370.06,-98.43"/>
<polygon fill="#63b8ff" stroke="#63b8ff" points="1370.75,-101.88 1379.13,-95.4 1368.54,-95.24 1370.75,-101.88"/>
</a>
</g>
</g>
<!-- Node21 -->
<g id="Node000021" class="node">
<title>Node21</title>
<g id="a_Node000021"><a xlink:href="../../d7/df8/log_8c.html#a3dbd75fb614210f0b114cfd03c9c0a7b" target="_top" xlink:title=" ">
<polygon fill="white" stroke="#666666" points="1590.25,-245.25 1486.5,-245.25 1486.5,-226 1590.25,-226 1590.25,-245.25"/>
<text text-anchor="middle" x="1538.38" y="-231.75" font-family="Helvetica,sans-Serif" font-size="10.00">__logger_do_refresh</text>
</a>
</g>
</g>
<!-- Node20&#45;&gt;Node21 -->
<g id="edge21_Node000020_Node000021" class="edge">
<title>Node20&#45;&gt;Node21</title>
<g id="a_edge21_Node000020_Node000021"><a xlink:title=" ">
<path fill="none" stroke="#63b8ff" d="M1426.71,-189.59C1442.55,-197.62 1465.7,-208.97 1486.5,-217.62 1489.83,-219.01 1493.31,-220.39 1496.82,-221.72"/>
<polygon fill="#63b8ff" stroke="#63b8ff" points="1495.3,-224.89 1505.89,-225.07 1497.72,-218.33 1495.3,-224.89"/>
</a>
</g>
</g>
<!-- Node35 -->
<g id="Node000035" class="node">
<title>Node35</title>
<g id="a_Node000035"><a xlink:href="../../d7/df8/log_8c.html#a7b1b02d1986e1247c2f571af4a2c2854" target="_top" xlink:title=" ">
<polygon fill="white" stroke="#666666" points="1576,-208.25 1500.75,-208.25 1500.75,-189 1576,-189 1576,-208.25"/>
<text text-anchor="middle" x="1538.38" y="-194.75" font-family="Helvetica,sans-Serif" font-size="10.00">log_spin_lock</text>
</a>
</g>
</g>
<!-- Node20&#45;&gt;Node35 -->
<g id="edge40_Node000020_Node000035" class="edge">
<title>Node20&#45;&gt;Node35</title>
<g id="a_edge40_Node000020_Node000035"><a xlink:title=" ">
<path fill="none" stroke="#63b8ff" d="M1450.75,-185.95C1463.06,-187.75 1476.55,-189.73 1489.15,-191.57"/>
<polygon fill="#63b8ff" stroke="#63b8ff" points="1488.5,-195.01 1498.9,-193 1489.51,-188.09 1488.5,-195.01"/>
</a>
</g>
</g>
<!-- Node36 -->
<g id="Node000036" class="node">
<title>Node36</title>
<g id="a_Node000036"><a xlink:href="../../d1/dc0/group__log.html#ga045020bb4af234632f7761f220131c69" target="_top" xlink:title=" ">
<polygon fill="white" stroke="#666666" points="1581.25,-171.25 1495.5,-171.25 1495.5,-152 1581.25,-152 1581.25,-171.25"/>
<text text-anchor="middle" x="1538.38" y="-157.75" font-family="Helvetica,sans-Serif" font-size="10.00">log_spin_unlock</text>
</a>
</g>
</g>
<!-- Node20&#45;&gt;Node36 -->
<g id="edge41_Node000020_Node000036" class="edge">
<title>Node20&#45;&gt;Node36</title>
<g id="a_edge41_Node000020_Node000036"><a xlink:title=" ">
<path fill="none" stroke="#63b8ff" d="M1450.75,-173.63C1461.37,-172.16 1472.87,-170.56 1483.91,-169.03"/>
<polygon fill="#63b8ff" stroke="#63b8ff" points="1484.28,-172.52 1493.7,-167.68 1483.31,-165.58 1484.28,-172.52"/>
</a>
</g>
</g>
<!-- Node21&#45;&gt;Node9 -->
<g id="edge38_Node000021_Node000009" class="edge">
<title>Node21&#45;&gt;Node9</title>
<g id="a_edge38_Node000021_Node000009"><a xlink:title=" ">
<path fill="none" stroke="#63b8ff" d="M1551.91,-245.61C1568.19,-258.15 1597.89,-279.6 1626.25,-292.62 1633.57,-295.99 1641.67,-298.88 1649.54,-301.29"/>
<polygon fill="#63b8ff" stroke="#63b8ff" points="1648.38,-304.6 1658.96,-303.98 1650.3,-297.87 1648.38,-304.6"/>
</a>
</g>
</g>
<!-- Node21&#45;&gt;Node21 -->
<g id="edge22_Node000021_Node000021" class="edge">
<title>Node21&#45;&gt;Node21</title>
<g id="a_edge22_Node000021_Node000021"><a xlink:title=" ">
<path fill="none" stroke="#63b8ff" d="M1517.73,-245.54C1508.31,-254.15 1515.19,-263.25 1538.38,-263.25 1551.05,-263.25 1558.85,-260.53 1561.78,-256.65"/>
<polygon fill="#63b8ff" stroke="#63b8ff" points="1565.19,-255.87 1559.39,-247.01 1558.4,-257.56 1565.19,-255.87"/>
</a>
</g>
</g>
<!-- Node22 -->
<g id="Node000022" class="node">
<title>Node22</title>
<g id="a_Node000022"><a xlink:href="../../de/d1a/container-dlist_8h.html#a3b6f65860b212e28f2e28e71eb54d54d" target="_top" xlink:title="Add element e at the head of list l (suited for LIFO).">
<polygon fill="white" stroke="#666666" points="1717.25,-283.25 1662.25,-283.25 1662.25,-264 1717.25,-264 1717.25,-283.25"/>
<text text-anchor="middle" x="1689.75" y="-269.75" font-family="Helvetica,sans-Serif" font-size="10.00">dlist_add</text>
</a>
</g>
</g>
<!-- Node21&#45;&gt;Node22 -->
<g id="edge23_Node000021_Node000022" class="edge">
<title>Node21&#45;&gt;Node22</title>
<g id="a_edge23_Node000021_Node000022"><a xlink:title=" ">
<path fill="none" stroke="#63b8ff" d="M1579.01,-245.71C1601.39,-251.4 1629.19,-258.47 1651.21,-264.08"/>
<polygon fill="#63b8ff" stroke="#63b8ff" points="1650.12,-267.41 1660.67,-266.48 1651.85,-260.63 1650.12,-267.41"/>
</a>
</g>
</g>
<!-- Node24 -->
<g id="Node000024" class="node">
<title>Node24</title>
<g id="a_Node000024"><a xlink:href="../../de/d1a/container-dlist_8h.html#a0a69e401f6ec15966c891e96ad864c77" target="_top" xlink:title="Put a dlist_t element in a safe and detached state.">
<polygon fill="white" stroke="#666666" points="1715.75,-246.25 1663.75,-246.25 1663.75,-227 1715.75,-227 1715.75,-246.25"/>
<text text-anchor="middle" x="1689.75" y="-232.75" font-family="Helvetica,sans-Serif" font-size="10.00">dlist_init</text>
</a>
</g>
</g>
<!-- Node21&#45;&gt;Node24 -->
<g id="edge25_Node000021_Node000024" class="edge">
<title>Node21&#45;&gt;Node24</title>
<g id="a_edge25_Node000021_Node000024"><a xlink:title=" ">
<path fill="none" stroke="#63b8ff" d="M1590.36,-235.97C1610.7,-236.1 1633.66,-236.26 1652.28,-236.38"/>
<polygon fill="#63b8ff" stroke="#63b8ff" points="1652,-239.88 1662.02,-236.45 1652.04,-232.88 1652,-239.88"/>
</a>
</g>
</g>
<!-- Node25 -->
<g id="Node000025" class="node">
<title>Node25</title>
<g id="a_Node000025"><a xlink:href="../../d7/df8/log_8c.html#a4c8fbe8648573312126ce341cf34cba1" target="_top" xlink:title=" ">
<polygon fill="white" stroke="#666666" points="1753.25,-209.25 1626.25,-209.25 1626.25,-190 1753.25,-190 1753.25,-209.25"/>
<text text-anchor="middle" x="1689.75" y="-195.75" font-family="Helvetica,sans-Serif" font-size="10.00">logger_compute_fullname</text>
</a>
</g>
</g>
<!-- Node21&#45;&gt;Node25 -->
<g id="edge26_Node000021_Node000025" class="edge">
<title>Node21&#45;&gt;Node25</title>
<g id="a_edge26_Node000021_Node000025"><a xlink:title=" ">
<path fill="none" stroke="#63b8ff" d="M1581.38,-225.5C1598.24,-221.44 1617.86,-216.71 1635.69,-212.41"/>
<polygon fill="#63b8ff" stroke="#63b8ff" points="1636.43,-215.84 1645.33,-210.09 1634.79,-209.03 1636.43,-215.84"/>
</a>
</g>
</g>
<!-- Node28 -->
<g id="Node000028" class="node">
<title>Node28</title>
<g id="a_Node000028"><a xlink:href="../../df/d0a/str-l_8h.html#ad74dae07179370f3c22e3f026157926e" target="_top" xlink:title="wipe a lstr_t (frees memory if needed).">
<polygon fill="white" stroke="#666666" points="1860.75,-168.25 1805.75,-168.25 1805.75,-149 1860.75,-149 1860.75,-168.25"/>
<text text-anchor="middle" x="1833.25" y="-154.75" font-family="Helvetica,sans-Serif" font-size="10.00">lstr_wipe</text>
</a>
</g>
</g>
<!-- Node21&#45;&gt;Node28 -->
<g id="edge39_Node000021_Node000028" class="edge">
<title>Node21&#45;&gt;Node28</title>
<g id="a_edge39_Node000021_Node000028"><a xlink:title=" ">
<path fill="none" stroke="#63b8ff" d="M1574.58,-225.57C1580.03,-223.34 1585.44,-220.71 1590.25,-217.62 1609.57,-205.25 1605.62,-190.66 1626.25,-180.62 1680.06,-154.45 1750.92,-153 1793.96,-155.2"/>
<polygon fill="#63b8ff" stroke="#63b8ff" points="1793.61,-158.69 1803.81,-155.81 1794.04,-151.7 1793.61,-158.69"/>
</a>
</g>
</g>
<!-- Node23 -->
<g id="Node000023" class="node">
<title>Node23</title>
<g id="a_Node000023"><a xlink:href="../../de/d1a/container-dlist_8h.html#a71e7667ca0e4b896923788c5851afd24" target="_top" xlink:title="Put element e between prev and next.">
<polygon fill="white" stroke="#666666" points="1866,-283.25 1800.5,-283.25 1800.5,-264 1866,-264 1866,-283.25"/>
<text text-anchor="middle" x="1833.25" y="-269.75" font-family="Helvetica,sans-Serif" font-size="10.00">__dlist_add</text>
</a>
</g>
</g>
<!-- Node22&#45;&gt;Node23 -->
<g id="edge24_Node000022_Node000023" class="edge">
<title>Node22&#45;&gt;Node23</title>
<g id="a_edge24_Node000022_Node000023"><a xlink:title=" ">
<path fill="none" stroke="#63b8ff" d="M1717.7,-273.62C1737.8,-273.62 1765.67,-273.62 1788.89,-273.62"/>
<polygon fill="#63b8ff" stroke="#63b8ff" points="1788.69,-277.13 1798.69,-273.63 1788.69,-270.13 1788.69,-277.13"/>
</a>
</g>
</g>
<!-- Node26 -->
<g id="Node000026" class="node">
<title>Node26</title>
<g id="a_Node000026"><a xlink:href="../../df/d0a/str-l_8h.html#a6a200ca09358f19b13a8e297cda34869" target="_top" xlink:title="returns a constant copy of \v s.">
<polygon fill="white" stroke="#666666" points="1861.12,-205.25 1805.38,-205.25 1805.38,-186 1861.12,-186 1861.12,-205.25"/>
<text text-anchor="middle" x="1833.25" y="-191.75" font-family="Helvetica,sans-Serif" font-size="10.00">lstr_dupc</text>
</a>
</g>
</g>
<!-- Node25&#45;&gt;Node26 -->
<g id="edge27_Node000025_Node000026" class="edge">
<title>Node25&#45;&gt;Node26</title>
<g id="a_edge27_Node000025_Node000026"><a xlink:title=" ">
<path fill="none" stroke="#63b8ff" d="M1753.64,-197.85C1767.29,-197.46 1781.33,-197.06 1793.7,-196.71"/>
<polygon fill="#63b8ff" stroke="#63b8ff" points="1793.58,-200.22 1803.47,-196.44 1793.38,-193.22 1793.58,-200.22"/>
</a>
</g>
</g>
<!-- Node25&#45;&gt;Node28 -->
<g id="edge29_Node000025_Node000028" class="edge">
<title>Node25&#45;&gt;Node28</title>
<g id="a_edge29_Node000025_Node000028"><a xlink:title=" ">
<path fill="none" stroke="#63b8ff" d="M1725.36,-189.6C1746.31,-183.53 1773.03,-175.78 1794.51,-169.56"/>
<polygon fill="#63b8ff" stroke="#63b8ff" points="1795.44,-172.93 1804.07,-166.79 1793.49,-166.21 1795.44,-172.93"/>
</a>
</g>
</g>
<!-- Node27 -->
<g id="Node000027" class="node">
<title>Node27</title>
<g id="a_Node000027"><a xlink:href="../../df/d0a/str-l_8h.html#a3b4dbe9c4cc70340cba0787574dc1c5e" target="_top" xlink:title=" ">
<polygon fill="white" stroke="#666666" points="2190.75,-138.25 2138,-138.25 2138,-119 2190.75,-119 2190.75,-138.25"/>
<text text-anchor="middle" x="2164.38" y="-124.75" font-family="Helvetica,sans-Serif" font-size="10.00">lstr_init_</text>
</a>
</g>
</g>
<!-- Node26&#45;&gt;Node27 -->
<g id="edge28_Node000026_Node000027" class="edge">
<title>Node26&#45;&gt;Node27</title>
<g id="a_edge28_Node000026_Node000027"><a xlink:title=" ">
<path fill="none" stroke="#63b8ff" d="M1861.46,-191.88C1910.11,-184.92 2015.05,-168.79 2102,-147.62 2110.03,-145.67 2118.55,-143.26 2126.61,-140.81"/>
<polygon fill="#63b8ff" stroke="#63b8ff" points="2127.64,-144.15 2136.15,-137.83 2125.56,-137.47 2127.64,-144.15"/>
</a>
</g>
</g>
<!-- Node29 -->
<g id="Node000029" class="node">
<title>Node29</title>
<g id="a_Node000029"><a xlink:href="../../df/d0a/str-l_8h.html#a381cd831ac9616c5bea8213bb679d1ac" target="_top" xlink:title="Wipe a lstr_t (frees memory if needed).">
<polygon fill="white" stroke="#666666" points="1987,-139.25 1913.25,-139.25 1913.25,-120 1987,-120 1987,-139.25"/>
<text text-anchor="middle" x="1950.12" y="-125.75" font-family="Helvetica,sans-Serif" font-size="10.00">mp_lstr_wipe</text>
</a>
</g>
</g>
<!-- Node28&#45;&gt;Node29 -->
<g id="edge30_Node000028_Node000029" class="edge">
<title>Node28&#45;&gt;Node29</title>
<g id="a_edge30_Node000028_Node000029"><a xlink:title=" ">
<path fill="none" stroke="#63b8ff" d="M1861.18,-151.83C1873.32,-148.76 1888.02,-145.05 1901.9,-141.55"/>
<polygon fill="#63b8ff" stroke="#63b8ff" points="1902.49,-145.01 1911.33,-139.17 1900.77,-138.22 1902.49,-145.01"/>
</a>
</g>
</g>
<!-- Node30 -->
<g id="Node000030" class="node">
<title>Node30</title>
<g id="a_Node000030"><a xlink:href="../../de/d04/str-l_8c.html#abe2a3a71f0b4dbc7d37c59d16762b6fb" target="_top" xlink:title="lstr_copy_* helper.">
<polygon fill="white" stroke="#666666" points="2102,-138.25 2023,-138.25 2023,-119 2102,-119 2102,-138.25"/>
<text text-anchor="middle" x="2062.5" y="-124.75" font-family="Helvetica,sans-Serif" font-size="10.00">mp_lstr_copy_</text>
</a>
</g>
</g>
<!-- Node29&#45;&gt;Node30 -->
<g id="edge31_Node000029_Node000030" class="edge">
<title>Node29&#45;&gt;Node30</title>
<g id="a_edge31_Node000029_Node000030"><a xlink:title=" ">
<path fill="none" stroke="#63b8ff" d="M1987.27,-129.3C1994.96,-129.23 2003.21,-129.15 2011.32,-129.08"/>
<polygon fill="#63b8ff" stroke="#63b8ff" points="2011.13,-132.58 2021.1,-128.99 2011.07,-125.58 2011.13,-132.58"/>
</a>
</g>
</g>
<!-- Node30&#45;&gt;Node27 -->
<g id="edge37_Node000030_Node000027" class="edge">
<title>Node30&#45;&gt;Node27</title>
<g id="a_edge37_Node000030_Node000027"><a xlink:title=" ">
<path fill="none" stroke="#63b8ff" d="M2102.4,-128.62C2110.26,-128.62 2118.5,-128.62 2126.29,-128.62"/>
<polygon fill="#63b8ff" stroke="#63b8ff" points="2126.15,-132.13 2136.15,-128.63 2126.15,-125.13 2126.15,-132.13"/>
</a>
</g>
</g>
<!-- Node31 -->
<g id="Node000031" class="node">
<title>Node31</title>
<g id="a_Node000031"><a xlink:href="../../d9/d9a/mem_8h.html#aebbbd277e2952bdb802104671ba23ba9" target="_top" xlink:title=" ">
<polygon fill="white" stroke="#666666" points="2181.75,-100.25 2147,-100.25 2147,-81 2181.75,-81 2181.75,-100.25"/>
<text text-anchor="middle" x="2164.38" y="-86.75" font-family="Helvetica,sans-Serif" font-size="10.00">ifree</text>
</a>
</g>
</g>
<!-- Node30&#45;&gt;Node31 -->
<g id="edge32_Node000030_Node000031" class="edge">
<title>Node30&#45;&gt;Node31</title>
<g id="a_edge32_Node000030_Node000031"><a xlink:title=" ">
<path fill="none" stroke="#63b8ff" d="M2090,-118.54C2104.23,-113.13 2121.74,-106.47 2136.08,-101.01"/>
<polygon fill="#63b8ff" stroke="#63b8ff" points="2137.27,-104.3 2145.37,-97.47 2134.78,-97.76 2137.27,-104.3"/>
</a>
</g>
</g>
<!-- Node32 -->
<g id="Node000032" class="node">
<title>Node32</title>
<g id="a_Node000032"><a xlink:href="../../d8/d37/mem_8blk.html#a36b65ab346f1d0deed7b63c544c78f2b" target="_top" xlink:title=" ">
<polygon fill="white" stroke="#666666" points="2271.62,-58.25 2235.38,-58.25 2235.38,-39 2271.62,-39 2271.62,-58.25"/>
<text text-anchor="middle" x="2253.5" y="-44.75" font-family="Helvetica,sans-Serif" font-size="10.00">ipool</text>
</a>
</g>
</g>
<!-- Node31&#45;&gt;Node32 -->
<g id="edge33_Node000031_Node000032" class="edge">
<title>Node31&#45;&gt;Node32</title>
<g id="a_edge33_Node000031_Node000032"><a xlink:title=" ">
<path fill="none" stroke="#63b8ff" d="M2182.17,-82.53C2194.31,-76.68 2210.97,-68.64 2225.03,-61.87"/>
<polygon fill="#63b8ff" stroke="#63b8ff" points="2226.31,-65.14 2233.79,-57.64 2223.27,-58.83 2226.31,-65.14"/>
</a>
</g>
</g>
<!-- Node34 -->
<g id="Node000034" class="node">
<title>Node34</title>
<g id="a_Node000034"><a xlink:href="../../d8/d37/mem_8blk.html#a83c7cf203e5eef9d1a8c6c43cde3e2e5" target="_top" xlink:title=" ">
<polygon fill="white" stroke="#666666" points="2280.25,-100.25 2226.75,-100.25 2226.75,-81 2280.25,-81 2280.25,-100.25"/>
<text text-anchor="middle" x="2253.5" y="-86.75" font-family="Helvetica,sans-Serif" font-size="10.00">mp_ifree</text>
</a>
</g>
</g>
<!-- Node31&#45;&gt;Node34 -->
<g id="edge36_Node000031_Node000034" class="edge">
<title>Node31&#45;&gt;Node34</title>
<g id="a_edge36_Node000031_Node000034"><a xlink:title=" ">
<path fill="none" stroke="#63b8ff" d="M2182.17,-90.62C2191.59,-90.62 2203.74,-90.62 2215.28,-90.62"/>
<polygon fill="#63b8ff" stroke="#63b8ff" points="2214.98,-94.13 2224.98,-90.63 2214.98,-87.13 2214.98,-94.13"/>
</a>
</g>
</g>
<!-- Node32&#45;&gt;Node19 -->
<g id="edge34_Node000032_Node000019" class="edge">
<title>Node32&#45;&gt;Node19</title>
<g id="a_edge34_Node000032_Node000019"><a xlink:title=" ">
<path fill="none" stroke="#63b8ff" d="M2235.04,-48.47C2201.7,-48.19 2126.66,-47.62 2063.5,-47.62 1537.38,-47.62 1537.38,-47.62 1537.38,-47.62 1459.15,-47.62 1432.72,-33.14 1362.5,-67.62 1341.91,-77.74 1344.39,-90.26 1326.5,-104.62 1325.84,-105.16 1325.16,-105.68 1324.47,-106.2"/>
<polygon fill="#63b8ff" stroke="#63b8ff" points="1322.61,-103.24 1316.35,-111.78 1326.57,-109.01 1322.61,-103.24"/>
</a>
</g>
</g>
<!-- Node33 -->
<g id="Node000033" class="node">
<title>Node33</title>
<g id="a_Node000033"><a xlink:href="../../d1/d10/mem-stack_8h.html#a1d0e2a29f86dc033a02e50484b527fd0" target="_top" xlink:title=" ">
<polygon fill="white" stroke="#666666" points="2358.5,-58.25 2316.25,-58.25 2316.25,-39 2358.5,-39 2358.5,-58.25"/>
<text text-anchor="middle" x="2337.38" y="-44.75" font-family="Helvetica,sans-Serif" font-size="10.00">t_pool</text>
</a>
</g>
</g>
<!-- Node32&#45;&gt;Node33 -->
<g id="edge35_Node000032_Node000033" class="edge">
<title>Node32&#45;&gt;Node33</title>
<g id="a_edge35_Node000032_Node000033"><a xlink:title=" ">
<path fill="none" stroke="#63b8ff" d="M2271.86,-48.62C2281.31,-48.62 2293.29,-48.62 2304.36,-48.62"/>
<polygon fill="#63b8ff" stroke="#63b8ff" points="2304.34,-52.13 2314.34,-48.63 2304.34,-45.13 2304.34,-52.13"/>
</a>
</g>
</g>
<!-- Node37&#45;&gt;Node26 -->
<g id="edge46_Node000037_Node000026" class="edge">
<title>Node37&#45;&gt;Node26</title>
<g id="a_edge46_Node000037_Node000026"><a xlink:title=" ">
<path fill="none" stroke="#63b8ff" d="M1439.67,-125.87C1476.28,-128.69 1537.81,-134.18 1590.25,-142.62 1663.02,-154.34 1746.81,-174.12 1794.25,-185.92"/>
<polygon fill="#63b8ff" stroke="#63b8ff" points="1793.2,-189.26 1803.75,-188.3 1794.9,-182.47 1793.2,-189.26"/>
</a>
</g>
</g>
<!-- Node38 -->
<g id="Node000038" class="node">
<title>Node38</title>
<g id="a_Node000038"><a xlink:href="../../d1/dc0/group__log.html#ga168a6f17b248f61f7d25a17d58d04e36" target="_top" xlink:title=" ">
<polygon fill="white" stroke="#666666" points="1582.75,-95.25 1494,-95.25 1494,-76 1582.75,-76 1582.75,-95.25"/>
<text text-anchor="middle" x="1538.38" y="-81.75" font-family="Helvetica,sans-Serif" font-size="10.00">logger_has_level</text>
</a>
</g>
</g>
<!-- Node37&#45;&gt;Node38 -->
<g id="edge43_Node000037_Node000038" class="edge">
<title>Node37&#45;&gt;Node38</title>
<g id="a_edge43_Node000037_Node000038"><a xlink:title=" ">
<path fill="none" stroke="#63b8ff" d="M1439.6,-114.23C1455.38,-109.62 1474.66,-103.97 1491.92,-98.92"/>
<polygon fill="#63b8ff" stroke="#63b8ff" points="1492.84,-102.3 1501.46,-96.13 1490.88,-95.58 1492.84,-102.3"/>
</a>
</g>
</g>
<!-- Node39 -->
<g id="Node000039" class="node">
<title>Node39</title>
<g id="a_Node000039"><a xlink:href="../../d1/dc0/group__log.html#gaf388752b988541da0abeceecdf96e6b3" target="_top" xlink:title=" ">
<polygon fill="white" stroke="#666666" points="1733,-95.25 1646.5,-95.25 1646.5,-76 1733,-76 1733,-95.25"/>
<text text-anchor="middle" x="1689.75" y="-81.75" font-family="Helvetica,sans-Serif" font-size="10.00">logger_get_level</text>
</a>
</g>
</g>
<!-- Node38&#45;&gt;Node39 -->
<g id="edge44_Node000038_Node000039" class="edge">
<title>Node38&#45;&gt;Node39</title>
<g id="a_edge44_Node000038_Node000039"><a xlink:title=" ">
<path fill="none" stroke="#63b8ff" d="M1582.98,-85.62C1599.14,-85.62 1617.67,-85.62 1634.65,-85.62"/>
<polygon fill="#63b8ff" stroke="#63b8ff" points="1634.61,-89.13 1644.61,-85.63 1634.61,-82.13 1634.61,-89.13"/>
</a>
</g>
</g>
<!-- Node40 -->
<g id="Node000040" class="node">
<title>Node40</title>
<g id="a_Node000040"><a xlink:href="../../d1/dc0/group__log.html#ga93cbd623096e1704532d15b3eb30e42f" target="_top" xlink:title=" ">
<polygon fill="white" stroke="#666666" points="1877.25,-95.25 1789.25,-95.25 1789.25,-76 1877.25,-76 1877.25,-95.25"/>
<text text-anchor="middle" x="1833.25" y="-81.75" font-family="Helvetica,sans-Serif" font-size="10.00">__logger_refresh</text>
</a>
</g>
</g>
<!-- Node39&#45;&gt;Node40 -->
<g id="edge45_Node000039_Node000040" class="edge">
<title>Node39&#45;&gt;Node40</title>
<g id="a_edge45_Node000039_Node000040"><a xlink:title=" ">
<path fill="none" stroke="#63b8ff" d="M1733.2,-85.62C1747.08,-85.62 1762.69,-85.62 1777.35,-85.62"/>
<polygon fill="#63b8ff" stroke="#63b8ff" points="1777.33,-89.13 1787.33,-85.63 1777.33,-82.13 1777.33,-89.13"/>
</a>
</g>
</g>
<!-- Node43 -->
<g id="Node000043" class="node">
<title>Node43</title>
<g id="a_Node000043"><a xlink:href="../../d8/d96/bithacks_8h.html#ab80588fa9f8b9e766249edaf70558bdc" target="_top" xlink:title=" ">
<polygon fill="white" stroke="#666666" points="1326.5,-95.25 1266.25,-95.25 1266.25,-76 1326.5,-76 1326.5,-95.25"/>
<text text-anchor="middle" x="1296.38" y="-81.75" font-family="Helvetica,sans-Serif" font-size="10.00">bitcountsz</text>
</a>
</g>
</g>
<!-- Node42&#45;&gt;Node43 -->
<g id="edge49_Node000042_Node000043" class="edge">
<title>Node42&#45;&gt;Node43</title>
<g id="a_edge49_Node000042_Node000043"><a xlink:title=" ">
<path fill="none" stroke="#63b8ff" d="M1218.82,-85.62C1230.4,-85.62 1243.12,-85.62 1254.81,-85.62"/>
<polygon fill="#63b8ff" stroke="#63b8ff" points="1254.56,-89.13 1264.56,-85.63 1254.56,-82.13 1254.56,-89.13"/>
</a>
</g>
</g>
<!-- Node45 -->
<g id="Node000045" class="node">
<title>Node45</title>
<g id="a_Node000045"><a xlink:href="../../d8/d37/mem_8blk.html#a377e36d6fbaf3ee7f1b217559cb0c850" target="_top" xlink:title=" ">
<polygon fill="white" stroke="#666666" points="1230.25,-58.25 1128,-58.25 1128,-39 1230.25,-39 1230.25,-58.25"/>
<text text-anchor="middle" x="1179.12" y="-44.75" font-family="Helvetica,sans-Serif" font-size="10.00">__imalloc_too_large</text>
</a>
</g>
</g>
<!-- Node44&#45;&gt;Node45 -->
<g id="edge51_Node000044_Node000045" class="edge">
<title>Node44&#45;&gt;Node45</title>
<g id="a_edge51_Node000044_Node000045"><a xlink:title=" ">
<path fill="none" stroke="#63b8ff" d="M1092.14,-48.62C1100.14,-48.62 1108.41,-48.62 1116.52,-48.62"/>
<polygon fill="#63b8ff" stroke="#63b8ff" points="1116.32,-52.13 1126.32,-48.63 1116.32,-45.13 1116.32,-52.13"/>
</a>
</g>
</g>
<!-- Node46&#45;&gt;Node27 -->
<g id="edge53_Node000046_Node000027" class="edge">
<title>Node46&#45;&gt;Node27</title>
<g id="a_edge53_Node000046_Node000027"><a xlink:title=" ">
<path fill="none" stroke="#63b8ff" d="M1968.86,-19.57C2005.84,-40.3 2091.46,-88.3 2135.74,-113.13"/>
<polygon fill="#63b8ff" stroke="#63b8ff" points="2133.79,-116.05 2144.22,-117.89 2137.21,-109.94 2133.79,-116.05"/>
</a>
</g>
</g>
</g>
</svg>
