<?xml version="1.0" encoding="UTF-8" standalone="no"?>
<!DOCTYPE svg PUBLIC "-//W3C//DTD SVG 1.1//EN"
 "http://www.w3.org/Graphics/SVG/1.1/DTD/svg11.dtd">
<!-- Generated by graphviz version 9.0.0 (20230911.1827)
 -->
<!-- Title: iopc_field_resolve Pages: 1 -->
<!--zoomable 211 -->

<svg id="main" version="1.1" xmlns="http://www.w3.org/2000/svg" xmlns:xlink="http://www.w3.org/1999/xlink" xml:space="preserve" onload="init(evt)">
<style type="text/css"><![CDATA[
.node, .edge {opacity: 0.7;}
.node.selected, .edge.selected {opacity: 1;}
.edge:hover path { stroke: red; }
.edge:hover polygon { stroke: red; fill: red; }
]]></style>

<defs>
  <circle id="rim" cx="0" cy="0" r="7"/>
  <circle id="rim2" cx="0" cy="0" r="3.5"/>
  <g id="zoomPlus">
    <use xlink:href="#rim" fill="#404040"><set attributeName="fill" to="#808080" begin="zoomplus.mouseover" end="zoomplus.mouseout"/></use>
    <path d="M-4,0h8M0,-4v8" fill="none" stroke="white" stroke-width="1.5" pointer-events="none"/>
  </g>
  <g id="zoomMin">
    <use xlink:href="#rim" fill="#404040"><set attributeName="fill" to="#808080" begin="zoomminus.mouseover" end="zoomminus.mouseout"/></use>
    <path d="M-4,0h8" fill="none" stroke="white" stroke-width="1.5" pointer-events="none"/>
  </g>
  <g id="arrowUp" transform="translate(30 24)">
    <use xlink:href="#rim"/>
    <path pointer-events="none" fill="none" stroke="white" stroke-width="1.5" d="M0,-3.0v7 M-2.5,-0.5L0,-3.0L2.5,-0.5"/>
  </g>
  <g id="arrowRight" transform="rotate(90) translate(36 -43)">
    <use xlink:href="#rim"/>
    <path pointer-events="none" fill="none" stroke="white" stroke-width="1.5" d="M0,-3.0v7 M-2.5,-0.5L0,-3.0L2.5,-0.5"/>
  </g>
  <g id="arrowDown" transform="rotate(180) translate(-30 -48)">
    <use xlink:href="#rim"/>
    <path pointer-events="none" fill="none" stroke="white" stroke-width="1.5" d="M0,-3.0v7 M-2.5,-0.5L0,-3.0L2.5,-0.5"/>
  </g>
  <g id="arrowLeft" transform="rotate(270) translate(-36 17)">
    <use xlink:href="#rim"/>
    <path pointer-events="none" fill="none" stroke="white" stroke-width="1.5" d="M0,-3.0v7 M-2.5,-0.5L0,-3.0L2.5,-0.5"/>
  </g>
  <g id="resetDef">
    <use xlink:href="#rim2" fill="#404040"><set attributeName="fill" to="#808080" begin="reset.mouseover" end="reset.mouseout"/></use>
  </g>
</defs>
<script type="application/ecmascript">
var viewWidth = 1427;
var viewHeight = 211;
var sectionId = 'dynsection-31';
</script>
<script type="application/ecmascript" xlink:href="../../svg.min.js"/>
<svg id="graph" class="graph">
<g id="viewport">
<title>iopc_field_resolve</title>
<!-- Node1 -->
<g id="Node000001" class="node">
<title>Node1</title>
<g id="a_Node000001"><a xlink:title=" ">
<polygon fill="#999999" stroke="#666666" points="1419.25,-78.98 1326,-78.98 1326,-59.73 1419.25,-59.73 1419.25,-78.98"/>
<text text-anchor="middle" x="1372.62" y="-65.48" font-family="Helvetica,sans-Serif" font-size="10.00">iopc_field_resolve</text>
</a>
</g>
</g>
<!-- Node2 -->
<g id="Node000002" class="node">
<title>Node2</title>
<g id="a_Node000002"><a xlink:href="../../d2/d5f/iopc-typer_8blk.html#a313b6036cb47e024562d6441b41254bf" target="_top" xlink:title=" ">
<polygon fill="white" stroke="#666666" points="1290,-125.98 1189.25,-125.98 1189.25,-106.73 1290,-106.73 1290,-125.98"/>
<text text-anchor="middle" x="1239.62" y="-112.48" font-family="Helvetica,sans-Serif" font-size="10.00">iopc_struct_resolve</text>
</a>
</g>
</g>
<!-- Node1&#45;&gt;Node2 -->
<g id="edge1_Node000001_Node000002" class="edge">
<title>Node1&#45;&gt;Node2</title>
<g id="a_edge1_Node000001_Node000002"><a xlink:title=" ">
<path fill="none" stroke="#63b8ff" d="M1332.89,-83.25C1312.28,-90.65 1287.41,-99.57 1268.68,-106.29"/>
<polygon fill="#63b8ff" stroke="#63b8ff" points="1333.87,-86.62 1342.1,-79.95 1331.5,-80.03 1333.87,-86.62"/>
</a>
</g>
</g>
<!-- Node14 -->
<g id="Node000014" class="node">
<title>Node14</title>
<g id="a_Node000014"><a xlink:href="../../d2/d5f/iopc-typer_8blk.html#a33e6e7cae14831595bd4f9fa51fa01c5" target="_top" xlink:title=" ">
<polygon fill="white" stroke="#666666" points="1144.25,-78.98 1065.25,-78.98 1065.25,-59.73 1144.25,-59.73 1144.25,-78.98"/>
<text text-anchor="middle" x="1104.75" y="-65.48" font-family="Helvetica,sans-Serif" font-size="10.00">iopc_t_resolve</text>
</a>
</g>
</g>
<!-- Node1&#45;&gt;Node14 -->
<g id="edge25_Node000001_Node000014" class="edge">
<title>Node1&#45;&gt;Node14</title>
<g id="a_edge25_Node000001_Node000014"><a xlink:title=" ">
<path fill="none" stroke="#63b8ff" d="M1314.4,-63.69C1263.17,-62.03 1189.43,-62.27 1144.72,-64.41"/>
<polygon fill="#63b8ff" stroke="#63b8ff" points="1313.98,-67.18 1324.1,-64.04 1314.24,-60.18 1313.98,-67.18"/>
</a>
</g>
</g>
<!-- Node3 -->
<g id="Node000003" class="node">
<title>Node3</title>
<g id="a_Node000003"><a xlink:href="../../d2/d5f/iopc-typer_8blk.html#a9a6161c44b4effb0c569eb363f056e0c" target="_top" xlink:title=" ">
<polygon fill="white" stroke="#666666" points="1153.25,-174.6 1056.25,-174.6 1056.25,-144.1 1153.25,-144.1 1153.25,-174.6"/>
<text text-anchor="start" x="1064.25" y="-161.1" font-family="Helvetica,sans-Serif" font-size="10.00">iopc_i_resolve_fun</text>
<text text-anchor="middle" x="1104.75" y="-149.85" font-family="Helvetica,sans-Serif" font-size="10.00">_struct</text>
</a>
</g>
</g>
<!-- Node2&#45;&gt;Node3 -->
<g id="edge2_Node000002_Node000003" class="edge">
<title>Node2&#45;&gt;Node3</title>
<g id="a_edge2_Node000002_Node000003"><a xlink:title=" ">
<path fill="none" stroke="#63b8ff" d="M1196.87,-129.87C1183.13,-134.31 1167.76,-139.29 1153.62,-143.86"/>
<polygon fill="#63b8ff" stroke="#63b8ff" points="1197.6,-133.31 1206.03,-126.9 1195.44,-126.65 1197.6,-133.31"/>
</a>
</g>
</g>
<!-- Node2&#45;&gt;Node14 -->
<g id="edge17_Node000002_Node000014" class="edge">
<title>Node2&#45;&gt;Node14</title>
<g id="a_edge17_Node000002_Node000014"><a xlink:title=" ">
<path fill="none" stroke="#63b8ff" d="M1199.33,-102.46C1178.43,-95.06 1153.2,-86.14 1134.21,-79.42"/>
<polygon fill="#63b8ff" stroke="#63b8ff" points="1198.1,-105.73 1208.69,-105.77 1200.43,-99.13 1198.1,-105.73"/>
</a>
</g>
</g>
<!-- Node4 -->
<g id="Node000004" class="node">
<title>Node4</title>
<g id="a_Node000004"><a xlink:href="../../d2/d5f/iopc-typer_8blk.html#a50ed283da59e5a81b3135c6272ea50db" target="_top" xlink:title=" ">
<polygon fill="white" stroke="#666666" points="1009,-165.98 930.75,-165.98 930.75,-146.73 1009,-146.73 1009,-165.98"/>
<text text-anchor="middle" x="969.88" y="-152.48" font-family="Helvetica,sans-Serif" font-size="10.00">iopc_i_resolve</text>
</a>
</g>
</g>
<!-- Node3&#45;&gt;Node4 -->
<g id="edge3_Node000003_Node000004" class="edge">
<title>Node3&#45;&gt;Node4</title>
<g id="a_edge3_Node000003_Node000004"><a xlink:title=" ">
<path fill="none" stroke="#63b8ff" d="M1044.45,-158.02C1032.49,-157.75 1020.21,-157.47 1009.2,-157.22"/>
<polygon fill="#63b8ff" stroke="#63b8ff" points="1044.19,-161.51 1054.27,-158.24 1044.35,-154.51 1044.19,-161.51"/>
</a>
</g>
</g>
<!-- Node5 -->
<g id="Node000005" class="node">
<title>Node5</title>
<g id="a_Node000005"><a xlink:href="../../d2/d5f/iopc-typer_8blk.html#aee5849cd8d517719157a2ac80bd41ad7" target="_top" xlink:title=" ">
<polygon fill="white" stroke="#666666" points="855.75,-165.98 785,-165.98 785,-146.73 855.75,-146.73 855.75,-165.98"/>
<text text-anchor="middle" x="820.38" y="-152.48" font-family="Helvetica,sans-Serif" font-size="10.00">iopc_resolve</text>
</a>
</g>
</g>
<!-- Node4&#45;&gt;Node5 -->
<g id="edge4_Node000004_Node000005" class="edge">
<title>Node4&#45;&gt;Node5</title>
<g id="a_edge4_Node000004_Node000005"><a xlink:title=" ">
<path fill="none" stroke="#63b8ff" d="M919.02,-149.93C898.31,-149.35 874.79,-149.55 856.02,-150.53"/>
<polygon fill="#63b8ff" stroke="#63b8ff" points="918.87,-153.43 928.99,-150.29 919.13,-146.43 918.87,-153.43"/>
</a>
</g>
</g>
<!-- Node5&#45;&gt;Node4 -->
<g id="edge7_Node000005_Node000004" class="edge">
<title>Node5&#45;&gt;Node4</title>
<g id="a_edge7_Node000005_Node000004"><a xlink:title=" ">
<path fill="none" stroke="#63b8ff" d="M867.51,-162.66C887.75,-163.34 911.24,-163.24 930.51,-162.36"/>
<polygon fill="#63b8ff" stroke="#63b8ff" points="867.67,-159.17 857.53,-162.24 867.38,-166.16 867.67,-159.17"/>
</a>
</g>
</g>
<!-- Node6 -->
<g id="Node000006" class="node">
<title>Node6</title>
<g id="a_Node000006"><a xlink:href="../../db/d07/iopc-dso_8c.html#a95a19b847fb352eb92b539cf3495f093" target="_top" xlink:title=" ">
<polygon fill="white" stroke="#666666" points="529,-202.98 469.5,-202.98 469.5,-183.73 529,-183.73 529,-202.98"/>
<text text-anchor="middle" x="499.25" y="-189.48" font-family="Helvetica,sans-Serif" font-size="10.00">iopc_build</text>
</a>
</g>
</g>
<!-- Node5&#45;&gt;Node6 -->
<g id="edge5_Node000005_Node000006" class="edge">
<title>Node5&#45;&gt;Node6</title>
<g id="a_edge5_Node000005_Node000006"><a xlink:title=" ">
<path fill="none" stroke="#63b8ff" d="M789.33,-171.33C770.33,-179.95 744.97,-189.92 721.25,-194.35 653.36,-207.04 571.68,-201.39 529.17,-196.92"/>
<polygon fill="#63b8ff" stroke="#63b8ff" points="790.78,-174.52 798.35,-167.11 787.81,-168.18 790.78,-174.52"/>
</a>
</g>
</g>
<!-- Node8 -->
<g id="Node000008" class="node">
<title>Node8</title>
<g id="a_Node000008"><a xlink:href="../../d2/d5f/iopc-typer_8blk.html#af859dfc8225e7b6f725f8b0b37e7d502" target="_top" xlink:title=" ">
<polygon fill="white" stroke="#666666" points="721.25,-184.98 587.5,-184.98 587.5,-165.73 721.25,-165.73 721.25,-184.98"/>
<text text-anchor="middle" x="654.38" y="-171.48" font-family="Helvetica,sans-Serif" font-size="10.00">iopc_resolve_second_pass</text>
</a>
</g>
</g>
<!-- Node5&#45;&gt;Node8 -->
<g id="edge8_Node000005_Node000008" class="edge">
<title>Node5&#45;&gt;Node8</title>
<g id="a_edge8_Node000005_Node000008"><a xlink:title=" ">
<path fill="none" stroke="#63b8ff" d="M773.35,-161.69C757.29,-163.55 738.93,-165.67 721.56,-167.69"/>
<polygon fill="#63b8ff" stroke="#63b8ff" points="773.56,-165.19 783.09,-160.56 772.75,-158.23 773.56,-165.19"/>
</a>
</g>
</g>
<!-- Node9 -->
<g id="Node000009" class="node">
<title>Node9</title>
<g id="a_Node000009"><a xlink:href="../../df/d1f/iopc_8c.html#a3c04138a5bfe5d72780bb7e82a18e627" target="_top" xlink:title=" ">
<polygon fill="white" stroke="#666666" points="517.75,-165.98 480.75,-165.98 480.75,-146.73 517.75,-146.73 517.75,-165.98"/>
<text text-anchor="middle" x="499.25" y="-152.48" font-family="Helvetica,sans-Serif" font-size="10.00">main</text>
</a>
</g>
</g>
<!-- Node5&#45;&gt;Node9 -->
<g id="edge15_Node000005_Node000009" class="edge">
<title>Node5&#45;&gt;Node9</title>
<g id="a_edge15_Node000005_Node000009"><a xlink:title=" ">
<path fill="none" stroke="#63b8ff" d="M773.24,-156.35C701.44,-156.35 566.19,-156.35 517.92,-156.35"/>
<polygon fill="#63b8ff" stroke="#63b8ff" points="773.1,-159.85 783.1,-156.35 773.1,-152.85 773.1,-159.85"/>
</a>
</g>
</g>
<!-- Node10 -->
<g id="Node000010" class="node">
<title>Node10</title>
<g id="a_Node000010"><a xlink:href="../../db/d6e/iopc-iopsq_8c.html#ad9d8b003c04a8df3421b09d35a688cdb" target="_top" xlink:title="Generates an IOP package description from its IOP version.">
<polygon fill="white" stroke="#666666" points="551.5,-127.98 447,-127.98 447,-108.73 551.5,-108.73 551.5,-127.98"/>
<text text-anchor="middle" x="499.25" y="-114.48" font-family="Helvetica,sans-Serif" font-size="10.00">mp_iopsq_build_pkg</text>
</a>
</g>
</g>
<!-- Node5&#45;&gt;Node10 -->
<g id="edge16_Node000005_Node000010" class="edge">
<title>Node5&#45;&gt;Node10</title>
<g id="a_edge16_Node000005_Node000010"><a xlink:title=" ">
<path fill="none" stroke="#63b8ff" d="M773.46,-150.89C714.68,-143.89 613.14,-131.8 551.78,-124.49"/>
<polygon fill="#63b8ff" stroke="#63b8ff" points="772.77,-154.33 783.11,-152.04 773.6,-147.38 772.77,-154.33"/>
</a>
</g>
</g>
<!-- Node7 -->
<g id="Node000007" class="node">
<title>Node7</title>
<g id="a_Node000007"><a xlink:href="../../db/d07/iopc-dso_8c.html#ab2da67841232fab2872190ddabd94a81" target="_top" xlink:title="Build an IOP DSO.">
<polygon fill="white" stroke="#666666" points="394.88,-202.98 314.38,-202.98 314.38,-183.73 394.88,-183.73 394.88,-202.98"/>
<text text-anchor="middle" x="354.62" y="-189.48" font-family="Helvetica,sans-Serif" font-size="10.00">iopc_dso_build</text>
</a>
</g>
</g>
<!-- Node6&#45;&gt;Node7 -->
<g id="edge6_Node000006_Node000007" class="edge">
<title>Node6&#45;&gt;Node7</title>
<g id="a_edge6_Node000006_Node000007"><a xlink:title=" ">
<path fill="none" stroke="#63b8ff" d="M457.73,-193.35C438.17,-193.35 414.79,-193.35 395.34,-193.35"/>
<polygon fill="#63b8ff" stroke="#63b8ff" points="457.53,-196.85 467.53,-193.35 457.53,-189.85 457.53,-196.85"/>
</a>
</g>
</g>
<!-- Node8&#45;&gt;Node6 -->
<g id="edge9_Node000008_Node000006" class="edge">
<title>Node8&#45;&gt;Node6</title>
<g id="a_edge9_Node000008_Node000006"><a xlink:title=" ">
<path fill="none" stroke="#63b8ff" d="M575.67,-184.49C559.12,-186.43 542.64,-188.37 529.33,-189.94"/>
<polygon fill="#63b8ff" stroke="#63b8ff" points="576.08,-187.97 585.6,-183.32 575.26,-181.01 576.08,-187.97"/>
</a>
</g>
</g>
<!-- Node8&#45;&gt;Node9 -->
<g id="edge10_Node000008_Node000009" class="edge">
<title>Node8&#45;&gt;Node9</title>
<g id="a_edge10_Node000008_Node000009"><a xlink:title=" ">
<path fill="none" stroke="#63b8ff" d="M575.81,-165.73C554.16,-163.04 532.62,-160.37 518.11,-158.57"/>
<polygon fill="#63b8ff" stroke="#63b8ff" points="575.25,-169.19 585.6,-166.94 576.11,-162.24 575.25,-169.19"/>
</a>
</g>
</g>
<!-- Node8&#45;&gt;Node10 -->
<g id="edge11_Node000008_Node000010" class="edge">
<title>Node8&#45;&gt;Node10</title>
<g id="a_edge11_Node000008_Node000010"><a xlink:title=" ">
<path fill="none" stroke="#63b8ff" d="M615.82,-161.33C596.59,-154.15 572.8,-145.27 551.5,-137.35 543.67,-134.44 535.17,-131.29 527.38,-128.4"/>
<polygon fill="#63b8ff" stroke="#63b8ff" points="614.56,-164.59 625.15,-164.81 617.01,-158.03 614.56,-164.59"/>
</a>
</g>
</g>
<!-- Node11 -->
<g id="Node000011" class="node">
<title>Node11</title>
<g id="a_Node000011"><a xlink:href="../../db/d6e/iopc-iopsq_8c.html#ab249c992023713d970929acd2c1e9fed" target="_top" xlink:title="Generates an dumb IOP package from a single package elem description.">
<polygon fill="white" stroke="#666666" points="411,-133.6 298.25,-133.6 298.25,-103.1 411,-103.1 411,-133.6"/>
<text text-anchor="start" x="306.25" y="-120.1" font-family="Helvetica,sans-Serif" font-size="10.00">mp_iopsq_build_mono</text>
<text text-anchor="middle" x="354.62" y="-108.85" font-family="Helvetica,sans-Serif" font-size="10.00">_element_pkg</text>
</a>
</g>
</g>
<!-- Node10&#45;&gt;Node11 -->
<g id="edge12_Node000010_Node000011" class="edge">
<title>Node10&#45;&gt;Node11</title>
<g id="a_edge12_Node000010_Node000011"><a xlink:title=" ">
<path fill="none" stroke="#63b8ff" d="M435.25,-118.35C427.3,-118.35 419.21,-118.35 411.38,-118.35"/>
<polygon fill="#63b8ff" stroke="#63b8ff" points="435.25,-121.85 445.25,-118.35 435.25,-114.85 435.25,-121.85"/>
</a>
</g>
</g>
<!-- Node12 -->
<g id="Node000012" class="node">
<title>Node12</title>
<g id="a_Node000012"><a xlink:href="../../db/d6e/iopc-iopsq_8c.html#aa37570289cdd73d2d1aacb686eb9bd3e" target="_top" xlink:title=" ">
<polygon fill="white" stroke="#666666" points="262.25,-127.98 148.75,-127.98 148.75,-108.73 262.25,-108.73 262.25,-127.98"/>
<text text-anchor="middle" x="205.5" y="-114.48" font-family="Helvetica,sans-Serif" font-size="10.00">mp_iopsq_build_struct</text>
</a>
</g>
</g>
<!-- Node11&#45;&gt;Node12 -->
<g id="edge13_Node000011_Node000012" class="edge">
<title>Node11&#45;&gt;Node12</title>
<g id="a_edge13_Node000011_Node000012"><a xlink:title=" ">
<path fill="none" stroke="#63b8ff" d="M286.75,-118.35C278.71,-118.35 270.56,-118.35 262.69,-118.35"/>
<polygon fill="#63b8ff" stroke="#63b8ff" points="286.49,-121.85 296.49,-118.35 286.49,-114.85 286.49,-121.85"/>
</a>
</g>
</g>
<!-- Node13 -->
<g id="Node000013" class="node">
<title>Node13</title>
<g id="a_Node000013"><a xlink:href="../../db/d6e/iopc-iopsq_8c.html#a29da93a7e88dca9ad6e854548eb1ad54" target="_top" xlink:title="Build iopsq_iop_struct_t object.">
<polygon fill="white" stroke="#666666" points="112.75,-127.98 0,-127.98 0,-108.73 112.75,-108.73 112.75,-127.98"/>
<text text-anchor="middle" x="56.38" y="-114.48" font-family="Helvetica,sans-Serif" font-size="10.00">iopsq_iop_struct_build</text>
</a>
</g>
</g>
<!-- Node12&#45;&gt;Node13 -->
<g id="edge14_Node000012_Node000013" class="edge">
<title>Node12&#45;&gt;Node13</title>
<g id="a_edge14_Node000012_Node000013"><a xlink:title=" ">
<path fill="none" stroke="#63b8ff" d="M137.07,-118.35C128.94,-118.35 120.71,-118.35 112.77,-118.35"/>
<polygon fill="#63b8ff" stroke="#63b8ff" points="136.95,-121.85 146.95,-118.35 136.95,-114.85 136.95,-121.85"/>
</a>
</g>
</g>
<!-- Node14&#45;&gt;Node1 -->
<g id="edge18_Node000014_Node000001" class="edge">
<title>Node14&#45;&gt;Node1</title>
<g id="a_edge18_Node000014_Node000001"><a xlink:title=" ">
<path fill="none" stroke="#63b8ff" d="M1155.95,-74.77C1204.77,-76.6 1278.28,-76.55 1325.62,-74.61"/>
<polygon fill="#63b8ff" stroke="#63b8ff" points="1156.37,-71.29 1146.23,-74.36 1156.07,-78.28 1156.37,-71.29"/>
</a>
</g>
</g>
<!-- Node14&#45;&gt;Node5 -->
<g id="edge19_Node000014_Node000005" class="edge">
<title>Node14&#45;&gt;Node5</title>
<g id="a_edge19_Node000014_Node000005"><a xlink:title=" ">
<path fill="none" stroke="#63b8ff" d="M1060.3,-82.74C1003.47,-100.25 905.17,-130.54 854.18,-146.25"/>
<polygon fill="#63b8ff" stroke="#63b8ff" points="1061.11,-86.15 1069.64,-79.87 1059.05,-79.46 1061.11,-86.15"/>
</a>
</g>
</g>
<!-- Node15 -->
<g id="Node000015" class="node">
<title>Node15</title>
<g id="a_Node000015"><a xlink:href="../../d2/d5f/iopc-typer_8blk.html#ac318ed4ca676c609a51d4450b3e28b6c" target="_top" xlink:title=" ">
<polygon fill="white" stroke="#666666" points="1020.25,-50.6 919.5,-50.6 919.5,-20.1 1020.25,-20.1 1020.25,-50.6"/>
<text text-anchor="start" x="927.5" y="-37.1" font-family="Helvetica,sans-Serif" font-size="10.00">resolve_pkg_parent</text>
<text text-anchor="middle" x="969.88" y="-25.85" font-family="Helvetica,sans-Serif" font-size="10.00">_and_params</text>
</a>
</g>
</g>
<!-- Node14&#45;&gt;Node15 -->
<g id="edge20_Node000014_Node000015" class="edge">
<title>Node14&#45;&gt;Node15</title>
<g id="a_edge20_Node000014_Node000015"><a xlink:title=" ">
<path fill="none" stroke="#63b8ff" d="M1053.84,-56.58C1042.89,-53.78 1031.3,-50.82 1020.37,-48.02"/>
<polygon fill="#63b8ff" stroke="#63b8ff" points="1052.94,-59.97 1063.49,-59.05 1054.67,-53.18 1052.94,-59.97"/>
</a>
</g>
</g>
<!-- Node16 -->
<g id="Node000016" class="node">
<title>Node16</title>
<g id="a_Node000016"><a xlink:href="../../d2/d5f/iopc-typer_8blk.html#ae0e0db214456a17d694e5cb214f7e57f" target="_top" xlink:title=" ">
<polygon fill="white" stroke="#666666" points="883.5,-24.98 757.25,-24.98 757.25,-5.73 883.5,-5.73 883.5,-24.98"/>
<text text-anchor="middle" x="820.38" y="-11.48" font-family="Helvetica,sans-Serif" font-size="10.00">iopc_snmp_iface_resolve</text>
</a>
</g>
</g>
<!-- Node15&#45;&gt;Node16 -->
<g id="edge21_Node000015_Node000016" class="edge">
<title>Node15&#45;&gt;Node16</title>
<g id="a_edge21_Node000015_Node000016"><a xlink:title=" ">
<path fill="none" stroke="#63b8ff" d="M908.19,-27.13C900.16,-26.04 891.92,-24.92 883.87,-23.83"/>
<polygon fill="#63b8ff" stroke="#63b8ff" points="907.47,-30.56 917.85,-28.44 908.41,-23.62 907.47,-30.56"/>
</a>
</g>
</g>
<!-- Node17 -->
<g id="Node000017" class="node">
<title>Node17</title>
<g id="a_Node000017"><a xlink:href="../../d2/d5f/iopc-typer_8blk.html#aa0947f4e2813935756963f613115d498" target="_top" xlink:title=" ">
<polygon fill="white" stroke="#666666" points="870.75,-64.98 770,-64.98 770,-45.73 870.75,-45.73 870.75,-64.98"/>
<text text-anchor="middle" x="820.38" y="-51.48" font-family="Helvetica,sans-Serif" font-size="10.00">resolve_pkg_parent</text>
</a>
</g>
</g>
<!-- Node15&#45;&gt;Node17 -->
<g id="edge23_Node000015_Node000017" class="edge">
<title>Node15&#45;&gt;Node17</title>
<g id="a_edge23_Node000015_Node000017"><a xlink:title=" ">
<path fill="none" stroke="#63b8ff" d="M908.18,-43.58C895.81,-45.26 882.95,-47.01 871.02,-48.62"/>
<polygon fill="#63b8ff" stroke="#63b8ff" points="908.41,-47.09 917.85,-42.27 907.47,-40.15 908.41,-47.09"/>
</a>
</g>
</g>
<!-- Node16&#45;&gt;Node14 -->
<g id="edge22_Node000016_Node000014" class="edge">
<title>Node16&#45;&gt;Node14</title>
<g id="a_edge22_Node000016_Node000014"><a xlink:title=" ">
<path fill="none" stroke="#63b8ff" d="M885.97,-3.81C925.61,0.79 976.91,2.22 1020.25,-11.35 1050.57,-20.85 1079.53,-45.67 1094.06,-59.57"/>
<polygon fill="#63b8ff" stroke="#63b8ff" points="885.57,-0.33 876.09,-5.06 886.45,-7.27 885.57,-0.33"/>
</a>
</g>
</g>
<!-- Node17&#45;&gt;Node2 -->
<g id="edge24_Node000017_Node000002" class="edge">
<title>Node17&#45;&gt;Node2</title>
<g id="a_edge24_Node000017_Node000002"><a xlink:title=" ">
<path fill="none" stroke="#63b8ff" d="M882.42,-64.28C965.49,-76.42 1112.53,-97.92 1189.12,-109.12"/>
<polygon fill="#63b8ff" stroke="#63b8ff" points="883.04,-60.83 872.63,-62.85 882.02,-67.76 883.04,-60.83"/>
</a>
</g>
</g>
</g>
</svg>

<g id="navigator" transform="translate(0 0)" fill="#404254">
  <rect fill="#f2f5e9" fill-opacity="0.5" stroke="#606060" stroke-width=".5" x="0" y="0" width="60" height="60"/>
  <use id="zoomplus" xlink:href="#zoomPlus" x="17" y="9" onmousedown="handleZoom(evt,'in')"/>
  <use id="zoomminus" xlink:href="#zoomMin" x="42" y="9" onmousedown="handleZoom(evt,'out')"/>
  <use id="reset" xlink:href="#resetDef" x="30" y="36" onmousedown="handleReset()"/>
   <use id="arrowup" xlink:href="#arrowUp" x="0" y="0" onmousedown="handlePan(0,-1)"/>
  <use id="arrowright" xlink:href="#arrowRight" x="0" y="0" onmousedown="handlePan(1,0)"/>
  <use id="arrowdown" xlink:href="#arrowDown" x="0" y="0" onmousedown="handlePan(0,1)"/>
  <use id="arrowleft" xlink:href="#arrowLeft" x="0" y="0" onmousedown="handlePan(-1,0)"/>
</g>
<svg viewBox="0 0 15 15" width="100%" height="30px" preserveAspectRatio="xMaxYMin meet">
 <g id="arrow_out" transform="scale(0.3 0.3)">
  <a xlink:href="iopc-typer_8blk_a29178c22484c5f7a7c8164165b7b59d7_icgraph_org.svg" target="_base">
   <rect id="button" ry="5" rx="5" y="6" x="6" height="38" width="38"
        fill="#f2f5e9" fill-opacity="0.5" stroke="#606060" stroke-width="1.0"/>
   <path id="arrow"
     d="M 11.500037,31.436501 C 11.940474,20.09759 22.043105,11.32322 32.158766,21.979434 L 37.068811,17.246167 C 37.068811,17.246167 37.088388,32 37.088388,32 L 22.160133,31.978069 C 22.160133,31.978069 26.997745,27.140456 26.997745,27.140456 C 18.528582,18.264221 13.291696,25.230495 11.500037,31.436501 z"
     style="fill:#404040;"/>
  </a>
 </g>
</svg>

<style type='text/css'>
<![CDATA[
[data-mouse-over-selected='false'] { opacity: 0.7; }
[data-mouse-over-selected='true']  { opacity: 1.0; }
]]>
</style>
<script type="application/ecmascript"><![CDATA[
document.addEventListener('DOMContentLoaded', (event) => {
  highlightEdges();
  highlightAdjacentNodes();
});
]]></script>
</svg>
