<?xml version="1.0" encoding="UTF-8" standalone="no"?>
<!DOCTYPE svg PUBLIC "-//W3C//DTD SVG 1.1//EN"
 "http://www.w3.org/Graphics/SVG/1.1/DTD/svg11.dtd">
<!-- Generated by graphviz version 9.0.0 (20230911.1827)
 -->
<!-- Title: qh_u32_t Pages: 1 -->
<!--zoomable 694 -->

<svg id="main" version="1.1" xmlns="http://www.w3.org/2000/svg" xmlns:xlink="http://www.w3.org/1999/xlink" xml:space="preserve" onload="init(evt)">
<style type="text/css"><![CDATA[
.node, .edge {opacity: 0.7;}
.node.selected, .edge.selected {opacity: 1;}
.edge:hover path { stroke: red; }
.edge:hover polygon { stroke: red; fill: red; }
]]></style>

<defs>
  <circle id="rim" cx="0" cy="0" r="7"/>
  <circle id="rim2" cx="0" cy="0" r="3.5"/>
  <g id="zoomPlus">
    <use xlink:href="#rim" fill="#404040"><set attributeName="fill" to="#808080" begin="zoomplus.mouseover" end="zoomplus.mouseout"/></use>
    <path d="M-4,0h8M0,-4v8" fill="none" stroke="white" stroke-width="1.5" pointer-events="none"/>
  </g>
  <g id="zoomMin">
    <use xlink:href="#rim" fill="#404040"><set attributeName="fill" to="#808080" begin="zoomminus.mouseover" end="zoomminus.mouseout"/></use>
    <path d="M-4,0h8" fill="none" stroke="white" stroke-width="1.5" pointer-events="none"/>
  </g>
  <g id="arrowUp" transform="translate(30 24)">
    <use xlink:href="#rim"/>
    <path pointer-events="none" fill="none" stroke="white" stroke-width="1.5" d="M0,-3.0v7 M-2.5,-0.5L0,-3.0L2.5,-0.5"/>
  </g>
  <g id="arrowRight" transform="rotate(90) translate(36 -43)">
    <use xlink:href="#rim"/>
    <path pointer-events="none" fill="none" stroke="white" stroke-width="1.5" d="M0,-3.0v7 M-2.5,-0.5L0,-3.0L2.5,-0.5"/>
  </g>
  <g id="arrowDown" transform="rotate(180) translate(-30 -48)">
    <use xlink:href="#rim"/>
    <path pointer-events="none" fill="none" stroke="white" stroke-width="1.5" d="M0,-3.0v7 M-2.5,-0.5L0,-3.0L2.5,-0.5"/>
  </g>
  <g id="arrowLeft" transform="rotate(270) translate(-36 17)">
    <use xlink:href="#rim"/>
    <path pointer-events="none" fill="none" stroke="white" stroke-width="1.5" d="M0,-3.0v7 M-2.5,-0.5L0,-3.0L2.5,-0.5"/>
  </g>
  <g id="resetDef">
    <use xlink:href="#rim2" fill="#404040"><set attributeName="fill" to="#808080" begin="reset.mouseover" end="reset.mouseout"/></use>
  </g>
</defs>
<script type="application/ecmascript">
var viewWidth = 228;
var viewHeight = 694;
var sectionId = 'dynsection-0';
</script>
<script type="application/ecmascript" xlink:href="../../svg.min.js"/>
<svg id="graph" class="graph">
<g id="viewport">
<title>qh_u32_t</title>
<!-- Node1 -->
<g id="Node000001" class="node">
<title>Node1</title>
<g id="a_Node000001"><a xlink:title=" ">
<polygon fill="#999999" stroke="none" points="133,-180 0,-180 0,0 133,0 133,-180"/>
<text text-anchor="start" x="46.62" y="-166.5" font-family="Helvetica,sans-Serif" font-size="10.00">qh_u32_t</text>
<text text-anchor="start" x="4" y="-151.5" font-family="Helvetica,sans-Serif" font-size="10.00">+</text>
<text text-anchor="start" x="14" y="-151.5" font-family="Helvetica,sans-Serif" font-size="10.00">uint32_t *nullable keys</text>
<text text-anchor="start" x="4" y="-136.5" font-family="Helvetica,sans-Serif" font-size="10.00">+</text>
<text text-anchor="start" x="14" y="-136.5" font-family="Helvetica,sans-Serif" font-size="10.00">void *nullable values</text>
<text text-anchor="start" x="4" y="-121.5" font-family="Helvetica,sans-Serif" font-size="10.00">+</text>
<text text-anchor="start" x="14" y="-121.5" font-family="Helvetica,sans-Serif" font-size="10.00">uint32_t *nullable</text>
<text text-anchor="start" x="14" y="-110.25" font-family="Helvetica,sans-Serif" font-size="10.00"> hashes</text>
<text text-anchor="start" x="4" y="-95.5" font-family="Helvetica,sans-Serif" font-size="10.00">+</text>
<text text-anchor="start" x="14" y="-95.5" font-family="Helvetica,sans-Serif" font-size="10.00">uint32_t ghosts</text>
<text text-anchor="start" x="4" y="-80.5" font-family="Helvetica,sans-Serif" font-size="10.00">+</text>
<text text-anchor="start" x="14" y="-80.5" font-family="Helvetica,sans-Serif" font-size="10.00">uint8_t h_size</text>
<text text-anchor="start" x="4" y="-65.5" font-family="Helvetica,sans-Serif" font-size="10.00">+</text>
<text text-anchor="start" x="14" y="-65.5" font-family="Helvetica,sans-Serif" font-size="10.00">uint8_t k_size</text>
<text text-anchor="start" x="4" y="-50.5" font-family="Helvetica,sans-Serif" font-size="10.00">+</text>
<text text-anchor="start" x="14" y="-50.5" font-family="Helvetica,sans-Serif" font-size="10.00">uint16_t v_size</text>
<text text-anchor="start" x="4" y="-35.5" font-family="Helvetica,sans-Serif" font-size="10.00">+</text>
<text text-anchor="start" x="14" y="-35.5" font-family="Helvetica,sans-Serif" font-size="10.00">uint32_t minsize</text>
<text text-anchor="start" x="4" y="-20.5" font-family="Helvetica,sans-Serif" font-size="10.00">+</text>
<text text-anchor="start" x="14" y="-20.5" font-family="Helvetica,sans-Serif" font-size="10.00">struct qh_u32_t::@23 @24</text>
<text text-anchor="start" x="65" y="-5.5" font-family="Helvetica,sans-Serif" font-size="10.00"> </text>
<polygon fill="#666666" stroke="#666666" points="0,-163 0,-163 133,-163 133,-163 0,-163"/>
<polygon fill="#666666" stroke="#666666" points="0,-17 0,-17 12,-17 12,-17 0,-17"/>
<polygon fill="#666666" stroke="#666666" points="12,-17 12,-17 133,-17 133,-17 12,-17"/>
<polygon fill="none" stroke="#666666" points="0,0 0,-180 133,-180 133,0 0,0"/>
</a>
</g>
</g>
<!-- Node2 -->
<g id="Node000002" class="node">
<title>Node2</title>
<g id="a_Node000002"><a xlink:href="../../d1/dd3/structqhash__t.html" target="_top" xlink:title=" ">
<polygon fill="white" stroke="none" points="207,-392.25 90,-392.25 90,-227.25 207,-227.25 207,-392.25"/>
<text text-anchor="start" x="131.25" y="-378.75" font-family="Helvetica,sans-Serif" font-size="10.00">qhash_t</text>
<text text-anchor="start" x="94" y="-363.75" font-family="Helvetica,sans-Serif" font-size="10.00">+</text>
<text text-anchor="start" x="104" y="-363.75" font-family="Helvetica,sans-Serif" font-size="10.00">uint8_t *nullable keys</text>
<text text-anchor="start" x="94" y="-348.75" font-family="Helvetica,sans-Serif" font-size="10.00">+</text>
<text text-anchor="start" x="104" y="-348.75" font-family="Helvetica,sans-Serif" font-size="10.00">uint8_t *nullable values</text>
<text text-anchor="start" x="94" y="-333.75" font-family="Helvetica,sans-Serif" font-size="10.00">+</text>
<text text-anchor="start" x="104" y="-333.75" font-family="Helvetica,sans-Serif" font-size="10.00">uint32_t *nullable</text>
<text text-anchor="start" x="104" y="-322.5" font-family="Helvetica,sans-Serif" font-size="10.00"> hashes</text>
<text text-anchor="start" x="94" y="-307.75" font-family="Helvetica,sans-Serif" font-size="10.00">+</text>
<text text-anchor="start" x="104" y="-307.75" font-family="Helvetica,sans-Serif" font-size="10.00">uint32_t ghosts</text>
<text text-anchor="start" x="94" y="-292.75" font-family="Helvetica,sans-Serif" font-size="10.00">+</text>
<text text-anchor="start" x="104" y="-292.75" font-family="Helvetica,sans-Serif" font-size="10.00">uint8_t h_size</text>
<text text-anchor="start" x="94" y="-277.75" font-family="Helvetica,sans-Serif" font-size="10.00">+</text>
<text text-anchor="start" x="104" y="-277.75" font-family="Helvetica,sans-Serif" font-size="10.00">uint8_t k_size</text>
<text text-anchor="start" x="94" y="-262.75" font-family="Helvetica,sans-Serif" font-size="10.00">+</text>
<text text-anchor="start" x="104" y="-262.75" font-family="Helvetica,sans-Serif" font-size="10.00">uint16_t v_size</text>
<text text-anchor="start" x="94" y="-247.75" font-family="Helvetica,sans-Serif" font-size="10.00">+</text>
<text text-anchor="start" x="104" y="-247.75" font-family="Helvetica,sans-Serif" font-size="10.00">uint32_t minsize</text>
<text text-anchor="start" x="147" y="-232.75" font-family="Helvetica,sans-Serif" font-size="10.00"> </text>
<polygon fill="#666666" stroke="#666666" points="90,-375.25 90,-375.25 207,-375.25 207,-375.25 90,-375.25"/>
<polygon fill="#666666" stroke="#666666" points="90,-244.25 90,-244.25 102,-244.25 102,-244.25 90,-244.25"/>
<polygon fill="#666666" stroke="#666666" points="102,-244.25 102,-244.25 207,-244.25 207,-244.25 102,-244.25"/>
<polygon fill="none" stroke="#666666" points="90,-227.25 90,-392.25 207,-392.25 207,-227.25 90,-227.25"/>
</a>
</g>
</g>
<!-- Node2&#45;&gt;Node1 -->
<g id="edge1_Node000001_Node000002" class="edge">
<title>Node2&#45;&gt;Node1</title>
<g id="a_edge1_Node000001_Node000002"><a xlink:title=" ">
<path fill="none" stroke="#63b8ff" d="M117.85,-227.36C113.48,-215.76 108.95,-203.72 104.46,-191.81"/>
<polygon fill="none" stroke="#63b8ff" points="104.55,-192.03 98.69,-187.83 100.32,-180.8 106.18,-185.01 104.55,-192.03"/>
</a>
</g>
<text text-anchor="middle" x="118.88" y="-199.75" font-family="Helvetica,sans-Serif" font-size="10.00" fill="grey"> +qh</text>
</g>
<!-- Node3 -->
<g id="Node000003" class="node">
<title>Node3</title>
<g id="a_Node000003"><a xlink:href="../../dc/d3e/structqhash__hdr__t.html" target="_top" xlink:title=" ">
<polygon fill="white" stroke="none" points="115.5,-529.75 17.5,-529.75 17.5,-450.75 115.5,-450.75 115.5,-529.75"/>
<text text-anchor="start" x="39.88" y="-516.25" font-family="Helvetica,sans-Serif" font-size="10.00">qhash_hdr_t</text>
<text text-anchor="start" x="21.5" y="-501.25" font-family="Helvetica,sans-Serif" font-size="10.00">+</text>
<text text-anchor="start" x="31.5" y="-501.25" font-family="Helvetica,sans-Serif" font-size="10.00">size_t *nonnull bits</text>
<text text-anchor="start" x="21.5" y="-486.25" font-family="Helvetica,sans-Serif" font-size="10.00">+</text>
<text text-anchor="start" x="31.5" y="-486.25" font-family="Helvetica,sans-Serif" font-size="10.00">uint32_t len</text>
<text text-anchor="start" x="21.5" y="-471.25" font-family="Helvetica,sans-Serif" font-size="10.00">+</text>
<text text-anchor="start" x="31.5" y="-471.25" font-family="Helvetica,sans-Serif" font-size="10.00">uint32_t size</text>
<text text-anchor="start" x="65" y="-456.25" font-family="Helvetica,sans-Serif" font-size="10.00"> </text>
<polygon fill="#666666" stroke="#666666" points="17.5,-512.75 17.5,-512.75 115.5,-512.75 115.5,-512.75 17.5,-512.75"/>
<polygon fill="#666666" stroke="#666666" points="17.5,-467.75 17.5,-467.75 29.5,-467.75 29.5,-467.75 17.5,-467.75"/>
<polygon fill="#666666" stroke="#666666" points="29.5,-467.75 29.5,-467.75 115.5,-467.75 115.5,-467.75 29.5,-467.75"/>
<polygon fill="none" stroke="#666666" points="17.5,-450.75 17.5,-529.75 115.5,-529.75 115.5,-450.75 17.5,-450.75"/>
</a>
</g>
</g>
<!-- Node3&#45;&gt;Node1 -->
<g id="edge5_Node000001_Node000003" class="edge">
<title>Node3&#45;&gt;Node1</title>
<g id="a_edge5_Node000001_Node000003"><a xlink:title=" ">
<path fill="none" stroke="#63b8ff" d="M63.23,-451.04C61.85,-433.2 60.42,-411.65 59.75,-392.25 57.2,-318.96 57.94,-300.56 59.75,-227.25 60.03,-215.95 60.44,-204.12 60.92,-192.37"/>
<polygon fill="none" stroke="#63b8ff" points="60.91,-192.55 57.18,-186.38 61.43,-180.56 65.17,-186.73 60.91,-192.55"/>
</a>
</g>
<text text-anchor="middle" x="71.38" y="-311.5" font-family="Helvetica,sans-Serif" font-size="10.00" fill="grey"> +hdr</text>
<text text-anchor="middle" x="71.38" y="-300.25" font-family="Helvetica,sans-Serif" font-size="10.00" fill="grey">+old</text>
</g>
<!-- Node3&#45;&gt;Node2 -->
<g id="edge2_Node000002_Node000003" class="edge">
<title>Node3&#45;&gt;Node2</title>
<g id="a_edge2_Node000002_Node000003"><a xlink:title=" ">
<path fill="none" stroke="#63b8ff" d="M84.09,-450.96C90.55,-436.89 98.18,-420.29 105.89,-403.51"/>
<polygon fill="none" stroke="#63b8ff" points="105.83,-403.63 104.7,-396.51 110.84,-392.72 111.97,-399.85 105.83,-403.63"/>
</a>
</g>
<text text-anchor="middle" x="113.38" y="-423.25" font-family="Helvetica,sans-Serif" font-size="10.00" fill="grey"> +hdr</text>
<text text-anchor="middle" x="113.38" y="-412" font-family="Helvetica,sans-Serif" font-size="10.00" fill="grey">+old</text>
</g>
<!-- Node4 -->
<g id="Node000004" class="node">
<title>Node4</title>
<g id="a_Node000004"><a xlink:href="../../d4/de3/structmem__pool__t.html" target="_top" xlink:title=" ">
<polygon fill="white" stroke="none" points="126.5,-686 6.5,-686 6.5,-577 126.5,-577 126.5,-686"/>
<text text-anchor="start" x="39.88" y="-672.5" font-family="Helvetica,sans-Serif" font-size="10.00">mem_pool_t</text>
<text text-anchor="start" x="10.5" y="-657.5" font-family="Helvetica,sans-Serif" font-size="10.00">+</text>
<text text-anchor="start" x="20.5" y="-657.5" font-family="Helvetica,sans-Serif" font-size="10.00">mem_flags_t mem_pool</text>
<text text-anchor="start" x="10.5" y="-642.5" font-family="Helvetica,sans-Serif" font-size="10.00">+</text>
<text text-anchor="start" x="20.5" y="-642.5" font-family="Helvetica,sans-Serif" font-size="10.00">uint32_t min_alignment</text>
<text text-anchor="start" x="10.5" y="-627.5" font-family="Helvetica,sans-Serif" font-size="10.00">+</text>
<text text-anchor="start" x="20.5" y="-627.5" font-family="Helvetica,sans-Serif" font-size="10.00">void *(* malloc</text>
<text text-anchor="start" x="10.5" y="-612.5" font-family="Helvetica,sans-Serif" font-size="10.00">+</text>
<text text-anchor="start" x="20.5" y="-612.5" font-family="Helvetica,sans-Serif" font-size="10.00">void *(* realloc</text>
<text text-anchor="start" x="10.5" y="-597.5" font-family="Helvetica,sans-Serif" font-size="10.00">+</text>
<text text-anchor="start" x="20.5" y="-597.5" font-family="Helvetica,sans-Serif" font-size="10.00">void(* free</text>
<text text-anchor="start" x="65" y="-582.5" font-family="Helvetica,sans-Serif" font-size="10.00"> </text>
<polygon fill="#666666" stroke="#666666" points="6.5,-669 6.5,-669 126.5,-669 126.5,-669 6.5,-669"/>
<polygon fill="#666666" stroke="#666666" points="6.5,-594 6.5,-594 18.5,-594 18.5,-594 6.5,-594"/>
<polygon fill="#666666" stroke="#666666" points="18.5,-594 18.5,-594 126.5,-594 126.5,-594 18.5,-594"/>
<polygon fill="none" stroke="#666666" points="6.5,-577 6.5,-686 126.5,-686 126.5,-577 6.5,-577"/>
</a>
</g>
</g>
<!-- Node4&#45;&gt;Node3 -->
<g id="edge3_Node000003_Node000004" class="edge">
<title>Node4&#45;&gt;Node3</title>
<g id="a_edge3_Node000003_Node000004"><a xlink:title=" ">
<path fill="none" stroke="#63b8ff" d="M66.5,-577.06C66.5,-565.7 66.5,-553.74 66.5,-542.47"/>
<polygon fill="none" stroke="#63b8ff" points="66.5,-542.54 62.5,-536.54 66.5,-530.54 70.5,-536.54 66.5,-542.54"/>
</a>
</g>
<text text-anchor="middle" x="77.38" y="-549.5" font-family="Helvetica,sans-Serif" font-size="10.00" fill="grey"> +mp</text>
</g>
<!-- Node4&#45;&gt;Node4 -->
<g id="edge4_Node000004_Node000004" class="edge">
<title>Node4&#45;&gt;Node4</title>
<g id="a_edge4_Node000004_Node000004"><a xlink:title=" ">
<path fill="none" stroke="#63b8ff" d="M126.35,-645.29C137.03,-643.5 144.5,-638.9 144.5,-631.5 144.5,-627.45 142.27,-624.24 138.5,-621.87"/>
<polygon fill="none" stroke="#63b8ff" points="138.55,-621.89 131.58,-623.73 127.2,-618 134.17,-616.16 138.55,-621.89"/>
</a>
</g>
<text text-anchor="middle" x="182.38" y="-627.62" font-family="Helvetica,sans-Serif" font-size="10.00" fill="grey"> +realloc_fallback</text>
</g>
</g>
</svg>

<g id="navigator" transform="translate(0 0)" fill="#404254">
  <rect fill="#f2f5e9" fill-opacity="0.5" stroke="#606060" stroke-width=".5" x="0" y="0" width="60" height="60"/>
  <use id="zoomplus" xlink:href="#zoomPlus" x="17" y="9" onmousedown="handleZoom(evt,'in')"/>
  <use id="zoomminus" xlink:href="#zoomMin" x="42" y="9" onmousedown="handleZoom(evt,'out')"/>
  <use id="reset" xlink:href="#resetDef" x="30" y="36" onmousedown="handleReset()"/>
   <use id="arrowup" xlink:href="#arrowUp" x="0" y="0" onmousedown="handlePan(0,-1)"/>
  <use id="arrowright" xlink:href="#arrowRight" x="0" y="0" onmousedown="handlePan(1,0)"/>
  <use id="arrowdown" xlink:href="#arrowDown" x="0" y="0" onmousedown="handlePan(0,1)"/>
  <use id="arrowleft" xlink:href="#arrowLeft" x="0" y="0" onmousedown="handlePan(-1,0)"/>
</g>
<svg viewBox="0 0 15 15" width="100%" height="30px" preserveAspectRatio="xMaxYMin meet">
 <g id="arrow_out" transform="scale(0.3 0.3)">
  <a xlink:href="unionqh__u32__t__coll__graph_org.svg" target="_base">
   <rect id="button" ry="5" rx="5" y="6" x="6" height="38" width="38"
        fill="#f2f5e9" fill-opacity="0.5" stroke="#606060" stroke-width="1.0"/>
   <path id="arrow"
     d="M 11.500037,31.436501 C 11.940474,20.09759 22.043105,11.32322 32.158766,21.979434 L 37.068811,17.246167 C 37.068811,17.246167 37.088388,32 37.088388,32 L 22.160133,31.978069 C 22.160133,31.978069 26.997745,27.140456 26.997745,27.140456 C 18.528582,18.264221 13.291696,25.230495 11.500037,31.436501 z"
     style="fill:#404040;"/>
  </a>
 </g>
</svg>

<style type='text/css'>
<![CDATA[
[data-mouse-over-selected='false'] { opacity: 0.7; }
[data-mouse-over-selected='true']  { opacity: 1.0; }
]]>
</style>
<script type="application/ecmascript"><![CDATA[
document.addEventListener('DOMContentLoaded', (event) => {
  highlightEdges();
  highlightAdjacentNodes();
});
]]></script>
</svg>
