<?xml version="1.0" encoding="UTF-8" standalone="no"?>
<!DOCTYPE svg PUBLIC "-//W3C//DTD SVG 1.1//EN"
 "http://www.w3.org/Graphics/SVG/1.1/DTD/svg11.dtd">
<!-- Generated by graphviz version 9.0.0 (20230911.1827)
 -->
<!-- Title: run_of Pages: 1 -->
<!--zoomable 249 -->

<svg id="main" version="1.1" xmlns="http://www.w3.org/2000/svg" xmlns:xlink="http://www.w3.org/1999/xlink" xml:space="preserve" onload="init(evt)">
<style type="text/css"><![CDATA[
.node, .edge {opacity: 0.7;}
.node.selected, .edge.selected {opacity: 1;}
.edge:hover path { stroke: red; }
.edge:hover polygon { stroke: red; fill: red; }
]]></style>

<defs>
  <circle id="rim" cx="0" cy="0" r="7"/>
  <circle id="rim2" cx="0" cy="0" r="3.5"/>
  <g id="zoomPlus">
    <use xlink:href="#rim" fill="#404040"><set attributeName="fill" to="#808080" begin="zoomplus.mouseover" end="zoomplus.mouseout"/></use>
    <path d="M-4,0h8M0,-4v8" fill="none" stroke="white" stroke-width="1.5" pointer-events="none"/>
  </g>
  <g id="zoomMin">
    <use xlink:href="#rim" fill="#404040"><set attributeName="fill" to="#808080" begin="zoomminus.mouseover" end="zoomminus.mouseout"/></use>
    <path d="M-4,0h8" fill="none" stroke="white" stroke-width="1.5" pointer-events="none"/>
  </g>
  <g id="arrowUp" transform="translate(30 24)">
    <use xlink:href="#rim"/>
    <path pointer-events="none" fill="none" stroke="white" stroke-width="1.5" d="M0,-3.0v7 M-2.5,-0.5L0,-3.0L2.5,-0.5"/>
  </g>
  <g id="arrowRight" transform="rotate(90) translate(36 -43)">
    <use xlink:href="#rim"/>
    <path pointer-events="none" fill="none" stroke="white" stroke-width="1.5" d="M0,-3.0v7 M-2.5,-0.5L0,-3.0L2.5,-0.5"/>
  </g>
  <g id="arrowDown" transform="rotate(180) translate(-30 -48)">
    <use xlink:href="#rim"/>
    <path pointer-events="none" fill="none" stroke="white" stroke-width="1.5" d="M0,-3.0v7 M-2.5,-0.5L0,-3.0L2.5,-0.5"/>
  </g>
  <g id="arrowLeft" transform="rotate(270) translate(-36 17)">
    <use xlink:href="#rim"/>
    <path pointer-events="none" fill="none" stroke="white" stroke-width="1.5" d="M0,-3.0v7 M-2.5,-0.5L0,-3.0L2.5,-0.5"/>
  </g>
  <g id="resetDef">
    <use xlink:href="#rim2" fill="#404040"><set attributeName="fill" to="#808080" begin="reset.mouseover" end="reset.mouseout"/></use>
  </g>
</defs>
<script type="application/ecmascript">
var viewWidth = 709;
var viewHeight = 249;
var sectionId = 'dynsection-40';
</script>
<script type="application/ecmascript" xlink:href="../../svg.min.js"/>
<svg id="graph" class="graph">
<g id="viewport">
<title>run_of</title>
<!-- Node1 -->
<g id="Node000001" class="node">
<title>Node1</title>
<g id="a_Node000001"><a xlink:title=" ">
<polygon fill="#999999" stroke="#666666" points="701.25,-128.25 658.25,-128.25 658.25,-109 701.25,-109 701.25,-128.25"/>
<text text-anchor="middle" x="679.75" y="-114.75" font-family="Helvetica,sans-Serif" font-size="10.00">run_of</text>
</a>
</g>
</g>
<!-- Node2 -->
<g id="Node000002" class="node">
<title>Node2</title>
<g id="a_Node000002"><a xlink:href="../../dc/d4b/qpage_8c.html#adf8d585efb518216ed714f79fe0117d0" target="_top" xlink:title=" ">
<polygon fill="white" stroke="#666666" points="622.25,-204.25 505.75,-204.25 505.75,-185 622.25,-185 622.25,-204.25"/>
<text text-anchor="middle" x="564" y="-190.75" font-family="Helvetica,sans-Serif" font-size="10.00">qpage_alloc_align_impl</text>
</a>
</g>
</g>
<!-- Node1&#45;&gt;Node2 -->
<g id="edge1_Node000001_Node000002" class="edge">
<title>Node1&#45;&gt;Node2</title>
<g id="a_edge1_Node000001_Node000002"><a xlink:title=" ">
<path fill="none" stroke="#63b8ff" d="M662.38,-136.58C651.74,-147.48 637.12,-161.08 622.25,-170.62 613.72,-176.1 603.74,-180.78 594.52,-184.53"/>
<polygon fill="#63b8ff" stroke="#63b8ff" points="664.62,-139.31 668.95,-129.65 659.53,-134.5 664.62,-139.31"/>
</a>
</g>
</g>
<!-- Node11 -->
<g id="Node000011" class="node">
<title>Node11</title>
<g id="a_Node000011"><a xlink:href="../../dc/d4b/qpage_8c.html#aeffd3197a8d1245f5179241732eebdf7" target="_top" xlink:title=" ">
<polygon fill="white" stroke="#666666" points="436.75,-166.25 393.75,-166.25 393.75,-147 436.75,-147 436.75,-166.25"/>
<text text-anchor="middle" x="415.25" y="-152.75" font-family="Helvetica,sans-Serif" font-size="10.00">remap</text>
</a>
</g>
</g>
<!-- Node1&#45;&gt;Node11 -->
<g id="edge21_Node000001_Node000011" class="edge">
<title>Node1&#45;&gt;Node11</title>
<g id="a_edge21_Node000001_Node000011"><a xlink:title=" ">
<path fill="none" stroke="#63b8ff" d="M647.1,-130.7C639.09,-133.36 630.44,-135.89 622.25,-137.62 555.66,-151.69 474.78,-155.34 437.25,-156.29"/>
<polygon fill="#63b8ff" stroke="#63b8ff" points="648.16,-134.04 656.45,-127.44 645.85,-127.43 648.16,-134.04"/>
</a>
</g>
</g>
<!-- Node14 -->
<g id="Node000014" class="node">
<title>Node14</title>
<g id="a_Node000014"><a xlink:href="../../dc/d4b/qpage_8c.html#a929c2204f5ed9c40b1246999f1df30ac" target="_top" xlink:title=" ">
<polygon fill="white" stroke="#666666" points="605.75,-128.25 522.25,-128.25 522.25,-109 605.75,-109 605.75,-128.25"/>
<text text-anchor="middle" x="564" y="-114.75" font-family="Helvetica,sans-Serif" font-size="10.00">qpage_find_seg</text>
</a>
</g>
</g>
<!-- Node1&#45;&gt;Node14 -->
<g id="edge13_Node000001_Node000014" class="edge">
<title>Node1&#45;&gt;Node14</title>
<g id="a_edge13_Node000001_Node000014"><a xlink:title=" ">
<path fill="none" stroke="#63b8ff" d="M646.53,-118.62C633.93,-118.62 619.33,-118.62 606,-118.62"/>
<polygon fill="#63b8ff" stroke="#63b8ff" points="646.37,-122.13 656.37,-118.63 646.37,-115.13 646.37,-122.13"/>
</a>
</g>
</g>
<!-- Node15 -->
<g id="Node000015" class="node">
<title>Node15</title>
<g id="a_Node000015"><a xlink:href="../../dc/d4b/qpage_8c.html#a884ba1fb902e4ea6bc81e8ba71730819" target="_top" xlink:title=" ">
<polygon fill="white" stroke="#666666" points="452.5,-90.25 378,-90.25 378,-71 452.5,-71 452.5,-90.25"/>
<text text-anchor="middle" x="415.25" y="-76.75" font-family="Helvetica,sans-Serif" font-size="10.00">qpage_free_n</text>
</a>
</g>
</g>
<!-- Node1&#45;&gt;Node15 -->
<g id="edge19_Node000001_Node000015" class="edge">
<title>Node1&#45;&gt;Node15</title>
<g id="a_edge19_Node000001_Node000015"><a xlink:title=" ">
<path fill="none" stroke="#63b8ff" d="M647.1,-106.55C639.09,-103.89 630.44,-101.36 622.25,-99.62 563.74,-87.27 494.2,-82.95 452.73,-81.44"/>
<polygon fill="#63b8ff" stroke="#63b8ff" points="645.85,-109.82 656.45,-109.81 648.16,-103.21 645.85,-109.82"/>
</a>
</g>
</g>
<!-- Node19 -->
<g id="Node000019" class="node">
<title>Node19</title>
<g id="a_Node000019"><a xlink:href="../../dc/d4b/qpage_8c.html#a619fe885a8e96fb4326a979fdf09b072" target="_top" xlink:title=" ">
<polygon fill="white" stroke="#666666" points="608.75,-52.25 519.25,-52.25 519.25,-33 608.75,-33 608.75,-52.25"/>
<text text-anchor="middle" x="564" y="-38.75" font-family="Helvetica,sans-Serif" font-size="10.00">qpage_shutdown</text>
</a>
</g>
</g>
<!-- Node1&#45;&gt;Node19 -->
<g id="edge20_Node000001_Node000019" class="edge">
<title>Node1&#45;&gt;Node19</title>
<g id="a_edge20_Node000001_Node000019"><a xlink:title=" ">
<path fill="none" stroke="#63b8ff" d="M662.38,-100.67C651.74,-89.77 637.12,-76.17 622.25,-66.62 613.72,-61.15 603.74,-56.47 594.52,-52.72"/>
<polygon fill="#63b8ff" stroke="#63b8ff" points="659.53,-102.75 668.95,-107.6 664.62,-97.94 659.53,-102.75"/>
</a>
</g>
</g>
<!-- Node3 -->
<g id="Node000003" class="node">
<title>Node3</title>
<g id="a_Node000003"><a xlink:href="../../dc/d4b/qpage_8c.html#a6116fe06d64f395dc548150f9fb5577d" target="_top" xlink:title=" ">
<polygon fill="white" stroke="#666666" points="461.88,-241.25 368.62,-241.25 368.62,-222 461.88,-222 461.88,-241.25"/>
<text text-anchor="middle" x="415.25" y="-227.75" font-family="Helvetica,sans-Serif" font-size="10.00">qpage_alloc_align</text>
</a>
</g>
</g>
<!-- Node2&#45;&gt;Node3 -->
<g id="edge2_Node000002_Node000003" class="edge">
<title>Node2&#45;&gt;Node3</title>
<g id="a_edge2_Node000002_Node000003"><a xlink:title=" ">
<path fill="none" stroke="#63b8ff" d="M511.87,-207.52C493.67,-212.11 473.44,-217.2 456.3,-221.53"/>
<polygon fill="#63b8ff" stroke="#63b8ff" points="512.59,-210.94 521.43,-205.11 510.88,-204.16 512.59,-210.94"/>
</a>
</g>
</g>
<!-- Node6 -->
<g id="Node000006" class="node">
<title>Node6</title>
<g id="a_Node000006"><a xlink:href="../../dc/d4b/qpage_8c.html#a196fb09789519f80cbf9afdf6e3af881" target="_top" xlink:title=" ">
<polygon fill="white" stroke="#666666" points="469.75,-204.25 360.75,-204.25 360.75,-185 469.75,-185 469.75,-204.25"/>
<text text-anchor="middle" x="415.25" y="-190.75" font-family="Helvetica,sans-Serif" font-size="10.00">qpage_allocraw_align</text>
</a>
</g>
</g>
<!-- Node2&#45;&gt;Node6 -->
<g id="edge5_Node000002_Node000006" class="edge">
<title>Node2&#45;&gt;Node6</title>
<g id="a_edge5_Node000002_Node000006"><a xlink:title=" ">
<path fill="none" stroke="#63b8ff" d="M494.02,-194.62C485.9,-194.62 477.7,-194.62 469.83,-194.62"/>
<polygon fill="#63b8ff" stroke="#63b8ff" points="493.91,-198.13 503.91,-194.63 493.91,-191.13 493.91,-198.13"/>
</a>
</g>
</g>
<!-- Node2&#45;&gt;Node11 -->
<g id="edge10_Node000002_Node000011" class="edge">
<title>Node2&#45;&gt;Node11</title>
<g id="a_edge10_Node000002_Node000011"><a xlink:title=" ">
<path fill="none" stroke="#63b8ff" d="M513.26,-181.74C487.32,-175.03 456.97,-167.17 437.22,-162.06"/>
<polygon fill="#63b8ff" stroke="#63b8ff" points="512.04,-185.04 522.59,-184.16 513.79,-178.27 512.04,-185.04"/>
</a>
</g>
</g>
<!-- Node4 -->
<g id="Node000004" class="node">
<title>Node4</title>
<g id="a_Node000004"><a xlink:href="../../d3/d50/qpage_8h.html#a83e6ff0b0fda3f71430787891e5d57fe" target="_top" xlink:title=" ">
<polygon fill="white" stroke="#666666" points="310.88,-241.25 232.62,-241.25 232.62,-222 310.88,-222 310.88,-241.25"/>
<text text-anchor="middle" x="271.75" y="-227.75" font-family="Helvetica,sans-Serif" font-size="10.00">qpage_alloc_n</text>
</a>
</g>
</g>
<!-- Node3&#45;&gt;Node4 -->
<g id="edge3_Node000003_Node000004" class="edge">
<title>Node3&#45;&gt;Node4</title>
<g id="a_edge3_Node000003_Node000004"><a xlink:title=" ">
<path fill="none" stroke="#63b8ff" d="M356.83,-231.62C341.53,-231.62 325.37,-231.62 311.35,-231.62"/>
<polygon fill="#63b8ff" stroke="#63b8ff" points="356.8,-235.13 366.8,-231.63 356.8,-228.13 356.8,-235.13"/>
</a>
</g>
</g>
<!-- Node5 -->
<g id="Node000005" class="node">
<title>Node5</title>
<g id="a_Node000005"><a xlink:href="../../d3/d50/qpage_8h.html#a3391026e2b9bd6bfb35e14f8e4eda6a1" target="_top" xlink:title=" ">
<polygon fill="white" stroke="#666666" points="174.88,-241.25 107.12,-241.25 107.12,-222 174.88,-222 174.88,-241.25"/>
<text text-anchor="middle" x="141" y="-227.75" font-family="Helvetica,sans-Serif" font-size="10.00">qpage_alloc</text>
</a>
</g>
</g>
<!-- Node4&#45;&gt;Node5 -->
<g id="edge4_Node000004_Node000005" class="edge">
<title>Node4&#45;&gt;Node5</title>
<g id="a_edge4_Node000004_Node000005"><a xlink:title=" ">
<path fill="none" stroke="#63b8ff" d="M221,-231.62C205.63,-231.62 189.08,-231.62 175.12,-231.62"/>
<polygon fill="#63b8ff" stroke="#63b8ff" points="220.96,-235.13 230.96,-231.63 220.96,-228.13 220.96,-235.13"/>
</a>
</g>
</g>
<!-- Node7 -->
<g id="Node000007" class="node">
<title>Node7</title>
<g id="a_Node000007"><a xlink:href="../../d3/d50/qpage_8h.html#a82b93f29d91bc5eb76bbbf8d3f3ae85c" target="_top" xlink:title=" ">
<polygon fill="white" stroke="#666666" points="318.75,-204.25 224.75,-204.25 224.75,-185 318.75,-185 318.75,-204.25"/>
<text text-anchor="middle" x="271.75" y="-190.75" font-family="Helvetica,sans-Serif" font-size="10.00">qpage_allocraw_n</text>
</a>
</g>
</g>
<!-- Node6&#45;&gt;Node7 -->
<g id="edge6_Node000006_Node000007" class="edge">
<title>Node6&#45;&gt;Node7</title>
<g id="a_edge6_Node000006_Node000007"><a xlink:title=" ">
<path fill="none" stroke="#63b8ff" d="M349.05,-194.62C338.94,-194.62 328.69,-194.62 319.11,-194.62"/>
<polygon fill="#63b8ff" stroke="#63b8ff" points="348.84,-198.13 358.84,-194.63 348.84,-191.13 348.84,-198.13"/>
</a>
</g>
</g>
<!-- Node8 -->
<g id="Node000008" class="node">
<title>Node8</title>
<g id="a_Node000008"><a xlink:href="../../d3/d50/qpage_8h.html#a8511dfc4b228a7cbc3777b77c9b9248e" target="_top" xlink:title=" ">
<polygon fill="white" stroke="#666666" points="182.75,-204.25 99.25,-204.25 99.25,-185 182.75,-185 182.75,-204.25"/>
<text text-anchor="middle" x="141" y="-190.75" font-family="Helvetica,sans-Serif" font-size="10.00">qpage_allocraw</text>
</a>
</g>
</g>
<!-- Node7&#45;&gt;Node8 -->
<g id="edge7_Node000007_Node000008" class="edge">
<title>Node7&#45;&gt;Node8</title>
<g id="a_edge7_Node000007_Node000008"><a xlink:title=" ">
<path fill="none" stroke="#63b8ff" d="M212.96,-194.62C202.81,-194.62 192.44,-194.62 182.87,-194.62"/>
<polygon fill="#63b8ff" stroke="#63b8ff" points="212.75,-198.13 222.75,-194.63 212.75,-191.13 212.75,-198.13"/>
</a>
</g>
</g>
<!-- Node9 -->
<g id="Node000009" class="node">
<title>Node9</title>
<g id="a_Node000009"><a xlink:href="../../dc/d4b/qpage_8c.html#a5ae6718000fcfb2973549d3e62ef98df" target="_top" xlink:title=" ">
<polygon fill="white" stroke="#666666" points="177.88,-167.25 104.12,-167.25 104.12,-148 177.88,-148 177.88,-167.25"/>
<text text-anchor="middle" x="141" y="-153.75" font-family="Helvetica,sans-Serif" font-size="10.00">qpage_dup_n</text>
</a>
</g>
</g>
<!-- Node7&#45;&gt;Node9 -->
<g id="edge8_Node000007_Node000009" class="edge">
<title>Node7&#45;&gt;Node9</title>
<g id="a_edge8_Node000007_Node000009"><a xlink:title=" ">
<path fill="none" stroke="#63b8ff" d="M224.53,-181.34C208.92,-176.86 191.75,-171.92 177.14,-167.72"/>
<polygon fill="#63b8ff" stroke="#63b8ff" points="223.54,-184.7 234.11,-184.1 225.47,-177.97 223.54,-184.7"/>
</a>
</g>
</g>
<!-- Node10 -->
<g id="Node000010" class="node">
<title>Node10</title>
<g id="a_Node000010"><a xlink:href="../../d3/d50/qpage_8h.html#a1bd1643a062804fbea2a463b1eea3e6b" target="_top" xlink:title=" ">
<polygon fill="white" stroke="#666666" points="63.25,-167.25 0,-167.25 0,-148 63.25,-148 63.25,-167.25"/>
<text text-anchor="middle" x="31.62" y="-153.75" font-family="Helvetica,sans-Serif" font-size="10.00">qpage_dup</text>
</a>
</g>
</g>
<!-- Node9&#45;&gt;Node10 -->
<g id="edge9_Node000009_Node000010" class="edge">
<title>Node9&#45;&gt;Node10</title>
<g id="a_edge9_Node000009_Node000010"><a xlink:title=" ">
<path fill="none" stroke="#63b8ff" d="M92.38,-157.62C82.61,-157.62 72.56,-157.62 63.57,-157.62"/>
<polygon fill="#63b8ff" stroke="#63b8ff" points="92.13,-161.13 102.13,-157.63 92.13,-154.13 92.13,-161.13"/>
</a>
</g>
</g>
<!-- Node12 -->
<g id="Node000012" class="node">
<title>Node12</title>
<g id="a_Node000012"><a xlink:href="../../dc/d4b/qpage_8c.html#a3a71e8f4c519eba2a937c5e557feea49" target="_top" xlink:title=" ">
<polygon fill="white" stroke="#666666" points="309,-167.25 234.5,-167.25 234.5,-148 309,-148 309,-167.25"/>
<text text-anchor="middle" x="271.75" y="-153.75" font-family="Helvetica,sans-Serif" font-size="10.00">qpage_remap</text>
</a>
</g>
</g>
<!-- Node11&#45;&gt;Node12 -->
<g id="edge11_Node000011_Node000012" class="edge">
<title>Node11&#45;&gt;Node12</title>
<g id="a_edge11_Node000011_Node000012"><a xlink:title=" ">
<path fill="none" stroke="#63b8ff" d="M382.15,-156.85C360.51,-157 331.91,-157.21 309.38,-157.37"/>
<polygon fill="#63b8ff" stroke="#63b8ff" points="381.88,-160.35 391.86,-156.78 381.83,-153.35 381.88,-160.35"/>
</a>
</g>
</g>
<!-- Node13 -->
<g id="Node000013" class="node">
<title>Node13</title>
<g id="a_Node000013"><a xlink:href="../../dc/d4b/qpage_8c.html#ae6d60dd6b383abe08af8398d5850e0a6" target="_top" xlink:title=" ">
<polygon fill="white" stroke="#666666" points="319.5,-130.25 224,-130.25 224,-111 319.5,-111 319.5,-130.25"/>
<text text-anchor="middle" x="271.75" y="-116.75" font-family="Helvetica,sans-Serif" font-size="10.00">qpage_remap_raw</text>
</a>
</g>
</g>
<!-- Node11&#45;&gt;Node13 -->
<g id="edge12_Node000011_Node000013" class="edge">
<title>Node11&#45;&gt;Node13</title>
<g id="a_edge12_Node000011_Node000013"><a xlink:title=" ">
<path fill="none" stroke="#63b8ff" d="M382.32,-148.5C361.64,-143.24 334.55,-136.35 312.48,-130.73"/>
<polygon fill="#63b8ff" stroke="#63b8ff" points="381.35,-151.87 391.9,-150.94 383.08,-145.08 381.35,-151.87"/>
</a>
</g>
</g>
<!-- Node14&#45;&gt;Node11 -->
<g id="edge18_Node000014_Node000011" class="edge">
<title>Node14&#45;&gt;Node11</title>
<g id="a_edge18_Node000014_Node000011"><a xlink:title=" ">
<path fill="none" stroke="#63b8ff" d="M513.26,-131.51C487.32,-138.22 456.97,-146.08 437.22,-151.19"/>
<polygon fill="#63b8ff" stroke="#63b8ff" points="513.79,-134.98 522.59,-129.09 512.04,-128.21 513.79,-134.98"/>
</a>
</g>
</g>
<!-- Node14&#45;&gt;Node15 -->
<g id="edge14_Node000014_Node000015" class="edge">
<title>Node14&#45;&gt;Node15</title>
<g id="a_edge14_Node000014_Node000015"><a xlink:title=" ">
<path fill="none" stroke="#63b8ff" d="M513.08,-105.7C493.34,-100.59 471.05,-94.82 452.85,-90.1"/>
<polygon fill="#63b8ff" stroke="#63b8ff" points="512.04,-109.04 522.59,-108.16 513.79,-102.27 512.04,-109.04"/>
</a>
</g>
</g>
<!-- Node16 -->
<g id="Node000016" class="node">
<title>Node16</title>
<g id="a_Node000016"><a xlink:href="../../d3/d50/qpage_8h.html#a57d5e6bb1c0d7b9b2ee23313eac99792" target="_top" xlink:title=" ">
<polygon fill="white" stroke="#666666" points="303.75,-93.25 239.75,-93.25 239.75,-74 303.75,-74 303.75,-93.25"/>
<text text-anchor="middle" x="271.75" y="-79.75" font-family="Helvetica,sans-Serif" font-size="10.00">qpage_free</text>
</a>
</g>
</g>
<!-- Node15&#45;&gt;Node16 -->
<g id="edge15_Node000015_Node000016" class="edge">
<title>Node15&#45;&gt;Node16</title>
<g id="a_edge15_Node000015_Node000016"><a xlink:title=" ">
<path fill="none" stroke="#63b8ff" d="M366.36,-81.64C345.7,-82.08 322.12,-82.58 303.79,-82.97"/>
<polygon fill="#63b8ff" stroke="#63b8ff" points="366.37,-85.14 376.3,-81.43 366.23,-78.14 366.37,-85.14"/>
</a>
</g>
</g>
<!-- Node17 -->
<g id="Node000017" class="node">
<title>Node17</title>
<g id="a_Node000017"><a xlink:href="../../d3/d50/qpage_8h.html#a5b0ac450e9511844f898b29886b745d5" target="_top" xlink:title=" ">
<polygon fill="white" stroke="#666666" points="324.75,-56.25 218.75,-56.25 218.75,-37 324.75,-37 324.75,-56.25"/>
<text text-anchor="middle" x="271.75" y="-42.75" font-family="Helvetica,sans-Serif" font-size="10.00">qpage_free_n_noseg</text>
</a>
</g>
</g>
<!-- Node15&#45;&gt;Node17 -->
<g id="edge16_Node000015_Node000017" class="edge">
<title>Node15&#45;&gt;Node17</title>
<g id="a_edge16_Node000015_Node000017"><a xlink:title=" ">
<path fill="none" stroke="#63b8ff" d="M367.05,-69.28C350.16,-65.23 331.26,-60.68 314.83,-56.74"/>
<polygon fill="#63b8ff" stroke="#63b8ff" points="365.8,-72.58 376.34,-71.52 367.43,-65.78 365.8,-72.58"/>
</a>
</g>
</g>
<!-- Node18 -->
<g id="Node000018" class="node">
<title>Node18</title>
<g id="a_Node000018"><a xlink:href="../../d3/d50/qpage_8h.html#affbe7a087fd7c644a360fa7aaee634f1" target="_top" xlink:title=" ">
<polygon fill="white" stroke="#666666" points="319.5,-19.25 224,-19.25 224,0 319.5,0 319.5,-19.25"/>
<text text-anchor="middle" x="271.75" y="-5.75" font-family="Helvetica,sans-Serif" font-size="10.00">qpage_free_noseg</text>
</a>
</g>
</g>
<!-- Node15&#45;&gt;Node18 -->
<g id="edge17_Node000015_Node000018" class="edge">
<title>Node15&#45;&gt;Node18</title>
<g id="a_edge17_Node000015_Node000018"><a xlink:title=" ">
<path fill="none" stroke="#63b8ff" d="M390.07,-64.49C372.46,-53.2 347.76,-38.29 324.75,-27.62 318.51,-24.73 311.67,-22.04 305.05,-19.67"/>
<polygon fill="#63b8ff" stroke="#63b8ff" points="387.99,-67.32 398.28,-69.84 391.81,-61.45 387.99,-67.32"/>
</a>
</g>
</g>
</g>
</svg>

<g id="navigator" transform="translate(0 0)" fill="#404254">
  <rect fill="#f2f5e9" fill-opacity="0.5" stroke="#606060" stroke-width=".5" x="0" y="0" width="60" height="60"/>
  <use id="zoomplus" xlink:href="#zoomPlus" x="17" y="9" onmousedown="handleZoom(evt,'in')"/>
  <use id="zoomminus" xlink:href="#zoomMin" x="42" y="9" onmousedown="handleZoom(evt,'out')"/>
  <use id="reset" xlink:href="#resetDef" x="30" y="36" onmousedown="handleReset()"/>
   <use id="arrowup" xlink:href="#arrowUp" x="0" y="0" onmousedown="handlePan(0,-1)"/>
  <use id="arrowright" xlink:href="#arrowRight" x="0" y="0" onmousedown="handlePan(1,0)"/>
  <use id="arrowdown" xlink:href="#arrowDown" x="0" y="0" onmousedown="handlePan(0,1)"/>
  <use id="arrowleft" xlink:href="#arrowLeft" x="0" y="0" onmousedown="handlePan(-1,0)"/>
</g>
<svg viewBox="0 0 15 15" width="100%" height="30px" preserveAspectRatio="xMaxYMin meet">
 <g id="arrow_out" transform="scale(0.3 0.3)">
  <a xlink:href="qpage_8c_afce0497578dec168fd971867c1b2bd50_icgraph_org.svg" target="_base">
   <rect id="button" ry="5" rx="5" y="6" x="6" height="38" width="38"
        fill="#f2f5e9" fill-opacity="0.5" stroke="#606060" stroke-width="1.0"/>
   <path id="arrow"
     d="M 11.500037,31.436501 C 11.940474,20.09759 22.043105,11.32322 32.158766,21.979434 L 37.068811,17.246167 C 37.068811,17.246167 37.088388,32 37.088388,32 L 22.160133,31.978069 C 22.160133,31.978069 26.997745,27.140456 26.997745,27.140456 C 18.528582,18.264221 13.291696,25.230495 11.500037,31.436501 z"
     style="fill:#404040;"/>
  </a>
 </g>
</svg>

<style type='text/css'>
<![CDATA[
[data-mouse-over-selected='false'] { opacity: 0.7; }
[data-mouse-over-selected='true']  { opacity: 1.0; }
]]>
</style>
<script type="application/ecmascript"><![CDATA[
document.addEventListener('DOMContentLoaded', (event) => {
  highlightEdges();
  highlightAdjacentNodes();
});
]]></script>
</svg>
