<?xml version="1.0" encoding="UTF-8" standalone="no"?>
<!DOCTYPE svg PUBLIC "-//W3C//DTD SVG 1.1//EN"
 "http://www.w3.org/Graphics/SVG/1.1/DTD/svg11.dtd">
<!-- Generated by graphviz version 9.0.0 (20230911.1827)
 -->
<!-- Title: thr_syn_declare_td Pages: 1 -->
<svg width="1288pt" height="162pt"
 viewBox="0.00 0.00 1287.75 161.94" xmlns="http://www.w3.org/2000/svg" xmlns:xlink="http://www.w3.org/1999/xlink">
<g id="graph0" class="graph" transform="scale(1 1) rotate(0) translate(4 157.94)">
<title>thr_syn_declare_td</title>
<!-- Node1 -->
<g id="Node000001" class="node">
<title>Node1</title>
<g id="a_Node000001"><a xlink:title=" ">
<polygon fill="#999999" stroke="#666666" points="1279.75,-95.94 1182,-95.94 1182,-76.69 1279.75,-76.69 1279.75,-95.94"/>
<text text-anchor="middle" x="1230.88" y="-82.44" font-family="Helvetica,sans-Serif" font-size="10.00">thr_syn_declare_td</text>
</a>
</g>
</g>
<!-- Node2 -->
<g id="Node000002" class="node">
<title>Node2</title>
<g id="a_Node000002"><a xlink:href="../../d0/d2d/iop_8blk.html#a6ffa7c98c28ca7da61905f61ca6ae706" target="_top" xlink:title=" ">
<polygon fill="white" stroke="#666666" points="1146,-124.94 1010,-124.94 1010,-105.69 1146,-105.69 1146,-124.94"/>
<text text-anchor="middle" x="1078" y="-111.44" font-family="Helvetica,sans-Serif" font-size="10.00">__iop_bpack_size_threaded</text>
</a>
</g>
</g>
<!-- Node1&#45;&gt;Node2 -->
<g id="edge1_Node000001_Node000002" class="edge">
<title>Node1&#45;&gt;Node2</title>
<g id="a_edge1_Node000001_Node000002"><a xlink:title=" ">
<path fill="none" stroke="#63b8ff" d="M1170.63,-97.71C1157.77,-100.18 1144.24,-102.78 1131.66,-105.2"/>
<polygon fill="#63b8ff" stroke="#63b8ff" points="1171.08,-101.19 1180.24,-95.86 1169.76,-94.31 1171.08,-101.19"/>
</a>
</g>
</g>
<!-- Node8 -->
<g id="Node000008" class="node">
<title>Node8</title>
<g id="a_Node000008"><a xlink:href="../../d0/d2d/iop_8blk.html#a8788779fedc998434546af685c871b7b" target="_top" xlink:title=" ">
<polygon fill="white" stroke="#666666" points="1142.62,-77.94 1013.38,-77.94 1013.38,-58.69 1142.62,-58.69 1142.62,-77.94"/>
<text text-anchor="middle" x="1078" y="-64.44" font-family="Helvetica,sans-Serif" font-size="10.00">pack_value_vec_threaded</text>
</a>
</g>
</g>
<!-- Node1&#45;&gt;Node8 -->
<g id="edge10_Node000001_Node000008" class="edge">
<title>Node1&#45;&gt;Node8</title>
<g id="a_edge10_Node000001_Node000008"><a xlink:title=" ">
<path fill="none" stroke="#63b8ff" d="M1170.48,-79.23C1161.44,-78.16 1152.08,-77.04 1142.94,-75.95"/>
<polygon fill="#63b8ff" stroke="#63b8ff" points="1169.88,-82.69 1180.22,-80.4 1170.7,-75.74 1169.88,-82.69"/>
</a>
</g>
</g>
<!-- Node3 -->
<g id="Node000003" class="node">
<title>Node3</title>
<g id="a_Node000003"><a xlink:href="../../d0/d2d/iop_8blk.html#a79a55994f81d6d1c7c20f9fb656c2603" target="_top" xlink:title=" ">
<polygon fill="white" stroke="#666666" points="974,-134.94 880.75,-134.94 880.75,-115.69 974,-115.69 974,-134.94"/>
<text text-anchor="middle" x="927.38" y="-121.44" font-family="Helvetica,sans-Serif" font-size="10.00">__iop_bpack_size</text>
</a>
</g>
</g>
<!-- Node2&#45;&gt;Node3 -->
<g id="edge2_Node000002_Node000003" class="edge">
<title>Node2&#45;&gt;Node3</title>
<g id="a_edge2_Node000002_Node000003"><a xlink:title=" ">
<path fill="none" stroke="#63b8ff" d="M998.38,-120.61C990.12,-121.17 981.94,-121.72 974.23,-122.23"/>
<polygon fill="#63b8ff" stroke="#63b8ff" points="998.39,-124.12 1008.14,-119.95 997.92,-117.13 998.39,-124.12"/>
</a>
</g>
</g>
<!-- Node3&#45;&gt;Node3 -->
<g id="edge3_Node000003_Node000003" class="edge">
<title>Node3&#45;&gt;Node3</title>
<g id="a_edge3_Node000003_Node000003"><a xlink:title=" ">
<path fill="none" stroke="#63b8ff" d="M952.85,-146.35C949.66,-150.22 941.17,-152.94 927.38,-152.94 902.15,-152.94 894.66,-143.84 904.91,-135.23"/>
<polygon fill="#63b8ff" stroke="#63b8ff" points="956.22,-145.43 950.24,-136.69 949.47,-147.26 956.22,-145.43"/>
</a>
</g>
</g>
<!-- Node4 -->
<g id="Node000004" class="node">
<title>Node4</title>
<g id="a_Node000004"><a xlink:href="../../d0/d2d/iop_8blk.html#a3970413e66e6f1b80c7784ca63068b88" target="_top" xlink:title=" ">
<polygon fill="white" stroke="#666666" points="844.75,-134.94 723,-134.94 723,-115.69 844.75,-115.69 844.75,-134.94"/>
<text text-anchor="middle" x="783.88" y="-121.44" font-family="Helvetica,sans-Serif" font-size="10.00">__iop_bpack_size_class</text>
</a>
</g>
</g>
<!-- Node3&#45;&gt;Node4 -->
<g id="edge4_Node000003_Node000004" class="edge">
<title>Node3&#45;&gt;Node4</title>
<g id="a_edge4_Node000003_Node000004"><a xlink:title=" ">
<path fill="none" stroke="#63b8ff" d="M869.05,-118.68C861.13,-118.55 852.98,-118.54 845.02,-118.64"/>
<polygon fill="#63b8ff" stroke="#63b8ff" points="868.84,-122.18 878.92,-118.92 869.01,-115.18 868.84,-122.18"/>
</a>
</g>
</g>
<!-- Node5 -->
<g id="Node000005" class="node">
<title>Node5</title>
<g id="a_Node000005"><a xlink:href="../../d0/d2d/iop_8blk.html#ae7a12e83b535a463ea20f6083e430ac9" target="_top" xlink:title=" ">
<polygon fill="white" stroke="#666666" points="687,-153.94 578.75,-153.94 578.75,-134.69 687,-134.69 687,-153.94"/>
<text text-anchor="middle" x="632.88" y="-140.44" font-family="Helvetica,sans-Serif" font-size="10.00">iop_bpack_size_flags</text>
</a>
</g>
</g>
<!-- Node3&#45;&gt;Node5 -->
<g id="edge9_Node000003_Node000005" class="edge">
<title>Node3&#45;&gt;Node5</title>
<g id="a_edge9_Node000003_Node000005"><a xlink:title=" ">
<path fill="none" stroke="#63b8ff" d="M879.86,-138.08C868.47,-140.67 856.24,-143 844.75,-144.32 791.47,-150.44 730.11,-149.56 687.37,-147.68"/>
<polygon fill="#63b8ff" stroke="#63b8ff" points="880.54,-141.52 889.45,-135.78 878.91,-134.71 880.54,-141.52"/>
</a>
</g>
</g>
<!-- Node4&#45;&gt;Node3 -->
<g id="edge5_Node000004_Node000003" class="edge">
<title>Node4&#45;&gt;Node3</title>
<g id="a_edge5_Node000004_Node000003"><a xlink:title=" ">
<path fill="none" stroke="#63b8ff" d="M856.49,-132.07C864.63,-132.06 872.76,-131.93 880.43,-131.69"/>
<polygon fill="#63b8ff" stroke="#63b8ff" points="856.55,-128.57 846.53,-132.01 856.51,-135.57 856.55,-128.57"/>
</a>
</g>
</g>
<!-- Node4&#45;&gt;Node5 -->
<g id="edge6_Node000004_Node000005" class="edge">
<title>Node4&#45;&gt;Node5</title>
<g id="a_edge6_Node000004_Node000005"><a xlink:title=" ">
<path fill="none" stroke="#63b8ff" d="M711.54,-134.42C703.3,-135.47 695.01,-136.52 687.07,-137.54"/>
<polygon fill="#63b8ff" stroke="#63b8ff" points="711.72,-137.92 721.2,-133.18 710.84,-130.98 711.72,-137.92"/>
</a>
</g>
</g>
<!-- Node6 -->
<g id="Node000006" class="node">
<title>Node6</title>
<g id="a_Node000006"><a xlink:href="../../d0/d2d/iop_8blk.html#a91d30ccf82d87c6141ec494d48feb96d" target="_top" xlink:title=" ">
<polygon fill="white" stroke="#666666" points="243.5,-121.57 134.5,-121.57 134.5,-91.07 243.5,-91.07 243.5,-121.57"/>
<text text-anchor="start" x="142.5" y="-108.07" font-family="Helvetica,sans-Serif" font-size="10.00">mp_iop_bpack_struct</text>
<text text-anchor="middle" x="189" y="-96.82" font-family="Helvetica,sans-Serif" font-size="10.00">_flags</text>
</a>
</g>
</g>
<!-- Node5&#45;&gt;Node6 -->
<g id="edge7_Node000005_Node000006" class="edge">
<title>Node5&#45;&gt;Node6</title>
<g id="a_edge7_Node000005_Node000006"><a xlink:title=" ">
<path fill="none" stroke="#63b8ff" d="M567.21,-138.76C479.75,-131.24 325.33,-117.96 243.83,-110.95"/>
<polygon fill="#63b8ff" stroke="#63b8ff" points="566.8,-142.24 577.07,-139.61 567.4,-135.26 566.8,-142.24"/>
</a>
</g>
</g>
<!-- Node7 -->
<g id="Node000007" class="node">
<title>Node7</title>
<g id="a_Node000007"><a xlink:href="../../d0/d2d/iop_8blk.html#a6f6f01f06b3babed245c93d95774a1dc" target="_top" xlink:title=" ">
<polygon fill="white" stroke="#666666" points="98.5,-121.57 0,-121.57 0,-91.07 98.5,-91.07 98.5,-121.57"/>
<text text-anchor="start" x="8" y="-108.07" font-family="Helvetica,sans-Serif" font-size="10.00">t_iop_bpack_struct</text>
<text text-anchor="middle" x="49.25" y="-96.82" font-family="Helvetica,sans-Serif" font-size="10.00">_flags</text>
</a>
</g>
</g>
<!-- Node6&#45;&gt;Node7 -->
<g id="edge8_Node000006_Node000007" class="edge">
<title>Node6&#45;&gt;Node7</title>
<g id="a_edge8_Node000006_Node000007"><a xlink:title=" ">
<path fill="none" stroke="#63b8ff" d="M122.88,-106.32C114.7,-106.32 106.45,-106.32 98.59,-106.32"/>
<polygon fill="#63b8ff" stroke="#63b8ff" points="122.83,-109.82 132.83,-106.32 122.83,-102.82 122.83,-109.82"/>
</a>
</g>
</g>
<!-- Node9 -->
<g id="Node000009" class="node">
<title>Node9</title>
<g id="a_Node000009"><a xlink:href="../../d0/d2d/iop_8blk.html#a4b195608d1f5a52f9385262ac791bce1" target="_top" xlink:title=" ">
<polygon fill="white" stroke="#666666" points="970.62,-58.94 884.12,-58.94 884.12,-39.69 970.62,-39.69 970.62,-58.94"/>
<text text-anchor="middle" x="927.38" y="-45.44" font-family="Helvetica,sans-Serif" font-size="10.00">pack_value_vec</text>
</a>
</g>
</g>
<!-- Node8&#45;&gt;Node9 -->
<g id="edge11_Node000008_Node000009" class="edge">
<title>Node8&#45;&gt;Node9</title>
<g id="a_edge11_Node000008_Node000009"><a xlink:title=" ">
<path fill="none" stroke="#63b8ff" d="M1001.96,-58.73C991.24,-57.36 980.54,-55.99 970.75,-54.74"/>
<polygon fill="#63b8ff" stroke="#63b8ff" points="1001.24,-62.16 1011.61,-59.96 1002.13,-55.22 1001.24,-62.16"/>
</a>
</g>
</g>
<!-- Node10 -->
<g id="Node000010" class="node">
<title>Node10</title>
<g id="a_Node000010"><a xlink:href="../../d0/d2d/iop_8blk.html#a9a5f03637d88396a249b46614e3b9ff1" target="_top" xlink:title=" ">
<polygon fill="white" stroke="#666666" points="817.38,-58.94 750.38,-58.94 750.38,-39.69 817.38,-39.69 817.38,-58.94"/>
<text text-anchor="middle" x="783.88" y="-45.44" font-family="Helvetica,sans-Serif" font-size="10.00">pack_struct</text>
</a>
</g>
</g>
<!-- Node9&#45;&gt;Node10 -->
<g id="edge12_Node000009_Node000010" class="edge">
<title>Node9&#45;&gt;Node10</title>
<g id="a_edge12_Node000009_Node000010"><a xlink:title=" ">
<path fill="none" stroke="#63b8ff" d="M872.44,-42.74C854.06,-42.36 834.08,-42.62 817.86,-43.51"/>
<polygon fill="#63b8ff" stroke="#63b8ff" points="872.31,-46.24 882.41,-43.03 872.51,-39.24 872.31,-46.24"/>
</a>
</g>
</g>
<!-- Node10&#45;&gt;Node9 -->
<g id="edge25_Node000010_Node000009" class="edge">
<title>Node10&#45;&gt;Node9</title>
<g id="a_edge25_Node000010_Node000009"><a xlink:title=" ">
<path fill="none" stroke="#63b8ff" d="M829.2,-55.63C846.67,-56.24 866.64,-56.21 883.92,-55.57"/>
<polygon fill="#63b8ff" stroke="#63b8ff" points="829.51,-52.14 819.37,-55.2 829.2,-59.14 829.51,-52.14"/>
</a>
</g>
</g>
<!-- Node11 -->
<g id="Node000011" class="node">
<title>Node11</title>
<g id="a_Node000011"><a xlink:href="../../d0/d2d/iop_8blk.html#abd9b85cf6f9cc27b40f0f99f97846fa8" target="_top" xlink:title=" ">
<polygon fill="white" stroke="#666666" points="339.75,-96.94 279.5,-96.94 279.5,-77.69 339.75,-77.69 339.75,-96.94"/>
<text text-anchor="middle" x="309.62" y="-83.44" font-family="Helvetica,sans-Serif" font-size="10.00">iop_bpack</text>
</a>
</g>
</g>
<!-- Node10&#45;&gt;Node11 -->
<g id="edge13_Node000010_Node000011" class="edge">
<title>Node10&#45;&gt;Node11</title>
<g id="a_edge13_Node000010_Node000011"><a xlink:title=" ">
<path fill="none" stroke="#63b8ff" d="M738.81,-52.87C643.55,-60.53 420.57,-78.47 340.18,-84.94"/>
<polygon fill="#63b8ff" stroke="#63b8ff" points="738.85,-56.37 748.53,-52.08 738.29,-49.4 738.85,-56.37"/>
</a>
</g>
</g>
<!-- Node12 -->
<g id="Node000012" class="node">
<title>Node12</title>
<g id="a_Node000012"><a xlink:href="../../d0/d2d/iop_8blk.html#aac48a58d335a76b2bae6b55fd787348d" target="_top" xlink:title=" ">
<polygon fill="white" stroke="#666666" points="665.62,-115.94 600.12,-115.94 600.12,-96.69 665.62,-96.69 665.62,-115.94"/>
<text text-anchor="middle" x="632.88" y="-102.44" font-family="Helvetica,sans-Serif" font-size="10.00">pack_class</text>
</a>
</g>
</g>
<!-- Node10&#45;&gt;Node12 -->
<g id="edge15_Node000010_Node000012" class="edge">
<title>Node10&#45;&gt;Node12</title>
<g id="a_edge15_Node000010_Node000012"><a xlink:title=" ">
<path fill="none" stroke="#63b8ff" d="M746.11,-63.38C719.45,-73.58 684.02,-87.14 660.16,-96.27"/>
<polygon fill="#63b8ff" stroke="#63b8ff" points="747.08,-66.76 755.17,-59.92 744.58,-60.22 747.08,-66.76"/>
</a>
</g>
</g>
<!-- Node13 -->
<g id="Node000013" class="node">
<title>Node13</title>
<g id="a_Node000013"><a xlink:href="../../d0/d2d/iop_8blk.html#a291d7e37275cd23f0e631a3bf1862f1d" target="_top" xlink:title=" ">
<polygon fill="white" stroke="#666666" points="542.75,-30.94 477.25,-30.94 477.25,-11.69 542.75,-11.69 542.75,-30.94"/>
<text text-anchor="middle" x="510" y="-17.44" font-family="Helvetica,sans-Serif" font-size="10.00">pack_value</text>
</a>
</g>
</g>
<!-- Node10&#45;&gt;Node13 -->
<g id="edge24_Node000010_Node000013" class="edge">
<title>Node10&#45;&gt;Node13</title>
<g id="a_edge24_Node000010_Node000013"><a xlink:title=" ">
<path fill="none" stroke="#63b8ff" d="M738.98,-39.68C684.16,-31.68 591.68,-22.35 543.07,-20.08"/>
<polygon fill="#63b8ff" stroke="#63b8ff" points="738.17,-43.09 748.58,-41.13 739.22,-36.17 738.17,-43.09"/>
</a>
</g>
</g>
<!-- Node11&#45;&gt;Node6 -->
<g id="edge14_Node000011_Node000006" class="edge">
<title>Node11&#45;&gt;Node6</title>
<g id="a_edge14_Node000011_Node000006"><a xlink:title=" ">
<path fill="none" stroke="#63b8ff" d="M268,-93.83C260.25,-95.07 252.04,-96.38 243.96,-97.68"/>
<polygon fill="#63b8ff" stroke="#63b8ff" points="268.49,-97.29 277.81,-92.26 267.38,-90.38 268.49,-97.29"/>
</a>
</g>
</g>
<!-- Node12&#45;&gt;Node9 -->
<g id="edge23_Node000012_Node000009" class="edge">
<title>Node12&#45;&gt;Node9</title>
<g id="a_edge23_Node000012_Node000009"><a xlink:title=" ">
<path fill="none" stroke="#63b8ff" d="M676.87,-99.23C719.57,-92.03 786.85,-80.27 844.75,-68.32 857.86,-65.61 872.09,-62.4 884.94,-59.39"/>
<polygon fill="#63b8ff" stroke="#63b8ff" points="676.54,-95.73 667.26,-100.84 677.7,-102.63 676.54,-95.73"/>
</a>
</g>
</g>
<!-- Node12&#45;&gt;Node11 -->
<g id="edge16_Node000012_Node000011" class="edge">
<title>Node12&#45;&gt;Node11</title>
<g id="a_edge16_Node000012_Node000011"><a xlink:title=" ">
<path fill="none" stroke="#63b8ff" d="M588.61,-103.76C522.25,-99.84 397.05,-92.43 340.13,-89.07"/>
<polygon fill="#63b8ff" stroke="#63b8ff" points="588.2,-107.24 598.39,-104.34 588.61,-100.25 588.2,-107.24"/>
</a>
</g>
</g>
<!-- Node12&#45;&gt;Node13 -->
<g id="edge17_Node000012_Node000013" class="edge">
<title>Node12&#45;&gt;Node13</title>
<g id="a_edge17_Node000012_Node000013"><a xlink:title=" ">
<path fill="none" stroke="#63b8ff" d="M608.18,-89.65C583.53,-72.33 545.76,-45.76 525.32,-31.39"/>
<polygon fill="#63b8ff" stroke="#63b8ff" points="606.1,-92.48 616.3,-95.36 610.13,-86.75 606.1,-92.48"/>
</a>
</g>
</g>
<!-- Node13&#45;&gt;Node10 -->
<g id="edge18_Node000013_Node000010" class="edge">
<title>Node13&#45;&gt;Node10</title>
<g id="a_edge18_Node000013_Node000010"><a xlink:title=" ">
<path fill="none" stroke="#63b8ff" d="M554.42,-30.9C608.91,-38.86 701.13,-48.19 750.08,-50.53"/>
<polygon fill="#63b8ff" stroke="#63b8ff" points="554.98,-27.44 544.56,-29.39 553.92,-34.36 554.98,-27.44"/>
</a>
</g>
</g>
<!-- Node14 -->
<g id="Node000014" class="node">
<title>Node14</title>
<g id="a_Node000014"><a xlink:href="../../d0/d2d/iop_8blk.html#a89ee5a72760ef580818d91c363676e9f" target="_top" xlink:title=" ">
<polygon fill="white" stroke="#666666" points="441.25,-30.94 375.75,-30.94 375.75,-11.69 441.25,-11.69 441.25,-30.94"/>
<text text-anchor="middle" x="408.5" y="-17.44" font-family="Helvetica,sans-Serif" font-size="10.00">pack_union</text>
</a>
</g>
</g>
<!-- Node13&#45;&gt;Node14 -->
<g id="edge19_Node000013_Node000014" class="edge">
<title>Node13&#45;&gt;Node14</title>
<g id="a_edge19_Node000013_Node000014"><a xlink:title=" ">
<path fill="none" stroke="#63b8ff" d="M465.71,-14.62C457.57,-14.49 449.19,-14.61 441.47,-14.97"/>
<polygon fill="#63b8ff" stroke="#63b8ff" points="465.35,-18.11 475.46,-14.92 465.57,-11.11 465.35,-18.11"/>
</a>
</g>
</g>
<!-- Node14&#45;&gt;Node9 -->
<g id="edge22_Node000014_Node000009" class="edge">
<title>Node14&#45;&gt;Node9</title>
<g id="a_edge22_Node000014_Node000009"><a xlink:title=" ">
<path fill="none" stroke="#63b8ff" d="M449.77,-8.08C458.72,-5.69 468.23,-3.56 477.25,-2.32 506.09,1.65 513.67,-0.97 542.75,-2.32 677.4,-8.55 711.69,-8.77 844.75,-30.32 858.97,-32.62 874.4,-35.99 887.97,-39.25"/>
<polygon fill="#63b8ff" stroke="#63b8ff" points="448.92,-4.69 440.27,-10.8 450.84,-11.42 448.92,-4.69"/>
</a>
</g>
</g>
<!-- Node14&#45;&gt;Node11 -->
<g id="edge20_Node000014_Node000011" class="edge">
<title>Node14&#45;&gt;Node11</title>
<g id="a_edge20_Node000014_Node000011"><a xlink:title=" ">
<path fill="none" stroke="#63b8ff" d="M383.42,-37.72C365.25,-50.1 340.89,-66.7 325.48,-77.2"/>
<polygon fill="#63b8ff" stroke="#63b8ff" points="385.24,-40.72 391.54,-32.2 381.3,-34.93 385.24,-40.72"/>
</a>
</g>
</g>
<!-- Node14&#45;&gt;Node13 -->
<g id="edge21_Node000014_Node000013" class="edge">
<title>Node14&#45;&gt;Node13</title>
<g id="a_edge21_Node000014_Node000013"><a xlink:title=" ">
<path fill="none" stroke="#63b8ff" d="M452.73,-28.02C460.87,-28.15 469.25,-28.03 476.97,-27.67"/>
<polygon fill="#63b8ff" stroke="#63b8ff" points="453.09,-24.53 442.98,-27.72 452.87,-31.52 453.09,-24.53"/>
</a>
</g>
</g>
</g>
</svg>
