<?xml version="1.0" encoding="UTF-8" standalone="no"?>
<!DOCTYPE svg PUBLIC "-//W3C//DTD SVG 1.1//EN"
 "http://www.w3.org/Graphics/SVG/1.1/DTD/svg11.dtd">
<!-- Generated by graphviz version 9.0.0 (20230911.1827)
 -->
<!-- Title: thr_syn_queue Pages: 1 -->
<svg width="519pt" height="140pt"
 viewBox="0.00 0.00 519.25 140.25" xmlns="http://www.w3.org/2000/svg" xmlns:xlink="http://www.w3.org/1999/xlink">
<g id="graph0" class="graph" transform="scale(1 1) rotate(0) translate(4 136.25)">
<title>thr_syn_queue</title>
<!-- Node1 -->
<g id="Node000001" class="node">
<title>Node1</title>
<g id="a_Node000001"><a xlink:title=" ">
<polygon fill="#999999" stroke="#666666" points="79,-76.25 0,-76.25 0,-57 79,-57 79,-76.25"/>
<text text-anchor="middle" x="39.5" y="-62.75" font-family="Helvetica,sans-Serif" font-size="10.00">thr_syn_queue</text>
</a>
</g>
</g>
<!-- Node2 -->
<g id="Node000002" class="node">
<title>Node2</title>
<g id="a_Node000002"><a xlink:href="../../dc/d4b/thr-job_8blk.html#a02d717a6022ccb52828c6c242cbbb9ac" target="_top" xlink:title=" ">
<polygon fill="white" stroke="#666666" points="206,-132.25 115,-132.25 115,-113 206,-113 206,-132.25"/>
<text text-anchor="middle" x="160.5" y="-118.75" font-family="Helvetica,sans-Serif" font-size="10.00">thr_qnode_create</text>
</a>
</g>
</g>
<!-- Node1&#45;&gt;Node2 -->
<g id="edge1_Node000001_Node000002" class="edge">
<title>Node1&#45;&gt;Node2</title>
<g id="a_edge1_Node000001_Node000002"><a xlink:title=" ">
<path fill="none" stroke="#63b8ff" d="M58.96,-76.61C73.9,-84.55 95.58,-95.77 115,-104.62 117.59,-105.81 120.28,-106.99 122.99,-108.16"/>
<polygon fill="#63b8ff" stroke="#63b8ff" points="121.48,-111.32 132.06,-111.95 124.18,-104.86 121.48,-111.32"/>
</a>
</g>
</g>
<!-- Node4 -->
<g id="Node000004" class="node">
<title>Node4</title>
<g id="a_Node000004"><a xlink:href="../../dc/d4b/thr-job_8blk.html#a668ce2dfb4d918e07acb810e869ab262" target="_top" xlink:title=" ">
<polygon fill="white" stroke="#666666" points="196.25,-95.25 124.75,-95.25 124.75,-76 196.25,-76 196.25,-95.25"/>
<text text-anchor="middle" x="160.5" y="-81.75" font-family="Helvetica,sans-Serif" font-size="10.00">thr_schedule</text>
</a>
</g>
</g>
<!-- Node1&#45;&gt;Node4 -->
<g id="edge3_Node000001_Node000004" class="edge">
<title>Node1&#45;&gt;Node4</title>
<g id="a_edge3_Node000001_Node000004"><a xlink:title=" ">
<path fill="none" stroke="#63b8ff" d="M79.47,-72.85C90.23,-74.57 102.02,-76.45 113.16,-78.23"/>
<polygon fill="#63b8ff" stroke="#63b8ff" points="112.54,-81.67 122.97,-79.79 113.65,-74.76 112.54,-81.67"/>
</a>
</g>
</g>
<!-- Node5 -->
<g id="Node000005" class="node">
<title>Node5</title>
<g id="a_Node000005"><a xlink:href="../../dc/d4b/thr-job_8blk.html#a395d4cc4e93ecb9a309c6b2f26ed3b6f" target="_top" xlink:title=" ">
<polygon fill="white" stroke="#666666" points="333.75,-76.25 242,-76.25 242,-57 333.75,-57 333.75,-76.25"/>
<text text-anchor="middle" x="287.88" y="-62.75" font-family="Helvetica,sans-Serif" font-size="10.00">thr_syn_schedule</text>
</a>
</g>
</g>
<!-- Node1&#45;&gt;Node5 -->
<g id="edge7_Node000001_Node000005" class="edge">
<title>Node1&#45;&gt;Node5</title>
<g id="a_edge7_Node000001_Node000005"><a xlink:title=" ">
<path fill="none" stroke="#63b8ff" d="M79.27,-66.62C119.87,-66.62 184.04,-66.62 230.3,-66.62"/>
<polygon fill="#63b8ff" stroke="#63b8ff" points="230.13,-70.13 240.13,-66.63 230.13,-63.13 230.13,-70.13"/>
</a>
</g>
</g>
<!-- Node8 -->
<g id="Node000008" class="node">
<title>Node8</title>
<g id="a_Node000008"><a xlink:href="../../dc/d4b/thr-job_8blk.html#afa5180e79e59d64ab04e7bee3b1f5ebe" target="_top" xlink:title=" ">
<polygon fill="white" stroke="#666666" points="204.5,-19.25 116.5,-19.25 116.5,0 204.5,0 204.5,-19.25"/>
<text text-anchor="middle" x="160.5" y="-5.75" font-family="Helvetica,sans-Serif" font-size="10.00">thr_wakeup_thr0</text>
</a>
</g>
</g>
<!-- Node1&#45;&gt;Node8 -->
<g id="edge8_Node000001_Node000008" class="edge">
<title>Node1&#45;&gt;Node8</title>
<g id="a_edge8_Node000001_Node000008"><a xlink:title=" ">
<path fill="none" stroke="#63b8ff" d="M61.5,-56.57C80.02,-47.69 107.27,-34.64 128.34,-24.55"/>
<polygon fill="#63b8ff" stroke="#63b8ff" points="129.84,-27.71 137.34,-20.24 126.81,-21.4 129.84,-27.71"/>
</a>
</g>
</g>
<!-- Node3 -->
<g id="Node000003" class="node">
<title>Node3</title>
<g id="a_Node000003"><a xlink:href="../../dc/d4b/thr-job_8blk.html#a2a0519704b0ed015af53aa6fc4a72c3c" target="_top" xlink:title=" ">
<polygon fill="white" stroke="#666666" points="324,-132.25 251.75,-132.25 251.75,-113 324,-113 324,-132.25"/>
<text text-anchor="middle" x="287.88" y="-118.75" font-family="Helvetica,sans-Serif" font-size="10.00">thr_qnode_of</text>
</a>
</g>
</g>
<!-- Node2&#45;&gt;Node3 -->
<g id="edge2_Node000002_Node000003" class="edge">
<title>Node2&#45;&gt;Node3</title>
<g id="a_edge2_Node000002_Node000003"><a xlink:title=" ">
<path fill="none" stroke="#63b8ff" d="M206.41,-122.62C217.36,-122.62 229.1,-122.62 240.14,-122.62"/>
<polygon fill="#63b8ff" stroke="#63b8ff" points="239.8,-126.13 249.8,-122.63 239.8,-119.13 239.8,-126.13"/>
</a>
</g>
</g>
<!-- Node4&#45;&gt;Node5 -->
<g id="edge4_Node000004_Node000005" class="edge">
<title>Node4&#45;&gt;Node5</title>
<g id="a_edge4_Node000004_Node000005"><a xlink:title=" ">
<path fill="none" stroke="#63b8ff" d="M196.42,-80.33C207.08,-78.72 219.07,-76.9 230.75,-75.13"/>
<polygon fill="#63b8ff" stroke="#63b8ff" points="230.95,-78.64 240.31,-73.68 229.9,-71.72 230.95,-78.64"/>
</a>
</g>
</g>
<!-- Node6 -->
<g id="Node000006" class="node">
<title>Node6</title>
<g id="a_Node000006"><a xlink:href="../../dc/d4b/thr-job_8blk.html#a16bb35ef03b7c4227b2ab175d2541381" target="_top" xlink:title=" ">
<polygon fill="white" stroke="#666666" points="417.25,-76.25 369.75,-76.25 369.75,-57 417.25,-57 417.25,-76.25"/>
<text text-anchor="middle" x="393.5" y="-62.75" font-family="Helvetica,sans-Serif" font-size="10.00">job_run</text>
</a>
</g>
</g>
<!-- Node5&#45;&gt;Node6 -->
<g id="edge5_Node000005_Node000006" class="edge">
<title>Node5&#45;&gt;Node6</title>
<g id="a_edge5_Node000005_Node000006"><a xlink:title=" ">
<path fill="none" stroke="#63b8ff" d="M334.02,-66.62C342.04,-66.62 350.28,-66.62 357.94,-66.62"/>
<polygon fill="#63b8ff" stroke="#63b8ff" points="357.89,-70.13 367.89,-66.63 357.89,-63.13 357.89,-70.13"/>
</a>
</g>
</g>
<!-- Node7 -->
<g id="Node000007" class="node">
<title>Node7</title>
<g id="a_Node000007"><a xlink:href="../../de/d1b/datetime_8h.html#a1bd62cd344b57b3239087cd8f11f9793" target="_top" xlink:title=" ">
<polygon fill="white" stroke="#666666" points="511.25,-76.25 453.25,-76.25 453.25,-57 511.25,-57 511.25,-76.25"/>
<text text-anchor="middle" x="482.25" y="-62.75" font-family="Helvetica,sans-Serif" font-size="10.00">hardclock</text>
</a>
</g>
</g>
<!-- Node6&#45;&gt;Node7 -->
<g id="edge6_Node000006_Node000007" class="edge">
<title>Node6&#45;&gt;Node7</title>
<g id="a_edge6_Node000006_Node000007"><a xlink:title=" ">
<path fill="none" stroke="#63b8ff" d="M417.75,-66.62C425.12,-66.62 433.48,-66.62 441.66,-66.62"/>
<polygon fill="#63b8ff" stroke="#63b8ff" points="441.47,-70.13 451.47,-66.63 441.47,-63.13 441.47,-70.13"/>
</a>
</g>
</g>
<!-- Node9 -->
<g id="Node000009" class="node">
<title>Node9</title>
<g id="a_Node000009"><a xlink:href="../../da/d9c/group__lc__el.html#ga44576e5e6d66b89e2763eb049175fb79" target="_top" xlink:title=" ">
<polygon fill="white" stroke="#666666" points="322.88,-19.25 252.88,-19.25 252.88,0 322.88,0 322.88,-19.25"/>
<text text-anchor="middle" x="287.88" y="-5.75" font-family="Helvetica,sans-Serif" font-size="10.00">el_wake_fire</text>
</a>
</g>
</g>
<!-- Node8&#45;&gt;Node9 -->
<g id="edge9_Node000008_Node000009" class="edge">
<title>Node8&#45;&gt;Node9</title>
<g id="a_edge9_Node000008_Node000009"><a xlink:title=" ">
<path fill="none" stroke="#63b8ff" d="M205,-9.62C216.67,-9.62 229.32,-9.62 241.11,-9.62"/>
<polygon fill="#63b8ff" stroke="#63b8ff" points="241.03,-13.13 251.03,-9.63 241.03,-6.13 241.03,-13.13"/>
</a>
</g>
</g>
</g>
</svg>
