<?xml version="1.0" encoding="UTF-8" standalone="no"?>
<!DOCTYPE svg PUBLIC "-//W3C//DTD SVG 1.1//EN"
 "http://www.w3.org/Graphics/SVG/1.1/DTD/svg11.dtd">
<!-- Generated by graphviz version 9.0.0 (20230911.1827)
 -->
<!-- Title: thr_syn_schedule Pages: 1 -->
<svg width="277pt" height="27pt"
 viewBox="0.00 0.00 277.25 27.25" xmlns="http://www.w3.org/2000/svg" xmlns:xlink="http://www.w3.org/1999/xlink">
<g id="graph0" class="graph" transform="scale(1 1) rotate(0) translate(4 23.25)">
<title>thr_syn_schedule</title>
<!-- Node1 -->
<g id="Node000001" class="node">
<title>Node1</title>
<g id="a_Node000001"><a xlink:title=" ">
<polygon fill="#999999" stroke="#666666" points="91.75,-19.25 0,-19.25 0,0 91.75,0 91.75,-19.25"/>
<text text-anchor="middle" x="45.88" y="-5.75" font-family="Helvetica,sans-Serif" font-size="10.00">thr_syn_schedule</text>
</a>
</g>
</g>
<!-- Node2 -->
<g id="Node000002" class="node">
<title>Node2</title>
<g id="a_Node000002"><a xlink:href="../../dc/d4b/thr-job_8blk.html#a16bb35ef03b7c4227b2ab175d2541381" target="_top" xlink:title=" ">
<polygon fill="white" stroke="#666666" points="175.25,-19.25 127.75,-19.25 127.75,0 175.25,0 175.25,-19.25"/>
<text text-anchor="middle" x="151.5" y="-5.75" font-family="Helvetica,sans-Serif" font-size="10.00">job_run</text>
</a>
</g>
</g>
<!-- Node1&#45;&gt;Node2 -->
<g id="edge1_Node000001_Node000002" class="edge">
<title>Node1&#45;&gt;Node2</title>
<g id="a_edge1_Node000001_Node000002"><a xlink:title=" ">
<path fill="none" stroke="#63b8ff" d="M92.02,-9.62C100.04,-9.62 108.28,-9.62 115.94,-9.62"/>
<polygon fill="#63b8ff" stroke="#63b8ff" points="115.89,-13.13 125.89,-9.63 115.89,-6.13 115.89,-13.13"/>
</a>
</g>
</g>
<!-- Node3 -->
<g id="Node000003" class="node">
<title>Node3</title>
<g id="a_Node000003"><a xlink:href="../../de/d1b/datetime_8h.html#a1bd62cd344b57b3239087cd8f11f9793" target="_top" xlink:title=" ">
<polygon fill="white" stroke="#666666" points="269.25,-19.25 211.25,-19.25 211.25,0 269.25,0 269.25,-19.25"/>
<text text-anchor="middle" x="240.25" y="-5.75" font-family="Helvetica,sans-Serif" font-size="10.00">hardclock</text>
</a>
</g>
</g>
<!-- Node2&#45;&gt;Node3 -->
<g id="edge2_Node000002_Node000003" class="edge">
<title>Node2&#45;&gt;Node3</title>
<g id="a_edge2_Node000002_Node000003"><a xlink:title=" ">
<path fill="none" stroke="#63b8ff" d="M175.75,-9.62C183.12,-9.62 191.48,-9.62 199.66,-9.62"/>
<polygon fill="#63b8ff" stroke="#63b8ff" points="199.47,-13.13 209.47,-9.63 199.47,-6.13 199.47,-13.13"/>
</a>
</g>
</g>
</g>
</svg>
