<?xml version="1.0" encoding="UTF-8" standalone="no"?>
<!DOCTYPE svg PUBLIC "-//W3C//DTD SVG 1.1//EN"
 "http://www.w3.org/Graphics/SVG/1.1/DTD/svg11.dtd">
<!-- Generated by graphviz version 9.0.0 (20230911.1827)
 -->
<!-- Title: xmlr_scan_node Pages: 1 -->
<svg width="2027pt" height="634pt"
 viewBox="0.00 0.00 2027.00 634.00" xmlns="http://www.w3.org/2000/svg" xmlns:xlink="http://www.w3.org/1999/xlink">
<g id="graph0" class="graph" transform="scale(1 1) rotate(0) translate(4 630)">
<title>xmlr_scan_node</title>
<!-- Node1 -->
<g id="Node000001" class="node">
<title>Node1</title>
<g id="a_Node000001"><a xlink:title=" ">
<polygon fill="#999999" stroke="#666666" points="2019,-407.62 1932.5,-407.62 1932.5,-388.38 2019,-388.38 2019,-407.62"/>
<text text-anchor="middle" x="1975.75" y="-394.12" font-family="Helvetica,sans-Serif" font-size="10.00">xmlr_scan_node</text>
</a>
</g>
</g>
<!-- Node2 -->
<g id="Node000002" class="node">
<title>Node2</title>
<g id="a_Node000002"><a xlink:href="../../d7/d61/xmlr_8c.html#a2a53633554a053bdbfbe6bbd52fe0191" target="_top" xlink:title=" ">
<polygon fill="white" stroke="#666666" points="1777,-427.62 1676.25,-427.62 1676.25,-408.38 1777,-408.38 1777,-427.62"/>
<text text-anchor="middle" x="1726.62" y="-414.12" font-family="Helvetica,sans-Serif" font-size="10.00">xmlr_get_cstr_done</text>
</a>
</g>
</g>
<!-- Node1&#45;&gt;Node2 -->
<g id="edge1_Node000001_Node000002" class="edge">
<title>Node1&#45;&gt;Node2</title>
<g id="a_edge1_Node000001_Node000002"><a xlink:title=" ">
<path fill="none" stroke="#63b8ff" d="M1920.95,-402.35C1878.18,-405.82 1818.82,-410.62 1777.2,-413.99"/>
<polygon fill="#63b8ff" stroke="#63b8ff" points="1921.07,-405.86 1930.76,-401.56 1920.51,-398.88 1921.07,-405.86"/>
</a>
</g>
</g>
<!-- Node21 -->
<g id="Node000021" class="node">
<title>Node21</title>
<g id="a_Node000021"><a xlink:href="../../d7/d61/xmlr_8c.html#a6359e22211f64ff25992d84067f82318" target="_top" xlink:title=" ">
<polygon fill="white" stroke="#666666" points="1776.25,-464.62 1677,-464.62 1677,-445.38 1776.25,-445.38 1776.25,-464.62"/>
<text text-anchor="middle" x="1726.62" y="-451.12" font-family="Helvetica,sans-Serif" font-size="10.00">xmlr_get_cstr_start</text>
</a>
</g>
</g>
<!-- Node1&#45;&gt;Node21 -->
<g id="edge28_Node000001_Node000021" class="edge">
<title>Node1&#45;&gt;Node21</title>
<g id="a_edge28_Node000001_Node000021"><a xlink:title=" ">
<path fill="none" stroke="#63b8ff" d="M1932.24,-411.23C1920.7,-414.62 1908.17,-418.12 1896.5,-421 1856.43,-430.9 1810.49,-440.01 1776.65,-446.3"/>
<polygon fill="#63b8ff" stroke="#63b8ff" points="1932.91,-414.68 1941.49,-408.47 1930.91,-407.97 1932.91,-414.68"/>
</a>
</g>
</g>
<!-- Node22 -->
<g id="Node000022" class="node">
<title>Node22</title>
<g id="a_Node000022"><a xlink:href="../../d7/d61/xmlr_8c.html#ace03f49c23db16c2c224ac4cc44fc28b" target="_top" xlink:title=" ">
<polygon fill="white" stroke="#666666" points="1896.5,-388.62 1813,-388.62 1813,-369.38 1896.5,-369.38 1896.5,-388.62"/>
<text text-anchor="middle" x="1854.75" y="-375.12" font-family="Helvetica,sans-Serif" font-size="10.00">xmlr_next_node</text>
</a>
</g>
</g>
<!-- Node1&#45;&gt;Node22 -->
<g id="edge31_Node000001_Node000022" class="edge">
<title>Node1&#45;&gt;Node22</title>
<g id="a_edge31_Node000001_Node000022"><a xlink:title=" ">
<path fill="none" stroke="#63b8ff" d="M1920.88,-389.4C1912.82,-388.11 1904.62,-386.8 1896.88,-385.57"/>
<polygon fill="#63b8ff" stroke="#63b8ff" points="1920.2,-392.84 1930.63,-390.96 1921.31,-385.92 1920.2,-392.84"/>
</a>
</g>
</g>
<!-- Node30 -->
<g id="Node000030" class="node">
<title>Node30</title>
<g id="a_Node000030"><a xlink:href="../../d7/d61/xmlr_8c.html#ab6d0cf9572349d4671f34220a2fd4335" target="_top" xlink:title=" ">
<polygon fill="white" stroke="#666666" points="1771,-502.62 1682.25,-502.62 1682.25,-483.38 1771,-483.38 1771,-502.62"/>
<text text-anchor="middle" x="1726.62" y="-489.12" font-family="Helvetica,sans-Serif" font-size="10.00">xmlr_node_close</text>
</a>
</g>
</g>
<!-- Node1&#45;&gt;Node30 -->
<g id="edge63_Node000001_Node000030" class="edge">
<title>Node1&#45;&gt;Node30</title>
<g id="a_edge63_Node000001_Node000030"><a xlink:title=" ">
<path fill="none" stroke="#63b8ff" d="M1950.78,-414.21C1935.7,-423.86 1915.55,-435.79 1896.5,-444 1855.43,-461.7 1806.06,-475.19 1771.34,-483.49"/>
<polygon fill="#63b8ff" stroke="#63b8ff" points="1952.61,-417.19 1959.06,-408.79 1948.78,-411.33 1952.61,-417.19"/>
</a>
</g>
</g>
<!-- Node32 -->
<g id="Node000032" class="node">
<title>Node32</title>
<g id="a_Node000032"><a xlink:href="../../d7/d61/xmlr_8c.html#ac7aa79590bab6a08b848f0a2f86d862e" target="_top" xlink:title=" ">
<polygon fill="white" stroke="#666666" points="1635.75,-217.62 1545.5,-217.62 1545.5,-198.38 1635.75,-198.38 1635.75,-217.62"/>
<text text-anchor="middle" x="1590.62" y="-204.12" font-family="Helvetica,sans-Serif" font-size="10.00">xmlr_next_sibling</text>
</a>
</g>
</g>
<!-- Node1&#45;&gt;Node32 -->
<g id="edge53_Node000001_Node000032" class="edge">
<title>Node1&#45;&gt;Node32</title>
<g id="a_edge53_Node000001_Node000032"><a xlink:title=" ">
<path fill="none" stroke="#63b8ff" d="M1955.65,-380.71C1922,-351.13 1848.87,-290.74 1777,-257 1731.2,-235.5 1674.43,-222.26 1635.87,-215.04"/>
<polygon fill="#63b8ff" stroke="#63b8ff" points="1953.13,-383.15 1962.93,-387.18 1957.79,-377.92 1953.13,-383.15"/>
</a>
</g>
</g>
<!-- Node37 -->
<g id="Node000037" class="node">
<title>Node37</title>
<g id="a_Node000037"><a xlink:href="../../d7/d61/xmlr_8c.html#a34ec297f760cdf46f86957d9ecab8b43" target="_top" xlink:title=" ">
<polygon fill="white" stroke="#666666" points="1046.38,-28.62 983.12,-28.62 983.12,-9.38 1046.38,-9.38 1046.38,-28.62"/>
<text text-anchor="middle" x="1014.75" y="-15.12" font-family="Helvetica,sans-Serif" font-size="10.00">xmlr_setup</text>
</a>
</g>
</g>
<!-- Node1&#45;&gt;Node37 -->
<g id="edge64_Node000001_Node000037" class="edge">
<title>Node1&#45;&gt;Node37</title>
<g id="a_edge64_Node000001_Node000037"><a xlink:title=" ">
<path fill="none" stroke="#63b8ff" d="M1972.11,-376.85C1960.57,-294.52 1906.74,0 1727.62,0 1727.62,0 1727.62,0 1302.62,0 1209.29,0 1099.24,-10.14 1046.7,-15.6"/>
<polygon fill="#63b8ff" stroke="#63b8ff" points="1968.63,-377.21 1973.42,-386.66 1975.57,-376.29 1968.63,-377.21"/>
</a>
</g>
</g>
<!-- Node3 -->
<g id="Node000003" class="node">
<title>Node3</title>
<g id="a_Node000003"><a xlink:href="../../dd/df6/xml-unpack_8c.html#a9333687fe47dcf5f5451976ad5689702" target="_top" xlink:title=" ">
<polygon fill="white" stroke="#666666" points="1634.25,-464.62 1547,-464.62 1547,-445.38 1634.25,-445.38 1634.25,-464.62"/>
<text text-anchor="middle" x="1590.62" y="-451.12" font-family="Helvetica,sans-Serif" font-size="10.00">get_enum_value</text>
</a>
</g>
</g>
<!-- Node2&#45;&gt;Node3 -->
<g id="edge2_Node000002_Node000003" class="edge">
<title>Node2&#45;&gt;Node3</title>
<g id="a_edge2_Node000002_Node000003"><a xlink:title=" ">
<path fill="none" stroke="#63b8ff" d="M1678,-431.15C1661.62,-435.67 1643.55,-440.66 1628.2,-444.9"/>
<polygon fill="#63b8ff" stroke="#63b8ff" points="1678.84,-434.55 1687.55,-428.51 1676.98,-427.8 1678.84,-434.55"/>
</a>
</g>
</g>
<!-- Node20 -->
<g id="Node000020" class="node">
<title>Node20</title>
<g id="a_Node000020"><a xlink:href="../../dd/df6/xml-unpack_8c.html#a38ee3269be758ee015828067eb6a351e" target="_top" xlink:title=" ">
<polygon fill="white" stroke="#666666" points="1615.88,-427.62 1565.38,-427.62 1565.38,-408.38 1615.88,-408.38 1615.88,-427.62"/>
<text text-anchor="middle" x="1590.62" y="-414.12" font-family="Helvetica,sans-Serif" font-size="10.00">get_text</text>
</a>
</g>
</g>
<!-- Node2&#45;&gt;Node20 -->
<g id="edge26_Node000002_Node000020" class="edge">
<title>Node2&#45;&gt;Node20</title>
<g id="a_edge26_Node000002_Node000020"><a xlink:title=" ">
<path fill="none" stroke="#63b8ff" d="M1664.92,-418C1647.7,-418 1629.91,-418 1616.18,-418"/>
<polygon fill="#63b8ff" stroke="#63b8ff" points="1664.6,-421.5 1674.6,-418 1664.6,-414.5 1664.6,-421.5"/>
</a>
</g>
</g>
<!-- Node4 -->
<g id="Node000004" class="node">
<title>Node4</title>
<g id="a_Node000004"><a xlink:href="../../dd/df6/xml-unpack_8c.html#af710b7a316428710f93e75d74580d975" target="_top" xlink:title=" ">
<polygon fill="white" stroke="#666666" points="1503.88,-502.62 1399.38,-502.62 1399.38,-483.38 1503.88,-483.38 1503.88,-502.62"/>
<text text-anchor="middle" x="1451.62" y="-489.12" font-family="Helvetica,sans-Serif" font-size="10.00">xunpack_scalar_vec</text>
</a>
</g>
</g>
<!-- Node3&#45;&gt;Node4 -->
<g id="edge3_Node000003_Node000004" class="edge">
<title>Node3&#45;&gt;Node4</title>
<g id="a_edge3_Node000003_Node000004"><a xlink:title=" ">
<path fill="none" stroke="#63b8ff" d="M1542.35,-468.11C1524.76,-472.99 1505.1,-478.45 1488.67,-483"/>
<polygon fill="#63b8ff" stroke="#63b8ff" points="1543.11,-471.53 1551.81,-465.49 1541.24,-464.79 1543.11,-471.53"/>
</a>
</g>
</g>
<!-- Node16 -->
<g id="Node000016" class="node">
<title>Node16</title>
<g id="a_Node000016"><a xlink:href="../../dd/df6/xml-unpack_8c.html#a673dd4593bf62f1bd0094ad31a74e03e" target="_top" xlink:title=" ">
<polygon fill="white" stroke="#666666" points="1055,-445.62 974.5,-445.62 974.5,-426.38 1055,-426.38 1055,-445.62"/>
<text text-anchor="middle" x="1014.75" y="-432.12" font-family="Helvetica,sans-Serif" font-size="10.00">xunpack_value</text>
</a>
</g>
</g>
<!-- Node3&#45;&gt;Node16 -->
<g id="edge25_Node000003_Node000016" class="edge">
<title>Node3&#45;&gt;Node16</title>
<g id="a_edge25_Node000003_Node000016"><a xlink:title=" ">
<path fill="none" stroke="#63b8ff" d="M1535.25,-451.71C1461.41,-447.4 1325.29,-440.05 1209,-437 1155.84,-435.61 1094.43,-435.55 1055.36,-435.72"/>
<polygon fill="#63b8ff" stroke="#63b8ff" points="1534.85,-455.19 1545.04,-452.28 1535.26,-448.2 1534.85,-455.19"/>
</a>
</g>
</g>
<!-- Node5 -->
<g id="Node000005" class="node">
<title>Node5</title>
<g id="a_Node000005"><a xlink:href="../../dd/df6/xml-unpack_8c.html#a3ff98cca75a1414f1e3d18e0797babf1" target="_top" xlink:title=" ">
<polygon fill="white" stroke="#666666" points="1349.88,-483.62 1257.38,-483.62 1257.38,-464.38 1349.88,-464.38 1349.88,-483.62"/>
<text text-anchor="middle" x="1303.62" y="-470.12" font-family="Helvetica,sans-Serif" font-size="10.00">__xunpack_struct</text>
</a>
</g>
</g>
<!-- Node4&#45;&gt;Node5 -->
<g id="edge4_Node000004_Node000005" class="edge">
<title>Node4&#45;&gt;Node5</title>
<g id="a_edge4_Node000004_Node000005"><a xlink:title=" ">
<path fill="none" stroke="#63b8ff" d="M1387.75,-484.82C1375.16,-483.18 1362.16,-481.49 1350.29,-479.94"/>
<polygon fill="#63b8ff" stroke="#63b8ff" points="1387.28,-488.29 1397.65,-486.11 1388.19,-481.34 1387.28,-488.29"/>
</a>
</g>
</g>
<!-- Node6 -->
<g id="Node000006" class="node">
<title>Node6</title>
<g id="a_Node000006"><a xlink:href="../../dd/df6/xml-unpack_8c.html#a6554017ac7458bcba59e9d3a61008b9a" target="_top" xlink:title=" ">
<polygon fill="white" stroke="#666666" points="1190.25,-483.62 1109.75,-483.62 1109.75,-464.38 1190.25,-464.38 1190.25,-483.62"/>
<text text-anchor="middle" x="1150" y="-470.12" font-family="Helvetica,sans-Serif" font-size="10.00">xunpack_class</text>
</a>
</g>
</g>
<!-- Node5&#45;&gt;Node6 -->
<g id="edge5_Node000005_Node000006" class="edge">
<title>Node5&#45;&gt;Node6</title>
<g id="a_edge5_Node000005_Node000006"><a xlink:title=" ">
<path fill="none" stroke="#63b8ff" d="M1245.65,-474C1227.29,-474 1207.37,-474 1190.55,-474"/>
<polygon fill="#63b8ff" stroke="#63b8ff" points="1245.62,-477.5 1255.62,-474 1245.62,-470.5 1245.62,-477.5"/>
</a>
</g>
</g>
<!-- Node19 -->
<g id="Node000019" class="node">
<title>Node19</title>
<g id="a_Node000019"><a xlink:href="../../dd/df6/xml-unpack_8c.html#ae718721a7f8b3e6ea30d1f22c4b7aa25" target="_top" xlink:title=" ">
<polygon fill="white" stroke="#666666" points="1191,-559.62 1109,-559.62 1109,-540.38 1191,-540.38 1191,-559.62"/>
<text text-anchor="middle" x="1150" y="-546.12" font-family="Helvetica,sans-Serif" font-size="10.00">xunpack_struct</text>
</a>
</g>
</g>
<!-- Node5&#45;&gt;Node19 -->
<g id="edge22_Node000005_Node000019" class="edge">
<title>Node5&#45;&gt;Node19</title>
<g id="a_edge22_Node000005_Node000019"><a xlink:title=" ">
<path fill="none" stroke="#63b8ff" d="M1276.25,-489.72C1257.72,-500.49 1232.2,-514.8 1209,-526 1198.7,-530.97 1187.09,-535.9 1176.98,-539.99"/>
<polygon fill="#63b8ff" stroke="#63b8ff" points="1277.86,-492.83 1284.71,-484.75 1274.32,-486.79 1277.86,-492.83"/>
</a>
</g>
</g>
<!-- Node7 -->
<g id="Node000007" class="node">
<title>Node7</title>
<g id="a_Node000007"><a xlink:href="../../dd/df6/xml-unpack_8c.html#ab21c2e203381c53df59f25b2554cc68d" target="_top" xlink:title=" ">
<polygon fill="white" stroke="#666666" points="801,-464.62 693.5,-464.62 693.5,-445.38 801,-445.38 801,-464.62"/>
<text text-anchor="middle" x="747.25" y="-451.12" font-family="Helvetica,sans-Serif" font-size="10.00">__iop_xunpack_parts</text>
</a>
</g>
</g>
<!-- Node6&#45;&gt;Node7 -->
<g id="edge6_Node000006_Node000007" class="edge">
<title>Node6&#45;&gt;Node7</title>
<g id="a_edge6_Node000006_Node000007"><a xlink:title=" ">
<path fill="none" stroke="#63b8ff" d="M1098.3,-471.6C1022.12,-467.98 878.85,-461.19 801.32,-457.52"/>
<polygon fill="#63b8ff" stroke="#63b8ff" points="1097.81,-475.08 1107.97,-472.05 1098.14,-468.08 1097.81,-475.08"/>
</a>
</g>
</g>
<!-- Node6&#45;&gt;Node16 -->
<g id="edge15_Node000006_Node000016" class="edge">
<title>Node6&#45;&gt;Node16</title>
<g id="a_edge15_Node000006_Node000016"><a xlink:title=" ">
<path fill="none" stroke="#63b8ff" d="M1102.78,-460.82C1085.73,-455.96 1066.71,-450.53 1050.81,-446"/>
<polygon fill="#63b8ff" stroke="#63b8ff" points="1101.61,-464.12 1112.19,-463.5 1103.53,-457.39 1101.61,-464.12"/>
</a>
</g>
</g>
<!-- Node8 -->
<g id="Node000008" class="node">
<title>Node8</title>
<g id="a_Node000008"><a xlink:href="../../dd/df6/xml-unpack_8c.html#a6f1a81d26eab76ee15065d8df1c07903" target="_top" xlink:title=" ">
<polygon fill="white" stroke="#666666" points="648.5,-427.62 553,-427.62 553,-408.38 648.5,-408.38 648.5,-427.62"/>
<text text-anchor="middle" x="600.75" y="-414.12" font-family="Helvetica,sans-Serif" font-size="10.00">iop_xunpack_flags</text>
</a>
</g>
</g>
<!-- Node7&#45;&gt;Node8 -->
<g id="edge7_Node000007_Node000008" class="edge">
<title>Node7&#45;&gt;Node8</title>
<g id="a_edge7_Node000007_Node000008"><a xlink:title=" ">
<path fill="none" stroke="#63b8ff" d="M695.65,-442.04C677.79,-437.47 657.99,-432.4 641.19,-428.1"/>
<polygon fill="#63b8ff" stroke="#63b8ff" points="694.74,-445.42 705.3,-444.51 696.48,-438.64 694.74,-445.42"/>
</a>
</g>
</g>
<!-- Node9 -->
<g id="Node000009" class="node">
<title>Node9</title>
<g id="a_Node000009"><a xlink:href="../../dd/df6/xml-unpack_8c.html#a3173252ac387fded98290c1c5456b6b8" target="_top" xlink:title=" ">
<polygon fill="white" stroke="#666666" points="649.25,-501.62 552.25,-501.62 552.25,-482.38 649.25,-482.38 649.25,-501.62"/>
<text text-anchor="middle" x="600.75" y="-488.12" font-family="Helvetica,sans-Serif" font-size="10.00">iop_xunpack_parts</text>
</a>
</g>
</g>
<!-- Node7&#45;&gt;Node9 -->
<g id="edge8_Node000007_Node000009" class="edge">
<title>Node7&#45;&gt;Node9</title>
<g id="a_edge8_Node000007_Node000009"><a xlink:title=" ">
<path fill="none" stroke="#63b8ff" d="M695.65,-467.96C677.79,-472.53 657.99,-477.6 641.19,-481.9"/>
<polygon fill="#63b8ff" stroke="#63b8ff" points="696.48,-471.36 705.3,-465.49 694.74,-464.58 696.48,-471.36"/>
</a>
</g>
</g>
<!-- Node10 -->
<g id="Node000010" class="node">
<title>Node10</title>
<g id="a_Node000010"><a xlink:href="../../dd/df6/xml-unpack_8c.html#a07d2db648550564a80900b1bea4ba772" target="_top" xlink:title=" ">
<polygon fill="white" stroke="#666666" points="656.75,-295.62 544.75,-295.62 544.75,-276.38 656.75,-276.38 656.75,-295.62"/>
<text text-anchor="middle" x="600.75" y="-282.12" font-family="Helvetica,sans-Serif" font-size="10.00">iop_xunpack_ptr_flags</text>
</a>
</g>
</g>
<!-- Node7&#45;&gt;Node10 -->
<g id="edge9_Node000007_Node000010" class="edge">
<title>Node7&#45;&gt;Node10</title>
<g id="a_edge9_Node000007_Node000010"><a xlink:title=" ">
<path fill="none" stroke="#63b8ff" d="M730.34,-436.39C699.71,-400.57 633.5,-323.14 610.13,-295.8"/>
<polygon fill="#63b8ff" stroke="#63b8ff" points="727.5,-438.46 736.66,-443.78 732.82,-433.91 727.5,-438.46"/>
</a>
</g>
</g>
<!-- Node15 -->
<g id="Node000015" class="node">
<title>Node15</title>
<g id="a_Node000015"><a xlink:href="../../dd/df6/xml-unpack_8c.html#a200155ac7f332e212ca188814465ea21" target="_top" xlink:title=" ">
<polygon fill="white" stroke="#666666" points="657.5,-464.62 544,-464.62 544,-445.38 657.5,-445.38 657.5,-464.62"/>
<text text-anchor="middle" x="600.75" y="-451.12" font-family="Helvetica,sans-Serif" font-size="10.00">iop_xunpack_ptr_parts</text>
</a>
</g>
</g>
<!-- Node7&#45;&gt;Node15 -->
<g id="edge14_Node000007_Node000015" class="edge">
<title>Node7&#45;&gt;Node15</title>
<g id="a_edge14_Node000007_Node000015"><a xlink:title=" ">
<path fill="none" stroke="#63b8ff" d="M681.94,-455C673.84,-455 665.6,-455 657.64,-455"/>
<polygon fill="#63b8ff" stroke="#63b8ff" points="681.75,-458.5 691.75,-455 681.75,-451.5 681.75,-458.5"/>
</a>
</g>
</g>
<!-- Node11 -->
<g id="Node000011" class="node">
<title>Node11</title>
<g id="a_Node000011"><a xlink:href="../../dd/de9/rpc-http-server_8c.html#a2b21eb7b51309291cf8be943414fd476" target="_top" xlink:title=" ">
<polygon fill="white" stroke="#666666" points="508,-161.62 433.5,-161.62 433.5,-142.38 508,-142.38 508,-161.62"/>
<text text-anchor="middle" x="470.75" y="-148.12" font-family="Helvetica,sans-Serif" font-size="10.00">t_parse_soap</text>
</a>
</g>
</g>
<!-- Node10&#45;&gt;Node11 -->
<g id="edge10_Node000010_Node000011" class="edge">
<title>Node10&#45;&gt;Node11</title>
<g id="a_edge10_Node000010_Node000011"><a xlink:title=" ">
<path fill="none" stroke="#63b8ff" d="M582.49,-267.93C555.08,-239.24 502.51,-184.2 481.13,-161.82"/>
<polygon fill="#63b8ff" stroke="#63b8ff" points="579.65,-270.02 589.08,-274.83 584.71,-265.19 579.65,-270.02"/>
</a>
</g>
</g>
<!-- Node12 -->
<g id="Node000012" class="node">
<title>Node12</title>
<g id="a_Node000012"><a xlink:href="../../dd/de9/rpc-http-server_8c.html#a7aa35bd836933f462594989148ab5fd5" target="_top" xlink:title=" ">
<polygon fill="white" stroke="#666666" points="397.5,-161.62 287,-161.62 287,-142.38 397.5,-142.38 397.5,-161.62"/>
<text text-anchor="middle" x="342.25" y="-148.12" font-family="Helvetica,sans-Serif" font-size="10.00">ichttp_query_on_done</text>
</a>
</g>
</g>
<!-- Node11&#45;&gt;Node12 -->
<g id="edge11_Node000011_Node000012" class="edge">
<title>Node11&#45;&gt;Node12</title>
<g id="a_edge11_Node000011_Node000012"><a xlink:title=" ">
<path fill="none" stroke="#63b8ff" d="M421.87,-152C413.96,-152 405.7,-152 397.64,-152"/>
<polygon fill="#63b8ff" stroke="#63b8ff" points="421.65,-155.5 431.65,-152 421.65,-148.5 421.65,-155.5"/>
</a>
</g>
</g>
<!-- Node13 -->
<g id="Node000013" class="node">
<title>Node13</title>
<g id="a_Node000013"><a xlink:href="../../dd/de9/rpc-http-server_8c.html#a99f4d0b0719988496aa4496ad91d0b82" target="_top" xlink:title=" ">
<polygon fill="white" stroke="#666666" points="251,-161.62 147.25,-161.62 147.25,-142.38 251,-142.38 251,-161.62"/>
<text text-anchor="middle" x="199.12" y="-148.12" font-family="Helvetica,sans-Serif" font-size="10.00">httpd_trigger__ic_cb</text>
</a>
</g>
</g>
<!-- Node12&#45;&gt;Node13 -->
<g id="edge12_Node000012_Node000013" class="edge">
<title>Node12&#45;&gt;Node13</title>
<g id="a_edge12_Node000012_Node000013"><a xlink:title=" ">
<path fill="none" stroke="#63b8ff" d="M275.36,-152C267.28,-152 259.12,-152 251.3,-152"/>
<polygon fill="#63b8ff" stroke="#63b8ff" points="275.17,-155.5 285.17,-152 275.17,-148.5 275.17,-155.5"/>
</a>
</g>
</g>
<!-- Node14 -->
<g id="Node000014" class="node">
<title>Node14</title>
<g id="a_Node000014"><a xlink:href="../../dd/de9/rpc-http-server_8c.html#a30f581d1d1e0c0a8ff0bd69f9b6316b9" target="_top" xlink:title=" ">
<polygon fill="white" stroke="#666666" points="111.25,-161.62 0,-161.62 0,-142.38 111.25,-142.38 111.25,-161.62"/>
<text text-anchor="middle" x="55.62" y="-148.12" font-family="Helvetica,sans-Serif" font-size="10.00">httpd_trigger__ic_new</text>
</a>
</g>
</g>
<!-- Node13&#45;&gt;Node14 -->
<g id="edge13_Node000013_Node000014" class="edge">
<title>Node13&#45;&gt;Node14</title>
<g id="a_edge13_Node000013_Node000014"><a xlink:title=" ">
<path fill="none" stroke="#63b8ff" d="M135.75,-152C127.65,-152 119.42,-152 111.46,-152"/>
<polygon fill="#63b8ff" stroke="#63b8ff" points="135.53,-155.5 145.53,-152 135.53,-148.5 135.53,-155.5"/>
</a>
</g>
</g>
<!-- Node16&#45;&gt;Node5 -->
<g id="edge16_Node000016_Node000005" class="edge">
<title>Node16&#45;&gt;Node5</title>
<g id="a_edge16_Node000016_Node000005"><a xlink:title=" ">
<path fill="none" stroke="#63b8ff" d="M1066.83,-439.59C1105.89,-442.68 1161.01,-447.79 1209,-455 1224.91,-457.39 1242.2,-460.7 1257.55,-463.88"/>
<polygon fill="#63b8ff" stroke="#63b8ff" points="1067.25,-436.11 1057.01,-438.83 1066.71,-443.09 1067.25,-436.11"/>
</a>
</g>
</g>
<!-- Node17 -->
<g id="Node000017" class="node">
<title>Node17</title>
<g id="a_Node000017"><a xlink:href="../../dd/df6/xml-unpack_8c.html#a015f36d4d6d49cff168de8e9a6803a6f" target="_top" xlink:title=" ">
<polygon fill="white" stroke="#666666" points="938.5,-521.62 837,-521.62 837,-502.38 938.5,-502.38 938.5,-521.62"/>
<text text-anchor="middle" x="887.75" y="-508.12" font-family="Helvetica,sans-Serif" font-size="10.00">xunpack_block_vec</text>
</a>
</g>
</g>
<!-- Node16&#45;&gt;Node17 -->
<g id="edge17_Node000016_Node000017" class="edge">
<title>Node16&#45;&gt;Node17</title>
<g id="a_edge17_Node000016_Node000017"><a xlink:title=" ">
<path fill="none" stroke="#63b8ff" d="M987.6,-451.9C962.7,-467.04 925.99,-489.36 905.02,-502.11"/>
<polygon fill="#63b8ff" stroke="#63b8ff" points="989.13,-455.06 995.86,-446.88 985.49,-449.08 989.13,-455.06"/>
</a>
</g>
</g>
<!-- Node18 -->
<g id="Node000018" class="node">
<title>Node18</title>
<g id="a_Node000018"><a xlink:href="../../dd/df6/xml-unpack_8c.html#aeae567b37b59a952d4aeec6856e419d7" target="_top" xlink:title=" ">
<polygon fill="white" stroke="#666666" points="928,-445.62 847.5,-445.62 847.5,-426.38 928,-426.38 928,-445.62"/>
<text text-anchor="middle" x="887.75" y="-432.12" font-family="Helvetica,sans-Serif" font-size="10.00">xunpack_union</text>
</a>
</g>
</g>
<!-- Node16&#45;&gt;Node18 -->
<g id="edge19_Node000016_Node000018" class="edge">
<title>Node16&#45;&gt;Node18</title>
<g id="a_edge19_Node000016_Node000018"><a xlink:title=" ">
<path fill="none" stroke="#63b8ff" d="M962.95,-429.36C951.46,-429.15 939.43,-429.25 928.47,-429.67"/>
<polygon fill="#63b8ff" stroke="#63b8ff" points="962.59,-432.85 972.69,-429.63 962.79,-425.85 962.59,-432.85"/>
</a>
</g>
</g>
<!-- Node17&#45;&gt;Node5 -->
<g id="edge18_Node000017_Node000005" class="edge">
<title>Node17&#45;&gt;Node5</title>
<g id="a_edge18_Node000017_Node000005"><a xlink:title=" ">
<path fill="none" stroke="#63b8ff" d="M950.08,-510.93C1014.72,-509.2 1119.39,-504.69 1209,-493 1225.61,-490.83 1243.69,-487.42 1259.49,-484.08"/>
<polygon fill="#63b8ff" stroke="#63b8ff" points="950.3,-507.42 940.39,-511.17 950.48,-514.42 950.3,-507.42"/>
</a>
</g>
</g>
<!-- Node18&#45;&gt;Node7 -->
<g id="edge20_Node000018_Node000007" class="edge">
<title>Node18&#45;&gt;Node7</title>
<g id="a_edge20_Node000018_Node000007"><a xlink:title=" ">
<path fill="none" stroke="#63b8ff" d="M835.7,-443C824.51,-444.54 812.64,-446.17 801.37,-447.71"/>
<polygon fill="#63b8ff" stroke="#63b8ff" points="836.13,-446.48 845.56,-441.65 835.18,-439.54 836.13,-446.48"/>
</a>
</g>
</g>
<!-- Node18&#45;&gt;Node16 -->
<g id="edge21_Node000018_Node000016" class="edge">
<title>Node18&#45;&gt;Node16</title>
<g id="a_edge21_Node000018_Node000016"><a xlink:title=" ">
<path fill="none" stroke="#63b8ff" d="M939.73,-442.65C951.22,-442.85 963.26,-442.75 974.2,-442.33"/>
<polygon fill="#63b8ff" stroke="#63b8ff" points="940.08,-439.16 929.99,-442.38 939.88,-446.15 940.08,-439.16"/>
</a>
</g>
</g>
<!-- Node19&#45;&gt;Node7 -->
<g id="edge23_Node000019_Node000007" class="edge">
<title>Node19&#45;&gt;Node7</title>
<g id="a_edge23_Node000019_Node000007"><a xlink:title=" ">
<path fill="none" stroke="#63b8ff" d="M1097.21,-556.61C1033.46,-562.59 923.07,-565.83 837,-531 801.46,-516.62 770.02,-482.05 756,-464.94"/>
<polygon fill="#63b8ff" stroke="#63b8ff" points="1097.45,-560.1 1107.05,-555.62 1096.75,-553.14 1097.45,-560.1"/>
</a>
</g>
</g>
<!-- Node19&#45;&gt;Node16 -->
<g id="edge24_Node000019_Node000016" class="edge">
<title>Node19&#45;&gt;Node16</title>
<g id="a_edge24_Node000019_Node000016"><a xlink:title=" ">
<path fill="none" stroke="#63b8ff" d="M1128.47,-532.44C1100.13,-508.19 1049.96,-465.27 1027.36,-445.93"/>
<polygon fill="#63b8ff" stroke="#63b8ff" points="1126.15,-535.06 1136.02,-538.9 1130.7,-529.74 1126.15,-535.06"/>
</a>
</g>
</g>
<!-- Node20&#45;&gt;Node16 -->
<g id="edge27_Node000020_Node000016" class="edge">
<title>Node20&#45;&gt;Node16</title>
<g id="a_edge27_Node000020_Node000016"><a xlink:title=" ">
<path fill="none" stroke="#63b8ff" d="M1554.17,-406.96C1471.03,-382.91 1257.92,-331.94 1091,-384 1064.62,-392.23 1039.34,-413.29 1025.85,-425.94"/>
<polygon fill="#63b8ff" stroke="#63b8ff" points="1552.99,-410.26 1563.57,-409.74 1554.97,-403.55 1552.99,-410.26"/>
</a>
</g>
</g>
<!-- Node21&#45;&gt;Node3 -->
<g id="edge29_Node000021_Node000003" class="edge">
<title>Node21&#45;&gt;Node3</title>
<g id="a_edge29_Node000021_Node000003"><a xlink:title=" ">
<path fill="none" stroke="#63b8ff" d="M1665.59,-455C1655.06,-455 1644.3,-455 1634.36,-455"/>
<polygon fill="#63b8ff" stroke="#63b8ff" points="1665.36,-458.5 1675.36,-455 1665.36,-451.5 1665.36,-458.5"/>
</a>
</g>
</g>
<!-- Node21&#45;&gt;Node20 -->
<g id="edge30_Node000021_Node000020" class="edge">
<title>Node21&#45;&gt;Node20</title>
<g id="a_edge30_Node000021_Node000020"><a xlink:title=" ">
<path fill="none" stroke="#63b8ff" d="M1678.08,-441.87C1657.22,-436.11 1633.61,-429.59 1616.34,-424.82"/>
<polygon fill="#63b8ff" stroke="#63b8ff" points="1676.98,-445.2 1687.55,-444.49 1678.84,-438.45 1676.98,-445.2"/>
</a>
</g>
</g>
<!-- Node22&#45;&gt;Node2 -->
<g id="edge33_Node000022_Node000002" class="edge">
<title>Node22&#45;&gt;Node2</title>
<g id="a_edge33_Node000022_Node000002"><a xlink:title=" ">
<path fill="none" stroke="#63b8ff" d="M1810.71,-392.31C1794.1,-397.44 1775.43,-403.22 1760,-407.99"/>
<polygon fill="#63b8ff" stroke="#63b8ff" points="1811.3,-395.79 1819.82,-389.49 1809.24,-389.1 1811.3,-395.79"/>
</a>
</g>
</g>
<!-- Node22&#45;&gt;Node20 -->
<g id="edge32_Node000022_Node000020" class="edge">
<title>Node22&#45;&gt;Node20</title>
<g id="a_edge32_Node000022_Node000020"><a xlink:title=" ">
<path fill="none" stroke="#63b8ff" d="M1801.63,-383.37C1766.15,-386.71 1718.2,-391.95 1676.25,-399 1655.91,-402.42 1633.1,-407.62 1616.29,-411.72"/>
<polygon fill="#63b8ff" stroke="#63b8ff" points="1801.54,-386.89 1811.18,-382.49 1800.9,-379.92 1801.54,-386.89"/>
</a>
</g>
</g>
<!-- Node23 -->
<g id="Node000023" class="node">
<title>Node23</title>
<g id="a_Node000023"><a xlink:href="../../d7/d61/xmlr_8c.html#a3bdac31d20258658229897e369d8a6e6" target="_top" xlink:title=" ">
<polygon fill="white" stroke="#666666" points="1768,-313.62 1685.25,-313.62 1685.25,-294.38 1768,-294.38 1768,-313.62"/>
<text text-anchor="middle" x="1726.62" y="-300.12" font-family="Helvetica,sans-Serif" font-size="10.00">xmlr_next_child</text>
</a>
</g>
</g>
<!-- Node22&#45;&gt;Node23 -->
<g id="edge34_Node000022_Node000023" class="edge">
<title>Node22&#45;&gt;Node23</title>
<g id="a_edge34_Node000022_Node000023"><a xlink:title=" ">
<path fill="none" stroke="#63b8ff" d="M1830.93,-362.67C1815.93,-352.22 1795.68,-338.68 1777,-328 1768.23,-322.98 1758.26,-318.01 1749.58,-313.9"/>
<polygon fill="#63b8ff" stroke="#63b8ff" points="1828.53,-365.26 1838.72,-368.15 1832.56,-359.53 1828.53,-365.26"/>
</a>
</g>
</g>
<!-- Node24 -->
<g id="Node000024" class="node">
<title>Node24</title>
<g id="a_Node000024"><a xlink:href="../../d7/d61/xmlr_8c.html#a3b6f5040e7c9e272c5e499a8fc614d76" target="_top" xlink:title=" ">
<polygon fill="white" stroke="#666666" points="1634.25,-275.62 1547,-275.62 1547,-256.38 1634.25,-256.38 1634.25,-275.62"/>
<text text-anchor="middle" x="1590.62" y="-262.12" font-family="Helvetica,sans-Serif" font-size="10.00">xmlr_node_enter</text>
</a>
</g>
</g>
<!-- Node22&#45;&gt;Node24 -->
<g id="edge52_Node000022_Node000024" class="edge">
<title>Node22&#45;&gt;Node24</title>
<g id="a_edge52_Node000022_Node000024"><a xlink:title=" ">
<path fill="none" stroke="#63b8ff" d="M1843.75,-359.13C1831.39,-336.89 1808.1,-301.75 1777,-285 1732.71,-261.14 1673.83,-259.26 1634.42,-261.45"/>
<polygon fill="#63b8ff" stroke="#63b8ff" points="1840.58,-360.63 1848.36,-367.82 1846.76,-357.35 1840.58,-360.63"/>
</a>
</g>
</g>
<!-- Node29 -->
<g id="Node000029" class="node">
<title>Node29</title>
<g id="a_Node000029"><a xlink:href="../../d7/d61/xmlr_8c.html#a1f89a1849de0f7328623cbf33f6fbbc7" target="_top" xlink:title=" ">
<polygon fill="white" stroke="#666666" points="1494.5,-350.62 1408.75,-350.62 1408.75,-331.38 1494.5,-331.38 1494.5,-350.62"/>
<text text-anchor="middle" x="1451.62" y="-337.12" font-family="Helvetica,sans-Serif" font-size="10.00">xmlr_next_uncle</text>
</a>
</g>
</g>
<!-- Node22&#45;&gt;Node29 -->
<g id="edge43_Node000022_Node000029" class="edge">
<title>Node22&#45;&gt;Node29</title>
<g id="a_edge43_Node000022_Node000029"><a xlink:title=" ">
<path fill="none" stroke="#63b8ff" d="M1801.38,-374.04C1720.96,-366.42 1568.62,-351.99 1494.81,-345"/>
<polygon fill="#63b8ff" stroke="#63b8ff" points="1800.92,-377.51 1811.2,-374.97 1801.58,-370.54 1800.92,-377.51"/>
</a>
</g>
</g>
<!-- Node22&#45;&gt;Node30 -->
<g id="edge46_Node000022_Node000030" class="edge">
<title>Node22&#45;&gt;Node30</title>
<g id="a_edge46_Node000022_Node000030"><a xlink:title=" ">
<path fill="none" stroke="#63b8ff" d="M1842.3,-398.63C1829.02,-419.85 1805.3,-453.4 1777,-474 1772.17,-477.51 1766.61,-480.47 1761.01,-482.92"/>
<polygon fill="#63b8ff" stroke="#63b8ff" points="1845.13,-400.71 1847.32,-390.35 1839.14,-397.08 1845.13,-400.71"/>
</a>
</g>
</g>
<!-- Node23&#45;&gt;Node5 -->
<g id="edge35_Node000023_Node000005" class="edge">
<title>Node23&#45;&gt;Node5</title>
<g id="a_edge35_Node000023_Node000005"><a xlink:title=" ">
<path fill="none" stroke="#63b8ff" d="M1690.2,-318.3C1607.09,-351.86 1401.2,-435 1329.62,-463.91"/>
<polygon fill="#63b8ff" stroke="#63b8ff" points="1691.5,-321.56 1699.46,-314.57 1688.87,-315.07 1691.5,-321.56"/>
</a>
</g>
</g>
<!-- Node23&#45;&gt;Node18 -->
<g id="edge42_Node000023_Node000018" class="edge">
<title>Node23&#45;&gt;Node18</title>
<g id="a_edge42_Node000023_Node000018"><a xlink:title=" ">
<path fill="none" stroke="#63b8ff" d="M1715.85,-283.81C1690,-233.13 1614.19,-101.45 1505,-57 1397.97,-13.43 1351.9,-13.13 1245,-57 1054.52,-135.17 920.75,-374.73 893.77,-426.2"/>
<polygon fill="#63b8ff" stroke="#63b8ff" points="1712.71,-285.35 1720.31,-292.74 1718.98,-282.23 1712.71,-285.35"/>
</a>
</g>
</g>
<!-- Node23&#45;&gt;Node24 -->
<g id="edge36_Node000023_Node000024" class="edge">
<title>Node23&#45;&gt;Node24</title>
<g id="a_edge36_Node000023_Node000024"><a xlink:title=" ">
<path fill="none" stroke="#63b8ff" d="M1679.14,-290.82C1662,-285.96 1642.87,-280.53 1626.88,-276"/>
<polygon fill="#63b8ff" stroke="#63b8ff" points="1678.04,-294.14 1688.61,-293.5 1679.95,-287.41 1678.04,-294.14"/>
</a>
</g>
</g>
<!-- Node25 -->
<g id="Node000025" class="node">
<title>Node25</title>
<g id="a_Node000025"><a xlink:href="../../d5/de6/xmlr_8h.html#a3249a8e0aeb2fb46c1a6c79a2c8fbf77" target="_top" xlink:title=" ">
<polygon fill="white" stroke="#666666" points="1500.5,-274.62 1402.75,-274.62 1402.75,-255.38 1500.5,-255.38 1500.5,-274.62"/>
<text text-anchor="middle" x="1451.62" y="-261.12" font-family="Helvetica,sans-Serif" font-size="10.00">xmlr_node_enter_s</text>
</a>
</g>
</g>
<!-- Node24&#45;&gt;Node25 -->
<g id="edge37_Node000024_Node000025" class="edge">
<title>Node24&#45;&gt;Node25</title>
<g id="a_edge37_Node000024_Node000025"><a xlink:title=" ">
<path fill="none" stroke="#63b8ff" d="M1535.42,-265.6C1523.95,-265.52 1511.92,-265.43 1500.69,-265.35"/>
<polygon fill="#63b8ff" stroke="#63b8ff" points="1535.11,-269.1 1545.14,-265.68 1535.17,-262.1 1535.11,-269.1"/>
</a>
</g>
</g>
<!-- Node26 -->
<g id="Node000026" class="node">
<title>Node26</title>
<g id="a_Node000026"><a xlink:href="../../d5/de6/xmlr_8h.html#a9c17fd4404ec4aa9ec3ec71a8534bca7" target="_top" xlink:title=" ">
<polygon fill="white" stroke="#666666" points="795.75,-161.62 698.75,-161.62 698.75,-142.38 795.75,-142.38 795.75,-161.62"/>
<text text-anchor="middle" x="747.25" y="-148.12" font-family="Helvetica,sans-Serif" font-size="10.00">xmlr_node_open_s</text>
</a>
</g>
</g>
<!-- Node25&#45;&gt;Node26 -->
<g id="edge38_Node000025_Node000026" class="edge">
<title>Node25&#45;&gt;Node26</title>
<g id="a_edge38_Node000025_Node000026"><a xlink:title=" ">
<path fill="none" stroke="#63b8ff" d="M1426.25,-248.87C1376.66,-217.65 1259.48,-152 1151,-152 1151,-152 1151,-152 1013.75,-152 937.7,-152 849.39,-152 796.21,-152"/>
<polygon fill="#63b8ff" stroke="#63b8ff" points="1424.2,-251.71 1434.51,-254.16 1427.98,-245.81 1424.2,-251.71"/>
</a>
</g>
</g>
<!-- Node27 -->
<g id="Node000027" class="node">
<title>Node27</title>
<g id="a_Node000027"><a xlink:href="../../d5/de6/xmlr_8h.html#a28ba0bdb410764100feb7df216e61e0f" target="_top" xlink:title=" ">
<polygon fill="white" stroke="#666666" points="1350.62,-331.62 1256.62,-331.62 1256.62,-312.38 1350.62,-312.38 1350.62,-331.62"/>
<text text-anchor="middle" x="1303.62" y="-318.12" font-family="Helvetica,sans-Serif" font-size="10.00">xmlr_node_skip_s</text>
</a>
</g>
</g>
<!-- Node25&#45;&gt;Node27 -->
<g id="edge40_Node000025_Node000027" class="edge">
<title>Node25&#45;&gt;Node27</title>
<g id="a_edge40_Node000025_Node000027"><a xlink:title=" ">
<path fill="none" stroke="#63b8ff" d="M1414.22,-279.21C1388.04,-289.43 1353.4,-302.96 1330.13,-312.04"/>
<polygon fill="#63b8ff" stroke="#63b8ff" points="1415.41,-282.51 1423.45,-275.61 1412.86,-275.99 1415.41,-282.51"/>
</a>
</g>
</g>
<!-- Node28 -->
<g id="Node000028" class="node">
<title>Node28</title>
<g id="a_Node000028"><a xlink:href="../../d5/de6/xmlr_8h.html#a39dd1207d6764edfdfac42fc989b5dc9" target="_top" xlink:title=" ">
<polygon fill="white" stroke="#666666" points="1360,-275.62 1247.25,-275.62 1247.25,-256.38 1360,-256.38 1360,-275.62"/>
<text text-anchor="middle" x="1303.62" y="-262.12" font-family="Helvetica,sans-Serif" font-size="10.00">xmlr_node_try_open_s</text>
</a>
</g>
</g>
<!-- Node25&#45;&gt;Node28 -->
<g id="edge41_Node000025_Node000028" class="edge">
<title>Node25&#45;&gt;Node28</title>
<g id="a_edge41_Node000025_Node000028"><a xlink:title=" ">
<path fill="none" stroke="#63b8ff" d="M1391.13,-265.41C1380.97,-265.48 1370.44,-265.55 1360.38,-265.62"/>
<polygon fill="#63b8ff" stroke="#63b8ff" points="1390.93,-268.91 1400.9,-265.34 1390.88,-261.91 1390.93,-268.91"/>
</a>
</g>
</g>
<!-- Node26&#45;&gt;Node11 -->
<g id="edge39_Node000026_Node000011" class="edge">
<title>Node26&#45;&gt;Node11</title>
<g id="a_edge39_Node000026_Node000011"><a xlink:title=" ">
<path fill="none" stroke="#63b8ff" d="M687.25,-152C633,-152 554.24,-152 508.49,-152"/>
<polygon fill="#63b8ff" stroke="#63b8ff" points="686.92,-155.5 696.92,-152 686.92,-148.5 686.92,-155.5"/>
</a>
</g>
</g>
<!-- Node29&#45;&gt;Node5 -->
<g id="edge44_Node000029_Node000005" class="edge">
<title>Node29&#45;&gt;Node5</title>
<g id="a_edge44_Node000029_Node000005"><a xlink:title=" ">
<path fill="none" stroke="#63b8ff" d="M1412.49,-356.09C1407.5,-358.74 1402.61,-361.71 1398.25,-365 1358.99,-394.56 1324.71,-443.17 1311,-464.01"/>
<polygon fill="#63b8ff" stroke="#63b8ff" points="1413.9,-359.29 1421.37,-351.78 1410.85,-352.99 1413.9,-359.29"/>
</a>
</g>
</g>
<!-- Node29&#45;&gt;Node27 -->
<g id="edge45_Node000029_Node000027" class="edge">
<title>Node29&#45;&gt;Node27</title>
<g id="a_edge45_Node000029_Node000027"><a xlink:title=" ">
<path fill="none" stroke="#63b8ff" d="M1397.14,-334.04C1382.04,-332.08 1365.75,-329.95 1351.11,-328.05"/>
<polygon fill="#63b8ff" stroke="#63b8ff" points="1396.53,-337.49 1406.89,-335.31 1397.43,-330.55 1396.53,-337.49"/>
</a>
</g>
</g>
<!-- Node30&#45;&gt;Node5 -->
<g id="edge47_Node000030_Node000005" class="edge">
<title>Node30&#45;&gt;Node5</title>
<g id="a_edge47_Node000030_Node000005"><a xlink:title=" ">
<path fill="none" stroke="#63b8ff" d="M1706.6,-510.57C1690.35,-524.3 1665.63,-542.31 1640.25,-550 1520.18,-586.4 1371.26,-511.94 1321.61,-484.01"/>
<polygon fill="#63b8ff" stroke="#63b8ff" points="1708.78,-513.31 1713.99,-504.08 1704.17,-508.05 1708.78,-513.31"/>
</a>
</g>
</g>
<!-- Node30&#45;&gt;Node11 -->
<g id="edge49_Node000030_Node000011" class="edge">
<title>Node30&#45;&gt;Node11</title>
<g id="a_edge49_Node000030_Node000011"><a xlink:title=" ">
<path fill="none" stroke="#63b8ff" d="M1709.49,-511.01C1693.44,-527.92 1667.37,-552.82 1640.25,-568 1564.09,-610.63 1539.91,-626 1452.62,-626 1452.62,-626 1452.62,-626 746.25,-626 642.85,-626 604.6,-594.78 544,-511 501.52,-452.27 477.4,-213.39 472.63,-161.84"/>
<polygon fill="#63b8ff" stroke="#63b8ff" points="1711.66,-513.82 1715.89,-504.1 1706.52,-509.06 1711.66,-513.82"/>
</a>
</g>
</g>
<!-- Node30&#45;&gt;Node18 -->
<g id="edge51_Node000030_Node000018" class="edge">
<title>Node30&#45;&gt;Node18</title>
<g id="a_edge51_Node000030_Node000018"><a xlink:title=" ">
<path fill="none" stroke="#63b8ff" d="M1670.41,-497.7C1633.67,-501.07 1584.35,-506.05 1541,-512 1341.27,-539.39 1284.13,-626.81 1091,-569 1007.66,-544.05 926.86,-472.49 898.98,-446.01"/>
<polygon fill="#63b8ff" stroke="#63b8ff" points="1670.73,-501.19 1680.37,-496.8 1670.1,-494.21 1670.73,-501.19"/>
</a>
</g>
</g>
<!-- Node30&#45;&gt;Node20 -->
<g id="edge48_Node000030_Node000020" class="edge">
<title>Node30&#45;&gt;Node20</title>
<g id="a_edge48_Node000030_Node000020"><a xlink:title=" ">
<path fill="none" stroke="#63b8ff" d="M1682.88,-477.99C1680.59,-476.74 1678.36,-475.41 1676.25,-474 1656.92,-461.06 1659.67,-448.82 1640.25,-436 1632.89,-431.14 1624.04,-427.36 1615.92,-424.55"/>
<polygon fill="#63b8ff" stroke="#63b8ff" points="1681.35,-481.13 1691.88,-482.28 1684.36,-474.81 1681.35,-481.13"/>
</a>
</g>
</g>
<!-- Node31 -->
<g id="Node000031" class="node">
<title>Node31</title>
<g id="a_Node000031"><a xlink:href="../../d5/de6/xmlr_8h.html#a7abcb25400981e0f3404a819d58dcce6" target="_top" xlink:title=" ">
<polygon fill="white" stroke="#666666" points="1640.25,-540.62 1541,-540.62 1541,-521.38 1640.25,-521.38 1640.25,-540.62"/>
<text text-anchor="middle" x="1590.62" y="-527.12" font-family="Helvetica,sans-Serif" font-size="10.00">xmlr_node_close_n</text>
</a>
</g>
</g>
<!-- Node30&#45;&gt;Node31 -->
<g id="edge50_Node000030_Node000031" class="edge">
<title>Node30&#45;&gt;Node31</title>
<g id="a_edge50_Node000030_Node000031"><a xlink:title=" ">
<path fill="none" stroke="#63b8ff" d="M1679.14,-506.18C1662,-511.04 1642.87,-516.47 1626.88,-521"/>
<polygon fill="#63b8ff" stroke="#63b8ff" points="1679.95,-509.59 1688.61,-503.5 1678.04,-502.86 1679.95,-509.59"/>
</a>
</g>
</g>
<!-- Node32&#45;&gt;Node5 -->
<g id="edge54_Node000032_Node000005" class="edge">
<title>Node32&#45;&gt;Node5</title>
<g id="a_edge54_Node000032_Node000005"><a xlink:title=" ">
<path fill="none" stroke="#63b8ff" d="M1567.52,-224.8C1559.03,-231.48 1549.38,-239.39 1541,-247 1524.02,-262.43 1524.31,-271.61 1505,-284 1462.62,-311.2 1437.4,-290.32 1398.25,-322 1348.14,-362.55 1317.65,-437.55 1307.98,-464.25"/>
<polygon fill="#63b8ff" stroke="#63b8ff" points="1569.52,-227.67 1575.27,-218.77 1565.23,-222.14 1569.52,-227.67"/>
</a>
</g>
</g>
<!-- Node32&#45;&gt;Node11 -->
<g id="edge57_Node000032_Node000011" class="edge">
<title>Node32&#45;&gt;Node11</title>
<g id="a_edge57_Node000032_Node000011"><a xlink:title=" ">
<path fill="none" stroke="#63b8ff" d="M1551.54,-194.15C1476.15,-168 1302.12,-114 1151,-114 1151,-114 1151,-114 746.25,-114 660.37,-114 560.8,-132.47 508.38,-143.66"/>
<polygon fill="#63b8ff" stroke="#63b8ff" points="1550.33,-197.43 1560.92,-197.44 1552.64,-190.83 1550.33,-197.43"/>
</a>
</g>
</g>
<!-- Node32&#45;&gt;Node16 -->
<g id="edge62_Node000032_Node000016" class="edge">
<title>Node32&#45;&gt;Node16</title>
<g id="a_edge62_Node000032_Node000016"><a xlink:title=" ">
<path fill="none" stroke="#63b8ff" d="M1533.81,-212.74C1443.12,-220.68 1271.24,-236.8 1245,-247 1141.63,-287.18 1050.19,-393.18 1023.55,-426.1"/>
<polygon fill="#63b8ff" stroke="#63b8ff" points="1534.08,-216.23 1543.73,-211.88 1533.47,-209.26 1534.08,-216.23"/>
</a>
</g>
</g>
<!-- Node32&#45;&gt;Node29 -->
<g id="edge59_Node000032_Node000029" class="edge">
<title>Node32&#45;&gt;Node29</title>
<g id="a_edge59_Node000032_Node000029"><a xlink:title=" ">
<path fill="none" stroke="#63b8ff" d="M1564.89,-224.62C1556.62,-230.96 1547.79,-238.69 1541,-247 1518.87,-274.09 1530.29,-292.83 1505,-317 1498.93,-322.8 1491.2,-327.38 1483.56,-330.92"/>
<polygon fill="#63b8ff" stroke="#63b8ff" points="1566.93,-227.46 1572.95,-218.74 1562.81,-221.8 1566.93,-227.46"/>
</a>
</g>
</g>
<!-- Node33 -->
<g id="Node000033" class="node">
<title>Node33</title>
<g id="a_Node000033"><a xlink:href="../../d7/d61/xmlr_8c.html#a8707ad4fd26cb91f91cf67e90135bc2a" target="_top" xlink:title=" ">
<polygon fill="white" stroke="#666666" points="1209,-237.62 1091,-237.62 1091,-218.38 1209,-218.38 1209,-237.62"/>
<text text-anchor="middle" x="1150" y="-224.12" font-family="Helvetica,sans-Serif" font-size="10.00">mp_xmlr_get_inner_xml</text>
</a>
</g>
</g>
<!-- Node32&#45;&gt;Node33 -->
<g id="edge55_Node000032_Node000033" class="edge">
<title>Node32&#45;&gt;Node33</title>
<g id="a_edge55_Node000032_Node000033"><a xlink:title=" ">
<path fill="none" stroke="#63b8ff" d="M1533.87,-206.74C1465.64,-205.71 1346.61,-205.58 1245,-214 1233.41,-214.96 1221.07,-216.45 1209.28,-218.11"/>
<polygon fill="#63b8ff" stroke="#63b8ff" points="1533.63,-210.24 1543.68,-206.9 1533.74,-203.24 1533.63,-210.24"/>
</a>
</g>
</g>
<!-- Node34 -->
<g id="Node000034" class="node">
<title>Node34</title>
<g id="a_Node000034"><a xlink:href="../../d7/d61/xmlr_8c.html#ac7c3823503c60de7ca637665df60da38" target="_top" xlink:title=" ">
<polygon fill="white" stroke="#666666" points="1501.25,-122.62 1402,-122.62 1402,-103.38 1501.25,-103.38 1501.25,-122.62"/>
<text text-anchor="middle" x="1451.62" y="-109.12" font-family="Helvetica,sans-Serif" font-size="10.00">xmlr_get_inner_xml</text>
</a>
</g>
</g>
<!-- Node32&#45;&gt;Node34 -->
<g id="edge58_Node000032_Node000034" class="edge">
<title>Node32&#45;&gt;Node34</title>
<g id="a_edge58_Node000032_Node000034"><a xlink:title=" ">
<path fill="none" stroke="#63b8ff" d="M1571.5,-190.3C1555.09,-174.9 1529.75,-152.65 1505,-137 1496.63,-131.71 1486.9,-126.92 1478.12,-123.04"/>
<polygon fill="#63b8ff" stroke="#63b8ff" points="1568.9,-192.65 1578.55,-197.02 1573.73,-187.59 1568.9,-192.65"/>
</a>
</g>
</g>
<!-- Node35 -->
<g id="Node000035" class="node">
<title>Node35</title>
<g id="a_Node000035"><a xlink:href="../../d7/d61/xmlr_8c.html#a5bb0a667f39bf90cf39974b0fd5b32cc" target="_top" xlink:title=" ">
<polygon fill="white" stroke="#666666" points="1505,-85.62 1398.25,-85.62 1398.25,-66.38 1505,-66.38 1505,-85.62"/>
<text text-anchor="middle" x="1451.62" y="-72.12" font-family="Helvetica,sans-Serif" font-size="10.00">xmlr_node_skip_until</text>
</a>
</g>
</g>
<!-- Node32&#45;&gt;Node35 -->
<g id="edge60_Node000032_Node000035" class="edge">
<title>Node32&#45;&gt;Node35</title>
<g id="a_edge60_Node000032_Node000035"><a xlink:title=" ">
<path fill="none" stroke="#63b8ff" d="M1579.84,-188.29C1566.34,-163 1539.66,-119.36 1505,-94 1500.73,-90.88 1495.88,-88.27 1490.89,-86.09"/>
<polygon fill="#63b8ff" stroke="#63b8ff" points="1576.57,-189.58 1584.27,-196.86 1582.79,-186.36 1576.57,-189.58"/>
</a>
</g>
</g>
<!-- Node33&#45;&gt;Node16 -->
<g id="edge56_Node000033_Node000016" class="edge">
<title>Node33&#45;&gt;Node16</title>
<g id="a_edge56_Node000033_Node000016"><a xlink:title=" ">
<path fill="none" stroke="#63b8ff" d="M1102.32,-243.25C1098.19,-245.76 1094.33,-248.66 1091,-252 1039.37,-303.84 1021.65,-396.01 1017.08,-426.16"/>
<polygon fill="#63b8ff" stroke="#63b8ff" points="1103.67,-246.49 1110.93,-238.77 1100.44,-240.28 1103.67,-246.49"/>
</a>
</g>
</g>
<!-- Node36 -->
<g id="Node000036" class="node">
<title>Node36</title>
<g id="a_Node000036"><a xlink:href="../../d5/de6/xmlr_8h.html#a423dc59492451e56cd4ff0dd42dcaefe" target="_top" xlink:title=" ">
<polygon fill="white" stroke="#666666" points="1362.25,-85.62 1245,-85.62 1245,-66.38 1362.25,-66.38 1362.25,-85.62"/>
<text text-anchor="middle" x="1303.62" y="-72.12" font-family="Helvetica,sans-Serif" font-size="10.00">xmlr_node_skip_until_s</text>
</a>
</g>
</g>
<!-- Node35&#45;&gt;Node36 -->
<g id="edge61_Node000035_Node000036" class="edge">
<title>Node35&#45;&gt;Node36</title>
<g id="a_edge61_Node000035_Node000036"><a xlink:title=" ">
<path fill="none" stroke="#63b8ff" d="M1386.47,-76C1378.56,-76 1370.51,-76 1362.7,-76"/>
<polygon fill="#63b8ff" stroke="#63b8ff" points="1386.4,-79.5 1396.4,-76 1386.4,-72.5 1386.4,-79.5"/>
</a>
</g>
</g>
<!-- Node37&#45;&gt;Node11 -->
<g id="edge65_Node000037_Node000011" class="edge">
<title>Node37&#45;&gt;Node11</title>
<g id="a_edge65_Node000037_Node000011"><a xlink:title=" ">
<path fill="none" stroke="#63b8ff" d="M971.32,-19.99C886.75,-23.3 692.53,-37.68 544,-100 519.49,-110.29 495.3,-130.22 482.06,-142.2"/>
<polygon fill="#63b8ff" stroke="#63b8ff" points="971.37,-23.49 981.24,-19.64 971.12,-16.49 971.37,-23.49"/>
</a>
</g>
</g>
</g>
</svg>
