<?xml version="1.0" encoding="UTF-8" standalone="no"?>
<!DOCTYPE svg PUBLIC "-//W3C//DTD SVG 1.1//EN"
 "http://www.w3.org/Graphics/SVG/1.1/DTD/svg11.dtd">
<!-- Generated by graphviz version 9.0.0 (20230911.1827)
 -->
<!-- Title: ssl_write_chunk Pages: 1 -->
<svg width="518pt" height="27pt"
 viewBox="0.00 0.00 517.75 27.25" xmlns="http://www.w3.org/2000/svg" xmlns:xlink="http://www.w3.org/1999/xlink">
<g id="graph0" class="graph" transform="scale(1 1) rotate(0) translate(4 23.25)">
<title>ssl_write_chunk</title>
<!-- Node1 -->
<g id="Node000001" class="node">
<title>Node1</title>
<g id="a_Node000001"><a xlink:title=" ">
<polygon fill="#999999" stroke="#666666" points="86.5,-19.25 0,-19.25 0,0 86.5,0 86.5,-19.25"/>
<text text-anchor="middle" x="43.25" y="-5.75" font-family="Helvetica,sans-Serif" font-size="10.00">ssl_write_chunk</text>
</a>
</g>
</g>
<!-- Node2 -->
<g id="Node000002" class="node">
<title>Node2</title>
<g id="a_Node000002"><a xlink:href="../../da/da5/ssl_8blk.html#a46e11de89824956ed90e51340833d824" target="_top" xlink:title="Wrapper to SSL_write that mimic write(2).">
<polygon fill="white" stroke="#666666" points="177.5,-19.25 122.5,-19.25 122.5,0 177.5,0 177.5,-19.25"/>
<text text-anchor="middle" x="150" y="-5.75" font-family="Helvetica,sans-Serif" font-size="10.00">ssl_write</text>
</a>
</g>
</g>
<!-- Node1&#45;&gt;Node2 -->
<g id="edge1_Node000001_Node000002" class="edge">
<title>Node1&#45;&gt;Node2</title>
<g id="a_edge1_Node000001_Node000002"><a xlink:title=" ">
<path fill="none" stroke="#63b8ff" d="M86.86,-9.62C94.75,-9.62 102.96,-9.62 110.72,-9.62"/>
<polygon fill="#63b8ff" stroke="#63b8ff" points="110.54,-13.13 120.54,-9.63 110.54,-6.13 110.54,-13.13"/>
</a>
</g>
</g>
<!-- Node3 -->
<g id="Node000003" class="node">
<title>Node3</title>
<g id="a_Node000003"><a xlink:href="../../da/da5/ssl_8blk.html#a43e1df139c257b3b3cb06e77e45837aa" target="_top" xlink:title="Helper to convert openssl errors to classical system errors.">
<polygon fill="white" stroke="#666666" points="312,-19.25 213.5,-19.25 213.5,0 312,0 312,-19.25"/>
<text text-anchor="middle" x="262.75" y="-5.75" font-family="Helvetica,sans-Serif" font-size="10.00">ssl_get_error_conv</text>
</a>
</g>
</g>
<!-- Node2&#45;&gt;Node3 -->
<g id="edge2_Node000002_Node000003" class="edge">
<title>Node2&#45;&gt;Node3</title>
<g id="a_edge2_Node000002_Node000003"><a xlink:title=" ">
<path fill="none" stroke="#63b8ff" d="M177.81,-9.62C185.12,-9.62 193.33,-9.62 201.7,-9.62"/>
<polygon fill="#63b8ff" stroke="#63b8ff" points="201.6,-13.13 211.6,-9.63 201.6,-6.13 201.6,-13.13"/>
</a>
</g>
</g>
<!-- Node4 -->
<g id="Node000004" class="node">
<title>Node4</title>
<g id="a_Node000004"><a xlink:href="../../da/da5/ssl_8blk.html#aeba371daba7f6b6f5ff75f70b0003965" target="_top" xlink:title=" ">
<polygon fill="white" stroke="#666666" points="427.75,-19.25 348,-19.25 348,0 427.75,0 427.75,-19.25"/>
<text text-anchor="middle" x="387.88" y="-5.75" font-family="Helvetica,sans-Serif" font-size="10.00">ssl_error_conv</text>
</a>
</g>
</g>
<!-- Node3&#45;&gt;Node4 -->
<g id="edge3_Node000003_Node000004" class="edge">
<title>Node3&#45;&gt;Node4</title>
<g id="a_edge3_Node000003_Node000004"><a xlink:title=" ">
<path fill="none" stroke="#63b8ff" d="M312.41,-9.62C320.27,-9.62 328.42,-9.62 336.32,-9.62"/>
<polygon fill="#63b8ff" stroke="#63b8ff" points="336.14,-13.13 346.14,-9.63 336.14,-6.13 336.14,-13.13"/>
</a>
</g>
</g>
<!-- Node5 -->
<g id="Node000005" class="node">
<title>Node5</title>
<g id="a_Node000005"><a xlink:href="../../d7/df8/log_8c.html#ab9aebc66105141ee67ddf3882842c29e" target="_top" xlink:title=" ">
<polygon fill="white" stroke="#666666" points="509.75,-19.25 463.75,-19.25 463.75,0 509.75,0 509.75,-19.25"/>
<text text-anchor="middle" x="486.75" y="-5.75" font-family="Helvetica,sans-Serif" font-size="10.00">e_error</text>
</a>
</g>
</g>
<!-- Node4&#45;&gt;Node5 -->
<g id="edge4_Node000004_Node000005" class="edge">
<title>Node4&#45;&gt;Node5</title>
<g id="a_edge4_Node000004_Node000005"><a xlink:title=" ">
<path fill="none" stroke="#63b8ff" d="M428,-9.62C436.02,-9.62 444.39,-9.62 452.2,-9.62"/>
<polygon fill="#63b8ff" stroke="#63b8ff" points="451.97,-13.13 461.97,-9.63 451.97,-6.13 451.97,-13.13"/>
</a>
</g>
</g>
</g>
</svg>
