<?xml version="1.0" encoding="UTF-8" standalone="no"?>
<!DOCTYPE svg PUBLIC "-//W3C//DTD SVG 1.1//EN"
 "http://www.w3.org/Graphics/SVG/1.1/DTD/svg11.dtd">
<!-- Generated by graphviz version 9.0.0 (20230911.1827)
 -->
<!-- Title: iop_struct_attr_t Pages: 1 -->
<svg width="132pt" height="582pt"
 viewBox="0.00 0.00 132.00 581.75" xmlns="http://www.w3.org/2000/svg" xmlns:xlink="http://www.w3.org/1999/xlink">
<g id="graph0" class="graph" transform="scale(1 1) rotate(0) translate(4 577.75)">
<title>iop_struct_attr_t</title>
<!-- Node1 -->
<g id="Node000001" class="node">
<title>Node1</title>
<g id="a_Node000001"><a xlink:title=" ">
<polygon fill="#999999" stroke="none" points="113.5,-60 10.5,-60 10.5,0 113.5,0 113.5,-60"/>
<text text-anchor="start" x="26.75" y="-46.5" font-family="Helvetica,sans-Serif" font-size="10.00">iop_struct_attr_t</text>
<text text-anchor="start" x="14.5" y="-31.5" font-family="Helvetica,sans-Serif" font-size="10.00">+</text>
<text text-anchor="start" x="24.5" y="-31.5" font-family="Helvetica,sans-Serif" font-size="10.00">iop_struct_attr_type</text>
<text text-anchor="start" x="24.5" y="-20.25" font-family="Helvetica,sans-Serif" font-size="10.00">_t type</text>
<text text-anchor="start" x="60.5" y="-5.5" font-family="Helvetica,sans-Serif" font-size="10.00"> </text>
<polygon fill="#666666" stroke="#666666" points="10.5,-43 10.5,-43 113.5,-43 113.5,-43 10.5,-43"/>
<polygon fill="#666666" stroke="#666666" points="10.5,-17 10.5,-17 22.5,-17 22.5,-17 10.5,-17"/>
<polygon fill="#666666" stroke="#666666" points="22.5,-17 22.5,-17 113.5,-17 113.5,-17 22.5,-17"/>
<polygon fill="none" stroke="#666666" points="10.5,0 10.5,-60 113.5,-60 113.5,0 10.5,0"/>
</a>
</g>
</g>
<!-- Node2 -->
<g id="Node000002" class="node">
<title>Node2</title>
<g id="a_Node000002"><a xlink:href="../../db/dc2/structiop__generic__attr__arg__t.html" target="_top" xlink:title=" ">
<polygon fill="white" stroke="none" points="115,-156.25 9,-156.25 9,-107.25 115,-107.25 115,-156.25"/>
<text text-anchor="start" x="14" y="-142.75" font-family="Helvetica,sans-Serif" font-size="10.00">iop_generic_attr_arg_t</text>
<text text-anchor="start" x="60.5" y="-127.75" font-family="Helvetica,sans-Serif" font-size="10.00"> </text>
<text text-anchor="start" x="60.5" y="-112.75" font-family="Helvetica,sans-Serif" font-size="10.00"> </text>
<polygon fill="#666666" stroke="#666666" points="9,-139.25 9,-139.25 115,-139.25 115,-139.25 9,-139.25"/>
<polygon fill="#666666" stroke="#666666" points="9,-124.25 9,-124.25 115,-124.25 115,-124.25 9,-124.25"/>
<polygon fill="none" stroke="#666666" points="9,-107.25 9,-156.25 115,-156.25 115,-107.25 9,-107.25"/>
</a>
</g>
</g>
<!-- Node2&#45;&gt;Node1 -->
<g id="edge1_Node000001_Node000002" class="edge">
<title>Node2&#45;&gt;Node1</title>
<g id="a_edge1_Node000001_Node000002"><a xlink:title=" ">
<path fill="none" stroke="#63b8ff" d="M62,-107.36C62,-97.07 62,-84.66 62,-72.86"/>
<polygon fill="none" stroke="#63b8ff" points="62,-72.85 58,-66.85 62,-60.85 66,-66.85 62,-72.85"/>
</a>
</g>
<text text-anchor="middle" x="75.5" y="-79.75" font-family="Helvetica,sans-Serif" font-size="10.00" fill="grey"> +args</text>
</g>
<!-- Node3 -->
<g id="Node000003" class="node">
<title>Node3</title>
<g id="a_Node000003"><a xlink:href="../../d9/d45/unioniop__value__t.html" target="_top" xlink:title=" ">
<polygon fill="white" stroke="none" points="116,-387.5 8,-387.5 8,-203.5 116,-203.5 116,-387.5"/>
<text text-anchor="start" x="37.25" y="-374" font-family="Helvetica,sans-Serif" font-size="10.00">iop_value_t</text>
<text text-anchor="start" x="12" y="-359" font-family="Helvetica,sans-Serif" font-size="10.00">+</text>
<text text-anchor="start" x="22" y="-359" font-family="Helvetica,sans-Serif" font-size="10.00">int64_t i</text>
<text text-anchor="start" x="12" y="-344" font-family="Helvetica,sans-Serif" font-size="10.00">+</text>
<text text-anchor="start" x="22" y="-344" font-family="Helvetica,sans-Serif" font-size="10.00">int64_t i64</text>
<text text-anchor="start" x="12" y="-329" font-family="Helvetica,sans-Serif" font-size="10.00">+</text>
<text text-anchor="start" x="22" y="-329" font-family="Helvetica,sans-Serif" font-size="10.00">int32_t i32</text>
<text text-anchor="start" x="12" y="-314" font-family="Helvetica,sans-Serif" font-size="10.00">+</text>
<text text-anchor="start" x="22" y="-314" font-family="Helvetica,sans-Serif" font-size="10.00">uint64_t u</text>
<text text-anchor="start" x="12" y="-299" font-family="Helvetica,sans-Serif" font-size="10.00">+</text>
<text text-anchor="start" x="22" y="-299" font-family="Helvetica,sans-Serif" font-size="10.00">uint64_t u64</text>
<text text-anchor="start" x="12" y="-284" font-family="Helvetica,sans-Serif" font-size="10.00">+</text>
<text text-anchor="start" x="22" y="-284" font-family="Helvetica,sans-Serif" font-size="10.00">uint32_t u32</text>
<text text-anchor="start" x="12" y="-269" font-family="Helvetica,sans-Serif" font-size="10.00">+</text>
<text text-anchor="start" x="22" y="-269" font-family="Helvetica,sans-Serif" font-size="10.00">double d</text>
<text text-anchor="start" x="12" y="-254" font-family="Helvetica,sans-Serif" font-size="10.00">+</text>
<text text-anchor="start" x="22" y="-254" font-family="Helvetica,sans-Serif" font-size="10.00">bool b</text>
<text text-anchor="start" x="12" y="-239" font-family="Helvetica,sans-Serif" font-size="10.00">+</text>
<text text-anchor="start" x="22" y="-239" font-family="Helvetica,sans-Serif" font-size="10.00">const void *nullable p</text>
<text text-anchor="start" x="12" y="-224" font-family="Helvetica,sans-Serif" font-size="10.00">+</text>
<text text-anchor="start" x="22" y="-224" font-family="Helvetica,sans-Serif" font-size="10.00">void *nullable v</text>
<text text-anchor="start" x="60.5" y="-209" font-family="Helvetica,sans-Serif" font-size="10.00"> </text>
<polygon fill="#666666" stroke="#666666" points="8,-370.5 8,-370.5 116,-370.5 116,-370.5 8,-370.5"/>
<polygon fill="#666666" stroke="#666666" points="8,-220.5 8,-220.5 20,-220.5 20,-220.5 8,-220.5"/>
<polygon fill="#666666" stroke="#666666" points="20,-220.5 20,-220.5 116,-220.5 116,-220.5 20,-220.5"/>
<polygon fill="none" stroke="#666666" points="8,-203.5 8,-387.5 116,-387.5 116,-203.5 8,-203.5"/>
</a>
</g>
</g>
<!-- Node3&#45;&gt;Node2 -->
<g id="edge2_Node000002_Node000003" class="edge">
<title>Node3&#45;&gt;Node2</title>
<g id="a_edge2_Node000002_Node000003"><a xlink:title=" ">
<path fill="none" stroke="#63b8ff" d="M62,-203.7C62,-191.38 62,-179.37 62,-168.85"/>
<polygon fill="none" stroke="#63b8ff" points="62,-168.86 58,-162.86 62,-156.86 66,-162.86 62,-168.86"/>
</a>
</g>
<text text-anchor="middle" x="68.75" y="-176" font-family="Helvetica,sans-Serif" font-size="10.00" fill="grey"> +v</text>
</g>
<!-- Node4 -->
<g id="Node000004" class="node">
<title>Node4</title>
<g id="a_Node000004"><a xlink:href="../../d1/ddc/structlstr__t.html" target="_top" xlink:title="representation of a string with length.">
<polygon fill="white" stroke="none" points="124,-573.75 0,-573.75 0,-434.75 124,-434.75 124,-573.75"/>
<text text-anchor="start" x="51.12" y="-560.25" font-family="Helvetica,sans-Serif" font-size="10.00">lstr_t</text>
<text text-anchor="start" x="4" y="-545.25" font-family="Helvetica,sans-Serif" font-size="10.00">+</text>
<text text-anchor="start" x="14" y="-545.25" font-family="Helvetica,sans-Serif" font-size="10.00">const char * s</text>
<text text-anchor="start" x="4" y="-530.25" font-family="Helvetica,sans-Serif" font-size="10.00">+</text>
<text text-anchor="start" x="14" y="-530.25" font-family="Helvetica,sans-Serif" font-size="10.00">char * v</text>
<text text-anchor="start" x="4" y="-515.25" font-family="Helvetica,sans-Serif" font-size="10.00">+</text>
<text text-anchor="start" x="14" y="-515.25" font-family="Helvetica,sans-Serif" font-size="10.00">void * data</text>
<text text-anchor="start" x="4" y="-500.25" font-family="Helvetica,sans-Serif" font-size="10.00">+</text>
<text text-anchor="start" x="14" y="-500.25" font-family="Helvetica,sans-Serif" font-size="10.00">union lstr_t::@107 @108</text>
<text text-anchor="start" x="4" y="-485.25" font-family="Helvetica,sans-Serif" font-size="10.00">+</text>
<text text-anchor="start" x="14" y="-485.25" font-family="Helvetica,sans-Serif" font-size="10.00">int len</text>
<text text-anchor="start" x="4" y="-470.25" font-family="Helvetica,sans-Serif" font-size="10.00">+</text>
<text text-anchor="start" x="14" y="-470.25" font-family="Helvetica,sans-Serif" font-size="10.00">unsigned mem_pool</text>
<text text-anchor="start" x="4" y="-455.25" font-family="Helvetica,sans-Serif" font-size="10.00">+</text>
<text text-anchor="start" x="14" y="-455.25" font-family="Helvetica,sans-Serif" font-size="10.00">union lstr_t::@125 @126</text>
<text text-anchor="start" x="60.5" y="-440.25" font-family="Helvetica,sans-Serif" font-size="10.00"> </text>
<polygon fill="#666666" stroke="#666666" points="0,-556.75 0,-556.75 124,-556.75 124,-556.75 0,-556.75"/>
<polygon fill="#666666" stroke="#666666" points="0,-451.75 0,-451.75 12,-451.75 12,-451.75 0,-451.75"/>
<polygon fill="#666666" stroke="#666666" points="12,-451.75 12,-451.75 124,-451.75 124,-451.75 12,-451.75"/>
<polygon fill="none" stroke="#666666" points="0,-434.75 0,-573.75 124,-573.75 124,-434.75 0,-434.75"/>
</a>
</g>
</g>
<!-- Node4&#45;&gt;Node3 -->
<g id="edge3_Node000003_Node000004" class="edge">
<title>Node4&#45;&gt;Node3</title>
<g id="a_edge3_Node000003_Node000004"><a xlink:title=" ">
<path fill="none" stroke="#63b8ff" d="M62,-434.98C62,-423.75 62,-411.89 62,-400.04"/>
<polygon fill="none" stroke="#63b8ff" points="62,-400.1 58,-394.1 62,-388.1 66,-394.1 62,-400.1"/>
</a>
</g>
<text text-anchor="middle" x="68.75" y="-407.25" font-family="Helvetica,sans-Serif" font-size="10.00" fill="grey"> +s</text>
</g>
</g>
</svg>
