<?xml version="1.0" encoding="UTF-8" standalone="no"?>
<!DOCTYPE svg PUBLIC "-//W3C//DTD SVG 1.1//EN"
 "http://www.w3.org/Graphics/SVG/1.1/DTD/svg11.dtd">
<!-- Generated by graphviz version 9.0.0 (20230911.1827)
 -->
<!-- Title: net_rctl_init_ Pages: 1 -->
<svg width="200pt" height="64pt"
 viewBox="0.00 0.00 199.75 64.25" xmlns="http://www.w3.org/2000/svg" xmlns:xlink="http://www.w3.org/1999/xlink">
<g id="graph0" class="graph" transform="scale(1 1) rotate(0) translate(4 60.25)">
<title>net_rctl_init_</title>
<!-- Node1 -->
<g id="Node000001" class="node">
<title>Node1</title>
<g id="a_Node000001"><a xlink:title=" ">
<polygon fill="#999999" stroke="#666666" points="191.75,-37.25 120.25,-37.25 120.25,-18 191.75,-18 191.75,-37.25"/>
<text text-anchor="middle" x="156" y="-23.75" font-family="Helvetica,sans-Serif" font-size="10.00">net_rctl_init_</text>
</a>
</g>
</g>
<!-- Node2 -->
<g id="Node000002" class="node">
<title>Node2</title>
<g id="a_Node000002"><a xlink:href="../../db/d33/rate_8blk.html#a38ea13e0b37c4507238b898fe8069beb" target="_top" xlink:title=" ">
<polygon fill="white" stroke="#666666" points="75.25,-56.25 9,-56.25 9,-37 75.25,-37 75.25,-56.25"/>
<text text-anchor="middle" x="42.12" y="-42.75" font-family="Helvetica,sans-Serif" font-size="10.00">net_rctl_init</text>
</a>
</g>
</g>
<!-- Node1&#45;&gt;Node2 -->
<g id="edge1_Node000001_Node000002" class="edge">
<title>Node1&#45;&gt;Node2</title>
<g id="a_edge1_Node000001_Node000002"><a xlink:title=" ">
<path fill="none" stroke="#63b8ff" d="M108.56,-35.51C97.42,-37.4 85.77,-39.38 75.43,-41.14"/>
<polygon fill="#63b8ff" stroke="#63b8ff" points="109.14,-38.96 118.42,-33.84 107.97,-32.06 109.14,-38.96"/>
</a>
</g>
</g>
<!-- Node3 -->
<g id="Node000003" class="node">
<title>Node3</title>
<g id="a_Node000003"><a xlink:href="../../db/d33/rate_8blk.html#a9422228ae00e5e32e5c68a8b6ff5835f" target="_top" xlink:title=" ">
<polygon fill="white" stroke="#666666" points="84.25,-19.25 0,-19.25 0,0 84.25,0 84.25,-19.25"/>
<text text-anchor="middle" x="42.12" y="-5.75" font-family="Helvetica,sans-Serif" font-size="10.00">net_rctl_init_blk</text>
</a>
</g>
</g>
<!-- Node1&#45;&gt;Node3 -->
<g id="edge2_Node000001_Node000003" class="edge">
<title>Node1&#45;&gt;Node3</title>
<g id="a_edge2_Node000001_Node000003"><a xlink:title=" ">
<path fill="none" stroke="#63b8ff" d="M108.74,-20.18C100.65,-18.88 92.29,-17.54 84.36,-16.26"/>
<polygon fill="#63b8ff" stroke="#63b8ff" points="107.99,-23.61 118.41,-21.74 109.1,-16.69 107.99,-23.61"/>
</a>
</g>
</g>
</g>
</svg>
