<?xml version="1.0" encoding="UTF-8" standalone="no"?>
<!DOCTYPE svg PUBLIC "-//W3C//DTD SVG 1.1//EN"
 "http://www.w3.org/Graphics/SVG/1.1/DTD/svg11.dtd">
<!-- Generated by graphviz version 9.0.0 (20230911.1827)
 -->
<!-- Title: http.c Pages: 1 -->
<svg width="244pt" height="149pt"
 viewBox="0.00 0.00 244.38 149.00" xmlns="http://www.w3.org/2000/svg" xmlns:xlink="http://www.w3.org/1999/xlink">

<svg id="main" version="1.1" xmlns="http://www.w3.org/2000/svg" xmlns:xlink="http://www.w3.org/1999/xlink" xml:space="preserve" onload="init(evt)">
<style type="text/css"><![CDATA[
.node, .edge {opacity: 0.7;}
.node.selected, .edge.selected {opacity: 1;}
.edge:hover path { stroke: red; }
.edge:hover polygon { stroke: red; fill: red; }
]]></style>
<script type="application/ecmascript" xlink:href="../../svg.min.js"/>
<svg id="graph" class="graph">
<g id="graph0" class="graph" transform="scale(1 1) rotate(0) translate(4 145)">
<title>http.c</title>
<!-- Node1 -->
<g id="Node000001" class="node">
<title>Node1</title>
<g id="a_Node000001"><a xlink:title=" ">
<polygon fill="#999999" stroke="#666666" points="108.62,-141 68.62,-141 68.62,-121.75 108.62,-121.75 108.62,-141"/>
<text text-anchor="middle" x="88.62" y="-127.5" font-family="Helvetica,sans-Serif" font-size="10.00">http.c</text>
</a>
</g>
</g>
<!-- Node2 -->
<g id="Node000002" class="node">
<title>Node2</title>
<g id="a_Node000002"><a xlink:title=" ">
<polygon fill="#e0e0e0" stroke="#999999" points="93.25,-85.75 0,-85.75 0,-66.5 93.25,-66.5 93.25,-85.75"/>
<text text-anchor="middle" x="46.62" y="-72.25" font-family="Helvetica,sans-Serif" font-size="10.00">lib&#45;common/http.h</text>
</a>
</g>
</g>
<!-- Node1&#45;&gt;Node2 -->
<g id="edge1_Node000001_Node000002" class="edge">
<title>Node1&#45;&gt;Node2</title>
<g id="a_edge1_Node000001_Node000002"><a xlink:title=" ">
<path fill="none" stroke="#63b8ff" d="M81.69,-121.58C76.01,-114.38 67.79,-103.96 60.73,-95.01"/>
<polygon fill="#63b8ff" stroke="#63b8ff" points="63.59,-92.98 54.65,-87.3 58.09,-97.32 63.59,-92.98"/>
</a>
</g>
</g>
<!-- Node3 -->
<g id="Node000003" class="node">
<title>Node3</title>
<g id="a_Node000003"><a xlink:href="../../df/da0/prometheus-client_2priv_8h.html" target="_top" xlink:title=" ">
<polygon fill="white" stroke="#666666" points="150.25,-85.75 111,-85.75 111,-66.5 150.25,-66.5 150.25,-85.75"/>
<text text-anchor="middle" x="130.62" y="-72.25" font-family="Helvetica,sans-Serif" font-size="10.00">priv.h</text>
</a>
</g>
</g>
<!-- Node1&#45;&gt;Node3 -->
<g id="edge2_Node000001_Node000003" class="edge">
<title>Node1&#45;&gt;Node3</title>
<g id="a_edge2_Node000001_Node000003"><a xlink:title=" ">
<path fill="none" stroke="#63b8ff" d="M95.56,-121.58C101.24,-114.38 109.46,-103.96 116.52,-95.01"/>
<polygon fill="#63b8ff" stroke="#63b8ff" points="119.16,-97.32 122.6,-87.3 113.66,-92.98 119.16,-97.32"/>
</a>
</g>
</g>
<!-- Node4 -->
<g id="Node000004" class="node">
<title>Node4</title>
<g id="a_Node000004"><a xlink:title=" ">
<polygon fill="#e0e0e0" stroke="#999999" points="128.75,-30.5 8.5,-30.5 8.5,0 128.75,0 128.75,-30.5"/>
<text text-anchor="start" x="16.5" y="-17" font-family="Helvetica,sans-Serif" font-size="10.00">lib&#45;common/prometheus</text>
<text text-anchor="middle" x="68.62" y="-5.75" font-family="Helvetica,sans-Serif" font-size="10.00">&#45;client.h</text>
</a>
</g>
</g>
<!-- Node3&#45;&gt;Node4 -->
<g id="edge3_Node000003_Node000004" class="edge">
<title>Node3&#45;&gt;Node4</title>
<g id="a_edge3_Node000003_Node000004"><a xlink:title=" ">
<path fill="none" stroke="#63b8ff" d="M121.21,-66.18C113.48,-58.84 102.2,-48.13 92.07,-38.51"/>
<polygon fill="#63b8ff" stroke="#63b8ff" points="94.69,-36.17 85.03,-31.82 89.87,-41.25 94.69,-36.17"/>
</a>
</g>
</g>
<!-- Node5 -->
<g id="Node000005" class="node">
<title>Node5</title>
<g id="a_Node000005"><a xlink:title=" ">
<polygon fill="#e0e0e0" stroke="#999999" points="236.38,-24.88 146.88,-24.88 146.88,-5.63 236.38,-5.63 236.38,-24.88"/>
<text text-anchor="middle" x="191.62" y="-11.38" font-family="Helvetica,sans-Serif" font-size="10.00">lib&#45;common/log.h</text>
</a>
</g>
</g>
<!-- Node3&#45;&gt;Node5 -->
<g id="edge4_Node000003_Node000005" class="edge">
<title>Node3&#45;&gt;Node5</title>
<g id="a_edge4_Node000003_Node000005"><a xlink:title=" ">
<path fill="none" stroke="#63b8ff" d="M139.89,-66.18C148.94,-57.45 162.93,-43.94 174.09,-33.18"/>
<polygon fill="#63b8ff" stroke="#63b8ff" points="176.42,-35.79 181.18,-26.33 171.56,-30.75 176.42,-35.79"/>
</a>
</g>
</g>
</g>
</svg>
</svg>

<style type='text/css'>
<![CDATA[
[data-mouse-over-selected='false'] { opacity: 0.7; }
[data-mouse-over-selected='true']  { opacity: 1.0; }
]]>
</style>
<script type="application/ecmascript"><![CDATA[
document.addEventListener('DOMContentLoaded', (event) => {
  highlightEdges();
  highlightAdjacentNodes();
});
]]></script>
</svg>
