<?xml version="1.0" encoding="UTF-8" standalone="no"?>
<!DOCTYPE svg PUBLIC "-//W3C//DTD SVG 1.1//EN"
 "http://www.w3.org/Graphics/SVG/1.1/DTD/svg11.dtd">
<!-- Generated by graphviz version 9.0.0 (20230911.1827)
 -->
<!-- Title: yaml_pack_env_set_flags Pages: 1 -->
<!--zoomable 531 -->

<svg id="main" version="1.1" xmlns="http://www.w3.org/2000/svg" xmlns:xlink="http://www.w3.org/1999/xlink" xml:space="preserve" onload="init(evt)">
<style type="text/css"><![CDATA[
.node, .edge {opacity: 0.7;}
.node.selected, .edge.selected {opacity: 1;}
.edge:hover path { stroke: red; }
.edge:hover polygon { stroke: red; fill: red; }
]]></style>

<defs>
  <circle id="rim" cx="0" cy="0" r="7"/>
  <circle id="rim2" cx="0" cy="0" r="3.5"/>
  <g id="zoomPlus">
    <use xlink:href="#rim" fill="#404040"><set attributeName="fill" to="#808080" begin="zoomplus.mouseover" end="zoomplus.mouseout"/></use>
    <path d="M-4,0h8M0,-4v8" fill="none" stroke="white" stroke-width="1.5" pointer-events="none"/>
  </g>
  <g id="zoomMin">
    <use xlink:href="#rim" fill="#404040"><set attributeName="fill" to="#808080" begin="zoomminus.mouseover" end="zoomminus.mouseout"/></use>
    <path d="M-4,0h8" fill="none" stroke="white" stroke-width="1.5" pointer-events="none"/>
  </g>
  <g id="arrowUp" transform="translate(30 24)">
    <use xlink:href="#rim"/>
    <path pointer-events="none" fill="none" stroke="white" stroke-width="1.5" d="M0,-3.0v7 M-2.5,-0.5L0,-3.0L2.5,-0.5"/>
  </g>
  <g id="arrowRight" transform="rotate(90) translate(36 -43)">
    <use xlink:href="#rim"/>
    <path pointer-events="none" fill="none" stroke="white" stroke-width="1.5" d="M0,-3.0v7 M-2.5,-0.5L0,-3.0L2.5,-0.5"/>
  </g>
  <g id="arrowDown" transform="rotate(180) translate(-30 -48)">
    <use xlink:href="#rim"/>
    <path pointer-events="none" fill="none" stroke="white" stroke-width="1.5" d="M0,-3.0v7 M-2.5,-0.5L0,-3.0L2.5,-0.5"/>
  </g>
  <g id="arrowLeft" transform="rotate(270) translate(-36 17)">
    <use xlink:href="#rim"/>
    <path pointer-events="none" fill="none" stroke="white" stroke-width="1.5" d="M0,-3.0v7 M-2.5,-0.5L0,-3.0L2.5,-0.5"/>
  </g>
  <g id="resetDef">
    <use xlink:href="#rim2" fill="#404040"><set attributeName="fill" to="#808080" begin="reset.mouseover" end="reset.mouseout"/></use>
  </g>
</defs>
<script type="application/ecmascript">
var viewWidth = 1953;
var viewHeight = 531;
var sectionId = 'dynsection-20';
</script>
<script type="application/ecmascript" xlink:href="../../svg.min.js"/>
<svg id="graph" class="graph">
<g id="viewport">
<title>yaml_pack_env_set_flags</title>
<!-- Node1 -->
<g id="Node000001" class="node">
<title>Node1</title>
<g id="a_Node000001"><a xlink:title="Set YAML packing flags.">
<polygon fill="#999999" stroke="#666666" points="1945,-256.25 1817.25,-256.25 1817.25,-237 1945,-237 1945,-256.25"/>
<text text-anchor="middle" x="1881.12" y="-242.75" font-family="Helvetica,sans-Serif" font-size="10.00">yaml_pack_env_set_flags</text>
</a>
</g>
</g>
<!-- Node2 -->
<g id="Node000002" class="node">
<title>Node2</title>
<g id="a_Node000002"><a xlink:href="../../d7/d75/yaml_8c.html#a4a0e4cf2453e4a8eec405d775e675e8d" target="_top" xlink:title=" ">
<polygon fill="white" stroke="#666666" points="721.25,-258.25 626.5,-258.25 626.5,-239 721.25,-239 721.25,-258.25"/>
<text text-anchor="middle" x="673.88" y="-244.75" font-family="Helvetica,sans-Serif" font-size="10.00">_z_pack_yaml_file</text>
</a>
</g>
</g>
<!-- Node1&#45;&gt;Node2 -->
<g id="edge1_Node000001_Node000002" class="edge">
<title>Node1&#45;&gt;Node2</title>
<g id="a_edge1_Node000001_Node000002"><a xlink:title=" ">
<path fill="none" stroke="#63b8ff" d="M1821.07,-234.44C1761.98,-223.33 1668.35,-208.62 1586.5,-208.62 1586.5,-208.62 1586.5,-208.62 988,-208.62 892.78,-208.62 782.57,-227.05 721.59,-238.89"/>
<polygon fill="#63b8ff" stroke="#63b8ff" points="1820.09,-237.82 1830.56,-236.26 1821.4,-230.94 1820.09,-237.82"/>
</a>
</g>
</g>
<!-- Node6 -->
<g id="Node000006" class="node">
<title>Node6</title>
<g id="a_Node000006"><a xlink:href="../../d0/db3/yamlfmt_8c.html#a7343724d211567ecf33f6f5e828480d1" target="_top" xlink:title=" ">
<polygon fill="white" stroke="#666666" points="705.12,-369.25 642.62,-369.25 642.62,-350 705.12,-350 705.12,-369.25"/>
<text text-anchor="middle" x="673.88" y="-355.75" font-family="Helvetica,sans-Serif" font-size="10.00">pack_yaml</text>
</a>
</g>
</g>
<!-- Node1&#45;&gt;Node6 -->
<g id="edge7_Node000001_Node000006" class="edge">
<title>Node1&#45;&gt;Node6</title>
<g id="a_edge7_Node000001_Node000006"><a xlink:title=" ">
<path fill="none" stroke="#63b8ff" d="M1870.97,-266.74C1840.51,-330.3 1736.01,-522.62 1586.5,-522.62 1586.5,-522.62 1586.5,-522.62 988,-522.62 884.95,-522.62 850.45,-520.55 763.25,-465.62 723.11,-440.34 692.19,-390.76 680.25,-369.59"/>
<polygon fill="#63b8ff" stroke="#63b8ff" points="1874.08,-268.36 1875.15,-257.82 1867.74,-265.39 1874.08,-268.36"/>
</a>
</g>
</g>
<!-- Node11 -->
<g id="Node000011" class="node">
<title>Node11</title>
<g id="a_Node000011"><a xlink:href="../../d7/d75/yaml_8c.html#a3c089ca7c97dc89b9104a15a8da5ae6d" target="_top" xlink:title=" ">
<polygon fill="white" stroke="#666666" points="1781.25,-283.88 1677.5,-283.88 1677.5,-253.38 1781.25,-253.38 1781.25,-283.88"/>
<text text-anchor="start" x="1685.5" y="-270.38" font-family="Helvetica,sans-Serif" font-size="10.00">t_yaml_pack_subfile</text>
<text text-anchor="middle" x="1729.38" y="-259.12" font-family="Helvetica,sans-Serif" font-size="10.00">_in_sb</text>
</a>
</g>
</g>
<!-- Node1&#45;&gt;Node11 -->
<g id="edge13_Node000001_Node000011" class="edge">
<title>Node1&#45;&gt;Node11</title>
<g id="a_edge13_Node000001_Node000011"><a xlink:title=" ">
<path fill="none" stroke="#63b8ff" d="M1805.88,-257.53C1797.66,-258.74 1789.42,-259.95 1781.57,-261.1"/>
<polygon fill="#63b8ff" stroke="#63b8ff" points="1806.17,-261.03 1815.55,-256.11 1805.15,-254.1 1806.17,-261.03"/>
</a>
</g>
</g>
<!-- Node29 -->
<g id="Node000029" class="node">
<title>Node29</title>
<g id="a_Node000029"><a xlink:href="../../d7/d75/yaml_8c.html#a645a8a8d785441f5cf3414dbd80855aa" target="_top" xlink:title=" ">
<polygon fill="white" stroke="#666666" points="720.88,-142.25 626.88,-142.25 626.88,-123 720.88,-123 720.88,-142.25"/>
<text text-anchor="middle" x="673.88" y="-128.75" font-family="Helvetica,sans-Serif" font-size="10.00">z_yaml_test_pack</text>
</a>
</g>
</g>
<!-- Node1&#45;&gt;Node29 -->
<g id="edge54_Node000001_Node000029" class="edge">
<title>Node1&#45;&gt;Node29</title>
<g id="a_edge54_Node000001_Node000029"><a xlink:title=" ">
<path fill="none" stroke="#63b8ff" d="M1856.31,-230.35C1807.83,-198.85 1693.2,-132.62 1586.5,-132.62 1586.5,-132.62 1586.5,-132.62 988,-132.62 893.27,-132.62 782.43,-132.62 721.3,-132.62"/>
<polygon fill="#63b8ff" stroke="#63b8ff" points="1854.09,-233.08 1864.36,-235.67 1857.95,-227.24 1854.09,-233.08"/>
</a>
</g>
</g>
<!-- Node3 -->
<g id="Node000003" class="node">
<title>Node3</title>
<g id="a_Node000003"><a xlink:href="../../d7/d75/yaml_8c.html#a2be1013d3960ec4bf93f75c523263c2a" target="_top" xlink:title=" ">
<polygon fill="white" stroke="#666666" points="261.5,-202.25 153.25,-202.25 153.25,-183 261.5,-183 261.5,-202.25"/>
<text text-anchor="middle" x="207.38" y="-188.75" font-family="Helvetica,sans-Serif" font-size="10.00">Z_GROUP_EXPORT</text>
</a>
</g>
</g>
<!-- Node2&#45;&gt;Node3 -->
<g id="edge2_Node000002_Node000003" class="edge">
<title>Node2&#45;&gt;Node3</title>
<g id="a_edge2_Node000002_Node000003"><a xlink:title=" ">
<path fill="none" stroke="#63b8ff" d="M614.75,-247.96C540.48,-246.18 408.27,-239.82 297.5,-217.62 278.12,-213.74 256.79,-207.82 239.85,-202.71"/>
<polygon fill="#63b8ff" stroke="#63b8ff" points="614.58,-251.46 624.65,-248.18 614.73,-244.46 614.58,-251.46"/>
</a>
</g>
</g>
<!-- Node4 -->
<g id="Node000004" class="node">
<title>Node4</title>
<g id="a_Node000004"><a xlink:href="../../d7/d75/yaml_8c.html#a4336d225f9b5138d5237d8d0eb592ac8" target="_top" xlink:title=" ">
<polygon fill="white" stroke="#666666" points="567.25,-304.25 477.75,-304.25 477.75,-285 567.25,-285 567.25,-304.25"/>
<text text-anchor="middle" x="522.5" y="-290.75" font-family="Helvetica,sans-Serif" font-size="10.00">z_pack_yaml_file</text>
</a>
</g>
</g>
<!-- Node2&#45;&gt;Node4 -->
<g id="edge3_Node000002_Node000004" class="edge">
<title>Node2&#45;&gt;Node4</title>
<g id="a_edge3_Node000002_Node000004"><a xlink:title=" ">
<path fill="none" stroke="#63b8ff" d="M629.09,-262.11C605.78,-269.29 577.59,-277.97 556.2,-284.55"/>
<polygon fill="#63b8ff" stroke="#63b8ff" points="630.12,-265.45 638.65,-259.17 628.06,-258.76 630.12,-265.45"/>
</a>
</g>
</g>
<!-- Node4&#45;&gt;Node3 -->
<g id="edge4_Node000004_Node000003" class="edge">
<title>Node4&#45;&gt;Node3</title>
<g id="a_edge4_Node000004_Node000003"><a xlink:title=" ">
<path fill="none" stroke="#63b8ff" d="M465.98,-297.79C419.15,-298.37 351.33,-294.2 297.5,-270.62 261.9,-255.03 230.29,-219.95 216.18,-202.65"/>
<polygon fill="#63b8ff" stroke="#63b8ff" points="465.98,-301.29 475.9,-297.58 465.83,-294.29 465.98,-301.29"/>
</a>
</g>
</g>
<!-- Node5 -->
<g id="Node000005" class="node">
<title>Node5</title>
<g id="a_Node000005"><a xlink:href="../../d7/d75/yaml_8c.html#a543003c695147a4cb539c7a9055d0348" target="_top" xlink:title=" ">
<polygon fill="white" stroke="#666666" points="424.5,-342.25 297.5,-342.25 297.5,-323 424.5,-323 424.5,-342.25"/>
<text text-anchor="middle" x="361" y="-328.75" font-family="Helvetica,sans-Serif" font-size="10.00">z_test_var_in_str_change</text>
</a>
</g>
</g>
<!-- Node4&#45;&gt;Node5 -->
<g id="edge5_Node000004_Node000005" class="edge">
<title>Node4&#45;&gt;Node5</title>
<g id="a_edge5_Node000004_Node000005"><a xlink:title=" ">
<path fill="none" stroke="#63b8ff" d="M468.25,-307.31C447.42,-312.27 423.87,-317.88 404.25,-322.56"/>
<polygon fill="#63b8ff" stroke="#63b8ff" points="468.79,-310.78 477.7,-305.06 467.16,-303.97 468.79,-310.78"/>
</a>
</g>
</g>
<!-- Node5&#45;&gt;Node3 -->
<g id="edge6_Node000005_Node000003" class="edge">
<title>Node5&#45;&gt;Node3</title>
<g id="a_edge6_Node000005_Node000003"><a xlink:title=" ">
<path fill="none" stroke="#63b8ff" d="M313.58,-318.16C307.9,-315.44 302.39,-312.27 297.5,-308.62 256.79,-278.24 225.29,-224.53 213.46,-202.49"/>
<polygon fill="#63b8ff" stroke="#63b8ff" points="311.91,-321.25 322.48,-321.99 314.68,-314.82 311.91,-321.25"/>
</a>
</g>
</g>
<!-- Node7 -->
<g id="Node000007" class="node">
<title>Node7</title>
<g id="a_Node000007"><a xlink:href="../../d0/db3/yamlfmt_8c.html#a76d7bf42b8fd8e804c9884cfef7b25f1" target="_top" xlink:title=" ">
<polygon fill="white" stroke="#666666" points="556.75,-399.25 488.25,-399.25 488.25,-380 556.75,-380 556.75,-399.25"/>
<text text-anchor="middle" x="522.5" y="-385.75" font-family="Helvetica,sans-Serif" font-size="10.00">repack_json</text>
</a>
</g>
</g>
<!-- Node6&#45;&gt;Node7 -->
<g id="edge8_Node000006_Node000007" class="edge">
<title>Node6&#45;&gt;Node7</title>
<g id="a_edge8_Node000006_Node000007"><a xlink:title=" ">
<path fill="none" stroke="#63b8ff" d="M631.3,-367.97C607.92,-372.67 579.12,-378.45 557.17,-382.86"/>
<polygon fill="#63b8ff" stroke="#63b8ff" points="631.69,-371.47 640.8,-366.07 630.31,-364.6 631.69,-371.47"/>
</a>
</g>
</g>
<!-- Node10 -->
<g id="Node000010" class="node">
<title>Node10</title>
<g id="a_Node000010"><a xlink:href="../../d0/db3/yamlfmt_8c.html#a01a1b12a8fa6a4f4723af67f961ad16e" target="_top" xlink:title=" ">
<polygon fill="white" stroke="#666666" points="557.88,-362.25 487.12,-362.25 487.12,-343 557.88,-343 557.88,-362.25"/>
<text text-anchor="middle" x="522.5" y="-348.75" font-family="Helvetica,sans-Serif" font-size="10.00">repack_yaml</text>
</a>
</g>
</g>
<!-- Node6&#45;&gt;Node10 -->
<g id="edge11_Node000006_Node000010" class="edge">
<title>Node6&#45;&gt;Node10</title>
<g id="a_edge11_Node000006_Node000010"><a xlink:title=" ">
<path fill="none" stroke="#63b8ff" d="M630.83,-357.65C607.91,-356.58 579.89,-355.27 558.23,-354.25"/>
<polygon fill="#63b8ff" stroke="#63b8ff" points="630.62,-361.15 640.77,-358.12 630.95,-354.16 630.62,-361.15"/>
</a>
</g>
</g>
<!-- Node8 -->
<g id="Node000008" class="node">
<title>Node8</title>
<g id="a_Node000008"><a xlink:href="../../d0/db3/yamlfmt_8c.html#a319ce4795581b3860dea4b4ab5fee1fd" target="_top" xlink:title=" ">
<polygon fill="white" stroke="#666666" points="408.75,-392.25 313.25,-392.25 313.25,-373 408.75,-373 408.75,-392.25"/>
<text text-anchor="middle" x="361" y="-378.75" font-family="Helvetica,sans-Serif" font-size="10.00">parse_and_repack</text>
</a>
</g>
</g>
<!-- Node7&#45;&gt;Node8 -->
<g id="edge9_Node000007_Node000008" class="edge">
<title>Node7&#45;&gt;Node8</title>
<g id="a_edge9_Node000007_Node000008"><a xlink:title=" ">
<path fill="none" stroke="#63b8ff" d="M476.79,-387.66C455.66,-386.74 430.42,-385.63 409,-384.69"/>
<polygon fill="#63b8ff" stroke="#63b8ff" points="476.41,-391.15 486.55,-388.09 476.71,-384.16 476.41,-391.15"/>
</a>
</g>
</g>
<!-- Node9 -->
<g id="Node000009" class="node">
<title>Node9</title>
<g id="a_Node000009"><a xlink:href="../../d0/db3/yamlfmt_8c.html#a3c04138a5bfe5d72780bb7e82a18e627" target="_top" xlink:title=" ">
<polygon fill="white" stroke="#666666" points="225.88,-392.25 188.88,-392.25 188.88,-373 225.88,-373 225.88,-392.25"/>
<text text-anchor="middle" x="207.38" y="-378.75" font-family="Helvetica,sans-Serif" font-size="10.00">main</text>
</a>
</g>
</g>
<!-- Node8&#45;&gt;Node9 -->
<g id="edge10_Node000008_Node000009" class="edge">
<title>Node8&#45;&gt;Node9</title>
<g id="a_edge10_Node000008_Node000009"><a xlink:title=" ">
<path fill="none" stroke="#63b8ff" d="M301.56,-382.62C274.68,-382.62 244.71,-382.62 226.19,-382.62"/>
<polygon fill="#63b8ff" stroke="#63b8ff" points="301.34,-386.13 311.34,-382.63 301.34,-379.13 301.34,-386.13"/>
</a>
</g>
</g>
<!-- Node10&#45;&gt;Node8 -->
<g id="edge12_Node000010_Node000008" class="edge">
<title>Node10&#45;&gt;Node8</title>
<g id="a_edge12_Node000010_Node000008"><a xlink:title=" ">
<path fill="none" stroke="#63b8ff" d="M475.75,-361.23C454.91,-365.15 430.26,-369.79 409.25,-373.74"/>
<polygon fill="#63b8ff" stroke="#63b8ff" points="476.22,-364.7 485.4,-359.41 474.93,-357.82 476.22,-364.7"/>
</a>
</g>
</g>
<!-- Node12 -->
<g id="Node000012" class="node">
<title>Node12</title>
<g id="a_Node000012"><a xlink:href="../../d7/d75/yaml_8c.html#aa0d7a80cd42f130e262b4c4ec16c83de" target="_top" xlink:title=" ">
<polygon fill="white" stroke="#666666" points="1641.5,-342.88 1529.5,-342.88 1529.5,-312.38 1641.5,-312.38 1641.5,-342.88"/>
<text text-anchor="start" x="1537.5" y="-329.38" font-family="Helvetica,sans-Serif" font-size="10.00">t_yaml_pack_included</text>
<text text-anchor="middle" x="1585.5" y="-318.12" font-family="Helvetica,sans-Serif" font-size="10.00">_subfile</text>
</a>
</g>
</g>
<!-- Node11&#45;&gt;Node12 -->
<g id="edge14_Node000011_Node000012" class="edge">
<title>Node11&#45;&gt;Node12</title>
<g id="a_edge14_Node000011_Node000012"><a xlink:title=" ">
<path fill="none" stroke="#63b8ff" d="M1680.28,-288.63C1662.02,-296.22 1641.5,-304.75 1624.32,-311.9"/>
<polygon fill="#63b8ff" stroke="#63b8ff" points="1681.44,-291.93 1689.33,-284.86 1678.75,-285.47 1681.44,-291.93"/>
</a>
</g>
</g>
<!-- Node13 -->
<g id="Node000013" class="node">
<title>Node13</title>
<g id="a_Node000013"><a xlink:href="../../d7/d75/yaml_8c.html#ad8fa21d851cfb0c2db7c89134273b249" target="_top" xlink:title=" ">
<polygon fill="white" stroke="#666666" points="1493.5,-342.88 1386.75,-342.88 1386.75,-312.38 1493.5,-312.38 1493.5,-342.88"/>
<text text-anchor="start" x="1394.75" y="-329.38" font-family="Helvetica,sans-Serif" font-size="10.00">t_yaml_pack_include</text>
<text text-anchor="middle" x="1440.12" y="-318.12" font-family="Helvetica,sans-Serif" font-size="10.00">_with_override</text>
</a>
</g>
</g>
<!-- Node12&#45;&gt;Node13 -->
<g id="edge15_Node000012_Node000013" class="edge">
<title>Node12&#45;&gt;Node13</title>
<g id="a_edge15_Node000012_Node000013"><a xlink:title=" ">
<path fill="none" stroke="#63b8ff" d="M1517.72,-327.62C1509.62,-327.62 1501.44,-327.62 1493.59,-327.62"/>
<polygon fill="#63b8ff" stroke="#63b8ff" points="1517.55,-331.13 1527.55,-327.63 1517.55,-324.13 1517.55,-331.13"/>
</a>
</g>
</g>
<!-- Node14 -->
<g id="Node000014" class="node">
<title>Node14</title>
<g id="a_Node000014"><a xlink:href="../../d7/d75/yaml_8c.html#ab3bcf4520680286d0b500dd29308132b" target="_top" xlink:title=" ">
<polygon fill="white" stroke="#666666" points="1350.75,-370.25 1214.75,-370.25 1214.75,-351 1350.75,-351 1350.75,-370.25"/>
<text text-anchor="middle" x="1282.75" y="-356.75" font-family="Helvetica,sans-Serif" font-size="10.00">t_yaml_pack_included_data</text>
</a>
</g>
</g>
<!-- Node13&#45;&gt;Node14 -->
<g id="edge16_Node000013_Node000014" class="edge">
<title>Node13&#45;&gt;Node14</title>
<g id="a_edge16_Node000013_Node000014"><a xlink:title=" ">
<path fill="none" stroke="#63b8ff" d="M1375.42,-341.15C1360.68,-344.29 1345.25,-347.56 1331.34,-350.52"/>
<polygon fill="#63b8ff" stroke="#63b8ff" points="1375.99,-344.61 1385.04,-339.11 1374.53,-337.77 1375.99,-344.61"/>
</a>
</g>
</g>
<!-- Node15 -->
<g id="Node000015" class="node">
<title>Node15</title>
<g id="a_Node000015"><a xlink:href="../../d7/d75/yaml_8c.html#a9dcacee7dbda0e21ab20587d5a582ad3" target="_top" xlink:title=" ">
<polygon fill="white" stroke="#666666" points="1178.75,-370.25 1084,-370.25 1084,-351 1178.75,-351 1178.75,-370.25"/>
<text text-anchor="middle" x="1131.38" y="-356.75" font-family="Helvetica,sans-Serif" font-size="10.00">t_yaml_pack_data</text>
</a>
</g>
</g>
<!-- Node14&#45;&gt;Node15 -->
<g id="edge17_Node000014_Node000015" class="edge">
<title>Node14&#45;&gt;Node15</title>
<g id="a_edge17_Node000014_Node000015"><a xlink:title=" ">
<path fill="none" stroke="#63b8ff" d="M1202.99,-353.88C1194.86,-353.92 1186.8,-354.06 1179.18,-354.31"/>
<polygon fill="#63b8ff" stroke="#63b8ff" points="1202.97,-357.38 1212.98,-353.9 1202.98,-350.38 1202.97,-357.38"/>
</a>
</g>
</g>
<!-- Node15&#45;&gt;Node14 -->
<g id="edge49_Node000015_Node000014" class="edge">
<title>Node15&#45;&gt;Node14</title>
<g id="a_edge49_Node000015_Node000014"><a xlink:title=" ">
<path fill="none" stroke="#63b8ff" d="M1190.48,-367.22C1198.35,-367.37 1206.48,-367.41 1214.49,-367.35"/>
<polygon fill="#63b8ff" stroke="#63b8ff" points="1190.78,-363.73 1180.7,-366.98 1190.6,-370.73 1190.78,-363.73"/>
</a>
</g>
</g>
<!-- Node16 -->
<g id="Node000016" class="node">
<title>Node16</title>
<g id="a_Node000016"><a xlink:href="../../d7/d75/yaml_8c.html#ac8ae7baea8e62f79ddbec19d091cc2fe" target="_top" xlink:title="Pack a YAML data.">
<polygon fill="white" stroke="#666666" points="1024.38,-294.25 953.62,-294.25 953.62,-275 1024.38,-275 1024.38,-294.25"/>
<text text-anchor="middle" x="989" y="-280.75" font-family="Helvetica,sans-Serif" font-size="10.00">t_yaml_pack</text>
</a>
</g>
</g>
<!-- Node15&#45;&gt;Node16 -->
<g id="edge18_Node000015_Node000016" class="edge">
<title>Node15&#45;&gt;Node16</title>
<g id="a_edge18_Node000015_Node000016"><a xlink:title=" ">
<path fill="none" stroke="#63b8ff" d="M1101.75,-345.13C1073.78,-329.98 1032.03,-307.38 1008.27,-294.52"/>
<polygon fill="#63b8ff" stroke="#63b8ff" points="1099.94,-348.13 1110.4,-349.81 1103.28,-341.97 1099.94,-348.13"/>
</a>
</g>
</g>
<!-- Node32 -->
<g id="Node000032" class="node">
<title>Node32</title>
<g id="a_Node000032"><a xlink:href="../../d7/d75/yaml_8c.html#af68e2851c9e6821104cbe18b90be9078" target="_top" xlink:title=" ">
<polygon fill="white" stroke="#666666" points="1048,-418.88 930,-418.88 930,-388.38 1048,-388.38 1048,-418.88"/>
<text text-anchor="start" x="938" y="-405.38" font-family="Helvetica,sans-Serif" font-size="10.00">t_yaml_pack_data_with</text>
<text text-anchor="middle" x="989" y="-394.12" font-family="Helvetica,sans-Serif" font-size="10.00">_doc_pres</text>
</a>
</g>
</g>
<!-- Node15&#45;&gt;Node32 -->
<g id="edge44_Node000015_Node000032" class="edge">
<title>Node15&#45;&gt;Node32</title>
<g id="a_edge44_Node000015_Node000032"><a xlink:title=" ">
<path fill="none" stroke="#63b8ff" d="M1086.85,-373.96C1072.46,-378.37 1056.31,-383.31 1041.38,-387.88"/>
<polygon fill="#63b8ff" stroke="#63b8ff" points="1087.48,-377.43 1096.02,-371.15 1085.43,-370.73 1087.48,-377.43"/>
</a>
</g>
</g>
<!-- Node35 -->
<g id="Node000035" class="node">
<title>Node35</title>
<g id="a_Node000035"><a xlink:href="../../d7/d75/yaml_8c.html#a5bd8abfb3677c057f59e4ad050a0d8dc" target="_top" xlink:title=" ">
<polygon fill="white" stroke="#666666" points="1046.5,-456.25 931.5,-456.25 931.5,-437 1046.5,-437 1046.5,-456.25"/>
<text text-anchor="middle" x="989" y="-442.75" font-family="Helvetica,sans-Serif" font-size="10.00">t_yaml_pack_key_data</text>
</a>
</g>
</g>
<!-- Node15&#45;&gt;Node35 -->
<g id="edge50_Node000015_Node000035" class="edge">
<title>Node15&#45;&gt;Node35</title>
<g id="a_edge50_Node000015_Node000035"><a xlink:title=" ">
<path fill="none" stroke="#63b8ff" d="M1112.33,-378.62C1096.53,-393.52 1072.35,-414.33 1048,-427.62 1041.68,-431.08 1034.62,-434.04 1027.67,-436.52"/>
<polygon fill="#63b8ff" stroke="#63b8ff" points="1114.75,-381.15 1119.52,-371.68 1109.89,-376.11 1114.75,-381.15"/>
</a>
</g>
</g>
<!-- Node36 -->
<g id="Node000036" class="node">
<title>Node36</title>
<g id="a_Node000036"><a xlink:href="../../d7/d75/yaml_8c.html#a7d648921e62db8360bbcdc9950aaf877" target="_top" xlink:title=" ">
<polygon fill="white" stroke="#666666" points="1034.88,-370.25 943.12,-370.25 943.12,-351 1034.88,-351 1034.88,-370.25"/>
<text text-anchor="middle" x="989" y="-356.75" font-family="Helvetica,sans-Serif" font-size="10.00">t_yaml_pack_seq</text>
</a>
</g>
</g>
<!-- Node15&#45;&gt;Node36 -->
<g id="edge52_Node000015_Node000036" class="edge">
<title>Node15&#45;&gt;Node36</title>
<g id="a_edge52_Node000015_Node000036"><a xlink:title=" ">
<path fill="none" stroke="#63b8ff" d="M1072.4,-353.97C1059.95,-353.78 1046.98,-353.88 1035.11,-354.27"/>
<polygon fill="#63b8ff" stroke="#63b8ff" points="1072.04,-357.46 1082.12,-354.19 1072.2,-350.46 1072.04,-357.46"/>
</a>
</g>
</g>
<!-- Node16&#45;&gt;Node6 -->
<g id="edge21_Node000016_Node000006" class="edge">
<title>Node16&#45;&gt;Node6</title>
<g id="a_edge21_Node000016_Node000006"><a xlink:title=" ">
<path fill="none" stroke="#63b8ff" d="M948.07,-299.06C941.85,-301.9 935.62,-305.1 930,-308.62 911.86,-319.99 913.66,-332.16 894,-340.62 831.22,-367.66 749.1,-366.17 705.38,-362.84"/>
<polygon fill="#63b8ff" stroke="#63b8ff" points="949.23,-302.38 957.05,-295.24 946.48,-295.94 949.23,-302.38"/>
</a>
</g>
</g>
<!-- Node16&#45;&gt;Node11 -->
<g id="edge43_Node000016_Node000011" class="edge">
<title>Node16&#45;&gt;Node11</title>
<g id="a_edge43_Node000016_Node000011"><a xlink:title=" ">
<path fill="none" stroke="#63b8ff" d="M1035.81,-284.62C1093.26,-284.62 1194.8,-284.62 1281.75,-284.62 1441.12,-284.62 1441.12,-284.62 1441.12,-284.62 1523.79,-284.62 1619.62,-277.94 1677.05,-273.21"/>
<polygon fill="#63b8ff" stroke="#63b8ff" points="1036.09,-281.13 1026.09,-284.63 1036.09,-288.13 1036.09,-281.13"/>
</a>
</g>
</g>
<!-- Node17 -->
<g id="Node000017" class="node">
<title>Node17</title>
<g id="a_Node000017"><a xlink:href="../../d1/d4c/dso2openapi_8c.html#aba0cf3ee6228ea7000bdb4b21e1177ab" target="_top" xlink:title=" ">
<polygon fill="white" stroke="#666666" points="874.88,-294.25 782.38,-294.25 782.38,-275 874.88,-275 874.88,-294.25"/>
<text text-anchor="middle" x="828.62" y="-280.75" font-family="Helvetica,sans-Serif" font-size="10.00">generate_openapi</text>
</a>
</g>
</g>
<!-- Node16&#45;&gt;Node17 -->
<g id="edge19_Node000016_Node000017" class="edge">
<title>Node16&#45;&gt;Node17</title>
<g id="a_edge19_Node000016_Node000017"><a xlink:title=" ">
<path fill="none" stroke="#63b8ff" d="M942,-284.62C920.96,-284.62 896.11,-284.62 875.13,-284.62"/>
<polygon fill="#63b8ff" stroke="#63b8ff" points="941.73,-288.13 951.73,-284.63 941.73,-281.13 941.73,-288.13"/>
</a>
</g>
</g>
<!-- Node19 -->
<g id="Node000019" class="node">
<title>Node19</title>
<g id="a_Node000019"><a xlink:href="../../d7/d75/yaml_8c.html#a1c9772584bce55e6ab8dec4edd09c469" target="_top" xlink:title="Pack a YAML data into a YAML file.">
<polygon fill="white" stroke="#666666" points="872.62,-331.25 784.62,-331.25 784.62,-312 872.62,-312 872.62,-331.25"/>
<text text-anchor="middle" x="828.62" y="-317.75" font-family="Helvetica,sans-Serif" font-size="10.00">t_yaml_pack_file</text>
</a>
</g>
</g>
<!-- Node16&#45;&gt;Node19 -->
<g id="edge22_Node000016_Node000019" class="edge">
<title>Node16&#45;&gt;Node19</title>
<g id="a_edge22_Node000016_Node000019"><a xlink:title=" ">
<path fill="none" stroke="#63b8ff" d="M942.23,-295.32C920.35,-300.43 894.31,-306.51 872.78,-311.54"/>
<polygon fill="#63b8ff" stroke="#63b8ff" points="942.83,-298.77 951.77,-293.09 941.24,-291.96 942.83,-298.77"/>
</a>
</g>
</g>
<!-- Node21 -->
<g id="Node000021" class="node">
<title>Node21</title>
<g id="a_Node000021"><a xlink:href="../../d7/d75/yaml_8c.html#a213bfbda2a14dede25e9039b769c7592" target="_top" xlink:title="Pack a YAML data into a YAML string.">
<polygon fill="white" stroke="#666666" points="871.88,-180.25 785.38,-180.25 785.38,-161 871.88,-161 871.88,-180.25"/>
<text text-anchor="middle" x="828.62" y="-166.75" font-family="Helvetica,sans-Serif" font-size="10.00">t_yaml_pack_sb</text>
</a>
</g>
</g>
<!-- Node16&#45;&gt;Node21 -->
<g id="edge26_Node000016_Node000021" class="edge">
<title>Node16&#45;&gt;Node21</title>
<g id="a_edge26_Node000016_Node000021"><a xlink:title=" ">
<path fill="none" stroke="#63b8ff" d="M947.86,-270.12C941.7,-267.3 935.55,-264.12 930,-260.62 892.16,-236.82 854.91,-198.44 838.43,-180.48"/>
<polygon fill="#63b8ff" stroke="#63b8ff" points="946.17,-273.2 956.74,-273.91 948.92,-266.76 946.17,-273.2"/>
</a>
</g>
</g>
<!-- Node18 -->
<g id="Node000018" class="node">
<title>Node18</title>
<g id="a_Node000018"><a xlink:href="../../d1/d4c/dso2openapi_8c.html#a3c04138a5bfe5d72780bb7e82a18e627" target="_top" xlink:title=" ">
<polygon fill="white" stroke="#666666" points="692.38,-295.25 655.38,-295.25 655.38,-276 692.38,-276 692.38,-295.25"/>
<text text-anchor="middle" x="673.88" y="-281.75" font-family="Helvetica,sans-Serif" font-size="10.00">main</text>
</a>
</g>
</g>
<!-- Node17&#45;&gt;Node18 -->
<g id="edge20_Node000017_Node000018" class="edge">
<title>Node17&#45;&gt;Node18</title>
<g id="a_edge20_Node000017_Node000018"><a xlink:title=" ">
<path fill="none" stroke="#63b8ff" d="M770.99,-285C743.22,-285.18 711.71,-285.38 692.57,-285.51"/>
<polygon fill="#63b8ff" stroke="#63b8ff" points="770.72,-288.5 780.7,-284.93 770.67,-281.5 770.72,-288.5"/>
</a>
</g>
</g>
<!-- Node19&#45;&gt;Node2 -->
<g id="edge23_Node000019_Node000002" class="edge">
<title>Node19&#45;&gt;Node2</title>
<g id="a_edge23_Node000019_Node000002"><a xlink:title=" ">
<path fill="none" stroke="#63b8ff" d="M773.85,-308.97C770.17,-307.39 766.59,-305.61 763.25,-303.62 743.52,-291.91 746.63,-278.91 727.25,-266.62 722.38,-263.54 716.91,-260.91 711.4,-258.69"/>
<polygon fill="#63b8ff" stroke="#63b8ff" points="772.42,-312.17 783.01,-312.42 774.88,-305.62 772.42,-312.17"/>
</a>
</g>
</g>
<!-- Node19&#45;&gt;Node6 -->
<g id="edge25_Node000019_Node000006" class="edge">
<title>Node19&#45;&gt;Node6</title>
<g id="a_edge25_Node000019_Node000006"><a xlink:title=" ">
<path fill="none" stroke="#63b8ff" d="M776.23,-334.41C752.72,-340.26 725.66,-346.99 705.41,-352.03"/>
<polygon fill="#63b8ff" stroke="#63b8ff" points="776.76,-337.88 785.62,-332.07 775.07,-331.09 776.76,-337.88"/>
</a>
</g>
</g>
<!-- Node20 -->
<g id="Node000020" class="node">
<title>Node20</title>
<g id="a_Node000020"><a xlink:href="../../d1/d3c/yaml_8blk.html#acd579461d24b0e6c8875cad943350a38" target="_top" xlink:title=" ">
<polygon fill="white" stroke="#666666" points="712.25,-332.25 635.5,-332.25 635.5,-313 712.25,-313 712.25,-332.25"/>
<text text-anchor="middle" x="673.88" y="-318.75" font-family="Helvetica,sans-Serif" font-size="10.00">iop_ypack_file</text>
</a>
</g>
</g>
<!-- Node19&#45;&gt;Node20 -->
<g id="edge24_Node000019_Node000020" class="edge">
<title>Node19&#45;&gt;Node20</title>
<g id="a_edge24_Node000019_Node000020"><a xlink:title=" ">
<path fill="none" stroke="#63b8ff" d="M772.81,-321.98C752.86,-322.11 730.77,-322.26 712.63,-322.38"/>
<polygon fill="#63b8ff" stroke="#63b8ff" points="772.77,-325.48 782.75,-321.92 772.73,-318.48 772.77,-325.48"/>
</a>
</g>
</g>
<!-- Node21&#45;&gt;Node11 -->
<g id="edge32_Node000021_Node000011" class="edge">
<title>Node21&#45;&gt;Node11</title>
<g id="a_edge32_Node000021_Node000011"><a xlink:title=" ">
<path fill="none" stroke="#63b8ff" d="M863.41,-185C918.33,-207.03 1030.87,-246.62 1130.38,-246.62 1441.12,-246.62 1441.12,-246.62 1441.12,-246.62 1523.9,-246.62 1619.7,-255.82 1677.1,-262.32"/>
<polygon fill="#63b8ff" stroke="#63b8ff" points="864.88,-181.82 854.3,-181.29 862.24,-188.31 864.88,-181.82"/>
</a>
</g>
</g>
<!-- Node22 -->
<g id="Node000022" class="node">
<title>Node22</title>
<g id="a_Node000022"><a xlink:href="../../d1/d3c/yaml_8blk.html#a609f08147c51eae9615cee5bd3d4b9be" target="_top" xlink:title="Convert an IOP C structure to IOP&#45;YAML.">
<polygon fill="white" stroke="#666666" points="727.25,-83.88 620.5,-83.88 620.5,-53.38 727.25,-53.38 727.25,-83.88"/>
<text text-anchor="start" x="628.5" y="-70.38" font-family="Helvetica,sans-Serif" font-size="10.00">t_iop_sb_ypack_with</text>
<text text-anchor="middle" x="673.88" y="-59.12" font-family="Helvetica,sans-Serif" font-size="10.00">_flags</text>
</a>
</g>
</g>
<!-- Node21&#45;&gt;Node22 -->
<g id="edge27_Node000021_Node000022" class="edge">
<title>Node21&#45;&gt;Node22</title>
<g id="a_edge27_Node000021_Node000022"><a xlink:title=" ">
<path fill="none" stroke="#63b8ff" d="M803.35,-154.42C774.52,-135.16 726.74,-103.26 698.29,-84.26"/>
<polygon fill="#63b8ff" stroke="#63b8ff" points="801.18,-157.18 811.44,-159.82 805.07,-151.35 801.18,-157.18"/>
</a>
</g>
</g>
<!-- Node27 -->
<g id="Node000027" class="node">
<title>Node27</title>
<g id="a_Node000027"><a xlink:href="../../d7/d75/yaml_8c.html#a81fd5b86e156c36e53344f2baf159324" target="_top" xlink:title=" ">
<polygon fill="white" stroke="#666666" points="412.88,-183.25 309.12,-183.25 309.12,-164 412.88,-164 412.88,-183.25"/>
<text text-anchor="middle" x="361" y="-169.75" font-family="Helvetica,sans-Serif" font-size="10.00">z_check_yaml_pack</text>
</a>
</g>
</g>
<!-- Node21&#45;&gt;Node27 -->
<g id="edge33_Node000021_Node000027" class="edge">
<title>Node21&#45;&gt;Node27</title>
<g id="a_edge33_Node000021_Node000027"><a xlink:title=" ">
<path fill="none" stroke="#63b8ff" d="M773.7,-170.97C683.11,-171.56 501.63,-172.73 413.02,-173.3"/>
<polygon fill="#63b8ff" stroke="#63b8ff" points="773.58,-174.47 783.56,-170.91 773.53,-167.47 773.58,-174.47"/>
</a>
</g>
</g>
<!-- Node28 -->
<g id="Node000028" class="node">
<title>Node28</title>
<g id="a_Node000028"><a xlink:href="../../d7/d75/yaml_8c.html#ab84d8d8c5ab36b236bb9af0366a6c1c6" target="_top" xlink:title=" ">
<polygon fill="white" stroke="#666666" points="584.5,-228.88 460.5,-228.88 460.5,-198.38 584.5,-198.38 584.5,-228.88"/>
<text text-anchor="start" x="468.5" y="-215.38" font-family="Helvetica,sans-Serif" font-size="10.00">z_pack_yaml_in_sb_with</text>
<text text-anchor="middle" x="522.5" y="-204.12" font-family="Helvetica,sans-Serif" font-size="10.00">_subfiles</text>
</a>
</g>
</g>
<!-- Node21&#45;&gt;Node28 -->
<g id="edge35_Node000021_Node000028" class="edge">
<title>Node21&#45;&gt;Node28</title>
<g id="a_edge35_Node000021_Node000028"><a xlink:title=" ">
<path fill="none" stroke="#63b8ff" d="M773.83,-178.23C720.88,-185.72 640.12,-197.14 584.73,-204.97"/>
<polygon fill="#63b8ff" stroke="#63b8ff" points="774.11,-181.73 783.52,-176.86 773.13,-174.8 774.11,-181.73"/>
</a>
</g>
</g>
<!-- Node21&#45;&gt;Node29 -->
<g id="edge37_Node000021_Node000029" class="edge">
<title>Node21&#45;&gt;Node29</title>
<g id="a_edge37_Node000021_Node000029"><a xlink:title=" ">
<path fill="none" stroke="#63b8ff" d="M776.07,-157.8C756.26,-152.87 733.95,-147.32 715.33,-142.69"/>
<polygon fill="#63b8ff" stroke="#63b8ff" points="775.07,-161.16 785.62,-160.18 776.76,-154.37 775.07,-161.16"/>
</a>
</g>
</g>
<!-- Node23 -->
<g id="Node000023" class="node">
<title>Node23</title>
<g id="a_Node000023"><a xlink:href="../../d1/d3c/yaml_8blk.html#ae31e02881befa8163a8fbbfbb7335d5e" target="_top" xlink:title="Pack an IOP C structure to IOP&#45;YAML in a sb_t.">
<polygon fill="white" stroke="#666666" points="564.25,-40.25 480.75,-40.25 480.75,-21 564.25,-21 564.25,-40.25"/>
<text text-anchor="middle" x="522.5" y="-26.75" font-family="Helvetica,sans-Serif" font-size="10.00">t_iop_sb_ypack</text>
</a>
</g>
</g>
<!-- Node22&#45;&gt;Node23 -->
<g id="edge28_Node000022_Node000023" class="edge">
<title>Node22&#45;&gt;Node23</title>
<g id="a_edge28_Node000022_Node000023"><a xlink:title=" ">
<path fill="none" stroke="#63b8ff" d="M609.45,-52.49C593.69,-48.48 577.25,-44.3 563.02,-40.68"/>
<polygon fill="#63b8ff" stroke="#63b8ff" points="608.19,-55.78 618.74,-54.85 609.92,-49 608.19,-55.78"/>
</a>
</g>
</g>
<!-- Node24 -->
<g id="Node000024" class="node">
<title>Node24</title>
<g id="a_Node000024"><a xlink:href="../../dc/df9/z_8blk.html#a4c113a39e4b20e3729dbfa3a1b1a5f67" target="_top" xlink:title=" ">
<polygon fill="white" stroke="#666666" points="389.25,-19.25 332.75,-19.25 332.75,0 389.25,0 389.25,-19.25"/>
<text text-anchor="middle" x="361" y="-5.75" font-family="Helvetica,sans-Serif" font-size="10.00">z_iop_diff</text>
</a>
</g>
</g>
<!-- Node23&#45;&gt;Node24 -->
<g id="edge29_Node000023_Node000024" class="edge">
<title>Node23&#45;&gt;Node24</title>
<g id="a_edge29_Node000023_Node000024"><a xlink:title=" ">
<path fill="none" stroke="#63b8ff" d="M469.33,-23.76C442.66,-20.24 411.3,-16.12 389.39,-13.23"/>
<polygon fill="#63b8ff" stroke="#63b8ff" points="468.55,-27.18 478.92,-25.02 469.47,-20.24 468.55,-27.18"/>
</a>
</g>
</g>
<!-- Node25 -->
<g id="Node000025" class="node">
<title>Node25</title>
<g id="a_Node000025"><a xlink:href="../../dc/df9/z_8blk.html#af16af379a9a1761a56c8618a26b8a161" target="_top" xlink:title=" ">
<polygon fill="white" stroke="#666666" points="257,-19.25 157.75,-19.25 157.75,0 257,0 257,-19.25"/>
<text text-anchor="middle" x="207.38" y="-5.75" font-family="Helvetica,sans-Serif" font-size="10.00">_z_assert_iopequal</text>
</a>
</g>
</g>
<!-- Node24&#45;&gt;Node25 -->
<g id="edge30_Node000024_Node000025" class="edge">
<title>Node24&#45;&gt;Node25</title>
<g id="a_edge30_Node000024_Node000025"><a xlink:title=" ">
<path fill="none" stroke="#63b8ff" d="M321.08,-9.62C301.68,-9.62 278.02,-9.62 257.4,-9.62"/>
<polygon fill="#63b8ff" stroke="#63b8ff" points="321.03,-13.13 331.03,-9.63 321.03,-6.13 321.03,-13.13"/>
</a>
</g>
</g>
<!-- Node26 -->
<g id="Node000026" class="node">
<title>Node26</title>
<g id="a_Node000026"><a xlink:href="../../dc/df9/z_8blk.html#afe6b3f055a812025a0d955e738631e8b" target="_top" xlink:title=" ">
<polygon fill="white" stroke="#666666" points="117.25,-19.25 0,-19.25 0,0 117.25,0 117.25,-19.25"/>
<text text-anchor="middle" x="58.62" y="-5.75" font-family="Helvetica,sans-Serif" font-size="10.00">_z_assert_iopjsonequal</text>
</a>
</g>
</g>
<!-- Node25&#45;&gt;Node26 -->
<g id="edge31_Node000025_Node000026" class="edge">
<title>Node25&#45;&gt;Node26</title>
<g id="a_edge31_Node000025_Node000026"><a xlink:title=" ">
<path fill="none" stroke="#63b8ff" d="M146.21,-9.62C136.79,-9.62 127.07,-9.62 117.7,-9.62"/>
<polygon fill="#63b8ff" stroke="#63b8ff" points="146,-13.13 156,-9.63 146,-6.13 146,-13.13"/>
</a>
</g>
</g>
<!-- Node27&#45;&gt;Node3 -->
<g id="edge34_Node000027_Node000003" class="edge">
<title>Node27&#45;&gt;Node3</title>
<g id="a_edge34_Node000027_Node000003"><a xlink:title=" ">
<path fill="none" stroke="#63b8ff" d="M297.53,-181.45C285.73,-182.93 273.48,-184.47 261.99,-185.91"/>
<polygon fill="#63b8ff" stroke="#63b8ff" points="297.68,-184.96 307.16,-180.25 296.81,-178.02 297.68,-184.96"/>
</a>
</g>
</g>
<!-- Node28&#45;&gt;Node3 -->
<g id="edge36_Node000028_Node000003" class="edge">
<title>Node28&#45;&gt;Node3</title>
<g id="a_edge36_Node000028_Node000003"><a xlink:title=" ">
<path fill="none" stroke="#63b8ff" d="M448.88,-208.75C391.74,-204.92 313.43,-199.67 261.9,-196.21"/>
<polygon fill="#63b8ff" stroke="#63b8ff" points="448.29,-212.22 458.5,-209.4 448.76,-205.24 448.29,-212.22"/>
</a>
</g>
</g>
<!-- Node29&#45;&gt;Node3 -->
<g id="edge42_Node000029_Node000003" class="edge">
<title>Node29&#45;&gt;Node3</title>
<g id="a_edge42_Node000029_Node000003"><a xlink:title=" ">
<path fill="none" stroke="#63b8ff" d="M615.06,-129.93C540.57,-127.82 407.59,-128.76 297.5,-154.62 271.96,-160.63 244.45,-173.43 226.86,-182.51"/>
<polygon fill="#63b8ff" stroke="#63b8ff" points="614.88,-133.42 624.98,-130.24 615.1,-126.42 614.88,-133.42"/>
</a>
</g>
</g>
<!-- Node30 -->
<g id="Node000030" class="node">
<title>Node30</title>
<g id="a_Node000030"><a xlink:href="../../d7/d75/yaml_8c.html#a3b50341d193000cd9f9b4dcbb91eb1d1" target="_top" xlink:title=" ">
<polygon fill="white" stroke="#666666" points="575.12,-104.88 469.88,-104.88 469.88,-74.38 575.12,-74.38 575.12,-104.88"/>
<text text-anchor="start" x="477.88" y="-91.38" font-family="Helvetica,sans-Serif" font-size="10.00">t_z_yaml_test_parse</text>
<text text-anchor="middle" x="522.5" y="-80.12" font-family="Helvetica,sans-Serif" font-size="10.00">_success_from_dir</text>
</a>
</g>
</g>
<!-- Node29&#45;&gt;Node30 -->
<g id="edge38_Node000029_Node000030" class="edge">
<title>Node29&#45;&gt;Node30</title>
<g id="a_edge38_Node000029_Node000030"><a xlink:title=" ">
<path fill="none" stroke="#63b8ff" d="M626.99,-119.42C610.73,-114.73 592.32,-109.44 575.58,-104.62"/>
<polygon fill="#63b8ff" stroke="#63b8ff" points="625.82,-122.72 636.4,-122.12 627.76,-115.99 625.82,-122.72"/>
</a>
</g>
</g>
<!-- Node30&#45;&gt;Node3 -->
<g id="edge41_Node000030_Node000003" class="edge">
<title>Node30&#45;&gt;Node3</title>
<g id="a_edge41_Node000030_Node000003"><a xlink:title=" ">
<path fill="none" stroke="#63b8ff" d="M458.17,-88.97C411.91,-90.63 348.59,-97.44 297.5,-119.62 263.38,-134.44 231.79,-166.27 217.07,-182.56"/>
<polygon fill="#63b8ff" stroke="#63b8ff" points="458.14,-92.47 468.04,-88.7 457.94,-85.48 458.14,-92.47"/>
</a>
</g>
</g>
<!-- Node31 -->
<g id="Node000031" class="node">
<title>Node31</title>
<g id="a_Node000031"><a xlink:href="../../d7/d75/yaml_8c.html#a3b7703adf50cd917ef93d951647fd0df" target="_top" xlink:title=" ">
<polygon fill="white" stroke="#666666" points="413.62,-67.88 308.38,-67.88 308.38,-37.38 413.62,-37.38 413.62,-67.88"/>
<text text-anchor="start" x="316.38" y="-54.38" font-family="Helvetica,sans-Serif" font-size="10.00">t_z_yaml_test_parse</text>
<text text-anchor="middle" x="361" y="-43.12" font-family="Helvetica,sans-Serif" font-size="10.00">_success</text>
</a>
</g>
</g>
<!-- Node30&#45;&gt;Node31 -->
<g id="edge39_Node000030_Node000031" class="edge">
<title>Node30&#45;&gt;Node31</title>
<g id="a_edge39_Node000030_Node000031"><a xlink:title=" ">
<path fill="none" stroke="#63b8ff" d="M458.62,-75.04C443.86,-71.62 428.3,-68 414.07,-64.7"/>
<polygon fill="#63b8ff" stroke="#63b8ff" points="457.71,-78.42 468.24,-77.27 459.29,-71.6 457.71,-78.42"/>
</a>
</g>
</g>
<!-- Node31&#45;&gt;Node3 -->
<g id="edge40_Node000031_Node000003" class="edge">
<title>Node31&#45;&gt;Node3</title>
<g id="a_edge40_Node000031_Node000003"><a xlink:title=" ">
<path fill="none" stroke="#63b8ff" d="M309.27,-73.65C305.14,-76.1 301.16,-78.76 297.5,-81.62 258.97,-111.8 226.73,-161.7 214.09,-182.76"/>
<polygon fill="#63b8ff" stroke="#63b8ff" points="310.65,-76.88 317.75,-69.02 307.29,-70.74 310.65,-76.88"/>
</a>
</g>
</g>
<!-- Node33 -->
<g id="Node000033" class="node">
<title>Node33</title>
<g id="a_Node000033"><a xlink:href="../../d7/d75/yaml_8c.html#a4eda73146807a004440922753e19b6c2" target="_top" xlink:title=" ">
<polygon fill="white" stroke="#666666" points="894,-410.25 763.25,-410.25 763.25,-391 894,-391 894,-410.25"/>
<text text-anchor="middle" x="828.62" y="-396.75" font-family="Helvetica,sans-Serif" font-size="10.00">t_yaml_pack_include_path</text>
</a>
</g>
</g>
<!-- Node32&#45;&gt;Node33 -->
<g id="edge45_Node000032_Node000033" class="edge">
<title>Node32&#45;&gt;Node33</title>
<g id="a_edge45_Node000032_Node000033"><a xlink:title=" ">
<path fill="none" stroke="#63b8ff" d="M918.65,-402.31C910.58,-402.16 902.38,-402 894.38,-401.85"/>
<polygon fill="#63b8ff" stroke="#63b8ff" points="918.35,-405.81 928.41,-402.5 918.48,-398.81 918.35,-405.81"/>
</a>
</g>
</g>
<!-- Node34 -->
<g id="Node000034" class="node">
<title>Node34</title>
<g id="a_Node000034"><a xlink:href="../../d7/d75/yaml_8c.html#af78a652ed8dd1a81aab31ef74496003d" target="_top" xlink:title=" ">
<polygon fill="white" stroke="#666666" points="868.88,-456.25 788.38,-456.25 788.38,-437 868.88,-437 868.88,-456.25"/>
<text text-anchor="middle" x="828.62" y="-442.75" font-family="Helvetica,sans-Serif" font-size="10.00">yaml_pack_obj</text>
</a>
</g>
</g>
<!-- Node32&#45;&gt;Node34 -->
<g id="edge47_Node000032_Node000034" class="edge">
<title>Node32&#45;&gt;Node34</title>
<g id="a_edge47_Node000032_Node000034"><a xlink:title=" ">
<path fill="none" stroke="#63b8ff" d="M919.27,-422.29C901.22,-427.19 882.43,-432.29 866.74,-436.55"/>
<polygon fill="#63b8ff" stroke="#63b8ff" points="920.18,-425.67 928.91,-419.67 918.35,-418.91 920.18,-425.67"/>
</a>
</g>
</g>
<!-- Node33&#45;&gt;Node13 -->
<g id="edge46_Node000033_Node000013" class="edge">
<title>Node33&#45;&gt;Node13</title>
<g id="a_edge46_Node000033_Node000013"><a xlink:title=" ">
<path fill="none" stroke="#63b8ff" d="M860.5,-385.28C871.26,-379.69 883.31,-373.13 894,-366.62 910.64,-356.5 911.49,-347.7 930,-341.62 1089.41,-289.29 1292.22,-306.84 1386.51,-319.44"/>
<polygon fill="#63b8ff" stroke="#63b8ff" points="858.92,-382.16 851.62,-389.83 862.11,-388.39 858.92,-382.16"/>
</a>
</g>
</g>
<!-- Node34&#45;&gt;Node15 -->
<g id="edge48_Node000034_Node000015" class="edge">
<title>Node34&#45;&gt;Node15</title>
<g id="a_edge48_Node000034_Node000015"><a xlink:title=" ">
<path fill="none" stroke="#63b8ff" d="M865.05,-460.44C910.02,-475.66 988.85,-494.4 1048,-465.62 1089.67,-445.35 1116.51,-392.67 1126.26,-370.59"/>
<polygon fill="#63b8ff" stroke="#63b8ff" points="866.4,-457.21 855.81,-457.19 864.08,-463.81 866.4,-457.21"/>
</a>
</g>
</g>
<!-- Node35&#45;&gt;Node34 -->
<g id="edge51_Node000035_Node000034" class="edge">
<title>Node35&#45;&gt;Node34</title>
<g id="a_edge51_Node000035_Node000034"><a xlink:title=" ">
<path fill="none" stroke="#63b8ff" d="M919.99,-446.62C902.61,-446.62 884.5,-446.62 869.1,-446.62"/>
<polygon fill="#63b8ff" stroke="#63b8ff" points="919.76,-450.13 929.76,-446.63 919.76,-443.13 919.76,-450.13"/>
</a>
</g>
</g>
<!-- Node36&#45;&gt;Node15 -->
<g id="edge53_Node000036_Node000015" class="edge">
<title>Node36&#45;&gt;Node15</title>
<g id="a_edge53_Node000036_Node000015"><a xlink:title=" ">
<path fill="none" stroke="#63b8ff" d="M1046.27,-367.26C1058.67,-367.47 1071.66,-367.4 1083.63,-367.03"/>
<polygon fill="#63b8ff" stroke="#63b8ff" points="1046.71,-363.77 1036.62,-367.01 1046.53,-370.76 1046.71,-363.77"/>
</a>
</g>
</g>
</g>
</svg>

<g id="navigator" transform="translate(0 0)" fill="#404254">
  <rect fill="#f2f5e9" fill-opacity="0.5" stroke="#606060" stroke-width=".5" x="0" y="0" width="60" height="60"/>
  <use id="zoomplus" xlink:href="#zoomPlus" x="17" y="9" onmousedown="handleZoom(evt,'in')"/>
  <use id="zoomminus" xlink:href="#zoomMin" x="42" y="9" onmousedown="handleZoom(evt,'out')"/>
  <use id="reset" xlink:href="#resetDef" x="30" y="36" onmousedown="handleReset()"/>
   <use id="arrowup" xlink:href="#arrowUp" x="0" y="0" onmousedown="handlePan(0,-1)"/>
  <use id="arrowright" xlink:href="#arrowRight" x="0" y="0" onmousedown="handlePan(1,0)"/>
  <use id="arrowdown" xlink:href="#arrowDown" x="0" y="0" onmousedown="handlePan(0,1)"/>
  <use id="arrowleft" xlink:href="#arrowLeft" x="0" y="0" onmousedown="handlePan(-1,0)"/>
</g>
<svg viewBox="0 0 15 15" width="100%" height="30px" preserveAspectRatio="xMaxYMin meet">
 <g id="arrow_out" transform="scale(0.3 0.3)">
  <a xlink:href="yaml_8h_ad72277de4cfd27afb9f8da312f43785f_icgraph_org.svg" target="_base">
   <rect id="button" ry="5" rx="5" y="6" x="6" height="38" width="38"
        fill="#f2f5e9" fill-opacity="0.5" stroke="#606060" stroke-width="1.0"/>
   <path id="arrow"
     d="M 11.500037,31.436501 C 11.940474,20.09759 22.043105,11.32322 32.158766,21.979434 L 37.068811,17.246167 C 37.068811,17.246167 37.088388,32 37.088388,32 L 22.160133,31.978069 C 22.160133,31.978069 26.997745,27.140456 26.997745,27.140456 C 18.528582,18.264221 13.291696,25.230495 11.500037,31.436501 z"
     style="fill:#404040;"/>
  </a>
 </g>
</svg>

<style type='text/css'>
<![CDATA[
[data-mouse-over-selected='false'] { opacity: 0.7; }
[data-mouse-over-selected='true']  { opacity: 1.0; }
]]>
</style>
<script type="application/ecmascript"><![CDATA[
document.addEventListener('DOMContentLoaded', (event) => {
  highlightEdges();
  highlightAdjacentNodes();
});
]]></script>
</svg>
