<?xml version="1.0" encoding="UTF-8" standalone="no"?>
<!DOCTYPE svg PUBLIC "-//W3C//DTD SVG 1.1//EN"
 "http://www.w3.org/Graphics/SVG/1.1/DTD/svg11.dtd">
<!-- Generated by graphviz version 9.0.0 (20230911.1827)
 -->
<!-- Title: t_iopc_path_join Pages: 1 -->
<!--zoomable 635 -->

<svg id="main" version="1.1" xmlns="http://www.w3.org/2000/svg" xmlns:xlink="http://www.w3.org/1999/xlink" xml:space="preserve" onload="init(evt)">
<style type="text/css"><![CDATA[
.node, .edge {opacity: 0.7;}
.node.selected, .edge.selected {opacity: 1;}
.edge:hover path { stroke: red; }
.edge:hover polygon { stroke: red; fill: red; }
]]></style>

<defs>
  <circle id="rim" cx="0" cy="0" r="7"/>
  <circle id="rim2" cx="0" cy="0" r="3.5"/>
  <g id="zoomPlus">
    <use xlink:href="#rim" fill="#404040"><set attributeName="fill" to="#808080" begin="zoomplus.mouseover" end="zoomplus.mouseout"/></use>
    <path d="M-4,0h8M0,-4v8" fill="none" stroke="white" stroke-width="1.5" pointer-events="none"/>
  </g>
  <g id="zoomMin">
    <use xlink:href="#rim" fill="#404040"><set attributeName="fill" to="#808080" begin="zoomminus.mouseover" end="zoomminus.mouseout"/></use>
    <path d="M-4,0h8" fill="none" stroke="white" stroke-width="1.5" pointer-events="none"/>
  </g>
  <g id="arrowUp" transform="translate(30 24)">
    <use xlink:href="#rim"/>
    <path pointer-events="none" fill="none" stroke="white" stroke-width="1.5" d="M0,-3.0v7 M-2.5,-0.5L0,-3.0L2.5,-0.5"/>
  </g>
  <g id="arrowRight" transform="rotate(90) translate(36 -43)">
    <use xlink:href="#rim"/>
    <path pointer-events="none" fill="none" stroke="white" stroke-width="1.5" d="M0,-3.0v7 M-2.5,-0.5L0,-3.0L2.5,-0.5"/>
  </g>
  <g id="arrowDown" transform="rotate(180) translate(-30 -48)">
    <use xlink:href="#rim"/>
    <path pointer-events="none" fill="none" stroke="white" stroke-width="1.5" d="M0,-3.0v7 M-2.5,-0.5L0,-3.0L2.5,-0.5"/>
  </g>
  <g id="arrowLeft" transform="rotate(270) translate(-36 17)">
    <use xlink:href="#rim"/>
    <path pointer-events="none" fill="none" stroke="white" stroke-width="1.5" d="M0,-3.0v7 M-2.5,-0.5L0,-3.0L2.5,-0.5"/>
  </g>
  <g id="resetDef">
    <use xlink:href="#rim2" fill="#404040"><set attributeName="fill" to="#808080" begin="reset.mouseover" end="reset.mouseout"/></use>
  </g>
</defs>
<script type="application/ecmascript">
var viewWidth = 1521;
var viewHeight = 635;
var sectionId = 'dynsection-116';
</script>
<script type="application/ecmascript" xlink:href="../../svg.min.js"/>
<svg id="graph" class="graph">
<g id="viewport">
<title>t_iopc_path_join</title>
<!-- Node1 -->
<g id="Node000001" class="node">
<title>Node1</title>
<g id="a_Node000001"><a xlink:title=" ">
<polygon fill="#999999" stroke="#666666" points="1512.5,-379.88 1426,-379.88 1426,-360.62 1512.5,-360.62 1512.5,-379.88"/>
<text text-anchor="middle" x="1469.25" y="-366.38" font-family="Helvetica,sans-Serif" font-size="10.00">t_iopc_path_join</text>
</a>
</g>
</g>
<!-- Node2 -->
<g id="Node000002" class="node">
<title>Node2</title>
<g id="a_Node000002"><a xlink:href="../../d3/d7b/iopc-lang-c_8blk.html#a79134ce108f034d7bbe8b2bddd85a522" target="_top" xlink:title=" ">
<polygon fill="white" stroke="#666666" points="1390,-379.88 1299.75,-379.88 1299.75,-360.62 1390,-360.62 1390,-379.88"/>
<text text-anchor="middle" x="1344.88" y="-366.38" font-family="Helvetica,sans-Serif" font-size="10.00">t_iopc_path_to_c</text>
</a>
</g>
</g>
<!-- Node1&#45;&gt;Node2 -->
<g id="edge1_Node000001_Node000002" class="edge">
<title>Node1&#45;&gt;Node2</title>
<g id="a_edge1_Node000001_Node000002"><a xlink:title=" ">
<path fill="none" stroke="#63b8ff" d="M1414.54,-370.25C1406.46,-370.25 1398.2,-370.25 1390.34,-370.25"/>
<polygon fill="#63b8ff" stroke="#63b8ff" points="1414.28,-373.75 1424.28,-370.25 1414.28,-366.75 1414.28,-373.75"/>
</a>
</g>
</g>
<!-- Node3 -->
<g id="Node000003" class="node">
<title>Node3</title>
<g id="a_Node000003"><a xlink:href="../../d3/d7b/iopc-lang-c_8blk.html#ac633cc5263e2185fcaaaa32bff48aade" target="_top" xlink:title=" ">
<polygon fill="white" stroke="#666666" points="296.25,-277.88 236,-277.88 236,-258.62 296.25,-258.62 296.25,-277.88"/>
<text text-anchor="middle" x="266.12" y="-264.38" font-family="Helvetica,sans-Serif" font-size="10.00">iopc_do_c</text>
</a>
</g>
</g>
<!-- Node2&#45;&gt;Node3 -->
<g id="edge2_Node000002_Node000003" class="edge">
<title>Node2&#45;&gt;Node3</title>
<g id="a_edge2_Node000002_Node000003"><a xlink:title=" ">
<path fill="none" stroke="#63b8ff" d="M1342.93,-391.35C1339.74,-435.6 1325.67,-538.16 1263.75,-588.25 1187.92,-649.59 1144.03,-619.25 1046.5,-619.25 1046.5,-619.25 1046.5,-619.25 566.38,-619.25 457.77,-619.25 406.6,-628.42 332.25,-549.25 293.77,-508.27 272.7,-323.06 268.09,-278.11"/>
<polygon fill="#63b8ff" stroke="#63b8ff" points="1346.42,-391.75 1343.51,-381.57 1339.43,-391.34 1346.42,-391.75"/>
</a>
</g>
</g>
<!-- Node8 -->
<g id="Node000008" class="node">
<title>Node8</title>
<g id="a_Node000008"><a xlink:href="../../d3/d7b/iopc-lang-c_8blk.html#adcaa3a9c0b091f1c54ec6aabb6e5984a" target="_top" xlink:title=" ">
<polygon fill="white" stroke="#666666" points="1262.62,-476.88 1143.12,-476.88 1143.12,-457.62 1262.62,-457.62 1262.62,-476.88"/>
<text text-anchor="middle" x="1202.88" y="-463.38" font-family="Helvetica,sans-Serif" font-size="10.00">iopc_dump_allow_union</text>
</a>
</g>
</g>
<!-- Node2&#45;&gt;Node8 -->
<g id="edge7_Node000002_Node000008" class="edge">
<title>Node2&#45;&gt;Node8</title>
<g id="a_edge7_Node000002_Node000008"><a xlink:title=" ">
<path fill="none" stroke="#63b8ff" d="M1329.25,-389.27C1314.53,-407.18 1290.26,-433.53 1263.75,-449.25 1258.52,-452.35 1252.72,-454.96 1246.83,-457.13"/>
<polygon fill="#63b8ff" stroke="#63b8ff" points="1331.95,-391.5 1335.45,-381.5 1326.48,-387.13 1331.95,-391.5"/>
</a>
</g>
</g>
<!-- Node14 -->
<g id="Node000014" class="node">
<title>Node14</title>
<g id="a_Node000014"><a xlink:href="../../d3/d7b/iopc-lang-c_8blk.html#ab603979fd0d86f17cda20cc19921e567" target="_top" xlink:title=" ">
<polygon fill="white" stroke="#666666" points="940,-590.88 835.5,-590.88 835.5,-571.62 940,-571.62 940,-590.88"/>
<text text-anchor="middle" x="887.75" y="-577.38" font-family="Helvetica,sans-Serif" font-size="10.00">iopc_dump_field_src</text>
</a>
</g>
</g>
<!-- Node2&#45;&gt;Node14 -->
<g id="edge16_Node000002_Node000014" class="edge">
<title>Node2&#45;&gt;Node14</title>
<g id="a_edge16_Node000002_Node000014"><a xlink:title=" ">
<path fill="none" stroke="#63b8ff" d="M1342.17,-391.22C1337.6,-432.07 1321.19,-521.85 1263.75,-562.25 1213.03,-597.93 1030.59,-591.07 940.22,-585.19"/>
<polygon fill="#63b8ff" stroke="#63b8ff" points="1345.63,-391.81 1343.11,-381.52 1338.66,-391.13 1345.63,-391.81"/>
</a>
</g>
</g>
<!-- Node15 -->
<g id="Node000015" class="node">
<title>Node15</title>
<g id="a_Node000015"><a xlink:href="../../d3/d7b/iopc-lang-c_8blk.html#ae9d6b14c7b837128a850dad30b508f0e" target="_top" xlink:title=" ">
<polygon fill="white" stroke="#666666" points="1263.75,-439.88 1142,-439.88 1142,-420.62 1263.75,-420.62 1263.75,-439.88"/>
<text text-anchor="middle" x="1202.88" y="-426.38" font-family="Helvetica,sans-Serif" font-size="10.00">iopc_dump_fieldval_loop</text>
</a>
</g>
</g>
<!-- Node2&#45;&gt;Node15 -->
<g id="edge18_Node000002_Node000015" class="edge">
<title>Node2&#45;&gt;Node15</title>
<g id="a_edge18_Node000002_Node000015"><a xlink:title=" ">
<path fill="none" stroke="#63b8ff" d="M1312.14,-384.87C1297.47,-391.53 1279.79,-399.44 1263.75,-406.25 1252.62,-410.98 1240.22,-415.99 1229.61,-420.2"/>
<polygon fill="#63b8ff" stroke="#63b8ff" points="1313.19,-388.23 1320.84,-380.9 1310.29,-381.87 1313.19,-388.23"/>
</a>
</g>
</g>
<!-- Node16 -->
<g id="Node000016" class="node">
<title>Node16</title>
<g id="a_Node000016"><a xlink:href="../../d3/d7b/iopc-lang-c_8blk.html#ad76d6d62f6e41d0e56991deba80c826e" target="_top" xlink:title=" ">
<polygon fill="white" stroke="#666666" points="790.5,-420.88 672.5,-420.88 672.5,-401.62 790.5,-401.62 790.5,-420.88"/>
<text text-anchor="middle" x="731.5" y="-407.38" font-family="Helvetica,sans-Serif" font-size="10.00">iopc_dump_rpc_defines</text>
</a>
</g>
</g>
<!-- Node2&#45;&gt;Node16 -->
<g id="edge20_Node000002_Node000016" class="edge">
<title>Node2&#45;&gt;Node16</title>
<g id="a_edge20_Node000002_Node000016"><a xlink:title=" ">
<path fill="none" stroke="#63b8ff" d="M1288.05,-373.99C1172.56,-381.74 908.35,-399.46 790.78,-407.34"/>
<polygon fill="#63b8ff" stroke="#63b8ff" points="1288.16,-377.49 1297.9,-373.33 1287.69,-370.51 1288.16,-377.49"/>
</a>
</g>
</g>
<!-- Node17 -->
<g id="Node000017" class="node">
<title>Node17</title>
<g id="a_Node000017"><a xlink:href="../../d3/d7b/iopc-lang-c_8blk.html#ae5b03995820211bc6e6e6a6107cc00c1" target="_top" xlink:title=" ">
<polygon fill="white" stroke="#666666" points="1104.12,-514.88 986.88,-514.88 986.88,-495.62 1104.12,-495.62 1104.12,-514.88"/>
<text text-anchor="middle" x="1045.5" y="-501.38" font-family="Helvetica,sans-Serif" font-size="10.00">iopc_dump_snmp_attrs</text>
</a>
</g>
</g>
<!-- Node2&#45;&gt;Node17 -->
<g id="edge22_Node000002_Node000017" class="edge">
<title>Node2&#45;&gt;Node17</title>
<g id="a_edge22_Node000002_Node000017"><a xlink:title=" ">
<path fill="none" stroke="#63b8ff" d="M1336.19,-390.83C1324.88,-417.91 1300.98,-464.6 1263.75,-486.25 1215.48,-514.33 1150.71,-516.36 1104.48,-513.03"/>
<polygon fill="#63b8ff" stroke="#63b8ff" points="1339.4,-392.23 1339.83,-381.65 1332.89,-389.65 1339.4,-392.23"/>
</a>
</g>
</g>
<!-- Node19 -->
<g id="Node000019" class="node">
<title>Node19</title>
<g id="a_Node000019"><a xlink:href="../../d3/d7b/iopc-lang-c_8blk.html#a04054448c7f507ae72403c4fcd3f0cde" target="_top" xlink:title=" ">
<polygon fill="white" stroke="#666666" points="1258.88,-364.5 1146.88,-364.5 1146.88,-334 1258.88,-334 1258.88,-364.5"/>
<text text-anchor="start" x="1154.88" y="-351" font-family="Helvetica,sans-Serif" font-size="10.00">iopc_fun_struct_dump</text>
<text text-anchor="middle" x="1202.88" y="-339.75" font-family="Helvetica,sans-Serif" font-size="10.00">_tdef_hdr</text>
</a>
</g>
</g>
<!-- Node2&#45;&gt;Node19 -->
<g id="edge27_Node000002_Node000019" class="edge">
<title>Node2&#45;&gt;Node19</title>
<g id="a_edge27_Node000002_Node000019"><a xlink:title=" ">
<path fill="none" stroke="#63b8ff" d="M1288.49,-361.94C1278.86,-360.5 1268.84,-358.99 1259.21,-357.55"/>
<polygon fill="#63b8ff" stroke="#63b8ff" points="1287.67,-365.36 1298.08,-363.38 1288.71,-358.44 1287.67,-365.36"/>
</a>
</g>
</g>
<!-- Node21 -->
<g id="Node000021" class="node">
<title>Node21</title>
<g id="a_Node000021"><a xlink:href="../../d3/d7b/iopc-lang-c_8blk.html#a0aa33a27e03e7a34d0220f667cedafa2" target="_top" xlink:title=" ">
<polygon fill="white" stroke="#666666" points="626.75,-315.88 508,-315.88 508,-296.62 626.75,-296.62 626.75,-315.88"/>
<text text-anchor="middle" x="567.38" y="-302.38" font-family="Helvetica,sans-Serif" font-size="10.00">iopc_module_dump_hdr</text>
</a>
</g>
</g>
<!-- Node2&#45;&gt;Node21 -->
<g id="edge30_Node000002_Node000021" class="edge">
<title>Node2&#45;&gt;Node21</title>
<g id="a_edge30_Node000002_Node000021"><a xlink:title=" ">
<path fill="none" stroke="#63b8ff" d="M1321.01,-353.93C1305.6,-343.83 1284.38,-331.62 1263.75,-325.25 1171.14,-296.66 1143.42,-306.25 1046.5,-306.25 1046.5,-306.25 1046.5,-306.25 886.75,-306.25 796.1,-306.25 690.94,-306.25 627.05,-306.25"/>
<polygon fill="#63b8ff" stroke="#63b8ff" points="1318.74,-356.62 1328.98,-359.33 1322.66,-350.82 1318.74,-356.62"/>
</a>
</g>
</g>
<!-- Node22 -->
<g id="Node000022" class="node">
<title>Node22</title>
<g id="a_Node000022"><a xlink:href="../../d3/d7b/iopc-lang-c_8blk.html#a9561a7ae07b731d59a3057073697f021" target="_top" xlink:title=" ">
<polygon fill="white" stroke="#666666" points="626.75,-277.88 508,-277.88 508,-258.62 626.75,-258.62 626.75,-277.88"/>
<text text-anchor="middle" x="567.38" y="-264.38" font-family="Helvetica,sans-Serif" font-size="10.00">iopc_module_dump_src</text>
</a>
</g>
</g>
<!-- Node2&#45;&gt;Node22 -->
<g id="edge32_Node000002_Node000022" class="edge">
<title>Node2&#45;&gt;Node22</title>
<g id="a_edge32_Node000002_Node000022"><a xlink:title=" ">
<path fill="none" stroke="#63b8ff" d="M1328.51,-351.84C1313.71,-335.45 1289.79,-312.26 1263.75,-300.25 1175.13,-259.37 1144.1,-268.25 1046.5,-268.25 1046.5,-268.25 1046.5,-268.25 886.75,-268.25 796.1,-268.25 690.94,-268.25 627.05,-268.25"/>
<polygon fill="#63b8ff" stroke="#63b8ff" points="1325.54,-353.76 1334.75,-358.99 1330.82,-349.16 1325.54,-353.76"/>
</a>
</g>
</g>
<!-- Node23 -->
<g id="Node000023" class="node">
<title>Node23</title>
<g id="a_Node000023"><a xlink:href="../../d3/d7b/iopc-lang-c_8blk.html#aab44c3b00c8a254f5756887e1caf11ea" target="_top" xlink:title=" ">
<polygon fill="white" stroke="#666666" points="448.75,-239.88 345.75,-239.88 345.75,-220.62 448.75,-220.62 448.75,-239.88"/>
<text text-anchor="middle" x="397.25" y="-226.38" font-family="Helvetica,sans-Serif" font-size="10.00">iopc_pkg_dump_src</text>
</a>
</g>
</g>
<!-- Node2&#45;&gt;Node23 -->
<g id="edge34_Node000002_Node000023" class="edge">
<title>Node2&#45;&gt;Node23</title>
<g id="a_edge34_Node000002_Node000023"><a xlink:title=" ">
<path fill="none" stroke="#63b8ff" d="M1334.84,-350.12C1322.56,-325.28 1298.11,-283.82 1263.75,-263.25 1179.95,-213.09 1144.16,-230.25 1046.5,-230.25 1046.5,-230.25 1046.5,-230.25 730.5,-230.25 630.85,-230.25 514.4,-230.25 449.19,-230.25"/>
<polygon fill="#63b8ff" stroke="#63b8ff" points="1331.53,-351.31 1338.97,-358.86 1337.86,-348.32 1331.53,-351.31"/>
</a>
</g>
</g>
<!-- Node24 -->
<g id="Node000024" class="node">
<title>Node24</title>
<g id="a_Node000024"><a xlink:href="../../d3/d7b/iopc-lang-c_8blk.html#a7d1a5bff69f94321713297899566424d" target="_top" xlink:title=" ">
<polygon fill="white" stroke="#666666" points="789,-202.5 674,-202.5 674,-172 789,-172 789,-202.5"/>
<text text-anchor="start" x="682" y="-189" font-family="Helvetica,sans-Serif" font-size="10.00">iopc_snmp_field_dump</text>
<text text-anchor="middle" x="731.5" y="-177.75" font-family="Helvetica,sans-Serif" font-size="10.00">_tdef_hdr</text>
</a>
</g>
</g>
<!-- Node2&#45;&gt;Node24 -->
<g id="edge36_Node000002_Node000024" class="edge">
<title>Node2&#45;&gt;Node24</title>
<g id="a_edge36_Node000002_Node000024"><a xlink:title=" ">
<path fill="none" stroke="#63b8ff" d="M1339.88,-349.39C1332.04,-314.91 1311.12,-246.8 1263.75,-216.25 1186.71,-166.56 909.74,-176.49 789.2,-183.46"/>
<polygon fill="#63b8ff" stroke="#63b8ff" points="1336.41,-349.89 1341.88,-358.96 1343.26,-348.46 1336.41,-349.89"/>
</a>
</g>
</g>
<!-- Node25 -->
<g id="Node000025" class="node">
<title>Node25</title>
<g id="a_Node000025"><a xlink:href="../../d3/d7b/iopc-lang-c_8blk.html#a1f372d09d2db3b95a9c59d3eea78e4cd" target="_top" xlink:title=" ">
<polygon fill="white" stroke="#666666" points="943.75,-30.5 831.75,-30.5 831.75,0 943.75,0 943.75,-30.5"/>
<text text-anchor="start" x="839.75" y="-17" font-family="Helvetica,sans-Serif" font-size="10.00">iopc_struct_dump_hdr</text>
<text text-anchor="middle" x="887.75" y="-5.75" font-family="Helvetica,sans-Serif" font-size="10.00">_class</text>
</a>
</g>
</g>
<!-- Node2&#45;&gt;Node25 -->
<g id="edge38_Node000002_Node000025" class="edge">
<title>Node2&#45;&gt;Node25</title>
<g id="a_edge38_Node000002_Node000025"><a xlink:title=" ">
<path fill="none" stroke="#63b8ff" d="M1343.45,-348.9C1341.34,-299.37 1329.39,-175.36 1263.75,-103.25 1181.82,-13.25 1026.85,-6.74 944.1,-10.5"/>
<polygon fill="#63b8ff" stroke="#63b8ff" points="1339.95,-348.91 1343.77,-358.79 1346.95,-348.69 1339.95,-348.91"/>
</a>
</g>
</g>
<!-- Node29 -->
<g id="Node000029" class="node">
<title>Node29</title>
<g id="a_Node000029"><a xlink:href="../../d3/d7b/iopc-lang-c_8blk.html#a45f985ab2ec246150fd7536509108db8" target="_top" xlink:title=" ">
<polygon fill="white" stroke="#666666" points="1250.62,-131.88 1155.12,-131.88 1155.12,-112.62 1250.62,-112.62 1250.62,-131.88"/>
<text text-anchor="middle" x="1202.88" y="-118.38" font-family="Helvetica,sans-Serif" font-size="10.00">pp_field_with_type</text>
</a>
</g>
</g>
<!-- Node2&#45;&gt;Node29 -->
<g id="edge45_Node000002_Node000029" class="edge">
<title>Node2&#45;&gt;Node29</title>
<g id="a_edge45_Node000002_Node000029"><a xlink:title=" ">
<path fill="none" stroke="#63b8ff" d="M1338.61,-349.1C1328.55,-311.53 1303.95,-231.8 1263.75,-175.25 1251.28,-157.71 1231.96,-141.98 1218.66,-132.3"/>
<polygon fill="#63b8ff" stroke="#63b8ff" points="1335.19,-349.86 1341.09,-358.66 1341.97,-348.1 1335.19,-349.86"/>
</a>
</g>
</g>
<!-- Node33 -->
<g id="Node000033" class="node">
<title>Node33</title>
<g id="a_Node000033"><a xlink:href="../../d3/d7b/iopc-lang-c_8blk.html#aba007a9ece4a62fba9145b6147588ea7" target="_top" xlink:title=" ">
<polygon fill="white" stroke="#666666" points="1248,-552.88 1157.75,-552.88 1157.75,-533.62 1248,-533.62 1248,-552.88"/>
<text text-anchor="middle" x="1202.88" y="-539.38" font-family="Helvetica,sans-Serif" font-size="10.00">write_class_attrs</text>
</a>
</g>
</g>
<!-- Node2&#45;&gt;Node33 -->
<g id="edge53_Node000002_Node000033" class="edge">
<title>Node2&#45;&gt;Node33</title>
<g id="a_edge53_Node000002_Node000033"><a xlink:title=" ">
<path fill="none" stroke="#63b8ff" d="M1337.78,-391.08C1327.48,-422.86 1303.77,-483.48 1263.75,-519.25 1257.15,-525.15 1248.93,-529.69 1240.7,-533.15"/>
<polygon fill="#63b8ff" stroke="#63b8ff" points="1341.12,-392.12 1340.73,-381.53 1334.43,-390.05 1341.12,-392.12"/>
</a>
</g>
</g>
<!-- Node4 -->
<g id="Node000004" class="node">
<title>Node4</title>
<g id="a_Node000004"><a xlink:href="../../df/d1f/iopc_8c.html#a693d2e305d9102c8dd03b6bd0bf61111" target="_top" xlink:title=" ">
<polygon fill="white" stroke="#666666" points="200,-296.88 116.5,-296.88 116.5,-277.62 200,-277.62 200,-296.88"/>
<text text-anchor="middle" x="158.25" y="-283.38" font-family="Helvetica,sans-Serif" font-size="10.00">build_doit_table</text>
</a>
</g>
</g>
<!-- Node3&#45;&gt;Node4 -->
<g id="edge3_Node000003_Node000004" class="edge">
<title>Node3&#45;&gt;Node4</title>
<g id="a_edge3_Node000003_Node000004"><a xlink:title=" ">
<path fill="none" stroke="#63b8ff" d="M224.46,-275.55C216.59,-276.96 208.34,-278.44 200.45,-279.86"/>
<polygon fill="#63b8ff" stroke="#63b8ff" points="224.92,-279.02 234.14,-273.81 223.68,-272.13 224.92,-279.02"/>
</a>
</g>
</g>
<!-- Node6 -->
<g id="Node000006" class="node">
<title>Node6</title>
<g id="a_Node000006"><a xlink:href="../../db/d07/iopc-dso_8c.html#a95a19b847fb352eb92b539cf3495f093" target="_top" xlink:title=" ">
<polygon fill="white" stroke="#666666" points="188,-259.88 128.5,-259.88 128.5,-240.62 188,-240.62 188,-259.88"/>
<text text-anchor="middle" x="158.25" y="-246.38" font-family="Helvetica,sans-Serif" font-size="10.00">iopc_build</text>
</a>
</g>
</g>
<!-- Node3&#45;&gt;Node6 -->
<g id="edge5_Node000003_Node000006" class="edge">
<title>Node3&#45;&gt;Node6</title>
<g id="a_edge5_Node000003_Node000006"><a xlink:title=" ">
<path fill="none" stroke="#63b8ff" d="M224.42,-261.33C212.35,-259.28 199.38,-257.07 188.22,-255.17"/>
<polygon fill="#63b8ff" stroke="#63b8ff" points="223.7,-264.76 234.14,-262.98 224.87,-257.86 223.7,-264.76"/>
</a>
</g>
</g>
<!-- Node5 -->
<g id="Node000005" class="node">
<title>Node5</title>
<g id="a_Node000005"><a xlink:href="../../df/d1f/iopc_8c.html#a3c04138a5bfe5d72780bb7e82a18e627" target="_top" xlink:title=" ">
<polygon fill="white" stroke="#666666" points="58.75,-296.88 21.75,-296.88 21.75,-277.62 58.75,-277.62 58.75,-296.88"/>
<text text-anchor="middle" x="40.25" y="-283.38" font-family="Helvetica,sans-Serif" font-size="10.00">main</text>
</a>
</g>
</g>
<!-- Node4&#45;&gt;Node5 -->
<g id="edge4_Node000004_Node000005" class="edge">
<title>Node4&#45;&gt;Node5</title>
<g id="a_edge4_Node000004_Node000005"><a xlink:title=" ">
<path fill="none" stroke="#63b8ff" d="M104.81,-287.25C88.37,-287.25 71.34,-287.25 59.05,-287.25"/>
<polygon fill="#63b8ff" stroke="#63b8ff" points="104.51,-290.75 114.51,-287.25 104.51,-283.75 104.51,-290.75"/>
</a>
</g>
</g>
<!-- Node7 -->
<g id="Node000007" class="node">
<title>Node7</title>
<g id="a_Node000007"><a xlink:href="../../db/d07/iopc-dso_8c.html#ab2da67841232fab2872190ddabd94a81" target="_top" xlink:title="Build an IOP DSO.">
<polygon fill="white" stroke="#666666" points="80.5,-259.88 0,-259.88 0,-240.62 80.5,-240.62 80.5,-259.88"/>
<text text-anchor="middle" x="40.25" y="-246.38" font-family="Helvetica,sans-Serif" font-size="10.00">iopc_dso_build</text>
</a>
</g>
</g>
<!-- Node6&#45;&gt;Node7 -->
<g id="edge6_Node000006_Node000007" class="edge">
<title>Node6&#45;&gt;Node7</title>
<g id="a_edge6_Node000006_Node000007"><a xlink:title=" ">
<path fill="none" stroke="#63b8ff" d="M116.99,-250.25C105.26,-250.25 92.46,-250.25 80.78,-250.25"/>
<polygon fill="#63b8ff" stroke="#63b8ff" points="116.76,-253.75 126.76,-250.25 116.76,-246.75 116.76,-253.75"/>
</a>
</g>
</g>
<!-- Node9 -->
<g id="Node000009" class="node">
<title>Node9</title>
<g id="a_Node000009"><a xlink:href="../../d3/d7b/iopc-lang-c_8blk.html#a6e489a201db365b70e1f0a862cad3c0a" target="_top" xlink:title=" ">
<polygon fill="white" stroke="#666666" points="1091,-477.88 1000,-477.88 1000,-458.62 1091,-458.62 1091,-477.88"/>
<text text-anchor="middle" x="1045.5" y="-464.38" font-family="Helvetica,sans-Serif" font-size="10.00">iopc_dump_allow</text>
</a>
</g>
</g>
<!-- Node8&#45;&gt;Node9 -->
<g id="edge8_Node000008_Node000009" class="edge">
<title>Node8&#45;&gt;Node9</title>
<g id="a_edge8_Node000008_Node000009"><a xlink:title=" ">
<path fill="none" stroke="#63b8ff" d="M1131.29,-467.7C1117.59,-467.79 1103.59,-467.88 1091.02,-467.96"/>
<polygon fill="#63b8ff" stroke="#63b8ff" points="1131.2,-471.21 1141.18,-467.64 1131.16,-464.21 1131.2,-471.21"/>
</a>
</g>
</g>
<!-- Node10 -->
<g id="Node000010" class="node">
<title>Node10</title>
<g id="a_Node000010"><a xlink:href="../../d3/d7b/iopc-lang-c_8blk.html#ab28c9ad460b506283d0fdb7942134595" target="_top" xlink:title=" ">
<polygon fill="white" stroke="#666666" points="943,-439.88 832.5,-439.88 832.5,-420.62 943,-420.62 943,-439.88"/>
<text text-anchor="middle" x="887.75" y="-426.38" font-family="Helvetica,sans-Serif" font-size="10.00">iopc_dump_field_attrs</text>
</a>
</g>
</g>
<!-- Node9&#45;&gt;Node10 -->
<g id="edge9_Node000009_Node000010" class="edge">
<title>Node9&#45;&gt;Node10</title>
<g id="a_edge9_Node000009_Node000010"><a xlink:title=" ">
<path fill="none" stroke="#63b8ff" d="M992.22,-455.49C971.95,-450.55 949.08,-444.97 930,-440.31"/>
<polygon fill="#63b8ff" stroke="#63b8ff" points="991.16,-458.84 1001.7,-457.81 992.81,-452.04 991.16,-458.84"/>
</a>
</g>
</g>
<!-- Node11 -->
<g id="Node000011" class="node">
<title>Node11</title>
<g id="a_Node000011"><a xlink:href="../../d3/d7b/iopc-lang-c_8blk.html#a5932ca501a8fe4de629700124cb66e41" target="_top" xlink:title=" ">
<polygon fill="white" stroke="#666666" points="787.5,-552.88 675.5,-552.88 675.5,-533.62 787.5,-533.62 787.5,-552.88"/>
<text text-anchor="middle" x="731.5" y="-539.38" font-family="Helvetica,sans-Serif" font-size="10.00">iopc_struct_dump_src</text>
</a>
</g>
</g>
<!-- Node10&#45;&gt;Node11 -->
<g id="edge10_Node000010_Node000011" class="edge">
<title>Node10&#45;&gt;Node11</title>
<g id="a_edge10_Node000010_Node000011"><a xlink:title=" ">
<path fill="none" stroke="#63b8ff" d="M863.84,-447.04C831.19,-470.95 772.33,-514.07 745.94,-533.41"/>
<polygon fill="#63b8ff" stroke="#63b8ff" points="865.84,-449.91 871.84,-441.17 861.71,-444.26 865.84,-449.91"/>
</a>
</g>
</g>
<!-- Node11&#45;&gt;Node3 -->
<g id="edge11_Node000011_Node000003" class="edge">
<title>Node11&#45;&gt;Node3</title>
<g id="a_edge11_Node000011_Node000003"><a xlink:title=" ">
<path fill="none" stroke="#63b8ff" d="M681.39,-555.82C597.34,-574.07 425.94,-596.54 332.25,-505.25 265.78,-440.48 265.25,-314.69 266.59,-278.32"/>
<polygon fill="#63b8ff" stroke="#63b8ff" points="681.94,-559.28 690.93,-553.67 680.41,-552.45 681.94,-559.28"/>
</a>
</g>
</g>
<!-- Node12 -->
<g id="Node000012" class="node">
<title>Node12</title>
<g id="a_Node000012"><a xlink:href="../../d3/d7b/iopc-lang-c_8blk.html#a60e8f426c2193869d8bd3daaecdc8173" target="_top" xlink:title=" ">
<polygon fill="white" stroke="#666666" points="451.38,-495.88 343.12,-495.88 343.12,-476.62 451.38,-476.62 451.38,-495.88"/>
<text text-anchor="middle" x="397.25" y="-482.38" font-family="Helvetica,sans-Serif" font-size="10.00">iopc_iface_dump_src</text>
</a>
</g>
</g>
<!-- Node11&#45;&gt;Node12 -->
<g id="edge12_Node000011_Node000012" class="edge">
<title>Node11&#45;&gt;Node12</title>
<g id="a_edge12_Node000011_Node000012"><a xlink:title=" ">
<path fill="none" stroke="#63b8ff" d="M664.18,-542.76C617.31,-541.22 553.3,-536.7 498.25,-524.25 470.17,-517.9 439.44,-505.31 419.55,-496.36"/>
<polygon fill="#63b8ff" stroke="#63b8ff" points="663.8,-546.25 673.9,-543.04 664,-539.25 663.8,-546.25"/>
</a>
</g>
</g>
<!-- Node13 -->
<g id="Node000013" class="node">
<title>Node13</title>
<g id="a_Node000013"><a xlink:href="../../d3/d7b/iopc-lang-c_8blk.html#a60e21f96951fdd7e1bbb43189cc174de" target="_top" xlink:title=" ">
<polygon fill="white" stroke="#666666" points="636.5,-514.88 498.25,-514.88 498.25,-495.62 636.5,-495.62 636.5,-514.88"/>
<text text-anchor="middle" x="567.38" y="-501.38" font-family="Helvetica,sans-Serif" font-size="10.00">iopc_iface_struct_dump_src</text>
</a>
</g>
</g>
<!-- Node11&#45;&gt;Node13 -->
<g id="edge14_Node000011_Node000013" class="edge">
<title>Node11&#45;&gt;Node13</title>
<g id="a_edge14_Node000011_Node000013"><a xlink:title=" ">
<path fill="none" stroke="#63b8ff" d="M676.37,-530.56C655.2,-525.6 631.26,-519.99 611.32,-515.31"/>
<polygon fill="#63b8ff" stroke="#63b8ff" points="675.47,-533.95 686.01,-532.82 677.07,-527.13 675.47,-533.95"/>
</a>
</g>
</g>
<!-- Node12&#45;&gt;Node3 -->
<g id="edge13_Node000012_Node000003" class="edge">
<title>Node12&#45;&gt;Node3</title>
<g id="a_edge13_Node000012_Node000003"><a xlink:title=" ">
<path fill="none" stroke="#63b8ff" d="M384.58,-466.55C357.85,-421.42 292.97,-311.88 273.04,-278.24"/>
<polygon fill="#63b8ff" stroke="#63b8ff" points="381.49,-468.19 389.59,-475.01 387.51,-464.63 381.49,-468.19"/>
</a>
</g>
</g>
<!-- Node13&#45;&gt;Node12 -->
<g id="edge15_Node000013_Node000012" class="edge">
<title>Node13&#45;&gt;Node12</title>
<g id="a_edge15_Node000013_Node000012"><a xlink:title=" ">
<path fill="none" stroke="#63b8ff" d="M486.67,-496.24C474.78,-494.9 462.78,-493.54 451.62,-492.28"/>
<polygon fill="#63b8ff" stroke="#63b8ff" points="486.16,-499.71 496.49,-497.35 486.94,-492.75 486.16,-499.71"/>
</a>
</g>
</g>
<!-- Node14&#45;&gt;Node11 -->
<g id="edge17_Node000014_Node000011" class="edge">
<title>Node14&#45;&gt;Node11</title>
<g id="a_edge17_Node000014_Node000011"><a xlink:title=" ">
<path fill="none" stroke="#63b8ff" d="M834.69,-568.43C814.69,-563.5 792.16,-557.95 773.35,-553.31"/>
<polygon fill="#63b8ff" stroke="#63b8ff" points="833.8,-571.81 844.35,-570.8 835.48,-565.01 833.8,-571.81"/>
</a>
</g>
</g>
<!-- Node15&#45;&gt;Node10 -->
<g id="edge19_Node000015_Node000010" class="edge">
<title>Node15&#45;&gt;Node10</title>
<g id="a_edge19_Node000015_Node000010"><a xlink:title=" ">
<path fill="none" stroke="#63b8ff" d="M1130.08,-430.25C1073.31,-430.25 995.23,-430.25 943.44,-430.25"/>
<polygon fill="#63b8ff" stroke="#63b8ff" points="1129.99,-433.75 1139.99,-430.25 1129.99,-426.75 1129.99,-433.75"/>
</a>
</g>
</g>
<!-- Node16&#45;&gt;Node13 -->
<g id="edge21_Node000016_Node000013" class="edge">
<title>Node16&#45;&gt;Node13</title>
<g id="a_edge21_Node000016_Node000013"><a xlink:title=" ">
<path fill="none" stroke="#63b8ff" d="M703.53,-426.89C670.01,-446.32 613.8,-478.91 585.6,-495.26"/>
<polygon fill="#63b8ff" stroke="#63b8ff" points="704.94,-430.11 711.84,-422.07 701.43,-424.06 704.94,-430.11"/>
</a>
</g>
</g>
<!-- Node17&#45;&gt;Node11 -->
<g id="edge24_Node000017_Node000011" class="edge">
<title>Node17&#45;&gt;Node11</title>
<g id="a_edge24_Node000017_Node000011"><a xlink:title=" ">
<path fill="none" stroke="#63b8ff" d="M975.03,-509.88C932.11,-513.18 875.97,-518.26 826.5,-525.25 811.36,-527.39 794.97,-530.31 780.17,-533.19"/>
<polygon fill="#63b8ff" stroke="#63b8ff" points="975.27,-513.38 984.98,-509.14 974.75,-506.4 975.27,-513.38"/>
</a>
</g>
</g>
<!-- Node17&#45;&gt;Node12 -->
<g id="edge23_Node000017_Node000012" class="edge">
<title>Node17&#45;&gt;Node12</title>
<g id="a_edge23_Node000017_Node000012"><a xlink:title=" ">
<path fill="none" stroke="#63b8ff" d="M975.37,-501.05C894.24,-496.35 755.66,-489.02 636.5,-486.25 573.03,-484.77 500.01,-485.07 451.72,-485.54"/>
<polygon fill="#63b8ff" stroke="#63b8ff" points="974.73,-504.52 984.91,-501.61 975.13,-497.53 974.73,-504.52"/>
</a>
</g>
</g>
<!-- Node18 -->
<g id="Node000018" class="node">
<title>Node18</title>
<g id="a_Node000018"><a xlink:href="../../d3/d7b/iopc-lang-c_8blk.html#a16b42f98e46df1d1a1711065ebb26f12" target="_top" xlink:title=" ">
<polygon fill="white" stroke="#666666" points="921.25,-553.88 854.25,-553.88 854.25,-534.62 921.25,-534.62 921.25,-553.88"/>
<text text-anchor="middle" x="887.75" y="-540.38" font-family="Helvetica,sans-Serif" font-size="10.00">write_struct</text>
</a>
</g>
</g>
<!-- Node17&#45;&gt;Node18 -->
<g id="edge25_Node000017_Node000018" class="edge">
<title>Node17&#45;&gt;Node18</title>
<g id="a_edge25_Node000017_Node000018"><a xlink:title=" ">
<path fill="none" stroke="#63b8ff" d="M993.49,-518.02C969.87,-523.94 942.48,-530.8 921.64,-536.01"/>
<polygon fill="#63b8ff" stroke="#63b8ff" points="994.07,-521.49 1002.92,-515.66 992.37,-514.7 994.07,-521.49"/>
</a>
</g>
</g>
<!-- Node18&#45;&gt;Node11 -->
<g id="edge26_Node000018_Node000011" class="edge">
<title>Node18&#45;&gt;Node11</title>
<g id="a_edge26_Node000018_Node000011"><a xlink:title=" ">
<path fill="none" stroke="#63b8ff" d="M842.71,-543.96C825.66,-543.85 805.94,-543.73 787.94,-543.61"/>
<polygon fill="#63b8ff" stroke="#63b8ff" points="842.5,-547.46 852.52,-544.03 842.55,-540.46 842.5,-547.46"/>
</a>
</g>
</g>
<!-- Node20 -->
<g id="Node000020" class="node">
<title>Node20</title>
<g id="a_Node000020"><a xlink:href="../../d3/d7b/iopc-lang-c_8blk.html#acf8fac91302b10b0c44ffcfeb497b83e" target="_top" xlink:title=" ">
<polygon fill="white" stroke="#666666" points="462.25,-354.88 332.25,-354.88 332.25,-335.62 462.25,-335.62 462.25,-354.88"/>
<text text-anchor="middle" x="397.25" y="-341.38" font-family="Helvetica,sans-Serif" font-size="10.00">iopc_iface_dump_tdef_hdr</text>
</a>
</g>
</g>
<!-- Node19&#45;&gt;Node20 -->
<g id="edge28_Node000019_Node000020" class="edge">
<title>Node19&#45;&gt;Node20</title>
<g id="a_edge28_Node000019_Node000020"><a xlink:title=" ">
<path fill="none" stroke="#63b8ff" d="M1135.02,-348.24C1071.62,-347.37 973.71,-346.25 888.75,-346.25 888.75,-346.25 888.75,-346.25 730.5,-346.25 637.34,-346.25 529.49,-345.85 462.56,-345.56"/>
<polygon fill="#63b8ff" stroke="#63b8ff" points="1134.88,-351.74 1144.93,-348.38 1134.98,-344.74 1134.88,-351.74"/>
</a>
</g>
</g>
<!-- Node20&#45;&gt;Node3 -->
<g id="edge29_Node000020_Node000003" class="edge">
<title>Node20&#45;&gt;Node3</title>
<g id="a_edge29_Node000020_Node000003"><a xlink:title=" ">
<path fill="none" stroke="#63b8ff" d="M354.53,-331.06C346.92,-327.89 339.2,-324.26 332.25,-320.25 311.19,-308.11 289.73,-289.51 277.46,-278.15"/>
<polygon fill="#63b8ff" stroke="#63b8ff" points="353.11,-334.26 363.7,-334.68 355.68,-327.75 353.11,-334.26"/>
</a>
</g>
</g>
<!-- Node21&#45;&gt;Node3 -->
<g id="edge31_Node000021_Node000003" class="edge">
<title>Node21&#45;&gt;Node3</title>
<g id="a_edge31_Node000021_Node000003"><a xlink:title=" ">
<path fill="none" stroke="#63b8ff" d="M496.72,-301.12C450.03,-297.19 387.24,-290.95 332.25,-282.25 320.48,-280.39 307.64,-277.76 296.5,-275.28"/>
<polygon fill="#63b8ff" stroke="#63b8ff" points="496.17,-304.59 506.43,-301.92 496.75,-297.61 496.17,-304.59"/>
</a>
</g>
</g>
<!-- Node22&#45;&gt;Node3 -->
<g id="edge33_Node000022_Node000003" class="edge">
<title>Node22&#45;&gt;Node3</title>
<g id="a_edge33_Node000022_Node000003"><a xlink:title=" ">
<path fill="none" stroke="#63b8ff" d="M496.1,-268.25C432.73,-268.25 342.64,-268.25 296.64,-268.25"/>
<polygon fill="#63b8ff" stroke="#63b8ff" points="496.1,-271.75 506.1,-268.25 496.1,-264.75 496.1,-271.75"/>
</a>
</g>
</g>
<!-- Node23&#45;&gt;Node3 -->
<g id="edge35_Node000023_Node000003" class="edge">
<title>Node23&#45;&gt;Node3</title>
<g id="a_edge35_Node000023_Node000003"><a xlink:title=" ">
<path fill="none" stroke="#63b8ff" d="M351.11,-243.54C333.08,-248.84 312.82,-254.8 296.72,-259.54"/>
<polygon fill="#63b8ff" stroke="#63b8ff" points="351.93,-246.94 360.53,-240.76 349.95,-240.23 351.93,-246.94"/>
</a>
</g>
</g>
<!-- Node24&#45;&gt;Node3 -->
<g id="edge37_Node000024_Node000003" class="edge">
<title>Node24&#45;&gt;Node3</title>
<g id="a_edge37_Node000024_Node000003"><a xlink:title=" ">
<path fill="none" stroke="#63b8ff" d="M662.15,-178.36C580.38,-170.6 440.92,-166.64 332.25,-211.25 307.51,-221.41 285.69,-245 274.69,-258.43"/>
<polygon fill="#63b8ff" stroke="#63b8ff" points="661.74,-181.83 672.04,-179.35 662.44,-174.87 661.74,-181.83"/>
</a>
</g>
</g>
<!-- Node26 -->
<g id="Node000026" class="node">
<title>Node26</title>
<g id="a_Node000026"><a xlink:href="../../d3/d7b/iopc-lang-c_8blk.html#a513127e8559afab225faa5b137900b3f" target="_top" xlink:title=" ">
<polygon fill="white" stroke="#666666" points="787.5,-77.88 675.5,-77.88 675.5,-58.62 787.5,-58.62 787.5,-77.88"/>
<text text-anchor="middle" x="731.5" y="-64.38" font-family="Helvetica,sans-Serif" font-size="10.00">iopc_struct_dump_hdr</text>
</a>
</g>
</g>
<!-- Node25&#45;&gt;Node26 -->
<g id="edge39_Node000025_Node000026" class="edge">
<title>Node25&#45;&gt;Node26</title>
<g id="a_edge39_Node000025_Node000026"><a xlink:title=" ">
<path fill="none" stroke="#63b8ff" d="M830.45,-34.59C807.09,-42.62 780.98,-51.59 761.59,-58.25"/>
<polygon fill="#63b8ff" stroke="#63b8ff" points="831.55,-37.92 839.87,-31.36 829.28,-31.3 831.55,-37.92"/>
</a>
</g>
</g>
<!-- Node26&#45;&gt;Node3 -->
<g id="edge40_Node000026_Node000003" class="edge">
<title>Node26&#45;&gt;Node3</title>
<g id="a_edge40_Node000026_Node000003"><a xlink:title=" ">
<path fill="none" stroke="#63b8ff" d="M684.69,-55.53C604.57,-36.22 437.51,-9.44 332.25,-87.25 275.05,-129.53 267.95,-226.76 267.18,-258.22"/>
<polygon fill="#63b8ff" stroke="#63b8ff" points="683.39,-58.81 693.94,-57.82 685.08,-52.01 683.39,-58.81"/>
</a>
</g>
</g>
<!-- Node26&#45;&gt;Node26 -->
<g id="edge44_Node000026_Node000026" class="edge">
<title>Node26&#45;&gt;Node26</title>
<g id="a_edge44_Node000026_Node000026"><a xlink:title=" ">
<path fill="none" stroke="#63b8ff" d="M759.52,-88.94C756.29,-92.99 746.95,-95.88 731.5,-95.88 704.03,-95.88 695.88,-86.77 707.04,-78.16"/>
<polygon fill="#63b8ff" stroke="#63b8ff" points="762.89,-88 756.44,-79.6 756.24,-90.19 762.89,-88"/>
</a>
</g>
</g>
<!-- Node27 -->
<g id="Node000027" class="node">
<title>Node27</title>
<g id="a_Node000027"><a xlink:href="../../d3/d7b/iopc-lang-c_8blk.html#adcbd9d7ae43fa0b4819c8ecbba8ef8ae" target="_top" xlink:title=" ">
<polygon fill="white" stroke="#666666" points="632.75,-115.88 502,-115.88 502,-96.62 632.75,-96.62 632.75,-115.88"/>
<text text-anchor="middle" x="567.38" y="-102.38" font-family="Helvetica,sans-Serif" font-size="10.00">iopc_fun_struct_dump_hdr</text>
</a>
</g>
</g>
<!-- Node26&#45;&gt;Node27 -->
<g id="edge41_Node000026_Node000027" class="edge">
<title>Node26&#45;&gt;Node27</title>
<g id="a_edge41_Node000026_Node000027"><a xlink:title=" ">
<path fill="none" stroke="#63b8ff" d="M676.37,-80.94C655.2,-85.9 631.26,-91.51 611.32,-96.19"/>
<polygon fill="#63b8ff" stroke="#63b8ff" points="677.07,-84.37 686.01,-78.68 675.47,-77.55 677.07,-84.37"/>
</a>
</g>
</g>
<!-- Node28 -->
<g id="Node000028" class="node">
<title>Node28</title>
<g id="a_Node000028"><a xlink:href="../../d3/d7b/iopc-lang-c_8blk.html#ac234db93b3131e22cf7c96675c888616" target="_top" xlink:title=" ">
<polygon fill="white" stroke="#666666" points="451.38,-115.88 343.12,-115.88 343.12,-96.62 451.38,-96.62 451.38,-115.88"/>
<text text-anchor="middle" x="397.25" y="-102.38" font-family="Helvetica,sans-Serif" font-size="10.00">iopc_iface_dump_hdr</text>
</a>
</g>
</g>
<!-- Node27&#45;&gt;Node28 -->
<g id="edge42_Node000027_Node000028" class="edge">
<title>Node27&#45;&gt;Node28</title>
<g id="a_edge42_Node000027_Node000028"><a xlink:title=" ">
<path fill="none" stroke="#63b8ff" d="M490.46,-106.25C477.37,-106.25 464.02,-106.25 451.68,-106.25"/>
<polygon fill="#63b8ff" stroke="#63b8ff" points="490.34,-109.75 500.34,-106.25 490.34,-102.75 490.34,-109.75"/>
</a>
</g>
</g>
<!-- Node28&#45;&gt;Node3 -->
<g id="edge43_Node000028_Node000003" class="edge">
<title>Node28&#45;&gt;Node3</title>
<g id="a_edge43_Node000028_Node000003"><a xlink:title=" ">
<path fill="none" stroke="#63b8ff" d="M344.79,-121.31C340.26,-123.85 335.98,-126.81 332.25,-130.25 292.3,-167.04 274.57,-233.4 269.09,-258.38"/>
<polygon fill="#63b8ff" stroke="#63b8ff" points="346.15,-124.53 353.63,-117.03 343.11,-118.23 346.15,-124.53"/>
</a>
</g>
</g>
<!-- Node30 -->
<g id="Node000030" class="node">
<title>Node30</title>
<g id="a_Node000030"><a xlink:href="../../d3/d7b/iopc-lang-c_8blk.html#a700e1ed395f450468937d0849b42fd9e" target="_top" xlink:title=" ">
<polygon fill="white" stroke="#666666" points="1106,-67.88 985,-67.88 985,-48.62 1106,-48.62 1106,-67.88"/>
<text text-anchor="middle" x="1045.5" y="-54.38" font-family="Helvetica,sans-Serif" font-size="10.00">iopc_struct_dump_fields</text>
</a>
</g>
</g>
<!-- Node29&#45;&gt;Node30 -->
<g id="edge46_Node000029_Node000030" class="edge">
<title>Node29&#45;&gt;Node30</title>
<g id="a_edge46_Node000029_Node000030"><a xlink:title=" ">
<path fill="none" stroke="#63b8ff" d="M1167.02,-107.89C1137.76,-95.84 1096.7,-78.93 1070.86,-68.29"/>
<polygon fill="#63b8ff" stroke="#63b8ff" points="1165.62,-111.1 1176.2,-111.67 1168.28,-104.63 1165.62,-111.1"/>
</a>
</g>
</g>
<!-- Node31 -->
<g id="Node000031" class="node">
<title>Node31</title>
<g id="a_Node000031"><a xlink:href="../../d3/d7b/iopc-lang-c_8blk.html#a52270c289f944ee0d45e86dc08300dec" target="_top" xlink:title=" ">
<polygon fill="white" stroke="#666666" points="949,-116.5 826.5,-116.5 826.5,-86 949,-86 949,-116.5"/>
<text text-anchor="start" x="834.5" y="-103" font-family="Helvetica,sans-Serif" font-size="10.00">iopc_struct_dump_snmp</text>
<text text-anchor="middle" x="887.75" y="-91.75" font-family="Helvetica,sans-Serif" font-size="10.00">_fields</text>
</a>
</g>
</g>
<!-- Node29&#45;&gt;Node31 -->
<g id="edge49_Node000029_Node000031" class="edge">
<title>Node29&#45;&gt;Node31</title>
<g id="a_edge49_Node000029_Node000031"><a xlink:title=" ">
<path fill="none" stroke="#63b8ff" d="M1143.28,-118.32C1087.92,-114.61 1005.24,-109.06 949.26,-105.31"/>
<polygon fill="#63b8ff" stroke="#63b8ff" points="1142.94,-121.8 1153.15,-118.98 1143.4,-114.82 1142.94,-121.8"/>
</a>
</g>
</g>
<!-- Node32 -->
<g id="Node000032" class="node">
<title>Node32</title>
<g id="a_Node000032"><a xlink:href="../../d3/d7b/iopc-lang-c_8blk.html#a9035e12c33f5a4243b114bb1646e572f" target="_top" xlink:title=" ">
<polygon fill="white" stroke="#666666" points="1100.75,-151.88 990.25,-151.88 990.25,-132.62 1100.75,-132.62 1100.75,-151.88"/>
<text text-anchor="middle" x="1045.5" y="-138.38" font-family="Helvetica,sans-Serif" font-size="10.00">iopc_union_dump_hdr</text>
</a>
</g>
</g>
<!-- Node29&#45;&gt;Node32 -->
<g id="edge51_Node000029_Node000032" class="edge">
<title>Node29&#45;&gt;Node32</title>
<g id="a_edge51_Node000029_Node000032"><a xlink:title=" ">
<path fill="none" stroke="#63b8ff" d="M1143.82,-129.72C1129.8,-131.53 1114.87,-133.45 1101.01,-135.23"/>
<polygon fill="#63b8ff" stroke="#63b8ff" points="1143.86,-133.25 1153.33,-128.5 1142.97,-126.3 1143.86,-133.25"/>
</a>
</g>
</g>
<!-- Node30&#45;&gt;Node25 -->
<g id="edge48_Node000030_Node000025" class="edge">
<title>Node30&#45;&gt;Node25</title>
<g id="a_edge48_Node000030_Node000025"><a xlink:title=" ">
<path fill="none" stroke="#63b8ff" d="M997.3,-45.22C980.48,-40.57 961.39,-35.3 943.95,-30.49"/>
<polygon fill="#63b8ff" stroke="#63b8ff" points="995.95,-48.48 1006.52,-47.77 997.82,-41.73 995.95,-48.48"/>
</a>
</g>
</g>
<!-- Node30&#45;&gt;Node26 -->
<g id="edge47_Node000030_Node000026" class="edge">
<title>Node30&#45;&gt;Node26</title>
<g id="a_edge47_Node000030_Node000026"><a xlink:title=" ">
<path fill="none" stroke="#63b8ff" d="M973.4,-60.53C917.12,-62.33 839.63,-64.82 787.9,-66.47"/>
<polygon fill="#63b8ff" stroke="#63b8ff" points="973.32,-64.03 983.2,-60.21 973.09,-57.04 973.32,-64.03"/>
</a>
</g>
</g>
<!-- Node31&#45;&gt;Node26 -->
<g id="edge50_Node000031_Node000026" class="edge">
<title>Node31&#45;&gt;Node26</title>
<g id="a_edge50_Node000031_Node000026"><a xlink:title=" ">
<path fill="none" stroke="#63b8ff" d="M815.19,-85.94C803.07,-83.35 790.77,-80.72 779.49,-78.3"/>
<polygon fill="#63b8ff" stroke="#63b8ff" points="814.24,-89.32 824.75,-87.99 815.7,-82.47 814.24,-89.32"/>
</a>
</g>
</g>
<!-- Node32&#45;&gt;Node3 -->
<g id="edge52_Node000032_Node000003" class="edge">
<title>Node32&#45;&gt;Node3</title>
<g id="a_edge52_Node000032_Node000003"><a xlink:title=" ">
<path fill="none" stroke="#63b8ff" d="M978.45,-142.92C915.3,-143.5 817.4,-144.25 732.5,-144.25 732.5,-144.25 732.5,-144.25 566.38,-144.25 461.35,-144.25 422.04,-121.78 332.25,-176.25 299.79,-195.94 279.13,-238.62 271.02,-258.14"/>
<polygon fill="#63b8ff" stroke="#63b8ff" points="978.35,-146.42 988.32,-142.83 978.29,-139.42 978.35,-146.42"/>
</a>
</g>
</g>
<!-- Node33&#45;&gt;Node18 -->
<g id="edge54_Node000033_Node000018" class="edge">
<title>Node33&#45;&gt;Node18</title>
<g id="a_edge54_Node000033_Node000018"><a xlink:title=" ">
<path fill="none" stroke="#63b8ff" d="M1146.05,-543.43C1080.79,-543.64 974.95,-543.97 921.65,-544.14"/>
<polygon fill="#63b8ff" stroke="#63b8ff" points="1145.84,-546.93 1155.83,-543.4 1145.82,-539.93 1145.84,-546.93"/>
</a>
</g>
</g>
</g>
</svg>

<g id="navigator" transform="translate(0 0)" fill="#404254">
  <rect fill="#f2f5e9" fill-opacity="0.5" stroke="#606060" stroke-width=".5" x="0" y="0" width="60" height="60"/>
  <use id="zoomplus" xlink:href="#zoomPlus" x="17" y="9" onmousedown="handleZoom(evt,'in')"/>
  <use id="zoomminus" xlink:href="#zoomMin" x="42" y="9" onmousedown="handleZoom(evt,'out')"/>
  <use id="reset" xlink:href="#resetDef" x="30" y="36" onmousedown="handleReset()"/>
   <use id="arrowup" xlink:href="#arrowUp" x="0" y="0" onmousedown="handlePan(0,-1)"/>
  <use id="arrowright" xlink:href="#arrowRight" x="0" y="0" onmousedown="handlePan(1,0)"/>
  <use id="arrowdown" xlink:href="#arrowDown" x="0" y="0" onmousedown="handlePan(0,1)"/>
  <use id="arrowleft" xlink:href="#arrowLeft" x="0" y="0" onmousedown="handlePan(-1,0)"/>
</g>
<svg viewBox="0 0 15 15" width="100%" height="30px" preserveAspectRatio="xMaxYMin meet">
 <g id="arrow_out" transform="scale(0.3 0.3)">
  <a xlink:href="iopc_8h_a16b0d0b703d90450322d542297783048_icgraph_org.svg" target="_base">
   <rect id="button" ry="5" rx="5" y="6" x="6" height="38" width="38"
        fill="#f2f5e9" fill-opacity="0.5" stroke="#606060" stroke-width="1.0"/>
   <path id="arrow"
     d="M 11.500037,31.436501 C 11.940474,20.09759 22.043105,11.32322 32.158766,21.979434 L 37.068811,17.246167 C 37.068811,17.246167 37.088388,32 37.088388,32 L 22.160133,31.978069 C 22.160133,31.978069 26.997745,27.140456 26.997745,27.140456 C 18.528582,18.264221 13.291696,25.230495 11.500037,31.436501 z"
     style="fill:#404040;"/>
  </a>
 </g>
</svg>

<style type='text/css'>
<![CDATA[
[data-mouse-over-selected='false'] { opacity: 0.7; }
[data-mouse-over-selected='true']  { opacity: 1.0; }
]]>
</style>
<script type="application/ecmascript"><![CDATA[
document.addEventListener('DOMContentLoaded', (event) => {
  highlightEdges();
  highlightAdjacentNodes();
});
]]></script>
</svg>
