<?xml version="1.0" encoding="UTF-8" standalone="no"?>
<!DOCTYPE svg PUBLIC "-//W3C//DTD SVG 1.1//EN"
 "http://www.w3.org/Graphics/SVG/1.1/DTD/svg11.dtd">
<!-- Generated by graphviz version 9.0.0 (20230911.1827)
 -->
<!-- Title: iopc_struct_wipe Pages: 1 -->
<!--zoomable 254 -->

<svg id="main" version="1.1" xmlns="http://www.w3.org/2000/svg" xmlns:xlink="http://www.w3.org/1999/xlink" xml:space="preserve" onload="init(evt)">
<style type="text/css"><![CDATA[
.node, .edge {opacity: 0.7;}
.node.selected, .edge.selected {opacity: 1;}
.edge:hover path { stroke: red; }
.edge:hover polygon { stroke: red; fill: red; }
]]></style>

<defs>
  <circle id="rim" cx="0" cy="0" r="7"/>
  <circle id="rim2" cx="0" cy="0" r="3.5"/>
  <g id="zoomPlus">
    <use xlink:href="#rim" fill="#404040"><set attributeName="fill" to="#808080" begin="zoomplus.mouseover" end="zoomplus.mouseout"/></use>
    <path d="M-4,0h8M0,-4v8" fill="none" stroke="white" stroke-width="1.5" pointer-events="none"/>
  </g>
  <g id="zoomMin">
    <use xlink:href="#rim" fill="#404040"><set attributeName="fill" to="#808080" begin="zoomminus.mouseover" end="zoomminus.mouseout"/></use>
    <path d="M-4,0h8" fill="none" stroke="white" stroke-width="1.5" pointer-events="none"/>
  </g>
  <g id="arrowUp" transform="translate(30 24)">
    <use xlink:href="#rim"/>
    <path pointer-events="none" fill="none" stroke="white" stroke-width="1.5" d="M0,-3.0v7 M-2.5,-0.5L0,-3.0L2.5,-0.5"/>
  </g>
  <g id="arrowRight" transform="rotate(90) translate(36 -43)">
    <use xlink:href="#rim"/>
    <path pointer-events="none" fill="none" stroke="white" stroke-width="1.5" d="M0,-3.0v7 M-2.5,-0.5L0,-3.0L2.5,-0.5"/>
  </g>
  <g id="arrowDown" transform="rotate(180) translate(-30 -48)">
    <use xlink:href="#rim"/>
    <path pointer-events="none" fill="none" stroke="white" stroke-width="1.5" d="M0,-3.0v7 M-2.5,-0.5L0,-3.0L2.5,-0.5"/>
  </g>
  <g id="arrowLeft" transform="rotate(270) translate(-36 17)">
    <use xlink:href="#rim"/>
    <path pointer-events="none" fill="none" stroke="white" stroke-width="1.5" d="M0,-3.0v7 M-2.5,-0.5L0,-3.0L2.5,-0.5"/>
  </g>
  <g id="resetDef">
    <use xlink:href="#rim2" fill="#404040"><set attributeName="fill" to="#808080" begin="reset.mouseover" end="reset.mouseout"/></use>
  </g>
</defs>
<script type="application/ecmascript">
var viewWidth = 1415;
var viewHeight = 254;
var sectionId = 'dynsection-99';
</script>
<script type="application/ecmascript" xlink:href="../../svg.min.js"/>
<svg id="graph" class="graph">
<g id="viewport">
<title>iopc_struct_wipe</title>
<!-- Node1 -->
<g id="Node000001" class="node">
<title>Node1</title>
<g id="a_Node000001"><a xlink:title=" ">
<polygon fill="#999999" stroke="#666666" points="89.5,-200.47 0,-200.47 0,-181.22 89.5,-181.22 89.5,-200.47"/>
<text text-anchor="middle" x="44.75" y="-186.97" font-family="Helvetica,sans-Serif" font-size="10.00">iopc_struct_wipe</text>
</a>
</g>
</g>
<!-- Node2 -->
<g id="Node000002" class="node">
<title>Node2</title>
<g id="a_Node000002"><a xlink:href="../../d0/dc5/iopc_8h.html#ab37350e497157e92cee75dc86a165a71" target="_top" xlink:title=" ">
<polygon fill="white" stroke="#666666" points="205.25,-181.47 125.5,-181.47 125.5,-162.22 205.25,-162.22 205.25,-181.47"/>
<text text-anchor="middle" x="165.38" y="-167.97" font-family="Helvetica,sans-Serif" font-size="10.00">iopc_dox_wipe</text>
</a>
</g>
</g>
<!-- Node1&#45;&gt;Node2 -->
<g id="edge1_Node000001_Node000002" class="edge">
<title>Node1&#45;&gt;Node2</title>
<g id="a_edge1_Node000001_Node000002"><a xlink:title=" ">
<path fill="none" stroke="#63b8ff" d="M89.92,-183.77C97.8,-182.51 106.06,-181.18 114.1,-179.89"/>
<polygon fill="#63b8ff" stroke="#63b8ff" points="114.43,-183.39 123.75,-178.35 113.32,-176.47 114.43,-183.39"/>
</a>
</g>
</g>
<!-- Node3 -->
<g id="Node000003" class="node">
<title>Node3</title>
<g id="a_Node000003"><a xlink:href="../../df/d0a/str-l_8h.html#ad74dae07179370f3c22e3f026157926e" target="_top" xlink:title="wipe a lstr_t (frees memory if needed).">
<polygon fill="white" stroke="#666666" points="296.25,-200.47 241.25,-200.47 241.25,-181.22 296.25,-181.22 296.25,-200.47"/>
<text text-anchor="middle" x="268.75" y="-186.97" font-family="Helvetica,sans-Serif" font-size="10.00">lstr_wipe</text>
</a>
</g>
</g>
<!-- Node1&#45;&gt;Node3 -->
<g id="edge31_Node000001_Node000003" class="edge">
<title>Node1&#45;&gt;Node3</title>
<g id="a_edge31_Node000001_Node000003"><a xlink:title=" ">
<path fill="none" stroke="#63b8ff" d="M89.88,-190.84C130.67,-190.84 190.68,-190.84 229.49,-190.84"/>
<polygon fill="#63b8ff" stroke="#63b8ff" points="229.3,-194.34 239.3,-190.84 229.3,-187.34 229.3,-194.34"/>
</a>
</g>
</g>
<!-- Node2&#45;&gt;Node3 -->
<g id="edge2_Node000002_Node000003" class="edge">
<title>Node2&#45;&gt;Node3</title>
<g id="a_edge2_Node000002_Node000003"><a xlink:title=" ">
<path fill="none" stroke="#63b8ff" d="M205.57,-179.19C213.51,-180.68 221.84,-182.24 229.73,-183.72"/>
<polygon fill="#63b8ff" stroke="#63b8ff" points="228.93,-187.13 239.4,-185.53 230.22,-180.25 228.93,-187.13"/>
</a>
</g>
</g>
<!-- Node4 -->
<g id="Node000004" class="node">
<title>Node4</title>
<g id="a_Node000004"><a xlink:href="../../df/d0a/str-l_8h.html#a381cd831ac9616c5bea8213bb679d1ac" target="_top" xlink:title="Wipe a lstr_t (frees memory if needed).">
<polygon fill="white" stroke="#666666" points="406,-116.47 332.25,-116.47 332.25,-97.22 406,-97.22 406,-116.47"/>
<text text-anchor="middle" x="369.12" y="-102.97" font-family="Helvetica,sans-Serif" font-size="10.00">mp_lstr_wipe</text>
</a>
</g>
</g>
<!-- Node3&#45;&gt;Node4 -->
<g id="edge3_Node000003_Node000004" class="edge">
<title>Node3&#45;&gt;Node4</title>
<g id="a_edge3_Node000003_Node000004"><a xlink:title=" ">
<path fill="none" stroke="#63b8ff" d="M281.42,-180.88C297.77,-166.92 327.72,-141.35 347.78,-124.22"/>
<polygon fill="#63b8ff" stroke="#63b8ff" points="349.99,-126.93 355.32,-117.78 345.44,-121.61 349.99,-126.93"/>
</a>
</g>
</g>
<!-- Node5 -->
<g id="Node000005" class="node">
<title>Node5</title>
<g id="a_Node000005"><a xlink:href="../../de/d04/str-l_8c.html#abe2a3a71f0b4dbc7d37c59d16762b6fb" target="_top" xlink:title="lstr_copy_* helper.">
<polygon fill="white" stroke="#666666" points="521,-88.47 442,-88.47 442,-69.22 521,-69.22 521,-88.47"/>
<text text-anchor="middle" x="481.5" y="-74.97" font-family="Helvetica,sans-Serif" font-size="10.00">mp_lstr_copy_</text>
</a>
</g>
</g>
<!-- Node4&#45;&gt;Node5 -->
<g id="edge4_Node000004_Node000005" class="edge">
<title>Node4&#45;&gt;Node5</title>
<g id="a_edge4_Node000004_Node000005"><a xlink:title=" ">
<path fill="none" stroke="#63b8ff" d="M406.27,-97.67C414.05,-95.7 422.4,-93.58 430.6,-91.5"/>
<polygon fill="#63b8ff" stroke="#63b8ff" points="431.32,-94.93 440.15,-89.08 429.59,-88.15 431.32,-94.93"/>
</a>
</g>
</g>
<!-- Node6 -->
<g id="Node000006" class="node">
<title>Node6</title>
<g id="a_Node000006"><a xlink:href="../../d9/d9a/mem_8h.html#aebbbd277e2952bdb802104671ba23ba9" target="_top" xlink:title=" ">
<polygon fill="white" stroke="#666666" points="591.75,-88.47 557,-88.47 557,-69.22 591.75,-69.22 591.75,-88.47"/>
<text text-anchor="middle" x="574.38" y="-74.97" font-family="Helvetica,sans-Serif" font-size="10.00">ifree</text>
</a>
</g>
</g>
<!-- Node5&#45;&gt;Node6 -->
<g id="edge5_Node000005_Node000006" class="edge">
<title>Node5&#45;&gt;Node6</title>
<g id="a_edge5_Node000005_Node000006"><a xlink:title=" ">
<path fill="none" stroke="#63b8ff" d="M521.3,-78.84C529.31,-78.84 537.6,-78.84 545.15,-78.84"/>
<polygon fill="#63b8ff" stroke="#63b8ff" points="545.09,-82.34 555.09,-78.84 545.09,-75.34 545.09,-82.34"/>
</a>
</g>
</g>
<!-- Node16 -->
<g id="Node000016" class="node">
<title>Node16</title>
<g id="a_Node000016"><a xlink:href="../../df/d0a/str-l_8h.html#a3b4dbe9c4cc70340cba0787574dc1c5e" target="_top" xlink:title=" ">
<polygon fill="white" stroke="#666666" points="1406.5,-67.47 1353.75,-67.47 1353.75,-48.22 1406.5,-48.22 1406.5,-67.47"/>
<text text-anchor="middle" x="1380.12" y="-53.97" font-family="Helvetica,sans-Serif" font-size="10.00">lstr_init_</text>
</a>
</g>
</g>
<!-- Node5&#45;&gt;Node16 -->
<g id="edge30_Node000005_Node000016" class="edge">
<title>Node5&#45;&gt;Node16</title>
<g id="a_edge30_Node000005_Node000016"><a xlink:title=" ">
<path fill="none" stroke="#63b8ff" d="M494.93,-68.78C522,-47.9 589.03,-1.84 653.5,-1.84 653.5,-1.84 653.5,-1.84 1131.25,-1.84 1214.57,-1.84 1238.71,5.53 1317.75,-20.84 1331.67,-25.48 1345.78,-33.7 1356.96,-41.21"/>
<polygon fill="#63b8ff" stroke="#63b8ff" points="1354.88,-44.03 1365.08,-46.92 1358.91,-38.3 1354.88,-44.03"/>
</a>
</g>
</g>
<!-- Node7 -->
<g id="Node000007" class="node">
<title>Node7</title>
<g id="a_Node000007"><a xlink:href="../../d8/d37/mem_8blk.html#a36b65ab346f1d0deed7b63c544c78f2b" target="_top" xlink:title=" ">
<polygon fill="white" stroke="#666666" points="672.62,-107.47 636.38,-107.47 636.38,-88.22 672.62,-88.22 672.62,-107.47"/>
<text text-anchor="middle" x="654.5" y="-93.97" font-family="Helvetica,sans-Serif" font-size="10.00">ipool</text>
</a>
</g>
</g>
<!-- Node6&#45;&gt;Node7 -->
<g id="edge6_Node000006_Node000007" class="edge">
<title>Node6&#45;&gt;Node7</title>
<g id="a_edge6_Node000006_Node000007"><a xlink:title=" ">
<path fill="none" stroke="#63b8ff" d="M591.94,-82.87C601.58,-85.22 614,-88.24 625.15,-90.95"/>
<polygon fill="#63b8ff" stroke="#63b8ff" points="624.13,-94.3 634.67,-93.26 625.78,-87.5 624.13,-94.3"/>
</a>
</g>
</g>
<!-- Node26 -->
<g id="Node000026" class="node">
<title>Node26</title>
<g id="a_Node000026"><a xlink:href="../../d8/d37/mem_8blk.html#a83c7cf203e5eef9d1a8c6c43cde3e2e5" target="_top" xlink:title=" ">
<polygon fill="white" stroke="#666666" points="681.25,-70.47 627.75,-70.47 627.75,-51.22 681.25,-51.22 681.25,-70.47"/>
<text text-anchor="middle" x="654.5" y="-56.97" font-family="Helvetica,sans-Serif" font-size="10.00">mp_ifree</text>
</a>
</g>
</g>
<!-- Node6&#45;&gt;Node26 -->
<g id="edge29_Node000006_Node000026" class="edge">
<title>Node6&#45;&gt;Node26</title>
<g id="a_edge29_Node000006_Node000026"><a xlink:title=" ">
<path fill="none" stroke="#63b8ff" d="M591.94,-75.02C599.11,-73.37 607.8,-71.37 616.37,-69.4"/>
<polygon fill="#63b8ff" stroke="#63b8ff" points="616.99,-72.85 625.95,-67.19 615.42,-66.02 616.99,-72.85"/>
</a>
</g>
</g>
<!-- Node8 -->
<g id="Node000008" class="node">
<title>Node8</title>
<g id="a_Node000008"><a xlink:href="../../d7/df8/log_8c.html#abca342edf91a9b45f7a17ef564fa8a53" target="_top" xlink:title=" ">
<polygon fill="white" stroke="#666666" points="767,-125.47 717.25,-125.47 717.25,-106.22 767,-106.22 767,-125.47"/>
<text text-anchor="middle" x="742.12" y="-111.97" font-family="Helvetica,sans-Serif" font-size="10.00">e_panic</text>
</a>
</g>
</g>
<!-- Node7&#45;&gt;Node8 -->
<g id="edge7_Node000007_Node000008" class="edge">
<title>Node7&#45;&gt;Node8</title>
<g id="a_edge7_Node000007_Node000008"><a xlink:title=" ">
<path fill="none" stroke="#63b8ff" d="M672.83,-101.48C682.36,-103.49 694.53,-106.05 705.96,-108.45"/>
<polygon fill="#63b8ff" stroke="#63b8ff" points="705.02,-111.83 715.53,-110.46 706.46,-104.98 705.02,-111.83"/>
</a>
</g>
</g>
<!-- Node25 -->
<g id="Node000025" class="node">
<title>Node25</title>
<g id="a_Node000025"><a xlink:href="../../d1/d10/mem-stack_8h.html#a1d0e2a29f86dc033a02e50484b527fd0" target="_top" xlink:title=" ">
<polygon fill="white" stroke="#666666" points="763.25,-88.47 721,-88.47 721,-69.22 763.25,-69.22 763.25,-88.47"/>
<text text-anchor="middle" x="742.12" y="-74.97" font-family="Helvetica,sans-Serif" font-size="10.00">t_pool</text>
</a>
</g>
</g>
<!-- Node7&#45;&gt;Node25 -->
<g id="edge28_Node000007_Node000025" class="edge">
<title>Node7&#45;&gt;Node25</title>
<g id="a_edge28_Node000007_Node000025"><a xlink:title=" ">
<path fill="none" stroke="#63b8ff" d="M672.83,-94C683.38,-91.66 697.18,-88.59 709.61,-85.84"/>
<polygon fill="#63b8ff" stroke="#63b8ff" points="710.02,-89.33 719.03,-83.75 708.5,-82.5 710.02,-89.33"/>
</a>
</g>
</g>
<!-- Node9 -->
<g id="Node000009" class="node">
<title>Node9</title>
<g id="a_Node000009"><a xlink:href="../../d7/df8/log_8c.html#a4bc04f7baa1e064cb0b93c7b9f3a61a1" target="_top" xlink:title=" ">
<polygon fill="white" stroke="#666666" points="891,-125.47 803,-125.47 803,-106.22 891,-106.22 891,-125.47"/>
<text text-anchor="middle" x="847" y="-111.97" font-family="Helvetica,sans-Serif" font-size="10.00">__logger_refresh</text>
</a>
</g>
</g>
<!-- Node8&#45;&gt;Node9 -->
<g id="edge8_Node000008_Node000009" class="edge">
<title>Node8&#45;&gt;Node9</title>
<g id="a_edge8_Node000008_Node000009"><a xlink:title=" ">
<path fill="none" stroke="#63b8ff" d="M767.24,-115.84C774.51,-115.84 782.8,-115.84 791.22,-115.84"/>
<polygon fill="#63b8ff" stroke="#63b8ff" points="791.16,-119.34 801.16,-115.84 791.16,-112.34 791.16,-119.34"/>
</a>
</g>
</g>
<!-- Node20 -->
<g id="Node000020" class="node">
<title>Node20</title>
<g id="a_Node000020"><a xlink:href="../../d7/df8/log_8c.html#a900490b26df7698aac12f7f7e6517e81" target="_top" xlink:title=" ">
<polygon fill="white" stroke="#666666" points="879.75,-87.47 814.25,-87.47 814.25,-68.22 879.75,-68.22 879.75,-87.47"/>
<text text-anchor="middle" x="847" y="-73.97" font-family="Helvetica,sans-Serif" font-size="10.00">logger_vlog</text>
</a>
</g>
</g>
<!-- Node8&#45;&gt;Node20 -->
<g id="edge22_Node000008_Node000020" class="edge">
<title>Node8&#45;&gt;Node20</title>
<g id="a_edge22_Node000008_Node000020"><a xlink:title=" ">
<path fill="none" stroke="#63b8ff" d="M767.24,-106.93C779.43,-102.43 794.49,-96.87 808.17,-91.81"/>
<polygon fill="#63b8ff" stroke="#63b8ff" points="809.18,-95.17 817.35,-88.43 806.75,-88.61 809.18,-95.17"/>
</a>
</g>
</g>
<!-- Node24 -->
<g id="Node000024" class="node">
<title>Node24</title>
<g id="a_Node000024"><a xlink:href="../../d2/d4d/file_8h.html#a25419a391fdd4ad7954699c58cfeb3b9" target="_top" xlink:title=" ">
<polygon fill="white" stroke="#666666" points="872.62,-162.47 821.38,-162.47 821.38,-143.22 872.62,-143.22 872.62,-162.47"/>
<text text-anchor="middle" x="847" y="-148.97" font-family="Helvetica,sans-Serif" font-size="10.00">va_start</text>
</a>
</g>
</g>
<!-- Node8&#45;&gt;Node24 -->
<g id="edge27_Node000008_Node000024" class="edge">
<title>Node8&#45;&gt;Node24</title>
<g id="a_edge27_Node000008_Node000024"><a xlink:title=" ">
<path fill="none" stroke="#63b8ff" d="M767.24,-124.52C780.12,-129.15 796.2,-134.93 810.48,-140.07"/>
<polygon fill="#63b8ff" stroke="#63b8ff" points="808.94,-143.23 819.53,-143.32 811.31,-136.65 808.94,-143.23"/>
</a>
</g>
</g>
<!-- Node10 -->
<g id="Node000010" class="node">
<title>Node10</title>
<g id="a_Node000010"><a xlink:href="../../d7/df8/log_8c.html#a3dbd75fb614210f0b114cfd03c9c0a7b" target="_top" xlink:title=" ">
<polygon fill="white" stroke="#666666" points="1030.75,-199.47 927,-199.47 927,-180.22 1030.75,-180.22 1030.75,-199.47"/>
<text text-anchor="middle" x="978.88" y="-185.97" font-family="Helvetica,sans-Serif" font-size="10.00">__logger_do_refresh</text>
</a>
</g>
</g>
<!-- Node9&#45;&gt;Node10 -->
<g id="edge9_Node000009_Node000010" class="edge">
<title>Node9&#45;&gt;Node10</title>
<g id="a_edge9_Node000009_Node000010"><a xlink:title=" ">
<path fill="none" stroke="#63b8ff" d="M876.64,-125.85C881.62,-128.14 886.6,-130.81 891,-133.84 910.14,-147.06 907.49,-159.17 927,-171.84 928.62,-172.9 930.31,-173.9 932.05,-174.84"/>
<polygon fill="#63b8ff" stroke="#63b8ff" points="930.46,-177.97 941,-179.08 933.46,-171.64 930.46,-177.97"/>
</a>
</g>
</g>
<!-- Node18 -->
<g id="Node000018" class="node">
<title>Node18</title>
<g id="a_Node000018"><a xlink:href="../../d7/df8/log_8c.html#a7b1b02d1986e1247c2f571af4a2c2854" target="_top" xlink:title=" ">
<polygon fill="white" stroke="#666666" points="1016.5,-162.47 941.25,-162.47 941.25,-143.22 1016.5,-143.22 1016.5,-162.47"/>
<text text-anchor="middle" x="978.88" y="-148.97" font-family="Helvetica,sans-Serif" font-size="10.00">log_spin_lock</text>
</a>
</g>
</g>
<!-- Node9&#45;&gt;Node18 -->
<g id="edge20_Node000009_Node000018" class="edge">
<title>Node9&#45;&gt;Node18</title>
<g id="a_edge20_Node000009_Node000018"><a xlink:title=" ">
<path fill="none" stroke="#63b8ff" d="M883.49,-125.95C898.38,-130.19 915.89,-135.18 931.76,-139.7"/>
<polygon fill="#63b8ff" stroke="#63b8ff" points="930.4,-142.96 940.97,-142.33 932.32,-136.22 930.4,-142.96"/>
</a>
</g>
</g>
<!-- Node19 -->
<g id="Node000019" class="node">
<title>Node19</title>
<g id="a_Node000019"><a xlink:href="../../d1/dc0/group__log.html#ga045020bb4af234632f7761f220131c69" target="_top" xlink:title=" ">
<polygon fill="white" stroke="#666666" points="1021.75,-125.47 936,-125.47 936,-106.22 1021.75,-106.22 1021.75,-125.47"/>
<text text-anchor="middle" x="978.88" y="-111.97" font-family="Helvetica,sans-Serif" font-size="10.00">log_spin_unlock</text>
</a>
</g>
</g>
<!-- Node9&#45;&gt;Node19 -->
<g id="edge21_Node000009_Node000019" class="edge">
<title>Node9&#45;&gt;Node19</title>
<g id="a_edge21_Node000009_Node000019"><a xlink:title=" ">
<path fill="none" stroke="#63b8ff" d="M891.25,-115.84C901.87,-115.84 913.37,-115.84 924.41,-115.84"/>
<polygon fill="#63b8ff" stroke="#63b8ff" points="924.19,-119.34 934.19,-115.84 924.19,-112.34 924.19,-119.34"/>
</a>
</g>
</g>
<!-- Node10&#45;&gt;Node3 -->
<g id="edge19_Node000010_Node000003" class="edge">
<title>Node10&#45;&gt;Node3</title>
<g id="a_edge19_Node000010_Node000003"><a xlink:title=" ">
<path fill="none" stroke="#63b8ff" d="M926.59,-190.19C879.03,-190.48 806.3,-190.84 743.12,-190.84 480.5,-190.84 480.5,-190.84 480.5,-190.84 420.26,-190.84 350.34,-190.84 308.1,-190.84"/>
<polygon fill="#63b8ff" stroke="#63b8ff" points="308.21,-187.34 298.21,-190.84 308.21,-194.34 308.21,-187.34"/>
</a>
</g>
</g>
<!-- Node10&#45;&gt;Node10 -->
<g id="edge10_Node000010_Node000010" class="edge">
<title>Node10&#45;&gt;Node10</title>
<g id="a_edge10_Node000010_Node000010"><a xlink:title=" ">
<path fill="none" stroke="#63b8ff" d="M958.23,-199.76C948.81,-208.36 955.69,-217.47 978.88,-217.47 991.55,-217.47 999.35,-214.74 1002.28,-210.87"/>
<polygon fill="#63b8ff" stroke="#63b8ff" points="1005.69,-210.08 999.89,-201.22 998.9,-211.77 1005.69,-210.08"/>
</a>
</g>
</g>
<!-- Node11 -->
<g id="Node000011" class="node">
<title>Node11</title>
<g id="a_Node000011"><a xlink:href="../../de/d1a/container-dlist_8h.html#a3b6f65860b212e28f2e28e71eb54d54d" target="_top" xlink:title="Add element e at the head of list l (suited for LIFO).">
<polygon fill="white" stroke="#666666" points="1157.75,-199.47 1102.75,-199.47 1102.75,-180.22 1157.75,-180.22 1157.75,-199.47"/>
<text text-anchor="middle" x="1130.25" y="-185.97" font-family="Helvetica,sans-Serif" font-size="10.00">dlist_add</text>
</a>
</g>
</g>
<!-- Node10&#45;&gt;Node11 -->
<g id="edge11_Node000010_Node000011" class="edge">
<title>Node10&#45;&gt;Node11</title>
<g id="a_edge11_Node000010_Node000011"><a xlink:title=" ">
<path fill="none" stroke="#63b8ff" d="M1030.86,-189.84C1050.55,-189.84 1072.69,-189.84 1090.98,-189.84"/>
<polygon fill="#63b8ff" stroke="#63b8ff" points="1090.86,-193.34 1100.86,-189.84 1090.86,-186.34 1090.86,-193.34"/>
</a>
</g>
</g>
<!-- Node13 -->
<g id="Node000013" class="node">
<title>Node13</title>
<g id="a_Node000013"><a xlink:href="../../de/d1a/container-dlist_8h.html#a0a69e401f6ec15966c891e96ad864c77" target="_top" xlink:title="Put a dlist_t element in a safe and detached state.">
<polygon fill="white" stroke="#666666" points="1156.25,-125.47 1104.25,-125.47 1104.25,-106.22 1156.25,-106.22 1156.25,-125.47"/>
<text text-anchor="middle" x="1130.25" y="-111.97" font-family="Helvetica,sans-Serif" font-size="10.00">dlist_init</text>
</a>
</g>
</g>
<!-- Node10&#45;&gt;Node13 -->
<g id="edge13_Node000010_Node000013" class="edge">
<title>Node10&#45;&gt;Node13</title>
<g id="a_edge13_Node000010_Node000013"><a xlink:title=" ">
<path fill="none" stroke="#63b8ff" d="M1015.39,-179.73C1020.74,-177.52 1026.04,-174.91 1030.75,-171.84 1050.26,-159.17 1046.87,-145.93 1066.75,-133.84 1074.69,-129.02 1083.98,-125.43 1092.93,-122.79"/>
<polygon fill="#63b8ff" stroke="#63b8ff" points="1093.7,-126.21 1102.5,-120.31 1091.94,-119.43 1093.7,-126.21"/>
</a>
</g>
</g>
<!-- Node14 -->
<g id="Node000014" class="node">
<title>Node14</title>
<g id="a_Node000014"><a xlink:href="../../d7/df8/log_8c.html#a4c8fbe8648573312126ce341cf34cba1" target="_top" xlink:title=" ">
<polygon fill="white" stroke="#666666" points="1193.75,-236.47 1066.75,-236.47 1066.75,-217.22 1193.75,-217.22 1193.75,-236.47"/>
<text text-anchor="middle" x="1130.25" y="-222.97" font-family="Helvetica,sans-Serif" font-size="10.00">logger_compute_fullname</text>
</a>
</g>
</g>
<!-- Node10&#45;&gt;Node14 -->
<g id="edge14_Node000010_Node000014" class="edge">
<title>Node10&#45;&gt;Node14</title>
<g id="a_edge14_Node000010_Node000014"><a xlink:title=" ">
<path fill="none" stroke="#63b8ff" d="M1020.69,-199.95C1038.23,-204.3 1058.93,-209.42 1077.52,-214.03"/>
<polygon fill="#63b8ff" stroke="#63b8ff" points="1076.46,-217.37 1087.01,-216.38 1078.15,-210.58 1076.46,-217.37"/>
</a>
</g>
</g>
<!-- Node17 -->
<g id="Node000017" class="node">
<title>Node17</title>
<g id="a_Node000017"><a xlink:href="../../df/d0a/str-l_8h.html#a963c22b229774d4b7c106bae4011cb8e" target="_top" xlink:title="Returns whether \v s1 and \v s2 contents are equal.">
<polygon fill="white" stroke="#666666" points="1159.25,-162.47 1101.25,-162.47 1101.25,-143.22 1159.25,-143.22 1159.25,-162.47"/>
<text text-anchor="middle" x="1130.25" y="-148.97" font-family="Helvetica,sans-Serif" font-size="10.00">lstr_equal</text>
</a>
</g>
</g>
<!-- Node10&#45;&gt;Node17 -->
<g id="edge18_Node000010_Node000017" class="edge">
<title>Node10&#45;&gt;Node17</title>
<g id="a_edge18_Node000010_Node000017"><a xlink:title=" ">
<path fill="none" stroke="#63b8ff" d="M1020.69,-179.73C1042.22,-174.4 1068.51,-167.89 1089.83,-162.61"/>
<polygon fill="#63b8ff" stroke="#63b8ff" points="1090.45,-166.06 1099.31,-160.26 1088.76,-159.27 1090.45,-166.06"/>
</a>
</g>
</g>
<!-- Node12 -->
<g id="Node000012" class="node">
<title>Node12</title>
<g id="a_Node000012"><a xlink:href="../../de/d1a/container-dlist_8h.html#a71e7667ca0e4b896923788c5851afd24" target="_top" xlink:title="Put element e between prev and next.">
<polygon fill="white" stroke="#666666" points="1306.5,-142.47 1241,-142.47 1241,-123.22 1306.5,-123.22 1306.5,-142.47"/>
<text text-anchor="middle" x="1273.75" y="-128.97" font-family="Helvetica,sans-Serif" font-size="10.00">__dlist_add</text>
</a>
</g>
</g>
<!-- Node11&#45;&gt;Node12 -->
<g id="edge12_Node000011_Node000012" class="edge">
<title>Node11&#45;&gt;Node12</title>
<g id="a_edge12_Node000011_Node000012"><a xlink:title=" ">
<path fill="none" stroke="#63b8ff" d="M1158.21,-183.64C1169.42,-180.66 1182.43,-176.68 1193.75,-171.84 1210.78,-164.56 1213.17,-159.1 1229.75,-150.84 1231.99,-149.73 1234.31,-148.62 1236.66,-147.53"/>
<polygon fill="#63b8ff" stroke="#63b8ff" points="1237.91,-150.81 1245.65,-143.57 1235.09,-144.4 1237.91,-150.81"/>
</a>
</g>
</g>
<!-- Node14&#45;&gt;Node3 -->
<g id="edge17_Node000014_Node000003" class="edge">
<title>Node14&#45;&gt;Node3</title>
<g id="a_edge17_Node000014_Node000003"><a xlink:title=" ">
<path fill="none" stroke="#63b8ff" d="M1066.5,-233.51C1009.56,-238.99 923.24,-245.84 848,-245.84 480.5,-245.84 480.5,-245.84 480.5,-245.84 416.07,-245.84 344.05,-221.48 303.08,-205.18"/>
<polygon fill="#63b8ff" stroke="#63b8ff" points="304.61,-202.03 294.03,-201.5 301.97,-208.51 304.61,-202.03"/>
</a>
</g>
</g>
<!-- Node15 -->
<g id="Node000015" class="node">
<title>Node15</title>
<g id="a_Node000015"><a xlink:href="../../df/d0a/str-l_8h.html#a6a200ca09358f19b13a8e297cda34869" target="_top" xlink:title="returns a constant copy of \v s.">
<polygon fill="white" stroke="#666666" points="1301.62,-179.47 1245.88,-179.47 1245.88,-160.22 1301.62,-160.22 1301.62,-179.47"/>
<text text-anchor="middle" x="1273.75" y="-165.97" font-family="Helvetica,sans-Serif" font-size="10.00">lstr_dupc</text>
</a>
</g>
</g>
<!-- Node14&#45;&gt;Node15 -->
<g id="edge15_Node000014_Node000015" class="edge">
<title>Node14&#45;&gt;Node15</title>
<g id="a_edge15_Node000014_Node000015"><a xlink:title=" ">
<path fill="none" stroke="#63b8ff" d="M1170.28,-216.76C1178.14,-214.41 1186.27,-211.74 1193.75,-208.84 1211.08,-202.13 1229.76,-193 1244.6,-185.27"/>
<polygon fill="#63b8ff" stroke="#63b8ff" points="1246.12,-188.42 1253.31,-180.64 1242.84,-182.24 1246.12,-188.42"/>
</a>
</g>
</g>
<!-- Node15&#45;&gt;Node16 -->
<g id="edge16_Node000015_Node000016" class="edge">
<title>Node15&#45;&gt;Node16</title>
<g id="a_edge16_Node000015_Node000016"><a xlink:title=" ">
<path fill="none" stroke="#63b8ff" d="M1302.07,-161.3C1307.61,-158.8 1313.15,-155.67 1317.75,-151.84 1342.14,-131.53 1360.33,-99.03 1370.35,-78.06"/>
<polygon fill="#63b8ff" stroke="#63b8ff" points="1373.46,-79.67 1374.43,-69.12 1367.09,-76.76 1373.46,-79.67"/>
</a>
</g>
</g>
<!-- Node20&#45;&gt;Node15 -->
<g id="edge26_Node000020_Node000015" class="edge">
<title>Node20&#45;&gt;Node15</title>
<g id="a_edge26_Node000020_Node000015"><a xlink:title=" ">
<path fill="none" stroke="#63b8ff" d="M880.08,-76C955.37,-72.25 1141.02,-66.44 1193.75,-96.84 1219.06,-111.44 1207.29,-133.16 1229.75,-151.84 1231.62,-153.4 1233.64,-154.84 1235.76,-156.16"/>
<polygon fill="#63b8ff" stroke="#63b8ff" points="1233.62,-158.99 1244.1,-160.58 1236.9,-152.81 1233.62,-158.99"/>
</a>
</g>
</g>
<!-- Node21 -->
<g id="Node000021" class="node">
<title>Node21</title>
<g id="a_Node000021"><a xlink:href="../../d1/dc0/group__log.html#ga168a6f17b248f61f7d25a17d58d04e36" target="_top" xlink:title=" ">
<polygon fill="white" stroke="#666666" points="1023.25,-49.47 934.5,-49.47 934.5,-30.22 1023.25,-30.22 1023.25,-49.47"/>
<text text-anchor="middle" x="978.88" y="-35.97" font-family="Helvetica,sans-Serif" font-size="10.00">logger_has_level</text>
</a>
</g>
</g>
<!-- Node20&#45;&gt;Node21 -->
<g id="edge23_Node000020_Node000021" class="edge">
<title>Node20&#45;&gt;Node21</title>
<g id="a_edge23_Node000020_Node000021"><a xlink:title=" ">
<path fill="none" stroke="#63b8ff" d="M880.1,-68.45C895.88,-63.83 915.16,-58.19 932.42,-53.14"/>
<polygon fill="#63b8ff" stroke="#63b8ff" points="933.34,-56.52 941.96,-50.35 931.38,-49.8 933.34,-56.52"/>
</a>
</g>
</g>
<!-- Node22 -->
<g id="Node000022" class="node">
<title>Node22</title>
<g id="a_Node000022"><a xlink:href="../../d1/dc0/group__log.html#gaf388752b988541da0abeceecdf96e6b3" target="_top" xlink:title=" ">
<polygon fill="white" stroke="#666666" points="1173.5,-49.47 1087,-49.47 1087,-30.22 1173.5,-30.22 1173.5,-49.47"/>
<text text-anchor="middle" x="1130.25" y="-35.97" font-family="Helvetica,sans-Serif" font-size="10.00">logger_get_level</text>
</a>
</g>
</g>
<!-- Node21&#45;&gt;Node22 -->
<g id="edge24_Node000021_Node000022" class="edge">
<title>Node21&#45;&gt;Node22</title>
<g id="a_edge24_Node000021_Node000022"><a xlink:title=" ">
<path fill="none" stroke="#63b8ff" d="M1023.48,-39.84C1039.64,-39.84 1058.17,-39.84 1075.15,-39.84"/>
<polygon fill="#63b8ff" stroke="#63b8ff" points="1075.11,-43.34 1085.11,-39.84 1075.11,-36.34 1075.11,-43.34"/>
</a>
</g>
</g>
<!-- Node23 -->
<g id="Node000023" class="node">
<title>Node23</title>
<g id="a_Node000023"><a xlink:href="../../d1/dc0/group__log.html#ga93cbd623096e1704532d15b3eb30e42f" target="_top" xlink:title=" ">
<polygon fill="white" stroke="#666666" points="1317.75,-49.47 1229.75,-49.47 1229.75,-30.22 1317.75,-30.22 1317.75,-49.47"/>
<text text-anchor="middle" x="1273.75" y="-35.97" font-family="Helvetica,sans-Serif" font-size="10.00">__logger_refresh</text>
</a>
</g>
</g>
<!-- Node22&#45;&gt;Node23 -->
<g id="edge25_Node000022_Node000023" class="edge">
<title>Node22&#45;&gt;Node23</title>
<g id="a_edge25_Node000022_Node000023"><a xlink:title=" ">
<path fill="none" stroke="#63b8ff" d="M1173.7,-39.84C1187.58,-39.84 1203.19,-39.84 1217.85,-39.84"/>
<polygon fill="#63b8ff" stroke="#63b8ff" points="1217.83,-43.34 1227.83,-39.84 1217.83,-36.34 1217.83,-43.34"/>
</a>
</g>
</g>
</g>
</svg>

<g id="navigator" transform="translate(0 0)" fill="#404254">
  <rect fill="#f2f5e9" fill-opacity="0.5" stroke="#606060" stroke-width=".5" x="0" y="0" width="60" height="60"/>
  <use id="zoomplus" xlink:href="#zoomPlus" x="17" y="9" onmousedown="handleZoom(evt,'in')"/>
  <use id="zoomminus" xlink:href="#zoomMin" x="42" y="9" onmousedown="handleZoom(evt,'out')"/>
  <use id="reset" xlink:href="#resetDef" x="30" y="36" onmousedown="handleReset()"/>
   <use id="arrowup" xlink:href="#arrowUp" x="0" y="0" onmousedown="handlePan(0,-1)"/>
  <use id="arrowright" xlink:href="#arrowRight" x="0" y="0" onmousedown="handlePan(1,0)"/>
  <use id="arrowdown" xlink:href="#arrowDown" x="0" y="0" onmousedown="handlePan(0,1)"/>
  <use id="arrowleft" xlink:href="#arrowLeft" x="0" y="0" onmousedown="handlePan(-1,0)"/>
</g>
<svg viewBox="0 0 15 15" width="100%" height="30px" preserveAspectRatio="xMaxYMin meet">
 <g id="arrow_out" transform="scale(0.3 0.3)">
  <a xlink:href="iopc_8h_a183ee9cc697c03091647f08af50eb9f9_cgraph_org.svg" target="_base">
   <rect id="button" ry="5" rx="5" y="6" x="6" height="38" width="38"
        fill="#f2f5e9" fill-opacity="0.5" stroke="#606060" stroke-width="1.0"/>
   <path id="arrow"
     d="M 11.500037,31.436501 C 11.940474,20.09759 22.043105,11.32322 32.158766,21.979434 L 37.068811,17.246167 C 37.068811,17.246167 37.088388,32 37.088388,32 L 22.160133,31.978069 C 22.160133,31.978069 26.997745,27.140456 26.997745,27.140456 C 18.528582,18.264221 13.291696,25.230495 11.500037,31.436501 z"
     style="fill:#404040;"/>
  </a>
 </g>
</svg>

<style type='text/css'>
<![CDATA[
[data-mouse-over-selected='false'] { opacity: 0.7; }
[data-mouse-over-selected='true']  { opacity: 1.0; }
]]>
</style>
<script type="application/ecmascript"><![CDATA[
document.addEventListener('DOMContentLoaded', (event) => {
  highlightEdges();
  highlightAdjacentNodes();
});
]]></script>
</svg>
