<?xml version="1.0" encoding="UTF-8" standalone="no"?>
<!DOCTYPE svg PUBLIC "-//W3C//DTD SVG 1.1//EN"
 "http://www.w3.org/Graphics/SVG/1.1/DTD/svg11.dtd">
<!-- Generated by graphviz version 9.0.0 (20230911.1827)
 -->
<!-- Title: iopc_attr_desc_wipe Pages: 1 -->
<!--zoomable 254 -->

<svg id="main" version="1.1" xmlns="http://www.w3.org/2000/svg" xmlns:xlink="http://www.w3.org/1999/xlink" xml:space="preserve" onload="init(evt)">
<style type="text/css"><![CDATA[
.node, .edge {opacity: 0.7;}
.node.selected, .edge.selected {opacity: 1;}
.edge:hover path { stroke: red; }
.edge:hover polygon { stroke: red; fill: red; }
]]></style>

<defs>
  <circle id="rim" cx="0" cy="0" r="7"/>
  <circle id="rim2" cx="0" cy="0" r="3.5"/>
  <g id="zoomPlus">
    <use xlink:href="#rim" fill="#404040"><set attributeName="fill" to="#808080" begin="zoomplus.mouseover" end="zoomplus.mouseout"/></use>
    <path d="M-4,0h8M0,-4v8" fill="none" stroke="white" stroke-width="1.5" pointer-events="none"/>
  </g>
  <g id="zoomMin">
    <use xlink:href="#rim" fill="#404040"><set attributeName="fill" to="#808080" begin="zoomminus.mouseover" end="zoomminus.mouseout"/></use>
    <path d="M-4,0h8" fill="none" stroke="white" stroke-width="1.5" pointer-events="none"/>
  </g>
  <g id="arrowUp" transform="translate(30 24)">
    <use xlink:href="#rim"/>
    <path pointer-events="none" fill="none" stroke="white" stroke-width="1.5" d="M0,-3.0v7 M-2.5,-0.5L0,-3.0L2.5,-0.5"/>
  </g>
  <g id="arrowRight" transform="rotate(90) translate(36 -43)">
    <use xlink:href="#rim"/>
    <path pointer-events="none" fill="none" stroke="white" stroke-width="1.5" d="M0,-3.0v7 M-2.5,-0.5L0,-3.0L2.5,-0.5"/>
  </g>
  <g id="arrowDown" transform="rotate(180) translate(-30 -48)">
    <use xlink:href="#rim"/>
    <path pointer-events="none" fill="none" stroke="white" stroke-width="1.5" d="M0,-3.0v7 M-2.5,-0.5L0,-3.0L2.5,-0.5"/>
  </g>
  <g id="arrowLeft" transform="rotate(270) translate(-36 17)">
    <use xlink:href="#rim"/>
    <path pointer-events="none" fill="none" stroke="white" stroke-width="1.5" d="M0,-3.0v7 M-2.5,-0.5L0,-3.0L2.5,-0.5"/>
  </g>
  <g id="resetDef">
    <use xlink:href="#rim2" fill="#404040"><set attributeName="fill" to="#808080" begin="reset.mouseover" end="reset.mouseout"/></use>
  </g>
</defs>
<script type="application/ecmascript">
var viewWidth = 1455;
var viewHeight = 254;
var sectionId = 'dynsection-20';
</script>
<script type="application/ecmascript" xlink:href="../../svg.min.js"/>
<svg id="graph" class="graph">
<g id="viewport">
<title>iopc_attr_desc_wipe</title>
<!-- Node1 -->
<g id="Node000001" class="node">
<title>Node1</title>
<g id="a_Node000001"><a xlink:title=" ">
<polygon fill="#999999" stroke="#666666" points="105.25,-200.47 0,-200.47 0,-181.22 105.25,-181.22 105.25,-200.47"/>
<text text-anchor="middle" x="52.62" y="-186.97" font-family="Helvetica,sans-Serif" font-size="10.00">iopc_attr_desc_wipe</text>
</a>
</g>
</g>
<!-- Node2 -->
<g id="Node000002" class="node">
<title>Node2</title>
<g id="a_Node000002"><a xlink:href="../../d0/dc5/iopc_8h.html#a09ad205efa527ec3b74490eb7560bfe5" target="_top" xlink:title=" ">
<polygon fill="white" stroke="#666666" points="245.75,-181.47 141.25,-181.47 141.25,-162.22 245.75,-162.22 245.75,-181.47"/>
<text text-anchor="middle" x="193.5" y="-167.97" font-family="Helvetica,sans-Serif" font-size="10.00">iopc_arg_desc_wipe</text>
</a>
</g>
</g>
<!-- Node1&#45;&gt;Node2 -->
<g id="edge1_Node000001_Node000002" class="edge">
<title>Node1&#45;&gt;Node2</title>
<g id="a_edge1_Node000001_Node000002"><a xlink:title=" ">
<path fill="none" stroke="#63b8ff" d="M105.73,-183.71C113.58,-182.64 121.74,-181.52 129.78,-180.42"/>
<polygon fill="#63b8ff" stroke="#63b8ff" points="130.09,-183.91 139.52,-179.09 129.14,-176.98 130.09,-183.91"/>
</a>
</g>
</g>
<!-- Node3 -->
<g id="Node000003" class="node">
<title>Node3</title>
<g id="a_Node000003"><a xlink:href="../../df/d0a/str-l_8h.html#ad74dae07179370f3c22e3f026157926e" target="_top" xlink:title="wipe a lstr_t (frees memory if needed).">
<polygon fill="white" stroke="#666666" points="336.75,-200.47 281.75,-200.47 281.75,-181.22 336.75,-181.22 336.75,-200.47"/>
<text text-anchor="middle" x="309.25" y="-186.97" font-family="Helvetica,sans-Serif" font-size="10.00">lstr_wipe</text>
</a>
</g>
</g>
<!-- Node1&#45;&gt;Node3 -->
<g id="edge31_Node000001_Node000003" class="edge">
<title>Node1&#45;&gt;Node3</title>
<g id="a_edge31_Node000001_Node000003"><a xlink:title=" ">
<path fill="none" stroke="#63b8ff" d="M105.46,-190.84C154.34,-190.84 226.46,-190.84 270.23,-190.84"/>
<polygon fill="#63b8ff" stroke="#63b8ff" points="270,-194.34 280,-190.84 270,-187.34 270,-194.34"/>
</a>
</g>
</g>
<!-- Node2&#45;&gt;Node3 -->
<g id="edge2_Node000002_Node000003" class="edge">
<title>Node2&#45;&gt;Node3</title>
<g id="a_edge2_Node000002_Node000003"><a xlink:title=" ">
<path fill="none" stroke="#63b8ff" d="M246.05,-180.45C254.17,-181.81 262.43,-183.19 270.18,-184.48"/>
<polygon fill="#63b8ff" stroke="#63b8ff" points="269.5,-187.92 279.94,-186.11 270.66,-181.01 269.5,-187.92"/>
</a>
</g>
</g>
<!-- Node4 -->
<g id="Node000004" class="node">
<title>Node4</title>
<g id="a_Node000004"><a xlink:href="../../df/d0a/str-l_8h.html#a381cd831ac9616c5bea8213bb679d1ac" target="_top" xlink:title="Wipe a lstr_t (frees memory if needed).">
<polygon fill="white" stroke="#666666" points="446.5,-116.47 372.75,-116.47 372.75,-97.22 446.5,-97.22 446.5,-116.47"/>
<text text-anchor="middle" x="409.62" y="-102.97" font-family="Helvetica,sans-Serif" font-size="10.00">mp_lstr_wipe</text>
</a>
</g>
</g>
<!-- Node3&#45;&gt;Node4 -->
<g id="edge3_Node000003_Node000004" class="edge">
<title>Node3&#45;&gt;Node4</title>
<g id="a_edge3_Node000003_Node000004"><a xlink:title=" ">
<path fill="none" stroke="#63b8ff" d="M321.92,-180.88C338.27,-166.92 368.22,-141.35 388.28,-124.22"/>
<polygon fill="#63b8ff" stroke="#63b8ff" points="390.49,-126.93 395.82,-117.78 385.94,-121.61 390.49,-126.93"/>
</a>
</g>
</g>
<!-- Node5 -->
<g id="Node000005" class="node">
<title>Node5</title>
<g id="a_Node000005"><a xlink:href="../../de/d04/str-l_8c.html#abe2a3a71f0b4dbc7d37c59d16762b6fb" target="_top" xlink:title="lstr_copy_* helper.">
<polygon fill="white" stroke="#666666" points="561.5,-88.47 482.5,-88.47 482.5,-69.22 561.5,-69.22 561.5,-88.47"/>
<text text-anchor="middle" x="522" y="-74.97" font-family="Helvetica,sans-Serif" font-size="10.00">mp_lstr_copy_</text>
</a>
</g>
</g>
<!-- Node4&#45;&gt;Node5 -->
<g id="edge4_Node000004_Node000005" class="edge">
<title>Node4&#45;&gt;Node5</title>
<g id="a_edge4_Node000004_Node000005"><a xlink:title=" ">
<path fill="none" stroke="#63b8ff" d="M446.77,-97.67C454.55,-95.7 462.9,-93.58 471.1,-91.5"/>
<polygon fill="#63b8ff" stroke="#63b8ff" points="471.82,-94.93 480.65,-89.08 470.09,-88.15 471.82,-94.93"/>
</a>
</g>
</g>
<!-- Node6 -->
<g id="Node000006" class="node">
<title>Node6</title>
<g id="a_Node000006"><a xlink:href="../../d9/d9a/mem_8h.html#aebbbd277e2952bdb802104671ba23ba9" target="_top" xlink:title=" ">
<polygon fill="white" stroke="#666666" points="632.25,-88.47 597.5,-88.47 597.5,-69.22 632.25,-69.22 632.25,-88.47"/>
<text text-anchor="middle" x="614.88" y="-74.97" font-family="Helvetica,sans-Serif" font-size="10.00">ifree</text>
</a>
</g>
</g>
<!-- Node5&#45;&gt;Node6 -->
<g id="edge5_Node000005_Node000006" class="edge">
<title>Node5&#45;&gt;Node6</title>
<g id="a_edge5_Node000005_Node000006"><a xlink:title=" ">
<path fill="none" stroke="#63b8ff" d="M561.8,-78.84C569.81,-78.84 578.1,-78.84 585.65,-78.84"/>
<polygon fill="#63b8ff" stroke="#63b8ff" points="585.59,-82.34 595.59,-78.84 585.59,-75.34 585.59,-82.34"/>
</a>
</g>
</g>
<!-- Node16 -->
<g id="Node000016" class="node">
<title>Node16</title>
<g id="a_Node000016"><a xlink:href="../../df/d0a/str-l_8h.html#a3b4dbe9c4cc70340cba0787574dc1c5e" target="_top" xlink:title=" ">
<polygon fill="white" stroke="#666666" points="1447,-67.47 1394.25,-67.47 1394.25,-48.22 1447,-48.22 1447,-67.47"/>
<text text-anchor="middle" x="1420.62" y="-53.97" font-family="Helvetica,sans-Serif" font-size="10.00">lstr_init_</text>
</a>
</g>
</g>
<!-- Node5&#45;&gt;Node16 -->
<g id="edge30_Node000005_Node000016" class="edge">
<title>Node5&#45;&gt;Node16</title>
<g id="a_edge30_Node000005_Node000016"><a xlink:title=" ">
<path fill="none" stroke="#63b8ff" d="M535.43,-68.78C562.5,-47.9 629.53,-1.84 694,-1.84 694,-1.84 694,-1.84 1171.75,-1.84 1255.07,-1.84 1279.21,5.53 1358.25,-20.84 1372.17,-25.48 1386.28,-33.7 1397.46,-41.21"/>
<polygon fill="#63b8ff" stroke="#63b8ff" points="1395.38,-44.03 1405.58,-46.92 1399.41,-38.3 1395.38,-44.03"/>
</a>
</g>
</g>
<!-- Node7 -->
<g id="Node000007" class="node">
<title>Node7</title>
<g id="a_Node000007"><a xlink:href="../../d8/d37/mem_8blk.html#a36b65ab346f1d0deed7b63c544c78f2b" target="_top" xlink:title=" ">
<polygon fill="white" stroke="#666666" points="713.12,-107.47 676.88,-107.47 676.88,-88.22 713.12,-88.22 713.12,-107.47"/>
<text text-anchor="middle" x="695" y="-93.97" font-family="Helvetica,sans-Serif" font-size="10.00">ipool</text>
</a>
</g>
</g>
<!-- Node6&#45;&gt;Node7 -->
<g id="edge6_Node000006_Node000007" class="edge">
<title>Node6&#45;&gt;Node7</title>
<g id="a_edge6_Node000006_Node000007"><a xlink:title=" ">
<path fill="none" stroke="#63b8ff" d="M632.44,-82.87C642.08,-85.22 654.5,-88.24 665.65,-90.95"/>
<polygon fill="#63b8ff" stroke="#63b8ff" points="664.63,-94.3 675.17,-93.26 666.28,-87.5 664.63,-94.3"/>
</a>
</g>
</g>
<!-- Node26 -->
<g id="Node000026" class="node">
<title>Node26</title>
<g id="a_Node000026"><a xlink:href="../../d8/d37/mem_8blk.html#a83c7cf203e5eef9d1a8c6c43cde3e2e5" target="_top" xlink:title=" ">
<polygon fill="white" stroke="#666666" points="721.75,-70.47 668.25,-70.47 668.25,-51.22 721.75,-51.22 721.75,-70.47"/>
<text text-anchor="middle" x="695" y="-56.97" font-family="Helvetica,sans-Serif" font-size="10.00">mp_ifree</text>
</a>
</g>
</g>
<!-- Node6&#45;&gt;Node26 -->
<g id="edge29_Node000006_Node000026" class="edge">
<title>Node6&#45;&gt;Node26</title>
<g id="a_edge29_Node000006_Node000026"><a xlink:title=" ">
<path fill="none" stroke="#63b8ff" d="M632.44,-75.02C639.61,-73.37 648.3,-71.37 656.87,-69.4"/>
<polygon fill="#63b8ff" stroke="#63b8ff" points="657.49,-72.85 666.45,-67.19 655.92,-66.02 657.49,-72.85"/>
</a>
</g>
</g>
<!-- Node8 -->
<g id="Node000008" class="node">
<title>Node8</title>
<g id="a_Node000008"><a xlink:href="../../d7/df8/log_8c.html#abca342edf91a9b45f7a17ef564fa8a53" target="_top" xlink:title=" ">
<polygon fill="white" stroke="#666666" points="807.5,-125.47 757.75,-125.47 757.75,-106.22 807.5,-106.22 807.5,-125.47"/>
<text text-anchor="middle" x="782.62" y="-111.97" font-family="Helvetica,sans-Serif" font-size="10.00">e_panic</text>
</a>
</g>
</g>
<!-- Node7&#45;&gt;Node8 -->
<g id="edge7_Node000007_Node000008" class="edge">
<title>Node7&#45;&gt;Node8</title>
<g id="a_edge7_Node000007_Node000008"><a xlink:title=" ">
<path fill="none" stroke="#63b8ff" d="M713.33,-101.48C722.86,-103.49 735.03,-106.05 746.46,-108.45"/>
<polygon fill="#63b8ff" stroke="#63b8ff" points="745.52,-111.83 756.03,-110.46 746.96,-104.98 745.52,-111.83"/>
</a>
</g>
</g>
<!-- Node25 -->
<g id="Node000025" class="node">
<title>Node25</title>
<g id="a_Node000025"><a xlink:href="../../d1/d10/mem-stack_8h.html#a1d0e2a29f86dc033a02e50484b527fd0" target="_top" xlink:title=" ">
<polygon fill="white" stroke="#666666" points="803.75,-88.47 761.5,-88.47 761.5,-69.22 803.75,-69.22 803.75,-88.47"/>
<text text-anchor="middle" x="782.62" y="-74.97" font-family="Helvetica,sans-Serif" font-size="10.00">t_pool</text>
</a>
</g>
</g>
<!-- Node7&#45;&gt;Node25 -->
<g id="edge28_Node000007_Node000025" class="edge">
<title>Node7&#45;&gt;Node25</title>
<g id="a_edge28_Node000007_Node000025"><a xlink:title=" ">
<path fill="none" stroke="#63b8ff" d="M713.33,-94C723.88,-91.66 737.68,-88.59 750.11,-85.84"/>
<polygon fill="#63b8ff" stroke="#63b8ff" points="750.52,-89.33 759.53,-83.75 749,-82.5 750.52,-89.33"/>
</a>
</g>
</g>
<!-- Node9 -->
<g id="Node000009" class="node">
<title>Node9</title>
<g id="a_Node000009"><a xlink:href="../../d7/df8/log_8c.html#a4bc04f7baa1e064cb0b93c7b9f3a61a1" target="_top" xlink:title=" ">
<polygon fill="white" stroke="#666666" points="931.5,-125.47 843.5,-125.47 843.5,-106.22 931.5,-106.22 931.5,-125.47"/>
<text text-anchor="middle" x="887.5" y="-111.97" font-family="Helvetica,sans-Serif" font-size="10.00">__logger_refresh</text>
</a>
</g>
</g>
<!-- Node8&#45;&gt;Node9 -->
<g id="edge8_Node000008_Node000009" class="edge">
<title>Node8&#45;&gt;Node9</title>
<g id="a_edge8_Node000008_Node000009"><a xlink:title=" ">
<path fill="none" stroke="#63b8ff" d="M807.74,-115.84C815.01,-115.84 823.3,-115.84 831.72,-115.84"/>
<polygon fill="#63b8ff" stroke="#63b8ff" points="831.66,-119.34 841.66,-115.84 831.66,-112.34 831.66,-119.34"/>
</a>
</g>
</g>
<!-- Node20 -->
<g id="Node000020" class="node">
<title>Node20</title>
<g id="a_Node000020"><a xlink:href="../../d7/df8/log_8c.html#a900490b26df7698aac12f7f7e6517e81" target="_top" xlink:title=" ">
<polygon fill="white" stroke="#666666" points="920.25,-87.47 854.75,-87.47 854.75,-68.22 920.25,-68.22 920.25,-87.47"/>
<text text-anchor="middle" x="887.5" y="-73.97" font-family="Helvetica,sans-Serif" font-size="10.00">logger_vlog</text>
</a>
</g>
</g>
<!-- Node8&#45;&gt;Node20 -->
<g id="edge22_Node000008_Node000020" class="edge">
<title>Node8&#45;&gt;Node20</title>
<g id="a_edge22_Node000008_Node000020"><a xlink:title=" ">
<path fill="none" stroke="#63b8ff" d="M807.74,-106.93C819.93,-102.43 834.99,-96.87 848.67,-91.81"/>
<polygon fill="#63b8ff" stroke="#63b8ff" points="849.68,-95.17 857.85,-88.43 847.25,-88.61 849.68,-95.17"/>
</a>
</g>
</g>
<!-- Node24 -->
<g id="Node000024" class="node">
<title>Node24</title>
<g id="a_Node000024"><a xlink:href="../../d2/d4d/file_8h.html#a25419a391fdd4ad7954699c58cfeb3b9" target="_top" xlink:title=" ">
<polygon fill="white" stroke="#666666" points="913.12,-162.47 861.88,-162.47 861.88,-143.22 913.12,-143.22 913.12,-162.47"/>
<text text-anchor="middle" x="887.5" y="-148.97" font-family="Helvetica,sans-Serif" font-size="10.00">va_start</text>
</a>
</g>
</g>
<!-- Node8&#45;&gt;Node24 -->
<g id="edge27_Node000008_Node000024" class="edge">
<title>Node8&#45;&gt;Node24</title>
<g id="a_edge27_Node000008_Node000024"><a xlink:title=" ">
<path fill="none" stroke="#63b8ff" d="M807.74,-124.52C820.62,-129.15 836.7,-134.93 850.98,-140.07"/>
<polygon fill="#63b8ff" stroke="#63b8ff" points="849.44,-143.23 860.03,-143.32 851.81,-136.65 849.44,-143.23"/>
</a>
</g>
</g>
<!-- Node10 -->
<g id="Node000010" class="node">
<title>Node10</title>
<g id="a_Node000010"><a xlink:href="../../d7/df8/log_8c.html#a3dbd75fb614210f0b114cfd03c9c0a7b" target="_top" xlink:title=" ">
<polygon fill="white" stroke="#666666" points="1071.25,-199.47 967.5,-199.47 967.5,-180.22 1071.25,-180.22 1071.25,-199.47"/>
<text text-anchor="middle" x="1019.38" y="-185.97" font-family="Helvetica,sans-Serif" font-size="10.00">__logger_do_refresh</text>
</a>
</g>
</g>
<!-- Node9&#45;&gt;Node10 -->
<g id="edge9_Node000009_Node000010" class="edge">
<title>Node9&#45;&gt;Node10</title>
<g id="a_edge9_Node000009_Node000010"><a xlink:title=" ">
<path fill="none" stroke="#63b8ff" d="M917.14,-125.85C922.12,-128.14 927.1,-130.81 931.5,-133.84 950.64,-147.06 947.99,-159.17 967.5,-171.84 969.12,-172.9 970.81,-173.9 972.55,-174.84"/>
<polygon fill="#63b8ff" stroke="#63b8ff" points="970.96,-177.97 981.5,-179.08 973.96,-171.64 970.96,-177.97"/>
</a>
</g>
</g>
<!-- Node18 -->
<g id="Node000018" class="node">
<title>Node18</title>
<g id="a_Node000018"><a xlink:href="../../d7/df8/log_8c.html#a7b1b02d1986e1247c2f571af4a2c2854" target="_top" xlink:title=" ">
<polygon fill="white" stroke="#666666" points="1057,-162.47 981.75,-162.47 981.75,-143.22 1057,-143.22 1057,-162.47"/>
<text text-anchor="middle" x="1019.38" y="-148.97" font-family="Helvetica,sans-Serif" font-size="10.00">log_spin_lock</text>
</a>
</g>
</g>
<!-- Node9&#45;&gt;Node18 -->
<g id="edge20_Node000009_Node000018" class="edge">
<title>Node9&#45;&gt;Node18</title>
<g id="a_edge20_Node000009_Node000018"><a xlink:title=" ">
<path fill="none" stroke="#63b8ff" d="M923.99,-125.95C938.88,-130.19 956.39,-135.18 972.26,-139.7"/>
<polygon fill="#63b8ff" stroke="#63b8ff" points="970.9,-142.96 981.47,-142.33 972.82,-136.22 970.9,-142.96"/>
</a>
</g>
</g>
<!-- Node19 -->
<g id="Node000019" class="node">
<title>Node19</title>
<g id="a_Node000019"><a xlink:href="../../d1/dc0/group__log.html#ga045020bb4af234632f7761f220131c69" target="_top" xlink:title=" ">
<polygon fill="white" stroke="#666666" points="1062.25,-125.47 976.5,-125.47 976.5,-106.22 1062.25,-106.22 1062.25,-125.47"/>
<text text-anchor="middle" x="1019.38" y="-111.97" font-family="Helvetica,sans-Serif" font-size="10.00">log_spin_unlock</text>
</a>
</g>
</g>
<!-- Node9&#45;&gt;Node19 -->
<g id="edge21_Node000009_Node000019" class="edge">
<title>Node9&#45;&gt;Node19</title>
<g id="a_edge21_Node000009_Node000019"><a xlink:title=" ">
<path fill="none" stroke="#63b8ff" d="M931.75,-115.84C942.37,-115.84 953.87,-115.84 964.91,-115.84"/>
<polygon fill="#63b8ff" stroke="#63b8ff" points="964.69,-119.34 974.69,-115.84 964.69,-112.34 964.69,-119.34"/>
</a>
</g>
</g>
<!-- Node10&#45;&gt;Node3 -->
<g id="edge19_Node000010_Node000003" class="edge">
<title>Node10&#45;&gt;Node3</title>
<g id="a_edge19_Node000010_Node000003"><a xlink:title=" ">
<path fill="none" stroke="#63b8ff" d="M967.09,-190.19C919.53,-190.48 846.8,-190.84 783.62,-190.84 521,-190.84 521,-190.84 521,-190.84 460.76,-190.84 390.84,-190.84 348.6,-190.84"/>
<polygon fill="#63b8ff" stroke="#63b8ff" points="348.71,-187.34 338.71,-190.84 348.71,-194.34 348.71,-187.34"/>
</a>
</g>
</g>
<!-- Node10&#45;&gt;Node10 -->
<g id="edge10_Node000010_Node000010" class="edge">
<title>Node10&#45;&gt;Node10</title>
<g id="a_edge10_Node000010_Node000010"><a xlink:title=" ">
<path fill="none" stroke="#63b8ff" d="M998.73,-199.76C989.31,-208.36 996.19,-217.47 1019.38,-217.47 1032.05,-217.47 1039.85,-214.74 1042.78,-210.87"/>
<polygon fill="#63b8ff" stroke="#63b8ff" points="1046.19,-210.08 1040.39,-201.22 1039.4,-211.77 1046.19,-210.08"/>
</a>
</g>
</g>
<!-- Node11 -->
<g id="Node000011" class="node">
<title>Node11</title>
<g id="a_Node000011"><a xlink:href="../../de/d1a/container-dlist_8h.html#a3b6f65860b212e28f2e28e71eb54d54d" target="_top" xlink:title="Add element e at the head of list l (suited for LIFO).">
<polygon fill="white" stroke="#666666" points="1198.25,-199.47 1143.25,-199.47 1143.25,-180.22 1198.25,-180.22 1198.25,-199.47"/>
<text text-anchor="middle" x="1170.75" y="-185.97" font-family="Helvetica,sans-Serif" font-size="10.00">dlist_add</text>
</a>
</g>
</g>
<!-- Node10&#45;&gt;Node11 -->
<g id="edge11_Node000010_Node000011" class="edge">
<title>Node10&#45;&gt;Node11</title>
<g id="a_edge11_Node000010_Node000011"><a xlink:title=" ">
<path fill="none" stroke="#63b8ff" d="M1071.36,-189.84C1091.05,-189.84 1113.19,-189.84 1131.48,-189.84"/>
<polygon fill="#63b8ff" stroke="#63b8ff" points="1131.36,-193.34 1141.36,-189.84 1131.36,-186.34 1131.36,-193.34"/>
</a>
</g>
</g>
<!-- Node13 -->
<g id="Node000013" class="node">
<title>Node13</title>
<g id="a_Node000013"><a xlink:href="../../de/d1a/container-dlist_8h.html#a0a69e401f6ec15966c891e96ad864c77" target="_top" xlink:title="Put a dlist_t element in a safe and detached state.">
<polygon fill="white" stroke="#666666" points="1196.75,-125.47 1144.75,-125.47 1144.75,-106.22 1196.75,-106.22 1196.75,-125.47"/>
<text text-anchor="middle" x="1170.75" y="-111.97" font-family="Helvetica,sans-Serif" font-size="10.00">dlist_init</text>
</a>
</g>
</g>
<!-- Node10&#45;&gt;Node13 -->
<g id="edge13_Node000010_Node000013" class="edge">
<title>Node10&#45;&gt;Node13</title>
<g id="a_edge13_Node000010_Node000013"><a xlink:title=" ">
<path fill="none" stroke="#63b8ff" d="M1055.89,-179.73C1061.24,-177.52 1066.54,-174.91 1071.25,-171.84 1090.76,-159.17 1087.37,-145.93 1107.25,-133.84 1115.19,-129.02 1124.48,-125.43 1133.43,-122.79"/>
<polygon fill="#63b8ff" stroke="#63b8ff" points="1134.2,-126.21 1143,-120.31 1132.44,-119.43 1134.2,-126.21"/>
</a>
</g>
</g>
<!-- Node14 -->
<g id="Node000014" class="node">
<title>Node14</title>
<g id="a_Node000014"><a xlink:href="../../d7/df8/log_8c.html#a4c8fbe8648573312126ce341cf34cba1" target="_top" xlink:title=" ">
<polygon fill="white" stroke="#666666" points="1234.25,-236.47 1107.25,-236.47 1107.25,-217.22 1234.25,-217.22 1234.25,-236.47"/>
<text text-anchor="middle" x="1170.75" y="-222.97" font-family="Helvetica,sans-Serif" font-size="10.00">logger_compute_fullname</text>
</a>
</g>
</g>
<!-- Node10&#45;&gt;Node14 -->
<g id="edge14_Node000010_Node000014" class="edge">
<title>Node10&#45;&gt;Node14</title>
<g id="a_edge14_Node000010_Node000014"><a xlink:title=" ">
<path fill="none" stroke="#63b8ff" d="M1061.19,-199.95C1078.73,-204.3 1099.43,-209.42 1118.02,-214.03"/>
<polygon fill="#63b8ff" stroke="#63b8ff" points="1116.96,-217.37 1127.51,-216.38 1118.65,-210.58 1116.96,-217.37"/>
</a>
</g>
</g>
<!-- Node17 -->
<g id="Node000017" class="node">
<title>Node17</title>
<g id="a_Node000017"><a xlink:href="../../df/d0a/str-l_8h.html#a963c22b229774d4b7c106bae4011cb8e" target="_top" xlink:title="Returns whether \v s1 and \v s2 contents are equal.">
<polygon fill="white" stroke="#666666" points="1199.75,-162.47 1141.75,-162.47 1141.75,-143.22 1199.75,-143.22 1199.75,-162.47"/>
<text text-anchor="middle" x="1170.75" y="-148.97" font-family="Helvetica,sans-Serif" font-size="10.00">lstr_equal</text>
</a>
</g>
</g>
<!-- Node10&#45;&gt;Node17 -->
<g id="edge18_Node000010_Node000017" class="edge">
<title>Node10&#45;&gt;Node17</title>
<g id="a_edge18_Node000010_Node000017"><a xlink:title=" ">
<path fill="none" stroke="#63b8ff" d="M1061.19,-179.73C1082.72,-174.4 1109.01,-167.89 1130.33,-162.61"/>
<polygon fill="#63b8ff" stroke="#63b8ff" points="1130.95,-166.06 1139.81,-160.26 1129.26,-159.27 1130.95,-166.06"/>
</a>
</g>
</g>
<!-- Node12 -->
<g id="Node000012" class="node">
<title>Node12</title>
<g id="a_Node000012"><a xlink:href="../../de/d1a/container-dlist_8h.html#a71e7667ca0e4b896923788c5851afd24" target="_top" xlink:title="Put element e between prev and next.">
<polygon fill="white" stroke="#666666" points="1347,-142.47 1281.5,-142.47 1281.5,-123.22 1347,-123.22 1347,-142.47"/>
<text text-anchor="middle" x="1314.25" y="-128.97" font-family="Helvetica,sans-Serif" font-size="10.00">__dlist_add</text>
</a>
</g>
</g>
<!-- Node11&#45;&gt;Node12 -->
<g id="edge12_Node000011_Node000012" class="edge">
<title>Node11&#45;&gt;Node12</title>
<g id="a_edge12_Node000011_Node000012"><a xlink:title=" ">
<path fill="none" stroke="#63b8ff" d="M1198.71,-183.64C1209.92,-180.66 1222.93,-176.68 1234.25,-171.84 1251.28,-164.56 1253.67,-159.1 1270.25,-150.84 1272.49,-149.73 1274.81,-148.62 1277.16,-147.53"/>
<polygon fill="#63b8ff" stroke="#63b8ff" points="1278.41,-150.81 1286.15,-143.57 1275.59,-144.4 1278.41,-150.81"/>
</a>
</g>
</g>
<!-- Node14&#45;&gt;Node3 -->
<g id="edge17_Node000014_Node000003" class="edge">
<title>Node14&#45;&gt;Node3</title>
<g id="a_edge17_Node000014_Node000003"><a xlink:title=" ">
<path fill="none" stroke="#63b8ff" d="M1107,-233.51C1050.06,-238.99 963.74,-245.84 888.5,-245.84 521,-245.84 521,-245.84 521,-245.84 456.57,-245.84 384.55,-221.48 343.58,-205.18"/>
<polygon fill="#63b8ff" stroke="#63b8ff" points="345.11,-202.03 334.53,-201.5 342.47,-208.51 345.11,-202.03"/>
</a>
</g>
</g>
<!-- Node15 -->
<g id="Node000015" class="node">
<title>Node15</title>
<g id="a_Node000015"><a xlink:href="../../df/d0a/str-l_8h.html#a6a200ca09358f19b13a8e297cda34869" target="_top" xlink:title="returns a constant copy of \v s.">
<polygon fill="white" stroke="#666666" points="1342.12,-179.47 1286.38,-179.47 1286.38,-160.22 1342.12,-160.22 1342.12,-179.47"/>
<text text-anchor="middle" x="1314.25" y="-165.97" font-family="Helvetica,sans-Serif" font-size="10.00">lstr_dupc</text>
</a>
</g>
</g>
<!-- Node14&#45;&gt;Node15 -->
<g id="edge15_Node000014_Node000015" class="edge">
<title>Node14&#45;&gt;Node15</title>
<g id="a_edge15_Node000014_Node000015"><a xlink:title=" ">
<path fill="none" stroke="#63b8ff" d="M1210.78,-216.76C1218.64,-214.41 1226.77,-211.74 1234.25,-208.84 1251.58,-202.13 1270.26,-193 1285.1,-185.27"/>
<polygon fill="#63b8ff" stroke="#63b8ff" points="1286.62,-188.42 1293.81,-180.64 1283.34,-182.24 1286.62,-188.42"/>
</a>
</g>
</g>
<!-- Node15&#45;&gt;Node16 -->
<g id="edge16_Node000015_Node000016" class="edge">
<title>Node15&#45;&gt;Node16</title>
<g id="a_edge16_Node000015_Node000016"><a xlink:title=" ">
<path fill="none" stroke="#63b8ff" d="M1342.57,-161.3C1348.11,-158.8 1353.65,-155.67 1358.25,-151.84 1382.64,-131.53 1400.83,-99.03 1410.85,-78.06"/>
<polygon fill="#63b8ff" stroke="#63b8ff" points="1413.96,-79.67 1414.93,-69.12 1407.59,-76.76 1413.96,-79.67"/>
</a>
</g>
</g>
<!-- Node20&#45;&gt;Node15 -->
<g id="edge26_Node000020_Node000015" class="edge">
<title>Node20&#45;&gt;Node15</title>
<g id="a_edge26_Node000020_Node000015"><a xlink:title=" ">
<path fill="none" stroke="#63b8ff" d="M920.58,-76C995.87,-72.25 1181.52,-66.44 1234.25,-96.84 1259.56,-111.44 1247.79,-133.16 1270.25,-151.84 1272.12,-153.4 1274.14,-154.84 1276.26,-156.16"/>
<polygon fill="#63b8ff" stroke="#63b8ff" points="1274.12,-158.99 1284.6,-160.58 1277.4,-152.81 1274.12,-158.99"/>
</a>
</g>
</g>
<!-- Node21 -->
<g id="Node000021" class="node">
<title>Node21</title>
<g id="a_Node000021"><a xlink:href="../../d1/dc0/group__log.html#ga168a6f17b248f61f7d25a17d58d04e36" target="_top" xlink:title=" ">
<polygon fill="white" stroke="#666666" points="1063.75,-49.47 975,-49.47 975,-30.22 1063.75,-30.22 1063.75,-49.47"/>
<text text-anchor="middle" x="1019.38" y="-35.97" font-family="Helvetica,sans-Serif" font-size="10.00">logger_has_level</text>
</a>
</g>
</g>
<!-- Node20&#45;&gt;Node21 -->
<g id="edge23_Node000020_Node000021" class="edge">
<title>Node20&#45;&gt;Node21</title>
<g id="a_edge23_Node000020_Node000021"><a xlink:title=" ">
<path fill="none" stroke="#63b8ff" d="M920.6,-68.45C936.38,-63.83 955.66,-58.19 972.92,-53.14"/>
<polygon fill="#63b8ff" stroke="#63b8ff" points="973.84,-56.52 982.46,-50.35 971.88,-49.8 973.84,-56.52"/>
</a>
</g>
</g>
<!-- Node22 -->
<g id="Node000022" class="node">
<title>Node22</title>
<g id="a_Node000022"><a xlink:href="../../d1/dc0/group__log.html#gaf388752b988541da0abeceecdf96e6b3" target="_top" xlink:title=" ">
<polygon fill="white" stroke="#666666" points="1214,-49.47 1127.5,-49.47 1127.5,-30.22 1214,-30.22 1214,-49.47"/>
<text text-anchor="middle" x="1170.75" y="-35.97" font-family="Helvetica,sans-Serif" font-size="10.00">logger_get_level</text>
</a>
</g>
</g>
<!-- Node21&#45;&gt;Node22 -->
<g id="edge24_Node000021_Node000022" class="edge">
<title>Node21&#45;&gt;Node22</title>
<g id="a_edge24_Node000021_Node000022"><a xlink:title=" ">
<path fill="none" stroke="#63b8ff" d="M1063.98,-39.84C1080.14,-39.84 1098.67,-39.84 1115.65,-39.84"/>
<polygon fill="#63b8ff" stroke="#63b8ff" points="1115.61,-43.34 1125.61,-39.84 1115.61,-36.34 1115.61,-43.34"/>
</a>
</g>
</g>
<!-- Node23 -->
<g id="Node000023" class="node">
<title>Node23</title>
<g id="a_Node000023"><a xlink:href="../../d1/dc0/group__log.html#ga93cbd623096e1704532d15b3eb30e42f" target="_top" xlink:title=" ">
<polygon fill="white" stroke="#666666" points="1358.25,-49.47 1270.25,-49.47 1270.25,-30.22 1358.25,-30.22 1358.25,-49.47"/>
<text text-anchor="middle" x="1314.25" y="-35.97" font-family="Helvetica,sans-Serif" font-size="10.00">__logger_refresh</text>
</a>
</g>
</g>
<!-- Node22&#45;&gt;Node23 -->
<g id="edge25_Node000022_Node000023" class="edge">
<title>Node22&#45;&gt;Node23</title>
<g id="a_edge25_Node000022_Node000023"><a xlink:title=" ">
<path fill="none" stroke="#63b8ff" d="M1214.2,-39.84C1228.08,-39.84 1243.69,-39.84 1258.35,-39.84"/>
<polygon fill="#63b8ff" stroke="#63b8ff" points="1258.33,-43.34 1268.33,-39.84 1258.33,-36.34 1258.33,-43.34"/>
</a>
</g>
</g>
</g>
</svg>

<g id="navigator" transform="translate(0 0)" fill="#404254">
  <rect fill="#f2f5e9" fill-opacity="0.5" stroke="#606060" stroke-width=".5" x="0" y="0" width="60" height="60"/>
  <use id="zoomplus" xlink:href="#zoomPlus" x="17" y="9" onmousedown="handleZoom(evt,'in')"/>
  <use id="zoomminus" xlink:href="#zoomMin" x="42" y="9" onmousedown="handleZoom(evt,'out')"/>
  <use id="reset" xlink:href="#resetDef" x="30" y="36" onmousedown="handleReset()"/>
   <use id="arrowup" xlink:href="#arrowUp" x="0" y="0" onmousedown="handlePan(0,-1)"/>
  <use id="arrowright" xlink:href="#arrowRight" x="0" y="0" onmousedown="handlePan(1,0)"/>
  <use id="arrowdown" xlink:href="#arrowDown" x="0" y="0" onmousedown="handlePan(0,1)"/>
  <use id="arrowleft" xlink:href="#arrowLeft" x="0" y="0" onmousedown="handlePan(-1,0)"/>
</g>
<svg viewBox="0 0 15 15" width="100%" height="30px" preserveAspectRatio="xMaxYMin meet">
 <g id="arrow_out" transform="scale(0.3 0.3)">
  <a xlink:href="iopc_8h_aa2889ddbc38cf36081f02301612a0228_cgraph_org.svg" target="_base">
   <rect id="button" ry="5" rx="5" y="6" x="6" height="38" width="38"
        fill="#f2f5e9" fill-opacity="0.5" stroke="#606060" stroke-width="1.0"/>
   <path id="arrow"
     d="M 11.500037,31.436501 C 11.940474,20.09759 22.043105,11.32322 32.158766,21.979434 L 37.068811,17.246167 C 37.068811,17.246167 37.088388,32 37.088388,32 L 22.160133,31.978069 C 22.160133,31.978069 26.997745,27.140456 26.997745,27.140456 C 18.528582,18.264221 13.291696,25.230495 11.500037,31.436501 z"
     style="fill:#404040;"/>
  </a>
 </g>
</svg>

<style type='text/css'>
<![CDATA[
[data-mouse-over-selected='false'] { opacity: 0.7; }
[data-mouse-over-selected='true']  { opacity: 1.0; }
]]>
</style>
<script type="application/ecmascript"><![CDATA[
document.addEventListener('DOMContentLoaded', (event) => {
  highlightEdges();
  highlightAdjacentNodes();
});
]]></script>
</svg>
