<?xml version="1.0" encoding="UTF-8" standalone="no"?>
<!DOCTYPE svg PUBLIC "-//W3C//DTD SVG 1.1//EN"
 "http://www.w3.org/Graphics/SVG/1.1/DTD/svg11.dtd">
<!-- Generated by graphviz version 9.0.0 (20230911.1827)
 -->
<!-- Title: iopc_parse_file Pages: 1 -->
<!--zoomable 410 -->

<svg id="main" version="1.1" xmlns="http://www.w3.org/2000/svg" xmlns:xlink="http://www.w3.org/1999/xlink" xml:space="preserve" onload="init(evt)">
<style type="text/css"><![CDATA[
.node, .edge {opacity: 0.7;}
.node.selected, .edge.selected {opacity: 1;}
.edge:hover path { stroke: red; }
.edge:hover polygon { stroke: red; fill: red; }
]]></style>

<defs>
  <circle id="rim" cx="0" cy="0" r="7"/>
  <circle id="rim2" cx="0" cy="0" r="3.5"/>
  <g id="zoomPlus">
    <use xlink:href="#rim" fill="#404040"><set attributeName="fill" to="#808080" begin="zoomplus.mouseover" end="zoomplus.mouseout"/></use>
    <path d="M-4,0h8M0,-4v8" fill="none" stroke="white" stroke-width="1.5" pointer-events="none"/>
  </g>
  <g id="zoomMin">
    <use xlink:href="#rim" fill="#404040"><set attributeName="fill" to="#808080" begin="zoomminus.mouseover" end="zoomminus.mouseout"/></use>
    <path d="M-4,0h8" fill="none" stroke="white" stroke-width="1.5" pointer-events="none"/>
  </g>
  <g id="arrowUp" transform="translate(30 24)">
    <use xlink:href="#rim"/>
    <path pointer-events="none" fill="none" stroke="white" stroke-width="1.5" d="M0,-3.0v7 M-2.5,-0.5L0,-3.0L2.5,-0.5"/>
  </g>
  <g id="arrowRight" transform="rotate(90) translate(36 -43)">
    <use xlink:href="#rim"/>
    <path pointer-events="none" fill="none" stroke="white" stroke-width="1.5" d="M0,-3.0v7 M-2.5,-0.5L0,-3.0L2.5,-0.5"/>
  </g>
  <g id="arrowDown" transform="rotate(180) translate(-30 -48)">
    <use xlink:href="#rim"/>
    <path pointer-events="none" fill="none" stroke="white" stroke-width="1.5" d="M0,-3.0v7 M-2.5,-0.5L0,-3.0L2.5,-0.5"/>
  </g>
  <g id="arrowLeft" transform="rotate(270) translate(-36 17)">
    <use xlink:href="#rim"/>
    <path pointer-events="none" fill="none" stroke="white" stroke-width="1.5" d="M0,-3.0v7 M-2.5,-0.5L0,-3.0L2.5,-0.5"/>
  </g>
  <g id="resetDef">
    <use xlink:href="#rim2" fill="#404040"><set attributeName="fill" to="#808080" begin="reset.mouseover" end="reset.mouseout"/></use>
  </g>
</defs>
<script type="application/ecmascript">
var viewWidth = 1576;
var viewHeight = 410;
var sectionId = 'dynsection-69';
</script>
<script type="application/ecmascript" xlink:href="../../svg.min.js"/>
<svg id="graph" class="graph">
<g id="viewport">
<title>iopc_parse_file</title>
<!-- Node1 -->
<g id="Node000001" class="node">
<title>Node1</title>
<g id="a_Node000001"><a xlink:title=" ">
<polygon fill="#999999" stroke="#666666" points="1568.25,-76.25 1487.75,-76.25 1487.75,-57 1568.25,-57 1568.25,-76.25"/>
<text text-anchor="middle" x="1528" y="-62.75" font-family="Helvetica,sans-Serif" font-size="10.00">iopc_parse_file</text>
</a>
</g>
</g>
<!-- Node2 -->
<g id="Node000002" class="node">
<title>Node2</title>
<g id="a_Node000002"><a xlink:href="../../db/d07/iopc-dso_8c.html#a95a19b847fb352eb92b539cf3495f093" target="_top" xlink:title=" ">
<polygon fill="white" stroke="#666666" points="1448,-132.25 1388.5,-132.25 1388.5,-113 1448,-113 1448,-132.25"/>
<text text-anchor="middle" x="1418.25" y="-118.75" font-family="Helvetica,sans-Serif" font-size="10.00">iopc_build</text>
</a>
</g>
</g>
<!-- Node1&#45;&gt;Node2 -->
<g id="edge1_Node000001_Node000002" class="edge">
<title>Node1&#45;&gt;Node2</title>
<g id="a_edge1_Node000001_Node000002"><a xlink:title=" ">
<path fill="none" stroke="#63b8ff" d="M1497.65,-81.88C1478.91,-91.62 1455.14,-103.97 1438.71,-112.51"/>
<polygon fill="#63b8ff" stroke="#63b8ff" points="1499.13,-85.05 1506.39,-77.33 1495.91,-78.84 1499.13,-85.05"/>
</a>
</g>
</g>
<!-- Node4 -->
<g id="Node000004" class="node">
<title>Node4</title>
<g id="a_Node000004"><a xlink:href="../../dd/dfc/iopc-parser_8c.html#a4a1b6267556f4be9d70d30b95884da4d" target="_top" xlink:title=" ">
<polygon fill="white" stroke="#666666" points="1451.75,-95.25 1384.75,-95.25 1384.75,-76 1451.75,-76 1451.75,-95.25"/>
<text text-anchor="middle" x="1418.25" y="-81.75" font-family="Helvetica,sans-Serif" font-size="10.00">iopc_try_file</text>
</a>
</g>
</g>
<!-- Node1&#45;&gt;Node4 -->
<g id="edge3_Node000001_Node000004" class="edge">
<title>Node1&#45;&gt;Node4</title>
<g id="a_edge3_Node000001_Node000004"><a xlink:title=" ">
<path fill="none" stroke="#63b8ff" d="M1476.36,-75.56C1468.09,-77.01 1459.72,-78.49 1452.04,-79.84"/>
<polygon fill="#63b8ff" stroke="#63b8ff" points="1476.76,-79.04 1486,-73.85 1475.54,-72.14 1476.76,-79.04"/>
</a>
</g>
</g>
<!-- Node27 -->
<g id="Node000027" class="node">
<title>Node27</title>
<g id="a_Node000027"><a xlink:href="../../df/d1f/iopc_8c.html#a3c04138a5bfe5d72780bb7e82a18e627" target="_top" xlink:title=" ">
<polygon fill="white" stroke="#666666" points="1436.75,-19.25 1399.75,-19.25 1399.75,0 1436.75,0 1436.75,-19.25"/>
<text text-anchor="middle" x="1418.25" y="-5.75" font-family="Helvetica,sans-Serif" font-size="10.00">main</text>
</a>
</g>
</g>
<!-- Node1&#45;&gt;Node27 -->
<g id="edge35_Node000001_Node000027" class="edge">
<title>Node1&#45;&gt;Node27</title>
<g id="a_edge35_Node000001_Node000027"><a xlink:title=" ">
<path fill="none" stroke="#63b8ff" d="M1498.1,-51.34C1478.67,-41.06 1453.67,-27.83 1437.09,-19.06"/>
<polygon fill="#63b8ff" stroke="#63b8ff" points="1496.42,-54.41 1506.89,-55.99 1499.69,-48.22 1496.42,-54.41"/>
</a>
</g>
</g>
<!-- Node3 -->
<g id="Node000003" class="node">
<title>Node3</title>
<g id="a_Node000003"><a xlink:href="../../db/d07/iopc-dso_8c.html#ab2da67841232fab2872190ddabd94a81" target="_top" xlink:title="Build an IOP DSO.">
<polygon fill="white" stroke="#666666" points="1340.5,-132.25 1260,-132.25 1260,-113 1340.5,-113 1340.5,-132.25"/>
<text text-anchor="middle" x="1300.25" y="-118.75" font-family="Helvetica,sans-Serif" font-size="10.00">iopc_dso_build</text>
</a>
</g>
</g>
<!-- Node2&#45;&gt;Node3 -->
<g id="edge2_Node000002_Node000003" class="edge">
<title>Node2&#45;&gt;Node3</title>
<g id="a_edge2_Node000002_Node000003"><a xlink:title=" ">
<path fill="none" stroke="#63b8ff" d="M1376.99,-122.62C1365.26,-122.62 1352.46,-122.62 1340.78,-122.62"/>
<polygon fill="#63b8ff" stroke="#63b8ff" points="1376.76,-126.13 1386.76,-122.63 1376.76,-119.13 1376.76,-126.13"/>
</a>
</g>
</g>
<!-- Node5 -->
<g id="Node000005" class="node">
<title>Node5</title>
<g id="a_Node000005"><a xlink:href="../../dd/dfc/iopc-parser_8c.html#a79761716a7eac847296f64962fe71976" target="_top" xlink:title=" ">
<polygon fill="white" stroke="#666666" points="1348.75,-95.25 1251.75,-95.25 1251.75,-76 1348.75,-76 1348.75,-95.25"/>
<text text-anchor="middle" x="1300.25" y="-81.75" font-family="Helvetica,sans-Serif" font-size="10.00">check_path_exists</text>
</a>
</g>
</g>
<!-- Node4&#45;&gt;Node5 -->
<g id="edge4_Node000004_Node000005" class="edge">
<title>Node4&#45;&gt;Node5</title>
<g id="a_edge4_Node000004_Node000005"><a xlink:title=" ">
<path fill="none" stroke="#63b8ff" d="M1372.82,-85.62C1365.02,-85.62 1356.87,-85.62 1348.99,-85.62"/>
<polygon fill="#63b8ff" stroke="#63b8ff" points="1372.81,-89.13 1382.81,-85.63 1372.81,-82.13 1372.81,-89.13"/>
</a>
</g>
</g>
<!-- Node6 -->
<g id="Node000006" class="node">
<title>Node6</title>
<g id="a_Node000006"><a xlink:href="../../dd/dfc/iopc-parser_8c.html#a0ec09fbdcf0b260ff83a7fdb42cf23cc" target="_top" xlink:title=" ">
<polygon fill="white" stroke="#666666" points="1215.75,-133.25 1131.5,-133.25 1131.5,-114 1215.75,-114 1215.75,-133.25"/>
<text text-anchor="middle" x="1173.62" y="-119.75" font-family="Helvetica,sans-Serif" font-size="10.00">parse_path_aux</text>
</a>
</g>
</g>
<!-- Node5&#45;&gt;Node6 -->
<g id="edge5_Node000005_Node000006" class="edge">
<title>Node5&#45;&gt;Node6</title>
<g id="a_edge5_Node000005_Node000006"><a xlink:title=" ">
<path fill="none" stroke="#63b8ff" d="M1255.56,-98.95C1239.74,-103.77 1222.15,-109.14 1207.42,-113.63"/>
<polygon fill="#63b8ff" stroke="#63b8ff" points="1256.19,-102.41 1264.73,-96.15 1254.15,-95.72 1256.19,-102.41"/>
</a>
</g>
</g>
<!-- Node22 -->
<g id="Node000022" class="node">
<title>Node22</title>
<g id="a_Node000022"><a xlink:href="../../dd/dfc/iopc-parser_8c.html#a3f387ee0539c70f944de5dcc98cf928e" target="_top" xlink:title=" ">
<polygon fill="white" stroke="#666666" points="966.25,-95.25 842.25,-95.25 842.25,-76 966.25,-76 966.25,-95.25"/>
<text text-anchor="middle" x="904.25" y="-81.75" font-family="Helvetica,sans-Serif" font-size="10.00">parse_struct_snmp_from</text>
</a>
</g>
</g>
<!-- Node5&#45;&gt;Node22 -->
<g id="edge34_Node000005_Node000022" class="edge">
<title>Node5&#45;&gt;Node22</title>
<g id="a_edge34_Node000005_Node000022"><a xlink:title=" ">
<path fill="none" stroke="#63b8ff" d="M1239.97,-85.62C1166.34,-85.62 1041.35,-85.62 966.72,-85.62"/>
<polygon fill="#63b8ff" stroke="#63b8ff" points="1239.82,-89.13 1249.82,-85.63 1239.82,-82.13 1239.82,-89.13"/>
</a>
</g>
</g>
<!-- Node7 -->
<g id="Node000007" class="node">
<title>Node7</title>
<g id="a_Node000007"><a xlink:href="../../dd/dfc/iopc-parser_8c.html#abeb1a49428a1bce37107c5b00cddb84a" target="_top" xlink:title=" ">
<polygon fill="white" stroke="#666666" points="206.38,-142.25 120.62,-142.25 120.62,-123 206.38,-123 206.38,-142.25"/>
<text text-anchor="middle" x="163.5" y="-128.75" font-family="Helvetica,sans-Serif" font-size="10.00">parse_pkg_stmt</text>
</a>
</g>
</g>
<!-- Node6&#45;&gt;Node7 -->
<g id="edge6_Node000006_Node000007" class="edge">
<title>Node6&#45;&gt;Node7</title>
<g id="a_edge6_Node000006_Node000007"><a xlink:title=" ">
<path fill="none" stroke="#63b8ff" d="M1120.07,-123.62C1066.16,-123.62 979.85,-123.62 905.25,-123.62 905.25,-123.62 905.25,-123.62 441.25,-123.62 358.08,-123.62 260.94,-127.74 206.68,-130.4"/>
<polygon fill="#63b8ff" stroke="#63b8ff" points="1119.89,-127.13 1129.89,-123.63 1119.89,-120.13 1119.89,-127.13"/>
</a>
</g>
</g>
<!-- Node9 -->
<g id="Node000009" class="node">
<title>Node9</title>
<g id="a_Node000009"><a xlink:href="../../dd/dfc/iopc-parser_8c.html#ac72267654dc96e255a3f80df8feb4307" target="_top" xlink:title=" ">
<polygon fill="white" stroke="#666666" points="1095.5,-228.25 1002.25,-228.25 1002.25,-209 1095.5,-209 1095.5,-228.25"/>
<text text-anchor="middle" x="1048.88" y="-214.75" font-family="Helvetica,sans-Serif" font-size="10.00">parse_struct_type</text>
</a>
</g>
</g>
<!-- Node6&#45;&gt;Node9 -->
<g id="edge9_Node000006_Node000009" class="edge">
<title>Node6&#45;&gt;Node9</title>
<g id="a_edge9_Node000006_Node000009"><a xlink:title=" ">
<path fill="none" stroke="#63b8ff" d="M1151.01,-140.35C1125.41,-160.17 1083.6,-192.53 1062.66,-208.73"/>
<polygon fill="#63b8ff" stroke="#63b8ff" points="1152.99,-143.25 1158.75,-134.36 1148.7,-137.71 1152.99,-143.25"/>
</a>
</g>
</g>
<!-- Node8 -->
<g id="Node000008" class="node">
<title>Node8</title>
<g id="a_Node000008"><a xlink:href="../../dd/dfc/iopc-parser_8c.html#acc269e02f19abeee93b7a6ef689abe1d" target="_top" xlink:title=" ">
<polygon fill="white" stroke="#666666" points="82,-190.25 0,-190.25 0,-171 82,-171 82,-190.25"/>
<text text-anchor="middle" x="41" y="-176.75" font-family="Helvetica,sans-Serif" font-size="10.00">parse_package</text>
</a>
</g>
</g>
<!-- Node7&#45;&gt;Node8 -->
<g id="edge7_Node000007_Node000008" class="edge">
<title>Node7&#45;&gt;Node8</title>
<g id="a_edge7_Node000007_Node000008"><a xlink:title=" ">
<path fill="none" stroke="#63b8ff" d="M126.79,-146.85C107.63,-154.48 84.49,-163.7 67.23,-170.58"/>
<polygon fill="#63b8ff" stroke="#63b8ff" points="127.84,-150.2 135.83,-143.25 125.25,-143.7 127.84,-150.2"/>
</a>
</g>
</g>
<!-- Node8&#45;&gt;Node1 -->
<g id="edge8_Node000008_Node000001" class="edge">
<title>Node8&#45;&gt;Node1</title>
<g id="a_edge8_Node000008_Node000001"><a xlink:title=" ">
<path fill="none" stroke="#63b8ff" d="M58.51,-162.77C73.01,-147.96 95.28,-127.2 118,-113.62 181.75,-75.54 277.53,-47.62 298.12,-47.62 1301.25,-47.62 1301.25,-47.62 1301.25,-47.62 1366.74,-47.63 1442.53,-55.66 1487.53,-61.28"/>
<polygon fill="#63b8ff" stroke="#63b8ff" points="56.36,-159.97 51.98,-169.62 61.42,-164.8 56.36,-159.97"/>
</a>
</g>
</g>
<!-- Node10 -->
<g id="Node000010" class="node">
<title>Node10</title>
<g id="a_Node000010"><a xlink:href="../../dd/dfc/iopc-parser_8c.html#a1bbd17ec50769c5bdda73d466edd08a3" target="_top" xlink:title=" ">
<polygon fill="white" stroke="#666666" points="947.12,-285.25 861.38,-285.25 861.38,-266 947.12,-266 947.12,-285.25"/>
<text text-anchor="middle" x="904.25" y="-271.75" font-family="Helvetica,sans-Serif" font-size="10.00">parse_field_type</text>
</a>
</g>
</g>
<!-- Node9&#45;&gt;Node10 -->
<g id="edge10_Node000009_Node000010" class="edge">
<title>Node9&#45;&gt;Node10</title>
<g id="a_edge10_Node000009_Node000010"><a xlink:title=" ">
<path fill="none" stroke="#63b8ff" d="M1012.78,-232.9C998.37,-238.73 981.52,-245.53 966.25,-251.62 954.73,-256.22 941.96,-261.25 931.09,-265.52"/>
<polygon fill="#63b8ff" stroke="#63b8ff" points="1013.9,-236.22 1021.85,-229.22 1011.27,-229.73 1013.9,-236.22"/>
</a>
</g>
</g>
<!-- Node13 -->
<g id="Node000013" class="node">
<title>Node13</title>
<g id="a_Node000013"><a xlink:href="../../dd/dfc/iopc-parser_8c.html#a881b113838da8ff0b54d725bbff9049a" target="_top" xlink:title=" ">
<polygon fill="white" stroke="#666666" points="495.25,-351.25 389.25,-351.25 389.25,-332 495.25,-332 495.25,-351.25"/>
<text text-anchor="middle" x="442.25" y="-337.75" font-family="Helvetica,sans-Serif" font-size="10.00">parse_function_desc</text>
</a>
</g>
</g>
<!-- Node9&#45;&gt;Node13 -->
<g id="edge20_Node000009_Node000013" class="edge">
<title>Node9&#45;&gt;Node13</title>
<g id="a_edge20_Node000009_Node000013"><a xlink:title=" ">
<path fill="none" stroke="#63b8ff" d="M1034.01,-237.31C1019.38,-255.44 994.56,-281.99 966.25,-294.62 806.61,-365.85 592.7,-356.75 495.38,-347.69"/>
<polygon fill="#63b8ff" stroke="#63b8ff" points="1036.39,-239.96 1039.76,-229.92 1030.86,-235.66 1036.39,-239.96"/>
</a>
</g>
</g>
<!-- Node18 -->
<g id="Node000018" class="node">
<title>Node18</title>
<g id="a_Node000018"><a xlink:href="../../dd/dfc/iopc-parser_8c.html#a0ddf289eec55c97f63f8115e0e3a83d4" target="_top" xlink:title=" ">
<polygon fill="white" stroke="#666666" points="662.75,-238.25 531.25,-238.25 531.25,-219 662.75,-219 662.75,-238.25"/>
<text text-anchor="middle" x="597" y="-224.75" font-family="Helvetica,sans-Serif" font-size="10.00">parse_handle_class_snmp</text>
</a>
</g>
</g>
<!-- Node9&#45;&gt;Node18 -->
<g id="edge21_Node000009_Node000018" class="edge">
<title>Node9&#45;&gt;Node18</title>
<g id="a_edge21_Node000009_Node000018"><a xlink:title=" ">
<path fill="none" stroke="#63b8ff" d="M990.51,-219.9C906.67,-221.76 751.11,-225.22 663.1,-227.18"/>
<polygon fill="#63b8ff" stroke="#63b8ff" points="990.41,-223.4 1000.33,-219.68 990.26,-216.41 990.41,-223.4"/>
</a>
</g>
</g>
<!-- Node19 -->
<g id="Node000019" class="node">
<title>Node19</title>
<g id="a_Node000019"><a xlink:href="../../dd/dfc/iopc-parser_8c.html#ad28554ac836ef0c02ed7096a98e8749c" target="_top" xlink:title=" ">
<polygon fill="white" stroke="#666666" points="959.88,-171.25 848.62,-171.25 848.62,-152 959.88,-152 959.88,-171.25"/>
<text text-anchor="middle" x="904.25" y="-157.75" font-family="Helvetica,sans-Serif" font-size="10.00">parse_mod_field_stmt</text>
</a>
</g>
</g>
<!-- Node9&#45;&gt;Node19 -->
<g id="edge23_Node000009_Node000019" class="edge">
<title>Node9&#45;&gt;Node19</title>
<g id="a_edge23_Node000009_Node000019"><a xlink:title=" ">
<path fill="none" stroke="#63b8ff" d="M1012.78,-204.35C998.37,-198.52 981.52,-191.72 966.25,-185.62 954.73,-181.03 941.96,-176 931.09,-171.73"/>
<polygon fill="#63b8ff" stroke="#63b8ff" points="1011.27,-207.52 1021.85,-208.03 1013.9,-201.03 1011.27,-207.52"/>
</a>
</g>
</g>
<!-- Node20 -->
<g id="Node000020" class="node">
<title>Node20</title>
<g id="a_Node000020"><a xlink:href="../../dd/dfc/iopc-parser_8c.html#a285bbff499acd09cc7b78a6110b26092" target="_top" xlink:title=" ">
<polygon fill="white" stroke="#666666" points="803.25,-190.25 701.75,-190.25 701.75,-171 803.25,-171 803.25,-190.25"/>
<text text-anchor="middle" x="752.5" y="-176.75" font-family="Helvetica,sans-Serif" font-size="10.00">parse_module_stmt</text>
</a>
</g>
</g>
<!-- Node9&#45;&gt;Node20 -->
<g id="edge26_Node000009_Node000020" class="edge">
<title>Node9&#45;&gt;Node20</title>
<g id="a_edge26_Node000009_Node000020"><a xlink:title=" ">
<path fill="none" stroke="#63b8ff" d="M990.71,-211.25C936.38,-204.23 855.47,-193.79 803.6,-187.09"/>
<polygon fill="#63b8ff" stroke="#63b8ff" points="990.01,-214.68 1000.38,-212.49 990.91,-207.74 990.01,-214.68"/>
</a>
</g>
</g>
<!-- Node21 -->
<g id="Node000021" class="node">
<title>Node21</title>
<g id="a_Node000021"><a xlink:href="../../dd/dfc/iopc-parser_8c.html#a7281d65321218fddc70cabe8a105be55" target="_top" xlink:title=" ">
<polygon fill="white" stroke="#666666" points="660.88,-389.25 533.12,-389.25 533.12,-370 660.88,-370 660.88,-389.25"/>
<text text-anchor="middle" x="597" y="-375.75" font-family="Helvetica,sans-Serif" font-size="10.00">parse_snmp_iface_parent</text>
</a>
</g>
</g>
<!-- Node9&#45;&gt;Node21 -->
<g id="edge27_Node000009_Node000021" class="edge">
<title>Node9&#45;&gt;Node21</title>
<g id="a_edge27_Node000009_Node000021"><a xlink:title=" ">
<path fill="none" stroke="#63b8ff" d="M1042.25,-239.37C1032.54,-270.7 1009.4,-329.21 966.25,-355.62 865.98,-417 720.25,-402.72 645.75,-389.71"/>
<polygon fill="#63b8ff" stroke="#63b8ff" points="1045.56,-240.51 1045,-229.93 1038.84,-238.55 1045.56,-240.51"/>
</a>
</g>
</g>
<!-- Node9&#45;&gt;Node22 -->
<g id="edge29_Node000009_Node000022" class="edge">
<title>Node9&#45;&gt;Node22</title>
<g id="a_edge29_Node000009_Node000022"><a xlink:title=" ">
<path fill="none" stroke="#63b8ff" d="M1029.08,-201.1C998.83,-172.89 940.27,-118.28 916.09,-95.74"/>
<polygon fill="#63b8ff" stroke="#63b8ff" points="1026.35,-203.34 1036.05,-207.6 1031.12,-198.22 1026.35,-203.34"/>
</a>
</g>
</g>
<!-- Node11 -->
<g id="Node000011" class="node">
<title>Node11</title>
<g id="a_Node000011"><a xlink:href="../../dd/dfc/iopc-parser_8c.html#a7649a6231d55a4b9ec364ac09d94d3a5" target="_top" xlink:title=" ">
<polygon fill="white" stroke="#666666" points="796.12,-275.25 708.88,-275.25 708.88,-256 796.12,-256 796.12,-275.25"/>
<text text-anchor="middle" x="752.5" y="-261.75" font-family="Helvetica,sans-Serif" font-size="10.00">parse_field_stmt</text>
</a>
</g>
</g>
<!-- Node10&#45;&gt;Node11 -->
<g id="edge11_Node000010_Node000011" class="edge">
<title>Node10&#45;&gt;Node11</title>
<g id="a_edge11_Node000010_Node000011"><a xlink:title=" ">
<path fill="none" stroke="#63b8ff" d="M849.94,-272.06C832.44,-270.9 813.23,-269.61 796.6,-268.5"/>
<polygon fill="#63b8ff" stroke="#63b8ff" points="849.42,-275.54 859.63,-272.71 849.88,-268.55 849.42,-275.54"/>
</a>
</g>
</g>
<!-- Node17 -->
<g id="Node000017" class="node">
<title>Node17</title>
<g id="a_Node000017"><a xlink:href="../../dd/dfc/iopc-parser_8c.html#ab828c3a92b1c8238adadb490b7af86c2" target="_top" xlink:title=" ">
<polygon fill="white" stroke="#666666" points="349.88,-313.25 248.38,-313.25 248.38,-294 349.88,-294 349.88,-313.25"/>
<text text-anchor="middle" x="299.12" y="-299.75" font-family="Helvetica,sans-Serif" font-size="10.00">parse_typedef_stmt</text>
</a>
</g>
</g>
<!-- Node10&#45;&gt;Node17 -->
<g id="edge18_Node000010_Node000017" class="edge">
<title>Node10&#45;&gt;Node17</title>
<g id="a_edge18_Node000010_Node000017"><a xlink:title=" ">
<path fill="none" stroke="#63b8ff" d="M850.14,-281.08C835.9,-282.4 820.5,-283.7 806.25,-284.62 639.32,-295.49 440.97,-300.7 350.1,-302.66"/>
<polygon fill="#63b8ff" stroke="#63b8ff" points="850.14,-284.6 859.77,-280.17 849.48,-277.63 850.14,-284.6"/>
</a>
</g>
</g>
<!-- Node12 -->
<g id="Node000012" class="node">
<title>Node12</title>
<g id="a_Node000012"><a xlink:href="../../dd/dfc/iopc-parser_8c.html#a77240cf99eead09f3518815538f6c3be" target="_top" xlink:title=" ">
<polygon fill="white" stroke="#666666" points="632,-275.25 562,-275.25 562,-256 632,-256 632,-275.25"/>
<text text-anchor="middle" x="597" y="-261.75" font-family="Helvetica,sans-Serif" font-size="10.00">parse_struct</text>
</a>
</g>
</g>
<!-- Node11&#45;&gt;Node12 -->
<g id="edge12_Node000011_Node000012" class="edge">
<title>Node11&#45;&gt;Node12</title>
<g id="a_edge12_Node000011_Node000012"><a xlink:title=" ">
<path fill="none" stroke="#63b8ff" d="M697.37,-265.62C675.72,-265.62 651.43,-265.62 632.28,-265.62"/>
<polygon fill="#63b8ff" stroke="#63b8ff" points="697.23,-269.13 707.23,-265.63 697.23,-262.13 697.23,-269.13"/>
</a>
</g>
</g>
<!-- Node12&#45;&gt;Node13 -->
<g id="edge13_Node000012_Node000013" class="edge">
<title>Node12&#45;&gt;Node13</title>
<g id="a_edge13_Node000012_Node000013"><a xlink:title=" ">
<path fill="none" stroke="#63b8ff" d="M565.66,-280.72C535.21,-295.87 489.21,-318.76 463.13,-331.73"/>
<polygon fill="#63b8ff" stroke="#63b8ff" points="566.97,-283.98 574.36,-276.39 563.85,-277.71 566.97,-283.98"/>
</a>
</g>
</g>
<!-- Node16 -->
<g id="Node000016" class="node">
<title>Node16</title>
<g id="a_Node000016"><a xlink:href="../../dd/dfc/iopc-parser_8c.html#a0420653b173302863ab71ffe83237e6d" target="_top" xlink:title=" ">
<polygon fill="white" stroke="#666666" points="491.5,-259.88 393,-259.88 393,-229.38 491.5,-229.38 491.5,-259.88"/>
<text text-anchor="start" x="401" y="-246.38" font-family="Helvetica,sans-Serif" font-size="10.00">parse_struct_class</text>
<text text-anchor="middle" x="442.25" y="-235.12" font-family="Helvetica,sans-Serif" font-size="10.00">_union_snmp_stmt</text>
</a>
</g>
</g>
<!-- Node12&#45;&gt;Node16 -->
<g id="edge17_Node000012_Node000016" class="edge">
<title>Node12&#45;&gt;Node16</title>
<g id="a_edge17_Node000012_Node000016"><a xlink:title=" ">
<path fill="none" stroke="#63b8ff" d="M550.37,-259.35C531.93,-256.82 510.63,-253.89 491.9,-251.31"/>
<polygon fill="#63b8ff" stroke="#63b8ff" points="549.84,-262.81 560.22,-260.71 550.79,-255.88 549.84,-262.81"/>
</a>
</g>
</g>
<!-- Node14 -->
<g id="Node000014" class="node">
<title>Node14</title>
<g id="a_Node000014"><a xlink:href="../../dd/dfc/iopc-parser_8c.html#aecb24588e7de941ac8b4717fc96c31a2" target="_top" xlink:title=" ">
<polygon fill="white" stroke="#666666" points="351.38,-351.25 246.88,-351.25 246.88,-332 351.38,-332 351.38,-351.25"/>
<text text-anchor="middle" x="299.12" y="-337.75" font-family="Helvetica,sans-Serif" font-size="10.00">parse_function_stmt</text>
</a>
</g>
</g>
<!-- Node13&#45;&gt;Node14 -->
<g id="edge14_Node000013_Node000014" class="edge">
<title>Node13&#45;&gt;Node14</title>
<g id="a_edge14_Node000013_Node000014"><a xlink:title=" ">
<path fill="none" stroke="#63b8ff" d="M377.73,-341.62C368.98,-341.62 360.08,-341.62 351.59,-341.62"/>
<polygon fill="#63b8ff" stroke="#63b8ff" points="377.59,-345.13 387.59,-341.63 377.59,-338.13 377.59,-345.13"/>
</a>
</g>
</g>
<!-- Node15 -->
<g id="Node000015" class="node">
<title>Node15</title>
<g id="a_Node000015"><a xlink:href="../../dd/dfc/iopc-parser_8c.html#a35685e561fb0c4cb62de1c2b33992a95" target="_top" xlink:title=" ">
<polygon fill="white" stroke="#666666" points="209,-351.25 118,-351.25 118,-332 209,-332 209,-351.25"/>
<text text-anchor="middle" x="163.5" y="-337.75" font-family="Helvetica,sans-Serif" font-size="10.00">parse_iface_stmt</text>
</a>
</g>
</g>
<!-- Node14&#45;&gt;Node15 -->
<g id="edge15_Node000014_Node000015" class="edge">
<title>Node14&#45;&gt;Node15</title>
<g id="a_edge15_Node000014_Node000015"><a xlink:title=" ">
<path fill="none" stroke="#63b8ff" d="M235.17,-341.62C226.5,-341.62 217.75,-341.62 209.5,-341.62"/>
<polygon fill="#63b8ff" stroke="#63b8ff" points="234.95,-345.13 244.95,-341.63 234.95,-338.13 234.95,-345.13"/>
</a>
</g>
</g>
<!-- Node15&#45;&gt;Node8 -->
<g id="edge16_Node000015_Node000008" class="edge">
<title>Node15&#45;&gt;Node8</title>
<g id="a_edge16_Node000015_Node000008"><a xlink:title=" ">
<path fill="none" stroke="#63b8ff" d="M148.21,-322.53C122.48,-288.16 69.23,-217 49.53,-190.69"/>
<polygon fill="#63b8ff" stroke="#63b8ff" points="145.26,-324.43 154.06,-330.34 150.87,-320.24 145.26,-324.43"/>
</a>
</g>
</g>
<!-- Node17&#45;&gt;Node8 -->
<g id="edge19_Node000017_Node000008" class="edge">
<title>Node17&#45;&gt;Node8</title>
<g id="a_edge19_Node000017_Node000008"><a xlink:title=" ">
<path fill="none" stroke="#63b8ff" d="M267.02,-288.69C214.09,-263.27 107.87,-212.26 62.89,-190.66"/>
<polygon fill="#63b8ff" stroke="#63b8ff" points="265.27,-291.73 275.8,-292.9 268.3,-285.42 265.27,-291.73"/>
</a>
</g>
</g>
<!-- Node18&#45;&gt;Node16 -->
<g id="edge22_Node000018_Node000016" class="edge">
<title>Node18&#45;&gt;Node16</title>
<g id="a_edge22_Node000018_Node000016"><a xlink:title=" ">
<path fill="none" stroke="#63b8ff" d="M519.62,-236.63C510.09,-237.62 500.56,-238.62 491.62,-239.56"/>
<polygon fill="#63b8ff" stroke="#63b8ff" points="519.69,-240.14 529.27,-235.61 518.96,-233.18 519.69,-240.14"/>
</a>
</g>
</g>
<!-- Node19&#45;&gt;Node20 -->
<g id="edge24_Node000019_Node000020" class="edge">
<title>Node19&#45;&gt;Node20</title>
<g id="a_edge24_Node000019_Node000020"><a xlink:title=" ">
<path fill="none" stroke="#63b8ff" d="M837.15,-170.01C825.84,-171.45 814.25,-172.92 803.44,-174.29"/>
<polygon fill="#63b8ff" stroke="#63b8ff" points="837.36,-173.51 846.84,-168.78 836.48,-166.57 837.36,-173.51"/>
</a>
</g>
</g>
<!-- Node20&#45;&gt;Node8 -->
<g id="edge25_Node000020_Node000008" class="edge">
<title>Node20&#45;&gt;Node8</title>
<g id="a_edge25_Node000020_Node000008"><a xlink:title=" ">
<path fill="none" stroke="#63b8ff" d="M690.14,-180.62C627.93,-180.62 528.9,-180.62 443.25,-180.62 443.25,-180.62 443.25,-180.62 298.12,-180.62 221.87,-180.62 132.83,-180.62 82.37,-180.62"/>
<polygon fill="#63b8ff" stroke="#63b8ff" points="689.8,-184.13 699.8,-180.63 689.8,-177.13 689.8,-184.13"/>
</a>
</g>
</g>
<!-- Node21&#45;&gt;Node15 -->
<g id="edge28_Node000021_Node000015" class="edge">
<title>Node21&#45;&gt;Node15</title>
<g id="a_edge28_Node000021_Node000015"><a xlink:title=" ">
<path fill="none" stroke="#63b8ff" d="M521.8,-379.42C450.5,-378.33 339.89,-374.28 245,-360.62 230.5,-358.54 214.78,-355.1 201.11,-351.71"/>
<polygon fill="#63b8ff" stroke="#63b8ff" points="521.34,-382.92 531.38,-379.55 521.43,-375.92 521.34,-382.92"/>
</a>
</g>
</g>
<!-- Node23 -->
<g id="Node000023" class="node">
<title>Node23</title>
<g id="a_Node000023"><a xlink:href="../../dd/dfc/iopc-parser_8c.html#a54608d30c17f5d1a6f858f3f748ffc45" target="_top" xlink:title=" ">
<polygon fill="white" stroke="#666666" points="806.25,-95.25 698.75,-95.25 698.75,-76 806.25,-76 806.25,-95.25"/>
<text text-anchor="middle" x="752.5" y="-81.75" font-family="Helvetica,sans-Serif" font-size="10.00">parse_snmp_attr_arg</text>
</a>
</g>
</g>
<!-- Node22&#45;&gt;Node23 -->
<g id="edge30_Node000022_Node000023" class="edge">
<title>Node22&#45;&gt;Node23</title>
<g id="a_edge30_Node000022_Node000023"><a xlink:title=" ">
<path fill="none" stroke="#63b8ff" d="M830.47,-85.62C822.34,-85.62 814.18,-85.62 806.36,-85.62"/>
<polygon fill="#63b8ff" stroke="#63b8ff" points="830.4,-89.13 840.4,-85.63 830.4,-82.13 830.4,-89.13"/>
</a>
</g>
</g>
<!-- Node24 -->
<g id="Node000024" class="node">
<title>Node24</title>
<g id="a_Node000024"><a xlink:href="../../dd/dfc/iopc-parser_8c.html#a8c3760612476135c94480e62e7928c71" target="_top" xlink:title=" ">
<polygon fill="white" stroke="#666666" points="638.75,-95.25 555.25,-95.25 555.25,-76 638.75,-76 638.75,-95.25"/>
<text text-anchor="middle" x="597" y="-81.75" font-family="Helvetica,sans-Serif" font-size="10.00">parse_attr_args</text>
</a>
</g>
</g>
<!-- Node23&#45;&gt;Node24 -->
<g id="edge31_Node000023_Node000024" class="edge">
<title>Node23&#45;&gt;Node24</title>
<g id="a_edge31_Node000023_Node000024"><a xlink:title=" ">
<path fill="none" stroke="#63b8ff" d="M687.44,-85.62C670.98,-85.62 653.72,-85.62 638.8,-85.62"/>
<polygon fill="#63b8ff" stroke="#63b8ff" points="687.16,-89.13 697.16,-85.63 687.16,-82.13 687.16,-89.13"/>
</a>
</g>
</g>
<!-- Node25 -->
<g id="Node000025" class="node">
<title>Node25</title>
<g id="a_Node000025"><a xlink:href="../../dd/dfc/iopc-parser_8c.html#a325c3a28208c682c1b52f9711967f77e" target="_top" xlink:title=" ">
<polygon fill="white" stroke="#666666" points="472,-95.25 412.5,-95.25 412.5,-76 472,-76 472,-95.25"/>
<text text-anchor="middle" x="442.25" y="-81.75" font-family="Helvetica,sans-Serif" font-size="10.00">parse_attr</text>
</a>
</g>
</g>
<!-- Node24&#45;&gt;Node25 -->
<g id="edge32_Node000024_Node000025" class="edge">
<title>Node24&#45;&gt;Node25</title>
<g id="a_edge32_Node000024_Node000025"><a xlink:title=" ">
<path fill="none" stroke="#63b8ff" d="M543.65,-85.62C519.74,-85.62 492.33,-85.62 472.19,-85.62"/>
<polygon fill="#63b8ff" stroke="#63b8ff" points="543.55,-89.13 553.55,-85.63 543.55,-82.13 543.55,-89.13"/>
</a>
</g>
</g>
<!-- Node26 -->
<g id="Node000026" class="node">
<title>Node26</title>
<g id="a_Node000026"><a xlink:href="../../dd/dfc/iopc-parser_8c.html#a2dd65e07c0efdb78cfd5b45d7ae13c3f" target="_top" xlink:title=" ">
<polygon fill="white" stroke="#666666" points="353.25,-95.25 245,-95.25 245,-76 353.25,-76 353.25,-95.25"/>
<text text-anchor="middle" x="299.12" y="-81.75" font-family="Helvetica,sans-Serif" font-size="10.00">check_dox_and_attrs</text>
</a>
</g>
</g>
<!-- Node25&#45;&gt;Node26 -->
<g id="edge33_Node000025_Node000026" class="edge">
<title>Node25&#45;&gt;Node26</title>
<g id="a_edge33_Node000025_Node000026"><a xlink:title=" ">
<path fill="none" stroke="#63b8ff" d="M400.74,-85.62C386.05,-85.62 369.21,-85.62 353.57,-85.62"/>
<polygon fill="#63b8ff" stroke="#63b8ff" points="400.5,-89.13 410.5,-85.63 400.5,-82.13 400.5,-89.13"/>
</a>
</g>
</g>
</g>
</svg>

<g id="navigator" transform="translate(0 0)" fill="#404254">
  <rect fill="#f2f5e9" fill-opacity="0.5" stroke="#606060" stroke-width=".5" x="0" y="0" width="60" height="60"/>
  <use id="zoomplus" xlink:href="#zoomPlus" x="17" y="9" onmousedown="handleZoom(evt,'in')"/>
  <use id="zoomminus" xlink:href="#zoomMin" x="42" y="9" onmousedown="handleZoom(evt,'out')"/>
  <use id="reset" xlink:href="#resetDef" x="30" y="36" onmousedown="handleReset()"/>
   <use id="arrowup" xlink:href="#arrowUp" x="0" y="0" onmousedown="handlePan(0,-1)"/>
  <use id="arrowright" xlink:href="#arrowRight" x="0" y="0" onmousedown="handlePan(1,0)"/>
  <use id="arrowdown" xlink:href="#arrowDown" x="0" y="0" onmousedown="handlePan(0,1)"/>
  <use id="arrowleft" xlink:href="#arrowLeft" x="0" y="0" onmousedown="handlePan(-1,0)"/>
</g>
<svg viewBox="0 0 15 15" width="100%" height="30px" preserveAspectRatio="xMaxYMin meet">
 <g id="arrow_out" transform="scale(0.3 0.3)">
  <a xlink:href="iopc_8h_a5b4e6d6c40f2ad8a2daee70d7c82ce9d_icgraph_org.svg" target="_base">
   <rect id="button" ry="5" rx="5" y="6" x="6" height="38" width="38"
        fill="#f2f5e9" fill-opacity="0.5" stroke="#606060" stroke-width="1.0"/>
   <path id="arrow"
     d="M 11.500037,31.436501 C 11.940474,20.09759 22.043105,11.32322 32.158766,21.979434 L 37.068811,17.246167 C 37.068811,17.246167 37.088388,32 37.088388,32 L 22.160133,31.978069 C 22.160133,31.978069 26.997745,27.140456 26.997745,27.140456 C 18.528582,18.264221 13.291696,25.230495 11.500037,31.436501 z"
     style="fill:#404040;"/>
  </a>
 </g>
</svg>

<style type='text/css'>
<![CDATA[
[data-mouse-over-selected='false'] { opacity: 0.7; }
[data-mouse-over-selected='true']  { opacity: 1.0; }
]]>
</style>
<script type="application/ecmascript"><![CDATA[
document.addEventListener('DOMContentLoaded', (event) => {
  highlightEdges();
  highlightAdjacentNodes();
});
]]></script>
</svg>
