<?xml version="1.0" encoding="UTF-8" standalone="no"?>
<!DOCTYPE svg PUBLIC "-//W3C//DTD SVG 1.1//EN"
 "http://www.w3.org/Graphics/SVG/1.1/DTD/svg11.dtd">
<!-- Generated by graphviz version 9.0.0 (20230911.1827)
 -->
<!-- Title: iopc_attrs_wipe Pages: 1 -->
<svg width="891pt" height="151pt"
 viewBox="0.00 0.00 891.00 150.88" xmlns="http://www.w3.org/2000/svg" xmlns:xlink="http://www.w3.org/1999/xlink">
<g id="graph0" class="graph" transform="scale(1 1) rotate(0) translate(4 146.88)">
<title>iopc_attrs_wipe</title>
<!-- Node1 -->
<g id="Node000001" class="node">
<title>Node1</title>
<g id="a_Node000001"><a xlink:title=" ">
<polygon fill="#999999" stroke="#666666" points="883,-94.25 798.75,-94.25 798.75,-75 883,-75 883,-94.25"/>
<text text-anchor="middle" x="840.88" y="-80.75" font-family="Helvetica,sans-Serif" font-size="10.00">iopc_attrs_wipe</text>
</a>
</g>
</g>
<!-- Node2 -->
<g id="Node000002" class="node">
<title>Node2</title>
<g id="a_Node000002"><a xlink:href="../../d3/d7b/iopc-lang-c_8blk.html#a138e3066b3ef3a01a0934dfddf817aad" target="_top" xlink:title=" ">
<polygon fill="white" stroke="#666666" points="599.75,-142.88 491.5,-142.88 491.5,-112.38 599.75,-112.38 599.75,-142.88"/>
<text text-anchor="start" x="499.5" y="-129.38" font-family="Helvetica,sans-Serif" font-size="10.00">iopc_iface_dump_rpc</text>
<text text-anchor="middle" x="545.62" y="-118.12" font-family="Helvetica,sans-Serif" font-size="10.00">_attrs</text>
</a>
</g>
</g>
<!-- Node1&#45;&gt;Node2 -->
<g id="edge1_Node000001_Node000002" class="edge">
<title>Node1&#45;&gt;Node2</title>
<g id="a_edge1_Node000001_Node000002"><a xlink:title=" ">
<path fill="none" stroke="#63b8ff" d="M787.33,-92.33C734.5,-100.08 653.45,-111.96 600.24,-119.76"/>
<polygon fill="#63b8ff" stroke="#63b8ff" points="787.6,-95.83 796.98,-90.91 786.58,-88.9 787.6,-95.83"/>
</a>
</g>
</g>
<!-- Node9 -->
<g id="Node000009" class="node">
<title>Node9</title>
<g id="a_Node000009"><a xlink:href="../../d3/d7b/iopc-lang-c_8blk.html#a5932ca501a8fe4de629700124cb66e41" target="_top" xlink:title=" ">
<polygon fill="white" stroke="#666666" points="762.75,-75.25 650.75,-75.25 650.75,-56 762.75,-56 762.75,-75.25"/>
<text text-anchor="middle" x="706.75" y="-61.75" font-family="Helvetica,sans-Serif" font-size="10.00">iopc_struct_dump_src</text>
</a>
</g>
</g>
<!-- Node1&#45;&gt;Node9 -->
<g id="edge8_Node000001_Node000009" class="edge">
<title>Node1&#45;&gt;Node9</title>
<g id="a_edge8_Node000001_Node000009"><a xlink:title=" ">
<path fill="none" stroke="#63b8ff" d="M787.11,-77.04C779.21,-75.9 771.05,-74.73 763.1,-73.58"/>
<polygon fill="#63b8ff" stroke="#63b8ff" points="786.54,-80.49 796.93,-78.45 787.53,-73.56 786.54,-80.49"/>
</a>
</g>
</g>
<!-- Node3 -->
<g id="Node000003" class="node">
<title>Node3</title>
<g id="a_Node000003"><a xlink:href="../../d3/d7b/iopc-lang-c_8blk.html#a60e8f426c2193869d8bd3daaecdc8173" target="_top" xlink:title=" ">
<polygon fill="white" stroke="#666666" points="440.5,-75.25 332.25,-75.25 332.25,-56 440.5,-56 440.5,-75.25"/>
<text text-anchor="middle" x="386.38" y="-61.75" font-family="Helvetica,sans-Serif" font-size="10.00">iopc_iface_dump_src</text>
</a>
</g>
</g>
<!-- Node2&#45;&gt;Node3 -->
<g id="edge2_Node000002_Node000003" class="edge">
<title>Node2&#45;&gt;Node3</title>
<g id="a_edge2_Node000002_Node000003"><a xlink:title=" ">
<path fill="none" stroke="#63b8ff" d="M494.42,-107.83C467.21,-97.1 434.75,-84.3 412.76,-75.63"/>
<polygon fill="#63b8ff" stroke="#63b8ff" points="492.95,-111.01 503.54,-111.42 495.52,-104.5 492.95,-111.01"/>
</a>
</g>
</g>
<!-- Node4 -->
<g id="Node000004" class="node">
<title>Node4</title>
<g id="a_Node000004"><a xlink:href="../../d3/d7b/iopc-lang-c_8blk.html#ac633cc5263e2185fcaaaa32bff48aade" target="_top" xlink:title=" ">
<polygon fill="white" stroke="#666666" points="296.25,-37.25 236,-37.25 236,-18 296.25,-18 296.25,-37.25"/>
<text text-anchor="middle" x="266.12" y="-23.75" font-family="Helvetica,sans-Serif" font-size="10.00">iopc_do_c</text>
</a>
</g>
</g>
<!-- Node3&#45;&gt;Node4 -->
<g id="edge3_Node000003_Node000004" class="edge">
<title>Node3&#45;&gt;Node4</title>
<g id="a_edge3_Node000003_Node000004"><a xlink:title=" ">
<path fill="none" stroke="#63b8ff" d="M343.14,-52.05C327.74,-47.1 310.67,-41.62 296.61,-37.1"/>
<polygon fill="#63b8ff" stroke="#63b8ff" points="341.96,-55.35 352.56,-55.08 344.11,-48.69 341.96,-55.35"/>
</a>
</g>
</g>
<!-- Node5 -->
<g id="Node000005" class="node">
<title>Node5</title>
<g id="a_Node000005"><a xlink:href="../../df/d1f/iopc_8c.html#a693d2e305d9102c8dd03b6bd0bf61111" target="_top" xlink:title=" ">
<polygon fill="white" stroke="#666666" points="200,-56.25 116.5,-56.25 116.5,-37 200,-37 200,-56.25"/>
<text text-anchor="middle" x="158.25" y="-42.75" font-family="Helvetica,sans-Serif" font-size="10.00">build_doit_table</text>
</a>
</g>
</g>
<!-- Node4&#45;&gt;Node5 -->
<g id="edge4_Node000004_Node000005" class="edge">
<title>Node4&#45;&gt;Node5</title>
<g id="a_edge4_Node000004_Node000005"><a xlink:title=" ">
<path fill="none" stroke="#63b8ff" d="M224.46,-34.92C216.59,-36.33 208.34,-37.82 200.45,-39.23"/>
<polygon fill="#63b8ff" stroke="#63b8ff" points="224.92,-38.4 234.14,-33.18 223.68,-31.51 224.92,-38.4"/>
</a>
</g>
</g>
<!-- Node7 -->
<g id="Node000007" class="node">
<title>Node7</title>
<g id="a_Node000007"><a xlink:href="../../db/d07/iopc-dso_8c.html#a95a19b847fb352eb92b539cf3495f093" target="_top" xlink:title=" ">
<polygon fill="white" stroke="#666666" points="188,-19.25 128.5,-19.25 128.5,0 188,0 188,-19.25"/>
<text text-anchor="middle" x="158.25" y="-5.75" font-family="Helvetica,sans-Serif" font-size="10.00">iopc_build</text>
</a>
</g>
</g>
<!-- Node4&#45;&gt;Node7 -->
<g id="edge6_Node000004_Node000007" class="edge">
<title>Node4&#45;&gt;Node7</title>
<g id="a_edge6_Node000004_Node000007"><a xlink:title=" ">
<path fill="none" stroke="#63b8ff" d="M224.42,-20.71C212.35,-18.65 199.38,-16.45 188.22,-14.55"/>
<polygon fill="#63b8ff" stroke="#63b8ff" points="223.7,-24.13 234.14,-22.36 224.87,-17.23 223.7,-24.13"/>
</a>
</g>
</g>
<!-- Node6 -->
<g id="Node000006" class="node">
<title>Node6</title>
<g id="a_Node000006"><a xlink:href="../../df/d1f/iopc_8c.html#a3c04138a5bfe5d72780bb7e82a18e627" target="_top" xlink:title=" ">
<polygon fill="white" stroke="#666666" points="58.75,-56.25 21.75,-56.25 21.75,-37 58.75,-37 58.75,-56.25"/>
<text text-anchor="middle" x="40.25" y="-42.75" font-family="Helvetica,sans-Serif" font-size="10.00">main</text>
</a>
</g>
</g>
<!-- Node5&#45;&gt;Node6 -->
<g id="edge5_Node000005_Node000006" class="edge">
<title>Node5&#45;&gt;Node6</title>
<g id="a_edge5_Node000005_Node000006"><a xlink:title=" ">
<path fill="none" stroke="#63b8ff" d="M104.81,-46.62C88.37,-46.62 71.34,-46.62 59.05,-46.62"/>
<polygon fill="#63b8ff" stroke="#63b8ff" points="104.51,-50.13 114.51,-46.63 104.51,-43.13 104.51,-50.13"/>
</a>
</g>
</g>
<!-- Node8 -->
<g id="Node000008" class="node">
<title>Node8</title>
<g id="a_Node000008"><a xlink:href="../../db/d07/iopc-dso_8c.html#ab2da67841232fab2872190ddabd94a81" target="_top" xlink:title="Build an IOP DSO.">
<polygon fill="white" stroke="#666666" points="80.5,-19.25 0,-19.25 0,0 80.5,0 80.5,-19.25"/>
<text text-anchor="middle" x="40.25" y="-5.75" font-family="Helvetica,sans-Serif" font-size="10.00">iopc_dso_build</text>
</a>
</g>
</g>
<!-- Node7&#45;&gt;Node8 -->
<g id="edge7_Node000007_Node000008" class="edge">
<title>Node7&#45;&gt;Node8</title>
<g id="a_edge7_Node000007_Node000008"><a xlink:title=" ">
<path fill="none" stroke="#63b8ff" d="M116.99,-9.62C105.26,-9.62 92.46,-9.62 80.78,-9.62"/>
<polygon fill="#63b8ff" stroke="#63b8ff" points="116.76,-13.13 126.76,-9.63 116.76,-6.13 116.76,-13.13"/>
</a>
</g>
</g>
<!-- Node9&#45;&gt;Node3 -->
<g id="edge10_Node000009_Node000003" class="edge">
<title>Node9&#45;&gt;Node3</title>
<g id="a_edge10_Node000009_Node000003"><a xlink:title=" ">
<path fill="none" stroke="#63b8ff" d="M638.88,-65.62C579.99,-65.62 495.36,-65.62 440.87,-65.62"/>
<polygon fill="#63b8ff" stroke="#63b8ff" points="638.78,-69.13 648.78,-65.63 638.78,-62.13 638.78,-69.13"/>
</a>
</g>
</g>
<!-- Node9&#45;&gt;Node4 -->
<g id="edge9_Node000009_Node000004" class="edge">
<title>Node9&#45;&gt;Node4</title>
<g id="a_edge9_Node000009_Node000004"><a xlink:title=" ">
<path fill="none" stroke="#63b8ff" d="M677.52,-50.41C660,-41.86 636.71,-32.03 614.75,-27.62 498.77,-4.38 356.61,-16.73 296.35,-23.79"/>
<polygon fill="#63b8ff" stroke="#63b8ff" points="675.76,-53.45 686.26,-54.84 678.92,-47.2 675.76,-53.45"/>
</a>
</g>
</g>
<!-- Node10 -->
<g id="Node000010" class="node">
<title>Node10</title>
<g id="a_Node000010"><a xlink:href="../../d3/d7b/iopc-lang-c_8blk.html#a60e21f96951fdd7e1bbb43189cc174de" target="_top" xlink:title=" ">
<polygon fill="white" stroke="#666666" points="614.75,-56.25 476.5,-56.25 476.5,-37 614.75,-37 614.75,-56.25"/>
<text text-anchor="middle" x="545.62" y="-42.75" font-family="Helvetica,sans-Serif" font-size="10.00">iopc_iface_struct_dump_src</text>
</a>
</g>
</g>
<!-- Node9&#45;&gt;Node10 -->
<g id="edge11_Node000009_Node000010" class="edge">
<title>Node9&#45;&gt;Node10</title>
<g id="a_edge11_Node000009_Node000010"><a xlink:title=" ">
<path fill="none" stroke="#63b8ff" d="M639.12,-57.67C631.21,-56.72 623.13,-55.76 615.2,-54.81"/>
<polygon fill="#63b8ff" stroke="#63b8ff" points="638.7,-61.14 649.04,-58.85 639.53,-54.19 638.7,-61.14"/>
</a>
</g>
</g>
<!-- Node10&#45;&gt;Node3 -->
<g id="edge12_Node000010_Node000003" class="edge">
<title>Node10&#45;&gt;Node3</title>
<g id="a_edge12_Node000010_Node000003"><a xlink:title=" ">
<path fill="none" stroke="#63b8ff" d="M464.88,-56.26C456.62,-57.26 448.39,-58.25 440.53,-59.2"/>
<polygon fill="#63b8ff" stroke="#63b8ff" points="465.1,-59.76 474.61,-55.08 464.26,-52.81 465.1,-59.76"/>
</a>
</g>
</g>
</g>
</svg>
