<?xml version="1.0" encoding="UTF-8" standalone="no"?>
<!DOCTYPE svg PUBLIC "-//W3C//DTD SVG 1.1//EN"
 "http://www.w3.org/Graphics/SVG/1.1/DTD/svg11.dtd">
<!-- Generated by graphviz version 9.0.0 (20230911.1827)
 -->
<!-- Title: iopc_resolve Pages: 1 -->
<!--zoomable 169 -->

<svg id="main" version="1.1" xmlns="http://www.w3.org/2000/svg" xmlns:xlink="http://www.w3.org/1999/xlink" xml:space="preserve" onload="init(evt)">
<style type="text/css"><![CDATA[
.node, .edge {opacity: 0.7;}
.node.selected, .edge.selected {opacity: 1;}
.edge:hover path { stroke: red; }
.edge:hover polygon { stroke: red; fill: red; }
]]></style>

<defs>
  <circle id="rim" cx="0" cy="0" r="7"/>
  <circle id="rim2" cx="0" cy="0" r="3.5"/>
  <g id="zoomPlus">
    <use xlink:href="#rim" fill="#404040"><set attributeName="fill" to="#808080" begin="zoomplus.mouseover" end="zoomplus.mouseout"/></use>
    <path d="M-4,0h8M0,-4v8" fill="none" stroke="white" stroke-width="1.5" pointer-events="none"/>
  </g>
  <g id="zoomMin">
    <use xlink:href="#rim" fill="#404040"><set attributeName="fill" to="#808080" begin="zoomminus.mouseover" end="zoomminus.mouseout"/></use>
    <path d="M-4,0h8" fill="none" stroke="white" stroke-width="1.5" pointer-events="none"/>
  </g>
  <g id="arrowUp" transform="translate(30 24)">
    <use xlink:href="#rim"/>
    <path pointer-events="none" fill="none" stroke="white" stroke-width="1.5" d="M0,-3.0v7 M-2.5,-0.5L0,-3.0L2.5,-0.5"/>
  </g>
  <g id="arrowRight" transform="rotate(90) translate(36 -43)">
    <use xlink:href="#rim"/>
    <path pointer-events="none" fill="none" stroke="white" stroke-width="1.5" d="M0,-3.0v7 M-2.5,-0.5L0,-3.0L2.5,-0.5"/>
  </g>
  <g id="arrowDown" transform="rotate(180) translate(-30 -48)">
    <use xlink:href="#rim"/>
    <path pointer-events="none" fill="none" stroke="white" stroke-width="1.5" d="M0,-3.0v7 M-2.5,-0.5L0,-3.0L2.5,-0.5"/>
  </g>
  <g id="arrowLeft" transform="rotate(270) translate(-36 17)">
    <use xlink:href="#rim"/>
    <path pointer-events="none" fill="none" stroke="white" stroke-width="1.5" d="M0,-3.0v7 M-2.5,-0.5L0,-3.0L2.5,-0.5"/>
  </g>
  <g id="resetDef">
    <use xlink:href="#rim2" fill="#404040"><set attributeName="fill" to="#808080" begin="reset.mouseover" end="reset.mouseout"/></use>
  </g>
</defs>
<script type="application/ecmascript">
var viewWidth = 836;
var viewHeight = 169;
var sectionId = 'dynsection-90';
</script>
<script type="application/ecmascript" xlink:href="../../svg.min.js"/>
<svg id="graph" class="graph">
<g id="viewport">
<title>iopc_resolve</title>
<!-- Node1 -->
<g id="Node000001" class="node">
<title>Node1</title>
<g id="a_Node000001"><a xlink:title=" ">
<polygon fill="#999999" stroke="#666666" points="828,-76.25 757.25,-76.25 757.25,-57 828,-57 828,-76.25"/>
<text text-anchor="middle" x="792.62" y="-62.75" font-family="Helvetica,sans-Serif" font-size="10.00">iopc_resolve</text>
</a>
</g>
</g>
<!-- Node2 -->
<g id="Node000002" class="node">
<title>Node2</title>
<g id="a_Node000002"><a xlink:href="../../db/d07/iopc-dso_8c.html#a95a19b847fb352eb92b539cf3495f093" target="_top" xlink:title=" ">
<polygon fill="white" stroke="#666666" points="529,-161.25 469.5,-161.25 469.5,-142 529,-142 529,-161.25"/>
<text text-anchor="middle" x="499.25" y="-147.75" font-family="Helvetica,sans-Serif" font-size="10.00">iopc_build</text>
</a>
</g>
</g>
<!-- Node1&#45;&gt;Node2 -->
<g id="edge1_Node000001_Node000002" class="edge">
<title>Node1&#45;&gt;Node2</title>
<g id="a_edge1_Node000001_Node000002"><a xlink:title=" ">
<path fill="none" stroke="#63b8ff" d="M774.61,-84.63C761.35,-97.45 741.8,-113.9 721.25,-122.62 656.77,-149.98 572.99,-153.15 529.44,-152.66"/>
<polygon fill="#63b8ff" stroke="#63b8ff" points="777.08,-87.1 781.65,-77.54 772.12,-82.17 777.08,-87.1"/>
</a>
</g>
</g>
<!-- Node4 -->
<g id="Node000004" class="node">
<title>Node4</title>
<g id="a_Node000004"><a xlink:href="../../d2/d5f/iopc-typer_8blk.html#a50ed283da59e5a81b3135c6272ea50db" target="_top" xlink:title=" ">
<polygon fill="white" stroke="#666666" points="693.5,-19.25 615.25,-19.25 615.25,0 693.5,0 693.5,-19.25"/>
<text text-anchor="middle" x="654.38" y="-5.75" font-family="Helvetica,sans-Serif" font-size="10.00">iopc_i_resolve</text>
</a>
</g>
</g>
<!-- Node1&#45;&gt;Node4 -->
<g id="edge3_Node000001_Node000004" class="edge">
<title>Node1&#45;&gt;Node4</title>
<g id="a_edge3_Node000001_Node000004"><a xlink:title=" ">
<path fill="none" stroke="#63b8ff" d="M773.61,-50.27C759.5,-41.73 739.32,-32.14 721.25,-24.62 712.48,-20.98 702.94,-17.33 693.91,-14.27"/>
<polygon fill="#63b8ff" stroke="#63b8ff" points="771.54,-53.1 781.81,-55.71 775.41,-47.26 771.54,-53.1"/>
</a>
</g>
</g>
<!-- Node5 -->
<g id="Node000005" class="node">
<title>Node5</title>
<g id="a_Node000005"><a xlink:href="../../d2/d5f/iopc-typer_8blk.html#af859dfc8225e7b6f725f8b0b37e7d502" target="_top" xlink:title=" ">
<polygon fill="white" stroke="#666666" points="721.25,-95.25 587.5,-95.25 587.5,-76 721.25,-76 721.25,-95.25"/>
<text text-anchor="middle" x="654.38" y="-81.75" font-family="Helvetica,sans-Serif" font-size="10.00">iopc_resolve_second_pass</text>
</a>
</g>
</g>
<!-- Node1&#45;&gt;Node5 -->
<g id="edge5_Node000001_Node000005" class="edge">
<title>Node1&#45;&gt;Node5</title>
<g id="a_edge5_Node000001_Node000005"><a xlink:title=" ">
<path fill="none" stroke="#63b8ff" d="M745.56,-73.05C737.84,-74.13 729.7,-75.26 721.59,-76.39"/>
<polygon fill="#63b8ff" stroke="#63b8ff" points="745.97,-76.53 755.39,-71.68 745,-69.59 745.97,-76.53"/>
</a>
</g>
</g>
<!-- Node6 -->
<g id="Node000006" class="node">
<title>Node6</title>
<g id="a_Node000006"><a xlink:href="../../df/d1f/iopc_8c.html#a3c04138a5bfe5d72780bb7e82a18e627" target="_top" xlink:title=" ">
<polygon fill="white" stroke="#666666" points="517.75,-105.25 480.75,-105.25 480.75,-86 517.75,-86 517.75,-105.25"/>
<text text-anchor="middle" x="499.25" y="-91.75" font-family="Helvetica,sans-Serif" font-size="10.00">main</text>
</a>
</g>
</g>
<!-- Node1&#45;&gt;Node6 -->
<g id="edge12_Node000001_Node000006" class="edge">
<title>Node1&#45;&gt;Node6</title>
<g id="a_edge12_Node000001_Node000006"><a xlink:title=" ">
<path fill="none" stroke="#63b8ff" d="M768.32,-83.02C755.16,-91.26 738.03,-100.38 721.25,-104.62 647.72,-123.21 556.11,-107.76 518.08,-99.73"/>
<polygon fill="#63b8ff" stroke="#63b8ff" points="770.23,-85.95 776.67,-77.53 766.39,-80.1 770.23,-85.95"/>
</a>
</g>
</g>
<!-- Node7 -->
<g id="Node000007" class="node">
<title>Node7</title>
<g id="a_Node000007"><a xlink:href="../../db/d6e/iopc-iopsq_8c.html#ad9d8b003c04a8df3421b09d35a688cdb" target="_top" xlink:title="Generates an IOP package description from its IOP version.">
<polygon fill="white" stroke="#666666" points="551.5,-68.25 447,-68.25 447,-49 551.5,-49 551.5,-68.25"/>
<text text-anchor="middle" x="499.25" y="-54.75" font-family="Helvetica,sans-Serif" font-size="10.00">mp_iopsq_build_pkg</text>
</a>
</g>
</g>
<!-- Node1&#45;&gt;Node7 -->
<g id="edge13_Node000001_Node000007" class="edge">
<title>Node1&#45;&gt;Node7</title>
<g id="a_edge13_Node000001_Node000007"><a xlink:title=" ">
<path fill="none" stroke="#63b8ff" d="M745.4,-65.36C692.68,-63.91 606.69,-61.55 551.83,-60.04"/>
<polygon fill="#63b8ff" stroke="#63b8ff" points="745.16,-68.85 755.25,-65.63 745.35,-61.85 745.16,-68.85"/>
</a>
</g>
</g>
<!-- Node3 -->
<g id="Node000003" class="node">
<title>Node3</title>
<g id="a_Node000003"><a xlink:href="../../db/d07/iopc-dso_8c.html#ab2da67841232fab2872190ddabd94a81" target="_top" xlink:title="Build an IOP DSO.">
<polygon fill="white" stroke="#666666" points="394.88,-161.25 314.38,-161.25 314.38,-142 394.88,-142 394.88,-161.25"/>
<text text-anchor="middle" x="354.62" y="-147.75" font-family="Helvetica,sans-Serif" font-size="10.00">iopc_dso_build</text>
</a>
</g>
</g>
<!-- Node2&#45;&gt;Node3 -->
<g id="edge2_Node000002_Node000003" class="edge">
<title>Node2&#45;&gt;Node3</title>
<g id="a_edge2_Node000002_Node000003"><a xlink:title=" ">
<path fill="none" stroke="#63b8ff" d="M457.73,-151.62C438.17,-151.62 414.79,-151.62 395.34,-151.62"/>
<polygon fill="#63b8ff" stroke="#63b8ff" points="457.53,-155.13 467.53,-151.63 457.53,-148.13 457.53,-155.13"/>
</a>
</g>
</g>
<!-- Node4&#45;&gt;Node1 -->
<g id="edge4_Node000004_Node000001" class="edge">
<title>Node4&#45;&gt;Node1</title>
<g id="a_edge4_Node000004_Node000001"><a xlink:title=" ">
<path fill="none" stroke="#63b8ff" d="M676.48,-24.56C689.5,-30.32 706.47,-36.48 721.25,-42.62 732.96,-47.49 745.56,-53.24 756.82,-58.11"/>
<polygon fill="#63b8ff" stroke="#63b8ff" points="678.1,-21.45 667.58,-20.26 675.06,-27.76 678.1,-21.45"/>
</a>
</g>
</g>
<!-- Node5&#45;&gt;Node2 -->
<g id="edge6_Node000005_Node000002" class="edge">
<title>Node5&#45;&gt;Node2</title>
<g id="a_edge6_Node000005_Node000002"><a xlink:title=" ">
<path fill="none" stroke="#63b8ff" d="M619.63,-100.17C590.55,-112.7 549.33,-130.47 523.73,-141.51"/>
<polygon fill="#63b8ff" stroke="#63b8ff" points="620.93,-103.42 628.73,-96.25 618.16,-96.99 620.93,-103.42"/>
</a>
</g>
</g>
<!-- Node5&#45;&gt;Node6 -->
<g id="edge7_Node000005_Node000006" class="edge">
<title>Node5&#45;&gt;Node6</title>
<g id="a_edge7_Node000005_Node000006"><a xlink:title=" ">
<path fill="none" stroke="#63b8ff" d="M575.81,-90.69C554.16,-92.1 532.62,-93.51 518.11,-94.46"/>
<polygon fill="#63b8ff" stroke="#63b8ff" points="575.84,-94.2 585.59,-90.05 575.39,-87.21 575.84,-94.2"/>
</a>
</g>
</g>
<!-- Node5&#45;&gt;Node7 -->
<g id="edge8_Node000005_Node000007" class="edge">
<title>Node5&#45;&gt;Node7</title>
<g id="a_edge8_Node000005_Node000007"><a xlink:title=" ">
<path fill="none" stroke="#63b8ff" d="M585.23,-73.61C573.99,-71.63 562.5,-69.6 551.76,-67.71"/>
<polygon fill="#63b8ff" stroke="#63b8ff" points="584.41,-77.02 594.87,-75.31 585.63,-70.12 584.41,-77.02"/>
</a>
</g>
</g>
<!-- Node8 -->
<g id="Node000008" class="node">
<title>Node8</title>
<g id="a_Node000008"><a xlink:href="../../db/d6e/iopc-iopsq_8c.html#ab249c992023713d970929acd2c1e9fed" target="_top" xlink:title="Generates an dumb IOP package from a single package elem description.">
<polygon fill="white" stroke="#666666" points="411,-73.88 298.25,-73.88 298.25,-43.38 411,-43.38 411,-73.88"/>
<text text-anchor="start" x="306.25" y="-60.38" font-family="Helvetica,sans-Serif" font-size="10.00">mp_iopsq_build_mono</text>
<text text-anchor="middle" x="354.62" y="-49.12" font-family="Helvetica,sans-Serif" font-size="10.00">_element_pkg</text>
</a>
</g>
</g>
<!-- Node7&#45;&gt;Node8 -->
<g id="edge9_Node000007_Node000008" class="edge">
<title>Node7&#45;&gt;Node8</title>
<g id="a_edge9_Node000007_Node000008"><a xlink:title=" ">
<path fill="none" stroke="#63b8ff" d="M435.25,-58.62C427.3,-58.62 419.21,-58.62 411.38,-58.62"/>
<polygon fill="#63b8ff" stroke="#63b8ff" points="435.25,-62.13 445.25,-58.63 435.25,-55.13 435.25,-62.13"/>
</a>
</g>
</g>
<!-- Node9 -->
<g id="Node000009" class="node">
<title>Node9</title>
<g id="a_Node000009"><a xlink:href="../../db/d6e/iopc-iopsq_8c.html#aa37570289cdd73d2d1aacb686eb9bd3e" target="_top" xlink:title=" ">
<polygon fill="white" stroke="#666666" points="262.25,-68.25 148.75,-68.25 148.75,-49 262.25,-49 262.25,-68.25"/>
<text text-anchor="middle" x="205.5" y="-54.75" font-family="Helvetica,sans-Serif" font-size="10.00">mp_iopsq_build_struct</text>
</a>
</g>
</g>
<!-- Node8&#45;&gt;Node9 -->
<g id="edge10_Node000008_Node000009" class="edge">
<title>Node8&#45;&gt;Node9</title>
<g id="a_edge10_Node000008_Node000009"><a xlink:title=" ">
<path fill="none" stroke="#63b8ff" d="M286.75,-58.62C278.71,-58.62 270.56,-58.62 262.69,-58.62"/>
<polygon fill="#63b8ff" stroke="#63b8ff" points="286.49,-62.13 296.49,-58.63 286.49,-55.13 286.49,-62.13"/>
</a>
</g>
</g>
<!-- Node10 -->
<g id="Node000010" class="node">
<title>Node10</title>
<g id="a_Node000010"><a xlink:href="../../db/d6e/iopc-iopsq_8c.html#a29da93a7e88dca9ad6e854548eb1ad54" target="_top" xlink:title="Build iopsq_iop_struct_t object.">
<polygon fill="white" stroke="#666666" points="112.75,-68.25 0,-68.25 0,-49 112.75,-49 112.75,-68.25"/>
<text text-anchor="middle" x="56.38" y="-54.75" font-family="Helvetica,sans-Serif" font-size="10.00">iopsq_iop_struct_build</text>
</a>
</g>
</g>
<!-- Node9&#45;&gt;Node10 -->
<g id="edge11_Node000009_Node000010" class="edge">
<title>Node9&#45;&gt;Node10</title>
<g id="a_edge11_Node000009_Node000010"><a xlink:title=" ">
<path fill="none" stroke="#63b8ff" d="M137.07,-58.62C128.94,-58.62 120.71,-58.62 112.77,-58.62"/>
<polygon fill="#63b8ff" stroke="#63b8ff" points="136.95,-62.13 146.95,-58.63 136.95,-55.13 136.95,-62.13"/>
</a>
</g>
</g>
</g>
</svg>

<g id="navigator" transform="translate(0 0)" fill="#404254">
  <rect fill="#f2f5e9" fill-opacity="0.5" stroke="#606060" stroke-width=".5" x="0" y="0" width="60" height="60"/>
  <use id="zoomplus" xlink:href="#zoomPlus" x="17" y="9" onmousedown="handleZoom(evt,'in')"/>
  <use id="zoomminus" xlink:href="#zoomMin" x="42" y="9" onmousedown="handleZoom(evt,'out')"/>
  <use id="reset" xlink:href="#resetDef" x="30" y="36" onmousedown="handleReset()"/>
   <use id="arrowup" xlink:href="#arrowUp" x="0" y="0" onmousedown="handlePan(0,-1)"/>
  <use id="arrowright" xlink:href="#arrowRight" x="0" y="0" onmousedown="handlePan(1,0)"/>
  <use id="arrowdown" xlink:href="#arrowDown" x="0" y="0" onmousedown="handlePan(0,1)"/>
  <use id="arrowleft" xlink:href="#arrowLeft" x="0" y="0" onmousedown="handlePan(-1,0)"/>
</g>
<svg viewBox="0 0 15 15" width="100%" height="30px" preserveAspectRatio="xMaxYMin meet">
 <g id="arrow_out" transform="scale(0.3 0.3)">
  <a xlink:href="iopc_8h_aee5849cd8d517719157a2ac80bd41ad7_icgraph_org.svg" target="_base">
   <rect id="button" ry="5" rx="5" y="6" x="6" height="38" width="38"
        fill="#f2f5e9" fill-opacity="0.5" stroke="#606060" stroke-width="1.0"/>
   <path id="arrow"
     d="M 11.500037,31.436501 C 11.940474,20.09759 22.043105,11.32322 32.158766,21.979434 L 37.068811,17.246167 C 37.068811,17.246167 37.088388,32 37.088388,32 L 22.160133,31.978069 C 22.160133,31.978069 26.997745,27.140456 26.997745,27.140456 C 18.528582,18.264221 13.291696,25.230495 11.500037,31.436501 z"
     style="fill:#404040;"/>
  </a>
 </g>
</svg>

<style type='text/css'>
<![CDATA[
[data-mouse-over-selected='false'] { opacity: 0.7; }
[data-mouse-over-selected='true']  { opacity: 1.0; }
]]>
</style>
<script type="application/ecmascript"><![CDATA[
document.addEventListener('DOMContentLoaded', (event) => {
  highlightEdges();
  highlightAdjacentNodes();
});
]]></script>
</svg>
