<?xml version="1.0" encoding="UTF-8" standalone="no"?>
<!DOCTYPE svg PUBLIC "-//W3C//DTD SVG 1.1//EN"
 "http://www.w3.org/Graphics/SVG/1.1/DTD/svg11.dtd">
<!-- Generated by graphviz version 9.0.0 (20230911.1827)
 -->
<!-- Title: iopc_fun_struct_is_void Pages: 1 -->
<svg width="2027pt" height="498pt"
 viewBox="0.00 0.00 2026.75 497.98" xmlns="http://www.w3.org/2000/svg" xmlns:xlink="http://www.w3.org/1999/xlink">
<g id="graph0" class="graph" transform="scale(1 1) rotate(0) translate(4 493.98)">
<title>iopc_fun_struct_is_void</title>
<!-- Node1 -->
<g id="Node000001" class="node">
<title>Node1</title>
<g id="a_Node000001"><a xlink:title=" ">
<polygon fill="#999999" stroke="#666666" points="2018.75,-289.15 1900,-289.15 1900,-269.9 2018.75,-269.9 2018.75,-289.15"/>
<text text-anchor="middle" x="1959.38" y="-275.65" font-family="Helvetica,sans-Serif" font-size="10.00">iopc_fun_struct_is_void</text>
</a>
</g>
</g>
<!-- Node2 -->
<g id="Node000002" class="node">
<title>Node2</title>
<g id="a_Node000002"><a xlink:href="../../d1/dd4/iopc-lang-typescript_8c.html#ab5858ae19053b4f3b746264197c3a8cf" target="_top" xlink:title=" ">
<polygon fill="white" stroke="#666666" points="1666.88,-375.15 1584.88,-375.15 1584.88,-355.9 1666.88,-355.9 1666.88,-375.15"/>
<text text-anchor="middle" x="1625.88" y="-361.65" font-family="Helvetica,sans-Serif" font-size="10.00">iopc_dump_rpc</text>
</a>
</g>
</g>
<!-- Node1&#45;&gt;Node2 -->
<g id="edge1_Node000001_Node000002" class="edge">
<title>Node1&#45;&gt;Node2</title>
<g id="a_edge1_Node000001_Node000002"><a xlink:title=" ">
<path fill="none" stroke="#63b8ff" d="M1940.15,-297.1C1922.31,-313.08 1893.59,-335.77 1864,-346.53 1798.21,-370.44 1715.59,-371.02 1667.26,-368.68"/>
<polygon fill="#63b8ff" stroke="#63b8ff" points="1942.34,-299.83 1947.31,-290.48 1937.59,-294.69 1942.34,-299.83"/>
</a>
</g>
</g>
<!-- Node8 -->
<g id="Node000008" class="node">
<title>Node8</title>
<g id="a_Node000008"><a xlink:href="../../d1/dd4/iopc-lang-typescript_8c.html#a00aebd11a7c635ba6ac1f93e0eed1c52" target="_top" xlink:title=" ">
<polygon fill="white" stroke="#666666" points="1860.25,-413.15 1729.5,-413.15 1729.5,-393.9 1860.25,-393.9 1860.25,-413.15"/>
<text text-anchor="middle" x="1794.88" y="-399.65" font-family="Helvetica,sans-Serif" font-size="10.00">iopc_dump_rpc_fun_struct</text>
</a>
</g>
</g>
<!-- Node1&#45;&gt;Node8 -->
<g id="edge7_Node000001_Node000008" class="edge">
<title>Node1&#45;&gt;Node8</title>
<g id="a_edge7_Node000001_Node000008"><a xlink:title=" ">
<path fill="none" stroke="#63b8ff" d="M1944.83,-298.67C1928.15,-320.96 1897.84,-357.52 1864,-379.53 1855.06,-385.34 1844.55,-389.94 1834.49,-393.49"/>
<polygon fill="#63b8ff" stroke="#63b8ff" points="1947.54,-300.9 1950.61,-290.76 1941.88,-296.77 1947.54,-300.9"/>
</a>
</g>
</g>
<!-- Node9 -->
<g id="Node000009" class="node">
<title>Node9</title>
<g id="a_Node000009"><a xlink:href="../../d1/dd5/iopc-lang-json_8blk.html#ac45ab991915e07ce98fb2b24036cb316" target="_top" xlink:title=" ">
<polygon fill="white" stroke="#666666" points="1862.5,-76.15 1727.25,-76.15 1727.25,-56.9 1862.5,-56.9 1862.5,-76.15"/>
<text text-anchor="middle" x="1794.88" y="-62.65" font-family="Helvetica,sans-Serif" font-size="10.00">iopc_fun_struct_dump_json</text>
</a>
</g>
</g>
<!-- Node1&#45;&gt;Node9 -->
<g id="edge9_Node000001_Node000009" class="edge">
<title>Node1&#45;&gt;Node9</title>
<g id="a_edge9_Node000001_Node000009"><a xlink:title=" ">
<path fill="none" stroke="#63b8ff" d="M1951.38,-259.09C1938.63,-224.25 1908.72,-152.68 1864,-106.53 1851.5,-93.62 1833.95,-83.45 1819.8,-76.6"/>
<polygon fill="#63b8ff" stroke="#63b8ff" points="1948.02,-260.09 1954.67,-268.35 1954.62,-257.75 1948.02,-260.09"/>
</a>
</g>
</g>
<!-- Node11 -->
<g id="Node000011" class="node">
<title>Node11</title>
<g id="a_Node000011"><a xlink:href="../../d3/d7b/iopc-lang-c_8blk.html#a04054448c7f507ae72403c4fcd3f0cde" target="_top" xlink:title=" ">
<polygon fill="white" stroke="#666666" points="1850.88,-337.78 1738.88,-337.78 1738.88,-307.28 1850.88,-307.28 1850.88,-337.78"/>
<text text-anchor="start" x="1746.88" y="-324.28" font-family="Helvetica,sans-Serif" font-size="10.00">iopc_fun_struct_dump</text>
<text text-anchor="middle" x="1794.88" y="-313.03" font-family="Helvetica,sans-Serif" font-size="10.00">_tdef_hdr</text>
</a>
</g>
</g>
<!-- Node1&#45;&gt;Node11 -->
<g id="edge11_Node000001_Node000011" class="edge">
<title>Node1&#45;&gt;Node11</title>
<g id="a_edge11_Node000001_Node000011"><a xlink:title=" ">
<path fill="none" stroke="#63b8ff" d="M1909.26,-292.52C1890.98,-297.36 1870.1,-302.89 1851.28,-307.87"/>
<polygon fill="#63b8ff" stroke="#63b8ff" points="1910.04,-295.94 1918.81,-290 1908.25,-289.17 1910.04,-295.94"/>
</a>
</g>
</g>
<!-- Node16 -->
<g id="Node000016" class="node">
<title>Node16</title>
<g id="a_Node000016"><a xlink:href="../../d2/d5f/iopc-typer_8blk.html#a74cc635598e9c9067987e1b1ff496e61" target="_top" xlink:title=" ">
<polygon fill="white" stroke="#666666" points="1689.75,-489.15 1562,-489.15 1562,-469.9 1689.75,-469.9 1689.75,-489.15"/>
<text text-anchor="middle" x="1625.88" y="-475.65" font-family="Helvetica,sans-Serif" font-size="10.00">iopc_fun_struct_get_deps</text>
</a>
</g>
</g>
<!-- Node1&#45;&gt;Node16 -->
<g id="edge17_Node000001_Node000016" class="edge">
<title>Node1&#45;&gt;Node16</title>
<g id="a_edge17_Node000001_Node000016"><a xlink:title=" ">
<path fill="none" stroke="#63b8ff" d="M1953.91,-300.46C1944.58,-338.55 1919.14,-418.63 1864,-455.53 1812.93,-489.7 1741.32,-492.3 1690.18,-488.46"/>
<polygon fill="#63b8ff" stroke="#63b8ff" points="1957.31,-301.28 1956.14,-290.75 1950.49,-299.72 1957.31,-301.28"/>
</a>
</g>
</g>
<!-- Node17 -->
<g id="Node000017" class="node">
<title>Node17</title>
<g id="a_Node000017"><a xlink:href="../../d2/d5f/iopc-typer_8blk.html#ac6ce00be129b2f99f69935a154902e83" target="_top" xlink:title="For a given IOPC package, list the other IOPC packages it depends on.">
<polygon fill="white" stroke="#666666" points="1511,-448.15 1411,-448.15 1411,-428.9 1511,-428.9 1511,-448.15"/>
<text text-anchor="middle" x="1461" y="-434.65" font-family="Helvetica,sans-Serif" font-size="10.00">iopc_pkg_get_deps</text>
</a>
</g>
</g>
<!-- Node1&#45;&gt;Node17 -->
<g id="edge42_Node000001_Node000017" class="edge">
<title>Node1&#45;&gt;Node17</title>
<g id="a_edge42_Node000001_Node000017"><a xlink:title=" ">
<path fill="none" stroke="#63b8ff" d="M1951.73,-300.05C1939.95,-332.68 1911.99,-395.45 1864,-422.53 1805.07,-455.77 1605.07,-447.86 1511.3,-442.05"/>
<polygon fill="#63b8ff" stroke="#63b8ff" points="1954.92,-301.54 1954.86,-290.95 1948.3,-299.27 1954.92,-301.54"/>
</a>
</g>
</g>
<!-- Node20 -->
<g id="Node000020" class="node">
<title>Node20</title>
<g id="a_Node000020"><a xlink:href="../../d2/d5f/iopc-typer_8blk.html#a9a6161c44b4effb0c569eb363f056e0c" target="_top" xlink:title=" ">
<polygon fill="white" stroke="#666666" points="1086.5,-183.78 989.5,-183.78 989.5,-153.28 1086.5,-153.28 1086.5,-183.78"/>
<text text-anchor="start" x="997.5" y="-170.28" font-family="Helvetica,sans-Serif" font-size="10.00">iopc_i_resolve_fun</text>
<text text-anchor="middle" x="1038" y="-159.03" font-family="Helvetica,sans-Serif" font-size="10.00">_struct</text>
</a>
</g>
</g>
<!-- Node1&#45;&gt;Node20 -->
<g id="edge24_Node000001_Node000020" class="edge">
<title>Node1&#45;&gt;Node20</title>
<g id="a_edge24_Node000001_Node000020"><a xlink:title=" ">
<path fill="none" stroke="#63b8ff" d="M1943.71,-260.79C1926.9,-240.92 1897.32,-210.65 1864,-197.53 1721.32,-141.32 1240.68,-158.82 1086.81,-166.07"/>
<polygon fill="#63b8ff" stroke="#63b8ff" points="1940.9,-262.88 1949.94,-268.41 1946.32,-258.45 1940.9,-262.88"/>
</a>
</g>
</g>
<!-- Node28 -->
<g id="Node000028" class="node">
<title>Node28</title>
<g id="a_Node000028"><a xlink:href="../../d3/d7b/iopc-lang-c_8blk.html#a60e8f426c2193869d8bd3daaecdc8173" target="_top" xlink:title=" ">
<polygon fill="white" stroke="#666666" points="1515.12,-271.15 1406.88,-271.15 1406.88,-251.9 1515.12,-251.9 1515.12,-271.15"/>
<text text-anchor="middle" x="1461" y="-257.65" font-family="Helvetica,sans-Serif" font-size="10.00">iopc_iface_dump_src</text>
</a>
</g>
</g>
<!-- Node1&#45;&gt;Node28 -->
<g id="edge38_Node000001_Node000028" class="edge">
<title>Node1&#45;&gt;Node28</title>
<g id="a_edge38_Node000001_Node000028"><a xlink:title=" ">
<path fill="none" stroke="#63b8ff" d="M1937.48,-262.61C1919.29,-249.06 1891.59,-231.1 1864,-223.53 1734.56,-188.01 1694.02,-199.29 1562,-223.53 1533.14,-228.83 1501.81,-242.06 1482.06,-251.41"/>
<polygon fill="#63b8ff" stroke="#63b8ff" points="1935.28,-265.34 1945.34,-268.67 1939.55,-259.8 1935.28,-265.34"/>
</a>
</g>
</g>
<!-- Node29 -->
<g id="Node000029" class="node">
<title>Node29</title>
<g id="a_Node000029"><a xlink:href="../../d3/d7b/iopc-lang-c_8blk.html#a60e21f96951fdd7e1bbb43189cc174de" target="_top" xlink:title=" ">
<polygon fill="white" stroke="#666666" points="1864,-289.15 1725.75,-289.15 1725.75,-269.9 1864,-269.9 1864,-289.15"/>
<text text-anchor="middle" x="1794.88" y="-275.65" font-family="Helvetica,sans-Serif" font-size="10.00">iopc_iface_struct_dump_src</text>
</a>
</g>
</g>
<!-- Node1&#45;&gt;Node29 -->
<g id="edge40_Node000001_Node000029" class="edge">
<title>Node1&#45;&gt;Node29</title>
<g id="a_edge40_Node000001_Node000029"><a xlink:title=" ">
<path fill="none" stroke="#63b8ff" d="M1888.26,-279.53C1880.35,-279.53 1872.3,-279.53 1864.41,-279.53"/>
<polygon fill="#63b8ff" stroke="#63b8ff" points="1888.2,-283.03 1898.2,-279.53 1888.2,-276.03 1888.2,-283.03"/>
</a>
</g>
</g>
<!-- Node30 -->
<g id="Node000030" class="node">
<title>Node30</title>
<g id="a_Node000030"><a xlink:href="../../d3/d7b/iopc-lang-c_8blk.html#ab1ef417141644c32a6ab85f541a00638" target="_top" xlink:title=" ">
<polygon fill="white" stroke="#666666" points="1855,-252.15 1734.75,-252.15 1734.75,-232.9 1855,-232.9 1855,-252.15"/>
<text text-anchor="middle" x="1794.88" y="-238.65" font-family="Helvetica,sans-Serif" font-size="10.00">iopc_register_fun_struct</text>
</a>
</g>
</g>
<!-- Node1&#45;&gt;Node30 -->
<g id="edge43_Node000001_Node000030" class="edge">
<title>Node1&#45;&gt;Node30</title>
<g id="a_edge43_Node000001_Node000030"><a xlink:title=" ">
<path fill="none" stroke="#63b8ff" d="M1902.9,-266.9C1882.45,-262.24 1859.56,-257.03 1840.23,-252.63"/>
<polygon fill="#63b8ff" stroke="#63b8ff" points="1901.97,-270.27 1912.5,-269.08 1903.52,-263.45 1901.97,-270.27"/>
</a>
</g>
</g>
<!-- Node32 -->
<g id="Node000032" class="node">
<title>Node32</title>
<g id="a_Node000032"><a xlink:href="../../d2/d5f/iopc-typer_8blk.html#ae0e0db214456a17d694e5cb214f7e57f" target="_top" xlink:title=" ">
<polygon fill="white" stroke="#666666" points="1858,-135.15 1731.75,-135.15 1731.75,-115.9 1858,-115.9 1858,-135.15"/>
<text text-anchor="middle" x="1794.88" y="-121.65" font-family="Helvetica,sans-Serif" font-size="10.00">iopc_snmp_iface_resolve</text>
</a>
</g>
</g>
<!-- Node1&#45;&gt;Node32 -->
<g id="edge46_Node000001_Node000032" class="edge">
<title>Node1&#45;&gt;Node32</title>
<g id="a_edge46_Node000001_Node000032"><a xlink:title=" ">
<path fill="none" stroke="#63b8ff" d="M1948.12,-259.42C1933.11,-231.81 1902.69,-182.22 1864,-152.53 1854.51,-145.25 1842.81,-139.67 1831.79,-135.53"/>
<polygon fill="#63b8ff" stroke="#63b8ff" points="1944.95,-260.92 1952.72,-268.13 1951.14,-257.65 1944.95,-260.92"/>
</a>
</g>
</g>
<!-- Node3 -->
<g id="Node000003" class="node">
<title>Node3</title>
<g id="a_Node000003"><a xlink:href="../../d1/dd4/iopc-lang-typescript_8c.html#a4b32fbe3aa343a8de04a02750c10f234" target="_top" xlink:title=" ">
<polygon fill="white" stroke="#666666" points="1505.75,-374.15 1416.25,-374.15 1416.25,-354.9 1505.75,-354.9 1505.75,-374.15"/>
<text text-anchor="middle" x="1461" y="-360.65" font-family="Helvetica,sans-Serif" font-size="10.00">iopc_dump_iface</text>
</a>
</g>
</g>
<!-- Node2&#45;&gt;Node3 -->
<g id="edge2_Node000002_Node000003" class="edge">
<title>Node2&#45;&gt;Node3</title>
<g id="a_edge2_Node000002_Node000003"><a xlink:title=" ">
<path fill="none" stroke="#63b8ff" d="M1573.32,-365.21C1551.71,-365.08 1526.83,-364.93 1506.09,-364.8"/>
<polygon fill="#63b8ff" stroke="#63b8ff" points="1573.08,-368.71 1583.1,-365.27 1573.12,-361.71 1573.08,-368.71"/>
</a>
</g>
</g>
<!-- Node4 -->
<g id="Node000004" class="node">
<title>Node4</title>
<g id="a_Node000004"><a xlink:href="../../d1/dd4/iopc-lang-typescript_8c.html#a4bbe9514b7e11bdbea28ac38a641b01f" target="_top" xlink:title=" ">
<polygon fill="white" stroke="#666666" points="1357,-373.15 1262.25,-373.15 1262.25,-353.9 1357,-353.9 1357,-373.15"/>
<text text-anchor="middle" x="1309.62" y="-359.65" font-family="Helvetica,sans-Serif" font-size="10.00">iopc_dump_ifaces</text>
</a>
</g>
</g>
<!-- Node3&#45;&gt;Node4 -->
<g id="edge3_Node000003_Node000004" class="edge">
<title>Node3&#45;&gt;Node4</title>
<g id="a_edge3_Node000003_Node000004"><a xlink:title=" ">
<path fill="none" stroke="#63b8ff" d="M1404.9,-364.16C1389.31,-364.05 1372.49,-363.94 1357.44,-363.84"/>
<polygon fill="#63b8ff" stroke="#63b8ff" points="1404.45,-367.66 1414.48,-364.22 1404.5,-360.66 1404.45,-367.66"/>
</a>
</g>
</g>
<!-- Node5 -->
<g id="Node000005" class="node">
<title>Node5</title>
<g id="a_Node000005"><a xlink:href="../../d1/dd4/iopc-lang-typescript_8c.html#a07411678a061106110276eed638ca85d" target="_top" xlink:title=" ">
<polygon fill="white" stroke="#666666" points="1221.38,-373.15 1124.38,-373.15 1124.38,-353.9 1221.38,-353.9 1221.38,-373.15"/>
<text text-anchor="middle" x="1172.88" y="-359.65" font-family="Helvetica,sans-Serif" font-size="10.00">iopc_do_typescript</text>
</a>
</g>
</g>
<!-- Node4&#45;&gt;Node5 -->
<g id="edge4_Node000004_Node000005" class="edge">
<title>Node4&#45;&gt;Node5</title>
<g id="a_edge4_Node000004_Node000005"><a xlink:title=" ">
<path fill="none" stroke="#63b8ff" d="M1250.62,-363.53C1240.89,-363.53 1230.89,-363.53 1221.46,-363.53"/>
<polygon fill="#63b8ff" stroke="#63b8ff" points="1250.36,-367.03 1260.36,-363.53 1250.36,-360.03 1250.36,-367.03"/>
</a>
</g>
</g>
<!-- Node6 -->
<g id="Node000006" class="node">
<title>Node6</title>
<g id="a_Node000006"><a xlink:href="../../df/d1f/iopc_8c.html#a693d2e305d9102c8dd03b6bd0bf61111" target="_top" xlink:title=" ">
<polygon fill="white" stroke="#666666" points="1079.75,-333.15 996.25,-333.15 996.25,-313.9 1079.75,-313.9 1079.75,-333.15"/>
<text text-anchor="middle" x="1038" y="-319.65" font-family="Helvetica,sans-Serif" font-size="10.00">build_doit_table</text>
</a>
</g>
</g>
<!-- Node5&#45;&gt;Node6 -->
<g id="edge5_Node000005_Node000006" class="edge">
<title>Node5&#45;&gt;Node6</title>
<g id="a_edge5_Node000005_Node000006"><a xlink:title=" ">
<path fill="none" stroke="#63b8ff" d="M1127.54,-350.18C1109.58,-344.77 1089.2,-338.64 1072.52,-333.62"/>
<polygon fill="#63b8ff" stroke="#63b8ff" points="1126.31,-353.47 1136.9,-353 1128.33,-346.76 1126.31,-353.47"/>
</a>
</g>
</g>
<!-- Node7 -->
<g id="Node000007" class="node">
<title>Node7</title>
<g id="a_Node000007"><a xlink:href="../../df/d1f/iopc_8c.html#a3c04138a5bfe5d72780bb7e82a18e627" target="_top" xlink:title=" ">
<polygon fill="white" stroke="#666666" points="517.75,-295.15 480.75,-295.15 480.75,-275.9 517.75,-275.9 517.75,-295.15"/>
<text text-anchor="middle" x="499.25" y="-281.65" font-family="Helvetica,sans-Serif" font-size="10.00">main</text>
</a>
</g>
</g>
<!-- Node6&#45;&gt;Node7 -->
<g id="edge6_Node000006_Node000007" class="edge">
<title>Node6&#45;&gt;Node7</title>
<g id="a_edge6_Node000006_Node000007"><a xlink:title=" ">
<path fill="none" stroke="#63b8ff" d="M984.71,-322.53C900.75,-320.52 730.74,-314.8 587.5,-299.53 563.4,-296.96 535.81,-292.23 518.22,-288.98"/>
<polygon fill="#63b8ff" stroke="#63b8ff" points="984.39,-326.02 994.47,-322.75 984.55,-319.02 984.39,-326.02"/>
</a>
</g>
</g>
<!-- Node8&#45;&gt;Node2 -->
<g id="edge8_Node000008_Node000002" class="edge">
<title>Node8&#45;&gt;Node2</title>
<g id="a_edge8_Node000008_Node000002"><a xlink:title=" ">
<path fill="none" stroke="#63b8ff" d="M1738.42,-390.91C1715.1,-385.6 1688.49,-379.55 1667.11,-374.68"/>
<polygon fill="#63b8ff" stroke="#63b8ff" points="1737.56,-394.3 1748.08,-393.11 1739.11,-387.48 1737.56,-394.3"/>
</a>
</g>
</g>
<!-- Node10 -->
<g id="Node000010" class="node">
<title>Node10</title>
<g id="a_Node000010"><a xlink:href="../../d1/dd5/iopc-lang-json_8blk.html#ae7f168dfbb317f0e26765718338fae9b" target="_top" xlink:title=" ">
<polygon fill="white" stroke="#666666" points="1682.25,-55.15 1569.5,-55.15 1569.5,-35.9 1682.25,-35.9 1682.25,-55.15"/>
<text text-anchor="middle" x="1625.88" y="-41.65" font-family="Helvetica,sans-Serif" font-size="10.00">iopc_iface_dump_json</text>
</a>
</g>
</g>
<!-- Node9&#45;&gt;Node10 -->
<g id="edge10_Node000009_Node000010" class="edge">
<title>Node9&#45;&gt;Node10</title>
<g id="a_edge10_Node000009_Node000010"><a xlink:title=" ">
<path fill="none" stroke="#63b8ff" d="M1715.78,-56.71C1704.58,-55.3 1693.25,-53.87 1682.6,-52.53"/>
<polygon fill="#63b8ff" stroke="#63b8ff" points="1715.05,-60.14 1725.41,-57.92 1715.93,-53.2 1715.05,-60.14"/>
</a>
</g>
</g>
<!-- Node12 -->
<g id="Node000012" class="node">
<title>Node12</title>
<g id="a_Node000012"><a xlink:href="../../d3/d7b/iopc-lang-c_8blk.html#acf8fac91302b10b0c44ffcfeb497b83e" target="_top" xlink:title=" ">
<polygon fill="white" stroke="#666666" points="1526,-332.15 1396,-332.15 1396,-312.9 1526,-312.9 1526,-332.15"/>
<text text-anchor="middle" x="1461" y="-318.65" font-family="Helvetica,sans-Serif" font-size="10.00">iopc_iface_dump_tdef_hdr</text>
</a>
</g>
</g>
<!-- Node11&#45;&gt;Node12 -->
<g id="edge12_Node000011_Node000012" class="edge">
<title>Node11&#45;&gt;Node12</title>
<g id="a_edge12_Node000011_Node000012"><a xlink:title=" ">
<path fill="none" stroke="#63b8ff" d="M1727.37,-322.53C1668.87,-322.53 1584.27,-322.53 1526.41,-322.53"/>
<polygon fill="#63b8ff" stroke="#63b8ff" points="1727.19,-326.03 1737.19,-322.53 1727.19,-319.03 1727.19,-326.03"/>
</a>
</g>
</g>
<!-- Node13 -->
<g id="Node000013" class="node">
<title>Node13</title>
<g id="a_Node000013"><a xlink:href="../../d3/d7b/iopc-lang-c_8blk.html#ac633cc5263e2185fcaaaa32bff48aade" target="_top" xlink:title=" ">
<polygon fill="white" stroke="#666666" points="1339.75,-332.15 1279.5,-332.15 1279.5,-312.9 1339.75,-312.9 1339.75,-332.15"/>
<text text-anchor="middle" x="1309.62" y="-318.65" font-family="Helvetica,sans-Serif" font-size="10.00">iopc_do_c</text>
</a>
</g>
</g>
<!-- Node12&#45;&gt;Node13 -->
<g id="edge13_Node000012_Node000013" class="edge">
<title>Node12&#45;&gt;Node13</title>
<g id="a_edge13_Node000012_Node000013"><a xlink:title=" ">
<path fill="none" stroke="#63b8ff" d="M1384.32,-322.53C1368.53,-322.53 1352.8,-322.53 1339.95,-322.53"/>
<polygon fill="#63b8ff" stroke="#63b8ff" points="1384.27,-326.03 1394.27,-322.53 1384.27,-319.03 1384.27,-326.03"/>
</a>
</g>
</g>
<!-- Node13&#45;&gt;Node6 -->
<g id="edge14_Node000013_Node000006" class="edge">
<title>Node13&#45;&gt;Node6</title>
<g id="a_edge14_Node000013_Node000006"><a xlink:title=" ">
<path fill="none" stroke="#63b8ff" d="M1267.78,-322.68C1217.06,-322.87 1131.05,-323.19 1080.18,-323.37"/>
<polygon fill="#63b8ff" stroke="#63b8ff" points="1267.76,-326.18 1277.74,-322.64 1267.73,-319.18 1267.76,-326.18"/>
</a>
</g>
</g>
<!-- Node14 -->
<g id="Node000014" class="node">
<title>Node14</title>
<g id="a_Node000014"><a xlink:href="../../db/d07/iopc-dso_8c.html#a95a19b847fb352eb92b539cf3495f093" target="_top" xlink:title=" ">
<polygon fill="white" stroke="#666666" points="529,-219.15 469.5,-219.15 469.5,-199.9 529,-199.9 529,-219.15"/>
<text text-anchor="middle" x="499.25" y="-205.65" font-family="Helvetica,sans-Serif" font-size="10.00">iopc_build</text>
</a>
</g>
</g>
<!-- Node13&#45;&gt;Node14 -->
<g id="edge15_Node000013_Node000014" class="edge">
<title>Node13&#45;&gt;Node14</title>
<g id="a_edge15_Node000013_Node000014"><a xlink:title=" ">
<path fill="none" stroke="#63b8ff" d="M1268.11,-313.45C1215.56,-302.5 1120.92,-285.53 1039,-285.53 1039,-285.53 1039,-285.53 791.62,-285.53 688.38,-285.53 571.01,-240.29 522.77,-219.62"/>
<polygon fill="#63b8ff" stroke="#63b8ff" points="1267.29,-316.86 1277.8,-315.51 1268.75,-310.01 1267.29,-316.86"/>
</a>
</g>
</g>
<!-- Node15 -->
<g id="Node000015" class="node">
<title>Node15</title>
<g id="a_Node000015"><a xlink:href="../../db/d07/iopc-dso_8c.html#ab2da67841232fab2872190ddabd94a81" target="_top" xlink:title="Build an IOP DSO.">
<polygon fill="white" stroke="#666666" points="394.88,-219.15 314.38,-219.15 314.38,-199.9 394.88,-199.9 394.88,-219.15"/>
<text text-anchor="middle" x="354.62" y="-205.65" font-family="Helvetica,sans-Serif" font-size="10.00">iopc_dso_build</text>
</a>
</g>
</g>
<!-- Node14&#45;&gt;Node15 -->
<g id="edge16_Node000014_Node000015" class="edge">
<title>Node14&#45;&gt;Node15</title>
<g id="a_edge16_Node000014_Node000015"><a xlink:title=" ">
<path fill="none" stroke="#63b8ff" d="M457.73,-209.53C438.17,-209.53 414.79,-209.53 395.34,-209.53"/>
<polygon fill="#63b8ff" stroke="#63b8ff" points="457.53,-213.03 467.53,-209.53 457.53,-206.03 457.53,-213.03"/>
</a>
</g>
</g>
<!-- Node16&#45;&gt;Node17 -->
<g id="edge18_Node000016_Node000017" class="edge">
<title>Node16&#45;&gt;Node17</title>
<g id="a_edge18_Node000016_Node000017"><a xlink:title=" ">
<path fill="none" stroke="#63b8ff" d="M1573.99,-466.72C1550.79,-460.88 1523.71,-454.06 1502,-448.6"/>
<polygon fill="#63b8ff" stroke="#63b8ff" points="1573.01,-470.08 1583.56,-469.13 1574.72,-463.29 1573.01,-470.08"/>
</a>
</g>
</g>
<!-- Node17&#45;&gt;Node13 -->
<g id="edge19_Node000017_Node000013" class="edge">
<title>Node17&#45;&gt;Node13</title>
<g id="a_edge19_Node000017_Node000013"><a xlink:title=" ">
<path fill="none" stroke="#63b8ff" d="M1439.28,-421.76C1426.49,-411.15 1409.91,-396.95 1396,-383.53 1379.03,-367.15 1379.17,-358.28 1360,-344.53 1353.52,-339.88 1345.9,-335.89 1338.61,-332.64"/>
<polygon fill="#63b8ff" stroke="#63b8ff" points="1436.72,-424.19 1446.67,-427.83 1441.17,-418.78 1436.72,-424.19"/>
</a>
</g>
</g>
<!-- Node18 -->
<g id="Node000018" class="node">
<title>Node18</title>
<g id="a_Node000018"><a xlink:href="../../d1/dd4/iopc-lang-typescript_8c.html#a188a7fabc304a7dc1e42b42e98b69c90" target="_top" xlink:title=" ">
<polygon fill="white" stroke="#666666" points="1360,-410.15 1259.25,-410.15 1259.25,-390.9 1360,-390.9 1360,-410.15"/>
<text text-anchor="middle" x="1309.62" y="-396.65" font-family="Helvetica,sans-Serif" font-size="10.00">iopc_dump_imports</text>
</a>
</g>
</g>
<!-- Node17&#45;&gt;Node18 -->
<g id="edge20_Node000017_Node000018" class="edge">
<title>Node17&#45;&gt;Node18</title>
<g id="a_edge20_Node000017_Node000018"><a xlink:title=" ">
<path fill="none" stroke="#63b8ff" d="M1409.32,-425.63C1390.01,-420.72 1368.31,-415.2 1350.19,-410.59"/>
<polygon fill="#63b8ff" stroke="#63b8ff" points="1408.34,-429 1418.9,-428.07 1410.07,-422.21 1408.34,-429"/>
</a>
</g>
</g>
<!-- Node19 -->
<g id="Node000019" class="node">
<title>Node19</title>
<g id="a_Node000019"><a xlink:href="../../df/d1f/iopc_8c.html#abf38dc7cfc87d0cd63f288fdc7bc804e" target="_top" xlink:title=" ">
<polygon fill="white" stroke="#666666" points="953.5,-410.15 864,-410.15 864,-390.9 953.5,-390.9 953.5,-410.15"/>
<text text-anchor="middle" x="908.75" y="-396.65" font-family="Helvetica,sans-Serif" font-size="10.00">sb_add_depends</text>
</a>
</g>
</g>
<!-- Node17&#45;&gt;Node19 -->
<g id="edge22_Node000017_Node000019" class="edge">
<title>Node17&#45;&gt;Node19</title>
<g id="a_edge22_Node000017_Node000019"><a xlink:title=" ">
<path fill="none" stroke="#63b8ff" d="M1399.29,-434.34C1287.51,-426.62 1051.61,-410.32 953.74,-403.57"/>
<polygon fill="#63b8ff" stroke="#63b8ff" points="1398.96,-437.82 1409.17,-435.02 1399.44,-430.84 1398.96,-437.82"/>
</a>
</g>
</g>
<!-- Node18&#45;&gt;Node5 -->
<g id="edge21_Node000018_Node000005" class="edge">
<title>Node18&#45;&gt;Node5</title>
<g id="a_edge21_Node000018_Node000005"><a xlink:title=" ">
<path fill="none" stroke="#63b8ff" d="M1260.73,-387.38C1244.26,-382.85 1226.09,-377.87 1210.65,-373.63"/>
<polygon fill="#63b8ff" stroke="#63b8ff" points="1259.77,-390.74 1270.34,-390.02 1261.63,-383.99 1259.77,-390.74"/>
</a>
</g>
</g>
<!-- Node19&#45;&gt;Node7 -->
<g id="edge23_Node000019_Node000007" class="edge">
<title>Node19&#45;&gt;Node7</title>
<g id="a_edge23_Node000019_Node000007"><a xlink:title=" ">
<path fill="none" stroke="#63b8ff" d="M852.48,-395.47C787.36,-388.2 676.73,-371.71 587.5,-337.53 559.51,-326.8 530.22,-307.39 513.7,-295.56"/>
<polygon fill="#63b8ff" stroke="#63b8ff" points="851.88,-398.92 862.2,-396.52 852.63,-391.96 851.88,-398.92"/>
</a>
</g>
</g>
<!-- Node21 -->
<g id="Node000021" class="node">
<title>Node21</title>
<g id="a_Node000021"><a xlink:href="../../d2/d5f/iopc-typer_8blk.html#a50ed283da59e5a81b3135c6272ea50db" target="_top" xlink:title=" ">
<polygon fill="white" stroke="#666666" points="947.88,-179.15 869.62,-179.15 869.62,-159.9 947.88,-159.9 947.88,-179.15"/>
<text text-anchor="middle" x="908.75" y="-165.65" font-family="Helvetica,sans-Serif" font-size="10.00">iopc_i_resolve</text>
</a>
</g>
</g>
<!-- Node20&#45;&gt;Node21 -->
<g id="edge25_Node000020_Node000021" class="edge">
<title>Node20&#45;&gt;Node21</title>
<g id="a_edge25_Node000020_Node000021"><a xlink:title=" ">
<path fill="none" stroke="#63b8ff" d="M977.97,-168.99C967.87,-169.07 957.62,-169.15 948.23,-169.22"/>
<polygon fill="#63b8ff" stroke="#63b8ff" points="977.77,-172.49 987.74,-168.91 977.71,-165.49 977.77,-172.49"/>
</a>
</g>
</g>
<!-- Node22 -->
<g id="Node000022" class="node">
<title>Node22</title>
<g id="a_Node000022"><a xlink:href="../../d2/d5f/iopc-typer_8blk.html#aee5849cd8d517719157a2ac80bd41ad7" target="_top" xlink:title=" ">
<polygon fill="white" stroke="#666666" points="828,-179.15 757.25,-179.15 757.25,-159.9 828,-159.9 828,-179.15"/>
<text text-anchor="middle" x="792.62" y="-165.65" font-family="Helvetica,sans-Serif" font-size="10.00">iopc_resolve</text>
</a>
</g>
</g>
<!-- Node21&#45;&gt;Node22 -->
<g id="edge26_Node000021_Node000022" class="edge">
<title>Node21&#45;&gt;Node22</title>
<g id="a_edge26_Node000021_Node000022"><a xlink:title=" ">
<path fill="none" stroke="#63b8ff" d="M858.21,-162.83C848.09,-162.69 837.65,-162.83 828.2,-163.27"/>
<polygon fill="#63b8ff" stroke="#63b8ff" points="857.83,-166.32 867.92,-163.07 858.01,-159.32 857.83,-166.32"/>
</a>
</g>
</g>
<!-- Node22&#45;&gt;Node7 -->
<g id="edge36_Node000022_Node000007" class="edge">
<title>Node22&#45;&gt;Node7</title>
<g id="a_edge36_Node000022_Node000007"><a xlink:title=" ">
<path fill="none" stroke="#63b8ff" d="M774.83,-187.39C761.48,-200.58 741.72,-218 721.25,-228.53 651.31,-264.5 556.96,-278.96 518.1,-283.64"/>
<polygon fill="#63b8ff" stroke="#63b8ff" points="777.05,-190.12 781.55,-180.53 772.05,-185.22 777.05,-190.12"/>
</a>
</g>
</g>
<!-- Node22&#45;&gt;Node14 -->
<g id="edge27_Node000022_Node000014" class="edge">
<title>Node22&#45;&gt;Node14</title>
<g id="a_edge27_Node000022_Node000014"><a xlink:title=" ">
<path fill="none" stroke="#63b8ff" d="M745.41,-172.8C703.91,-176.09 641.41,-181.91 587.5,-190.53 567.91,-193.66 546.09,-198.41 529.18,-202.38"/>
<polygon fill="#63b8ff" stroke="#63b8ff" points="745.59,-176.29 755.29,-172.03 745.05,-169.32 745.59,-176.29"/>
</a>
</g>
</g>
<!-- Node22&#45;&gt;Node21 -->
<g id="edge28_Node000022_Node000021" class="edge">
<title>Node22&#45;&gt;Node21</title>
<g id="a_edge28_Node000022_Node000021"><a xlink:title=" ">
<path fill="none" stroke="#63b8ff" d="M839.55,-176.16C849.46,-176.37 859.84,-176.3 869.43,-175.94"/>
<polygon fill="#63b8ff" stroke="#63b8ff" points="839.82,-172.67 829.71,-175.84 839.59,-179.67 839.82,-172.67"/>
</a>
</g>
</g>
<!-- Node23 -->
<g id="Node000023" class="node">
<title>Node23</title>
<g id="a_Node000023"><a xlink:href="../../d2/d5f/iopc-typer_8blk.html#af859dfc8225e7b6f725f8b0b37e7d502" target="_top" xlink:title=" ">
<polygon fill="white" stroke="#666666" points="721.25,-219.15 587.5,-219.15 587.5,-199.9 721.25,-199.9 721.25,-219.15"/>
<text text-anchor="middle" x="654.38" y="-205.65" font-family="Helvetica,sans-Serif" font-size="10.00">iopc_resolve_second_pass</text>
</a>
</g>
</g>
<!-- Node22&#45;&gt;Node23 -->
<g id="edge29_Node000022_Node000023" class="edge">
<title>Node22&#45;&gt;Node23</title>
<g id="a_edge29_Node000022_Node000023"><a xlink:title=" ">
<path fill="none" stroke="#63b8ff" d="M746.42,-182.8C727.95,-188.22 706.93,-194.39 689.75,-199.44"/>
<polygon fill="#63b8ff" stroke="#63b8ff" points="747.18,-186.22 755.79,-180.05 745.21,-179.51 747.18,-186.22"/>
</a>
</g>
</g>
<!-- Node24 -->
<g id="Node000024" class="node">
<title>Node24</title>
<g id="a_Node000024"><a xlink:href="../../db/d6e/iopc-iopsq_8c.html#ad9d8b003c04a8df3421b09d35a688cdb" target="_top" xlink:title="Generates an IOP package description from its IOP version.">
<polygon fill="white" stroke="#666666" points="551.5,-160.15 447,-160.15 447,-140.9 551.5,-140.9 551.5,-160.15"/>
<text text-anchor="middle" x="499.25" y="-146.65" font-family="Helvetica,sans-Serif" font-size="10.00">mp_iopsq_build_pkg</text>
</a>
</g>
</g>
<!-- Node22&#45;&gt;Node24 -->
<g id="edge37_Node000022_Node000024" class="edge">
<title>Node22&#45;&gt;Node24</title>
<g id="a_edge37_Node000022_Node000024"><a xlink:title=" ">
<path fill="none" stroke="#63b8ff" d="M745.78,-160.78C737.64,-159.49 729.21,-158.33 721.25,-157.53 663.39,-151.71 596.61,-150.32 551.74,-150.16"/>
<polygon fill="#63b8ff" stroke="#63b8ff" points="745.1,-164.21 755.54,-162.41 746.25,-157.31 745.1,-164.21"/>
</a>
</g>
</g>
<!-- Node23&#45;&gt;Node7 -->
<g id="edge31_Node000023_Node000007" class="edge">
<title>Node23&#45;&gt;Node7</title>
<g id="a_edge31_Node000023_Node000007"><a xlink:title=" ">
<path fill="none" stroke="#63b8ff" d="M611.33,-223.5C603.31,-226.54 595.06,-229.94 587.5,-233.53 561.06,-246.09 532.22,-264.22 515.21,-275.42"/>
<polygon fill="#63b8ff" stroke="#63b8ff" points="612.44,-226.82 620.63,-220.1 610.04,-220.25 612.44,-226.82"/>
</a>
</g>
</g>
<!-- Node23&#45;&gt;Node14 -->
<g id="edge30_Node000023_Node000014" class="edge">
<title>Node23&#45;&gt;Node14</title>
<g id="a_edge30_Node000023_Node000014"><a xlink:title=" ">
<path fill="none" stroke="#63b8ff" d="M575.67,-209.53C559.12,-209.53 542.64,-209.53 529.33,-209.53"/>
<polygon fill="#63b8ff" stroke="#63b8ff" points="575.59,-213.03 585.59,-209.53 575.59,-206.03 575.59,-213.03"/>
</a>
</g>
</g>
<!-- Node23&#45;&gt;Node24 -->
<g id="edge32_Node000023_Node000024" class="edge">
<title>Node23&#45;&gt;Node24</title>
<g id="a_edge32_Node000023_Node000024"><a xlink:title=" ">
<path fill="none" stroke="#63b8ff" d="M616.87,-195.46C589,-184.72 551.25,-170.18 526.35,-160.58"/>
<polygon fill="#63b8ff" stroke="#63b8ff" points="615.4,-198.65 625.99,-198.97 617.91,-192.11 615.4,-198.65"/>
</a>
</g>
</g>
<!-- Node25 -->
<g id="Node000025" class="node">
<title>Node25</title>
<g id="a_Node000025"><a xlink:href="../../db/d6e/iopc-iopsq_8c.html#ab249c992023713d970929acd2c1e9fed" target="_top" xlink:title="Generates an dumb IOP package from a single package elem description.">
<polygon fill="white" stroke="#666666" points="411,-165.78 298.25,-165.78 298.25,-135.28 411,-135.28 411,-165.78"/>
<text text-anchor="start" x="306.25" y="-152.28" font-family="Helvetica,sans-Serif" font-size="10.00">mp_iopsq_build_mono</text>
<text text-anchor="middle" x="354.62" y="-141.03" font-family="Helvetica,sans-Serif" font-size="10.00">_element_pkg</text>
</a>
</g>
</g>
<!-- Node24&#45;&gt;Node25 -->
<g id="edge33_Node000024_Node000025" class="edge">
<title>Node24&#45;&gt;Node25</title>
<g id="a_edge33_Node000024_Node000025"><a xlink:title=" ">
<path fill="none" stroke="#63b8ff" d="M435.25,-150.53C427.3,-150.53 419.21,-150.53 411.38,-150.53"/>
<polygon fill="#63b8ff" stroke="#63b8ff" points="435.25,-154.03 445.25,-150.53 435.25,-147.03 435.25,-154.03"/>
</a>
</g>
</g>
<!-- Node26 -->
<g id="Node000026" class="node">
<title>Node26</title>
<g id="a_Node000026"><a xlink:href="../../db/d6e/iopc-iopsq_8c.html#aa37570289cdd73d2d1aacb686eb9bd3e" target="_top" xlink:title=" ">
<polygon fill="white" stroke="#666666" points="262.25,-160.15 148.75,-160.15 148.75,-140.9 262.25,-140.9 262.25,-160.15"/>
<text text-anchor="middle" x="205.5" y="-146.65" font-family="Helvetica,sans-Serif" font-size="10.00">mp_iopsq_build_struct</text>
</a>
</g>
</g>
<!-- Node25&#45;&gt;Node26 -->
<g id="edge34_Node000025_Node000026" class="edge">
<title>Node25&#45;&gt;Node26</title>
<g id="a_edge34_Node000025_Node000026"><a xlink:title=" ">
<path fill="none" stroke="#63b8ff" d="M286.75,-150.53C278.71,-150.53 270.56,-150.53 262.69,-150.53"/>
<polygon fill="#63b8ff" stroke="#63b8ff" points="286.49,-154.03 296.49,-150.53 286.49,-147.03 286.49,-154.03"/>
</a>
</g>
</g>
<!-- Node27 -->
<g id="Node000027" class="node">
<title>Node27</title>
<g id="a_Node000027"><a xlink:href="../../db/d6e/iopc-iopsq_8c.html#a29da93a7e88dca9ad6e854548eb1ad54" target="_top" xlink:title="Build iopsq_iop_struct_t object.">
<polygon fill="white" stroke="#666666" points="112.75,-160.15 0,-160.15 0,-140.9 112.75,-140.9 112.75,-160.15"/>
<text text-anchor="middle" x="56.38" y="-146.65" font-family="Helvetica,sans-Serif" font-size="10.00">iopsq_iop_struct_build</text>
</a>
</g>
</g>
<!-- Node26&#45;&gt;Node27 -->
<g id="edge35_Node000026_Node000027" class="edge">
<title>Node26&#45;&gt;Node27</title>
<g id="a_edge35_Node000026_Node000027"><a xlink:title=" ">
<path fill="none" stroke="#63b8ff" d="M137.07,-150.53C128.94,-150.53 120.71,-150.53 112.77,-150.53"/>
<polygon fill="#63b8ff" stroke="#63b8ff" points="136.95,-154.03 146.95,-150.53 136.95,-147.03 136.95,-154.03"/>
</a>
</g>
</g>
<!-- Node28&#45;&gt;Node13 -->
<g id="edge39_Node000028_Node000013" class="edge">
<title>Node28&#45;&gt;Node13</title>
<g id="a_edge39_Node000028_Node000013"><a xlink:title=" ">
<path fill="none" stroke="#63b8ff" d="M1424.96,-275.84C1397.43,-287.08 1359.77,-302.46 1335.33,-312.44"/>
<polygon fill="#63b8ff" stroke="#63b8ff" points="1426,-279.19 1433.93,-272.17 1423.35,-272.71 1426,-279.19"/>
</a>
</g>
</g>
<!-- Node29&#45;&gt;Node28 -->
<g id="edge41_Node000029_Node000028" class="edge">
<title>Node29&#45;&gt;Node28</title>
<g id="a_edge41_Node000029_Node000028"><a xlink:title=" ">
<path fill="none" stroke="#63b8ff" d="M1714.29,-275.21C1652.77,-271.87 1569.29,-267.35 1515.52,-264.43"/>
<polygon fill="#63b8ff" stroke="#63b8ff" points="1713.83,-278.69 1724,-275.74 1714.21,-271.7 1713.83,-278.69"/>
</a>
</g>
</g>
<!-- Node31 -->
<g id="Node000031" class="node">
<title>Node31</title>
<g id="a_Node000031"><a xlink:href="../../d3/d7b/iopc-lang-c_8blk.html#a8c3873f23ee29c3fed247408a9fad4d9" target="_top" xlink:title=" ">
<polygon fill="white" stroke="#666666" points="1671,-252.15 1580.75,-252.15 1580.75,-232.9 1671,-232.9 1671,-252.15"/>
<text text-anchor="middle" x="1625.88" y="-238.65" font-family="Helvetica,sans-Serif" font-size="10.00">iopc_register_fun</text>
</a>
</g>
</g>
<!-- Node30&#45;&gt;Node31 -->
<g id="edge44_Node000030_Node000031" class="edge">
<title>Node30&#45;&gt;Node31</title>
<g id="a_edge44_Node000030_Node000031"><a xlink:title=" ">
<path fill="none" stroke="#63b8ff" d="M1723.13,-242.53C1705.56,-242.53 1687.23,-242.53 1671.33,-242.53"/>
<polygon fill="#63b8ff" stroke="#63b8ff" points="1723.01,-246.03 1733.01,-242.53 1723.01,-239.03 1723.01,-246.03"/>
</a>
</g>
</g>
<!-- Node31&#45;&gt;Node28 -->
<g id="edge45_Node000031_Node000028" class="edge">
<title>Node31&#45;&gt;Node28</title>
<g id="a_edge45_Node000031_Node000028"><a xlink:title=" ">
<path fill="none" stroke="#63b8ff" d="M1569.22,-249.02C1551.83,-251.05 1532.67,-253.28 1515.43,-255.29"/>
<polygon fill="#63b8ff" stroke="#63b8ff" points="1569.34,-252.53 1578.87,-247.89 1568.53,-245.58 1569.34,-252.53"/>
</a>
</g>
</g>
<!-- Node33 -->
<g id="Node000033" class="node">
<title>Node33</title>
<g id="a_Node000033"><a xlink:href="../../d2/d5f/iopc-typer_8blk.html#a33e6e7cae14831595bd4f9fa51fa01c5" target="_top" xlink:title=" ">
<polygon fill="white" stroke="#666666" points="1665.38,-92.15 1586.38,-92.15 1586.38,-72.9 1665.38,-72.9 1665.38,-92.15"/>
<text text-anchor="middle" x="1625.88" y="-78.65" font-family="Helvetica,sans-Serif" font-size="10.00">iopc_t_resolve</text>
</a>
</g>
</g>
<!-- Node32&#45;&gt;Node33 -->
<g id="edge47_Node000032_Node000033" class="edge">
<title>Node32&#45;&gt;Node33</title>
<g id="a_edge47_Node000032_Node000033"><a xlink:title=" ">
<path fill="none" stroke="#63b8ff" d="M1743.63,-112.59C1718.67,-106.16 1688.98,-98.52 1665.78,-92.55"/>
<polygon fill="#63b8ff" stroke="#63b8ff" points="1742.7,-115.96 1753.26,-115.07 1744.44,-109.19 1742.7,-115.96"/>
</a>
</g>
</g>
<!-- Node33&#45;&gt;Node22 -->
<g id="edge53_Node000033_Node000022" class="edge">
<title>Node33&#45;&gt;Node22</title>
<g id="a_edge53_Node000033_Node000022"><a xlink:title=" ">
<path fill="none" stroke="#63b8ff" d="M1575.09,-71.09C1570.52,-69.21 1566.08,-67.04 1562,-64.53 1541.92,-52.16 1547.17,-35.93 1526,-25.53 1439.75,16.85 1406.72,-6.53 1310.62,-6.53 1310.62,-6.53 1310.62,-6.53 1037,-6.53 926.14,-6.53 827.6,-124.73 800.79,-159.82"/>
<polygon fill="#63b8ff" stroke="#63b8ff" points="1573.88,-74.37 1584.48,-74.45 1576.24,-67.78 1573.88,-74.37"/>
</a>
</g>
</g>
<!-- Node34 -->
<g id="Node000034" class="node">
<title>Node34</title>
<g id="a_Node000034"><a xlink:href="../../d2/d5f/iopc-typer_8blk.html#a29178c22484c5f7a7c8164165b7b59d7" target="_top" xlink:title=" ">
<polygon fill="white" stroke="#666666" points="1507.62,-54.15 1414.38,-54.15 1414.38,-34.9 1507.62,-34.9 1507.62,-54.15"/>
<text text-anchor="middle" x="1461" y="-40.65" font-family="Helvetica,sans-Serif" font-size="10.00">iopc_field_resolve</text>
</a>
</g>
</g>
<!-- Node33&#45;&gt;Node34 -->
<g id="edge48_Node000033_Node000034" class="edge">
<title>Node33&#45;&gt;Node34</title>
<g id="a_edge48_Node000033_Node000034"><a xlink:title=" ">
<path fill="none" stroke="#63b8ff" d="M1591.85,-69.27C1567.74,-62.28 1534.76,-54.39 1508.07,-49.13"/>
<polygon fill="#63b8ff" stroke="#63b8ff" points="1590.54,-72.53 1601.12,-72.07 1592.56,-65.83 1590.54,-72.53"/>
</a>
</g>
</g>
<!-- Node36 -->
<g id="Node000036" class="node">
<title>Node36</title>
<g id="a_Node000036"><a xlink:href="../../d2/d5f/iopc-typer_8blk.html#ac318ed4ca676c609a51d4450b3e28b6c" target="_top" xlink:title=" ">
<polygon fill="white" stroke="#666666" points="1511.38,-140.78 1410.62,-140.78 1410.62,-110.28 1511.38,-110.28 1511.38,-140.78"/>
<text text-anchor="start" x="1418.62" y="-127.28" font-family="Helvetica,sans-Serif" font-size="10.00">resolve_pkg_parent</text>
<text text-anchor="middle" x="1461" y="-116.03" font-family="Helvetica,sans-Serif" font-size="10.00">_and_params</text>
</a>
</g>
</g>
<!-- Node33&#45;&gt;Node36 -->
<g id="edge54_Node000033_Node000036" class="edge">
<title>Node33&#45;&gt;Node36</title>
<g id="a_edge54_Node000033_Node000036"><a xlink:title=" ">
<path fill="none" stroke="#63b8ff" d="M1575.79,-95.49C1555.51,-100.84 1532.03,-107.04 1511.68,-112.41"/>
<polygon fill="#63b8ff" stroke="#63b8ff" points="1576.45,-98.93 1585.22,-93 1574.66,-92.16 1576.45,-98.93"/>
</a>
</g>
</g>
<!-- Node34&#45;&gt;Node33 -->
<g id="edge52_Node000034_Node000033" class="edge">
<title>Node34&#45;&gt;Node33</title>
<g id="a_edge52_Node000034_Node000033"><a xlink:title=" ">
<path fill="none" stroke="#63b8ff" d="M1495.25,-57.85C1521.64,-65.49 1558.58,-74.2 1586.28,-79.36"/>
<polygon fill="#63b8ff" stroke="#63b8ff" points="1496.32,-54.52 1485.74,-54.98 1494.3,-61.22 1496.32,-54.52"/>
</a>
</g>
</g>
<!-- Node35 -->
<g id="Node000035" class="node">
<title>Node35</title>
<g id="a_Node000035"><a xlink:href="../../d2/d5f/iopc-typer_8blk.html#a313b6036cb47e024562d6441b41254bf" target="_top" xlink:title=" ">
<polygon fill="white" stroke="#666666" points="1223.25,-112.15 1122.5,-112.15 1122.5,-92.9 1223.25,-92.9 1223.25,-112.15"/>
<text text-anchor="middle" x="1172.88" y="-98.65" font-family="Helvetica,sans-Serif" font-size="10.00">iopc_struct_resolve</text>
</a>
</g>
</g>
<!-- Node34&#45;&gt;Node35 -->
<g id="edge49_Node000034_Node000035" class="edge">
<title>Node34&#45;&gt;Node35</title>
<g id="a_edge49_Node000034_Node000035"><a xlink:title=" ">
<path fill="none" stroke="#63b8ff" d="M1402.65,-47.41C1362.09,-50.41 1306.72,-56.46 1259.25,-68.53 1236.52,-74.31 1211.74,-84.66 1194.77,-92.43"/>
<polygon fill="#63b8ff" stroke="#63b8ff" points="1402.69,-50.92 1412.42,-46.73 1402.21,-43.94 1402.69,-50.92"/>
</a>
</g>
</g>
<!-- Node35&#45;&gt;Node20 -->
<g id="edge50_Node000035_Node000020" class="edge">
<title>Node35&#45;&gt;Node20</title>
<g id="a_edge50_Node000035_Node000020"><a xlink:title=" ">
<path fill="none" stroke="#63b8ff" d="M1141.6,-117.56C1120.36,-128.11 1092.03,-142.19 1070.52,-152.87"/>
<polygon fill="#63b8ff" stroke="#63b8ff" points="1142.94,-120.81 1150.34,-113.22 1139.83,-114.54 1142.94,-120.81"/>
</a>
</g>
</g>
<!-- Node35&#45;&gt;Node33 -->
<g id="edge51_Node000035_Node000033" class="edge">
<title>Node35&#45;&gt;Node33</title>
<g id="a_edge51_Node000035_Node000033"><a xlink:title=" ">
<path fill="none" stroke="#63b8ff" d="M1234.94,-99.82C1329.21,-95.64 1507.48,-87.73 1586.03,-84.25"/>
<polygon fill="#63b8ff" stroke="#63b8ff" points="1234.95,-96.32 1225.11,-100.26 1235.26,-103.31 1234.95,-96.32"/>
</a>
</g>
</g>
<!-- Node36&#45;&gt;Node32 -->
<g id="edge55_Node000036_Node000032" class="edge">
<title>Node36&#45;&gt;Node32</title>
<g id="a_edge55_Node000036_Node000032"><a xlink:title=" ">
<path fill="none" stroke="#63b8ff" d="M1523.13,-125.53C1582.37,-125.53 1671.78,-125.53 1731.45,-125.53"/>
<polygon fill="#63b8ff" stroke="#63b8ff" points="1523.21,-122.03 1513.21,-125.53 1523.21,-129.03 1523.21,-122.03"/>
</a>
</g>
</g>
<!-- Node37 -->
<g id="Node000037" class="node">
<title>Node37</title>
<g id="a_Node000037"><a xlink:href="../../d2/d5f/iopc-typer_8blk.html#aa0947f4e2813935756963f613115d498" target="_top" xlink:title=" ">
<polygon fill="white" stroke="#666666" points="1360,-133.15 1259.25,-133.15 1259.25,-113.9 1360,-113.9 1360,-133.15"/>
<text text-anchor="middle" x="1309.62" y="-119.65" font-family="Helvetica,sans-Serif" font-size="10.00">resolve_pkg_parent</text>
</a>
</g>
</g>
<!-- Node36&#45;&gt;Node37 -->
<g id="edge56_Node000036_Node000037" class="edge">
<title>Node36&#45;&gt;Node37</title>
<g id="a_edge56_Node000036_Node000037"><a xlink:title=" ">
<path fill="none" stroke="#63b8ff" d="M1399.13,-124.71C1386.25,-124.54 1372.81,-124.36 1360.4,-124.19"/>
<polygon fill="#63b8ff" stroke="#63b8ff" points="1398.7,-128.21 1408.75,-124.84 1398.79,-121.21 1398.7,-128.21"/>
</a>
</g>
</g>
<!-- Node37&#45;&gt;Node35 -->
<g id="edge57_Node000037_Node000035" class="edge">
<title>Node37&#45;&gt;Node35</title>
<g id="a_edge57_Node000037_Node000035"><a xlink:title=" ">
<path fill="none" stroke="#63b8ff" d="M1247.56,-114.01C1239.49,-112.75 1231.3,-111.48 1223.46,-110.26"/>
<polygon fill="#63b8ff" stroke="#63b8ff" points="1246.92,-117.45 1257.34,-115.53 1247.99,-110.54 1246.92,-117.45"/>
</a>
</g>
</g>
</g>
</svg>
