<?xml version="1.0" encoding="UTF-8" standalone="no"?>
<!DOCTYPE svg PUBLIC "-//W3C//DTD SVG 1.1//EN"
 "http://www.w3.org/Graphics/SVG/1.1/DTD/svg11.dtd">
<!-- Generated by graphviz version 9.0.0 (20230911.1827)
 -->
<!-- Title: t_iopc_attr_check_prefix Pages: 1 -->
<!--zoomable 359 -->

<svg id="main" version="1.1" xmlns="http://www.w3.org/2000/svg" xmlns:xlink="http://www.w3.org/1999/xlink" xml:space="preserve" onload="init(evt)">
<style type="text/css"><![CDATA[
.node, .edge {opacity: 0.7;}
.node.selected, .edge.selected {opacity: 1;}
.edge:hover path { stroke: red; }
.edge:hover polygon { stroke: red; fill: red; }
]]></style>

<defs>
  <circle id="rim" cx="0" cy="0" r="7"/>
  <circle id="rim2" cx="0" cy="0" r="3.5"/>
  <g id="zoomPlus">
    <use xlink:href="#rim" fill="#404040"><set attributeName="fill" to="#808080" begin="zoomplus.mouseover" end="zoomplus.mouseout"/></use>
    <path d="M-4,0h8M0,-4v8" fill="none" stroke="white" stroke-width="1.5" pointer-events="none"/>
  </g>
  <g id="zoomMin">
    <use xlink:href="#rim" fill="#404040"><set attributeName="fill" to="#808080" begin="zoomminus.mouseover" end="zoomminus.mouseout"/></use>
    <path d="M-4,0h8" fill="none" stroke="white" stroke-width="1.5" pointer-events="none"/>
  </g>
  <g id="arrowUp" transform="translate(30 24)">
    <use xlink:href="#rim"/>
    <path pointer-events="none" fill="none" stroke="white" stroke-width="1.5" d="M0,-3.0v7 M-2.5,-0.5L0,-3.0L2.5,-0.5"/>
  </g>
  <g id="arrowRight" transform="rotate(90) translate(36 -43)">
    <use xlink:href="#rim"/>
    <path pointer-events="none" fill="none" stroke="white" stroke-width="1.5" d="M0,-3.0v7 M-2.5,-0.5L0,-3.0L2.5,-0.5"/>
  </g>
  <g id="arrowDown" transform="rotate(180) translate(-30 -48)">
    <use xlink:href="#rim"/>
    <path pointer-events="none" fill="none" stroke="white" stroke-width="1.5" d="M0,-3.0v7 M-2.5,-0.5L0,-3.0L2.5,-0.5"/>
  </g>
  <g id="arrowLeft" transform="rotate(270) translate(-36 17)">
    <use xlink:href="#rim"/>
    <path pointer-events="none" fill="none" stroke="white" stroke-width="1.5" d="M0,-3.0v7 M-2.5,-0.5L0,-3.0L2.5,-0.5"/>
  </g>
  <g id="resetDef">
    <use xlink:href="#rim2" fill="#404040"><set attributeName="fill" to="#808080" begin="reset.mouseover" end="reset.mouseout"/></use>
  </g>
</defs>
<script type="application/ecmascript">
var viewWidth = 1963;
var viewHeight = 359;
var sectionId = 'dynsection-113';
</script>
<script type="application/ecmascript" xlink:href="../../svg.min.js"/>
<svg id="graph" class="graph">
<g id="viewport">
<title>t_iopc_attr_check_prefix</title>
<!-- Node1 -->
<g id="Node000001" class="node">
<title>Node1</title>
<g id="a_Node000001"><a xlink:title=" ">
<polygon fill="#999999" stroke="#666666" points="121,-332.33 0,-332.33 0,-313.08 121,-313.08 121,-332.33"/>
<text text-anchor="middle" x="60.5" y="-318.83" font-family="Helvetica,sans-Serif" font-size="10.00">t_iopc_attr_check_prefix</text>
</a>
</g>
</g>
<!-- Node2 -->
<g id="Node000002" class="node">
<title>Node2</title>
<g id="a_Node000002"><a xlink:href="../../dd/dfc/iopc-parser_8c.html#a18ef148a41ad3465d8adea1a953da2bb" target="_top" xlink:title=" ">
<polygon fill="white" stroke="#666666" points="242,-351.33 157,-351.33 157,-332.08 242,-332.08 242,-351.33"/>
<text text-anchor="middle" x="199.5" y="-337.83" font-family="Helvetica,sans-Serif" font-size="10.00">iopc_attr_check</text>
</a>
</g>
</g>
<!-- Node1&#45;&gt;Node2 -->
<g id="edge1_Node000001_Node000002" class="edge">
<title>Node1&#45;&gt;Node2</title>
<g id="a_edge1_Node000001_Node000002"><a xlink:title=" ">
<path fill="none" stroke="#63b8ff" d="M121.19,-330.99C129.23,-332.1 137.44,-333.24 145.36,-334.34"/>
<polygon fill="#63b8ff" stroke="#63b8ff" points="144.82,-337.79 155.2,-335.7 145.78,-330.86 144.82,-337.79"/>
</a>
</g>
</g>
<!-- Node3 -->
<g id="Node000003" class="node">
<title>Node3</title>
<g id="a_Node000003"><a xlink:href="../../df/d0a/str-l_8h.html#a93860e0a444ab8a423d79b7818a28345" target="_top" xlink:title="returns a duplicated lstr from the mem stack.">
<polygon fill="white" stroke="#666666" points="228.88,-314.33 170.12,-314.33 170.12,-295.08 228.88,-295.08 228.88,-314.33"/>
<text text-anchor="middle" x="199.5" y="-300.83" font-family="Helvetica,sans-Serif" font-size="10.00">t_lstr_dup</text>
</a>
</g>
</g>
<!-- Node1&#45;&gt;Node3 -->
<g id="edge2_Node000001_Node000003" class="edge">
<title>Node1&#45;&gt;Node3</title>
<g id="a_edge2_Node000001_Node000003"><a xlink:title=" ">
<path fill="none" stroke="#63b8ff" d="M121.19,-314.86C133.85,-313.2 146.91,-311.49 158.61,-309.95"/>
<polygon fill="#63b8ff" stroke="#63b8ff" points="158.84,-313.45 168.3,-308.68 157.93,-306.51 158.84,-313.45"/>
</a>
</g>
</g>
<!-- Node4 -->
<g id="Node000004" class="node">
<title>Node4</title>
<g id="a_Node000004"><a xlink:href="../../de/d04/str-l_8c.html#a721e56afb064f7233eda0184065df9bb" target="_top" xlink:title="Returns new mp allocated lstr from its arguments.">
<polygon fill="white" stroke="#666666" points="347.25,-295.33 278,-295.33 278,-276.08 347.25,-276.08 347.25,-295.33"/>
<text text-anchor="middle" x="312.62" y="-281.83" font-family="Helvetica,sans-Serif" font-size="10.00">mp_lstr_dup</text>
</a>
</g>
</g>
<!-- Node3&#45;&gt;Node4 -->
<g id="edge3_Node000003_Node000004" class="edge">
<title>Node3&#45;&gt;Node4</title>
<g id="a_edge3_Node000003_Node000004"><a xlink:title=" ">
<path fill="none" stroke="#63b8ff" d="M229.12,-299.81C240.44,-297.88 253.74,-295.6 266.31,-293.46"/>
<polygon fill="#63b8ff" stroke="#63b8ff" points="266.81,-296.92 276.08,-291.78 265.63,-290.02 266.81,-296.92"/>
</a>
</g>
</g>
<!-- Node25 -->
<g id="Node000025" class="node">
<title>Node25</title>
<g id="a_Node000025"><a xlink:href="../../d1/d10/mem-stack_8h.html#a1d0e2a29f86dc033a02e50484b527fd0" target="_top" xlink:title=" ">
<polygon fill="white" stroke="#666666" points="1955,-332.33 1912.75,-332.33 1912.75,-313.08 1955,-313.08 1955,-332.33"/>
<text text-anchor="middle" x="1933.88" y="-318.83" font-family="Helvetica,sans-Serif" font-size="10.00">t_pool</text>
</a>
</g>
</g>
<!-- Node3&#45;&gt;Node25 -->
<g id="edge45_Node000003_Node000025" class="edge">
<title>Node3&#45;&gt;Node25</title>
<g id="a_edge45_Node000003_Node000025"><a xlink:title=" ">
<path fill="none" stroke="#63b8ff" d="M229.33,-313.1C269.42,-324.02 344.45,-341.71 409.75,-341.71 409.75,-341.71 409.75,-341.71 1761.88,-341.71 1810.77,-341.71 1867.06,-333.94 1901.29,-328.34"/>
<polygon fill="#63b8ff" stroke="#63b8ff" points="1901.65,-331.82 1910.93,-326.71 1900.49,-324.92 1901.65,-331.82"/>
</a>
</g>
</g>
<!-- Node5 -->
<g id="Node000005" class="node">
<title>Node5</title>
<g id="a_Node000005"><a xlink:href="../../d9/d9a/mem_8h.html#afb82bc4c2f614b07ba2987edb2fb12a2" target="_top" xlink:title=" ">
<polygon fill="white" stroke="#666666" points="438.25,-295.33 383.25,-295.33 383.25,-276.08 438.25,-276.08 438.25,-295.33"/>
<text text-anchor="middle" x="410.75" y="-281.83" font-family="Helvetica,sans-Serif" font-size="10.00">mp_dupz</text>
</a>
</g>
</g>
<!-- Node4&#45;&gt;Node5 -->
<g id="edge4_Node000004_Node000005" class="edge">
<title>Node4&#45;&gt;Node5</title>
<g id="a_edge4_Node000004_Node000005"><a xlink:title=" ">
<path fill="none" stroke="#63b8ff" d="M347.52,-285.71C355.29,-285.71 363.6,-285.71 371.54,-285.71"/>
<polygon fill="#63b8ff" stroke="#63b8ff" points="371.29,-289.21 381.29,-285.71 371.29,-282.21 371.29,-289.21"/>
</a>
</g>
</g>
<!-- Node39 -->
<g id="Node000039" class="node">
<title>Node39</title>
<g id="a_Node000039"><a xlink:href="../../df/d0a/str-l_8h.html#afaa32126aa321a4b319e39433d0e7f26" target="_top" xlink:title=" ">
<polygon fill="white" stroke="#666666" points="1579.75,-72.33 1513.5,-72.33 1513.5,-53.08 1579.75,-53.08 1579.75,-72.33"/>
<text text-anchor="middle" x="1546.62" y="-58.83" font-family="Helvetica,sans-Serif" font-size="10.00">mp_lstr_init</text>
</a>
</g>
</g>
<!-- Node4&#45;&gt;Node39 -->
<g id="edge43_Node000004_Node000039" class="edge">
<title>Node4&#45;&gt;Node39</title>
<g id="a_edge43_Node000004_Node000039"><a xlink:title=" ">
<path fill="none" stroke="#63b8ff" d="M315.27,-275.6C324.11,-225.01 370.82,-1.71 506,-1.71 506,-1.71 506,-1.71 1287.25,-1.71 1370.57,-1.71 1394.54,5.12 1473.75,-20.71 1491.38,-26.45 1509.39,-36.99 1522.97,-46.07"/>
<polygon fill="#63b8ff" stroke="#63b8ff" points="1520.96,-48.94 1531.17,-51.76 1524.96,-43.19 1520.96,-48.94"/>
</a>
</g>
</g>
<!-- Node6 -->
<g id="Node000006" class="node">
<title>Node6</title>
<g id="a_Node000006"><a xlink:href="../../d9/d9a/mem_8h.html#af52b7a33884b452f86de916d8109b8f1" target="_top" xlink:title=" ">
<polygon fill="white" stroke="#666666" points="535.62,-313.33 478.38,-313.33 478.38,-294.08 535.62,-294.08 535.62,-313.33"/>
<text text-anchor="middle" x="507" y="-299.83" font-family="Helvetica,sans-Serif" font-size="10.00">memcpyz</text>
</a>
</g>
</g>
<!-- Node5&#45;&gt;Node6 -->
<g id="edge5_Node000005_Node000006" class="edge">
<title>Node5&#45;&gt;Node6</title>
<g id="a_edge5_Node000005_Node000006"><a xlink:title=" ">
<path fill="none" stroke="#63b8ff" d="M438.51,-290.82C447.42,-292.52 457.55,-294.45 467.19,-296.3"/>
<polygon fill="#63b8ff" stroke="#63b8ff" points="466.23,-299.67 476.71,-298.11 467.54,-292.8 466.23,-299.67"/>
</a>
</g>
</g>
<!-- Node8 -->
<g id="Node000008" class="node">
<title>Node8</title>
<g id="a_Node000008"><a xlink:href="../../d9/d9a/mem_8h.html#ada6bb9661f0c10ccaa14d231c24aeafd" target="_top" xlink:title=" ">
<polygon fill="white" stroke="#666666" points="539.75,-276.33 474.25,-276.33 474.25,-257.08 539.75,-257.08 539.75,-276.33"/>
<text text-anchor="middle" x="507" y="-262.83" font-family="Helvetica,sans-Serif" font-size="10.00">mp_imalloc</text>
</a>
</g>
</g>
<!-- Node5&#45;&gt;Node8 -->
<g id="edge7_Node000005_Node000008" class="edge">
<title>Node5&#45;&gt;Node8</title>
<g id="a_edge7_Node000005_Node000008"><a xlink:title=" ">
<path fill="none" stroke="#63b8ff" d="M438.51,-280.31C446.06,-278.79 454.49,-277.09 462.75,-275.43"/>
<polygon fill="#63b8ff" stroke="#63b8ff" points="463.23,-278.9 472.34,-273.49 461.85,-272.04 463.23,-278.9"/>
</a>
</g>
</g>
<!-- Node7 -->
<g id="Node000007" class="node">
<title>Node7</title>
<g id="a_Node000007"><a xlink:href="../../d9/d9a/mem_8h.html#af3794c657c3ffd55b9771dcaeec60c02" target="_top" xlink:title=" ">
<polygon fill="white" stroke="#666666" points="661.12,-313.33 603.12,-313.33 603.12,-294.08 661.12,-294.08 661.12,-313.33"/>
<text text-anchor="middle" x="632.12" y="-299.83" font-family="Helvetica,sans-Serif" font-size="10.00">mempcpy</text>
</a>
</g>
</g>
<!-- Node6&#45;&gt;Node7 -->
<g id="edge6_Node000006_Node000007" class="edge">
<title>Node6&#45;&gt;Node7</title>
<g id="a_edge6_Node000006_Node000007"><a xlink:title=" ">
<path fill="none" stroke="#63b8ff" d="M535.94,-303.71C552.35,-303.71 573.36,-303.71 591.47,-303.71"/>
<polygon fill="#63b8ff" stroke="#63b8ff" points="591.36,-307.21 601.36,-303.71 591.36,-300.21 591.36,-307.21"/>
</a>
</g>
</g>
<!-- Node9 -->
<g id="Node000009" class="node">
<title>Node9</title>
<g id="a_Node000009"><a xlink:href="../../d8/d37/mem_8blk.html#a5666a1403bcf2bd8e114c23f8021d1ac" target="_top" xlink:title=" ">
<polygon fill="white" stroke="#666666" points="670.12,-239.33 594.12,-239.33 594.12,-220.08 670.12,-220.08 670.12,-239.33"/>
<text text-anchor="middle" x="632.12" y="-225.83" font-family="Helvetica,sans-Serif" font-size="10.00">__mp_imalloc</text>
</a>
</g>
</g>
<!-- Node8&#45;&gt;Node9 -->
<g id="edge8_Node000008_Node000009" class="edge">
<title>Node8&#45;&gt;Node9</title>
<g id="a_edge8_Node000008_Node000009"><a xlink:title=" ">
<path fill="none" stroke="#63b8ff" d="M540.03,-257.08C554.25,-252.81 571.22,-247.71 586.64,-243.07"/>
<polygon fill="#63b8ff" stroke="#63b8ff" points="587.52,-246.47 596.09,-240.24 585.5,-239.76 587.52,-246.47"/>
</a>
</g>
</g>
<!-- Node37 -->
<g id="Node000037" class="node">
<title>Node37</title>
<g id="a_Node000037"><a xlink:href="../../d9/d9a/mem_8h.html#ae99e17ad0b27e94e8a00c8af9734a0e7" target="_top" xlink:title=" ">
<polygon fill="white" stroke="#666666" points="688.5,-276.33 575.75,-276.33 575.75,-257.08 688.5,-257.08 688.5,-276.33"/>
<text text-anchor="middle" x="632.12" y="-262.83" font-family="Helvetica,sans-Serif" font-size="10.00">icheck_alloc_constant</text>
</a>
</g>
</g>
<!-- Node8&#45;&gt;Node37 -->
<g id="edge41_Node000008_Node000037" class="edge">
<title>Node8&#45;&gt;Node37</title>
<g id="a_edge41_Node000008_Node000037"><a xlink:title=" ">
<path fill="none" stroke="#63b8ff" d="M540.03,-266.71C547.47,-266.71 555.68,-266.71 564.01,-266.71"/>
<polygon fill="#63b8ff" stroke="#63b8ff" points="563.9,-270.21 573.9,-266.71 563.9,-263.21 563.9,-270.21"/>
</a>
</g>
</g>
<!-- Node10 -->
<g id="Node000010" class="node">
<title>Node10</title>
<g id="a_Node000010"><a xlink:href="../../d8/d37/mem_8blk.html#a8e4fbf6500e65079c31e3fd933ae7dc1" target="_top" xlink:title=" ">
<polygon fill="white" stroke="#666666" points="810.62,-237.33 740.62,-237.33 740.62,-218.08 810.62,-218.08 810.62,-237.33"/>
<text text-anchor="middle" x="775.62" y="-223.83" font-family="Helvetica,sans-Serif" font-size="10.00">icheck_alloc</text>
</a>
</g>
</g>
<!-- Node9&#45;&gt;Node10 -->
<g id="edge9_Node000009_Node000010" class="edge">
<title>Node9&#45;&gt;Node10</title>
<g id="a_edge9_Node000009_Node000010"><a xlink:title=" ">
<path fill="none" stroke="#63b8ff" d="M670.3,-229.18C688.34,-228.93 710.17,-228.62 729.18,-228.35"/>
<polygon fill="#63b8ff" stroke="#63b8ff" points="729.14,-231.85 739.09,-228.21 729.04,-224.85 729.14,-231.85"/>
</a>
</g>
</g>
<!-- Node35 -->
<g id="Node000035" class="node">
<title>Node35</title>
<g id="a_Node000035"><a xlink:href="../../d9/d9a/mem_8h.html#af42ab5c21de0c723b2a55403e5441fda" target="_top" xlink:title=" ">
<polygon fill="white" stroke="#666666" points="815.12,-274.33 736.12,-274.33 736.12,-255.08 815.12,-255.08 815.12,-274.33"/>
<text text-anchor="middle" x="775.62" y="-260.83" font-family="Helvetica,sans-Serif" font-size="10.00">mem_bit_align</text>
</a>
</g>
</g>
<!-- Node9&#45;&gt;Node35 -->
<g id="edge39_Node000009_Node000035" class="edge">
<title>Node9&#45;&gt;Node35</title>
<g id="a_edge39_Node000009_Node000035"><a xlink:title=" ">
<path fill="none" stroke="#63b8ff" d="M670.3,-238.9C686.9,-243.01 706.72,-247.91 724.6,-252.33"/>
<polygon fill="#63b8ff" stroke="#63b8ff" points="723.7,-255.72 734.25,-254.72 725.38,-248.92 723.7,-255.72"/>
</a>
</g>
</g>
<!-- Node11 -->
<g id="Node000011" class="node">
<title>Node11</title>
<g id="a_Node000011"><a xlink:href="../../d7/df8/log_8c.html#abca342edf91a9b45f7a17ef564fa8a53" target="_top" xlink:title=" ">
<polygon fill="white" stroke="#666666" points="917.75,-237.33 868,-237.33 868,-218.08 917.75,-218.08 917.75,-237.33"/>
<text text-anchor="middle" x="892.88" y="-223.83" font-family="Helvetica,sans-Serif" font-size="10.00">e_panic</text>
</a>
</g>
</g>
<!-- Node10&#45;&gt;Node11 -->
<g id="edge10_Node000010_Node000011" class="edge">
<title>Node10&#45;&gt;Node11</title>
<g id="a_edge10_Node000010_Node000011"><a xlink:title=" ">
<path fill="none" stroke="#63b8ff" d="M810.89,-227.71C825.34,-227.71 842.15,-227.71 856.7,-227.71"/>
<polygon fill="#63b8ff" stroke="#63b8ff" points="856.28,-231.21 866.28,-227.71 856.28,-224.21 856.28,-231.21"/>
</a>
</g>
</g>
<!-- Node12 -->
<g id="Node000012" class="node">
<title>Node12</title>
<g id="a_Node000012"><a xlink:href="../../d7/df8/log_8c.html#a4bc04f7baa1e064cb0b93c7b9f3a61a1" target="_top" xlink:title=" ">
<polygon fill="white" stroke="#666666" points="1047,-124.33 959,-124.33 959,-105.08 1047,-105.08 1047,-124.33"/>
<text text-anchor="middle" x="1003" y="-110.83" font-family="Helvetica,sans-Serif" font-size="10.00">__logger_refresh</text>
</a>
</g>
</g>
<!-- Node11&#45;&gt;Node12 -->
<g id="edge11_Node000011_Node000012" class="edge">
<title>Node11&#45;&gt;Node12</title>
<g id="a_edge11_Node000011_Node000012"><a xlink:title=" ">
<path fill="none" stroke="#63b8ff" d="M903.47,-217.68C921.71,-198.62 961.62,-156.91 984.66,-132.83"/>
<polygon fill="#63b8ff" stroke="#63b8ff" points="987.15,-135.29 991.53,-125.64 982.09,-130.45 987.15,-135.29"/>
</a>
</g>
</g>
<!-- Node30 -->
<g id="Node000030" class="node">
<title>Node30</title>
<g id="a_Node000030"><a xlink:href="../../d7/df8/log_8c.html#a900490b26df7698aac12f7f7e6517e81" target="_top" xlink:title=" ">
<polygon fill="white" stroke="#666666" points="1035.75,-237.33 970.25,-237.33 970.25,-218.08 1035.75,-218.08 1035.75,-237.33"/>
<text text-anchor="middle" x="1003" y="-223.83" font-family="Helvetica,sans-Serif" font-size="10.00">logger_vlog</text>
</a>
</g>
</g>
<!-- Node11&#45;&gt;Node30 -->
<g id="edge33_Node000011_Node000030" class="edge">
<title>Node11&#45;&gt;Node30</title>
<g id="a_edge33_Node000011_Node000030"><a xlink:title=" ">
<path fill="none" stroke="#63b8ff" d="M918.14,-227.71C930.11,-227.71 944.91,-227.71 958.72,-227.71"/>
<polygon fill="#63b8ff" stroke="#63b8ff" points="958.5,-231.21 968.5,-227.71 958.5,-224.21 958.5,-231.21"/>
</a>
</g>
</g>
<!-- Node34 -->
<g id="Node000034" class="node">
<title>Node34</title>
<g id="a_Node000034"><a xlink:href="../../d2/d4d/file_8h.html#a25419a391fdd4ad7954699c58cfeb3b9" target="_top" xlink:title=" ">
<polygon fill="white" stroke="#666666" points="1028.62,-274.33 977.38,-274.33 977.38,-255.08 1028.62,-255.08 1028.62,-274.33"/>
<text text-anchor="middle" x="1003" y="-260.83" font-family="Helvetica,sans-Serif" font-size="10.00">va_start</text>
</a>
</g>
</g>
<!-- Node11&#45;&gt;Node34 -->
<g id="edge38_Node000011_Node000034" class="edge">
<title>Node11&#45;&gt;Node34</title>
<g id="a_edge38_Node000011_Node000034"><a xlink:title=" ">
<path fill="none" stroke="#63b8ff" d="M918.14,-236.01C932.41,-240.89 950.7,-247.15 966.56,-252.58"/>
<polygon fill="#63b8ff" stroke="#63b8ff" points="965.04,-255.76 975.63,-255.68 967.31,-249.14 965.04,-255.76"/>
</a>
</g>
</g>
<!-- Node13 -->
<g id="Node000013" class="node">
<title>Node13</title>
<g id="a_Node000013"><a xlink:href="../../d7/df8/log_8c.html#a3dbd75fb614210f0b114cfd03c9c0a7b" target="_top" xlink:title=" ">
<polygon fill="white" stroke="#666666" points="1186.75,-142.33 1083,-142.33 1083,-123.08 1186.75,-123.08 1186.75,-142.33"/>
<text text-anchor="middle" x="1134.88" y="-128.83" font-family="Helvetica,sans-Serif" font-size="10.00">__logger_do_refresh</text>
</a>
</g>
</g>
<!-- Node12&#45;&gt;Node13 -->
<g id="edge12_Node000012_Node000013" class="edge">
<title>Node12&#45;&gt;Node13</title>
<g id="a_edge12_Node000012_Node000013"><a xlink:title=" ">
<path fill="none" stroke="#63b8ff" d="M1047.25,-120.7C1055.06,-121.78 1063.34,-122.93 1071.57,-124.07"/>
<polygon fill="#63b8ff" stroke="#63b8ff" points="1070.83,-127.5 1081.21,-125.41 1071.79,-120.57 1070.83,-127.5"/>
</a>
</g>
</g>
<!-- Node28 -->
<g id="Node000028" class="node">
<title>Node28</title>
<g id="a_Node000028"><a xlink:href="../../d7/df8/log_8c.html#a7b1b02d1986e1247c2f571af4a2c2854" target="_top" xlink:title=" ">
<polygon fill="white" stroke="#666666" points="1172.5,-105.33 1097.25,-105.33 1097.25,-86.08 1172.5,-86.08 1172.5,-105.33"/>
<text text-anchor="middle" x="1134.88" y="-91.83" font-family="Helvetica,sans-Serif" font-size="10.00">log_spin_lock</text>
</a>
</g>
</g>
<!-- Node12&#45;&gt;Node28 -->
<g id="edge31_Node000012_Node000028" class="edge">
<title>Node12&#45;&gt;Node28</title>
<g id="a_edge31_Node000012_Node000028"><a xlink:title=" ">
<path fill="none" stroke="#63b8ff" d="M1047.25,-108.38C1059.56,-106.58 1073.05,-104.6 1085.65,-102.76"/>
<polygon fill="#63b8ff" stroke="#63b8ff" points="1086.01,-106.25 1095.4,-101.34 1085,-99.32 1086.01,-106.25"/>
</a>
</g>
</g>
<!-- Node29 -->
<g id="Node000029" class="node">
<title>Node29</title>
<g id="a_Node000029"><a xlink:href="../../d1/dc0/group__log.html#ga045020bb4af234632f7761f220131c69" target="_top" xlink:title=" ">
<polygon fill="white" stroke="#666666" points="1177.75,-68.33 1092,-68.33 1092,-49.08 1177.75,-49.08 1177.75,-68.33"/>
<text text-anchor="middle" x="1134.88" y="-54.83" font-family="Helvetica,sans-Serif" font-size="10.00">log_spin_unlock</text>
</a>
</g>
</g>
<!-- Node12&#45;&gt;Node29 -->
<g id="edge32_Node000012_Node000029" class="edge">
<title>Node12&#45;&gt;Node29</title>
<g id="a_edge32_Node000012_Node000029"><a xlink:title=" ">
<path fill="none" stroke="#63b8ff" d="M1023.21,-104.74C1039.05,-96.71 1062.2,-85.36 1083,-76.71 1086.33,-75.32 1089.81,-73.95 1093.32,-72.61"/>
<polygon fill="#63b8ff" stroke="#63b8ff" points="1094.22,-76.01 1102.39,-69.26 1091.8,-69.44 1094.22,-76.01"/>
</a>
</g>
</g>
<!-- Node13&#45;&gt;Node13 -->
<g id="edge13_Node000013_Node000013" class="edge">
<title>Node13&#45;&gt;Node13</title>
<g id="a_edge13_Node000013_Node000013"><a xlink:title=" ">
<path fill="none" stroke="#63b8ff" d="M1114.23,-142.62C1104.81,-151.23 1111.69,-160.33 1134.88,-160.33 1147.55,-160.33 1155.35,-157.61 1158.28,-153.73"/>
<polygon fill="#63b8ff" stroke="#63b8ff" points="1161.69,-152.95 1155.89,-144.09 1154.9,-154.64 1161.69,-152.95"/>
</a>
</g>
</g>
<!-- Node14 -->
<g id="Node000014" class="node">
<title>Node14</title>
<g id="a_Node000014"><a xlink:href="../../de/d1a/container-dlist_8h.html#a3b6f65860b212e28f2e28e71eb54d54d" target="_top" xlink:title="Add element e at the head of list l (suited for LIFO).">
<polygon fill="white" stroke="#666666" points="1313.75,-49.33 1258.75,-49.33 1258.75,-30.08 1313.75,-30.08 1313.75,-49.33"/>
<text text-anchor="middle" x="1286.25" y="-35.83" font-family="Helvetica,sans-Serif" font-size="10.00">dlist_add</text>
</a>
</g>
</g>
<!-- Node13&#45;&gt;Node14 -->
<g id="edge14_Node000013_Node000014" class="edge">
<title>Node13&#45;&gt;Node14</title>
<g id="a_edge14_Node000013_Node000014"><a xlink:title=" ">
<path fill="none" stroke="#63b8ff" d="M1173.53,-122.67C1178.25,-120.49 1182.8,-117.86 1186.75,-114.71 1210.17,-96.01 1198.79,-75.7 1222.75,-57.71 1229.91,-52.33 1238.63,-48.56 1247.25,-45.92"/>
<polygon fill="#63b8ff" stroke="#63b8ff" points="1248.12,-49.31 1256.93,-43.42 1246.37,-42.53 1248.12,-49.31"/>
</a>
</g>
</g>
<!-- Node16 -->
<g id="Node000016" class="node">
<title>Node16</title>
<g id="a_Node000016"><a xlink:href="../../de/d1a/container-dlist_8h.html#a0a69e401f6ec15966c891e96ad864c77" target="_top" xlink:title="Put a dlist_t element in a safe and detached state.">
<polygon fill="white" stroke="#666666" points="1312.25,-123.33 1260.25,-123.33 1260.25,-104.08 1312.25,-104.08 1312.25,-123.33"/>
<text text-anchor="middle" x="1286.25" y="-109.83" font-family="Helvetica,sans-Serif" font-size="10.00">dlist_init</text>
</a>
</g>
</g>
<!-- Node13&#45;&gt;Node16 -->
<g id="edge16_Node000013_Node000016" class="edge">
<title>Node13&#45;&gt;Node16</title>
<g id="a_edge16_Node000013_Node000016"><a xlink:title=" ">
<path fill="none" stroke="#63b8ff" d="M1186.86,-126.22C1207.2,-123.63 1230.16,-120.71 1248.78,-118.35"/>
<polygon fill="#63b8ff" stroke="#63b8ff" points="1249.05,-121.84 1258.53,-117.11 1248.17,-114.9 1249.05,-121.84"/>
</a>
</g>
</g>
<!-- Node17 -->
<g id="Node000017" class="node">
<title>Node17</title>
<g id="a_Node000017"><a xlink:href="../../d7/df8/log_8c.html#a4c8fbe8648573312126ce341cf34cba1" target="_top" xlink:title=" ">
<polygon fill="white" stroke="#666666" points="1349.75,-199.33 1222.75,-199.33 1222.75,-180.08 1349.75,-180.08 1349.75,-199.33"/>
<text text-anchor="middle" x="1286.25" y="-185.83" font-family="Helvetica,sans-Serif" font-size="10.00">logger_compute_fullname</text>
</a>
</g>
</g>
<!-- Node13&#45;&gt;Node17 -->
<g id="edge17_Node000013_Node000017" class="edge">
<title>Node13&#45;&gt;Node17</title>
<g id="a_edge17_Node000013_Node000017"><a xlink:title=" ">
<path fill="none" stroke="#63b8ff" d="M1162.24,-142.77C1186.16,-151.9 1221.68,-165.45 1248.41,-175.65"/>
<polygon fill="#63b8ff" stroke="#63b8ff" points="1246.9,-178.82 1257.49,-179.11 1249.39,-172.28 1246.9,-178.82"/>
</a>
</g>
</g>
<!-- Node20 -->
<g id="Node000020" class="node">
<title>Node20</title>
<g id="a_Node000020"><a xlink:href="../../df/d0a/str-l_8h.html#ad74dae07179370f3c22e3f026157926e" target="_top" xlink:title="wipe a lstr_t (frees memory if needed).">
<polygon fill="white" stroke="#666666" points="1457.25,-176.33 1402.25,-176.33 1402.25,-157.08 1457.25,-157.08 1457.25,-176.33"/>
<text text-anchor="middle" x="1429.75" y="-162.83" font-family="Helvetica,sans-Serif" font-size="10.00">lstr_wipe</text>
</a>
</g>
</g>
<!-- Node13&#45;&gt;Node20 -->
<g id="edge30_Node000013_Node000020" class="edge">
<title>Node13&#45;&gt;Node20</title>
<g id="a_edge30_Node000013_Node000020"><a xlink:title=" ">
<path fill="none" stroke="#63b8ff" d="M1187.23,-138.67C1245.36,-145.42 1338.74,-156.26 1390.71,-162.29"/>
<polygon fill="#63b8ff" stroke="#63b8ff" points="1390.22,-165.76 1400.56,-163.43 1391.03,-158.8 1390.22,-165.76"/>
</a>
</g>
</g>
<!-- Node27 -->
<g id="Node000027" class="node">
<title>Node27</title>
<g id="a_Node000027"><a xlink:href="../../df/d0a/str-l_8h.html#a963c22b229774d4b7c106bae4011cb8e" target="_top" xlink:title="Returns whether \v s1 and \v s2 contents are equal.">
<polygon fill="white" stroke="#666666" points="1315.25,-86.33 1257.25,-86.33 1257.25,-67.08 1315.25,-67.08 1315.25,-86.33"/>
<text text-anchor="middle" x="1286.25" y="-72.83" font-family="Helvetica,sans-Serif" font-size="10.00">lstr_equal</text>
</a>
</g>
</g>
<!-- Node13&#45;&gt;Node27 -->
<g id="edge29_Node000013_Node000027" class="edge">
<title>Node13&#45;&gt;Node27</title>
<g id="a_edge29_Node000013_Node000027"><a xlink:title=" ">
<path fill="none" stroke="#63b8ff" d="M1166.87,-122.67C1173.51,-120.26 1180.43,-117.56 1186.75,-114.71 1203.44,-107.18 1205.85,-101.73 1222.75,-94.71 1230.04,-91.68 1238,-88.96 1245.73,-86.62"/>
<polygon fill="#63b8ff" stroke="#63b8ff" points="1246.68,-89.98 1255.33,-83.86 1244.75,-83.26 1246.68,-89.98"/>
</a>
</g>
</g>
<!-- Node15 -->
<g id="Node000015" class="node">
<title>Node15</title>
<g id="a_Node000015"><a xlink:href="../../de/d1a/container-dlist_8h.html#a71e7667ca0e4b896923788c5851afd24" target="_top" xlink:title="Put element e between prev and next.">
<polygon fill="white" stroke="#666666" points="1462.5,-49.33 1397,-49.33 1397,-30.08 1462.5,-30.08 1462.5,-49.33"/>
<text text-anchor="middle" x="1429.75" y="-35.83" font-family="Helvetica,sans-Serif" font-size="10.00">__dlist_add</text>
</a>
</g>
</g>
<!-- Node14&#45;&gt;Node15 -->
<g id="edge15_Node000014_Node000015" class="edge">
<title>Node14&#45;&gt;Node15</title>
<g id="a_edge15_Node000014_Node000015"><a xlink:title=" ">
<path fill="none" stroke="#63b8ff" d="M1314.2,-39.71C1334.3,-39.71 1362.17,-39.71 1385.39,-39.71"/>
<polygon fill="#63b8ff" stroke="#63b8ff" points="1385.19,-43.21 1395.19,-39.71 1385.19,-36.21 1385.19,-43.21"/>
</a>
</g>
</g>
<!-- Node18 -->
<g id="Node000018" class="node">
<title>Node18</title>
<g id="a_Node000018"><a xlink:href="../../df/d0a/str-l_8h.html#a6a200ca09358f19b13a8e297cda34869" target="_top" xlink:title="returns a constant copy of \v s.">
<polygon fill="white" stroke="#666666" points="1457.62,-213.33 1401.88,-213.33 1401.88,-194.08 1457.62,-194.08 1457.62,-213.33"/>
<text text-anchor="middle" x="1429.75" y="-199.83" font-family="Helvetica,sans-Serif" font-size="10.00">lstr_dupc</text>
</a>
</g>
</g>
<!-- Node17&#45;&gt;Node18 -->
<g id="edge18_Node000017_Node000018" class="edge">
<title>Node17&#45;&gt;Node18</title>
<g id="a_edge18_Node000017_Node000018"><a xlink:title=" ">
<path fill="none" stroke="#63b8ff" d="M1350.14,-195.93C1363.79,-197.28 1377.83,-198.67 1390.2,-199.89"/>
<polygon fill="#63b8ff" stroke="#63b8ff" points="1389.68,-203.36 1399.98,-200.86 1390.37,-196.39 1389.68,-203.36"/>
</a>
</g>
</g>
<!-- Node17&#45;&gt;Node20 -->
<g id="edge20_Node000017_Node000020" class="edge">
<title>Node17&#45;&gt;Node20</title>
<g id="a_edge20_Node000017_Node000020"><a xlink:title=" ">
<path fill="none" stroke="#63b8ff" d="M1349.31,-179.62C1363.41,-177.33 1377.98,-174.96 1390.73,-172.89"/>
<polygon fill="#63b8ff" stroke="#63b8ff" points="1391.06,-176.38 1400.37,-171.32 1389.93,-169.47 1391.06,-176.38"/>
</a>
</g>
</g>
<!-- Node19 -->
<g id="Node000019" class="node">
<title>Node19</title>
<g id="a_Node000019"><a xlink:href="../../df/d0a/str-l_8h.html#a3b4dbe9c4cc70340cba0787574dc1c5e" target="_top" xlink:title=" ">
<polygon fill="white" stroke="#666666" points="1787.25,-166.33 1734.5,-166.33 1734.5,-147.08 1787.25,-147.08 1787.25,-166.33"/>
<text text-anchor="middle" x="1760.88" y="-152.83" font-family="Helvetica,sans-Serif" font-size="10.00">lstr_init_</text>
</a>
</g>
</g>
<!-- Node18&#45;&gt;Node19 -->
<g id="edge19_Node000018_Node000019" class="edge">
<title>Node18&#45;&gt;Node19</title>
<g id="a_edge19_Node000018_Node000019"><a xlink:title=" ">
<path fill="none" stroke="#63b8ff" d="M1453.79,-193.71C1469.3,-187.44 1490.39,-179.8 1509.75,-175.71 1584.34,-159.95 1673.89,-156.86 1723.05,-156.48"/>
<polygon fill="#63b8ff" stroke="#63b8ff" points="1722.86,-159.98 1732.84,-156.44 1722.83,-152.98 1722.86,-159.98"/>
</a>
</g>
</g>
<!-- Node21 -->
<g id="Node000021" class="node">
<title>Node21</title>
<g id="a_Node000021"><a xlink:href="../../df/d0a/str-l_8h.html#a381cd831ac9616c5bea8213bb679d1ac" target="_top" xlink:title="Wipe a lstr_t (frees memory if needed).">
<polygon fill="white" stroke="#666666" points="1583.5,-204.33 1509.75,-204.33 1509.75,-185.08 1583.5,-185.08 1583.5,-204.33"/>
<text text-anchor="middle" x="1546.62" y="-190.83" font-family="Helvetica,sans-Serif" font-size="10.00">mp_lstr_wipe</text>
</a>
</g>
</g>
<!-- Node20&#45;&gt;Node21 -->
<g id="edge21_Node000020_Node000021" class="edge">
<title>Node20&#45;&gt;Node21</title>
<g id="a_edge21_Node000020_Node000021"><a xlink:title=" ">
<path fill="none" stroke="#63b8ff" d="M1457.68,-173.27C1469.82,-176.23 1484.52,-179.81 1498.4,-183.2"/>
<polygon fill="#63b8ff" stroke="#63b8ff" points="1497.28,-186.52 1507.82,-185.49 1498.94,-179.72 1497.28,-186.52"/>
</a>
</g>
</g>
<!-- Node22 -->
<g id="Node000022" class="node">
<title>Node22</title>
<g id="a_Node000022"><a xlink:href="../../de/d04/str-l_8c.html#abe2a3a71f0b4dbc7d37c59d16762b6fb" target="_top" xlink:title="lstr_copy_* helper.">
<polygon fill="white" stroke="#666666" points="1698.5,-204.33 1619.5,-204.33 1619.5,-185.08 1698.5,-185.08 1698.5,-204.33"/>
<text text-anchor="middle" x="1659" y="-190.83" font-family="Helvetica,sans-Serif" font-size="10.00">mp_lstr_copy_</text>
</a>
</g>
</g>
<!-- Node21&#45;&gt;Node22 -->
<g id="edge22_Node000021_Node000022" class="edge">
<title>Node21&#45;&gt;Node22</title>
<g id="a_edge22_Node000021_Node000022"><a xlink:title=" ">
<path fill="none" stroke="#63b8ff" d="M1583.77,-194.71C1591.46,-194.71 1599.71,-194.71 1607.82,-194.71"/>
<polygon fill="#63b8ff" stroke="#63b8ff" points="1607.6,-198.21 1617.6,-194.71 1607.6,-191.21 1607.6,-198.21"/>
</a>
</g>
</g>
<!-- Node22&#45;&gt;Node19 -->
<g id="edge28_Node000022_Node000019" class="edge">
<title>Node22&#45;&gt;Node19</title>
<g id="a_edge28_Node000022_Node000019"><a xlink:title=" ">
<path fill="none" stroke="#63b8ff" d="M1686.5,-184.62C1697.94,-180.27 1711.51,-175.11 1723.85,-170.42"/>
<polygon fill="#63b8ff" stroke="#63b8ff" points="1724.77,-173.81 1732.87,-166.98 1722.28,-167.27 1724.77,-173.81"/>
</a>
</g>
</g>
<!-- Node23 -->
<g id="Node000023" class="node">
<title>Node23</title>
<g id="a_Node000023"><a xlink:href="../../d9/d9a/mem_8h.html#aebbbd277e2952bdb802104671ba23ba9" target="_top" xlink:title=" ">
<polygon fill="white" stroke="#666666" points="1778.25,-219.33 1743.5,-219.33 1743.5,-200.08 1778.25,-200.08 1778.25,-219.33"/>
<text text-anchor="middle" x="1760.88" y="-205.83" font-family="Helvetica,sans-Serif" font-size="10.00">ifree</text>
</a>
</g>
</g>
<!-- Node22&#45;&gt;Node23 -->
<g id="edge23_Node000022_Node000023" class="edge">
<title>Node22&#45;&gt;Node23</title>
<g id="a_edge23_Node000022_Node000023"><a xlink:title=" ">
<path fill="none" stroke="#63b8ff" d="M1698.9,-200.55C1709.92,-202.2 1721.7,-203.97 1731.94,-205.51"/>
<polygon fill="#63b8ff" stroke="#63b8ff" points="1731.2,-208.94 1741.61,-206.96 1732.24,-202.02 1731.2,-208.94"/>
</a>
</g>
</g>
<!-- Node24 -->
<g id="Node000024" class="node">
<title>Node24</title>
<g id="a_Node000024"><a xlink:href="../../d8/d37/mem_8blk.html#a36b65ab346f1d0deed7b63c544c78f2b" target="_top" xlink:title=" ">
<polygon fill="white" stroke="#666666" points="1868.12,-313.33 1831.88,-313.33 1831.88,-294.08 1868.12,-294.08 1868.12,-313.33"/>
<text text-anchor="middle" x="1850" y="-299.83" font-family="Helvetica,sans-Serif" font-size="10.00">ipool</text>
</a>
</g>
</g>
<!-- Node23&#45;&gt;Node24 -->
<g id="edge24_Node000023_Node000024" class="edge">
<title>Node23&#45;&gt;Node24</title>
<g id="a_edge24_Node000023_Node000024"><a xlink:title=" ">
<path fill="none" stroke="#63b8ff" d="M1771.2,-219.77C1785.68,-235.39 1813.78,-265.71 1831.95,-285.31"/>
<polygon fill="#63b8ff" stroke="#63b8ff" points="1829.35,-287.65 1838.71,-292.61 1834.48,-282.9 1829.35,-287.65"/>
</a>
</g>
</g>
<!-- Node26 -->
<g id="Node000026" class="node">
<title>Node26</title>
<g id="a_Node000026"><a xlink:href="../../d8/d37/mem_8blk.html#a83c7cf203e5eef9d1a8c6c43cde3e2e5" target="_top" xlink:title=" ">
<polygon fill="white" stroke="#666666" points="1876.75,-219.33 1823.25,-219.33 1823.25,-200.08 1876.75,-200.08 1876.75,-219.33"/>
<text text-anchor="middle" x="1850" y="-205.83" font-family="Helvetica,sans-Serif" font-size="10.00">mp_ifree</text>
</a>
</g>
</g>
<!-- Node23&#45;&gt;Node26 -->
<g id="edge27_Node000023_Node000026" class="edge">
<title>Node23&#45;&gt;Node26</title>
<g id="a_edge27_Node000023_Node000026"><a xlink:title=" ">
<path fill="none" stroke="#63b8ff" d="M1778.67,-209.71C1788.09,-209.71 1800.24,-209.71 1811.78,-209.71"/>
<polygon fill="#63b8ff" stroke="#63b8ff" points="1811.48,-213.21 1821.48,-209.71 1811.48,-206.21 1811.48,-213.21"/>
</a>
</g>
</g>
<!-- Node24&#45;&gt;Node11 -->
<g id="edge25_Node000024_Node000011" class="edge">
<title>Node24&#45;&gt;Node11</title>
<g id="a_edge25_Node000024_Node000011"><a xlink:title=" ">
<path fill="none" stroke="#63b8ff" d="M1831.54,-303.71C1798.2,-303.71 1723.16,-303.71 1660,-303.71 1133.88,-303.71 1133.88,-303.71 1133.88,-303.71 1055.65,-303.71 1028.99,-318.66 959,-283.71 938.19,-273.31 941.05,-260.39 923,-245.71 922.34,-245.17 921.67,-244.64 920.98,-244.12"/>
<polygon fill="#63b8ff" stroke="#63b8ff" points="923.09,-241.32 912.87,-238.52 919.12,-247.08 923.09,-241.32"/>
</a>
</g>
</g>
<!-- Node24&#45;&gt;Node25 -->
<g id="edge26_Node000024_Node000025" class="edge">
<title>Node24&#45;&gt;Node25</title>
<g id="a_edge26_Node000024_Node000025"><a xlink:title=" ">
<path fill="none" stroke="#63b8ff" d="M1868.36,-307.74C1877.91,-309.95 1890.05,-312.77 1901.22,-315.36"/>
<polygon fill="#63b8ff" stroke="#63b8ff" points="1900.35,-318.75 1910.88,-317.6 1901.93,-311.93 1900.35,-318.75"/>
</a>
</g>
</g>
<!-- Node30&#45;&gt;Node18 -->
<g id="edge37_Node000030_Node000018" class="edge">
<title>Node30&#45;&gt;Node18</title>
<g id="a_edge37_Node000030_Node000018"><a xlink:title=" ">
<path fill="none" stroke="#63b8ff" d="M1035.94,-226.04C1096.94,-222.84 1234.23,-215.54 1349.75,-208.71 1362.98,-207.92 1377.46,-207.02 1390.37,-206.2"/>
<polygon fill="#63b8ff" stroke="#63b8ff" points="1390.43,-209.7 1400.19,-205.57 1389.98,-202.72 1390.43,-209.7"/>
</a>
</g>
</g>
<!-- Node31 -->
<g id="Node000031" class="node">
<title>Node31</title>
<g id="a_Node000031"><a xlink:href="../../d1/dc0/group__log.html#ga168a6f17b248f61f7d25a17d58d04e36" target="_top" xlink:title=" ">
<polygon fill="white" stroke="#666666" points="1179.25,-275.33 1090.5,-275.33 1090.5,-256.08 1179.25,-256.08 1179.25,-275.33"/>
<text text-anchor="middle" x="1134.88" y="-261.83" font-family="Helvetica,sans-Serif" font-size="10.00">logger_has_level</text>
</a>
</g>
</g>
<!-- Node30&#45;&gt;Node31 -->
<g id="edge34_Node000030_Node000031" class="edge">
<title>Node30&#45;&gt;Node31</title>
<g id="a_edge34_Node000030_Node000031"><a xlink:title=" ">
<path fill="none" stroke="#63b8ff" d="M1036.1,-237.1C1051.88,-241.72 1071.16,-247.36 1088.42,-252.41"/>
<polygon fill="#63b8ff" stroke="#63b8ff" points="1087.38,-255.75 1097.96,-255.2 1089.34,-249.03 1087.38,-255.75"/>
</a>
</g>
</g>
<!-- Node32 -->
<g id="Node000032" class="node">
<title>Node32</title>
<g id="a_Node000032"><a xlink:href="../../d1/dc0/group__log.html#gaf388752b988541da0abeceecdf96e6b3" target="_top" xlink:title=" ">
<polygon fill="white" stroke="#666666" points="1329.5,-275.33 1243,-275.33 1243,-256.08 1329.5,-256.08 1329.5,-275.33"/>
<text text-anchor="middle" x="1286.25" y="-261.83" font-family="Helvetica,sans-Serif" font-size="10.00">logger_get_level</text>
</a>
</g>
</g>
<!-- Node31&#45;&gt;Node32 -->
<g id="edge35_Node000031_Node000032" class="edge">
<title>Node31&#45;&gt;Node32</title>
<g id="a_edge35_Node000031_Node000032"><a xlink:title=" ">
<path fill="none" stroke="#63b8ff" d="M1179.48,-265.71C1195.64,-265.71 1214.17,-265.71 1231.15,-265.71"/>
<polygon fill="#63b8ff" stroke="#63b8ff" points="1231.11,-269.21 1241.11,-265.71 1231.11,-262.21 1231.11,-269.21"/>
</a>
</g>
</g>
<!-- Node33 -->
<g id="Node000033" class="node">
<title>Node33</title>
<g id="a_Node000033"><a xlink:href="../../d1/dc0/group__log.html#ga93cbd623096e1704532d15b3eb30e42f" target="_top" xlink:title=" ">
<polygon fill="white" stroke="#666666" points="1473.75,-275.33 1385.75,-275.33 1385.75,-256.08 1473.75,-256.08 1473.75,-275.33"/>
<text text-anchor="middle" x="1429.75" y="-261.83" font-family="Helvetica,sans-Serif" font-size="10.00">__logger_refresh</text>
</a>
</g>
</g>
<!-- Node32&#45;&gt;Node33 -->
<g id="edge36_Node000032_Node000033" class="edge">
<title>Node32&#45;&gt;Node33</title>
<g id="a_edge36_Node000032_Node000033"><a xlink:title=" ">
<path fill="none" stroke="#63b8ff" d="M1329.7,-265.71C1343.58,-265.71 1359.19,-265.71 1373.85,-265.71"/>
<polygon fill="#63b8ff" stroke="#63b8ff" points="1373.83,-269.21 1383.83,-265.71 1373.83,-262.21 1373.83,-269.21"/>
</a>
</g>
</g>
<!-- Node36 -->
<g id="Node000036" class="node">
<title>Node36</title>
<g id="a_Node000036"><a xlink:href="../../d8/d96/bithacks_8h.html#ab80588fa9f8b9e766249edaf70558bdc" target="_top" xlink:title=" ">
<polygon fill="white" stroke="#666666" points="923,-274.33 862.75,-274.33 862.75,-255.08 923,-255.08 923,-274.33"/>
<text text-anchor="middle" x="892.88" y="-260.83" font-family="Helvetica,sans-Serif" font-size="10.00">bitcountsz</text>
</a>
</g>
</g>
<!-- Node35&#45;&gt;Node36 -->
<g id="edge40_Node000035_Node000036" class="edge">
<title>Node35&#45;&gt;Node36</title>
<g id="a_edge40_Node000035_Node000036"><a xlink:title=" ">
<path fill="none" stroke="#63b8ff" d="M815.32,-264.71C826.9,-264.71 839.62,-264.71 851.31,-264.71"/>
<polygon fill="#63b8ff" stroke="#63b8ff" points="851.06,-268.21 861.06,-264.71 851.06,-261.21 851.06,-268.21"/>
</a>
</g>
</g>
<!-- Node38 -->
<g id="Node000038" class="node">
<title>Node38</title>
<g id="a_Node000038"><a xlink:href="../../d8/d37/mem_8blk.html#a377e36d6fbaf3ee7f1b217559cb0c850" target="_top" xlink:title=" ">
<polygon fill="white" stroke="#666666" points="826.75,-311.33 724.5,-311.33 724.5,-292.08 826.75,-292.08 826.75,-311.33"/>
<text text-anchor="middle" x="775.62" y="-297.83" font-family="Helvetica,sans-Serif" font-size="10.00">__imalloc_too_large</text>
</a>
</g>
</g>
<!-- Node37&#45;&gt;Node38 -->
<g id="edge42_Node000037_Node000038" class="edge">
<title>Node37&#45;&gt;Node38</title>
<g id="a_edge42_Node000037_Node000038"><a xlink:title=" ">
<path fill="none" stroke="#63b8ff" d="M674.05,-276.83C689.31,-280.6 706.82,-284.94 722.92,-288.92"/>
<polygon fill="#63b8ff" stroke="#63b8ff" points="721.77,-292.24 732.32,-291.24 723.45,-285.44 721.77,-292.24"/>
</a>
</g>
</g>
<!-- Node39&#45;&gt;Node19 -->
<g id="edge44_Node000039_Node000019" class="edge">
<title>Node39&#45;&gt;Node19</title>
<g id="a_edge44_Node000039_Node000019"><a xlink:title=" ">
<path fill="none" stroke="#63b8ff" d="M1570.34,-72.77C1608,-89.45 1683.52,-122.89 1727,-142.15"/>
<polygon fill="#63b8ff" stroke="#63b8ff" points="1725.38,-145.26 1735.94,-146.11 1728.21,-138.86 1725.38,-145.26"/>
</a>
</g>
</g>
</g>
</svg>

<g id="navigator" transform="translate(0 0)" fill="#404254">
  <rect fill="#f2f5e9" fill-opacity="0.5" stroke="#606060" stroke-width=".5" x="0" y="0" width="60" height="60"/>
  <use id="zoomplus" xlink:href="#zoomPlus" x="17" y="9" onmousedown="handleZoom(evt,'in')"/>
  <use id="zoomminus" xlink:href="#zoomMin" x="42" y="9" onmousedown="handleZoom(evt,'out')"/>
  <use id="reset" xlink:href="#resetDef" x="30" y="36" onmousedown="handleReset()"/>
   <use id="arrowup" xlink:href="#arrowUp" x="0" y="0" onmousedown="handlePan(0,-1)"/>
  <use id="arrowright" xlink:href="#arrowRight" x="0" y="0" onmousedown="handlePan(1,0)"/>
  <use id="arrowdown" xlink:href="#arrowDown" x="0" y="0" onmousedown="handlePan(0,1)"/>
  <use id="arrowleft" xlink:href="#arrowLeft" x="0" y="0" onmousedown="handlePan(-1,0)"/>
</g>
<svg viewBox="0 0 15 15" width="100%" height="30px" preserveAspectRatio="xMaxYMin meet">
 <g id="arrow_out" transform="scale(0.3 0.3)">
  <a xlink:href="iopc_8h_aa389859676a099165708157b84b45e41_cgraph_org.svg" target="_base">
   <rect id="button" ry="5" rx="5" y="6" x="6" height="38" width="38"
        fill="#f2f5e9" fill-opacity="0.5" stroke="#606060" stroke-width="1.0"/>
   <path id="arrow"
     d="M 11.500037,31.436501 C 11.940474,20.09759 22.043105,11.32322 32.158766,21.979434 L 37.068811,17.246167 C 37.068811,17.246167 37.088388,32 37.088388,32 L 22.160133,31.978069 C 22.160133,31.978069 26.997745,27.140456 26.997745,27.140456 C 18.528582,18.264221 13.291696,25.230495 11.500037,31.436501 z"
     style="fill:#404040;"/>
  </a>
 </g>
</svg>

<style type='text/css'>
<![CDATA[
[data-mouse-over-selected='false'] { opacity: 0.7; }
[data-mouse-over-selected='true']  { opacity: 1.0; }
]]>
</style>
<script type="application/ecmascript"><![CDATA[
document.addEventListener('DOMContentLoaded', (event) => {
  highlightEdges();
  highlightAdjacentNodes();
});
]]></script>
</svg>
