<?xml version="1.0" encoding="UTF-8" standalone="no"?>
<!DOCTYPE svg PUBLIC "-//W3C//DTD SVG 1.1//EN"
 "http://www.w3.org/Graphics/SVG/1.1/DTD/svg11.dtd">
<!-- Generated by graphviz version 9.0.0 (20230911.1827)
 -->
<!-- Title: iopctokens.h Pages: 1 -->
<svg width="168pt" height="83pt"
 viewBox="0.00 0.00 168.12 82.50" xmlns="http://www.w3.org/2000/svg" xmlns:xlink="http://www.w3.org/1999/xlink">
<g id="graph0" class="graph" transform="scale(1 1) rotate(0) translate(4 78.5)">
<title>iopctokens.h</title>
<!-- Node1 -->
<g id="Node000001" class="node">
<title>Node1</title>
<g id="a_Node000001"><a xlink:title=" ">
<polygon fill="#999999" stroke="#666666" points="115.12,-74.5 44.38,-74.5 44.38,-55.25 115.12,-55.25 115.12,-74.5"/>
<text text-anchor="middle" x="79.75" y="-61" font-family="Helvetica,sans-Serif" font-size="10.00">iopctokens.h</text>
</a>
</g>
</g>
<!-- Node2 -->
<g id="Node000002" class="node">
<title>Node2</title>
<g id="a_Node000002"><a xlink:href="../../dd/dfc/iopc-parser_8c.html" target="_top" xlink:title=" ">
<polygon fill="white" stroke="#666666" points="71.5,-19.25 0,-19.25 0,0 71.5,0 71.5,-19.25"/>
<text text-anchor="middle" x="35.75" y="-5.75" font-family="Helvetica,sans-Serif" font-size="10.00">iopc&#45;parser.c</text>
</a>
</g>
</g>
<!-- Node1&#45;&gt;Node2 -->
<g id="edge1_Node000001_Node000002" class="edge">
<title>Node1&#45;&gt;Node2</title>
<g id="a_edge1_Node000001_Node000002"><a xlink:title=" ">
<path fill="none" stroke="#63b8ff" d="M65.17,-46.22C57.8,-37.31 49.17,-26.87 43.17,-19.61"/>
<polygon fill="#63b8ff" stroke="#63b8ff" points="62.45,-48.44 71.52,-53.92 67.85,-43.98 62.45,-48.44"/>
</a>
</g>
</g>
<!-- Node3 -->
<g id="Node000003" class="node">
<title>Node3</title>
<g id="a_Node000003"><a xlink:href="../../de/dd0/iopctokens_8c.html" target="_top" xlink:title=" ">
<polygon fill="white" stroke="#666666" points="160.12,-19.25 89.38,-19.25 89.38,0 160.12,0 160.12,-19.25"/>
<text text-anchor="middle" x="124.75" y="-5.75" font-family="Helvetica,sans-Serif" font-size="10.00">iopctokens.c</text>
</a>
</g>
</g>
<!-- Node1&#45;&gt;Node3 -->
<g id="edge2_Node000001_Node000003" class="edge">
<title>Node1&#45;&gt;Node3</title>
<g id="a_edge2_Node000001_Node000003"><a xlink:title=" ">
<path fill="none" stroke="#63b8ff" d="M94.43,-46.51C102.01,-37.53 110.96,-26.95 117.16,-19.61"/>
<polygon fill="#63b8ff" stroke="#63b8ff" points="91.94,-44.03 88.16,-53.93 97.29,-48.55 91.94,-44.03"/>
</a>
</g>
</g>
</g>
</svg>
