<?xml version="1.0" encoding="UTF-8" standalone="no"?>
<!DOCTYPE svg PUBLIC "-//W3C//DTD SVG 1.1//EN"
 "http://www.w3.org/Graphics/SVG/1.1/DTD/svg11.dtd">
<!-- Generated by graphviz version 9.0.0 (20230911.1827)
 -->
<!-- Title: sb_add_pkcs7_8_bytes_padding Pages: 1 -->
<!--zoomable 347 -->

<svg id="main" version="1.1" xmlns="http://www.w3.org/2000/svg" xmlns:xlink="http://www.w3.org/1999/xlink" xml:space="preserve" onload="init(evt)">
<style type="text/css"><![CDATA[
.node, .edge {opacity: 0.7;}
.node.selected, .edge.selected {opacity: 1;}
.edge:hover path { stroke: red; }
.edge:hover polygon { stroke: red; fill: red; }
]]></style>

<defs>
  <circle id="rim" cx="0" cy="0" r="7"/>
  <circle id="rim2" cx="0" cy="0" r="3.5"/>
  <g id="zoomPlus">
    <use xlink:href="#rim" fill="#404040"><set attributeName="fill" to="#808080" begin="zoomplus.mouseover" end="zoomplus.mouseout"/></use>
    <path d="M-4,0h8M0,-4v8" fill="none" stroke="white" stroke-width="1.5" pointer-events="none"/>
  </g>
  <g id="zoomMin">
    <use xlink:href="#rim" fill="#404040"><set attributeName="fill" to="#808080" begin="zoomminus.mouseover" end="zoomminus.mouseout"/></use>
    <path d="M-4,0h8" fill="none" stroke="white" stroke-width="1.5" pointer-events="none"/>
  </g>
  <g id="arrowUp" transform="translate(30 24)">
    <use xlink:href="#rim"/>
    <path pointer-events="none" fill="none" stroke="white" stroke-width="1.5" d="M0,-3.0v7 M-2.5,-0.5L0,-3.0L2.5,-0.5"/>
  </g>
  <g id="arrowRight" transform="rotate(90) translate(36 -43)">
    <use xlink:href="#rim"/>
    <path pointer-events="none" fill="none" stroke="white" stroke-width="1.5" d="M0,-3.0v7 M-2.5,-0.5L0,-3.0L2.5,-0.5"/>
  </g>
  <g id="arrowDown" transform="rotate(180) translate(-30 -48)">
    <use xlink:href="#rim"/>
    <path pointer-events="none" fill="none" stroke="white" stroke-width="1.5" d="M0,-3.0v7 M-2.5,-0.5L0,-3.0L2.5,-0.5"/>
  </g>
  <g id="arrowLeft" transform="rotate(270) translate(-36 17)">
    <use xlink:href="#rim"/>
    <path pointer-events="none" fill="none" stroke="white" stroke-width="1.5" d="M0,-3.0v7 M-2.5,-0.5L0,-3.0L2.5,-0.5"/>
  </g>
  <g id="resetDef">
    <use xlink:href="#rim2" fill="#404040"><set attributeName="fill" to="#808080" begin="reset.mouseover" end="reset.mouseout"/></use>
  </g>
</defs>
<script type="application/ecmascript">
var viewWidth = 2458;
var viewHeight = 347;
var sectionId = 'dynsection-18';
</script>
<script type="application/ecmascript" xlink:href="../../svg.min.js"/>
<svg id="graph" class="graph">
<g id="viewport">
<title>sb_add_pkcs7_8_bytes_padding</title>
<!-- Node1 -->
<g id="Node000001" class="node">
<title>Node1</title>
<g id="a_Node000001"><a xlink:title="Append 1 to 8 padding bytes (PKCS#7).">
<polygon fill="#999999" stroke="#666666" points="118,-115.27 0,-115.27 0,-84.77 118,-84.77 118,-115.27"/>
<text text-anchor="start" x="8" y="-101.77" font-family="Helvetica,sans-Serif" font-size="10.00">sb_add_pkcs7_8_bytes</text>
<text text-anchor="middle" x="59" y="-90.52" font-family="Helvetica,sans-Serif" font-size="10.00">_padding</text>
</a>
</g>
</g>
<!-- Node2 -->
<g id="Node000002" class="node">
<title>Node2</title>
<g id="a_Node000002"><a xlink:href="../../dc/d31/str-buf_8h.html#ad71b442a1ca593f3f228740d24d82df2" target="_top" xlink:title=" ">
<polygon fill="white" stroke="#666666" points="212,-109.64 154,-109.64 154,-90.39 212,-90.39 212,-109.64"/>
<text text-anchor="middle" x="183" y="-96.14" font-family="Helvetica,sans-Serif" font-size="10.00">sb_addnc</text>
</a>
</g>
</g>
<!-- Node1&#45;&gt;Node2 -->
<g id="edge1_Node000001_Node000002" class="edge">
<title>Node1&#45;&gt;Node2</title>
<g id="a_edge1_Node000001_Node000002"><a xlink:title=" ">
<path fill="none" stroke="#63b8ff" d="M118.5,-100.02C126.53,-100.02 134.61,-100.02 142.19,-100.02"/>
<polygon fill="#63b8ff" stroke="#63b8ff" points="142.11,-103.52 152.11,-100.02 142.11,-96.52 142.11,-103.52"/>
</a>
</g>
</g>
<!-- Node3 -->
<g id="Node000003" class="node">
<title>Node3</title>
<g id="a_Node000003"><a xlink:href="../../dc/d31/str-buf_8h.html#a69537528c954fce98e3d2cb92232ffe8" target="_top" xlink:title=" ">
<polygon fill="white" stroke="#666666" points="313.5,-109.64 248,-109.64 248,-90.39 313.5,-90.39 313.5,-109.64"/>
<text text-anchor="middle" x="280.75" y="-96.14" font-family="Helvetica,sans-Serif" font-size="10.00">sb_growlen</text>
</a>
</g>
</g>
<!-- Node2&#45;&gt;Node3 -->
<g id="edge2_Node000002_Node000003" class="edge">
<title>Node2&#45;&gt;Node3</title>
<g id="a_edge2_Node000002_Node000003"><a xlink:title=" ">
<path fill="none" stroke="#63b8ff" d="M212.47,-100.02C219.88,-100.02 228.03,-100.02 236.03,-100.02"/>
<polygon fill="#63b8ff" stroke="#63b8ff" points="236.02,-103.52 246.02,-100.02 236.02,-96.52 236.02,-103.52"/>
</a>
</g>
</g>
<!-- Node4 -->
<g id="Node000004" class="node">
<title>Node4</title>
<g id="a_Node000004"><a xlink:href="../../dc/d31/str-buf_8h.html#a5019d1298a6a5b4f8ae0b645bb8bc627" target="_top" xlink:title=" ">
<polygon fill="white" stroke="#666666" points="413.5,-164.64 349.5,-164.64 349.5,-145.39 413.5,-145.39 413.5,-164.64"/>
<text text-anchor="middle" x="381.5" y="-151.14" font-family="Helvetica,sans-Serif" font-size="10.00">__sb_fixlen</text>
</a>
</g>
</g>
<!-- Node3&#45;&gt;Node4 -->
<g id="edge3_Node000003_Node000004" class="edge">
<title>Node3&#45;&gt;Node4</title>
<g id="a_edge3_Node000003_Node000004"><a xlink:title=" ">
<path fill="none" stroke="#63b8ff" d="M299.86,-110.1C314.62,-118.32 335.7,-130.07 352.61,-139.48"/>
<polygon fill="#63b8ff" stroke="#63b8ff" points="350.74,-142.45 361.18,-144.26 354.15,-136.33 350.74,-142.45"/>
</a>
</g>
</g>
<!-- Node6 -->
<g id="Node000006" class="node">
<title>Node6</title>
<g id="a_Node000006"><a xlink:href="../../d4/d02/str-buf_8c.html#a96e2e5252e81ed31e7071e4db76085b5" target="_top" xlink:title=" ">
<polygon fill="white" stroke="#666666" points="413.12,-109.64 349.88,-109.64 349.88,-90.39 413.12,-90.39 413.12,-109.64"/>
<text text-anchor="middle" x="381.5" y="-96.14" font-family="Helvetica,sans-Serif" font-size="10.00">__sb_grow</text>
</a>
</g>
</g>
<!-- Node3&#45;&gt;Node6 -->
<g id="edge5_Node000003_Node000006" class="edge">
<title>Node3&#45;&gt;Node6</title>
<g id="a_edge5_Node000003_Node000006"><a xlink:title=" ">
<path fill="none" stroke="#63b8ff" d="M313.81,-100.02C321.62,-100.02 330.09,-100.02 338.29,-100.02"/>
<polygon fill="#63b8ff" stroke="#63b8ff" points="338.09,-103.52 348.09,-100.02 338.09,-96.52 338.09,-103.52"/>
</a>
</g>
</g>
<!-- Node45 -->
<g id="Node000045" class="node">
<title>Node45</title>
<g id="a_Node000045"><a xlink:href="../../dc/d31/str-buf_8h.html#acd3f1b7a3fde32b199cf24fdb133b4ce" target="_top" xlink:title=" ">
<polygon fill="white" stroke="#666666" points="405.25,-72.64 357.75,-72.64 357.75,-53.39 405.25,-53.39 405.25,-72.64"/>
<text text-anchor="middle" x="381.5" y="-59.14" font-family="Helvetica,sans-Serif" font-size="10.00">sb_end</text>
</a>
</g>
</g>
<!-- Node3&#45;&gt;Node45 -->
<g id="edge57_Node000003_Node000045" class="edge">
<title>Node3&#45;&gt;Node45</title>
<g id="a_edge57_Node000003_Node000045"><a xlink:title=" ">
<path fill="none" stroke="#63b8ff" d="M308.73,-89.91C320.57,-85.47 334.59,-80.22 347.08,-75.54"/>
<polygon fill="#63b8ff" stroke="#63b8ff" points="348.01,-78.93 356.15,-72.14 345.56,-72.37 348.01,-78.93"/>
</a>
</g>
</g>
<!-- Node5 -->
<g id="Node000005" class="node">
<title>Node5</title>
<g id="a_Node000005"><a xlink:href="../../dc/d31/str-buf_8h.html#a01c1a4f8ed76b6a919595b803c7d7376" target="_top" xlink:title=" ">
<polygon fill="white" stroke="#666666" points="543.88,-183.64 459.62,-183.64 459.62,-164.39 543.88,-164.39 543.88,-183.64"/>
<text text-anchor="middle" x="501.75" y="-170.14" font-family="Helvetica,sans-Serif" font-size="10.00">sb_set_trailing0</text>
</a>
</g>
</g>
<!-- Node4&#45;&gt;Node5 -->
<g id="edge4_Node000004_Node000005" class="edge">
<title>Node4&#45;&gt;Node5</title>
<g id="a_edge4_Node000004_Node000005"><a xlink:title=" ">
<path fill="none" stroke="#63b8ff" d="M413.88,-160.06C424.46,-161.76 436.57,-163.7 448.32,-165.59"/>
<polygon fill="#63b8ff" stroke="#63b8ff" points="447.49,-169 457.92,-167.14 448.6,-162.09 447.49,-169"/>
</a>
</g>
</g>
<!-- Node7 -->
<g id="Node000007" class="node">
<title>Node7</title>
<g id="a_Node000007"><a xlink:href="../../d7/df8/log_8c.html#abca342edf91a9b45f7a17ef564fa8a53" target="_top" xlink:title=" ">
<polygon fill="white" stroke="#666666" points="1412.25,-123.64 1362.5,-123.64 1362.5,-104.39 1412.25,-104.39 1412.25,-123.64"/>
<text text-anchor="middle" x="1387.38" y="-110.14" font-family="Helvetica,sans-Serif" font-size="10.00">e_panic</text>
</a>
</g>
</g>
<!-- Node6&#45;&gt;Node7 -->
<g id="edge6_Node000006_Node000007" class="edge">
<title>Node6&#45;&gt;Node7</title>
<g id="a_edge6_Node000006_Node000007"><a xlink:title=" ">
<path fill="none" stroke="#63b8ff" d="M401.75,-89.99C405.77,-87.58 409.89,-84.87 413.5,-82.02 431.75,-67.58 429.27,-55.5 449.5,-44.02 527.53,0.25 556.79,-0.02 646.5,-0.02 646.5,-0.02 646.5,-0.02 1127.62,-0.02 1222.61,-0.02 1321.82,-65.14 1364.61,-96.94"/>
<polygon fill="#63b8ff" stroke="#63b8ff" points="1362.5,-99.73 1372.58,-102.99 1366.73,-94.15 1362.5,-99.73"/>
</a>
</g>
</g>
<!-- Node31 -->
<g id="Node000031" class="node">
<title>Node31</title>
<g id="a_Node000031"><a xlink:href="../../d9/d9a/mem_8h.html#a3fd6d5b3dcb24f194848ce86f988fb13" target="_top" xlink:title=" ">
<polygon fill="white" stroke="#666666" points="529.25,-72.64 474.25,-72.64 474.25,-53.39 529.25,-53.39 529.25,-72.64"/>
<text text-anchor="middle" x="501.75" y="-59.14" font-family="Helvetica,sans-Serif" font-size="10.00">mp_ipool</text>
</a>
</g>
</g>
<!-- Node6&#45;&gt;Node31 -->
<g id="edge35_Node000006_Node000031" class="edge">
<title>Node6&#45;&gt;Node31</title>
<g id="a_edge35_Node000006_Node000031"><a xlink:title=" ">
<path fill="none" stroke="#63b8ff" d="M413.57,-90.3C428.8,-85.53 447.27,-79.75 463.28,-74.74"/>
<polygon fill="#63b8ff" stroke="#63b8ff" points="463.96,-78.2 472.46,-71.87 461.87,-71.52 463.96,-78.2"/>
</a>
</g>
</g>
<!-- Node32 -->
<g id="Node000032" class="node">
<title>Node32</title>
<g id="a_Node000032"><a xlink:href="../../d9/d9a/mem_8h.html#a15958df365e5c2cc90a6c0c3e7e0e74f" target="_top" xlink:title=" ">
<polygon fill="white" stroke="#666666" points="554,-109.64 449.5,-109.64 449.5,-90.39 554,-90.39 554,-109.64"/>
<text text-anchor="middle" x="501.75" y="-96.14" font-family="Helvetica,sans-Serif" font-size="10.00">mp_irealloc_fallback</text>
</a>
</g>
</g>
<!-- Node6&#45;&gt;Node32 -->
<g id="edge36_Node000006_Node000032" class="edge">
<title>Node6&#45;&gt;Node32</title>
<g id="a_edge36_Node000006_Node000032"><a xlink:title=" ">
<path fill="none" stroke="#63b8ff" d="M413.57,-100.02C421.1,-100.02 429.41,-100.02 437.83,-100.02"/>
<polygon fill="#63b8ff" stroke="#63b8ff" points="437.8,-103.52 447.8,-100.02 437.8,-96.52 437.8,-103.52"/>
</a>
</g>
</g>
<!-- Node44 -->
<g id="Node000044" class="node">
<title>Node44</title>
<g id="a_Node000044"><a xlink:href="../../d4/d02/str-buf_8c.html#a63ddc4121cc8fbd2d5fd2a6d65a24feb" target="_top" xlink:title=" ">
<polygon fill="white" stroke="#666666" points="545,-146.64 458.5,-146.64 458.5,-127.39 545,-127.39 545,-146.64"/>
<text text-anchor="middle" x="501.75" y="-133.14" font-family="Helvetica,sans-Serif" font-size="10.00">sb_destroy_skip</text>
</a>
</g>
</g>
<!-- Node6&#45;&gt;Node44 -->
<g id="edge56_Node000006_Node000044" class="edge">
<title>Node6&#45;&gt;Node44</title>
<g id="a_edge56_Node000006_Node000044"><a xlink:title=" ">
<path fill="none" stroke="#63b8ff" d="M413.57,-109.74C427.09,-113.97 443.16,-119 457.8,-123.58"/>
<polygon fill="#63b8ff" stroke="#63b8ff" points="456.62,-126.88 467.21,-126.52 458.71,-120.2 456.62,-126.88"/>
</a>
</g>
</g>
<!-- Node8 -->
<g id="Node000008" class="node">
<title>Node8</title>
<g id="a_Node000008"><a xlink:href="../../d7/df8/log_8c.html#a4bc04f7baa1e064cb0b93c7b9f3a61a1" target="_top" xlink:title=" ">
<polygon fill="white" stroke="#666666" points="1541.5,-180.64 1453.5,-180.64 1453.5,-161.39 1541.5,-161.39 1541.5,-180.64"/>
<text text-anchor="middle" x="1497.5" y="-167.14" font-family="Helvetica,sans-Serif" font-size="10.00">__logger_refresh</text>
</a>
</g>
</g>
<!-- Node7&#45;&gt;Node8 -->
<g id="edge7_Node000007_Node000008" class="edge">
<title>Node7&#45;&gt;Node8</title>
<g id="a_edge7_Node000007_Node000008"><a xlink:title=" ">
<path fill="none" stroke="#63b8ff" d="M1407.46,-124.08C1424.13,-132.87 1448.59,-145.76 1467.66,-155.81"/>
<polygon fill="#63b8ff" stroke="#63b8ff" points="1465.79,-158.79 1476.27,-160.35 1469.06,-152.59 1465.79,-158.79"/>
</a>
</g>
</g>
<!-- Node26 -->
<g id="Node000026" class="node">
<title>Node26</title>
<g id="a_Node000026"><a xlink:href="../../d7/df8/log_8c.html#a900490b26df7698aac12f7f7e6517e81" target="_top" xlink:title=" ">
<polygon fill="white" stroke="#666666" points="1530.25,-123.64 1464.75,-123.64 1464.75,-104.39 1530.25,-104.39 1530.25,-123.64"/>
<text text-anchor="middle" x="1497.5" y="-110.14" font-family="Helvetica,sans-Serif" font-size="10.00">logger_vlog</text>
</a>
</g>
</g>
<!-- Node7&#45;&gt;Node26 -->
<g id="edge29_Node000007_Node000026" class="edge">
<title>Node7&#45;&gt;Node26</title>
<g id="a_edge29_Node000007_Node000026"><a xlink:title=" ">
<path fill="none" stroke="#63b8ff" d="M1412.64,-114.02C1424.61,-114.02 1439.41,-114.02 1453.22,-114.02"/>
<polygon fill="#63b8ff" stroke="#63b8ff" points="1453,-117.52 1463,-114.02 1453,-110.52 1453,-117.52"/>
</a>
</g>
</g>
<!-- Node30 -->
<g id="Node000030" class="node">
<title>Node30</title>
<g id="a_Node000030"><a xlink:href="../../d2/d4d/file_8h.html#a25419a391fdd4ad7954699c58cfeb3b9" target="_top" xlink:title=" ">
<polygon fill="white" stroke="#666666" points="1523.12,-86.64 1471.88,-86.64 1471.88,-67.39 1523.12,-67.39 1523.12,-86.64"/>
<text text-anchor="middle" x="1497.5" y="-73.14" font-family="Helvetica,sans-Serif" font-size="10.00">va_start</text>
</a>
</g>
</g>
<!-- Node7&#45;&gt;Node30 -->
<g id="edge34_Node000007_Node000030" class="edge">
<title>Node7&#45;&gt;Node30</title>
<g id="a_edge34_Node000007_Node000030"><a xlink:title=" ">
<path fill="none" stroke="#63b8ff" d="M1412.64,-105.71C1426.91,-100.83 1445.2,-94.57 1461.06,-89.15"/>
<polygon fill="#63b8ff" stroke="#63b8ff" points="1461.81,-92.59 1470.13,-86.04 1459.54,-85.97 1461.81,-92.59"/>
</a>
</g>
</g>
<!-- Node9 -->
<g id="Node000009" class="node">
<title>Node9</title>
<g id="a_Node000009"><a xlink:href="../../d7/df8/log_8c.html#a3dbd75fb614210f0b114cfd03c9c0a7b" target="_top" xlink:title=" ">
<polygon fill="white" stroke="#666666" points="1681.25,-235.64 1577.5,-235.64 1577.5,-216.39 1681.25,-216.39 1681.25,-235.64"/>
<text text-anchor="middle" x="1629.38" y="-222.14" font-family="Helvetica,sans-Serif" font-size="10.00">__logger_do_refresh</text>
</a>
</g>
</g>
<!-- Node8&#45;&gt;Node9 -->
<g id="edge8_Node000008_Node000009" class="edge">
<title>Node8&#45;&gt;Node9</title>
<g id="a_edge8_Node000008_Node000009"><a xlink:title=" ">
<path fill="none" stroke="#63b8ff" d="M1518.39,-180.99C1534.22,-188.77 1557.04,-199.63 1577.5,-208.02 1580.84,-209.39 1584.32,-210.75 1587.83,-212.08"/>
<polygon fill="#63b8ff" stroke="#63b8ff" points="1586.32,-215.25 1596.91,-215.41 1588.73,-208.68 1586.32,-215.25"/>
</a>
</g>
</g>
<!-- Node24 -->
<g id="Node000024" class="node">
<title>Node24</title>
<g id="a_Node000024"><a xlink:href="../../d7/df8/log_8c.html#a7b1b02d1986e1247c2f571af4a2c2854" target="_top" xlink:title=" ">
<polygon fill="white" stroke="#666666" points="1667,-198.64 1591.75,-198.64 1591.75,-179.39 1667,-179.39 1667,-198.64"/>
<text text-anchor="middle" x="1629.38" y="-185.14" font-family="Helvetica,sans-Serif" font-size="10.00">log_spin_lock</text>
</a>
</g>
</g>
<!-- Node8&#45;&gt;Node24 -->
<g id="edge27_Node000008_Node000024" class="edge">
<title>Node8&#45;&gt;Node24</title>
<g id="a_edge27_Node000008_Node000024"><a xlink:title=" ">
<path fill="none" stroke="#63b8ff" d="M1541.75,-177.01C1554.06,-178.72 1567.55,-180.59 1580.15,-182.33"/>
<polygon fill="#63b8ff" stroke="#63b8ff" points="1579.51,-185.78 1589.9,-183.68 1580.48,-178.84 1579.51,-185.78"/>
</a>
</g>
</g>
<!-- Node25 -->
<g id="Node000025" class="node">
<title>Node25</title>
<g id="a_Node000025"><a xlink:href="../../d1/dc0/group__log.html#ga045020bb4af234632f7761f220131c69" target="_top" xlink:title=" ">
<polygon fill="white" stroke="#666666" points="1672.25,-161.64 1586.5,-161.64 1586.5,-142.39 1672.25,-142.39 1672.25,-161.64"/>
<text text-anchor="middle" x="1629.38" y="-148.14" font-family="Helvetica,sans-Serif" font-size="10.00">log_spin_unlock</text>
</a>
</g>
</g>
<!-- Node8&#45;&gt;Node25 -->
<g id="edge28_Node000008_Node000025" class="edge">
<title>Node8&#45;&gt;Node25</title>
<g id="a_edge28_Node000008_Node000025"><a xlink:title=" ">
<path fill="none" stroke="#63b8ff" d="M1541.75,-164.69C1552.37,-163.14 1563.87,-161.45 1574.91,-159.84"/>
<polygon fill="#63b8ff" stroke="#63b8ff" points="1575.31,-163.32 1584.7,-158.41 1574.3,-156.39 1575.31,-163.32"/>
</a>
</g>
</g>
<!-- Node9&#45;&gt;Node9 -->
<g id="edge9_Node000009_Node000009" class="edge">
<title>Node9&#45;&gt;Node9</title>
<g id="a_edge9_Node000009_Node000009"><a xlink:title=" ">
<path fill="none" stroke="#63b8ff" d="M1608.73,-235.93C1599.31,-244.54 1606.19,-253.64 1629.38,-253.64 1642.05,-253.64 1649.85,-250.92 1652.78,-247.04"/>
<polygon fill="#63b8ff" stroke="#63b8ff" points="1656.19,-246.26 1650.39,-237.4 1649.4,-247.95 1656.19,-246.26"/>
</a>
</g>
</g>
<!-- Node10 -->
<g id="Node000010" class="node">
<title>Node10</title>
<g id="a_Node000010"><a xlink:href="../../de/d1a/container-dlist_8h.html#a3b6f65860b212e28f2e28e71eb54d54d" target="_top" xlink:title="Add element e at the head of list l (suited for LIFO).">
<polygon fill="white" stroke="#666666" points="1808.25,-161.64 1753.25,-161.64 1753.25,-142.39 1808.25,-142.39 1808.25,-161.64"/>
<text text-anchor="middle" x="1780.75" y="-148.14" font-family="Helvetica,sans-Serif" font-size="10.00">dlist_add</text>
</a>
</g>
</g>
<!-- Node9&#45;&gt;Node10 -->
<g id="edge10_Node000009_Node000010" class="edge">
<title>Node9&#45;&gt;Node10</title>
<g id="a_edge10_Node000009_Node000010"><a xlink:title=" ">
<path fill="none" stroke="#63b8ff" d="M1665.89,-215.91C1671.24,-213.7 1676.54,-211.08 1681.25,-208.02 1700.76,-195.34 1697.37,-182.11 1717.25,-170.02 1724.76,-165.45 1733.49,-161.99 1741.99,-159.4"/>
<polygon fill="#63b8ff" stroke="#63b8ff" points="1742.72,-162.83 1751.47,-156.85 1740.9,-156.07 1742.72,-162.83"/>
</a>
</g>
</g>
<!-- Node12 -->
<g id="Node000012" class="node">
<title>Node12</title>
<g id="a_Node000012"><a xlink:href="../../de/d1a/container-dlist_8h.html#a0a69e401f6ec15966c891e96ad864c77" target="_top" xlink:title="Put a dlist_t element in a safe and detached state.">
<polygon fill="white" stroke="#666666" points="1806.75,-198.64 1754.75,-198.64 1754.75,-179.39 1806.75,-179.39 1806.75,-198.64"/>
<text text-anchor="middle" x="1780.75" y="-185.14" font-family="Helvetica,sans-Serif" font-size="10.00">dlist_init</text>
</a>
</g>
</g>
<!-- Node9&#45;&gt;Node12 -->
<g id="edge12_Node000009_Node000012" class="edge">
<title>Node9&#45;&gt;Node12</title>
<g id="a_edge12_Node000009_Node000012"><a xlink:title=" ">
<path fill="none" stroke="#63b8ff" d="M1671.19,-215.91C1693.74,-210.32 1721.52,-203.44 1743.34,-198.04"/>
<polygon fill="#63b8ff" stroke="#63b8ff" points="1744.12,-201.45 1752.98,-195.65 1742.44,-194.65 1744.12,-201.45"/>
</a>
</g>
</g>
<!-- Node13 -->
<g id="Node000013" class="node">
<title>Node13</title>
<g id="a_Node000013"><a xlink:href="../../d7/df8/log_8c.html#a4c8fbe8648573312126ce341cf34cba1" target="_top" xlink:title=" ">
<polygon fill="white" stroke="#666666" points="1844.25,-272.64 1717.25,-272.64 1717.25,-253.39 1844.25,-253.39 1844.25,-272.64"/>
<text text-anchor="middle" x="1780.75" y="-259.14" font-family="Helvetica,sans-Serif" font-size="10.00">logger_compute_fullname</text>
</a>
</g>
</g>
<!-- Node9&#45;&gt;Node13 -->
<g id="edge13_Node000009_Node000013" class="edge">
<title>Node9&#45;&gt;Node13</title>
<g id="a_edge13_Node000009_Node000013"><a xlink:title=" ">
<path fill="none" stroke="#63b8ff" d="M1671.19,-236.13C1688.73,-240.47 1709.43,-245.6 1728.02,-250.2"/>
<polygon fill="#63b8ff" stroke="#63b8ff" points="1726.96,-253.55 1737.51,-252.55 1728.65,-246.75 1726.96,-253.55"/>
</a>
</g>
</g>
<!-- Node16 -->
<g id="Node000016" class="node">
<title>Node16</title>
<g id="a_Node000016"><a xlink:href="../../df/d0a/str-l_8h.html#ad74dae07179370f3c22e3f026157926e" target="_top" xlink:title="wipe a lstr_t (frees memory if needed).">
<polygon fill="white" stroke="#666666" points="1951.75,-272.64 1896.75,-272.64 1896.75,-253.39 1951.75,-253.39 1951.75,-272.64"/>
<text text-anchor="middle" x="1924.25" y="-259.14" font-family="Helvetica,sans-Serif" font-size="10.00">lstr_wipe</text>
</a>
</g>
</g>
<!-- Node9&#45;&gt;Node16 -->
<g id="edge26_Node000009_Node000016" class="edge">
<title>Node9&#45;&gt;Node16</title>
<g id="a_edge26_Node000009_Node000016"><a xlink:title=" ">
<path fill="none" stroke="#63b8ff" d="M1641.12,-235.93C1656.58,-249.45 1686.61,-273 1717.25,-282.02 1774.09,-298.75 1843.23,-286.02 1885.21,-274.86"/>
<polygon fill="#63b8ff" stroke="#63b8ff" points="1886.14,-278.23 1894.83,-272.18 1884.26,-271.49 1886.14,-278.23"/>
</a>
</g>
</g>
<!-- Node23 -->
<g id="Node000023" class="node">
<title>Node23</title>
<g id="a_Node000023"><a xlink:href="../../df/d0a/str-l_8h.html#a963c22b229774d4b7c106bae4011cb8e" target="_top" xlink:title="Returns whether \v s1 and \v s2 contents are equal.">
<polygon fill="white" stroke="#666666" points="1809.75,-235.64 1751.75,-235.64 1751.75,-216.39 1809.75,-216.39 1809.75,-235.64"/>
<text text-anchor="middle" x="1780.75" y="-222.14" font-family="Helvetica,sans-Serif" font-size="10.00">lstr_equal</text>
</a>
</g>
</g>
<!-- Node9&#45;&gt;Node23 -->
<g id="edge25_Node000009_Node000023" class="edge">
<title>Node9&#45;&gt;Node23</title>
<g id="a_edge25_Node000009_Node000023"><a xlink:title=" ">
<path fill="none" stroke="#63b8ff" d="M1681.36,-226.02C1700.64,-226.02 1722.26,-226.02 1740.32,-226.02"/>
<polygon fill="#63b8ff" stroke="#63b8ff" points="1740.09,-229.52 1750.09,-226.02 1740.09,-222.52 1740.09,-229.52"/>
</a>
</g>
</g>
<!-- Node11 -->
<g id="Node000011" class="node">
<title>Node11</title>
<g id="a_Node000011"><a xlink:href="../../de/d1a/container-dlist_8h.html#a71e7667ca0e4b896923788c5851afd24" target="_top" xlink:title="Put element e between prev and next.">
<polygon fill="white" stroke="#666666" points="1957,-175.64 1891.5,-175.64 1891.5,-156.39 1957,-156.39 1957,-175.64"/>
<text text-anchor="middle" x="1924.25" y="-162.14" font-family="Helvetica,sans-Serif" font-size="10.00">__dlist_add</text>
</a>
</g>
</g>
<!-- Node10&#45;&gt;Node11 -->
<g id="edge11_Node000010_Node000011" class="edge">
<title>Node10&#45;&gt;Node11</title>
<g id="a_edge11_Node000010_Node000011"><a xlink:title=" ">
<path fill="none" stroke="#63b8ff" d="M1808.7,-154.68C1828.8,-156.67 1856.67,-159.43 1879.89,-161.73"/>
<polygon fill="#63b8ff" stroke="#63b8ff" points="1879.4,-165.2 1889.69,-162.7 1880.09,-158.23 1879.4,-165.2"/>
</a>
</g>
</g>
<!-- Node14 -->
<g id="Node000014" class="node">
<title>Node14</title>
<g id="a_Node000014"><a xlink:href="../../df/d0a/str-l_8h.html#a6a200ca09358f19b13a8e297cda34869" target="_top" xlink:title="returns a constant copy of \v s.">
<polygon fill="white" stroke="#666666" points="1952.12,-138.64 1896.38,-138.64 1896.38,-119.39 1952.12,-119.39 1952.12,-138.64"/>
<text text-anchor="middle" x="1924.25" y="-125.14" font-family="Helvetica,sans-Serif" font-size="10.00">lstr_dupc</text>
</a>
</g>
</g>
<!-- Node13&#45;&gt;Node14 -->
<g id="edge14_Node000013_Node000014" class="edge">
<title>Node13&#45;&gt;Node14</title>
<g id="a_edge14_Node000013_Node000014"><a xlink:title=" ">
<path fill="none" stroke="#63b8ff" d="M1832.78,-252.93C1836.95,-250.78 1840.86,-248.17 1844.25,-245.02 1878.21,-213.4 1848.18,-180.55 1880.25,-147.02 1882.02,-145.16 1884.02,-143.49 1886.15,-141.99"/>
<polygon fill="#63b8ff" stroke="#63b8ff" points="1887.78,-145.08 1894.8,-137.15 1884.37,-138.98 1887.78,-145.08"/>
</a>
</g>
</g>
<!-- Node13&#45;&gt;Node16 -->
<g id="edge16_Node000013_Node000016" class="edge">
<title>Node13&#45;&gt;Node16</title>
<g id="a_edge16_Node000013_Node000016"><a xlink:title=" ">
<path fill="none" stroke="#63b8ff" d="M1844.64,-263.02C1858.4,-263.02 1872.56,-263.02 1885.01,-263.02"/>
<polygon fill="#63b8ff" stroke="#63b8ff" points="1884.83,-266.52 1894.83,-263.02 1884.83,-259.52 1884.83,-266.52"/>
</a>
</g>
</g>
<!-- Node15 -->
<g id="Node000015" class="node">
<title>Node15</title>
<g id="a_Node000015"><a xlink:href="../../df/d0a/str-l_8h.html#a3b4dbe9c4cc70340cba0787574dc1c5e" target="_top" xlink:title=" ">
<polygon fill="white" stroke="#666666" points="2281.75,-145.64 2229,-145.64 2229,-126.39 2281.75,-126.39 2281.75,-145.64"/>
<text text-anchor="middle" x="2255.38" y="-132.14" font-family="Helvetica,sans-Serif" font-size="10.00">lstr_init_</text>
</a>
</g>
</g>
<!-- Node14&#45;&gt;Node15 -->
<g id="edge15_Node000014_Node000015" class="edge">
<title>Node14&#45;&gt;Node15</title>
<g id="a_edge15_Node000014_Node000015"><a xlink:title=" ">
<path fill="none" stroke="#63b8ff" d="M1952.46,-129.6C2011.31,-130.85 2150.44,-133.81 2217.28,-135.23"/>
<polygon fill="#63b8ff" stroke="#63b8ff" points="2216.92,-138.72 2226.99,-135.43 2217.06,-131.72 2216.92,-138.72"/>
</a>
</g>
</g>
<!-- Node17 -->
<g id="Node000017" class="node">
<title>Node17</title>
<g id="a_Node000017"><a xlink:href="../../df/d0a/str-l_8h.html#a381cd831ac9616c5bea8213bb679d1ac" target="_top" xlink:title="Wipe a lstr_t (frees memory if needed).">
<polygon fill="white" stroke="#666666" points="2078,-245.64 2004.25,-245.64 2004.25,-226.39 2078,-226.39 2078,-245.64"/>
<text text-anchor="middle" x="2041.12" y="-232.14" font-family="Helvetica,sans-Serif" font-size="10.00">mp_lstr_wipe</text>
</a>
</g>
</g>
<!-- Node16&#45;&gt;Node17 -->
<g id="edge17_Node000016_Node000017" class="edge">
<title>Node16&#45;&gt;Node17</title>
<g id="a_edge17_Node000016_Node000017"><a xlink:title=" ">
<path fill="none" stroke="#63b8ff" d="M1952.18,-256.69C1964.32,-253.83 1979.02,-250.38 1992.9,-247.12"/>
<polygon fill="#63b8ff" stroke="#63b8ff" points="1993.39,-250.6 2002.32,-244.9 1991.78,-243.78 1993.39,-250.6"/>
</a>
</g>
</g>
<!-- Node18 -->
<g id="Node000018" class="node">
<title>Node18</title>
<g id="a_Node000018"><a xlink:href="../../de/d04/str-l_8c.html#abe2a3a71f0b4dbc7d37c59d16762b6fb" target="_top" xlink:title="lstr_copy_* helper.">
<polygon fill="white" stroke="#666666" points="2193,-238.64 2114,-238.64 2114,-219.39 2193,-219.39 2193,-238.64"/>
<text text-anchor="middle" x="2153.5" y="-225.14" font-family="Helvetica,sans-Serif" font-size="10.00">mp_lstr_copy_</text>
</a>
</g>
</g>
<!-- Node17&#45;&gt;Node18 -->
<g id="edge18_Node000017_Node000018" class="edge">
<title>Node17&#45;&gt;Node18</title>
<g id="a_edge18_Node000017_Node000018"><a xlink:title=" ">
<path fill="none" stroke="#63b8ff" d="M2078.27,-233.72C2085.96,-233.24 2094.21,-232.71 2102.32,-232.2"/>
<polygon fill="#63b8ff" stroke="#63b8ff" points="2102.35,-235.7 2112.1,-231.58 2101.9,-228.72 2102.35,-235.7"/>
</a>
</g>
</g>
<!-- Node18&#45;&gt;Node15 -->
<g id="edge24_Node000018_Node000015" class="edge">
<title>Node18&#45;&gt;Node15</title>
<g id="a_edge24_Node000018_Node000015"><a xlink:title=" ">
<path fill="none" stroke="#63b8ff" d="M2165.19,-219.06C2181.93,-203.47 2214.58,-173.07 2235.39,-153.69"/>
<polygon fill="#63b8ff" stroke="#63b8ff" points="2237.72,-156.31 2242.66,-146.93 2232.95,-151.18 2237.72,-156.31"/>
</a>
</g>
</g>
<!-- Node19 -->
<g id="Node000019" class="node">
<title>Node19</title>
<g id="a_Node000019"><a xlink:href="../../d9/d9a/mem_8h.html#aebbbd277e2952bdb802104671ba23ba9" target="_top" xlink:title=" ">
<polygon fill="white" stroke="#666666" points="2272.75,-238.64 2238,-238.64 2238,-219.39 2272.75,-219.39 2272.75,-238.64"/>
<text text-anchor="middle" x="2255.38" y="-225.14" font-family="Helvetica,sans-Serif" font-size="10.00">ifree</text>
</a>
</g>
</g>
<!-- Node18&#45;&gt;Node19 -->
<g id="edge19_Node000018_Node000019" class="edge">
<title>Node18&#45;&gt;Node19</title>
<g id="a_edge19_Node000018_Node000019"><a xlink:title=" ">
<path fill="none" stroke="#63b8ff" d="M2193.4,-229.02C2204.3,-229.02 2215.95,-229.02 2226.1,-229.02"/>
<polygon fill="#63b8ff" stroke="#63b8ff" points="2226.1,-232.52 2236.1,-229.02 2226.1,-225.52 2226.1,-232.52"/>
</a>
</g>
</g>
<!-- Node20 -->
<g id="Node000020" class="node">
<title>Node20</title>
<g id="a_Node000020"><a xlink:href="../../d8/d37/mem_8blk.html#a36b65ab346f1d0deed7b63c544c78f2b" target="_top" xlink:title=" ">
<polygon fill="white" stroke="#666666" points="2362.62,-276.64 2326.38,-276.64 2326.38,-257.39 2362.62,-257.39 2362.62,-276.64"/>
<text text-anchor="middle" x="2344.5" y="-263.14" font-family="Helvetica,sans-Serif" font-size="10.00">ipool</text>
</a>
</g>
</g>
<!-- Node19&#45;&gt;Node20 -->
<g id="edge20_Node000019_Node000020" class="edge">
<title>Node19&#45;&gt;Node20</title>
<g id="a_edge20_Node000019_Node000020"><a xlink:title=" ">
<path fill="none" stroke="#63b8ff" d="M2273.17,-236.34C2285.19,-241.59 2301.65,-248.76 2315.62,-254.86"/>
<polygon fill="#63b8ff" stroke="#63b8ff" points="2314.2,-258.06 2324.77,-258.85 2317,-251.64 2314.2,-258.06"/>
</a>
</g>
</g>
<!-- Node22 -->
<g id="Node000022" class="node">
<title>Node22</title>
<g id="a_Node000022"><a xlink:href="../../d8/d37/mem_8blk.html#a83c7cf203e5eef9d1a8c6c43cde3e2e5" target="_top" xlink:title=" ">
<polygon fill="white" stroke="#666666" points="2371.25,-200.64 2317.75,-200.64 2317.75,-181.39 2371.25,-181.39 2371.25,-200.64"/>
<text text-anchor="middle" x="2344.5" y="-187.14" font-family="Helvetica,sans-Serif" font-size="10.00">mp_ifree</text>
</a>
</g>
</g>
<!-- Node19&#45;&gt;Node22 -->
<g id="edge23_Node000019_Node000022" class="edge">
<title>Node19&#45;&gt;Node22</title>
<g id="a_edge23_Node000019_Node000022"><a xlink:title=" ">
<path fill="none" stroke="#63b8ff" d="M2273.17,-221.69C2283.68,-217.11 2297.58,-211.04 2310.25,-205.52"/>
<polygon fill="#63b8ff" stroke="#63b8ff" points="2311.34,-208.86 2319.11,-201.66 2308.54,-202.45 2311.34,-208.86"/>
</a>
</g>
</g>
<!-- Node20&#45;&gt;Node7 -->
<g id="edge21_Node000020_Node000007" class="edge">
<title>Node20&#45;&gt;Node7</title>
<g id="a_edge21_Node000020_Node000007"><a xlink:title=" ">
<path fill="none" stroke="#63b8ff" d="M2328.56,-277.03C2297.55,-296.81 2223.32,-339.02 2154.5,-339.02 1628.38,-339.02 1628.38,-339.02 1628.38,-339.02 1568.29,-339.02 1444.85,-187.03 1402.79,-132.89"/>
<polygon fill="#63b8ff" stroke="#63b8ff" points="1405.71,-130.95 1396.84,-125.17 1400.17,-135.23 1405.71,-130.95"/>
</a>
</g>
</g>
<!-- Node21 -->
<g id="Node000021" class="node">
<title>Node21</title>
<g id="a_Node000021"><a xlink:href="../../d1/d10/mem-stack_8h.html#a1d0e2a29f86dc033a02e50484b527fd0" target="_top" xlink:title=" ">
<polygon fill="white" stroke="#666666" points="2449.5,-276.64 2407.25,-276.64 2407.25,-257.39 2449.5,-257.39 2449.5,-276.64"/>
<text text-anchor="middle" x="2428.38" y="-263.14" font-family="Helvetica,sans-Serif" font-size="10.00">t_pool</text>
</a>
</g>
</g>
<!-- Node20&#45;&gt;Node21 -->
<g id="edge22_Node000020_Node000021" class="edge">
<title>Node20&#45;&gt;Node21</title>
<g id="a_edge22_Node000020_Node000021"><a xlink:title=" ">
<path fill="none" stroke="#63b8ff" d="M2362.86,-267.02C2372.31,-267.02 2384.29,-267.02 2395.36,-267.02"/>
<polygon fill="#63b8ff" stroke="#63b8ff" points="2395.34,-270.52 2405.34,-267.02 2395.34,-263.52 2395.34,-270.52"/>
</a>
</g>
</g>
<!-- Node26&#45;&gt;Node14 -->
<g id="edge33_Node000026_Node000014" class="edge">
<title>Node26&#45;&gt;Node14</title>
<g id="a_edge33_Node000026_Node000014"><a xlink:title=" ">
<path fill="none" stroke="#63b8ff" d="M1530.43,-115.14C1607.11,-117.85 1801.45,-124.72 1884.58,-127.65"/>
<polygon fill="#63b8ff" stroke="#63b8ff" points="1884.38,-131.15 1894.49,-128 1884.62,-124.15 1884.38,-131.15"/>
</a>
</g>
</g>
<!-- Node27 -->
<g id="Node000027" class="node">
<title>Node27</title>
<g id="a_Node000027"><a xlink:href="../../d1/dc0/group__log.html#ga168a6f17b248f61f7d25a17d58d04e36" target="_top" xlink:title=" ">
<polygon fill="white" stroke="#666666" points="1673.75,-85.64 1585,-85.64 1585,-66.39 1673.75,-66.39 1673.75,-85.64"/>
<text text-anchor="middle" x="1629.38" y="-72.14" font-family="Helvetica,sans-Serif" font-size="10.00">logger_has_level</text>
</a>
</g>
</g>
<!-- Node26&#45;&gt;Node27 -->
<g id="edge30_Node000026_Node000027" class="edge">
<title>Node26&#45;&gt;Node27</title>
<g id="a_edge30_Node000026_Node000027"><a xlink:title=" ">
<path fill="none" stroke="#63b8ff" d="M1530.6,-104.62C1546.38,-100.01 1565.66,-94.37 1582.92,-89.32"/>
<polygon fill="#63b8ff" stroke="#63b8ff" points="1583.84,-92.69 1592.46,-86.53 1581.88,-85.97 1583.84,-92.69"/>
</a>
</g>
</g>
<!-- Node28 -->
<g id="Node000028" class="node">
<title>Node28</title>
<g id="a_Node000028"><a xlink:href="../../d1/dc0/group__log.html#gaf388752b988541da0abeceecdf96e6b3" target="_top" xlink:title=" ">
<polygon fill="white" stroke="#666666" points="1824,-85.64 1737.5,-85.64 1737.5,-66.39 1824,-66.39 1824,-85.64"/>
<text text-anchor="middle" x="1780.75" y="-72.14" font-family="Helvetica,sans-Serif" font-size="10.00">logger_get_level</text>
</a>
</g>
</g>
<!-- Node27&#45;&gt;Node28 -->
<g id="edge31_Node000027_Node000028" class="edge">
<title>Node27&#45;&gt;Node28</title>
<g id="a_edge31_Node000027_Node000028"><a xlink:title=" ">
<path fill="none" stroke="#63b8ff" d="M1673.98,-76.02C1690.14,-76.02 1708.67,-76.02 1725.65,-76.02"/>
<polygon fill="#63b8ff" stroke="#63b8ff" points="1725.61,-79.52 1735.61,-76.02 1725.61,-72.52 1725.61,-79.52"/>
</a>
</g>
</g>
<!-- Node29 -->
<g id="Node000029" class="node">
<title>Node29</title>
<g id="a_Node000029"><a xlink:href="../../d1/dc0/group__log.html#ga93cbd623096e1704532d15b3eb30e42f" target="_top" xlink:title=" ">
<polygon fill="white" stroke="#666666" points="1968.25,-85.64 1880.25,-85.64 1880.25,-66.39 1968.25,-66.39 1968.25,-85.64"/>
<text text-anchor="middle" x="1924.25" y="-72.14" font-family="Helvetica,sans-Serif" font-size="10.00">__logger_refresh</text>
</a>
</g>
</g>
<!-- Node28&#45;&gt;Node29 -->
<g id="edge32_Node000028_Node000029" class="edge">
<title>Node28&#45;&gt;Node29</title>
<g id="a_edge32_Node000028_Node000029"><a xlink:title=" ">
<path fill="none" stroke="#63b8ff" d="M1824.2,-76.02C1838.08,-76.02 1853.69,-76.02 1868.35,-76.02"/>
<polygon fill="#63b8ff" stroke="#63b8ff" points="1868.33,-79.52 1878.33,-76.02 1868.33,-72.52 1868.33,-79.52"/>
</a>
</g>
</g>
<!-- Node33 -->
<g id="Node000033" class="node">
<title>Node33</title>
<g id="a_Node000033"><a xlink:href="../../d8/d37/mem_8blk.html#a2fa974dc4e9f038e5bc400eb689b74b4" target="_top" xlink:title=" ">
<polygon fill="white" stroke="#666666" points="705,-109.64 590,-109.64 590,-90.39 705,-90.39 705,-109.64"/>
<text text-anchor="middle" x="647.5" y="-96.14" font-family="Helvetica,sans-Serif" font-size="10.00">__mp_irealloc_fallback</text>
</a>
</g>
</g>
<!-- Node32&#45;&gt;Node33 -->
<g id="edge37_Node000032_Node000033" class="edge">
<title>Node32&#45;&gt;Node33</title>
<g id="a_edge37_Node000032_Node000033"><a xlink:title=" ">
<path fill="none" stroke="#63b8ff" d="M554.24,-100.02C562.02,-100.02 570.14,-100.02 578.2,-100.02"/>
<polygon fill="#63b8ff" stroke="#63b8ff" points="578,-103.52 588,-100.02 578,-96.52 578,-103.52"/>
</a>
</g>
</g>
<!-- Node39 -->
<g id="Node000039" class="node">
<title>Node39</title>
<g id="a_Node000039"><a xlink:href="../../d9/d9a/mem_8h.html#ae99e17ad0b27e94e8a00c8af9734a0e7" target="_top" xlink:title=" ">
<polygon fill="white" stroke="#666666" points="1183,-274.64 1070.25,-274.64 1070.25,-255.39 1183,-255.39 1183,-274.64"/>
<text text-anchor="middle" x="1126.62" y="-261.14" font-family="Helvetica,sans-Serif" font-size="10.00">icheck_alloc_constant</text>
</a>
</g>
</g>
<!-- Node32&#45;&gt;Node39 -->
<g id="edge55_Node000032_Node000039" class="edge">
<title>Node32&#45;&gt;Node39</title>
<g id="a_edge55_Node000032_Node000039"><a xlink:title=" ">
<path fill="none" stroke="#63b8ff" d="M536.88,-110.04C542.76,-112.31 548.68,-114.97 554,-118.02 664.51,-181.27 645.42,-303.02 772.75,-303.02 772.75,-303.02 772.75,-303.02 881.5,-303.02 948.95,-303.02 1025.65,-288.68 1074.78,-277.62"/>
<polygon fill="#63b8ff" stroke="#63b8ff" points="1075.31,-281.09 1084.27,-275.44 1073.74,-274.27 1075.31,-281.09"/>
</a>
</g>
</g>
<!-- Node33&#45;&gt;Node22 -->
<g id="edge40_Node000033_Node000022" class="edge">
<title>Node33&#45;&gt;Node22</title>
<g id="a_edge40_Node000033_Node000022"><a xlink:title=" ">
<path fill="none" stroke="#63b8ff" d="M670.59,-89.92C711.11,-72.35 800.4,-38.02 879.5,-38.02 879.5,-38.02 879.5,-38.02 2154.5,-38.02 2238.21,-38.02 2305.63,-129.8 2331.78,-171.19"/>
<polygon fill="#63b8ff" stroke="#63b8ff" points="2328.77,-172.99 2336.99,-179.69 2334.74,-169.33 2328.77,-172.99"/>
</a>
</g>
</g>
<!-- Node34 -->
<g id="Node000034" class="node">
<title>Node34</title>
<g id="a_Node000034"><a xlink:href="../../d8/d37/mem_8blk.html#a8e4fbf6500e65079c31e3fd933ae7dc1" target="_top" xlink:title=" ">
<polygon fill="white" stroke="#666666" points="1305.12,-123.64 1235.12,-123.64 1235.12,-104.39 1305.12,-104.39 1305.12,-123.64"/>
<text text-anchor="middle" x="1270.12" y="-110.14" font-family="Helvetica,sans-Serif" font-size="10.00">icheck_alloc</text>
</a>
</g>
</g>
<!-- Node33&#45;&gt;Node34 -->
<g id="edge38_Node000033_Node000034" class="edge">
<title>Node33&#45;&gt;Node34</title>
<g id="a_edge38_Node000033_Node000034"><a xlink:title=" ">
<path fill="none" stroke="#63b8ff" d="M705.29,-90.81C751.94,-84.04 819.83,-76.02 879.5,-76.02 879.5,-76.02 879.5,-76.02 995.38,-76.02 1076.29,-76.02 1169.38,-92.5 1223.5,-103.76"/>
<polygon fill="#63b8ff" stroke="#63b8ff" points="1222.78,-107.18 1233.29,-105.83 1224.23,-100.33 1222.78,-107.18"/>
</a>
</g>
</g>
<!-- Node35 -->
<g id="Node000035" class="node">
<title>Node35</title>
<g id="a_Node000035"><a xlink:href="../../d9/d9a/mem_8h.html#ada6bb9661f0c10ccaa14d231c24aeafd" target="_top" xlink:title=" ">
<polygon fill="white" stroke="#666666" points="1027.12,-161.64 961.62,-161.64 961.62,-142.39 1027.12,-142.39 1027.12,-161.64"/>
<text text-anchor="middle" x="994.38" y="-148.14" font-family="Helvetica,sans-Serif" font-size="10.00">mp_imalloc</text>
</a>
</g>
</g>
<!-- Node33&#45;&gt;Node35 -->
<g id="edge41_Node000033_Node000035" class="edge">
<title>Node33&#45;&gt;Node35</title>
<g id="a_edge41_Node000033_Node000035"><a xlink:title=" ">
<path fill="none" stroke="#63b8ff" d="M705.45,-108.6C774.11,-118.96 887.97,-136.12 949.94,-145.47"/>
<polygon fill="#63b8ff" stroke="#63b8ff" points="949.34,-148.92 959.75,-146.95 950.39,-142 949.34,-148.92"/>
</a>
</g>
</g>
<!-- Node41 -->
<g id="Node000041" class="node">
<title>Node41</title>
<g id="a_Node000041"><a xlink:href="../../d9/d9a/mem_8h.html#aabfb5bf96a257374cbc245548b81c4ff" target="_top" xlink:title=" ">
<polygon fill="white" stroke="#666666" points="806.5,-180.64 741,-180.64 741,-161.39 806.5,-161.39 806.5,-180.64"/>
<text text-anchor="middle" x="773.75" y="-167.14" font-family="Helvetica,sans-Serif" font-size="10.00">mp_irealloc</text>
</a>
</g>
</g>
<!-- Node33&#45;&gt;Node41 -->
<g id="edge48_Node000033_Node000041" class="edge">
<title>Node33&#45;&gt;Node41</title>
<g id="a_edge48_Node000033_Node000041"><a xlink:title=" ">
<path fill="none" stroke="#63b8ff" d="M666.04,-110.04C686.67,-121.83 721.16,-141.53 745.33,-155.35"/>
<polygon fill="#63b8ff" stroke="#63b8ff" points="743.57,-158.37 753.99,-160.3 747.04,-152.29 743.57,-158.37"/>
</a>
</g>
</g>
<!-- Node34&#45;&gt;Node7 -->
<g id="edge39_Node000034_Node000007" class="edge">
<title>Node34&#45;&gt;Node7</title>
<g id="a_edge39_Node000034_Node000007"><a xlink:title=" ">
<path fill="none" stroke="#63b8ff" d="M1305.39,-114.02C1319.84,-114.02 1336.65,-114.02 1351.2,-114.02"/>
<polygon fill="#63b8ff" stroke="#63b8ff" points="1350.78,-117.52 1360.78,-114.02 1350.78,-110.52 1350.78,-117.52"/>
</a>
</g>
</g>
<!-- Node36 -->
<g id="Node000036" class="node">
<title>Node36</title>
<g id="a_Node000036"><a xlink:href="../../d8/d37/mem_8blk.html#a5666a1403bcf2bd8e114c23f8021d1ac" target="_top" xlink:title=" ">
<polygon fill="white" stroke="#666666" points="1164.62,-161.64 1088.62,-161.64 1088.62,-142.39 1164.62,-142.39 1164.62,-161.64"/>
<text text-anchor="middle" x="1126.62" y="-148.14" font-family="Helvetica,sans-Serif" font-size="10.00">__mp_imalloc</text>
</a>
</g>
</g>
<!-- Node35&#45;&gt;Node36 -->
<g id="edge42_Node000035_Node000036" class="edge">
<title>Node35&#45;&gt;Node36</title>
<g id="a_edge42_Node000035_Node000036"><a xlink:title=" ">
<path fill="none" stroke="#63b8ff" d="M1027.57,-152.02C1042.51,-152.02 1060.58,-152.02 1077.11,-152.02"/>
<polygon fill="#63b8ff" stroke="#63b8ff" points="1076.75,-155.52 1086.75,-152.02 1076.75,-148.52 1076.75,-155.52"/>
</a>
</g>
</g>
<!-- Node35&#45;&gt;Node39 -->
<g id="edge46_Node000035_Node000039" class="edge">
<title>Node35&#45;&gt;Node39</title>
<g id="a_edge46_Node000035_Node000039"><a xlink:title=" ">
<path fill="none" stroke="#63b8ff" d="M1020.82,-162.13C1025.46,-164.44 1030.13,-167.08 1034.25,-170.02 1065.14,-192.03 1094.33,-225.36 1111.08,-246.13"/>
<polygon fill="#63b8ff" stroke="#63b8ff" points="1108.17,-248.09 1117.12,-253.77 1113.66,-243.75 1108.17,-248.09"/>
</a>
</g>
</g>
<!-- Node36&#45;&gt;Node34 -->
<g id="edge43_Node000036_Node000034" class="edge">
<title>Node36&#45;&gt;Node34</title>
<g id="a_edge43_Node000036_Node000034"><a xlink:title=" ">
<path fill="none" stroke="#63b8ff" d="M1164.8,-142.03C1183.01,-137.14 1205.08,-131.22 1224.22,-126.08"/>
<polygon fill="#63b8ff" stroke="#63b8ff" points="1224.89,-129.52 1233.64,-123.55 1223.08,-122.76 1224.89,-129.52"/>
</a>
</g>
</g>
<!-- Node37 -->
<g id="Node000037" class="node">
<title>Node37</title>
<g id="a_Node000037"><a xlink:href="../../d9/d9a/mem_8h.html#af42ab5c21de0c723b2a55403e5441fda" target="_top" xlink:title=" ">
<polygon fill="white" stroke="#666666" points="1309.62,-198.64 1230.62,-198.64 1230.62,-179.39 1309.62,-179.39 1309.62,-198.64"/>
<text text-anchor="middle" x="1270.12" y="-185.14" font-family="Helvetica,sans-Serif" font-size="10.00">mem_bit_align</text>
</a>
</g>
</g>
<!-- Node36&#45;&gt;Node37 -->
<g id="edge44_Node000036_Node000037" class="edge">
<title>Node36&#45;&gt;Node37</title>
<g id="a_edge44_Node000036_Node000037"><a xlink:title=" ">
<path fill="none" stroke="#63b8ff" d="M1164.8,-161.74C1181.62,-166.14 1201.73,-171.39 1219.79,-176.12"/>
<polygon fill="#63b8ff" stroke="#63b8ff" points="1218.69,-179.45 1229.25,-178.59 1220.46,-172.67 1218.69,-179.45"/>
</a>
</g>
</g>
<!-- Node38 -->
<g id="Node000038" class="node">
<title>Node38</title>
<g id="a_Node000038"><a xlink:href="../../d8/d96/bithacks_8h.html#ab80588fa9f8b9e766249edaf70558bdc" target="_top" xlink:title=" ">
<polygon fill="white" stroke="#666666" points="1417.5,-198.64 1357.25,-198.64 1357.25,-179.39 1417.5,-179.39 1417.5,-198.64"/>
<text text-anchor="middle" x="1387.38" y="-185.14" font-family="Helvetica,sans-Serif" font-size="10.00">bitcountsz</text>
</a>
</g>
</g>
<!-- Node37&#45;&gt;Node38 -->
<g id="edge45_Node000037_Node000038" class="edge">
<title>Node37&#45;&gt;Node38</title>
<g id="a_edge45_Node000037_Node000038"><a xlink:title=" ">
<path fill="none" stroke="#63b8ff" d="M1309.82,-189.02C1321.4,-189.02 1334.12,-189.02 1345.81,-189.02"/>
<polygon fill="#63b8ff" stroke="#63b8ff" points="1345.56,-192.52 1355.56,-189.02 1345.56,-185.52 1345.56,-192.52"/>
</a>
</g>
</g>
<!-- Node40 -->
<g id="Node000040" class="node">
<title>Node40</title>
<g id="a_Node000040"><a xlink:href="../../d8/d37/mem_8blk.html#a377e36d6fbaf3ee7f1b217559cb0c850" target="_top" xlink:title=" ">
<polygon fill="white" stroke="#666666" points="1321.25,-274.64 1219,-274.64 1219,-255.39 1321.25,-255.39 1321.25,-274.64"/>
<text text-anchor="middle" x="1270.12" y="-261.14" font-family="Helvetica,sans-Serif" font-size="10.00">__imalloc_too_large</text>
</a>
</g>
</g>
<!-- Node39&#45;&gt;Node40 -->
<g id="edge47_Node000039_Node000040" class="edge">
<title>Node39&#45;&gt;Node40</title>
<g id="a_edge47_Node000039_Node000040"><a xlink:title=" ">
<path fill="none" stroke="#63b8ff" d="M1183.14,-265.02C1191.14,-265.02 1199.41,-265.02 1207.52,-265.02"/>
<polygon fill="#63b8ff" stroke="#63b8ff" points="1207.32,-268.52 1217.32,-265.02 1207.32,-261.52 1207.32,-268.52"/>
</a>
</g>
</g>
<!-- Node41&#45;&gt;Node39 -->
<g id="edge54_Node000041_Node000039" class="edge">
<title>Node41&#45;&gt;Node39</title>
<g id="a_edge54_Node000041_Node000039"><a xlink:title=" ">
<path fill="none" stroke="#63b8ff" d="M804.42,-181.1C839.88,-192.95 901.12,-212.8 954.5,-227.02 990.41,-236.58 1030.99,-245.66 1063.62,-252.55"/>
<polygon fill="#63b8ff" stroke="#63b8ff" points="1062.83,-255.96 1073.33,-254.58 1064.26,-249.11 1062.83,-255.96"/>
</a>
</g>
</g>
<!-- Node42 -->
<g id="Node000042" class="node">
<title>Node42</title>
<g id="a_Node000042"><a xlink:href="../../d8/d37/mem_8blk.html#aa4f4b48947d5dfb44c0897f6024ba16e" target="_top" xlink:title=" ">
<polygon fill="white" stroke="#666666" points="918.5,-180.64 842.5,-180.64 842.5,-161.39 918.5,-161.39 918.5,-180.64"/>
<text text-anchor="middle" x="880.5" y="-167.14" font-family="Helvetica,sans-Serif" font-size="10.00">__mp_irealloc</text>
</a>
</g>
</g>
<!-- Node41&#45;&gt;Node42 -->
<g id="edge49_Node000041_Node000042" class="edge">
<title>Node41&#45;&gt;Node42</title>
<g id="a_edge49_Node000041_Node000042"><a xlink:title=" ">
<path fill="none" stroke="#63b8ff" d="M806.75,-171.02C814.35,-171.02 822.64,-171.02 830.81,-171.02"/>
<polygon fill="#63b8ff" stroke="#63b8ff" points="830.67,-174.52 840.67,-171.02 830.67,-167.52 830.67,-174.52"/>
</a>
</g>
</g>
<!-- Node42&#45;&gt;Node34 -->
<g id="edge50_Node000042_Node000034" class="edge">
<title>Node42&#45;&gt;Node34</title>
<g id="a_edge50_Node000042_Node000034"><a xlink:title=" ">
<path fill="none" stroke="#63b8ff" d="M896.11,-161.05C910.32,-151.94 932.88,-139 954.5,-133.02 1047.4,-107.29 1161.41,-107.97 1223.5,-110.9"/>
<polygon fill="#63b8ff" stroke="#63b8ff" points="1223.16,-114.39 1233.33,-111.41 1223.52,-107.4 1223.16,-114.39"/>
</a>
</g>
</g>
<!-- Node42&#45;&gt;Node35 -->
<g id="edge53_Node000042_Node000035" class="edge">
<title>Node42&#45;&gt;Node35</title>
<g id="a_edge53_Node000042_Node000035"><a xlink:title=" ">
<path fill="none" stroke="#63b8ff" d="M918.75,-164.69C928.73,-163 939.6,-161.15 949.88,-159.4"/>
<polygon fill="#63b8ff" stroke="#63b8ff" points="950.39,-162.87 959.66,-157.74 949.22,-155.97 950.39,-162.87"/>
</a>
</g>
</g>
<!-- Node42&#45;&gt;Node37 -->
<g id="edge52_Node000042_Node000037" class="edge">
<title>Node42&#45;&gt;Node37</title>
<g id="a_edge52_Node000042_Node000037"><a xlink:title=" ">
<path fill="none" stroke="#63b8ff" d="M896.07,-181.01C910.26,-190.09 932.8,-202.83 954.5,-208.02 1045.94,-229.87 1156.35,-213.83 1219.09,-200.92"/>
<polygon fill="#63b8ff" stroke="#63b8ff" points="1219.7,-204.37 1228.75,-198.87 1218.24,-197.52 1219.7,-204.37"/>
</a>
</g>
</g>
<!-- Node43 -->
<g id="Node000043" class="node">
<title>Node43</title>
<g id="a_Node000043"><a xlink:href="../../d9/d9a/mem_8h.html#a97bf9c8331ed73f6c120224fb5e9a8b6" target="_top" xlink:title=" ">
<polygon fill="white" stroke="#666666" points="1034.25,-198.64 954.5,-198.64 954.5,-179.39 1034.25,-179.39 1034.25,-198.64"/>
<text text-anchor="middle" x="994.38" y="-185.14" font-family="Helvetica,sans-Serif" font-size="10.00">mem_align_ptr</text>
</a>
</g>
</g>
<!-- Node42&#45;&gt;Node43 -->
<g id="edge51_Node000042_Node000043" class="edge">
<title>Node42&#45;&gt;Node43</title>
<g id="a_edge51_Node000042_Node000043"><a xlink:title=" ">
<path fill="none" stroke="#63b8ff" d="M918.75,-177.01C926.53,-178.26 934.85,-179.6 943.01,-180.91"/>
<polygon fill="#63b8ff" stroke="#63b8ff" points="942.45,-184.37 952.87,-182.5 943.56,-177.46 942.45,-184.37"/>
</a>
</g>
</g>
</g>
</svg>

<g id="navigator" transform="translate(0 0)" fill="#404254">
  <rect fill="#f2f5e9" fill-opacity="0.5" stroke="#606060" stroke-width=".5" x="0" y="0" width="60" height="60"/>
  <use id="zoomplus" xlink:href="#zoomPlus" x="17" y="9" onmousedown="handleZoom(evt,'in')"/>
  <use id="zoomminus" xlink:href="#zoomMin" x="42" y="9" onmousedown="handleZoom(evt,'out')"/>
  <use id="reset" xlink:href="#resetDef" x="30" y="36" onmousedown="handleReset()"/>
   <use id="arrowup" xlink:href="#arrowUp" x="0" y="0" onmousedown="handlePan(0,-1)"/>
  <use id="arrowright" xlink:href="#arrowRight" x="0" y="0" onmousedown="handlePan(1,0)"/>
  <use id="arrowdown" xlink:href="#arrowDown" x="0" y="0" onmousedown="handlePan(0,1)"/>
  <use id="arrowleft" xlink:href="#arrowLeft" x="0" y="0" onmousedown="handlePan(-1,0)"/>
</g>
<svg viewBox="0 0 15 15" width="100%" height="30px" preserveAspectRatio="xMaxYMin meet">
 <g id="arrow_out" transform="scale(0.3 0.3)">
  <a xlink:href="str-buf_8c_ad87b4ac8e6a023f68508ee8a01bd894a_cgraph_org.svg" target="_base">
   <rect id="button" ry="5" rx="5" y="6" x="6" height="38" width="38"
        fill="#f2f5e9" fill-opacity="0.5" stroke="#606060" stroke-width="1.0"/>
   <path id="arrow"
     d="M 11.500037,31.436501 C 11.940474,20.09759 22.043105,11.32322 32.158766,21.979434 L 37.068811,17.246167 C 37.068811,17.246167 37.088388,32 37.088388,32 L 22.160133,31.978069 C 22.160133,31.978069 26.997745,27.140456 26.997745,27.140456 C 18.528582,18.264221 13.291696,25.230495 11.500037,31.436501 z"
     style="fill:#404040;"/>
  </a>
 </g>
</svg>

<style type='text/css'>
<![CDATA[
[data-mouse-over-selected='false'] { opacity: 0.7; }
[data-mouse-over-selected='true']  { opacity: 1.0; }
]]>
</style>
<script type="application/ecmascript"><![CDATA[
document.addEventListener('DOMContentLoaded', (event) => {
  highlightEdges();
  highlightAdjacentNodes();
});
]]></script>
</svg>
