<?xml version="1.0" encoding="UTF-8" standalone="no"?>
<!DOCTYPE svg PUBLIC "-//W3C//DTD SVG 1.1//EN"
 "http://www.w3.org/Graphics/SVG/1.1/DTD/svg11.dtd">
<!-- Generated by graphviz version 9.0.0 (20230911.1827)
 -->
<!-- Title: _sb_add_duration_ms Pages: 1 -->
<svg width="261pt" height="64pt"
 viewBox="0.00 0.00 261.25 64.25" xmlns="http://www.w3.org/2000/svg" xmlns:xlink="http://www.w3.org/1999/xlink">
<g id="graph0" class="graph" transform="scale(1 1) rotate(0) translate(4 60.25)">
<title>_sb_add_duration_ms</title>
<!-- Node1 -->
<g id="Node000001" class="node">
<title>Node1</title>
<g id="a_Node000001"><a xlink:title="Appends a pretty&#45;formatted duration to a string buffer.">
<polygon fill="#999999" stroke="#666666" points="253.25,-37.25 142,-37.25 142,-18 253.25,-18 253.25,-37.25"/>
<text text-anchor="middle" x="197.62" y="-23.75" font-family="Helvetica,sans-Serif" font-size="10.00">_sb_add_duration_ms</text>
</a>
</g>
</g>
<!-- Node2 -->
<g id="Node000002" class="node">
<title>Node2</title>
<g id="a_Node000002"><a xlink:href="../../dc/d31/str-buf_8h.html#aa9343adde46ad97791b0c03faae5a7bc" target="_top" xlink:title=" ">
<polygon fill="white" stroke="#666666" points="106,-56.25 0,-56.25 0,-37 106,-37 106,-56.25"/>
<text text-anchor="middle" x="53" y="-42.75" font-family="Helvetica,sans-Serif" font-size="10.00">sb_add_duration_ms</text>
</a>
</g>
</g>
<!-- Node1&#45;&gt;Node2 -->
<g id="edge1_Node000001_Node000002" class="edge">
<title>Node1&#45;&gt;Node2</title>
<g id="a_edge1_Node000001_Node000002"><a xlink:title=" ">
<path fill="none" stroke="#63b8ff" d="M130.57,-36.42C122.49,-37.5 114.32,-38.59 106.48,-39.63"/>
<polygon fill="#63b8ff" stroke="#63b8ff" points="130.94,-39.91 140.39,-35.12 130.02,-32.97 130.94,-39.91"/>
</a>
</g>
</g>
<!-- Node3 -->
<g id="Node000003" class="node">
<title>Node3</title>
<g id="a_Node000003"><a xlink:href="../../dc/d31/str-buf_8h.html#a853ee555ef43a45428b1bb131a60613d" target="_top" xlink:title=" ">
<polygon fill="white" stroke="#666666" points="101.88,-19.25 4.12,-19.25 4.12,0 101.88,0 101.88,-19.25"/>
<text text-anchor="middle" x="53" y="-5.75" font-family="Helvetica,sans-Serif" font-size="10.00">sb_add_duration_s</text>
</a>
</g>
</g>
<!-- Node1&#45;&gt;Node3 -->
<g id="edge2_Node000001_Node000003" class="edge">
<title>Node1&#45;&gt;Node3</title>
<g id="a_edge2_Node000001_Node000003"><a xlink:title=" ">
<path fill="none" stroke="#63b8ff" d="M130.74,-19.31C121.16,-18.1 111.45,-16.88 102.3,-15.72"/>
<polygon fill="#63b8ff" stroke="#63b8ff" points="130.03,-22.75 140.39,-20.53 130.91,-15.8 130.03,-22.75"/>
</a>
</g>
</g>
</g>
</svg>
