<?xml version="1.0" encoding="UTF-8" standalone="no"?>
<!DOCTYPE svg PUBLIC "-//W3C//DTD SVG 1.1//EN"
 "http://www.w3.org/Graphics/SVG/1.1/DTD/svg11.dtd">
<!-- Generated by graphviz version 9.0.0 (20230911.1827)
 -->
<!-- Title: jenkins_hash_ascii_lower Pages: 1 -->
<svg width="322pt" height="113pt"
 viewBox="0.00 0.00 322.25 112.88" xmlns="http://www.w3.org/2000/svg" xmlns:xlink="http://www.w3.org/1999/xlink">
<g id="graph0" class="graph" transform="scale(1 1) rotate(0) translate(4 108.88)">
<title>jenkins_hash_ascii_lower</title>
<!-- Node1 -->
<g id="Node000001" class="node">
<title>Node1</title>
<g id="a_Node000001"><a xlink:title=" ">
<polygon fill="#999999" stroke="#666666" points="98.5,-73.5 0,-73.5 0,-43 98.5,-43 98.5,-73.5"/>
<text text-anchor="start" x="8" y="-60" font-family="Helvetica,sans-Serif" font-size="10.00">jenkins_hash_ascii</text>
<text text-anchor="middle" x="49.25" y="-48.75" font-family="Helvetica,sans-Serif" font-size="10.00">_lower</text>
</a>
</g>
</g>
<!-- Node2 -->
<g id="Node000002" class="node">
<title>Node2</title>
<g id="a_Node000002"><a xlink:href="../../d1/d04/hash_8c.html#a3ef54c1cfc12884d80bdd1b6cf7841fe" target="_top" xlink:title=" ">
<polygon fill="white" stroke="#666666" points="225.12,-104.88 150.62,-104.88 150.62,-85.62 225.12,-85.62 225.12,-104.88"/>
<text text-anchor="middle" x="187.88" y="-91.38" font-family="Helvetica,sans-Serif" font-size="10.00">jenkins_finish</text>
</a>
</g>
</g>
<!-- Node1&#45;&gt;Node2 -->
<g id="edge1_Node000001_Node000002" class="edge">
<title>Node1&#45;&gt;Node2</title>
<g id="a_edge1_Node000001_Node000002"><a xlink:title=" ">
<path fill="none" stroke="#63b8ff" d="M98.8,-71.4C112.11,-75 126.5,-78.9 139.72,-82.48"/>
<polygon fill="#63b8ff" stroke="#63b8ff" points="138.48,-85.77 149.05,-85.01 140.31,-79.01 138.48,-85.77"/>
</a>
</g>
</g>
<!-- Node4 -->
<g id="Node000004" class="node">
<title>Node4</title>
<g id="a_Node000004"><a xlink:href="../../d1/d04/hash_8c.html#a52dcb794571d22427bdb5f4e7f783b68" target="_top" xlink:title=" ">
<polygon fill="white" stroke="#666666" points="226.25,-67.88 149.5,-67.88 149.5,-48.62 226.25,-48.62 226.25,-67.88"/>
<text text-anchor="middle" x="187.88" y="-54.38" font-family="Helvetica,sans-Serif" font-size="10.00">jenkins_starts</text>
</a>
</g>
</g>
<!-- Node1&#45;&gt;Node4 -->
<g id="edge3_Node000001_Node000004" class="edge">
<title>Node1&#45;&gt;Node4</title>
<g id="a_edge3_Node000001_Node000004"><a xlink:title=" ">
<path fill="none" stroke="#63b8ff" d="M98.8,-58.25C111.49,-58.25 125.17,-58.25 137.87,-58.25"/>
<polygon fill="#63b8ff" stroke="#63b8ff" points="137.7,-61.75 147.7,-58.25 137.7,-54.75 137.7,-61.75"/>
</a>
</g>
</g>
<!-- Node5 -->
<g id="Node000005" class="node">
<title>Node5</title>
<g id="a_Node000005"><a xlink:href="../../d1/d04/hash_8c.html#a0e296516f9d50514a8627d77116b4766" target="_top" xlink:title=" ">
<polygon fill="white" stroke="#666666" points="241.25,-30.5 134.5,-30.5 134.5,0 241.25,0 241.25,-30.5"/>
<text text-anchor="start" x="142.5" y="-17" font-family="Helvetica,sans-Serif" font-size="10.00">jenkins_update_ascii</text>
<text text-anchor="middle" x="187.88" y="-5.75" font-family="Helvetica,sans-Serif" font-size="10.00">_lower</text>
</a>
</g>
</g>
<!-- Node1&#45;&gt;Node5 -->
<g id="edge4_Node000001_Node000005" class="edge">
<title>Node1&#45;&gt;Node5</title>
<g id="a_edge4_Node000001_Node000005"><a xlink:title=" ">
<path fill="none" stroke="#63b8ff" d="M98.8,-42.97C107.73,-40.16 117.16,-37.19 126.39,-34.29"/>
<polygon fill="#63b8ff" stroke="#63b8ff" points="127.16,-37.71 135.65,-31.37 125.06,-31.04 127.16,-37.71"/>
</a>
</g>
</g>
<!-- Node3 -->
<g id="Node000003" class="node">
<title>Node3</title>
<g id="a_Node000003"><a xlink:href="../../de/dd0/iopctokens_8c.html#a88efba04161d4ad51bc5113fbd9f833b" target="_top" xlink:title=" ">
<polygon fill="white" stroke="#666666" points="314.25,-64.88 277.25,-64.88 277.25,-45.62 314.25,-45.62 314.25,-64.88"/>
<text text-anchor="middle" x="295.75" y="-51.38" font-family="Helvetica,sans-Serif" font-size="10.00">hash</text>
</a>
</g>
</g>
<!-- Node2&#45;&gt;Node3 -->
<g id="edge2_Node000002_Node000003" class="edge">
<title>Node2&#45;&gt;Node3</title>
<g id="a_edge2_Node000002_Node000003"><a xlink:title=" ">
<path fill="none" stroke="#63b8ff" d="M219.17,-85.18C226.43,-82.67 234.14,-79.93 241.25,-77.25 249.52,-74.13 258.43,-70.56 266.55,-67.21"/>
<polygon fill="#63b8ff" stroke="#63b8ff" points="267.74,-70.51 275.62,-63.43 265.05,-64.05 267.74,-70.51"/>
</a>
</g>
</g>
<!-- Node5&#45;&gt;Node3 -->
<g id="edge5_Node000005_Node000003" class="edge">
<title>Node5&#45;&gt;Node3</title>
<g id="a_edge5_Node000005_Node000003"><a xlink:title=" ">
<path fill="none" stroke="#63b8ff" d="M230.42,-30.94C242.37,-35.46 255.14,-40.28 266.12,-44.43"/>
<polygon fill="#63b8ff" stroke="#63b8ff" points="264.8,-47.68 275.4,-47.94 267.28,-41.13 264.8,-47.68"/>
</a>
</g>
</g>
</g>
</svg>
