<?xml version="1.0" encoding="UTF-8" standalone="no"?>
<!DOCTYPE svg PUBLIC "-//W3C//DTD SVG 1.1//EN"
 "http://www.w3.org/Graphics/SVG/1.1/DTD/svg11.dtd">
<!-- Generated by graphviz version 9.0.0 (20230911.1827)
 -->
<!-- Title: rotl32 Pages: 1 -->
<svg width="519pt" height="144pt"
 viewBox="0.00 0.00 519.00 143.88" xmlns="http://www.w3.org/2000/svg" xmlns:xlink="http://www.w3.org/1999/xlink">
<g id="graph0" class="graph" transform="scale(1 1) rotate(0) translate(4 139.88)">
<title>rotl32</title>
<!-- Node1 -->
<g id="Node000001" class="node">
<title>Node1</title>
<g id="a_Node000001"><a xlink:title=" ">
<polygon fill="#999999" stroke="#666666" points="511,-62.25 471,-62.25 471,-43 511,-43 511,-62.25"/>
<text text-anchor="middle" x="491" y="-48.75" font-family="Helvetica,sans-Serif" font-size="10.00">rotl32</text>
</a>
</g>
</g>
<!-- Node2 -->
<g id="Node000002" class="node">
<title>Node2</title>
<g id="a_Node000002"><a xlink:href="../../d1/d04/hash_8c.html#ad874d01d2ebdec98ddeaffa5000d4b31" target="_top" xlink:title=" ">
<polygon fill="white" stroke="#666666" points="429.75,-116.88 318.5,-116.88 318.5,-86.38 429.75,-86.38 429.75,-116.88"/>
<text text-anchor="start" x="326.5" y="-103.38" font-family="Helvetica,sans-Serif" font-size="10.00">__murmur_hash3_x86</text>
<text text-anchor="middle" x="374.12" y="-92.12" font-family="Helvetica,sans-Serif" font-size="10.00">_32_process_block</text>
</a>
</g>
</g>
<!-- Node1&#45;&gt;Node2 -->
<g id="edge1_Node000001_Node000002" class="edge">
<title>Node1&#45;&gt;Node2</title>
<g id="a_edge1_Node000001_Node000002"><a xlink:title=" ">
<path fill="none" stroke="#63b8ff" d="M460.41,-65.64C452.2,-69.22 443.26,-73.1 435,-76.62 427.85,-79.68 420.21,-82.9 412.85,-85.98"/>
<polygon fill="#63b8ff" stroke="#63b8ff" points="461.54,-68.96 469.3,-61.75 458.74,-62.55 461.54,-68.96"/>
</a>
</g>
</g>
<!-- Node6 -->
<g id="Node000006" class="node">
<title>Node6</title>
<g id="a_Node000006"><a xlink:href="../../d1/d04/hash_8c.html#a452e7ea63d7d5c3a04328dbd646822e5" target="_top" xlink:title=" ">
<polygon fill="white" stroke="#666666" points="429.75,-67.88 318.5,-67.88 318.5,-37.38 429.75,-37.38 429.75,-67.88"/>
<text text-anchor="start" x="326.5" y="-54.38" font-family="Helvetica,sans-Serif" font-size="10.00">__murmur_hash3_x86</text>
<text text-anchor="middle" x="374.12" y="-43.12" font-family="Helvetica,sans-Serif" font-size="10.00">_32_process_tail</text>
</a>
</g>
</g>
<!-- Node1&#45;&gt;Node6 -->
<g id="edge5_Node000001_Node000006" class="edge">
<title>Node1&#45;&gt;Node6</title>
<g id="a_edge5_Node000001_Node000006"><a xlink:title=" ">
<path fill="none" stroke="#63b8ff" d="M459.03,-52.62C450.02,-52.62 439.9,-52.62 429.89,-52.62"/>
<polygon fill="#63b8ff" stroke="#63b8ff" points="459,-56.13 469,-52.63 459,-49.13 459,-56.13"/>
</a>
</g>
</g>
<!-- Node8 -->
<g id="Node000008" class="node">
<title>Node8</title>
<g id="a_Node000008"><a xlink:href="../../d1/d04/hash_8c.html#a3b50cd7f20736c339281cf0032f16f8a" target="_top" xlink:title=" ">
<polygon fill="white" stroke="#666666" points="435,-19.25 313.25,-19.25 313.25,0 435,0 435,-19.25"/>
<text text-anchor="middle" x="374.12" y="-5.75" font-family="Helvetica,sans-Serif" font-size="10.00">murmur_hash3_x86_128</text>
</a>
</g>
</g>
<!-- Node1&#45;&gt;Node8 -->
<g id="edge8_Node000001_Node000008" class="edge">
<title>Node1&#45;&gt;Node8</title>
<g id="a_edge8_Node000001_Node000008"><a xlink:title=" ">
<path fill="none" stroke="#63b8ff" d="M460.13,-38.92C452.05,-35.39 443.25,-31.72 435,-28.62 426.63,-25.48 417.48,-22.4 408.9,-19.67"/>
<polygon fill="#63b8ff" stroke="#63b8ff" points="458.66,-42.09 469.22,-42.96 461.5,-35.7 458.66,-42.09"/>
</a>
</g>
</g>
<!-- Node3 -->
<g id="Node000003" class="node">
<title>Node3</title>
<g id="a_Node000003"><a xlink:href="../../d1/d04/hash_8c.html#aa43b0d2e1c16d298f7f07d178fdb2dc6" target="_top" xlink:title=" ">
<polygon fill="white" stroke="#666666" points="277.25,-87.25 160.75,-87.25 160.75,-68 277.25,-68 277.25,-87.25"/>
<text text-anchor="middle" x="219" y="-73.75" font-family="Helvetica,sans-Serif" font-size="10.00">murmur_hash3_x86_32</text>
</a>
</g>
</g>
<!-- Node2&#45;&gt;Node3 -->
<g id="edge2_Node000002_Node000003" class="edge">
<title>Node2&#45;&gt;Node3</title>
<g id="a_edge2_Node000002_Node000003"><a xlink:title=" ">
<path fill="none" stroke="#63b8ff" d="M306.94,-91.25C297.16,-89.72 287.15,-88.15 277.57,-86.65"/>
<polygon fill="#63b8ff" stroke="#63b8ff" points="306.36,-94.7 316.78,-92.79 307.44,-87.79 306.36,-94.7"/>
</a>
</g>
</g>
<!-- Node5 -->
<g id="Node000005" class="node">
<title>Node5</title>
<g id="a_Node000005"><a xlink:href="../../d1/d04/hash_8c.html#a578bc424f55cd6cb908e816b87742744" target="_top" xlink:title=" ">
<polygon fill="white" stroke="#666666" points="277.25,-135.88 160.75,-135.88 160.75,-105.38 277.25,-105.38 277.25,-135.88"/>
<text text-anchor="start" x="168.75" y="-122.38" font-family="Helvetica,sans-Serif" font-size="10.00">murmur_hash3_x86_32</text>
<text text-anchor="middle" x="219" y="-111.12" font-family="Helvetica,sans-Serif" font-size="10.00">_update</text>
</a>
</g>
</g>
<!-- Node2&#45;&gt;Node5 -->
<g id="edge4_Node000002_Node000005" class="edge">
<title>Node2&#45;&gt;Node5</title>
<g id="a_edge4_Node000002_Node000005"><a xlink:title=" ">
<path fill="none" stroke="#63b8ff" d="M306.94,-109.84C297.16,-111.05 287.15,-112.29 277.57,-113.48"/>
<polygon fill="#63b8ff" stroke="#63b8ff" points="307.28,-113.32 316.77,-108.62 306.42,-106.38 307.28,-113.32"/>
</a>
</g>
</g>
<!-- Node4 -->
<g id="Node000004" class="node">
<title>Node4</title>
<g id="a_Node000004"><a xlink:href="../../de/db3/iop_8in_8h.html#aaa80cbc1fd8dc3624b566abddfcb73b3" target="_top" xlink:title=" ">
<polygon fill="white" stroke="#666666" points="124.75,-92.88 0,-92.88 0,-62.38 124.75,-62.38 124.75,-92.88"/>
<text text-anchor="start" x="8" y="-79.38" font-family="Helvetica,sans-Serif" font-size="10.00">iop_hash_murmur_hash3</text>
<text text-anchor="middle" x="62.38" y="-68.12" font-family="Helvetica,sans-Serif" font-size="10.00">_x86_32</text>
</a>
</g>
</g>
<!-- Node3&#45;&gt;Node4 -->
<g id="edge3_Node000003_Node000004" class="edge">
<title>Node3&#45;&gt;Node4</title>
<g id="a_edge3_Node000003_Node000004"><a xlink:title=" ">
<path fill="none" stroke="#63b8ff" d="M148.93,-77.62C141.01,-77.62 132.97,-77.62 125.15,-77.62"/>
<polygon fill="#63b8ff" stroke="#63b8ff" points="148.91,-81.13 158.91,-77.63 148.91,-74.13 148.91,-81.13"/>
</a>
</g>
</g>
<!-- Node6&#45;&gt;Node3 -->
<g id="edge6_Node000006_Node000003" class="edge">
<title>Node6&#45;&gt;Node3</title>
<g id="a_edge6_Node000006_Node000003"><a xlink:title=" ">
<path fill="none" stroke="#63b8ff" d="M306.94,-63.43C297.16,-65.03 287.15,-66.66 277.57,-68.23"/>
<polygon fill="#63b8ff" stroke="#63b8ff" points="307.48,-66.89 316.78,-61.82 306.35,-59.98 307.48,-66.89"/>
</a>
</g>
</g>
<!-- Node7 -->
<g id="Node000007" class="node">
<title>Node7</title>
<g id="a_Node000007"><a xlink:href="../../d1/d04/hash_8c.html#acd28a6ba9888b81e136a15ef8201474c" target="_top" xlink:title=" ">
<polygon fill="white" stroke="#666666" points="277.25,-49.88 160.75,-49.88 160.75,-19.38 277.25,-19.38 277.25,-49.88"/>
<text text-anchor="start" x="168.75" y="-36.38" font-family="Helvetica,sans-Serif" font-size="10.00">murmur_hash3_x86_32</text>
<text text-anchor="middle" x="219" y="-25.12" font-family="Helvetica,sans-Serif" font-size="10.00">_finish</text>
</a>
</g>
</g>
<!-- Node6&#45;&gt;Node7 -->
<g id="edge7_Node000006_Node000007" class="edge">
<title>Node6&#45;&gt;Node7</title>
<g id="a_edge7_Node000006_Node000007"><a xlink:title=" ">
<path fill="none" stroke="#63b8ff" d="M306.94,-44.85C297.16,-43.7 287.15,-42.52 277.57,-41.39"/>
<polygon fill="#63b8ff" stroke="#63b8ff" points="306.43,-48.31 316.77,-46 307.25,-41.36 306.43,-48.31"/>
</a>
</g>
</g>
</g>
</svg>
