<?xml version="1.0" encoding="UTF-8" standalone="no"?>
<!DOCTYPE svg PUBLIC "-//W3C//DTD SVG 1.1//EN"
 "http://www.w3.org/Graphics/SVG/1.1/DTD/svg11.dtd">
<!-- Generated by graphviz version 9.0.0 (20230911.1827)
 -->
<!-- Title: path_item_object_t Pages: 1 -->
<svg width="718pt" height="990pt"
 viewBox="0.00 0.00 717.50 990.00" xmlns="http://www.w3.org/2000/svg" xmlns:xlink="http://www.w3.org/1999/xlink">
<g id="graph0" class="graph" transform="scale(1 1) rotate(0) translate(4 986)">
<title>path_item_object_t</title>
<!-- Node1 -->
<g id="Node000001" class="node">
<title>Node1</title>
<g id="a_Node000001"><a xlink:title=" ">
<polygon fill="#999999" stroke="none" points="92,-49 0,-49 0,0 92,0 92,-49"/>
<text text-anchor="start" x="4.75" y="-35.5" font-family="Helvetica,sans-Serif" font-size="10.00">path_item_object_t</text>
<text text-anchor="start" x="44.5" y="-20.5" font-family="Helvetica,sans-Serif" font-size="10.00"> </text>
<text text-anchor="start" x="44.5" y="-5.5" font-family="Helvetica,sans-Serif" font-size="10.00"> </text>
<polygon fill="#666666" stroke="#666666" points="0,-32 0,-32 92,-32 92,-32 0,-32"/>
<polygon fill="#666666" stroke="#666666" points="0,-17 0,-17 92,-17 92,-17 0,-17"/>
<polygon fill="none" stroke="#666666" points="0,0 0,-49 92,-49 92,0 0,0"/>
</a>
</g>
</g>
<!-- Node2 -->
<g id="Node000002" class="node">
<title>Node2</title>
<g id="a_Node000002"><a xlink:href="../../d1/ddc/structlstr__t.html" target="_top" xlink:title="representation of a string with length.">
<polygon fill="white" stroke="none" points="295,-982 171,-982 171,-843 295,-843 295,-982"/>
<text text-anchor="start" x="222.12" y="-968.5" font-family="Helvetica,sans-Serif" font-size="10.00">lstr_t</text>
<text text-anchor="start" x="175" y="-953.5" font-family="Helvetica,sans-Serif" font-size="10.00">+</text>
<text text-anchor="start" x="185" y="-953.5" font-family="Helvetica,sans-Serif" font-size="10.00">const char * s</text>
<text text-anchor="start" x="175" y="-938.5" font-family="Helvetica,sans-Serif" font-size="10.00">+</text>
<text text-anchor="start" x="185" y="-938.5" font-family="Helvetica,sans-Serif" font-size="10.00">char * v</text>
<text text-anchor="start" x="175" y="-923.5" font-family="Helvetica,sans-Serif" font-size="10.00">+</text>
<text text-anchor="start" x="185" y="-923.5" font-family="Helvetica,sans-Serif" font-size="10.00">void * data</text>
<text text-anchor="start" x="175" y="-908.5" font-family="Helvetica,sans-Serif" font-size="10.00">+</text>
<text text-anchor="start" x="185" y="-908.5" font-family="Helvetica,sans-Serif" font-size="10.00">union lstr_t::@107 @108</text>
<text text-anchor="start" x="175" y="-893.5" font-family="Helvetica,sans-Serif" font-size="10.00">+</text>
<text text-anchor="start" x="185" y="-893.5" font-family="Helvetica,sans-Serif" font-size="10.00">int len</text>
<text text-anchor="start" x="175" y="-878.5" font-family="Helvetica,sans-Serif" font-size="10.00">+</text>
<text text-anchor="start" x="185" y="-878.5" font-family="Helvetica,sans-Serif" font-size="10.00">unsigned mem_pool</text>
<text text-anchor="start" x="175" y="-863.5" font-family="Helvetica,sans-Serif" font-size="10.00">+</text>
<text text-anchor="start" x="185" y="-863.5" font-family="Helvetica,sans-Serif" font-size="10.00">union lstr_t::@125 @126</text>
<text text-anchor="start" x="231.5" y="-848.5" font-family="Helvetica,sans-Serif" font-size="10.00"> </text>
<polygon fill="#666666" stroke="#666666" points="171,-965 171,-965 295,-965 295,-965 171,-965"/>
<polygon fill="#666666" stroke="#666666" points="171,-860 171,-860 183,-860 183,-860 171,-860"/>
<polygon fill="#666666" stroke="#666666" points="183,-860 183,-860 295,-860 295,-860 183,-860"/>
<polygon fill="none" stroke="#666666" points="171,-843 171,-982 295,-982 295,-843 171,-843"/>
</a>
</g>
</g>
<!-- Node2&#45;&gt;Node1 -->
<g id="edge1_Node000001_Node000002" class="edge">
<title>Node2&#45;&gt;Node1</title>
<g id="a_edge1_Node000001_Node000002"><a xlink:title=" ">
<path fill="none" stroke="#63b8ff" d="M171.27,-886.99C111.54,-858.74 30,-806.1 30,-729.25 30,-729.25 30,-729.25 30,-119.75 30,-100.31 33.35,-78.92 36.98,-61.45"/>
<polygon fill="none" stroke="#63b8ff" points="36.97,-61.53 34.36,-54.81 39.57,-49.82 42.17,-56.55 36.97,-61.53"/>
</a>
</g>
<text text-anchor="middle" x="43.5" y="-320.62" font-family="Helvetica,sans-Serif" font-size="10.00" fill="grey"> +path</text>
</g>
<!-- Node3 -->
<g id="Node000003" class="node">
<title>Node3</title>
<g id="a_Node000003"><a xlink:href="../../d6/dd0/structoperation__object__t.html" target="_top" xlink:title=" ">
<polygon fill="white" stroke="none" points="484.5,-145.25 395.5,-145.25 395.5,-96.25 484.5,-96.25 484.5,-145.25"/>
<text text-anchor="start" x="400.25" y="-131.75" font-family="Helvetica,sans-Serif" font-size="10.00">operation_object_t</text>
<text text-anchor="start" x="438.5" y="-116.75" font-family="Helvetica,sans-Serif" font-size="10.00"> </text>
<text text-anchor="start" x="438.5" y="-101.75" font-family="Helvetica,sans-Serif" font-size="10.00"> </text>
<polygon fill="#666666" stroke="#666666" points="395.5,-128.25 395.5,-128.25 484.5,-128.25 484.5,-128.25 395.5,-128.25"/>
<polygon fill="#666666" stroke="#666666" points="395.5,-113.25 395.5,-113.25 484.5,-113.25 484.5,-113.25 395.5,-113.25"/>
<polygon fill="none" stroke="#666666" points="395.5,-96.25 395.5,-145.25 484.5,-145.25 484.5,-96.25 395.5,-96.25"/>
</a>
</g>
</g>
<!-- Node2&#45;&gt;Node3 -->
<g id="edge3_Node000003_Node000002" class="edge">
<title>Node2&#45;&gt;Node3</title>
<g id="a_edge3_Node000003_Node000002"><a xlink:title=" ">
<path fill="none" stroke="#63b8ff" d="M294.67,-911.81C411.6,-908.82 654,-883.96 654,-729.25 654,-729.25 654,-729.25 654,-227.25 654,-157.11 560.37,-133.6 496.97,-125.72"/>
<polygon fill="none" stroke="#63b8ff" points="497.16,-125.74 490.75,-129.05 485.24,-124.4 491.64,-121.1 497.16,-125.74"/>
</a>
</g>
<text text-anchor="middle" x="681.75" y="-391.25" font-family="Helvetica,sans-Serif" font-size="10.00" fill="grey"> +description</text>
<text text-anchor="middle" x="681.75" y="-380" font-family="Helvetica,sans-Serif" font-size="10.00" fill="grey">+summary</text>
<text text-anchor="middle" x="681.75" y="-368.75" font-family="Helvetica,sans-Serif" font-size="10.00" fill="grey">+tag</text>
</g>
<!-- Node4 -->
<g id="Node000004" class="node">
<title>Node4</title>
<g id="a_Node000004"><a xlink:href="../../d2/dfe/structjson__request__object__t.html" target="_top" xlink:title=" ">
<polygon fill="white" stroke="none" points="345.5,-252.75 240.5,-252.75 240.5,-203.75 345.5,-203.75 345.5,-252.75"/>
<text text-anchor="start" x="245.38" y="-239.25" font-family="Helvetica,sans-Serif" font-size="10.00">json_request_object_t</text>
<text text-anchor="start" x="291.5" y="-224.25" font-family="Helvetica,sans-Serif" font-size="10.00"> </text>
<text text-anchor="start" x="291.5" y="-209.25" font-family="Helvetica,sans-Serif" font-size="10.00"> </text>
<polygon fill="#666666" stroke="#666666" points="240.5,-235.75 240.5,-235.75 345.5,-235.75 345.5,-235.75 240.5,-235.75"/>
<polygon fill="#666666" stroke="#666666" points="240.5,-220.75 240.5,-220.75 345.5,-220.75 345.5,-220.75 240.5,-220.75"/>
<polygon fill="none" stroke="#666666" points="240.5,-203.75 240.5,-252.75 345.5,-252.75 345.5,-203.75 240.5,-203.75"/>
</a>
</g>
</g>
<!-- Node2&#45;&gt;Node4 -->
<g id="edge5_Node000004_Node000002" class="edge">
<title>Node2&#45;&gt;Node4</title>
<g id="a_edge5_Node000004_Node000002"><a xlink:title=" ">
<path fill="none" stroke="#63b8ff" d="M171.09,-869.7C130.54,-836.87 85,-787.13 85,-729.25 85,-729.25 85,-729.25 85,-323.5 85,-259.84 166.84,-238.96 227.85,-232.24"/>
<polygon fill="none" stroke="#63b8ff" points="227.67,-232.25 233.26,-227.69 239.62,-231.1 234.03,-235.66 227.67,-232.25"/>
</a>
</g>
<text text-anchor="middle" x="112.75" y="-493.38" font-family="Helvetica,sans-Serif" font-size="10.00" fill="grey"> +description</text>
</g>
<!-- Node5 -->
<g id="Node000005" class="node">
<title>Node5</title>
<g id="a_Node000005"><a xlink:href="../../d4/d8a/structjson__media__object__t.html" target="_top" xlink:title=" ">
<polygon fill="white" stroke="none" points="343.5,-349 244.5,-349 244.5,-300 343.5,-300 343.5,-349"/>
<text text-anchor="start" x="249.38" y="-335.5" font-family="Helvetica,sans-Serif" font-size="10.00">json_media_object_t</text>
<text text-anchor="start" x="292.5" y="-320.5" font-family="Helvetica,sans-Serif" font-size="10.00"> </text>
<text text-anchor="start" x="292.5" y="-305.5" font-family="Helvetica,sans-Serif" font-size="10.00"> </text>
<polygon fill="#666666" stroke="#666666" points="244.5,-332 244.5,-332 343.5,-332 343.5,-332 244.5,-332"/>
<polygon fill="#666666" stroke="#666666" points="244.5,-317 244.5,-317 343.5,-317 343.5,-317 244.5,-317"/>
<polygon fill="none" stroke="#666666" points="244.5,-300 244.5,-349 343.5,-349 343.5,-300 244.5,-300"/>
</a>
</g>
</g>
<!-- Node2&#45;&gt;Node5 -->
<g id="edge13_Node000005_Node000002" class="edge">
<title>Node2&#45;&gt;Node5</title>
<g id="a_edge13_Node000005_Node000002"><a xlink:title=" ">
<path fill="none" stroke="#63b8ff" d="M190.9,-843.12C187.2,-837.01 183.52,-830.9 180,-825 172.29,-812.09 168.09,-809.9 163,-795.75 139.69,-730.89 143.38,-711.44 137.75,-642.75 135.97,-621.05 132.61,-614.91 137.75,-593.75 142.91,-572.49 216.64,-437.45 228,-418.75 240.45,-398.26 255.87,-376.32 268.66,-358.88"/>
<polygon fill="none" stroke="#63b8ff" points="268.56,-359.01 268.92,-351.81 275.71,-349.37 275.35,-356.57 268.56,-359.01"/>
</a>
</g>
<text text-anchor="middle" x="160.12" y="-614.38" font-family="Helvetica,sans-Serif" font-size="10.00" fill="grey"> +example</text>
</g>
<!-- Node6 -->
<g id="Node000006" class="node">
<title>Node6</title>
<g id="a_Node000006"><a xlink:href="../../de/de1/structschema__object__t.html" target="_top" xlink:title=" ">
<polygon fill="white" stroke="none" points="353,-575.75 237,-575.75 237,-418.75 353,-418.75 353,-575.75"/>
<text text-anchor="start" x="257.88" y="-562.25" font-family="Helvetica,sans-Serif" font-size="10.00">schema_object_t</text>
<text text-anchor="start" x="241" y="-547.25" font-family="Helvetica,sans-Serif" font-size="10.00">+</text>
<text text-anchor="start" x="251" y="-547.25" font-family="Helvetica,sans-Serif" font-size="10.00">openapi_type_t type</text>
<text text-anchor="start" x="241" y="-532.25" font-family="Helvetica,sans-Serif" font-size="10.00">+</text>
<text text-anchor="start" x="251" y="-532.25" font-family="Helvetica,sans-Serif" font-size="10.00">bool _nullable</text>
<text text-anchor="start" x="241" y="-517.25" font-family="Helvetica,sans-Serif" font-size="10.00">+</text>
<text text-anchor="start" x="251" y="-517.25" font-family="Helvetica,sans-Serif" font-size="10.00">qv_t(lstr) required</text>
<text text-anchor="start" x="241" y="-502.25" font-family="Helvetica,sans-Serif" font-size="10.00">+</text>
<text text-anchor="start" x="251" y="-502.25" font-family="Helvetica,sans-Serif" font-size="10.00">qv_t(schema_props)</text>
<text text-anchor="start" x="251" y="-491" font-family="Helvetica,sans-Serif" font-size="10.00"> properties</text>
<text text-anchor="start" x="241" y="-476.25" font-family="Helvetica,sans-Serif" font-size="10.00">+</text>
<text text-anchor="start" x="251" y="-476.25" font-family="Helvetica,sans-Serif" font-size="10.00">qv_t(schema_object</text>
<text text-anchor="start" x="251" y="-465" font-family="Helvetica,sans-Serif" font-size="10.00">_p) one_of</text>
<text text-anchor="start" x="241" y="-450.25" font-family="Helvetica,sans-Serif" font-size="10.00">+</text>
<text text-anchor="start" x="251" y="-450.25" font-family="Helvetica,sans-Serif" font-size="10.00">qv_t(schema_object</text>
<text text-anchor="start" x="251" y="-439" font-family="Helvetica,sans-Serif" font-size="10.00">_p) all_of</text>
<text text-anchor="start" x="241" y="-424.25" font-family="Helvetica,sans-Serif" font-size="10.00">+</text>
<text text-anchor="start" x="251" y="-424.25" font-family="Helvetica,sans-Serif" font-size="10.00">qv_t(lstr) enum_values</text>
<polygon fill="#666666" stroke="#666666" points="237,-558.75 237,-558.75 353,-558.75 353,-558.75 237,-558.75"/>
<polygon fill="#666666" stroke="#666666" points="237,-528.75 237,-528.75 249,-528.75 249,-528.75 237,-528.75"/>
<polygon fill="#666666" stroke="#666666" points="249,-528.75 249,-528.75 353,-528.75 353,-528.75 249,-528.75"/>
<polygon fill="none" stroke="#666666" points="237,-418.75 237,-575.75 353,-575.75 353,-418.75 237,-418.75"/>
</a>
</g>
</g>
<!-- Node2&#45;&gt;Node6 -->
<g id="edge8_Node000006_Node000002" class="edge">
<title>Node2&#45;&gt;Node6</title>
<g id="a_edge8_Node000006_Node000002"><a xlink:title=" ">
<path fill="none" stroke="#63b8ff" d="M194.83,-843.19C188.07,-828.01 182.06,-811.68 178.5,-795.75 165.4,-737.2 160.14,-717.87 178.5,-660.75 189.05,-627.93 208.95,-596.12 229.35,-569.47"/>
<polygon fill="none" stroke="#63b8ff" points="229.2,-569.66 229.77,-562.47 236.62,-560.23 236.06,-567.42 229.2,-569.66"/>
</a>
</g>
<text text-anchor="middle" x="209.75" y="-746.88" font-family="Helvetica,sans-Serif" font-size="10.00" fill="grey"> +description</text>
<text text-anchor="middle" x="209.75" y="-735.62" font-family="Helvetica,sans-Serif" font-size="10.00" fill="grey">+discriminator</text>
<text text-anchor="middle" x="209.75" y="-724.38" font-family="Helvetica,sans-Serif" font-size="10.00" fill="grey">+example</text>
<text text-anchor="middle" x="209.75" y="-713.12" font-family="Helvetica,sans-Serif" font-size="10.00" fill="grey">+name</text>
<text text-anchor="middle" x="209.75" y="-701.88" font-family="Helvetica,sans-Serif" font-size="10.00" fill="grey">+pattern</text>
</g>
<!-- Node7 -->
<g id="Node000007" class="node">
<title>Node7</title>
<g id="a_Node000007"><a xlink:href="../../d8/d5f/structscalar__value__t.html" target="_top" xlink:title=" ">
<polygon fill="white" stroke="none" points="347,-795.75 249,-795.75 249,-660.75 347,-660.75 347,-795.75"/>
<text text-anchor="start" x="266.5" y="-782.25" font-family="Helvetica,sans-Serif" font-size="10.00">scalar_value_t</text>
<text text-anchor="start" x="253" y="-767.25" font-family="Helvetica,sans-Serif" font-size="10.00">+</text>
<text text-anchor="start" x="263" y="-767.25" font-family="Helvetica,sans-Serif" font-size="10.00">int64_t i</text>
<text text-anchor="start" x="253" y="-752.25" font-family="Helvetica,sans-Serif" font-size="10.00">+</text>
<text text-anchor="start" x="263" y="-752.25" font-family="Helvetica,sans-Serif" font-size="10.00">uint64_t u</text>
<text text-anchor="start" x="253" y="-737.25" font-family="Helvetica,sans-Serif" font-size="10.00">+</text>
<text text-anchor="start" x="263" y="-737.25" font-family="Helvetica,sans-Serif" font-size="10.00">double d</text>
<text text-anchor="start" x="253" y="-722.25" font-family="Helvetica,sans-Serif" font-size="10.00">+</text>
<text text-anchor="start" x="263" y="-722.25" font-family="Helvetica,sans-Serif" font-size="10.00">bool b</text>
<text text-anchor="start" x="253" y="-707.25" font-family="Helvetica,sans-Serif" font-size="10.00">+</text>
<text text-anchor="start" x="263" y="-707.25" font-family="Helvetica,sans-Serif" font-size="10.00">union scalar_value</text>
<text text-anchor="start" x="263" y="-696" font-family="Helvetica,sans-Serif" font-size="10.00">_t::@137 @138</text>
<text text-anchor="start" x="253" y="-681.25" font-family="Helvetica,sans-Serif" font-size="10.00">+</text>
<text text-anchor="start" x="263" y="-681.25" font-family="Helvetica,sans-Serif" font-size="10.00">scalar_type_t type</text>
<text text-anchor="start" x="296.5" y="-666.25" font-family="Helvetica,sans-Serif" font-size="10.00"> </text>
<polygon fill="#666666" stroke="#666666" points="249,-778.75 249,-778.75 347,-778.75 347,-778.75 249,-778.75"/>
<polygon fill="#666666" stroke="#666666" points="249,-677.75 249,-677.75 261,-677.75 261,-677.75 249,-677.75"/>
<polygon fill="#666666" stroke="#666666" points="261,-677.75 261,-677.75 347,-677.75 347,-677.75 261,-677.75"/>
<polygon fill="none" stroke="#666666" points="249,-660.75 249,-795.75 347,-795.75 347,-660.75 249,-660.75"/>
</a>
</g>
</g>
<!-- Node2&#45;&gt;Node7 -->
<g id="edge10_Node000007_Node000002" class="edge">
<title>Node2&#45;&gt;Node7</title>
<g id="a_edge10_Node000007_Node000002"><a xlink:title=" ">
<path fill="none" stroke="#63b8ff" d="M257.39,-843.12C261.51,-831.57 265.81,-819.51 270.01,-807.73"/>
<polygon fill="none" stroke="#63b8ff" points="270,-807.75 268.25,-800.75 274.03,-796.45 275.79,-803.44 270,-807.75"/>
</a>
</g>
<text text-anchor="middle" x="274.75" y="-815.5" font-family="Helvetica,sans-Serif" font-size="10.00" fill="grey"> +s</text>
</g>
<!-- Node9 -->
<g id="Node000009" class="node">
<title>Node9</title>
<g id="a_Node000009"><a xlink:href="../../d2/d47/structjson__response__object__t.html" target="_top" xlink:title=" ">
<polygon fill="white" stroke="none" points="496,-252.75 384,-252.75 384,-203.75 496,-203.75 496,-252.75"/>
<text text-anchor="start" x="388.62" y="-239.25" font-family="Helvetica,sans-Serif" font-size="10.00">json_response_object_t</text>
<text text-anchor="start" x="438.5" y="-224.25" font-family="Helvetica,sans-Serif" font-size="10.00"> </text>
<text text-anchor="start" x="438.5" y="-209.25" font-family="Helvetica,sans-Serif" font-size="10.00"> </text>
<polygon fill="#666666" stroke="#666666" points="384,-235.75 384,-235.75 496,-235.75 496,-235.75 384,-235.75"/>
<polygon fill="#666666" stroke="#666666" points="384,-220.75 384,-220.75 496,-220.75 496,-220.75 384,-220.75"/>
<polygon fill="none" stroke="#666666" points="384,-203.75 384,-252.75 496,-252.75 496,-203.75 384,-203.75"/>
</a>
</g>
</g>
<!-- Node2&#45;&gt;Node9 -->
<g id="edge15_Node000009_Node000002" class="edge">
<title>Node2&#45;&gt;Node9</title>
<g id="a_edge15_Node000009_Node000002"><a xlink:title=" ">
<path fill="none" stroke="#63b8ff" d="M294.81,-897.27C346.37,-881.77 416.61,-851.4 450,-795.75 503.74,-706.17 461.43,-375.3 445.45,-265.17"/>
<polygon fill="none" stroke="#63b8ff" points="445.48,-265.34 440.64,-259.98 443.73,-253.46 448.56,-258.82 445.48,-265.34"/>
</a>
</g>
<text text-anchor="middle" x="503.75" y="-493.38" font-family="Helvetica,sans-Serif" font-size="10.00" fill="grey"> +description</text>
</g>
<!-- Node10 -->
<g id="Node000010" class="node">
<title>Node10</title>
<g id="a_Node000010"><a xlink:href="../../d3/de5/structhtml__response__object__t.html" target="_top" xlink:title=" ">
<polygon fill="white" stroke="none" points="599.5,-642.75 486.5,-642.75 486.5,-593.75 599.5,-593.75 599.5,-642.75"/>
<text text-anchor="start" x="491.25" y="-629.25" font-family="Helvetica,sans-Serif" font-size="10.00">html_response_object_t</text>
<text text-anchor="start" x="541.5" y="-614.25" font-family="Helvetica,sans-Serif" font-size="10.00"> </text>
<text text-anchor="start" x="541.5" y="-599.25" font-family="Helvetica,sans-Serif" font-size="10.00"> </text>
<polygon fill="#666666" stroke="#666666" points="486.5,-625.75 486.5,-625.75 599.5,-625.75 599.5,-625.75 486.5,-625.75"/>
<polygon fill="#666666" stroke="#666666" points="486.5,-610.75 486.5,-610.75 599.5,-610.75 599.5,-610.75 486.5,-610.75"/>
<polygon fill="none" stroke="#666666" points="486.5,-593.75 486.5,-642.75 599.5,-642.75 599.5,-593.75 486.5,-593.75"/>
</a>
</g>
</g>
<!-- Node2&#45;&gt;Node10 -->
<g id="edge18_Node000010_Node000002" class="edge">
<title>Node2&#45;&gt;Node10</title>
<g id="a_edge18_Node000010_Node000002"><a xlink:title=" ">
<path fill="none" stroke="#63b8ff" d="M294.76,-906.01C351.31,-897.73 433.52,-876.98 483,-825 527.29,-778.47 539.13,-701.13 542.15,-655.69"/>
<polygon fill="none" stroke="#63b8ff" points="542.15,-655.57 538.47,-649.37 542.78,-643.58 546.46,-649.78 542.15,-655.57"/>
</a>
</g>
<text text-anchor="middle" x="519.75" y="-815.5" font-family="Helvetica,sans-Serif" font-size="10.00" fill="grey"> +description</text>
</g>
<!-- Node3&#45;&gt;Node1 -->
<g id="edge2_Node000001_Node000003" class="edge">
<title>Node3&#45;&gt;Node1</title>
<g id="a_edge2_Node000001_Node000003"><a xlink:title=" ">
<path fill="none" stroke="#63b8ff" d="M395.57,-109.12C324.17,-92.04 183.9,-58.49 104.46,-39.49"/>
<polygon fill="none" stroke="#63b8ff" points="104.33,-39.45 97.57,-41.95 92.66,-36.66 99.43,-34.17 104.33,-39.45"/>
</a>
</g>
<text text-anchor="middle" x="268.5" y="-68.75" font-family="Helvetica,sans-Serif" font-size="10.00" fill="grey"> +post</text>
</g>
<!-- Node4&#45;&gt;Node3 -->
<g id="edge4_Node000003_Node000004" class="edge">
<title>Node4&#45;&gt;Node3</title>
<g id="a_edge4_Node000003_Node000004"><a xlink:title=" ">
<path fill="none" stroke="#63b8ff" d="M325.62,-203.84C346.65,-188.74 374.23,-168.95 397.04,-152.58"/>
<polygon fill="none" stroke="#63b8ff" points="396.99,-152.62 399.53,-145.87 406.73,-145.62 404.19,-152.37 396.99,-152.62"/>
</a>
</g>
<text text-anchor="middle" x="400.25" y="-170.62" font-family="Helvetica,sans-Serif" font-size="10.00" fill="grey"> +request</text>
</g>
<!-- Node5&#45;&gt;Node4 -->
<g id="edge6_Node000004_Node000005" class="edge">
<title>Node5&#45;&gt;Node4</title>
<g id="a_edge6_Node000004_Node000005"><a xlink:title=" ">
<path fill="none" stroke="#63b8ff" d="M293.75,-300.2C293.64,-289.78 293.51,-277.25 293.39,-265.64"/>
<polygon fill="none" stroke="#63b8ff" points="293.38,-265.51 289.32,-259.55 293.26,-253.51 297.32,-259.46 293.38,-265.51"/>
</a>
</g>
<text text-anchor="middle" x="325.88" y="-272.5" font-family="Helvetica,sans-Serif" font-size="10.00" fill="grey"> +json_content</text>
</g>
<!-- Node5&#45;&gt;Node9 -->
<g id="edge16_Node000009_Node000005" class="edge">
<title>Node5&#45;&gt;Node9</title>
<g id="a_edge16_Node000009_Node000005"><a xlink:title=" ">
<path fill="none" stroke="#63b8ff" d="M330.09,-300.2C349.04,-287.97 372.5,-272.83 392.87,-259.68"/>
<polygon fill="none" stroke="#63b8ff" points="392.98,-259.6 395.85,-252.99 403.06,-253.1 400.19,-259.71 392.98,-259.6"/>
</a>
</g>
<text text-anchor="middle" x="403.88" y="-272.5" font-family="Helvetica,sans-Serif" font-size="10.00" fill="grey"> +json_content</text>
</g>
<!-- Node6&#45;&gt;Node5 -->
<g id="edge7_Node000005_Node000006" class="edge">
<title>Node6&#45;&gt;Node5</title>
<g id="a_edge7_Node000005_Node000006"><a xlink:title=" ">
<path fill="none" stroke="#63b8ff" d="M294.55,-418.87C294.43,-399.01 294.31,-378.58 294.21,-361.91"/>
<polygon fill="none" stroke="#63b8ff" points="294.21,-361.79 290.18,-355.81 294.14,-349.79 298.18,-355.76 294.21,-361.79"/>
</a>
</g>
<text text-anchor="middle" x="316.38" y="-380" font-family="Helvetica,sans-Serif" font-size="10.00" fill="grey"> +schema</text>
</g>
<!-- Node6&#45;&gt;Node6 -->
<g id="edge11_Node000006_Node000006" class="edge">
<title>Node6&#45;&gt;Node6</title>
<g id="a_edge11_Node000006_Node000006"><a xlink:title=" ">
<path fill="none" stroke="#63b8ff" d="M352.99,-517.34C363.58,-514.8 371,-508.1 371,-497.25 371,-491.15 368.65,-486.36 364.71,-482.88"/>
<polygon fill="none" stroke="#63b8ff" points="364.58,-482.82 357.44,-483.78 353.8,-477.56 360.95,-476.59 364.58,-482.82"/>
</a>
</g>
<text text-anchor="middle" x="387.12" y="-493.38" font-family="Helvetica,sans-Serif" font-size="10.00" fill="grey"> +items</text>
</g>
<!-- Node7&#45;&gt;Node6 -->
<g id="edge9_Node000006_Node000007" class="edge">
<title>Node7&#45;&gt;Node6</title>
<g id="a_edge9_Node000006_Node000007"><a xlink:title=" ">
<path fill="none" stroke="#63b8ff" d="M297.13,-661.01C296.84,-638.4 296.5,-612.7 296.18,-588.52"/>
<polygon fill="none" stroke="#63b8ff" points="296.18,-588.55 292.1,-582.61 296.03,-576.56 300.1,-582.5 296.18,-588.55"/>
</a>
</g>
<text text-anchor="middle" x="321" y="-625.62" font-family="Helvetica,sans-Serif" font-size="10.00" fill="grey"> +defval</text>
<text text-anchor="middle" x="321" y="-614.38" font-family="Helvetica,sans-Serif" font-size="10.00" fill="grey">+maximum</text>
<text text-anchor="middle" x="321" y="-603.12" font-family="Helvetica,sans-Serif" font-size="10.00" fill="grey">+minimum</text>
</g>
<!-- Node8 -->
<g id="Node000008" class="node">
<title>Node8</title>
<g id="a_Node000008"><a xlink:href="../../d1/df6/structopt__i64__t.html" target="_top" xlink:title=" ">
<polygon fill="white" stroke="none" points="441,-760.25 365,-760.25 365,-696.25 441,-696.25 441,-760.25"/>
<text text-anchor="start" x="383.12" y="-746.75" font-family="Helvetica,sans-Serif" font-size="10.00">opt_i64_t</text>
<text text-anchor="start" x="369" y="-731.75" font-family="Helvetica,sans-Serif" font-size="10.00">+</text>
<text text-anchor="start" x="379" y="-731.75" font-family="Helvetica,sans-Serif" font-size="10.00">int64_t v</text>
<text text-anchor="start" x="369" y="-716.75" font-family="Helvetica,sans-Serif" font-size="10.00">+</text>
<text text-anchor="start" x="379" y="-716.75" font-family="Helvetica,sans-Serif" font-size="10.00">bool has_field</text>
<text text-anchor="start" x="401.5" y="-701.75" font-family="Helvetica,sans-Serif" font-size="10.00"> </text>
<polygon fill="#666666" stroke="#666666" points="365,-743.25 365,-743.25 441,-743.25 441,-743.25 365,-743.25"/>
<polygon fill="#666666" stroke="#666666" points="365,-713.25 365,-713.25 377,-713.25 377,-713.25 365,-713.25"/>
<polygon fill="#666666" stroke="#666666" points="377,-713.25 377,-713.25 441,-713.25 441,-713.25 377,-713.25"/>
<polygon fill="none" stroke="#666666" points="365,-696.25 365,-760.25 441,-760.25 441,-696.25 365,-696.25"/>
</a>
</g>
</g>
<!-- Node8&#45;&gt;Node6 -->
<g id="edge12_Node000006_Node000008" class="edge">
<title>Node8&#45;&gt;Node6</title>
<g id="a_edge12_Node000006_Node000008"><a xlink:title=" ">
<path fill="none" stroke="#63b8ff" d="M391.78,-696.27C381.56,-668.89 365.57,-628.09 349,-593.75 347.97,-591.62 346.92,-589.48 345.84,-587.32"/>
<polygon fill="none" stroke="#63b8ff" points="345.79,-587.21 339.49,-583.69 340.32,-576.52 346.61,-580.04 345.79,-587.21"/>
</a>
</g>
<text text-anchor="middle" x="397.75" y="-631.25" font-family="Helvetica,sans-Serif" font-size="10.00" fill="grey"> +max_items</text>
<text text-anchor="middle" x="397.75" y="-620" font-family="Helvetica,sans-Serif" font-size="10.00" fill="grey">+max_length</text>
<text text-anchor="middle" x="397.75" y="-608.75" font-family="Helvetica,sans-Serif" font-size="10.00" fill="grey">+min_items</text>
<text text-anchor="middle" x="397.75" y="-597.5" font-family="Helvetica,sans-Serif" font-size="10.00" fill="grey">+min_length</text>
</g>
<!-- Node9&#45;&gt;Node3 -->
<g id="edge14_Node000003_Node000009" class="edge">
<title>Node9&#45;&gt;Node3</title>
<g id="a_edge14_Node000003_Node000009"><a xlink:title=" ">
<path fill="none" stroke="#63b8ff" d="M440,-203.84C440,-190.31 440,-173.02 440,-157.8"/>
<polygon fill="none" stroke="#63b8ff" points="440,-158 436,-152 440,-146 444,-152 440,-158"/>
</a>
</g>
<text text-anchor="middle" x="474.12" y="-176.25" font-family="Helvetica,sans-Serif" font-size="10.00" fill="grey"> +exn_response</text>
<text text-anchor="middle" x="474.12" y="-165" font-family="Helvetica,sans-Serif" font-size="10.00" fill="grey">+ok_response</text>
</g>
<!-- Node10&#45;&gt;Node3 -->
<g id="edge17_Node000003_Node000010" class="edge">
<title>Node10&#45;&gt;Node3</title>
<g id="a_edge17_Node000003_Node000010"><a xlink:title=" ">
<path fill="none" stroke="#63b8ff" d="M543,-593.83C543,-551.92 543,-461.32 543,-384.88 543,-384.88 543,-384.88 543,-227.25 543,-195.64 533.53,-186.39 512,-163.25 506.96,-157.84 501.06,-152.93 494.83,-148.54"/>
<polygon fill="none" stroke="#63b8ff" points="494.99,-148.64 487.78,-148.75 484.91,-142.13 492.12,-142.03 494.99,-148.64"/>
</a>
</g>
<text text-anchor="middle" x="584.25" y="-320.62" font-family="Helvetica,sans-Serif" font-size="10.00" fill="grey"> +default_response</text>
</g>
</g>
</svg>
