<?xml version="1.0" encoding="UTF-8" standalone="no"?>
<!DOCTYPE svg PUBLIC "-//W3C//DTD SVG 1.1//EN"
 "http://www.w3.org/Graphics/SVG/1.1/DTD/svg11.dtd">
<!-- Generated by graphviz version 9.0.0 (20230911.1827)
 -->
<!-- Title: asn1_pack_size_rec Pages: 1 -->
<svg width="1751pt" height="289pt"
 viewBox="0.00 0.00 1750.75 289.25" xmlns="http://www.w3.org/2000/svg" xmlns:xlink="http://www.w3.org/1999/xlink">
<g id="graph0" class="graph" transform="scale(1 1) rotate(0) translate(4 285.25)">
<title>asn1_pack_size_rec</title>
<!-- Node1 -->
<g id="Node000001" class="node">
<title>Node1</title>
<g id="a_Node000001"><a xlink:title="Compute all field lengths to prepare serialization.">
<polygon fill="#999999" stroke="#666666" points="104.5,-225.25 0,-225.25 0,-206 104.5,-206 104.5,-225.25"/>
<text text-anchor="middle" x="52.25" y="-211.75" font-family="Helvetica,sans-Serif" font-size="10.00">asn1_pack_size_rec</text>
</a>
</g>
</g>
<!-- Node2 -->
<g id="Node000002" class="node">
<title>Node2</title>
<g id="a_Node000002"><a xlink:href="../../d6/d42/writer_8c.html#a3cde22cff22f3cdf8b70e8e48b625341" target="_top" xlink:title=" ">
<polygon fill="white" stroke="#666666" points="266.75,-281.25 147.25,-281.25 147.25,-262 266.75,-262 266.75,-281.25"/>
<text text-anchor="middle" x="207" y="-267.75" font-family="Helvetica,sans-Serif" font-size="10.00">asn1_pack_choice_size</text>
</a>
</g>
</g>
<!-- Node1&#45;&gt;Node2 -->
<g id="edge1_Node000001_Node000002" class="edge">
<title>Node1&#45;&gt;Node2</title>
<g id="a_edge1_Node000001_Node000002"><a xlink:title=" ">
<path fill="none" stroke="#63b8ff" d="M74.07,-225.69C91.54,-233.9 117.29,-245.43 140.5,-253.62 145.19,-255.28 150.12,-256.88 155.07,-258.4"/>
<polygon fill="#63b8ff" stroke="#63b8ff" points="153.85,-261.69 164.43,-261.15 155.83,-254.97 153.85,-261.69"/>
</a>
</g>
</g>
<!-- Node8 -->
<g id="Node000008" class="node">
<title>Node8</title>
<g id="a_Node000008"><a xlink:href="../../d7/df8/log_8c.html#abca342edf91a9b45f7a17ef564fa8a53" target="_top" xlink:title=" ">
<polygon fill="white" stroke="#666666" points="682.25,-169.25 632.5,-169.25 632.5,-150 682.25,-150 682.25,-169.25"/>
<text text-anchor="middle" x="657.38" y="-155.75" font-family="Helvetica,sans-Serif" font-size="10.00">e_panic</text>
</a>
</g>
</g>
<!-- Node1&#45;&gt;Node8 -->
<g id="edge39_Node000001_Node000008" class="edge">
<title>Node1&#45;&gt;Node8</title>
<g id="a_edge39_Node000001_Node000008"><a xlink:title=" ">
<path fill="none" stroke="#63b8ff" d="M104.83,-206.67C116.53,-204.82 128.92,-203.02 140.5,-201.62 320.33,-179.91 536.83,-166.35 620.74,-161.57"/>
<polygon fill="#63b8ff" stroke="#63b8ff" points="620.84,-165.07 630.62,-161.01 620.44,-158.08 620.84,-165.07"/>
</a>
</g>
</g>
<!-- Node32 -->
<g id="Node000032" class="node">
<title>Node32</title>
<g id="a_Node000032"><a xlink:href="../../d6/d42/writer_8c.html#a1f85b74ba9ce43f6e8f8d0ab9bf48fcc" target="_top" xlink:title=" ">
<polygon fill="white" stroke="#666666" points="273.5,-244.25 140.5,-244.25 140.5,-225 273.5,-225 273.5,-244.25"/>
<text text-anchor="middle" x="207" y="-230.75" font-family="Helvetica,sans-Serif" font-size="10.00">asn1_pack_sequence_size</text>
</a>
</g>
</g>
<!-- Node1&#45;&gt;Node32 -->
<g id="edge37_Node000001_Node000032" class="edge">
<title>Node1&#45;&gt;Node32</title>
<g id="a_edge37_Node000001_Node000032"><a xlink:title=" ">
<path fill="none" stroke="#63b8ff" d="M104.96,-222.06C112.67,-223.02 120.75,-224.02 128.85,-225.03"/>
<polygon fill="#63b8ff" stroke="#63b8ff" points="128.4,-228.5 138.76,-226.26 129.26,-221.55 128.4,-228.5"/>
</a>
</g>
</g>
<!-- Node3 -->
<g id="Node000003" class="node">
<title>Node3</title>
<g id="a_Node000003"><a xlink:href="../../d6/d42/writer_8c.html#a54a0b28835cc6974b48550516ea81be5" target="_top" xlink:title=" ">
<polygon fill="white" stroke="#666666" points="404.62,-281.25 322.62,-281.25 322.62,-262 404.62,-262 404.62,-281.25"/>
<text text-anchor="middle" x="363.62" y="-267.75" font-family="Helvetica,sans-Serif" font-size="10.00">__asn1_get_int</text>
</a>
</g>
</g>
<!-- Node2&#45;&gt;Node3 -->
<g id="edge2_Node000002_Node000003" class="edge">
<title>Node2&#45;&gt;Node3</title>
<g id="a_edge2_Node000002_Node000003"><a xlink:title=" ">
<path fill="none" stroke="#63b8ff" d="M266.9,-271.62C281.58,-271.62 297.2,-271.62 311.47,-271.62"/>
<polygon fill="#63b8ff" stroke="#63b8ff" points="311.07,-275.13 321.07,-271.63 311.07,-268.13 311.07,-275.13"/>
</a>
</g>
</g>
<!-- Node4 -->
<g id="Node000004" class="node">
<title>Node4</title>
<g id="a_Node000004"><a xlink:href="../../d6/d42/writer_8c.html#a4e43dd8fe25ac5fb3a3ba3d3fb10f2ef" target="_top" xlink:title=" ">
<polygon fill="white" stroke="#666666" points="417.75,-244.25 309.5,-244.25 309.5,-225 417.75,-225 417.75,-244.25"/>
<text text-anchor="middle" x="363.62" y="-230.75" font-family="Helvetica,sans-Serif" font-size="10.00">asn1_pack_field_size</text>
</a>
</g>
</g>
<!-- Node2&#45;&gt;Node4 -->
<g id="edge3_Node000002_Node000004" class="edge">
<title>Node2&#45;&gt;Node4</title>
<g id="a_edge3_Node000002_Node000004"><a xlink:title=" ">
<path fill="none" stroke="#63b8ff" d="M250.25,-261.51C268.49,-257.15 290.03,-252 309.35,-247.37"/>
<polygon fill="#63b8ff" stroke="#63b8ff" points="310.04,-250.81 318.95,-245.08 308.41,-244 310.04,-250.81"/>
</a>
</g>
</g>
<!-- Node5 -->
<g id="Node000005" class="node">
<title>Node5</title>
<g id="a_Node000005"><a xlink:href="../../d6/d42/writer_8c.html#a5d373ebdd5dd1e48a5975c694e7dda52" target="_top" xlink:title=" ">
<polygon fill="white" stroke="#666666" points="550,-244.25 471.75,-244.25 471.75,-225 550,-225 550,-244.25"/>
<text text-anchor="middle" x="510.88" y="-230.75" font-family="Helvetica,sans-Serif" font-size="10.00">asn1_opt_field</text>
</a>
</g>
</g>
<!-- Node4&#45;&gt;Node5 -->
<g id="edge4_Node000004_Node000005" class="edge">
<title>Node4&#45;&gt;Node5</title>
<g id="a_edge4_Node000004_Node000005"><a xlink:title=" ">
<path fill="none" stroke="#63b8ff" d="M417.89,-234.62C431.8,-234.62 446.74,-234.62 460.45,-234.62"/>
<polygon fill="#63b8ff" stroke="#63b8ff" points="460.11,-238.13 470.11,-234.63 460.11,-231.13 460.11,-238.13"/>
</a>
</g>
</g>
<!-- Node6 -->
<g id="Node000006" class="node">
<title>Node6</title>
<g id="a_Node000006"><a xlink:href="../../d6/d42/writer_8c.html#ab4616b63f9be2d51c6ea6effb6009dbf" target="_top" xlink:title=" ">
<polygon fill="white" stroke="#666666" points="568,-206.25 453.75,-206.25 453.75,-187 568,-187 568,-206.25"/>
<text text-anchor="middle" x="510.88" y="-192.75" font-family="Helvetica,sans-Serif" font-size="10.00">asn1_pack_value_size</text>
</a>
</g>
</g>
<!-- Node4&#45;&gt;Node6 -->
<g id="edge5_Node000004_Node000006" class="edge">
<title>Node4&#45;&gt;Node6</title>
<g id="a_edge5_Node000004_Node000006"><a xlink:title=" ">
<path fill="none" stroke="#63b8ff" d="M403.17,-224.54C420.72,-219.95 441.71,-214.46 460.41,-209.57"/>
<polygon fill="#63b8ff" stroke="#63b8ff" points="461.15,-212.99 469.94,-207.07 459.38,-206.22 461.15,-212.99"/>
</a>
</g>
</g>
<!-- Node6&#45;&gt;Node1 -->
<g id="edge7_Node000006_Node000001" class="edge">
<title>Node6&#45;&gt;Node1</title>
<g id="a_edge7_Node000006_Node000001"><a xlink:title=" ">
<path fill="none" stroke="#63b8ff" d="M453.59,-198.97C367.94,-202.53 205.44,-209.29 116.06,-213.01"/>
<polygon fill="#63b8ff" stroke="#63b8ff" points="116.1,-209.51 106.26,-213.42 116.39,-216.5 116.1,-209.51"/>
</a>
</g>
</g>
<!-- Node7 -->
<g id="Node000007" class="node">
<title>Node7</title>
<g id="a_Node000007"><a xlink:href="../../d6/d42/writer_8c.html#a3c52444bf657aca347ceb5b9c1882633" target="_top" xlink:title=" ">
<polygon fill="white" stroke="#666666" points="710.75,-206.25 604,-206.25 604,-187 710.75,-187 710.75,-206.25"/>
<text text-anchor="middle" x="657.38" y="-192.75" font-family="Helvetica,sans-Serif" font-size="10.00">asn1_field_is_tagged</text>
</a>
</g>
</g>
<!-- Node6&#45;&gt;Node7 -->
<g id="edge6_Node000006_Node000007" class="edge">
<title>Node6&#45;&gt;Node7</title>
<g id="a_edge6_Node000006_Node000007"><a xlink:title=" ">
<path fill="none" stroke="#63b8ff" d="M568.16,-196.62C576.13,-196.62 584.37,-196.62 592.47,-196.62"/>
<polygon fill="#63b8ff" stroke="#63b8ff" points="592.28,-200.13 602.28,-196.63 592.28,-193.13 592.28,-200.13"/>
</a>
</g>
</g>
<!-- Node6&#45;&gt;Node8 -->
<g id="edge8_Node000006_Node000008" class="edge">
<title>Node6&#45;&gt;Node8</title>
<g id="a_edge8_Node000006_Node000008"><a xlink:title=" ">
<path fill="none" stroke="#63b8ff" d="M551.36,-186.51C573.22,-180.92 600.15,-174.02 621.27,-168.61"/>
<polygon fill="#63b8ff" stroke="#63b8ff" points="622.05,-172.03 630.87,-166.16 620.31,-165.25 622.05,-172.03"/>
</a>
</g>
</g>
<!-- Node9 -->
<g id="Node000009" class="node">
<title>Node9</title>
<g id="a_Node000009"><a xlink:href="../../d7/df8/log_8c.html#a4bc04f7baa1e064cb0b93c7b9f3a61a1" target="_top" xlink:title=" ">
<polygon fill="white" stroke="#666666" points="834.75,-132.25 746.75,-132.25 746.75,-113 834.75,-113 834.75,-132.25"/>
<text text-anchor="middle" x="790.75" y="-118.75" font-family="Helvetica,sans-Serif" font-size="10.00">__logger_refresh</text>
</a>
</g>
</g>
<!-- Node8&#45;&gt;Node9 -->
<g id="edge9_Node000008_Node000009" class="edge">
<title>Node8&#45;&gt;Node9</title>
<g id="a_edge9_Node000008_Node000009"><a xlink:title=" ">
<path fill="none" stroke="#63b8ff" d="M682.47,-152.84C699.35,-148.09 722.44,-141.58 742.88,-135.82"/>
<polygon fill="#63b8ff" stroke="#63b8ff" points="743.78,-139.21 752.45,-133.13 741.88,-132.47 743.78,-139.21"/>
</a>
</g>
</g>
<!-- Node27 -->
<g id="Node000027" class="node">
<title>Node27</title>
<g id="a_Node000027"><a xlink:href="../../d7/df8/log_8c.html#a900490b26df7698aac12f7f7e6517e81" target="_top" xlink:title=" ">
<polygon fill="white" stroke="#666666" points="823.5,-207.25 758,-207.25 758,-188 823.5,-188 823.5,-207.25"/>
<text text-anchor="middle" x="790.75" y="-193.75" font-family="Helvetica,sans-Serif" font-size="10.00">logger_vlog</text>
</a>
</g>
</g>
<!-- Node8&#45;&gt;Node27 -->
<g id="edge31_Node000008_Node000027" class="edge">
<title>Node8&#45;&gt;Node27</title>
<g id="a_edge31_Node000008_Node000027"><a xlink:title=" ">
<path fill="none" stroke="#63b8ff" d="M682.47,-166.59C700.51,-171.81 725.66,-179.09 747.08,-185.28"/>
<polygon fill="#63b8ff" stroke="#63b8ff" points="745.85,-188.57 756.43,-187.99 747.79,-181.85 745.85,-188.57"/>
</a>
</g>
</g>
<!-- Node31 -->
<g id="Node000031" class="node">
<title>Node31</title>
<g id="a_Node000031"><a xlink:href="../../d2/d4d/file_8h.html#a25419a391fdd4ad7954699c58cfeb3b9" target="_top" xlink:title=" ">
<polygon fill="white" stroke="#666666" points="816.38,-95.25 765.12,-95.25 765.12,-76 816.38,-76 816.38,-95.25"/>
<text text-anchor="middle" x="790.75" y="-81.75" font-family="Helvetica,sans-Serif" font-size="10.00">va_start</text>
</a>
</g>
</g>
<!-- Node8&#45;&gt;Node31 -->
<g id="edge36_Node000008_Node000031" class="edge">
<title>Node8&#45;&gt;Node31</title>
<g id="a_edge36_Node000008_Node000031"><a xlink:title=" ">
<path fill="none" stroke="#63b8ff" d="M672.63,-149.54C689.74,-137.68 719.53,-117.82 746.75,-103.62 749.26,-102.32 751.89,-101.03 754.56,-99.78"/>
<polygon fill="#63b8ff" stroke="#63b8ff" points="755.76,-103.08 763.48,-95.82 752.92,-96.68 755.76,-103.08"/>
</a>
</g>
</g>
<!-- Node10 -->
<g id="Node000010" class="node">
<title>Node10</title>
<g id="a_Node000010"><a xlink:href="../../d7/df8/log_8c.html#a3dbd75fb614210f0b114cfd03c9c0a7b" target="_top" xlink:title=" ">
<polygon fill="white" stroke="#666666" points="974.5,-132.25 870.75,-132.25 870.75,-113 974.5,-113 974.5,-132.25"/>
<text text-anchor="middle" x="922.62" y="-118.75" font-family="Helvetica,sans-Serif" font-size="10.00">__logger_do_refresh</text>
</a>
</g>
</g>
<!-- Node9&#45;&gt;Node10 -->
<g id="edge10_Node000009_Node000010" class="edge">
<title>Node9&#45;&gt;Node10</title>
<g id="a_edge10_Node000009_Node000010"><a xlink:title=" ">
<path fill="none" stroke="#63b8ff" d="M835,-122.62C842.72,-122.62 850.91,-122.62 859.04,-122.62"/>
<polygon fill="#63b8ff" stroke="#63b8ff" points="858.95,-126.13 868.95,-122.63 858.95,-119.13 858.95,-126.13"/>
</a>
</g>
</g>
<!-- Node25 -->
<g id="Node000025" class="node">
<title>Node25</title>
<g id="a_Node000025"><a xlink:href="../../d7/df8/log_8c.html#a7b1b02d1986e1247c2f571af4a2c2854" target="_top" xlink:title=" ">
<polygon fill="white" stroke="#666666" points="960.25,-58.25 885,-58.25 885,-39 960.25,-39 960.25,-58.25"/>
<text text-anchor="middle" x="922.62" y="-44.75" font-family="Helvetica,sans-Serif" font-size="10.00">log_spin_lock</text>
</a>
</g>
</g>
<!-- Node9&#45;&gt;Node25 -->
<g id="edge29_Node000009_Node000025" class="edge">
<title>Node9&#45;&gt;Node25</title>
<g id="a_edge29_Node000009_Node000025"><a xlink:title=" ">
<path fill="none" stroke="#63b8ff" d="M820.39,-112.61C825.37,-110.33 830.35,-107.66 834.75,-104.62 853.89,-91.4 851.24,-79.3 870.75,-66.62 872.37,-65.57 874.06,-64.57 875.8,-63.62"/>
<polygon fill="#63b8ff" stroke="#63b8ff" points="877.21,-66.83 884.75,-59.38 874.21,-60.5 877.21,-66.83"/>
</a>
</g>
</g>
<!-- Node26 -->
<g id="Node000026" class="node">
<title>Node26</title>
<g id="a_Node000026"><a xlink:href="../../d1/dc0/group__log.html#ga045020bb4af234632f7761f220131c69" target="_top" xlink:title=" ">
<polygon fill="white" stroke="#666666" points="965.5,-95.25 879.75,-95.25 879.75,-76 965.5,-76 965.5,-95.25"/>
<text text-anchor="middle" x="922.62" y="-81.75" font-family="Helvetica,sans-Serif" font-size="10.00">log_spin_unlock</text>
</a>
</g>
</g>
<!-- Node9&#45;&gt;Node26 -->
<g id="edge30_Node000009_Node000026" class="edge">
<title>Node9&#45;&gt;Node26</title>
<g id="a_edge30_Node000009_Node000026"><a xlink:title=" ">
<path fill="none" stroke="#63b8ff" d="M827.24,-112.51C842.13,-108.27 859.64,-103.28 875.51,-98.76"/>
<polygon fill="#63b8ff" stroke="#63b8ff" points="876.07,-102.24 884.72,-96.14 874.15,-95.51 876.07,-102.24"/>
</a>
</g>
</g>
<!-- Node10&#45;&gt;Node10 -->
<g id="edge11_Node000010_Node000010" class="edge">
<title>Node10&#45;&gt;Node10</title>
<g id="a_edge11_Node000010_Node000010"><a xlink:title=" ">
<path fill="none" stroke="#63b8ff" d="M901.98,-132.54C892.56,-141.15 899.44,-150.25 922.62,-150.25 935.3,-150.25 943.1,-147.53 946.03,-143.65"/>
<polygon fill="#63b8ff" stroke="#63b8ff" points="949.44,-142.87 943.64,-134.01 942.65,-144.56 949.44,-142.87"/>
</a>
</g>
</g>
<!-- Node11 -->
<g id="Node000011" class="node">
<title>Node11</title>
<g id="a_Node000011"><a xlink:href="../../de/d1a/container-dlist_8h.html#a3b6f65860b212e28f2e28e71eb54d54d" target="_top" xlink:title="Add element e at the head of list l (suited for LIFO).">
<polygon fill="white" stroke="#666666" points="1101.5,-56.25 1046.5,-56.25 1046.5,-37 1101.5,-37 1101.5,-56.25"/>
<text text-anchor="middle" x="1074" y="-42.75" font-family="Helvetica,sans-Serif" font-size="10.00">dlist_add</text>
</a>
</g>
</g>
<!-- Node10&#45;&gt;Node11 -->
<g id="edge12_Node000010_Node000011" class="edge">
<title>Node10&#45;&gt;Node11</title>
<g id="a_edge12_Node000010_Node000011"><a xlink:title=" ">
<path fill="none" stroke="#63b8ff" d="M958.18,-112.61C963.82,-110.36 969.46,-107.7 974.5,-104.62 993.28,-93.15 991.87,-82.35 1010.5,-70.62 1018.18,-65.79 1026.98,-61.68 1035.51,-58.29"/>
<polygon fill="#63b8ff" stroke="#63b8ff" points="1036.48,-61.66 1044.65,-54.91 1034.06,-55.1 1036.48,-61.66"/>
</a>
</g>
</g>
<!-- Node13 -->
<g id="Node000013" class="node">
<title>Node13</title>
<g id="a_Node000013"><a xlink:href="../../de/d1a/container-dlist_8h.html#a0a69e401f6ec15966c891e96ad864c77" target="_top" xlink:title="Put a dlist_t element in a safe and detached state.">
<polygon fill="white" stroke="#666666" points="1100,-19.25 1048,-19.25 1048,0 1100,0 1100,-19.25"/>
<text text-anchor="middle" x="1074" y="-5.75" font-family="Helvetica,sans-Serif" font-size="10.00">dlist_init</text>
</a>
</g>
</g>
<!-- Node10&#45;&gt;Node13 -->
<g id="edge14_Node000010_Node000013" class="edge">
<title>Node10&#45;&gt;Node13</title>
<g id="a_edge14_Node000010_Node000013"><a xlink:title=" ">
<path fill="none" stroke="#63b8ff" d="M962.7,-112.53C966.98,-110.38 971.03,-107.77 974.5,-104.62 1002.48,-79.24 981.78,-52.16 1010.5,-27.62 1017.82,-21.37 1027.21,-17.28 1036.47,-14.62"/>
<polygon fill="#63b8ff" stroke="#63b8ff" points="1037.14,-18.05 1046.07,-12.36 1035.54,-11.24 1037.14,-18.05"/>
</a>
</g>
</g>
<!-- Node14 -->
<g id="Node000014" class="node">
<title>Node14</title>
<g id="a_Node000014"><a xlink:href="../../d7/df8/log_8c.html#a4c8fbe8648573312126ce341cf34cba1" target="_top" xlink:title=" ">
<polygon fill="white" stroke="#666666" points="1137.5,-169.25 1010.5,-169.25 1010.5,-150 1137.5,-150 1137.5,-169.25"/>
<text text-anchor="middle" x="1074" y="-155.75" font-family="Helvetica,sans-Serif" font-size="10.00">logger_compute_fullname</text>
</a>
</g>
</g>
<!-- Node10&#45;&gt;Node14 -->
<g id="edge15_Node000010_Node000014" class="edge">
<title>Node10&#45;&gt;Node14</title>
<g id="a_edge15_Node000010_Node000014"><a xlink:title=" ">
<path fill="none" stroke="#63b8ff" d="M964.44,-132.74C981.98,-137.08 1002.68,-142.21 1021.27,-146.81"/>
<polygon fill="#63b8ff" stroke="#63b8ff" points="1020.21,-150.16 1030.76,-149.16 1021.9,-143.36 1020.21,-150.16"/>
</a>
</g>
</g>
<!-- Node17 -->
<g id="Node000017" class="node">
<title>Node17</title>
<g id="a_Node000017"><a xlink:href="../../df/d0a/str-l_8h.html#ad74dae07179370f3c22e3f026157926e" target="_top" xlink:title="wipe a lstr_t (frees memory if needed).">
<polygon fill="white" stroke="#666666" points="1245,-169.25 1190,-169.25 1190,-150 1245,-150 1245,-169.25"/>
<text text-anchor="middle" x="1217.5" y="-155.75" font-family="Helvetica,sans-Serif" font-size="10.00">lstr_wipe</text>
</a>
</g>
</g>
<!-- Node10&#45;&gt;Node17 -->
<g id="edge28_Node000010_Node000017" class="edge">
<title>Node10&#45;&gt;Node17</title>
<g id="a_edge28_Node000010_Node000017"><a xlink:title=" ">
<path fill="none" stroke="#63b8ff" d="M954.2,-112.59C996.46,-100.35 1074.63,-83.6 1137.5,-103.62 1161.11,-111.15 1183.73,-128.57 1198.66,-142"/>
<polygon fill="#63b8ff" stroke="#63b8ff" points="1196.11,-144.41 1205.8,-148.69 1200.9,-139.3 1196.11,-144.41"/>
</a>
</g>
</g>
<!-- Node24 -->
<g id="Node000024" class="node">
<title>Node24</title>
<g id="a_Node000024"><a xlink:href="../../df/d0a/str-l_8h.html#a963c22b229774d4b7c106bae4011cb8e" target="_top" xlink:title="Returns whether \v s1 and \v s2 contents are equal.">
<polygon fill="white" stroke="#666666" points="1103,-132.25 1045,-132.25 1045,-113 1103,-113 1103,-132.25"/>
<text text-anchor="middle" x="1074" y="-118.75" font-family="Helvetica,sans-Serif" font-size="10.00">lstr_equal</text>
</a>
</g>
</g>
<!-- Node10&#45;&gt;Node24 -->
<g id="edge27_Node000010_Node000024" class="edge">
<title>Node10&#45;&gt;Node24</title>
<g id="a_edge27_Node000010_Node000024"><a xlink:title=" ">
<path fill="none" stroke="#63b8ff" d="M974.61,-122.62C993.89,-122.62 1015.51,-122.62 1033.57,-122.62"/>
<polygon fill="#63b8ff" stroke="#63b8ff" points="1033.34,-126.13 1043.34,-122.63 1033.34,-119.13 1033.34,-126.13"/>
</a>
</g>
</g>
<!-- Node12 -->
<g id="Node000012" class="node">
<title>Node12</title>
<g id="a_Node000012"><a xlink:href="../../de/d1a/container-dlist_8h.html#a71e7667ca0e4b896923788c5851afd24" target="_top" xlink:title="Put element e between prev and next.">
<polygon fill="white" stroke="#666666" points="1250.25,-56.25 1184.75,-56.25 1184.75,-37 1250.25,-37 1250.25,-56.25"/>
<text text-anchor="middle" x="1217.5" y="-42.75" font-family="Helvetica,sans-Serif" font-size="10.00">__dlist_add</text>
</a>
</g>
</g>
<!-- Node11&#45;&gt;Node12 -->
<g id="edge13_Node000011_Node000012" class="edge">
<title>Node11&#45;&gt;Node12</title>
<g id="a_edge13_Node000011_Node000012"><a xlink:title=" ">
<path fill="none" stroke="#63b8ff" d="M1101.95,-46.62C1122.05,-46.62 1149.92,-46.62 1173.14,-46.62"/>
<polygon fill="#63b8ff" stroke="#63b8ff" points="1172.94,-50.13 1182.94,-46.63 1172.94,-43.13 1172.94,-50.13"/>
</a>
</g>
</g>
<!-- Node15 -->
<g id="Node000015" class="node">
<title>Node15</title>
<g id="a_Node000015"><a xlink:href="../../df/d0a/str-l_8h.html#a6a200ca09358f19b13a8e297cda34869" target="_top" xlink:title="returns a constant copy of \v s.">
<polygon fill="white" stroke="#666666" points="1245.38,-207.25 1189.62,-207.25 1189.62,-188 1245.38,-188 1245.38,-207.25"/>
<text text-anchor="middle" x="1217.5" y="-193.75" font-family="Helvetica,sans-Serif" font-size="10.00">lstr_dupc</text>
</a>
</g>
</g>
<!-- Node14&#45;&gt;Node15 -->
<g id="edge16_Node000014_Node000015" class="edge">
<title>Node14&#45;&gt;Node15</title>
<g id="a_edge16_Node000014_Node000015"><a xlink:title=" ">
<path fill="none" stroke="#63b8ff" d="M1112.55,-169.71C1132.9,-175.17 1158,-181.91 1178.43,-187.4"/>
<polygon fill="#63b8ff" stroke="#63b8ff" points="1177.52,-190.78 1188.08,-189.99 1179.33,-184.02 1177.52,-190.78"/>
</a>
</g>
</g>
<!-- Node14&#45;&gt;Node17 -->
<g id="edge18_Node000014_Node000017" class="edge">
<title>Node14&#45;&gt;Node17</title>
<g id="a_edge18_Node000014_Node000017"><a xlink:title=" ">
<path fill="none" stroke="#63b8ff" d="M1137.89,-159.62C1151.65,-159.62 1165.81,-159.62 1178.26,-159.62"/>
<polygon fill="#63b8ff" stroke="#63b8ff" points="1178.08,-163.13 1188.08,-159.63 1178.08,-156.13 1178.08,-163.13"/>
</a>
</g>
</g>
<!-- Node16 -->
<g id="Node000016" class="node">
<title>Node16</title>
<g id="a_Node000016"><a xlink:href="../../df/d0a/str-l_8h.html#a3b4dbe9c4cc70340cba0787574dc1c5e" target="_top" xlink:title=" ">
<polygon fill="white" stroke="#666666" points="1575,-207.25 1522.25,-207.25 1522.25,-188 1575,-188 1575,-207.25"/>
<text text-anchor="middle" x="1548.62" y="-193.75" font-family="Helvetica,sans-Serif" font-size="10.00">lstr_init_</text>
</a>
</g>
</g>
<!-- Node15&#45;&gt;Node16 -->
<g id="edge17_Node000015_Node000016" class="edge">
<title>Node15&#45;&gt;Node16</title>
<g id="a_edge17_Node000015_Node000016"><a xlink:title=" ">
<path fill="none" stroke="#63b8ff" d="M1245.71,-197.62C1304.56,-197.62 1443.69,-197.62 1510.53,-197.62"/>
<polygon fill="#63b8ff" stroke="#63b8ff" points="1510.24,-201.13 1520.24,-197.63 1510.24,-194.13 1510.24,-201.13"/>
</a>
</g>
</g>
<!-- Node18 -->
<g id="Node000018" class="node">
<title>Node18</title>
<g id="a_Node000018"><a xlink:href="../../df/d0a/str-l_8h.html#a381cd831ac9616c5bea8213bb679d1ac" target="_top" xlink:title="Wipe a lstr_t (frees memory if needed).">
<polygon fill="white" stroke="#666666" points="1371.25,-169.25 1297.5,-169.25 1297.5,-150 1371.25,-150 1371.25,-169.25"/>
<text text-anchor="middle" x="1334.38" y="-155.75" font-family="Helvetica,sans-Serif" font-size="10.00">mp_lstr_wipe</text>
</a>
</g>
</g>
<!-- Node17&#45;&gt;Node18 -->
<g id="edge19_Node000017_Node000018" class="edge">
<title>Node17&#45;&gt;Node18</title>
<g id="a_edge19_Node000017_Node000018"><a xlink:title=" ">
<path fill="none" stroke="#63b8ff" d="M1245.43,-159.62C1257.45,-159.62 1271.98,-159.62 1285.74,-159.62"/>
<polygon fill="#63b8ff" stroke="#63b8ff" points="1285.53,-163.13 1295.53,-159.63 1285.53,-156.13 1285.53,-163.13"/>
</a>
</g>
</g>
<!-- Node19 -->
<g id="Node000019" class="node">
<title>Node19</title>
<g id="a_Node000019"><a xlink:href="../../de/d04/str-l_8c.html#abe2a3a71f0b4dbc7d37c59d16762b6fb" target="_top" xlink:title="lstr_copy_* helper.">
<polygon fill="white" stroke="#666666" points="1486.25,-169.25 1407.25,-169.25 1407.25,-150 1486.25,-150 1486.25,-169.25"/>
<text text-anchor="middle" x="1446.75" y="-155.75" font-family="Helvetica,sans-Serif" font-size="10.00">mp_lstr_copy_</text>
</a>
</g>
</g>
<!-- Node18&#45;&gt;Node19 -->
<g id="edge20_Node000018_Node000019" class="edge">
<title>Node18&#45;&gt;Node19</title>
<g id="a_edge20_Node000018_Node000019"><a xlink:title=" ">
<path fill="none" stroke="#63b8ff" d="M1371.52,-159.62C1379.21,-159.62 1387.46,-159.62 1395.57,-159.62"/>
<polygon fill="#63b8ff" stroke="#63b8ff" points="1395.35,-163.13 1405.35,-159.63 1395.35,-156.13 1395.35,-163.13"/>
</a>
</g>
</g>
<!-- Node19&#45;&gt;Node16 -->
<g id="edge26_Node000019_Node000016" class="edge">
<title>Node19&#45;&gt;Node16</title>
<g id="a_edge26_Node000019_Node000016"><a xlink:title=" ">
<path fill="none" stroke="#63b8ff" d="M1474.25,-169.71C1485.69,-174.06 1499.26,-179.22 1511.6,-183.92"/>
<polygon fill="#63b8ff" stroke="#63b8ff" points="1510.03,-187.07 1520.62,-187.35 1512.52,-180.52 1510.03,-187.07"/>
</a>
</g>
</g>
<!-- Node20 -->
<g id="Node000020" class="node">
<title>Node20</title>
<g id="a_Node000020"><a xlink:href="../../d9/d9a/mem_8h.html#aebbbd277e2952bdb802104671ba23ba9" target="_top" xlink:title=" ">
<polygon fill="white" stroke="#666666" points="1566,-170.25 1531.25,-170.25 1531.25,-151 1566,-151 1566,-170.25"/>
<text text-anchor="middle" x="1548.62" y="-156.75" font-family="Helvetica,sans-Serif" font-size="10.00">ifree</text>
</a>
</g>
</g>
<!-- Node19&#45;&gt;Node20 -->
<g id="edge21_Node000019_Node000020" class="edge">
<title>Node19&#45;&gt;Node20</title>
<g id="a_edge21_Node000019_Node000020"><a xlink:title=" ">
<path fill="none" stroke="#63b8ff" d="M1486.65,-160.01C1497.55,-160.12 1509.2,-160.24 1519.35,-160.34"/>
<polygon fill="#63b8ff" stroke="#63b8ff" points="1519.31,-163.84 1529.35,-160.44 1519.38,-156.84 1519.31,-163.84"/>
</a>
</g>
</g>
<!-- Node21 -->
<g id="Node000021" class="node">
<title>Node21</title>
<g id="a_Node000021"><a xlink:href="../../d8/d37/mem_8blk.html#a36b65ab346f1d0deed7b63c544c78f2b" target="_top" xlink:title=" ">
<polygon fill="white" stroke="#666666" points="1655.88,-245.25 1619.62,-245.25 1619.62,-226 1655.88,-226 1655.88,-245.25"/>
<text text-anchor="middle" x="1637.75" y="-231.75" font-family="Helvetica,sans-Serif" font-size="10.00">ipool</text>
</a>
</g>
</g>
<!-- Node20&#45;&gt;Node21 -->
<g id="edge22_Node000020_Node000021" class="edge">
<title>Node20&#45;&gt;Node21</title>
<g id="a_edge22_Node000020_Node000021"><a xlink:title=" ">
<path fill="none" stroke="#63b8ff" d="M1564.36,-170.59C1567.91,-173.13 1571.64,-175.9 1575,-178.62 1590.32,-191.05 1606.68,-206.24 1618.71,-217.82"/>
<polygon fill="#63b8ff" stroke="#63b8ff" points="1615.93,-220 1625.54,-224.47 1620.81,-214.98 1615.93,-220"/>
</a>
</g>
</g>
<!-- Node23 -->
<g id="Node000023" class="node">
<title>Node23</title>
<g id="a_Node000023"><a xlink:href="../../d8/d37/mem_8blk.html#a83c7cf203e5eef9d1a8c6c43cde3e2e5" target="_top" xlink:title=" ">
<polygon fill="white" stroke="#666666" points="1664.5,-170.25 1611,-170.25 1611,-151 1664.5,-151 1664.5,-170.25"/>
<text text-anchor="middle" x="1637.75" y="-156.75" font-family="Helvetica,sans-Serif" font-size="10.00">mp_ifree</text>
</a>
</g>
</g>
<!-- Node20&#45;&gt;Node23 -->
<g id="edge25_Node000020_Node000023" class="edge">
<title>Node20&#45;&gt;Node23</title>
<g id="a_edge25_Node000020_Node000023"><a xlink:title=" ">
<path fill="none" stroke="#63b8ff" d="M1566.42,-160.62C1575.84,-160.62 1587.99,-160.62 1599.53,-160.62"/>
<polygon fill="#63b8ff" stroke="#63b8ff" points="1599.23,-164.13 1609.23,-160.63 1599.23,-157.13 1599.23,-164.13"/>
</a>
</g>
</g>
<!-- Node21&#45;&gt;Node8 -->
<g id="edge23_Node000021_Node000008" class="edge">
<title>Node21&#45;&gt;Node8</title>
<g id="a_edge23_Node000021_Node000008"><a xlink:title=" ">
<path fill="none" stroke="#63b8ff" d="M1619.27,-241.56C1586.19,-252.25 1512.01,-273.62 1447.75,-273.62 921.62,-273.62 921.62,-273.62 921.62,-273.62 839.88,-273.62 815.56,-260.75 746.75,-216.62 726.89,-203.89 730.5,-190.52 710.75,-177.62 705.47,-174.18 699.45,-171.31 693.42,-168.96"/>
<polygon fill="#63b8ff" stroke="#63b8ff" points="694.75,-165.72 684.15,-165.76 692.46,-172.33 694.75,-165.72"/>
</a>
</g>
</g>
<!-- Node22 -->
<g id="Node000022" class="node">
<title>Node22</title>
<g id="a_Node000022"><a xlink:href="../../d1/d10/mem-stack_8h.html#a1d0e2a29f86dc033a02e50484b527fd0" target="_top" xlink:title=" ">
<polygon fill="white" stroke="#666666" points="1742.75,-245.25 1700.5,-245.25 1700.5,-226 1742.75,-226 1742.75,-245.25"/>
<text text-anchor="middle" x="1721.62" y="-231.75" font-family="Helvetica,sans-Serif" font-size="10.00">t_pool</text>
</a>
</g>
</g>
<!-- Node21&#45;&gt;Node22 -->
<g id="edge24_Node000021_Node000022" class="edge">
<title>Node21&#45;&gt;Node22</title>
<g id="a_edge24_Node000021_Node000022"><a xlink:title=" ">
<path fill="none" stroke="#63b8ff" d="M1656.11,-235.62C1665.56,-235.62 1677.54,-235.62 1688.61,-235.62"/>
<polygon fill="#63b8ff" stroke="#63b8ff" points="1688.59,-239.13 1698.59,-235.63 1688.59,-232.13 1688.59,-239.13"/>
</a>
</g>
</g>
<!-- Node27&#45;&gt;Node15 -->
<g id="edge35_Node000027_Node000015" class="edge">
<title>Node27&#45;&gt;Node15</title>
<g id="a_edge35_Node000027_Node000015"><a xlink:title=" ">
<path fill="none" stroke="#63b8ff" d="M823.68,-197.62C900.36,-197.62 1094.7,-197.62 1177.83,-197.62"/>
<polygon fill="#63b8ff" stroke="#63b8ff" points="1177.74,-201.13 1187.74,-197.63 1177.74,-194.13 1177.74,-201.13"/>
</a>
</g>
</g>
<!-- Node28 -->
<g id="Node000028" class="node">
<title>Node28</title>
<g id="a_Node000028"><a xlink:href="../../d1/dc0/group__log.html#ga168a6f17b248f61f7d25a17d58d04e36" target="_top" xlink:title=" ">
<polygon fill="white" stroke="#666666" points="967,-245.25 878.25,-245.25 878.25,-226 967,-226 967,-245.25"/>
<text text-anchor="middle" x="922.62" y="-231.75" font-family="Helvetica,sans-Serif" font-size="10.00">logger_has_level</text>
</a>
</g>
</g>
<!-- Node27&#45;&gt;Node28 -->
<g id="edge32_Node000027_Node000028" class="edge">
<title>Node27&#45;&gt;Node28</title>
<g id="a_edge32_Node000027_Node000028"><a xlink:title=" ">
<path fill="none" stroke="#63b8ff" d="M823.85,-207.02C839.63,-211.63 858.91,-217.28 876.17,-222.33"/>
<polygon fill="#63b8ff" stroke="#63b8ff" points="875.13,-225.67 885.71,-225.12 877.09,-218.95 875.13,-225.67"/>
</a>
</g>
</g>
<!-- Node29 -->
<g id="Node000029" class="node">
<title>Node29</title>
<g id="a_Node000029"><a xlink:href="../../d1/dc0/group__log.html#gaf388752b988541da0abeceecdf96e6b3" target="_top" xlink:title=" ">
<polygon fill="white" stroke="#666666" points="1117.25,-245.25 1030.75,-245.25 1030.75,-226 1117.25,-226 1117.25,-245.25"/>
<text text-anchor="middle" x="1074" y="-231.75" font-family="Helvetica,sans-Serif" font-size="10.00">logger_get_level</text>
</a>
</g>
</g>
<!-- Node28&#45;&gt;Node29 -->
<g id="edge33_Node000028_Node000029" class="edge">
<title>Node28&#45;&gt;Node29</title>
<g id="a_edge33_Node000028_Node000029"><a xlink:title=" ">
<path fill="none" stroke="#63b8ff" d="M967.23,-235.62C983.39,-235.62 1001.92,-235.62 1018.9,-235.62"/>
<polygon fill="#63b8ff" stroke="#63b8ff" points="1018.86,-239.13 1028.86,-235.63 1018.86,-232.13 1018.86,-239.13"/>
</a>
</g>
</g>
<!-- Node30 -->
<g id="Node000030" class="node">
<title>Node30</title>
<g id="a_Node000030"><a xlink:href="../../d1/dc0/group__log.html#ga93cbd623096e1704532d15b3eb30e42f" target="_top" xlink:title=" ">
<polygon fill="white" stroke="#666666" points="1261.5,-245.25 1173.5,-245.25 1173.5,-226 1261.5,-226 1261.5,-245.25"/>
<text text-anchor="middle" x="1217.5" y="-231.75" font-family="Helvetica,sans-Serif" font-size="10.00">__logger_refresh</text>
</a>
</g>
</g>
<!-- Node29&#45;&gt;Node30 -->
<g id="edge34_Node000029_Node000030" class="edge">
<title>Node29&#45;&gt;Node30</title>
<g id="a_edge34_Node000029_Node000030"><a xlink:title=" ">
<path fill="none" stroke="#63b8ff" d="M1117.45,-235.62C1131.33,-235.62 1146.94,-235.62 1161.6,-235.62"/>
<polygon fill="#63b8ff" stroke="#63b8ff" points="1161.58,-239.13 1171.58,-235.63 1161.58,-232.13 1161.58,-239.13"/>
</a>
</g>
</g>
<!-- Node32&#45;&gt;Node4 -->
<g id="edge38_Node000032_Node000004" class="edge">
<title>Node32&#45;&gt;Node4</title>
<g id="a_edge38_Node000032_Node000004"><a xlink:title=" ">
<path fill="none" stroke="#63b8ff" d="M273.57,-234.62C281.54,-234.62 289.67,-234.62 297.63,-234.62"/>
<polygon fill="#63b8ff" stroke="#63b8ff" points="297.6,-238.13 307.6,-234.63 297.6,-231.13 297.6,-238.13"/>
</a>
</g>
</g>
</g>
</svg>
