<?xml version="1.0" encoding="UTF-8" standalone="no"?>
<!DOCTYPE svg PUBLIC "-//W3C//DTD SVG 1.1//EN"
 "http://www.w3.org/Graphics/SVG/1.1/DTD/svg11.dtd">
<!-- Generated by graphviz version 9.0.0 (20230911.1827)
 -->
<!-- Title: __iop_deep_copy_class_fields Pages: 1 -->
<svg width="732pt" height="102pt"
 viewBox="0.00 0.00 731.50 102.25" xmlns="http://www.w3.org/2000/svg" xmlns:xlink="http://www.w3.org/1999/xlink">
<g id="graph0" class="graph" transform="scale(1 1) rotate(0) translate(4 98.25)">
<title>__iop_deep_copy_class_fields</title>
<!-- Node1 -->
<g id="Node000001" class="node">
<title>Node1</title>
<g id="a_Node000001"><a xlink:title=" ">
<polygon fill="#999999" stroke="#666666" points="723.5,-61.88 604,-61.88 604,-31.38 723.5,-31.38 723.5,-61.88"/>
<text text-anchor="start" x="612" y="-48.38" font-family="Helvetica,sans-Serif" font-size="10.00">__iop_deep_copy_class</text>
<text text-anchor="middle" x="663.75" y="-37.12" font-family="Helvetica,sans-Serif" font-size="10.00">_fields</text>
</a>
</g>
</g>
<!-- Node2 -->
<g id="Node000002" class="node">
<title>Node2</title>
<g id="a_Node000002"><a xlink:href="../../d0/d2d/iop_8blk.html#a919f5507d74594ffb04c0821ca7d388b" target="_top" xlink:title=" ">
<polygon fill="white" stroke="#666666" points="568,-94.25 448.5,-94.25 448.5,-75 568,-75 568,-94.25"/>
<text text-anchor="middle" x="508.25" y="-80.75" font-family="Helvetica,sans-Serif" font-size="10.00">__iop_deep_copy_class</text>
</a>
</g>
</g>
<!-- Node1&#45;&gt;Node2 -->
<g id="edge1_Node000001_Node000002" class="edge">
<title>Node1&#45;&gt;Node2</title>
<g id="a_edge1_Node000001_Node000002"><a xlink:title=" ">
<path fill="none" stroke="#63b8ff" d="M592.68,-63.97C577.95,-67.62 562.89,-71.35 549.69,-74.61"/>
<polygon fill="#63b8ff" stroke="#63b8ff" points="593.51,-67.37 602.37,-61.57 591.82,-60.58 593.51,-67.37"/>
</a>
</g>
</g>
<!-- Node4 -->
<g id="Node000004" class="node">
<title>Node4</title>
<g id="a_Node000004"><a xlink:href="../../d0/d2d/iop_8blk.html#ac54f0339d082bbf37f36d0dfb168dad6" target="_top" xlink:title=" ">
<polygon fill="white" stroke="#666666" points="285.5,-42.88 175.75,-42.88 175.75,-12.37 285.5,-12.37 285.5,-42.88"/>
<text text-anchor="start" x="183.75" y="-29.38" font-family="Helvetica,sans-Serif" font-size="10.00">__mp_iop_copy_desc</text>
<text text-anchor="middle" x="230.62" y="-18.12" font-family="Helvetica,sans-Serif" font-size="10.00">_flags_sz</text>
</a>
</g>
</g>
<!-- Node1&#45;&gt;Node4 -->
<g id="edge8_Node000001_Node000004" class="edge">
<title>Node1&#45;&gt;Node4</title>
<g id="a_edge8_Node000001_Node000004"><a xlink:title=" ">
<path fill="none" stroke="#63b8ff" d="M592.31,-39.84C542.21,-35.37 473.29,-29.93 412.5,-27.62 369.98,-26.01 321.8,-26.11 285.86,-26.55"/>
<polygon fill="#63b8ff" stroke="#63b8ff" points="591.88,-43.32 602.16,-40.73 592.51,-36.35 591.88,-43.32"/>
</a>
</g>
</g>
<!-- Node3 -->
<g id="Node000003" class="node">
<title>Node3</title>
<g id="a_Node000003"><a xlink:href="../../d0/d2d/iop_8blk.html#a9edd50dbab27a0b05c0e2c8b9660a6ae" target="_top" xlink:title=" ">
<polygon fill="white" stroke="#666666" points="412.5,-56.25 321.5,-56.25 321.5,-37 412.5,-37 412.5,-56.25"/>
<text text-anchor="middle" x="367" y="-42.75" font-family="Helvetica,sans-Serif" font-size="10.00">__iop_deep_copy</text>
</a>
</g>
</g>
<!-- Node2&#45;&gt;Node3 -->
<g id="edge2_Node000002_Node000003" class="edge">
<title>Node2&#45;&gt;Node3</title>
<g id="a_edge2_Node000002_Node000003"><a xlink:title=" ">
<path fill="none" stroke="#63b8ff" d="M459.2,-71.51C441.32,-66.63 421.34,-61.18 404.64,-56.62"/>
<polygon fill="#63b8ff" stroke="#63b8ff" points="458.27,-74.89 468.84,-74.14 460.11,-68.13 458.27,-74.89"/>
</a>
</g>
</g>
<!-- Node3&#45;&gt;Node1 -->
<g id="edge4_Node000003_Node000001" class="edge">
<title>Node3&#45;&gt;Node1</title>
<g id="a_edge4_Node000003_Node000001"><a xlink:title=" ">
<path fill="none" stroke="#63b8ff" d="M424.12,-46.62C475.57,-46.62 551.49,-46.62 603.81,-46.62"/>
<polygon fill="#63b8ff" stroke="#63b8ff" points="424.4,-43.13 414.4,-46.63 424.4,-50.13 424.4,-43.13"/>
</a>
</g>
</g>
<!-- Node3&#45;&gt;Node3 -->
<g id="edge3_Node000003_Node000003" class="edge">
<title>Node3&#45;&gt;Node3</title>
<g id="a_edge3_Node000003_Node000003"><a xlink:title=" ">
<path fill="none" stroke="#63b8ff" d="M391.21,-67.65C388.18,-71.53 380.11,-74.25 367,-74.25 343.03,-74.25 335.91,-65.15 345.65,-56.54"/>
<polygon fill="#63b8ff" stroke="#63b8ff" points="394.61,-66.82 388.73,-58 387.83,-68.56 394.61,-66.82"/>
</a>
</g>
</g>
<!-- Node3&#45;&gt;Node4 -->
<g id="edge5_Node000003_Node000004" class="edge">
<title>Node3&#45;&gt;Node4</title>
<g id="a_edge5_Node000003_Node000004"><a xlink:title=" ">
<path fill="none" stroke="#63b8ff" d="M309.88,-38.69C301.97,-37.57 293.86,-36.42 285.98,-35.31"/>
<polygon fill="#63b8ff" stroke="#63b8ff" points="309.36,-42.15 319.76,-40.09 310.34,-35.22 309.36,-42.15"/>
</a>
</g>
</g>
<!-- Node5 -->
<g id="Node000005" class="node">
<title>Node5</title>
<g id="a_Node000005"><a xlink:href="../../d0/d2d/iop_8blk.html#afab84b0b83a824f1b9f00f3c85b1ab15" target="_top" xlink:title=" ">
<polygon fill="white" stroke="#666666" points="139.75,-56.25 0,-56.25 0,-37 139.75,-37 139.75,-56.25"/>
<text text-anchor="middle" x="69.88" y="-42.75" font-family="Helvetica,sans-Serif" font-size="10.00">mp_iop_copy_desc_flags_sz</text>
</a>
</g>
</g>
<!-- Node4&#45;&gt;Node5 -->
<g id="edge6_Node000004_Node000005" class="edge">
<title>Node4&#45;&gt;Node5</title>
<g id="a_edge6_Node000004_Node000005"><a xlink:title=" ">
<path fill="none" stroke="#63b8ff" d="M164.27,-35.45C156.26,-36.41 148.05,-37.39 139.98,-38.35"/>
<polygon fill="#63b8ff" stroke="#63b8ff" points="164.42,-38.95 173.93,-34.29 163.59,-32 164.42,-38.95"/>
</a>
</g>
</g>
<!-- Node6 -->
<g id="Node000006" class="node">
<title>Node6</title>
<g id="a_Node000006"><a xlink:href="../../d0/d2d/iop_8blk.html#a636e03ee5fcc78672a4b171f5de664f4" target="_top" xlink:title=" ">
<polygon fill="white" stroke="#666666" points="137.5,-19.25 2.25,-19.25 2.25,0 137.5,0 137.5,-19.25"/>
<text text-anchor="middle" x="69.88" y="-5.75" font-family="Helvetica,sans-Serif" font-size="10.00">mp_iop_dup_desc_flags_sz</text>
</a>
</g>
</g>
<!-- Node4&#45;&gt;Node6 -->
<g id="edge7_Node000004_Node000006" class="edge">
<title>Node4&#45;&gt;Node6</title>
<g id="a_edge7_Node000004_Node000006"><a xlink:title=" ">
<path fill="none" stroke="#63b8ff" d="M164.15,-20.2C155.43,-19.21 146.48,-18.2 137.74,-17.21"/>
<polygon fill="#63b8ff" stroke="#63b8ff" points="163.6,-23.66 173.93,-21.31 164.39,-16.71 163.6,-23.66"/>
</a>
</g>
</g>
</g>
</svg>
