<?xml version="1.0" encoding="UTF-8" standalone="no"?>
<!DOCTYPE svg PUBLIC "-//W3C//DTD SVG 1.1//EN"
 "http://www.w3.org/Graphics/SVG/1.1/DTD/svg11.dtd">
<!-- Generated by graphviz version 9.0.0 (20230911.1827)
 -->
<!-- Title: __iop_struct_check_backward_compat Pages: 1 -->
<svg width="941pt" height="386pt"
 viewBox="0.00 0.00 941.25 385.88" xmlns="http://www.w3.org/2000/svg" xmlns:xlink="http://www.w3.org/1999/xlink">
<g id="graph0" class="graph" transform="scale(1 1) rotate(0) translate(4 381.88)">
<title>__iop_struct_check_backward_compat</title>
<!-- Node1 -->
<g id="Node000001" class="node">
<title>Node1</title>
<g id="a_Node000001"><a xlink:title=" ">
<polygon fill="#999999" stroke="#666666" points="100.75,-222.88 0,-222.88 0,-192.38 100.75,-192.38 100.75,-222.88"/>
<text text-anchor="start" x="8" y="-209.38" font-family="Helvetica,sans-Serif" font-size="10.00">__iop_struct_check</text>
<text text-anchor="middle" x="50.38" y="-198.12" font-family="Helvetica,sans-Serif" font-size="10.00">_backward_compat</text>
</a>
</g>
</g>
<!-- Node2 -->
<g id="Node000002" class="node">
<title>Node2</title>
<g id="a_Node000002"><a xlink:href="../../d0/d2d/iop_8blk.html#ac64e49d54a2633322c4a9319c5c4d4e0" target="_top" xlink:title=" ">
<polygon fill="white" stroke="#666666" points="263.38,-369.25 137.12,-369.25 137.12,-350 263.38,-350 263.38,-369.25"/>
<text text-anchor="middle" x="200.25" y="-355.75" font-family="Helvetica,sans-Serif" font-size="10.00">__iop_field_find_by_name</text>
</a>
</g>
</g>
<!-- Node1&#45;&gt;Node2 -->
<g id="edge1_Node000001_Node000002" class="edge">
<title>Node1&#45;&gt;Node2</title>
<g id="a_edge1_Node000001_Node000002"><a xlink:title=" ">
<path fill="none" stroke="#63b8ff" d="M58.3,-223.34C70.56,-249.55 98.48,-302.37 136.75,-333.62 142.19,-338.06 148.49,-341.85 154.95,-345.04"/>
<polygon fill="#63b8ff" stroke="#63b8ff" points="153.21,-348.09 163.77,-348.96 156.05,-341.7 153.21,-348.09"/>
</a>
</g>
</g>
<!-- Node4 -->
<g id="Node000004" class="node">
<title>Node4</title>
<g id="a_Node000004"><a xlink:href="../../df/d0a/str-l_8h.html#a963c22b229774d4b7c106bae4011cb8e" target="_top" xlink:title="Returns whether \v s1 and \v s2 contents are equal.">
<polygon fill="white" stroke="#666666" points="545.12,-329.25 487.12,-329.25 487.12,-310 545.12,-310 545.12,-329.25"/>
<text text-anchor="middle" x="516.12" y="-315.75" font-family="Helvetica,sans-Serif" font-size="10.00">lstr_equal</text>
</a>
</g>
</g>
<!-- Node1&#45;&gt;Node4 -->
<g id="edge22_Node000001_Node000004" class="edge">
<title>Node1&#45;&gt;Node4</title>
<g id="a_edge22_Node000001_Node000004"><a xlink:title=" ">
<path fill="none" stroke="#63b8ff" d="M74.82,-223.28C91.52,-233.88 114.8,-247.54 136.75,-256.62 253.38,-304.89 404.72,-316.22 475.44,-318.85"/>
<polygon fill="#63b8ff" stroke="#63b8ff" points="475.26,-322.35 485.37,-319.17 475.49,-315.35 475.26,-322.35"/>
</a>
</g>
</g>
<!-- Node5 -->
<g id="Node000005" class="node">
<title>Node5</title>
<g id="a_Node000005"><a xlink:href="../../d0/d2d/iop_8blk.html#abb23c16281a8e847e29286beb1574a03" target="_top" xlink:title=" ">
<polygon fill="white" stroke="#666666" points="257,-217.25 143.5,-217.25 143.5,-198 257,-198 257,-217.25"/>
<text text-anchor="middle" x="200.25" y="-203.75" font-family="Helvetica,sans-Serif" font-size="10.00">check_parent_classes</text>
</a>
</g>
</g>
<!-- Node1&#45;&gt;Node5 -->
<g id="edge4_Node000001_Node000005" class="edge">
<title>Node1&#45;&gt;Node5</title>
<g id="a_edge4_Node000001_Node000005"><a xlink:title=" ">
<path fill="none" stroke="#63b8ff" d="M101.03,-207.62C110.84,-207.62 121.3,-207.62 131.59,-207.62"/>
<polygon fill="#63b8ff" stroke="#63b8ff" points="131.59,-211.13 141.59,-207.63 131.59,-204.13 131.59,-211.13"/>
</a>
</g>
</g>
<!-- Node14 -->
<g id="Node000014" class="node">
<title>Node14</title>
<g id="a_Node000014"><a xlink:href="../../d3/d40/iop_8h.html#a07f21da2d3381b98dd6f6bbd642d2130" target="_top" xlink:title=" ">
<polygon fill="white" stroke="#666666" points="713,-114.25 613,-114.25 613,-95 713,-95 713,-114.25"/>
<text text-anchor="middle" x="663" y="-100.75" font-family="Helvetica,sans-Serif" font-size="10.00">iop_struct_is_class</text>
</a>
</g>
</g>
<!-- Node1&#45;&gt;Node14 -->
<g id="edge21_Node000001_Node000014" class="edge">
<title>Node1&#45;&gt;Node14</title>
<g id="a_edge21_Node000001_Node000014"><a xlink:title=" ">
<path fill="none" stroke="#63b8ff" d="M78.53,-191.99C123.01,-167.39 214.96,-120.66 299.75,-103.62 404.22,-82.64 529.09,-89.87 601.59,-97.16"/>
<polygon fill="#63b8ff" stroke="#63b8ff" points="600.95,-100.61 611.26,-98.17 601.68,-93.65 600.95,-100.61"/>
</a>
</g>
</g>
<!-- Node17 -->
<g id="Node000017" class="node">
<title>Node17</title>
<g id="a_Node000017"><a xlink:href="../../d0/d2d/iop_8blk.html#a248860ba265d5e02c00cfce35f1ceff8" target="_top" xlink:title=" ">
<polygon fill="white" stroke="#666666" points="263.75,-56.25 136.75,-56.25 136.75,-37 263.75,-37 263.75,-56.25"/>
<text text-anchor="middle" x="200.25" y="-42.75" font-family="Helvetica,sans-Serif" font-size="10.00">iop_compat_mark_couple</text>
</a>
</g>
</g>
<!-- Node1&#45;&gt;Node17 -->
<g id="edge19_Node000001_Node000017" class="edge">
<title>Node1&#45;&gt;Node17</title>
<g id="a_edge19_Node000001_Node000017"><a xlink:title=" ">
<path fill="none" stroke="#63b8ff" d="M57.11,-192.2C68.26,-164.19 95.47,-104.7 136.75,-70.62 141.12,-67.02 146.09,-63.91 151.28,-61.25"/>
<polygon fill="#63b8ff" stroke="#63b8ff" points="152.37,-64.6 160.04,-57.29 149.48,-58.22 152.37,-64.6"/>
</a>
</g>
</g>
<!-- Node18 -->
<g id="Node000018" class="node">
<title>Node18</title>
<g id="a_Node000018"><a xlink:href="../../d0/d2d/iop_8blk.html#ae640c08daaf70b2129efad275ade0e17" target="_top" xlink:title=" ">
<polygon fill="white" stroke="#666666" points="249.12,-19.25 151.38,-19.25 151.38,0 249.12,0 249.12,-19.25"/>
<text text-anchor="middle" x="200.25" y="-5.75" font-family="Helvetica,sans-Serif" font-size="10.00">iop_ranges_search</text>
</a>
</g>
</g>
<!-- Node1&#45;&gt;Node18 -->
<g id="edge20_Node000001_Node000018" class="edge">
<title>Node1&#45;&gt;Node18</title>
<g id="a_edge20_Node000001_Node000018"><a xlink:title=" ">
<path fill="none" stroke="#63b8ff" d="M54.28,-191.98C61.58,-157.08 84.03,-72.41 136.75,-27.62 138.2,-26.39 139.73,-25.25 141.32,-24.18"/>
<polygon fill="#63b8ff" stroke="#63b8ff" points="142.59,-27.47 149.69,-19.6 139.23,-21.33 142.59,-27.47"/>
</a>
</g>
</g>
<!-- Node3 -->
<g id="Node000003" class="node">
<title>Node3</title>
<g id="a_Node000003"><a xlink:href="../../d0/d2d/iop_8blk.html#ac9260c8379c8b94dad5e4453fdceef8d" target="_top" xlink:title=" ">
<polygon fill="white" stroke="#666666" points="408,-377.88 311,-377.88 311,-347.38 408,-347.38 408,-377.88"/>
<text text-anchor="start" x="319" y="-364.38" font-family="Helvetica,sans-Serif" font-size="10.00">__iop_field_find_by</text>
<text text-anchor="middle" x="359.5" y="-353.12" font-family="Helvetica,sans-Serif" font-size="10.00">_name2</text>
</a>
</g>
</g>
<!-- Node2&#45;&gt;Node3 -->
<g id="edge2_Node000002_Node000003" class="edge">
<title>Node2&#45;&gt;Node3</title>
<g id="a_edge2_Node000002_Node000003"><a xlink:title=" ">
<path fill="none" stroke="#63b8ff" d="M263.85,-360.82C275.54,-361.04 287.73,-361.27 299.31,-361.5"/>
<polygon fill="#63b8ff" stroke="#63b8ff" points="299.08,-364.99 309.14,-361.68 299.21,-357.99 299.08,-364.99"/>
</a>
</g>
</g>
<!-- Node3&#45;&gt;Node4 -->
<g id="edge3_Node000003_Node000004" class="edge">
<title>Node3&#45;&gt;Node4</title>
<g id="a_edge3_Node000003_Node000004"><a xlink:title=" ">
<path fill="none" stroke="#63b8ff" d="M408.15,-349.37C429.87,-343.33 455.26,-336.27 475.85,-330.55"/>
<polygon fill="#63b8ff" stroke="#63b8ff" points="476.59,-333.97 485.29,-327.92 474.72,-327.23 476.59,-333.97"/>
</a>
</g>
</g>
<!-- Node6 -->
<g id="Node000006" class="node">
<title>Node6</title>
<g id="a_Node000006"><a xlink:href="../../d0/d2d/iop_8blk.html#a8af9194e6f4f9b3328a59d785c25541d" target="_top" xlink:title=" ">
<polygon fill="white" stroke="#666666" points="416.25,-217.25 302.75,-217.25 302.75,-198 416.25,-198 416.25,-217.25"/>
<text text-anchor="middle" x="359.5" y="-203.75" font-family="Helvetica,sans-Serif" font-size="10.00">are_all_parents_empty</text>
</a>
</g>
</g>
<!-- Node5&#45;&gt;Node6 -->
<g id="edge5_Node000005_Node000006" class="edge">
<title>Node5&#45;&gt;Node6</title>
<g id="a_edge5_Node000005_Node000006"><a xlink:title=" ">
<path fill="none" stroke="#63b8ff" d="M257.13,-207.62C268.12,-207.62 279.76,-207.62 291.09,-207.62"/>
<polygon fill="#63b8ff" stroke="#63b8ff" points="290.75,-211.13 300.75,-207.63 290.75,-204.13 290.75,-211.13"/>
</a>
</g>
</g>
<!-- Node7 -->
<g id="Node000007" class="node">
<title>Node7</title>
<g id="a_Node000007"><a xlink:href="../../d0/d2d/iop_8blk.html#a15b9451ae502f817c42a2eb6a0bbd539" target="_top" xlink:title=" ">
<polygon fill="white" stroke="#666666" points="411,-291.25 308,-291.25 308,-272 411,-272 411,-291.25"/>
<text text-anchor="middle" x="359.5" y="-277.75" font-family="Helvetica,sans-Serif" font-size="10.00">check_class_parent</text>
</a>
</g>
</g>
<!-- Node5&#45;&gt;Node7 -->
<g id="edge6_Node000005_Node000007" class="edge">
<title>Node5&#45;&gt;Node7</title>
<g id="a_edge6_Node000005_Node000007"><a xlink:title=" ">
<path fill="none" stroke="#63b8ff" d="M216.4,-217.64C235.29,-229.79 268.86,-250.31 299.75,-263.62 303.13,-265.08 306.67,-266.47 310.25,-267.79"/>
<polygon fill="#63b8ff" stroke="#63b8ff" points="309.05,-271.08 319.64,-271.02 311.32,-264.46 309.05,-271.08"/>
</a>
</g>
</g>
<!-- Node12 -->
<g id="Node000012" class="node">
<title>Node12</title>
<g id="a_Node000012"><a xlink:href="../../d0/d2d/iop_8blk.html#abdffe822c12349ea64e5a0a41f4821b9" target="_top" xlink:title=" ">
<polygon fill="white" stroke="#666666" points="416.62,-142.88 302.38,-142.88 302.38,-112.38 416.62,-112.38 416.62,-142.88"/>
<text text-anchor="start" x="310.38" y="-129.38" font-family="Helvetica,sans-Serif" font-size="10.00">check_parent_required</text>
<text text-anchor="middle" x="359.5" y="-118.12" font-family="Helvetica,sans-Serif" font-size="10.00">_fields</text>
</a>
</g>
</g>
<!-- Node5&#45;&gt;Node12 -->
<g id="edge12_Node000005_Node000012" class="edge">
<title>Node5&#45;&gt;Node12</title>
<g id="a_edge12_Node000005_Node000012"><a xlink:title=" ">
<path fill="none" stroke="#63b8ff" d="M217.29,-197.65C236.5,-185.91 269.85,-166.16 299.75,-151.62 302.31,-150.38 304.95,-149.15 307.63,-147.93"/>
<polygon fill="#63b8ff" stroke="#63b8ff" points="308.93,-151.18 316.67,-143.95 306.11,-144.77 308.93,-151.18"/>
</a>
</g>
</g>
<!-- Node15 -->
<g id="Node000015" class="node">
<title>Node15</title>
<g id="a_Node000015"><a xlink:href="../../d0/d2d/iop_8blk.html#a86c49ec3822172b6404c3f01f648e35d" target="_top" xlink:title=" ">
<polygon fill="white" stroke="#666666" points="411,-180.25 308,-180.25 308,-161 411,-161 411,-180.25"/>
<text text-anchor="middle" x="359.5" y="-166.75" font-family="Helvetica,sans-Serif" font-size="10.00">get_parents_until_id</text>
</a>
</g>
</g>
<!-- Node5&#45;&gt;Node15 -->
<g id="edge16_Node000005_Node000015" class="edge">
<title>Node5&#45;&gt;Node15</title>
<g id="a_edge16_Node000005_Node000015"><a xlink:title=" ">
<path fill="none" stroke="#63b8ff" d="M244.22,-197.51C262.85,-193.13 284.88,-187.95 304.59,-183.31"/>
<polygon fill="#63b8ff" stroke="#63b8ff" points="305.18,-186.77 314.11,-181.07 303.57,-179.95 305.18,-186.77"/>
</a>
</g>
</g>
<!-- Node16 -->
<g id="Node000016" class="node">
<title>Node16</title>
<g id="a_Node000016"><a xlink:href="../../d0/d2d/iop_8blk.html#a816cd11e22560c92f15dead9c22825a8" target="_top" xlink:title=" ">
<polygon fill="white" stroke="#666666" points="419.25,-254.25 299.75,-254.25 299.75,-235 419.25,-235 419.25,-254.25"/>
<text text-anchor="middle" x="359.5" y="-240.75" font-family="Helvetica,sans-Serif" font-size="10.00">get_parents_until_name</text>
</a>
</g>
</g>
<!-- Node5&#45;&gt;Node16 -->
<g id="edge17_Node000005_Node000016" class="edge">
<title>Node5&#45;&gt;Node16</title>
<g id="a_edge17_Node000005_Node000016"><a xlink:title=" ">
<path fill="none" stroke="#63b8ff" d="M244.22,-217.74C262.85,-222.12 284.88,-227.3 304.59,-231.94"/>
<polygon fill="#63b8ff" stroke="#63b8ff" points="303.57,-235.3 314.11,-234.18 305.18,-228.48 303.57,-235.3"/>
</a>
</g>
</g>
<!-- Node7&#45;&gt;Node1 -->
<g id="edge7_Node000007_Node000001" class="edge">
<title>Node7&#45;&gt;Node1</title>
<g id="a_edge7_Node000007_Node000001"><a xlink:title=" ">
<path fill="none" stroke="#63b8ff" d="M316.78,-271.57C263.94,-258.84 172.52,-236.81 111.99,-222.23"/>
<polygon fill="#63b8ff" stroke="#63b8ff" points="113.07,-218.89 102.53,-219.95 111.43,-225.7 113.07,-218.89"/>
</a>
</g>
</g>
<!-- Node8 -->
<g id="Node000008" class="node">
<title>Node8</title>
<g id="a_Node000008"><a xlink:href="../../d0/d2d/iop_8blk.html#ae0a5beeae48b53203756766395cd02b4" target="_top" xlink:title=" ">
<polygon fill="white" stroke="#666666" points="577,-291.25 455.25,-291.25 455.25,-272 577,-272 577,-291.25"/>
<text text-anchor="middle" x="516.12" y="-277.75" font-family="Helvetica,sans-Serif" font-size="10.00">iop_compat_pop_err_ctx</text>
</a>
</g>
</g>
<!-- Node7&#45;&gt;Node8 -->
<g id="edge8_Node000007_Node000008" class="edge">
<title>Node7&#45;&gt;Node8</title>
<g id="a_edge8_Node000007_Node000008"><a xlink:title=" ">
<path fill="none" stroke="#63b8ff" d="M411.13,-281.62C421.52,-281.62 432.65,-281.62 443.62,-281.62"/>
<polygon fill="#63b8ff" stroke="#63b8ff" points="443.45,-285.13 453.45,-281.63 443.45,-278.13 443.45,-285.13"/>
</a>
</g>
</g>
<!-- Node9 -->
<g id="Node000009" class="node">
<title>Node9</title>
<g id="a_Node000009"><a xlink:href="../../dc/d31/str-buf_8h.html#a8a5e395e8a7be1e4ad896ab4a90ddad6" target="_top" xlink:title=" ">
<polygon fill="white" stroke="#666666" points="686.38,-291.25 639.62,-291.25 639.62,-272 686.38,-272 686.38,-291.25"/>
<text text-anchor="middle" x="663" y="-277.75" font-family="Helvetica,sans-Serif" font-size="10.00">sb_clip</text>
</a>
</g>
</g>
<!-- Node8&#45;&gt;Node9 -->
<g id="edge9_Node000008_Node000009" class="edge">
<title>Node8&#45;&gt;Node9</title>
<g id="a_edge9_Node000008_Node000009"><a xlink:title=" ">
<path fill="none" stroke="#63b8ff" d="M577.31,-281.62C594.61,-281.62 612.86,-281.62 627.98,-281.62"/>
<polygon fill="#63b8ff" stroke="#63b8ff" points="627.84,-285.13 637.84,-281.63 627.84,-278.13 627.84,-285.13"/>
</a>
</g>
</g>
<!-- Node10 -->
<g id="Node000010" class="node">
<title>Node10</title>
<g id="a_Node000010"><a xlink:href="../../dc/d31/str-buf_8h.html#a5019d1298a6a5b4f8ae0b645bb8bc627" target="_top" xlink:title=" ">
<polygon fill="white" stroke="#666666" points="813,-291.25 749,-291.25 749,-272 813,-272 813,-291.25"/>
<text text-anchor="middle" x="781" y="-277.75" font-family="Helvetica,sans-Serif" font-size="10.00">__sb_fixlen</text>
</a>
</g>
</g>
<!-- Node9&#45;&gt;Node10 -->
<g id="edge10_Node000009_Node000010" class="edge">
<title>Node9&#45;&gt;Node10</title>
<g id="a_edge10_Node000009_Node000010"><a xlink:title=" ">
<path fill="none" stroke="#63b8ff" d="M686.64,-281.62C701,-281.62 720.03,-281.62 737.16,-281.62"/>
<polygon fill="#63b8ff" stroke="#63b8ff" points="737.13,-285.13 747.13,-281.63 737.13,-278.13 737.13,-285.13"/>
</a>
</g>
</g>
<!-- Node11 -->
<g id="Node000011" class="node">
<title>Node11</title>
<g id="a_Node000011"><a xlink:href="../../dc/d31/str-buf_8h.html#a01c1a4f8ed76b6a919595b803c7d7376" target="_top" xlink:title=" ">
<polygon fill="white" stroke="#666666" points="933.25,-291.25 849,-291.25 849,-272 933.25,-272 933.25,-291.25"/>
<text text-anchor="middle" x="891.12" y="-277.75" font-family="Helvetica,sans-Serif" font-size="10.00">sb_set_trailing0</text>
</a>
</g>
</g>
<!-- Node10&#45;&gt;Node11 -->
<g id="edge11_Node000010_Node000011" class="edge">
<title>Node10&#45;&gt;Node11</title>
<g id="a_edge11_Node000010_Node000011"><a xlink:title=" ">
<path fill="none" stroke="#63b8ff" d="M813.27,-281.62C820.91,-281.62 829.28,-281.62 837.61,-281.62"/>
<polygon fill="#63b8ff" stroke="#63b8ff" points="837.34,-285.13 847.34,-281.63 837.34,-278.13 837.34,-285.13"/>
</a>
</g>
</g>
<!-- Node13 -->
<g id="Node000013" class="node">
<title>Node13</title>
<g id="a_Node000013"><a xlink:href="../../d0/d2d/iop_8blk.html#abf144e1e3aeb473d2d62b22137521601" target="_top" xlink:title=" ">
<polygon fill="white" stroke="#666666" points="574,-135.25 458.25,-135.25 458.25,-116 574,-116 574,-135.25"/>
<text text-anchor="middle" x="516.12" y="-121.75" font-family="Helvetica,sans-Serif" font-size="10.00">_iop_struct_is_optional</text>
</a>
</g>
</g>
<!-- Node12&#45;&gt;Node13 -->
<g id="edge13_Node000012_Node000013" class="edge">
<title>Node12&#45;&gt;Node13</title>
<g id="a_edge13_Node000012_Node000013"><a xlink:title=" ">
<path fill="none" stroke="#63b8ff" d="M416.76,-126.9C426.38,-126.77 436.47,-126.64 446.37,-126.51"/>
<polygon fill="#63b8ff" stroke="#63b8ff" points="446.4,-130.01 456.36,-126.39 446.31,-123.01 446.4,-130.01"/>
</a>
</g>
</g>
<!-- Node13&#45;&gt;Node13 -->
<g id="edge14_Node000013_Node000013" class="edge">
<title>Node13&#45;&gt;Node13</title>
<g id="a_edge14_Node000013_Node000013"><a xlink:title=" ">
<path fill="none" stroke="#63b8ff" d="M493.13,-135.54C482.64,-144.15 490.31,-153.25 516.12,-153.25 530.65,-153.25 539.43,-150.37 542.46,-146.32"/>
<polygon fill="#63b8ff" stroke="#63b8ff" points="545.87,-145.5 539.57,-136.98 539.19,-147.57 545.87,-145.5"/>
</a>
</g>
</g>
<!-- Node13&#45;&gt;Node14 -->
<g id="edge15_Node000013_Node000014" class="edge">
<title>Node13&#45;&gt;Node14</title>
<g id="a_edge15_Node000013_Node000014"><a xlink:title=" ">
<path fill="none" stroke="#63b8ff" d="M574.38,-117.33C583.28,-116.04 592.5,-114.7 601.47,-113.4"/>
<polygon fill="#63b8ff" stroke="#63b8ff" points="601.76,-116.89 611.15,-112 600.75,-109.97 601.76,-116.89"/>
</a>
</g>
</g>
<!-- Node16&#45;&gt;Node4 -->
<g id="edge18_Node000016_Node000004" class="edge">
<title>Node16&#45;&gt;Node4</title>
<g id="a_edge18_Node000016_Node000004"><a xlink:title=" ">
<path fill="none" stroke="#63b8ff" d="M402.75,-254.66C408.5,-256.85 414.17,-259.48 419.25,-262.62 439.02,-274.88 435.54,-288.27 455.25,-300.62 461.57,-304.59 468.79,-307.79 475.97,-310.35"/>
<polygon fill="#63b8ff" stroke="#63b8ff" points="474.69,-313.62 485.29,-313.31 476.81,-306.95 474.69,-313.62"/>
</a>
</g>
</g>
</g>
</svg>
