<?xml version="1.0" encoding="UTF-8" standalone="no"?>
<!DOCTYPE svg PUBLIC "-//W3C//DTD SVG 1.1//EN"
 "http://www.w3.org/Graphics/SVG/1.1/DTD/svg11.dtd">
<!-- Generated by graphviz version 9.0.0 (20230911.1827)
 -->
<!-- Title: mp_iop_field_path_init Pages: 1 -->
<!--zoomable 187 -->

<svg id="main" version="1.1" xmlns="http://www.w3.org/2000/svg" xmlns:xlink="http://www.w3.org/1999/xlink" xml:space="preserve" onload="init(evt)">
<style type="text/css"><![CDATA[
.node, .edge {opacity: 0.7;}
.node.selected, .edge.selected {opacity: 1;}
.edge:hover path { stroke: red; }
.edge:hover polygon { stroke: red; fill: red; }
]]></style>

<defs>
  <circle id="rim" cx="0" cy="0" r="7"/>
  <circle id="rim2" cx="0" cy="0" r="3.5"/>
  <g id="zoomPlus">
    <use xlink:href="#rim" fill="#404040"><set attributeName="fill" to="#808080" begin="zoomplus.mouseover" end="zoomplus.mouseout"/></use>
    <path d="M-4,0h8M0,-4v8" fill="none" stroke="white" stroke-width="1.5" pointer-events="none"/>
  </g>
  <g id="zoomMin">
    <use xlink:href="#rim" fill="#404040"><set attributeName="fill" to="#808080" begin="zoomminus.mouseover" end="zoomminus.mouseout"/></use>
    <path d="M-4,0h8" fill="none" stroke="white" stroke-width="1.5" pointer-events="none"/>
  </g>
  <g id="arrowUp" transform="translate(30 24)">
    <use xlink:href="#rim"/>
    <path pointer-events="none" fill="none" stroke="white" stroke-width="1.5" d="M0,-3.0v7 M-2.5,-0.5L0,-3.0L2.5,-0.5"/>
  </g>
  <g id="arrowRight" transform="rotate(90) translate(36 -43)">
    <use xlink:href="#rim"/>
    <path pointer-events="none" fill="none" stroke="white" stroke-width="1.5" d="M0,-3.0v7 M-2.5,-0.5L0,-3.0L2.5,-0.5"/>
  </g>
  <g id="arrowDown" transform="rotate(180) translate(-30 -48)">
    <use xlink:href="#rim"/>
    <path pointer-events="none" fill="none" stroke="white" stroke-width="1.5" d="M0,-3.0v7 M-2.5,-0.5L0,-3.0L2.5,-0.5"/>
  </g>
  <g id="arrowLeft" transform="rotate(270) translate(-36 17)">
    <use xlink:href="#rim"/>
    <path pointer-events="none" fill="none" stroke="white" stroke-width="1.5" d="M0,-3.0v7 M-2.5,-0.5L0,-3.0L2.5,-0.5"/>
  </g>
  <g id="resetDef">
    <use xlink:href="#rim2" fill="#404040"><set attributeName="fill" to="#808080" begin="reset.mouseover" end="reset.mouseout"/></use>
  </g>
</defs>
<script type="application/ecmascript">
var viewWidth = 1204;
var viewHeight = 187;
var sectionId = 'dynsection-350';
</script>
<script type="application/ecmascript" xlink:href="../../svg.min.js"/>
<svg id="graph" class="graph">
<g id="viewport">
<title>mp_iop_field_path_init</title>
<!-- Node1 -->
<g id="Node000001" class="node">
<title>Node1</title>
<g id="a_Node000001"><a xlink:title=" ">
<polygon fill="#999999" stroke="#666666" points="1195.5,-104.88 1083.5,-104.88 1083.5,-85.62 1195.5,-85.62 1195.5,-104.88"/>
<text text-anchor="middle" x="1139.5" y="-91.38" font-family="Helvetica,sans-Serif" font-size="10.00">mp_iop_field_path_init</text>
</a>
</g>
</g>
<!-- Node2 -->
<g id="Node000002" class="node">
<title>Node2</title>
<g id="a_Node000002"><a xlink:href="../../d0/d2d/iop_8blk.html#aa89442cf93dd3a159ab3d7c23c078ac1" target="_top" xlink:title="Build an IOP field path on a specified memory pool.">
<polygon fill="white" stroke="#666666" points="1047.5,-141.88 914.5,-141.88 914.5,-122.62 1047.5,-122.62 1047.5,-141.88"/>
<text text-anchor="middle" x="981" y="-128.38" font-family="Helvetica,sans-Serif" font-size="10.00">mp_iop_field_path_compile</text>
</a>
</g>
</g>
<!-- Node1&#45;&gt;Node2 -->
<g id="edge1_Node000001_Node000002" class="edge">
<title>Node1&#45;&gt;Node2</title>
<g id="a_edge1_Node000001_Node000002"><a xlink:title=" ">
<path fill="none" stroke="#63b8ff" d="M1084.8,-107.95C1065.17,-112.59 1043.25,-117.77 1024.71,-122.15"/>
<polygon fill="#63b8ff" stroke="#63b8ff" points="1085.34,-111.42 1094.26,-105.71 1083.73,-104.6 1085.34,-111.42"/>
</a>
</g>
</g>
<!-- Node5 -->
<g id="Node000005" class="node">
<title>Node5</title>
<g id="a_Node000005"><a xlink:href="../../d0/d2d/iop_8blk.html#a2294f534dbd41dc4bd00d09edcf1b78c" target="_top" xlink:title=" ">
<polygon fill="white" stroke="#666666" points="1031.75,-86.88 930.25,-86.88 930.25,-67.62 1031.75,-67.62 1031.75,-86.88"/>
<text text-anchor="middle" x="981" y="-73.38" font-family="Helvetica,sans-Serif" font-size="10.00">t_iop_field_path_init</text>
</a>
</g>
</g>
<!-- Node1&#45;&gt;Node5 -->
<g id="edge4_Node000001_Node000005" class="edge">
<title>Node1&#45;&gt;Node5</title>
<g id="a_edge4_Node000001_Node000005"><a xlink:title=" ">
<path fill="none" stroke="#63b8ff" d="M1072.23,-87.63C1058.84,-86.09 1044.97,-84.49 1032.24,-83.03"/>
<polygon fill="#63b8ff" stroke="#63b8ff" points="1071.49,-91.07 1081.82,-88.73 1072.29,-84.11 1071.49,-91.07"/>
</a>
</g>
</g>
<!-- Node3 -->
<g id="Node000003" class="node">
<title>Node3</title>
<g id="a_Node000003"><a xlink:href="../../d3/d40/iop_8h.html#a497b536bf8b8390cb9bb53e93311afb7" target="_top" xlink:title="Build an IOP field path on the standard libc allocator.">
<polygon fill="white" stroke="#666666" points="874.38,-178.88 760.12,-178.88 760.12,-159.62 874.38,-159.62 874.38,-178.88"/>
<text text-anchor="middle" x="817.25" y="-165.38" font-family="Helvetica,sans-Serif" font-size="10.00">iop_field_path_compile</text>
</a>
</g>
</g>
<!-- Node2&#45;&gt;Node3 -->
<g id="edge2_Node000002_Node000003" class="edge">
<title>Node2&#45;&gt;Node3</title>
<g id="a_edge2_Node000002_Node000003"><a xlink:title=" ">
<path fill="none" stroke="#63b8ff" d="M924.78,-144.88C904.42,-149.54 881.65,-154.75 862.4,-159.15"/>
<polygon fill="#63b8ff" stroke="#63b8ff" points="925.36,-148.34 934.33,-142.7 923.8,-141.52 925.36,-148.34"/>
</a>
</g>
</g>
<!-- Node4 -->
<g id="Node000004" class="node">
<title>Node4</title>
<g id="a_Node000004"><a xlink:href="../../d3/d40/iop_8h.html#a971bc2b3b910523c8b7cc9e8e622d14d" target="_top" xlink:title="Build an IOP field path on the t_stack.">
<polygon fill="white" stroke="#666666" points="878.5,-141.88 756,-141.88 756,-122.62 878.5,-122.62 878.5,-141.88"/>
<text text-anchor="middle" x="817.25" y="-128.38" font-family="Helvetica,sans-Serif" font-size="10.00">t_iop_field_path_compile</text>
</a>
</g>
</g>
<!-- Node2&#45;&gt;Node4 -->
<g id="edge3_Node000002_Node000004" class="edge">
<title>Node2&#45;&gt;Node4</title>
<g id="a_edge3_Node000002_Node000004"><a xlink:title=" ">
<path fill="none" stroke="#63b8ff" d="M902.85,-132.25C894.76,-132.25 886.63,-132.25 878.77,-132.25"/>
<polygon fill="#63b8ff" stroke="#63b8ff" points="902.7,-135.75 912.7,-132.25 902.7,-128.75 902.7,-135.75"/>
</a>
</g>
</g>
<!-- Node6 -->
<g id="Node000006" class="node">
<title>Node6</title>
<g id="a_Node000006"><a xlink:href="../../d0/d2d/iop_8blk.html#a0f28a8d736ba51afe0e043c16793bfd1" target="_top" xlink:title=" ">
<polygon fill="white" stroke="#666666" points="852.62,-104.88 781.88,-104.88 781.88,-85.62 852.62,-85.62 852.62,-104.88"/>
<text text-anchor="middle" x="817.25" y="-91.38" font-family="Helvetica,sans-Serif" font-size="10.00">__t_iop_filter</text>
</a>
</g>
</g>
<!-- Node5&#45;&gt;Node6 -->
<g id="edge5_Node000005_Node000006" class="edge">
<title>Node5&#45;&gt;Node6</title>
<g id="a_edge5_Node000005_Node000006"><a xlink:title=" ">
<path fill="none" stroke="#63b8ff" d="M918.76,-84.06C896.54,-86.54 872.22,-89.24 853.07,-91.38"/>
<polygon fill="#63b8ff" stroke="#63b8ff" points="919.09,-87.55 928.65,-82.96 918.32,-80.59 919.09,-87.55"/>
</a>
</g>
</g>
<!-- Node11 -->
<g id="Node000011" class="node">
<title>Node11</title>
<g id="a_Node000011"><a xlink:href="../../d0/d2d/iop_8blk.html#a4458976366c9e0f77cc34390986c3c0d" target="_top" xlink:title=" ">
<polygon fill="white" stroke="#666666" points="859.75,-67.88 774.75,-67.88 774.75,-48.62 859.75,-48.62 859.75,-67.88"/>
<text text-anchor="middle" x="817.25" y="-54.38" font-family="Helvetica,sans-Serif" font-size="10.00">iop_msort_desc</text>
</a>
</g>
</g>
<!-- Node5&#45;&gt;Node11 -->
<g id="edge10_Node000005_Node000011" class="edge">
<title>Node5&#45;&gt;Node11</title>
<g id="a_edge10_Node000005_Node000011"><a xlink:title=" ">
<path fill="none" stroke="#63b8ff" d="M918.83,-70.06C899.21,-67.76 877.95,-65.26 860.04,-63.16"/>
<polygon fill="#63b8ff" stroke="#63b8ff" points="918.31,-73.53 928.65,-71.22 919.12,-66.57 918.31,-73.53"/>
</a>
</g>
</g>
<!-- Node13 -->
<g id="Node000013" class="node">
<title>Node13</title>
<g id="a_Node000013"><a xlink:href="../../d0/d2d/iop_8blk.html#a228ce22eee55e45252c945b13f1a4dfd" target="_top" xlink:title="Get the type of a field for a given IOP object.">
<polygon fill="white" stroke="#666666" points="872.88,-27.88 761.62,-27.88 761.62,-8.62 872.88,-8.62 872.88,-27.88"/>
<text text-anchor="middle" x="817.25" y="-14.38" font-family="Helvetica,sans-Serif" font-size="10.00">iop_obj_get_field_type</text>
</a>
</g>
</g>
<!-- Node5&#45;&gt;Node13 -->
<g id="edge12_Node000005_Node000013" class="edge">
<title>Node5&#45;&gt;Node13</title>
<g id="a_edge12_Node000005_Node000013"><a xlink:title=" ">
<path fill="none" stroke="#63b8ff" d="M943.05,-63.19C923.84,-55.93 899.95,-47 878.5,-39.25 868.5,-35.64 857.53,-31.78 847.72,-28.37"/>
<polygon fill="#63b8ff" stroke="#63b8ff" points="941.77,-66.44 952.36,-66.71 944.24,-59.89 941.77,-66.44"/>
</a>
</g>
</g>
<!-- Node7 -->
<g id="Node000007" class="node">
<title>Node7</title>
<g id="a_Node000007"><a xlink:href="../../d0/d2d/iop_8blk.html#aa6b76e4b5bc7384d01a8ce42e8a29d52" target="_top" xlink:title=" ">
<polygon fill="white" stroke="#666666" points="710.62,-141.88 615.88,-141.88 615.88,-122.62 710.62,-122.62 710.62,-141.88"/>
<text text-anchor="middle" x="663.25" y="-128.38" font-family="Helvetica,sans-Serif" font-size="10.00">t_iop_filter_bitmap</text>
</a>
</g>
</g>
<!-- Node6&#45;&gt;Node7 -->
<g id="edge6_Node000006_Node000007" class="edge">
<title>Node6&#45;&gt;Node7</title>
<g id="a_edge6_Node000006_Node000007"><a xlink:title=" ">
<path fill="none" stroke="#63b8ff" d="M770.36,-106.42C749.8,-111.43 725.72,-117.29 705.71,-122.16"/>
<polygon fill="#63b8ff" stroke="#63b8ff" points="771.02,-109.86 779.91,-104.1 769.36,-103.06 771.02,-109.86"/>
</a>
</g>
</g>
<!-- Node9 -->
<g id="Node000009" class="node">
<title>Node9</title>
<g id="a_Node000009"><a xlink:href="../../d0/d2d/iop_8blk.html#a770b375ad4f549e6fc68894ef28a27d8" target="_top" xlink:title=" ">
<polygon fill="white" stroke="#666666" points="720,-104.88 606.5,-104.88 606.5,-85.62 720,-85.62 720,-104.88"/>
<text text-anchor="middle" x="663.25" y="-91.38" font-family="Helvetica,sans-Serif" font-size="10.00">t_iop_filter_opt_bitmap</text>
</a>
</g>
</g>
<!-- Node6&#45;&gt;Node9 -->
<g id="edge8_Node000006_Node000009" class="edge">
<title>Node6&#45;&gt;Node9</title>
<g id="a_edge8_Node000006_Node000009"><a xlink:title=" ">
<path fill="none" stroke="#63b8ff" d="M769.88,-95.25C754.27,-95.25 736.69,-95.25 720.41,-95.25"/>
<polygon fill="#63b8ff" stroke="#63b8ff" points="769.86,-98.75 779.86,-95.25 769.86,-91.75 769.86,-98.75"/>
</a>
</g>
</g>
<!-- Node8 -->
<g id="Node000008" class="node">
<title>Node8</title>
<g id="a_Node000008"><a xlink:href="../../d0/d2d/iop_8blk.html#a6ff8c1041c8e7afd9eb502c2054a0bf3" target="_top" xlink:title=" ">
<polygon fill="white" stroke="#666666" points="543.12,-141.88 491.12,-141.88 491.12,-122.62 543.12,-122.62 543.12,-141.88"/>
<text text-anchor="middle" x="517.12" y="-128.38" font-family="Helvetica,sans-Serif" font-size="10.00">iop_filter</text>
</a>
</g>
</g>
<!-- Node7&#45;&gt;Node8 -->
<g id="edge7_Node000007_Node000008" class="edge">
<title>Node7&#45;&gt;Node8</title>
<g id="a_edge7_Node000007_Node000008"><a xlink:title=" ">
<path fill="none" stroke="#63b8ff" d="M604.23,-132.25C583.03,-132.25 560.15,-132.25 543.3,-132.25"/>
<polygon fill="#63b8ff" stroke="#63b8ff" points="603.94,-135.75 613.94,-132.25 603.94,-128.75 603.94,-135.75"/>
</a>
</g>
</g>
<!-- Node10 -->
<g id="Node000010" class="node">
<title>Node10</title>
<g id="a_Node000010"><a xlink:href="../../d0/d2d/iop_8blk.html#a2884c8e2327706902c3e723580d4e29e" target="_top" xlink:title=" ">
<polygon fill="white" stroke="#666666" points="552.5,-104.88 481.75,-104.88 481.75,-85.62 552.5,-85.62 552.5,-104.88"/>
<text text-anchor="middle" x="517.12" y="-91.38" font-family="Helvetica,sans-Serif" font-size="10.00">iop_filter_opt</text>
</a>
</g>
</g>
<!-- Node9&#45;&gt;Node10 -->
<g id="edge9_Node000009_Node000010" class="edge">
<title>Node9&#45;&gt;Node10</title>
<g id="a_edge9_Node000009_Node000010"><a xlink:title=" ">
<path fill="none" stroke="#63b8ff" d="M595,-95.25C580.35,-95.25 565.42,-95.25 552.68,-95.25"/>
<polygon fill="#63b8ff" stroke="#63b8ff" points="594.6,-98.75 604.6,-95.25 594.6,-91.75 594.6,-98.75"/>
</a>
</g>
</g>
<!-- Node12 -->
<g id="Node000012" class="node">
<title>Node12</title>
<g id="a_Node000012"><a xlink:href="../../d0/d2d/iop_8blk.html#a0d03ebbf035d0f126c3f451bfaf7aa4e" target="_top" xlink:title=" ">
<polygon fill="white" stroke="#666666" points="701.62,-67.88 624.88,-67.88 624.88,-48.62 701.62,-48.62 701.62,-67.88"/>
<text text-anchor="middle" x="663.25" y="-54.38" font-family="Helvetica,sans-Serif" font-size="10.00">iop_sort_desc</text>
</a>
</g>
</g>
<!-- Node11&#45;&gt;Node12 -->
<g id="edge11_Node000011_Node000012" class="edge">
<title>Node11&#45;&gt;Node12</title>
<g id="a_edge11_Node000011_Node000012"><a xlink:title=" ">
<path fill="none" stroke="#63b8ff" d="M763.07,-58.25C742.9,-58.25 720.35,-58.25 701.9,-58.25"/>
<polygon fill="#63b8ff" stroke="#63b8ff" points="762.8,-61.75 772.8,-58.25 762.8,-54.75 762.8,-61.75"/>
</a>
</g>
</g>
<!-- Node14 -->
<g id="Node000014" class="node">
<title>Node14</title>
<g id="a_Node000014"><a xlink:href="../../d1/d3c/yaml_8blk.html#ad9b9c0dc35d821efb842cb2c5e3d2555" target="_top" xlink:title=" ">
<polygon fill="white" stroke="#666666" points="709.5,-30.5 617,-30.5 617,0 709.5,0 709.5,-30.5"/>
<text text-anchor="start" x="625" y="-17" font-family="Helvetica,sans-Serif" font-size="10.00">included_iop_field</text>
<text text-anchor="middle" x="663.25" y="-5.75" font-family="Helvetica,sans-Serif" font-size="10.00">_is_raw</text>
</a>
</g>
</g>
<!-- Node13&#45;&gt;Node14 -->
<g id="edge13_Node000013_Node000014" class="edge">
<title>Node13&#45;&gt;Node14</title>
<g id="a_edge13_Node000013_Node000014"><a xlink:title=" ">
<path fill="none" stroke="#63b8ff" d="M750.03,-16.94C736.36,-16.67 722.27,-16.4 709.55,-16.14"/>
<polygon fill="#63b8ff" stroke="#63b8ff" points="749.79,-20.44 759.86,-17.14 749.93,-13.44 749.79,-20.44"/>
</a>
</g>
</g>
<!-- Node15 -->
<g id="Node000015" class="node">
<title>Node15</title>
<g id="a_Node000015"><a xlink:href="../../d1/d3c/yaml_8blk.html#a0b7bffe1f9bc492e0066c6dad671bc0b" target="_top" xlink:title=" ">
<polygon fill="white" stroke="#666666" points="570.5,-30.5 463.75,-30.5 463.75,0 570.5,0 570.5,-30.5"/>
<text text-anchor="start" x="471.75" y="-17" font-family="Helvetica,sans-Serif" font-size="10.00">t_gen_mapping_from</text>
<text text-anchor="middle" x="517.12" y="-5.75" font-family="Helvetica,sans-Serif" font-size="10.00">_common_inc</text>
</a>
</g>
</g>
<!-- Node14&#45;&gt;Node15 -->
<g id="edge14_Node000014_Node000015" class="edge">
<title>Node14&#45;&gt;Node15</title>
<g id="a_edge14_Node000014_Node000015"><a xlink:title=" ">
<path fill="none" stroke="#63b8ff" d="M605.14,-15.25C593.87,-15.25 582.09,-15.25 570.97,-15.25"/>
<polygon fill="#63b8ff" stroke="#63b8ff" points="605.13,-18.75 615.13,-15.25 605.13,-11.75 605.13,-18.75"/>
</a>
</g>
</g>
<!-- Node15&#45;&gt;Node15 -->
<g id="edge19_Node000015_Node000015" class="edge">
<title>Node15&#45;&gt;Node15</title>
<g id="a_edge19_Node000015_Node000015"><a xlink:title=" ">
<path fill="none" stroke="#63b8ff" d="M541.63,-42.2C537.62,-45.97 529.46,-48.5 517.12,-48.5 494.58,-48.5 485.95,-40.06 491.23,-30.99"/>
<polygon fill="#63b8ff" stroke="#63b8ff" points="545.08,-42.84 542.83,-32.49 538.13,-41.98 545.08,-42.84"/>
</a>
</g>
</g>
<!-- Node16 -->
<g id="Node000016" class="node">
<title>Node16</title>
<g id="a_Node000016"><a xlink:href="../../d1/d3c/yaml_8blk.html#a48806157301869a3d5654424f0685f71" target="_top" xlink:title="Convert JSON subfiles to a YAML document presentation.">
<polygon fill="white" stroke="#666666" points="427.75,-30.5 309,-30.5 309,0 427.75,0 427.75,-30.5"/>
<text text-anchor="start" x="317" y="-17" font-family="Helvetica,sans-Serif" font-size="10.00">t_build_yaml_pres_from</text>
<text text-anchor="middle" x="368.38" y="-5.75" font-family="Helvetica,sans-Serif" font-size="10.00">_json_subfiles</text>
</a>
</g>
</g>
<!-- Node15&#45;&gt;Node16 -->
<g id="edge15_Node000015_Node000016" class="edge">
<title>Node15&#45;&gt;Node16</title>
<g id="a_edge15_Node000015_Node000016"><a xlink:title=" ">
<path fill="none" stroke="#63b8ff" d="M452.31,-15.25C444.25,-15.25 436.03,-15.25 428.05,-15.25"/>
<polygon fill="#63b8ff" stroke="#63b8ff" points="452.05,-18.75 462.05,-15.25 452.05,-11.75 452.05,-18.75"/>
</a>
</g>
</g>
<!-- Node17 -->
<g id="Node000017" class="node">
<title>Node17</title>
<g id="a_Node000017"><a xlink:href="../../d0/db3/yamlfmt_8c.html#a76d7bf42b8fd8e804c9884cfef7b25f1" target="_top" xlink:title=" ">
<polygon fill="white" stroke="#666666" points="273,-24.88 204.5,-24.88 204.5,-5.62 273,-5.62 273,-24.88"/>
<text text-anchor="middle" x="238.75" y="-11.38" font-family="Helvetica,sans-Serif" font-size="10.00">repack_json</text>
</a>
</g>
</g>
<!-- Node16&#45;&gt;Node17 -->
<g id="edge16_Node000016_Node000017" class="edge">
<title>Node16&#45;&gt;Node17</title>
<g id="a_edge16_Node000016_Node000017"><a xlink:title=" ">
<path fill="none" stroke="#63b8ff" d="M297.35,-15.25C288.98,-15.25 280.75,-15.25 273.25,-15.25"/>
<polygon fill="#63b8ff" stroke="#63b8ff" points="297.28,-18.75 307.28,-15.25 297.28,-11.75 297.28,-18.75"/>
</a>
</g>
</g>
<!-- Node18 -->
<g id="Node000018" class="node">
<title>Node18</title>
<g id="a_Node000018"><a xlink:href="../../d0/db3/yamlfmt_8c.html#a319ce4795581b3860dea4b4ab5fee1fd" target="_top" xlink:title=" ">
<polygon fill="white" stroke="#666666" points="168.5,-24.88 73,-24.88 73,-5.62 168.5,-5.62 168.5,-24.88"/>
<text text-anchor="middle" x="120.75" y="-11.38" font-family="Helvetica,sans-Serif" font-size="10.00">parse_and_repack</text>
</a>
</g>
</g>
<!-- Node17&#45;&gt;Node18 -->
<g id="edge17_Node000017_Node000018" class="edge">
<title>Node17&#45;&gt;Node18</title>
<g id="a_edge17_Node000017_Node000018"><a xlink:title=" ">
<path fill="none" stroke="#63b8ff" d="M192.87,-15.25C184.91,-15.25 176.61,-15.25 168.6,-15.25"/>
<polygon fill="#63b8ff" stroke="#63b8ff" points="192.68,-18.75 202.68,-15.25 192.68,-11.75 192.68,-18.75"/>
</a>
</g>
</g>
<!-- Node19 -->
<g id="Node000019" class="node">
<title>Node19</title>
<g id="a_Node000019"><a xlink:href="../../d0/db3/yamlfmt_8c.html#a3c04138a5bfe5d72780bb7e82a18e627" target="_top" xlink:title=" ">
<polygon fill="white" stroke="#666666" points="37,-24.88 0,-24.88 0,-5.62 37,-5.62 37,-24.88"/>
<text text-anchor="middle" x="18.5" y="-11.38" font-family="Helvetica,sans-Serif" font-size="10.00">main</text>
</a>
</g>
</g>
<!-- Node18&#45;&gt;Node19 -->
<g id="edge18_Node000018_Node000019" class="edge">
<title>Node18&#45;&gt;Node19</title>
<g id="a_edge18_Node000018_Node000019"><a xlink:title=" ">
<path fill="none" stroke="#63b8ff" d="M61.07,-15.25C52.41,-15.25 44.11,-15.25 37.23,-15.25"/>
<polygon fill="#63b8ff" stroke="#63b8ff" points="61.05,-18.75 71.05,-15.25 61.05,-11.75 61.05,-18.75"/>
</a>
</g>
</g>
</g>
</svg>

<g id="navigator" transform="translate(0 0)" fill="#404254">
  <rect fill="#f2f5e9" fill-opacity="0.5" stroke="#606060" stroke-width=".5" x="0" y="0" width="60" height="60"/>
  <use id="zoomplus" xlink:href="#zoomPlus" x="17" y="9" onmousedown="handleZoom(evt,'in')"/>
  <use id="zoomminus" xlink:href="#zoomMin" x="42" y="9" onmousedown="handleZoom(evt,'out')"/>
  <use id="reset" xlink:href="#resetDef" x="30" y="36" onmousedown="handleReset()"/>
   <use id="arrowup" xlink:href="#arrowUp" x="0" y="0" onmousedown="handlePan(0,-1)"/>
  <use id="arrowright" xlink:href="#arrowRight" x="0" y="0" onmousedown="handlePan(1,0)"/>
  <use id="arrowdown" xlink:href="#arrowDown" x="0" y="0" onmousedown="handlePan(0,1)"/>
  <use id="arrowleft" xlink:href="#arrowLeft" x="0" y="0" onmousedown="handlePan(-1,0)"/>
</g>
<svg viewBox="0 0 15 15" width="100%" height="30px" preserveAspectRatio="xMaxYMin meet">
 <g id="arrow_out" transform="scale(0.3 0.3)">
  <a xlink:href="iop_8blk_a50e05ec7381bfa8ea8464ed3b9cb0f4d_icgraph_org.svg" target="_base">
   <rect id="button" ry="5" rx="5" y="6" x="6" height="38" width="38"
        fill="#f2f5e9" fill-opacity="0.5" stroke="#606060" stroke-width="1.0"/>
   <path id="arrow"
     d="M 11.500037,31.436501 C 11.940474,20.09759 22.043105,11.32322 32.158766,21.979434 L 37.068811,17.246167 C 37.068811,17.246167 37.088388,32 37.088388,32 L 22.160133,31.978069 C 22.160133,31.978069 26.997745,27.140456 26.997745,27.140456 C 18.528582,18.264221 13.291696,25.230495 11.500037,31.436501 z"
     style="fill:#404040;"/>
  </a>
 </g>
</svg>

<style type='text/css'>
<![CDATA[
[data-mouse-over-selected='false'] { opacity: 0.7; }
[data-mouse-over-selected='true']  { opacity: 1.0; }
]]>
</style>
<script type="application/ecmascript"><![CDATA[
document.addEventListener('DOMContentLoaded', (event) => {
  highlightEdges();
  highlightAdjacentNodes();
});
]]></script>
</svg>
