<?xml version="1.0" encoding="UTF-8" standalone="no"?>
<!DOCTYPE svg PUBLIC "-//W3C//DTD SVG 1.1//EN"
 "http://www.w3.org/Graphics/SVG/1.1/DTD/svg11.dtd">
<!-- Generated by graphviz version 9.0.0 (20230911.1827)
 -->
<!-- Title: pack_class Pages: 1 -->
<svg width="680pt" height="97pt"
 viewBox="0.00 0.00 680.00 96.79" xmlns="http://www.w3.org/2000/svg" xmlns:xlink="http://www.w3.org/1999/xlink">
<g id="graph0" class="graph" transform="scale(1 1) rotate(0) translate(4 92.79)">
<title>pack_class</title>
<!-- Node1 -->
<g id="Node000001" class="node">
<title>Node1</title>
<g id="a_Node000001"><a xlink:title=" ">
<polygon fill="#999999" stroke="#666666" points="672,-56.95 606.5,-56.95 606.5,-37.7 672,-37.7 672,-56.95"/>
<text text-anchor="middle" x="639.25" y="-43.45" font-family="Helvetica,sans-Serif" font-size="10.00">pack_class</text>
</a>
</g>
</g>
<!-- Node2 -->
<g id="Node000002" class="node">
<title>Node2</title>
<g id="a_Node000002"><a xlink:href="../../d0/d2d/iop_8blk.html#abd9b85cf6f9cc27b40f0f99f97846fa8" target="_top" xlink:title=" ">
<polygon fill="white" stroke="#666666" points="352.88,-74.95 292.62,-74.95 292.62,-55.7 352.88,-55.7 352.88,-74.95"/>
<text text-anchor="middle" x="322.75" y="-61.45" font-family="Helvetica,sans-Serif" font-size="10.00">iop_bpack</text>
</a>
</g>
</g>
<!-- Node1&#45;&gt;Node2 -->
<g id="edge1_Node000001_Node000002" class="edge">
<title>Node1&#45;&gt;Node2</title>
<g id="a_edge1_Node000001_Node000002"><a xlink:title=" ">
<path fill="none" stroke="#63b8ff" d="M601.7,-61.15C591.7,-64.55 580.78,-67.9 570.5,-70.33 497.37,-87.62 476.61,-93.26 402,-84.33 385.62,-82.37 367.72,-78.18 353.17,-74.23"/>
<polygon fill="#63b8ff" stroke="#63b8ff" points="602.83,-64.47 611.1,-57.85 600.51,-57.86 602.83,-64.47"/>
</a>
</g>
</g>
<!-- Node5 -->
<g id="Node000005" class="node">
<title>Node5</title>
<g id="a_Node000005"><a xlink:href="../../d0/d2d/iop_8blk.html#a291d7e37275cd23f0e631a3bf1862f1d" target="_top" xlink:title=" ">
<polygon fill="white" stroke="#666666" points="570.5,-37.95 505,-37.95 505,-18.7 570.5,-18.7 570.5,-37.95"/>
<text text-anchor="middle" x="537.75" y="-24.45" font-family="Helvetica,sans-Serif" font-size="10.00">pack_value</text>
</a>
</g>
</g>
<!-- Node1&#45;&gt;Node5 -->
<g id="edge4_Node000001_Node000005" class="edge">
<title>Node1&#45;&gt;Node5</title>
<g id="a_edge4_Node000001_Node000005"><a xlink:title=" ">
<path fill="none" stroke="#63b8ff" d="M594.96,-39.06C586.82,-37.51 578.44,-35.91 570.72,-34.43"/>
<polygon fill="#63b8ff" stroke="#63b8ff" points="594.25,-42.49 604.73,-40.93 595.57,-35.61 594.25,-42.49"/>
</a>
</g>
</g>
<!-- Node7 -->
<g id="Node000007" class="node">
<title>Node7</title>
<g id="a_Node000007"><a xlink:href="../../d0/d2d/iop_8blk.html#a4b195608d1f5a52f9385262ac791bce1" target="_top" xlink:title=" ">
<polygon fill="white" stroke="#666666" points="366,-37.95 279.5,-37.95 279.5,-18.7 366,-18.7 366,-37.95"/>
<text text-anchor="middle" x="322.75" y="-24.45" font-family="Helvetica,sans-Serif" font-size="10.00">pack_value_vec</text>
</a>
</g>
</g>
<!-- Node1&#45;&gt;Node7 -->
<g id="edge15_Node000001_Node000007" class="edge">
<title>Node1&#45;&gt;Node7</title>
<g id="a_edge15_Node000001_Node000007"><a xlink:title=" ">
<path fill="none" stroke="#63b8ff" d="M615.9,-30.94C603.26,-22.7 586.77,-13.58 570.5,-9.33 497.55,9.74 408.65,-6.27 359.96,-18.22"/>
<polygon fill="#63b8ff" stroke="#63b8ff" points="613.65,-33.64 623.88,-36.4 617.6,-27.87 613.65,-33.64"/>
</a>
</g>
</g>
<!-- Node3 -->
<g id="Node000003" class="node">
<title>Node3</title>
<g id="a_Node000003"><a xlink:href="../../d0/d2d/iop_8blk.html#a91d30ccf82d87c6141ec494d48feb96d" target="_top" xlink:title=" ">
<polygon fill="white" stroke="#666666" points="243.5,-80.58 134.5,-80.58 134.5,-50.08 243.5,-50.08 243.5,-80.58"/>
<text text-anchor="start" x="142.5" y="-67.08" font-family="Helvetica,sans-Serif" font-size="10.00">mp_iop_bpack_struct</text>
<text text-anchor="middle" x="189" y="-55.83" font-family="Helvetica,sans-Serif" font-size="10.00">_flags</text>
</a>
</g>
</g>
<!-- Node2&#45;&gt;Node3 -->
<g id="edge2_Node000002_Node000003" class="edge">
<title>Node2&#45;&gt;Node3</title>
<g id="a_edge2_Node000002_Node000003"><a xlink:title=" ">
<path fill="none" stroke="#63b8ff" d="M280.93,-65.33C269.2,-65.33 256.22,-65.33 243.83,-65.33"/>
<polygon fill="#63b8ff" stroke="#63b8ff" points="280.67,-68.83 290.67,-65.33 280.67,-61.83 280.67,-68.83"/>
</a>
</g>
</g>
<!-- Node4 -->
<g id="Node000004" class="node">
<title>Node4</title>
<g id="a_Node000004"><a xlink:href="../../d0/d2d/iop_8blk.html#a6f6f01f06b3babed245c93d95774a1dc" target="_top" xlink:title=" ">
<polygon fill="white" stroke="#666666" points="98.5,-80.58 0,-80.58 0,-50.08 98.5,-50.08 98.5,-80.58"/>
<text text-anchor="start" x="8" y="-67.08" font-family="Helvetica,sans-Serif" font-size="10.00">t_iop_bpack_struct</text>
<text text-anchor="middle" x="49.25" y="-55.83" font-family="Helvetica,sans-Serif" font-size="10.00">_flags</text>
</a>
</g>
</g>
<!-- Node3&#45;&gt;Node4 -->
<g id="edge3_Node000003_Node000004" class="edge">
<title>Node3&#45;&gt;Node4</title>
<g id="a_edge3_Node000003_Node000004"><a xlink:title=" ">
<path fill="none" stroke="#63b8ff" d="M122.88,-65.33C114.7,-65.33 106.45,-65.33 98.59,-65.33"/>
<polygon fill="#63b8ff" stroke="#63b8ff" points="122.83,-68.83 132.83,-65.33 122.83,-61.83 122.83,-68.83"/>
</a>
</g>
</g>
<!-- Node6 -->
<g id="Node000006" class="node">
<title>Node6</title>
<g id="a_Node000006"><a xlink:href="../../d0/d2d/iop_8blk.html#a9a5f03637d88396a249b46614e3b9ff1" target="_top" xlink:title=" ">
<polygon fill="white" stroke="#666666" points="469,-74.95 402,-74.95 402,-55.7 469,-55.7 469,-74.95"/>
<text text-anchor="middle" x="435.5" y="-61.45" font-family="Helvetica,sans-Serif" font-size="10.00">pack_struct</text>
</a>
</g>
</g>
<!-- Node5&#45;&gt;Node6 -->
<g id="edge5_Node000005_Node000006" class="edge">
<title>Node5&#45;&gt;Node6</title>
<g id="a_edge5_Node000005_Node000006"><a xlink:title=" ">
<path fill="none" stroke="#63b8ff" d="M494.19,-37.35C478.59,-42.82 461.99,-49.56 450.62,-55.25"/>
<polygon fill="#63b8ff" stroke="#63b8ff" points="494.96,-40.79 503.32,-34.28 492.73,-34.15 494.96,-40.79"/>
</a>
</g>
</g>
<!-- Node8 -->
<g id="Node000008" class="node">
<title>Node8</title>
<g id="a_Node000008"><a xlink:href="../../d0/d2d/iop_8blk.html#a89ee5a72760ef580818d91c363676e9f" target="_top" xlink:title=" ">
<polygon fill="white" stroke="#666666" points="468.25,-37.95 402.75,-37.95 402.75,-18.7 468.25,-18.7 468.25,-37.95"/>
<text text-anchor="middle" x="435.5" y="-24.45" font-family="Helvetica,sans-Serif" font-size="10.00">pack_union</text>
</a>
</g>
</g>
<!-- Node5&#45;&gt;Node8 -->
<g id="edge11_Node000005_Node000008" class="edge">
<title>Node5&#45;&gt;Node8</title>
<g id="a_edge11_Node000005_Node000008"><a xlink:title=" ">
<path fill="none" stroke="#63b8ff" d="M493.27,-21.63C484.96,-21.5 476.41,-21.61 468.54,-21.98"/>
<polygon fill="#63b8ff" stroke="#63b8ff" points="493.14,-25.13 503.24,-21.94 493.36,-18.13 493.14,-25.13"/>
</a>
</g>
</g>
<!-- Node6&#45;&gt;Node1 -->
<g id="edge7_Node000006_Node000001" class="edge">
<title>Node6&#45;&gt;Node1</title>
<g id="a_edge7_Node000006_Node000001"><a xlink:title=" ">
<path fill="none" stroke="#63b8ff" d="M480.55,-61.4C518.49,-58.01 572.35,-53.21 606.28,-50.18"/>
<polygon fill="#63b8ff" stroke="#63b8ff" points="480.48,-57.89 470.83,-62.26 481.1,-64.86 480.48,-57.89"/>
</a>
</g>
</g>
<!-- Node6&#45;&gt;Node2 -->
<g id="edge6_Node000006_Node000002" class="edge">
<title>Node6&#45;&gt;Node2</title>
<g id="a_edge6_Node000006_Node000002"><a xlink:title=" ">
<path fill="none" stroke="#63b8ff" d="M390.43,-65.33C377.98,-65.33 364.73,-65.33 353.35,-65.33"/>
<polygon fill="#63b8ff" stroke="#63b8ff" points="390.06,-68.83 400.06,-65.33 390.06,-61.83 390.06,-68.83"/>
</a>
</g>
</g>
<!-- Node6&#45;&gt;Node5 -->
<g id="edge8_Node000006_Node000005" class="edge">
<title>Node6&#45;&gt;Node5</title>
<g id="a_edge8_Node000006_Node000005"><a xlink:title=" ">
<path fill="none" stroke="#63b8ff" d="M479.82,-56.03C495.28,-50.58 511.62,-43.93 522.81,-38.32"/>
<polygon fill="#63b8ff" stroke="#63b8ff" points="479.11,-52.58 470.76,-59.11 481.35,-59.21 479.11,-52.58"/>
</a>
</g>
</g>
<!-- Node6&#45;&gt;Node7 -->
<g id="edge9_Node000006_Node000007" class="edge">
<title>Node6&#45;&gt;Node7</title>
<g id="a_edge9_Node000006_Node000007"><a xlink:title=" ">
<path fill="none" stroke="#63b8ff" d="M408.84,-50.96C396.19,-45.83 380.59,-40.36 366.22,-35.93"/>
<polygon fill="#63b8ff" stroke="#63b8ff" points="407.14,-54.03 417.71,-54.74 409.89,-47.6 407.14,-54.03"/>
</a>
</g>
</g>
<!-- Node7&#45;&gt;Node6 -->
<g id="edge10_Node000007_Node000006" class="edge">
<title>Node7&#45;&gt;Node6</title>
<g id="a_edge10_Node000007_Node000006"><a xlink:title=" ">
<path fill="none" stroke="#63b8ff" d="M349.57,-42.76C365.07,-49.04 384.95,-55.81 401.57,-60.56"/>
<polygon fill="#63b8ff" stroke="#63b8ff" points="351.13,-39.62 340.56,-38.92 348.38,-46.06 351.13,-39.62"/>
</a>
</g>
</g>
<!-- Node8&#45;&gt;Node2 -->
<g id="edge12_Node000008_Node000002" class="edge">
<title>Node8&#45;&gt;Node2</title>
<g id="a_edge12_Node000008_Node000002"><a xlink:title=" ">
<path fill="none" stroke="#63b8ff" d="M393.39,-42.06C380.05,-46.52 365.53,-51.37 353.21,-55.48"/>
<polygon fill="#63b8ff" stroke="#63b8ff" points="394.43,-45.41 402.8,-38.92 392.21,-38.77 394.43,-45.41"/>
</a>
</g>
</g>
<!-- Node8&#45;&gt;Node5 -->
<g id="edge13_Node000008_Node000005" class="edge">
<title>Node8&#45;&gt;Node5</title>
<g id="a_edge13_Node000008_Node000005"><a xlink:title=" ">
<path fill="none" stroke="#63b8ff" d="M480.02,-35.02C488.33,-35.16 496.89,-35.04 504.75,-34.67"/>
<polygon fill="#63b8ff" stroke="#63b8ff" points="480.15,-31.53 470.05,-34.72 479.94,-38.52 480.15,-31.53"/>
</a>
</g>
</g>
<!-- Node8&#45;&gt;Node7 -->
<g id="edge14_Node000008_Node000007" class="edge">
<title>Node8&#45;&gt;Node7</title>
<g id="a_edge14_Node000008_Node000007"><a xlink:title=" ">
<path fill="none" stroke="#63b8ff" d="M390.98,-28.33C382.9,-28.33 374.48,-28.33 366.43,-28.33"/>
<polygon fill="#63b8ff" stroke="#63b8ff" points="390.95,-31.83 400.95,-28.33 390.95,-24.83 390.95,-31.83"/>
</a>
</g>
</g>
</g>
</svg>
