<?xml version="1.0" encoding="UTF-8" standalone="no"?>
<!DOCTYPE svg PUBLIC "-//W3C//DTD SVG 1.1//EN"
 "http://www.w3.org/Graphics/SVG/1.1/DTD/svg11.dtd">
<!-- Generated by graphviz version 9.0.0 (20230911.1827)
 -->
<!-- Title: __iop_struct_check_backward_compat Pages: 1 -->
<svg width="456pt" height="212pt"
 viewBox="0.00 0.00 455.75 211.50" xmlns="http://www.w3.org/2000/svg" xmlns:xlink="http://www.w3.org/1999/xlink">

<svg id="main" version="1.1" xmlns="http://www.w3.org/2000/svg" xmlns:xlink="http://www.w3.org/1999/xlink" xml:space="preserve" onload="init(evt)">
<style type="text/css"><![CDATA[
.node, .edge {opacity: 0.7;}
.node.selected, .edge.selected {opacity: 1;}
.edge:hover path { stroke: red; }
.edge:hover polygon { stroke: red; fill: red; }
]]></style>
<script type="application/ecmascript" xlink:href="../../svg.min.js"/>
<svg id="graph" class="graph">
<g id="graph0" class="graph" transform="scale(1 1) rotate(0) translate(4 207.5)">
<title>__iop_struct_check_backward_compat</title>
<!-- Node1 -->
<g id="Node000001" class="node">
<title>Node1</title>
<g id="a_Node000001"><a xlink:title=" ">
<polygon fill="#999999" stroke="#666666" points="447.75,-122.5 347,-122.5 347,-92 447.75,-92 447.75,-122.5"/>
<text text-anchor="start" x="355" y="-109" font-family="Helvetica,sans-Serif" font-size="10.00">__iop_struct_check</text>
<text text-anchor="middle" x="397.38" y="-97.75" font-family="Helvetica,sans-Serif" font-size="10.00">_backward_compat</text>
</a>
</g>
</g>
<!-- Node2 -->
<g id="Node000002" class="node">
<title>Node2</title>
<g id="a_Node000002"><a xlink:href="../../d0/d2d/iop_8blk.html#a15b9451ae502f817c42a2eb6a0bbd539" target="_top" xlink:title=" ">
<polygon fill="white" stroke="#666666" points="293.75,-116.88 190.75,-116.88 190.75,-97.62 293.75,-97.62 293.75,-116.88"/>
<text text-anchor="middle" x="242.25" y="-103.38" font-family="Helvetica,sans-Serif" font-size="10.00">check_class_parent</text>
</a>
</g>
</g>
<!-- Node1&#45;&gt;Node2 -->
<g id="edge1_Node000001_Node000002" class="edge">
<title>Node1&#45;&gt;Node2</title>
<g id="a_edge1_Node000001_Node000002"><a xlink:title=" ">
<path fill="none" stroke="#63b8ff" d="M335.35,-107.25C321.65,-107.25 307.26,-107.25 294.03,-107.25"/>
<polygon fill="#63b8ff" stroke="#63b8ff" points="335.15,-110.75 345.15,-107.25 335.15,-103.75 335.15,-110.75"/>
</a>
</g>
</g>
<!-- Node4 -->
<g id="Node000004" class="node">
<title>Node4</title>
<g id="a_Node000004"><a xlink:href="../../d0/d2d/iop_8blk.html#a374c2a07b25ecacb34105ce6e362a19c" target="_top" xlink:title=" ">
<polygon fill="white" stroke="#666666" points="307.25,-203.5 177.25,-203.5 177.25,-173 307.25,-173 307.25,-203.5"/>
<text text-anchor="start" x="185.25" y="-190" font-family="Helvetica,sans-Serif" font-size="10.00">iop_field_check_backward</text>
<text text-anchor="middle" x="242.25" y="-178.75" font-family="Helvetica,sans-Serif" font-size="10.00">_compat</text>
</a>
</g>
</g>
<!-- Node1&#45;&gt;Node4 -->
<g id="edge4_Node000001_Node000004" class="edge">
<title>Node1&#45;&gt;Node4</title>
<g id="a_edge4_Node000001_Node000004"><a xlink:title=" ">
<path fill="none" stroke="#63b8ff" d="M362.96,-129.13C347.45,-138.88 328.59,-150.19 311,-159.25 301.9,-163.94 291.87,-168.53 282.38,-172.62"/>
<polygon fill="#63b8ff" stroke="#63b8ff" points="364.78,-132.12 371.34,-123.8 361.02,-126.21 364.78,-132.12"/>
</a>
</g>
</g>
<!-- Node6 -->
<g id="Node000006" class="node">
<title>Node6</title>
<g id="a_Node000006"><a xlink:href="../../d0/d2d/iop_8blk.html#af45331e2100a323fdbc4fa29909bb1a6" target="_top" xlink:title=" ">
<polygon fill="white" stroke="#666666" points="306.5,-30.5 178,-30.5 178,0 306.5,0 306.5,-30.5"/>
<text text-anchor="start" x="186" y="-17" font-family="Helvetica,sans-Serif" font-size="10.00">iop_pkg_check_backward</text>
<text text-anchor="middle" x="242.25" y="-5.75" font-family="Helvetica,sans-Serif" font-size="10.00">_compat_ctx</text>
</a>
</g>
</g>
<!-- Node1&#45;&gt;Node6 -->
<g id="edge6_Node000001_Node000006" class="edge">
<title>Node1&#45;&gt;Node6</title>
<g id="a_edge6_Node000001_Node000006"><a xlink:title=" ">
<path fill="none" stroke="#63b8ff" d="M371.45,-84.27C355.17,-70.16 332.93,-52.5 311,-40.25 304.87,-36.83 298.18,-33.7 291.47,-30.91"/>
<polygon fill="#63b8ff" stroke="#63b8ff" points="368.9,-86.69 378.71,-90.69 373.54,-81.45 368.9,-86.69"/>
</a>
</g>
</g>
<!-- Node8 -->
<g id="Node000008" class="node">
<title>Node8</title>
<g id="a_Node000008"><a xlink:href="../../d0/d2d/iop_8blk.html#a9f6b1197151048eb711627cd5a75677f" target="_top" xlink:title=" ">
<polygon fill="white" stroke="#666666" points="311,-79.5 173.5,-79.5 173.5,-49 311,-49 311,-79.5"/>
<text text-anchor="start" x="181.5" y="-66" font-family="Helvetica,sans-Serif" font-size="10.00">iop_struct_check_backward</text>
<text text-anchor="middle" x="242.25" y="-54.75" font-family="Helvetica,sans-Serif" font-size="10.00">_compat</text>
</a>
</g>
</g>
<!-- Node1&#45;&gt;Node8 -->
<g id="edge8_Node000001_Node000008" class="edge">
<title>Node1&#45;&gt;Node8</title>
<g id="a_edge8_Node000001_Node000008"><a xlink:title=" ">
<path fill="none" stroke="#63b8ff" d="M335.75,-90.22C323.65,-86.83 311,-83.28 299.08,-79.93"/>
<polygon fill="#63b8ff" stroke="#63b8ff" points="334.63,-93.55 345.2,-92.88 336.52,-86.81 334.63,-93.55"/>
</a>
</g>
</g>
<!-- Node3 -->
<g id="Node000003" class="node">
<title>Node3</title>
<g id="a_Node000003"><a xlink:href="../../d0/d2d/iop_8blk.html#abb23c16281a8e847e29286beb1574a03" target="_top" xlink:title=" ">
<polygon fill="white" stroke="#666666" points="125.5,-135.88 12,-135.88 12,-116.62 125.5,-116.62 125.5,-135.88"/>
<text text-anchor="middle" x="68.75" y="-122.38" font-family="Helvetica,sans-Serif" font-size="10.00">check_parent_classes</text>
</a>
</g>
</g>
<!-- Node2&#45;&gt;Node3 -->
<g id="edge2_Node000002_Node000003" class="edge">
<title>Node2&#45;&gt;Node3</title>
<g id="a_edge2_Node000002_Node000003"><a xlink:title=" ">
<path fill="none" stroke="#63b8ff" d="M179.08,-114.14C161.71,-116.06 142.94,-118.14 125.94,-120.02"/>
<polygon fill="#63b8ff" stroke="#63b8ff" points="179.2,-117.65 188.75,-113.07 178.43,-110.69 179.2,-117.65"/>
</a>
</g>
</g>
<!-- Node3&#45;&gt;Node1 -->
<g id="edge3_Node000003_Node000001" class="edge">
<title>Node3&#45;&gt;Node1</title>
<g id="a_edge3_Node000003_Node000001"><a xlink:title=" ">
<path fill="none" stroke="#63b8ff" d="M137.29,-130.19C185.78,-132.05 252.61,-132.67 311,-126.25 322.62,-124.97 334.98,-122.74 346.57,-120.25"/>
<polygon fill="#63b8ff" stroke="#63b8ff" points="137.65,-126.7 127.51,-129.78 137.36,-133.69 137.65,-126.7"/>
</a>
</g>
</g>
<!-- Node5 -->
<g id="Node000005" class="node">
<title>Node5</title>
<g id="a_Node000005"><a xlink:href="../../d0/d2d/iop_8blk.html#a1a8da12b852695a30980e26e56b4e744" target="_top" xlink:title=" ">
<polygon fill="white" stroke="#666666" points="137.5,-203.5 0,-203.5 0,-173 137.5,-173 137.5,-203.5"/>
<text text-anchor="start" x="8" y="-190" font-family="Helvetica,sans-Serif" font-size="10.00">__backward_compat_check</text>
<text text-anchor="middle" x="68.75" y="-178.75" font-family="Helvetica,sans-Serif" font-size="10.00">_new_field</text>
</a>
</g>
</g>
<!-- Node4&#45;&gt;Node5 -->
<g id="edge5_Node000004_Node000005" class="edge">
<title>Node4&#45;&gt;Node5</title>
<g id="a_edge5_Node000004_Node000005"><a xlink:title=" ">
<path fill="none" stroke="#63b8ff" d="M165.41,-188.25C156.25,-188.25 146.94,-188.25 137.9,-188.25"/>
<polygon fill="#63b8ff" stroke="#63b8ff" points="165.39,-191.75 175.39,-188.25 165.39,-184.75 165.39,-191.75"/>
</a>
</g>
</g>
<!-- Node7 -->
<g id="Node000007" class="node">
<title>Node7</title>
<g id="a_Node000007"><a xlink:href="../../d0/d2d/iop_8blk.html#a0de6208fbcfcc10c3efc984954af427a" target="_top" xlink:title=" ">
<polygon fill="white" stroke="#666666" points="133,-30.5 4.5,-30.5 4.5,0 133,0 133,-30.5"/>
<text text-anchor="start" x="12.5" y="-17" font-family="Helvetica,sans-Serif" font-size="10.00">iop_pkg_check_backward</text>
<text text-anchor="middle" x="68.75" y="-5.75" font-family="Helvetica,sans-Serif" font-size="10.00">_compat</text>
</a>
</g>
</g>
<!-- Node6&#45;&gt;Node7 -->
<g id="edge7_Node000006_Node000007" class="edge">
<title>Node6&#45;&gt;Node7</title>
<g id="a_edge7_Node000006_Node000007"><a xlink:title=" ">
<path fill="none" stroke="#63b8ff" d="M166.51,-15.25C155.48,-15.25 144.21,-15.25 133.44,-15.25"/>
<polygon fill="#63b8ff" stroke="#63b8ff" points="166.36,-18.75 176.36,-15.25 166.36,-11.75 166.36,-18.75"/>
</a>
</g>
</g>
</g>
</svg>
</svg>

<style type='text/css'>
<![CDATA[
[data-mouse-over-selected='false'] { opacity: 0.7; }
[data-mouse-over-selected='true']  { opacity: 1.0; }
]]>
</style>
<script type="application/ecmascript"><![CDATA[
document.addEventListener('DOMContentLoaded', (event) => {
  highlightEdges();
  highlightAdjacentNodes();
});
]]></script>
</svg>
