<?xml version="1.0" encoding="UTF-8" standalone="no"?>
<!DOCTYPE svg PUBLIC "-//W3C//DTD SVG 1.1//EN"
 "http://www.w3.org/Graphics/SVG/1.1/DTD/svg11.dtd">
<!-- Generated by graphviz version 9.0.0 (20230911.1827)
 -->
<!-- Title: iop_enum_from_str2_desc Pages: 1 -->
<svg width="417pt" height="27pt"
 viewBox="0.00 0.00 416.75 27.25" xmlns="http://www.w3.org/2000/svg" xmlns:xlink="http://www.w3.org/1999/xlink">
<g id="graph0" class="graph" transform="scale(1 1) rotate(0) translate(4 23.25)">
<title>iop_enum_from_str2_desc</title>
<!-- Node1 -->
<g id="Node000001" class="node">
<title>Node1</title>
<g id="a_Node000001"><a xlink:title=" ">
<polygon fill="#999999" stroke="#666666" points="130.75,-19.25 0,-19.25 0,0 130.75,0 130.75,-19.25"/>
<text text-anchor="middle" x="65.38" y="-5.75" font-family="Helvetica,sans-Serif" font-size="10.00">iop_enum_from_str2_desc</text>
</a>
</g>
</g>
<!-- Node2 -->
<g id="Node000002" class="node">
<title>Node2</title>
<g id="a_Node000002"><a xlink:href="../../d0/d2d/iop_8blk.html#abae824b2e7cf559a6ba813aa40952559" target="_top" xlink:title=" ">
<polygon fill="white" stroke="#666666" points="287,-19.25 166.75,-19.25 166.75,0 287,0 287,-19.25"/>
<text text-anchor="middle" x="226.88" y="-5.75" font-family="Helvetica,sans-Serif" font-size="10.00">iop_enum_pos_from_str</text>
</a>
</g>
</g>
<!-- Node1&#45;&gt;Node2 -->
<g id="edge1_Node000001_Node000002" class="edge">
<title>Node1&#45;&gt;Node2</title>
<g id="a_edge1_Node000001_Node000002"><a xlink:title=" ">
<path fill="none" stroke="#63b8ff" d="M131.25,-9.62C139.07,-9.62 147.09,-9.62 155,-9.62"/>
<polygon fill="#63b8ff" stroke="#63b8ff" points="154.94,-13.13 164.94,-9.63 154.94,-6.13 154.94,-13.13"/>
</a>
</g>
</g>
<!-- Node3 -->
<g id="Node000003" class="node">
<title>Node3</title>
<g id="a_Node000003"><a xlink:href="../../de/d04/str-l_8c.html#a2c6861958e11bd58f7d7f5a109baff6a" target="_top" xlink:title="Returns whether s1 and s2 contents are case&#45;insentively equal.">
<polygon fill="white" stroke="#666666" points="408.75,-19.25 323,-19.25 323,0 408.75,0 408.75,-19.25"/>
<text text-anchor="middle" x="365.88" y="-5.75" font-family="Helvetica,sans-Serif" font-size="10.00">lstr_ascii_iequal</text>
</a>
</g>
</g>
<!-- Node2&#45;&gt;Node3 -->
<g id="edge2_Node000002_Node000003" class="edge">
<title>Node2&#45;&gt;Node3</title>
<g id="a_edge2_Node000002_Node000003"><a xlink:title=" ">
<path fill="none" stroke="#63b8ff" d="M287.17,-9.62C295.23,-9.62 303.47,-9.62 311.43,-9.62"/>
<polygon fill="#63b8ff" stroke="#63b8ff" points="311.31,-13.13 321.31,-9.63 311.31,-6.13 311.31,-13.13"/>
</a>
</g>
</g>
</g>
</svg>
