<?xml version="1.0" encoding="UTF-8" standalone="no"?>
<!DOCTYPE svg PUBLIC "-//W3C//DTD SVG 1.1//EN"
 "http://www.w3.org/Graphics/SVG/1.1/DTD/svg11.dtd">
<!-- Generated by graphviz version 9.0.0 (20230911.1827)
 -->
<!-- Title: iop_get_cvar_field_desc Pages: 1 -->
<svg width="560pt" height="152pt"
 viewBox="0.00 0.00 559.75 151.95" xmlns="http://www.w3.org/2000/svg" xmlns:xlink="http://www.w3.org/1999/xlink">
<g id="graph0" class="graph" transform="scale(1 1) rotate(0) translate(4 147.95)">
<title>iop_get_cvar_field_desc</title>
<!-- Node1 -->
<g id="Node000001" class="node">
<title>Node1</title>
<g id="a_Node000001"><a xlink:title=" ">
<polygon fill="#999999" stroke="#666666" points="120.25,-40.25 0,-40.25 0,-21 120.25,-21 120.25,-40.25"/>
<text text-anchor="middle" x="60.12" y="-26.75" font-family="Helvetica,sans-Serif" font-size="10.00">iop_get_cvar_field_desc</text>
</a>
</g>
</g>
<!-- Node2 -->
<g id="Node000002" class="node">
<title>Node2</title>
<g id="a_Node000002"><a xlink:href="../../d0/d2d/iop_8blk.html#a9e331131686374ba3e91593fdb422e88" target="_top" xlink:title=" ">
<polygon fill="white" stroke="#666666" points="256.25,-67.88 156.25,-67.88 156.25,-37.38 256.25,-37.38 256.25,-67.88"/>
<text text-anchor="start" x="164.25" y="-54.38" font-family="Helvetica,sans-Serif" font-size="10.00">iop_get_class_cvar</text>
<text text-anchor="middle" x="206.25" y="-43.12" font-family="Helvetica,sans-Serif" font-size="10.00">_field_desc</text>
</a>
</g>
</g>
<!-- Node1&#45;&gt;Node2 -->
<g id="edge1_Node000001_Node000002" class="edge">
<title>Node1&#45;&gt;Node2</title>
<g id="a_edge1_Node000001_Node000002"><a xlink:title=" ">
<path fill="none" stroke="#63b8ff" d="M120.58,-39.7C128.59,-40.92 136.81,-42.18 144.84,-43.4"/>
<polygon fill="#63b8ff" stroke="#63b8ff" points="144.11,-46.83 154.52,-44.88 145.16,-39.91 144.11,-46.83"/>
</a>
</g>
</g>
<!-- Node6 -->
<g id="Node000006" class="node">
<title>Node6</title>
<g id="a_Node000006"><a xlink:href="../../d3/d40/iop_8h.html#a07f21da2d3381b98dd6f6bbd642d2130" target="_top" xlink:title=" ">
<polygon fill="white" stroke="#666666" points="392.25,-19.25 292.25,-19.25 292.25,0 392.25,0 392.25,-19.25"/>
<text text-anchor="middle" x="342.25" y="-5.75" font-family="Helvetica,sans-Serif" font-size="10.00">iop_struct_is_class</text>
</a>
</g>
</g>
<!-- Node1&#45;&gt;Node6 -->
<g id="edge9_Node000001_Node000006" class="edge">
<title>Node1&#45;&gt;Node6</title>
<g id="a_edge9_Node000001_Node000006"><a xlink:title=" ">
<path fill="none" stroke="#63b8ff" d="M120.53,-26.17C167.71,-22.63 233.42,-17.71 280.85,-14.15"/>
<polygon fill="#63b8ff" stroke="#63b8ff" points="280.98,-17.65 290.69,-13.42 280.45,-10.67 280.98,-17.65"/>
</a>
</g>
</g>
<!-- Node3 -->
<g id="Node000003" class="node">
<title>Node3</title>
<g id="a_Node000003"><a xlink:href="../../df/d6e/sort_8blk.html#a3f0227017383d0027961c2748de189b9" target="_top" xlink:title=" ">
<polygon fill="white" stroke="#666666" points="372.38,-132.25 312.12,-132.25 312.12,-113 372.38,-113 372.38,-132.25"/>
<text text-anchor="middle" x="342.25" y="-118.75" font-family="Helvetica,sans-Serif" font-size="10.00">bisect_blk</text>
</a>
</g>
</g>
<!-- Node2&#45;&gt;Node3 -->
<g id="edge2_Node000002_Node000003" class="edge">
<title>Node2&#45;&gt;Node3</title>
<g id="a_edge2_Node000002_Node000003"><a xlink:title=" ">
<path fill="none" stroke="#63b8ff" d="M235.43,-68.25C251.91,-77.29 273.16,-88.79 292.25,-98.62 297.93,-101.55 304.03,-104.61 309.92,-107.51"/>
<polygon fill="#63b8ff" stroke="#63b8ff" points="308.29,-110.62 318.81,-111.87 311.37,-104.33 308.29,-110.62"/>
</a>
</g>
</g>
<!-- Node4 -->
<g id="Node000004" class="node">
<title>Node4</title>
<g id="a_Node000004"><a xlink:href="../../d9/d68/str-dtoa_8c.html#ae3b60d76128298cf2780a4612b47befe" target="_top" xlink:title=" ">
<polygon fill="white" stroke="#666666" points="551.75,-132.25 517,-132.25 517,-113 551.75,-113 551.75,-132.25"/>
<text text-anchor="middle" x="534.38" y="-118.75" font-family="Helvetica,sans-Serif" font-size="10.00">cmp</text>
</a>
</g>
</g>
<!-- Node2&#45;&gt;Node4 -->
<g id="edge6_Node000002_Node000004" class="edge">
<title>Node2&#45;&gt;Node4</title>
<g id="a_edge6_Node000002_Node000004"><a xlink:title=" ">
<path fill="none" stroke="#63b8ff" d="M256.73,-60.84C323.68,-72.13 439.55,-92.33 481,-103.62 489.25,-105.87 498.04,-108.83 506.02,-111.74"/>
<polygon fill="#63b8ff" stroke="#63b8ff" points="504.61,-114.95 515.2,-115.22 507.09,-108.41 504.61,-114.95"/>
</a>
</g>
</g>
<!-- Node2&#45;&gt;Node6 -->
<g id="edge7_Node000002_Node000006" class="edge">
<title>Node2&#45;&gt;Node6</title>
<g id="a_edge7_Node000002_Node000006"><a xlink:title=" ">
<path fill="none" stroke="#63b8ff" d="M256.01,-36.98C270.18,-32.43 285.53,-27.51 299.25,-23.1"/>
<polygon fill="#63b8ff" stroke="#63b8ff" points="299.95,-26.55 308.4,-20.17 297.81,-19.89 299.95,-26.55"/>
</a>
</g>
</g>
<!-- Node7 -->
<g id="Node000007" class="node">
<title>Node7</title>
<g id="a_Node000007"><a xlink:href="../../df/d0a/str-l_8h.html#a26e9662009a92888ff6db49b86513036" target="_top" xlink:title="Returns &quot;memcmp&quot; ordering of \v s1 and \v s2.">
<polygon fill="white" stroke="#666666" points="369,-56.25 315.5,-56.25 315.5,-37 369,-37 369,-56.25"/>
<text text-anchor="middle" x="342.25" y="-42.75" font-family="Helvetica,sans-Serif" font-size="10.00">lstr_cmp</text>
</a>
</g>
</g>
<!-- Node2&#45;&gt;Node7 -->
<g id="edge8_Node000002_Node000007" class="edge">
<title>Node2&#45;&gt;Node7</title>
<g id="a_edge8_Node000002_Node000007"><a xlink:title=" ">
<path fill="none" stroke="#63b8ff" d="M256.39,-50.42C272.06,-49.72 289.15,-48.96 303.85,-48.3"/>
<polygon fill="#63b8ff" stroke="#63b8ff" points="303.72,-51.81 313.55,-47.87 303.4,-44.82 303.72,-51.81"/>
</a>
</g>
</g>
<!-- Node3&#45;&gt;Node4 -->
<g id="edge3_Node000003_Node000004" class="edge">
<title>Node3&#45;&gt;Node4</title>
<g id="a_edge3_Node000003_Node000004"><a xlink:title=" ">
<path fill="none" stroke="#63b8ff" d="M372.64,-131.97C400.59,-139.61 443.79,-148.17 481,-141.62 489.42,-140.15 498.26,-137.42 506.24,-134.49"/>
<polygon fill="#63b8ff" stroke="#63b8ff" points="507.38,-137.81 515.39,-130.88 504.81,-131.3 507.38,-137.81"/>
</a>
</g>
</g>
<!-- Node5 -->
<g id="Node000005" class="node">
<title>Node5</title>
<g id="a_Node000005"><a xlink:href="../../df/d6e/sort_8blk.html#a31604ba53a481ec51ac131ffa92eae38" target="_top" xlink:title=" ">
<polygon fill="white" stroke="#666666" points="481,-132.25 428.25,-132.25 428.25,-113 481,-113 481,-132.25"/>
<text text-anchor="middle" x="454.62" y="-118.75" font-family="Helvetica,sans-Serif" font-size="10.00">cmp_blk</text>
</a>
</g>
</g>
<!-- Node3&#45;&gt;Node5 -->
<g id="edge4_Node000003_Node000005" class="edge">
<title>Node3&#45;&gt;Node5</title>
<g id="a_edge4_Node000003_Node000005"><a xlink:title=" ">
<path fill="none" stroke="#63b8ff" d="M372.83,-122.62C386.3,-122.62 402.38,-122.62 416.64,-122.62"/>
<polygon fill="#63b8ff" stroke="#63b8ff" points="416.58,-126.13 426.58,-122.63 416.58,-119.13 416.58,-126.13"/>
</a>
</g>
</g>
<!-- Node5&#45;&gt;Node4 -->
<g id="edge5_Node000005_Node000004" class="edge">
<title>Node5&#45;&gt;Node4</title>
<g id="a_edge5_Node000005_Node000004"><a xlink:title=" ">
<path fill="none" stroke="#63b8ff" d="M481.08,-122.62C488.85,-122.62 497.43,-122.62 505.35,-122.62"/>
<polygon fill="#63b8ff" stroke="#63b8ff" points="505.17,-126.13 515.17,-122.63 505.17,-119.13 505.17,-126.13"/>
</a>
</g>
</g>
</g>
</svg>
