<?xml version="1.0" encoding="UTF-8" standalone="no"?>
<!DOCTYPE svg PUBLIC "-//W3C//DTD SVG 1.1//EN"
 "http://www.w3.org/Graphics/SVG/1.1/DTD/svg11.dtd">
<!-- Generated by graphviz version 9.0.0 (20230911.1827)
 -->
<!-- Title: mp_iop_new_desc Pages: 1 -->
<!--zoomable 329 -->

<svg id="main" version="1.1" xmlns="http://www.w3.org/2000/svg" xmlns:xlink="http://www.w3.org/1999/xlink" xml:space="preserve" onload="init(evt)">
<style type="text/css"><![CDATA[
.node, .edge {opacity: 0.7;}
.node.selected, .edge.selected {opacity: 1;}
.edge:hover path { stroke: red; }
.edge:hover polygon { stroke: red; fill: red; }
]]></style>

<defs>
  <circle id="rim" cx="0" cy="0" r="7"/>
  <circle id="rim2" cx="0" cy="0" r="3.5"/>
  <g id="zoomPlus">
    <use xlink:href="#rim" fill="#404040"><set attributeName="fill" to="#808080" begin="zoomplus.mouseover" end="zoomplus.mouseout"/></use>
    <path d="M-4,0h8M0,-4v8" fill="none" stroke="white" stroke-width="1.5" pointer-events="none"/>
  </g>
  <g id="zoomMin">
    <use xlink:href="#rim" fill="#404040"><set attributeName="fill" to="#808080" begin="zoomminus.mouseover" end="zoomminus.mouseout"/></use>
    <path d="M-4,0h8" fill="none" stroke="white" stroke-width="1.5" pointer-events="none"/>
  </g>
  <g id="arrowUp" transform="translate(30 24)">
    <use xlink:href="#rim"/>
    <path pointer-events="none" fill="none" stroke="white" stroke-width="1.5" d="M0,-3.0v7 M-2.5,-0.5L0,-3.0L2.5,-0.5"/>
  </g>
  <g id="arrowRight" transform="rotate(90) translate(36 -43)">
    <use xlink:href="#rim"/>
    <path pointer-events="none" fill="none" stroke="white" stroke-width="1.5" d="M0,-3.0v7 M-2.5,-0.5L0,-3.0L2.5,-0.5"/>
  </g>
  <g id="arrowDown" transform="rotate(180) translate(-30 -48)">
    <use xlink:href="#rim"/>
    <path pointer-events="none" fill="none" stroke="white" stroke-width="1.5" d="M0,-3.0v7 M-2.5,-0.5L0,-3.0L2.5,-0.5"/>
  </g>
  <g id="arrowLeft" transform="rotate(270) translate(-36 17)">
    <use xlink:href="#rim"/>
    <path pointer-events="none" fill="none" stroke="white" stroke-width="1.5" d="M0,-3.0v7 M-2.5,-0.5L0,-3.0L2.5,-0.5"/>
  </g>
  <g id="resetDef">
    <use xlink:href="#rim2" fill="#404040"><set attributeName="fill" to="#808080" begin="reset.mouseover" end="reset.mouseout"/></use>
  </g>
</defs>
<script type="application/ecmascript">
var viewWidth = 1691;
var viewHeight = 329;
var sectionId = 'dynsection-351';
</script>
<script type="application/ecmascript" xlink:href="../../svg.min.js"/>
<svg id="graph" class="graph">
<g id="viewport">
<title>mp_iop_new_desc</title>
<!-- Node1 -->
<g id="Node000001" class="node">
<title>Node1</title>
<g id="a_Node000001"><a xlink:title=" ">
<polygon fill="#999999" stroke="#666666" points="97,-184.25 0,-184.25 0,-165 97,-165 97,-184.25"/>
<text text-anchor="middle" x="48.5" y="-170.75" font-family="Helvetica,sans-Serif" font-size="10.00">mp_iop_new_desc</text>
</a>
</g>
</g>
<!-- Node2 -->
<g id="Node000002" class="node">
<title>Node2</title>
<g id="a_Node000002"><a xlink:href="../../d0/d2d/iop_8blk.html#a0a6a9c83ee5d2a79ff2040d1f7c57829" target="_top" xlink:title=" ">
<polygon fill="white" stroke="#666666" points="206,-146.25 133,-146.25 133,-127 206,-127 206,-146.25"/>
<text text-anchor="middle" x="169.5" y="-132.75" font-family="Helvetica,sans-Serif" font-size="10.00">iop_init_desc</text>
</a>
</g>
</g>
<!-- Node1&#45;&gt;Node2 -->
<g id="edge1_Node000001_Node000002" class="edge">
<title>Node1&#45;&gt;Node2</title>
<g id="a_edge1_Node000001_Node000002"><a xlink:title=" ">
<path fill="none" stroke="#63b8ff" d="M81.08,-164.54C95.04,-160.08 111.66,-154.78 126.63,-149.99"/>
<polygon fill="#63b8ff" stroke="#63b8ff" points="127.28,-153.46 135.75,-147.08 125.16,-146.79 127.28,-153.46"/>
</a>
</g>
</g>
<!-- Node34 -->
<g id="Node000034" class="node">
<title>Node34</title>
<g id="a_Node000034"><a xlink:href="../../d9/d9a/mem_8h.html#ada6bb9661f0c10ccaa14d231c24aeafd" target="_top" xlink:title=" ">
<polygon fill="white" stroke="#666666" points="202.25,-222.25 136.75,-222.25 136.75,-203 202.25,-203 202.25,-222.25"/>
<text text-anchor="middle" x="169.5" y="-208.75" font-family="Helvetica,sans-Serif" font-size="10.00">mp_imalloc</text>
</a>
</g>
</g>
<!-- Node1&#45;&gt;Node34 -->
<g id="edge40_Node000001_Node000034" class="edge">
<title>Node1&#45;&gt;Node34</title>
<g id="a_edge40_Node000001_Node000034"><a xlink:title=" ">
<path fill="none" stroke="#63b8ff" d="M81.08,-184.71C95.04,-189.17 111.66,-194.47 126.63,-199.26"/>
<polygon fill="#63b8ff" stroke="#63b8ff" points="125.16,-202.46 135.75,-202.17 127.28,-195.79 125.16,-202.46"/>
</a>
</g>
</g>
<!-- Node3 -->
<g id="Node000003" class="node">
<title>Node3</title>
<g id="a_Node000003"><a xlink:href="../../d0/d2d/iop_8blk.html#a8f5547f4caf62e205297b211572e99e2" target="_top" xlink:title=" ">
<polygon fill="white" stroke="#666666" points="335.62,-146.25 261.12,-146.25 261.12,-127 335.62,-127 335.62,-146.25"/>
<text text-anchor="middle" x="298.38" y="-132.75" font-family="Helvetica,sans-Serif" font-size="10.00">iop_init_fields</text>
</a>
</g>
</g>
<!-- Node2&#45;&gt;Node3 -->
<g id="edge2_Node000002_Node000003" class="edge">
<title>Node2&#45;&gt;Node3</title>
<g id="a_edge2_Node000002_Node000003"><a xlink:title=" ">
<path fill="none" stroke="#63b8ff" d="M206.18,-136.62C219.6,-136.62 235.08,-136.62 249.43,-136.62"/>
<polygon fill="#63b8ff" stroke="#63b8ff" points="249.13,-140.13 259.13,-136.63 249.13,-133.13 249.13,-140.13"/>
</a>
</g>
</g>
<!-- Node30 -->
<g id="Node000030" class="node">
<title>Node30</title>
<g id="a_Node000030"><a xlink:href="../../d3/d40/iop_8h.html#a07f21da2d3381b98dd6f6bbd642d2130" target="_top" xlink:title=" ">
<polygon fill="white" stroke="#666666" points="774.75,-53.25 674.75,-53.25 674.75,-34 774.75,-34 774.75,-53.25"/>
<text text-anchor="middle" x="724.75" y="-39.75" font-family="Helvetica,sans-Serif" font-size="10.00">iop_struct_is_class</text>
</a>
</g>
</g>
<!-- Node2&#45;&gt;Node30 -->
<g id="edge39_Node000002_Node000030" class="edge">
<title>Node2&#45;&gt;Node30</title>
<g id="a_edge39_Node000002_Node000030"><a xlink:title=" ">
<path fill="none" stroke="#63b8ff" d="M206.48,-126.94C217.83,-123.92 230.43,-120.6 242,-117.62 307.98,-100.65 323.81,-93.27 390.75,-80.62 451.64,-69.13 467.43,-69.63 529,-62.62 574.01,-57.5 624.96,-52.56 663.46,-49"/>
<polygon fill="#63b8ff" stroke="#63b8ff" points="663.33,-52.53 672.97,-48.13 662.69,-45.56 663.33,-52.53"/>
</a>
</g>
</g>
<!-- Node3&#45;&gt;Node3 -->
<g id="edge38_Node000003_Node000003" class="edge">
<title>Node3&#45;&gt;Node3</title>
<g id="a_edge38_Node000003_Node000003"><a xlink:title=" ">
<path fill="none" stroke="#63b8ff" d="M278.2,-146.54C269,-155.15 275.72,-164.25 298.38,-164.25 310.76,-164.25 318.39,-161.53 321.25,-157.65"/>
<polygon fill="#63b8ff" stroke="#63b8ff" points="324.67,-156.9 318.91,-148.01 317.87,-158.55 324.67,-156.9"/>
</a>
</g>
</g>
<!-- Node4 -->
<g id="Node000004" class="node">
<title>Node4</title>
<g id="a_Node000004"><a xlink:href="../../d7/df8/log_8c.html#abca342edf91a9b45f7a17ef564fa8a53" target="_top" xlink:title=" ">
<polygon fill="white" stroke="#666666" points="608.75,-259.25 559,-259.25 559,-240 608.75,-240 608.75,-259.25"/>
<text text-anchor="middle" x="583.88" y="-245.75" font-family="Helvetica,sans-Serif" font-size="10.00">e_panic</text>
</a>
</g>
</g>
<!-- Node3&#45;&gt;Node4 -->
<g id="edge3_Node000003_Node000004" class="edge">
<title>Node3&#45;&gt;Node4</title>
<g id="a_edge3_Node000003_Node000004"><a xlink:title=" ">
<path fill="none" stroke="#63b8ff" d="M336.11,-144.3C375.85,-153.32 440.57,-170.1 493,-193.62 517.34,-204.55 542.97,-221.08 560.6,-233.36"/>
<polygon fill="#63b8ff" stroke="#63b8ff" points="558.1,-235.87 568.28,-238.8 562.14,-230.16 558.1,-235.87"/>
</a>
</g>
</g>
<!-- Node28 -->
<g id="Node000028" class="node">
<title>Node28</title>
<g id="a_Node000028"><a xlink:href="../../d0/d2d/iop_8blk.html#af16bda4ccce06ee6cfd01f2b0e366ee0" target="_top" xlink:title=" ">
<polygon fill="white" stroke="#666666" points="492.25,-109.25 391.5,-109.25 391.5,-90 492.25,-90 492.25,-109.25"/>
<text text-anchor="middle" x="441.88" y="-95.75" font-family="Helvetica,sans-Serif" font-size="10.00">iop_field_is_pointed</text>
</a>
</g>
</g>
<!-- Node3&#45;&gt;Node28 -->
<g id="edge32_Node000003_Node000028" class="edge">
<title>Node3&#45;&gt;Node28</title>
<g id="a_edge32_Node000003_Node000028"><a xlink:title=" ">
<path fill="none" stroke="#63b8ff" d="M335.81,-127.1C352.77,-122.66 373.19,-117.32 391.5,-112.54"/>
<polygon fill="#63b8ff" stroke="#63b8ff" points="392.33,-115.94 401.12,-110.02 390.56,-109.17 392.33,-115.94"/>
</a>
</g>
</g>
<!-- Node33 -->
<g id="Node000033" class="node">
<title>Node33</title>
<g id="a_Node000033"><a xlink:href="../../d0/d2d/iop_8blk.html#ae025571981c4f71a758fb91e70ec2013" target="_top" xlink:title=" ">
<polygon fill="white" stroke="#666666" points="492.62,-146.25 391.12,-146.25 391.12,-127 492.62,-127 492.62,-146.25"/>
<text text-anchor="middle" x="441.88" y="-132.75" font-family="Helvetica,sans-Serif" font-size="10.00">iop_field_set_defval</text>
</a>
</g>
</g>
<!-- Node3&#45;&gt;Node33 -->
<g id="edge37_Node000003_Node000033" class="edge">
<title>Node3&#45;&gt;Node33</title>
<g id="a_edge37_Node000003_Node000033"><a xlink:title=" ">
<path fill="none" stroke="#63b8ff" d="M335.81,-136.62C349.13,-136.62 364.58,-136.62 379.46,-136.62"/>
<polygon fill="#63b8ff" stroke="#63b8ff" points="379.18,-140.13 389.18,-136.63 379.18,-133.13 379.18,-140.13"/>
</a>
</g>
</g>
<!-- Node5 -->
<g id="Node000005" class="node">
<title>Node5</title>
<g id="a_Node000005"><a xlink:href="../../d7/df8/log_8c.html#a4bc04f7baa1e064cb0b93c7b9f3a61a1" target="_top" xlink:title=" ">
<polygon fill="white" stroke="#666666" points="768.75,-90.25 680.75,-90.25 680.75,-71 768.75,-71 768.75,-90.25"/>
<text text-anchor="middle" x="724.75" y="-76.75" font-family="Helvetica,sans-Serif" font-size="10.00">__logger_refresh</text>
</a>
</g>
</g>
<!-- Node4&#45;&gt;Node5 -->
<g id="edge4_Node000004_Node000005" class="edge">
<title>Node4&#45;&gt;Node5</title>
<g id="a_edge4_Node000004_Node000005"><a xlink:title=" ">
<path fill="none" stroke="#63b8ff" d="M593.15,-239.56C615.87,-211.9 679.52,-134.45 708.74,-98.89"/>
<polygon fill="#63b8ff" stroke="#63b8ff" points="711.09,-101.54 714.74,-91.6 705.68,-97.1 711.09,-101.54"/>
</a>
</g>
</g>
<!-- Node23 -->
<g id="Node000023" class="node">
<title>Node23</title>
<g id="a_Node000023"><a xlink:href="../../d7/df8/log_8c.html#a900490b26df7698aac12f7f7e6517e81" target="_top" xlink:title=" ">
<polygon fill="white" stroke="#666666" points="757.5,-245.25 692,-245.25 692,-226 757.5,-226 757.5,-245.25"/>
<text text-anchor="middle" x="724.75" y="-231.75" font-family="Helvetica,sans-Serif" font-size="10.00">logger_vlog</text>
</a>
</g>
</g>
<!-- Node4&#45;&gt;Node23 -->
<g id="edge26_Node000004_Node000023" class="edge">
<title>Node4&#45;&gt;Node23</title>
<g id="a_edge26_Node000004_Node000023"><a xlink:title=" ">
<path fill="none" stroke="#63b8ff" d="M609.07,-247.19C628.61,-245.22 656.63,-242.39 680.08,-240.03"/>
<polygon fill="#63b8ff" stroke="#63b8ff" points="680.4,-243.51 690,-239.03 679.7,-236.55 680.4,-243.51"/>
</a>
</g>
</g>
<!-- Node27 -->
<g id="Node000027" class="node">
<title>Node27</title>
<g id="a_Node000027"><a xlink:href="../../d2/d4d/file_8h.html#a25419a391fdd4ad7954699c58cfeb3b9" target="_top" xlink:title=" ">
<polygon fill="white" stroke="#666666" points="750.38,-321.25 699.12,-321.25 699.12,-302 750.38,-302 750.38,-321.25"/>
<text text-anchor="middle" x="724.75" y="-307.75" font-family="Helvetica,sans-Serif" font-size="10.00">va_start</text>
</a>
</g>
</g>
<!-- Node4&#45;&gt;Node27 -->
<g id="edge31_Node000004_Node000027" class="edge">
<title>Node4&#45;&gt;Node27</title>
<g id="a_edge31_Node000004_Node000027"><a xlink:title=" ">
<path fill="none" stroke="#63b8ff" d="M609.1,-256.67C618.51,-259.67 629.27,-263.45 638.75,-267.62 655.5,-275 658.53,-279.15 674.75,-287.62 680.42,-290.58 686.5,-293.65 692.39,-296.57"/>
<polygon fill="#63b8ff" stroke="#63b8ff" points="690.77,-299.67 701.29,-300.92 693.84,-293.38 690.77,-299.67"/>
</a>
</g>
</g>
<!-- Node6 -->
<g id="Node000006" class="node">
<title>Node6</title>
<g id="a_Node000006"><a xlink:href="../../d7/df8/log_8c.html#a3dbd75fb614210f0b114cfd03c9c0a7b" target="_top" xlink:title=" ">
<polygon fill="white" stroke="#666666" points="914.5,-118.25 810.75,-118.25 810.75,-99 914.5,-99 914.5,-118.25"/>
<text text-anchor="middle" x="862.62" y="-104.75" font-family="Helvetica,sans-Serif" font-size="10.00">__logger_do_refresh</text>
</a>
</g>
</g>
<!-- Node5&#45;&gt;Node6 -->
<g id="edge5_Node000005_Node000006" class="edge">
<title>Node5&#45;&gt;Node6</title>
<g id="a_edge5_Node000005_Node000006"><a xlink:title=" ">
<path fill="none" stroke="#63b8ff" d="M769.12,-89.56C779.38,-91.68 790.5,-93.97 801.36,-96.21"/>
<polygon fill="#63b8ff" stroke="#63b8ff" points="800.55,-99.61 811.05,-98.2 801.96,-92.76 800.55,-99.61"/>
</a>
</g>
</g>
<!-- Node21 -->
<g id="Node000021" class="node">
<title>Node21</title>
<g id="a_Node000021"><a xlink:href="../../d7/df8/log_8c.html#a7b1b02d1986e1247c2f571af4a2c2854" target="_top" xlink:title=" ">
<polygon fill="white" stroke="#666666" points="900.25,-44.25 825,-44.25 825,-25 900.25,-25 900.25,-44.25"/>
<text text-anchor="middle" x="862.62" y="-30.75" font-family="Helvetica,sans-Serif" font-size="10.00">log_spin_lock</text>
</a>
</g>
</g>
<!-- Node5&#45;&gt;Node21 -->
<g id="edge24_Node000005_Node000021" class="edge">
<title>Node5&#45;&gt;Node21</title>
<g id="a_edge24_Node000005_Node000021"><a xlink:title=" ">
<path fill="none" stroke="#63b8ff" d="M755.57,-70.53C774.77,-64.03 799.98,-55.49 821.01,-48.38"/>
<polygon fill="#63b8ff" stroke="#63b8ff" points="822.09,-51.7 830.44,-45.18 819.85,-45.07 822.09,-51.7"/>
</a>
</g>
</g>
<!-- Node22 -->
<g id="Node000022" class="node">
<title>Node22</title>
<g id="a_Node000022"><a xlink:href="../../d1/dc0/group__log.html#ga045020bb4af234632f7761f220131c69" target="_top" xlink:title=" ">
<polygon fill="white" stroke="#666666" points="905.5,-81.25 819.75,-81.25 819.75,-62 905.5,-62 905.5,-81.25"/>
<text text-anchor="middle" x="862.62" y="-67.75" font-family="Helvetica,sans-Serif" font-size="10.00">log_spin_unlock</text>
</a>
</g>
</g>
<!-- Node5&#45;&gt;Node22 -->
<g id="edge25_Node000005_Node000022" class="edge">
<title>Node5&#45;&gt;Node22</title>
<g id="a_edge25_Node000005_Node000022"><a xlink:title=" ">
<path fill="none" stroke="#63b8ff" d="M769.12,-77.75C781.61,-76.93 795.39,-76.01 808.4,-75.15"/>
<polygon fill="#63b8ff" stroke="#63b8ff" points="808.34,-78.66 818.09,-74.51 807.88,-71.68 808.34,-78.66"/>
</a>
</g>
</g>
<!-- Node6&#45;&gt;Node6 -->
<g id="edge6_Node000006_Node000006" class="edge">
<title>Node6&#45;&gt;Node6</title>
<g id="a_edge6_Node000006_Node000006"><a xlink:title=" ">
<path fill="none" stroke="#63b8ff" d="M841.04,-118.54C831.19,-127.15 838.39,-136.25 862.62,-136.25 875.88,-136.25 884.04,-133.53 887.1,-129.65"/>
<polygon fill="#63b8ff" stroke="#63b8ff" points="890.49,-128.8 884.59,-120 883.72,-130.56 890.49,-128.8"/>
</a>
</g>
</g>
<!-- Node7 -->
<g id="Node000007" class="node">
<title>Node7</title>
<g id="a_Node000007"><a xlink:href="../../de/d1a/container-dlist_8h.html#a3b6f65860b212e28f2e28e71eb54d54d" target="_top" xlink:title="Add element e at the head of list l (suited for LIFO).">
<polygon fill="white" stroke="#666666" points="1041.5,-56.25 986.5,-56.25 986.5,-37 1041.5,-37 1041.5,-56.25"/>
<text text-anchor="middle" x="1014" y="-42.75" font-family="Helvetica,sans-Serif" font-size="10.00">dlist_add</text>
</a>
</g>
</g>
<!-- Node6&#45;&gt;Node7 -->
<g id="edge7_Node000006_Node000007" class="edge">
<title>Node6&#45;&gt;Node7</title>
<g id="a_edge7_Node000006_Node000007"><a xlink:title=" ">
<path fill="none" stroke="#63b8ff" d="M894.62,-98.59C901.26,-96.18 908.18,-93.47 914.5,-90.62 931.19,-83.1 933.92,-78.37 950.5,-70.62 958.48,-66.9 967.22,-63.27 975.56,-60.02"/>
<polygon fill="#63b8ff" stroke="#63b8ff" points="976.68,-63.34 984.78,-56.51 974.19,-56.79 976.68,-63.34"/>
</a>
</g>
</g>
<!-- Node9 -->
<g id="Node000009" class="node">
<title>Node9</title>
<g id="a_Node000009"><a xlink:href="../../de/d1a/container-dlist_8h.html#a0a69e401f6ec15966c891e96ad864c77" target="_top" xlink:title="Put a dlist_t element in a safe and detached state.">
<polygon fill="white" stroke="#666666" points="1040,-19.25 988,-19.25 988,0 1040,0 1040,-19.25"/>
<text text-anchor="middle" x="1014" y="-5.75" font-family="Helvetica,sans-Serif" font-size="10.00">dlist_init</text>
</a>
</g>
</g>
<!-- Node6&#45;&gt;Node9 -->
<g id="edge9_Node000006_Node000009" class="edge">
<title>Node6&#45;&gt;Node9</title>
<g id="a_edge9_Node000006_Node000009"><a xlink:title=" ">
<path fill="none" stroke="#63b8ff" d="M901.93,-98.5C906.44,-96.35 910.76,-93.75 914.5,-90.62 939.25,-69.95 925.14,-47.55 950.5,-27.62 958.01,-21.72 967.38,-17.76 976.57,-15.09"/>
<polygon fill="#63b8ff" stroke="#63b8ff" points="977.17,-18.54 986.07,-12.79 975.52,-11.74 977.17,-18.54"/>
</a>
</g>
</g>
<!-- Node10 -->
<g id="Node000010" class="node">
<title>Node10</title>
<g id="a_Node000010"><a xlink:href="../../d7/df8/log_8c.html#a4c8fbe8648573312126ce341cf34cba1" target="_top" xlink:title=" ">
<polygon fill="white" stroke="#666666" points="1077.5,-169.25 950.5,-169.25 950.5,-150 1077.5,-150 1077.5,-169.25"/>
<text text-anchor="middle" x="1014" y="-155.75" font-family="Helvetica,sans-Serif" font-size="10.00">logger_compute_fullname</text>
</a>
</g>
</g>
<!-- Node6&#45;&gt;Node10 -->
<g id="edge10_Node000006_Node000010" class="edge">
<title>Node6&#45;&gt;Node10</title>
<g id="a_edge10_Node000006_Node000010"><a xlink:title=" ">
<path fill="none" stroke="#63b8ff" d="M888.52,-118.71C905.78,-125.55 929.38,-134.58 950.5,-141.62 955.27,-143.21 960.27,-144.8 965.28,-146.32"/>
<polygon fill="#63b8ff" stroke="#63b8ff" points="964.13,-149.63 974.71,-149.13 966.12,-142.92 964.13,-149.63"/>
</a>
</g>
</g>
<!-- Node13 -->
<g id="Node000013" class="node">
<title>Node13</title>
<g id="a_Node000013"><a xlink:href="../../df/d0a/str-l_8h.html#ad74dae07179370f3c22e3f026157926e" target="_top" xlink:title="wipe a lstr_t (frees memory if needed).">
<polygon fill="white" stroke="#666666" points="1185,-169.25 1130,-169.25 1130,-150 1185,-150 1185,-169.25"/>
<text text-anchor="middle" x="1157.5" y="-155.75" font-family="Helvetica,sans-Serif" font-size="10.00">lstr_wipe</text>
</a>
</g>
</g>
<!-- Node6&#45;&gt;Node13 -->
<g id="edge23_Node000006_Node000013" class="edge">
<title>Node6&#45;&gt;Node13</title>
<g id="a_edge23_Node000006_Node000013"><a xlink:title=" ">
<path fill="none" stroke="#63b8ff" d="M912.9,-98.54C957.1,-91.57 1023.18,-86.32 1077.5,-103.62 1101.11,-111.15 1123.73,-128.57 1138.66,-142"/>
<polygon fill="#63b8ff" stroke="#63b8ff" points="1136.11,-144.41 1145.8,-148.69 1140.9,-139.3 1136.11,-144.41"/>
</a>
</g>
</g>
<!-- Node20 -->
<g id="Node000020" class="node">
<title>Node20</title>
<g id="a_Node000020"><a xlink:href="../../df/d0a/str-l_8h.html#a963c22b229774d4b7c106bae4011cb8e" target="_top" xlink:title="Returns whether \v s1 and \v s2 contents are equal.">
<polygon fill="white" stroke="#666666" points="1043,-132.25 985,-132.25 985,-113 1043,-113 1043,-132.25"/>
<text text-anchor="middle" x="1014" y="-118.75" font-family="Helvetica,sans-Serif" font-size="10.00">lstr_equal</text>
</a>
</g>
</g>
<!-- Node6&#45;&gt;Node20 -->
<g id="edge22_Node000006_Node000020" class="edge">
<title>Node6&#45;&gt;Node20</title>
<g id="a_edge22_Node000006_Node000020"><a xlink:title=" ">
<path fill="none" stroke="#63b8ff" d="M914.61,-113.4C933.89,-115.21 955.51,-117.24 973.57,-118.93"/>
<polygon fill="#63b8ff" stroke="#63b8ff" points="973.07,-122.4 983.35,-119.85 973.72,-115.43 973.07,-122.4"/>
</a>
</g>
</g>
<!-- Node8 -->
<g id="Node000008" class="node">
<title>Node8</title>
<g id="a_Node000008"><a xlink:href="../../de/d1a/container-dlist_8h.html#a71e7667ca0e4b896923788c5851afd24" target="_top" xlink:title="Put element e between prev and next.">
<polygon fill="white" stroke="#666666" points="1190.25,-56.25 1124.75,-56.25 1124.75,-37 1190.25,-37 1190.25,-56.25"/>
<text text-anchor="middle" x="1157.5" y="-42.75" font-family="Helvetica,sans-Serif" font-size="10.00">__dlist_add</text>
</a>
</g>
</g>
<!-- Node7&#45;&gt;Node8 -->
<g id="edge8_Node000007_Node000008" class="edge">
<title>Node7&#45;&gt;Node8</title>
<g id="a_edge8_Node000007_Node000008"><a xlink:title=" ">
<path fill="none" stroke="#63b8ff" d="M1041.95,-46.62C1062.05,-46.62 1089.92,-46.62 1113.14,-46.62"/>
<polygon fill="#63b8ff" stroke="#63b8ff" points="1112.94,-50.13 1122.94,-46.63 1112.94,-43.13 1112.94,-50.13"/>
</a>
</g>
</g>
<!-- Node11 -->
<g id="Node000011" class="node">
<title>Node11</title>
<g id="a_Node000011"><a xlink:href="../../df/d0a/str-l_8h.html#a6a200ca09358f19b13a8e297cda34869" target="_top" xlink:title="returns a constant copy of \v s.">
<polygon fill="white" stroke="#666666" points="1185.38,-207.25 1129.62,-207.25 1129.62,-188 1185.38,-188 1185.38,-207.25"/>
<text text-anchor="middle" x="1157.5" y="-193.75" font-family="Helvetica,sans-Serif" font-size="10.00">lstr_dupc</text>
</a>
</g>
</g>
<!-- Node10&#45;&gt;Node11 -->
<g id="edge11_Node000010_Node000011" class="edge">
<title>Node10&#45;&gt;Node11</title>
<g id="a_edge11_Node000010_Node000011"><a xlink:title=" ">
<path fill="none" stroke="#63b8ff" d="M1052.55,-169.71C1072.9,-175.17 1098,-181.91 1118.43,-187.4"/>
<polygon fill="#63b8ff" stroke="#63b8ff" points="1117.52,-190.78 1128.08,-189.99 1119.33,-184.02 1117.52,-190.78"/>
</a>
</g>
</g>
<!-- Node10&#45;&gt;Node13 -->
<g id="edge13_Node000010_Node000013" class="edge">
<title>Node10&#45;&gt;Node13</title>
<g id="a_edge13_Node000010_Node000013"><a xlink:title=" ">
<path fill="none" stroke="#63b8ff" d="M1077.89,-159.62C1091.65,-159.62 1105.81,-159.62 1118.26,-159.62"/>
<polygon fill="#63b8ff" stroke="#63b8ff" points="1118.08,-163.13 1128.08,-159.63 1118.08,-156.13 1118.08,-163.13"/>
</a>
</g>
</g>
<!-- Node12 -->
<g id="Node000012" class="node">
<title>Node12</title>
<g id="a_Node000012"><a xlink:href="../../df/d0a/str-l_8h.html#a3b4dbe9c4cc70340cba0787574dc1c5e" target="_top" xlink:title=" ">
<polygon fill="white" stroke="#666666" points="1515,-207.25 1462.25,-207.25 1462.25,-188 1515,-188 1515,-207.25"/>
<text text-anchor="middle" x="1488.62" y="-193.75" font-family="Helvetica,sans-Serif" font-size="10.00">lstr_init_</text>
</a>
</g>
</g>
<!-- Node11&#45;&gt;Node12 -->
<g id="edge12_Node000011_Node000012" class="edge">
<title>Node11&#45;&gt;Node12</title>
<g id="a_edge12_Node000011_Node000012"><a xlink:title=" ">
<path fill="none" stroke="#63b8ff" d="M1185.71,-197.62C1244.56,-197.62 1383.69,-197.62 1450.53,-197.62"/>
<polygon fill="#63b8ff" stroke="#63b8ff" points="1450.24,-201.13 1460.24,-197.63 1450.24,-194.13 1450.24,-201.13"/>
</a>
</g>
</g>
<!-- Node14 -->
<g id="Node000014" class="node">
<title>Node14</title>
<g id="a_Node000014"><a xlink:href="../../df/d0a/str-l_8h.html#a381cd831ac9616c5bea8213bb679d1ac" target="_top" xlink:title="Wipe a lstr_t (frees memory if needed).">
<polygon fill="white" stroke="#666666" points="1311.25,-169.25 1237.5,-169.25 1237.5,-150 1311.25,-150 1311.25,-169.25"/>
<text text-anchor="middle" x="1274.38" y="-155.75" font-family="Helvetica,sans-Serif" font-size="10.00">mp_lstr_wipe</text>
</a>
</g>
</g>
<!-- Node13&#45;&gt;Node14 -->
<g id="edge14_Node000013_Node000014" class="edge">
<title>Node13&#45;&gt;Node14</title>
<g id="a_edge14_Node000013_Node000014"><a xlink:title=" ">
<path fill="none" stroke="#63b8ff" d="M1185.43,-159.62C1197.45,-159.62 1211.98,-159.62 1225.74,-159.62"/>
<polygon fill="#63b8ff" stroke="#63b8ff" points="1225.53,-163.13 1235.53,-159.63 1225.53,-156.13 1225.53,-163.13"/>
</a>
</g>
</g>
<!-- Node15 -->
<g id="Node000015" class="node">
<title>Node15</title>
<g id="a_Node000015"><a xlink:href="../../de/d04/str-l_8c.html#abe2a3a71f0b4dbc7d37c59d16762b6fb" target="_top" xlink:title="lstr_copy_* helper.">
<polygon fill="white" stroke="#666666" points="1426.25,-169.25 1347.25,-169.25 1347.25,-150 1426.25,-150 1426.25,-169.25"/>
<text text-anchor="middle" x="1386.75" y="-155.75" font-family="Helvetica,sans-Serif" font-size="10.00">mp_lstr_copy_</text>
</a>
</g>
</g>
<!-- Node14&#45;&gt;Node15 -->
<g id="edge15_Node000014_Node000015" class="edge">
<title>Node14&#45;&gt;Node15</title>
<g id="a_edge15_Node000014_Node000015"><a xlink:title=" ">
<path fill="none" stroke="#63b8ff" d="M1311.52,-159.62C1319.21,-159.62 1327.46,-159.62 1335.57,-159.62"/>
<polygon fill="#63b8ff" stroke="#63b8ff" points="1335.35,-163.13 1345.35,-159.63 1335.35,-156.13 1335.35,-163.13"/>
</a>
</g>
</g>
<!-- Node15&#45;&gt;Node12 -->
<g id="edge21_Node000015_Node000012" class="edge">
<title>Node15&#45;&gt;Node12</title>
<g id="a_edge21_Node000015_Node000012"><a xlink:title=" ">
<path fill="none" stroke="#63b8ff" d="M1414.25,-169.71C1425.69,-174.06 1439.26,-179.22 1451.6,-183.92"/>
<polygon fill="#63b8ff" stroke="#63b8ff" points="1450.03,-187.07 1460.62,-187.35 1452.52,-180.52 1450.03,-187.07"/>
</a>
</g>
</g>
<!-- Node16 -->
<g id="Node000016" class="node">
<title>Node16</title>
<g id="a_Node000016"><a xlink:href="../../d9/d9a/mem_8h.html#aebbbd277e2952bdb802104671ba23ba9" target="_top" xlink:title=" ">
<polygon fill="white" stroke="#666666" points="1506,-170.25 1471.25,-170.25 1471.25,-151 1506,-151 1506,-170.25"/>
<text text-anchor="middle" x="1488.62" y="-156.75" font-family="Helvetica,sans-Serif" font-size="10.00">ifree</text>
</a>
</g>
</g>
<!-- Node15&#45;&gt;Node16 -->
<g id="edge16_Node000015_Node000016" class="edge">
<title>Node15&#45;&gt;Node16</title>
<g id="a_edge16_Node000015_Node000016"><a xlink:title=" ">
<path fill="none" stroke="#63b8ff" d="M1426.65,-160.01C1437.55,-160.12 1449.2,-160.24 1459.35,-160.34"/>
<polygon fill="#63b8ff" stroke="#63b8ff" points="1459.31,-163.84 1469.35,-160.44 1459.38,-156.84 1459.31,-163.84"/>
</a>
</g>
</g>
<!-- Node17 -->
<g id="Node000017" class="node">
<title>Node17</title>
<g id="a_Node000017"><a xlink:href="../../d8/d37/mem_8blk.html#a36b65ab346f1d0deed7b63c544c78f2b" target="_top" xlink:title=" ">
<polygon fill="white" stroke="#666666" points="1595.88,-245.25 1559.62,-245.25 1559.62,-226 1595.88,-226 1595.88,-245.25"/>
<text text-anchor="middle" x="1577.75" y="-231.75" font-family="Helvetica,sans-Serif" font-size="10.00">ipool</text>
</a>
</g>
</g>
<!-- Node16&#45;&gt;Node17 -->
<g id="edge17_Node000016_Node000017" class="edge">
<title>Node16&#45;&gt;Node17</title>
<g id="a_edge17_Node000016_Node000017"><a xlink:title=" ">
<path fill="none" stroke="#63b8ff" d="M1504.36,-170.59C1507.91,-173.13 1511.64,-175.9 1515,-178.62 1530.32,-191.05 1546.68,-206.24 1558.71,-217.82"/>
<polygon fill="#63b8ff" stroke="#63b8ff" points="1555.93,-220 1565.54,-224.47 1560.81,-214.98 1555.93,-220"/>
</a>
</g>
</g>
<!-- Node19 -->
<g id="Node000019" class="node">
<title>Node19</title>
<g id="a_Node000019"><a xlink:href="../../d8/d37/mem_8blk.html#a83c7cf203e5eef9d1a8c6c43cde3e2e5" target="_top" xlink:title=" ">
<polygon fill="white" stroke="#666666" points="1604.5,-170.25 1551,-170.25 1551,-151 1604.5,-151 1604.5,-170.25"/>
<text text-anchor="middle" x="1577.75" y="-156.75" font-family="Helvetica,sans-Serif" font-size="10.00">mp_ifree</text>
</a>
</g>
</g>
<!-- Node16&#45;&gt;Node19 -->
<g id="edge20_Node000016_Node000019" class="edge">
<title>Node16&#45;&gt;Node19</title>
<g id="a_edge20_Node000016_Node000019"><a xlink:title=" ">
<path fill="none" stroke="#63b8ff" d="M1506.42,-160.62C1515.84,-160.62 1527.99,-160.62 1539.53,-160.62"/>
<polygon fill="#63b8ff" stroke="#63b8ff" points="1539.23,-164.13 1549.23,-160.63 1539.23,-157.13 1539.23,-164.13"/>
</a>
</g>
</g>
<!-- Node17&#45;&gt;Node4 -->
<g id="edge18_Node000017_Node000004" class="edge">
<title>Node17&#45;&gt;Node4</title>
<g id="a_edge18_Node000017_Node000004"><a xlink:title=" ">
<path fill="none" stroke="#63b8ff" d="M1559.27,-241.56C1526.19,-252.25 1452.01,-273.62 1387.75,-273.62 861.62,-273.62 861.62,-273.62 861.62,-273.62 774.83,-273.62 673.28,-261.76 620.63,-254.72"/>
<polygon fill="#63b8ff" stroke="#63b8ff" points="621.13,-251.25 610.75,-253.37 620.18,-258.19 621.13,-251.25"/>
</a>
</g>
</g>
<!-- Node18 -->
<g id="Node000018" class="node">
<title>Node18</title>
<g id="a_Node000018"><a xlink:href="../../d1/d10/mem-stack_8h.html#a1d0e2a29f86dc033a02e50484b527fd0" target="_top" xlink:title=" ">
<polygon fill="white" stroke="#666666" points="1682.75,-245.25 1640.5,-245.25 1640.5,-226 1682.75,-226 1682.75,-245.25"/>
<text text-anchor="middle" x="1661.62" y="-231.75" font-family="Helvetica,sans-Serif" font-size="10.00">t_pool</text>
</a>
</g>
</g>
<!-- Node17&#45;&gt;Node18 -->
<g id="edge19_Node000017_Node000018" class="edge">
<title>Node17&#45;&gt;Node18</title>
<g id="a_edge19_Node000017_Node000018"><a xlink:title=" ">
<path fill="none" stroke="#63b8ff" d="M1596.11,-235.62C1605.56,-235.62 1617.54,-235.62 1628.61,-235.62"/>
<polygon fill="#63b8ff" stroke="#63b8ff" points="1628.59,-239.13 1638.59,-235.63 1628.59,-232.13 1628.59,-239.13"/>
</a>
</g>
</g>
<!-- Node23&#45;&gt;Node11 -->
<g id="edge30_Node000023_Node000011" class="edge">
<title>Node23&#45;&gt;Node11</title>
<g id="a_edge30_Node000023_Node000011"><a xlink:title=" ">
<path fill="none" stroke="#63b8ff" d="M757.81,-227.14C773.64,-223.3 793.08,-219.07 810.75,-216.62 921.75,-201.28 1054.41,-198.21 1118.34,-197.67"/>
<polygon fill="#63b8ff" stroke="#63b8ff" points="1117.97,-201.17 1127.94,-197.61 1117.92,-194.17 1117.97,-201.17"/>
</a>
</g>
</g>
<!-- Node24 -->
<g id="Node000024" class="node">
<title>Node24</title>
<g id="a_Node000024"><a xlink:href="../../d1/dc0/group__log.html#ga168a6f17b248f61f7d25a17d58d04e36" target="_top" xlink:title=" ">
<polygon fill="white" stroke="#666666" points="907,-245.25 818.25,-245.25 818.25,-226 907,-226 907,-245.25"/>
<text text-anchor="middle" x="862.62" y="-231.75" font-family="Helvetica,sans-Serif" font-size="10.00">logger_has_level</text>
</a>
</g>
</g>
<!-- Node23&#45;&gt;Node24 -->
<g id="edge27_Node000023_Node000024" class="edge">
<title>Node23&#45;&gt;Node24</title>
<g id="a_edge27_Node000023_Node000024"><a xlink:title=" ">
<path fill="none" stroke="#63b8ff" d="M757.95,-235.62C772.49,-235.62 790.08,-235.62 806.61,-235.62"/>
<polygon fill="#63b8ff" stroke="#63b8ff" points="806.32,-239.13 816.32,-235.63 806.32,-232.13 806.32,-239.13"/>
</a>
</g>
</g>
<!-- Node25 -->
<g id="Node000025" class="node">
<title>Node25</title>
<g id="a_Node000025"><a xlink:href="../../d1/dc0/group__log.html#gaf388752b988541da0abeceecdf96e6b3" target="_top" xlink:title=" ">
<polygon fill="white" stroke="#666666" points="1057.25,-245.25 970.75,-245.25 970.75,-226 1057.25,-226 1057.25,-245.25"/>
<text text-anchor="middle" x="1014" y="-231.75" font-family="Helvetica,sans-Serif" font-size="10.00">logger_get_level</text>
</a>
</g>
</g>
<!-- Node24&#45;&gt;Node25 -->
<g id="edge28_Node000024_Node000025" class="edge">
<title>Node24&#45;&gt;Node25</title>
<g id="a_edge28_Node000024_Node000025"><a xlink:title=" ">
<path fill="none" stroke="#63b8ff" d="M907.23,-235.62C923.39,-235.62 941.92,-235.62 958.9,-235.62"/>
<polygon fill="#63b8ff" stroke="#63b8ff" points="958.86,-239.13 968.86,-235.63 958.86,-232.13 958.86,-239.13"/>
</a>
</g>
</g>
<!-- Node26 -->
<g id="Node000026" class="node">
<title>Node26</title>
<g id="a_Node000026"><a xlink:href="../../d1/dc0/group__log.html#ga93cbd623096e1704532d15b3eb30e42f" target="_top" xlink:title=" ">
<polygon fill="white" stroke="#666666" points="1201.5,-245.25 1113.5,-245.25 1113.5,-226 1201.5,-226 1201.5,-245.25"/>
<text text-anchor="middle" x="1157.5" y="-231.75" font-family="Helvetica,sans-Serif" font-size="10.00">__logger_refresh</text>
</a>
</g>
</g>
<!-- Node25&#45;&gt;Node26 -->
<g id="edge29_Node000025_Node000026" class="edge">
<title>Node25&#45;&gt;Node26</title>
<g id="a_edge29_Node000025_Node000026"><a xlink:title=" ">
<path fill="none" stroke="#63b8ff" d="M1057.45,-235.62C1071.33,-235.62 1086.94,-235.62 1101.6,-235.62"/>
<polygon fill="#63b8ff" stroke="#63b8ff" points="1101.58,-239.13 1111.58,-235.63 1101.58,-232.13 1101.58,-239.13"/>
</a>
</g>
</g>
<!-- Node29 -->
<g id="Node000029" class="node">
<title>Node29</title>
<g id="a_Node000029"><a xlink:href="../../d3/d40/iop_8h.html#a766d8c1f5a9d3e12bba0150208905df0" target="_top" xlink:title=" ">
<polygon fill="white" stroke="#666666" points="630.12,-165.25 537.62,-165.25 537.62,-146 630.12,-146 630.12,-165.25"/>
<text text-anchor="middle" x="583.88" y="-151.75" font-family="Helvetica,sans-Serif" font-size="10.00">iop_field_is_class</text>
</a>
</g>
</g>
<!-- Node28&#45;&gt;Node29 -->
<g id="edge33_Node000028_Node000029" class="edge">
<title>Node28&#45;&gt;Node29</title>
<g id="a_edge33_Node000028_Node000029"><a xlink:title=" ">
<path fill="none" stroke="#63b8ff" d="M473.41,-109.7C479.95,-112.1 486.77,-114.8 493,-117.62 509.67,-125.19 512.25,-130.25 529,-137.62 532.15,-139.01 535.44,-140.35 538.77,-141.64"/>
<polygon fill="#63b8ff" stroke="#63b8ff" points="537.44,-144.88 548.04,-145.01 539.84,-138.3 537.44,-144.88"/>
</a>
</g>
</g>
<!-- Node31 -->
<g id="Node000031" class="node">
<title>Node31</title>
<g id="a_Node000031"><a xlink:href="../../d3/d40/iop_8h.html#aefeceb12938118fa0e6a7ec4beed0049" target="_top" xlink:title=" ">
<polygon fill="white" stroke="#666666" points="638.75,-128.25 529,-128.25 529,-109 638.75,-109 638.75,-128.25"/>
<text text-anchor="middle" x="583.88" y="-114.75" font-family="Helvetica,sans-Serif" font-size="10.00">iop_field_is_reference</text>
</a>
</g>
</g>
<!-- Node28&#45;&gt;Node31 -->
<g id="edge35_Node000028_Node000031" class="edge">
<title>Node28&#45;&gt;Node31</title>
<g id="a_edge35_Node000028_Node000031"><a xlink:title=" ">
<path fill="none" stroke="#63b8ff" d="M492.63,-106.38C500.62,-107.46 509.01,-108.6 517.31,-109.73"/>
<polygon fill="#63b8ff" stroke="#63b8ff" points="516.65,-113.17 527.03,-111.05 517.59,-106.23 516.65,-113.17"/>
</a>
</g>
</g>
<!-- Node32 -->
<g id="Node000032" class="node">
<title>Node32</title>
<g id="a_Node000032"><a xlink:href="../../d0/d2d/iop_8blk.html#af138a610122e2e92f0bad6e5c05432bd" target="_top" xlink:title="Return whether the IOP type is scalar or not.">
<polygon fill="white" stroke="#666666" points="632,-91.25 535.75,-91.25 535.75,-72 632,-72 632,-91.25"/>
<text text-anchor="middle" x="583.88" y="-77.75" font-family="Helvetica,sans-Serif" font-size="10.00">iop_type_is_scalar</text>
</a>
</g>
</g>
<!-- Node28&#45;&gt;Node32 -->
<g id="edge36_Node000028_Node000032" class="edge">
<title>Node28&#45;&gt;Node32</title>
<g id="a_edge36_Node000028_Node000032"><a xlink:title=" ">
<path fill="none" stroke="#63b8ff" d="M492.63,-93.23C502.9,-91.91 513.81,-90.5 524.36,-89.15"/>
<polygon fill="#63b8ff" stroke="#63b8ff" points="524.65,-92.64 534.13,-87.89 523.76,-85.7 524.65,-92.64"/>
</a>
</g>
</g>
<!-- Node29&#45;&gt;Node30 -->
<g id="edge34_Node000029_Node000030" class="edge">
<title>Node29&#45;&gt;Node30</title>
<g id="a_edge34_Node000029_Node000030"><a xlink:title=" ">
<path fill="none" stroke="#63b8ff" d="M626.76,-145.51C631.1,-143.36 635.21,-140.77 638.75,-137.62 666.71,-112.83 647.16,-86.83 674.75,-61.62 675.51,-60.93 676.3,-60.26 677.12,-59.62"/>
<polygon fill="#63b8ff" stroke="#63b8ff" points="678.74,-62.73 685.34,-54.45 675.01,-56.81 678.74,-62.73"/>
</a>
</g>
</g>
<!-- Node35 -->
<g id="Node000035" class="node">
<title>Node35</title>
<g id="a_Node000035"><a xlink:href="../../d8/d37/mem_8blk.html#a5666a1403bcf2bd8e114c23f8021d1ac" target="_top" xlink:title=" ">
<polygon fill="white" stroke="#666666" points="336.38,-259.25 260.38,-259.25 260.38,-240 336.38,-240 336.38,-259.25"/>
<text text-anchor="middle" x="298.38" y="-245.75" font-family="Helvetica,sans-Serif" font-size="10.00">__mp_imalloc</text>
</a>
</g>
</g>
<!-- Node34&#45;&gt;Node35 -->
<g id="edge41_Node000034_Node000035" class="edge">
<title>Node34&#45;&gt;Node35</title>
<g id="a_edge41_Node000034_Node000035"><a xlink:title=" ">
<path fill="none" stroke="#63b8ff" d="M202.52,-221.96C217.43,-226.31 235.44,-231.56 251.74,-236.32"/>
<polygon fill="#63b8ff" stroke="#63b8ff" points="250.66,-239.65 261.24,-239.09 252.62,-232.93 250.66,-239.65"/>
</a>
</g>
</g>
<!-- Node39 -->
<g id="Node000039" class="node">
<title>Node39</title>
<g id="a_Node000039"><a xlink:href="../../d9/d9a/mem_8h.html#ae99e17ad0b27e94e8a00c8af9734a0e7" target="_top" xlink:title=" ">
<polygon fill="white" stroke="#666666" points="354.75,-222.25 242,-222.25 242,-203 354.75,-203 354.75,-222.25"/>
<text text-anchor="middle" x="298.38" y="-208.75" font-family="Helvetica,sans-Serif" font-size="10.00">icheck_alloc_constant</text>
</a>
</g>
</g>
<!-- Node34&#45;&gt;Node39 -->
<g id="edge46_Node000034_Node000039" class="edge">
<title>Node34&#45;&gt;Node39</title>
<g id="a_edge46_Node000034_Node000039"><a xlink:title=" ">
<path fill="none" stroke="#63b8ff" d="M202.52,-212.62C211.06,-212.62 220.63,-212.62 230.31,-212.62"/>
<polygon fill="#63b8ff" stroke="#63b8ff" points="230.15,-216.13 240.15,-212.63 230.15,-209.13 230.15,-216.13"/>
</a>
</g>
</g>
<!-- Node36 -->
<g id="Node000036" class="node">
<title>Node36</title>
<g id="a_Node000036"><a xlink:href="../../d8/d37/mem_8blk.html#a8e4fbf6500e65079c31e3fd933ae7dc1" target="_top" xlink:title=" ">
<polygon fill="white" stroke="#666666" points="476.88,-259.25 406.88,-259.25 406.88,-240 476.88,-240 476.88,-259.25"/>
<text text-anchor="middle" x="441.88" y="-245.75" font-family="Helvetica,sans-Serif" font-size="10.00">icheck_alloc</text>
</a>
</g>
</g>
<!-- Node35&#45;&gt;Node36 -->
<g id="edge42_Node000035_Node000036" class="edge">
<title>Node35&#45;&gt;Node36</title>
<g id="a_edge42_Node000035_Node000036"><a xlink:title=" ">
<path fill="none" stroke="#63b8ff" d="M336.55,-249.62C354.59,-249.62 376.42,-249.62 395.43,-249.62"/>
<polygon fill="#63b8ff" stroke="#63b8ff" points="395.34,-253.13 405.34,-249.63 395.34,-246.13 395.34,-253.13"/>
</a>
</g>
</g>
<!-- Node37 -->
<g id="Node000037" class="node">
<title>Node37</title>
<g id="a_Node000037"><a xlink:href="../../d9/d9a/mem_8h.html#af42ab5c21de0c723b2a55403e5441fda" target="_top" xlink:title=" ">
<polygon fill="white" stroke="#666666" points="481.38,-296.25 402.38,-296.25 402.38,-277 481.38,-277 481.38,-296.25"/>
<text text-anchor="middle" x="441.88" y="-282.75" font-family="Helvetica,sans-Serif" font-size="10.00">mem_bit_align</text>
</a>
</g>
</g>
<!-- Node35&#45;&gt;Node37 -->
<g id="edge44_Node000035_Node000037" class="edge">
<title>Node35&#45;&gt;Node37</title>
<g id="a_edge44_Node000035_Node000037"><a xlink:title=" ">
<path fill="none" stroke="#63b8ff" d="M336.55,-259.35C353.37,-263.74 373.48,-269 391.54,-273.72"/>
<polygon fill="#63b8ff" stroke="#63b8ff" points="390.44,-277.06 401,-276.2 392.21,-270.28 390.44,-277.06"/>
</a>
</g>
</g>
<!-- Node36&#45;&gt;Node4 -->
<g id="edge43_Node000036_Node000004" class="edge">
<title>Node36&#45;&gt;Node4</title>
<g id="a_edge43_Node000036_Node000004"><a xlink:title=" ">
<path fill="none" stroke="#63b8ff" d="M477.12,-249.62C498.43,-249.62 525.79,-249.62 547.33,-249.62"/>
<polygon fill="#63b8ff" stroke="#63b8ff" points="547.12,-253.13 557.12,-249.63 547.12,-246.13 547.12,-253.13"/>
</a>
</g>
</g>
<!-- Node38 -->
<g id="Node000038" class="node">
<title>Node38</title>
<g id="a_Node000038"><a xlink:href="../../d8/d96/bithacks_8h.html#ab80588fa9f8b9e766249edaf70558bdc" target="_top" xlink:title=" ">
<polygon fill="white" stroke="#666666" points="614,-296.25 553.75,-296.25 553.75,-277 614,-277 614,-296.25"/>
<text text-anchor="middle" x="583.88" y="-282.75" font-family="Helvetica,sans-Serif" font-size="10.00">bitcountsz</text>
</a>
</g>
</g>
<!-- Node37&#45;&gt;Node38 -->
<g id="edge45_Node000037_Node000038" class="edge">
<title>Node37&#45;&gt;Node38</title>
<g id="a_edge45_Node000037_Node000038"><a xlink:title=" ">
<path fill="none" stroke="#63b8ff" d="M481.87,-286.62C500.63,-286.62 523.12,-286.62 542.1,-286.62"/>
<polygon fill="#63b8ff" stroke="#63b8ff" points="541.9,-290.13 551.9,-286.63 541.9,-283.13 541.9,-290.13"/>
</a>
</g>
</g>
<!-- Node40 -->
<g id="Node000040" class="node">
<title>Node40</title>
<g id="a_Node000040"><a xlink:href="../../d8/d37/mem_8blk.html#a377e36d6fbaf3ee7f1b217559cb0c850" target="_top" xlink:title=" ">
<polygon fill="white" stroke="#666666" points="493,-222.25 390.75,-222.25 390.75,-203 493,-203 493,-222.25"/>
<text text-anchor="middle" x="441.88" y="-208.75" font-family="Helvetica,sans-Serif" font-size="10.00">__imalloc_too_large</text>
</a>
</g>
</g>
<!-- Node39&#45;&gt;Node40 -->
<g id="edge47_Node000039_Node000040" class="edge">
<title>Node39&#45;&gt;Node40</title>
<g id="a_edge47_Node000039_Node000040"><a xlink:title=" ">
<path fill="none" stroke="#63b8ff" d="M354.89,-212.62C362.89,-212.62 371.16,-212.62 379.27,-212.62"/>
<polygon fill="#63b8ff" stroke="#63b8ff" points="379.07,-216.13 389.07,-212.63 379.07,-209.13 379.07,-216.13"/>
</a>
</g>
</g>
</g>
</svg>

<g id="navigator" transform="translate(0 0)" fill="#404254">
  <rect fill="#f2f5e9" fill-opacity="0.5" stroke="#606060" stroke-width=".5" x="0" y="0" width="60" height="60"/>
  <use id="zoomplus" xlink:href="#zoomPlus" x="17" y="9" onmousedown="handleZoom(evt,'in')"/>
  <use id="zoomminus" xlink:href="#zoomMin" x="42" y="9" onmousedown="handleZoom(evt,'out')"/>
  <use id="reset" xlink:href="#resetDef" x="30" y="36" onmousedown="handleReset()"/>
   <use id="arrowup" xlink:href="#arrowUp" x="0" y="0" onmousedown="handlePan(0,-1)"/>
  <use id="arrowright" xlink:href="#arrowRight" x="0" y="0" onmousedown="handlePan(1,0)"/>
  <use id="arrowdown" xlink:href="#arrowDown" x="0" y="0" onmousedown="handlePan(0,1)"/>
  <use id="arrowleft" xlink:href="#arrowLeft" x="0" y="0" onmousedown="handlePan(-1,0)"/>
</g>
<svg viewBox="0 0 15 15" width="100%" height="30px" preserveAspectRatio="xMaxYMin meet">
 <g id="arrow_out" transform="scale(0.3 0.3)">
  <a xlink:href="iop_8blk_aed844abdb3d81d651cac9993d71aee3b_cgraph_org.svg" target="_base">
   <rect id="button" ry="5" rx="5" y="6" x="6" height="38" width="38"
        fill="#f2f5e9" fill-opacity="0.5" stroke="#606060" stroke-width="1.0"/>
   <path id="arrow"
     d="M 11.500037,31.436501 C 11.940474,20.09759 22.043105,11.32322 32.158766,21.979434 L 37.068811,17.246167 C 37.068811,17.246167 37.088388,32 37.088388,32 L 22.160133,31.978069 C 22.160133,31.978069 26.997745,27.140456 26.997745,27.140456 C 18.528582,18.264221 13.291696,25.230495 11.500037,31.436501 z"
     style="fill:#404040;"/>
  </a>
 </g>
</svg>

<style type='text/css'>
<![CDATA[
[data-mouse-over-selected='false'] { opacity: 0.7; }
[data-mouse-over-selected='true']  { opacity: 1.0; }
]]>
</style>
<script type="application/ecmascript"><![CDATA[
document.addEventListener('DOMContentLoaded', (event) => {
  highlightEdges();
  highlightAdjacentNodes();
});
]]></script>
</svg>
