<?xml version="1.0" encoding="UTF-8" standalone="no"?>
<!DOCTYPE svg PUBLIC "-//W3C//DTD SVG 1.1//EN"
 "http://www.w3.org/Graphics/SVG/1.1/DTD/svg11.dtd">
<!-- Generated by graphviz version 9.0.0 (20230911.1827)
 -->
<!-- Title: iop_skip_absent_field_desc Pages: 1 -->
<svg width="1711pt" height="334pt"
 viewBox="0.00 0.00 1711.00 334.25" xmlns="http://www.w3.org/2000/svg" xmlns:xlink="http://www.w3.org/1999/xlink">
<g id="graph0" class="graph" transform="scale(1 1) rotate(0) translate(4 330.25)">
<title>iop_skip_absent_field_desc</title>
<!-- Node1 -->
<g id="Node000001" class="node">
<title>Node1</title>
<g id="a_Node000001"><a xlink:title=" ">
<polygon fill="#999999" stroke="#666666" points="135.25,-233.25 0,-233.25 0,-214 135.25,-214 135.25,-233.25"/>
<text text-anchor="middle" x="67.62" y="-219.75" font-family="Helvetica,sans-Serif" font-size="10.00">iop_skip_absent_field_desc</text>
</a>
</g>
</g>
<!-- Node1&#45;&gt;Node1 -->
<g id="edge9_Node000001_Node000001" class="edge">
<title>Node1&#45;&gt;Node1</title>
<g id="a_edge9_Node000001_Node000001"><a xlink:title=" ">
<path fill="none" stroke="#63b8ff" d="M42.81,-233.54C31.49,-242.15 39.76,-251.25 67.62,-251.25 83.3,-251.25 92.77,-248.37 96.05,-244.32"/>
<polygon fill="#63b8ff" stroke="#63b8ff" points="99.41,-243.35 92.92,-234.97 92.77,-245.57 99.41,-243.35"/>
</a>
</g>
</g>
<!-- Node2 -->
<g id="Node000002" class="node">
<title>Node2</title>
<g id="a_Node000002"><a xlink:href="../../d3/d40/iop_8h.html#a766d8c1f5a9d3e12bba0150208905df0" target="_top" xlink:title=" ">
<polygon fill="white" stroke="#666666" points="272.38,-326.25 179.88,-326.25 179.88,-307 272.38,-307 272.38,-326.25"/>
<text text-anchor="middle" x="226.12" y="-312.75" font-family="Helvetica,sans-Serif" font-size="10.00">iop_field_is_class</text>
</a>
</g>
</g>
<!-- Node1&#45;&gt;Node2 -->
<g id="edge1_Node000001_Node000002" class="edge">
<title>Node1&#45;&gt;Node2</title>
<g id="a_edge1_Node000001_Node000002"><a xlink:title=" ">
<path fill="none" stroke="#63b8ff" d="M79.85,-233.66C97.94,-249.4 135.17,-279.99 171.25,-298.62 173.78,-299.93 176.42,-301.17 179.13,-302.35"/>
<polygon fill="#63b8ff" stroke="#63b8ff" points="177.71,-305.55 188.3,-305.98 180.29,-299.04 177.71,-305.55"/>
</a>
</g>
</g>
<!-- Node4 -->
<g id="Node000004" class="node">
<title>Node4</title>
<g id="a_Node000004"><a xlink:href="../../d3/d40/iop_8h.html#aefeceb12938118fa0e6a7ec4beed0049" target="_top" xlink:title=" ">
<polygon fill="white" stroke="#666666" points="281,-289.25 171.25,-289.25 171.25,-270 281,-270 281,-289.25"/>
<text text-anchor="middle" x="226.12" y="-275.75" font-family="Helvetica,sans-Serif" font-size="10.00">iop_field_is_reference</text>
</a>
</g>
</g>
<!-- Node1&#45;&gt;Node4 -->
<g id="edge3_Node000001_Node000004" class="edge">
<title>Node1&#45;&gt;Node4</title>
<g id="a_edge3_Node000001_Node000004"><a xlink:title=" ">
<path fill="none" stroke="#63b8ff" d="M95.12,-233.7C115.79,-241.5 145.27,-252.48 171.25,-261.62 175.2,-263.02 179.33,-264.44 183.46,-265.85"/>
<polygon fill="#63b8ff" stroke="#63b8ff" points="182.27,-269.14 192.86,-269.03 184.51,-262.51 182.27,-269.14"/>
</a>
</g>
</g>
<!-- Node5 -->
<g id="Node000005" class="node">
<title>Node5</title>
<g id="a_Node000005"><a xlink:href="../../d0/d2d/iop_8blk.html#ae025571981c4f71a758fb91e70ec2013" target="_top" xlink:title=" ">
<polygon fill="white" stroke="#666666" points="276.88,-252.25 175.38,-252.25 175.38,-233 276.88,-233 276.88,-252.25"/>
<text text-anchor="middle" x="226.12" y="-238.75" font-family="Helvetica,sans-Serif" font-size="10.00">iop_field_set_defval</text>
</a>
</g>
</g>
<!-- Node1&#45;&gt;Node5 -->
<g id="edge4_Node000001_Node000005" class="edge">
<title>Node1&#45;&gt;Node5</title>
<g id="a_edge4_Node000001_Node000005"><a xlink:title=" ">
<path fill="none" stroke="#63b8ff" d="M135.45,-231.74C144.9,-232.89 154.58,-234.06 163.91,-235.19"/>
<polygon fill="#63b8ff" stroke="#63b8ff" points="163.24,-238.64 173.59,-236.37 164.09,-231.69 163.24,-238.64"/>
</a>
</g>
</g>
<!-- Node6 -->
<g id="Node000006" class="node">
<title>Node6</title>
<g id="a_Node000006"><a xlink:href="../../d0/d2d/iop_8blk.html#a99d5b583e03768c1b4bb9934e4c533d5" target="_top" xlink:title=" ">
<polygon fill="white" stroke="#666666" points="258.12,-215.25 194.12,-215.25 194.12,-196 258.12,-196 258.12,-215.25"/>
<text text-anchor="middle" x="226.12" y="-201.75" font-family="Helvetica,sans-Serif" font-size="10.00">iop_set_err</text>
</a>
</g>
</g>
<!-- Node1&#45;&gt;Node6 -->
<g id="edge5_Node000001_Node000006" class="edge">
<title>Node1&#45;&gt;Node6</title>
<g id="a_edge5_Node000001_Node000006"><a xlink:title=" ">
<path fill="none" stroke="#63b8ff" d="M135.45,-215.94C151.44,-214.1 168.09,-212.18 182.64,-210.51"/>
<polygon fill="#63b8ff" stroke="#63b8ff" points="182.76,-214.02 192.3,-209.4 181.96,-207.07 182.76,-214.02"/>
</a>
</g>
</g>
<!-- Node10 -->
<g id="Node000010" class="node">
<title>Node10</title>
<g id="a_Node000010"><a xlink:href="../../d9/d9a/mem_8h.html#ada6bb9661f0c10ccaa14d231c24aeafd" target="_top" xlink:title=" ">
<polygon fill="white" stroke="#666666" points="258.88,-178.25 193.38,-178.25 193.38,-159 258.88,-159 258.88,-178.25"/>
<text text-anchor="middle" x="226.12" y="-164.75" font-family="Helvetica,sans-Serif" font-size="10.00">mp_imalloc</text>
</a>
</g>
</g>
<!-- Node1&#45;&gt;Node10 -->
<g id="edge10_Node000001_Node000010" class="edge">
<title>Node1&#45;&gt;Node10</title>
<g id="a_edge10_Node000001_Node000010"><a xlink:title=" ">
<path fill="none" stroke="#63b8ff" d="M96,-213.56C116.64,-206.01 145.67,-195.51 171.25,-186.62 175.38,-185.19 179.69,-183.72 184,-182.25"/>
<polygon fill="#63b8ff" stroke="#63b8ff" points="184.8,-185.68 193.16,-179.17 182.57,-179.04 184.8,-185.68"/>
</a>
</g>
</g>
<!-- Node41 -->
<g id="Node000041" class="node">
<title>Node41</title>
<g id="a_Node000041"><a xlink:href="../../d4/d02/str-buf_8c.html#a565dca690544eca5eb3516d506ea086f" target="_top" xlink:title=" ">
<polygon fill="white" stroke="#666666" points="252.88,-123.25 199.38,-123.25 199.38,-104 252.88,-104 252.88,-123.25"/>
<text text-anchor="middle" x="226.12" y="-109.75" font-family="Helvetica,sans-Serif" font-size="10.00">sb_reset</text>
</a>
</g>
</g>
<!-- Node1&#45;&gt;Node41 -->
<g id="edge46_Node000001_Node000041" class="edge">
<title>Node1&#45;&gt;Node41</title>
<g id="a_edge46_Node000001_Node000041"><a xlink:title=" ">
<path fill="none" stroke="#63b8ff" d="M82.13,-213.65C101.65,-199.29 138.95,-172.05 171.25,-149.62 180.75,-143.03 191.31,-135.92 200.54,-129.78"/>
<polygon fill="#63b8ff" stroke="#63b8ff" points="202.26,-132.84 208.67,-124.4 198.4,-127.01 202.26,-132.84"/>
</a>
</g>
</g>
<!-- Node3 -->
<g id="Node000003" class="node">
<title>Node3</title>
<g id="a_Node000003"><a xlink:href="../../d3/d40/iop_8h.html#a07f21da2d3381b98dd6f6bbd642d2130" target="_top" xlink:title=" ">
<polygon fill="white" stroke="#666666" points="423.38,-326.25 323.38,-326.25 323.38,-307 423.38,-307 423.38,-326.25"/>
<text text-anchor="middle" x="373.38" y="-312.75" font-family="Helvetica,sans-Serif" font-size="10.00">iop_struct_is_class</text>
</a>
</g>
</g>
<!-- Node2&#45;&gt;Node3 -->
<g id="edge2_Node000002_Node000003" class="edge">
<title>Node2&#45;&gt;Node3</title>
<g id="a_edge2_Node000002_Node000003"><a xlink:title=" ">
<path fill="none" stroke="#63b8ff" d="M272.68,-316.62C285.04,-316.62 298.61,-316.62 311.66,-316.62"/>
<polygon fill="#63b8ff" stroke="#63b8ff" points="311.43,-320.13 321.43,-316.63 311.43,-313.13 311.43,-320.13"/>
</a>
</g>
</g>
<!-- Node7 -->
<g id="Node000007" class="node">
<title>Node7</title>
<g id="a_Node000007"><a xlink:href="../../d0/d2d/iop_8blk.html#a80a43668828f72316f0f32e18429d97b" target="_top" xlink:title=" ">
<polygon fill="white" stroke="#666666" points="408,-252.25 338.75,-252.25 338.75,-233 408,-233 408,-252.25"/>
<text text-anchor="middle" x="373.38" y="-238.75" font-family="Helvetica,sans-Serif" font-size="10.00">iop_set_verr</text>
</a>
</g>
</g>
<!-- Node6&#45;&gt;Node7 -->
<g id="edge6_Node000006_Node000007" class="edge">
<title>Node6&#45;&gt;Node7</title>
<g id="a_edge6_Node000006_Node000007"><a xlink:title=" ">
<path fill="none" stroke="#63b8ff" d="M258.28,-213.56C278.47,-218.7 305.07,-225.48 327.51,-231.2"/>
<polygon fill="#63b8ff" stroke="#63b8ff" points="326.46,-234.54 337.01,-233.62 328.19,-227.76 326.46,-234.54"/>
</a>
</g>
</g>
<!-- Node8 -->
<g id="Node000008" class="node">
<title>Node8</title>
<g id="a_Node000008"><a xlink:href="../../d0/d2d/iop_8blk.html#aa694120a0e2e1e38b7bebb913a0fe88e" target="_top" xlink:title=" ">
<polygon fill="white" stroke="#666666" points="397.12,-215.25 349.62,-215.25 349.62,-196 397.12,-196 397.12,-215.25"/>
<text text-anchor="middle" x="373.38" y="-201.75" font-family="Helvetica,sans-Serif" font-size="10.00">va_end</text>
</a>
</g>
</g>
<!-- Node6&#45;&gt;Node8 -->
<g id="edge7_Node000006_Node000008" class="edge">
<title>Node6&#45;&gt;Node8</title>
<g id="a_edge7_Node000006_Node000008"><a xlink:title=" ">
<path fill="none" stroke="#63b8ff" d="M258.28,-205.62C281.67,-205.62 313.69,-205.62 337.86,-205.62"/>
<polygon fill="#63b8ff" stroke="#63b8ff" points="337.84,-209.13 347.84,-205.63 337.84,-202.13 337.84,-209.13"/>
</a>
</g>
</g>
<!-- Node9 -->
<g id="Node000009" class="node">
<title>Node9</title>
<g id="a_Node000009"><a xlink:href="../../d0/d2d/iop_8blk.html#a25419a391fdd4ad7954699c58cfeb3b9" target="_top" xlink:title=" ">
<polygon fill="white" stroke="#666666" points="399,-289.25 347.75,-289.25 347.75,-270 399,-270 399,-289.25"/>
<text text-anchor="middle" x="373.38" y="-275.75" font-family="Helvetica,sans-Serif" font-size="10.00">va_start</text>
</a>
</g>
</g>
<!-- Node6&#45;&gt;Node9 -->
<g id="edge8_Node000006_Node000009" class="edge">
<title>Node6&#45;&gt;Node9</title>
<g id="a_edge8_Node000006_Node000009"><a xlink:title=" ">
<path fill="none" stroke="#63b8ff" d="M258.51,-213.24C266.2,-215.87 274.18,-219.28 281,-223.62 300.62,-236.13 297.33,-249.2 317,-261.62 323.06,-265.45 330.01,-268.54 336.89,-271"/>
<polygon fill="#63b8ff" stroke="#63b8ff" points="335.47,-274.23 346.06,-273.92 337.59,-267.55 335.47,-274.23"/>
</a>
</g>
</g>
<!-- Node11 -->
<g id="Node000011" class="node">
<title>Node11</title>
<g id="a_Node000011"><a xlink:href="../../d8/d37/mem_8blk.html#a5666a1403bcf2bd8e114c23f8021d1ac" target="_top" xlink:title=" ">
<polygon fill="white" stroke="#666666" points="411.38,-141.25 335.38,-141.25 335.38,-122 411.38,-122 411.38,-141.25"/>
<text text-anchor="middle" x="373.38" y="-127.75" font-family="Helvetica,sans-Serif" font-size="10.00">__mp_imalloc</text>
</a>
</g>
</g>
<!-- Node10&#45;&gt;Node11 -->
<g id="edge11_Node000010_Node000011" class="edge">
<title>Node10&#45;&gt;Node11</title>
<g id="a_edge11_Node000010_Node000011"><a xlink:title=" ">
<path fill="none" stroke="#63b8ff" d="M259.36,-160.41C278.35,-155.58 302.73,-149.36 323.99,-143.95"/>
<polygon fill="#63b8ff" stroke="#63b8ff" points="324.81,-147.35 333.63,-141.49 323.08,-140.57 324.81,-147.35"/>
</a>
</g>
</g>
<!-- Node39 -->
<g id="Node000039" class="node">
<title>Node39</title>
<g id="a_Node000039"><a xlink:href="../../d9/d9a/mem_8h.html#ae99e17ad0b27e94e8a00c8af9734a0e7" target="_top" xlink:title=" ">
<polygon fill="white" stroke="#666666" points="429.75,-178.25 317,-178.25 317,-159 429.75,-159 429.75,-178.25"/>
<text text-anchor="middle" x="373.38" y="-164.75" font-family="Helvetica,sans-Serif" font-size="10.00">icheck_alloc_constant</text>
</a>
</g>
</g>
<!-- Node10&#45;&gt;Node39 -->
<g id="edge44_Node000010_Node000039" class="edge">
<title>Node10&#45;&gt;Node39</title>
<g id="a_edge44_Node000010_Node000039"><a xlink:title=" ">
<path fill="none" stroke="#63b8ff" d="M259.36,-168.62C272.88,-168.62 289.13,-168.62 305.05,-168.62"/>
<polygon fill="#63b8ff" stroke="#63b8ff" points="305.02,-172.13 315.02,-168.63 305.02,-165.13 305.02,-172.13"/>
</a>
</g>
</g>
<!-- Node12 -->
<g id="Node000012" class="node">
<title>Node12</title>
<g id="a_Node000012"><a xlink:href="../../d8/d37/mem_8blk.html#a8e4fbf6500e65079c31e3fd933ae7dc1" target="_top" xlink:title=" ">
<polygon fill="white" stroke="#666666" points="554.12,-132.25 484.12,-132.25 484.12,-113 554.12,-113 554.12,-132.25"/>
<text text-anchor="middle" x="519.12" y="-118.75" font-family="Helvetica,sans-Serif" font-size="10.00">icheck_alloc</text>
</a>
</g>
</g>
<!-- Node11&#45;&gt;Node12 -->
<g id="edge12_Node000011_Node000012" class="edge">
<title>Node11&#45;&gt;Node12</title>
<g id="a_edge12_Node000011_Node000012"><a xlink:title=" ">
<path fill="none" stroke="#63b8ff" d="M411.77,-129.28C430.32,-128.12 452.88,-126.71 472.45,-125.48"/>
<polygon fill="#63b8ff" stroke="#63b8ff" points="472.6,-128.98 482.36,-124.86 472.16,-122 472.6,-128.98"/>
</a>
</g>
</g>
<!-- Node37 -->
<g id="Node000037" class="node">
<title>Node37</title>
<g id="a_Node000037"><a xlink:href="../../d9/d9a/mem_8h.html#af42ab5c21de0c723b2a55403e5441fda" target="_top" xlink:title=" ">
<polygon fill="white" stroke="#666666" points="558.62,-169.25 479.62,-169.25 479.62,-150 558.62,-150 558.62,-169.25"/>
<text text-anchor="middle" x="519.12" y="-155.75" font-family="Helvetica,sans-Serif" font-size="10.00">mem_bit_align</text>
</a>
</g>
</g>
<!-- Node11&#45;&gt;Node37 -->
<g id="edge42_Node000011_Node000037" class="edge">
<title>Node11&#45;&gt;Node37</title>
<g id="a_edge42_Node000011_Node000037"><a xlink:title=" ">
<path fill="none" stroke="#63b8ff" d="M411.77,-138.91C428.92,-142.25 449.51,-146.26 467.98,-149.86"/>
<polygon fill="#63b8ff" stroke="#63b8ff" points="467.19,-153.27 477.68,-151.75 468.53,-146.4 467.19,-153.27"/>
</a>
</g>
</g>
<!-- Node13 -->
<g id="Node000013" class="node">
<title>Node13</title>
<g id="a_Node000013"><a xlink:href="../../d7/df8/log_8c.html#abca342edf91a9b45f7a17ef564fa8a53" target="_top" xlink:title=" ">
<polygon fill="white" stroke="#666666" points="664.62,-132.25 614.88,-132.25 614.88,-113 664.62,-113 664.62,-132.25"/>
<text text-anchor="middle" x="639.75" y="-118.75" font-family="Helvetica,sans-Serif" font-size="10.00">e_panic</text>
</a>
</g>
</g>
<!-- Node12&#45;&gt;Node13 -->
<g id="edge13_Node000012_Node000013" class="edge">
<title>Node12&#45;&gt;Node13</title>
<g id="a_edge13_Node000012_Node000013"><a xlink:title=" ">
<path fill="none" stroke="#63b8ff" d="M554.44,-122.62C569.81,-122.62 587.93,-122.62 603.43,-122.62"/>
<polygon fill="#63b8ff" stroke="#63b8ff" points="603.16,-126.13 613.16,-122.63 603.16,-119.13 603.16,-126.13"/>
</a>
</g>
</g>
<!-- Node14 -->
<g id="Node000014" class="node">
<title>Node14</title>
<g id="a_Node000014"><a xlink:href="../../d7/df8/log_8c.html#a4bc04f7baa1e064cb0b93c7b9f3a61a1" target="_top" xlink:title=" ">
<polygon fill="white" stroke="#666666" points="795,-197.25 707,-197.25 707,-178 795,-178 795,-197.25"/>
<text text-anchor="middle" x="751" y="-183.75" font-family="Helvetica,sans-Serif" font-size="10.00">__logger_refresh</text>
</a>
</g>
</g>
<!-- Node13&#45;&gt;Node14 -->
<g id="edge14_Node000013_Node000014" class="edge">
<title>Node13&#45;&gt;Node14</title>
<g id="a_edge14_Node000013_Node000014"><a xlink:title=" ">
<path fill="none" stroke="#63b8ff" d="M657.34,-132.5C674.91,-142.95 702.89,-159.6 723.51,-171.87"/>
<polygon fill="#63b8ff" stroke="#63b8ff" points="721.57,-174.78 731.95,-176.89 725.15,-168.77 721.57,-174.78"/>
</a>
</g>
</g>
<!-- Node32 -->
<g id="Node000032" class="node">
<title>Node32</title>
<g id="a_Node000032"><a xlink:href="../../d7/df8/log_8c.html#a900490b26df7698aac12f7f7e6517e81" target="_top" xlink:title=" ">
<polygon fill="white" stroke="#666666" points="783.75,-122.25 718.25,-122.25 718.25,-103 783.75,-103 783.75,-122.25"/>
<text text-anchor="middle" x="751" y="-108.75" font-family="Helvetica,sans-Serif" font-size="10.00">logger_vlog</text>
</a>
</g>
</g>
<!-- Node13&#45;&gt;Node32 -->
<g id="edge36_Node000013_Node000032" class="edge">
<title>Node13&#45;&gt;Node32</title>
<g id="a_edge36_Node000013_Node000032"><a xlink:title=" ">
<path fill="none" stroke="#63b8ff" d="M665,-120.41C677.3,-119.28 692.61,-117.88 706.84,-116.58"/>
<polygon fill="#63b8ff" stroke="#63b8ff" points="706.79,-120.09 716.43,-115.7 706.16,-113.12 706.79,-120.09"/>
</a>
</g>
</g>
<!-- Node36 -->
<g id="Node000036" class="node">
<title>Node36</title>
<g id="a_Node000036"><a xlink:href="../../d2/d4d/file_8h.html#a25419a391fdd4ad7954699c58cfeb3b9" target="_top" xlink:title=" ">
<polygon fill="white" stroke="#666666" points="776.62,-85.25 725.38,-85.25 725.38,-66 776.62,-66 776.62,-85.25"/>
<text text-anchor="middle" x="751" y="-71.75" font-family="Helvetica,sans-Serif" font-size="10.00">va_start</text>
</a>
</g>
</g>
<!-- Node13&#45;&gt;Node36 -->
<g id="edge41_Node000013_Node000036" class="edge">
<title>Node13&#45;&gt;Node36</title>
<g id="a_edge41_Node000013_Node000036"><a xlink:title=" ">
<path fill="none" stroke="#63b8ff" d="M663.4,-112.6C676.18,-106.97 692.46,-99.85 707,-93.62 709.76,-92.44 712.63,-91.22 715.51,-90"/>
<polygon fill="#63b8ff" stroke="#63b8ff" points="716.61,-93.34 724.47,-86.23 713.89,-86.89 716.61,-93.34"/>
</a>
</g>
</g>
<!-- Node15 -->
<g id="Node000015" class="node">
<title>Node15</title>
<g id="a_Node000015"><a xlink:href="../../d7/df8/log_8c.html#a3dbd75fb614210f0b114cfd03c9c0a7b" target="_top" xlink:title=" ">
<polygon fill="white" stroke="#666666" points="934.75,-170.25 831,-170.25 831,-151 934.75,-151 934.75,-170.25"/>
<text text-anchor="middle" x="882.88" y="-156.75" font-family="Helvetica,sans-Serif" font-size="10.00">__logger_do_refresh</text>
</a>
</g>
</g>
<!-- Node14&#45;&gt;Node15 -->
<g id="edge15_Node000014_Node000015" class="edge">
<title>Node14&#45;&gt;Node15</title>
<g id="a_edge15_Node000014_Node000015"><a xlink:title=" ">
<path fill="none" stroke="#63b8ff" d="M795.25,-178.63C803.95,-176.82 813.25,-174.89 822.4,-172.99"/>
<polygon fill="#63b8ff" stroke="#63b8ff" points="822.88,-176.46 831.96,-171 821.46,-169.61 822.88,-176.46"/>
</a>
</g>
</g>
<!-- Node30 -->
<g id="Node000030" class="node">
<title>Node30</title>
<g id="a_Node000030"><a xlink:href="../../d7/df8/log_8c.html#a7b1b02d1986e1247c2f571af4a2c2854" target="_top" xlink:title=" ">
<polygon fill="white" stroke="#666666" points="920.5,-262.25 845.25,-262.25 845.25,-243 920.5,-243 920.5,-262.25"/>
<text text-anchor="middle" x="882.88" y="-248.75" font-family="Helvetica,sans-Serif" font-size="10.00">log_spin_lock</text>
</a>
</g>
</g>
<!-- Node14&#45;&gt;Node30 -->
<g id="edge34_Node000014_Node000030" class="edge">
<title>Node14&#45;&gt;Node30</title>
<g id="a_edge34_Node000014_Node000030"><a xlink:title=" ">
<path fill="none" stroke="#63b8ff" d="M766.95,-197.73C782.49,-207.94 807.74,-223.72 831,-234.62 833.77,-235.92 836.66,-237.18 839.59,-238.39"/>
<polygon fill="#63b8ff" stroke="#63b8ff" points="838.27,-241.64 848.86,-241.99 840.81,-235.11 838.27,-241.64"/>
</a>
</g>
</g>
<!-- Node31 -->
<g id="Node000031" class="node">
<title>Node31</title>
<g id="a_Node000031"><a xlink:href="../../d1/dc0/group__log.html#ga045020bb4af234632f7761f220131c69" target="_top" xlink:title=" ">
<polygon fill="white" stroke="#666666" points="925.75,-225.25 840,-225.25 840,-206 925.75,-206 925.75,-225.25"/>
<text text-anchor="middle" x="882.88" y="-211.75" font-family="Helvetica,sans-Serif" font-size="10.00">log_spin_unlock</text>
</a>
</g>
</g>
<!-- Node14&#45;&gt;Node31 -->
<g id="edge35_Node000014_Node000031" class="edge">
<title>Node14&#45;&gt;Node31</title>
<g id="a_edge35_Node000014_Node000031"><a xlink:title=" ">
<path fill="none" stroke="#63b8ff" d="M795.25,-196.95C805.98,-199.26 817.61,-201.77 828.76,-204.17"/>
<polygon fill="#63b8ff" stroke="#63b8ff" points="827.71,-207.53 838.22,-206.21 829.18,-200.68 827.71,-207.53"/>
</a>
</g>
</g>
<!-- Node15&#45;&gt;Node15 -->
<g id="edge16_Node000015_Node000015" class="edge">
<title>Node15&#45;&gt;Node15</title>
<g id="a_edge16_Node000015_Node000015"><a xlink:title=" ">
<path fill="none" stroke="#63b8ff" d="M862.23,-170.54C852.81,-179.15 859.69,-188.25 882.88,-188.25 895.55,-188.25 903.35,-185.53 906.28,-181.65"/>
<polygon fill="#63b8ff" stroke="#63b8ff" points="909.69,-180.87 903.89,-172.01 902.9,-182.56 909.69,-180.87"/>
</a>
</g>
</g>
<!-- Node16 -->
<g id="Node000016" class="node">
<title>Node16</title>
<g id="a_Node000016"><a xlink:href="../../de/d1a/container-dlist_8h.html#a3b6f65860b212e28f2e28e71eb54d54d" target="_top" xlink:title="Add element e at the head of list l (suited for LIFO).">
<polygon fill="white" stroke="#666666" points="1061.75,-273.25 1006.75,-273.25 1006.75,-254 1061.75,-254 1061.75,-273.25"/>
<text text-anchor="middle" x="1034.25" y="-259.75" font-family="Helvetica,sans-Serif" font-size="10.00">dlist_add</text>
</a>
</g>
</g>
<!-- Node15&#45;&gt;Node16 -->
<g id="edge17_Node000015_Node000016" class="edge">
<title>Node15&#45;&gt;Node16</title>
<g id="a_edge17_Node000015_Node000016"><a xlink:title=" ">
<path fill="none" stroke="#63b8ff" d="M900.95,-170.74C911.35,-177.36 924.56,-186.62 934.75,-196.62 954.03,-215.56 948.58,-230.17 970.75,-245.62 978.03,-250.7 986.73,-254.35 995.29,-256.98"/>
<polygon fill="#63b8ff" stroke="#63b8ff" points="994.31,-260.34 1004.87,-259.5 996.08,-253.57 994.31,-260.34"/>
</a>
</g>
</g>
<!-- Node18 -->
<g id="Node000018" class="node">
<title>Node18</title>
<g id="a_Node000018"><a xlink:href="../../de/d1a/container-dlist_8h.html#a0a69e401f6ec15966c891e96ad864c77" target="_top" xlink:title="Put a dlist_t element in a safe and detached state.">
<polygon fill="white" stroke="#666666" points="1060.25,-160.25 1008.25,-160.25 1008.25,-141 1060.25,-141 1060.25,-160.25"/>
<text text-anchor="middle" x="1034.25" y="-146.75" font-family="Helvetica,sans-Serif" font-size="10.00">dlist_init</text>
</a>
</g>
</g>
<!-- Node15&#45;&gt;Node18 -->
<g id="edge19_Node000015_Node000018" class="edge">
<title>Node15&#45;&gt;Node18</title>
<g id="a_edge19_Node000015_Node000018"><a xlink:title=" ">
<path fill="none" stroke="#63b8ff" d="M934.86,-157.21C955.2,-155.85 978.16,-154.31 996.78,-153.07"/>
<polygon fill="#63b8ff" stroke="#63b8ff" points="996.78,-156.57 1006.52,-152.41 996.31,-149.59 996.78,-156.57"/>
</a>
</g>
</g>
<!-- Node19 -->
<g id="Node000019" class="node">
<title>Node19</title>
<g id="a_Node000019"><a xlink:href="../../d7/df8/log_8c.html#a4c8fbe8648573312126ce341cf34cba1" target="_top" xlink:title=" ">
<polygon fill="white" stroke="#666666" points="1097.75,-123.25 970.75,-123.25 970.75,-104 1097.75,-104 1097.75,-123.25"/>
<text text-anchor="middle" x="1034.25" y="-109.75" font-family="Helvetica,sans-Serif" font-size="10.00">logger_compute_fullname</text>
</a>
</g>
</g>
<!-- Node15&#45;&gt;Node19 -->
<g id="edge20_Node000015_Node000019" class="edge">
<title>Node15&#45;&gt;Node19</title>
<g id="a_edge20_Node000015_Node000019"><a xlink:title=" ">
<path fill="none" stroke="#63b8ff" d="M913.13,-150.52C929.93,-144.8 951.47,-137.62 970.75,-131.62 975.81,-130.05 981.11,-128.45 986.4,-126.89"/>
<polygon fill="#63b8ff" stroke="#63b8ff" points="987.08,-130.34 995.7,-124.17 985.12,-123.62 987.08,-130.34"/>
</a>
</g>
</g>
<!-- Node22 -->
<g id="Node000022" class="node">
<title>Node22</title>
<g id="a_Node000022"><a xlink:href="../../df/d0a/str-l_8h.html#ad74dae07179370f3c22e3f026157926e" target="_top" xlink:title="wipe a lstr_t (frees memory if needed).">
<polygon fill="white" stroke="#666666" points="1205.25,-180.25 1150.25,-180.25 1150.25,-161 1205.25,-161 1205.25,-180.25"/>
<text text-anchor="middle" x="1177.75" y="-166.75" font-family="Helvetica,sans-Serif" font-size="10.00">lstr_wipe</text>
</a>
</g>
</g>
<!-- Node15&#45;&gt;Node22 -->
<g id="edge33_Node000015_Node000022" class="edge">
<title>Node15&#45;&gt;Node22</title>
<g id="a_edge33_Node000015_Node000022"><a xlink:title=" ">
<path fill="none" stroke="#63b8ff" d="M934.8,-166.75C946.59,-167.93 959.09,-168.99 970.75,-169.62 1029.26,-172.79 1097.25,-172.31 1138.62,-171.56"/>
<polygon fill="#63b8ff" stroke="#63b8ff" points="1138.62,-175.06 1148.55,-171.36 1138.48,-168.06 1138.62,-175.06"/>
</a>
</g>
</g>
<!-- Node29 -->
<g id="Node000029" class="node">
<title>Node29</title>
<g id="a_Node000029"><a xlink:href="../../df/d0a/str-l_8h.html#a963c22b229774d4b7c106bae4011cb8e" target="_top" xlink:title="Returns whether \v s1 and \v s2 contents are equal.">
<polygon fill="white" stroke="#666666" points="1063.25,-236.25 1005.25,-236.25 1005.25,-217 1063.25,-217 1063.25,-236.25"/>
<text text-anchor="middle" x="1034.25" y="-222.75" font-family="Helvetica,sans-Serif" font-size="10.00">lstr_equal</text>
</a>
</g>
</g>
<!-- Node15&#45;&gt;Node29 -->
<g id="edge32_Node000015_Node000029" class="edge">
<title>Node15&#45;&gt;Node29</title>
<g id="a_edge32_Node000015_Node000029"><a xlink:title=" ">
<path fill="none" stroke="#63b8ff" d="M903.32,-170.61C920.79,-179.43 947.23,-192.44 970.75,-202.62 978.52,-205.99 986.94,-209.38 994.99,-212.52"/>
<polygon fill="#63b8ff" stroke="#63b8ff" points="993.66,-215.76 1004.25,-216.06 996.17,-209.22 993.66,-215.76"/>
</a>
</g>
</g>
<!-- Node17 -->
<g id="Node000017" class="node">
<title>Node17</title>
<g id="a_Node000017"><a xlink:href="../../de/d1a/container-dlist_8h.html#a71e7667ca0e4b896923788c5851afd24" target="_top" xlink:title="Put element e between prev and next.">
<polygon fill="white" stroke="#666666" points="1210.5,-273.25 1145,-273.25 1145,-254 1210.5,-254 1210.5,-273.25"/>
<text text-anchor="middle" x="1177.75" y="-259.75" font-family="Helvetica,sans-Serif" font-size="10.00">__dlist_add</text>
</a>
</g>
</g>
<!-- Node16&#45;&gt;Node17 -->
<g id="edge18_Node000016_Node000017" class="edge">
<title>Node16&#45;&gt;Node17</title>
<g id="a_edge18_Node000016_Node000017"><a xlink:title=" ">
<path fill="none" stroke="#63b8ff" d="M1062.2,-263.62C1082.3,-263.62 1110.17,-263.62 1133.39,-263.62"/>
<polygon fill="#63b8ff" stroke="#63b8ff" points="1133.19,-267.13 1143.19,-263.63 1133.19,-260.13 1133.19,-267.13"/>
</a>
</g>
</g>
<!-- Node20 -->
<g id="Node000020" class="node">
<title>Node20</title>
<g id="a_Node000020"><a xlink:href="../../df/d0a/str-l_8h.html#a6a200ca09358f19b13a8e297cda34869" target="_top" xlink:title="returns a constant copy of \v s.">
<polygon fill="white" stroke="#666666" points="1205.62,-123.25 1149.88,-123.25 1149.88,-104 1205.62,-104 1205.62,-123.25"/>
<text text-anchor="middle" x="1177.75" y="-109.75" font-family="Helvetica,sans-Serif" font-size="10.00">lstr_dupc</text>
</a>
</g>
</g>
<!-- Node19&#45;&gt;Node20 -->
<g id="edge21_Node000019_Node000020" class="edge">
<title>Node19&#45;&gt;Node20</title>
<g id="a_edge21_Node000019_Node000020"><a xlink:title=" ">
<path fill="none" stroke="#63b8ff" d="M1098.14,-113.62C1111.79,-113.62 1125.83,-113.62 1138.2,-113.62"/>
<polygon fill="#63b8ff" stroke="#63b8ff" points="1137.97,-117.13 1147.97,-113.63 1137.97,-110.13 1137.97,-117.13"/>
</a>
</g>
</g>
<!-- Node19&#45;&gt;Node22 -->
<g id="edge23_Node000019_Node000022" class="edge">
<title>Node19&#45;&gt;Node22</title>
<g id="a_edge23_Node000019_Node000022"><a xlink:title=" ">
<path fill="none" stroke="#63b8ff" d="M1074.28,-123.7C1082.14,-126.06 1090.27,-128.73 1097.75,-131.62 1115.08,-138.34 1133.76,-147.46 1148.6,-155.2"/>
<polygon fill="#63b8ff" stroke="#63b8ff" points="1146.84,-158.23 1157.31,-159.82 1150.12,-152.05 1146.84,-158.23"/>
</a>
</g>
</g>
<!-- Node21 -->
<g id="Node000021" class="node">
<title>Node21</title>
<g id="a_Node000021"><a xlink:href="../../df/d0a/str-l_8h.html#a3b4dbe9c4cc70340cba0787574dc1c5e" target="_top" xlink:title=" ">
<polygon fill="white" stroke="#666666" points="1535.25,-159.25 1482.5,-159.25 1482.5,-140 1535.25,-140 1535.25,-159.25"/>
<text text-anchor="middle" x="1508.88" y="-145.75" font-family="Helvetica,sans-Serif" font-size="10.00">lstr_init_</text>
</a>
</g>
</g>
<!-- Node20&#45;&gt;Node21 -->
<g id="edge22_Node000020_Node000021" class="edge">
<title>Node20&#45;&gt;Node21</title>
<g id="a_edge22_Node000020_Node000021"><a xlink:title=" ">
<path fill="none" stroke="#63b8ff" d="M1205.96,-116.6C1264.81,-123.04 1403.94,-138.26 1470.78,-145.57"/>
<polygon fill="#63b8ff" stroke="#63b8ff" points="1470.18,-149.02 1480.5,-146.63 1470.94,-142.06 1470.18,-149.02"/>
</a>
</g>
</g>
<!-- Node23 -->
<g id="Node000023" class="node">
<title>Node23</title>
<g id="a_Node000023"><a xlink:href="../../df/d0a/str-l_8h.html#a381cd831ac9616c5bea8213bb679d1ac" target="_top" xlink:title="Wipe a lstr_t (frees memory if needed).">
<polygon fill="white" stroke="#666666" points="1331.5,-180.25 1257.75,-180.25 1257.75,-161 1331.5,-161 1331.5,-180.25"/>
<text text-anchor="middle" x="1294.62" y="-166.75" font-family="Helvetica,sans-Serif" font-size="10.00">mp_lstr_wipe</text>
</a>
</g>
</g>
<!-- Node22&#45;&gt;Node23 -->
<g id="edge24_Node000022_Node000023" class="edge">
<title>Node22&#45;&gt;Node23</title>
<g id="a_edge24_Node000022_Node000023"><a xlink:title=" ">
<path fill="none" stroke="#63b8ff" d="M1205.68,-170.62C1217.7,-170.62 1232.23,-170.62 1245.99,-170.62"/>
<polygon fill="#63b8ff" stroke="#63b8ff" points="1245.78,-174.13 1255.78,-170.63 1245.78,-167.13 1245.78,-174.13"/>
</a>
</g>
</g>
<!-- Node24 -->
<g id="Node000024" class="node">
<title>Node24</title>
<g id="a_Node000024"><a xlink:href="../../de/d04/str-l_8c.html#abe2a3a71f0b4dbc7d37c59d16762b6fb" target="_top" xlink:title="lstr_copy_* helper.">
<polygon fill="white" stroke="#666666" points="1446.5,-180.25 1367.5,-180.25 1367.5,-161 1446.5,-161 1446.5,-180.25"/>
<text text-anchor="middle" x="1407" y="-166.75" font-family="Helvetica,sans-Serif" font-size="10.00">mp_lstr_copy_</text>
</a>
</g>
</g>
<!-- Node23&#45;&gt;Node24 -->
<g id="edge25_Node000023_Node000024" class="edge">
<title>Node23&#45;&gt;Node24</title>
<g id="a_edge25_Node000023_Node000024"><a xlink:title=" ">
<path fill="none" stroke="#63b8ff" d="M1331.77,-170.62C1339.46,-170.62 1347.71,-170.62 1355.82,-170.62"/>
<polygon fill="#63b8ff" stroke="#63b8ff" points="1355.6,-174.13 1365.6,-170.63 1355.6,-167.13 1355.6,-174.13"/>
</a>
</g>
</g>
<!-- Node24&#45;&gt;Node21 -->
<g id="edge31_Node000024_Node000021" class="edge">
<title>Node24&#45;&gt;Node21</title>
<g id="a_edge31_Node000024_Node000021"><a xlink:title=" ">
<path fill="none" stroke="#63b8ff" d="M1446.9,-162.45C1454.85,-160.77 1463.19,-159.02 1471.06,-157.37"/>
<polygon fill="#63b8ff" stroke="#63b8ff" points="1471.62,-160.83 1480.68,-155.34 1470.18,-153.98 1471.62,-160.83"/>
</a>
</g>
</g>
<!-- Node25 -->
<g id="Node000025" class="node">
<title>Node25</title>
<g id="a_Node000025"><a xlink:href="../../d9/d9a/mem_8h.html#aebbbd277e2952bdb802104671ba23ba9" target="_top" xlink:title=" ">
<polygon fill="white" stroke="#666666" points="1526.25,-201.25 1491.5,-201.25 1491.5,-182 1526.25,-182 1526.25,-201.25"/>
<text text-anchor="middle" x="1508.88" y="-187.75" font-family="Helvetica,sans-Serif" font-size="10.00">ifree</text>
</a>
</g>
</g>
<!-- Node24&#45;&gt;Node25 -->
<g id="edge26_Node000024_Node000025" class="edge">
<title>Node24&#45;&gt;Node25</title>
<g id="a_edge26_Node000024_Node000025"><a xlink:title=" ">
<path fill="none" stroke="#63b8ff" d="M1446.9,-178.8C1457.92,-181.12 1469.7,-183.6 1479.94,-185.75"/>
<polygon fill="#63b8ff" stroke="#63b8ff" points="1479.12,-189.16 1489.63,-187.79 1480.56,-182.31 1479.12,-189.16"/>
</a>
</g>
</g>
<!-- Node26 -->
<g id="Node000026" class="node">
<title>Node26</title>
<g id="a_Node000026"><a xlink:href="../../d8/d37/mem_8blk.html#a36b65ab346f1d0deed7b63c544c78f2b" target="_top" xlink:title=" ">
<polygon fill="white" stroke="#666666" points="1616.12,-276.25 1579.88,-276.25 1579.88,-257 1616.12,-257 1616.12,-276.25"/>
<text text-anchor="middle" x="1598" y="-262.75" font-family="Helvetica,sans-Serif" font-size="10.00">ipool</text>
</a>
</g>
</g>
<!-- Node25&#45;&gt;Node26 -->
<g id="edge27_Node000025_Node000026" class="edge">
<title>Node25&#45;&gt;Node26</title>
<g id="a_edge27_Node000025_Node000026"><a xlink:title=" ">
<path fill="none" stroke="#63b8ff" d="M1521.63,-201.74C1535.73,-213.88 1559.63,-234.46 1576.74,-249.18"/>
<polygon fill="#63b8ff" stroke="#63b8ff" points="1574.43,-251.81 1584.29,-255.68 1578.99,-246.51 1574.43,-251.81"/>
</a>
</g>
</g>
<!-- Node28 -->
<g id="Node000028" class="node">
<title>Node28</title>
<g id="a_Node000028"><a xlink:href="../../d8/d37/mem_8blk.html#a83c7cf203e5eef9d1a8c6c43cde3e2e5" target="_top" xlink:title=" ">
<polygon fill="white" stroke="#666666" points="1624.75,-201.25 1571.25,-201.25 1571.25,-182 1624.75,-182 1624.75,-201.25"/>
<text text-anchor="middle" x="1598" y="-187.75" font-family="Helvetica,sans-Serif" font-size="10.00">mp_ifree</text>
</a>
</g>
</g>
<!-- Node25&#45;&gt;Node28 -->
<g id="edge30_Node000025_Node000028" class="edge">
<title>Node25&#45;&gt;Node28</title>
<g id="a_edge30_Node000025_Node000028"><a xlink:title=" ">
<path fill="none" stroke="#63b8ff" d="M1526.67,-191.62C1536.09,-191.62 1548.24,-191.62 1559.78,-191.62"/>
<polygon fill="#63b8ff" stroke="#63b8ff" points="1559.48,-195.13 1569.48,-191.63 1559.48,-188.13 1559.48,-195.13"/>
</a>
</g>
</g>
<!-- Node26&#45;&gt;Node13 -->
<g id="edge28_Node000026_Node000013" class="edge">
<title>Node26&#45;&gt;Node13</title>
<g id="a_edge28_Node000026_Node000013"><a xlink:title=" ">
<path fill="none" stroke="#63b8ff" d="M1579.48,-272.09C1546.35,-281.94 1472.07,-301.62 1408,-301.62 881.88,-301.62 881.88,-301.62 881.88,-301.62 793.42,-301.62 769.6,-269.12 707,-206.62 683.35,-183.02 694.18,-164.69 671,-140.62 670.64,-140.25 670.27,-139.88 669.89,-139.52"/>
<polygon fill="#63b8ff" stroke="#63b8ff" points="672.3,-136.96 662.26,-133.58 668,-142.48 672.3,-136.96"/>
</a>
</g>
</g>
<!-- Node27 -->
<g id="Node000027" class="node">
<title>Node27</title>
<g id="a_Node000027"><a xlink:href="../../d1/d10/mem-stack_8h.html#a1d0e2a29f86dc033a02e50484b527fd0" target="_top" xlink:title=" ">
<polygon fill="white" stroke="#666666" points="1703,-276.25 1660.75,-276.25 1660.75,-257 1703,-257 1703,-276.25"/>
<text text-anchor="middle" x="1681.88" y="-262.75" font-family="Helvetica,sans-Serif" font-size="10.00">t_pool</text>
</a>
</g>
</g>
<!-- Node26&#45;&gt;Node27 -->
<g id="edge29_Node000026_Node000027" class="edge">
<title>Node26&#45;&gt;Node27</title>
<g id="a_edge29_Node000026_Node000027"><a xlink:title=" ">
<path fill="none" stroke="#63b8ff" d="M1616.36,-266.62C1625.81,-266.62 1637.79,-266.62 1648.86,-266.62"/>
<polygon fill="#63b8ff" stroke="#63b8ff" points="1648.84,-270.13 1658.84,-266.63 1648.84,-263.13 1648.84,-270.13"/>
</a>
</g>
</g>
<!-- Node32&#45;&gt;Node20 -->
<g id="edge40_Node000032_Node000020" class="edge">
<title>Node32&#45;&gt;Node20</title>
<g id="a_edge40_Node000032_Node000020"><a xlink:title=" ">
<path fill="none" stroke="#63b8ff" d="M784.06,-107.34C845.25,-98.04 982.85,-81 1097.75,-94.62 1111.29,-96.23 1125.87,-99.33 1138.78,-102.57"/>
<polygon fill="#63b8ff" stroke="#63b8ff" points="1137.59,-105.88 1148.15,-105.04 1139.37,-99.11 1137.59,-105.88"/>
</a>
</g>
</g>
<!-- Node33 -->
<g id="Node000033" class="node">
<title>Node33</title>
<g id="a_Node000033"><a xlink:href="../../d1/dc0/group__log.html#ga168a6f17b248f61f7d25a17d58d04e36" target="_top" xlink:title=" ">
<polygon fill="white" stroke="#666666" points="927.25,-47.25 838.5,-47.25 838.5,-28 927.25,-28 927.25,-47.25"/>
<text text-anchor="middle" x="882.88" y="-33.75" font-family="Helvetica,sans-Serif" font-size="10.00">logger_has_level</text>
</a>
</g>
</g>
<!-- Node32&#45;&gt;Node33 -->
<g id="edge37_Node000032_Node000033" class="edge">
<title>Node32&#45;&gt;Node33</title>
<g id="a_edge37_Node000032_Node000033"><a xlink:title=" ">
<path fill="none" stroke="#63b8ff" d="M780.01,-102.56C785.16,-100.25 790.36,-97.59 795,-94.62 813.28,-82.93 812.98,-73.73 831,-61.62 835.84,-58.37 841.19,-55.33 846.55,-52.58"/>
<polygon fill="#63b8ff" stroke="#63b8ff" points="847.89,-55.82 855.37,-48.33 844.85,-49.52 847.89,-55.82"/>
</a>
</g>
</g>
<!-- Node34 -->
<g id="Node000034" class="node">
<title>Node34</title>
<g id="a_Node000034"><a xlink:href="../../d1/dc0/group__log.html#gaf388752b988541da0abeceecdf96e6b3" target="_top" xlink:title=" ">
<polygon fill="white" stroke="#666666" points="1077.5,-47.25 991,-47.25 991,-28 1077.5,-28 1077.5,-47.25"/>
<text text-anchor="middle" x="1034.25" y="-33.75" font-family="Helvetica,sans-Serif" font-size="10.00">logger_get_level</text>
</a>
</g>
</g>
<!-- Node33&#45;&gt;Node34 -->
<g id="edge38_Node000033_Node000034" class="edge">
<title>Node33&#45;&gt;Node34</title>
<g id="a_edge38_Node000033_Node000034"><a xlink:title=" ">
<path fill="none" stroke="#63b8ff" d="M927.48,-37.62C943.64,-37.62 962.17,-37.62 979.15,-37.62"/>
<polygon fill="#63b8ff" stroke="#63b8ff" points="979.11,-41.13 989.11,-37.63 979.11,-34.13 979.11,-41.13"/>
</a>
</g>
</g>
<!-- Node35 -->
<g id="Node000035" class="node">
<title>Node35</title>
<g id="a_Node000035"><a xlink:href="../../d1/dc0/group__log.html#ga93cbd623096e1704532d15b3eb30e42f" target="_top" xlink:title=" ">
<polygon fill="white" stroke="#666666" points="1221.75,-47.25 1133.75,-47.25 1133.75,-28 1221.75,-28 1221.75,-47.25"/>
<text text-anchor="middle" x="1177.75" y="-33.75" font-family="Helvetica,sans-Serif" font-size="10.00">__logger_refresh</text>
</a>
</g>
</g>
<!-- Node34&#45;&gt;Node35 -->
<g id="edge39_Node000034_Node000035" class="edge">
<title>Node34&#45;&gt;Node35</title>
<g id="a_edge39_Node000034_Node000035"><a xlink:title=" ">
<path fill="none" stroke="#63b8ff" d="M1077.7,-37.62C1091.58,-37.62 1107.19,-37.62 1121.85,-37.62"/>
<polygon fill="#63b8ff" stroke="#63b8ff" points="1121.83,-41.13 1131.83,-37.63 1121.83,-34.13 1121.83,-41.13"/>
</a>
</g>
</g>
<!-- Node38 -->
<g id="Node000038" class="node">
<title>Node38</title>
<g id="a_Node000038"><a xlink:href="../../d8/d96/bithacks_8h.html#ab80588fa9f8b9e766249edaf70558bdc" target="_top" xlink:title=" ">
<polygon fill="white" stroke="#666666" points="669.88,-169.25 609.62,-169.25 609.62,-150 669.88,-150 669.88,-169.25"/>
<text text-anchor="middle" x="639.75" y="-155.75" font-family="Helvetica,sans-Serif" font-size="10.00">bitcountsz</text>
</a>
</g>
</g>
<!-- Node37&#45;&gt;Node38 -->
<g id="edge43_Node000037_Node000038" class="edge">
<title>Node37&#45;&gt;Node38</title>
<g id="a_edge43_Node000037_Node000038"><a xlink:title=" ">
<path fill="none" stroke="#63b8ff" d="M558.97,-159.62C571.49,-159.62 585.39,-159.62 598.04,-159.62"/>
<polygon fill="#63b8ff" stroke="#63b8ff" points="597.72,-163.13 607.72,-159.63 597.72,-156.13 597.72,-163.13"/>
</a>
</g>
</g>
<!-- Node40 -->
<g id="Node000040" class="node">
<title>Node40</title>
<g id="a_Node000040"><a xlink:href="../../d8/d37/mem_8blk.html#a377e36d6fbaf3ee7f1b217559cb0c850" target="_top" xlink:title=" ">
<polygon fill="white" stroke="#666666" points="570.25,-206.25 468,-206.25 468,-187 570.25,-187 570.25,-206.25"/>
<text text-anchor="middle" x="519.12" y="-192.75" font-family="Helvetica,sans-Serif" font-size="10.00">__imalloc_too_large</text>
</a>
</g>
</g>
<!-- Node39&#45;&gt;Node40 -->
<g id="edge45_Node000039_Node000040" class="edge">
<title>Node39&#45;&gt;Node40</title>
<g id="a_edge45_Node000039_Node000040"><a xlink:title=" ">
<path fill="none" stroke="#63b8ff" d="M426.27,-178.73C436.09,-180.65 446.44,-182.66 456.53,-184.63"/>
<polygon fill="#63b8ff" stroke="#63b8ff" points="455.78,-188.05 466.26,-186.52 457.12,-181.18 455.78,-188.05"/>
</a>
</g>
</g>
<!-- Node42 -->
<g id="Node000042" class="node">
<title>Node42</title>
<g id="a_Node000042"><a xlink:href="../../d4/d02/str-buf_8c.html#a4a2eff2f7383d95c9ede6af667197566" target="_top" xlink:title=" ">
<polygon fill="white" stroke="#666666" points="405.38,-85.25 341.38,-85.25 341.38,-66 405.38,-66 405.38,-85.25"/>
<text text-anchor="middle" x="373.38" y="-71.75" font-family="Helvetica,sans-Serif" font-size="10.00">__sb_reset</text>
</a>
</g>
</g>
<!-- Node41&#45;&gt;Node42 -->
<g id="edge47_Node000041_Node000042" class="edge">
<title>Node41&#45;&gt;Node42</title>
<g id="a_edge47_Node000041_Node000042"><a xlink:title=" ">
<path fill="none" stroke="#63b8ff" d="M253.09,-106.83C274.46,-101.24 305.18,-93.2 330.09,-86.69"/>
<polygon fill="#63b8ff" stroke="#63b8ff" points="330.82,-90.11 339.61,-84.2 329.05,-83.34 330.82,-90.11"/>
</a>
</g>
</g>
<!-- Node43 -->
<g id="Node000043" class="node">
<title>Node43</title>
<g id="a_Node000043"><a xlink:href="../../d9/d9a/mem_8h.html#a3fd6d5b3dcb24f194848ce86f988fb13" target="_top" xlink:title=" ">
<polygon fill="white" stroke="#666666" points="546.62,-95.25 491.62,-95.25 491.62,-76 546.62,-76 546.62,-95.25"/>
<text text-anchor="middle" x="519.12" y="-81.75" font-family="Helvetica,sans-Serif" font-size="10.00">mp_ipool</text>
</a>
</g>
</g>
<!-- Node42&#45;&gt;Node43 -->
<g id="edge48_Node000042_Node000043" class="edge">
<title>Node42&#45;&gt;Node43</title>
<g id="a_edge48_Node000042_Node000043"><a xlink:title=" ">
<path fill="none" stroke="#63b8ff" d="M405.57,-77.79C427.46,-79.32 456.88,-81.36 480.14,-82.98"/>
<polygon fill="#63b8ff" stroke="#63b8ff" points="479.61,-86.45 489.83,-83.66 480.1,-79.47 479.61,-86.45"/>
</a>
</g>
</g>
<!-- Node44 -->
<g id="Node000044" class="node">
<title>Node44</title>
<g id="a_Node000044"><a xlink:href="../../dc/d31/str-buf_8h.html#a6dc2ca5bc1506b37f95463e6abe4e201" target="_top" xlink:title=" ">
<polygon fill="white" stroke="#666666" points="671,-38.25 608.5,-38.25 608.5,-19 671,-19 671,-38.25"/>
<text text-anchor="middle" x="639.75" y="-24.75" font-family="Helvetica,sans-Serif" font-size="10.00">sb_init_full</text>
</a>
</g>
</g>
<!-- Node42&#45;&gt;Node44 -->
<g id="edge49_Node000042_Node000044" class="edge">
<title>Node42&#45;&gt;Node44</title>
<g id="a_edge49_Node000042_Node000044"><a xlink:title=" ">
<path fill="none" stroke="#63b8ff" d="M405.74,-70.05C453.4,-61.58 544.1,-45.45 597.19,-36.01"/>
<polygon fill="#63b8ff" stroke="#63b8ff" points="597.52,-39.51 606.75,-34.31 596.29,-32.62 597.52,-39.51"/>
</a>
</g>
</g>
<!-- Node46 -->
<g id="Node000046" class="node">
<title>Node46</title>
<g id="a_Node000046"><a xlink:href="../../d4/d02/str-buf_8c.html#a7ab29759b9a4ccea4138a4f64031ce08" target="_top" xlink:title="Resets the buffer but keeps the allocated memory, however big it is.">
<polygon fill="white" stroke="#666666" points="572.5,-19.25 465.75,-19.25 465.75,0 572.5,0 572.5,-19.25"/>
<text text-anchor="middle" x="519.12" y="-5.75" font-family="Helvetica,sans-Serif" font-size="10.00">sb_reset_keep_mem</text>
</a>
</g>
</g>
<!-- Node42&#45;&gt;Node46 -->
<g id="edge51_Node000042_Node000046" class="edge">
<title>Node42&#45;&gt;Node46</title>
<g id="a_edge51_Node000042_Node000046"><a xlink:title=" ">
<path fill="none" stroke="#63b8ff" d="M396.16,-65.6C414.67,-57.09 441.95,-44.55 465.75,-33.62 472.31,-30.61 479.34,-27.39 486.04,-24.32"/>
<polygon fill="#63b8ff" stroke="#63b8ff" points="487.2,-27.64 494.83,-20.29 484.28,-21.28 487.2,-27.64"/>
</a>
</g>
</g>
<!-- Node45 -->
<g id="Node000045" class="node">
<title>Node45</title>
<g id="a_Node000045"><a xlink:href="../../dc/d31/str-buf_8h.html#a01c1a4f8ed76b6a919595b803c7d7376" target="_top" xlink:title=" ">
<polygon fill="white" stroke="#666666" points="793.12,-38.25 708.88,-38.25 708.88,-19 793.12,-19 793.12,-38.25"/>
<text text-anchor="middle" x="751" y="-24.75" font-family="Helvetica,sans-Serif" font-size="10.00">sb_set_trailing0</text>
</a>
</g>
</g>
<!-- Node44&#45;&gt;Node45 -->
<g id="edge50_Node000044_Node000045" class="edge">
<title>Node44&#45;&gt;Node45</title>
<g id="a_edge50_Node000044_Node000045"><a xlink:title=" ">
<path fill="none" stroke="#63b8ff" d="M671.47,-28.62C679.46,-28.62 688.3,-28.62 697.07,-28.62"/>
<polygon fill="#63b8ff" stroke="#63b8ff" points="696.99,-32.13 706.99,-28.63 696.99,-25.13 696.99,-32.13"/>
</a>
</g>
</g>
<!-- Node46&#45;&gt;Node44 -->
<g id="edge52_Node000046_Node000044" class="edge">
<title>Node46&#45;&gt;Node44</title>
<g id="a_edge52_Node000046_Node000044"><a xlink:title=" ">
<path fill="none" stroke="#63b8ff" d="M572.85,-18.07C581,-19.37 589.31,-20.71 597.17,-21.97"/>
<polygon fill="#63b8ff" stroke="#63b8ff" points="596.36,-25.38 606.79,-23.51 597.47,-18.47 596.36,-25.38"/>
</a>
</g>
</g>
</g>
</svg>
