<?xml version="1.0" encoding="UTF-8" standalone="no"?>
<!DOCTYPE svg PUBLIC "-//W3C//DTD SVG 1.1//EN"
 "http://www.w3.org/Graphics/SVG/1.1/DTD/svg11.dtd">
<!-- Generated by graphviz version 9.0.0 (20230911.1827)
 -->
<!-- Title: iop_field_path_run Pages: 1 -->
<!--zoomable 94 -->

<svg id="main" version="1.1" xmlns="http://www.w3.org/2000/svg" xmlns:xlink="http://www.w3.org/1999/xlink" xml:space="preserve" onload="init(evt)">
<style type="text/css"><![CDATA[
.node, .edge {opacity: 0.7;}
.node.selected, .edge.selected {opacity: 1;}
.edge:hover path { stroke: red; }
.edge:hover polygon { stroke: red; fill: red; }
]]></style>

<defs>
  <circle id="rim" cx="0" cy="0" r="7"/>
  <circle id="rim2" cx="0" cy="0" r="3.5"/>
  <g id="zoomPlus">
    <use xlink:href="#rim" fill="#404040"><set attributeName="fill" to="#808080" begin="zoomplus.mouseover" end="zoomplus.mouseout"/></use>
    <path d="M-4,0h8M0,-4v8" fill="none" stroke="white" stroke-width="1.5" pointer-events="none"/>
  </g>
  <g id="zoomMin">
    <use xlink:href="#rim" fill="#404040"><set attributeName="fill" to="#808080" begin="zoomminus.mouseover" end="zoomminus.mouseout"/></use>
    <path d="M-4,0h8" fill="none" stroke="white" stroke-width="1.5" pointer-events="none"/>
  </g>
  <g id="arrowUp" transform="translate(30 24)">
    <use xlink:href="#rim"/>
    <path pointer-events="none" fill="none" stroke="white" stroke-width="1.5" d="M0,-3.0v7 M-2.5,-0.5L0,-3.0L2.5,-0.5"/>
  </g>
  <g id="arrowRight" transform="rotate(90) translate(36 -43)">
    <use xlink:href="#rim"/>
    <path pointer-events="none" fill="none" stroke="white" stroke-width="1.5" d="M0,-3.0v7 M-2.5,-0.5L0,-3.0L2.5,-0.5"/>
  </g>
  <g id="arrowDown" transform="rotate(180) translate(-30 -48)">
    <use xlink:href="#rim"/>
    <path pointer-events="none" fill="none" stroke="white" stroke-width="1.5" d="M0,-3.0v7 M-2.5,-0.5L0,-3.0L2.5,-0.5"/>
  </g>
  <g id="arrowLeft" transform="rotate(270) translate(-36 17)">
    <use xlink:href="#rim"/>
    <path pointer-events="none" fill="none" stroke="white" stroke-width="1.5" d="M0,-3.0v7 M-2.5,-0.5L0,-3.0L2.5,-0.5"/>
  </g>
  <g id="resetDef">
    <use xlink:href="#rim2" fill="#404040"><set attributeName="fill" to="#808080" begin="reset.mouseover" end="reset.mouseout"/></use>
  </g>
</defs>
<script type="application/ecmascript">
var viewWidth = 612;
var viewHeight = 94;
var sectionId = 'dynsection-168';
</script>
<script type="application/ecmascript" xlink:href="../../svg.min.js"/>
<svg id="graph" class="graph">
<g id="viewport">
<title>iop_field_path_run</title>
<!-- Node1 -->
<g id="Node000001" class="node">
<title>Node1</title>
<g id="a_Node000001"><a xlink:title=" ">
<polygon fill="#999999" stroke="#666666" points="604.25,-58.25 510.25,-58.25 510.25,-39 604.25,-39 604.25,-58.25"/>
<text text-anchor="middle" x="557.25" y="-44.75" font-family="Helvetica,sans-Serif" font-size="10.00">iop_field_path_run</text>
</a>
</g>
</g>
<!-- Node1&#45;&gt;Node1 -->
<g id="edge2_Node000001_Node000001" class="edge">
<title>Node1&#45;&gt;Node1</title>
<g id="a_edge2_Node000001_Node000001"><a xlink:title=" ">
<path fill="none" stroke="#63b8ff" d="M580.13,-69.65C577.26,-73.53 569.64,-76.25 557.25,-76.25 534.6,-76.25 527.87,-67.15 537.07,-58.54"/>
<polygon fill="#63b8ff" stroke="#63b8ff" points="583.54,-68.9 577.78,-60.01 576.74,-70.55 583.54,-68.9"/>
</a>
</g>
</g>
<!-- Node2 -->
<g id="Node000002" class="node">
<title>Node2</title>
<g id="a_Node000002"><a xlink:href="../../d0/d2d/iop_8blk.html#a8ca30fb54c8c718390627da6c3047783" target="_top" xlink:title=" ">
<polygon fill="white" stroke="#666666" points="474.25,-85.88 382.5,-85.88 382.5,-55.38 474.25,-55.38 474.25,-85.88"/>
<text text-anchor="start" x="390.5" y="-72.38" font-family="Helvetica,sans-Serif" font-size="10.00">iop_field_path_for</text>
<text text-anchor="middle" x="428.38" y="-61.12" font-family="Helvetica,sans-Serif" font-size="10.00">_each_value</text>
</a>
</g>
</g>
<!-- Node1&#45;&gt;Node2 -->
<g id="edge1_Node000001_Node000002" class="edge">
<title>Node1&#45;&gt;Node2</title>
<g id="a_edge1_Node000001_Node000002"><a xlink:title=" ">
<path fill="none" stroke="#63b8ff" d="M499,-58.55C490.77,-59.98 482.4,-61.43 474.44,-62.81"/>
<polygon fill="#63b8ff" stroke="#63b8ff" points="499.34,-62.05 508.6,-56.89 498.14,-55.15 499.34,-62.05"/>
</a>
</g>
</g>
<!-- Node3 -->
<g id="Node000003" class="node">
<title>Node3</title>
<g id="a_Node000003"><a xlink:href="../../d0/d2d/iop_8blk.html#a6142a344b24268122037e1855f001123" target="_top" xlink:title=" ">
<polygon fill="white" stroke="#666666" points="466,-37.25 390.75,-37.25 390.75,-18 466,-18 466,-37.25"/>
<text text-anchor="middle" x="428.38" y="-23.75" font-family="Helvetica,sans-Serif" font-size="10.00">iop_get_fieldp</text>
</a>
</g>
</g>
<!-- Node1&#45;&gt;Node3 -->
<g id="edge3_Node000001_Node000003" class="edge">
<title>Node1&#45;&gt;Node3</title>
<g id="a_edge3_Node000001_Node000003"><a xlink:title=" ">
<path fill="none" stroke="#63b8ff" d="M499.05,-39.16C487.88,-37.31 476.45,-35.42 466.17,-33.71"/>
<polygon fill="#63b8ff" stroke="#63b8ff" points="498.16,-42.56 508.59,-40.74 499.3,-35.65 498.16,-42.56"/>
</a>
</g>
</g>
<!-- Node4 -->
<g id="Node000004" class="node">
<title>Node4</title>
<g id="a_Node000004"><a xlink:href="../../d0/d2d/iop_8blk.html#a72d1069b5861ce1f8cd3e445d5a715af" target="_top" xlink:title=" ">
<polygon fill="white" stroke="#666666" points="328.12,-56.25 252.12,-56.25 252.12,-37 328.12,-37 328.12,-56.25"/>
<text text-anchor="middle" x="290.12" y="-42.75" font-family="Helvetica,sans-Serif" font-size="10.00">compare_field</text>
</a>
</g>
</g>
<!-- Node3&#45;&gt;Node4 -->
<g id="edge4_Node000003_Node000004" class="edge">
<title>Node3&#45;&gt;Node4</title>
<g id="a_edge4_Node000003_Node000004"><a xlink:title=" ">
<path fill="none" stroke="#63b8ff" d="M379.3,-34.33C362.62,-36.66 344.18,-39.23 328.5,-41.41"/>
<polygon fill="#63b8ff" stroke="#63b8ff" points="379.58,-37.82 389,-32.98 378.62,-30.89 379.58,-37.82"/>
</a>
</g>
</g>
<!-- Node7 -->
<g id="Node000007" class="node">
<title>Node7</title>
<g id="a_Node000007"><a xlink:href="../../d0/d2d/iop_8blk.html#a3b450df6a3c8d9528d8196a41d022676" target="_top" xlink:title=" ">
<polygon fill="white" stroke="#666666" points="346.5,-19.25 233.75,-19.25 233.75,0 346.5,0 346.5,-19.25"/>
<text text-anchor="middle" x="290.12" y="-5.75" font-family="Helvetica,sans-Serif" font-size="10.00">iop_filter_val_matches</text>
</a>
</g>
</g>
<!-- Node3&#45;&gt;Node7 -->
<g id="edge7_Node000003_Node000007" class="edge">
<title>Node3&#45;&gt;Node7</title>
<g id="a_edge7_Node000003_Node000007"><a xlink:title=" ">
<path fill="none" stroke="#63b8ff" d="M379.11,-21.25C368.71,-19.87 357.64,-18.41 346.98,-17"/>
<polygon fill="#63b8ff" stroke="#63b8ff" points="378.63,-24.72 389,-22.56 379.55,-17.78 378.63,-24.72"/>
</a>
</g>
</g>
<!-- Node5 -->
<g id="Node000005" class="node">
<title>Node5</title>
<g id="a_Node000005"><a xlink:href="../../d0/d2d/iop_8blk.html#a4458976366c9e0f77cc34390986c3c0d" target="_top" xlink:title=" ">
<polygon fill="white" stroke="#666666" points="197.75,-56.25 112.75,-56.25 112.75,-37 197.75,-37 197.75,-56.25"/>
<text text-anchor="middle" x="155.25" y="-42.75" font-family="Helvetica,sans-Serif" font-size="10.00">iop_msort_desc</text>
</a>
</g>
</g>
<!-- Node4&#45;&gt;Node5 -->
<g id="edge5_Node000004_Node000005" class="edge">
<title>Node4&#45;&gt;Node5</title>
<g id="a_edge5_Node000004_Node000005"><a xlink:title=" ">
<path fill="none" stroke="#63b8ff" d="M240.4,-46.62C226.49,-46.62 211.46,-46.62 198.01,-46.62"/>
<polygon fill="#63b8ff" stroke="#63b8ff" points="240.24,-50.13 250.24,-46.63 240.24,-43.13 240.24,-50.13"/>
</a>
</g>
</g>
<!-- Node6 -->
<g id="Node000006" class="node">
<title>Node6</title>
<g id="a_Node000006"><a xlink:href="../../d0/d2d/iop_8blk.html#a0d03ebbf035d0f126c3f451bfaf7aa4e" target="_top" xlink:title=" ">
<polygon fill="white" stroke="#666666" points="76.75,-56.25 0,-56.25 0,-37 76.75,-37 76.75,-56.25"/>
<text text-anchor="middle" x="38.38" y="-42.75" font-family="Helvetica,sans-Serif" font-size="10.00">iop_sort_desc</text>
</a>
</g>
</g>
<!-- Node5&#45;&gt;Node6 -->
<g id="edge6_Node000005_Node000006" class="edge">
<title>Node5&#45;&gt;Node6</title>
<g id="a_edge6_Node000005_Node000006"><a xlink:title=" ">
<path fill="none" stroke="#63b8ff" d="M101.14,-46.62C93.04,-46.62 84.82,-46.62 77.14,-46.62"/>
<polygon fill="#63b8ff" stroke="#63b8ff" points="100.94,-50.13 110.94,-46.63 100.94,-43.13 100.94,-50.13"/>
</a>
</g>
</g>
</g>
</svg>

<g id="navigator" transform="translate(0 0)" fill="#404254">
  <rect fill="#f2f5e9" fill-opacity="0.5" stroke="#606060" stroke-width=".5" x="0" y="0" width="60" height="60"/>
  <use id="zoomplus" xlink:href="#zoomPlus" x="17" y="9" onmousedown="handleZoom(evt,'in')"/>
  <use id="zoomminus" xlink:href="#zoomMin" x="42" y="9" onmousedown="handleZoom(evt,'out')"/>
  <use id="reset" xlink:href="#resetDef" x="30" y="36" onmousedown="handleReset()"/>
   <use id="arrowup" xlink:href="#arrowUp" x="0" y="0" onmousedown="handlePan(0,-1)"/>
  <use id="arrowright" xlink:href="#arrowRight" x="0" y="0" onmousedown="handlePan(1,0)"/>
  <use id="arrowdown" xlink:href="#arrowDown" x="0" y="0" onmousedown="handlePan(0,1)"/>
  <use id="arrowleft" xlink:href="#arrowLeft" x="0" y="0" onmousedown="handlePan(-1,0)"/>
</g>
<svg viewBox="0 0 15 15" width="100%" height="30px" preserveAspectRatio="xMaxYMin meet">
 <g id="arrow_out" transform="scale(0.3 0.3)">
  <a xlink:href="iop_8blk_a883281b4fe8483f4ff15376774a7dbc4_icgraph_org.svg" target="_base">
   <rect id="button" ry="5" rx="5" y="6" x="6" height="38" width="38"
        fill="#f2f5e9" fill-opacity="0.5" stroke="#606060" stroke-width="1.0"/>
   <path id="arrow"
     d="M 11.500037,31.436501 C 11.940474,20.09759 22.043105,11.32322 32.158766,21.979434 L 37.068811,17.246167 C 37.068811,17.246167 37.088388,32 37.088388,32 L 22.160133,31.978069 C 22.160133,31.978069 26.997745,27.140456 26.997745,27.140456 C 18.528582,18.264221 13.291696,25.230495 11.500037,31.436501 z"
     style="fill:#404040;"/>
  </a>
 </g>
</svg>

<style type='text/css'>
<![CDATA[
[data-mouse-over-selected='false'] { opacity: 0.7; }
[data-mouse-over-selected='true']  { opacity: 1.0; }
]]>
</style>
<script type="application/ecmascript"><![CDATA[
document.addEventListener('DOMContentLoaded', (event) => {
  highlightEdges();
  highlightAdjacentNodes();
});
]]></script>
</svg>
