<?xml version="1.0" encoding="UTF-8" standalone="no"?>
<!DOCTYPE svg PUBLIC "-//W3C//DTD SVG 1.1//EN"
 "http://www.w3.org/Graphics/SVG/1.1/DTD/svg11.dtd">
<!-- Generated by graphviz version 9.0.0 (20230911.1827)
 -->
<!-- Title: iop_value_from_field Pages: 1 -->
<!--zoomable 138 -->

<svg id="main" version="1.1" xmlns="http://www.w3.org/2000/svg" xmlns:xlink="http://www.w3.org/1999/xlink" xml:space="preserve" onload="init(evt)">
<style type="text/css"><![CDATA[
.node, .edge {opacity: 0.7;}
.node.selected, .edge.selected {opacity: 1;}
.edge:hover path { stroke: red; }
.edge:hover polygon { stroke: red; fill: red; }
]]></style>

<defs>
  <circle id="rim" cx="0" cy="0" r="7"/>
  <circle id="rim2" cx="0" cy="0" r="3.5"/>
  <g id="zoomPlus">
    <use xlink:href="#rim" fill="#404040"><set attributeName="fill" to="#808080" begin="zoomplus.mouseover" end="zoomplus.mouseout"/></use>
    <path d="M-4,0h8M0,-4v8" fill="none" stroke="white" stroke-width="1.5" pointer-events="none"/>
  </g>
  <g id="zoomMin">
    <use xlink:href="#rim" fill="#404040"><set attributeName="fill" to="#808080" begin="zoomminus.mouseover" end="zoomminus.mouseout"/></use>
    <path d="M-4,0h8" fill="none" stroke="white" stroke-width="1.5" pointer-events="none"/>
  </g>
  <g id="arrowUp" transform="translate(30 24)">
    <use xlink:href="#rim"/>
    <path pointer-events="none" fill="none" stroke="white" stroke-width="1.5" d="M0,-3.0v7 M-2.5,-0.5L0,-3.0L2.5,-0.5"/>
  </g>
  <g id="arrowRight" transform="rotate(90) translate(36 -43)">
    <use xlink:href="#rim"/>
    <path pointer-events="none" fill="none" stroke="white" stroke-width="1.5" d="M0,-3.0v7 M-2.5,-0.5L0,-3.0L2.5,-0.5"/>
  </g>
  <g id="arrowDown" transform="rotate(180) translate(-30 -48)">
    <use xlink:href="#rim"/>
    <path pointer-events="none" fill="none" stroke="white" stroke-width="1.5" d="M0,-3.0v7 M-2.5,-0.5L0,-3.0L2.5,-0.5"/>
  </g>
  <g id="arrowLeft" transform="rotate(270) translate(-36 17)">
    <use xlink:href="#rim"/>
    <path pointer-events="none" fill="none" stroke="white" stroke-width="1.5" d="M0,-3.0v7 M-2.5,-0.5L0,-3.0L2.5,-0.5"/>
  </g>
  <g id="resetDef">
    <use xlink:href="#rim2" fill="#404040"><set attributeName="fill" to="#808080" begin="reset.mouseover" end="reset.mouseout"/></use>
  </g>
</defs>
<script type="application/ecmascript">
var viewWidth = 531;
var viewHeight = 138;
var sectionId = 'dynsection-331';
</script>
<script type="application/ecmascript" xlink:href="../../svg.min.js"/>
<svg id="graph" class="graph">
<g id="viewport">
<title>iop_value_from_field</title>
<!-- Node1 -->
<g id="Node000001" class="node">
<title>Node1</title>
<g id="a_Node000001"><a xlink:title=" ">
<polygon fill="#999999" stroke="#666666" points="104.5,-55.25 0,-55.25 0,-36 104.5,-36 104.5,-55.25"/>
<text text-anchor="middle" x="52.25" y="-41.75" font-family="Helvetica,sans-Serif" font-size="10.00">iop_value_from_field</text>
</a>
</g>
</g>
<!-- Node2 -->
<g id="Node000002" class="node">
<title>Node2</title>
<g id="a_Node000002"><a xlink:href="../../d0/d2d/iop_8blk.html#af16bda4ccce06ee6cfd01f2b0e366ee0" target="_top" xlink:title=" ">
<polygon fill="white" stroke="#666666" points="241.25,-83.25 140.5,-83.25 140.5,-64 241.25,-64 241.25,-83.25"/>
<text text-anchor="middle" x="190.88" y="-69.75" font-family="Helvetica,sans-Serif" font-size="10.00">iop_field_is_pointed</text>
</a>
</g>
</g>
<!-- Node1&#45;&gt;Node2 -->
<g id="edge1_Node000001_Node000002" class="edge">
<title>Node1&#45;&gt;Node2</title>
<g id="a_edge1_Node000001_Node000002"><a xlink:title=" ">
<path fill="none" stroke="#63b8ff" d="M102.57,-55.73C111.28,-57.52 120.43,-59.39 129.41,-61.23"/>
<polygon fill="#63b8ff" stroke="#63b8ff" points="128.64,-64.65 139.14,-63.23 130.05,-57.79 128.64,-64.65"/>
</a>
</g>
</g>
<!-- Node7 -->
<g id="Node000007" class="node">
<title>Node7</title>
<g id="a_Node000007"><a xlink:href="../../df/d0a/str-l_8h.html#a6a200ca09358f19b13a8e297cda34869" target="_top" xlink:title="returns a constant copy of \v s.">
<polygon fill="white" stroke="#666666" points="218.75,-37.25 163,-37.25 163,-18 218.75,-18 218.75,-37.25"/>
<text text-anchor="middle" x="190.88" y="-23.75" font-family="Helvetica,sans-Serif" font-size="10.00">lstr_dupc</text>
</a>
</g>
</g>
<!-- Node1&#45;&gt;Node7 -->
<g id="edge6_Node000001_Node000007" class="edge">
<title>Node1&#45;&gt;Node7</title>
<g id="a_edge6_Node000001_Node000007"><a xlink:title=" ">
<path fill="none" stroke="#63b8ff" d="M104.9,-38.82C120.4,-36.78 137.13,-34.57 151.6,-32.67"/>
<polygon fill="#63b8ff" stroke="#63b8ff" points="151.71,-36.18 161.16,-31.41 150.79,-29.24 151.71,-36.18"/>
</a>
</g>
</g>
<!-- Node3 -->
<g id="Node000003" class="node">
<title>Node3</title>
<g id="a_Node000003"><a xlink:href="../../d3/d40/iop_8h.html#a766d8c1f5a9d3e12bba0150208905df0" target="_top" xlink:title=" ">
<polygon fill="white" stroke="#666666" points="378.38,-130.25 285.88,-130.25 285.88,-111 378.38,-111 378.38,-130.25"/>
<text text-anchor="middle" x="332.12" y="-116.75" font-family="Helvetica,sans-Serif" font-size="10.00">iop_field_is_class</text>
</a>
</g>
</g>
<!-- Node2&#45;&gt;Node3 -->
<g id="edge2_Node000002_Node000003" class="edge">
<title>Node2&#45;&gt;Node3</title>
<g id="a_edge2_Node000002_Node000003"><a xlink:title=" ">
<path fill="none" stroke="#63b8ff" d="M221.5,-83.73C237.92,-89.32 258.71,-96.38 277.25,-102.62 281.44,-104.04 285.82,-105.51 290.18,-106.97"/>
<polygon fill="#63b8ff" stroke="#63b8ff" points="288.88,-110.23 299.48,-110.08 291.1,-103.59 288.88,-110.23"/>
</a>
</g>
</g>
<!-- Node5 -->
<g id="Node000005" class="node">
<title>Node5</title>
<g id="a_Node000005"><a xlink:href="../../d3/d40/iop_8h.html#aefeceb12938118fa0e6a7ec4beed0049" target="_top" xlink:title=" ">
<polygon fill="white" stroke="#666666" points="387,-93.25 277.25,-93.25 277.25,-74 387,-74 387,-93.25"/>
<text text-anchor="middle" x="332.12" y="-79.75" font-family="Helvetica,sans-Serif" font-size="10.00">iop_field_is_reference</text>
</a>
</g>
</g>
<!-- Node2&#45;&gt;Node5 -->
<g id="edge4_Node000002_Node000005" class="edge">
<title>Node2&#45;&gt;Node5</title>
<g id="a_edge4_Node000002_Node000005"><a xlink:title=" ">
<path fill="none" stroke="#63b8ff" d="M241.36,-77.18C249.23,-77.74 257.46,-78.34 265.63,-78.92"/>
<polygon fill="#63b8ff" stroke="#63b8ff" points="265.33,-82.41 275.56,-79.63 265.84,-75.43 265.33,-82.41"/>
</a>
</g>
</g>
<!-- Node6 -->
<g id="Node000006" class="node">
<title>Node6</title>
<g id="a_Node000006"><a xlink:href="../../d0/d2d/iop_8blk.html#af138a610122e2e92f0bad6e5c05432bd" target="_top" xlink:title="Return whether the IOP type is scalar or not.">
<polygon fill="white" stroke="#666666" points="380.25,-56.25 284,-56.25 284,-37 380.25,-37 380.25,-56.25"/>
<text text-anchor="middle" x="332.12" y="-42.75" font-family="Helvetica,sans-Serif" font-size="10.00">iop_type_is_scalar</text>
</a>
</g>
</g>
<!-- Node2&#45;&gt;Node6 -->
<g id="edge5_Node000002_Node000006" class="edge">
<title>Node2&#45;&gt;Node6</title>
<g id="a_edge5_Node000002_Node000006"><a xlink:title=" ">
<path fill="none" stroke="#63b8ff" d="M241.36,-64.03C251.47,-62.07 262.19,-59.99 272.57,-57.98"/>
<polygon fill="#63b8ff" stroke="#63b8ff" points="273.03,-61.45 282.18,-56.12 271.7,-54.58 273.03,-61.45"/>
</a>
</g>
</g>
<!-- Node4 -->
<g id="Node000004" class="node">
<title>Node4</title>
<g id="a_Node000004"><a xlink:href="../../d3/d40/iop_8h.html#a07f21da2d3381b98dd6f6bbd642d2130" target="_top" xlink:title=" ">
<polygon fill="white" stroke="#666666" points="523,-130.25 423,-130.25 423,-111 523,-111 523,-130.25"/>
<text text-anchor="middle" x="473" y="-116.75" font-family="Helvetica,sans-Serif" font-size="10.00">iop_struct_is_class</text>
</a>
</g>
</g>
<!-- Node3&#45;&gt;Node4 -->
<g id="edge3_Node000003_Node000004" class="edge">
<title>Node3&#45;&gt;Node4</title>
<g id="a_edge3_Node000003_Node000004"><a xlink:title=" ">
<path fill="none" stroke="#63b8ff" d="M378.6,-120.62C389.05,-120.62 400.32,-120.62 411.3,-120.62"/>
<polygon fill="#63b8ff" stroke="#63b8ff" points="411.08,-124.13 421.08,-120.63 411.08,-117.13 411.08,-124.13"/>
</a>
</g>
</g>
<!-- Node8 -->
<g id="Node000008" class="node">
<title>Node8</title>
<g id="a_Node000008"><a xlink:href="../../df/d0a/str-l_8h.html#a3b4dbe9c4cc70340cba0787574dc1c5e" target="_top" xlink:title=" ">
<polygon fill="white" stroke="#666666" points="358.5,-19.25 305.75,-19.25 305.75,0 358.5,0 358.5,-19.25"/>
<text text-anchor="middle" x="332.12" y="-5.75" font-family="Helvetica,sans-Serif" font-size="10.00">lstr_init_</text>
</a>
</g>
</g>
<!-- Node7&#45;&gt;Node8 -->
<g id="edge7_Node000007_Node000008" class="edge">
<title>Node7&#45;&gt;Node8</title>
<g id="a_edge7_Node000007_Node000008"><a xlink:title=" ">
<path fill="none" stroke="#63b8ff" d="M219.05,-24.11C240.45,-21.35 270.49,-17.46 294.09,-14.41"/>
<polygon fill="#63b8ff" stroke="#63b8ff" points="294.45,-17.89 303.92,-13.14 293.56,-10.95 294.45,-17.89"/>
</a>
</g>
</g>
</g>
</svg>

<g id="navigator" transform="translate(0 0)" fill="#404254">
  <rect fill="#f2f5e9" fill-opacity="0.5" stroke="#606060" stroke-width=".5" x="0" y="0" width="60" height="60"/>
  <use id="zoomplus" xlink:href="#zoomPlus" x="17" y="9" onmousedown="handleZoom(evt,'in')"/>
  <use id="zoomminus" xlink:href="#zoomMin" x="42" y="9" onmousedown="handleZoom(evt,'out')"/>
  <use id="reset" xlink:href="#resetDef" x="30" y="36" onmousedown="handleReset()"/>
   <use id="arrowup" xlink:href="#arrowUp" x="0" y="0" onmousedown="handlePan(0,-1)"/>
  <use id="arrowright" xlink:href="#arrowRight" x="0" y="0" onmousedown="handlePan(1,0)"/>
  <use id="arrowdown" xlink:href="#arrowDown" x="0" y="0" onmousedown="handlePan(0,1)"/>
  <use id="arrowleft" xlink:href="#arrowLeft" x="0" y="0" onmousedown="handlePan(-1,0)"/>
</g>
<svg viewBox="0 0 15 15" width="100%" height="30px" preserveAspectRatio="xMaxYMin meet">
 <g id="arrow_out" transform="scale(0.3 0.3)">
  <a xlink:href="iop_8blk_a073fcd7d7157c794631c47a9510a085e_cgraph_org.svg" target="_base">
   <rect id="button" ry="5" rx="5" y="6" x="6" height="38" width="38"
        fill="#f2f5e9" fill-opacity="0.5" stroke="#606060" stroke-width="1.0"/>
   <path id="arrow"
     d="M 11.500037,31.436501 C 11.940474,20.09759 22.043105,11.32322 32.158766,21.979434 L 37.068811,17.246167 C 37.068811,17.246167 37.088388,32 37.088388,32 L 22.160133,31.978069 C 22.160133,31.978069 26.997745,27.140456 26.997745,27.140456 C 18.528582,18.264221 13.291696,25.230495 11.500037,31.436501 z"
     style="fill:#404040;"/>
  </a>
 </g>
</svg>

<style type='text/css'>
<![CDATA[
[data-mouse-over-selected='false'] { opacity: 0.7; }
[data-mouse-over-selected='true']  { opacity: 1.0; }
]]>
</style>
<script type="application/ecmascript"><![CDATA[
document.addEventListener('DOMContentLoaded', (event) => {
  highlightEdges();
  highlightAdjacentNodes();
});
]]></script>
</svg>
