<?xml version="1.0" encoding="UTF-8" standalone="no"?>
<!DOCTYPE svg PUBLIC "-//W3C//DTD SVG 1.1//EN"
 "http://www.w3.org/Graphics/SVG/1.1/DTD/svg11.dtd">
<!-- Generated by graphviz version 9.0.0 (20230911.1827)
 -->
<!-- Title: iop_compat_ctx_init Pages: 1 -->
<svg width="284pt" height="125pt"
 viewBox="0.00 0.00 283.75 124.88" xmlns="http://www.w3.org/2000/svg" xmlns:xlink="http://www.w3.org/1999/xlink">
<g id="graph0" class="graph" transform="scale(1 1) rotate(0) translate(4 120.88)">
<title>iop_compat_ctx_init</title>
<!-- Node1 -->
<g id="Node000001" class="node">
<title>Node1</title>
<g id="a_Node000001"><a xlink:title=" ">
<polygon fill="#999999" stroke="#666666" points="275.75,-62.25 173.5,-62.25 173.5,-43 275.75,-43 275.75,-62.25"/>
<text text-anchor="middle" x="224.62" y="-48.75" font-family="Helvetica,sans-Serif" font-size="10.00">iop_compat_ctx_init</text>
</a>
</g>
</g>
<!-- Node2 -->
<g id="Node000002" class="node">
<title>Node2</title>
<g id="a_Node000002"><a xlink:href="../../d0/d2d/iop_8blk.html#a0de6208fbcfcc10c3efc984954af427a" target="_top" xlink:title=" ">
<polygon fill="white" stroke="#666666" points="133,-116.88 4.5,-116.88 4.5,-86.38 133,-86.38 133,-116.88"/>
<text text-anchor="start" x="12.5" y="-103.38" font-family="Helvetica,sans-Serif" font-size="10.00">iop_pkg_check_backward</text>
<text text-anchor="middle" x="68.75" y="-92.12" font-family="Helvetica,sans-Serif" font-size="10.00">_compat</text>
</a>
</g>
</g>
<!-- Node1&#45;&gt;Node2 -->
<g id="edge1_Node000001_Node000002" class="edge">
<title>Node1&#45;&gt;Node2</title>
<g id="a_edge1_Node000001_Node000002"><a xlink:title=" ">
<path fill="none" stroke="#63b8ff" d="M181.25,-66.12C162,-72.25 139.11,-79.54 119.09,-85.91"/>
<polygon fill="#63b8ff" stroke="#63b8ff" points="182.21,-69.49 190.67,-63.12 180.08,-62.82 182.21,-69.49"/>
</a>
</g>
</g>
<!-- Node3 -->
<g id="Node000003" class="node">
<title>Node3</title>
<g id="a_Node000003"><a xlink:href="../../d0/d2d/iop_8blk.html#a9f6b1197151048eb711627cd5a75677f" target="_top" xlink:title=" ">
<polygon fill="white" stroke="#666666" points="137.5,-67.88 0,-67.88 0,-37.38 137.5,-37.38 137.5,-67.88"/>
<text text-anchor="start" x="8" y="-54.38" font-family="Helvetica,sans-Serif" font-size="10.00">iop_struct_check_backward</text>
<text text-anchor="middle" x="68.75" y="-43.12" font-family="Helvetica,sans-Serif" font-size="10.00">_compat</text>
</a>
</g>
</g>
<!-- Node1&#45;&gt;Node3 -->
<g id="edge2_Node000001_Node000003" class="edge">
<title>Node1&#45;&gt;Node3</title>
<g id="a_edge2_Node000001_Node000003"><a xlink:title=" ">
<path fill="none" stroke="#63b8ff" d="M161.87,-52.62C153.97,-52.62 145.85,-52.62 137.86,-52.62"/>
<polygon fill="#63b8ff" stroke="#63b8ff" points="161.73,-56.13 171.73,-52.63 161.73,-49.13 161.73,-56.13"/>
</a>
</g>
</g>
<!-- Node4 -->
<g id="Node000004" class="node">
<title>Node4</title>
<g id="a_Node000004"><a xlink:href="../../d0/d2d/iop_8blk.html#aef759fa19675e47aa0b6f3c6a8928657" target="_top" xlink:title=" ">
<polygon fill="white" stroke="#666666" points="124,-19.25 13.5,-19.25 13.5,0 124,0 124,-19.25"/>
<text text-anchor="middle" x="68.75" y="-5.75" font-family="Helvetica,sans-Serif" font-size="10.00">iop_struct_is_optional</text>
</a>
</g>
</g>
<!-- Node1&#45;&gt;Node4 -->
<g id="edge3_Node000001_Node000004" class="edge">
<title>Node1&#45;&gt;Node4</title>
<g id="a_edge3_Node000001_Node000004"><a xlink:title=" ">
<path fill="none" stroke="#63b8ff" d="M176.75,-39.52C153.97,-33.16 127.02,-25.63 105.87,-19.72"/>
<polygon fill="#63b8ff" stroke="#63b8ff" points="175.52,-42.82 186.09,-42.14 177.4,-36.07 175.52,-42.82"/>
</a>
</g>
</g>
</g>
</svg>
