<?xml version="1.0" encoding="UTF-8" standalone="no"?>
<!DOCTYPE svg PUBLIC "-//W3C//DTD SVG 1.1//EN"
 "http://www.w3.org/Graphics/SVG/1.1/DTD/svg11.dtd">
<!-- Generated by graphviz version 9.0.0 (20230911.1827)
 -->
<!-- Title: anonymous_namespace{RewriteBlocks::cpp}::RewriteBlocks::CheckFunctionPointerDecl Pages: 1 -->
<!--zoomable 285 -->

<svg id="main" version="1.1" xmlns="http://www.w3.org/2000/svg" xmlns:xlink="http://www.w3.org/1999/xlink" xml:space="preserve" onload="init(evt)">
<style type="text/css"><![CDATA[
.node, .edge {opacity: 0.7;}
.node.selected, .edge.selected {opacity: 1;}
.edge:hover path { stroke: red; }
.edge:hover polygon { stroke: red; fill: red; }
]]></style>

<defs>
  <circle id="rim" cx="0" cy="0" r="7"/>
  <circle id="rim2" cx="0" cy="0" r="3.5"/>
  <g id="zoomPlus">
    <use xlink:href="#rim" fill="#404040"><set attributeName="fill" to="#808080" begin="zoomplus.mouseover" end="zoomplus.mouseout"/></use>
    <path d="M-4,0h8M0,-4v8" fill="none" stroke="white" stroke-width="1.5" pointer-events="none"/>
  </g>
  <g id="zoomMin">
    <use xlink:href="#rim" fill="#404040"><set attributeName="fill" to="#808080" begin="zoomminus.mouseover" end="zoomminus.mouseout"/></use>
    <path d="M-4,0h8" fill="none" stroke="white" stroke-width="1.5" pointer-events="none"/>
  </g>
  <g id="arrowUp" transform="translate(30 24)">
    <use xlink:href="#rim"/>
    <path pointer-events="none" fill="none" stroke="white" stroke-width="1.5" d="M0,-3.0v7 M-2.5,-0.5L0,-3.0L2.5,-0.5"/>
  </g>
  <g id="arrowRight" transform="rotate(90) translate(36 -43)">
    <use xlink:href="#rim"/>
    <path pointer-events="none" fill="none" stroke="white" stroke-width="1.5" d="M0,-3.0v7 M-2.5,-0.5L0,-3.0L2.5,-0.5"/>
  </g>
  <g id="arrowDown" transform="rotate(180) translate(-30 -48)">
    <use xlink:href="#rim"/>
    <path pointer-events="none" fill="none" stroke="white" stroke-width="1.5" d="M0,-3.0v7 M-2.5,-0.5L0,-3.0L2.5,-0.5"/>
  </g>
  <g id="arrowLeft" transform="rotate(270) translate(-36 17)">
    <use xlink:href="#rim"/>
    <path pointer-events="none" fill="none" stroke="white" stroke-width="1.5" d="M0,-3.0v7 M-2.5,-0.5L0,-3.0L2.5,-0.5"/>
  </g>
  <g id="resetDef">
    <use xlink:href="#rim2" fill="#404040"><set attributeName="fill" to="#808080" begin="reset.mouseover" end="reset.mouseout"/></use>
  </g>
</defs>
<script type="application/ecmascript">
var viewWidth = 1057;
var viewHeight = 285;
var sectionId = 'dynsection-4';
</script>
<script type="application/ecmascript" xlink:href="../../svg.min.js"/>
<svg id="graph" class="graph">
<g id="viewport">
<title>anonymous_namespace{RewriteBlocks::cpp}::RewriteBlocks::CheckFunctionPointerDecl</title>
<!-- Node1 -->
<g id="Node000001" class="node">
<title>Node1</title>
<g id="a_Node000001"><a xlink:title=" ">
<polygon fill="#999999" stroke="#666666" points="153.25,-80 0,-80 0,-27 153.25,-27 153.25,-80"/>
<text text-anchor="start" x="8" y="-66.5" font-family="Helvetica,sans-Serif" font-size="10.00">anonymous_namespace</text>
<text text-anchor="start" x="8" y="-55.25" font-family="Helvetica,sans-Serif" font-size="10.00">{RewriteBlocks::cpp}</text>
<text text-anchor="start" x="8" y="-44" font-family="Helvetica,sans-Serif" font-size="10.00">::RewriteBlocks::CheckFunction</text>
<text text-anchor="middle" x="76.62" y="-32.75" font-family="Helvetica,sans-Serif" font-size="10.00">PointerDecl</text>
</a>
</g>
</g>
<!-- Node2 -->
<g id="Node000002" class="node">
<title>Node2</title>
<g id="a_Node000002"><a xlink:href="../../dd/d7a/classanonymous__namespace_02RewriteBlocks_8cpp_03_1_1RewriteBlocks.html#abc709571df5175bdcbb67c409e6d6d0d" target="_top" xlink:title=" ">
<polygon fill="white" stroke="#666666" points="700.75,-108 561,-108 561,-55 700.75,-55 700.75,-108"/>
<text text-anchor="start" x="569" y="-94.5" font-family="Helvetica,sans-Serif" font-size="10.00">anonymous_namespace</text>
<text text-anchor="start" x="569" y="-83.25" font-family="Helvetica,sans-Serif" font-size="10.00">{RewriteBlocks::cpp}</text>
<text text-anchor="start" x="569" y="-72" font-family="Helvetica,sans-Serif" font-size="10.00">::RewriteBlocks::PointerType</text>
<text text-anchor="middle" x="630.88" y="-60.75" font-family="Helvetica,sans-Serif" font-size="10.00">TakesAnyBlockArguments</text>
</a>
</g>
</g>
<!-- Node1&#45;&gt;Node2 -->
<g id="edge1_Node000001_Node000002" class="edge">
<title>Node1&#45;&gt;Node2</title>
<g id="a_edge1_Node000001_Node000002"><a xlink:title=" ">
<path fill="none" stroke="#63b8ff" d="M153.56,-59.21C165.5,-60.03 177.71,-60.82 189.25,-61.5 315.03,-68.86 461.15,-75.02 549.5,-78.48"/>
<polygon fill="#63b8ff" stroke="#63b8ff" points="549.14,-81.97 559.27,-78.86 549.41,-74.98 549.14,-81.97"/>
</a>
</g>
</g>
<!-- Node4 -->
<g id="Node000004" class="node">
<title>Node4</title>
<g id="a_Node000004"><a xlink:href="../../dd/d7a/classanonymous__namespace_02RewriteBlocks_8cpp_03_1_1RewriteBlocks.html#a5f11f5a57df0a746bb87aafa8d3ec91f" target="_top" xlink:title=" ">
<polygon fill="white" stroke="#666666" points="340.25,-53 189.25,-53 189.25,0 340.25,0 340.25,-53"/>
<text text-anchor="start" x="197.25" y="-39.5" font-family="Helvetica,sans-Serif" font-size="10.00">anonymous_namespace</text>
<text text-anchor="start" x="197.25" y="-28.25" font-family="Helvetica,sans-Serif" font-size="10.00">{RewriteBlocks::cpp}</text>
<text text-anchor="start" x="197.25" y="-17" font-family="Helvetica,sans-Serif" font-size="10.00">::RewriteBlocks::RewriteBlocks</text>
<text text-anchor="middle" x="264.75" y="-5.75" font-family="Helvetica,sans-Serif" font-size="10.00">InFunctionProtoType</text>
</a>
</g>
</g>
<!-- Node1&#45;&gt;Node4 -->
<g id="edge3_Node000001_Node000004" class="edge">
<title>Node1&#45;&gt;Node4</title>
<g id="a_edge3_Node000001_Node000004"><a xlink:title=" ">
<path fill="none" stroke="#63b8ff" d="M153.6,-42.48C161.52,-41.33 169.62,-40.15 177.65,-38.99"/>
<polygon fill="#63b8ff" stroke="#63b8ff" points="178.03,-42.47 187.43,-37.57 177.03,-35.54 178.03,-42.47"/>
</a>
</g>
</g>
<!-- Node3 -->
<g id="Node000003" class="node">
<title>Node3</title>
<g id="a_Node000003"><a xlink:href="../../de/d2b/RewriteBlocks_8cpp.html#ad902f7d132d1729c8c30da506b342d2e" target="_top" xlink:title=" ">
<polygon fill="white" stroke="#666666" points="881,-64.12 740.5,-64.12 740.5,-44.88 881,-44.88 881,-64.12"/>
<text text-anchor="middle" x="810.75" y="-50.62" font-family="Helvetica,sans-Serif" font-size="10.00">isTopLevelBlockPointerType</text>
</a>
</g>
</g>
<!-- Node2&#45;&gt;Node3 -->
<g id="edge2_Node000002_Node000003" class="edge">
<title>Node2&#45;&gt;Node3</title>
<g id="a_edge2_Node000002_Node000003"><a xlink:title=" ">
<path fill="none" stroke="#63b8ff" d="M701.16,-70.98C711.33,-69.44 721.86,-67.84 732.19,-66.27"/>
<polygon fill="#63b8ff" stroke="#63b8ff" points="732.42,-69.78 741.79,-64.82 731.37,-62.86 732.42,-69.78"/>
</a>
</g>
</g>
<!-- Node4&#45;&gt;Node3 -->
<g id="edge4_Node000004_Node000003" class="edge">
<title>Node4&#45;&gt;Node3</title>
<g id="a_edge4_Node000004_Node000003"><a xlink:title=" ">
<path fill="none" stroke="#63b8ff" d="M340.59,-28.8C427.83,-31.71 576.33,-37.33 703.75,-45.5 711.86,-46.02 720.31,-46.63 728.75,-47.28"/>
<polygon fill="#63b8ff" stroke="#63b8ff" points="728.46,-50.76 738.71,-48.06 729.02,-43.79 728.46,-50.76"/>
</a>
</g>
</g>
<!-- Node5 -->
<g id="Node000005" class="node">
<title>Node5</title>
<g id="a_Node000005"><a xlink:href="../../dd/d7a/classanonymous__namespace_02RewriteBlocks_8cpp_03_1_1RewriteBlocks.html#ad1d879c6ebcb5a0c476018b025b5e8f7" target="_top" xlink:title=" ">
<polygon fill="white" stroke="#666666" points="522,-179 376.25,-179 376.25,-126 522,-126 522,-179"/>
<text text-anchor="start" x="384.25" y="-165.5" font-family="Helvetica,sans-Serif" font-size="10.00">anonymous_namespace</text>
<text text-anchor="start" x="384.25" y="-154.25" font-family="Helvetica,sans-Serif" font-size="10.00">{RewriteBlocks::cpp}</text>
<text text-anchor="start" x="384.25" y="-143" font-family="Helvetica,sans-Serif" font-size="10.00">::RewriteBlocks::RewriteBlock</text>
<text text-anchor="middle" x="449.12" y="-131.75" font-family="Helvetica,sans-Serif" font-size="10.00">PointerDecl</text>
</a>
</g>
</g>
<!-- Node4&#45;&gt;Node5 -->
<g id="edge5_Node000004_Node000005" class="edge">
<title>Node4&#45;&gt;Node5</title>
<g id="a_edge5_Node000004_Node000005"><a xlink:title=" ">
<path fill="none" stroke="#63b8ff" d="M304.43,-53.22C332.26,-72.45 369.99,-98.52 399.81,-119.12"/>
<polygon fill="#63b8ff" stroke="#63b8ff" points="397.73,-121.94 407.94,-124.74 401.71,-116.18 397.73,-121.94"/>
</a>
</g>
</g>
<!-- Node5&#45;&gt;Node2 -->
<g id="edge7_Node000005_Node000002" class="edge">
<title>Node5&#45;&gt;Node2</title>
<g id="a_edge7_Node000005_Node000002"><a xlink:title=" ">
<path fill="none" stroke="#63b8ff" d="M518.34,-125.56C529.1,-121.31 540.3,-116.88 551.28,-112.55"/>
<polygon fill="#63b8ff" stroke="#63b8ff" points="552.29,-115.91 560.3,-108.98 549.72,-109.4 552.29,-115.91"/>
</a>
</g>
</g>
<!-- Node6 -->
<g id="Node000006" class="node">
<title>Node6</title>
<g id="a_Node000006"><a xlink:href="../../dd/d7a/classanonymous__namespace_02RewriteBlocks_8cpp_03_1_1RewriteBlocks.html#a6ddeedec7715a49d2e60b928188b0e8f" target="_top" xlink:title=" ">
<polygon fill="white" stroke="#666666" points="701.5,-179 560.25,-179 560.25,-126 701.5,-126 701.5,-179"/>
<text text-anchor="start" x="568.25" y="-165.5" font-family="Helvetica,sans-Serif" font-size="10.00">anonymous_namespace</text>
<text text-anchor="start" x="568.25" y="-154.25" font-family="Helvetica,sans-Serif" font-size="10.00">{RewriteBlocks::cpp}</text>
<text text-anchor="start" x="568.25" y="-143" font-family="Helvetica,sans-Serif" font-size="10.00">::RewriteBlocks::GetExtentOf</text>
<text text-anchor="middle" x="630.88" y="-131.75" font-family="Helvetica,sans-Serif" font-size="10.00">ArgList</text>
</a>
</g>
</g>
<!-- Node5&#45;&gt;Node6 -->
<g id="edge6_Node000005_Node000006" class="edge">
<title>Node5&#45;&gt;Node6</title>
<g id="a_edge6_Node000005_Node000006"><a xlink:title=" ">
<path fill="none" stroke="#63b8ff" d="M522.46,-152.5C531.07,-152.5 539.91,-152.5 548.64,-152.5"/>
<polygon fill="#63b8ff" stroke="#63b8ff" points="548.51,-156 558.51,-152.5 548.51,-149 548.51,-156"/>
</a>
</g>
</g>
<!-- Node7 -->
<g id="Node000007" class="node">
<title>Node7</title>
<g id="a_Node000007"><a xlink:href="../../dd/d7a/classanonymous__namespace_02RewriteBlocks_8cpp_03_1_1RewriteBlocks.html#ae528dc87b7c3f784bba357befef9fbda" target="_top" xlink:title=" ">
<polygon fill="white" stroke="#666666" points="881.75,-271.38 739.75,-271.38 739.75,-229.62 881.75,-229.62 881.75,-271.38"/>
<text text-anchor="start" x="747.75" y="-257.88" font-family="Helvetica,sans-Serif" font-size="10.00">anonymous_namespace</text>
<text text-anchor="start" x="747.75" y="-246.62" font-family="Helvetica,sans-Serif" font-size="10.00">{RewriteBlocks::cpp}</text>
<text text-anchor="middle" x="810.75" y="-235.38" font-family="Helvetica,sans-Serif" font-size="10.00">::RewriteBlocks::ReplaceText</text>
</a>
</g>
</g>
<!-- Node5&#45;&gt;Node7 -->
<g id="edge8_Node000005_Node000007" class="edge">
<title>Node5&#45;&gt;Node7</title>
<g id="a_edge8_Node000005_Node000007"><a xlink:title=" ">
<path fill="none" stroke="#63b8ff" d="M467.44,-179.09C486.19,-205.18 518.73,-243.33 558,-259.5 611.67,-281.6 677.35,-278.37 728.17,-270.13"/>
<polygon fill="#63b8ff" stroke="#63b8ff" points="728.68,-273.59 737.94,-268.44 727.49,-266.7 728.68,-273.59"/>
</a>
</g>
</g>
<!-- Node10 -->
<g id="Node000010" class="node">
<title>Node10</title>
<g id="a_Node000010"><a xlink:href="../../dd/d7a/classanonymous__namespace_02RewriteBlocks_8cpp_03_1_1RewriteBlocks.html#ab8073587858255706cde73730b5232df" target="_top" xlink:title=" ">
<polygon fill="white" stroke="#666666" points="703.75,-250 558,-250 558,-197 703.75,-197 703.75,-250"/>
<text text-anchor="start" x="566" y="-236.5" font-family="Helvetica,sans-Serif" font-size="10.00">anonymous_namespace</text>
<text text-anchor="start" x="566" y="-225.25" font-family="Helvetica,sans-Serif" font-size="10.00">{RewriteBlocks::cpp}</text>
<text text-anchor="start" x="566" y="-214" font-family="Helvetica,sans-Serif" font-size="10.00">::RewriteBlocks::RewriteBlock</text>
<text text-anchor="middle" x="630.88" y="-202.75" font-family="Helvetica,sans-Serif" font-size="10.00">PointerFunctionArgs</text>
</a>
</g>
</g>
<!-- Node5&#45;&gt;Node10 -->
<g id="edge11_Node000005_Node000010" class="edge">
<title>Node5&#45;&gt;Node10</title>
<g id="a_edge11_Node000005_Node000010"><a xlink:title=" ">
<path fill="none" stroke="#63b8ff" d="M518.34,-179.44C529.1,-183.69 540.3,-188.12 551.28,-192.45"/>
<polygon fill="#63b8ff" stroke="#63b8ff" points="549.72,-195.6 560.3,-196.02 552.29,-189.09 549.72,-195.6"/>
</a>
</g>
</g>
<!-- Node8 -->
<g id="Node000008" class="node">
<title>Node8</title>
<g id="a_Node000008"><a xlink:href="../../dd/dfc/iopc-parser_8c.html#a258b91c08e37c6b8cdfca02dd4b7d753" target="_top" xlink:title=" ">
<polygon fill="white" stroke="#666666" points="954.75,-260.12 917.75,-260.12 917.75,-240.88 954.75,-240.88 954.75,-260.12"/>
<text text-anchor="middle" x="936.25" y="-246.62" font-family="Helvetica,sans-Serif" font-size="10.00">warn</text>
</a>
</g>
</g>
<!-- Node7&#45;&gt;Node8 -->
<g id="edge9_Node000007_Node000008" class="edge">
<title>Node7&#45;&gt;Node8</title>
<g id="a_edge9_Node000007_Node000008"><a xlink:title=" ">
<path fill="none" stroke="#63b8ff" d="M882.16,-250.5C890.63,-250.5 898.87,-250.5 906.24,-250.5"/>
<polygon fill="#63b8ff" stroke="#63b8ff" points="906.19,-254 916.19,-250.5 906.19,-247 906.19,-254"/>
</a>
</g>
</g>
<!-- Node9 -->
<g id="Node000009" class="node">
<title>Node9</title>
<g id="a_Node000009"><a xlink:href="../../df/d0a/str-l_8h.html#a963c22b229774d4b7c106bae4011cb8e" target="_top" xlink:title="Returns whether \v s1 and \v s2 contents are equal.">
<polygon fill="white" stroke="#666666" points="1048.75,-260.12 990.75,-260.12 990.75,-240.88 1048.75,-240.88 1048.75,-260.12"/>
<text text-anchor="middle" x="1019.75" y="-246.62" font-family="Helvetica,sans-Serif" font-size="10.00">lstr_equal</text>
</a>
</g>
</g>
<!-- Node8&#45;&gt;Node9 -->
<g id="edge10_Node000008_Node000009" class="edge">
<title>Node8&#45;&gt;Node9</title>
<g id="a_edge10_Node000008_Node000009"><a xlink:title=" ">
<path fill="none" stroke="#63b8ff" d="M954.93,-250.5C962.08,-250.5 970.64,-250.5 979.13,-250.5"/>
<polygon fill="#63b8ff" stroke="#63b8ff" points="979.01,-254 989.01,-250.5 979.01,-247 979.01,-254"/>
</a>
</g>
</g>
<!-- Node10&#45;&gt;Node7 -->
<g id="edge12_Node000010_Node000007" class="edge">
<title>Node10&#45;&gt;Node7</title>
<g id="a_edge12_Node000010_Node000007"><a xlink:title=" ">
<path fill="none" stroke="#63b8ff" d="M704.22,-234.48C712.13,-235.68 720.23,-236.91 728.24,-238.13"/>
<polygon fill="#63b8ff" stroke="#63b8ff" points="727.57,-241.57 737.98,-239.61 728.62,-234.65 727.57,-241.57"/>
</a>
</g>
</g>
</g>
</svg>

<g id="navigator" transform="translate(0 0)" fill="#404254">
  <rect fill="#f2f5e9" fill-opacity="0.5" stroke="#606060" stroke-width=".5" x="0" y="0" width="60" height="60"/>
  <use id="zoomplus" xlink:href="#zoomPlus" x="17" y="9" onmousedown="handleZoom(evt,'in')"/>
  <use id="zoomminus" xlink:href="#zoomMin" x="42" y="9" onmousedown="handleZoom(evt,'out')"/>
  <use id="reset" xlink:href="#resetDef" x="30" y="36" onmousedown="handleReset()"/>
   <use id="arrowup" xlink:href="#arrowUp" x="0" y="0" onmousedown="handlePan(0,-1)"/>
  <use id="arrowright" xlink:href="#arrowRight" x="0" y="0" onmousedown="handlePan(1,0)"/>
  <use id="arrowdown" xlink:href="#arrowDown" x="0" y="0" onmousedown="handlePan(0,1)"/>
  <use id="arrowleft" xlink:href="#arrowLeft" x="0" y="0" onmousedown="handlePan(-1,0)"/>
</g>
<svg viewBox="0 0 15 15" width="100%" height="30px" preserveAspectRatio="xMaxYMin meet">
 <g id="arrow_out" transform="scale(0.3 0.3)">
  <a xlink:href="classanonymous__namespace_02RewriteBlocks_8cpp_03_1_1RewriteBlocks_abc566b1468cb52477d00aa1d7af0f17b_cgraph_org.svg" target="_base">
   <rect id="button" ry="5" rx="5" y="6" x="6" height="38" width="38"
        fill="#f2f5e9" fill-opacity="0.5" stroke="#606060" stroke-width="1.0"/>
   <path id="arrow"
     d="M 11.500037,31.436501 C 11.940474,20.09759 22.043105,11.32322 32.158766,21.979434 L 37.068811,17.246167 C 37.068811,17.246167 37.088388,32 37.088388,32 L 22.160133,31.978069 C 22.160133,31.978069 26.997745,27.140456 26.997745,27.140456 C 18.528582,18.264221 13.291696,25.230495 11.500037,31.436501 z"
     style="fill:#404040;"/>
  </a>
 </g>
</svg>

<style type='text/css'>
<![CDATA[
[data-mouse-over-selected='false'] { opacity: 0.7; }
[data-mouse-over-selected='true']  { opacity: 1.0; }
]]>
</style>
<script type="application/ecmascript"><![CDATA[
document.addEventListener('DOMContentLoaded', (event) => {
  highlightEdges();
  highlightAdjacentNodes();
});
]]></script>
</svg>
