<?xml version="1.0" encoding="UTF-8" standalone="no"?>
<!DOCTYPE svg PUBLIC "-//W3C//DTD SVG 1.1//EN"
 "http://www.w3.org/Graphics/SVG/1.1/DTD/svg11.dtd">
<!-- Generated by graphviz version 9.0.0 (20230911.1827)
 -->
<!-- Title: z_create_tmp_subdir Pages: 1 -->
<svg width="491pt" height="64pt"
 viewBox="0.00 0.00 490.75 64.25" xmlns="http://www.w3.org/2000/svg" xmlns:xlink="http://www.w3.org/1999/xlink">
<g id="graph0" class="graph" transform="scale(1 1) rotate(0) translate(4 60.25)">
<title>z_create_tmp_subdir</title>
<!-- Node1 -->
<g id="Node000001" class="node">
<title>Node1</title>
<g id="a_Node000001"><a xlink:title=" ">
<polygon fill="#999999" stroke="#666666" points="106,-37.25 0,-37.25 0,-18 106,-18 106,-37.25"/>
<text text-anchor="middle" x="53" y="-23.75" font-family="Helvetica,sans-Serif" font-size="10.00">z_create_tmp_subdir</text>
</a>
</g>
</g>
<!-- Node2 -->
<g id="Node000002" class="node">
<title>Node2</title>
<g id="a_Node000002"><a xlink:href="../../d6/dd2/unix_8blk.html#ac44e57bb00251727d89cfcd888ca95c2" target="_top" xlink:title="Create a directory path as mkdir &#45;p.">
<polygon fill="white" stroke="#666666" points="192.5,-37.25 142,-37.25 142,-18 192.5,-18 192.5,-37.25"/>
<text text-anchor="middle" x="167.25" y="-23.75" font-family="Helvetica,sans-Serif" font-size="10.00">mkdir_p</text>
</a>
</g>
</g>
<!-- Node1&#45;&gt;Node2 -->
<g id="edge1_Node000001_Node000002" class="edge">
<title>Node1&#45;&gt;Node2</title>
<g id="a_edge1_Node000001_Node000002"><a xlink:title=" ">
<path fill="none" stroke="#63b8ff" d="M106.18,-27.62C114.3,-27.62 122.52,-27.62 130.18,-27.62"/>
<polygon fill="#63b8ff" stroke="#63b8ff" points="130.12,-31.13 140.12,-27.63 130.12,-24.13 130.12,-31.13"/>
</a>
</g>
</g>
<!-- Node3 -->
<g id="Node000003" class="node">
<title>Node3</title>
<g id="a_Node000003"><a xlink:href="../../d6/dd2/unix_8blk.html#a9b10656439b069ad3a4d42e31e582cb1" target="_top" xlink:title="Create a subdirectory path as mkdir &#45;p.">
<polygon fill="white" stroke="#666666" points="287.25,-37.25 228.5,-37.25 228.5,-18 287.25,-18 287.25,-37.25"/>
<text text-anchor="middle" x="257.88" y="-23.75" font-family="Helvetica,sans-Serif" font-size="10.00">mkdirat_p</text>
</a>
</g>
</g>
<!-- Node2&#45;&gt;Node3 -->
<g id="edge2_Node000002_Node000003" class="edge">
<title>Node2&#45;&gt;Node3</title>
<g id="a_edge2_Node000002_Node000003"><a xlink:title=" ">
<path fill="none" stroke="#63b8ff" d="M192.94,-27.62C200.39,-27.62 208.76,-27.62 216.94,-27.62"/>
<polygon fill="#63b8ff" stroke="#63b8ff" points="216.73,-31.13 226.73,-27.63 216.73,-24.13 216.73,-31.13"/>
</a>
</g>
</g>
<!-- Node4 -->
<g id="Node000004" class="node">
<title>Node4</title>
<g id="a_Node000004"><a xlink:href="../../d9/d9a/mem_8h.html#a2802b921775732b82e8bdd44313fe24a" target="_top" xlink:title=" ">
<polygon fill="white" stroke="#666666" points="377.5,-56.25 323.25,-56.25 323.25,-37 377.5,-37 377.5,-56.25"/>
<text text-anchor="middle" x="350.38" y="-42.75" font-family="Helvetica,sans-Serif" font-size="10.00">memrchr</text>
</a>
</g>
</g>
<!-- Node3&#45;&gt;Node4 -->
<g id="edge3_Node000003_Node000004" class="edge">
<title>Node3&#45;&gt;Node4</title>
<g id="a_edge3_Node000003_Node000004"><a xlink:title=" ">
<path fill="none" stroke="#63b8ff" d="M287.51,-33.64C295.18,-35.25 303.6,-37.01 311.68,-38.71"/>
<polygon fill="#63b8ff" stroke="#63b8ff" points="310.79,-42.1 321.29,-40.73 312.22,-35.25 310.79,-42.1"/>
</a>
</g>
</g>
<!-- Node5 -->
<g id="Node000005" class="node">
<title>Node5</title>
<g id="a_Node000005"><a xlink:href="../../d9/d9a/mem_8h.html#ac6666dfc404402cb2de833e453df3a60" target="_top" xlink:title="Copies the string pointed to by src to the buffer dest of size bytes.">
<polygon fill="white" stroke="#666666" points="374.12,-19.25 326.62,-19.25 326.62,0 374.12,0 374.12,-19.25"/>
<text text-anchor="middle" x="350.38" y="-5.75" font-family="Helvetica,sans-Serif" font-size="10.00">pstrcpy</text>
</a>
</g>
</g>
<!-- Node3&#45;&gt;Node5 -->
<g id="edge4_Node000003_Node000005" class="edge">
<title>Node3&#45;&gt;Node5</title>
<g id="a_edge4_Node000003_Node000005"><a xlink:title=" ">
<path fill="none" stroke="#63b8ff" d="M287.51,-21.93C296.32,-20.18 306.11,-18.23 315.25,-16.41"/>
<polygon fill="#63b8ff" stroke="#63b8ff" points="315.75,-19.88 324.88,-14.5 314.39,-13.02 315.75,-19.88"/>
</a>
</g>
</g>
<!-- Node6 -->
<g id="Node000006" class="node">
<title>Node6</title>
<g id="a_Node000006"><a xlink:href="../../d9/d9a/mem_8h.html#a65a75486be9aedadf3b957fbd5fdc146" target="_top" xlink:title="Copies at n characters from the string pointed to by src to the buffer dest of size bytes.">
<polygon fill="white" stroke="#666666" points="482.75,-19.25 413.5,-19.25 413.5,0 482.75,0 482.75,-19.25"/>
<text text-anchor="middle" x="448.12" y="-5.75" font-family="Helvetica,sans-Serif" font-size="10.00">pstrcpymem</text>
</a>
</g>
</g>
<!-- Node5&#45;&gt;Node6 -->
<g id="edge5_Node000005_Node000006" class="edge">
<title>Node5&#45;&gt;Node6</title>
<g id="a_edge5_Node000005_Node000006"><a xlink:title=" ">
<path fill="none" stroke="#63b8ff" d="M374.55,-9.62C382.82,-9.62 392.43,-9.62 401.91,-9.62"/>
<polygon fill="#63b8ff" stroke="#63b8ff" points="401.78,-13.13 411.78,-9.63 401.78,-6.13 401.78,-13.13"/>
</a>
</g>
</g>
</g>
</svg>
