<?xml version="1.0" encoding="UTF-8" standalone="no"?>
<!DOCTYPE svg PUBLIC "-//W3C//DTD SVG 1.1//EN"
 "http://www.w3.org/Graphics/SVG/1.1/DTD/svg11.dtd">
<!-- Generated by graphviz version 9.0.0 (20230911.1827)
 -->
<!-- Title: yaml_env_start_data Pages: 1 -->
<svg width="421pt" height="76pt"
 viewBox="0.00 0.00 420.50 75.88" xmlns="http://www.w3.org/2000/svg" xmlns:xlink="http://www.w3.org/1999/xlink">
<g id="graph0" class="graph" transform="scale(1 1) rotate(0) translate(4 71.88)">
<title>yaml_env_start_data</title>
<!-- Node1 -->
<g id="Node000001" class="node">
<title>Node1</title>
<g id="a_Node000001"><a xlink:title=" ">
<polygon fill="#999999" stroke="#666666" points="106,-45.88 0,-45.88 0,-26.62 106,-26.62 106,-45.88"/>
<text text-anchor="middle" x="53" y="-32.38" font-family="Helvetica,sans-Serif" font-size="10.00">yaml_env_start_data</text>
</a>
</g>
</g>
<!-- Node2 -->
<g id="Node000002" class="node">
<title>Node2</title>
<g id="a_Node000002"><a xlink:href="../../d7/d75/yaml_8c.html#a9a5a6674172a3a9017f7739e8b954065" target="_top" xlink:title=" ">
<polygon fill="white" stroke="#666666" points="243.5,-67.88 146.5,-67.88 146.5,-48.62 243.5,-48.62 243.5,-67.88"/>
<text text-anchor="middle" x="195" y="-54.38" font-family="Helvetica,sans-Serif" font-size="10.00">yaml_env_get_pos</text>
</a>
</g>
</g>
<!-- Node1&#45;&gt;Node2 -->
<g id="edge1_Node000001_Node000002" class="edge">
<title>Node1&#45;&gt;Node2</title>
<g id="a_edge1_Node000001_Node000002"><a xlink:title=" ">
<path fill="none" stroke="#63b8ff" d="M106.13,-44.44C115.63,-45.93 125.6,-47.5 135.27,-49.02"/>
<polygon fill="#63b8ff" stroke="#63b8ff" points="134.53,-52.45 144.95,-50.54 135.62,-45.53 134.53,-52.45"/>
</a>
</g>
</g>
<!-- Node4 -->
<g id="Node000004" class="node">
<title>Node4</title>
<g id="a_Node000004"><a xlink:href="../../d7/d75/yaml_8c.html#a167c18efc8fec66f9883258187ec11a2" target="_top" xlink:title=" ">
<polygon fill="white" stroke="#666666" points="248,-30.5 142,-30.5 142,0 248,0 248,-30.5"/>
<text text-anchor="start" x="150" y="-17" font-family="Helvetica,sans-Serif" font-size="10.00">yaml_env_start_data</text>
<text text-anchor="middle" x="195" y="-5.75" font-family="Helvetica,sans-Serif" font-size="10.00">_with_pos</text>
</a>
</g>
</g>
<!-- Node1&#45;&gt;Node4 -->
<g id="edge3_Node000001_Node000004" class="edge">
<title>Node1&#45;&gt;Node4</title>
<g id="a_edge3_Node000001_Node000004"><a xlink:title=" ">
<path fill="none" stroke="#63b8ff" d="M106.13,-28.43C114.06,-27.24 122.31,-26 130.45,-24.78"/>
<polygon fill="#63b8ff" stroke="#63b8ff" points="130.96,-28.25 140.33,-23.3 129.92,-21.32 130.96,-28.25"/>
</a>
</g>
</g>
<!-- Node3 -->
<g id="Node000003" class="node">
<title>Node3</title>
<g id="a_Node000003"><a xlink:href="../../d7/d75/yaml_8c.html#a64d9c5cfa571561e2246a5db5d35b436" target="_top" xlink:title=" ">
<polygon fill="white" stroke="#666666" points="412.5,-67.88 284,-67.88 284,-48.62 412.5,-48.62 412.5,-67.88"/>
<text text-anchor="middle" x="348.25" y="-54.38" font-family="Helvetica,sans-Serif" font-size="10.00">yaml_env_get_column_nb</text>
</a>
</g>
</g>
<!-- Node2&#45;&gt;Node3 -->
<g id="edge2_Node000002_Node000003" class="edge">
<title>Node2&#45;&gt;Node3</title>
<g id="a_edge2_Node000002_Node000003"><a xlink:title=" ">
<path fill="none" stroke="#63b8ff" d="M243.86,-58.25C252.94,-58.25 262.64,-58.25 272.33,-58.25"/>
<polygon fill="#63b8ff" stroke="#63b8ff" points="272.14,-61.75 282.14,-58.25 272.14,-54.75 272.14,-61.75"/>
</a>
</g>
</g>
<!-- Node5 -->
<g id="Node000005" class="node">
<title>Node5</title>
<g id="a_Node000005"><a xlink:href="../../d7/d75/yaml_8c.html#adc6c79b3cd0f757175d46f02974bfa71" target="_top" xlink:title=" ">
<polygon fill="white" stroke="#666666" points="388.5,-24.88 308,-24.88 308,-5.62 388.5,-5.62 388.5,-24.88"/>
<text text-anchor="middle" x="348.25" y="-11.38" font-family="Helvetica,sans-Serif" font-size="10.00">yaml_span_init</text>
</a>
</g>
</g>
<!-- Node4&#45;&gt;Node5 -->
<g id="edge4_Node000004_Node000005" class="edge">
<title>Node4&#45;&gt;Node5</title>
<g id="a_edge4_Node000004_Node000005"><a xlink:title=" ">
<path fill="none" stroke="#63b8ff" d="M248.48,-15.25C263.98,-15.25 280.92,-15.25 296.32,-15.25"/>
<polygon fill="#63b8ff" stroke="#63b8ff" points="296.23,-18.75 306.23,-15.25 296.23,-11.75 296.23,-18.75"/>
</a>
</g>
</g>
</g>
</svg>
