<?xml version="1.0" encoding="UTF-8" standalone="no"?>
<!DOCTYPE svg PUBLIC "-//W3C//DTD SVG 1.1//EN"
 "http://www.w3.org/Graphics/SVG/1.1/DTD/svg11.dtd">
<!-- Generated by graphviz version 9.0.0 (20230911.1827)
 -->
<!-- Title: check_subfile Pages: 1 -->
<!--zoomable 414 -->

<svg id="main" version="1.1" xmlns="http://www.w3.org/2000/svg" xmlns:xlink="http://www.w3.org/1999/xlink" xml:space="preserve" onload="init(evt)">
<style type="text/css"><![CDATA[
.node, .edge {opacity: 0.7;}
.node.selected, .edge.selected {opacity: 1;}
.edge:hover path { stroke: red; }
.edge:hover polygon { stroke: red; fill: red; }
]]></style>

<defs>
  <circle id="rim" cx="0" cy="0" r="7"/>
  <circle id="rim2" cx="0" cy="0" r="3.5"/>
  <g id="zoomPlus">
    <use xlink:href="#rim" fill="#404040"><set attributeName="fill" to="#808080" begin="zoomplus.mouseover" end="zoomplus.mouseout"/></use>
    <path d="M-4,0h8M0,-4v8" fill="none" stroke="white" stroke-width="1.5" pointer-events="none"/>
  </g>
  <g id="zoomMin">
    <use xlink:href="#rim" fill="#404040"><set attributeName="fill" to="#808080" begin="zoomminus.mouseover" end="zoomminus.mouseout"/></use>
    <path d="M-4,0h8" fill="none" stroke="white" stroke-width="1.5" pointer-events="none"/>
  </g>
  <g id="arrowUp" transform="translate(30 24)">
    <use xlink:href="#rim"/>
    <path pointer-events="none" fill="none" stroke="white" stroke-width="1.5" d="M0,-3.0v7 M-2.5,-0.5L0,-3.0L2.5,-0.5"/>
  </g>
  <g id="arrowRight" transform="rotate(90) translate(36 -43)">
    <use xlink:href="#rim"/>
    <path pointer-events="none" fill="none" stroke="white" stroke-width="1.5" d="M0,-3.0v7 M-2.5,-0.5L0,-3.0L2.5,-0.5"/>
  </g>
  <g id="arrowDown" transform="rotate(180) translate(-30 -48)">
    <use xlink:href="#rim"/>
    <path pointer-events="none" fill="none" stroke="white" stroke-width="1.5" d="M0,-3.0v7 M-2.5,-0.5L0,-3.0L2.5,-0.5"/>
  </g>
  <g id="arrowLeft" transform="rotate(270) translate(-36 17)">
    <use xlink:href="#rim"/>
    <path pointer-events="none" fill="none" stroke="white" stroke-width="1.5" d="M0,-3.0v7 M-2.5,-0.5L0,-3.0L2.5,-0.5"/>
  </g>
  <g id="resetDef">
    <use xlink:href="#rim2" fill="#404040"><set attributeName="fill" to="#808080" begin="reset.mouseover" end="reset.mouseout"/></use>
  </g>
</defs>
<script type="application/ecmascript">
var viewWidth = 1942;
var viewHeight = 414;
var sectionId = 'dynsection-6';
</script>
<script type="application/ecmascript" xlink:href="../../svg.min.js"/>
<svg id="graph" class="graph">
<g id="viewport">
<title>check_subfile</title>
<!-- Node1 -->
<g id="Node000001" class="node">
<title>Node1</title>
<g id="a_Node000001"><a xlink:title=" ">
<polygon fill="#999999" stroke="#666666" points="75.25,-123.62 0,-123.62 0,-104.38 75.25,-104.38 75.25,-123.62"/>
<text text-anchor="middle" x="37.62" y="-110.12" font-family="Helvetica,sans-Serif" font-size="10.00">check_subfile</text>
</a>
</g>
</g>
<!-- Node2 -->
<g id="Node000002" class="node">
<title>Node2</title>
<g id="a_Node000002"><a xlink:href="../../d7/dba/str-path_8c.html#accce22f084c2510f40464f56daab9296" target="_top" xlink:title=" ">
<polygon fill="white" stroke="#666666" points="179.75,-291.62 111.25,-291.62 111.25,-272.38 179.75,-272.38 179.75,-291.62"/>
<text text-anchor="middle" x="145.5" y="-278.12" font-family="Helvetica,sans-Serif" font-size="10.00">path_extend</text>
</a>
</g>
</g>
<!-- Node1&#45;&gt;Node2 -->
<g id="edge1_Node000001_Node000002" class="edge">
<title>Node1&#45;&gt;Node2</title>
<g id="a_edge1_Node000001_Node000002"><a xlink:title=" ">
<path fill="none" stroke="#63b8ff" d="M44.93,-124.01C62.11,-151.27 109.96,-227.19 132.48,-262.93"/>
<polygon fill="#63b8ff" stroke="#63b8ff" points="129.26,-264.38 137.55,-270.98 135.18,-260.65 129.26,-264.38"/>
</a>
</g>
</g>
<!-- Node10 -->
<g id="Node000010" class="node">
<title>Node10</title>
<g id="a_Node000010"><a xlink:href="../../df/d0a/str-l_8h.html#a93860e0a444ab8a423d79b7818a28345" target="_top" xlink:title="returns a duplicated lstr from the mem stack.">
<polygon fill="white" stroke="#666666" points="174.88,-86.62 116.12,-86.62 116.12,-67.38 174.88,-67.38 174.88,-86.62"/>
<text text-anchor="middle" x="145.5" y="-73.12" font-family="Helvetica,sans-Serif" font-size="10.00">t_lstr_dup</text>
</a>
</g>
</g>
<!-- Node1&#45;&gt;Node10 -->
<g id="edge12_Node000001_Node000010" class="edge">
<title>Node1&#45;&gt;Node10</title>
<g id="a_edge12_Node000001_Node000010"><a xlink:title=" ">
<path fill="none" stroke="#63b8ff" d="M67.56,-103.89C79.2,-99.82 92.82,-95.06 105.34,-90.69"/>
<polygon fill="#63b8ff" stroke="#63b8ff" points="106.26,-94.07 114.54,-87.47 103.95,-87.46 106.26,-94.07"/>
</a>
</g>
</g>
<!-- Node3 -->
<g id="Node000003" class="node">
<title>Node3</title>
<g id="a_Node000003"><a xlink:href="../../d7/dba/str-path_8c.html#a79203f34180740d91365397a51cf70b6" target="_top" xlink:title="Extend a relative path from a prefix.">
<polygon fill="white" stroke="#666666" points="300,-329.62 215.75,-329.62 215.75,-310.38 300,-310.38 300,-329.62"/>
<text text-anchor="middle" x="257.88" y="-316.12" font-family="Helvetica,sans-Serif" font-size="10.00">path_va_extend</text>
</a>
</g>
</g>
<!-- Node2&#45;&gt;Node3 -->
<g id="edge2_Node000002_Node000003" class="edge">
<title>Node2&#45;&gt;Node3</title>
<g id="a_edge2_Node000002_Node000003"><a xlink:title=" ">
<path fill="none" stroke="#63b8ff" d="M175.79,-292.08C188.49,-296.46 203.55,-301.64 217.23,-306.35"/>
<polygon fill="#63b8ff" stroke="#63b8ff" points="215.81,-309.56 226.4,-309.51 218.09,-302.94 215.81,-309.56"/>
</a>
</g>
</g>
<!-- Node8 -->
<g id="Node000008" class="node">
<title>Node8</title>
<g id="a_Node000008"><a xlink:href="../../d2/d4d/file_8h.html#aa694120a0e2e1e38b7bebb913a0fe88e" target="_top" xlink:title=" ">
<polygon fill="white" stroke="#666666" points="400.38,-405.62 352.88,-405.62 352.88,-386.38 400.38,-386.38 400.38,-405.62"/>
<text text-anchor="middle" x="376.62" y="-392.12" font-family="Helvetica,sans-Serif" font-size="10.00">va_end</text>
</a>
</g>
</g>
<!-- Node2&#45;&gt;Node8 -->
<g id="edge10_Node000002_Node000008" class="edge">
<title>Node2&#45;&gt;Node8</title>
<g id="a_edge10_Node000002_Node000008"><a xlink:title=" ">
<path fill="none" stroke="#63b8ff" d="M156.45,-292.12C169.2,-304.6 192.45,-325.8 215.75,-339 256.46,-362.07 308.17,-378.45 341.58,-387.56"/>
<polygon fill="#63b8ff" stroke="#63b8ff" points="340.56,-390.91 351.12,-390.09 342.35,-384.15 340.56,-390.91"/>
</a>
</g>
</g>
<!-- Node9 -->
<g id="Node000009" class="node">
<title>Node9</title>
<g id="a_Node000009"><a xlink:href="../../d2/d4d/file_8h.html#a25419a391fdd4ad7954699c58cfeb3b9" target="_top" xlink:title=" ">
<polygon fill="white" stroke="#666666" points="1007.62,-386.62 956.38,-386.62 956.38,-367.38 1007.62,-367.38 1007.62,-386.62"/>
<text text-anchor="middle" x="982" y="-373.12" font-family="Helvetica,sans-Serif" font-size="10.00">va_start</text>
</a>
</g>
</g>
<!-- Node2&#45;&gt;Node9 -->
<g id="edge11_Node000002_Node000009" class="edge">
<title>Node2&#45;&gt;Node9</title>
<g id="a_edge11_Node000002_Node000009"><a xlink:title=" ">
<path fill="none" stroke="#63b8ff" d="M180,-273.14C224.4,-262.19 305.31,-245 375.62,-245 375.62,-245 375.62,-245 755.62,-245 849.83,-245 856.34,-306.04 938,-353 942.84,-355.78 948.01,-358.71 953.03,-361.52"/>
<polygon fill="#63b8ff" stroke="#63b8ff" points="951.19,-364.51 961.63,-366.32 954.6,-358.39 951.19,-364.51"/>
</a>
</g>
</g>
<!-- Node4 -->
<g id="Node000004" class="node">
<title>Node4</title>
<g id="a_Node000004"><a xlink:href="../../d7/dba/str-path_8c.html#a9a51023c1623833888ceed94a9edc89f" target="_top" xlink:title=" ">
<polygon fill="white" stroke="#666666" points="417.25,-329.62 336,-329.62 336,-310.38 417.25,-310.38 417.25,-329.62"/>
<text text-anchor="middle" x="376.62" y="-316.12" font-family="Helvetica,sans-Serif" font-size="10.00">__path_expand</text>
</a>
</g>
</g>
<!-- Node3&#45;&gt;Node4 -->
<g id="edge3_Node000003_Node000004" class="edge">
<title>Node3&#45;&gt;Node4</title>
<g id="a_edge3_Node000003_Node000004"><a xlink:title=" ">
<path fill="none" stroke="#63b8ff" d="M300.37,-320C308.21,-320 316.49,-320 324.58,-320"/>
<polygon fill="#63b8ff" stroke="#63b8ff" points="324.32,-323.5 334.32,-320 324.32,-316.5 324.32,-323.5"/>
</a>
</g>
</g>
<!-- Node5 -->
<g id="Node000005" class="node">
<title>Node5</title>
<g id="a_Node000005"><a xlink:href="../../d9/d9a/mem_8h.html#ac6666dfc404402cb2de833e453df3a60" target="_top" xlink:title="Copies the string pointed to by src to the buffer dest of size bytes.">
<polygon fill="white" stroke="#666666" points="509.75,-329.62 462.25,-329.62 462.25,-310.38 509.75,-310.38 509.75,-329.62"/>
<text text-anchor="middle" x="486" y="-316.12" font-family="Helvetica,sans-Serif" font-size="10.00">pstrcpy</text>
</a>
</g>
</g>
<!-- Node3&#45;&gt;Node5 -->
<g id="edge8_Node000003_Node000005" class="edge">
<title>Node3&#45;&gt;Node5</title>
<g id="a_edge8_Node000003_Node000005"><a xlink:title=" ">
<path fill="none" stroke="#63b8ff" d="M292.34,-330.11C305.77,-333.68 321.49,-337.24 336,-339 371.85,-343.35 381.48,-343.92 417.25,-339 428.36,-337.47 440.21,-334.6 450.85,-331.54"/>
<polygon fill="#63b8ff" stroke="#63b8ff" points="451.82,-334.9 460.37,-328.64 449.78,-328.2 451.82,-334.9"/>
</a>
</g>
</g>
<!-- Node7 -->
<g id="Node000007" class="node">
<title>Node7</title>
<g id="a_Node000007"><a xlink:href="../../d9/d9a/mem_8h.html#a52500e7040af436c00eb46c063300917" target="_top" xlink:title="Appends the string pointed to by src at the end of the string pointed to by dest not overflowing size...">
<polygon fill="white" stroke="#666666" points="399.62,-292.62 353.62,-292.62 353.62,-273.38 399.62,-273.38 399.62,-292.62"/>
<text text-anchor="middle" x="376.62" y="-279.12" font-family="Helvetica,sans-Serif" font-size="10.00">pstrcat</text>
</a>
</g>
</g>
<!-- Node3&#45;&gt;Node7 -->
<g id="edge6_Node000003_Node000007" class="edge">
<title>Node3&#45;&gt;Node7</title>
<g id="a_edge6_Node000003_Node000007"><a xlink:title=" ">
<path fill="none" stroke="#63b8ff" d="M290.78,-309.89C306.91,-304.78 326.45,-298.58 342.72,-293.43"/>
<polygon fill="#63b8ff" stroke="#63b8ff" points="343.46,-296.87 351.93,-290.51 341.34,-290.19 343.46,-296.87"/>
</a>
</g>
</g>
<!-- Node3&#45;&gt;Node8 -->
<g id="edge9_Node000003_Node000008" class="edge">
<title>Node3&#45;&gt;Node8</title>
<g id="a_edge9_Node000003_Node000008"><a xlink:title=" ">
<path fill="none" stroke="#63b8ff" d="M273.23,-329.99C288.62,-340.62 313.82,-357.82 336,-372 340.12,-374.63 344.51,-377.37 348.82,-380.01"/>
<polygon fill="#63b8ff" stroke="#63b8ff" points="346.88,-382.93 357.25,-385.12 350.51,-376.94 346.88,-382.93"/>
</a>
</g>
</g>
<!-- Node4&#45;&gt;Node5 -->
<g id="edge4_Node000004_Node000005" class="edge">
<title>Node4&#45;&gt;Node5</title>
<g id="a_edge4_Node000004_Node000005"><a xlink:title=" ">
<path fill="none" stroke="#63b8ff" d="M417.61,-320C428.44,-320 440.07,-320 450.56,-320"/>
<polygon fill="#63b8ff" stroke="#63b8ff" points="450.32,-323.5 460.32,-320 450.32,-316.5 450.32,-323.5"/>
</a>
</g>
</g>
<!-- Node6 -->
<g id="Node000006" class="node">
<title>Node6</title>
<g id="a_Node000006"><a xlink:href="../../d9/d9a/mem_8h.html#a65a75486be9aedadf3b957fbd5fdc146" target="_top" xlink:title="Copies at n characters from the string pointed to by src to the buffer dest of size bytes.">
<polygon fill="white" stroke="#666666" points="645.75,-329.62 576.5,-329.62 576.5,-310.38 645.75,-310.38 645.75,-329.62"/>
<text text-anchor="middle" x="611.12" y="-316.12" font-family="Helvetica,sans-Serif" font-size="10.00">pstrcpymem</text>
</a>
</g>
</g>
<!-- Node5&#45;&gt;Node6 -->
<g id="edge5_Node000005_Node000006" class="edge">
<title>Node5&#45;&gt;Node6</title>
<g id="a_edge5_Node000005_Node000006"><a xlink:title=" ">
<path fill="none" stroke="#63b8ff" d="M510.16,-320C525.62,-320 546.46,-320 565.11,-320"/>
<polygon fill="#63b8ff" stroke="#63b8ff" points="564.86,-323.5 574.86,-320 564.86,-316.5 564.86,-323.5"/>
</a>
</g>
</g>
<!-- Node7&#45;&gt;Node5 -->
<g id="edge7_Node000007_Node000005" class="edge">
<title>Node7&#45;&gt;Node5</title>
<g id="a_edge7_Node000007_Node000005"><a xlink:title=" ">
<path fill="none" stroke="#63b8ff" d="M399.87,-290.67C414.79,-295.81 434.7,-302.67 451.52,-308.46"/>
<polygon fill="#63b8ff" stroke="#63b8ff" points="450.01,-311.65 460.61,-311.6 452.29,-305.03 450.01,-311.65"/>
</a>
</g>
</g>
<!-- Node11 -->
<g id="Node000011" class="node">
<title>Node11</title>
<g id="a_Node000011"><a xlink:href="../../de/d04/str-l_8c.html#a721e56afb064f7233eda0184065df9bb" target="_top" xlink:title="Returns new mp allocated lstr from its arguments.">
<polygon fill="white" stroke="#666666" points="292.5,-86.62 223.25,-86.62 223.25,-67.38 292.5,-67.38 292.5,-86.62"/>
<text text-anchor="middle" x="257.88" y="-73.12" font-family="Helvetica,sans-Serif" font-size="10.00">mp_lstr_dup</text>
</a>
</g>
</g>
<!-- Node10&#45;&gt;Node11 -->
<g id="edge13_Node000010_Node000011" class="edge">
<title>Node10&#45;&gt;Node11</title>
<g id="a_edge13_Node000010_Node000011"><a xlink:title=" ">
<path fill="none" stroke="#63b8ff" d="M175.21,-77C186.25,-77 199.14,-77 211.37,-77"/>
<polygon fill="#63b8ff" stroke="#63b8ff" points="211.3,-80.5 221.3,-77 211.3,-73.5 211.3,-80.5"/>
</a>
</g>
</g>
<!-- Node32 -->
<g id="Node000032" class="node">
<title>Node32</title>
<g id="a_Node000032"><a xlink:href="../../d1/d10/mem-stack_8h.html#a1d0e2a29f86dc033a02e50484b527fd0" target="_top" xlink:title=" ">
<polygon fill="white" stroke="#666666" points="1934,-159.62 1891.75,-159.62 1891.75,-140.38 1934,-140.38 1934,-159.62"/>
<text text-anchor="middle" x="1912.88" y="-146.12" font-family="Helvetica,sans-Serif" font-size="10.00">t_pool</text>
</a>
</g>
</g>
<!-- Node10&#45;&gt;Node32 -->
<g id="edge55_Node000010_Node000032" class="edge">
<title>Node10&#45;&gt;Node32</title>
<g id="a_edge55_Node000010_Node000032"><a xlink:title=" ">
<path fill="none" stroke="#63b8ff" d="M163.66,-66.93C200.91,-46.06 292.53,0 375.62,0 375.62,0 375.62,0 1740.88,0 1819.01,0 1878.51,-89.6 1901.51,-130.3"/>
<polygon fill="#63b8ff" stroke="#63b8ff" points="1898.31,-131.74 1906.18,-138.83 1904.45,-128.38 1898.31,-131.74"/>
</a>
</g>
</g>
<!-- Node12 -->
<g id="Node000012" class="node">
<title>Node12</title>
<g id="a_Node000012"><a xlink:href="../../d9/d9a/mem_8h.html#afb82bc4c2f614b07ba2987edb2fb12a2" target="_top" xlink:title=" ">
<polygon fill="white" stroke="#666666" points="404.12,-124.62 349.12,-124.62 349.12,-105.38 404.12,-105.38 404.12,-124.62"/>
<text text-anchor="middle" x="376.62" y="-111.12" font-family="Helvetica,sans-Serif" font-size="10.00">mp_dupz</text>
</a>
</g>
</g>
<!-- Node11&#45;&gt;Node12 -->
<g id="edge14_Node000011_Node000012" class="edge">
<title>Node11&#45;&gt;Node12</title>
<g id="a_edge14_Node000011_Node000012"><a xlink:title=" ">
<path fill="none" stroke="#63b8ff" d="M289.86,-87.08C304.64,-91.9 322.46,-97.7 338.02,-102.76"/>
<polygon fill="#63b8ff" stroke="#63b8ff" points="336.84,-106.06 347.43,-105.82 339,-99.4 336.84,-106.06"/>
</a>
</g>
</g>
<!-- Node45 -->
<g id="Node000045" class="node">
<title>Node45</title>
<g id="a_Node000045"><a xlink:href="../../df/d0a/str-l_8h.html#afaa32126aa321a4b319e39433d0e7f26" target="_top" xlink:title=" ">
<polygon fill="white" stroke="#666666" points="1558.75,-85.62 1492.5,-85.62 1492.5,-66.38 1558.75,-66.38 1558.75,-85.62"/>
<text text-anchor="middle" x="1525.62" y="-72.12" font-family="Helvetica,sans-Serif" font-size="10.00">mp_lstr_init</text>
</a>
</g>
</g>
<!-- Node11&#45;&gt;Node45 -->
<g id="edge53_Node000011_Node000045" class="edge">
<title>Node11&#45;&gt;Node45</title>
<g id="a_edge53_Node000011_Node000045"><a xlink:title=" ">
<path fill="none" stroke="#63b8ff" d="M292.66,-67.46C336.59,-55.91 415.88,-38 485,-38 485,-38 485,-38 1266.25,-38 1349.57,-38 1370.78,-42.09 1452.75,-57 1462.05,-58.69 1471.91,-60.97 1481.25,-63.36"/>
<polygon fill="#63b8ff" stroke="#63b8ff" points="1480.28,-66.73 1490.85,-65.91 1482.08,-59.96 1480.28,-66.73"/>
</a>
</g>
</g>
<!-- Node13 -->
<g id="Node000013" class="node">
<title>Node13</title>
<g id="a_Node000013"><a xlink:href="../../d9/d9a/mem_8h.html#af52b7a33884b452f86de916d8109b8f1" target="_top" xlink:title=" ">
<polygon fill="white" stroke="#666666" points="514.62,-179.62 457.38,-179.62 457.38,-160.38 514.62,-160.38 514.62,-179.62"/>
<text text-anchor="middle" x="486" y="-166.12" font-family="Helvetica,sans-Serif" font-size="10.00">memcpyz</text>
</a>
</g>
</g>
<!-- Node12&#45;&gt;Node13 -->
<g id="edge15_Node000012_Node000013" class="edge">
<title>Node12&#45;&gt;Node13</title>
<g id="a_edge15_Node000012_Node000013"><a xlink:title=" ">
<path fill="none" stroke="#63b8ff" d="M397.32,-125.09C413.51,-133.38 436.72,-145.27 455.19,-154.73"/>
<polygon fill="#63b8ff" stroke="#63b8ff" points="453.59,-157.84 464.08,-159.29 456.78,-151.61 453.59,-157.84"/>
</a>
</g>
</g>
<!-- Node15 -->
<g id="Node000015" class="node">
<title>Node15</title>
<g id="a_Node000015"><a xlink:href="../../d9/d9a/mem_8h.html#ada6bb9661f0c10ccaa14d231c24aeafd" target="_top" xlink:title=" ">
<polygon fill="white" stroke="#666666" points="518.75,-124.62 453.25,-124.62 453.25,-105.38 518.75,-105.38 518.75,-124.62"/>
<text text-anchor="middle" x="486" y="-111.12" font-family="Helvetica,sans-Serif" font-size="10.00">mp_imalloc</text>
</a>
</g>
</g>
<!-- Node12&#45;&gt;Node15 -->
<g id="edge17_Node000012_Node000015" class="edge">
<title>Node12&#45;&gt;Node15</title>
<g id="a_edge17_Node000012_Node000015"><a xlink:title=" ">
<path fill="none" stroke="#63b8ff" d="M404.44,-115C415.67,-115 429,-115 441.56,-115"/>
<polygon fill="#63b8ff" stroke="#63b8ff" points="441.28,-118.5 451.28,-115 441.28,-111.5 441.28,-118.5"/>
</a>
</g>
</g>
<!-- Node14 -->
<g id="Node000014" class="node">
<title>Node14</title>
<g id="a_Node000014"><a xlink:href="../../d9/d9a/mem_8h.html#af3794c657c3ffd55b9771dcaeec60c02" target="_top" xlink:title=" ">
<polygon fill="white" stroke="#666666" points="640.12,-188.62 582.12,-188.62 582.12,-169.38 640.12,-169.38 640.12,-188.62"/>
<text text-anchor="middle" x="611.12" y="-175.12" font-family="Helvetica,sans-Serif" font-size="10.00">mempcpy</text>
</a>
</g>
</g>
<!-- Node13&#45;&gt;Node14 -->
<g id="edge16_Node000013_Node000014" class="edge">
<title>Node13&#45;&gt;Node14</title>
<g id="a_edge16_Node000013_Node000014"><a xlink:title=" ">
<path fill="none" stroke="#63b8ff" d="M514.94,-172.04C531.35,-173.24 552.36,-174.78 570.47,-176.1"/>
<polygon fill="#63b8ff" stroke="#63b8ff" points="570.13,-179.59 580.36,-176.82 570.64,-172.6 570.13,-179.59"/>
</a>
</g>
</g>
<!-- Node16 -->
<g id="Node000016" class="node">
<title>Node16</title>
<g id="a_Node000016"><a xlink:href="../../d8/d37/mem_8blk.html#a5666a1403bcf2bd8e114c23f8021d1ac" target="_top" xlink:title=" ">
<polygon fill="white" stroke="#666666" points="649.12,-114.62 573.12,-114.62 573.12,-95.38 649.12,-95.38 649.12,-114.62"/>
<text text-anchor="middle" x="611.12" y="-101.12" font-family="Helvetica,sans-Serif" font-size="10.00">__mp_imalloc</text>
</a>
</g>
</g>
<!-- Node15&#45;&gt;Node16 -->
<g id="edge18_Node000015_Node000016" class="edge">
<title>Node15&#45;&gt;Node16</title>
<g id="a_edge18_Node000015_Node000016"><a xlink:title=" ">
<path fill="none" stroke="#63b8ff" d="M519.03,-112.4C532.07,-111.34 547.43,-110.09 561.79,-108.93"/>
<polygon fill="#63b8ff" stroke="#63b8ff" points="561.83,-112.43 571.51,-108.14 561.26,-105.46 561.83,-112.43"/>
</a>
</g>
</g>
<!-- Node43 -->
<g id="Node000043" class="node">
<title>Node43</title>
<g id="a_Node000043"><a xlink:href="../../d9/d9a/mem_8h.html#ae99e17ad0b27e94e8a00c8af9734a0e7" target="_top" xlink:title=" ">
<polygon fill="white" stroke="#666666" points="667.5,-151.62 554.75,-151.62 554.75,-132.38 667.5,-132.38 667.5,-151.62"/>
<text text-anchor="middle" x="611.12" y="-138.12" font-family="Helvetica,sans-Serif" font-size="10.00">icheck_alloc_constant</text>
</a>
</g>
</g>
<!-- Node15&#45;&gt;Node43 -->
<g id="edge51_Node000015_Node000043" class="edge">
<title>Node15&#45;&gt;Node43</title>
<g id="a_edge51_Node000015_Node000043"><a xlink:title=" ">
<path fill="none" stroke="#63b8ff" d="M519.03,-122.02C529.5,-124.32 541.47,-126.95 553.22,-129.52"/>
<polygon fill="#63b8ff" stroke="#63b8ff" points="552.35,-132.91 562.87,-131.64 553.85,-126.08 552.35,-132.91"/>
</a>
</g>
</g>
<!-- Node17 -->
<g id="Node000017" class="node">
<title>Node17</title>
<g id="a_Node000017"><a xlink:href="../../d8/d37/mem_8blk.html#a8e4fbf6500e65079c31e3fd933ae7dc1" target="_top" xlink:title=" ">
<polygon fill="white" stroke="#666666" points="789.62,-137.62 719.62,-137.62 719.62,-118.38 789.62,-118.38 789.62,-137.62"/>
<text text-anchor="middle" x="754.62" y="-124.12" font-family="Helvetica,sans-Serif" font-size="10.00">icheck_alloc</text>
</a>
</g>
</g>
<!-- Node16&#45;&gt;Node17 -->
<g id="edge19_Node000016_Node000017" class="edge">
<title>Node16&#45;&gt;Node17</title>
<g id="a_edge19_Node000016_Node000017"><a xlink:title=" ">
<path fill="none" stroke="#63b8ff" d="M649.3,-111.04C667.42,-113.99 689.37,-117.56 708.45,-120.66"/>
<polygon fill="#63b8ff" stroke="#63b8ff" points="707.68,-124.08 718.11,-122.23 708.8,-117.17 707.68,-124.08"/>
</a>
</g>
</g>
<!-- Node41 -->
<g id="Node000041" class="node">
<title>Node41</title>
<g id="a_Node000041"><a xlink:href="../../d9/d9a/mem_8h.html#af42ab5c21de0c723b2a55403e5441fda" target="_top" xlink:title=" ">
<polygon fill="white" stroke="#666666" points="794.12,-100.62 715.12,-100.62 715.12,-81.38 794.12,-81.38 794.12,-100.62"/>
<text text-anchor="middle" x="754.62" y="-87.12" font-family="Helvetica,sans-Serif" font-size="10.00">mem_bit_align</text>
</a>
</g>
</g>
<!-- Node16&#45;&gt;Node41 -->
<g id="edge49_Node000016_Node000041" class="edge">
<title>Node16&#45;&gt;Node41</title>
<g id="a_edge49_Node000016_Node000041"><a xlink:title=" ">
<path fill="none" stroke="#63b8ff" d="M649.3,-101.32C665.83,-99.69 685.53,-97.74 703.34,-95.98"/>
<polygon fill="#63b8ff" stroke="#63b8ff" points="703.61,-99.47 713.21,-95 702.92,-92.5 703.61,-99.47"/>
</a>
</g>
</g>
<!-- Node18 -->
<g id="Node000018" class="node">
<title>Node18</title>
<g id="a_Node000018"><a xlink:href="../../d7/df8/log_8c.html#abca342edf91a9b45f7a17ef564fa8a53" target="_top" xlink:title=" ">
<polygon fill="white" stroke="#666666" points="896.75,-198.62 847,-198.62 847,-179.38 896.75,-179.38 896.75,-198.62"/>
<text text-anchor="middle" x="871.88" y="-185.12" font-family="Helvetica,sans-Serif" font-size="10.00">e_panic</text>
</a>
</g>
</g>
<!-- Node17&#45;&gt;Node18 -->
<g id="edge20_Node000017_Node000018" class="edge">
<title>Node17&#45;&gt;Node18</title>
<g id="a_edge20_Node000017_Node000018"><a xlink:title=" ">
<path fill="none" stroke="#63b8ff" d="M787.39,-138.11C793.59,-140.44 799.96,-143.1 805.75,-146 820.85,-153.56 836.69,-163.96 848.97,-172.63"/>
<polygon fill="#63b8ff" stroke="#63b8ff" points="846.58,-175.23 856.74,-178.25 850.68,-169.55 846.58,-175.23"/>
</a>
</g>
</g>
<!-- Node18&#45;&gt;Node9 -->
<g id="edge48_Node000018_Node000009" class="edge">
<title>Node18&#45;&gt;Node9</title>
<g id="a_edge48_Node000018_Node000009"><a xlink:title=" ">
<path fill="none" stroke="#63b8ff" d="M881.02,-198.79C887.48,-206.97 896.33,-219.16 902,-231 926.42,-281.99 902.7,-308.84 938,-353 940.48,-356.1 943.47,-358.86 946.71,-361.31"/>
<polygon fill="#63b8ff" stroke="#63b8ff" points="944.67,-364.17 954.99,-366.58 948.43,-358.26 944.67,-364.17"/>
</a>
</g>
</g>
<!-- Node19 -->
<g id="Node000019" class="node">
<title>Node19</title>
<g id="a_Node000019"><a xlink:href="../../d7/df8/log_8c.html#a4bc04f7baa1e064cb0b93c7b9f3a61a1" target="_top" xlink:title=" ">
<polygon fill="white" stroke="#666666" points="1026,-198.62 938,-198.62 938,-179.38 1026,-179.38 1026,-198.62"/>
<text text-anchor="middle" x="982" y="-185.12" font-family="Helvetica,sans-Serif" font-size="10.00">__logger_refresh</text>
</a>
</g>
</g>
<!-- Node18&#45;&gt;Node19 -->
<g id="edge21_Node000018_Node000019" class="edge">
<title>Node18&#45;&gt;Node19</title>
<g id="a_edge21_Node000018_Node000019"><a xlink:title=" ">
<path fill="none" stroke="#63b8ff" d="M897.14,-189C905.83,-189 916,-189 926.22,-189"/>
<polygon fill="#63b8ff" stroke="#63b8ff" points="926.17,-192.5 936.17,-189 926.17,-185.5 926.17,-192.5"/>
</a>
</g>
</g>
<!-- Node37 -->
<g id="Node000037" class="node">
<title>Node37</title>
<g id="a_Node000037"><a xlink:href="../../d7/df8/log_8c.html#a900490b26df7698aac12f7f7e6517e81" target="_top" xlink:title=" ">
<polygon fill="white" stroke="#666666" points="1014.75,-123.62 949.25,-123.62 949.25,-104.38 1014.75,-104.38 1014.75,-123.62"/>
<text text-anchor="middle" x="982" y="-110.12" font-family="Helvetica,sans-Serif" font-size="10.00">logger_vlog</text>
</a>
</g>
</g>
<!-- Node18&#45;&gt;Node37 -->
<g id="edge43_Node000018_Node000037" class="edge">
<title>Node18&#45;&gt;Node37</title>
<g id="a_edge43_Node000018_Node000037"><a xlink:title=" ">
<path fill="none" stroke="#63b8ff" d="M887.46,-178.89C905.37,-166.46 936,-145.21 957.31,-130.43"/>
<polygon fill="#63b8ff" stroke="#63b8ff" points="959.18,-133.39 965.41,-124.82 955.19,-127.64 959.18,-133.39"/>
</a>
</g>
</g>
<!-- Node20 -->
<g id="Node000020" class="node">
<title>Node20</title>
<g id="a_Node000020"><a xlink:href="../../d7/df8/log_8c.html#a3dbd75fb614210f0b114cfd03c9c0a7b" target="_top" xlink:title=" ">
<polygon fill="white" stroke="#666666" points="1165.75,-235.62 1062,-235.62 1062,-216.38 1165.75,-216.38 1165.75,-235.62"/>
<text text-anchor="middle" x="1113.88" y="-222.12" font-family="Helvetica,sans-Serif" font-size="10.00">__logger_do_refresh</text>
</a>
</g>
</g>
<!-- Node19&#45;&gt;Node20 -->
<g id="edge22_Node000019_Node000020" class="edge">
<title>Node19&#45;&gt;Node20</title>
<g id="a_edge22_Node000019_Node000020"><a xlink:title=" ">
<path fill="none" stroke="#63b8ff" d="M1018.49,-199.11C1033.38,-203.35 1050.89,-208.34 1066.76,-212.86"/>
<polygon fill="#63b8ff" stroke="#63b8ff" points="1065.4,-216.11 1075.97,-215.49 1067.32,-209.38 1065.4,-216.11"/>
</a>
</g>
</g>
<!-- Node35 -->
<g id="Node000035" class="node">
<title>Node35</title>
<g id="a_Node000035"><a xlink:href="../../d7/df8/log_8c.html#a7b1b02d1986e1247c2f571af4a2c2854" target="_top" xlink:title=" ">
<polygon fill="white" stroke="#666666" points="1151.5,-198.62 1076.25,-198.62 1076.25,-179.38 1151.5,-179.38 1151.5,-198.62"/>
<text text-anchor="middle" x="1113.88" y="-185.12" font-family="Helvetica,sans-Serif" font-size="10.00">log_spin_lock</text>
</a>
</g>
</g>
<!-- Node19&#45;&gt;Node35 -->
<g id="edge41_Node000019_Node000035" class="edge">
<title>Node19&#45;&gt;Node35</title>
<g id="a_edge41_Node000019_Node000035"><a xlink:title=" ">
<path fill="none" stroke="#63b8ff" d="M1026.25,-189C1038.56,-189 1052.05,-189 1064.65,-189"/>
<polygon fill="#63b8ff" stroke="#63b8ff" points="1064.39,-192.5 1074.39,-189 1064.39,-185.5 1064.39,-192.5"/>
</a>
</g>
</g>
<!-- Node36 -->
<g id="Node000036" class="node">
<title>Node36</title>
<g id="a_Node000036"><a xlink:href="../../d1/dc0/group__log.html#ga045020bb4af234632f7761f220131c69" target="_top" xlink:title=" ">
<polygon fill="white" stroke="#666666" points="1156.75,-161.62 1071,-161.62 1071,-142.38 1156.75,-142.38 1156.75,-161.62"/>
<text text-anchor="middle" x="1113.88" y="-148.12" font-family="Helvetica,sans-Serif" font-size="10.00">log_spin_unlock</text>
</a>
</g>
</g>
<!-- Node19&#45;&gt;Node36 -->
<g id="edge42_Node000019_Node000036" class="edge">
<title>Node19&#45;&gt;Node36</title>
<g id="a_edge42_Node000019_Node000036"><a xlink:title=" ">
<path fill="none" stroke="#63b8ff" d="M1018.49,-178.89C1033.38,-174.65 1050.89,-169.66 1066.76,-165.14"/>
<polygon fill="#63b8ff" stroke="#63b8ff" points="1067.32,-168.62 1075.97,-162.51 1065.4,-161.89 1067.32,-168.62"/>
</a>
</g>
</g>
<!-- Node20&#45;&gt;Node20 -->
<g id="edge23_Node000020_Node000020" class="edge">
<title>Node20&#45;&gt;Node20</title>
<g id="a_edge23_Node000020_Node000020"><a xlink:title=" ">
<path fill="none" stroke="#63b8ff" d="M1093.23,-235.91C1083.81,-244.52 1090.69,-253.62 1113.88,-253.62 1126.55,-253.62 1134.35,-250.9 1137.28,-247.03"/>
<polygon fill="#63b8ff" stroke="#63b8ff" points="1140.69,-246.24 1134.89,-237.38 1133.9,-247.93 1140.69,-246.24"/>
</a>
</g>
</g>
<!-- Node21 -->
<g id="Node000021" class="node">
<title>Node21</title>
<g id="a_Node000021"><a xlink:href="../../de/d1a/container-dlist_8h.html#a3b6f65860b212e28f2e28e71eb54d54d" target="_top" xlink:title="Add element e at the head of list l (suited for LIFO).">
<polygon fill="white" stroke="#666666" points="1292.75,-235.62 1237.75,-235.62 1237.75,-216.38 1292.75,-216.38 1292.75,-235.62"/>
<text text-anchor="middle" x="1265.25" y="-222.12" font-family="Helvetica,sans-Serif" font-size="10.00">dlist_add</text>
</a>
</g>
</g>
<!-- Node20&#45;&gt;Node21 -->
<g id="edge24_Node000020_Node000021" class="edge">
<title>Node20&#45;&gt;Node21</title>
<g id="a_edge24_Node000020_Node000021"><a xlink:title=" ">
<path fill="none" stroke="#63b8ff" d="M1165.86,-226C1185.55,-226 1207.69,-226 1225.98,-226"/>
<polygon fill="#63b8ff" stroke="#63b8ff" points="1225.86,-229.5 1235.86,-226 1225.86,-222.5 1225.86,-229.5"/>
</a>
</g>
</g>
<!-- Node23 -->
<g id="Node000023" class="node">
<title>Node23</title>
<g id="a_Node000023"><a xlink:href="../../de/d1a/container-dlist_8h.html#a0a69e401f6ec15966c891e96ad864c77" target="_top" xlink:title="Put a dlist_t element in a safe and detached state.">
<polygon fill="white" stroke="#666666" points="1291.25,-198.62 1239.25,-198.62 1239.25,-179.38 1291.25,-179.38 1291.25,-198.62"/>
<text text-anchor="middle" x="1265.25" y="-185.12" font-family="Helvetica,sans-Serif" font-size="10.00">dlist_init</text>
</a>
</g>
</g>
<!-- Node20&#45;&gt;Node23 -->
<g id="edge26_Node000020_Node000023" class="edge">
<title>Node20&#45;&gt;Node23</title>
<g id="a_edge26_Node000020_Node000023"><a xlink:title=" ">
<path fill="none" stroke="#63b8ff" d="M1155.69,-215.89C1178.24,-210.3 1206.02,-203.42 1227.84,-198.02"/>
<polygon fill="#63b8ff" stroke="#63b8ff" points="1228.62,-201.43 1237.48,-195.63 1226.94,-194.64 1228.62,-201.43"/>
</a>
</g>
</g>
<!-- Node24 -->
<g id="Node000024" class="node">
<title>Node24</title>
<g id="a_Node000024"><a xlink:href="../../d7/df8/log_8c.html#a4c8fbe8648573312126ce341cf34cba1" target="_top" xlink:title=" ">
<polygon fill="white" stroke="#666666" points="1328.75,-272.62 1201.75,-272.62 1201.75,-253.38 1328.75,-253.38 1328.75,-272.62"/>
<text text-anchor="middle" x="1265.25" y="-259.12" font-family="Helvetica,sans-Serif" font-size="10.00">logger_compute_fullname</text>
</a>
</g>
</g>
<!-- Node20&#45;&gt;Node24 -->
<g id="edge27_Node000020_Node000024" class="edge">
<title>Node20&#45;&gt;Node24</title>
<g id="a_edge27_Node000020_Node000024"><a xlink:title=" ">
<path fill="none" stroke="#63b8ff" d="M1155.69,-236.11C1173.23,-240.45 1193.93,-245.58 1212.52,-250.19"/>
<polygon fill="#63b8ff" stroke="#63b8ff" points="1211.46,-253.53 1222.01,-252.54 1213.15,-246.74 1211.46,-253.53"/>
</a>
</g>
</g>
<!-- Node27 -->
<g id="Node000027" class="node">
<title>Node27</title>
<g id="a_Node000027"><a xlink:href="../../df/d0a/str-l_8h.html#ad74dae07179370f3c22e3f026157926e" target="_top" xlink:title="wipe a lstr_t (frees memory if needed).">
<polygon fill="white" stroke="#666666" points="1436.25,-291.62 1381.25,-291.62 1381.25,-272.38 1436.25,-272.38 1436.25,-291.62"/>
<text text-anchor="middle" x="1408.75" y="-278.12" font-family="Helvetica,sans-Serif" font-size="10.00">lstr_wipe</text>
</a>
</g>
</g>
<!-- Node20&#45;&gt;Node27 -->
<g id="edge40_Node000020_Node000027" class="edge">
<title>Node20&#45;&gt;Node27</title>
<g id="a_edge40_Node000020_Node000027"><a xlink:title=" ">
<path fill="none" stroke="#63b8ff" d="M1125.62,-235.92C1141.08,-249.43 1171.11,-272.98 1201.75,-282 1258.39,-298.67 1327.65,-293.84 1369.7,-288.31"/>
<polygon fill="#63b8ff" stroke="#63b8ff" points="1370.14,-291.78 1379.56,-286.92 1369.17,-284.85 1370.14,-291.78"/>
</a>
</g>
</g>
<!-- Node34 -->
<g id="Node000034" class="node">
<title>Node34</title>
<g id="a_Node000034"><a xlink:href="../../df/d0a/str-l_8h.html#a963c22b229774d4b7c106bae4011cb8e" target="_top" xlink:title="Returns whether \v s1 and \v s2 contents are equal.">
<polygon fill="white" stroke="#666666" points="1294.25,-161.62 1236.25,-161.62 1236.25,-142.38 1294.25,-142.38 1294.25,-161.62"/>
<text text-anchor="middle" x="1265.25" y="-148.12" font-family="Helvetica,sans-Serif" font-size="10.00">lstr_equal</text>
</a>
</g>
</g>
<!-- Node20&#45;&gt;Node34 -->
<g id="edge39_Node000020_Node000034" class="edge">
<title>Node20&#45;&gt;Node34</title>
<g id="a_edge39_Node000020_Node000034"><a xlink:title=" ">
<path fill="none" stroke="#63b8ff" d="M1150.39,-215.89C1155.74,-213.68 1161.04,-211.06 1165.75,-208 1185.26,-195.32 1181.87,-182.09 1201.75,-170 1208.77,-165.73 1216.84,-162.44 1224.8,-159.91"/>
<polygon fill="#63b8ff" stroke="#63b8ff" points="1225.72,-163.28 1234.41,-157.22 1223.84,-156.54 1225.72,-163.28"/>
</a>
</g>
</g>
<!-- Node22 -->
<g id="Node000022" class="node">
<title>Node22</title>
<g id="a_Node000022"><a xlink:href="../../de/d1a/container-dlist_8h.html#a71e7667ca0e4b896923788c5851afd24" target="_top" xlink:title="Put element e between prev and next.">
<polygon fill="white" stroke="#666666" points="1441.5,-217.62 1376,-217.62 1376,-198.38 1441.5,-198.38 1441.5,-217.62"/>
<text text-anchor="middle" x="1408.75" y="-204.12" font-family="Helvetica,sans-Serif" font-size="10.00">__dlist_add</text>
</a>
</g>
</g>
<!-- Node21&#45;&gt;Node22 -->
<g id="edge25_Node000021_Node000022" class="edge">
<title>Node21&#45;&gt;Node22</title>
<g id="a_edge25_Node000021_Node000022"><a xlink:title=" ">
<path fill="none" stroke="#63b8ff" d="M1293.2,-222.57C1313.3,-220.02 1341.17,-216.47 1364.39,-213.52"/>
<polygon fill="#63b8ff" stroke="#63b8ff" points="1364.72,-217 1374.2,-212.27 1363.84,-210.06 1364.72,-217"/>
</a>
</g>
</g>
<!-- Node25 -->
<g id="Node000025" class="node">
<title>Node25</title>
<g id="a_Node000025"><a xlink:href="../../df/d0a/str-l_8h.html#a6a200ca09358f19b13a8e297cda34869" target="_top" xlink:title="returns a constant copy of \v s.">
<polygon fill="white" stroke="#666666" points="1436.62,-254.62 1380.88,-254.62 1380.88,-235.38 1436.62,-235.38 1436.62,-254.62"/>
<text text-anchor="middle" x="1408.75" y="-241.12" font-family="Helvetica,sans-Serif" font-size="10.00">lstr_dupc</text>
</a>
</g>
</g>
<!-- Node24&#45;&gt;Node25 -->
<g id="edge28_Node000024_Node000025" class="edge">
<title>Node24&#45;&gt;Node25</title>
<g id="a_edge28_Node000024_Node000025"><a xlink:title=" ">
<path fill="none" stroke="#63b8ff" d="M1329.14,-255C1342.79,-253.26 1356.83,-251.48 1369.2,-249.9"/>
<polygon fill="#63b8ff" stroke="#63b8ff" points="1369.51,-253.39 1378.98,-248.66 1368.62,-246.45 1369.51,-253.39"/>
</a>
</g>
</g>
<!-- Node24&#45;&gt;Node27 -->
<g id="edge30_Node000024_Node000027" class="edge">
<title>Node24&#45;&gt;Node27</title>
<g id="a_edge30_Node000024_Node000027"><a xlink:title=" ">
<path fill="none" stroke="#63b8ff" d="M1329.14,-271.44C1342.9,-273.29 1357.06,-275.19 1369.51,-276.86"/>
<polygon fill="#63b8ff" stroke="#63b8ff" points="1368.97,-280.32 1379.34,-278.19 1369.9,-273.39 1368.97,-280.32"/>
</a>
</g>
</g>
<!-- Node26 -->
<g id="Node000026" class="node">
<title>Node26</title>
<g id="a_Node000026"><a xlink:href="../../df/d0a/str-l_8h.html#a3b4dbe9c4cc70340cba0787574dc1c5e" target="_top" xlink:title=" ">
<polygon fill="white" stroke="#666666" points="1766.25,-253.62 1713.5,-253.62 1713.5,-234.38 1766.25,-234.38 1766.25,-253.62"/>
<text text-anchor="middle" x="1739.88" y="-240.12" font-family="Helvetica,sans-Serif" font-size="10.00">lstr_init_</text>
</a>
</g>
</g>
<!-- Node25&#45;&gt;Node26 -->
<g id="edge29_Node000025_Node000026" class="edge">
<title>Node25&#45;&gt;Node26</title>
<g id="a_edge29_Node000025_Node000026"><a xlink:title=" ">
<path fill="none" stroke="#63b8ff" d="M1436.96,-244.92C1495.81,-244.74 1634.94,-244.32 1701.78,-244.11"/>
<polygon fill="#63b8ff" stroke="#63b8ff" points="1701.5,-247.61 1711.49,-244.08 1701.48,-240.61 1701.5,-247.61"/>
</a>
</g>
</g>
<!-- Node28 -->
<g id="Node000028" class="node">
<title>Node28</title>
<g id="a_Node000028"><a xlink:href="../../df/d0a/str-l_8h.html#a381cd831ac9616c5bea8213bb679d1ac" target="_top" xlink:title="Wipe a lstr_t (frees memory if needed).">
<polygon fill="white" stroke="#666666" points="1562.5,-291.62 1488.75,-291.62 1488.75,-272.38 1562.5,-272.38 1562.5,-291.62"/>
<text text-anchor="middle" x="1525.62" y="-278.12" font-family="Helvetica,sans-Serif" font-size="10.00">mp_lstr_wipe</text>
</a>
</g>
</g>
<!-- Node27&#45;&gt;Node28 -->
<g id="edge31_Node000027_Node000028" class="edge">
<title>Node27&#45;&gt;Node28</title>
<g id="a_edge31_Node000027_Node000028"><a xlink:title=" ">
<path fill="none" stroke="#63b8ff" d="M1436.68,-282C1448.7,-282 1463.23,-282 1476.99,-282"/>
<polygon fill="#63b8ff" stroke="#63b8ff" points="1476.78,-285.5 1486.78,-282 1476.78,-278.5 1476.78,-285.5"/>
</a>
</g>
</g>
<!-- Node29 -->
<g id="Node000029" class="node">
<title>Node29</title>
<g id="a_Node000029"><a xlink:href="../../de/d04/str-l_8c.html#abe2a3a71f0b4dbc7d37c59d16762b6fb" target="_top" xlink:title="lstr_copy_* helper.">
<polygon fill="white" stroke="#666666" points="1677.5,-291.62 1598.5,-291.62 1598.5,-272.38 1677.5,-272.38 1677.5,-291.62"/>
<text text-anchor="middle" x="1638" y="-278.12" font-family="Helvetica,sans-Serif" font-size="10.00">mp_lstr_copy_</text>
</a>
</g>
</g>
<!-- Node28&#45;&gt;Node29 -->
<g id="edge32_Node000028_Node000029" class="edge">
<title>Node28&#45;&gt;Node29</title>
<g id="a_edge32_Node000028_Node000029"><a xlink:title=" ">
<path fill="none" stroke="#63b8ff" d="M1562.77,-282C1570.46,-282 1578.71,-282 1586.82,-282"/>
<polygon fill="#63b8ff" stroke="#63b8ff" points="1586.6,-285.5 1596.6,-282 1586.6,-278.5 1586.6,-285.5"/>
</a>
</g>
</g>
<!-- Node29&#45;&gt;Node26 -->
<g id="edge38_Node000029_Node000026" class="edge">
<title>Node29&#45;&gt;Node26</title>
<g id="a_edge38_Node000029_Node000026"><a xlink:title=" ">
<path fill="none" stroke="#63b8ff" d="M1665.5,-271.92C1676.94,-267.56 1690.51,-262.4 1702.85,-257.71"/>
<polygon fill="#63b8ff" stroke="#63b8ff" points="1703.77,-261.1 1711.87,-254.27 1701.28,-254.56 1703.77,-261.1"/>
</a>
</g>
</g>
<!-- Node30 -->
<g id="Node000030" class="node">
<title>Node30</title>
<g id="a_Node000030"><a xlink:href="../../d9/d9a/mem_8h.html#aebbbd277e2952bdb802104671ba23ba9" target="_top" xlink:title=" ">
<polygon fill="white" stroke="#666666" points="1757.25,-291.62 1722.5,-291.62 1722.5,-272.38 1757.25,-272.38 1757.25,-291.62"/>
<text text-anchor="middle" x="1739.88" y="-278.12" font-family="Helvetica,sans-Serif" font-size="10.00">ifree</text>
</a>
</g>
</g>
<!-- Node29&#45;&gt;Node30 -->
<g id="edge33_Node000029_Node000030" class="edge">
<title>Node29&#45;&gt;Node30</title>
<g id="a_edge33_Node000029_Node000030"><a xlink:title=" ">
<path fill="none" stroke="#63b8ff" d="M1677.9,-282C1688.8,-282 1700.45,-282 1710.6,-282"/>
<polygon fill="#63b8ff" stroke="#63b8ff" points="1710.6,-285.5 1720.6,-282 1710.6,-278.5 1710.6,-285.5"/>
</a>
</g>
</g>
<!-- Node31 -->
<g id="Node000031" class="node">
<title>Node31</title>
<g id="a_Node000031"><a xlink:href="../../d8/d37/mem_8blk.html#a36b65ab346f1d0deed7b63c544c78f2b" target="_top" xlink:title=" ">
<polygon fill="white" stroke="#666666" points="1847.12,-309.62 1810.88,-309.62 1810.88,-290.38 1847.12,-290.38 1847.12,-309.62"/>
<text text-anchor="middle" x="1829" y="-296.12" font-family="Helvetica,sans-Serif" font-size="10.00">ipool</text>
</a>
</g>
</g>
<!-- Node30&#45;&gt;Node31 -->
<g id="edge34_Node000030_Node000031" class="edge">
<title>Node30&#45;&gt;Node31</title>
<g id="a_edge34_Node000030_Node000031"><a xlink:title=" ">
<path fill="none" stroke="#63b8ff" d="M1757.67,-285.47C1769.57,-287.93 1785.82,-291.29 1799.7,-294.15"/>
<polygon fill="#63b8ff" stroke="#63b8ff" points="1798.67,-297.51 1809.17,-296.11 1800.09,-290.66 1798.67,-297.51"/>
</a>
</g>
</g>
<!-- Node33 -->
<g id="Node000033" class="node">
<title>Node33</title>
<g id="a_Node000033"><a xlink:href="../../d8/d37/mem_8blk.html#a83c7cf203e5eef9d1a8c6c43cde3e2e5" target="_top" xlink:title=" ">
<polygon fill="white" stroke="#666666" points="1855.75,-272.62 1802.25,-272.62 1802.25,-253.38 1855.75,-253.38 1855.75,-272.62"/>
<text text-anchor="middle" x="1829" y="-259.12" font-family="Helvetica,sans-Serif" font-size="10.00">mp_ifree</text>
</a>
</g>
</g>
<!-- Node30&#45;&gt;Node33 -->
<g id="edge37_Node000030_Node000033" class="edge">
<title>Node30&#45;&gt;Node33</title>
<g id="a_edge37_Node000030_Node000033"><a xlink:title=" ">
<path fill="none" stroke="#63b8ff" d="M1757.67,-278.34C1767.09,-276.28 1779.24,-273.63 1790.78,-271.12"/>
<polygon fill="#63b8ff" stroke="#63b8ff" points="1791.49,-274.54 1800.51,-268.99 1790,-267.71 1791.49,-274.54"/>
</a>
</g>
</g>
<!-- Node31&#45;&gt;Node18 -->
<g id="edge35_Node000031_Node000018" class="edge">
<title>Node31&#45;&gt;Node18</title>
<g id="a_edge35_Node000031_Node000018"><a xlink:title=" ">
<path fill="none" stroke="#63b8ff" d="M1810.53,-306.09C1777.48,-317.06 1703.33,-339 1639,-339 1112.88,-339 1112.88,-339 1112.88,-339 1014.62,-339 923.43,-247.48 888.21,-207.41"/>
<polygon fill="#63b8ff" stroke="#63b8ff" points="891.01,-205.29 881.84,-199.99 885.7,-209.86 891.01,-205.29"/>
</a>
</g>
</g>
<!-- Node31&#45;&gt;Node32 -->
<g id="edge36_Node000031_Node000032" class="edge">
<title>Node31&#45;&gt;Node32</title>
<g id="a_edge36_Node000031_Node000032"><a xlink:title=" ">
<path fill="none" stroke="#63b8ff" d="M1847.22,-290C1850.33,-287.66 1853.35,-284.97 1855.75,-282 1883.23,-248.12 1899.38,-198.8 1906.84,-171.03"/>
<polygon fill="#63b8ff" stroke="#63b8ff" points="1910.22,-171.95 1909.29,-161.39 1903.44,-170.22 1910.22,-171.95"/>
</a>
</g>
</g>
<!-- Node37&#45;&gt;Node25 -->
<g id="edge47_Node000037_Node000025" class="edge">
<title>Node37&#45;&gt;Node25</title>
<g id="a_edge47_Node000037_Node000025"><a xlink:title=" ">
<path fill="none" stroke="#63b8ff" d="M1014.98,-111.48C1090.93,-106.17 1279.44,-97.05 1328.75,-133 1364.9,-159.36 1333.61,-194.88 1364.75,-227 1366.54,-228.84 1368.54,-230.5 1370.68,-232"/>
<polygon fill="#63b8ff" stroke="#63b8ff" points="1368.91,-235.02 1379.34,-236.83 1372.31,-228.91 1368.91,-235.02"/>
</a>
</g>
</g>
<!-- Node38 -->
<g id="Node000038" class="node">
<title>Node38</title>
<g id="a_Node000038"><a xlink:href="../../d1/dc0/group__log.html#ga168a6f17b248f61f7d25a17d58d04e36" target="_top" xlink:title=" ">
<polygon fill="white" stroke="#666666" points="1158.25,-85.62 1069.5,-85.62 1069.5,-66.38 1158.25,-66.38 1158.25,-85.62"/>
<text text-anchor="middle" x="1113.88" y="-72.12" font-family="Helvetica,sans-Serif" font-size="10.00">logger_has_level</text>
</a>
</g>
</g>
<!-- Node37&#45;&gt;Node38 -->
<g id="edge44_Node000037_Node000038" class="edge">
<title>Node37&#45;&gt;Node38</title>
<g id="a_edge44_Node000037_Node000038"><a xlink:title=" ">
<path fill="none" stroke="#63b8ff" d="M1015.1,-104.61C1030.88,-99.99 1050.16,-94.35 1067.42,-89.3"/>
<polygon fill="#63b8ff" stroke="#63b8ff" points="1068.34,-92.68 1076.96,-86.51 1066.38,-85.96 1068.34,-92.68"/>
</a>
</g>
</g>
<!-- Node39 -->
<g id="Node000039" class="node">
<title>Node39</title>
<g id="a_Node000039"><a xlink:href="../../d1/dc0/group__log.html#gaf388752b988541da0abeceecdf96e6b3" target="_top" xlink:title=" ">
<polygon fill="white" stroke="#666666" points="1308.5,-85.62 1222,-85.62 1222,-66.38 1308.5,-66.38 1308.5,-85.62"/>
<text text-anchor="middle" x="1265.25" y="-72.12" font-family="Helvetica,sans-Serif" font-size="10.00">logger_get_level</text>
</a>
</g>
</g>
<!-- Node38&#45;&gt;Node39 -->
<g id="edge45_Node000038_Node000039" class="edge">
<title>Node38&#45;&gt;Node39</title>
<g id="a_edge45_Node000038_Node000039"><a xlink:title=" ">
<path fill="none" stroke="#63b8ff" d="M1158.48,-76C1174.64,-76 1193.17,-76 1210.15,-76"/>
<polygon fill="#63b8ff" stroke="#63b8ff" points="1210.11,-79.5 1220.11,-76 1210.11,-72.5 1210.11,-79.5"/>
</a>
</g>
</g>
<!-- Node40 -->
<g id="Node000040" class="node">
<title>Node40</title>
<g id="a_Node000040"><a xlink:href="../../d1/dc0/group__log.html#ga93cbd623096e1704532d15b3eb30e42f" target="_top" xlink:title=" ">
<polygon fill="white" stroke="#666666" points="1452.75,-85.62 1364.75,-85.62 1364.75,-66.38 1452.75,-66.38 1452.75,-85.62"/>
<text text-anchor="middle" x="1408.75" y="-72.12" font-family="Helvetica,sans-Serif" font-size="10.00">__logger_refresh</text>
</a>
</g>
</g>
<!-- Node39&#45;&gt;Node40 -->
<g id="edge46_Node000039_Node000040" class="edge">
<title>Node39&#45;&gt;Node40</title>
<g id="a_edge46_Node000039_Node000040"><a xlink:title=" ">
<path fill="none" stroke="#63b8ff" d="M1308.7,-76C1322.58,-76 1338.19,-76 1352.85,-76"/>
<polygon fill="#63b8ff" stroke="#63b8ff" points="1352.83,-79.5 1362.83,-76 1352.83,-72.5 1352.83,-79.5"/>
</a>
</g>
</g>
<!-- Node42 -->
<g id="Node000042" class="node">
<title>Node42</title>
<g id="a_Node000042"><a xlink:href="../../d8/d96/bithacks_8h.html#ab80588fa9f8b9e766249edaf70558bdc" target="_top" xlink:title=" ">
<polygon fill="white" stroke="#666666" points="902,-100.62 841.75,-100.62 841.75,-81.38 902,-81.38 902,-100.62"/>
<text text-anchor="middle" x="871.88" y="-87.12" font-family="Helvetica,sans-Serif" font-size="10.00">bitcountsz</text>
</a>
</g>
</g>
<!-- Node41&#45;&gt;Node42 -->
<g id="edge50_Node000041_Node000042" class="edge">
<title>Node41&#45;&gt;Node42</title>
<g id="a_edge50_Node000041_Node000042"><a xlink:title=" ">
<path fill="none" stroke="#63b8ff" d="M794.32,-91C805.9,-91 818.62,-91 830.31,-91"/>
<polygon fill="#63b8ff" stroke="#63b8ff" points="830.06,-94.5 840.06,-91 830.06,-87.5 830.06,-94.5"/>
</a>
</g>
</g>
<!-- Node44 -->
<g id="Node000044" class="node">
<title>Node44</title>
<g id="a_Node000044"><a xlink:href="../../d8/d37/mem_8blk.html#a377e36d6fbaf3ee7f1b217559cb0c850" target="_top" xlink:title=" ">
<polygon fill="white" stroke="#666666" points="805.75,-174.62 703.5,-174.62 703.5,-155.38 805.75,-155.38 805.75,-174.62"/>
<text text-anchor="middle" x="754.62" y="-161.12" font-family="Helvetica,sans-Serif" font-size="10.00">__imalloc_too_large</text>
</a>
</g>
</g>
<!-- Node43&#45;&gt;Node44 -->
<g id="edge52_Node000043_Node000044" class="edge">
<title>Node43&#45;&gt;Node44</title>
<g id="a_edge52_Node000043_Node000044"><a xlink:title=" ">
<path fill="none" stroke="#63b8ff" d="M667.64,-151.02C675.64,-152.32 683.91,-153.67 692.02,-154.99"/>
<polygon fill="#63b8ff" stroke="#63b8ff" points="691.41,-158.43 701.84,-156.58 692.53,-151.52 691.41,-158.43"/>
</a>
</g>
</g>
<!-- Node45&#45;&gt;Node26 -->
<g id="edge54_Node000045_Node000026" class="edge">
<title>Node45&#45;&gt;Node26</title>
<g id="a_edge54_Node000045_Node000026"><a xlink:title=" ">
<path fill="none" stroke="#63b8ff" d="M1539.27,-86.01C1574.36,-113.79 1673.3,-192.1 1717.31,-226.93"/>
<polygon fill="#63b8ff" stroke="#63b8ff" points="1715.1,-229.65 1725.11,-233.11 1719.44,-224.16 1715.1,-229.65"/>
</a>
</g>
</g>
</g>
</svg>

<g id="navigator" transform="translate(0 0)" fill="#404254">
  <rect fill="#f2f5e9" fill-opacity="0.5" stroke="#606060" stroke-width=".5" x="0" y="0" width="60" height="60"/>
  <use id="zoomplus" xlink:href="#zoomPlus" x="17" y="9" onmousedown="handleZoom(evt,'in')"/>
  <use id="zoomminus" xlink:href="#zoomMin" x="42" y="9" onmousedown="handleZoom(evt,'out')"/>
  <use id="reset" xlink:href="#resetDef" x="30" y="36" onmousedown="handleReset()"/>
   <use id="arrowup" xlink:href="#arrowUp" x="0" y="0" onmousedown="handlePan(0,-1)"/>
  <use id="arrowright" xlink:href="#arrowRight" x="0" y="0" onmousedown="handlePan(1,0)"/>
  <use id="arrowdown" xlink:href="#arrowDown" x="0" y="0" onmousedown="handlePan(0,1)"/>
  <use id="arrowleft" xlink:href="#arrowLeft" x="0" y="0" onmousedown="handlePan(-1,0)"/>
</g>
<svg viewBox="0 0 15 15" width="100%" height="30px" preserveAspectRatio="xMaxYMin meet">
 <g id="arrow_out" transform="scale(0.3 0.3)">
  <a xlink:href="yaml_8c_a60ee64717e0156a601d6db30c4693bd5_cgraph_org.svg" target="_base">
   <rect id="button" ry="5" rx="5" y="6" x="6" height="38" width="38"
        fill="#f2f5e9" fill-opacity="0.5" stroke="#606060" stroke-width="1.0"/>
   <path id="arrow"
     d="M 11.500037,31.436501 C 11.940474,20.09759 22.043105,11.32322 32.158766,21.979434 L 37.068811,17.246167 C 37.068811,17.246167 37.088388,32 37.088388,32 L 22.160133,31.978069 C 22.160133,31.978069 26.997745,27.140456 26.997745,27.140456 C 18.528582,18.264221 13.291696,25.230495 11.500037,31.436501 z"
     style="fill:#404040;"/>
  </a>
 </g>
</svg>

<style type='text/css'>
<![CDATA[
[data-mouse-over-selected='false'] { opacity: 0.7; }
[data-mouse-over-selected='true']  { opacity: 1.0; }
]]>
</style>
<script type="application/ecmascript"><![CDATA[
document.addEventListener('DOMContentLoaded', (event) => {
  highlightEdges();
  highlightAdjacentNodes();
});
]]></script>
</svg>
