<?xml version="1.0" encoding="UTF-8" standalone="no"?>
<!DOCTYPE svg PUBLIC "-//W3C//DTD SVG 1.1//EN"
 "http://www.w3.org/Graphics/SVG/1.1/DTD/svg11.dtd">
<!-- Generated by graphviz version 9.0.0 (20230911.1827)
 -->
<!-- Title: ps_startswith_yaml_key Pages: 1 -->
<svg width="484pt" height="100pt"
 viewBox="0.00 0.00 483.75 100.25" xmlns="http://www.w3.org/2000/svg" xmlns:xlink="http://www.w3.org/1999/xlink">
<g id="graph0" class="graph" transform="scale(1 1) rotate(0) translate(4 96.25)">
<title>ps_startswith_yaml_key</title>
<!-- Node1 -->
<g id="Node000001" class="node">
<title>Node1</title>
<g id="a_Node000001"><a xlink:title=" ">
<polygon fill="#999999" stroke="#666666" points="120.25,-37.25 0,-37.25 0,-18 120.25,-18 120.25,-37.25"/>
<text text-anchor="middle" x="60.12" y="-23.75" font-family="Helvetica,sans-Serif" font-size="10.00">ps_startswith_yaml_key</text>
</a>
</g>
</g>
<!-- Node2 -->
<g id="Node000002" class="node">
<title>Node2</title>
<g id="a_Node000002"><a xlink:href="../../d4/d86/str-stream_8h.html#ac669b29d5a2a75690e7fa19c5ae50bd7" target="_top" xlink:title=" ">
<polygon fill="white" stroke="#666666" points="227.75,-56.25 156.25,-56.25 156.25,-37 227.75,-37 227.75,-56.25"/>
<text text-anchor="middle" x="192" y="-42.75" font-family="Helvetica,sans-Serif" font-size="10.00">ps_get_span</text>
</a>
</g>
</g>
<!-- Node1&#45;&gt;Node2 -->
<g id="edge1_Node000001_Node000002" class="edge">
<title>Node1&#45;&gt;Node2</title>
<g id="a_edge1_Node000001_Node000002"><a xlink:title=" ">
<path fill="none" stroke="#63b8ff" d="M120.74,-36.35C128.71,-37.51 136.79,-38.69 144.49,-39.82"/>
<polygon fill="#63b8ff" stroke="#63b8ff" points="143.93,-43.28 154.33,-41.26 144.94,-36.35 143.93,-43.28"/>
</a>
</g>
</g>
<!-- Node7 -->
<g id="Node000007" class="node">
<title>Node7</title>
<g id="a_Node000007"><a xlink:href="../../d4/d86/str-stream_8h.html#a792bf8e215595e8fd225339902c447bf" target="_top" xlink:title=" ">
<polygon fill="white" stroke="#666666" points="214.25,-19.25 169.75,-19.25 169.75,0 214.25,0 214.25,-19.25"/>
<text text-anchor="middle" x="192" y="-5.75" font-family="Helvetica,sans-Serif" font-size="10.00">ps_len</text>
</a>
</g>
</g>
<!-- Node1&#45;&gt;Node7 -->
<g id="edge6_Node000001_Node000007" class="edge">
<title>Node1&#45;&gt;Node7</title>
<g id="a_edge6_Node000001_Node000007"><a xlink:title=" ">
<path fill="none" stroke="#63b8ff" d="M120.74,-19.36C133.61,-17.58 146.76,-15.76 158.15,-14.18"/>
<polygon fill="#63b8ff" stroke="#63b8ff" points="158.37,-17.68 167.79,-12.84 157.41,-10.75 158.37,-17.68"/>
</a>
</g>
</g>
<!-- Node3 -->
<g id="Node000003" class="node">
<title>Node3</title>
<g id="a_Node000003"><a xlink:href="../../d4/d86/str-stream_8h.html#a0cabc922ee6509017454cd14b7cd9fc5" target="_top" xlink:title=" ">
<polygon fill="white" stroke="#666666" points="365.25,-74.25 269.75,-74.25 269.75,-55 365.25,-55 365.25,-74.25"/>
<text text-anchor="middle" x="317.5" y="-60.75" font-family="Helvetica,sans-Serif" font-size="10.00">__ps_get_ps_upto</text>
</a>
</g>
</g>
<!-- Node2&#45;&gt;Node3 -->
<g id="edge2_Node000002_Node000003" class="edge">
<title>Node2&#45;&gt;Node3</title>
<g id="a_edge2_Node000002_Node000003"><a xlink:title=" ">
<path fill="none" stroke="#63b8ff" d="M228.06,-51.73C237.49,-53.11 247.94,-54.63 258.26,-56.14"/>
<polygon fill="#63b8ff" stroke="#63b8ff" points="257.46,-59.56 267.86,-57.54 258.47,-52.63 257.46,-59.56"/>
</a>
</g>
</g>
<!-- Node6 -->
<g id="Node000006" class="node">
<title>Node6</title>
<g id="a_Node000006"><a xlink:href="../../dd/def/str-ctype_8h.html#ae0cf190bab0c8d79a8562678e7661aad" target="_top" xlink:title=" ">
<polygon fill="white" stroke="#666666" points="371.25,-37.25 263.75,-37.25 263.75,-18 371.25,-18 371.25,-37.25"/>
<text text-anchor="middle" x="317.5" y="-23.75" font-family="Helvetica,sans-Serif" font-size="10.00">ctype_desc_contains</text>
</a>
</g>
</g>
<!-- Node2&#45;&gt;Node6 -->
<g id="edge5_Node000002_Node000006" class="edge">
<title>Node2&#45;&gt;Node6</title>
<g id="a_edge5_Node000002_Node000006"><a xlink:title=" ">
<path fill="none" stroke="#63b8ff" d="M228.06,-41.23C235.61,-40.07 243.82,-38.81 252.09,-37.53"/>
<polygon fill="#63b8ff" stroke="#63b8ff" points="252.51,-41.01 261.86,-36.03 251.45,-34.09 252.51,-41.01"/>
</a>
</g>
</g>
<!-- Node4 -->
<g id="Node000004" class="node">
<title>Node4</title>
<g id="a_Node000004"><a xlink:href="../../d4/d86/str-stream_8h.html#a25629ed82260cb18f7703e4bd8e8c0a4" target="_top" xlink:title=" ">
<polygon fill="white" stroke="#666666" points="475.75,-92.25 407.25,-92.25 407.25,-73 475.75,-73 475.75,-92.25"/>
<text text-anchor="middle" x="441.5" y="-78.75" font-family="Helvetica,sans-Serif" font-size="10.00">ps_contains</text>
</a>
</g>
</g>
<!-- Node3&#45;&gt;Node4 -->
<g id="edge3_Node000003_Node000004" class="edge">
<title>Node3&#45;&gt;Node4</title>
<g id="a_edge3_Node000003_Node000004"><a xlink:title=" ">
<path fill="none" stroke="#63b8ff" d="M365.67,-71.58C375.6,-73.05 386.04,-74.59 395.87,-76.04"/>
<polygon fill="#63b8ff" stroke="#63b8ff" points="395.16,-79.47 405.57,-77.47 396.18,-72.55 395.16,-79.47"/>
</a>
</g>
</g>
<!-- Node5 -->
<g id="Node000005" class="node">
<title>Node5</title>
<g id="a_Node000005"><a xlink:href="../../d4/d86/str-stream_8h.html#a3b4fe44eb26c6eb77b5c58ab8f6a0b46" target="_top" xlink:title=" ">
<polygon fill="white" stroke="#666666" points="469.38,-55.25 413.62,-55.25 413.62,-36 469.38,-36 469.38,-55.25"/>
<text text-anchor="middle" x="441.5" y="-41.75" font-family="Helvetica,sans-Serif" font-size="10.00">ps_initptr</text>
</a>
</g>
</g>
<!-- Node3&#45;&gt;Node5 -->
<g id="edge4_Node000003_Node000005" class="edge">
<title>Node3&#45;&gt;Node5</title>
<g id="a_edge4_Node000003_Node000005"><a xlink:title=" ">
<path fill="none" stroke="#63b8ff" d="M365.67,-57.28C377.74,-55.4 390.57,-53.4 402.14,-51.6"/>
<polygon fill="#63b8ff" stroke="#63b8ff" points="402.37,-55.11 411.71,-50.11 401.29,-48.19 402.37,-55.11"/>
</a>
</g>
</g>
</g>
</svg>
