<?xml version="1.0" encoding="UTF-8" standalone="no"?>
<!DOCTYPE svg PUBLIC "-//W3C//DTD SVG 1.1//EN"
 "http://www.w3.org/Graphics/SVG/1.1/DTD/svg11.dtd">
<!-- Generated by graphviz version 9.0.0 (20230911.1827)
 -->
<!-- Title: t_iop_pres_override_to_pack_override Pages: 1 -->
<svg width="394pt" height="397pt"
 viewBox="0.00 0.00 393.50 397.25" xmlns="http://www.w3.org/2000/svg" xmlns:xlink="http://www.w3.org/1999/xlink">
<g id="graph0" class="graph" transform="scale(1 1) rotate(0) translate(4 393.25)">
<title>t_iop_pres_override_to_pack_override</title>
<!-- Node1 -->
<g id="Node000001" class="node">
<title>Node1</title>
<g id="a_Node000001"><a xlink:title=" ">
<polygon fill="#999999" stroke="#666666" points="100.75,-209.88 0,-209.88 0,-179.38 100.75,-179.38 100.75,-209.88"/>
<text text-anchor="start" x="8" y="-196.38" font-family="Helvetica,sans-Serif" font-size="10.00">t_iop_pres_override</text>
<text text-anchor="middle" x="50.38" y="-185.12" font-family="Helvetica,sans-Serif" font-size="10.00">_to_pack_override</text>
</a>
</g>
</g>
<!-- Node2 -->
<g id="Node000002" class="node">
<title>Node2</title>
<g id="a_Node000002"><a xlink:href="../../d7/d75/yaml_8c.html#a41e5a1bb410ff04623e98cb2c97f2e5a" target="_top" xlink:title=" ">
<polygon fill="white" stroke="#666666" points="236.75,-204.25 136.75,-204.25 136.75,-185 236.75,-185 236.75,-204.25"/>
<text text-anchor="middle" x="186.75" y="-190.75" font-family="Helvetica,sans-Serif" font-size="10.00">t_iop_data_to_yaml</text>
</a>
</g>
</g>
<!-- Node1&#45;&gt;Node2 -->
<g id="edge1_Node000001_Node000002" class="edge">
<title>Node1&#45;&gt;Node2</title>
<g id="a_edge1_Node000001_Node000002"><a xlink:title=" ">
<path fill="none" stroke="#63b8ff" d="M101.03,-194.62C108.86,-194.62 117.02,-194.62 125.06,-194.62"/>
<polygon fill="#63b8ff" stroke="#63b8ff" points="124.79,-198.13 134.79,-194.63 124.79,-191.13 124.79,-198.13"/>
</a>
</g>
</g>
<!-- Node2&#45;&gt;Node2 -->
<g id="edge2_Node000002_Node000002" class="edge">
<title>Node2&#45;&gt;Node2</title>
<g id="a_edge2_Node000002_Node000002"><a xlink:title=" ">
<path fill="none" stroke="#63b8ff" d="M165.4,-204.54C155.66,-213.15 162.78,-222.25 186.75,-222.25 199.86,-222.25 207.93,-219.53 210.96,-215.65"/>
<polygon fill="#63b8ff" stroke="#63b8ff" points="214.36,-214.82 208.48,-206 207.58,-216.56 214.36,-214.82"/>
</a>
</g>
</g>
<!-- Node3 -->
<g id="Node000003" class="node">
<title>Node3</title>
<g id="a_Node000003"><a xlink:href="../../d7/d75/yaml_8c.html#a0a4c32d916d5a27aa7210967c7697b44" target="_top" xlink:title=" ">
<polygon fill="white" stroke="#666666" points="384,-389.25 274.25,-389.25 274.25,-370 384,-370 384,-389.25"/>
<text text-anchor="middle" x="329.12" y="-375.75" font-family="Helvetica,sans-Serif" font-size="10.00">t_yaml_data_new_obj</text>
</a>
</g>
</g>
<!-- Node2&#45;&gt;Node3 -->
<g id="edge3_Node000002_Node000003" class="edge">
<title>Node2&#45;&gt;Node3</title>
<g id="a_edge3_Node000002_Node000003"><a xlink:title=" ">
<path fill="none" stroke="#63b8ff" d="M189.97,-204.56C196.89,-233.3 220.81,-317.24 272.75,-361.62 273.67,-362.41 274.63,-363.17 275.62,-363.89"/>
<polygon fill="#63b8ff" stroke="#63b8ff" points="273.47,-366.69 283.86,-368.76 277.03,-360.66 273.47,-366.69"/>
</a>
</g>
</g>
<!-- Node4 -->
<g id="Node000004" class="node">
<title>Node4</title>
<g id="a_Node000004"><a xlink:href="../../d7/d75/yaml_8c.html#a15a8ac31bd58a6b2de4404e464e9f5b9" target="_top" xlink:title=" ">
<polygon fill="white" stroke="#666666" points="385.5,-352.25 272.75,-352.25 272.75,-333 385.5,-333 385.5,-352.25"/>
<text text-anchor="middle" x="329.12" y="-338.75" font-family="Helvetica,sans-Serif" font-size="10.00">t_yaml_data_new_seq</text>
</a>
</g>
</g>
<!-- Node2&#45;&gt;Node4 -->
<g id="edge4_Node000002_Node000004" class="edge">
<title>Node2&#45;&gt;Node4</title>
<g id="a_edge4_Node000002_Node000004"><a xlink:title=" ">
<path fill="none" stroke="#63b8ff" d="M191.44,-204.4C201.02,-228.5 229.06,-291.2 272.75,-324.62 273.9,-325.51 275.1,-326.34 276.33,-327.14"/>
<polygon fill="#63b8ff" stroke="#63b8ff" points="274.54,-330.16 285.01,-331.79 277.85,-323.99 274.54,-330.16"/>
</a>
</g>
</g>
<!-- Node5 -->
<g id="Node000005" class="node">
<title>Node5</title>
<g id="a_Node000005"><a xlink:href="../../d7/d75/yaml_8c.html#a5d07efa89e02c9b202391ce932d2eb0d" target="_top" xlink:title=" ">
<polygon fill="white" stroke="#666666" points="380.25,-315.25 278,-315.25 278,-296 380.25,-296 380.25,-315.25"/>
<text text-anchor="middle" x="329.12" y="-301.75" font-family="Helvetica,sans-Serif" font-size="10.00">yaml_data_set_bool</text>
</a>
</g>
</g>
<!-- Node2&#45;&gt;Node5 -->
<g id="edge5_Node000002_Node000005" class="edge">
<title>Node2&#45;&gt;Node5</title>
<g id="a_edge5_Node000002_Node000005"><a xlink:title=" ">
<path fill="none" stroke="#63b8ff" d="M194.21,-204.6C206.97,-223.51 237.26,-264.76 272.75,-287.62 274.57,-288.8 276.47,-289.9 278.42,-290.93"/>
<polygon fill="#63b8ff" stroke="#63b8ff" points="276.62,-293.95 287.17,-294.93 279.53,-287.59 276.62,-293.95"/>
</a>
</g>
</g>
<!-- Node6 -->
<g id="Node000006" class="node">
<title>Node6</title>
<g id="a_Node000006"><a xlink:href="../../d7/d75/yaml_8c.html#a3ad7f78f12ad963baee971a80c4481e2" target="_top" xlink:title=" ">
<polygon fill="white" stroke="#666666" points="382.88,-278.25 275.38,-278.25 275.38,-259 382.88,-259 382.88,-278.25"/>
<text text-anchor="middle" x="329.12" y="-264.75" font-family="Helvetica,sans-Serif" font-size="10.00">yaml_data_set_bytes</text>
</a>
</g>
</g>
<!-- Node2&#45;&gt;Node6 -->
<g id="edge6_Node000002_Node000006" class="edge">
<title>Node2&#45;&gt;Node6</title>
<g id="a_edge6_Node000002_Node000006"><a xlink:title=" ">
<path fill="none" stroke="#63b8ff" d="M200.63,-204.71C216.74,-216.94 245.52,-237.52 272.75,-250.62 275.65,-252.02 278.69,-253.35 281.79,-254.6"/>
<polygon fill="#63b8ff" stroke="#63b8ff" points="280.41,-257.83 291,-258.05 282.86,-251.27 280.41,-257.83"/>
</a>
</g>
</g>
<!-- Node7 -->
<g id="Node000007" class="node">
<title>Node7</title>
<g id="a_Node000007"><a xlink:href="../../d7/d75/yaml_8c.html#aa707acafb7bb95771c909f7b4249c9ac" target="_top" xlink:title=" ">
<polygon fill="white" stroke="#666666" points="385.5,-241.25 272.75,-241.25 272.75,-222 385.5,-222 385.5,-241.25"/>
<text text-anchor="middle" x="329.12" y="-227.75" font-family="Helvetica,sans-Serif" font-size="10.00">yaml_data_set_double</text>
</a>
</g>
</g>
<!-- Node2&#45;&gt;Node7 -->
<g id="edge7_Node000002_Node000007" class="edge">
<title>Node2&#45;&gt;Node7</title>
<g id="a_edge7_Node000002_Node000007"><a xlink:title=" ">
<path fill="none" stroke="#63b8ff" d="M226.11,-204.74C242.36,-209.02 261.49,-214.06 278.77,-218.62"/>
<polygon fill="#63b8ff" stroke="#63b8ff" points="277.79,-221.98 288.35,-221.14 279.57,-215.21 277.79,-221.98"/>
</a>
</g>
</g>
<!-- Node8 -->
<g id="Node000008" class="node">
<title>Node8</title>
<g id="a_Node000008"><a xlink:href="../../d7/d75/yaml_8c.html#aef4417482114e9b791490b09ab313d63" target="_top" xlink:title=" ">
<polygon fill="white" stroke="#666666" points="376.5,-204.25 281.75,-204.25 281.75,-185 376.5,-185 376.5,-204.25"/>
<text text-anchor="middle" x="329.12" y="-190.75" font-family="Helvetica,sans-Serif" font-size="10.00">yaml_data_set_int</text>
</a>
</g>
</g>
<!-- Node2&#45;&gt;Node8 -->
<g id="edge8_Node000002_Node000008" class="edge">
<title>Node2&#45;&gt;Node8</title>
<g id="a_edge8_Node000002_Node000008"><a xlink:title=" ">
<path fill="none" stroke="#63b8ff" d="M237.24,-194.62C247.9,-194.62 259.27,-194.62 270.22,-194.62"/>
<polygon fill="#63b8ff" stroke="#63b8ff" points="269.92,-198.13 279.92,-194.63 269.92,-191.13 269.92,-198.13"/>
</a>
</g>
</g>
<!-- Node9 -->
<g id="Node000009" class="node">
<title>Node9</title>
<g id="a_Node000009"><a xlink:href="../../d7/d75/yaml_8c.html#aa4f177b0f853528a506b213339bfd7f1" target="_top" xlink:title=" ">
<polygon fill="white" stroke="#666666" points="378.75,-167.25 279.5,-167.25 279.5,-148 378.75,-148 378.75,-167.25"/>
<text text-anchor="middle" x="329.12" y="-153.75" font-family="Helvetica,sans-Serif" font-size="10.00">yaml_data_set_null</text>
</a>
</g>
</g>
<!-- Node2&#45;&gt;Node9 -->
<g id="edge9_Node000002_Node000009" class="edge">
<title>Node2&#45;&gt;Node9</title>
<g id="a_edge9_Node000002_Node000009"><a xlink:title=" ">
<path fill="none" stroke="#63b8ff" d="M226.11,-184.51C242.36,-180.23 261.49,-175.19 278.77,-170.63"/>
<polygon fill="#63b8ff" stroke="#63b8ff" points="279.57,-174.04 288.35,-168.11 277.79,-167.27 279.57,-174.04"/>
</a>
</g>
</g>
<!-- Node10 -->
<g id="Node000010" class="node">
<title>Node10</title>
<g id="a_Node000010"><a xlink:href="../../d7/d75/yaml_8c.html#afbeaf5eeff9328b6c36d28d526d4fa36" target="_top" xlink:title=" ">
<polygon fill="white" stroke="#666666" points="383.25,-130.25 275,-130.25 275,-111 383.25,-111 383.25,-130.25"/>
<text text-anchor="middle" x="329.12" y="-116.75" font-family="Helvetica,sans-Serif" font-size="10.00">yaml_data_set_string</text>
</a>
</g>
</g>
<!-- Node2&#45;&gt;Node10 -->
<g id="edge10_Node000002_Node000010" class="edge">
<title>Node2&#45;&gt;Node10</title>
<g id="a_edge10_Node000002_Node000010"><a xlink:title=" ">
<path fill="none" stroke="#63b8ff" d="M200.63,-184.54C216.74,-172.31 245.52,-151.73 272.75,-138.62 275.65,-137.23 278.69,-135.9 281.79,-134.65"/>
<polygon fill="#63b8ff" stroke="#63b8ff" points="282.86,-137.98 291,-131.2 280.41,-131.42 282.86,-137.98"/>
</a>
</g>
</g>
<!-- Node11 -->
<g id="Node000011" class="node">
<title>Node11</title>
<g id="a_Node000011"><a xlink:href="../../d7/d75/yaml_8c.html#a5060b708fe3852e446ba2a406a5d01b4" target="_top" xlink:title=" ">
<polygon fill="white" stroke="#666666" points="379.12,-93.25 279.12,-93.25 279.12,-74 379.12,-74 379.12,-93.25"/>
<text text-anchor="middle" x="329.12" y="-79.75" font-family="Helvetica,sans-Serif" font-size="10.00">yaml_data_set_uint</text>
</a>
</g>
</g>
<!-- Node2&#45;&gt;Node11 -->
<g id="edge11_Node000002_Node000011" class="edge">
<title>Node2&#45;&gt;Node11</title>
<g id="a_edge11_Node000002_Node000011"><a xlink:title=" ">
<path fill="none" stroke="#63b8ff" d="M194.21,-184.65C206.97,-165.74 237.26,-124.49 272.75,-101.62 274.57,-100.45 276.47,-99.35 278.42,-98.32"/>
<polygon fill="#63b8ff" stroke="#63b8ff" points="279.53,-101.66 287.17,-94.32 276.62,-95.3 279.53,-101.66"/>
</a>
</g>
</g>
<!-- Node12 -->
<g id="Node000012" class="node">
<title>Node12</title>
<g id="a_Node000012"><a xlink:href="../../d7/d75/yaml_8c.html#a94d40f88e451095d65b3379db2be312d" target="_top" xlink:title=" ">
<polygon fill="white" stroke="#666666" points="378,-56.25 280.25,-56.25 280.25,-37 378,-37 378,-56.25"/>
<text text-anchor="middle" x="329.12" y="-42.75" font-family="Helvetica,sans-Serif" font-size="10.00">yaml_obj_add_field</text>
</a>
</g>
</g>
<!-- Node2&#45;&gt;Node12 -->
<g id="edge12_Node000002_Node000012" class="edge">
<title>Node2&#45;&gt;Node12</title>
<g id="a_edge12_Node000002_Node000012"><a xlink:title=" ">
<path fill="none" stroke="#63b8ff" d="M191.44,-184.85C201.02,-160.75 229.06,-98.05 272.75,-64.62 273.9,-63.74 275.1,-62.91 276.33,-62.11"/>
<polygon fill="#63b8ff" stroke="#63b8ff" points="277.85,-65.26 285.01,-57.46 274.54,-59.09 277.85,-65.26"/>
</a>
</g>
</g>
<!-- Node13 -->
<g id="Node000013" class="node">
<title>Node13</title>
<g id="a_Node000013"><a xlink:href="../../d7/d75/yaml_8c.html#a3a05803625066020207509b0bc2987b6" target="_top" xlink:title=" ">
<polygon fill="white" stroke="#666666" points="380.25,-19.25 278,-19.25 278,0 380.25,0 380.25,-19.25"/>
<text text-anchor="middle" x="329.12" y="-5.75" font-family="Helvetica,sans-Serif" font-size="10.00">yaml_seq_add_data</text>
</a>
</g>
</g>
<!-- Node2&#45;&gt;Node13 -->
<g id="edge13_Node000002_Node000013" class="edge">
<title>Node2&#45;&gt;Node13</title>
<g id="a_edge13_Node000002_Node000013"><a xlink:title=" ">
<path fill="none" stroke="#63b8ff" d="M189.97,-184.69C196.89,-155.95 220.81,-72.01 272.75,-27.62 273.67,-26.84 274.63,-26.08 275.62,-25.36"/>
<polygon fill="#63b8ff" stroke="#63b8ff" points="277.03,-28.59 283.86,-20.49 273.47,-22.56 277.03,-28.59"/>
</a>
</g>
</g>
</g>
</svg>
