<?xml version="1.0" encoding="UTF-8" standalone="no"?>
<!DOCTYPE svg PUBLIC "-//W3C//DTD SVG 1.1//EN"
 "http://www.w3.org/Graphics/SVG/1.1/DTD/svg11.dtd">
<!-- Generated by graphviz version 9.0.0 (20230911.1827)
 -->
<!-- Title: yaml_pack_obj Pages: 1 -->
<!--zoomable 504 -->

<svg id="main" version="1.1" xmlns="http://www.w3.org/2000/svg" xmlns:xlink="http://www.w3.org/1999/xlink" xml:space="preserve" onload="init(evt)">
<style type="text/css"><![CDATA[
.node, .edge {opacity: 0.7;}
.node.selected, .edge.selected {opacity: 1;}
.edge:hover path { stroke: red; }
.edge:hover polygon { stroke: red; fill: red; }
]]></style>

<defs>
  <circle id="rim" cx="0" cy="0" r="7"/>
  <circle id="rim2" cx="0" cy="0" r="3.5"/>
  <g id="zoomPlus">
    <use xlink:href="#rim" fill="#404040"><set attributeName="fill" to="#808080" begin="zoomplus.mouseover" end="zoomplus.mouseout"/></use>
    <path d="M-4,0h8M0,-4v8" fill="none" stroke="white" stroke-width="1.5" pointer-events="none"/>
  </g>
  <g id="zoomMin">
    <use xlink:href="#rim" fill="#404040"><set attributeName="fill" to="#808080" begin="zoomminus.mouseover" end="zoomminus.mouseout"/></use>
    <path d="M-4,0h8" fill="none" stroke="white" stroke-width="1.5" pointer-events="none"/>
  </g>
  <g id="arrowUp" transform="translate(30 24)">
    <use xlink:href="#rim"/>
    <path pointer-events="none" fill="none" stroke="white" stroke-width="1.5" d="M0,-3.0v7 M-2.5,-0.5L0,-3.0L2.5,-0.5"/>
  </g>
  <g id="arrowRight" transform="rotate(90) translate(36 -43)">
    <use xlink:href="#rim"/>
    <path pointer-events="none" fill="none" stroke="white" stroke-width="1.5" d="M0,-3.0v7 M-2.5,-0.5L0,-3.0L2.5,-0.5"/>
  </g>
  <g id="arrowDown" transform="rotate(180) translate(-30 -48)">
    <use xlink:href="#rim"/>
    <path pointer-events="none" fill="none" stroke="white" stroke-width="1.5" d="M0,-3.0v7 M-2.5,-0.5L0,-3.0L2.5,-0.5"/>
  </g>
  <g id="arrowLeft" transform="rotate(270) translate(-36 17)">
    <use xlink:href="#rim"/>
    <path pointer-events="none" fill="none" stroke="white" stroke-width="1.5" d="M0,-3.0v7 M-2.5,-0.5L0,-3.0L2.5,-0.5"/>
  </g>
  <g id="resetDef">
    <use xlink:href="#rim2" fill="#404040"><set attributeName="fill" to="#808080" begin="reset.mouseover" end="reset.mouseout"/></use>
  </g>
</defs>
<script type="application/ecmascript">
var viewWidth = 1319;
var viewHeight = 504;
var sectionId = 'dynsection-248';
</script>
<script type="application/ecmascript" xlink:href="../../svg.min.js"/>
<svg id="graph" class="graph">
<g id="viewport">
<title>yaml_pack_obj</title>
<!-- Node1 -->
<g id="Node000001" class="node">
<title>Node1</title>
<g id="a_Node000001"><a xlink:title=" ">
<polygon fill="#999999" stroke="#666666" points="1311,-406.25 1230.5,-406.25 1230.5,-387 1311,-387 1311,-406.25"/>
<text text-anchor="middle" x="1270.75" y="-392.75" font-family="Helvetica,sans-Serif" font-size="10.00">yaml_pack_obj</text>
</a>
</g>
</g>
<!-- Node2 -->
<g id="Node000002" class="node">
<title>Node2</title>
<g id="a_Node000002"><a xlink:href="../../d7/d75/yaml_8c.html#a9dcacee7dbda0e21ab20587d5a582ad3" target="_top" xlink:title=" ">
<polygon fill="white" stroke="#666666" points="1194.5,-446.25 1099.75,-446.25 1099.75,-427 1194.5,-427 1194.5,-446.25"/>
<text text-anchor="middle" x="1147.12" y="-432.75" font-family="Helvetica,sans-Serif" font-size="10.00">t_yaml_pack_data</text>
</a>
</g>
</g>
<!-- Node1&#45;&gt;Node2 -->
<g id="edge1_Node000001_Node000002" class="edge">
<title>Node1&#45;&gt;Node2</title>
<g id="a_edge1_Node000001_Node000002"><a xlink:title=" ">
<path fill="none" stroke="#63b8ff" d="M1228.23,-410.28C1212.03,-415.61 1193.79,-421.61 1178.81,-426.53"/>
<polygon fill="#63b8ff" stroke="#63b8ff" points="1229.22,-413.64 1237.62,-407.19 1227.03,-406.99 1229.22,-413.64"/>
</a>
</g>
</g>
<!-- Node3 -->
<g id="Node000003" class="node">
<title>Node3</title>
<g id="a_Node000003"><a xlink:href="../../d7/d75/yaml_8c.html#ac8ae7baea8e62f79ddbec19d091cc2fe" target="_top" xlink:title="Pack a YAML data.">
<polygon fill="white" stroke="#666666" points="1040.12,-363.25 969.38,-363.25 969.38,-344 1040.12,-344 1040.12,-363.25"/>
<text text-anchor="middle" x="1004.75" y="-349.75" font-family="Helvetica,sans-Serif" font-size="10.00">t_yaml_pack</text>
</a>
</g>
</g>
<!-- Node2&#45;&gt;Node3 -->
<g id="edge2_Node000002_Node000003" class="edge">
<title>Node2&#45;&gt;Node3</title>
<g id="a_edge2_Node000002_Node000003"><a xlink:title=" ">
<path fill="none" stroke="#63b8ff" d="M1127.41,-419.01C1111.51,-404.84 1087.55,-385.27 1063.75,-372.62 1056.55,-368.8 1048.43,-365.55 1040.6,-362.89"/>
<polygon fill="#63b8ff" stroke="#63b8ff" points="1124.9,-421.46 1134.65,-425.62 1129.62,-416.29 1124.9,-421.46"/>
</a>
</g>
</g>
<!-- Node26 -->
<g id="Node000026" class="node">
<title>Node26</title>
<g id="a_Node000026"><a xlink:href="../../d7/d75/yaml_8c.html#ab3bcf4520680286d0b500dd29308132b" target="_top" xlink:title=" ">
<polygon fill="white" stroke="#666666" points="289.25,-496.25 153.25,-496.25 153.25,-477 289.25,-477 289.25,-496.25"/>
<text text-anchor="middle" x="221.25" y="-482.75" font-family="Helvetica,sans-Serif" font-size="10.00">t_yaml_pack_included_data</text>
</a>
</g>
</g>
<!-- Node2&#45;&gt;Node26 -->
<g id="edge46_Node000002_Node000026" class="edge">
<title>Node2&#45;&gt;Node26</title>
<g id="a_edge46_Node000002_Node000026"><a xlink:title=" ">
<path fill="none" stroke="#63b8ff" d="M1088.3,-444.2C1080.1,-446.14 1071.74,-448.05 1063.75,-449.62 967.74,-468.51 943.23,-477.62 845.38,-477.62 845.38,-477.62 845.38,-477.62 543.25,-477.62 455.62,-477.62 354.52,-477.62 289.57,-479.71"/>
<polygon fill="#63b8ff" stroke="#63b8ff" points="1088.95,-447.64 1097.86,-441.91 1087.32,-440.83 1088.95,-447.64"/>
</a>
</g>
</g>
<!-- Node32 -->
<g id="Node000032" class="node">
<title>Node32</title>
<g id="a_Node000032"><a xlink:href="../../d7/d75/yaml_8c.html#af68e2851c9e6821104cbe18b90be9078" target="_top" xlink:title=" ">
<polygon fill="white" stroke="#666666" points="1063.75,-411.88 945.75,-411.88 945.75,-381.38 1063.75,-381.38 1063.75,-411.88"/>
<text text-anchor="start" x="953.75" y="-398.38" font-family="Helvetica,sans-Serif" font-size="10.00">t_yaml_pack_data_with</text>
<text text-anchor="middle" x="1004.75" y="-387.12" font-family="Helvetica,sans-Serif" font-size="10.00">_doc_pres</text>
</a>
</g>
</g>
<!-- Node2&#45;&gt;Node32 -->
<g id="edge42_Node000002_Node000032" class="edge">
<title>Node2&#45;&gt;Node32</title>
<g id="a_edge42_Node000002_Node000032"><a xlink:title=" ">
<path fill="none" stroke="#63b8ff" d="M1099.66,-423.38C1087.23,-419.84 1073.68,-415.98 1060.84,-412.32"/>
<polygon fill="#63b8ff" stroke="#63b8ff" points="1098.67,-426.74 1109.25,-426.12 1100.59,-420.01 1098.67,-426.74"/>
</a>
</g>
</g>
<!-- Node34 -->
<g id="Node000034" class="node">
<title>Node34</title>
<g id="a_Node000034"><a xlink:href="../../d7/d75/yaml_8c.html#a5bd8abfb3677c057f59e4ad050a0d8dc" target="_top" xlink:title=" ">
<polygon fill="white" stroke="#666666" points="1062.25,-326.25 947.25,-326.25 947.25,-307 1062.25,-307 1062.25,-326.25"/>
<text text-anchor="middle" x="1004.75" y="-312.75" font-family="Helvetica,sans-Serif" font-size="10.00">t_yaml_pack_key_data</text>
</a>
</g>
</g>
<!-- Node2&#45;&gt;Node34 -->
<g id="edge47_Node000002_Node000034" class="edge">
<title>Node2&#45;&gt;Node34</title>
<g id="a_edge47_Node000002_Node000034"><a xlink:title=" ">
<path fill="none" stroke="#63b8ff" d="M1135.13,-416.86C1121.35,-393.85 1095.62,-356.25 1063.75,-334.62 1059.13,-331.49 1053.93,-328.88 1048.6,-326.71"/>
<polygon fill="#63b8ff" stroke="#63b8ff" points="1131.96,-418.36 1140,-425.26 1138.01,-414.85 1131.96,-418.36"/>
</a>
</g>
</g>
<!-- Node35 -->
<g id="Node000035" class="node">
<title>Node35</title>
<g id="a_Node000035"><a xlink:href="../../d7/d75/yaml_8c.html#a7d648921e62db8360bbcdc9950aaf877" target="_top" xlink:title=" ">
<polygon fill="white" stroke="#666666" points="1050.62,-449.25 958.88,-449.25 958.88,-430 1050.62,-430 1050.62,-449.25"/>
<text text-anchor="middle" x="1004.75" y="-435.75" font-family="Helvetica,sans-Serif" font-size="10.00">t_yaml_pack_seq</text>
</a>
</g>
</g>
<!-- Node2&#45;&gt;Node35 -->
<g id="edge49_Node000002_Node000035" class="edge">
<title>Node2&#45;&gt;Node35</title>
<g id="a_edge49_Node000002_Node000035"><a xlink:title=" ">
<path fill="none" stroke="#63b8ff" d="M1088.15,-431.21C1075.7,-431.28 1062.73,-431.66 1050.86,-432.31"/>
<polygon fill="#63b8ff" stroke="#63b8ff" points="1087.86,-434.71 1097.87,-431.22 1087.87,-427.71 1087.86,-434.71"/>
</a>
</g>
</g>
<!-- Node4 -->
<g id="Node000004" class="node">
<title>Node4</title>
<g id="a_Node000004"><a xlink:href="../../d1/d4c/dso2openapi_8c.html#aba0cf3ee6228ea7000bdb4b21e1177ab" target="_top" xlink:title=" ">
<polygon fill="white" stroke="#666666" points="890.62,-406.25 798.12,-406.25 798.12,-387 890.62,-387 890.62,-406.25"/>
<text text-anchor="middle" x="844.38" y="-392.75" font-family="Helvetica,sans-Serif" font-size="10.00">generate_openapi</text>
</a>
</g>
</g>
<!-- Node3&#45;&gt;Node4 -->
<g id="edge3_Node000003_Node000004" class="edge">
<title>Node3&#45;&gt;Node4</title>
<g id="a_edge3_Node000003_Node000004"><a xlink:title=" ">
<path fill="none" stroke="#63b8ff" d="M958.03,-366.04C934.07,-372.54 905.1,-380.41 882.53,-386.54"/>
<polygon fill="#63b8ff" stroke="#63b8ff" points="958.8,-369.46 967.53,-363.46 956.97,-362.7 958.8,-369.46"/>
</a>
</g>
</g>
<!-- Node6 -->
<g id="Node000006" class="node">
<title>Node6</title>
<g id="a_Node000006"><a xlink:href="../../d0/db3/yamlfmt_8c.html#a7343724d211567ecf33f6f5e828480d1" target="_top" xlink:title=" ">
<polygon fill="white" stroke="#666666" points="720.88,-55.25 658.38,-55.25 658.38,-36 720.88,-36 720.88,-55.25"/>
<text text-anchor="middle" x="689.62" y="-41.75" font-family="Helvetica,sans-Serif" font-size="10.00">pack_yaml</text>
</a>
</g>
</g>
<!-- Node3&#45;&gt;Node6 -->
<g id="edge5_Node000003_Node000006" class="edge">
<title>Node3&#45;&gt;Node6</title>
<g id="a_edge5_Node000003_Node000006"><a xlink:title=" ">
<path fill="none" stroke="#63b8ff" d="M958.59,-345.26C953.75,-342.82 949.3,-339.67 945.75,-335.62 884.1,-265.48 968.88,-200.9 909.75,-128.62 862.23,-70.53 769.39,-53.06 721.24,-47.84"/>
<polygon fill="#63b8ff" stroke="#63b8ff" points="956.92,-348.36 967.5,-348.81 959.5,-341.86 956.92,-348.36"/>
</a>
</g>
</g>
<!-- Node11 -->
<g id="Node000011" class="node">
<title>Node11</title>
<g id="a_Node000011"><a xlink:href="../../d7/d75/yaml_8c.html#a1c9772584bce55e6ab8dec4edd09c469" target="_top" xlink:title="Pack a YAML data into a YAML file.">
<polygon fill="white" stroke="#666666" points="888.38,-157.25 800.38,-157.25 800.38,-138 888.38,-138 888.38,-157.25"/>
<text text-anchor="middle" x="844.38" y="-143.75" font-family="Helvetica,sans-Serif" font-size="10.00">t_yaml_pack_file</text>
</a>
</g>
</g>
<!-- Node3&#45;&gt;Node11 -->
<g id="edge11_Node000003_Node000011" class="edge">
<title>Node3&#45;&gt;Node11</title>
<g id="a_edge11_Node000003_Node000011"><a xlink:title=" ">
<path fill="none" stroke="#63b8ff" d="M958.65,-343.59C954.02,-341.43 949.6,-338.81 945.75,-335.62 937.92,-329.16 869.73,-195.57 850.44,-157.61"/>
<polygon fill="#63b8ff" stroke="#63b8ff" points="957.03,-346.71 967.62,-347.07 959.56,-340.19 957.03,-346.71"/>
</a>
</g>
</g>
<!-- Node17 -->
<g id="Node000017" class="node">
<title>Node17</title>
<g id="a_Node000017"><a xlink:href="../../d7/d75/yaml_8c.html#a213bfbda2a14dede25e9039b769c7592" target="_top" xlink:title="Pack a YAML data into a YAML string.">
<polygon fill="white" stroke="#666666" points="887.62,-303.25 801.12,-303.25 801.12,-284 887.62,-284 887.62,-303.25"/>
<text text-anchor="middle" x="844.38" y="-289.75" font-family="Helvetica,sans-Serif" font-size="10.00">t_yaml_pack_sb</text>
</a>
</g>
</g>
<!-- Node3&#45;&gt;Node17 -->
<g id="edge20_Node000003_Node000017" class="edge">
<title>Node3&#45;&gt;Node17</title>
<g id="a_edge20_Node000003_Node000017"><a xlink:title=" ">
<path fill="none" stroke="#63b8ff" d="M958.51,-340.05C954.18,-338.61 949.87,-337.12 945.75,-335.62 918.41,-325.69 887.64,-312.51 867.46,-303.58"/>
<polygon fill="#63b8ff" stroke="#63b8ff" points="957.19,-343.3 967.78,-343.04 959.34,-336.63 957.19,-343.3"/>
</a>
</g>
</g>
<!-- Node23 -->
<g id="Node000023" class="node">
<title>Node23</title>
<g id="a_Node000023"><a xlink:href="../../d7/d75/yaml_8c.html#a3c089ca7c97dc89b9104a15a8da5ae6d" target="_top" xlink:title=" ">
<polygon fill="white" stroke="#666666" points="741.5,-370.88 637.75,-370.88 637.75,-340.38 741.5,-340.38 741.5,-370.88"/>
<text text-anchor="start" x="645.75" y="-357.38" font-family="Helvetica,sans-Serif" font-size="10.00">t_yaml_pack_subfile</text>
<text text-anchor="middle" x="689.62" y="-346.12" font-family="Helvetica,sans-Serif" font-size="10.00">_in_sb</text>
</a>
</g>
</g>
<!-- Node3&#45;&gt;Node23 -->
<g id="edge41_Node000003_Node000023" class="edge">
<title>Node3&#45;&gt;Node23</title>
<g id="a_edge41_Node000003_Node000023"><a xlink:title=" ">
<path fill="none" stroke="#63b8ff" d="M957.74,-353.92C900.13,-354.29 801.73,-354.92 741.8,-355.3"/>
<polygon fill="#63b8ff" stroke="#63b8ff" points="957.55,-357.42 967.53,-353.86 957.51,-350.42 957.55,-357.42"/>
</a>
</g>
</g>
<!-- Node5 -->
<g id="Node000005" class="node">
<title>Node5</title>
<g id="a_Node000005"><a xlink:href="../../d1/d4c/dso2openapi_8c.html#a3c04138a5bfe5d72780bb7e82a18e627" target="_top" xlink:title=" ">
<polygon fill="white" stroke="#666666" points="708.12,-408.25 671.12,-408.25 671.12,-389 708.12,-389 708.12,-408.25"/>
<text text-anchor="middle" x="689.62" y="-394.75" font-family="Helvetica,sans-Serif" font-size="10.00">main</text>
</a>
</g>
</g>
<!-- Node4&#45;&gt;Node5 -->
<g id="edge4_Node000004_Node000005" class="edge">
<title>Node4&#45;&gt;Node5</title>
<g id="a_edge4_Node000004_Node000005"><a xlink:title=" ">
<path fill="none" stroke="#63b8ff" d="M786.74,-397.37C758.97,-397.73 727.46,-398.14 708.32,-398.39"/>
<polygon fill="#63b8ff" stroke="#63b8ff" points="786.49,-400.87 796.45,-397.24 786.4,-393.87 786.49,-400.87"/>
</a>
</g>
</g>
<!-- Node7 -->
<g id="Node000007" class="node">
<title>Node7</title>
<g id="a_Node000007"><a xlink:href="../../d0/db3/yamlfmt_8c.html#a76d7bf42b8fd8e804c9884cfef7b25f1" target="_top" xlink:title=" ">
<polygon fill="white" stroke="#666666" points="578.5,-56.25 510,-56.25 510,-37 578.5,-37 578.5,-56.25"/>
<text text-anchor="middle" x="544.25" y="-42.75" font-family="Helvetica,sans-Serif" font-size="10.00">repack_json</text>
</a>
</g>
</g>
<!-- Node6&#45;&gt;Node7 -->
<g id="edge6_Node000006_Node000007" class="edge">
<title>Node6&#45;&gt;Node7</title>
<g id="a_edge6_Node000006_Node000007"><a xlink:title=" ">
<path fill="none" stroke="#63b8ff" d="M646.73,-45.92C625.13,-46.07 599.14,-46.25 578.87,-46.39"/>
<polygon fill="#63b8ff" stroke="#63b8ff" points="646.73,-49.42 656.71,-45.85 646.68,-42.42 646.73,-49.42"/>
</a>
</g>
</g>
<!-- Node10 -->
<g id="Node000010" class="node">
<title>Node10</title>
<g id="a_Node000010"><a xlink:href="../../d0/db3/yamlfmt_8c.html#a01a1b12a8fa6a4f4723af67f961ad16e" target="_top" xlink:title=" ">
<polygon fill="white" stroke="#666666" points="579.62,-19.25 508.88,-19.25 508.88,0 579.62,0 579.62,-19.25"/>
<text text-anchor="middle" x="544.25" y="-5.75" font-family="Helvetica,sans-Serif" font-size="10.00">repack_yaml</text>
</a>
</g>
</g>
<!-- Node6&#45;&gt;Node10 -->
<g id="edge9_Node000006_Node000010" class="edge">
<title>Node6&#45;&gt;Node10</title>
<g id="a_edge9_Node000006_Node000010"><a xlink:title=" ">
<path fill="none" stroke="#63b8ff" d="M647.2,-35.22C625.87,-29.87 600.16,-23.41 579.89,-18.32"/>
<polygon fill="#63b8ff" stroke="#63b8ff" points="646.2,-38.58 656.75,-37.62 647.9,-31.79 646.2,-38.58"/>
</a>
</g>
</g>
<!-- Node8 -->
<g id="Node000008" class="node">
<title>Node8</title>
<g id="a_Node000008"><a xlink:href="../../d0/db3/yamlfmt_8c.html#a319ce4795581b3860dea4b4ab5fee1fd" target="_top" xlink:title=" ">
<polygon fill="white" stroke="#666666" points="436.5,-24.25 341,-24.25 341,-5 436.5,-5 436.5,-24.25"/>
<text text-anchor="middle" x="388.75" y="-10.75" font-family="Helvetica,sans-Serif" font-size="10.00">parse_and_repack</text>
</a>
</g>
</g>
<!-- Node7&#45;&gt;Node8 -->
<g id="edge7_Node000007_Node000008" class="edge">
<title>Node7&#45;&gt;Node8</title>
<g id="a_edge7_Node000007_Node000008"><a xlink:title=" ">
<path fill="none" stroke="#63b8ff" d="M498.3,-37.25C478.95,-33.22 456.32,-28.5 436.75,-24.42"/>
<polygon fill="#63b8ff" stroke="#63b8ff" points="497.58,-40.68 508.08,-39.29 499.01,-33.83 497.58,-40.68"/>
</a>
</g>
</g>
<!-- Node9 -->
<g id="Node000009" class="node">
<title>Node9</title>
<g id="a_Node000009"><a xlink:href="../../d0/db3/yamlfmt_8c.html#a3c04138a5bfe5d72780bb7e82a18e627" target="_top" xlink:title=" ">
<polygon fill="white" stroke="#666666" points="239.75,-24.25 202.75,-24.25 202.75,-5 239.75,-5 239.75,-24.25"/>
<text text-anchor="middle" x="221.25" y="-10.75" font-family="Helvetica,sans-Serif" font-size="10.00">main</text>
</a>
</g>
</g>
<!-- Node8&#45;&gt;Node9 -->
<g id="edge8_Node000008_Node000009" class="edge">
<title>Node8&#45;&gt;Node9</title>
<g id="a_edge8_Node000008_Node000009"><a xlink:title=" ">
<path fill="none" stroke="#63b8ff" d="M329.42,-14.62C297.87,-14.62 261.12,-14.62 239.88,-14.62"/>
<polygon fill="#63b8ff" stroke="#63b8ff" points="329.25,-18.13 339.25,-14.63 329.25,-11.13 329.25,-18.13"/>
</a>
</g>
</g>
<!-- Node10&#45;&gt;Node8 -->
<g id="edge10_Node000010_Node000008" class="edge">
<title>Node10&#45;&gt;Node8</title>
<g id="a_edge10_Node000010_Node000008"><a xlink:title=" ">
<path fill="none" stroke="#63b8ff" d="M497.03,-11.13C478.03,-11.75 456.05,-12.47 436.95,-13.09"/>
<polygon fill="#63b8ff" stroke="#63b8ff" points="497.03,-14.63 506.91,-10.81 496.8,-7.64 497.03,-14.63"/>
</a>
</g>
</g>
<!-- Node11&#45;&gt;Node6 -->
<g id="edge19_Node000011_Node000006" class="edge">
<title>Node11&#45;&gt;Node6</title>
<g id="a_edge19_Node000011_Node000006"><a xlink:title=" ">
<path fill="none" stroke="#63b8ff" d="M826.08,-129.69C807.19,-110.97 775.29,-81.85 743,-63.62 736.3,-59.84 728.68,-56.67 721.35,-54.09"/>
<polygon fill="#63b8ff" stroke="#63b8ff" points="823.45,-131.99 832.97,-136.64 828.42,-127.07 823.45,-131.99"/>
</a>
</g>
</g>
<!-- Node12 -->
<g id="Node000012" class="node">
<title>Node12</title>
<g id="a_Node000012"><a xlink:href="../../d7/d75/yaml_8c.html#a4a0e4cf2453e4a8eec405d775e675e8d" target="_top" xlink:title=" ">
<polygon fill="white" stroke="#666666" points="737,-178.25 642.25,-178.25 642.25,-159 737,-159 737,-178.25"/>
<text text-anchor="middle" x="689.62" y="-164.75" font-family="Helvetica,sans-Serif" font-size="10.00">_z_pack_yaml_file</text>
</a>
</g>
</g>
<!-- Node11&#45;&gt;Node12 -->
<g id="edge12_Node000011_Node000012" class="edge">
<title>Node11&#45;&gt;Node12</title>
<g id="a_edge12_Node000011_Node000012"><a xlink:title=" ">
<path fill="none" stroke="#63b8ff" d="M788.66,-155.15C771.86,-157.46 753.52,-159.98 737.3,-162.21"/>
<polygon fill="#63b8ff" stroke="#63b8ff" points="789.08,-158.62 798.51,-153.79 788.13,-151.69 789.08,-158.62"/>
</a>
</g>
</g>
<!-- Node16 -->
<g id="Node000016" class="node">
<title>Node16</title>
<g id="a_Node000016"><a xlink:href="../../d1/d3c/yaml_8blk.html#acd579461d24b0e6c8875cad943350a38" target="_top" xlink:title=" ">
<polygon fill="white" stroke="#666666" points="728,-92.25 651.25,-92.25 651.25,-73 728,-73 728,-92.25"/>
<text text-anchor="middle" x="689.62" y="-78.75" font-family="Helvetica,sans-Serif" font-size="10.00">iop_ypack_file</text>
</a>
</g>
</g>
<!-- Node11&#45;&gt;Node16 -->
<g id="edge18_Node000011_Node000016" class="edge">
<title>Node11&#45;&gt;Node16</title>
<g id="a_edge18_Node000011_Node000016"><a xlink:title=" ">
<path fill="none" stroke="#63b8ff" d="M812.6,-132.73C792.89,-123.39 766.65,-111.31 743,-101.62 735.48,-98.54 727.26,-95.44 719.6,-92.66"/>
<polygon fill="#63b8ff" stroke="#63b8ff" points="810.93,-135.81 821.46,-136.96 813.95,-129.49 810.93,-135.81"/>
</a>
</g>
</g>
<!-- Node13 -->
<g id="Node000013" class="node">
<title>Node13</title>
<g id="a_Node000013"><a xlink:href="../../d7/d75/yaml_8c.html#a2be1013d3960ec4bf93f75c523263c2a" target="_top" xlink:title=" ">
<polygon fill="white" stroke="#666666" points="275.38,-233.25 167.12,-233.25 167.12,-214 275.38,-214 275.38,-233.25"/>
<text text-anchor="middle" x="221.25" y="-219.75" font-family="Helvetica,sans-Serif" font-size="10.00">Z_GROUP_EXPORT</text>
</a>
</g>
</g>
<!-- Node12&#45;&gt;Node13 -->
<g id="edge13_Node000012_Node000013" class="edge">
<title>Node12&#45;&gt;Node13</title>
<g id="a_edge13_Node000012_Node000013"><a xlink:title=" ">
<path fill="none" stroke="#63b8ff" d="M630.59,-172.88C590.55,-175.98 536.12,-180.51 488.25,-185.62 415.62,-193.38 397.52,-196.01 325.25,-206.62 309.11,-209 291.59,-211.8 275.65,-214.44"/>
<polygon fill="#63b8ff" stroke="#63b8ff" points="630.8,-176.37 640.5,-172.12 630.26,-169.39 630.8,-176.37"/>
</a>
</g>
</g>
<!-- Node14 -->
<g id="Node000014" class="node">
<title>Node14</title>
<g id="a_Node000014"><a xlink:href="../../d7/d75/yaml_8c.html#a4336d225f9b5138d5237d8d0eb592ac8" target="_top" xlink:title=" ">
<polygon fill="white" stroke="#666666" points="589,-138.25 499.5,-138.25 499.5,-119 589,-119 589,-138.25"/>
<text text-anchor="middle" x="544.25" y="-124.75" font-family="Helvetica,sans-Serif" font-size="10.00">z_pack_yaml_file</text>
</a>
</g>
</g>
<!-- Node12&#45;&gt;Node14 -->
<g id="edge14_Node000012_Node000014" class="edge">
<title>Node12&#45;&gt;Node14</title>
<g id="a_edge14_Node000012_Node000014"><a xlink:title=" ">
<path fill="none" stroke="#63b8ff" d="M641.6,-155.51C622.03,-150.05 599.67,-143.81 581.42,-138.72"/>
<polygon fill="#63b8ff" stroke="#63b8ff" points="640.41,-158.81 650.99,-158.12 642.3,-152.07 640.41,-158.81"/>
</a>
</g>
</g>
<!-- Node14&#45;&gt;Node13 -->
<g id="edge15_Node000014_Node000013" class="edge">
<title>Node14&#45;&gt;Node13</title>
<g id="a_edge15_Node000014_Node000013"><a xlink:title=" ">
<path fill="none" stroke="#63b8ff" d="M487.88,-127.33C442.76,-128 378.1,-132.94 325.25,-152.62 287.6,-166.65 250.57,-197.48 232.93,-213.51"/>
<polygon fill="#63b8ff" stroke="#63b8ff" points="487.71,-130.83 497.69,-127.26 487.66,-123.83 487.71,-130.83"/>
</a>
</g>
</g>
<!-- Node15 -->
<g id="Node000015" class="node">
<title>Node15</title>
<g id="a_Node000015"><a xlink:href="../../d7/d75/yaml_8c.html#a543003c695147a4cb539c7a9055d0348" target="_top" xlink:title=" ">
<polygon fill="white" stroke="#666666" points="452.25,-100.25 325.25,-100.25 325.25,-81 452.25,-81 452.25,-100.25"/>
<text text-anchor="middle" x="388.75" y="-86.75" font-family="Helvetica,sans-Serif" font-size="10.00">z_test_var_in_str_change</text>
</a>
</g>
</g>
<!-- Node14&#45;&gt;Node15 -->
<g id="edge16_Node000014_Node000015" class="edge">
<title>Node14&#45;&gt;Node15</title>
<g id="a_edge16_Node000014_Node000015"><a xlink:title=" ">
<path fill="none" stroke="#63b8ff" d="M491.45,-115.8C471.54,-110.87 449.12,-105.32 430.41,-100.69"/>
<polygon fill="#63b8ff" stroke="#63b8ff" points="490.5,-119.17 501.05,-118.18 492.18,-112.38 490.5,-119.17"/>
</a>
</g>
</g>
<!-- Node15&#45;&gt;Node13 -->
<g id="edge17_Node000015_Node000013" class="edge">
<title>Node15&#45;&gt;Node13</title>
<g id="a_edge17_Node000015_Node000013"><a xlink:title=" ">
<path fill="none" stroke="#63b8ff" d="M342.94,-104.99C336.77,-107.77 330.69,-110.98 325.25,-114.62 282.42,-143.31 244.23,-192.83 229.12,-213.79"/>
<polygon fill="#63b8ff" stroke="#63b8ff" points="344,-108.34 351.91,-101.29 341.33,-101.87 344,-108.34"/>
</a>
</g>
</g>
<!-- Node18 -->
<g id="Node000018" class="node">
<title>Node18</title>
<g id="a_Node000018"><a xlink:href="../../d1/d3c/yaml_8blk.html#a609f08147c51eae9615cee5bd3d4b9be" target="_top" xlink:title="Convert an IOP C structure to IOP&#45;YAML.">
<polygon fill="white" stroke="#666666" points="743,-140.88 636.25,-140.88 636.25,-110.38 743,-110.38 743,-140.88"/>
<text text-anchor="start" x="644.25" y="-127.38" font-family="Helvetica,sans-Serif" font-size="10.00">t_iop_sb_ypack_with</text>
<text text-anchor="middle" x="689.62" y="-116.12" font-family="Helvetica,sans-Serif" font-size="10.00">_flags</text>
</a>
</g>
</g>
<!-- Node17&#45;&gt;Node18 -->
<g id="edge21_Node000017_Node000018" class="edge">
<title>Node17&#45;&gt;Node18</title>
<g id="a_edge21_Node000017_Node000018"><a xlink:title=" ">
<path fill="none" stroke="#63b8ff" d="M833.68,-273.29C818.26,-242.82 785.52,-185.14 743,-149.62 739.32,-146.55 735.17,-143.78 730.87,-141.31"/>
<polygon fill="#63b8ff" stroke="#63b8ff" points="830.49,-274.74 838.05,-282.17 836.77,-271.65 830.49,-274.74"/>
</a>
</g>
</g>
<!-- Node17&#45;&gt;Node23 -->
<g id="edge26_Node000017_Node000023" class="edge">
<title>Node17&#45;&gt;Node23</title>
<g id="a_edge26_Node000017_Node000023"><a xlink:title=" ">
<path fill="none" stroke="#63b8ff" d="M807.91,-308.02C784.35,-317.58 753.42,-330.14 729.24,-339.95"/>
<polygon fill="#63b8ff" stroke="#63b8ff" points="809.14,-311.3 817.09,-304.29 806.51,-304.81 809.14,-311.3"/>
</a>
</g>
</g>
<!-- Node27 -->
<g id="Node000027" class="node">
<title>Node27</title>
<g id="a_Node000027"><a xlink:href="../../d7/d75/yaml_8c.html#a81fd5b86e156c36e53344f2baf159324" target="_top" xlink:title=" ">
<polygon fill="white" stroke="#666666" points="596.12,-214.25 492.38,-214.25 492.38,-195 596.12,-195 596.12,-214.25"/>
<text text-anchor="middle" x="544.25" y="-200.75" font-family="Helvetica,sans-Serif" font-size="10.00">z_check_yaml_pack</text>
</a>
</g>
</g>
<!-- Node17&#45;&gt;Node27 -->
<g id="edge31_Node000017_Node000027" class="edge">
<title>Node17&#45;&gt;Node27</title>
<g id="a_edge31_Node000017_Node000027"><a xlink:title=" ">
<path fill="none" stroke="#63b8ff" d="M808.66,-279.41C789.48,-271.83 765.12,-262.64 743,-255.62 691.12,-239.17 630.36,-224.11 590.02,-214.69"/>
<polygon fill="#63b8ff" stroke="#63b8ff" points="807.31,-282.64 817.89,-283.1 809.9,-276.14 807.31,-282.64"/>
</a>
</g>
</g>
<!-- Node28 -->
<g id="Node000028" class="node">
<title>Node28</title>
<g id="a_Node000028"><a xlink:href="../../d7/d75/yaml_8c.html#ab84d8d8c5ab36b236bb9af0366a6c1c6" target="_top" xlink:title=" ">
<polygon fill="white" stroke="#666666" points="450.75,-387.88 326.75,-387.88 326.75,-357.38 450.75,-357.38 450.75,-387.88"/>
<text text-anchor="start" x="334.75" y="-374.38" font-family="Helvetica,sans-Serif" font-size="10.00">z_pack_yaml_in_sb_with</text>
<text text-anchor="middle" x="388.75" y="-363.12" font-family="Helvetica,sans-Serif" font-size="10.00">_subfiles</text>
</a>
</g>
</g>
<!-- Node17&#45;&gt;Node28 -->
<g id="edge33_Node000017_Node000028" class="edge">
<title>Node17&#45;&gt;Node28</title>
<g id="a_edge33_Node000017_Node000028"><a xlink:title=" ">
<path fill="none" stroke="#63b8ff" d="M789.52,-303C704.73,-317.77 540.56,-346.36 451.25,-361.91"/>
<polygon fill="#63b8ff" stroke="#63b8ff" points="789.96,-306.48 799.21,-301.32 788.76,-299.58 789.96,-306.48"/>
</a>
</g>
</g>
<!-- Node29 -->
<g id="Node000029" class="node">
<title>Node29</title>
<g id="a_Node000029"><a xlink:href="../../d7/d75/yaml_8c.html#a645a8a8d785441f5cf3414dbd80855aa" target="_top" xlink:title=" ">
<polygon fill="white" stroke="#666666" points="736.62,-284.25 642.62,-284.25 642.62,-265 736.62,-265 736.62,-284.25"/>
<text text-anchor="middle" x="689.62" y="-270.75" font-family="Helvetica,sans-Serif" font-size="10.00">z_yaml_test_pack</text>
</a>
</g>
</g>
<!-- Node17&#45;&gt;Node29 -->
<g id="edge35_Node000017_Node000029" class="edge">
<title>Node17&#45;&gt;Node29</title>
<g id="a_edge35_Node000017_Node000029"><a xlink:title=" ">
<path fill="none" stroke="#63b8ff" d="M789.79,-286.96C772.56,-284.82 753.63,-282.46 736.96,-280.39"/>
<polygon fill="#63b8ff" stroke="#63b8ff" points="788.97,-290.38 799.32,-288.15 789.83,-283.44 788.97,-290.38"/>
</a>
</g>
</g>
<!-- Node19 -->
<g id="Node000019" class="node">
<title>Node19</title>
<g id="a_Node000019"><a xlink:href="../../d1/d3c/yaml_8blk.html#ae31e02881befa8163a8fbbfbb7335d5e" target="_top" xlink:title="Pack an IOP C structure to IOP&#45;YAML in a sb_t.">
<polygon fill="white" stroke="#666666" points="586,-97.25 502.5,-97.25 502.5,-78 586,-78 586,-97.25"/>
<text text-anchor="middle" x="544.25" y="-83.75" font-family="Helvetica,sans-Serif" font-size="10.00">t_iop_sb_ypack</text>
</a>
</g>
</g>
<!-- Node18&#45;&gt;Node19 -->
<g id="edge22_Node000018_Node000019" class="edge">
<title>Node18&#45;&gt;Node19</title>
<g id="a_edge22_Node000018_Node000019"><a xlink:title=" ">
<path fill="none" stroke="#63b8ff" d="M625.27,-108.83C611.01,-105.05 596.3,-101.16 583.45,-97.75"/>
<polygon fill="#63b8ff" stroke="#63b8ff" points="624.03,-112.12 634.59,-111.3 625.82,-105.36 624.03,-112.12"/>
</a>
</g>
</g>
<!-- Node20 -->
<g id="Node000020" class="node">
<title>Node20</title>
<g id="a_Node000020"><a xlink:href="../../dc/df9/z_8blk.html#a4c113a39e4b20e3729dbfa3a1b1a5f67" target="_top" xlink:title=" ">
<polygon fill="white" stroke="#666666" points="417,-63.25 360.5,-63.25 360.5,-44 417,-44 417,-63.25"/>
<text text-anchor="middle" x="388.75" y="-49.75" font-family="Helvetica,sans-Serif" font-size="10.00">z_iop_diff</text>
</a>
</g>
</g>
<!-- Node19&#45;&gt;Node20 -->
<g id="edge23_Node000019_Node000020" class="edge">
<title>Node19&#45;&gt;Node20</title>
<g id="a_edge23_Node000019_Node000020"><a xlink:title=" ">
<path fill="none" stroke="#63b8ff" d="M491.08,-76.07C466.38,-70.6 437.89,-64.29 417.42,-59.75"/>
<polygon fill="#63b8ff" stroke="#63b8ff" points="490.12,-79.44 500.64,-78.19 491.63,-72.61 490.12,-79.44"/>
</a>
</g>
</g>
<!-- Node21 -->
<g id="Node000021" class="node">
<title>Node21</title>
<g id="a_Node000021"><a xlink:href="../../dc/df9/z_8blk.html#af16af379a9a1761a56c8618a26b8a161" target="_top" xlink:title=" ">
<polygon fill="white" stroke="#666666" points="270.88,-63.25 171.62,-63.25 171.62,-44 270.88,-44 270.88,-63.25"/>
<text text-anchor="middle" x="221.25" y="-49.75" font-family="Helvetica,sans-Serif" font-size="10.00">_z_assert_iopequal</text>
</a>
</g>
</g>
<!-- Node20&#45;&gt;Node21 -->
<g id="edge24_Node000020_Node000021" class="edge">
<title>Node20&#45;&gt;Node21</title>
<g id="a_edge24_Node000020_Node000021"><a xlink:title=" ">
<path fill="none" stroke="#63b8ff" d="M348.57,-53.62C325.4,-53.62 295.85,-53.62 271.15,-53.62"/>
<polygon fill="#63b8ff" stroke="#63b8ff" points="348.54,-57.13 358.54,-53.63 348.54,-50.13 348.54,-57.13"/>
</a>
</g>
</g>
<!-- Node22 -->
<g id="Node000022" class="node">
<title>Node22</title>
<g id="a_Node000022"><a xlink:href="../../dc/df9/z_8blk.html#afe6b3f055a812025a0d955e738631e8b" target="_top" xlink:title=" ">
<polygon fill="white" stroke="#666666" points="117.25,-63.25 0,-63.25 0,-44 117.25,-44 117.25,-63.25"/>
<text text-anchor="middle" x="58.62" y="-49.75" font-family="Helvetica,sans-Serif" font-size="10.00">_z_assert_iopjsonequal</text>
</a>
</g>
</g>
<!-- Node21&#45;&gt;Node22 -->
<g id="edge25_Node000021_Node000022" class="edge">
<title>Node21&#45;&gt;Node22</title>
<g id="a_edge25_Node000021_Node000022"><a xlink:title=" ">
<path fill="none" stroke="#63b8ff" d="M159.83,-53.62C146.03,-53.62 131.4,-53.62 117.7,-53.62"/>
<polygon fill="#63b8ff" stroke="#63b8ff" points="159.67,-57.13 169.67,-53.63 159.67,-50.13 159.67,-57.13"/>
</a>
</g>
</g>
<!-- Node24 -->
<g id="Node000024" class="node">
<title>Node24</title>
<g id="a_Node000024"><a xlink:href="../../d7/d75/yaml_8c.html#aa0d7a80cd42f130e262b4c4ec16c83de" target="_top" xlink:title=" ">
<polygon fill="white" stroke="#666666" points="600.25,-398.88 488.25,-398.88 488.25,-368.38 600.25,-368.38 600.25,-398.88"/>
<text text-anchor="start" x="496.25" y="-385.38" font-family="Helvetica,sans-Serif" font-size="10.00">t_yaml_pack_included</text>
<text text-anchor="middle" x="544.25" y="-374.12" font-family="Helvetica,sans-Serif" font-size="10.00">_subfile</text>
</a>
</g>
</g>
<!-- Node23&#45;&gt;Node24 -->
<g id="edge27_Node000023_Node000024" class="edge">
<title>Node23&#45;&gt;Node24</title>
<g id="a_edge27_Node000023_Node000024"><a xlink:title=" ">
<path fill="none" stroke="#63b8ff" d="M626.21,-367.81C617.69,-369.48 609,-371.18 600.62,-372.81"/>
<polygon fill="#63b8ff" stroke="#63b8ff" points="626.64,-371.3 635.78,-365.94 625.3,-364.43 626.64,-371.3"/>
</a>
</g>
</g>
<!-- Node25 -->
<g id="Node000025" class="node">
<title>Node25</title>
<g id="a_Node000025"><a xlink:href="../../d7/d75/yaml_8c.html#ad8fa21d851cfb0c2db7c89134273b249" target="_top" xlink:title=" ">
<polygon fill="white" stroke="#666666" points="442.12,-449.88 335.38,-449.88 335.38,-419.38 442.12,-419.38 442.12,-449.88"/>
<text text-anchor="start" x="343.38" y="-436.38" font-family="Helvetica,sans-Serif" font-size="10.00">t_yaml_pack_include</text>
<text text-anchor="middle" x="388.75" y="-425.12" font-family="Helvetica,sans-Serif" font-size="10.00">_with_override</text>
</a>
</g>
</g>
<!-- Node24&#45;&gt;Node25 -->
<g id="edge28_Node000024_Node000025" class="edge">
<title>Node24&#45;&gt;Node25</title>
<g id="a_edge28_Node000024_Node000025"><a xlink:title=" ">
<path fill="none" stroke="#63b8ff" d="M485.13,-402.93C469.2,-408.23 452.13,-413.9 436.9,-418.96"/>
<polygon fill="#63b8ff" stroke="#63b8ff" points="486.12,-406.29 494.51,-399.82 483.91,-399.65 486.12,-406.29"/>
</a>
</g>
</g>
<!-- Node25&#45;&gt;Node26 -->
<g id="edge29_Node000025_Node000026" class="edge">
<title>Node25&#45;&gt;Node26</title>
<g id="a_edge29_Node000025_Node000026"><a xlink:title=" ">
<path fill="none" stroke="#63b8ff" d="M326.95,-453.73C302.38,-461.45 275.03,-470.04 254.45,-476.51"/>
<polygon fill="#63b8ff" stroke="#63b8ff" points="327.71,-457.16 336.2,-450.82 325.61,-450.48 327.71,-457.16"/>
</a>
</g>
</g>
<!-- Node26&#45;&gt;Node2 -->
<g id="edge30_Node000026_Node000002" class="edge">
<title>Node26&#45;&gt;Node2</title>
<g id="a_edge30_Node000026_Node000002"><a xlink:title=" ">
<path fill="none" stroke="#63b8ff" d="M300.95,-493.87C365.93,-495.62 460.58,-495.62 543.25,-495.62 845.38,-495.62 845.38,-495.62 845.38,-495.62 943.23,-495.62 967.74,-486.51 1063.75,-467.62 1088.88,-462.68 1117.66,-454.37 1133.69,-446.73"/>
<polygon fill="#63b8ff" stroke="#63b8ff" points="301.18,-490.38 291.09,-493.58 300.98,-497.38 301.18,-490.38"/>
</a>
</g>
</g>
<!-- Node27&#45;&gt;Node13 -->
<g id="edge32_Node000027_Node000013" class="edge">
<title>Node27&#45;&gt;Node13</title>
<g id="a_edge32_Node000027_Node000013"><a xlink:title=" ">
<path fill="none" stroke="#63b8ff" d="M480.88,-208.32C421.21,-211.85 332.19,-217.12 275.69,-220.46"/>
<polygon fill="#63b8ff" stroke="#63b8ff" points="480.75,-211.83 490.52,-207.75 480.33,-204.84 480.75,-211.83"/>
</a>
</g>
</g>
<!-- Node28&#45;&gt;Node13 -->
<g id="edge34_Node000028_Node000013" class="edge">
<title>Node28&#45;&gt;Node13</title>
<g id="a_edge34_Node000028_Node000013"><a xlink:title=" ">
<path fill="none" stroke="#63b8ff" d="M331.37,-351.7C329.26,-350.41 327.21,-349.05 325.25,-347.62 279.54,-314.36 241.84,-256.39 227.96,-233.41"/>
<polygon fill="#63b8ff" stroke="#63b8ff" points="329.19,-354.5 339.65,-356.23 332.55,-348.36 329.19,-354.5"/>
</a>
</g>
</g>
<!-- Node29&#45;&gt;Node13 -->
<g id="edge40_Node000029_Node000013" class="edge">
<title>Node29&#45;&gt;Node13</title>
<g id="a_edge40_Node000029_Node000013"><a xlink:title=" ">
<path fill="none" stroke="#63b8ff" d="M631,-265.76C620.77,-264.3 610.2,-262.86 600.25,-261.62 484.88,-247.35 349.2,-234.72 275.86,-228.23"/>
<polygon fill="#63b8ff" stroke="#63b8ff" points="630.46,-269.22 640.86,-267.19 631.46,-262.29 630.46,-269.22"/>
</a>
</g>
</g>
<!-- Node30 -->
<g id="Node000030" class="node">
<title>Node30</title>
<g id="a_Node000030"><a xlink:href="../../d7/d75/yaml_8c.html#a3b50341d193000cd9f9b4dcbb91eb1d1" target="_top" xlink:title=" ">
<polygon fill="white" stroke="#666666" points="596.88,-300.88 491.62,-300.88 491.62,-270.38 596.88,-270.38 596.88,-300.88"/>
<text text-anchor="start" x="499.62" y="-287.38" font-family="Helvetica,sans-Serif" font-size="10.00">t_z_yaml_test_parse</text>
<text text-anchor="middle" x="544.25" y="-276.12" font-family="Helvetica,sans-Serif" font-size="10.00">_success_from_dir</text>
</a>
</g>
</g>
<!-- Node29&#45;&gt;Node30 -->
<g id="edge36_Node000029_Node000030" class="edge">
<title>Node29&#45;&gt;Node30</title>
<g id="a_edge36_Node000029_Node000030"><a xlink:title=" ">
<path fill="none" stroke="#63b8ff" d="M631.06,-279.04C619.9,-279.9 608.26,-280.79 597.29,-281.63"/>
<polygon fill="#63b8ff" stroke="#63b8ff" points="631.26,-282.54 640.96,-278.28 630.72,-275.56 631.26,-282.54"/>
</a>
</g>
</g>
<!-- Node30&#45;&gt;Node13 -->
<g id="edge39_Node000030_Node000013" class="edge">
<title>Node30&#45;&gt;Node13</title>
<g id="a_edge39_Node000030_Node000013"><a xlink:title=" ">
<path fill="none" stroke="#63b8ff" d="M479.91,-280.2C436.12,-275.72 376.71,-268.2 325.25,-256.62 298.87,-250.69 269.58,-240.99 249,-233.64"/>
<polygon fill="#63b8ff" stroke="#63b8ff" points="479.45,-283.67 489.75,-281.18 480.15,-276.71 479.45,-283.67"/>
</a>
</g>
</g>
<!-- Node31 -->
<g id="Node000031" class="node">
<title>Node31</title>
<g id="a_Node000031"><a xlink:href="../../d7/d75/yaml_8c.html#a3b7703adf50cd917ef93d951647fd0df" target="_top" xlink:title=" ">
<polygon fill="white" stroke="#666666" points="441.38,-338.88 336.12,-338.88 336.12,-308.38 441.38,-308.38 441.38,-338.88"/>
<text text-anchor="start" x="344.12" y="-325.38" font-family="Helvetica,sans-Serif" font-size="10.00">t_z_yaml_test_parse</text>
<text text-anchor="middle" x="388.75" y="-314.12" font-family="Helvetica,sans-Serif" font-size="10.00">_success</text>
</a>
</g>
</g>
<!-- Node30&#45;&gt;Node31 -->
<g id="edge37_Node000030_Node000031" class="edge">
<title>Node30&#45;&gt;Node31</title>
<g id="a_edge37_Node000030_Node000031"><a xlink:title=" ">
<path fill="none" stroke="#63b8ff" d="M480.19,-301.23C467.38,-304.41 454.04,-307.71 441.66,-310.77"/>
<polygon fill="#63b8ff" stroke="#63b8ff" points="480.95,-304.65 489.81,-298.85 479.26,-297.86 480.95,-304.65"/>
</a>
</g>
</g>
<!-- Node31&#45;&gt;Node13 -->
<g id="edge38_Node000031_Node000013" class="edge">
<title>Node31&#45;&gt;Node13</title>
<g id="a_edge38_Node000031_Node000013"><a xlink:title=" ">
<path fill="none" stroke="#63b8ff" d="M340.94,-302.96C335.58,-300.29 330.25,-297.48 325.25,-294.62 291.3,-275.23 254.17,-248.01 235.12,-233.56"/>
<polygon fill="#63b8ff" stroke="#63b8ff" points="339.31,-306.07 349.84,-307.27 342.36,-299.76 339.31,-306.07"/>
</a>
</g>
</g>
<!-- Node32&#45;&gt;Node1 -->
<g id="edge45_Node000032_Node000001" class="edge">
<title>Node32&#45;&gt;Node1</title>
<g id="a_edge45_Node000032_Node000001"><a xlink:title=" ">
<path fill="none" stroke="#63b8ff" d="M1075.4,-396.62C1124.83,-396.62 1189.39,-396.62 1230.23,-396.62"/>
<polygon fill="#63b8ff" stroke="#63b8ff" points="1075.66,-393.13 1065.66,-396.63 1075.66,-400.13 1075.66,-393.13"/>
</a>
</g>
</g>
<!-- Node33 -->
<g id="Node000033" class="node">
<title>Node33</title>
<g id="a_Node000033"><a xlink:href="../../d7/d75/yaml_8c.html#a4eda73146807a004440922753e19b6c2" target="_top" xlink:title=" ">
<polygon fill="white" stroke="#666666" points="909.75,-445.25 779,-445.25 779,-426 909.75,-426 909.75,-445.25"/>
<text text-anchor="middle" x="844.38" y="-431.75" font-family="Helvetica,sans-Serif" font-size="10.00">t_yaml_pack_include_path</text>
</a>
</g>
</g>
<!-- Node32&#45;&gt;Node33 -->
<g id="edge43_Node000032_Node000033" class="edge">
<title>Node32&#45;&gt;Node33</title>
<g id="a_edge43_Node000032_Node000033"><a xlink:title=" ">
<path fill="none" stroke="#63b8ff" d="M934.86,-413.59C918.23,-417.68 900.97,-421.93 886.11,-425.59"/>
<polygon fill="#63b8ff" stroke="#63b8ff" points="935.33,-417.08 944.21,-411.29 933.66,-410.28 935.33,-417.08"/>
</a>
</g>
</g>
<!-- Node33&#45;&gt;Node25 -->
<g id="edge44_Node000033_Node000025" class="edge">
<title>Node33&#45;&gt;Node25</title>
<g id="a_edge44_Node000033_Node000025"><a xlink:title=" ">
<path fill="none" stroke="#63b8ff" d="M767.39,-435.46C675.28,-435.25 522.47,-434.92 442.39,-434.74"/>
<polygon fill="#63b8ff" stroke="#63b8ff" points="767.34,-438.96 777.35,-435.48 767.36,-431.96 767.34,-438.96"/>
</a>
</g>
</g>
<!-- Node34&#45;&gt;Node1 -->
<g id="edge48_Node000034_Node000001" class="edge">
<title>Node34&#45;&gt;Node1</title>
<g id="a_edge48_Node000034_Node000001"><a xlink:title=" ">
<path fill="none" stroke="#63b8ff" d="M1050,-330.03C1102.66,-345.99 1189.36,-372.26 1236.58,-386.57"/>
<polygon fill="#63b8ff" stroke="#63b8ff" points="1051.02,-326.69 1040.44,-327.14 1048.99,-333.39 1051.02,-326.69"/>
</a>
</g>
</g>
<!-- Node35&#45;&gt;Node2 -->
<g id="edge50_Node000035_Node000002" class="edge">
<title>Node35&#45;&gt;Node2</title>
<g id="a_edge50_Node000035_Node000002"><a xlink:title=" ">
<path fill="none" stroke="#63b8ff" d="M1062.02,-445.05C1074.42,-445 1087.41,-444.65 1099.38,-444.03"/>
<polygon fill="#63b8ff" stroke="#63b8ff" points="1062.39,-441.55 1052.37,-445.02 1062.36,-448.55 1062.39,-441.55"/>
</a>
</g>
</g>
</g>
</svg>

<g id="navigator" transform="translate(0 0)" fill="#404254">
  <rect fill="#f2f5e9" fill-opacity="0.5" stroke="#606060" stroke-width=".5" x="0" y="0" width="60" height="60"/>
  <use id="zoomplus" xlink:href="#zoomPlus" x="17" y="9" onmousedown="handleZoom(evt,'in')"/>
  <use id="zoomminus" xlink:href="#zoomMin" x="42" y="9" onmousedown="handleZoom(evt,'out')"/>
  <use id="reset" xlink:href="#resetDef" x="30" y="36" onmousedown="handleReset()"/>
   <use id="arrowup" xlink:href="#arrowUp" x="0" y="0" onmousedown="handlePan(0,-1)"/>
  <use id="arrowright" xlink:href="#arrowRight" x="0" y="0" onmousedown="handlePan(1,0)"/>
  <use id="arrowdown" xlink:href="#arrowDown" x="0" y="0" onmousedown="handlePan(0,1)"/>
  <use id="arrowleft" xlink:href="#arrowLeft" x="0" y="0" onmousedown="handlePan(-1,0)"/>
</g>
<svg viewBox="0 0 15 15" width="100%" height="30px" preserveAspectRatio="xMaxYMin meet">
 <g id="arrow_out" transform="scale(0.3 0.3)">
  <a xlink:href="yaml_8c_af78a652ed8dd1a81aab31ef74496003d_icgraph_org.svg" target="_base">
   <rect id="button" ry="5" rx="5" y="6" x="6" height="38" width="38"
        fill="#f2f5e9" fill-opacity="0.5" stroke="#606060" stroke-width="1.0"/>
   <path id="arrow"
     d="M 11.500037,31.436501 C 11.940474,20.09759 22.043105,11.32322 32.158766,21.979434 L 37.068811,17.246167 C 37.068811,17.246167 37.088388,32 37.088388,32 L 22.160133,31.978069 C 22.160133,31.978069 26.997745,27.140456 26.997745,27.140456 C 18.528582,18.264221 13.291696,25.230495 11.500037,31.436501 z"
     style="fill:#404040;"/>
  </a>
 </g>
</svg>

<style type='text/css'>
<![CDATA[
[data-mouse-over-selected='false'] { opacity: 0.7; }
[data-mouse-over-selected='true']  { opacity: 1.0; }
]]>
</style>
<script type="application/ecmascript"><![CDATA[
document.addEventListener('DOMContentLoaded', (event) => {
  highlightEdges();
  highlightAdjacentNodes();
});
]]></script>
</svg>
