<?xml version="1.0" encoding="UTF-8" standalone="no"?>
<!DOCTYPE svg PUBLIC "-//W3C//DTD SVG 1.1//EN"
 "http://www.w3.org/Graphics/SVG/1.1/DTD/svg11.dtd">
<!-- Generated by graphviz version 9.0.0 (20230911.1827)
 -->
<!-- Title: __mp_irealloc_fallback Pages: 1 -->
<svg width="844pt" height="1488pt"
 viewBox="0.00 0.00 844.25 1488.25" xmlns="http://www.w3.org/2000/svg" xmlns:xlink="http://www.w3.org/1999/xlink">
<g id="graph0" class="graph" transform="scale(1 1) rotate(0) translate(4 1484.25)">
<title>__mp_irealloc_fallback</title>
<!-- Node1 -->
<g id="Node000001" class="node">
<title>Node1</title>
<g id="a_Node000001"><a xlink:title=" ">
<polygon fill="#999999" stroke="#666666" points="836.25,-1200.25 721.25,-1200.25 721.25,-1181 836.25,-1181 836.25,-1200.25"/>
<text text-anchor="middle" x="778.75" y="-1186.75" font-family="Helvetica,sans-Serif" font-size="10.00">__mp_irealloc_fallback</text>
</a>
</g>
</g>
<!-- Node2 -->
<g id="Node000002" class="node">
<title>Node2</title>
<g id="a_Node000002"><a xlink:href="../../d9/d9a/mem_8h.html#a15958df365e5c2cc90a6c0c3e7e0e74f" target="_top" xlink:title=" ">
<polygon fill="white" stroke="#666666" points="685.25,-1200.25 580.75,-1200.25 580.75,-1181 685.25,-1181 685.25,-1200.25"/>
<text text-anchor="middle" x="633" y="-1186.75" font-family="Helvetica,sans-Serif" font-size="10.00">mp_irealloc_fallback</text>
</a>
</g>
</g>
<!-- Node1&#45;&gt;Node2 -->
<g id="edge1_Node000001_Node000002" class="edge">
<title>Node1&#45;&gt;Node2</title>
<g id="a_edge1_Node000001_Node000002"><a xlink:title=" ">
<path fill="none" stroke="#63b8ff" d="M709.65,-1190.62C701.6,-1190.62 693.5,-1190.62 685.73,-1190.62"/>
<polygon fill="#63b8ff" stroke="#63b8ff" points="709.42,-1194.13 719.42,-1190.63 709.42,-1187.13 709.42,-1194.13"/>
</a>
</g>
</g>
<!-- Node3 -->
<g id="Node000003" class="node">
<title>Node3</title>
<g id="a_Node000003"><a xlink:href="../../d2/d6f/bit-buf_8c.html#a1ccc4c7bc31544c5c75884fa89984eeb" target="_top" xlink:title=" ">
<polygon fill="white" stroke="#666666" points="533.88,-1312.25 470.62,-1312.25 470.62,-1293 533.88,-1293 533.88,-1312.25"/>
<text text-anchor="middle" x="502.25" y="-1298.75" font-family="Helvetica,sans-Serif" font-size="10.00">__bb_grow</text>
</a>
</g>
</g>
<!-- Node2&#45;&gt;Node3 -->
<g id="edge2_Node000002_Node000003" class="edge">
<title>Node2&#45;&gt;Node3</title>
<g id="a_edge2_Node000002_Node000003"><a xlink:title=" ">
<path fill="none" stroke="#63b8ff" d="M612.21,-1207.84C584.99,-1231.52 536.86,-1273.39 514.84,-1292.55"/>
<polygon fill="#63b8ff" stroke="#63b8ff" points="614.18,-1210.76 619.43,-1201.56 609.59,-1205.48 614.18,-1210.76"/>
</a>
</g>
</g>
<!-- Node50 -->
<g id="Node000050" class="node">
<title>Node50</title>
<g id="a_Node000050"><a xlink:href="../../d5/d04/qvector_8blk.html#ab22cd073575a6cabff7054c5af90f2e6" target="_top" xlink:title=" ">
<polygon fill="white" stroke="#666666" points="544.75,-1200.25 459.75,-1200.25 459.75,-1181 544.75,-1181 544.75,-1200.25"/>
<text text-anchor="middle" x="502.25" y="-1186.75" font-family="Helvetica,sans-Serif" font-size="10.00">__qvector_grow</text>
</a>
</g>
</g>
<!-- Node2&#45;&gt;Node50 -->
<g id="edge10_Node000002_Node000050" class="edge">
<title>Node2&#45;&gt;Node50</title>
<g id="a_edge10_Node000002_Node000050"><a xlink:title=" ">
<path fill="none" stroke="#63b8ff" d="M568.95,-1190.62C560.82,-1190.62 552.66,-1190.62 545,-1190.62"/>
<polygon fill="#63b8ff" stroke="#63b8ff" points="568.86,-1194.13 578.86,-1190.63 568.86,-1187.13 568.86,-1194.13"/>
</a>
</g>
</g>
<!-- Node57 -->
<g id="Node000057" class="node">
<title>Node57</title>
<g id="a_Node000057"><a xlink:href="../../d4/d02/str-buf_8c.html#a96e2e5252e81ed31e7071e4db76085b5" target="_top" xlink:title=" ">
<polygon fill="white" stroke="#666666" points="533.88,-1016.25 470.62,-1016.25 470.62,-997 533.88,-997 533.88,-1016.25"/>
<text text-anchor="middle" x="502.25" y="-1002.75" font-family="Helvetica,sans-Serif" font-size="10.00">__sb_grow</text>
</a>
</g>
</g>
<!-- Node2&#45;&gt;Node57 -->
<g id="edge18_Node000002_Node000057" class="edge">
<title>Node2&#45;&gt;Node57</title>
<g id="a_edge18_Node000002_Node000057"><a xlink:title=" ">
<path fill="none" stroke="#63b8ff" d="M618.66,-1171.57C591.54,-1132.8 530.77,-1045.96 510.21,-1016.57"/>
<polygon fill="#63b8ff" stroke="#63b8ff" points="615.61,-1173.31 624.21,-1179.49 621.34,-1169.29 615.61,-1173.31"/>
</a>
</g>
</g>
<!-- Node4 -->
<g id="Node000004" class="node">
<title>Node4</title>
<g id="a_Node000004"><a xlink:href="../../da/ddb/bit-buf_8h.html#a90d46022b0ec0d5b7e12525a125603e1" target="_top" xlink:title=" ">
<polygon fill="white" stroke="#666666" points="406.5,-1369.25 353.75,-1369.25 353.75,-1350 406.5,-1350 406.5,-1369.25"/>
<text text-anchor="middle" x="380.12" y="-1355.75" font-family="Helvetica,sans-Serif" font-size="10.00">bb_grow</text>
</a>
</g>
</g>
<!-- Node3&#45;&gt;Node4 -->
<g id="edge3_Node000003_Node000004" class="edge">
<title>Node3&#45;&gt;Node4</title>
<g id="a_edge3_Node000003_Node000004"><a xlink:title=" ">
<path fill="none" stroke="#63b8ff" d="M469.84,-1317.53C448.49,-1327.66 420.83,-1340.79 402.11,-1349.67"/>
<polygon fill="#63b8ff" stroke="#63b8ff" points="471.15,-1320.78 478.68,-1313.33 468.15,-1314.46 471.15,-1320.78"/>
</a>
</g>
</g>
<!-- Node5 -->
<g id="Node000005" class="node">
<title>Node5</title>
<g id="a_Node000005"><a xlink:href="../../da/ddb/bit-buf_8h.html#ad1b87c0ad1319ae6b996f5445fe3c18b" target="_top" xlink:title=" ">
<polygon fill="#fff0f0" stroke="red" points="262.25,-1480.25 199,-1480.25 199,-1461 262.25,-1461 262.25,-1480.25"/>
<text text-anchor="middle" x="230.62" y="-1466.75" font-family="Helvetica,sans-Serif" font-size="10.00">bb_add_bit</text>
</a>
</g>
</g>
<!-- Node4&#45;&gt;Node5 -->
<g id="edge4_Node000004_Node000005" class="edge">
<title>Node4&#45;&gt;Node5</title>
<g id="a_edge4_Node000004_Node000005"><a xlink:title=" ">
<path fill="none" stroke="#63b8ff" d="M367.81,-1379.1C354.43,-1400.38 330.19,-1433.92 300.5,-1452.62 289.21,-1459.74 275.18,-1464.06 262.75,-1466.67"/>
<polygon fill="#63b8ff" stroke="#63b8ff" points="370.65,-1381.16 372.84,-1370.79 364.67,-1377.53 370.65,-1381.16"/>
</a>
</g>
</g>
<!-- Node8 -->
<g id="Node000008" class="node">
<title>Node8</title>
<g id="a_Node000008"><a xlink:href="../../da/ddb/bit-buf_8h.html#a8b035cc83c774011211ca46c31636d58" target="_top" xlink:title=" ">
<polygon fill="#fff0f0" stroke="red" points="268.62,-1443.25 192.62,-1443.25 192.62,-1424 268.62,-1424 268.62,-1443.25"/>
<text text-anchor="middle" x="230.62" y="-1429.75" font-family="Helvetica,sans-Serif" font-size="10.00">bb_add_bytes</text>
</a>
</g>
</g>
<!-- Node4&#45;&gt;Node8 -->
<g id="edge5_Node000004_Node000008" class="edge">
<title>Node4&#45;&gt;Node8</title>
<g id="a_edge5_Node000004_Node000008"><a xlink:title=" ">
<path fill="none" stroke="#63b8ff" d="M359.47,-1376.72C344.28,-1389.13 322.25,-1405.46 300.5,-1415.62 290.65,-1420.23 279.43,-1423.8 268.95,-1426.49"/>
<polygon fill="#63b8ff" stroke="#63b8ff" points="361.4,-1379.67 366.81,-1370.57 356.9,-1374.31 361.4,-1379.67"/>
</a>
</g>
</g>
<!-- Node9 -->
<g id="Node000009" class="node">
<title>Node9</title>
<g id="a_Node000009"><a xlink:href="../../da/ddb/bit-buf_8h.html#adbc78830d55d31fffd992d2a70327e85" target="_top" xlink:title=" ">
<polygon fill="#fff0f0" stroke="red" points="270.12,-1406.25 191.12,-1406.25 191.12,-1387 270.12,-1387 270.12,-1406.25"/>
<text text-anchor="middle" x="230.62" y="-1392.75" font-family="Helvetica,sans-Serif" font-size="10.00">bb_be_add_bit</text>
</a>
</g>
</g>
<!-- Node4&#45;&gt;Node9 -->
<g id="edge6_Node000004_Node000009" class="edge">
<title>Node4&#45;&gt;Node9</title>
<g id="a_edge6_Node000004_Node000009"><a xlink:title=" ">
<path fill="none" stroke="#63b8ff" d="M342.29,-1368.87C320.45,-1374.34 292.8,-1381.28 270.6,-1386.85"/>
<polygon fill="#63b8ff" stroke="#63b8ff" points="343.12,-1372.27 351.96,-1366.44 341.41,-1365.48 343.12,-1372.27"/>
</a>
</g>
</g>
<!-- Node30 -->
<g id="Node000030" class="node">
<title>Node30</title>
<g id="a_Node000030"><a xlink:href="../../da/ddb/bit-buf_8h.html#ad59c6485cab971ab048f95778296212f" target="_top" xlink:title=" ">
<polygon fill="#fff0f0" stroke="red" points="276.5,-1369.25 184.75,-1369.25 184.75,-1350 276.5,-1350 276.5,-1369.25"/>
<text text-anchor="middle" x="230.62" y="-1355.75" font-family="Helvetica,sans-Serif" font-size="10.00">bb_be_add_bytes</text>
</a>
</g>
</g>
<!-- Node4&#45;&gt;Node30 -->
<g id="edge7_Node000004_Node000030" class="edge">
<title>Node4&#45;&gt;Node30</title>
<g id="a_edge7_Node000004_Node000030"><a xlink:title=" ">
<path fill="none" stroke="#63b8ff" d="M342.11,-1359.62C322.35,-1359.62 297.87,-1359.62 276.98,-1359.62"/>
<polygon fill="#63b8ff" stroke="#63b8ff" points="341.92,-1363.13 351.92,-1359.63 341.92,-1356.13 341.92,-1363.13"/>
</a>
</g>
</g>
<!-- Node31 -->
<g id="Node000031" class="node">
<title>Node31</title>
<g id="a_Node000031"><a xlink:href="../../da/ddb/bit-buf_8h.html#abcb81d09e43374b3928a8207e0cd6929" target="_top" xlink:title=" ">
<polygon fill="#fff0f0" stroke="red" points="263.38,-1332.25 197.88,-1332.25 197.88,-1313 263.38,-1313 263.38,-1332.25"/>
<text text-anchor="middle" x="230.62" y="-1318.75" font-family="Helvetica,sans-Serif" font-size="10.00">bb_growlen</text>
</a>
</g>
</g>
<!-- Node4&#45;&gt;Node31 -->
<g id="edge8_Node000004_Node000031" class="edge">
<title>Node4&#45;&gt;Node31</title>
<g id="a_edge8_Node000004_Node000031"><a xlink:title=" ">
<path fill="none" stroke="#63b8ff" d="M342.54,-1350.45C318.35,-1344.38 286.93,-1336.5 263.71,-1330.67"/>
<polygon fill="#63b8ff" stroke="#63b8ff" points="341.41,-1353.77 351.96,-1352.81 343.12,-1346.98 341.41,-1353.77"/>
</a>
</g>
</g>
<!-- Node49 -->
<g id="Node000049" class="node">
<title>Node49</title>
<g id="a_Node000049"><a xlink:href="../../d2/d6f/bit-buf_8c.html#acfce53b194b1c2006d350480ba5837c9" target="_top" xlink:title="Transfer ownership of the memory to a sb.">
<polygon fill="#fff0f0" stroke="red" points="277.62,-1295.25 183.62,-1295.25 183.62,-1276 277.62,-1276 277.62,-1295.25"/>
<text text-anchor="middle" x="230.62" y="-1281.75" font-family="Helvetica,sans-Serif" font-size="10.00">bb_transfer_to_sb</text>
</a>
</g>
</g>
<!-- Node4&#45;&gt;Node49 -->
<g id="edge9_Node000004_Node000049" class="edge">
<title>Node4&#45;&gt;Node49</title>
<g id="a_edge9_Node000004_Node000049"><a xlink:title=" ">
<path fill="none" stroke="#63b8ff" d="M359.47,-1342.53C344.28,-1330.12 322.25,-1313.79 300.5,-1303.62 293.45,-1300.33 285.69,-1297.56 278.01,-1295.27"/>
<polygon fill="#63b8ff" stroke="#63b8ff" points="356.9,-1344.94 366.81,-1348.68 361.4,-1339.58 356.9,-1344.94"/>
</a>
</g>
</g>
<!-- Node51 -->
<g id="Node000051" class="node">
<title>Node51</title>
<g id="a_Node000051"><a xlink:href="../../d1/d77/container-qvector_8h.html#a2d9cb6768bb7b80b32e24e0d35a6a6c0" target="_top" xlink:title=" ">
<polygon fill="white" stroke="#666666" points="417.38,-1182.25 342.88,-1182.25 342.88,-1163 417.38,-1163 417.38,-1182.25"/>
<text text-anchor="middle" x="380.12" y="-1168.75" font-family="Helvetica,sans-Serif" font-size="10.00">qvector_grow</text>
</a>
</g>
</g>
<!-- Node50&#45;&gt;Node51 -->
<g id="edge11_Node000050_Node000051" class="edge">
<title>Node50&#45;&gt;Node51</title>
<g id="a_edge11_Node000050_Node000051"><a xlink:title=" ">
<path fill="none" stroke="#63b8ff" d="M448.43,-1182.71C437.99,-1181.15 427.26,-1179.54 417.52,-1178.08"/>
<polygon fill="#63b8ff" stroke="#63b8ff" points="447.67,-1186.14 458.08,-1184.16 448.71,-1179.21 447.67,-1186.14"/>
</a>
</g>
</g>
<!-- Node55 -->
<g id="Node000055" class="node">
<title>Node55</title>
<g id="a_Node000055"><a xlink:href="../../d1/d77/container-qvector_8h.html#ab258c1e67b4827e6fef6d5a1254415cd" target="_top" xlink:title=" ">
<polygon fill="white" stroke="#666666" points="423.75,-1219.25 336.5,-1219.25 336.5,-1200 423.75,-1200 423.75,-1219.25"/>
<text text-anchor="middle" x="380.12" y="-1205.75" font-family="Helvetica,sans-Serif" font-size="10.00">qvector_growlen</text>
</a>
</g>
</g>
<!-- Node50&#45;&gt;Node55 -->
<g id="edge15_Node000050_Node000055" class="edge">
<title>Node50&#45;&gt;Node55</title>
<g id="a_edge15_Node000050_Node000055"><a xlink:title=" ">
<path fill="none" stroke="#63b8ff" d="M448.26,-1199.01C440.13,-1200.29 431.82,-1201.61 423.95,-1202.85"/>
<polygon fill="#63b8ff" stroke="#63b8ff" points="448.75,-1202.47 458.08,-1197.45 447.65,-1195.56 448.75,-1202.47"/>
</a>
</g>
</g>
<!-- Node52 -->
<g id="Node000052" class="node">
<title>Node52</title>
<g id="a_Node000052"><a xlink:href="../../d5/d04/qvector_8blk.html#a97bbf6fc0b4a6793813043243409498a" target="_top" xlink:title=" ">
<polygon fill="white" stroke="#666666" points="269,-1182.25 192.25,-1182.25 192.25,-1163 269,-1163 269,-1182.25"/>
<text text-anchor="middle" x="230.62" y="-1168.75" font-family="Helvetica,sans-Serif" font-size="10.00">__qvector_diff</text>
</a>
</g>
</g>
<!-- Node51&#45;&gt;Node52 -->
<g id="edge12_Node000051_Node000052" class="edge">
<title>Node51&#45;&gt;Node52</title>
<g id="a_edge12_Node000051_Node000052"><a xlink:title=" ">
<path fill="none" stroke="#63b8ff" d="M331.26,-1172.62C311.23,-1172.62 288.28,-1172.62 269.46,-1172.62"/>
<polygon fill="#63b8ff" stroke="#63b8ff" points="331.15,-1176.13 341.15,-1172.63 331.15,-1169.13 331.15,-1176.13"/>
</a>
</g>
</g>
<!-- Node53 -->
<g id="Node000053" class="node">
<title>Node53</title>
<g id="a_Node000053"><a xlink:href="../../d5/d04/qvector_8blk.html#a483a8f7cc3c9f6d239583e665c3b8bca" target="_top" xlink:title=" ">
<polygon fill="white" stroke="#666666" points="275.38,-1145.25 185.88,-1145.25 185.88,-1126 275.38,-1126 275.38,-1145.25"/>
<text text-anchor="middle" x="230.62" y="-1131.75" font-family="Helvetica,sans-Serif" font-size="10.00">__qvector_splice</text>
</a>
</g>
</g>
<!-- Node51&#45;&gt;Node53 -->
<g id="edge13_Node000051_Node000053" class="edge">
<title>Node51&#45;&gt;Node53</title>
<g id="a_edge13_Node000051_Node000053"><a xlink:title=" ">
<path fill="none" stroke="#63b8ff" d="M331.67,-1160.72C312.37,-1155.88 290.3,-1150.34 271.81,-1145.71"/>
<polygon fill="#63b8ff" stroke="#63b8ff" points="330.65,-1164.07 341.2,-1163.11 332.35,-1157.28 330.65,-1164.07"/>
</a>
</g>
</g>
<!-- Node54 -->
<g id="Node000054" class="node">
<title>Node54</title>
<g id="a_Node000054"><a xlink:href="../../d1/d77/container-qvector_8h.html#a5641114703ec93a802d5b162afc8a2ff" target="_top" xlink:title=" ">
<polygon fill="white" stroke="#666666" points="101.88,-1201.25 22.88,-1201.25 22.88,-1182 101.88,-1182 101.88,-1201.25"/>
<text text-anchor="middle" x="62.38" y="-1187.75" font-family="Helvetica,sans-Serif" font-size="10.00">qvector_splice</text>
</a>
</g>
</g>
<!-- Node53&#45;&gt;Node54 -->
<g id="edge14_Node000053_Node000054" class="edge">
<title>Node53&#45;&gt;Node54</title>
<g id="a_edge14_Node000053_Node000054"><a xlink:title=" ">
<path fill="none" stroke="#63b8ff" d="M177.2,-1148.64C171.62,-1150.23 166.05,-1151.9 160.75,-1153.62 135.03,-1161.97 106.26,-1173.48 86.71,-1181.63"/>
<polygon fill="#63b8ff" stroke="#63b8ff" points="177.71,-1152.13 186.42,-1146.1 175.85,-1145.39 177.71,-1152.13"/>
</a>
</g>
</g>
<!-- Node55&#45;&gt;Node54 -->
<g id="edge17_Node000055_Node000054" class="edge">
<title>Node55&#45;&gt;Node54</title>
<g id="a_edge17_Node000055_Node000054"><a xlink:title=" ">
<path fill="none" stroke="#63b8ff" d="M334,-1222.46C323.12,-1225.02 311.47,-1227.32 300.5,-1228.62 238.82,-1235.97 221.84,-1239.84 160.75,-1228.62 132.82,-1223.5 102.53,-1210.74 83.27,-1201.65"/>
<polygon fill="#63b8ff" stroke="#63b8ff" points="334.67,-1225.91 343.53,-1220.1 332.98,-1219.11 334.67,-1225.91"/>
</a>
</g>
</g>
<!-- Node56 -->
<g id="Node000056" class="node">
<title>Node56</title>
<g id="a_Node000056"><a xlink:href="../../d5/d04/qvector_8blk.html#ad3c56e1c7352d1c7ffcfeb293b481a35" target="_top" xlink:title=" ">
<polygon fill="white" stroke="#666666" points="290,-1219.25 171.25,-1219.25 171.25,-1200 290,-1200 290,-1219.25"/>
<text text-anchor="middle" x="230.62" y="-1205.75" font-family="Helvetica,sans-Serif" font-size="10.00">__qvector_deep_extend</text>
</a>
</g>
</g>
<!-- Node55&#45;&gt;Node56 -->
<g id="edge16_Node000055_Node000056" class="edge">
<title>Node55&#45;&gt;Node56</title>
<g id="a_edge16_Node000055_Node000056"><a xlink:title=" ">
<path fill="none" stroke="#63b8ff" d="M324.69,-1209.62C313.51,-1209.62 301.69,-1209.62 290.36,-1209.62"/>
<polygon fill="#63b8ff" stroke="#63b8ff" points="324.55,-1213.13 334.55,-1209.63 324.55,-1206.13 324.55,-1213.13"/>
</a>
</g>
</g>
<!-- Node58 -->
<g id="Node000058" class="node">
<title>Node58</title>
<g id="a_Node000058"><a xlink:href="../../dc/d31/str-buf_8h.html#a36add39fd03e94f99dd4467a2e49deae" target="_top" xlink:title=" ">
<polygon fill="#fff0f0" stroke="red" points="406.5,-586.25 353.75,-586.25 353.75,-567 406.5,-567 406.5,-586.25"/>
<text text-anchor="middle" x="380.12" y="-572.75" font-family="Helvetica,sans-Serif" font-size="10.00">sb_grow</text>
</a>
</g>
</g>
<!-- Node57&#45;&gt;Node58 -->
<g id="edge19_Node000057_Node000058" class="edge">
<title>Node57&#45;&gt;Node58</title>
<g id="a_edge19_Node000057_Node000058"><a xlink:title=" ">
<path fill="none" stroke="#63b8ff" d="M495.44,-985.81C473.92,-908.8 399.28,-641.62 383.91,-586.59"/>
<polygon fill="#63b8ff" stroke="#63b8ff" points="492.05,-986.69 498.11,-995.38 498.79,-984.81 492.05,-986.69"/>
</a>
</g>
</g>
<!-- Node652 -->
<g id="Node000652" class="node">
<title>Node652</title>
<g id="a_Node000652"><a xlink:href="../../dc/d31/str-buf_8h.html#a69537528c954fce98e3d2cb92232ffe8" target="_top" xlink:title=" ">
<polygon fill="#fff0f0" stroke="red" points="412.88,-1016.25 347.38,-1016.25 347.38,-997 412.88,-997 412.88,-1016.25"/>
<text text-anchor="middle" x="380.12" y="-1002.75" font-family="Helvetica,sans-Serif" font-size="10.00">sb_growlen</text>
</a>
</g>
</g>
<!-- Node57&#45;&gt;Node652 -->
<g id="edge52_Node000057_Node000652" class="edge">
<title>Node57&#45;&gt;Node652</title>
<g id="a_edge52_Node000057_Node000652"><a xlink:title=" ">
<path fill="none" stroke="#63b8ff" d="M459.17,-1006.62C444.08,-1006.62 427.32,-1006.62 413.21,-1006.62"/>
<polygon fill="#63b8ff" stroke="#63b8ff" points="458.8,-1010.13 468.8,-1006.63 458.8,-1003.13 458.8,-1010.13"/>
</a>
</g>
</g>
<!-- Node59 -->
<g id="Node000059" class="node">
<title>Node59</title>
<g id="a_Node000059"><a xlink:href="../../d4/d02/str-buf_8c.html#ae16df7cd9fb08d8407d3e1b6572c27c6" target="_top" xlink:title=" ">
<polygon fill="#fff0f0" stroke="red" points="264.5,-438.25 196.75,-438.25 196.75,-419 264.5,-419 264.5,-438.25"/>
<text text-anchor="middle" x="230.62" y="-424.75" font-family="Helvetica,sans-Serif" font-size="10.00">__sb_splice</text>
</a>
</g>
</g>
<!-- Node58&#45;&gt;Node59 -->
<g id="edge20_Node000058_Node000059" class="edge">
<title>Node58&#45;&gt;Node59</title>
<g id="a_edge20_Node000058_Node000059"><a xlink:title=" ">
<path fill="none" stroke="#63b8ff" d="M372.24,-555.84C361.57,-526.88 338.23,-474.79 300.5,-446.62 290.2,-438.94 276.9,-434.52 264.74,-431.99"/>
<polygon fill="#63b8ff" stroke="#63b8ff" points="368.94,-556.99 375.55,-565.27 375.54,-554.67 368.94,-556.99"/>
</a>
</g>
</g>
<!-- Node268 -->
<g id="Node000268" class="node">
<title>Node268</title>
<g id="a_Node000268"><a xlink:href="../../da/da5/ssl_8blk.html#af8c016898cc2024a4a8bb4ee24d274ed" target="_top" xlink:title=" ">
<polygon fill="#fff0f0" stroke="red" points="270.12,-401.25 191.12,-401.25 191.12,-382 270.12,-382 270.12,-401.25"/>
<text text-anchor="middle" x="230.62" y="-387.75" font-family="Helvetica,sans-Serif" font-size="10.00">__ssl_sb_read</text>
</a>
</g>
</g>
<!-- Node58&#45;&gt;Node268 -->
<g id="edge21_Node000058_Node000268" class="edge">
<title>Node58&#45;&gt;Node268</title>
<g id="a_edge21_Node000058_Node000268"><a xlink:title=" ">
<path fill="none" stroke="#63b8ff" d="M375.22,-555.6C367.49,-520.03 346.8,-448.09 300.5,-409.62 292.04,-402.6 281.14,-398.28 270.51,-395.64"/>
<polygon fill="#63b8ff" stroke="#63b8ff" points="371.72,-555.96 377.14,-565.07 378.58,-554.57 371.72,-555.96"/>
</a>
</g>
</g>
<!-- Node292 -->
<g id="Node000292" class="node">
<title>Node292</title>
<g id="a_Node000292"><a xlink:href="../../dc/d70/file-bin_8c.html#abd12f1c33a01e00e7624bada49a8d441" target="_top" xlink:title=" ">
<polygon fill="#fff0f0" stroke="red" points="277.25,-363.88 184,-363.88 184,-333.38 277.25,-333.38 277.25,-363.88"/>
<text text-anchor="start" x="192" y="-350.38" font-family="Helvetica,sans-Serif" font-size="10.00">_file_bin_get_next</text>
<text text-anchor="middle" x="230.62" y="-339.12" font-family="Helvetica,sans-Serif" font-size="10.00">_record</text>
</a>
</g>
</g>
<!-- Node58&#45;&gt;Node292 -->
<g id="edge22_Node000058_Node000292" class="edge">
<title>Node58&#45;&gt;Node292</title>
<g id="a_edge22_Node000058_Node000292"><a xlink:title=" ">
<path fill="none" stroke="#63b8ff" d="M376.79,-555.23C371.19,-514.14 353.28,-423.71 300.5,-372.62 294.04,-366.37 285.87,-361.74 277.42,-358.31"/>
<polygon fill="#63b8ff" stroke="#63b8ff" points="373.3,-555.52 378,-565.01 380.25,-554.66 373.3,-555.52"/>
</a>
</g>
</g>
<!-- Node270 -->
<g id="Node000270" class="node">
<title>Node270</title>
<g id="a_Node000270"><a xlink:href="../../db/d0c/rpc-channel_8blk.html#a73df9c5408854c5791a2b5f9e9024f4f" target="_top" xlink:title=" ">
<polygon fill="#fff0f0" stroke="red" points="257,-315.25 204.25,-315.25 204.25,-296 257,-296 257,-315.25"/>
<text text-anchor="middle" x="230.62" y="-301.75" font-family="Helvetica,sans-Serif" font-size="10.00">_ic_read</text>
</a>
</g>
</g>
<!-- Node58&#45;&gt;Node270 -->
<g id="edge23_Node000058_Node000270" class="edge">
<title>Node58&#45;&gt;Node270</title>
<g id="a_edge23_Node000058_Node000270"><a xlink:title=" ">
<path fill="none" stroke="#63b8ff" d="M378.96,-555.31C377.38,-507.03 366.58,-388.55 300.5,-324.62 289,-313.5 271.6,-308.76 257.17,-306.8"/>
<polygon fill="#63b8ff" stroke="#63b8ff" points="375.45,-555.29 379.16,-565.21 382.45,-555.14 375.45,-555.29"/>
</a>
</g>
</g>
<!-- Node295 -->
<g id="Node000295" class="node">
<title>Node295</title>
<g id="a_Node000295"><a xlink:href="../../de/df3/str-buf-quoting_8c.html#a04d399e269594768f40abc17e8a261f7" target="_top" xlink:title=" ">
<polygon fill="#fff0f0" stroke="red" points="284.75,-278.25 176.5,-278.25 176.5,-259 284.75,-259 284.75,-278.25"/>
<text text-anchor="middle" x="230.62" y="-264.75" font-family="Helvetica,sans-Serif" font-size="10.00">_sb_add_b64_update</text>
</a>
</g>
</g>
<!-- Node58&#45;&gt;Node295 -->
<g id="edge24_Node000058_Node000295" class="edge">
<title>Node58&#45;&gt;Node295</title>
<g id="a_edge24_Node000058_Node000295"><a xlink:title=" ">
<path fill="none" stroke="#63b8ff" d="M376.2,-555.68C367.41,-495.72 339.42,-325.19 300.5,-286.62 296.11,-282.28 290.81,-278.94 285.12,-276.38"/>
<polygon fill="#63b8ff" stroke="#63b8ff" points="372.68,-555.81 377.56,-565.22 379.61,-554.82 372.68,-555.81"/>
</a>
</g>
</g>
<!-- Node349 -->
<g id="Node000349" class="node">
<title>Node349</title>
<g id="a_Node000349"><a xlink:href="../../d2/d6f/bit-buf_8c.html#ad490c10d156db3da447c72bee40965d4" target="_top" xlink:title="Initialize a bit&#45;buffer from a string&#45;buffer.">
<polygon fill="#fff0f0" stroke="red" points="260.75,-241.25 200.5,-241.25 200.5,-222 260.75,-222 260.75,-241.25"/>
<text text-anchor="middle" x="230.62" y="-227.75" font-family="Helvetica,sans-Serif" font-size="10.00">bb_init_sb</text>
</a>
</g>
</g>
<!-- Node58&#45;&gt;Node349 -->
<g id="edge25_Node000058_Node000349" class="edge">
<title>Node58&#45;&gt;Node349</title>
<g id="a_edge25_Node000058_Node000349"><a xlink:title=" ">
<path fill="none" stroke="#63b8ff" d="M376.88,-555.63C369.51,-490.57 344,-293.99 300.5,-249.62 290.29,-239.21 274.86,-234.57 261.19,-232.6"/>
<polygon fill="#63b8ff" stroke="#63b8ff" points="373.37,-555.75 377.95,-565.3 380.33,-554.98 373.37,-555.75"/>
</a>
</g>
</g>
<!-- Node350 -->
<g id="Node000350" class="node">
<title>Node350</title>
<g id="a_Node000350"><a xlink:href="../../dd/d4a/net_2http_8c.html#ac5d8ddf5451e78c514860456a1d3ae57" target="_top" xlink:title=" ">
<polygon fill="#fff0f0" stroke="red" points="300.5,-204.25 160.75,-204.25 160.75,-185 300.5,-185 300.5,-204.25"/>
<text text-anchor="middle" x="230.62" y="-190.75" font-family="Helvetica,sans-Serif" font-size="10.00">http2_conn_pack_single_hdr</text>
</a>
</g>
</g>
<!-- Node58&#45;&gt;Node350 -->
<g id="edge26_Node000058_Node000350" class="edge">
<title>Node58&#45;&gt;Node350</title>
<g id="a_edge26_Node000058_Node000350"><a xlink:title=" ">
<path fill="none" stroke="#63b8ff" d="M377.43,-555.58C371.38,-485.67 348.6,-262.84 300.5,-212.62 297.51,-209.5 294.05,-206.9 290.3,-204.72"/>
<polygon fill="#63b8ff" stroke="#63b8ff" points="373.92,-555.59 378.24,-565.26 380.89,-555.01 373.92,-555.59"/>
</a>
</g>
</g>
<!-- Node361 -->
<g id="Node000361" class="node">
<title>Node361</title>
<g id="a_Node000361"><a xlink:href="../../dd/d4a/net_2http_8c.html#a3d0a44a477391f3cb18c306e035c50b4" target="_top" xlink:title=" ">
<polygon fill="#fff0f0" stroke="red" points="272,-167.25 189.25,-167.25 189.25,-148 272,-148 272,-167.25"/>
<text text-anchor="middle" x="230.62" y="-153.75" font-family="Helvetica,sans-Serif" font-size="10.00">http_zlib_inflate</text>
</a>
</g>
</g>
<!-- Node58&#45;&gt;Node361 -->
<g id="edge27_Node000058_Node000361" class="edge">
<title>Node58&#45;&gt;Node361</title>
<g id="a_edge27_Node000058_Node000361"><a xlink:title=" ">
<path fill="none" stroke="#63b8ff" d="M377.87,-555.39C373.05,-480.73 353.2,-231.7 300.5,-175.62 293.14,-167.79 282.82,-163.2 272.42,-160.56"/>
<polygon fill="#63b8ff" stroke="#63b8ff" points="374.36,-555.26 378.47,-565.02 381.34,-554.82 374.36,-555.26"/>
</a>
</g>
</g>
<!-- Node383 -->
<g id="Node000383" class="node">
<title>Node383</title>
<g id="a_Node000383"><a xlink:href="../../dd/d4a/net_2http_8c.html#a850fc5d2c4ee341ee846a83368c370f9" target="_top" xlink:title=" ">
<polygon fill="white" stroke="#666666" points="270.12,-130.25 191.12,-130.25 191.12,-111 270.12,-111 270.12,-130.25"/>
<text text-anchor="middle" x="230.62" y="-116.75" font-family="Helvetica,sans-Serif" font-size="10.00">httpd_bufferize</text>
</a>
</g>
</g>
<!-- Node58&#45;&gt;Node383 -->
<g id="edge28_Node000058_Node000383" class="edge">
<title>Node58&#45;&gt;Node383</title>
<g id="a_edge28_Node000058_Node000383"><a xlink:title=" ">
<path fill="none" stroke="#63b8ff" d="M378.26,-555.52C374.62,-476.66 357.89,-200.68 300.5,-138.62 292.7,-130.19 281.47,-125.5 270.34,-122.96"/>
<polygon fill="#63b8ff" stroke="#63b8ff" points="374.76,-555.43 378.69,-565.27 381.75,-555.13 374.76,-555.43"/>
</a>
</g>
</g>
<!-- Node384 -->
<g id="Node000384" class="node">
<title>Node384</title>
<g id="a_Node000384"><a xlink:href="../../de/df3/str-buf-quoting_8c.html#a77742c6f6ba0c090299f7fdf8ef3dd49" target="_top" xlink:title=" ">
<polygon fill="#fff0f0" stroke="red" points="279.88,-93.25 181.38,-93.25 181.38,-74 279.88,-74 279.88,-93.25"/>
<text text-anchor="middle" x="230.62" y="-79.75" font-family="Helvetica,sans-Serif" font-size="10.00">idna_label_to_ascii</text>
</a>
</g>
</g>
<!-- Node58&#45;&gt;Node384 -->
<g id="edge29_Node000058_Node000384" class="edge">
<title>Node58&#45;&gt;Node384</title>
<g id="a_edge29_Node000058_Node000384"><a xlink:title=" ">
<path fill="none" stroke="#63b8ff" d="M378.58,-555.37C376.02,-472.13 362.53,-169.62 300.5,-101.62 295,-95.6 287.76,-91.48 280.04,-88.69"/>
<polygon fill="#63b8ff" stroke="#63b8ff" points="375.08,-555.36 378.86,-565.26 382.08,-555.16 375.08,-555.36"/>
</a>
</g>
</g>
<!-- Node386 -->
<g id="Node000386" class="node">
<title>Node386</title>
<g id="a_Node000386"><a xlink:href="../../da/da5/ssl_8blk.html#aca251b1ec6c8723e669bccbaecaaafc8" target="_top" xlink:title=" ">
<polygon fill="#fff0f0" stroke="red" points="270.88,-56.25 190.38,-56.25 190.38,-37 270.88,-37 270.88,-56.25"/>
<text text-anchor="middle" x="230.62" y="-42.75" font-family="Helvetica,sans-Serif" font-size="10.00">rsa_sign_finish</text>
</a>
</g>
</g>
<!-- Node58&#45;&gt;Node386 -->
<g id="edge30_Node000058_Node000386" class="edge">
<title>Node58&#45;&gt;Node386</title>
<g id="a_edge30_Node000058_Node000386"><a xlink:title=" ">
<path fill="none" stroke="#63b8ff" d="M378.86,-555.41C377.35,-468.23 367.24,-138.63 300.5,-64.62 292.97,-56.27 282.09,-51.58 271.19,-49.01"/>
<polygon fill="#63b8ff" stroke="#63b8ff" points="375.36,-555.39 379.01,-565.34 382.36,-555.29 375.36,-555.39"/>
</a>
</g>
</g>
<!-- Node388 -->
<g id="Node000388" class="node">
<title>Node388</title>
<g id="a_Node000388"><a xlink:href="../../de/df3/str-buf-quoting_8c.html#a31d744867fc1229f8d59ebdfa68d14b7" target="_top" xlink:title="Start a multiple step base 64 encoding.">
<polygon fill="#fff0f0" stroke="red" points="277.25,-19.25 184,-19.25 184,0 277.25,0 277.25,-19.25"/>
<text text-anchor="middle" x="230.62" y="-5.75" font-family="Helvetica,sans-Serif" font-size="10.00">sb_add_b64_start</text>
</a>
</g>
</g>
<!-- Node58&#45;&gt;Node388 -->
<g id="edge31_Node000058_Node000388" class="edge">
<title>Node58&#45;&gt;Node388</title>
<g id="a_edge31_Node000058_Node000388"><a xlink:title=" ">
<path fill="none" stroke="#63b8ff" d="M379.1,-555.34C378.58,-464.16 371.92,-107.64 300.5,-27.62 294.49,-20.89 286.31,-16.54 277.68,-13.75"/>
<polygon fill="#63b8ff" stroke="#63b8ff" points="375.6,-555.09 379.14,-565.08 382.6,-555.07 375.6,-555.09"/>
</a>
</g>
</g>
<!-- Node389 -->
<g id="Node000389" class="node">
<title>Node389</title>
<g id="a_Node000389"><a xlink:href="../../de/dbf/zlib-wrapper_8c.html#a67e0c992e87c586e7acfb5a8acd8c645" target="_top" xlink:title=" ">
<polygon fill="#fff0f0" stroke="red" points="283.62,-886.25 177.62,-886.25 177.62,-867 283.62,-867 283.62,-886.25"/>
<text text-anchor="middle" x="230.62" y="-872.75" font-family="Helvetica,sans-Serif" font-size="10.00">sb_add_compressed</text>
</a>
</g>
</g>
<!-- Node58&#45;&gt;Node389 -->
<g id="edge32_Node000058_Node000389" class="edge">
<title>Node58&#45;&gt;Node389</title>
<g id="a_edge32_Node000058_Node000389"><a xlink:title=" ">
<path fill="none" stroke="#63b8ff" d="M379.86,-598.01C380.44,-650.36 374.31,-786 300.5,-858.62 295.83,-863.22 290.14,-866.68 284.06,-869.29"/>
<polygon fill="#63b8ff" stroke="#63b8ff" points="383.36,-598.01 379.64,-588.09 376.36,-598.17 383.36,-598.01"/>
</a>
</g>
</g>
<!-- Node390 -->
<g id="Node000390" class="node">
<title>Node390</title>
<g id="a_Node000390"><a xlink:href="../../de/df3/str-buf-quoting_8c.html#a98d754acf11e33c969c57f4eef900b0a" target="_top" xlink:title="Append the CSV&#45;escaped version of the string in the given sb.">
<polygon fill="#fff0f0" stroke="red" points="280.62,-849.25 180.62,-849.25 180.62,-830 280.62,-830 280.62,-849.25"/>
<text text-anchor="middle" x="230.62" y="-835.75" font-family="Helvetica,sans-Serif" font-size="10.00">sb_add_csvescape</text>
</a>
</g>
</g>
<!-- Node58&#45;&gt;Node390 -->
<g id="edge33_Node000058_Node000390" class="edge">
<title>Node58&#45;&gt;Node390</title>
<g id="a_edge33_Node000058_Node000390"><a xlink:title=" ">
<path fill="none" stroke="#63b8ff" d="M378.8,-597.74C376.89,-645.05 365.43,-760.16 300.5,-821.62 295.02,-826.81 288.25,-830.54 281.1,-833.22"/>
<polygon fill="#63b8ff" stroke="#63b8ff" points="382.29,-598.15 379.08,-588.05 375.3,-597.95 382.29,-598.15"/>
</a>
</g>
</g>
<!-- Node408 -->
<g id="Node000408" class="node">
<title>Node408</title>
<g id="a_Node000408"><a xlink:href="../../de/df3/str-buf-quoting_8c.html#ae3db9d3bc161c7061d7ed3565f28162b" target="_top" xlink:title="Encode data to &quot;Quoted&#45;Printable&quot;.">
<polygon fill="white" stroke="#666666" points="264.88,-1108.25 196.38,-1108.25 196.38,-1089 264.88,-1089 264.88,-1108.25"/>
<text text-anchor="middle" x="230.62" y="-1094.75" font-family="Helvetica,sans-Serif" font-size="10.00">sb_add_qpe</text>
</a>
</g>
</g>
<!-- Node58&#45;&gt;Node408 -->
<g id="edge34_Node000058_Node000408" class="edge">
<title>Node58&#45;&gt;Node408</title>
<g id="a_edge34_Node000058_Node000408"><a xlink:title=" ">
<path fill="none" stroke="#63b8ff" d="M377.17,-598.03C368.63,-689.44 333.57,-1044.03 300.5,-1080.62 291.55,-1090.53 277.89,-1095.28 265.09,-1097.46"/>
<polygon fill="#63b8ff" stroke="#63b8ff" points="380.64,-598.52 378.07,-588.24 373.67,-597.87 380.64,-598.52"/>
</a>
</g>
</g>
<!-- Node409 -->
<g id="Node000409" class="node">
<title>Node409</title>
<g id="a_Node000409"><a xlink:href="../../de/df3/str-buf-quoting_8c.html#adff39e7bbcf0a36503b982d5eda828ba" target="_top" xlink:title=" ">
<polygon fill="#fff0f0" stroke="red" points="273.88,-1071.25 187.38,-1071.25 187.38,-1052 273.88,-1052 273.88,-1071.25"/>
<text text-anchor="middle" x="230.62" y="-1057.75" font-family="Helvetica,sans-Serif" font-size="10.00">sb_add_slashes</text>
</a>
</g>
</g>
<!-- Node58&#45;&gt;Node409 -->
<g id="edge35_Node000058_Node000409" class="edge">
<title>Node58&#45;&gt;Node409</title>
<g id="a_edge35_Node000058_Node000409"><a xlink:title=" ">
<path fill="none" stroke="#63b8ff" d="M378.51,-598.06C375.7,-680.66 361.48,-976.98 300.5,-1043.62 293.66,-1051.1 284.13,-1055.64 274.35,-1058.35"/>
<polygon fill="#63b8ff" stroke="#63b8ff" points="382,-598.33 378.82,-588.22 375.01,-598.11 382,-598.33"/>
</a>
</g>
</g>
<!-- Node395 -->
<g id="Node000395" class="node">
<title>Node395</title>
<g id="a_Node000395"><a xlink:href="../../de/d82/str-buf-pp_8c.html#a1948b6fd4ceb529efa3b5ddd1e5b7c0e" target="_top" xlink:title="Format a table.">
<polygon fill="#fff0f0" stroke="red" points="267.5,-812.25 193.75,-812.25 193.75,-793 267.5,-793 267.5,-812.25"/>
<text text-anchor="middle" x="230.62" y="-798.75" font-family="Helvetica,sans-Serif" font-size="10.00">sb_add_table</text>
</a>
</g>
</g>
<!-- Node58&#45;&gt;Node395 -->
<g id="edge36_Node000058_Node000395" class="edge">
<title>Node58&#45;&gt;Node395</title>
<g id="a_edge36_Node000058_Node000395"><a xlink:title=" ">
<path fill="none" stroke="#63b8ff" d="M377.38,-597.95C372.77,-640.1 356.43,-734.32 300.5,-784.62 291.49,-792.72 279.29,-797.26 267.66,-799.77"/>
<polygon fill="#63b8ff" stroke="#63b8ff" points="380.85,-598.45 378.32,-588.16 373.88,-597.78 380.85,-598.45"/>
</a>
</g>
</g>
<!-- Node446 -->
<g id="Node000446" class="node">
<title>Node446</title>
<g id="a_Node000446"><a xlink:href="../../de/df3/str-buf-quoting_8c.html#a62bfb1a2ccc08bd4d8a9606540275746" target="_top" xlink:title="Decode &quot;Quoted&#45;Printable&quot; data.">
<polygon fill="white" stroke="#666666" points="270.12,-775.25 191.12,-775.25 191.12,-756 270.12,-756 270.12,-775.25"/>
<text text-anchor="middle" x="230.62" y="-761.75" font-family="Helvetica,sans-Serif" font-size="10.00">sb_add_unqpe</text>
</a>
</g>
</g>
<!-- Node58&#45;&gt;Node446 -->
<g id="edge37_Node000058_Node000446" class="edge">
<title>Node58&#45;&gt;Node446</title>
<g id="a_edge37_Node000058_Node000446"><a xlink:title=" ">
<path fill="none" stroke="#63b8ff" d="M375.48,-597.63C368.07,-633.85 347.76,-708 300.5,-747.62 292.07,-754.69 281.18,-759.02 270.55,-761.66"/>
<polygon fill="#63b8ff" stroke="#63b8ff" points="378.88,-598.48 377.31,-588 372.01,-597.17 378.88,-598.48"/>
</a>
</g>
</g>
<!-- Node447 -->
<g id="Node000447" class="node">
<title>Node447</title>
<g id="a_Node000447"><a xlink:href="../../de/df3/str-buf-quoting_8c.html#a64958ca55d982cbfcbf4ff53b59c884f" target="_top" xlink:title=" ">
<polygon fill="#fff0f0" stroke="red" points="278,-1034.25 183.25,-1034.25 183.25,-1015 278,-1015 278,-1034.25"/>
<text text-anchor="middle" x="230.62" y="-1020.75" font-family="Helvetica,sans-Serif" font-size="10.00">sb_add_urlencode</text>
</a>
</g>
</g>
<!-- Node58&#45;&gt;Node447 -->
<g id="edge38_Node000058_Node000447" class="edge">
<title>Node58&#45;&gt;Node447</title>
<g id="a_edge38_Node000058_Node000447"><a xlink:title=" ">
<path fill="none" stroke="#63b8ff" d="M378.18,-597.86C374.27,-675.95 356.85,-945.89 300.5,-1006.62 294.53,-1013.06 286.58,-1017.31 278.19,-1020.09"/>
<polygon fill="#63b8ff" stroke="#63b8ff" points="381.66,-598.33 378.64,-588.18 374.67,-598 381.66,-598.33"/>
</a>
</g>
</g>
<!-- Node454 -->
<g id="Node000454" class="node">
<title>Node454</title>
<g id="a_Node000454"><a xlink:href="../../de/df3/str-buf-quoting_8c.html#ace1178bd8a3de30950a94f33856de434" target="_top" xlink:title=" ">
<polygon fill="#fff0f0" stroke="red" points="280.25,-738.25 181,-738.25 181,-719 280.25,-719 280.25,-738.25"/>
<text text-anchor="middle" x="230.62" y="-724.75" font-family="Helvetica,sans-Serif" font-size="10.00">sb_add_xmlescape</text>
</a>
</g>
</g>
<!-- Node58&#45;&gt;Node454 -->
<g id="edge39_Node000058_Node000454" class="edge">
<title>Node58&#45;&gt;Node454</title>
<g id="a_edge39_Node000058_Node000454"><a xlink:title=" ">
<path fill="none" stroke="#63b8ff" d="M371.68,-597.1C360.45,-625.22 336.59,-675.58 300.5,-704.62 293.1,-710.58 284.13,-715.1 275.13,-718.53"/>
<polygon fill="#63b8ff" stroke="#63b8ff" points="374.87,-598.55 375.17,-587.96 368.33,-596.05 374.87,-598.55"/>
</a>
</g>
</g>
<!-- Node475 -->
<g id="Node000475" class="node">
<title>Node475</title>
<g id="a_Node000475"><a xlink:href="../../dc/d31/str-buf_8h.html#a0d0dc384d6e198ed458f4dace7b4ed29" target="_top" xlink:title=" ">
<polygon fill="#fff0f0" stroke="red" points="259.62,-662.25 201.62,-662.25 201.62,-643 259.62,-643 259.62,-662.25"/>
<text text-anchor="middle" x="230.62" y="-648.75" font-family="Helvetica,sans-Serif" font-size="10.00">sb_adduc</text>
</a>
</g>
</g>
<!-- Node58&#45;&gt;Node475 -->
<g id="edge40_Node000058_Node000475" class="edge">
<title>Node58&#45;&gt;Node475</title>
<g id="a_edge40_Node000058_Node000475"><a xlink:title=" ">
<path fill="none" stroke="#63b8ff" d="M356.97,-593.44C341.69,-604.48 320.59,-618.68 300.5,-628.62 287.68,-634.97 272.76,-640.4 260.09,-644.47"/>
<polygon fill="#63b8ff" stroke="#63b8ff" points="358.91,-596.36 364.89,-587.61 354.76,-590.72 358.91,-596.36"/>
</a>
</g>
</g>
<!-- Node516 -->
<g id="Node000516" class="node">
<title>Node516</title>
<g id="a_Node000516"><a xlink:href="../../d4/d0c/str-buf-gsm_8c.html#aea7cb0b5d8acd87d0778c31c490f5c13" target="_top" xlink:title=" ">
<polygon fill="white" stroke="#666666" points="123.25,-680.25 1.5,-680.25 1.5,-661 123.25,-661 123.25,-680.25"/>
<text text-anchor="middle" x="62.38" y="-666.75" font-family="Helvetica,sans-Serif" font-size="10.00">sb_conv_from_gsm_hex</text>
</a>
</g>
</g>
<!-- Node58&#45;&gt;Node516 -->
<g id="edge44_Node000058_Node000516" class="edge">
<title>Node58&#45;&gt;Node516</title>
<g id="a_edge44_Node000058_Node000516"><a xlink:title=" ">
<path fill="none" stroke="#63b8ff" d="M369.46,-596.63C357.1,-619.63 333.3,-656.2 300.5,-671.62 236.61,-701.68 151.9,-691.02 102.94,-680.7"/>
<polygon fill="#63b8ff" stroke="#63b8ff" points="372.48,-598.42 373.91,-587.92 366.24,-595.23 372.48,-598.42"/>
</a>
</g>
</g>
<!-- Node517 -->
<g id="Node000517" class="node">
<title>Node517</title>
<g id="a_Node000517"><a xlink:href="../../d4/d0c/str-buf-gsm_8c.html#aa30b8086905c0a380d38dcf2be4f58fc" target="_top" xlink:title=" ">
<polygon fill="#fff0f0" stroke="red" points="124.75,-643.25 0,-643.25 0,-624 124.75,-624 124.75,-643.25"/>
<text text-anchor="middle" x="62.38" y="-629.75" font-family="Helvetica,sans-Serif" font-size="10.00">sb_conv_from_gsm_plan</text>
</a>
</g>
</g>
<!-- Node58&#45;&gt;Node517 -->
<g id="edge45_Node000058_Node000517" class="edge">
<title>Node58&#45;&gt;Node517</title>
<g id="a_edge45_Node000058_Node000517"><a xlink:title=" ">
<path fill="none" stroke="#63b8ff" d="M342.37,-586.14C329.21,-589.37 314.24,-592.87 300.5,-595.62 241.23,-607.52 173.03,-618.13 125.03,-625.1"/>
<polygon fill="#63b8ff" stroke="#63b8ff" points="343.07,-589.57 351.92,-583.75 341.37,-582.78 343.07,-589.57"/>
</a>
</g>
</g>
<!-- Node480 -->
<g id="Node000480" class="node">
<title>Node480</title>
<g id="a_Node000480"><a xlink:href="../../d4/d0c/str-buf-gsm_8c.html#af5aeec1c7245f84d80fb295df95dcad4" target="_top" xlink:title=" ">
<polygon fill="white" stroke="#666666" points="284,-586.25 177.25,-586.25 177.25,-567 284,-567 284,-586.25"/>
<text text-anchor="middle" x="230.62" y="-572.75" font-family="Helvetica,sans-Serif" font-size="10.00">sb_conv_from_gsm7</text>
</a>
</g>
</g>
<!-- Node58&#45;&gt;Node480 -->
<g id="edge43_Node000058_Node000480" class="edge">
<title>Node58&#45;&gt;Node480</title>
<g id="a_edge43_Node000058_Node000480"><a xlink:title=" ">
<path fill="none" stroke="#63b8ff" d="M342.03,-576.62C324.62,-576.62 303.54,-576.62 284.5,-576.62"/>
<polygon fill="#63b8ff" stroke="#63b8ff" points="341.92,-580.13 351.92,-576.63 341.92,-573.13 341.92,-580.13"/>
</a>
</g>
</g>
<!-- Node519 -->
<g id="Node000519" class="node">
<title>Node519</title>
<g id="a_Node000519"><a xlink:href="../../d4/d9a/str-conv_8c.html#a5a7a5fb17ed99a0cd7d4e7fb244b4b46" target="_top" xlink:title=" ">
<polygon fill="#fff0f0" stroke="red" points="292.62,-549.25 168.62,-549.25 168.62,-530 292.62,-530 292.62,-549.25"/>
<text text-anchor="middle" x="230.62" y="-535.75" font-family="Helvetica,sans-Serif" font-size="10.00">sb_conv_from_ucs2_hex</text>
</a>
</g>
</g>
<!-- Node58&#45;&gt;Node519 -->
<g id="edge46_Node000058_Node000519" class="edge">
<title>Node58&#45;&gt;Node519</title>
<g id="a_edge46_Node000058_Node000519"><a xlink:title=" ">
<path fill="none" stroke="#63b8ff" d="M342.46,-567.43C320.97,-562.04 293.8,-555.22 271.74,-549.69"/>
<polygon fill="#63b8ff" stroke="#63b8ff" points="341.41,-570.77 351.96,-569.81 343.12,-563.98 341.41,-570.77"/>
</a>
</g>
</g>
<!-- Node522 -->
<g id="Node000522" class="node">
<title>Node522</title>
<g id="a_Node000522"><a xlink:href="../../d4/d0c/str-buf-gsm_8c.html#a56f7fec3ffd510b90b351d2e9001b252" target="_top" xlink:title=" ">
<polygon fill="white" stroke="#666666" points="275.75,-512.25 185.5,-512.25 185.5,-493 275.75,-493 275.75,-512.25"/>
<text text-anchor="middle" x="230.62" y="-498.75" font-family="Helvetica,sans-Serif" font-size="10.00">sb_conv_to_gsm</text>
</a>
</g>
</g>
<!-- Node58&#45;&gt;Node522 -->
<g id="edge47_Node000058_Node000522" class="edge">
<title>Node58&#45;&gt;Node522</title>
<g id="a_edge47_Node000058_Node000522"><a xlink:title=" ">
<path fill="none" stroke="#63b8ff" d="M359.47,-559.53C344.28,-547.12 322.25,-530.79 300.5,-520.62 292.89,-517.07 284.46,-514.13 276.18,-511.73"/>
<polygon fill="#63b8ff" stroke="#63b8ff" points="356.9,-561.94 366.81,-565.68 361.4,-556.58 356.9,-561.94"/>
</a>
</g>
</g>
<!-- Node523 -->
<g id="Node000523" class="node">
<title>Node523</title>
<g id="a_Node000523"><a xlink:href="../../d4/d0c/str-buf-gsm_8c.html#a485d53a69239633acc3348483fc6ee98" target="_top" xlink:title=" ">
<polygon fill="white" stroke="#666666" points="285.88,-475.25 175.38,-475.25 175.38,-456 285.88,-456 285.88,-475.25"/>
<text text-anchor="middle" x="230.62" y="-461.75" font-family="Helvetica,sans-Serif" font-size="10.00">sb_conv_to_gsm_hex</text>
</a>
</g>
</g>
<!-- Node58&#45;&gt;Node523 -->
<g id="edge48_Node000058_Node000523" class="edge">
<title>Node58&#45;&gt;Node523</title>
<g id="a_edge48_Node000058_Node000523"><a xlink:title=" ">
<path fill="none" stroke="#63b8ff" d="M367.81,-557.15C354.43,-535.87 330.19,-502.33 300.5,-483.62 295.48,-480.46 289.92,-477.85 284.2,-475.7"/>
<polygon fill="#63b8ff" stroke="#63b8ff" points="364.67,-558.72 372.84,-565.46 370.65,-555.09 364.67,-558.72"/>
</a>
</g>
</g>
<!-- Node524 -->
<g id="Node000524" class="node">
<title>Node524</title>
<g id="a_Node000524"><a xlink:href="../../d4/d9a/str-conv_8c.html#a5df1cbb5252177efef68fc9684963c1a" target="_top" xlink:title=" ">
<polygon fill="white" stroke="#666666" points="282.12,-997.25 179.12,-997.25 179.12,-978 282.12,-978 282.12,-997.25"/>
<text text-anchor="middle" x="230.62" y="-983.75" font-family="Helvetica,sans-Serif" font-size="10.00">sb_conv_to_ucs2be</text>
</a>
</g>
</g>
<!-- Node58&#45;&gt;Node524 -->
<g id="edge49_Node000058_Node000524" class="edge">
<title>Node58&#45;&gt;Node524</title>
<g id="a_edge49_Node000058_Node000524"><a xlink:title=" ">
<path fill="none" stroke="#63b8ff" d="M377.78,-597.89C372.68,-671.64 352.19,-914.84 300.5,-969.62 295.5,-974.93 289.14,-978.74 282.32,-981.48"/>
<polygon fill="#63b8ff" stroke="#63b8ff" points="381.26,-598.24 378.43,-588.03 374.28,-597.78 381.26,-598.24"/>
</a>
</g>
</g>
<!-- Node525 -->
<g id="Node000525" class="node">
<title>Node525</title>
<g id="a_Node000525"><a xlink:href="../../d4/d9a/str-conv_8c.html#a2f33116471ecb78c559d0a2f8156e469" target="_top" xlink:title=" ">
<polygon fill="white" stroke="#666666" points="292.25,-960.25 169,-960.25 169,-941 292.25,-941 292.25,-960.25"/>
<text text-anchor="middle" x="230.62" y="-946.75" font-family="Helvetica,sans-Serif" font-size="10.00">sb_conv_to_ucs2be_hex</text>
</a>
</g>
</g>
<!-- Node58&#45;&gt;Node525 -->
<g id="edge50_Node000058_Node000525" class="edge">
<title>Node58&#45;&gt;Node525</title>
<g id="a_edge50_Node000058_Node000525"><a xlink:title=" ">
<path fill="none" stroke="#63b8ff" d="M377.32,-597.67C370.99,-666.55 347.61,-883.68 300.5,-932.62 297.5,-935.74 294.03,-938.34 290.28,-940.51"/>
<polygon fill="#63b8ff" stroke="#63b8ff" points="380.77,-598.38 378.17,-588.11 373.8,-597.76 380.77,-598.38"/>
</a>
</g>
</g>
<!-- Node526 -->
<g id="Node000526" class="node">
<title>Node526</title>
<g id="a_Node000526"><a xlink:href="../../d4/d9a/str-conv_8c.html#abe559472f2ca3505d94da2f4bf94374a" target="_top" xlink:title=" ">
<polygon fill="white" stroke="#666666" points="280.62,-923.25 180.62,-923.25 180.62,-904 280.62,-904 280.62,-923.25"/>
<text text-anchor="middle" x="230.62" y="-909.75" font-family="Helvetica,sans-Serif" font-size="10.00">sb_conv_to_ucs2le</text>
</a>
</g>
</g>
<!-- Node58&#45;&gt;Node526 -->
<g id="edge51_Node000058_Node000526" class="edge">
<title>Node58&#45;&gt;Node526</title>
<g id="a_edge51_Node000058_Node000526"><a xlink:title=" ">
<path fill="none" stroke="#63b8ff" d="M376.71,-597.93C368.99,-662.24 342.93,-852.59 300.5,-895.62 295.12,-901.08 288.31,-904.95 281.07,-907.68"/>
<polygon fill="#63b8ff" stroke="#63b8ff" points="380.18,-598.37 377.86,-588.03 373.23,-597.55 380.18,-598.37"/>
</a>
</g>
</g>
<!-- Node475&#45;&gt;Node516 -->
<g id="edge41_Node000475_Node000516" class="edge">
<title>Node475&#45;&gt;Node516</title>
<g id="a_edge41_Node000475_Node000516"><a xlink:title=" ">
<path fill="none" stroke="#63b8ff" d="M190.01,-656.91C170.13,-659.07 145.62,-661.72 123.49,-664.12"/>
<polygon fill="#63b8ff" stroke="#63b8ff" points="190.35,-660.4 199.92,-655.84 189.6,-653.44 190.35,-660.4"/>
</a>
</g>
</g>
<!-- Node475&#45;&gt;Node517 -->
<g id="edge42_Node000475_Node000517" class="edge">
<title>Node475&#45;&gt;Node517</title>
<g id="a_edge42_Node000475_Node000517"><a xlink:title=" ">
<path fill="none" stroke="#63b8ff" d="M189.99,-648.1C170.64,-645.88 146.9,-643.17 125.23,-640.69"/>
<polygon fill="#63b8ff" stroke="#63b8ff" points="189.59,-651.57 199.92,-649.23 190.38,-644.62 189.59,-651.57"/>
</a>
</g>
</g>
<!-- Node652&#45;&gt;Node408 -->
<g id="edge53_Node000652_Node000408" class="edge">
<title>Node652&#45;&gt;Node408</title>
<g id="a_edge53_Node000652_Node000408"><a xlink:title=" ">
<path fill="none" stroke="#63b8ff" d="M364.25,-1025.17C349.71,-1042.06 326.1,-1066.46 300.5,-1080.62 289.69,-1086.61 276.81,-1090.66 265.13,-1093.38"/>
<polygon fill="#63b8ff" stroke="#63b8ff" points="366.65,-1027.75 370.37,-1017.83 361.27,-1023.27 366.65,-1027.75"/>
</a>
</g>
</g>
<!-- Node652&#45;&gt;Node409 -->
<g id="edge54_Node000652_Node000409" class="edge">
<title>Node652&#45;&gt;Node409</title>
<g id="a_edge54_Node000652_Node000409"><a xlink:title=" ">
<path fill="none" stroke="#63b8ff" d="M350.5,-1021.65C335.83,-1028.95 317.51,-1037.46 300.5,-1043.62 292.13,-1046.66 283.03,-1049.41 274.25,-1051.8"/>
<polygon fill="#63b8ff" stroke="#63b8ff" points="351.79,-1024.93 359.13,-1017.28 348.62,-1018.68 351.79,-1024.93"/>
</a>
</g>
</g>
<!-- Node652&#45;&gt;Node447 -->
<g id="edge55_Node000652_Node000447" class="edge">
<title>Node652&#45;&gt;Node447</title>
<g id="a_edge55_Node000652_Node000447"><a xlink:title=" ">
<path fill="none" stroke="#63b8ff" d="M335.76,-1011.92C317.73,-1014.12 296.78,-1016.67 278.41,-1018.92"/>
<polygon fill="#63b8ff" stroke="#63b8ff" points="336.11,-1015.4 345.62,-1010.71 335.27,-1008.45 336.11,-1015.4"/>
</a>
</g>
</g>
<!-- Node652&#45;&gt;Node524 -->
<g id="edge56_Node000652_Node000524" class="edge">
<title>Node652&#45;&gt;Node524</title>
<g id="a_edge56_Node000652_Node000524"><a xlink:title=" ">
<path fill="none" stroke="#63b8ff" d="M335.97,-1001.07C319.2,-998.91 299.86,-996.41 282.42,-994.17"/>
<polygon fill="#63b8ff" stroke="#63b8ff" points="335.25,-1004.5 345.62,-1002.31 336.15,-997.56 335.25,-1004.5"/>
</a>
</g>
</g>
<!-- Node652&#45;&gt;Node525 -->
<g id="edge57_Node000652_Node000525" class="edge">
<title>Node652&#45;&gt;Node525</title>
<g id="a_edge57_Node000652_Node000525"><a xlink:title=" ">
<path fill="none" stroke="#63b8ff" d="M350.84,-991.3C336.13,-983.76 317.67,-974.95 300.5,-968.62 292.5,-965.68 283.81,-963.01 275.38,-960.69"/>
<polygon fill="#63b8ff" stroke="#63b8ff" points="349,-994.29 359.48,-995.82 352.24,-988.08 349,-994.29"/>
</a>
</g>
</g>
<!-- Node652&#45;&gt;Node526 -->
<g id="edge58_Node000652_Node000526" class="edge">
<title>Node652&#45;&gt;Node526</title>
<g id="a_edge58_Node000652_Node000526"><a xlink:title=" ">
<path fill="none" stroke="#63b8ff" d="M364.53,-988.1C350.06,-970.97 326.36,-946.04 300.5,-931.62 294.46,-928.25 287.76,-925.5 280.99,-923.25"/>
<polygon fill="#63b8ff" stroke="#63b8ff" points="361.57,-990.01 370.62,-995.53 366.99,-985.58 361.57,-990.01"/>
</a>
</g>
</g>
</g>
</svg>
