<?xml version="1.0" encoding="UTF-8" standalone="no"?>
<!DOCTYPE svg PUBLIC "-//W3C//DTD SVG 1.1//EN"
 "http://www.w3.org/Graphics/SVG/1.1/DTD/svg11.dtd">
<!-- Generated by graphviz version 9.0.0 (20230911.1827)
 -->
<!-- Title: core_mem_set_malloc_trim_period Pages: 1 -->
<svg width="1728pt" height="442pt"
 viewBox="0.00 0.00 1728.25 441.78" xmlns="http://www.w3.org/2000/svg" xmlns:xlink="http://www.w3.org/1999/xlink">
<g id="graph0" class="graph" transform="scale(1 1) rotate(0) translate(4 437.78)">
<title>core_mem_set_malloc_trim_period</title>
<!-- Node1 -->
<g id="Node000001" class="node">
<title>Node1</title>
<g id="a_Node000001"><a xlink:title="Set the period for the cron that calls malloc_trim().">
<polygon fill="#999999" stroke="#666666" points="114.25,-146.88 0,-146.88 0,-116.38 114.25,-116.38 114.25,-146.88"/>
<text text-anchor="start" x="8" y="-133.38" font-family="Helvetica,sans-Serif" font-size="10.00">core_mem_set_malloc</text>
<text text-anchor="middle" x="57.12" y="-122.12" font-family="Helvetica,sans-Serif" font-size="10.00">_trim_period</text>
</a>
</g>
</g>
<!-- Node2 -->
<g id="Node000002" class="node">
<title>Node2</title>
<g id="a_Node000002"><a xlink:href="../../d9/dab/group__el__timers.html#ga7b28953c27a73e031f8ebccf1bd58973" target="_top" xlink:title=" ">
<polygon fill="white" stroke="#666666" points="238.25,-264.25 150.25,-264.25 150.25,-245 238.25,-245 238.25,-264.25"/>
<text text-anchor="middle" x="194.25" y="-250.75" font-family="Helvetica,sans-Serif" font-size="10.00">el_timer_register</text>
</a>
</g>
</g>
<!-- Node1&#45;&gt;Node2 -->
<g id="edge1_Node000001_Node000002" class="edge">
<title>Node1&#45;&gt;Node2</title>
<g id="a_edge1_Node000001_Node000002"><a xlink:title=" ">
<path fill="none" stroke="#63b8ff" d="M75.24,-147.2C100.4,-170.1 147.23,-212.74 173.71,-236.83"/>
<polygon fill="#63b8ff" stroke="#63b8ff" points="171.28,-239.36 181.03,-243.5 175.99,-234.18 171.28,-239.36"/>
</a>
</g>
</g>
<!-- Node36 -->
<g id="Node000036" class="node">
<title>Node36</title>
<g id="a_Node000036"><a xlink:href="../../da/d9c/group__lc__el.html#ga41c7f8deedc1eb73f14c2500fecc3322" target="_top" xlink:title=" ">
<polygon fill="white" stroke="#666666" points="219.5,-85.25 169,-85.25 169,-66 219.5,-66 219.5,-85.25"/>
<text text-anchor="middle" x="194.25" y="-71.75" font-family="Helvetica,sans-Serif" font-size="10.00">el_unref</text>
</a>
</g>
</g>
<!-- Node1&#45;&gt;Node36 -->
<g id="edge42_Node000001_Node000036" class="edge">
<title>Node1&#45;&gt;Node36</title>
<g id="a_edge42_Node000001_Node000036"><a xlink:title=" ">
<path fill="none" stroke="#63b8ff" d="M96.12,-115.88C115.79,-107.73 139.62,-97.85 158.76,-89.92"/>
<polygon fill="#63b8ff" stroke="#63b8ff" points="159.83,-93.26 167.73,-86.2 157.15,-86.8 159.83,-93.26"/>
</a>
</g>
</g>
<!-- Node38 -->
<g id="Node000038" class="node">
<title>Node38</title>
<g id="a_Node000038"><a xlink:href="../../da/d9c/group__lc__el.html#ga21021faf0ef6dc9afe6a01bdde5463e7" target="_top" xlink:title=" ">
<polygon fill="white" stroke="#666666" points="230,-170.25 158.5,-170.25 158.5,-151 230,-151 230,-170.25"/>
<text text-anchor="middle" x="194.25" y="-156.75" font-family="Helvetica,sans-Serif" font-size="10.00">el_unregister</text>
</a>
</g>
</g>
<!-- Node1&#45;&gt;Node38 -->
<g id="edge44_Node000001_Node000038" class="edge">
<title>Node1&#45;&gt;Node38</title>
<g id="a_edge44_Node000001_Node000038"><a xlink:title=" ">
<path fill="none" stroke="#63b8ff" d="M114.65,-143.76C125.48,-146.08 136.71,-148.49 147.16,-150.73"/>
<polygon fill="#63b8ff" stroke="#63b8ff" points="146.16,-154.1 156.68,-152.78 147.63,-147.25 146.16,-154.1"/>
</a>
</g>
</g>
<!-- Node47 -->
<g id="Node000047" class="node">
<title>Node47</title>
<g id="a_Node000047"><a xlink:href="../../d6/df4/rand_8c.html#a67d27a4cb80856f44e2b5b64f0ac2c8e" target="_top" xlink:title="Generate a random integer in the range [first,last].">
<polygon fill="white" stroke="#666666" points="226.25,-48.25 162.25,-48.25 162.25,-29 226.25,-29 226.25,-48.25"/>
<text text-anchor="middle" x="194.25" y="-34.75" font-family="Helvetica,sans-Serif" font-size="10.00">rand_range</text>
</a>
</g>
</g>
<!-- Node1&#45;&gt;Node47 -->
<g id="edge61_Node000001_Node000047" class="edge">
<title>Node1&#45;&gt;Node47</title>
<g id="a_edge61_Node000001_Node000047"><a xlink:title=" ">
<path fill="none" stroke="#63b8ff" d="M74.35,-115.96C91.95,-99.59 121.41,-73.9 150.25,-56.62 152.07,-55.53 153.97,-54.48 155.92,-53.46"/>
<polygon fill="#63b8ff" stroke="#63b8ff" points="156.96,-56.84 164.47,-49.37 153.94,-50.53 156.96,-56.84"/>
</a>
</g>
</g>
<!-- Node3 -->
<g id="Node000003" class="node">
<title>Node3</title>
<g id="a_Node000003"><a xlink:href="../../da/d9c/group__lc__el.html#ga4c548a1711f5d2be37f5b490358deb9b" target="_top" xlink:title="registers a timer">
<polygon fill="white" stroke="#666666" points="381.75,-321.25 283.25,-321.25 283.25,-302 381.75,-302 381.75,-321.25"/>
<text text-anchor="middle" x="332.5" y="-307.75" font-family="Helvetica,sans-Serif" font-size="10.00">el_timer_register_d</text>
</a>
</g>
</g>
<!-- Node2&#45;&gt;Node3 -->
<g id="edge2_Node000002_Node000003" class="edge">
<title>Node2&#45;&gt;Node3</title>
<g id="a_edge2_Node000002_Node000003"><a xlink:title=" ">
<path fill="none" stroke="#63b8ff" d="M219.3,-264.68C240.89,-273.72 272.85,-287.09 297.14,-297.25"/>
<polygon fill="#63b8ff" stroke="#63b8ff" points="295.72,-300.45 306.3,-301.08 298.42,-293.99 295.72,-300.45"/>
</a>
</g>
</g>
<!-- Node4 -->
<g id="Node000004" class="node">
<title>Node4</title>
<g id="a_Node000004"><a xlink:href="../../da/d9c/group__lc__el.html#ga9487d0f1937ac1135614a13892b9b358" target="_top" xlink:title=" ">
<polygon fill="white" stroke="#666666" points="523.75,-357.25 468,-357.25 468,-338 523.75,-338 523.75,-357.25"/>
<text text-anchor="middle" x="495.88" y="-343.75" font-family="Helvetica,sans-Serif" font-size="10.00">el_create</text>
</a>
</g>
</g>
<!-- Node3&#45;&gt;Node4 -->
<g id="edge3_Node000003_Node000004" class="edge">
<title>Node3&#45;&gt;Node4</title>
<g id="a_edge3_Node000003_Node000004"><a xlink:title=" ">
<path fill="none" stroke="#63b8ff" d="M378.88,-321.75C403.28,-327.19 433.06,-333.83 456.33,-339.03"/>
<polygon fill="#63b8ff" stroke="#63b8ff" points="455.51,-342.43 466.03,-341.19 457.03,-335.6 455.51,-342.43"/>
</a>
</g>
</g>
<!-- Node34 -->
<g id="Node000034" class="node">
<title>Node34</title>
<g id="a_Node000034"><a xlink:href="../../da/d9c/group__lc__el.html#gaee26c840849fc95bf4f59d44bfd5f5a6" target="_top" xlink:title=" ">
<polygon fill="white" stroke="#666666" points="565,-320.25 426.75,-320.25 426.75,-301 565,-301 565,-320.25"/>
<text text-anchor="middle" x="495.88" y="-306.75" font-family="Helvetica,sans-Serif" font-size="10.00">el_timer_compute_tolerance</text>
</a>
</g>
</g>
<!-- Node3&#45;&gt;Node34 -->
<g id="edge40_Node000003_Node000034" class="edge">
<title>Node3&#45;&gt;Node34</title>
<g id="a_edge40_Node000003_Node000034"><a xlink:title=" ">
<path fill="none" stroke="#63b8ff" d="M381.92,-311.32C392.43,-311.26 403.82,-311.19 415.18,-311.12"/>
<polygon fill="#63b8ff" stroke="#63b8ff" points="415.01,-314.62 424.99,-311.06 414.97,-307.62 415.01,-314.62"/>
</a>
</g>
</g>
<!-- Node35 -->
<g id="Node000035" class="node">
<title>Node35</title>
<g id="a_Node000035"><a xlink:href="../../da/d9c/group__lc__el.html#ga8065751e67724b8a633efe591a50d643" target="_top" xlink:title=" ">
<polygon fill="white" stroke="#666666" points="524.88,-283.25 466.88,-283.25 466.88,-264 524.88,-264 524.88,-283.25"/>
<text text-anchor="middle" x="495.88" y="-269.75" font-family="Helvetica,sans-Serif" font-size="10.00">get_clock</text>
</a>
</g>
</g>
<!-- Node3&#45;&gt;Node35 -->
<g id="edge41_Node000003_Node000035" class="edge">
<title>Node3&#45;&gt;Node35</title>
<g id="a_edge41_Node000003_Node000035"><a xlink:title=" ">
<path fill="none" stroke="#63b8ff" d="M376.32,-301.54C400.88,-295.76 431.48,-288.55 455.45,-282.91"/>
<polygon fill="#63b8ff" stroke="#63b8ff" points="456.22,-286.32 465.15,-280.63 454.61,-279.51 456.22,-286.32"/>
</a>
</g>
</g>
<!-- Node5 -->
<g id="Node000005" class="node">
<title>Node5</title>
<g id="a_Node000005"><a xlink:href="../../de/d1a/container-dlist_8h.html#a0a69e401f6ec15966c891e96ad864c77" target="_top" xlink:title="Put a dlist_t element in a safe and detached state.">
<polygon fill="white" stroke="#666666" points="1077.5,-432.25 1025.5,-432.25 1025.5,-413 1077.5,-413 1077.5,-432.25"/>
<text text-anchor="middle" x="1051.5" y="-418.75" font-family="Helvetica,sans-Serif" font-size="10.00">dlist_init</text>
</a>
</g>
</g>
<!-- Node4&#45;&gt;Node5 -->
<g id="edge4_Node000004_Node000005" class="edge">
<title>Node4&#45;&gt;Node5</title>
<g id="a_edge4_Node000004_Node000005"><a xlink:title=" ">
<path fill="none" stroke="#63b8ff" d="M510.49,-357.59C529.6,-370.92 565.96,-394.01 601,-403.62 749.66,-444.42 936.28,-433.61 1013.96,-426.51"/>
<polygon fill="#63b8ff" stroke="#63b8ff" points="1013.91,-430.03 1023.53,-425.6 1013.25,-423.06 1013.91,-430.03"/>
</a>
</g>
</g>
<!-- Node6 -->
<g id="Node000006" class="node">
<title>Node6</title>
<g id="a_Node000006"><a xlink:href="../../de/d1a/container-dlist_8h.html#a09103296d7ba39784005e7402529a9c0" target="_top" xlink:title="Return true if the list has no element.">
<polygon fill="white" stroke="#666666" points="683.75,-357.25 605.5,-357.25 605.5,-338 683.75,-338 683.75,-357.25"/>
<text text-anchor="middle" x="644.62" y="-343.75" font-family="Helvetica,sans-Serif" font-size="10.00">dlist_is_empty</text>
</a>
</g>
</g>
<!-- Node4&#45;&gt;Node6 -->
<g id="edge5_Node000004_Node000006" class="edge">
<title>Node4&#45;&gt;Node6</title>
<g id="a_edge5_Node000004_Node000006"><a xlink:title=" ">
<path fill="none" stroke="#63b8ff" d="M524.13,-347.62C543.63,-347.62 570.44,-347.62 593.72,-347.62"/>
<polygon fill="#63b8ff" stroke="#63b8ff" points="593.66,-351.13 603.66,-347.63 593.66,-344.13 593.66,-351.13"/>
</a>
</g>
</g>
<!-- Node7 -->
<g id="Node000007" class="node">
<title>Node7</title>
<g id="a_Node000007"><a xlink:href="../../de/d1a/container-dlist_8h.html#a14167c2a5ebeec326a085645ab7ca07d" target="_top" xlink:title="Remove element e from the list and re&#45;init e.">
<polygon fill="white" stroke="#666666" points="680.38,-394.25 608.88,-394.25 608.88,-375 680.38,-375 680.38,-394.25"/>
<text text-anchor="middle" x="644.62" y="-380.75" font-family="Helvetica,sans-Serif" font-size="10.00">dlist_remove</text>
</a>
</g>
</g>
<!-- Node4&#45;&gt;Node7 -->
<g id="edge6_Node000004_Node000007" class="edge">
<title>Node4&#45;&gt;Node7</title>
<g id="a_edge6_Node000004_Node000007"><a xlink:title=" ">
<path fill="none" stroke="#63b8ff" d="M524.13,-354.5C544.67,-359.68 573.31,-366.9 597.41,-372.97"/>
<polygon fill="#63b8ff" stroke="#63b8ff" points="596.44,-376.34 606.99,-375.39 598.15,-369.55 596.44,-376.34"/>
</a>
</g>
</g>
<!-- Node9 -->
<g id="Node000009" class="node">
<title>Node9</title>
<g id="a_Node000009"><a xlink:href="../../d7/df8/log_8c.html#abca342edf91a9b45f7a17ef564fa8a53" target="_top" xlink:title=" ">
<polygon fill="white" stroke="#666666" points="669.5,-226.25 619.75,-226.25 619.75,-207 669.5,-207 669.5,-226.25"/>
<text text-anchor="middle" x="644.62" y="-212.75" font-family="Helvetica,sans-Serif" font-size="10.00">e_panic</text>
</a>
</g>
</g>
<!-- Node4&#45;&gt;Node9 -->
<g id="edge9_Node000004_Node000009" class="edge">
<title>Node4&#45;&gt;Node9</title>
<g id="a_edge9_Node000004_Node000009"><a xlink:title=" ">
<path fill="none" stroke="#63b8ff" d="M524.2,-346.19C537.9,-344.15 553.9,-339.6 565,-329.62 598.29,-299.74 570.22,-268.09 601,-235.62 603.43,-233.06 606.27,-230.82 609.31,-228.87"/>
<polygon fill="#63b8ff" stroke="#63b8ff" points="610.86,-232 618.09,-224.26 607.61,-225.8 610.86,-232"/>
</a>
</g>
</g>
<!-- Node32 -->
<g id="Node000032" class="node">
<title>Node32</title>
<g id="a_Node000032"><a xlink:href="../../da/d9c/group__lc__el.html#gad155841eb72a0568609d15e76f2a6dab" target="_top" xlink:title=" ">
<polygon fill="white" stroke="#666666" points="664.62,-320.25 624.62,-320.25 624.62,-301 664.62,-301 664.62,-320.25"/>
<text text-anchor="middle" x="644.62" y="-306.75" font-family="Helvetica,sans-Serif" font-size="10.00">el_ref</text>
</a>
</g>
</g>
<!-- Node4&#45;&gt;Node32 -->
<g id="edge38_Node000004_Node000032" class="edge">
<title>Node4&#45;&gt;Node32</title>
<g id="a_edge38_Node000004_Node000032"><a xlink:title=" ">
<path fill="none" stroke="#63b8ff" d="M524.13,-340.75C549.55,-334.34 587.38,-324.81 613.64,-318.19"/>
<polygon fill="#63b8ff" stroke="#63b8ff" points="614.15,-321.67 622.99,-315.83 612.44,-314.88 614.15,-321.67"/>
</a>
</g>
</g>
<!-- Node33 -->
<g id="Node000033" class="node">
<title>Node33</title>
<g id="a_Node000033"><a xlink:href="../../da/d9c/group__lc__el.html#gaccec83ad6b55ca39e654bb9d5389c09d" target="_top" xlink:title=" ">
<polygon fill="white" stroke="#666666" points="684.5,-189.25 604.75,-189.25 604.75,-170 684.5,-170 684.5,-189.25"/>
<text text-anchor="middle" x="644.62" y="-175.75" font-family="Helvetica,sans-Serif" font-size="10.00">ev_type_to_str</text>
</a>
</g>
</g>
<!-- Node4&#45;&gt;Node33 -->
<g id="edge39_Node000004_Node000033" class="edge">
<title>Node4&#45;&gt;Node33</title>
<g id="a_edge39_Node000004_Node000033"><a xlink:title=" ">
<path fill="none" stroke="#63b8ff" d="M523.94,-346.72C537.91,-344.87 554.23,-340.31 565,-329.62 608.17,-286.8 560.96,-243.39 601,-197.62 601.26,-197.33 601.52,-197.04 601.79,-196.75"/>
<polygon fill="#63b8ff" stroke="#63b8ff" points="603.89,-199.56 609.61,-190.64 599.58,-194.04 603.89,-199.56"/>
</a>
</g>
</g>
<!-- Node7&#45;&gt;Node5 -->
<g id="edge8_Node000007_Node000005" class="edge">
<title>Node7&#45;&gt;Node5</title>
<g id="a_edge8_Node000007_Node000005"><a xlink:title=" ">
<path fill="none" stroke="#63b8ff" d="M680.85,-387.93C757.16,-395.09 937.08,-411.98 1014.28,-419.23"/>
<polygon fill="#63b8ff" stroke="#63b8ff" points="1013.54,-422.67 1023.82,-420.12 1014.19,-415.7 1013.54,-422.67"/>
</a>
</g>
</g>
<!-- Node8 -->
<g id="Node000008" class="node">
<title>Node8</title>
<g id="a_Node000008"><a xlink:href="../../de/d1a/container-dlist_8h.html#a1ea330e4089b402d22627e6c7596f2ce" target="_top" xlink:title=" ">
<polygon fill="white" stroke="#666666" points="809.25,-367.25 727.25,-367.25 727.25,-348 809.25,-348 809.25,-367.25"/>
<text text-anchor="middle" x="768.25" y="-353.75" font-family="Helvetica,sans-Serif" font-size="10.00">__dlist_remove</text>
</a>
</g>
</g>
<!-- Node7&#45;&gt;Node8 -->
<g id="edge7_Node000007_Node000008" class="edge">
<title>Node7&#45;&gt;Node8</title>
<g id="a_edge7_Node000007_Node000008"><a xlink:title=" ">
<path fill="none" stroke="#63b8ff" d="M680.8,-376.82C691.76,-374.38 704.07,-371.65 715.89,-369.03"/>
<polygon fill="#63b8ff" stroke="#63b8ff" points="716.53,-372.47 725.53,-366.89 715.01,-365.64 716.53,-372.47"/>
</a>
</g>
</g>
<!-- Node10 -->
<g id="Node000010" class="node">
<title>Node10</title>
<g id="a_Node000010"><a xlink:href="../../d7/df8/log_8c.html#a4bc04f7baa1e064cb0b93c7b9f3a61a1" target="_top" xlink:title=" ">
<polygon fill="white" stroke="#666666" points="812.25,-316.25 724.25,-316.25 724.25,-297 812.25,-297 812.25,-316.25"/>
<text text-anchor="middle" x="768.25" y="-302.75" font-family="Helvetica,sans-Serif" font-size="10.00">__logger_refresh</text>
</a>
</g>
</g>
<!-- Node9&#45;&gt;Node10 -->
<g id="edge10_Node000009_Node000010" class="edge">
<title>Node9&#45;&gt;Node10</title>
<g id="a_edge10_Node000009_Node000010"><a xlink:title=" ">
<path fill="none" stroke="#63b8ff" d="M669.76,-225.81C675.99,-228.6 682.54,-231.92 688.25,-235.62 711.78,-250.9 735.25,-273.1 750.41,-288.59"/>
<polygon fill="#63b8ff" stroke="#63b8ff" points="747.82,-290.95 757.27,-295.74 752.88,-286.1 747.82,-290.95"/>
</a>
</g>
</g>
<!-- Node27 -->
<g id="Node000027" class="node">
<title>Node27</title>
<g id="a_Node000027"><a xlink:href="../../d7/df8/log_8c.html#a900490b26df7698aac12f7f7e6517e81" target="_top" xlink:title=" ">
<polygon fill="white" stroke="#666666" points="801,-189.25 735.5,-189.25 735.5,-170 801,-170 801,-189.25"/>
<text text-anchor="middle" x="768.25" y="-175.75" font-family="Helvetica,sans-Serif" font-size="10.00">logger_vlog</text>
</a>
</g>
</g>
<!-- Node9&#45;&gt;Node27 -->
<g id="edge32_Node000009_Node000027" class="edge">
<title>Node9&#45;&gt;Node27</title>
<g id="a_edge32_Node000009_Node000027"><a xlink:title=" ">
<path fill="none" stroke="#63b8ff" d="M669.95,-209.23C685.45,-204.51 705.96,-198.27 724.16,-192.73"/>
<polygon fill="#63b8ff" stroke="#63b8ff" points="725.13,-196.1 733.68,-189.84 723.1,-189.4 725.13,-196.1"/>
</a>
</g>
</g>
<!-- Node31 -->
<g id="Node000031" class="node">
<title>Node31</title>
<g id="a_Node000031"><a xlink:href="../../d2/d4d/file_8h.html#a25419a391fdd4ad7954699c58cfeb3b9" target="_top" xlink:title=" ">
<polygon fill="white" stroke="#666666" points="793.88,-226.25 742.62,-226.25 742.62,-207 793.88,-207 793.88,-226.25"/>
<text text-anchor="middle" x="768.25" y="-212.75" font-family="Helvetica,sans-Serif" font-size="10.00">va_start</text>
</a>
</g>
</g>
<!-- Node9&#45;&gt;Node31 -->
<g id="edge37_Node000009_Node000031" class="edge">
<title>Node9&#45;&gt;Node31</title>
<g id="a_edge37_Node000009_Node000031"><a xlink:title=" ">
<path fill="none" stroke="#63b8ff" d="M669.95,-216.62C687.36,-216.62 711.12,-216.62 730.8,-216.62"/>
<polygon fill="#63b8ff" stroke="#63b8ff" points="730.62,-220.13 740.62,-216.63 730.62,-213.13 730.62,-220.13"/>
</a>
</g>
</g>
<!-- Node11 -->
<g id="Node000011" class="node">
<title>Node11</title>
<g id="a_Node000011"><a xlink:href="../../d7/df8/log_8c.html#a3dbd75fb614210f0b114cfd03c9c0a7b" target="_top" xlink:title=" ">
<polygon fill="white" stroke="#666666" points="952,-376.25 848.25,-376.25 848.25,-357 952,-357 952,-376.25"/>
<text text-anchor="middle" x="900.12" y="-362.75" font-family="Helvetica,sans-Serif" font-size="10.00">__logger_do_refresh</text>
</a>
</g>
</g>
<!-- Node10&#45;&gt;Node11 -->
<g id="edge11_Node000010_Node000011" class="edge">
<title>Node10&#45;&gt;Node11</title>
<g id="a_edge11_Node000010_Node000011"><a xlink:title=" ">
<path fill="none" stroke="#63b8ff" d="M786.45,-316.73C802.21,-325.75 826.35,-338.99 848.25,-348.62 851.37,-350 854.62,-351.34 857.91,-352.64"/>
<polygon fill="#63b8ff" stroke="#63b8ff" points="856.43,-355.82 867.02,-356.06 858.89,-349.27 856.43,-355.82"/>
</a>
</g>
</g>
<!-- Node25 -->
<g id="Node000025" class="node">
<title>Node25</title>
<g id="a_Node000025"><a xlink:href="../../d7/df8/log_8c.html#a7b1b02d1986e1247c2f571af4a2c2854" target="_top" xlink:title=" ">
<polygon fill="white" stroke="#666666" points="937.75,-339.25 862.5,-339.25 862.5,-320 937.75,-320 937.75,-339.25"/>
<text text-anchor="middle" x="900.12" y="-325.75" font-family="Helvetica,sans-Serif" font-size="10.00">log_spin_lock</text>
</a>
</g>
</g>
<!-- Node10&#45;&gt;Node25 -->
<g id="edge30_Node000010_Node000025" class="edge">
<title>Node10&#45;&gt;Node25</title>
<g id="a_edge30_Node000010_Node000025"><a xlink:title=" ">
<path fill="none" stroke="#63b8ff" d="M812.5,-314.28C824.81,-316.46 838.3,-318.85 850.9,-321.08"/>
<polygon fill="#63b8ff" stroke="#63b8ff" points="850.2,-324.52 860.66,-322.81 851.42,-317.62 850.2,-324.52"/>
</a>
</g>
</g>
<!-- Node26 -->
<g id="Node000026" class="node">
<title>Node26</title>
<g id="a_Node000026"><a xlink:href="../../d1/dc0/group__log.html#ga045020bb4af234632f7761f220131c69" target="_top" xlink:title=" ">
<polygon fill="white" stroke="#666666" points="943,-302.25 857.25,-302.25 857.25,-283 943,-283 943,-302.25"/>
<text text-anchor="middle" x="900.12" y="-288.75" font-family="Helvetica,sans-Serif" font-size="10.00">log_spin_unlock</text>
</a>
</g>
</g>
<!-- Node10&#45;&gt;Node26 -->
<g id="edge31_Node000010_Node000026" class="edge">
<title>Node10&#45;&gt;Node26</title>
<g id="a_edge31_Node000010_Node000026"><a xlink:title=" ">
<path fill="none" stroke="#63b8ff" d="M812.5,-301.96C823.12,-300.82 834.62,-299.58 845.66,-298.39"/>
<polygon fill="#63b8ff" stroke="#63b8ff" points="845.88,-301.89 855.45,-297.33 845.13,-294.93 845.88,-301.89"/>
</a>
</g>
</g>
<!-- Node11&#45;&gt;Node5 -->
<g id="edge15_Node000011_Node000005" class="edge">
<title>Node11&#45;&gt;Node5</title>
<g id="a_edge15_Node000011_Node000005"><a xlink:title=" ">
<path fill="none" stroke="#63b8ff" d="M927.83,-376.64C952.02,-385.71 987.86,-399.14 1014.56,-409.15"/>
<polygon fill="#63b8ff" stroke="#63b8ff" points="1013.01,-412.31 1023.61,-412.54 1015.47,-405.75 1013.01,-412.31"/>
</a>
</g>
</g>
<!-- Node11&#45;&gt;Node11 -->
<g id="edge12_Node000011_Node000011" class="edge">
<title>Node11&#45;&gt;Node11</title>
<g id="a_edge12_Node000011_Node000011"><a xlink:title=" ">
<path fill="none" stroke="#63b8ff" d="M879.48,-376.54C870.06,-385.15 876.94,-394.25 900.12,-394.25 912.8,-394.25 920.6,-391.53 923.53,-387.65"/>
<polygon fill="#63b8ff" stroke="#63b8ff" points="926.94,-386.87 921.14,-378.01 920.15,-388.56 926.94,-386.87"/>
</a>
</g>
</g>
<!-- Node12 -->
<g id="Node000012" class="node">
<title>Node12</title>
<g id="a_Node000012"><a xlink:href="../../de/d1a/container-dlist_8h.html#a3b6f65860b212e28f2e28e71eb54d54d" target="_top" xlink:title="Add element e at the head of list l (suited for LIFO).">
<polygon fill="white" stroke="#666666" points="1079,-264.25 1024,-264.25 1024,-245 1079,-245 1079,-264.25"/>
<text text-anchor="middle" x="1051.5" y="-250.75" font-family="Helvetica,sans-Serif" font-size="10.00">dlist_add</text>
</a>
</g>
</g>
<!-- Node11&#45;&gt;Node12 -->
<g id="edge13_Node000011_Node000012" class="edge">
<title>Node11&#45;&gt;Node12</title>
<g id="a_edge13_Node000011_Node000012"><a xlink:title=" ">
<path fill="none" stroke="#63b8ff" d="M940.18,-356.51C944.46,-354.36 948.52,-351.76 952,-348.62 979.75,-323.58 959.52,-296.83 988,-272.62 994.96,-266.71 1003.75,-262.74 1012.54,-260.07"/>
<polygon fill="#63b8ff" stroke="#63b8ff" points="1013.18,-263.52 1022.04,-257.7 1011.49,-256.72 1013.18,-263.52"/>
</a>
</g>
</g>
<!-- Node14 -->
<g id="Node000014" class="node">
<title>Node14</title>
<g id="a_Node000014"><a xlink:href="../../d7/df8/log_8c.html#a4c8fbe8648573312126ce341cf34cba1" target="_top" xlink:title=" ">
<polygon fill="white" stroke="#666666" points="1115,-301.25 988,-301.25 988,-282 1115,-282 1115,-301.25"/>
<text text-anchor="middle" x="1051.5" y="-287.75" font-family="Helvetica,sans-Serif" font-size="10.00">logger_compute_fullname</text>
</a>
</g>
</g>
<!-- Node11&#45;&gt;Node14 -->
<g id="edge16_Node000011_Node000014" class="edge">
<title>Node11&#45;&gt;Node14</title>
<g id="a_edge16_Node000011_Node000014"><a xlink:title=" ">
<path fill="none" stroke="#63b8ff" d="M935.65,-356.54C941.29,-354.3 946.94,-351.66 952,-348.62 970.61,-337.45 969.54,-327.05 988,-315.62 993.9,-311.97 1000.45,-308.72 1007.03,-305.87"/>
<polygon fill="#63b8ff" stroke="#63b8ff" points="1007.91,-309.29 1015.88,-302.31 1005.3,-302.8 1007.91,-309.29"/>
</a>
</g>
</g>
<!-- Node17 -->
<g id="Node000017" class="node">
<title>Node17</title>
<g id="a_Node000017"><a xlink:href="../../df/d0a/str-l_8h.html#ad74dae07179370f3c22e3f026157926e" target="_top" xlink:title="wipe a lstr_t (frees memory if needed).">
<polygon fill="white" stroke="#666666" points="1222.5,-301.25 1167.5,-301.25 1167.5,-282 1222.5,-282 1222.5,-301.25"/>
<text text-anchor="middle" x="1195" y="-287.75" font-family="Helvetica,sans-Serif" font-size="10.00">lstr_wipe</text>
</a>
</g>
</g>
<!-- Node11&#45;&gt;Node17 -->
<g id="edge29_Node000011_Node000017" class="edge">
<title>Node11&#45;&gt;Node17</title>
<g id="a_edge29_Node000011_Node000017"><a xlink:title=" ">
<path fill="none" stroke="#63b8ff" d="M940.62,-356.51C997.18,-342.03 1100.54,-315.56 1156.16,-301.31"/>
<polygon fill="#63b8ff" stroke="#63b8ff" points="1156.99,-304.72 1165.81,-298.84 1155.25,-297.93 1156.99,-304.72"/>
</a>
</g>
</g>
<!-- Node24 -->
<g id="Node000024" class="node">
<title>Node24</title>
<g id="a_Node000024"><a xlink:href="../../df/d0a/str-l_8h.html#a963c22b229774d4b7c106bae4011cb8e" target="_top" xlink:title="Returns whether \v s1 and \v s2 contents are equal.">
<polygon fill="white" stroke="#666666" points="1080.5,-377.25 1022.5,-377.25 1022.5,-358 1080.5,-358 1080.5,-377.25"/>
<text text-anchor="middle" x="1051.5" y="-363.75" font-family="Helvetica,sans-Serif" font-size="10.00">lstr_equal</text>
</a>
</g>
</g>
<!-- Node11&#45;&gt;Node24 -->
<g id="edge28_Node000011_Node000024" class="edge">
<title>Node11&#45;&gt;Node24</title>
<g id="a_edge28_Node000011_Node000024"><a xlink:title=" ">
<path fill="none" stroke="#63b8ff" d="M952.11,-366.97C971.39,-367.1 993.01,-367.24 1011.07,-367.36"/>
<polygon fill="#63b8ff" stroke="#63b8ff" points="1010.82,-370.86 1020.84,-367.43 1010.87,-363.86 1010.82,-370.86"/>
</a>
</g>
</g>
<!-- Node13 -->
<g id="Node000013" class="node">
<title>Node13</title>
<g id="a_Node000013"><a xlink:href="../../de/d1a/container-dlist_8h.html#a71e7667ca0e4b896923788c5851afd24" target="_top" xlink:title="Put element e between prev and next.">
<polygon fill="white" stroke="#666666" points="1227.75,-264.25 1162.25,-264.25 1162.25,-245 1227.75,-245 1227.75,-264.25"/>
<text text-anchor="middle" x="1195" y="-250.75" font-family="Helvetica,sans-Serif" font-size="10.00">__dlist_add</text>
</a>
</g>
</g>
<!-- Node12&#45;&gt;Node13 -->
<g id="edge14_Node000012_Node000013" class="edge">
<title>Node12&#45;&gt;Node13</title>
<g id="a_edge14_Node000012_Node000013"><a xlink:title=" ">
<path fill="none" stroke="#63b8ff" d="M1079.45,-254.62C1099.55,-254.62 1127.42,-254.62 1150.64,-254.62"/>
<polygon fill="#63b8ff" stroke="#63b8ff" points="1150.44,-258.13 1160.44,-254.63 1150.44,-251.13 1150.44,-258.13"/>
</a>
</g>
</g>
<!-- Node15 -->
<g id="Node000015" class="node">
<title>Node15</title>
<g id="a_Node000015"><a xlink:href="../../df/d0a/str-l_8h.html#a6a200ca09358f19b13a8e297cda34869" target="_top" xlink:title="returns a constant copy of \v s.">
<polygon fill="white" stroke="#666666" points="1222.88,-226.25 1167.12,-226.25 1167.12,-207 1222.88,-207 1222.88,-226.25"/>
<text text-anchor="middle" x="1195" y="-212.75" font-family="Helvetica,sans-Serif" font-size="10.00">lstr_dupc</text>
</a>
</g>
</g>
<!-- Node14&#45;&gt;Node15 -->
<g id="edge17_Node000014_Node000015" class="edge">
<title>Node14&#45;&gt;Node15</title>
<g id="a_edge17_Node000014_Node000015"><a xlink:title=" ">
<path fill="none" stroke="#63b8ff" d="M1098.1,-281.61C1104,-279.43 1109.79,-276.79 1115,-273.62 1134.88,-261.54 1131.99,-249.03 1151,-235.62 1152.8,-234.35 1154.7,-233.14 1156.66,-231.99"/>
<polygon fill="#63b8ff" stroke="#63b8ff" points="1158.16,-235.15 1165.39,-227.41 1154.91,-228.95 1158.16,-235.15"/>
</a>
</g>
</g>
<!-- Node14&#45;&gt;Node17 -->
<g id="edge19_Node000014_Node000017" class="edge">
<title>Node14&#45;&gt;Node17</title>
<g id="a_edge19_Node000014_Node000017"><a xlink:title=" ">
<path fill="none" stroke="#63b8ff" d="M1115.39,-291.62C1129.15,-291.62 1143.31,-291.62 1155.76,-291.62"/>
<polygon fill="#63b8ff" stroke="#63b8ff" points="1155.58,-295.13 1165.58,-291.63 1155.58,-288.13 1155.58,-295.13"/>
</a>
</g>
</g>
<!-- Node16 -->
<g id="Node000016" class="node">
<title>Node16</title>
<g id="a_Node000016"><a xlink:href="../../df/d0a/str-l_8h.html#a3b4dbe9c4cc70340cba0787574dc1c5e" target="_top" xlink:title=" ">
<polygon fill="white" stroke="#666666" points="1552.5,-226.25 1499.75,-226.25 1499.75,-207 1552.5,-207 1552.5,-226.25"/>
<text text-anchor="middle" x="1526.12" y="-212.75" font-family="Helvetica,sans-Serif" font-size="10.00">lstr_init_</text>
</a>
</g>
</g>
<!-- Node15&#45;&gt;Node16 -->
<g id="edge18_Node000015_Node000016" class="edge">
<title>Node15&#45;&gt;Node16</title>
<g id="a_edge18_Node000015_Node000016"><a xlink:title=" ">
<path fill="none" stroke="#63b8ff" d="M1223.21,-216.62C1282.06,-216.62 1421.19,-216.62 1488.03,-216.62"/>
<polygon fill="#63b8ff" stroke="#63b8ff" points="1487.74,-220.13 1497.74,-216.63 1487.74,-213.13 1487.74,-220.13"/>
</a>
</g>
</g>
<!-- Node18 -->
<g id="Node000018" class="node">
<title>Node18</title>
<g id="a_Node000018"><a xlink:href="../../df/d0a/str-l_8h.html#a381cd831ac9616c5bea8213bb679d1ac" target="_top" xlink:title="Wipe a lstr_t (frees memory if needed).">
<polygon fill="white" stroke="#666666" points="1348.75,-282.25 1275,-282.25 1275,-263 1348.75,-263 1348.75,-282.25"/>
<text text-anchor="middle" x="1311.88" y="-268.75" font-family="Helvetica,sans-Serif" font-size="10.00">mp_lstr_wipe</text>
</a>
</g>
</g>
<!-- Node17&#45;&gt;Node18 -->
<g id="edge20_Node000017_Node000018" class="edge">
<title>Node17&#45;&gt;Node18</title>
<g id="a_edge20_Node000017_Node000018"><a xlink:title=" ">
<path fill="none" stroke="#63b8ff" d="M1222.93,-287.17C1234.95,-285.18 1249.48,-282.78 1263.24,-280.5"/>
<polygon fill="#63b8ff" stroke="#63b8ff" points="1263.75,-283.97 1273.05,-278.88 1262.61,-277.06 1263.75,-283.97"/>
</a>
</g>
</g>
<!-- Node19 -->
<g id="Node000019" class="node">
<title>Node19</title>
<g id="a_Node000019"><a xlink:href="../../de/d04/str-l_8c.html#abe2a3a71f0b4dbc7d37c59d16762b6fb" target="_top" xlink:title="lstr_copy_* helper.">
<polygon fill="white" stroke="#666666" points="1463.75,-264.25 1384.75,-264.25 1384.75,-245 1463.75,-245 1463.75,-264.25"/>
<text text-anchor="middle" x="1424.25" y="-250.75" font-family="Helvetica,sans-Serif" font-size="10.00">mp_lstr_copy_</text>
</a>
</g>
</g>
<!-- Node18&#45;&gt;Node19 -->
<g id="edge21_Node000018_Node000019" class="edge">
<title>Node18&#45;&gt;Node19</title>
<g id="a_edge21_Node000018_Node000019"><a xlink:title=" ">
<path fill="none" stroke="#63b8ff" d="M1349.02,-266.73C1356.71,-265.48 1364.96,-264.13 1373.07,-262.81"/>
<polygon fill="#63b8ff" stroke="#63b8ff" points="1373.56,-266.27 1382.87,-261.21 1372.44,-259.37 1373.56,-266.27"/>
</a>
</g>
</g>
<!-- Node19&#45;&gt;Node16 -->
<g id="edge27_Node000019_Node000016" class="edge">
<title>Node19&#45;&gt;Node16</title>
<g id="a_edge27_Node000019_Node000016"><a xlink:title=" ">
<path fill="none" stroke="#63b8ff" d="M1451.75,-244.54C1463.19,-240.19 1476.76,-235.03 1489.1,-230.33"/>
<polygon fill="#63b8ff" stroke="#63b8ff" points="1490.02,-233.73 1498.12,-226.9 1487.53,-227.18 1490.02,-233.73"/>
</a>
</g>
</g>
<!-- Node20 -->
<g id="Node000020" class="node">
<title>Node20</title>
<g id="a_Node000020"><a xlink:href="../../d9/d9a/mem_8h.html#aebbbd277e2952bdb802104671ba23ba9" target="_top" xlink:title=" ">
<polygon fill="white" stroke="#666666" points="1543.5,-263.25 1508.75,-263.25 1508.75,-244 1543.5,-244 1543.5,-263.25"/>
<text text-anchor="middle" x="1526.12" y="-249.75" font-family="Helvetica,sans-Serif" font-size="10.00">ifree</text>
</a>
</g>
</g>
<!-- Node19&#45;&gt;Node20 -->
<g id="edge22_Node000019_Node000020" class="edge">
<title>Node19&#45;&gt;Node20</title>
<g id="a_edge22_Node000019_Node000020"><a xlink:title=" ">
<path fill="none" stroke="#63b8ff" d="M1464.15,-254.24C1475.05,-254.13 1486.7,-254.01 1496.85,-253.91"/>
<polygon fill="#63b8ff" stroke="#63b8ff" points="1496.88,-257.41 1506.85,-253.81 1496.81,-250.41 1496.88,-257.41"/>
</a>
</g>
</g>
<!-- Node21 -->
<g id="Node000021" class="node">
<title>Node21</title>
<g id="a_Node000021"><a xlink:href="../../d8/d37/mem_8blk.html#a36b65ab346f1d0deed7b63c544c78f2b" target="_top" xlink:title=" ">
<polygon fill="white" stroke="#666666" points="1633.38,-188.25 1597.12,-188.25 1597.12,-169 1633.38,-169 1633.38,-188.25"/>
<text text-anchor="middle" x="1615.25" y="-174.75" font-family="Helvetica,sans-Serif" font-size="10.00">ipool</text>
</a>
</g>
</g>
<!-- Node20&#45;&gt;Node21 -->
<g id="edge23_Node000020_Node000021" class="edge">
<title>Node20&#45;&gt;Node21</title>
<g id="a_edge23_Node000020_Node000021"><a xlink:title=" ">
<path fill="none" stroke="#63b8ff" d="M1541.86,-243.66C1545.41,-241.12 1549.14,-238.35 1552.5,-235.62 1567.82,-223.2 1584.18,-208.01 1596.21,-196.43"/>
<polygon fill="#63b8ff" stroke="#63b8ff" points="1598.31,-199.27 1603.04,-189.78 1593.43,-194.25 1598.31,-199.27"/>
</a>
</g>
</g>
<!-- Node23 -->
<g id="Node000023" class="node">
<title>Node23</title>
<g id="a_Node000023"><a xlink:href="../../d8/d37/mem_8blk.html#a83c7cf203e5eef9d1a8c6c43cde3e2e5" target="_top" xlink:title=" ">
<polygon fill="white" stroke="#666666" points="1642,-263.25 1588.5,-263.25 1588.5,-244 1642,-244 1642,-263.25"/>
<text text-anchor="middle" x="1615.25" y="-249.75" font-family="Helvetica,sans-Serif" font-size="10.00">mp_ifree</text>
</a>
</g>
</g>
<!-- Node20&#45;&gt;Node23 -->
<g id="edge26_Node000020_Node000023" class="edge">
<title>Node20&#45;&gt;Node23</title>
<g id="a_edge26_Node000020_Node000023"><a xlink:title=" ">
<path fill="none" stroke="#63b8ff" d="M1543.92,-253.62C1553.34,-253.62 1565.49,-253.62 1577.03,-253.62"/>
<polygon fill="#63b8ff" stroke="#63b8ff" points="1576.73,-257.13 1586.73,-253.63 1576.73,-250.13 1576.73,-257.13"/>
</a>
</g>
</g>
<!-- Node21&#45;&gt;Node9 -->
<g id="edge24_Node000021_Node000009" class="edge">
<title>Node21&#45;&gt;Node9</title>
<g id="a_edge24_Node000021_Node000009"><a xlink:title=" ">
<path fill="none" stroke="#63b8ff" d="M1596.77,-172.69C1563.69,-162 1489.51,-140.62 1425.25,-140.62 899.12,-140.62 899.12,-140.62 899.12,-140.62 820.9,-140.62 794.24,-125.68 724.25,-160.62 703.44,-171.02 707.37,-185.37 688.25,-198.62 685.74,-200.37 683.03,-201.99 680.24,-203.49"/>
<polygon fill="#63b8ff" stroke="#63b8ff" points="678.87,-200.26 671.35,-207.72 681.88,-206.58 678.87,-200.26"/>
</a>
</g>
</g>
<!-- Node22 -->
<g id="Node000022" class="node">
<title>Node22</title>
<g id="a_Node000022"><a xlink:href="../../d1/d10/mem-stack_8h.html#a1d0e2a29f86dc033a02e50484b527fd0" target="_top" xlink:title=" ">
<polygon fill="white" stroke="#666666" points="1720.25,-188.25 1678,-188.25 1678,-169 1720.25,-169 1720.25,-188.25"/>
<text text-anchor="middle" x="1699.12" y="-174.75" font-family="Helvetica,sans-Serif" font-size="10.00">t_pool</text>
</a>
</g>
</g>
<!-- Node21&#45;&gt;Node22 -->
<g id="edge25_Node000021_Node000022" class="edge">
<title>Node21&#45;&gt;Node22</title>
<g id="a_edge25_Node000021_Node000022"><a xlink:title=" ">
<path fill="none" stroke="#63b8ff" d="M1633.61,-178.62C1643.06,-178.62 1655.04,-178.62 1666.11,-178.62"/>
<polygon fill="#63b8ff" stroke="#63b8ff" points="1666.09,-182.13 1676.09,-178.63 1666.09,-175.13 1666.09,-182.13"/>
</a>
</g>
</g>
<!-- Node27&#45;&gt;Node15 -->
<g id="edge36_Node000027_Node000015" class="edge">
<title>Node27&#45;&gt;Node15</title>
<g id="a_edge36_Node000027_Node000015"><a xlink:title=" ">
<path fill="none" stroke="#63b8ff" d="M801.31,-188.22C815.58,-191.72 832.65,-195.43 848.25,-197.62 959.22,-213.2 1091.89,-216.17 1155.83,-216.63"/>
<polygon fill="#63b8ff" stroke="#63b8ff" points="1155.42,-220.13 1165.44,-216.68 1155.46,-213.13 1155.42,-220.13"/>
</a>
</g>
</g>
<!-- Node28 -->
<g id="Node000028" class="node">
<title>Node28</title>
<g id="a_Node000028"><a xlink:href="../../d1/dc0/group__log.html#ga168a6f17b248f61f7d25a17d58d04e36" target="_top" xlink:title=" ">
<polygon fill="white" stroke="#666666" points="944.5,-188.25 855.75,-188.25 855.75,-169 944.5,-169 944.5,-188.25"/>
<text text-anchor="middle" x="900.12" y="-174.75" font-family="Helvetica,sans-Serif" font-size="10.00">logger_has_level</text>
</a>
</g>
</g>
<!-- Node27&#45;&gt;Node28 -->
<g id="edge33_Node000027_Node000028" class="edge">
<title>Node27&#45;&gt;Node28</title>
<g id="a_edge33_Node000027_Node000028"><a xlink:title=" ">
<path fill="none" stroke="#63b8ff" d="M801.35,-179.38C814.28,-179.28 829.55,-179.16 844.14,-179.05"/>
<polygon fill="#63b8ff" stroke="#63b8ff" points="844.15,-182.55 854.12,-178.97 844.09,-175.55 844.15,-182.55"/>
</a>
</g>
</g>
<!-- Node29 -->
<g id="Node000029" class="node">
<title>Node29</title>
<g id="a_Node000029"><a xlink:href="../../d1/dc0/group__log.html#gaf388752b988541da0abeceecdf96e6b3" target="_top" xlink:title=" ">
<polygon fill="white" stroke="#666666" points="1094.75,-188.25 1008.25,-188.25 1008.25,-169 1094.75,-169 1094.75,-188.25"/>
<text text-anchor="middle" x="1051.5" y="-174.75" font-family="Helvetica,sans-Serif" font-size="10.00">logger_get_level</text>
</a>
</g>
</g>
<!-- Node28&#45;&gt;Node29 -->
<g id="edge34_Node000028_Node000029" class="edge">
<title>Node28&#45;&gt;Node29</title>
<g id="a_edge34_Node000028_Node000029"><a xlink:title=" ">
<path fill="none" stroke="#63b8ff" d="M944.73,-178.62C960.89,-178.62 979.42,-178.62 996.4,-178.62"/>
<polygon fill="#63b8ff" stroke="#63b8ff" points="996.36,-182.13 1006.36,-178.63 996.36,-175.13 996.36,-182.13"/>
</a>
</g>
</g>
<!-- Node30 -->
<g id="Node000030" class="node">
<title>Node30</title>
<g id="a_Node000030"><a xlink:href="../../d1/dc0/group__log.html#ga93cbd623096e1704532d15b3eb30e42f" target="_top" xlink:title=" ">
<polygon fill="white" stroke="#666666" points="1239,-188.25 1151,-188.25 1151,-169 1239,-169 1239,-188.25"/>
<text text-anchor="middle" x="1195" y="-174.75" font-family="Helvetica,sans-Serif" font-size="10.00">__logger_refresh</text>
</a>
</g>
</g>
<!-- Node29&#45;&gt;Node30 -->
<g id="edge35_Node000029_Node000030" class="edge">
<title>Node29&#45;&gt;Node30</title>
<g id="a_edge35_Node000029_Node000030"><a xlink:title=" ">
<path fill="none" stroke="#63b8ff" d="M1094.95,-178.62C1108.83,-178.62 1124.44,-178.62 1139.1,-178.62"/>
<polygon fill="#63b8ff" stroke="#63b8ff" points="1139.08,-182.13 1149.08,-178.63 1139.08,-175.13 1139.08,-182.13"/>
</a>
</g>
</g>
<!-- Node37 -->
<g id="Node000037" class="node">
<title>Node37</title>
<g id="a_Node000037"><a xlink:href="../../da/d9c/group__lc__el.html#ga73e7bbafc05cdf7a1efa3a7b835e159d" target="_top" xlink:title=" ">
<polygon fill="white" stroke="#666666" points="675.12,-87.25 614.12,-87.25 614.12,-68 675.12,-68 675.12,-87.25"/>
<text text-anchor="middle" x="644.62" y="-73.75" font-family="Helvetica,sans-Serif" font-size="10.00">__el_unref</text>
</a>
</g>
</g>
<!-- Node36&#45;&gt;Node37 -->
<g id="edge43_Node000036_Node000037" class="edge">
<title>Node36&#45;&gt;Node37</title>
<g id="a_edge43_Node000036_Node000037"><a xlink:title=" ">
<path fill="none" stroke="#63b8ff" d="M219.74,-72.11C235.31,-70.05 255.92,-67.67 274.25,-66.62 393.53,-59.85 534.74,-68.75 602.85,-74.11"/>
<polygon fill="#63b8ff" stroke="#63b8ff" points="602.16,-77.57 612.41,-74.88 602.72,-70.59 602.16,-77.57"/>
</a>
</g>
</g>
<!-- Node39 -->
<g id="Node000039" class="node">
<title>Node39</title>
<g id="a_Node000039"><a xlink:href="../../da/d9c/group__lc__el.html#ga3e124ca0c10ec49c6052de8ba0db5a2a" target="_top" xlink:title=" ">
<polygon fill="white" stroke="#666666" points="381,-132.25 284,-132.25 284,-113 381,-113 381,-132.25"/>
<text text-anchor="middle" x="332.5" y="-118.75" font-family="Helvetica,sans-Serif" font-size="10.00">el_child_unregister</text>
</a>
</g>
</g>
<!-- Node38&#45;&gt;Node39 -->
<g id="edge45_Node000038_Node000039" class="edge">
<title>Node38&#45;&gt;Node39</title>
<g id="a_edge45_Node000038_Node000039"><a xlink:title=" ">
<path fill="none" stroke="#63b8ff" d="M230.34,-150.84C246.84,-146.24 266.77,-140.68 284.55,-135.72"/>
<polygon fill="#63b8ff" stroke="#63b8ff" points="285.43,-139.11 294.12,-133.05 283.55,-132.36 285.43,-139.11"/>
</a>
</g>
</g>
<!-- Node40 -->
<g id="Node000040" class="node">
<title>Node40</title>
<g id="a_Node000040"><a xlink:href="../../da/d9c/group__lc__el.html#ga256cefb4fa3855c72540d88296746f37" target="_top" xlink:title=" ">
<polygon fill="white" stroke="#666666" points="526,-161.25 465.75,-161.25 465.75,-142 526,-142 526,-161.25"/>
<text text-anchor="middle" x="495.88" y="-147.75" font-family="Helvetica,sans-Serif" font-size="10.00">el_destroy</text>
</a>
</g>
</g>
<!-- Node38&#45;&gt;Node40 -->
<g id="edge53_Node000038_Node000040" class="edge">
<title>Node38&#45;&gt;Node40</title>
<g id="a_edge53_Node000038_Node000040"><a xlink:title=" ">
<path fill="none" stroke="#63b8ff" d="M230.21,-159.57C286.07,-157.9 395.18,-154.62 454.36,-152.84"/>
<polygon fill="#63b8ff" stroke="#63b8ff" points="454.1,-156.35 463.99,-152.55 453.89,-149.35 454.1,-156.35"/>
</a>
</g>
</g>
<!-- Node43 -->
<g id="Node000043" class="node">
<title>Node43</title>
<g id="a_Node000043"><a xlink:href="../../d5/d73/el_8h.html#a78dc0f9db74b5c2e0812af8b7f78067d" target="_top" xlink:title=" ">
<polygon fill="white" stroke="#666666" points="538.38,-245.25 453.38,-245.25 453.38,-226 538.38,-226 538.38,-245.25"/>
<text text-anchor="middle" x="495.88" y="-231.75" font-family="Helvetica,sans-Serif" font-size="10.00">el_fd_unregister</text>
</a>
</g>
</g>
<!-- Node38&#45;&gt;Node43 -->
<g id="edge54_Node000038_Node000043" class="edge">
<title>Node38&#45;&gt;Node43</title>
<g id="a_edge54_Node000038_Node000043"><a xlink:title=" ">
<path fill="none" stroke="#63b8ff" d="M199.84,-170.48C209.92,-190.79 236.18,-236.89 274.25,-254.62 321.19,-276.49 339.18,-259.29 390.75,-254.62 407.55,-253.1 425.7,-250.23 442.06,-247.17"/>
<polygon fill="#63b8ff" stroke="#63b8ff" points="442.42,-250.66 451.58,-245.32 441.09,-243.79 442.42,-250.66"/>
</a>
</g>
</g>
<!-- Node44 -->
<g id="Node000044" class="node">
<title>Node44</title>
<g id="a_Node000044"><a xlink:href="../../d5/d73/el_8h.html#a186af379a46582a392ac718227663b49" target="_top" xlink:title=" ">
<polygon fill="white" stroke="#666666" points="390.75,-208.25 274.25,-208.25 274.25,-189 390.75,-189 390.75,-208.25"/>
<text text-anchor="middle" x="332.5" y="-194.75" font-family="Helvetica,sans-Serif" font-size="10.00">el_fs_watch_unregister</text>
</a>
</g>
</g>
<!-- Node38&#45;&gt;Node44 -->
<g id="edge55_Node000038_Node000044" class="edge">
<title>Node38&#45;&gt;Node44</title>
<g id="a_edge55_Node000038_Node000044"><a xlink:title=" ">
<path fill="none" stroke="#63b8ff" d="M230.34,-170.41C246.84,-175.01 266.77,-180.57 284.55,-185.53"/>
<polygon fill="#63b8ff" stroke="#63b8ff" points="283.55,-188.89 294.12,-188.2 285.43,-182.14 283.55,-188.89"/>
</a>
</g>
</g>
<!-- Node45 -->
<g id="Node000045" class="node">
<title>Node45</title>
<g id="a_Node000045"><a xlink:href="../../da/d9c/group__lc__el.html#gabeba36445aeb1f23ccfa75cc19991593" target="_top" xlink:title=" ">
<polygon fill="white" stroke="#666666" points="381.75,-95.25 283.25,-95.25 283.25,-76 381.75,-76 381.75,-95.25"/>
<text text-anchor="middle" x="332.5" y="-81.75" font-family="Helvetica,sans-Serif" font-size="10.00">el_timer_unregister</text>
</a>
</g>
</g>
<!-- Node38&#45;&gt;Node45 -->
<g id="edge56_Node000038_Node000045" class="edge">
<title>Node38&#45;&gt;Node45</title>
<g id="a_edge56_Node000038_Node000045"><a xlink:title=" ">
<path fill="none" stroke="#63b8ff" d="M206.53,-150.67C221.21,-138.16 248.1,-116.74 274.25,-103.62 276.99,-102.25 279.86,-100.95 282.79,-99.73"/>
<polygon fill="#63b8ff" stroke="#63b8ff" points="284.03,-103.01 292.14,-96.2 281.55,-96.46 284.03,-103.01"/>
</a>
</g>
</g>
<!-- Node46 -->
<g id="Node000046" class="node">
<title>Node46</title>
<g id="a_Node000046"><a xlink:href="../../da/d9c/group__lc__el.html#ga26879246131a40e81bc7de81357e393f" target="_top" xlink:title=" ">
<polygon fill="white" stroke="#666666" points="382.5,-245.25 282.5,-245.25 282.5,-226 382.5,-226 382.5,-245.25"/>
<text text-anchor="middle" x="332.5" y="-231.75" font-family="Helvetica,sans-Serif" font-size="10.00">el_wake_unregister</text>
</a>
</g>
</g>
<!-- Node38&#45;&gt;Node46 -->
<g id="edge58_Node000038_Node000046" class="edge">
<title>Node38&#45;&gt;Node46</title>
<g id="a_edge58_Node000038_Node000046"><a xlink:title=" ">
<path fill="none" stroke="#63b8ff" d="M206.53,-170.58C221.21,-183.09 248.1,-204.51 274.25,-217.62 276.99,-219 279.86,-220.3 282.79,-221.52"/>
<polygon fill="#63b8ff" stroke="#63b8ff" points="281.55,-224.79 292.14,-225.05 284.03,-218.24 281.55,-224.79"/>
</a>
</g>
</g>
<!-- Node39&#45;&gt;Node40 -->
<g id="edge46_Node000039_Node000040" class="edge">
<title>Node39&#45;&gt;Node40</title>
<g id="a_edge46_Node000039_Node000040"><a xlink:title=" ">
<path fill="none" stroke="#63b8ff" d="M381.48,-131.25C404.74,-135.43 432.37,-140.39 454.53,-144.37"/>
<polygon fill="#63b8ff" stroke="#63b8ff" points="453.61,-147.77 464.08,-146.09 454.85,-140.88 453.61,-147.77"/>
</a>
</g>
</g>
<!-- Node40&#45;&gt;Node33 -->
<g id="edge51_Node000040_Node000033" class="edge">
<title>Node40&#45;&gt;Node33</title>
<g id="a_edge51_Node000040_Node000033"><a xlink:title=" ">
<path fill="none" stroke="#63b8ff" d="M526.22,-157.22C545.4,-160.88 570.94,-165.76 593.3,-170.02"/>
<polygon fill="#63b8ff" stroke="#63b8ff" points="592.35,-173.41 602.83,-171.84 593.67,-166.53 592.35,-173.41"/>
</a>
</g>
</g>
<!-- Node40&#45;&gt;Node37 -->
<g id="edge47_Node000040_Node000037" class="edge">
<title>Node40&#45;&gt;Node37</title>
<g id="a_edge47_Node000040_Node000037"><a xlink:title=" ">
<path fill="none" stroke="#63b8ff" d="M516.67,-141.65C541.61,-129.07 584.72,-107.33 613.7,-92.71"/>
<polygon fill="#63b8ff" stroke="#63b8ff" points="614.97,-95.99 622.33,-88.36 611.82,-89.74 614.97,-95.99"/>
</a>
</g>
</g>
<!-- Node41 -->
<g id="Node000041" class="node">
<title>Node41</title>
<g id="a_Node000041"><a xlink:href="../../de/d1a/container-dlist_8h.html#a2d5721a30f14fb96bc0f0448ea9f8b50" target="_top" xlink:title="Remove element e from its list and add it at the head of l.">
<polygon fill="white" stroke="#666666" points="676.25,-264.25 613,-264.25 613,-245 676.25,-245 676.25,-264.25"/>
<text text-anchor="middle" x="644.62" y="-250.75" font-family="Helvetica,sans-Serif" font-size="10.00">dlist_move</text>
</a>
</g>
</g>
<!-- Node40&#45;&gt;Node41 -->
<g id="edge48_Node000040_Node000041" class="edge">
<title>Node40&#45;&gt;Node41</title>
<g id="a_edge48_Node000040_Node000041"><a xlink:title=" ">
<path fill="none" stroke="#63b8ff" d="M507.42,-161.7C525.47,-178.58 563.95,-212.96 601,-235.62 603.27,-237.02 605.67,-238.36 608.11,-239.66"/>
<polygon fill="#63b8ff" stroke="#63b8ff" points="606.4,-242.71 616.92,-243.96 609.47,-236.42 606.4,-242.71"/>
</a>
</g>
</g>
<!-- Node42 -->
<g id="Node000042" class="node">
<title>Node42</title>
<g id="a_Node000042"><a xlink:href="../../dc/d4b/thr-job_8blk.html#a6931d84a294d8c1867dd07447f6cd272" target="_top" xlink:title=" ">
<polygon fill="white" stroke="#666666" points="688.25,-152.25 601,-152.25 601,-133 688.25,-133 688.25,-152.25"/>
<text text-anchor="middle" x="644.62" y="-138.75" font-family="Helvetica,sans-Serif" font-size="10.00">thr_is_on_queue</text>
</a>
</g>
</g>
<!-- Node40&#45;&gt;Node42 -->
<g id="edge52_Node000040_Node000042" class="edge">
<title>Node40&#45;&gt;Node42</title>
<g id="a_edge52_Node000040_Node000042"><a xlink:title=" ">
<path fill="none" stroke="#63b8ff" d="M526.22,-149.83C544.3,-148.72 568.04,-147.26 589.44,-145.95"/>
<polygon fill="#63b8ff" stroke="#63b8ff" points="589.42,-149.46 599.19,-145.35 588.99,-142.47 589.42,-149.46"/>
</a>
</g>
</g>
<!-- Node41&#45;&gt;Node8 -->
<g id="edge49_Node000041_Node000008" class="edge">
<title>Node41&#45;&gt;Node8</title>
<g id="a_edge49_Node000041_Node000008"><a xlink:title=" ">
<path fill="none" stroke="#63b8ff" d="M657.32,-264.55C665.95,-271.92 677.94,-282.29 688.25,-291.62 704.56,-306.4 707.39,-311.48 724.25,-325.62 730.48,-330.85 737.46,-336.24 743.96,-341.06"/>
<polygon fill="#63b8ff" stroke="#63b8ff" points="741.62,-343.69 751.77,-346.76 745.75,-338.04 741.62,-343.69"/>
</a>
</g>
</g>
<!-- Node41&#45;&gt;Node12 -->
<g id="edge50_Node000041_Node000012" class="edge">
<title>Node41&#45;&gt;Node12</title>
<g id="a_edge50_Node000041_Node000012"><a xlink:title=" ">
<path fill="none" stroke="#63b8ff" d="M676.72,-254.62C749.82,-254.62 932.37,-254.62 1012.16,-254.62"/>
<polygon fill="#63b8ff" stroke="#63b8ff" points="1012.1,-258.13 1022.1,-254.63 1012.1,-251.13 1012.1,-258.13"/>
</a>
</g>
</g>
<!-- Node45&#45;&gt;Node40 -->
<g id="edge57_Node000045_Node000040" class="edge">
<title>Node45&#45;&gt;Node40</title>
<g id="a_edge57_Node000045_Node000040"><a xlink:title=" ">
<path fill="none" stroke="#63b8ff" d="M367.95,-95.68C375.53,-98.1 383.46,-100.81 390.75,-103.62 416.25,-113.47 444.35,-126.56 464.93,-136.59"/>
<polygon fill="#63b8ff" stroke="#63b8ff" points="463.36,-139.71 473.88,-140.99 466.45,-133.43 463.36,-139.71"/>
</a>
</g>
</g>
<!-- Node46&#45;&gt;Node40 -->
<g id="edge59_Node000046_Node000040" class="edge">
<title>Node46&#45;&gt;Node40</title>
<g id="a_edge59_Node000046_Node000040"><a xlink:title=" ">
<path fill="none" stroke="#63b8ff" d="M370.38,-225.59C377.27,-223.28 384.32,-220.61 390.75,-217.62 420.61,-203.76 452.18,-182.72 472.63,-168.15"/>
<polygon fill="#63b8ff" stroke="#63b8ff" points="474.44,-171.15 480.49,-162.45 470.33,-165.48 474.44,-171.15"/>
</a>
</g>
</g>
<!-- Node46&#45;&gt;Node43 -->
<g id="edge60_Node000046_Node000043" class="edge">
<title>Node46&#45;&gt;Node43</title>
<g id="a_edge60_Node000046_Node000043"><a xlink:title=" ">
<path fill="none" stroke="#63b8ff" d="M382.79,-235.62C401.37,-235.62 422.58,-235.62 441.51,-235.62"/>
<polygon fill="#63b8ff" stroke="#63b8ff" points="441.44,-239.13 451.44,-235.63 441.44,-232.13 441.44,-239.13"/>
</a>
</g>
</g>
<!-- Node48 -->
<g id="Node000048" class="node">
<title>Node48</title>
<g id="a_Node000048"><a xlink:href="../../d6/df4/rand_8c.html#a988e5bd66ff6e9ccd7b38af4505e68e3" target="_top" xlink:title="Generate a 64bit random integer.">
<polygon fill="white" stroke="#666666" points="355.12,-19.25 309.88,-19.25 309.88,0 355.12,0 355.12,-19.25"/>
<text text-anchor="middle" x="332.5" y="-5.75" font-family="Helvetica,sans-Serif" font-size="10.00">rand64</text>
</a>
</g>
</g>
<!-- Node47&#45;&gt;Node48 -->
<g id="edge62_Node000047_Node000048" class="edge">
<title>Node47&#45;&gt;Node48</title>
<g id="a_edge62_Node000047_Node000048"><a xlink:title=" ">
<path fill="none" stroke="#63b8ff" d="M226.51,-31.97C248.09,-27.38 276.72,-21.28 298.64,-16.62"/>
<polygon fill="#63b8ff" stroke="#63b8ff" points="299.19,-20.08 308.24,-14.57 297.73,-13.23 299.19,-20.08"/>
</a>
</g>
</g>
</g>
</svg>
