<?xml version="1.0" encoding="UTF-8" standalone="no"?>
<!DOCTYPE svg PUBLIC "-//W3C//DTD SVG 1.1//EN"
 "http://www.w3.org/Graphics/SVG/1.1/DTD/svg11.dtd">
<!-- Generated by graphviz version 9.0.0 (20230911.1827)
 -->
<!-- Title: __ps_shrink Pages: 1 -->
<!--zoomable 250 -->

<svg id="main" version="1.1" xmlns="http://www.w3.org/2000/svg" xmlns:xlink="http://www.w3.org/1999/xlink" xml:space="preserve" onload="init(evt)">
<style type="text/css"><![CDATA[
.node, .edge {opacity: 0.7;}
.node.selected, .edge.selected {opacity: 1;}
.edge:hover path { stroke: red; }
.edge:hover polygon { stroke: red; fill: red; }
]]></style>

<defs>
  <circle id="rim" cx="0" cy="0" r="7"/>
  <circle id="rim2" cx="0" cy="0" r="3.5"/>
  <g id="zoomPlus">
    <use xlink:href="#rim" fill="#404040"><set attributeName="fill" to="#808080" begin="zoomplus.mouseover" end="zoomplus.mouseout"/></use>
    <path d="M-4,0h8M0,-4v8" fill="none" stroke="white" stroke-width="1.5" pointer-events="none"/>
  </g>
  <g id="zoomMin">
    <use xlink:href="#rim" fill="#404040"><set attributeName="fill" to="#808080" begin="zoomminus.mouseover" end="zoomminus.mouseout"/></use>
    <path d="M-4,0h8" fill="none" stroke="white" stroke-width="1.5" pointer-events="none"/>
  </g>
  <g id="arrowUp" transform="translate(30 24)">
    <use xlink:href="#rim"/>
    <path pointer-events="none" fill="none" stroke="white" stroke-width="1.5" d="M0,-3.0v7 M-2.5,-0.5L0,-3.0L2.5,-0.5"/>
  </g>
  <g id="arrowRight" transform="rotate(90) translate(36 -43)">
    <use xlink:href="#rim"/>
    <path pointer-events="none" fill="none" stroke="white" stroke-width="1.5" d="M0,-3.0v7 M-2.5,-0.5L0,-3.0L2.5,-0.5"/>
  </g>
  <g id="arrowDown" transform="rotate(180) translate(-30 -48)">
    <use xlink:href="#rim"/>
    <path pointer-events="none" fill="none" stroke="white" stroke-width="1.5" d="M0,-3.0v7 M-2.5,-0.5L0,-3.0L2.5,-0.5"/>
  </g>
  <g id="arrowLeft" transform="rotate(270) translate(-36 17)">
    <use xlink:href="#rim"/>
    <path pointer-events="none" fill="none" stroke="white" stroke-width="1.5" d="M0,-3.0v7 M-2.5,-0.5L0,-3.0L2.5,-0.5"/>
  </g>
  <g id="resetDef">
    <use xlink:href="#rim2" fill="#404040"><set attributeName="fill" to="#808080" begin="reset.mouseover" end="reset.mouseout"/></use>
  </g>
</defs>
<script type="application/ecmascript">
var viewWidth = 2523;
var viewHeight = 250;
var sectionId = 'dynsection-22';
</script>
<script type="application/ecmascript" xlink:href="../../svg.min.js"/>
<svg id="graph" class="graph">
<g id="viewport">
<title>__ps_shrink</title>
<!-- Node1 -->
<g id="Node000001" class="node">
<title>Node1</title>
<g id="a_Node000001"><a xlink:title=" ">
<polygon fill="#999999" stroke="#666666" points="2515.25,-153.26 2446.75,-153.26 2446.75,-134.01 2515.25,-134.01 2515.25,-153.26"/>
<text text-anchor="middle" x="2481" y="-139.76" font-family="Helvetica,sans-Serif" font-size="10.00">__ps_shrink</text>
</a>
</g>
</g>
<!-- Node2 -->
<g id="Node000002" class="node">
<title>Node2</title>
<g id="a_Node000002"><a xlink:href="../../dd/d4a/net_2http_8c.html#a7ed4c5e665949230d458783b19c46c83" target="_top" xlink:title="Consolidate a header block from an already&#45;validated multiframe.">
<polygon fill="white" stroke="#666666" points="2395.75,-158.89 2286,-158.89 2286,-128.39 2395.75,-128.39 2395.75,-158.89"/>
<text text-anchor="start" x="2294" y="-145.39" font-family="Helvetica,sans-Serif" font-size="10.00">http2_conn_construct</text>
<text text-anchor="middle" x="2340.88" y="-134.14" font-family="Helvetica,sans-Serif" font-size="10.00">_hdr_blk</text>
</a>
</g>
</g>
<!-- Node1&#45;&gt;Node2 -->
<g id="edge1_Node000001_Node000002" class="edge">
<title>Node1&#45;&gt;Node2</title>
<g id="a_edge1_Node000001_Node000002"><a xlink:title=" ">
<path fill="none" stroke="#63b8ff" d="M2435.43,-143.64C2422.87,-143.64 2409.07,-143.64 2396.01,-143.64"/>
<polygon fill="#63b8ff" stroke="#63b8ff" points="2435.05,-147.14 2445.05,-143.64 2435.05,-140.14 2435.05,-147.14"/>
</a>
</g>
</g>
<!-- Node26 -->
<g id="Node000026" class="node">
<title>Node26</title>
<g id="a_Node000026"><a xlink:href="../../dd/d4a/net_2http_8c.html#a5264b2121c0e65d1be94bbb8b8f3816f" target="_top" xlink:title="Streaming Layer Handlers.">
<polygon fill="white" stroke="#666666" points="2410.75,-202.26 2271,-202.26 2271,-183.01 2410.75,-183.01 2410.75,-202.26"/>
<text text-anchor="middle" x="2340.88" y="-188.76" font-family="Helvetica,sans-Serif" font-size="10.00">http_get_http2_request_hdrs</text>
</a>
</g>
</g>
<!-- Node1&#45;&gt;Node26 -->
<g id="edge29_Node000001_Node000026" class="edge">
<title>Node1&#45;&gt;Node26</title>
<g id="a_edge29_Node000001_Node000026"><a xlink:title=" ">
<path fill="none" stroke="#63b8ff" d="M2441.12,-157.43C2418.54,-165.44 2390.6,-175.35 2370.12,-182.62"/>
<polygon fill="#63b8ff" stroke="#63b8ff" points="2442.03,-160.82 2450.29,-154.18 2439.69,-154.22 2442.03,-160.82"/>
</a>
</g>
</g>
<!-- Node32 -->
<g id="Node000032" class="node">
<title>Node32</title>
<g id="a_Node000032"><a xlink:href="../../d4/d86/str-stream_8h.html#aa1c28b1c871e356e261c285a9a052abc" target="_top" xlink:title=" ">
<polygon fill="white" stroke="#666666" points="2211.38,-104.26 2153.38,-104.26 2153.38,-85.01 2211.38,-85.01 2211.38,-104.26"/>
<text text-anchor="middle" x="2182.38" y="-90.76" font-family="Helvetica,sans-Serif" font-size="10.00">ps_shrink</text>
</a>
</g>
</g>
<!-- Node1&#45;&gt;Node32 -->
<g id="edge36_Node000001_Node000032" class="edge">
<title>Node1&#45;&gt;Node32</title>
<g id="a_edge36_Node000001_Node000032"><a xlink:title=" ">
<path fill="none" stroke="#63b8ff" d="M2444.7,-129.69C2433.94,-125.91 2421.99,-122.17 2410.75,-119.64 2340.24,-103.75 2255.06,-97.82 2211.71,-95.71"/>
<polygon fill="#63b8ff" stroke="#63b8ff" points="2443.37,-132.94 2453.97,-133.08 2445.78,-126.36 2443.37,-132.94"/>
</a>
</g>
</g>
<!-- Node3 -->
<g id="Node000003" class="node">
<title>Node3</title>
<g id="a_Node000003"><a xlink:href="../../dd/d4a/net_2http_8c.html#aaf0cb3c0f710ff209dd9386e08bcf828" target="_top" xlink:title=" ">
<polygon fill="white" stroke="#666666" points="2084.38,-158.89 1967.88,-158.89 1967.88,-128.39 2084.38,-128.39 2084.38,-158.89"/>
<text text-anchor="start" x="1975.88" y="-145.39" font-family="Helvetica,sans-Serif" font-size="10.00">http2_conn_do_on_end</text>
<text text-anchor="middle" x="2026.12" y="-134.14" font-family="Helvetica,sans-Serif" font-size="10.00">_headers</text>
</a>
</g>
</g>
<!-- Node2&#45;&gt;Node3 -->
<g id="edge2_Node000002_Node000003" class="edge">
<title>Node2&#45;&gt;Node3</title>
<g id="a_edge2_Node000002_Node000003"><a xlink:title=" ">
<path fill="none" stroke="#63b8ff" d="M2274.53,-143.64C2218.49,-143.64 2138.52,-143.64 2084.82,-143.64"/>
<polygon fill="#63b8ff" stroke="#63b8ff" points="2274.24,-147.14 2284.24,-143.64 2274.24,-140.14 2274.24,-147.14"/>
</a>
</g>
</g>
<!-- Node4 -->
<g id="Node000004" class="node">
<title>Node4</title>
<g id="a_Node000004"><a xlink:href="../../dd/d4a/net_2http_8c.html#af88da3c67b8f93ddac978795275c8f55" target="_top" xlink:title=" ">
<polygon fill="white" stroke="#666666" points="1746.38,-192.89 1629.12,-192.89 1629.12,-162.39 1746.38,-162.39 1746.38,-192.89"/>
<text text-anchor="start" x="1637.12" y="-179.39" font-family="Helvetica,sans-Serif" font-size="10.00">http2_conn_parse_cont</text>
<text text-anchor="middle" x="1687.75" y="-168.14" font-family="Helvetica,sans-Serif" font-size="10.00">_fragment</text>
</a>
</g>
</g>
<!-- Node3&#45;&gt;Node4 -->
<g id="edge3_Node000003_Node000004" class="edge">
<title>Node3&#45;&gt;Node4</title>
<g id="a_edge3_Node000003_Node000004"><a xlink:title=" ">
<path fill="none" stroke="#63b8ff" d="M1956.42,-159.14C1945.13,-161.27 1933.52,-163.21 1922.5,-164.64 1862.84,-172.36 1794.04,-175.5 1746.6,-176.77"/>
<polygon fill="#63b8ff" stroke="#63b8ff" points="1956.94,-162.6 1966.08,-157.25 1955.6,-155.73 1956.94,-162.6"/>
</a>
</g>
</g>
<!-- Node23 -->
<g id="Node000023" class="node">
<title>Node23</title>
<g id="a_Node000023"><a xlink:href="../../dd/d4a/net_2http_8c.html#a80d71aeff699ae67e6453befa758cc4b" target="_top" xlink:title=" ">
<polygon fill="white" stroke="#666666" points="1922.5,-107.26 1789.5,-107.26 1789.5,-88.01 1922.5,-88.01 1922.5,-107.26"/>
<text text-anchor="middle" x="1856" y="-93.76" font-family="Helvetica,sans-Serif" font-size="10.00">http2_conn_parse_headers</text>
</a>
</g>
</g>
<!-- Node3&#45;&gt;Node23 -->
<g id="edge24_Node000003_Node000023" class="edge">
<title>Node3&#45;&gt;Node23</title>
<g id="a_edge24_Node000003_Node000023"><a xlink:title=" ">
<path fill="none" stroke="#63b8ff" d="M1956.66,-124.9C1935.17,-119.02 1912.27,-112.76 1893.85,-107.72"/>
<polygon fill="#63b8ff" stroke="#63b8ff" points="1955.71,-128.27 1966.28,-127.54 1957.55,-121.52 1955.71,-128.27"/>
</a>
</g>
</g>
<!-- Node25 -->
<g id="Node000025" class="node">
<title>Node25</title>
<g id="a_Node000025"><a xlink:href="../../dd/d4a/net_2http_8c.html#aaa847a55e8d6c54f4ac9146417c08ff9" target="_top" xlink:title=" ">
<polygon fill="white" stroke="#666666" points="1915.75,-155.89 1796.25,-155.89 1796.25,-125.39 1915.75,-125.39 1915.75,-155.89"/>
<text text-anchor="start" x="1804.25" y="-142.39" font-family="Helvetica,sans-Serif" font-size="10.00">http2_conn_parse_push</text>
<text text-anchor="middle" x="1856" y="-131.14" font-family="Helvetica,sans-Serif" font-size="10.00">_promise</text>
</a>
</g>
</g>
<!-- Node3&#45;&gt;Node25 -->
<g id="edge27_Node000003_Node000025" class="edge">
<title>Node3&#45;&gt;Node25</title>
<g id="a_edge27_Node000003_Node000025"><a xlink:title=" ">
<path fill="none" stroke="#63b8ff" d="M1956.62,-142.41C1943.19,-142.18 1929.22,-141.93 1916.13,-141.69"/>
<polygon fill="#63b8ff" stroke="#63b8ff" points="1956.16,-145.91 1966.22,-142.59 1956.29,-138.91 1956.16,-145.91"/>
</a>
</g>
</g>
<!-- Node5 -->
<g id="Node000005" class="node">
<title>Node5</title>
<g id="a_Node000005"><a xlink:href="../../dd/d4a/net_2http_8c.html#aa90fc77fe3e9885a90fa3b0a5d066fda" target="_top" xlink:title=" ">
<polygon fill="white" stroke="#666666" points="1568.75,-192.89 1465,-192.89 1465,-162.39 1568.75,-162.39 1568.75,-192.89"/>
<text text-anchor="start" x="1473" y="-179.39" font-family="Helvetica,sans-Serif" font-size="10.00">http2_conn_process</text>
<text text-anchor="middle" x="1516.88" y="-168.14" font-family="Helvetica,sans-Serif" font-size="10.00">_input_buffer</text>
</a>
</g>
</g>
<!-- Node4&#45;&gt;Node5 -->
<g id="edge4_Node000004_Node000005" class="edge">
<title>Node4&#45;&gt;Node5</title>
<g id="a_edge4_Node000004_Node000005"><a xlink:title=" ">
<path fill="none" stroke="#63b8ff" d="M1617.55,-177.64C1601.32,-177.64 1584.32,-177.64 1569.04,-177.64"/>
<polygon fill="#63b8ff" stroke="#63b8ff" points="1617.12,-181.14 1627.12,-177.64 1617.12,-174.14 1617.12,-181.14"/>
</a>
</g>
</g>
<!-- Node6 -->
<g id="Node000006" class="node">
<title>Node6</title>
<g id="a_Node000006"><a xlink:href="../../dd/d4a/net_2http_8c.html#a7116239c9f5e15549b2c80081b8cc76d" target="_top" xlink:title=" ">
<polygon fill="white" stroke="#666666" points="1411.75,-230.26 1302.75,-230.26 1302.75,-211.01 1411.75,-211.01 1411.75,-230.26"/>
<text text-anchor="middle" x="1357.25" y="-216.76" font-family="Helvetica,sans-Serif" font-size="10.00">http2_conn_on_event</text>
</a>
</g>
</g>
<!-- Node5&#45;&gt;Node6 -->
<g id="edge5_Node000005_Node000006" class="edge">
<title>Node5&#45;&gt;Node6</title>
<g id="a_edge5_Node000005_Node000006"><a xlink:title=" ">
<path fill="none" stroke="#63b8ff" d="M1453.86,-194.56C1434.01,-199.97 1412.67,-205.79 1395.2,-210.56"/>
<polygon fill="#63b8ff" stroke="#63b8ff" points="1454.51,-198 1463.24,-192 1452.67,-191.25 1454.51,-198"/>
</a>
</g>
</g>
<!-- Node7 -->
<g id="Node000007" class="node">
<title>Node7</title>
<g id="a_Node000007"><a xlink:href="../../dd/d4a/net_2http_8c.html#ad211549032983c94d9f52c4522a906a6" target="_top" xlink:title=" ">
<polygon fill="white" stroke="#666666" points="1266.75,-192.26 1126.25,-192.26 1126.25,-173.01 1266.75,-173.01 1266.75,-192.26"/>
<text text-anchor="middle" x="1196.5" y="-178.76" font-family="Helvetica,sans-Serif" font-size="10.00">http2_conn_on_preface_wait</text>
</a>
</g>
</g>
<!-- Node5&#45;&gt;Node7 -->
<g id="edge21_Node000005_Node000007" class="edge">
<title>Node5&#45;&gt;Node7</title>
<g id="a_edge21_Node000005_Node000007"><a xlink:title=" ">
<path fill="none" stroke="#63b8ff" d="M1453.33,-178.62C1399.78,-179.46 1322.75,-180.67 1267.22,-181.54"/>
<polygon fill="#63b8ff" stroke="#63b8ff" points="1453.27,-182.12 1463.21,-178.46 1453.16,-175.12 1453.27,-182.12"/>
</a>
</g>
</g>
<!-- Node22 -->
<g id="Node000022" class="node">
<title>Node22</title>
<g id="a_Node000022"><a xlink:href="../../dd/d4a/net_2http_8c.html#a84f0d249dafc919190634bd941b2bf6c" target="_top" xlink:title=" ">
<polygon fill="white" stroke="#666666" points="1260.38,-154.26 1132.62,-154.26 1132.62,-135.01 1260.38,-135.01 1260.38,-154.26"/>
<text text-anchor="middle" x="1196.5" y="-140.76" font-family="Helvetica,sans-Serif" font-size="10.00">http2_conn_pack_preface</text>
</a>
</g>
</g>
<!-- Node5&#45;&gt;Node22 -->
<g id="edge22_Node000005_Node000022" class="edge">
<title>Node5&#45;&gt;Node22</title>
<g id="a_edge22_Node000005_Node000022"><a xlink:title=" ">
<path fill="none" stroke="#63b8ff" d="M1453.6,-171.18C1397.97,-165.42 1316.83,-157.01 1260.86,-151.2"/>
<polygon fill="#63b8ff" stroke="#63b8ff" points="1452.91,-174.63 1463.22,-172.18 1453.63,-167.67 1452.91,-174.63"/>
</a>
</g>
</g>
<!-- Node6&#45;&gt;Node7 -->
<g id="edge6_Node000006_Node000007" class="edge">
<title>Node6&#45;&gt;Node7</title>
<g id="a_edge6_Node000006_Node000007"><a xlink:title=" ">
<path fill="none" stroke="#63b8ff" d="M1302.96,-207.88C1282.3,-202.94 1258.99,-197.36 1239.55,-192.7"/>
<polygon fill="#63b8ff" stroke="#63b8ff" points="1302.11,-211.28 1312.65,-210.2 1303.74,-204.47 1302.11,-211.28"/>
</a>
</g>
</g>
<!-- Node8 -->
<g id="Node000008" class="node">
<title>Node8</title>
<g id="a_Node000008"><a xlink:href="../../dd/d4a/net_2http_8c.html#a3ae7da35c16d0895aea3196afb96e16d" target="_top" xlink:title=" ">
<polygon fill="white" stroke="#666666" points="1090.25,-173.26 970.75,-173.26 970.75,-154.01 1090.25,-154.01 1090.25,-173.26"/>
<text text-anchor="middle" x="1030.5" y="-159.76" font-family="Helvetica,sans-Serif" font-size="10.00">http2_conn_on_connect</text>
</a>
</g>
</g>
<!-- Node7&#45;&gt;Node8 -->
<g id="edge7_Node000007_Node000008" class="edge">
<title>Node7&#45;&gt;Node8</title>
<g id="a_edge7_Node000007_Node000008"><a xlink:title=" ">
<path fill="none" stroke="#63b8ff" d="M1114.55,-173.26C1106.46,-172.32 1098.35,-171.38 1090.54,-170.48"/>
<polygon fill="#63b8ff" stroke="#63b8ff" points="1114.11,-176.73 1124.45,-174.41 1114.92,-169.78 1114.11,-176.73"/>
</a>
</g>
</g>
<!-- Node9 -->
<g id="Node000009" class="node">
<title>Node9</title>
<g id="a_Node000009"><a xlink:href="../../dd/d4a/net_2http_8c.html#a5754e9d15cd8048e27331bb4aaed12b7" target="_top" xlink:title=" ">
<polygon fill="white" stroke="#666666" points="929.5,-200.89 825.75,-200.89 825.75,-170.39 929.5,-170.39 929.5,-200.89"/>
<text text-anchor="start" x="833.75" y="-187.39" font-family="Helvetica,sans-Serif" font-size="10.00">http2_conn_connect</text>
<text text-anchor="middle" x="877.62" y="-176.14" font-family="Helvetica,sans-Serif" font-size="10.00">_client_as</text>
</a>
</g>
</g>
<!-- Node8&#45;&gt;Node9 -->
<g id="edge8_Node000008_Node000009" class="edge">
<title>Node8&#45;&gt;Node9</title>
<g id="a_edge8_Node000008_Node000009"><a xlink:title=" ">
<path fill="none" stroke="#63b8ff" d="M959.21,-173.89C949.3,-175.33 939.28,-176.79 929.83,-178.17"/>
<polygon fill="#63b8ff" stroke="#63b8ff" points="959.42,-177.39 968.81,-172.49 958.41,-170.47 959.42,-177.39"/>
</a>
</g>
</g>
<!-- Node19 -->
<g id="Node000019" class="node">
<title>Node19</title>
<g id="a_Node000019"><a xlink:href="../../dd/d4a/net_2http_8c.html#a3926ffca7cc91de4f1ef8ac35a7420c5" target="_top" xlink:title=" ">
<polygon fill="white" stroke="#666666" points="934.75,-152.26 820.5,-152.26 820.5,-133.01 934.75,-133.01 934.75,-152.26"/>
<text text-anchor="middle" x="877.62" y="-138.76" font-family="Helvetica,sans-Serif" font-size="10.00">httpd_spawn_as_http2</text>
</a>
</g>
</g>
<!-- Node8&#45;&gt;Node19 -->
<g id="edge18_Node000008_Node000019" class="edge">
<title>Node8&#45;&gt;Node19</title>
<g id="a_edge18_Node000008_Node000019"><a xlink:title=" ">
<path fill="none" stroke="#63b8ff" d="M959.07,-153.83C951.06,-152.72 942.98,-151.59 935.18,-150.51"/>
<polygon fill="#63b8ff" stroke="#63b8ff" points="958.42,-157.28 968.8,-155.19 959.38,-150.34 958.42,-157.28"/>
</a>
</g>
</g>
<!-- Node10 -->
<g id="Node000010" class="node">
<title>Node10</title>
<g id="a_Node000010"><a xlink:href="../../dd/d4a/net_2http_8c.html#a7a3e350c92c5b8a0ea73161bbc780926" target="_top" xlink:title=" ">
<polygon fill="white" stroke="#666666" points="784.5,-195.26 676.25,-195.26 676.25,-176.01 784.5,-176.01 784.5,-195.26"/>
<text text-anchor="middle" x="730.38" y="-181.76" font-family="Helvetica,sans-Serif" font-size="10.00">http2_pool_get_client</text>
</a>
</g>
</g>
<!-- Node9&#45;&gt;Node10 -->
<g id="edge9_Node000009_Node000010" class="edge">
<title>Node9&#45;&gt;Node10</title>
<g id="a_edge9_Node000009_Node000010"><a xlink:title=" ">
<path fill="none" stroke="#63b8ff" d="M814.05,-185.64C804.23,-185.64 794.16,-185.64 784.58,-185.64"/>
<polygon fill="#63b8ff" stroke="#63b8ff" points="813.9,-189.14 823.9,-185.64 813.9,-182.14 813.9,-189.14"/>
</a>
</g>
</g>
<!-- Node11 -->
<g id="Node000011" class="node">
<title>Node11</title>
<g id="a_Node000011"><a xlink:href="../../dd/d4a/net_2http_8c.html#ae849932f9841489cefbd4761c2ad561d" target="_top" xlink:title=" ">
<polygon fill="white" stroke="#666666" points="640.25,-195.26 520,-195.26 520,-176.01 640.25,-176.01 640.25,-195.26"/>
<text text-anchor="middle" x="580.12" y="-181.76" font-family="Helvetica,sans-Serif" font-size="10.00">httpc_connect_as_http2</text>
</a>
</g>
</g>
<!-- Node10&#45;&gt;Node11 -->
<g id="edge10_Node000010_Node000011" class="edge">
<title>Node10&#45;&gt;Node11</title>
<g id="a_edge10_Node000010_Node000011"><a xlink:title=" ">
<path fill="none" stroke="#63b8ff" d="M664.4,-185.64C656.48,-185.64 648.43,-185.64 640.6,-185.64"/>
<polygon fill="#63b8ff" stroke="#63b8ff" points="664.34,-189.14 674.34,-185.64 664.34,-182.14 664.34,-189.14"/>
</a>
</g>
</g>
<!-- Node12 -->
<g id="Node000012" class="node">
<title>Node12</title>
<g id="a_Node000012"><a xlink:href="../../dd/d4a/net_2http_8c.html#a30869b3f203c5600c7c6257da47f2a43" target="_top" xlink:title=" ">
<polygon fill="white" stroke="#666666" points="484,-195.26 390.75,-195.26 390.75,-176.01 484,-176.01 484,-195.26"/>
<text text-anchor="middle" x="437.38" y="-181.76" font-family="Helvetica,sans-Serif" font-size="10.00">httpc_connect_as</text>
</a>
</g>
</g>
<!-- Node11&#45;&gt;Node12 -->
<g id="edge11_Node000011_Node000012" class="edge">
<title>Node11&#45;&gt;Node12</title>
<g id="a_edge11_Node000011_Node000012"><a xlink:title=" ">
<path fill="none" stroke="#63b8ff" d="M508.35,-185.64C500.19,-185.64 492.04,-185.64 484.33,-185.64"/>
<polygon fill="#63b8ff" stroke="#63b8ff" points="508.33,-189.14 518.33,-185.64 508.33,-182.14 508.33,-189.14"/>
</a>
</g>
</g>
<!-- Node13 -->
<g id="Node000013" class="node">
<title>Node13</title>
<g id="a_Node000013"><a xlink:href="../../dd/d4a/net_2http_8c.html#a6fe5d8fb56f828b9cb355eaf9bb2efa8" target="_top" xlink:title=" ">
<polygon fill="white" stroke="#666666" points="346.12,-214.26 268.62,-214.26 268.62,-195.01 346.12,-195.01 346.12,-214.26"/>
<text text-anchor="middle" x="307.38" y="-200.76" font-family="Helvetica,sans-Serif" font-size="10.00">httpc_connect</text>
</a>
</g>
</g>
<!-- Node12&#45;&gt;Node13 -->
<g id="edge12_Node000012_Node000013" class="edge">
<title>Node12&#45;&gt;Node13</title>
<g id="a_edge12_Node000012_Node000013"><a xlink:title=" ">
<path fill="none" stroke="#63b8ff" d="M379.46,-194.09C368.24,-195.75 356.72,-197.46 346.32,-199"/>
<polygon fill="#63b8ff" stroke="#63b8ff" points="379.65,-197.6 389.03,-192.67 378.62,-190.67 379.65,-197.6"/>
</a>
</g>
</g>
<!-- Node17 -->
<g id="Node000017" class="node">
<title>Node17</title>
<g id="a_Node000017"><a xlink:href="../../dd/d4a/net_2http_8c.html#a08d48d7c0320097b6e50119e49dd1a5d" target="_top" xlink:title=" ">
<polygon fill="white" stroke="#666666" points="354.75,-177.26 260,-177.26 260,-158.01 354.75,-158.01 354.75,-177.26"/>
<text text-anchor="middle" x="307.38" y="-163.76" font-family="Helvetica,sans-Serif" font-size="10.00">httpc_pool_launch</text>
</a>
</g>
</g>
<!-- Node12&#45;&gt;Node17 -->
<g id="edge16_Node000012_Node000017" class="edge">
<title>Node12&#45;&gt;Node17</title>
<g id="a_edge16_Node000012_Node000017"><a xlink:title=" ">
<path fill="none" stroke="#63b8ff" d="M379.29,-177.61C371.23,-176.48 363.03,-175.32 355.2,-174.22"/>
<polygon fill="#63b8ff" stroke="#63b8ff" points="378.64,-181.05 389.03,-178.98 379.61,-174.12 378.64,-181.05"/>
</a>
</g>
</g>
<!-- Node14 -->
<g id="Node000014" class="node">
<title>Node14</title>
<g id="a_Node000014"><a xlink:href="../../dd/d4a/net_2http_8c.html#ae0600e298ca883d66d4ff582e8786e11" target="_top" xlink:title=" ">
<polygon fill="white" stroke="#666666" points="223.25,-214.26 145,-214.26 145,-195.01 223.25,-195.01 223.25,-214.26"/>
<text text-anchor="middle" x="184.12" y="-200.76" font-family="Helvetica,sans-Serif" font-size="10.00">z_query_setup</text>
</a>
</g>
</g>
<!-- Node13&#45;&gt;Node14 -->
<g id="edge13_Node000013_Node000014" class="edge">
<title>Node13&#45;&gt;Node14</title>
<g id="a_edge13_Node000013_Node000014"><a xlink:title=" ">
<path fill="none" stroke="#63b8ff" d="M256.95,-204.64C245.78,-204.64 234.08,-204.64 223.44,-204.64"/>
<polygon fill="#63b8ff" stroke="#63b8ff" points="256.83,-208.14 266.83,-204.64 256.83,-201.14 256.83,-208.14"/>
</a>
</g>
</g>
<!-- Node15 -->
<g id="Node000015" class="node">
<title>Node15</title>
<g id="a_Node000015"><a xlink:href="../../dd/d4a/net_2http_8c.html#ad6f99386fb518c8ba64244857b0240e1" target="_top" xlink:title=" ">
<polygon fill="white" stroke="#666666" points="108.25,-232.26 0,-232.26 0,-213.01 108.25,-213.01 108.25,-232.26"/>
<text text-anchor="middle" x="54.12" y="-218.76" font-family="Helvetica,sans-Serif" font-size="10.00">Z_GROUP_EXPORT</text>
</a>
</g>
</g>
<!-- Node14&#45;&gt;Node15 -->
<g id="edge14_Node000014_Node000015" class="edge">
<title>Node14&#45;&gt;Node15</title>
<g id="a_edge14_Node000014_Node000015"><a xlink:title=" ">
<path fill="none" stroke="#63b8ff" d="M133.49,-211.62C125.35,-212.76 116.88,-213.95 108.65,-215.11"/>
<polygon fill="#63b8ff" stroke="#63b8ff" points="133.81,-215.11 143.22,-210.25 132.83,-208.18 133.81,-215.11"/>
</a>
</g>
</g>
<!-- Node16 -->
<g id="Node000016" class="node">
<title>Node16</title>
<g id="a_Node000016"><a xlink:href="../../dd/d4a/net_2http_8c.html#ad196e07d97f054b7629a5f94093340dd" target="_top" xlink:title=" ">
<polygon fill="white" stroke="#666666" points="108.25,-195.26 0,-195.26 0,-176.01 108.25,-176.01 108.25,-195.26"/>
<text text-anchor="middle" x="54.12" y="-181.76" font-family="Helvetica,sans-Serif" font-size="10.00">Z_GROUP_EXPORT</text>
</a>
</g>
</g>
<!-- Node14&#45;&gt;Node16 -->
<g id="edge15_Node000014_Node000016" class="edge">
<title>Node14&#45;&gt;Node16</title>
<g id="a_edge15_Node000014_Node000016"><a xlink:title=" ">
<path fill="none" stroke="#63b8ff" d="M133.49,-197.27C125.35,-196.06 116.88,-194.8 108.65,-193.58"/>
<polygon fill="#63b8ff" stroke="#63b8ff" points="132.82,-200.71 143.22,-198.71 133.85,-193.78 132.82,-200.71"/>
</a>
</g>
</g>
<!-- Node18 -->
<g id="Node000018" class="node">
<title>Node18</title>
<g id="a_Node000018"><a xlink:href="../../dd/d4a/net_2http_8c.html#a13fe4b4dc9d8e2b66738d7bc50745860" target="_top" xlink:title=" ">
<polygon fill="white" stroke="#666666" points="224,-177.26 144.25,-177.26 144.25,-158.01 224,-158.01 224,-177.26"/>
<text text-anchor="middle" x="184.12" y="-163.76" font-family="Helvetica,sans-Serif" font-size="10.00">httpc_pool_get</text>
</a>
</g>
</g>
<!-- Node17&#45;&gt;Node18 -->
<g id="edge17_Node000017_Node000018" class="edge">
<title>Node17&#45;&gt;Node18</title>
<g id="a_edge17_Node000017_Node000018"><a xlink:title=" ">
<path fill="none" stroke="#63b8ff" d="M248.38,-167.64C240.2,-167.64 231.95,-167.64 224.24,-167.64"/>
<polygon fill="#63b8ff" stroke="#63b8ff" points="248.33,-171.14 258.33,-167.64 248.33,-164.14 248.33,-171.14"/>
</a>
</g>
</g>
<!-- Node20 -->
<g id="Node000020" class="node">
<title>Node20</title>
<g id="a_Node000020"><a xlink:href="../../dd/d4a/net_2http_8c.html#ababf4c72b8aba8aa09b45da6bccfd250" target="_top" xlink:title=" ">
<polygon fill="white" stroke="#666666" points="774.38,-152.26 686.38,-152.26 686.38,-133.01 774.38,-133.01 774.38,-152.26"/>
<text text-anchor="middle" x="730.38" y="-138.76" font-family="Helvetica,sans-Serif" font-size="10.00">httpd_on_accept</text>
</a>
</g>
</g>
<!-- Node19&#45;&gt;Node20 -->
<g id="edge19_Node000019_Node000020" class="edge">
<title>Node19&#45;&gt;Node20</title>
<g id="a_edge19_Node000019_Node000020"><a xlink:title=" ">
<path fill="none" stroke="#63b8ff" d="M808.56,-142.64C796.97,-142.64 785.23,-142.64 774.52,-142.64"/>
<polygon fill="#63b8ff" stroke="#63b8ff" points="808.54,-146.14 818.54,-142.64 808.54,-139.14 808.54,-146.14"/>
</a>
</g>
</g>
<!-- Node21 -->
<g id="Node000021" class="node">
<title>Node21</title>
<g id="a_Node000021"><a xlink:href="../../dd/d4a/net_2http_8c.html#a4bb48b79e806519f505be1648ff296fd" target="_top" xlink:title=" ">
<polygon fill="white" stroke="#666666" points="613.25,-152.26 547,-152.26 547,-133.01 613.25,-133.01 613.25,-152.26"/>
<text text-anchor="middle" x="580.12" y="-138.76" font-family="Helvetica,sans-Serif" font-size="10.00">httpd_listen</text>
</a>
</g>
</g>
<!-- Node20&#45;&gt;Node21 -->
<g id="edge20_Node000020_Node000021" class="edge">
<title>Node20&#45;&gt;Node21</title>
<g id="a_edge20_Node000020_Node000021"><a xlink:title=" ">
<path fill="none" stroke="#63b8ff" d="M674.6,-142.64C654,-142.64 631.27,-142.64 613.37,-142.64"/>
<polygon fill="#63b8ff" stroke="#63b8ff" points="674.58,-146.14 684.58,-142.64 674.58,-139.14 674.58,-146.14"/>
</a>
</g>
</g>
<!-- Node22&#45;&gt;Node8 -->
<g id="edge23_Node000022_Node000008" class="edge">
<title>Node22&#45;&gt;Node8</title>
<g id="a_edge23_Node000022_Node000008"><a xlink:title=" ">
<path fill="none" stroke="#63b8ff" d="M1121.42,-153.22C1111.06,-154.42 1100.53,-155.64 1090.5,-156.8"/>
<polygon fill="#63b8ff" stroke="#63b8ff" points="1121.53,-156.73 1131.06,-152.1 1120.72,-149.78 1121.53,-156.73"/>
</a>
</g>
</g>
<!-- Node24 -->
<g id="Node000024" class="node">
<title>Node24</title>
<g id="a_Node000024"><a xlink:href="../../dd/d4a/net_2http_8c.html#addba8a3224c0f2a994e3eb238c43ef0b" target="_top" xlink:title=" ">
<polygon fill="white" stroke="#666666" points="1753.5,-125.26 1622,-125.26 1622,-106.01 1753.5,-106.01 1753.5,-125.26"/>
<text text-anchor="middle" x="1687.75" y="-111.76" font-family="Helvetica,sans-Serif" font-size="10.00">http2_conn_parse_payload</text>
</a>
</g>
</g>
<!-- Node23&#45;&gt;Node24 -->
<g id="edge25_Node000023_Node000024" class="edge">
<title>Node23&#45;&gt;Node24</title>
<g id="a_edge25_Node000023_Node000024"><a xlink:title=" ">
<path fill="none" stroke="#63b8ff" d="M1778.02,-105.97C1769.98,-106.84 1761.87,-107.72 1753.98,-108.57"/>
<polygon fill="#63b8ff" stroke="#63b8ff" points="1778.22,-109.47 1787.79,-104.91 1777.47,-102.51 1778.22,-109.47"/>
</a>
</g>
</g>
<!-- Node24&#45;&gt;Node5 -->
<g id="edge26_Node000024_Node000005" class="edge">
<title>Node24&#45;&gt;Node5</title>
<g id="a_edge26_Node000024_Node000005"><a xlink:title=" ">
<path fill="none" stroke="#63b8ff" d="M1648.6,-129.64C1622.42,-139.25 1587.66,-152.02 1560.57,-161.96"/>
<polygon fill="#63b8ff" stroke="#63b8ff" points="1649.64,-132.99 1657.82,-126.26 1647.23,-126.42 1649.64,-132.99"/>
</a>
</g>
</g>
<!-- Node25&#45;&gt;Node24 -->
<g id="edge28_Node000025_Node000024" class="edge">
<title>Node25&#45;&gt;Node24</title>
<g id="a_edge28_Node000025_Node000024"><a xlink:title=" ">
<path fill="none" stroke="#63b8ff" d="M1784.56,-130.04C1774.38,-128.51 1763.93,-126.94 1753.86,-125.43"/>
<polygon fill="#63b8ff" stroke="#63b8ff" points="1784.01,-133.5 1794.42,-131.53 1785.05,-126.58 1784.01,-133.5"/>
</a>
</g>
</g>
<!-- Node27 -->
<g id="Node000027" class="node">
<title>Node27</title>
<g id="a_Node000027"><a xlink:href="../../dd/d4a/net_2http_8c.html#ae0cb7d72f5fab4d2156d1e8ccb7edf78" target="_top" xlink:title=" ">
<polygon fill="white" stroke="#666666" points="2235,-213.89 2129.75,-213.89 2129.75,-183.39 2235,-183.39 2235,-213.89"/>
<text text-anchor="start" x="2137.75" y="-200.39" font-family="Helvetica,sans-Serif" font-size="10.00">http2_stream_attach</text>
<text text-anchor="middle" x="2182.38" y="-189.14" font-family="Helvetica,sans-Serif" font-size="10.00">_httpc</text>
</a>
</g>
</g>
<!-- Node26&#45;&gt;Node27 -->
<g id="edge30_Node000026_Node000027" class="edge">
<title>Node26&#45;&gt;Node27</title>
<g id="a_edge30_Node000026_Node000027"><a xlink:title=" ">
<path fill="none" stroke="#63b8ff" d="M2259.52,-195.72C2251.25,-196.03 2243.02,-196.35 2235.18,-196.65"/>
<polygon fill="#63b8ff" stroke="#63b8ff" points="2259.41,-199.22 2269.26,-195.34 2259.14,-192.23 2259.41,-199.22"/>
</a>
</g>
</g>
<!-- Node28 -->
<g id="Node000028" class="node">
<title>Node28</title>
<g id="a_Node000028"><a xlink:href="../../dd/d4a/net_2http_8c.html#ac8447ce72f46d5157ebc374347da10f0" target="_top" xlink:title=" ">
<polygon fill="white" stroke="#666666" points="2085.88,-225.89 1966.38,-225.89 1966.38,-195.39 2085.88,-195.39 2085.88,-225.89"/>
<text text-anchor="start" x="1974.38" y="-212.39" font-family="Helvetica,sans-Serif" font-size="10.00">http2_conn_stream_idle</text>
<text text-anchor="middle" x="2026.12" y="-201.14" font-family="Helvetica,sans-Serif" font-size="10.00">_httpc</text>
</a>
</g>
</g>
<!-- Node27&#45;&gt;Node28 -->
<g id="edge31_Node000027_Node000028" class="edge">
<title>Node27&#45;&gt;Node28</title>
<g id="a_edge31_Node000027_Node000028"><a xlink:title=" ">
<path fill="none" stroke="#63b8ff" d="M2118.27,-203.55C2107.68,-204.37 2096.72,-205.22 2086.23,-206.04"/>
<polygon fill="#63b8ff" stroke="#63b8ff" points="2118.38,-207.05 2128.07,-202.78 2117.83,-200.07 2118.38,-207.05"/>
</a>
</g>
</g>
<!-- Node29 -->
<g id="Node000029" class="node">
<title>Node29</title>
<g id="a_Node000029"><a xlink:href="../../dd/d4a/net_2http_8c.html#ab56b08eb153b50849ce6824fff45133c" target="_top" xlink:title=" ">
<polygon fill="white" stroke="#666666" points="1916.12,-241.89 1795.88,-241.89 1795.88,-211.39 1916.12,-211.39 1916.12,-241.89"/>
<text text-anchor="start" x="1803.88" y="-228.39" font-family="Helvetica,sans-Serif" font-size="10.00">http2_conn_on_streams</text>
<text text-anchor="middle" x="1856" y="-217.14" font-family="Helvetica,sans-Serif" font-size="10.00">_can_write_client</text>
</a>
</g>
</g>
<!-- Node28&#45;&gt;Node29 -->
<g id="edge32_Node000028_Node000029" class="edge">
<title>Node28&#45;&gt;Node29</title>
<g id="a_edge32_Node000028_Node000029"><a xlink:title=" ">
<path fill="none" stroke="#63b8ff" d="M1955.2,-217.29C1942.38,-218.51 1929.11,-219.77 1916.62,-220.96"/>
<polygon fill="#63b8ff" stroke="#63b8ff" points="1955.19,-220.81 1964.82,-216.38 1954.53,-213.84 1955.19,-220.81"/>
</a>
</g>
</g>
<!-- Node30 -->
<g id="Node000030" class="node">
<title>Node30</title>
<g id="a_Node000030"><a xlink:href="../../dd/d4a/net_2http_8c.html#ab1ce2354f7820e515ed425148c4e3243" target="_top" xlink:title=" ">
<polygon fill="white" stroke="#666666" points="1747.88,-241.89 1627.62,-241.89 1627.62,-211.39 1747.88,-211.39 1747.88,-241.89"/>
<text text-anchor="start" x="1635.62" y="-228.39" font-family="Helvetica,sans-Serif" font-size="10.00">http2_conn_on_streams</text>
<text text-anchor="middle" x="1687.75" y="-217.14" font-family="Helvetica,sans-Serif" font-size="10.00">_can_write</text>
</a>
</g>
</g>
<!-- Node29&#45;&gt;Node30 -->
<g id="edge33_Node000029_Node000030" class="edge">
<title>Node29&#45;&gt;Node30</title>
<g id="a_edge33_Node000029_Node000030"><a xlink:title=" ">
<path fill="none" stroke="#63b8ff" d="M1784.11,-226.64C1772.13,-226.64 1759.81,-226.64 1748.16,-226.64"/>
<polygon fill="#63b8ff" stroke="#63b8ff" points="1783.94,-230.14 1793.94,-226.64 1783.94,-223.14 1783.94,-230.14"/>
</a>
</g>
</g>
<!-- Node31 -->
<g id="Node000031" class="node">
<title>Node31</title>
<g id="a_Node000031"><a xlink:href="../../dd/d4a/net_2http_8c.html#aac4164640a709268a8ea3ff45c06134d" target="_top" xlink:title=" ">
<polygon fill="white" stroke="#666666" points="1568.75,-241.89 1465,-241.89 1465,-211.39 1568.75,-211.39 1568.75,-241.89"/>
<text text-anchor="start" x="1473" y="-228.39" font-family="Helvetica,sans-Serif" font-size="10.00">http2_conn_process</text>
<text text-anchor="middle" x="1516.88" y="-217.14" font-family="Helvetica,sans-Serif" font-size="10.00">_streams_output</text>
</a>
</g>
</g>
<!-- Node30&#45;&gt;Node31 -->
<g id="edge34_Node000030_Node000031" class="edge">
<title>Node30&#45;&gt;Node31</title>
<g id="a_edge34_Node000030_Node000031"><a xlink:title=" ">
<path fill="none" stroke="#63b8ff" d="M1615.9,-226.64C1600.17,-226.64 1583.8,-226.64 1569.04,-226.64"/>
<polygon fill="#63b8ff" stroke="#63b8ff" points="1615.7,-230.14 1625.7,-226.64 1615.7,-223.14 1615.7,-230.14"/>
</a>
</g>
</g>
<!-- Node31&#45;&gt;Node6 -->
<g id="edge35_Node000031_Node000006" class="edge">
<title>Node31&#45;&gt;Node6</title>
<g id="a_edge35_Node000031_Node000006"><a xlink:title=" ">
<path fill="none" stroke="#63b8ff" d="M1453.43,-224.26C1439.78,-223.74 1425.44,-223.19 1412.15,-222.69"/>
<polygon fill="#63b8ff" stroke="#63b8ff" points="1453.06,-227.75 1463.19,-224.63 1453.33,-220.75 1453.06,-227.75"/>
</a>
</g>
</g>
<!-- Node33 -->
<g id="Node000033" class="node">
<title>Node33</title>
<g id="a_Node000033"><a xlink:href="../../dd/d4a/net_2http_8c.html#aa714a2d55da4153b713f120acd207f4a" target="_top" xlink:title="Get the trimmed chunk of a HTTP/2 payload by removing the padding.">
<polygon fill="white" stroke="#666666" points="2093.75,-109.89 1958.5,-109.89 1958.5,-79.39 2093.75,-79.39 2093.75,-109.89"/>
<text text-anchor="start" x="1966.5" y="-96.39" font-family="Helvetica,sans-Serif" font-size="10.00">http2_payload_get_trimmed</text>
<text text-anchor="middle" x="2026.12" y="-85.14" font-family="Helvetica,sans-Serif" font-size="10.00">_chunk</text>
</a>
</g>
</g>
<!-- Node32&#45;&gt;Node33 -->
<g id="edge37_Node000032_Node000033" class="edge">
<title>Node32&#45;&gt;Node33</title>
<g id="a_edge37_Node000032_Node000033"><a xlink:title=" ">
<path fill="none" stroke="#63b8ff" d="M2141.94,-94.64C2127.34,-94.64 2110.35,-94.64 2093.99,-94.64"/>
<polygon fill="#63b8ff" stroke="#63b8ff" points="2141.57,-98.14 2151.57,-94.64 2141.57,-91.14 2141.57,-98.14"/>
</a>
</g>
</g>
<!-- Node35 -->
<g id="Node000035" class="node">
<title>Node35</title>
<g id="a_Node000035"><a xlink:href="../../d3/d7b/iopc-lang-c_8blk.html#ab59ecb49fa32971f227c2137d5e48d59" target="_top" xlink:title=" ">
<polygon fill="white" stroke="#666666" points="2075.38,-49.26 1976.88,-49.26 1976.88,-30.01 2075.38,-30.01 2075.38,-49.26"/>
<text text-anchor="middle" x="2026.12" y="-35.76" font-family="Helvetica,sans-Serif" font-size="10.00">iopc_dump_pattern</text>
</a>
</g>
</g>
<!-- Node32&#45;&gt;Node35 -->
<g id="edge42_Node000032_Node000035" class="edge">
<title>Node32&#45;&gt;Node35</title>
<g id="a_edge42_Node000032_Node000035"><a xlink:title=" ">
<path fill="none" stroke="#63b8ff" d="M2142.42,-80.75C2115.36,-71.1 2079.91,-58.46 2055.5,-49.75"/>
<polygon fill="#63b8ff" stroke="#63b8ff" points="2141.06,-83.98 2151.66,-84.04 2143.41,-77.39 2141.06,-83.98"/>
</a>
</g>
</g>
<!-- Node33&#45;&gt;Node23 -->
<g id="edge40_Node000033_Node000023" class="edge">
<title>Node33&#45;&gt;Node23</title>
<g id="a_edge40_Node000033_Node000023"><a xlink:title=" ">
<path fill="none" stroke="#63b8ff" d="M1946.91,-96.03C1938.87,-96.18 1930.76,-96.32 1922.88,-96.46"/>
<polygon fill="#63b8ff" stroke="#63b8ff" points="1946.75,-99.54 1956.68,-95.86 1946.62,-92.54 1946.75,-99.54"/>
</a>
</g>
</g>
<!-- Node33&#45;&gt;Node25 -->
<g id="edge41_Node000033_Node000025" class="edge">
<title>Node33&#45;&gt;Node25</title>
<g id="a_edge41_Node000033_Node000025"><a xlink:title=" ">
<path fill="none" stroke="#63b8ff" d="M1956.65,-113.37C1942.63,-117.21 1928,-121.21 1914.42,-124.93"/>
<polygon fill="#63b8ff" stroke="#63b8ff" points="1957.55,-116.75 1966.28,-110.74 1955.71,-110 1957.55,-116.75"/>
</a>
</g>
</g>
<!-- Node34 -->
<g id="Node000034" class="node">
<title>Node34</title>
<g id="a_Node000034"><a xlink:href="../../dd/d4a/net_2http_8c.html#a47dc85cf9d2fc00549967d2583a79992" target="_top" xlink:title=" ">
<polygon fill="white" stroke="#666666" points="1914.62,-70.26 1797.38,-70.26 1797.38,-51.01 1914.62,-51.01 1914.62,-70.26"/>
<text text-anchor="middle" x="1856" y="-56.76" font-family="Helvetica,sans-Serif" font-size="10.00">http2_conn_parse_data</text>
</a>
</g>
</g>
<!-- Node33&#45;&gt;Node34 -->
<g id="edge38_Node000033_Node000034" class="edge">
<title>Node33&#45;&gt;Node34</title>
<g id="a_edge38_Node000033_Node000034"><a xlink:title=" ">
<path fill="none" stroke="#63b8ff" d="M1947.25,-78.89C1933.52,-76.11 1919.56,-73.29 1906.86,-70.72"/>
<polygon fill="#63b8ff" stroke="#63b8ff" points="1946.22,-82.25 1956.71,-80.8 1947.6,-75.39 1946.22,-82.25"/>
</a>
</g>
</g>
<!-- Node34&#45;&gt;Node24 -->
<g id="edge39_Node000034_Node000024" class="edge">
<title>Node34&#45;&gt;Node24</title>
<g id="a_edge39_Node000034_Node000024"><a xlink:title=" ">
<path fill="none" stroke="#63b8ff" d="M1805.41,-73.79C1800.02,-75.36 1794.63,-76.99 1789.5,-78.64 1763.59,-86.94 1734.47,-97.81 1714.22,-105.61"/>
<polygon fill="#63b8ff" stroke="#63b8ff" points="1806.28,-77.18 1814.94,-71.08 1804.36,-70.45 1806.28,-77.18"/>
</a>
</g>
</g>
<!-- Node36 -->
<g id="Node000036" class="node">
<title>Node36</title>
<g id="a_Node000036"><a xlink:href="../../d3/d7b/iopc-lang-c_8blk.html#ab28c9ad460b506283d0fdb7942134595" target="_top" xlink:title=" ">
<polygon fill="white" stroke="#666666" points="1911.25,-33.26 1800.75,-33.26 1800.75,-14.01 1911.25,-14.01 1911.25,-33.26"/>
<text text-anchor="middle" x="1856" y="-19.76" font-family="Helvetica,sans-Serif" font-size="10.00">iopc_dump_field_attrs</text>
</a>
</g>
</g>
<!-- Node35&#45;&gt;Node36 -->
<g id="edge43_Node000035_Node000036" class="edge">
<title>Node35&#45;&gt;Node36</title>
<g id="a_edge43_Node000035_Node000036"><a xlink:title=" ">
<path fill="none" stroke="#63b8ff" d="M1965.28,-33.94C1947.82,-32.28 1928.84,-30.47 1911.72,-28.84"/>
<polygon fill="#63b8ff" stroke="#63b8ff" points="1964.7,-37.4 1974.99,-34.87 1965.37,-30.43 1964.7,-37.4"/>
</a>
</g>
</g>
<!-- Node37 -->
<g id="Node000037" class="node">
<title>Node37</title>
<g id="a_Node000037"><a xlink:href="../../d3/d7b/iopc-lang-c_8blk.html#a5932ca501a8fe4de629700124cb66e41" target="_top" xlink:title=" ">
<polygon fill="white" stroke="#666666" points="1743.75,-33.26 1631.75,-33.26 1631.75,-14.01 1743.75,-14.01 1743.75,-33.26"/>
<text text-anchor="middle" x="1687.75" y="-19.76" font-family="Helvetica,sans-Serif" font-size="10.00">iopc_struct_dump_src</text>
</a>
</g>
</g>
<!-- Node36&#45;&gt;Node37 -->
<g id="edge44_Node000036_Node000037" class="edge">
<title>Node36&#45;&gt;Node37</title>
<g id="a_edge44_Node000036_Node000037"><a xlink:title=" ">
<path fill="none" stroke="#63b8ff" d="M1789.32,-23.64C1774.37,-23.64 1758.63,-23.64 1744.16,-23.64"/>
<polygon fill="#63b8ff" stroke="#63b8ff" points="1789.05,-27.14 1799.05,-23.64 1789.05,-20.14 1789.05,-27.14"/>
</a>
</g>
</g>
<!-- Node38 -->
<g id="Node000038" class="node">
<title>Node38</title>
<g id="a_Node000038"><a xlink:href="../../d3/d7b/iopc-lang-c_8blk.html#ac633cc5263e2185fcaaaa32bff48aade" target="_top" xlink:title=" ">
<polygon fill="white" stroke="#666666" points="1226.62,-52.26 1166.38,-52.26 1166.38,-33.01 1226.62,-33.01 1226.62,-52.26"/>
<text text-anchor="middle" x="1196.5" y="-38.76" font-family="Helvetica,sans-Serif" font-size="10.00">iopc_do_c</text>
</a>
</g>
</g>
<!-- Node37&#45;&gt;Node38 -->
<g id="edge45_Node000037_Node000038" class="edge">
<title>Node37&#45;&gt;Node38</title>
<g id="a_edge45_Node000037_Node000038"><a xlink:title=" ">
<path fill="none" stroke="#63b8ff" d="M1631.83,-35.91C1617.03,-38.69 1600.97,-41.24 1586,-42.64 1452.36,-55.13 1291.73,-48.2 1226.83,-44.49"/>
<polygon fill="#63b8ff" stroke="#63b8ff" points="1632.24,-39.4 1641.38,-34.04 1630.89,-32.53 1632.24,-39.4"/>
</a>
</g>
</g>
<!-- Node43 -->
<g id="Node000043" class="node">
<title>Node43</title>
<g id="a_Node000043"><a xlink:href="../../d3/d7b/iopc-lang-c_8blk.html#a60e8f426c2193869d8bd3daaecdc8173" target="_top" xlink:title=" ">
<polygon fill="white" stroke="#666666" points="1411.38,-33.26 1303.12,-33.26 1303.12,-14.01 1411.38,-14.01 1411.38,-33.26"/>
<text text-anchor="middle" x="1357.25" y="-19.76" font-family="Helvetica,sans-Serif" font-size="10.00">iopc_iface_dump_src</text>
</a>
</g>
</g>
<!-- Node37&#45;&gt;Node43 -->
<g id="edge50_Node000037_Node000043" class="edge">
<title>Node37&#45;&gt;Node43</title>
<g id="a_edge50_Node000037_Node000043"><a xlink:title=" ">
<path fill="none" stroke="#63b8ff" d="M1631.83,-11.36C1617.03,-8.58 1600.97,-6.04 1586,-4.64 1524.82,1.08 1508.86,1.78 1447.75,-4.64 1431,-6.39 1412.78,-9.95 1397.18,-13.52"/>
<polygon fill="#63b8ff" stroke="#63b8ff" points="1630.89,-14.75 1641.38,-13.23 1632.24,-7.88 1630.89,-14.75"/>
</a>
</g>
</g>
<!-- Node44 -->
<g id="Node000044" class="node">
<title>Node44</title>
<g id="a_Node000044"><a xlink:href="../../d3/d7b/iopc-lang-c_8blk.html#a60e21f96951fdd7e1bbb43189cc174de" target="_top" xlink:title=" ">
<polygon fill="white" stroke="#666666" points="1586,-33.26 1447.75,-33.26 1447.75,-14.01 1586,-14.01 1586,-33.26"/>
<text text-anchor="middle" x="1516.88" y="-19.76" font-family="Helvetica,sans-Serif" font-size="10.00">iopc_iface_struct_dump_src</text>
</a>
</g>
</g>
<!-- Node37&#45;&gt;Node44 -->
<g id="edge52_Node000037_Node000044" class="edge">
<title>Node37&#45;&gt;Node44</title>
<g id="a_edge52_Node000037_Node000044"><a xlink:title=" ">
<path fill="none" stroke="#63b8ff" d="M1620.07,-23.64C1608.96,-23.64 1597.43,-23.64 1586.28,-23.64"/>
<polygon fill="#63b8ff" stroke="#63b8ff" points="1619.94,-27.14 1629.94,-23.64 1619.94,-20.14 1619.94,-27.14"/>
</a>
</g>
</g>
<!-- Node39 -->
<g id="Node000039" class="node">
<title>Node39</title>
<g id="a_Node000039"><a xlink:href="../../df/d1f/iopc_8c.html#a693d2e305d9102c8dd03b6bd0bf61111" target="_top" xlink:title=" ">
<polygon fill="white" stroke="#666666" points="1072.25,-34.26 988.75,-34.26 988.75,-15.01 1072.25,-15.01 1072.25,-34.26"/>
<text text-anchor="middle" x="1030.5" y="-20.76" font-family="Helvetica,sans-Serif" font-size="10.00">build_doit_table</text>
</a>
</g>
</g>
<!-- Node38&#45;&gt;Node39 -->
<g id="edge46_Node000038_Node000039" class="edge">
<title>Node38&#45;&gt;Node39</title>
<g id="a_edge46_Node000038_Node000039"><a xlink:title=" ">
<path fill="none" stroke="#63b8ff" d="M1154.85,-38.18C1129.78,-35.42 1097.73,-31.91 1072.58,-29.15"/>
<polygon fill="#63b8ff" stroke="#63b8ff" points="1154.35,-41.64 1164.68,-39.25 1155.12,-34.68 1154.35,-41.64"/>
</a>
</g>
</g>
<!-- Node41 -->
<g id="Node000041" class="node">
<title>Node41</title>
<g id="a_Node000041"><a xlink:href="../../db/d07/iopc-dso_8c.html#a95a19b847fb352eb92b539cf3495f093" target="_top" xlink:title=" ">
<polygon fill="white" stroke="#666666" points="1060.25,-71.26 1000.75,-71.26 1000.75,-52.01 1060.25,-52.01 1060.25,-71.26"/>
<text text-anchor="middle" x="1030.5" y="-57.76" font-family="Helvetica,sans-Serif" font-size="10.00">iopc_build</text>
</a>
</g>
</g>
<!-- Node38&#45;&gt;Node41 -->
<g id="edge48_Node000038_Node000041" class="edge">
<title>Node38&#45;&gt;Node41</title>
<g id="a_edge48_Node000038_Node000041"><a xlink:title=" ">
<path fill="none" stroke="#63b8ff" d="M1155.07,-47.32C1125.77,-50.72 1086.84,-55.23 1060.57,-58.27"/>
<polygon fill="#63b8ff" stroke="#63b8ff" points="1155.15,-50.84 1164.68,-46.21 1154.34,-43.88 1155.15,-50.84"/>
</a>
</g>
</g>
<!-- Node40 -->
<g id="Node000040" class="node">
<title>Node40</title>
<g id="a_Node000040"><a xlink:href="../../df/d1f/iopc_8c.html#a3c04138a5bfe5d72780bb7e82a18e627" target="_top" xlink:title=" ">
<polygon fill="white" stroke="#666666" points="896.12,-34.26 859.12,-34.26 859.12,-15.01 896.12,-15.01 896.12,-34.26"/>
<text text-anchor="middle" x="877.62" y="-20.76" font-family="Helvetica,sans-Serif" font-size="10.00">main</text>
</a>
</g>
</g>
<!-- Node39&#45;&gt;Node40 -->
<g id="edge47_Node000039_Node000040" class="edge">
<title>Node39&#45;&gt;Node40</title>
<g id="a_edge47_Node000039_Node000040"><a xlink:title=" ">
<path fill="none" stroke="#63b8ff" d="M977.01,-24.64C949.02,-24.64 916.36,-24.64 896.6,-24.64"/>
<polygon fill="#63b8ff" stroke="#63b8ff" points="976.76,-28.14 986.76,-24.64 976.76,-21.14 976.76,-28.14"/>
</a>
</g>
</g>
<!-- Node42 -->
<g id="Node000042" class="node">
<title>Node42</title>
<g id="a_Node000042"><a xlink:href="../../db/d07/iopc-dso_8c.html#ab2da67841232fab2872190ddabd94a81" target="_top" xlink:title="Build an IOP DSO.">
<polygon fill="white" stroke="#666666" points="917.88,-71.26 837.38,-71.26 837.38,-52.01 917.88,-52.01 917.88,-71.26"/>
<text text-anchor="middle" x="877.62" y="-57.76" font-family="Helvetica,sans-Serif" font-size="10.00">iopc_dso_build</text>
</a>
</g>
</g>
<!-- Node41&#45;&gt;Node42 -->
<g id="edge49_Node000041_Node000042" class="edge">
<title>Node41&#45;&gt;Node42</title>
<g id="a_edge49_Node000041_Node000042"><a xlink:title=" ">
<path fill="none" stroke="#63b8ff" d="M989.11,-61.64C967.13,-61.64 940.03,-61.64 918.18,-61.64"/>
<polygon fill="#63b8ff" stroke="#63b8ff" points="988.9,-65.14 998.9,-61.64 988.9,-58.14 988.9,-65.14"/>
</a>
</g>
</g>
<!-- Node43&#45;&gt;Node38 -->
<g id="edge51_Node000043_Node000038" class="edge">
<title>Node43&#45;&gt;Node38</title>
<g id="a_edge51_Node000043_Node000038"><a xlink:title=" ">
<path fill="none" stroke="#63b8ff" d="M1291.72,-31.36C1269.21,-34.05 1245.06,-36.94 1226.84,-39.13"/>
<polygon fill="#63b8ff" stroke="#63b8ff" points="1291.93,-34.86 1301.44,-30.2 1291.1,-27.91 1291.93,-34.86"/>
</a>
</g>
</g>
<!-- Node44&#45;&gt;Node43 -->
<g id="edge53_Node000044_Node000043" class="edge">
<title>Node44&#45;&gt;Node43</title>
<g id="a_edge53_Node000044_Node000043"><a xlink:title=" ">
<path fill="none" stroke="#63b8ff" d="M1436.36,-23.64C1428.06,-23.64 1419.76,-23.64 1411.85,-23.64"/>
<polygon fill="#63b8ff" stroke="#63b8ff" points="1436.14,-27.14 1446.14,-23.64 1436.14,-20.14 1436.14,-27.14"/>
</a>
</g>
</g>
</g>
</svg>

<g id="navigator" transform="translate(0 0)" fill="#404254">
  <rect fill="#f2f5e9" fill-opacity="0.5" stroke="#606060" stroke-width=".5" x="0" y="0" width="60" height="60"/>
  <use id="zoomplus" xlink:href="#zoomPlus" x="17" y="9" onmousedown="handleZoom(evt,'in')"/>
  <use id="zoomminus" xlink:href="#zoomMin" x="42" y="9" onmousedown="handleZoom(evt,'out')"/>
  <use id="reset" xlink:href="#resetDef" x="30" y="36" onmousedown="handleReset()"/>
   <use id="arrowup" xlink:href="#arrowUp" x="0" y="0" onmousedown="handlePan(0,-1)"/>
  <use id="arrowright" xlink:href="#arrowRight" x="0" y="0" onmousedown="handlePan(1,0)"/>
  <use id="arrowdown" xlink:href="#arrowDown" x="0" y="0" onmousedown="handlePan(0,1)"/>
  <use id="arrowleft" xlink:href="#arrowLeft" x="0" y="0" onmousedown="handlePan(-1,0)"/>
</g>
<svg viewBox="0 0 15 15" width="100%" height="30px" preserveAspectRatio="xMaxYMin meet">
 <g id="arrow_out" transform="scale(0.3 0.3)">
  <a xlink:href="str-stream_8h_a8d7073463a854092c24b8bd8ae12a060_icgraph_org.svg" target="_base">
   <rect id="button" ry="5" rx="5" y="6" x="6" height="38" width="38"
        fill="#f2f5e9" fill-opacity="0.5" stroke="#606060" stroke-width="1.0"/>
   <path id="arrow"
     d="M 11.500037,31.436501 C 11.940474,20.09759 22.043105,11.32322 32.158766,21.979434 L 37.068811,17.246167 C 37.068811,17.246167 37.088388,32 37.088388,32 L 22.160133,31.978069 C 22.160133,31.978069 26.997745,27.140456 26.997745,27.140456 C 18.528582,18.264221 13.291696,25.230495 11.500037,31.436501 z"
     style="fill:#404040;"/>
  </a>
 </g>
</svg>

<style type='text/css'>
<![CDATA[
[data-mouse-over-selected='false'] { opacity: 0.7; }
[data-mouse-over-selected='true']  { opacity: 1.0; }
]]>
</style>
<script type="application/ecmascript"><![CDATA[
document.addEventListener('DOMContentLoaded', (event) => {
  highlightEdges();
  highlightAdjacentNodes();
});
]]></script>
</svg>
