<?xml version="1.0" encoding="UTF-8" standalone="no"?>
<!DOCTYPE svg PUBLIC "-//W3C//DTD SVG 1.1//EN"
 "http://www.w3.org/Graphics/SVG/1.1/DTD/svg11.dtd">
<!-- Generated by graphviz version 9.0.0 (20230911.1827)
 -->
<!-- Title: ps_get_tok Pages: 1 -->
<svg width="433pt" height="82pt"
 viewBox="0.00 0.00 432.75 82.25" xmlns="http://www.w3.org/2000/svg" xmlns:xlink="http://www.w3.org/1999/xlink">

<svg id="main" version="1.1" xmlns="http://www.w3.org/2000/svg" xmlns:xlink="http://www.w3.org/1999/xlink" xml:space="preserve" onload="init(evt)">
<style type="text/css"><![CDATA[
.node, .edge {opacity: 0.7;}
.node.selected, .edge.selected {opacity: 1;}
.edge:hover path { stroke: red; }
.edge:hover polygon { stroke: red; fill: red; }
]]></style>
<script type="application/ecmascript" xlink:href="../../svg.min.js"/>
<svg id="graph" class="graph">
<g id="graph0" class="graph" transform="scale(1 1) rotate(0) translate(4 78.25)">
<title>ps_get_tok</title>
<!-- Node1 -->
<g id="Node000001" class="node">
<title>Node1</title>
<g id="a_Node000001"><a xlink:title=" ">
<polygon fill="#999999" stroke="#666666" points="64,-37.25 0,-37.25 0,-18 64,-18 64,-37.25"/>
<text text-anchor="middle" x="32" y="-23.75" font-family="Helvetica,sans-Serif" font-size="10.00">ps_get_tok</text>
</a>
</g>
</g>
<!-- Node2 -->
<g id="Node000002" class="node">
<title>Node2</title>
<g id="a_Node000002"><a xlink:href="../../d4/d86/str-stream_8h.html#afc666c144a33f2620d7f6a51849b40e5" target="_top" xlink:title=" ">
<polygon fill="white" stroke="#666666" points="176.75,-56.25 100,-56.25 100,-37 176.75,-37 176.75,-56.25"/>
<text text-anchor="middle" x="138.38" y="-42.75" font-family="Helvetica,sans-Serif" font-size="10.00">ps_get_cspan</text>
</a>
</g>
</g>
<!-- Node1&#45;&gt;Node2 -->
<g id="edge1_Node000001_Node000002" class="edge">
<title>Node1&#45;&gt;Node2</title>
<g id="a_edge1_Node000001_Node000002"><a xlink:title=" ">
<path fill="none" stroke="#63b8ff" d="M64.32,-33.33C71.99,-34.72 80.39,-36.25 88.68,-37.76"/>
<polygon fill="#63b8ff" stroke="#63b8ff" points="87.87,-41.17 98.33,-39.52 89.12,-34.28 87.87,-41.17"/>
</a>
</g>
</g>
<!-- Node7 -->
<g id="Node000007" class="node">
<title>Node7</title>
<g id="a_Node000007"><a xlink:href="../../d4/d86/str-stream_8h.html#ab78e1058da1a53def87108a4cccce75b" target="_top" xlink:title=" ">
<polygon fill="white" stroke="#666666" points="176.38,-19.25 100.38,-19.25 100.38,0 176.38,0 176.38,-19.25"/>
<text text-anchor="middle" x="138.38" y="-5.75" font-family="Helvetica,sans-Serif" font-size="10.00">ps_skip_span</text>
</a>
</g>
</g>
<!-- Node1&#45;&gt;Node7 -->
<g id="edge6_Node000001_Node000007" class="edge">
<title>Node1&#45;&gt;Node7</title>
<g id="a_edge6_Node000001_Node000007"><a xlink:title=" ">
<path fill="none" stroke="#63b8ff" d="M64.32,-22.22C72.08,-20.89 80.58,-19.42 88.94,-17.98"/>
<polygon fill="#63b8ff" stroke="#63b8ff" points="89.44,-21.44 98.7,-16.29 88.25,-14.54 89.44,-21.44"/>
</a>
</g>
</g>
<!-- Node3 -->
<g id="Node000003" class="node">
<title>Node3</title>
<g id="a_Node000003"><a xlink:href="../../d4/d86/str-stream_8h.html#a0cabc922ee6509017454cd14b7cd9fc5" target="_top" xlink:title=" ">
<polygon fill="white" stroke="#666666" points="314.25,-56.25 218.75,-56.25 218.75,-37 314.25,-37 314.25,-56.25"/>
<text text-anchor="middle" x="266.5" y="-42.75" font-family="Helvetica,sans-Serif" font-size="10.00">__ps_get_ps_upto</text>
</a>
</g>
</g>
<!-- Node2&#45;&gt;Node3 -->
<g id="edge2_Node000002_Node000003" class="edge">
<title>Node2&#45;&gt;Node3</title>
<g id="a_edge2_Node000002_Node000003"><a xlink:title=" ">
<path fill="none" stroke="#63b8ff" d="M177.22,-46.62C186.6,-46.62 196.88,-46.62 207,-46.62"/>
<polygon fill="#63b8ff" stroke="#63b8ff" points="206.78,-50.13 216.78,-46.63 206.78,-43.13 206.78,-50.13"/>
</a>
</g>
</g>
<!-- Node6 -->
<g id="Node000006" class="node">
<title>Node6</title>
<g id="a_Node000006"><a xlink:href="../../dd/def/str-ctype_8h.html#ae0cf190bab0c8d79a8562678e7661aad" target="_top" xlink:title=" ">
<polygon fill="white" stroke="#666666" points="320.25,-19.25 212.75,-19.25 212.75,0 320.25,0 320.25,-19.25"/>
<text text-anchor="middle" x="266.5" y="-5.75" font-family="Helvetica,sans-Serif" font-size="10.00">ctype_desc_contains</text>
</a>
</g>
</g>
<!-- Node2&#45;&gt;Node6 -->
<g id="edge5_Node000002_Node000006" class="edge">
<title>Node2&#45;&gt;Node6</title>
<g id="a_edge5_Node000002_Node000006"><a xlink:title=" ">
<path fill="none" stroke="#63b8ff" d="M173.84,-36.51C188.16,-32.31 204.98,-27.38 220.27,-22.89"/>
<polygon fill="#63b8ff" stroke="#63b8ff" points="221.01,-26.32 229.63,-20.15 219.04,-19.61 221.01,-26.32"/>
</a>
</g>
</g>
<!-- Node4 -->
<g id="Node000004" class="node">
<title>Node4</title>
<g id="a_Node000004"><a xlink:href="../../d4/d86/str-stream_8h.html#a25629ed82260cb18f7703e4bd8e8c0a4" target="_top" xlink:title=" ">
<polygon fill="white" stroke="#666666" points="424.75,-74.25 356.25,-74.25 356.25,-55 424.75,-55 424.75,-74.25"/>
<text text-anchor="middle" x="390.5" y="-60.75" font-family="Helvetica,sans-Serif" font-size="10.00">ps_contains</text>
</a>
</g>
</g>
<!-- Node3&#45;&gt;Node4 -->
<g id="edge3_Node000003_Node000004" class="edge">
<title>Node3&#45;&gt;Node4</title>
<g id="a_edge3_Node000003_Node000004"><a xlink:title=" ">
<path fill="none" stroke="#63b8ff" d="M314.67,-53.58C324.6,-55.05 335.04,-56.59 344.87,-58.04"/>
<polygon fill="#63b8ff" stroke="#63b8ff" points="344.16,-61.47 354.57,-59.47 345.18,-54.55 344.16,-61.47"/>
</a>
</g>
</g>
<!-- Node5 -->
<g id="Node000005" class="node">
<title>Node5</title>
<g id="a_Node000005"><a xlink:href="../../d4/d86/str-stream_8h.html#a3b4fe44eb26c6eb77b5c58ab8f6a0b46" target="_top" xlink:title=" ">
<polygon fill="white" stroke="#666666" points="418.38,-37.25 362.62,-37.25 362.62,-18 418.38,-18 418.38,-37.25"/>
<text text-anchor="middle" x="390.5" y="-23.75" font-family="Helvetica,sans-Serif" font-size="10.00">ps_initptr</text>
</a>
</g>
</g>
<!-- Node3&#45;&gt;Node5 -->
<g id="edge4_Node000003_Node000005" class="edge">
<title>Node3&#45;&gt;Node5</title>
<g id="a_edge4_Node000003_Node000005"><a xlink:title=" ">
<path fill="none" stroke="#63b8ff" d="M314.67,-39.28C326.74,-37.4 339.57,-35.4 351.14,-33.6"/>
<polygon fill="#63b8ff" stroke="#63b8ff" points="351.37,-37.11 360.71,-32.11 350.29,-30.19 351.37,-37.11"/>
</a>
</g>
</g>
<!-- Node7&#45;&gt;Node6 -->
<g id="edge7_Node000007_Node000006" class="edge">
<title>Node7&#45;&gt;Node6</title>
<g id="a_edge7_Node000007_Node000006"><a xlink:title=" ">
<path fill="none" stroke="#63b8ff" d="M176.53,-9.62C184.23,-9.62 192.54,-9.62 200.9,-9.62"/>
<polygon fill="#63b8ff" stroke="#63b8ff" points="200.74,-13.13 210.74,-9.63 200.74,-6.13 200.74,-13.13"/>
</a>
</g>
</g>
</g>
</svg>
</svg>

<style type='text/css'>
<![CDATA[
[data-mouse-over-selected='false'] { opacity: 0.7; }
[data-mouse-over-selected='true']  { opacity: 1.0; }
]]>
</style>
<script type="application/ecmascript"><![CDATA[
document.addEventListener('DOMContentLoaded', (event) => {
  highlightEdges();
  highlightAdjacentNodes();
});
]]></script>
</svg>
