<?xml version="1.0" encoding="UTF-8" standalone="no"?>
<!DOCTYPE svg PUBLIC "-//W3C//DTD SVG 1.1//EN"
 "http://www.w3.org/Graphics/SVG/1.1/DTD/svg11.dtd">
<!-- Generated by graphviz version 9.0.0 (20230911.1827)
 -->
<!-- Title: ps_skipstr Pages: 1 -->
<svg width="456pt" height="64pt"
 viewBox="0.00 0.00 456.25 64.25" xmlns="http://www.w3.org/2000/svg" xmlns:xlink="http://www.w3.org/1999/xlink">

<svg id="main" version="1.1" xmlns="http://www.w3.org/2000/svg" xmlns:xlink="http://www.w3.org/1999/xlink" xml:space="preserve" onload="init(evt)">
<style type="text/css"><![CDATA[
.node, .edge {opacity: 0.7;}
.node.selected, .edge.selected {opacity: 1;}
.edge:hover path { stroke: red; }
.edge:hover polygon { stroke: red; fill: red; }
]]></style>
<script type="application/ecmascript" xlink:href="../../svg.min.js"/>
<svg id="graph" class="graph">
<g id="graph0" class="graph" transform="scale(1 1) rotate(0) translate(4 60.25)">
<title>ps_skipstr</title>
<!-- Node1 -->
<g id="Node000001" class="node">
<title>Node1</title>
<g id="a_Node000001"><a xlink:title=" ">
<polygon fill="#999999" stroke="#666666" points="61,-37.25 0,-37.25 0,-18 61,-18 61,-37.25"/>
<text text-anchor="middle" x="30.5" y="-23.75" font-family="Helvetica,sans-Serif" font-size="10.00">ps_skipstr</text>
</a>
</g>
</g>
<!-- Node2 -->
<g id="Node000002" class="node">
<title>Node2</title>
<g id="a_Node000002"><a xlink:href="../../d4/d86/str-stream_8h.html#a5a0b1c31950e4f8029441f7545e4f696" target="_top" xlink:title=" ">
<polygon fill="white" stroke="#666666" points="165.5,-37.25 97,-37.25 97,-18 165.5,-18 165.5,-37.25"/>
<text text-anchor="middle" x="131.25" y="-23.75" font-family="Helvetica,sans-Serif" font-size="10.00">ps_skipdata</text>
</a>
</g>
</g>
<!-- Node1&#45;&gt;Node2 -->
<g id="edge1_Node000001_Node000002" class="edge">
<title>Node1&#45;&gt;Node2</title>
<g id="a_edge1_Node000001_Node000002"><a xlink:title=" ">
<path fill="none" stroke="#63b8ff" d="M61.4,-27.62C68.96,-27.62 77.25,-27.62 85.37,-27.62"/>
<polygon fill="#63b8ff" stroke="#63b8ff" points="85.14,-31.13 95.14,-27.63 85.14,-24.13 85.14,-31.13"/>
</a>
</g>
</g>
<!-- Node3 -->
<g id="Node000003" class="node">
<title>Node3</title>
<g id="a_Node000003"><a xlink:href="../../d4/d86/str-stream_8h.html#ae098817247881bad5d9318d4c6b712cf" target="_top" xlink:title=" ">
<polygon fill="white" stroke="#666666" points="268.88,-56.25 208.62,-56.25 208.62,-37 268.88,-37 268.88,-56.25"/>
<text text-anchor="middle" x="238.75" y="-42.75" font-family="Helvetica,sans-Serif" font-size="10.00">__ps_skip</text>
</a>
</g>
</g>
<!-- Node2&#45;&gt;Node3 -->
<g id="edge2_Node000002_Node000003" class="edge">
<title>Node2&#45;&gt;Node3</title>
<g id="a_edge2_Node000002_Node000003"><a xlink:title=" ">
<path fill="none" stroke="#63b8ff" d="M165.92,-33.69C175.82,-35.47 186.76,-37.44 197.05,-39.3"/>
<polygon fill="#63b8ff" stroke="#63b8ff" points="196.36,-42.73 206.82,-41.05 197.6,-35.84 196.36,-42.73"/>
</a>
</g>
</g>
<!-- Node6 -->
<g id="Node000006" class="node">
<title>Node6</title>
<g id="a_Node000006"><a xlink:href="../../d4/d86/str-stream_8h.html#a6f3c2738091b3aa785beac8897738d66" target="_top" xlink:title=" ">
<polygon fill="white" stroke="#666666" points="276,-19.25 201.5,-19.25 201.5,0 276,0 276,-19.25"/>
<text text-anchor="middle" x="238.75" y="-5.75" font-family="Helvetica,sans-Serif" font-size="10.00">ps_startswith</text>
</a>
</g>
</g>
<!-- Node2&#45;&gt;Node6 -->
<g id="edge5_Node000002_Node000006" class="edge">
<title>Node2&#45;&gt;Node6</title>
<g id="a_edge5_Node000002_Node000006"><a xlink:title=" ">
<path fill="none" stroke="#63b8ff" d="M165.92,-21.88C173.54,-20.58 181.78,-19.17 189.87,-17.79"/>
<polygon fill="#63b8ff" stroke="#63b8ff" points="190.35,-21.26 199.62,-16.13 189.18,-14.36 190.35,-21.26"/>
</a>
</g>
</g>
<!-- Node4 -->
<g id="Node000004" class="node">
<title>Node4</title>
<g id="a_Node000004"><a xlink:href="../../d4/d86/str-stream_8h.html#ab34e4ed4459c611a797df76cab2e8846" target="_top" xlink:title=" ">
<polygon fill="white" stroke="#666666" points="359.5,-56.25 312,-56.25 312,-37 359.5,-37 359.5,-56.25"/>
<text text-anchor="middle" x="335.75" y="-42.75" font-family="Helvetica,sans-Serif" font-size="10.00">ps_has</text>
</a>
</g>
</g>
<!-- Node3&#45;&gt;Node4 -->
<g id="edge3_Node000003_Node000004" class="edge">
<title>Node3&#45;&gt;Node4</title>
<g id="a_edge3_Node000003_Node000004"><a xlink:title=" ">
<path fill="none" stroke="#63b8ff" d="M269.29,-46.62C279.08,-46.62 290.06,-46.62 300.19,-46.62"/>
<polygon fill="#63b8ff" stroke="#63b8ff" points="300.05,-50.13 310.05,-46.63 300.05,-43.13 300.05,-50.13"/>
</a>
</g>
</g>
<!-- Node5 -->
<g id="Node000005" class="node">
<title>Node5</title>
<g id="a_Node000005"><a xlink:href="../../d4/d86/str-stream_8h.html#a171f7ecffb1d3846b226cd8d7016aed7" target="_top" xlink:title=" ">
<polygon fill="white" stroke="#666666" points="448.25,-56.25 395.5,-56.25 395.5,-37 448.25,-37 448.25,-56.25"/>
<text text-anchor="middle" x="421.88" y="-42.75" font-family="Helvetica,sans-Serif" font-size="10.00">ps_done</text>
</a>
</g>
</g>
<!-- Node4&#45;&gt;Node5 -->
<g id="edge4_Node000004_Node000005" class="edge">
<title>Node4&#45;&gt;Node5</title>
<g id="a_edge4_Node000004_Node000005"><a xlink:title=" ">
<path fill="none" stroke="#63b8ff" d="M359.74,-46.62C367.21,-46.62 375.7,-46.62 383.93,-46.62"/>
<polygon fill="#63b8ff" stroke="#63b8ff" points="383.74,-50.13 393.74,-46.63 383.74,-43.13 383.74,-50.13"/>
</a>
</g>
</g>
<!-- Node7 -->
<g id="Node000007" class="node">
<title>Node7</title>
<g id="a_Node000007"><a xlink:href="../../d4/d86/str-stream_8h.html#a792bf8e215595e8fd225339902c447bf" target="_top" xlink:title=" ">
<polygon fill="white" stroke="#666666" points="358,-19.25 313.5,-19.25 313.5,0 358,0 358,-19.25"/>
<text text-anchor="middle" x="335.75" y="-5.75" font-family="Helvetica,sans-Serif" font-size="10.00">ps_len</text>
</a>
</g>
</g>
<!-- Node6&#45;&gt;Node7 -->
<g id="edge6_Node000006_Node000007" class="edge">
<title>Node6&#45;&gt;Node7</title>
<g id="a_edge6_Node000006_Node000007"><a xlink:title=" ">
<path fill="none" stroke="#63b8ff" d="M276.48,-9.62C284.83,-9.62 293.65,-9.62 301.83,-9.62"/>
<polygon fill="#63b8ff" stroke="#63b8ff" points="301.71,-13.13 311.71,-9.63 301.71,-6.13 301.71,-13.13"/>
</a>
</g>
</g>
</g>
</svg>
</svg>

<style type='text/css'>
<![CDATA[
[data-mouse-over-selected='false'] { opacity: 0.7; }
[data-mouse-over-selected='true']  { opacity: 1.0; }
]]>
</style>
<script type="application/ecmascript"><![CDATA[
document.addEventListener('DOMContentLoaded', (event) => {
  highlightEdges();
  highlightAdjacentNodes();
});
]]></script>
</svg>
