<?xml version="1.0" encoding="UTF-8" standalone="no"?>
<!DOCTYPE svg PUBLIC "-//W3C//DTD SVG 1.1//EN"
 "http://www.w3.org/Graphics/SVG/1.1/DTD/svg11.dtd">
<!-- Generated by graphviz version 9.0.0 (20230911.1827)
 -->
<!-- Title: ps_strcaseequal Pages: 1 -->
<svg width="310pt" height="27pt"
 viewBox="0.00 0.00 309.50 27.25" xmlns="http://www.w3.org/2000/svg" xmlns:xlink="http://www.w3.org/1999/xlink">
<g id="graph0" class="graph" transform="scale(1 1) rotate(0) translate(4 23.25)">
<title>ps_strcaseequal</title>
<!-- Node1 -->
<g id="Node000001" class="node">
<title>Node1</title>
<g id="a_Node000001"><a xlink:title=" ">
<polygon fill="#999999" stroke="#666666" points="87.25,-19.25 0,-19.25 0,0 87.25,0 87.25,-19.25"/>
<text text-anchor="middle" x="43.62" y="-5.75" font-family="Helvetica,sans-Serif" font-size="10.00">ps_strcaseequal</text>
</a>
</g>
</g>
<!-- Node2 -->
<g id="Node000002" class="node">
<title>Node2</title>
<g id="a_Node000002"><a xlink:href="../../d4/d86/str-stream_8h.html#a052d1d4cd076a013751947c82d069e4d" target="_top" xlink:title=" ">
<polygon fill="white" stroke="#666666" points="221,-19.25 123.25,-19.25 123.25,0 221,0 221,-19.25"/>
<text text-anchor="middle" x="172.12" y="-5.75" font-family="Helvetica,sans-Serif" font-size="10.00">ps_memcaseequal</text>
</a>
</g>
</g>
<!-- Node1&#45;&gt;Node2 -->
<g id="edge1_Node000001_Node000002" class="edge">
<title>Node1&#45;&gt;Node2</title>
<g id="a_edge1_Node000001_Node000002"><a xlink:title=" ">
<path fill="none" stroke="#63b8ff" d="M87.45,-9.62C95.25,-9.62 103.51,-9.62 111.68,-9.62"/>
<polygon fill="#63b8ff" stroke="#63b8ff" points="111.61,-13.13 121.61,-9.63 111.61,-6.13 111.61,-13.13"/>
</a>
</g>
</g>
<!-- Node3 -->
<g id="Node000003" class="node">
<title>Node3</title>
<g id="a_Node000003"><a xlink:href="../../d4/d86/str-stream_8h.html#a792bf8e215595e8fd225339902c447bf" target="_top" xlink:title=" ">
<polygon fill="white" stroke="#666666" points="301.5,-19.25 257,-19.25 257,0 301.5,0 301.5,-19.25"/>
<text text-anchor="middle" x="279.25" y="-5.75" font-family="Helvetica,sans-Serif" font-size="10.00">ps_len</text>
</a>
</g>
</g>
<!-- Node2&#45;&gt;Node3 -->
<g id="edge2_Node000002_Node000003" class="edge">
<title>Node2&#45;&gt;Node3</title>
<g id="a_edge2_Node000002_Node000003"><a xlink:title=" ">
<path fill="none" stroke="#63b8ff" d="M221.38,-9.62C229.46,-9.62 237.67,-9.62 245.25,-9.62"/>
<polygon fill="#63b8ff" stroke="#63b8ff" points="245.01,-13.13 255.01,-9.63 245.01,-6.13 245.01,-13.13"/>
</a>
</g>
</g>
</g>
</svg>
