<?xml version="1.0" encoding="UTF-8" standalone="no"?>
<!DOCTYPE svg PUBLIC "-//W3C//DTD SVG 1.1//EN"
 "http://www.w3.org/Graphics/SVG/1.1/DTD/svg11.dtd">
<!-- Generated by graphviz version 9.0.0 (20230911.1827)
 -->
<!-- Title: ps_skip_uptochr Pages: 1 -->
<svg width="668pt" height="39pt"
 viewBox="0.00 0.00 667.75 38.50" xmlns="http://www.w3.org/2000/svg" xmlns:xlink="http://www.w3.org/1999/xlink">
<g id="graph0" class="graph" transform="scale(1 1) rotate(0) translate(4 34.5)">
<title>ps_skip_uptochr</title>
<!-- Node1 -->
<g id="Node000001" class="node">
<title>Node1</title>
<g id="a_Node000001"><a xlink:title=" ">
<polygon fill="#999999" stroke="#666666" points="659.75,-24.88 572.5,-24.88 572.5,-5.63 659.75,-5.63 659.75,-24.88"/>
<text text-anchor="middle" x="616.12" y="-11.38" font-family="Helvetica,sans-Serif" font-size="10.00">ps_skip_uptochr</text>
</a>
</g>
</g>
<!-- Node2 -->
<g id="Node000002" class="node">
<title>Node2</title>
<g id="a_Node000002"><a xlink:href="../../dd/de9/rpc-http-server_8c.html#adb5f9c4851c877803d9ce0976d2cfa3a" target="_top" xlink:title=" ">
<polygon fill="white" stroke="#666666" points="536.5,-30.5 433.5,-30.5 433.5,0 536.5,0 536.5,-30.5"/>
<text text-anchor="start" x="441.5" y="-17" font-family="Helvetica,sans-Serif" font-size="10.00">__t_ichttp_query_on</text>
<text text-anchor="middle" x="485" y="-5.75" font-family="Helvetica,sans-Serif" font-size="10.00">_done_stage1</text>
</a>
</g>
</g>
<!-- Node1&#45;&gt;Node2 -->
<g id="edge1_Node000001_Node000002" class="edge">
<title>Node1&#45;&gt;Node2</title>
<g id="a_edge1_Node000001_Node000002"><a xlink:title=" ">
<path fill="none" stroke="#63b8ff" d="M560.74,-15.25C552.83,-15.25 544.71,-15.25 536.87,-15.25"/>
<polygon fill="#63b8ff" stroke="#63b8ff" points="560.61,-18.75 570.61,-15.25 560.61,-11.75 560.61,-18.75"/>
</a>
</g>
</g>
<!-- Node3 -->
<g id="Node000003" class="node">
<title>Node3</title>
<g id="a_Node000003"><a xlink:href="../../dd/de9/rpc-http-server_8c.html#a7aa35bd836933f462594989148ab5fd5" target="_top" xlink:title=" ">
<polygon fill="white" stroke="#666666" points="397.5,-24.88 287,-24.88 287,-5.63 397.5,-5.63 397.5,-24.88"/>
<text text-anchor="middle" x="342.25" y="-11.38" font-family="Helvetica,sans-Serif" font-size="10.00">ichttp_query_on_done</text>
</a>
</g>
</g>
<!-- Node2&#45;&gt;Node3 -->
<g id="edge2_Node000002_Node000003" class="edge">
<title>Node2&#45;&gt;Node3</title>
<g id="a_edge2_Node000002_Node000003"><a xlink:title=" ">
<path fill="none" stroke="#63b8ff" d="M421.67,-15.25C413.71,-15.25 405.62,-15.25 397.79,-15.25"/>
<polygon fill="#63b8ff" stroke="#63b8ff" points="421.67,-18.75 431.67,-15.25 421.67,-11.75 421.67,-18.75"/>
</a>
</g>
</g>
<!-- Node4 -->
<g id="Node000004" class="node">
<title>Node4</title>
<g id="a_Node000004"><a xlink:href="../../dd/de9/rpc-http-server_8c.html#a99f4d0b0719988496aa4496ad91d0b82" target="_top" xlink:title=" ">
<polygon fill="white" stroke="#666666" points="251,-24.88 147.25,-24.88 147.25,-5.63 251,-5.63 251,-24.88"/>
<text text-anchor="middle" x="199.12" y="-11.38" font-family="Helvetica,sans-Serif" font-size="10.00">httpd_trigger__ic_cb</text>
</a>
</g>
</g>
<!-- Node3&#45;&gt;Node4 -->
<g id="edge3_Node000003_Node000004" class="edge">
<title>Node3&#45;&gt;Node4</title>
<g id="a_edge3_Node000003_Node000004"><a xlink:title=" ">
<path fill="none" stroke="#63b8ff" d="M275.36,-15.25C267.28,-15.25 259.12,-15.25 251.3,-15.25"/>
<polygon fill="#63b8ff" stroke="#63b8ff" points="275.17,-18.75 285.17,-15.25 275.17,-11.75 275.17,-18.75"/>
</a>
</g>
</g>
<!-- Node5 -->
<g id="Node000005" class="node">
<title>Node5</title>
<g id="a_Node000005"><a xlink:href="../../dd/de9/rpc-http-server_8c.html#a30f581d1d1e0c0a8ff0bd69f9b6316b9" target="_top" xlink:title=" ">
<polygon fill="white" stroke="#666666" points="111.25,-24.88 0,-24.88 0,-5.63 111.25,-5.63 111.25,-24.88"/>
<text text-anchor="middle" x="55.62" y="-11.38" font-family="Helvetica,sans-Serif" font-size="10.00">httpd_trigger__ic_new</text>
</a>
</g>
</g>
<!-- Node4&#45;&gt;Node5 -->
<g id="edge4_Node000004_Node000005" class="edge">
<title>Node4&#45;&gt;Node5</title>
<g id="a_edge4_Node000004_Node000005"><a xlink:title=" ">
<path fill="none" stroke="#63b8ff" d="M135.75,-15.25C127.65,-15.25 119.42,-15.25 111.46,-15.25"/>
<polygon fill="#63b8ff" stroke="#63b8ff" points="135.53,-18.75 145.53,-15.25 135.53,-11.75 135.53,-18.75"/>
</a>
</g>
</g>
</g>
</svg>
