<?xml version="1.0" encoding="UTF-8" standalone="no"?>
<!DOCTYPE svg PUBLIC "-//W3C//DTD SVG 1.1//EN"
 "http://www.w3.org/Graphics/SVG/1.1/DTD/svg11.dtd">
<!-- Generated by graphviz version 9.0.0 (20230911.1827)
 -->
<!-- Title: mem&#45;ring.c Pages: 1 -->
<svg width="683pt" height="94pt"
 viewBox="0.00 0.00 682.50 93.75" xmlns="http://www.w3.org/2000/svg" xmlns:xlink="http://www.w3.org/1999/xlink">
<g id="graph0" class="graph" transform="scale(1 1) rotate(0) translate(4 89.75)">
<title>mem&#45;ring.c</title>
<!-- Node1 -->
<g id="Node000001" class="node">
<title>Node1</title>
<g id="a_Node000001"><a xlink:title=" ">
<polygon fill="#999999" stroke="#666666" points="373.75,-85.75 309.75,-85.75 309.75,-66.5 373.75,-66.5 373.75,-85.75"/>
<text text-anchor="middle" x="341.75" y="-72.25" font-family="Helvetica,sans-Serif" font-size="10.00">mem&#45;ring.c</text>
</a>
</g>
</g>
<!-- Node2 -->
<g id="Node000002" class="node">
<title>Node2</title>
<g id="a_Node000002"><a xlink:title=" ">
<polygon fill="#e0e0e0" stroke="#999999" points="95.5,-24.88 0,-24.88 0,-5.63 95.5,-5.63 95.5,-24.88"/>
<text text-anchor="middle" x="47.75" y="-11.38" font-family="Helvetica,sans-Serif" font-size="10.00">lib&#45;common/arith.h</text>
</a>
</g>
</g>
<!-- Node1&#45;&gt;Node2 -->
<g id="edge1_Node000001_Node000002" class="edge">
<title>Node1&#45;&gt;Node2</title>
<g id="a_edge1_Node000001_Node000002"><a xlink:title=" ">
<path fill="none" stroke="#63b8ff" d="M309.28,-69.71C263.34,-61.9 176.82,-46.63 103.75,-30.5 100.22,-29.72 96.58,-28.88 92.93,-28.01"/>
<polygon fill="#63b8ff" stroke="#63b8ff" points="94.04,-24.68 83.49,-25.7 92.37,-31.48 94.04,-24.68"/>
</a>
</g>
</g>
<!-- Node3 -->
<g id="Node000003" class="node">
<title>Node3</title>
<g id="a_Node000003"><a xlink:title=" ">
<polygon fill="#e0e0e0" stroke="#999999" points="222.25,-30.5 113.25,-30.5 113.25,0 222.25,0 222.25,-30.5"/>
<text text-anchor="start" x="121.25" y="-17" font-family="Helvetica,sans-Serif" font-size="10.00">lib&#45;common/container</text>
<text text-anchor="middle" x="167.75" y="-5.75" font-family="Helvetica,sans-Serif" font-size="10.00">&#45;dlist.h</text>
</a>
</g>
</g>
<!-- Node1&#45;&gt;Node3 -->
<g id="edge2_Node000001_Node000003" class="edge">
<title>Node1&#45;&gt;Node3</title>
<g id="a_edge2_Node000001_Node000003"><a xlink:title=" ">
<path fill="none" stroke="#63b8ff" d="M314.94,-66.05C290.21,-57.69 252.76,-45.01 221.82,-34.54"/>
<polygon fill="#63b8ff" stroke="#63b8ff" points="223.21,-31.32 212.61,-31.43 220.96,-37.95 223.21,-31.32"/>
</a>
</g>
</g>
<!-- Node4 -->
<g id="Node000004" class="node">
<title>Node4</title>
<g id="a_Node000004"><a xlink:title=" ">
<polygon fill="#e0e0e0" stroke="#999999" points="324.88,-24.88 240.62,-24.88 240.62,-5.63 324.88,-5.63 324.88,-24.88"/>
<text text-anchor="middle" x="282.75" y="-11.38" font-family="Helvetica,sans-Serif" font-size="10.00">lib&#45;common/el.h</text>
</a>
</g>
</g>
<!-- Node1&#45;&gt;Node4 -->
<g id="edge3_Node000001_Node000004" class="edge">
<title>Node1&#45;&gt;Node4</title>
<g id="a_edge3_Node000001_Node000004"><a xlink:title=" ">
<path fill="none" stroke="#63b8ff" d="M332.79,-66.18C324.04,-57.45 310.5,-43.94 299.71,-33.18"/>
<polygon fill="#63b8ff" stroke="#63b8ff" points="302.42,-30.93 292.87,-26.35 297.47,-35.89 302.42,-30.93"/>
</a>
</g>
</g>
<!-- Node5 -->
<g id="Node000005" class="node">
<title>Node5</title>
<g id="a_Node000005"><a xlink:title=" ">
<polygon fill="#e0e0e0" stroke="#999999" points="460.75,-24.88 342.75,-24.88 342.75,-5.63 460.75,-5.63 460.75,-24.88"/>
<text text-anchor="middle" x="401.75" y="-11.38" font-family="Helvetica,sans-Serif" font-size="10.00">lib&#45;common/str&#45;buf&#45;pp.h</text>
</a>
</g>
</g>
<!-- Node1&#45;&gt;Node5 -->
<g id="edge4_Node000001_Node000005" class="edge">
<title>Node1&#45;&gt;Node5</title>
<g id="a_edge4_Node000001_Node000005"><a xlink:title=" ">
<path fill="none" stroke="#63b8ff" d="M350.86,-66.18C359.76,-57.45 373.53,-43.94 384.5,-33.18"/>
<polygon fill="#63b8ff" stroke="#63b8ff" points="386.78,-35.84 391.47,-26.34 381.88,-30.84 386.78,-35.84"/>
</a>
</g>
</g>
<!-- Node6 -->
<g id="Node000006" class="node">
<title>Node6</title>
<g id="a_Node000006"><a xlink:title=" ">
<polygon fill="#e0e0e0" stroke="#999999" points="566.75,-24.88 478.75,-24.88 478.75,-5.63 566.75,-5.63 566.75,-24.88"/>
<text text-anchor="middle" x="522.75" y="-11.38" font-family="Helvetica,sans-Serif" font-size="10.00">lib&#45;common/thr.h</text>
</a>
</g>
</g>
<!-- Node1&#45;&gt;Node6 -->
<g id="edge5_Node000001_Node000006" class="edge">
<title>Node1&#45;&gt;Node6</title>
<g id="a_edge5_Node000001_Node000006"><a xlink:title=" ">
<path fill="none" stroke="#63b8ff" d="M369.63,-66.05C400.33,-56.07 449.86,-39.96 484.25,-28.77"/>
<polygon fill="#63b8ff" stroke="#63b8ff" points="484.97,-32.22 493.39,-25.8 482.8,-25.56 484.97,-32.22"/>
</a>
</g>
</g>
<!-- Node7 -->
<g id="Node000007" class="node">
<title>Node7</title>
<g id="a_Node000007"><a xlink:title=" ">
<polygon fill="#e0e0e0" stroke="#999999" points="674.5,-24.88 585,-24.88 585,-5.63 674.5,-5.63 674.5,-24.88"/>
<text text-anchor="middle" x="629.75" y="-11.38" font-family="Helvetica,sans-Serif" font-size="10.00">lib&#45;common/log.h</text>
</a>
</g>
</g>
<!-- Node1&#45;&gt;Node7 -->
<g id="edge6_Node000001_Node000007" class="edge">
<title>Node1&#45;&gt;Node7</title>
<g id="a_edge6_Node000001_Node000007"><a xlink:title=" ">
<path fill="none" stroke="#63b8ff" d="M374.07,-69.69C419.35,-61.92 504.16,-46.75 575.75,-30.5 579.05,-29.75 582.45,-28.94 585.86,-28.1"/>
<polygon fill="#63b8ff" stroke="#63b8ff" points="586.41,-31.58 595.25,-25.73 584.69,-24.79 586.41,-31.58"/>
</a>
</g>
</g>
</g>
</svg>
