<?xml version="1.0" encoding="UTF-8" standalone="no"?>
<!DOCTYPE svg PUBLIC "-//W3C//DTD SVG 1.1//EN"
 "http://www.w3.org/Graphics/SVG/1.1/DTD/svg11.dtd">
<!-- Generated by graphviz version 9.0.0 (20230911.1827)
 -->
<!-- Title: str&#45;ctype.h Pages: 1 -->
<svg width="226pt" height="304pt"
 viewBox="0.00 0.00 225.83 303.50" xmlns="http://www.w3.org/2000/svg" xmlns:xlink="http://www.w3.org/1999/xlink">

<svg id="main" version="1.1" xmlns="http://www.w3.org/2000/svg" xmlns:xlink="http://www.w3.org/1999/xlink" xml:space="preserve" onload="init(evt)">
<style type="text/css"><![CDATA[
.node, .edge {opacity: 0.7;}
.node.selected, .edge.selected {opacity: 1;}
.edge:hover path { stroke: red; }
.edge:hover polygon { stroke: red; fill: red; }
]]></style>
<script type="application/ecmascript" xlink:href="../../svg.min.js"/>
<svg id="graph" class="graph">
<g id="graph0" class="graph" transform="scale(1 1) rotate(0) translate(4 299.5)">
<title>str&#45;ctype.h</title>
<!-- Node1 -->
<g id="Node000001" class="node">
<title>Node1</title>
<g id="a_Node000001"><a xlink:title=" ">
<polygon fill="#999999" stroke="#666666" points="81.74,-295.5 20.74,-295.5 20.74,-276.25 81.74,-276.25 81.74,-295.5"/>
<text text-anchor="middle" x="51.24" y="-282" font-family="Helvetica,sans-Serif" font-size="10.00">str&#45;ctype.h</text>
</a>
</g>
</g>
<!-- Node2 -->
<g id="Node000002" class="node">
<title>Node2</title>
<g id="a_Node000002"><a xlink:href="../../d5/dc4/core_8h.html" target="_top" xlink:title=" ">
<polygon fill="white" stroke="#666666" points="123.36,-74.5 81.11,-74.5 81.11,-55.25 123.36,-55.25 123.36,-74.5"/>
<text text-anchor="middle" x="102.24" y="-61" font-family="Helvetica,sans-Serif" font-size="10.00">core.h</text>
</a>
</g>
</g>
<!-- Node1&#45;&gt;Node2 -->
<g id="edge1_Node000001_Node000002" class="edge">
<title>Node1&#45;&gt;Node2</title>
<g id="a_edge1_Node000001_Node000002"><a xlink:title=" ">
<path fill="none" stroke="#63b8ff" d="M38.73,-266.28C17.85,-232.68 -18.9,-160.69 12.24,-110.5 27.13,-86.49 59.21,-75 80.77,-69.8"/>
<polygon fill="#63b8ff" stroke="#63b8ff" points="35.66,-267.98 44.02,-274.49 41.55,-264.19 35.66,-267.98"/>
</a>
</g>
</g>
<!-- Node5 -->
<g id="Node000005" class="node">
<title>Node5</title>
<g id="a_Node000005"><a xlink:href="../../dc/d31/str-buf_8h.html" target="_top" xlink:title=" ">
<polygon fill="white" stroke="#666666" points="76.86,-185 25.61,-185 25.61,-165.75 76.86,-165.75 76.86,-185"/>
<text text-anchor="middle" x="51.24" y="-171.5" font-family="Helvetica,sans-Serif" font-size="10.00">str&#45;buf.h</text>
</a>
</g>
</g>
<!-- Node1&#45;&gt;Node5 -->
<g id="edge4_Node000001_Node000005" class="edge">
<title>Node1&#45;&gt;Node5</title>
<g id="a_edge4_Node000001_Node000005"><a xlink:title=" ">
<path fill="none" stroke="#63b8ff" d="M51.24,-264.53C51.24,-240.8 51.24,-202.64 51.24,-185.38"/>
<polygon fill="#63b8ff" stroke="#63b8ff" points="47.74,-264.48 51.24,-274.48 54.74,-264.48 47.74,-264.48"/>
</a>
</g>
</g>
<!-- Node8 -->
<g id="Node000008" class="node">
<title>Node8</title>
<g id="a_Node000008"><a xlink:href="../../df/d0a/str-l_8h.html" target="_top" xlink:title=" ">
<polygon fill="white" stroke="#666666" points="144.24,-240.25 104.24,-240.25 104.24,-221 144.24,-221 144.24,-240.25"/>
<text text-anchor="middle" x="124.24" y="-226.75" font-family="Helvetica,sans-Serif" font-size="10.00">str&#45;l.h</text>
</a>
</g>
</g>
<!-- Node1&#45;&gt;Node8 -->
<g id="edge10_Node000001_Node000008" class="edge">
<title>Node1&#45;&gt;Node8</title>
<g id="a_edge10_Node000001_Node000008"><a xlink:title=" ">
<path fill="none" stroke="#63b8ff" d="M72.7,-269.22C85.52,-259.87 101.33,-248.33 112.03,-240.52"/>
<polygon fill="#63b8ff" stroke="#63b8ff" points="70.86,-266.23 64.84,-274.95 74.98,-271.88 70.86,-266.23"/>
</a>
</g>
</g>
<!-- Node3 -->
<g id="Node000003" class="node">
<title>Node3</title>
<g id="a_Node000003"><a xlink:href="../../de/d65/http2_8h.html" target="_top" xlink:title=" ">
<polygon fill="white" stroke="#666666" points="82.86,-19.25 37.61,-19.25 37.61,0 82.86,0 82.86,-19.25"/>
<text text-anchor="middle" x="60.24" y="-5.75" font-family="Helvetica,sans-Serif" font-size="10.00">http2.h</text>
</a>
</g>
</g>
<!-- Node2&#45;&gt;Node3 -->
<g id="edge2_Node000002_Node000003" class="edge">
<title>Node2&#45;&gt;Node3</title>
<g id="a_edge2_Node000002_Node000003"><a xlink:title=" ">
<path fill="none" stroke="#63b8ff" d="M88.31,-46.22C81.28,-37.31 73.05,-26.87 67.32,-19.61"/>
<polygon fill="#63b8ff" stroke="#63b8ff" points="85.42,-48.21 94.36,-53.89 90.92,-43.87 85.42,-48.21"/>
</a>
</g>
</g>
<!-- Node4 -->
<g id="Node000004" class="node">
<title>Node4</title>
<g id="a_Node000004"><a xlink:href="../../db/d0e/parsing-helpers_8h.html" target="_top" xlink:title=" ">
<polygon fill="white" stroke="#666666" points="189.99,-19.25 100.49,-19.25 100.49,0 189.99,0 189.99,-19.25"/>
<text text-anchor="middle" x="145.24" y="-5.75" font-family="Helvetica,sans-Serif" font-size="10.00">parsing&#45;helpers.h</text>
</a>
</g>
</g>
<!-- Node2&#45;&gt;Node4 -->
<g id="edge3_Node000002_Node000004" class="edge">
<title>Node2&#45;&gt;Node4</title>
<g id="a_edge3_Node000002_Node000004"><a xlink:title=" ">
<path fill="none" stroke="#63b8ff" d="M116.49,-46.22C123.69,-37.31 132.12,-26.87 137.98,-19.61"/>
<polygon fill="#63b8ff" stroke="#63b8ff" points="113.85,-43.93 110.29,-53.9 119.29,-48.32 113.85,-43.93"/>
</a>
</g>
</g>
<!-- Node5&#45;&gt;Node2 -->
<g id="edge5_Node000005_Node000002" class="edge">
<title>Node5&#45;&gt;Node2</title>
<g id="a_edge5_Node000005_Node000002"><a xlink:title=" ">
<path fill="none" stroke="#63b8ff" d="M33.57,-157.33C22.2,-144.22 11.13,-125.83 20.24,-110.5 33.23,-88.63 61.13,-76.8 80.76,-70.92"/>
<polygon fill="#63b8ff" stroke="#63b8ff" points="30.79,-159.48 40.19,-164.35 35.88,-154.68 30.79,-159.48"/>
</a>
</g>
</g>
<!-- Node6 -->
<g id="Node000006" class="node">
<title>Node6</title>
<g id="a_Node000006"><a xlink:href="../../d5/d16/module_8h.html" target="_top" xlink:title=" ">
<polygon fill="white" stroke="#666666" points="169.74,-129.75 114.74,-129.75 114.74,-110.5 169.74,-110.5 169.74,-129.75"/>
<text text-anchor="middle" x="142.24" y="-116.25" font-family="Helvetica,sans-Serif" font-size="10.00">module.h</text>
</a>
</g>
</g>
<!-- Node5&#45;&gt;Node6 -->
<g id="edge6_Node000005_Node000006" class="edge">
<title>Node5&#45;&gt;Node6</title>
<g id="a_edge6_Node000005_Node000006"><a xlink:title=" ">
<path fill="none" stroke="#63b8ff" d="M76.53,-159.57C92.63,-150.15 112.97,-138.25 126.72,-130.2"/>
<polygon fill="#63b8ff" stroke="#63b8ff" points="74.84,-156.51 67.98,-164.58 78.38,-162.55 74.84,-156.51"/>
</a>
</g>
</g>
<!-- Node7 -->
<g id="Node000007" class="node">
<title>Node7</title>
<g id="a_Node000007"><a xlink:href="../../d4/d86/str-stream_8h.html" target="_top" xlink:title=" ">
<polygon fill="white" stroke="#666666" points="97.11,-129.75 29.36,-129.75 29.36,-110.5 97.11,-110.5 97.11,-129.75"/>
<text text-anchor="middle" x="63.24" y="-116.25" font-family="Helvetica,sans-Serif" font-size="10.00">str&#45;stream.h</text>
</a>
</g>
</g>
<!-- Node5&#45;&gt;Node7 -->
<g id="edge8_Node000005_Node000007" class="edge">
<title>Node5&#45;&gt;Node7</title>
<g id="a_edge8_Node000005_Node000007"><a xlink:title=" ">
<path fill="none" stroke="#63b8ff" d="M55.73,-154.42C57.62,-146.05 59.71,-136.75 61.21,-130.11"/>
<polygon fill="#63b8ff" stroke="#63b8ff" points="52.33,-153.58 53.55,-164.11 59.16,-155.12 52.33,-153.58"/>
</a>
</g>
</g>
<!-- Node6&#45;&gt;Node2 -->
<g id="edge7_Node000006_Node000002" class="edge">
<title>Node6&#45;&gt;Node2</title>
<g id="a_edge7_Node000006_Node000002"><a xlink:title=" ">
<path fill="none" stroke="#63b8ff" d="M128.76,-101.19C122.11,-92.34 114.38,-82.04 108.98,-74.86"/>
<polygon fill="#63b8ff" stroke="#63b8ff" points="125.92,-103.23 134.72,-109.12 131.51,-99.02 125.92,-103.23"/>
</a>
</g>
</g>
<!-- Node7&#45;&gt;Node2 -->
<g id="edge9_Node000007_Node000002" class="edge">
<title>Node7&#45;&gt;Node2</title>
<g id="a_edge9_Node000007_Node000002"><a xlink:title=" ">
<path fill="none" stroke="#63b8ff" d="M76.37,-101.19C82.86,-92.34 90.4,-82.04 95.66,-74.86"/>
<polygon fill="#63b8ff" stroke="#63b8ff" points="73.65,-98.98 70.57,-109.11 79.3,-103.11 73.65,-98.98"/>
</a>
</g>
</g>
<!-- Node8&#45;&gt;Node2 -->
<g id="edge11_Node000008_Node000002" class="edge">
<title>Node8&#45;&gt;Node2</title>
<g id="a_edge11_Node000008_Node000002"><a xlink:title=" ">
<path fill="none" stroke="#63b8ff" d="M155.68,-223.22C176.5,-217.16 202.28,-205.79 215.24,-185 219.76,-177.74 216.58,-174.2 215.24,-165.75 211.18,-140.24 214.33,-129.86 197.24,-110.5 177.82,-88.51 145.25,-76.53 123.75,-70.66"/>
<polygon fill="#63b8ff" stroke="#63b8ff" points="155,-219.78 146.2,-225.68 156.76,-226.55 155,-219.78"/>
</a>
</g>
</g>
<!-- Node8&#45;&gt;Node5 -->
<g id="edge13_Node000008_Node000005" class="edge">
<title>Node8&#45;&gt;Node5</title>
<g id="a_edge13_Node000008_Node000005"><a xlink:title=" ">
<path fill="none" stroke="#63b8ff" d="M102.77,-213.97C89.95,-204.62 74.14,-193.08 63.44,-185.27"/>
<polygon fill="#63b8ff" stroke="#63b8ff" points="100.49,-216.63 110.63,-219.7 104.61,-210.98 100.49,-216.63"/>
</a>
</g>
</g>
<!-- Node8&#45;&gt;Node6 -->
<g id="edge12_Node000008_Node000006" class="edge">
<title>Node8&#45;&gt;Node6</title>
<g id="a_edge12_Node000008_Node000006"><a xlink:title=" ">
<path fill="none" stroke="#63b8ff" d="M127.56,-209.6C131.49,-185.9 137.86,-147.47 140.74,-130.13"/>
<polygon fill="#63b8ff" stroke="#63b8ff" points="124.14,-208.81 125.96,-219.25 131.05,-209.96 124.14,-208.81"/>
</a>
</g>
</g>
<!-- Node8&#45;&gt;Node7 -->
<g id="edge14_Node000008_Node000007" class="edge">
<title>Node8&#45;&gt;Node7</title>
<g id="a_edge14_Node000008_Node000007"><a xlink:title=" ">
<path fill="none" stroke="#63b8ff" d="M113.71,-210.9C100.46,-187.33 78.23,-147.79 68.3,-130.13"/>
<polygon fill="#63b8ff" stroke="#63b8ff" points="110.55,-212.43 118.5,-219.43 116.65,-208.99 110.55,-212.43"/>
</a>
</g>
</g>
<!-- Node9 -->
<g id="Node000009" class="node">
<title>Node9</title>
<g id="a_Node000009"><a xlink:href="../../d8/d6c/core_2str_8h.html" target="_top" xlink:title=" ">
<polygon fill="white" stroke="#666666" points="206.61,-185 171.86,-185 171.86,-165.75 206.61,-165.75 206.61,-185"/>
<text text-anchor="middle" x="189.24" y="-171.5" font-family="Helvetica,sans-Serif" font-size="10.00">str.h</text>
</a>
</g>
</g>
<!-- Node8&#45;&gt;Node9 -->
<g id="edge15_Node000008_Node000009" class="edge">
<title>Node8&#45;&gt;Node9</title>
<g id="a_edge15_Node000008_Node000009"><a xlink:title=" ">
<path fill="none" stroke="#63b8ff" d="M144.02,-213.41C155.31,-204.17 169.03,-192.93 178.37,-185.27"/>
<polygon fill="#63b8ff" stroke="#63b8ff" points="141.95,-210.59 136.43,-219.63 146.39,-216 141.95,-210.59"/>
</a>
</g>
</g>
<!-- Node9&#45;&gt;Node2 -->
<g id="edge16_Node000009_Node000002" class="edge">
<title>Node9&#45;&gt;Node2</title>
<g id="a_edge16_Node000009_Node000002"><a xlink:title=" ">
<path fill="none" stroke="#63b8ff" d="M190.4,-154.3C190.21,-140.82 187.98,-123.27 179.24,-110.5 166.05,-91.25 141.63,-79.18 123.82,-72.52"/>
<polygon fill="#63b8ff" stroke="#63b8ff" points="186.9,-154.07 190.14,-164.16 193.9,-154.25 186.9,-154.07"/>
</a>
</g>
</g>
</g>
</svg>
</svg>

<style type='text/css'>
<![CDATA[
[data-mouse-over-selected='false'] { opacity: 0.7; }
[data-mouse-over-selected='true']  { opacity: 1.0; }
]]>
</style>
<script type="application/ecmascript"><![CDATA[
document.addEventListener('DOMContentLoaded', (event) => {
  highlightEdges();
  highlightAdjacentNodes();
});
]]></script>
</svg>
