<?xml version="1.0" encoding="UTF-8" standalone="no"?>
<!DOCTYPE svg PUBLIC "-//W3C//DTD SVG 1.1//EN"
 "http://www.w3.org/Graphics/SVG/1.1/DTD/svg11.dtd">
<!-- Generated by graphviz version 9.0.0 (20230911.1827)
 -->
<!-- Title: memtoullp Pages: 1 -->
<svg width="840pt" height="120pt"
 viewBox="0.00 0.00 840.25 120.25" xmlns="http://www.w3.org/2000/svg" xmlns:xlink="http://www.w3.org/1999/xlink">
<g id="graph0" class="graph" transform="scale(1 1) rotate(0) translate(4 116.25)">
<title>memtoullp</title>
<!-- Node1 -->
<g id="Node000001" class="node">
<title>Node1</title>
<g id="a_Node000001"><a xlink:title=" ">
<polygon fill="#999999" stroke="#666666" points="61,-75.25 0,-75.25 0,-56 61,-56 61,-75.25"/>
<text text-anchor="middle" x="30.5" y="-61.75" font-family="Helvetica,sans-Serif" font-size="10.00">memtoullp</text>
</a>
</g>
</g>
<!-- Node2 -->
<g id="Node000002" class="node">
<title>Node2</title>
<g id="a_Node000002"><a xlink:href="../../d8/d17/str-num_8c.html#a772397125dcf53ef721fad36643d2aaa" target="_top" xlink:title=" ">
<polygon fill="white" stroke="#666666" points="214.25,-75.25 97,-75.25 97,-56 214.25,-56 214.25,-75.25"/>
<text text-anchor="middle" x="155.62" y="-61.75" font-family="Helvetica,sans-Serif" font-size="10.00">mem_startswith_minus</text>
</a>
</g>
</g>
<!-- Node1&#45;&gt;Node2 -->
<g id="edge1_Node000001_Node000002" class="edge">
<title>Node1&#45;&gt;Node2</title>
<g id="a_edge1_Node000001_Node000002"><a xlink:title=" ">
<path fill="none" stroke="#63b8ff" d="M61.31,-65.62C68.64,-65.62 76.81,-65.62 85.18,-65.62"/>
<polygon fill="#63b8ff" stroke="#63b8ff" points="85.14,-69.13 95.14,-65.63 85.14,-62.13 85.14,-69.13"/>
</a>
</g>
</g>
<!-- Node3 -->
<g id="Node000003" class="node">
<title>Node3</title>
<g id="a_Node000003"><a xlink:href="../../d4/d86/str-stream_8h.html#a8c72cf3833ab9273d676151a583336a2" target="_top" xlink:title=" ">
<polygon fill="white" stroke="#666666" points="301.5,-112.25 257,-112.25 257,-93 301.5,-93 301.5,-112.25"/>
<text text-anchor="middle" x="279.25" y="-98.75" font-family="Helvetica,sans-Serif" font-size="10.00">ps_init</text>
</a>
</g>
</g>
<!-- Node2&#45;&gt;Node3 -->
<g id="edge2_Node000002_Node000003" class="edge">
<title>Node2&#45;&gt;Node3</title>
<g id="a_edge2_Node000002_Node000003"><a xlink:title=" ">
<path fill="none" stroke="#63b8ff" d="M189.86,-75.74C207.28,-81.04 228.54,-87.5 245.84,-92.77"/>
<polygon fill="#63b8ff" stroke="#63b8ff" points="244.52,-96.02 255.11,-95.59 246.56,-89.33 244.52,-96.02"/>
</a>
</g>
</g>
<!-- Node5 -->
<g id="Node000005" class="node">
<title>Node5</title>
<g id="a_Node000005"><a xlink:href="../../d4/d86/str-stream_8h.html#a8fb602ea694bd9a2dfc73e6619218fff" target="_top" xlink:title=" ">
<polygon fill="white" stroke="#666666" points="304.5,-75.25 254,-75.25 254,-56 304.5,-56 304.5,-75.25"/>
<text text-anchor="middle" x="279.25" y="-61.75" font-family="Helvetica,sans-Serif" font-size="10.00">ps_ltrim</text>
</a>
</g>
</g>
<!-- Node2&#45;&gt;Node5 -->
<g id="edge4_Node000002_Node000005" class="edge">
<title>Node2&#45;&gt;Node5</title>
<g id="a_edge4_Node000002_Node000005"><a xlink:title=" ">
<path fill="none" stroke="#63b8ff" d="M214.59,-65.62C224.09,-65.62 233.69,-65.62 242.45,-65.62"/>
<polygon fill="#63b8ff" stroke="#63b8ff" points="242.28,-69.13 252.28,-65.63 242.28,-62.13 242.28,-69.13"/>
</a>
</g>
</g>
<!-- Node8 -->
<g id="Node000008" class="node">
<title>Node8</title>
<g id="a_Node000008"><a xlink:href="../../d4/d86/str-stream_8h.html#a4f661ce51788da9a13106edcb8398cec" target="_top" xlink:title=" ">
<polygon fill="white" stroke="#666666" points="308.25,-38.25 250.25,-38.25 250.25,-19 308.25,-19 308.25,-38.25"/>
<text text-anchor="middle" x="279.25" y="-24.75" font-family="Helvetica,sans-Serif" font-size="10.00">ps_peekc</text>
</a>
</g>
</g>
<!-- Node2&#45;&gt;Node8 -->
<g id="edge7_Node000002_Node000008" class="edge">
<title>Node2&#45;&gt;Node8</title>
<g id="a_edge7_Node000002_Node000008"><a xlink:title=" ">
<path fill="none" stroke="#63b8ff" d="M189.86,-55.51C205.17,-50.86 223.45,-45.3 239.4,-40.44"/>
<polygon fill="#63b8ff" stroke="#63b8ff" points="240.01,-43.92 248.55,-37.66 237.97,-37.22 240.01,-43.92"/>
</a>
</g>
</g>
<!-- Node4 -->
<g id="Node000004" class="node">
<title>Node4</title>
<g id="a_Node000004"><a xlink:href="../../d4/d86/str-stream_8h.html#a3b4fe44eb26c6eb77b5c58ab8f6a0b46" target="_top" xlink:title=" ">
<polygon fill="white" stroke="#666666" points="410.12,-112.25 354.38,-112.25 354.38,-93 410.12,-93 410.12,-112.25"/>
<text text-anchor="middle" x="382.25" y="-98.75" font-family="Helvetica,sans-Serif" font-size="10.00">ps_initptr</text>
</a>
</g>
</g>
<!-- Node3&#45;&gt;Node4 -->
<g id="edge3_Node000003_Node000004" class="edge">
<title>Node3&#45;&gt;Node4</title>
<g id="a_edge3_Node000003_Node000004"><a xlink:title=" ">
<path fill="none" stroke="#63b8ff" d="M301.67,-102.62C313.61,-102.62 328.85,-102.62 342.78,-102.62"/>
<polygon fill="#63b8ff" stroke="#63b8ff" points="342.57,-106.13 352.57,-102.63 342.57,-99.13 342.57,-106.13"/>
</a>
</g>
</g>
<!-- Node6 -->
<g id="Node000006" class="node">
<title>Node6</title>
<g id="a_Node000006"><a xlink:href="../../d4/d86/str-stream_8h.html#ab78e1058da1a53def87108a4cccce75b" target="_top" xlink:title=" ">
<polygon fill="white" stroke="#666666" points="420.25,-75.25 344.25,-75.25 344.25,-56 420.25,-56 420.25,-75.25"/>
<text text-anchor="middle" x="382.25" y="-61.75" font-family="Helvetica,sans-Serif" font-size="10.00">ps_skip_span</text>
</a>
</g>
</g>
<!-- Node5&#45;&gt;Node6 -->
<g id="edge5_Node000005_Node000006" class="edge">
<title>Node5&#45;&gt;Node6</title>
<g id="a_edge5_Node000005_Node000006"><a xlink:title=" ">
<path fill="none" stroke="#63b8ff" d="M304.96,-65.62C313.26,-65.62 322.84,-65.62 332.34,-65.62"/>
<polygon fill="#63b8ff" stroke="#63b8ff" points="332.28,-69.13 342.28,-65.63 332.28,-62.13 332.28,-69.13"/>
</a>
</g>
</g>
<!-- Node7 -->
<g id="Node000007" class="node">
<title>Node7</title>
<g id="a_Node000007"><a xlink:href="../../dd/def/str-ctype_8h.html#ae0cf190bab0c8d79a8562678e7661aad" target="_top" xlink:title=" ">
<polygon fill="white" stroke="#666666" points="563.75,-75.25 456.25,-75.25 456.25,-56 563.75,-56 563.75,-75.25"/>
<text text-anchor="middle" x="510" y="-61.75" font-family="Helvetica,sans-Serif" font-size="10.00">ctype_desc_contains</text>
</a>
</g>
</g>
<!-- Node6&#45;&gt;Node7 -->
<g id="edge6_Node000006_Node000007" class="edge">
<title>Node6&#45;&gt;Node7</title>
<g id="a_edge6_Node000006_Node000007"><a xlink:title=" ">
<path fill="none" stroke="#63b8ff" d="M420.64,-65.62C428.3,-65.62 436.58,-65.62 444.88,-65.62"/>
<polygon fill="#63b8ff" stroke="#63b8ff" points="444.65,-69.13 454.65,-65.63 444.65,-62.13 444.65,-69.13"/>
</a>
</g>
</g>
<!-- Node9 -->
<g id="Node000009" class="node">
<title>Node9</title>
<g id="a_Node000009"><a xlink:href="../../d4/d86/str-stream_8h.html#acfd192f4458058cc85b3bfdc7d9bb79d" target="_top" xlink:title=" ">
<polygon fill="white" stroke="#666666" points="407.5,-38.25 357,-38.25 357,-19 407.5,-19 407.5,-38.25"/>
<text text-anchor="middle" x="382.25" y="-24.75" font-family="Helvetica,sans-Serif" font-size="10.00">ps_getc</text>
</a>
</g>
</g>
<!-- Node8&#45;&gt;Node9 -->
<g id="edge8_Node000008_Node000009" class="edge">
<title>Node8&#45;&gt;Node9</title>
<g id="a_edge8_Node000008_Node000009"><a xlink:title=" ">
<path fill="none" stroke="#63b8ff" d="M308.65,-28.62C320.15,-28.62 333.55,-28.62 345.68,-28.62"/>
<polygon fill="#63b8ff" stroke="#63b8ff" points="345.31,-32.13 355.31,-28.63 345.31,-25.13 345.31,-32.13"/>
</a>
</g>
</g>
<!-- Node10 -->
<g id="Node000010" class="node">
<title>Node10</title>
<g id="a_Node000010"><a xlink:href="../../d4/d86/str-stream_8h.html#ae7e79a0c55fae102e38e4362cc43dce1" target="_top" xlink:title=" ">
<polygon fill="white" stroke="#666666" points="540.5,-38.25 479.5,-38.25 479.5,-19 540.5,-19 540.5,-38.25"/>
<text text-anchor="middle" x="510" y="-24.75" font-family="Helvetica,sans-Serif" font-size="10.00">__ps_getc</text>
</a>
</g>
</g>
<!-- Node9&#45;&gt;Node10 -->
<g id="edge9_Node000009_Node000010" class="edge">
<title>Node9&#45;&gt;Node10</title>
<g id="a_edge9_Node000009_Node000010"><a xlink:title=" ">
<path fill="none" stroke="#63b8ff" d="M407.79,-28.62C424.88,-28.62 448.08,-28.62 467.95,-28.62"/>
<polygon fill="#63b8ff" stroke="#63b8ff" points="467.69,-32.13 477.69,-28.63 467.69,-25.13 467.69,-32.13"/>
</a>
</g>
</g>
<!-- Node12 -->
<g id="Node000012" class="node">
<title>Node12</title>
<g id="a_Node000012"><a xlink:href="../../d4/d86/str-stream_8h.html#ab34e4ed4459c611a797df76cab2e8846" target="_top" xlink:title=" ">
<polygon fill="white" stroke="#666666" points="743.5,-19.25 696,-19.25 696,0 743.5,0 743.5,-19.25"/>
<text text-anchor="middle" x="719.75" y="-5.75" font-family="Helvetica,sans-Serif" font-size="10.00">ps_has</text>
</a>
</g>
</g>
<!-- Node9&#45;&gt;Node12 -->
<g id="edge13_Node000009_Node000012" class="edge">
<title>Node9&#45;&gt;Node12</title>
<g id="a_edge13_Node000009_Node000012"><a xlink:title=" ">
<path fill="none" stroke="#63b8ff" d="M407.94,-20.52C421.94,-16.36 439.88,-11.72 456.25,-9.62 537.47,0.77 634,-3.43 684.33,-6.85"/>
<polygon fill="#63b8ff" stroke="#63b8ff" points="684.07,-10.34 694.29,-7.57 684.57,-3.36 684.07,-10.34"/>
</a>
</g>
</g>
<!-- Node11 -->
<g id="Node000011" class="node">
<title>Node11</title>
<g id="a_Node000011"><a xlink:href="../../d4/d86/str-stream_8h.html#ae098817247881bad5d9318d4c6b712cf" target="_top" xlink:title=" ">
<polygon fill="white" stroke="#666666" points="660,-38.25 599.75,-38.25 599.75,-19 660,-19 660,-38.25"/>
<text text-anchor="middle" x="629.88" y="-24.75" font-family="Helvetica,sans-Serif" font-size="10.00">__ps_skip</text>
</a>
</g>
</g>
<!-- Node10&#45;&gt;Node11 -->
<g id="edge10_Node000010_Node000011" class="edge">
<title>Node10&#45;&gt;Node11</title>
<g id="a_edge10_Node000010_Node000011"><a xlink:title=" ">
<path fill="none" stroke="#63b8ff" d="M540.74,-28.62C555.09,-28.62 572.53,-28.62 588.09,-28.62"/>
<polygon fill="#63b8ff" stroke="#63b8ff" points="588.03,-32.13 598.03,-28.63 588.03,-25.13 588.03,-32.13"/>
</a>
</g>
</g>
<!-- Node11&#45;&gt;Node12 -->
<g id="edge11_Node000011_Node000012" class="edge">
<title>Node11&#45;&gt;Node12</title>
<g id="a_edge11_Node000011_Node000012"><a xlink:title=" ">
<path fill="none" stroke="#63b8ff" d="M660.14,-22.3C668.01,-20.6 676.59,-18.74 684.7,-16.99"/>
<polygon fill="#63b8ff" stroke="#63b8ff" points="685.21,-20.46 694.25,-14.92 683.73,-13.62 685.21,-20.46"/>
</a>
</g>
</g>
<!-- Node13 -->
<g id="Node000013" class="node">
<title>Node13</title>
<g id="a_Node000013"><a xlink:href="../../d4/d86/str-stream_8h.html#a171f7ecffb1d3846b226cd8d7016aed7" target="_top" xlink:title=" ">
<polygon fill="white" stroke="#666666" points="832.25,-19.25 779.5,-19.25 779.5,0 832.25,0 832.25,-19.25"/>
<text text-anchor="middle" x="805.88" y="-5.75" font-family="Helvetica,sans-Serif" font-size="10.00">ps_done</text>
</a>
</g>
</g>
<!-- Node12&#45;&gt;Node13 -->
<g id="edge12_Node000012_Node000013" class="edge">
<title>Node12&#45;&gt;Node13</title>
<g id="a_edge12_Node000012_Node000013"><a xlink:title=" ">
<path fill="none" stroke="#63b8ff" d="M743.74,-9.62C751.21,-9.62 759.7,-9.62 767.93,-9.62"/>
<polygon fill="#63b8ff" stroke="#63b8ff" points="767.74,-13.13 777.74,-9.63 767.74,-6.13 767.74,-13.13"/>
</a>
</g>
</g>
</g>
</svg>
