<?xml version="1.0" encoding="UTF-8" standalone="no"?>
<!DOCTYPE svg PUBLIC "-//W3C//DTD SVG 1.1//EN"
 "http://www.w3.org/Graphics/SVG/1.1/DTD/svg11.dtd">
<!-- Generated by graphviz version 9.0.0 (20230911.1827)
 -->
<!-- Title: __attribute__ Pages: 1 -->
<!--zoomable 329 -->

<svg id="main" version="1.1" xmlns="http://www.w3.org/2000/svg" xmlns:xlink="http://www.w3.org/1999/xlink" xml:space="preserve" onload="init(evt)">
<style type="text/css"><![CDATA[
.node, .edge {opacity: 0.7;}
.node.selected, .edge.selected {opacity: 1;}
.edge:hover path { stroke: red; }
.edge:hover polygon { stroke: red; fill: red; }
]]></style>

<defs>
  <circle id="rim" cx="0" cy="0" r="7"/>
  <circle id="rim2" cx="0" cy="0" r="3.5"/>
  <g id="zoomPlus">
    <use xlink:href="#rim" fill="#404040"><set attributeName="fill" to="#808080" begin="zoomplus.mouseover" end="zoomplus.mouseout"/></use>
    <path d="M-4,0h8M0,-4v8" fill="none" stroke="white" stroke-width="1.5" pointer-events="none"/>
  </g>
  <g id="zoomMin">
    <use xlink:href="#rim" fill="#404040"><set attributeName="fill" to="#808080" begin="zoomminus.mouseover" end="zoomminus.mouseout"/></use>
    <path d="M-4,0h8" fill="none" stroke="white" stroke-width="1.5" pointer-events="none"/>
  </g>
  <g id="arrowUp" transform="translate(30 24)">
    <use xlink:href="#rim"/>
    <path pointer-events="none" fill="none" stroke="white" stroke-width="1.5" d="M0,-3.0v7 M-2.5,-0.5L0,-3.0L2.5,-0.5"/>
  </g>
  <g id="arrowRight" transform="rotate(90) translate(36 -43)">
    <use xlink:href="#rim"/>
    <path pointer-events="none" fill="none" stroke="white" stroke-width="1.5" d="M0,-3.0v7 M-2.5,-0.5L0,-3.0L2.5,-0.5"/>
  </g>
  <g id="arrowDown" transform="rotate(180) translate(-30 -48)">
    <use xlink:href="#rim"/>
    <path pointer-events="none" fill="none" stroke="white" stroke-width="1.5" d="M0,-3.0v7 M-2.5,-0.5L0,-3.0L2.5,-0.5"/>
  </g>
  <g id="arrowLeft" transform="rotate(270) translate(-36 17)">
    <use xlink:href="#rim"/>
    <path pointer-events="none" fill="none" stroke="white" stroke-width="1.5" d="M0,-3.0v7 M-2.5,-0.5L0,-3.0L2.5,-0.5"/>
  </g>
  <g id="resetDef">
    <use xlink:href="#rim2" fill="#404040"><set attributeName="fill" to="#808080" begin="reset.mouseover" end="reset.mouseout"/></use>
  </g>
</defs>
<script type="application/ecmascript">
var viewWidth = 1799;
var viewHeight = 329;
var sectionId = 'dynsection-2';
</script>
<script type="application/ecmascript" xlink:href="../../svg.min.js"/>
<svg id="graph" class="graph">
<g id="viewport">
<title>__attribute__</title>
<!-- Node1 -->
<g id="Node000001" class="node">
<title>Node1</title>
<g id="a_Node000001"><a xlink:title="Allocate an IOP structure and initialize it with the correct default values.">
<polygon fill="#999999" stroke="#666666" points="72.25,-184.25 0,-184.25 0,-165 72.25,-165 72.25,-184.25"/>
<text text-anchor="middle" x="36.12" y="-170.75" font-family="Helvetica,sans-Serif" font-size="10.00">__attribute__</text>
</a>
</g>
</g>
<!-- Node2 -->
<g id="Node000002" class="node">
<title>Node2</title>
<g id="a_Node000002"><a xlink:href="../../d0/d2d/iop_8blk.html#aed844abdb3d81d651cac9993d71aee3b" target="_top" xlink:title=" ">
<polygon fill="white" stroke="#666666" points="205.25,-184.25 108.25,-184.25 108.25,-165 205.25,-165 205.25,-184.25"/>
<text text-anchor="middle" x="156.75" y="-170.75" font-family="Helvetica,sans-Serif" font-size="10.00">mp_iop_new_desc</text>
</a>
</g>
</g>
<!-- Node1&#45;&gt;Node2 -->
<g id="edge1_Node000001_Node000002" class="edge">
<title>Node1&#45;&gt;Node2</title>
<g id="a_edge1_Node000001_Node000002"><a xlink:title=" ">
<path fill="none" stroke="#63b8ff" d="M72.72,-174.62C80.23,-174.62 88.35,-174.62 96.48,-174.62"/>
<polygon fill="#63b8ff" stroke="#63b8ff" points="96.38,-178.13 106.38,-174.63 96.38,-171.13 96.38,-178.13"/>
</a>
</g>
</g>
<!-- Node3 -->
<g id="Node000003" class="node">
<title>Node3</title>
<g id="a_Node000003"><a xlink:href="../../d0/d2d/iop_8blk.html#a0a6a9c83ee5d2a79ff2040d1f7c57829" target="_top" xlink:title=" ">
<polygon fill="white" stroke="#666666" points="314.25,-146.25 241.25,-146.25 241.25,-127 314.25,-127 314.25,-146.25"/>
<text text-anchor="middle" x="277.75" y="-132.75" font-family="Helvetica,sans-Serif" font-size="10.00">iop_init_desc</text>
</a>
</g>
</g>
<!-- Node2&#45;&gt;Node3 -->
<g id="edge2_Node000002_Node000003" class="edge">
<title>Node2&#45;&gt;Node3</title>
<g id="a_edge2_Node000002_Node000003"><a xlink:title=" ">
<path fill="none" stroke="#63b8ff" d="M189.33,-164.54C203.29,-160.08 219.91,-154.78 234.88,-149.99"/>
<polygon fill="#63b8ff" stroke="#63b8ff" points="235.53,-153.46 244,-147.08 233.41,-146.79 235.53,-153.46"/>
</a>
</g>
</g>
<!-- Node35 -->
<g id="Node000035" class="node">
<title>Node35</title>
<g id="a_Node000035"><a xlink:href="../../d9/d9a/mem_8h.html#ada6bb9661f0c10ccaa14d231c24aeafd" target="_top" xlink:title=" ">
<polygon fill="white" stroke="#666666" points="310.5,-222.25 245,-222.25 245,-203 310.5,-203 310.5,-222.25"/>
<text text-anchor="middle" x="277.75" y="-208.75" font-family="Helvetica,sans-Serif" font-size="10.00">mp_imalloc</text>
</a>
</g>
</g>
<!-- Node2&#45;&gt;Node35 -->
<g id="edge41_Node000002_Node000035" class="edge">
<title>Node2&#45;&gt;Node35</title>
<g id="a_edge41_Node000002_Node000035"><a xlink:title=" ">
<path fill="none" stroke="#63b8ff" d="M189.33,-184.71C203.29,-189.17 219.91,-194.47 234.88,-199.26"/>
<polygon fill="#63b8ff" stroke="#63b8ff" points="233.41,-202.46 244,-202.17 235.53,-195.79 233.41,-202.46"/>
</a>
</g>
</g>
<!-- Node4 -->
<g id="Node000004" class="node">
<title>Node4</title>
<g id="a_Node000004"><a xlink:href="../../d0/d2d/iop_8blk.html#a8f5547f4caf62e205297b211572e99e2" target="_top" xlink:title=" ">
<polygon fill="white" stroke="#666666" points="443.88,-146.25 369.38,-146.25 369.38,-127 443.88,-127 443.88,-146.25"/>
<text text-anchor="middle" x="406.62" y="-132.75" font-family="Helvetica,sans-Serif" font-size="10.00">iop_init_fields</text>
</a>
</g>
</g>
<!-- Node3&#45;&gt;Node4 -->
<g id="edge3_Node000003_Node000004" class="edge">
<title>Node3&#45;&gt;Node4</title>
<g id="a_edge3_Node000003_Node000004"><a xlink:title=" ">
<path fill="none" stroke="#63b8ff" d="M314.43,-136.62C327.85,-136.62 343.33,-136.62 357.68,-136.62"/>
<polygon fill="#63b8ff" stroke="#63b8ff" points="357.38,-140.13 367.38,-136.63 357.38,-133.13 357.38,-140.13"/>
</a>
</g>
</g>
<!-- Node31 -->
<g id="Node000031" class="node">
<title>Node31</title>
<g id="a_Node000031"><a xlink:href="../../d3/d40/iop_8h.html#a07f21da2d3381b98dd6f6bbd642d2130" target="_top" xlink:title=" ">
<polygon fill="white" stroke="#666666" points="883,-53.25 783,-53.25 783,-34 883,-34 883,-53.25"/>
<text text-anchor="middle" x="833" y="-39.75" font-family="Helvetica,sans-Serif" font-size="10.00">iop_struct_is_class</text>
</a>
</g>
</g>
<!-- Node3&#45;&gt;Node31 -->
<g id="edge40_Node000003_Node000031" class="edge">
<title>Node3&#45;&gt;Node31</title>
<g id="a_edge40_Node000003_Node000031"><a xlink:title=" ">
<path fill="none" stroke="#63b8ff" d="M314.73,-126.94C326.08,-123.92 338.68,-120.6 350.25,-117.62 416.23,-100.65 432.06,-93.27 499,-80.62 559.89,-69.13 575.68,-69.63 637.25,-62.62 682.26,-57.5 733.21,-52.56 771.71,-49"/>
<polygon fill="#63b8ff" stroke="#63b8ff" points="771.58,-52.53 781.22,-48.13 770.94,-45.56 771.58,-52.53"/>
</a>
</g>
</g>
<!-- Node4&#45;&gt;Node4 -->
<g id="edge39_Node000004_Node000004" class="edge">
<title>Node4&#45;&gt;Node4</title>
<g id="a_edge39_Node000004_Node000004"><a xlink:title=" ">
<path fill="none" stroke="#63b8ff" d="M386.45,-146.54C377.25,-155.15 383.97,-164.25 406.62,-164.25 419.01,-164.25 426.64,-161.53 429.5,-157.65"/>
<polygon fill="#63b8ff" stroke="#63b8ff" points="432.92,-156.9 427.16,-148.01 426.12,-158.55 432.92,-156.9"/>
</a>
</g>
</g>
<!-- Node5 -->
<g id="Node000005" class="node">
<title>Node5</title>
<g id="a_Node000005"><a xlink:href="../../d7/df8/log_8c.html#abca342edf91a9b45f7a17ef564fa8a53" target="_top" xlink:title=" ">
<polygon fill="white" stroke="#666666" points="717,-259.25 667.25,-259.25 667.25,-240 717,-240 717,-259.25"/>
<text text-anchor="middle" x="692.12" y="-245.75" font-family="Helvetica,sans-Serif" font-size="10.00">e_panic</text>
</a>
</g>
</g>
<!-- Node4&#45;&gt;Node5 -->
<g id="edge4_Node000004_Node000005" class="edge">
<title>Node4&#45;&gt;Node5</title>
<g id="a_edge4_Node000004_Node000005"><a xlink:title=" ">
<path fill="none" stroke="#63b8ff" d="M444.36,-144.3C484.1,-153.32 548.82,-170.1 601.25,-193.62 625.59,-204.55 651.22,-221.08 668.85,-233.36"/>
<polygon fill="#63b8ff" stroke="#63b8ff" points="666.35,-235.87 676.53,-238.8 670.39,-230.16 666.35,-235.87"/>
</a>
</g>
</g>
<!-- Node29 -->
<g id="Node000029" class="node">
<title>Node29</title>
<g id="a_Node000029"><a xlink:href="../../d0/d2d/iop_8blk.html#af16bda4ccce06ee6cfd01f2b0e366ee0" target="_top" xlink:title=" ">
<polygon fill="white" stroke="#666666" points="600.5,-109.25 499.75,-109.25 499.75,-90 600.5,-90 600.5,-109.25"/>
<text text-anchor="middle" x="550.12" y="-95.75" font-family="Helvetica,sans-Serif" font-size="10.00">iop_field_is_pointed</text>
</a>
</g>
</g>
<!-- Node4&#45;&gt;Node29 -->
<g id="edge33_Node000004_Node000029" class="edge">
<title>Node4&#45;&gt;Node29</title>
<g id="a_edge33_Node000004_Node000029"><a xlink:title=" ">
<path fill="none" stroke="#63b8ff" d="M444.06,-127.1C461.02,-122.66 481.44,-117.32 499.75,-112.54"/>
<polygon fill="#63b8ff" stroke="#63b8ff" points="500.58,-115.94 509.37,-110.02 498.81,-109.17 500.58,-115.94"/>
</a>
</g>
</g>
<!-- Node34 -->
<g id="Node000034" class="node">
<title>Node34</title>
<g id="a_Node000034"><a xlink:href="../../d0/d2d/iop_8blk.html#ae025571981c4f71a758fb91e70ec2013" target="_top" xlink:title=" ">
<polygon fill="white" stroke="#666666" points="600.88,-146.25 499.38,-146.25 499.38,-127 600.88,-127 600.88,-146.25"/>
<text text-anchor="middle" x="550.12" y="-132.75" font-family="Helvetica,sans-Serif" font-size="10.00">iop_field_set_defval</text>
</a>
</g>
</g>
<!-- Node4&#45;&gt;Node34 -->
<g id="edge38_Node000004_Node000034" class="edge">
<title>Node4&#45;&gt;Node34</title>
<g id="a_edge38_Node000004_Node000034"><a xlink:title=" ">
<path fill="none" stroke="#63b8ff" d="M444.06,-136.62C457.38,-136.62 472.83,-136.62 487.71,-136.62"/>
<polygon fill="#63b8ff" stroke="#63b8ff" points="487.43,-140.13 497.43,-136.63 487.43,-133.13 487.43,-140.13"/>
</a>
</g>
</g>
<!-- Node6 -->
<g id="Node000006" class="node">
<title>Node6</title>
<g id="a_Node000006"><a xlink:href="../../d7/df8/log_8c.html#a4bc04f7baa1e064cb0b93c7b9f3a61a1" target="_top" xlink:title=" ">
<polygon fill="white" stroke="#666666" points="877,-90.25 789,-90.25 789,-71 877,-71 877,-90.25"/>
<text text-anchor="middle" x="833" y="-76.75" font-family="Helvetica,sans-Serif" font-size="10.00">__logger_refresh</text>
</a>
</g>
</g>
<!-- Node5&#45;&gt;Node6 -->
<g id="edge5_Node000005_Node000006" class="edge">
<title>Node5&#45;&gt;Node6</title>
<g id="a_edge5_Node000005_Node000006"><a xlink:title=" ">
<path fill="none" stroke="#63b8ff" d="M701.4,-239.56C724.12,-211.9 787.77,-134.45 816.99,-98.89"/>
<polygon fill="#63b8ff" stroke="#63b8ff" points="819.34,-101.54 822.99,-91.6 813.93,-97.1 819.34,-101.54"/>
</a>
</g>
</g>
<!-- Node24 -->
<g id="Node000024" class="node">
<title>Node24</title>
<g id="a_Node000024"><a xlink:href="../../d7/df8/log_8c.html#a900490b26df7698aac12f7f7e6517e81" target="_top" xlink:title=" ">
<polygon fill="white" stroke="#666666" points="865.75,-245.25 800.25,-245.25 800.25,-226 865.75,-226 865.75,-245.25"/>
<text text-anchor="middle" x="833" y="-231.75" font-family="Helvetica,sans-Serif" font-size="10.00">logger_vlog</text>
</a>
</g>
</g>
<!-- Node5&#45;&gt;Node24 -->
<g id="edge27_Node000005_Node000024" class="edge">
<title>Node5&#45;&gt;Node24</title>
<g id="a_edge27_Node000005_Node000024"><a xlink:title=" ">
<path fill="none" stroke="#63b8ff" d="M717.32,-247.19C736.86,-245.22 764.88,-242.39 788.33,-240.03"/>
<polygon fill="#63b8ff" stroke="#63b8ff" points="788.65,-243.51 798.25,-239.03 787.95,-236.55 788.65,-243.51"/>
</a>
</g>
</g>
<!-- Node28 -->
<g id="Node000028" class="node">
<title>Node28</title>
<g id="a_Node000028"><a xlink:href="../../d2/d4d/file_8h.html#a25419a391fdd4ad7954699c58cfeb3b9" target="_top" xlink:title=" ">
<polygon fill="white" stroke="#666666" points="858.62,-321.25 807.38,-321.25 807.38,-302 858.62,-302 858.62,-321.25"/>
<text text-anchor="middle" x="833" y="-307.75" font-family="Helvetica,sans-Serif" font-size="10.00">va_start</text>
</a>
</g>
</g>
<!-- Node5&#45;&gt;Node28 -->
<g id="edge32_Node000005_Node000028" class="edge">
<title>Node5&#45;&gt;Node28</title>
<g id="a_edge32_Node000005_Node000028"><a xlink:title=" ">
<path fill="none" stroke="#63b8ff" d="M717.35,-256.67C726.76,-259.67 737.52,-263.45 747,-267.62 763.75,-275 766.78,-279.15 783,-287.62 788.67,-290.58 794.75,-293.65 800.64,-296.57"/>
<polygon fill="#63b8ff" stroke="#63b8ff" points="799.02,-299.67 809.54,-300.92 802.09,-293.38 799.02,-299.67"/>
</a>
</g>
</g>
<!-- Node7 -->
<g id="Node000007" class="node">
<title>Node7</title>
<g id="a_Node000007"><a xlink:href="../../d7/df8/log_8c.html#a3dbd75fb614210f0b114cfd03c9c0a7b" target="_top" xlink:title=" ">
<polygon fill="white" stroke="#666666" points="1022.75,-118.25 919,-118.25 919,-99 1022.75,-99 1022.75,-118.25"/>
<text text-anchor="middle" x="970.88" y="-104.75" font-family="Helvetica,sans-Serif" font-size="10.00">__logger_do_refresh</text>
</a>
</g>
</g>
<!-- Node6&#45;&gt;Node7 -->
<g id="edge6_Node000006_Node000007" class="edge">
<title>Node6&#45;&gt;Node7</title>
<g id="a_edge6_Node000006_Node000007"><a xlink:title=" ">
<path fill="none" stroke="#63b8ff" d="M877.37,-89.56C887.63,-91.68 898.75,-93.97 909.61,-96.21"/>
<polygon fill="#63b8ff" stroke="#63b8ff" points="908.8,-99.61 919.3,-98.2 910.21,-92.76 908.8,-99.61"/>
</a>
</g>
</g>
<!-- Node22 -->
<g id="Node000022" class="node">
<title>Node22</title>
<g id="a_Node000022"><a xlink:href="../../d7/df8/log_8c.html#a7b1b02d1986e1247c2f571af4a2c2854" target="_top" xlink:title=" ">
<polygon fill="white" stroke="#666666" points="1008.5,-44.25 933.25,-44.25 933.25,-25 1008.5,-25 1008.5,-44.25"/>
<text text-anchor="middle" x="970.88" y="-30.75" font-family="Helvetica,sans-Serif" font-size="10.00">log_spin_lock</text>
</a>
</g>
</g>
<!-- Node6&#45;&gt;Node22 -->
<g id="edge25_Node000006_Node000022" class="edge">
<title>Node6&#45;&gt;Node22</title>
<g id="a_edge25_Node000006_Node000022"><a xlink:title=" ">
<path fill="none" stroke="#63b8ff" d="M863.82,-70.53C883.02,-64.03 908.23,-55.49 929.26,-48.38"/>
<polygon fill="#63b8ff" stroke="#63b8ff" points="930.34,-51.7 938.69,-45.18 928.1,-45.07 930.34,-51.7"/>
</a>
</g>
</g>
<!-- Node23 -->
<g id="Node000023" class="node">
<title>Node23</title>
<g id="a_Node000023"><a xlink:href="../../d1/dc0/group__log.html#ga045020bb4af234632f7761f220131c69" target="_top" xlink:title=" ">
<polygon fill="white" stroke="#666666" points="1013.75,-81.25 928,-81.25 928,-62 1013.75,-62 1013.75,-81.25"/>
<text text-anchor="middle" x="970.88" y="-67.75" font-family="Helvetica,sans-Serif" font-size="10.00">log_spin_unlock</text>
</a>
</g>
</g>
<!-- Node6&#45;&gt;Node23 -->
<g id="edge26_Node000006_Node000023" class="edge">
<title>Node6&#45;&gt;Node23</title>
<g id="a_edge26_Node000006_Node000023"><a xlink:title=" ">
<path fill="none" stroke="#63b8ff" d="M877.37,-77.75C889.86,-76.93 903.64,-76.01 916.65,-75.15"/>
<polygon fill="#63b8ff" stroke="#63b8ff" points="916.59,-78.66 926.34,-74.51 916.13,-71.68 916.59,-78.66"/>
</a>
</g>
</g>
<!-- Node7&#45;&gt;Node7 -->
<g id="edge7_Node000007_Node000007" class="edge">
<title>Node7&#45;&gt;Node7</title>
<g id="a_edge7_Node000007_Node000007"><a xlink:title=" ">
<path fill="none" stroke="#63b8ff" d="M949.29,-118.54C939.44,-127.15 946.64,-136.25 970.88,-136.25 984.13,-136.25 992.29,-133.53 995.35,-129.65"/>
<polygon fill="#63b8ff" stroke="#63b8ff" points="998.74,-128.8 992.84,-120 991.97,-130.56 998.74,-128.8"/>
</a>
</g>
</g>
<!-- Node8 -->
<g id="Node000008" class="node">
<title>Node8</title>
<g id="a_Node000008"><a xlink:href="../../de/d1a/container-dlist_8h.html#a3b6f65860b212e28f2e28e71eb54d54d" target="_top" xlink:title="Add element e at the head of list l (suited for LIFO).">
<polygon fill="white" stroke="#666666" points="1149.75,-56.25 1094.75,-56.25 1094.75,-37 1149.75,-37 1149.75,-56.25"/>
<text text-anchor="middle" x="1122.25" y="-42.75" font-family="Helvetica,sans-Serif" font-size="10.00">dlist_add</text>
</a>
</g>
</g>
<!-- Node7&#45;&gt;Node8 -->
<g id="edge8_Node000007_Node000008" class="edge">
<title>Node7&#45;&gt;Node8</title>
<g id="a_edge8_Node000007_Node000008"><a xlink:title=" ">
<path fill="none" stroke="#63b8ff" d="M1002.87,-98.59C1009.51,-96.18 1016.43,-93.47 1022.75,-90.62 1039.44,-83.1 1042.17,-78.37 1058.75,-70.62 1066.73,-66.9 1075.47,-63.27 1083.81,-60.02"/>
<polygon fill="#63b8ff" stroke="#63b8ff" points="1084.93,-63.34 1093.03,-56.51 1082.44,-56.79 1084.93,-63.34"/>
</a>
</g>
</g>
<!-- Node10 -->
<g id="Node000010" class="node">
<title>Node10</title>
<g id="a_Node000010"><a xlink:href="../../de/d1a/container-dlist_8h.html#a0a69e401f6ec15966c891e96ad864c77" target="_top" xlink:title="Put a dlist_t element in a safe and detached state.">
<polygon fill="white" stroke="#666666" points="1148.25,-19.25 1096.25,-19.25 1096.25,0 1148.25,0 1148.25,-19.25"/>
<text text-anchor="middle" x="1122.25" y="-5.75" font-family="Helvetica,sans-Serif" font-size="10.00">dlist_init</text>
</a>
</g>
</g>
<!-- Node7&#45;&gt;Node10 -->
<g id="edge10_Node000007_Node000010" class="edge">
<title>Node7&#45;&gt;Node10</title>
<g id="a_edge10_Node000007_Node000010"><a xlink:title=" ">
<path fill="none" stroke="#63b8ff" d="M1010.18,-98.5C1014.69,-96.35 1019.01,-93.75 1022.75,-90.62 1047.5,-69.95 1033.39,-47.55 1058.75,-27.62 1066.26,-21.72 1075.63,-17.76 1084.82,-15.09"/>
<polygon fill="#63b8ff" stroke="#63b8ff" points="1085.42,-18.54 1094.32,-12.79 1083.77,-11.74 1085.42,-18.54"/>
</a>
</g>
</g>
<!-- Node11 -->
<g id="Node000011" class="node">
<title>Node11</title>
<g id="a_Node000011"><a xlink:href="../../d7/df8/log_8c.html#a4c8fbe8648573312126ce341cf34cba1" target="_top" xlink:title=" ">
<polygon fill="white" stroke="#666666" points="1185.75,-169.25 1058.75,-169.25 1058.75,-150 1185.75,-150 1185.75,-169.25"/>
<text text-anchor="middle" x="1122.25" y="-155.75" font-family="Helvetica,sans-Serif" font-size="10.00">logger_compute_fullname</text>
</a>
</g>
</g>
<!-- Node7&#45;&gt;Node11 -->
<g id="edge11_Node000007_Node000011" class="edge">
<title>Node7&#45;&gt;Node11</title>
<g id="a_edge11_Node000007_Node000011"><a xlink:title=" ">
<path fill="none" stroke="#63b8ff" d="M996.77,-118.71C1014.03,-125.55 1037.63,-134.58 1058.75,-141.62 1063.52,-143.21 1068.52,-144.8 1073.53,-146.32"/>
<polygon fill="#63b8ff" stroke="#63b8ff" points="1072.38,-149.63 1082.96,-149.13 1074.37,-142.92 1072.38,-149.63"/>
</a>
</g>
</g>
<!-- Node14 -->
<g id="Node000014" class="node">
<title>Node14</title>
<g id="a_Node000014"><a xlink:href="../../df/d0a/str-l_8h.html#ad74dae07179370f3c22e3f026157926e" target="_top" xlink:title="wipe a lstr_t (frees memory if needed).">
<polygon fill="white" stroke="#666666" points="1293.25,-169.25 1238.25,-169.25 1238.25,-150 1293.25,-150 1293.25,-169.25"/>
<text text-anchor="middle" x="1265.75" y="-155.75" font-family="Helvetica,sans-Serif" font-size="10.00">lstr_wipe</text>
</a>
</g>
</g>
<!-- Node7&#45;&gt;Node14 -->
<g id="edge24_Node000007_Node000014" class="edge">
<title>Node7&#45;&gt;Node14</title>
<g id="a_edge24_Node000007_Node000014"><a xlink:title=" ">
<path fill="none" stroke="#63b8ff" d="M1021.15,-98.54C1065.35,-91.57 1131.43,-86.32 1185.75,-103.62 1209.36,-111.15 1231.98,-128.57 1246.91,-142"/>
<polygon fill="#63b8ff" stroke="#63b8ff" points="1244.36,-144.41 1254.05,-148.69 1249.15,-139.3 1244.36,-144.41"/>
</a>
</g>
</g>
<!-- Node21 -->
<g id="Node000021" class="node">
<title>Node21</title>
<g id="a_Node000021"><a xlink:href="../../df/d0a/str-l_8h.html#a963c22b229774d4b7c106bae4011cb8e" target="_top" xlink:title="Returns whether \v s1 and \v s2 contents are equal.">
<polygon fill="white" stroke="#666666" points="1151.25,-132.25 1093.25,-132.25 1093.25,-113 1151.25,-113 1151.25,-132.25"/>
<text text-anchor="middle" x="1122.25" y="-118.75" font-family="Helvetica,sans-Serif" font-size="10.00">lstr_equal</text>
</a>
</g>
</g>
<!-- Node7&#45;&gt;Node21 -->
<g id="edge23_Node000007_Node000021" class="edge">
<title>Node7&#45;&gt;Node21</title>
<g id="a_edge23_Node000007_Node000021"><a xlink:title=" ">
<path fill="none" stroke="#63b8ff" d="M1022.86,-113.4C1042.14,-115.21 1063.76,-117.24 1081.82,-118.93"/>
<polygon fill="#63b8ff" stroke="#63b8ff" points="1081.32,-122.4 1091.6,-119.85 1081.97,-115.43 1081.32,-122.4"/>
</a>
</g>
</g>
<!-- Node9 -->
<g id="Node000009" class="node">
<title>Node9</title>
<g id="a_Node000009"><a xlink:href="../../de/d1a/container-dlist_8h.html#a71e7667ca0e4b896923788c5851afd24" target="_top" xlink:title="Put element e between prev and next.">
<polygon fill="white" stroke="#666666" points="1298.5,-56.25 1233,-56.25 1233,-37 1298.5,-37 1298.5,-56.25"/>
<text text-anchor="middle" x="1265.75" y="-42.75" font-family="Helvetica,sans-Serif" font-size="10.00">__dlist_add</text>
</a>
</g>
</g>
<!-- Node8&#45;&gt;Node9 -->
<g id="edge9_Node000008_Node000009" class="edge">
<title>Node8&#45;&gt;Node9</title>
<g id="a_edge9_Node000008_Node000009"><a xlink:title=" ">
<path fill="none" stroke="#63b8ff" d="M1150.2,-46.62C1170.3,-46.62 1198.17,-46.62 1221.39,-46.62"/>
<polygon fill="#63b8ff" stroke="#63b8ff" points="1221.19,-50.13 1231.19,-46.63 1221.19,-43.13 1221.19,-50.13"/>
</a>
</g>
</g>
<!-- Node12 -->
<g id="Node000012" class="node">
<title>Node12</title>
<g id="a_Node000012"><a xlink:href="../../df/d0a/str-l_8h.html#a6a200ca09358f19b13a8e297cda34869" target="_top" xlink:title="returns a constant copy of \v s.">
<polygon fill="white" stroke="#666666" points="1293.62,-207.25 1237.88,-207.25 1237.88,-188 1293.62,-188 1293.62,-207.25"/>
<text text-anchor="middle" x="1265.75" y="-193.75" font-family="Helvetica,sans-Serif" font-size="10.00">lstr_dupc</text>
</a>
</g>
</g>
<!-- Node11&#45;&gt;Node12 -->
<g id="edge12_Node000011_Node000012" class="edge">
<title>Node11&#45;&gt;Node12</title>
<g id="a_edge12_Node000011_Node000012"><a xlink:title=" ">
<path fill="none" stroke="#63b8ff" d="M1160.8,-169.71C1181.15,-175.17 1206.25,-181.91 1226.68,-187.4"/>
<polygon fill="#63b8ff" stroke="#63b8ff" points="1225.77,-190.78 1236.33,-189.99 1227.58,-184.02 1225.77,-190.78"/>
</a>
</g>
</g>
<!-- Node11&#45;&gt;Node14 -->
<g id="edge14_Node000011_Node000014" class="edge">
<title>Node11&#45;&gt;Node14</title>
<g id="a_edge14_Node000011_Node000014"><a xlink:title=" ">
<path fill="none" stroke="#63b8ff" d="M1186.14,-159.62C1199.9,-159.62 1214.06,-159.62 1226.51,-159.62"/>
<polygon fill="#63b8ff" stroke="#63b8ff" points="1226.33,-163.13 1236.33,-159.63 1226.33,-156.13 1226.33,-163.13"/>
</a>
</g>
</g>
<!-- Node13 -->
<g id="Node000013" class="node">
<title>Node13</title>
<g id="a_Node000013"><a xlink:href="../../df/d0a/str-l_8h.html#a3b4dbe9c4cc70340cba0787574dc1c5e" target="_top" xlink:title=" ">
<polygon fill="white" stroke="#666666" points="1623.25,-207.25 1570.5,-207.25 1570.5,-188 1623.25,-188 1623.25,-207.25"/>
<text text-anchor="middle" x="1596.88" y="-193.75" font-family="Helvetica,sans-Serif" font-size="10.00">lstr_init_</text>
</a>
</g>
</g>
<!-- Node12&#45;&gt;Node13 -->
<g id="edge13_Node000012_Node000013" class="edge">
<title>Node12&#45;&gt;Node13</title>
<g id="a_edge13_Node000012_Node000013"><a xlink:title=" ">
<path fill="none" stroke="#63b8ff" d="M1293.96,-197.62C1352.81,-197.62 1491.94,-197.62 1558.78,-197.62"/>
<polygon fill="#63b8ff" stroke="#63b8ff" points="1558.49,-201.13 1568.49,-197.63 1558.49,-194.13 1558.49,-201.13"/>
</a>
</g>
</g>
<!-- Node15 -->
<g id="Node000015" class="node">
<title>Node15</title>
<g id="a_Node000015"><a xlink:href="../../df/d0a/str-l_8h.html#a381cd831ac9616c5bea8213bb679d1ac" target="_top" xlink:title="Wipe a lstr_t (frees memory if needed).">
<polygon fill="white" stroke="#666666" points="1419.5,-169.25 1345.75,-169.25 1345.75,-150 1419.5,-150 1419.5,-169.25"/>
<text text-anchor="middle" x="1382.62" y="-155.75" font-family="Helvetica,sans-Serif" font-size="10.00">mp_lstr_wipe</text>
</a>
</g>
</g>
<!-- Node14&#45;&gt;Node15 -->
<g id="edge15_Node000014_Node000015" class="edge">
<title>Node14&#45;&gt;Node15</title>
<g id="a_edge15_Node000014_Node000015"><a xlink:title=" ">
<path fill="none" stroke="#63b8ff" d="M1293.68,-159.62C1305.7,-159.62 1320.23,-159.62 1333.99,-159.62"/>
<polygon fill="#63b8ff" stroke="#63b8ff" points="1333.78,-163.13 1343.78,-159.63 1333.78,-156.13 1333.78,-163.13"/>
</a>
</g>
</g>
<!-- Node16 -->
<g id="Node000016" class="node">
<title>Node16</title>
<g id="a_Node000016"><a xlink:href="../../de/d04/str-l_8c.html#abe2a3a71f0b4dbc7d37c59d16762b6fb" target="_top" xlink:title="lstr_copy_* helper.">
<polygon fill="white" stroke="#666666" points="1534.5,-169.25 1455.5,-169.25 1455.5,-150 1534.5,-150 1534.5,-169.25"/>
<text text-anchor="middle" x="1495" y="-155.75" font-family="Helvetica,sans-Serif" font-size="10.00">mp_lstr_copy_</text>
</a>
</g>
</g>
<!-- Node15&#45;&gt;Node16 -->
<g id="edge16_Node000015_Node000016" class="edge">
<title>Node15&#45;&gt;Node16</title>
<g id="a_edge16_Node000015_Node000016"><a xlink:title=" ">
<path fill="none" stroke="#63b8ff" d="M1419.77,-159.62C1427.46,-159.62 1435.71,-159.62 1443.82,-159.62"/>
<polygon fill="#63b8ff" stroke="#63b8ff" points="1443.6,-163.13 1453.6,-159.63 1443.6,-156.13 1443.6,-163.13"/>
</a>
</g>
</g>
<!-- Node16&#45;&gt;Node13 -->
<g id="edge22_Node000016_Node000013" class="edge">
<title>Node16&#45;&gt;Node13</title>
<g id="a_edge22_Node000016_Node000013"><a xlink:title=" ">
<path fill="none" stroke="#63b8ff" d="M1522.5,-169.71C1533.94,-174.06 1547.51,-179.22 1559.85,-183.92"/>
<polygon fill="#63b8ff" stroke="#63b8ff" points="1558.28,-187.07 1568.87,-187.35 1560.77,-180.52 1558.28,-187.07"/>
</a>
</g>
</g>
<!-- Node17 -->
<g id="Node000017" class="node">
<title>Node17</title>
<g id="a_Node000017"><a xlink:href="../../d9/d9a/mem_8h.html#aebbbd277e2952bdb802104671ba23ba9" target="_top" xlink:title=" ">
<polygon fill="white" stroke="#666666" points="1614.25,-170.25 1579.5,-170.25 1579.5,-151 1614.25,-151 1614.25,-170.25"/>
<text text-anchor="middle" x="1596.88" y="-156.75" font-family="Helvetica,sans-Serif" font-size="10.00">ifree</text>
</a>
</g>
</g>
<!-- Node16&#45;&gt;Node17 -->
<g id="edge17_Node000016_Node000017" class="edge">
<title>Node16&#45;&gt;Node17</title>
<g id="a_edge17_Node000016_Node000017"><a xlink:title=" ">
<path fill="none" stroke="#63b8ff" d="M1534.9,-160.01C1545.8,-160.12 1557.45,-160.24 1567.6,-160.34"/>
<polygon fill="#63b8ff" stroke="#63b8ff" points="1567.56,-163.84 1577.6,-160.44 1567.63,-156.84 1567.56,-163.84"/>
</a>
</g>
</g>
<!-- Node18 -->
<g id="Node000018" class="node">
<title>Node18</title>
<g id="a_Node000018"><a xlink:href="../../d8/d37/mem_8blk.html#a36b65ab346f1d0deed7b63c544c78f2b" target="_top" xlink:title=" ">
<polygon fill="white" stroke="#666666" points="1704.12,-245.25 1667.88,-245.25 1667.88,-226 1704.12,-226 1704.12,-245.25"/>
<text text-anchor="middle" x="1686" y="-231.75" font-family="Helvetica,sans-Serif" font-size="10.00">ipool</text>
</a>
</g>
</g>
<!-- Node17&#45;&gt;Node18 -->
<g id="edge18_Node000017_Node000018" class="edge">
<title>Node17&#45;&gt;Node18</title>
<g id="a_edge18_Node000017_Node000018"><a xlink:title=" ">
<path fill="none" stroke="#63b8ff" d="M1612.61,-170.59C1616.16,-173.13 1619.89,-175.9 1623.25,-178.62 1638.57,-191.05 1654.93,-206.24 1666.96,-217.82"/>
<polygon fill="#63b8ff" stroke="#63b8ff" points="1664.18,-220 1673.79,-224.47 1669.06,-214.98 1664.18,-220"/>
</a>
</g>
</g>
<!-- Node20 -->
<g id="Node000020" class="node">
<title>Node20</title>
<g id="a_Node000020"><a xlink:href="../../d8/d37/mem_8blk.html#a83c7cf203e5eef9d1a8c6c43cde3e2e5" target="_top" xlink:title=" ">
<polygon fill="white" stroke="#666666" points="1712.75,-170.25 1659.25,-170.25 1659.25,-151 1712.75,-151 1712.75,-170.25"/>
<text text-anchor="middle" x="1686" y="-156.75" font-family="Helvetica,sans-Serif" font-size="10.00">mp_ifree</text>
</a>
</g>
</g>
<!-- Node17&#45;&gt;Node20 -->
<g id="edge21_Node000017_Node000020" class="edge">
<title>Node17&#45;&gt;Node20</title>
<g id="a_edge21_Node000017_Node000020"><a xlink:title=" ">
<path fill="none" stroke="#63b8ff" d="M1614.67,-160.62C1624.09,-160.62 1636.24,-160.62 1647.78,-160.62"/>
<polygon fill="#63b8ff" stroke="#63b8ff" points="1647.48,-164.13 1657.48,-160.63 1647.48,-157.13 1647.48,-164.13"/>
</a>
</g>
</g>
<!-- Node18&#45;&gt;Node5 -->
<g id="edge19_Node000018_Node000005" class="edge">
<title>Node18&#45;&gt;Node5</title>
<g id="a_edge19_Node000018_Node000005"><a xlink:title=" ">
<path fill="none" stroke="#63b8ff" d="M1667.52,-241.56C1634.44,-252.25 1560.26,-273.62 1496,-273.62 969.88,-273.62 969.88,-273.62 969.88,-273.62 883.08,-273.62 781.53,-261.76 728.88,-254.72"/>
<polygon fill="#63b8ff" stroke="#63b8ff" points="729.38,-251.25 719,-253.37 728.43,-258.19 729.38,-251.25"/>
</a>
</g>
</g>
<!-- Node19 -->
<g id="Node000019" class="node">
<title>Node19</title>
<g id="a_Node000019"><a xlink:href="../../d1/d10/mem-stack_8h.html#a1d0e2a29f86dc033a02e50484b527fd0" target="_top" xlink:title=" ">
<polygon fill="white" stroke="#666666" points="1791,-245.25 1748.75,-245.25 1748.75,-226 1791,-226 1791,-245.25"/>
<text text-anchor="middle" x="1769.88" y="-231.75" font-family="Helvetica,sans-Serif" font-size="10.00">t_pool</text>
</a>
</g>
</g>
<!-- Node18&#45;&gt;Node19 -->
<g id="edge20_Node000018_Node000019" class="edge">
<title>Node18&#45;&gt;Node19</title>
<g id="a_edge20_Node000018_Node000019"><a xlink:title=" ">
<path fill="none" stroke="#63b8ff" d="M1704.36,-235.62C1713.81,-235.62 1725.79,-235.62 1736.86,-235.62"/>
<polygon fill="#63b8ff" stroke="#63b8ff" points="1736.84,-239.13 1746.84,-235.63 1736.84,-232.13 1736.84,-239.13"/>
</a>
</g>
</g>
<!-- Node24&#45;&gt;Node12 -->
<g id="edge31_Node000024_Node000012" class="edge">
<title>Node24&#45;&gt;Node12</title>
<g id="a_edge31_Node000024_Node000012"><a xlink:title=" ">
<path fill="none" stroke="#63b8ff" d="M866.06,-227.14C881.89,-223.3 901.33,-219.07 919,-216.62 1030,-201.28 1162.66,-198.21 1226.59,-197.67"/>
<polygon fill="#63b8ff" stroke="#63b8ff" points="1226.22,-201.17 1236.19,-197.61 1226.17,-194.17 1226.22,-201.17"/>
</a>
</g>
</g>
<!-- Node25 -->
<g id="Node000025" class="node">
<title>Node25</title>
<g id="a_Node000025"><a xlink:href="../../d1/dc0/group__log.html#ga168a6f17b248f61f7d25a17d58d04e36" target="_top" xlink:title=" ">
<polygon fill="white" stroke="#666666" points="1015.25,-245.25 926.5,-245.25 926.5,-226 1015.25,-226 1015.25,-245.25"/>
<text text-anchor="middle" x="970.88" y="-231.75" font-family="Helvetica,sans-Serif" font-size="10.00">logger_has_level</text>
</a>
</g>
</g>
<!-- Node24&#45;&gt;Node25 -->
<g id="edge28_Node000024_Node000025" class="edge">
<title>Node24&#45;&gt;Node25</title>
<g id="a_edge28_Node000024_Node000025"><a xlink:title=" ">
<path fill="none" stroke="#63b8ff" d="M866.2,-235.62C880.74,-235.62 898.33,-235.62 914.86,-235.62"/>
<polygon fill="#63b8ff" stroke="#63b8ff" points="914.57,-239.13 924.57,-235.63 914.57,-232.13 914.57,-239.13"/>
</a>
</g>
</g>
<!-- Node26 -->
<g id="Node000026" class="node">
<title>Node26</title>
<g id="a_Node000026"><a xlink:href="../../d1/dc0/group__log.html#gaf388752b988541da0abeceecdf96e6b3" target="_top" xlink:title=" ">
<polygon fill="white" stroke="#666666" points="1165.5,-245.25 1079,-245.25 1079,-226 1165.5,-226 1165.5,-245.25"/>
<text text-anchor="middle" x="1122.25" y="-231.75" font-family="Helvetica,sans-Serif" font-size="10.00">logger_get_level</text>
</a>
</g>
</g>
<!-- Node25&#45;&gt;Node26 -->
<g id="edge29_Node000025_Node000026" class="edge">
<title>Node25&#45;&gt;Node26</title>
<g id="a_edge29_Node000025_Node000026"><a xlink:title=" ">
<path fill="none" stroke="#63b8ff" d="M1015.48,-235.62C1031.64,-235.62 1050.17,-235.62 1067.15,-235.62"/>
<polygon fill="#63b8ff" stroke="#63b8ff" points="1067.11,-239.13 1077.11,-235.63 1067.11,-232.13 1067.11,-239.13"/>
</a>
</g>
</g>
<!-- Node27 -->
<g id="Node000027" class="node">
<title>Node27</title>
<g id="a_Node000027"><a xlink:href="../../d1/dc0/group__log.html#ga93cbd623096e1704532d15b3eb30e42f" target="_top" xlink:title=" ">
<polygon fill="white" stroke="#666666" points="1309.75,-245.25 1221.75,-245.25 1221.75,-226 1309.75,-226 1309.75,-245.25"/>
<text text-anchor="middle" x="1265.75" y="-231.75" font-family="Helvetica,sans-Serif" font-size="10.00">__logger_refresh</text>
</a>
</g>
</g>
<!-- Node26&#45;&gt;Node27 -->
<g id="edge30_Node000026_Node000027" class="edge">
<title>Node26&#45;&gt;Node27</title>
<g id="a_edge30_Node000026_Node000027"><a xlink:title=" ">
<path fill="none" stroke="#63b8ff" d="M1165.7,-235.62C1179.58,-235.62 1195.19,-235.62 1209.85,-235.62"/>
<polygon fill="#63b8ff" stroke="#63b8ff" points="1209.83,-239.13 1219.83,-235.63 1209.83,-232.13 1209.83,-239.13"/>
</a>
</g>
</g>
<!-- Node30 -->
<g id="Node000030" class="node">
<title>Node30</title>
<g id="a_Node000030"><a xlink:href="../../d3/d40/iop_8h.html#a766d8c1f5a9d3e12bba0150208905df0" target="_top" xlink:title=" ">
<polygon fill="white" stroke="#666666" points="738.38,-165.25 645.88,-165.25 645.88,-146 738.38,-146 738.38,-165.25"/>
<text text-anchor="middle" x="692.12" y="-151.75" font-family="Helvetica,sans-Serif" font-size="10.00">iop_field_is_class</text>
</a>
</g>
</g>
<!-- Node29&#45;&gt;Node30 -->
<g id="edge34_Node000029_Node000030" class="edge">
<title>Node29&#45;&gt;Node30</title>
<g id="a_edge34_Node000029_Node000030"><a xlink:title=" ">
<path fill="none" stroke="#63b8ff" d="M581.66,-109.7C588.2,-112.1 595.02,-114.8 601.25,-117.62 617.92,-125.19 620.5,-130.25 637.25,-137.62 640.4,-139.01 643.69,-140.35 647.02,-141.64"/>
<polygon fill="#63b8ff" stroke="#63b8ff" points="645.69,-144.88 656.29,-145.01 648.09,-138.3 645.69,-144.88"/>
</a>
</g>
</g>
<!-- Node32 -->
<g id="Node000032" class="node">
<title>Node32</title>
<g id="a_Node000032"><a xlink:href="../../d3/d40/iop_8h.html#aefeceb12938118fa0e6a7ec4beed0049" target="_top" xlink:title=" ">
<polygon fill="white" stroke="#666666" points="747,-128.25 637.25,-128.25 637.25,-109 747,-109 747,-128.25"/>
<text text-anchor="middle" x="692.12" y="-114.75" font-family="Helvetica,sans-Serif" font-size="10.00">iop_field_is_reference</text>
</a>
</g>
</g>
<!-- Node29&#45;&gt;Node32 -->
<g id="edge36_Node000029_Node000032" class="edge">
<title>Node29&#45;&gt;Node32</title>
<g id="a_edge36_Node000029_Node000032"><a xlink:title=" ">
<path fill="none" stroke="#63b8ff" d="M600.88,-106.38C608.87,-107.46 617.26,-108.6 625.56,-109.73"/>
<polygon fill="#63b8ff" stroke="#63b8ff" points="624.9,-113.17 635.28,-111.05 625.84,-106.23 624.9,-113.17"/>
</a>
</g>
</g>
<!-- Node33 -->
<g id="Node000033" class="node">
<title>Node33</title>
<g id="a_Node000033"><a xlink:href="../../d0/d2d/iop_8blk.html#af138a610122e2e92f0bad6e5c05432bd" target="_top" xlink:title="Return whether the IOP type is scalar or not.">
<polygon fill="white" stroke="#666666" points="740.25,-91.25 644,-91.25 644,-72 740.25,-72 740.25,-91.25"/>
<text text-anchor="middle" x="692.12" y="-77.75" font-family="Helvetica,sans-Serif" font-size="10.00">iop_type_is_scalar</text>
</a>
</g>
</g>
<!-- Node29&#45;&gt;Node33 -->
<g id="edge37_Node000029_Node000033" class="edge">
<title>Node29&#45;&gt;Node33</title>
<g id="a_edge37_Node000029_Node000033"><a xlink:title=" ">
<path fill="none" stroke="#63b8ff" d="M600.88,-93.23C611.15,-91.91 622.06,-90.5 632.61,-89.15"/>
<polygon fill="#63b8ff" stroke="#63b8ff" points="632.9,-92.64 642.38,-87.89 632.01,-85.7 632.9,-92.64"/>
</a>
</g>
</g>
<!-- Node30&#45;&gt;Node31 -->
<g id="edge35_Node000030_Node000031" class="edge">
<title>Node30&#45;&gt;Node31</title>
<g id="a_edge35_Node000030_Node000031"><a xlink:title=" ">
<path fill="none" stroke="#63b8ff" d="M735.01,-145.51C739.35,-143.36 743.46,-140.77 747,-137.62 774.96,-112.83 755.41,-86.83 783,-61.62 783.76,-60.93 784.55,-60.26 785.37,-59.62"/>
<polygon fill="#63b8ff" stroke="#63b8ff" points="786.99,-62.73 793.59,-54.45 783.26,-56.81 786.99,-62.73"/>
</a>
</g>
</g>
<!-- Node36 -->
<g id="Node000036" class="node">
<title>Node36</title>
<g id="a_Node000036"><a xlink:href="../../d8/d37/mem_8blk.html#a5666a1403bcf2bd8e114c23f8021d1ac" target="_top" xlink:title=" ">
<polygon fill="white" stroke="#666666" points="444.62,-259.25 368.62,-259.25 368.62,-240 444.62,-240 444.62,-259.25"/>
<text text-anchor="middle" x="406.62" y="-245.75" font-family="Helvetica,sans-Serif" font-size="10.00">__mp_imalloc</text>
</a>
</g>
</g>
<!-- Node35&#45;&gt;Node36 -->
<g id="edge42_Node000035_Node000036" class="edge">
<title>Node35&#45;&gt;Node36</title>
<g id="a_edge42_Node000035_Node000036"><a xlink:title=" ">
<path fill="none" stroke="#63b8ff" d="M310.77,-221.96C325.68,-226.31 343.69,-231.56 359.99,-236.32"/>
<polygon fill="#63b8ff" stroke="#63b8ff" points="358.91,-239.65 369.49,-239.09 360.87,-232.93 358.91,-239.65"/>
</a>
</g>
</g>
<!-- Node40 -->
<g id="Node000040" class="node">
<title>Node40</title>
<g id="a_Node000040"><a xlink:href="../../d9/d9a/mem_8h.html#ae99e17ad0b27e94e8a00c8af9734a0e7" target="_top" xlink:title=" ">
<polygon fill="white" stroke="#666666" points="463,-222.25 350.25,-222.25 350.25,-203 463,-203 463,-222.25"/>
<text text-anchor="middle" x="406.62" y="-208.75" font-family="Helvetica,sans-Serif" font-size="10.00">icheck_alloc_constant</text>
</a>
</g>
</g>
<!-- Node35&#45;&gt;Node40 -->
<g id="edge47_Node000035_Node000040" class="edge">
<title>Node35&#45;&gt;Node40</title>
<g id="a_edge47_Node000035_Node000040"><a xlink:title=" ">
<path fill="none" stroke="#63b8ff" d="M310.77,-212.62C319.31,-212.62 328.88,-212.62 338.56,-212.62"/>
<polygon fill="#63b8ff" stroke="#63b8ff" points="338.4,-216.13 348.4,-212.63 338.4,-209.13 338.4,-216.13"/>
</a>
</g>
</g>
<!-- Node37 -->
<g id="Node000037" class="node">
<title>Node37</title>
<g id="a_Node000037"><a xlink:href="../../d8/d37/mem_8blk.html#a8e4fbf6500e65079c31e3fd933ae7dc1" target="_top" xlink:title=" ">
<polygon fill="white" stroke="#666666" points="585.12,-259.25 515.12,-259.25 515.12,-240 585.12,-240 585.12,-259.25"/>
<text text-anchor="middle" x="550.12" y="-245.75" font-family="Helvetica,sans-Serif" font-size="10.00">icheck_alloc</text>
</a>
</g>
</g>
<!-- Node36&#45;&gt;Node37 -->
<g id="edge43_Node000036_Node000037" class="edge">
<title>Node36&#45;&gt;Node37</title>
<g id="a_edge43_Node000036_Node000037"><a xlink:title=" ">
<path fill="none" stroke="#63b8ff" d="M444.8,-249.62C462.84,-249.62 484.67,-249.62 503.68,-249.62"/>
<polygon fill="#63b8ff" stroke="#63b8ff" points="503.59,-253.13 513.59,-249.63 503.59,-246.13 503.59,-253.13"/>
</a>
</g>
</g>
<!-- Node38 -->
<g id="Node000038" class="node">
<title>Node38</title>
<g id="a_Node000038"><a xlink:href="../../d9/d9a/mem_8h.html#af42ab5c21de0c723b2a55403e5441fda" target="_top" xlink:title=" ">
<polygon fill="white" stroke="#666666" points="589.62,-296.25 510.62,-296.25 510.62,-277 589.62,-277 589.62,-296.25"/>
<text text-anchor="middle" x="550.12" y="-282.75" font-family="Helvetica,sans-Serif" font-size="10.00">mem_bit_align</text>
</a>
</g>
</g>
<!-- Node36&#45;&gt;Node38 -->
<g id="edge45_Node000036_Node000038" class="edge">
<title>Node36&#45;&gt;Node38</title>
<g id="a_edge45_Node000036_Node000038"><a xlink:title=" ">
<path fill="none" stroke="#63b8ff" d="M444.8,-259.35C461.62,-263.74 481.73,-269 499.79,-273.72"/>
<polygon fill="#63b8ff" stroke="#63b8ff" points="498.69,-277.06 509.25,-276.2 500.46,-270.28 498.69,-277.06"/>
</a>
</g>
</g>
<!-- Node37&#45;&gt;Node5 -->
<g id="edge44_Node000037_Node000005" class="edge">
<title>Node37&#45;&gt;Node5</title>
<g id="a_edge44_Node000037_Node000005"><a xlink:title=" ">
<path fill="none" stroke="#63b8ff" d="M585.37,-249.62C606.68,-249.62 634.04,-249.62 655.58,-249.62"/>
<polygon fill="#63b8ff" stroke="#63b8ff" points="655.37,-253.13 665.37,-249.63 655.37,-246.13 655.37,-253.13"/>
</a>
</g>
</g>
<!-- Node39 -->
<g id="Node000039" class="node">
<title>Node39</title>
<g id="a_Node000039"><a xlink:href="../../d8/d96/bithacks_8h.html#ab80588fa9f8b9e766249edaf70558bdc" target="_top" xlink:title=" ">
<polygon fill="white" stroke="#666666" points="722.25,-296.25 662,-296.25 662,-277 722.25,-277 722.25,-296.25"/>
<text text-anchor="middle" x="692.12" y="-282.75" font-family="Helvetica,sans-Serif" font-size="10.00">bitcountsz</text>
</a>
</g>
</g>
<!-- Node38&#45;&gt;Node39 -->
<g id="edge46_Node000038_Node000039" class="edge">
<title>Node38&#45;&gt;Node39</title>
<g id="a_edge46_Node000038_Node000039"><a xlink:title=" ">
<path fill="none" stroke="#63b8ff" d="M590.12,-286.62C608.88,-286.62 631.37,-286.62 650.35,-286.62"/>
<polygon fill="#63b8ff" stroke="#63b8ff" points="650.15,-290.13 660.15,-286.63 650.15,-283.13 650.15,-290.13"/>
</a>
</g>
</g>
<!-- Node41 -->
<g id="Node000041" class="node">
<title>Node41</title>
<g id="a_Node000041"><a xlink:href="../../d8/d37/mem_8blk.html#a377e36d6fbaf3ee7f1b217559cb0c850" target="_top" xlink:title=" ">
<polygon fill="white" stroke="#666666" points="601.25,-222.25 499,-222.25 499,-203 601.25,-203 601.25,-222.25"/>
<text text-anchor="middle" x="550.12" y="-208.75" font-family="Helvetica,sans-Serif" font-size="10.00">__imalloc_too_large</text>
</a>
</g>
</g>
<!-- Node40&#45;&gt;Node41 -->
<g id="edge48_Node000040_Node000041" class="edge">
<title>Node40&#45;&gt;Node41</title>
<g id="a_edge48_Node000040_Node000041"><a xlink:title=" ">
<path fill="none" stroke="#63b8ff" d="M463.14,-212.62C471.14,-212.62 479.41,-212.62 487.52,-212.62"/>
<polygon fill="#63b8ff" stroke="#63b8ff" points="487.32,-216.13 497.32,-212.63 487.32,-209.13 487.32,-216.13"/>
</a>
</g>
</g>
</g>
</svg>

<g id="navigator" transform="translate(0 0)" fill="#404254">
  <rect fill="#f2f5e9" fill-opacity="0.5" stroke="#606060" stroke-width=".5" x="0" y="0" width="60" height="60"/>
  <use id="zoomplus" xlink:href="#zoomPlus" x="17" y="9" onmousedown="handleZoom(evt,'in')"/>
  <use id="zoomminus" xlink:href="#zoomMin" x="42" y="9" onmousedown="handleZoom(evt,'out')"/>
  <use id="reset" xlink:href="#resetDef" x="30" y="36" onmousedown="handleReset()"/>
   <use id="arrowup" xlink:href="#arrowUp" x="0" y="0" onmousedown="handlePan(0,-1)"/>
  <use id="arrowright" xlink:href="#arrowRight" x="0" y="0" onmousedown="handlePan(1,0)"/>
  <use id="arrowdown" xlink:href="#arrowDown" x="0" y="0" onmousedown="handlePan(0,1)"/>
  <use id="arrowleft" xlink:href="#arrowLeft" x="0" y="0" onmousedown="handlePan(-1,0)"/>
</g>
<svg viewBox="0 0 15 15" width="100%" height="30px" preserveAspectRatio="xMaxYMin meet">
 <g id="arrow_out" transform="scale(0.3 0.3)">
  <a xlink:href="iop_8h_abaec3c440d7f50fd54bf4bd9d617248a_cgraph_org.svg" target="_base">
   <rect id="button" ry="5" rx="5" y="6" x="6" height="38" width="38"
        fill="#f2f5e9" fill-opacity="0.5" stroke="#606060" stroke-width="1.0"/>
   <path id="arrow"
     d="M 11.500037,31.436501 C 11.940474,20.09759 22.043105,11.32322 32.158766,21.979434 L 37.068811,17.246167 C 37.068811,17.246167 37.088388,32 37.088388,32 L 22.160133,31.978069 C 22.160133,31.978069 26.997745,27.140456 26.997745,27.140456 C 18.528582,18.264221 13.291696,25.230495 11.500037,31.436501 z"
     style="fill:#404040;"/>
  </a>
 </g>
</svg>

<style type='text/css'>
<![CDATA[
[data-mouse-over-selected='false'] { opacity: 0.7; }
[data-mouse-over-selected='true']  { opacity: 1.0; }
]]>
</style>
<script type="application/ecmascript"><![CDATA[
document.addEventListener('DOMContentLoaded', (event) => {
  highlightEdges();
  highlightAdjacentNodes();
});
]]></script>
</svg>
