<?xml version="1.0" encoding="UTF-8" standalone="no"?>
<!DOCTYPE svg PUBLIC "-//W3C//DTD SVG 1.1//EN"
 "http://www.w3.org/Graphics/SVG/1.1/DTD/svg11.dtd">
<!-- Generated by graphviz version 9.0.0 (20230911.1827)
 -->
<!-- Title: iop_rpc_get_attrs Pages: 1 -->
<svg width="1106pt" height="325pt"
 viewBox="0.00 0.00 1105.50 325.25" xmlns="http://www.w3.org/2000/svg" xmlns:xlink="http://www.w3.org/1999/xlink">
<g id="graph0" class="graph" transform="scale(1 1) rotate(0) translate(4 321.25)">
<title>iop_rpc_get_attrs</title>
<!-- Node1 -->
<g id="Node000001" class="node">
<title>Node1</title>
<g id="a_Node000001"><a xlink:title=" ">
<polygon fill="#999999" stroke="#666666" points="1097.5,-223.25 1006.5,-223.25 1006.5,-204 1097.5,-204 1097.5,-223.25"/>
<text text-anchor="middle" x="1052" y="-209.75" font-family="Helvetica,sans-Serif" font-size="10.00">iop_rpc_get_attrs</text>
</a>
</g>
</g>
<!-- Node2 -->
<g id="Node000002" class="node">
<title>Node2</title>
<g id="a_Node000002"><a xlink:href="../../dd/de9/rpc-http-server_8c.html#a92959472f66067d2487e9750aaaed8b5" target="_top" xlink:title=" ">
<polygon fill="white" stroke="#666666" points="951.75,-317.25 863.75,-317.25 863.75,-298 951.75,-298 951.75,-317.25"/>
<text text-anchor="middle" x="907.75" y="-303.75" font-family="Helvetica,sans-Serif" font-size="10.00">__ichttp_register</text>
</a>
</g>
</g>
<!-- Node1&#45;&gt;Node2 -->
<g id="edge1_Node000001_Node000002" class="edge">
<title>Node1&#45;&gt;Node2</title>
<g id="a_edge1_Node000001_Node000002"><a xlink:title=" ">
<path fill="none" stroke="#63b8ff" d="M1035.92,-232.22C1021.01,-249.46 996.67,-274.63 970.5,-289.62 964.78,-292.9 958.42,-295.62 952.02,-297.87"/>
<polygon fill="#63b8ff" stroke="#63b8ff" points="1038.46,-234.64 1042.22,-224.74 1033.1,-230.14 1038.46,-234.64"/>
</a>
</g>
</g>
<!-- Node3 -->
<g id="Node000003" class="node">
<title>Node3</title>
<g id="a_Node000003"><a xlink:href="../../d2/dff/openapi_8blk.html#a850951025ab5bcc71a05fba2047735fe" target="_top" xlink:title=" ">
<polygon fill="white" stroke="#666666" points="943.5,-280.25 872,-280.25 872,-261 943.5,-261 943.5,-280.25"/>
<text text-anchor="middle" x="907.75" y="-266.75" font-family="Helvetica,sans-Serif" font-size="10.00">get_rpc_help</text>
</a>
</g>
</g>
<!-- Node1&#45;&gt;Node3 -->
<g id="edge2_Node000001_Node000003" class="edge">
<title>Node1&#45;&gt;Node3</title>
<g id="a_edge2_Node000001_Node000003"><a xlink:title=" ">
<path fill="none" stroke="#63b8ff" d="M1016.42,-227.96C1002.21,-233.81 985.59,-240.6 970.5,-246.62 958.86,-251.27 945.93,-256.31 934.93,-260.57"/>
<polygon fill="#63b8ff" stroke="#63b8ff" points="1017.43,-231.33 1025.34,-224.28 1014.76,-224.86 1017.43,-231.33"/>
</a>
</g>
</g>
<!-- Node6 -->
<g id="Node000006" class="node">
<title>Node6</title>
<g id="a_Node000006"><a xlink:href="../../d2/dff/openapi_8blk.html#a0506dcda552d42a571c9091a3ada9ff7" target="_top" xlink:title=" ">
<polygon fill="white" stroke="#666666" points="434.62,-262.25 324.88,-262.25 324.88,-243 434.62,-243 434.62,-262.25"/>
<text text-anchor="middle" x="379.75" y="-248.75" font-family="Helvetica,sans-Serif" font-size="10.00">t_iop_iface_alias_add</text>
</a>
</g>
</g>
<!-- Node1&#45;&gt;Node6 -->
<g id="edge24_Node000001_Node000006" class="edge">
<title>Node1&#45;&gt;Node6</title>
<g id="a_edge24_Node000001_Node000006"><a xlink:title=" ">
<path fill="none" stroke="#63b8ff" d="M994.89,-216.89C867.89,-224.28 559.78,-242.21 434.79,-249.48"/>
<polygon fill="#63b8ff" stroke="#63b8ff" points="994.95,-220.39 1004.73,-216.32 994.55,-213.4 994.95,-220.39"/>
</a>
</g>
</g>
<!-- Node9 -->
<g id="Node000009" class="node">
<title>Node9</title>
<g id="a_Node000009"><a xlink:href="../../da/d15/json_8blk.html#a808f740ca807219d9d1498f3d590ab62" target="_top" xlink:title=" ">
<polygon fill="white" stroke="#666666" points="970.5,-204.25 845,-204.25 845,-185 970.5,-185 970.5,-204.25"/>
<text text-anchor="middle" x="907.75" y="-190.75" font-family="Helvetica,sans-Serif" font-size="10.00">iop_check_rpc_examples</text>
</a>
</g>
</g>
<!-- Node1&#45;&gt;Node9 -->
<g id="edge8_Node000001_Node000009" class="edge">
<title>Node1&#45;&gt;Node9</title>
<g id="a_edge8_Node000001_Node000009"><a xlink:title=" ">
<path fill="none" stroke="#63b8ff" d="M995.03,-206.15C987.12,-205.09 978.95,-204 970.93,-202.93"/>
<polygon fill="#63b8ff" stroke="#63b8ff" points="994.51,-209.61 1004.88,-207.47 995.43,-202.67 994.51,-209.61"/>
</a>
</g>
</g>
<!-- Node11 -->
<g id="Node000011" class="node">
<title>Node11</title>
<g id="a_Node000011"><a xlink:href="../../d0/d2d/iop_8blk.html#a60b36e5e1f697a300dbfb53b7a42839f" target="_top" xlink:title=" ">
<polygon fill="white" stroke="#666666" points="961.12,-167.25 854.38,-167.25 854.38,-148 961.12,-148 961.12,-167.25"/>
<text text-anchor="middle" x="907.75" y="-153.75" font-family="Helvetica,sans-Serif" font-size="10.00">iop_rpc_get_gen_attr</text>
</a>
</g>
</g>
<!-- Node1&#45;&gt;Node11 -->
<g id="edge10_Node000001_Node000011" class="edge">
<title>Node1&#45;&gt;Node11</title>
<g id="a_edge10_Node000001_Node000011"><a xlink:title=" ">
<path fill="none" stroke="#63b8ff" d="M1021.63,-198.39C1006.58,-190.94 987.83,-182.19 970.5,-175.62 962.98,-172.78 954.81,-170.1 946.94,-167.74"/>
<polygon fill="#63b8ff" stroke="#63b8ff" points="1019.99,-201.49 1030.5,-202.86 1023.14,-195.24 1019.99,-201.49"/>
</a>
</g>
</g>
<!-- Node16 -->
<g id="Node000016" class="node">
<title>Node16</title>
<g id="a_Node000016"><a xlink:href="../../dd/dfb/xml-wsdl_8blk.html#a7f40f3acf3699b404746d3e42710dae7" target="_top" xlink:title=" ">
<polygon fill="white" stroke="#666666" points="958.12,-93.25 857.38,-93.25 857.38,-74 958.12,-74 958.12,-93.25"/>
<text text-anchor="middle" x="907.75" y="-79.75" font-family="Helvetica,sans-Serif" font-size="10.00">iop_xwsdl_rpc_loop</text>
</a>
</g>
</g>
<!-- Node1&#45;&gt;Node16 -->
<g id="edge15_Node000001_Node000016" class="edge">
<title>Node1&#45;&gt;Node16</title>
<g id="a_edge15_Node000001_Node000016"><a xlink:title=" ">
<path fill="none" stroke="#63b8ff" d="M1032.25,-195.94C1016.01,-180.66 991.83,-158.05 970.5,-138.62 953.09,-122.77 932.65,-104.66 920.2,-93.69"/>
<polygon fill="#63b8ff" stroke="#63b8ff" points="1029.61,-198.26 1039.29,-202.56 1034.41,-193.16 1029.61,-198.26"/>
</a>
</g>
</g>
<!-- Node4 -->
<g id="Node000004" class="node">
<title>Node4</title>
<g id="a_Node000004"><a xlink:href="../../d2/dff/openapi_8blk.html#a9df34cf35d5db78f417db2cc143d54e2" target="_top" xlink:title=" ">
<polygon fill="white" stroke="#666666" points="791.75,-290.88 677.5,-290.88 677.5,-260.38 791.75,-260.38 791.75,-290.88"/>
<text text-anchor="start" x="685.5" y="-277.38" font-family="Helvetica,sans-Serif" font-size="10.00">t_iop_rpc_to_operation</text>
<text text-anchor="middle" x="734.62" y="-266.12" font-family="Helvetica,sans-Serif" font-size="10.00">_object</text>
</a>
</g>
</g>
<!-- Node3&#45;&gt;Node4 -->
<g id="edge3_Node000003_Node000004" class="edge">
<title>Node3&#45;&gt;Node4</title>
<g id="a_edge3_Node000003_Node000004"><a xlink:title=" ">
<path fill="none" stroke="#63b8ff" d="M860.48,-271.98C839.43,-272.59 814.33,-273.33 792.18,-273.97"/>
<polygon fill="#63b8ff" stroke="#63b8ff" points="860.3,-275.48 870.19,-271.69 860.1,-268.49 860.3,-275.48"/>
</a>
</g>
</g>
<!-- Node5 -->
<g id="Node000005" class="node">
<title>Node5</title>
<g id="a_Node000005"><a xlink:href="../../d2/dff/openapi_8blk.html#a02e859879d378502e6c7bb3b2ac8bd18" target="_top" xlink:title=" ">
<polygon fill="white" stroke="#666666" points="590.5,-282.25 513.75,-282.25 513.75,-263 590.5,-263 590.5,-282.25"/>
<text text-anchor="middle" x="552.12" y="-268.75" font-family="Helvetica,sans-Serif" font-size="10.00">t_iop_rpc_add</text>
</a>
</g>
</g>
<!-- Node4&#45;&gt;Node5 -->
<g id="edge4_Node000004_Node000005" class="edge">
<title>Node4&#45;&gt;Node5</title>
<g id="a_edge4_Node000004_Node000005"><a xlink:title=" ">
<path fill="none" stroke="#63b8ff" d="M665.57,-274.49C640.21,-274.07 612.37,-273.61 590.73,-273.25"/>
<polygon fill="#63b8ff" stroke="#63b8ff" points="665.44,-277.99 675.5,-274.66 665.56,-270.99 665.44,-277.99"/>
</a>
</g>
</g>
<!-- Node5&#45;&gt;Node6 -->
<g id="edge5_Node000005_Node000006" class="edge">
<title>Node5&#45;&gt;Node6</title>
<g id="a_edge5_Node000005_Node000006"><a xlink:title=" ">
<path fill="none" stroke="#63b8ff" d="M502.06,-266.87C481.06,-264.4 456.47,-261.51 434.94,-258.99"/>
<polygon fill="#63b8ff" stroke="#63b8ff" points="501.47,-270.32 511.81,-268.01 502.29,-263.37 501.47,-270.32"/>
</a>
</g>
</g>
<!-- Node7 -->
<g id="Node000007" class="node">
<title>Node7</title>
<g id="a_Node000007"><a xlink:href="../../d2/dff/openapi_8blk.html#ae6d553f1cd1eb8ddfc04985a19f5c88e" target="_top" xlink:title=" ">
<polygon fill="white" stroke="#666666" points="256.25,-262.25 174.25,-262.25 174.25,-243 256.25,-243 256.25,-262.25"/>
<text text-anchor="middle" x="215.25" y="-248.75" font-family="Helvetica,sans-Serif" font-size="10.00">t_iop_mod_add</text>
</a>
</g>
</g>
<!-- Node6&#45;&gt;Node7 -->
<g id="edge6_Node000006_Node000007" class="edge">
<title>Node6&#45;&gt;Node7</title>
<g id="a_edge6_Node000006_Node000007"><a xlink:title=" ">
<path fill="none" stroke="#63b8ff" d="M313.2,-252.62C294.02,-252.62 273.62,-252.62 256.5,-252.62"/>
<polygon fill="#63b8ff" stroke="#63b8ff" points="313.13,-256.13 323.13,-252.63 313.13,-249.13 313.13,-256.13"/>
</a>
</g>
</g>
<!-- Node8 -->
<g id="Node000008" class="node">
<title>Node8</title>
<g id="a_Node000008"><a xlink:href="../../d2/dff/openapi_8blk.html#a64d93529939f39a5b056b7343ea90b83" target="_top" xlink:title=" ">
<polygon fill="white" stroke="#666666" points="115,-262.25 0,-262.25 0,-243 115,-243 115,-262.25"/>
<text text-anchor="middle" x="57.5" y="-248.75" font-family="Helvetica,sans-Serif" font-size="10.00">t_iop_openapi_to_yaml</text>
</a>
</g>
</g>
<!-- Node7&#45;&gt;Node8 -->
<g id="edge7_Node000007_Node000008" class="edge">
<title>Node7&#45;&gt;Node8</title>
<g id="a_edge7_Node000007_Node000008"><a xlink:title=" ">
<path fill="none" stroke="#63b8ff" d="M162.88,-252.62C147.7,-252.62 131,-252.62 115.5,-252.62"/>
<polygon fill="#63b8ff" stroke="#63b8ff" points="162.63,-256.13 172.63,-252.63 162.63,-249.13 162.63,-256.13"/>
</a>
</g>
</g>
<!-- Node10 -->
<g id="Node000010" class="node">
<title>Node10</title>
<g id="a_Node000010"><a xlink:href="../../da/d15/json_8blk.html#a68103aa829ca5aede6ec6a04771f4972" target="_top" xlink:title=" ">
<polygon fill="white" stroke="#666666" points="809,-204.25 660.25,-204.25 660.25,-185 809,-185 809,-204.25"/>
<text text-anchor="middle" x="734.62" y="-190.75" font-family="Helvetica,sans-Serif" font-size="10.00">iop_check_package_examples</text>
</a>
</g>
</g>
<!-- Node9&#45;&gt;Node10 -->
<g id="edge9_Node000009_Node000010" class="edge">
<title>Node9&#45;&gt;Node10</title>
<g id="a_edge9_Node000009_Node000010"><a xlink:title=" ">
<path fill="none" stroke="#63b8ff" d="M833.68,-194.62C825.59,-194.62 817.36,-194.62 809.27,-194.62"/>
<polygon fill="#63b8ff" stroke="#63b8ff" points="833.46,-198.13 843.46,-194.63 833.46,-191.13 833.46,-198.13"/>
</a>
</g>
</g>
<!-- Node12 -->
<g id="Node000012" class="node">
<title>Node12</title>
<g id="a_Node000012"><a xlink:href="../../d0/d2d/iop_8blk.html#a2428a24f3309a85182f7128c16710b61" target="_top" xlink:title=" ">
<polygon fill="white" stroke="#666666" points="795.5,-167.25 673.75,-167.25 673.75,-148 795.5,-148 795.5,-167.25"/>
<text text-anchor="middle" x="734.62" y="-153.75" font-family="Helvetica,sans-Serif" font-size="10.00">iop_rpc_compat_ignored</text>
</a>
</g>
</g>
<!-- Node11&#45;&gt;Node12 -->
<g id="edge11_Node000011_Node000012" class="edge">
<title>Node11&#45;&gt;Node12</title>
<g id="a_edge11_Node000011_Node000012"><a xlink:title=" ">
<path fill="none" stroke="#63b8ff" d="M842.56,-157.62C827.29,-157.62 811.06,-157.62 795.97,-157.62"/>
<polygon fill="#63b8ff" stroke="#63b8ff" points="842.5,-161.13 852.5,-157.63 842.5,-154.13 842.5,-161.13"/>
</a>
</g>
</g>
<!-- Node13 -->
<g id="Node000013" class="node">
<title>Node13</title>
<g id="a_Node000013"><a xlink:href="../../d0/d2d/iop_8blk.html#a3c26404309bbb16df331056718089b2e" target="_top" xlink:title=" ">
<polygon fill="white" stroke="#666666" points="624.25,-172.88 480,-172.88 480,-142.38 624.25,-142.38 624.25,-172.88"/>
<text text-anchor="start" x="488" y="-159.38" font-family="Helvetica,sans-Serif" font-size="10.00">__iop_iface_check_backward</text>
<text text-anchor="middle" x="552.12" y="-148.12" font-family="Helvetica,sans-Serif" font-size="10.00">_compat</text>
</a>
</g>
</g>
<!-- Node12&#45;&gt;Node13 -->
<g id="edge12_Node000012_Node000013" class="edge">
<title>Node12&#45;&gt;Node13</title>
<g id="a_edge12_Node000012_Node000013"><a xlink:title=" ">
<path fill="none" stroke="#63b8ff" d="M662.12,-157.62C649.81,-157.62 637,-157.62 624.69,-157.62"/>
<polygon fill="#63b8ff" stroke="#63b8ff" points="661.76,-161.13 671.76,-157.63 661.76,-154.13 661.76,-161.13"/>
</a>
</g>
</g>
<!-- Node14 -->
<g id="Node000014" class="node">
<title>Node14</title>
<g id="a_Node000014"><a xlink:href="../../d0/d2d/iop_8blk.html#af45331e2100a323fdbc4fa29909bb1a6" target="_top" xlink:title=" ">
<polygon fill="white" stroke="#666666" points="444,-172.88 315.5,-172.88 315.5,-142.38 444,-142.38 444,-172.88"/>
<text text-anchor="start" x="323.5" y="-159.38" font-family="Helvetica,sans-Serif" font-size="10.00">iop_pkg_check_backward</text>
<text text-anchor="middle" x="379.75" y="-148.12" font-family="Helvetica,sans-Serif" font-size="10.00">_compat_ctx</text>
</a>
</g>
</g>
<!-- Node13&#45;&gt;Node14 -->
<g id="edge13_Node000013_Node000014" class="edge">
<title>Node13&#45;&gt;Node14</title>
<g id="a_edge13_Node000013_Node000014"><a xlink:title=" ">
<path fill="none" stroke="#63b8ff" d="M468.47,-157.62C460.38,-157.62 452.26,-157.62 444.41,-157.62"/>
<polygon fill="#63b8ff" stroke="#63b8ff" points="468.34,-161.13 478.34,-157.63 468.34,-154.13 468.34,-161.13"/>
</a>
</g>
</g>
<!-- Node15 -->
<g id="Node000015" class="node">
<title>Node15</title>
<g id="a_Node000015"><a xlink:href="../../d0/d2d/iop_8blk.html#a0de6208fbcfcc10c3efc984954af427a" target="_top" xlink:title=" ">
<polygon fill="white" stroke="#666666" points="279.5,-172.88 151,-172.88 151,-142.38 279.5,-142.38 279.5,-172.88"/>
<text text-anchor="start" x="159" y="-159.38" font-family="Helvetica,sans-Serif" font-size="10.00">iop_pkg_check_backward</text>
<text text-anchor="middle" x="215.25" y="-148.12" font-family="Helvetica,sans-Serif" font-size="10.00">_compat</text>
</a>
</g>
</g>
<!-- Node14&#45;&gt;Node15 -->
<g id="edge14_Node000014_Node000015" class="edge">
<title>Node14&#45;&gt;Node15</title>
<g id="a_edge14_Node000014_Node000015"><a xlink:title=" ">
<path fill="none" stroke="#63b8ff" d="M304.11,-157.62C296.02,-157.62 287.85,-157.62 279.9,-157.62"/>
<polygon fill="#63b8ff" stroke="#63b8ff" points="303.94,-161.13 313.94,-157.63 303.94,-154.13 303.94,-161.13"/>
</a>
</g>
</g>
<!-- Node17 -->
<g id="Node000017" class="node">
<title>Node17</title>
<g id="a_Node000017"><a xlink:href="../../dd/dfb/xml-wsdl_8blk.html#a51e9df738f9dd2b8e4bc1453fea4f664" target="_top" xlink:title=" ">
<polygon fill="white" stroke="#666666" points="794,-130.25 675.25,-130.25 675.25,-111 794,-111 794,-130.25"/>
<text text-anchor="middle" x="734.62" y="-116.75" font-family="Helvetica,sans-Serif" font-size="10.00">iop_xwsdl_put_bindings</text>
</a>
</g>
</g>
<!-- Node16&#45;&gt;Node17 -->
<g id="edge16_Node000016_Node000017" class="edge">
<title>Node16&#45;&gt;Node17</title>
<g id="a_edge16_Node000016_Node000017"><a xlink:title=" ">
<path fill="none" stroke="#63b8ff" d="M848.93,-96.13C827.24,-100.82 802.88,-106.08 782.33,-110.53"/>
<polygon fill="#63b8ff" stroke="#63b8ff" points="849.48,-99.59 858.51,-94.06 848,-92.75 849.48,-99.59"/>
</a>
</g>
</g>
<!-- Node19 -->
<g id="Node000019" class="node">
<title>Node19</title>
<g id="a_Node000019"><a xlink:href="../../dd/dfb/xml-wsdl_8blk.html#aa0a30f478921f37aa64effdeb30b2ece" target="_top" xlink:title=" ">
<polygon fill="white" stroke="#666666" points="788,-93.25 681.25,-93.25 681.25,-74 788,-74 788,-93.25"/>
<text text-anchor="middle" x="734.62" y="-79.75" font-family="Helvetica,sans-Serif" font-size="10.00">iop_xwsdl_put_msgs</text>
</a>
</g>
</g>
<!-- Node16&#45;&gt;Node19 -->
<g id="edge18_Node000016_Node000019" class="edge">
<title>Node16&#45;&gt;Node19</title>
<g id="a_edge18_Node000016_Node000019"><a xlink:title=" ">
<path fill="none" stroke="#63b8ff" d="M845.81,-83.62C827.01,-83.62 806.48,-83.62 788.29,-83.62"/>
<polygon fill="#63b8ff" stroke="#63b8ff" points="845.74,-87.13 855.74,-83.63 845.74,-80.13 845.74,-87.13"/>
</a>
</g>
</g>
<!-- Node20 -->
<g id="Node000020" class="node">
<title>Node20</title>
<g id="a_Node000020"><a xlink:href="../../dd/dfb/xml-wsdl_8blk.html#a6644f48c197e7e7f38b6f0c14912f632" target="_top" xlink:title=" ">
<polygon fill="white" stroke="#666666" points="786.88,-56.25 682.38,-56.25 682.38,-37 786.88,-37 786.88,-56.25"/>
<text text-anchor="middle" x="734.62" y="-42.75" font-family="Helvetica,sans-Serif" font-size="10.00">iop_xwsdl_put_ports</text>
</a>
</g>
</g>
<!-- Node16&#45;&gt;Node20 -->
<g id="edge20_Node000016_Node000020" class="edge">
<title>Node16&#45;&gt;Node20</title>
<g id="a_edge20_Node000016_Node000020"><a xlink:title=" ">
<path fill="none" stroke="#63b8ff" d="M848.93,-71.12C827.24,-66.43 802.88,-61.17 782.33,-56.72"/>
<polygon fill="#63b8ff" stroke="#63b8ff" points="848,-74.5 858.51,-73.19 849.48,-67.66 848,-74.5"/>
</a>
</g>
</g>
<!-- Node21 -->
<g id="Node000021" class="node">
<title>Node21</title>
<g id="a_Node000021"><a xlink:href="../../dd/dfb/xml-wsdl_8blk.html#a11e34fabf17b2da949fcf7b80a000a72" target="_top" xlink:title=" ">
<polygon fill="white" stroke="#666666" points="787.62,-19.25 681.62,-19.25 681.62,0 787.62,0 787.62,-19.25"/>
<text text-anchor="middle" x="734.62" y="-5.75" font-family="Helvetica,sans-Serif" font-size="10.00">iop_xwsdl_put_types</text>
</a>
</g>
</g>
<!-- Node16&#45;&gt;Node21 -->
<g id="edge22_Node000016_Node000021" class="edge">
<title>Node16&#45;&gt;Node21</title>
<g id="a_edge22_Node000016_Node000021"><a xlink:title=" ">
<path fill="none" stroke="#63b8ff" d="M882.72,-67.31C863.5,-54.9 835.48,-38.21 809,-27.62 801.33,-24.56 792.99,-21.91 784.77,-19.66"/>
<polygon fill="#63b8ff" stroke="#63b8ff" points="880.63,-70.13 890.91,-72.7 884.48,-64.28 880.63,-70.13"/>
</a>
</g>
</g>
<!-- Node18 -->
<g id="Node000018" class="node">
<title>Node18</title>
<g id="a_Node000018"><a xlink:href="../../dd/dfb/xml-wsdl_8blk.html#a1e1c4ce12aa0b7bf8bfec4c608c634d9" target="_top" xlink:title=" ">
<polygon fill="white" stroke="#666666" points="581.5,-75.25 522.75,-75.25 522.75,-56 581.5,-56 581.5,-75.25"/>
<text text-anchor="middle" x="552.12" y="-61.75" font-family="Helvetica,sans-Serif" font-size="10.00">iop_xwsdl</text>
</a>
</g>
</g>
<!-- Node17&#45;&gt;Node18 -->
<g id="edge17_Node000017_Node000018" class="edge">
<title>Node17&#45;&gt;Node18</title>
<g id="a_edge17_Node000017_Node000018"><a xlink:title=" ">
<path fill="none" stroke="#63b8ff" d="M678.54,-107.69C672.35,-106.07 666.15,-104.36 660.25,-102.62 632.51,-94.45 601.3,-83.46 579.76,-75.59"/>
<polygon fill="#63b8ff" stroke="#63b8ff" points="677.58,-111.06 688.14,-110.15 679.32,-104.28 677.58,-111.06"/>
</a>
</g>
</g>
<!-- Node19&#45;&gt;Node18 -->
<g id="edge19_Node000019_Node000018" class="edge">
<title>Node19&#45;&gt;Node18</title>
<g id="a_edge19_Node000019_Node000018"><a xlink:title=" ">
<path fill="none" stroke="#63b8ff" d="M669.66,-77.25C639.64,-74.25 605.36,-70.83 581.79,-68.48"/>
<polygon fill="#63b8ff" stroke="#63b8ff" points="669.13,-80.71 679.43,-78.22 669.82,-73.74 669.13,-80.71"/>
</a>
</g>
</g>
<!-- Node20&#45;&gt;Node18 -->
<g id="edge21_Node000020_Node000018" class="edge">
<title>Node20&#45;&gt;Node18</title>
<g id="a_edge21_Node000020_Node000018"><a xlink:title=" ">
<path fill="none" stroke="#63b8ff" d="M670.57,-53.26C640.35,-56.44 605.65,-60.1 581.84,-62.6"/>
<polygon fill="#63b8ff" stroke="#63b8ff" points="670.82,-56.76 680.4,-52.23 670.08,-49.79 670.82,-56.76"/>
</a>
</g>
</g>
<!-- Node21&#45;&gt;Node18 -->
<g id="edge23_Node000021_Node000018" class="edge">
<title>Node21&#45;&gt;Node18</title>
<g id="a_edge23_Node000021_Node000018"><a xlink:title=" ">
<path fill="none" stroke="#63b8ff" d="M678.52,-22.51C672.33,-24.14 666.14,-25.86 660.25,-27.62 632.27,-36 600.84,-47.39 579.3,-55.51"/>
<polygon fill="#63b8ff" stroke="#63b8ff" points="679.31,-25.92 688.12,-20.04 677.56,-19.14 679.31,-25.92"/>
</a>
</g>
</g>
</g>
</svg>
