<?xml version="1.0" encoding="UTF-8" standalone="no"?>
<!DOCTYPE svg PUBLIC "-//W3C//DTD SVG 1.1//EN"
 "http://www.w3.org/Graphics/SVG/1.1/DTD/svg11.dtd">
<!-- Generated by graphviz version 9.0.0 (20230911.1827)
 -->
<!-- Title: bs_init Pages: 1 -->
<!--zoomable 424 -->

<svg id="main" version="1.1" xmlns="http://www.w3.org/2000/svg" xmlns:xlink="http://www.w3.org/1999/xlink" xml:space="preserve" onload="init(evt)">
<style type="text/css"><![CDATA[
.node, .edge {opacity: 0.7;}
.node.selected, .edge.selected {opacity: 1;}
.edge:hover path { stroke: red; }
.edge:hover polygon { stroke: red; fill: red; }
]]></style>

<defs>
  <circle id="rim" cx="0" cy="0" r="7"/>
  <circle id="rim2" cx="0" cy="0" r="3.5"/>
  <g id="zoomPlus">
    <use xlink:href="#rim" fill="#404040"><set attributeName="fill" to="#808080" begin="zoomplus.mouseover" end="zoomplus.mouseout"/></use>
    <path d="M-4,0h8M0,-4v8" fill="none" stroke="white" stroke-width="1.5" pointer-events="none"/>
  </g>
  <g id="zoomMin">
    <use xlink:href="#rim" fill="#404040"><set attributeName="fill" to="#808080" begin="zoomminus.mouseover" end="zoomminus.mouseout"/></use>
    <path d="M-4,0h8" fill="none" stroke="white" stroke-width="1.5" pointer-events="none"/>
  </g>
  <g id="arrowUp" transform="translate(30 24)">
    <use xlink:href="#rim"/>
    <path pointer-events="none" fill="none" stroke="white" stroke-width="1.5" d="M0,-3.0v7 M-2.5,-0.5L0,-3.0L2.5,-0.5"/>
  </g>
  <g id="arrowRight" transform="rotate(90) translate(36 -43)">
    <use xlink:href="#rim"/>
    <path pointer-events="none" fill="none" stroke="white" stroke-width="1.5" d="M0,-3.0v7 M-2.5,-0.5L0,-3.0L2.5,-0.5"/>
  </g>
  <g id="arrowDown" transform="rotate(180) translate(-30 -48)">
    <use xlink:href="#rim"/>
    <path pointer-events="none" fill="none" stroke="white" stroke-width="1.5" d="M0,-3.0v7 M-2.5,-0.5L0,-3.0L2.5,-0.5"/>
  </g>
  <g id="arrowLeft" transform="rotate(270) translate(-36 17)">
    <use xlink:href="#rim"/>
    <path pointer-events="none" fill="none" stroke="white" stroke-width="1.5" d="M0,-3.0v7 M-2.5,-0.5L0,-3.0L2.5,-0.5"/>
  </g>
  <g id="resetDef">
    <use xlink:href="#rim2" fill="#404040"><set attributeName="fill" to="#808080" begin="reset.mouseover" end="reset.mouseout"/></use>
  </g>
</defs>
<script type="application/ecmascript">
var viewWidth = 1132;
var viewHeight = 424;
var sectionId = 'dynsection-75';
</script>
<script type="application/ecmascript" xlink:href="../../svg.min.js"/>
<svg id="graph" class="graph">
<g id="viewport">
<title>bs_init</title>
<!-- Node1 -->
<g id="Node000001" class="node">
<title>Node1</title>
<g id="a_Node000001"><a xlink:title=" ">
<polygon fill="#999999" stroke="#666666" points="1124,-219.25 1079.5,-219.25 1079.5,-200 1124,-200 1124,-219.25"/>
<text text-anchor="middle" x="1101.75" y="-205.75" font-family="Helvetica,sans-Serif" font-size="10.00">bs_init</text>
</a>
</g>
</g>
<!-- Node2 -->
<g id="Node000002" class="node">
<title>Node2</title>
<g id="a_Node000002"><a xlink:href="../../db/dfd/per_8c.html#ad3b0583c9c02aedb639455233a531a95" target="_top" xlink:title=" ">
<polygon fill="white" stroke="#666666" points="1043.5,-332.25 927,-332.25 927,-313 1043.5,-313 1043.5,-332.25"/>
<text text-anchor="middle" x="985.25" y="-318.75" font-family="Helvetica,sans-Serif" font-size="10.00">aper_encode_bit_string</text>
</a>
</g>
</g>
<!-- Node1&#45;&gt;Node2 -->
<g id="edge1_Node000001_Node000002" class="edge">
<title>Node1&#45;&gt;Node2</title>
<g id="a_edge1_Node000001_Node000002"><a xlink:title=" ">
<path fill="none" stroke="#63b8ff" d="M1082.81,-227.56C1071.55,-238.81 1056.71,-253.59 1043.5,-266.62 1027.07,-282.84 1007.88,-301.57 996.41,-312.74"/>
<polygon fill="#63b8ff" stroke="#63b8ff" points="1084.97,-230.36 1089.57,-220.81 1080.02,-225.4 1084.97,-230.36"/>
</a>
</g>
</g>
<!-- Node11 -->
<g id="Node000011" class="node">
<title>Node11</title>
<g id="a_Node000011"><a xlink:href="../../d8/d1b/bit-stream_8h.html#a3a35f809b8fe67c049455d1263cf5b54" target="_top" xlink:title=" ">
<polygon fill="white" stroke="#666666" points="1015.38,-257.25 955.12,-257.25 955.12,-238 1015.38,-238 1015.38,-257.25"/>
<text text-anchor="middle" x="985.25" y="-243.75" font-family="Helvetica,sans-Serif" font-size="10.00">bs_init_bb</text>
</a>
</g>
</g>
<!-- Node1&#45;&gt;Node11 -->
<g id="edge13_Node000001_Node000011" class="edge">
<title>Node1&#45;&gt;Node11</title>
<g id="a_edge13_Node000001_Node000011"><a xlink:title=" ">
<path fill="none" stroke="#63b8ff" d="M1068.35,-220.38C1051.72,-225.9 1031.62,-232.57 1015.47,-237.93"/>
<polygon fill="#63b8ff" stroke="#63b8ff" points="1069.39,-223.72 1077.78,-217.25 1067.18,-217.08 1069.39,-223.72"/>
</a>
</g>
</g>
<!-- Node13 -->
<g id="Node000013" class="node">
<title>Node13</title>
<g id="a_Node000013"><a xlink:href="../../d2/d6f/bit-buf_8c.html#af31a575e22f67942b78c9ef715ca77c3" target="_top" xlink:title=" ">
<polygon fill="white" stroke="#666666" points="731.38,-219.25 623.12,-219.25 623.12,-200 731.38,-200 731.38,-219.25"/>
<text text-anchor="middle" x="677.25" y="-205.75" font-family="Helvetica,sans-Serif" font-size="10.00">Z_GROUP_EXPORT</text>
</a>
</g>
</g>
<!-- Node1&#45;&gt;Node13 -->
<g id="edge32_Node000001_Node000013" class="edge">
<title>Node1&#45;&gt;Node13</title>
<g id="a_edge32_Node000001_Node000013"><a xlink:title=" ">
<path fill="none" stroke="#63b8ff" d="M1067.99,-204.38C1009.44,-195.75 883.01,-180.47 776.75,-190.62 758.37,-192.38 738.33,-195.94 721.14,-199.51"/>
<polygon fill="#63b8ff" stroke="#63b8ff" points="1067.19,-207.8 1077.6,-205.83 1068.23,-200.88 1067.19,-207.8"/>
</a>
</g>
</g>
<!-- Node16 -->
<g id="Node000016" class="node">
<title>Node16</title>
<g id="a_Node000016"><a xlink:href="../../db/dfd/per_8c.html#adedfcb81b5e27cfaa3679c443107fd60" target="_top" xlink:title=" ">
<polygon fill="white" stroke="#666666" points="1036.38,-105.25 934.12,-105.25 934.12,-86 1036.38,-86 1036.38,-105.25"/>
<text text-anchor="middle" x="985.25" y="-91.75" font-family="Helvetica,sans-Serif" font-size="10.00">t_aper_decode_field</text>
</a>
</g>
</g>
<!-- Node1&#45;&gt;Node16 -->
<g id="edge21_Node000001_Node000016" class="edge">
<title>Node1&#45;&gt;Node16</title>
<g id="a_edge21_Node000001_Node000016"><a xlink:title=" ">
<path fill="none" stroke="#63b8ff" d="M1082.47,-191.43C1058.01,-167.07 1015.48,-124.72 996.22,-105.56"/>
<polygon fill="#63b8ff" stroke="#63b8ff" points="1079.96,-193.87 1089.52,-198.44 1084.9,-188.9 1079.96,-193.87"/>
</a>
</g>
</g>
<!-- Node3 -->
<g id="Node000003" class="node">
<title>Node3</title>
<g id="a_Node000003"><a xlink:href="../../db/dfd/per_8c.html#a679b17fc67fbf715cd08f770da4462e6" target="_top" xlink:title=" ">
<polygon fill="white" stroke="#666666" points="883.88,-371.25 783.88,-371.25 783.88,-352 883.88,-352 883.88,-371.25"/>
<text text-anchor="middle" x="833.88" y="-357.75" font-family="Helvetica,sans-Serif" font-size="10.00">aper_encode_value</text>
</a>
</g>
</g>
<!-- Node2&#45;&gt;Node3 -->
<g id="edge2_Node000002_Node000003" class="edge">
<title>Node2&#45;&gt;Node3</title>
<g id="a_edge2_Node000002_Node000003"><a xlink:title=" ">
<path fill="none" stroke="#63b8ff" d="M934.72,-335.56C914.79,-340.76 892.15,-346.67 873.47,-351.55"/>
<polygon fill="#63b8ff" stroke="#63b8ff" points="935.53,-338.96 944.32,-333.05 933.76,-332.19 935.53,-338.96"/>
</a>
</g>
</g>
<!-- Node4 -->
<g id="Node000004" class="node">
<title>Node4</title>
<g id="a_Node000004"><a xlink:href="../../db/dfd/per_8c.html#ab6de48db5c07b39f755306539063d4dc" target="_top" xlink:title=" ">
<polygon fill="white" stroke="#666666" points="724.25,-371.25 630.25,-371.25 630.25,-352 724.25,-352 724.25,-371.25"/>
<text text-anchor="middle" x="677.25" y="-357.75" font-family="Helvetica,sans-Serif" font-size="10.00">aper_encode_field</text>
</a>
</g>
</g>
<!-- Node3&#45;&gt;Node4 -->
<g id="edge3_Node000003_Node000004" class="edge">
<title>Node3&#45;&gt;Node4</title>
<g id="a_edge3_Node000003_Node000004"><a xlink:title=" ">
<path fill="none" stroke="#63b8ff" d="M772.19,-361.62C756.33,-361.62 739.48,-361.62 724.5,-361.62"/>
<polygon fill="#63b8ff" stroke="#63b8ff" points="772.01,-365.13 782.01,-361.63 772.01,-358.13 772.01,-365.13"/>
</a>
</g>
</g>
<!-- Node5 -->
<g id="Node000005" class="node">
<title>Node5</title>
<g id="a_Node000005"><a xlink:href="../../db/dfd/per_8c.html#a380c07d1a13af3eeb62497bf05d7e155" target="_top" xlink:title=" ">
<polygon fill="white" stroke="#666666" points="404.25,-394.25 299,-394.25 299,-375 404.25,-375 404.25,-394.25"/>
<text text-anchor="middle" x="351.62" y="-380.75" font-family="Helvetica,sans-Serif" font-size="10.00">aper_encode_choice</text>
</a>
</g>
</g>
<!-- Node4&#45;&gt;Node5 -->
<g id="edge4_Node000004_Node000005" class="edge">
<title>Node4&#45;&gt;Node5</title>
<g id="a_edge4_Node000004_Node000005"><a xlink:title=" ">
<path fill="none" stroke="#63b8ff" d="M618.58,-365.72C557.82,-370.04 463.02,-376.78 404.53,-380.94"/>
<polygon fill="#63b8ff" stroke="#63b8ff" points="618.65,-369.23 628.37,-365.03 618.15,-362.25 618.65,-369.23"/>
</a>
</g>
</g>
<!-- Node8 -->
<g id="Node000008" class="node">
<title>Node8</title>
<g id="a_Node000008"><a xlink:href="../../db/dfd/per_8c.html#ab6faf232bcb6b3144036345fc39a00bb" target="_top" xlink:title=" ">
<polygon fill="white" stroke="#666666" points="562.75,-359.88 456.75,-359.88 456.75,-329.38 562.75,-329.38 562.75,-359.88"/>
<text text-anchor="start" x="464.75" y="-346.38" font-family="Helvetica,sans-Serif" font-size="10.00">aper_encode_seq_of</text>
<text text-anchor="middle" x="509.75" y="-335.12" font-family="Helvetica,sans-Serif" font-size="10.00">_field</text>
</a>
</g>
</g>
<!-- Node4&#45;&gt;Node8 -->
<g id="edge8_Node000004_Node000008" class="edge">
<title>Node4&#45;&gt;Node8</title>
<g id="a_edge8_Node000004_Node000008"><a xlink:title=" ">
<path fill="none" stroke="#63b8ff" d="M618.83,-355.73C600.7,-353.86 580.77,-351.82 563.02,-349.99"/>
<polygon fill="#63b8ff" stroke="#63b8ff" points="618.34,-359.19 628.64,-356.73 619.05,-352.23 618.34,-359.19"/>
</a>
</g>
</g>
<!-- Node10 -->
<g id="Node000010" class="node">
<title>Node10</title>
<g id="a_Node000010"><a xlink:href="../../db/dfd/per_8c.html#a01b64aad1770f099346fb48f1152123f" target="_top" xlink:title=" ">
<polygon fill="white" stroke="#666666" points="569.12,-311.25 450.38,-311.25 450.38,-292 569.12,-292 569.12,-311.25"/>
<text text-anchor="middle" x="509.75" y="-297.75" font-family="Helvetica,sans-Serif" font-size="10.00">aper_encode_sequence</text>
</a>
</g>
</g>
<!-- Node4&#45;&gt;Node10 -->
<g id="edge11_Node000004_Node000010" class="edge">
<title>Node4&#45;&gt;Node10</title>
<g id="a_edge11_Node000004_Node000010"><a xlink:title=" ">
<path fill="none" stroke="#63b8ff" d="M638.02,-347.46C629.96,-344.33 621.54,-340.95 613.75,-337.62 597.48,-330.67 594.32,-326.84 577.75,-320.62 569.03,-317.36 559.5,-314.33 550.43,-311.71"/>
<polygon fill="#63b8ff" stroke="#63b8ff" points="636.69,-350.7 647.28,-351.01 639.19,-344.16 636.69,-350.7"/>
</a>
</g>
</g>
<!-- Node6 -->
<g id="Node000006" class="node">
<title>Node6</title>
<g id="a_Node000006"><a xlink:href="../../db/dfd/per_8c.html#a6bc628aaed9f4e1590870ef572e05fc9" target="_top" xlink:title=" ">
<polygon fill="white" stroke="#666666" points="261.5,-375.25 133.75,-375.25 133.75,-356 261.5,-356 261.5,-375.25"/>
<text text-anchor="middle" x="197.62" y="-361.75" font-family="Helvetica,sans-Serif" font-size="10.00">aper_encode_constructed</text>
</a>
</g>
</g>
<!-- Node5&#45;&gt;Node6 -->
<g id="edge5_Node000005_Node000006" class="edge">
<title>Node5&#45;&gt;Node6</title>
<g id="a_edge5_Node000005_Node000006"><a xlink:title=" ">
<path fill="none" stroke="#63b8ff" d="M287.4,-376.72C278.95,-375.67 270.29,-374.58 261.84,-373.53"/>
<polygon fill="#63b8ff" stroke="#63b8ff" points="286.88,-380.18 297.24,-377.95 287.75,-373.24 286.88,-380.18"/>
</a>
</g>
</g>
<!-- Node6&#45;&gt;Node3 -->
<g id="edge7_Node000006_Node000003" class="edge">
<title>Node6&#45;&gt;Node3</title>
<g id="a_edge7_Node000006_Node000003"><a xlink:title=" ">
<path fill="none" stroke="#63b8ff" d="M228.64,-380.48C247.82,-389.13 273.51,-399.17 297.5,-403.62 480.61,-437.6 703.92,-392.98 793.21,-371.74"/>
<polygon fill="#63b8ff" stroke="#63b8ff" points="230.36,-377.42 219.81,-376.38 227.41,-383.77 230.36,-377.42"/>
</a>
</g>
</g>
<!-- Node7 -->
<g id="Node000007" class="node">
<title>Node7</title>
<g id="a_Node000007"><a xlink:href="../../db/dfd/per_8c.html#a810ff2f8052e07179fb09eaa4a8a08c3" target="_top" xlink:title=" ">
<polygon fill="white" stroke="#666666" points="97.75,-375.25 0,-375.25 0,-356 97.75,-356 97.75,-375.25"/>
<text text-anchor="middle" x="48.88" y="-361.75" font-family="Helvetica,sans-Serif" font-size="10.00">aper_encode_desc</text>
</a>
</g>
</g>
<!-- Node6&#45;&gt;Node7 -->
<g id="edge6_Node000006_Node000007" class="edge">
<title>Node6&#45;&gt;Node7</title>
<g id="a_edge6_Node000006_Node000007"><a xlink:title=" ">
<path fill="none" stroke="#63b8ff" d="M122.25,-365.62C113.96,-365.62 105.68,-365.62 97.84,-365.62"/>
<polygon fill="#63b8ff" stroke="#63b8ff" points="122.02,-369.13 132.02,-365.63 122.02,-362.13 122.02,-369.13"/>
</a>
</g>
</g>
<!-- Node9 -->
<g id="Node000009" class="node">
<title>Node9</title>
<g id="a_Node000009"><a xlink:href="../../db/dfd/per_8c.html#a180d7a6d7cc1dc66a66956730f88f418" target="_top" xlink:title=" ">
<polygon fill="white" stroke="#666666" points="404.62,-355.25 298.62,-355.25 298.62,-336 404.62,-336 404.62,-355.25"/>
<text text-anchor="middle" x="351.62" y="-341.75" font-family="Helvetica,sans-Serif" font-size="10.00">aper_encode_seq_of</text>
</a>
</g>
</g>
<!-- Node8&#45;&gt;Node9 -->
<g id="edge9_Node000008_Node000009" class="edge">
<title>Node8&#45;&gt;Node9</title>
<g id="a_edge9_Node000008_Node000009"><a xlink:title=" ">
<path fill="none" stroke="#63b8ff" d="M444.84,-345.03C431.56,-345.12 417.71,-345.21 404.91,-345.29"/>
<polygon fill="#63b8ff" stroke="#63b8ff" points="444.84,-348.53 454.81,-344.97 444.79,-341.53 444.84,-348.53"/>
</a>
</g>
</g>
<!-- Node9&#45;&gt;Node6 -->
<g id="edge10_Node000009_Node000006" class="edge">
<title>Node9&#45;&gt;Node6</title>
<g id="a_edge10_Node000009_Node000006"><a xlink:title=" ">
<path fill="none" stroke="#63b8ff" d="M287.08,-353.99C278.72,-355.09 270.15,-356.21 261.79,-357.31"/>
<polygon fill="#63b8ff" stroke="#63b8ff" points="287.36,-357.48 296.81,-352.71 286.44,-350.54 287.36,-357.48"/>
</a>
</g>
</g>
<!-- Node10&#45;&gt;Node6 -->
<g id="edge12_Node000010_Node000006" class="edge">
<title>Node10&#45;&gt;Node6</title>
<g id="a_edge12_Node000010_Node000006"><a xlink:title=" ">
<path fill="none" stroke="#63b8ff" d="M438.8,-305.36C397.26,-308.7 343.82,-314.96 297.5,-326.62 269.59,-333.66 238.98,-346.6 219.32,-355.64"/>
<polygon fill="#63b8ff" stroke="#63b8ff" points="438.97,-308.86 448.68,-304.61 438.44,-301.88 438.97,-308.86"/>
</a>
</g>
</g>
<!-- Node11&#45;&gt;Node10 -->
<g id="edge14_Node000011_Node000010" class="edge">
<title>Node11&#45;&gt;Node10</title>
<g id="a_edge14_Node000011_Node000010"><a xlink:title=" ">
<path fill="none" stroke="#63b8ff" d="M963.66,-264.74C945.73,-278.47 918.38,-296.72 891,-304.62 779.21,-336.89 641.11,-323.31 565.92,-311.71"/>
<polygon fill="#63b8ff" stroke="#63b8ff" points="965.74,-267.56 971.41,-258.61 961.39,-262.07 965.74,-267.56"/>
</a>
</g>
</g>
<!-- Node12 -->
<g id="Node000012" class="node">
<title>Node12</title>
<g id="a_Node000012"><a xlink:href="../../d2/d6f/bit-buf_8c.html#acc21345394ce100ebabd9220be839f58" target="_top" xlink:title=" ">
<polygon fill="white" stroke="#666666" points="863.25,-219.25 804.5,-219.25 804.5,-200 863.25,-200 863.25,-219.25"/>
<text text-anchor="middle" x="833.88" y="-205.75" font-family="Helvetica,sans-Serif" font-size="10.00">t_print_bb</text>
</a>
</g>
</g>
<!-- Node11&#45;&gt;Node12 -->
<g id="edge15_Node000011_Node000012" class="edge">
<title>Node11&#45;&gt;Node12</title>
<g id="a_edge15_Node000011_Node000012"><a xlink:title=" ">
<path fill="none" stroke="#63b8ff" d="M943.62,-237.29C918.28,-230.84 886.27,-222.7 863.56,-216.92"/>
<polygon fill="#63b8ff" stroke="#63b8ff" points="942.72,-240.67 953.27,-239.74 944.44,-233.89 942.72,-240.67"/>
</a>
</g>
</g>
<!-- Node11&#45;&gt;Node13 -->
<g id="edge20_Node000011_Node000013" class="edge">
<title>Node11&#45;&gt;Node13</title>
<g id="a_edge20_Node000011_Node000013"><a xlink:title=" ">
<path fill="none" stroke="#63b8ff" d="M943.55,-245.1C901.61,-242.21 834.41,-236.81 776.75,-228.62 759.85,-226.23 741.46,-222.88 725.19,-219.66"/>
<polygon fill="#63b8ff" stroke="#63b8ff" points="943.21,-248.58 953.42,-245.76 943.68,-241.6 943.21,-248.58"/>
</a>
</g>
</g>
<!-- Node14 -->
<g id="Node000014" class="node">
<title>Node14</title>
<g id="a_Node000014"><a xlink:href="../../d2/d6f/bit-buf_8c.html#aba196fa022fc3476dcf6b987fd1644e7" target="_top" xlink:title=" ">
<polygon fill="white" stroke="#666666" points="871.12,-295.25 796.62,-295.25 796.62,-276 871.12,-276 871.12,-295.25"/>
<text text-anchor="middle" x="833.88" y="-281.75" font-family="Helvetica,sans-Serif" font-size="10.00">t_print_be_bb</text>
</a>
</g>
</g>
<!-- Node11&#45;&gt;Node14 -->
<g id="edge17_Node000011_Node000014" class="edge">
<title>Node11&#45;&gt;Node14</title>
<g id="a_edge17_Node000011_Node000014"><a xlink:title=" ">
<path fill="none" stroke="#63b8ff" d="M943.81,-257.91C921.25,-263.65 893.37,-270.74 871.47,-276.32"/>
<polygon fill="#63b8ff" stroke="#63b8ff" points="944.44,-261.36 953.27,-255.51 942.72,-254.58 944.44,-261.36"/>
</a>
</g>
</g>
<!-- Node12&#45;&gt;Node13 -->
<g id="edge16_Node000012_Node000013" class="edge">
<title>Node12&#45;&gt;Node13</title>
<g id="a_edge16_Node000012_Node000013"><a xlink:title=" ">
<path fill="none" stroke="#63b8ff" d="M792.83,-209.62C774.24,-209.62 751.87,-209.62 731.85,-209.62"/>
<polygon fill="#63b8ff" stroke="#63b8ff" points="792.64,-213.13 802.64,-209.63 792.64,-206.13 792.64,-213.13"/>
</a>
</g>
</g>
<!-- Node14&#45;&gt;Node10 -->
<g id="edge18_Node000014_Node000010" class="edge">
<title>Node14&#45;&gt;Node10</title>
<g id="a_edge18_Node000014_Node000010"><a xlink:title=" ">
<path fill="none" stroke="#63b8ff" d="M784.94,-288.01C727.49,-290.86 631.25,-295.64 569.41,-298.71"/>
<polygon fill="#63b8ff" stroke="#63b8ff" points="784.91,-291.51 794.73,-287.52 784.56,-284.52 784.91,-291.51"/>
</a>
</g>
</g>
<!-- Node15 -->
<g id="Node000015" class="node">
<title>Node15</title>
<g id="a_Node000015"><a xlink:href="../../d2/d6f/bit-buf_8c.html#afd420c09d759332d6ae2d49a13f9e088" target="_top" xlink:title=" ">
<polygon fill="white" stroke="#666666" points="712.62,-257.25 641.88,-257.25 641.88,-238 712.62,-238 712.62,-257.25"/>
<text text-anchor="middle" x="677.25" y="-243.75" font-family="Helvetica,sans-Serif" font-size="10.00">z_set_be_bb</text>
</a>
</g>
</g>
<!-- Node14&#45;&gt;Node15 -->
<g id="edge19_Node000014_Node000015" class="edge">
<title>Node14&#45;&gt;Node15</title>
<g id="a_edge19_Node000014_Node000015"><a xlink:title=" ">
<path fill="none" stroke="#63b8ff" d="M785.17,-273.9C761.87,-268.17 734.33,-261.41 713.04,-256.17"/>
<polygon fill="#63b8ff" stroke="#63b8ff" points="784.21,-277.27 794.76,-276.26 785.89,-270.47 784.21,-277.27"/>
</a>
</g>
</g>
<!-- Node17 -->
<g id="Node000017" class="node">
<title>Node17</title>
<g id="a_Node000017"><a xlink:href="../../db/dfd/per_8c.html#a6e95f8cdc72c7432a7773ca9db9bfca2" target="_top" xlink:title=" ">
<polygon fill="white" stroke="#666666" points="890.62,-19.25 777.12,-19.25 777.12,0 890.62,0 890.62,-19.25"/>
<text text-anchor="middle" x="833.88" y="-5.75" font-family="Helvetica,sans-Serif" font-size="10.00">t_aper_decode_choice</text>
</a>
</g>
</g>
<!-- Node16&#45;&gt;Node17 -->
<g id="edge22_Node000016_Node000017" class="edge">
<title>Node16&#45;&gt;Node17</title>
<g id="a_edge22_Node000016_Node000017"><a xlink:title=" ">
<path fill="none" stroke="#63b8ff" d="M964.08,-78.42C945.93,-63.62 918.03,-42.51 891,-28.62 884.41,-25.24 877.09,-22.26 869.97,-19.71"/>
<polygon fill="#63b8ff" stroke="#63b8ff" points="961.53,-80.85 971.47,-84.55 966.01,-75.47 961.53,-80.85"/>
</a>
</g>
</g>
<!-- Node21 -->
<g id="Node000021" class="node">
<title>Node21</title>
<g id="a_Node000021"><a xlink:href="../../db/dfd/per_8c.html#a73f9c9a06039b6798b47b73b8cc274c0" target="_top" xlink:title=" ">
<polygon fill="white" stroke="#666666" points="891,-67.88 776.75,-67.88 776.75,-37.38 891,-37.38 891,-67.88"/>
<text text-anchor="start" x="784.75" y="-54.38" font-family="Helvetica,sans-Serif" font-size="10.00">t_aper_decode_seq_of</text>
<text text-anchor="middle" x="833.88" y="-43.12" font-family="Helvetica,sans-Serif" font-size="10.00">_fields</text>
</a>
</g>
</g>
<!-- Node16&#45;&gt;Node21 -->
<g id="edge27_Node000016_Node000021" class="edge">
<title>Node16&#45;&gt;Node21</title>
<g id="a_edge27_Node000016_Node000021"><a xlink:title=" ">
<path fill="none" stroke="#63b8ff" d="M938.38,-82.42C922.96,-77.98 905.59,-72.98 889.55,-68.37"/>
<polygon fill="#63b8ff" stroke="#63b8ff" points="937.2,-85.72 947.77,-85.12 939.13,-78.99 937.2,-85.72"/>
</a>
</g>
</g>
<!-- Node23 -->
<g id="Node000023" class="node">
<title>Node23</title>
<g id="a_Node000023"><a xlink:href="../../db/dfd/per_8c.html#a21384fcb7cf727f5e2e124c51b614075" target="_top" xlink:title=" ">
<polygon fill="white" stroke="#666666" points="740.75,-104.25 613.75,-104.25 613.75,-85 740.75,-85 740.75,-104.25"/>
<text text-anchor="middle" x="677.25" y="-90.75" font-family="Helvetica,sans-Serif" font-size="10.00">t_aper_decode_sequence</text>
</a>
</g>
</g>
<!-- Node16&#45;&gt;Node23 -->
<g id="edge30_Node000016_Node000023" class="edge">
<title>Node16&#45;&gt;Node23</title>
<g id="a_edge30_Node000016_Node000023"><a xlink:title=" ">
<path fill="none" stroke="#63b8ff" d="M922.49,-95.42C869.71,-95.25 794.12,-95 741.05,-94.83"/>
<polygon fill="#63b8ff" stroke="#63b8ff" points="922.2,-98.92 932.21,-95.45 922.22,-91.92 922.2,-98.92"/>
</a>
</g>
</g>
<!-- Node18 -->
<g id="Node000018" class="node">
<title>Node18</title>
<g id="a_Node000018"><a xlink:href="../../db/dfd/per_8c.html#a1f1e087bcc1964a0347044fce93f6a7c" target="_top" xlink:title=" ">
<polygon fill="white" stroke="#666666" points="577.75,-84.25 441.75,-84.25 441.75,-65 577.75,-65 577.75,-84.25"/>
<text text-anchor="middle" x="509.75" y="-70.75" font-family="Helvetica,sans-Serif" font-size="10.00">t_aper_decode_constructed</text>
</a>
</g>
</g>
<!-- Node17&#45;&gt;Node18 -->
<g id="edge23_Node000017_Node000018" class="edge">
<title>Node17&#45;&gt;Node18</title>
<g id="a_edge23_Node000017_Node000018"><a xlink:title=" ">
<path fill="none" stroke="#63b8ff" d="M765.45,-13.36C721.73,-16.82 663.79,-23.38 613.75,-35.62 584.78,-42.72 552.87,-55.65 532.36,-64.67"/>
<polygon fill="#63b8ff" stroke="#63b8ff" points="765.6,-16.86 775.31,-12.62 765.08,-9.88 765.6,-16.86"/>
</a>
</g>
</g>
<!-- Node19 -->
<g id="Node000019" class="node">
<title>Node19</title>
<g id="a_Node000019"><a xlink:href="../../db/dfd/per_8c.html#ab63f464a0d939fde54f1a6365c47bedb" target="_top" xlink:title=" ">
<polygon fill="white" stroke="#666666" points="404.62,-84.25 298.62,-84.25 298.62,-65 404.62,-65 404.62,-84.25"/>
<text text-anchor="middle" x="351.62" y="-70.75" font-family="Helvetica,sans-Serif" font-size="10.00">t_aper_decode_desc</text>
</a>
</g>
</g>
<!-- Node18&#45;&gt;Node19 -->
<g id="edge24_Node000018_Node000019" class="edge">
<title>Node18&#45;&gt;Node19</title>
<g id="a_edge24_Node000018_Node000019"><a xlink:title=" ">
<path fill="none" stroke="#63b8ff" d="M430.39,-74.62C421.81,-74.62 413.23,-74.62 405.07,-74.62"/>
<polygon fill="#63b8ff" stroke="#63b8ff" points="430.12,-78.13 440.12,-74.63 430.12,-71.13 430.12,-78.13"/>
</a>
</g>
</g>
<!-- Node20 -->
<g id="Node000020" class="node">
<title>Node20</title>
<g id="a_Node000020"><a xlink:href="../../db/dfd/per_8c.html#ad241b250dff184dcd0a44ca475aaf70e" target="_top" xlink:title=" ">
<polygon fill="white" stroke="#666666" points="405.75,-143.25 297.5,-143.25 297.5,-124 405.75,-124 405.75,-143.25"/>
<text text-anchor="middle" x="351.62" y="-129.75" font-family="Helvetica,sans-Serif" font-size="10.00">t_aper_decode_value</text>
</a>
</g>
</g>
<!-- Node18&#45;&gt;Node20 -->
<g id="edge25_Node000018_Node000020" class="edge">
<title>Node18&#45;&gt;Node20</title>
<g id="a_edge25_Node000018_Node000020"><a xlink:title=" ">
<path fill="none" stroke="#63b8ff" d="M471.53,-88.69C443.11,-99.43 404.63,-113.97 379.24,-123.57"/>
<polygon fill="#63b8ff" stroke="#63b8ff" points="472.73,-91.98 480.85,-85.17 470.26,-85.43 472.73,-91.98"/>
</a>
</g>
</g>
<!-- Node20&#45;&gt;Node16 -->
<g id="edge26_Node000020_Node000016" class="edge">
<title>Node20&#45;&gt;Node16</title>
<g id="a_edge26_Node000020_Node000016"><a xlink:title=" ">
<path fill="none" stroke="#63b8ff" d="M417.48,-132.54C518.76,-130.41 720.55,-124.43 891,-108.62 905,-107.33 920.11,-105.43 934.02,-103.49"/>
<polygon fill="#63b8ff" stroke="#63b8ff" points="417.67,-129.04 407.74,-132.74 417.81,-136.03 417.67,-129.04"/>
</a>
</g>
</g>
<!-- Node22 -->
<g id="Node000022" class="node">
<title>Node22</title>
<g id="a_Node000022"><a xlink:href="../../db/dfd/per_8c.html#a6174b0f0ff0e2b1e946640951a39b6b9" target="_top" xlink:title=" ">
<polygon fill="white" stroke="#666666" points="734.38,-64.25 620.12,-64.25 620.12,-45 734.38,-45 734.38,-64.25"/>
<text text-anchor="middle" x="677.25" y="-50.75" font-family="Helvetica,sans-Serif" font-size="10.00">t_aper_decode_seq_of</text>
</a>
</g>
</g>
<!-- Node21&#45;&gt;Node22 -->
<g id="edge28_Node000021_Node000022" class="edge">
<title>Node21&#45;&gt;Node22</title>
<g id="a_edge28_Node000021_Node000022"><a xlink:title=" ">
<path fill="none" stroke="#63b8ff" d="M765.25,-53.5C755.06,-53.63 744.65,-53.77 734.73,-53.89"/>
<polygon fill="#63b8ff" stroke="#63b8ff" points="765.15,-57 775.1,-53.37 765.06,-50 765.15,-57"/>
</a>
</g>
</g>
<!-- Node22&#45;&gt;Node18 -->
<g id="edge29_Node000022_Node000018" class="edge">
<title>Node22&#45;&gt;Node18</title>
<g id="a_edge29_Node000022_Node000018"><a xlink:title=" ">
<path fill="none" stroke="#63b8ff" d="M608.58,-62.8C598.53,-64.02 588.17,-65.27 578.13,-66.48"/>
<polygon fill="#63b8ff" stroke="#63b8ff" points="608.75,-66.31 618.25,-61.63 607.91,-59.36 608.75,-66.31"/>
</a>
</g>
</g>
<!-- Node23&#45;&gt;Node18 -->
<g id="edge31_Node000023_Node000018" class="edge">
<title>Node23&#45;&gt;Node18</title>
<g id="a_edge31_Node000023_Node000018"><a xlink:title=" ">
<path fill="none" stroke="#63b8ff" d="M602.37,-85.7C594.29,-84.72 586.1,-83.73 578.1,-82.76"/>
<polygon fill="#63b8ff" stroke="#63b8ff" points="601.83,-89.16 612.18,-86.88 602.67,-82.21 601.83,-89.16"/>
</a>
</g>
</g>
</g>
</svg>

<g id="navigator" transform="translate(0 0)" fill="#404254">
  <rect fill="#f2f5e9" fill-opacity="0.5" stroke="#606060" stroke-width=".5" x="0" y="0" width="60" height="60"/>
  <use id="zoomplus" xlink:href="#zoomPlus" x="17" y="9" onmousedown="handleZoom(evt,'in')"/>
  <use id="zoomminus" xlink:href="#zoomMin" x="42" y="9" onmousedown="handleZoom(evt,'out')"/>
  <use id="reset" xlink:href="#resetDef" x="30" y="36" onmousedown="handleReset()"/>
   <use id="arrowup" xlink:href="#arrowUp" x="0" y="0" onmousedown="handlePan(0,-1)"/>
  <use id="arrowright" xlink:href="#arrowRight" x="0" y="0" onmousedown="handlePan(1,0)"/>
  <use id="arrowdown" xlink:href="#arrowDown" x="0" y="0" onmousedown="handlePan(0,1)"/>
  <use id="arrowleft" xlink:href="#arrowLeft" x="0" y="0" onmousedown="handlePan(-1,0)"/>
</g>
<svg viewBox="0 0 15 15" width="100%" height="30px" preserveAspectRatio="xMaxYMin meet">
 <g id="arrow_out" transform="scale(0.3 0.3)">
  <a xlink:href="bit-stream_8h_a4c9d2889315aab1fdee7ddf48c51c9e3_icgraph_org.svg" target="_base">
   <rect id="button" ry="5" rx="5" y="6" x="6" height="38" width="38"
        fill="#f2f5e9" fill-opacity="0.5" stroke="#606060" stroke-width="1.0"/>
   <path id="arrow"
     d="M 11.500037,31.436501 C 11.940474,20.09759 22.043105,11.32322 32.158766,21.979434 L 37.068811,17.246167 C 37.068811,17.246167 37.088388,32 37.088388,32 L 22.160133,31.978069 C 22.160133,31.978069 26.997745,27.140456 26.997745,27.140456 C 18.528582,18.264221 13.291696,25.230495 11.500037,31.436501 z"
     style="fill:#404040;"/>
  </a>
 </g>
</svg>

<style type='text/css'>
<![CDATA[
[data-mouse-over-selected='false'] { opacity: 0.7; }
[data-mouse-over-selected='true']  { opacity: 1.0; }
]]>
</style>
<script type="application/ecmascript"><![CDATA[
document.addEventListener('DOMContentLoaded', (event) => {
  highlightEdges();
  highlightAdjacentNodes();
});
]]></script>
</svg>
