<?xml version="1.0" encoding="UTF-8" standalone="no"?>
<!DOCTYPE svg PUBLIC "-//W3C//DTD SVG 1.1//EN"
 "http://www.w3.org/Graphics/SVG/1.1/DTD/svg11.dtd">
<!-- Generated by graphviz version 9.0.0 (20230911.1827)
 -->
<!-- Title: bs_align Pages: 1 -->
<!--zoomable 398 -->

<svg id="main" version="1.1" xmlns="http://www.w3.org/2000/svg" xmlns:xlink="http://www.w3.org/1999/xlink" xml:space="preserve" onload="init(evt)">
<style type="text/css"><![CDATA[
.node, .edge {opacity: 0.7;}
.node.selected, .edge.selected {opacity: 1;}
.edge:hover path { stroke: red; }
.edge:hover polygon { stroke: red; fill: red; }
]]></style>

<defs>
  <circle id="rim" cx="0" cy="0" r="7"/>
  <circle id="rim2" cx="0" cy="0" r="3.5"/>
  <g id="zoomPlus">
    <use xlink:href="#rim" fill="#404040"><set attributeName="fill" to="#808080" begin="zoomplus.mouseover" end="zoomplus.mouseout"/></use>
    <path d="M-4,0h8M0,-4v8" fill="none" stroke="white" stroke-width="1.5" pointer-events="none"/>
  </g>
  <g id="zoomMin">
    <use xlink:href="#rim" fill="#404040"><set attributeName="fill" to="#808080" begin="zoomminus.mouseover" end="zoomminus.mouseout"/></use>
    <path d="M-4,0h8" fill="none" stroke="white" stroke-width="1.5" pointer-events="none"/>
  </g>
  <g id="arrowUp" transform="translate(30 24)">
    <use xlink:href="#rim"/>
    <path pointer-events="none" fill="none" stroke="white" stroke-width="1.5" d="M0,-3.0v7 M-2.5,-0.5L0,-3.0L2.5,-0.5"/>
  </g>
  <g id="arrowRight" transform="rotate(90) translate(36 -43)">
    <use xlink:href="#rim"/>
    <path pointer-events="none" fill="none" stroke="white" stroke-width="1.5" d="M0,-3.0v7 M-2.5,-0.5L0,-3.0L2.5,-0.5"/>
  </g>
  <g id="arrowDown" transform="rotate(180) translate(-30 -48)">
    <use xlink:href="#rim"/>
    <path pointer-events="none" fill="none" stroke="white" stroke-width="1.5" d="M0,-3.0v7 M-2.5,-0.5L0,-3.0L2.5,-0.5"/>
  </g>
  <g id="arrowLeft" transform="rotate(270) translate(-36 17)">
    <use xlink:href="#rim"/>
    <path pointer-events="none" fill="none" stroke="white" stroke-width="1.5" d="M0,-3.0v7 M-2.5,-0.5L0,-3.0L2.5,-0.5"/>
  </g>
  <g id="resetDef">
    <use xlink:href="#rim2" fill="#404040"><set attributeName="fill" to="#808080" begin="reset.mouseover" end="reset.mouseout"/></use>
  </g>
</defs>
<script type="application/ecmascript">
var viewWidth = 1886;
var viewHeight = 398;
var sectionId = 'dynsection-43';
</script>
<script type="application/ecmascript" xlink:href="../../svg.min.js"/>
<svg id="graph" class="graph">
<g id="viewport">
<title>bs_align</title>
<!-- Node1 -->
<g id="Node000001" class="node">
<title>Node1</title>
<g id="a_Node000001"><a xlink:title=" ">
<polygon fill="#999999" stroke="#666666" points="1877.5,-190.25 1825.5,-190.25 1825.5,-171 1877.5,-171 1877.5,-190.25"/>
<text text-anchor="middle" x="1851.5" y="-176.75" font-family="Helvetica,sans-Serif" font-size="10.00">bs_align</text>
</a>
</g>
</g>
<!-- Node2 -->
<g id="Node000002" class="node">
<title>Node2</title>
<g id="a_Node000002"><a xlink:href="../../db/dfd/per_8c.html#aaa95b1763cbec63fc72ff314e9ded6c3" target="_top" xlink:title=" ">
<polygon fill="white" stroke="#666666" points="1176.88,-174.25 1070.88,-174.25 1070.88,-155 1176.88,-155 1176.88,-174.25"/>
<text text-anchor="middle" x="1123.88" y="-160.75" font-family="Helvetica,sans-Serif" font-size="10.00">aper_decode_bstring</text>
</a>
</g>
</g>
<!-- Node1&#45;&gt;Node2 -->
<g id="edge1_Node000001_Node000002" class="edge">
<title>Node1&#45;&gt;Node2</title>
<g id="a_edge1_Node000001_Node000002"><a xlink:title=" ">
<path fill="none" stroke="#63b8ff" d="M1813.99,-176.38C1762.62,-170.78 1666.06,-161.62 1583.5,-161.62 1583.5,-161.62 1583.5,-161.62 1423.75,-161.62 1337.35,-161.62 1236.91,-162.89 1177.24,-163.78"/>
<polygon fill="#63b8ff" stroke="#63b8ff" points="1813.31,-179.82 1823.64,-177.45 1814.08,-172.87 1813.31,-179.82"/>
</a>
</g>
</g>
<!-- Node8 -->
<g id="Node000008" class="node">
<title>Node8</title>
<g id="a_Node000008"><a xlink:href="../../db/dfd/per_8c.html#ab63f464a0d939fde54f1a6365c47bedb" target="_top" xlink:title=" ">
<polygon fill="white" stroke="#666666" points="106,-341.25 0,-341.25 0,-322 106,-322 106,-341.25"/>
<text text-anchor="middle" x="53" y="-327.75" font-family="Helvetica,sans-Serif" font-size="10.00">t_aper_decode_desc</text>
</a>
</g>
</g>
<!-- Node1&#45;&gt;Node8 -->
<g id="edge52_Node000001_Node000008" class="edge">
<title>Node1&#45;&gt;Node8</title>
<g id="a_edge52_Node000001_Node000008"><a xlink:title=" ">
<path fill="none" stroke="#63b8ff" d="M1846.1,-201.55C1839.01,-230.36 1822.39,-282.12 1789.5,-312.62 1717.84,-379.09 1681.24,-389.62 1583.5,-389.62 1583.5,-389.62 1583.5,-389.62 370.12,-389.62 265.22,-389.62 143.91,-358.35 86.86,-341.73"/>
<polygon fill="#63b8ff" stroke="#63b8ff" points="1849.49,-202.42 1848.31,-191.89 1842.67,-200.86 1849.49,-202.42"/>
</a>
</g>
</g>
<!-- Node12 -->
<g id="Node000012" class="node">
<title>Node12</title>
<g id="a_Node000012"><a xlink:href="../../db/dfd/per_8c.html#a22c9ace6e65ddeef4d62e22c53848a37" target="_top" xlink:title=" ">
<polygon fill="white" stroke="#666666" points="1491.25,-19.25 1358.25,-19.25 1358.25,0 1491.25,0 1491.25,-19.25"/>
<text text-anchor="middle" x="1424.75" y="-5.75" font-family="Helvetica,sans-Serif" font-size="10.00">aper_decode_fragment_len</text>
</a>
</g>
</g>
<!-- Node1&#45;&gt;Node12 -->
<g id="edge14_Node000001_Node000012" class="edge">
<title>Node1&#45;&gt;Node12</title>
<g id="a_edge14_Node000001_Node000012"><a xlink:title=" ">
<path fill="none" stroke="#63b8ff" d="M1843.87,-159.69C1835.26,-136.09 1817.88,-98.44 1789.5,-78.62 1700.18,-16.24 1569.67,-6.22 1491.68,-6.57"/>
<polygon fill="#63b8ff" stroke="#63b8ff" points="1840.55,-160.81 1847.09,-169.14 1847.18,-158.55 1840.55,-160.81"/>
</a>
</g>
</g>
<!-- Node14 -->
<g id="Node000014" class="node">
<title>Node14</title>
<g id="a_Node000014"><a xlink:href="../../db/dfd/per_8c.html#a194156c03bdf56f72bfb421e238fea31" target="_top" xlink:title=" ">
<polygon fill="white" stroke="#666666" points="1177.25,-136.88 1070.5,-136.88 1070.5,-106.38 1177.25,-106.38 1177.25,-136.88"/>
<text text-anchor="start" x="1078.5" y="-123.38" font-family="Helvetica,sans-Serif" font-size="10.00">t_aper_decode_octet</text>
<text text-anchor="middle" x="1123.88" y="-112.12" font-family="Helvetica,sans-Serif" font-size="10.00">_string</text>
</a>
</g>
</g>
<!-- Node1&#45;&gt;Node14 -->
<g id="edge53_Node000001_Node000014" class="edge">
<title>Node1&#45;&gt;Node14</title>
<g id="a_edge53_Node000001_Node000014"><a xlink:title=" ">
<path fill="none" stroke="#63b8ff" d="M1814.37,-167.85C1763.53,-151.05 1667.67,-123.62 1583.5,-123.62 1583.5,-123.62 1583.5,-123.62 1423.75,-123.62 1337.48,-123.62 1237.22,-122.78 1177.51,-122.19"/>
<polygon fill="#63b8ff" stroke="#63b8ff" points="1813.08,-171.11 1823.68,-170.98 1815.32,-164.48 1813.08,-171.11"/>
</a>
</g>
</g>
<!-- Node16 -->
<g id="Node000016" class="node">
<title>Node16</title>
<g id="a_Node000016"><a xlink:href="../../db/dfd/per_8c.html#a036b8443273feecaf47c2d61737884cf" target="_top" xlink:title=" ">
<polygon fill="white" stroke="#666666" points="1789.5,-209.25 1673.75,-209.25 1673.75,-190 1789.5,-190 1789.5,-209.25"/>
<text text-anchor="middle" x="1731.62" y="-195.75" font-family="Helvetica,sans-Serif" font-size="10.00">aper_read_aligned_u16</text>
</a>
</g>
</g>
<!-- Node1&#45;&gt;Node16 -->
<g id="edge23_Node000001_Node000016" class="edge">
<title>Node1&#45;&gt;Node16</title>
<g id="a_edge23_Node000001_Node000016"><a xlink:title=" ">
<path fill="none" stroke="#63b8ff" d="M1814.08,-186.49C1806.39,-187.73 1798.09,-189.07 1789.84,-190.4"/>
<polygon fill="#63b8ff" stroke="#63b8ff" points="1814.4,-189.99 1823.72,-184.94 1813.29,-183.08 1814.4,-189.99"/>
</a>
</g>
</g>
<!-- Node24 -->
<g id="Node000024" class="node">
<title>Node24</title>
<g id="a_Node000024"><a xlink:href="../../db/dfd/per_8c.html#a3843ceb02cf73730116a17971735ffc9" target="_top" xlink:title=" ">
<polygon fill="white" stroke="#666666" points="1786.88,-246.25 1676.38,-246.25 1676.38,-227 1786.88,-227 1786.88,-246.25"/>
<text text-anchor="middle" x="1731.62" y="-232.75" font-family="Helvetica,sans-Serif" font-size="10.00">aper_read_aligned_u8</text>
</a>
</g>
</g>
<!-- Node1&#45;&gt;Node24 -->
<g id="edge37_Node000001_Node000024" class="edge">
<title>Node1&#45;&gt;Node24</title>
<g id="a_edge37_Node000001_Node000024"><a xlink:title=" ">
<path fill="none" stroke="#63b8ff" d="M1827.18,-197.07C1816.13,-204.36 1802.51,-212.63 1789.5,-218.62 1783.1,-221.57 1776.09,-224.22 1769.24,-226.53"/>
<polygon fill="#63b8ff" stroke="#63b8ff" points="1828.96,-200.1 1835.28,-191.59 1825.03,-194.3 1828.96,-200.1"/>
</a>
</g>
</g>
<!-- Node26 -->
<g id="Node000026" class="node">
<title>Node26</title>
<g id="a_Node000026"><a xlink:href="../../db/dfd/per_8c.html#a840a736e16e1e70b09af7eed104c7186" target="_top" xlink:title=" ">
<polygon fill="white" stroke="#666666" points="1789.5,-303.25 1673.75,-303.25 1673.75,-284 1789.5,-284 1789.5,-303.25"/>
<text text-anchor="middle" x="1731.62" y="-289.75" font-family="Helvetica,sans-Serif" font-size="10.00">aper_read_aligned_uint</text>
</a>
</g>
</g>
<!-- Node1&#45;&gt;Node26 -->
<g id="edge41_Node000001_Node000026" class="edge">
<title>Node1&#45;&gt;Node26</title>
<g id="a_edge41_Node000001_Node000026"><a xlink:title=" ">
<path fill="none" stroke="#63b8ff" d="M1837.2,-200.06C1825.69,-216.05 1808.03,-238.76 1789.5,-255.62 1777.56,-266.5 1762.25,-276.54 1750.53,-283.57"/>
<polygon fill="#63b8ff" stroke="#63b8ff" points="1840.06,-202.08 1842.95,-191.89 1834.33,-198.05 1840.06,-202.08"/>
</a>
</g>
</g>
<!-- Node28 -->
<g id="Node000028" class="node">
<title>Node28</title>
<g id="a_Node000028"><a xlink:href="../../db/dfd/per_8c.html#a7dadadc821d0ab5c730caf1b5ee33c4d" target="_top" xlink:title=" ">
<polygon fill="white" stroke="#666666" points="1623.5,-95.25 1541.5,-95.25 1541.5,-76 1623.5,-76 1623.5,-95.25"/>
<text text-anchor="middle" x="1582.5" y="-81.75" font-family="Helvetica,sans-Serif" font-size="10.00">aper_read_ulen</text>
</a>
</g>
</g>
<!-- Node1&#45;&gt;Node28 -->
<g id="edge46_Node000001_Node000028" class="edge">
<title>Node1&#45;&gt;Node28</title>
<g id="a_edge46_Node000001_Node000028"><a xlink:title=" ">
<path fill="none" stroke="#63b8ff" d="M1839.53,-161.13C1829,-144.44 1811.49,-121.31 1789.5,-109.62 1737.36,-81.91 1667.48,-79.86 1623.99,-81.96"/>
<polygon fill="#63b8ff" stroke="#63b8ff" points="1836.24,-162.44 1844.38,-169.23 1842.24,-158.85 1836.24,-162.44"/>
</a>
</g>
</g>
<!-- Node3 -->
<g id="Node000003" class="node">
<title>Node3</title>
<g id="a_Node000003"><a xlink:href="../../db/dfd/per_8c.html#aeee9b68532c304b2d04cdd2c707504af" target="_top" xlink:title=" ">
<polygon fill="white" stroke="#666666" points="1034.5,-209.25 909.75,-209.25 909.75,-190 1034.5,-190 1034.5,-209.25"/>
<text text-anchor="middle" x="972.12" y="-195.75" font-family="Helvetica,sans-Serif" font-size="10.00">t_aper_decode_bit_string</text>
</a>
</g>
</g>
<!-- Node2&#45;&gt;Node3 -->
<g id="edge2_Node000002_Node000003" class="edge">
<title>Node2&#45;&gt;Node3</title>
<g id="a_edge2_Node000002_Node000003"><a xlink:title=" ">
<path fill="none" stroke="#63b8ff" d="M1068.54,-177.32C1051.37,-181.34 1032.63,-185.72 1016.34,-189.52"/>
<polygon fill="#63b8ff" stroke="#63b8ff" points="1069.15,-180.78 1078.09,-175.09 1067.55,-173.96 1069.15,-180.78"/>
</a>
</g>
</g>
<!-- Node4 -->
<g id="Node000004" class="node">
<title>Node4</title>
<g id="a_Node000004"><a xlink:href="../../db/dfd/per_8c.html#ad241b250dff184dcd0a44ca475aaf70e" target="_top" xlink:title=" ">
<polygon fill="white" stroke="#666666" points="873.75,-209.25 765.5,-209.25 765.5,-190 873.75,-190 873.75,-209.25"/>
<text text-anchor="middle" x="819.62" y="-195.75" font-family="Helvetica,sans-Serif" font-size="10.00">t_aper_decode_value</text>
</a>
</g>
</g>
<!-- Node3&#45;&gt;Node4 -->
<g id="edge3_Node000003_Node000004" class="edge">
<title>Node3&#45;&gt;Node4</title>
<g id="a_edge3_Node000003_Node000004"><a xlink:title=" ">
<path fill="none" stroke="#63b8ff" d="M898.14,-199.62C890.08,-199.62 881.99,-199.62 874.23,-199.62"/>
<polygon fill="#63b8ff" stroke="#63b8ff" points="897.96,-203.13 907.96,-199.63 897.96,-196.13 897.96,-203.13"/>
</a>
</g>
</g>
<!-- Node5 -->
<g id="Node000005" class="node">
<title>Node5</title>
<g id="a_Node000005"><a xlink:href="../../db/dfd/per_8c.html#adedfcb81b5e27cfaa3679c443107fd60" target="_top" xlink:title=" ">
<polygon fill="white" stroke="#666666" points="729.5,-208.25 627.25,-208.25 627.25,-189 729.5,-189 729.5,-208.25"/>
<text text-anchor="middle" x="678.38" y="-194.75" font-family="Helvetica,sans-Serif" font-size="10.00">t_aper_decode_field</text>
</a>
</g>
</g>
<!-- Node4&#45;&gt;Node5 -->
<g id="edge4_Node000004_Node000005" class="edge">
<title>Node4&#45;&gt;Node5</title>
<g id="a_edge4_Node000004_Node000005"><a xlink:title=" ">
<path fill="none" stroke="#63b8ff" d="M753.83,-199.16C745.73,-199.1 737.53,-199.04 729.7,-198.99"/>
<polygon fill="#63b8ff" stroke="#63b8ff" points="753.65,-202.66 763.67,-199.23 753.7,-195.66 753.65,-202.66"/>
</a>
</g>
</g>
<!-- Node6 -->
<g id="Node000006" class="node">
<title>Node6</title>
<g id="a_Node000006"><a xlink:href="../../db/dfd/per_8c.html#a6e95f8cdc72c7432a7773ca9db9bfca2" target="_top" xlink:title=" ">
<polygon fill="white" stroke="#666666" points="584.5,-322.25 471,-322.25 471,-303 584.5,-303 584.5,-322.25"/>
<text text-anchor="middle" x="527.75" y="-308.75" font-family="Helvetica,sans-Serif" font-size="10.00">t_aper_decode_choice</text>
</a>
</g>
</g>
<!-- Node5&#45;&gt;Node6 -->
<g id="edge5_Node000005_Node000006" class="edge">
<title>Node5&#45;&gt;Node6</title>
<g id="a_edge5_Node000005_Node000006"><a xlink:title=" ">
<path fill="none" stroke="#63b8ff" d="M655.3,-215.56C623.84,-239.69 567.13,-283.19 541.7,-302.69"/>
<polygon fill="#63b8ff" stroke="#63b8ff" points="657.18,-218.53 662.98,-209.66 652.92,-212.97 657.18,-218.53"/>
</a>
</g>
</g>
<!-- Node9 -->
<g id="Node000009" class="node">
<title>Node9</title>
<g id="a_Node000009"><a xlink:href="../../db/dfd/per_8c.html#a73f9c9a06039b6798b47b73b8cc274c0" target="_top" xlink:title=" ">
<polygon fill="white" stroke="#666666" points="584.88,-208.88 470.62,-208.88 470.62,-178.38 584.88,-178.38 584.88,-208.88"/>
<text text-anchor="start" x="478.62" y="-195.38" font-family="Helvetica,sans-Serif" font-size="10.00">t_aper_decode_seq_of</text>
<text text-anchor="middle" x="527.75" y="-184.12" font-family="Helvetica,sans-Serif" font-size="10.00">_fields</text>
</a>
</g>
</g>
<!-- Node5&#45;&gt;Node9 -->
<g id="edge9_Node000005_Node000009" class="edge">
<title>Node5&#45;&gt;Node9</title>
<g id="a_edge9_Node000005_Node000009"><a xlink:title=" ">
<path fill="none" stroke="#63b8ff" d="M615.78,-196.55C605.64,-196.21 595.16,-195.86 585.15,-195.52"/>
<polygon fill="#63b8ff" stroke="#63b8ff" points="615.43,-200.04 625.54,-196.88 615.67,-193.05 615.43,-200.04"/>
</a>
</g>
</g>
<!-- Node11 -->
<g id="Node000011" class="node">
<title>Node11</title>
<g id="a_Node000011"><a xlink:href="../../db/dfd/per_8c.html#a21384fcb7cf727f5e2e124c51b614075" target="_top" xlink:title=" ">
<polygon fill="white" stroke="#666666" points="591.25,-246.25 464.25,-246.25 464.25,-227 591.25,-227 591.25,-246.25"/>
<text text-anchor="middle" x="527.75" y="-232.75" font-family="Helvetica,sans-Serif" font-size="10.00">t_aper_decode_sequence</text>
</a>
</g>
</g>
<!-- Node5&#45;&gt;Node11 -->
<g id="edge12_Node000005_Node000011" class="edge">
<title>Node5&#45;&gt;Node11</title>
<g id="a_edge12_Node000005_Node000011"><a xlink:title=" ">
<path fill="none" stroke="#63b8ff" d="M626.95,-211.52C607.74,-216.43 586.15,-221.95 568.11,-226.56"/>
<polygon fill="#63b8ff" stroke="#63b8ff" points="627.65,-214.95 636.47,-209.08 625.91,-208.17 627.65,-214.95"/>
</a>
</g>
</g>
<!-- Node7 -->
<g id="Node000007" class="node">
<title>Node7</title>
<g id="a_Node000007"><a xlink:href="../../db/dfd/per_8c.html#a1f1e087bcc1964a0347044fce93f6a7c" target="_top" xlink:title=" ">
<polygon fill="white" stroke="#666666" points="278,-284.25 142,-284.25 142,-265 278,-265 278,-284.25"/>
<text text-anchor="middle" x="210" y="-270.75" font-family="Helvetica,sans-Serif" font-size="10.00">t_aper_decode_constructed</text>
</a>
</g>
</g>
<!-- Node6&#45;&gt;Node7 -->
<g id="edge6_Node000006_Node000007" class="edge">
<title>Node6&#45;&gt;Node7</title>
<g id="a_edge6_Node000006_Node000007"><a xlink:title=" ">
<path fill="none" stroke="#63b8ff" d="M459.27,-305.41C417.42,-300.84 362.55,-294.66 314,-288.62 302.45,-287.19 290.18,-285.59 278.29,-284"/>
<polygon fill="#63b8ff" stroke="#63b8ff" points="458.89,-308.89 469.21,-306.49 459.65,-301.93 458.89,-308.89"/>
</a>
</g>
</g>
<!-- Node7&#45;&gt;Node4 -->
<g id="edge8_Node000007_Node000004" class="edge">
<title>Node7&#45;&gt;Node4</title>
<g id="a_edge8_Node000007_Node000004"><a xlink:title=" ">
<path fill="none" stroke="#63b8ff" d="M289.41,-275.07C366.6,-274.49 487.62,-270.83 591.25,-255.62 661.84,-245.27 742.51,-222.79 786.26,-209.68"/>
<polygon fill="#63b8ff" stroke="#63b8ff" points="289.84,-271.57 279.86,-275.13 289.88,-278.57 289.84,-271.57"/>
</a>
</g>
</g>
<!-- Node7&#45;&gt;Node8 -->
<g id="edge7_Node000007_Node000008" class="edge">
<title>Node7&#45;&gt;Node8</title>
<g id="a_edge7_Node000007_Node000008"><a xlink:title=" ">
<path fill="none" stroke="#63b8ff" d="M171.12,-288.55C143.34,-298.77 106.27,-312.4 81.34,-321.57"/>
<polygon fill="#63b8ff" stroke="#63b8ff" points="172.05,-291.94 180.23,-285.21 169.63,-285.37 172.05,-291.94"/>
</a>
</g>
</g>
<!-- Node10 -->
<g id="Node000010" class="node">
<title>Node10</title>
<g id="a_Node000010"><a xlink:href="../../db/dfd/per_8c.html#a6174b0f0ff0e2b1e946640951a39b6b9" target="_top" xlink:title=" ">
<polygon fill="white" stroke="#666666" points="428.25,-203.25 314,-203.25 314,-184 428.25,-184 428.25,-203.25"/>
<text text-anchor="middle" x="371.12" y="-189.75" font-family="Helvetica,sans-Serif" font-size="10.00">t_aper_decode_seq_of</text>
</a>
</g>
</g>
<!-- Node9&#45;&gt;Node10 -->
<g id="edge10_Node000009_Node000010" class="edge">
<title>Node9&#45;&gt;Node10</title>
<g id="a_edge10_Node000009_Node000010"><a xlink:title=" ">
<path fill="none" stroke="#63b8ff" d="M459.12,-193.62C448.94,-193.62 438.52,-193.62 428.6,-193.62"/>
<polygon fill="#63b8ff" stroke="#63b8ff" points="458.98,-197.13 468.98,-193.63 458.98,-190.13 458.98,-197.13"/>
</a>
</g>
</g>
<!-- Node10&#45;&gt;Node7 -->
<g id="edge11_Node000010_Node000007" class="edge">
<title>Node10&#45;&gt;Node7</title>
<g id="a_edge11_Node000010_Node000007"><a xlink:title=" ">
<path fill="none" stroke="#63b8ff" d="M340.18,-208.87C308.16,-225.17 258.3,-250.55 230.83,-264.53"/>
<polygon fill="#63b8ff" stroke="#63b8ff" points="341.62,-212.06 348.94,-204.41 338.44,-205.82 341.62,-212.06"/>
</a>
</g>
</g>
<!-- Node11&#45;&gt;Node7 -->
<g id="edge13_Node000011_Node000007" class="edge">
<title>Node11&#45;&gt;Node7</title>
<g id="a_edge13_Node000011_Node000007"><a xlink:title=" ">
<path fill="none" stroke="#63b8ff" d="M452.63,-244.57C411.72,-249.06 360.02,-254.9 314,-260.62 302.45,-262.06 290.18,-263.66 278.29,-265.25"/>
<polygon fill="#63b8ff" stroke="#63b8ff" points="452.8,-248.07 462.36,-243.5 452.04,-241.11 452.8,-248.07"/>
</a>
</g>
</g>
<!-- Node13 -->
<g id="Node000013" class="node">
<title>Node13</title>
<g id="a_Node000013"><a xlink:href="../../db/dfd/per_8c.html#a9e1b4147baa5f295edc7a08f625994d4" target="_top" xlink:title=" ">
<polygon fill="white" stroke="#666666" points="1312.5,-58.25 1223,-58.25 1223,-39 1312.5,-39 1312.5,-58.25"/>
<text text-anchor="middle" x="1267.75" y="-44.75" font-family="Helvetica,sans-Serif" font-size="10.00">aper_decode_len</text>
</a>
</g>
</g>
<!-- Node12&#45;&gt;Node13 -->
<g id="edge15_Node000012_Node000013" class="edge">
<title>Node12&#45;&gt;Node13</title>
<g id="a_edge15_Node000012_Node000013"><a xlink:title=" ">
<path fill="none" stroke="#63b8ff" d="M1372.93,-22.41C1352.11,-27.65 1328.36,-33.63 1308.8,-38.55"/>
<polygon fill="#63b8ff" stroke="#63b8ff" points="1373.52,-25.87 1382.37,-20.04 1371.81,-19.08 1373.52,-25.87"/>
</a>
</g>
</g>
<!-- Node13&#45;&gt;Node2 -->
<g id="edge16_Node000013_Node000002" class="edge">
<title>Node13&#45;&gt;Node2</title>
<g id="a_edge16_Node000013_Node000002"><a xlink:title=" ">
<path fill="none" stroke="#63b8ff" d="M1253.51,-67.78C1237.65,-89.42 1209.21,-124.38 1177.25,-145.62 1171.93,-149.16 1165.88,-152.13 1159.82,-154.6"/>
<polygon fill="#63b8ff" stroke="#63b8ff" points="1256.21,-70.01 1259.18,-59.84 1250.52,-65.94 1256.21,-70.01"/>
</a>
</g>
</g>
<!-- Node13&#45;&gt;Node10 -->
<g id="edge22_Node000013_Node000010" class="edge">
<title>Node13&#45;&gt;Node10</title>
<g id="a_edge22_Node000013_Node000010"><a xlink:title=" ">
<path fill="none" stroke="#63b8ff" d="M1211.69,-48.62C1152.68,-48.62 1056.28,-48.63 973.12,-48.62 973.12,-48.62 973.12,-48.62 677.38,-48.62 551.23,-48.62 421.67,-150.9 383.4,-183.66"/>
<polygon fill="#63b8ff" stroke="#63b8ff" points="1211.46,-52.13 1221.46,-48.63 1211.46,-45.13 1211.46,-52.13"/>
</a>
</g>
</g>
<!-- Node13&#45;&gt;Node14 -->
<g id="edge17_Node000013_Node000014" class="edge">
<title>Node13&#45;&gt;Node14</title>
<g id="a_edge17_Node000013_Node000014"><a xlink:title=" ">
<path fill="none" stroke="#63b8ff" d="M1237.36,-63.75C1213.34,-76.11 1179.5,-93.52 1155.22,-106.01"/>
<polygon fill="#63b8ff" stroke="#63b8ff" points="1238.68,-67 1245.97,-59.31 1235.48,-60.78 1238.68,-67"/>
</a>
</g>
</g>
<!-- Node14&#45;&gt;Node5 -->
<g id="edge20_Node000014_Node000005" class="edge">
<title>Node14&#45;&gt;Node5</title>
<g id="a_edge20_Node000014_Node000005"><a xlink:title=" ">
<path fill="none" stroke="#63b8ff" d="M1058.76,-126.03C1016.29,-129.49 959.46,-135.16 909.75,-143.62 840.03,-155.49 760,-176.24 714.99,-188.58"/>
<polygon fill="#63b8ff" stroke="#63b8ff" points="1058.86,-129.54 1068.55,-125.25 1058.31,-122.56 1058.86,-129.54"/>
</a>
</g>
</g>
<!-- Node14&#45;&gt;Node11 -->
<g id="edge21_Node000014_Node000011" class="edge">
<title>Node14&#45;&gt;Node11</title>
<g id="a_edge21_Node000014_Node000011"><a xlink:title=" ">
<path fill="none" stroke="#63b8ff" d="M1058.79,-113.68C959.19,-104.54 764.48,-99.81 627.25,-179.62 607.14,-191.32 611.04,-205.39 591.25,-217.62 585.46,-221.2 578.95,-224.15 572.38,-226.56"/>
<polygon fill="#63b8ff" stroke="#63b8ff" points="1058.36,-117.15 1068.65,-114.63 1059.04,-110.18 1058.36,-117.15"/>
</a>
</g>
</g>
<!-- Node15 -->
<g id="Node000015" class="node">
<title>Node15</title>
<g id="a_Node000015"><a xlink:href="../../db/dfd/per_8c.html#a593591acd41b969fd47066b32dd11c9d" target="_top" xlink:title=" ">
<polygon fill="white" stroke="#666666" points="1024,-172.25 920.25,-172.25 920.25,-153 1024,-153 1024,-172.25"/>
<text text-anchor="middle" x="972.12" y="-158.75" font-family="Helvetica,sans-Serif" font-size="10.00">t_aper_decode_data</text>
</a>
</g>
</g>
<!-- Node14&#45;&gt;Node15 -->
<g id="edge18_Node000014_Node000015" class="edge">
<title>Node14&#45;&gt;Node15</title>
<g id="a_edge18_Node000014_Node000015"><a xlink:title=" ">
<path fill="none" stroke="#63b8ff" d="M1059.18,-139.06C1042.38,-143.66 1024.8,-148.48 1009.95,-152.54"/>
<polygon fill="#63b8ff" stroke="#63b8ff" points="1059.9,-142.5 1068.62,-136.48 1058.05,-135.74 1059.9,-142.5"/>
</a>
</g>
</g>
<!-- Node15&#45;&gt;Node4 -->
<g id="edge19_Node000015_Node000004" class="edge">
<title>Node15&#45;&gt;Node4</title>
<g id="a_edge19_Node000015_Node000004"><a xlink:title=" ">
<path fill="none" stroke="#63b8ff" d="M918.95,-175.45C900.22,-180.06 879.36,-185.18 861.7,-189.53"/>
<polygon fill="#63b8ff" stroke="#63b8ff" points="919.66,-178.88 928.53,-173.1 917.98,-172.09 919.66,-178.88"/>
</a>
</g>
</g>
<!-- Node17 -->
<g id="Node000017" class="node">
<title>Node17</title>
<g id="a_Node000017"><a xlink:href="../../db/dfd/per_8c.html#a123c78d51fff5d748198eed886b50ae2" target="_top" xlink:title=" ">
<polygon fill="white" stroke="#666666" points="1629.12,-209.25 1535.88,-209.25 1535.88,-190 1629.12,-190 1629.12,-209.25"/>
<text text-anchor="middle" x="1582.5" y="-195.75" font-family="Helvetica,sans-Serif" font-size="10.00">aper_read_u16_m</text>
</a>
</g>
</g>
<!-- Node16&#45;&gt;Node17 -->
<g id="edge24_Node000016_Node000017" class="edge">
<title>Node16&#45;&gt;Node17</title>
<g id="a_edge24_Node000016_Node000017"><a xlink:title=" ">
<path fill="none" stroke="#63b8ff" d="M1661.95,-199.62C1650.95,-199.62 1639.81,-199.62 1629.5,-199.62"/>
<polygon fill="#63b8ff" stroke="#63b8ff" points="1661.81,-203.13 1671.81,-199.63 1661.81,-196.13 1661.81,-203.13"/>
</a>
</g>
</g>
<!-- Node18 -->
<g id="Node000018" class="node">
<title>Node18</title>
<g id="a_Node000018"><a xlink:href="../../db/dfd/per_8c.html#a78f294c94ed3d0142be259db2c825abb" target="_top" xlink:title=" ">
<polygon fill="white" stroke="#666666" points="1463.12,-95.25 1386.38,-95.25 1386.38,-76 1463.12,-76 1463.12,-95.25"/>
<text text-anchor="middle" x="1424.75" y="-81.75" font-family="Helvetica,sans-Serif" font-size="10.00">aper_read_len</text>
</a>
</g>
</g>
<!-- Node17&#45;&gt;Node18 -->
<g id="edge25_Node000017_Node000018" class="edge">
<title>Node17&#45;&gt;Node18</title>
<g id="a_edge25_Node000017_Node000018"><a xlink:title=" ">
<path fill="none" stroke="#63b8ff" d="M1558.79,-183C1525.91,-158.94 1466.08,-115.14 1439.32,-95.56"/>
<polygon fill="#63b8ff" stroke="#63b8ff" points="1556.32,-185.53 1566.46,-188.61 1560.45,-179.88 1556.32,-185.53"/>
</a>
</g>
</g>
<!-- Node19 -->
<g id="Node000019" class="node">
<title>Node19</title>
<g id="a_Node000019"><a xlink:href="../../db/dfd/per_8c.html#aeb1c6f8206f4b10a32629eaaa2810eda" target="_top" xlink:title=" ">
<polygon fill="white" stroke="#666666" points="1472.88,-247.25 1376.62,-247.25 1376.62,-228 1472.88,-228 1472.88,-247.25"/>
<text text-anchor="middle" x="1424.75" y="-233.75" font-family="Helvetica,sans-Serif" font-size="10.00">aper_read_number</text>
</a>
</g>
</g>
<!-- Node17&#45;&gt;Node19 -->
<g id="edge27_Node000017_Node000019" class="edge">
<title>Node17&#45;&gt;Node19</title>
<g id="a_edge27_Node000017_Node000019"><a xlink:title=" ">
<path fill="none" stroke="#63b8ff" d="M1529.22,-212.38C1508.95,-217.33 1486.08,-222.91 1467,-227.56"/>
<polygon fill="#63b8ff" stroke="#63b8ff" points="1529.81,-215.84 1538.7,-210.07 1528.16,-209.04 1529.81,-215.84"/>
</a>
</g>
</g>
<!-- Node18&#45;&gt;Node13 -->
<g id="edge26_Node000018_Node000013" class="edge">
<title>Node18&#45;&gt;Node13</title>
<g id="a_edge26_Node000018_Node000013"><a xlink:title=" ">
<path fill="none" stroke="#63b8ff" d="M1375.19,-74.03C1354.65,-69.13 1330.94,-63.47 1311.12,-58.74"/>
<polygon fill="#63b8ff" stroke="#63b8ff" points="1374.22,-77.4 1384.76,-76.32 1375.84,-70.59 1374.22,-77.4"/>
</a>
</g>
</g>
<!-- Node19&#45;&gt;Node6 -->
<g id="edge36_Node000019_Node000006" class="edge">
<title>Node19&#45;&gt;Node6</title>
<g id="a_edge36_Node000019_Node000006"><a xlink:title=" ">
<path fill="none" stroke="#63b8ff" d="M1373.77,-251.1C1368.48,-252.83 1363.23,-254.68 1358.25,-256.62 1341.59,-263.14 1338.62,-267.4 1322.25,-274.62 1236.25,-312.58 1218.88,-350.62 1124.88,-350.62 1124.88,-350.62 1124.88,-350.62 818.62,-350.62 732.59,-350.62 633.41,-333.97 576.2,-322.71"/>
<polygon fill="#63b8ff" stroke="#63b8ff" points="1374.62,-254.5 1383.12,-248.18 1372.54,-247.82 1374.62,-254.5"/>
</a>
</g>
</g>
<!-- Node20 -->
<g id="Node000020" class="node">
<title>Node20</title>
<g id="a_Node000020"><a xlink:href="../../db/dfd/per_8c.html#a27a2863dd2208ceda62fabc8626b783f" target="_top" xlink:title=" ">
<polygon fill="white" stroke="#666666" points="1322.25,-246.25 1213.25,-246.25 1213.25,-227 1322.25,-227 1322.25,-246.25"/>
<text text-anchor="middle" x="1267.75" y="-232.75" font-family="Helvetica,sans-Serif" font-size="10.00">aper_decode_number</text>
</a>
</g>
</g>
<!-- Node19&#45;&gt;Node20 -->
<g id="edge28_Node000019_Node000020" class="edge">
<title>Node19&#45;&gt;Node20</title>
<g id="a_edge28_Node000019_Node000020"><a xlink:title=" ">
<path fill="none" stroke="#63b8ff" d="M1364.96,-237.25C1351.04,-237.16 1336.27,-237.06 1322.58,-236.97"/>
<polygon fill="#63b8ff" stroke="#63b8ff" points="1364.87,-240.75 1374.89,-237.31 1364.91,-233.75 1364.87,-240.75"/>
</a>
</g>
</g>
<!-- Node22 -->
<g id="Node000022" class="node">
<title>Node22</title>
<g id="a_Node000022"><a xlink:href="../../db/dfd/per_8c.html#a71247fb67eb0def2628bb251d8669b35" target="_top" xlink:title=" ">
<polygon fill="white" stroke="#666666" points="1172.75,-284.25 1075,-284.25 1075,-265 1172.75,-265 1172.75,-284.25"/>
<text text-anchor="middle" x="1123.88" y="-270.75" font-family="Helvetica,sans-Serif" font-size="10.00">aper_read_nsnnwn</text>
</a>
</g>
</g>
<!-- Node19&#45;&gt;Node22 -->
<g id="edge31_Node000019_Node000022" class="edge">
<title>Node19&#45;&gt;Node22</title>
<g id="a_edge31_Node000019_Node000022"><a xlink:title=" ">
<path fill="none" stroke="#63b8ff" d="M1365.32,-248.81C1351.25,-251.27 1336.24,-253.71 1322.25,-255.62 1271.43,-262.57 1212.9,-267.86 1172.86,-271.08"/>
<polygon fill="#63b8ff" stroke="#63b8ff" points="1365.65,-252.3 1374.88,-247.1 1364.42,-245.41 1365.65,-252.3"/>
</a>
</g>
</g>
<!-- Node21 -->
<g id="Node000021" class="node">
<title>Node21</title>
<g id="a_Node000021"><a xlink:href="../../db/dfd/per_8c.html#a991155f9de8c848cfac2f27f75b9801e" target="_top" xlink:title=" ">
<polygon fill="white" stroke="#666666" points="1022.5,-246.25 921.75,-246.25 921.75,-227 1022.5,-227 1022.5,-246.25"/>
<text text-anchor="middle" x="972.12" y="-232.75" font-family="Helvetica,sans-Serif" font-size="10.00">aper_decode_enum</text>
</a>
</g>
</g>
<!-- Node20&#45;&gt;Node21 -->
<g id="edge29_Node000020_Node000021" class="edge">
<title>Node20&#45;&gt;Node21</title>
<g id="a_edge29_Node000020_Node000021"><a xlink:title=" ">
<path fill="none" stroke="#63b8ff" d="M1201.71,-236.62C1147.68,-236.62 1071.96,-236.62 1022.73,-236.62"/>
<polygon fill="#63b8ff" stroke="#63b8ff" points="1201.38,-240.13 1211.38,-236.63 1201.38,-233.13 1201.38,-240.13"/>
</a>
</g>
</g>
<!-- Node21&#45;&gt;Node4 -->
<g id="edge30_Node000021_Node000004" class="edge">
<title>Node21&#45;&gt;Node4</title>
<g id="a_edge30_Node000021_Node000004"><a xlink:title=" ">
<path fill="none" stroke="#63b8ff" d="M918.95,-223.8C900.22,-219.19 879.36,-214.07 861.7,-209.72"/>
<polygon fill="#63b8ff" stroke="#63b8ff" points="917.98,-227.16 928.53,-226.15 919.66,-220.37 917.98,-227.16"/>
</a>
</g>
</g>
<!-- Node22&#45;&gt;Node6 -->
<g id="edge35_Node000022_Node000006" class="edge">
<title>Node22&#45;&gt;Node6</title>
<g id="a_edge35_Node000022_Node000006"><a xlink:title=" ">
<path fill="none" stroke="#63b8ff" d="M1063.15,-278.45C948.09,-285.8 697.22,-301.85 584.98,-309.03"/>
<polygon fill="#63b8ff" stroke="#63b8ff" points="1063.24,-281.95 1073,-277.82 1062.79,-274.96 1063.24,-281.95"/>
</a>
</g>
</g>
<!-- Node22&#45;&gt;Node21 -->
<g id="edge32_Node000022_Node000021" class="edge">
<title>Node22&#45;&gt;Node21</title>
<g id="a_edge32_Node000022_Node000021"><a xlink:title=" ">
<path fill="none" stroke="#63b8ff" d="M1072.07,-261.73C1052.71,-256.82 1030.96,-251.3 1012.79,-246.69"/>
<polygon fill="#63b8ff" stroke="#63b8ff" points="1071.12,-265.1 1081.67,-264.17 1072.84,-258.32 1071.12,-265.1"/>
</a>
</g>
</g>
<!-- Node23 -->
<g id="Node000023" class="node">
<title>Node23</title>
<g id="a_Node000023"><a xlink:href="../../db/dfd/per_8c.html#aa16f77b126f0757f07771c27604ef868" target="_top" xlink:title=" ">
<polygon fill="white" stroke="#666666" points="863.25,-265.25 776,-265.25 776,-246 863.25,-246 863.25,-265.25"/>
<text text-anchor="middle" x="819.62" y="-251.75" font-family="Helvetica,sans-Serif" font-size="10.00">read_ext_bitmap</text>
</a>
</g>
</g>
<!-- Node22&#45;&gt;Node23 -->
<g id="edge33_Node000022_Node000023" class="edge">
<title>Node22&#45;&gt;Node23</title>
<g id="a_edge33_Node000022_Node000023"><a xlink:title=" ">
<path fill="none" stroke="#63b8ff" d="M1063.27,-270.88C1004.32,-267.17 915.55,-261.59 863.31,-258.31"/>
<polygon fill="#63b8ff" stroke="#63b8ff" points="1062.94,-274.36 1073.14,-271.5 1063.38,-267.38 1062.94,-274.36"/>
</a>
</g>
</g>
<!-- Node23&#45;&gt;Node11 -->
<g id="edge34_Node000023_Node000011" class="edge">
<title>Node23&#45;&gt;Node11</title>
<g id="a_edge34_Node000023_Node000011"><a xlink:title=" ">
<path fill="none" stroke="#63b8ff" d="M764.22,-252.06C715.2,-248.85 643.14,-244.12 591.66,-240.75"/>
<polygon fill="#63b8ff" stroke="#63b8ff" points="763.82,-255.54 774.03,-252.7 764.28,-248.56 763.82,-255.54"/>
</a>
</g>
</g>
<!-- Node24&#45;&gt;Node17 -->
<g id="edge40_Node000024_Node000017" class="edge">
<title>Node24&#45;&gt;Node17</title>
<g id="a_edge40_Node000024_Node000017"><a xlink:title=" ">
<path fill="none" stroke="#63b8ff" d="M1679.37,-223.73C1661.11,-219.14 1640.84,-214.05 1623.65,-209.72"/>
<polygon fill="#63b8ff" stroke="#63b8ff" points="1678.4,-227.1 1688.95,-226.15 1680.11,-220.31 1678.4,-227.1"/>
</a>
</g>
</g>
<!-- Node25 -->
<g id="Node000025" class="node">
<title>Node25</title>
<g id="a_Node000025"><a xlink:href="../../db/dfd/per_8c.html#aa4e7153a3c66670e57fe93e8120c053e" target="_top" xlink:title=" ">
<polygon fill="white" stroke="#666666" points="1480.75,-285.25 1368.75,-285.25 1368.75,-266 1480.75,-266 1480.75,-285.25"/>
<text text-anchor="middle" x="1424.75" y="-271.75" font-family="Helvetica,sans-Serif" font-size="10.00">aper_read_2c_number</text>
</a>
</g>
</g>
<!-- Node24&#45;&gt;Node25 -->
<g id="edge38_Node000024_Node000025" class="edge">
<title>Node24&#45;&gt;Node25</title>
<g id="a_edge38_Node000024_Node000025"><a xlink:title=" ">
<path fill="none" stroke="#63b8ff" d="M1664.78,-245.05C1609.94,-252.06 1532.75,-261.94 1481.07,-268.55"/>
<polygon fill="#63b8ff" stroke="#63b8ff" points="1665.14,-248.53 1674.62,-243.79 1664.25,-241.59 1665.14,-248.53"/>
</a>
</g>
</g>
<!-- Node25&#45;&gt;Node20 -->
<g id="edge39_Node000025_Node000020" class="edge">
<title>Node25&#45;&gt;Node20</title>
<g id="a_edge39_Node000025_Node000020"><a xlink:title=" ">
<path fill="none" stroke="#63b8ff" d="M1372.93,-262.84C1352.11,-257.6 1328.36,-251.62 1308.8,-246.7"/>
<polygon fill="#63b8ff" stroke="#63b8ff" points="1371.81,-266.17 1382.37,-265.21 1373.52,-259.38 1371.81,-266.17"/>
</a>
</g>
</g>
<!-- Node26&#45;&gt;Node19 -->
<g id="edge45_Node000026_Node000019" class="edge">
<title>Node26&#45;&gt;Node19</title>
<g id="a_edge45_Node000026_Node000019"><a xlink:title=" ">
<path fill="none" stroke="#63b8ff" d="M1664.57,-281.49C1606.88,-270.89 1524.53,-255.77 1473.16,-246.33"/>
<polygon fill="#63b8ff" stroke="#63b8ff" points="1663.81,-284.91 1674.28,-283.28 1665.08,-278.03 1663.81,-284.91"/>
</a>
</g>
</g>
<!-- Node26&#45;&gt;Node25 -->
<g id="edge42_Node000026_Node000025" class="edge">
<title>Node26&#45;&gt;Node25</title>
<g id="a_edge42_Node000026_Node000025"><a xlink:title=" ">
<path fill="none" stroke="#63b8ff" d="M1702.75,-308.78C1684.77,-317.67 1660.57,-328.03 1637.75,-332.62 1589.61,-342.32 1574.76,-345.05 1527.25,-332.62 1492.45,-323.52 1456.97,-299.52 1438.58,-285.74"/>
<polygon fill="#63b8ff" stroke="#63b8ff" points="1704.15,-311.99 1711.46,-304.32 1700.97,-305.76 1704.15,-311.99"/>
</a>
</g>
</g>
<!-- Node27 -->
<g id="Node000027" class="node">
<title>Node27</title>
<g id="a_Node000027"><a xlink:href="../../db/dfd/per_8c.html#ac10067cad2225a5dbc75b87b18746c20" target="_top" xlink:title=" ">
<polygon fill="white" stroke="#666666" points="1637.75,-323.25 1527.25,-323.25 1527.25,-304 1637.75,-304 1637.75,-323.25"/>
<text text-anchor="middle" x="1582.5" y="-309.75" font-family="Helvetica,sans-Serif" font-size="10.00">aper_read_aligned_int</text>
</a>
</g>
</g>
<!-- Node26&#45;&gt;Node27 -->
<g id="edge43_Node000026_Node000027" class="edge">
<title>Node26&#45;&gt;Node27</title>
<g id="a_edge43_Node000026_Node000027"><a xlink:title=" ">
<path fill="none" stroke="#63b8ff" d="M1662.02,-302.95C1653.96,-304.05 1645.83,-305.15 1638,-306.22"/>
<polygon fill="#63b8ff" stroke="#63b8ff" points="1662.38,-306.43 1671.82,-301.62 1661.44,-299.5 1662.38,-306.43"/>
</a>
</g>
</g>
<!-- Node27&#45;&gt;Node25 -->
<g id="edge44_Node000027_Node000025" class="edge">
<title>Node27&#45;&gt;Node25</title>
<g id="a_edge44_Node000027_Node000025"><a xlink:title=" ">
<path fill="none" stroke="#63b8ff" d="M1529.22,-300.87C1508.95,-295.92 1486.08,-290.34 1467,-285.69"/>
<polygon fill="#63b8ff" stroke="#63b8ff" points="1528.16,-304.21 1538.7,-303.18 1529.81,-297.41 1528.16,-304.21"/>
</a>
</g>
</g>
<!-- Node28&#45;&gt;Node12 -->
<g id="edge47_Node000028_Node000012" class="edge">
<title>Node28&#45;&gt;Node12</title>
<g id="a_edge47_Node000028_Node000012"><a xlink:title=" ">
<path fill="none" stroke="#63b8ff" d="M1556.36,-69.58C1538.59,-58.63 1513.99,-44.24 1491.25,-33.62 1480.17,-28.45 1467.63,-23.62 1456.52,-19.67"/>
<polygon fill="#63b8ff" stroke="#63b8ff" points="1554.34,-72.45 1564.68,-74.77 1558.05,-66.51 1554.34,-72.45"/>
</a>
</g>
</g>
<!-- Node28&#45;&gt;Node13 -->
<g id="edge48_Node000028_Node000013" class="edge">
<title>Node28&#45;&gt;Node13</title>
<g id="a_edge48_Node000028_Node000013"><a xlink:title=" ">
<path fill="none" stroke="#63b8ff" d="M1530.36,-73.68C1517.64,-71.04 1504,-68.47 1491.25,-66.62 1429.69,-57.69 1357.86,-52.89 1312.84,-50.54"/>
<polygon fill="#63b8ff" stroke="#63b8ff" points="1529.27,-77.03 1539.78,-75.7 1530.73,-70.18 1529.27,-77.03"/>
</a>
</g>
</g>
<!-- Node28&#45;&gt;Node18 -->
<g id="edge50_Node000028_Node000018" class="edge">
<title>Node28&#45;&gt;Node18</title>
<g id="a_edge50_Node000028_Node000018"><a xlink:title=" ">
<path fill="none" stroke="#63b8ff" d="M1530.04,-85.62C1508.35,-85.62 1483.55,-85.62 1463.58,-85.62"/>
<polygon fill="#63b8ff" stroke="#63b8ff" points="1529.88,-89.13 1539.88,-85.63 1529.88,-82.13 1529.88,-89.13"/>
</a>
</g>
</g>
<!-- Node28&#45;&gt;Node19 -->
<g id="edge51_Node000028_Node000019" class="edge">
<title>Node28&#45;&gt;Node19</title>
<g id="a_edge51_Node000028_Node000019"><a xlink:title=" ">
<path fill="none" stroke="#63b8ff" d="M1563.35,-103.34C1530.36,-135.54 1461.59,-202.65 1435.8,-227.81"/>
<polygon fill="#63b8ff" stroke="#63b8ff" points="1565.49,-106.14 1570.2,-96.66 1560.6,-101.13 1565.49,-106.14"/>
</a>
</g>
</g>
<!-- Node28&#45;&gt;Node25 -->
<g id="edge49_Node000028_Node000025" class="edge">
<title>Node28&#45;&gt;Node25</title>
<g id="a_edge49_Node000028_Node000025"><a xlink:title=" ">
<path fill="none" stroke="#63b8ff" d="M1569.63,-105.38C1558.33,-124.42 1541.04,-154.18 1527.25,-180.62 1509.97,-213.77 1519.71,-232.39 1491.25,-256.62 1487.01,-260.23 1482.12,-263.16 1476.97,-265.53"/>
<polygon fill="#63b8ff" stroke="#63b8ff" points="1572.49,-107.43 1574.6,-97.05 1566.47,-103.84 1572.49,-107.43"/>
</a>
</g>
</g>
</g>
</svg>

<g id="navigator" transform="translate(0 0)" fill="#404254">
  <rect fill="#f2f5e9" fill-opacity="0.5" stroke="#606060" stroke-width=".5" x="0" y="0" width="60" height="60"/>
  <use id="zoomplus" xlink:href="#zoomPlus" x="17" y="9" onmousedown="handleZoom(evt,'in')"/>
  <use id="zoomminus" xlink:href="#zoomMin" x="42" y="9" onmousedown="handleZoom(evt,'out')"/>
  <use id="reset" xlink:href="#resetDef" x="30" y="36" onmousedown="handleReset()"/>
   <use id="arrowup" xlink:href="#arrowUp" x="0" y="0" onmousedown="handlePan(0,-1)"/>
  <use id="arrowright" xlink:href="#arrowRight" x="0" y="0" onmousedown="handlePan(1,0)"/>
  <use id="arrowdown" xlink:href="#arrowDown" x="0" y="0" onmousedown="handlePan(0,1)"/>
  <use id="arrowleft" xlink:href="#arrowLeft" x="0" y="0" onmousedown="handlePan(-1,0)"/>
</g>
<svg viewBox="0 0 15 15" width="100%" height="30px" preserveAspectRatio="xMaxYMin meet">
 <g id="arrow_out" transform="scale(0.3 0.3)">
  <a xlink:href="bit-stream_8h_a6d9453420b1cba63b01e1eca2905a396_icgraph_org.svg" target="_base">
   <rect id="button" ry="5" rx="5" y="6" x="6" height="38" width="38"
        fill="#f2f5e9" fill-opacity="0.5" stroke="#606060" stroke-width="1.0"/>
   <path id="arrow"
     d="M 11.500037,31.436501 C 11.940474,20.09759 22.043105,11.32322 32.158766,21.979434 L 37.068811,17.246167 C 37.068811,17.246167 37.088388,32 37.088388,32 L 22.160133,31.978069 C 22.160133,31.978069 26.997745,27.140456 26.997745,27.140456 C 18.528582,18.264221 13.291696,25.230495 11.500037,31.436501 z"
     style="fill:#404040;"/>
  </a>
 </g>
</svg>

<style type='text/css'>
<![CDATA[
[data-mouse-over-selected='false'] { opacity: 0.7; }
[data-mouse-over-selected='true']  { opacity: 1.0; }
]]>
</style>
<script type="application/ecmascript"><![CDATA[
document.addEventListener('DOMContentLoaded', (event) => {
  highlightEdges();
  highlightAdjacentNodes();
});
]]></script>
</svg>
