<?xml version="1.0" encoding="UTF-8" standalone="no"?>
<!DOCTYPE svg PUBLIC "-//W3C//DTD SVG 1.1//EN"
 "http://www.w3.org/Graphics/SVG/1.1/DTD/svg11.dtd">
<!-- Generated by graphviz version 9.0.0 (20230911.1827)
 -->
<!-- Title: bs_get_last_bits Pages: 1 -->
<!--zoomable 207 -->

<svg id="main" version="1.1" xmlns="http://www.w3.org/2000/svg" xmlns:xlink="http://www.w3.org/1999/xlink" xml:space="preserve" onload="init(evt)">
<style type="text/css"><![CDATA[
.node, .edge {opacity: 0.7;}
.node.selected, .edge.selected {opacity: 1;}
.edge:hover path { stroke: red; }
.edge:hover polygon { stroke: red; fill: red; }
]]></style>

<defs>
  <circle id="rim" cx="0" cy="0" r="7"/>
  <circle id="rim2" cx="0" cy="0" r="3.5"/>
  <g id="zoomPlus">
    <use xlink:href="#rim" fill="#404040"><set attributeName="fill" to="#808080" begin="zoomplus.mouseover" end="zoomplus.mouseout"/></use>
    <path d="M-4,0h8M0,-4v8" fill="none" stroke="white" stroke-width="1.5" pointer-events="none"/>
  </g>
  <g id="zoomMin">
    <use xlink:href="#rim" fill="#404040"><set attributeName="fill" to="#808080" begin="zoomminus.mouseover" end="zoomminus.mouseout"/></use>
    <path d="M-4,0h8" fill="none" stroke="white" stroke-width="1.5" pointer-events="none"/>
  </g>
  <g id="arrowUp" transform="translate(30 24)">
    <use xlink:href="#rim"/>
    <path pointer-events="none" fill="none" stroke="white" stroke-width="1.5" d="M0,-3.0v7 M-2.5,-0.5L0,-3.0L2.5,-0.5"/>
  </g>
  <g id="arrowRight" transform="rotate(90) translate(36 -43)">
    <use xlink:href="#rim"/>
    <path pointer-events="none" fill="none" stroke="white" stroke-width="1.5" d="M0,-3.0v7 M-2.5,-0.5L0,-3.0L2.5,-0.5"/>
  </g>
  <g id="arrowDown" transform="rotate(180) translate(-30 -48)">
    <use xlink:href="#rim"/>
    <path pointer-events="none" fill="none" stroke="white" stroke-width="1.5" d="M0,-3.0v7 M-2.5,-0.5L0,-3.0L2.5,-0.5"/>
  </g>
  <g id="arrowLeft" transform="rotate(270) translate(-36 17)">
    <use xlink:href="#rim"/>
    <path pointer-events="none" fill="none" stroke="white" stroke-width="1.5" d="M0,-3.0v7 M-2.5,-0.5L0,-3.0L2.5,-0.5"/>
  </g>
  <g id="resetDef">
    <use xlink:href="#rim2" fill="#404040"><set attributeName="fill" to="#808080" begin="reset.mouseover" end="reset.mouseout"/></use>
  </g>
</defs>
<script type="application/ecmascript">
var viewWidth = 673;
var viewHeight = 207;
var sectionId = 'dynsection-69';
</script>
<script type="application/ecmascript" xlink:href="../../svg.min.js"/>
<svg id="graph" class="graph">
<g id="viewport">
<title>bs_get_last_bits</title>
<!-- Node1 -->
<g id="Node000001" class="node">
<title>Node1</title>
<g id="a_Node000001"><a xlink:title=" ">
<polygon fill="#999999" stroke="#666666" points="87.25,-104.62 0,-104.62 0,-85.38 87.25,-85.38 87.25,-104.62"/>
<text text-anchor="middle" x="43.62" y="-91.12" font-family="Helvetica,sans-Serif" font-size="10.00">bs_get_last_bits</text>
</a>
</g>
</g>
<!-- Node2 -->
<g id="Node000002" class="node">
<title>Node2</title>
<g id="a_Node000002"><a xlink:href="../../d8/d1b/bit-stream_8h.html#a9314cf527c89c282a39950c0ef72b97f" target="_top" xlink:title=" ">
<polygon fill="white" stroke="#666666" points="410.5,-198.62 350.25,-198.62 350.25,-179.38 410.5,-179.38 410.5,-198.62"/>
<text text-anchor="middle" x="380.38" y="-185.12" font-family="Helvetica,sans-Serif" font-size="10.00">__bs_skip</text>
</a>
</g>
</g>
<!-- Node1&#45;&gt;Node2 -->
<g id="edge1_Node000001_Node000002" class="edge">
<title>Node1&#45;&gt;Node2</title>
<g id="a_edge1_Node000001_Node000002"><a xlink:title=" ">
<path fill="none" stroke="#63b8ff" d="M64.1,-105.05C79.87,-113.03 102.75,-124.26 123.25,-133 167.85,-152.01 178.36,-159.66 225.5,-171 263.18,-180.07 307.19,-184.63 338.47,-186.89"/>
<polygon fill="#63b8ff" stroke="#63b8ff" points="338.07,-190.37 348.29,-187.54 338.54,-183.38 338.07,-190.37"/>
</a>
</g>
</g>
<!-- Node4 -->
<g id="Node000004" class="node">
<title>Node4</title>
<g id="a_Node000004"><a xlink:href="../../d8/d1b/bit-stream_8h.html#a9f2c589111bf4a44f602ee732ddec1c8" target="_top" xlink:title=" ">
<polygon fill="white" stroke="#666666" points="189.5,-123.62 123.25,-123.62 123.25,-104.38 189.5,-104.38 189.5,-123.62"/>
<text text-anchor="middle" x="156.38" y="-110.12" font-family="Helvetica,sans-Serif" font-size="10.00">bs_get_bits</text>
</a>
</g>
</g>
<!-- Node1&#45;&gt;Node4 -->
<g id="edge3_Node000001_Node000004" class="edge">
<title>Node1&#45;&gt;Node4</title>
<g id="a_edge3_Node000001_Node000004"><a xlink:title=" ">
<path fill="none" stroke="#63b8ff" d="M87.44,-102.35C95.38,-103.71 103.67,-105.13 111.64,-106.5"/>
<polygon fill="#63b8ff" stroke="#63b8ff" points="111.04,-109.94 121.49,-108.19 112.22,-103.05 111.04,-109.94"/>
</a>
</g>
</g>
<!-- Node8 -->
<g id="Node000008" class="node">
<title>Node8</title>
<g id="a_Node000008"><a xlink:href="../../d8/d1b/bit-stream_8h.html#a6cd3e2dd5a071992eff09950706b07e6" target="_top" xlink:title=" ">
<polygon fill="white" stroke="#666666" points="665.25,-47.62 620.75,-47.62 620.75,-28.38 665.25,-28.38 665.25,-47.62"/>
<text text-anchor="middle" x="643" y="-34.12" font-family="Helvetica,sans-Serif" font-size="10.00">bs_len</text>
</a>
</g>
</g>
<!-- Node1&#45;&gt;Node8 -->
<g id="edge11_Node000001_Node000008" class="edge">
<title>Node1&#45;&gt;Node8</title>
<g id="a_edge11_Node000001_Node000008"><a xlink:title=" ">
<path fill="none" stroke="#63b8ff" d="M57.07,-85.19C89.17,-60.92 178.16,0 262.88,0 262.88,0 262.88,0 381.38,0 464.17,0 560.23,-19.01 609.37,-30.14"/>
<polygon fill="#63b8ff" stroke="#63b8ff" points="608.52,-33.54 619.06,-32.38 610.1,-26.72 608.52,-33.54"/>
</a>
</g>
</g>
<!-- Node10 -->
<g id="Node000010" class="node">
<title>Node10</title>
<g id="a_Node000010"><a xlink:href="../../d8/d1b/bit-stream_8h.html#a4924dfd2f2e659399607162a0b304963" target="_top" xlink:title=" ">
<polygon fill="white" stroke="#666666" points="185.38,-85.62 127.38,-85.62 127.38,-66.38 185.38,-66.38 185.38,-85.62"/>
<text text-anchor="middle" x="156.38" y="-72.12" font-family="Helvetica,sans-Serif" font-size="10.00">bs_shrink</text>
</a>
</g>
</g>
<!-- Node1&#45;&gt;Node10 -->
<g id="edge12_Node000001_Node000010" class="edge">
<title>Node1&#45;&gt;Node10</title>
<g id="a_edge12_Node000001_Node000010"><a xlink:title=" ">
<path fill="none" stroke="#63b8ff" d="M87.44,-87.65C96.77,-86.05 106.61,-84.37 115.8,-82.79"/>
<polygon fill="#63b8ff" stroke="#63b8ff" points="116.27,-86.26 125.54,-81.12 115.09,-79.36 116.27,-86.26"/>
</a>
</g>
</g>
<!-- Node3 -->
<g id="Node000003" class="node">
<title>Node3</title>
<g id="a_Node000003"><a xlink:href="../../d8/d1b/bit-stream_8h.html#ac7c3f7fc264c42a4d53cf5bd3b4e8f49" target="_top" xlink:title=" ">
<polygon fill="white" stroke="#666666" points="558.88,-198.62 484.38,-198.62 484.38,-179.38 558.88,-179.38 558.88,-198.62"/>
<text text-anchor="middle" x="521.62" y="-185.12" font-family="Helvetica,sans-Serif" font-size="10.00">bit_ptroff_add</text>
</a>
</g>
</g>
<!-- Node2&#45;&gt;Node3 -->
<g id="edge2_Node000002_Node000003" class="edge">
<title>Node2&#45;&gt;Node3</title>
<g id="a_edge2_Node000002_Node000003"><a xlink:title=" ">
<path fill="none" stroke="#63b8ff" d="M410.91,-189C428.81,-189 452.08,-189 472.57,-189"/>
<polygon fill="#63b8ff" stroke="#63b8ff" points="472.43,-192.5 482.43,-189 472.43,-185.5 472.43,-192.5"/>
</a>
</g>
</g>
<!-- Node5 -->
<g id="Node000005" class="node">
<title>Node5</title>
<g id="a_Node000005"><a xlink:href="../../d8/d1b/bit-stream_8h.html#a4418bc7197a636e7b2fc3ce398d6ce72" target="_top" xlink:title=" ">
<polygon fill="white" stroke="#666666" points="302.25,-161.62 225.5,-161.62 225.5,-142.38 302.25,-142.38 302.25,-161.62"/>
<text text-anchor="middle" x="263.88" y="-148.12" font-family="Helvetica,sans-Serif" font-size="10.00">__bs_get_bits</text>
</a>
</g>
</g>
<!-- Node4&#45;&gt;Node5 -->
<g id="edge4_Node000004_Node000005" class="edge">
<title>Node4&#45;&gt;Node5</title>
<g id="a_edge4_Node000004_Node000005"><a xlink:title=" ">
<path fill="none" stroke="#63b8ff" d="M185.37,-124.08C197.39,-128.41 211.62,-133.54 224.59,-138.21"/>
<polygon fill="#63b8ff" stroke="#63b8ff" points="223.1,-141.39 233.69,-141.49 225.47,-134.81 223.1,-141.39"/>
</a>
</g>
</g>
<!-- Node7 -->
<g id="Node000007" class="node">
<title>Node7</title>
<g id="a_Node000007"><a xlink:href="../../d8/d1b/bit-stream_8h.html#a1b0d940a6942aa354c38c767dc5bc861" target="_top" xlink:title=" ">
<polygon fill="white" stroke="#666666" points="545.38,-104.62 497.88,-104.62 497.88,-85.38 545.38,-85.38 545.38,-104.62"/>
<text text-anchor="middle" x="521.62" y="-91.12" font-family="Helvetica,sans-Serif" font-size="10.00">bs_has</text>
</a>
</g>
</g>
<!-- Node4&#45;&gt;Node7 -->
<g id="edge10_Node000004_Node000007" class="edge">
<title>Node4&#45;&gt;Node7</title>
<g id="a_edge10_Node000004_Node000007"><a xlink:title=" ">
<path fill="none" stroke="#63b8ff" d="M189.93,-112.3C258.41,-108.72 416.78,-100.43 486.56,-96.78"/>
<polygon fill="#63b8ff" stroke="#63b8ff" points="486.43,-100.29 496.24,-96.28 486.07,-93.3 486.43,-100.29"/>
</a>
</g>
</g>
<!-- Node5&#45;&gt;Node2 -->
<g id="edge9_Node000005_Node000002" class="edge">
<title>Node5&#45;&gt;Node2</title>
<g id="a_edge9_Node000005_Node000002"><a xlink:title=" ">
<path fill="none" stroke="#63b8ff" d="M296.16,-162.11C309.43,-166.4 325.07,-171.45 339.18,-176.01"/>
<polygon fill="#63b8ff" stroke="#63b8ff" points="338.06,-179.33 348.65,-179.07 340.21,-172.67 338.06,-179.33"/>
</a>
</g>
</g>
<!-- Node6 -->
<g id="Node000006" class="node">
<title>Node6</title>
<g id="a_Node000006"><a xlink:href="../../d8/d1b/bit-stream_8h.html#a177a38f5c8c152e0d53357e129ad7a6d" target="_top" xlink:title=" ">
<polygon fill="white" stroke="#666666" points="422.5,-161.62 338.25,-161.62 338.25,-142.38 422.5,-142.38 422.5,-161.62"/>
<text text-anchor="middle" x="380.38" y="-148.12" font-family="Helvetica,sans-Serif" font-size="10.00">__bs_peek_bits</text>
</a>
</g>
</g>
<!-- Node5&#45;&gt;Node6 -->
<g id="edge5_Node000005_Node000006" class="edge">
<title>Node5&#45;&gt;Node6</title>
<g id="a_edge5_Node000005_Node000006"><a xlink:title=" ">
<path fill="none" stroke="#63b8ff" d="M302.68,-152C310.39,-152 318.62,-152 326.74,-152"/>
<polygon fill="#63b8ff" stroke="#63b8ff" points="326.54,-155.5 336.54,-152 326.54,-148.5 326.54,-155.5"/>
</a>
</g>
</g>
<!-- Node6&#45;&gt;Node7 -->
<g id="edge6_Node000006_Node000007" class="edge">
<title>Node6&#45;&gt;Node7</title>
<g id="a_edge6_Node000006_Node000007"><a xlink:title=" ">
<path fill="none" stroke="#63b8ff" d="M405.95,-141.94C428.53,-132.7 462.19,-118.92 487.21,-108.68"/>
<polygon fill="#63b8ff" stroke="#63b8ff" points="488.35,-111.99 496.28,-104.96 485.7,-105.51 488.35,-111.99"/>
</a>
</g>
</g>
<!-- Node9 -->
<g id="Node000009" class="node">
<title>Node9</title>
<g id="a_Node000009"><a xlink:href="../../d8/d37/mem_8blk.html#ab1e585a4f25d3d3c3dd6512cf31f923e" target="_top" xlink:title=" ">
<polygon fill="white" stroke="#666666" points="584.75,-161.62 458.5,-161.62 458.5,-142.38 584.75,-142.38 584.75,-161.62"/>
<text text-anchor="middle" x="521.62" y="-148.12" font-family="Helvetica,sans-Serif" font-size="10.00">mem_tool_allow_memory</text>
</a>
</g>
</g>
<!-- Node6&#45;&gt;Node9 -->
<g id="edge8_Node000006_Node000009" class="edge">
<title>Node6&#45;&gt;Node9</title>
<g id="a_edge8_Node000006_Node000009"><a xlink:title=" ">
<path fill="none" stroke="#63b8ff" d="M422.78,-152C430.44,-152 438.65,-152 446.94,-152"/>
<polygon fill="#63b8ff" stroke="#63b8ff" points="446.73,-155.5 456.73,-152 446.73,-148.5 446.73,-155.5"/>
</a>
</g>
</g>
<!-- Node7&#45;&gt;Node8 -->
<g id="edge7_Node000007_Node000008" class="edge">
<title>Node7&#45;&gt;Node8</title>
<g id="a_edge7_Node000007_Node000008"><a xlink:title=" ">
<path fill="none" stroke="#63b8ff" d="M543.69,-84.94C562.36,-76.03 589.86,-62.9 611.03,-52.79"/>
<polygon fill="#63b8ff" stroke="#63b8ff" points="612.26,-56.08 619.78,-48.61 609.25,-49.76 612.26,-56.08"/>
</a>
</g>
</g>
<!-- Node10&#45;&gt;Node7 -->
<g id="edge15_Node000010_Node000007" class="edge">
<title>Node10&#45;&gt;Node7</title>
<g id="a_edge15_Node000010_Node000007"><a xlink:title=" ">
<path fill="none" stroke="#63b8ff" d="M185.58,-77.48C251.29,-80.91 414.42,-89.44 486.01,-93.19"/>
<polygon fill="#63b8ff" stroke="#63b8ff" points="485.8,-96.68 495.97,-93.71 486.17,-89.69 485.8,-96.68"/>
</a>
</g>
</g>
<!-- Node11 -->
<g id="Node000011" class="node">
<title>Node11</title>
<g id="a_Node000011"><a xlink:href="../../d8/d1b/bit-stream_8h.html#aa203a6fed27c3f5cb1bbcf394162f9ee" target="_top" xlink:title=" ">
<polygon fill="white" stroke="#666666" points="298.12,-47.62 229.62,-47.62 229.62,-28.38 298.12,-28.38 298.12,-47.62"/>
<text text-anchor="middle" x="263.88" y="-34.12" font-family="Helvetica,sans-Serif" font-size="10.00">__bs_shrink</text>
</a>
</g>
</g>
<!-- Node10&#45;&gt;Node11 -->
<g id="edge13_Node000010_Node000011" class="edge">
<title>Node10&#45;&gt;Node11</title>
<g id="a_edge13_Node000010_Node000011"><a xlink:title=" ">
<path fill="none" stroke="#63b8ff" d="M185.37,-65.92C197.39,-61.59 211.62,-56.46 224.59,-51.79"/>
<polygon fill="#63b8ff" stroke="#63b8ff" points="225.47,-55.19 233.69,-48.51 223.1,-48.61 225.47,-55.19"/>
</a>
</g>
</g>
<!-- Node12 -->
<g id="Node000012" class="node">
<title>Node12</title>
<g id="a_Node000012"><a xlink:href="../../d8/d1b/bit-stream_8h.html#a746bf44b1cc10b296e3f4c4d8b522499" target="_top" xlink:title=" ">
<polygon fill="white" stroke="#666666" points="417.62,-47.62 343.12,-47.62 343.12,-28.38 417.62,-28.38 417.62,-47.62"/>
<text text-anchor="middle" x="380.38" y="-34.12" font-family="Helvetica,sans-Serif" font-size="10.00">bit_ptroff_sub</text>
</a>
</g>
</g>
<!-- Node11&#45;&gt;Node12 -->
<g id="edge14_Node000011_Node000012" class="edge">
<title>Node11&#45;&gt;Node12</title>
<g id="a_edge14_Node000011_Node000012"><a xlink:title=" ">
<path fill="none" stroke="#63b8ff" d="M298.61,-38C308.89,-38 320.4,-38 331.43,-38"/>
<polygon fill="#63b8ff" stroke="#63b8ff" points="331.17,-41.5 341.17,-38 331.17,-34.5 331.17,-41.5"/>
</a>
</g>
</g>
</g>
</svg>

<g id="navigator" transform="translate(0 0)" fill="#404254">
  <rect fill="#f2f5e9" fill-opacity="0.5" stroke="#606060" stroke-width=".5" x="0" y="0" width="60" height="60"/>
  <use id="zoomplus" xlink:href="#zoomPlus" x="17" y="9" onmousedown="handleZoom(evt,'in')"/>
  <use id="zoomminus" xlink:href="#zoomMin" x="42" y="9" onmousedown="handleZoom(evt,'out')"/>
  <use id="reset" xlink:href="#resetDef" x="30" y="36" onmousedown="handleReset()"/>
   <use id="arrowup" xlink:href="#arrowUp" x="0" y="0" onmousedown="handlePan(0,-1)"/>
  <use id="arrowright" xlink:href="#arrowRight" x="0" y="0" onmousedown="handlePan(1,0)"/>
  <use id="arrowdown" xlink:href="#arrowDown" x="0" y="0" onmousedown="handlePan(0,1)"/>
  <use id="arrowleft" xlink:href="#arrowLeft" x="0" y="0" onmousedown="handlePan(-1,0)"/>
</g>
<svg viewBox="0 0 15 15" width="100%" height="30px" preserveAspectRatio="xMaxYMin meet">
 <g id="arrow_out" transform="scale(0.3 0.3)">
  <a xlink:href="bit-stream_8h_ad4447ac955314c3483ef89203dbb045b_cgraph_org.svg" target="_base">
   <rect id="button" ry="5" rx="5" y="6" x="6" height="38" width="38"
        fill="#f2f5e9" fill-opacity="0.5" stroke="#606060" stroke-width="1.0"/>
   <path id="arrow"
     d="M 11.500037,31.436501 C 11.940474,20.09759 22.043105,11.32322 32.158766,21.979434 L 37.068811,17.246167 C 37.068811,17.246167 37.088388,32 37.088388,32 L 22.160133,31.978069 C 22.160133,31.978069 26.997745,27.140456 26.997745,27.140456 C 18.528582,18.264221 13.291696,25.230495 11.500037,31.436501 z"
     style="fill:#404040;"/>
  </a>
 </g>
</svg>

<style type='text/css'>
<![CDATA[
[data-mouse-over-selected='false'] { opacity: 0.7; }
[data-mouse-over-selected='true']  { opacity: 1.0; }
]]>
</style>
<script type="application/ecmascript"><![CDATA[
document.addEventListener('DOMContentLoaded', (event) => {
  highlightEdges();
  highlightAdjacentNodes();
});
]]></script>
</svg>
