<?xml version="1.0" encoding="UTF-8" standalone="no"?>
<!DOCTYPE svg PUBLIC "-//W3C//DTD SVG 1.1//EN"
 "http://www.w3.org/Graphics/SVG/1.1/DTD/svg11.dtd">
<!-- Generated by graphviz version 9.0.0 (20230911.1827)
 -->
<!-- Title: __bs_get_bits Pages: 1 -->
<svg width="448pt" height="101pt"
 viewBox="0.00 0.00 447.75 101.25" xmlns="http://www.w3.org/2000/svg" xmlns:xlink="http://www.w3.org/1999/xlink">

<svg id="main" version="1.1" xmlns="http://www.w3.org/2000/svg" xmlns:xlink="http://www.w3.org/1999/xlink" xml:space="preserve" onload="init(evt)">
<style type="text/css"><![CDATA[
.node, .edge {opacity: 0.7;}
.node.selected, .edge.selected {opacity: 1;}
.edge:hover path { stroke: red; }
.edge:hover polygon { stroke: red; fill: red; }
]]></style>
<script type="application/ecmascript" xlink:href="../../svg.min.js"/>
<svg id="graph" class="graph">
<g id="graph0" class="graph" transform="scale(1 1) rotate(0) translate(4 97.25)">
<title>__bs_get_bits</title>
<!-- Node1 -->
<g id="Node000001" class="node">
<title>Node1</title>
<g id="a_Node000001"><a xlink:title=" ">
<polygon fill="#999999" stroke="#666666" points="76.75,-37.25 0,-37.25 0,-18 76.75,-18 76.75,-37.25"/>
<text text-anchor="middle" x="38.38" y="-23.75" font-family="Helvetica,sans-Serif" font-size="10.00">__bs_get_bits</text>
</a>
</g>
</g>
<!-- Node2 -->
<g id="Node000002" class="node">
<title>Node2</title>
<g id="a_Node000002"><a xlink:href="../../d8/d1b/bit-stream_8h.html#a177a38f5c8c152e0d53357e129ad7a6d" target="_top" xlink:title=" ">
<polygon fill="white" stroke="#666666" points="197,-56.25 112.75,-56.25 112.75,-37 197,-37 197,-56.25"/>
<text text-anchor="middle" x="154.88" y="-42.75" font-family="Helvetica,sans-Serif" font-size="10.00">__bs_peek_bits</text>
</a>
</g>
</g>
<!-- Node1&#45;&gt;Node2 -->
<g id="edge1_Node000001_Node000002" class="edge">
<title>Node1&#45;&gt;Node2</title>
<g id="a_edge1_Node000001_Node000002"><a xlink:title=" ">
<path fill="none" stroke="#63b8ff" d="M77.18,-33.9C84.89,-35.18 93.12,-36.54 101.24,-37.89"/>
<polygon fill="#63b8ff" stroke="#63b8ff" points="100.62,-41.34 111.06,-39.52 101.77,-34.43 100.62,-41.34"/>
</a>
</g>
</g>
<!-- Node6 -->
<g id="Node000006" class="node">
<title>Node6</title>
<g id="a_Node000006"><a xlink:href="../../d8/d1b/bit-stream_8h.html#a9314cf527c89c282a39950c0ef72b97f" target="_top" xlink:title=" ">
<polygon fill="white" stroke="#666666" points="185,-19.25 124.75,-19.25 124.75,0 185,0 185,-19.25"/>
<text text-anchor="middle" x="154.88" y="-5.75" font-family="Helvetica,sans-Serif" font-size="10.00">__bs_skip</text>
</a>
</g>
</g>
<!-- Node1&#45;&gt;Node6 -->
<g id="edge5_Node000001_Node000006" class="edge">
<title>Node1&#45;&gt;Node6</title>
<g id="a_edge5_Node000001_Node000006"><a xlink:title=" ">
<path fill="none" stroke="#63b8ff" d="M77.18,-21.68C88.71,-19.87 101.44,-17.87 113.15,-16.03"/>
<polygon fill="#63b8ff" stroke="#63b8ff" points="113.62,-19.5 122.95,-14.49 112.53,-12.58 113.62,-19.5"/>
</a>
</g>
</g>
<!-- Node3 -->
<g id="Node000003" class="node">
<title>Node3</title>
<g id="a_Node000003"><a xlink:href="../../d8/d1b/bit-stream_8h.html#a1b0d940a6942aa354c38c767dc5bc861" target="_top" xlink:title=" ">
<polygon fill="white" stroke="#666666" points="319.88,-93.25 272.38,-93.25 272.38,-74 319.88,-74 319.88,-93.25"/>
<text text-anchor="middle" x="296.12" y="-79.75" font-family="Helvetica,sans-Serif" font-size="10.00">bs_has</text>
</a>
</g>
</g>
<!-- Node2&#45;&gt;Node3 -->
<g id="edge2_Node000002_Node000003" class="edge">
<title>Node2&#45;&gt;Node3</title>
<g id="a_edge2_Node000002_Node000003"><a xlink:title=" ">
<path fill="none" stroke="#63b8ff" d="M193.93,-56.74C214.89,-62.31 240.7,-69.16 261.01,-74.56"/>
<polygon fill="#63b8ff" stroke="#63b8ff" points="259.93,-77.89 270.49,-77.08 261.73,-71.13 259.93,-77.89"/>
</a>
</g>
</g>
<!-- Node5 -->
<g id="Node000005" class="node">
<title>Node5</title>
<g id="a_Node000005"><a xlink:href="../../d8/d37/mem_8blk.html#ab1e585a4f25d3d3c3dd6512cf31f923e" target="_top" xlink:title=" ">
<polygon fill="white" stroke="#666666" points="359.25,-56.25 233,-56.25 233,-37 359.25,-37 359.25,-56.25"/>
<text text-anchor="middle" x="296.12" y="-42.75" font-family="Helvetica,sans-Serif" font-size="10.00">mem_tool_allow_memory</text>
</a>
</g>
</g>
<!-- Node2&#45;&gt;Node5 -->
<g id="edge4_Node000002_Node000005" class="edge">
<title>Node2&#45;&gt;Node5</title>
<g id="a_edge4_Node000002_Node000005"><a xlink:title=" ">
<path fill="none" stroke="#63b8ff" d="M197.28,-46.62C204.94,-46.62 213.15,-46.62 221.44,-46.62"/>
<polygon fill="#63b8ff" stroke="#63b8ff" points="221.23,-50.13 231.23,-46.63 221.23,-43.13 221.23,-50.13"/>
</a>
</g>
</g>
<!-- Node4 -->
<g id="Node000004" class="node">
<title>Node4</title>
<g id="a_Node000004"><a xlink:href="../../d8/d1b/bit-stream_8h.html#a6cd3e2dd5a071992eff09950706b07e6" target="_top" xlink:title=" ">
<polygon fill="white" stroke="#666666" points="439.75,-93.25 395.25,-93.25 395.25,-74 439.75,-74 439.75,-93.25"/>
<text text-anchor="middle" x="417.5" y="-79.75" font-family="Helvetica,sans-Serif" font-size="10.00">bs_len</text>
</a>
</g>
</g>
<!-- Node3&#45;&gt;Node4 -->
<g id="edge3_Node000003_Node000004" class="edge">
<title>Node3&#45;&gt;Node4</title>
<g id="a_edge3_Node000003_Node000004"><a xlink:title=" ">
<path fill="none" stroke="#63b8ff" d="M320.14,-83.62C338.07,-83.62 363.2,-83.62 383.3,-83.62"/>
<polygon fill="#63b8ff" stroke="#63b8ff" points="383.25,-87.13 393.25,-83.63 383.25,-80.13 383.25,-87.13"/>
</a>
</g>
</g>
<!-- Node7 -->
<g id="Node000007" class="node">
<title>Node7</title>
<g id="a_Node000007"><a xlink:href="../../d8/d1b/bit-stream_8h.html#ac7c3f7fc264c42a4d53cf5bd3b4e8f49" target="_top" xlink:title=" ">
<polygon fill="white" stroke="#666666" points="333.38,-19.25 258.88,-19.25 258.88,0 333.38,0 333.38,-19.25"/>
<text text-anchor="middle" x="296.12" y="-5.75" font-family="Helvetica,sans-Serif" font-size="10.00">bit_ptroff_add</text>
</a>
</g>
</g>
<!-- Node6&#45;&gt;Node7 -->
<g id="edge6_Node000006_Node000007" class="edge">
<title>Node6&#45;&gt;Node7</title>
<g id="a_edge6_Node000006_Node000007"><a xlink:title=" ">
<path fill="none" stroke="#63b8ff" d="M185.41,-9.62C203.31,-9.62 226.58,-9.62 247.07,-9.62"/>
<polygon fill="#63b8ff" stroke="#63b8ff" points="246.93,-13.13 256.93,-9.63 246.93,-6.13 246.93,-13.13"/>
</a>
</g>
</g>
</g>
</svg>
</svg>

<style type='text/css'>
<![CDATA[
[data-mouse-over-selected='false'] { opacity: 0.7; }
[data-mouse-over-selected='true']  { opacity: 1.0; }
]]>
</style>
<script type="application/ecmascript"><![CDATA[
document.addEventListener('DOMContentLoaded', (event) => {
  highlightEdges();
  highlightAdjacentNodes();
});
]]></script>
</svg>
