<?xml version="1.0" encoding="UTF-8" standalone="no"?>
<!DOCTYPE svg PUBLIC "-//W3C//DTD SVG 1.1//EN"
 "http://www.w3.org/Graphics/SVG/1.1/DTD/svg11.dtd">
<!-- Generated by graphviz version 9.0.0 (20230911.1827)
 -->
<!-- Title: bs_align Pages: 1 -->
<svg width="353pt" height="64pt"
 viewBox="0.00 0.00 352.50 64.25" xmlns="http://www.w3.org/2000/svg" xmlns:xlink="http://www.w3.org/1999/xlink">
<g id="graph0" class="graph" transform="scale(1 1) rotate(0) translate(4 60.25)">
<title>bs_align</title>
<!-- Node1 -->
<g id="Node000001" class="node">
<title>Node1</title>
<g id="a_Node000001"><a xlink:title=" ">
<polygon fill="#999999" stroke="#666666" points="52,-37.25 0,-37.25 0,-18 52,-18 52,-37.25"/>
<text text-anchor="middle" x="26" y="-23.75" font-family="Helvetica,sans-Serif" font-size="10.00">bs_align</text>
</a>
</g>
</g>
<!-- Node2 -->
<g id="Node000002" class="node">
<title>Node2</title>
<g id="a_Node000002"><a xlink:href="../../d8/d1b/bit-stream_8h.html#a624d7fd375ce9d502e3d06e376e851dc" target="_top" xlink:title=" ">
<polygon fill="white" stroke="#666666" points="137.75,-37.25 88,-37.25 88,-18 137.75,-18 137.75,-37.25"/>
<text text-anchor="middle" x="112.88" y="-23.75" font-family="Helvetica,sans-Serif" font-size="10.00">bs_skip</text>
</a>
</g>
</g>
<!-- Node1&#45;&gt;Node2 -->
<g id="edge1_Node000001_Node000002" class="edge">
<title>Node1&#45;&gt;Node2</title>
<g id="a_edge1_Node000001_Node000002"><a xlink:title=" ">
<path fill="none" stroke="#63b8ff" d="M52.47,-27.62C59.95,-27.62 68.27,-27.62 76.26,-27.62"/>
<polygon fill="#63b8ff" stroke="#63b8ff" points="76.08,-31.13 86.08,-27.63 76.08,-24.13 76.08,-31.13"/>
</a>
</g>
</g>
<!-- Node3 -->
<g id="Node000003" class="node">
<title>Node3</title>
<g id="a_Node000003"><a xlink:href="../../d8/d1b/bit-stream_8h.html#a9314cf527c89c282a39950c0ef72b97f" target="_top" xlink:title=" ">
<polygon fill="white" stroke="#666666" points="234,-56.25 173.75,-56.25 173.75,-37 234,-37 234,-56.25"/>
<text text-anchor="middle" x="203.88" y="-42.75" font-family="Helvetica,sans-Serif" font-size="10.00">__bs_skip</text>
</a>
</g>
</g>
<!-- Node2&#45;&gt;Node3 -->
<g id="edge2_Node000002_Node000003" class="edge">
<title>Node2&#45;&gt;Node3</title>
<g id="a_edge2_Node000002_Node000003"><a xlink:title=" ">
<path fill="none" stroke="#63b8ff" d="M138.19,-32.82C145.7,-34.42 154.17,-36.23 162.45,-37.99"/>
<polygon fill="#63b8ff" stroke="#63b8ff" points="161.53,-41.38 172.04,-40.04 162.99,-34.53 161.53,-41.38"/>
</a>
</g>
</g>
<!-- Node5 -->
<g id="Node000005" class="node">
<title>Node5</title>
<g id="a_Node000005"><a xlink:href="../../d8/d1b/bit-stream_8h.html#a1b0d940a6942aa354c38c767dc5bc861" target="_top" xlink:title=" ">
<polygon fill="white" stroke="#666666" points="227.62,-19.25 180.12,-19.25 180.12,0 227.62,0 227.62,-19.25"/>
<text text-anchor="middle" x="203.88" y="-5.75" font-family="Helvetica,sans-Serif" font-size="10.00">bs_has</text>
</a>
</g>
</g>
<!-- Node2&#45;&gt;Node5 -->
<g id="edge4_Node000002_Node000005" class="edge">
<title>Node2&#45;&gt;Node5</title>
<g id="a_edge4_Node000002_Node000005"><a xlink:title=" ">
<path fill="none" stroke="#63b8ff" d="M138.19,-22.71C147.62,-20.8 158.57,-18.58 168.76,-16.52"/>
<polygon fill="#63b8ff" stroke="#63b8ff" points="169.22,-20 178.33,-14.59 167.83,-13.14 169.22,-20"/>
</a>
</g>
</g>
<!-- Node4 -->
<g id="Node000004" class="node">
<title>Node4</title>
<g id="a_Node000004"><a xlink:href="../../d8/d1b/bit-stream_8h.html#ac7c3f7fc264c42a4d53cf5bd3b4e8f49" target="_top" xlink:title=" ">
<polygon fill="white" stroke="#666666" points="344.5,-56.25 270,-56.25 270,-37 344.5,-37 344.5,-56.25"/>
<text text-anchor="middle" x="307.25" y="-42.75" font-family="Helvetica,sans-Serif" font-size="10.00">bit_ptroff_add</text>
</a>
</g>
</g>
<!-- Node3&#45;&gt;Node4 -->
<g id="edge3_Node000003_Node000004" class="edge">
<title>Node3&#45;&gt;Node4</title>
<g id="a_edge3_Node000003_Node000004"><a xlink:title=" ">
<path fill="none" stroke="#63b8ff" d="M234.47,-46.62C241.94,-46.62 250.15,-46.62 258.27,-46.62"/>
<polygon fill="#63b8ff" stroke="#63b8ff" points="258.08,-50.13 268.08,-46.63 258.08,-43.13 258.08,-50.13"/>
</a>
</g>
</g>
<!-- Node6 -->
<g id="Node000006" class="node">
<title>Node6</title>
<g id="a_Node000006"><a xlink:href="../../d8/d1b/bit-stream_8h.html#a6cd3e2dd5a071992eff09950706b07e6" target="_top" xlink:title=" ">
<polygon fill="white" stroke="#666666" points="329.5,-19.25 285,-19.25 285,0 329.5,0 329.5,-19.25"/>
<text text-anchor="middle" x="307.25" y="-5.75" font-family="Helvetica,sans-Serif" font-size="10.00">bs_len</text>
</a>
</g>
</g>
<!-- Node5&#45;&gt;Node6 -->
<g id="edge5_Node000005_Node000006" class="edge">
<title>Node5&#45;&gt;Node6</title>
<g id="a_edge5_Node000005_Node000006"><a xlink:title=" ">
<path fill="none" stroke="#63b8ff" d="M227.88,-9.62C241.34,-9.62 258.56,-9.62 273.42,-9.62"/>
<polygon fill="#63b8ff" stroke="#63b8ff" points="273.21,-13.13 283.21,-9.63 273.21,-6.13 273.21,-13.13"/>
</a>
</g>
</g>
</g>
</svg>
